<svg height="725" viewBox="0 0 1200 725" width="1200" xmlns="http://www.w3.org/2000/svg"><g fill="none" fill-rule="evenodd" transform="translate(.3)"><path d="m0 0h1200v725h-1200z" fill="#fff"/><g><g fill-rule="nonzero" transform="translate(40 625)"><path d="m11.9916264 26.5675676h7.0100857v-24.74701495h-4.1389336v19.99377725h-.1491508l-7.19652414-19.99377725h-7.01008572v24.74701495h4.13893359v-19.99377733h.14915076zm12.9015407 0h12.9388285v-3.7346867h-8.4643057v-21.01232825h-4.4745228zm29.3081244 0c8.0168533 0 13.0134038-4.1496519 13.0134038-13.0902655 0-7.46937345-4.5863859-11.65674945-12.8642531-11.65674945h-7.0100857v24.74701495zm-2.3864122-21.01232825h2.2372614c5.2575643 0 8.4643057 2.791584 8.4643057 8.14840735 0 6.4508225-3.2067414 9.1292342-8.1287165 9.1292342h-2.5728506zm24.3861493-3.7346867h-4.4745228v24.74701495h4.4745228zm15.884556 16.07047005h3.7660566v5.0550305c-1.081343.1131723-1.7152337.1508964-2.8338644.1508964-4.1762213 0-7.6066888-2.8670322-7.6066888-8.6388207 0-5.96040912 3.5050429-8.94061366 8.3897303-8.94061366 1.9389599 0 3.3186044.07544822 5.3321397.37724108l.3355892-3.84785902c-1.7152338-.33951698-3.2813167-.49041341-5.5185781-.49041341-7.4575381 0-13.23713 4.26282422-13.23713 13.35433431 0 7.9220627 4.9219751 11.9208181 12.1184993 11.9208181 2.6474259 0 4.921975-.2263446 7.3456746-.716758v-11.9208182h-8.0914284zm17.5997894-16.07047005v24.74701495h-4.474523v-24.74701495z" fill="#e98400"/><path d="m130.117049 16.8347477c0-5.9981332-3.057591-8.90288954-7.457538-8.90288954-1.752522 0-3.169454.33951698-4.8474 1.20717146v-8.94061362l-2.460988.22634465v25.95418635c1.976248.339517 3.542331.4149652 5.33214.4149652 5.518578 0 9.433786-3.6215144 9.433786-9.9591645zm-2.610139.2640687c0 5.0927546-2.833864 7.4316493-6.413482 7.4316493-1.118631 0-2.088111-.0377241-3.281317-.2263446v-13.0525414c1.379644-.679034 2.684714-.9808268 4.101646-.9808268 3.430467 0 5.593153 1.9993777 5.593153 6.8280635zm5.742304.3017929c0 6.5639948 3.281317 9.3933029 8.166005 9.3933029 2.349124 0 3.952495-.3772411 5.854167-1.2448956l.037288-2.3388947c-1.864385.8676545-3.579619 1.2448956-5.630442 1.2448956-3.430467 0-5.96603-2.2257224-5.891455-7.2430287h11.708335c.037288-.7544822.037288-1.4335162.037288-2.0371019 0-4.8286858-2.498275-7.35620106-6.823648-7.35620106-4.064358 0-7.457538 3.28199736-7.457538 9.58192346zm2.647426-2.3388947c.372877-3.2065492 2.386413-5.0550305 4.698249-5.0550305 2.722002 0 4.213509 1.5844125 4.213509 5.0550305zm14.020172-4.7909617h2.199974v10.8645431c0 4.4137206 2.237261 5.6586162 4.772824 5.6586162 1.081343 0 1.93896-.1131723 3.057591-.4149652v-2.1502741c-.932193.1886205-1.566083.2640687-2.498276.2640687-1.677946 0-2.871152-1.056275-2.871152-3.4706179v-10.7513708h4.772825v-2.11255009h-4.772825v-3.62151438l-2.460987.41496519v3.20654919h-2.199974zm11.969348 7.1298564c0 6.5639948 3.281317 9.3933029 8.166005 9.3933029 2.349124 0 3.952495-.3772411 5.854167-1.2448956l.037288-2.3388947c-1.864385.8676545-3.579619 1.2448956-5.630442 1.2448956-3.430467 0-5.96603-2.2257224-5.891455-7.2430287h11.708335c.037288-.7544822.037288-1.4335162.037288-2.0371019 0-4.8286858-2.498276-7.35620106-6.823648-7.35620106-4.064358 0-7.457538 3.28199736-7.457538 9.58192346zm2.647426-2.3388947c.372877-3.2065492 2.386413-5.0550305 4.698249-5.0550305 2.722002 0 4.213509 1.5844125 4.213509 5.0550305zm24.125136-6.86578768-.335589 2.52751528c-.82033-.2263447-1.342357-.3017929-2.088111-.3017929-1.193206 0-2.162686.6035857-3.542331 2.0371018v14.1088165h-2.460987v-18.29619246l2.4237-.22634465v2.15027411c1.416932-1.6221366 2.610138-2.26344644 3.915207-2.26344644.783042 0 1.305069.07544822 2.088111.26406876z" fill="#e98400"/><path d="m7.09863903 43.1346376h-2.0472093l-4.64771841 12.2404281h1.47546616l1.0881563-3.1720622h4.40795516l.59018646 3.1720622h1.53079615zm-1.12504295 1.1195513 1.23570291 6.7546265h-3.76243871l2.39763251-6.7546265zm10.82623292 1.9778741c-.3873098-.093296-.8115063-.1492736-1.3648062-.1492736-2.2316425 0-4.2972951 2.2017844-4.2972951 6.2881468 0 2.3323987.8299497 3.1720622 2.0287659 3.1720622 1.014383 0 1.8996627-.5224573 2.7296124-1.6606679h.05533l-.1659899 1.6233495c-.16599 1.6420086-.9959397 2.3323986-2.4160759 2.3323986-.8115064 0-1.6045694-.1119551-2.5082925-.3731837v1.287484c.9406097.1865919 1.6598995.2425695 2.6005092.2425695 1.8443327 0 3.3935721-1.0075963 3.6148921-3.5265868l.8299497-9.4228905zm-.7746197 6.2694875c-.8852797 1.2315065-1.7705594 1.8286006-2.4160758 1.8286006-.6270731 0-1.1065996-.5224573-1.1065996-2.0525108 0-3.3399949 1.4385795-5.0752995 2.821829-5.0752995.4057532 0 .8299497.0373184 1.1619296.1119551zm3.5226755-.3358654c0 2.369717.9959396 3.3773133 2.8033857 3.3773133 1.1250429 0 1.8812193-.1865919 2.7480557-.6530717v-1.2128473c-.793063.4291614-1.5307961.6530717-2.3791892.6530717-1.1803729 0-1.8443327-.5411165-1.8443327-2.5936273 2.987819 0 4.850595-1.4367576 4.850595-3.545246 0-1.3248024-.8299497-2.1084884-2.3423025-2.1084884-1.8812194 0-3.836212 1.9592149-3.836212 6.0828957zm4.8137083-3.8064746c0 1.3061433-1.2172596 2.3323987-3.3935721 2.3323987.2582065-2.3510579 1.3463628-3.45195 2.2685292-3.45195.7192897 0 1.1250429.3731838 1.1250429 1.1195513zm7.3773308 7.0158552h1.3094763l.5901864-6.2321692c.2028766-2.2204435-.5532998-3.0601071-1.8443327-3.0601071-.848393 0-1.6967861.4105022-2.7480557 1.474076h-.05533l.1291033-1.3994392-1.3094762.1679327-.8115064 9.0497068h1.3094762l.5901865-6.5493754c1.1250429-1.0075963 1.9918793-1.4554168 2.5267358-1.4554168.6086298 0 1.0328263.4664797.8852797 1.9778741zm10.881563-13.0800917-1.3279196.1679327-.3319798 3.7318379c-.3319799-.0746368-.7008465-.1119552-1.1619296-.1119552-2.2316426 0-4.2972952 2.2017844-4.2972952 6.2881468 0 2.3323987.8299497 3.1720622 2.0287659 3.1720622 1.014383 0 1.8996627-.5224573 2.7296124-1.6606679h.05533l-.1475466 1.4927352h1.2725896zm-2.2316426 10.2065765c-.8852797 1.2315065-1.7705594 1.8286006-2.4160758 1.8286006-.6270731 0-1.1065996-.5224573-1.1065996-2.0525108 0-3.3399949 1.4385795-5.0752995 2.821829-5.0752995.4057532 0 .848393.0373184 1.1803729.1119551zm9.2585502-6.2694875c-.3873099-.093296-.8115064-.1492736-1.3648062-.1492736-2.2316426 0-4.2972952 2.2017844-4.2972952 6.2881468 0 2.3323987.8299497 3.1720622 2.028766 3.1720622 1.014383 0 1.918106-.5224573 2.7296124-1.6606679h.0553299l-.1475466 1.4927352h1.2725896l.8299497-9.3295946zm-.7746197 6.2694875c-.8852797 1.2315065-1.7705594 1.8286006-2.4160759 1.8286006-.6270731 0-1.1065996-.5224573-1.1065996-2.0525108 0-3.3399949 1.4385795-5.0752995 2.821829-5.0752995.4057532 0 .8299497.0373184 1.1619296.1119551zm10.6971296 2.8735152c3.6517788 0 6.0678546-2.3510579 6.0678546-6.9225592 0-3.3026765-2.1578692-5.3178689-5.4038948-5.3178689h-3.1353656l-.903723 12.2404281zm.4610832-11.04624c2.5820658 0 4.1497486 1.6233494 4.1497486 4.347591 0 3.7504971-1.862776 5.5044609-4.4632852 5.5044609h-2.0472093l.7192898-9.8520519zm9.4983134 1.8286005-1.3279195.1679327-.8115064 9.0497068h1.3094762zm-1.1988162-2.7802192c0 .4851389.2950932.7277084.7192897.7277084.5717432 0 .903723-.4105022.903723-.9143003 0-.4664797-.2582065-.7463675-.7192897-.7463675-.5348565 0-.903723.3545245-.903723.9329594zm8.5945904 2.854856c-.3873099-.093296-.8115064-.1492736-1.3648062-.1492736-2.2316426 0-4.2972952 2.2017844-4.2972952 6.2881468 0 2.3323987.8299497 3.1720622 2.0287659 3.1720622 1.014383 0 1.8996627-.5224573 2.7296124-1.6606679h.05533l-.1659899 1.6233495c-.16599 1.6420086-.9959397 2.3323986-2.4160759 2.3323986-.8115064 0-1.6045694-.1119551-2.5082924-.3731837v1.287484c.9406096.1865919 1.6598994.2425695 2.6005091.2425695 1.8443327 0 3.3935721-1.0075963 3.6148921-3.5265868l.8299497-9.4228905zm-.7746198 6.2694875c-.8852797 1.2315065-1.7705594 1.8286006-2.4160758 1.8286006-.6270731 0-1.1065996-.5224573-1.1065996-2.0525108 0-3.3399949 1.4385795-5.0752995 2.821829-5.0752995.4057532 0 .8299497.0373184 1.1619296.1119551zm5.7912047-6.3441243-1.3279195.1679327-.8115064 9.0497068h1.3094762zm-1.1988162-2.7802192c0 .4851389.2950932.7277084.7192897.7277084.5717432 0 .903723-.4105022.903723-.9143003 0-.4664797-.2582065-.7463675-.7192897-.7463675-.5348565 0-.903723.3545245-.903723.9329594zm3.0062623 3.9370889h.9221663l-.5532998 5.4484833c-.2028766 2.0151924.4426399 2.7802192 1.6967861 2.7802192.7377331 0 1.069713-.0559776 1.6967861-.2798879v-1.1755289c-.5348565.1865919-.8299497.2425695-1.2910329.2425695-.6086298 0-.9221664-.3545246-.7930631-1.6606679l.5348565-5.3551873h1.862776l.11066-1.0635738h-1.862776l.2213199-2.1644659-1.3094762.2052511-.1844333 1.9592148h-1.0512696zm10.8446763-1.0822329c-.3873099-.093296-.8115064-.1492736-1.3648062-.1492736-2.2316426 0-4.2972952 2.2017844-4.2972952 6.2881468 0 2.3323987.8299497 3.1720622 2.0287659 3.1720622 1.014383 0 1.918106-.5224573 2.7296124-1.6606679h.05533l-.1475466 1.4927352h1.2725896l.8299497-9.3295946zm-.7746198 6.2694875c-.8852797 1.2315065-1.7705594 1.8286006-2.4160758 1.8286006-.6270731 0-1.1065996-.5224573-1.1065996-2.0525108 0-3.3399949 1.4385795-5.0752995 2.821829-5.0752995.4057532 0 .8299497.0373184 1.1619296.1119551zm6.1416279-10.2065765-1.3279195.1679327-1.1619296 12.912159h1.3094762zm1.3279194 9.8707111c0 2.369717.99594 3.3773133 2.803386 3.3773133 1.125043 0 1.881219-.1865919 2.748056-.6530717v-1.2128473c-.793063.4291614-1.530797.6530717-2.37919.6530717-1.180373 0-1.844332-.5411165-1.844332-2.5936273 2.987819 0 4.850595-1.4367576 4.850595-3.545246 0-1.3248024-.82995-2.1084884-2.342303-2.1084884-1.881219 0-3.836212 1.9592149-3.836212 6.0828957zm4.813709-3.8064746c0 1.3061433-1.21726 2.3323987-3.393573 2.3323987.258207-2.3510579 1.346363-3.45195 2.26853-3.45195.719289 0 1.125043.3731838 1.125043 1.1195513zm11.656182-5.3925056c-3.153809 0-5.569885 2.6309456-5.569885 7.5196532 0 3.4332908 1.696787 5.0566403 4.223522 5.0566403 2.932489 0 5.569885-2.556309 5.569885-7.2211063 0-3.3399948-1.733673-5.3551872-4.223522-5.3551872zm-.239763 1.287484c1.770559 0 2.987819 1.2688249 2.987819 4.3849095 0 3.7878154-1.918106 5.6350751-3.854655 5.6350751-1.789003 0-2.987819-1.0635738-2.987819-4.0677032 0-3.8811114 1.789002-5.9522814 3.854655-5.9522814zm7.524877 11.1208768h1.60457l.995939-1.9032373c1.1066-2.1271476 1.88122-4.3289319 2.360746-7.2211063h-1.364806c-.461083 3.0227887-1.088156 5.0193219-1.991879 6.8852409l-.49797 1.0262554h-.073773l-1.198817-7.9114963h-1.401692zm5.662102-3.2093806c0 2.369717.995939 3.3773133 2.803385 3.3773133 1.125043 0 1.88122-.1865919 2.748056-.6530717v-1.2128473c-.793063.4291614-1.530796.6530717-2.379189.6530717-1.180373 0-1.844333-.5411165-1.844333-2.5936273 2.987819 0 4.850595-1.4367576 4.850595-3.545246 0-1.3248024-.829949-2.1084884-2.342302-2.1084884-1.88122 0-3.836212 1.9592149-3.836212 6.0828957zm4.813708-3.8064746c0 1.3061433-1.217259 2.3323987-3.393572 2.3323987.258207-2.3510579 1.346363-3.45195 2.268529-3.45195.71929 0 1.125043.3731838 1.125043 1.1195513zm7.377331-2.1458067c-.184433-.093296-.38731-.1306144-.60863-.1306144-.737733 0-1.272589.2985471-2.120982 1.7912822h-.073774l.16599-1.7166454-1.309476.1679327-.756176 9.0497068h1.309476l.516413-6.0642365c.682403-1.1568698 1.493909-1.8286006 2.176313-1.8286006.221319 0 .331979 0 .534856.0373184zm5.274791 9.1616619h1.309477l.590186-6.2321692c.202877-2.2204435-.5533-3.0601071-1.844333-3.0601071-.848393 0-1.696786.4291614-2.748055 1.474076h-.05533l.49797-5.2618914-1.32792.1679327-1.16193 12.912159h1.309477l.590186-6.5493754c1.1066-.9889371 1.973436-1.4554168 2.545179-1.4554168.60863 0 .99594.4664797.866837 1.9778741zm3.707109-3.2093806c0 2.369717.99594 3.3773133 2.803386 3.3773133 1.125043 0 1.881219-.1865919 2.748056-.6530717v-1.2128473c-.793063.4291614-1.530796.6530717-2.37919.6530717-1.180372 0-1.844332-.5411165-1.844332-2.5936273 2.987819 0 4.850595-1.4367576 4.850595-3.545246 0-1.3248024-.82995-2.1084884-2.342303-2.1084884-1.881219 0-3.836212 1.9592149-3.836212 6.0828957zm4.813709-3.8064746c0 1.3061433-1.21726 2.3323987-3.393573 2.3323987.258207-2.3510579 1.346363-3.45195 2.26853-3.45195.719289 0 1.125043.3731838 1.125043 1.1195513zm4.776821-2.2017843-1.327919.1679327-.811507 9.0497068h1.309477zm-1.198816-2.7802192c0 .4851389.295093.7277084.71929.7277084.571743 0 .903723-.4105022.903723-.9143003 0-.4664797-.258207-.7463675-.71929-.7463675-.534856 0-.903723.3545245-.903723.9329594zm10.051613-1.082233-1.327919.1679327-.33198 3.7318379c-.33198-.0746368-.700847-.1119552-1.16193-.1119552-2.231642 0-4.297295 2.2017844-4.297295 6.2881468 0 2.3323987.82995 3.1720622 2.028766 3.1720622 1.014383 0 1.899663-.5224573 2.729612-1.6606679h.05533l-.147546 1.4927352h1.272589zm-2.231642 10.2065765c-.88528 1.2315065-1.77056 1.8286006-2.416076 1.8286006-.627073 0-1.1066-.5224573-1.1066-2.0525108 0-3.3399949 1.43858-5.0752995 2.821829-5.0752995.405753 0 .848393.0373184 1.180373.1119551z" fill="#1a1919"/></g><g fill="#80c9e4" transform="translate(230 623)"><path d="m27.3921029 26.7304c-3.4083823-.256-6.3816176 2.2592-6.6436764 5.6176-.2572059 3.3568 2.2954411 6.2864 5.7022059 6.5424 3.4083823.2576 6.3816176-2.2576 6.6420588-5.6176.2588235-3.3584-2.2922059-6.2864-5.7005883-6.5424"/><path d="m28.5314118 13.15456c-6.9316177-.5232-13.6642647 2.4304-17.9914706 7.8976-.99970591 1.2624-.77323532 3.088.5111764 4.0752 1.2827942.9872 3.135.76 4.1363236-.5024 3.1091176-3.9296 7.9248529-6.048 12.8975-5.6784 4.6458823.3488 8.7822059 2.7872 11.3558823 6.6928.5645589.8576 1.5092647 1.3232 2.475 1.3232.5516177 0 1.1064706-.1504 1.6014706-.4672 1.3669118-.8736 1.7551471-2.672.8670588-4.0176-3.5798529-5.4384-9.3580882-8.8368-15.8529411-9.3232"/><path d="m29.4998971.63344c-9.6880883-.728-20.67352945 3.6288-27.98691181 11.0944-1.1275 1.1536-1.0967647 2.9936.07602942 4.1056 1.16955882 1.1136 3.03794117 1.0816 4.16544117-.072 6.14382352-6.272 15.28514702-9.9296 23.29735292-9.336 8.3163236.624 14.9276471 4.1056 19.6527941 10.3488.5775.7648 1.4655883 1.1696 2.3666177 1.1696.6130882 0 1.2277941-.1872 1.7567647-.576 1.3054412-.9584 1.5772059-2.7776.6033823-4.064-5.7879411-7.6496-13.8389705-11.912-23.9314705-12.6704"/></g></g><path d="m156.6 354.35 578.55-173.25 309.6 115.5-567.75 182.25 401.25 113.4" stroke="#a90061" stroke-width="5"/><g fill="#a90061" fill-rule="nonzero"><path d="m868.8 633.35c80.55 0 145.8-18.45 145.8-41.1s-65.25-41.1-145.8-41.1-145.8 18.45-145.8 41.1 65.25 41.1 145.8 41.1z"/><path d="m483.75 519.8c80.55 0 145.8-18.45 145.8-41.1s-65.25-41.1-145.8-41.1-145.8 18.45-145.8 41.1c0 22.8 65.25 41.1 145.8 41.1z"/><path d="m1038.6 337.7c80.55 0 145.8-18.45 145.8-41.1s-65.25-41.1-145.8-41.1-145.8 18.45-145.8 41.1c.15 22.8 65.4 41.1 145.8 41.1z"/><path d="m732.45 222.2c80.55 0 145.8-18.45 145.8-41.1s-65.25-41.1-145.8-41.1-145.8 18.45-145.8 41.1c.15 22.65 65.4 41.1 145.8 41.1z"/><path d="m160.8 395.45c80.55 0 145.8-18.45 145.8-41.1s-65.25-41.1-145.8-41.1-145.8 18.45-145.8 41.1c.15 22.8 65.4 41.1 145.8 41.1z"/></g></g></svg>