<svg height="725" viewBox="0 0 1200 725" width="1200" xmlns="http://www.w3.org/2000/svg"><g fill="none" fill-rule="evenodd" transform="translate(.3)"><path d="m0 0h1200v725h-1200z" fill="#fff"/><path d="m156.6 354.35 578.55-173.25 309.6 115.5-567.75 182.25 401.25 113.4" stroke="#42145f" stroke-width="5"/><g fill="#42145f" fill-rule="nonzero"><path d="m868.8 633.35c80.55 0 145.8-18.45 145.8-41.1s-65.25-41.1-145.8-41.1-145.8 18.45-145.8 41.1 65.25 41.1 145.8 41.1z"/><path d="m483.75 519.8c80.55 0 145.8-18.45 145.8-41.1s-65.25-41.1-145.8-41.1-145.8 18.45-145.8 41.1c0 22.8 65.25 41.1 145.8 41.1z"/><path d="m1038.6 337.7c80.55 0 145.8-18.45 145.8-41.1s-65.25-41.1-145.8-41.1-145.8 18.45-145.8 41.1c.15 22.8 65.4 41.1 145.8 41.1z"/><path d="m732.45 222.2c80.55 0 145.8-18.45 145.8-41.1s-65.25-41.1-145.8-41.1-145.8 18.45-145.8 41.1c.15 22.65 65.4 41.1 145.8 41.1z"/><path d="m160.8 395.45c80.55 0 145.8-18.45 145.8-41.1s-65.25-41.1-145.8-41.1-145.8 18.45-145.8 41.1c.15 22.8 65.4 41.1 145.8 41.1z"/></g></g></svg>