<svg height="400" viewBox="0 0 1200 400" width="1200" xmlns="http://www.w3.org/2000/svg"><g fill="none" fill-rule="evenodd"><path d="m0 439h1201v-439h-1201z" fill="#dedfde" transform="translate(0 -100)"/><g transform="translate(428 31)"><path d="m210.3 214.8c0 .4-.6.7-1.3.7-.7 0-1.3-.3-1.3-.7v-119.7c0-.4.6-.7 1.3-.7.7 0 1.3.3 1.3.7z" fill="#5a5a5c" fill-rule="nonzero"/><path d="m166.8 226.4c-.1.4-.7.6-1.4.4-.7-.2-1.2-.7-1.1-1.1l21.5-127.7c.1-.4.7-.6 1.4-.4.7.2 1.2.7 1.1 1.1z" fill="#5a5a5c" fill-rule="nonzero"/><path d="m248.8 224.1c.1.4.7.6 1.4.4.7-.2 1.2-.7 1.1-1.1l-21.5-127.7c-.1-.4-.7-.6-1.4-.4-.7.2-1.2.7-1.1 1.1z" fill="#5a5a5c" fill-rule="nonzero"/><path d="m208.6.7h8.2v78.1h-8.2z" fill="#5a5a5c" fill-rule="nonzero"/><path d="m156.1 9.2h107.6v113.5h-107.6z" fill="#929497" fill-rule="nonzero"/><path d="m164.9 13.4h90.1v100.1h-90.1z" fill="#fff" fill-rule="nonzero"/><path d="m153.3 117.2h113.5v6.7h-113.5z" fill="#5a5a5c" fill-rule="nonzero"/><path d="m204.9 8.5h15.8v6.8h-15.8z" fill="#5a5a5c" fill-rule="nonzero"/><g fill-rule="nonzero" transform="translate(182 28)"><path d="m40 44.1c-.3 1.4-.8 2.8-1.2 4.3-3.1 9.1-8.3 15.9-15.4 20.2-7.1-4.3-12.3-11.1-15.4-20.2-2.7-7.9-2.8-14.6-2.8-14.7v-7.4l3.6 1.4 7.5 8.3 7.5-6.1 3.2 4.7-1.2 10.1 11.5-1.6z" fill="#cee9fb"/><path d="m44.9 45.9c-2.4 9.4-8.1 21.9-21.5 28.6-23.3-11.7-23.3-40.8-23.3-40.8v-9.4l5.2 2v7.4s.1 6.8 2.8 14.7c3.1 9.1 8.3 15.9 15.4 20.2 7.1-4.3 12.3-11.1 15.4-20.2.5-1.5.9-2.9 1.2-4.3z" fill="#92d2f4"/><path d="m54.6 5.9v17.5s0 5.3-1.8 12.3l-4.9-1.9c1.5-5.9 1.5-10.4 1.5-10.4v-14.8c-2.9-1.5-8.8-3.4-18.2-3.4-9.3 0-15.2 1.8-18.1 3.4v7.4l-5.2-2v-8.1s5.8-5.8 23.3-5.8 23.4 5.8 23.4 5.8z" fill="#92d2f4"/><path d="m49.5 8.6v14.8c0 .1 0 4.5-1.5 10.4l-2.8-1-11.5 1.6 1.2-10.1-3.2-4.7-7.5 6.1-7.5-8.3-3.6-1.4v-7.4c2.9-1.5 8.8-3.4 18.1-3.4 9.4.1 15.3 1.9 18.3 3.4z" fill="#cee9fb"/></g><circle cx="177.87238" cy="32.68344" fill="#d52e1e" fill-rule="nonzero" r="6.39993" transform="matrix(.67740742 -.73560804 .73560804 .67740742 33.338109 141.387789)"/><path d="m176.1 30.3c.7-.2 1.3-.3 1.9-.3h.7v5.4h-1.2v-4.2c-.5 0-.9 0-1.4.1z" fill="#fff" fill-rule="nonzero"/><circle cx="230.20824" cy="25.65642" fill="#d52e1e" fill-rule="nonzero" r="6.39993" transform="matrix(.67740742 -.73560804 .73560804 .67740742 55.390402 177.619604)"/><path d="m228.3 23.1c.6-.1 1.1-.2 1.7-.2 1.4 0 2.1.7 2.1 1.7 0 .8-.5 1.3-1.4 1.7l-.7.3c-.3.1-.6.3-.9.6h3.2v1.1h-4.3l-.2-.9c.1-.6.6-1.1 1.4-1.5l.8-.4c.6-.3.8-.5.8-.8 0-.4-.4-.6-1-.6-.5 0-1 0-1.5.2z" fill="#fff" fill-rule="nonzero"/><circle cx="243.35372" cy="65.0959" fill="#d52e1e" fill-rule="nonzero" r="6.39993" transform="matrix(.67740742 -.73560804 .73560804 .67740742 30.619038 200.012409)"/><path d="m241.7 61.7h3.9l.2 1c-.4.8-.8 1.4-1.5 1.9 1 .2 1.6.9 1.6 1.9 0 1.4-1.3 2.4-3.4 2.4h-.9v-1h.9c1.4 0 2.1-.5 2.1-1.3 0-.6-.4-1-1.2-1.2-.4.2-.8.3-1.2.4l-.2-1c1.3-.3 2.2-1 2.7-2h-2.9z" fill="#fff" fill-rule="nonzero"/><circle cx="227.56898" cy="100.9136" fill="#d52e1e" fill-rule="nonzero" r="6.39993" transform="matrix(.67740742 -.73560804 .73560804 .67740742 -.82079 199.955551)"/><path d="m228.9 101.9h.8v1h-.8v1.8h-1.2v-1.8h-2.8l-.3-.8c.3-2 1.4-3.7 3.1-4.6h1.2zm-1.1 0v-3.2c-1.1.7-1.8 1.8-2 3.2z" fill="#fff" fill-rule="nonzero"/><circle cx="180.79544" cy="94.7435" fill="#d52e1e" fill-rule="nonzero" r="6.39993" transform="matrix(.67740742 -.73560804 .73560804 .67740742 -11.370812 163.55813)"/><path d="m183 92.4h-2.8v1.5h.7c1.5 0 2.4.9 2.3 2.1 0 1.6-1.4 2.6-3.4 2.6h-.9v-1h.9c1.2 0 2.1-.5 2.1-1.4 0-.7-.5-1.2-1.6-1.2-.4 0-.9 0-1.3.1v-3.7h3.8z" fill="#fff" fill-rule="nonzero"/><g stroke="#d52e1e" transform="translate(181 34)"><path d="m.6.4 1.4.6"/><path d="m3.8 1.8 12.6 5.5" stroke-dasharray="2.9567 1.9711"/><path d="m17.3 7.7 1.4.6"/></g><g stroke="#d52e1e" transform="translate(215 29)"><path d="m11.6.4-1.1 1"/><path d="m8.9 2.9-7 6.6" stroke-dasharray="3.2204 2.147"/><path d="m1.1 10.3-1.1 1"/></g><circle cx="199.7" cy="42.3" fill="#d52e1e" fill-rule="nonzero" r="2.5"/><g stroke="#d52e1e" transform="translate(184 70)"><path d="m.2 23.3 1.2-1"/><path d="m2.9 21.1 21.5-18.6" stroke-dasharray="2.944 1.9627"/><path d="m25.2 1.9 1.1-1"/></g><circle cx="210.3" cy="70.9" fill="#d52e1e" fill-rule="nonzero" r="2.5"/><circle cx="215.2" cy="41" fill="#d52e1e" fill-rule="nonzero" r="2.5"/><g stroke="#d52e1e" transform="translate(226 58)"><path d="m15.6 7.3-1.3-.7"/><path d="m12.3 5.7-9.1-4.2" stroke-dasharray="3.3404 2.2269"/><path d="m2.2 1-1.4-.6"/></g><circle cx="226.8" cy="58.4" fill="#d52e1e" fill-rule="nonzero" r="2.5"/><g stroke="#d52e1e" transform="translate(211 86)"><path d="m12.7 11.1-1.1-1"/><path d="m9.9 8.7-7.5-6.5" stroke-dasharray="3.3246 2.2164"/><path d="m1.5 1.4-1.1-1"/></g><g fill-rule="nonzero"><circle cx="211.4" cy="86.4" fill="#d52e1e" r="2.5"/><g transform="translate(88 12)"><path d="m26.8 216.7 2-4 12.7-.4-1.3 2.9c2.4 1.1 5.4 2.3 9.1 3.2 2.7.7 5.2 1 7.4 1.2.1 0 2.5.8 2.1 2.2-.7 2.6-18.5 1.5-19.1 1.3h-.1c-1.4-.3-2.7-.7-3.9-1.1l-.6.8-7.9-.5c-.1 0-.2-.1-.4-.1-1-.3 0-5.5 0-5.5z" fill="#000"/><path d="m1.7 224.2 2-4 12.7-.3-1.3 2.9c1.7 1.2 4 2.6 7.1 3.7 3.4 1.2 6.4 1.7 8.6 1.9 1.2.2 1.4 1.3 2 2.1.5.7-.1 1.6-1 1.6l-15.4-.9c-.6-.1-1.2-.3-1.9-.4h-.1c-1.4-.3-2.7-.7-3.9-1.1l-.6.8-7.9-.5c-.1 0-.2-.1-.4-.1-.9-.5.1-5.7.1-5.7z" fill="#000"/><path d="m38.4 112.3 11 51.8s-8.2 30.5-5.6 51.6c-14.6 1.9-17.3-3-17.3-3s0-37.4 1.3-45.8c-7-26.6-21.9-52.6-21.9-52.6z" fill="#00233e"/><path d="m40 118.6-3.9 53.4s-13.2 31.6-16.2 52.3c-16.9-2.7-17.9-2.7-17.9-2.7s10.5-41.8 13.2-49.8c-2.2-27.4-10.5-53.7-10.5-53.7z" fill="#003051"/><path d="m32.7 5.8s4.4 5.1 5.6 9.4c0 0 .4 1.1 0 1.8s-.4 1.1.4 2.2c.7 1.1 2.2 2.5 1.5 3.6s-2.2 1.5-2.2 1.5 1.5 2.5 0 3.3c0 0 1.1.7 0 2.2-1.1 1.1 1.1 4-3.2 5.5-4.7 1.1-5.8 2.6-6.5 3.7-.4 1.1-.4 1.1-.4 1.1l-15.7-5s1.1-2.2 1-5.5c0-3.3 0-3.3 0-3.3s7.9-19.3 19.5-20.5z" fill="#f6b086"/><path d="m35.3 54.7s.7-1.8-.4-4.7-1.8-1.8-2.6-5.5c-.4-4 0-5.5 0-5.5l-8.4-2.9-17.1 10.7s-.6 15 1.3 21.9c1.9 6.6 7.4 13.5 7.4 13.5z" fill="#003d64"/><path d="m32.3 39s-.1-.1 0 1.3c-.4 1.5 0 3.1 0 3.9 0 .7-1 1.9-1 1.9s-8.8-3.4-12.4-4.4c-3.7-1.4-8.4-4.7-8.4-4.7s0-2.2.3-3.3c0-.4.7-.7 1.1-.7 6.8 1.4 13.8 3.2 20.4 6z" fill="#92d2f4"/><path d="m32 48.9s-6.6-2.5-11.7-2.1-11.3 6.3-11.9 14c-.7 7.7 4.1 15.3 17.7 18.8 13.2 3.5 14.7 6.5 14.7 6.5l2.8 38.8-43.3-4.1s5.1-9.5.8-68.3c-.6-8.7 9-15.8 9-15.8s6.2 2.1 11 3.6c4.6 1.3 9.8 6.8 10.9 8.6z" fill="#003d64"/><path d="m33.6 24.4-2.6.8s.3-2.6-1.5-4-4.7 1.9-6.5 5.5c-1.8 3.7-9.5 3-9.5 3s0-2.6-1.9-5.5-4.5-14.2 4.2-20.5 18.3-.9 18.3-.9 1.9 3.3-.3 4.4-2.6.4-2.2 2.2c.4 1.5 1.8 2.2 2.2 3.6 0 .4 0 1.1-.4 1.5-.2 1.1-.9 3.3.2 9.9z" fill="#2b1110"/><g fill="#f7b282" transform="translate(22 48)"><path d="m28 26.7-15.5-14.4c-.6 4.4-8.4 10.4-11.6 11.3 0 0 18.2 11.5 25.5 15.2 1.4.7 3.3-.5 4.6-1.4l22-17.1-3.3-6z"/><path d="m62.9 1-8.5 6.7c-.7.5-1.7.5-2.3-.1-.4-.4-.6-1-.6-1.6l.3-2.6c-.1-1.9-.9-3-2.3-2.8l-2 8.1 1.9 8.7 1.3 4.5 5-3.1c3.4-2.2 5.7-6 5.7-6 1.4-1.1.5-3.1.5-3.1-.3-.2.2-1.5.1-1.8l-.1-.9c0-.5-.4-1-.8-1.2 0 0 2.6-2.4 2.6-2.9.4-1.5-.8-1.9-.8-1.9z"/></g><path d="m45.3 68.9c-.7-.7-2.9-2.9-3.7-4.7-.7-1.8-.8-4-2.2-5.5-1.5-1.4-4.1-12-11.4-8.7-6.9 3.3-10.9 11.4-10.4 16.9.4 5.8-.3 8.4 2.3 10.6s11.7 7.2 17.2 8.6 3 0 4.5.7c1.5.4 5.5.7 7.3-.4 1.8-1.5 2.9-5.1 1.8-8.8-.1 0-1.2-6.3-5.4-8.7z" fill="#003d64"/></g><g transform="translate(334 15)"><path d="m21.7 197.3c.3 2.2 1.3 3.6 1.9 4.7.8 1.3.7 3.6.1 4.2-1.7 1.8-3.8 1.3-5.8 2.8-2.1 1.5-5 6.5-6.8 7.1s-5.9.6-6.3-.2c-.3-.9 3.8-4.3 3.8-4.3 6-8.4 6.5-12.3 6.5-12.3s6.5-2.3 6.6-2z" fill="#fac39d"/><path d="m8.7 211.6s-1.2 1.1-1 1.4c.3.4 2.2.1 2.7-.1 4.3-2.5 9.8-7.7 11-9.3s1.2-3.4 1.2-3.4c.4 0 2.1 2.4 1.8 4.3-.1.4-.5 1.5-.7 1.7-.9 1-4.2 2.9-5.1 3.5-2.1 1.5-4.7 6.5-6.5 7.1s-7.9.9-8.3 0c-.2-.7 3-3.7 4.9-5.2z" fill="#1a1a1a"/><path d="m24.4 204.2s-1.1 3.5-1.4 4.7c-.5 1.8-.6 5.6-.6 5.6h-.8s.6-7.2-3-4.8c-1.1.7 5.8-5.5 5.8-5.5z" fill="#1a1a1a"/><path d="m21.5 145.9c4.9 4.8 6 17.3 5.7 22.2-.3 4.8-6 30.1-5.7 31.8s-6.4.4-6.4-.6c.5-9.7-2.2-35.4-2.6-37.9s-1.7-14.1-1.8-15.3c.1-5.9 8-3 10.8-.2z" fill="#fac39d"/><path d="m51.8 207.1s2.5 6.1 2.5 7.7-.8 5.5-2.1 5.7-4.4-2.7-4.7-3.2c-2.2-2.7-2.3-8.2-2.3-8.2z" fill="#313131"/><path d="m50.5 203.6s2 4.6 2.4 8.3c.1.8-.5 4.3-1.7 4.3-3.4.1-6.1-5.7-6-7.8.1-2 .2-4.2.2-4.2z" fill="#efb690"/><path d="m38 145.2c-4.4.9-5.5 3.9-3.4 16.9 1.6 9.8 7.8 32 10.7 42.2.9 3.2.6 5.4.9 5.4 1.3 0 5-.1 5.4-3 .1-.6-1.3-2.8-1.4-4.5 0-10.1-.1-35.7-.7-39.3-.7-4.2-4.5-19.1-11.5-17.7z" fill="#efb690"/><path d="m8.8 35.1c-2.9-.2-5.8 8.7-6.4 18.4-1 16.9-5.2 20.6.8 22.2 7.5 1.9 5.9-5.1 8.7-19.3 2.2-11.2 3-20.8-3.1-21.3z" fill="#d0d0d0"/><path d="m5.9 98.6c-2 3.7-2 10.5-.9 19.2 1.4 11.9 5.3 30.9 5.8 32.6 2.2 7.7 9.8 7.4 11 1.3.3-1.7 2.9-36 2.5-39.8s-2.5-10.8-5.3-15c-2-3.2-10-3.9-13.1 1.7z" fill="#fac39d"/><path d="m40.8 98.9c2.7 3.3 4 9.9 4.7 18.7 1 12 .5 30 .4 31.7-.6 8-9.6 9.4-12 3.6-.6-1.6-8.7-34.6-9-38.5s-1.3-10.8.6-15.5c1.3-3.4 11.2-4.9 15.3 0z" fill="#efb690"/><path d="m7.1 93.1c-1.4 3.6-2.4 7-2 8.8 1.4 5.4 17.4 10 17.4 10h1.1v-17.6c-6.1 0-10.3-1.2-16.5-1.2z" fill="#28557d"/><path d="m43.5 39.4c-1.1-2.5-6.8-3.6-9.3-4.3-2.6-.8-10.5-1.1-10.5-1.1s-12.4 1.2-15.1 1.1c-1.1 0-2 4-2.4 5.2-2.5 6.5-5.4 14.2.8 19.5 1.4 1.2 2.6 15 2.6 21.4 0 2.7-.5 6.9-2.5 11.9 6.2 0 10.4 1.2 16.5 1.2h18.5c-1.9-5-4-10.5-4.5-13.1-3.4-19.7 7.6-38.1 5.9-41.8z" fill="#da9b00"/><path d="m23.7 94.3v17.6h1.1s18-3.4 19.4-8.8c.5-1.9-.6-5.2-2-8.8-6.2 0-12.3 0-18.5 0z" fill="#28557d"/><path d="m28.9 61.5c-1.6-.8-5.2-.4-13.7-.9-8.5-.4-9.7-4.7-10.9-6.6-1.2-1.8-.1-7.9 0-8.2-1.5 5-1.8 10.1 2.7 14 1.4 1.2 2.6 15 2.6 21.4 0 2.7-.5 6.9-2.5 11.9 3.9 0 7 .5 10.4.9 0 0-1.1-4.6-1.1-7 0-9.2 18.3-2.8 20.3-6.8s-7.2-13.6-6.2-14.9c1-1.4.1-3-1.6-3.8z" fill="#c08a00"/><path d="m7.1 93.1s-2.7 4.5-3.3 12.8c-.5 8.2 5.3 46.1 5.3 46.1l16.4.9 21.7-1.7s-.5-34.6-1.5-45c-1-10.3-3.9-12.9-3.9-12.9l-19.7.8z" fill="#da9b00"/><path d="m21.3 128.2c-1.2 1.3-.6 11.7-2.4 13.7-1.9 2.1-4.7 1.8-6.3-1.8s-5.8-29.3-2.4-38.3c2.4-6.3 7.3-7.8 7.3-7.8l-.6-.2-9.7-.7s-2.7 4.5-3.3 12.8c-.5 8.2 5.3 46.1 5.3 46.1l16.4.9 3.5-.2s-3.9-.8-4.5-4.4c-1.2-7.1-2.3-21.3-3.3-20.1z" fill="#c08a00"/><path d="m10.6 35.1s-6.5 14.2 6.9 14.2c0 0 11.2 1.4 15.7-10.6 0 0 .9-2.1 5.5-2.4 0 0-11.1-4.8-28.1-1.2z" fill="#e7e7e7"/><path d="m25.7 5.8s3.7-5.2 7.7-2.1 3.7 9.8 1.8 11.9c-2 2.1-5.3 11.3-4.6 11.5.6.1-.2 1.7-1.7 1.4s-5.5-2-4.1-6.6c1.5-4.6.3-8.2.3-8.2z" fill="#202c2b"/><path d="m29.3 30.5c-.8-2.1-.7-9.9-.7-9.9h-5-5s.1 7.8-.7 9.9-3.9 4.6-3.9 4.6-1.3 5.5 7.3 5.5 10.5-6 10.5-6-1.7-2-2.5-4.1z" fill="#fac39d"/><path d="m28.7 24.5c-.1-2.1-.1-3.9-.1-3.9h-5-5s.1 7.8-.7 9.9-4.8 5.1-4.8 5.1z" fill="#efb690"/><path d="m32.4 17.5c-2.3 7.4-10.5 11.5-14.3 10.4-3.7-1.1-6.9-8.7-5.3-16.5 1.6-7.6 7.5-11.1 13.1-9.4 5.7 1.8 8.8 8.1 6.5 15.5z" fill="#fac39d"/><path d="m19.5 6.6c.5 2.2 2.5 3.8 7.1 4.8 3.3.7 4.8 5.6 4.5 7.4-.1.7-1.4 3.9-1.4 3.9s8.1-5.9 2.9-15.5c-5.2-9.7-13.7-5.8-13.8-5.1-.2.8.4 3.4.7 4.5z" fill="#202c2b"/><path d="m21.6 5.1s-.4 3.2-3.2 3.5-5.7 2.2-5.7 2.2.5-7.6 6.1-8.5c5.5-1 2.8 2.8 2.8 2.8z" fill="#202c2b"/><path d="m41.4 37.5c3.3.4 4.7 9.6 3.3 19.2-2.4 16.5-.4 22.3-6.3 22.1-5.4-.2-4.8-7-4.9-21.4-.1-11.3 1-20.7 7.9-19.9z" fill="#e7e7e7"/><g fill="#465557" transform="translate(4 45)"><path d="m1.108014.702313h24.800503v33.100671h-24.800503z" transform="matrix(.99987974 -.01550832 .01550832 .99987974 -.265935 .211565)"/><path d="m4.8 1s1.5 11.4 5.8 16.7c4.3 5.2 15.3 6.9 15.3 6.9l.2 9.1-24.8.4-.5-33.1z"/></g><path d="m6.5 94.2s9.7 5.1 35.3-.9l-.7-1.7s-19.8 6-33.8 1.6c-.1 0-.2-.1-.3-.1z" fill="#2f2722"/><g fill="#f8bc96"><path d="m.1 74.5c.3 2.7 4.6 4.6 12.8 3.6 9.4-1.2 23-2.7 22.6-5.1-.5-3.3-12.3-2.9-21.9-4s-14.1-.1-13.5 5.5z"/><path d="m42.6 75.8c.7-2.5-4.3-6.9-11.9-9-8.8-2.4-21.3-6-21.8-3.7-.7 3.1 9.9 7.1 17.9 11.6 8.2 4.6 14.4 6.4 15.8 1.1z"/><g transform="translate(2 58)"><path d="m.9 5.4c.1-.4.5-.7.9-.5l3.2.9c.4.1.7.5.5 1-.1.4-.5.7-.9.5l-3.2-.9c-.3-.1-.6-.6-.5-1z"/><path d="m1.2 4c.1-.4.5-.7.9-.5l3.2.9c.4.1.7.5.5 1-.1.4-.5.7-.9.5l-3.2-.9c-.4-.2-.6-.6-.5-1z"/><path d="m1.5 2.6c.1-.4.5-.7 1-.5l3.2.9c.4.1.7.5.5 1-.1.4-.5.7-.9.5l-3.2-.9c-.4-.2-.7-.6-.6-1z"/><path d="m2 1.3c.1-.4.5-.7.9-.5l3.2.9c.4.1.7.5.5 1-.1.4-.5.7-.9.5l-3.2-.9c-.4-.2-.6-.6-.5-1z"/><path d="m12.6 4.8s-3.9-3-4.9-3.4-5.2-.7-5.2-.7.9 1.7.5 2.6-1.6 3.1-1.6 3.1 3 1.4 4.6 1.8c2.5.7 4 .7 4 .7z"/></g></g></g><g transform="translate(271 35)"><path d="m58.3 42.9c2.8-1.5 7.3.6 9.5 7.5s7.4 25 8.1 28 3.5 9.2-2.3 11.9c-5.7 2.6-8.2-3.4-10.3-8.1-9.1-20.7-12.5-35.3-5-39.3z" fill="#815245"/><path d="m76.3 83.4c-1.1-2.8-3.5-4.7-11.6-2.7-8.2 2-25.1 8.2-25.1 8.2l.6 4.6s17.3.6 21.8-.3c4.4-.8 17.1-2.4 14.3-9.8z" fill="#815245"/><path d="m53.3 233.9s5-1.9 7.6-1.8c1.8.1 4.1 1.6 4.2 3.1 0 .6-.7 1.3-1.3 2.1-.6.7-8.3 6.1-10 6.3-2.9.3-5.9.3-7.5-.3s-1.6-6.1-1.6-6.1z" fill="#55210e"/><path d="m20.8 79c-3.5-10.7-12.5-29-7.2-32.2 6.9-4.2 26.6-6.7 26.6-6.7v.3s16.9 2.2 23.8 6.3c5.3 3.2-.8 21.9-4.3 32.6-.8 2.6-.7 14.1-.4 24.3.1 2.5 2.1 14.1 1.8 18.9-.1 1.4-16.2 10.3-20.8 10.5v-.3c-4.5-.2-20.7-9-20.8-10.5-.4-4.8 1.7-16.3 1.8-18.9.3-10.2.4-21.7-.5-24.3z" fill="#f8bc96"/><path d="m32 37c.5-2 1.6-12.1 1.6-12.1h6.7v.3h6.7s1.1 10.1 1.6 12.1 5.9 5.1 5.9 5.1h-14.2v-.3h-14.2c-.1 0 5.4-3.1 5.9-5.1z" fill="#744135"/><g fill="#f8bc96"><path d="m50.9 111.3c8.1 0 11.3 5.6 11.1 23.1-.2 17.4-2.8 36.3-3.9 39s-12.7 2.8-13.8 1.2-4-37.7-4-43.4 1.7-19.9 10.6-19.9z"/><path d="m46.4 187.4 9.9-.2c1.1 0 2-.9 1.9-2l-.4-15c0-1.1-.9-2-2-1.9l-9.9.2c-1.1 0-2 .9-1.9 2l.4 15c0 1 .9 1.9 2 1.9z"/><path d="m51.5 176.6c2.5 0 8.6.8 8.3 17.1-.3 16.2-7.2 38.5-7.2 38.5h-5.9s-2.9-30.1-2.9-35.8c-.1-13.2-.2-19.8 7.7-19.8z"/><path d="m29.4 111.4c-8.1-.9-11.8 4.4-13.5 21.8-1.6 17.3-1 36.4-.2 39.2s12.3 4.1 13.6 2.6 7.9-37.1 8.5-42.7c.7-5.6.4-20-8.4-20.9z"/><path d="m25.9 187.5-9.8-1.3c-1.1-.1-1.9-1.1-1.7-2.2l1.9-14.9c.1-1.1 1.1-1.9 2.2-1.7l9.8 1.3c1.1.1 1.9 1.1 1.7 2.2l-1.9 14.9c-.1 1.1-1.1 1.9-2.2 1.7z"/><path d="m22 176.3c-2.5-.3-8.6-.1-10 16.1s3.1 39 3.1 39l5.8.6s6-29.6 6.6-35.3c1.5-13 2.3-19.6-5.5-20.4z"/></g><path d="m59.7 107.8s2.9 14.3 3.4 22.1-3.3 41.9-3.4 45.7c0 3.8.2 15.3 0 26.6s-3.1 33.6-3.1 33.6l-14.5-.4s0-47.8 0-55.3-1.8-47.1-1.8-47.1v-24.6z" fill="#3c3c3b"/><path d="m21 107.3s-4.4 14-5.7 21.7-1.1 42-1.5 45.8c-.4 3.7-1.8 15.2-2.8 26.4-1 11.3-.4 33.7-.4 33.7l14.4 1.2s5-47.5 5.8-55 9.4-46.9 9.4-46.9l-.1-25.8z" fill="#3c3c3b"/><path d="m55.6 235.7s.3 5.2 0 6.7c-.1.9-2.4 1.8-6.2 2-2.9.2-5.6-.8-6.2-1.1-1.7-.7.5-7.9.5-7.9z" fill="#55210e"/><path d="m15.5 232.7s-5-1.9-7.6-1.8c-1.8.1-4.1 1.6-4.2 3.1 0 .6.7 1.3 1.3 2.1.6.7 8.3 6.1 10 6.3 2.9.3 5.9.3 7.5-.2 1.6-.6 1.6-6.1 1.6-6.1z" fill="#55210e"/><path d="m22.7 136.6c-.8 5.1-1.8 39.5-1.9 41.4s-5.1 54.9-5.3 57.3l-4.7-.4s-.6-22.4.4-33.7 2.4-22.7 2.8-26.4.2-38 1.5-45.8c1.3-7.7 5.7-21.7 5.7-21.7l19.3 1.1c.2 27.8-21.6 20.4-22.3 22-.9 1.6 4.8 4.2 4.5 6.2z" fill="#4a4a49"/><path d="m53 137.7c-1.2 6.5-3 38-2.8 38.9.2.8 0 58.8 0 58.8l-.3.2-7.8-.2s0-47.8 0-55.3-1.4-36.6-1.4-36.6 2.2-5.7 5.7-5.4c3.4.2 6.8-1.6 6.6-.4z" fill="#4a4a49"/><path d="m28 17.9c.1.9-.4 1.9-.3 3.1 0 .5.6 1.1.7 1.6.4 4.1 1.3 8.7 3.7 8.6 4.2-.1 6.8.3 9.6.3 4.3 0 9.8-4.9 10.8-13.6 1-8.4-7.5-15.1-15.3-15-7.6.1-9.5 5.9-9.2 13.6-.1.5 0 .9 0 1.4z" fill="#744135"/><path d="m41.2.4c-6.3-1.1-16 4.4-12.3 7.9 1.1 1 1.3 10.7 1.3 10.7s1.3-.7 1.8-.1.9 3.9 1.5 5.4 4.3 7.3 5.4 7.3 7.8.3 8.7-.7c.9-.9 3.8-6.3 4.7-9.2s5-18.4-11.1-21.3z" fill="#36180e"/><path d="m31.1 15.3c0-.3 1.8-1.4 2.6.9.4 1.2-1.1 6.2-1.4 6.2-.6 0-1.4-5.4-1.2-7.1z" fill="#744135"/><path d="m26.8 41.1h27l-3.8-4.4h-19.4z" fill="#e1f2fd"/><path d="m63.8 43.9s4.4 2.6 6.6 11.4c1.4 5.5 6 23.1 6 23.1s-3.6 3.3-8.7 4.2c-4.5.8-5.5-.1-5.5-.1l-8.2-19.5z" fill="#ed6b06"/><path d="m1.1 79.3c1-2.9 3.3-4.8 11.5-3.1 8.3 1.7 25.4 7.3 25.4 7.3l-.4 4.6s-17.3 1.3-21.8.5c-4.5-.7-17.2-1.8-14.7-9.3z" fill="#815245"/><path d="m13.1 45.8s-4.4 2.6-6.6 11.4c-1.4 5.5-6 23.1-6 23.1s3.6 3.3 8.7 4.2c4.5.8 5.5-.1 5.5-.1l8.2-19.5z" fill="#ed6b06"/><path d="m59.9 111.7-40-.1c-.5 0-1-.4-1-1l.8-2.8c0-.5.4-1 1-1h39.1c.5 0 1 .4 1 1v2.9c.1.6-.3 1-.9 1z" fill="#3b1b1d"/><path d="m11.9 46.9c.9-1.5 5.7-2.7 10.2-4.1 3.9-1.2 7.1-2.9 7.1-2.9l22.1.1s3.9 1.7 8 2.2c5 .6 6.3 2.8 7 4.4.8 1.6 1.1 16-5.5 35-.9 2.6 1.4 20.8-.8 26.2l-19.5 1.8-19.5-1.7c-1.8-6.2 0-23.9-.9-26.5-.9-2.8-9.7-32-8.2-34.5z" fill="#f08100"/></g><path d="m13.3 128.1c.1.3 8.5 4.6 8.7 4.9 1.1 2.3 4.1 5.7 5.8 6.9 2.3 1.6 1.4-.6 2.8 1.8 1.5 2.4 1.9 2.7 2.4 2.5.6-.2-.4-1.7-1-3.3-.6-1.5-2.8-4-2.2-3.7s3.7 5.6 4.3 6.3 2.3 2.1 2 1-2.7-5.7-3.1-6.5 3.5 5.6 3.9 6c.5.5.9-.1.4-1.3-.3-.9-2.9-5.8-3.2-6.3-.1-.2 1.2 1.3 1.6 2 .7 1.1 1 1.5 1.4 2.2.7 1.2 1.9 1.6 1.1 0-.7-1.5-.9-2.6-1.3-3.1s-1.5-1.9-2.9-3.1c-.5-.4-6.6-4.6-8.1-5.7-4.3-3.4-7.1-5.1-7.8-5.6z" fill="#f7b282"/><path d="m20.4 74.1c-2.5-.6-2.2-1.1-4.4 1.7s-2.9 6.6-3.8 8.8c-.8 2.2-12.7 28.5-11.8 31.6.8 3 8.9 13.8 11.9 15.4 6.2 3.3 7.4 0 7.4 0l6.1-7.7s-11.4-11.2-10-11.7c1.4-.6 5.8-11.8 6.6-16.5.8-4.8-2-21.6-2-21.6z" fill="#7fc6b1"/><path d="m61.6 265.7c1.8-.3 5.6-1.7 6.3.6.7 2.2-.8 5.6-2 6.6-1.2.9-4.3-7.2-4.3-7.2z" fill="#000"/><path d="m59.5 252.9c-.4 4.5 1.7 6.8 2.9 11.4.5 1.6 1.2 3.9 2.1 5.8.3.7.7 1.4 1.1 1.9 1 1.4-5.7 2.1-8.6-3.1-1.5-2.6-7.1-8-6.5-9.9.8-2.4 2.3-6.3 1.9-10.7-1.1-10.6 7.5.2 7.1 4.6z" fill="#cc9584"/><g fill="#000" transform="translate(49 255)"><path d="m.2 2.6c.1-2.4 4.4-3.8 8.2 1.1 0 0 2.6 3 5.7 8.5.4.8 1.2 1.5 2 .9 2.4.2 1.9-.6 1.9.7.1 1.7-.2 3.3-1.2 3.9-1.1.8-3.1 2.2-6.7 1.2-1-.3-.3-.5-2.5-4.7-.9-1.8-5.3-3.9-6.7-5.6-1.3-1.6-.8-3-.7-6z"/><path d="m1.2 7.8c.8 1.8 2.7 5.1 2.5 11.9.8.1 1.5 0 1.5 0s.2-8.4 1-9.8-5-2.1-5-2.1z"/></g><path d="m39.3 120.9c-5.2 9.2-7.7 23.1-2.2 33.8 2.7 5.3 6.7 43.7 7 48.1-2.2 17.6 1.4 50.6 1.8 57.3.2 2.9 19.1-.4 19.1-.4s-4-49-4-53.4c-.1-6.3 1.5-5.3 1-11.5-.2-2.4.7-25-.3-45.2-.6-11.6-3.3-23.5-4.8-27.9-1.7-5.1-17.6-.8-17.6-.8z" fill="#44195e"/><path d="m61 206.5c-.1-6.3 1.5-5.3 1-11.5-.2-2.4.7-25-.3-45.2-.6-11.6-3.3-23.5-4.8-27.9-.3-.9-1-1.5-2-1.9-.7.2-1.2.5-1.1 1.1.3 1.7 2.7 7.9 4.1 20.4 1.7 14.6 1.3 48.7 1.4 52.3.1 1.7.3 7.7-1.7 12.4-1.8 4.4.6 49.8.8 54.6 3.6-.4 6.5-1 6.5-1s-3.8-48.9-3.9-53.3z" fill="#44195e"/><path d="m32.2 264.5c1.8-.3 5.7-1.7 6.4.5s-1 4.7-2.3 5.6c-1.2 1-4.1-6.1-4.1-6.1z" fill="#000"/><path d="m29.5 251c-.4 4.5 1.7 6.8 2.9 11.4.5 1.6 1.2 3.9 2.1 5.8.3.7.7 1.4 1.1 1.9 1 1.4-5.7 2.1-8.6-3.1-1.5-2.7-7.1-8-6.5-9.9.8-2.4 2.3-6.3 1.9-10.7-1.2-10.7 7.4.1 7.1 4.6z" fill="#cc9584"/><path d="m20 255.1c.6-2 3.6-3.3 7.5 1.7 0 0 3 3.7 5.5 9.4.4.8 2.7-.4 3 .2 2.4.2 1.9-.2 1.9 1.1.1 1.7-1.1 2.9-2 3.6-1.5 1.1-3.3 1.8-6.9 1.1-1-.2-.1-.5-2.3-4.8-.9-1.8-5.3-3.9-6.7-5.6s-.8-3.7 0-6.7z" fill="#000"/><path d="m20.2 260.9c.8 1.8 2.6 5.2 2.3 11.9.8.1 1.5 0 1.5 0s.3-8.4 1.2-9.9c.8-1.3-5-2-5-2z" fill="#000"/><path d="m26.8 122.8c-3.3 11-8.1 18.6-3.3 29.6 2.4 5.4-1.5 43.3-1.5 47.7-4.4 13.2-5.1 48.8-5.1 55.4 0 2.9 17.8 3.1 17.8 3.1s2.5-42.4 2.8-46.8c.4-6.2 1.8-5.1 1.8-11.4 0-3.7 8.4-69.4 9.9-74.5 1.5-5-22.4-3.1-22.4-3.1z" fill="#44195e"/><path d="m52.8 50.4c2.1-6.1 3.2-9.5-3-13.9-2-1.2-5.6-2.9-6.5-3.1-11.5-2.4-14.2 4.6-15.7 13.1-1.3 7.8 1 13.5 4 16.4l-1 4.5 14.5 1.4s-.3-3.2.8-5.4c2.5 0 3.5.7 6.9-9.6.2-1-.2-2.7 0-3.4z" fill="#fac39d"/><path d="m45.4 70c1.8 1.2 13.3 4.9 13.5 5 1.3.6-4.1 19.4-1.3 25.1-1.5 3.3-2.3 3.3.7 16.8 1.1 5 .1 8 .1 8s-3.1-.9-15.1.8c-11.5 1.7-17.1-.2-18-.6-3.7-1.3-2.8-1.8-2.4-5.6 1-9-.6-18.2-2.7-25.6-2.5-9-3.8-16.8-3.2-17.7 1.4-2.3 2.6-2.5 6.4-5.1 3.7-2.7 22-1.1 22-1.1z" fill="#9bd1bf"/><g fill="#7fc6b1" transform="translate(23 65)"><path d="m.7 5.9 3.2-5s13.6-1.5 18.6 1.5c1.2 3.3 1.6 4.7 1.6 4.7s-9-3-12-2.3c-3 .6-11.4 1.1-11.4 1.1z"/><path d="m16.8.9c4.7.7 5.8.7 6.3 1.5.4.8 1.1 3.3 1.1 3.3s-4.4-.9-6.2-1.1c-1.2-.1-1.2-3.7-1.2-3.7z"/></g><path d="m33.2 33.9c3.7-2.8 10.3-3.3 14.2-1.6 3.8 1.7 10.4 5.1 5.8 16.8-5 12.5-13.5 12.5-16.4 12.6-5.2.2-6.8-2-6.8-2s-9-16.8 3.2-25.8z" fill="#673328"/><path d="m30.3 50.4c2.5-1.3 4.7 5.7 5.1 6.9 6.1-4.4 2.2-11-3.9-9.4-3.5.9-2.7 4.4-2.7 4.4z" fill="#673328"/><g fill="#673328" transform="translate(22 48)"><path d="m6.3 2.7c-1.9 1.5-7.4 10.2-5.8 17.8s7.8 30.7 3.2 35.1c5.6-2.6 4.9-9.8 4.9-9.8l-.9 7.9s3.3-6.5 3.7-9.3c.3 1.2 0 4.7-2 6.6 0 0 8.4-2.9 6.9-13.5-1.6-11.1-2.8-18.5-2.6-23.7.3-8 2.3-8.4.5-10.8-2.4-3.3-6.5-1.3-7.9-.3z"/><path d="m12.8.9c-3.7 1.2-9.5 5.9-7.7 17.9s4.6 23.1 3.8 26c1.1-2.2.1-15-1.2-21.4 2.3 6.6 2.8 19.7 1.6 22.9 1.5-2.7 3.1-11.9 2.5-15.6.6 4.5 2.3 13.2 1.4 15.4 2.3-3.6 1.2-11.3.2-19.4-1.1-8.1-3.8-17.7 1.6-22.5 3.1-2.5-2.2-3.3-2.2-3.3z"/></g><path d="m48.4 32.6c-1.4-.6-3.3-1.1-3.3-1.1 1.9.4 9.4 6.7 2.5 14.8 2.1.4 4-6.9 4-6.9s-.7 6.6-5.3 8.8c1.8-.2 3.7-1.9 5.1-4.1-1 2.7-2.9 5.3-6.2 7 4.6.5 9.4-6.8 9.3-10.1 0-3.2-2-6.8-6.1-8.4z" fill="#673328"/><path d="m66.7 118.4c1.3 7.5 2.9 20.2 3.2 28 .5 1.1 1.8 3.5 3.6 5.7.9 1.1 1.5 2.7 1.5 2.7s.6 2.2.4 3.7c-.1.9-.6 1.7-1 2.4-.5.8-2.2 1.2-1.6.1.4-.8 1.2-1.5 1-2.5-.4-1.5-.7-3-.7-3s.5 1.8.7 3c.2.9-1.1 2.7-1.2 2.9-.6 1.1-1.7.7-1.3 0 .6-1.1.5-1.7.5-1.7l-1.1-2.9s1.2 1.9 1.1 3.6c0 1-1.8 2.4-2.5 1.7-.4-.4.8-1.5.8-1.7-.5-2.2-1.2-3.1-1.2-3.1s.8 1.4 1.2 2.9c.2 1 0 .5-.7 1.1-.6.6-1.6 1.3-1.8.4-.1-.4 1.1-1.5 1-1.9-.4-1.2-.7-1.5-1.3-2.4-1.8-3.1-2.7-9-2.7-9-4.6-12.8-6.5-27.3-5.4-30.9z" fill="#f7b282"/><path d="m58.8 74.9c2.2 0 5.6 4.4 5.6 9.1s4 31.1 4.8 34.1 4.6 21.6 2.2 24.6c-1 1.2.8 3.6.8 3.6s-6.8 1.8-8.1 1.5c-.6-.1-1.1-2.2-2.1-3.4-2.3-2.7-4-17.9-5.1-22.9-1.4-6.3-.4-31.3-.4-33.2 0-1.8.9-13.4 2.3-13.4z" fill="#7fc6b1"/></g></g></g></svg>