<svg height="400" viewBox="0 0 1200 400" width="1200" xmlns="http://www.w3.org/2000/svg"><g fill="none" fill-rule="evenodd"><path d="m0 439h1201v-439h-1201z" fill="#dedfde" transform="translate(0 -100)"/><g fill-rule="nonzero" transform="translate(428 31)"><g transform="translate(238 8)"><path d="m8.1 31 7.2-6.4 5.6-8.5c-1.3-.6-2.9-.4-4 .7l-2.9 2.8h-.1l-2.7-1.6s0 0-.1-.1l-4.2-16.2c-.1-.5-.5-.8-1-.9-.9-.2-1.7.6-1.5 1.5l1.8 7.9-.8-1.8c-.4-.9-1.6-1.2-2.3-.5-.4.4-.6 1-.4 1.5l.5 1.5v.1l-.5.4c-.8.6-1.1 1.7-.7 2.7l.3.8c-.9.5-1.4 1.7-1 2.7l.3.8c-1.1 3.5-.7 7.3.9 10.5l.5 1s.1.1.1.1l5 .8z" fill="#815245"/><path d="m11.1 2.5c-.1 0-.1 0-.2 0h-.1c-.8-.1-1.5.4-1.9 1.4l-6 16.5c-.5 1.4 0 3.2 1.1 4l4.9 3.6c1 .7 1.9.6 2.2.5.1 0 .1-.1.1-.1v-2l5.9-16.1c.5-1.4 0-3.2-1.1-4l-3.9-2.9v-.8.1z" fill="#000"/><path d="m13.1 2.9 4.9 3.6c1.1.8 1.7 2.6 1.1 4l-6 16.5c-.5 1.4-1.8 1.8-3 1l-4.9-3.6c-1.1-.8-1.7-2.6-1.1-4l6-16.5c.6-1.4 1.9-1.8 3-1z" fill="#3d3d3b"/><path d="m5.1 20.6 7.6 5.6c.1 0 .2 0 .2-.1l5.6-15.6c0-.1 0-.1 0-.1l-7.4-5.4c-.1 0-.2 0-.2.1l-5.8 15.4z" fill="#fff"/><path d="m6.3 10.5.7 2c.5 1.3.1 2.8-1 3.7l.4 1c.2.5.1 1-.3 1.4-.6.6-1.5.4-1.9-.2l-2-3.2v-.1l3.8-4.5c.2-.2.3-.2.3-.1z" fill="#815245"/></g><path d="m306.7 273.2s-4.5 7.9-3.9 9.7c.4 1 3.5 4.2 8.1 3.6 3.4-.4 8.4-4.6 9.2-4.9 2-.6-.1-11.4-.1-11.4z" fill="#55210e"/><path d="m282.8 51.7c3.6 5.3.3 9.8-5.1 13s-36.5 13.7-38.4 13-6-9-4.3-11.3c1.8-2.3 26.9-15.3 31.8-17.2 4.8-1.8 11.8-3.7 16 2.5z" fill="#815245"/><path d="m278.3 48.1c-2.3-.9-8-2.3-16.8 2.1-5.9 2.9-16.9 8.9-16.9 8.9s0 5 2.9 10c3.3 5.9 7.6 8 7.6 8s23.4-11.8 26.4-16.2c.9-1.4 3.1-10.3-3.2-12.8z" fill="#ed6b06"/><path d="m294.1 24.1s.4 18.4 1.5 19.3c3.3 2.8 15.3 5.4 17.5 10.3 2.6 5.9-12.9 31.9-15.1 40.6-2.1 8.7 1.7 22.2 2.8 30.8s-25.9 18.4-26.9 18.300759c-1 0-9.5-8.300759-11-11.100759-1.6-2.8.5-24.6.6-30.2s-.8-25.1-1-26.4c-1.5-8.6.8-15.3 1.2-17.1s.3-4.8 1.3-6c1.8-2.3 11.9-5.1 12.1-6.2s1.9-17.1 1.9-17.1z" fill="#815245"/><path d="m295.6 43.4-16.4 9.3-2.2-6.3s-10.7 3.1-12.1 5.4-2.2 8.1-2.7 9.9-.9 10.4-.3 17.8c.3 4.3.1 10.1.6 17.4.4 6.3-.6 22-.6 22s6 .4 15.4.1c10.8-.3 21.8-1.8 22.3-2.1 2.1-1.7-.4-18.5 0-20.3s14.3-33.7 14.6-37.9-1.8-7-5-8.7-13.6-6.6-13.6-6.6z" fill="#f08100"/><path d="m307.7 49.3s10.4 6-.2 13.9c-4.6 3.4-26.3 8.4-30.4 9.5-14.6 4.1 7.1 36.8 8.8 39.2 1.7 2.5 1.6 5.8 1.6 5.8l14-1.3c4.3.9-1.9-20-.1-24.4 1.7-4.5 12.8-29.9 12.8-33.3.1-7.5-6.5-9.4-6.5-9.4z" fill="#f08100"/><path d="m278.1 36.2 16.5-5.5.2 9.7-5.1 2.9z" fill="#744135"/><path d="m275.3 5.1c4.3-3.5 16.6-6.2 22.1 2.1 5.4 8.3 2.4 16-1.1 20.7-2.7 3.6-5.3 5.6-10.2 7.5-1 .4-10 1.4-11.7.7-1.2-.5-1.6-9.4-1.9-9.4-.4 0-1.3-.6-1.3-1.3 0-1.1 1.5-7.3 1.3-8-.4-.9-2.2-8.3 2.8-12.3z" fill="#815245"/><path d="m272.6 8.9s7-3.4 15 4.8c1.7 1.8-2.1 8.6-1.7 9.2.4.7 7-4.7 6.7-4-2.9 8-.5 12.6.2 12.7 2.2.3 9.9-10.8 7-20.3s-12.8-11-15.2-10.7c-2.5.5-9.7.6-12 8.3z" fill="#36180e"/><path d="m288.5 20.5c-1 2.5-1.5 6-.2 6.5 1.4.5 3.3-1.2 4.2-3.7 1-2.5.6-5-.8-5.5-1.3-.5-2.3.2-3.2 2.7z" fill="#815245"/><path d="m271.663943 273.129031h10.500361v2.000069h-10.500361z" fill="#1a1a1a" transform="matrix(-.99976567 -.02164744 .02164744 -.99976567 547.829163 554.188375)"/><path d="m282.1 259.5c1.3 1.9 2.2 5.7 2.3 7.4.1 2.1-1.2 6.4-2.6 6.4-4-.1-8.7 0-12.8.4-4.1.5-5.7 2.8-16.1 2.5-3-.1-8.4-.4-8.4-1.6.1-5.4 10.1-3.3 13.3-6.1 8.2-7.2 13.6-8.9 13.6-8.9s10.4-.5 10.7-.1z" fill="#55210e"/><path d="m281.5 118.5s13.6 14.2 14.1 20.3-5.8 25.4-8.2 40.6-3.8 18.3-3.3 21.9c.4 3.6 4.2 18.3 3.9 28.1-.4 11.3-.3 34.6-.3 34.6s-3.1 2.3-10.9 2.1c-5-.1-9.3-3.8-9.3-3.8s-1.9-57.1-2.4-63.1c-.3-3.9-2.9-30.7-3.4-52.6-.2-7 .5-26.8.6-29.7z" fill="#3c3c3b"/><path d="m280 49-.8 3.8 8.6-4.9z" fill="#bacfed"/><path d="m279.2 52.8-1.2-4.8-2.1 1.6z" fill="#bacfed"/><path d="m301.9 116.4s5.3 13.8 7.3 22.9c2 9.2 3.6 56.5 4.3 60.9.7 4.5 3.2 18.1 5 31.6 1.9 13.5 2.6 40.4 2.6 40.4l-17.2 2.3s-9-56.7-10.4-65.6-17.1-72.3-17.1-72.3l-1.7-20.3z" fill="#4a4a49"/><path d="m300.5 155c1.3 6.1 4.6 47.2 4.9 49.6.3 2.3 9.6 65.5 10 68.5l5.7-.8s-.7-27-2.6-40.4c-1.9-13.5-4.3-27.1-5-31.6s-2.3-51.7-4.3-60.9-7.3-22.9-7.3-22.9l-15.1.1c.1-.1 12.4 32.3 13.7 38.4z" fill="#4a4a49"/><path d="m302.3 116.4s-26.5-.1-28-.1c-1.6 0-12-1.2-12-1.2l-.3 4.2s10.1 1.1 14.9 1.2 26.3-.6 26.3-.6z" fill="#3b1b1d"/><path d="m271 120.8 5.5.1c.3 0 .6-.3.6-.6l.1-3.6c0-.3-.3-.6-.6-.6l-5.5-.1c-.3 0-.6.3-.6.6l-.1 3.6c0 .3.3.6.6.6z" fill="#732d1d"/><path d="m297.8 44.5-3-4.1-14.8 8.6 2.2 5.2z" fill="#e1f2fd"/><path d="m278 48-3.6 3.9-.5-4.3 3-2.7z" fill="#e1f2fd"/><path d="m305.6 50.7c6.1-1.9 9.5 2.5 10.9 8.4 1.5 5.9 3.1 42.8 1.8 44.3-1.2 1.6-10.3 3.1-12 .8s-7.4-34.2-7.7-39.3c-.3-5-.1-12 7-14.2z" fill="#815245"/><path d="m300.8 53.3c-1.5 1.9-4.4 6.9-3.3 11.4 1.6 6.4 4.4 23.4 4.4 23.4s4.8 1.4 10.4.2c6.6-1.5 9.9-4.9 9.9-4.9s-4.9-25.5-7.8-30c-2.4-3.7-9.3-5.3-13.6-.1z" fill="#ed6b06"/><path d="m314.5 94.6c6.9.9 3.8 15 1.9 21.8s-9.4 26-9.4 26l-7.5-1.6s-.2-18.8 4-37.8c.5-1.9 4-9.3 11-8.4z" fill="#815245"/><g fill="#815245" transform="translate(296 135)"><g transform="translate(0 12)"><path d="m9.6 8.9c-.7 0-1.3-.6-1.3-1.4l.2-5.8c0-.7.6-1.3 1.4-1.3.7 0 1.3.6 1.3 1.4l-.2 5.8c0 .8-.7 1.4-1.4 1.3z"/><path d="m7.1 9.1c-.7 0-1.3-.6-1.3-1.4l.2-5.8c0-.7.6-1.3 1.4-1.3.7 0 1.3.6 1.3 1.4l-.2 5.8c-.1.7-.7 1.3-1.4 1.3z"/><path d="m4.6 9.1c-.7 0-1.3-.6-1.3-1.4l.2-5.8c0-.7.6-1.3 1.4-1.3.7 0 1.3.6 1.3 1.4l-.2 5.8c0 .7-.7 1.3-1.4 1.3z"/><path d="m2.2 8.9c-.7 0-1.3-.6-1.3-1.4l.2-5.8c0-.7.6-1.3 1.4-1.3.7 0 1.3.6 1.3 1.4l-.2 5.8c0 .7-.6 1.3-1.4 1.3z"/></g><path d="m4.6.6s-4.1 8.6-4.4 10.5c-.3 1.8.9 9 .9 9s2.5-2.1 4.1-1.9c1.6.3 5.8 1.4 5.8 1.4s1.8-6.1 1.7-9-.9-5.8-.9-5.8z"/></g><g transform="translate(0 115)"><g fill="#334043"><path d="m9.997468 58.889469h3.299887v23.099207h-3.299887z" transform="matrix(.99693422 -.07824428 .07824428 .99693422 -5.475746 1.127294)"/><path d="m38.620924 76.658179h8.800312v17.800632h-8.800312z" transform="matrix(.00842647 -.9999645 .9999645 .00842647 -42.896893 127.857091)"/><path d="m25.140971 100.367256h34.401221v4.100146h-34.401221z" transform="matrix(.00842647 -.9999645 .9999645 .00842647 -60.4289 143.89439)"/></g><path d="m37.946272 123.995214h7.800277v16.300579h-7.800277z" fill="#415559" transform="matrix(.00842647 -.9999645 .9999645 .00842647 -90.647019 172.876909)"/><path d="m12.7 60.8c.6-.6 1.2-2.5 1.3-4 1.1-13.9 1.4-29.6.6-47.1-.1-2.4-.6-5.3-1.2-6.2-3.6-5.9-7.6-2.8-11.6 3.7-.6 1.1-1.2 3.8-1.3 5.9-.4 15.7.2 31.2 1.4 46.5.1 1.7.6 3.8 1.1 4.4 2.7 3.1 6 .7 9.7-3.2" fill="#465557"/><path d="m9.7 79.3v3.9l63.6.5v-3.9c0-1.6-1.3-2.9-2.9-3l-57.8-.5c-1.5 0-2.8 1.3-2.9 3" fill="#465557"/><path d="m75.9 142.8h3.6l-3.5-7.8-29.2-3.9-.1 1.4-3-1.4-1 1.8-1.3-1.6v-.2h-.2l-.6-.7h5.9l.3-33.1-9.6-.1-.3 33.1h2.7l-1.5 1.1-25.9 3-2.3 5c-.9.6-1.5 1.6-1.6 2.8 0 1.9 1.5 3.4 3.3 3.4 1.9 0 3.4-1.5 3.4-3.3 0-1-.4-1.8-1.1-2.5l1.2-1.7 14.7-1.9c1.1-.3 2.3-.6 3.4-.9-5.8 4.4-15 10.7-15 10.7l-1.4 3.6c-1.7.6-3 2.2-3 4.2 0 2.5 2 4.5 4.5 4.5s4.5-2 4.5-4.5c0-1.4-.6-2.7-1.6-3.5l1.2-2.4 19.8-14.2-.6 1.1 23.7 11 .8 1.1c-.6.8-1 1.7-1 2.7 0 2.5 2 4.5 4.5 4.5s4.5-2 4.5-4.5c0-2.3-1.8-4.3-4-4.5l-1.7-2.7-10.9-5.1 15.4 1.1z" fill="#465557"/></g><path d="m87 184.2-1.7-1.5c1.7-.1 3.4-.5 5-1 .8-.3 1.7-.6 2.5-.2.7.4.9 1.2 1.1 2 1.2 4.9 10.2 47.2 11.1 50.6 1.1 4.5 3.5 8.2 5.2 12.4 1.7 4 3.5 8.2 5.7 11.9.4.7 1.2 1.3 2 1.8.6.4 1.1.7 1.6 1-.3.4-.6.8-1 1.1s-.8.6-1.3.7l-3.8.1h-.1c-1.7-.4-2.9-1.7-3.8-3.1-.9-1.5-1.2-3.3-2.3-4.7-1.3-1.6-3.1-2.6-4.7-3.8-1-.8-1.9-1.6-3-2.2-.8-.4-1.7-.7-2.5-1.2-1.3-.7-.9-1.3-.8-2.6.1-1.1.1-2.2 0-3.5-.1-1.5-.6-3.8-1.1-5.2-1-2.5-2-4.9-3.7-7.1-3.8-5-7-11.6-8.1-17.8-.5-2.7-.6-5.4-.6-8.2-.1-2.7.3-5.9-.4-8.5-.5-1.7-1.6-3.4-2.3-5.1-.5-1.4-1.1-2.8-1.6-4.2z" fill="#efb690"/><path d="m95.3 246.9c0-.6 1.2-3.1.9-3.5.9 1.1 1.9 2.4 3 3.3 3.4 2.7 6.4 5.6 9.3 8.8 1.1 1.2 2.4 2.3 3.9 3 .7.3 1.5.5 2.3.6.2 0 .6.1.8 0 .3-.1.6-.6 1-.6.2 0 .3.1.4.2.7.7 1.8 1.1 2.6 1.7 1 .7 5.3 3 3.8 4.5-.5.5-1.5.4-2.1.4-1.2 0-2.4-.1-3.7-.2-2.6-.3-5.3-.7-7.9-1.3-2.9-.6-2-5.5-3.8-7.3-1-1-4.6-2.8-5.6-1-.8 1.4.4 4.2.6 5.6.1.6.5 1.8.4 2.5h-1.3c-.6-3.8-.7-7.4-3-10.8-1.3-1.5-1.7-3.8-1.6-5.9" fill="#2f2722"/><path d="m92.9 181.5c.2.1.3.2.5.3.5.4 1 .8 1.4 1.4 2.9 3.6 0 9.1-1.3 12.9-1.6 4.7-2.8 9.6-4.5 14.3-3.3 9.2-6.8 18.4-9.8 27.7-1.4 4.4-1.4 8.8-2.1 13.3-.7 4.2-1.4 8.8-1.4 13.1 0 .8.4 1.7.8 2.6.3.6.6 1.2.8 1.7-.5.2-.9.3-1.4.4s-1 0-1.5-.1l-3.3-1.9s0 0-.1-.1c-1.2-1.3-1.6-3-1.6-4.7 0-1.8.8-3.5.6-5.2-.2-2-1.3-3.8-2-5.7-.4-1.2-.8-2.3-1.4-3.4-.5-.8-1.1-1.5-1.5-2.3-.7-1.3-.1-1.6.7-2.6.6-.9 1.2-1.8 1.8-3 .7-1.3 1.5-3.5 1.8-5 .5-2.7.9-5.3.6-8-.6-6.2.1-13.6 2.5-19.4 1-2.5 2.4-4.9 3.8-7.3 1.2-2.1 3.6-3.8 1.9-6.2-.6-.8-1.4-1.5-1.8-2.4-.2-.3-.3-.7-.3-1 0-.6.4-1 .7-1.5 1.4-1.7 3.1-3.1 4.5-4.8.5-.6.6-1 1.4-1.2.9-.2 1.8.1 2.7-.4 1.3-.6 2.4-2 3.8-2.3 1.2-.2 2.6.2 3.7.8" fill="#fac39d"/><path d="m64.2 243.9c.4-.5 2.6-2 2.6-2.5.3 3.6 2.3 6.6 3.3 10.1 1.2 4-.8 11.2 4.6 12.2.4.1.7.1 1 .3.4.3.6.8.8 1.2.6 1.5 1.1 2.8 2 4.1.4.6 2 2.4.5 3-.8.3-2.1-.5-2.8-.7-1.5-.5-3-1.2-4.4-2-1.1-.6-3.2-1.4-3.8-2.6-1.5-2.9-.3-5.8.1-8.7.3-1.8-.9-4.9-3.3-4.4-2.9.6-3.4 6.9-4.3 9.1-.5-.2-.9-.4-1.4-.6 1.4-4 3.1-8.3 3-12.6.1-2 .8-4.2 2.1-5.9" fill="#2f2722"/><path d="m14.6 191.5s.1 0 0 0c.1.1 9.9.1 10.2.1 1.8 0 41 .8 41 .8 3.2.1 5.5.1 6.4.1-1.3-3.3-5.9-4-9.2-4-15.8-.8-34.3-1.2-44.7-15-3.1-4-4.1-9-4.5-14.2-1.4 2.7-3.5 11.2-3.7 12.5-.8 4.9-.9 11.2 1.2 15.8.7 1.7 1.9 3 3.3 3.9" fill="#c08a00"/><path d="m62.9 188.4c-15.8-.8-34.3-1.2-44.7-15-3.1-4-4.1-9-4.5-14.2.3-.6.5-.9.7-.9 0 0 32.1 3.1 32.1 3.1l41.8 10.3 7.8 11.4c-.2.2-.5.3-.7.5-4.5 3.2-9.2 6.3-13.8 9.4-1.4.9-2.8 1.7-4.3 2.5-.6.4-1.1.9-1.8.7-1.3-.4-1.9-3.8-3-3.9 0 0-.1 0-.4 0-1.3-3.2-5.8-3.8-9.2-3.9" fill="#da9b00"/><path d="m87.5 136.6-22.3 34.5 154.3 1.3-31.7-34.9z" fill="#a8aab3"/><path d="m105.4 143.5c-.3 0-.6.2-.9.2-.3.1-.7 0-.9.1.3-.1.6 0 .8.1.6.2 1.2.1 1.9.2.6.1 2.7.8 2.1 1.8-.6.9-1.9.6-2.6.5-1.3-.2-2.7.5-3.9.9-3.3 1-6.5-.3-9.6-1.1l2.3-4.2 10.6-2.9c1 .3 2 .7 3 1 1.4.5 2.6 1 3.9 1.9.5.4.7.9.9 1.5.3.7.7 1.4 1 2.1.3.5 1.4 2 .7 2.7-.4.4-1.2-.2-1.4-.5-.7-1-1.3-2.8-2.3-3.4-1.4-.9-3.8-1.1-5.6-.9" fill="#e4bca3"/><path d="m125.2 3.8h-34.2c-8 0-14.6 6.6-14.6 15.8v13c0 5 1.9 9.4 5 12.5 1 1 1.3 2.7.6 4.1l-8.6 17.7s23.7-17.6 25.3-17.6h26.5c8 0 14.6-7.5 14.6-16.7v-13c0-9.2-6.6-15.8-14.6-15.8z" fill="#e2f2fd"/><g fill="#d52e1e" transform="translate(93 11)"><path d="m29.9 21.2-10.8-18.7c-.7-1.3-2-2.1-3.5-2.1-1.4 0-2.6.7-3.4 1.9l-.1.1v.1l-10.8 18.7c-.7 1.2-.8 2.8 0 4.1.7 1.2 1.9 1.9 3.3 2h.1.1 21.5.1.1c1.4-.1 2.6-.8 3.3-2 .9-1.4.9-2.9.1-4.1zm-2 2.9c-.3.5-.8.8-1.4.8h-.1-21.6-.1c-.6 0-1.1-.3-1.4-.8-.3-.6-.3-1.2 0-1.7l10.8-18.8.1-.1c.3-.5.8-.8 1.4-.8s1.2.4 1.5.9l10.8 18.8c.3.4.4 1.1 0 1.7z"/><path d="m14.3 19.1h2.6v2.5h-2.6z"/><path d="m14.3 12.2.7 5.9h1.2l.7-5.9v-3.2h-2.6z"/></g><path d="m162.4 133.1-.2 2.6s-1.8 5.6-5.5 8.3c-.9.6-4.3 1.2-5.6 1.2 0 0-1.5.2-2 1.4s6.3 5.9 11.9 6.2 12.8-5.6 12.8-5.6.6-7.7-2-12.1z" fill="#69797d"/><path d="m172.2 136-7.1-3.5-2.7.2-.1 2.2s10.9 4.2 10.9 4.1c-.4-1.7-1-3-1-3z" fill="#465557"/><path d="m187.5 79.2-39.6 1.3c-.9 0-1.7 1.7-1.7 3.7l-.2 40.2c0 2 .7 3.9 1.6 4.2l39.5 12.1c1.5.5 2.8-1.3 2.8-3.9l.3-52.8c.1-2.8-1.1-4.9-2.7-4.8" fill="#69797d"/><path d="m147.1 125.8 41.2 11.8.3-55.1-41.3.5z" fill="#d52e1e"/><g fill="#fff" transform="translate(159 91)"><path d="m11.5 23.4c0-.1-.1-.3-.1-.4-.2-.4-.4-.9-.6-1.3s-.2-.8-.3-1.2c0-.6-.1-1.2-.2-1.8 0-.3-.1-.3-.3-.3-.1.1-.1.1-.2.2-.2.3-.3.7-.5 1.1-.1.3-.2.6-.3.9-.2.5-.5.8-.8 1.1-.9.7-4 3.2-4.7 3.7-.3.3-.7.5-1.1.3-.3-.1-.6-.2-.9-.3-.1 0-.3 0-.4 0-.1.1-.2.3-.1.5 0 .1.1.2.1.3.2.5.4 1 .7 1.6 0 .1.1.2.1.3v.8c0 .5.1 1 .1 1.4 0 .3.1.4.3.2.1-.1.2-.2.2-.4.3-.7.5-1.4.8-2 0-.1.1-.2.1-.2.8-.7 4.7-3.7 5.7-4.4.2-.2.4-.1.7 0 .2.1.5.2.7.3s.5 0 .7-.1c.3.1.4-.1.3-.3z"/><path d="m1.2 21.7c0-.1.1-.2.1-.3.2-.3.3-.7.5-1 .1-.3.2-.7.2-1.1 0-.6.1-1.1.2-1.6 0-.3.1-.3.2-.2s.1.2.2.3c.2.3.3.7.4 1.2.1.3.2.7.3 1 .2.6.4.9.7 1.3.8 1 4 4.5 4.7 5.3.4.4.8.8 1.2.8.3 0 .6 0 .9.1.2 0 .3.1.5.2s.2.4.1.6c0 .1-.1.2-.1.3-.2.5-.5.9-.7 1.4 0 .1-.1.2-.1.3 0 .3 0 .5-.1.8 0 .5-.1 1-.1 1.5 0 .3-.2.4-.3.1-.1-.2-.2-.3-.3-.5-.3-.8-.5-1.6-.8-2.4 0-.1-.1-.2-.1-.3-.8-1-4.7-5.4-5.6-6.5-.2-.2-.4-.3-.6-.2-.2 0-.4 0-.6.1-.2 0-.4-.1-.6-.3-.2-.5-.2-.7-.2-.9z"/><path d="m11.2 6.9c-.1-1.8-.5-3.4-1.2-4.6-.6-1-1.2-1.5-1.9-1.8-.6-.3-1.2-.5-1.8-.5-.6 0-1.2.1-1.8.4-.7.3-1.3.8-1.8 1.6-.7 1.1-1.1 2.5-1.1 4.3-.1 1.8.1 3.5.6 5.1 0 .1 0 .1.1.2l.4 1.2c-.1.7-.1 1.3-.1 2 .1.9.2 1.7.7 2 0 0 .1.1.1.1.2.1.3.3.5.4.4.4.7 1 .8 1.8 0 .2 0 .5.1.7 0 .1 0 .2.1.2.2.1.4.3.7.3s.6.1.9.1c.3.1.6.1.9.1.2 0 .5-.1.7-.1 0 0 0-.1.1-.2 0-.2 0-.5.1-.7.1-.8.5-1.3.9-1.6.2-.1.3-.2.5-.3 0 0 .1-.1.1-.1.5-.2.7-1 .8-2 0-.7 0-1.4-.1-2.1l.4-1.1c0-.1.1-.1.1-.2 0-1.5.3-3.3.2-5.2zm-6.6 7.9c-.2.4-.5.5-.7.2-.3-.2-.5-.6-.6-1.1s-.3-1.1-.3-1.7c-.1-.7.1-1.3.5-1.5.2-.1.5-.2.7-.2h.2c.2 0 .4 0 .6-.1.4 0 .5.6.6 1.2 0 .4 0 .8-.1 1.2-.3.7-.6 1.4-.9 2zm1.5 3v.2c-.1.2-.2.4-.3.6 0 .1-.1.1-.1.1-.1.1-.2 0-.3-.2s-.1-.4-.1-.6c0-.7 0-1.5.2-2.1.1-.5.3-.9.5-1.3 0-.1.1-.1.1-.2v.5zm1 .6c0 .2-.1.4-.2.5h-.1c-.2-.2-.3-.5-.5-.9v-.1c0-1.1 0-2.2 0-3.3 0-.1 0-.1 0-.2.1.1.1.1.1.2.2.5.4 1.1.6 1.7 0 .1.1.3.1.5zm2.5-5.5c-.1.6-.3 1.3-.4 1.8-.2.6-.5.9-.9.8-.2 0-.3-.1-.4-.4-.4-.8-.7-1.7-.9-2.7-.1-.6 0-1.2.2-1.6.1-.3.2-.4.4-.3.5.2 1 .3 1.5.5.3.2.6.8.6 1.4 0 .3 0 .4-.1.5z"/></g><path d="m193 83.9-.3 52.8c0 2.6-1.3 4.4-5.1 4.1l-.5-.2c1.5.5 2.8-1.3 2.8-3.9l.3-52.8c0-2.4-1-4.4-2.4-4.7h2.5c1.5-.1 2.7 2 2.7 4.7z" fill="#465557"/><path d="m112 140.2-8.3 23.6h25.9l-1.7-23.5z" fill="#69797d"/><path d="m112 140.2-8.3 23.6h25.9l-1.7-23.5z" fill="#69797d"/><path d="m111.1 144.1c.5.7.8 1.6 1.1 2.5.3.8.9 1.6 1 2.4.1.6-.3 1.2-1 1-.3-.1-.5-.3-.7-.4-.3.9-.9.6-1.3 0-.8-1.2-1-2.5-2.4-2.7-1-.1-2.1 0-3.1-.1-1.7 0-3.4-.1-5.2-.1 0 0 .6-2.1.6-2.2.3-1.2.6-2.1 1.9-2.1 1.7 0 3.3.1 5 .1.8 0 1.7 0 2.5.3.7.3 1.2.8 1.6 1.3" fill="#efb690"/><path d="m103.7 163.8.6 1.9 24.8.2.5-2.1z" fill="#465557"/><g fill="#cecece" transform="translate(108 141)"><path d="m2.8 18-.5 1.8h-1.9l.5-1.8z"/><path d="m17.6 1.6h-1.7v-.4h1.7z"/><path d="m17.7 3.1h-1.7v-.8h1.7z"/><path d="m17.8 4.5h-1.8v-.7h1.7z"/><path d="m17.8 6h-1.8v-.8h1.8z"/><path d="m17.9 7.6h-1.9v-.9h1.9z"/><path d="m18 9.2h-1.9v-.9h1.8z"/><path d="m18.1 11.1h-2v-1.2h1.9z"/><path d="m18.2 13.1h-2.1v-1.3h2z"/><path d="m18.3 15.3h-2.1l-.1-1.5h2.1z"/><path d="m18.3 17.4h-2.1v-1.4h2.1z"/><path d="m18.5 19.9-2.3-.1v-1.7h2.2z"/><path d="m15.2 1.6h-1.4l.1-.5 1.3.1z"/><path d="m15.3 3.1-1.5-.1v-.7h1.5z"/><path d="m15.3 4.5h-1.6l.1-.8 1.5.1z"/><path d="m15.3 6h-1.6v-.8h1.6z"/><path d="m15.3 7.6h-1.7l.1-.9h1.6z"/><path d="m15.4 9.2h-1.8v-.9h1.8z"/><path d="m15.4 11.1h-1.9v-1.2h1.9z"/><path d="m15.4 13.1h-2l.1-1.3h1.9z"/><path d="m15.5 15.3h-2.2l.1-1.5h2z"/><path d="m15.5 17.4h-2.2v-1.4h2.2z"/><path d="m15.5 19.8h-2.3v-1.7h2.3z"/><path d="m12.6 16v1.3l-.1.7v1.8h-2.8l.2-1.8v-.7l.2-1.3z"/><path d="m12.7 13.8-.1 1.5h-2.4l.1-1.5z"/><path d="m12.8 11.8-.1 1.3h-2.3l.1-1.3z"/><path d="m12.8 9.9v1.2h-2.2l.1-1.3z"/><path d="m12.9 8.3v.9l-2.1-.1.1-.9z"/><path d="m13 6.7-.1.9-2-.1.1-.8z"/><path d="m13 5.2v.8h-1.9l.1-.8z"/><path d="m13.1 3.7-.1.8h-1.8l.1-.8z"/><path d="m13.1 2.3v.7h-1.7l.1-.7z"/><path d="m13.2 1.1-.1.5v.7h-1.6v-.7l.1-.5z"/><path d="m10.9 1.1v.5h-1.3c0-.1.1-.3.1-.5z"/><path d="m10.8 2.3-.1.7h-1.4c0-.2.1-.5.1-.7z"/><path d="m10.6 3.7-.1.7h-1.5c0-.2.1-.5.1-.7z"/><path d="m10.5 5.2-.1.8h-1.7c0-.3.1-.5.2-.8z"/><path d="m10.2 8.2-.1.9h-1.9c.1-.3.1-.6.2-.9z"/><path d="m10 9.8-.1 1.2h-2.1c.1-.4.1-.8.2-1.2z"/><path d="m9.8 11.8-.1 1.3h-2.2c.1-.4.2-.9.2-1.3z"/><path d="m9.6 13.8-.2 1.5h-2.4c.1-.5.2-1 .3-1.5z"/><path d="m8.9 1.1c0 .2-.1.3-.1.5h-1.1l.1-.5z"/><path d="m8.7 2.3c0 .2-.1.5-.1.7h-1.2l.2-.7z"/><path d="m8.4 3.7c0 .2-.1.5-.1.7h-1.3l.2-.7z"/><path d="m8.1 5.2c-.1.3-.1.6-.2.8h-1.4l.2-.8z"/><path d="m7.9 6.7c-.1.3-.1.6-.2.8h-1.5l.2-.8z"/><path d="m7.6 8.2c-.1.3-.1.6-.2.9h-1.6l.2-.9z"/><path d="m7.3 9.8c-.1.4-.2.8-.2 1.2h-1.8l.3-1.2z"/><path d="m6.9 11.8c-.1.5-.2.9-.2 1.3h-1.9l.3-1.3z"/><path d="m6.6 13.8c-.1.5-.2 1-.3 1.5h-2.1l.4-1.5z"/><path d="m6.2 16c-.1.5-.2.9-.3 1.3h-2.2l.3-1.3z"/><path d="m9.4 16-.1 1.3-.1.7-.2 1.8h-2.8-.7-2.4l.5-1.8h2.3.7c0-.2.1-.5.1-.7.1-.4.2-.9.2-1.3z"/><path d="m7.1 1.1-.1.5h-1.1l.2-.5z"/><path d="m6.8 2.3-.2.7h-1.1l.2-.7z"/><path d="m6.4 3.7-.1.7h-1.2l.2-.7z"/><path d="m6.1 5.1-.2.9-.2.7-.2.8-.2.7-.2.9-.2.7-.3 1.2-.2.7-.4 1.4h-1.6l.4-1.4.2-.7.4-1.2.2-.7.3-.9.2-.7.3-.8.2-.7.2-.9z"/><path d="m3.9 13.8-.4 1.5h-1.7l.4-1.5z"/><path d="m3.3 16-.3 1.3h-1.9l.4-1.3z"/><path d="m10.3 6.7-.1.8h-1.8c0-.3.1-.6.1-.8z"/></g><g transform="translate(14 51)"><path d="m79.7 69.6c.1-.3 1.1-.8 1.3-1 .8-.6 1.5-1.6 2.5-1.9 2.1-.7 1.8-.6 3.8-1 .6-.1 3.5-.7 4.2-.5.2 0 .2.2.3.3 1 2.3-1.4 1.5-2.8 2.4-.5.4-1.7-.3-2.2.1 1.9-.2 3.7-.5 5.6-.7 1.1-.1 7.1-.9 7.2.4.1.7-.9.9-1.3 1-2.1.6-4.9 1-7 1.3 1.8-.2 2.9-.5 3 .8 0 .4-.6 1.3-1.8 1.2 1.1.1.9.8.9 1.5 0 .9-.9 1.7-1.2 1.1.9 1.5-.1 3.2-2.4 3.2-1.1 0-2.3.4-3.4.4-1.4 0-2.4 0-3.8.1-1.9.1-3.1-.5-4.9-.9z" fill="#fac39d"/><path d="m23.6 25.6c2.1 2.2 4 4 5.6 5.6 5.9 5.6 8.2 6.7 8.2 6.7.1.3-2.9 5-1.1 11.7-6.8-6.5-11.2-14.9-12.7-24" fill="#efb690"/><path d="m91.4 92.5c-.3 0-.6.2-.9.2-.3.1-.7 0-.9.1.3-.1.6 0 .8.1.6.2 1.2.1 1.9.2.6.1 2.7.8 2.1 1.8-.6.9-1.9.6-2.6.5-1.3-.2-2.7.5-3.9.9-3.3 1-6.5-.3-9.6-1.1l2.3-4.2 10.6-2.9c1 .3 2 .7 3 1 1.4.5 2.6 1 3.9 1.9.5.4.7.9.9 1.5.3.7.7 1.4 1 2.1.3.5 1.4 2 .7 2.7-.4.4-1.2-.2-1.4-.5-.7-1-1.3-2.8-2.3-3.4-1.4-.9-3.8-1.1-5.6-.9" fill="#efb690"/><path d="m36 48.5 2.1 1.1c2.5 1.3 4.5 3.5 5.5 6.1l10.9 28.2 29.5 5.3-1.3 8.1-29.2-.4c-2.8-.3-5.2-1.9-6.6-4.4l-9.7-11.3z" fill="#d0d0d0"/><path d="m42.5 30.5c.6 0 .9.7.8 1.3s-.4 1.1-.4 1.7.3 1.2.3 1.8c.1 1.3-.9 2.5-2.1 3s-2.6.5-3.9.4c-5-.4-10.1-1.7-13.8-5-3.4-3-5.2-7.3-6.8-11.5-1-2.6-1.9-5.3-1.8-8.1 0-.8.1-1.6.3-2.4 1.7-7.2 8.9-9.8 15.5-9.1 6.4.7 11.7 6.6 11.8 13 0 .8-.2 1.5-.1 2.3.1 1.6 1.4 2.8 2.4 4 .7.8 2.6 2.9 1.5 3.9-.6.5-1.5.4-2 1.1-.4.7-.5 1.6-.3 2.4 0 .1.1.3 0 .4 0 .3-1.1.8-1.4.8" fill="#fac39d"/><path d="m15.9 46.8c.8-.8 1.5-1.6 2.3-2.4 1.5-1.8 2.7-3.7 3.5-5.9 1.5-4.1 2.1-8.7 1.9-13.1 0 0 .1.1.1.1 1.5 9.1 5.9 17.6 12.6 24 .1.3.2.6.2.9 2.3 4 4.3 7.1 1.4 8.9-2.3 1.5-10.8-1.7-14.1-3-.8-.3-1.3-.5-1.3-.5-.6-.3-1.3-2.6-1.6-3.2-.5-.9-.9-1.9-1.7-2.6-.6-.5-1.1-.7-1.8-.8s-2.2.1-2.8-.2c-1-.7.6-1.5 1.3-2.2" fill="#fac39d"/><path d="m38.9 55s-4 3.9-14.5.2c.8 21.3 2.1 31.1 2.1 31.1l12.5 4.3 4.4-13.8z" fill="#dadada"/><path d="m46.1 78.4c0 1.4-9.8 25-12.5 31.5-.2.5-.3.8-.5 1.1-.2.4 1.4 1.2 1.4 1.2s-4.8 2.6-4.8 2.6c-.8-.1-8.2-4.1-28.7-6.4h-.1c.1-.3.2-.6.3-1 .3-1 .5-2.2.7-3.6 2.4-14.1 2-42.1 2-42.1l2.8-2.9 16.3-1s11.6 16.5 16.1 18c-.1 0 0-1.9 0-2.1 0-.8 0-1.5 0-2.3 0-1.5 0-3.1-.1-4.6-.1-2.8-.3-5.7-.6-8.5-.2-1.4-.4-2.8-.7-4.1-.1-.6-.2-1.3-.4-2-.1-.4-.3-.7-.5-1-.1-.3-.3-.6-.4-.9.1 0 .1 0 .1.1.2.2.4.4.6.7s.4.6.5 1c.3.8.6 1.6.9 2.4.5 1.4 1 2.8 1.5 4.1.9 2.8 1.7 5.6 2.6 8.4.8 2.5 1.6 5 2.4 7.6.5 1.1 1.1 2.6 1.1 3.8" fill="#da9b00"/><path d="m33.6 109.9c-.2.5-.3.8-.5 1.1l-32-3.5c.3-1 .5-2.2.7-3.6 6 1 25.6 5.1 31.8 6" fill="#2f2722"/><path d="m41 7.3c-1.9-3.2-3.5-3.9-6.1-5.1-4.9-2.3-10.9-2.2-15.4.9-1 .7-2 1.9-3.2 2.1-1 .2-2.1-.3-3.1-.1-2.4.4-4.7 1.8-6 3.9-1.5 2.3-2.2 7.7-.2 9.9.2.2.5.4.8.6.8.5 1.8 1.1 2.7.8.1 0 .3-.1.4-.1.3 0 .5.4.6.7 1.3 3.6 5 7.6 7.9 10 .6.5 3.2 2.9 4 2.7.4-2.2.8-4.3 1.2-6.5-1.1-1.3-2.2-2.8-2.5-4.5s.6-3.7 2.3-4.1c1.2-.3 2.5.4 3.2 1.3.2.3.5.6.6.9-.1-.1 13.4-5.9 12.8-13.4z" fill="#202c2b"/><path d="m6.2 49.3c3.7-4 9.9-1.7 12.5.3 3.4 2.7 6 7.3 9.2 10.2 3.9 3.4 8.2 6.3 11.7 10.1 1.4 1.5 2.5 3 4.1 4.3 2.4 1.9 4.4.8 7.4.3 7.7-1.5 28.2-4.8 28.5-4.9l2.1 9c-.5.2-1 .3-1.4.5-3.5 1.4-6.9 2.8-10.4 4.2-5.9 2.4-11.9 3.5-17.8 6-2.9 1.2-6.8 3.3-10 3-2.4-.2-4.5-2.3-6.6-3.5-3.8-2.1-7.6-4.2-11.5-6.3-1.8-1-3.7-2-5.5-3-1.2-.7-4.1-3.1-5.5-3-.3 0-.6 0-.7-.1-9.9-7.1-11-21.9-6.1-27.1" fill="#e7e7e7"/></g><path d="m88.5 283.1.6-101.9-9-.1-.6 102c0 1.5 2 2.8 4.5 2.8s4.5-1.3 4.5-2.8z" fill="#a8aab3"/><path d="m205.3 283.1.6-101.9-9-.1-.6 102c0 1.5 2 2.8 4.5 2.8 2.4 0 4.4-1.3 4.5-2.8z" fill="#a8aab3"/><path d="m65.4 170.9v5.8c0 2.8 2.2 5 5 5.1l144.3 1.2c2.8 0 5-2.2 5.1-5v-5.8z" fill="#d5dbd9"/><path d="m237.3 78c-6.6.2-4.4-13.6-3-20.3 1.4-6.4 5.6-19.2 6-20.6 0-.1.1-.1.1-.1l7 .3c.1 0 .1 0 .1.1.1 1.5 2.5 13.2-.3 30.9-.2 2-3.1 9.5-9.9 9.7z" fill="#815245"/></g></g></svg>