<svg height="400" viewBox="0 0 1200 400" width="1200" xmlns="http://www.w3.org/2000/svg"><g fill="none" fill-rule="evenodd"><path d="m0 439h1201v-439h-1201z" fill="#dedfde" transform="translate(0 -100)"/><g fill-rule="nonzero" transform="translate(428 31)"><g transform="translate(40 69)"><path d="m43.5 159.2.5-88.8-7.8-.1-.5 88.9c0 1.4 1.8 2.4 3.9 2.4s3.9-1 3.9-2.4z" fill="#999ba3"/><path d="m164.2 159.2.5-88.8-7.8-.1-.5 88.9c0 1.4 1.8 2.4 3.9 2.4s3.8-1 3.9-2.4z" fill="#999ba3"/><g fill="#a8aab3"><path d="m34.2 63.7-33.9 30 198.2 1.2-34.5-30.5z"/><path d="m20.6 191.3.5-88.8-7.8-.1-.5 88.9c0 1.4 1.8 2.4 3.9 2.4 2.1.1 3.9-1 3.9-2.4z"/><path d="m186.1 191.3.5-88.8-7.8-.1-.5 88.9c0 1.4 1.8 2.4 3.9 2.4 2.1.1 3.9-1 3.9-2.4z"/></g><path d="m.4 93.6v5.1c0 2.4 1.9 4.4 4.3 4.4l189.5 1.1c2.4 0 4.4-1.9 4.4-4.3v-5.1z" fill="#d5dbd9"/><g transform="translate(59)"><path d="m48.5 55.5-5.5-1.1-5.4 1-.4 3.1 11.6.1z" fill="#465557"/><path d="m55.8 73.1-.6-1.5c-.8-.8-5.2-3.3-5.2-3.3l-1.1-9.8-11.6-.1-1.3 9.7s-4.5 2.4-5.3 3.2l-.7 1.5c-.3.3 0 .7.4.7l12.5.1 12.5.1c.4.1.7-.3.4-.6" fill="#69797d"/><path d="m82.5 1.3-77.9-.7c-2.3 0-4.2 1.8-4.2 4.2l-.4 46.3c0 2.3 1.8 4.2 4.2 4.2l77.8.7c2.3 0 4.2-1.8 4.2-4.2l.4-46.3c0-2.3-1.8-4.2-4.1-4.2" fill="#69797d"/><path d="m18.874968-12.243839h48.801732v81.102879h-48.801732z" fill="#d52e1e" transform="matrix(.00842529 -.99996451 .99996451 .00842529 14.604626 71.343399)"/></g></g><g><path d="m44.1 119.4h-35.2v-4.2h34.5z" fill="#3b1b1d"/><g transform="translate(6 118)"><g transform="translate(36 142)"><path d="m1.903613 12.711611h8.900307v1.700059h-8.900307z" fill="#1a1a1a" transform="matrix(.99976552 -.02165406 .02165406 .99976552 -.292175 .140765)"/><path d="m2 1.1c-1.1 1.7-1.9 4.9-1.9 6.3-.1 1.8 1 5.5 2.2 5.4 3.4-.1 7.4 0 10.9.4s4.8 2.4 13.8 2.2c2.6-.1 7.2-.3 7.2-1.4-.1-4.6-8.6-2.8-11.4-5.2-7-6.2-11.6-7.6-11.6-7.6s-9-.5-9.2-.1z" fill="#55210e"/></g><g transform="translate(1 142)"><path d="m9.7 14.2-7.8-.1-.1-1.5 7.8-.1z" fill="#1a1a1a"/><path d="m1.8.8c-.8 1.6-1.3 4.8-1.4 6.3-.1 1.8.8 5.5 1.6 5.5 2.5 0 5.4.1 7.9.6s3 .9 9.5.9c1.9 0 5.2-.2 5.2-1.2-.1-4.6-2.9-3.1-5-5.6-5.1-6.3-11.3-6.1-11.3-6.1s-6.4-.7-6.5-.4z" fill="#55210e"/></g><path d="m17.8 3.9c-.2 1.4-.2 2.8 0 4.3-.8-.1-1.6 0-2.3.3-.2-1.6-.2-3.2-.1-4.8" fill="#2a2d41"/><path d="m29.5.9c4.4 22.5-4.8 70.9-5.6 81.5-.4 4.9-4.3 39.3-6 53.2-.4 3.6-1.2 10.1-1.2 10.1s-.3 0-4.4 0c-7.5 0-9.5-2.7-9.5-2.7s1.4-58.8 1.6-64.3c.2-5.8-.3-40.5-1.4-47.3-.6-3.7-6.2-11.9 0-30.3z" fill="#4a4a49"/><path d="m10.8 3.7 16-2.1c2.9 24.2-2.1 71-2.8 80.8v.6c-2.1-14.1-5.8-44.4-6.1-45.6-3-2.6-11.6-12.2-7.1-33.7z" fill="#3c3c3b"/><path d="m8.8 1c-2.7 25 10.6 31.1 13.5 33.7.4 1.5 8.8 43.9 9.8 49.3s4.9 60.1 4.9 60.1 1.2 2 8.7 2c4.1 0 5.5-2.1 5.5-2.1s1.4-59.3 1.4-65.4c0-10.4-10.2-57-14.6-77.9z" fill="#4a4a49"/></g><path d="m12.4 42.2c1.1-.8 2.9-19.3 2.9-19.3l14.8 6.3s.5 16.1.6 17.3z" fill="#744135"/><path d="m35.4 5.2c-4.1-3.8-16.2-7.4-22.3.5s-3.5 15.9-.4 20.8c2.5 3.8 4.9 6 9.7 8.2 1 .5 9.9 2.1 11.7 1.5 1.2-.4 2.3-9.3 2.6-9.3.4 0 1.4-.5 1.4-1.2.1-1.1-1-7.5-.7-8.1.4-.7 2.7-8-2-12.4z" fill="#815245"/><path d="m37.9 9.2s-6.8-3.9-15.3 3.7c-1.8 1.6 1.5 8.8 1.1 9.4-.5.7-6.7-5.3-6.4-4.4 2.4 8.2-.4 12.7-1.1 12.7-2.3.1-9.1-11.5-5.6-20.8 3.6-9.3 13.6-10.1 16-9.6 2.3.5 9.5 1.1 11.3 9z" fill="#36180e"/><path d="m21.1 19.7c.8 2.6 1.1 6.1-.3 6.5s-3.2-1.4-4-4-.2-5.1 1.2-5.5c1.4-.3 2.3.4 3.1 3z" fill="#815245"/><path d="m69.8 71.4s2.9-1.2 4.1-2.7.7-1.9 1.1-2.4 2.1-1.1 2.1-1.1 4.3-.4 2.3-3.4l-1.7.6s-.4 0-1.3.1-1.7.2-3.5-.1c-1.3.1-2.6-.2-3.4.8-.8.5-2 2.5-2.4 3-.8.5-7.9 3.9-7.9 3.9l3.9 6.5s5.2-.5 8.1-2.1c2.9-1.2 5.3-3.7 6.1-5.6s.6-3.7.6-3.7-3.1 5.3-5.1 6.4c-2 1.5-3-.2-3-.2z" fill="#815245"/><path d="m68.4 74.7 5-1.8 4.8-4.5.7-1.9-.2-2.3-6.3 1.9c.5-.5-6.8 6.6-4 8.6z" fill="#744135"/><path d="m72.5 72.5.9.8c.4 0 1.6-1.5 4-4.9.4-.5.8-1 1.2-1.5 1.2-1.9 2.3-3.9 3.9-5.8l.8-1c.8-1.4 1.5-2.9 2.2-4.8-1.2 1-2.4 2-3.6 3.5l-.8 1c-1.2 1.9-2.7 3.9-3.9 5.8-.4.5-.8 1-1.2 1.5-2.8 3.1-3.1 4.4-3.5 5.4z" fill="#425b6c"/><path d="m82.8 59.7c.4-.5.4-.9.8-1l-1.4-1.2c-.4.5-.4.5-.8 1l-.8 1c0 .5-.4.5-.4.9l1.4 1.2c0-.5.4-.5.4-.9z" fill="#4db8a4"/><g fill="#4db8a4" transform="translate(73 64)"><path d="m1.4 4.7c0 .5.1.9.5 1.3.5.4.9.4 1.3-.1-.4.5-.8 1-.8 1.4-.4 0-.4 0-.8.5-.4 0-.4 0-.9.1 0 0 0-.5-.1-.9 0-.5 0-.5-.1-.9.1 0 .5-.5.9-1.4z"/><ellipse cx="3.04198" cy="4.30052" rx="4.000093" ry="1" transform="matrix(.55838695 -.82958062 .82958062 .55838695 -2.22425 4.422733)"/></g><g fill="#815245" transform="translate(71 62)"><path d="m1.5 9.6s-1.2 1-.3 2.3c1 1.3 3.5.6 3.9.1s.8-1.4.8-1.4 1.7-.6 1.6-1.5-.1-.9-.1-.9 1.3-.6 1.6-1.5-.6-1.8-.6-1.8v-.5s2.1-.2 2-1.6-1-1.7-1-1.7-3.3 2.6-1.9 3.8v.5s-.8.5-2.1.6-1.3.1-1.7.2c-.4 0-1.6 1.1-.3 1.9 1.4.8.9.8.9.8s-.8.5-1.3.1-.9-.4-1.3.1c-.3-.4-.2.5-.2.5z"/><path d="m8.5.3-1.7.6s-.4 0-1.3.1c-.4 0-1.3.1-1.7.2l-3.5 4c.4-.5 5.8-1.5 5.8-1.5s4-.4 2.4-3.4z"/></g><path d="m35.8 59.9s.7-2-.4-5.1-1.9-2-2.7-5.9c-.4-4.3 0-5.9 0-5.9l-8.6-3.1-17.5 11.6s-.6 16.2 1.3 23.7c1.9 7.1 7.6 14.5 7.6 14.5z" fill="#bacfed"/><path d="m32.7 43s-.8-.4-.7 1.2c-.4 1.6-1.8 6.3-1.8 7.1s.4.8.4.8-7.9-5.1-11.6-6.2c-3.8-1.5-8.6-5.1-8.6-5.1s0-2.4.3-3.6c0-.4.7-.8 1.1-.8 7.1 1.6 14.2 3.5 20.9 6.6z" fill="#e1f2fd"/><path d="m32.4 53.6s-6.7-2.7-12-2.3c-5.2.4-11.5 6.8-12.2 15.1s4.2 16.5 18.1 20.4c13.5 3.8 15 7 15 7l2.2 21.9-34.5.3s-8.6-49-8.3-58.5 9.2-17.1 9.2-17.1 6.4 2.3 11.2 3.8c4.9 1.6 10.2 7.5 11.3 9.4z" fill="#f08100"/><path d="m20.2 78.3c-3.4-5.9 10.7-7.7 17.7-8.3 6.7-.6 20.9-.2 22.4-.2.1 0 .1 0 .1.1l3 6.4v.1c-1.4.5-11.3 5.8-29.4 8.2-1.8.3-10.3-.3-13.8-6.3z" fill="#815245"/><path d="m32.4 53.6s6 7.5 8.9 40.2l-8.8 2.6s-21.7-13.5-22.1-13.5-5.1-16.4-5.1-16.4 3.8-12 3.3-14.3c-.6-2.3 7.7-6 7.7-6s10.3 3.3 9.9 2.8 6.2 4.6 6.2 4.6z" fill="#f08100"/><g transform="translate(15 49)"><g transform="translate(24 79)"><path d="m20.5 10.6c-.5.2-1.2 0-1.4-.6-.2-.5 0-1.2.6-1.4.5-.2 1.2 0 1.4.6s-.1 1.2-.6 1.4z" fill="#936037"/><path d="m4.4 18.8-3.8-9.1c-.3-.6 0-1.4.7-1.6l18.8-7.8c.6-.3 1.4 0 1.6.7l3.8 9.1c.3.6 0 1.4-.7 1.6l-18.8 7.8c-.6.3-1.3 0-1.6-.7z" fill="#000"/><path d="m18.8 8.4-.5-1.3c-.1-.3 0-.7.4-.9l1.5-.6c.3-.1.7 0 .9.4l.5 1.3c.1.3 0 .7-.4.9l-1.5.6c-.4.1-.8-.1-.9-.4z" fill="#797979"/></g><g fill="#815245"><path d="m8.7.2c-6.2-.3-8.3 4.6-8.2 10.5s7.5 40.7 9 41.9 10.4.4 11.4-2.1c1-2.6-1.3-33.8-2.3-38.6-.8-4.8-2.6-11.3-9.9-11.7z"/><path d="m11.1 43.5c-6.2 2.5.1 14.9 3.5 20.8s15 22.1 15 22.1l6.6-3.3s-4.4-17.7-12.9-34.4c-.8-1.7-5.9-7.8-12.2-5.2z"/><g transform="translate(28 78)"><g transform="translate(2 10)"><path d="m4.2 10.6c.7-.2 1.1-.9.9-1.6l-1.6-5.4c-.2-.7-.9-1.1-1.6-.9-.7.2-1.1.9-.9 1.6l1.6 5.4c.2.7.9 1.1 1.6.9z"/><path d="m6.6 10.2c.7-.2 1.1-.9.9-1.6l-1.6-5.4c-.2-.7-.9-1.1-1.6-.9-.7.2-1.1.9-.9 1.6l1.6 5.4c.2.7.9 1.1 1.6.9z"/><path d="m8.9 9.6c.7-.2 1.1-.9.9-1.6l-1.6-5.4c-.2-.7-.9-1.1-1.6-.9-.7.2-1.1.9-.9 1.6l1.6 5.4c.2.7.9 1.1 1.6.9z"/><path d="m11.1 8.8c.7-.2 1.1-.9.9-1.6l-1.6-5.4c-.2-.7-.9-1.1-1.6-.9-.7.2-1.1.9-.9 1.6l1.6 5.4c.2.7.9 1.1 1.6.9z"/></g><path d="m6 .4s5.9 7.1 6.7 8.7c.7 1.7 1.4 8.7 1.4 8.7s-2.8-1.4-4.3-.7-5.1 2.7-5.1 2.7-3.2-5.2-3.8-8-.6-5.7-.6-5.7z"/></g></g></g><path d="m26.9 45.8c2.3 1.3 7.2 5.3 7.9 10.4.9 7.2 4.7 25.8 4.7 25.8s-4.3 3.4-10.6 4.3c-7.3 1.1-12.1-1.1-12.1-1.1s-5.1-28.2-3.8-34c.9-4.6 7.5-9.1 13.9-5.4z" fill="#ed6b06"/></g><g transform="translate(163 19)"><path d="m28.8 56.7c1.6-7.6-3.3-15.2-10.9-16.8s-15.2 3.3-16.8 10.9c-1.5 7.1 2.6 14.1 9.4 16.4v.1l-2.2 10.4c-.2.8.4 1.7 1.2 1.9s1.7-.4 1.9-1.2l2.2-10.4v-.1c7.1.6 13.7-4.1 15.2-11.2zm-16.1 7.8c-5.9-1.3-9.7-7.1-8.5-13.1 1.3-5.9 7.1-9.7 13.1-8.5 5.9 1.3 9.7 7.1 8.5 13.1-1.3 5.9-7.2 9.8-13.1 8.5z" fill="#000"/><path d="m106.3 46.9c3.3-3.1 15.6 33.2 12.7 40.6s-34.5 3.4-38.9 3.2c-4.5-.2 13.4-11.1 13.4-11.1l-5.3-8.4 14-6.2c-.1.1 3.3-17.3 4.1-18.1z" fill="#003051"/><path d="m104.2 247.3c.2 3.4 2.6 6.9-.4 8.7-2.9 1.8-5.6 1.5-8.8.2s-4.2-3.2-5.8-4.9-6.3-3.1-7.6-5.4-1.8-8.4.8-7.5 10.3 2.6 10.3 2.6z" fill="#000"/><path d="m105.4 114.9c2 6.1 5.9 14.3 2.6 28.1-2.7 11.5-2.7 44.7-2.7 44.7s.4 52.1-.9 64.2c-16.4.5-16.3-7.9-15.9-11.5s-8.5-51.1-8.6-53.8c-.2-2.7 4.3-46.2 6.6-54.2 2.2-7.9 18.9-17.5 18.9-17.5z" fill="#00233e"/><path d="m82.1 247.8c1.2 5.3 2.4 8.1.6 11.3-1.9 3.1-9.5 1.3-13.8-1.2-2.6-1.5-8.7.3-11.8-.1-6.6-.7-10.3-8.4-4.8-8.4 5.4 0 11.1-2.1 13.8-3.9 2.6-1.9 16 2.3 16 2.3z" fill="#000"/><g fill="#f6b086" transform="translate(57 7)"><path d="m23.2 13.5c-.2 3.1 3.9 13 6.1 17.2 2.1 4.2 6.5 9.9 6.5 9.9l-19.7 9.4s.1-18.3-5.3-20.4c-3.3-1.3 12.4-16.1 12.4-16.1z"/><path d="m10.4 28.7c-.8-.6.1-2.4 1.4-4.2l2.2-1.6 7.9 19.6-3.7 3.4-2.6-3c0-.1.2-10.3-5.2-14.2z"/><path d="m.4 12.3c1.6 11.2 6.9 19.9 11.5 20s14-7.5 14.2-16.3-5.7-16.7-14.3-15.6c-9.4 1.2-12.6 3.1-11.4 11.9z"/></g><path d="m55.9 18.2c-3.3-2.9 6.7-20.1 19.9-16.8s14.6 10.8 14.4 17.6c-.1 6.8-3.8 13.5-1.9 14 2.6.8-14.1 4.3-14.1 4.3s-5.9-7.7-6.1-9.2c-.6-4.6-5.1-6-4.8-3.1.3 2.8-1.2 2.3-1.2 2.3l-.6.7s-2.5-7.6-3.6-8.9c-1.3-1.3-2-.9-2-.9z" fill="#2b1110"/><path d="m87.9 39.8-1.4-3.2-16 4.3.8 3.9z" fill="#92d2f4"/><path d="m88.8 38.1 4.5 3.6s-13.5 6.4-17.7 6.3-6.2-1.3-6.2-1.3l.5-3.6s8.6-2 12.2-2.8c3.5-.6 6.7-2.2 6.7-2.2z" fill="#003d64"/><path d="m19.7 73.7c-2.2-1.3-5.1-2.6-6.7-2.9s-4.9-.6-5.9.3c-1 .8-.5 1.5-.5 1.5s-2 1.4-.7 3.3c-1.1 1.8.5 2.9.5 2.9-.7.9.7 1.5 1.4 1.7 2 .5 5.1.2 7.6.3 1 0 7.1 4.7 8.3 5.4 1.2.6 5.1-10 5.1-10z" fill="#f6b086"/><path d="m61.7 119.9c-.3 13.3.7 49.9-.2 70-.4 9.9 3.7 50.4.6 56.2 11.3 7.3 21.2 5.7 21.2 5.7s.8-52.6.2-57.5c-.7-4.9 2.4-37.6 8.5-49.1 6.1-11.4 10.9-26.2 5.1-28.1-6-1.7-35.4 2.8-35.4 2.8z" fill="#003051"/><g fill="#003d64"><path d="m88.8 40.6c6.8 1.1 15.2 3.7 18.7 6.2 0 0 .6 35.4 2.4 44.3 6.3 30.7 9.3 38.3 8.6 42.4-.7 4-54.9 12.3-59.2 9.3-.6-16.9 4-44.7 1.9-57.1s-3-29.2-3-29.2-1.4-3.1 4.4-6.8c5-3.3 10.4-4.4 10.4-4.4z"/><path d="m66.7 61.6c-5.2 18.3-17.2 27.5-17.2 27.5-15.3.2-33.9-2.5-33.9-2.5s.3-6.9 3.8-13.8c2.4.6 16.1.8 21.5.1 5.3-.7 16.6-23 20.1-24.2 7.5-2.6 13.7-4.5 14.2-.1-.2 0-3.9 3-8.5 13z"/></g></g><g fill="#fff" transform="translate(132 81)"><path d="m20.9 23.9c-.1-.1-.2-.3-.3-.4-.3-.4-.7-.8-1.1-1.2-.3-.3-.5-.7-.5-1.2 0-.6-.2-1.2-.3-1.7-.1-.3-.2-.3-.5-.2-.1.1-.3.1-.4.2-.4.3-.7.7-.9 1.1-.2.3-.4.6-.6.9-.4.5-.9.8-1.5 1.1-1.7.8-8 3.5-9.3 4.1-.7.3-1.4.5-2.2.4-.6-.1-1.2-.1-1.7-.2-.3 0-.6 0-.9.1s-.3.3-.2.5c.1.1.2.2.2.3.5.5.9 1 1.4 1.5.1.1.1.2.1.3 0 .2.1.5.1.7.1.5.2.9.3 1.4.1.3.3.4.5.2.2-.1.3-.2.5-.4.5-.7 1-1.4 1.5-2 .1-.1.2-.2.3-.2 1.5-.7 9.3-4 11.3-4.8.4-.2.9-.2 1.3-.1.5.1.9.2 1.4.2.5.1.9 0 1.4-.2.2 0 .2-.2.1-.4z"/><path d="m.4 23.2c.1-.1.2-.2.2-.4.3-.4.7-.7 1-1.1.3-.3.4-.7.5-1.1 0-.6.2-1.1.3-1.7.1-.3.2-.3.5-.2.1.1.3.2.4.3.4.3.6.7.9 1.1.2.3.3.6.5.9.4.6.9.9 1.5 1.2 1.7.9 8 4.1 9.3 4.8.7.4 1.5.7 2.3.6h1.8c.3 0 .7 0 1 .1s.4.3.2.6c-.1.1-.2.2-.3.3-.5.5-1 .9-1.5 1.4-.1.1-.1.2-.2.2-.1.2-.1.5-.1.8-.1.5-.2.9-.3 1.4-.1.3-.3.3-.5.2s-.3-.3-.5-.5c-.5-.7-1-1.5-1.6-2.2-.1-.1-.2-.2-.3-.2-1.6-.9-9.3-4.8-11.2-5.7-.4-.2-.8-.2-1.3-.2-.4 0-.9.1-1.3.1s-.9-.1-1.3-.2c-.1-.1-.2-.3 0-.5z"/><path d="m20.7 7.4c-.1-1.9-1-3.5-2.5-4.8-1.1-1-2.5-1.5-4-1.9-1.3-.3-2.6-.5-3.9-.5-1.3 0-2.6.2-3.8.5-1.4.3-2.7.9-3.8 1.9-1.4 1.2-2.2 2.8-2.3 4.7s.4 3.7 1.4 5.3c0 .1.1.1.1.2l.8 1.2c-.1.7-.3 1.4-.2 2.1.1 1 .5 1.7 1.5 2 .1 0 .2.1.3.1.3.1.7.3 1 .4.8.4 1.4.9 1.7 1.7.1.2.1.5.2.7 0 .1.1.2.1.2.4.1.9.2 1.3.3h1.7c.6 0 1.2.1 1.7.1s.9-.1 1.4-.2c0 0 .1-.1.1-.2.1-.2.1-.5.2-.7.3-.8.9-1.3 1.7-1.7.3-.1.7-.2 1.1-.4.1 0 .2-.1.3-.1 1.1-.3 1.5-1 1.6-2 .1-.7 0-1.4-.2-2.1l.8-1.2c.1-.1.1-.1.1-.2 1.2-1.6 1.8-3.4 1.6-5.4zm-13.5 8.5c-.4.4-1 .5-1.5.3-.6-.2-1-.6-1.3-1.1s-.5-1.1-.7-1.7c-.1-.7.2-1.4.9-1.6l1.5-.3c.1 0 .3 0 .4-.1.4 0 .8-.1 1.2-.1.8 0 1.1.6 1.2 1.2.1.4 0 .9-.2 1.3-.3.8-.9 1.5-1.5 2.1zm3 3c0 .1 0 .2-.1.2-.2.2-.4.4-.6.6-.1.1-.2.1-.2.1-.2.1-.4.1-.5-.2-.1-.2-.2-.4-.2-.6-.1-.7-.1-1.5.3-2.2.3-.5.6-.9 1-1.3.1-.1.2-.1.3-.2v.5zm2.1.5c0 .2-.2.4-.4.5-.1 0-.2 0-.3 0-.4-.2-.7-.5-.9-.9v-.1c0-1.1 0-2.2 0-3.3 0-.1 0-.1 0-.2.1.1.2.1.3.2.5.5.9 1.1 1.2 1.7.1.1.1.3.1.5zm5.1-5.7c-.3.6-.5 1.3-.9 1.9-.4.7-1.1.9-1.9.9-.3 0-.6-.1-.9-.4-.8-.8-1.4-1.6-1.8-2.7-.2-.6-.1-1.2.3-1.7.2-.3.5-.4.9-.4 1 .1 2 .2 3 .5.7.2 1.2.8 1.3 1.4.1.2.1.4 0 .5z"/></g><path d="m165.3 150.7h-63.9l3.7-5.8h57.6z" fill="#69797d"/><path d="m165.3 150.7h-63.9v1.9h63.7z" fill="#465557"/></g></g></svg>