<svg height="400" viewBox="0 0 1200 400" width="1200" xmlns="http://www.w3.org/2000/svg"><g fill="none" fill-rule="evenodd"><path d="m0 439h1201v-439h-1201z" fill="#dedfde" transform="translate(0 -100)"/><g fill-rule="nonzero" transform="translate(428 31)"><g transform="translate(26 56)"><path d="m27.4 2.7c-3.9-2.1-12.2-2.7-19.1.1-6.9 2.8-7.7 5.3-7.7 5.3l26.7.7z" fill="#7bb929"/><path d="m26.2 3s9.1 2.4 13 7.2c.9 1.1 13.2 21 15.7 25.6.5.9-1.8 7.2-4.2 3.2-5-8.1-16.4-20-16.4-20s-6.6-1.4-10.5-3.1c-4.1-1.6 2.4-12.9 2.4-12.9z" fill="#f3ac7a"/><path d="m29.4 16.8v1.2c2.6.7 4.9 1.2 4.9 1.2s.9.9 2.2 2.3c-1-2-.7-6 .1-10.4-2.7 6.3-7.2 5.7-7.2 5.7z" fill="#bb6636" opacity=".1"/><path d="m54.6 35.3 5.5 8.1c.3.4.4.9.5 1.3l.3 5.7c0 .6-.1 1.2-.5 1.7l-3 4.2c-.8-.7-1.1-1.9-.6-3l1.2-2.6-.9-4.5c0-.2-.2-.4-.4-.6-.6-.4-1.4.1-1.3.9l.7 4.5c.1.5-.2 1-.7 1.1-.5.2-1.1-.1-1.3-.7l-2-6.2-1.9-8.8z" fill="#f3ac7a"/></g><g transform="translate(291 8)"><g transform="translate(28)"><g transform="translate(0 94)"><g fill="#000"><path d="m25.5 128.2c.2-2.4-1.2-3.9-.2-16.3.1-1.5-11.1-2-11.1-2 .5 6.1 2.1 9.9-3.8 17.2-1.3 1.6-5 4.5-6.3 5.8-.9.9-2 5.2 3.5 5.2 6.9 0 12.3-2.1 14-5.4.1-.3.6-.2.6-.2s2.8 1.9 3.3-4.3z"/><path d="m38 118.6 10.5-1.4s.1 1 1 4.6c1.5 6.8 5.4 10.4 7.1 12.3 1.4 1.6 1.7 3.5 1.4 5.1v.8s-.6 3.2-2.8 3.2-11-1.4-12.1-3c-.5-.7-.6-1.4-.6-1.9 0-.1-.1-.2-.1-.2s-.9-3.7-2.2-3.4c0 0-2.1-2.1-.9-5.5 1.3-3.4-1.3-10.6-1.3-10.6z"/><path d="m2.1 2.4c0 1.1-.7 4.2-.7 5.2-.3 11.4-.6 17.8-.6 20.8 0 3.3 3.2 39 5.7 47.1 2.5 8.2 5.1 39.3 3.5 41.7-1.6 2.5-.3 9.8-.3 9.8s17.7-1.2 18.1 2c0 0 1.1-1.2.5-8.3-1-12.8-3-19.7-3.9-44.2-.2-4.9-2.9-31.2-4.9-39-.9-3.5 8.5 36.4 11.8 47.9 0 0 6.2 24.7 4.9 35.3-1.2 9.5 1.9 10.9 1.9 10.9s12-3.9 17.7-.6c.2-3.3.6-3.6-.2-9.6-.9-7.4-7.3-30.5-8.2-40.8-1.1-12.2-3.3-35.1-4.1-49.8s-6.7-25.8-8.4-28.7c-1.8-3.1-32.8.3-32.8.3z"/></g><path d="m2.5 26c.6 16.8 8.3 44.9 10.1 52.3s-.6 4.6.3 8.9 3.1 26.3 3.1 27.8 8.9 3.4 7.1 4.6-8.6-.9-8.6 0 5.2 2.8 5.2 2.8-10.4.6-11.1.3c-.6-.3 1.2-3 .8-6.2-1.9-16.9.3-25.6-2.1-33.6-2.5-8-7.1-57-6.2-62.2 1-5.2 1.4 5.3 1.4 5.3z" fill="#26282d"/><path d="m19.4 34.1c3.4 6.8 11.8 42.5 13.4 47.4 1.5 4.9 3.9 8.7 5.1 10.2s6.9 25.7 6 30c-3.1.3-6.1-.3-6.4 1.2s8 .9 8 .9l-9.5 4.6c-.5-1.9-.8-4-.8-7.7 0-4.4-1.4-23.5-4.4-33.3-2.5-8-3.5-17-5.9-27.2-2.5-9.6-5.5-26.1-5.5-26.1z" fill="#26282d"/></g><g transform="translate(13 38)"><path d="m2.3 4 1.8.3.4-3.6-3.6-.5-.2 1.6z" fill="#6e150e"/><path d="m5.4 4.4-1.5-.1.5-3.6 3.6.4-.2 1.6z" fill="#991915"/></g><path d="m27.5 31c-1.1 5.6-9.3 7.3-9.3 7.3l4.5 7.2 7.9-10.4z" fill="#fff"/><path d="m16.5 38.3-6 5.1s-.7-6.8-.1-8.1c.8-1.8 1.6-1.5 1.6-1.5s-.3.8 1.1 2.5c1.8 2.2 3.4 2 3.4 2z" fill="#fff"/><path d="m16.7 44.6c.6.3 1.7 1.5 2.4 1.3.6-.2.8-.7 0-1.7-.7-1-2-1.7-2.4-.9-.4.9 0 1.3 0 1.3z" fill="#cc9584"/><path d="m15.7 25.3c.6 2.9-1 6-2.2 8.5s2.3 10.3 3.9 10.3 12.4-7.8 12.4-7.8-3 .4-3-14.2c0-2.3-11.1 3.2-11.1 3.2z" fill="#d2a292"/><g transform="translate(6)"><path d="m25.7 15.8c0 2.1-1.4 10-2.4 11.2-.3.3 0 2.7.4 2.6s-1.6.6-2.3-.1-2.1-11.2-1.7-11.8c.3-.5 6-1.9 6-1.9z" fill="#000"/><path d="m20.6 18.4c.3-5.8 2-11.9-6.9-12.5-2-.1-3.6 0-5 .3-.5-.2-1-.4-1.5-.5-2 .2-3.3 1.5-4.5 4.1-1 2.2-1.3 5.2-1.2 8.1 0 .9.5 2.2.6 3.1.1 1.3 0 2.1.2 3.1.4 3.5 2.1 7.8 4.8 10.4.8.4 1.7.7 2.7.6 3.1-.1 5.9-1.2 7.7-3 1.1-.9 1.9-3.8 2.4-6.3 1.2-.5 3.3-3 3.5-4.8.3-2.3-.7-3.7-2.8-2.6z" fill="#e0ac9c"/><path d="m10.3 5.5.2-.5s2.4-1.3 1.9-1.3c-.3 0-1.1-.8-1.6.4l1.1-1.9-5.4 1.5s-1.2-.2-2.1.4-1.6 1.1-1.6 1.1.1.9.3-.3c-1.2.3-2 3.1-2.1 5.1-.1.6-.2 1.3-.3 2-.3 3 .3 6.4.3 6.4l.6.4s-1-7.2 1.8-9.2 9.3 0 9.3 0z" fill="#26282d"/><path d="m25.2 9.8c-.9-1.8-2.1-4.5-3.4-5.1-.7-1.4-5.3-1.5-10-3.3 0 0 4.2 1.6 4.2 2.7-.6-.9-7.5-3.3-7.1-2.8 1.9 3.1 1.5 1 1 2.3-.1 0 .2.1.1.1.2-1.3-1.3-2.6-2.3-2.9.4 1.8-1.7 1.6-3.1 3.6-1.7 1.6-3.1 4.6-1.3 6 4.1 3.1 7.4.6 10 .8 2.4.2 3.7 1.6 4.2 2.5.6 1.2 1 6.9 1 6.9l1.7-1.1 1.2-2.5 3.7 1.6c0 .1 1.9-5.2.1-8.8z" fill="#000"/></g><path d="m6.7 23.2c1.2.3 3.4.5 3.7-.5.3-1.2.5-2.7.5-2.7s.6-.5 1.7 0c0 0 .3 1.7.7 2.8s4.2.5 5.8.2c.7-.1.8-1.7.8-3l7.7-2 .4-.7s-7.4 1.3-8.5 1.5c-1-.2-4.6.5-6 .4-.4.1-1.2 0-1.8 0-.7 0-1.1.2-1.3.2-.3-.1-3.9-.7-4.4-.3-.6.4-.2 3.9.7 4.1zm6.6-3.3c.4.1 5.5-.6 5.8-.3.2.2.2 2.7-.5 2.9-.9.3-4.3.7-4.7-.2-.4-1-.6-2.4-.6-2.4zm-6.9-.2c.2-.2 3.3.2 3.7.1 0 0 .1 1.4-.3 2.6-.1.4-2.3.4-2.9.1-.5-.3-.8-2.6-.5-2.8z" fill="#26282d"/></g><path d="m67.5 88.8.8-23.6-1.3-5.6-.4 5.9-1.7 23.2 1.7 19.2z" fill="#000" opacity=".1"/><path d="m83.3 81.2-6-33.6c-.5-1.3-2.3-4.9-7.4-6.2l-19.8-7.2v-.1s0 0 0-.1h-.1l-.3.1-.3-.1h-.1v.1.1l-19.8 7.2c-5.1 1.3-6.9 4.9-7.4 6.2l-2.1 36.1-11.5-6.4s.9 4.8 5.6 14.3c4.7 9.4 15.3-3.7 15.3-3.7s.8-15.7.8-18.5l.4 19.2-1.1 14.6-.3 8.7c13.5-.2 26.8 1.3 40.3 1.3l-2.4-13.7v-3.6l.4-7.1v-.9l10.9 1.5c3 .3 5.6-2.1 5.4-5zm-15.4-4.5.4-11.3 1.7 11.3z" fill="#673328"/><path d="m56.9 36.4-6.7-2.4v-.1s0 0 0-.1h-.1l-.3.1-.3-.1h-.1v.1.1l-7.7 2.8 4.6 10.2 3.2.3z" fill="#d2a292"/><path d="m83.3 81.2-6-33.6c-.3-.9-1.4-3-3.7-4.6 2.5 4.5 3.4 12.1 3.5 12.9 1 6.1 1.4 12.2 2.5 18.3.5 2.9 1.6 7.2-.5 9.8-2.4 2.9-24.5.7-30.7-.1-3.1-.4.3-6.1.3-6.1h4.7l14.6-1.1s.3-9.8.4-11.3c-.4 3-2.1 6.8-4.6 8.4-3.3 2.1-7.4 2-11.2 1.8-7.4-.3-14.7.5-22.1.9l-.6 11.8s4.6.4 8.8.6c.9 0 1.8-.5 2-1.4.2-1-.2-2 1.1-2 7.4-.4 15.7 2.8 22.4 5.7l3.2 2.1.3-4.5v-.9l10.9 1.5c3 .3 5.6-2.1 5.4-5z" fill="#000" opacity=".14"/><path d="m32.7 64.9h-30.5c-1.6 0-2 .6-2 1.8l3.8 19.7c0 1.3 1 1.9 2.3 1.9h30.2c1.3 0 2.3-.6 2.3-1.8l-3.8-19.4c0-1.3-1-2.2-2.3-2.2z" fill="#9abccc"/><g fill="#be8c70"><path d="m44.9 76-6.7-2.6h-2l1.7 9.4 3.5 1.1c1.5.3 3.1.3 4.3-.5l2.7.6-.6-5.9z"/><path d="m28.1 76.1 1.3 4.1c.4 1.1 1.3 2 2.5 2.3l7 1.9 5-.3s.7-.2 1.4-.4l3.3.4.9-6.2-9.3-2.5z"/><path d="m26.2 76c-.6 0-1 .5-.9 1.1.1.5.5.8 1 .8l11 .2-.2-3z"/></g><path d="m41.7 35.1-.7-.2-2.4 2.1c0 3 1.9 7.7 1.9 7.7l3.9-4.9c-3.3-1.8-2.7-4.7-2.7-4.7z" fill="#f8f9fa"/><path d="m42 42.9c.4 4.1 4.4 4.3 4.4 4.3l-1.9-7.4z" fill="#d5dde2"/><path d="m52.5 39.9 3.7 4.2s1.7-2.9 2.8-6.5l-2.8-3.3s-1 4.2-3.7 5.6z" fill="#f8f9fa"/><path d="m49.6 47.5s2.8-.8 3.6-1.6c2.1-2 2-2.9 2-2.9l-2.8-3z" fill="#d5dde2"/></g><g transform="translate(52 81)"><path d="m86.3 59.7 28.9-4-18.5-6.7-9.3.9z" fill="#5c8599"/><path d="m75.9 144.6-17.7-9.7c-8.1-4.4-15-9.7-21-15.6-.7-.7-1.3-1.3-2-2-2.6-2.7-4.9-5.5-7.1-8.4-2.7-3.6-5.2-7.3-7.4-11.1-.9-1.5-1.7-3-2.5-4.6-4-7.7-7.2-15.5-9.5-23.1-.5-1.5-.9-3-1.3-4.5-.2-.7-.4-1.5-.6-2.2-.8-2.9-1.5-5.8-2.1-8.6-3.8-17.8-3.8-31.6-3.8-33.7v-.1-20.5l18.6 7.1v13.2 10.3 1.3.5 1.8.9.6.6.2c0 .5 0 .9.1 1.4 0 .3 0 .6.1.9 0 .3 0 .6.1.9 0 .3 0 .6.1 1 0 .3.1.7.1 1 0 .5.1.9.1 1.4 0 .2 0 .5.1.7 0 .2 0 .5.1.7.1.7.1 1.4.2 2.1 0 .3.1.6.1.9v.2c.1.5.1 1 .2 1.5v.1c.1.7.2 1.4.3 2.1.1.8.2 1.5.3 2.3 0 .3.1.5.1.8 0 .2.1.5.1.7 0 .1 0 .2.1.3.1.5.2.9.2 1.4.1.7.2 1.4.4 2.2 0 .2.1.5.1.7.1.5.2 1 .3 1.4 0 .2.1.5.1.7.1.5.2 1 .3 1.5.1.7.3 1.4.4 2s.2 1.1.4 1.7c0 .1.1.3.1.4.2.7.3 1.4.5 2.1.1.4.2.8.3 1.1.2.7.4 1.4.5 2.1 0 .1 0 .1.1.2.2.7.4 1.3.6 2s.4 1.5.6 2.2c.1.3.2.7.3 1 .6 1.9 1.2 3.8 1.9 5.7.2.6.4 1.2.6 1.8.6 1.7 1.3 3.4 2 5.1.3.8.6 1.5.9 2.3s.7 1.5 1 2.3.7 1.5 1.1 2.3c.2.3.3.6.5 1 .6 1.3 1.2 2.5 1.9 3.8.2.3.3.6.5 1s.4.8.6 1.1c.3.5.5 1 .8 1.4v.1c.1.3.3.5.4.8 1.1 1.9 2.2 3.7 3.4 5.6.2.4.5.7.7 1.1.3.5.6.9.9 1.4.2.3.4.5.6.8.3.4.5.7.8 1.1.2.3.5.6.7 1 .4.6.9 1.2 1.4 1.8.2.3.5.6.8.9.3.4.6.7.9 1.1.4.5.9 1 1.3 1.5.1.1.1.1.2.2.4.5.9 1 1.4 1.5.4.4.8.9 1.2 1.3.1.1.2.2.2.2s0 0 .1.1c.5.5 1 1 1.5 1.6l1.5 1.5c.5.5 1 1 1.6 1.5.5.5 1.1 1 1.6 1.5.6.5 1.1 1 1.7 1.5s1.3 1.1 2 1.6c.1.1.3.2.4.3.4.3.8.6 1.1.9.4.3.8.6 1.2.9s.8.6 1.2.9c0 0 0 0 .1.1 0 0 .1 0 .1.1.4.3.8.5 1.1.8.4.3.8.5 1.2.8.5.3 1 .7 1.5 1 .4.3.8.5 1.3.8.4.3.9.6 1.3.8.5.3.9.5 1.4.8-.1-.1.2.1.4.2z" fill="#5c8599"/><path d="m145.9 67.4c-8.7 27.7-25.7 59.9-58.9 82.4-3.7-1.5-7.1-3.1-10.4-4.9-.2-.1-.5-.3-.7-.4s-.5-.3-.7-.4c-.5-.3-.9-.5-1.4-.8s-.9-.5-1.3-.8-.8-.5-1.3-.8-1-.6-1.5-1c-.4-.3-.8-.5-1.2-.8s-.8-.5-1.1-.8c0 0-.1 0-.1-.1 0 0-.1 0-.1-.1-.4-.3-.8-.6-1.2-.9s-.8-.6-1.2-.9-.8-.6-1.1-.9c-.1-.1-.3-.2-.4-.3-.7-.5-1.3-1.1-2-1.6-.6-.5-1.1-1-1.7-1.5s-1.1-1-1.6-1.5c-.5-.5-1-1-1.6-1.5-.5-.5-1-1-1.5-1.5s-1-1-1.5-1.6c0 0 0 0-.1-.1s-.2-.2-.2-.2c-.4-.4-.8-.9-1.2-1.3-.5-.5-.9-1-1.4-1.5-.1-.1-.1-.1-.2-.2-.4-.5-.9-1-1.3-1.5-.3-.4-.6-.7-.9-1.1-.3-.3-.5-.6-.8-.9-.5-.6-.9-1.2-1.4-1.8-.2-.3-.5-.6-.7-1-.3-.4-.5-.7-.8-1.1-.2-.3-.4-.5-.6-.8-.3-.5-.6-.9-.9-1.4-.2-.4-.5-.7-.7-1.1-1.2-1.8-2.4-3.7-3.4-5.6-.2-.3-.3-.5-.4-.8 0 0 0 0 0-.1-.3-.5-.5-1-.8-1.4-.2-.4-.4-.8-.6-1.1s-.3-.6-.5-1c-.7-1.3-1.3-2.5-1.9-3.8-.2-.3-.3-.6-.5-1-.4-.8-.7-1.5-1.1-2.3-.3-.8-.7-1.5-1-2.3-.3-.7-.6-1.5-.9-2.3-.7-1.7-1.3-3.4-2-5.1-.2-.6-.4-1.2-.6-1.8-.7-1.9-1.3-3.8-1.9-5.7-.1-.3-.2-.7-.3-1-.2-.7-.4-1.5-.6-2.2s-.4-1.3-.6-2c0-.1 0-.1-.1-.2-.2-.7-.4-1.4-.5-2.1-.1-.4-.2-.8-.3-1.1-.2-.7-.3-1.4-.5-2.1 0-.1-.1-.3-.1-.4-.1-.6-.2-1.1-.4-1.7-.2-.7-.3-1.4-.4-2-.1-.5-.2-1-.3-1.5 0-.2-.1-.5-.1-.7-.1-.5-.2-1-.3-1.4 0-.2-.1-.5-.1-.7-.1-.7-.3-1.4-.4-2.2-.1-.5-.2-.9-.2-1.4 0-.1 0-.2-.1-.3 0-.2-.1-.5-.1-.7 0-.3-.1-.5-.1-.8-.1-.8-.2-1.5-.3-2.3-.1-.7-.2-1.4-.3-2.1v-.1c-.1-.5-.1-1-.2-1.5 0-.1 0-.1 0-.2 0-.3-.1-.6-.1-.9-.1-.7-.2-1.4-.2-2.1 0-.2 0-.5-.1-.7 0-.2 0-.5-.1-.7 0-.5-.1-1-.1-1.4 0-.3-.1-.7-.1-1s-.1-.7-.1-1 0-.6-.1-.9c0-.3 0-.6-.1-.9 0-.5-.1-1-.1-1.4 0-.1 0-.1 0-.2 0-.2 0-.4 0-.6v-.6c0-.3 0-.6 0-.9 0-.7 0-1.3 0-1.8 0-.2 0-.3 0-.5 0-.6 0-1 0-1.3v-10.3-13.2l15.1 5.7v15.7c0 .2.1 21.3 7.9 45 8.1 24.7 21.1 42.7 38.6 53.7-.1 0-.1.1-.2.1l6.2 3.4c1.2-.9 2.3-1.9 3.4-2.8.3-.3.7-.6 1-.9.4-.4.8-.7 1.3-1.1.4-.4.9-.8 1.3-1.2.2-.2.5-.4.7-.7 1.1-1 2.1-2 3.1-3.1l.6-.6c.9-.9 1.7-1.8 2.5-2.7.2-.3.5-.5.7-.8.2-.2.3-.3.5-.5.8-.9 1.6-1.9 2.4-2.8.2-.2.3-.4.5-.6l2.4-3c.2-.3.5-.6.7-.9.9-1.2 1.8-2.4 2.6-3.6.1-.1.1-.2.2-.3.8-1.2 1.6-2.4 2.4-3.6.3-.4.5-.8.8-1.2.6-.9 1.2-1.9 1.8-2.9.3-.4.5-.9.8-1.3.6-1.1 1.3-2.2 1.9-3.4.2-.3.3-.6.5-.9 0-.1.1-.2.1-.2.3-.5.5-1 .8-1.6.1-.1.1-.2.2-.3.2-.3.3-.6.5-.9.1-.2.2-.3.2-.5.2-.4.4-.8.6-1.2 0 0 0-.1.1-.1.2-.4.4-.7.5-1.1v-.1c.3-.7.6-1.3.9-2 .2-.5.4-.9.7-1.4.1-.1.1-.2.2-.3.2-.4.3-.8.5-1.2.4-.8.7-1.6 1.1-2.5.2-.4.3-.8.5-1.2.1-.1.1-.2.1-.3.2-.4.3-.8.5-1.2 0 0 0 0 0-.1.4-.9.7-1.8 1-2.7.1-.4.3-.7.4-1.1 0-.1.1-.2.1-.4.1-.2.1-.3.2-.5.2-.4.3-.8.5-1.3 0-.1.1-.1.1-.2.3-.8.6-1.6.8-2.4.1-.3.2-.6.3-.9.5-1.6 1.1-3.2 1.6-4.9z" fill="#92d2f4"/><path d="m125.3 59.6c-.4 1.3-.8 2.7-1.3 4-.2.6-.4 1.1-.6 1.7-.4 1.2-.8 2.3-1.2 3.4-.4 1-.7 1.9-1.1 2.9-.3.8-.6 1.7-1 2.5-.4.9-.8 1.9-1.2 2.8-.3.8-.7 1.6-1 2.4-.4.9-.9 1.8-1.3 2.7-.4.8-.7 1.5-1.1 2.2-.5.9-.9 1.8-1.4 2.7-.4.7-.7 1.4-1.1 2.1-.2.3-.3.6-.5.9-.6 1.1-1.3 2.2-1.9 3.3-.3.5-.5.9-.8 1.3-.6 1-1.2 1.9-1.8 2.9-.3.4-.5.8-.8 1.2-.8 1.2-1.6 2.4-2.4 3.6-.1.1-.1.2-.2.3-.9 1.3-1.8 2.5-2.7 3.7-.2.3-.5.6-.7.9-.8 1-1.6 2-2.4 3-.2.2-.3.4-.5.6-.9 1.1-1.9 2.3-2.9 3.4-.2.3-.5.5-.7.8-.8.9-1.7 1.8-2.5 2.7-.2.2-.4.4-.6.6-1 1-2.1 2.1-3.1 3.1-.2.2-.5.5-.7.7-.9.8-1.7 1.6-2.6 2.3-.3.3-.7.6-1 .9-1.1.9-2.2 1.8-3.3 2.7-17.6-11.1-30.5-29.1-38.6-53.7-7.8-23.7-7.9-44.8-7.9-45v-15.7l9 3.4 18.9 20.9 18.9-15.4 8 12-3 25.4 28.9-4z" fill="#cee9fb"/><g fill="#5c8599"><path d="m131.8 62.1c-.5 1.7-1 3.3-1.6 4.9-.1.3-.2.6-.3.9s-.2.6-.3.9c-.2.5-.3 1-.5 1.5 0 .1 0 .1-.1.2-.2.6-.4 1.2-.6 1.7 0 .1-.1.2-.1.4-.1.4-.3.7-.4 1.1-.2.5-.4.9-.6 1.4-.2.4-.3.8-.5 1.2v.1c-.2.5-.4 1-.6 1.5-.2.4-.3.8-.5 1.2s-.4.9-.6 1.3-.3.8-.5 1.2-.3.8-.5 1.2c-.1.1-.1.2-.2.3-.2.5-.4 1-.7 1.4-.2.3-.3.6-.5 1-.2.3-.3.7-.5 1v.1c-.2.4-.4.8-.6 1.3-.2.4-.4.8-.6 1.2-.1.2-.2.3-.2.5-.2.3-.3.6-.5.9-.1.1-.1.2-.2.3-8.6 16.5-19.7 30.1-33.2 40.7-2.1-1.1-4.1-2.2-6-3.4 1.1-.9 2.2-1.8 3.3-2.7.3-.3.7-.6 1-.9.9-.8 1.7-1.5 2.6-2.3l.7-.7c1.1-1 2.1-2 3.1-3.1l.6-.6c.9-.9 1.7-1.8 2.5-2.7.2-.3.5-.5.7-.8 1-1.1 2-2.2 2.9-3.4.2-.2.3-.4.5-.6.8-1 1.6-2 2.4-3 .2-.3.5-.6.7-.9.9-1.2 1.8-2.4 2.7-3.7.1-.1.1-.2.2-.3.8-1.2 1.6-2.4 2.4-3.6.3-.4.5-.8.8-1.2.6-.9 1.2-1.9 1.8-2.9.3-.4.5-.9.8-1.3.6-1.1 1.3-2.2 1.9-3.3.2-.3.3-.6.5-.9.4-.7.7-1.4 1.1-2.1.5-.9.9-1.8 1.4-2.7.4-.7.7-1.5 1.1-2.2.4-.9.9-1.8 1.3-2.7.3-.8.7-1.6 1-2.4.4-.9.8-1.9 1.2-2.8.3-.8.6-1.6 1-2.5s.7-1.9 1.1-2.9c.4-1.1.8-2.3 1.2-3.4.2-.6.4-1.1.6-1.7.4-1.3.9-2.6 1.3-4z"/><path d="m62.5 37.9 18.8-15.5-18.5-6.7-12.4 8.6z"/></g></g><path d="m80.5 211.1c-.8 2.1-1.1 4.3-.9 6.6l.1 1.3c0 .4.3.7.7.7 1.4.1 18.2-1.3 22-1.1s8.4-1.1 8.2-3.5c-14.7-3-19.1-5-19.1-5z" fill="#000"/><path d="m103.2 217.7c-3.4-.2-19.3.8-23.5.9v.5c0 .4.3.7.7.7 1.4.1 18.2-1.3 22-1.1 3.4.2 7.4-.8 8.1-2.8-1.4 1.3-4.5 2-7.3 1.8z" fill="#000"/><path d="m88.4 157.6 5.1 53.3s-1.7 3.2-6.9 4.1-7.9-.5-7.9-.5l-8.1-45.1-.2-10.5z" fill="#878787"/><path d="m74.2 156s.6 54.2 12.5 59c-5.2.9-7.9-.5-7.9-.5l-8.1-45.1-.2-10.5z" fill="#232322"/><path d="m37.6 18.1c1.3.5 3.8 2.2 4.9 1.4 1.6-1.1 8.3 1.4 9.8 4.6.6 1.4.8.9.6 2.6-.3 3.7-2.2 7.1-5 9.7-7.5 6.8-7.1 15.5-12.4 15.7-8.6.3-16.4-9.4-15.7-19.5-.1-14.4 12.1-16.6 17.8-14.5z" fill="#5f4540"/><path d="m23.9 41.5 11.8 5.4.3 5c.2 2.8 1.2 5.2 3.4 6.8 0 0 13.7 13.5 2.5 14.3s-22.6-14.4-22.6-14.4c5.2-7.6 4.6-17.1 4.6-17.1z" fill="#f7b282"/><path d="m30.5 119 6 2.9 10.1 4.9 23.4 10.8c4.7 2.2 9.2 4.8 13.4 7.9 3.1 2.3 5 5.9 5 9.7v2.3l-7.3 8.8-8.4-6.3-54.2-18z" fill="#878787"/><path d="m36.8 138.3 33.9 16.4c1.9.9 3.2 2.7 3.4 4.8l.2 1.8-55.8-19.3z" fill="#232322"/><path d="m26.2 232.6c-.2 3.2 1.1 5.4 2 9.4.7 2.7.9 6.1-5.6 6.3-6 .2-6-4.2-6-4.8s.8-7.7.8-7.7z" fill="#000"/><path d="m22.5 246.8c-2 .1-3.7-.3-5.1-.8.7 1.2 2.2 2.3 5.3 2.2 3.8-.1 5.3-1.3 5.7-2.8-1.4.7-3.3 1.3-5.9 1.4z" fill="#000"/><path d="m42.9 123-1.4 11.6c-.3 2.3-1.5 4.3-3.5 5.5-1.2.7-2 1.9-2.3 3.2l-6 40.6-1.1 53.4s-1.1.9-6.5 1.3-6-1.4-6-1.4l-2.8-25c-.6-6.5-1.7-13.7-.6-20.1l1.2-7.2-2.1-21.9c-.5-4.8-1.1-10.3-.8-15l.4-5.5c.1-1 0-2-.4-3-1-3-1.3-6.1-1-9.2l.9-8.7z" fill="#878787"/><path d="m17 184.9c-2.8-23.4.6-44.6.6-44.6s13.6 0 14.2-12.4l-20.6-6.2h-.2l-.9 8.7c-.3 3.1 0 6.2 1 9.2.3 1 .4 2 .4 3l-.4 5.5c-.4 4.8.3 10.3.8 15l2.1 21.9-1.2 7.2c-1 6.4 0 13.6.6 20.1l2.8 25s-4.7-32.9.8-52.4z" fill="#000"/><path d="m19.2 127.7c-.4 4-1.2 9.7-1.2 9.7s8 .8 10.2-6.3-9-3.4-9-3.4z" fill="#878787"/><path d="m7.4 62.7 11.9-4.2s8.6 11.1 19.3 9.6c3.1-.4 3.3-6.9.7-9.5.4.3 5.5-2.9 14-1.5 1.1 2 1.5 15.5-1.2 19.9-.5-.2-3 1.5-3 1.5v.1c.3 3.6.1 7.2-.6 10.7-.9 4.9-2.1 12-2 14.4.5 10.2 3.9 21.9 2.8 23.9-1.6 2.8-15.8 7.8-39.4 2.5-.4-22.7-1.9-39.8-1.9-39.8l-5.4-8.4c-2.2-3.5-3.1-7.7-2.1-11.7.9-3.2 2.7-6.3 6.9-7.5z" fill="#7bb929"/><path d="m31.1 56.9c1.3.9 6.6 3 8.3 1.8-.3-.2-.5-.4-.8-.7-1.6-1.6-2.4-3.7-2.6-6.1l-.3-5-9.9-3.3s-1.3 8.9 5.3 13.3z" fill="#bb6636" opacity=".1"/><path d="m28 37.9c1.2-6.4 4-4.2 5.7-6.5 3.8-5.1 7.9 1 14.1 3.4 0 .5-1.9 9.6-2.4 11-3.3 8.9-2.8 10.1-9 8.8-6.2-1.4-10.4-5-11.5-9.2-.3-1.1-1.5-5.9-1.5-5.9 1.1.1 4.1.8 4.6-1.6z" fill="#f7b282"/><path d="m25.4 34.6c.7.6.3 8.3-.6 8.3-2.2.1-3.3-3.6-3.5-6-.3-3.1 2.9-3.3 4.1-2.3z" fill="#f7b282"/><g transform="translate(74)"><g transform="translate(121 53)"><path d="m53.6 72.9c-.3-2.1-.5-4.2-.6-6.3-1.2-.2-2.3-1.1-2.3-2.4 0-1.4 0-2.8.1-4.2-1 .9-3 .5-3.6-.7-.4-.8-.6-1.6-.8-2.5-1.5.6-3.4-.3-3.4-2.2 0-.7 0-1.4.1-2-3.6 7.3-.5 15.8-3.9 23.3-.4 4-2.7 7.9-3.1 11.9-.2 1.8-1.6 4.5-1.6 6.4-1 7.8-3.3 14.8-3.6 22.7-.4 10-.3 20.1-.8 30.1-.1 1.4.3 19.7-1.9 27.3.1 0 .2.1.3.1 2.7.7 4.9-.2 6.6-1.9 1.5-7.3 3.4-14.5 4.9-21.7.8-3.8 1.5-7.7 1.9-11.5.5-3.9.6-7.8 1-11.7.3-3.8.6-7.6 1.3-11.3s1.7-7.2 2.8-10.8c2-6.7 4.4-13.4 5.1-20.4.3-3.1.4-6.3.7-9.5.6-.1 1.1-.2 1.7-.3.5-.1.9-.3 1.3-.6-1.1-.1-2.1-.6-2.2-1.8" fill="#55210e"/><path d="m34.9 168.5c-1.2 3.4-2.3 6.8-3.8 10.1h.2c-.4 1.2-.8 2.4-1.4 3.4-.1.3-.3.6-.4.8-.1.1-.1.2-.2.4v.1c-1.2 0-2.1 2.2-1 2.9 2.5 1.5 4.3-3.9 4.9-5.5 1.2-2.8 3.2-6.1 3.5-9.1.2-1.3-.6-2.6-1.8-3.1" fill="#bfc3c6"/><path d="m35.6 168.5c.1-.6.1-1.1-.1-1.6-1.7-1.1-3.7-1.2-5.8-1.1 0 0-.5 0-.5.1-.1 2.6-.6 5.5-2.4 7.4-2.3 2.6-4.3 4.5-5.2 8 0 .3.1.5.2.7.8 2.4 3.1 3.7 5.3 2.9.2-.1.4-.2.6-.3.7-.2 1.3-.6 1.8-1.2.6-.7 1-1.5 1.5-2.2.8-1.1 1.6-1.9 2.2-3.1.4-.9.7-1.9 1.1-2.8.6-1.2 1.5-2.2 2.1-3.4.5-1.2.1-2.5-.8-3.4" fill="#2f262e"/><path d="m21 182.2c-.1 1.1-.2 2.1.3 2.6.4.4 1 .6 1.6.8 1 .4 2.1.7 3.1 1 1 .2 2 .2 2.9.1 1.1-1.1 1.6-3.3 1.5-4.7 0-.5-.2-1.1-.4-1.6-.5-.7-1.4-1.1-2-1.5-1.3-.6-2.7-1-4.1-.9s-2.2 1-2.7 2.1c0 .7-.1 1.4-.2 2.1" fill="#bfc3c6"/><path d="m76.1 63.1c-.1-1.7-1.4-3.2-3.1-3.3-1.2 0-2.3.7-2.9 1.7-4 0-8-.1-12-.1.3 0 .5.8.7 2.1-1.7-.3-3 .7-3.7 2.2-1.3 3-.9 6.5-.5 9.6s1.1 6.3 1.4 9.2c1 8.4 2.5 16.7 3.7 25.1.3 2.4.7 4.7 1 7.1.2 17.4 1.4 34.8 1.5 52.2.2.7.4 1.3.6 2 .3.9.7 1.7 1.1 2.5 1.4 1.3 3.2 2 5.4 1.6.1 0 .2 0 .3-.1-.7.2 0-18.4.3-20.1 1.5-8.9 3.8-17.6 3.3-26.6-.6-10.3 1.1-20.7 2.6-30.9 1.7-11.6.7-22.4.3-34.2" fill="#55210e"/><path d="m64 168.4c.9 3.5 1.7 7 2.9 10.4-.1 0-.2 0-.2 0 .3 1.2.6 2.4 1 3.5.1.3.2.6.4.9.1.1.1.2.2.4v.1.1c1.2.1 1.9 2.4.7 3-2.6 1.3-3.9-4.3-4.4-5.9-.9-2.9-2.7-6.4-2.7-9.4 0-1.4.9-2.6 2.1-3.1" fill="#bfc3c6"/><path d="m63.3 168.4c-.1-.6 0-1.1.2-1.6 1.8-1 3.8-.8 5.9-.6 0 0 .3 0 .3.1-.2 2.6.4 5.5 2 7.7 2.1 2.8 3.9 4.8 4.5 8.4-.1.2-.2.5-.3.7-1 2.4-3.4 3.4-5.5 2.4-.2-.1-.4-.2-.6-.3-.7-.3-1.3-.8-1.7-1.4-.5-.8-.8-1.6-1.3-2.4-.7-1.1-1.4-2.1-1.9-3.3-.4-.9-.5-1.9-.9-2.9-.5-1.3-1.3-2.3-1.8-3.6-.3-1.1.2-2.4 1.1-3.2" fill="#2f262e"/><path d="m76.7 183.3c0 1.1 0 2.1-.6 2.5-.4.4-1.1.5-1.7.7-1.1.3-2.1.6-3.2.7-1 .1-2 0-2.9-.2-1-1.2-1.3-3.4-1.1-4.9.1-.5.3-1.1.5-1.6.6-.6 1.4-1 2.1-1.3 1.3-.5 2.7-.8 4.2-.5 1.3.2 2.1 1.1 2.5 2.4.1.8.2 1.5.2 2.2" fill="#bfc3c6"/><path d="m3.9 59c0-.1-.1-.1-.1-.2-.3-.4-.6-.9-.6-1.5 0-.5 0-.9 0-1.4.1-.1.1-.2.1-.3l2.2.9c.2.1.4.3.6.5s.3.5.2.7c0 .2-.2.3-.3.5-.4.4-.7.9-1.1 1.3-.1.1-.2.1-.3.1s-.3 0-.4-.1c-.2-.1-.2-.3-.3-.5" fill="#f19d81"/><path d="m17 43c2.5-3.2 5.2-6.3 8-9.1 3.2-3.1 3.7-8.5 4.5-12.6.7-3.5 6.7-24.6 13.2-19.9.7.5 1 1.5 1 2.4-.1 3.6-2 7.6-3.5 10.7-.2.3-.4.5-.6.6-.8 4.4-1.2 8.1-2.8 12.1-1.2 3-3.5 6.4-4.7 9.3-1.5 3.4-4.3 6.2-7 8.7-.6.5-1.1 1-1.7 1.6-2.3 2.1-4.6 4.2-6.9 6.3-1.3 1.1-5.6 6.2-6.7 3.3-.4-1-.2-.9.2-2 1.4-4.2 4.4-8 7-11.4" fill="#f7ae83"/><path d="m6.3 53.6c-1.1.3-2 .8-2.7 1.4-.3.2-.5.6-.5 1 0 .7.6 1 1.1 1.3.4.2.8.6.7 1.1-.1.2-.2.4-.4.5-1.7 1.7-2.4 2.4-4.1 4.1.5.3 1.1.3 1.7 0 .5-.2.9-.7 1.4-1.1 1.3-1.3 1.8-1.6 3.1-2.9.5-.5 1.4-1.1 1.9-.6-.2.9-1.2 1.4-2.1 1.8-.4.2-.3.7.1.8 1.1.2 2.3 0 3.3-.5 1.4-.7 2.4-2.1 2.7-3.6.1-.5.1-1 .3-1.5.1-.2.1-.4.1-.6s-.2-.4-.4-.5c-1.6-1.3-4.1-1.4-6.2-.7" fill="#f7b089"/></g><path d="m175.9 10.3c-1.2.5-3.4.1-4.4-.7-1.9-1.6-7 .2-9 4.9-.6 1.4-.8 3.1-.7 4.9.2 3.9 1.8 7.5 4.2 10.1 6.5 7 6 16.2 10.7 16.4 7.7.3 14.9-10 14.6-20.7.7-14.9-10.2-17.2-15.4-14.9z" fill="#a4a3a3"/><path d="m149.2 78.6 4.3-16.1c2.7-9.7 16.6-13.5 16.6-13.5s13.7-.2 20 2.2c6.2 2.4 10.3 6.6 10.3 6.6l-2.6 11.3-4.4 13.6c-1.8 5.5-1.7 11.4.3 16.8.5 1.5 1.1 2.9 1.7 4.4 2.1 5.6 5.4 32.1 2.2 50.7-23.3 3.8-44.3-1.4-44.3-1.4l7.2-36.7c1.8-11.6 2.7-21.9 1.7-32.9l-1.5-2.9-6.8 8.4z" fill="#44195e"/><path d="m171.1 40.6.2 8.4-2.9.3s-2.9 6.3-3.5 10.2c-.7 4.2 12.3 6.3 16.8-7.1s-4-17.1-4-17.1z" fill="#e6b289"/><path d="m177.7 35.3-6.6 5.3.2 7.4c.1 0 .1-.1.2-.1l10.3-5.9-.1-2.2c-1.8-3-4-4.5-4-4.5z" fill="#d89c73"/><path d="m162.2 25.7c.7 2.4-1.6 6.4-.9 8.7.4 1.3 2.8 6.4 4.7 9.1.8 1.2 2 2.3 3.4 2.4.9.1 1.8-.2 2.6-.6l9.9-5.7-1-16.9-15.7-6.2-1.9 2.1c-1.3 1.4-1.9 3.3-1.5 5.2z" fill="#e6b289"/><path d="m179.6 31.6c.3-.9.9-1.6 1.8-1.8.4-.1.8-.1 1.3.1 1.5.7-.2 5.4-2.5 5.7-1.7.4-1-2.5-.6-4z" fill="#e6b289"/><path d="m164.2 28.7c0 .1.1.2.1.2s0-.1-.1-.2z" fill="#d89c73"/><path d="m156.7 84.9.2.4 2.7-3.3-.5-1c-1.7-3.8-2.1-8.1-1.1-12.1l1.2-5-1.9 4.1c-2.6 5.2-2.8 11.3-.6 16.9z" fill="#020203" opacity=".05"/><path d="m180.4 84.7s-7.5-1.4-10.8-1.7c-3.3-.4-6.6.7-6.4 1 1 .4 7.8 2.2 17.2.7z" fill="#020203" opacity=".05"/><path d="m145.8 15.8c-.3-.1-.7-.3-1-.4-.2-.1-.4-.1-.5-.2-.2-.1-.5-.2-.7-.3l-.4-.2c-.2-.1-.5-.2-.7-.2-.2-.1-.5-.2-.7-.2-.1 0-.3-.1-.4-.1-.5-.2-1-.3-1.5-.5-1-.3-2.2-.6-3.3-.9-.6-.1-1.2-.3-1.8-.4-.3-.1-.6-.1-.9-.2s-.6-.1-.9-.2-.6-.1-1-.2-.7-.1-1.1-.2c-.7-.1-1.4-.2-2.1-.3-.3 0-.6-.1-.8-.1-.1 0-.1 0-.2 0 0 0-.1 0-.2 0-.3 0-.7-.1-1-.1-.8-.1-1.5-.2-2.3-.2-.2 0-.3 0-.5-.1-.2 0-.4 0-.5 0-.7-.1-1.4-.1-2.2-.2-.1 0-.2 0-.2 0h-.1c-.3 0-.6 0-.9-.1-.1 0-.2 0-.3 0h-.1c-.4 0-.7 0-1.1-.1-.2 0-.5 0-.8 0-.6 0-1.3 0-1.9-.1-.1 0-.2 0-.3 0-.4 0-.8 0-1.2 0-.3 0-.6 0-.9 0s-.6 0-.9 0h-.2c-.4 0-.7 0-1.1 0h-.3c-7 .1-15.1.6-24.2 1.9-49 6.9-65.5 25.6-67.4 27.8l-18.6-9.9c.1-.1.2-.5.4-.7.5-.5 1.3-1.5 2.7-2.7 1.4-1.3 3.3-2.8 5.9-4.6 3.2-2.2 7.4-4.7 12.7-7.2 10.5-5 25.5-9.9 46.2-12.8 8.5-1.2 16-1.8 22.7-1.9h1.3 1.1 1.9c19 .3 30 4.4 35.6 7.4z" fill="#6e9eb6"/><path d="m18.8 40-.1 31.4-18.6-7.1.1-34.2z" fill="#5c8599"/><path d="m133.2 29.4-.1 45.1c0 .2-.2 21.4-8.1 47.3-.1.5-.3.9-.4 1.3l-10.1-3.9-28.9 4 3-25.4-8-12-18.9 15.4-18.9-20.9-9-3.4.1-30.8c8.5-6 25.7-14.2 52.8-18 13.9-2 25.3-2 34.1-1.1 4.8.5 8.8 1.2 12.2 2.1z" fill="#cee9fb"/><path d="m149.4 17.4c-.1-.1-.2-.1-.3-.2-.2-.1-.4-.2-.6-.3s-.3-.2-.5-.2c-.1-.1-.2-.1-.4-.2 0 0 0 0-.1 0-.3-.1-.5-.2-.8-.4-.3-.1-.6-.3-1-.4 0 0-10.7-5-28.8-5.5-1 0-2.1-.1-3.2-.1-.3 0-.6 0-.9 0s-.6 0-.9 0h-.2c-.4 0-.7 0-1.1 0h-.3c-.3 0-.5 0-.8 0-.4 0-.7 0-1.1 0-.2 0-.5 0-.7 0-.5 0-1 0-1.5 0-.4 0-.8 0-1.3.1-.4 0-.9 0-1.3.1-.2 0-.5 0-.7 0-.4 0-.9 0-1.3.1-.6 0-1.3.1-1.9.1-.4 0-.8.1-1.3.1-.2 0-.5 0-.7.1-.5 0-1 .1-1.5.1-1.1.1-2.2.2-3.3.3-.9.1-1.9.2-2.8.3-1.2.2-2.4.3-3.6.5-1.3.2-2.6.4-3.8.6-.6.1-1.2.2-1.9.3-.2 0-.4.1-.6.1-.6.1-1.2.2-1.8.3-.8.1-1.6.3-2.3.4-.5.1-1 .2-1.5.3-.4.1-.8.2-1.2.2-.5.1-.9.2-1.4.3s-1 .2-1.5.3c-.7.2-1.5.3-2.2.5-.9.2-1.8.4-2.7.7-2.6.6-5 1.3-7.4 2-.9.3-1.9.6-2.8.9-.5.1-.9.3-1.3.4s-.9.3-1.3.4c-.4.2-.9.3-1.3.4-.4.2-.8.3-1.2.5-.7.2-1.4.5-2.1.8-.1 0-.2.1-.3.1-.4.2-.8.3-1.2.5s-.8.3-1.1.5c-.4.2-.7.3-1.1.5s-.7.3-1.1.5-.7.3-1 .5c-.3.1-.5.2-.8.3-1.1.5-2.2 1-3.2 1.5-.6.3-1.3.6-1.8.9-.3.2-.6.3-.9.5s-.6.3-.9.5c-.6.3-1.1.6-1.6.9-.3.2-.5.3-.8.5s-.5.3-.8.4c-.2.2-.5.3-.7.5-.5.3-.9.6-1.4.9s-.9.6-1.3.9c-.2.1-.4.3-.6.4-.3.2-.6.4-.9.6-.2.1-.3.2-.4.3s-.3.2-.4.3c-.3.2-.6.4-.8.6-.5.4-1 .8-1.5 1.2-.2.2-.4.4-.6.5-.2.2-.4.3-.6.5s-.4.3-.5.5c-.5.5-1 .9-1.4 1.3-.1.1-.2.2-.3.3s-.2.2-.2.2c-.1.1-.1.1-.2.2s-.1.2-.2.2c-.5.5-.8.9-.9 1l-.1 31.4 15.1 5.7.1-30.8c8.5-6 25.7-14.2 52.8-18 13.9-2 25.3-2 34.1-1.1 4.8.5 8.8 1.2 12.2 2.1.1 0 .1 0 .2.1.2.1.4.1.6.2s.4.1.5.2c.1 0 .2.1.3.1.3.1.6.2.9.3 1.8.6 2.3.8 3.3 1.2.1 0 .2.1.3.1s.2.1.3.1l-.1 46.4v.9.2c0 .5 0 1.1-.1 1.8v.4c0 .8-.1 1.7-.2 2.8 0 .4-.1.7-.1 1.1v.4c0 .2 0 .4-.1.6 0 .5-.1 1-.2 1.6v.4c0 .2 0 .4-.1.7v.1c0 .2 0 .4-.1.6v.3.1c0 .2 0 .3-.1.5v.2c0 .4-.1.9-.2 1.3v.4c-.1.5-.1 1.1-.2 1.6 0 .4-.1.7-.1 1.1 0 .2-.1.4-.1.6-.1.6-.2 1.3-.3 1.9-.1.4-.1.8-.2 1.1-.1.6-.2 1.1-.3 1.7-.1.8-.3 1.6-.4 2.5-.1.4-.1.7-.2 1.1-.2 1-.4 2-.6 3v.1c-.2 1-.4 2.1-.7 3.1-.1.4-.2.8-.3 1.2-.2.7-.3 1.4-.5 2.1-.8 3.4-1.7 6.9-2.8 10.6-.1.4-.2.8-.4 1.3 0 .2-.1.3-.1.4l14.1 5.4c9.1-29 9.2-52.9 9.2-55.2l.1-54.9c0-.3-1.5-1.7-4.8-3.5z" fill="#92d2f4"/><g fill="#5c8599"><path d="m139.4 31.5-.1 46.4v.9.2c0 .5 0 1.1-.1 1.8v.4c0 .8-.1 1.7-.2 2.8 0 .4-.1.7-.1 1.1v.4c0 .2 0 .4-.1.6 0 .5-.1 1-.2 1.6v.4c0 .2 0 .4-.1.7v.1c0 .2 0 .4-.1.6v.3.1c0 .2 0 .3-.1.5v.2c0 .4-.1.9-.2 1.3v.4c-.1.5-.1 1.1-.2 1.6 0 .4-.1.7-.1 1.1 0 .2-.1.4-.1.6-.1.6-.2 1.3-.3 1.9-.1.4-.1.8-.2 1.1-.1.6-.2 1.1-.3 1.7-.1.8-.3 1.6-.4 2.5-.1.4-.1.7-.2 1.1-.2 1-.4 2-.6 3v.1c-.2 1-.4 2.1-.7 3.1-.1.4-.2.8-.3 1.2-.2.7-.3 1.4-.5 2.1-.6 2.6-1.3 5.2-2 8-.2.9-.5 1.7-.8 2.6-.1.4-.2.8-.4 1.3 0 .2-.1.3-.1.4l-6.5-2.5c.1-.4.3-.9.4-1.3.3-.9.5-1.8.8-2.7 7.1-24.6 7.3-44.4 7.3-44.6l.1-45.1-.2-.1c.1 0 .1 0 .2.1.2.1.4.1.6.2s.4.1.5.2c.1 0 .2.1.3.1.3.1.6.2.9.3 1.8.6 2.3.8 3.3 1.2.1 0 .2.1.3.1.3-.2.4-.2.5-.1z"/><path d="m42.8 80.5 18.9 21-18.6-7.1-21.1-21.7z"/><path d="m80.7 86 7.9 12-15.4-5.9z"/><path d="m73.2 92.1 15.4 5.9-3 25.3-15.4-5.8z"/></g><path d="m171.9 94.2-14.8-1c-1-.8-2.4-3-3.3-3.2-1.2 1.1-3.4 2.6-5.5 2.4l-3.3-.9c-1.8-.6-2.1-.5-2.6.4l4.7 1.9 2.5.4h-3.2l-2.9-.7c-.5-.1-1 .2-1.2.7l-.2.7c.1.4.2.7.2.7l3.1 2.5 4.4 1.4s1.3.6 7.2-.9l14.4 1.9z" fill="#e6b289"/><path d="m197.7 73.3c-2.5 3.9-13.7 25.3-13.7 25.3-1.1 2.2-3.4 3.5-5.8 3.4l-9.1-.7.7-7.8 7.3.1s3.4-9.9 5.5-16c3.3-9.5 5.8-17.6 11.3-22.3l4.7 1.2c4.6 3.6 3.5 10.1-.9 16.8z" fill="#68247f"/></g><path d="m63.1 109.5 5.7-19.5c2.6-.6 4.7-2.6 5.5-5.3.6-1.9.3-3.9-.5-5.6 0-.1-.1-.2-.2-.3s-.3-.3-.5-.3c-.5-.1-1 .1-1.2.7l-.8 2.7c-.6 2-2.7 3.2-4.7 2.6s-3.2-2.7-2.6-4.7l.8-2.7c.1-.5-.1-1-.7-1.2-.2-.1-.4 0-.6 0-.1 0-.2.1-.3.2-1.6 1-2.9 2.5-3.5 4.5-.8 2.7 0 5.5 1.8 7.4l-5.7 19.5c-2.6.6-4.7 2.6-5.5 5.3-.6 1.9-.3 3.9.5 5.6.1.1.1.2.2.3s.3.3.5.3c.5.1 1-.1 1.2-.7l.8-2.7c.6-2 2.7-3.2 4.7-2.6s3.2 2.7 2.6 4.7l-.8 2.7c-.1.5.1 1 .7 1.2.2.1.4 0 .6 0 .1-.1.2-.1.3-.2 1.6-1 2.9-2.5 3.5-4.5.8-2.7 0-5.5-1.8-7.4z" fill="#000"/><g fill="#f7b282"><path d="m30.2 103.5-7.5-18.7c-2.3 3.5-11.5 5.5-14.5 4.9 0 0 10.9 17.2 15.6 23.4.9 1.2 3 .9 4.5.7l25.8-5.7-.4-6.5z"/><path d="m70.6 95.7-10.1 2.3c-.8.2-1.7-.3-2-1-.2-.5-.1-1.1.2-1.6l1.3-2.1c.7-1.7.5-2.9-.8-3.4l-5 6.1-1.9 8.3-.7 4.4 5.6-.6c3.8-.5 7.3-2.8 7.3-2.8 1.6-.4 1.7-2.5 1.7-2.5-.1-.3.7-1.2.9-1.5l.3-.8c.2-.5.1-1-.2-1.3 0 0 3.2-1 3.4-1.5.9-1.1 0-2 0-2z"/></g></g></g></svg>