<svg height="176" viewBox="0 0 245 176" width="245" xmlns="http://www.w3.org/2000/svg"><g fill="none" fill-rule="evenodd"><path d="m132.451157 135.017143c0 .251428-.377892.44-.818766.44-.440874 0-.818766-.188572-.818766-.44v-75.2400001c0-.2514286.377892-.44.818766-.44.440874 0 .818766.1885714.818766.44z" fill="#5a5a5c" fill-rule="nonzero"/><path d="m105.053985 142.308571c-.062982.251429-.440874.377143-.881748.251429-.440875-.125714-.755785-.44-.692803-.691429l13.541132-80.268571c.062982-.2514286.440874-.3771429.881748-.2514286.440874.1257143.755784.44.692802.6914286z" fill="#5a5a5c" fill-rule="nonzero"/><path d="m156.699229 140.862857c.062982.251429.440874.377143.881748.251429.440874-.125715.755784-.44.692802-.691429l-13.541131-80.2685713c-.062982-.2514286-.440874-.3771428-.881748-.2514286-.440874.1257143-.755784.44-.692802.6914286z" fill="#5a5a5c" fill-rule="nonzero"/><path d="m131.380463.44h5.164524v49.091429h-5.164524z" fill="#5a5a5c" fill-rule="nonzero"/><path d="m98.31491 5.782857h67.768638v71.342857h-67.768638z" fill="#929497" fill-rule="nonzero"/><path d="m103.857326 8.422857h56.746787v62.92h-56.746787z" fill="#fff" fill-rule="nonzero"/><path d="m96.551414 73.668571h71.484576v4.211429h-71.484576z" fill="#5a5a5c" fill-rule="nonzero"/><path d="m129.050129 5.342857h9.951157v4.274286h-9.951157z" fill="#5a5a5c" fill-rule="nonzero"/><g fill-rule="nonzero" transform="translate(114.627249 17.6)"><path d="m25.1928021 27.72c-.1889461.88-.5038561 1.76-.7557841 2.7028571-1.9524422 5.72-5.2275064 9.9942858-9.6992288 12.6971429-4.4717224-2.7028571-7.74678663-6.9771429-9.69922879-12.6971429-1.70051414-4.9657142-1.76349614-9.1771428-1.76349614-9.24v-4.6514285l2.26735218.88 4.72365035 5.2171428 4.7236504-3.8342857 2.0154242 2.9542857-.7557841 6.3485715 7.2429306-1.0057143z" fill="#cee9fb"/><path d="m28.2789203 28.8514286c-1.5115681 5.9085714-5.1015424 13.7657143-13.5411311 17.9771428-14.67480719-7.3542857-14.67480719-25.6457143-14.67480719-25.6457143v-5.9085714l3.27506426 1.2571429v4.6514285s.06298201 4.2742858 1.76349615 9.24c1.95244216 5.72 5.22750638 9.9942858 9.69922878 12.6971429 4.4717224-2.7028571 7.7467866-6.9771429 9.6992288-12.6971429.31491-.9428571.566838-1.8228571.7557841-2.7028571z" fill="#92d2f4"/><path d="m34.3881748 3.70857143v10.99999997s0 3.3314286-1.1336761 7.7314286l-3.0861182-1.1942857c.94473-3.7085714.94473-6.5371429.94473-6.5371429v-9.30285711c-1.8264781-.94285715-5.5424164-2.13714286-11.4627249-2.13714286-5.8573265 0-9.5732648 1.13142857-11.39974293 2.13714286v4.65142861l-3.27506426-1.2571429v-5.09142857s3.65295629-3.64571429 14.67480719-3.64571429 14.7377892 3.64571429 14.7377892 3.64571429z" fill="#92d2f4"/><path d="m31.1760925 5.40571429v9.30285711c0 .0628572 0 2.8285715-.94473 6.5371429l-1.7634962-.6285714-7.2429306 1.0057142.7557841-6.3485714-2.0154242-2.9542857-4.7236504 3.8342857-4.7236503-5.2171428-2.26735223-.88v-4.65142861c1.82647813-.94285715 5.54241643-2.13714286 11.39974293-2.13714286 5.9203085.06285714 9.6362468 1.19428571 11.5257069 2.13714286z" fill="#cee9fb"/></g><ellipse cx="112.027592" cy="20.543877" fill="#d52e1e" fill-rule="nonzero" rx="4.026482" ry="4.027139" transform="matrix(.67740742 -.73560804 .73560804 .67740742 21.027029 89.0357)"/><path d="m110.911311 19.0457143c.440874-.1257143.818766-.1885714 1.196658-.1885714h.440874v3.3942857h-.755784v-2.64c-.31491 0-.566838 0-.881748.0628571z" fill="#fff" fill-rule="nonzero"/><ellipse cx="144.989766" cy="16.126893" fill="#d52e1e" fill-rule="nonzero" rx="4.026482" ry="4.027139" transform="matrix(.67740742 -.73560804 .73560804 .67740742 34.909551 111.858054)"/><path d="m143.787918 14.52c.377892-.0628571.692802-.1257143 1.070694-.1257143.881748 0 1.322622.44 1.322622 1.0685714 0 .5028572-.31491.8171429-.881748 1.0685715l-.440874.1885714c-.188946.0628571-.377892.1885714-.566838.3771429h2.015424v.6914285h-2.708226l-.125964-.5657143c.062982-.3771428.377892-.6914285.881748-.9428571l.503856-.2514286c.377892-.1885714.503856-.3142857.503856-.5028571 0-.2514286-.251928-.3771429-.62982-.3771429-.31491 0-.62982 0-.94473.1257143z" fill="#fff" fill-rule="nonzero"/><ellipse cx="153.269052" cy="40.917423" fill="#d52e1e" fill-rule="nonzero" rx="4.026482" ry="4.027139" transform="matrix(.67740742 -.73560804 .73560804 .67740742 19.344274 125.945605)"/><path d="m152.227506 38.7828571h2.456299l.125964.6285715c-.251928.5028571-.503856.88-.94473 1.1942857.62982.1257143 1.007712.5657143 1.007712 1.1942857 0 .88-.818766 1.5085714-2.141389 1.5085714h-.566838v-.6285714h.566838c.881749 0 1.322623-.3142857 1.322623-.8171429 0-.3771428-.251928-.6285714-.755784-.7542857-.251929.1257143-.503857.1885715-.755785.2514286l-.125964-.6285714c.818767-.1885715 1.385605-.6285715 1.700515-1.2571429h-1.826479z" fill="#fff" fill-rule="nonzero"/><ellipse cx="143.327507" cy="63.431406" fill="#d52e1e" fill-rule="nonzero" rx="4.026482" ry="4.027139" transform="matrix(.67740742 -.73560804 .73560804 .67740742 -.424262 125.895368)"/><path d="m144.16581 64.0514286h.503856v.6285714h-.503856v1.1314286h-.755784v-1.1314286h-1.763496l-.188946-.5028571c.188946-1.2571429.881748-2.3257143 1.952442-2.8914286h.755784zm-.692802 0v-2.0114286c-.692802.44-1.133676 1.1314286-1.25964 2.0114286z" fill="#fff" fill-rule="nonzero"/><ellipse cx="113.868593" cy="59.553057" fill="#d52e1e" fill-rule="nonzero" rx="4.026482" ry="4.027139" transform="matrix(.67740742 -.73560804 .73560804 .67740742 -7.074544 102.974028)"/><path d="m115.257069 58.08h-1.763496v.9428571h.440874c.94473 0 1.511568.5657143 1.448586 1.32 0 1.0057143-.881748 1.6342858-2.141388 1.6342858h-.566838v-.6285715h.566838c.755784 0 1.322622-.3142857 1.322622-.88 0-.44-.31491-.7542857-1.007712-.7542857-.251928 0-.566838 0-.818766.0628572v-2.3257143h2.393316z" fill="#fff" fill-rule="nonzero"/><g stroke="#d52e1e" transform="translate(113.997429 21.371429)"><path d="m.37789203.25142857.88174807.37714286"/><path d="m2.3933162 1.13142857 7.9357326 3.45714286" stroke-dasharray="2.9567 1.9711"/><path d="m10.8958869 4.84.8817481.37714286"/></g><g stroke="#d52e1e" transform="translate(135.411311 18.228571)"><path d="m7.3059126.25142857-.69280206.62857143"/><path d="m5.60539846 1.82285714-4.40874036 4.14857143" stroke-dasharray="3.2204 2.147"/><path d="m.69280206 6.47428571-.69280206.62857143"/></g><ellipse cx="125.775064" cy="26.588571" fill="#d52e1e" fill-rule="nonzero" rx="1.57455" ry="1.571429"/><g stroke="#d52e1e" transform="translate(115.886889 44)"><path d="m.12596401 14.6457143.75578406-.6285714"/><path d="m1.82647815 13.2628571 13.54113115-11.69142853" stroke-dasharray="2.944 1.9627"/><path d="m15.8714653 1.19428571.6928021-.62857142"/></g><ellipse cx="132.451157" cy="44.565714" fill="#d52e1e" fill-rule="nonzero" rx="1.57455" ry="1.571429"/><ellipse cx="135.537275" cy="25.771429" fill="#d52e1e" fill-rule="nonzero" rx="1.57455" ry="1.571429"/><g stroke="#d52e1e" transform="translate(142.339332 36.457143)"><path d="m9.8251928 4.58857143-.81876606-.44"/><path d="m7.74678663 3.58285714-5.73136247-2.64" stroke-dasharray="3.3404 2.2269"/><path d="m1.38560411.62857143-.88174807-.37714286"/></g><ellipse cx="142.843188" cy="36.708571" fill="#d52e1e" fill-rule="nonzero" rx="1.57455" ry="1.571429"/><g stroke="#d52e1e" transform="translate(132.892031 54.057143)"><path d="m7.99871465 6.97714286-.69280205-.62857143"/><path d="m6.23521851 5.46857143-4.72365039-4.08571429" stroke-dasharray="3.3246 2.2164"/><path d="m.94473008.88-.69280206-.62857143"/></g><g fill-rule="nonzero"><ellipse cx="133.143959" cy="54.308571" fill="#d52e1e" rx="1.57455" ry="1.571429"/><g transform="translate(55.424165 7.542857)"><path d="m16.8791774 136.211429 1.2596401-2.514286 7.9987146-.251429-.818766 1.822857c1.5115681.691429 3.4010282 1.445715 5.7313624 2.011429 1.7005142.44 3.2750643.628571 4.6606684.754286.062982 0 1.5745501.502857 1.3226221 1.382857-.440874 1.634286-11.6516709.942857-12.029563.817143h-.062982c-.881748-.188572-1.7005141-.44-2.4562982-.691429l-.377892.502857-4.9755784-.314285c-.062982 0-.125964-.062858-.251928-.062858-.6298201-.188571 0-3.457142 0-3.457142z" fill="#000"/><path d="m1.07069409 140.925714 1.2596401-2.514285 7.99871461-.188572-.81876602 1.822857c1.07069412.754286 2.51928022 1.634286 4.47172232 2.325715 2.1413882.754285 4.0308484 1.068571 5.4164525 1.194285.755784.125715.8817481.817143 1.2596401 1.32.31491.44-.062982 1.005715-.6298201 1.005715l-9.6992288-.565715c-.37789199-.062857-.75578402-.188571-1.19665805-.251428h-.06298201c-.88174807-.188572-1.70051414-.44-2.4562982-.691429l-.37789203.502857-4.97557841-.314285c-.062982 0-.12596401-.062858-.25192802-.062858-.56683804-.314285.06298201-3.582857.06298201-3.582857z" fill="#000"/><path d="m24.18509 70.5885714 6.9280205 32.5599996s-5.1645244 19.171429-3.5269922 32.434286c-9.1953728 1.194286-10.8958869-1.885714-10.8958869-1.885714s0-23.508572.818766-28.788572c-4.4087403-16.7199996-13.7930591-33.0628567-13.7930591-33.0628567z" fill="#00233e"/><path d="m25.1928021 74.5485714-2.4562982 33.5657146s-8.3136247 19.862857-10.2030849 32.874285c-10.64395885-1.697142-11.2737789-1.697142-11.2737789-1.697142s6.61311054-26.274286 8.31362468-31.302858c-1.38560411-17.2228567-6.61311054-33.7542853-6.61311054-33.7542853z" fill="#003051"/><path d="m20.5951157 3.64571429s2.7712082 3.20571428 3.5269923 5.90857142c0 0 .251928.69142859 0 1.13142859-.2519281.44-.2519281.6914286.251928 1.3828571.440874.6914286 1.3856041 1.5714286.9447301 2.2628572-.4408741.6914285-1.3856041.9428571-1.3856041.9428571s.94473 1.5714286 0 2.0742857c0 0 .692802.44 0 1.3828572-.6928021.6914285.692802 2.5142857-2.0154242 3.4571428-2.9601543.6914286-3.6529563 1.6342857-4.0938303 2.3257143-.2519281.6914286-.2519281.6914286-.2519281.6914286l-9.88817477-3.1428572s.69280205-1.3828571.62982005-3.4571428c0-2.0742857 0-2.0742857 0-2.0742857s4.97557842-12.1314286 12.28149102-12.88571431z" fill="#f6b086"/><path d="m22.2326478 34.3828571s.4408741-1.1314285-.251928-2.9542857c-.6928021-1.8228571-1.1336761-1.1314285-1.6375321-3.4571428-.2519281-2.5142857 0-3.4571429 0-3.4571429l-5.2904885-1.8228571-10.76992285 6.7257143s-.37789203 9.4285714.81876607 13.7657142c1.19665809 4.1485715 4.66066838 8.4857143 4.66066838 8.4857143z" fill="#003d64"/><path d="m20.3431877 24.5142857s-.062982-.0628571 0 .8171429c-.2519281.9428571 0 1.9485714 0 2.4514285 0 .44-.6298201 1.1942858-.6298201 1.1942858s-5.5424164-2.1371429-7.8097686-2.7657143c-2.33033422-.88-5.29048846-2.9542857-5.29048846-2.9542857s0-1.3828572.18894602-2.0742858c0-.2514285.44087403-.44.69280205-.44 4.28277639.88 8.69151669 2.0114286 12.84832909 3.7714286z" fill="#92d2f4"/><path d="m20.1542416 30.7371429s-4.1568123-1.5714286-7.3688946-1.32c-3.21208222.2514285-7.11696654 3.96-7.49485857 8.8-.44087403 4.84 2.58226221 9.6171428 11.14781487 11.8171428 8.3136247 2.2 9.2583548 4.0857143 9.2583548 4.0857143l1.7634961 24.3885714-27.27120818-2.5771428s3.21208226-5.9714286.50385604-42.9314286c-.37789203-5.4685714 5.66838046-9.9314286 5.66838046-9.9314286s3.90488428 1.32 6.92802058 2.2628572c2.8971722.8171428 6.1722365 4.2742857 6.8650385 5.4057143z" fill="#003d64"/><path d="m21.1619537 15.3371429-1.6375321.5028571s.188946-1.6342857-.9447301-2.5142857-2.9601542 1.1942857-4.0938303 3.4571428c-1.1336761 2.3257143-5.98329051 1.8857143-5.98329051 1.8857143s0-1.6342857-1.19665809-3.4571428c-1.1966581-1.8228572-2.83419023-8.92571431 2.64524421-12.88571431 5.47943449-3.96 11.52570699-.56571429 11.52570699-.56571429s1.1966581 2.07428571-.1889461 2.76571429c-1.3856041.69142857-1.6375321.25142857-1.3856041 1.38285714.251928.94285714 1.1336761 1.38285714 1.3856041 2.26285714 0 .25142857 0 .69142857-.251928.94285714-.125964.69142858-.566838 2.07428569.125964 6.22285719z" fill="#2b1110"/><g fill="#f7b282" transform="translate(13.856041 30.171429)"><path d="m17.6349614 16.7828571-9.76221076-9.05142853c-.37789203 2.76571433-5.29048843 6.53714283-7.30591259 7.10285713 0 0 11.46272495 7.2285714 16.06041135 9.5542857.881748.44 2.0784061-.3142857 2.8971722-.88l13.8560411-10.7485714-2.0784061-3.77142857z"/><path d="m39.6156812.62857143-5.3534704 4.21142857c-.440874.31428571-1.0706941.31428571-1.4485861-.06285714-.251928-.25142857-.3778921-.62857143-.3778921-1.00571429l.1889461-1.63428571c-.062982-1.19428572-.5668381-1.88571429-1.4485862-1.76l-1.2596401 5.09142857 1.1966581 5.46857147.8187661 2.8285714 3.1491003-1.9485714c2.1413881-1.3828572 3.5899743-3.77142861 3.5899743-3.77142861.881748-.69142858.31491-1.94857143.31491-1.94857143-.188946-.12571429.125964-.94285715.062982-1.13142857l-.062982-.56571429c0-.31428571-.251928-.62857143-.5038561-.75428571 0 0 1.6375322-1.50857143 1.6375322-1.82285715.251928-.94285714-.5038561-1.19428571-.5038561-1.19428571z"/></g><path d="m28.5308483 43.3085714c-.440874-.44-1.8264781-1.8228571-2.3303342-2.9542857-.440874-1.1314286-.503856-2.5142857-1.3856041-3.4571428-.9447301-.88-2.5822622-7.5428572-7.1799486-5.4685715-4.3457583 2.0742857-6.8650385 7.1657143-6.5501285 10.6228572.251928 3.6457143-.188946 5.28 1.4485861 6.6628571 1.6375322 1.3828572 7.3688946 4.5257143 10.8329049 5.4057143s1.8894602 0 2.8341902.44c.9447301.2514286 3.4640103.44 4.5976864-.2514286 1.1336761-.9428571 1.8264782-3.2057143 1.1336761-5.5314285-.062982 0-.7557841-3.96-3.4010283-5.4685715z" fill="#003d64"/></g><g transform="translate(210.359897 9.428571)"><path d="m13.6670951 124.017143c.188946 1.382857.8187661 2.262857 1.1966581 2.954286.5038561.817142.440874 2.262857.062982 2.64-1.0706941 1.131428-2.3933162.817142-3.6529563 1.76-1.32262209.942857-3.14910024 4.085714-4.28277633 4.462857s-3.7159383.377143-3.96786632-.125715c-.18894602-.565714 2.39331619-2.702857 2.39331619-2.702857 3.77892031-5.28 4.09383034-7.731428 4.09383034-7.731428s4.09383032-1.445715 4.15681232-1.257143z" fill="#fac39d"/><path d="m5.47943445 133.005714s-.75578406.691429-.62982005.88c.18894601.251429 1.38560411.062857 1.70051413-.062857 2.70822623-1.571428 6.17223647-4.84 6.92802057-5.845714s.7557841-2.137143.7557841-2.137143c.251928 0 1.3226221 1.508571 1.1336761 2.702857-.0629821.251429-.3149101.942857-.4408741 1.068572-.566838.628571-2.6452442 1.822857-3.2120822 2.2-1.3226222.942857-2.96015429 4.085714-4.09383038 4.462857s-4.9755784.565714-5.22750642 0c-.12596401-.44 1.88946015-2.325715 3.08611825-3.268572z" fill="#1a1a1a"/><path d="m15.3676093 128.354286s-.6928021 2.2-.8817481 2.954285c-.31491 1.131429-.377892 3.52-.377892 3.52h-.5038561s.377892-4.525714-1.8894601-3.017142c-.6928021.44 3.6529563-3.457143 3.6529563-3.457143z" fill="#1a1a1a"/><path d="m13.5411311 91.7085714c3.0861183 3.0171429 3.7789203 10.8742856 3.5899743 13.9542856-.188946 3.017143-3.7789203 18.92-3.5899743 19.988572.188946 1.068571-4.03084832.251428-4.03084832-.377143.31491002-6.097143-1.38560412-22.251429-1.63753214-23.822857-.25192802-1.571429-1.07069408-8.8628576-1.13367609-9.6171433.06298201-3.7085714 5.03856045-1.8857143 6.80205655-.1257143z" fill="#fac39d"/><path d="m32.6246787 130.177143s1.5745501 3.834286 1.5745501 4.84-.503856 3.457143-1.3226221 3.582857-2.7712082-1.697143-2.9601543-2.011429c-1.3856041-1.697142-1.4485861-5.154285-1.4485861-5.154285z" fill="#313131"/><path d="m31.8059126 127.977143s1.2596401 2.891428 1.5115681 5.217143c.062982.502857-.31491 2.702857-1.0706941 2.702857-2.1413881.062857-3.8419023-3.582857-3.7789203-4.902857.062982-1.257143.125964-2.64.125964-2.64z" fill="#efb690"/><path d="m23.933162 91.2685714c-2.7712083.5657143-3.4640103 2.4514286-2.1413882 10.6228576 1.0077121 6.16 4.9125964 20.114285 6.7390745 26.525714.5668381 2.011428.3778921 3.394286.5668381 3.394286.818766 0 3.1491002-.062858 3.4010283-1.885715.062982-.377143-.8187661-1.76-.8817481-2.828571 0-6.348572-.062982-22.44-.4408741-24.702857-.440874-2.6400003-2.8341902-12.0057146-7.2429305-11.1257146z" fill="#efb690"/><path d="m5.54241645 22.0628571c-1.82647815-.1257142-3.6529563 5.4685715-4.03084833 11.5657143-.62982005 10.6228572-3.27506426 12.9485715.50385604 13.9542857 4.72365039 1.1942858 3.71593831-3.2057142 5.47943445-12.1314285 1.38560411-7.04 1.88946016-13.0742857-1.95244216-13.3885715z" fill="#d0d0d0"/><path d="m3.7159383 61.9771429c-1.2596401 2.3257142-1.2596401 6.6-.56683804 12.0685714.88174807 7.48 3.33804627 19.4228571 3.6529563 20.4914286 1.38560411 4.84 6.17223654 4.6514285 6.92802054.8171428.188946-1.0685714 1.8264782-22.6285714 1.5745501-25.0171428-.251928-2.3885715-1.5745501-6.7885715-3.3380462-9.4285715-1.2596401-2.0114285-6.29820054-2.4514285-8.2506427 1.0685715z" fill="#fac39d"/><path d="m25.6966581 62.1657143c1.7005141 2.0742857 2.5192802 6.2228571 2.9601542 11.7542857.6298201 7.5428571.3149101 18.8571429.2519281 19.9257143-.3778921 5.0285714-6.0462725 5.9085714-7.5578407 2.2628571-.377892-1.0057143-5.4794344-21.7485714-5.6683804-24.2-.188946-2.4514285-.8187661-6.7885714.377892-9.7428571.8187661-2.1371429 7.0539846-3.08 9.6362468 0z" fill="#efb690"/><path d="m4.47172237 58.52c-.88174808 2.2628571-1.51156813 4.4-1.25964011 5.5314286.88174807 3.3942857 10.95886894 6.2857143 10.95886894 6.2857143h.692802v-11.0628572c-3.8419023 0-6.48714652-.7542857-10.39203083-.7542857z" fill="#28557d"/><path d="m27.3971722 24.7657143c-.692802-1.5714286-4.2827763-2.2628572-5.8573264-2.7028572-1.6375322-.5028571-6.6131106-.6914285-6.6131106-.6914285s-7.80976862.7542857-9.51028276.6914285c-.69280205 0-1.2596401 2.5142858-1.51156812 3.2685715-1.57455013 4.0857143-3.40102828 8.9257143.50385604 12.2571428.88174807.7542857 1.63753213 9.4285715 1.63753213 13.4514286 0 1.6971429-.31491002 4.3371429-1.57455012 7.48 3.90488431 0 6.55012853.7542857 10.39203083.7542857h11.651671c-1.1966581-3.1428571-2.5192802-6.6-2.8341903-8.2342857-2.1413881-12.3828571 4.7866324-23.9485714 3.7159383-26.2742857z" fill="#da9b00"/><path d="m14.9267352 59.2742857v11.0628572h.6928021s11.3367609-2.1371429 12.218509-5.5314286c.31491-1.1942857-.3778921-3.2685714-1.2596401-5.5314286-3.9048843 0-7.7467867 0-11.651671 0z" fill="#28557d"/><path d="m18.2017995 38.6571429c-1.0077121-.5028572-3.2750643-.2514286-8.62853472-.5657143-5.35347044-.2514286-6.1092545-2.9542857-6.86503856-4.1485715-.75578406-1.1314285-.062982-4.9657142 0-5.1542857-.94473008 3.1428572-1.13367609 6.3485715 1.70051414 8.8.88174807.7542857 1.63753213 9.4285715 1.63753213 13.4514286 0 1.6971429-.31491002 4.3371429-1.57455012 7.48 2.4562982 0 4.40874035.3142857 6.55012853.5657143 0 0-.6928021-2.8914286-.6928021-4.4 0-5.7828572 11.525707-1.76 12.7853471-4.2742857s-4.5347044-8.5485715-3.9048843-9.3657143c.62982-.88.062982-1.8857143-1.0077121-2.3885714z" fill="#c08a00"/><path d="m4.47172237 58.52s-1.70051414 2.8285714-2.07840617 8.0457143c-.31491003 5.1542857 3.33804627 28.9771428 3.33804627 28.9771428l10.32904883.5657143 13.6670951-1.0685714s-.31491-21.7485714-.9447301-28.2857143c-.62982-6.4742857-2.4562982-8.1085714-2.4562982-8.1085714l-12.407455.5028571z" fill="#da9b00"/><path d="m13.4151671 80.5828571c-.7557841.8171429-.377892 7.3542858-1.5115681 8.6114286-1.1966581 1.32-2.96015427 1.1314286-3.96786635-1.1314286-1.00771208-2.2628571-3.6529563-18.4171428-1.51156813-24.0742857 1.51156813-3.96 4.59768638-4.9028571 4.59768638-4.9028571l-.377892-.1257143-6.10925453-.44s-1.70051414 2.8285714-2.07840617 8.0457143c-.31491003 5.1542857 3.33804627 28.9771428 3.33804627 28.9771428l10.32904883.5657143 2.2043702-.1257143s-2.4562982-.5028571-2.8341902-2.7657142c-.7557841-4.4628572-1.4485862-13.3885715-2.0784062-12.6342858z" fill="#c08a00"/><path d="m6.67609254 22.0628571s-4.09383033 8.9257143 4.34575836 8.9257143c0 0 7.0539846.88 9.8881748-6.6628571 0 0 .5668381-1.32 3.4640103-1.5085714 0 0-6.9910026-3.0171429-17.69794346-.7542858z" fill="#e7e7e7"/><path d="m16.1863753 3.64571429s2.3303342-3.26857143 4.8496144-1.32c2.5192802 1.94857142 2.3303342 6.16 1.1336761 7.48-1.2596401 1.32000001-3.3380463 7.10285711-2.8971722 7.22857141.377892.0628572-.125964 1.0685714-1.0706941.88s-3.4640103-1.2571428-2.5822622-4.1485714c.9447301-2.8914286.188946-5.15428573.188946-5.15428573z" fill="#202c2b"/><path d="m18.4537275 19.1714286c-.503856-1.32-.440874-6.2228572-.440874-6.2228572h-3.1491003-3.1491002s.062982 4.9028572-.4408741 6.2228572c-.503856 1.32-2.45629818 2.8914285-2.45629818 2.8914285s-.81876607 3.4571429 4.59768638 3.4571429c5.4164524 0 6.6131105-3.7714286 6.6131105-3.7714286s-1.0706941-1.2571428-1.5745501-2.5771428z" fill="#fac39d"/><path d="m18.0758355 15.4c-.062982-1.32-.062982-2.4514286-.062982-2.4514286h-3.1491003-3.1491002s.062982 4.9028572-.4408741 6.2228572c-.503856 1.32-3.02313623 3.2057143-3.02313623 3.2057143z" fill="#efb690"/><path d="m20.4061697 11c-1.4485862 4.6514286-6.6131106 7.2285714-9.0064268 6.5371429-2.33033416-.6914286-4.34575832-5.4685715-3.33804624-10.37142861 1.00771208-4.77714286 4.72365034-6.97714286 8.25064264-5.90857143 3.5899743 1.13142857 5.5424165 5.09142857 4.0938304 9.74285714z" fill="#fac39d"/><path d="m12.281491 4.14857143c.31491 1.38285714 1.5745501 2.38857143 4.4717224 3.01714286 2.0784061.44 3.0231362 3.52000001 2.8341902 4.65142861-.062982.44-.8817481 2.4514285-.8817481 2.4514285s5.1015424-3.7085714 1.8264782-9.74285711c-3.2750643-6.09714286-8.6285347-3.64571429-8.6915167-3.20571429-.125964.50285714.251928 2.13714286.440874 2.82857143z" fill="#202c2b"/><path d="m13.6041131 3.20571429s-.251928 2.01142857-2.0154242 2.2c-1.7634961.18857142-3.58997425 1.38285714-3.58997425 1.38285714s.31491003-4.77714286 3.84190235-5.34285714c3.4640102-.62857143 1.7634961 1.76 1.7634961 1.76z" fill="#202c2b"/><path d="m26.0745501 23.5714286c2.0784062.2514285 2.9601543 6.0342857 2.0784062 12.0685714-1.5115681 10.3714286-.251928 14.0171429-3.9678663 13.8914286-3.4010283-.1257143-3.0231363-4.4-3.0861183-13.4514286-.062982-7.1028571.6298201-13.0114286 4.9755784-12.5085714z" fill="#e7e7e7"/><g fill="#465557" transform="translate(2.51928 28.285714)"><path d="m.69753243.44120851 15.61984637.00048018.0006408 20.80614581-15.61984629-.0004802z" transform="matrix(.99987974 -.01550832 .01550832 .99987974 -.167157 .133246)"/><path d="m3.02313625.62857143s.94473007 7.16571428 3.65295629 10.49714287c2.70822623 3.2685714 9.63624676 4.3371428 9.63624676 4.3371428l.125964 5.72-15.61953723.2514286-.31491003-20.80571427z"/></g><path d="m4.09383033 59.2114286s6.10925447 3.2057143 22.23264777-.5657143l-.440874-1.0685714s-12.470437 3.7714285-21.28791772 1.0057142c-.06298201 0-.12596401-.0628571-.18894602-.0628571z" fill="#2f2722"/><g fill="#f8bc96"><path d="m.06298201 46.8285714c.18894601 1.6971429 2.89717223 2.8914286 8.06169665 2.2628572 5.92030844-.7542857 14.48586114-1.6971429 14.23393314-3.2057143-.31491-2.0742857-7.7467866-1.8228572-13.7930591-2.5142857-6.04627249-.6914286-8.88046273-.0628572-8.50257069 3.4571428z"/><path d="m26.8303342 47.6457143c.440874-1.5714286-2.7082262-4.3371429-7.4948586-5.6571429-5.5424165-1.5085714-13.41516712-3.7714285-13.73007714-2.3257143-.44087404 1.9485715 6.23521854 4.4628572 11.27377894 7.2914286 5.1645244 2.8914286 9.0694087 4.0228572 9.9511568.6914286z"/><g transform="translate(1.25964 36.457143)"><path d="m.56683805 3.39428571c.062982-.25142857.31491002-.44.56683804-.31428571l2.01542417.56571429c.25192802.06285714.44087403.31428571.31491002.62857142-.062982.25142858-.31491002.44-.56683804.31428572l-2.01542417-.56571429c-.18894601-.06285714-.37789203-.37714285-.31491002-.62857143z"/><path d="m.75578406 2.51428571c.06298201-.25142857.31491003-.44.56683805-.31428571l2.01542416.56571429c.25192802.06285714.44087404.31428571.31491003.62857142-.06298201.25142858-.31491003.44-.56683805.31428572l-2.01542416-.56571429c-.25192802-.12571428-.37789203-.37714285-.31491003-.62857143z"/><path d="m.94473008 1.63428571c.062982-.25142857.31491002-.44.62982005-.31428571l2.01542416.56571429c.25192802.06285714.44087404.31428571.31491003.62857142-.06298201.25142858-.31491003.44-.56683805.31428572l-2.01542416-.56571429c-.25192802-.12571428-.44087404-.37714285-.37789203-.62857143z"/><path d="m1.2596401.81714286c.06298201-.25142857.31491003-.44.56683805-.31428572l2.01542416.56571429c.25192802.06285714.44087404.31428571.31491003.62857143-.06298201.25142857-.31491003.44-.56683805.31428571l-2.01542416-.56571428c-.25192802-.12571429-.37789203-.37714286-.31491003-.62857143z"/><path d="m7.93573265 3.01714286s-2.4562982-1.88571429-3.08611825-2.13714286c-.62982006-.25142857-3.27506427-.44-3.27506427-.44s.56683804 1.06857143.31491002 1.63428571c-.25192802.56571429-1.00771208 1.94857143-1.00771208 1.94857143s1.88946016.88 2.89717224 1.13142857c1.57455013.44 2.5192802.44 2.5192802.44z"/></g></g></g><g transform="translate(170.681234 22)"><path d="m36.718509 26.9657143c1.7634961-.9428572 4.5976864.3771428 5.9832905 4.7142857s4.6606684 15.7142857 5.1015424 17.6 2.2043702 5.7828571-1.4485861 7.48c-3.5899743 1.6342857-5.1645244-2.1371429-6.4871465-5.0914286-5.7313625-13.0114285-7.8727507-22.1885714-3.1491003-24.7028571z" fill="#815245"/><path d="m48.0552699 52.4228571c-.692802-1.76-2.2043702-2.9542857-7.3059126-1.6971428-5.1645244 1.2571428-15.8084833 5.1542857-15.8084833 5.1542857l.3778921 2.8914286s10.8958869.3771428 13.7300771-.1885715c2.7712082-.5028571 10.7699229-1.5085714 9.0064267-6.16z" fill="#815245"/><path d="m33.5694087 147.022857s3.1491003-1.194286 4.7866324-1.131428c1.1336761.062857 2.5822622 1.005714 2.6452442 1.948571 0 .377143-.440874.817143-.818766 1.32-.3778921.44-5.2275064 3.834286-6.2982005 3.96-1.8264782.188571-3.7159383.188571-4.7236504-.188571-1.0077121-.377143-1.0077121-3.834286-1.0077121-3.834286z" fill="#55210e"/><path d="m13.1002571 49.6571429c-2.2043702-6.7257143-7.87275067-18.2285715-4.5347044-20.24 4.3457584-2.64 16.7532134-4.2114286 16.7532134-4.2114286v.1885714s10.6439588 1.3828572 14.9897172 3.96c3.3380463 2.0114286-.5038561 13.7657143-2.7082262 20.4914286-.5038561 1.6342857-.4408741 8.8628571-.2519281 15.2742857.0629821 1.5714286 1.3226222 8.8628571 1.1336761 11.88-.062982.88-10.2030848 6.4742857-13.100257 6.6v-.1885714c-2.8341903-.1257143-13.0372751-5.6571429-13.1002571-6.6-.251928-3.0171429 1.0706941-10.2457143 1.1336761-11.88.188946-6.4114286.251928-13.64-.31491-15.2742857z" fill="#f8bc96"/><path d="m20.1542416 23.2571429c.3149101-1.2571429 1.0077121-7.6057143 1.0077121-7.6057143h4.2197944v.1885714h4.2197943s.6928021 6.3485714 1.0077121 7.6057143c.31491 1.2571428 3.7159383 3.2057143 3.7159383 3.2057143h-8.9434447v-.1885715h-8.9434448c-.062982 0 3.4010283-1.9485714 3.7159383-3.2057142z" fill="#744135"/><g fill="#f8bc96"><path d="m32.0578406 69.96c5.1015424 0 7.1169666 3.52 6.9910026 14.52-.125964 10.9371429-1.7634962 22.817143-2.4562982 24.514286-.6928021 1.697143-7.9987147 1.76-8.6915167.754285-.6928021-1.005714-2.5192802-23.6971424-2.5192802-27.2799996 0-3.5828571 1.0706941-12.5085714 6.6760925-12.5085714z"/><path d="m29.2236504 117.794286 6.2352185-.125715c.6928021 0 1.2596401-.565714 1.1966581-1.257142l-.251928-9.428572c0-.691428-.5668381-1.257143-1.2596401-1.194286l-6.2352185.125715c-.6928021 0-1.2596401.565714-1.1966581 1.257143l.251928 9.428571c0 .628571.566838 1.194286 1.2596401 1.194286z"/><path d="m32.4357326 111.005714c1.5745502 0 5.4164525.502857 5.2275065 10.748572-.188946 10.182857-4.5347044 24.2-4.5347044 24.2h-3.7159383s-1.8264781-18.92-1.8264781-22.502857c-.0629821-8.297143-.1259641-12.445715 4.8496143-12.445715z"/><path d="m18.5167095 70.0228571c-5.1015424-.5657142-7.4318766 2.7657143-8.5025707 13.7028572-1.00771206 10.8742857-.62982003 22.8799997-.12596399 24.6399997.50385599 1.76 7.74678659 2.577143 8.56555269 1.634286s4.9755784-23.32 5.3534704-26.84c.4408741-3.52.2519281-12.5714286-5.2904884-13.1371429z"/><path d="m16.3123393 117.857143-6.1722365-.817143c-.69280203-.062857-1.19665807-.691429-1.07069406-1.382857l1.19665806-9.365714c.062982-.691429.6928021-1.194286 1.3856042-1.068572l6.1722365.817143c.692802.062857 1.1966581.691429 1.070694 1.382857l-1.1966581 9.365714c-.062982.691429-.692802 1.194286-1.3856041 1.068572z"/><path d="m13.8560411 110.817143c-1.5745501-.188572-5.41645241-.062857-6.29820048 10.12-.88174808 10.182857 1.95244216 24.514286 1.95244216 24.514286l3.65295632.377142s3.7789203-18.605714 4.1568123-22.188571c.9447301-8.171429 1.4485861-12.32-3.4640103-12.822857z"/></g><path d="m37.6002571 67.76s1.8264781 8.9885714 2.1413881 13.8914286c.3149101 4.9028571-2.0784061 26.3371424-2.1413881 28.7257144 0 2.388571.125964 9.617143 0 16.72s-1.9524422 21.12-1.9524422 21.12l-9.1323907-.251429s0-30.045714 0-34.76c0-4.714285-1.1336761-29.605714-1.1336761-29.605714v-15.4628571z" fill="#3c3c3b"/><path d="m13.2262211 67.4457143s-2.7712082 8.8-3.58997431 13.64c-.81876607 4.84-.69280206 26.3999997-.94473008 28.7885717-.25192802 2.325714-1.13367609 9.554285-1.76349614 16.594285-.62982006 7.102858-.25192803 21.182858-.25192803 21.182858l9.06940876.754285s3.1491002-29.857143 3.6529563-34.571428c.503856-4.714286 5.9203085-29.4800003 5.9203085-29.4800003l-.062982-16.2171428z" fill="#3c3c3b"/><path d="m35.0179949 148.154286s.188946 3.268571 0 4.211428c-.062982.565715-1.5115682 1.131429-3.9048844 1.257143-1.8264781.125714-3.5269922-.502857-3.9048843-.691428-1.0706941-.44.31491-4.965715.31491-4.965715z" fill="#55210e"/><path d="m9.7622108 146.268571s-3.14910026-1.194285-4.78663239-1.131428c-1.1336761.062857-2.58226221 1.005714-2.64524422 1.948571 0 .377143.44087404.817143.81876607 1.32.37789203.44 5.22750642 3.834286 6.29820051 3.96 1.82647813.188572 3.71593833.188572 4.72365043-.125714 1.007712-.377143 1.007712-3.834286 1.007712-3.834286z" fill="#55210e"/><path d="m14.2969152 85.8628571c-.5038561 3.2057143-1.1336761 24.8285719-1.1966581 26.0228569-.062982 1.194286-3.21208229 34.508572-3.3380463 36.017143l-2.96015424-.251428s-.37789204-14.08.25192802-21.182858c.62982005-7.102857 1.51156812-14.268571 1.76349614-16.594285.25192802-2.325715.12596401-23.8857146.94473008-28.7885717.8187661-4.84 3.5899743-13.64 3.5899743-13.64l12.155527.6914286c.125964 17.4742857-13.6041131 12.8228571-14.0449872 13.8285714-.566838 1.0057143 3.0231363 2.64 2.8341903 3.8971428z" fill="#4a4a49"/><path d="m33.3804627 86.5542857c-.755784 4.0857143-1.8894601 23.8857143-1.7634961 24.4514283.125964.502857 0 36.96 0 36.96l-.188946.125715-4.9125964-.125715s0-30.045714 0-34.76c0-4.714285-.8817481-23.005714-.8817481-23.005714s1.3856041-3.5828571 3.5899743-3.3942857c2.1413882.1257143 4.2827763-1.0057143 4.1568123-.2514286z" fill="#4a4a49"/><path d="m17.6349614 11.2514286c.062982.5657143-.251928 1.1942857-.188946 1.9485714 0 .3142857.3778921.6914286.4408741 1.0057143.251928 2.5771428.818766 5.4685714 2.3303342 5.4057143 2.6452442-.0628572 4.2827763.1885714 6.0462724.1885714 2.7082263 0 6.1722365-3.08 6.8020566-8.5485714.6298201-5.28000003-4.7236504-9.4914286-9.6362468-9.42857146-4.7866324.06285715-5.9832905 3.70857143-5.7943445 8.54857146-.062982.3142857 0 .5657143 0 .88z" fill="#744135"/><path d="m25.9485861.25142857c-3.9678663-.69142857-10.0771208 2.76571429-7.7467866 4.96571429.692802.62857143.8187661 6.72571424.8187661 6.72571424s.818766-.44 1.133676-.0628571c.3149101.3771429.5668381 2.4514286.9447301 3.3942857.3778921.9428572 2.7082262 4.5885714 3.4010283 4.5885714s4.9125964.1885715 5.4794344-.44c.5668381-.5657142 2.3933162-3.96 2.9601543-5.7828571.566838-1.8228571 3.1491002-11.56571429-6.9910026-13.38857143z" fill="#36180e"/><path d="m19.5874036 9.61714286c0-.18857143 1.1336761-.88 1.6375321.56571424.2519281.7542858-.692802 3.8971429-.881748 3.8971429-.3778921 0-.8817481-3.3942857-.7557841-4.46285714z" fill="#744135"/><path d="m16.8791774 25.8342857h17.0051414l-2.3933162-2.7657143h-12.218509z" fill="#e1f2fd"/><path d="m40.1825193 27.5942857s2.7712082 1.6342857 4.1568123 7.1657143c.8817481 3.4571429 3.7789203 14.52 3.7789203 14.52s-2.2673522 2.0742857-5.4794344 2.64c-2.8341903.5028571-3.4640103-.0628571-3.4640103-.0628571l-5.1645244-12.2571429z" fill="#ed6b06"/><path d="m.69280206 49.8457143c.62982005-1.8228572 2.07840617-3.0171429 7.24293059-1.9485714 5.22750645 1.0685714 15.99742935 4.5885714 15.99742935 4.5885714l-.2519281 2.8914286s-10.8958869.8171428-13.73007709.3142857c-2.83419023-.44-10.83290488-1.1314286-9.25835475-5.8457143z" fill="#815245"/><path d="m8.25064267 28.7885714s-2.77120822 1.6342857-4.15681234 7.1657143c-.88174807 3.4571429-3.7789203 14.52-3.7789203 14.52s2.26735218 2.0742857 5.47943444 2.64c2.83419023.5028572 3.46401029-.0628571 3.46401029-.0628571l5.16452444-12.2571429z" fill="#ed6b06"/><path d="m37.7262211 70.2114286-25.1928021-.0628572c-.31491 0-.62982-.2514285-.62982-.6285714l.503856-1.76c0-.3142857.251928-.6285714.6298201-.6285714h24.625964c.31491 0 .62982.2514285.62982.6285714v1.8228571c.062982.3771429-.188946.6285715-.566838.6285715z" fill="#3b1b1d"/><path d="m7.49485861 29.48c.56683805-.9428571 3.58997429-1.6971429 6.42416449-2.5771429 2.4562982-.7542857 4.4717224-1.8228571 4.4717224-1.8228571l13.9190231.0628571s2.4562982 1.0685715 5.0385604 1.3828572c3.1491003.3771428 3.9678664 1.76 4.4087404 2.7657143.503856 1.0057143.6928021 10.0571428-3.4640103 22-.566838 1.6342857.8817481 13.0742857-.503856 16.4685714l-12.281491 1.1314286-12.281491-1.0685715c-1.1336761-3.8971428 0-15.0228571-.5668381-16.6571428-.566838-1.76-6.10925447-20.1142857-5.16452439-21.6857143z" fill="#f08100"/></g><path d="m8.37660668 80.52c.06298201.1885714 5.35347042 2.8914286 5.47943442 3.08.6928021 1.4457143 2.5822622 3.5828571 3.6529563 4.3371429 1.4485861 1.0057142.8817481-.3771429 1.7634962 1.1314285.9447301 1.5085715 1.1966581 1.6971429 1.5115681 1.5714286.377892-.1257143-.251928-1.0685714-.6298201-2.0742857-.377892-.9428572-1.7634961-2.5142857-1.3856041-2.3257143.3778921.1885714 2.3303342 3.52 2.7082263 3.96.377892.44 1.4485861 1.32 1.2596401.6285714-.1889461-.6914285-1.7005142-3.5828571-1.9524422-4.0857143-.251928-.5028571 2.2043702 3.52 2.4562982 3.7714286.31491.3142857.566838-.0628571.251928-.8171428-.188946-.5657143-1.8264781-3.6457143-2.0154241-3.96-.0629821-.1257143.755784.8171428 1.007712 1.2571428.4408741.6914286.6298201.9428572.8817481 1.3828572.440874.7542857 1.1966581 1.0057142.6928021 0-.4408741-.9428572-.5668381-1.6342858-.8187661-1.9485715s-.9447301-1.1942857-1.8264782-1.9485714c-.31491-.2514286-4.1568123-2.8914286-5.1015424-3.5828571-2.7082262-2.1371429-4.4717223-3.2057143-4.9125964-3.52z" fill="#f7b282"/><path d="m12.848329 46.5771429c-1.5745501-.3771429-1.3856041-.6914286-2.7712082 1.0685714-1.38560409 1.76-1.82647813 4.1485714-2.39331617 5.5314286-.50385604 1.3828571-7.99871466 17.9142857-7.43187661 19.8628571.50385604 1.8857143 5.60539846 8.6742857 7.49485861 9.68 3.90488437 2.0742857 4.66066837 0 4.66066837 0l3.8419023-4.84s-7.17994856-7.04-6.29820049-7.3542857c.88174809-.3771429 3.65295629-7.4171429 4.15681239-10.3714286.503856-3.0171428-1.2596402-13.5771428-1.2596402-13.5771428z" fill="#7fc6b1"/><path d="m38.7969152 167.011429c1.1336761-.188572 3.5269923-1.068572 3.9678663.377142.440874 1.382858-.5038561 3.52-1.2596401 4.148572-.7557841.565714-2.7082262-4.525714-2.7082262-4.525714z" fill="#000"/><path d="m37.4742931 158.965714c-.2519281 2.828572 1.070694 4.274286 1.8264781 7.165715.31491 1.005714.7557841 2.451428 1.3226221 3.645714.188946.44.4408741.88.6928021 1.194286.62982.88-3.5899743 1.32-5.4164525-1.948572-.94473-1.634286-4.4717223-5.028571-4.0938303-6.222857.503856-1.508571 1.4485861-3.96 1.1966581-6.725714-.6928021-6.662857 4.7236504.125714 4.4717224 2.891428z" fill="#cc9584"/><g fill="#000" transform="translate(30.861183 160.285714)"><path d="m.12596401 1.63428571c.06298201-1.50857142 2.77120823-2.38857142 5.16452442.69142858 0 0 1.63753214 1.88571428 3.58997429 5.34285714.25192803.50285714.75578407.94285714 1.25964008.56571428 1.5115682.12571429 1.1966581-.37714285 1.1966581.44.062982 1.06857143-.125964 2.07428569-.755784 2.45142859-.69280209.5028571-1.9524422 1.3828571-4.21979438.7542857-.62982005-.1885714-.18894602-.3142857-1.57455013-2.95428571-.56683805-1.13142858-3.33804627-2.45142858-4.21979434-3.52-.81876607-1.00571429-.50385604-1.88571429-.44087404-3.77142858z"/><path d="m.75578406 4.90285714c.50385604 1.13142857 1.70051414 3.20571429 1.57455013 7.47999996.50385604.0628572.94473008 0 .94473008 0s.12596401-5.27999996.62982005-6.15999996-3.14910026-1.32-3.14910026-1.32z"/></g><path d="m24.751928 75.9942857c-3.2750642 5.7828572-4.8496144 14.52-1.3856041 21.2457143 1.7005141 3.331429 4.2197944 27.468571 4.4087404 30.234286-1.3856041 11.062857.881748 31.805714 1.1336761 36.017143.125964 1.822857 12.0295629-.251429 12.0295629-.251429s-2.5192802-30.8-2.5192802-33.565714c-.062982-3.96.9447301-3.331429.6298201-7.228572-.125964-1.508571.440874-15.714285-.188946-28.4114283-.3778921-7.2914286-2.0784062-14.7714286-3.0231363-17.5371428-1.0706941-3.2057143-11.0848329-.5028572-11.0848329-.5028572z" fill="#44195e"/><path d="m38.4190231 129.8c-.062982-3.96.9447301-3.331429.6298201-7.228571-.125964-1.508572.440874-15.714286-.188946-28.411429-.3778921-7.2914286-2.0784062-14.7714286-3.0231363-17.5371429-.188946-.5657142-.62982-.9428571-1.2596401-1.1942857-.440874.1257143-.755784.3142857-.692802.6914286.188946 1.0685714 1.7005141 4.9657143 2.5822622 12.8228571 1.0706941 9.1771429.818766 30.6114289.881748 32.8742859.0629821 1.068571.1889461 4.84-1.070694 7.794286-1.1336761 2.765714.377892 31.302857.503856 34.32 2.2673522-.251429 4.0938303-.628572 4.0938303-.628572s-2.3933162-30.737143-2.4562982-33.502857z" fill="#44195e"/><path d="m20.2802057 166.257143c1.133676-.188572 3.5899742-1.068572 4.0308483.314286.440874 1.382857-.6298201 2.954285-1.4485861 3.52-.7557841.628571-2.5822622-3.834286-2.5822622-3.834286z" fill="#000"/><path d="m18.5796915 157.771429c-.251928 2.828571 1.0706941 4.274285 1.8264782 7.165714.31491 1.005714.755784 2.451428 1.3226221 3.645714.188946.44.440874.88.692802 1.194286.6298201.88-3.5899743 1.32-5.4164524-1.948572-.9447301-1.697142-4.4717224-5.028571-4.0938303-6.222857.503856-1.508571 1.4485861-3.96 1.1966581-6.725714-.7557841-6.725714 4.6606683.062857 4.4717223 2.891429z" fill="#cc9584"/><path d="m12.596401 160.348571c.3778921-1.257142 2.2673522-2.074285 4.7236504 1.068572 0 0 1.8894602 2.325714 3.4640103 5.908571.251928.502857 1.7005141-.251428 1.8894602.125715 1.5115681.125714 1.196658-.125715 1.196658.691428.0629821 1.068572-.692802 1.822857-1.2596401 2.262857-.94473.691429-2.0784061 1.131429-4.3457583.691429-.6298201-.125714-.062982-.314286-1.4485861-3.017143-.5668381-1.131429-3.3380463-2.451429-4.2197944-3.52-.881748-1.068571-.503856-2.325714 0-4.211429z" fill="#000"/><path d="m12.722365 163.994286c.5038561 1.131428 1.6375322 3.268571 1.4485862 7.48.503856.062857.94473 0 .94473 0s.188946-5.28.7557841-6.222857c.503856-.817143-3.1491003-1.257143-3.1491003-1.257143z" fill="#000"/><path d="m16.8791774 77.1885714c-2.0784062 6.9142857-5.1015424 11.6914286-2.0784062 18.6057143 1.5115681 3.3942857-.9447301 27.2171433-.9447301 29.9828573-2.7712082 8.297143-3.2120822 30.674286-3.2120822 34.822857 0 1.822857 11.2107969 1.948571 11.2107969 1.948571s1.5745501-26.651428 1.7634961-29.417142c.251928-3.897143 1.1336761-3.205715 1.1336761-7.165715 0-2.325714 5.2904885-43.6228569 6.2352185-46.8285711.9447301-3.1428572-14.1079691-1.9485715-14.1079691-1.9485715z" fill="#44195e"/><path d="m33.2544987 31.68c1.3226221-3.8342857 2.0154242-5.9714286-1.8894601-8.7371429-1.2596401-.7542857-3.5269923-1.8228571-4.0938304-1.9485714-7.2429306-1.5085714-8.9434447 2.8914286-9.8881748 8.2342857-.818766 4.9028572.6298201 8.4857143 2.5192802 10.3085715l-.62982 2.8285714 9.1323907.88s-.188946-2.0114286.5038561-3.3942857c1.5745501 0 2.2043701.44 4.3457583-6.0342857.125964-.6285715-.125964-1.6971429 0-2.1371429z" fill="#fac39d"/><path d="m28.5938303 44c1.1336761.7542857 8.3766067 3.08 8.5025707 3.1428571.8187661.3771429-2.5822622 12.1942858-.818766 15.7771429-.9447301 2.0742857-1.4485862 2.0742857.440874 10.56.6928021 3.1428571.062982 5.0285714.062982 5.0285714s-1.9524422-.5657143-9.5102828.5028572c-7.2429306 1.0685714-10.7699229-.1257143-11.3367609-.3771429-2.3303342-.8171428-1.7634961-1.1314286-1.5115681-3.52.62982-5.6571428-.3778921-11.44-1.7005142-16.0914286-1.5745501-5.6571428-2.3933162-10.56-2.0154241-11.1257142.881748-1.4457143 1.6375321-1.5714286 4.0308483-3.2057143 2.3303342-1.6971429 13.8560411-.6914286 13.8560411-.6914286z" fill="#9bd1bf"/><g fill="#7fc6b1" transform="translate(14.485861 40.857143)"><path d="m.44087404 3.70857143 2.01542416-3.14285714s8.5655527-.94285715 11.714653.94285714c.755784 2.07428571 1.007712 2.95428571 1.007712 2.95428571s-5.66838042-1.88571428-7.55784058-1.44571428c-1.88946015.37714285-7.17994858.69142857-7.17994858.69142857z"/><path d="m10.5809769.56571429c2.9601542.44 3.6529563.44 3.9678663.94285714.251928.50285714.692802 2.07428571.692802 2.07428571s-2.7712082-.56571428-3.9048843-.69142857c-.755784-.06285714-.755784-2.32571428-.755784-2.32571428z"/></g><path d="m20.9100257 21.3085714c2.3303342-1.76 6.4871465-2.0742857 8.9434447-1.0057143 2.3933162 1.0685715 6.5501286 3.2057143 3.6529563 10.56-3.1491002 7.8571429-8.5025707 7.8571429-10.3290488 7.92-3.2750643.1257143-4.2827764-1.2571428-4.2827764-1.2571428s-5.6683804-10.56 2.0154242-16.2171429z" fill="#673328"/><path d="m19.0835476 31.68c1.5745501-.8171429 2.9601542 3.5828571 3.2120822 4.3371429 3.8419023-2.7657143 1.3856041-6.9142858-2.4562982-5.9085715-2.2043702.5657143-1.7005141 2.7657143-1.7005141 2.7657143z" fill="#673328"/><g fill="#673328" transform="translate(13.856041 30.171429)"><path d="m3.96786632 1.69714286c-1.19665809.94285714-4.66066838 6.41142857-3.65295629 11.18857144 1.00771208 4.7771428 4.9125964 19.2971428 2.01542416 22.0628571 3.52699229-1.6342857 3.08611825-6.16 3.08611825-6.16l-.56683804 4.9657143s2.07840617-4.0857143 2.33033419-5.8457143c.18894601.7542857 0 2.9542857-1.25964011 4.1485715 0 0 5.29048842-1.8228572 4.34575832-8.4857143-1.00771204-6.9771429-1.76349611-11.6285715-1.6375321-14.89714289.18894602-5.02857142 1.4485861-5.28.31491003-6.78857142-1.51156812-2.07428572-4.09383033-.81714286-4.97557841-.18857143z"/><path d="m8.06169666.56571429c-2.33033419.75428571-5.98329049 3.70857142-4.8496144 11.25142861 1.13367609 7.5428571 2.89717224 14.52 2.3933162 16.3428571.69280205-1.3828571.062982-9.4285714-.75578406-13.4514286 1.44858611 4.1485715 1.76349614 12.3828572 1.00771208 14.3942857.94473008-1.6971428 1.95244216-7.48 1.57455013-9.8057142.37789203 2.8285714 1.44858611 8.2971428.88174807 9.68 1.44858612-2.2628572.75578406-7.1028572.12596401-12.1942858-.69280206-5.0914285-2.3933162-11.12571424 1.00771208-14.1428571 1.95244213-1.57142857-1.38560411-2.07428571-1.38560411-2.07428571z"/></g><path d="m30.4832905 20.4914286c-.8817481-.3771429-2.0784062-.6914286-2.0784062-.6914286 1.1966581.2514286 5.9203085 4.2114286 1.5745501 9.3028571 1.3226222.2514286 2.5192803-4.3371428 2.5192803-4.3371428s-.4408741 4.1485714-3.3380463 5.5314286c1.1336761-.1257143 2.3303342-1.1942858 3.2120822-2.5771429-.62982 1.6971429-1.8264781 3.3314286-3.9048843 4.4 2.8971723.3142857 5.9203085-4.2742857 5.8573265-6.3485714 0-2.0114286-1.2596401-4.2742857-3.8419023-5.28z" fill="#673328"/><path d="m42.0089974 74.4228571c.8187661 4.7142858 1.8264782 12.6971429 2.0154242 17.6.31491.6914286 1.1336761 2.2 2.2673522 3.5828572.566838.6914286.9447301 1.6971428.9447301 1.6971428s.377892 1.3828572.251928 2.3257143c-.062982.5657146-.3778921 1.0685716-.6298201 1.5085716-.31491.502857-1.3856041.754286-1.0077121.062857.2519281-.502857.7557841-.942857.6298201-1.5714286-.251928-.9428571-.440874-1.8857143-.440874-1.8857143s.31491 1.1314286.440874 1.8857143c.125964.5657146-.6928021 1.6971426-.7557841 1.8228576-.377892.691428-1.0706941.44-.818766 0 .377892-.691429.31491-1.068572.31491-1.068572l-.6928021-1.822857s.7557841 1.1942857.6928021 2.262857c0 .628572-1.1336761 1.508572-1.5745501 1.068572-.2519281-.251429.503856-.942858.503856-1.068572-.31491-1.382857-.7557841-1.9485713-.7557841-1.9485713s.5038561.88.7557841 1.8228573c.125964.628571 0 .314286-.440874.691428-.3778921.377143-1.0077121.817143-1.1336761.251429-.062982-.251429.692802-.942857.62982-1.194286-.251928-.7542854-.440874-.9428569-.818766-1.5085711-1.1336761-1.9485715-1.7005142-5.6571429-1.7005142-5.6571429-2.8971722-8.0457143-4.0938303-17.16-3.4010283-19.4228571z" fill="#f7b282"/><path d="m37.033419 47.08c1.3856041 0 3.5269923 2.7657143 3.5269923 5.72s2.5192802 19.5485714 3.0231363 21.4342857c.503856 1.8857143 2.8971722 13.5771429 1.3856041 15.4628572-.6298201.7542857.503856 2.2628571.503856 2.2628571s-4.2827763 1.1314286-5.1015424.9428571c-.377892-.0628571-.6928021-1.3828571-1.3226221-2.1371428-1.4485861-1.6971429-2.5192802-11.2514286-3.2120823-14.3942857-.881748-3.96-.251928-19.6742857-.251928-20.8685715 0-1.1314285.5668381-8.4228571 1.4485861-8.4228571z" fill="#7fc6b1"/></g></g></svg>