<svg height="176" viewBox="0 0 178 176" width="178" xmlns="http://www.w3.org/2000/svg"><g fill="none" fill-rule="nonzero"><g transform="translate(25.159011 43.371429)"><path d="m27.360424 100.068571.3144877-55.8171424-4.9060071-.0628572-.3144876 55.8799996c0 .88 1.1321554 1.508572 2.4530035 1.508572s2.4530035-.628572 2.4530035-1.508572z" fill="#999ba3"/><path d="m103.277739 100.068571.314487-55.8171424-4.9060069-.0628572-.3144877 55.8799996c0 .88 1.1321555 1.508572 2.4530036 1.508572 1.320848 0 2.390106-.628572 2.453004-1.508572z" fill="#999ba3"/><g fill="#a8aab3"><path d="m21.5109541 40.04-21.32226152 18.8571429 124.66289742.7542857-21.699647-19.1714286z"/><path d="m12.9568905 120.245714.3144876-55.8171426-4.90600708-.0628571-.31448763 55.8799997c0 .88 1.13215548 1.508572 2.45300351 1.508572 1.3208481.062857 2.4530036-.628572 2.4530036-1.508572z"/><path d="m117.052297 120.245714.314487-55.8171426-4.906007-.0628571-.314487 55.8799997c0 .88 1.132155 1.508572 2.453003 1.508572 1.320848.062857 2.453004-.628572 2.453004-1.508572z"/></g><path d="m.25159011 58.8342857v3.2057143c0 1.5085714 1.195053 2.7657143 2.70459364 2.7657143l119.19081225.6914286c1.509541 0 2.767492-1.1942858 2.767492-2.7028572v-3.2057143z" fill="#d5dbd9"/><g transform="translate(37.109541)"><path d="m30.5053004 34.8857143-3.459364-.6914286-3.3964664.6285714-.2515901 1.9485715 7.296113.0628571z" fill="#465557"/><path d="m35.0968198 45.9485714-.3773852-.9428571c-.5031802-.5028572-3.2706713-2.0742857-3.2706713-2.0742857l-.6918728-6.16-7.2961131-.0628572-.8176679 6.0971429s-2.8303887 1.5085714-3.3335689 2.0114286l-.4402826.9428571c-.1886926.1885714 0 .44.2515901.44l7.8621908.0628571 7.8621908.0628572c.2515901.0628571.4402827-.1885714.2515901-.3771429" fill="#69797d"/><path d="m51.8904594.81714286-48.99717318-.44c-1.44664311 0-2.64169611 1.13142857-2.64169611 2.64l-.25159011 29.10285714c0 1.4457143 1.13215548 2.64 2.64169611 2.64l48.93427559.44c1.4466431 0 2.6416961-1.1314286 2.6416961-2.64l.2515902-29.10285714c0-1.44571429-1.1321555-2.64-2.5787986-2.64" fill="#69797d"/><path d="m11.881603-7.71258503 30.6753759.00016603.0002759 51.0117022-30.6753759-.000166z" fill="#d52e1e" transform="matrix(.00842529 -.99996451 .99996451 .00842529 9.19738 44.861898)"/></g></g><g><path d="m27.7378092 75.0514286h-22.13992934v-2.64h21.69964664z" fill="#3b1b1d"/><g transform="translate(3.773852 74.171429)"><g transform="translate(22.64311 89.257143)"><path d="m1.19731913 7.99011643 5.59807121.00007781.00001487 1.0686086-5.59807122-.00007781z" fill="#1a1a1a" transform="matrix(.99976552 -.02165406 .02165406 .99976552 -.183652 .088536)"/><path d="m1.25795053.69142857c-.69187279 1.06857143-1.195053 3.08-1.195053 3.96-.06289753 1.13142857.62897526 3.45714286 1.38374558 3.39428572 2.1385159-.06285715 4.65441696 0 6.85583039.25142857 2.2014134.25142857 3.0190813 1.50857143 8.6798587 1.38285714 1.6353356-.06285714 4.5286219-.18857143 4.5286219-.88-.0628976-2.89142857-5.4091873-1.76-7.1703181-3.26857143-4.40282681-3.89714286-7.29611303-4.77714286-7.29611303-4.77714286s-5.66077739-.31428571-5.78657244-.06285714z" fill="#55210e"/></g><g transform="translate(.628975 89.257143)"><path d="m6.10106007 8.92571429-4.90600707-.06285715-.06289752-.94285714 4.90600706-.06285714z" fill="#1a1a1a"/><path d="m1.13215548.50285714c-.50318021 1.00571429-.81766785 3.01714286-.88056537 3.96-.06289753 1.13142857.50318021 3.45714286 1.00636042 3.45714286 1.57243816 0 3.39646643.06285714 4.96890459.37714286 1.57243817.31428571 1.8869258.56571428 5.97526498.56571428 1.195053 0 3.2706714-.12571428 3.2706714-.75428571-.0628975-2.89142857-1.8240282-1.94857143-3.1448763-3.52-3.20777386-3.96-7.1074205-3.83428572-7.1074205-3.83428572s-4.0254417-.44-4.08833922-.25142857z" fill="#55210e"/></g><path d="m11.1957597 2.45142857c-.125795.88-.125795 1.76 0 2.70285714-.5031802-.06285714-1.0063604 0-1.44664309.18857143-.12579506-1.00571428-.12579506-2.01142857-.06289753-3.01714285" fill="#2a2d41"/><path d="m18.5547703.56571429c2.7674912 14.14285711-3.0190813 44.56571431-3.5222615 51.22857141-.2515901 3.08-2.7045936 24.7028572-3.7738516 33.44-.2515901 2.2628572-.7547703 6.3485714-.7547703 6.3485714s-.1886926 0-2.76749114 0c-4.71731449 0-5.97526502-1.6971428-5.97526502-1.6971428s.88056537-36.96 1.00636043-40.4171429c.12579505-3.6457143-.18869258-25.4571428-.88056537-29.7314285-.37738516-2.3257143-3.89964665-7.48 0-19.04571433z" fill="#4a4a49"/><path d="m6.79293286 2.32571429 10.06360424-1.32c1.8240283 15.21142861-1.3208481 44.62857141-1.7611307 50.78857141v.3771429c-1.3208481-8.8628572-3.6480566-27.9085715-3.8367492-28.6628572-1.88692575-1.6342857-7.29611303-7.6685714-4.46572434-21.18285711z" fill="#3c3c3b"/><path d="m5.53498233.62857143c-1.69823321 15.71428567 6.66713777 19.54857147 8.49116607 21.18285717.2515901.9428571 5.5349823 27.5942857 6.1639576 30.9885714s3.0819788 37.7771429 3.0819788 37.7771429.7547703 1.2571428 5.4720848 1.2571428c2.5787986 0 3.459364-1.32 3.459364-1.32s.8805653-37.2742857.8805653-41.1085714c0-6.5371429-6.4155477-35.8285714-9.1830388-48.9657143z" fill="#4a4a49"/></g><path d="m7.79929329 26.5257143c.69187279-.5028572 1.82402826-12.1314286 1.82402826-12.1314286l9.30883395 3.96s.3144876 10.12.3773851 10.8742857z" fill="#744135"/><path d="m22.2657244 3.26857143c-2.5787986-2.38857143-10.1893993-4.65142857-14.02614843.31428571-3.83674911 4.96571429-2.20141343 9.99428576-.2515901 13.07428576 1.57243816 2.3885714 3.08197883 3.7714285 6.10106003 5.1542857.6289753.3142857 6.2268552 1.32 7.3590106.9428571.7547704-.2514286 1.4466431-5.8457143 1.6353357-5.8457143.2515901 0 .8805654-.3142857.8805654-.7542857.0628975-.6914286-.6289753-4.7142857-.4402827-5.0914286.2515901-.44 1.6982332-5.02857139-1.2579505-7.79428567z" fill="#815245"/><path d="m23.8381625 5.78285714s-4.2770318-2.45142857-9.6233215 2.32571429c-1.1321555 1.00571428.9434629 5.53142857.6918728 5.90857147-.3144877.44-4.2141343-3.3314286-4.0254417-2.7657143 1.5095406 5.1542857-.2515901 7.9828571-.6918728 7.9828571-1.44664312.0628572-5.72367492-7.2285714-3.52226149-13.0742857 2.26431095-5.84571429 8.55406359-6.34857143 10.06360419-6.03428571 1.4466432.31428571 5.9752651.69142857 7.1074205 5.65714285z" fill="#36180e"/><path d="m13.2713781 12.3828571c.5031802 1.6342858.6918728 3.8342858-.1886926 4.0857143-.8805654.2514286-2.0127208-.88-2.515901-2.5142857-.5031803-1.6342857-.1257951-3.2057143.7547703-3.4571428.8805653-.1885715 1.4466431.2514285 1.9498233 1.8857142z" fill="#815245"/><path d="m43.9024735 44.88s1.8240283-.7542857 2.5787986-1.6971429c.7547703-.9428571.4402827-1.1942857.6918728-1.5085714s1.320848-.6914286 1.320848-.6914286 2.7045937-.2514285 1.4466431-2.1371428l-1.0692579.3771428s-.2515901 0-.8176679.0628572c-.5660777.0628571-1.0692579.1257143-2.2014134-.0628572-.8176678.0628572-1.6353357-.1257142-2.1385159.5028572-.5031802.3142857-1.2579505 1.5714286-1.5095406 1.8857143-.5031802.3142857-4.9689046 2.4514285-4.9689046 2.4514285l2.4530035 4.0857143s3.2706714-.3142857 5.0946997-1.32c1.8240282-.7542857 3.3335689-2.3257143 3.8367491-3.52s.3773851-2.3257143.3773851-2.3257143-1.9498233 3.3314286-3.2077738 4.0228572c-1.2579505.9428571-1.8869258-.1257143-1.8869258-.1257143z" fill="#815245"/><path d="m43.0219081 46.9542857 3.1448764-1.1314286 3.0190812-2.8285714.4402827-1.1942857-.125795-1.4457143-3.9625442 1.1942857c.3144876-.3142857-4.2770318 4.1485715-2.5159011 5.4057143z" fill="#744135"/><path d="m45.6007067 45.5714286.5660778.5028571c.2515901 0 1.0063604-.9428571 2.515901-3.08.2515901-.3142857.5031802-.6285714.7547703-.9428571.7547703-1.1942857 1.4466431-2.4514286 2.4530036-3.6457143l.5031802-.6285714c.5031802-.88.9434629-1.8228572 1.3837456-3.0171429-.7547704.6285714-1.5095407 1.2571429-2.264311 2.2l-.5031802.6285714c-.7547703 1.1942857-1.6982332 2.4514286-2.4530035 3.6457143-.2515901.3142857-.5031803.6285714-.7547704.9428572-1.7611307 1.9485714-1.9498233 2.7657142-2.2014134 3.3942857z" fill="#425b6c"/><path d="m52.0791519 37.5257143c.2515901-.3142857.2515901-.5657143.5031803-.6285714l-.8805654-.7542858c-.2515901.3142858-.2515901.3142858-.5031802.6285715l-.5031802.6285714c0 .3142857-.2515901.3142857-.2515901.5657143l.8805653.7542857c0-.3142857.2515901-.3142857.2515901-.5657143z" fill="#4db8a4"/><g fill="#4db8a4" transform="translate(45.915194 40.228571)"><path d="m.88056537 2.95428571c0 .31428572.06289753.56571429.31448763.81714286.31448764.25142857.56607774.25142857.81766785-.06285714-.25159011.31428571-.50318021.62857143-.50318021.88-.25159011 0-.25159011 0-.50318022.31428571-.2515901 0-.2515901 0-.56607773.06285715 0 0 0-.31428572-.06289753-.56571429 0-.31428571 0-.31428571-.06289753-.56571429.06289753 0 .31448764-.31428571.56607774-.88z"/><ellipse cx="1.91333" cy="2.703184" rx="2.514848" ry="1" transform="matrix(.55838695 -.82958062 .82958062 .55838695 -1.397558 2.781023)"/></g><g fill="#815245" transform="translate(44.657244 38.971429)"><path d="m.9434629 6.03428571s-.75477032.62857143-.18869258 1.44571429c.62897526.81714286 2.20141343.37714286 2.45300353.06285714.25159011-.31428571.50318021-.88.50318021-.88s1.06925795-.37714285 1.00636043-.94285714c-.06289753-.56571429-.06289753-.56571429-.06289753-.56571429s.81766785-.37714285 1.00636043-.94285714c.18869257-.56571428-.37738516-1.13142857-.37738516-1.13142857v-.31428571s1.32084805-.12571429 1.25795053-1.00571429c-.06289753-.88-.62897527-1.06857143-.62897527-1.06857143s-2.07561837 1.63428572-1.195053 2.38857143v.31428571s-.50318021.31428572-1.32084806.37714286c-.81766784.06285714-.81766784.06285714-1.06925795.12571429-.25159011 0-1.00636042.69142857-.18869258 1.19428571.88056537.50285714.56607774.50285714.56607774.50285714s-.50318021.31428572-.81766784.06285715c-.31448764-.25142857-.56607774-.25142857-.81766785.06285714-.18869258-.25142857-.12579505.31428571-.12579505.31428571z"/><path d="m5.34628975.18857143-1.06925795.37714286s-.2515901 0-.81766784.06285714c-.25159011 0-.81766785.06285714-1.06925795.12571428l-2.20141343 2.51428572c.25159011-.31428572 3.64805654-.94285714 3.64805654-.94285714s2.51590106-.25142858 1.50954063-2.13714286z"/></g><path d="m22.5173145 37.6514286s.4402827-1.2571429-.2515901-3.2057143-1.195053-1.2571429-1.6982332-3.7085714c-.2515901-2.7028572 0-3.7085715 0-3.7085715l-5.4091873-1.9485714-11.00706715 7.2914286s-.37738516 10.1828571.81766784 14.8971428c1.19505301 4.4628572 4.78021202 9.1142857 4.78021202 9.1142857z" fill="#bacfed"/><path d="m20.5674912 27.0285714s-.5031802-.2514285-.4402827.7542857c-.2515901 1.0057143-1.1321555 3.96-1.1321555 4.4628572 0 .5028571.2515901.5028571.2515901.5028571s-4.9689046-3.2057143-7.2961131-3.8971428c-2.39010597-.9428572-5.40918724-3.2057143-5.40918724-3.2057143s0-1.5085714.18869258-2.2628572c0-.2514285.44028268-.5028571.69187279-.5028571 4.46572437 1.0057143 8.93144877 2.2 13.14558307 4.1485714z" fill="#e1f2fd"/><path d="m20.3787986 33.6914286s-4.2141343-1.6971429-7.5477032-1.4457143c-3.27067137.2514286-7.23321554 4.2742857-7.67349823 9.4914286-.44028268 5.2171428 2.64169612 10.3714285 11.38445233 12.8228571 8.491166 2.3885714 9.4346289 4.4 9.4346289 4.4l1.3837456 13.7657143-21.69964661.1885714s-5.40918728-30.8-5.2204947-36.7714286c.18869258-5.9714285 5.78657243-10.7485714 5.78657243-10.7485714s4.02544168 1.4457143 7.04452298 2.3885714c3.0819788 1.0057143 6.4155477 4.7142858 7.1074205 5.9085715z" fill="#f08100"/><path d="m12.7053004 49.2171429c-2.1385159-3.7085715 6.7300353-4.84 11.1328621-5.2171429 4.2141343-.3771429 13.1455831-.1257143 14.089046-.1257143.0628975 0 .0628975 0 .0628975.0628572l1.8869258 4.0228571v.0628571c-.8805654.3142858-7.1074205 3.6457143-18.4918728 5.1542858-1.1321555.1885714-6.4784452-.1885715-8.6798586-3.96z" fill="#815245"/><path d="m20.3787986 33.6914286s3.7738516 4.7142857 5.5978798 25.2685714l-5.5349823 1.6342857s-13.64876324-8.4857143-13.90035334-8.4857143c-.25159011 0-3.20777386-10.3085714-3.20777386-10.3085714s2.39010601-7.5428571 2.07561838-8.9885714c-.37738516-1.4457143 4.84310952-3.7714286 4.84310952-3.7714286s6.4784452 2.0742857 6.2268551 1.76 3.8996467 2.8914286 3.8996467 2.8914286z" fill="#f08100"/><g transform="translate(9.434629 30.8)"><g transform="translate(15.095406 49.657143)"><path d="m12.8939929 6.66285714c-.3144876.12571429-.7547703 0-.8805653-.37714285-.1257951-.31428572 0-.75428572.3773851-.88.3144877-.12571429.7547703 0 .8805654.37714285.125795.37714286-.0628975.75428572-.3773852.88z" fill="#936037"/><path d="m2.76749117 11.8171429-2.39010601-5.72000004c-.18869258-.37714286 0-.88.44028269-1.00571429l11.82473495-4.90285714c.3773852-.18857143.8805654 0 1.0063605.44l2.390106 5.72c.1886925.37714286 0 .88-.4402827 1.00571428l-11.82473501 4.90285719c-.37738516.1885714-.81766784 0-1.00636042-.44z" fill="#000"/><path d="m11.824735 5.28-.3144877-.81714286c-.0628975-.18857143 0-.44.2515902-.56571428l.9434629-.37714286c.1886925-.06285714.4402826 0 .5660777.25142857l.3144876.81714286c.0628976.18857143 0 .44-.2515901.56571428l-.9434629.37714286c-.2515901.06285714-.5031802-.06285714-.5660777-.25142857z" fill="#797979"/></g><g fill="#815245"><path d="m5.47208481.12571429c-3.89964665-.18857143-5.2204947 2.89142857-5.15759718 6.6.06289753 3.70857141 4.71731449 25.58285711 5.66077739 26.33714281.9434629.7542858 6.54134278.2514286 7.17031798-1.32.6289753-1.6342857-.8176678-21.2457142-1.4466431-24.2628571-.5031802-3.01714286-1.6353357-7.10285714-6.22685509-7.35428571z"/><path d="m6.98162544 27.3428571c-3.89964664 1.5714286.06289753 9.3657143 2.20141343 13.0742858 2.13851593 3.7085714 9.43462893 13.8914285 9.43462893 13.8914285l4.1512368-2.0742857s-2.7674912-11.1257143-8.1137809-21.6228571c-.5031802-1.0685715-3.7109541-4.9028572-7.67349826-3.2685715z"/><g transform="translate(17.611307 49.028571)"><g transform="translate(1.257951 6.285714)"><path d="m2.64169611 6.66285714c.44028269-.12571428.69187279-.56571428.56607774-1.00571428l-1.00636042-3.39428572c-.12579506-.44-.56607774-.69142857-1.00636043-.56571428-.44028268.12571428-.69187279.56571428-.56607773 1.00571428l1.00636042 3.39428572c.12579505.44.56607774.69142857 1.00636042.56571428z"/><path d="m4.15123675 6.41142857c.44028268-.12571428.69187279-.56571428.56607774-1.00571428l-1.00636043-3.39428572c-.12579505-.44-.56607773-.69142857-1.00636042-.56571428-.44028269.12571428-.69187279.56571428-.56607774 1.00571428l1.00636043 3.39428572c.12579505.44.56607773.69142857 1.00636042.56571428z"/><path d="m5.59787986 6.03428571c.44028268-.12571428.69187279-.56571428.56607774-1.00571428l-1.00636043-3.39428572c-.12579505-.44-.56607774-.69142857-1.00636042-.56571428-.44028269.12571428-.69187279.56571428-.56607774 1.00571428l1.00636042 3.39428572c.12579506.44.56607774.69142857 1.00636043.56571428z"/><path d="m6.98162544 5.53142857c.44028269-.12571428.69187279-.56571428.56607774-1.00571428l-1.00636042-3.39428572c-.12579506-.44-.56607774-.69142857-1.00636043-.56571428-.44028268.12571428-.69187279.56571428-.56607774 1.00571428l1.00636043 3.39428572c.12579505.44.56607774.69142857 1.00636042.56571428z"/></g><path d="m3.77385159.25142857s3.71095406 4.46285714 4.21413428 5.46857143c.44028268 1.06857143.88056537 5.4685714.88056537 5.4685714s-1.76113075-.88-2.70459364-.44c-.9434629.44-3.20777385 1.6971429-3.20777385 1.6971429s-2.01272085-3.26857144-2.39010601-5.02857144-.37738516-3.58285715-.37738516-3.58285715z"/></g></g></g><path d="m16.9194346 28.7885714c1.4466431.8171429 4.5286219 3.3314286 4.9689046 6.5371429.5660778 4.5257143 2.9561838 16.2171428 2.9561838 16.2171428s-2.7045937 2.1371429-6.6671378 2.7028572c-4.5915195.6914286-7.6106007-.6914286-7.6106007-.6914286s-3.2077739-17.7257143-2.39010605-21.3714286c.56607773-2.8914285 4.71731445-5.72 8.74275615-3.3942857z" fill="#ed6b06"/></g><g transform="translate(102.522968 11.942857)"><path d="m18.1144876 35.64c1.0063605-4.7771429-2.0756183-9.5542857-6.8558304-10.56-4.78021197-1.0057143-9.56042398 2.0742857-10.56678441 6.8514286-.9434629 4.4628571 1.63533569 8.8628571 5.91236749 10.3085714v.0628571l-1.38374558 6.5371429c-.12579505.5028571.25159011 1.0685714.75477032 1.1942857s1.06925795-.2514286 1.195053-.7542857l1.38374558-6.5371429v-.0628571c4.4657244.3771429 8.6169611-2.5771429 9.560424-7.04zm-10.12650173 4.9028571c-3.71095407-.8171428-6.10106007-4.4628571-5.34628976-8.2342857.81766785-3.7085714 4.46572438-6.0971428 8.23957599-5.3428571 3.710954.8171428 6.1010601 4.4628571 5.3462897 8.2342857-.8176678 3.7085714-4.5286219 6.16-8.23957593 5.3428571z" fill="#000"/><path d="m66.8600707 29.48c2.0756183-1.9485714 9.8120141 20.8685714 7.9879858 25.52-1.8240282 4.6514286-21.6996466 2.1371429-24.4671378 2.0114286-2.8303887-.1257143 8.4282686-6.9771429 8.4282686-6.9771429l-3.3335689-5.28 8.8056537-3.8971428c-.0628975.0628571 2.0756184-10.8742858 2.5787986-11.3771429z" fill="#003051"/><path d="m65.5392226 155.445714c.1257951 2.137143 1.6353357 4.337143-.2515901 5.468572-1.8240283 1.131428-3.5222615.942857-5.5349823.125714-2.0127209-.817143-2.6416961-2.011429-3.6480566-3.08-1.0063604-1.068571-3.9625441-1.948571-4.780212-3.394286-.8176678-1.445714-1.1321555-5.28.5031802-4.714285 1.6353357.565714 6.4784453 1.634285 6.4784453 1.634285z" fill="#000"/><path d="m66.2939929 72.2228571c1.2579506 3.8342858 3.7109541 8.9885715 1.6353357 17.6628572-1.6982332 7.2285714-1.6982332 28.0971427-1.6982332 28.0971427s.2515901 32.748572-.5660777 40.354286c-10.3151944.314286-10.2522969-4.965714-10.0007067-7.228572.2515901-2.262857-5.3462898-32.12-5.4091873-33.817142-.1257951-1.697143 2.7045936-29.0400004 4.1512367-34.0685719 1.3837456-4.9657142 11.8876325-11 11.8876325-11z" fill="#00233e"/><path d="m51.6388693 155.76c.7547703 3.331429 1.5095406 5.091429.3773851 7.102857-1.195053 1.948572-5.975265.817143-8.6798586-.754286-1.6353357-.942857-5.4720848.188572-7.4219082-.062857-4.1512367-.44-6.4784452-5.28-3.0190812-5.28 3.3964664 0 6.9816254-1.32 8.6798586-2.451428 1.6353357-1.194286 10.0636043 1.445714 10.0636043 1.445714z" fill="#000"/><g fill="#f6b086" transform="translate(35.85159 4.4)"><path d="m14.5922261 8.48571429c-.125795 1.94857141 2.4530036 8.17142861 3.8367492 10.81142861 1.320848 2.64 4.0883392 6.2228571 4.0883392 6.2228571l-12.3908127 5.9085714s.0628975-11.5028571-3.33356894-12.8228571c-2.07561837-.8171429 7.79929324-10.12000001 7.79929324-10.12000001z"/><path d="m6.54134276 18.04c-.50318022-.3771429.06289752-1.5085714.88056537-2.64l1.38374558-1.0057143 4.96890459 12.32-2.3272085 2.1371429-1.63533567-1.8857143c0-.0628572.12579506-6.4742857-3.27067137-8.9257143z"/><path d="m.25159011 7.73142857c1.00636042 7.04000003 4.33992932 12.50857143 7.23321554 12.57142853 2.89328625.0628572 8.80565375-4.7142857 8.93144875-10.2457142.1257951-5.53142861-3.585159-10.4971429-8.99434627-9.80571433-5.91236749.75428572-7.92508834 1.94857143-7.17031802 7.48z"/></g><path d="m35.1597173 11.44c-2.0756184-1.82285714 4.2141343-12.63428571 12.5166078-10.56s9.1830389 6.78857143 9.0572438 11.0628571c-.0628975 4.2742858-2.390106 8.4857143-1.195053 8.8 1.6353357.5028572-8.8685512 2.7028572-8.8685512 2.7028572s-3.7109541-4.84-3.8367492-5.7828572c-.3773851-2.8914285-3.2077738-3.7714285-3.0190812-1.9485714.1886926 1.76-.7547703 1.4457143-.7547703 1.4457143l-.3773852.44s-1.5724382-4.7771429-2.264311-5.5942857c-.8176678-.8171429-1.2579505-.5657143-1.2579505-.5657143z" fill="#2b1110"/><path d="m55.2869258 25.0171429-.8805654-2.0114286-10.0636042 2.7028571.5031802 2.4514286z" fill="#92d2f4"/><path d="m55.8530035 23.9485714 2.8303887 2.2628572s-8.4911661 4.0228571-11.1328622 3.96c-2.6416961-.0628572-3.8996466-.8171429-3.8996466-.8171429l.3144876-2.2628571s5.4091873-1.2571429 7.6734983-1.76c2.2014134-.3771429 4.2141342-1.3828572 4.2141342-1.3828572z" fill="#003d64"/><path d="m12.3908127 46.3257143c-1.3837456-.8171429-3.20777383-1.6342857-4.21413425-1.8228572-1.00636043-.1885714-3.0819788-.3771428-3.71095407.1885715-.62897526.5028571-.31448763.9428571-.31448763.9428571s-1.25795053.88-.44028269 2.0742857c-.69187279 1.1314286.31448764 1.8228572.31448764 1.8228572-.44028269.5657143.44028268.9428571.88056537 1.0685714 1.25795053.3142857 3.20777385.1257143 4.78021201.1885714.62897522 0 4.46572442 2.9542857 5.22049472 3.3942857.7547703.3771429 3.2077738-6.2857142 3.2077738-6.2857142z" fill="#f6b086"/><path d="m38.8077739 75.3657143c-.1886926 8.36.4402826 31.3657147-.1257951 43.9999997-.2515901 6.222857 2.3272085 31.68.3773852 35.325715 7.1074205 4.588571 13.3342756 3.582857 13.3342756 3.582857s.5031802-33.062857.125795-36.142857c-.4402827-3.08 1.5095407-23.6342861 5.3462898-30.8628576 3.8367491-7.1657143 6.8558304-16.4685714 3.2077738-17.6628571-3.7738516-1.0685714-22.2657243 1.76-22.2657243 1.76z" fill="#003051"/><g fill="#003d64"><path d="m55.8530035 25.52c4.2770318.6914286 9.5604241 2.3257143 11.7618375 3.8971429 0 0 .3773851 22.2514285 1.5095406 27.8457142 3.9625442 19.2971429 5.84947 24.0742858 5.4091873 26.6514286-.4402827 2.5142857-34.530742 7.7314286-37.2353357 5.8457143-.3773851-10.6228571 2.5159011-28.0971429 1.195053-35.8914286-1.320848-7.7942857-1.8869258-18.3542857-1.8869258-18.3542857s-.8805653-1.9485714 2.7674912-4.2742857c3.1448763-2.0742857 6.5413427-2.7657143 6.5413427-2.7657143z"/><path d="m41.9526502 38.72c-3.2706714 11.5028571-10.8183746 17.2857143-10.8183746 17.2857143-9.6233215.1257143-21.32226147-1.5714286-21.32226147-1.5714286s.18869257-4.3371428 2.39010597-8.6742857c1.5095407.3771429 10.1265018.5028571 13.5229682.0628571 3.3335689-.44 10.4409894-14.4571428 12.6424029-15.2114285 4.7173145-1.6342857 8.6169611-2.8285715 8.9314487-.0628572-.125795 0-2.4530035 1.8857143-5.3462897 8.1714286z"/></g></g><g fill="#fff" transform="translate(83.024735 50.914286)"><path d="m13.145583 15.0228571c-.0628975-.0628571-.125795-.1885714-.1886925-.2514285-.1886926-.2514286-.4402827-.5028572-.6918728-.7542857-.1886926-.1885715-.3144877-.44-.3144877-.7542858 0-.3771428-.125795-.7542857-.1886925-1.0685714-.0628976-.1885714-.1257951-.1885714-.3144877-.1257143-.0628975.0628572-.1886926.0628572-.2515901.1257143-.2515901.1885714-.4402827.44-.5660777.6914286-.1257951.1885714-.2515901.3771428-.3773852.5657143-.2515901.3142857-.56607772.5028571-.94346288.6914285-1.06925795.5028572-5.03180212 2.2-5.84946996 2.5771429-.44028269.1885714-.88056537.3142857-1.38374559.2514286-.37738515-.0628572-.75477031-.0628572-1.06925795-.1257143-.18869257 0-.37738515 0-.56607773.0628571-.18869258.0628572-.18869258.1885715-.12579506.3142857.06289753.0628572.12579506.1257143.12579506.1885715.31448763.3142857.56607773.6285714.88056537.9428571.06289752.0628572.06289752.1257143.06289752.1885714 0 .1257143.06289753.3142858.06289753.44.06289753.3142858.12579505.5657143.18869258.88.06289753.1885715.18869258.2514286.31448763.1257143.12579505-.0628571.18869258-.1257143.31448763-.2514285.31448764-.44.62897527-.88.9434629-1.2571429.06289753-.0628571.12579505-.1257143.18869258-.1257143.9434629-.44 5.84946997-2.5142857 7.10742047-3.0171428.2515901-.1257143.5660778-.1257143.8176679-.0628572.3144876.0628572.5660777.1257143.8805653.1257143.3144877.0628571.5660778 0 .8805654-.1257143.1257951 0 .1257951-.1257143.0628975-.2514286z"/><path d="m.25159011 14.5828571c.06289752-.0628571.12579505-.1257142.12579505-.2514285.18869258-.2514286.44028269-.44.62897526-.6914286.18869258-.1885714.25159011-.44.31448764-.6914286 0-.3771428.12579505-.6914285.18869258-1.0685714.06289752-.1885714.12579505-.1885714.31448763-.1257143.06289753.0628572.18869258.1257143.2515901.1885714.25159011.1885715.37738516.44.56607774.6914286.12579506.1885714.18869258.3771429.31448764.5657143.2515901.3771429.56607773.5657143.94346289.7542857 1.06925795.5657143 5.03180212 2.5771429 5.84946997 3.0171429.44028269.2514285.94346289.44 1.44664309.3771428h1.1321555c.1886926 0 .4402827 0 .6289753.0628572.1886925.0628571.2515901.1885714.125795.3771428-.0628975.0628572-.125795.1257143-.1886926.1885715-.3144876.3142857-.6289752.5657142-.9434629.88-.0628975.0628571-.0628975.1257142-.125795.1257142-.0628975.1257143-.0628975.3142858-.0628975.5028572-.0628976.3142857-.1257951.5657143-.1886926.88-.0628976.1885714-.1886926.1885714-.3144877.1257143-.125795-.0628572-.1886925-.1885715-.3144876-.3142857-.3144876-.44-.6289753-.9428572-1.00636041-1.3828572-.06289753-.0628571-.12579506-.1257143-.18869258-.1257143-1.00636043-.5657143-5.84946997-3.0171428-7.04452297-3.5828571-.25159011-.1257143-.50318021-.1257143-.81766784-.1257143-.25159011 0-.56607774.0628571-.81766785.0628571-.2515901 0-.56607774-.0628571-.81766784-.1257142-.06289753-.0628572-.12579506-.1885715 0-.3142858z"/><path d="m13.019788 4.65142857c-.0628975-1.19428571-.6289753-2.2-1.5724382-3.01714286-.6918728-.62857142-1.57243814-.94285714-2.51590104-1.19428571-.81766784-.18857143-1.63533569-.31428571-2.45300353-.31428571-.81766784 0-1.63533569.12571428-2.39010601.31428571-.88056537.18857143-1.69823321.56571429-2.390106 1.19428571-.88056537.75428572-1.38374559 1.76-1.44664311 2.95428572-.06289753 1.19428571.2515901 2.32571428.88056537 3.33142857 0 .06285714.06289752.06285714.06289752.12571429l.50318022.75428571c-.06289753.44-.18869258.88-.12579506 1.32.06289753.6285714.31448764 1.0685714.9434629 1.2571429.06289753 0 .12579505.0628571.18869258.0628571.18869258.0628571.44028269.1885714.62897526.2514286.50318022.2514285.88056538.5657143 1.06925796 1.0685714.06289752.1257143.06289752.3142857.12579505.44 0 .0628571.06289752.1257143.06289752.1257143.25159011.0628571.56607774.1257143.81766785.1885714h1.06925795c.37738516 0 .75477032.0628572 1.06925795.0628572s.56607774-.0628572.88056537-.1257143c0 0 .06289753-.0628572.06289753-.1257143.06289752-.1257143.06289752-.3142857.12579505-.44.18869258-.5028572.56607774-.8171429 1.06925795-1.0685714.18869258-.0628572.44028272-.1257143.69187282-.2514286.0628975 0 .125795-.0628572.1886926-.0628572.6918727-.1885714.9434628-.6285714 1.0063604-1.2571428.0628975-.44000001 0-.88000001-.1257951-1.32000001l.5031802-.75428572c.0628976-.06285714.0628976-.06285714.0628976-.12571428.7547703-1.00571429 1.1321554-2.13714286 1.0063604-3.39428572zm-8.49116609 5.34285714c-.25159011.25142859-.62897527.31428569-.9434629.18857139-.37738516-.1257142-.62897526-.37714281-.81766784-.69142853-.18869258-.31428571-.31448764-.69142857-.44028269-1.06857143-.06289753-.44.12579505-.88.56607774-1.00571428.31448763-.06285715.62897526-.12571429.9434629-.18857143.06289752 0 .18869258 0 .2515901-.06285714.25159011 0 .50318021-.06285715.75477032-.06285715.50318021 0 .69187279.37714286.75477032.75428572.06289753.25142857 0 .56571428-.12579505.81714285-.18869258.50285715-.56607774.94285715-.9434629 1.32zm1.88692579 1.88571429c0 .0628571 0 .1257143-.06289752.1257143-.12579506.1257143-.25159011.2514286-.37738516.3771428-.06289753.0628572-.12579506.0628572-.12579506.0628572-.12579505.0628571-.2515901.0628571-.31448763-.1257143-.06289752-.1257143-.12579505-.2514286-.12579505-.3771429-.06289753-.44-.06289753-.9428571.18869258-1.3828571.18869258-.3142857.37738516-.56571429.62897526-.81714286.06289753-.06285714.12579506-.06285714.18869258-.12571428v.31428571zm1.32084806.3142857c0 .1257143-.12579505.2514286-.25159011.3142857-.06289752 0-.12579505 0-.18869258 0-.2515901-.1257143-.44028268-.3142857-.56607773-.5657143v-.0628571c0-.6914286 0-1.3828571 0-2.07428571 0-.06285715 0-.06285715 0-.12571429.06289752.06285714.12579505.06285714.18869258.12571429.31448763.31428571.56607773.69142861.75477031 1.06857141.06289753.0628572.06289753.1885714.06289753.3142857zm3.20777384-3.58285713c-.1886926.37714286-.3144876.81714286-.5660777 1.19428572-.2515901.44000001-.69187282.56571431-1.19505303.56571431-.18869258 0-.37738516-.0628572-.56607774-.2514286-.50318021-.50285714-.88056537-1.00571429-1.13215548-1.69714286-.12579505-.37714285-.06289752-.75428571.18869258-1.06857143.12579506-.18857142.31448764-.25142857.56607774-.25142857.62897527.06285715 1.25795053.12571429 1.88692583.31428572.4402827.12571428.7547703.50285714.8176678.88.0628975.12571428.0628975.25142857 0 .31428571z"/></g><path d="m103.969611 94.7257143h-40.1915191l2.3272085-3.6457143h36.2289756z" fill="#69797d"/><path d="m103.969611 94.7257143h-40.1915191v1.1942857h40.0657241z" fill="#465557"/></g></svg>