<svg height="235" viewBox="0 0 285 235" width="285" xmlns="http://www.w3.org/2000/svg"><g fill="none" fill-rule="evenodd"><path d="m1 1h283v233h-283z" opacity=".011091" stroke="#fefefe"/><g fill-rule="evenodd" transform="translate(1 1)"><g fill="#000" fill-rule="nonzero" transform="translate(24.356557 162.46402)"><path d="m16.8196735 3.24370291 10.3229052.00026312.0001301 5.08802293-10.3229052-.00026312z" transform="matrix(.9999645 -.00842647 .00842647 .9999645 -.047991 .185429)"/><path d="m21.2270087 5.61428876 2.3777478.00006061.0005085 19.88954413-2.3777478-.0000606z" transform="matrix(.9999645 -.00842647 .00842647 .9999645 -.130312 .189441)"/><path d="m17.9797816 30.5336132 9.4529976.0002409.0001153 4.5098385-9.4529976-.0002409z" transform="matrix(.9999645 -.00842647 .00842647 .9999645 -.275487 .192498)"/><path d="m41.2901639 2.19702233v2.25483871l-36.88278685.28908189v-2.25483871c0-.92506204.75389344-1.67667494 1.68176229-1.73449132l33.51926226-.28908188c.9278689 0 1.6817623.7516129 1.6817623 1.73449131"/><path d="m2.95758197 38.9104218h-2.08770492l2.02971311-4.5096774 16.93360654-2.2548387.0579918.8094293 1.7397541-.8094293.5799181 1.0406948.7538934-.925062v-.1156328h.1159836l.3479508-.4047146h-3.4215164l-.1739754-19.1372209 5.5672131-.0578164.1739754 19.1372209h-1.5657786l.869877.6359801 15.0198771 1.7344914 1.3338114 2.8908188c.5219263.3468983.8698771.925062.9278689 1.6188586 0 1.0985111-.8698771 1.9657568-1.9137295 1.9657568-1.1018443 0-1.9717213-.8672457-1.9717213-1.9079404 0-.5781638.2319672-1.0406948.6379098-1.4454095l-.6959016-.9828784-8.5247951-1.0985112c-.6379099-.1734491-1.3338115-.3468982-1.9717213-.5203474 3.3635246 2.5439206 8.6987705 6.1863524 8.6987705 6.1863524l.8118852 2.0813896c.9858607.3468982 1.7397541 1.2719603 1.7397541 2.4282878 0 1.4454095-1.1598361 2.601737-2.6096311 2.601737-1.4497951 0-2.6096312-1.1563275-2.6096312-2.601737 0-.8094293.3479508-1.5610422.9278689-2.0235732l-.6959017-1.387593-11.482377-8.2099256.3479508.6359802-13.74405739 6.3598015-.46393442.6359801c.34795082.462531.57991803.9828784.57991803 1.5610422 0 1.4454094-1.15983606 2.601737-2.60963115 2.601737-1.44979508 0-2.60963114-1.1563276-2.60963114-2.601737 0-1.3297767 1.04385246-2.4861042 2.31967213-2.601737l.98586065-1.5610422 6.32110659-2.9486352-8.93073773.6359801z"/><ellipse cx="2.087705" cy="39.662035" rx="2.029713" ry="2.023573"/></g><g fill-rule="nonzero"><g transform="translate(26.096311 150.322581)"><path d="m2.66762295 23.762531c0 .1734491 3.65348361 3.0064516 9.91659835 4.2205956 6.2631148 1.2141439 21.8629098-1.214144 24.7045082-3.2377172s0-12.4883374-2.2036885-14.3384615c-2.2036885-1.85012408-4.0594262-.98287842-6.495082-4.85657569-2.2036885-3.81588089-16.8176229-6.64888338-21.22499998-4.22059554-4.52336066 2.42828785-10.5545082 11.33200993-4.69733607 22.43275433z" fill="#000"/><path d="m10.9604508 45.5014888s.4059426 1.6188586 2.0297131 2.1970224c1.6237705.4047146 3.4215164-1.3875931 3.6534836-1.7923077 0 0 .4059427 2.8330025 1.7977459 3.8158809 1.3918033.9828784 3.4215164 3.4111662 3.4215164 3.4111662s-1.3918032 1.6188586-3.827459 1.3875931c-2.4356557-.1734492-5.8571721-2.4282879-6.4950819-3.4111663-.6379099-.9828784-1.62377054-1.9657568-.5799181-5.6081886" fill="#402a1b"/><path d="m30.967623 52.9598015s-.5799181-3.0064516.579918-4.4518611c0 0-.1739754.5781638.4059426.8094293.4059426.1734492 1.3918033-.4047146 3.0155738-1.2141439s3.0155737 0 3.0155737 0 1.6237705 2.8330025 2.2036886 3.4111663c.8118852.5781637 4.4653688 2.1970223 5.4512295 2.1970223.9858606 0 .1739754 2.8330025-2.2036885 2.601737-2.4356558-.1734492-5.8571722-.8094293-7.3069673-2.0235732-1.5077868-1.0985112-5.1612704-1.3297767-5.1612704-1.3297767z" fill="#402a1b"/><path d="m7.36495902 15.783871s-2.72561476 6.591067-.86987705 11.2741935c0 0 .98586065 2.9486353 2.20368852 7.4004963s2.20368851 11.1007444 2.20368851 11.1007444.8698771 2.6595534 2.0877049 2.4861042c1.2178279-.1734491 3.4795082-.5203474 3.4795082-1.9079404 0-1.3875931.6959017-10.8694789.6959017-13.2977668 0-2.4282878-.6959017-4.2784119-.289959-5.3191067.4059426-.8094292.289959-3.2377171 2.0877049-3.6424317 1.7977459-.4047147 8.6987705.5781637 8.6987705.5781637l8.2928278 2.3126551s-4.5233606 20.9873449-4.7553278 22.2014889c0 0 .5219262.6359801 1.9137295 1.4454094s4.9872951-1.7923077 4.9872951-1.7923077 4.9293032-13.8181141 5.5092213-15.8416873c.579918-2.0235732 3.0155737-8.267742 3.4215164-10.2913152.579918-2.0235732.579918-5.4347394-3.0155738-6.8801489-3.6534836-1.387593-7.075-1.387593-7.075-1.387593l-29.11188526-1.6188586z" fill="#000"/></g><g transform="translate(0 86.724566)"><path d="m77.245082 59.6086849 12.9321721 19.9466501-89.48135246.7516129 18.38340166-20.235732z" fill="#673328"/><g fill="#402a1b"><path d="m76.6651639 144.251861-.3479508-58.9148883 5.2192623-.0578164.3479508 58.9727047c0 .867246-1.159836 1.618859-2.6096311 1.618859s-2.6096312-.693797-2.6096312-1.618859z"/><path d="m8.9307377 144.251861-.34795081-58.9148883 5.21926231-.0578164.3479508 58.9727047c0 .867246-1.1598361 1.618859-2.6096311 1.618859-1.3918033 0-2.55163939-.693797-2.6096312-1.618859z"/><path d="m90.0612705 79.4397022v3.3533499c0 1.6188586-1.2758197 2.8908189-2.8995902 2.9486352l-83.6821721.6937966c-1.6237705 0-2.89959017-1.2719603-2.95758197-2.8908189v-3.3533499z"/></g><g transform="translate(13.918033)"><g transform="translate(0 13.297767)"><path d="m43.6678279 17.2292804c0 1.7344913-.1739754 3.4689826-.5799181 5.0300248-.289959 1.3875931-.7538934 2.6595534-1.2758196 3.8736973-2.0297132 4.451861-5.4512295 7.4004963-9.3946722 7.4004963-3.7114754 0-7.075-2.6595534-9.1047131-6.7066998-.6959016-1.3297767-1.2178279-2.8330025-1.5657787-4.3940447-.4059426-1.6188585-.579918-3.3533498-.579918-5.2034739 0-.2312655 0-.5203474 0-.7516129 0-.1156328 0-.2890819 0-.4047146.4059426-8.15210923 4.9293033-14.62754347 10.5545082-15.09007449h.2319672.4059426.0579918.4639345.2319672.2319672c5.4512295.63598015 9.8006147 6.88014889 10.2645492 14.74317619 0 .2312655.0579918.462531.0579918.7516129z" fill="#4b3f51"/><path d="m42.2760246 15.3791563c0 1.3875931-.1159836 2.7173698-.4059426 3.9315137-.1739754.8672456-.4059427 1.6766749-.6379099 2.4861042-4.5813524 8.9615385-12.5262295 10.1756824-17.6295082.1734491-.289959-.8094293-.5219262-1.7344913-.6959016-2.6017369-.2319672-1.2719603-.4059426-2.601737-.4059426-3.9893301 0-.7516129.0579918-1.5610422.1159836-2.3126551.7538934-6.88014884 4.8133197-12.14143916 9.7426229-12.14143916 4.9293033 0 8.9887295 5.26129032 9.742623 12.14143916.1159836.7516129.1739754 1.5032258.1739754 2.3126551z" fill="#321913"/><path d="m23.7186475 22.0858561c5.0452869 9.7709677 12.8161886 8.6724566 17.397541 0l-8.6407787-1.7344913z" fill="#4b3f51"/><path d="m32.4754098 25.0923077h-.1159836c-2.4936475 0-4.5233606-2.0235732-4.5233606-4.5096774v-3.6424318h9.1627049v3.6424318c0 2.4861042-2.0297131 4.5096774-4.5233607 4.5096774z" fill="#f1c194"/><g transform="translate(23.776639 1.734491)"><path d="m8.58278689.92506204c4.11741801 0 7.42295081 2.71736972 7.13299181 7.5739454-.0579918.57816378-.1159836 1.09851117-.2319672 1.67667496.9278688-.52034741 1.7397541.4047146 1.3918033 1.7923077-.2319673.9828784-.6959017 2.3126551-1.2758197 2.4861042-.6379099.2312655-.8698771-.1734491-.8698771-.1734491-.289959 1.387593-.4059426 2.6595533-.9278688 3.4111662-.5799181.8672457-1.0438525 1.5610422-1.5077869 2.0235732-.9858607 1.1563276-1.7977459 1.4454094-3.65348361 1.4454094-1.85573771 0-2.66762295-.2312655-3.65348361-1.387593-.40594262-.5203474-.92786885-1.1563276-1.50778688-2.0235732-.52192623-.7516129-.63790984-2.0235732-.92786886-3.4111663-.0579918 0-.23196721.4047147-.86987704.1734492-.52192623-.1734492-1.04385246-1.5032258-1.27581968-2.4861042-.34795082-1.3875931.46393443-2.31265514 1.39180328-1.7923077-.1159836-.57816381-.17397541-1.09851121-.23196721-1.67667498-.34795082-4.85657568 2.89959016-7.57394541 7.0170082-7.63176178z" fill="#fccea2"/><path d="m14.5559426 2.37047146c1.5657787 1.85012407 2.0877049 3.87369727 1.4497951 7.68957814-.6379098.3468983-.9278688.8094293-1.1598361 2.7173698-.4639344.1156327-.6379098.1734491-1.0438524.2890818 2.4936475-10.06004959-1.4497951-10.23349872-2.4936476-10.40694785-.869877-.17344913-4.40737701-.17344913-5.27725406.05781638-1.04385246.23126551-4.98729508.46253101-2.37766393 10.46476427-.40594263-.1156328-.57991804-.1734491-1.04385246-.2890819-.23196722-1.9079404-.57991804-2.3126551-1.21782787-2.6595533-.69590164-3.75806456 0-5.666005 1.39180328-7.6895782 1.7397541-2.89081886 8.93073774-3.46898264 11.77233604-.17344914z" fill="#1e1e1c"/></g><g transform="translate(26.096311 11.563275)"><path d="m12.4682377.5203474c-.1739754.17344913-.3479508.46253101-.5219262.7516129h-.4059426c-.1159837.80942928-.4639345 1.38759305-.8698771 1.79230769-.4639344.40471464-.98586065.57816377-1.50778688.57816377-1.10184426 0-2.37766394-.86724566-2.49364754-2.7751861-.17397541-.11563276-.23196722-.17344913-.40594263-.11563276-.17397541 0-.28995901.05781638-.40594262.17344914-.0579918 1.96575682-1.27581967 2.83300248-2.43565574 2.89081885-1.04385246 0-2.14569672-.69379652-2.43565573-2.25483871h-.34795082c-.11598361-.34689826-.28995902-.57816377-.46393443-.69379652h.81188525c.17397541-.46253102.75389344-.57816377.98586065-.63598015.52192623-.11563276 1.15983607-.17344913 1.6817623-.17344913 1.04385246 0 1.73975409.17344913 1.97172131.57816377.17397541-.11563275.28995901-.17344913.57991803-.17344913.23196721 0 .40594262.05781638.57991803.17344913.28995902-.40471464.92786886-.57816377 1.97172132-.63598015.57991803 0 1.15983606.05781638 1.6817623.11563275.2319672.05781638.8118852.17344914 1.0438524.63598015z" fill="#1e1e1c"/><g fill="#fff"><path d="m4.75532787 2.65955335c.40594262-.40471464.69590164-.98287841.69590164-1.85012407 0-.11563275-.11598361-.23126551-.28995902-.28908188 0 .92506203-.17397541 1.61885856-.40594262 2.13920595z" opacity=".2"/><path d="m1.7397541.86724566c0-.17344913.0579918-.28908189.1159836-.40471464-.40594262.11563275-.57991803.28908188-.57991803.52034739.11598361 1.21414392.75389344 1.90794045 1.50778689 2.13920596-.52192623-.40471464-.92786886-1.15632755-1.04385246-2.25483871z" opacity=".2"/><path d="m10.5545082 2.71736973c.4059426-.40471464.6959016-.98287841.6959016-1.85012407 0-.11563276-.1159836-.23126551-.289959-.28908189 0 .86724566-.1739754 1.56104219-.4059426 2.13920596z" opacity=".2"/><path d="m7.48094262.7516129c0-.17344913.05799181-.28908188.11598361-.40471464-.40594262.11563276-.57991803.28908189-.57991803.5203474.1159836 1.21414392.75389344 1.90794044 1.50778688 2.13920595-.52192623-.40471464-.98586065-1.15632754-1.04385246-2.25483871z" opacity=".2"/></g></g><path d="m47.6112705 24.3406948v.0578164c-.0579918.2312655-.0579918.462531-.1159836.6937965-.5219262 3.98933-.7538935 6.7645161-1.1018443 8.9615385-.1159836.8672456-.2319672 1.6188585-.4059426 2.312655 0 .0578164-.0579918.1156328-.0579918.2312655-.1739754.6937966-.2319672 1.3875931-.3479508 2.1970224-.0579918.4047146-.0579918.8672456-.1159836 1.2719603v.5203474.6359801c-.1159836 4.6831266.5219262 10.4069479.0579918 14.1650124h-26.3282787c-.1159836-1.2719603-.1739754-2.7173697-.1159836-4.2784119 0-.3468982 0-.6937965 0-1.0406948 0-.6937965.0579918-1.4454094.0579918-2.1392059 0-.4047147.0579918-.8094293.0579918-1.2141439 0-.0578164 0-.1156328 0-.1734492 0-.6937965.0579918-1.387593.0579918-2.0813896 0-.5203473 0-1.0985111 0-1.6188585s0-1.0406948 0-1.5610422c0-.6359801-.0579918-1.2719603-.0579918-1.8501241 0-.0578163 0-.1734491 0-.2312655 0-.1734491-.0579918-.4047146-.0579918-.5781637 0-.1156328 0-.2312656-.0579918-.3468983-.0579918-.2312655-.0579918-.462531-.1159836-.6937965 0-.1156328-.0579918-.2312655-.0579918-.3468983 0-.0578164 0-.1156328-.0579918-.1734491 0-.1156328-.0579918-.2312655-.0579918-.2890819s-.0579918-.1156328-.0579918-.1734492c-.1739755-.925062-.3479509-1.9657568-.5219263-3.2377171-.289959-2.1392059-.5219262-4.7987593-.9858606-8.3833747 0-.1156327-.0579918-.2890818-.0579918-.4047146 1.2178278-.5203474 2.8415983-1.2141439 4.4653688-1.9657568.289959-.1156328.6379099-.2890819.9278689-.4047147.1739754-.0578163.3479508-.1734491.4639344-.2312655 1.2178279 2.9486353 3.1315574 5.0300248 5.3932377 6.0707196 1.1018443.5203474 2.3196721.8094293 3.5375.8094293 3.3055328 0 6.7270492-2.0813896 8.9887295-6.591067.1159836-.2312655.2319672-.462531.3479508-.6937965.3479509.1734491.6959017.3468982 1.0438525.5203474.2319672.1156327.4639344.2312655.6959016.3468982 1.7397541.6359802 3.4215164 1.4454095 4.5813525 1.9079405z" fill="#4b3f51"/><g transform="translate(.579918 5.203474)"><path d="m12.6422131 8.78808933-.8118852 1.79230767-.289959.6359802c-.1159837.2890819-.1739755.5203474-.2899591.7516129-.5219262 1.2141439-1.33381144 1.9079404-2.4356557 2.9486352l-3.13155738-.1156327-2.08770492-.5781638-1.39180328-4.62531019-1.21782786-2.37047146-.05799181-.34689827-.40594262-2.25483871c-.0579918-.28908188.11598361-.57816377.40594262-.69379652.40594263-.17344913.81188525 0 .92786885.40471464l.23196722.92506203.28995901.98287841.92786886 1.56104219.17397541-.17344913-1.10184427-3.58461539.46393443-1.32977667.40594262-1.15632755c.11598361-.28908188.46393443-.52034739.75389345-.46253101.34795082.05781637.52192623.34689826.52192623.63598015v.17344913l-.40594263 1.79230769 1.04385246 2.83300248.28995902-.23126551-.46393443-2.83300248.63790984-2.31265509.17397541-.52034739c.1159836-.34689826.46393442-.57816377.86987705-.5203474.40594262.05781638.63790983.46253102.57991803.86724566l-.0579918.46253102-.28995902 1.79230769.40594262 2.60173697.34795082.05781638.34795082-2.71736973.81188525-1.15632754.57991803-.80942928c.11598361-.17344913.34795082-.28908188.57991803-.28908188.11598364 0 .28995904.05781637.40594264.11563275.3479508.23126551.4639344.63598015.2319672.98287841l-.4639344.86724566-.57991806 1.09851116v1.15632755.05781638 1.15632754l.23196721 3.12208437s.40594265-.69379653.92786885-1.2719603c.289959-.34689826.6379098-.7516129.8698771-.92506204 1.7397541-1.21414392 3.4215163-.40471464 1.0438524 1.50322581z" fill="#4b3f51"/><path d="m9.22069672 13.0086849-.11598361.6359801-.28995901 1.2141439-.75389344 3.7002482-5.04528689-1.0406948.57991803-3.3533499.23196722-1.2719603.0579918-.2312655 2.08770492.1156328h.1159836z" fill="#4b3f51"/><g fill="#1e1e1c"><path d="m11.8303279 10.580397-.289959.6359802c-.1159837.2890819-.1739755.5203474-.2899591.7516129-.5219262 1.2141439-1.33381144 1.9079404-2.4356557 2.9486352l-.28995902 1.3297767-.46393442 2.3704714-5.10327869-1.0406947.46393442-2.6595534.11598361-.6937965-1.39180328-4.62531019-1.21782787-2.37047146-.0579918-.34689827 2.26168033 3.81588092.63790983 2.2548387.11598361.5203474 2.66762295.8094293 2.08770492-.1734492.34795082-.4047146 1.85573769-2.139206.289959-.2890819.4059427-.462531z" opacity=".2"/><path d="m4.00143443 7.40049628-.81188525.7516129-.86987705-1.67667494-.23196721-1.21414392.28995901.98287841.92786886 1.50322581.17397541-.17344913-1.10184427-3.58461539.46393443-1.32977667-.0579918 1.32977667z" opacity=".2"/><path d="m5.45122951 3.35334988.57991803 3.00645161s-1.15983606.52034739-1.33381147.69379652l-.92786886-3.46898263s.69590164-1.79230769.75389345-1.79230769v.17344913l-.40594263 1.7923077 1.04385246 2.83300248.28995902-.23126551-.46393443-2.83300248.63790984-2.31265509c.17397541-.05781638-.17397541 2.13920596-.17397541 2.13920596z" opacity=".2"/><path d="m8.8727459 1.96575682-.46393442 1.50322581-.52192623 2.71736973-.92786886-.17344913-.17397541-2.08138958-.1159836-.92506204.57991803-1.56104218-.28995902 1.79230769.40594263 2.60173697h.34795082l.34795082-2.71736972z" opacity=".2"/><path d="m11.192418 10.4069479-1.44979505-.1734491c-.81188525 0-1.62377049.4047146-2.31967213 1.1563275l-1.50778689 1.6188586.75389345-1.7923077-.69590164-.8672457c-.46393443-.57816376-1.10184426-.9828784-1.7977459-1.15632753l-.92786886-.28908189h1.04385246c.86987705 0 1.6817623.34689827 2.37766394.92506204l.81188524.69379648.40594263-.2890818c.92786885-.63598019 1.50778688-1.67667498 1.62377049-2.77518614l.23196721-2.42828785v1.15632755l.23196721 3.12208436z" opacity=".2"/></g></g><path d="m22.9647541 35.3258065s-1.0438525.2312655-2.6096311.6359801c-.4639345.1156328-.9858607.2312655-1.5657787.4047146-.1159836.0578164-.2899591.0578164-.4059427.1156328s-.289959.0578164-.4059426.1156327c-.8118852.1734492-1.6817623.4047147-2.4936475.6359802-.289959.0578164-.5799181.1156328-.8118853.2312655-.1739754.0578164-.4059426.1156328-.579918.1156328-.1739754.0578163-.3479508.0578163-.5219262.1156327-.1159836.0578164-.2319672.0578164-.3479509.1156328-1.6817622.4047146-3.0735655.7516129-3.82745897.925062-.0579918 0-.11598361 0-.11598361.0578164-.0579918 0-.1159836.0578164-.17397541.0578164-.0579918 0-.0579918 0-.0579918 0-.11598361 0-.17397541.0578163-.17397541.0578163-4.40737705 1.0406948-7.30696721.5781638-8.17684426-2.6595533-.40594262-1.5032258-.34795082-3.7002482.23196721-6.591067l2.55163935-9.655335.63790983.1734491 5.10327869 1.3297767.28995902.0578164v7.3426799l3.47950816-2.0235732 3.6534836-2.139206.6959017-.4047146.2319672.4047146z" fill="#4b3f51"/><g transform="translate(50.452869 4.62531)"><path d="m13.3381148 5.20347395-.4059427 2.25483871-.0579918.34689826-1.2178278 2.37047148-1.3918033 4.6253102-2.08770494.5781637-3.13155737.1156328c-1.10184427-1.0406948-1.85573771-1.676675-2.37766394-2.8330025-.11598361-.2312655-.23196721-.5203474-.34795082-.8672457l-.28995902-.6359801-.81188524-1.7923077c-2.43565574-1.96575682-.69590164-2.7751861.86987705-1.61885856.28995901.17344913.63790983.57816377.92786885.98287841.46393443.63598015.86987705 1.21414392.86987705 1.21414392l.23196721-3.12208436v-1.15632755-.05781637-1.15632755l-.52192623-1.04069479-.52192623-.92506203c-.17397541-.34689826-.0579918-.7516129.23196722-.98287841.1159836-.05781638.28995901-.11563276.46393442-.11563276s.40594263.11563276.52192623.28908189l.57991804.80942928.81188524 1.15632754.34795082 2.71736973.34795082-.05781638.40594262-2.60173697-.28995901-1.79230769-.05799181-.46253102c-.0579918-.40471464.17397541-.80942928.57991804-.86724566.34795082-.05781637.75389344.17344913.86987705.5203474l.17397541.52034739.63790983 2.31265509-.46393442 2.83300248.28995901.23126551 1.04385246-2.83300248-.40594262-1.7923077c0-.05781637 0-.11563275 0-.17344913 0-.28908188.23196721-.57816377.52192623-.63598015.34795085-.05781637.63790985.11563276.75389345.46253102l.4059426 1.15632754.4639344 1.32977668-1.1018442 3.58461538.1739754.17344914.9278688-1.56104219.2899591-.98287841.2319672-.92506203c.1159836-.40471464.579918-.57816378.9278688-.40471464.4639344.2312655.6379099.52034739.5799181.80942928z" fill="#4b3f51"/><path d="m4.63934426 13.5868486.11598361.6359802.23196721 1.2141439.81188525 3.7002481 5.04528687-1.0406947-.579918-3.3533499-.28995904-1.2719603v-.2312655l-2.08770491.1156327h-.11598361z" fill="#4b3f51"/><g fill="#1e1e1c"><path d="m12.9321721 7.45831266-.0579918.34689826-1.2178278 2.37047148-1.3918033 4.6253102.1159836.6937965.4639344 2.6595533-5.10327868 1.0406948-.46393442-2.3704714-.28995902-1.3297767c-1.10184426-1.0406948-1.8557377-1.676675-2.37766393-2.8330025-.11598361-.2312655-.23196722-.5203474-.34795082-.8672457l-.28995902-.6359801.23196721.2312655.46393443.462531.23196721.2312655 1.85573771 2.139206.34795082.4047146 2.08770492.1734492 2.66762295-.8094293.1159836-.5203474.63790984-2.2548387z" opacity=".2"/><path d="m9.85860656 7.97866005.81188524.7516129.8698771-1.67667494.2319672-1.21414392-.2899591.98287842-.9278688 1.5032258-.1739754-.17344913 1.0438524-3.58461538-.4059426-1.32977668.0579918 1.32977668z" opacity=".2"/><path d="m8.35081967 3.93151365-.57991803 3.00645161s1.15983606.5203474 1.33381147.69379653l.92786889-3.46898263s-.69590167-1.7923077-.75389348-1.7923077v.17344914l.40594263 1.79230769-1.04385246 2.83300248-.28995902-.23126551.46393443-2.83300248-.63790984-2.31265509c-.1159836-.05781637.17397541 2.13920596.17397541 2.13920596z" opacity=".2"/><path d="m4.98729508 2.5439206.46393443 1.5032258.52192623 2.71736973.86987705-.17344913.23196721-2.08138958.0579918-.92506204-.52192623-1.56104218.28995902 1.79230769-.40594262 2.60173698h-.34795082l-.34795082-2.71736973z" opacity=".2"/></g><path d="m2.66762295 10.9851117 1.44979508-.1734492c.81188525 0 1.62377049.4047147 2.31967213 1.1563276l1.50778689 1.6188585-.75389344-1.7923077.69590164-.8672456c.46393442-.5781638 1.10184426-.98287843 1.7977459-1.15632756l.92786885-.28908188h-1.04385246c-.86987705 0-1.68176229.34689826-2.37766393.92506204l-.81188525.6937965-.40594262-.2890819c-.92786885-.6359801-1.50778689-1.67667491-1.62377049-2.77518607l-.23196722-2.42828784v1.15632754l-.23196721 3.12208437z" fill="#443845"/></g><path d="m64.4288934 34.8054591c-.3479508 4.451861-3.4215164 5.2034739-8.4088114 4.0471464 0 0 0 0-.0579918 0s-.0579918 0-.1159836-.0578164c-.1159836 0-.2319673-.0578164-.4059427-.1156328-.0579918 0-.0579918 0-.1159836-.0578163-.9278688-.2312656-2.6096311-.6359802-4.5813524-1.0985112-.4059427-.1156328-.8118853-.1734491-1.2178279-.2890819-.1739754-.0578164-.4059426-.1156328-.6379098-.1734491-1.0438525-.2312655-2.0297132-.5203474-2.957582-.7516129-.7538934-.1734492-1.3918033-.3468983-2.0297131-.5203474-1.2758197-.2890819-2.1456967-.5203474-2.1456967-.5203474l2.0877049-3.9893301 3.247541-6.2441687.3479508-.6937965.0579918-.0578164 2.8995901 1.6766749 1.5077869.8672457 3.4215164 1.9657568v-7.3426799l.289959-.0578163 5.1032787-1.3297767.6379099-.1734492 2.5516393 9.655335c.5219262 2.139206.6379098 3.8736973.5219262 5.2612904z" fill="#4b3f51"/><path d="m43.6678279 15.783871v.6359801c0 .8094293-.1159836 1.6188586-.1739754 2.3704715-.0579918-.2312655-.0579918-.5203474-.1159836-.7516129-.2319673-1.2719603-.5799181-2.3126551-1.0438525-3.1799008-.1159836-.2312655-.2319672-.462531-.4059426-.6359801-.0579918-.1156328-.1739754-.2312655-.2319672-.3468983-.0579918-.0578164-.0579918-.0578164-.1159836-.1156327 0-.0578164-.0579919-.0578164-.0579919-.1156328-.0579918-.0578164-.0579918-.1156327-.1159836-.1734491s-.0579918-.0578164-.1159836-.1156328-.0579918-.0578164-.1159836-.1156327c-.0579918-.0578164-.0579918-.1156328-.1159836-.1156328 0 0-.0579918-.0578164-.0579918-.0578164s-.0579918-.0578163-.0579918-.0578163c-.0579918-.0578164-.0579918-.0578164-.1159836-.1156328 0 0-.0579918-.0578164-.0579918-.0578164-.0579918-.0578163-.1159836-.1156327-.1739754-.1734491-.0579918-.0578164-.1159836-.0578164-.1739754-.1156328 0 0-.0579918-.0578163-.0579918-.0578163-.2319672-.1734492-.5219262-.3468983-.8118853-.5203474-.0579918-.0578164-.1159836-.0578164-.1159836-.0578164s-.0579918 0-.0579918-.0578164c-.3479508-.1734491-.6959016-.3468982-1.1018442-.462531-.1159836-.0578164-.2319672-.0578164-.3479509-.1156328-.0579918 0-.0579918 0-.1159836-.0578163-.0579918 0-.0579918-.0578164-.1159836-.0578164-.2319672-.0578164-.4639344-.1156328-.6959016-.1734491-.2319672-.0578164-.4639344-.1156328-.6959016-.1156328-.0579919 0-.1739755 0-.2319673-.0578164h-.0579918c-.289959-.0578163-.5219262-.0578163-.8118852-.1156327-.1159836 0-.289959 0-.4059426-.0578164-.2319672 0-.4639345-.0578164-.7538935-.0578164-.0579918 0-.0579918 0-.1159836 0-.2319672 0-.4639344 0-.6959016 0-.289959 0-.5219263 0-.8118853 0s-.5219262 0-.8118852 0c-.2319672 0-.4639344 0-.6379098 0-.0579919 0-.0579919 0-.1159837 0-.2319672 0-.4059426 0-.6379098.0578164-.4059426.0578164-.8118852.0578164-1.2178279.1156328-.0579918 0-.0579918 0-.0579918 0-.2319672.0578163-.4639344.0578163-.7538934.1156327-.0579918 0-.1739754.0578164-.2319672.0578164-.1159836 0-.2319672.0578164-.3479508.0578164-.1739754.0578163-.2899591.0578163-.4639345.1156327s-.3479508.1156328-.4639344.1734491c-.0579918 0-.0579918.0578164-.1159836.0578164s-.1159836.0578164-.2319672.0578164c-.1159836.0578164-.1739754.0578164-.289959.1156328-.1159836.0578163-.1739754.0578163-.2319672.1156327s-.1159836.0578164-.1739755.1156328c-.0579918 0-.1159836.0578163-.1739754.0578163-.0579918 0-.0579918.0578164-.1159836.0578164-.0579918.0578164-.1159836.0578164-.2319672.1156328-.0579918.0578164-.1159836.0578164-.1739754.1156327-.0579918.0578164-.1159836.1156328-.1739754.1156328-.1159836.0578164-.1739754.1156327-.289959.2312655-.1159836.0578164-.1739754.1734491-.289959.2312655-.0579918.0578164-.1159836.1156328-.1739754.1734491 0 0-.0579918.0578164-.0579918.0578164-.0579918.0578164-.1159837.1156328-.1739755.1734491-.0579918.0578164-.1739754.1734492-.2319672.2312655-.0579918.0578164-.0579918.0578164-.1159836.1156328s-.0579918.0578164-.1159836.1156328v.0578163c-.0579918.0578164-.1159836.1156328-.1739754.2312655-.1159836.1156328-.1739754.2890819-.289959.4047147-.0579918.0578164-.1159836.1734491-.1159836.2312655-.0579918.0578164-.0579918.1734491-.1159836.2312655-.4059426.8094293-.7538935 1.7923077-.9858607 2.9486352-.0579918.2890819-.1159836.6359802-.1739754.9828784-.1159836-.7516129-.1739754-1.5610421-.1739754-2.3704714 0-.1734491 0-.3468983 0-.5203474v-.1156328c0-8.61464016 5.0452869-15.6104218 11.2504098-15.6104218 6.0891394 0 11.0184427 6.70669975 11.2504099 15.0322581-.1159836.4047146-.1159836.5781637-.1159836.7516129z" fill="#4b3f51"/><g fill="#1e1e1c"><path d="m26.0383197 29.5441687c-.7538935-1.0985111-1.6817623-2.0235732-2.7256148-2.7751861-.8118852-.5781637-1.7397541-1.0985111-2.7256147-1.4454094-.9858607-.3468983-2.0297132-.5781638-3.1315574-.6359801-.0579918 0-.1159836 0-.1739754 0-.2319672 0-.4639344 0-.6959017 0l.6959017-.4047147c1.2178278-.5203474 2.8415983-1.2141439 4.4653688-1.9657568-.4059426-1.6188586-.579918-3.3533499-.579918-5.203474 0-.2312655 0-.5203474 0-.7516129 0-.1734491 0-.3468982 0-.5203474v.1156328c.1159836.5781638.2319672 1.2141439.3479508 1.7923077.289959 1.387593.6959017 2.7751861 1.1018443 4.1049628.9278688 2.7751861 2.0297131 5.3191067 3.4215164 7.6895781z" opacity=".2"/><path d="m50.5108607 26.0173697c-.9858607-.4047146-2.0297132-.7516129-3.0155738-.925062-.0579918 0-.1739754 0-.289959-.0578164-.5219263-.0578164-1.0438525-.0578164-1.5657787 0-1.2178279.2312655-2.5516394.5203474-3.827459 1.0406948-.9278689.3468983-1.8557377.8094293-2.5516394 1.3875931 1.4497951-1.6188586 2.4936476-3.5846154 3.1315574-5.6081886.1739754-.6359802.3479508-1.2141439.5219262-1.8501241.1739754-.6359801.289959-1.3297767.4059426-1.9657568.1159837-.8094293.2319673-1.5610422.2899591-2.3704715 0-.1734491.0579918-.2890819.0579918-.462531v.5203474.6359801.7516129c0 1.7344914-.1739754 3.4689827-.5799181 5.0300249 1.6237705.8094292 3.3635246 1.6188585 4.4653689 2.0813895v.0578164l.0579918-.0578164z" opacity=".2"/><g opacity=".2" transform="translate(.579918 30.064516)"><path d="m27.2561475 25.2657568h-8.5827868c-.1159837-1.2719603-.1739755-2.7173697-.1159837-4.2784119 0-.3468982 0-.6937965 0-1.0406948 0-.6937965.0579919-1.4454094.0579919-2.1392059 0-.4047147.0579918-.8094293.0579918-1.214144 0-.0578163 0-.1156327 0-.1734491 0-.6937965.0579918-1.387593.0579918-2.0813896 0-1.0985111.0579918-2.1392059 0-3.1799007 0-.6359802-.0579918-1.2719603-.0579918-1.85012408 0-.05781637 0-.17344913 0-.2312655 0-.17344914-.0579918-.40471464-.0579918-.57816378 0-.11563275 0-.2312655-.0579919-.34689826-.0579918-.23126551-.0579918-.46253102-.1159836-.69379652 0-.11563276-.0579918-.23126551-.0579918-.34689827 0-.05781638 0-.11563275-.0579918-.17344913 0-.11563275-.0579918-.23126551-.0579918-.28908189 0-.05781637-.0579918-.11563275-.0579918-.17344913-.1159836.05781638-.289959.05781638-.4059426.11563276-.1159836.05781637-.289959.05781637-.4059426.11563275-.8118853.17344913-1.6817623.40471464-2.4936476.63598015-.289959.05781638-.579918.11563276-.8118852.23126551-.1739754.05781638-.4059426.11563275-.579918.11563275-.1739754.05781638-.3479509.05781638-.5219263.11563276-.1159836.05781638-.2319672.05781638-.3479508.11563275-1.6817623.40471464-3.07356556.75161291-3.827459.92506204-.0579918 0-.11598361 0-.11598361.05781637-.0579918 0-.1159836.05781638-.17397541.05781638-.0579918 0-.0579918 0-.0579918 0-.11598361 0-.17397541.05781638-.17397541.05781638-4.40737705 1.04069476-7.30696721.57816377-8.17684426-2.65955335 4.17540983 1.85012407 9.10471311 1.85012407 13.28012299.05781638.6959016-.28908189 1.3338114-.63598015 1.9717213-1.04069479.869877-.5203474 1.7397541-1.21414392 2.3776639-2.08138958.6379098-.80942928 1.1018443-1.79230769 1.1018443-2.83300248.3479508 1.90794044.6379098 3.75806451.9858606 5.66600496.289959 1.61885856.5799181 3.17990074.8118853 4.79875932.0579918.1156327.1159836.2890819.1739754.4047146 1.2178278 2.3704715 2.8415983 4.5674938 4.8713115 6.3019851-1.7977459-.5781637-3.3635246-1.6766749-4.4653689-3.1799007.1739754.925062.3479508 1.7923077.5219262 2.7173697 1.7977459 2.3704715 4.1754099 4.3362283 6.8430328 5.666005-2.0297131-.0578164-4.0014344-.8094293-5.5092213-2.139206 1.1018443 1.6188586 2.4936475 3.1799008 4.1754098 4.5674938z"/><path d="m63.8489754 4.74094293c-.3479508 4.45186104-3.4215164 5.20347394-8.4088115 4.0471464 0 0 0 0-.0579918 0 0 0-.0579918 0-.1159836-.05781638-.1159836 0-.2319672-.05781637-.4059426-.11563275-.0579918 0-.0579918 0-.1159836-.05781638-.9278689-.23126551-2.6096312-.63598015-4.5813525-1.09851116-.4059426-.11563276-.8118852-.17344914-1.2178278-.28908189-.1739754-.05781638-.4059427-.11563276-.6379099-.17344913-1.0438524-.23126551-2.0297131-.5203474-2.9575819-.75161291 0 .05781638-.0579918.11563276-.0579918.23126551-.1739754.69379653-.2319673 1.38759306-.3479509 2.19702234-.0579918.40471464-.0579918.86724565-.1159836 1.27196029v.52034743.6359801c-.1159836 4.6831266.5219263 10.4069479.0579918 14.1650124h-5.9151639c1.3918033-2.0235732 2.3196721-4.3362283 2.957582-6.7066997 0-.0578164.0579918-.1156328.0579918-.1734492-.4639345.5203474-1.0438525.9250621-1.6237705 1.3297767-1.2178279.8094293-2.6096312 1.3297767-4.0014344 1.8501241 3.0735655-1.9657568 5.3352459-5.0300248 6.4950819-8.4990075.0579918-.6359801.1159836-1.2719603.1739754-1.9079404.1159836-1.73449132.1739754-3.41116626.2319672-5.14565757 0-.05781638 0-.11563276 0-.17344914.0579918-1.5032258.1159837-2.94863523.1739755-4.45186104.5219262 1.04069479 1.3338114 1.96575683 2.2616803 2.65955335.6379098.46253102 1.2758197.86724566 1.9717213 1.15632755.8118852.40471464 1.6817623.63598014 2.6096311.86724565.9858607.23126551 2.0297132.40471464 3.0155738.57816377 2.3196721.40471464 4.6973361.69379653 6.9590164.11563276 1.3918033-.34689826 2.667623-1.04069479 3.5954918-2.0235732z"/></g></g></g><g transform="translate(12.178279 54.347395)"><path d="m38.1586066 20.3513648c0 .7516129-.4639345 1.387593-1.1018443 1.387593h-33.63524591c-.63790983 0-1.15983606-.6359801-1.10184426-1.387593v-.7516129h35.78094267z" fill="#878787"/><path d="m40.3622951 1.32977667-1.4497951 11.96799003-.7538934 6.3598015h-35.78094267l-.75389344-6.3019851-1.44979508-12.02580643z" fill="#b3b2b2"/><path d="m40.3043033.23126551h-40.07233609l-.0579918 1.09851116h40.18831969z" fill="#878787"/><path d="m36.5348361 20.0044665h-32.70737708l.0579918-.5203474h32.59139348z" fill="#727070"/></g><path d="m40.7102459 26.1330025c-.0579918-.0578164-.1159836-.1156328-.1739754-.1734492-.0579918-.0578163-.1159836-.0578163-.1739754-.1156327 0 0-.0579918-.0578164-.0579918-.0578164-.2319672-.1734491-.5219263-.3468982-.8118853-.5203474-.0579918-.0578164-.1159836-.0578164-.1159836-.0578164s-.0579918 0-.0579918-.0578163c-.3479508-.1734492-.6959016-.3468983-1.1018442-.462531-.1159836-.0578164-.2319673-.0578164-.3479509-.1156328-.0579918 0-.0579918 0-.1159836-.0578164-.0579918 0-.0579918-.0578164-.1159836-.0578164-.2319672-.0578163-.4639344-.1156327-.6959016-.1734491s-.4639344-.1156327-.6959017-.1156327c-.0579918 0-.1739754 0-.2319672-.0578164h-.0579918c-.289959-.0578164-.5219262-.0578164-.8118852-.1156328-.1159836 0-.289959 0-.4059426-.0578164-.2319672 0-.4639345-.0578163-.7538935-.0578163-.0579918 0-.0579918 0-.1159836 0-.2319672 0-.4639344 0-.6959016 0-.289959 0-.5219263 0-.8118853 0s-.5219262 0-.8118852 0c-.2319672 0-.4639344 0-.6379099 0-.0579918 0-.0579918 0-.1159836 0-.2319672 0-.4059426 0-.6379098.0578163-.4059426.0578164-.8118852.0578164-1.2178279.1156328-.0579918 0-.0579918 0-.0579918 0-.2319672.0578164-.4639344.0578164-.7538934.1156328-.0579918 0-.1739754.0578163-.2319672.0578163-.1159836 0-.2319672.0578164-.3479508.0578164-.1739755.0578164-.2899591.0578164-.4639345.1156328-.1739754.0578163-.3479508.1156327-.4639344.1734491-.0579918 0-.0579918.0578164-.1159836.0578164s-.1159836.0578164-.2319672.0578164c-.1159836.0578163-.1739754.0578163-.289959.1156327-.1159836.0578164-.1739754.0578164-.2319672.1156328-.0579918.0578163-.1159837.0578163-.1739755.1156327-.0579918 0-.1159836.0578164-.1739754.0578164-.0579918 0-.0579918.0578164-.1159836.0578164-.0579918.0578163-.1159836.0578163-.2319672.1156327-.0579918.0578164-.1159836.0578164-.1739754.1156328-.0579918.0578164-.1159836.1156327-.1739754.1156327-.1159836.0578164-.1739754.1156328-.289959.2312655-.1159836.0578164-.1739754.1734492-.289959.2312655s-.0579918 0-.0579918.0578164c0 .2890819 0 .6359802.1159836.9250621.2319672.9828784.7538934 2.2548387 1.2758196 2.4861042.6379099.2312655.8698771-.1734492.8698771-.1734492.0579918.2312656.1159836.4625311.1159836.6937966 1.7397541-.6937966 3.7694672-.9250621 5.9151639-.9828784 1.3338115 0 2.5516394 0 3.7114754.1734491.8118853.1156327 1.5657787.2890819 2.2616804.5781638.0579918-.1734492.0579918-.3468983.1159836-.5781638 0 0 .1159836.1734491.289959.2312655h.0579918.1159836.0579918.1159836c.0579918 0 .1739754-.0578164.2319672-.0578164s.1159836-.0578164.2319672-.1156327c.4639345-.4047147.8698771-1.5032258 1.0438525-2.3704715.1159836-.1734491.1739754-.462531.1159836-.6937965z" fill="#321913"/><g fill="#fff" transform="translate(28.415984 58.972705)"><path d="m7.1329918 8.38337469c0-.05781638-.0579918-.11563275-.1159836-.11563275-.11598361-.11563276-.23196722-.28908189-.34795082-.40471464-.11598361-.11563276-.17397541-.23126551-.17397541-.40471464 0-.17344914-.05799181-.40471465-.11598361-.57816378 0-.11563275-.0579918-.11563275-.17397541-.05781637-.0579918 0-.11598361.05781637-.11598361.05781637-.1159836.11563276-.23196721.23126551-.28995901.40471464-.05799181.11563276-.11598361.23126551-.17397541.28908189-.11598361.17344913-.28995902.28908189-.52192623.34689826-.57991803.28908189-2.66762295 1.15632755-3.13155738 1.38759305-.23196721.11563276-.46393442.17344914-.75389344.17344914-.17397541 0-.40594262-.05781638-.57991803-.05781638-.11598361 0-.23196722 0-.28995902 0-.11598361 0-.11598361.11563275-.0579918.17344913 0 .05781638.0579918.05781638.0579918.11563275.17397541.17344914.28995902.34689824.46393443.46253104 0 0 .0579918.0578164.0579918.0578164 0 .0578163 0 .1734491.0579918.2312655 0 .1734491.05799181.2890819.11598361.462531 0 .1156327.11598361.1156327.17397541.0578164.0579918-.0578164.11598361-.0578164.17397541-.1156328.17397541-.2312655.34795082-.462531.52192623-.6937965 0-.0578164.0579918-.0578164.1159836-.0578164.52192623-.2312655 3.13155738-1.32977667 3.76946722-1.61885856.1159836-.05781637.28995901-.05781637.46393442 0 .17397541 0 .28995902.05781638.46393443.05781638s.28995902 0 .46393443-.05781638c-.05799181 0 0 0-.05799181-.11563275z"/><path d="m.23196721 8.15210918c0-.05781638.05799181-.05781638.05799181-.11563275.1159836-.11563276.23196721-.23126551.34795082-.34689827.1159836-.11563275.17397541-.2312655.17397541-.40471464 0-.17344913.0579918-.34689826.1159836-.57816377 0-.05781638.05799181-.11563275.17397541-.05781638.05799181 0 .11598361.05781638.11598361.05781638.11598361.11563276.23196721.23126551.28995902.40471464.0579918.11563276.1159836.23126551.17397541.28908189.1159836.17344913.28995901.28908188.52192622.40471464.57991804.28908188 2.66762296 1.38759305 3.13155738 1.61885856.23196721.11563275.52192623.23126551.75389344.23126551h.63790984c.11598361 0 .23196721 0 .34795082.05781637.11598361.05781638.11598361.11563276.0579918.17344914 0 .05781637-.0579918.05781637-.0579918.1156328-.17397541.1734491-.34795082.2890818-.52192623.462531 0 0-.0579918.0578163-.0579918.0578163 0 .0578164 0 .1734492-.05799181.2312656-.0579918.1734491-.0579918.2890818-.1159836.462531 0 .1156327-.11598361.1156327-.17397541.0578163-.05799181-.0578163-.11598361-.1156327-.17397541-.1734491-.17397541-.2312655-.34795082-.5203474-.52192623-.7516129 0-.0578164-.05799181-.0578164-.11598361-.0578164-.52192623-.2890818-3.13155738-1.61885852-3.76946721-1.90794041-.11598361-.05781638-.28995902-.05781638-.40594262-.05781638-.17397541 0-.28995902.05781638-.46393443.05781638s-.28995902 0-.46393443-.05781638c-.0579918-.05781637-.0579918-.11563275 0-.17344913z"/><path d="m7.075 2.83300248c-.0579918-.63598015-.34795082-1.15632754-.81188525-1.61885856-.40594262-.34689826-.81188524-.52034739-1.33381147-.63598015-.40594262-.11563275-.86987705-.17344913-1.27581967-.17344913-.40594263 0-.86987705.05781638-1.27581968.17344913-.46393442.11563276-.92786885.28908189-1.27581967.63598015-.46393442.40471464-.75389344.92506204-.75389344 1.56104218-.0579918.63598015.11598361 1.21414392.46393443 1.7923077 0 0 0 .05781637.0579918.05781637l.28995902.40471464c-.05799181.23126551-.05799181.46253102-.05799181.69379653.05799181.34689826.17397541.57816377.52192623.69379653.05799181 0 .05799181 0 .05799181.05781637.1159836.05781638.23196721.05781638.34795081.11563276.23196722.11563275.46393443.28908188.57991804.57816377 0 .05781638.0579918.17344913.0579918.23126551 0 0 0 .05781638.0579918.05781638.17397541.05781637.28995902.05781637.46393443.05781637h.57991803.57991804c.17397541 0 .28995901-.05781637.46393442-.05781637 0 0 .05799181-.05781638.05799181-.05781638 0-.05781638 0-.17344913.0579918-.23126551.11598361-.28908189.28995902-.46253102.57991803-.57816377.11598361-.05781638.23196721-.05781638.34795082-.11563276h.11598361c.34795082-.11563275.46393442-.34689826.52192623-.69379652.0579918-.23126551 0-.46253102-.05799181-.69379653l.28995902-.40471464s.0579918-.05781638.0579918-.05781638c.17397541-.46253101.34795082-1.09851116.28995902-1.79230769zm-4.58135246 2.89081886c-.17397541.11563275-.34795082.17344913-.52192623.11563275-.17397541-.05781637-.34795082-.17344913-.46393442-.34689826-.11598361-.17344913-.17397541-.34689826-.23196722-.57816377-.0579918-.23126551.05799181-.46253102.28995902-.52034739.17397541-.05781638.34795082-.05781638.52192623-.11563276h.1159836c.11598361 0 .28995902 0 .40594263-.05781638.23196721 0 .34795082.23126551.40594262.40471464 0 .17344914 0 .28908189-.0579918.40471464-.05799181.23126551-.23196722.46253102-.46393443.69379653zm1.04385246.98287841v.05781638c-.0579918.05781638-.11598361.11563275-.17397541.17344913 0 0-.0579918.05781638-.0579918.05781638-.05799181.05781637-.11598361 0-.17397541-.05781638-.05799181-.05781638-.05799181-.11563275-.05799181-.23126551 0-.23126551 0-.52034739.11598361-.7516129.11598361-.17344913.23196721-.28908189.34795082-.46253102 0 0 .0579918-.05781638.11598361-.05781638v.17344914c-.11598361.40471464-.11598361.7516129-.11598361 1.09851116zm.69590164.17344913c0 .05781638-.0579918.11563276-.11598361.17344913 0 0-.0579918 0-.1159836 0-.11598361-.05781637-.23196722-.17344913-.28995902-.28908188 0 0 0 0 0-.05781638 0-.34689826 0-.7516129 0-1.09851116v-.05781638c.0579918 0 .0579918.05781638.11598361.05781638.17397541.17344913.28995901.34689826.40594262.57816377 0 .05781637.0579918.11563275.0579918.17344913-.0579918.17344913-.0579918.34689826-.0579918.52034739zm1.7397541-1.90794044c-.11598361.23126551-.17397541.40471464-.28995902.63598015-.11598361.2312655-.34795082.28908188-.63790983.28908188-.11598361 0-.23196722-.05781638-.28995902-.11563275-.28995902-.23126551-.46393443-.5203474-.57991803-.86724566-.05799181-.23126551 0-.40471464.1159836-.57816377.05799181-.11563276.17397541-.11563276.28995902-.11563276.34795082.05781638.69590164.05781638.98586065.17344914.23196722.05781637.40594263.2312655.40594263.46253101z"/></g><g fill="#d52e1e" transform="translate(12.758197)"><path d="m21.225 1.90794045c0 .80942928-.4639344 3.81588089-.9858607 3.81588089-.5219262 0-.9858606-2.94863524-.9858606-3.81588089 0-.80942928.4639344-1.50322581.9858606-1.50322581.5219263 0 .9858607.63598015.9858607 1.50322581z"/><path d="m33.4612705 6.47543424c-.6379098.5203474-2.6096312 2.83300248-2.2616803 3.23771712.3479508.40471464 2.8995901-1.21414392 3.5375-1.73449131.6379098-.52034739.869877-1.32977668.5219262-1.73449132-.3479508-.46253101-1.1598361-.34689826-1.7977459.23126551z"/><path d="m38.2745902 19.7153846c-.8118853.1156328-3.8274591.0578164-3.8854509-.5203474-.0579918-.5203474 2.8415984-1.3297767 3.6534837-1.4454094.8118852-.1156328 1.5657786.2312655 1.6237704.8094293.0579918.5781637-.579918 1.0985111-1.3918032 1.1563275z"/><path d="m8.06086066 5.49255583c.63790983.5203474 2.72561474 2.71736973 2.37766394 3.12208437s-2.95758198-1.04069479-3.59549181-1.56104219c-.63790984-.52034739-.92786886-1.27196029-.57991804-1.67667493.34795082-.46253102 1.15983607-.40471464 1.79774591.11563275z"/><path d="m1.7977459 17.633995c.81188525.1156328 3.82745902.0578164 3.88545082-.5203474.0579918-.5203474-2.84159836-1.3297766-3.65348361-1.4454094-.81188524-.1156327-1.56577868.2312655-1.62377049.8094293 0 .5203474.57991804 1.0406948 1.39180328 1.1563275z"/></g></g></g></g><path d="m64.3129098 160.960794h11.4243853s5.2192623 0 5.2192623-5.203474v-77.4739453s0-5.203474 5.2192623-5.203474h6.785041" stroke="#d52e1e" stroke-width="2"/><g transform="translate(64.95082)"><g transform="translate(24.356557 24.861042)"><path d="m60.1375 3.46898263c-.1739754-.11563275-.4059426-.23126551-.6379098-.34689826-1.1598361-.57816377-2.7256148-1.21414392-4.8133197-1.73449132-4.8133197-1.21414392-12.1782787-1.96575682-23.1387295-.46253101-9.3946721 1.32977667-16.1797131 3.58461538-20.935041 5.78163771-2.43565574 1.15632755-4.29139344 2.25483871-5.79918033 3.29553355-1.15983606.8094292-2.02971311 1.5032258-2.66762295 2.0813895-.63790983.5781638-.98586065.9828784-1.21782787 1.2141439-.1159836.1156328-.17397541.1734492-.17397541.2312656l8.40881148 4.5674938c0-.0578164.0579918-.1156328.17397541-.2312656.23196721-.2312655.63790983-.6359801 1.21782787-1.2141439.6379098-.5781637 1.5077869-1.2719603 2.6676229-2.0813896 1.4497951-.9828784 3.3635246-2.1392059 5.7991804-3.2955335 4.7553278-2.25483866 11.5403688-4.50967737 20.935041-5.78163767 10.9604508-1.56104218 18.3834016-.80942928 23.1387295.46253102 2.0297131.52034739 3.5954918 1.15632754 4.8133196 1.73449131.2319673.11563276.4639345.23126551.6379099.34689827z" fill="#6e9eb6" fill-rule="nonzero"/><path d="m59.9055328 3.46898263c-3.5954918-1.96575682-12.0043033-4.7987593-28.589959-2.48610422-23.08073773 3.23771712-30.38770495 12.14143919-30.79364757 12.60397019l8.40881147 4.5674938c.40594263-.462531 7.7129098-9.36625307 30.7936475-12.60397019 16.5856558-2.31265509 25.0524591.57816377 28.5899591 2.48610422z"/><g fill-rule="nonzero"><path d="m9.16270492 42.9575682v-4.6831265l.0579918-20.1779156s0 0 .0579918-.0578164c0 0 0 .0578164-.0579918.0578164l-1.62377049-.8672457-5.04528689-2.7173697-1.7977459-.9828784-.0579918 24.8610421c0 .8094293 0 7.1114144 1.7397541 15.2635236.28995901 1.2719603.57991803 2.5439206.92786885 3.8736973.11598361.3468982.17397541.6937965.28995902.9828784.17397541.6937965.40594262 1.3297767.57991803 2.0235732 1.10184426 3.4111663 2.49364754 6.9379653 4.34938525 10.4069479.34795081.6937965.75389344 1.387593 1.15983606 2.0813896.98586065 1.7344913 2.14569675 3.4111662 3.36352455 5.0300248.9858607 1.2719603 2.087705 2.5439206 3.247541 3.7580645.289959.2890819.5799181.5781638.8698771.925062 2.7256147 2.6595534 5.8571721 5.0878412 9.5106557 7.053598l8.4088115 4.5674938c-26.09631149-14.0493796-25.98032788-49.4330024-25.98032788-51.3987593z" fill="#5c8599"/><path d="m39.9563525 5.55037221c-20.1811476 2.83300248-28.3 10.00223329-30.32971316 12.02580649-.28995901.2890818-.46393442.462531-.46393442.5203474l-.05799262 20.1779156v4.6831265c0 2.0813896-.05799099 41.3965261 30.6776647 53.6535981 30.7936476-20.8717122 30.8516394-60.1868487 30.9096312-62.2682383l.0579918-24.86104214c-.4059426-.34689827-7.7129098-7.16923077-30.7936475-3.93151365zm23.8926229 29.71761789c0 .1156327-.1159836 9.7131513-3.6534836 21.3920595-4.117418 13.5290323-10.9604508 24.1672457-20.3551229 31.567742-9.3946722-4.7987593-16.1797132-13.4712159-20.2391394-25.8439206-3.5375-10.6960298-3.5954918-20.2935484-3.5954918-20.3513648l.0579918-20.9873449c3.827459-2.7173697 11.6563525-6.4176179 23.9506148-8.1521092 6.3211065-.8672456 11.482377-.925062 15.4838114-.5203474 2.1456968.2312655 4.0014345.5781638 5.5092213.9828784l2.5516394.8094293c.1159836.0578164.2319672.1156328.3479508.1734491z" fill="#92d2f4"/><path d="m63.8489754 35.2679901c0 .1156327-.1159836 9.7131513-3.6534836 21.3920595-4.117418 13.5290323-10.9604508 24.1672457-20.3551229 31.567742-9.3946722-4.7987593-16.1797132-13.4712159-20.2391394-25.8439206-3.5375-10.6960298-3.5954918-20.2935484-3.5954918-20.3513648l.0579918-20.9873449c3.827459-2.7173697 11.6563525-6.4176179 23.9506148-8.1521092 6.3211065-.8672456 11.482377-.925062 15.4838114-.5203474 2.1456968.2312655 4.0014345.5781638 5.5092213.9828784.9858607.2312655 1.797746.5203474 2.5516394.8094293l.289959.1734491-.0579918 20.9295286v.0578164-.0578164z" fill="#cee9fb"/><path d="m61.0653689 13.3555831-.0579919 20.4091812c0 .1156327-.1159836 9.7131513-3.6534836 21.3920595-.2319672.8094293-.5219262 1.6188586-.7538934 2.4282879-.1159836.2312655-.1739754.5203474-.289959.7516129-.1739754.5203474-.3479508 1.0406948-.579918 1.5610421-.1739755.4625311-.3479509.8672457-.5219263 1.2719603-.1739754.3468983-.289959.751613-.4639344 1.0985112-.1739754.4047147-.3479508.8672457-.5219262 1.2719603-.1739754.3468983-.2899591.6937965-.4639345 1.0406948-.1739754.4047146-.4059426.8094293-.579918 1.2141439-.1739754.3468983-.289959.6937965-.4639344 1.0406948-.2319672.4047147-.4059426.8094293-.6379099 1.2141439-.1739754.3468983-.3479508.6359802-.5219262.9828784-.0579918.1156328-.1159836.2312656-.2319672.4047147-.289959.5203474-.579918 1.0406948-.869877 1.5032258-.1159837.2312655-.2319673.4047146-.3479509.5781638-.289959.462531-.5219262.8672456-.8118852 1.2719603-.1159836.1734491-.2319672.3468982-.3479508.5781637-.3479509.5781638-.7538935 1.0985112-1.1018443 1.6188586 0 .0578164-.0579918.0578164-.0579918.1156327-.4059426.5781638-.8118852 1.0985112-1.2178279 1.676675-.1159836.1156327-.2319672.2890819-.3479508.4047146-.3479508.462531-.6959016.9250621-1.1018442 1.3875931-.0579919.0578164-.1159837.1734491-.2319673.2312655-.4059426.5203474-.869877 1.0406948-1.3338114 1.5032258-.1159836.1156327-.2319673.2312655-.3479509.3468983-.4059426.4047146-.7538934.8094292-1.159836 1.2141439-.1159836.1156327-.1739754.1734491-.289959.2890819-.4639345.462531-.9278689.925062-1.3918033 1.387593-.1159836.1156328-.2319672.2312655-.3479508.2890819-.4059427.3468983-.7538935.6937965-1.1598361 1.0406948-.1739754.1156327-.289959.2890819-.4639344.4047146-.5219263.462531-1.0438525.8672457-1.5657787 1.2719603l2.7836065 1.5032258c.5219263-.4047146 1.0438525-.8672456 1.5657787-1.2719603.1739754-.1156327.289959-.2890819.4639345-.4047146.1739754-.1734491.4059426-.3468983.579918-.462531.2319672-.1734492.4059426-.3468983.579918-.5781638.1159836-.1156327.2319672-.2312655.3479508-.2890819.4639345-.462531.9278689-.925062 1.3918033-1.387593.1159836-.1156328.1739754-.1734492.289959-.2890819.4059427-.4047147.7538935-.8094293 1.1598361-1.2141439.1159836-.1156328.2319672-.2312655.3479508-.3468983.0579918-.0578164.1159836-.1734491.2319672-.2312655.3479509-.4047147.7538935-.8672457 1.1018443-1.2719603.0579918-.0578164.1159836-.1734491.2319672-.2312655.3479508-.462531.7538935-.9250621 1.1018443-1.3875931.1159836-.1156327.2319672-.2890819.3479508-.4047146.4059426-.5203474.8118852-1.0985112 1.2178279-1.6188586 0-.0578163.0579918-.0578163.0579918-.1156327.3479508-.5203474.7538934-1.0985112 1.1018442-1.6188586.1159836-.1734491.2319672-.3468982.3479508-.5781638.2899591-.4047146.5219263-.8672456.8118853-1.2719603.1159836-.1734491.2319672-.4047146.3479508-.5781637.289959-.5203474.579918-.9828784.8698771-1.5032258.0579918-.1156328.1739754-.2312655.2319672-.4047147 0-.0578164.0579918-.0578164.0579918-.1156327.1739754-.2890819.289959-.5781638.4639344-.8672457.2319672-.4047146.4059426-.8094293.6379098-1.2141439.1739754-.3468983.3479509-.6937965.4639345-1.0406948.1739754-.4047146.4059426-.8094293.579918-1.2141439.1739754-.3468983.289959-.6937965.4639344-1.0406948.1739754-.4047146.3479508-.8094293.5219263-1.2719603.1739754-.3468983.289959-.7516129.4639344-1.0985112.1739754-.4047146.3479508-.8672456.5219262-1.2719603 0-.0578163.0579918-.1156327.0579918-.2312655.1739754-.462531.289959-.8672456.4639344-1.3297767.1159836-.2312655.1739754-.5203473.2899591-.7516129.289959-.8094292.5219262-1.5610421.7538934-2.4282878 3.5375-11.6789082 3.6534836-21.2764268 3.6534836-21.3920595l.0579918-20.987345c-.7538934-.3468982-.7538934-.4047146-2.7256147-.9828784z" fill="#5c8599"/></g></g><g fill="#fff" fill-rule="nonzero"><path d="m58.9196721.57816377c1.6237705-.23126551 2.957582 1.73449132 2.957582 4.39404467s-1.3338115 12.43052106-2.957582 12.66178656-2.8995901-9.19280393-2.8995901-11.85235728c-.0579918-2.60173698 1.2758196-4.97220844 2.8995901-5.20347395z"/><path d="m110.822336 12.5461538c.753894-.1156327 1.449795.0578164 1.855738.5781638 1.043852 1.1563276.405942 3.7580645-1.507787 5.7816377-1.681762 1.7923077-7.886885 6.8801489-9.97459 7.2270472-.289959.0578164-.463935 0-.579918-.1156328-1.0438528-1.1563275 4.871311-9.3084367 6.727049-11.3320099 1.101844-1.2719603 2.377664-1.9657568 3.479508-2.139206z"/><path d="m113.257992 60.8806452c2.087705-.2890819 3.769467.5203474 3.943442 2.0235732.173976 1.7344913-1.62377 3.6424317-4.117418 4.3362283-.637909.1734491-1.681762.3468982-2.89959.5203473-3.595492.5203474-8.640778.7516129-8.756762-.5203473-.173975-1.7344914 8.466803-5.5503723 10.960451-6.2441688.289959 0 .579918-.0578164.869877-.1156327z"/><path d="m8.52479508 23.0109181c1.04385246-.1734491 2.26168032.1734491 3.36352462.925062 1.9717213 1.3875931 8.1188524 7.5161291 7.1329918 9.0771713-.1159836.1734491-.3479508.2890819-.6379099.3468982-2.2036885.2890819-8.40881144-2.6595533-10.14856553-3.8736972-1.97172132-1.3875931-2.72561476-3.7002482-1.6817623-5.203474.46393443-.7516129 1.15983607-1.1563275 1.97172131-1.2719603z"/><path d="m4.17540984 69.3218362c.28995901-.0578163.57991803-.0578163.86987705-.0578163 2.43565573 0 11.13442621 1.387593 10.90245901 3.1799007-.1739754 1.3297767-5.2192623 2.4861042-8.75676229 2.9486352-1.21782787.1734492-2.26168033.2890819-2.89959017.2890819-2.43565574 0-4.29139344-1.387593-4.05942623-3.1799007.17397541-1.6188586 1.85573771-2.8908189 3.94344263-3.1799008z"/><path d="m64.6608607 143.558065c-1.6237705.231265-2.957582-1.734492-2.957582-4.394045s1.3338115-12.430521 2.957582-12.661787c1.6237704-.231265 2.8995901 9.192804 2.8995901 11.852358.0579918 2.659553-1.2758197 5.030024-2.8995901 5.203474z"/><path d="m21.5729508 131.590074c-.7538934.115633-1.4497951-.057816-1.8557377-.578163-1.0438524-1.156328-.4059426-3.758065 1.5077869-5.781638 1.6817623-1.792308 7.8868852-6.880149 9.9745902-7.227047.289959-.057817.4639344 0 .579918.115633 1.0438525 1.156327-4.8713115 9.308436-6.7270492 11.332009-1.1018442 1.271961-2.3776639 2.023574-3.4795082 2.139206z"/><path d="m102.007582 121.12531c-1.043852.173449-2.2616804-.173449-3.3635246-.925062-1.9717213-1.387593-8.1188525-7.516129-7.1329918-9.077171.1159836-.173449.3479508-.289082.6379098-.346898 2.2036885-.289082 8.4088116 2.659553 10.1485656 3.873697 1.971721 1.387593 2.725615 3.700248 1.681762 5.203474-.405942.751613-1.159836 1.156327-1.971721 1.27196z"/><g opacity=".2" transform="translate(39.434426 31.220844)"><path d="m11.3084016 3.12208437v6.47543424 4.45186109l-6.72704914 9.1928039h-.11598361v-4.1049628-11.21637713c-.28995901-.11563275-.46393442-.17344913-.63790983-.23126551-.05799181 0-.11598361-.05781637-.17397541-.05781637-.11598361-.05781638-.28995902-.11563276-.46393443-.17344913-.0579918-.05781638-.17397541-.05781638-.28995902-.11563276-.1159836-.05781638-.23196721-.05781638-.34795082-.11563275-.0579918 0-.17397541-.05781638-.28995901-.05781638 0 0 0 0-.05799181 0-.1159836-.05781638-.23196721-.05781638-.34795082-.11563276 0 0-.0579918 0-.1159836 0s-.11598361-.05781637-.17397541-.05781637-.0579918 0-.11598361 0c-.40594262-.11563276-.81188524-.23126551-1.27581967-.28908189l5.16127049-6.47543424c1.50778689.46253102 2.60963115 1.04069479 3.4795082 1.50322581l-1.50778689-.80942928c.52192623.2312655 1.04385246.46253101 1.44979509.69379652 1.7397541.7516129 2.4356557 1.44540943 2.5516393 1.50322581z" transform="translate(44.07377)"/><path d="m45.7555328 6.99578164-.0579918 16.13076926-.1159836.1156327-33.9831967 47.5250621c-2.37766398-3.2377172-4.40737709-6.9379653-6.03114759-11.1007445-.46393442-1.1563275-.92786885-2.3704714-1.33381147-3.6424317-.11598361-.2890819-.17397541-.5781638-.28995902-.8672457l37.05676228-49.02828782c1.2178279.17344913 2.3196721.34689826 3.3635246.57816377.4639344.11563276.8698771.23126551 1.2758197.28908189z"/><path d="m48.4811475 7.97866005-.0579918 11.33200995v3.98933h-2.7256147v-.1734491l.0579918-16.13076926 2.4356557.80942928z"/><path d="m13.860041 73.6002481-4.52336067 6.4754343c-.05799181-.0578164-.11598361-.1156328-.17397541-.1734491-.05799181-.0578164-.11598361-.1156328-.17397541-.1734492-.69590164-.6937965-1.27581967-1.4454094-1.91372951-2.1970223-.0579918-.0578164-.11598361-.1734491-.17397541-.2312655-.17397541-.2312655-.40594262-.462531-.57991803-.6937965-.17397541-.2312656-.34795082-.4625311-.52192623-.6359802s-.28995902-.4047146-.46393443-.5781638c-.0579918-.0578163-.1159836-.1156327-.1159836-.1734491-.17397541-.2312655-.34795082-.462531-.52192623-.7516129-.34795082-.462531-.63790984-.925062-.92786886-1.3875931-.17397541-.2890818-.34795082-.5203474-.52192623-.8094292-.17397541-.2312655-.28995901-.4625311-.46393442-.6937966-.17397541-.2890818-.28995902-.5203474-.46393443-.8094292-.17397541-.2890819-.34795082-.6359802-.52192623-.9828785-.23196721-.462531-.52192623-.925062-.75389344-1.387593-.11598361-.2312655-.23196721-.462531-.34795082-.6937965-.11598361-.2890819-.28995902-.5781638-.40594262-.8672457-.05799181-.0578164-.05799181-.1156327-.05799181-.1734491l5.2192623-6.8801489c1.68176229 4.2205955 3.71147541 7.9208437 6.03114749 11.1007444.8698771.8672457 1.6237705 1.7923077 2.377664 2.7173697z"/></g></g></g><path d="m177.396926 129.73995h-29.981762s-5.219262 0-5.219262-5.203474v-46.2531013s0-5.203474-5.219263-5.203474h-6.785041" stroke="#45ac34" stroke-width="2"/><g fill-rule="nonzero"><g transform="translate(155.418033 97.709677)"><g transform="translate(81.188525 35.26799)"><g fill="#334043"><path d="m33.1221323 40.1063152 13.3553728.0031609.0004515 1.9136284-13.3553727-.0031609z" transform="matrix(.07824421 -.99693422 .99693422 .07824421 -4.252894 77.52966)"/><path d="m16.4212187 47.242372 10.3229052.0002632.0001301 5.0880229-10.3229053-.0002631z" transform="matrix(.9999645 -.00842647 .00842647 .9999645 -.418758 .183634)"/><path d="m20.8286118 49.6129579 2.3777479.0000606.0005085 19.8895442-2.3777479-.0000606z" transform="matrix(.9999645 -.00842647 .00842647 .9999645 -.50108 .187646)"/></g><path d="m17.5813268 74.5323401 9.4529975.000241.0001153 4.5098385-9.4529975-.000241z" fill="#415559" transform="matrix(.9999645 -.00842647 .00842647 .9999645 -.646255 .190703)"/><path d="m39.1444672 35.4992556c-.3479508-.3468983-.6959016-1.4454094-.7538934-2.3126551-.6379099-8.0364764-.8118853-17.1136476-.3479508-27.23151365.0579918-1.38759305.3479508-3.06426799.6959016-3.58461539 2.0877049-3.41116625 4.407377-1.61885856 6.7270492 2.13920596.3479508.63598015.6959016 2.19702233.7538934 3.41116625.2319672 9.07717123-.1159836 18.03870963-.8118852 26.88461543-.0579918.9828784-.3479509 2.1970223-.6379099 2.5439206-1.5657787 1.7923076-3.4215164.4047146-5.6252049-1.8501241" fill="#465557"/><path d="m40.8842213 46.1952854v2.2548387l-36.88278687.2890819v-2.2548388c0-.925062.75389344-1.6766749 1.68176229-1.7344913l33.51926228-.2890819c.9278689 0 1.6817623.7516129 1.6817623 1.7344914" fill="#465557"/><path d="m2.55163934 82.9086849h-2.08770491l2.02971311-4.5096775 16.93360656-2.2548387.0579918.8094293 1.7397541-.8094293.579918 1.0406948.7538935-.925062v-.1156328h.1159836l.3479508-.4047146h-3.4215164l-.1739754-19.1372208 5.5672131-.0578164.1739754 19.1372208h-1.5657787l.8698771.6359802 15.019877 1.7344913 1.3338115 2.8908188c.5219262.3468983.8698771.9250621.9278689 1.6188586 0 1.0985112-.8698771 1.9657568-1.9137295 1.9657568-1.1018443 0-1.9717214-.8672456-1.9717214-1.9079404 0-.5781638.2319673-1.0406948.6379099-1.4454095l-.6959017-.9828784-8.524795-1.0985111c-.6379099-.1734492-1.3338115-.3468983-1.9717214-.5203474 3.3635246 2.5439206 8.6987705 6.1863523 8.6987705 6.1863523l.8118853 2.0813896c.9858606.3468983 1.7397541 1.2719603 1.7397541 2.4282879 0 1.4454094-1.1598361 2.6017369-2.6096312 2.6017369-1.449795 0-2.6096311-1.1563275-2.6096311-2.6017369 0-.8094293.3479508-1.5610422.9278688-2.0235732l-.6959016-1.3875931-11.4823771-8.2099256.3479509.6359802-13.74405741 6.3598015-.46393442.6359801c.34795082.462531.57991803.9828784.57991803 1.5610422 0 1.4454094-1.15983607 2.601737-2.60963115 2.601737s-2.60963115-1.1563276-2.60963115-2.601737c0-1.3297767 1.04385246-2.4861042 2.31967213-2.601737l.98586066-1.5610421 6.32110651-2.9486353-8.93073766.6359802z" fill="#465557"/></g><path d="m77.3030738 75.6238213.9858606-.8672456c-.9858606-.0578164-1.9717213-.2890819-2.8995901-.5781638-.4639345-.1734491-.9858607-.3468983-1.4497951-.1156327-.4059426.2312655-.5219262.6937965-.6379099 1.1563275-.6959016 2.8330025-5.9151639 27.2893303-6.4370901 29.2550873-.6379099 2.601737-2.0297131 4.740942-3.0155738 7.16923-.9858606 2.312655-2.0297131 4.740943-3.3055328 6.880149-.2319672.404715-.6959016.751613-1.159836 1.040695-.3479509.231265-.6379099.404715-.9278689.578164.1739754.231265.3479508.462531.579918.63598.2319673.173449.4639345.346898.7538935.404715l2.2036885.057816h.0579918c.9858607-.231266 1.6817623-.982878 2.2036885-1.792308.5219263-.867245.6959017-1.90794 1.3338115-2.717369.7538935-.925063 1.7977459-1.503226 2.7256148-2.197023.579918-.462531 1.1018442-.925062 1.7397541-1.27196.4639344-.231266.9858606-.404715 1.449795-.693797.7538935-.404714.5219263-.751613.4639345-1.503225-.0579918-.635981-.0579918-1.271961 0-2.023574.0579918-.867245.3479508-2.197022.6379098-3.006451.579918-1.44541 1.1598361-2.833003 2.1456967-4.104963 2.2036886-2.8908189 4.0594263-6.7066998 4.6973361-10.2913152.289959-1.5610422.3479508-3.1220844.3479508-4.7409429.0579918-1.5610422-.1739754-3.4111663.2319672-4.9143921.289959-.9828784.9278689-1.9657568 1.3338115-2.9486352.289959-.8094293.6379098-1.6188586.9278689-2.4282878z" fill="#efb690"/><path d="m72.4317623 111.87469c0-.346898-.6959016-1.792308-.5219262-2.023573-.5219263.63598-1.1018443 1.387593-1.7397541 1.90794-1.9717213 1.561042-3.7114754 3.237717-5.3932377 5.087841-.6379099.693797-1.3918033 1.329777-2.2616804 1.734492-.4059426.173449-.869877.289081-1.3338114.346898-.1159836 0-.3479509.057816-.4639345 0-.1739754-.057817-.3479508-.346898-.579918-.346898-.1159836 0-.1739754.057816-.2319672.115632-.4059426.404715-1.0438525.63598-1.5077869.982879-.579918.404714-3.0735656 1.734491-2.2036885 2.601737.289959.289082.869877.231265 1.2178278.231265.6959017 0 1.3918033-.057816 2.1456968-.115633 1.5077869-.173449 3.0735655-.404714 4.5813524-.751612 1.6817623-.346899 1.1598361-3.179901 2.2036886-4.220596.579918-.578164 2.6676229-1.618859 3.2475409-.578164.4639345.80943-.2319672 2.428288-.3479508 3.237717-.0579918.346899-.289959 1.040695-.2319672 1.44541h.7538934c.3479509-2.197023.4059427-4.278412 1.7397541-6.244169.7538935-.867246 1.0438525-2.197022.9278689-3.411166" fill="#2f2722"/><path d="m73.8815574 74.0627792c-.1159836.0578163-.1739754.1156327-.289959.1734491-.2899591.2312655-.5799181.462531-.8118853.8094293-1.6817623 2.0813895 0 5.2612903.7538935 7.4583126.9278688 2.7173698 1.6237704 5.5503722 2.6096311 8.267742 1.9137295 5.3191067 3.9434426 10.6382138 5.6831967 16.0151368.8118853 2.54392.8118853 5.087841 1.2178279 7.689578.4059426 2.428288.8118852 5.087841.8118852 7.573945 0 .462531-.2319672.982879-.4639344 1.503226-.1739754.346898-.3479508.693797-.4639344.982878.289959.115633.5219262.17345.8118852.231266.2899591.057816.5799181 0 .8698771-.057816l1.9137295-1.098512s0 0 .0579918-.057816c.6959016-.751613.9278688-1.734491.9278688-2.71737 0-1.040695-.4639344-2.023573-.3479508-3.006451.1159836-1.156328.7538935-2.197023 1.1598361-3.295534.2319672-.693796.4639344-1.329776.8118852-1.965757.2899591-.462531.6379099-.867245.8698771-1.329776.4059426-.751613.0579918-.925062-.4059426-1.503226-.3479509-.520348-.6959017-1.040695-1.0438525-1.734491-.4059426-.751613-.869877-2.023574-1.0438525-2.890819-.289959-1.561042-.5219262-3.064268-.3479508-4.62531.3479508-3.5846159-.0579918-7.8630278-1.4497951-11.2163776-.579918-1.4454095-1.3918032-2.8330025-2.2036885-4.2205956-.6959016-1.2141439-2.0877049-2.1970223-1.1018442-3.5846154.3479508-.462531.8118852-.8672456 1.0438524-1.387593.1159836-.1734491.1739754-.4047147.1739754-.5781638 0-.3468983-.2319672-.5781638-.4059426-.8672456-.8118852-.9828785-1.7977459-1.7923077-2.6096311-2.7751862-.2899591-.3468982-.3479509-.5781637-.8118853-.6937965-.5219262-.1156327-1.0438524.0578164-1.5657787-.2312655-.7538934-.3468982-1.3918033-1.1563275-2.2036885-1.3297767-.6959016-.1156327-1.5657787.1156328-2.1456967.4625311" fill="#fac39d"/><path d="m90.5252049 110.140199c-.2319672-.289082-1.5077869-1.156328-1.5077869-1.44541-.1739754 2.08139-1.3338114 3.815881-1.9137295 5.839454-.6959016 2.312655.4639345 6.475434-2.6676229 7.053598-.2319672.057817-.4059426.057817-.5799181.173449-.2319672.173449-.3479508.462531-.4639344.693797-.3479508.867246-.6379098 1.618858-1.1598361 2.370471-.2319672.346899-1.159836 1.387593-.289959 1.734492.4639345.173449 1.2178279-.289082 1.6237705-.404715.8698771-.289082 1.7397541-.693797 2.5516394-1.156328.6379098-.346898 1.8557377-.809429 2.2036885-1.503225.869877-1.676675.1739754-3.35335-.0579918-5.030025-.1739754-1.040695.5219262-2.833003 1.9137295-2.543921 1.6817623.346898 1.9717213 3.98933 2.4936475 5.261291.2899591-.115633.5219263-.231266.8118853-.346899-.8118853-2.312655-1.7977459-4.798759-1.7397541-7.284863-.0579918-1.156328-.5219262-2.428288-1.2178279-3.411166" fill="#2f2722"/><path d="m119.289139 79.8444169c-.057991.0578164-5.741188.0578164-5.915164.0578164-1.043852 0-23.7766389.462531-23.7766389.462531-1.8557377.0578163-3.1895492.0578163-3.7114754.0578163.7538934-1.9079404 3.4215163-2.312655 5.3352459-2.312655 9.1627044-.4625311 19.8911884-.6937966 25.9223364-8.6724566 1.797746-2.3126551 2.377664-5.203474 2.609631-8.2099256.811885 1.5610422 2.029713 6.4754343 2.145696 7.2270472.463935 2.8330025.521927 6.4754342-.695901 9.1349876-.405943.9828784-1.101844 1.7344913-1.91373 2.2548387" fill="#c08a00"/><path d="m91.2790984 78.0521092c9.1627046-.462531 19.8911886-.6937965 25.9223356-8.6724566 1.797746-2.3126551 2.377664-5.2034739 2.609632-8.2099256-.173976-.3468982-.289959-.5203473-.405943-.5203473 0 0-18.615369 1.7923076-18.615369 1.7923076l-24.2405737 6.0129033-4.5233606 6.591067c.1159836.1156327.289959.1734491.4059426.2890819 2.6096311 1.850124 5.3352459 3.6424317 8.0028688 5.4347394.8118853.5203474 1.6237705.9828784 2.4936476 1.4454094.3479508.2312655.6379098.5203474 1.0438524.4047147.7538935-.2312655 1.1018443-2.1970224 1.7397541-2.2548387h.2319673c.6959016-1.9079405 3.3635245-2.2548387 5.3352459-2.3126551" fill="#da9b00"/><path d="m76.955123 48.1032258 12.9321721 19.9466501-89.48135248.7516129 18.44139348-20.1779156z" fill="#a8aab3"/><path d="m66.5745902 52.0925558c.1739754 0 .3479508.1156328.5219262.1156328.1739754.0578164.4059426 0 .5219262.0578164-.1739754-.0578164-.3479508 0-.4639344.0578163-.3479508.1156328-.6959016.0578164-1.1018443.1156328-.3479508.0578164-1.5657787.462531-1.2178278 1.0406948.3479508.5203474 1.1018442.3468982 1.5077869.2890819.7538934-.1156328 1.5657786.2890819 2.2616803.5203474 1.9137295.5781637 3.7694672-.1734492 5.5672131-.6359802l-1.3338115-2.4282878-6.1471311-1.676675c-.5799181.1734492-1.1598361.4047147-1.7397541.5781638-.8118853.2890819-1.5077869.5781638-2.2616804 1.0985112-.289959.2312655-.4059426.5203474-.5219262.8672456-.1739754.4047147-.4059426.8094293-.579918 1.214144-.1739754.2890818-.8118853 1.1563275-.4059426 1.5610421.2319672.2312655.6959016-.1156327.8118852-.2890819.4059426-.5781637.7538934-1.6188585 1.3338115-1.9657568.869877-.5203474 2.2616803-.6359801 3.247541-.5203474" fill="#e4bca3"/><path d="m33.5772541 46.0796526.1159836 1.5032258s1.0438525 3.2377171 3.1895492 4.7987593c.5219262.3468983 2.4936475.6937965 3.247541.6937965 0 0 .869877.1156328 1.159836.8094293.2899591.6937965-3.6534836 3.4111663-6.9010246 3.5846154-3.2475409.1734491-7.4229508-3.2377171-7.4229508-3.2377171s-.3479508-4.4518611 1.1598361-6.9957817z" fill="#69797d"/><path d="m27.8940574 47.7563275 4.117418-2.0235732 1.5657787.1156328.0579918 1.2719603s-6.3211066 2.4282878-6.3211066 2.3704715c.2319673-.9828785.5799181-1.7344914.5799181-1.7344914z" fill="#465557"/><path d="m18.9633197 14.8588089 22.9647541.7516129c.5219262 0 .9858606.9828784.9858606 2.139206l.1159836 23.2421836c0 1.1563276-.4059426 2.2548387-.9278688 2.4282879l-22.9647541 6.9957816c-.8698771.2890819-1.6237705-.7516129-1.6237705-2.2548387l-.1739754-30.5270472c.0579918-1.5610421.7538934-2.7751861 1.6237705-2.7751861" fill="#69797d"/><path d="m42.45 41.8590571-23.892623 6.8223325-.1739754-31.8568238 23.9506148.2890818z" fill="#45ac34"/><path d="m15.8317623 17.633995.1739754 30.5270472c0 1.5032258.7538934 2.5439206 2.957582 2.3704714l.289959-.1156327c-.8698771.2890819-1.6237705-.7516129-1.6237705-2.2548387l-.1739754-30.5270472c0-1.387593.579918-2.5439206 1.3918033-2.7173697h-1.4497951c-.8698771-.0578164-1.5657787 1.1563276-1.5657787 2.7173697z" fill="#465557"/><path d="m63.3270492 52.4394541c-.289959.4047146-.4639344.925062-.6379099 1.4454094-.1739754.462531-.5219262.9250621-.579918 1.3875931-.0579918.3468982.1739754.6937965.579918.5781637.1739755-.0578163.2899591-.1734491.4059427-.2312655.1739754.5203474.5219262.3468983.7538934 0 .4639344-.6937965.579918-1.4454094 1.3918033-1.5610421.579918-.0578164 1.2178279 0 1.7977459-.0578164.9858606 0 1.9717213-.0578164 3.0155738-.0578164 0 0-.3479509-1.2141439-.3479509-1.2719603-.1739754-.6937965-.3479508-1.2141439-1.1018442-1.2141439-.9858607 0-1.9137295.0578164-2.8995902.0578164-.4639344 0-.9858606 0-1.4497951.1734491-.4059426.1734491-.6959016.462531-.9278688.7516129" fill="#efb690"/><g transform="translate(53.932377 49.722084)"><path d="m10.4965164.46253102 4.7553279 13.64466498h-15.01987709l.98586066-13.5868486z" fill="#69797d"/><path d="m15.2518443 14.107196-.2899591 1.0985112-14.38196717.1156328-.34795082-1.214144z" fill="#465557"/><g fill="#cecece" transform="translate(1.739754 1.156328)"><path d="m9.45266393 10.1756824.23196722 1.0406948h1.15983605l-.3479508-1.0406948z"/><path d="m.81188525.69379653h.98586065v-.23126551h-.98586065z"/><path d="m.75389344 1.50322581h1.04385246v-.40471464h-.98586065z"/><path d="m.75389344 2.37047146h.98586066l.0579918-.46253101-1.04385246.05781637z"/><path d="m.69590164 3.23771712h1.04385246v-.46253102h-1.04385246z"/><path d="m.63790984 4.16277916h1.10184426v-.5203474h-1.04385246z"/><path d="m.63790984 5.08784119h1.10184426v-.52034739h-1.10184426z"/><path d="m.57991803 6.18635236h1.10184427l.0579918-.69379653h-1.15983607z"/><path d="m.52192623 7.3426799h1.15983607v-.7516129h-1.15983607z"/><path d="m.46393443 8.6146402h1.21782787v-.86724566h-1.15983607z"/><path d="m.40594262 9.82878412h1.21782787l.05799181-.80942928h-1.21782787z"/><path d="m.34795082 11.2163772h1.27581967v-.9828784h-1.21782787z"/><path d="m2.20368852.69379653h.81188525v-.28908189h-.81188525z"/><path d="m2.20368852 1.50322581h.86987705l-.0579918-.40471464h-.81188525z"/><path d="m2.14569672 2.37047146h.92786885v-.46253101h-.86987705z"/><path d="m2.14569672 3.23771712h.98586066l-.05799181-.46253102h-.92786885z"/><path d="m2.14569672 4.16277916.98586066-.05781638v-.46253102h-.98586066z"/><path d="m2.14569672 5.08784119 1.04385246-.05781638-.0579918-.52034739-.98586066.05781638z"/><path d="m2.08770492 6.18635236h1.10184426v-.75161291l-1.04385246.05781638z"/><path d="m2.08770492 7.3426799h1.15983606v-.7516129h-1.15983606z"/><path d="m2.08770492 8.6146402h1.21782787l-.05799181-.86724566h-1.15983606z"/><path d="m2.02971311 9.82878412 1.33381148-.05781638-.0579918-.7516129h-1.21782787z"/><path d="m2.02971311 11.2163772h1.39180328l-.0579918-1.0406948-1.33381148.0578164z"/><path d="m3.71147541 9.01935484.0579918.7516129v.40471466l.05799181 1.0406948h1.56577868l-.0579918-1.0406948-.0579918-.40471466-.0579918-.7516129z"/><path d="m3.65348361 7.74739454.0579918.86724566h1.44979508l-.1159836-.86724566z"/><path d="m3.65348361 6.591067v.7516129h1.39180328l-.11598361-.7516129z"/><path d="m3.5954918 5.43473945v.75161291h1.33381148l-.11598361-.75161291z"/><path d="m3.5375 4.50967742.0579918.52034739h1.21782787l-.0579918-.52034739z"/><path d="m3.5375 3.64243176v.46253102h1.15983607l-.05799181-.46253102z"/><path d="m3.4795082 2.7751861.0579918.46253102h1.10184426l-.0579918-.46253102z"/><path d="m3.4795082 1.90794045v.46253101h1.04385246l-.05799181-.46253101z"/><path d="m3.42151639 1.09851117.05799181.40471464h.98586065l-.0579918-.40471464z"/><path d="m3.42151639.40471464v.28908189.40471464h.98586066l-.0579918-.40471464v-.28908189z"/><path d="m4.75532787.40471464v.28908189h.75389344c0-.05781638-.0579918-.17344913-.0579918-.28908189z"/><path d="m4.81331967 1.09851117.05799181.40471464h.81188524c0-.11563276-.0579918-.28908189-.0579918-.40471464z"/><path d="m4.87131148 1.90794045.0579918.40471464h.86987705c0-.11563276-.05799181-.28908189-.05799181-.40471464z"/><path d="m4.98729508 2.7751861.05799181.46253102h.98586065c0-.17344913-.0579918-.28908188-.11598361-.46253102z"/><path d="m5.16127049 4.50967742.05799181.52034739h1.10184426c-.05799181-.17344913-.05799181-.34689826-.11598361-.52034739z"/><path d="m5.2192623 5.43473945.0579918.69379653h1.21782787c-.05799181-.23126551-.05799181-.46253102-.11598361-.69379653z"/><path d="m5.3352459 6.591067.0579918.7516129h1.27581968c-.05799181-.23126551-.11598361-.52034739-.11598361-.7516129z"/><path d="m5.45122951 7.74739454.1159836.86724566h1.39180328c-.0579918-.28908189-.1159836-.57816377-.17397541-.86724566z"/><path d="m5.91516393.40471464c0 .11563276.05799181.17344913.05799181.28908189h.63790983l-.0579918-.28908189z"/><path d="m6.03114754 1.09851117c0 .11563275.0579918.28908188.0579918.40471464h.69590164l-.1159836-.40471464z"/><path d="m6.14713115 1.90794045c0 .11563275.0579918.28908188.0579918.40471464h.75389344l-.1159836-.40471464z"/><path d="m6.32110656 2.71736973c.0579918.17344913.0579918.34689826.1159836.46253101h.81188525l-.11598361-.46253101z"/><path d="m6.49508197 3.64243176c.0579918.17344913.0579918.34689826.1159836.46253102h.86987705l-.1159836-.46253102z"/><path d="m6.66905738 4.50967742c.0579918.17344913.0579918.34689826.1159836.52034739h.92786886l-.11598361-.52034739z"/><path d="m6.78504098 5.43473945c.05799181.23126551.11598361.46253102.11598361.69379653h1.04385246l-.17397541-.69379653z"/><path d="m7.0170082 6.53325062c.0579918.28908189.1159836.52034739.1159836.7516129h1.10184427l-.17397541-.7516129z"/><path d="m7.24897541 7.74739454c.0579918.28908189.11598361.57816377.17397541.86724566h1.21782787l-.23196721-.86724566z"/><path d="m7.48094262 9.01935484c.05799181.28908188.11598361.52034739.17397541.7516129h1.27581967l-.1739754-.7516129z"/><path d="m5.62520492 9.01935484.0579918.7516129.0579918.40471466.11598361 1.0406948h1.62377049.40594263 1.39180327l-.28995901-1.0406948h-1.33381148-.40594262c0-.1156328-.0579918-.2890819-.0579918-.40471466-.05799181-.23126551-.11598361-.52034739-.11598361-.7516129z"/><path d="m6.90102459.40471464.11598361.28908189h.57991803l-.0579918-.28908189z"/><path d="m7.075 1.09851117.11598361.40471464h.69590164l-.17397541-.40471464z"/><path d="m7.30696721 1.90794045.11598361.40471464h.69590164l-.11598361-.40471464z"/><path d="m7.53893443 2.71736973.1159836.52034739.11598361.40471464.11598361.46253102.1159836.40471464.11598361.52034739.11598361.40471464.17397541.69379653.1159836.40471464.17397541.80942928h.92786885l-.23196721-.80942928-.11598361-.40471464-.23196721-.69379653-.11598361-.40471464-.1739754-.52034739-.11598361-.40471464-.11598361-.46253102-.1159836-.40471464-.17397541-.52034739z"/><path d="m8.8147541 7.74739454.23196721.86724566h.98586069l-.28995905-.86724566z"/><path d="m9.10471311 9.01935484.23196722.7516129h1.04385247l-.2319672-.7516129z"/><path d="m5.04528689 3.64243176.0579918.46253102h1.04385246c0-.17344913-.05799181-.34689826-.05799181-.46253102z"/></g></g><path d="m105.951025 13.4133995c-1.217828 1.2719603-2.319673 2.3126551-3.247541 3.2377171-3.4215168 3.2377171-4.7553283 3.8736973-4.7553283 3.8736973-.0579918.1734491 1.6817623 2.8908189.6379099 6.7645161 3.9434424-3.7580645 6.4950824-8.6146402 7.3649594-13.8759305" fill="#efb690"/><path d="m66.5745902 52.0925558c.1739754 0 .3479508.1156328.5219262.1156328.1739754.0578164.4059426 0 .5219262.0578164-.1739754-.0578164-.3479508 0-.4639344.0578163-.3479508.1156328-.6959016.0578164-1.1018443.1156328-.3479508.0578164-1.5657787.462531-1.2178278 1.0406948.3479508.5203474 1.1018442.3468982 1.5077869.2890819.7538934-.1156328 1.5657786.2890819 2.2616803.5203474 1.9137295.5781637 3.7694672-.1734492 5.5672131-.6359802l-1.3338115-2.4282878-6.1471311-1.676675c-.5799181.1734492-1.1598361.4047147-1.7397541.5781638-.8118853.2890819-1.5077869.5781638-2.2616804 1.0985112-.289959.2312655-.4059426.5203474-.5219262.8672456-.1739754.4047147-.4059426.8094293-.579918 1.214144-.1739754.2890818-.8118853 1.1563275-.4059426 1.5610421.2319672.2312655.6959016-.1156327.8118852-.2890819.4059426-.5781637.7538934-1.6188585 1.3338115-1.9657568.869877-.5203474 2.2616803-.6359801 3.247541-.5203474" fill="#efb690"/><path d="m98.760041 26.6533499-1.2178279.6359801c-1.4497951.7516129-2.6096311 2.0235732-3.1895492 3.526799l-6.3211065 16.3042184-17.107582 3.064268.7538935 4.6831265 16.9336065-.2312655c1.6237705-.1734491 3.0155738-1.0985111 3.827459-2.5439206l5.6252049-6.5332506z" fill="#d0d0d0"/><path d="m94.2946721 19.6575682c-.289959.1156328-.3479508.5781638-.1739754.8672457s.4059426.5203474.5219263.8094293c.1159836.3468982.0579918.6937965.1739754 1.0406948.1739754.7516129.9278688 1.2141439 1.6817623 1.2719603.7538934.0578163 1.5077868-.2312655 2.2036885-.5203474 2.6676228-1.1563276 5.2192618-2.8330025 6.6110658-5.3191067 1.275819-2.2548387 1.507787-4.9722085 1.565778-7.5739454.057992-1.6188586.057992-3.23771716-.521926-4.74094297-.173975-.46253102-.347951-.86724566-.63791-1.2719603-2.319672-3.64243176-6.7270488-3.70024813-10.206557-2.0235732-3.4215164 1.61885856-5.1612705 5.8394541-4.0014344 9.36625307.1159836.4047147.4059426.8094293.4639344 1.214144.2319672.925062-.2319672 1.7923076-.579918 2.6595533-.2319672.5203474-.8698771 2.0813896-.0579918 2.4282878.4639344.1734492.869877-.0578163 1.2758196.2312656.3479509.2890818.5799181.8094292.6379099 1.2141439 0 .0578164 0 .1734491.0579918.2312655.0579918.1156327.8118852.1156327.9858606.1156327" fill="#fac39d"/><path d="m110.416393 25.6704715c-.463934-.4625311-.869877-.9250621-1.333811-1.3875931-.869877-1.0406948-1.565779-2.1392059-2.029713-3.4111662-.869877-2.3704715-1.217828-5.0300249-1.101844-7.5739455 0 0-.057992.0578164-.057992.0578164-.869877 5.2612903-3.421517 10.1756824-7.3069674 13.8759305-.0579918.1734492-.1159836.3468983-.1159836.5203474-1.3338115 2.3126551-2.4936476 4.1049628-.8118853 5.1456576 1.3338115.8672457 6.2631143-.9828784 8.1768443-1.7344913.463934-.1734491.753893-.2890819.753893-.2890819.347951-.1734491.753894-1.5032258.927869-1.8501241.289959-.5203474.521927-1.0985111.985861-1.5032258.347951-.2890819.63791-.4047146 1.043852-.462531.405943-.0578164 1.27582.0578164 1.623771-.1156327.521926-.4047147-.347951-.8672457-.753894-1.2719603" fill="#fac39d"/><path d="m97.0782787 30.4114144s2.3196721 2.2548387 8.4088113.1156327c-.463934 12.3148884-1.217828 17.9808933-1.217828 17.9808933l-7.2489751 2.4861043-2.5516394-7.9786601z" fill="#dadada"/><path d="m92.9028689 43.9404467c0 .8094292 5.6831967 14.4540942 7.2489751 18.2121588.115984.2890818.173976.462531.289959.6359801.115984.2312655-.811885.6937965-.811885.6937965s2.783607 1.5032258 2.783607 1.5032258c.463934-.0578163 4.755327-2.3704714 16.643647-3.7002481h.057992c-.057992-.1734491-.115984-.3468983-.173975-.5781638-.173976-.5781637-.289959-1.2719603-.405943-2.0813895-1.391803-8.1521092-1.159836-24.3406948-1.159836-24.3406948l-1.623771-1.676675-9.452664-.5781637s-6.7270488 9.5397022-9.3366799 10.4069478c.0579918 0 0-1.0985111 0-1.2141439 0-.462531 0-.8672456 0-1.3297767 0-.8672456 0-1.7923076.0579918-2.6595533.0579918-1.6188586.1739754-3.2955335.3479508-4.9143921.1159836-.8094292.2319672-1.6188585.4059426-2.3704714.0579918-.3468983.1159836-.7516129.2319672-1.1563276.0579918-.2312655.1739755-.4047146.2899591-.5781637.0579918-.1734492.1739754-.3468983.2319672-.5203474-.0579918 0-.0579918 0-.0579918.0578163-.1159836.1156328-.2319672.2312656-.3479509.4047147-.1159836.1734491-.2319672.3468982-.289959.5781638-.1739754.462531-.3479508.925062-.5219262 1.387593-.289959.8094293-.579918 1.6188586-.869877 2.3704715-.5219263 1.6188585-.9858607 3.2377171-1.5077869 4.8565757-.4639345 1.4454094-.9278689 2.8908188-1.3918033 4.3940446-.289959.6359802-.6379098 1.5032258-.6379098 2.1970224" fill="#da9b00"/><path d="m100.151844 62.1526055c.115984.2890818.173976.462531.289959.6359801l18.557377-2.0235732c-.173975-.5781638-.289959-1.2719603-.405942-2.0813896-3.479508.5781638-14.903894 2.9486353-18.441394 3.4689827" fill="#2f2722"/><path d="m90.6411885 6.70669975c.4639345-2.13920595 1.1598361-2.7751861 2.377664-3.93151365 2.2616803-2.19702233 5.5672131-3.2955335 8.6407785-2.42828784.63791.17344914 1.449795.63598015 2.145697.5203474.579918-.11563276 1.101844-.5203474 1.681762-.63598015 1.391803-.23126551 2.89959.11563275 4.059426.98287841 1.217828.98287841 2.667623 3.81588089 1.971722 5.37692308-.057992.17344913-.173976.34689826-.289959.46253101-.347951.46253102-.753894.92506204-1.333812.92506204-.057992 0-.173975 0-.231967 0-.173975.05781638-.173975.28908189-.173975.46253102 0 2.19702233-1.27582 5.08784123-2.435656 6.93796523-.231967.4047147-1.217828 2.1970224-1.681762 2.1970224-.63791-1.0985112-1.27582-2.1970224-1.91373-3.2955335.347951-.9250621.695902-1.9079405.521926-2.8908189-.173975-.9828784-1.043852-1.96575682-2.029713-1.85012407-.695901.05781638-1.27582.69379657-1.507787 1.32977667-.057992.2312655-.115983.4047146-.173975.6359802 0 0-8.5247952-.6359802-9.6266395-4.79875935z" fill="#202c2b"/><path d="m76.3752049 132.746402-.3479508-58.9148884 5.2192623-.0578163.3479508 58.9727047c0 .867246-1.1598361 1.618859-2.6096311 1.618859-1.3918033.057816-2.5516394-.693797-2.6096312-1.618859 0 .057816 0 .057816 0 0z" fill="#a8aab3"/><path d="m8.69877049 132.746402-.34795082-58.9148884 5.21926233-.0578163.3479508 58.9727047c0 .867246-1.1598361 1.618859-2.6096312 1.618859-1.44979504.057816-2.60963111-.693797-2.60963111-1.618859 0 .057816 0 .057816 0 0z" fill="#a8aab3"/><path d="m89.8293033 67.9342432v3.3533499c0 1.6188585-1.2758197 2.8908188-2.8995902 2.9486352l-83.68217212.6937965c-1.62377049 0-2.89959016-1.2719603-2.95758196-2.8908188v-3.3533499z" fill="#d5dbd9"/><g fill="#fff" transform="translate(24.936475 20.235732)"><path d="m.52192623 8.49900744v1.56104216 4.5674938c-.0579918 4.2784119 2.95758197 6.3598015 6.08913934 4.9722085l.98586066-.4625311c2.37766393-1.0406947 4.05942627-4.1627791 4.05942627-7.053598v-4.2205955l-.9858607.05781637-1.15983606.05781638-1.04385246.05781638-2.84159836.11563275h-.05799181l-1.10184426.05781638-1.8557377.11563275zm6.61106557 1.90794046c.52192623-.0578164.92786886.4047146.92786886 1.0985112 0 .462531-.23196722.925062-.52192623 1.2141439v3.1220843l-.86987705.2890819v-3.1799007c-.34795082-.1156328-.57991804-.5203474-.57991804-1.0406948 0-.7516129.46393443-1.3875931 1.04385246-1.5032258z"/><path d="m1.7977459 9.01935484 1.7977459-.11563276v-2.54392059c0-2.48610422 1.6817623-4.22059553 3.4795082-3.98933003 1.62377049.23126551 2.78360656 2.02357321 2.78360656 3.98933003v2.0235732l1.04385244-.05781638v-1.90794044c0-2.71736973-1.56577867-5.26129033-3.827459-5.78163772-2.72561475-.57816377-5.3352459 1.90794045-5.3352459 5.66600496z"/></g><path d="m80.0866803 56.5444169-4.8713114.4047146-4.1174181.4047147c-.4059426.0578163-.7538934.1734491-1.1018442.462531-1.1598361.925062-2.4356558 1.6188585-3.4795082 2.6595533-.6959017.6937965-.9858607 1.0985112.2319672 1.4454095.8118852.2312655 1.5077869-.0578164 2.0297131-.6937966-.1739754.2312655-.4639344.5781638-.3479508.8672457.1739754.6359801.8118852.2890819 1.159836.1156327.8118853-.4047146 1.5657787-.7516129 2.377664-1.1563275.4639344-.2312655 1.0438524-.2890819 1.5657787-.1734491l3.7694672.8094292c.4639344.1156328.9278688.0578164 1.3918032-.0578163l2.957582-.9828784z" fill="#fad2bc"/><path d="m112.272131 26.5377171c-3.015574-1.0985111-5.567213 1.676675-6.379098 3.4111663-1.101844 2.3126551-1.159836 5.3191067-2.087705 7.6895781-1.101844 2.7751861-2.609631 5.3769231-3.421517 8.267742-.289959 1.0985111-.463934 2.1970223-.9858602 3.2377171-.7538934 1.6188586-2.0877049 1.5610422-3.7114754 2.0813896-4.3493852 1.2719603-15.8317623 4.914392-16.0057377 4.9722084l1.2758197 5.203474c.289959-.0578164.579918-.1156328.8118852-.1156328 2.1456967-.1734491 4.3493853-.3468983 6.495082-.5781638 3.6534836-.2890819 7.075-1.2719603 10.7864754-1.5610422 1.855738-.1156327 4.349385-.0578163 5.973156-1.0985111 1.159836-.7516129 1.739754-2.3704715 2.493647-3.526799 1.449795-2.0813896 2.841599-4.1627792 4.291394-6.2441688.695901-.9828784 1.333811-2.0235732 2.029713-3.0064516.463934-.6937965 1.333811-2.6595533 2.029713-3.0064516.173975-.0578164.289959-.1734491.347951-.2312655 3.305533-6.1863524-.057992-14.107196-3.943443-15.4947891" fill="#e7e7e7"/></g><ellipse cx="130.597541" cy="73.079901" fill="#3a8835" rx="2.783607" ry="2.775186"/></g></g></g></svg>