<svg height="160" viewBox="0 0 243 160" width="243" xmlns="http://www.w3.org/2000/svg"><g fill="none" fill-rule="nonzero"><g transform="translate(16.714286 35.983936)"><path d="m17.6142857 1.73493976c-2.5071428-1.34939759-7.84285713-1.73493976-12.27857141.06425703-4.43571429 1.79919678-4.95 3.40562249-4.95 3.40562249l17.16428571.44979919z" fill="#7bb929"/><path d="m16.8428571 1.92771084s5.85 1.54216868 8.3571429 4.62650603c.5785714.70682731 8.4857143 13.49397593 10.0928571 16.44979923.3214286.5783132-1.1571428 4.626506-2.7 2.0562249-3.2142857-5.2048193-10.5428571-12.8514057-10.5428571-12.8514057s-4.2428571-.8995984-6.75-1.9919678c-2.6357143-1.02811248 1.5428571-8.28915666 1.5428571-8.28915666z" fill="#f3ac7a"/><path d="m18.9 10.7951807v.7710844c1.6714286.4497992 3.15.7710843 3.15.7710843s.5785714.5783133 1.4142857 1.4779116c-.6428571-1.2851405-.45-3.85542164.0642857-6.68273088-1.7357143 4.04819278-4.6285714 3.66265058-4.6285714 3.66265058z" fill="#bb6636" opacity=".1"/><path d="m35.1 22.6827309 3.5357143 5.2048193c.1928571.2570281.2571428.5783133.3214286.8353414l.1928571 3.6626506c0 .3855421-.0642857.7710843-.3214286 1.0923694l-1.9285714 2.6987952c-.5142857-.4497992-.7071429-1.2208835-.3857143-1.9277108l.7714286-1.6706827-.5785714-2.8915663c0-.1285141-.1285715-.2570281-.2571429-.3855422-.3857143-.2570281-.9.064257-.8357143.5783133l.45 2.8915662c.0642857.3212852-.1285714.6425703-.45.7068273-.3214286.1285141-.7071428-.064257-.8357143-.4497992l-1.2857143-3.9839357-1.2214285-5.6546185z" fill="#f3ac7a"/></g><g transform="translate(187.071429 5.140562)"><g transform="translate(18)"><g transform="translate(0 60.401606)"><g fill="#000"><path d="m16.3928571 82.37751c.1285715-1.5421686-.7714285-2.5060241-.1285714-10.4738955.0642857-.9638555-7.13571427-1.2851406-7.13571427-1.2851406.32142857 3.9196787 1.34999997 6.3614458-2.44285714 11.0522088-.83571429 1.0281125-3.21428572 2.8915663-4.05 3.7269077-.57857143.5783132-1.28571429 3.3413654 2.25 3.3413654 4.43571428 0 7.90714281-1.3493976 9.00000001-3.4698795.0642857-.1927711.3857143-.1285141.3857143-.1285141s1.8 1.2208836 2.1214285-2.7630522z"/><path d="m24.4285714 76.2088353 6.75-.8995984s.0642857.6425703.6428572 2.9558233c.9642857 4.369478 3.4714285 6.682731 4.5642857 7.9036145.9 1.0281124 1.0928571 2.248996.9 3.2771084v.5140563s-.3857143 2.0562249-1.8 2.0562249-7.0714286-.8995984-7.7785714-1.9277109c-.3214286-.4497992-.3857143-.8995984-.3857143-1.2208835 0-.064257-.0642857-.1285141-.0642857-.1285141s-.5785715-2.37751-1.4142858-2.1847389c0 0-1.35-1.3493976-.5785714-3.5341366.8357143-2.1847389-.8357143-6.811245-.8357143-6.811245z"/><path d="m1.35 1.54216867c0 .70682731-.45 2.69879519-.45 3.34136547-.19285714 7.32530116-.38571429 11.43775096-.38571429 13.36546186 0 2.1204819 2.05714286 25.0602409 3.66428572 30.2650602 1.60714286 5.2690763 3.27857143 25.2530121 2.25 26.7951807-1.02857143 1.6064258-.19285714 6.2971888-.19285714 6.2971888s11.37857141-.7710843 11.63571431 1.2851406c0 0 .7071428-.7710844.3214285-5.3333334-.6428571-8.2248996-1.9285714-12.6586345-2.5071428-28.4016064-.1285714-3.1485944-1.8642857-20.0481928-3.15-25.060241-.5785714-2.2489959 5.4642857 23.3895583 7.5857143 30.7791165 0 0 3.9857143 15.871486 3.15 22.6827309-.7714286 6.1044177 1.2214285 7.0040161 1.2214285 7.0040161s7.7142858-2.5060241 11.3785715-.3855422c.1285714-2.1204819.3857143-2.313253-.1285715-6.1686747-.5785714-4.7550201-4.6928571-19.5983935-5.2714285-26.2168674-.7071429-7.8393575-2.1214286-22.5542169-2.6357143-32-.5142857-9.4457832-4.3071429-16.57831329-5.4-18.44176711-1.1571429-1.99196787-21.0857143.19277108-21.0857143.19277108z"/></g><path d="m1.60714286 16.7068273c.38571428 10.7951807 5.33571428 28.8514056 6.49285714 33.6064257s-.38571429 2.9558233.19285714 5.7188755 1.99285716 16.8995984 1.99285716 17.8634538c0 .9638555 5.7214286 2.184739 4.5642857 2.9558233-1.1571429.7710844-5.52857143-.5783132-5.52857143 0 0 .5783133 3.34285713 1.7991968 3.34285713 1.7991968s-6.68571427.3855422-7.13571427.1927711c-.38571429-.1927711.77142857-1.9277108.51428571-3.9839357-1.22142857-10.8594378.19285715-16.4497992-1.35-21.5903615-1.60714285-5.1405622-4.56428571-36.626506-3.98571428-39.9678715.64285714-3.34136544.9 3.4056225.9 3.4056225z" fill="#26282d"/><path d="m12.4714286 21.9116466c2.1857143 4.3694779 7.5857143 27.3092369 8.6142857 30.4578313.9642857 3.1485944 2.5071428 5.5903615 3.2785714 6.5542169s4.4357143 16.5140562 3.8571429 19.2771084c-1.9928572.1927711-3.9214286-.1927711-4.1142857.7710844-.1928572.9638554 5.1428571.5783132 5.1428571.5783132l-6.1071429 2.9558233c-.3214285-1.2208835-.5142857-2.5702811-.5142857-4.9477912 0-2.8273092-.9-15.1004016-2.8285714-21.3975903-1.6071429-5.1405623-2.25-10.9236948-3.7928571-17.4779117-1.6071429-6.1686747-3.5357143-16.7710843-3.5357143-16.7710843z" fill="#26282d"/></g><g transform="translate(8.357143 24.417671)"><path d="m1.47857143 2.57028112 1.15714286.19277109.25714285-2.31325301-2.31428571-.32128514-.12857143 1.02811245z" fill="#6e150e"/><path d="m3.47142857 2.82730924-.96428571-.06425703.32142857-2.31325301 2.31428571.25702811-.12857143 1.02811245z" fill="#991915"/></g><path d="m17.6785714 19.9196787c-.7071428 3.5983936-5.9785714 4.6907631-5.9785714 4.6907631l2.8928571 4.626506 5.0785715-6.6827309z" fill="#fff"/><path d="m10.6071429 24.6104418-3.8571429 3.2771084s-.45-4.3694779-.06428571-5.2048193c.51428571-1.1566265 1.02857142-.9638554 1.02857142-.9638554s-.19285714.5140562.70714286 1.6064257c1.15714286 1.4136546 2.18571433 1.2851406 2.18571433 1.2851406z" fill="#fff"/><path d="m10.7357143 28.6586345c.3857143.1927711 1.0928571.9638555 1.5428571.8353414.3857143-.1285141.5142857-.4497992 0-1.0923695-.45-.6425703-1.2857143-1.0923695-1.5428571-.5783132-.2571429.5783132 0 .8353413 0 .8353413z" fill="#cc9584"/><path d="m10.0928571 16.2570281c.3857143 1.8634538-.6428571 3.8554217-1.41428567 5.4618474s1.47857147 6.6184739 2.50714287 6.6184739 7.9714286-5.0120482 7.9714286-5.0120482-1.9285715.2570281-1.9285715-9.124498c0-1.4779116-7.1357143 2.0562249-7.1357143 2.0562249z" fill="#d2a292"/><g transform="translate(3.857143)"><path d="m16.5214286 10.1526104c0 1.3493976-.9 6.4257029-1.5428572 7.1967872-.1928571.1927711 0 1.7349397.2571429 1.6706827.2571428-.064257-1.0285714.3855422-1.4785714-.064257s-1.35-7.1967872-1.0928572-7.5823293c.1928572-.3212852 3.8571429-1.2208836 3.8571429-1.2208836z" fill="#000"/><path d="m13.2428571 11.8232932c.1928572-3.72690766 1.2857143-7.64658637-4.43571424-8.03212854-1.28571429-.06425703-2.31428572 0-3.21428572.19277108-.32142857-.12851405-.64285714-.25702811-.96428571-.32128514-1.28571429.12851406-2.12142857.96385542-2.89285714 2.63453816-.64285715 1.41365461-.83571429 3.34136546-.77142858 5.20481924 0 .5783133.32142858 1.4136547.38571429 1.9919679.06428571.8353414 0 1.3493976.12857143 1.9919679.25714286 2.248996 1.35 5.0120482 3.08571428 6.6827309.51428572.2570281 1.09285715.4497992 1.73571429.3855422 1.99285714-.0642571 3.7928571-.7710844 4.95-1.9277109.7071429-.5783132 1.2214286-2.441767 1.5428571-4.0481927.7714286-.3212852 2.1214286-1.9277109 2.25-3.0843374.1928572-1.4779116-.45-2.37751-1.8-1.6706827z" fill="#e0ac9c"/><path d="m6.62142857 3.53413655.12857143-.32128514s1.54285714-.83534137 1.22142857-.83534137c-.19285714 0-.70714286-.51405622-1.02857143.25702811l.70714286-1.22088353-3.47142857.96385542s-.77142857-.12851406-1.35.25702811-1.02857143.70682731-1.02857143.70682731.06428571.57831325.19285714-.19277108c-.77142857.19277108-1.28571428 1.99196787-1.35 3.27710843-.06428571.38554217-.12857143.83534137-.19285714 1.28514056-.19285714 1.92771085.19285714 4.11244983.19285714 4.11244983l.38571429.2570281s-.64285714-4.62650604 1.15714286-5.9116466 5.97857142 0 5.97857142 0z" fill="#26282d"/><path d="m16.2 6.29718876c-.5785714-1.15662651-1.35-2.89156627-2.1857143-3.27710844-.45-.89959839-3.4071428-.96385542-6.42857141-2.12048193 0 0 2.70000001 1.02811245 2.70000001 1.73493976-.3857143-.57831325-4.82142859-2.12048192-4.56428573-1.79919678 1.22142857 1.99196787.96428572.64257028.64285714 1.47791164-.06428571 0 .12857143.06425703.06428572.06425703.12857143-.83534137-.83571429-1.67068273-1.47857143-1.86345381.25714286 1.1566265-1.09285714 1.02811244-1.99285714 2.31325301-1.09285715 1.02811245-1.99285715 2.95582329-.83571429 3.85542168 2.63571429 1.99196788 4.75714286.38554217 6.42857143.51405623 1.5428571.12851405 2.3785714 1.02811245 2.7 1.6064257.3857143.77108434.6428571 4.43373495.6428571 4.43373495l1.0928572-.7068273.7714286-1.6064257 2.3785714 1.0281124c0 .0642571 1.2214286-3.34136543.0642857-5.65461844z" fill="#000"/></g><path d="m4.30714286 14.9076305c.77142857.1927711 2.18571428.3212852 2.37857143-.3212851.19285714-.7710844.32142857-1.7349398.32142857-1.7349398s.38571428-.3212851 1.09285714 0c0 0 .19285714 1.0923695.45 1.7991968s2.7.3212852 3.7285714.1285141c.45-.0642571.5142857-1.0923695.5142857-1.9277109l4.95-1.2851405.2571429-.4497992s-4.7571429.8353413-5.4642857.9638554c-.6428572-.1285141-2.95714287.3212851-3.85714287.2570281-.25714286.064257-.77142857 0-1.15714286 0-.45 0-.70714286.1285141-.83571428.1285141-.19285715-.0642571-2.50714286-.4497992-2.82857143-.1927711-.38571429.2570281-.12857143 2.5060241.45 2.6345381zm4.24285714-2.1204819c.25714286.064257 3.5357143-.3855422 3.7285714-.1927711.1285715.1285141.1285715 1.7349398-.3214285 1.8634538-.5785715.1927711-2.76428576.4497992-3.02142861-.128514-.25714286-.6425703-.38571429-1.5421687-.38571429-1.5421687zm-4.43571429-.1285141c.12857143-.128514 2.12142858.1285141 2.37857143.0642571 0 0 .06428572.8995984-.19285714 1.6706827-.06428571.2570281-1.47857143.2570281-1.86428571.064257-.32142858-.1927711-.51428572-1.6706827-.32142858-1.7991968z" fill="#26282d"/></g><path d="m43.3928571 57.060241.5142858-15.1646587-.8357143-3.5983935-.2571429 3.7911646-1.0928571 14.9076305 1.0928571 12.3373494z" fill="#000" opacity=".1"/><path d="m53.55 52.1767068-3.8571429-21.5903614c-.3214285-.8353414-1.4785714-3.1485944-4.7571428-3.9839358l-12.7285714-4.626506v-.064257s0 0 0-.064257h-.0642858l-.1928571.064257-.1928571-.064257h-.0642858v.064257.064257l-12.7285714 4.626506c-3.2785714.8353414-4.4357143 3.1485944-4.7571428 3.9839358l-1.35 23.1967871-7.39285719-4.1124498s.57857143 3.0843374 3.6 9.1887551c3.02142859 6.0401606 9.83571429-2.3775101 9.83571429-2.3775101s.5142857-10.0883534.5142857-11.8875502l.2571429 12.3373494-.7071429 9.3815261-.1928571 5.5903615c8.6785714-.1285141 17.2285714.8353413 25.9071428.8353413l-1.5428571-8.8032128v-2.313253l.2571428-4.562249v-.5783133l7.0071429.9638554c1.9285714.1927711 3.6-1.3493976 3.4714286-3.2128514zm-9.9-2.8915662.2571429-7.2610442 1.0928571 7.2610442z" fill="#673328"/><path d="m36.5785714 23.3895582-4.3071428-1.5421686v-.0642571s0 0 0-.064257h-.0642857l-.1928572.064257-.1928571-.064257h-.0642857v.064257.0642571l-4.95 1.7991967 2.9571428 6.5542169 2.0571429.1927711z" fill="#d2a292"/><path d="m53.55 52.1767068-3.8571429-21.5903614c-.1928571-.5783133-.9-1.9277109-2.3785714-2.9558233 1.6071429 2.8915663 2.1857143 7.7751004 2.25 8.2891566.6428572 3.9196787.9 7.8393574 1.6071429 11.7590362.3214285 1.8634538 1.0285714 4.626506-.3214286 6.2971887-1.5428571 1.8634538-15.75.4497992-19.7357143-.064257-1.9928571-.2570281.1928572-3.9196787.1928572-3.9196787h3.0214285l9.3857143-.7068273s.1928572-6.2971888.2571429-7.2610442c-.2571429 1.9277108-1.35 4.3694779-2.9571429 5.3975903-2.1214286 1.3493976-4.7571428 1.2851406-7.2 1.1566266-4.7571428-.1927711-9.45.3212851-14.2071428.5783132l-.3857143 7.5823293s2.9571428.2570281 5.6571428.3855422c.5785715 0 1.1571429-.3212851 1.2857143-.8995984.1285714-.6425703-.1285714-1.2851406.7071429-1.2851406 4.7571428-.2570281 10.0928571 1.7991968 14.4 3.6626506l2.0571428 1.3493976.1928572-2.8915662v-.5783133l7.0071428.9638554c1.9285715.1927711 3.6-1.3493976 3.4714286-3.2128514z" fill="#000" opacity=".14"/><path d="m21.0214286 41.7028112h-19.60714289c-1.02857142 0-1.28571428.3855422-1.28571428 1.1566266l2.44285714 12.6586345c0 .8353414.64285714 1.2208835 1.47857143 1.2208835h19.4142857c.8357143 0 1.4785714-.3855421 1.4785714-1.1566265l-2.4428571-12.4658634c0-.8353414-.6428571-1.4136547-1.4785714-1.4136547z" fill="#9abccc"/><g fill="#be8c70"><path d="m28.8642857 48.8353414-4.3071428-1.6706828h-1.2857143l1.0928571 6.0401607 2.25.7068273c.9642857.1927711 1.9928572.1927711 2.7642857-.3212852l1.7357143.3855422-.3857143-3.7911646z"/><path d="m18.0642857 48.8995984.8357143 2.6345381c.2571429.7068274.8357143 1.2851406 1.6071429 1.4779117l4.5 1.2208835 3.2142857-.1927711s.45-.128514.9-.2570281l2.1214285.2570281.5785715-3.9839357-5.9785715-1.6064257z"/><path d="m16.8428571 48.8353414c-.3857142 0-.6428571.3212851-.5785714.7068273.0642857.3212851.3214286.5140562.6428572.5140562l7.0714285.1285141-.1285714-1.9277109z"/></g><path d="m26.8071429 22.5542169-.45-.1285141-1.5428572 1.3493976c0 1.9277108 1.2214286 4.9477912 1.2214286 4.9477912l2.5071428-3.1485944c-2.1214285-1.1566265-1.7357142-3.0200803-1.7357142-3.0200803z" fill="#f8f9fa"/><path d="m27 27.5662651c.2571429 2.6345381 2.8285714 2.7630522 2.8285714 2.7630522l-1.2214285-4.7550201z" fill="#d5dde2"/><path d="m33.75 25.6385542 2.3785714 2.6987952s1.0928572-1.8634538 1.8-4.1767068l-1.8-2.120482s-.6428571 2.6987952-2.3785714 3.5983936z" fill="#f8f9fa"/><path d="m31.8857143 30.5220884s1.8-.5140563 2.3142857-1.0281125c1.35-1.2851406 1.2857143-1.8634538 1.2857143-1.8634538l-1.8-1.9277109z" fill="#d5dde2"/></g><g transform="translate(33.428571 52.048193)"><path d="m55.4785714 38.3614458 18.5785715-2.5702811-11.8928572-4.3052209-5.9785714.5783132z" fill="#5c8599"/><path d="m48.7928571 92.9156627-11.3785714-6.2329318c-5.2071428-2.8273092-9.6428571-6.2329317-13.5-10.0240964-.45-.4497992-.8357143-.8353413-1.2857143-1.2851405-1.6714285-1.7349398-3.15-3.5341366-4.5642857-5.3975904-1.7357143-2.313253-3.3428571-4.690763-4.7571428-7.1325301-.5785715-.9638554-1.0928572-1.9277108-1.6071429-2.9558233-2.57142857-4.9477912-4.62857143-9.9598394-6.10714286-14.8433735-.32142857-.9638554-.57857143-1.9277108-.83571428-2.8915663-.12857143-.4497992-.25714286-.9638554-.38571429-1.4136546-.51428571-1.8634538-.96428571-3.7269076-1.35-5.5261044-2.44285714-11.437751-2.44285714-20.3052209-2.44285714-21.6546185v-.064257-13.17269076l11.95714287 4.562249v8.48192766 6.6184739.8353414.3212851 1.1566266.5783132.3855422.3855421.1285141c0 .3212851 0 .5783133.0642857.8995984 0 .1927711 0 .3855422.0642857.5783132 0 .1927711 0 .3855422.0642857.5783133 0 .1927711 0 .3855422.0642857.6425703 0 .1927711.0642858.4497992.0642858.6425703 0 .3212851.0642857.5783132.0642857.8995984 0 .128514 0 .3212851.0642857.4497992 0 .128514 0 .3212851.0642857.4497992.0642857.4497991.0642857.8995983.1285714 1.3493975 0 .1927711.0642857.3855422.0642857.5783133v.1285141c.0642858.3212851.0642858.6425702.1285715.9638554v.064257l.1928571 1.3493976c.0642857.5140562.1285714.9638554.1928572 1.4779116 0 .1927711.0642857.3212852.0642857.5140563 0 .128514.0642857.3212851.0642857.4497992 0 .064257 0 .128514.0642857.192771.0642857.3212852.1285714.5783133.1285714.8995984.0642857.4497992.1285715.8995984.2571429 1.4136547 0 .128514.0642857.3212851.0642857.4497992.0642857.3212851.1285714.6425702.1928571.8995983 0 .1285141.0642858.3212852.0642858.4497992.0642857.3212852.1285714.6425703.1928571.9638555.0642857.4497992.1928571.8995984.2571429 1.2851405.0642857.3855422.1285714.7068273.2571428 1.0923695 0 .064257.0642857.1927711.0642857.2570281.1285715.4497992.1928572.8995984.3214286 1.3493976.0642857.2570281.1285714.5140562.1928571.7068273.1285715.4497992.2571429.8995984.3214286 1.3493976 0 .064257 0 .064257.0642857.1285141.1285715.4497992.2571429.8353413.3857143 1.2851405s.2571429.9638554.3857143 1.4136546c.0642857.1927711.1285714.4497992.1928571.6425703.3857143 1.2208836.7714286 2.4417671 1.2214286 3.6626506.1285714.3855422.2571429.7710844.3857143 1.1566265.3857143 1.0923695.8357143 2.184739 1.2857143 3.2771085.1928571.5140562.3857143.9638554.5785714 1.4779116.1928572.5140562.45.9638554.6428572 1.4779117.1928571.5140562.45.9638554.7071428 1.4779116.1285714.1927711.1928572.3855422.3214286.6425703.3857143.8353414.7714286 1.6064257 1.2214286 2.4417671.1285714.192771.1928571.3855421.3214285.6425702.1285715.2570281.2571429.5140563.3857143.7068273.1928572.3212852.3214286.6425703.5142857.8995984v.0642571c.0642857.1927711.1928572.3212851.2571429.5140562.7071428 1.2208835 1.4142857 2.37751 2.1857143 3.5983936.1285714.2570281.3214285.4497992.45.7068273.1928571.3212851.3857143.5783132.5785714.8995984.1285714.1927711.2571429.3212851.3857143.5140562.1928571.2570281.3214286.4497992.5142857.7068273.1285714.1927711.3214286.3855422.45.6425703.2571429.3855422.5785714.7710843.9 1.1566265.1285714.1927711.3214286.3855422.5142857.5783132.1928572.2570282.3857143.4497992.5785714.7068274.2571429.3212851.5785715.6425702.8357143.9638554.0642857.064257.0642857.064257.1285715.128514.2571428.3212852.5785714.6425703.9.9638555.2571428.2570281.5142857.5783132.7714285.8353413.0642857.064257.1285715.1285141.1285715.1285141s0 0 .0642857.064257c.3214285.3212851.6428571.6425703.9642857 1.0281125.3214286.3212851.6428571.6425702.9642857.9638554.3214286.3212851.6428571.6425703 1.0285714.9638554.3214286.3212851.7071429.6425703 1.0285715.9638554.3857142.3212852.7071428.6425703 1.0928571.9638554.3857143.3212852.8357143.7068273 1.2857143 1.0281125.0642857.064257.1928571.128514.2571428.1927711.2571429.1927711.5142858.3855421.7071429.5783132.2571429.1927711.5142857.3855422.7714286.5783133.2571428.1927711.5142857.3855421.7714285.5783132 0 0 0 0 .0642858.0642571 0 0 .0642857 0 .0642857.064257.2571428.1927711.5142857.3212851.7071428.5140562.2571429.1927711.5142857.3212852.7714286.5140562.3214286.1927711.6428571.4497992.9642857.6425703.2571429.1927711.5142857.3212852.8357143.5140562.2571429.1927711.5785714.3855422.8357143.5140563.3214286.1927711.5785714.3212851.9.5140562-.0642857-.064257.1285714.064257.2571428.1285141z" fill="#5c8599"/><path d="m93.7928571 43.3092369c-5.5928571 17.7991968-16.5214285 38.4899599-37.8642857 52.9477912-2.3785714-.9638554-4.5642857-1.9919679-6.6857143-3.1485944-.1285714-.064257-.3214285-.192771-.45-.2570281-.1285714-.064257-.3214285-.1927711-.45-.2570281-.3214285-.1927711-.5785714-.3212851-.9-.5140562-.3214285-.1927711-.5785714-.3212852-.8357142-.5140562-.2571429-.1927711-.5142858-.3212852-.8357143-.5140563-.3214286-.192771-.6428572-.3855421-.9642857-.6425702-.2571429-.1927711-.5142858-.3212852-.7714286-.5140563-.2571429-.1927711-.5142857-.3212851-.7071429-.5140562 0 0-.0642857 0-.0642857-.064257 0 0-.0642857 0-.0642857-.0642571-.2571429-.192771-.5142857-.3855421-.7714286-.5783132-.2571428-.1927711-.5142857-.3855422-.7714285-.5783133-.2571429-.192771-.5142858-.3855421-.7071429-.5783132-.0642857-.064257-.1928571-.1285141-.2571429-.1927711-.45-.3212851-.8357142-.7068273-1.2857142-1.0281124-.3857143-.3212852-.7071429-.6425703-1.0928572-.9638555-.3857143-.3212851-.7071428-.6425702-1.0285714-.9638554-.3214286-.3212851-.6428572-.6425703-1.0285714-.9638554-.3214286-.3212852-.6428572-.6425703-.9642858-.9638554-.3214285-.3212852-.6428571-.6425703-.9642857-1.0281125 0 0 0 0-.0642857-.064257s-.1285714-.1285141-.1285714-.1285141c-.2571429-.2570281-.5142857-.5783132-.7714286-.8353413-.3214286-.3212852-.5785714-.6425703-.9-.9638555-.0642857-.064257-.0642857-.064257-.1285714-.128514-.2571429-.3212851-.5785714-.6425703-.8357143-.9638554-.1928571-.2570281-.3857143-.4497992-.5785714-.7068273-.1928572-.1927711-.3214286-.3855422-.5142857-.5783133-.3214286-.3855422-.5785715-.7710843-.9-1.1566265-.1285715-.1927711-.3214286-.3855422-.45-.6425703-.1928572-.2570281-.3214286-.4497992-.5142858-.7068273-.1285714-.1927711-.2571428-.3212851-.3857142-.5140562-.1928572-.3212852-.3857143-.5783133-.5785715-.8995984-.1285714-.2570281-.3214285-.4497992-.45-.7068273-.7714285-1.1566265-1.5428571-2.3775101-2.1857143-3.5983936-.1285714-.1927711-.1928571-.3212851-.2571428-.5140562 0 0 0 0 0-.064257-.1928572-.3212852-.3214286-.6425703-.5142857-.8995984-.1285715-.2570282-.2571429-.5140563-.3857143-.7068273-.1285714-.1927711-.1928572-.3855422-.3214286-.6425703-.45-.8353414-.8357143-1.6064257-1.2214286-2.4417671-.1285714-.1927711-.1928571-.3855422-.3214285-.6425703-.2571429-.5140562-.45-.9638554-.7071429-1.4779116-.1928571-.5140562-.45-.9638554-.6428571-1.4779117-.1928572-.4497992-.3857143-.9638554-.5785715-1.4779116-.45-1.0923695-.8357142-2.184739-1.2857142-3.2771085-.1285715-.3855421-.2571429-.7710843-.3857143-1.1566265-.45-1.2208835-.8357143-2.441767-1.2214286-3.6626506-.0642857-.192771-.1285714-.4497992-.1928571-.6425702-.1285715-.4497992-.2571429-.9638555-.3857143-1.4136547-.1285715-.4497992-.2571429-.8353413-.3857143-1.2851405 0-.064257 0-.064257-.0642857-.1285141-.1285715-.4497992-.2571429-.8995984-.3214286-1.3493976-.0642857-.2570281-.1285714-.5140562-.1928571-.7068273-.1285715-.4497992-.1928572-.8995984-.3214286-1.3493976 0-.064257-.0642857-.1927711-.0642857-.2570281-.0642857-.3855421-.1285715-.7068273-.2571429-1.0923695-.1285714-.4497992-.1928571-.8995984-.2571428-1.2851405-.0642858-.3212852-.1285715-.6425703-.1928572-.9638554 0-.1285141-.0642857-.3212852-.0642857-.4497992-.0642857-.3212852-.1285714-.6425703-.1928571-.8995984 0-.1285141-.0642858-.3212852-.0642858-.4497992-.0642857-.4497992-.1928571-.8995984-.2571428-1.4136546-.0642857-.3212852-.1285714-.5783133-.1285714-.8995984 0-.0642571 0-.1285141-.0642858-.1927711 0-.1285141-.0642857-.3212852-.0642857-.4497992 0-.1927711-.0642857-.3212852-.0642857-.5140562-.0642857-.5140563-.1285714-.9638555-.1928571-1.4779117-.0642857-.4497992-.1285715-.8995984-.1928572-1.3493976v-.064257c-.0642857-.3212852-.0642857-.6425703-.1285714-.9638554 0-.0642571 0-.0642571 0-.1285141 0-.1927711-.0642857-.3855422-.0642857-.5783132-.0642857-.4497992-.1285714-.8995984-.1285714-1.3493976 0-.1285141 0-.3212852-.0642858-.4497992 0-.1285141 0-.3212852-.0642857-.4497992 0-.3212852-.0642857-.6425703-.0642857-.8995984 0-.1927711-.0642857-.4497992-.0642857-.6425703s-.0642857-.4497992-.0642857-.6425703 0-.3855422-.0642857-.5783132c0-.1927711 0-.3855422-.0642857-.5783133 0-.3212851-.0642858-.6425703-.0642858-.8995984 0-.064257 0-.064257 0-.128514 0-.1285141 0-.2570282 0-.3855422v-.3855422c0-.1927711 0-.3855421 0-.5783132 0-.4497992 0-.8353414 0-1.1566265 0-.1285141 0-.1927711 0-.3212852 0-.3855421 0-.6425703 0-.8353413v-6.6184739-8.48192775l9.7071429 3.6626506v10.08835345c0 .128514.0642857 13.686747 5.0785714 28.9156626 5.2071429 15.871486 13.5642857 27.437751 24.8142857 34.5060241-.0642857 0-.0642857.064257-.1285714.064257l3.9857143 2.184739c.7714286-.5783133 1.4785714-1.2208835 2.1857143-1.7991968.1928571-.1927711.45-.3855422.6428571-.5783132.2571429-.2570282.5142857-.4497992.8357143-.7068274.2571429-.2570281.5785714-.5140562.8357143-.7710843.1285714-.128514.3214286-.2570281.45-.4497992.7071429-.6425703 1.35-1.2851405 1.9928571-1.9919679.1285715-.128514.2571429-.2570281.3857143-.3855421.5785715-.5783133 1.0928572-1.1566265 1.6071429-1.7349398.1285714-.1927711.3214286-.3212851.45-.5140562.1285714-.1285141.1928571-.1927711.3214286-.3212851.5142857-.5783133 1.0285714-1.2208836 1.5428571-1.7991968.1285714-.1285141.1928571-.2570281.3214286-.3855422.5142857-.6425703 1.0285714-1.2851406 1.5428571-1.9277108.1285714-.1927711.3214286-.3855422.45-.5783133.5785714-.7710843 1.1571429-1.5421687 1.6714286-2.313253.0642857-.064257.0642857-.1285141.1285714-.1927711.5142857-.7710843 1.0285714-1.5421687 1.5428572-2.313253.1928571-.2570281.3214285-.5140562.5142857-.7710843.3857143-.5783133.7714285-1.2208836 1.1571428-1.8634539.1928572-.2570281.3214286-.5783132.5142857-.8353413.3857143-.7068273.8357143-1.4136546 1.2214286-2.184739.1285714-.1927711.1928572-.3855422.3214286-.5783132 0-.0642571.0642857-.1285141.0642857-.1285141.1928571-.3212851.3214286-.6425703.5142857-1.0281124.0642857-.0642571.0642857-.1285141.1285714-.1927711.1285715-.1927711.1928572-.3855422.3214286-.5783133.0642857-.128514.1285714-.1927711.1285714-.3212851.1285715-.2570281.2571429-.5140562.3857143-.7710844 0 0 0-.064257.0642857-.064257.1285715-.2570281.2571429-.4497992.3214286-.7068273v-.064257c.1928572-.4497992.3857143-.8353414.5785714-1.2851406.1285715-.3212851.2571429-.5783132.45-.8995984.0642858-.064257.0642858-.128514.1285715-.1927711.1285714-.2570281.1928571-.5140562.3214285-.7710843.2571429-.5140562.45-1.0281125.7071429-1.6064257.1285714-.2570281.1928571-.5140562.3214286-.7710843.0642857-.0642571.0642857-.1285141.0642857-.1927711.1285714-.2570281.1928571-.5140563.3214286-.7710844 0 0 0 0 0-.064257.2571428-.5783132.45-1.1566265.6428571-1.7349397.0642857-.2570282.1928571-.4497992.2571429-.7068274 0-.064257.0642857-.128514.0642857-.2570281.0642857-.128514.0642857-.1927711.1285714-.3212851.1285714-.2570281.1928571-.5140562.3214286-.8353414 0-.064257.0642857-.064257.0642857-.128514.1928571-.5140563.3857143-1.0281125.5142857-1.5421687.0642857-.1927711.1285714-.3855422.1928571-.5783133.3214286-1.0281124.7071429-2.0562249 1.0285715-3.1485943z" fill="#92d2f4"/><path d="m80.55 38.2971888c-.2571429.8353413-.5142857 1.7349397-.8357143 2.5702811-.1285714.3855421-.2571428.7068273-.3857143 1.0923695-.2571428.7710843-.5142857 1.4779116-.7714285 2.1847389-.2571429.6425703-.45 1.2208835-.7071429 1.8634538-.1928571.5140563-.3857143 1.0923695-.6428571 1.6064257-.2571429.5783133-.5142858 1.2208836-.7714286 1.7991968-.1928572.5140562-.45 1.0281125-.6428572 1.5421687-.2571428.5783132-.5785714 1.1566265-.8357142 1.7349398-.2571429.5140562-.45.9638554-.7071429 1.4136546-.3214286.5783132-.5785714 1.1566265-.9 1.7349397-.2571429.4497992-.45.8995984-.7071429 1.3493976-.1285714.1927711-.1928571.3855422-.3214285.5783133-.3857143.7068273-.8357143 1.4136546-1.2214286 2.1204819-.1928571.3212851-.3214286.5783133-.5142857.8353414-.3857143.6425702-.7714286 1.2208835-1.1571429 1.8634538-.1928571.2570281-.3214285.5140562-.5142857.7710843-.5142857.7710844-1.0285714 1.5421687-1.5428571 2.313253-.0642857.0642571-.0642857.1285141-.1285715.1927711-.5785714.8353414-1.1571428 1.6064257-1.7357142 2.3775101-.1285715.192771-.3214286.3855421-.45.5783132-.5142858.6425703-1.0285715 1.2851406-1.5428572 1.9277109-.1285714.128514-.1928571.2570281-.3214286.3855421-.5785714.7068273-1.2214285 1.4779117-1.8642857 2.184739-.1285714.1927711-.3214285.3212851-.45.5140562-.5142857.5783133-1.0928571 1.1566265-1.6071428 1.7349398-.1285715.128514-.2571429.2570281-.3857143.3855421-.6428572.6425703-1.35 1.3493976-1.9928572 1.9919679-.1285714.1285141-.3214285.3212851-.45.4497992-.5785714.5140562-1.0928571 1.0281124-1.6714285 1.4779116-.1928572.1927711-.45.3855422-.6428572.5783133-.7071428.5783132-1.4142857 1.1566265-2.1214285 1.7349398-11.3142858-7.1325302-19.6071429-18.6987952-24.8142858-34.5060241-5.0142857-15.2289157-5.0785714-28.7871486-5.0785714-28.9156627v-10.0883534l5.7857143 2.184739 12.15 13.4297188 12.15-9.8955823 5.1428571 7.7108434-1.9285714 16.3212851 18.5785714-2.5702811z" fill="#cee9fb"/><g fill="#5c8599"><path d="m84.7285714 39.9036145c-.3214285 1.0923694-.6428571 2.1204819-1.0285714 3.1485943-.0642857.1927711-.1285714.3855422-.1928571.5783133-.0642858.1927711-.1285715.3855422-.1928572.5783132-.1285714.3212852-.1928571.6425703-.3214286.9638555 0 .064257 0 .064257-.0642857.128514-.1285714.3855422-.2571428.7710844-.3857143 1.0923695 0 .064257-.0642857.1285141-.0642857.2570281-.0642857.2570281-.1928571.4497992-.2571428.7068273-.1285715.3212852-.2571429.5783133-.3857143.8995984-.1285714.2570281-.1928572.5140562-.3214286.7710843v.0642571c-.1285714.3212851-.2571428.6425703-.3857143.9638554-.1285714.2570281-.1928571.5140562-.3214285.7710843-.1285715.2570281-.2571429.5783133-.3857143.8353414-.1285715.2570281-.1928572.5140562-.3214286.7710843-.1285714.2570282-.1928571.5140563-.3214286.7710844-.0642857.064257-.0642857.128514-.1285714.1927711-.1285714.3212851-.2571429.6425702-.45.8995984-.1285714.192771-.1928571.3855421-.3214286.6425702-.1285714.1927711-.1928571.4497992-.3214285.6425703v.064257c-.1285715.2570282-.2571429.5140563-.3857143.8353414-.1285715.2570281-.2571429.5140562-.3857143.7710843-.0642857.1285141-.1285714.1927711-.1285714.3212852-.1285715.1927711-.1928572.3855422-.3214286.5783132-.0642857.0642571-.0642857.1285141-.1285714.1927711-5.5285715 10.6024097-12.6642858 19.3413655-21.3428572 26.1526105-1.35-.7068273-2.6357143-1.4136547-3.8571428-2.184739.7071428-.5783132 1.4142857-1.1566265 2.1214285-1.7349397.1928572-.1927711.45-.3855422.6428572-.5783133.5785714-.5140562 1.0928571-.9638554 1.6714285-1.4779116.1285715-.1285141.3214286-.3212852.45-.4497992.7071429-.6425703 1.35-1.2851406 1.9928572-1.9919679.1285714-.1285141.2571428-.2570281.3857143-.3855422.5785714-.5783132 1.0928571-1.1566265 1.6071428-1.7349397.1285715-.1927711.3214286-.3212852.45-.5140563.6428572-.7068273 1.2857143-1.4136546 1.8642857-2.1847389.1285715-.1285141.1928572-.2570281.3214286-.3855422.5142857-.6425703 1.0285714-1.2851406 1.5428572-1.9277108.1285714-.1927711.3214285-.3855422.45-.5783133.5785714-.7710843 1.1571428-1.5421687 1.7357142-2.37751.0642858-.0642571.0642858-.1285141.1285715-.1927711.5142857-.7710844 1.0285714-1.5421687 1.5428571-2.313253.1928572-.2570281.3214286-.5140562.5142857-.7710844.3857143-.5783132.7714286-1.2208835 1.1571429-1.8634538.1928571-.2570281.3214286-.5783132.5142857-.8353413.3857143-.7068274.8357143-1.4136547 1.2214286-2.120482.1285714-.1927711.1928571-.3855421.3214285-.5783132.2571429-.4497992.45-.8995984.7071429-1.3493976.3214286-.5783133.5785714-1.1566265.9-1.7349398.2571429-.4497992.45-.9638554.7071429-1.4136546.2571428-.5783132.5785714-1.1566265.8357142-1.7349398.1928572-.5140562.45-1.0281124.6428572-1.5421686.2571428-.5783133.5142857-1.2208836.7714286-1.7991968.1928571-.5140562.3857142-1.0281125.6428571-1.6064257.2571429-.5783133.45-1.2208835.7071429-1.8634538.2571428-.7068273.5142857-1.4779117.7714285-2.184739.1285715-.3855422.2571429-.7068273.3857143-1.0923695.2571429-.8353413.5785714-1.6706827.8357143-2.5702811z"/><path d="m40.1785714 24.3534137 12.0857143-9.9598394-11.8928571-4.3052209-7.9714286 5.5261044z"/></g></g><path d="m51.75 135.646586c-.5142857 1.349398-.7071429 2.763053-.5785714 4.240964l.0642857.835342c0 .257028.1928571.449799.45.449799.9.064257 11.7-.835342 14.1428571-.706828 2.4428572.128515 5.4-.706827 5.2714286-2.248996-9.45-1.92771-12.2785714-3.212851-12.2785714-3.212851z" fill="#000"/><path d="m66.3428571 139.88755c-2.1857142-.128514-12.4071428.514056-15.1071428.578313v.321286c0 .257028.1928571.449799.45.449799.9.064257 11.7-.835342 14.1428571-.706828 2.1857143.128515 4.7571429-.514056 5.2071429-1.799196-.9.835341-2.8928572 1.28514-4.6928572 1.156626z" fill="#000"/><path d="m56.8285714 101.269076 3.2785715 34.248996s-1.0928572 2.056225-4.4357143 2.634538c-3.3428572.578314-5.0785715-.321285-5.0785715-.321285l-5.2071428-28.979919-.1285714-6.746988z" fill="#878787"/><path d="m47.7 100.240964s.3857143 34.827309 8.0357143 37.911646c-3.3428572.578314-5.0785714-.321285-5.0785714-.321285l-5.2071429-28.979919-.1285714-6.746988z" fill="#232322"/><path d="m24.1714286 11.6305221c.8357143.3212851 2.4428571 1.4136546 3.15.8995984 1.0285714-.7068273 5.3357143.8995984 6.3 2.9558233.3857143.8995984.5142857.5783132.3857143 1.6706827-.1928572 2.37751-1.4142858 4.562249-3.2142858 6.2329317-4.8214285 4.3694779-4.5642857 9.9598394-7.9714285 10.0883534-5.5285715.1927711-10.5428572-6.0401606-10.0928572-12.5301204-.0642857-9.2530121 7.7785715-10.6666667 11.4428572-9.3172691z" fill="#5f4540"/><path d="m15.3642857 26.6666667 7.5857143 3.4698795.1928571 3.2128514c.1285715 1.7991968.7714286 3.3413655 2.1857143 4.3694779 0 0 8.8071429 8.6746988 1.6071429 9.188755s-14.5285714-9.253012-14.5285714-9.253012c3.3428571-4.8835342 2.9571428-10.9879518 2.9571428-10.9879518z" fill="#f7b282"/><path d="m19.6071429 76.4658635 3.8571428 1.8634538 6.4928572 3.1485943 15.0428571 6.9397591c3.0214286 1.4136546 5.9142857 3.0843373 8.6142857 5.0763052 1.9928572 1.4779117 3.2142857 3.7911647 3.2142857 6.2329317v1.4779114l-4.6928571 5.654619-5.4-4.048193-34.8428572-11.5662651z" fill="#878787"/><path d="m23.6571429 88.8674699 21.7928571 10.5381526c1.2214286.5783132 2.0571429 1.7349395 2.1857143 3.0843375l.1285714 1.156626-35.8714286-12.4016061z" fill="#232322"/><path d="m16.8428571 149.461847c-.1285714 2.056225.7071429 3.46988 1.2857143 6.040161.45 1.73494.5785715 3.919679-3.6 4.048193-3.8571428.128514-3.8571428-2.698795-3.8571428-3.084338 0-.385542.5142857-4.947791.5142857-4.947791z" fill="#000"/><path d="m14.4642857 158.586345c-1.2857143.064257-2.3785714-.192771-3.2785714-.514056.45.771084 1.4142857 1.477912 3.4071428 1.413655 2.4428572-.064257 3.4071429-.835342 3.6642858-1.799197-.9.449799-2.1214286.835341-3.7928572.899598z" fill="#000"/><path d="m27.5785714 79.0361446-.9 7.4538152c-.1928571 1.4779117-.9642857 2.7630522-2.25 3.5341366-.7714285.4497992-1.2857143 1.2208835-1.4785714 2.0562249l-3.8571429 26.0883537-.7071428 34.313253s-.7071429.578313-4.1785714.835341c-3.4714286.257028-3.8571429-.899598-3.8571429-.899598l-1.8-16.064257c-.38571429-4.176707-1.09285714-8.803213-.38571429-12.915663l.77142858-4.626506-1.35-14.072289c-.32142858-3.084338-.70714286-6.6184741-.51428572-9.6385544l.25714286-3.5341365c.06428571-.6425703 0-1.2851406-.25714286-1.9277109-.64285714-1.9277108-.83571428-3.9196787-.64285714-5.9116466l.57857143-5.5903614z" fill="#878787"/><path d="m10.9285714 118.811245c-1.79999997-15.036145.3857143-28.6586346.3857143-28.6586346s8.7428572 0 9.1285714-7.9678714l-13.2428571-3.9839358h-.12857143l-.57857143 5.5903615c-.19285714 1.9919678 0 3.9839357.64285715 5.9116465.19285714.6425703.25714285 1.2851406.25714285 1.9277109l-.25714285 3.5341365c-.25714286 3.0843374.19285714 6.6184744.51428571 9.6385544l1.35 14.072289-.77142857 4.626506c-.64285714 4.11245 0 8.738956.38571428 12.915663l1.79999999 16.064257s-3.02142856-21.140563.5142857-33.670683z" fill="#000"/><path d="m12.3428571 82.0562249c-.2571428 2.5702811-.7714285 6.2329317-.7714285 6.2329317s5.1428571.5140563 6.5571428-4.0481927-5.7857143-2.184739-5.7857143-2.184739z" fill="#878787"/><path d="m4.75714286 40.2891566 7.65000004-2.6987952s5.5285714 7.1325302 12.4071428 6.1686747c1.9928572-.2570281 2.1214286-4.4337349.45-6.1044176.2571429.1927711 3.5357143-1.8634538 9-.9638554.7071429 1.2851405.9642857 9.9598393-.7714286 12.7871485-.3214285-.128514-1.9285714.9638555-1.9285714.9638555v.064257c.1928572 2.313253.0642857 4.626506-.3857143 6.875502-.5785714 3.1485944-1.35 7.7108434-1.2857143 9.2530121.3214286 6.5542168 2.5071429 14.0722891 1.8 15.3574297-1.0285714 1.7991968-10.1571428 5.0120482-25.32857139 1.6064257-.25714285-14.5863454-1.22142857-25.5742972-1.22142857-25.5742972l-3.47142857-5.3975904c-1.41428571-2.248996-1.99285714-4.9477911-1.35-7.5180723.57857143-2.0562249 1.73571429-4.0481927 4.43571429-4.8192771z" fill="#7bb929"/><path d="m19.9928571 36.562249c.8357143.5783132 4.2428572 1.9277108 5.3357143 1.1566265-.1928571-.1285141-.3214285-.2570281-.5142857-.4497992-1.0285714-1.0281124-1.5428571-2.37751-1.6714286-3.9196787l-.1928571-3.2128514-6.3642857-2.1204819s-.8357143 5.7188755 3.4071428 8.5461847z" fill="#bb6636" opacity=".1"/><path d="m18 24.3534137c.7714286-4.1124498 2.5714286-2.6987952 3.6642857-4.1767069 2.4428572-3.2771084 5.0785714.6425703 9.0642857 2.184739 0 .3212851-1.2214285 6.1686747-1.5428571 7.0682731-2.1214286 5.7188755-1.8 6.4899598-5.7857143 5.6546184-3.9857143-.8995983-6.6857143-3.2128514-7.3928571-5.9116465-.1928572-.7068273-.9642858-3.7911647-.9642858-3.7911647.7071429.064257 2.6357143.5140562 2.9571429-1.0281124z" fill="#f7b282"/><path d="m16.3285714 22.2329317c.45.3855422.1928572 5.3333334-.3857143 5.3333334-1.4142857.064257-2.1214285-2.3132531-2.25-3.8554217-.1928571-1.9919679 1.8642858-2.120482 2.6357143-1.4779117z" fill="#f7b282"/><g transform="translate(47.571429)"><g transform="translate(77.785714 34.056225)"><path d="m34.4571429 46.8433735c-.1928572-1.3493976-.3214286-2.6987952-.3857143-4.0481928-.7714286-.128514-1.4785715-.7068273-1.4785715-1.5421687 0-.8995983 0-1.7991967.0642858-2.6987951-.6428572.5783132-1.9285715.3212851-2.3142858-.4497992-.2571428-.5140563-.3857142-1.0281125-.5142857-1.6064257-.9642857.3855421-2.1857143-.1927711-2.1857143-1.4136547 0-.4497991 0-.8995983.0642858-1.2851405-2.3142858 4.690763-.3214286 10.1526104-2.5071429 14.9718875-.2571429 2.5702812-1.7357143 5.0763053-1.9928571 7.6465864-.1285715 1.1566265-1.0285715 2.8915662-1.0285715 4.1124498-.6428571 5.0120482-2.1214285 9.5100401-2.3142857 14.5863454-.2571428 6.4257028-.1928571 12.9156626-.5142857 19.3413654-.0642857.8995984.1928571 12.6586347-1.2214286 17.5421687.0642857 0 .1285715.064257.1928572.064257 1.7357143.449799 3.15-.128514 4.2428571-1.220884.9642857-4.690763 2.1857143-9.317269 3.15-13.9437746.5142857-2.4417671.9642857-4.9477912 1.2214286-7.3895582.3214286-2.5060241.3857143-5.0120482.6428571-7.5180723.1928572-2.4417671.3857143-4.8835342.8357143-7.2610442s1.0928572-4.626506 1.8-6.939759c1.2857143-4.3052209 2.8285714-8.6104418 3.2785714-13.1084338.1928572-1.9919678.2571429-4.0481927.45-6.1044176.3857143-.0642571.7071429-.1285141 1.0928572-.1927711.3214286-.0642571.5785714-.1927711.8357143-.3855422-.7071429-.064257-1.35-.3855422-1.4142857-1.1566265" fill="#55210e"/><path d="m22.4357143 108.273092c-.7714286 2.184739-1.4785714 4.369478-2.4428572 6.48996h.1285715c-.2571429.771085-.5142857 1.542169-.9 2.184739-.0642857.192771-.1928572.385542-.2571429.514056-.0642857.064257-.0642857.128514-.1285714.257029v.064257c-.7714286 0-1.35 1.413654-.6428572 1.863453 1.6071429.963856 2.7642858-2.506024 3.15-3.534136.7714286-1.799197 2.0571429-3.919679 2.25-5.84739.1285715-.835341-.3857142-1.670682-1.1571428-1.991968" fill="#bfc3c6"/><path d="m22.8857143 108.273092c.0642857-.385542.0642857-.706827-.0642857-1.028112-1.0928572-.706827-2.3785715-.771084-3.7285715-.706827 0 0-.3214285 0-.3214285.064257-.0642857 1.670682-.3857143 3.534136-1.5428572 4.75502-1.4785714 1.670682-2.7642857 2.891566-3.3428571 5.140562 0 .192771.0642857.321285.1285714.449799.5142857 1.542169 1.9928572 2.37751 3.4071429 1.863454.1285714-.064257.2571428-.128514.3857143-.192771.45-.128514.8357142-.385542 1.1571428-.771084.3857143-.4498.6428572-.963856.9642857-1.413655.5142857-.706827 1.0285715-1.220884 1.4142857-1.991968.2571429-.578313.45-1.220883.7071429-1.799197.3857143-.771084.9642857-1.413654 1.35-2.184739.3214286-.771084.0642857-1.606425-.5142857-2.184739" fill="#2f262e"/><path d="m13.5 117.076305c-.0642857.706828-.1285714 1.349398.1928571 1.670683.2571429.257028.6428572.385542 1.0285715.514056.6428571.257028 1.35.449799 1.9928571.64257.6428572.128515 1.2857143.128515 1.8642857.064257.7071429-.706827 1.0285715-2.120481.9642857-3.02008 0-.321285-.1285714-.706827-.2571428-1.028112-.3214286-.449799-.9-.706828-1.2857143-.963856-.8357143-.385542-1.7357143-.64257-2.6357143-.578313s-1.4142857.64257-1.7357143 1.349398c0 .449799-.0642857.899598-.1285714 1.349397" fill="#bfc3c6"/><path d="m48.9214286 40.5461847c-.0642857-1.0923694-.9-2.0562249-1.9928572-2.1204819-.7714285 0-1.4785714.4497992-1.8642857 1.0923695-2.5714286 0-5.1428571-.064257-7.7142857-.064257.1928571 0 .3214286.5140562.45 1.3493976-1.0928571-.1927711-1.9285714.4497991-2.3785714 1.4136546-.8357143 1.9277108-.5785715 4.1767068-.3214286 6.1686747.2571429 1.9919678.7071429 4.0481927.9 5.9116466.6428571 5.3975903 1.6071429 10.7309236 2.3785714 16.128514.1928572 1.5421687.45 3.0200803.6428572 4.562249.1285714 11.1807229.9 22.3614458.9642857 33.5421682.1285714.4498.2571428.835342.3857143 1.285141.1928571.578313.45 1.09237.7071428 1.606426.9.835341 2.0571429 1.28514 3.4714286 1.028112.0642857 0 .1285714 0 .1928571-.064257-.45.128514 0-11.823293.1928572-12.9156625.9642857-5.7188755 2.4428571-11.3092369 2.1214286-17.0923695-.3857143-6.6184739.7071428-13.3012048 1.6714285-19.8554216 1.0928572-7.4538153.45-14.3935743.1928572-21.9759037" fill="#55210e"/><path d="m41.1428571 108.208835c.5785715 2.248996 1.0928572 4.497992 1.8642858 6.682731-.0642858 0-.1285715 0-.1285715 0 .1928572.771085.3857143 1.542169.6428572 2.248996.0642857.192771.1285714.385542.2571428.578314.0642857.064257.0642857.128514.1285715.257028v.064257.064257c.7714285.064257 1.2214285 1.542168.45 1.927711-1.6714286.835341-2.5071429-2.763053-2.8285715-3.791165-.5785714-1.863454-1.7357143-4.11245-1.7357143-6.040161 0-.899598.5785715-1.670683 1.35-1.991968" fill="#bfc3c6"/><path d="m40.6928571 108.208835c-.0642857-.385542 0-.706827.1285715-1.028112 1.1571428-.64257 2.4428571-.514056 3.7928571-.385542 0 0 .1928572 0 .1928572.064257-.1285715 1.670682.2571428 3.534136 1.2857142 4.947791 1.35 1.799197 2.5071429 3.084337 2.8928572 5.39759-.0642857.128514-.1285714.321285-.1928572.449799-.6428571 1.542169-2.1857142 2.184739-3.5357142 1.542169-.1285715-.064257-.2571429-.128514-.3857143-.192771-.45-.192771-.8357143-.514056-1.0928572-.899598-.3214285-.514057-.5142857-1.028113-.8357143-1.542169-.45-.706827-.9-1.349398-1.2214285-2.120482-.2571429-.578313-.3214286-1.220883-.5785715-1.863454-.3214285-.835341-.8357142-1.477911-1.1571428-2.313253-.1928572-.706827.1285714-1.542168.7071428-2.056225" fill="#2f262e"/><path d="m49.3071429 117.783133c0 .706827 0 1.349397-.3857143 1.606425-.2571429.257028-.7071429.321285-1.0928572.449799-.7071428.192772-1.35.385543-2.0571428.4498-.6428572.064257-1.2857143 0-1.8642857-.128514-.6428572-.771085-.8357143-2.184739-.7071429-3.148595.0642857-.321285.1928571-.706827.3214286-1.028112.3857143-.385542.9-.642571 1.35-.835342.8357143-.321285 1.7357143-.514056 2.7-.321285.8357143.128514 1.35.706828 1.6071428 1.542169.0642857.514056.1285715.963855.1285715 1.413655" fill="#bfc3c6"/><path d="m2.50714286 37.9116466c0-.064257-.06428572-.064257-.06428572-.1285141-.19285714-.2570281-.38571428-.5783132-.38571428-.9638554 0-.3212851 0-.5783132 0-.8995984.06428571-.064257.06428571-.128514.06428571-.1927711l1.41428572.5783133c.12857142.064257.25714285.1927711.38571428.3212851.12857143.1285141.19285714.3212852.12857143.4497992 0 .1285141-.12857143.1927711-.19285714.3212852-.25714286.2570281-.45.5783132-.70714286.8353413-.06428571.0642571-.12857143.0642571-.19285714.0642571-.06428572 0-.19285715 0-.25714286-.0642571-.12857143-.064257-.12857143-.1927711-.19285714-.3212851" fill="#f19d81"/><path d="m10.9285714 27.6305221c1.6071429-2.0562249 3.3428572-4.0481928 5.1428572-5.8473896 2.0571428-1.9919678 2.3785714-5.4618474 2.8928571-8.0963855.45-2.248996 4.3071429-15.80722893 8.4857143-12.78714861.45.32128514.6428571.96385543.6428571 1.54216868-.0642857 2.31325301-1.2857142 4.88353413-2.25 6.87550201-.1285714.19277108-.2571428.32128514-.3857142.38554216-.5142858 2.82730926-.7714286 5.20481926-1.8 7.77510036-.7714286 1.9277109-2.25 4.1124498-3.0214286 5.9759037-.9642857 2.1847389-2.7642857 3.9839357-4.5 5.5903614-.3857143.3212851-.7071429.6425703-1.0928572 1.0281125-1.4785714 1.3493975-2.9571428 2.6987951-4.4357142 4.0481927-.83571433.7068273-3.60000004 3.9839358-4.3071429 2.120482-.25714286-.6425703-.12857143-.5783133.12857143-1.2851406.9-2.6987952 2.82857143-5.1405623 4.49999997-7.3253012" fill="#f7ae83"/><path d="m4.05 34.4417671c-.70714286.1927711-1.28571429.5140562-1.73571429.8995984-.19285714.128514-.32142857.3855421-.32142857.6425702 0 .4497992.38571429.6425703.70714286.8353414.25714286.1285141.51428571.3855422.45.7068273-.06428571.1285141-.12857143.2570281-.25714286.3212852-1.09285714 1.0923694-1.54285714 1.5421686-2.63571428 2.6345381.32142857.1927711.70714285.1927711 1.09285714 0 .32142857-.128514.57857143-.4497992.9-.7068273.83571429-.8353414 1.15714286-1.0281124 1.99285714-1.8634538.32142857-.3212852.9-.7068273 1.22142857-.3855422-.12857142.5783133-.77142857.8995984-1.35 1.1566265-.25714285.1285141-.19285714.4497992.06428572.5140562.70714286.1285141 1.47857143 0 2.12142857-.3212851.9-.4497992 1.54285714-1.3493976 1.73571429-2.313253.06428571-.3212851.06428571-.6425703.19285714-.9638554.06428571-.1285141.06428571-.2570281.06428571-.3855422s-.12857143-.2570281-.25714285-.3212851c-1.02857143-.8353414-2.63571429-.8995984-3.98571429-.4497992" fill="#f7b089"/></g><path d="m113.078571 6.6184739c-.771428.32128514-2.185714.06425702-2.828571-.4497992-1.221429-1.02811245-4.5.12851406-5.785714 3.14859438-.385715.89959842-.514286 1.99196782-.45 3.14859442.128571 2.5060241 1.157143 4.8192771 2.7 6.4899598 4.178571 4.497992 3.857143 10.4096385 6.878571 10.5381526 4.95.1927711 9.578572-6.4257028 9.385714-13.3012048.45-9.5742972-6.557142-11.05220885-9.9-9.5742972z" fill="#a4a3a3"/><path d="m95.9142857 50.5060241 2.7642857-10.3453815c1.7357146-6.2329318 10.6714286-8.6746988 10.6714286-8.6746988s8.807143-.1285141 12.857143 1.4136546c3.985714 1.5421687 6.621428 4.2409638 6.621428 4.2409638l-1.671428 7.2610442-2.828572 8.7389558c-1.157142 3.5341366-1.092857 7.3253013.192858 10.7951808.321428.9638554.707142 1.8634538 1.092857 2.8273092 1.35 3.5983936 3.471428 20.626506 1.414285 32.5783133-14.978571 2.4417675-28.478571-.8995984-28.478571-.8995984l4.628571-23.5823293c1.157143-7.4538153 1.735715-14.0722892 1.092858-21.1405623l-.964286-1.8634538-4.3714287 5.3975903z" fill="#44195e"/><path d="m109.992857 26.0883534.128572 5.3975904-1.864286.1927711s-1.864286 4.0481927-2.25 6.5542168c-.45 2.6987952 7.907143 4.0481928 10.8-4.562249 2.892857-8.6104417-2.571429-10.9879518-2.571429-10.9879518z" fill="#e6b289"/><path d="m114.235714 22.6827309-4.242857 3.4056225.128572 4.7550201c.064285 0 .064285-.064257.128571-.064257l6.621429-3.7911647-.064286-1.4136546c-1.157143-1.9277109-2.571429-2.8915663-2.571429-2.8915663z" fill="#d89c73"/><path d="m104.271429 16.5140562c.45 1.5421687-1.028572 4.1124498-.578572 5.5903615.257143.8353413 1.8 4.1124498 3.021429 5.8473895.514285.7710844 1.285714 1.4779117 2.185714 1.5421687.578571.064257 1.157143-.1285141 1.671429-.3855422l6.364285-3.6626506-.642857-10.8594377-10.092857-3.9839358-1.221429 1.3493976c-.835714.8995984-1.221428 2.120482-.964285 3.3413655z" fill="#e6b289"/><path d="m115.457143 20.3052209c.192857-.5783133.578571-1.0281125 1.157143-1.1566265.257143-.0642571.514285-.0642571.835714.064257.964286.4497992-.128571 3.4698795-1.607143 3.6626506-1.092857.2570281-.642857-1.6064257-.385714-2.5702811z" fill="#e6b289"/><path d="m105.557143 18.4417671c0 .064257.064286.128514.064286.128514s0-.064257-.064286-.128514z" fill="#d89c73"/><path d="m100.735714 54.5542169.128572.2570281 1.735714-2.1204819-.321429-.6425703c-1.092857-2.4417671-1.35-5.2048193-.707142-7.7751004l.771428-3.2128514-1.221428 2.6345381c-1.671429 3.3413655-1.8000004 7.2610442-.385715 10.8594378z" fill="#020203" opacity=".05"/><path d="m115.971429 54.4257028s-4.821429-.8995984-6.942858-1.0923695c-2.121428-.2570281-4.242857.4497992-4.114285.6425703.642857.2570281 5.014285 1.4136546 11.057143.4497992z" fill="#020203" opacity=".05"/><path d="m93.7285714 10.1526104c-.1928571-.064257-.45-.19277104-.6428571-.25702807-.1285714-.06425703-.2571429-.06425703-.3214286-.12851406-.1285714-.06425703-.3214286-.12851405-.45-.19277108l-.2571428-.12851406c-.1285715-.06425703-.3214286-.12851405-.45-.12851405-.1285715-.06425703-.3214286-.12851406-.45-.12851406-.0642858 0-.1928572-.06425703-.2571429-.06425703-.3214286-.12851405-.6428571-.19277108-.9642857-.32128514-.6428572-.19277108-1.4142857-.38554217-2.1214286-.57831325-.3857143-.06425703-.7714286-.19277109-1.1571428-.25702811-.1928572-.06425703-.3857143-.06425703-.5785715-.12851406-.1928571-.06425703-.3857143-.06425703-.5785714-.12851406-.1928571-.06425702-.3857143-.06425702-.6428571-.12851405-.2571429-.06425703-.45-.06425703-.7071429-.12851406-.45-.06425703-.9-.12851406-1.35-.19277108-.1928571 0-.3857143-.06425703-.5142857-.06425703-.0642857 0-.0642857 0-.1285714 0 0 0-.0642858 0-.1285715 0-.1928571 0-.45-.06425703-.6428571-.06425703-.5142857-.06425703-.9642857-.12851406-1.4785714-.12851406-.1285715 0-.1928572 0-.3214286-.06425702-.1285714 0-.2571429 0-.3214286 0-.45-.06425703-.9-.06425703-1.4142857-.12851406-.0642857 0-.1285714 0-.1285714 0h-.0642857c-.1928572 0-.3857143 0-.5785715-.06425703-.0642857 0-.1285714 0-.1928571 0h-.0642857c-.2571429 0-.45 0-.7071429-.06425703-.1285714 0-.3214286 0-.5142857 0-.3857143 0-.8357143 0-1.2214286-.06425702-.0642857 0-.1285714 0-.1928571 0-.2571429 0-.5142857 0-.7714286 0-.1928571 0-.3857143 0-.5785714 0-.1928572 0-.3857143 0-.5785714 0h-.1285715c-.2571428 0-.45 0-.7071428 0h-.1928572c-4.5.06425702-9.7071428.38554216-15.5571428 1.22088353-31.5 4.43373497-42.1071429 16.44979917-43.3285715 17.86345377l-11.95714281-6.3614457c.06428571-.0642571.12857142-.3212852.25714285-.4497992.32142857-.3212852.83571429-.9638555 1.73571429-1.7349398.9-.8353414 2.12142857-1.7991968 3.79285714-2.9558233 2.05714286-1.4136546 4.75714283-3.0200803 8.16428573-4.62650601 6.75-3.21285141 16.3928571-6.36144578 29.7-8.2248996 5.4642857-.77108434 10.2857143-1.15662651 14.5928571-1.22088353h.8357143.7071429 1.2214285c12.2142858.19277108 19.2857143 2.82730923 22.8857143 4.75502008z" fill="#6e9eb6"/><path d="m12.0857143 25.7028112-.0642857 20.1767069-11.95714289-4.562249.06428572-21.9759036z" fill="#5c8599"/><path d="m85.6285714 18.8915663-.0642857 28.9799196c0 .1285141-.1285714 13.7510041-5.2071428 30.3935743-.0642858.3212852-.1928572.5783133-.2571429.8353414l-6.4928571-2.5060241-18.5785715 2.5702811 1.9285715-16.3212851-5.1428572-7.7108434-12.15 9.8955823-12.15-13.4297188-5.7857143-2.184739.0642857-19.7911646c5.4642858-3.8554217 16.5214286-9.124498 33.9428572-11.5662651 8.9357143-1.2851406 16.2642857-1.2851406 21.9214286-.7068273 3.0857142.3212851 5.6571428.7710843 7.8428571 1.3493976z" fill="#cee9fb"/><path d="m96.0428571 11.1807229c-.0642857-.064257-.1285714-.064257-.1928571-.1285141-.1285714-.064257-.2571429-.128514-.3857143-.192771-.1285714-.0642571-.1928571-.1285141-.3214286-.1285141-.0642857-.064257-.1285714-.064257-.2571428-.1285141 0 0 0 0-.0642857 0-.1928572-.064257-.3214286-.128514-.5142857-.2570281-.1928572-.064257-.3857143-.1927711-.6428572-.2570281 0 0-6.8785714-3.21285139-18.5142857-3.53413653-.6428571 0-1.35-.06425703-2.0571429-.06425703-.1928571 0-.3857142 0-.5785714 0-.1928571 0-.3857143 0-.5785714 0h-.1285714c-.2571429 0-.45 0-.7071429 0h-.1928571c-.1928572 0-.3214286 0-.5142858 0-.2571428 0-.45 0-.7071428 0-.1285714 0-.3214286 0-.45 0-.3214286 0-.6428572 0-.9642857 0-.2571429 0-.5142857 0-.8357143.06425703-.2571429 0-.5785714 0-.8357143.06425703-.1285714 0-.3214286 0-.45 0-.2571429 0-.5785714 0-.8357143.06425702-.3857143 0-.8357143.06425703-1.2214286.06425703-.2571428 0-.5142857.06425703-.8357142.06425703-.1285715 0-.3214286 0-.45.06425703-.3214286 0-.6428572.06425703-.9642858.06425703-.7071428.06425702-1.4142857.12851405-2.1214285.19277108-.5785715.06425703-1.2214286.12851406-1.8.19277108-.7714286.12851406-1.5428572.19277109-2.3142857.32128515-.8357143.12851405-1.6714286.25702811-2.4428572.38554216-.3857143.06425703-.7714286.12851406-1.2214286.19277109-.1285714 0-.2571428.06425703-.3857142.06425703-.3857143.06425702-.7714286.12851405-1.1571429.19277108-.5142857.06425703-1.0285714.19277109-1.4785714.25702811-.3214286.06425703-.6428572.12851406-.9642857.19277109-.2571429.06425703-.5142858.12851405-.7714286.12851405-.3214286.06425703-.5785714.12851406-.9.19277109s-.6428572.12851405-.9642857.19277108c-.45.12851406-.9642857.19277109-1.4142857.32128514-.5785715.12851406-1.1571429.25702813-1.7357143.44979923-1.6714286.3855421-3.2142857.8353413-4.7571429 1.2851405-.5785714.1927711-1.2214286.3855422-1.8.5783133-.3214286.064257-.5785714.1927711-.8357143.2570281-.2571428.064257-.5785714.1927711-.8357143.2570281-.2571428.1285141-.5785714.1927711-.8357142.2570281-.2571429.1285141-.5142858.1927711-.7714286.3212852-.45.128514-.9.3212851-1.35.5140562-.0642857 0-.1285714.064257-.1928572.064257-.2571428.1285141-.5142857.1927711-.7714285.3212852-.2571429.128514-.5142857.192771-.7071429.3212851-.2571428.1285141-.45.1927711-.7071428.3212851-.2571429.1285141-.45.1927711-.7071429.3212852-.2571429.128514-.45.1927711-.6428571.3212851-.1928572.064257-.3214286.1285141-.5142858.1927711-.7071428.3212851-1.4142857.6425703-2.0571428.9638554-.3857143.1927711-.8357143.3855422-1.1571429.5783133-.1928571.128514-.3857143.1927711-.5785714.3212851-.1928571.1285141-.3857143.1927711-.5785714.3212852-.3857143.192771-.7071429.3855421-1.0285715.5783132-.1928571.1285141-.3214285.1927711-.5142857.3212852-.1928571.128514-.3214285.192771-.5142857.2570281-.1285714.128514-.3214286.192771-.45.3212851-.3214286.1927711-.5785714.3855422-.9.5783133-.3214286.192771-.5785714.3855421-.8357143.5783132-.1285714.064257-.2571428.1927711-.3857143.2570281-.1928571.1285141-.3857142.2570281-.5785714.3855422-.1285714.064257-.1928571.128514-.2571428.1927711-.0642858.064257-.1928572.128514-.2571429.1927711-.1928571.128514-.3857143.2570281-.5142857.3855421-.3214286.2570281-.6428572.5140563-.9642857.7710844-.1285715.128514-.2571429.2570281-.3857143.3212851-.1285714.1285141-.2571429.1927711-.3857143.3212851-.1285714.1285141-.2571429.1927711-.3214286.3212852-.3214285.3212851-.6428571.5783132-.9.8353414-.0642857.064257-.1285714.128514-.1928571.192771-.0642857.0642571-.1285714.1285141-.1285714.1285141-.0642858.064257-.0642858.064257-.1285715.1285141-.0642857.064257-.0642857.128514-.1285714.128514-.3214286.3212851-.5142857.5783133-.5785714.6425703l-.0642857 20.1767068 9.7071428 3.6626506.0642857-19.7911646c5.4642857-3.8554217 16.5214286-9.124498 33.9428572-11.5662651 8.9357143-1.2851406 16.2642857-1.2851406 21.9214285-.7068273 3.0857143.3212851 5.6571429.7710843 7.8428572 1.3493976.0642857 0 .0642857 0 .1285714.064257.1285714.064257.2571429.064257.3857143.1285141.1285714.064257.2571429.064257.3214286.128514.0642857 0 .1285714.064257.1928571.064257.1928572.0642571.3857143.1285141.5785714.1927711 1.1571429.3855422 1.4785715.5140563 2.1214286.7710844.0642857 0 .1285714.064257.1928572.064257.0642857 0 .1285714.064257.1928571.064257l-.0642857 29.8152611v.5783132.1285141c0 .3212851 0 .7068273-.0642857 1.1566265v.2570281c0 .5140562-.0642857 1.0923695-.1285715 1.7991968 0 .2570281-.0642857.4497992-.0642857.7068273v.2570281c0 .1285141 0 .2570281-.0642857.3855422 0 .3212851-.0642857.6425703-.1285714 1.0281124v.2570281c0 .1285141 0 .2570282-.0642857.4497992v.0642571c0 .128514 0 .2570281-.0642857.3855421v.1927711.064257c0 .1285141 0 .1927711-.0642858.3212852v.128514c0 .2570282-.0642857.5783133-.1285714.8353414v.2570281c-.0642857.3212852-.0642857.7068273-.1285714 1.0281125 0 .2570281-.0642857.4497992-.0642857.7068273 0 .128514-.0642857.2570281-.0642857.3855421-.0642858.3855422-.1285715.8353414-.1928572 1.2208836-.0642857.2570281-.0642857.5140562-.1285714.7068273-.0642857.3855422-.1285714.7068273-.1928572 1.0923695-.0642857.5140562-.1928571 1.0281124-.2571428 1.6064257-.0642857.2570281-.0642857.4497992-.1285714.7068273-.1285715.6425703-.2571429 1.2851405-.3857143 1.9277108v.0642571c-.1285715.6425702-.2571429 1.3493975-.45 1.9919678-.0642857.2570281-.1285715.5140562-.1928572.7710844-.1285714.4497992-.1928571.8995984-.3214285 1.3493976-.5142858 2.1847389-1.0928572 4.4337349-1.8 6.8112449-.0642858.2570281-.1285715.5140563-.2571429.8353414 0 .1285141-.0642857.1927711-.0642857.2570281l9.0642857 3.4698795c5.85-18.6345381 5.9142857-33.9919678 5.9142857-35.4698795l.0642857-35.2771084c0-.1927711-.9642857-1.0923695-3.0857143-2.248996z" fill="#92d2f4"/><g fill="#5c8599"><path d="m89.6142857 20.2409639-.0642857 29.815261v.5783133.128514c0 .3212851 0 .7068273-.0642857 1.1566265v.2570281c0 .5140563-.0642857 1.0923695-.1285714 1.7991968 0 .2570281-.0642858.4497992-.0642858.7068273v.2570281c0 .1285141 0 .2570281-.0642857.3855422 0 .3212851-.0642857.6425703-.1285714 1.0281125v.2570281c0 .128514 0 .2570281-.0642857.4497992v.064257c0 .128514 0 .2570281-.0642857.3855422v.192771.0642571c0 .128514 0 .1927711-.0642857.3212851v.1285141c0 .2570281-.0642858.5783132-.1285715.8353413v.2570281c-.0642857.3212852-.0642857.7068274-.1285714 1.0281125 0 .2570281-.0642857.4497992-.0642857.7068273 0 .1285141-.0642857.2570281-.0642857.3855422-.0642857.3855421-.1285715.8353413-.1928572 1.2208835-.0642857.2570281-.0642857.5140562-.1285714.7068273-.0642857.3855422-.1285714.7068273-.1928571 1.0923695-.0642858.5140562-.1928572 1.0281124-.2571429 1.6064257-.0642857.2570281-.0642857.4497992-.1285714.7068273-.1285715.6425703-.2571429 1.2851406-.3857143 1.9277109v.064257c-.1285714.6425703-.2571429 1.3493976-.45 1.9919679-.0642857.2570281-.1285714.5140562-.1928572.7710843-.1285714.4497992-.1928571.8995984-.3214285 1.3493976-.3857143 1.6706827-.8357143 3.3413654-1.2857143 5.1405622-.1285714.5783133-.3214286 1.0923695-.5142857 1.6706828-.0642857.2570281-.1285715.5140562-.2571429.8353413 0 .1285141-.0642857.1927711-.0642857.2570281l-4.1785714-1.6064257c.0642857-.2570281.1928571-.5783132.2571428-.8353413.1928572-.5783133.3214286-1.1566265.5142857-1.7349398 4.5642858-15.8072289 4.6928572-28.5301205 4.6928572-28.6586345l.0642857-28.9799197-.1285714-.064257c.0642857 0 .0642857 0 .1285714.064257.1285714.064257.2571429.064257.3857143.128514.1285714.0642571.2571428.0642571.3214286.1285141.0642857 0 .1285714.064257.1928571.064257.1928571.0642571.3857143.1285141.5785714.1927711 1.1571429.3855422 1.4785715.5140562 2.1214286.7710844.0642857 0 .1285714.064257.1928571.064257.1928572-.1285141.2571429-.1285141.3214286-.064257z"/><path d="m27.5142857 51.7269076 12.15 13.4939759-11.9571428-4.562249-13.5642858-13.9437751z"/><path d="m51.8785714 55.2610442 5.0785715 7.7108434-9.9-3.7911647z"/><path d="m47.0571429 59.1807229 9.9 3.7911647-1.9285715 16.2570281-9.9-3.7269077z"/></g><path d="m110.507143 60.5301205-9.514286-.6425703c-.642857-.5140562-1.542857-1.9277108-2.1214284-2.0562249-.7714286.7068273-2.1857143 1.6706827-3.5357143 1.5421687l-2.1214286-.5783133c-1.1571428-.3855421-1.35-.3212851-1.6714286.2570281l3.0214286 1.2208836 1.6071429.2570281h-2.0571429l-1.8642857-.4497992c-.3214286-.064257-.6428571.128514-.7714286.4497992l-.1285714.4497992c.0642857.2570281.1285714.4497992.1285714.4497992l1.9928572 1.6064257 2.8285714.8995984s.8357143.3855421 4.628571-.5783133l9.257143 1.2208836z" fill="#e6b289"/><path d="m127.092857 47.1004016c-1.607143 2.5060241-8.807143 16.2570281-8.807143 16.2570281-.707143 1.4136546-2.185714 2.248996-3.728571 2.184739l-5.85-.4497992.45-5.0120482 4.692857.064257s2.185714-6.3614458 3.535714-10.2811245c2.121429-6.1044177 3.728572-11.3092369 7.264286-14.3293173l3.021429.7710844c2.957142 2.313253 2.25 6.4899598-.578572 10.7951807z" fill="#68247f"/></g><path d="m40.5642857 70.3614458 3.6642857-12.5301205c1.6714286-.3855422 3.0214286-1.6706827 3.5357143-3.4056225.3857143-1.2208835.1928572-2.5060241-.3214286-3.5983936 0-.064257-.0642857-.128514-.1285714-.192771-.0642857-.0642571-.1928571-.1927711-.3214286-.1927711-.3214285-.0642571-.6428571.064257-.7714285.4497992l-.5142857 1.7349397c-.3857143 1.2851406-1.7357143 2.0562249-3.0214286 1.6706828-1.2857143-.3855422-2.0571429-1.7349398-1.6714286-3.0200804l.5142857-1.7349397c.0642857-.3212852-.0642857-.6425703-.45-.7710844-.1285714-.064257-.2571428 0-.3857143 0-.0642857 0-.1285714.0642571-.1928571.1285141-1.0285714.6425703-1.8642857 1.6064257-2.25 2.8915663-.5142857 1.7349397 0 3.5341365 1.1571429 4.75502l-3.6642858 12.5301205c-1.6714285.3855422-3.0214285 1.6706828-3.5357142 3.4056225-.3857143 1.2208835-.1928572 2.5060241.3214285 3.5983936.0642857.064257.0642857.128514.1285715.1927711.0642857.064257.1928571.1927711.3214285.1927711.3214286.064257.6428572-.0642571.7714286-.4497992l.5142857-1.7349398c.3857143-1.2851406 1.7357143-2.0562249 3.0214286-1.6706827 1.2857143.3855421 2.0571428 1.7349397 1.6714286 3.0200803l-.5142858 1.7349397c-.0642857.3212852.0642858.6425703.45.7710844.1285715.064257.2571429 0 .3857143 0 .0642857-.064257.1285715-.064257.1928572-.1285141 1.0285714-.6425703 1.8642857-1.6064257 2.25-2.8915662.5142857-1.7349398 0-3.5341366-1.1571429-4.7550201z" fill="#000"/><g fill="#f7b282"><path d="m19.4142857 66.5060241-4.8214286-12.0160643c-1.4785714 2.248996-7.3928571 3.5341366-9.32142853 3.1485944 0 0 7.00714283 11.0522089 10.02857143 15.0361446.5785714.7710843 1.9285714.5783132 2.8928571.4497992l16.5857143-3.6626506-.2571428-4.1767068z"/><path d="m45.3857143 61.4939759-6.4928572 1.4779117c-.5142857.128514-1.0928571-.1927711-1.2857142-.6425703-.1285715-.3212852-.0642858-.7068273.1285714-1.0281125l.8357143-1.3493976c.45-1.0923694.3214285-1.8634538-.5142857-2.1847389l-3.2142858 3.9196787-1.2214285 5.3333333-.45 2.8273093 3.6-.3855422c2.4428571-.3212852 4.6928571-1.7991968 4.6928571-1.7991968 1.0285714-.2570281 1.0928572-1.6064257 1.0928572-1.6064257-.0642858-.1927711.45-.7710843.5785714-.9638554l.1928571-.5140562c.1285715-.3212852.0642857-.6425703-.1285714-.8353414 0 0 2.0571429-.6425703 2.1857143-.9638554.5785714-.7068273 0-1.2851406 0-1.2851406z"/></g></g></svg>