<svg height="178" viewBox="0 0 215 178" width="215" xmlns="http://www.w3.org/2000/svg"><g fill="none" fill-rule="evenodd"><path d="m1 1h213v176h-213z" opacity=".011091" stroke="#fefefe"/><g fill-rule="nonzero" transform="translate(20.641393 3.183623)"><g transform="translate(24.879098 41.925558)"><path d="m26.6195166 97.4805249.3059715-54.3735591-4.7731547-.0612315-.3059715 54.4347906c0 .8572408 1.1014973 1.4695557 2.3865774 1.4695557s2.3865773-.6123149 2.3865773-1.4695557z" fill="#999ba3"/><path d="m100.481026 97.4805249.305971-54.3735591-4.7731542-.0612315-.3059715 54.4347906c0 .8572408 1.1014973 1.4695557 2.3865774 1.4695557s2.3253833-.6123149 2.3865773-1.4695557z" fill="#999ba3"/><g fill="#a8aab3"><path d="m20.9284476 39.0044563-20.74486473 18.3694456 121.28708513.7347778-21.112031-18.675603z"/><path d="m12.606024 117.135832.3059714-54.3735594-4.77315468-.0612314-.30597146 54.4347908c0 .857241 1.10149724 1.469555 2.38657734 1.469555 1.2850801.061232 2.3865774-.612314 2.3865774-1.469555z"/><path d="m113.882576 117.135832.305971-54.3735594-4.773154-.0612314-.305972 54.4347908c0 .857241 1.101497 1.469555 2.386577 1.469555 1.285081.061232 2.386578-.612314 2.386578-1.469555z"/></g><path d="m.24477717 57.3126704v3.1228058c0 1.4695556 1.16269153 2.6941854 2.63135451 2.6941854l115.96318132.6735463c1.468663 0 2.692549-1.1633982 2.692549-2.6329539v-3.1228057z" fill="#d5dbd9"/><g transform="translate(36.104632)"><path d="m29.6792312 33.9834745-3.365686-.6735464-3.3044917.6123149-.2447772 1.898176 7.0985378.0612315z" fill="#465557"/><path d="m34.1464144 44.7602159-.3671657-.9184723c-.4895543-.4898519-3.1821031-2.020639-3.1821031-2.020639l-.6731372-6.0006856-7.0985378-.0612315-.7955258 5.9394541s-2.7537431 1.4695557-3.2432974 1.9594076l-.4283601.9184722c-.1835828.1836945 0 .4286204.2447772.4286204l7.6492864.0612315 7.6492864.0612315c.2447771.0612315.42836-.1836944.2447771-.3673889" fill="#69797d"/><path d="m50.4852902.79600931-47.67035281-.4286204c-1.40746869 0-2.57016022 1.10216674-2.57016022 2.57172239l-.24477717 28.3501778c0 1.4083242 1.10149724 2.5717224 2.57016023 2.5717224l47.60915847.4286204c1.4074687 0 2.5701603-1.1021668 2.5701603-2.5717224l.2447771-28.3501778c0-1.40832416-1.1014972-2.57172239-2.5089659-2.57172239" fill="#69797d"/><path d="m11.5414545-7.48192592 29.8820243-.00015293-.0002542 49.63033375-29.8820242.000153z" fill="#d52e1e" transform="matrix(.00842529 -.99996451 .99996451 .00842529 8.926669 43.668528)"/></g></g><g><path d="m26.8584636 72.9273061h-21.43804805v-2.5652821h21.01172325z" fill="#3b1b1d"/><g transform="translate(3.654213 72.496836)"><g transform="translate(21.925276 86.808056)"><path d="m1.15939652 7.26247188 5.42060976-.00033643-.00006426 1.03836289-5.42060976.00033643z" fill="#1a1a1a" transform="matrix(.99976552 -.02165406 .02165406 .99976552 -.167593 .085619)"/><path d="m1.21807091.17014626c-.669939 1.03832848-1.15716736 2.99282915-1.15716736 3.84792319-.06090355 1.09940662.60903545 3.35929802 1.339878 3.29821987 2.07072055-.06107815 4.50686237 0 6.63848646.24431258 2.13162409.24431259 2.92337019 1.4658755 8.40468929 1.34371921 1.5834922-.06107814 4.3850553-.18323444 4.3850553-.85509404-.0609036-2.80959471-5.2377049-1.71018808-6.9430042-3.17606358-4.2632482-3.78684504-7.0648113-4.64193908-7.0648113-4.64193908s-5.4813191-.30539073-5.60312619-.06107815z" fill="#55210e"/></g><g transform="translate(.609035 86.730967)"><path d="m5.90764392 8.24847282-4.75047655-.06107815-.06090355-.91617219 4.75047655-.06107814z" fill="#1a1a1a"/><path d="m1.09626382.06400128c-.48722836.97725033-.79174609 2.931751-.85264964 3.84792319-.06090354 1.09940662.48722837 3.35929801.97445673 3.35929801 1.52258864 0 3.28879146.06107815 4.8113801.36646888s1.82710637.54970331 5.78583679.54970331c1.1571674 0 3.1669844-.12215629 3.1669844-.73293775-.0609035-2.8095947-1.7662028-1.89342252-3.0451773-3.42037616-3.10608079-3.84792319-6.88210062-3.7257669-6.88210062-3.7257669s-3.89782691-.42754702-3.95873046-.24431258z" fill="#55210e"/></g><path d="m10.8408311 1.9574238c-.1218071.85509404-.1218071 1.71018808 0 2.62636027-.4872284-.06107815-.97445672 0-1.40078154.18323444-.12180709-.97725034-.12180709-1.95450067-.06090354-2.931751" fill="#2a2d41"/><path d="m17.9665459.12507943c2.679756 13.74258277-2.9233701 43.30440537-3.4105985 49.77868877-.2436142 2.9928292-2.6188525 24.0037113-3.6542127 32.4935736-.2436142 2.1988133-.7308426 6.1688927-.7308426 6.1688927s-.18271063 0-2.679756 0c-4.56776591 0-5.78583682-1.6491099-5.78583682-1.6491099s.85264963-35.9139497.97445672-39.2732477c.1218071-3.5425325-.18271063-24.7366491-.85264963-28.889963-.36542128-2.2598914-3.77601983-7.2682994 0-18.50667818z" fill="#4a4a49"/><path d="m6.57758292 1.83526751 9.74456728-1.28264106c1.7662028 14.78091125-1.2789744 43.36548355-1.7052993 49.35114175v.3664689c-1.2789744-8.6120185-3.5324056-27.1186967-3.7151162-27.8516345-1.82710641-1.5880317-7.06481133-7.4515337-4.32415178-20.58333509z" fill="#3c3c3b"/><path d="m5.35951201.18615757c-1.64439573 15.26953643 6.45577579 18.99530333 8.22197869 20.58333513.2436141.9161722 5.359512 26.813306 5.9685474 30.1115259.6090355 3.2982199 2.9842738 36.7079656 2.9842738 36.7079656s.7308425 1.2215629 5.2986084 1.2215629c2.4970454 0 3.349695-1.282641 3.349695-1.282641s.8526497-36.2193405.8526497-39.9451074c0-6.3521272-6.2121617-34.8145431-8.8919177-47.57987556z" fill="#4a4a49"/></g><path d="m7.55203965 25.7749775c.669939-.4886251 1.76620282-11.7880821 1.76620282-11.7880821l9.01372473 3.8479232s.3045177 9.8335814.3654213 10.5665192z" fill="#744135"/><path d="m21.5598551 3.17606358c-2.4970453-2.32096954-9.8663744-4.51978279-13.58149063.30539073-3.71511628 4.82517352-2.1316241 9.71142519-.24361418 12.70425429 1.52258863 2.3209696 2.98427371 3.6646888 5.90764391 5.008408.6090355.3053907 6.029451 1.2826411 7.1257148.9161722.7308426-.2443126 1.4007816-5.6802676 1.5834922-5.6802676.2436142 0 .8526497-.3053907.8526497-.7329377.0609035-.6718596-.6090355-4.580861-.4263249-4.9473298.2436142-.4275471 1.6443958-4.8862517-1.2180709-7.57369012z" fill="#815245"/><path d="m23.0824438 5.61918941s-4.1414411-2.38204768-9.3182425 2.2598914c-1.0962638.97725033.9135532 5.37487679.669939 5.74134569-.3045177.427547-4.0805376-3.2371417-3.8978269-2.6874384 1.4616851 5.008408-.2436142 7.7569245-.66993902 7.7569245-1.40078155.0610782-5.54222265-7.0239868-3.41059855-12.70425431 2.19252764-5.68026756 8.28288217-6.16889273 9.74456727-5.863502 1.4007816.30539073 5.7858368.67185961 6.8821007 5.49703312z" fill="#36180e"/><path d="m12.8506481 12.0323947c.4872284 1.5880318.669939 3.7257669-.1827106 3.9700795-.8526497.2443126-1.9489135-.855094-2.4361418-2.4431258-.48722841-1.5880318-.1218071-3.1149855.7308425-3.3592981.8526496-.1832344 1.4007815.2443126 1.8880099 1.8323444z" fill="#815245"/><path d="m42.5106748 43.6097961s1.7662028-.7329378 2.4970454-1.6491099c.7308425-.9161722.4263248-1.1604848.669939-1.4658755.2436142-.3053908 1.2789744-.6718596 1.2789744-.6718596s2.6188525-.2443126 1.4007816-2.076657l-1.0353603.3664689s-.2436142 0-.7917461.0610781c-.5481319.0610782-1.0353603.1221563-2.1316241-.0610781-.7917461.0610781-1.5834922-.1221563-2.0707205.4886251-.4872284.3053908-1.2180709 1.5269537-1.4616851 1.8323444-.4872284.3053907-4.8113801 2.3820477-4.8113801 2.3820477l2.3752382 3.9700795s3.1669844-.3053908 4.9331872-1.2826411c1.7662029-.7329377 3.227888-2.2598914 3.7151163-3.4203762.4872284-1.1604847.3654213-2.2598913.3654213-2.2598913s-1.8880099 3.2371417-3.1060808 3.9090013c-1.2180709.9161722-1.8271064-.1221563-1.8271064-.1221563z" fill="#815245"/><path d="m41.6580252 45.6253749 3.0451772-1.0994066 2.9233702-2.7485166.4263248-1.1604847-.121807-1.4047974-3.8369234 1.1604848c.3045177-.3053908-4.1414411 4.0311576-2.4361418 5.2527205z" fill="#744135"/><path d="m44.1550705 44.2816557.5481319.4886252c.2436142 0 .9744568-.9161722 2.4361419-2.9928292.2436141-.3053907.4872283-.6107814.7308425-.9161722.7308426-1.1604847 1.4007816-2.3820477 2.3752383-3.5425324l.4872284-.6107815c.4872283-.855094.9135531-1.7712662 1.339878-2.931751-.7308426.6107815-1.4616851 1.2215629-2.1925277 2.1377351l-.4872284.6107815c-.7308425 1.1604848-1.6443957 2.3820477-2.3752382 3.5425324-.2436142.3053908-.4872284.6107815-.7308426.9161722-1.7052993 1.8934225-1.8880099 2.6874384-2.1316241 3.2982199z" fill="#425b6c"/><path d="m50.4281357 36.463653c.2436142-.3053907.2436142-.5497033.4872284-.6107814l-.8526497-.7329378c-.2436141.3053908-.2436141.3053908-.4872283.6107815l-.4872284.6107814c0 .3053908-.2436142.3053908-.2436142.5497034l.8526497.7329377c0-.3053907.2436142-.3053907.2436142-.5497033z" fill="#4db8a4"/><g fill="#4db8a4" transform="translate(44.459588 39.514637)"><path d="m.85264964 2.44604897c0 .30539073.06090354.54970331.30451773.79401589.30451772.24431259.54813191.24431259.79174609-.06107814-.24361418.30539073-.48722837.61078145-.48722837.85509404-.24361418 0-.24361418 0-.48722836.30539073-.24361418 0-.24361418 0-.54813191.06107814 0 0 0-.30539073-.06090355-.54970331 0-.30539073 0-.30539073-.06090354-.54970331.06090354 0 .30451773-.30539073.54813191-.85509404z"/><ellipse cx="1.852674" cy="2.202054" rx="2.441005" ry="1" transform="matrix(.55838695 -.82958062 .82958062 .55838695 -1.008616 2.509398)"/></g><g fill="#815245" transform="translate(43.241517 37.86845)"><path d="m.91355318 5.863502s-.73084254.61078145-.18271063 1.40479735c.60903545.79401589 2.13162409.36646887 2.37523827.06107814.24361419-.30539072.48722837-.85509404.48722837-.85509404s1.03536027-.36646887.97445673-.91617218c-.06090355-.54970332-.06090355-.54970332-.06090355-.54970332s.79174609-.36646887.97445673-.91617218-.36542127-1.09940663-.36542127-1.09940663v-.30539073s1.27897445-.12215629 1.21807091-.97725033c-.06090355-.85509404-.60903546-1.03832848-.60903546-1.03832848s-2.009817 1.58803179-1.15716736 2.32096954v.30539073s-.48722837.30539073-1.27897446.36646888c-.79174609.06107814-.79174609.06107814-1.03536027.12215629-.24361419 0-.97445673.6718596-.18271064 1.16048477.85264964.48862517.54813191.48862517.54813191.48862517s-.48722837.30539072-.79174609.06107814c-.30451773-.24431258-.54813191-.24431258-.7917461.06107815-.18271063-.24431259-.12180709.30539073-.12180709.30539073z"/><path d="m5.17680137.18323444-1.03536027.36646887s-.24361418 0-.79174609.06107815c-.24361419 0-.7917461.06107814-1.03536028.12215629l-2.13162409 2.44312583c.24361418-.30539073 3.53240564-.91617219 3.53240564-.91617219s2.43614182-.24431258 1.46168509-2.07665695z"/></g><path d="m21.8034693 36.5858093s.4263248-1.2215629-.2436142-3.1149854-1.1571673-1.2215629-1.6443957-3.6036106c-.2436142-2.6263603 0-3.6036106 0-3.6036106l-5.2377049-1.8934225-10.65812049 7.0850649s-.36542128 9.8946596.79174609 14.4755205c1.15716736 4.3365484 4.62866946 8.8563312 4.62866946 8.8563312z" fill="#bacfed"/><path d="m19.9154594 26.2636027s-.4872284-.2443126-.4263248.7329377c-.2436142.9772504-1.0962638 3.8479232-1.0962638 4.3365484s.2436141.4886252.2436141.4886252-4.8113801-3.1149855-7.0648112-3.7868451c-2.31433478-.9161722-5.23770496-3.1149854-5.23770496-3.1149854s0-1.4658755.18271063-2.1988133c0-.2443125.42632482-.4886251.66993901-.4886251 4.32415172.9772503 8.64830342 2.1377351 12.72884102 4.0311576z" fill="#e1f2fd"/><path d="m19.7327488 32.7378861s-4.0805376-1.6491099-7.3084255-1.4047973c-3.16698438.2443126-7.00390775 4.1533139-7.43023256 9.2228-.42632482 5.0694861 2.55794891 10.0778941 11.02354176 12.4599417 8.2219786 2.3209696 9.1355318 4.2754703 9.1355318 4.2754703l1.339878 13.3761139-21.0117232.1832344s-5.23770492-29.9282914-5.05499428-35.7307153c.18271064-5.8024238 5.60312619-10.4443629 5.60312619-10.4443629s3.89782692 1.4047974 6.82119709 2.3209695c2.9842737.9772504 6.2121617 4.580861 6.8821007 5.7413457z" fill="#f08100"/><path d="m12.3025162 47.8241882c-2.0707205-3.6036106 6.5166794-4.7030173 10.7799276-5.0694861 4.0805375-.3664689 12.728841-.1221563 13.6423942-.1221563.0609035 0 .0609035 0 .0609035.0610781l1.8271064 3.9090013v.0610782c-.8526497.3053907-6.8821007 3.5425324-17.9056424 5.0084079-1.0962638.1832345-6.2730652-.1832344-8.4046893-3.8479231z" fill="#815245"/><path d="m19.7327488 32.7378861s3.6542127 4.580861 5.4204155 24.5534147l-5.359512 1.5880317s-13.21606938-8.2455496-13.45968356-8.2455496-3.10608083-10.0168159-3.10608083-10.0168159 2.31433474-7.3293775 2.00981701-8.7341749c-.36542128-1.4047974 4.68957301-3.6646887 4.68957301-3.6646887s6.27306517 2.0155788 6.02945097 1.710188c-.2436141-.3053907 3.7760199 2.8095947 3.7760199 2.8095947z" fill="#f08100"/><g transform="translate(9.135532 29.928291)"><g transform="translate(14.616851 48.251735)"><path d="m12.4852268 6.47428345c-.3045177.1221563-.7308425 0-.8526496-.36646887-.1218071-.30539073 0-.73293775.3654213-.85509404.3045177-.12215629.7308425 0 .8526496.36646887.1218071.36646888-.0609035.73293775-.3654213.85509404z" fill="#936037"/><path d="m2.679756 11.4826914-2.31433473-5.55811126c-.18271063-.36646887 0-.85509404.42632482-.97725033l11.44986661-4.76409537c.3654212-.18323444.8526496 0 .9744567.42754702l2.3143347 5.55811126c.1827107.36646888 0 .85509405-.4263248.97725034l-11.44986657 4.76409534c-.36542127.1832345-.79174609 0-.97445673-.427547z" fill="#000"/><path d="m11.4498666 5.13056425-.3045178-.7940159c-.0609035-.18323444 0-.42754702.2436142-.54970331l.9135532-.36646888c.1827106-.06107814.4263248 0 .5481319.24431259l.3045177.79401589c.0609036.18323444 0 .42754702-.2436141.54970331l-.9135532.36646888c-.2436142.06107815-.4872284-.06107815-.5481319-.24431258z" fill="#797979"/></g><g fill="#815245"><path d="m5.29860846.12215629c-3.77601982-.18323444-5.05499428 2.80959471-4.99409073 6.41320531.06090354 3.6036106 4.56776591 24.8588053 5.4813191 25.5917431.91355318.7329377 6.33396877.2443126 6.94300417-1.2826411.6090355-1.5880318-.7917461-20.6444133-1.4007815-23.57616425-.4872284-2.931751-1.58349221-6.90183047-6.02945104-7.14614306z"/><path d="m6.76029356 26.5689934c-3.77601983 1.5269537.06090354 9.1006437 2.13162409 12.7042543s9.13553185 13.4982703 9.13553185 13.4982703l4.019634-2.0155788s-2.679756-10.8108319-7.8565574-21.0108822c-.4872283-1.0383285-3.5933092-4.7640954-7.43023254-3.1760636z"/><g transform="translate(17.052993 47.640954)"><g transform="translate(1.7169 6.609528)"><path d="m2.05911987 5.97257011c.42632482-.12215629.669939-.54970331.54813191-.97725033l-.97445673-3.29821987c-.12180709-.42754702-.54813191-.67185961-.97445672-.54970331-.42632482.12215629-.66993901.54970331-.54813191.97725033l.97445672 3.29821987c.1218071.42754702.54813191.6718596.97445673.54970331z"/><path d="m3.52080497 5.72825753c.42632482-.12215629.669939-.54970331.54813191-.97725033l-.97445673-3.29821988c-.12180709-.42754702-.54813191-.6718596-.97445673-.54970331-.42632482.12215629-.669939.54970331-.54813191.97725034l.97445673 3.29821987c.12180709.42754702.54813191.6718596.97445673.54970331z"/><path d="m4.92158651 5.36178866c.42632482-.1221563.66993901-.54970332.54813191-.97725034l-.97445672-3.29821987c-.1218071-.42754702-.54813191-.6718596-.97445673-.54970331-.42632482.12215629-.669939.54970331-.54813191.97725033l.97445673 3.29821987c.12180709.42754702.54813191.67185961.97445672.54970332z"/><path d="m6.26146452 4.87316349c.42632482-.12215629.669939-.54970331.54813191-.97725033l-.97445673-3.29821988c-.12180709-.42754702-.54813191-.6718596-.97445673-.54970331-.42632482.12215629-.669939.54970331-.54813191.97725033l.97445673 3.29821988c.12180709.42754702.54813191.6718596.97445673.54970331z"/></g><path d="m3.65421273.24431258s3.59330919 4.33654835 4.08053756 5.31379869c.42632481 1.03832848.85264963 5.31379873.85264963 5.31379873s-1.70529927-.8550941-2.61885246-.4275471c-.91355318.4275471-3.10608082 1.64911-3.10608082 1.64911s-1.94891346-3.17606361-2.31433473-4.8862517c-.36542127-1.71018808-.36542127-3.48145431-.36542127-3.48145431z"/></g></g></g><path d="m16.3830538 27.9737908c1.4007815.7940159 4.3850552 3.2371417 4.8113801 6.3521271.5481319 4.3976265 2.8624666 15.7581616 2.8624666 15.7581616s-2.6188525 2.076657-6.4557758 2.6263603c-4.4459589.6718596-7.369329-.6718596-7.369329-.6718596s-3.10608087-17.2240371-2.31433478-20.7665696c.54813191-2.8095947 4.56776588-5.5581112 8.46559288-3.2982198z" fill="#ed6b06"/></g><g transform="translate(100.389344 12.228288)"><path d="m17.1718562 34.1418372c.9775357-4.6435481-2.0161675-9.2870962-6.6594623-10.2646852-4.64329474-.9775891-9.28658951 2.0162774-10.26412525 6.6598255-.91643976 4.3380515 1.58849558 8.6150037 5.74302248 10.020288v.0610993l-1.34411164 6.354329c-.12219197.4887945.24438393 1.0386884.7331518 1.160887.48876787.1221987 1.03863173-.2443972 1.1608237-.7331918l1.34411164-6.3543289v-.0610994c4.33781487.3665959 8.37014977-2.505072 9.28658957-6.8431235zm-9.83645342 4.7657468c-3.60466305-.7942912-5.92631044-4.3380515-5.19315863-8.0040106.79424779-3.6048597 4.33781485-5.9266337 8.00357385-5.1934419 3.6046631.7942911 5.9263105 4.3380515 5.1931587 8.0040105-.7942478 3.6048597-4.3989109 5.9877331-8.00357392 5.193442z" fill="#000"/><path d="m64.5212437 28.1541042c2.0161674-1.8940789 9.5309734 20.2849732 7.7591899 24.8063227-1.7717835 4.5213494-21.0781144 2.0773768-23.7663377 1.9551781-2.7493193-.1221986 8.1868618-6.7820242 8.1868618-6.7820242l-3.2380871-5.1323426 8.5534377-3.7881577c-.061096.0610994 2.0161675-10.5701818 2.5049354-11.0589763z" fill="#003051"/><path d="m63.238228 150.597136c.122192 2.077376 1.5884956 4.215852-.2443839 5.31564-1.7717836 1.099788-3.4213751.91649-5.3764466.122199s-2.5660313-1.955178-3.5435671-2.993867c-.9775357-1.038688-3.849047-1.894079-4.6432948-3.299363-.7942477-1.405284-1.0997277-5.132343.4887679-4.582449s6.2928864 1.588583 6.2928864 1.588583z" fill="#000"/><path d="m63.9713798 69.7016397c1.2219197 3.7270584 3.604663 8.7372024 1.5884956 17.1689081-1.6495916 7.0264215-1.6495916 27.3113952-1.6495916 27.3113952s.244384 31.832744-.5498638 39.225761c-10.0197414.305497-9.9586454-4.826846-9.7142615-7.026421.244384-2.199576-5.1931586-31.221751-5.2542546-32.871433-.1221919-1.649681 2.6271273-28.2278844 4.032335-33.1158298 1.3441116-4.826846 11.5471409-10.6923805 11.5471409-10.6923805z" fill="#00233e"/><path d="m49.7360156 150.902632c.7331518 3.238264 1.4663036 4.949045.3665759 6.904223-1.1608237 1.894079-5.8041185.794291-8.4312458-.733192-1.5884956-.91649-5.3153506.183298-7.2093261-.061099-4.0323349-.427695-6.2928863-5.132343-2.9326072-5.132343 3.2991831 0 6.7816542-1.283085 8.4312458-2.382873 1.5884955-1.160887 9.7753574 1.405284 9.7753574 1.405284z" fill="#000"/><g fill="#f6b086" transform="translate(34.400924 3.775477)"><path d="m14.1742683 8.2484078c-.122192 1.8940788 2.3827433 7.9429112 3.726855 10.5090825 1.2830156 2.5661713 3.9712389 6.0488324 3.9712389 6.0488324l-12.0359088 5.7433358s.06109598-11.181175-3.23808714-12.4642607c-2.01616747-.7942911 7.57590204-9.83699 7.57590204-9.83699z"/><path d="m6.35398232 17.535504c-.48876787-.3665959.06109598-1.4663836.85534377-2.5661713l1.34411165-.9775891 4.82658276 11.9754661-2.2605514 2.0773768-1.58849562-1.8329795c0-.0610993.12219197-6.2932296-3.17699116-8.676103z"/><path d="m.24438394 7.515216c.97753574 6.8431235 4.21562288 12.1587641 7.02603814 12.2198634 2.81041522.0610993 8.55343772-4.5824488 8.67562972-9.95918867.122192-5.3767399-3.4824711-10.20358595-8.73672571-9.53149346-5.74302248.7331918-7.69809396 1.89407883-6.96494215 7.27081873z"/></g><path d="m33.7288678 10.6186002c-2.0161675-1.77188022 4.0934309-12.28096275 12.1581008-10.26468529s8.9200136 6.59872624 8.7978217 10.75347979c-.061096 4.1547536-2.3216474 8.2484078-1.1608237 8.5539044 1.5884955.4887945-8.6145338 2.6272706-8.6145338 2.6272706s-3.604663-4.7046474-3.726855-5.6211371c-.3665759-2.8105686-3.1158951-3.6659591-2.9326072-1.8940789.183288 1.7107809-.7331518 1.4052843-.7331518 1.4052843l-.3665759.4276952s-1.5273996-4.6435481-2.1994554-5.4378392c-.7942478-.7942911-1.2219197-.5498938-1.2219197-.5498938z" fill="#2b1110"/><path d="m53.2795826 23.8160527-.8553437-1.9551782-9.7753575 2.6272706.4887679 2.3828734z" fill="#92d2f4"/><path d="m53.8294465 22.7773643 2.7493193 2.1995754s-8.2479579 3.9103563-10.8139892 3.849257c-2.5660313-.0610994-3.787951-.7942912-3.787951-.7942912l.3054799-2.1995754s5.2542546-1.2219863 7.4537101-1.7107809c2.1383594-.3665959 4.0934309-1.3441849 4.0934309-1.3441849z" fill="#003d64"/><path d="m11.6121216 44.5287211c-1.3441116-.7942911-3.11589513-1.5885822-4.09343087-1.7718802-.97753574-.1832979-2.99370321-.3665959-3.60466305.183298-.61095984.4887945-.30547992.9164897-.30547992.9164897s-1.22191967.8553905-.42767188 2.0162775c-.67205583 1.0997877.30547991 1.7718802.30547991 1.7718802-.42767188.5498939.42767189.9164898.85534378 1.0386884 1.22191968.3054966 3.11589517.1221986 4.64329477.1832979.61095984 0 4.33781486 2.8716679 5.07096666 3.2993632.7331518.3665959 3.1158952-6.1099317 3.1158952-6.1099317z" fill="#f6b086"/><path d="m37.2724349 72.7566056c-.183288 8.1262092.4276718 30.4885594-.122192 42.7695224-.2443839 6.048832 2.2605514 30.794055.3665759 34.337816 6.9038462 4.46025 12.9523486 3.482661 12.9523486 3.482661s.4887678-32.138241.1221919-35.132108c-.4276718-2.993866 1.4663037-22.9733427 5.1931587-29.9997642 3.726855-6.9653221 6.6594622-16.0080211 3.1158951-17.1689081-3.665759-1.0386884-21.6279782 1.7107809-21.6279782 1.7107809z" fill="#003051"/><g fill="#003d64"><path d="m53.8294465 24.3048472c4.1545269.6720925 9.2865895 2.2606747 11.424949 3.7881576 0 0 .3665759 21.6291583 1.4663036 27.0669975 3.849047 18.7574903 5.6819265 23.4010384 5.2542546 25.9061104-.4276719 2.4439727-33.5416951 7.515216-36.1688225 5.6822365-.3665759-10.3257846 2.4438394-27.3113947 1.1608237-34.88771-1.2830156-7.5763153-1.8328795-17.8410006-1.8328795-17.8410006s-.8553437-1.8940788 2.6882233-4.1547536c3.0547992-2.0162774 6.3539823-2.6883699 6.3539823-2.6883699z"/><path d="m40.3272341 37.1357038c-3.1769912 11.181175-10.5085093 16.8023122-10.5085093 16.8023122-9.3476855.1221986-20.71153849-1.527483-20.71153849-1.527483s.18328795-4.2158528 2.32164739-8.4317057c1.4663036.3665959 9.8364534.4887945 13.1356365.0610993 3.2380872-.4276952 10.1419333-14.0528429 12.2802928-14.7860347 4.5821988-1.5885823 8.3701498-2.7494693 8.6756297-.0610993-.122192 0-2.3827434 1.8329795-5.1931586 7.9429112z"/></g></g><g fill="#fff" transform="translate(80.311475 49.7866)"><path d="m13.4663056 14.2332506c-.0644321-.0595533-.1288641-.17866-.1932962-.2382134-.1932963-.2382134-.4510246-.4764268-.708753-.7146402-.1932962-.17866-.3221604-.4168734-.3221604-.7146402 0-.3573201-.1288641-.7146402-.1932962-1.0124069-.0644321-.1786601-.1288642-.1786601-.3221605-.1191067-.064432.0595533-.1932962.0595533-.2577283.1191067-.2577283.17866-.4510246.4168734-.5798888.6550868-.1288641.1786601-.2577283.3573201-.3865925.5359802-.2577283.2977667-.57988872.4764268-.96648122.6550868-1.09534544.4764268-5.15456675 2.0843673-5.99218384 2.4416874-.45102459.17866-.90204918.2977667-1.41750586.2382134-.3865925-.0595534-.77318501-.0595534-1.09534543-.1191067-.19329625 0-.38659251 0-.57988876.0595533-.19329625.0595534-.19329625.1786601-.12886417.2977668.06443209.0595533.12886417.1191067.12886417.17866.32216042.2977668.57988876.5955335.90204918.8933003.06443208.0595533.06443208.1191067.06443208.17866 0 .1191067.06443209.2977668.06443209.4168735.06443208.2977667.12886417.5359801.19329625.8337469.06443209.17866.19329625.2382134.32216042.1191067.12886417-.0595534.19329626-.1191067.32216043-.2382134.32216042-.4168735.64432084-.8337469.96648126-1.191067.06443208-.0595534.12886417-.1191067.19329625-.1191067.96648127-.4168735 5.99218384-2.382134 7.28082555-2.8585608.2577283-.1191067.5798887-.1191067.8376171-.0595534.3221604.0595534.5798887.1191067.9020492.1191067.3221604.0595534.5798887 0 .9020491-.1191067.1288642 0 .1288642-.1191067.0644321-.2382134z"/><path d="m.25772834 13.8163772c.06443208-.0595534.12886417-.1191067.12886417-.2382134.19329625-.2382134.45102459-.4168735.64432084-.6550869.19329625-.17866.25772834-.4168734.32216042-.6550868 0-.3573201.12886417-.6550869.19329625-1.012407.06443209-.17866.12886417-.17866.32216042-.1191067.06443209.0595534.19329626.1191067.25772834.1786601.25772834.17866.38659251.4168734.57988876.6550868.12886417.1786601.19329625.3573201.32216042.5359802.25772834.3573201.57988876.5359801.96648127.7146402 1.09534543.5359801 5.15456674 2.4416873 5.99218384 2.8585608.45102463.2382134.96648123.4168734 1.48193793.3573201h1.1597775c.1932963 0 .4510246 0 .6443209.0595533.1932962.0595534.2577283.1786601.1288641.3573201-.064432.0595534-.1288641.1191067-.1932962.1786601-.3221604.2977667-.6443209.5359801-.9664813.8337469-.0644321.0595533-.0644321.1191067-.1288641.1191067-.0644321.1191067-.0644321.2977667-.0644321.4764268-.0644321.2977667-.1288642.5359801-.1932963.8337469-.0644321.17866-.1932962.17866-.3221604.1191067-.1288642-.0595534-.1932963-.1786601-.3221604-.2977668-.3221605-.4168734-.6443209-.8933002-1.0309134-1.3101737-.0644321-.0595533-.1288641-.1191067-.19329623-.1191067-1.03091335-.5359801-5.99218384-2.8585608-7.21639344-3.3945409-.25772834-.1191067-.51545668-.1191067-.8376171-.1191067-.25772834 0-.57988876.0595533-.8376171.0595533-.25772833 0-.57988876-.0595533-.83761709-.1191067-.06443209-.0595533-.12886417-.17866 0-.2977667z"/><path d="m13.3374415 4.40694789c-.0644321-1.13151365-.6443209-2.08436724-1.6108022-2.85856079-.7087529-.5955335-1.6108021-.89330025-2.57728333-1.13151365-.83761709-.17866005-1.67523419-.29776675-2.51285129-.29776675-.83761709 0-1.67523419.1191067-2.4484192.29776675-.90204918.17866005-1.73966628.53598015-2.4484192 1.13151365-.90204918.7146402-1.41750586 1.66749379-1.48193794 2.79900744-.06443209 1.13151365.25772833 2.20347395.90204918 3.15632754 0 .05955335.06443208.05955335.06443208.1191067l.51545668.7146402c-.06443209.41687345-.19329626.8337469-.12886417 1.25062035.06443208.59553347.32216042 1.01240697.96648126 1.19106697.06443209 0 .12886417.0595534.19329626.0595534.19329625.0595533.45102459.17866.64432084.2382134.51545667.2382134.90204918.5359801 1.09534543 1.0124069.06443209.1191067.06443209.2977668.12886417.4168735 0 .0595533.06443208.1191067.06443208.1191067.25772834.0595533.57988876.1191067.8376171.17866h1.09534543c.38659251 0 .77318502.0595534 1.09534544.0595534s.57988876-.0595534.90204918-.1191067c0 0 .06443208-.0595534.06443208-.1191067.06443209-.1191067.06443209-.2977668.12886417-.4168735.19329625-.4764268.57988876-.7741935 1.09534543-1.0124069.19329622-.0595534.45102462-.1191067.70875292-.2382134.0644321 0 .1288642-.0595534.1932963-.0595534.7087529-.17866.9664812-.5955335 1.0309133-1.19106697.0644321-.41687345 0-.8337469-.1288642-1.25062035l.5154567-.7146402c.0644321-.05955335.0644321-.05955335.0644321-.1191067.773185-.95285359 1.1597775-2.02481389 1.0309134-3.21588089zm-8.69833143 5.06203474c-.25772834.2382134-.64432084.29776675-.96648126.17866005-.38659251-.1191067-.64432085-.3573201-.8376171-.65508685s-.32216042-.65508685-.45102459-1.01240695c-.06443208-.41687345.12886417-.83374689.57988876-.95285359l.96648126-.17866005c.06443209 0 .19329626 0 .25772834-.05955335.25772834 0 .51545667-.05955335.77318501-.05955335.51545668 0 .70875293.3573201.77318501.71464019.06443209.2382134 0 .53598015-.12886417.77419355-.19329625.4764268-.57988875.89330025-.96648126 1.25062035zm1.93296253 1.78660047c0 .0595534 0 .1191067-.06443208.1191067-.12886417.1191067-.25772834.2382134-.38659251.3573201-.06443208.0595534-.12886417.0595534-.12886417.0595534-.12886417.0595533-.25772834.0595533-.32216042-.1191067-.06443209-.1191067-.12886417-.2382134-.12886417-.3573201-.06443208-.4168735-.06443208-.8933003.19329625-1.3101737.19329626-.29776677.38659251-.53598017.64432085-.77419357.06443208-.05955335.12886417-.05955335.19329625-.1191067v.29776675zm1.35307377.2977668c0 .1191067-.12886417.2382134-.25772834.2977667-.06443208 0-.12886417 0-.19329625 0-.25772834-.1191067-.45102459-.2977667-.57988876-.5359801v-.0595534c0-.6550868 0-1.31017367 0-1.96526052 0-.05955335 0-.05955335 0-.1191067.06443209.05955335.12886417.05955335.19329625.1191067.32216043.29776675.57988876.65508685.77318502 1.01240692.06443208.0595534.06443208.1786601.06443208.2977668zm3.28603633-3.39454097c-.1932963.3573201-.3221605.77419355-.5798888 1.13151365-.2577283.41687345-.70875292.53598015-1.22420959.53598015-.19329625 0-.38659251-.05955335-.57988876-.2382134-.51545667-.4764268-.90204918-.9528536-1.15977752-1.60794045-.12886417-.3573201-.06443208-.7146402.19329626-1.01240694.12886416-.17866005.32216042-.2382134.57988875-.2382134.64432085.05955335 1.28864169.1191067 1.93296256.29776675.4510246.1191067.773185.47642679.8376171.83374689.0644321.1191067.0644321.2382134 0 .29776675z"/></g><path d="m101.69877 91.7121588h-39.2827864l2.2745902-3.4937965h35.4098362z" fill="#69797d"/><path d="m101.69877 92.5856079h-39.2827864v.8734492h39.1598364z" fill="#465557"/></g></g></svg>