<svg height="182" viewBox="0 0 220 182" width="220" xmlns="http://www.w3.org/2000/svg"><g fill="none" fill-rule="evenodd"><path d="m1 1h218v180h-218z" opacity=".011091" stroke="#fefefe"/><g fill-rule="nonzero" transform="translate(13.954918 5.913151)"><g transform="translate(142.504098 5.359801)"><path d="m4.18269418 17.866005 4.14812647-3.7762862 3.22632055-5.01538003c-.7489672-.35402682-1.67077313-.23601788-2.30451467.4130313l-1.67077316 1.65212523h-.05761287l-1.55554742-.9440716s0 0-.05761287-.0590044l-2.41974044-9.55872436c-.05761286-.29502236-.28806433-.47203577-.57612867-.53104024-.51851581-.11800894-.97941875.35402683-.86419302.88506706l1.03703162 4.66135322-.46090294-1.06208048c-.23045147-.53104024-.92180588-.70805365-1.32509595-.29502236-.23045147.23601789-.34567721.59004472-.23045147.88506707l.28806433.88506707v.05900447l-.28806433.23601788c-.46090294.35402683-.63374155 1.00307601-.40329008 1.59312072l.17283861.47203577c-.51851581.29502236-.80658015 1.00307601-.57612868 1.59312072l.1728386.47203576c-.63374154 2.0651565-.40329007 4.3073264.51851581 6.1954695l.28806434.5900447s.05761287.0590045.05761287.0590045l2.88064337.4720357z" fill="#815245"/><path d="m5.91108021 1.04973071c-.05761287 0-.05761287 0-.11522573 0h-.05761287c-.46090294-.05900447-.86419302.23601788-1.09464449.82606259l-3.45677205 9.7357377c-.28806434.8260626 0 1.8881431.63374154 2.3601789l2.82303051 2.1241609c.57612868.4130313 1.09464449.3540269 1.26748309.2950224.05761287 0 .05761287-.0590045.05761287-.0590045v-1.1800894l3.39915918-9.49971985c.28806434-.82606259 0-1.88814307-.63374154-2.36017884l-2.24690183-1.71112966v-.47203577.05900447z" fill="#000"/><path d="m7.06333756 1.28574859 2.82303051 2.12416096c.63374153.47203577.97941873 1.53411625.63374153 2.36017884l-3.45677204 9.73573771c-.28806434.8260626-1.03703161 1.0620805-1.72838602.5900447l-2.82303051-2.1241609c-.63374155-.4720358-.97941875-1.5341163-.63374155-2.3601789l3.45677206-9.7357377c.3456772-.82606259 1.09464448-1.06208048 1.72838602-.59004471z" fill="#3d3d3b"/><path d="m2.45430816 11.72954 4.37857793 3.3042504c.05761287 0 .11522574 0 .11522574-.0590045l3.22632057-9.20469751c0-.05900447 0-.05900447 0-.05900447l-4.26335219-3.18624144c-.05761287 0-.11522573 0-.11522573.05900447l-3.34154632 9.08668855z" fill="#fff"/><path d="m3.14566257 5.77008839.40329007 1.18008942c.28806434.76705813.05761287 1.65212519-.57612867 2.18316543l.23045147.59004471c.11522573.29502235.05761286.59004475-.17283861.82606255-.3456772.3540269-.86419301.2360179-1.09464448-.1180089l-1.15225735-1.88814307v-.05900447l2.18928897-2.6552012c.11522573-.11800894.1728386-.11800894.1728386-.05900447z" fill="#815245"/></g><path d="m183.249601 162.959176s-2.648144 4.525333-2.295058 5.556421c.235391.572827 2.059668 2.405873 4.766659 2.062177 2.00082-.229131 4.943202-2.635004 5.413983-2.806852 1.176953-.343696-.058847-6.530227-.058847-6.530227z" fill="#55210e"/><path d="m168.412881 30.2018067c2.135122 3.1263485.177927 5.7807953-3.024755 7.668402-3.202682 1.8876066-21.647758 8.0813159-22.774627 7.668402-1.12687-.412914-3.558536-5.3088937-2.550284-6.665611 1.067561-1.3567173 15.954101-9.0251193 18.860238-10.1458857 2.846829-1.0617788 6.998453-2.1825452 9.489428 1.4746927z" fill="#815245"/><path d="m166.224757 28.2569344c-1.405498-.5369393-4.88869-1.3721782-10.26625 1.2528585-3.60541 1.7301378-10.327359 5.3097333-10.327359 5.3097333s0 2.9829962 1.77215 5.9659925c2.016585 3.5199355 4.644256 4.772794 4.644256 4.772794s14.299421-7.0398712 16.13268-9.6649079c.549977-.8352389 1.894367-6.1449722-1.955477-7.6364704z" fill="#ed6b06"/><path d="m175.605436 13.8461538s.239896 10.9531542.899611 11.4889063c1.979145 1.6667843 9.176034 3.2145126 10.495464 6.1313852 1.559326 3.5121527-7.736656 18.9894357-9.056086 24.1683727-1.259456 5.178937 1.019559 13.2152186 1.679274 18.3346276s-15.533287 10.9531542-16.133027 10.894078c-.599741 0-5.697538-4.9412768-6.597149-6.6080611-.959586-1.6667844.29987-14.6438909.359844-17.9774596.059974-3.3335686-.479792-14.9415309-.599741-15.715395-.899611-5.119409.479793-9.1077858.719689-10.17929.239897-1.0715042.179923-2.8573446.779663-3.5716807 1.079534-1.3691443 7.136916-3.0359286 7.256864-3.6907368.119948-.6548081 1.139508-10.1792899 1.139508-10.1792899z" fill="#815245"/><path d="m175.661208 25.4590571-9.744242 5.5412727-1.307154-3.7537654s-6.357524 1.8470909-7.189349 3.2175132c-.831826 1.3704223-1.307155 4.8262698-1.604235 5.8987743-.297081 1.0725044-.534745 6.1966921-.178249 10.6058768.178249 2.5620939.059417 6.0179414.356497 10.3675426.237665 3.7537654-.356497 13.1083872-.356497 13.1083872s3.564967.2383343 9.150081.0595836c6.41694-.1787508 12.952712-1.0725044 13.249792-1.2512552 1.247738-1.0129208-.237664-11.0229619 0-12.0954663.237665-1.0725044 8.496504-20.0796658 8.674752-22.5821761s-1.06949-4.1708505-2.970806-5.1837713c-1.901315-1.0129208-8.08059-3.9325161-8.08059-3.9325161z" fill="#f08100"/><path d="m183.693206 28.5856079s6.286503 3.5653651-.120894 8.2597623c-2.780568 2.0203736-15.897599 4.9915111-18.375932 5.6451613-8.825283 2.4363328 4.291748 21.8675722 5.319349 23.2937182 1.027602 1.4855688.967154 3.4465195.967154 3.4465195l8.462601-.7724957c2.599227.5348047-1.148496-11.8845501-.060448-14.4991511 1.027602-2.6740238 7.737235-17.7674024 7.737235-19.7877759.060447-4.4567063-3.929065-5.5857386-3.929065-5.5857386z" fill="#f08100"/><path d="m166.180328 21.1804325 9.268798-3.3144275.112349 5.8454448-2.864901 1.7476073z" fill="#744135"/><path d="m164.60995 2.49487014c2.569632-2.12229442 9.919973-3.75949298 13.206712 1.27337665 3.226979 5.03286962 1.434213 9.70191731-.657348 12.55185561-1.61349 2.1829314-3.167221 3.395671-6.095405 4.5477737-.597589.2425479-5.975888.8489178-6.991789.4244589-.717106-.3031849-.956142-5.6998764-1.135419-5.6998764-.239035 0-.776865-.3638219-.776865-.7882808 0-.6670068.896383-4.4264998.776865-4.8509587-.239035-.54573285-1.314695-5.03286963 1.673249-7.45834896z" fill="#815245"/><path d="m163.053279 4.91703728s4.155254-2.00586623 8.904117 2.83181116c1.009133 1.06192919-1.246577 5.07366166-1.009133 5.42763806.237443.4129725 4.155254-2.7728151 3.977172-2.3598426-1.721463 4.7196852-.296804 7.4335043.118721 7.4925003 1.305938.1769882 5.876718-6.3715751 4.155255-11.97620134-1.721463-5.60462625-7.59818-6.48956724-9.022839-6.31257904-1.484019.29498033-5.757995.3539764-7.123293 4.89667346z" fill="#36180e"/><path d="m171.727988 11.1336615c-.645385 1.5379518-.968077 3.6910844-.129077 3.9986748.903538.3075903 2.129769-.7382169 2.710616-2.2761687.645384-1.5379519.38723-3.07590371-.516308-3.38349407-.839-.30759037-1.484385.12303614-2.065231 1.66098797z" fill="#815245"/><path d="m161.977752 162.350142 6.260767-.000004-.000001 1.192489-6.260767.000005z" fill="#1a1a1a" transform="matrix(-.99976567 -.02164744 .02164744 -.99976567 326.650207 329.428755)"/><path d="m168.360466 154.627118c.785854 1.055643 1.329907 3.166929 1.390357 4.111451.060451 1.166764-.725404 3.55585-1.571708 3.55585-2.418013-.05556-5.259177 0-7.73764.222241-2.478463.277801-3.445668 1.555684-9.732501 1.389004-1.813509-.05556-5.077826-.222241-5.077826-.888963.06045-3.000248 6.105481-1.833485 8.039891-3.389169 4.956926-4.000331 8.221243-4.944854 8.221243-4.944854s6.286833-.277801 6.468184-.05556z" fill="#55210e"/><path d="m167.906968 70.6305135s8.228415 8.4587109 8.530931 12.0923824c.302515 3.6336716-3.509177 15.1303701-4.961251 24.1847651-1.452073 9.054394-2.299115 10.901014-1.9966 13.045476.242012 2.144462 2.541128 10.901015 2.359619 16.738717-.242012 6.731227-.181509 20.610661-.181509 20.610661s-1.875595 1.370073-6.594833 1.250936c-3.025152-.059568-5.626784-2.263598-5.626784-2.263598s-1.149558-34.013549-1.452073-37.587652c-.181509-2.323167-1.754588-18.287494-2.057104-31.332971-.121006-4.169787.302516-15.9643274.363019-17.6918106z" fill="#3c3c3b"/><path d="m166.678994 28.8408366-.498666 2.4246721 5.360656-3.1265509z" fill="#bacfed"/><path d="m166.627049 31.2655087-.81222-3.1265509-1.421386 1.0421836z" fill="#bacfed"/><path d="m180.18273 69.2903414s3.163634 8.2209597 4.357459 13.6420274c1.193824 5.4806398 2.148883 33.6582772 2.566722 36.2794532.417838 2.680747 1.910118 10.782563 2.98456 18.824806 1.134133 8.042243 1.551972 24.067157 1.551972 24.067157l-10.266888 1.37016s-5.372209-33.777421-6.207886-39.079344c-.835677-5.301924-10.207197-43.0706808-10.207197-43.0706808l-1.014751-12.093151z" fill="#4a4a49"/><path d="m179.301952 92.1807707c.778832 3.6362339 2.755867 28.1361053 2.935598 29.5667553.17973 1.371039 5.751374 39.044807 5.991014 40.833119l3.414879-.476883s-.419371-16.094806-1.557664-24.082599c-1.138293-8.047403-2.576137-16.154416-2.995508-18.836884s-1.377933-30.8185735-2.576136-36.3027297-4.373441-13.6507801-4.373441-13.6507801l-9.046432.0596104c.05991-.0596104 7.428858 19.2541571 8.20769 22.8903911z" fill="#4a4a49"/><path d="m179.948452 68.7494791s-15.515975-.0660508-16.394238-.0660508c-.936814 0-7.026102-.7926094-7.026102-.7926094l-.175653 2.7741332s5.913636.7265587 8.724077.7926095c2.810441.0660507 15.398874-.3963048 15.398874-.3963048z" fill="#3b1b1d"/><path d="m162.067864 71.4002127 3.251868.0638072c.177375 0 .35475-.1914215.35475-.382843l.059125-2.2970578c0-.1914215-.177375-.382843-.35475-.382843l-3.251868-.0638071c-.177375 0-.354749.1914215-.354749.3828429l-.059125 2.2970578c0 .1914215.177374.382843.354749.382843z" fill="#732d1d"/><path d="m177.795082 25.747114-1.731673-2.5213075-8.542917 5.2885963 1.269893 3.197756z" fill="#e1f2fd"/><path d="m166.180328 27.685927-2.353459 2.2396313-.326869-2.4693371 1.961216-1.550514z" fill="#e1f2fd"/><path d="m182.300814 29.7437776c3.497335-1.1237634 5.446669 1.4786361 6.249336 4.9682172.86 3.4895812 1.777333 25.3142498 1.032 26.2014315-.688.9463271-5.905335 1.8335087-6.880002.4731635s-4.242668-20.2277416-4.414668-23.2441593c-.172-2.9572721-.057333-7.0974532 4.013334-8.3986529z" fill="#815245"/><path d="m179.442513 31.0179174c-.886518 1.1372451-2.600452 4.1299953-1.950339 6.8234706.945619 3.8307203 2.600452 14.0060712 2.600452 14.0060712s2.836856.8379701 6.146522.11971c3.900677-.8978251 5.851016-2.9328953 5.851016-2.9328953s-2.895958-15.2630263-4.609892-17.9565015c-1.418428-2.2146352-5.496409-3.1723153-8.037759-.059855z" fill="#ed6b06"/><path d="m187.38434 55.4297283c3.999673.5373734 2.202718 8.9562223 1.101359 13.0163764s-5.448828 15.5241186-5.448828 15.5241186l-4.34747-.9553304s-.115932-11.2251319 2.318651-22.5696801c.289831-1.1344548 2.31865-5.5528578 6.376288-5.0154845z" fill="#815245"/><g fill="#815245" transform="translate(176.008197 80.397022)"><g transform="translate(.502561 6.812865)"><path d="m5.43539565 5.05287454c-.43297604 0-.80409836-.34064322-.80409836-.79483419l.12370744-3.29288454c0-.3974171.37112232-.73806032.86595208-.73806032.43297604 0 .80409836.34064322.80409836.79483419l-.12370744 3.29288454c0 .45419097-.43297604.7948342-.86595208.73806032z"/><path d="m3.88905265 5.16642229c-.43297604 0-.80409836-.34064323-.80409836-.7948342l.12370744-3.29288454c0-.39741709.37112232-.73806032.86595208-.73806032.43297604 0 .80409836.34064323.80409836.7948342l-.12370744 3.29288453c-.06185372.3974171-.43297604.73806033-.86595208.73806033z"/><path d="m2.34270965 5.16642229c-.43297604 0-.80409836-.34064323-.80409836-.7948342l.12370744-3.29288454c0-.39741709.37112232-.73806032.86595208-.73806032.43297604 0 .80409836.34064323.80409836.7948342l-.12370744 3.29288453c0 .3974171-.43297604.73806033-.86595208.73806033z"/><path d="m.85822037 5.05287454c-.43297604 0-.80409836-.34064322-.80409836-.79483419l.12370744-3.29288454c0-.3974171.37112232-.73806032.86595208-.73806032.43297604 0 .80409836.34064322.80409836.79483419l-.12370744 3.29288454c0 .3974171-.37112232.73806032-.86595208.73806032z"/></g><path d="m2.84527112.34064323s-2.53600252 4.88255293-2.72156368 5.96125648c-.18556116 1.02192969.55668348 5.10964839.55668348 5.10964839s1.546343-1.1922513 2.53600252-1.0787035c.98965952.1703216 3.58751577.7948342 3.58751577.7948342s1.11336696-3.46320618 1.05151324-5.10964844c-.06185372-1.64644227-.55668348-3.29288454-.55668348-3.29288454z"/></g><g transform="translate(0 67.890819)"><g fill="#334043"><path d="m5.92079036 35.0713747 1.95329518-.0009338-.00653664 13.7558386-1.95329518.0009338z" transform="matrix(.99693422 -.07824428 .07824428 .99693422 -3.26112 .668035)"/><path d="m22.8442571 45.6849337 5.2408786-.000269-.0005442 10.5363008-5.2408786.000269z" transform="matrix(.00842647 -.9999645 .9999645 .00842647 -25.701292 75.987116)"/><path d="m14.8187523 59.7800253 20.4870709-.0010516-.0001253 2.4269008-20.4870709.0010516z" transform="matrix(.00842647 -.9999645 .9999645 .00842647 -36.139746 85.54033)"/></g><path d="m22.4467178 73.8729881 4.6453242-.0002384-.0004983 9.6484103-4.6453242.0002384z" fill="#415559" transform="matrix(.00842647 -.9999645 .9999645 .00842647 -54.133865 102.802187)"/><path d="m7.51720287 36.2084367c.35514344-.3573201.71028688-1.4888337.76947746-2.382134.65109631-8.2779156.82866803-17.6277915.35514344-28.04962776-.05919057-1.4292804-.35514344-3.15632755-.71028688-3.69230769-2.13086066-3.51364765-4.49848361-1.6674938-6.86610656 2.20347394-.35514344.65508685-.71028689 2.2630273-.76947746 3.51364764-.2367623 9.34987597.11838115 18.58064517.82866803 27.69230767.05919058 1.012407.35514344 2.2630273.65109631 2.6203474 1.59814549 1.8461539 3.55143443.4168735 5.74148566-1.9057072" fill="#465557"/><path d="m5.74148566 47.2258065v2.3225806l37.64520494.2977667v-2.3225806c0-.9528536-.7694775-1.7270471-1.7165267-1.7866005l-34.2121516-.2977667c-.88785861 0-1.65733607.7741935-1.71652664 1.7866005" fill="#465557"/><path d="m44.9256455 85.0421836h2.1308606l-2.07167-4.6451613-17.2836476-2.3225806-.0591905.8337469-1.7757173-.8337469-.5919057 1.0719603-.7694775-.9528536v-.1191067h-.1183811l-.3551434-.4168735h3.4922438l.1775717-19.7121588-5.6822951-.0595533-.1775717 19.7121588h1.5981455l-.8878586.6550868-15.3303586 1.7866005-1.3613832 2.9776675c-.53271516.3573201-.8878586.9528536-.94704918 1.6674938 0 1.1315137.88785861 2.0248139 1.95328894 2.0248139 1.1246209 0 2.01247951-.8933002 2.01247951-1.9652605 0-.5955335-.2367623-1.0719603-.65109632-1.4888338l.71028689-1.0124069 8.70101436-1.1315137c.6510963-.17866 1.3613832-.3573201 2.0124795-.5359801-3.4330533 2.6203474-8.8785861 6.3722084-8.8785861 6.3722084l-.82866801 2.1439206c-1.00623975.3573201-1.77571721 1.3101737-1.77571721 2.5012407 0 1.4888338 1.18381148 2.6799008 2.66357582 2.6799008 1.4797643 0 2.6635758-1.191067 2.6635758-2.6799008 0-.8337469-.3551434-1.6079404-.9470492-2.0843672l.7102869-1.4292804 11.7197336-8.4565757-.3551434.6550868 14.028166 6.5508685.4735246.6550869c-.3551435.4764268-.5919058 1.0124069-.5919058 1.6079404 0 1.4888338 1.1838115 2.6799008 2.6635758 2.6799008 1.4797644 0 2.6635759-1.191067 2.6635759-2.6799008 0-1.369727-1.0654304-2.560794-2.367623-2.6799007l-1.0062397-1.6079405-6.4517726-3.0372208 9.1153484.6550868z" fill="#465557"/></g><path d="m51.5066411 109.364533-.9977862-.892833c.9977862-.059522 1.9955725-.297611 2.9346655-.595222.4695465-.178566.9977863-.357133 1.4673328-.119044.4108532.238089.5282398.714266.6456264 1.190444.7043197 2.916587 5.9867177 28.094475 6.5149575 30.118229.6456264 2.678499 2.0542659 4.88082 3.0520522 7.380752.9977863 2.380888 2.0542659 4.88082 3.3455187 7.083141.2347733.416656.7043197.773789 1.1738662 1.0714.3521599.238089.6456265.416655.939093.595222-.1760799.238089-.3521599.476177-.5869331.654744-.2347732.178566-.4695465.357133-.763013.416655l-2.2303459.059522h-.0586933c-.9977863-.238088-1.702106-1.011877-2.2303458-1.845188-.5282398-.892832-.7043197-1.964232-1.3499461-2.797543-.7630131-.952355-1.8194927-1.547577-2.7585857-2.261843-.5869331-.476177-1.1151729-.952355-1.7607993-1.309488-.4695465-.238089-.9977863-.416656-1.4673328-.714267-.763013-.416655-.5282398-.773788-.4695464-1.547577.0586933-.654744.0586933-1.309488 0-2.083276-.0586934-.892833-.3521599-2.261844-.6456265-3.095154-.5869331-1.488055-1.1738662-2.916588-2.1716525-4.226076-2.2303458-2.97611-4.1085317-6.904574-4.7541582-10.59495-.2934665-1.6071-.3521598-3.214199-.3521598-4.88082-.0586933-1.607099.1760799-3.51181-.2347733-5.059387-.2934665-1.011877-.939093-2.023754-1.3499461-3.035631-.2934666-.833311-.6456265-1.666622-.939093-2.499932z" fill="#efb690"/><path d="m56.2956472 147.159254c0-.342508.7190674-1.769625.5393006-1.997964.5393005.627932 1.1385233 1.370032 1.7976684 1.883795 2.0373576 1.541286 3.8350261 3.196741 5.5727723 5.023451.6591451.685016 1.4381347 1.312947 2.336969 1.71254.4194559.171254.8988342.285423 1.3782124.342508.1198446 0 .3595337.057085.4793783 0 .1797669-.057085.3595337-.342508.5992228-.342508.1198446 0 .1797669.057085.2396892.114169.4194559.399593 1.078601.627932 1.5579793.97044.5992228.399593 3.1758809 1.71254 2.2770467 2.56881-.2996114.285423-.8988342.228339-1.2583679.228339-.7190674 0-1.4381348-.057085-2.2171245-.11417-1.5579793-.171254-3.1758809-.399592-4.7338602-.7421-1.7377462-.342508-1.1984457-3.139657-2.2770468-4.167181-.5992228-.570847-2.7564249-1.598371-3.3556478-.570847-.4793782.799185.2396892 2.397556.3595337 3.196742.0599223.342508.2996115 1.027524.2396892 1.427116h-.7789897c-.3595337-2.169217-.419456-4.224265-1.7976685-6.165144-.7789896-.85627-1.0186788-2.169218-.9587565-3.367996" fill="#2f2722"/><path d="m55.7388565 107.702905c.1200621.05949.1800931.118981.3001551.178471.300155.237962.60031.475924.840434.832868 1.740899 2.141659 0 5.413638-.780403 7.674278-.9604961 2.796056-1.6808681 5.711092-2.7013951 8.507147-1.9810231 5.473129-4.0821082 10.946258-5.8830382 16.478878-.8404341 2.617583-.8404341 5.235167-1.2606511 7.912241-.420217 2.498602-.840434 5.235167-.840434 7.79326 0 .475924.240124 1.011339.480248 1.546753.180093.356944.360186.713887.480248 1.011339-.300155.118982-.540279.178472-.840434.237963-.300155.05949-.60031 0-.900465-.059491l-1.9810231-1.13032s0 0-.060031-.059491c-.720372-.773377-.960496-1.784716-.960496-2.796055 0-1.070829.480248-2.082168.360186-3.093507-.120062-1.189811-.780403-2.260641-1.2006201-3.390961-.240124-.713886-.480248-1.368282-.840434-2.022678-.300155-.475924-.660341-.892358-.900465-1.368282-.420217-.773377-.060031-.951849.420217-1.546754.360186-.535415.720372-1.07083 1.080558-1.784716.4202171-.773377.9004651-2.082169 1.0805581-2.974527.300155-1.606244.540279-3.152998.360186-4.759243-.360186-3.688413.060031-8.090712 1.500775-11.541163.6003101-1.487263 1.4407441-2.915036 2.2811781-4.342809.720372-1.249301 2.1611161-2.26064 1.1405891-3.688413-.3601861-.475924-.8404341-.892358-1.0805581-1.427773-.120062-.178472-.180093-.416434-.180093-.594905 0-.356943.240124-.594906.420217-.892358.8404341-1.011339 1.8609611-1.844207 2.7013951-2.855546.300155-.356943.360186-.594905.840434-.713886.5402791-.118981 1.0805581.05949 1.6208371-.237962.780403-.356944 1.440744-1.189811 2.2811781-1.368283.720372-.118981 1.560806.118981 2.221147.475925" fill="#fac39d"/><path d="m38.2873456 145.299762c.2350087-.295684 1.527557-1.182738 1.527557-1.478422.1762566 2.128928 1.3513005 3.903035 1.9388225 5.972826.7050263 2.365476-.4700176 6.623333 2.7026009 7.214702.2350088.059136.4112654.059136.587522.17741.2350088.177411.3525132.473095.4700175.709643.3525132.887053.6462742 1.655833 1.1750439 2.424613.2350088.354821 1.1750439 1.419285.293761 1.774107-.4700175.17741-1.2337961-.295685-1.6450614-.413959-.881283-.295684-1.7625659-.709642-2.5850966-1.182738-.6462742-.354821-1.8800703-.827916-2.2325834-1.537559-.881283-1.71497-.1762566-3.42994.0587522-5.14491.1762565-1.064464-.5287698-2.897708-1.9388225-2.602023-1.7038136.354821-1.9975746 4.080446-2.5263444 5.381457-.2937609-.118273-.5287697-.236547-.8225307-.354821.8225307-2.365476 1.8213181-4.908362 1.7625659-7.451249.0587522-1.182738.4700175-2.483749 1.2337961-3.489077" fill="#2f2722"/><path d="m8.81998546 113.737032s.05991663 0 0 0c.05991663.06054 5.93174684.06054 6.11149674.06054 1.0784995 0 24.5658204.48432 24.5658204.48432 1.9173323.06054 3.2954149.06054 3.8346646.06054-.7789162-1.997818-3.5350815-2.421597-5.5123304-2.421597-9.4668283-.48432-20.5514058-.726479-26.7827358-9.080989-1.85741573-2.421597-2.45658208-5.4485936-2.69624862-8.5966698-.83883289 1.634578-2.09708223 6.7804718-2.2169155 7.5674908-.47933308 2.966456-.53924971 6.780472.71899962 9.565308.41941645 1.029179 1.13841607 1.816198 1.97724896 2.361057" fill="#c08a00"/><path d="m37.3814659 111.773567c-9.42235-.489666-20.4548484-.734499-26.6569016-9.181241-1.84868892-2.448331-2.44504019-5.5087453-2.68358069-8.6915756.17890538-.3672496.29817563-.5508745.41744588-.5508745 0 0 19.14287561 1.8974566 19.14287561 1.8974566l24.9274829 6.3044525 4.6515399 6.977743c-.1192703.122417-.2981757.183625-.4174459.306042-2.6835807 1.958664-5.4864317 3.856121-8.2296475 5.753578-.8348917.550874-1.6697835 1.04054-2.5643104 1.530206-.3578108.244834-.6559864.550875-1.0734323.428458-.7752566-.244833-1.1330674-2.325914-1.7890538-2.387122 0 0-.0596351 0-.2385405 0-.7752566-1.958665-3.4588373-2.325915-5.4864316-2.387123" fill="#da9b00"/><path d="m52.1644842 80.8436725-13.2997301 20.6606875 92.0245899.778518-18.905894-20.9002311z" fill="#a8aab3"/><path d="m63.1516835 84.9209892c-.1776696 0-.3553392.1244258-.5330089.1244258-.1776696.0622128-.4145625 0-.5330089.0622128.1776696-.0622128.3553393 0 .4737857.0622129.3553393.1244257.7106786.0622129 1.1252411.1244257.3553392.0622129 1.5990267.497703 1.2436874 1.1198317-.3553392.5599159-1.125241.3732773-1.5398035.3110644-.7699018-.1244257-1.5990268.3110644-2.3097053.5599159-1.9543661.6221287-3.8495089-.1866387-5.6854285-.6843416l1.3621339-2.6129407 6.2776606-1.8041733c.5922321.1866386 1.1844643.4354901 1.7766964.6221288.829125.3110643 1.5398035.6221287 2.3097053 1.1820445.2961161.2488515.4145625.5599159.5330089.9331931.1776697.4354901.4145625.8709802.5922322 1.3064703.1776696.3110644.829125 1.2442575.4145625 1.6797476-.2368929.2488515-.7106786-.1244258-.829125-.3110644-.4145625-.6221287-.7699018-1.7419604-1.3621339-2.1152376-.829125-.5599159-2.2504821-.6843416-3.3165-.5599159" fill="#e4bca3"/><path d="m74.6966472 1.7866005h-20.7079547c-4.8439661 0-8.840238 3.97100982-8.840238 9.5063568v7.821686c0 3.0083408 1.1504419 5.6556807 3.0274787 7.520852.6054958.6016681.7871445 1.624504.3632975 2.4668394l-5.2072635 10.6495263s14.3502494-10.5893595 15.3190426-10.5893595h16.0456374c4.8439661 0 8.840238-4.5125111 8.840238-10.0478582v-7.821686c0-5.53534698-3.9962719-9.5063568-8.840238-9.5063568z" fill="#e2f2fd"/><g fill="#d52e1e" transform="translate(55.840164 6.253102)"><path d="m17.2196998 12.8334197-6.3734985-11.32004474c-.4130971-.78695498-1.1802775-1.27123497-2.06548563-1.27123497-.82619425 0-1.53436076.42374499-2.00647176 1.15016498l-.05901387.06053499v.060535l-6.37349853 11.32004474c-.41309713.72642-.472111 1.6949799 0 2.4819349.41309713.72642 1.12126363 1.150165 1.94745788 1.2107h.05901388.05901387 12.68798316.0590139.0590139c.8261942-.060535 1.5343607-.48428 1.9474579-1.2107.5311248-.84749.5311248-1.7555149.0590138-2.4819349zm-1.1802775 1.7555149c-.1770416.302675-.472111.48428-.8261942.48428h-.0590139-12.74699706-.05901387c-.35408325 0-.64915263-.181605-.82619425-.48428-.17704163-.36321-.17704163-.7264199 0-1.0290949l6.37349852-11.38057975.05901388-.060535c.17704162-.30267499.472111-.48427999.82619425-.48427999s.7081665.24213999.88520813.54481499l6.3734985 11.38057975c.1770417.24214.2360555.6658849 0 1.0290949z"/><path d="m8.013535 11.562185h1.534361v1.513375h-1.534361z"/><path d="m8.01353529 7.38526982.41309713 3.57156488h.7081665l.41309713-3.57156488v-1.93711995h-1.53436076z"/></g><path d="m96.8234201 79.057072-.1189533 1.531807s-1.0705795 3.2992768-3.2712152 4.8899995c-.5352898.3534939-2.5574956.7069879-3.3306919.7069879 0 0-.8921496.1178313-1.1895328.8248192s3.7470284 3.4760237 7.0777202 3.6527707c3.3306919.1767469 7.6130099-3.2992768 7.6130099-3.2992768s.35686-4.5365055-1.189533-7.1287944z" fill="#69797d"/><path d="m102.577869 80.3277217-4.3647542-2.16395-1.6598361.1236543-.0614754 1.3601972s6.7008197 2.59674 6.7008197 2.5349128c-.245902-1.0510614-.614754-1.8548143-.614754-1.8548143z" fill="#465557"/><path d="m111.434561 46.4536757-23.2102807.7825281c-.5275064 0-.9964009 1.0233061-.9964009 2.2271955l-.1172237 24.1981775c0 1.2038894.4102828 2.3475844.9377891 2.5281678l23.1516682 7.2835311c.879178.3009723 1.641131-.7825282 1.641131-2.3475844l.175836-31.782681c.058612-1.6854452-.64473-2.9495291-1.582519-2.8893346" fill="#69797d"/><path d="m88.0040984 74.3076653 24.8355516 6.9826573.180842-32.6054591-24.8958327.2958753z" fill="#d52e1e"/><g fill="#fff" transform="translate(95.151639 53.151365)"><path d="m6.40014187 14.2521994c0-.0609068-.06013556-.1827205-.06013556-.2436273-.12027113-.2436274-.24054225-.5481615-.36081337-.7917889-.12027112-.2436273-.12027112-.4872547-.18040669-.730882 0-.365441-.06013556-.730882-.12027112-1.096323 0-.1827205-.06013556-.1827205-.18040668-.1827205-.06013556.0609068-.06013556.0609068-.12027112.1218136-.12027113.1827205-.18040669.4263479-.30067781.6699752-.06013556.1827205-.12027112.365441-.18040668.5481615-.12027112.3045342-.30067781.4872547-.48108449.6699752-.54122005.4263479-2.40542245 1.9490187-2.82637138 2.2535529-.18040668.1827205-.42094892.3045342-.66149117.1827205-.18040668-.0609068-.36081337-.1218136-.54122005-.1827205-.06013556 0-.18040668 0-.24054224 0-.06013557.0609069-.12027113.1827205-.06013557.3045342 0 .0609068.06013557.1218137.06013557.1827205.12027112.3045342.24054224.6090683.42094892.9745094 0 .0609068.06013557.1218136.06013557.1827205v.4872546c0 .3045342.06013556.6090684.06013556.8526957 0 .1827205.06013556.2436274.18040668.1218137.06013556-.0609068.12027112-.1218137.12027112-.2436273.18040669-.4263479.30067781-.8526957.48108449-1.2181367 0-.0609069.06013556-.1218137.06013556-.1218137.48108449-.4263479 2.82637138-2.2535529 3.42772699-2.6799008.12027112-.1218136.24054224-.0609068.42094893 0 .12027112.0609069.3006778.1218137.42094892.1827206.12027113.0609068.30067781 0 .42094893-.0609069.18040669.0609069.24054225-.0609068.18040669-.1827205z"/><path d="m.20617907 13.2167832c0-.0609068.06013556-.1218137.06013556-.1827205.12027112-.1827205.18040668-.4263478.3006778-.6090683.06013557-.1827205.12027113-.4263479.12027113-.6699752 0-.365441.06013556-.6699752.12027112-.9745094 0-.1827205.06013556-.1827205.12027112-.1218137.06013556.0609069.06013556.1218137.12027112.1827205.12027113.1827206.18040669.4263479.24054225.7308821.06013556.1827205.12027112.4263478.18040668.6090683.12027112.365441.24054225.5481615.42094893.7917889.48108449.6090683 2.40542245 2.7408076 2.82637137 3.2280622.24054225.2436274.48108449.4872547.72162674.4872547.18040668 0 .36081336 0 .54122005.0609069.12027112 0 .18040668.0609068.3006778.1218136.12027113.0609069.12027113.2436274.06013557.365441 0 .0609069-.06013557.1218137-.06013557.1827205-.12027112.3045342-.3006778.5481616-.42094892.8526957 0 .0609069-.06013557.1218137-.06013557.1827205 0 .1827205 0 .3045342-.06013556.4872547 0 .3045342-.06013556.6090684-.06013556.9136025 0 .1827205-.12027112.2436274-.18040668.0609069-.06013556-.1218137-.12027112-.1827205-.18040668-.3045342-.18040669-.4872547-.30067781-.9745094-.48108449-1.461764 0-.0609069-.06013556-.1218137-.06013556-.1827205-.48108449-.6090684-2.82637138-3.2889691-3.36759143-3.9589443-.12027112-.1218137-.24054224-.1827205-.36081337-.1218137-.12027112 0-.24054224 0-.36081336.0609068-.12027113 0-.24054225-.0609068-.36081337-.1827205-.12027112-.3045341-.12027112-.4263478-.12027112-.5481615z"/><path d="m6.21973518 4.20257162c-.06013556-1.09632303-.3006778-2.07083239-.72162673-2.80171441-.36081337-.60906835-.72162673-.91360253-1.14257566-1.09632303-.36081337-.18272051-.72162674-.30453418-1.0824401-.30453418-.36081337 0-.72162674.06090684-1.0824401.24362734-.42094893.18272051-.7817623.48725468-1.08244011.97450936-.42094892.66997519-.66149117 1.52267088-.66149117 2.61899391-.06013556 1.09632303.06013556 2.13173923.36081337 3.10624859 0 .06090684 0 .06090684.06013556.12181367l.24054224.73088202c-.06013556.42634785-.06013556.79178886-.06013556 1.2181367.06013556.54816152.12027113 1.03541621.42094893 1.21813671 0 0 .06013556.0609068.06013556.0609068.12027112.0609069.18040669.1827205.30067781.2436274.24054224.2436273.42094893.6090683.48108449 1.096323 0 .1218137 0 .3045342.06013556.4263478 0 .0609069 0 .1218137.06013556.1218137.12027112.0609069.24054224.1827205.42094893.1827205.18040668 0 .36081336.0609069.54122005.0609069.18040668.0609068.36081337.0609068.54122005.0609068.12027112 0 .3006778-.0609068.42094893-.0609068 0 0 0-.0609069.06013556-.1218137 0-.1218137 0-.3045342.06013556-.4263479.06013556-.4872546.30067781-.7917888.54122005-.9745093.12027112-.0609069.18040668-.1218137.30067781-.1827205 0 0 .06013556-.0609069.06013556-.0609069.3006778-.1218136.42094892-.6090683.48108449-1.21813666 0-.42634785 0-.85269569-.06013557-1.27904354l.24054225-.66997518c0-.06090684.06013556-.06090684.06013556-.12181367 0-.91360253.18040668-2.00992556.12027112-3.16715543zm-3.96894703 4.81163997c-.12027113.24362735-.30067781.30453418-.42094893.12181368-.18040669-.12181368-.30067781-.36544102-.36081337-.66997519-.06013556-.30453418-.18040668-.66997519-.18040668-1.0354162-.06013556-.42634784.06013556-.79178885.3006778-.91360252.12027113-.06090684.30067781-.12181367.42094893-.12181367h.12027112c.12027113 0 .24054225 0 .36081337-.06090684.24054225 0 .30067781.36544101.36081337.73088202 0 .24362734 0 .48725468-.06013556.73088202-.18040669.42634785-.36081337.85269569-.54122005 1.2181367zm.90203341 1.82720501v.1218137c-.06013556.1218137-.12027112.2436274-.18040668.365441 0 .0609069-.06013556.0609069-.06013556.0609069-.06013556.0609068-.12027112 0-.18040668-.1218137-.06013557-.1218137-.06013557-.2436273-.06013557-.365441 0-.4263479 0-.91360254.12027113-1.27904355.06013556-.30453418.18040668-.54816152.3006778-.79178886 0-.06090684.06013556-.06090684.06013556-.12181367v.30453417zm.60135562.3654411c0 .1218136-.06013557.2436273-.12027113.3045341h-.06013556c-.12027112-.1218136-.18040668-.3045341-.3006778-.5481615v-.0609068c0-.6699752 0-1.33995039 0-2.00992558 0-.06090683 0-.06090683 0-.12181367.06013556.06090684.06013556.06090684.06013556.12181367.12027112.30453418.24054224.66997519.36081336 1.0354162 0 .06090684.06013557.18272048.06013557.30453418zm1.50338902-3.34987597c-.06013556.36544101-.18040668.79178885-.24054224 1.09632303-.12027112.36544101-.30067781.54816152-.54122005.48725468-.12027112 0-.18040668-.06090683-.24054225-.24362734-.24054224-.48725468-.42094892-1.0354162-.54122005-1.64448455-.06013556-.36544101 0-.73088202.12027113-.97450936.06013556-.1827205.12027112-.24362734.24054224-.1827205.30067781.12181367.60135561.1827205.90203342.30453417.18040668.12181367.36081337.48725468.36081337.85269569 0 .18272051 0 .24362734-.06013557.30453418z"/></g><path d="m115.254098 49.2805623-.181717 31.757375c0 1.5638101-.787441 2.6464479-3.089191 2.4660082l-.302862-.120293c.908586.3007327 1.696027-.7819051 1.696027-2.3457152l.181717-31.757375c0-1.443517-.605724-2.6464479-1.453737-2.8268875h1.514309c.908586-.0601466 1.635454 1.2029309 1.635454 2.8268875z" fill="#465557"/><path d="m66.9616273 83.5235732-4.867365 13.8461538h15.1885246l-.9969302-13.7874837z" fill="#69797d"/><path d="m66.9616273 83.5235732-4.867365 13.8461538h15.1885246l-.9969302-13.7874837z" fill="#69797d"/><path d="m66.2148099 85.0454472c.2931412.4427392.4690259 1.0119753.6449106 1.5812115.1758847.5059877.5276541 1.0119754.5862824 1.517963.0586282.3794908-.1758847.7589816-.5862824.6324846-.1758847-.0632484-.2931412-.1897453-.4103977-.2529938-.1758847.5692362-.5276541.3794908-.762167 0-.4690259-.7589815-.5862824-1.5812115-1.4070777-1.7077084-.5862824-.0632485-1.231193 0-1.8174754-.0632485-.99668 0-1.99336-.0632485-3.0486683-.0632485 0 0 .3517694-1.3282176.3517694-1.3914661.1758848-.7589815.3517695-1.3282177 1.1139365-1.3282177.9966801 0 1.9347319.0632485 2.9314119.0632485.4690259 0 .99668 0 1.4657059.1897454.4103977.1897454.7035389.5059877.9380518.82223" fill="#efb690"/><path d="m62.0942623 96.9230769.3518577 1.6164481 14.5434521.1701524.2932148-1.7866005z" fill="#465557"/><g fill="#cecece" transform="translate(64.327869 84.416873)"><path d="m1.64581536 10.0010789-.2938956 1.0486568h-1.11680328l.2938956-1.0486568z"/><path d="m10.3451251.44665012h-.99924503v-.23303484h.99924503z"/><path d="m10.4039042 1.3205308h-.99924501v-.46606969h.99924501z"/><path d="m10.4626833 2.13615277h-1.05802411v-.40781099h.99924501z"/><path d="m10.4626833 3.01003344h-1.05802411v-.46606969h1.05802411z"/><path d="m10.5214625 3.94217283h-1.11680331v-.5243284h1.11680331z"/><path d="m10.5802416 4.87431222h-1.11680329v-.5243284h1.05802419z"/><path d="m10.6390207 5.98122775h-1.17558239v-.69910454h1.11680329z"/><path d="m10.6977998 7.14640199h-1.23436149v-.75736326h1.17558239z"/><path d="m10.7565789 8.42809365h-1.23436147l-.05877912-.87388068h1.23436149z"/><path d="m10.7565789 9.65152659h-1.23436147v-.81562196h1.23436147z"/><path d="m10.8741372 11.1079944-1.35191977-.0582587v-.9903981h1.29314067z"/><path d="m8.93442623.44665012h-.82290768l.05877912-.29129355.76412856.05825871z"/><path d="m8.99320535 1.3205308-.8816868-.05825871v-.40781098h.8816868z"/><path d="m8.99320535 2.13615277h-.94046592l.05877912-.4660697.8816868.05825871z"/><path d="m8.99320535 3.01003344h-.94046592v-.46606969h.94046592z"/><path d="m8.99320535 3.94217283h-.99924504l.05877912-.5243284h.94046592z"/><path d="m9.05198447 4.87431222h-1.05802416v-.5243284h1.05802416z"/><path d="m9.05198447 5.98122775h-1.11680328v-.69910454h1.11680328z"/><path d="m9.05198447 7.14640199h-1.1755824l.05877912-.75736326h1.11680328z"/><path d="m9.11076359 8.42809365h-1.29314064l.05877912-.87388068h1.1755824z"/><path d="m9.11076359 9.65152659h-1.29314064v-.81562196h1.29314064z"/><path d="m9.11076359 11.0497357h-1.35191976v-.9903981h1.35191976z"/><path d="m7.40616911 8.83590463v.75736325l-.05877912.40781102v1.0486568h-1.64581536l.11755824-1.0486568v-.40781102l.11755824-.75736325z"/><path d="m7.46494823 7.55421297-.05877912.87388068h-1.41069888l.05877912-.87388068z"/><path d="m7.52372735 6.38903873-.05877912.75736326h-1.35191976l.05877912-.75736326z"/><path d="m7.52372735 5.28212321v.69910454h-1.29314064l.05877912-.75736326z"/><path d="m7.58250647 4.34998382v.5243284l-1.23436152-.05825871.05877912-.5243284z"/><path d="m7.64128559 3.41784443-.05877912.5243284-1.1755824-.05825871.05877912-.46606969z"/><path d="m7.64128559 2.54396375v.46606969h-1.11680328l.05877912-.46606969z"/><path d="m7.70006471 1.67008307-.05877912.4660697h-1.05802416l.05877912-.4660697z"/><path d="m7.70006471.85446111v.40781098h-.99924504l.05877912-.40781098z"/><path d="m7.75884383.15535657-.05877912.29129355v.40781099h-.94046592v-.40781099l.05877912-.29129355z"/><path d="m6.40692407.15535657v.29129355h-.76412856c0-.05825871.05877912-.17477613.05877912-.29129355z"/><path d="m6.34814495.85446111-.05877912.40781098h-.82290768c0-.11651742.05877912-.29129356.05877912-.40781098z"/><path d="m6.23058671 1.67008307-.05877912.40781099h-.8816868c0-.11651743.05877912-.29129356.05877912-.40781099z"/><path d="m6.17180759 2.54396375-.05877912.46606969h-.99924504c0-.17477613.05877912-.29129355.11755824-.46606969z"/><path d="m5.99547023 4.29172511-.05877912.5243284h-1.11680328c.05877912-.17477613.05877912-.34955227.11755824-.5243284z"/><path d="m5.87791199 5.22386449-.05877912.69910455h-1.23436152c.05877912-.23303485.05877912-.4660697.11755824-.69910455z"/><path d="m5.76035375 6.38903873-.05877912.75736326h-1.29314064c.05877912-.23303485.11755824-.52432841.11755824-.75736326z"/><path d="m5.64279551 7.55421297-.11755824.87388068h-1.41069887c.05877912-.29129356.11755824-.58258712.17633735-.87388068z"/><path d="m5.23134167.15535657c0 .11651742-.05877912.17477613-.05877912.29129355h-.64657032l.05877912-.29129355z"/><path d="m5.11378343.85446111c0 .11651742-.05877912.29129356-.05877912.40781098h-.70534944l.11755824-.40781098z"/><path d="m4.93744607 1.67008307c0 .11651743-.05877912.29129356-.05877912.40781099h-.76412855l.11755824-.40781099z"/><path d="m4.76110871 2.54396375c-.05877912.17477614-.05877912.34955227-.11755824.46606969h-.82290767l.11755824-.46606969z"/><path d="m4.64355047 3.41784443c-.05877912.17477613-.05877912.34955227-.11755824.46606969h-.88168679l.11755824-.46606969z"/><path d="m4.46721311 4.29172511c-.05877912.17477613-.05877912.34955227-.11755824.5243284h-.94046591l.11755824-.5243284z"/><path d="m4.29087575 5.22386449c-.05877911.23303485-.11755823.4660697-.11755823.69910455h-1.05802416l.17633736-.69910455z"/><path d="m4.05575928 6.38903873c-.05877912.29129356-.11755824.52432841-.11755824.75736326h-1.11680328l.17633736-.75736326z"/><path d="m3.87942192 7.55421297c-.05877912.29129356-.11755824.58258712-.17633736.87388068h-1.23436152l.23511648-.87388068z"/><path d="m3.64430544 8.83590463c-.05877912.29129356-.11755824.5243284-.17633736.75736325h-1.29314064l.17633736-.75736325z"/><path d="m5.52523727 8.83590463-.05877912.75736325-.05877912.40781102-.11755824 1.0486568h-1.64581535-.41145384-1.41069888l.2938956-1.0486568h1.35191976.41145384c0-.11651746.05877912-.29129359.05877912-.40781102.05877912-.23303485.11755824-.5243284.11755824-.75736325z"/><path d="m4.17331752.15535657-.05877912.29129355h-.64657032l.11755824-.29129355z"/><path d="m3.99698016.85446111-.11755824.40781098h-.64657032l.11755824-.40781098z"/><path d="m3.76186368 1.67008307-.05877912.40781099h-.70534944l.11755824-.40781099z"/><path d="m3.58552632 2.48570504-.11755824.5243284-.11755824.40781099-.11755824.46606969-.11755824.40781099-.11755824.5243284-.11755824.40781098-.17633736.69910455-.11755824.40781098-.23511648.81562197h-.94046592l.23511648-.81562197.11755824-.40781098.23511648-.69910455.11755824-.40781098.17633736-.5243284.11755824-.40781099.17633736-.46606969.11755824-.40781099.11755824-.5243284z"/><path d="m2.29238568 7.55421297-.23511648.87388068h-.99924504l.23511648-.87388068z"/><path d="m1.93971096 8.83590463-.17633736.75736325h-1.11680328l.23511648-.75736325z"/><path d="m6.05424935 3.41784443-.05877912.46606969h-1.05802416c0-.17477613.05877912-.34955227.05877912-.46606969z"/></g><g transform="translate(8.934426 29.478908)"><path d="m46.7796495 41.6293451c.0593159-.1794368.6524748-.4784982.7711066-.5981227.4745271-.3588737.8897384-.9569965 1.4828973-1.1364333 1.2456337-.418686 1.067686-.3588737 2.2540039-.5981228.3558953-.0598123 2.0760562-.4186859 2.4912674-.2990614.1186318 0 .1186318.1196246.1779477.1794369.5931589 1.3756823-.8304225.8971841-1.660845 1.4354946-.2965794.2392491-1.0083701-.1794368-1.3049496.0598123 1.127002-.1196246 2.194688-.2990614 3.3216899-.418686.6524749-.0598122 4.2114284-.5383105 4.2707442.2392492.0593159.4186859-.533843.5383105-.7711065.5981227-1.2456338.3588737-2.9064787.5981228-4.1521125.7775596 1.0676861-.1196245 1.7201609-.2990613 1.7794768.4784983 0 .2392491-.3558954.7775596-1.0676861.7177473.6524748.0598123.5338431.4784982.5338431.8971842 0 .5383104-.5338431 1.0168087-.7117907.657935.533843.8971842-.0593159 1.9139929-1.4235814 1.9139929-.6524748 0-1.3642655.2392491-2.0167404.2392491-.8304224 0-1.4235814 0-2.2540038.0598123-1.127002.0598122-1.8387927-.2990614-2.9064787-.5383105z" fill="#fac39d"/><path d="m13.5034343 15.311943c1.2456337 1.3158701 2.3726357 2.3924911 3.3216899 3.3494876 3.4996376 3.3494875 4.8639031 4.0074226 4.8639031 4.0074226.0593159.1794368-1.7201608 2.9906138-.6524748 6.9980364-4.0334806-3.887798-6.6433798-8.9120293-7.5331182-14.3549466" fill="#efb690"/><path d="m53.7196088 55.3263567c-.1779476 0-.3558953.1196245-.533843.1196245-.1779477.0598123-.4152112 0-.533843.0598123.1779477-.0598123.3558953 0 .4745271.0598123.3558954.1196245.7117907.0598123 1.127002.1196245.3558953.0598123 1.601529.4784983 1.2456337 1.076621-.3558954.5383105-1.127002.3588737-1.5422132.2990614-.7711066-.1196245-1.6015291.2990614-2.3133198.5383105-1.9574244.5981228-3.8555329-.1794368-5.6943256-.657935l1.3642655-2.5121157 6.2874845-1.734556c.593159.1794368 1.1863179.4186859 1.7794768.5981227.8304225.2990614 1.5422132.5981228 2.3133198 1.1364333.2965794.2392491.4152112.5383105.533843.8971842.1779477.4186859.4152112.8373719.5931589 1.2560578.1779477.2990614.8304225 1.1962455.4152113 1.6149315-.2372636.2392491-.7117907-.1196246-.8304225-.2990614-.4152113-.5981228-.7711066-1.6747438-1.3642655-2.0336174-.8304225-.5383105-2.2540039-.6579351-3.32169-.5383105" fill="#efb690"/><path d="m20.8586049 29.0089546 1.2456337.657935c1.4828973.7775596 2.6692151 2.0934297 3.262374 3.648549l6.4654322 16.8670622 17.498188 3.1700507-.7711065 4.8447945-17.3202404-.2392491c-1.660845-.1794369-3.0844264-1.1364333-3.9148488-2.6317402l-5.7536415-6.7587874z" fill="#d0d0d0"/><path d="m24.7141378 18.2427446c.3558954 0 .533843.418686.4745272.7775596-.0593159.3588737-.2372636.6579351-.2372636 1.0168088 0 .3588736.1779477.7177473.1779477 1.076621.0593159.7775596-.5338431 1.4953069-1.2456338 1.7943683s-1.5422131.2990614-2.3133197.2392491c-2.9657946-.2392491-5.9909051-1.0168087-8.1855931-2.9906139-2.0167403-1.7943683-3.0844263-4.3662962-4.03348061-6.8784119-.59315892-1.5551192-1.12700194-3.1700507-1.06768605-4.84479447 0-.47849822.05931589-.95699644.17794768-1.43549466 1.00837015-4.30648398 5.27911438-5.8616032 9.19396318-5.44291726 3.7962171.41868595 6.9399593 3.94761032 6.9992752 7.77559608 0 .47849822-.1186318.89718411-.0593159 1.37568241.0593159.9569964.8304225 1.6747437 1.4235814 2.3924911.4152113.4784982 1.5422132 1.734556.8897384 2.3326788-.3558953.2990614-.8897384.2392491-1.1863178.657935-.2372636.418686-.2965795.9569965-.1779477 1.4354947 0 .0598123.0593159.1794368 0 .2392491 0 .1794368-.6524748.4784982-.8304225.4784982" fill="#fac39d"/><path d="m8.93611065 27.9921459c.47452713-.4784983.88973837-.9569965 1.36426555-1.4354947.8897383-1.076621 1.601529-2.2130543 2.0760562-3.5289244.8897383-2.4523033 1.2456337-5.2036681 1.1270019-7.8354083 0 0 .0593159.0598123.0593159.0598123.8897384 5.4429172 3.4996376 10.5269608 7.4738023 14.3549466.0593159.1794368.1186318.3588736.1186318.5383105 1.3642655 2.3924911 2.5505834 4.2466717.8304225 5.3232926-1.3642655.8971842-6.4061163-1.0168087-8.3635407-1.7943683-.4745271-.1794368-.7711066-.2990614-.7711066-.2990614-.3558954-.1794368-.7711066-1.5551192-.9490543-1.9139928-.2965794-.5383105-.533843-1.1364333-1.0083701-1.5551193-.3558954-.2990613-.6524748-.4186859-1.06768608-.4784982-.41521124-.0598123-1.30494961.0598123-1.66084496-.1196245-.59315892-.418686.35589535-.8971842.77110659-1.3158701" fill="#fac39d"/><path d="m22.5787657 32.8967526s-2.3726356 2.3326788-8.6008043.1196246c.4745272 12.7400151 1.2456338 18.6016183 1.2456338 18.6016183l7.4144864 2.5719279 2.6098992-8.2540943z" fill="#dadada"/><path d="m26.8495099 46.8928255c0 .8373719-5.8129574 14.9530694-7.4144864 18.8408675-.1186318.2990613-.1779477.4784982-.2965795.657935-.1186318.2392491.8304225.7177473.8304225.7177473s-2.8471628 1.5551193-2.8471628 1.5551193c-.4745271-.0598123-4.8639031-2.4523034-17.0236609-3.8279858h-.0593159c.0593159-.1794368.11863179-.3588737.17794768-.5981228.17794767-.5981228.29657946-1.3158701.41521124-2.153242 1.4235814-8.4335311 1.18631783-25.1809688 1.18631783-25.1809688l1.66084497-1.734556 9.66849038-.5981228s6.8806434 9.8690258 9.5498585 10.7662099c-.0593159 0 0-1.1364332 0-1.2560578 0-.4784982 0-.8971842 0-1.3756824 0-.8971841 0-1.8541806-.0593159-2.7513647-.0593159-1.6747438-.1779477-3.4092999-.3558953-5.0840436-.1186318-.8373719-.2372636-1.6747438-.4152113-2.4523034-.0593159-.3588737-.1186318-.7775596-.2372635-1.1962456-.0593159-.2392491-.1779477-.4186859-.2965795-.5981227-.0593159-.1794369-.1779477-.3588737-.2372636-.5383105.0593159 0 .0593159 0 .0593159.0598123.1186318.1196245.2372636.2392491.3558954.4186859s.2372635.3588737.2965794.5981228c.1779477.4784982.3558954.9569964.5338431 1.4354946.2965794.8373719.5931589 1.6747438.8897383 2.4523034.5338431 1.6747438 1.0083702 3.3494875 1.5422132 5.0242313.4745271 1.495307.9490543 2.9906139 1.4235814 4.5457331.2965795.6579351.6524748 1.5551192.6524748 2.2728665" fill="#da9b00"/><path d="m19.4350235 65.733693c-.1186318.2990613-.1779477.4784982-.2965795.657935l-18.98108531-2.0934297c.17794767-.5981228.29657946-1.3158701.41521124-2.153242 3.5589535.5981228 15.18486827 3.0504262 18.86245357 3.5887367" fill="#2f2722"/><path d="m23.8243994 4.36629626c-1.1270019-1.91399288-2.0760562-2.33267883-3.6182693-3.05042616-2.9064787-1.37568238-6.4654322-1.3158701-9.1346474.5383105-.5931589.41868594-1.18631778 1.13643327-1.89810848 1.25605783-.59315892.11962455-1.24563373-.17943683-1.83879265-.05981228-1.42358139.23924911-2.7878469 1.076621-3.55895349 2.33267882-.88973838 1.37568239-1.30494962 4.60554537-.11863179 5.92141543.11863179.1196246.29657946.2392492.47452714.3588737.47452713.2990614 1.06768605.6579351 1.60152907.4784982.05931589 0 .17794768-.0598122.23726357-.0598122.17794767 0 .29657946.2392491.35589535.4186859.77110659 2.153242 2.96579458 4.5457331 4.68595548 5.9812277.3558953.2990614 1.8981085 1.7345561 2.3726356 1.6149315.2372636-1.3158701.4745272-2.5719279.7117907-3.887798-.6524748-.7775596-1.3049496-1.6747438-1.4828973-2.6915525-.1779476-1.0168087.3558954-2.2130543 1.3642655-2.4523034.7117907-.1794368 1.4828973.2392491 1.8981086.7775596.1186318.1794369.2965794.3588737.3558953.5383105-.0593159-.0598122 7.9483295-3.52892433 7.5924341-8.01484514z" fill="#202c2b"/><path d="m3.18246916 29.4874528c2.19468799-2.3924911 5.87227327-1.0168087 7.41448644.1794368 2.0167403 1.6149315 3.5589535 4.3662963 5.457062 6.1008523 2.3133198 2.0336175 4.8639032 3.7681735 6.9399594 6.0410401.8304224.8971841 1.4828973 1.7943683 2.4319515 2.5719279 1.4235814 1.1364333 2.6098993.4784982 4.389376.1794368 4.5673237-.8971841 16.7270814-2.8709893 16.9050291-2.9308016l1.2456337 5.383105c-.2965794.1196246-.5931589.1794368-.8304224.2990614-2.0760562.8373719-4.0927966 1.6747438-6.1688528 2.5121156-3.4996376 1.4354947-7.0585911 2.0934298-10.5582287 3.5887367-1.7201608.7177473-4.0334806 1.9738052-5.9315891 1.7943683-1.4235814-.1196245-2.6692152-1.3756824-3.9148489-2.0934297-2.2540039-1.2560578-4.5080078-2.5121156-6.8213275-3.7681735-1.0676861-.5981228-2.194688-1.1962455-3.2623741-1.7943683-.71179067-.4186859-2.43195153-1.8541806-3.26237401-1.7943683-.17794767 0-.35589535 0-.41521124-.0598123-5.87227327-4.2466717-6.52474808-13.0988888-3.61826939-16.2091272" fill="#e7e7e7"/></g><path d="m52.7689549 168.503021.3908812-60.800674-5.8632172-.059667-.3908812 60.860341c0 .895005 1.3029372 1.670676 2.9316086 1.670676 1.6286715 0 2.9316086-.775671 2.9316086-1.670676z" fill="#a8aab3"/><path d="m122.904201 168.503021.390881-60.800674-5.863217-.059667-.390881 60.860341c0 .895005 1.302937 1.670676 2.931608 1.670676 1.563525 0 2.866462-.775671 2.931609-1.670676z" fill="#a8aab3"/><path d="m39.3114754 101.389578v3.639645c0 1.75707 1.3112312 3.137625 2.9800709 3.200377l86.0048467.75303c1.66884 0 2.980071-1.380555 3.039673-3.137625v-3.639644z" fill="#d5dbd9"/><path d="m141.932455 46.4503478c-3.741562.117648-2.494375-8.0000645-1.70071-11.9412728.793665-3.7647362 3.174658-11.2942087 3.40142-12.1177448 0-.058824.05669-.058824.05669-.058824l3.968323.176472c.05669 0 .05669 0 .05669.058824.056691.8823601 1.417259 7.7647685-.170071 18.1766172-.11338 1.1764801-1.7574 5.5882804-5.612342 5.7059284z" fill="#815245"/></g></g></svg>