<svg height="177" viewBox="0 0 199 177" width="199" xmlns="http://www.w3.org/2000/svg"><g fill="none" fill-rule="nonzero"><g transform="translate(146.631579 4.933798)"><path d="m4.99040248 19.1184669 4.43591331-3.9470383 3.45015481-5.24216031c-.8009288-.37003484-1.7866873-.24668989-2.4643963.43170731l-1.7866873 1.7268293h-.06160991l-1.66346749-.9867596s0 0-.06160991-.0616725l-2.5876161-9.99094074c-.06160991-.30836237-.30804953-.49337979-.61609907-.55505227-.55448916-.12334495-1.04736842.37003484-.92414861.92508711l1.10897833 4.87212543-.49287926-1.11010453c-.24643962-.55505226-.98575851-.74006968-1.41702786-.30836236-.24643963.24668989-.36965944.61672473-.24643963.9250871l.30804954.92508711v.06167248l-.30804954.24668989c-.49287925.37003484-.67770898 1.04843206-.43126935 1.6651568l.18482972.49337979c-.55448916.30836237-.8625387 1.04843209-.61609907 1.66515679l.18482972.4933798c-.67770897 2.1585366-.43126935 4.5020906.55448917 6.4756097l.30804953.6167248s.06160991.0616725.06160991.0616725l3.08049536.4933798z" fill="#815245"/><path d="m6.83869969 1.54181185c-.06160991 0-.06160991 0-.12321981 0h-.06160991c-.49287926-.06167248-.92414861.24668989-1.17058824.86341463l-3.69659442 10.17595822c-.30804954.8634146 0 1.9735191.67770897 2.4668989l3.01888545 2.2202091c.61609907.4317073 1.17058824.3700348 1.35541796.3083624.06160991 0 .06160991-.0616725.06160991-.0616725v-1.2334495l3.6349845-9.92926829c.3080496-.86341464 0-1.97351917-.67770896-2.46689896l-2.40278638-1.78850174v-.49337979.06167247z" fill="#000"/><path d="m8.07089783 1.78850174 3.01888547 2.22020906c.677709.49337979 1.0473684 1.60348432.677709 2.46689896l-3.69659447 10.17595814c-.30804953.8634147-1.10897833 1.1101046-1.84829721.6167248l-3.01888545-2.2202091c-.67770898-.4933798-1.04736842-1.6034843-.67770898-2.4668989l3.69659443-10.17595822c.36965944-.86341463 1.17058823-1.11010453 1.84829721-.61672474z" fill="#3d3d3b"/><path d="m3.14210526 12.7045296 4.68235294 3.4536586c.06160991 0 .12321982 0 .12321982-.0616725l3.45015478-9.62090594c0-.06167248 0-.06167248 0-.06167248l-4.55913311-3.33031359c-.06160991 0-.12321981 0-.12321981.06167248l-3.57337462 9.49756093z" fill="#fff"/><path d="m3.88142415 6.47560976.43126935 1.23344947c.30804953.80174216.06160991 1.72682927-.61609907 2.28188154l.24643963.61672473c.12321981.3083624.0616099.6167247-.18482973.8634146-.36965944.3700349-.9241486.2466899-1.17058823-.1233449l-1.23219814-1.97351917v-.06167248l2.34117647-2.77526132c.12321981-.12334495.18482972-.12334495.18482972-.06167247z" fill="#815245"/></g><path d="m188.957585 168.489199s-2.772446 4.872125-2.402786 5.98223c.246439.616724 2.156347 2.590243 4.990402 2.220209 2.094737-.24669 5.175232-2.836934 5.668112-3.021952 1.232198-.370034-.06161-7.030662-.06161-7.030662z" fill="#55210e"/><path d="m174.232817 31.884669c2.217957 3.2686411.18483 6.0439024-3.142105 8.0174216s-22.487616 8.4491289-23.658204 8.0174216-3.696595-5.5505227-2.649226-6.9689896c1.108978-1.4184669 16.573065-9.4358885 19.59195-10.6076655 2.957276-1.1101045 7.269969-2.2818815 9.857585 1.5418119z" fill="#815245"/><path d="m171.460372 29.6644599c-1.417028-.5550522-4.928793-1.4184669-10.350465 1.295122-3.634984 1.7885017-10.412074 5.4888502-10.412074 5.4888502s0 3.0836236 1.786687 6.1672473c2.033127 3.638676 4.682353 4.933798 4.682353 4.933798s14.416718-7.277352 16.265016-9.9909408c.554489-.8634146 1.909907-6.3522648-1.971517-7.8940767z" fill="#ed6b06"/><path d="m181.194737 14.8630662s.246439 11.3477352.924148 11.9027875c2.033127 1.7268292 9.426316 3.3303135 10.781734 6.3522648 1.601858 3.6386759-7.947678 19.6735191-9.303096 25.0390244-1.293808 5.3655052 1.047369 13.6912892 1.725078 18.9951219.677709 5.3038328-15.956966 11.3477352-16.573065 11.2865308-.616099 0-5.852942-5.1192834-6.77709-6.8461127-.985759-1.7268292.308049-15.1714285.369659-18.6250871.06161-3.4536585-.492879-15.4797909-.616099-16.2815331-.924148-5.3038327.492879-9.4358885.739319-10.545993s.18483-2.9602788.800929-3.7003484c1.108978-1.4184669 7.331579-3.1452962 7.454799-3.8236934.123219-.6783972 1.170588-10.5459931 1.170588-10.5459931z" fill="#815245"/><path d="m182.118885 26.7658537-10.104024 5.73554-1.355418-3.8853658s-6.59226 1.9118467-7.454799 3.3303136-1.355418 4.9954703-1.663468 6.1055749c-.308049 1.1101045-.554489 6.4139373-.184829 10.9777003.184829 2.6519164.06161 6.2289199.369659 10.7310105.24644 3.8853658-.369659 13.5679442-.369659 13.5679442s3.696594.2466899 9.487925.0616725c6.65387-.1850174 13.43096-1.1101045 13.73901-1.2951219 1.293808-1.0484321-.24644-11.4094077 0-12.5195122.246439-1.1101046 8.810216-20.7836237 8.995046-23.3738676s-1.108978-4.3170732-3.080495-5.3655053c-1.971517-1.048432-8.378948-4.0703832-8.378948-4.0703832z" fill="#f08100"/><path d="m189.573684 30.4045296s6.407431 3.7003484-.12322 8.5724739c-2.834055 2.0968641-16.203405 5.1804878-18.729411 5.858885-8.995047 2.5285714 4.374303 22.6954704 5.421671 24.1756098 1.047369 1.5418118.985759 3.5770034.985759 3.5770034l8.625387-.8017421c2.649226.5550522-1.170588-12.3344948-.06161-15.0480836 1.047368-2.7752614 7.886068-18.4400697 7.886068-20.5369338.06161-4.6254356-4.004644-5.7972126-4.004644-5.7972126z" fill="#f08100"/><path d="m171.337152 22.3254355 10.165634-3.391986.12322 5.9822299-3.142105 1.7885018z" fill="#744135"/><path d="m169.612074 3.14529617c2.649226-2.15853659 10.227245-3.82369338 13.61579 1.29512195 3.326935 5.11881533 1.478638 9.86759578-.677709 12.76620208-1.663468 2.2202091-3.265325 3.4536585-6.284211 4.6254355-.616099.2466899-6.16099.8634147-7.208359.4317074-.739319-.3083624-.985758-5.7972126-1.170588-5.7972126-.24644 0-.800929-.3700348-.800929-.8017421 0-.6783973.924149-4.5020906.800929-4.9337979-.24644-.5550523-1.355418-5.11881538 1.725077-7.58571433z" fill="#815245"/><path d="m167.948607 5.48885017s4.312693-2.09686411 9.241486 2.96027875c1.047368 1.11010453-1.293808 5.30383278-1.047369 5.67386758.24644.4317073 4.312694-2.8986063 4.127864-2.4668989-1.786687 4.9337979-.308049 7.7707317.12322 7.8324041 1.355418.1850175 6.099381-6.6606271 4.312694-12.51951215-1.786688-5.85888502-7.886069-6.78397213-9.364706-6.59895471-1.540248.30836237-5.976161.37003485-7.393189 5.11881533z" fill="#36180e"/><path d="m177.744582 12.6428571c-.616099 1.5418119-.924149 3.7003485-.12322 4.0087108.862539.3083624 2.033127-.7400696 2.587616-2.2818815.616099-1.5418118.36966-3.0836237-.492879-3.3919861-.800929-.3083623-1.417028.123345-1.971517 1.6651568z" fill="#815245"/><path d="m167.371888 168.445359 6.469265.000142.000027 1.233492-6.469265-.000143z" fill="#1a1a1a" transform="matrix(-.99976567 -.02164744 .02164744 -.99976567 337.513325 341.77793)"/><path d="m173.801548 160.04007c.800929 1.171777 1.355418 3.515331 1.417028 4.563763.06161 1.295122-.739319 3.947038-1.601858 3.947038-2.464396-.061672-5.360062 0-7.886068.24669-2.526006.308362-3.511765 1.726829-9.919195 1.541812-1.848297-.061673-5.175232-.24669-5.175232-.98676.06161-3.330313 6.222601-2.035191 8.194118-3.762021 5.052012-4.440418 8.378947-5.48885 8.378947-5.48885s6.40743-.308362 6.59226-.061672z" fill="#55210e"/><path d="m173.431889 73.0818815s8.378947 8.7574913 8.686996 12.5195122c.30805 3.7620209-3.573374 15.6648083-5.052012 25.0390243s-2.341176 11.286063-2.033127 13.506272c.24644 2.220209 2.587616 11.286063 2.402787 17.329965-.24644 6.96899-.18483 21.338676-.18483 21.338676s-1.909907 1.418467-6.71548 1.295122c-3.080495-.061673-5.729721-2.343554-5.729721-2.343554s-1.170589-35.214983-1.478638-38.915331c-.18483-2.405227-1.786688-18.93345-2.094737-32.4397213-.12322-4.3170732.308049-16.528223.369659-18.3167247z" fill="#3c3c3b"/><path d="m172.50774 30.2195122-.492879 2.343554 5.298452-3.0219512z" fill="#bacfed"/><path d="m172.014861 32.5630662-.739319-2.9602787-1.293808.9867595z" fill="#bacfed"/><path d="m186.00031 71.7867596s3.265325 8.5108014 4.497523 14.1229965c1.232198 5.6738676 2.217956 34.8449479 2.649226 37.5585369.431269 2.775261 1.971517 11.162717 3.080495 19.488501 1.170588 8.325784 1.601858 24.91568 1.601858 24.91568l-10.596904 1.418467s-5.544892-34.968293-6.407431-40.457143c-.862538-5.48885-10.535294-44.5891987-10.535294-44.5891987l-1.047368-12.5195122z" fill="#4a4a49"/><path d="m185.137771 95.5923345c.800929 3.7620209 2.834056 29.1094075 3.018885 30.5895475.18483 1.418466 5.914551 40.39547 6.160991 42.245644l3.511765-.49338s-.43127-16.651568-1.601858-24.915679c-1.170588-8.325784-2.649226-16.713241-3.080495-19.488502-.43127-2.775261-1.417028-31.8846688-2.649226-37.5585364s-4.497523-14.1229965-4.497523-14.1229965l-9.303096.0616724c.06161-.0616724 7.639628 19.9202091 8.440557 23.68223z" fill="#4a4a49"/><path d="m186.246749 71.7867596s-16.326625-.0616725-17.250774-.0616725c-.985758 0-7.393189-.7400697-7.393189-.7400697l-.184829 2.5902439s6.2226.6783972 9.179876.7400697c2.957275.0616725 16.203405-.3700348 16.203405-.3700348z" fill="#3b1b1d"/><path d="m166.962848 74.5003484 3.388545.0616725c.18483 0 .36966-.1850174.36966-.3700348l.06161-2.2202091c0-.1850174-.18483-.3700348-.36966-.3700348l-3.388545-.0616725c-.18483 0-.369659.1850174-.369659.3700348l-.06161 2.2202091c0 .1850174.18483.3700348.369659.3700348z" fill="#732d1d"/><path d="m183.474303 27.4442509-1.848297-2.5285715-9.118266 5.3038328 1.355418 3.2069686z" fill="#e1f2fd"/><path d="m171.275542 29.6027875-2.217957 2.4052264-.308049-2.6519163 1.848297-1.6651568z" fill="#e1f2fd"/><path d="m188.279876 31.2679443c3.758204-1.1717771 5.852941 1.5418118 6.71548 5.1804878.924149 3.6386759 1.909907 26.3958188 1.108978 27.3209059-.739319.9867596-6.34582 1.9118467-7.393188.4933798-1.047369-1.4184669-4.559134-21.0919861-4.743963-24.2372823-.18483-3.0836237-.06161-7.4006968 4.312693-8.7574912z" fill="#815245"/><path d="m185.322601 32.8714286c-.924149 1.171777-2.710836 4.2554007-2.033127 7.030662.985758 3.9470383 2.710836 14.4313589 2.710836 14.4313589s2.957275.8634146 6.40743.1233449c4.066254-.9250871 6.099381-3.0219512 6.099381-3.0219512s-3.018886-15.7264808-4.805573-18.5017422c-1.478638-2.2818815-5.729721-3.2686411-8.378947-.0616724z" fill="#ed6b06"/><path d="m193.763158 58.3421603c4.251083.5550522 2.341176 9.2508711 1.170588 13.4445993s-5.791331 16.0348432-5.791331 16.0348432l-4.620743-.9867596s-.12322-11.5944251 2.464396-23.3121951c.30805-1.171777 2.464396-5.7355401 6.77709-5.1804878z" fill="#815245"/><g fill="#815245" transform="translate(182.365325 83.25784)"><g transform="translate(0 7.400697)"><path d="m5.91455108 5.48885017c-.43126935 0-.80092879-.37003484-.80092879-.86341463l.12321982-3.57700348c0-.43170732.36965944-.80174216.86253869-.80174216.43126935 0 .8009288.37003484.8009288.86341463l-.12321982 3.57700348c0 .49337979-.43126935.86341464-.8625387.80174216z"/><path d="m4.37430341 5.61219512c-.43126935 0-.8009288-.37003484-.8009288-.86341463l.12321982-3.57700349c0-.43170731.36965944-.80174216.8625387-.80174216.43126935 0 .80092879.37003485.80092879.86341464l-.12321981 3.57700348c-.06160991.43170732-.43126935.80174216-.8625387.80174216z"/><path d="m2.83405573 5.61219512c-.43126935 0-.8009288-.37003484-.8009288-.86341463l.12321982-3.57700349c0-.43170731.36965944-.80174216.8625387-.80174216.43126935 0 .80092879.37003485.80092879.86341464l-.12321981 3.57700348c0 .43170732-.43126935.80174216-.8625387.80174216z"/><path d="m1.35541796 5.48885017c-.43126935 0-.8009288-.37003484-.8009288-.86341463l.12321982-3.57700348c0-.43170732.36965944-.80174216.8625387-.80174216.43126935 0 .80092879.37003484.80092879.86341463l-.12321981 3.57700348c0 .43170732-.36965945.80174216-.8625387.80174216z"/></g><path d="m2.83405573.37003484s-2.52600619 5.30383276-2.71083592 6.47560976c-.18482972 1.11010453.55448917 5.5505226.55448917 5.5505226s1.54024768-1.2951219 2.52600619-1.171777c.98575851.1850175 3.57337461.8634147 3.57337461.8634147s1.10897833-3.76202093 1.04736842-5.55052267c-.0616099-1.78850174-.55448916-3.57700348-.55448916-3.57700348z"/></g><g transform="translate(0 70.923345)"><g fill="#334043"><path d="m6.15998812 36.3187169 2.03306979-.0001611-.00112735 14.245764-2.0330698.0001611z" transform="matrix(.99693422 -.07824428 .07824428 .99693422 -3.37705 .69466)"/><path d="m23.7916096 47.2825866 5.42737-.0000464-.0000939 10.9669536-5.42737.0000464z" transform="matrix(.00842647 -.9999645 .9999645 .00842647 -26.482264 78.825715)"/><path d="m15.4785786 61.9003427 21.2160827-.0001813-.0000216 2.526096-21.2160828.0001814z" transform="matrix(.00842647 -.9999645 .9999645 .00842647 -37.294267 88.716739)"/></g><path d="m23.3762662 76.4760356 4.8106234-.0000411-.000086 10.0427721-4.8106234.0000412z" fill="#415559" transform="matrix(.00842647 -.9999645 .9999645 .00842647 -55.93022 106.591285)"/><path d="m7.8244582 37.4968641c.36965945-.3700348.73931889-1.5418118.8009288-2.4668989.67770898-8.5724739.8625387-18.2550523.36965944-29.04773523-.06160991-1.48013938-.36965944-3.26864112-.73931889-3.82369338-2.21795665-3.63867596-4.68235294-1.72682927-7.14674922 2.28188153-.36965944.67839721-.73931889 2.34355401-.80092879 3.63867596-.24643963 9.68257842.12321981 19.24181182.8625387 28.67770032.0616099 1.0484321.36965944 2.343554.67770897 2.7135889 1.6634675 1.9118467 3.69659443.4317073 5.97616099-1.9735192" fill="#465557"/><path d="m5.97616099 48.9062718v2.4052265l39.18390091.3083623v-2.4052265c0-.9867595-.8009288-1.7885017-1.7866873-1.8501742l-35.6105263-.3083623c-.92414861 0-1.7250774.8017421-1.78668731 1.8501742" fill="#465557"/><path d="m46.7619195 88.0682927h2.2179567l-2.1563468-4.810453-17.9900929-2.4052265-.0616099.8634147-1.8482972-.8634147-.6160991 1.1101046-.8009288-.9867596v-.123345h-.1232198l-.3696594-.4317073h3.6349845l.1848297-20.4135888-5.9145511-.0616725-.1848297 20.4135888h1.6634675l-.9241486.6783973-15.95696593 1.8501742-1.41702787 3.0836237c-.55448916.3700348-.9241486.9867596-.98575851 1.7268292 0 1.171777.92414861 2.0968642 2.03312694 2.0968642 1.17058823 0 2.09473684-.9250872 2.09473684-2.0351917 0-.6167247-.24643963-1.1101045-.67770898-1.5418118l.73931889-1.0484321 9.05665632-1.171777c.677709-.1850174 1.4170279-.3700348 2.0947369-.5550523-3.5733746 2.7135889-9.2414861 6.5989547-9.2414861 6.5989547l-.8625387 2.2202091c-1.04736842.3700348-1.84829722 1.3567944-1.84829722 2.5902439 0 1.5418119 1.23219815 2.7752613 2.77244582 2.7752613 1.5402477 0 2.7724458-1.2334494 2.7724458-2.7752613 0-.8634146-.3696594-1.6651568-.9857585-2.1585366l.7393189-1.4801393 12.1987616-8.7574913-.3696594.6783972 14.6015479 6.7839721.4928793.6783972c-.3696594.4933798-.6160991 1.0484321-.6160991 1.6651568 0 1.5418119 1.2321982 2.7752613 2.7724459 2.7752613 1.5402476 0 2.7724458-1.2334494 2.7724458-2.7752613 0-1.4184669-1.1089784-2.6519164-2.4643963-2.7752613l-1.0473684-1.6651568-6.7154799-3.1452962 9.4879257.6783972z" fill="#465557"/></g><path d="m53.6006192 113.600697-1.0473684-.925087c1.0473684-.061673 2.0947368-.308363 3.0804953-.616725.4928793-.185017 1.0473685-.370035 1.5402477-.123345.4312694.24669.5544892.74007.677709 1.23345.7393189 3.021951 6.2842105 29.109407 6.8386997 31.206271.677709 2.775262 2.1563467 5.057143 3.2037151 7.647387 1.0473685 2.466899 2.1563468 5.057143 3.5117648 7.339024.2464396.431708.7393188.801743 1.2321981 1.110105.3696594.24669.677709.431707.9857585.616725-.1848297.24669-.3696594.49338-.6160991.678397-.2464396.185017-.4928792.370035-.8009288.431707l-2.3411764.061673h-.0616099c-1.0473685-.24669-1.7866873-1.048432-2.3411765-1.911847-.5544892-.925087-.7393189-2.035192-1.4170279-2.898606-.8009288-.98676-1.9099071-1.603485-2.8956656-2.343554-.6160991-.49338-1.1705882-.98676-1.8482972-1.356795-.4928793-.24669-1.0473684-.431707-1.5402477-.740069-.8009288-.431708-.5544892-.801742-.4928792-1.603485.0616099-.678397.0616099-1.356794 0-2.158536-.06161-.925087-.3696595-2.343554-.677709-3.206969-.6160991-1.541812-1.2321982-3.021951-2.2795666-4.378746-2.3411765-3.083623-4.3126935-7.154006-4.9904025-10.9777-.3080495-1.665157-.3696594-3.330313-.3696594-5.057143-.0616099-1.665157.1848297-3.638676-.2464396-5.24216-.3080496-1.048432-.9857586-2.096864-1.4170279-3.145296-.3080495-.863415-.677709-1.726829-.9857585-2.590244z" fill="#efb690"/><path d="m58.7142415 152.269338c0-.370035.7393189-1.911847.5544892-2.158537.5544891.678398 1.1705882 1.48014 1.8482972 2.035192 2.0947368 1.665157 3.943034 3.453659 5.7297213 5.427178.677709.740069 1.4786378 1.418467 2.4027864 1.850174.4312694.185017.9241486.308362 1.4170279.370035.1232198 0 .3696594.061672.4928792 0 .1848297-.061673.3696595-.370035.6160991-.370035.1232198 0 .1848297.061672.2464396.123345.4312694.431707 1.1089784.678397 1.6018576 1.048432.6160991.431707 3.2653251 1.850174 2.3411765 2.775261-.3080496.308363-.9241486.24669-1.2938081.24669-.7393189 0-1.4786377-.061672-2.2795665-.123345-1.6018576-.185017-3.2653251-.431707-4.8671827-.801742-1.7866873-.370035-1.2321981-3.391986-2.3411765-4.502091-.616099-.616724-2.8340557-1.726829-3.4501548-.616724-.4928792.863414.2464397 2.590244.3696595 3.453658.0616099.370035.3080495 1.110105.2464396 1.541812h-.8009288c-.3696594-2.343554-.4312693-4.563763-1.8482972-6.660627-.8009288-.925087-1.0473684-2.343554-.9857585-3.638676" fill="#2f2722"/><path d="m57.2356037 111.93554c.1232198.061673.1848297.123345.3080496.185017.3080495.24669.616099.49338.8625387.863415 1.7866873 2.220209 0 5.612195-.8009288 7.955749-.9857586 2.898607-1.7250774 5.920558-2.7724459 8.819164-2.0331269 5.673868-4.1894736 11.347735-6.0377709 17.083275-.8625387 2.713589-.8625387 5.427178-1.293808 8.202439-.4312694 2.590244-.8625387 5.427178-.8625387 8.079094 0 .49338.2464396 1.048432.4928792 1.603485.1848298.370035.3696595.740069.4928793 1.048432-.3080495.123345-.5544892.185017-.8625387.24669-.3080495.061672-.6160991 0-.9241486-.061673l-2.0331269-1.171777s0 0-.0616099-.061672c-.7393189-.801742-.9857586-1.850175-.9857586-2.898607 0-1.110104.4928793-2.158536.3696595-3.206968-.1232198-1.23345-.8009288-2.343554-1.2321982-3.515331-.2464396-.74007-.4928792-1.418467-.8625387-2.096864-.3080495-.49338-.6777089-.925087-.9241486-1.418467-.4312693-.801742-.0616099-.98676.4312694-1.603485.3696594-.555052.7393189-1.110104 1.1089783-1.850174.4312694-.801742.9241486-2.158536 1.1089783-3.083623.3080496-1.665157.5544892-3.268642.3696595-4.933798-.3696595-3.823694.0616099-8.387457 1.5402477-11.96446.616099-1.541812 1.4786377-3.021952 2.3411764-4.502091.7393189-1.295122 2.2179567-2.343554 1.1705883-3.823693-.3696595-.49338-.8625387-.925087-1.1089784-1.48014-.1232198-.185017-.1848297-.431707-.1848297-.616724 0-.370035.2464396-.616725.4312694-.925087.8625387-1.048433 1.9099071-1.911847 2.7724458-2.960279.3080495-.370035.3696594-.616725.8625387-.74007.5544892-.123345 1.1089783.061673 1.6634675-.24669.8009288-.370035 1.4786378-1.233449 2.3411765-1.418467.7393188-.123345 1.6018575.123345 2.2795665.49338" fill="#fac39d"/><path d="m39.5535604 150.419164c.2464396-.308363 1.6018576-1.23345 1.6018576-1.541812.1848297 2.220209 1.4170278 4.070383 2.0331269 6.22892.7393189 2.466899-.4928793 6.907317 2.8340557 7.524042.2464396.061672.4312694.061672.6160991.185017.2464396.185017.3696594.49338.4928792.74007.3696595.925087.677709 1.726829 1.2321982 2.528571.2464396.370035 1.2321981 1.480139.3080495 1.850174-.4928792.185018-1.293808-.308362-1.7250774-.431707-.9241486-.308362-1.8482972-.74007-2.7108359-1.233449-.677709-.370035-1.971517-.863415-2.3411765-1.603485-.9241486-1.788502-.1848297-3.577003.0616099-5.365505.1848298-1.110105-.5544891-3.021951-2.0331269-2.713589-1.7866873.370035-2.0947368 4.255401-2.649226 5.612195-.3080495-.123345-.5544892-.24669-.8625387-.370035.8625387-2.466899 1.9099071-5.118815 1.8482972-7.770731.0616099-1.23345.4928793-2.590244 1.2938081-3.638676" fill="#2f2722"/><path d="m8.99504644 118.102787s.06160991 0 0 0c.06160991.061673 6.09938076.061673 6.28421056.061673 1.1089783 0 25.2600619.49338 25.2600619.49338 1.971517.061672 3.3885449.061672 3.943034.061672-.8009288-2.035191-3.6349845-2.466899-5.6681114-2.466899-9.7343653-.49338-21.1321982-.740069-27.5396285-9.250871-1.90990712-2.466899-2.52600619-5.550522-2.77244582-8.7574911-.8625387 1.6651568-2.15634675 6.9073171-2.27956656 7.7090591-.49287926 3.021951-.55448916 6.907317.73931888 9.744251.43126935 1.048432 1.17058824 1.850174 2.03312694 2.405226" fill="#c08a00"/><path d="m38.7526316 116.190941c-9.7343653-.49338-21.1321982-.74007-27.5396285-9.250871-1.90990712-2.466899-2.5260062-5.550523-2.77244582-8.7574916.18482972-.3700348.30804953-.5550523.43126935-.5550523 0 0 19.77678017 1.9118467 19.77678017 1.9118467l25.7529412 6.3522652 4.8055727 7.030662c-.1232198.123345-.3080495.185017-.4312693.308362-2.7724458 1.973519-5.6681115 3.885366-8.5021672 5.797213-.8625387.555052-1.7250774 1.048432-2.649226 1.541811-.3696594.24669-.677709.555053-1.1089783.431708-.8009288-.24669-1.1705883-2.343554-1.8482972-2.405227 0 0-.0616099 0-.2464397 0-.8009288-1.973519-3.5733746-2.343554-5.6681114-2.405226" fill="#da9b00"/><path d="m53.9086687 84.2445993-13.7390093 21.2770037 95.0640866.801742-19.53034-21.5236934z" fill="#a8aab3"/><path d="m64.9368421 88.5c-.1848297 0-.3696594.1233449-.5544892.1233449-.1848297.0616725-.4312693 0-.5544891.0616725.1848297-.0616725.3696594 0 .4928792.0616725.3696595.1233449.7393189.0616725 1.1705883.1233449.3696594.0616725 1.6634675.4933798 1.293808 1.1101046-.3696594.5550522-1.1705882.3700348-1.6018576.3083623-.8009288-.1233449-1.6634675.3083624-2.4027863.5550523-2.033127.6167247-4.004644-.1850174-5.9145511-.6783972l1.4170278-2.5902439 6.5306502-1.7885018c.6160991.1850175 1.2321981.4317074 1.8482972.6167248.8625387.3083624 1.6018576.6167247 2.4027864 1.171777.3080495.2466899.4312693.5550523.5544891.9250871.1848298.4317073.4312694.8634146.6160991 1.295122.1848297.3083623.8625387 1.2334494.4312694 1.6651567-.2464397.2466899-.7393189-.1233449-.8625387-.3083623-.4312694-.6167248-.8009288-1.7268293-1.4170279-2.0968641-.8625387-.5550523-2.3411765-.6783972-3.4501548-.5550523" fill="#e4bca3"/><path d="m77.1356037 2.34355401h-21.0705882c-4.9287926 0-8.9950465 4.07038327-8.9950465 9.74425089v8.0174216c0 3.0836237 1.1705883 5.7972125 3.0804954 7.7090592.6160991.6167248.8009288 1.6651568.3696594 2.5285714l-5.298452 10.9160279s14.601548-10.8543554 15.5873065-10.8543554h16.3266254c4.9287926 0 8.9950465-4.6254355 8.9950465-10.2993031v-8.0174216c0-5.67386762-4.0662539-9.74425089-8.9950465-9.74425089z" fill="#e2f2fd"/><g fill="#d52e1e" transform="translate(57.297214 6.783972)"><path d="m18.4213622 13.0745645-6.6538699-11.53275265c-.4312694-.80174216-1.2321982-1.29512195-2.15634679-1.29512195-.8625387 0-1.60185758.43170731-2.09473684 1.171777l-.06160991.06167247v.06167248l-6.65386997 11.53275265c-.43126935.7400696-.49287925 1.7268292 0 2.5285714.43126935.7400697 1.17058824 1.171777 2.03312694 1.2334495h.0616099.06160991 13.24613006.0616099.0616099c.8625387-.0616725 1.6018576-.4933798 2.0331269-1.2334495.5544892-.8634146.5544892-1.7885018.0616099-2.5285714zm-1.2321981 1.7885017c-.1848297.3083624-.4928793.4933798-.8625387.4933798h-.0616099-13.30773996-.06160991c-.36965944 0-.67770897-.1850174-.8625387-.4933798-.18482972-.3700348-.18482972-.7400697 0-1.0484321l6.65386997-11.59442504.06160991-.06167247c.18482972-.30836237.49287926-.4933798.8625387-.4933798s.73931889.2466899.92414859.55505227l6.65387 11.59442504c.1848297.2466899.2464396.6783973 0 1.0484321z"/><path d="m8.810217 11.779443h1.601858v1.541812h-1.601858z"/><path d="m8.81021672 7.52404181.43126935 3.63867599h.73931888l.43126935-3.63867599v-1.97351916h-1.60185758z"/></g><path d="m100.054489 82.0860627-.1232197 1.6034843s-1.1089783 3.4536586-3.3885448 5.1188154c-.5544892.3700348-2.649226.7400697-3.4501548.7400697 0 0-.9241486.1233449-1.2321982.8634146-.3080495.7400697 3.8814242 3.6386759 7.331579 3.8236934 3.4501545.1850174 7.8860685-3.4536586 7.8860685-3.4536586s.369659-4.7487805-1.232199-7.4623693z" fill="#69797d"/><path d="m106.09226 83.8745645-4.374303-2.1585366-1.663468.1233449-.0616097 1.3567944s6.7154797 2.5902439 6.7154797 2.5285715c-.246439-1.0484321-.616099-1.8501742-.616099-1.8501742z" fill="#465557"/><path d="m115.518576 48.8445993-24.3975234.8017422c-.5544891 0-1.0473684 1.048432-1.0473684 2.2818815l-.1232198 24.7923345c0 1.2334495.4312693 2.4052265.9857585 2.5902439l24.3359131 7.4623693c.924149.3083624 1.725078-.8017421 1.725078-2.4052264l.184829-32.5630663c.06161-1.7268292-.677709-3.0219512-1.663467-2.9602787" fill="#69797d"/><path d="m90.6281734 77.5839721 25.3832816 7.2773519.18483-33.9815331-25.4448918.3083624z" fill="#d52e1e"/><g fill="#fff" transform="translate(97.959752 56.121951)"><path d="m7.08513932 14.4313589c0-.0616725-.06160991-.1850174-.06160991-.2466899-.12321981-.2466899-.24643963-.5550523-.36965944-.8017422-.12321982-.2466899-.12321982-.4933798-.18482972-.7400697 0-.3700348-.06160991-.7400696-.12321982-1.1101045 0-.1850174-.0616099-.1850174-.18482972-.1850174-.06160991.0616725-.06160991.0616725-.12321981.1233449-.12321982.1850175-.18482972.4317074-.30804954.6783973-.0616099.1850174-.12321981.3700348-.18482972.5550522-.12321981.3083624-.30804953.4933798-.49287926.6783972-.55448916.4317073-2.46439628 1.9735192-2.89566563 2.2818816-.18482972.1850174-.43126935.3083623-.67770898.1850174-.18482972-.0616725-.36965944-.123345-.55448916-.1850174-.06160991 0-.18482972 0-.24643963 0-.06160991.0616724-.12321982.1850174-.06160991.3083623 0 .0616725.06160991.123345.06160991.1850175.12321981.3083623.24643963.6167247.43126935.9867595 0 .0616725.06160991.123345.06160991.1850175v.4933797c0 .3083624.0616099.6167248.0616099.8634147 0 .1850174.06160991.2466899.18482972.1233449.06160991-.0616724.12321982-.1233449.12321982-.2466899.18482972-.4317073.30804953-.8634146.49287925-1.2334494 0-.0616725.06160991-.123345.06160991-.123345.49287926-.4317073 2.89566564-2.2818815 3.51176471-2.7135888.12321981-.123345.24643963-.0616725.43126935 0 .12321981.0616724.30804953.1233449.43126935.1850174.12321981.0616725.30804953 0 .43126935-.0616725.18482972.0616725.24643963-.0616725.18482972-.1850174z"/><path d="m.73931889 13.3829268c0-.0616724.0616099-.1233449.0616099-.1850174.12321982-.1850174.18482972-.4317073.30804954-.6167247.06160991-.1850175.12321981-.4317073.12321981-.6783972 0-.3700349.06160991-.6783973.12321982-.9867596 0-.1850174.0616099-.1850174.12321981-.123345.06160991.0616725.06160991.123345.12321982.1850174.12321981.1850175.18482972.4317074.24643962.7400697.06160991.1850175.12321982.4317074.18482972.6167248.12321982.3700348.24643963.5550522.43126935.8017421.49287926.6167248 2.46439629 2.7752614 2.89566564 3.2686411.24643963.2466899.49287926.4933798.73931888.4933798.18482973 0 .36965945 0 .55448917.0616725.12321981 0 .18482972.0616725.30804953.123345.12321982.0616724.12321982.2466899.06160991.3700348 0 .0616725-.06160991.123345-.06160991.1850174-.12321981.3083624-.30804953.5550523-.43126935.8634147 0 .0616724-.0616099.1233449-.0616099.1850174 0 .1850174 0 .3083624-.06160991.4933798 0 .3083623-.06160991.6167247-.06160991.9250871 0 .1850174-.12321981.2466899-.18482972.0616725-.06160991-.123345-.12321981-.1850175-.18482972-.3083624-.18482972-.4933798-.30804953-.9867596-.49287926-1.4801394 0-.0616725-.0616099-.1233449-.0616099-.1850174-.49287926-.6167247-2.89566564-3.3303136-3.4501548-4.0087108-.12321982-.123345-.24643963-.1850174-.36965944-.123345-.12321982 0-.24643963 0-.36965945.0616725-.12321981 0-.24643963-.0616725-.36965944-.1850174-.12321981-.3083624-.12321981-.4317073-.12321981-.5550523z"/><path d="m6.9003096 4.2554007c-.06160991-1.11010453-.30804954-2.09686411-.73931889-2.8369338-.36965944-.61672474-.73931888-.92508711-1.17058823-1.11010453-.36965945-.18501742-.73931889-.30836237-1.10897833-.30836237-.36965944 0-.73931889.06167247-1.10897833.2466899-.43126935.18501742-.80092879.49337979-1.10897833.98675958-.43126935.67839721-.67770898 1.54181184-.67770898 2.65191637-.0616099 1.11010453.06160991 2.15853659.36965945 3.14529617 0 .06167247 0 .06167247.0616099.12334495l.24643963.74006969c-.0616099.43170731-.0616099.80174216-.0616099 1.23344947.0616099.55505227.12321981 1.04843207.43126934 1.23344947 0 0 .06160991.0616725.06160991.0616725.12321982.0616725.18482972.1850174.30804954.2466899.24643963.2466899.43126935.6167247.49287925 1.1101045 0 .123345 0 .3083624.06160991.4317073 0 .0616725 0 .123345.06160991.123345.12321981.0616724.24643963.1850174.43126935.1850174s.36965944.0616725.55448916.0616725c.18482972.0616724.36965945.0616724.55448917.0616724.12321981 0 .30804953-.0616724.43126935-.0616724 0 0 0-.0616725.0616099-.123345 0-.1233449 0-.3083623.06160991-.4317073.06160991-.4933798.30804954-.8017422.55448917-.9867596.12321981-.0616725.18482972-.1233449.30804953-.1850174 0 0 .06160991-.0616725.06160991-.0616725.30804953-.1233449.43126935-.6167247.49287925-1.23344945 0-.43170732 0-.86341463-.0616099-1.29512195l.24643963-.67839721c0-.06167248.0616099-.06167248.0616099-.12334495 0-.92508711.18482972-2.03519164.12321982-3.20696864zm-4.06625387 4.87212543c-.12321982.2466899-.30804954.30836237-.43126935.12334495-.18482972-.12334495-.30804954-.37003484-.36965945-.67839721-.0616099-.30836237-.18482972-.67839721-.18482972-1.04843206-.0616099-.43170732.06160991-.80174216.30804954-.92508711.12321981-.06167247.30804953-.12334494.43126935-.12334494h.12321981c.12321982 0 .24643963 0 .36965945-.06167248.24643962 0 .30804953.37003485.36965944.74006969 0 .24668989 0 .49337979-.06160991.74006969-.18482972.43170731-.36965944.86341463-.55448916 1.23344947zm.9241486 1.85017417v.123345c-.0616099.1233449-.12321981.2466899-.18482972.3700348 0 .0616725-.0616099.0616725-.0616099.0616725-.06160991.0616725-.12321982 0-.18482973-.1233449-.0616099-.123345-.0616099-.2466899-.0616099-.3700349 0-.4317073 0-.9250871.12321981-1.29512193.06160991-.30836237.18482972-.55505226.30804954-.80174216 0-.06167247.0616099-.06167247.0616099-.12334495v.30836237zm.61609908.3700349c0 .1233449-.06160991.2466899-.12321982.3083624h-.06160991c-.12321981-.123345-.18482972-.3083624-.30804953-.5550523v-.0616725c0-.6783972 0-1.3567944 0-2.03519162 0-.06167247 0-.06167247 0-.12334494.06160991.06167247.06160991.06167247.06160991.12334494.12321981.30836237.24643962.67839722.36965944 1.04843202 0 .0616725.06160991.1850175.06160991.3083624zm1.54024767-3.39198607c-.0616099.37003484-.18482972.80174216-.24643962 1.11010453-.12321982.37003484-.30804954.55505226-.55448917.49337979-.12321981 0-.18482972-.06167247-.24643963-.2466899-.24643963-.49337979-.43126935-1.04843205-.55448916-1.66515679-.06160991-.37003484 0-.74006969.12321981-.98675958.06160991-.18501742.12321982-.2466899.24643963-.18501742.30804954.12334494.61609907.18501742.92414861.30836237.18482972.12334494.36965944.49337979.36965944.86341463 0 .18501742 0 .2466899-.06160991.30836237z"/></g><path d="m118.907121 51.7432056-.18483 32.5630662c0 1.6034843-.800929 2.7135888-3.142105 2.5285714l-.30805-.1233449c.924149.3083623 1.725078-.8017422 1.725078-2.4052265l.184829-32.5630662c0-1.4801394-.616099-2.7135889-1.478637-2.8986063h1.540247c.924149-.0616725 1.663468 1.2334495 1.663468 2.8986063z" fill="#465557"/><path d="m69.003096 86.4648084-5.1136223 14.5547036h15.9569659l-1.0473684-14.4930312z" fill="#69797d"/><path d="m69.003096 86.4648084-5.1136223 14.5547036h15.9569659l-1.0473684-14.4930312z" fill="#69797d"/><path d="m68.4486068 88.8700348c.3080495.4317074.4928793.9867596.677709 1.5418119.1848297.4933798.5544892.9867596.6160991 1.4801394.0616099.3700348-.1848298.7400696-.6160991.6167247-.1848297-.0616725-.3080495-.1850174-.4312694-.2466899-.1848297.5550523-.5544891.3700348-.8009288 0-.4928792-.7400697-.616099-1.5418118-1.4786377-1.6651568-.6160991-.0616725-1.2938081 0-1.9099071-.0616725-1.0473685 0-2.0947369-.0616724-3.2037152-.0616724 0 0 .3696594-1.295122.3696594-1.3567945.1848297-.7400696.3696595-1.2951219 1.1705883-1.2951219 1.0473684 0 2.0331269.0616725 3.0804953.0616725.4928793 0 1.0473684 0 1.5402477.1850174.4312693.1850174.7393189.4933798.9857585.8017421" fill="#efb690"/><path d="m63.8894737 101.019512.3696594 1.171777 15.279257.123345.3080495-1.295122z" fill="#465557"/><g fill="#cecece" transform="translate(66.5387 86.958188)"><path d="m1.7250774 11.1010453-.30804954 1.1101045h-1.17058823l.30804953-1.1101045z"/><path d="m10.8433437.98675958h-1.04736847v-.24668989h1.04736847z"/><path d="m10.9049536 1.91184669h-1.04736846v-.49337979h1.04736846z"/><path d="m10.9665635 2.77526132h-1.10897836v-.43170731h1.04736846z"/><path d="m10.9665635 3.70034843h-1.10897836v-.49337979h1.10897836z"/><path d="m11.0281734 4.68710801h-1.17058826v-.55505226h1.17058826z"/><path d="m11.0897833 5.6738676h-1.17058825v-.55505227h1.10897835z"/><path d="m11.1513932 6.8456446h-1.23219815v-.74006969h1.17058825z"/><path d="m11.2130031 8.07909408h-1.29380805v-.80174216h1.23219815z"/><path d="m11.274613 9.4358885h-1.29380805l-.0616099-.92508711h1.29380805z"/><path d="m11.274613 10.7310105h-1.29380805v-.86341468h1.29380805z"/><path d="m11.3978328 12.2728223-1.41702785-.0616725v-1.048432h1.35541795z"/><path d="m9.36470588.98675958h-.8625387l.06160991-.30836237.80092879.06167248z"/><path d="m9.42631579 1.91184669-.92414861-.06167247v-.43170732h.92414861z"/><path d="m9.42631579 2.77526132h-.98575851l.0616099-.49337979.92414861.06167248z"/><path d="m9.42631579 3.70034843h-.98575851v-.49337979h.98575851z"/><path d="m9.42631579 4.68710801h-1.04736842l.06160991-.55505226h.98575851z"/><path d="m9.4879257 5.6738676h-1.10897833v-.55505227h1.10897833z"/><path d="m9.4879257 6.8456446h-1.17058824v-.74006969h1.17058824z"/><path d="m9.4879257 8.07909408h-1.23219815l.06160991-.80174216h1.17058824z"/><path d="m9.5495356 9.4358885h-1.35541795l.0616099-.92508711h1.23219815z"/><path d="m9.5495356 10.7310105h-1.35541795v-.86341468h1.35541795z"/><path d="m9.5495356 12.2111498h-1.41702786v-1.048432h1.41702786z"/><path d="m7.7628483 9.86759582v.80174218l-.06160991.4317073v1.1101045h-1.7250774l.12321981-1.1101045v-.4317073l.12321982-.80174218z"/><path d="m7.8244582 8.51080139-.0616099.92508711h-1.47863777l.0616099-.92508711z"/><path d="m7.88606811 7.27735192-.06160991.80174216h-1.41702786l.06160991-.80174216z"/><path d="m7.88606811 6.10557491v.74006969h-1.35541796l.06160991-.80174216z"/><path d="m7.94767802 5.11881533v.55505227l-1.29380805-.06167248.06160991-.55505226z"/><path d="m8.00928793 4.13205575-.06160991.55505226-1.23219814-.06167247.0616099-.49337979z"/><path d="m8.00928793 3.20696864v.49337979h-1.17058824l.06160991-.49337979z"/><path d="m8.07089783 2.28188153-.0616099.49337979h-1.10897833l.0616099-.49337979z"/><path d="m8.07089783 1.4184669v.43170732h-1.04736842l.06160991-.43170732z"/><path d="m8.13250774.67839721-.06160991.30836237v.43170732h-.98575851v-.43170732l.06160991-.30836237z"/><path d="m6.71547988.67839721v.30836237h-.8009288c0-.06167247.06160991-.18501742.06160991-.30836237z"/><path d="m6.65386997 1.4184669-.06160991.43170732h-.8625387c0-.12334495.06160991-.30836237.06160991-.43170732z"/><path d="m6.53065015 2.28188153-.0616099.43170732h-.92414861c0-.12334495.06160991-.30836237.06160991-.43170732z"/><path d="m6.46904025 3.20696864-.06160991.49337979h-1.04736842c0-.18501742.06160991-.30836237.12321981-.49337979z"/><path d="m6.28421053 5.05714286-.06160991.55505226h-1.17058824c.06160991-.18501742.06160991-.37003484.12321982-.55505226z"/><path d="m6.16099071 6.04390244-.06160991.74006969h-1.29380804c.0616099-.2466899.0616099-.4933798.12321981-.74006969z"/><path d="m6.0377709 7.27735192-.06160991.80174216h-1.35541796c.06160991-.2466899.12321982-.55505227.12321982-.80174216z"/><path d="m5.91455108 8.51080139-.12321981.92508711h-1.47863777c.06160991-.30836237.12321981-.61672474.18482972-.92508711z"/><path d="m5.48328173.67839721c0 .12334495-.0616099.18501742-.0616099.30836237h-.67770898l.06160991-.30836237z"/><path d="m5.36006192 1.4184669c0 .12334495-.06160991.30836237-.06160991.43170732h-.73931888l.12321981-.43170732z"/><path d="m5.1752322 2.28188153c0 .12334495-.06160991.30836237-.06160991.43170732h-.80092879l.12321981-.43170732z"/><path d="m4.99040248 3.20696864c-.06160991.18501742-.06160991.37003484-.12321982.49337979h-.8625387l.12321982-.49337979z"/><path d="m4.86718266 4.13205575c-.0616099.18501742-.0616099.37003484-.12321981.49337979h-.92414861l.12321982-.49337979z"/><path d="m4.68235294 5.05714286c-.06160991.18501742-.06160991.37003484-.12321981.55505226h-.98575852l.12321982-.55505226z"/><path d="m4.49752322 6.04390244c-.06160991.24668989-.12321981.49337979-.12321981.74006969h-1.10897833l.18482972-.74006969z"/><path d="m4.25108359 7.27735192c-.06160991.30836237-.12321981.55505226-.12321981.80174216h-1.17058824l.18482972-.80174216z"/><path d="m4.06625387 8.51080139c-.06160991.30836237-.12321981.61672474-.18482972.92508711h-1.29380805l.24643963-.92508711z"/><path d="m3.81981424 9.86759582c-.06160991.30836238-.12321981.55505228-.18482972.80174218h-1.35541796l.18482972-.80174218z"/><path d="m5.79133127 9.86759582-.06160991.80174218-.0616099.4317073-.12321982 1.1101045h-1.7250774-.43126935-1.47863777l.30804954-1.1101045h1.41702786.43126935c0-.123345.06160991-.3083624.06160991-.4317073.0616099-.2466899.12321981-.5550523.12321981-.80174218z"/><path d="m4.37430341.67839721-.06160991.30836237h-.67770898l.12321981-.30836237z"/><path d="m4.18947368 1.4184669-.12321981.43170732h-.67770898l.12321982-.43170732z"/><path d="m3.94303406 2.28188153-.06160991.43170732h-.73931889l.12321982-.43170732z"/><path d="m3.75820433 3.14529617-.12321981.55505226-.12321981.43170732-.12321982.49337979-.12321981.43170732-.12321982.55505226-.12321981.43170732-.18482972.74006969-.12321982.43170731-.24643963.86341464h-.98575851l.24643963-.86341464.12321981-.43170731.24643963-.74006969.12321982-.43170732.18482972-.55505226.12321981-.43170732.18482972-.49337979.12321982-.43170732.12321981-.55505226z"/><path d="m2.40278638 8.51080139-.24643963.92508711h-1.04736842l.24643963-.92508711z"/><path d="m2.03312693 9.86759582-.18482972.80174218h-1.17058823l.24643963-.80174218z"/><path d="m6.34582043 4.13205575-.0616099.49337979h-1.10897833c0-.18501742.06160991-.37003484.06160991-.49337979z"/></g><g transform="translate(8.625387 31.452962)"><path d="m49.103096 42.9240418c.0616099-.1850174.677709-.4933798.8009288-.6167247.4928792-.3700349.9241486-.9867596 1.5402476-1.171777 1.2938081-.4317073 1.1089784-.3700349 2.3411765-.6167248.3696595-.0616724 2.1563468-.4317073 2.5876161-.3083623.1232198 0 .1232198.1233449.1848297.1850174.6160991 1.4184669-.8625387.9250871-1.7250774 1.4801394-.3080495.2466899-1.0473684-.1850175-1.3554179.0616724 1.1705882-.1233449 2.2795665-.3083623 3.4501548-.4317073.677709-.0616725 4.3743034-.5550523 4.4359133.2466899.0616099.4317073-.5544892.5550523-.8009288.6167247-1.293808.3700349-3.0188854.6167248-4.3126935.8017422 1.1089783-.1233449 1.7866873-.3083624 1.8482972.4933798 0 .2466899-.3696594.8017422-1.1089783.7400697.677709.0616725.5544892.4933798.5544892.9250871 0 .5550523-.5544892 1.048432-.7393189.6783972.5544891.9250871-.0616099 1.9735192-1.4786378 1.9735192-.677709 0-1.4170279.2466899-2.0947368.2466899-.8625387 0-1.4786378 0-2.3411765.0616724-1.1705883.0616725-1.9099071-.3083623-3.0188855-.5550522z" fill="#fac39d"/><path d="m14.5399381 15.7881533c1.293808 1.3567944 2.4643963 2.466899 3.4501548 3.4536585 3.6349845 3.4536586 5.0520124 4.1320558 5.0520124 4.1320558.0616099.1850174-1.7866873 3.0836237-.677709 7.2156794-4.1894737-4.0087108-6.9003096-9.1891986-7.8244582-14.8013937" fill="#efb690"/><path d="m56.3114551 57.0470383c-.1848297 0-.3696594.123345-.5544892.123345-.1848297.0616724-.4312693 0-.5544891.0616724.1848297-.0616724.3696594 0 .4928792.0616725.3696595.123345.7393189.0616725 1.1705883.123345.3696594.0616724 1.6634675.4933798 1.293808 1.1101045-.3696594.5550523-1.1705882.3700348-1.6018576.3083624-.8009288-.123345-1.6634675.3083623-2.4027863.5550522-2.033127.6167248-4.004644-.1850174-5.9145511-.6783972l1.4170278-2.5902439 6.5306502-1.7885017c.6160991.1850174 1.2321981.4317073 1.8482972.6167247.8625387.3083624 1.6018576.6167248 2.4027864 1.171777.3080495.2466899.4312693.5550523.5544891.9250871.1848298.4317073.4312694.8634147.6160991 1.295122.1848297.3083623.8625387 1.2334495.4312694 1.6651568-.2464397.2466899-.7393189-.123345-.8625387-.3083624-.4312694-.6167247-.8009288-1.7268293-1.4170279-2.0968641-.8625387-.5550523-2.3411765-.6783972-3.4501548-.5550523" fill="#efb690"/><path d="m22.1795666 29.9111498 1.293808.6783972c1.5402477.8017422 2.7724458 2.1585366 3.3885449 3.7620209l6.7154799 17.3916377 18.1749226 3.2686411-.8009288 4.9954704-17.9900929-.2466899c-1.7250774-.1850174-3.2037152-1.171777-4.0662539-2.7135889l-5.976161-6.9689895z" fill="#d0d0d0"/><path d="m26.1842105 18.8101045c.3696595 0 .5544892.4317073.4928793.8017422-.0616099.3700348-.2464396.6783972-.2464396 1.048432 0 .3700349.1848297.7400697.1848297 1.1101046.0616099.8017421-.5544892 1.5418118-1.2938081 1.8501742s-1.6018576.3083624-2.4027864.2466899c-3.0804953-.2466899-6.2226006-1.0484321-8.5021671-3.0836237-2.0947369-1.8501742-3.2037152-4.5020906-4.1894737-7.0923345-.61609909-1.6034843-1.17058825-3.2686411-1.10897835-4.99547038 0-.4933798.06160991-.98675959.18482973-1.48013938 1.04736842-4.44041812 5.48328172-6.04390244 9.54953562-5.61219512 3.943034.43170732 7.2083591 4.07038328 7.269969 8.0174216 0 .49337978-.1232198.92508708-.0616099 1.41846688.0616099.9867596.8625387 1.7268293 1.4786378 2.466899.4312693.4933798 1.6018576 1.7885017.9241486 2.4052265-.3696595.3083623-.9241486.2466899-1.2321982.6783972-.2464396.4317073-.3080495.9867596-.1848297 1.4801393 0 .0616725.0616099.1850175 0 .2466899 0 .1850175-.677709.4933798-.8625387.4933798" fill="#fac39d"/><path d="m9.79597523 28.8627178c.49287927-.4933798.92414857-.9867596 1.41702787-1.4801394.9241486-1.1101045 1.6634675-2.2818815 2.1563467-3.638676.9241487-2.5285714 1.2938081-5.3655052 1.1705883-8.079094 0 0 .0616099.0616724.0616099.0616724.9241486 5.6121952 3.6349845 10.8543554 7.7628483 14.8013938.0616099.1850174.1232198.3700348.1232198.5550522 1.4170279 2.466899 2.649226 4.3787457.8625387 5.4888502-1.4170279.9250871-6.65387-1.0484321-8.6869969-1.8501742-.4928793-.1850174-.8009288-.3083624-.8009288-.3083624-.3696594-.1850174-.8009288-1.6034843-.9857585-1.9735191-.3080495-.5550523-.5544892-1.171777-1.0473684-1.6034844-.3696595-.3083623-.677709-.4317073-1.1089784-.4933798-.4312693-.0616724-1.35541792.0616725-1.72507736-.1233449-.61609907-.4317073.36965944-.9250871.80092879-1.3567944" fill="#fac39d"/><path d="m23.9662539 33.9198606s-2.4643963 2.4052265-8.9334366.123345c.4928793 13.1362369 1.2938081 19.1801393 1.2938081 19.1801393l7.7012384 2.6519164 2.7108359-8.5108014z" fill="#dadada"/><path d="m28.4021672 48.3512195c0 .8634146-6.0377709 15.4181185-7.7012384 19.4268293-.1232198.3083623-.1848297.4933798-.3080495.6783972-.1232199.2466899.8625387.7400697.8625387.7400697s-2.9572756 1.6034843-2.9572756 1.6034843c-.4928792-.0616725-5.0520124-2.5285714-17.68204333-3.9470383h-.06160991c.06160991-.1850174.12321982-.3700349.18482973-.6167248.18482972-.6167247.30804953-1.3567944.43126935-2.220209 1.47863777-8.6958188 1.23219814-25.9641115 1.23219814-25.9641115l1.7250774-1.7885018 10.04241482-.6167247s7.1467493 10.1759582 9.9191951 11.1010453c-.0616099 0 0-1.171777 0-1.295122 0-.4933798 0-.9250871 0-1.4184669 0-.9250871 0-1.9118466-.0616099-2.8369338-.0616099-1.7268292-.1848297-3.515331-.3696595-5.2421602-.1232198-.8634147-.2464396-1.7268293-.4312693-2.5285715-.0616099-.3700348-.1232198-.8017421-.2464396-1.2334494-.06161-.2466899-.1848298-.4317074-.3080496-.6167248-.0616099-.1850174-.1848297-.3700348-.2464396-.5550522.0616099 0 .0616099 0 .0616099.0616724.1232198.123345.2464396.2466899.3696594.4317073.1232199.1850175.2464397.3700349.3080496.6167248.1848297.4933798.3696594.9867596.5544891 1.4801394.3080496.8634146.6160991 1.7268292.9241486 2.5285714.5544892 1.7268293 1.0473685 3.4536585 1.6018576 5.1804878.4928793 1.5418118.9857585 3.0836237 1.4786378 4.687108.3080495.6783972.677709 1.6034843.677709 2.343554" fill="#da9b00"/><path d="m20.7009288 67.7780488c-.1232198.3083623-.1848297.4933798-.3080495.6783972l-19.71517032-2.1585366c.18482972-.6167247.30804953-1.3567944.43126935-2.2202091 3.69659443.6167248 15.77213627 3.1452962 19.59195047 3.7003485" fill="#2f2722"/><path d="m25.2600619 4.50209059c-1.1705882-1.97351916-2.1563467-2.40522648-3.7582043-3.14529616-3.0188855-1.4184669-6.7154799-1.35679443-9.4879257.55505226-.6160991.43170732-1.2321982 1.171777-1.971517 1.29512195-.61609911.12334495-1.29380809-.18501742-1.90990716-.06167247-1.47863777.24668989-2.89566563 1.11010453-3.69659443 2.40522648-.9241486 1.4184669-1.35541795 4.74878045-.12321981 6.10557495.12321981.1233449.30804953.2466899.49287926.3700348.49287925.3083624 1.10897832.6783972 1.66346749.4933798.0616099 0 .18482972-.0616725.24643963-.0616725.18482972 0 .30804953.2466899.36965944.4317073.80092879 2.2202091 3.08049538 4.6871081 4.86718268 6.1672474.3696594.3083624 1.971517 1.7885018 2.4643963 1.6651568.2464396-1.3567944.4928792-2.6519164.7393189-4.0087108-.677709-.8017421-1.355418-1.7268293-1.5402477-2.7752613-.1848297-1.0484321.3696594-2.2818815 1.4170278-2.5285714.7393189-.1850175 1.5402477.2466899 1.9715171.8017421.1232198.1850174.3080495.3700349.3696594.5550523-.0616099-.0616725 8.2557276-3.63867597 7.8860681-8.26411151z" fill="#202c2b"/><path d="m3.81981424 30.4045296c2.27956656-2.4668989 6.09938081-1.048432 7.70123836.1850174 2.0947369 1.6651568 3.6965945 4.5020906 5.6681115 6.2905924 2.4027864 2.0968641 5.0520124 3.8853658 7.2083591 6.2289198.8625387.9250871 1.5402477 1.8501742 2.5260062 2.6519164 1.4786378 1.171777 2.7108359.4933798 4.5591331.1850174 4.7439629-.9250871 17.3739938-2.9602787 17.5588236-3.0219512l1.293808 5.5505227c-.3080495.1233449-.6160991.1850174-.8625387.3083623-2.1563467.8634147-4.2510836 1.7268293-6.4074303 2.5902439-3.6349845 1.4801394-7.331579 2.1585366-10.9665635 3.7003485-1.7866873.7400697-4.1894737 2.0351916-6.1609907 1.8501742-1.4786378-.123345-2.7724458-1.4184669-4.0662539-2.1585366-2.3411764-1.295122-4.6823529-2.5902439-7.0851393-3.8853659-1.1089783-.6167247-2.2795666-1.2334494-3.3885449-1.8501742-.7393189-.4317073-2.52600617-1.9118467-3.38854487-1.8501742-.18482973 0-.36965945 0-.43126935-.0616725-6.09938081-4.3787456-6.77708979-13.5062717-3.75820434-16.7132404" fill="#e7e7e7"/></g><path d="m54.5247678 174.594774.3696594-62.844251-5.5448916-.061673-.3696594 62.905924c0 .925087 1.2321981 1.726829 2.7724458 1.726829s2.7724458-.801742 2.7724458-1.726829z" fill="#a8aab3"/><path d="m126.485139 174.594774.36966-62.844251-5.544892-.061673-.369659 62.905924c0 .925087 1.232198 1.726829 2.772445 1.726829 1.478638 0 2.710836-.801742 2.772446-1.726829z" fill="#a8aab3"/><path d="m40.2928793 105.398258v3.577003c0 1.72683 1.3554179 3.083624 3.0804953 3.145296l88.9030964.74007c1.725077 0 3.080495-1.356794 3.142105-3.083624v-3.577003z" fill="#d5dbd9"/><path d="m146.20031 48.1045296c-4.066254.123345-2.710836-8.3874564-1.848298-12.5195122.862539-3.9470383 3.450155-11.841115 3.696595-12.7045296 0-.0616725.06161-.0616725.06161-.0616725l4.312693.1850175c.06161 0 .06161 0 .06161.0616724.06161.9250871 1.540248 8.1407666-.18483 19.0567945-.123219 1.2334494-1.909907 5.858885-6.09938 5.9822299z" fill="#815245"/></g></svg>