<svg height="196" viewBox="0 0 237 196" width="237" xmlns="http://www.w3.org/2000/svg"><g fill="none" fill-rule="evenodd"><path d="m1 1h235v194h-235z" opacity=".011091" stroke="#fefefe"/><g fill-rule="nonzero" transform="translate(6.297131 24.1067)"><g transform="translate(15.409836 34.17866)"><path d="m16.2229575 1.06333257c-2.3091071-1.22485144-7.22336062-1.574809-11.30870394.05832626-4.08534332 1.63313526-4.55900631 3.09129174-4.55900631 3.09129174l15.80850245.40828381z" fill="#7bb929"/><path d="m15.512463 1.23831135s5.3879166 1.39983022 7.6970237 4.19949066c.5328709.64158885 7.8154394 12.24851439 9.2956363 14.93152239.2960393.5249363-1.0657418 4.1994906-2.4867308 1.8664403-2.9603937-4.724427-9.7100913-11.6652519-9.7100913-11.6652519s-3.9077197-.81656761-6.2168268-1.80811401c-2.4275229-.93322015 1.4209889-7.52408744 1.4209889-7.52408744z" fill="#f3ac7a"/><path d="m17.407115 9.28733512v.69991511c1.5394048.40828377 2.9011859.69991507 2.9011859.69991507s.5328708.5249364 1.3025732 1.341504c-.5920787-1.1665252-.4144551-3.49957555.0592079-6.06593096-1.5986126 3.67455433-4.262967 3.32459678-4.262967 3.32459678z" fill="#bb6636" opacity=".1"/><path d="m32.3274993 20.0776931 3.2564331 4.724427c.1776236.233305.2368315.5249363.2960394.7582413l.1776236 3.3245968c0 .3499576-.0592079.6999151-.2960394.9915464l-1.7762362 2.4497029c-.473663-.4082838-.6512866-1.1081989-.3552472-1.7497878l.7104945-1.5164827-.5328709-2.6246817c0-.1166525-.1184158-.233305-.2368315-.3499575-.3552473-.2333051-.8289103.0583262-.7697024.5249363l.4144551 2.6246817c.0592079.2916313-.1184157.5832626-.4144551.6415888-.2960393.1166525-.6512866-.0583262-.7697023-.4082838l-1.1841575-3.6162281-1.1249496-5.1327108z" fill="#f3ac7a"/></g><g transform="translate(172.879098 5.295285)"><g transform="translate(17.039274)"><g transform="translate(0 55.508841)"><g fill="#000"><path d="m14.6466477 75.2453173c.1184521-1.417247-.7107123-2.3030264-.118452-9.6254692.059226-.8857794-6.5740885-1.1810392-6.5740885-1.1810392.29613011 3.6021695 1.24374647 5.8461439-2.25058885 10.1569368-.76993829.9448314-2.96130111 2.6573381-3.7312394 3.4250136-.5330342.5314676-1.18452044 3.0707018 2.07291078 3.0707018 4.08659554 0 7.28480077-1.2400911 8.29164307-3.1888057.0592261-.1771559.3553562-.1181039.3553562-.1181039s1.6583286 1.1219872 1.9544587-2.5392342z"/><path d="m22.0499005 69.5763293 6.2187323-.8267274s.059226.5905196.5922602 2.71639c.8883904 4.0155332 3.1982052 6.1414037 4.2050476 7.2633909.8291643.9448313 1.0068424 2.0668185.8291643 3.0116499v.4724156s-.3553561 1.8896627-1.6583286 1.8896627-6.5148624-.8267274-7.1663487-1.7715588c-.2961301-.4133637-.3553561-.8267274-.3553561-1.1219872 0-.0590519-.059226-.1181039-.059226-.1181039s-.5330342-2.1849224-1.3029725-2.0077666c0 0-1.2437465-1.2400911-.5330342-3.2478577.7699383-2.0077665-.7699383-6.2595075-.7699383-6.2595075z"/><path d="m.78775851.95795399c0 .64957154-.41458216 2.48018224-.41458216 3.07070182-.17767806 6.73192319-.35535613 10.51124849-.35535613 12.28280729 0 1.9487146 1.89523271 23.0302636 3.37588327 27.8134723 1.48065055 4.8422605 3.02052713 23.2074195 2.07291077 24.6246665-.94761635 1.4762989-.17767806 5.7870919-.17767806 5.7870919s10.4830059-.7086235 10.71991 1.1810391c0 0 .6514863-.7086235.2961301-4.9013125-.5922602-7.5586506-1.7767806-11.6332357-2.3098148-26.1009655-.1184521-2.8935459-1.7175547-18.4242109-2.9020751-23.0302636-.5330342-2.0668186 5.0342119 21.4949127 6.9886706 28.2858879 0 0 3.6720134 14.5858336 2.9020751 20.8453412-.7107123 5.609936 1.1252944 6.4366634 1.1252944 6.4366634s7.1071227-2.3030263 10.4830059-.3543117c.1184521-1.9487146.3553562-2.1258705-.118452-5.668988-.5330342-4.3698449-4.3234996-18.0108472-4.8565338-24.0931989-.6514863-7.2043389-1.9544588-20.7272373-2.4282669-29.4078751-.4738082-8.68063785-3.9681435-15.2354052-4.9749859-16.94791199-1.0660684-1.8306107-19.42613529.17715588-19.42613529.17715588z"/></g><path d="m1.0246626 14.8942161c.35535613 9.920729 4.91575984 26.5143292 5.98182824 30.8841741s-.35535613 2.71639.17767807 5.2556242 1.83600669 15.530665 1.83600669 16.4164444 5.271116 2.0077666 4.2050476 2.7163901-5.09343793-.5314677-5.09343793 0c0 .5314676 3.07975313 1.6534548 3.07975313 1.6534548s-6.15950629.3543117-6.57408845.1771559c-.35535613-.1771559.71071227-1.7715588.47380818-3.6612214-1.12529442-9.979781.17767807-15.1173013-1.24374647-19.841458-1.48065055-4.7241566-4.20504757-33.6596161-3.67201337-36.7303179.59226022-3.0707018.82916431 3.1297538.82916431 3.1297538z" fill="#26282d"/><path d="m11.0338604 19.6774247c2.0136847 4.0155332 6.9886706 25.0970822 7.9362869 27.9906281.8883904 2.893546 2.3098149 5.1375204 3.0205272 6.0232998.7107122.8857793 4.0865955 15.1763532 3.5535613 17.7155874-1.8360067.1771559-3.6127874-.1771559-3.7904654.7086235-.1776781.8857794 4.7380818.5314676 4.7380818.5314676l-5.6264722 2.7163901c-.2961301-1.1219872-.4738081-2.3620783-.4738081-4.5470008 0-2.5982861-.8291643-13.8772101-2.605945-19.664302-1.4806506-4.7241567-2.0729108-10.0388329-3.4943353-16.0621326-1.4806506-5.668988-3.2574312-15.4125611-3.2574312-15.4125611z" fill="#26282d"/></g><g transform="translate(7.243395 21.980451)"><path d="m1.36219851 2.36207832 1.0660684.17715588.23690409-2.12587049-2.1321368-.29525979-.11845204.94483133z" fill="#6e150e"/><path d="m3.1982052 2.59828616-.88839033-.05905196.29613011-2.12587049 2.1321368.23620783-.11845205.94483133z" fill="#991915"/></g><path d="m15.8311682 17.846814c-.6514863 3.3069097-5.5080201 4.3107929-5.5080201 4.3107929l2.665171 4.251741 4.6788557-6.1414036z" fill="#fff"/><path d="m9.31630571 22.1576069-3.55356133 3.0116499s-.41458216-4.0155331-.05922603-4.7832086c.47380818-1.0629352.94761636-.8857794.94761636-.8857794s-.17767807.4724157.65148624 1.476299c1.0660684 1.2991431 2.01368476 1.1810391 2.01368476 1.1810391z" fill="#fff"/><path d="m9.43475775 25.8778803c.35535614.1771559 1.00684235.8857794 1.42142455.7676755.3553561-.118104.4738082-.4133638 0-1.0038833-.4145822-.5905196-1.18452046-1.0038833-1.42142455-.5314677-.23690408.5314677 0 .7676755 0 .7676755z" fill="#cc9584"/><path d="m8.84249753 14.4808524c.35535614 1.7125068-.59226022 3.5431175-1.30297249 5.0194164-.71071226 1.476299 1.36219851 6.0823517 2.30981487 6.0823517.94761639 0 7.34402679-4.6060527 7.34402679-4.6060527s-1.7767807.2362078-1.7767807-8.3853781c0-1.358195-6.57408847 1.8896627-6.57408847 1.8896627z" fill="#d2a292"/><g transform="translate(3.097573)"><path d="m15.2210877 8.87091637c0 1.24009113-.8291643 5.90519583-1.4214245 6.61381933-.1776781.1771559 0 1.5944028.2369041 1.5353509.2369041-.059052-.9476164.3543117-1.3621985-.059052-.4145822-.4133637-1.2437465-6.6138193-1.0068424-6.96813103.177678-.29525979 3.5535613-1.1219872 3.5535613-1.1219872z" fill="#000"/><path d="m12.2005606 10.4062673c.177678-3.42501359 1.1845204-7.02718303-4.08659555-7.38149478-1.18452045-.05905196-2.1321368 0-2.96130112.17715587-.29613011-.11810391-.59226022-.23620783-.88839033-.29525979-1.18452044.11810392-1.95445873.88577938-2.665171 2.42113029-.59226022 1.29914307-.76993829 3.07070182-.71071227 4.78320861 0 .5314676.29613011 1.2991431.35535614 1.8306107.05922602.7676754 0 1.2400911.11845204 1.8306107.23690409 2.0668185 1.24374647 4.6060527 2.84284907 6.1414036.47380818.2362079 1.00684238.4133637 1.5991026.3543118 1.83600669-.059052 3.49433531-.7086235 4.56040372-1.7715588.6514862-.5314676 1.1252944-2.2439744 1.4214245-3.7202733.7107123-.2952598 1.9544588-1.7715588 2.0729108-2.834494.1776781-1.358195-.4145822-2.18492246-1.6583286-1.5353509z" fill="#e0ac9c"/><path d="m6.10028029 2.78856469.11845204-.29525979s1.42142454-.76767546 1.12529443-.76767546c-.17767807 0-.65148625-.47241566-.94761636.23620783l.65148625-1.1219872-3.1982052.88577937s-.71071227-.11810391-1.24374647.23620783c-.5330342.35431175-.94761636.64957154-.94761636.64957154s.05922602.53146763.17767807-.17715587c-.71071227.17715587-1.18452044 1.8306107-1.24374647 3.01164986-.05922602.35431175-.11845204.76767546-.17767806 1.18103916-.17767807 1.77155875.17767806 3.77932534.17767806 3.77932534l.35535614.2362078s-.59226023-4.25174097 1.0660684-5.43278013c1.65832862-1.18103916 5.50802006 0 5.50802006 0z" fill="#26282d"/><path d="m14.9249576 5.32779889c-.5330342-1.06293525-1.2437465-2.65733812-2.0136848-3.01164987-.4145821-.82672741-3.13897913-.88577937-5.92260218-1.94871461 0 0 2.48749294.94483133 2.48749294 1.59440286-.35535614-.53146762-4.44195167-1.94871461-4.20504758-1.65345482 1.12529442 1.8306107.88839033.59051958.59226022 1.35819503-.05922602 0 .11845205.05905196.05922602.05905196.11845205-.76767545-.76993829-1.53535091-1.36219851-1.71250678.23690409 1.06293524-1.00684238.94483133-1.83600669 2.12587049-1.00684238.94483133-1.83600669 2.71639007-.76993829 3.54311748 2.42826692 1.8306107 4.38272565.35431175 5.92260223.47241567 1.42142453.11810391 2.19136284.94483133 2.48749294 1.47629895.3553561.7086235.5922602 4.07458515.5922602 4.07458515l1.0068424-.6495716.7107123-1.47629893 2.1913628.94483133c0 .059052 1.1252944-3.07070182.059226-5.19657231z" fill="#000"/></g><path d="m3.51215553 13.2407613c.71071227.1771558 2.01368476.2952598 2.19136282-.2952598.17767807-.7086235.29613011-1.5944029.29613011-1.5944029s.35535614-.2952598 1.00684238 0c0 0 .17767807 1.0038833.41458216 1.6534548.23690409.6495716 2.48749293.2952598 3.4351093.118104.4145821-.059052.4738082-1.0038833.4738082-1.7715588l4.5604037-1.1810392.2369041-.41336366s-4.3827257.76767546-5.0342119.88577936c-.5922602-.1181039-2.72439705.2952598-3.55356136.2362078-.23690409.059052-.71071226 0-1.0660684 0-.41458215 0-.65148624.118104-.76993829.118104-.17767806-.059052-2.30981486-.4133637-2.60594497-.1771559-.35535614.2362078-.11845205 2.3030264.41458215 2.4211303zm3.90891747-1.9487146c.23690409.0590519 3.2574312-.3543118 3.4351093-.1771559.118452.1181039.118452 1.5944028-.2961301 1.7125068-.5330342.1771558-2.54671898.4133637-2.78362307-.118104-.23690409-.5905195-.35535613-1.4172469-.35535613-1.4172469zm-4.08659554-.118104c.11845205-.1181039 1.95445874.118104 2.19136283.059052 0 0 .05922602.8267274-.17767807 1.5353509-.05922602.2362078-1.36219851.2362078-1.71755464.059052-.29613012-.1771559-.47380818-1.5353509-.29613012-1.6534549z" fill="#26282d"/></g><path d="m39.977565 51.9788458.4738082-13.9362621-.7699383-3.3069097-.2369041 3.4840655-1.0068424 13.7000543 1.0068424 11.337976z" fill="#000" opacity=".1"/><path d="m49.3352765 47.490897-3.5535613-19.841458c-.2961301-.7676754-1.3621985-2.8935459-4.3827257-3.6612214l-11.7267524-4.2517409v-.059052s0 0 0-.059052h-.059226l-.177678.059052-.1776781-.059052h-.059226v.059052.059052l-11.7267524 4.2517409c-3.0205272.7676755-4.0865956 2.893546-4.3827257 3.6612214l-1.2437465 21.3177569-6.81099251-3.7793253s.5330342 2.834494 3.31665725 8.44443c2.78362306 5.5508841 9.06158136-2.1849224 9.06158136-2.1849224s.4738082-9.2711575.4738082-10.9246123l.2369041 11.337976-.6514862 8.6215858-.1776781 5.1375204c7.995513-.1181039 15.872574.7676754 23.868087.7676754l-1.4214246-8.0901182v-2.1258705l.2369041-4.192689v-.5314676l6.4556364.8857793c1.7767807.1771559 3.3166573-1.2400911 3.1982052-2.9525979zm-9.1208074-2.6573382.2369041-6.6728712 1.0068424 6.6728712z" fill="#673328"/><path d="m33.6996067 21.0356197-3.9681435-1.417247v-.0590519s0 0 0-.059052h-.0592261l-.177678.059052-.1776781-.059052h-.059226v.059052.0590519l-4.5604037 1.6534549 2.724397 6.0232997 1.8952327.1771559z" fill="#d2a292"/><path d="m49.3352765 47.490897-3.5535613-19.841458c-.1776781-.5314676-.8291643-1.7715587-2.1913628-2.71639 1.4806505 2.6573381 2.0136847 7.1452869 2.0729107 7.6177026.5922603 3.6021694.8291644 7.2043389 1.4806506 10.8065083.2961301 1.7125068.9476164 4.251741-.2961301 5.7870919-1.4214245 1.7125068-14.5103755.4133637-18.1823888-.059052-1.8360067-.2362078.177678-3.6021694.177678-3.6021694h2.7836231l8.6469992-.6495716s.1776781-5.7870918.2369041-6.6728712c-.2369041 1.7715587-1.2437465 4.0155331-2.724397 4.9603645-1.9544587 1.2400911-4.3827257 1.1810391-6.6333145 1.0629352-4.3827256-.1771559-8.7062253.2952598-13.0889509.5314676l-.3553562 6.9681311s2.7243971.2362078 5.21189.3543117c.5330342 0 1.0660684-.2952598 1.1845204-.8267274.1184521-.5905196-.118452-1.1810391.6514863-1.1810391 4.3827256-.2362079 9.2984855 1.6534548 13.266629 3.3659616l1.8952327 1.2400911.1776781-2.6573381v-.5314676l6.4556364.8857793c1.7767806.1771559 3.3166572-1.2400911 3.1982052-2.9525979z" fill="#000" opacity=".14"/><path d="m19.3669093 37.8654278h-18.06393681c-.94761636 0-1.18452045.3543117-1.18452045 1.0629352l2.25058885 11.6332358c0 .7676754.59226022 1.1219872 1.36219851 1.1219872h17.8862587c.7699383 0 1.3621985-.3543118 1.3621985-1.0629353l-2.2505888-11.4560798c0-.7676755-.5922602-1.2991431-1.3621985-1.2991431z" fill="#9abccc"/><g fill="#be8c70"><path d="m26.592484 44.4201951-3.9681435-1.5353509h-1.1845205l1.0068424 5.5508841 2.0729108.6495715c.8883903.1771559 1.8360067.1771559 2.546719-.2952598l1.5991026.3543118-.3553562-3.4840655z"/><path d="m16.6425122 44.4792471.7699383 2.4211303c.2369041.6495715.7699383 1.1810391 1.4806506 1.358195l4.1458215 1.1219872 2.9613012-.1771559s.4145821-.1181039.8291643-.2362078l1.9544587.2362078.5330342-3.6612214-5.5080201-1.4762989z"/><path d="m15.5172178 44.4201951c-.3553561 0-.5922602.2952598-.5330342.6495716.059226.2952598.2961301.4724156.5922602.4724156l6.5148625.118104-.1184521-1.7715588z"/></g><path d="m24.6972513 20.2679443-.4145822-.1181039-1.4214245 1.2400911c0 1.7715587 1.1252944 4.5470008 1.1252944 4.5470008l2.3098149-2.893546c-1.9544588-1.0629352-1.5991026-2.775442-1.5991026-2.775442z" fill="#f8f9fa"/><path d="m24.8749293 24.873997c.2369041 2.4211303 2.605945 2.5392342 2.605945 2.5392342l-1.1252944-4.3698449z" fill="#d5dde2"/><path d="m31.0936617 23.1024383 2.1913628 2.4801822s1.0068424-1.7125068 1.6583286-3.8383773l-1.6583286-1.9487146s-.5922602 2.4801823-2.1913628 3.3069097z" fill="#f8f9fa"/><path d="m29.376107 27.5903871s1.6583287-.4724157 2.1321368-.9448313c1.2437465-1.1810392 1.1845205-1.7125068 1.1845205-1.7125068l-1.6583286-1.7715588z" fill="#d5dde2"/></g><g transform="translate(31.30123 48.620347)"><path d="m50.7394075 35.6363077 17.1654203-2.3876923-10.9882449-3.9993846-5.5238203.5372307z" fill="#5c8599"/><path d="m44.562232 86.3150769-10.5130775-5.7901538c-4.8110693-2.6264616-8.9093877-5.7901539-12.4731427-9.312-.4157715-.4178462-.772147-.776-1.1879184-1.1938462-1.5442939-1.6116923-2.9104-3.2830769-4.2171102-5.0141538-1.6036897-2.1489231-3.0885877-4.3575385-4.3952979-6.6258462-.5345632-.8953846-1.0097306-1.7907692-1.4848979-2.7458461-2.37583675-4.5963077-4.27650613-9.2523077-5.64261224-13.7889231-.29697959-.8953846-.53456326-1.7907692-.77214693-2.6861539-.11879184-.4178461-.23758368-.8953846-.35637551-1.3132307-.47516735-1.7310769-.89093877-3.4621539-1.24731428-5.1335385-2.25704488-10.6252308-2.25704488-18.8627692-2.25704488-20.1163077v-.0596923-12.23692306l11.04764074 4.23815384v7.87938462 6.1483077.776.2984615 1.0744616.5372307.3581539.3581538.1193846c0 .2984616 0 .5372308.0593959.8356924 0 .1790769 0 .3581538.0593959.5372307 0 .1790769 0 .3581539.059396.5372308 0 .1790769 0 .3581538.0593959.5969231 0 .1790769.0593959.4178461.0593959.596923 0 .2984616.0593959.5372308.0593959.8356924 0 .1193846 0 .2984615.0593959.4178461 0 .1193846 0 .2984615.0593959.4178462.059396.4178461.059396.8356923.1187919 1.2535384 0 .1790769.0593959.3581539.0593959.5372308v.1193846c.0593959.2984615.0593959.5969231.1187918.8953846v.0596923c.0593959.4178462.1187919.8356923.1781878 1.2535385.0593959.4775385.1187918.8953846.1781877 1.3729231 0 .1790769.059396.2984615.059396.4775384 0 .1193846.0593959.2984616.0593959.4178462 0 .0596923 0 .1193846.0593959.1790769.0593959.2984615.1187918.5372308.1187918.8356923.0593959.4178462.1187919.8356923.2375837 1.3132308 0 .1193846.0593959.2984615.0593959.4178461.0593959.2984616.1187919.5969231.1781878.8356923 0 .1193847.0593959.2984616.0593959.4178462.0593959.2984615.1187918.5969231.1781877.8953846.059396.4178462.1781878.8356923.2375837 1.1938462.0593959.3581538.1187919.6566154.2375837 1.0147692 0 .0596923.0593959.1790769.0593959.2387692.1187918.4178462.1781878.8356923.2969796 1.2535385.0593959.2387692.1187918.4775385.1781877.6566154.1187919.4178461.2375837.8356923.2969796 1.2535384 0 .0596923 0 .0596923.059396.1193847.1187918.4178461.2375836.776.3563755 1.1938461.1187918.4178462.2375836.8953846.3563755 1.3132308.0593959.1790769.1187918.4178461.1781877.5969231.3563755 1.1341538.712751 2.2683076 1.1285225 3.4024615.1187918.3581538.2375836.7163077.3563755 1.0744615.3563755 1.0147693.7721469 2.0295385 1.1879183 3.0443077.1781878.4775385.3563755.8953846.5345633 1.3729231.1781877.4775385.4157714.8953846.5939592 1.3729231.1781877.4775384.4157714.8953846.6533551 1.3729231.1187918.1790769.1781877.3581538.2969796.596923.3563755.776.712751 1.4923077 1.1285224 2.2683077.1187918.1790769.1781878.3581539.2969796.5969231s.2375837.4775385.3563755.6566154c.1781878.2984615.2969796.5969231.4751673.8356923v.0596923c.059396.1790769.1781878.2984615.2375837.4775385.6533551 1.1341538 1.3067102 2.2086153 2.0194612 3.3427692.1187919.2387692.2969796.4178461.4157714.6566154.1781878.2984615.3563756.5372307.5345633.8356923.1187918.1790769.2375837.2984615.3563755.4775384.1781878.2387693.2969796.4178462.4751674.6566154.1187918.179077.2969796.3581539.4157714.5969231.2375837.3581539.5345632.7163077.8315428 1.0744615.1187919.179077.2969796.3581539.4751674.5372308.1781877.2387692.3563755.4178462.5345632.6566154.2375837.2984615.5345633.5969231.772147.8953846.0593959.0596923.0593959.0596923.1187918.1193846.2375837.2984616.5345633.5969231.8315429.8953846.2375836.2387693.4751673.5372308.712751.776.0593959.0596924.1187918.1193847.1187918.1193847s0 0 .0593959.0596923c.2969796.2984615.5939592.596923.8909388.9550769.2969796.2984615.5939592.5969231.8909388.8953846s.5939592.5969231.9503347.8953846c.2969795.2984616.6533551.5969231.9503346.8953846.3563756.2984616.6533551.5969231 1.0097306.8953847.3563756.2984615.772147.6566153 1.1879184.9550769.0593959.0596923.1781878.1193846.2375837.1790769.2375837.1790769.4751673.3581538.6533551.5372308.2375836.1790769.4751673.3581538.712751.5372307.2375837.179077.4751673.3581539.712751.5372308 0 0 0 0 .0593959.0596923 0 0 .0593959 0 .0593959.0596923.2375837.1790769.4751674.2984616.6533551.4775385.2375837.1790769.4751674.2984615.7127511.4775384.2969795.179077.5939591.4178462.8909387.5969231.2375837.1790769.4751674.2984616.772147.4775385.2375836.1790769.5345632.3581538.7721469.4775384.2969796.179077.5345633.2984616.8315428.4775385-.0593959-.0596923.1187919.0596923.2375837.1193846z" fill="#5c8599"/><path d="m86.1393746 40.2326154c-5.1674449 16.5347692-15.2647509 35.7556923-34.9841957 49.1864615-2.197649-.8953846-4.2171102-1.8504615-6.1771755-2.9249231-.1187918-.0596923-.2969795-.1790769-.4157714-.2387692-.1187918-.0596923-.2969796-.1790769-.4157714-.2387692-.2969796-.1790769-.5345633-.2984616-.8315429-.4775385s-.5345632-.2984615-.7721469-.4775384c-.2375837-.179077-.4751673-.2984616-.7721469-.4775385s-.5939592-.3581538-.8909388-.5969231c-.2375837-.1790769-.4751673-.2984615-.712751-.4775384-.2375837-.179077-.4751674-.2984616-.6533551-.4775385 0 0-.0593959 0-.0593959-.0596923 0 0-.0593959 0-.0593959-.0596923-.2375837-.1790769-.4751674-.3581539-.7127511-.5372308-.2375836-.1790769-.4751673-.3581538-.712751-.5372308-.2375836-.1790769-.4751673-.3581538-.6533551-.5372307-.0593959-.0596923-.1781877-.1193846-.2375836-.1790769-.4157715-.2984616-.772147-.6566154-1.1879184-.955077-.3563755-.2984615-.6533551-.596923-1.0097306-.8953846-.3563755-.2984615-.6533551-.5969231-.9503347-.8953846-.2969796-.2984615-.5939592-.5969231-.9503347-.8953846-.2969796-.2984616-.5939592-.5969231-.8909388-.8953846-.2969795-.2984616-.5939591-.5969231-.8909387-.955077 0 0 0 0-.0593959-.0596923-.059396-.0596923-.1187919-.1193846-.1187919-.1193846-.2375836-.2387692-.4751673-.5372307-.712751-.776-.2969796-.2984615-.5345633-.5969231-.8315428-.8953846-.059396-.0596923-.059396-.0596923-.1187919-.1193846-.2375836-.2984615-.5345632-.5969231-.7721469-.8953846-.1781878-.2387693-.3563755-.4178462-.5345633-.6566154-.1781877-.1790769-.2969796-.3581539-.4751673-.5372308-.2969796-.3581538-.5345633-.7163077-.8315429-1.0744615-.1187918-.1790769-.2969796-.3581539-.4157714-.5969231-.1781877-.2387692-.2969796-.4178461-.4751673-.6566154-.1187919-.1790769-.2375837-.2984615-.3563755-.4775384-.1781878-.2984616-.3563756-.5372308-.5345633-.8356923-.1187918-.2387693-.2969796-.4178462-.4157714-.6566154-.712751-1.0744616-1.4255021-2.2086154-2.0194612-3.3427693-.1187919-.1790769-.1781878-.2984615-.2375837-.4775384 0 0 0 0 0-.0596923-.1781878-.2984616-.2969796-.5969231-.4751674-.8356923-.1187918-.2387693-.2375836-.4775385-.3563755-.6566154-.1187918-.1790769-.1781877-.3581539-.2969796-.5969231-.4157714-.776-.7721469-1.4923077-1.1285224-2.2683077-.1187918-.1790769-.1781877-.3581538-.2969796-.5969231-.2375837-.4775384-.4157714-.8953846-.6533551-1.372923-.1781877-.4775385-.4157714-.8953847-.5939592-1.3729231-.1781877-.4178462-.3563755-.8953846-.5345632-1.3729231-.4157714-1.0147692-.772147-2.0295385-1.1879184-3.0443077-.1187918-.3581538-.2375837-.7163077-.3563755-1.0744615-.4157714-1.1341539-.7721469-2.2683077-1.1285224-3.4024616-.0593959-.1790769-.1187919-.4178461-.1781878-.596923-.1187918-.4178462-.2375837-.8953847-.3563755-1.3132308-.1187918-.4178462-.2375837-.776-.3563755-1.1938462 0-.0596923 0-.0596923-.0593959-.1193846-.1187919-.4178461-.2375837-.8356923-.2969796-1.2535384-.0593959-.2387693-.1187918-.4775385-.1781878-.6566154-.1187918-.4178462-.1781877-.8356923-.2969795-1.2535385 0-.0596923-.059396-.1790769-.059396-.2387692-.0593959-.3581539-.1187918-.6566154-.2375836-1.0147693-.1187919-.4178461-.1781878-.8356923-.2375837-1.1938461-.0593959-.2984615-.1187918-.5969231-.1781878-.8953846 0-.1193846-.0593959-.2984616-.0593959-.4178462-.0593959-.2984615-.1187918-.5969231-.1781877-.8356923 0-.1193846-.059396-.2984615-.059396-.4178461-.0593959-.4178462-.1781877-.8356923-.2375836-1.3132308-.0593959-.2984615-.1187919-.5372308-.1187919-.8356923 0-.0596923 0-.1193846-.0593959-.1790769 0-.1193847-.0593959-.2984616-.0593959-.4178462 0-.1790769-.0593959-.2984615-.0593959-.4775385-.0593959-.4775384-.1187919-.8953846-.1781878-1.372923-.0593959-.4178462-.1187918-.8356923-.1781877-1.2535385v-.0596923c-.0593959-.2984615-.0593959-.5969231-.1187919-.8953846 0-.0596923 0-.0596923 0-.1193846 0-.179077-.0593959-.3581539-.0593959-.5372308-.0593959-.4178462-.1187918-.8356923-.1187918-1.2535385 0-.1193846 0-.2984615-.0593959-.4178461 0-.1193846 0-.2984616-.0593959-.4178462 0-.2984615-.059396-.596923-.059396-.8356923 0-.1790769-.0593959-.4178461-.0593959-.5969231 0-.1790769-.0593959-.4178461-.0593959-.596923 0-.179077 0-.3581539-.0593959-.5372308 0-.1790769 0-.3581538-.0593959-.5372308 0-.2984615-.059396-.596923-.059396-.8356923 0-.0596923 0-.0596923 0-.1193846 0-.1193846 0-.2387692 0-.3581538v-.3581539c0-.1790769 0-.3581538 0-.5372308 0-.4178461 0-.776 0-1.0744615 0-.1193846 0-.1790769 0-.2984615 0-.3581539 0-.5969231 0-.776v-6.1483077-7.87938464l8.9687837 3.40246154v9.3716923c0 .1193846.0593959 12.7144615 4.6922775 26.8615385 4.8110693 14.744 12.5325387 25.4886154 22.9268243 32.0547692-.0593959 0-.0593959.0596923-.1187918.0596923l3.6825469 2.0295385c.712751-.5372308 1.3661061-1.1341539 2.0194612-1.6713846.1781877-.179077.4157714-.3581539.5939592-.5372308.2375836-.2387692.4751673-.4178462.7721469-.6566154.2375837-.2387692.5345633-.4775385.7721469-.7163077.1187919-.1193846.2969796-.2387692.4157715-.4178461.653355-.5969231 1.2473142-1.1938462 1.8412734-1.8504616.1187918-.1193846.2375837-.2387692.3563755-.3581538.5345633-.5372308 1.0097306-1.0744616 1.484898-1.6116923.1187918-.179077.2969796-.2984616.4157714-.4775385.1187918-.1193846.1781877-.1790769.2969796-.2984615.4751673-.5372308.9503347-1.1341539 1.425502-1.6713847.1187918-.1193846.1781878-.2387692.2969796-.3581538.4751673-.5969231.9503347-1.1938462 1.425502-1.7907692.1187919-.179077.2969796-.3581539.4157715-.5372308.5345632-.7163077 1.0691265-1.4326154 1.5442938-2.1489231.0593959-.0596923.0593959-.1193846.1187919-.1790769.4751673-.7163077.9503346-1.4326154 1.425502-2.1489231.1781877-.2387692.2969796-.4775384.4751673-.7163077.3563755-.5372307.712751-1.1341538 1.0691266-1.7310769.1781877-.2387692.2969795-.5372308.4751673-.776.3563755-.6566154.7721469-1.3132308 1.1285224-2.0295385.1187919-.1790769.1781878-.3581538.2969796-.5372307 0-.0596923.0593959-.1193846.0593959-.1193846.1781878-.2984616.2969796-.5969231.4751674-.955077.0593959-.0596923.0593959-.1193846.1187918-.1790769.1187919-.1790769.1781878-.3581538.2969796-.5372308.0593959-.1193846.1187919-.1790769.1187919-.2984615.1187918-.2387692.2375836-.4775385.3563755-.7163077 0 0 0-.0596923.0593959-.0596923.1187918-.2387692.2375837-.4178461.2969796-.6566154v-.0596923c.1781877-.4178461.3563755-.776.5345632-1.1938461.1187919-.2984616.2375837-.5372308.4157715-.8356923.0593959-.0596924.0593959-.1193847.1187918-.179077.1187918-.2387692.1781877-.4775384.2969796-.7163077.2375837-.4775384.4157714-.9550769.6533551-1.4923077.1187918-.2387692.1781877-.4775384.2969796-.7163076.0593959-.0596924.0593959-.1193847.0593959-.179077.1187918-.2387692.1781877-.4775384.2969796-.7163077 0 0 0 0 0-.0596923.2375836-.5372307.4157714-1.0744615.5939592-1.6116923.0593959-.2387692.1781877-.4178461.2375836-.6566154 0-.0596923.0593959-.1193846.0593959-.2387692.059396-.1193846.059396-.1790769.1187919-.2984615.1187918-.2387693.1781877-.4775385.2969796-.776 0-.0596923.0593959-.0596923.0593959-.1193846.1781877-.4775385.3563755-.955077.4751673-1.4326154.0593959-.179077.1187919-.3581539.1781878-.5372308.2969796-.9550769.6533551-1.9101538.9503347-2.9249231z" fill="#92d2f4"/><path d="m73.9038155 35.5766154c-.2375837.776-.4751674 1.6116923-.772147 2.3876923-.1187918.3581538-.2375836.6566154-.3563755 1.0147692-.2375836.7163077-.4751673 1.3729231-.712751 2.0295385-.2375836.5969231-.4157714 1.1341538-.6533551 1.7310769-.1781877.4775385-.3563755 1.0147692-.5939592 1.4923077-.2375836.5372308-.4751673 1.1341538-.712751 1.6713846-.1781877.4775385-.4157714.9550769-.5939591 1.4326154-.2375837.5372308-.5345633 1.0744615-.772147 1.6116923-.2375837.4775385-.4157714.8953846-.6533551 1.3132308-.2969796.5372307-.5345632 1.0744615-.8315428 1.6116923-.2375837.4178461-.4157715.8356923-.6533551 1.2535384-.1187919.179077-.1781878.3581539-.2969796.5372308-.3563755.6566154-.772147 1.3132308-1.1285225 1.9698462-.1781877.2984615-.2969795.5372307-.4751673.776-.3563755.596923-.712751 1.1341538-1.0691265 1.7310769-.1781878.2387692-.2969796.4775385-.4751674.7163077-.4751673.7163077-.9503347 1.4326154-1.425502 2.1489231-.0593959.0596923-.0593959.1193846-.1187918.1790769-.5345633.776-1.0691266 1.4923077-1.6036898 2.2086154-.1187919.1790769-.2969796.3581538-.4157714.5372307-.4751674.5969231-.9503347 1.1938462-1.4255021 1.7907693-.1187918.1193846-.1781877.2387692-.2969796.3581538-.5345632.6566154-1.1285224 1.3729231-1.7224816 2.0295385-.1187918.1790769-.2969796.2984615-.4157714.4775384-.4751674.5372308-1.0097306 1.0744616-1.484898 1.6116923-.1187918.1193847-.2375836.2387693-.3563755.3581539-.5939591.5969231-1.2473142 1.2535385-1.8412734 1.8504615-.1187919.1193846-.2969796.2984616-.4157714.4178462-.5345633.4775384-1.0097307.9550769-1.5442939 1.3729231-.1781878.1790769-.4157714.3581538-.5939592.5372307-.6533551.5372308-1.3067102 1.0744616-1.9600653 1.6116923-10.4536815-6.6258461-18.115755-17.3704615-22.9268243-32.0547692-4.6328816-14.1470769-4.6922775-26.7421538-4.6922775-26.8615385v-9.37169226l5.3456326 2.02953846 11.2258285 12.4756923 11.2258285-9.1926154 4.7516734 7.1630769-1.7818775 15.1618462 17.1654202-2.3876923z" fill="#cee9fb"/><g fill="#5c8599"><path d="m77.7645501 37.0689231c-.2969795 1.0147692-.5939591 1.9698461-.9503346 2.9249231-.059396.1790769-.1187919.3581538-.1781878.5372307s-.1187918.3581539-.1781878.5372308c-.1187918.2984615-.1781877.5969231-.2969795.8953846 0 .0596923 0 .0596923-.059396.1193846-.1187918.3581539-.2375836.7163077-.3563755 1.0147693 0 .0596923-.0593959.1193846-.0593959.2387692-.0593959.2387692-.1781877.4178461-.2375837.6566154-.1187918.2984615-.2375836.5372307-.3563755.8356923-.1187918.2387692-.1781877.4775384-.2969796.7163077v.0596923c-.1187918.2984615-.2375836.5969231-.3563755.8953846-.1187918.2387692-.1781877.4775385-.2969796.7163077-.1187918.2387692-.2375836.5372308-.3563755.776-.1187918.2387692-.1781877.4775384-.2969795.7163077-.1187919.2387692-.1781878.4775384-.2969796.7163077-.059396.0596923-.059396.1193846-.1187919.1790769-.1187918.2984615-.2375836.5969231-.4157714.8356923-.1187918.1790769-.1781878.3581538-.2969796.5969231-.1187918.1790769-.1781877.4178461-.2969796.5969231v.0596923c-.1187918.2387692-.2375836.4775384-.3563755.776-.1187918.2387692-.2375837.4775384-.3563755.7163077-.0593959.1193846-.1187918.1790769-.1187918.2984615-.1187919.1790769-.1781878.3581538-.2969796.5372308-.0593959.0596923-.0593959.1193846-.1187919.1790769-5.1080489 9.8492308-11.7009958 17.9673846-19.7194447 24.2947692-1.2473143-.6566154-2.4352326-1.3132308-3.5637551-2.0295384l1.9600653-1.6116924c.1781878-.1790769.4157714-.3581538.5939592-.5372307.5345632-.4775385 1.0097306-.8953846 1.5442939-1.3729231.1187918-.1193846.2969795-.2984615.4157714-.4178462.6533551-.596923 1.2473143-1.1938461 1.8412734-1.8504615.1187919-.1193846.2375837-.2387692.3563755-.3581538.5345633-.5372308 1.0097306-1.0744616 1.484898-1.6116923.1187918-.179077.2969796-.2984616.4157714-.4775385.5939592-.6566154 1.1879184-1.3132308 1.7224816-2.0295385.1187919-.1193846.1781878-.2387692.2969796-.3581538.4751674-.5969231.9503347-1.1938462 1.4255021-1.7907692.1187918-.179077.2969795-.3581539.4157714-.5372308.5345632-.7163077 1.0691265-1.4326154 1.6036898-2.2086154.0593959-.0596923.0593959-.1193846.1187918-.1790769.4751673-.7163077.9503347-1.4326154 1.425502-2.1489231.1781878-.2387692.2969796-.4775385.4751674-.7163077.3563755-.5372308.712751-1.1341538 1.0691265-1.7310769.1781878-.2387692.2969796-.5372308.4751673-.776.3563755-.6566154.772147-1.3132308 1.1285225-1.9698462.1187918-.1790769.1781877-.3581538.2969796-.5372307.2375836-.4178462.4157714-.8356923.6533551-1.2535385.2969796-.5372308.5345632-1.0744615.8315428-1.6116923.2375837-.4178462.4157714-.8953846.6533551-1.3132308.2375837-.5372307.5345633-1.0744615.772147-1.6116923.1781877-.4775384.4157714-.9550769.5939591-1.4326154.2375837-.5372307.4751674-1.1341538.712751-1.6713846.1781878-.4775384.3563756-.9550769.5939592-1.4923077.2375837-.5372307.4157715-1.1341538.6533551-1.7310769.2375837-.6566154.4751674-1.3729231.712751-2.0295385.1187919-.3581538.2375837-.6566153.3563755-1.0147692.2375837-.776.5345633-1.552.772147-2.3876923z"/><path d="m36.603179 22.6233846 11.1664326-9.2523077-10.9882448-3.99938459-7.3650939 5.13353849z"/></g></g><path d="m47.7729787 125.281317c-.4836298 1.262974-.664991 2.586089-.5440835 3.969346l.0604537.781841c0 .240567.1813612.420992.4231761.420992.8463522.060141 11.0025787-.781841 13.2998204-.661558 2.2972416.120283 5.0781132-.661558 4.9572057-2.104957-8.8866981-1.804248-11.5466622-3.00708-11.5466622-3.00708z" fill="#000"/><path d="m61.2687952 129.15907c-1.9668804-.123271-11.164939.493085-13.5946149.554721v.308178c0 .246543.1735483.43145.404946.43145.809892.061636 10.5285954-.801264 12.7268735-.677992 1.9668805.123271 4.2808575-.493086 4.6858035-1.725799-.809892.801264-2.6032242 1.232713-4.2230081 1.109442z" fill="#000"/><path d="m52.0269587 93.8709677 2.8705823 31.1266893s-.9568608 1.868769-3.883729 2.39436c-2.9268682.525592-4.4465882-.291995-4.4465882-.291995l-4.5591601-26.337967-.1125719-6.1318997z" fill="#878787"/><path d="m44.2051837 92.426799s.3745446 32.118207 7.803013 34.962624c-3.2460534.533328-4.9315042-.296293-4.9315042-.296293l-5.0563525-26.725667-.1248482-6.2221621z" fill="#232322"/><path d="m22.1629754 10.9971418c.7726654.2983696 2.2585603 1.3128263 2.9123541.8354349.9509728-.6564131 4.9331714.8354349 5.8247084 2.7450004.3566148.8354349.4754864.5370653.3566148 1.5515219-.1783074 2.2079351-1.3075876 4.2368484-2.97179 5.7883704-4.457685 4.0578266-4.2199418 9.2494578-7.3700391 9.3688056-5.1114788.1790218-9.7474711-5.6093486-9.3314205-11.6364146-.0594358-8.5930447 7.1917317-9.90587096 10.5795723-8.6527186z" fill="#5f4540"/><path d="m14.7460415 25.0322581 6.9443183 3.2153193.1765505 2.9771475c.1177003 1.6672026.7062018 3.0962334 2.0009052 4.0489206 0 0 8.0624712 8.0382982 1.4712539 8.5146418s-13.300135-8.5741848-13.300135-8.5741848c3.0602081-4.5252642 2.7071071-10.1818444 2.7071071-10.1818444z" fill="#f7b282"/><path d="m17.7039506 69.8014888 3.5548442 1.741348 5.9839876 2.9422775 13.8638922 6.4850198c2.784628 1.3210226 5.4507611 2.8822311 7.939152 4.743672 1.8366695 1.381069 2.9623701 3.5427423 2.9623701 5.8245085v1.3810691l-4.3250604 5.2840902-4.9767818-3.7829282-32.1120922-10.8083664z" fill="#878787"/><path d="m22.2966244 81.8362283 19.8940155 9.2677959c1.1150038.5085985 1.8779011 1.5257956 1.99527 2.7125256l.1173688 1.0171971-32.7459017-10.9066134z" fill="#232322"/><path d="m15.3466879 137.677419c-.1291062 1.961527.7100841 3.310076 1.291062 5.761984.4518717 1.655038.5809779 3.73916-3.6149736 3.861756-3.87318614.122595-3.87318614-2.574504-3.87318614-2.94229s.51642482-4.719923.51642482-4.719923z" fill="#000"/><path d="m12.9801602 146.581497c-1.3133383.051461-2.4296758-.154383-3.34901266-.411688.45966836.617533 1.44467216 1.183605 3.48034646 1.132143 2.4953428-.051461 3.4803465-.668994 3.7430142-1.44091-.9193368.360228-2.1670082.668994-3.874348.720455z" fill="#000"/><path d="m25.522541 72.5618648-.8373393 6.9170605c-.1794298 1.3714862-.8971492 2.5640828-2.0933481 3.2796408-.7177194.4174088-1.196199 1.1329668-1.3756288 1.9081546l-3.5885969 24.2097123-.6579094 31.84233s-.6579094.536668-3.8876466.775188c-3.22973718.238519-3.58859687-.834818-3.58859687-.834818l-1.67467853-14.907458c-.35885969-3.875939-1.01676911-8.169287-.35885969-11.985596l.71771937-4.293348-1.25600889-13.0589334c-.29904974-2.8622319-.65790943-6.1418727-.47847959-8.9444748l.23923979-3.2796407c.05980995-.5962984 0-1.1925967-.23923979-1.788895-.59809947-1.788895-.77752931-3.6374198-.59809947-5.4859446l.53828953-5.1877954z" fill="#878787"/><path d="m9.80331075 108.880661c-1.60732668-13.9344788.34442715-26.5588789.34442715-26.5588789s7.8070153 0 8.1514424-7.384083l-11.82533195-3.6920415h-.11480905l-.51664072 5.1807679c-.17221357 1.8460208 0 3.6920415.57404525 5.4785132.17221357.5954906.22961809 1.1909812.22961809 1.7864717l-.22961809 3.2751982c-.2296181 2.8583547.17221357 6.1335528.45923619 8.9323585l1.20549501 13.0412439-.68885429 4.287532c-.57404525 3.811139 0 8.098671.34442714 11.96936l1.60732668 14.887264s-2.69801264-19.591639.45923619-31.203706z" fill="#000"/><path d="m10.8842016 75.222885c-.2571656 2.5216068-.7714967 6.1148965-.7714967 6.1148965s5.1433109.5043213 6.5577214-3.9715307c1.4144106-4.4758521-5.7862247-2.1433658-5.7862247-2.1433658z" fill="#878787"/><path d="m4.29655277 36.7767213 6.99781943-2.5109479s5.0572477 6.6360765 11.3494047 5.7393094c1.8229614-.2391378 1.9405718-4.1251286.4116365-5.6795249.2352208.1793534 3.2342863-1.7337497 8.2327287-.8967671.6468573 1.1956895.8820781 9.2665933-.7056624 11.8971102-.2940261-.119569-1.7641562.8967671-1.7641562.8967671v.0597844c.1764156 2.1522411.0588052 4.3044821-.3528312 6.3969387-.5292469 2.9294391-1.2349093 7.1741367-1.1761041 8.6089641.294026 6.0980162 2.293403 13.0927996 1.6465457 14.2884891-.9408833 1.6739652-9.2912225 4.6631889-23.16925099 1.4946118-.23522082-13.5710754-1.11729891-23.7942203-1.11729891-23.7942203l-3.1754811-5.0218958c-1.29371453-2.0924565-1.82296138-4.6034044-1.23490932-6.9947833.52924685-1.9131032 1.58774055-3.7664218 4.05755919-4.4838355z" fill="#7bb929"/><path d="m18.3463425 34.2770706c.8222843.5604384 4.1746741 1.8681279 5.249969 1.1208767-.1897579-.1245418-.3162632-.2490837-.5060211-.4358965-1.0120423-.9963348-1.5180634-2.3040243-1.6445686-3.7985266l-.189758-3.1135464-6.2620112-2.0549406s-.8222843 5.5421126 3.3523899 8.2820334z" fill="#bb6636" opacity=".1"/><path d="m16.2071688 22.268171c.7104945-3.7282893 2.3683149-2.4466899 3.3748488-3.7865438 2.2498992-2.9709805 4.6774221.5825452 8.3483103 1.9806537 0 .2912726-1.1249496 5.5924339-1.420989 6.4079972-1.9538599 5.1846523-1.6578205 5.8837065-5.3287087 5.1263977-3.6708882-.8155632-6.1576189-2.912726-6.8089055-5.3594158-.1776237-.6407997-.8881181-3.4370167-.8881181-3.4370167.6512866.0582545 2.4275228.4660362 2.7235622-.9320723z" fill="#f7b282"/><path d="m14.6981722 20.5401201c.4518406.3594461.193646 4.9723381-.3872919 4.9723381-1.4200702.0599077-2.1301053-2.1566768-2.2592026-3.5944613-.1936459-1.8571383 1.8719108-1.9769537 2.6464945-1.3778768z" fill="#f7b282"/><g transform="translate(44.303279)"><g transform="translate(71.537494 31.44213)"><path d="m31.6893361 43.2477601c-.1773656-1.2458203-.2956094-2.4916405-.3547313-3.7374608-.7094628-.1186495-1.3598036-.6525725-1.3598036-1.4237946 0-.8305468 0-1.6610936.0591219-2.4916405-.591219.533923-1.7736569.2966239-2.1283883-.4152734-.2364876-.4745982-.3547314-.9491964-.4729752-1.4831193-.8868284.3559486-2.0101444-.1779743-2.0101444-1.305145 0-.4152735 0-.8305469.0591219-1.1864955-2.1283883 4.3307085-.2956095 9.3733142-2.3057539 13.8226723-.2364876 2.3729909-1.5962912 4.6866571-1.8327788 7.059648-.1182438 1.067846-.9459504 2.6696149-.9459504 3.7967856-.5912189 4.6273323-1.9510225 8.7800665-2.1283882 13.4667236-.2364876 5.9324774-.1773657 11.9242795-.4729752 17.8567569-.0591219.8305468.1773657 11.6869804-1.123316 16.1956636.0591219 0 .1182438.059324.1773657.059324 1.5962912.415274 2.8969729-.118649 3.9020451-1.12717.8868285-4.3307088 2.0101445-8.6020925 2.8969729-12.8734762.4729752-2.2543414.8868285-4.5680076 1.123316-6.822349.2956095-2.3136662.3547314-4.6273323.591219-6.9409985.1773657-2.2543414.3547314-4.5086828.7685846-6.7036994.4138533-2.1950167 1.0050723-4.2713837 1.6554131-6.4070756 1.1824379-3.9747598 2.6013634-7.9495197 3.0152167-12.1022538.1773657-1.839068.2364876-3.7374608.4138533-5.6358536.3547314-.0593247.6503408-.1186495 1.0050722-.1779743.2956095-.0593247.5320971-.1779743.7685847-.3559486-.6503409-.0593248-1.2415599-.3559487-1.3006818-1.0678459" fill="#55210e"/><path d="m20.6335416 99.9622438c-.7094627 2.0170422-1.3598036 4.0340842-2.246632 5.9918022h.1182438c-.2364876.711897-.4729752 1.423794-.8277066 2.017042-.0591219.177975-.1773656.355949-.2364875.474598-.0591219.059325-.0591219.11865-.1182438.237299v.059325c-.7094628 0-1.2415598 1.305145-.591219 1.720419 1.4780474.889871 2.5422415-2.313666 2.8969729-3.262863.7094628-1.661094 1.8919007-3.618811 2.0692664-5.398554.1182437-.771222-.3547314-1.542444-1.0641942-1.8390682" fill="#bfc3c6"/><path d="m21.0473949 99.9622438c.0591219-.3559487.0591219-.6525726-.0591219-.9491964-1.0050722-.6525725-2.1875101-.7118973-3.4290699-.6525725 0 0-.2956095 0-.2956095.0593247-.0591219 1.5424442-.3547314 3.2628624-1.4189255 4.3900334-1.3598036 1.542444-2.5422415 2.669615-3.0743386 4.745982 0 .177974.0591219.296624.1182438.415273.4729751 1.423795 1.8327788 2.195017 3.1334605 1.720419.1182438-.059325.2364875-.11865.3547313-.177975.4138533-.118649.7685847-.355948 1.0641942-.711897.3547313-.415273.5912189-.889872.8868284-1.305145.4729752-.652572.9459503-1.127171 1.3006817-1.839068.2364876-.533923.4138533-1.127171.6503409-1.661094.3547313-.711897.8868284-1.305145 1.2415598-2.017042.2956094-.711897.0591219-1.483119-.4729752-2.0170422" fill="#2f262e"/><path d="m12.4155981 108.089738c-.0591219.652572-.1182438 1.24582.1773657 1.542444.2364876.237299.591219.355949.9459503.474598.591219.237299 1.2415598.415273 1.8327788.593248.591219.118649 1.1824379.118649 1.714535.059325.6503408-.652573.9459503-1.957718.8868284-2.788265 0-.296624-.1182438-.652572-.2364876-.949196-.2956094-.415274-.8277065-.652573-1.1824379-.889872-.7685846-.355948-1.5962912-.593248-2.4239977-.533923s-1.3006817.593248-1.5962912 1.245821c0 .415273-.0591219.830546-.1182438 1.24582" fill="#bfc3c6"/><path d="m44.9917627 37.4339322c-.0591219-1.0085211-.8277065-1.8983927-1.8327788-1.9577175-.7094627 0-1.3598036.4152734-1.7145349 1.0085212-2.3648759 0-4.7297517-.0593248-7.0946275-.0593248.1773656 0 .2956094.4745982.4138532 1.2458202-1.0050722-.1779743-1.7736568.4152734-2.1875101 1.305145-.7685847 1.7797433-.5320971 3.8561103-.2956095 5.6951783s.6503409 3.7374608.8277065 5.4578792c.591219 4.983281 1.4780474 9.9072372 2.1875102 14.8905182.1773657 1.4237946.4138533 2.7882644.5912189 4.212059.1182438 10.3225106.8277066 20.6450212.8868285 30.967532.1182438.415273.2364876.771222.3547314 1.186495.1773656.533923.4138532 1.008521.6503408 1.48312.8277066.771222 1.8919007 1.186495 3.1925824.949196.0591219 0 .1182438 0 .1773657-.059325-.4138533.11865 0-10.9157581.1773657-11.9242792.8868284-5.2799049 2.246632-10.4411602 1.9510225-15.7803899-.3547314-6.1104517.6503409-12.2802281 1.5371693-18.3313551 1.0050722-6.8816737.4138533-13.2887493.1773657-20.2890726" fill="#55210e"/><path d="m37.8380133 99.902919c.5320971 2.076367 1.0050722 4.152734 1.714535 6.169776-.0591219 0-.1182438 0-.1182438 0 .1773657.711898.3547314 1.423795.591219 2.076368.0591218.177974.1182437.355948.2364875.533922.0591219.059325.0591219.11865.1182438.2373v.059324.059325c.7094628.059325 1.123316 1.423795.4138533 1.779743-1.5371693.771222-2.3057539-2.550965-2.6013634-3.500161-.5320971-1.720419-1.5962912-3.796786-1.5962912-5.576529 0-.830547.5320971-1.542444 1.2415598-1.839068" fill="#bfc3c6"/><path d="m37.42416 99.902919c-.0591219-.3559487 0-.6525725.1182438-.9491964 1.0641942-.5932477 2.2466321-.4745982 3.4881919-.3559486 0 0 .1773657 0 .1773657.0593247-.1182438 1.5424443.2364876 3.2628623 1.1824379 4.5680073 1.2415598 1.661094 2.3057539 2.847589 2.6604853 4.983281-.0591219.11865-.1182438.296624-.1773657.415274-.5912189 1.423794-2.0101444 2.017042-3.2517043 1.423794-.1182438-.059324-.2364875-.118649-.3547313-.177974-.4138533-.177974-.7685847-.474598-1.0050723-.830547-.2956094-.474598-.4729751-.949196-.7685846-1.423794-.4138533-.652573-.8277065-1.245821-1.123316-1.957718-.2364876-.533923-.2956095-1.127171-.5320971-1.720418-.2956095-.771222-.7685846-1.36447-1.0641941-2.135692-.1773657-.652573.1182438-1.423795.6503408-1.898393" fill="#2f262e"/><path d="m45.3464941 108.74231c0 .652573 0 1.245821-.3547314 1.48312-.2364876.237299-.6503409.296623-1.0050722.415273-.6503409.177974-1.2415598.355949-1.8919007.415273-.591219.059325-1.1824379 0-1.714535-.118649-.5912189-.711897-.7685846-2.017042-.6503408-2.906914.0591219-.296624.1773657-.652573.2956095-.949196.3547313-.355949.8277065-.593248 1.2415598-.771222.7685846-.296624 1.5962912-.474599 2.4831196-.296624.7685846.118649 1.2415598.652572 1.4780474 1.423794.0591219.474598.1182438.889872.1182438 1.305145" fill="#bfc3c6"/><path d="m2.30575394 35.0016165c0-.0593248-.0591219-.0593248-.0591219-.1186495-.17736569-.2372991-.35473137-.533923-.35473137-.8898716 0-.2966239 0-.533923 0-.8305469.05912189-.0593248.05912189-.1186495.05912189-.1779743l1.30068171.533923c.11824379.0593247.23648758.1779743.35473137.2966238.1182438.1186496.17736569.2966239.1182438.4152734 0 .1186496-.1182438.1779744-.17736569.2966239-.23648759.2372991-.41385327.533923-.65034086.7712221-.05912189.0593247-.11824379.0593247-.17736568.0593247-.0591219 0-.17736569 0-.23648759-.0593247-.11824379-.0593248-.11824379-.1779743-.17736568-.2966239" fill="#f19d81"/><path d="m10.0507223 25.5096527c1.4780474-1.8983928 3.0743386-3.7374607 4.7297516-5.3985544 1.8919007-1.839068 2.1875102-5.0426058 2.6604854-7.4749215.4138532-2.0763671 3.961167-14.59389433 7.8040902-11.80562997.4138533.29662387.591219.88987161.591219 1.42379457-.0591219 2.13569186-1.182438 4.50868281-2.0692664 6.34775079-.1182438.17797432-.2364876.29662387-.3547314.35594864-.4729751 2.61029007-.7094627 4.80530667-1.655413 7.17829767-.7094628 1.7797432-2.0692664 3.7967855-2.7787291 5.5172039-.8868285 2.0170423-2.5422416 3.678136-4.1385328 5.1612553-.3547313.2966239-.6503408.5932478-1.0050722.9491964-1.3598036 1.2458203-2.7196072 2.4916405-4.07941079 3.7374608-.76858465.6525725-3.31082617 3.6781359-3.96116702 1.9577175-.23648759-.5932477-.11824379-.533923.11824379-1.1864955.82770654-2.4916405 2.60136341-4.7459819 4.13853272-6.7630242" fill="#f7ae83"/><path d="m3.72467944 31.7980787c-.65034086.1779743-1.18243792.4745982-1.59629119.8305469-.17736569.1186495-.29560948.3559486-.29560948.5932477 0 .4152734.35473137.5932477.65034085.7712221.23648759.1186495.47297517.3559486.41385327.6525725-.05912189.1186495-.11824379.2372991-.23648758.2966238-1.00507223 1.0085212-1.4189255 1.4237946-2.42399773 2.4323158.29560948.1779743.65034086.1779743 1.00507223 0 .29560948-.1186496.53209706-.4152735.82770654-.6525726.76858465-.771222 1.06419413-.9491963 1.83277877-1.7204184.29560948-.2966239.82770654-.6525725 1.12331602-.3559486-.11824379.5339229-.70946275.8305468-1.24155981 1.0678459-.23648758.1186495-.17736569.4152734.0591219.4745982.65034085.1186495 1.3598036 0 1.95102256-.2966239.82770654-.4152734 1.4189255-1.2458202 1.59629118-2.1356918.0591219-.2966239.0591219-.5932478.17736569-.8898716.0591219-.1186496.0591219-.2372991.0591219-.3559487 0-.1186495-.11824379-.2372991-.23648759-.2966239-.94595033-.771222-2.42399772-.8305468-3.66555753-.4152734" fill="#f7b089"/></g><path d="m103.995415 6.1104517c-.709463.29662386-2.010145.05932477-2.601364-.41527342-1.123316-.94919638-4.1385324.11864955-5.3209703 2.90691391-.3547314.83054683-.4729752 1.83906801-.4138533 2.90691391.1182438 2.3136662 1.0641941 4.449358 2.4831196 5.9918022 3.842923 4.1527341 3.547314 9.6106133 6.326043 9.7292628 4.552386.1779744 8.809162-5.9324773 8.631797-12.2802281.413853-8.8393913-6.030434-10.2038611-9.104772-8.8393913z" fill="#a4a3a3"/><path d="m88.2098685 46.6292722 2.5422415-9.5512886c1.5962912-5.7545031 9.814235-8.0088445 9.814235-8.0088445s8.099699-.1186495 11.824379 1.3051451c3.665557 1.4237945 6.089555 3.915435 6.089555 3.915435l-1.537169 6.7036995-2.601364 8.0681692c-1.064194 3.2628625-1.005072 6.7630242.177366 9.966562.29561.8898716.650341 1.7204184 1.005072 2.61029 1.24156 3.3221873 3.192583 19.0432524 1.300682 30.0776603-13.775402 2.2543414-26.1909997-.8305468-26.1909997-.8305468l4.2567765-21.772192c1.0641941-6.8816737 1.5962911-12.9921254 1.0050722-19.5178506l-.8868285-1.7204184-4.0202889 4.983281z" fill="#44195e"/><path d="m101.157564 24.0858581.118243 4.983281-1.7145345.1779744s-1.714535 3.7374607-2.0692663 6.0511269c-.4138533 2.4916405 7.2719928 3.7374607 9.9324788-4.212059 2.660485-7.9495196-2.364876-10.1445363-2.364876-10.1445363z" fill="#e6b289"/><path d="m105.059609 20.9416451-3.902045 3.144213.118243 4.3900333c.059122 0 .059122-.0593248.118244-.0593248l6.089556-3.5001616-.059122-1.3051451c-1.064194-1.7797432-2.364876-2.6696148-2.364876-2.6696148z" fill="#d89c73"/><path d="m95.895715 15.2464669c.4138533 1.4237945-.9459504 3.7967855-.5320971 5.1612553.2364876.771222 1.6554131 3.7967855 2.7787291 5.3985544.4729752.7118973 1.1824379 1.3644698 2.010144 1.4237945.532098.0593248 1.064195-.1186495 1.53717-.3559486l5.853067-3.3815121-.591219-10.0258868-9.2821371-3.67813593-1.1233161 1.24582023c-.7685846.8305468-1.123316 1.9577175-.8868284 3.0848883z" fill="#e6b289"/><path d="m106.182925 18.7466285c.177366-.533923.532097-.9491964 1.064194-1.0678459.236488-.0593248.472975-.0593248.768585.0593247.886828.4152735-.118244 3.2035378-1.478048 3.3815122-1.005072.237299-.591219-1.4831194-.354731-2.372991z" fill="#e6b289"/><path d="m97.0781529 17.0262101c0 .0593247.0591219.1186495.0591219.1186495s0-.0593248-.0591219-.1186495z" fill="#d89c73"/><path d="m92.6440107 50.3667329.1182438.2372991 1.5962912-1.9577175-.2956095-.5932478c-1.0050722-2.2543414-1.2415598-4.8053066-.6503408-7.1782976l.7094627-2.9662387-1.123316 2.4323157c-1.5371693 3.0848883-1.6554131 6.7036995-.3547314 10.0258868z" fill="#020203" opacity=".05"/><path d="m106.6559 50.2480834s-4.434142-.8305469-6.385165-1.0085212c-1.9510223-.2372991-3.9020449.4152734-3.7838011.5932477.591219.2372991 4.6115081 1.3051451 10.1689661.4152735z" fill="#020203" opacity=".05"/><path d="m86.1997241 9.37331425c-.1773657-.05932477-.4138533-.17797432-.591219-.23729909-.1182438-.05932478-.2364876-.05932478-.2956095-.11864955-.1182438-.05932478-.2956094-.11864955-.4138532-.17797432l-.2364876-.11864955c-.1182438-.05932477-.2956095-.11864955-.4138533-.11864955-.1182438-.05932477-.2956095-.11864955-.4138533-.11864955-.0591219 0-.1773656-.05932477-.2364875-.05932477-.2956095-.11864955-.591219-.17797432-.8868285-.29662387-.5912189-.17797432-1.3006817-.35594864-1.9510225-.53392296-.3547314-.05932477-.7094628-.17797432-1.0641942-.2372991-.1773657-.05932477-.3547313-.05932477-.532097-.11864954-.1773657-.05932478-.3547314-.05932478-.5320971-.11864955s-.3547314-.05932477-.5912189-.11864955c-.2364876-.05932477-.4138533-.05932477-.6503409-.11864955-.4138533-.05932477-.8277065-.11864954-1.2415598-.17797432-.1773657 0-.3547314-.05932477-.4729752-.05932477-.0591219 0-.0591219 0-.1182438 0 0 0-.0591219 0-.1182438 0-.1773657 0-.4138532-.05932477-.5912189-.05932477-.4729752-.05932478-.8868285-.11864955-1.3598036-.11864955-.1182438 0-.1773657 0-.2956095-.05932478-.1182438 0-.2364876 0-.2956095 0-.4138533-.05932477-.8277065-.05932477-1.3006817-.11864954-.0591219 0-.1182438 0-.1182438 0h-.0591219c-.1773657 0-.3547314 0-.532097-.05932478-.0591219 0-.1182438 0-.1773657 0h-.0591219c-.2364876 0-.4138533 0-.6503409-.05932477-.1182438 0-.2956095 0-.4729751 0-.3547314 0-.7685847 0-1.1233161-.05932477-.0591219 0-.1182438 0-.1773657 0-.2364875 0-.4729751 0-.7094627 0-.1773657 0-.3547314 0-.5320971 0s-.3547313 0-.532097 0h-.1182438c-.2364876 0-.4138533 0-.6503409 0h-.1773657c-4.1385327.05932477-8.9274062.35594864-14.3074987 1.1271707-28.969729 4.0934094-38.7248418 15.1871421-39.8481578 16.4922871l-10.99667262-5.8731526c.05912189-.0593248.11824379-.2966239.23648758-.4152734.29560948-.2966239.76858464-.8898716 1.59629118-1.6017689.82770655-.7712221 1.95102257-1.6610937 3.48819186-2.7289396 1.89190066-1.305145 4.3750203-2.7882644 7.5084808-4.27138371 6.207799-2.96623869 15.0760834-5.8731526 27.3143158-7.59357104 5.0253612-.71189729 9.4595033-1.06784593 13.4206704-1.1271707h.7685846.6503409 1.123316c11.2331602.17797432 17.7365687 2.61029004 21.0473949 4.39003325z" fill="#6e9eb6"/><path d="m11.1149164 23.7299095-.0591219 18.627979-10.9966726-4.212059.05912189-20.2890726z" fill="#5c8599"/><path d="m78.7503652 17.4414835-.0591219 26.7554729c0 .1186496-.1182438 12.6955016-4.7888736 28.060618-.0591219.2966239-.1773656.533923-.2364875.7712221l-5.9713115-2.3136662-17.0862279 2.3729909 1.7736569-15.0684925-4.7297517-7.1189728-11.1740383 9.1360151-11.1740383-12.3988777-5.3209706-2.0170423.0591219-18.2720303c5.0253611-3.5594864 15.1943272-8.4241179 31.216361-10.6784593 8.2179435-1.1864955 14.9578396-1.1864955 20.1605664-.6525725 2.837851.2966239 5.2027269.7118973 7.2128713 1.2458203z" fill="#cee9fb"/><path d="m88.3281123 10.3225106c-.0591219-.0593247-.1182438-.0593247-.1773657-.1186495-.1182438-.0593248-.2364876-.1186496-.3547313-.1779743-.1182438-.05932481-.1773657-.11864959-.2956095-.11864959-.0591219-.05932477-.1182438-.05932477-.2364876-.11864954 0 0 0 0-.0591219 0-.1773657-.05932478-.2956095-.11864955-.4729752-.2372991-.1773657-.05932477-.3547313-.17797432-.5912189-.23729909 0 0-6.3260429-2.96623869-17.027106-3.26286256-.591219 0-1.2415598-.05932477-1.8919007-.05932477-.1773657 0-.3547314 0-.532097 0-.1773657 0-.3547314 0-.5320971 0h-.1182438c-.2364876 0-.4138533 0-.6503408 0h-.1773657c-.1773657 0-.2956095 0-.4729752 0-.2364876 0-.4138533 0-.6503409 0-.1182437 0-.2956094 0-.4138532 0-.2956095 0-.591219 0-.8868285 0-.2364875 0-.4729751 0-.7685846.05932477-.2364876 0-.5320971 0-.7685847.05932478-.1182437 0-.2956094 0-.4138532 0-.2364876 0-.5320971 0-.7685847.05932477-.3547313 0-.7685846.05932477-1.123316.05932477-.2364876 0-.4729752.05932478-.7685846.05932478-.1182438 0-.2956095 0-.4138533.05932477-.2956095 0-.591219.05932477-.8868284.05932477-.6503409.05932478-1.3006818.11864955-1.9510226.17797433-.5320971.05932477-1.123316.11864954-1.6554131.17797432-.7094627.11864954-1.4189255.17797432-2.1283882.29662387-.7685847.11864954-1.5371693.23729909-2.2466321.35594864-.3547314.05932477-.7094627.11864955-1.123316.17797432-.1182438 0-.2364876.05932477-.3547314.05932477-.3547313.05932478-.7094627.11864955-1.0641941.17797432-.4729752.05932478-.9459503.17797432-1.3598036.2372991-.2956095.05932477-.591219.11864955-.8868284.17797432-.2364876.05932477-.4729752.11864955-.7094628.11864955-.2956095.05932477-.532097.11864954-.8277065.17797432-.2956095.05932477-.591219.11864955-.8868285.17797432-.4138532.11864955-.8868284.17797432-1.3006817.29662387-.532097.11864955-1.0641941.23729909-1.5962912.41527341-1.5371692.35594865-2.9560947.77122208-4.3750202 1.18649548-.5320971.1779743-1.1233161.3559486-1.6554131.533923-.2956095.0593247-.5320971.1779743-.7685847.2372991-.2364876.0593247-.532097.1779743-.7685846.2372991-.2364876.1186495-.5320971.1779743-.7685847.237299-.2364875.1186496-.4729751.1779744-.7094627.2966239-.4138533.1186496-.8277066.2966239-1.2415598.4745982-.0591219 0-.1182438.0593248-.1773657.0593248-.2364876.1186495-.4729752.1779743-.7094628.2966238-.2364875.1186496-.4729751.1779744-.6503408.2966239-.2364876.1186496-.4138533.1779743-.6503409.2966239-.2364876.1186495-.4138532.1779743-.6503408.2966239-.2364876.1186495-.4138533.1779743-.591219.2966238-.1773657.0593248-.2956095.1186496-.4729751.1779743-.6503409.2966239-1.3006818.5932478-1.8919007.8898717-.3547314.1779743-.7685847.3559486-1.0641941.5339229-.1773657.1186496-.3547314.1779743-.5320971.2966239-.1773657.1186495-.3547314.1779743-.5320971.2966239-.3547313.1779743-.6503408.3559486-.9459503.5339229-.1773657.1186496-.2956095.1779743-.4729752.2966239-.1773656.1186495-.2956094.1779743-.4729751.2372991-.1182438.1186495-.2956095.1779743-.4138533.2966238-.2956095.1779744-.5320971.3559487-.8277065.533923-.2956095.1779743-.5320971.3559487-.7685847.533923-.1182438.0593247-.2364876.1779743-.3547314.2372991-.1773656.1186495-.3547313.2372991-.532097.3559486-.1182438.0593248-.1773657.1186496-.2364876.1779743-.0591219.0593248-.1773657.1186496-.2364876.1779744-.1773657.1186495-.3547314.2372991-.4729752.3559486-.2956094.2372991-.5912189.4745982-.8868284.7118973-.1182438.1186495-.2364876.2372991-.3547314.2966239-.1182438.1186495-.2364876.1779743-.3547313.2966238-.1182438.1186496-.2364876.1779743-.2956095.2966239-.2956095.2966239-.591219.533923-.8277066.771222-.0591219.0593248-.1182438.1186496-.1773656.1779744-.0591219.0593247-.1182438.1186495-.1182438.1186495-.0591219.0593248-.0591219.0593248-.1182438.1186496-.0591219.0593247-.0591219.1186495-.1182438.1186495-.2956095.2966239-.4729752.533923-.5320971.5932477l-.0591219 18.627979 8.9274063 3.3815121.0591219-18.2720303c5.0253611-3.5594864 15.1943272-8.4241179 31.216361-10.6784593 8.2179435-1.1864955 14.9578396-1.1864955 20.1605664-.6525725 2.837851.2966239 5.2027269.7118973 7.2128713 1.2458203.0591219 0 .0591219 0 .1182438.0593247.1182438.0593248.2364876.0593248.3547314.1186496s.2364876.0593248.2956095.1186495c.0591219 0 .1182438.0593248.1773656.0593248.1773657.0593248.3547314.1186495.5320971.1779743 1.0641941.3559487 1.3598036.4745982 1.9510226.7118973.0591219 0 .1182438.0593248.1773657.0593248s.1182437.0593248.1773656.0593248l-.0591219 27.526695v.5339229.1186496c0 .2966238 0 .6525725-.0591218 1.0678459v.2372991c0 .4745982-.0591219 1.0085212-.1182438 1.6610937 0 .2372991-.0591219.4152734-.0591219.6525725v.2372991c0 .1186495 0 .2372991-.0591219.3559486 0 .2966239-.0591219.5932478-.1182438.9491964v.2372991c0 .1186495 0 .2372991-.0591219.4152734v.0593248c0 .1186495 0 .2372991-.0591219.3559486v.1779743.0593248c0 .1186496 0 .1779743-.0591219.2966239v.1186495c0 .2372991-.0591219.533923-.1182438.7712221v.2372991c-.0591219.2966239-.0591219.6525725-.1182438.9491964 0 .2372991-.0591219.4152734-.0591219.6525725 0 .1186495-.0591219.2372991-.0591219.3559486-.0591219.3559487-.1182438.7712221-.1773657 1.1271707-.0591219.2372991-.0591219.4745982-.1182438.6525725-.0591219.3559487-.1182438.6525725-.1773657 1.0085212-.0591218.4745982-.1773656.9491964-.2364875 1.4831193-.0591219.2372991-.0591219.4152734-.1182438.6525725-.1182438.5932478-.2364876 1.1864955-.3547314 1.7797433v.0593247c-.1182438.5932478-.2364876 1.2458203-.4138533 1.839068-.0591219.2372991-.1182438.4745982-.1773657.7118973-.1182437.4152734-.1773656.8305468-.2956094 1.2458202-.4729752 2.0170424-1.0050723 4.0934094-1.6554131 6.2884261-.0591219.2372991-.1182438.4745982-.2364876.771222 0 .1186496-.0591219.1779743-.0591219.2372991l8.3361873 3.2035378c5.3800925-17.2041844 5.4392144-31.3828053 5.4392144-32.7472751l.0591219-32.5693008c0-.1779743-.8868284-1.0085211-2.837851-2.0763671z" fill="#92d2f4"/><g fill="#5c8599"><path d="m82.4159227 18.6873037-.0591219 27.526695v.533923.1186496c0 .2966238 0 .6525725-.0591219 1.0678459v.2372991c0 .4745982-.0591218 1.0085211-.1182437 1.6610936 0 .2372991-.0591219.4152735-.0591219.6525726v.237299c0 .1186496 0 .2372991-.0591219.3559487 0 .2966239-.0591219.5932477-.1182438.9491964v.2372991c0 .1186495 0 .2372991-.0591219.4152734v.0593248c0 .1186495 0 .2372991-.0591219.3559486v.1779743.0593248c0 .1186495 0 .1779743-.0591219.2966239v.1186495c0 .2372991-.0591219.533923-.1182438.7712221v.2372991c-.0591219.2966238-.0591219.6525725-.1182438.9491963 0 .2372991-.0591219.4152735-.0591219.6525726 0 .1186495-.0591219.237299-.0591219.3559486-.0591219.3559486-.1182438.7712221-.1773657 1.1271707-.0591219.2372991-.0591219.4745982-.1182438.6525725-.0591219.3559487-.1182438.6525725-.1773657 1.0085212-.0591219.4745982-.1773656.9491963-.2364875 1.4831193-.0591219.2372991-.0591219.4152734-.1182438.6525725-.1182438.5932478-.2364876 1.1864955-.3547314 1.7797432v.0593248c-.1182438.5932477-.2364876 1.2458203-.4138533 1.839068-.0591219.2372991-.1182438.4745982-.1773657.7118973-.1182438.4152734-.1773656.8305468-.2956094 1.2458202-.3547314 1.5424441-.7685847 3.0848883-1.182438 4.7459819-.1182437.533923-.2956094 1.0085212-.4729751 1.5424441-.0591219.2372991-.1182438.4745982-.2364876.7712221 0 .1186495-.0591219.1779743-.0591219.2372991l-3.8429232-1.4831194c.0591219-.237299.1773657-.5339229.2364876-.771222.1773656-.533923.2956094-1.0678459.4729751-1.6017689 4.1976546-14.5938943 4.3158984-26.3401995 4.3158984-26.4588491l.0591219-26.7554729-.1182438-.0593248c.0591219 0 .0591219 0 .1182438.0593248.1182438.0593247.2364876.0593247.3547314.1186495s.2364876.0593248.2956095.1186495c.0591219 0 .1182438.0593248.1773657.0593248.1773656.0593248.3547313.1186496.532097.1779743 1.0641941.3559487 1.3598036.4745982 1.9510226.7118973.0591219 0 .1182438.0593248.1773657.0593248.1773656-.1186495.2364875-.1186495.2956094-.0593248z"/><path d="m25.3041714 47.7564429 11.1740383 12.4582024-10.9966726-4.2120589-12.47472-12.8734759z"/><path d="m47.7113699 51.0193054 4.6706298 7.1189729-9.104772-3.5001617z"/><path d="m43.2772277 54.6381166 9.104772 3.5001617-1.7736569 15.0091677-9.104772-3.4408369z"/></g><path d="m101.630539 55.8839369-8.7500407-.5932478c-.591219-.4745982-1.4189255-1.7797432-1.9510226-1.8983927-.7094627.6525725-2.0101444 1.5424441-3.2517042 1.4237945l-1.9510226-.5339229c-1.0641941-.3559487-1.2415598-.2966239-1.5371693.2372991l2.7787291 1.1271707 1.4780474.2372991h-1.8919007l-1.7145349-.4152735c-.2956095-.0593247-.591219.1186496-.7094628.4152735l-.1182438.4152734c.0591219.2372991.1182438.4152734.1182438.4152734l1.8327788 1.4831193 2.6013634.8305469s.7685846.3559486 4.2567765-.533923l8.5135526 1.1271707z" fill="#e6b289"/><path d="m116.883988 43.4850592c-1.478047 2.3136661-8.0997 15.0091677-8.0997 15.0091677-.650341 1.305145-2.010144 2.0763671-3.42907 2.0170423l-5.3800922-.4152734.4138532-4.6273324 4.315898.0593248s2.010145-5.8731526 3.251705-9.4919638c1.951022-5.6358535 3.42907-10.4411602 6.680774-13.2294245l2.778729.7118973c2.719607 2.1356918 2.069266 5.9918021-.532097 9.966562z" fill="#68247f"/></g><path d="m37.6034867 65.4122111 3.3159347-11.6854662c1.5125316-.3595528 2.7341918-1.5580622 3.1995861-3.1760498.3490458-1.1385839.1745229-2.3370933-.2908714-3.3558262 0-.0599255-.0581743-.119851-.1163486-.1797764-.0581743-.0599255-.1745229-.1797764-.2908715-.1797764-.2908715-.0599255-.5817429.0599254-.6980915.4194782l-.4653944 1.6179877c-.3490457 1.1985093-1.5707059 1.9176149-2.7341917 1.5580621-1.1634859-.3595528-1.8615774-1.6179876-1.5125317-2.816497l.4653944-1.6179876c.0581743-.2996273-.0581743-.5992547-.4072201-.7191056-.1163486-.0599255-.2326972 0-.3490457 0-.0581743 0-.1163486.0599255-.1745229.1198509-.9307887.5992547-1.6870545 1.4981367-2.0361003 2.6966461-.4653943 1.6179876 0 3.2959007 1.0471373 4.4344846l-3.3159347 11.6854663c-1.5125317.3595528-2.7341918 1.5580621-3.1995862 3.1760498-.3490457 1.1385839-.1745228 2.3370932.2908715 3.3558262.0581743.0599255.0581743.1198509.1163486.1797764s.1745229.1797764.2908715.1797764c.2908714.0599255.5817429-.0599255.6980915-.4194783l.4653943-1.6179876c.3490458-1.1985094 1.5707059-1.917615 2.7341918-1.5580622s1.8615774 1.6179876 1.5125316 2.816497l-.4653943 1.6179876c-.0581743.2996274.0581743.5992547.40722.7191057.1163486.0599254.2326972 0 .3490458 0 .0581743-.0599255.1163486-.0599255.1745229-.119851.9307887-.5992547 1.6870545-1.4981367 2.0361003-2.696646.4653943-1.6179877 0-3.2959008-1.0471373-4.4344847z" fill="#000"/><g fill="#f7b282"><path d="m18.202659 61.3409904-4.563779-10.7950847c-1.399559 2.0204704-6.9977946 3.1750249-8.82330623 2.8286586 0 0 6.63269223 9.9291688 9.49266043 13.5082877.5476535.6927328 1.8255116.5195496 2.7382675.4040941l15.6993999-3.2904803-.2434015-3.7523022z"/><path d="m41.6671244 57.3314503-5.7662773 1.3545483c-.4567348.1177868-.9705615-.1766802-1.141837-.588934-.1141838-.2944671-.0570919-.6478275.1141837-.9422945l.7421941-1.2367615c.3996429-1.0011879.2854592-1.7079088-.4567349-2.0023758l-2.8545927 3.5924977-1.0847452 4.8881527-.399643 2.5913099 3.1971439-.3533605c2.1694904-.294467 4.1677053-1.6490153 4.1677053-1.6490153.9134697-.2355737.9705615-1.4723352.9705615-1.4723352-.0570918-.1766802.399643-.7067209.5138267-.8834011l.1712756-.4711472c.1141837-.2944671.0570918-.5889341-.1141837-.7656143 0 0 1.8269393-.5889341 1.941123-.8834011.5138267-.6478275 0-1.1778681 0-1.1778681z"/></g></g></g></svg>