<svg height="250" viewBox="0 0 250 250" width="250" xmlns="http://www.w3.org/2000/svg" xmlns:xlink="http://www.w3.org/1999/xlink"><mask id="a" fill="#fff"><path d="m.20050244.33638889h8.09824882v16.87637181h-8.09824882z" fill="#fff" fill-rule="evenodd"/></mask><mask id="b" fill="#fff"><path d="m.31708853.53156838h3.35249632v16.31854682h-3.35249632z" fill="#fff" fill-rule="evenodd"/></mask><mask id="c" fill="#fff"><path d="m.37890478.00887179h10.65865862v91.77317461h-10.65865862z" fill="#fff" fill-rule="evenodd"/></mask><mask id="d" fill="#fff"><path d="m.62003341.20124765h21.89100999v7.66744871h-21.89100999z" fill="#fff" fill-rule="evenodd"/></mask><mask id="e" fill="#fff"><path d="m.3157975.27081331h7.87405467v37.77587899h-7.87405467z" fill="#fff" fill-rule="evenodd"/></mask><mask id="f" fill="#fff"><path d="m.20433342.77110684h7.33436625v20.08130766h-7.33436625z" fill="#fff" fill-rule="evenodd"/></mask><mask id="g" fill="#fff"><path d="m.44392394.58332051h6.09610702v3.92999303h-6.09610702z" fill="#fff" fill-rule="evenodd"/></mask><mask id="h" fill="#fff"><path d="m.37742766.8075782h6.25772985v30.0108192h-6.25772985z" fill="#fff" fill-rule="evenodd"/></mask><mask id="i" fill="#fff"><path d="m.07389143.32973504h3.96574743v18.30694876h-3.96574743z" fill="#fff" fill-rule="evenodd"/></mask><g fill="none" fill-rule="evenodd"><g transform="translate(144 66)"><path d="m9.64724518 164.540078 5.22171142.046577 1.1277461-16.836449-8.11618512-.068756c.90802624 8.131 1.7667276 16.858628 1.7667276 16.858628" fill="#c9987a"/><path d="m1.96025057 17.1943517 2.20168337.0199615c-1.08514741-4.1808333-1.23312205-9.16899995.64570755-12.69110252.75556751-1.41948718 2.15908461-1.59470512 3.29804097-1.08457692l.20402565-3.03415384-8.11618514-.06875642c.90802624 8.131 1.7667276 16.8586282 1.7667276 16.8586282" fill="#020203" mask="url(#a)" transform="translate(7.686995 147.345726)"/><path d="m32.1243675 164.18188 5.2239534.046577 1.0873895-16.284179-8.0152934-.068757c.8856059 7.971308 1.7039505 16.306359 1.7039505 16.306359" fill="#c9987a"/><path d="m2.93867978.55262802-2.62542895-.02217949c.88560583 7.96908975 1.70395047 16.30635897 1.70395047 16.30635897l1.65238355.0133077c-1.99989977-5.0502692-1.83174676-10.88347436-.73090507-16.29748718" fill="#020203" mask="url(#b)" transform="translate(30.107396 147.345726)"/><path d="m33.2889037 63.1319392-22.3598658-.1907436-2.79582402 9.1113333c-1.56942806 4.1054231-3.67246167 10.0916667-3.21732753 14.4588077l3.38548054 32.4352824s-1.93936468 11.6775-1.41921138 18.577538c.35424234 4.730885.37890478 10.504205 1.08066333 17.193539l8.02650356-.388141 2.1927152-37.161731 3.1231618-25.4553977 2.0469826.2240129 9.1004408 26.6508718s-3.3047671 7.248256-2.0581928 36.325564l7.8022995.064321 4.136564-38.166462s-5.4324632-41.5798846-6.2821964-44.9312051z" fill="#3f4e57"/><path d="m10.5673793.04325155-4.12311171-.03548718-2.79582399 9.10911539c-1.56942807 4.10764104-3.67246168 10.09388464-3.2150855 14.46102564l3.3832385 32.4330641s-2.14114829 11.6952436-1.41921138 18.5797564c.4977329 4.7308846.37890478 10.5042051 1.08290537 17.1913205l5.30915094-.2550641c-1.39903302-6.4786282-.36545253-14.3456923-.03587264-19.7929743.60983491-10.0672693.97528744-20.1655898.66364387-30.2528206-.30491745-9.8454743-.98649764-19.5822692.65915974-29.3567692.1210702-.7053077.4394399-1.1932564.8631855-1.5104231.0829555-1.63019227.1502167-3.26260252.0538089-4.90166662-.114344-1.94292308-.336306-3.806-.4259876-5.66907693" fill="#020203" mask="url(#c)" transform="translate(4.48408 62.934295)"/><path d="m34.9278756 127.113275c1.0134022-15.658718-10.8380218-36.1725254-11.3761114-34.5112818l8.9008992 25.9854868s-2.7666775 29.547513-2.0559508 36.323347l6.1902727.05323c-4.6858638-7.538807-2.1523585-20.258743-1.6591097-27.850782" fill="#020203"/><path d="m19.7223299 167.891638-4.3966406-3.238205c-.1771212-.130859-.3945991-.201833-.614319-.204051l-4.88764742-.053282c-.45737618-.004385-.85870136.283948-1.006676.716448-.34527418 1.038-.89905808 3.114-.85421728 5.762231.00672612.4325.37442069.780718.81386055.785154l14.57550265.122015c.5336055.004408.9125103-.523464.7084847-1.011413-.4371978-1.046871-1.5425236-2.570602-4.3383476-2.878897" fill="#ebebeb"/><path d="m16.475861 165.50136c-2.6142188.181871-5.2351636.288333-7.86283462.303859-.30491745 1.080141-.63898142 2.705897-.65019162 4.713141l11.23037884.093153c-.0851975-.971461-.0134523-1.969538.390115-2.823448z" fill="#d52d1e"/><path d="m17.9034492 3.96954252-9.79547313-3.7283718c-.0784714-.01330769-.15245872-.02883333-.23093013-.03992307l-5.84275648.00443589c-.26231869 0-.4977329.14860257-.59862471.39035898-.40356722.96037179-1.02012824 3.54871795-.74884139 6.39434615.03587264.39479487.38787294.6964359.78695607.69865385l21.04603037.17965384s-.2735289-3.41564102-4.6163606-3.89915384" fill="#ebebeb" mask="url(#d)" transform="translate(30.107396 163.832479)"/><path d="m31.3262292 165.064647c-.3542423 1.175513-.7196948 3.224897-.5492998 5.482769 4.7800295.028833 9.562301-.002218 14.3423305-.035487.1995416-1.171077.6210451-2.280051 1.3609183-3.289218l-6.1588841-2.348808c-2.7532252 1.057962-6.1611262.266154-8.9950649.190744" fill="#d52d1e"/><path d="m37.8001474 27.8749612-13.4499986-4.152-11.9097169 1.4638462s-3.8338886.8583461-4.84953276 2.8434103c-.47082842.9182307 4.53788916 17.1846666 4.53788916 17.1846666s.9013001 10.8723846-1.2331221 15.9270898c-2.3339637 5.5315641-4.17243658 14.2481025-4.17243658 14.2481025l30.89082838 1.4971154s-1.3497081-16.4394359-2.5379893-23.8030256c-.3295799-2.0205513 2.3384478-10.6328462 2.3384478-10.6328462s4.141048-9.8876154.3856309-14.576359" fill="#d52d1e"/><path d="m3.70127804.27081331c1.04703272 3.80156411 2.02007812 7.23716667 2.02007812 7.23716667s.90130012 10.87238462-1.23312205 15.92930772c-2.33396374 5.5315641-4.17243661 14.2458846-4.17243661 14.2458846l7.46823555.3637436c-1.10756781-2.7613462-.78919811-12.0434616-.85645931-9.0048718-.06277713 2.983141.24438237-11.2361282.34975825-20.30753848.0112102-.90935897.36769458-1.57252564.9169944-2.00724359-.65243367-2.9454359-2.18374705-4.85730769-4.49304835-6.45644872" fill="#020203" mask="url(#e)" transform="translate(6.405829 37.705128)"/><path d="m37.8001474 27.8749612-3.0043338 25.3334103s3.3316716 8.5346667 4.302475 8.5302325c.9730454-.0088735 3.8518249-11.9126043 2.8160023-22.7894248-1.0425486-10.8768205-4.1141435-11.074218-4.1141435-11.074218" fill="#d52d1e"/><path d="m3.93284609 3.82235619c-.25335053 2.5994359-1.33401385 4.87948718-3.46619398 6.27901281l-.26231869 2.2201667s3.33167158 8.5368846 4.30247494 8.5324504c.85197523-.0044376 3.17697081-9.1756556 3.03123821-18.77050171-1.52010319-.10646153-2.7173526-.57888461-3.65452536-1.31302564.09192365 1.02247436.14797465 2.04273077.04932488 3.05189744" fill="#020203" mask="url(#f)" transform="translate(34.591476 40.884188)"/><path d="m34.5586042 42.6484708 6.7238783 1.3196795 5.9257119-12.0168462-6.3741199-.9692436z" fill="#3f4e57"/><path d="m20.5821852 21.3156055c-.2488664.8406025-1.2017335 3.3180513-1.2017335 3.3180513-.1008918 2.3465897 2.4124352 3.6795769 3.7554172 3.9834358 2.3160274.521218 5.4347052-.3326923 5.5333549-2.6815l.8743957-10.7282179-9.7416642-1.3218974s2.8227285.5079102.7802299 7.4301282" fill="#c9987a"/><path d="m.43851434.58108793c1.49768279 4.50465384 5.93243809 3.90580769 5.93243809 3.90580769l.17039505-.74523077c-2.963977.89826923-6.10283314-3.16057692-6.10283314-3.16057692" fill="#020203" mask="url(#g)" transform="translate(22.420401 19.961538)"/><path d="m7.11783406 79.0044731h-.0224204l.51118514-15.4657564c-.64346551-.0266154-6.12525354-.6298974-6.12525354-.6298974l1.71067659 15.9670128-.06053508-.0022179-1.79139003 8.2995641 2.1030336 4.8351282 1.73982312 2.5129359s.05380896.0022179.12555424-.002218l.33182194 1.341859s.61880306-.1131154.85197523-.7785c.23765625-.6676026-.48876474-4.4891282-.48876474-4.4891282l-.01793632.0133077c-.06053508-.2994231-.13228036-.6165898-.21747789-.9714616-.39908314-1.641282.51118514-3.7328077.51118514-3.7328077s.8497332-.4258461 1.10756781.7075257c.25559257 1.1378077.9282046 2.8301026 2.28015478 2.6615385l-.87887972-5.4206667z" fill="#c9987a"/><path d="m2.22935277 16.774591-.056051-.0022179-1.79587411 8.2995641 2.10527564 4.8351282.63001327.9115769c-1.22639593-3.2115897-1.11429393-6.574-.32509581-10.4775897.64570754-3.1783206.07398732-5.2099616-.25110849-8.2995641-.23093013-2.20464107.12779628-3.88362825 1.51786114-5.6202821.72866303-.90714103 1.64117335-1.07570513 2.45279186-.80733333l.13900649-4.17639744c-.64346551-.02661538-6.1230115-.62989743-6.1230115-.62989743z" fill="#020203" mask="url(#h)" transform="translate(.960874 62.102564)"/><path d="m7.59199617 28.030437c-4.87643721 9.9297564-7.1857385 26.9835641-7.1857385 26.9835641s.66364386 7.3480641 1.09187352 12.844141c2.33844782-.1153333 4.43699735.0066539 6.77544517.0820641l.42374557-14.6096282c1.27572082-2.9498718 2.56040977-7.0020641 5.64545697-15.0643077 4.4908063-11.7418205-6.75078273-10.2358333-6.75078273-10.2358333" fill="#d52d1e"/><path d="m7.53725878 28.1424581c-4.83608049 9.945282-7.13192954 26.8726666-7.13192954 26.8726666s.6658859 7.3480641 1.09187352 12.844141c1.78017984-.0909358 3.42807931-.039923 5.14772406.0221795-3.28683078-6.3655128-3.63434699-13.4607307-2.76667748-20.4650128.77574588-6.2413077 1.8003582-10.6572436 3.65900944-19.2739743" fill="#020203"/><path d="m41.8656239 36.1062396s-.8631855.8738718.058293 1.7255641c.2555926.2328846 1.4483579 1.381782 1.4483579 1.381782l-.390115 1.1333718-.6950324-.2506282-3.8204363-1.4283589s-.5336056.4524615-.0381147.8783076c.3183697.2750257.7174528.521218.9640772.6676026l-.0134522.042141-1.9797214-.6831282s-.8452491.5722308.053809 1.1355898c.4932488.3082948 1.1524086.5833205 1.5537338.7407948l-.0112102.0354872-2.0335304-.5433974s-.5336056.5367436.1457326 1.0535256c.1905734.1486026 1.1120519.565577 1.847441.8916154l1.0649691.6276795-3.1567925-.8893974c-.6995165.1086795-.0336306.9293205.21972 1.166641.5313635.4946026 2.3451739 1.1488974 2.3451739 1.1488974s.8228287 2.9077308.7869561 3.7305898c-.0179364.3615256-1.3923069 2.6637564-1.8295048 5.4162307-.562752 3.5176667-.1412485 7.614218.7107268 7.6497052.8026503.0332692 3.7531751-.1086795 4.9392143-5.2299231.7062426-3.0585513.3206117-7.2504744.3206117-7.2504744l.0672612-4.8040769s.3676946-4.282859.6815802-4.8950128c.3721787-.7297051-.0470828-1.255359-.0470828-1.255359z" fill="#c9987a"/><path d="m1.42584161.41116348c-.49549086.0865-.94389888.04214103-1.35195018-.0820641.10761793.15082051.22868809.28389744.3071595.35930769.5313635.49460257 2.34741597 1.14889744 2.34741597 1.14889744s.82282872 2.90994871.78471404 3.73280769c-.01345224.35930769-1.39006486 2.66375641-1.82950472 5.4140128-.56051002 3.5176667-.14124853 7.6164359.71296875 7.6497051.24438237.0133077.68382223.002218 1.20845961-.1508205-.0672612-.1219871-.12555424-.2417564-.17263709-.3703974-1.0178862-2.812359-.68158018-5.5847949-.03587264-8.43929487.33854806-1.50598718 2.04025649-9.9608077-1.97075324-9.26215385" fill="#020203" mask="url(#i)" transform="translate(36.700472 43.102137)"/><path d="m13.7129954 5.71476667c-3.75541712 2.57060256 3.5446654 14.06844873 4.3204113 15.32380773l2.7913399-15.11310261s-3.358576-2.77908974-7.1117512-.21070512" fill="#3f3f3e"/><path d="m19.4174438 5.88553763.163669 9.63698717c.0784714 4.4026282 6.770961 8.4991795 9.6071418 8.4503846 1.8003582-.0288333 6.042298-4.3050384 5.9683107-8.7121025l-.1636689-9.63255132z" fill="#c9987a"/><path d="m27.670393.75768189-2.9101681.04879487c-3.6455572.05988462-7.3157768 3.5553718-7.4794457 7.14401282-.3632105 7.97796152 4.0154938 11.46901282 4.0154938 11.46901282s-1.3788547-3.9324231.3632105-6.3610769c.0829555-.1197693 1.0829053 1.1355897 1.1591347.3238205.2376563-2.5816923 2.1613267-3.2160256 2.9729452-3.3380128 3.8899395-.58553849 5.8696609-2.50850003 5.8696609-2.50850003s1.0918736 1.19769231 1.6568677 1.51707692c1.4730203.82285898 2.7509832 1.33520511 2.7509832 1.33520511-.0605351-3.59085895.3026754-10.01403844-8.3986822-9.63033331" fill="#3f3f3e"/><path d="m19.4055386 12.4029957c-.558268.4613333.2174779 4.4026282 2.2958491 4.1719615l.1098599-3.4134231s-1.4483579-1.5459102-2.405709-.7585384" fill="#c9987a"/></g><g transform="translate(52 12)"><path d="m64.0131855 2.15027445h-18.6237495l6.8669938 24.14868415h11.7567557 11.7567556l6.8669939-24.14868415z" fill="#f5d85c"/><path d="m64.0131855 2.15027445h-8.7797994l3.2368845 24.14868415h5.5429149 5.5406932l3.2368845-24.14868415z" fill="#f5e395"/><path d="m55.8268101 181.308384h16.3777027v-39.189256h-16.3777027z" fill="#c5c5c4"/><path d="m59.7701664 139.411071h8.4865469v-113.722862h-8.4865469z" fill="#c5c5c4"/><g fill="#747474"><path d="m55.8268101 142.489214h16.3777027v-6.156286h-16.3777027z"/><path d="m57.6240919 53.0679459h12.7786959v-6.1540695h-12.7786959z"/><path d="m73.6258756 178.005738h-19.2258055c-3.6567687 0-6.6181737 2.958474-6.6181737 6.603935h32.4599313c0-3.645461-2.9591834-6.603935-6.6159521-6.603935"/><path d="m55.9862937 29.6640775h16.0533477c2.2016146 0 3.9855668-1.7817328 3.9855668-3.9756575h-24.0244813c0 2.1939247 1.7839521 3.9756575 3.9855668 3.9756575"/><path d="m85.5887879 2.41774933c0 1.33629958-1.0863668 2.41774933-2.4259972 2.41774933h-38.3005417c-1.3396303 0-2.4237756-1.08144975-2.4237756-2.41774933s1.0841453-2.41774933 2.4237756-2.41774933h38.3005417c1.3396304 0 2.4259972 1.08144975 2.4259972 2.41774933"/></g><g fill="#147abf"><path d="m23.0798607 76.7638756c-2.6414933.5096997-4.3699052 3.0515498-3.8655999 5.6776112.5087485 2.6216292 3.063599 4.3368794 5.7050923 3.8271798 2.6414933-.5074836 4.3676836-3.0515498 3.8589351-5.6776112-.5043053-2.6216292-3.0569342-4.3368794-5.6984275-3.8271798"/><path d="m21.0950704 66.1344018c-5.3696293 1.0371281-9.8595014 4.6914531-11.99891098 9.7707212-.49319723 1.1767414.06220506 2.5263375 1.24410108 3.0160924 1.1796745.491971 2.5392993-.0686986 3.0324965-1.2387918 1.5373536-3.6543251 4.7475788-6.2737382 8.5998491-7.020559 3.6012284-.6958509 7.2491106.3146841 10.026122 2.772323.6087209.5407249 1.4240515.7024991 2.1571825.5008353.4176625-.1152364.8064441-.3457093 1.1152478-.6914186.8553195-.9529168.77312-2.408885-.1843935-3.2532136-3.8589351-3.4238522-8.9575281-4.8288504-13.9916945-3.8559889"/><path d="m19.2022821 56.3482011c-7.5068173 1.4493199-14.9336567 7.0582324-18.9170019 14.2893196-.61538574 1.1169071-.20216644 2.5196892.92196779 3.1291128 1.12191262.6116396 2.53263443.1972316 3.14357695-.9174595 3.34796499-6.0765065 9.51959516-10.7679596 15.72677116-11.9735102 6.4448881-1.2432239 12.1944126.05097 17.0930608 3.8537728.5998345.4631619 1.3551816.5894788 2.0394372.4033276.4665379-.128533.8930869-.3966793 1.2129986-.802223.7908929-1.0061028.6131641-2.4576389-.3954464-3.237701-5.9983447-4.6559957-13.0053-6.2537934-20.8253642-4.7446391"/></g></g></g></svg>