<svg height="250" viewBox="0 0 250 250" width="250" xmlns="http://www.w3.org/2000/svg" xmlns:xlink="http://www.w3.org/1999/xlink"><mask id="a" fill="#fff"><path d="m.19678944.32861111h7.94828124v16.48616669h-7.94828124z" fill="#fff" fill-rule="evenodd"/></mask><mask id="b" fill="#fff"><path d="m.31121652.51927778h3.29041305v15.94123942h-3.29041305z" fill="#fff" fill-rule="evenodd"/></mask><mask id="c" fill="#fff"><path d="m.37188802.00866667h10.46127608v89.65125153h-10.46127608z" fill="#fff" fill-rule="evenodd"/></mask><mask id="d" fill="#fff"><path d="m.60855131.19659452h21.48562089v7.49016667h-21.48562089z" fill="#fff" fill-rule="evenodd"/></mask><mask id="e" fill="#fff"><path d="m.3099494.26455173h7.72823884v36.90244827h-7.72823884z" fill="#fff" fill-rule="evenodd"/></mask><mask id="f" fill="#fff"><path d="m.20054946.75327778h7.19854466v19.61700002h-7.19854466z" fill="#fff" fill-rule="evenodd"/></mask><mask id="g" fill="#fff"><path d="m.43570313.56983333h5.98321614v3.83912614h-5.98321614z" fill="#fff" fill-rule="evenodd"/></mask><mask id="h" fill="#fff"><path d="m.37043826.78890587h6.14184597v29.31692743h-6.14184597z" fill="#fff" fill-rule="evenodd"/></mask><mask id="i" fill="#fff"><path d="m.07252307.32211111h3.89230766v17.88366669h-3.89230766z" fill="#fff" fill-rule="evenodd"/></mask><g fill="none" fill-rule="evenodd"><g transform="translate(184.1875 76.8125)"><path d="m9.46859249 160.735683 5.12501301.0455 1.106862-16.447166-7.96588543-.067167c.89121094 7.943 1.73401042 16.468833 1.73401042 16.468833" fill="#c9987a"/><path d="m1.92394963 16.7967944 2.16091146.0195c-1.06505209-4.0841666-1.21028646-8.95699996.63375-12.39766662.74157552-1.38666667 2.11910156-1.55783334 3.23696614-1.0595l.2002474-2.964-7.96588542-.06716667c.89121094 7.943 1.73401042 16.46883329 1.73401042 16.46883329" fill="#020203" mask="url(#a)" transform="translate(7.544643 143.938889)"/><path d="m31.5294718 160.385768 5.1272135.0455 1.0672526-15.907667-7.8668619-.067167c.8692057 7.787 1.6723958 15.929334 1.6723958 15.929334" fill="#c9987a"/><path d="m2.88425978.53985049-2.57680989-.02166666c.86920573 7.78483333 1.67239583 15.92933337 1.67239583 15.92933337l1.62178385.013c-1.96286458-4.9335-1.79782552-10.63183337-.71736979-15.92066671" fill="#020203" mask="url(#b)" transform="translate(29.549851 143.938889)"/><path d="m32.6724426 61.6722411-21.9457943-.1863333-2.74404949 8.9006667c-1.54036458 4.0105-3.60445312 9.8583333-3.15774739 14.1245l3.32278646 31.6853335s-1.90345053 11.4075-1.39292969 18.148c.34768229 4.6215.37188802 10.261333 1.06065104 16.796l7.87786457-.379167 2.1521094-36.3025 3.0653255-24.8668332 2.0090755.2188334 8.9319141 26.0346668s-3.2435677 7.080666-2.0200781 35.485666l7.6578125.062834 4.0599609-37.284s-5.331862-40.6185002-6.1658594-43.8923335z" fill="#3f4e57"/><path d="m10.3716871.04225152-4.0467578-.03466667-2.74404947 8.8985c-1.54036459 4.01266665-3.60445313 9.86049995-3.15554688 14.12666665l3.32058594 31.6831667s-2.1014974 11.4248333-1.39292969 18.1501666c.48851563 4.6215001.37188802 10.2613334 1.06285156 16.7938334l5.21083334-.2491667c-1.373125-6.3288333-.3586849-14.014-.03520834-19.3353333.59854167-9.8345.95722657-19.6993334.65135417-29.5533334-.29927083-9.6178333-.96822917-19.1295.64695312-28.678.11882815-.6889999.43130205-1.1656666.84720055-1.4754999.0814192-1.59250005.1474349-3.18716672.0528125-4.78833338-.1122266-1.898-.3300781-3.718-.418099-5.538" fill="#020203" mask="url(#c)" transform="translate(4.401042 61.479167)"/><path d="m34.2810631 124.17424c.9946354-15.296667-10.6373177-35.3361667-11.1654427-33.7133333l8.7360677 25.3846663s-2.7154427 28.864334-2.0178776 35.4835l6.075638.052c-4.5990885-7.3645-2.1125-19.790333-1.6283854-27.206833" fill="#020203"/><path d="m19.3571016 164.00975-4.3152214-3.163333c-.1738411-.127833-.3872917-.197167-.6029427-.199333l-4.79713542-.05205c-.44890625-.004284-.84279948.277383-.98803385.699883-.33888021 1.014-.88240885 3.042-.83839844 5.629.00660156.4225.36748698.762667.79878906.767l14.30558595.119194c.523724.004306.895612-.511361.6953646-.988027-.4291016-1.022667-1.5139584-2.511167-4.2580078-2.812334" fill="#ebebeb"/><path d="m16.1707525 161.674739c-2.5658073.177666-5.1382162.281666-7.71722661.296833-.29927083 1.055167-.62714843 2.643333-.63815104 4.604167l11.02240885.091c-.0836198-.949-.0132031-1.924.3828906-2.758167z" fill="#d52d1e"/><path d="m17.5719039 3.87776119-9.61407553-3.64216667c-.07701823-.013-.14963542-.02816666-.22665365-.039l-5.73455729.00433334c-.25746094 0-.48851563.14516666-.58753906.38133333-.39609375.93816667-1.00123698 3.46666667-.73497396 6.2465.03520833.38566667.3806901.68033333.77238281.6825l20.65628908.1755s-.2684636-3.33666667-4.5308724-3.809" fill="#ebebeb" mask="url(#d)" transform="translate(29.549851 160.044444)"/><path d="m30.7461139 161.248123c-.3476823 1.148334-.7063672 3.150334-.5391276 5.356 4.6915104.028167 9.3852213-.002166 14.0767318-.034666.1958463-1.144.6095442-2.227334 1.3357161-3.213167l-6.0448307-2.2945c-2.7022396 1.0335-6.0470313.26-8.8284896.186333" fill="#d52d1e"/><path d="m37.1001446 27.2304535-13.2009244-4.056-11.6891667 1.43s-3.76289063.8385-4.75972657 2.7776666c-.46210937.897 4.45385417 16.7873334 4.45385417 16.7873334s.8846094 10.621-1.2102865 15.5588333c-2.29074215 5.4036667-4.09516923 13.9186667-4.09516923 13.9186667l30.31877603 1.4625s-1.3247135-16.0593334-2.4909896-23.2526667c-.3234765-1.9738333 2.2951433-10.387 2.2951433-10.387s4.0643619-9.659.3784895-14.2393333" fill="#d52d1e"/><path d="m3.63273585.26455173c1.02764323 3.71366667 1.98266927 7.06983334 1.98266927 7.06983334s.88460938 10.62100003-1.21028645 15.56100003c-2.29074219 5.4036666-4.09516927 13.9165-4.09516927 13.9165l7.32993489.3553333c-1.08705729-2.6975-.77458333-11.765-.84059896-8.7966667-.06161458 2.9141667.23985677-10.9763333.34328125-19.83799997.01100261-.88833333.36088542-1.53616666.90001302-1.96083333-.64035156-2.87733333-2.14330729-4.745-4.40984375-6.30716667" fill="#020203" mask="url(#e)" transform="translate(6.287202 36.833333)"/><path d="m37.1001446 27.2304535-2.9486979 24.7476666s3.269974 8.3373334 4.2227995 8.3330017c.955026-.0086683 3.7804948-11.6371683 2.7638542-22.2625017-1.0232422-10.6253333-4.0379558-10.8181666-4.0379558-10.8181666" fill="#d52d1e"/><path d="m3.86001561 3.73397801c-.24865885 2.53933333-1.3093099 4.76666667-3.40200521 6.13383333l-.25746094 2.16883336s3.26997396 8.3395 4.22279948 8.3351683c.83619792-.004335 3.11813802-8.9635017 2.97510417-18.33650166-1.49195312-.104-2.66703125-.5655-3.58684896-1.28266666.09022136.99883333.14523438 1.9955.04841146 2.98133333" fill="#020203" mask="url(#f)" transform="translate(33.950893 39.938889)"/><path d="m33.9186301 41.662379 6.599362 1.2891667 5.8159765-11.739-6.2560807-.9468334z" fill="#3f4e57"/><path d="m20.2010336 20.8227591c-.2442578.8211667-1.1794791 3.2413333-1.1794791 3.2413333-.0990235 2.2923334 2.3677604 3.5945 3.6858724 3.8913334 2.273138.5091666 5.3340625-.325 5.4308854-2.6195l.8582031-10.4801667-9.561263-1.2913333s2.7704557.4961666.7657812 7.2583333" fill="#c9987a"/><path d="m.43039371.56765237c1.46994791 4.4005 5.82257812 3.8155 5.82257812 3.8155l.16723959-.728c-2.90908855.8775-5.98981771-3.0875-5.98981771-3.0875" fill="#020203" mask="url(#g)" transform="translate(22.005208 19.5)"/><path d="m6.98602232 77.1777801h-.02200521l.50171875-15.1081667c-.63154948-.026-6.01182292-.6153333-6.01182292-.6153333l1.6789974 15.5978333-.05941407-.0021666-1.75821614 8.1076666 2.06408854 4.7233334 1.70760417 2.4548333s.0528125.0021667.12322916-.0021667l.32567709 1.3108334s.60734375-.1105.83619791-.7605c.23325521-.6521667-.47971354-4.3853334-.47971354-4.3853334l-.01760416.013c-.05941407-.2925-.12983073-.6023333-.21345053-.949-.3916927-1.6033333.50171875-3.6465.50171875-3.6465s.8339974-.416 1.0870573.6911667c.25085937 1.1115.91101562 2.7646667 2.23792968 2.6l-.86260416-5.2953333z" fill="#c9987a"/><path d="m2.18806846 16.3867392-.05501302-.0021667-1.76261718 8.1076667 2.06628906 4.7233333.61834635.8905c-1.20368489-3.1373333-1.09365885-6.422-.31907552-10.2353333.63375-3.1048333.07261719-5.0895-.24645833-8.1076667-.22665365-2.15366663.12542968-3.7938333 1.4897526-5.4903333.71516927-.88616667 1.61078125-1.05083333 2.40736979-.78866667l.13643229-4.07983333c-.63154947-.026-6.00962239-.61533333-6.00962239-.61533333z" fill="#020203" mask="url(#h)" transform="translate(.94308 60.666667)"/><path d="m7.45140365 27.3823344c-4.78613282 9.7001667-7.05266927 26.3596667-7.05266927 26.3596667s.65135416 7.1781666 1.07165364 12.5471666c2.29514323-.1126666 4.35483073.0065 6.64997396.0801667l.41589844-14.2718333c1.25209635-2.8816667 2.51299478-6.8401667 5.54091148-14.716 4.4076432-11.4703334-6.62576825-9.9991667-6.62576825-9.9991667" fill="#d52d1e"/><path d="m7.39767991 27.4917654c-4.74652344 9.7153333-6.99985677 26.2513333-6.99985677 26.2513333s.65355469 7.1781667 1.07165365 12.5471667c1.74721354-.0888333 3.36459635-.039 5.05239583.0216666-3.22596354-6.2183333-3.56704427-13.1494999-2.71544271-19.9918333.76138021-6.097 1.76701823-10.4108333 3.59125-18.8283333" fill="#020203"/><path d="m41.0903345 35.2714132s-.8472005.8536667.0572136 1.6856667c.2508594.2275 1.4215364 1.3498333 1.4215364 1.3498333l-.3828906 1.1071667-.6821614-.2448333-3.7496875-1.3953334s-.523724.442-.0374089.858c.312474.2686667.7041667.5091667.946224.6521667l-.0132032.0411667-1.9430599-.6673334s-.8295963.559.0528125 1.1093334c.4841146.3011666 1.1310678.5698333 1.524961.7236666l-.0110026.0346667-1.9958724-.5308333s-.523724.5243333.1430338 1.0291666c.1870443.1451667 1.0914584.5525 1.8132292.871l1.0452474.6131667-3.0983333-.8688333c-.6865625.1061666-.0330078.9078333.215651 1.1396666.5215234.4831667 2.3017448 1.1223334 2.3017448 1.1223334s.8075911 2.8405.7723828 3.6443333c-.0176042.3531667-1.3665234 2.6021667-1.795625 5.291-.5523307 3.4363333-.1386328 7.4381667.6975651 7.4728333.7877865.0325 3.6836719-.1061666 4.8477474-5.109.6931641-2.9878333.3146745-7.0828333.3146745-7.0828333l.0660156-4.693s.3608854-4.1838333.6689583-4.7818333c.3652865-.7128334-.0462109-1.2263334-.0462109-1.2263334z" fill="#c9987a"/><path d="m1.39943714.40165681c-.48631511.0845-.92641927.04116667-1.32691407-.08016667.105625.14733334.22445313.27733334.30147136.351.52152344.48316667 2.30394531 1.12233334 2.30394531 1.12233334s.80759115 2.84266666.77018229 3.6465c-.01320312.351-1.36432292 2.60216666-1.795625 5.28883332-.55013021 3.4363333-.13863281 7.4403333.69976563 7.4728333.23985677.013.67115885.0021667 1.18608073-.1473333-.06601563-.1191667-.12322917-.2361667-.16944011-.3618333-.99903646-2.7473334-.66895833-5.4556667-.03520833-8.24416669.33227864-1.47116667 2.00247396-9.7305-1.93425781-9.048" fill="#020203" mask="url(#i)" transform="translate(36.020833 42.105556)"/><path d="m13.4590511 5.58263333c-3.68587242 2.51116667 3.4790234 13.74316667 4.2404036 14.96949997l2.7396485-14.76366663s-3.2963803-2.71483334-6.9800521-.20583334" fill="#3f3f3e"/><path d="m19.0578615 5.74945583.1606381 9.41416667c.0770182 4.3008333 6.6455729 8.3026667 9.4292317 8.255 1.7670183-.0281667 5.9304037-4.2055 5.8577865-8.5106667l-.160638-9.4098333z" fill="#c9987a"/><path d="m27.1579783.74016323-2.8562761.04766667c-3.5780468.0585-7.1802994 3.47316667-7.3409375 6.97883333-.3564843 7.79349997 3.9411329 11.20383337 3.9411329 11.20383337s-1.3533204-3.8415.3564843-6.214c.0814193-.117 1.0628516 1.1093333 1.1376693.3163333.2332552-2.522 2.1213021-3.14166667 2.9178906-3.26083333 3.8179037-.572 5.7609636-2.4505 5.7609636-2.4505s1.0716536 1.17 1.6261849 1.482c1.4457422.80383333 2.700039 1.30433333 2.700039 1.30433333-.059414-3.50783333.2970703-9.7825-8.243151-9.40766667" fill="#3f3f3e"/><path d="m19.0461768 12.1162212c-.5479297.4506667.2134505 4.3008333 2.2533333 4.0755l.1078255-3.3345s-1.4215364-1.5101667-2.3611588-.741" fill="#c9987a"/></g><g transform="translate(94 24)"><path d="m62.5245067 2.10378203h-18.190639l6.7072963 23.62655047h11.4833427 11.4833427l6.7072964-23.62655047z" fill="#f5d85c"/><path d="m62.5245067 2.10378203h-8.5756179l3.1616081 23.62655047h5.4140098 5.4118399l3.1616082-23.62655047z" fill="#f5e395"/><path d="m54.5285122 177.388203h15.9968259v-38.341921h-15.9968259z" fill="#c5c5c4"/><path d="m58.3801625 136.396778h8.2891854v-111.2639897h-8.2891854z" fill="#c5c5c4"/><g fill="#747474"><path d="m54.5285122 139.408366h15.9968259v-6.023177h-15.9968259z"/><path d="m56.2839968 51.9205309h12.4815168v-6.0210086h-12.4815168z"/><path d="m71.913646 174.156966h-18.7786938c-3.5717276 0-6.4642627 2.894507-6.4642627 6.461147h31.7050492c0-3.56664-2.8903652-6.461147-6.4620927-6.461147"/><path d="m54.6842868 29.022692h15.6800141c2.1504143 0 3.8928792-1.7432088 3.8928792-3.8896973h-23.4657725c0 2.1464885 1.7424649 3.8896973 3.8928792 3.8896973"/><path d="m83.598351 2.36547367c0 1.30740662-1.0611025 2.36547367-2.3695787 2.36547367h-37.4098314c-1.3084761 0-2.3674087-1.05806705-2.3674087-2.36547367s1.0589326-2.36547367 2.3674087-2.36547367h37.4098314c1.3084762 0 2.3695787 1.05806705 2.3695787 2.36547367"/></g><g fill="#147abf"><path d="m22.5431198 75.1041162c-2.5800632.4986791-4.2682795 2.9855703-3.7757023 5.554852.4969172 2.5649453 2.9923526 4.243109 5.5724158 3.7444299 2.5800632-.496511 4.2661095-2.9855704 3.7691924-5.554852-.4925773-2.5649453-2.9858427-4.2431091-5.5659059-3.7444299"/><path d="m20.6044874 64.7044688c-5.2447542 1.0147037-9.6302107 4.5900163-11.71986657 9.5594623-.48172753 1.1512984.06075843 2.4717141 1.21516857 2.9508797 1.1522401.4813337 2.4802458-.0672133 2.9619733-1.2120072 1.5016011-3.5753126 4.6371699-6.1380898 8.3998525-6.8687631 3.5174789-.6808054 7.0805267.3078802 9.7929565 2.7123809.5945646.5290335 1.390934.6873099 2.1070154.4900065.4079495-.1127449.7876896-.3382346 1.0893118-.6764691.8354284-.9323132.7551405-2.356801-.1801053-3.1828739-3.7691924-3.3498229-8.7492135-4.7244428-13.6663062-3.7726161"/><path d="m18.7557174 55.1298616c-7.3322402 1.4179833-14.58636236 6.905622-18.47707163 13.9803613-.60107443 1.0927578-.19746488 2.4652095.90052669 3.0614563 1.09582163.598415 2.47373595.1929672 3.0704705-.8976224 3.27010534-5.9451227 9.29820924-10.5351389 15.36103234-11.7146235 6.295007-1.2163435 11.9108216.0498679 16.6955477 3.7704479.5858849.4531476 1.3236658.5767333 1.9920084.394607.4556883-.1257539.8723175-.3881025 1.1847894-.7848776.7725-.9843493.5989045-2.4045007-.38625-3.1676966-5.8588483-4.5553256-12.7028511-6.1185763-20.3410534-4.6420524"/></g></g></g></svg>