<?xml version="1.0" encoding="UTF-8"?>
<svg width="250px" height="250px" viewBox="0 0 250 250" version="1.1" xmlns="http://www.w3.org/2000/svg" xmlns:xlink="http://www.w3.org/1999/xlink">
    <title>02-beschermen-grondrechten-illustratie-2020</title>
    <g id="02-beschermen-grondrechten-illustratie-2020" stroke="none" stroke-width="1" fill="none" fill-rule="evenodd">
        <g id="rechter" transform="translate(26.000000, 36.000000)">
            <path d="M11.3632981,27.3470686 C9.49933002,33.1278151 6.7810433,38.7584124 7.01403931,44.7643829 C11.7516247,45.0646814 16.4115448,45.0646814 21.1491303,44.8394575 C22.0034489,44.7643829 23.0130983,44.6893082 23.5567556,44.0136366 C24.100413,43.4130395 24.0227476,42.512144 23.9450823,41.686323 C23.401425,36.806472 22.8577676,31.8515464 22.3141103,26.8966208 C22.1587796,25.3951282 22.0034489,23.8936356 21.3821263,22.5422922 C20.6831382,20.965725 19.3628276,19.6143816 18.5085089,18.0378144 C17.4988595,16.2360233 17.2658635,14.058859 17.6541902,12.0318439 C13.2272661,11.6564708 14.0039194,14.659456 13.5379274,17.8876651 C12.9942701,21.1909489 12.2952821,24.3440834 11.3632981,27.3470686" id="Path" fill="#FBBF48" fill-rule="nonzero"></path>
            <path d="M65.5848035,77 L102.071824,77 C103.258394,77 104,77.8214286 104,79.0909091 L101.330218,100 L66.7713733,100 L64.1015913,79.0909091 C63.6566276,78.2694805 64.7690368,77 65.5848035,77" id="Path" fill="#D7DEE8" fill-rule="nonzero"></path>
            <path d="M84,88 C82.9230769,88 82,88.65625 82,89.5 C82,90.34375 82.9230769,91 84,91 C85.0769231,91 86,90.34375 86,89.5 C86,88.65625 85.0769231,88 84,88" id="Path" fill="#BAC3D0" fill-rule="nonzero"></path>
            <path d="M55.9840345,67.1863014 C54.008606,64.6884545 51.8812214,62.411006 49.6778588,60.2804895 C47.1705841,57.8561088 46.790694,53.7420081 46.1828699,50.6564326 C45.6510237,48.0116535 40.8644084,31.9225812 35.7738811,35.5224193 C35.1660569,35.8897497 34.9381228,36.6244106 35.0141009,37.3590714 C35.0900789,40.0773165 36.6096393,43.0894259 37.7493096,45.5138067 C37.9012656,45.734205 38.0532217,45.8811371 38.2811557,45.9546032 C38.8889799,49.3340431 39.192892,52.1257542 40.4845183,55.1378637 C41.4722326,57.4153123 43.2197271,59.9866252 44.2074413,62.2640738 C45.3471116,64.8353867 47.6264523,66.9659031 49.7538368,68.8760213 C50.209705,69.2433517 50.6655731,69.6841482 51.0454632,70.0514787 C52.7929577,71.6677325 54.6164301,73.2839863 56.5158807,74.8267741 C57.5795729,75.7083671 60.9226058,79.5286034 61.8343421,77.3246209 C62.1382542,76.5899601 61.9862981,76.5899601 61.6823861,75.8552993 C60.4667377,72.6227916 58.0354411,69.7576143 55.9840345,67.1863014" id="Path" fill="#F6AF88" fill-rule="nonzero"></path>
            <path d="M66.1833193,79.5 L66.2766542,79.3571429 C66.556659,79.0714286 66.8366639,78.7142857 66.9299988,78.2857143 C67.0233337,77.9285714 67.0233337,77.5714286 66.9299988,77.2142857 C66.8366639,77.1428571 66.8366639,77.0714286 66.8366639,77 L64.7832952,77.7142857 C64.5966254,77.7857143 64.4099555,77.9285714 64.2232856,78.0714286 C64.0366157,78.2142857 63.9432808,78.4285714 64.0366157,78.5714286 C64.1299507,78.7142857 64.2232856,78.8571429 64.3166206,78.9285714 C64.6899603,79.2142857 65.0633001,79.5714286 65.4366398,79.8571429 C65.5299747,79.9285714 65.6233097,80 65.7166446,80 C65.8099796,80 65.9966494,79.9285714 66.0899844,79.9285714 C66.0899844,79.8571429 66.0899844,79.6428571 66.1833193,79.5" id="Path" fill="#937460" fill-rule="nonzero"></path>
            <path d="M63.744186,75.3282587 C64.5116279,75.5319759 65.2093023,75.8715048 65.6976744,76.3468451 C65.9069767,76.4826566 66.0465116,76.7542797 66.0465116,77.0259028 C66.0465116,77.5691489 65.627907,77.7049604 65.2790698,77.9086777 C65,78.112395 64.7209302,78.384018 64.7906977,78.6556411 C64.8604651,78.7914526 64.9302326,78.9272642 65.0697674,78.9951699 C66.255814,80.2174737 66.8139535,80.6249083 68,81.847212 C67.6511628,82.0509293 67.1627907,82.0509293 66.8139535,81.847212 C66.4651163,81.6434947 66.1162791,81.3718717 65.8372093,81.1002486 C64.8604651,80.1495679 64.5813953,80.0137564 63.6046512,79.0630757 C63.255814,78.7235469 62.5581395,78.3161123 62.2093023,78.6556411 C62.3488372,79.3346987 63.0465116,79.6063218 63.744186,79.8779449 C64.0232558,80.0137564 63.9534884,80.421191 63.6744186,80.421191 C62.8372093,80.5570025 62,80.421191 61.2325581,80.0137564 C60.255814,79.4705103 59.4883721,78.5198296 59.2790698,77.5012431 C59.2093023,77.1617143 59.2093023,76.8221855 59.0697674,76.4147509 C59,76.2789394 59,76.1431278 59,75.9394105 C59.0697674,75.803599 59.1395349,75.6677875 59.2790698,75.5998817 C60.4651163,74.8529183 62.2093023,74.8529183 63.744186,75.3282587" id="Path" fill="#9C8271" fill-rule="nonzero"></path>
            <path d="M40.2985075,36.0051345 C40.1492537,35.7808085 44.1791045,42.9592424 45.1492537,47.2962129 C46.1940299,51.6331834 47.3880597,57.6152117 49.4029851,59.7089216 C51.4925373,61.8026315 55,65.7657252 55,65.7657252 L50.8208955,71 C50.8208955,71 47.9104478,68.1585366 44.7014925,64.2702182 C41.4925373,60.3818998 40,54.6989729 40,54.6989729 L40.2985075,36.0051345" id="Path" fill="#3E4347" fill-rule="nonzero"></path>
            <path d="M27.6097561,89.5574708 C27.8292683,87.9198423 27.9756098,86.3566514 28.0487805,84.7190229 C28.9268293,84.5701476 29.7317073,83.9002087 29.804878,82.8580814 C29.804878,81.7415166 29.804878,80.6993893 29.7317073,79.6572621 C30.4634146,80.327201 32.0731707,80.0294504 32.5121951,79.1361985 C32.804878,78.5406972 32.9512195,77.8707583 33.097561,77.2008193 C34.195122,77.721883 35.7317073,76.9775064 35.7317073,75.5631908 C35.7317073,75.0421272 35.7317073,74.5210636 35.6585366,74 C38.4390244,79.6572621 36.0243902,86.2077761 38.5853659,91.9394759 C38.8780488,94.9914199 40.6341463,98.0433639 40.9268293,101.095308 C41.0731707,102.509623 42.1707317,104.593878 42.1707317,106.008193 C42.9756098,112.037644 44.6585366,117.397155 44.9512195,123.501043 C45.2439024,131.24256 45.1707317,138.984076 45.5365854,146.725593 C45.6097561,147.76772 45.2439024,161.910875 47,167.791451 L46.7073171,167.791451 C44.6585366,168.386952 42.9756098,167.642575 41.6585366,166.377135 C40.4878049,160.794311 39.097561,155.211486 37.9268293,149.628662 C37.3414634,146.651155 36.8292683,143.748087 36.4634146,140.77058 C36.097561,137.793074 36.0243902,134.74113 35.7317073,131.689186 C35.5121951,128.786117 35.2195122,125.808611 34.7073171,122.97998 C34.195122,120.151349 33.3902439,117.397155 32.5853659,114.642962 C31.0487805,109.506763 29.2195122,104.296127 28.7804878,98.9366158 C28.5609756,96.5546107 28.4878049,94.098168 28.2682927,91.6417252 C27.8292683,91.5672876 27.3902439,91.4928499 26.9512195,91.4184122 C26.5853659,91.3439746 26.2195122,91.1950993 26,90.9717863 C26.804878,90.8973486 27.4634146,90.4507227 27.6097561,89.5574708" id="Path" fill="#E9C2A4" fill-rule="nonzero"></path>
            <path d="M42.4986564,163 C43.4727831,165.612955 44.2970441,168.300566 45.4959692,170.838865 L45.3461036,170.838865 C45.6458349,171.734736 46.020499,172.705262 46.3951631,173.526476 C46.4700959,173.750444 46.6199616,173.974412 46.6948944,174.198379 C46.7698272,174.273035 46.84476,174.347691 46.84476,174.497003 L46.84476,174.497003 L46.84476,174.497003 L46.84476,174.571659 C47.7439539,174.646314 48.4932821,176.288743 47.5940882,176.811334 C45.6458349,177.931172 44.2970441,173.750444 43.7725144,172.55595 C42.8733205,170.39093 41.2997313,167.852631 41,165.463643 C41,164.493117 41.6743954,163.447935 42.4986564,163" id="Path" fill="#7C8084" fill-rule="nonzero"></path>
            <path d="M40.7820418,163.081899 C40.7052065,162.635778 40.7052065,162.189657 40.8588771,161.892243 C42.1650777,161 43.7786197,161 45.4689969,161 L45.9300089,161.074354 C46.0068443,163.081899 46.3910209,165.312506 47.8508922,166.799577 C49.6949401,168.807123 51.2316467,170.21984 52,172.970921 C51.9231647,173.193982 51.9231647,173.342689 51.8463293,173.56575 C51.2316467,175.424588 49.3875988,176.465538 47.6203862,175.796356 C47.4667155,175.722003 47.3130449,175.647649 47.1593742,175.573296 C46.6215269,175.424588 46.0836796,175.052821 45.6995029,174.606699 C45.238491,174.086225 44.9311496,173.417043 44.4701377,172.896568 C43.855455,172.078679 43.2407724,171.409497 42.7029251,170.517254 C42.3955837,169.848072 42.1650777,169.030183 41.8577364,168.361001 C41.3967244,167.468759 40.6283711,166.65087 40.1673592,165.684274 C39.7831825,164.717677 40.0905238,163.751081 40.7820418,163.081899" id="Path" fill="#4A444A" fill-rule="nonzero"></path>
            <path d="M51.9421607,173.851215 C52.0129991,174.64408 52.0838375,175.238728 51.7296456,175.63516 C51.4462921,175.899448 50.9504235,176.031592 50.5253932,176.229808 C49.7461711,176.494096 49.0377874,176.758384 48.2585652,176.890528 C47.5501815,177.022672 46.8417977,177.022672 46.133414,176.9566 C45.3541919,176.163736 45,174.710152 45,173.719071 C45,173.322639 45.1416767,172.992279 45.2833535,172.595847 C45.6375454,172.133343 46.2750907,171.802983 46.7709594,171.604767 C47.6918582,171.208335 48.7544339,170.944046 49.7461711,171.010119 C50.7379083,171.076191 51.3754537,171.670839 51.800484,172.463703 C51.800484,172.926207 51.8713223,173.388711 51.9421607,173.851215" id="Path" fill="#7C8084" fill-rule="nonzero"></path>
            <path d="M10.4799067,82.5065152 C10.5528669,81.1795366 11.5013499,80.073721 12.8875943,80 C13.763117,80 14.6386398,80.5160472 15.0764012,81.2532576 C18.0677706,81.2532576 21.1321003,81.1795366 24.1234698,81.1795366 C23.9045891,81.1795366 23.7586686,81.7693049 23.5397879,82.8013994 C24.7801119,82.5065152 25.8015551,83.3911676 26.3122767,84.4969832 C27.2607597,86.7823353 27.041879,89.4362925 26.7500381,91.8690867 C26.4581972,94.2281599 25.9474756,96.660954 25.6556346,98.8725851 C24.9260323,105.286315 23.7586686,111.626324 22.8831459,118.040054 C22.591305,119.809359 22.3724243,121.652385 22.1535436,123.42169 C22.0076231,136.765197 21.0591401,150.034984 20.9861799,163.30477 C20.8402594,163.820817 20.694339,164.336865 20.5484185,164.779191 C20.3295378,165.44268 20.0376969,166.10617 19.745856,166.695938 C18.7244127,167.654311 17.3381683,168.170358 15.660083,167.949195 L15.4412023,167.875474 C15.951924,168.022916 15.4412023,153.868478 15.2223216,152.467778 C14.054958,145.685443 12.3039124,139.050549 12.6687136,132.120772 C13.106475,124.232621 11.7931908,116.344471 10.6987873,108.530041 C9.45846342,99.7572375 10.1880657,91.5004815 10.4799067,82.5065152" id="Path" fill="#E9C2A4" fill-rule="nonzero"></path>
            <path d="M20.2892993,163 C19.5455165,165.799638 18.9504901,168.677044 18.0579507,171.398914 L18.2810855,171.398914 C18.0579507,172.409894 17.7604375,173.343107 17.4629244,174.27632 C17.3885461,174.509623 17.3141678,174.742926 17.1654112,174.976229 C17.0910329,175.053997 17.0910329,175.209532 17.0166546,175.2873 L17.0166546,175.2873 L17.0166546,175.365068 L17.0166546,175.442836 C16.1241151,175.598371 15.5290888,177.309261 16.4960066,177.853635 C18.5042204,178.864615 19.4711382,174.354087 19.9174079,173.032036 C20.5868125,170.699004 22,167.899366 22,165.488567 C21.9256217,164.322051 21.1818388,163.311071 20.2892993,163" id="Path" fill="#7C8084" fill-rule="nonzero"></path>
            <path d="M20.0298463,162.86748 C20.1052587,162.401856 20.0298463,161.936232 19.8790215,161.625815 C18.5215987,160.849775 16.9379388,160.927379 15.2788665,161.160191 L15.0526293,161.237795 C15.2034541,163.333104 14.7509798,165.738828 13.5443818,167.368513 C11.8853095,169.619029 10.5278866,171.248714 10,174.120062 C10.0754124,174.27527 10.1508248,174.508082 10.2262371,174.740894 C10.9803609,176.603391 12.8656704,177.534639 14.5247427,176.680995 C14.6755674,176.603391 14.8263922,176.525787 14.977217,176.370579 C15.5051036,176.137767 15.9575779,175.749747 16.2592274,175.284123 C16.6362893,174.66329 16.9379388,174.042458 17.3150007,173.421626 C17.8428873,172.490378 18.4461863,171.791942 18.8232482,170.78309 C19.1248978,170.007049 19.2003101,169.231009 19.5019596,168.454969 C19.8790215,167.446117 20.5577329,166.592473 20.9347948,165.506016 C21.161032,164.574768 20.7839701,163.565916 20.0298463,162.86748" id="Path" fill="#4A444A" fill-rule="nonzero"></path>
            <path d="M10,175.246566 C10,176.064574 10,176.678079 10.4303945,177.018916 C10.7173242,177.291585 11.2194511,177.359752 11.6498456,177.496087 C12.4389022,177.700589 13.2279588,177.90509 14.0170154,177.973258 C14.7343395,178.041425 15.4516637,177.973258 16.1689879,177.836923 C16.886312,176.950748 17.1015093,175.451068 16.9580444,174.428559 C16.886312,174.019555 16.7428472,173.678719 16.5993824,173.337883 C16.1689879,172.860712 15.5233961,172.65621 15.0212692,172.451708 C14.0170154,172.110872 13.0127615,171.90637 11.9367753,172.042704 C10.9325214,172.179039 10.3586621,172.860712 10.0717324,173.746886 C10.0717324,174.292224 10,174.769395 10,175.246566" id="Path" fill="#7C8084" fill-rule="nonzero"></path>
            <path d="M27.0997844,0.95745625 C28.0003461,1.32283516 29.7264228,1.03053203 30.4768909,0.445925773 C31.9778271,-0.79636253 35.8802613,0.592077338 37.4562443,4.17279068 C37.9065252,5.26892742 38.0566188,6.5842915 37.981572,7.89965559 C37.8314784,10.8957627 36.5556826,13.5995666 34.6795123,15.5726128 C29.5763291,20.9071449 30.02661,27.8493442 26.3493163,27.9954958 C20.3455714,28.2147231 14.7170605,20.3956144 15.0172478,12.3572783 C14.5669669,0.95745625 23.0472566,-0.79636253 27.0997844,0.95745625" id="Path" fill="#FBBF48" fill-rule="nonzero"></path>
            <path d="M30.2134868,24.0651724 L30.0645233,30.495536 L32.298976,30.7172727 C32.298976,30.7172727 34.5334288,35.5215673 34.9803193,38.5519685 C35.5016916,41.8041065 25.5211361,43.3562632 22.0204935,33.0824639 C18.5198509,22.8086646 25.1487273,20 25.1487273,20 L30.2134868,24.0651724 Z" id="Path" fill="#F6AF88" fill-rule="nonzero"></path>
            <g id="Group" opacity="0.0700073" transform="translate(21.000000, 20.000000)" fill="#010101" fill-rule="nonzero">
                <g id="Path">
                    <path d="M3.94615385,0 L8.65384615,3.92857143 C8.65384615,4.42857143 8.65384615,4.92857143 8.58461538,5.5 C8.58461538,6.42857143 8.51538462,7.35714286 8.51538462,8.28571429 C8.51538462,8.42857143 8.58461538,9.92857143 8.44615385,9.92857143 C8.37692308,9.92857143 4.63846154,5.92857143 0.830769231,4.42857143 C0.692307692,4.35714286 0.623076923,4.28571429 0.553846154,4.21428571 C0.553846154,4.14285714 0.553846154,4.07142857 0.553846154,4 C0.623076923,3.64285714 0.830769231,3.35714286 1.03846154,3.07142857 C1.17692308,2.92857143 1.24615385,2.85714286 1.38461538,2.71428571 C1.52307692,2.57142857 1.59230769,2.35714286 1.73076923,2.21428571 C2.14615385,1.71428571 2.56153846,1.21428571 3.04615385,0.714285714 C3.39230769,0.428571429 3.66923077,0.214285714 3.94615385,0"></path>
                </g>
            </g>
            <path d="M37.2383269,12.1594369 C36.6465472,14.0434992 38.4218863,17.1333614 37.904079,18.9420612 C37.6081892,19.9217736 35.7588777,23.9913483 34.2794285,26.1014981 C33.6136763,27.005848 32.7260068,27.9101979 31.6164199,27.9855604 C30.8766953,28.0609229 30.2109431,27.8348354 29.545191,27.458023 L22,23.0116359 L22.7397246,9.82319956 L34.7972357,5 L36.2766849,6.58261236 C37.2383269,7.63768726 37.6821617,9.14493712 37.4602443,10.5768245 L37.2383269,12.1594369 Z" id="Path" fill="#F6AF88" fill-rule="nonzero"></path>
            <path d="M24.5313634,16.6106772 C24.2572592,15.8732197 23.6176829,15.2177019 22.7953705,15.0538225 C22.4298983,14.9718827 21.9730581,14.9718827 21.5162179,15.1357622 C20.1456972,15.7093403 21.698954,19.7243868 23.8917871,19.970206 C25.5364118,20.2979649 24.9882036,17.8397731 24.5313634,16.6106772" id="Path" fill="#F6AF88" fill-rule="nonzero"></path>
            <path d="M35.55,15.4 C35.45,15.5 35.45,15.6 35.45,15.6 C35.45,15.6 35.55,15.6 35.55,15.4" id="Path" fill="#DEB090" fill-rule="nonzero"></path>
            <path d="M41.53125,59 L41.71875,58.6212121 C41.8125,58.469697 41.90625,58.2424242 42,58.0909091 C41.0625,56.2727273 40.6875,54.9090909 40.6875,54.9090909 C40.5,54.6060606 40.40625,54.3030303 40.21875,54 C40.03125,54.530303 39.75,55.0606061 39.46875,55.5909091 L39,56.4242424 L41.53125,59" id="Path" fill="#F5F5F8" fill-rule="nonzero"></path>
            <path d="M39.8235294,55 L39.8235294,55 C39.7058824,54.6923077 39.6470588,54.3846154 39.5294118,54.0769231 C39.6470588,53.5384615 39.7647059,53 39.8235294,52.4615385 L39.8235294,55 M39.9411765,47.2307692 C39.8823529,46.8461538 39.8235294,46.4615385 39.7647059,46 L39,42 L40,44.6923077 L39.9411765,47.2307692" id="Shape" fill="#EBB898" fill-rule="nonzero"></path>
            <path d="M41.0986267,58 C42.4902206,53.9375 42.2704952,49.4318182 40.4394507,45.5170455 L40.2197253,45 L40.1464836,47.4375 C40.4394507,49.1363636 40.3662089,50.8352273 40.0732418,52.4602273 L40,54.8977273 C40.0732418,54.8977273 40.4394507,56.2272727 41.0986267,58" id="Path" fill="#3C4145" fill-rule="nonzero"></path>
            <rect id="Rectangle" x="39" y="42" width="4" height="17"></rect>
            <path d="M28.4469274,59 L28.4469274,59 C32.6592179,59 35.4916201,58.1666667 36,57.9166667 C36,57.9166667 36,57.9166667 36,57.9166667 L36,57.9166667 C35.9273743,57.6666667 34.2569832,57 32.2960894,57 L32.150838,57 C31.8603352,57 31.4972067,57 31.1340782,57.0833333 C28.6648045,57.4166667 23,58.5833333 23,58.5833333 C25.0335196,58.8333333 26.849162,59 28.4469274,59" id="Path" fill="#F5F5F8" fill-rule="nonzero"></path>
            <path d="M30.6979247,30 C30.6979247,30 34.060171,31.2630218 36.1067557,31.857385 C38.1533404,32.4517483 41.0039405,36.2408137 41.3694021,38.9897436 C41.7348636,41.7386735 41.1501251,58.9009112 41.3694021,65.0674295 C41.588679,71.2339479 45.7549407,98.6489511 46.6320484,106.895741 C47.4360639,115.14253 50.1404794,160.239839 49.9942947,161.205679 C49.8481101,162.171519 42.4657867,165.663403 34.5718172,165.960585 C26.6778476,166.183471 15.714001,165.440517 12.2786624,164.251791 C8.84332382,163.063064 6.79673912,158.382454 7.01601605,155.707819 C7.23529298,152.95889 8.77023151,90.9222293 9.50115461,85.870142 C10.2320777,80.8180547 11.6208316,49.4653952 11.4015547,44.7847849 C11.1822778,40.1041746 10.8168162,35.7207459 9.28187768,33.8633609 C9.28187768,33.8633609 13.2288625,32.3774529 16.2987395,31.485908 C19.3686166,30.6686586 20.4650012,30.371477 20.4650012,30.371477 C20.4650012,30.371477 23.8272475,31.857385 24.1927091,31.485908 C24.4850783,31.114431 30.6979247,30 30.6979247,30" id="Path" fill="#1F1F1E" fill-rule="nonzero"></path>
            <path d="M32.4302861,125.720219 C31.3144739,109.147541 27.8182623,46.2010929 27,31.1147541 C28.9340745,30.6688525 32.3558986,30 32.3558986,30 C32.3558986,30 35.7777228,31.263388 37.8605722,31.8579235 C39.9434217,32.452459 42.8445335,36.242623 43.2164709,38.9923497 C43.5884083,41.7420765 42.9933084,58.9836066 43.2164709,65.0775956 C43.4396333,71.2459016 47.6797197,98.6688525 48.5723695,106.918033 C49.3906318,115.167213 52.1429686,160.277596 51.9941936,161.243716 C51.8454187,162.209836 44.3322831,165.702732 36.2984351,166 C36.0752727,166 35.7777228,166 35.5545603,166 C34.885073,157.602186 33.3229359,139.617486 32.4302861,125.720219" id="Path" fill="#252C2E" fill-rule="nonzero"></path>
            <path d="M31.827166,31 C31.827166,31 39.4814979,58.5706281 38.9760231,58.8678856 C38.4705484,59.165143 32.5492727,58.8678856 32.5492727,58.8678856 L29.4442136,45.0454143 L28,32.1890298 L31.827166,31 Z" id="Path" fill="#F8F8FA" fill-rule="nonzero"></path>
            <path d="M25,32.5973124 C25,32.5973124 25.7207207,60.8503897 25.7207207,60.9979254 C25.7207207,61.0716932 33,59.1537297 33,59.1537297 L31.1981982,32.0071698 C31.2702703,31.9334019 26.7297297,32.4497767 25,32.5973124" id="Path" fill="#FFFFFF" fill-rule="nonzero"></path>
            <path d="M20.9721863,82.740936 C20.6221172,83.5444822 20.6221172,84.640227 19.6419238,84.9324256 C18.8717718,85.1515746 17.9615921,84.7863263 17.2614539,84.5671773 C16.2812604,84.2019291 15.8611775,83.6905815 15.4410946,82.740936 C15.1610393,82.0834891 14.8809841,81.3529926 14.6709426,80.6955457 C14.6009288,80.5494464 14.4609011,80.0380988 14.4609011,79.9650492 C14.4609011,79.8919995 14.4609011,79.8189499 14.3908873,79.6728506 C14.3208735,79.4537016 14.2508597,79.2345527 14.1108321,79.0884533 C13.760763,78.7232051 14.3208735,78.1388079 14.6709426,78.5771058 L14.7409564,78.6501554 C14.8809841,78.4310065 15.0910255,78.2849072 15.2310532,78.1388079 C15.8611775,77.7735596 16.4913019,78.2118575 17.0514125,78.5040561 C17.8915783,79.0154037 18.7317441,79.380652 19.0818132,80.4033471 C19.2218409,80.7685954 19.3618685,81.3529926 19.3618685,81.8643402 L19.3618685,81.8643402 C19.57191,81.9373898 19.6419238,82.1565388 19.6419238,82.3756877 C19.57191,82.5948367 19.4318823,82.8139857 19.3618685,83.0331346 L19.5018961,82.8139857 C19.57191,82.6678864 19.7119376,82.4487374 19.7119376,82.3026381 C19.8519652,81.9373898 20.2720481,82.0104395 20.4120758,82.2295884 C20.6921311,81.9373898 21.112214,82.3756877 20.9721863,82.740936" id="Path" fill="#F6AF88" fill-rule="nonzero"></path>
            <path d="M7.26070252,68 C8.66849616,69.3231115 10.0021954,70.7932354 11.2618002,72.2633593 C13.1882547,74.5420513 15.4851811,77.0412619 16.6706915,79.9080034 C16.9670692,80.6430654 17.115258,80.5695592 16.8929748,81.3046211 C16.3002195,83.4363008 13.1141603,80.0550158 12.150933,79.3199539 C10.4467618,77.9968424 8.74259056,76.6737309 7.11251372,75.203607 C6.74204171,74.836076 6.2974753,74.5420513 5.92700329,74.1745203 C4.51920966,72.9984212 3.11141603,71.7488159 2,70.3521982 C3.85236004,69.5436301 5.92700329,68.5880496 7.26070252,68" id="Path" fill="#F6AF88" fill-rule="nonzero"></path>
            <path d="M10.1117186,35 C10.1117186,35 7.56962646,35.9489051 7.33852717,36.3138686 C7.10742789,36.6788321 -0.441815513,65.729927 0.0203830626,67.5547445 C0.482581638,69.379562 7.10742789,75 7.10742789,75 L10.8050165,70.4744526 L7.10742789,65.6569343 C7.10742789,65.6569343 13.9633734,57.0437956 12.8849101,48.649635 C11.8834798,40.2554745 11.8064467,36.3868613 10.1117186,35" id="Path" fill="#3E4347" fill-rule="nonzero"></path>
            <path d="M25,32 C25,32 24.6666667,29.0344009 24.25,28.4412811 C23.8333333,27.7740214 23.3333333,26.8102017 21.25,27.0326216 C20.3333333,27.1067616 20,30.9620403 20,30.9620403 L25,32 Z" id="Path" fill="#353B3E" fill-rule="nonzero"></path>
            <path d="M32,31 C32,31 32,28.7058824 30.1052632,28 L30,30.4705882 L32,31 Z" id="Path" fill="#1F1F1E" fill-rule="nonzero"></path>
            <path d="M24,31.0808652 C24,31.0808652 29.7010309,31.3510814 30.8556701,30 C30.8556701,30 31,30.4503605 31,30.7205768 C31,30.9907931 31,31.4411535 31,31.4411535 C31,31.4411535 30.6391753,33.2425955 24.1443299,32.9723792 L24,31.0808652 Z" id="Path" fill="#F1F1F4" fill-rule="nonzero"></path>
            <polygon id="Path" fill="#44494E" fill-rule="nonzero" points="57 65.4758621 51.5714286 72 46 65.4758621 52.2857143 61"></polygon>
            <path d="M14,71.4738302 C14,71.4738302 8.88721805,78 8.73684211,78 C8.58646617,77.9266722 4,71.6938135 4,71.6938135 C4,71.6938135 8.88721805,66.9275097 9.03759398,67.0008375 C9.11278195,67.0741652 14,71.4738302 14,71.4738302" id="Path" fill="#44494E" fill-rule="nonzero"></path>
            <polygon id="Path" fill="#5F6263" fill-rule="nonzero" points="15.9459459 84 22 82.5698925 14.0540541 49 8 50.4301075"></polygon>
            <path d="M18.4755183,80.9453022 C19.5130128,80.6859285 20.2046758,79.6484341 19.9453022,78.5244817 C19.6859285,77.4869872 18.6484341,76.7953242 17.5244817,77.0546978 C16.4869872,77.3140715 15.7953242,78.3515659 16.0546978,79.4755183 C16.4005293,80.5130128 17.4380238,81.2046758 18.4755183,80.9453022" id="Path" fill="#FFFFFF" fill-rule="nonzero"></path>
            <path d="M16.8340442,81.2885129 C18.2936481,81.9540912 17.9692917,83 17.9692917,83 C17.9692917,83 15.3744402,82.8098348 15.0500838,81.6688434 C14.6446382,80.4327694 16.8340442,81.2885129 16.8340442,81.2885129" id="Path" fill="#DCA885" fill-rule="nonzero"></path>
            <path d="M19,83.6686267 C19,83.6686267 19.3449115,83.0779365 19.3449115,82.421614 C19.3449115,81.7652916 19.9485067,81.9621883 20.1209624,82.421614 C20.2934182,82.8810397 20.1209624,83.2748332 20.1209624,83.2748332 C20.1209624,83.2748332 19.9485067,82.2903495 20.2934182,82.2247173 C20.6383297,82.0934528 21.2419248,82.8810397 20.8970133,83.6029944 C20.5521018,84.4562136 19,83.6686267 19,83.6686267" id="Path" fill="#DCA885" fill-rule="nonzero"></path>
            <polygon id="Path" fill="#5F6263" fill-rule="nonzero" points="38 86.3535354 38.0745698 93 77 92.7171717 76.9254302 86"></polygon>
            <path d="M70,89 C70,90.1538462 70.9230769,91 72,91 C73.1538462,91 74,90.0769231 74,89 C74,87.9230769 73.0769231,87 72,87 C70.9230769,87 70,87.8461538 70,89" id="Path" fill="#FFFFFF" fill-rule="nonzero"></path>
            <polygon id="Path" fill="#5F6263" fill-rule="nonzero" points="37 72.2857143 37.0745698 79 76 78.7142857 75.9254302 72"></polygon>
            <polygon id="Path" fill="#5F6263" fill-rule="nonzero" points="36 79.2828283 36 86 75 85.6464646 75 79"></polygon>
            <path d="M67,83 C67,84.1538462 67.9230769,85 69,85 C70.1538462,85 71,84.0769231 71,83 C71,81.8461538 70.0769231,81 69,81 C67.9230769,81 67,81.9230769 67,83" id="Path" fill="#FFFFFF" fill-rule="nonzero"></path>
            <path d="M69,75 C69,76.1538462 69.9230769,77 71,77 C72.1538462,77 73,76.0769231 73,75 C73,73.8461538 72.0769231,73 71,73 C69.9230769,73 69,73.8461538 69,75" id="Path" fill="#FFFFFF" fill-rule="nonzero"></path>
            <rect id="Rectangle" fill="#825342" fill-rule="nonzero" x="71" y="105" width="6" height="70"></rect>
            <path d="M28.2919207,105 L120.708079,105 C122.038872,105 123,103.951613 123,102.5 C123,101.048387 122.038872,100 120.708079,100 L28.2919207,100 C27.035061,100 26,101.048387 26,102.5 C26.0739329,103.951613 27.035061,105 28.2919207,105" id="Path" fill="#825342" fill-rule="nonzero"></path>
            <path d="M27,105 C57.3552,107.895037 88.3056,107.428096 120,105 L27,105 Z" id="Path" fill="#825342" fill-rule="nonzero"></path>
            <polygon id="Path" fill="#5F6263" fill-rule="nonzero" points="36 93.2828283 36 100 75 99.6464646 75 93"></polygon>
            <path d="M67,96 C67,97.1538462 67.9230769,98 69,98 C70.1538462,98 71,97.0769231 71,96 C71,94.8461538 70.0769231,94 69,94 C67.9230769,94 67,94.9230769 67,96" id="Path" fill="#FFFFFF" fill-rule="nonzero"></path>
            <polygon id="Path" fill="#535657" fill-rule="nonzero" points="38 93.25 38.0745698 93.95 77 93.75 76.9254302 93.05"></polygon>
            <polygon id="Path" fill="#535657" fill-rule="nonzero" points="36 85.4166667 36.0745698 86 75 85.5 74.9254302 85"></polygon>
            <polygon id="Path" fill="#535657" fill-rule="nonzero" points="37 78.4166667 37 79 76 78.5 75.9254302 78"></polygon>
            <path d="M47,178 L101,178 C101,175.280702 99.0949796,173 96.8236092,173 L51.1763908,173 C48.9050204,173 47,175.280702 47,178" id="Path" fill="#825342" fill-rule="nonzero"></path>
        </g>
    </g>
</svg>