<svg height="250" viewBox="0 0 250 250" width="250" xmlns="http://www.w3.org/2000/svg" xmlns:xlink="http://www.w3.org/1999/xlink"><mask id="a" fill="#fff"><path d="m.10550468.45832398h3.16539833v33.40281682h-3.16539833z" fill="#fff" fill-rule="evenodd"/></mask><mask id="b" fill="#fff"><path d="m.36122083.44047974h36.93644247v33.92243666h-36.93644247z" fill="#fff" fill-rule="evenodd"/></mask><mask id="c" fill="#fff"><path d="m.20035452.07345763h6.36737123v2.30630589h-6.36737123z" fill="#fff" fill-rule="evenodd"/></mask><mask id="d" fill="#fff"><path d="m0 173h220v-173h-220z" fill="#fff" fill-rule="evenodd"/></mask><mask id="e" fill="#fff"><path d="m.1229363.0190322h3.18252635v13.4541818h-3.18252635z" fill="#fff" fill-rule="evenodd"/></mask><mask id="f" fill="#fff"><path d="m.33263408.35873199h11.17934782v1.73543644h-11.17934782z" fill="#fff" fill-rule="evenodd"/></mask><g fill="none" fill-rule="evenodd" transform="translate(15)"><path d="m75.453803 81.9700277c.8319173-.313727 2.0040905-.2257506 2.4062111-1.2200495.3207196-.7917873.0162802-1.8707427-.177454-2.6575501-.266995-1.0706557-.7537725-1.644992-1.6963951-2.1695303-.6723716-.3751445-1.3724195-.7303698-2.0708394-1.0457568-.1628018-.0763568-.3483959-.1377743-.532362-.2025116l-.1758259-.1128753-.2897873-.0597575c-.2181545-.0946161-.4200287-.2091514-.5779465-.3718247-.3728162-.3884239-.9865791.1792726-.6153909.5676966l.0830289.0746969c-.2393187.1361143-.4477051.3120671-.5974827.5095989-.4721254.6324338-.0374445 1.3827228.2393187 2.0151567.4216567.9627601.7733087 1.9271803 1.7729119 2.3952809.4037486.1908921.9475067.3817842 1.4587045.411663l.003256.0348585c.0504686.2357103.268623.3535654.4916615.3236867.2458308-.0282189.4721254-.1809326.708188-.2655891l-.2523428.1294747-.5730625.2124712c-.4070046.0796767-.3923524.5975753-.1204733.773528-.263739.2805284.0862849.8200061.5160818.6573328" fill="#866552"/><path d="m65.7225649 156.656121c-1.5097655-1.826237-5.8898886-1.165512-7.883238-.866498-.7655379.115748-1.5310759.112532-2.2998924.009646-.3163787-.04019-1.9228609-.233103-1.9310573-.681624-.0131141-.570699-.4130954-.900258-.8622547-.983853.0950775-.38904-.0032786-.831131-.4048991-1.13336l-.0901597-.06752c-.3147394-.236317.1803194-1.05298-.1442556-.917941-1.0261815.424407-1.7556556 2.993357-1.978596 3.819665-.6048897 2.25386 1.047492 2.994965 2.5097187 3.027117 4.514543.102887 9.2815332.421192 12.6076072-.488711.8130767-.22185.9638893-1.125323.4770269-1.716921" fill="#19303b"/><path d="m52.0990391 156.245808c2.2182107 1.216582 5.7069684.642753 8.0107432.447202.0855642-.006411 2.1068157-.322178 1.8711107-.437585-3.2401374-1.622109-5.5326112-1.30474-6.3091464-4.502474-.2728366-1.123615-1.9744334-.900816-2.0293236.219594.0048432-1.295123-2.034167-1.301535-2.0696842.009617-.0322884 1.162084-1.1995127 2.928452-.1065516 3.837281.1985734.160288.4084478.304547.6328519.426365" fill="#866552"/><path d="m43.861307 150.772516c-.0822189-.524417-.4529796 1.241705-.8268428 1.201856-.7073927-.076511-1.4659783-.09245-2.188884.076511-.150476-.656717.1799508-2.454719-.3785171-1.968557-1.5249276 1.326186-2.2074995 5.290396-2.3781425 7.394441-.1752969 2.215622-.2606184 4.821768 1.4411575 6.058691 2.7706213 2.014781 3.9449552-3.018985 4.2505613-5.634695.1908098-1.633822.3397346-5.491236.0806676-7.128247" fill="#19303b"/><path d="m42.4147788 152.030238c-.2769904-.56175-.6798855-.864231-1.2560846-.527798.0814677-.047842-.7243224-.575639-.9909441-.493846-.4710317.148154-.7509846 1.088004-.9346573 1.495427-.549537 1.223812-.9494696 2.518614-1.1835042 3.845825-.3421646 1.944519 1.1212925 4.785676 3.3120343 3.174504 1.2531222-.921332 1.6234301-2.680658 1.6382424-4.185345.0044437-.54786-.0992425-2.325705-.5850865-3.308767" fill="#866552"/><path d="m68.5148133 92.2195417c.6154376-3.9142123.6709538-7.8869184.0190341-11.8206286-.2442716-1.480219-.4568196-2.9653124-.6027481-4.4601548-.7978482-.6515563-1.7654175-1.1162573-2.7091942-1.4558465-1.5259045-.5508169-3.4245611-.7734184-4.8759152.1153629l-.4409578.3103423c-.628127-.2453492-1.3609418-.1852305-2.0366542.113738-1.5290769.6759287-2.3808551 2.3819988-2.9344317 3.8914647-.6265408 1.7223184-.8708124 3.594121-1.0833605 5.4090546-.4171651 3.5729983-.6344717 7.340976-.4235098 10.9334722.1728935 2.9198172.610679 5.8136375.7550213 8.7350795.1443423 2.866197-.0919984 5.732395-.5313701 8.562847-.9279148 6.005366-2.4728535 11.870998-3.078774 17.929984-.3267529 3.254532-.6328855 6.575682-.5615074 9.849712.0729642 3.410515.5155082 6.806407.4584058 10.221797-.0142756.944025.6979189 2.105778 1.6702468 2.282884.5186806.095865 1.0214994.175482 1.548111.159233 1.2435645-.034121 2.3015461-1.020392 2.3158217-2.334878.0983432-8.414988 1.3070118-16.672368 3.3309766-24.817634 1.0230856-4.112441 2.3903721-8.081898 3.6624879-12.113098 1.5988688-5.056466 2.5600934-10.306288 4.0986873-15.369254.6154376-2.0229118 1.0960499-4.0750704 1.4196305-6.1434773" fill="#acdcf7"/><path d="m58.2507734 85.5647972c-.0691888.6369186-.1352328 1.2754619-.1981318 1.9140053-.2280087 2.2860828-.5786705 4.5640417-1.0677101 6.8078799-.4701698 2.159349-1.1290366 4.2634551-1.6888375 6.3968076-1.1431889 4.347944-2.0678039 8.76088-3.410697 13.048707-1.262697 4.03111-2.6181699 7.998853-3.6324159 12.109577-2.0064774 8.148334-3.2047029 16.403904-3.3006238 24.821953-.0157248 1.311207-1.0645652 2.297456-2.2973851 2.334826-.5141992.012999-1.0063837-.063367-1.5142929-.157605l-.0204422-.003249c-.9654993-.177103-1.6699678-1.338829-1.6542431-2.284458.0550366-3.416939-.3836837-6.80788-.4560175-10.221569-.0691889-3.273956.2327262-6.591782.5582284-9.846241.6006852-6.063725 2.1307028-11.927601 3.0537453-17.931208.4340029-2.828764.6667291-5.698147.523634-8.562656-.1446677-2.919752-.5739532-5.8167566-.7453529-8.7365084-.2138565-3.590791.003145-7.3586844.4167057-10.9332276.2091391-1.814893 2.4672124-8.6227729 3.9846502-9.2986865.6022577-.2680907 1.2532621-.3444559 1.8287877-.1771023l.188697.0633669.4371479-.3119602c1.4388141-.8871366 3.3194935-.6661648 4.8353588-.1137354 1.5504598.5654277 3.1842607 1.4655627 3.9767878 3.0302377l.1289429.2875882.1603924-.2745899c.5330688-.8790126 1.7706062-.2745899 1.6731128.5670525l.0613265.038995c.4324304.0276215.8632884.3249585.8978829.892011.1430951 2.4014431-1.2768493 4.6680284-2.7392505 6.5397892" fill="#92d2f4"/><path d="m65.579044 24.4353478c.5037044 1.8239372 1.0424346 3.710382 1.3326483 5.5775936.2285017 1.4585087.0817269 2.7102617-1.2625967 3.4523381-1.5094453.8318308-3.5159234 1.2581641-5.1771471 1.7245663-3.5909787 1.0161478-7.3137211 1.6893057-11.0648177 1.7678407-1.2092241.0272469-4.1664025.2291943-5.1437892-.5737869-.8806487-.7244461-.8656376-3.3722003-1.050774-4.4893217-.1951438-1.1844373-.2435127-2.3768883-.1951438-3.5693394.0717195-1.7902793.2885459-3.5997917.6604866-5.3564131.5387302-2.5323557 1.59284-5.7458831 4.0279672-7.149898l.0917342-.052891c1.227571-1.3286854 2.7703742-2.3159835 4.7301512-2.6429459 2.1399097-.355812 4.159731.0817406 5.9226963 1.0289698 1.8280133.9728734 3.3774881 2.4874786 4.509989 4.2168531 1.2225673 1.8672117 2.0314965 3.9443844 2.6185957 6.0664344" fill="#312b2b"/><path d="m58.5693284 36.9784319c-1.3516529 1.1443457-4.3007136 1.5926784-5.5414353-.0752446-.5922014.0203788-1.1997626-.5470913-.9830202-1.4327835l.0631454-.2649238.1023979-.4577383c.1041046-.5361181.1774898-1.0785066.2491683-1.6224626.0307194-.217896.0597322-.4357919.0921582-.6552555l.0051199-.4279539c-.0051199-.3213573.0750918-.5721728.2047958-.7540141l.0324261-.1332457.0853316-.3401685c.3344999-1.2086171 1.6281273-.9625044 1.8602293.0203788.2252754.1207049.4232448.3433037.5256427.6928777l.0477857.1771385c.0648521.2633562.0972781.5376857.1058112.8151503l.0119465.0031352.0290127.0141084c.3447398-.2225988.798704-.2006524 1.1024845.1269753l.4403112-.0470279.1006913-.1614625.1211709-.3323305c.4181249-.7885012 1.508663-.4890902 1.7254053.3762232.051199.1834089.0580255.3934668.0102398.622336-.0494923.260221-.083625.5235773-.1006913.7900687.0153597.210058.0307194.4216836.0460791.6317415v.0015676c.0290127.3793585.0529056.7587169.0631454 1.1380753.0904515.4499003-.0068266.9609368-.399352 1.2948349" fill="#866552"/><path d="m58.9654551 13.0890976c.156242 1.5315394-.1918219 3.023653-1.5732487 4.0290101-1.2329195.8992108-3.1650607 1.0629793-4.6114594.706631-1.7155681-.4230688-3.092354-1.5982599-3.780747-3.1570941l.0850823-.0500404c1.1385555-1.255559 2.5710317-2.1911628 4.3871516-2.5005034 1.9847375-.3381518 3.8580945.0773351 5.4932212.9719968" fill="#312b2b"/><path d="m58.971447 33.9109271c-.0452954.2514378-.0754923.5074471-.0905908.7680281.0135886.2041979.0286871.4099198.0422757.6141177v.0015239s-1.9673313 3.7014688-5.9231319.1981025c.0271773-.2133412.2717726-2.002359.3004597-2.2141763l.0060394-.4175391c-.0045296-.3123924.0664332-.5562108.1796718-.7329792l.0286871-.1280047 2.2315547.5348767 1.6880095.4053482 1.5279657.3687754c.0452955.1752445.0513349.3809663.0090591.6019268" fill="#694f3f"/><path d="m59.9939103 16.3730299c-.3647571-.1890095-.797301-.3155497-1.3073154-.3652048-.9893634-.0961065-2.2272781.7224008-3.1875901.8473393-1.6446351.2146379-4.0316962.2755053-4.891942 1.9205287-.798915 1.5296956.0338933 3.2195687.3437755 4.8389637.0629448.3411782.104908.6823563.1388014 1.0235345l-.0564889-.0288319c-.4470696-.200222-.9151208-.2418681-1.383172-.0816906-.3486175.1201332-.7004629.5013557-.6439739.9001978.1807646 1.3118541 1.1798118 2.2216626 2.3676935 2.7262219l.0290514.0128142c.1032941.5462054.2598491 1.0876055.5100144 1.6145896.8715437 1.8372365 2.5629839 2.7950982 4.3012292 3.7065084 1.6058998.8393304 3.0923659.6054712 4.57399-.4004438 1.5026058-1.020331 1.9012563-2.5099822 2.0610393-4.2270855.1726947-1.8660684.3018123-3.6840835-.2259558-5.5020987-.6472018-2.2280696-.3566873-5.8080378-2.6291566-6.9853428" fill="#866552"/><path d="m45.9613062 53.3613092c-.0091379-1.6893096.3624699-12.8384287-1.0234444-14.2602373-.4858315-.4944716-1.5534424.9630038-1.85347 1.4023539-.9229276 1.3472326-1.1879266 2.9927693-1.589994 4.690185-1.0325823 4.36432-1.2838745 8.832398-1.4544486 13.3799157-.2025567 5.3954149-.9777549 10.9026939-1.5427815 16.3191847-.3274413 3.1451638-.441665 6.3195094-.4782166 9.4906127-.0213217 1.6860672-.0167528 3.3721343-.0167528 5.0598227-.0030459.8803216-.0563503 1.9487046.6031012 2.3831911 1.0965476.719821 1.3980982-.9662462 1.6082698-1.9827501.4172972-2.0459777.8193647-4.0984402 1.1985874-6.1573876.8635312-4.6820789 1.762091-9.4225216 2.1672044-14.2229493.1264076-1.5774456.4706017-3.094906.8285027-4.5848057.7371236-3.0689665 1.3630695-6.590253 1.5321206-9.8521445.0228447-.4733957.0228447-.9484127.0228447-1.4234297z" fill="#866552"/><path d="m66.338559 67.1154274c.285824.4214395.5664195.8364693.836558 1.2418845 1.1345818 1.7113971 2.3144772 3.3939504 3.5396861 5.0476599.6849319.9262055 2.6804713 4.7704391 3.9684221 3.2385144.4374501-.5191878.3102236-.5304049.2614244-1.1970164-.1917112-2.7177242-1.5668035-5.5828721-2.6787285-8.0698461-1.0753256-2.4036475-2.3458481-4.7223662-3.7679967-6.967373-1.2931793-2.0398956-.4095649-4.023706-.1847399-6.2639055.3032522-3.0318008.3241662-6.0844332.0662275-9.1210412-.1620831-1.8732427-.2300535-6.803925-2.2709065-7.9416515-1.0108409-.5624536-2.1001092 1.9084961-1.4866333 2.5013958-.9045284 1.5799977-1.673116 3.3250458-2.0251675 5.0861183-.1725401.1570383-.3049952.3829811-.3520515.6778286-.4984492 3.1792245-.142912 6.1052647.2474817 9.1114266.2614244 2.0366907.3816796 4.116647.6971317 6.1373134.3590228 2.2994895 1.7846571 4.4948209 3.1492924 6.5186922" fill="#866552"/><path d="m39 150.005v.002-.014z" fill="#5e91ab"/><path d="m67.4388142 71.1456068c-.4695308-1.4276307-1.1095077-2.7911703-1.5838625-4.2155964-.5193782-1.5542108-.7107281-3.2750586-.6190731-4.9093833.1704461-3.116433 1.173827-6.0902631 1.718933-9.1458094l.0160798-.0897276.0032159-.0672958c.0096479-.1874666.0401996-.3765356.0546714-.5672068.0257278-.3300695.0418076-.6617413.0401996-.9934131-.003216-.3765356-.0337676-.7546734-.0611033-1.1296068l-.0128639-.1025458-.0482395-.3316718c-.2411973-1.46929-.631937-2.9097389-1.0065968-4.3485856-.8072071-3.1100238-1.355529-6.1543542-.910118-9.3396852-1.5742146-.4742746-3.3896265-.4262062-4.9188176-.7274347-.9696133-.1922735-1.7832523-.34449-2.6724665.1906712-.5016904.3012285-.9792611.6761618-1.5549188.7867191-1.0307166.2018872-1.622454-.4774792-2.4650367-.866833-.3457162-.1634325-.6801765-.2291259-1.0275007-.2387396-.7718314-.0256365-1.6353179.7482643-2.3074545 1.0687202-1.534015.7322415-3.1194855 1.3571304-4.6840522 2.0172694-.8457986.355706-1.2960337.809151-1.3844727 1.7320638-.1189907 1.2593914.4888266 2.4290552.636761 3.656401.2042137 1.6727794.4180754 3.3247292.7879113 4.9734745.723592 3.2189788 2.0115857 6.2761274 2.6821143 9.5079244.5627938 2.7014427.4341552 4.8533036-.5274181 7.4025297-.6255051 1.6679726-1.2542262 3.3343429-1.8829472 5.0039178-.3151646.8331851-.9905171 1.7272569-1.0435805 2.6357491-.1093428 1.8922917 3.8382536 2.485135 5.155191 2.8889093 2.9795911.9036855 6.0685249 1.6695749 9.1767546 1.9483715 1.897419.1682393 3.8495094.2018872 5.7147688-.2451487.9438856-.2275237 2.3171024-.6697527 3.2851077-1.3987897-.0562794-1.3363008-.1479344-2.6709993-.2508452-4.0024933-.091655-.3669219-.1913499-.7322416-.3103406-1.0927544" fill="#866552"/><path d="m67.4229849 58.6225014c-.4600633 2.1126704-.5889464 4.3116056-.2871317 6.4552011.1158315.8170729.3001832 1.6227523.4241719 2.4398251.0571001.3776114.1093058.7568504.1582487 1.1344618l.0375229.2962296c.0277344.2181031.0522058.4345786.0799401.6494264.1908774 1.5690403.3735976 3.1331977.6688865 4.684334.0685201.9765812.128883 1.9547899.1680374 2.931371-.9804897.7389464-2.3737313 1.1898013-3.3297496 1.4209255-1.8940907.4541102-3.8730159.4199299-5.7997352.2474006-3.1535551-.2799533-6.287533-1.0595905-9.3105736-1.9792044-.5856835-.1790399-1.6852677-.3955154-2.7228574-.7422017-1.3328787-.4475996-2.569503-1.1100471-2.5075086-2.1907969.0538372-.9212415.7406694-1.829462 1.0604298-2.6758322.6346264-1.6959959 1.2725157-3.3887365 1.910405-5.0847323.9723326-2.5895676 1.1044784-4.773854.5334778-7.5196746-.3034461-1.4616164-.7325123-2.8923077-1.1778928-4.3164885.5416349-1.3037358.9233896-2.6644388 1.0816384-4.0690879l.0016314-.017904c.0538372-.4882906.083203-.9830917.0783087-1.4827757-.0081572-1.5088178-.2773432-3.0518159-.5106378-4.5378469-.2969203-1.8994502-.7765608-4.2237132-1.910405-5.8952946.750458-.3141336 1.5058103-.6266395 2.2562683-.9472837l.3850176.3271547c2.7685375 2.0784901 6.4180474 2.7539587 9.7869513 2.1240639 2.55482-.4752694 4.6609967-1.9059608 6.1472299-3.8737717.5971035.1090516 1.1762613.2604216 1.713002.4964287.0489429 2.49842-.1158316 5.0082335.8352923 7.392719 1.1485271 2.8760314 3.6331957 6.3022034 2.5319801 9.5411974-.2773432.8235834-.879341 1.3135016-1.3018815 2.0068742l-.0489429.0813818-.01142.0162763c-.2773432.4899182-.469852 1.0807498-.6183122 1.6764643-.1256201.4850353-.2251374.9733258-.3213918 1.4111597" fill="#f6a000"/><path d="m68 56-.0522986.0913738-.0118094.0182748c-.2851117.5518981-.4841839 1.2152722-.6393926 1.8841287-.8485871.0475144-1.9299874-.1717828-3.2964994-.8406393 1.5841417.2887413 2.9523408-.3344283 4-1.153138" fill="#df9300"/><path d="m50.4451504 57.1309329c.6149348 3.1538462.707872 8.3486088-.0820945 10.3747954-.5963473 1.5270049-2.2196512 6.2602291-2.9817366 8.4942717-1.2654954-.4500818-2.4380537-1.1162029-2.3791934-2.202946.0480176-.9279869.7032251-1.8396072 1.0052712-2.690671.6040921-1.7070377 1.2097331-3.4075287 1.8122762-5.1129296.9262745-2.603928 1.0501909-4.8003274.5096059-7.5613748-.2896544-1.4713585-.6954804-2.908347-1.1198938-4.3404256.5142528-1.3109656.878257-2.680851 1.0269566-4.091653-.0278812.4615385.1409548 5.5957447 2.2196511 5.9116203 2.1096754.3207856 3.5440069.0310966 3.5440069.0310966s-1.6093633 1.6726677-3.5548496 1.188216" fill="#df9300"/><path d="m44.6901225 99.5517626c-1.4460998-4.1871932-3.1546877-5.2648371-4.4204276-5.2492191-1.7794435-.0874609-3.7634023 2.3427042-3.9357104 3.8123606h.0048311c-.0579729.356091-.397758.5997322-.7616985.5481927-.3703819-.0531013-.6232078-.3857653-.5700661-.7418563.3655509-2.0553324 2.4123135-4.8290941 5.2626439-4.9212405 2.1675394.015618 4.2175228 1.7960732 5.6958297 6.1425703.117556.340473-.0756867.7074966-.425134.82307l-.212567.0343597c-.2818124 0-.5426901-.1733601-.6377011-.4482374" fill="#000"/><path d="m48.969659 118c1.0986083-.477235 4.030341-2.014993 4.030341-3.163339 0-1.151661-.2247873-14.648466-.7329332-15.5366531-.8231647-1.4383335-20.0598905-2.3000079-20.7944067-2.3000079-.7313502 0-2.4726601.8616744-2.4726601.8616744l17.6822109 8.5372056z" fill="#2d2e2f"/><path d="m49.3944888 116.890704c-.0283137.724505-.581263 1.211467-1.234143 1.090999l-21.2252603-3.858371c-.5646079-.100108-.9809854-.361405-.9310201-1.023131l1.1225538-15.0686883c.0499653-.636275.5362942-1.0926963 1.0909091-1.0248269l20.4807773 2.0123257c.6312283.0780497 1.3307425.7143247 1.3007633 1.3998045z" fill="#040305"/><path d="m36.7242551 110.185327c-.0329817.508632-.3894986.870863-.7962734.807472l-6.2900891-.993115c-.3910692-.060371-.6721993-.510141-.6345059-1.00368l.3235352-4.20791c.0376934-.487502.3753636-.83313.7648623-.783324l6.2351195.849733c.4020631.054334.7036105.504104.6706287 1.002171z" fill="#2d2e2f"/><path d="m47.7767466 111.079747c-.0268623.577122-.4230815.986264-.8881354.911421l-7.1520924-1.159234c-.4432283-.071516-.7706128-.585438-.7336771-1.145928l.2837333-4.789947c.031899-.552175.4113292-.951337.8478419-.889799l7.0849366.994579c.4600172.066527.8075485.578785.7790072 1.145928z" fill="#2d2e2f"/><path d="m43.690074 100.553125c-1.4459836-4.1890625-3.1544343-5.2671875-4.4200725-5.253125-1.7793006-.0875-3.7614898 2.3453125-3.9353943 3.815625h.0048307c-.0563579.353125-.397726.6-.7648577.5484375-.3671317-.053125-.6231578-.3859375-.5667999-.7421875.3655215-2.0546875 2.4121198-4.834375 5.2622212-4.921875 2.1689755.015625 4.2204044 1.790625 5.6953721 6.14375.1175466.339062-.0740704.707812-.4250998.821875l-.21255.034375c-.2801794 0-.5442566-.173437-.6376498-.446875" fill="#000"/><path d="m41.5731627 94.3419032c.0866865-.309243-.2404322-.6962016-.6002628-.484103-.1750085.1036207-.3712797.1667646-.5659153.2234322l-.2764153.0728583c.2338898-.0906681.5037627-.1327641.7082119-.2720044.1848221-.1279068.2715085-.3578153.1537458-.5634376l-.0196271-.0259052c.3647373-.3610534.6460594-.858109.8227035-1.2644965.4432458-1.0054448.0736017-1.9380312-.2420678-2.9208089-.2060848-.6395341-.3696441-1.4749761-1.1416443-1.6239309-.2404322-.045334-.5135763-.0340005-.7834492.0259052l.0114491-.1084779c.0278051-.5310562-.804712-.5359134-.8308815-.0064763-.0098135.2218131-.088322.4387689-.1913644.6541057l-.1750085.2331466-.0572458.1991461-.2698729.5002938c-.3123984.6929635-.6051696 1.4150703-.8635934 2.1307009-.3631017 1.0070638-.3516526 1.7469805.1521102 2.703853.3680086.6994398.8472374 1.6870747 1.6077884 2.0513663.9519154.4565788 1.7746189-.3837204 2.6038648-.7059161.4285255-.1651455.3385679-.791727-.0425254-.8192513" fill="#866552"/><path d="m113.966349 84.1994949.193713-1.0582824c-1.324994.5112867-2.865397.4577234-4.117556-.1412125l-.046491.7823498h-.006199l-1.989816 7.2927341.774851 4.6957221 1.557449 2.1879825s1.083241.3294959 1.261457-.8748684c.179765-1.2059874.856985-6.6386116.856985-6.6386116s.790347-.2970333.87868.7515103c.088333 1.0485435.477308 2.6375902 1.670578 2.6278514l-.125526-4.963539z" fill="#f9c5af"/><path d="m146.474632 78c-.108067.0212273-27.952589.1779827-28.100556.0783777l-.374076 14.4590569 1.236943 24.3950664 3.172161 35.065866 6.081637.001633 1.162128-34.464971 1.85874-25.5968574 1.389899-.0604161 2.791435 24.7902205 5.365075 35.332024h5.865504l-.527031-35.456122.603509-25.2898786z" fill="#de5d3f"/><path d="m146.470433 78c-.035193.0081643-2.979655.0277588-6.956438.0489861.224563.3559655-21.992131 5.60564-21.506136 5.6791191 8.451293 1.286701 25.154453.9748229 25.290197 4.1180962.182667 4.269953-.787648 28.0020746-.397176 35.1279156.400527 7.356076.926743 26.710474 1.188175 29.025883h2.833856l-.531243-35.456122.608332-25.2898786z" fill="#d52d1e"/><path d="m126.13308 140.539407c.019011 3.828752.030711 7.652693-.13308 11.460593h2.34279l1.020767-33.857271 1.636443-25.142729s-3.579994 16.500367-3.968997 22.792866c-.510383 8.238154-.938871 16.489139-.897923 24.746541" fill="#d52d1e"/><path d="m1.99680903 20.6414532.52006689-16.29699733-.90301003-3.88613189-.30267559 4.0750637-1.20568562 16.01522832 1.20568562 13.2659448 1.96153846.047233-.15217391-3.0799143z" fill="#000" mask="url(#a)" transform="translate(142 45)"/><path d="m140.294801 152-3.703563 2.747568c-3.358678.360895-3.591238 4.252432-3.591238 4.252432h13.942546c.303753-3.598735-.678696-5.736868-1.036238-7z" fill="#e7ebee"/><path d="m136 158h3.085294c.096015-.260433.246439-.519297.472075-.762473 1.721876-1.85127 3.989438-3.071854 6.442631-3.878255-.105617-.359272-.003201-.06903-.105617-.359272-3.821411.621274-7.466795 1.488861-9.894383 5" fill="#172e38"/><path d="m122.452131 152-6.839658 2.7469c-3.380027.362509-3.612473 4.2531-3.612473 4.2531h16.901724c.337525-3.59786-.273841-5.834184-.635248-7z" fill="#e7ebee"/><path d="m117 158h3.638877c.11116-.218505.251746-.433595.456085-.633322 2.023778-1.988733 4.377768-3.424377 6.905038-4.366678-4.175063.766473-8.397533 2.050188-11 5" fill="#172e38"/><path d="m133 158.888h13.946357c.044304-.632.058544-1.218.052215-1.776h-13.656796c-.297472.968-.341776 1.776-.341776 1.776" fill="#2e5a71"/><path d="m112.356855 157.089c-.312248.988-.356855 1.822-.356855 1.822h16.912379c.05098-.632.074876-1.216.087621-1.778h-16.281511c-.129041 0-.243744-.022-.361634-.044" fill="#2e5a71"/><path d="m144.019076 56.2441322.25981-7.7588783 1.13829 7.7362436zm10.577496 3.0896471h.001623l-4.108238-23.0211852-.006495-.0016168c-.337752-.8714389-1.586462-3.364498-5.067909-4.2310866l-13.609148-4.9214473c-.003248-.027485-.004872-.0565869-.009743-.0856888-.003248-.0145509.003248-.027485.003248-.042036l-.087686-.0307186-.172124.0614373-.173748-.0614373-.087685.0307186c0 .014551.004871.0274851.003247.042036-.004871.0291019-.006495.0582038-.011366.0856888l-13.609148 4.9214473c-3.479824.8665886-4.728533 3.3596477-5.066286 4.2310866l-.008119.0016168-1.451685 24.71556-2.13531 23.0034008 4.894162.9684451 3.6828-21.0826783s.55859-10.7790043.534233-12.6609243l.263057 13.1588894-.756695 10.0013381h-.011366l-.206224 8.9084016c9.271952-.1018565 18.548776-.0921559 27.822352-.0921559l-.391338-8.8162457h-.019486l-1.071714-9.8816971.02111-.5885042 7.521485 1.0250321c2.073605.2117968 3.845181-1.4292246 3.710405-3.4356359z" fill="#172e38"/><path d="m36.8956434 26.2282047h.0016126l-4.0782477-22.69134938-.0080629-.0015936c-.2370512-.60875732-.9369166-2.01909823-2.5527347-3.09478198 1.7141863 3.02147612 2.3253591 8.18316449 2.4172769 8.7042735.7159912 4.10512786.9562676 8.20866216 1.7206367 12.34247496.3628334 1.9649156 1.1159143 4.8557161-.3660586 6.6437415-1.6254938 1.9649157-16.7451657.4876433-20.9878978-.0414337-2.0963709-.2613513.1789978-4.1115023.1789978-4.1115023l3.1945467-.0318721 9.9755003-.7633371s.2160874-6.6389607.2596274-7.647713c-.269303 1.9983813-1.4061811 4.5704607-3.173583 5.6955462-2.2447294 1.4294642-5.0764427 1.3402223-7.6420782 1.2286699-5.0345153-.2215112-10.0496795.3250955-15.07613186.5991957l-.39831047 7.9313748s3.14133115.2661321 5.98433259.4095566c.62891127.0318721 1.22395809-.3633421 1.36909146-.9689122.15642152-.6597527-.12255707-1.3258798.75146833-1.3689071 5.07644275-.2454153 10.71890565 1.8629249 15.26964305 3.8772423l2.7075436 1.4246833-.3289689-3.0071336.0209637-.5800725 7.4711433 1.0087523c2.0576687.2087624 3.8186202-1.4071536 3.684775-3.3848181z" fill="#000" mask="url(#b)" transform="translate(118 34)"/><path d="m119.674816 51.0257681-16.567474-.0257681c-.881451 0-1.107342.3204906-1.107342 1.0162289l2.074094 10.9369426c0 .6941278.559199 1.0468285 1.25109 1.0468285h16.423725c.691891 0 1.251091-.305996 1.251091-1.0017344l-2.074094-10.7501239c0-.6941278-.559199-1.2223736-1.25109-1.2223736" fill="#9abccc"/><g fill="#f9c5af"><path d="m128.703475 55.6897829-4.407722-1.6897829-1.295753.006201 1.10888 6.1514298 2.307336.7317224c.960618.1751794 2.03861.1891317 2.846332-.3085016l1.737452.3627607-.372201-3.8647969z"/><path d="m117 56.4874214.851351 2.7374214c.25432.740566.865308 1.3097484 1.629819 1.5188679l4.594816 1.2562893 3.26739-.2138365s.483828-.1132075.947497-.2845912l2.14311.2940252.566017-4.1179245-6.094373-1.677673z"/><path d="m122 11.7492654.960851 8.2726011c.433478 3.7369943 3.713515 6.385699 7.488061 5.9263768 3.774547-.4577218 6.589808-7.723655 6.550685-10.2891376l-.596228-5.6591057z"/><path d="m126.27447 21.6073664-.27447 8.8757566c.399379 1.4839438 2.415997 4.7998359 3.275566 6.516877.169284-.0164153.802045-.0147738.938459-.0049246 1.355917-1.923874 4.754748-6.0506823 4.785975-7.079922l-.815194-8.9151534z"/></g><path d="m127.04321 26.954716-.04321 1.4928074c1.569444 1.2764823 4.557099.0924747 5.966049-1.0452955.915124-.7381469 1.578704-1.6942702 2.033951-2.7643357l-.310185-3.6378922c-1.21605 3.0169901-4.858025 4.9143746-7.646605 5.954716" fill="#d8ac99"/><path d="m128.489582 5.02003276-9.084878 1.68681995c-1.558791 4.66431279 1.887976 5.47577539 1.887976 5.47577539l8.910604-1.047873c2.305914-.2715525 2.367232 1.9024645 2.367232 1.9024645l.408255 2.3050012 1.153764-.1357763s.303367-.9887704.902033-1.0590545c.443755-.0527131.884283-.0638947 1.047262 1.300257.448596 3.7362423-1.471653 3.6244266-1.471653 3.6244266l-.217844 2.7762245.364686 1.1517019c2.042888-4.2569841 2.242981-7.3095531 2.242981-7.3095531l-.632553-5.2808966c-.724531-6.03485396-7.877865-5.38951754-7.877865-5.38951754" fill="#764231"/><path d="m.20035452 1.28599964.09531772.79968644s3.58361204 1.42908475 6.27424749-2.01340678c0 0-2.62876254 2.39572034-6.36956521 1.21372034" fill="#000" mask="url(#c)" transform="translate(127 25)"/><path d="m134.326605 14-1.168296.1332561c.507882 7.9166951-2.727139 8.1254094-6.713088 8.5669205-4.446897.4928869-4.445221-3.1355314-4.445221-3.1355314s-.005029 8.7065986 5.370471 8.4288479c8.253494-.4238506 7.618223-8.8992579 7.618223-8.8992579z" fill="#764231"/><path d="m129.899715 22.2353207c-.162084-1.3915194-1.421478-2.3842897-2.81216-2.2169135l-1.847759.2215272c-1.390682.1673762-2.385879 1.430902-2.222174 2.8224214l.082663.7023235c.163705 1.3915194 1.421478 2.3842897 2.81216 2.2169135l1.847759-.2231682c1.390682-.1673761 2.385879-1.430902 2.222174-2.8207804z" fill="#764231"/><path d="m125 22.6739033c.148412 1.4 1.035304 1.232 2.13498 1.084 1.101464-.144 1.997297-.214 1.848886-1.612z" fill="#f9c5af"/><path d="m115.616784 56.5917252c-.380041.0265418-.657582.3528494-.611851.7150664.042577.312256.312233.5495706.640236.5589383l7.354831.1342701-.13877-2z" fill="#f9c5af"/><path d="m127.141414 28.1094803-.478384-.1094803-1.66303 1.490616c0 2.139076 1.310707 5.509384 1.310707 5.509384l2.689293-3.4679981c-2.299798-1.3676612-1.858586-3.4225216-1.858586-3.4225216" fill="#f8f9fa"/><path d="m127 34.0580687c.307484 2.7638755 3 2.9419313 3 2.9419313l-1.314534-5z" fill="#d5dde2"/><path d="m133 31.0161719 2.261186 2.9838281s1.060749-2.0731354 1.738814-4.6176684l-1.712623-2.3823316s-.632957 2.9838281-2.287377 4.0161719" fill="#f8f9fa"/><path d="m131 37s1.966564-.5302558 2.559707-1.0714286c1.468658-1.3443543 1.440293-1.9229569 1.440293-1.9229569l-1.953237-2.0056145z" fill="#d5dde2"/><g fill="#683328"><path d="m103 155h4v-56h-4z" mask="url(#d)"/><path d="m144.1042 99h-77.2067769c-1.0842418 0-1.8974231-.8575096-1.8974231-1.9991442 0-1.1433462.8131813-2.0008558 1.8974231-2.0008558l77.2067769.0017116c1.082619 0 1.8958.855798 1.8958 1.9991442 0 1.1416346-.813181 1.9991442-1.8958 1.9991442" mask="url(#d)"/><path d="m144 98.1854231c-25.126537 2.3359999-50.7937436 2.0019999-77 0z" mask="url(#d)"/><path d="m128 158h-46c0-1.614747 1.6421541-3 3.5599144-3l38.8801716.001382c1.916119 0 3.559914 1.383871 3.559914 2.998618" mask="url(#d)"/></g><path d="m111.670233 78h-30.0869622c-.948999 0-1.5832708.6190081-1.5832708 1.5451696l2.2175426 15.4548304 28.5020854-.0015671 2.217543-15.4532633c.316333-.617441-.632666-1.5451696-1.266938-1.5451696" fill="#cfd6e0" mask="url(#d)"/><path d="m97.5 86c.8275862 0 1.5.4476351 1.5 1s-.6724138.9983108-1.5 1c-.8291075 0-1.5-.4476351-1.5-1s.6708925-1 1.5-1" fill="#adb4bb" mask="url(#d)"/><path d="m117.847608 87.2759171c-.762365-.0063796-1.375151-.6236045-1.368718-1.3811803.006434-.7559808.62887-1.3636363 1.391235-1.3572567.762364.0063795 1.37515.6251993 1.370325 1.3811802-.008041.7559808-.630478 1.3636364-1.392842 1.3572568zm-4.799357-4.2759171-.048251 5.7336523 31.950141.2663477.049859-5.7320574z" fill="#454444" mask="url(#d)"/><path d="m121 86.4992511c0 .8297554-.670994 1.5007489-1.500749 1.5007489-.828257 0-1.499251-.6709935-1.499251-1.5007489 0-.8282576.670994-1.4992511 1.499251-1.4992511.829755 0 1.500749.6709935 1.500749 1.4992511" fill="#fff" mask="url(#d)"/><path d="m121.847608 93.2747808c-.762365-.0063779-1.375151-.6234388-1.368718-1.3792187.006434-.75578.62887-1.363274 1.391235-1.3568961.762364.0063778 1.37515.6234387 1.370325 1.3792187-.008041.7557799-.630478 1.363274-1.392842 1.3568961zm-4.799357-4.2747808-.048251 5.7321286 31.951749.2678714.048251-5.7321286z" fill="#454444" mask="url(#d)"/><path d="m123 92.5c0 .8278443-.670994 1.5-1.500749 1.5-.828257 0-1.499251-.6721557-1.499251-1.5s.670994-1.5 1.499251-1.5c.829755 0 1.500749.6721557 1.500749 1.5" fill="#fff" mask="url(#d)"/><path d="m155.772635 67.7530406c1.591847-2.1239576 3.327369-4.1099743 5.173912-5.9763314 2.035932-2.0541562 2.391853-5.5924236 2.891448-8.2814404.426125-2.2801798 4.324927-16.149058 8.517608-13.0445566.46531.3440213.661229.9705722.64327 1.5555746-.081633 2.3433335-1.280009 4.9625489-2.266138 7.044958-.099592.2077423-.244899.3224161-.403268.3639646-.520819 2.8851255-.759188 5.3065701-1.79593 7.9075041-.786944 1.979369-2.222056 4.1664803-3.051449 6.1159343-.94368 2.2186882-2.780427 4.0351871-4.515949 5.6954638-.364084.3456833-.72327.6847188-1.06613 1.0204304-1.451438 1.407662-2.933897 2.7770995-4.449009 4.1049885-.84572.7428866-3.631045 4.0617781-4.321662 2.1605202-.235103-.6448322-.119184-.6182411.104491-1.2796927.914292-2.6856929 2.891448-5.1885725 4.538806-7.3873174" fill="#f7ae83" mask="url(#d)"/><path d="m148.480948 78.5146051c-.014402-.0528596-.033605-.1000556-.062409-.1415881-.208032-.3209331-.366456-.6815109-.400061-1.0817333-.027204-.3492507-.027204-.6966136.019203-1.04964.044807-.0717379.076812-.1510273.083212-.2416437l1.365009.7060528c.137621.0943921.275242.1963355.379258.3416993.100815.143476.161624.3379237.123218.5229322-.030404.1415881-.112017.2567464-.195229.3662413-.236836.3171574-.470472.6380904-.708909.9571357-.046407.0641866-.116817.1094948-.192029.1057191-.084813-.0056635-.168025-.0320933-.235236-.0962799-.099215-.0906164-.139221-.2454194-.176027-.3888954" fill="#f19d81" mask="url(#d)"/><path d="m149.796953 74.253249c-.674074.1941816-1.289532.486971-1.74217.834374-.187242.1441191-.31587.350437-.325639.5749594-.019538.4369086.376113.5946811.696868.7797604.249114.141085.496599.3822949.428215.6462605-.034192.1243976-.13514.2260395-.229575.3185791-1.069725 1.0376578-1.558184 1.4123675-2.624652 2.4485082.304473.2002498.729432.1759771 1.06484.0257898.337037-.1456362.607317-.3959484.869457-.6417094.859687-.8070672 1.13648-.9481522 1.992911-1.7537023.341921-.3200962.900392-.6492946 1.252083-.3398177-.110718.5613061-.74897.8146523-1.377454 1.0513111-.249114.0940567-.208409.4353915.055359.4763517.73106.104676 1.49794-.0060682 2.150846-.3261644.882482-.4353915 1.541902-1.2454927 1.751939-2.1557188.070012-.2988575.092807-.6068174.179102-.9011238.037448-.1243976.084666-.2548633.047217-.3807779-.03582-.1243976-.15305-.2123861-.262139-.2927894-1.014366-.7448684-2.587203-.7494195-3.927208-.3640905" fill="#f7b088" mask="url(#d)"/><path d="m168.721454 42.0039698c.123987-.1792192-3.349341 5.7513056-4.218947 9.3796789-.871305 3.626744-1.934534 8.5764513-3.663555 10.2904381-1.778277 1.7644941-4.855866 5.0165071-4.838952 4.9985852l3.644942 4.327328s2.545975-2.3331076 5.305955-5.5574231c2.761679-3.2243156 4.049103-7.9622183 4.049103-7.9622183z" fill="#25252b" mask="url(#d)"/><path d="m179.668872 86.9422423c-.201544-1.3396356-.29841-2.6841367-.357779-4.0302597-.712435-.1021756-1.398309-.697389-1.401434-1.5245247-.006249-.8968747.012499-1.7921276.039059-2.6873804-.621818.5806169-1.877952.3454508-2.229483-.4346518-.231228-.5173653-.379652-1.0460835-.471831-1.5829108-.899918.4005932-2.123243-.1946202-2.126367-1.3866688-.001563-.4346518.012499-.8676817.039059-1.2958461-2.245107 4.6822373-.30466 10.1186278-2.39978 14.8835787-.229666 2.5349279-1.651411 5.0552593-1.888889 7.5901872-.110927 1.1790739-.985847 2.8868661-.985847 4.0951331-.64369 4.980655-2.037312 9.465028-2.22792 14.499204-.24529 6.415978-.193732 12.836823-.487455 19.247936-.040621.867682.209356 12.616254-1.170205 17.462296.056245.024328.11249.047033.170297.06163 1.692032.463845 3.026284-.124881 4.076188-1.195292.949912-4.646557 2.099807-9.249325 3.032533-13.902369.487456-2.440861.909292-4.902807 1.193641-7.379349.284349-2.49276.382777-5.011469.595258-7.509095.206231-2.41329.382777-4.860639.826486-7.243115.432773-2.337064 1.049904-4.625473 1.718592-6.902529 1.257697-4.2784 2.715376-8.5665318 3.118464-13.0444178.17967-1.9818823.226541-4.0399907.417149-6.0656625.349967-.0664952.701498-.1313686 1.053028-.1897547.309346-.0502768.574947-.1816455.798364-.3681565-.624943-.0210838-1.223325-.3778875-1.331128-1.0979822" fill="#e6b389" mask="url(#d)"/><path d="m167.768029 148c-.826792 2.069621-1.557407 4.170156-2.554621 6.177951.053995.007729.106302.017002.15861.020094-.271661.732636-.55682 1.442088-.901036 2.097443-.091116.171567-.182232.341588-.283472.505426-.045558.0711-.092803.143746-.141736.2133-.001687.004637-.003374.006182-.005062.010819-.006749.007728-.011811.015457-.023622.030913-.00675.009274-.016874.018548-.02531.029367-.776173.024731-1.420734 1.327711-.63275 1.758947 1.662022.905749 2.841468-2.392662 3.280174-3.372602.769424-1.717214 2.149661-3.720373 2.352141-5.559693.084367-.779006-.457267-1.571923-1.223316-1.911965" fill="#bfc3c6" mask="url(#d)"/><path d="m168.350412 148.681088c.085907-.377538.053902-.70631-.060641-.978451-1.118478-.693725-2.437407-.728333-3.877616-.693725-.008422.009438-.35542.023596-.362158.031461-.04548 1.618692-.412691 3.393117-1.57665 4.607529-1.558121 1.621837-2.84673 2.762315-3.473347 4.937874.028636.157307.069063.309895.122965.464056.518812 1.514869 2.038191 2.312416 3.513774 1.790156.141494-.050338.276251-.113261.409323-.182476.454803-.128992.872548-.397987 1.19091-.769232.373949-.438888.653568-.939125 1.003935-1.392169.503652-.654398 1.054469-1.198681 1.441894-1.931733.293095-.553722.439643-1.173512.736107-1.717795.405954-.747209 1.02078-1.370146 1.425049-2.131513.358789-.676421.058956-1.494418-.493545-2.033982" fill="#2f262e" mask="url(#d)"/><path d="m159.051251 156.905744c-.077644.769891-.106166 1.403105.205992 1.764694.237684.269895.652838.416952 1.009364.56055.636993.257784 1.288246.508647 1.955345.664356.616393.140137 1.223279.117646 1.834919.058823.679775-.771622.98718-2.23009.938058-3.238734-.01743-.370239-.101411-.742209-.229761-1.096878-.332757-.467125-.842985-.773352-1.251801-.989613-.787525-.418683-1.663786-.688577-2.559062-.617643-.847738.065743-1.375396.650514-1.717661 1.455008-.066551.477505-.136272.956741-.185393 1.439437" fill="#bfc3c6" mask="url(#d)"/><path d="m193.611326 80.0904107c-.031619-1.110177-.845805-2.070594-1.958788-2.0904107-.722491-.0127398-1.433915.4251453-1.792788 1.0681363-2.488404-.0081391-4.976807-.0406956-7.46521-.0846469.172323.0048835.325674.4883476.463216 1.3559786-1.049746-.2181286-1.892388.4671859-2.293947 1.435742-.801538 1.9240897-.584949 4.1704888-.339903 6.1873645.238722 1.9810635.659253 4.0402627.877423 5.9106341.629215 5.3864744 1.536676 10.7338814 2.305014 16.0991934.21817 1.517133.41895 3.034267.594434 4.556284.096438 11.197811.899557 22.371205.946985 33.539715.107504.423234.224494.844841.358874 1.259937.180227.548577.411045 1.095526.690871 1.577363.866357.809029 1.973016 1.253425 3.389541 1.041808.060076-.008139.11699-.02279.178646-.042324-.415788.130226.001581-11.803362.191294-12.933073.962794-5.699017 2.380899-11.285713 2.082101-17.075889-.344645-6.613854.714586-13.281427 1.598333-19.807379 1.011803-7.4993922.393655-14.4681129.173904-21.9984333" fill="#e6b389" mask="url(#d)"/><path d="m186.361989 148c.601658 2.267225 1.108489 4.557484 1.880182 6.772059-.052319.004935-.103002.008226-.156955.008226.194558.799616.403831 1.579489.673596 2.301776.071937.18921.143875.378419.227257.561048.037603.080619.073572.159594.112811.238568.003269.004936.004904.006582.006539.011517.004905.008227.011445.019744.01962.032906.004904.013163.016349.026325.022889.036197.743898.093782 1.24419 1.53013.444704 1.918421-1.692164.816069-2.517809-2.783849-2.849702-3.859876-.580404-1.88716-1.721593-4.132996-1.742847-6.099131-.008175-.834167.590213-1.625557 1.361906-1.921711" fill="#bfc3c6" mask="url(#d)"/><path d="m185.75816 147.529417c-.04705-.406142.014602-.750696.149262-1.027005 1.135686-.630851 2.404411-.54929 3.783459-.386168.006489.009987.176842.023303.183332.03662-.105457 1.706127.243361 3.640293 1.249255 5.02184 1.344978 1.847611 2.475797 3.162577 2.876532 5.512872-.043805.161458-.095722.319587-.162241.477716-.635984 1.549663-2.167539 2.257081-3.53523 1.57463-.131415-.063251-.254718-.143148-.374777-.228038-.426693-.174774-.80147-.49769-1.072412-.915483-.319615-.494361-.541885-1.04698-.833919-1.556321-.423449-.734051-.902059-1.35658-1.20545-2.16054-.230382-.610877-.313125-1.276683-.548374-1.879237-.321237-.82227-.853388-1.533018-1.169757-2.370269-.2823-.745702.079498-1.581288.66032-2.100617" fill="#2f262e" mask="url(#d)"/><path d="m193.996478 157.682799c.015985.665137-.009591 1.20853-.353265 1.490619-.260553.213794-.688946.30139-1.058196.39641-.66337.166284-1.33793.326629-2.020483.402348-.629802.06978-1.240423-.001485-1.847847-.105412-.62181-.715616-.807234-1.986503-.677757-2.844648.049553-.313268.164644-.625051.322894-.919017.374045-.37117.911135-.587934 1.339529-.740856.828014-.290997 1.727961-.448373 2.623111-.313267.847197.129167 1.32834.671075 1.604878 1.38966.027174.412742.057545.826967.067136 1.244163" fill="#bfc3c6" mask="url(#d)"/><path d="m181.013381 12.7872973c-.748796.3222904-2.168251.0837323-2.801471-.4297206-1.238768-1.0032079-4.494399.131128-5.751073 3.0680784-.380909.8878785-.504623 1.9558605-.447649 3.0443805.123714 2.4471954 1.163888 4.6716312 2.728219 6.3052013 4.201392 4.3888371 3.862806 10.1221308 6.874266 10.2216617 4.959954.1643049 9.599229-6.2262085 9.371334-12.877398.354864-9.3480019-6.649627-10.7667117-9.973626-9.3322033" fill="#a4a2a3" mask="url(#d)"/><path d="m177.763647 32.2700475.144595 5.2264189-1.770521.1869946s-1.747447 3.9033147-2.122779 6.3389579c-.40302 2.6194951 7.457415 3.8923151 10.18934-4.421871 2.731924-8.3126146-2.447349-10.6005479-2.447349-10.6005479z" fill="#e6b389" mask="url(#d)"/><path d="m182.304121 29-4.304121 3.3169954.13927 4.6830046c.038134-.0223152.081242-.0350667.119375-.0573819l6.741355-3.721857-.087873-1.4074517c-1.195405-1.8712891-2.608006-2.8133094-2.608006-2.8133094" fill="#d79d73" mask="url(#d)"/><path d="m172.637057 21.908279c.452264 1.5524806-.980433 4.1410412-.558214 5.6197503.237202.8262411 1.766361 4.1590743 2.961856 5.908279.528169.7721419 1.239773 1.5082177 2.152209 1.5590381.575609.0327874 1.151218-.1081982 1.652503-.406563l6.154589-3.6656248-.637281-10.9345785-9.791679-3.9885801-1.197077 1.3328054c-.803322.8950945-1.15438 2.1295379-.948806 3.3344727z" fill="#e6b389" mask="url(#d)"/><path d="m182.355226 26.2497435c.186048-.5868107.667586-1.074394 1.304163-1.2112594.286369-.0633003.609218-.0581679.941187.0889625 1.059746.4687643-.144097 3.6252243-1.798469 3.8613172-1.220259.1745035-.76973-1.7262158-.446881-2.7390203" fill="#e6b389" mask="url(#d)"/><path d="m172.971 24.926c.04.09.058.148.058.148s-.014-.058-.058-.148" fill="#d79d73" mask="url(#d)"/><g mask="url(#d)"><path d="m1.20659532 13.1917037.15050167.2823111 1.9509476-2.0887844-.38275734-.6391648c-1.2541806-2.3774394-1.53660349-5.0451199-.80453363-7.57640296l.91044222-3.15141567-1.40282423 2.53921313c-1.84875511 3.34332373-2.00111483 7.19100085-.42177629 10.6342436" fill="#000" fill-rule="evenodd" mask="url(#e)" transform="translate(167 47)"/></g><g mask="url(#d)"><path d="m11.5121619 1.69281345s-4.8736413-1.00106886-7.02833851-1.27716102c-2.15304736-.27421398-4.30774456.54279343-4.14276009.76254025.65828804.2385286 5.04357531 1.57015678 11.1710986.51462077" fill="#000" fill-rule="evenodd" mask="url(#f)" transform="translate(172 58)"/></g><path d="m176.585215 37s-2.892857 1.0548482-4.640143 1.5814546c-1.745632.524971-4.225224 3.6633489-4.532693 5.9938275-.309122 2.3288432.204979 16.7123938 0 21.867249-.206633 5.1564906-3.80204 28.1194734-4.519469 35.0324089-.720735 6.9113-2.99204 44.710846-2.889551 45.522016.104143.814441 6.471734 3.761474 13.250938 3.964267 6.779203.202792 16.229753-.407221 19.208569-1.422819 2.978816-1.017233 4.724448-4.904635 4.521122-7.179509-.206633-2.271604-1.529082-54.2649909-2.145673-58.4974671-.616592-4.2341117-1.848123-30.5055565-1.643143-34.4420211.204979-3.9381.512449-7.6047197 1.848122-9.1763618 0 0-3.390428-1.2592762-6.060122-1.9739563-2.669693-.7146801-3.595407-.9174726-3.595407-.9174726s-2.876327 1.2249323-3.183796.9174726c-.309122-.309095-5.618754-1.2690887-5.618754-1.2690887" fill="#000" mask="url(#d)"/><path d="m175.44746 117.207803c.920037-13.881333 3.852655-66.647085 4.55254-79.2819446-1.626494-.3991333-4.518038-.9258584-4.518038-.9258584s-2.875116 1.055086-4.610043 1.5801753c-1.736569.5267252-4.199311 3.6658106-4.506538 5.9951788-.307226 2.3293682.203723 16.7177971 0 21.8738144-.203722 5.157653-3.77708 28.1258125-4.491751 35.0386705-.714672 6.914494-2.973691 44.720925-2.870187 45.533914.101861.812989 6.430401 3.762322 13.169671 3.963525.20208.006543.414017.009815.621025.014722.614454-7.097703 1.881147-22.137177 2.653321-33.792197" fill="#282827" mask="url(#d)"/><path d="m176.886722 38s-6.299754 22.658547-5.865235 22.8962129c.43452.2344541 5.285876-.0016059 5.285876-.0016059l2.535476-11.3951134 1.157161-10.5777356z" fill="#f6f6f6" mask="url(#d)"/><path d="m182 39.5321652s-.636514 23.3832116-.636514 23.4649599c0 .0801453-6.363486-1.5419968-6.363486-1.5419968l1.566549-22.4551283s3.954299.4311821 5.433451.5321652" fill="#fff" mask="url(#d)"/><path d="m185.035751 81.060365c.302626.6548883.316886 1.6176718 1.11544 1.8750657.640111.2036345 1.460847-.1205515 2.055009-.3339604.817567-.2916045 1.229519-.7314548 1.571757-1.5362181.244002-.5734345.470576-1.168047.66863-1.7594014.047533-.1401005.180625-.5375949.19647-.6011288.017429-.0749375.025351-.1563912.025351-.237845.058624-.1857146.133092-.3583966.248756-.496868.277275-.3339605-.207561-.7917306-.484837-.4610283-.019013.022807-.033273.0472432-.052286.0733084-.120417-.1873437-.274107-.345364-.437303-.452883-.524447-.3404767-1.080583.0684212-1.549575.3372186-.722501.4121561-1.448171.7656654-1.742876 1.6144137-.118832.3421058-.229743.7982469-.217067 1.2169193-.007922.0016291-.017429.0032582-.025351.0048872-.18221.0570177-.258262.2443613-.220236.4235596.041195.1987472.172703.3714292.258262.5587729-.042779-.065163-.08239-.130326-.120416-.1987472-.079222-.1433586-.160028-.2883463-.204392-.4479957-.090313-.3274442-.492759-.2785719-.610007-.0439851-.23608-.195489-.632188.1270679-.475329.4659156" fill="#f7ae83" mask="url(#d)"/><path d="m196.432591 68c-1.210902 1.1583257-2.376333 2.3696034-3.481134 3.6536901-1.663938 1.9310944-3.649548 4.1236394-4.680246 6.564397-.252623.5990199-.35704.5659248-.190309 1.1848017.491771 1.8284998 3.273983-1.0673144 4.097532-1.6977745 1.480366-1.1252306 2.932101-2.2951396 4.35689-3.5031077.338514-.2879267.690501-.5775081 1.045856-.8753633 1.194061-.9945053 2.430225-2.0585102 3.41882-3.2929544-1.606677-.7330547-3.396926-1.5372636-4.567409-2.0336889" fill="#f7ae83" mask="url(#d)"/><path d="m195.276389 40s1.940259.7895974 2.121577 1.097932c.182868.3083345 5.952505 25.0028309 5.585219 26.546135-.367285 1.543304-5.420947 6.355933-5.420947 6.355933l-2.8484-3.8256322 2.822054-4.1013387s-5.269074-7.3592438-4.449268-14.4884602c.818256-7.1292165.929836-10.4115926 2.189765-11.5845689" fill="#25252b" mask="url(#d)"/><path d="m183 39s.261633-2.3578952.588235-2.8650533c.326603-.5055976.755049-1.2858409 2.384548-1.1095059.705882.0764638 1.027217 3.1178521 1.027217 3.1178521z" fill="#1e1f23" mask="url(#d)"/><path d="m177.289 37s-.002-1.5286822 1.354-2l.068 1.6449612z" fill="#000" mask="url(#d)"/><path d="m183 37.7481409s-4.830645.1531005-5.822581-.7481409c0 0-.114516.3251414-.143548.4750852-.025806.1499439-.033871.4908688-.033871.4908688s.335484 1.191659 5.846774 1.0164614z" fill="#ededed" mask="url(#d)"/><path d="m156 66.7012846 4.443077 5.2987154 4.556923-5.2987154-5.118462-3.7012846z" fill="#2c2b30" mask="url(#d)"/><path d="m191 71.6592641s4.100177 5.3768829 4.209032 5.3405526c.110432-.0363303 3.790968-5.1778561 3.790968-5.1778561s-3.907711-3.8920797-3.999211-3.8209987c-.091501.0695014-4.000789 3.6583022-4.000789 3.6583022" fill="#2c2b30" mask="url(#d)"/><path d="m191.533776 57.5199706c.147682-.6644603.77883-1.074621 1.408423-.9187599.628038.1575017 1.016676.8236026.868994 1.4880629-.149237.661179-.780385 1.0729803-1.406869.9154786-.629593-.155861-1.01823-.821962-.870548-1.4847816zm4.466224-3.328864-4.769361-1.1911066-6.230639 27.8105341 4.767807 1.1894659z" fill="#454444" mask="url(#d)"/><path d="m192.16761 58.9620385c-.807582-.1844625-1.312962-.987216-1.130274-1.7950935.186103-.8078775.988563-1.3134414 1.796145-1.1289789.807583.1827546 1.312962.987216 1.128567 1.7933855-.182688.8095855-.986856 1.3151494-1.794438 1.1306869" fill="#fff" mask="url(#d)"/><path d="m188.759131 79.4368594c-.985335.564-.729148 1.356-.729148 1.356s1.715891-.152 1.945333-1.086c.229443-.936-1.216185-.27-1.216185-.27" fill="#f7ae83" mask="url(#d)"/><path d="m186.858487 81.6765423s-.292-.5641863-.292-1.2408637c0-.6801387-.518-.4724627-.652 0-.136.4707321 0 .872239 0 .872239s.148-.9656931-.162-1.0729924c-.306-.1055686-.818.6403342-.522 1.413927.294.7735929 1.628.0276901 1.628.0276901" fill="#f7ae83" mask="url(#d)"/></g></svg>