<svg height="250" viewBox="0 0 250 250" width="250" xmlns="http://www.w3.org/2000/svg" xmlns:xlink="http://www.w3.org/1999/xlink"><mask id="a" fill="#fff"><path d="m.10550468.51224445h3.16539833v37.33255995h-3.16539833z" fill="#fff" fill-rule="evenodd"/></mask><mask id="b" fill="#fff"><path d="m.40874989.49082029h41.79650071v37.79928661h-41.79650071z" fill="#fff" fill-rule="evenodd"/></mask><mask id="c" fill="#fff"><path d="m.22897659.07345763h7.2769957v2.30630589h-7.2769957z" fill="#fff" fill-rule="evenodd"/></mask><mask id="d" fill="#fff"><path d="m0 194h247v-194h-247z" fill="#fff" fill-rule="evenodd"/></mask><mask id="e" fill="#fff"><path d="m.1229363.02175109h3.18252635v15.37620771h-3.18252635z" fill="#fff" fill-rule="evenodd"/></mask><mask id="f" fill="#fff"><path d="m.36035358.35873199h12.11096012v1.73543644h-12.11096012z" fill="#fff" fill-rule="evenodd"/></mask><g fill="none" fill-rule="evenodd" transform="translate(0 28)"><path d="m85.0900605 91.9662812c.9507627-.3529429 2.2903893-.2539695 2.7499556-1.3725558.3665367-.8907606.0186059-2.1045854-.2028046-2.9897438-.3051371-1.2044877-.8614543-1.850616-1.9387373-2.4407216-.7684246-.4220375-1.5684793-.821666-2.3666735-1.1764763-.1860592-.0859015-.3981667-.1549961-.6084137-.2278256l-.200944-.1269847-.3311854-.0672273c-.2493194-.1064431-.4800328-.2352952-.6605103-.4183027-.4260757-.4369769-1.127519.2016817-.7033039.6386586l.0948902.084034c-.2735071.1531287-.5116629.3510755-.6828374.5732988-.5395718.7114881-.0427936 1.5555632.2735071 2.2670513.4818934 1.0831052.8837813 2.1680778 2.0261851 2.694691.4614269.2147537 1.0828647.4295073 1.6670908.4631209l.0037211.0392159c.0576784.265174.3069978.397761.5618989.3641474.2809495-.0317462.5395718-.2035491.8093577-.2987876l-.2883918.1456589-.6549285.2390302c-.4651481.0896363-.4484028.6722722-.1376839.870219-.3014159.3155944.0986114.9225068.5898078.7394994" fill="#866552"/><path d="m73.6878855 175.321282c-1.6984862-2.087129-6.6261246-1.332015-8.8686427-.990284-.8612302.132283-1.7224604.128608-2.587379.011024-.355926-.045932-2.1632185-.266403-2.1724394-.778999-.0147534-.652228-.4647324-1.028866-.9700366-1.124404.1069622-.444617-.0036884-.949864-.4555115-1.295269l-.1014297-.077165c-.3540818-.270077.2028594-1.203405-.1622875-1.049076-1.1544542.485037-1.9751125 3.42098-2.2259205 4.365332-.6805009 2.57584 1.1784285 3.422817 2.8234336 3.459562 5.0788608.117585 10.4417248.481363 14.183558-.558527.9147113-.253542 1.0843755-1.286082.5366553-1.962194" fill="#19303b"/><path d="m58.1989518 175.120109c2.4198661 1.419346 6.2257837.749879 8.7389925.521736.0933427-.00748 2.2983445-.375874 2.0412117-.510515-3.5346953-1.892461-6.0355759-1.522197-6.8827051-5.252888-.29764-1.310884-2.1539274-1.050951-2.2138077.256193.0052836-1.510976-2.2190912-1.518456-2.2578372.01122-.0352237 1.355765-1.3085594 3.416527-.1162381 4.476829.2166255.187002.4455794.355304.6903839.497425" fill="#866552"/><path d="m49.8381914 168.882876c-.095922-.599334-.5284761 1.419091-.9646498 1.373549-.8252915-.087441-1.710308-.105658-2.553698.087441-.1755554-.750534.2099426-2.805392-.4416033-2.249779-1.7790823 1.515641-2.5754161 6.046167-2.7744996 8.450789-.204513 2.53214-.3040548 5.510592 1.6813504 6.924219 3.2323915 2.302607 4.6024478-3.450269 4.9589882-6.439651.2226115-1.867226.396357-6.275699.0941121-8.146568" fill="#19303b"/><path d="m47.2977345 170.144708c-.3323884-.624166-.8158625-.960256-1.5073015-.586442.0977613-.053157-.8691868-.639599-1.1891329-.548717-.5652381.164615-.9011814 1.208893-1.1215887 1.661585-.6594444 1.359792-1.1393636 2.798461-1.4202051 4.27314-.4105975 2.160576 1.345551 5.317417 3.9744412 3.527226 1.5037466-1.023702 1.9481161-2.978509 1.9658909-4.650383.0053324-.608734-.119091-2.584117-.7021039-3.676409" fill="#866552"/><path d="m76.463741 103.525813c.6802205-4.4096824.7415806-8.8852627.0210378-13.3169109-.2699845-1.6675884-.504906-3.3406684-.6661953-5.0247313-.8818322-.7340318-1.951251-1.2575557-2.9943726-1.6401309-1.686526-.6205406-3.7850412-.8713195-5.3891694.1299658l-.4873744.3496261c-.6942457-.276406-1.5041989-.2086774-2.2510389.1281352-1.6900323.7614893-2.6314715 2.6835177-3.2433193 4.3840551-.6924924 1.9403334-.9624768 4.0490731-1.1973984 6.0937452-.4610772 4.0252765-.7012582 8.2702137-.4680898 12.3174557.1910929 3.289415.674961 6.549541.8344973 9.840785.1595362 3.229008-.1016825 6.458016-.5873038 9.646752-1.0255901 6.76554-2.7331539 13.373657-3.4028555 20.199603-.361148 3.666498-.699505 7.408047-.6206135 11.09651.0806447 3.842227.5697723 7.667978.5066591 11.515696-.0157783 1.063522.771384 2.372332 1.8460622 2.571857.5732786.108 1.1290257.197694 1.7110701.179389 1.3744661-.03844 2.5438141-1.149556 2.5595924-2.630433.1086951-9.480176 1.444592-18.782793 3.6816057-27.959106 1.1307788-4.633003 2.6419903-9.104922 4.048013-13.646401 1.7671707-5.696526 2.8295769-11.610882 4.5301281-17.31473.6802204-2.278976 1.2114235-4.590902 1.5690652-6.921132" fill="#acdcf7"/><path d="m65.8758789 96.0286955c-.0786237.7175412-.1536736 1.4369129-.2251498 2.1562846-.2591009 2.5754599-.6575802 5.1417689-1.2133069 7.6696369-.5342839 2.432684-1.2829962 4.803133-1.9191336 7.20653-1.2990783 4.898317-2.3497771 9.869852-3.875792 14.700442-1.4348829 4.541377-2.9751931 9.011366-4.1277454 13.642435-2.2800879 9.179768-3.6417078 18.480347-3.7507088 27.963972-.0178691 1.477183-1.2097332 2.588273-2.6106649 2.630374-.5843172.014644-1.1436178-.071388-1.7207874-.177555l-.0232297-.003661c-1.0971583-.19952-1.8976907-1.508301-1.8798217-2.57363.0625416-3.849462-.4360043-7.669636-.5182018-11.515438-.0786237-3.688381.2644616-7.426185.6343505-11.092601.6825968-6.831285 2.4212532-13.437423 3.4701651-20.200981.4931852-3.186835.7576468-6.419431.5950386-9.646536-.164395-3.289341-.6522195-6.553055-.8469919-9.842396-.2430188-4.045321.0035738-8.2901631.4735292-12.3171801.2376581-2.0446263 2.8036504-9.7142631 4.5280116-10.4757354.6843837-.3020263 1.4241615-.388058 2.0781679-.1995204l.2144283.071388.496759-.3514487c1.635016-.9994324 3.7721517-.7504895 5.4947259-.1281324 1.7618861.6370009 3.6184781 1.651077 4.5190771 3.4138121l.146526.3239918.1822641-.3093481c.60576-.9902801 2.0120525-.3093481 1.9012645.6388313l.0696892.0439311c.4913983.0311179.9810096.3660925 1.0203215 1.0049238.1626081 2.7054232-1.4509651 5.258918-3.1127846 7.3676105" fill="#92d2f4"/><path d="m73.4014245 27.8647663c.5666674 2.0519294 1.1727389 4.1741797 1.4992294 6.2747928.2570644 1.6408222.0919427 3.0490444-1.4204214 3.8838804-1.6981259.9358096-3.9554138 1.4154345-5.8242905 1.940137-4.039851 1.1431663-8.2279361 1.9004689-12.4479198 1.9888209-1.3603771.0306527-4.6872029.2578435-5.7867629-.6455103-.9907298-.8150019-.9738423-3.7937253-1.1821208-5.050487-.2195367-1.3324919-.2739518-2.6739993-.2195367-4.0155068.0806844-2.0140642.3246141-4.0497656.7430474-6.0259648.6060714-2.8489001 1.791945-6.4641184 4.5314631-8.0436352l.103201-.0595023c1.3810174-1.4947711 3.1166709-2.6054815 5.3214201-2.9733142 2.4073984-.4002885 4.6796973.0919582 6.6630333 1.1575911 2.056515 1.0944825 3.7996741 2.7984133 5.0737376 4.7439597 1.3753882 2.1006131 2.2854336 4.4374325 2.9459202 6.8247387" fill="#312b2b"/><path d="m65.5078039 41.8507359c-1.5447461 1.2873889-4.9151012 1.7917631-6.3330689-.0846502-.6768017.0229261-1.3711572-.6154777-1.1234517-1.6118814l.0721661-.2980393.1170262-.5149556c.1189767-.6031328.2028455-1.2133199.2847638-1.8252705.0351079-.2451329.0682653-.4902658.1053236-.7371623l.0058514-.4814482c-.0058514-.361527.0858192-.6436944.2340524-.8482658l.0370583-.1499014.0975218-.3826896c.3822857-1.3596943 1.8607169-1.0828175 2.1259764.0229261.2574576.1357931.4837083.3862167.6007346.7794875l.0546122.1992807c.0741166.2962758.1111749.6048964.1209271.9170441l.013653.0035271.0331575.015872c.3939882-.2504236.9128045-.225734 1.2599823.1428472l.5032127-.0529064.1150758-.1816453.138481-.3738718c.4778571-.8870638 1.7241863-.5502265 1.9718918.4232511.0585131.206335.0663149.4426502.0117026.700128-.0565626.2927487-.0955714.5890244-.1150757.8888273.0175539.2363152.0351078.474394.0526618.7107092v.0017636c.0331574.4267782.0604635.8535564.0721661 1.2803346.1033732.5061378-.0078017 1.081054-.4564022 1.4566893" fill="#866552"/><path d="m65.9620006 14.2706138c.1718662 1.786796-.2110041 3.5275953-1.7305735 4.7005118-1.3562115 1.0490793-3.4815668 1.2401426-5.0726054.8244029-1.8871249-.4935802-3.4015894-1.8646366-4.1588217-3.6832764l.0935905-.0583805c1.2524111-1.4648189 2.8281349-2.5563566 4.8258668-2.9172541 2.1832112-.3945104 4.2439039.0902244 6.0425433 1.1339963" fill="#312b2b"/><path d="m65.9666882 38.2931125c-.0528447.3017253-.0880744.6089366-.1056893.9216337.0158534.2450376.0334683.4919037.0493217.7369413v.0018286s-2.2952199 4.4417626-6.9103206.237723c.0317068-.2560094.317068-2.4028308.3505363-2.6570115l.0070459-.5010469c-.0052844-.3748709.0775055-.667453.2096172-.8795751l.0334683-.1536056 2.6034804.6418521 1.9693445.4864178 1.7826267.4425304c.0528446.2102935.0598906.4571596.0105689.7223122" fill="#694f3f"/><path d="m67.564469 18.4144777c-.4168654-.2100105-.9112012-.3506108-1.4940748-.4057831-1.1307011-.106785-2.5454607.8026675-3.6429601.941488-1.879583.2384866-4.6076528.3061171-5.5907909 2.1339209-.9130457 1.6996617.0387352 3.5772985.3928863 5.3766263.0719369.3790868.1198949.7581737.1586302 1.1372606l-.0645588-.0320356c-.5109367-.2224688-1.0458524-.2687423-1.580768-.0907672-.39842.1334813-.800529.5570619-.7359702 1.0002198.2065881 1.4576156 1.3483564 2.4685139 2.7059354 3.0291353l.0332017.014238c.1180503.606895.2969704 1.2084506.5828736 1.7939885.9960499 2.0413739 2.9291244 3.1056647 4.9156905 4.1183427 1.835314.9325893 3.5341324.6727457 5.2274171-.4449376 1.7172638-1.1337011 2.1728643-2.7888691 2.3554735-4.6967616.1973654-2.0734093.3449283-4.0934262-.2582352-6.113443-.7396592-2.475633-.4076426-6.4533754-3.0047503-7.761492" fill="#866552"/><path d="m51.9564694 59.9871178c-.0102801-1.8805522.4077787-14.2918358-1.1513749-15.8746038-.5465605-.5504495-1.7476227 1.072023-2.0851538 1.561111-1.0382935 1.4997494-1.3364173 3.3315733-1.7887432 5.2211493-1.1616551 4.8583939-1.4443588 9.8322921-1.6362546 14.8946231-.2278763 6.0062166-1.0999743 12.1369612-1.7356292 18.1666396-.3683715 3.50122-.4968731 7.0349256-.5379937 10.5650217-.0239869 1.8769427-.0188469 3.7538854-.0188469 5.6326333-.0034267.97998-.0633941 2.169312.6784888 2.652986 1.2336161.80131 1.5728605-1.075633 1.8093035-2.207213.4694595-2.2775974.9217853-4.5624142 1.3484109-6.8544499.9714726-5.2121255 1.9823524-10.4892221 2.438105-15.8330945.1422085-1.7560243.5294269-3.4452727.9320654-5.1038404.8292641-3.4163966 1.5334533-7.3363193 1.7236357-10.9674815.0257004-.5269877.0257004-1.0557802.0257004-1.5845728z" fill="#866552"/><path d="m74.0060296 74.8798558c.3297969.4741195.6535609.941028.9652592 1.3971201 1.3091329 1.9253217 2.6705506 3.8181941 4.0842532 5.6786173.7903061 1.0419813 3.0928516 5.3667441 4.5789486 3.6433288.5047502-.5840863.3579503-.5967055.3016435-1.3466435-.2212052-3.0574397-1.8078501-6.2807311-3.0908405-9.0785768-1.2407604-2.7041035-2.7067478-5.312662-4.3476886-7.8382947-1.4921299-2.2948825-.4725748-4.5266692-.2131614-7.0468937.3499065-3.4107758.374038-6.8449873.0764164-10.2611713-.187019-2.107398-.2654463-7.6544157-2.6202767-8.934358-1.1663549-.6327602-2.4232029 2.1470582-1.7153462 2.8140704-1.0436865 1.7774974-1.9305185 3.7406765-2.3367317 5.721883-.1990847.1766681-.3519175.4308538-.4062133.7625572-.5751336 3.5766275-.1648985 6.8684228.2855559 10.2503549.3016435 2.291277.4403995 4.6312279.8043827 6.9044776.4142571 2.5869257 2.0592197 5.0566735 3.6337989 7.3335287" fill="#866552"/><path d="m44 168.005v.002-.014z" fill="#5e91ab"/><path d="m75.368666 79.3485843c-.5282222-1.5936343-1.2481962-3.1157249-1.7818453-4.705782-.5843006-1.734933-.7995692-3.6558794-.6964573-5.4802419.1917519-3.4788088 1.3205554-6.7984331 1.9337996-10.2092755l.0180898-.1001611.003618-.0751208c.0108538-.2092651.0452245-.4203188.0615053-.6331611.0289437-.3684497.0470335-.738688.0452245-1.1089262-.003618-.4203188-.0379886-.8424262-.0687413-1.2609565l-.0144718-.1144698-.0542694-.3702382c-.271347-1.6401377-.7109291-3.2480807-1.1324215-4.8542351-.9081079-3.4716545-1.5249701-6.8699768-1.0238827-10.4256951-1.7709914-.5294228-3.8133298-.4757651-5.5336698-.8120201-1.0908149-.2146309-2.0061588-.384547-3.0065248.2128422-.5644017.3362551-1.1016688.7547853-1.7492836.8781981-1.1595562.2253624-1.8252609-.5330001-2.7731664-.9676276-.3889307-.1824362-.7651985-.2557685-1.1559382-.2665-.8683104-.0286174-1.8397327.8352718-2.5958863 1.19299-1.7257669.8173859-3.5094212 1.5149363-5.2695588 2.2518356-.9515234.3970672-1.4580378.9032383-1.5575317 1.9334666-.1338646 1.4058322.5499299 2.7115034.716356 4.0815639.2297405 1.8672886.4703348 3.7113256.8864002 5.5517854.814041 3.5932787 2.263034 7.0059097 3.0173787 10.6134971.633143 3.0155639.4884246 5.4176412-.5933455 8.2632889-.7036932 1.8619229-1.4110044 3.7220572-2.1183155 5.5857687-.3545601.9300672-1.1143317 1.9281008-1.1740281 2.9422317-.1230106 2.1123256 4.3180353 2.7741041 5.7995899 3.224829 3.35204 1.0087651 6.8270906 1.8637114 10.3238489 2.1749262 2.1345964.187802 4.3306981.2253624 6.429115-.2736544 1.0618712-.2539798 2.6067401-.7476309 3.6957461-1.5614396-.0633143-1.4916846-.1664262-2.9815807-.2822009-4.4678995-.1031118-.4095873-.2152686-.817386-.3491331-1.2198189" fill="#866552"/><path d="m76.1137431 65.2530248c-.515271 2.3583298-.6596199 4.8129551-.3215875 7.2058059.1297313.9120813.3362051 1.8114444.4750725 2.7235257.0639521.4215197.1224225.8448562.1772386 1.2663759l.0420257.3306749c.0310624.243464.0584704.485111.0895329.7249411.2137826 1.7514869.4184292 3.4975231.7491528 5.2290241.0767425 1.0901371.144349 2.182091.1882018 3.2722281-1.0981484.8248703-2.658579 1.3281503-3.7293195 1.5861494-2.1213816.5069137-4.3377777.4687589-6.4957034.276168-3.5319817-.3125059-7.0420369-1.1827987-10.4278424-2.2093444-.6559656-.1998585-1.8874998-.4415055-3.0496003-.8285042-1.4928242-.4996461-2.8778434-1.2391224-2.8084097-2.4455408.0602977-1.0283626.8295498-2.04219 1.1876814-2.9869755.7107816-1.8932047 1.4252176-3.7827755 2.1396537-5.6759802 1.0890124-2.8906801 1.2370158-5.3289533.597495-8.3940553-.3398595-1.6315718-.8204137-3.2286226-1.3192399-4.8184058.6066311-1.4553329 1.0341964-2.9742572 1.211435-4.5422377l.0018272-.0199858c.0602977-.5450686.0931873-1.0974047.0877057-1.6551915-.009136-1.6842617-.3106243-3.4066782-.5719142-5.0655035-.3325508-2.1203165-.8697482-4.7148427-2.1396537-6.580794.840513-.3506607 1.6865075-.6995046 2.5270205-1.0574329l.4312197.3651959c3.100762 2.320175 7.1882131 3.0741865 10.9613854 2.3710481 2.8613985-.5305334 5.2203164-2.1275841 6.8848975-4.3242103.668756.121732 1.3174128.2907032 1.9185623.554153.054816 2.788934-.1297314 5.5905862.9355274 8.2523375 1.2863503 3.2104536 4.0691791 7.0350177 2.8358177 10.650639-.3106244.9193489-.9848619 1.4662343-1.4581073 2.2402316l-.054816.0908448-.0127905.0181689c-.3106243.5468854-.5262342 1.2064183-.6925096 1.871402-.1406945.5414347-.2521538 1.0865032-.3599588 1.575248" fill="#f6a000"/><path d="m76 63-.0522986.0913738-.0118094.0182748c-.2851117.5518981-.4841839 1.2152722-.6393926 1.8841287-.8485871.0475144-1.9299874-.1717828-3.2964994-.8406393 1.5841417.2887413 2.9523408-.3344283 4-1.153138" fill="#df9300"/><path d="m57.0501672 63.9537328c.6832608 3.5177515.7865244 9.3119099-.0912162 11.5718872-.6626081 1.7031978-2.4662791 6.9825633-3.3130406 9.47438-1.4061061-.5020144-2.7089486-1.2449956-2.6435483-2.4571321.0533529-1.0350623.7813613-2.0518695 1.116968-3.001133.6712134-1.9040036 1.3441479-3.8007051 2.0136403-5.7028831 1.0291939-2.9043812 1.1668787-5.3542112.5662287-8.4338411-.3218382-1.6411306-.772756-3.2439255-1.2443264-4.8412439.5713919-1.4622309.975841-2.99018 1.1410628-4.5637668-.0309791.5147929.1566165 6.2414075 2.4662791 6.5937303 2.3440838.3577993 3.9377854.0346847 3.9377854.0346847s-1.7881814 1.8656678-3.9498328 1.3253178" fill="#df9300"/><path d="m49.5710428 111.487729c-1.5775635-4.785364-3.4414775-6.016957-4.8222847-5.999108-1.9412111-.099955-4.1055298 2.677376-4.2935023 4.356984h.0052703c-.0632431.406961-.4339178.685408-.8309438.626506-.404053-.060688-.6798631-.440875-.6218903-.847836.3987828-2.348951 2.6316148-5.518965 5.7410661-5.624275 2.3645884.017849 4.6009339 2.052655 6.2136324 7.02008.1282429.389112-.0825674.808568-.4637826.940652l-.2318913.039268c-.3074316 0-.5920255-.198126-.6956738-.512271" fill="#000"/><path d="m55.4658664 133c1.2359343-.545412 4.5341336-2.302849 4.5341336-3.615245 0-1.316184-.2528857-16.741103-.8245498-17.756175-.9260603-1.643809-22.5673769-2.62858-23.3937076-2.62858-.8227689 0-2.7817426.984771-2.7817426.984771l19.8924873 9.756806z" fill="#2d2e2f"/><path d="m55.3187999 131.732233c-.0318529.828006-.6539209 1.384534-1.3884108 1.246856l-23.8784179-4.409567c-.6351839-.114409-1.1036086-.413034-1.0473977-1.169292l1.2628731-17.221358c.0562109-.727172.603331-1.248796 1.2272727-1.171231l23.0408745 2.299801c.7101318.089199 1.4970853.816371 1.4633588 1.599777z" fill="#040305"/><path d="m41.689787 124.068946c-.0371044.581293-.4381859.995271-.8958076.922825l-7.0763502-1.134989c-.4399529-.068996-.7562242-.583019-.7138191-1.147063l.363977-4.80904c.0424051-.557145.4222841-.952149.8604701-.895227l7.0145095.971122c.452321.062097.7915617.576119.7544573 1.145339z" fill="#2d2e2f"/><path d="m53.7519407 124.964716c-.029847.649262-.4700906 1.109546-.9868171 1.025348l-7.9467694-1.304138c-.4924758-.080456-.8562364-.658618-.8151967-1.289169l.3152591-5.388691c.0354434-.621196.4570325-1.070254.9420466-1.001024l7.8721518 1.118902c.5111302.074843.8972761.651133.8655636 1.289169z" fill="#2d2e2f"/><path d="m48.5709898 112.489286c-1.5774367-4.7875-3.441201-6.019643-4.8218973-6.003572-1.9410552-.1-4.1034434 2.680357-4.2931574 4.360715h.0052699c-.0614814.403571-.433883.685714-.8343903.626785-.4005073-.060714-.6798084-.441071-.6183271-.848214.3987507-2.348214 2.6314034-5.525 5.7406049-5.625 2.3661551.017857 4.6040776 2.046429 6.2131333 7.021429.1282326.3875-.0808041.808928-.4637453.939285l-.2318727.039286c-.3056503 0-.5937345-.198214-.695618-.510714" fill="#000"/><path d="m46.4877952 106.15767c.1040238-.343603-.2885186-.773557-.7203153-.537892-.2100102.115134-.4455357.185294-.6790984.248258l-.3316984.080954c.2806678-.100743.6045154-.147516.8498544-.302227.2217865-.142119.3258102-.397573.1844949-.626042l-.0235525-.028784c.4376848-.40117.7752713-.953454.9872442-1.404996.531895-1.117161.088322-2.153368-.2904814-3.245343-.2473017-.7105935-.443573-1.6388624-1.3699731-1.8043677-.2885187-.0503712-.6162916-.0377784-.9401391.0287835l.013739-.1205311c.0333661-.5900624-.9656544-.5954593-.9970578-.0071958-.0117763.246459-.1059865.487521-.2296374.7267841l-.2100102.2590518-.0686949.2212734-.3238475.5558818c-.374878.76996-.7262035 1.572301-1.036312 2.367446-.4357221 1.118959-.4219831 1.941089.1825322 3.004281.4416103.777155 1.0166849 1.874527 1.9293461 2.279296 1.1422985.507309 2.1295427-.426356 3.1246378-.784352.5142305-.183495.4062814-.879696-.0510306-.910279" fill="#866552"/><path d="m127.818685 94.3594275.221386-1.1993866c-1.51428.5794582-3.27474.5187531-4.705778-.1600409l-.053133.8866631h-.007084l-2.274076 8.2650989.885544 5.321818 1.779942 2.479714s1.23799.373428 1.441665-.991518c.205446-1.366786.979411-7.52376.979411-7.52376s.903254-.336637 1.004206.851712.545495 2.989269 1.909232 2.978232l-.143458-5.6253446z" fill="#f9c5af"/><path d="m164.402167 87c-.122972.023809-31.808118.1996293-31.976495.0879101l-.425672 16.2175909 1.407556 27.362034 3.6097 39.330634 6.920484.001831 1.322422-38.656656 2.115117-28.709989 1.581609-.067764 3.176461 27.805247 6.105085 39.629162h6.67454l-.599725-39.768353.686751-28.365675z" fill="#de5d3f"/><path d="m164.397389 87c-.040047.0091573-3.390642.0311348-7.915947.0549438.255538.3992586-25.025528 6.2874071-24.472499 6.3698229 9.616988 1.4431916 28.624033 1.0933824 28.778499 4.6189457.207863 4.7892716-.896288 31.4077316-.451958 39.4002296.455772 8.250734 1.05457 29.959046 1.352061 32.556058h3.224733l-.604518-39.768353.69224-28.365675z" fill="#d52d1e"/><path d="m141.159696 157.179675c.022814 4.283012.036853 8.56064-.159696 12.820325h2.811348l1.22492-37.874235 1.963732-28.125765s-4.295993 18.458038-4.762796 25.497105c-.61246 9.215561-1.126645 18.445477-1.077508 27.68257" fill="#d52d1e"/><path d="m1.99680903 23.0698595.52006689-18.21429118-.90301003-4.34332387-.30267559 4.55448295-1.20568562 17.8993729 1.20568562 14.8266441 1.96153846.0527898-.15217391-3.4422571z" fill="#000" mask="url(#a)" transform="translate(160 51)"/><path d="m157.336915 170-4.232643 3.140078c-3.838489.412451-4.104272 4.859922-4.104272 4.859922h15.934339c.347145-4.11284-.775653-6.55642-1.184273-8z" fill="#e7ebee"/><path d="m153 177h3.393823c.105617-.31252.271083-.623157.519283-.914967 1.894063-2.221525 4.388382-3.686225 7.086894-4.653907-.116179-.431126-.003521-.082836-.116179-.431126-4.203552.745529-8.213474 1.786633-10.883821 6" fill="#172e38"/><path d="m137.681793 170-7.644323 3.139314c-3.777677.414297-4.03747 4.860686-4.03747 4.860686h18.890162c.377234-4.111841-.306058-6.667639-.709983-8z" fill="#e7ebee"/><path d="m132 177h3.969683c.121267-.262206.274633-.520314.497548-.759986 2.207758-2.38648 4.775747-4.109253 7.532769-5.240014-4.554614.919768-9.160945 2.460225-12 6" fill="#172e38"/><path d="m149 177.888h15.938693c.050634-.632.066909-1.218.059675-1.776h-15.607767c-.339968.968-.390601 1.776-.390601 1.776" fill="#2e5a71"/><path d="m126.398838 176.089c-.348983.988-.398838 1.822-.398838 1.822h18.902071c.056977-.632.083685-1.216.097929-1.778h-18.196982c-.144223 0-.272421-.022-.40418-.044" fill="#2e5a71"/><path d="m161.586782 62.7735965.293698-8.6952947 1.286763 8.6699281zm11.957169 3.4625355h.001835l-4.644095-25.7996042-.007343-.0018118c-.381807-.9766126-1.793391-3.7705581-5.728941-4.741735l-15.384254-5.5154151c-.003671-.0308022-.005507-.0634164-.011013-.0960305-.003672-.0163071.003671-.0308023.003671-.0471094l-.099123-.034426-.194575.0688521-.19641-.0688521-.099123.034426c0 .0163071.005507.0308023.003671.0471094-.005507.0326141-.007342.0652283-.012849.0960305l-15.384254 5.5154151c-3.933714.9711769-5.345299 3.7651224-5.727106 4.741735l-.009178.0018118-1.641036 27.6984725-2.413828 25.7796733 5.532531 1.0853264 4.163165-23.6271394s.63145-12.0799186.603916-14.188967l.297369 14.7470313-.855395 11.2083961h-.012849l-.233122 9.9835535c10.481337-.1141495 20.968181-.1032781 31.451355-.1032781l-.442383-9.8802754h-.022027l-1.211503-11.0743157.023863-.6595306 8.502549 1.1487428c2.344075.2373586 4.346726-1.6017171 4.194371-3.8502815z" fill="#172e38"/><path d="m41.7503333 29.2257138h.0018248l-4.6148592-25.28464644-.0091239-.00177573c-.2682421-.67832959-1.060195-2.24985231-2.8886208-3.44847134 1.9397371 3.36678767 2.6313274 9.11838328 2.7353396 9.69904761.8102007 4.5742854 1.0820923 9.146795 1.9470363 13.7530435.4105747 2.1894775 1.2627452 5.4106551-.4142242 7.4030263-1.8393745 2.1894774-18.9484769.543374-23.7494633-.046169-2.3722092-.2912201.2025502-4.5813883.2025502-4.5813883l3.6148818-.0355147 11.288066-.8505755s.2445201-7.3976991.293789-8.5217374c-.3047376 2.2267678-1.5912049 5.0927991-3.5911597 6.3464658-2.5400886 1.5928315-5.7443957 1.4933905-8.6476148 1.3690893-5.6969515-.2468268-11.37200578.3622493-17.05983345.6676752l-.45071974 8.8378176s3.55466419.2965472 6.77174478.4563631c.71166275.0355147 1.38500519-.4048669 1.54923506-1.079645.1770033-.735153-.138683-1.4774089.85034575-1.5253537 5.7443957-.2734627 12.1292879 2.0758306 17.2788066 4.3203557l3.0637994 1.5875043-.3722544-3.350806.0237221-.6463665 8.4541885 1.1240383c2.3284146.2326209 4.3210703-1.5679712 4.1696138-3.7716545z" fill="#000" mask="url(#b)" transform="translate(132 38)"/><path d="m134.199789 57.0297324-18.934256-.0297324c-1.007371 0-1.265533.3697968-1.265533 1.1725719l2.370393 12.619549c0 .8009168.639085 1.2078791 1.429818 1.2078791h18.769971c.790733 0 1.429818-.3530723 1.429818-1.1558474l-2.370393-12.4039891c0-.8009167-.639085-1.4104311-1.429818-1.4104311" fill="#9abccc"/><g fill="#f9c5af"><path d="m144.416409 61.9311804-4.958687-1.9311804-1.457722.0070869 1.24749 7.0302054 2.595753.8362543c1.080695.2002049 2.293437.2161504 3.202124-.3525733l1.954633.4145836-.418726-4.4169108z"/><path d="m131 63.5686583.972973 3.1936583c.290651.8639937.988923 1.5280398 1.86265 1.7720125l5.251218 1.4656709 3.73416-.2494759s.552947-.1320755 1.082854-.3320231l2.449269.3430294.646876-4.8042453-6.964998-1.9572851z"/><path d="m137 12.9679236 1.088964 9.3066762c.491275 4.2041186 4.208651 7.1839114 8.48647 6.6671739 4.277819-.514937 7.468448-8.6891119 7.42411-11.5752798l-.675726-6.3664939z"/><path d="m142.304967 24.6832872-.304967 9.9852262c.443755 1.6694367 2.684441 5.3998153 3.639518 7.3314866.188093-.0184672.891161-.0166205 1.042732-.0055402 1.506574-2.1643582 5.283053-6.8070175 5.31775-7.9649122l-.905771-10.0295476z"/></g><path d="m143.048611 30.6990555-.048611 1.6794083c1.765625 1.4360427 5.126736.1040341 6.711806-1.1759574 1.029513-.8304153 1.776041-1.906054 2.288194-3.1098776l-.348958-4.0926288c-1.368056 3.3941138-5.465278 5.5286714-8.602431 6.6990555" fill="#d8ac99"/><path d="m144.543981 6.02225862-10.09431 1.8742444c-1.73199 5.18256968 2.097752 6.08419488 2.097752 6.08419488l9.900671-1.1643034c2.562126-.3017249 2.630258 2.1138496 2.630258 2.1138496l.453616 2.5611123 1.281959-.1508625s.337075-1.0986337 1.00226-1.1767273c.493061-.0585701.982536-.0709941 1.163624 1.4447301.49844 4.1513803-1.63517 4.0271406-1.63517 4.0271406l-.242049 3.0846939.405207 1.2796688c2.269875-4.7299823 2.492201-8.1217257 2.492201-8.1217257l-.702836-5.8676629c-.805035-6.70539325-8.753183-5.98835278-8.753183-5.98835278" fill="#764231"/><path d="m.22897659 1.28599964.10893454.79968644s4.09555662 1.42908475 7.17056856-2.01340678c0 0-3.00430004 2.39572034-7.2795031 1.21372034" fill="#000" mask="url(#c)" transform="translate(143 28)"/><path d="m151.223005 16-1.348033.1522927c.586017 9.0476515-3.146699 9.2861822-7.745871 9.7907663-5.131035.5632993-5.129101-3.5834645-5.129101-3.5834645s-.005802 9.9503984 6.196697 9.6329691c9.523263-.4844007 8.790258-10.1705805 8.790258-10.1705805z" fill="#764231"/><path d="m145.885388 24.6078742c-.185239-1.6234393-1.624546-2.7816713-3.213897-2.5863992l-2.111724.2584485c-1.589351.1952722-2.726719 1.6693857-2.539627 3.292825l.094472.8193773c.187091 1.6234393 1.624546 2.7816713 3.213897 2.5863992l2.111724-.2603629c1.589351-.1952722 2.726719-1.6693857 2.539627-3.2909106z" fill="#764231"/><path d="m141 25.6739033c.148412 1.4 1.035304 1.232 2.13498 1.084 1.101464-.144 1.997297-.214 1.848886-1.612z" fill="#f9c5af"/><path d="m129.693882 63.5917252c-.427546.0265418-.73978.3528494-.688332.7150664.047899.312256.351262.5495706.720265.5589383l8.274185.1342701-.156117-2z" fill="#f9c5af"/><path d="m143.141414 31.1251203-.478384-.1251203-1.66303 1.7035611c0 2.4446583 1.310707 6.2964389 1.310707 6.2964389l2.689293-3.9634264c-2.299798-1.5630414-1.858586-3.9114533-1.858586-3.9114533" fill="#f8f9fa"/><path d="m143 38.4696824c.307484 3.3166506 3 3.5303176 3 3.5303176l-1.314534-6z" fill="#d5dde2"/><path d="m150 34.5899107 2.261186 3.4100893s1.060749-2.3692976 1.738814-5.2773353l-1.712623-2.7226647s-.632957 3.4100893-2.287377 4.5899107" fill="#f8f9fa"/><path d="m147 42s1.966564-.6363069 2.559707-1.2857143c1.468658-1.6132252 1.440293-2.3075483 1.440293-2.3075483l-1.953237-2.4067374z" fill="#d5dde2"/><g fill="#683328"><path d="m116 174h4v-63h-4z" mask="url(#d)"/><path d="m161.870151 111h-86.7384782c-1.2180987 0-2.1316728-.85751-2.1316728-1.999144 0-1.143346.9135741-2.000856 2.1316728-2.000856l86.7384782.001712c1.216275 0 2.129849.855798 2.129849 1.999144 0 1.141634-.913574 1.999144-2.129849 1.999144" mask="url(#d)"/><path d="m161 110.185423c-28.063405 2.336-56.730675 2.002-86 0z" mask="url(#d)"/><path d="m144 177h-52c0-1.614747 1.8563481-3 4.0242511-3l43.9514979.001382c2.166048 0 4.024251 1.383871 4.024251 2.998618" mask="url(#d)"/></g><path d="m125.509049 87h-33.7338666c-1.0640292 0-1.7751824.6918326-1.7751824 1.7269543l2.4863356 17.2730457 31.9568844-.001751 2.486335-17.2712947c.354677-.6900811-.709353-1.7269543-1.420506-1.7269543" fill="#cfd6e0" mask="url(#d)"/><path d="m109.5 97c.827586 0 1.5.4476351 1.5 1s-.672414.9983108-1.5 1c-.829108 0-1.5-.4476351-1.5-1s.670892-1 1.5-1" fill="#adb4bb" mask="url(#d)"/><path d="m132.453559 97.9885699c-.85766-.0074428-1.547045-.7275385-1.539807-1.6113769.007237-.8819777.707478-1.5909091 1.565138-1.5834663.85766.0074429 1.547045.7293993 1.541617 1.611377-.009047.8819776-.709289 1.5909091-1.566948 1.5834662zm-5.399277-4.9885699-.054282 6.689261 35.943908.310739.056092-6.6874003z" fill="#454444" mask="url(#d)"/><path d="m136 96.4992511c0 .8297554-.670994 1.5007489-1.500749 1.5007489-.828257 0-1.499251-.6709935-1.499251-1.5007489 0-.8282576.670994-1.4992511 1.499251-1.4992511.829755 0 1.500749.6709935 1.500749 1.4992511" fill="#fff" mask="url(#d)"/><path d="m136.453559 104.987244c-.85766-.007441-1.547045-.727345-1.539807-1.609088.007237-.881744.707478-1.590487 1.565138-1.583046s1.547045.727345 1.541617 1.609089c-.009047.881743-.709289 1.590486-1.566948 1.583045zm-5.399277-4.987244-.054282 6.687483 35.945718.312517.054282-6.687483z" fill="#454444" mask="url(#d)"/><path d="m138 103.5c0 .827844-.670994 1.5-1.500749 1.5-.828257 0-1.499251-.672156-1.499251-1.5s.670994-1.5 1.499251-1.5c.829755 0 1.500749.672156 1.500749 1.5" fill="#fff" mask="url(#d)"/><path d="m174.423449 75.7533693c1.808917-2.3535746 3.781101-4.5542958 5.879445-6.6224213 2.31356-2.2762271 2.718015-6.1970099 3.285737-9.1767312.484233-2.5266858 4.91469-17.8949021 9.6791-14.4547789.528761.3812128.751397 1.0754989.730988 1.7237448-.092765 2.5966669-1.454555 5.4990406-2.575156 7.8065751-.113173.2302009-.278295.3572719-.458259.4033121-.591841 3.1970309-.862715 5.8802534-2.04083 8.7623694-.894255 2.1933548-2.525064 4.6169106-3.467556 6.7771164-1.072363 2.4585463-3.159576 4.4714235-5.13176 6.3111896-.413732.3830544-.821898.7587424-1.211511 1.1307472-1.649362 1.5598417-3.333974 3.0773264-5.055692 4.548771-.961046.8231987-4.126188 4.5008892-4.91098 2.39409-.267163-.7145438-.135437-.685078.11874-1.4180379 1.038968-2.9760381 3.285736-5.7494993 5.157734-8.1859463" fill="#f7ae83" mask="url(#d)"/><path d="m166.480948 87.5146051c-.014402-.0528596-.033605-.1000556-.062409-.1415881-.208032-.3209331-.366456-.6815109-.400061-1.0817333-.027204-.3492507-.027204-.6966136.019203-1.04964.044807-.0717379.076812-.1510273.083212-.2416437l1.365009.7060528c.137621.0943921.275242.1963355.379258.3416993.100815.143476.161624.3379237.123218.5229322-.030404.1415881-.112017.2567464-.195229.3662413-.236836.3171574-.470472.6380904-.708909.9571357-.046407.0641866-.116817.1094948-.192029.1057191-.084813-.0056635-.168025-.0320933-.235236-.0962799-.099215-.0906164-.139221-.2454194-.176027-.3888954" fill="#f19d81" mask="url(#d)"/><path d="m168.271572 83.2954572c-.758333.2265452-1.450723.5681328-1.959941.9734363-.210648.1681389-.355354.4088432-.366344.670786-.021981.5097266.423127.6937946.783976.9097204.280253.1645992.558675.4460108.481743.7539706-.038467.1451305-.152033.2637128-.258273.3716757-1.20344 1.2106007-1.752956 1.647762-2.952733 2.8565929.342532.2336247.820611.2053065 1.197945.030088.379166-.1699089.683232-.4619398.978139-.748661.967148-.9415783 1.27854-1.1061775 2.242025-2.0459859.384661-.3734456 1.012941-.7575104 1.408593-.3964541-.124557.6548571-.842591.9504278-1.549635 1.2265297-.280253.1097328-.23446.5079567.062278.5557436.822443.122122 1.685183-.0070796 2.419703-.3805251.992792-.5079567 1.734639-1.4530748 1.970931-2.5150052.078764-.3486672.104408-.7079537.201489-1.0513112.042129-.1451305.095249-.2973405.05312-.4442409-.040298-.1451305-.172182-.2477837-.294907-.3415876-1.141162-.8690131-2.910604-.8743227-4.418109-.4247722" fill="#f7b088" mask="url(#d)"/><path d="m189.678601 47.0045173c.143062-.203939-3.864625 6.5445892-4.868016 10.6734278-1.005352 4.1269846-2.232155 9.75941-4.227179 11.7098089-2.051857 2.0078725-5.602923 5.7084391-5.583406 5.6880452l4.205702 4.9242008s2.937664-2.6549155 6.122256-6.3239642c3.186552-3.6690488 4.672042-9.0604554 4.672042-9.0604554z" fill="#25252b" mask="url(#d)"/><path d="m201.512269 97.435578c-.225255-1.494209-.333517-2.9938448-.399871-4.4952897-.796251-.1139651-1.562816-.7778569-1.566308-1.7004315-.006985-1.0003602.013969-1.9989114.043654-2.9974627-.694973.6476111-2.098888.3853105-2.491775-.4848039-.258432-.5770613-.424318-1.1667854-.527341-1.7655544-1.00579.4468155-2.373036-.2170763-2.376528-1.546669-.001746-.4848039.013969-.9677988.043654-1.4453668-2.509236 5.2224954-.340502 11.2861618-2.682107 16.6009147-.256686 2.8274193-1.845694 5.6385583-2.111111 8.4659783-.123977 1.315121-1.101829 3.219966-1.101829 4.567648-.719419 5.555346-2.276996 10.557147-2.490028 16.172189-.274148 7.156284-.216524 14.317995-.544803 21.468852-.0454.967799.233986 14.071975-1.307876 19.477176.062862.027135.125724.052461.190332.068741 1.891094.517366 3.382318-.13929 4.555739-1.33321 1.061667-5.182698 2.346843-10.316554 3.389303-15.506488.544802-2.7225 1.016266-5.468516 1.334068-8.230812.317802-2.780387.42781-5.589717.665288-8.37553.230494-2.691747.42781-5.421482.923721-8.078858.483687-2.606726 1.173421-5.159182 1.920779-7.698975 1.405661-4.772062 3.034831-9.554978 3.485341-14.549543.200809-2.210561.253194-4.506144.466226-6.765547.39114-.0741678.784027-.1465266 1.176914-.2116495.34574-.056078.642588-.2026046.892289-.4106361-.698465-.0235166-1.367246-.4214899-1.487731-1.2246724" fill="#e6b389" mask="url(#d)"/><path d="m188.562701 166c-.964592 2.257769-1.816976 4.549261-2.980391 6.739583.062993.008431.124019.018548.185044.02192-.316937.79924-.649623 1.573188-1.051208 2.28812-.106302.187164-.212604.372642-.330717.551375-.053151.077563-.108271.156812-.165359.23269-.001969.005058-.003937.006744-.005906.011803-.007874.008431-.01378.016861-.027559.033723-.007875.010117-.019686.020234-.029529.032037-.905535.026979-1.657522 1.448412-.738208 1.918851 1.939026.98809 3.315046-2.610177 3.82687-3.679202.897661-1.873325 2.507938-4.058589 2.744165-6.06512.098428-.849824-.533478-1.714825-1.427202-2.08578" fill="#bfc3c6" mask="url(#d)"/><path d="m189.285453 166.821178c.094498-.408998.059293-.765168-.066705-1.059988-1.230326-.751535-2.681147-.789027-4.265377-.751535-.009265.010225-.390963.025562-.398374.034083-.050028 1.753582-.453961 3.675876-1.734315 4.991489-1.713934 1.756991-3.131403 2.992508-3.820682 5.349363.031499.170417.075969.33572.135262.502728.570693 1.641108 2.24201 2.505118 3.865151 1.939336.155644-.054533.303876-.1227.450255-.197683.500283-.139741.959803-.431153 1.310001-.833335.411344-.475461.718925-1.017384 1.104329-1.508183.554017-.708931 1.159916-1.298571 1.586083-2.09271.322405-.599865.483607-1.271305.809718-1.860945.446549-.809476 1.122858-1.484324 1.567554-2.309139.394668-.732789.064851-1.618953-.5429-2.203481" fill="#2f262e" mask="url(#d)"/><path d="m178.059793 176.390034c-.090584.898207-.12386 1.636956.240324 2.05881.277298.314877.761645.486445 1.177591.653975.743158.300748 1.502954.593422 2.281236.775082.719126.163494 1.427159.137254 2.140739.068627.793071-.900225 1.151709-2.601771 1.094401-3.778522-.020335-.431947-.118314-.865912-.268054-1.279692-.388217-.544979-.983483-.902243-1.460435-1.154549-.91878-.488462-1.941084-.803339-2.985572-.720583-.989029.076701-1.60463.758934-2.003938 1.697509-.077644.55709-.158984 1.116198-.216292 1.679343" fill="#bfc3c6" mask="url(#d)"/><path d="m217.555801 89.3446498c-.036136-1.2451984-.966634-2.3224229-2.238615-2.3446498-.825703-.0142892-1.638759.4768521-2.048901 1.1980448-2.843889-.009129-5.687779-.0456451-8.531668-.0949418.19694.0054774.372199.5477412.52939 1.5208949-1.199709-.2446578-2.162729.5240058-2.621654 1.6103593-.916043 2.1581005-.668513 4.6777103-.38846 6.9398817.272825 2.2220041.753432 4.5316461 1.002769 6.6294951.719103 6.041586 1.756201 12.039353 2.634301 18.057204.249338 1.701649.4788 3.403299.679354 5.110426.110214 12.559707 1.028064 25.092027 1.082268 37.618869.122862.474709.256564.947593.410141 1.413173.205975.615296.469766 1.228766.789568 1.769204.990122.907425 2.254876 1.405869 3.873761 1.168515.068658-.009129.133702-.025561.204167-.047471-.475186.146064.001807-13.238906.218622-14.506015 1.100336-6.39214 2.721027-12.6583 2.379544-19.152686-.393881-7.418242.816669-14.896736 1.826666-22.216385 1.156346-8.41148.449891-16.2277479.198747-24.6739182" fill="#e6b389" mask="url(#d)"/><path d="m209.634386 166c.72199 2.45616 1.330188 4.937274 2.256219 7.336397-.062782.005347-.123602.008912-.188346.008912.23347.866251.484597 1.711113.808315 2.49359.086325.204978.17265.409955.272708.607802.045125.087338.088287.172894.135373.258449.003924.005348.005886.00713.007848.012477.005886.008912.013734.021389.023543.035648.005886.01426.01962.028519.027467.039213.892678.101598 1.493028 1.657641.533645 2.07829-2.030597.884075-3.021371-3.015837-3.419642-4.181533-.696485-2.044423-2.065912-4.477412-2.091417-6.607391-.009809-.903681.708257-1.76102 1.634287-2.081854" fill="#bfc3c6" mask="url(#d)"/><path d="m208.8424 165.764712c-.052277-.468625.016224-.866188.165847-1.185006 1.261874-.727905 2.671567-.633796 4.203843-.445578.00721.011523.196491.026888.203702.042253-.117174 1.968609.270402 4.200338 1.388061 5.794431 1.49442 2.131859 2.750886 3.649128 3.196147 6.361006-.048672.186298-.106358.368754-.180268.551211-.706649 1.788073-2.408376 2.604325-3.928033 1.816881-.146017-.072982-.28302-.165171-.416419-.263121-.474104-.201662-.890522-.574257-1.191569-1.056326-.355128-.570417-.602094-1.208054-.926576-1.795756-.470499-.846981-1.002289-1.565283-1.339389-2.49293-.25598-.704858-.347917-1.473095-.609305-2.16835-.35693-.948774-.948208-1.768867-1.29973-2.734926-.313666-.860426.088331-1.824564.733689-2.423789" fill="#2f262e" mask="url(#d)"/><path d="m217.995891 177.219358c.018649.798165-.011189 1.450236-.412142 1.788743-.303978.256553-.803771.361669-1.234562.475692-.773933.199541-1.560919.391956-2.357231.482818-.734769.083736-1.44716-.001782-2.155821-.126495-.725445-.858739-.941773-2.383803-.790716-3.413577.057811-.375921.192084-.75006.376709-1.102821.436386-.445404 1.062991-.70552 1.562784-.889026.966017-.349197 2.015954-.538048 3.060296-.375921.988396.155 1.54973.80529 1.872357 1.667593.031704.495289.067137.99236.078326 1.492994" fill="#bfc3c6" mask="url(#d)"/><path d="m202.962158 13.8899882c-.827616.3643283-2.396488.0946539-3.096363-.485771-1.369164-1.1340612-4.967494.1482316-6.356449 3.4682625-.421004 1.0036887-.557741 2.2109727-.49477 3.4414736.136736 2.7663948 1.286403 5.2809744 3.0154 7.1276188 4.643644 4.9612942 4.269418 11.4424088 7.597873 11.554922 5.482054.185736 10.609674-7.0383227 10.357791-14.5570586.392218-10.5673065-7.349588-12.1710654-11.023482-10.5494473" fill="#a4a2a3" mask="url(#d)"/><path d="m200.105797 36.6547589.15774 5.8412918-1.931478.2089939s-1.906305 4.3625283-2.315759 7.0847178c-.439658 2.9276709 8.135363 4.3502344 11.115644-4.9420912 2.980281-9.2905693-2.669835-11.8476712-2.669835-11.8476712z" fill="#e6b389" mask="url(#d)"/><path d="m204.918996 33-4.918996 3.7316198.159166 5.2683802c.043582-.0251046.092847-.0394501.136429-.0645547l7.704405-4.1870891-.100426-1.5833831c-1.366178-2.1052002-2.980578-3.1649731-2.980578-3.1649731" fill="#d79d73" mask="url(#d)"/><path d="m193.735066 24.5302031c.521843 1.7158996-1.131269 4.5769403-.644093 6.211303.273694.9132138 2.038108 4.5968716 3.417526 6.5302031.609425.85342 1.430508 1.6669775 2.483317 1.7231474.664165.0362386 1.328329-.1195875 1.906736-.4493592l7.101448-4.05148-.735325-12.0855867-11.29809-4.4084307-1.381243 1.4731008c-.92691.9893148-1.331978 2.3536997-1.094776 3.6854697z" fill="#e6b389" mask="url(#d)"/><path d="m205.355226 29.2497435c.186048-.5868107.667586-1.074394 1.304163-1.2112594.286369-.0633003.609218-.0581679.941187.0889625 1.059746.4687643-.144097 3.6252243-1.798469 3.8613172-1.220259.1745035-.76973-1.7262158-.446881-2.7390203" fill="#e6b389" mask="url(#d)"/><path d="m193.971 27.926c.04.09.058.148.058.148s-.014-.058-.058-.148" fill="#d79d73" mask="url(#d)"/><g mask="url(#d)"><path d="m1.20659532 15.0762329.15050167.3226411 1.9509476-2.3871821-.38275734-.7304741c-1.2541806-2.71707357-1.53660349-5.76585129-.80453363-8.65874621l.91044222-3.60161791-1.40282423 2.90195787c-1.84875511 3.8209414-2.00111483 8.21828665-.42177629 12.15342135" fill="#000" fill-rule="evenodd" mask="url(#e)" transform="translate(188 53)"/></g><g mask="url(#d)"><path d="m12.4715087 1.69281345s-5.27977805-1.00106886-7.61403336-1.27716102c-2.33246797-.27421398-4.66672328.54279343-4.4879901.76254025.71314538.2385286 5.46387325 1.57015678 12.10202346.51462077" fill="#000" fill-rule="evenodd" mask="url(#f)" transform="translate(193 65)"/></g><path d="m197.82646 41s-3.283784 1.184391-5.267189 1.7756683c-1.981528.5894411-4.7962 4.1132339-5.145219 6.7299116-.350896 2.6148415.232679 18.764793 0 24.5527006-.234556 5.7897439-4.31583 31.5727425-5.130208 39.3346345-.818131 7.760056-3.39637 50.201652-3.280031 51.112439.118217.91446 7.346293 4.22341 15.041605 4.451107s18.422963-.45723 21.804322-1.597551c3.381358-1.142157 5.362887-5.506959 5.132084-8.061204-.234556-2.550572-1.735714-60.9291119-2.435629-65.6813659-.699915-4.7540904-2.097869-34.2518529-1.865189-38.671743.232679-4.4217263.581699-8.5386327 2.097868-10.3032834 0 0-3.848594-1.4139241-6.879057-2.216372-3.030463-.8024478-4.081273-1.0301447-4.081273-1.0301447s-3.265019 1.3753626-3.614039 1.0301447c-.350895-.3470541-6.378045-1.4249417-6.378045-1.4249417" fill="#000" mask="url(#d)"/><path d="m196.797097 131.057884c1.051471-15.586058 4.403034-74.8318146 5.202903-89.0183237-1.85885-.4481496-5.163473-1.0395603-5.163473-1.0395603s-3.285846 1.184658-5.268619 1.774232c-1.984651.5914106-4.799213 4.1159977-5.150329 6.7314287s.232825 18.7708599 0 24.5600723c-.232826 5.7910491-4.316663 31.57986-5.133431 39.341665-.816767 7.763643-3.398503 50.212969-3.280213 51.125799.116413.912829 7.34903 4.224361 15.051053 4.450273.230948.007347.473162.01102.709743.01653.702232-7.96935 2.149882-24.855778 3.032366-37.942116" fill="#282827" mask="url(#d)"/><path d="m198.540802 43s-6.999727 25.6140097-6.516927 25.8826754c.482799.2650351 5.873195-.0018153 5.873195-.0018153l2.817195-12.8814325 1.285735-11.9574402z" fill="#f6f6f6" mask="url(#d)"/><path d="m204 44.5986859s-.727444 26.306113-.727444 26.3980798c0 .0901635-7.272556-1.7347464-7.272556-1.7347464l1.790342-25.2620193s4.519199.4850798 6.209658.5986859" fill="#fff" mask="url(#d)"/><path d="m208.041709 90.7370925c.353064.7640363.369701 1.8872838 1.301347 2.1875767.746796.2375735 1.704321-.1406435 2.39751-.3896205.953829-.3402053 1.43444-.853364 1.833717-1.7922545.28467-.6690069.549006-1.3627215.780069-2.0526349.055455-.1634506.210729-.627194.229214-.701317.020334-.087427.029576-.1824564.029576-.2774858.068395-.216667.155275-.4181294.290216-.5796793.323488-.3896206-.242155-.9236858-.565643-.5378664-.022182.0266082-.038818.055117-.061.0855264-.140487-.2185676-.319792-.4029246-.510188-.5283634-.611855-.3972229-1.26068.0798247-1.807837.3934217-.842918.4808487-1.689533.8932763-2.033355 1.8834826-.138638.3991235-.268033.9312881-.253245 1.4197392-.009243.0019006-.020334.0038012-.029576.0057018-.212578.0665206-.301306.2850882-.256942.4941529.048061.2318717.201487.433334.301306.6519016-.04991-.0760235-.096122-.152047-.140486-.2318717-.092426-.1672517-.186699-.3364041-.238457-.5226617-.105365-.3820182-.574885-.3250005-.711675-.0513159-.275427-.2280705-.737553.1482459-.554551.5435682" fill="#f7ae83" mask="url(#d)"/><path d="m220.729913 76c-1.397195 1.2548528-2.741922 2.5670703-4.016693 3.9581643-1.919928 2.0920189-4.211017 4.4672759-5.400285 7.1114301-.291487.6489381-.411968.6130852-.219587 1.2835351.567429 1.9808748 3.777674-1.1562572 4.727922-1.8392557 1.708114-1.2189998 3.383193-2.4864012 5.027181-3.7950334.390593-.3119205.796731-.6256337 1.206757-.9483102 1.377762-1.0773807 2.804106-2.2300526 3.944792-3.5673672-1.853858-.7941426-3.91953-1.6653689-5.270087-2.203163" fill="#f7ae83" mask="url(#d)"/><path d="m219.504028 45s2.134285.8824912 2.333735 1.2271004c.201155.3446092 6.547755 27.9443405 6.143741 29.6692098-.404014 1.7248692-5.963043 7.1036898-5.963043 7.1036898l-3.133239-4.2757065 3.104259-4.5838492s-5.795982-8.2250372-4.894195-16.192985c.900082-7.9679478 1.02282-11.6364857 2.408742-12.9474593" fill="#25252b" mask="url(#d)"/><path d="m206 43s.261633-2.3578952.588235-2.8650533c.326603-.5055976.755049-1.2858409 2.384548-1.1095059.705882.0764638 1.027217 3.1178521 1.027217 3.1178521z" fill="#1e1f23" mask="url(#d)"/><path d="m199.289 41s-.002-1.5286822 1.354-2l.068 1.6449612z" fill="#000" mask="url(#d)"/><path d="m206 42.7481409s-5.635753.1531005-6.793011-.7481409c0 0-.133602.3251414-.167473.4750852-.030107.1499439-.039516.4908688-.039516.4908688s.391398 1.191659 6.821237 1.0164614z" fill="#ededed" mask="url(#d)"/><path d="m175 75.1125384 4.936752 5.8874616 5.063248-5.8874616-5.687179-4.1125384z" fill="#2c2b30" mask="url(#d)"/><path d="m214 80.065849s4.6127 5.9743143 4.735161 5.9339474c.124236-.040367 4.264839-5.7531735 4.264839-5.7531735s-4.396174-4.324533-4.499113-4.2455541c-.102938.0772238-4.500887 4.0647802-4.500887 4.0647802" fill="#2c2b30" mask="url(#d)"/><path d="m215.127756 64.1434148c.161108-.75611.849632-1.2228445 1.536461-1.0454854.685133.1792261 1.109101.937203.947993 1.693313-.162804.7523761-.851328 1.2209776-1.534765 1.0417515-.686829-.1773591-1.110797-.9353361-.949689-1.6895791zm4.872244-3.7880177-5.20294-1.3553971-6.79706 31.6464698 5.201244 1.3535302z" fill="#454444" mask="url(#d)"/><path d="m216.16761 65.9620385c-.807582-.1844625-1.312962-.987216-1.130274-1.7950935.186103-.8078775.988563-1.3134414 1.796145-1.1289789.807583.1827546 1.312962.987216 1.128567 1.7933855-.182688.8095855-.986856 1.3151494-1.794438 1.1306869" fill="#fff" mask="url(#d)"/><path d="m211.759131 89.4368594c-.985335.564-.729148 1.356-.729148 1.356s1.715891-.152 1.945333-1.086c.229443-.936-1.216185-.27-1.216185-.27" fill="#f7ae83" mask="url(#d)"/><path d="m209.858487 91.6765423s-.292-.5641863-.292-1.2408637c0-.6801387-.518-.4724627-.652 0-.136.4707321 0 .872239 0 .872239s.148-.9656931-.162-1.0729924c-.306-.1055686-.818.6403342-.522 1.413927.294.7735929 1.628.0276901 1.628.0276901" fill="#f7ae83" mask="url(#d)"/></g></svg>