<svg height="250" viewBox="0 0 250 250" width="250" xmlns="http://www.w3.org/2000/svg" xmlns:xlink="http://www.w3.org/1999/xlink"><mask id="a" fill="#fff"><path d="m4.78699082.32686371-4.21428086 107.32803229 99.55157904 132.02959 126.830944-9.831853v-229.52576929z" fill="#fff" fill-rule="evenodd"/></mask><mask id="b" fill="#fff"><path d="m4.78699082.32686371-4.21428086 107.32803229 99.55157904 132.02959 126.830944-9.831853v-229.52576929" fill="#fff" fill-rule="evenodd"/></mask><mask id="c" fill="#fff"><path d="m4.78699082.32686371-4.21428086 107.32803229 99.55157904 132.02959 126.830944-9.831853v-229.52576929" fill="#fff" fill-rule="evenodd"/></mask><mask id="d" fill="#fff"><path d="m4.78699082.32686371-4.21428086 107.32803229 99.55157904 132.02959 126.830944-9.831853v-229.52576929" fill="#fff" fill-rule="evenodd"/></mask><mask id="e" fill="#fff"><path d="m4.78699082.32686371-4.21428086 107.32803229 99.55157904 132.02959 126.830944-9.831853v-229.52576929" fill="#fff" fill-rule="evenodd"/></mask><mask id="f" fill="#fff"><path d="m4.78699082.32686371-4.21428086 107.32803229 99.55157904 132.02959 126.830944-9.831853v-229.52576929" fill="#fff" fill-rule="evenodd"/></mask><mask id="g" fill="#fff"><path d="m4.78699082.32686371-4.21428086 107.32803229 99.55157904 132.02959 126.830944-9.831853v-229.52576929" fill="#fff" fill-rule="evenodd"/></mask><mask id="h" fill="#fff"><path d="m4.78699082.32686371-4.21428086 107.32803229 99.55157904 132.02959 126.830944-9.831853v-229.52576929" fill="#fff" fill-rule="evenodd"/></mask><mask id="i" fill="#fff"><path d="m4.78699082.32686371-4.21428086 107.32803229 99.55157904 132.02959 126.830944-9.831853v-229.52576929" fill="#fff" fill-rule="evenodd"/></mask><mask id="j" fill="#fff"><path d="m4.78699082.32686371-4.21428086 107.32803229 99.55157904 132.02959 126.830944-9.831853v-229.52576929" fill="#fff" fill-rule="evenodd"/></mask><mask id="k" fill="#fff"><path d="m4.78699082.32686371-4.21428086 107.32803229 99.55157904 132.02959 126.830944-9.831853v-229.52576929z" fill="#fff" fill-rule="evenodd"/></mask><mask id="l" fill="#fff"><path d="m4.78699082.32686371-4.21428086 107.32803229 99.55157904 132.02959 126.830944-9.831853v-229.52576929z" fill="#fff" fill-rule="evenodd"/></mask><mask id="m" fill="#fff"><path d="m4.78699082.32686371-4.21428086 107.32803229 99.55157904 132.02959 126.830944-9.831853v-229.52576929" fill="#fff" fill-rule="evenodd"/></mask><mask id="n" fill="#fff"><path d="m4.78699082.32686371-4.21428086 107.32803229 99.55157904 132.02959 126.830944-9.831853v-229.52576929z" fill="#fff" fill-rule="evenodd"/></mask><mask id="o" fill="#fff"><path d="m4.78699082.32686371-4.21428086 107.32803229 99.55157904 132.02959 126.830944-9.831853v-229.52576929z" fill="#fff" fill-rule="evenodd"/></mask><mask id="p" fill="#fff"><path d="m4.78699082.32686371-4.21428086 107.32803229 99.55157904 132.02959 126.830944-9.831853v-229.52576929" fill="#fff" fill-rule="evenodd"/></mask><mask id="q" fill="#fff"><path d="m4.78699082.32686371-4.21428086 107.32803229 99.55157904 132.02959 126.830944-9.831853v-229.52576929z" fill="#fff" fill-rule="evenodd"/></mask><mask id="r" fill="#fff"><path d="m4.78699082.32686371-4.21428086 107.32803229 99.55157904 132.02959 126.830944-9.831853v-229.52576929z" fill="#fff" fill-rule="evenodd"/></mask><mask id="s" fill="#fff"><path d="m4.78699082.32686371-4.21428086 107.32803229 99.55157904 132.02959 126.830944-9.831853v-229.52576929" fill="#fff" fill-rule="evenodd"/></mask><mask id="t" fill="#fff"><path d="m4.78699082.32686371-4.21428086 107.32803229 99.55157904 132.02959 126.830944-9.831853v-229.52576929" fill="#fff" fill-rule="evenodd"/></mask><mask id="u" fill="#fff"><path d="m4.78699082.32686371-4.21428086 107.32803229 99.55157904 132.02959 126.830944-9.831853v-229.52576929" fill="#fff" fill-rule="evenodd"/></mask><mask id="v" fill="#fff"><path d="m4.78699082.32686371-4.21428086 107.32803229 99.55157904 132.02959 126.830944-9.831853v-229.52576929" fill="#fff" fill-rule="evenodd"/></mask><mask id="w" fill="#fff"><path d="m4.78699082.32686371-4.21428086 107.32803229 99.55157904 132.02959 126.830944-9.831853v-229.52576929" fill="#fff" fill-rule="evenodd"/></mask><mask id="x" fill="#fff"><path d="m4.78699082.32686371-4.21428086 107.32803229 99.55157904 132.02959 126.830944-9.831853v-229.52576929" fill="#fff" fill-rule="evenodd"/></mask><mask id="y" fill="#fff"><path d="m4.78699082.32686371-4.21428086 107.32803229 99.55157904 132.02959 126.830944-9.831853v-229.52576929z" fill="#fff" fill-rule="evenodd"/></mask><mask id="z" fill="#fff"><path d="m4.78699082.32686371-4.21428086 107.32803229 99.55157904 132.02959 126.830944-9.831853v-229.52576929" fill="#fff" fill-rule="evenodd"/></mask><mask id="A" fill="#fff"><path d="m4.78699082.32686371-4.21428086 107.32803229 99.55157904 132.02959 126.830944-9.831853v-229.52576929z" fill="#fff" fill-rule="evenodd"/></mask><mask id="B" fill="#fff"><path d="m4.78699082.32686371-4.21428086 107.32803229 99.55157904 132.02959 126.830944-9.831853v-229.52576929" fill="#fff" fill-rule="evenodd"/></mask><mask id="C" fill="#fff"><path d="m4.78699082.32686371-4.21428086 107.32803229 99.55157904 132.02959 126.830944-9.831853v-229.52576929z" fill="#fff" fill-rule="evenodd"/></mask><mask id="D" fill="#fff"><path d="m4.78699082.32686371-4.21428086 107.32803229 99.55157904 132.02959 126.830944-9.831853v-229.52576929" fill="#fff" fill-rule="evenodd"/></mask><mask id="E" fill="#fff"><path d="m4.78699082.32686371-4.21428086 107.32803229 99.55157904 132.02959 126.830944-9.831853v-229.52576929z" fill="#fff" fill-rule="evenodd"/></mask><mask id="F" fill="#fff"><path d="m4.78699082.32686371-4.21428086 107.32803229 99.55157904 132.02959 126.830944-9.831853v-229.52576929z" fill="#fff" fill-rule="evenodd"/></mask><mask id="G" fill="#fff"><path d="m4.78699082.32686371-4.21428086 107.32803229 99.55157904 132.02959 126.830944-9.831853v-229.52576929" fill="#fff" fill-rule="evenodd"/></mask><mask id="H" fill="#fff"><path d="m4.78699082.32686371-4.21428086 107.32803229 99.55157904 132.02959 126.830944-9.831853v-229.52576929z" fill="#fff" fill-rule="evenodd"/></mask><mask id="I" fill="#fff"><path d="m4.78699082.32686371-4.21428086 107.32803229 99.55157904 132.02959 126.830944-9.831853v-229.52576929z" fill="#fff" fill-rule="evenodd"/></mask><mask id="J" fill="#fff"><path d="m4.78699082.32686371-4.21428086 107.32803229 99.55157904 132.02959 126.830944-9.831853v-229.52576929z" fill="#fff" fill-rule="evenodd"/></mask><mask id="K" fill="#fff"><path d="m4.78699082.32686371-4.21428086 107.32803229 99.55157904 132.02959 126.830944-9.831853v-229.52576929z" fill="#fff" fill-rule="evenodd"/></mask><mask id="L" fill="#fff"><path d="m4.78699082.32686371-4.21428086 107.32803229 99.55157904 132.02959 126.830944-9.831853v-229.52576929" fill="#fff" fill-rule="evenodd"/></mask><mask id="M" fill="#fff"><path d="m4.78699082.32686371-4.21428086 107.32803229 99.55157904 132.02959 126.830944-9.831853v-229.52576929" fill="#fff" fill-rule="evenodd"/></mask><mask id="N" fill="#fff"><path d="m4.78699082.32686371-4.21428086 107.32803229 99.55157904 132.02959 126.830944-9.831853v-229.52576929z" fill="#fff" fill-rule="evenodd"/></mask><mask id="O" fill="#fff"><path d="m4.78699082.32686371-4.21428086 107.32803229 99.55157904 132.02959 126.830944-9.831853v-229.52576929z" fill="#fff" fill-rule="evenodd"/></mask><mask id="P" fill="#fff"><path d="m4.78699082.32686371-4.21428086 107.32803229 99.55157904 132.02959 126.830944-9.831853v-229.52576929z" fill="#fff" fill-rule="evenodd"/></mask><mask id="Q" fill="#fff"><path d="m4.78699082.32686371-4.21428086 107.32803229 99.55157904 132.02959 126.830944-9.831853v-229.52576929" fill="#fff" fill-rule="evenodd"/></mask><g fill="none" fill-rule="evenodd"><path d="m-19.1108987 130.495416s21.56847333 3.247884 40.3301275 15.837325c3.8603894 2.588968-14.85804145 11.717804-20.91742091 10.337713-9.05530092-2.064948 5.44884903-1.214065-16.53024649-6.231164z" fill="#5f4b40" mask="url(#a)" transform="translate(12 27)"/><path d="m-71.9289013 197.843059s41.9483033-10.90324 49.1206852-10.174282c3.4389612.352806 11.3542451-1.299672 17.57841377 8.685236 0 0 4.1116253 25.757379 7.28044033 35.171572 1.20755355 3.590313 3.54972118 35.366134 2.40430126 36.315596-2.28003401 1.911893-4.95718294 4.22588-7.23721694 5.790157-16.55726112 11.486924-33.96278132 14.92937-34.60302792 13.370282-1.0184512-2.459261-32.2689646-17.432731-34.6408483-24.317622-.9239-2.697923 7.9558058-8.140463 5.3813125-9.715116-12.7644084-.181591-1.175136-17.225198-5.3110745-21.103462-8.6149626-8.085986-6.2241686-24.519966.0270146-34.022361" fill="#000" mask="url(#b)" transform="translate(12 27)"/><path d="m-9.17382487 109.903271c-1.88562053 2.342523-2.77980453 4.615004-2.43942023 5.432163.3484886.822348 2.60961235 4.602034.2971608 4.739524-2.3178545.124519-2.2368106 3.756338.2296243 3.756338.8698708-.010376-1.4236705 2.726459-4.0359844 2.887296-1.1508228.064854-1.2183594.718582-1.3345223 1.380092-.1485804.840506-.3782046 1.69139-3.0013243 1.372308-4.6843353-.565526-4.2926233 1.089546-6.1242146-4.960027-1.8288898-6.034007-.6267392-19.505462.4727559-20.405634 1.1075994-.90536 7.2047994-14.1044282 11.7297484-11.5673432 4.53035188 2.5370849 4.20617643 17.3652832 4.20617643 17.3652832" fill="#c6c6c6" mask="url(#c)" transform="translate(12 27)"/><path d="m-19.7433942 92.5525143c4.0738049-1.9196757 8.9256308 5.5099882 7.5424822 7.1520892-1.3669398 1.6369125-1.7937708 2.2465395-.4700544 3.6136595 1.3237164 1.35415 1.3777457 1.823692.2647433 2.303611-1.1103009.487702-.3052652 4.15065-.3052652 4.15065s4.70324545 1.561683 3.33360417 3.201189c-1.36693977 1.642101-4.45471097 2.285452-2.54207587 2.083108 1.9342469-.204938 7.4641398-1.156994 7.13185996-4.116926-.34038422-2.949556-2.25031792-3.029975-1.39125297-5.743462.86446786-2.700517 1.23726963-.726364.81584155-4.428225-.42683101-3.691485-1.83429276-4.10655-2.43131588-5.914677-.59432166-1.8055328 2.00988779-1.9871238-.52408365-7.1443067-1.28859741-2.6226921-2.04500681-2.5811856-4.86803471-6.7863131-2.8095205-4.179186-12.5320826-6.617693-14.2448096-2.8872961 4.1278341 8.9135214 7.6883611 14.5168992 7.6883611 14.5168992" fill="#bec4d3" mask="url(#d)" transform="translate(12 27)"/><path d="m-14.2883666 133.01951c-6.8725196-3.720021-8.2043404-6.270076-8.3096974-6.498362 4.7707821 18.760939-4.1818633 19.238264-4.0251785 20.332998 1.2426726 8.822725 8.482591 10.568593 4.9652873 37.309157 0 0 3.2903808 14.690707 3.8495835 14.6648 2.6042094-.1038 9.54966847-.73418 13.21825398-4.14809l-1.02385413-2.04679.01080585-.002594-.0999541-.171214-2.39079395-4.786219-.23772866.064854c-8.36372659-16.299084.98603366-15.100584-1.01845121-30.766694-.41602516-3.185625-3.12559168-15.526026-3.12559168-15.526026s.1674907-7.349246-1.812681-8.42582" fill="#693c11" mask="url(#e)" transform="translate(12 27)"/><path d="m-17.7885276 129.490189c-.4079208.064853-.9455117.067448-1.672205-.020754-.1377746-.015565-.2701462-.03113-.3998164-.0441-2.1152448-1.699173-2.671746-2.757589-2.7365811-2.902861.0324175.114143.0594322.228285.0864468.339834-.8779752-1.463104-1.7181299-2.744617-2.2692282-3.299767 0-.023347 0-.051883-.0027014-.080419 1.2669857-.586279 2.280034-1.330802 3.239053-1.92227 4.1926692-4.731741 4.3952788-8.065232 6.2700935-14.376814.8617664-3.224537 1.637086-7.543807 1.7694577-11.8604833 1.280493 1.7095491 1.9315454 3.6421956 1.3021047 4.3815302-1.3642383 1.6369131-1.7937708 2.2491331-.4700544 3.6110661 1.3237164 1.354149 1.3777457 1.823692.2647433 2.306205-1.1075995.487701-.3052652 4.15065-.3052652 4.15065s1.6073699.534396 2.6690445 1.302266c-.0432234.06226-.0837453.121926-.1188643.181591-.8752737 1.325614-1.391253 2.531897-1.4993115 3.346462-.8509605.422848-1.3048062.562932-.2593403.453977.0783424-.007782.1566848-.015565.2377286-.031129.0135073.121925.0378205.225691.070238.311298.3403843.796406 2.48804663 4.397095.4727559 4.716177-.0540292.01297-.1134614.015565-.175595.020753-.075641.005188-.1485804.010377-.2188184.023347-2.0909317.332052-1.9369484 3.735585.4484427 3.73818.8239459-.015565-1.1994492 2.448883-3.6388695 2.838007-.1323716.020753-.2647433.036318-.3971149.046695-.0891483.005188-.1782965.015564-.2593404.028535-.9049898.142679-.9671234.741929-1.0778833 1.348962-.1053571.607032-.2566389 1.221847-1.3291194 1.393062" fill="#bec4d3" mask="url(#f)" transform="translate(12 27)"/><path d="m21.2210861 146.331938c.8779752 2.874326 1.4641924 4.345212.0621336 7.650167-2.3529735 5.564466-19.23711151 18.234326-24.53467867 21.427732l-12.87246683 7.315521-5.2894628-4.902955 26.37707584-26.23211c2.56909045-2.550055 5.73520406-4.521614 9.28492516-5.5048 2.4015998-.661509 4.992302-.87423 6.9724737.246445" fill="#d9a799" mask="url(#g)" transform="translate(12 27)"/><path d="m17.5138308 143.985538c2.0612155 1.169964 4.449308.197155 4.8437215 6.718865.3646974 5.995095 1.140017 6.887485-4.1575502 10.078297l-21.8089034 15.289958s.28095205-5.465888-10.6599694-6.524303c5.64875722-4.448979 14.40149439-13.860578 14.40149439-13.860578 2.56638898-2.555244 9.88194831-9.012099 13.43437101-9.99269" fill="#634e42" mask="url(#h)" transform="translate(12 27)"/><path d="m-8.12631592 174.17063c-.08104386.757493-1.00764536 1.346367-2.36648078 1.62913-.8995869.186779-1.9855746.241256-3.1418004.127113-2.9094747-.287951-5.1570911-1.546117-5.0193166-2.806877.1350731-1.26076 2.6042095-2.046789 5.5109827-1.756244 2.9067732.290546 5.15168818 1.546118 5.01661508 2.806878" fill="#282827" mask="url(#i)" transform="translate(12 27)"/><path d="m-7.89992989 173.483932c-.1350731 1.26076-2.60420941 2.046789-5.51098261 1.756244-2.9067733-.287952-5.1543897-1.546118-5.0166151-2.806878.1350731-1.26076 2.6042094-2.046789 5.5109826-1.756244 2.9067732.290546 5.15168822 1.548712 5.01661511 2.806878" fill="#fff" mask="url(#j)" transform="translate(12 27)"/><path d="m-9.0064674 178.832598s1.3183135-1.613565.37010031-2.202439c-.95091466-.586279-1.67490651-1.102516-1.67490651-1.102516l1.95585856-.983186s1.45608807.373559 1.82078545 1.12327c.83205032 1.699172-.21881843 2.039007-.21881843 2.039007z" fill="#cecece" mask="url(#k)" transform="translate(12 27)"/><path d="m-8.67010376 178.778606s1.31561204-1.61616.3701003-2.199845c-.95091465-.588873-1.67490649-1.10511-1.67490649-1.10511l1.95315709-.983186s1.45878953.373559 1.82348691 1.12327c.82934886 1.699173-.21881843 2.039007-.21881843 2.039007z" fill="#282827" mask="url(#l)" transform="translate(12 27)"/><path d="m142.552909 56.4159349c-1.637086.7341463-4.74917.2256916-6.148527-.9053606-2.731179-2.207627-9.844128.3735586-12.542889 6.9341801-.818543 1.9871238-1.064376 4.363371-.9239 6.7863131.318773 5.4425401 2.639329 10.3766256 6.0972 13.9850971 9.29303 9.6943625 8.658186 22.4628004 15.260559 22.6314204 10.870684.274981 20.912018-14.0369803 20.285279-28.8392366.599725-20.8103226-14.774296-23.8454856-22.027722-20.5924135" fill="#a3a2a2" mask="url(#m)" transform="translate(12 27)"/><path d="m88.6435385 134.450975 1.7667562-10.298801-1.0886892-10.96031c-1.566848.365776-2.7338796 1.662854-2.922982 3.242695l-.532188 4.451572-3.5064978.49289-14.7472815-10.794285c-.426831-.313893-.9968395-.363182-1.4722969-.127113-.9239.459165-1.0562717 1.70436-.2431316 2.33474l6.9832795 5.445135-1.95856-.98578c-.9779293-.492889-2.1584682.101172-2.3286603 1.169965-.0972526.617409.1782965 1.232224.7050816 1.574653l1.5425349 1.006532-.180998.814566c-.2269228 1.019503.2296243 2.067542 1.1373155 2.604533l.894184.531802c-.4349354 1.092139-.0162088 2.33474.994138 2.954744l.8347518.511049c1.4776998 3.65776 4.3358467 6.607316 7.9747161 8.228664l1.1994492.53699z" fill="#e7b48a" mask="url(#n)" transform="translate(12 27)"/><path d="m98.8775687 148.223088-10.0872595-15.536402-8.2826827 2.461854 10.4600612 19.23567z" fill="#e7b48a" mask="url(#o)" transform="translate(12 27)"/><path d="m132.55285 110.54607s-14.212392-.472136-17.905291 13.066766l-11.130024 28.242581-9.3470585-11.87086-8.3042944 8.210505 12.8427508 19.095585c4.5465611 3.922365 9.2525081 4.054667 13.4856991-.197156l7.485751-12.542746 2.174677 4.059855c1.461491 15.287363.297161 29.505935-2.036902 45.654558l-9.646922 51.006303s29.570205 6.975687 62.28491 1.374903c4.330444-25.863739-.661858-62.581429-3.630765-70.37168-.788827-2.080514-1.612773-4.10655-2.379988-6.124804-2.833833-7.47117-3.039145-15.663516-.61053-23.272177l6.026962-18.869893 3.457871-15.686864s-5.816248-5.730491-14.620313-8.991346c-8.806766-3.260855-28.146533-2.78353-28.146533-2.78353" fill="#e7e000" mask="url(#p)" transform="translate(12 27)"/><path d="m170.045365 145.007112 2.434017 39.140632s-.669963 1.317831-3.428155 2.760182c.561904.975403 1.156225 2.269887 1.764054 3.823787 1.283195-1.338585 1.934247-2.264699 1.934247-2.264699z" fill="#ecebed" mask="url(#q)" transform="translate(12 27)"/><path d="m169.345266 137.182882.280952 7.82657zm-8.720319-23.041297c1.820785 1.885951-6.969772 47.792143-6.313317 84.992346h.008104c.008105.36837.008105.73674.016209 1.107704.902288.210127 1.769458.303517 2.601508.303517 1.05357 0 2.047708-.153056 2.990519-.422848.008104-.002594.016208-.005188.024313-.010376h.002701c.008105-.002595.016209-.002595.027015-.005189v-.002594c.008104-.002594.016209-.005188.024313-.007782h.005403c.01891-.005189.035119-.010377.051328-.015565.005403-.002594.008104-.002594.010805-.005189.005403 0 .010806-.002594.016209-.002594.002702 0 .008105-.002594.013508-.005188.005402 0 .008104-.002594.010805-.002594.005403-.002594.010806-.005189.016209-.005189.002702-.002594.005403-.002594.010806-.002594.002702-.002594.010806-.002594.016209-.005188.002701 0 .005403-.002594.005403-.002594.008104-.002594.013507-.005189.01891-.007783h.002701c4.949079-1.564276 8.27728-6.404972 9.887352-9.307833-.35119-1.556494-.696978-2.848384-1.021153-3.823786-.861766.780841-2.080126 1.600594-3.779345 2.267292-.845558.332052-1.704623.487702-2.542076.487702-3.755033 0-7.096741-3.092235-7.069727-7.113177.248535-34.507468 6.675313-66.643878 4.965288-68.410498z" fill="#cdd620" mask="url(#r)" transform="translate(12 27)"/><path d="m152.061779 156.415169c-.61053.939085-1.27509 1.727709-1.99638 2.329553-1.655997 11.663327-3.031041 24.494025-3.690198 37.052336-3.309291 22.60029-.672664 34.053491.470055 39.244398.613232 2.791312 2.952698 4.895173 5.837859 5.196095 1.801876.189373 4.176461.365776 6.753656.365776 4.995003 0 10.765326-.658916 14.668939-3.159683v-.010376c-4.017074 1.800344-8.358324 2.3529-12.167386 2.3529-5.972932 0-10.62485-1.35415-10.62485-1.35415s-8.914825-.16862-2.787909-42.022739c.713186-13.56225 2.020694-27.516217 3.536214-39.99411" fill="#cdd620" mask="url(#s)" transform="translate(12 27)"/><path d="m169.345266 137.182882 1.845099 51.283878s-5.818949 14.327525-16.854422 11.774875c-.856363-37.386982 8.128699-84.195939 6.289004-86.10005-2.488047-2.568215-9.960291 41.599892-12.097147 82.265887-6.129618 41.856714 2.787908 42.02274 2.787908 42.02274s25.29379 7.359621 33.635905-12.241824c1.745144-5.893924-8.75814-29.640831-9.149852-36.38045-1.434477-24.64708-1.666802-42.86584-6.456495-52.625056" fill="#594a42" mask="url(#t)" transform="translate(12 27)"/><path d="m177.790303 197.986272c1.096794 2.27767 2.390794 4.788813 3.701004 7.35184-1.31021-2.563027-2.601508-5.071576-3.698302-7.349245 0-.002595-.002702-.002595-.002702-.002595" fill="#ecebed" mask="url(#u)" transform="translate(12 27)"/><path d="m154.319597 199.132648h-.008104c.005403.933896.013507 1.86001.024313 2.786123.902288.52402 1.769458.765277 2.601508.765277 1.050869 0 2.047708-.383936 2.987817-1.068793-.940109.684857-1.936948 1.068793-2.987817 1.068793-.83205 0-1.69922-.241257-2.601508-.765277-.008104-.931302-.008104-1.857415-.016209-2.786123" fill="#389a6a" mask="url(#v)" transform="translate(12 27)"/><path d="m173.623846 196.666117c-.507875 0-1.040063.046695-1.596565.147867-3.171516.583685-5.886485 1.014315-8.182728 1.341179-1.099495.799-2.317855 1.463104-3.65778 1.888546h-.002701c-.008105.002594-.013508.002594-.021612.005188-.002702.002594-.002702.002594-.005403.002594-.005403.002594-.010806.005188-.01891.005188-.002702.002594-.005403.002594-.008105.005189-.005403 0-.010805.002594-.016208.002594-.002702 0-.005403.002594-.010806.002594-.005403.002594-.008105.005188-.013508.005188-.005402.002594-.008104.005189-.016208.005189-.002702.002594-.008105.002594-.010806.002594-.01891.005188-.035119.010376-.051328.018159-.002701 0-.002701 0-.005403 0l-.021612.007782h-.005402c-.008105.002594-.016209.005189-.024314.007783v.002594c-.010805 0-.01891.002594-.029716.005188-.940109.272387-1.936948.428036-2.990518.428036-.832051 0-1.69922-.098578-2.598807-.30611-.008104-.370965-.016209-.739335-.024313-1.110299h-.01891s-8.687902 14.151123-5.997246 21.596352c4.651918 2.282857 9.522654 3.118176 14.120542 3.118176 10.738312 0 20.00973-4.550151 21.652219-5.870576-.961721-3.805628-2.436719-8.301301-3.873897-12.63873-.85096-2.563027-1.691115-5.07417-2.404301-7.35184-1.172434-.827535-2.547479-1.320425-4.165654-1.320425" fill="#54463f" mask="url(#w)" transform="translate(12 27)"/><path d="m154.334212 196.664812s-7.142665 15.79063-4.457412 23.235859c20.641872 6.451667 34.57061-5.956183 34.57061-5.956183s-.24043-23.069833-12.418621-20.846641c-12.175489 2.225786-17.694577 3.566965-17.694577 3.566965" fill="#3e332c" mask="url(#x)" transform="translate(12 27)"/><path d="m175.965201 180.15406-15.39023 12.822915c-1.739742.095984-5.224628-.601844-6.289004-.025942-.072939 2.145368-.818543 5.714927-3.101278 7.468577l-4.092715 2.249133c-2.30975 1.125864-2.566389 1.437163-2.174677 2.892485l6.394361-2.643446 2.793311-1.937835-3.109383 3.004033-3.509199 1.974153c-.632142.352806-.877975 1.131053-.561904 1.776998l.429533.876824c.51868.290546.904989.485108.904989.485108l5.39482-.472137 5.632549-2.747211s1.896426-.648539 6.278198-7.587908l15.838672-11.645168z" fill="#e7b48a" mask="url(#y)" transform="translate(12 27)"/><path d="m181.401761 136.02589c1.185942 6.106645 10.578926 37.215768 10.578926 37.215768.950914 3.118176-.018911 6.495768-2.485345 8.664482l-9.530759 7.816194-6.623985-8.194941 7.169681-6.711082s-6.0972-12.726931-9.790099-20.509401c-5.794636-12.22107-11.005756-22.36941-10.05214-32.092308l5.781129-3.268637c7.926089-.765276 12.899481 6.506144 14.952592 17.079925" fill="#e7e000" mask="url(#z)" transform="translate(12 27)"/><path d="m136.21872 98.3968871.434935 11.6918629-4.100819.456572s-1.453387.524019-2.277333 5.982124c-.507875 3.364621 18.848101 8.114521 21.014674-1.847039 6.178243-18.6597671-5.87568-23.6768656-5.87568-23.6768656z" fill="#e7b48a" mask="url(#A)" transform="translate(12 27)"/><path d="m145.41299 91.0038027-9.195777 7.3933457.386309 10.3299306.25934-.127114 14.425808-8.33243-.213415-3.1026109c-2.606911-4.1065496-5.662265-6.1611214-5.662265-6.1611214" fill="#d79b72" mask="url(#B)" transform="translate(12 27)"/><path d="m123.497577 77.9372678c1.050869 3.3257085-2.136857 8.9031447-1.153525 12.0654214.548397 1.7692146 4.057597 8.8901739 6.786073 12.6205708 1.204852 1.647289 2.82573 3.208971 4.884244 3.304955 1.299403.059666 2.590702-.254227 3.717212-.90536l13.815277-7.9770312-1.637086-23.4459855-22.157392-8.3739368-2.674448 2.8821077c-1.796472 1.9352407-2.566389 4.5890627-2.080126 7.1676541z" fill="#e7b48a" mask="url(#C)" transform="translate(12 27)"/><path d="m148.050642 85.9132615c.353891-1.2062827 1.288597-2.2180037 2.528568-2.5111433.559203-.1348962 1.191345-.1271137 1.839696.1686201 2.082827.9468671-.213415 7.4530113-3.447066 7.9666543-2.379988.381341-1.531729-3.533241-.921198-5.6241311" fill="#e7b48a" mask="url(#D)" transform="translate(12 27)"/><path d="m126.497644 82.2521271-.108058-.2594157z" fill="#d79b72" mask="url(#E)" transform="translate(12 27)"/><path d="m71.6758043 108.368018-.1566848.088201-.1026556.057071.0081044.007783c-.7212904.498078-1.0211527 1.416409-.6645597 2.448883l6.1701394 17.969722c.5159793 1.496828 2.1773785 2.651228 3.7145104 2.578591l6.6807157-.313893c1.6451904-.077824 2.2692282-1.133646 2.2692282-1.133646l-1.4344764-1.776997-6.0350663-17.570221c-.5159792-1.494235-2.1773784-2.648634-3.7118089-2.575998l-5.2975671.246445-.5483968-.682263.0891482.111549z" fill="#bd6b9f" mask="url(#F)" transform="translate(12 27)"/><path d="m73.694481 107.373952 6.6807157-.311298c1.5344305-.072637 3.1958297 1.081763 3.7118089 2.575997l6.1728409 17.969721c.5132778 1.494234-.316071 2.765371-1.853203 2.835413l-6.6780143.313893c-1.5398333.070042-3.1985311-1.084357-3.7145103-2.575997l-6.1728409-17.969722c-.5132778-1.494234.3160711-2.76537 1.853203-2.838007" fill="#3c3c3b" mask="url(#G)" transform="translate(12 27)"/><path d="m78.8962465 127.710585 10.5627167-.466948-5.9918429-17.173315-10.2466457.451383z" fill="#fff" mask="url(#H)" transform="translate(12 27)"/><path d="m72.8807776 118.237498 2.2260048 1.380091c1.2372696.76787 1.8829191 2.192062 1.6397875 3.61366l-.0162088.088201 1.0265556.547367c.4943676.264604.7753196.799.7050816 1.348961-.1026555.86126-.9887351 1.403439-1.8153825 1.115488l-3.9549405-1.377497z" fill="#e7b48a" mask="url(#I)" transform="translate(12 27)"/><path d="m120.128828 154.55153-3.701003 5.447729z" fill="#ecebed" mask="url(#J)" transform="translate(12 27)"/><path d="m119.682322 130.759994-2.644731 5.652666c-3.482185 7.447823-3.703705 15.97741-.607829 23.588664l3.25256-5.447728c-2.450226-5.253167-3.044548-11.165249-1.688414-16.78938z" fill="#cdd620" mask="url(#K)" transform="translate(12 27)"/><path d="m132.741148 157.224022c-3.979254 0-7.458737 1.374903-7.139965 1.771809 1.004944.339835 6.037768 1.782186 13.566743 1.782186 3.133696 0 6.699626-.249039 10.589731-.933897 0 0-10.554612-1.987123-15.217336-2.52152-.602426-.067448-1.207553-.098578-1.799173-.098578" fill="#cdd620" mask="url(#L)" transform="translate(12 27)"/><path d="m161.000149 77.5393724c-.540292 4.9496504 1.474999 9.2092552 4.500636 9.5127715 3.028339.3087046 5.921605-3.4580104 6.464599-8.4076608.540292-4.9470563-1.474998-9.2092552-4.500636-9.5127715-3.03104-.3061105-5.924306 3.4580104-6.464599 8.4076608" fill="#a3a2a2" mask="url(#M)" transform="translate(12 27)"/><path d="m17.0157157 60.3945703c1.6722051-15.5156494 14.2015862-27.9312819 30.1672272-30.1233441 4.6762308-.6381624 10.1223784 0 10.1223784 0 17.1677916 2.3554941 30.3563295 16.5273704 30.3563295 33.6643676 0 18.7816922-15.854881 34.0119844-35.4188694 34.0119844-6.2295716 0-12.078237-1.5538997-17.1677916-4.2647931l-17.7459045 4.9081439 4.4628154-17.2900524c-2.5582846-4.1273028-4.2358926-8.8149434-4.776185-13.8268535z" fill="#fff" mask="url(#N)" transform="translate(12 27)"/><path d="m17.0157157 60.3945703c1.6722051-15.5156494 14.2015862-27.9312819 30.1672272-30.1233441 4.6762308-.6381624 10.1223784 0 10.1223784 0 17.1677916 2.3554941 30.3563295 16.5273704 30.3563295 33.6643676 0 18.7816922-15.854881 34.0119844-35.4188694 34.0119844-6.2295716 0-12.078237-1.5538997-17.1677916-4.2647931l-17.7459045 4.9081439 4.4628154-17.2900524c-2.5582846-4.1273028-4.2358926-8.8149434-4.776185-13.8268535z" mask="url(#O)" stroke="#fff" stroke-width="2.61" transform="translate(12 27)"/><g fill="#4ead33"><path d="m25.8818668 90.1212447 10.1061696-2.7965006c4.7329616 3.1337409 10.4708671 4.975592 16.6572153 4.975592 16.24119 0 29.4081162-12.6439183 29.4081162-28.2347982 0-15.5986624-13.1669262-28.2373923-29.4081162-28.2373923-16.2411901 0-29.4027134 12.6387299-29.4027134 28.2373923 0 5.9613714 1.9315454 11.494707 5.2192248 16.0578281zm31.423407-59.8497821c17.1677915 2.355494 30.3590309 16.5247762 30.3590309 33.6643675 0 18.7816923-15.8575825 34.0119844-35.4215709 34.0119844-6.2295716 0-12.078237-1.5538996-17.1677916-4.2647931l-17.7459044 4.9081439 4.4628154-17.2900523c-2.5582846-4.1273028-4.2358926-8.8149434-4.776185-13.8294478v-7.0768586c1.672205-15.5156494 14.2015862-27.933876 30.1672271-30.123344 4.6762309-.6407567 10.1223785 0 10.1223785 0z" mask="url(#P)" transform="translate(12 27)"/><path d="m39.5453225 48.4045927s-6.9481605 3.2063773-4.8086025 9.6269143c0 0 4.1440428 18.0942409 24.9912258 21.8142611 0 0 7.4857514 1.0298801 9.4902363-3.3360851.4322339-.9416787.7266933-2.2646985.6537538-3.2893903-.0729395-.9935619-.8023342-1.6524776-1.6559962-2.1246141-1.0967937-.6044384-2.0747229-1.1699645-3.3254999-1.7614322-1.0859877-.5136429-2.3340632-1.2737307-3.5875416-.9442729-.9130942.2438507-1.572251 1.0480392-2.1908858 1.6887958-.8104386.8223476-1.6397875 1.6369127-2.4583305 2.454072 0 0-10.5600153-3.7226144-13.3641329-11.2923628.4106222-.4539774.8212444-.9079547 1.2318667-1.3593379.6888728-.7678703 1.7208313-1.5097991 1.7748606-2.6175038.0513278-1.06101-.3430857-2.1194258-.7347977-3.0818578-.251236-.6200034-.5078749-1.2400068-.7591109-1.8626043-.4457412-1.1336464-1.0238541-2.7160818-1.672205-3.3801858-.5510983-.5603378-1.3480296-.8431008-2.1584682-.8431008-.4862632 0-.9779293.1011721-1.426372.3087046" mask="url(#Q)" transform="translate(12 27)"/></g></g></svg>