<svg height="250" viewBox="0 0 250 250" width="250" xmlns="http://www.w3.org/2000/svg" xmlns:xlink="http://www.w3.org/1999/xlink"><mask id="a" fill="#fff"><path d="m3.69041142.25195744-3.24889493 82.73202496 76.74681231 101.7728086 97.7771592-7.57872v-176.92611356z" fill="#fff" fill-rule="evenodd"/></mask><mask id="b" fill="#fff"><path d="m3.69041142.25195744-3.24889493 82.73202496 76.74681231 101.7728086 97.7771592-7.57872v-176.92611356" fill="#fff" fill-rule="evenodd"/></mask><mask id="c" fill="#fff"><path d="m3.69041142.25195744-3.24889493 82.73202496 76.74681231 101.7728086 97.7771592-7.57872v-176.92611356" fill="#fff" fill-rule="evenodd"/></mask><mask id="d" fill="#fff"><path d="m3.69041142.25195744-3.24889493 82.73202496 76.74681231 101.7728086 97.7771592-7.57872v-176.92611356" fill="#fff" fill-rule="evenodd"/></mask><mask id="e" fill="#fff"><path d="m3.69041142.25195744-3.24889493 82.73202496 76.74681231 101.7728086 97.7771592-7.57872v-176.92611356" fill="#fff" fill-rule="evenodd"/></mask><mask id="f" fill="#fff"><path d="m3.69041142.25195744-3.24889493 82.73202496 76.74681231 101.7728086 97.7771592-7.57872v-176.92611356" fill="#fff" fill-rule="evenodd"/></mask><mask id="g" fill="#fff"><path d="m3.69041142.25195744-3.24889493 82.73202496 76.74681231 101.7728086 97.7771592-7.57872v-176.92611356" fill="#fff" fill-rule="evenodd"/></mask><mask id="h" fill="#fff"><path d="m3.69041142.25195744-3.24889493 82.73202496 76.74681231 101.7728086 97.7771592-7.57872v-176.92611356" fill="#fff" fill-rule="evenodd"/></mask><mask id="i" fill="#fff"><path d="m3.69041142.25195744-3.24889493 82.73202496 76.74681231 101.7728086 97.7771592-7.57872v-176.92611356" fill="#fff" fill-rule="evenodd"/></mask><mask id="j" fill="#fff"><path d="m3.69041142.25195744-3.24889493 82.73202496 76.74681231 101.7728086 97.7771592-7.57872v-176.92611356" fill="#fff" fill-rule="evenodd"/></mask><mask id="k" fill="#fff"><path d="m3.69041142.25195744-3.24889493 82.73202496 76.74681231 101.7728086 97.7771592-7.57872v-176.92611356" fill="#fff" fill-rule="evenodd"/></mask><mask id="l" fill="#fff"><path d="m3.69041142.25195744-3.24889493 82.73202496 76.74681231 101.7728086 97.7771592-7.57872v-176.92611356" fill="#fff" fill-rule="evenodd"/></mask><mask id="m" fill="#fff"><path d="m3.69041142.25195744-3.24889493 82.73202496 76.74681231 101.7728086 97.7771592-7.57872v-176.92611356" fill="#fff" fill-rule="evenodd"/></mask><mask id="n" fill="#fff"><path d="m3.69041142.25195744-3.24889493 82.73202496 76.74681231 101.7728086 97.7771592-7.57872v-176.92611356" fill="#fff" fill-rule="evenodd"/></mask><mask id="o" fill="#fff"><path d="m3.69041142.25195744-3.24889493 82.73202496 76.74681231 101.7728086 97.7771592-7.57872v-176.92611356z" fill="#fff" fill-rule="evenodd"/></mask><mask id="p" fill="#fff"><path d="m3.69041142.25195744-3.24889493 82.73202496 76.74681231 101.7728086 97.7771592-7.57872v-176.92611356" fill="#fff" fill-rule="evenodd"/></mask><mask id="q" fill="#fff"><path d="m3.69041142.25195744-3.24889493 82.73202496 76.74681231 101.7728086 97.7771592-7.57872v-176.92611356" fill="#fff" fill-rule="evenodd"/></mask><mask id="r" fill="#fff"><path d="m3.69041142.25195744-3.24889493 82.73202496 76.74681231 101.7728086 97.7771592-7.57872v-176.92611356" fill="#fff" fill-rule="evenodd"/></mask><mask id="s" fill="#fff"><path d="m3.69041142.25195744-3.24889493 82.73202496 76.74681231 101.7728086 97.7771592-7.57872v-176.92611356" fill="#fff" fill-rule="evenodd"/></mask><mask id="t" fill="#fff"><path d="m3.69041142.25195744-3.24889493 82.73202496 76.74681231 101.7728086 97.7771592-7.57872v-176.92611356" fill="#fff" fill-rule="evenodd"/></mask><mask id="u" fill="#fff"><path d="m3.69041142.25195744-3.24889493 82.73202496 76.74681231 101.7728086 97.7771592-7.57872v-176.92611356" fill="#fff" fill-rule="evenodd"/></mask><mask id="v" fill="#fff"><path d="m3.69041142.25195744-3.24889493 82.73202496 76.74681231 101.7728086 97.7771592-7.57872v-176.92611356" fill="#fff" fill-rule="evenodd"/></mask><mask id="w" fill="#fff"><path d="m3.69041142.25195744-3.24889493 82.73202496 76.74681231 101.7728086 97.7771592-7.57872v-176.92611356" fill="#fff" fill-rule="evenodd"/></mask><mask id="x" fill="#fff"><path d="m3.69041142.25195744-3.24889493 82.73202496 76.74681231 101.7728086 97.7771592-7.57872v-176.92611356z" fill="#fff" fill-rule="evenodd"/></mask><mask id="y" fill="#fff"><path d="m3.69041142.25195744-3.24889493 82.73202496 76.74681231 101.7728086 97.7771592-7.57872v-176.92611356z" fill="#fff" fill-rule="evenodd"/></mask><mask id="z" fill="#fff"><path d="m3.69041142.25195744-3.24889493 82.73202496 76.74681231 101.7728086 97.7771592-7.57872v-176.92611356" fill="#fff" fill-rule="evenodd"/></mask><mask id="A" fill="#fff"><path d="m3.69041142.25195744-3.24889493 82.73202496 76.74681231 101.7728086 97.7771592-7.57872v-176.92611356" fill="#fff" fill-rule="evenodd"/></mask><mask id="B" fill="#fff"><path d="m3.69041142.25195744-3.24889493 82.73202496 76.74681231 101.7728086 97.7771592-7.57872v-176.92611356" fill="#fff" fill-rule="evenodd"/></mask><mask id="C" fill="#fff"><path d="m3.69041142.25195744-3.24889493 82.73202496 76.74681231 101.7728086 97.7771592-7.57872v-176.92611356z" fill="#fff" fill-rule="evenodd"/></mask><mask id="D" fill="#fff"><path d="m3.69041142.25195744-3.24889493 82.73202496 76.74681231 101.7728086 97.7771592-7.57872v-176.92611356z" fill="#fff" fill-rule="evenodd"/></mask><mask id="E" fill="#fff"><path d="m3.69041142.25195744-3.24889493 82.73202496 76.74681231 101.7728086 97.7771592-7.57872v-176.92611356" fill="#fff" fill-rule="evenodd"/></mask><mask id="F" fill="#fff"><path d="m3.69041142.25195744-3.24889493 82.73202496 76.74681231 101.7728086 97.7771592-7.57872v-176.92611356z" fill="#fff" fill-rule="evenodd"/></mask><mask id="G" fill="#fff"><path d="m3.69041142.25195744-3.24889493 82.73202496 76.74681231 101.7728086 97.7771592-7.57872v-176.92611356z" fill="#fff" fill-rule="evenodd"/></mask><mask id="H" fill="#fff"><path d="m3.69041142.25195744-3.24889493 82.73202496 76.74681231 101.7728086 97.7771592-7.57872v-176.92611356" fill="#fff" fill-rule="evenodd"/></mask><mask id="I" fill="#fff"><path d="m3.69041142.25195744-3.24889493 82.73202496 76.74681231 101.7728086 97.7771592-7.57872v-176.92611356z" fill="#fff" fill-rule="evenodd"/></mask><mask id="J" fill="#fff"><path d="m3.69041142.25195744-3.24889493 82.73202496 76.74681231 101.7728086 97.7771592-7.57872v-176.92611356z" fill="#fff" fill-rule="evenodd"/></mask><mask id="K" fill="#fff"><path d="m3.69041142.25195744-3.24889493 82.73202496 76.74681231 101.7728086 97.7771592-7.57872v-176.92611356" fill="#fff" fill-rule="evenodd"/></mask><mask id="L" fill="#fff"><path d="m3.69041142.25195744-3.24889493 82.73202496 76.74681231 101.7728086 97.7771592-7.57872v-176.92611356" fill="#fff" fill-rule="evenodd"/></mask><mask id="M" fill="#fff"><path d="m3.69041142.25195744-3.24889493 82.73202496 76.74681231 101.7728086 97.7771592-7.57872v-176.92611356" fill="#fff" fill-rule="evenodd"/></mask><mask id="N" fill="#fff"><path d="m3.69041142.25195744-3.24889493 82.73202496 76.74681231 101.7728086 97.7771592-7.57872v-176.92611356" fill="#fff" fill-rule="evenodd"/></mask><mask id="O" fill="#fff"><path d="m3.69041142.25195744-3.24889493 82.73202496 76.74681231 101.7728086 97.7771592-7.57872v-176.92611356" fill="#fff" fill-rule="evenodd"/></mask><mask id="P" fill="#fff"><path d="m3.69041142.25195744-3.24889493 82.73202496 76.74681231 101.7728086 97.7771592-7.57872v-176.92611356" fill="#fff" fill-rule="evenodd"/></mask><mask id="Q" fill="#fff"><path d="m3.69041142.25195744-3.24889493 82.73202496 76.74681231 101.7728086 97.7771592-7.57872v-176.92611356z" fill="#fff" fill-rule="evenodd"/></mask><mask id="R" fill="#fff"><path d="m3.69041142.25195744-3.24889493 82.73202496 76.74681231 101.7728086 97.7771592-7.57872v-176.92611356" fill="#fff" fill-rule="evenodd"/></mask><mask id="S" fill="#fff"><path d="m3.69041142.25195744-3.24889493 82.73202496 76.74681231 101.7728086 97.7771592-7.57872v-176.92611356z" fill="#fff" fill-rule="evenodd"/></mask><mask id="T" fill="#fff"><path d="m3.69041142.25195744-3.24889493 82.73202496 76.74681231 101.7728086 97.7771592-7.57872v-176.92611356" fill="#fff" fill-rule="evenodd"/></mask><mask id="U" fill="#fff"><path d="m3.69041142.25195744-3.24889493 82.73202496 76.74681231 101.7728086 97.7771592-7.57872v-176.92611356z" fill="#fff" fill-rule="evenodd"/></mask><mask id="V" fill="#fff"><path d="m3.69041142.25195744-3.24889493 82.73202496 76.74681231 101.7728086 97.7771592-7.57872v-176.92611356" fill="#fff" fill-rule="evenodd"/></mask><mask id="W" fill="#fff"><path d="m3.69041142.25195744-3.24889493 82.73202496 76.74681231 101.7728086 97.7771592-7.57872v-176.92611356z" fill="#fff" fill-rule="evenodd"/></mask><mask id="X" fill="#fff"><path d="m3.69041142.25195744-3.24889493 82.73202496 76.74681231 101.7728086 97.7771592-7.57872v-176.92611356z" fill="#fff" fill-rule="evenodd"/></mask><mask id="Y" fill="#fff"><path d="m3.69041142.25195744-3.24889493 82.73202496 76.74681231 101.7728086 97.7771592-7.57872v-176.92611356" fill="#fff" fill-rule="evenodd"/></mask><mask id="Z" fill="#fff"><path d="m3.69041142.25195744-3.24889493 82.73202496 76.74681231 101.7728086 97.7771592-7.57872v-176.92611356z" fill="#fff" fill-rule="evenodd"/></mask><mask id="aa" fill="#fff"><path d="m3.69041142.25195744-3.24889493 82.73202496 76.74681231 101.7728086 97.7771592-7.57872v-176.92611356z" fill="#fff" fill-rule="evenodd"/></mask><mask id="ab" fill="#fff"><path d="m3.69041142.25195744-3.24889493 82.73202496 76.74681231 101.7728086 97.7771592-7.57872v-176.92611356z" fill="#fff" fill-rule="evenodd"/></mask><mask id="ac" fill="#fff"><path d="m3.69041142.25195744-3.24889493 82.73202496 76.74681231 101.7728086 97.7771592-7.57872v-176.92611356z" fill="#fff" fill-rule="evenodd"/></mask><mask id="ad" fill="#fff"><path d="m3.69041142.25195744-3.24889493 82.73202496 76.74681231 101.7728086 97.7771592-7.57872v-176.92611356" fill="#fff" fill-rule="evenodd"/></mask><mask id="ae" fill="#fff"><path d="m3.69041142.25195744-3.24889493 82.73202496 76.74681231 101.7728086 97.7771592-7.57872v-176.92611356" fill="#fff" fill-rule="evenodd"/></mask><mask id="af" fill="#fff"><path d="m3.69041142.25195744-3.24889493 82.73202496 76.74681231 101.7728086 97.7771592-7.57872v-176.92611356z" fill="#fff" fill-rule="evenodd"/></mask><mask id="ag" fill="#fff"><path d="m3.69041142.25195744-3.24889493 82.73202496 76.74681231 101.7728086 97.7771592-7.57872v-176.92611356z" fill="#fff" fill-rule="evenodd"/></mask><mask id="ah" fill="#fff"><path d="m3.69041142.25195744-3.24889493 82.73202496 76.74681231 101.7728086 97.7771592-7.57872v-176.92611356z" fill="#fff" fill-rule="evenodd"/></mask><mask id="ai" fill="#fff"><path d="m3.69041142.25195744-3.24889493 82.73202496 76.74681231 101.7728086 97.7771592-7.57872v-176.92611356" fill="#fff" fill-rule="evenodd"/></mask><g fill="none" fill-rule="evenodd"><path d="m-14.7330717 100.590217s16.62767769 2.503577 31.091508 12.207937c2.9760711 1.995663-11.45443724 9.032475-16.12576502 7.968654-6.98095886-1.591731 4.20065454-.935842-12.74358208-4.803188z" fill="#5f4b40" mask="url(#a)" transform="translate(38 84)"/><path d="m-55.4517961 152.504024s32.3390003-8.40458 37.8683696-7.842675c2.6511815.271954 8.75327266-1.001831 13.55164056 6.694869 0 0 3.16975519 19.854646 5.61267426 27.111421.93093336 2.767532 2.7365692 27.261395 1.85353622 27.993271-1.75773547 1.473751-3.8216168 3.25745-5.57935226 4.463246-12.76440838 8.854504-26.18276098 11.508056-26.67634308 10.306259-.7851496-1.89568-24.8769551-13.43773-26.7054998-18.744833-.7122578-2.079649 6.1333305-6.27494 4.1485889-7.488735-9.8404029-.139977-.9059419-13.277758-4.0944407-16.267253-6.641491-6.232947-4.7983679-18.900807.0208263-26.22557" fill="#000" mask="url(#b)" transform="translate(38 84)"/><path d="m-7.07233194 84.7171045c-1.45367223 1.805695-2.14302109 3.5573991-1.88061034 4.1872927.26865862.6338929 2.01181571 3.5474007.22908874 3.6533828-1.78689216.0959838-1.72441346 2.8955109.17702313 2.8955109.67060523-.0079986-1.09754336 2.101645-3.11144169 2.2256241-.8871982.0499915-.9392639.5539064-1.0288167 1.0638203-.1145444.6478905-.2915675 1.3037797-2.3137964 1.0578213-3.6112716-.4359264-3.309291.8398584-4.7213107-3.8233542-1.4099371-4.6512143-.483169-15.0354602.3644593-15.729343.8538763-.6978821 5.5543608-10.8721635 9.0427576-8.9164938 3.49256205 1.9556696 3.24264706 13.3857389 3.24264706 13.3857389" fill="#c6c6c6" mask="url(#c)" transform="translate(38 84)"/><path d="m-18.0279766 90.0233981c-1.8577014 3.1514677-.8351326 9.3944132-.466508 15.8973149.2270062 4.079311-8.0326844 1.827691-9.8987164 1.249789-1.8764451-.567904-10.7755015-12.6098703-10.7755015-12.6098703s5.8688371-8.4565715 6.6019211-15.563371c.283237-2.7695322 14.5388048 11.0261374 14.5388048 11.0261374" fill="#dba89d" mask="url(#d)" transform="translate(38 84)"/><path d="m-37.0797239 77.9136273c-1.982659 2.7195406.1603621 5.6590441.4061119 7.4347441.2436671 1.7876981-1.5598861 2.8315217-.9788338 3.6853775 1.6952568 2.4975781-6.5873427 9.4644013-6.1291652 10.0623003 1.7410745 2.2516198-14.5221438 2.4355888-12.6790207.7258774 4.6442536-4.2972741 3.0864501-3.5613984 3.0864501-3.5613984s-7.2058823.8338591-3.3905134-1.077818c1.4432591-.7198784 6.0937606-4.7811923 6.0500255-5.984989-.3207242-8.6825333 2.9427491-7.624712 4.0257141-8.8924979 2.2450697-2.6235568 3.2197381-5.3850903 4.8046157-8.9124945 1.6036212-3.5254045 4.8046158 6.5208985 4.8046158 6.5208985" fill="#bec4d3" mask="url(#e)" transform="translate(38 84)"/><path d="m-29.101328 102.102565c3.0864501 3.233454 5.4127422 3.997325 6.6373257 5.259112 1.2308313 1.257787 2.2638133 6.27294 2.5616287 8.004647.299898 1.729708-5.8480109 2.223625-9.9216253-.853855-4.0652839-3.069482-12.6456987-11.738018-12.8872832-15.0954504-.2436672-3.3634319 13.6099541 2.6855464 13.6099541 2.6855464" fill="#fff" mask="url(#f)" transform="translate(38 84)"/><path d="m-19.4391889 117.068025c-.2145103-4.175295-3.1905814-8.712528-2.2825569-9.340422.9017766-.627894 2.0243114-6.794852 1.7514876-8.3705863-.2728239-1.5797331 4.8066984 4.4052563 5.408577 6.9028343.6018786 2.495578-4.8775077 10.808174-4.8775077 10.808174" fill="#fff" mask="url(#g)" transform="translate(38 84)"/><path d="m-35.1188736 73.9836882c-.0416525-7.0788043-1.643191-13.9096504 9.6925366-14.1036177 2.5720418-.0479919 4.62551.171971 6.29161.6198953.6518616-.2359601 1.316219-.4339267 1.9784937-.5839014 2.5970333.3839352 4.1027712 2.0036616 5.5293693 5.2331161 2.12844267 5.0311501 1.1100391 12.7598446-.1478664 17.4710488-1.4474244 4.8651782-1.6015386 7.4347441-4.8337725 11.082128-1.4744985.9138456-3.1135243 2.2756156-6.108339 2.2538825-8.0389324-.0862487-11.5939732-6.5951492-12.5873853-12.6781216-1.5182336-.6658876-3.0156409-3.3174397-3.2072424-5.4670766-.2519976-2.8095254.783067-5.227117 3.392596-3.8273534" fill="#dba89d" mask="url(#h)" transform="translate(38 84)"/><path d="m-15.2206783 71.3425631c3.1405984-1.4797501 6.88099284 4.2472825 5.81468887 5.5130687-1.05380827 1.2617869-1.38286297 1.7317075-.36237675 2.7855295 1.02048623 1.0438237 1.06213873 1.4057625.20409725 1.7757001-.85595887.3759364-.23533662 3.1994595-.23533662 3.1994595s3.62585005 1.2037967 2.5699592 2.4675832c-1.05380823 1.2657862-3.43424855 1.7617024-1.95975009 1.6057287 1.49115947-.1579733 5.75429276-.8918493 5.49812989-3.1734639-.26241075-2.2736159-1.73482659-2.3356055-1.07255185-4.4272522.66643998-2.0816483.95384223-.5599054.62895273-3.4134234-.32905474-2.8455193-1.41410234-3.1654653-1.87436246-4.5592298-.45817749-1.3917649 1.54947297-1.5317413-.40402924-5.5070698-.9934121-2.0216585-1.57654709-1.9896639-3.75289013-5.2311163-2.16593-3.2214559-9.6612972-5.1011384-10.9816814-2.2256241 3.1822509 6.8708394 5.9271506 11.1901098 5.9271506 11.1901098" fill="#bec4d3" mask="url(#i)" transform="translate(38 84)"/><path d="m-10.5099852 152.143093s-50.4328459 17.613025-49.749745 13.507718c1.8368753-11.014139 4.1048538-20.83648 4.6338406-25.289728.6393658-5.425083-10.5651564-32.918439.3394678-39.587313 3.8549388-2.3636005 9.9007991-7.4567402 14.4929871-9.6963619 0 0 6.1708178 9.4404049 8.6887113 13.6476949 2.2388219 3.733369 6.424898 10.380246 14.0223139 7.964654 1.6973393 3.049485 7.5724243 39.453336 7.5724243 39.453336" fill="#693c11" mask="url(#j)" transform="translate(38 84)"/><path d="m-11.0152606 102.535872c-5.2981979-2.8675157-6.324932-4.8331836-6.4061544-5.0091539 3.6779157 14.4615569-3.2239034 14.8294949-3.1031112 15.6733529.9580075 6.800851 6.5394424 8.146623 3.8278647 28.759142 0 0 2.5366372 11.324087 2.9677406 11.304117 2.0076504-.080013 7.3620792-.565931 10.19028389-3.197487l-.78931486-1.577733.0083305-.002-.07705712-.131978-1.84312309-3.689376-.18327099.049991c-6.44780683-12.563878.76015811-11.640034-.78514961-23.715994-.32072425-2.455585-2.40959708-11.967978-2.40959708-11.967978s.12912275-5.665043-1.39744134-6.494903" fill="#693c11" mask="url(#k)" transform="translate(38 84)"/><path d="m-19.1705983 95.1837217c1.1995919 1.0958149 4.4713957 7.3747543 4.7192281 7.8226783.2478324.447925 1.7452397 6.196953 1.7452397 6.196953s-2.5657939-6.066975-4.7233934-4.91117c-2.1617647 1.153805-2.4908194.233961-2.4908194.233961s-1.082965-6.3009361-.4290208-7.3747547c.6560269-1.0758183 1.1787658-1.9676676 1.1787658-1.9676676" fill="#fff" mask="url(#l)" transform="translate(38 84)"/><path d="m-15.2206783 71.3425631c-2.3221268-.6178956-5.4356512-2.2336227-8.8490735.0679885-4.9816389 3.3674312-5.3315199 5.8990036-5.3315199 5.8990036s-1.0787997 2.2576186-1.976411 2.3676c-.6914315.0839858-1.7598181-2.9974936-3.198912-1.2417902-1.4432591 1.7617024-.1874362 5.4650768-1.0308993 7.2267792-.9767511 2.0376558-3.0614587 1.7776998-3.0031452 2.6195576.2728239 4.0033237-2.7136603 3.9913257-3.0343846 4.1692957-1.6140343.9038473-.2686586.3139469-3.9486569 3.4614153-1.482829 1.2797838-6.491542.9518392-6.491542.9518392 6.0854301.8078635 11.3877933-12.0259686 11.5419075-14.6255295.149949-2.6195575-2.0930381-2.2456206-2.4387538-5.2311163-.3436331-2.9974937.6581095-5.1391319 1.7431571-7.4147476 1.0954607-2.2776152 2.2575654-5.2571119 6.0146209-7.8046816 3.7633033-2.5655666 8.6449762-5.8210167 15.2677235-3.0534842 2.0513856.8478568 4.7358892 12.6078703 4.7358892 12.6078703" fill="#bec4d3" mask="url(#m)" transform="translate(38 84)"/><path d="m-31.8496455 140.475264c-.7289188-.913846.7143403-3.507407 1.2495749-5.643047 0 0 5.5106257-3.617389 10.0424176-4.43725 1.0600561-.193967 1.7993879.023996 4.0798623.283952 1.7119177.193967 1.9722458 1.113812.3123937 1.395764-1.3932761.23796-2.9719058.075987-2.9719058.075987l-2.3137963.697882s1.9035192-.337943 2.4220928-.41193c.5123257-.073988 3.2134903.257956 3.9174175.243959.9975774-.039994 1.6661.971836.1582795 1.333774-1.5015726.373937-2.45958.225962-3.2488949.351941-1.1142043.159973-3.0260541.635893-3.0260541.635893 2.2971354-.24196 5.5022952-.893849 6.424898-.515913.9121898.379936.7143404 1.491748-.9975773 1.469751-3.082285-.05599-5.1211748.857856-5.1211748.857856l4.1964893-.631894s1.6119517.577903-.3707072 1.12381c-5.0107957 1.36377-8.757438 3.187462-10.4839341 3.149468-1.4286807-.037993-3.7487249.689884-4.2693811.019997" fill="#d9a799" mask="url(#n)" transform="translate(38 84)"/><path d="m-34.8748159 143.000045c-.5435652-1.555737-.3394679-7.786685 1.8847755-9.428407 1.482829.245958 2.8511136-.007999 2.8511136-.007999s1.9743285 2.423591.3353026 9.822341z" fill="#f0f0f0" mask="url(#o)" transform="translate(38 84)"/><path d="m-13.7136226 99.8153537c-.3144764.0499916-.7289187.0519912-1.2891448-.0159973-.1062139-.011998-.2082625-.0239959-.3082285-.0339943-1.6306954-1.3097787-2.0597161-2.1256409-2.1096991-2.237622.0249915.0879852.0458177.1759703.066644.2619558-.6768531-1.1278095-1.3245495-2.1156427-1.749405-2.5435704 0-.0179969 0-.0399932-.0020826-.0619895.9767511-.4519237 1.7577355-1.0258267 2.4970673-1.4817497 3.232234-3.6473839 3.3884308-6.2169498 4.8337725-11.082128.6643574-2.4855802 1.2620708-5.8150178 1.3641194-9.1424557.98716423 1.3177774 1.48907684 2.8075258 1.00382523 3.3774295-1.05172563 1.2617869-1.38286293 1.7337071-.36237675 2.7835298 1.02048623 1.0438237 1.06213873 1.4057625.20409725 1.7776997-.85387623.3759365-.23533662 3.1994596-.23533662 3.1994596s1.23916185.4119304 2.05763346 1.0038304c-.033322.0479919-.06456138.0939841-.0916355.1399764-.67477049 1.0218274-1.07255185 1.9516703-1.15585685 2.5795642-.65602686.325945-1.00590786.4339267-.199932.3499409.06039613-.005999.12079225-.011998.183271-.0239959.01041312.0939841.02915675.1739706.05414825.2399594.26241074.6138963 1.91809758 3.3894275.36445936 3.6353859-.04165249.0099984-.08747024.011998-.13537062.0159973-.0583135.0039994-.11454437.0079987-.16869262.017997-1.61195169.2559568-1.49324209 2.8795136.34571574 2.8815133.63520062-.011998-.92468548 1.8876811-2.80529583 2.1876304-.1020486.0159973-.2040972.0279953-.3061459.0359939-.0687266.0039994-.1374532.011998-.1999319.0219963-.6976794.1099815-.7455798.5719034-.8309674 1.0398244-.0812224.4679209-.1978494.9418409-1.0246515 1.0738186" fill="#bec4d3" mask="url(#p)" transform="translate(38 84)"/><path d="m-30.7985451 109.816441s-11.3086536-13.7336798-11.6085516-15.4633876c-.0728918-.4219287.1416185-.9398413.5102432-1.485749 2.5720418 3.9833271 6.4832115 5.4690761 7.6952992 5.2771086.0229089-.0039994.049983-.0099984.0749745-.0159973-.0041653.0019996-.0041653.0019996-.0083305.0019996-.899694.1439757-6.4144849-5.8670089-2.8969313-6.5748894.1020486-.0219962.2020146-.0519912.3019806-.0879851 1.9889068 3.01949 5.2773716 7.0248134 7.6057463 9.4763992 1.2433271 1.309779 2.2096651 2.173633 2.5616287 2.211626-.2540802.157974-.5081605.373937-.7601581.629894-1.0371472 1.061821-2.0055678 2.831522-2.6532642 4.177294-.5102431 1.055822-.8226368 1.853687-.8226368 1.853687" fill="#fff" mask="url(#q)" transform="translate(38 84)"/><path d="m-12.7051054 109.204759s-1.7952227-4.249282-3.6466763-4.961162c-.2290888-.085986-.4623428-.11998-.6893489-.081986-.133288.019996-.2603281.05999-.3873682.131977-.6352006.337943-1.1142044.497916-1.4682506.553907-.8580415.135977-1.0246515-.321946-1.0246515-.321946s-.1312054-.76787-.2728239-1.809694c-.2728238-1.947671-.5810523-4.8651782-.1541142-5.56506.5727219-.9338423 1.0371472-1.7297078 1.149609-1.9216754.0208262-.0299949.0291567-.0439926.0291567-.0439926.0062479.0039994.0145784.0139977.0229089.017997.0145784.0139976.0270741.0299949.0437351.0439926.4248555.425928 1.0725519 1.4157608 1.7473224 2.5435703 1.3162189 2.1916298 2.742817 4.9251681 2.9031792 5.2151191.2478323.447924 1.7473223 6.198953 1.7473223 6.198953" fill="#fff" mask="url(#r)" transform="translate(38 84)"/><path d="m-34.2012423 98.1436085c-1.2120878.1939672-5.1232574-1.2937815-7.6952993-5.2771086-.0437351-.0679885-.0853876-.1299781-.1249575-.1979666.1041313-.0619895.2270062-.1339773.3769552-.2179632.3207242-.1779699 3.3072084-.1659719 3.0343845-4.167296-.0603961-.8438575 2.0263941-.5839014 3.0010626-2.6215572.33322-.6898835.3394679-1.6757169.3144764-2.7275393l.1082965.9378416c.2332539.2279615.4311033 1.047823.4873342 2.0796487.0104131.1339774.0124957.2759534.016661.4179294.0374872 1.9896639-.4352686 4.5072387-2.049303 5.097139-.0978833.0379936-.1978493.0659889-.299898.0899848-3.5175535.7058808 1.9972374 6.7168654 2.8969314 6.5728898.0041652 0 .0041652 0 .0083305-.0019997-.0249915.0079986-.0520657.011998-.0749745.0159973" fill="#c6c6c6" mask="url(#s)" transform="translate(38 84)"/><path d="m-60.378455 105.465797c-3.1739204 4.26128-5.3044458 29.531011.0062479 40.537152 1.7410745 3.601392 29.2858721.70988 29.2858721.70988s1.4182676-12.871825-.9788337-13.225765c-10.25068-1.521743-16.359019-1.763703-16.359019-1.763703s4.5172135-7.998648 4.1985719-16.69318c-.6435311-17.4790472-12.5977984-14.339578-16.1528392-9.564384" fill="#634e42" mask="url(#t)" transform="translate(38 84)"/><path d="m-38.0849361 89.1313368c1.8826929 4.0653133 10.317324 13.8876542 11.5231638 14.0236312-2.1305253 1.313778-4.2360591 6.660875-4.2360591 6.660875s-11.3107362-13.7336803-11.6085515-15.4653878c-.299898-1.7297078 4.3214468-5.2191184 4.3214468-5.2191184" fill="#f8f8f8" mask="url(#u)" transform="translate(38 84)"/><path d="m-36.999134 81.0845089c.0687266.9478399.299898-.2159635.5477304-1.3857659.2186756-1.0278264.4519296-2.0616518.6039612-1.6437224l.6601921 5.8170174c.7226709.7018815 1.082965 7.0908023-1.8452057 7.6827023-3.5238014.7078804 2.0138983 6.7388617 2.9052618 6.5728897-1.2141703.2939503-5.8625892-1.4577538-8.4179701-6.3789225-.8705372-1.6677183 1.716083-5.3370985 2.0138984-7.2947678.3061458-1.9556696 3.5321319-3.3694308 3.5321319-3.3694308" fill="#bec4d3" mask="url(#v)" transform="translate(38 84)"/><path d="m16.3598681 112.797536c.6768531 2.215626 1.1287828 3.349434.0479004 5.897004-1.8139663 4.289275-14.83037232 14.055625-18.91439986 16.51721l-9.92370794 5.639047-4.0777797-3.779362 20.33475013-20.220584c1.98057634-1.965668 4.42141279-3.485411 7.15798197-4.243283 1.8514536-.509914 3.8486909-.673886 5.375255.189968" fill="#d9a799" mask="url(#w)" transform="translate(38 84)"/><path d="m-10.3851599 151.267234c.76640596-.845857.95800746-1.991664.59979596-3.029489-.13745324-.397932-.27074126-.809863-.35196366-1.12181-.2270061-.863854-2.8073784 1.559736-2.6241074 2.025658.0687266.167971 1.9868242 2.547569 2.3616967 2.141638z" fill="#cf9f94" mask="url(#x)" transform="translate(38 84)"/><path d="m-18.4738901 154.016373-.5456478-7.078805 2.5116457-9.870332s4.4568175-.29795 5.3231894 4.179294c.5185737 2.671549.0437352 5.013153-.4206902 6.484904l1.5702992 2.797528c.22700613.403932.18951889.897848-.0937181 1.269785l-2.1138643 2.745537c-.616457.41193-1.4515896.34994-1.9972374-.145976l-1.9576674-2.197629c-.0812224.571904-.0853877 1.911678-.0853877 1.911678s-.1749405.315946 1.0517256 2.761533c1.2225009 2.443587-.5456477 3.001493-.5456477 3.001493z" fill="#d9a799" mask="url(#y)" transform="translate(38 84)"/><path d="m13.5018519 110.988852c1.5890429.901848 3.4300833.151974 3.7341466 5.179125.2811543 4.621219.8788677 5.309103-3.2051599 7.768688l-16.81303123 11.786009s.21659299-4.213288-8.21803807-5.029151c4.35476877-3.42942 11.10247363-10.684195 11.10247363-10.684195 1.97849371-1.969667 7.6182421-6.946826 10.35689387-7.702699" fill="#634e42" mask="url(#z)" transform="translate(38 84)"/><path d="m-6.264781 134.256527c-.06247875.583901-.77681911 1.037825-1.82437946 1.255788-.69351411.143975-1.53072934.185968-2.42209284.097983-2.2429871-.221962-3.975731-1.191798-3.8695172-2.163634.1041313-.971836 2.0076505-1.577734 4.248555-1.353772 2.24090441.223963 3.97156575 1.191799 3.8674345 2.163635" fill="#282827" mask="url(#A)" transform="translate(38 84)"/><path d="m-6.09025432 133.727197c-.10413125.971836-2.00765046 1.577734-4.24855488 1.353772-2.2409045-.221963-3.9736485-1.191799-3.8674346-2.163635.1041313-.971836 2.0076505-1.577733 4.24855494-1.353771 2.24090445.223962 3.97156579 1.193798 3.86743454 2.163634" fill="#fff" mask="url(#B)" transform="translate(38 84)"/><path d="m-6.94331187 137.850128s1.01632098-1.24379.28531962-1.697714c-.73308399-.451923-1.29122748-.849856-1.29122748-.849856l1.50782047-.757872s1.12253486.287951 1.40368923.865854c.64144848 1.309778-.16869263 1.571734-.16869263 1.571734z" fill="#cecece" mask="url(#C)" transform="translate(38 84)"/><path d="m-6.6840007 137.808509s1.01423836-1.24579.28531962-1.695714c-.73308398-.453923-1.29122747-.851856-1.29122747-.851856l1.50573784-.757872s1.12461748.287951 1.40577185.865854c.63936586 1.309779-.16869262 1.571734-.16869262 1.571734z" fill="#282827" mask="url(#D)" transform="translate(38 84)"/><path d="m109.897617 43.4872832c-1.26207.5659044-3.661254.1739706-4.740054-.6978821-2.105534-1.7017126-7.5890854.2879513-9.6696277 5.3450971-.6310354 1.5317412-.8205543 3.3634318-.7122578 5.2311163.2457498 4.1952914 2.0347246 7.9986489 4.7004846 10.7801791 7.1642299 7.4727377 6.6748129 17.3150751 11.7647479 17.4450532 8.380483.2119642 16.1216-10.8201723 15.638431-22.2302449.462343-16.0412904-11.389876-18.3808951-16.981724-15.8733187" fill="#a3a2a2" mask="url(#E)" transform="translate(38 84)"/><path d="m68.3375297 103.639293 1.3620367-7.9386586-.8392978-8.4485729c-1.2079225.2819523-2.1076165 1.2817835-2.2534002 2.4995778l-.4102772 3.4314203-2.7032472.3799358-11.3690496-8.3205945c-.3290547-.2419591-.7684886-.2799527-1.1350306-.0979834-.7122577.3539402-.8143064 1.3137781-.1874362 1.799696l5.3835855 4.197291-1.5099031-.7598717c-.7539103-.3799358-1.6640174.0779869-1.7952227.9018477-.0749745.4759196.1374532.9498396.5435651 1.213795l1.1891788.7758689-.1395358.627894c-.1749405.7858672.1770231 1.5937307.8767851 2.0076608l.6893488.4099308c-.3353026.8418578-.0124957 1.799696.766406 2.2776152l.6435311.3939335c1.1391959 2.8195233 3.3426131 5.0931393 6.1479089 6.3429283l.9246855.41393z" fill="#e7b48a" mask="url(#F)" transform="translate(38 84)"/><path d="m76.2272005 114.255297-7.7765216-11.975977-6.3853281 1.89768 8.0639238 14.827495z" fill="#e7b48a" mask="url(#G)" transform="translate(38 84)"/><path d="m102.18832 85.2125958s-10.9566895-.3639385-13.8036378 10.0722986l-8.5804148 21.7703226-7.2058824-9.150454-6.4019891 6.328931 9.900799 14.719513c3.5050578 3.023489 7.1329905 3.125472 10.3964638-.151974l5.7709538-9.668367 1.6765131 3.129471c1.1267001 11.78401.2290887 22.744158-1.5702992 35.192056l-7.4370538 39.317358s22.7964124 5.377092 48.0170014 1.059821c3.338447-19.936632-.510243-48.239851-2.799048-54.244837-.608127-1.603729-1.243327-3.165465-1.834793-4.721202-2.184673-5.759027-2.342953-12.073961-.470673-17.93897l4.646336-14.545543 2.66576-12.0919574s-4.483891-4.4172538-11.271166-6.9308293c-6.789358-2.5135754-21.69887-2.1456375-21.69887-2.1456375" fill="#e7e000" mask="url(#H)" transform="translate(38 84)"/><path d="m131.092241 111.776315 1.876446 30.170904s-.516491 1.015828-2.642852 2.127641c.433186.751873.891364 1.749704 1.359955 2.947502.989246-1.031826 1.491159-1.745705 1.491159-1.745705z" fill="#ecebed" mask="url(#I)" transform="translate(38 84)"/><path d="m130.552518 105.745138.216593 6.032981zm-6.722713-17.7609998c1.403689 1.4537544-5.373173 36.8397768-4.867095 65.5149338h.006248c.006248.283952.006248.567904.012496.853855.695597.161973 1.364119.233961 2.005568.233961.812223 0 1.578629-.11798 2.305466-.325945.006247-.002.012495-.004.018743-.007999h.002083c.006248-.002.012496-.002.020826-.003999v-.002c.006248-.001999.012496-.003999.018744-.005999h.004165c.014578-.003999.027074-.007998.03957-.011998.004165-.001999.006248-.001999.00833-.003999.004166 0 .008331-.002.012496-.002.002083 0 .006248-.001999.010413-.003999.004165 0 .006248-.002.008331-.002.004165-.001999.00833-.003999.012495-.003999.002083-.002.004166-.002.008331-.002.002083-.001999.00833-.001999.012496-.003999.002082 0 .004165-.002.004165-.002.006248-.001999.010413-.003999.014578-.005999h.002083c3.815369-1.205796 6.381163-4.937166 7.622407-7.174788-.270741-1.199797-.537317-2.195629-.787232-2.947502-.664357.601898-1.603621 1.233792-2.913592 1.747705-.651862.255957-1.314137.375936-1.95975.375936-2.894849 0-5.471056-2.383597-5.45023-5.483073.191602-26.599507 5.146166-51.3713228 3.827865-52.7330928z" fill="#cdd620" mask="url(#J)" transform="translate(38 84)"/><path d="m117.228244 120.570026c-.470674.723878-.982999 1.331775-1.53906 1.795697-1.276649 8.990481-2.336705 18.880811-2.844866 28.561176-2.551215 17.421057-.518573 26.249566.362377 30.25089.472756 2.151636 2.276309 3.773362 4.500552 4.005323 1.389111.145975 3.219739.281952 5.206563.281952 3.850773 0 8.29926-.507914 11.308653-2.435588v-.007999c-3.096863 1.387766-6.443641 1.813694-9.380142 1.813694-4.604684 0-8.190964-1.043824-8.190964-1.043824s-6.872663-.129978-2.149269-32.392528c.549813-10.454234 1.557803-21.210417 2.726156-30.828793" fill="#cdd620" mask="url(#K)" transform="translate(38 84)"/><path d="m130.552518 105.745138 1.422433 39.531322s-4.485974 11.044135-12.993497 9.076467c-.660192-28.819132 6.266618-64.9010367 4.848351-66.3687888-1.918098-1.9796656-7.678638 32.0665838-9.325995 63.4132888-4.725476 32.264549 2.149269 32.392528 2.149269 32.392528s19.499618 5.673042 25.930764-9.436406c1.345375-4.543233-6.751871-22.848141-7.053851-28.043263-1.105874-18.998791-1.28498-33.042419-4.977474-40.565148" fill="#594a42" mask="url(#L)" transform="translate(38 84)"/><path d="m137.063009 152.614418c.845546 1.755704 1.843123 3.691377 2.853196 5.667043-1.010073-1.975666-2.005567-3.90934-2.851113-5.665043 0-.002-.002083-.002-.002083-.002" fill="#ecebed" mask="url(#M)" transform="translate(38 84)"/><path d="m118.968853 153.498082h-.006248c.004165.719879.010413 1.433758.018743 2.147638.695597.403931 1.36412.5899 2.005568.5899.810141 0 1.57863-.29595 2.303383-.823861-.724753.527911-1.493242.823861-2.303383.823861-.641448 0-1.309971-.185969-2.005568-.5899-.006248-.717879-.006248-1.431758-.012495-2.147638" fill="#389a6a" mask="url(#N)" transform="translate(38 84)"/><path d="m133.850982 151.596798c-.391533 0-.80181.035994-1.230831.113981-2.445002.449924-4.53804.781868-6.308271 1.033826-.847628.615896-1.786892 1.127809-2.819874 1.455754h-.002083c-.006248.001999-.010413.001999-.016661.003999-.002083.002-.002083.002-.004165.002-.004165.001999-.008331.003999-.014579.003999-.002082.002-.004165.002-.006247.003999-.004166 0-.008331.002-.012496.002-.002083 0-.004165.002-.008331.002-.004165.001999-.006248.003999-.010413.003999-.004165.002-.006248.003999-.012496.003999-.002082.002-.006247.002-.00833.002-.014578.003999-.027074.007999-.03957.013998-.002083 0-.002083 0-.004165 0l-.016661.005999h-.004165c-.006248.001999-.012496.003999-.018744.005999v.001999c-.008331 0-.014578.002-.022909.004-.724753.209964-1.493242.329944-2.305466.329944-.641448 0-1.309971-.075987-2.003485-.23596-.006248-.285952-.012496-.569904-.018744-.855856h-.014578s-6.697722 10.908158-4.623427 16.647188c3.58628 1.759703 7.341253 2.403594 10.88588 2.403594 8.278435 0 15.426003-3.507407 16.692239-4.525235-.741414-2.933505-1.878527-6.39892-2.986484-9.742355-.656027-1.975666-1.303723-3.911339-1.853536-5.667042-.903859-.637893-1.963915-1.017829-3.211408-1.017829" fill="#54463f" mask="url(#O)" transform="translate(38 84)"/><path d="m118.98012 151.595793s-5.506461 12.171944-3.436331 17.910974c15.913337 4.97316 26.651351-4.591224 26.651351-4.591224s-.185353-17.782996-9.573827-16.069286c-9.38639 1.71571-13.641193 2.749536-13.641193 2.749536" fill="#3e332c" mask="url(#P)" transform="translate(38 84)"/><path d="m135.655992 138.868754-11.864715 9.884331c-1.34121.073987-4.027796-.463922-4.848351-.019997-.056231 1.653721-.631035 4.405256-2.390853 5.757028l-3.155177 1.733707c-1.780644.867853-1.978494 1.107813-1.676513 2.229623l4.929573-2.037656 2.153434-1.493747-2.397101 2.315609-2.70533 1.521743c-.487334.271954-.676853.871852-.433186 1.369768l.331138.675886c.399864.223962.697679.373937.697679.373937l4.159002-.363939 4.342273-2.117642s1.462003-.499916 4.840021-5.849012l12.21043-8.976484z" fill="#e7b48a" mask="url(#Q)" transform="translate(38 84)"/><path d="m139.847173 104.85329c.914272 4.707205 8.155559 28.687155 8.155559 28.687155.733084 2.403594-.014578 5.007154-1.916015 6.678872l-7.347501 6.024982-5.106596-6.316933 5.527286-5.173126s-4.700484-9.810343-7.547432-15.80933c-4.467231-9.420409-8.484614-17.243087-7.749448-24.7378212l4.456818-2.5195744c6.110421-.5899003 9.944534 5.0151529 11.527329 13.1657756" fill="#e7e000" mask="url(#R)" transform="translate(38 84)"/><path d="m105.014431 75.8476005.335303 9.0124776-3.161425.3519406s-1.120452.4039317-1.755652 4.6112211c-.391534 2.5935619 14.530474 6.2549434 16.200739-1.4237595 4.762963-14.3835704-4.529709-18.2509171-4.529709-18.2509171z" fill="#e7b48a" mask="url(#S)" transform="translate(38 84)"/><path d="m112.102525 70.1487645-7.089255 5.6990374.297815 7.9626549.199932-.0979834 11.121218-6.4229151-.164528-2.391596c-2.009733-3.1654653-4.365182-4.7491978-4.365182-4.7491978" fill="#d79b72" mask="url(#T)" transform="translate(38 84)"/><path d="m95.207383 60.0766439c.8101411 2.563567-1.6473563 6.8628408-.8892809 9.300429.4227729 1.3637696 3.1281027 6.8528424 5.2315539 9.7283567.928851 1.2697855 2.178426 2.4735822 3.765386 2.5475697 1.001743.0459922 1.997237-.1959669 2.865692-.6978822l10.650544-6.1489613-1.262071-18.0729471-17.0816897-6.4549097-2.0617987 2.2216248c-1.3849456 1.491748-1.9784937 3.5374024-1.6036212 5.5250667z" fill="#e7b48a" mask="url(#U)" transform="translate(38 84)"/><path d="m114.135957 66.2248058c.272824-.929843.993413-1.7097112 1.949337-1.9356731.431104-.1039824.918438-.0979834 1.418268.1299781 1.605704.7298767-.164527 5.7450295-2.657429 6.1409627-1.834793.2939503-1.180849-2.72354-.710176-4.3352677" fill="#e7b48a" mask="url(#V)" transform="translate(38 84)"/><path d="m97.5202103 63.4026813-.083305-.1999662z" fill="#d79b72" mask="url(#W)" transform="translate(38 84)"/><path d="m55.2566773 83.5336802-.1207923.0679885-.0791397.0439926.0062479.005999c-.5560609.3839351-.7872323 1.0918155-.5123258 1.8876811l4.7567154 13.8516602c.3977814 1.1538054 1.6785958 2.0436544 2.8636094 1.9876644l5.1503315-.241959c1.2683186-.05999 1.7494049-.873853 1.7494049-.873853l-1.1058738-1.3697683-4.6525842-13.5437122c-.3977813-1.1518055-1.6785957-2.0416551-2.8615267-1.9856646l-4.0840275.1899679-.4227729-.5259112.0687267.0859855z" fill="#bd6b9f" mask="url(#X)" transform="translate(38 84)"/><path d="m56.8129259 82.7674216 5.1503315-.2399594c1.182931-.0559906 2.4637453.8338591 2.8615267 1.9856645l4.758798 13.8516602c.3956988 1.1518055-.2436671 2.1316401-1.4286807 2.1856311l-5.1482489.241959c-1.1870962.053991-2.465828-.8358589-2.8636093-1.9856647l-4.758798-13.8516602c-.3956988-1.1518055.2436671-2.1316399 1.4286807-2.1876305" fill="#3c3c3b" mask="url(#Y)" transform="translate(38 84)"/><path d="m60.8230975 98.443576 8.1430636-.3599392-4.6192622-13.2377639-7.8993964.3479413z" fill="#fff" mask="url(#Z)" transform="translate(38 84)"/><path d="m56.1856215 91.1414045 1.716083 1.0638203c.9538422.5919 1.4515896 1.6897146 1.2641534 2.7855295l-.0124958.0679885.7913975.4219287c.3811204.2039656.5977133.615896.5435651 1.0398244-.0791398.6638878-.7622407 1.0818172-1.399524.8598547l-3.0489629-1.0618206z" fill="#e7b48a" mask="url(#aa)" transform="translate(38 84)"/><path d="m92.6103303 119.133471-2.8531962 4.199291z" fill="#ecebed" mask="url(#ab)" transform="translate(38 84)"/><path d="m92.2661074 100.794162-2.0388898 4.357264c-2.6845036 5.74103-2.8552789 12.315919-.4685907 18.182928l2.5074805-4.19929c-1.8889408-4.049316-2.3471183-8.606547-1.3016406-12.941814z" fill="#cdd620" mask="url(#ac)" transform="translate(38 84)"/><path d="m102.333484 121.193517c-3.0677066 0-5.7501276 1.059821-5.5043778 1.36577.7747365.261955 4.6546668 1.373768 10.4589428 1.373768 2.415845 0 5.16491-.191968 8.16389-.719879 0 0-8.136816-1.531741-11.731427-1.943672-.464425-.051991-.930933-.075987-1.387028-.075987" fill="#cdd620" mask="url(#ad)" transform="translate(38 84)"/><path d="m124.119058 59.7699329c-.416525 3.8153555 1.137113 7.0988009 3.469653 7.3327614 2.334623.2379598 4.565114-2.6655498 4.983722-6.4809053.416525-3.8133558-1.137114-7.0988008-3.469654-7.3327613-2.336705-.2359602-4.567196 2.6655497-4.983721 6.4809052" fill="#a3a2a2" mask="url(#ae)" transform="translate(38 84)"/><path d="m13.1178425 46.5541479c1.2891449-11.9599797 10.9483594-21.5303631 23.2566729-23.2200777 3.6050238-.4919169 7.8035957 0 7.8035957 0 13.2350816 1.8156933 23.4024567 12.739848 23.4024567 25.9496167 0 14.4775544-12.2229259 26.2175713-27.3052958 26.2175713-4.8025332 0-9.3114162-1.1977977-13.2350816-3.2874447l-13.6807634 3.7833609 3.4404964-13.3277487c-1.9722458-3.1814625-3.2655559-6.7948522-3.6820809-10.6581996z" fill="#fff" mask="url(#af)" transform="translate(38 84)"/><path d="m13.1178425 46.5541479c1.2891449-11.9599797 10.9483594-21.5303631 23.2566729-23.2200777 3.6050238-.4919169 7.8035957 0 7.8035957 0 13.2350816 1.8156933 23.4024567 12.739848 23.4024567 25.9496167 0 14.4775544-12.2229259 26.2175713-27.3052958 26.2175713-4.8025332 0-9.3114162-1.1977977-13.2350816-3.2874447l-13.6807634 3.7833609 3.4404964-13.3277487c-1.9722458-3.1814625-3.2655559-6.7948522-3.6820809-10.6581996z" mask="url(#ag)" stroke="#fff" stroke-width="2.61" transform="translate(38 84)"/><g fill="#4ead33"><path d="m19.952981 69.4684595 7.7910999-2.1556359c3.648759 2.415592 8.0722544 3.8353521 12.8414655 3.8353521 12.5207413 0 22.6714553-9.7463536 22.6714553-21.7643236 0-12.0239689-10.150714-21.7663232-22.6714553-21.7663232-12.5207412 0-22.66729 9.7423543-22.66729 21.7663232 0 4.5952238 1.4890768 8.8605033 4.0236314 12.3779092zm24.2250935-46.1342071c13.2350816 1.8156933 23.4045393 12.7378483 23.4045393 25.9496166 0 14.4775545-12.2250085 26.2175714-27.3073785 26.2175714-4.8025331 0-9.3114162-1.1977977-13.2350816-3.2874447l-13.6807633 3.7833609 3.4404964-13.3277487c-1.9722458-3.1814626-3.2655559-6.7948522-3.6820809-10.6601993v-5.4550785c1.2891448-11.9599797 10.9483594-21.5323628 23.2566729-23.2200777 3.6050238-.4939166 7.8035957 0 7.8035957 0z" mask="url(#ah)" transform="translate(38 84)"/><path d="m30.4864821 37.3118735s-5.3565114 2.4715825-3.7070724 7.4207465c0 0 3.1947467 13.947644 19.2663635 16.8151596 0 0 5.7709537.7938659 7.3162614-2.5715656.33322-.7258774.5602262-1.7457051.5039953-2.5355717-.0562309-.7658706-.6185396-1.2737848-1.2766491-1.6377233-.8455457-.4659213-1.599456-.9018477-2.5637113-1.3577707-.8372153-.3959331-1.799388-.9818341-2.765726-.727877-.7039272.1879682-1.2120877.8078635-1.6890088 1.3017801-.6247875.6338929-1.2641534 1.2617868-1.8951887 1.8916804 0 0-8.140981-2.8695153-10.3027457-8.7045296.316559-.3499409.633118-.6998818.949677-1.047823.5310694-.5919 1.3266321-1.1638034 1.3682846-2.0176592.0395699-.8178619-.2644934-1.633724-.566474-2.3755987-.1936841-.4779193-.3915335-.9558386-.5852176-1.4357575-.3436331-.8738524-.7893149-2.0936463-1.2891449-2.6055599-.4248555-.431927-1.0392298-.6498902-1.6640173-.6498902-.3748725 0-.7539102.0779868-1.099626.2379598" mask="url(#ai)" transform="translate(38 84)"/></g></g></svg>