<?xml version="1.0" encoding="UTF-8"?>
<svg width="250px" height="250px" viewBox="0 0 250 250" version="1.1" xmlns="http://www.w3.org/2000/svg" xmlns:xlink="http://www.w3.org/1999/xlink">
    <title>04-persoonlijker-illustratie-2020</title>
    <g id="04-persoonlijker-illustratie-2020" stroke="none" stroke-width="1" fill="none" fill-rule="evenodd">
        <g id="plannen" transform="translate(30.000000, 50.000000)">
            <g transform="translate(135.000000, 17.000000)"></g>
            <rect id="Rectangle" fill="#C95688" fill-rule="nonzero" x="113" y="0" width="29" height="57"></rect>
            <rect id="Rectangle" fill="#C95688" fill-rule="nonzero" x="154" y="8" width="25" height="49"></rect>
            <rect id="Rectangle" fill="#C95688" fill-rule="nonzero" x="84" y="42" width="25" height="15"></rect>
            <rect id="Rectangle" fill="#C95688" fill-rule="nonzero" x="188" y="28" width="25" height="29"></rect>
            <polygon id="Path" fill="#706F6F" fill-rule="nonzero" points="162 26 186.077551 26 196 34 162 34"></polygon>
            <rect id="Rectangle" fill="#DADADA" fill-rule="nonzero" x="103" y="26" width="34" height="31"></rect>
            <rect id="Rectangle" fill="#FFFFFF" fill-rule="nonzero" x="105" y="37" width="3" height="4"></rect>
            <rect id="Rectangle" fill="#FFFFFF" fill-rule="nonzero" x="110" y="37" width="3" height="4"></rect>
            <rect id="Rectangle" fill="#FFFFFF" fill-rule="nonzero" x="114" y="37" width="3" height="4"></rect>
            <rect id="Rectangle" fill="#FFFFFF" fill-rule="nonzero" x="119" y="37" width="3" height="4"></rect>
            <rect id="Rectangle" fill="#FFFFFF" fill-rule="nonzero" x="123" y="37" width="3" height="4"></rect>
            <rect id="Rectangle" fill="#FFFFFF" fill-rule="nonzero" x="105" y="44" width="3" height="4"></rect>
            <rect id="Rectangle" fill="#FFFFFF" fill-rule="nonzero" x="110" y="44" width="3" height="4"></rect>
            <rect id="Rectangle" fill="#FFFFFF" fill-rule="nonzero" x="114" y="44" width="3" height="4"></rect>
            <rect id="Rectangle" fill="#FFFFFF" fill-rule="nonzero" x="119" y="44" width="3" height="4"></rect>
            <rect id="Rectangle" fill="#FFFFFF" fill-rule="nonzero" x="123" y="44" width="3" height="4"></rect>
            <rect id="Rectangle" fill="#FFFFFF" fill-rule="nonzero" x="105" y="51" width="3" height="4"></rect>
            <rect id="Rectangle" fill="#FFFFFF" fill-rule="nonzero" x="110" y="51" width="3" height="4"></rect>
            <rect id="Rectangle" fill="#706F6F" fill-rule="nonzero" x="114" y="51" width="7" height="6"></rect>
            <rect id="Rectangle" fill="#FFFFFF" fill-rule="nonzero" x="123" y="51" width="3" height="4"></rect>
            <rect id="Rectangle" fill="#FFFFFF" fill-rule="nonzero" x="127" y="37" width="3" height="4"></rect>
            <rect id="Rectangle" fill="#FFFFFF" fill-rule="nonzero" x="127" y="44" width="3" height="4"></rect>
            <rect id="Rectangle" fill="#FFFFFF" fill-rule="nonzero" x="127" y="51" width="3" height="4"></rect>
            <rect id="Rectangle" fill="#FFFFFF" fill-rule="nonzero" x="132" y="37" width="3" height="4"></rect>
            <rect id="Rectangle" fill="#FFFFFF" fill-rule="nonzero" x="105" y="31" width="3" height="4"></rect>
            <rect id="Rectangle" fill="#FFFFFF" fill-rule="nonzero" x="110" y="31" width="3" height="4"></rect>
            <rect id="Rectangle" fill="#FFFFFF" fill-rule="nonzero" x="114" y="31" width="3" height="4"></rect>
            <rect id="Rectangle" fill="#FFFFFF" fill-rule="nonzero" x="119" y="31" width="3" height="4"></rect>
            <rect id="Rectangle" fill="#FFFFFF" fill-rule="nonzero" x="123" y="31" width="3" height="4"></rect>
            <rect id="Rectangle" fill="#FFFFFF" fill-rule="nonzero" x="127" y="31" width="3" height="4"></rect>
            <rect id="Rectangle" fill="#FFFFFF" fill-rule="nonzero" x="132" y="31" width="3" height="4"></rect>
            <rect id="Rectangle" fill="#FFFFFF" fill-rule="nonzero" x="132" y="44" width="3" height="4"></rect>
            <rect id="Rectangle" fill="#FFFFFF" fill-rule="nonzero" x="132" y="51" width="3" height="4"></rect>
            <rect id="Rectangle" fill="#575756" fill-rule="nonzero" x="101" y="25" width="36" height="2"></rect>
            <path d="M137.55014,85.9351337 L138.989648,69.517438 C139.058196,68.8217729 138.784004,68.1261078 138.23562,67.6391423 C137.687236,67.1521767 137.001756,66.9434772 136.316276,67.0130437 L119.933299,69.378305 C118.836531,69.517438 118.013955,70.4218026 117.945407,71.5348667 C117.876859,72.6479308 118.630887,73.6218619 119.727655,73.9001279 L125.485689,75.2914581 C116.917187,83.0133404 103.893063,92.4743854 84.9738107,88.99606 C83.9455905,88.7873605 82.5746301,89.2743261 82.094794,90.6656562 L82.026246,92.822218 C81.8206019,95.1179127 82.8488222,95.8135778 84.2197825,96.0222773 C105.675312,100.265834 121.030068,89.9004246 131.175174,80.2306801 L133.094519,86.2829663 C133.437259,87.3264639 134.465479,88.0221289 135.562247,87.8829959 C136.590468,87.8829959 137.481592,87.0481978 137.55014,85.9351337" id="Path" fill="#0068B3" fill-rule="nonzero"></path>
            <path d="M124,93.9815969 C124,93.9815969 108.811828,94.3218693 101.822581,92.0760715 C102.561828,87.3803124 99,72 99,72 C99,72 112.642473,74.6541247 116.405914,73.701362 C117.346774,78.805448 124,93.9815969 124,93.9815969" id="Path" fill="#EDEDED" fill-rule="nonzero"></path>
            <path d="M105,78.4130768 L106.257353,78.5517871 C106.654412,76.5404868 108.176471,75.7775798 110.294118,76.0550006 C110.889706,76.1243557 111.352941,76.2630661 112.014706,76.4017765 L112.279412,77.7195249 C111.485294,77.5114594 111.088235,77.372749 110.492647,77.3033938 C109.301471,77.1646835 108.573529,77.5808146 108.375,78.6904975 L111.286765,79.0372734 L111.485294,80.1469563 L108.308824,79.8001804 C108.308824,80.008246 108.308824,80.2163115 108.375,80.424377 C108.375,80.6324426 108.441176,80.771153 108.441176,80.9098633 L111.683824,81.2566392 L111.882353,82.4356773 L108.772059,82.1582566 C109.367647,83.5453602 110.360294,84.1695569 111.551471,84.2389121 C112.345588,84.3082673 112.808824,84.2389121 113.669118,84.1695569 L114,85.8340813 C113.073529,85.9727916 112.676471,86.0421468 111.683824,85.9727916 C109.169118,85.8340813 107.25,84.4469776 106.455882,81.9501911 L105.198529,81.8114807 L105.132353,80.6324426 L106.191176,80.7017978 L106.191176,80.3550219 C106.191176,80.0776011 106.125,79.8001804 106.191176,79.5227597 L105.132353,79.3840493 L105,78.4130768 Z" id="Path" fill="#009FE3" fill-rule="nonzero"></path>
            <path d="M120.930894,92 C118.512195,92 113.743902,91.8125 111.878049,91.625 C109.804878,91.4375 104.138211,90.625 104.069106,90.625 L104,90 C104.069106,90 109.943089,90.8125 111.947154,91 C113.813008,91.1875 118.373984,91.375 120.723577,91.375 L121,92 L120.930894,92" id="Path" fill="#009FE3" fill-rule="nonzero"></path>
            <path d="M120.860082,91 C118.411523,91 113.794239,90.8125 111.90535,90.625 C109.806584,90.4375 104.139918,89.625 104.069959,89.625 L104,89 C104.069959,89 109.946502,89.8125 111.975309,90 C113.864198,90.1875 118.341564,90.375 120.720165,90.375 L121,91 L120.860082,91" id="Path" fill="#009FE3" fill-rule="nonzero"></path>
            <path d="M115,89 C113.658537,88.9310345 112.317073,88.862069 111.579268,88.7931034 C109.567073,88.5862069 104.134146,87.6896552 104.067073,87.6896552 L104,87 C104.067073,87 109.70122,87.8965517 111.646341,88.1034483 C112.384146,88.1724138 113.591463,88.2413793 114.865854,88.3103448 L115,89 Z" id="Path" fill="#009FE3" fill-rule="nonzero"></path>
            <path d="M116,88 C117.333333,88.0909091 118.793651,88.0909091 119.746032,88.0909091 L120,89 C119.936508,89 119.936508,89 119.873016,89 C118.857143,89 117.460317,88.9090909 116.126984,88.9090909 L116,88 Z" id="Path" fill="#009FE3" fill-rule="nonzero"></path>
            <path d="M60,174.636364 L104,175 C104,173.036364 102.428571,171.363636 100.652174,171.363636 L63.484472,171 C61.6397516,171 60.068323,172.672727 60,174.636364" id="Path" fill="#413F3F" fill-rule="nonzero"></path>
            <path d="M22.3946436,136.696429 L8.64277275,167.503571 C8.1008271,168.521429 8.1008271,169.607143 8.64277275,170.353571 C9.18471839,171.167857 9.92989366,171.642857 10.9460417,171.642857 L46.2402521,171.982143 C47.0531705,171.982143 47.7983458,171.507143 48.3402915,170.964286 C48.8822371,170.421429 48.8822371,169.675 48.8822371,168.860714 L44.2079559,136.289286 L22.3946436,136.696429 Z M7.55888145,170.625 C6.81370618,169.335714 6.81370618,168.046429 7.55888145,166.689286 L21.5817251,135.339286 L45.224104,135 L49.8983852,168.589286 C50.169358,169.607143 49.8983852,170.964286 49.0854667,171.710714 C48.2725482,172.457143 47.2564002,173 46.2402521,173 L10.9460417,172.660714 C9.65892083,172.728571 8.37179992,171.914286 7.55888145,170.625" id="Shape" fill="#ACB3BE" fill-rule="nonzero"></path>
            <path d="M58.6976744,134 C58.2093023,134.758858 54.5116279,140.346812 54.3023256,140.829721 C53.5348837,142.623386 46,160.422054 46,160.422054 L51.372093,172.701755 C51.372093,172.701755 57.0930233,174.70238 56.3255814,173.736561 C53.1162791,169.804297 51.372093,160.835976 51.372093,160.835976 L70,135.241768 C66.6511628,134.137974 61.9767442,134.758858 58.6976744,134" id="Path" fill="#A98F80" fill-rule="nonzero"></path>
            <path d="M55.736,171.66546 C55.736,171.66546 54.852,171.87091 54.308,171.939393 C53.832,172.007877 52.88,172.28181 51.724,170.775176 C50.568,169.337025 46.624,159.064521 46.624,159.064521 C46.556,158.790588 45.876,159.406938 44.516,160.571155 C43.224,161.666889 43.088,163.378973 43.088,163.378973 C43.088,163.378973 42.476,170.295792 42.34,171.117593 C42.34,171.117593 42,172.69271 42,172.69271 L44.108,173.240577 L44.516,171.733943 L45.536,168.446742 C45.74,167.693425 46.012,167.145558 46.76,167.351008 C46.896,167.351008 47.916,170.432759 47.916,170.432759 C48.188,171.186076 48.868,172.555743 48.868,172.555743 C49.616,173.993894 51.792,174.747211 51.792,174.747211 C51.86,174.747211 58.116,176.185362 58.592,175.979912 C58.66,175.979912 58.728,175.979912 58.728,175.911428 C58.796,175.911428 58.864,175.842945 58.864,175.842945 C58.932,175.774461 59,175.637495 59,175.500528 C58.932,174.130861 55.736,171.66546 55.736,171.66546" id="Path" fill="#3B2F31" fill-rule="nonzero"></path>
            <path d="M28.7582418,79.0388546 C29.1538462,78.5004143 29.6153846,78.1638891 29.8791209,78.0292791 C25.3296703,73.3179265 24.4725275,75.6736028 21.5054945,75.0678575 L21.5714286,76.3466532 C21.6373626,77.3562287 19,81.1253107 19,81.1253107 L31,89 L27.4395604,82.4041064 L28.7582418,79.0388546 Z" id="Path" fill="#A98F80" fill-rule="nonzero"></path>
            <path d="M36.2352444,68.674659 C36.2352444,68.674659 36.7134807,67.3805925 36.7818002,66.9038311 C36.8501197,65.8821996 36.3035639,62.885414 36.3035639,62.885414 L22.981265,62 L21,72.761185 C23.8694182,73.9871427 26.6021975,75.4174268 28.8567404,77.392581 C28.9250599,77.392581 28.9933793,77.3244722 28.9933793,77.3244722 C33.5024651,78.55043 33.1608677,77.7331248 33.1608677,77.7331248 L35.4837301,72.8292937 L36.5768418,72.761185 C36.8501197,72.761185 37.0550782,72.4887499 36.9867587,72.2844236 L36.2352444,68.674659 Z" id="Path" fill="#A98F80" fill-rule="nonzero"></path>
            <path d="M27,76 C27,76 28.212766,77.3125 28.6595745,77.5625 L29.4255319,78 L30,77.8125 L28.8510638,77.25 C28.5957447,77.125 27,76 27,76" id="Path" fill="#7E6657" fill-rule="nonzero"></path>
            <g id="Group" opacity="0.1" transform="translate(23.000000, 68.000000)" fill="#010000" fill-rule="nonzero">
                <g id="Path">
                    <path d="M0.6,2 C0.24,0.0625 2.34,1.125 2.34,1.125 C2.34,1.125 1.26,-0.125 0.48,1 C-0.18,2 1.32,5.125 2.76,4.3125 C2.76,4.375 1.08,4.5 0.6,2"></path>
                </g>
            </g>
            <path d="M66.3815892,167.13322 L69.8275557,136.308782 C69.8275557,136.308782 72.3775709,129.206059 66.1748312,126.930429 L33.0246333,121 L16.5529134,122.861879 C16.5529134,122.861879 12.4866729,137.343159 26.4083776,137.136283 C40.3300823,136.929408 60.1099301,135.963989 60.1099301,135.963989 C60.1099301,135.963989 58.0423502,140.377332 57.7666729,142.032335 C57.4220762,143.963173 61.2126394,167.753847 61.2126394,167.753847 L68.9316044,178.580328 C68.9316044,178.580328 74.8586668,179.476788 73.8937962,178.649286 C70.0343137,175.477196 66.3815892,167.13322 66.3815892,167.13322" id="Path" fill="#A98F80" fill-rule="nonzero"></path>
            <g id="Group" opacity="0.2" transform="translate(16.000000, 121.000000)" fill="#010000" fill-rule="nonzero">
                <g id="Path">
                    <path d="M43.5441176,24.2239437 C43.9588235,21.6704225 46.0323529,15.8732394 46.3779412,15.1140845 C46.3779412,15.0450704 46.4470588,14.9070423 46.4470588,14.7690141 C46.1705882,14.4929577 35.4573529,15.3211268 37.8764706,4.07183099 C37.8764706,4.0028169 36.0102941,3.79577465 36.0102941,3.72676056 L17.0720588,0.345070423 L0.552941176,2.2084507 C0.552941176,2.2084507 -3.525,16.7014085 10.4367647,16.4943662 C24.3985294,16.2873239 44.2352941,15.3211268 44.2352941,15.3211268 C44.2352941,15.3211268 42.1617647,19.7380282 41.8852941,21.3943662 C41.5397059,23.3267606 45.3411765,47.1366197 45.3411765,47.1366197 L46.6544118,48.9309859 C46.1014706,46.7915493 43.0602941,27.0535211 43.5441176,24.2239437"></path>
                </g>
            </g>
            <path d="M16.5446321,123.088908 C16.5446321,123.088908 12.5392938,136.384641 26.2524862,136.11604 C33.2448565,135.98174 43.3600331,137.123293 49.8093067,136.988992 C50.759726,132.691382 52.1853549,128.863822 53,124.566211 L32.090776,120 L16.5446321,123.088908 Z" id="Path" fill="#0068B3" fill-rule="nonzero"></path>
            <path d="M71.982959,177.315157 C71.982959,177.315157 71.1659337,177.720828 70.6893356,177.856052 C70.2127376,177.991275 69.3957123,178.396946 67.965918,177.247545 C66.5361238,176.098145 60.544605,167.038165 60.544605,167.038165 C60.4084341,166.835329 59.6594943,167.443835 58.5701272,168.796071 C57.8211874,169.742636 58.0254437,171.77099 58.0254437,171.77099 C58.0254437,171.77099 58.5701272,174.543074 58.842469,175.489639 C59.3190671,177.247545 59.3871525,178.667393 59.3871525,179.411123 C59.3871525,179.411123 59.3871525,179.411123 59.3871525,179.411123 L59.3871525,180.966194 L61.5658866,180.966194 L61.633972,179.411123 C61.633972,179.411123 61.9743992,174.948745 62.1105701,174.948745 C62.1786556,175.016356 62.3148264,175.083968 62.3829119,175.15158 L64.0850479,177.517993 C64.4935605,178.194111 65.4467567,179.411123 65.4467567,179.411123 C66.4680383,180.628135 68.7148579,180.966194 68.7829433,180.966194 C68.8510287,180.966194 75.1829747,181.101418 75.6595728,180.830971 C75.7276582,180.830971 75.7957437,180.763359 75.7957437,180.763359 C75.7957437,180.763359 75.8638291,180.695747 75.9319146,180.628135 C76,180.560523 76,180.4253 76,180.290076 C75.5914874,179.005452 71.982959,177.315157 71.982959,177.315157" id="Path" fill="#3B2F31" fill-rule="nonzero"></path>
            <path d="M30.1565209,87.0342306 C29.2807705,87.7268367 19.310689,79 19.310689,79 C14.3256482,83.6404608 14.9993024,89.3198307 15.0666678,90.5665217 C15.1340332,91.743952 17.2223611,106.28868 17.4918228,109.890232 C17.7612844,113.491783 16.6834378,122.841965 16.6834378,122.841965 C29.2807705,123.811614 32.5143104,120.00228 32.5143104,120.00228 C32.5143104,120.00228 33.592157,102.133043 34.400542,101.78674 C38.2403707,99.9167039 36.6909662,95.6918068 36.6909662,95.6918068 L30.1565209,87.0342306 Z" id="Path" fill="#44195E" fill-rule="nonzero"></path>
            <g id="Group" opacity="0.11" transform="translate(14.000000, 79.000000)" fill="#010000" fill-rule="nonzero">
                <g id="Path">
                    <path d="M11.2618182,39.5642857 C8.29090909,34.1095238 7.39272727,28.1714286 6.08,22.1642857 C5.25090909,18.5047619 4.42181818,14.9142857 3.93818182,11.1166667 C3.45454545,7.38809524 3.8,3.86666667 4.42181818,0.138095238 C-0.552727273,4.76428571 0.138181818,10.2880952 0.276363636,11.4619048 C0.345454545,12.6357143 2.48727273,27.1357143 2.76363636,30.7261905 C3.04,34.3166667 1.93454545,43.6380952 1.93454545,43.6380952 C1.93454545,43.6380952 -2.14181818,57.3095238 11.8145455,57.0333333 C18.9309091,56.8952381 29.2254545,57.8619048 35.7890909,57.7238095 C36.2727273,55.5833333 36.8254545,53.2357143 37.3781818,51.302381 C35.0290909,51.302381 30.6763636,51.0952381 28.2581818,50.75 C21.0036364,49.7833333 14.6472727,45.7785714 11.2618182,39.5642857"></path>
                </g>
            </g>
            <path d="M60.0795199,106 L51,108.246036 L52.3968492,111.193959 C53.3048012,112.246788 56.5175544,111.966033 56.5175544,111.966033 L62.4541635,110.562261 L68.4606152,111.193959 C70.1368342,111.544902 69.9971493,110.07094 69.9971493,110.07094 L60.0795199,106 Z" id="Path" fill="#A98F80" fill-rule="nonzero"></path>
            <path d="M26.4990574,93.3011119 C25.7543772,86.8116666 24.2650167,84.7837149 22.3017689,84.2429278 C15.599647,82.4177712 17.1567056,91.4759554 17.1567056,91.4759554 C17.1567056,91.4759554 23.7911293,108.781143 24.4004131,110.6063 C25.348188,113.715826 28.8007962,112.904645 28.8007962,112.904645 L55,111.958267 L53.5783378,107.496774 L30.6963458,105.671617 C30.764044,105.739216 27.3114358,100.128549 26.4990574,93.3011119" id="Path" fill="#44195E" fill-rule="nonzero"></path>
            <g id="Group" opacity="0.11" transform="translate(17.000000, 85.000000)" fill="#010000" fill-rule="nonzero">
                <g id="Path">
                    <path d="M13.9245283,23.6292683 C9.71320755,21.9219512 7.6754717,17.8243902 5.70566038,13.8634146 C3.53207547,9.49268293 3.1245283,4.64390244 0.81509434,0.341463415 C0.81509434,0.341463415 0.81509434,0.273170732 0.81509434,0.273170732 C-0.40754717,2.45853659 0.203773585,6.07804878 0.203773585,6.07804878 C0.203773585,6.07804878 6.86037736,23.5609756 7.47169811,25.404878 C8.42264151,28.5463415 11.8867925,27.7268293 11.8867925,27.7268293 L35.3886792,26.7707317 L35.8641509,25.3365854 C27.9169811,26.0195122 21.0566038,26.5658537 13.9245283,23.6292683"></path>
                </g>
            </g>
            <path d="M32.5832708,58.6923912 L29.103208,58.1496006 C24.0537051,57.1997172 19.8230405,60.9314021 19.0042022,64.8666335 L15.2511933,76.4687813 C14.7735376,78.8434899 14.7053011,83.6607559 17.5712352,82.507326 C20.4371692,81.3538961 26.3055105,84 26.3055105,84 L29.7855733,69.887446 C30.399702,67.1734933 32.99269,65.3415752 35.5856779,65.8843658 L38.6563216,66.4950051 L38.9292677,65.1380288 C39.4751599,62.4240761 36.8139354,59.506577 32.5832708,58.6923912" id="Path" fill="#3C3132" fill-rule="nonzero"></path>
            <path d="M91.5343092,96.8044693 C91.6050376,96.2636872 93.7976175,82.0005587 93.7976175,82.0005587 C93.7976175,82.0005587 95,81.9329609 95,83.2849162 C95,84.6368715 93.3025188,110.188827 93.3025188,110.188827 C93.161062,110.864804 92.6659633,111 92.4537782,111 C91.5343092,110.932402 91.322124,110.662011 89.4124577,108.56648 C87.2198777,106.200559 87.1491494,110.729609 87.0076926,110.324022 C86.7955074,107.349721 91.0392105,102.212291 91.5343092,96.8044693" id="Path" fill="#322722" fill-rule="nonzero"></path>
            <path d="M93,111.205788 C93,111.205788 92.7923443,112.652733 91.5464102,113 C89.8851647,113 66.9738206,112.710611 66.9738206,112.710611 C66.9738206,112.710611 64.6896081,111.958199 65.0357009,111.032154 C73.549584,110.974277 74.3802068,110.974277 93,111.205788" id="Path" fill="#322722" fill-rule="nonzero"></path>
            <path d="M87.2877089,110.975884 L91.4171771,110.975884 C92.0264429,111.04509 92.4326201,110.975884 92.4326201,110.629856 L93.9896328,83.1552419 C94.057329,82.324775 93.7865441,81.840336 93.3803669,82.0479527 L88.5739367,84.8161758 C88.3708481,84.9545869 88.1677595,85.5082316 88.1677595,86.0618762 L87.0169241,109.868595 C87.0169241,110.422239 86.9492278,110.699062 87.0846203,110.906678" id="Path" fill="#8AA4AC" fill-rule="nonzero"></path>
            <path d="M0.559289085,175.212272 C-0.1975225,173.920398 -0.1975225,172.356551 0.628090138,171.064677 L16.1771282,137.339967 L41.77112,137 L47,173.036484 C47,174.328358 46.7247958,175.620232 45.8991831,176.436153 C45.0735705,177.456053 44.0415547,178 42.7343347,178 L3.99934175,177.660033 C2.41691752,177.524046 1.04089646,176.776119 0.559289085,175.212272 M16.3835313,138.631841 L1.10969751,171.812604 C0.559289085,172.560531 0.559289085,173.648425 1.10969751,174.668325 C1.66010594,175.688226 2.69212173,176.232172 3.72413753,176.232172 L42.4591305,176.572139 C43.4911463,176.572139 44.3167589,176.300166 44.8671674,175.552239 C45.69278,175.008292 45.69278,173.988391 45.69278,173.240464 L40.7391042,138.291874 L16.3835313,138.631841 Z" id="Shape" fill="#CFD6E3" fill-rule="nonzero"></path>
            <path d="M48,137.583636 C48,137.583636 44.5946844,134.655003 42.2790698,131.522047 C39.9634551,128.389091 32.948505,119.194545 26.4784053,116.470236 C19.9401993,113.814034 7,110 7,110 C7,110 7.88538206,121.510209 8.36212625,126.209643 C8.83887043,130.909077 9.04318937,139.013899 18.4418605,139.899299 C27.9086379,140.580377 48,137.583636 48,137.583636" id="Path" fill="#ACB3BE" fill-rule="nonzero"></path>
            <polygon id="Rectangle" fill="#ACB3BE" fill-rule="nonzero" transform="translate(82.200181, 144.367232) rotate(-89.514517) translate(-82.200181, -144.367232) " points="55.3920426 142.278488 109.008357 142.278012 109.00832 146.455976 55.3920055 146.456452"></polygon>
            <path d="M44.8596338,116.428571 L120.140366,117 C121.173496,117 122,116.301587 122,115.285714 C122,114.333333 121.242371,113.571429 120.140366,113.571429 L44.8596338,113 C43.8265039,113 43,113.698413 43,114.714286 C43.0688753,115.730159 43.8265039,116.428571 44.8596338,116.428571" id="Path" fill="#ACB3BE" fill-rule="nonzero"></path>
            <path d="M45,116 C69.4281793,118.567308 94.473925,118.481732 120,116.770193 L45,116 Z" id="Path" fill="#413F3F" fill-rule="nonzero"></path>
            <polygon id="Path" fill="#ECECEE" fill-rule="nonzero" points="88 110 92.6 109.86413 94 85 89.1333333 87.2418478"></polygon>
            <path d="M91.9902465,81.2372801 C91.9136985,81.9630967 91.5309588,82.6889134 91.0716712,82.9308523 C90.5358356,83.1727911 90,82.7695597 90,81.8824504 C90,80.9953412 90.5358356,80.108232 91.1482191,80.0275857 C91.6840547,79.8662931 92.0667944,80.4308172 91.9902465,81.2372801" id="Path" fill="#8AA4AC" fill-rule="nonzero"></path>
            <path d="M91.9881666,80.8073904 C91.9881666,81.3366449 91.7411249,81.7776903 91.4940833,81.9541084 C91.2470416,82.1305266 91,81.7776903 91,81.2484358 C91,80.7191813 91.2470416,80.1017177 91.5558437,80.0135087 C91.8646458,79.9252996 92.049927,80.2781359 91.9881666,80.8073904" id="Path" fill="#322722" fill-rule="nonzero"></path>
            <polygon id="Path" fill="#657F87" fill-rule="nonzero" points="91 82.4 91 84 91.9285714 83.4666667 92 82"></polygon>
            <path d="M89.5294118,106 C89.4117647,106 89.3529412,105.865169 89.1764706,101.146067 C89.0588235,98.988764 89,96.7640449 89,96.7640449 L89.4117647,96.1573034 C89.4705882,98.1797753 89.5882353,101.011236 89.7058824,102.898876 C90.1764706,99.3932584 91.1176471,92.247191 91.6470588,88 L92,88.3370787 C91.6470588,91.1685393 89.8235294,105.258427 89.7647059,105.393258 L89.7058824,105.932584 L89.5294118,106 C89.5294118,106 89.5294118,106 89.5294118,106" id="Path" fill="#009FE3" fill-rule="nonzero"></path>
            <rect id="Rectangle" fill="#706F6F" fill-rule="nonzero" x="137" y="19" width="25" height="41"></rect>
            <rect id="Rectangle" fill="#DADADA" fill-rule="nonzero" x="139" y="26" width="3" height="4"></rect>
            <rect id="Rectangle" fill="#DADADA" fill-rule="nonzero" x="143" y="26" width="3" height="4"></rect>
            <rect id="Rectangle" fill="#DADADA" fill-rule="nonzero" x="148" y="26" width="3" height="4"></rect>
            <rect id="Rectangle" fill="#DADADA" fill-rule="nonzero" x="152" y="26" width="3" height="4"></rect>
            <rect id="Rectangle" fill="#DADADA" fill-rule="nonzero" x="157" y="26" width="3" height="4"></rect>
            <rect id="Rectangle" fill="#DADADA" fill-rule="nonzero" x="139" y="33" width="3" height="4"></rect>
            <rect id="Rectangle" fill="#DADADA" fill-rule="nonzero" x="143" y="33" width="3" height="4"></rect>
            <rect id="Rectangle" fill="#DADADA" fill-rule="nonzero" x="148" y="33" width="3" height="4"></rect>
            <rect id="Rectangle" fill="#DADADA" fill-rule="nonzero" x="152" y="33" width="3" height="4"></rect>
            <rect id="Rectangle" fill="#DADADA" fill-rule="nonzero" x="157" y="33" width="3" height="4"></rect>
            <rect id="Rectangle" fill="#DADADA" fill-rule="nonzero" x="139" y="40" width="3" height="4"></rect>
            <rect id="Rectangle" fill="#DADADA" fill-rule="nonzero" x="143" y="40" width="3" height="4"></rect>
            <rect id="Rectangle" fill="#DADADA" fill-rule="nonzero" x="148" y="40" width="3" height="4"></rect>
            <rect id="Rectangle" fill="#DADADA" fill-rule="nonzero" x="152" y="40" width="3" height="4"></rect>
            <rect id="Rectangle" fill="#DADADA" fill-rule="nonzero" x="157" y="40" width="3" height="4"></rect>
            <rect id="Rectangle" fill="#DADADA" fill-rule="nonzero" x="139" y="47" width="3" height="4"></rect>
            <rect id="Rectangle" fill="#DADADA" fill-rule="nonzero" x="143" y="47" width="3" height="4"></rect>
            <rect id="Rectangle" fill="#DADADA" fill-rule="nonzero" x="148" y="47" width="3" height="4"></rect>
            <rect id="Rectangle" fill="#DADADA" fill-rule="nonzero" x="152" y="47" width="3" height="4"></rect>
            <rect id="Rectangle" fill="#DADADA" fill-rule="nonzero" x="157" y="47" width="3" height="4"></rect>
            <rect id="Rectangle" fill="#DADADA" fill-rule="nonzero" x="139" y="54" width="3" height="4"></rect>
            <rect id="Rectangle" fill="#FFFFFF" fill-rule="nonzero" x="144" y="54" width="7" height="6"></rect>
            <rect id="Rectangle" fill="#DADADA" fill-rule="nonzero" x="152" y="54" width="3" height="4"></rect>
            <rect id="Rectangle" fill="#DADADA" fill-rule="nonzero" x="157" y="54" width="3" height="4"></rect>
            <rect id="Rectangle" fill="#DADADA" fill-rule="nonzero" x="162" y="34" width="34" height="23"></rect>
            <rect id="Rectangle" fill="#FFFFFF" fill-rule="nonzero" x="164" y="37" width="3" height="4"></rect>
            <rect id="Rectangle" fill="#FFFFFF" fill-rule="nonzero" x="169" y="37" width="3" height="4"></rect>
            <rect id="Rectangle" fill="#FFFFFF" fill-rule="nonzero" x="173" y="37" width="3" height="4"></rect>
            <rect id="Rectangle" fill="#FFFFFF" fill-rule="nonzero" x="177" y="37" width="3" height="4"></rect>
            <rect id="Rectangle" fill="#FFFFFF" fill-rule="nonzero" x="182" y="37" width="3" height="4"></rect>
            <rect id="Rectangle" fill="#FFFFFF" fill-rule="nonzero" x="164" y="44" width="3" height="4"></rect>
            <rect id="Rectangle" fill="#FFFFFF" fill-rule="nonzero" x="169" y="44" width="3" height="4"></rect>
            <rect id="Rectangle" fill="#FFFFFF" fill-rule="nonzero" x="173" y="44" width="3" height="4"></rect>
            <rect id="Rectangle" fill="#FFFFFF" fill-rule="nonzero" x="177" y="44" width="3" height="4"></rect>
            <rect id="Rectangle" fill="#FFFFFF" fill-rule="nonzero" x="182" y="44" width="3" height="4"></rect>
            <rect id="Rectangle" fill="#FFFFFF" fill-rule="nonzero" x="164" y="51" width="3" height="4"></rect>
            <rect id="Rectangle" fill="#FFFFFF" fill-rule="nonzero" x="169" y="51" width="3" height="4"></rect>
            <rect id="Rectangle" fill="#706F6F" fill-rule="nonzero" x="173" y="51" width="7" height="6"></rect>
            <rect id="Rectangle" fill="#FFFFFF" fill-rule="nonzero" x="182" y="51" width="3" height="4"></rect>
            <rect id="Rectangle" fill="#FFFFFF" fill-rule="nonzero" x="186" y="37" width="3" height="4"></rect>
            <rect id="Rectangle" fill="#FFFFFF" fill-rule="nonzero" x="186" y="44" width="3" height="4"></rect>
            <rect id="Rectangle" fill="#FFFFFF" fill-rule="nonzero" x="186" y="51" width="3" height="4"></rect>
            <rect id="Rectangle" fill="#FFFFFF" fill-rule="nonzero" x="191" y="37" width="3" height="4"></rect>
            <rect id="Rectangle" fill="#FFFFFF" fill-rule="nonzero" x="191" y="44" width="3" height="4"></rect>
            <rect id="Rectangle" fill="#FFFFFF" fill-rule="nonzero" x="191" y="51" width="3" height="4"></rect>
            <rect id="Rectangle" fill="#575756" fill-rule="nonzero" x="162" y="34" width="35" height="1"></rect>
            <rect id="Rectangle" fill="#575756" fill-rule="nonzero" x="135" y="18" width="28" height="1"></rect>
        </g>
    </g>
</svg>