<svg height="250" viewBox="0 0 250 250" width="250" xmlns="http://www.w3.org/2000/svg" xmlns:xlink="http://www.w3.org/1999/xlink"><mask id="a" fill="#fff"><path d="m.41882668.05948136h40.56878492v75.47385934h-40.56878492z" fill="#fff" fill-rule="evenodd"/></mask><mask id="b" fill="#fff"><path d="m86.057325 127.918716h-79.67528296c-3.34191412 0-6.05139862-2.679177-6.05139862-5.98107v-115.53201637c0-3.30403292 2.7094845-5.98320988 6.05139862-5.98320988h79.67528296c3.34408 0 6.0535645 2.67917696 6.0535645 5.98320988v115.53201637c0 3.301893-2.7094845 5.98107-6.0535645 5.98107z" fill="#fff" fill-rule="evenodd"/></mask><mask id="c" fill="#fff"><path d="m.211211.26169566h70.9967653v108.24130534h-70.9967653z" fill="#fff" fill-rule="evenodd"/></mask><mask id="d" fill="#fff"><path d="m52.327906 7.05948591h-52.02617701v-2.81538894c0-1.99628873 1.60861713-3.61519097 3.59485394-3.61519097h44.83220217c1.9905037 0 3.5991209 1.61890224 3.5991209 3.61519097z" fill="#fff" fill-rule="evenodd"/></mask><mask id="e" fill="#fff"><path d="m.25601334.79336931h16.10323886v11.66038469h-16.10323886z" fill="#fff" fill-rule="evenodd"/></mask><mask id="f" fill="#fff"><path d="m.5490854.66910152h16.1053723v11.66038468h-16.1053723z" fill="#fff" fill-rule="evenodd"/></mask><mask id="g" fill="#fff"><path d="m.45948073.32816714h16.10537237v13.50872076h-16.10537237z" fill="#fff" fill-rule="evenodd"/></mask><mask id="h" fill="#fff"><path d="m.59815462.40311738h16.10323888v10.66760092h-16.10323888z" fill="#fff" fill-rule="evenodd"/></mask><mask id="i" fill="#fff"><path d="m.24798752.39484625h21.52858818v12.49235035h-21.52858818z" fill="#fff" fill-rule="evenodd"/></mask><mask id="j" fill="#fff"><path d="m.77523051.27691298h16.10537239v10.66760092h-16.10537239z" fill="#fff" fill-rule="evenodd"/></mask><mask id="k" fill="#fff"><path d="m.77523051.40311738h16.10537239v10.66760092h-16.10537239z" fill="#fff" fill-rule="evenodd"/></mask><mask id="l" fill="#fff"><path d="m.038402.27691298h16.1032389v10.66760092h-16.1032389z" fill="#fff" fill-rule="evenodd"/></mask><mask id="m" fill="#fff"><path d="m.038402.40311738h16.1032389v10.66760092h-16.1032389z" fill="#fff" fill-rule="evenodd"/></mask><mask id="n" fill="#fff"><path d="m.26320384.12017573h16.10537236v11.66038467h-16.10537236z" fill="#fff" fill-rule="evenodd"/></mask><mask id="o" fill="#fff"><path d="m.15838285.19298173h16.10537235v13.50872077h-16.10537235z" fill="#fff" fill-rule="evenodd"/></mask><mask id="p" fill="#fff"><path d="m.63015629.57904338h25.05303851v13.50872072h-25.05303851z" fill="#fff" fill-rule="evenodd"/></mask><mask id="q" fill="#fff"><path d="m28.9029678 14.7434663c0 8.0173186-6.4643367 14.5165142-14.4434191 14.5165142-7.97908231 0-14.44555251-6.4991956-14.44555251-14.5165142 0-8.01731851 6.4664702-14.51651415 14.44555251-14.51651415 7.9790824 0 14.4434191 6.49919564 14.4434191 14.51651415z" fill="#fff" fill-rule="evenodd"/></mask><mask id="r" fill="#fff"><path d="m17.2635561 8.98694449c0 4.68087891-3.7761967 8.47404191-8.43137253 8.47404191-4.65730929 0-8.43350601-3.793163-8.43350601-8.47404191 0-4.68087894 3.77619672-8.47618619 8.43350601-8.47618619 4.65517583 0 8.43137253 3.79530725 8.43137253 8.47618619z" fill="#fff" fill-rule="evenodd"/></mask><mask id="s" fill="#fff"><path d="m8.05972654 11.9321582-7.97268201-5.22122773 7.97268201-5.92025046z" fill="#fff" fill-rule="evenodd"/></mask><mask id="t" fill="#fff"><path d="m.06131113 11.9321582v-11.14147819l7.97268201 5.92025046z" fill="#fff" fill-rule="evenodd"/></mask><mask id="u" fill="#fff"><path d="m8.03192418 34.8272519 7.31732172-34.09487879 23.9678969 4.34385003s-1.6501719 5.61008226-2.6857824 7.22599446c-.9526766 1.4899406-4.9739075 4.9889118-4.9739075 4.9889118l-13.0652789 19.8818016-2.2945045 10.5642432-10.13494782 29.6120256-5.89681289-2.0741884z" fill="#fff" fill-rule="evenodd"/></mask><mask id="v" fill="#fff"><path d="m12.8187743.53476543c5.2798332-.12197531 7.1205877 6.00674897 7.2428756 9.80510287.1222879 3.8026338-3.4369333 8.215144-3.4369333 8.215144l-5.2798332 2.4502058-10.19065736-15.68987654c-1.54897993-1.58139917-.50846017-4.24987654 1.70559423-4.36329218 3.28031898-.16691358 7.27720203-.35522633 9.95895403-.41728395z" fill="#fff" fill-rule="evenodd"/></mask><mask id="w" fill="#fff"><path d="m16.3980387 13.3714974c2.0520722 0 2.8977874-.2410321 2.8977874-.2410321l.1919204 7.1114938-8.8304481 6.1829963-2.34522525-6.5707435-3.18039544.3856513c-1.10512414.1341395-2.10479751-.6518346-2.22712041-1.7501024l-.24675482-2.2112072-.52303586-1.0835963.48507358-.5931484-.73182839-1.1108434.26995398-1.6809367-1.69986652-.850948c-.35009658-.1760582-.44922031-.6245874-.20668353-.9284974l2.87247917-3.62176868-.36275067-1.80250063 1.32657078-4.44127771s2.81764476.93268928 4.36355316 1.74591049c1.30126259.68746536 2.45700312 1.08778817 3.36598882 5.70512409 0 0 2.4696572-1.99951814 2.8302988.24522392.2298827 1.42523306.1855934 2.34534672-.4218031 2.74986142 0 0 .1202139 2.7603411 2.172286 2.7603411z" fill="#fff" fill-rule="evenodd"/></mask><mask id="x" fill="#fff"><path d="m28.5450789 34.4406734 4.0883224 9.2630752 7.789751 25.8515526-5.4511249 1.4668163-15.2924674-27.3574261-9.669156-26.101085-3.10824669-3.6106247-6.49925455-9.96176584 18.14773864-2.60598578 7.3921845-1.23030303z" fill="#fff" fill-rule="evenodd"/></mask><mask id="y" fill="#fff"><path d="m13.2473208 1.78898034 6.7250998-1.50434385s3.3941133 4.55647005 3.0490205 9.09008002l-11.7057979 2.71376319-10.96511113.0754458s-.59128694-3.00411526 2.36514774-3.43392779c0 0 4.49041396-1.44490169 4.76185885-1.73982624z" fill="#fff" fill-rule="evenodd"/></mask><mask id="z" fill="#fff"><path d="m25.8358166 26.3391079-1.264801 21.2136599 1.3797829 15.6201049s-12.1838234 1.3978495-25.51533647-.4659498l.68776213-12.5892739s-.53658222-22.0830014-.1554385-23.666368c1.0518715-4.3747511-.43650538-12.1297955 4.2117446-18.55817732 2.07606218-2.87120006 10.19080364-7.46598301 10.19080364-7.46598301s6.4475039 5.46843887 8.3958084 11.15259523c1.9525631 5.6841564 2.0696743 14.759392 2.0696743 14.759392z" fill="#fff" fill-rule="evenodd"/></mask><mask id="A" fill="#fff"><path d="m23.3975167 19.8272562-1.2483147 21.1757106 1.3617979 15.5921619s-10.5497309 1.2252369-22.70083521-.1507321c3.14180232-4.5391904 5.77082887-9.4229113 7.5003963-14.9031008 1.89558911-6.0099052 2.45670031-11.9013781 2.37474021-18.1890611-.0924678-7.1791559-.603142-14.66192941 3.3393471-20.96468565.0756554-.1205857.1260924-.24117141.1786309-.36175711 1.5089057-.59646856 3.0157099-1.21877691 4.5393264-1.79371231 1.073887 1.5116279 2.0426969 3.17614125 2.6122142 4.86218776 1.9271122 5.67398791 2.0426969 14.73298881 2.0426969 14.73298881z" fill="#fff" fill-rule="evenodd"/></mask><mask id="B" fill="#fff"><path d="m15.2211922.5342887c7.8342539-.83361823 11.3807519 7.45649573 12.1464226 11.9602279l6.3517601 39.8381767-2.2504283.3509971-6.3495186-39.827208c-.0754574-.4343589-1.9752085-10.93575495-9.6541089-10.0801994-9.0016244.96304843-10.08909874 10.78-10.12904678 11.1990028l-2.99388344 39.9215385-2.27038011-.1667236 2.99388345-39.9478633c.01331601-.1447863 1.29609187-12.08307691 12.15529998-13.2479487z" fill="#fff" fill-rule="evenodd"/></mask><mask id="C" fill="#fff"><path d="m13.0009189 7.52275761 7.2643296 24.66495889.0064362.0614156c-3.2910459 1.2195391-8.5451343 1.3643045-8.5451343 1.3643045s-11.1217617-20.7891934-11.34488346-25.41730039.45911593-7.06499177 5.05027526-8.06080246c4.6683938-1.01335803 7.5689767 7.38742386 7.5689767 7.38742386z" fill="#fff" fill-rule="evenodd"/></mask><mask id="D" fill="#fff"><path d="m6.20539555.05051436h.01165056c4.20626829.00688426 6.78387279 7.47224325 6.78387279 7.47224325l7.2643296 24.66495889.0064362.0614156c-3.2910459 1.2195391-8.5451343 1.3643045-8.5451343 1.3643045s-11.1217617-20.7891934-11.34488346-25.41730039c-.02053536-.42595492-.03340166-.8333486-.03625729-1.22276587v-.32196332c.02795745-3.63719926 1.03589685-5.63750077 5.08653255-6.51607327.26352066-.05720186.52140845-.08440691.77345961-.08481939z" fill="#fff" fill-rule="evenodd"/></mask><mask id="E" fill="#fff"><path d="m5.48762463.13096296c4.71970277-.98864197 7.64865007 7.2072428 7.64865007 7.2072428l3.2433052 10.62897124c-3.6118626.9544032-7.23456504 1.8681481-10.8746114 2.7262551-2.59074175-5.2320988-5.01454867-10.6246914-5.11861194-12.69613169-.22547041-4.51522634.46611672-6.89481481 5.10126807-7.86633745z" fill="#fff" fill-rule="evenodd"/></mask><mask id="F" fill="#fff"><path d="m4.95383989.34406584 3.70326381 1.07160494 2.583084 5.97102881-3.2961348 3.95456791-5.65610292-1.94502059-1.73892387-2.9981893c-.26221868-.44938271-.23461671-1.00938271.07130508-1.43111111.69004916-.95176955 1.909136-3.03736625 2.9971135-4.24493827.33812409-.37333333.85336079-.51851852 1.3363952-.37794239z" fill="#fff" fill-rule="evenodd"/></mask><mask id="G" fill="#fff"><path d="m1.56137176.49002704 1.38907599 2.26389183 1.11217617 5.61834215-3.70496546-5.36587889s-.46226252-2.18111699 1.2037133-2.51635509z" fill="#fff" fill-rule="evenodd"/></mask><mask id="H" fill="#fff"><path d="m2.81823286.47496571 23.22208624 13.03369339c1.1072332 4.0487826-2.544507 8.226166-8.5107903 5.3776578l-17.29200092-14.08179015z" fill="#fff" fill-rule="evenodd"/></mask><mask id="I" fill="#fff"><path d="m17.4847473.07842916 5.9024043 1.41958848s.8809877 3.71659024-.7188689 7.51802469l-12.81378473-1.08848913-9.82311945-3.21373309s.26664277-2.76261023 3.23810973-2.25975309c0 0 4.73344236.08484421 5.07687824-.08691358z" fill="#fff" fill-rule="evenodd"/></mask><mask id="J" fill="#fff"><path d="m30.6561459.02687335c2.4171463 0 4.3755325 1.95609472 4.3755325 4.36724565l.002164 17.3115461c0 2.4133076-1.9605502 4.3672457-4.3776965 4.3672457h-25.58885862c-2.41714631 0-4.37553253-1.9539381-4.37553253-4.3672457v-17.3115461c0-2.41115093 1.95838622-4.36724565 4.37553253-4.36724565z" fill="#fff" fill-rule="evenodd"/></mask><mask id="K" fill="#fff"><path d="m30.8905031.03175126c2.2894725 0 4.1418245 1.80466392 4.1418245 4.03209876v8.77091908c0 1.7394604-1.3416568 3.1991769-3.1204341 3.3821673-3.944904.4038409-10.5493181 1.0348423-13.3494858 1.0348423-3.0923026 0-10.47357934-.6541381-14.72143807-1.057979-1.79176109-.1703703-3.14856569-1.6321902-3.14856569-3.386374v-8.74357568c0-2.22743484 1.85235205-4.03209876 4.14182456-4.03209876z" fill="#fff" fill-rule="evenodd"/></mask><mask id="L" fill="#fff"><path d="m8.14831525 2.68024927c.25891932.43042915-.24441984.91673133-.5924074.68703115-.13463805.32696061-.67733294.44491476-.84511266.02069371l-.33763079-.57528512-.18849326-.24625515c.13878075.23590829.34384485.4490535.42462768.70979424.07456876.23383892-.00414271.49251029-.24441984.59390947l-.03728438.01034685c.07249741.55666079-.0227849 1.18161082-.14499482 1.6534274-.2962037 1.17126396-1.24695544 1.74034097-2.18113634 2.38598471-.6151923.41801294-1.32359556 1.03882422-2.08792539.65185185-.23820577-.12209288-.46812613-.31454438-.6607621-.54631393l-.06214064.10346855c-.33348808.48009406-1.06053353-.07242799-.72290274-.55045268.14085211-.20279835.22163494-.44284538.27756151-.69737801l.00621407-.32282187.08492553-.21314521c.03107032-.21314521.06006928-.42422104.10771044-.61460317.19470733-.81740153.43084175-1.6389418.69183242-2.43978836.36870111-1.11952969.87825433-1.75689595 1.95950141-2.25561435.79332879-.36420928 1.87871857-.9043151 2.7797578-.71393298 1.13303094.24004703 1.27388305 1.52098766 1.7730795 2.3590829z" fill="#fff" fill-rule="evenodd"/></mask><mask id="M" fill="#fff"><path d="m17.7728742 4.74240741c.5464156.58333333.3881871 1.48518518-.51477 1.71111111-3.6856686.93148148-8.98315784.6537037-14.00005528.59074074-1.6265887-.02222222-3.46836812-.74444445-2.81857653-2.99259259.23839757-.82407408 1.0253205-3.38333334 2.16034608-3.81296297.35865121-.13888889-.18143531.67777778.16877704.91111111l.10126622.06666667c.44936886.2962963.56329336.73518519.46202714 1.12407408.49789226.07777777.94726113.4037037.96624854.97037037.01265828.44629629 1.79958517.62592592 2.15190723.66296296.85654347.0962963 1.70675779.09259259 2.55697212-.02962963 2.21097924-.31296296 7.07175784-1.00740741 8.76585744.79814815z" fill="#fff" fill-rule="evenodd"/></mask><mask id="N" fill="#fff"><path d="m1.49414277 5.87111111c-.28010362-.12037037-.54620207-.26111111-.79596114-.42037037-1.37250777-.8962963.06769171-2.66851852.09336788-3.82777778.03034456-1.30925926 2.57461917-1.31666666 2.58395596-.02592592.05602072-1.11666667 2.1754715-1.35370371 2.52793523-.23703704 1.00603886 3.18518519 3.86309585 2.84814815 7.9245984 4.43888889.2964431.11296296-2.2244896.44444444-2.3295285.45185185-2.87339633.21481482-7.22200513.81666667-10.00436783-.37962963z" fill="#fff" fill-rule="evenodd"/></mask><mask id="O" fill="#fff"><path d="m6.27298045 1.57197531c.2817513 1.91419753.15941192 6.42962963-.02409715 8.34166667-.29101943 3.06358022-1.4588044 8.96820992-4.33563342 6.63703702-1.76465285-1.4324074-1.70162953-4.4808642-1.53665673-7.07345678.15755829-2.46512345.82857124-7.11018518 2.39117875-8.6787037.56906348-.57253087.24467876 1.53395062.4059443 2.29876543.74330441-.20308642 1.52553498-.19444444 2.25586399-.11018518.38555441.04537037.75442617-2.02870371.84340026-1.41512346z" fill="#fff" fill-rule="evenodd"/></mask><mask id="P" fill="#fff"><path d="m5.54667134 1.36401646c.56943419 1.28058528.70586114 3.61232739.70586114 4.32870599-.00395441 1.9688706-.41323524 4.27720165-1.84868394 5.49925925-2.51104663 2.1350892-4.22330363-1.56854137-3.84763523-4.1203475.25901347-1.74178326.70586114-3.44142661 1.32867979-5.0497668.20760622-.53377229.52198135-1.76987654 1.06175751-1.9688706.30844352-.11003201 1.2397057.57123 1.1467772.63209877.6623627-.44481025 1.12898239-.05150435 1.45324353.67892089z" fill="#fff" fill-rule="evenodd"/></mask><mask id="Q" fill="#fff"><path d="m21.9114239 20.925993c-.3708047 2.3735902-.9325627 4.7256219-1.656409 7.0496276-1.8073953 5.8164817-2.917589 11.839925-4.8004775 17.6456275-1.496541 4.6329204-3.1085423 9.1903861-4.3031107 13.9116963-2.36693288 9.3499189-3.74357304 18.8227213-3.77909924 28.4636799-.00444077 1.5047829-1.27450234 2.6452272-2.77770458 2.6969676-.63503078.0215585-1.24119653-.0625196-1.86956615-.1681563-1.17902569-.1940264-2.05163792-1.5177179-2.04275637-2.5999544.0355262-3.9107108-.53289296-7.7977073-.65723465-11.7041065-.11768053-3.7468662.21981834-7.5540963.58396187-11.2858717.67055698-6.9483026 2.47795229-13.6810204 3.54151783-20.5689593.50402793-3.2467092.75937248-6.5322237.55731723-9.8134265-.20649603-3.3458783-.76159287-6.6572631-.99917431-9.9988297-.29087075-4.1133606-.06661162-8.4336829.40189011-12.5297968.23758144-2.08039467.51512986-4.22762069 1.25451885-6.20669046.65501427-1.73330293 1.66751091-3.69512591 3.51043241-4.48632264.81266177-.34709176 1.6963759-.42470234 2.4579688-.14875361l.5306726-.3621827c1.7452244-1.03049603 4.041105-.79550844 5.892908-.17893551 1.1412791.3794295 2.315864.90114506 3.2861733 1.64060141.1909533 1.71174444.464061 3.40839793.7726948 5.10073973.8259841 4.50141358.7993394 9.05241168.0954767 13.54304608z" fill="#fff" fill-rule="evenodd"/></mask><mask id="R" fill="#fff"><path d="m22.2032466 13.2934237c-.0746029.7286771-.1470743 1.4616659-.2152827 2.1924988-.2429925 2.6236688-.6309277 5.2387141-1.180858 7.8106425-.5307466 2.4792268-1.281039 4.895934-1.9162298 7.344979-1.2959596 4.9907914-2.3382692 10.0548817-3.8665637 14.9809976-1.438771 4.6307645-2.9883806 9.1903861-4.1351344 13.9095404-2.27219238 9.3520748-3.59373016 18.8227213-3.62783437 28.4636799-.00426302 1.5047829-1.22135669 2.6430714-2.6665222 2.6991235-.60108654.0215585-1.17659493-.0625196-1.77128693-.1660004l-.02557815-.0043117c-1.13183317-.1940264-1.96525458-1.5155621-1.95672853-2.5999544.03197269-3.9107108-.51369453-7.7955515-.63305923-11.7041065-.11083865-3.751178.21101974-7.5519405.55845629-11.2837159.64797982-6.9526143 2.38303104-13.6831762 3.40402555-20.5689593.47959033-3.2467092.72471427-6.5343796.53287814-9.8134265-.19823067-3.3458783-.72897729-6.6594189-.95704914-10.0009855-.28349117-4.1112048-.06607689-8.4293712.38367226-12.5297968.23020336-2.08039471 2.80507052-9.90181641 4.57422594-10.69301314.70339915-.31259817 1.46221757-.40745554 2.13790707-.21989664l.2216773.07114303.5094315-.3621827c1.6753689-1.02834018 3.8772214-.79550844 5.6570344-.17893551 1.8224432.63381973 3.7408045 1.64706896 4.6808015 3.43211228l.1556004.32768911.1875731-.31475401c.6138757-1.01540508 2.0675672-.33200081 1.9609916.63381973l.0724714.04311698c.5073.0258702 1.0146.36218271 1.0593618 1.01324923.1897046 2.74655216-1.4494286 5.35728584-3.1439811 7.51744694z" fill="#fff" fill-rule="evenodd"/></mask><mask id="S" fill="#fff"><path d="m25.1800692 12.8309689c.5801318 2.022123 1.1990828 4.1102072 1.541986 6.1818012.2674213 1.6160493.1186143 3.0074184-1.3759259 3.8443011-1.6756966.9358245-3.9121153 1.4284722-5.7624984 1.9602844-4.0005369 1.1605048-8.1477242 1.9417328-12.33373073 2.0633488-1.34788978.0391644-4.6496806.2906415-5.74740204-.5895283-.99204688-.7977182-1.00067337-3.7391754-1.21633574-4.9759479-.23075873-1.3130401-.29761406-2.638448-.25448159-3.9638558.06254209-1.9870812.28683095-3.9968365.68580632-5.950937.57581852-2.81777998 1.72098568-6.39617504 4.42539174-7.97718253l.10351794-.05771605c1.35651628-1.48618828 3.06887546-2.59722223 5.2535352-2.97649912 2.3852258-.41638007 4.6432108.05359347 6.6208346 1.0862985 2.0509491 1.06568563 3.7956577 2.7332672 5.0766921 4.64408069 1.3823958 2.06128748 2.3054307 4.36168431 2.9826105 6.71155201z" fill="#fff" fill-rule="evenodd"/></mask><mask id="T" fill="#fff"><path d="m6.89380543 8.8144856c-1.2586127 1.465679-4.01866321 2.0625514-5.19756995-.03917696-.55423446.02995885-1.12885881-.68444444-.93237435-1.81135802l.05560881-.33415638.09268134-.58304527c.09453498-.68213992.15755829-1.37119341.22058161-2.06024691.0278044-.28115227.05004793-.55539095.07970596-.83423869v-.54386831c-.00741451-.40790123.06673057-.72823045.18721632-.96098765l.0278044-.16823046.07599871-.4309465c.30584844-1.53942387 1.51997409-1.23983539 1.74611658.00691358.2131671.14979424.40038342.4309465.50047927.87341564l.04634068.2235391c.06116968.3364609.09453497.68213991.10565673 1.03473251l.01112176.00460905.02595078.01843621c.32067746-.28806584.74886529-.26271605 1.03617746.14979424l.41150518-.06683127.09268135-.20279836.11121762-.42403292c.38370077-1.00707819 1.4106101-.63604938 1.62192357.46320988.0481943.23045267.05746244.49777777.01482902.78584362-.04448705.33185185-.07414508.66600823-.0889741 1.00477366.01668265.2673251.03336529.53234568.05004793.80197531v.00230453c.02965803.47934156.05746244.96098765.0685842 1.44263374.08897409.56921811.00185363 1.21909465-.36331088 1.64773663z" fill="#fff" fill-rule="evenodd"/></mask><mask id="U" fill="#fff"><path d="m13.0381684 1.26528807c.220275 1.61296296-.2179316 3.19074074-2.0129381 4.26296296-1.60285185.95740741-4.12664046 1.1462963-6.02241109.78518518-2.24727323-.43148148-4.0610266-1.6574074-4.97962004-3.29629629l.11013748-.05370371c1.47631088-1.33518518 3.33693126-2.33333333 5.70840207-2.67222222 2.59408912-.37592592 5.04757718.0462963 7.19642968.97407408z" fill="#fff" fill-rule="evenodd"/></mask><mask id="V" fill="#fff"><path d="m6.40382798 2.31813443c-.0481943.3138546-.07599871.63209877-.09082772.95473251.01668264.25679012.03521891.50919067.05190155.76378601v.00219479s-2.05196502 4.62441701-6.27638083.30727023c.02595078-.26556927.27062954-2.49108368.29843394-2.75445816l.00370726-.51796982c-.00926814-.39067216.06487694-.69355282.18350906-.91303155l.02965804-.16021948 2.36893523.64087791 1.79245725.4872428 1.6237772.44115226c.0481943.21728395.05746244.47407408.01482902.7484225z" fill="#fff" fill-rule="evenodd"/></mask><mask id="W" fill="#fff"><path d="m12.7307098 1.07397779c2.607893 1.38831756 2.3110075 5.6754422 3.071376 8.33656931.623673 2.1724393.4912493 4.3493213.3118365 6.5883998-.1644617 2.0569313-.608722 3.8406417-2.3131434 5.0779104-1.6851986 1.2172768-3.3789407 1.5149321-5.22219341.5242287-1.99489925-1.0706705-3.93640184-2.2013164-4.9509384-4.3915261-.29047783-.6308515-.47629821-1.2750309-.59590673-1.9303168l-.03417387-.0133278c-1.36268278-.5930893-2.51177892-1.672645-2.73390903-3.2386673-.06621186-.4798025.33105929-.937392.72833045-1.0862196.53183074-.1954751 1.06793322-.151049 1.58054116.0844097l.06621186.0333196c-.04058146-.4064994-.09184225-.8152201-.16873345-1.22171944-.36950489-1.93698067-1.33918825-3.95392843-.43998848-5.79317154.96754749-1.97696421 3.69504893-2.07470177 5.57033966-2.34570136 1.09569949-.15993418 2.50323544-1.1528589 3.63310884-1.04845742.5830915.0555327 1.0786125.19991773 1.4972423.42426985z" fill="#fff" fill-rule="evenodd"/></mask><mask id="X" fill="#fff"><path d="m10.1568542 16.326457.004641.271084c.0069614.5379323.0116023 1.0716289-.0162433 1.6074433-.18795777 3.6786945-.97459586 7.6560049-1.91206425 11.1271507-.4548114 1.6815679-.89337953 3.3991391-1.03956891 5.1781278-.48729793 5.4174442-1.61736503 10.7734709-2.70566373 16.0617265-.47801606 2.3275103-.98387772 4.6465491-1.51294404 6.9549987-.26453316 1.1499891-.64276917 3.0539306-2.09306062 2.2533857-.87249534-.4828684-.81216322-1.6879214-.81912462-2.6811901-.01856373-1.9018237-.03944792-3.8057651-.03016606-5.7054709.01624327-3.5791558.13458705-7.1583117.53138679-10.7099355.68685803-6.1120969 1.64985155-12.3322038 1.85869352-18.4188865.17635544-5.1294174.4617728-10.1720033 1.77515674-15.1044612.51050259-1.91876638.84232927-3.77611529 2.03968989-5.30731628.38983835-.49769326 1.77979767-2.14961134 2.42488731-1.59897198 1.83780928 1.59050061 1.46421428 14.16625636 1.49438028 16.07231576z" fill="#fff" fill-rule="evenodd"/></mask><mask id="Y" fill="#fff"><path d="m34.3993383 11.221384c-2.0134403 1.8379487-4.2072204 3.7716239-6.7234904 4.6246534-2.2107532.7466666-4.5275886 1.3082621-6.7659232 2.0038746-3.3012783 1.0317189-6.5070827 2.9845394-10.1754054 3.1334473-.3415847.0106363-2.78784046 1.5422602-2.94908541 1.7422222-1.69519369 2.0953466-3.95050144 4.0864578-5.89817079 3.4801899-.54950583.7594302-1.63790929-7.3092497-1.19872895-8.4728585.88472562-2.3548717 6.41585196-3.4546628 8.49081996-4.0120038 3.36280599-.9019563 6.79986959-1.5209876 10.26451449-1.8379487 2.5608245-.2339981 4.960404.2680342 7.005669-1.4997151 2.2489428-1.94005695 4.6124544-3.74184232 7.107508-5.35642922 2.5841626-1.67415005 5.5396129-3.69716999 8.5587125-4.46298195.7383322-.18932574.727724-.32334283 1.3939203.02127255 1.9688858 1.01470085-1.9688858 3.88649573-2.8769495 4.78845204-1.6251795 1.6145869-3.2906701 3.18875594-4.996472 4.72037988-.4031124.3658879-.816833.7424121-1.2369186 1.1274454z" fill="#fff" fill-rule="evenodd"/></mask><mask id="Z" fill="#fff"><path d="m.98184766 1.21975309v.00411522-.01234568z" fill="#fff" fill-rule="evenodd"/></mask><mask id="aa" fill="#fff"><path d="m26.973179 41.3190471c.1362409.4060593.2536176.8163048.3584183 1.2286434.1299528 1.5028381.2452336 3.0056762.3206901 4.5127004-1.081543.8309565-2.622113 1.3437634-3.6826958 1.6074926-2.0939175.5232723-4.2926357.5023414-6.4284735.3307081-3.5024386-.2846601-6.9839171-1.1198028-10.34592284-2.109834-1.48816961-.4416418-5.93381431-1.0737548-5.82901364-3.2087058.05030433-1.0256137.80277319-2.0386689 1.14861542-2.9826522.69168447-1.8879665 1.38336893-3.7738399 2.07295739-5.6618064 1.05639082-2.884277 1.18005562-5.3101675.52190737-8.3535193-.78600508-3.635696-2.26369462-7.0746417-3.10838808-10.6977792-.43177879-1.854477-.68749244-3.7152334-.93272602-5.6011068-.18235318-1.38143893-.87613366-2.69589898-.75246886-4.11710659.09012858-1.04235845.59317183-1.55725841 1.54056995-1.9675039 1.75645934-.75769831 3.53387882-1.47981411 5.2505139-2.3191429.75666089-.36629062 1.72082712-1.24538811 2.58648071-1.2265503.3919545.00837235.771333.07953739 1.1611915.25954306.9515901.43117639 1.6223145 1.19096779 2.783506.95654179.6434761-.12977153 1.1800556-.56094792 1.7396912-.90421455.9977024-.61118207 1.9136604-.44792111 3.0056834-.24070527 1.7250192.32652193 3.7665363.25535689 5.5418598.77444303-.471603 3.59802043.1781611 7.02440755 1.1150792 10.52405283.4338748 1.620051.8887097 3.2401021 1.1716716 4.8957357l.0607844.3725699.012576.1151199c.0377283.4248971.0733605.8497943.0796486 1.2746914.004192.374663-.0083841.7493259-.0356323 1.1218958-.0146721.2134951-.0461123.4269902-.0565923.6383922v.0753513l-.0188642.1025613c-.5847877 3.4494111-1.6851948 6.8150987-1.8486629 10.3293955-.0859576 1.8440117.1466999 3.7822123.7440638 5.5320349.5491555 1.6033064 1.2806643 3.1354477 1.8235318 4.7387541z" fill="#fff" fill-rule="evenodd"/></mask><mask id="ab" fill="#fff"><path d="m24.7565113 25.3659541c-.4904672 2.3745388-.612036 4.8399993-.2578097 7.242026.1362409.9155612.3479383 1.8184357.4925632 2.7318825.0670724.422892.1278568.850013.1865452 1.272905l.0461123.3319703c.0314402.2410484.0607844.4863258.0922246.7273742.2263695 1.7571164.4464509 3.5100039.7881011 5.2480901.0817445 1.0931759.161393 2.1884662.2137934 3.2837566-1.081543.8394407-2.624209 1.3595979-3.6805998 1.6281343-2.0960135.5265006-4.2926357.505356-6.4305695.3298558-3.5003426-.2833377-6.98391712-1.1291217-10.34592283-2.1334903-.6497642-.1945303-1.87174009-.4271209-3.02664355-.8056093-1.48188157-.4884403-2.86105847-1.2200435-2.8023701-2.4337436.05030433-1.033971.8048692-2.0594842 1.15071144-3.0109913.68958845-1.9093575 1.38127291-3.8123716 2.07086137-5.7196146 1.05429481-2.9137261 1.18215163-5.3643854.52190737-8.4388105-.35003426-1.6387066-.84050143-3.2372384-1.34564069-4.8294269.58688379-1.4674353.99979845-2.9983045 1.1611915-4.5735773l.00209601-.0211446c.05449635-.5476452.07964851-1.1037482.07126446-1.6619657-.02305615-1.695797-.33745818-3.4211965-.60784392-5.0852766-.34793825-2.1271469-.89918981-4.73004733-2.17566205-6.59500117.83211737-.36157269 1.66633076-.71680199 2.4942561-1.08260359l.43177879.36157268c3.08742794 2.30476155 7.1453101 3.02790692 10.8741182 2.29207479 2.8275223-.55821748 5.1520013-2.18212286 6.7806038-4.40442047.6644363.11840977 1.3079125.2812232 1.9073723.53918734.0754565 2.80377414-.0817445 5.61812059.9956065 8.28445482 1.2995283 3.2139794 4.0872263 7.0348089 2.8966907 10.6780237-.29973.9261335-.9641663 1.4801221-1.4231932 2.2624724l-.0565924.0909217-.0104801.0190302c-.3039219.5518741-.5114273 1.2158146-.6728203 1.8882129-.1341449.5434162-.2368495 1.0910614-.3416502 1.5837306z" fill="#fff" fill-rule="evenodd"/></mask><mask id="ac" fill="#fff"><path d="m4.86595609.76291724-.05354922.1303155-.01235752.0251486c-.29658031.78189301-.50253886 1.71467764-.65906736 2.6611797-.8938601.07773206-2.03487046-.2171925-3.48069948-1.14311842 1.67238342.38866026 3.10791451-.50983082 4.20567358-1.67352538z" fill="#fff" fill-rule="evenodd"/></mask><mask id="ad" fill="#fff"><path d="m6.92830054 8.81485776c.81885834 3.61166574.99367079 9.57309004 0 11.90761854-.74985341 1.7601431-2.7808981 7.2081016-3.7354661 9.777606-1.62621584-.5025872-3.13742349-1.2553802-3.0730189-2.5020576.05290376-1.0660941.88326292-2.119134 1.26048979-3.1003757.75905407-1.9646592 1.51810814-3.9227912 2.27256189-5.8852747 1.16158274-2.9981177 1.29959257-5.5197567.57504096-8.6832278-.38412736-1.68616922-.92006554-3.33100014-1.47900536-4.96930395.64634604-1.50993738 1.09947832-3.08514582 1.27429078-4.70604402-.0322023.52869566.23921704 6.42049741 2.90510694 6.76208267 2.70959303.34376095 4.54512376 0 4.54512376 0s-2.04714581 1.93637502-4.54512376 1.39897656z" fill="#fff" fill-rule="evenodd"/></mask><mask id="ae" fill="#fff"><path d="m1.77509495.07876543c1.05471373.12037037.26692228 1.05740741.05004793 1.49814815l.01112176.29444444c-.58945337.11481482-1.1214443.26111112-1.55890026.48148149l-.20575259-.41296297c-.18165544-.5074074.05560881-2.05555555 1.70348316-1.86111111z" fill="#fff" fill-rule="evenodd"/></mask><mask id="af" fill="#fff"><path d="m5.01128456 9.72016461c.39741762.02972108.49825492.79561039.05140725.99908549-.8620601.4023777-1.71225699 1.4311843-2.71074404.8870599-.79681243-.434385-1.30693057-1.63465934-1.69643938-2.48513945-.53582176-1.16140832-.55361658-2.06447188-.18387979-3.29218107.26494508-.87791495.56350259-1.76040237.88183213-2.60859625l.27878549-.61271147.05733886-.24234111.18190259-.28577961c.10479171-.26291724.18585699-.52812071.1937658-.8001829.02372643-.64471879.89171814-.64700503.86799171 0l-.01186321.13260174c.28076269-.07544582.56547979-.09373571.81658445-.04115226.80669845.173754.98662384 1.1911294 1.20609327 1.96844993.33810155 1.19341564.73156477 2.32967535.28076269 3.55738454-.18387979.49839964-.47057409 1.10882488-.85019689 1.55006859l.01977202.03200732c.12851814.24919981.03756684.53269318-.15422176.68815729-.21156062.17146776-.49430052.22633745-.73551917.33836305l.2866943-.08916323c.20365181-.07315958.40730363-.15089163.58920622-.2789209.37369119-.26291724.71970155.20347508.63072746.5829904z" fill="#fff" fill-rule="evenodd"/></mask><mask id="ag" fill="#fff"><path d="m.51798575 12.2265661.1709456-5.2652035v-2.64060357l1.80419689-.05258345v7.76863282zm1.07304404-8.71970739c-.76204663 0-1.19661917-.49839963-1.19661917-1.41289438 0-.77732053.40367876-1.38317329 1.18014249-1.38317329.76204663 0 1.19867876.48468221 1.19867876 1.38317329 0 .79332419-.40573835 1.41289438-1.18220208 1.41289438z" fill="#fff" fill-rule="evenodd"/></mask><g fill="none" fill-rule="evenodd"><path d="m-10.211292-10.763316h61.8290222v97.1194541h-61.8290222z" fill="#2b474c" mask="url(#a)" transform="translate(129.854922 125.234568)"/><path d="m-10.4986311-10.2771687h113.4387951v148.8954737h-113.4387951z" fill="#19303b" mask="url(#b)" transform="translate(105.139896 24)"/><path d="m-10.4560114-10.4595113h92.3312101v129.6837193h-92.3312101z" fill="#e6e8e8" mask="url(#c)" transform="translate(115.025907 34.699588)"/><path d="m-10.3654934-10.0923009h73.3606218v27.8729937h-73.3606218z" fill="#19303b" mask="url(#d)" transform="translate(124.423222 200.608219)"/><path d="m-10.411209-9.92783761h37.4376836v33.10279851h-37.4376836z" fill="#2b474c" mask="url(#e)" transform="translate(144.89413 78.38646)"/><path d="m-10.118137-10.0521054h37.4398171v33.1027985h-37.4398171z" fill="#0069b3" mask="url(#f)" transform="translate(124.902965 77.584416)"/><path d="m-10.2077417-10.3930398h37.4398172v34.9511346h-37.4398172z" fill="#aedcf7" mask="url(#g)" transform="translate(144.103965 92.594105)"/><path d="m-10.0690678-10.3180895h37.4376837v32.1100147h-37.4376837z" fill="#000" mask="url(#h)" transform="translate(161.171521 125.559771)"/><path d="m-10.4192349-10.3263607h42.863033v33.9347642h-42.863033z" fill="#0069b3" mask="url(#i)" transform="translate(120.156333 92.111443)"/><g fill="#7ab929"><path d="m-9.89199187-10.444294h37.43981707v32.1100148h-37.43981707z" mask="url(#j)" transform="translate(141.970521 113.553857)"/><path d="m-9.89199187-10.3180895h37.43981707v32.1100147h-37.43981707z" mask="url(#k)" transform="translate(141.970521 125.559771)"/><path d="m-10.6288204-10.444294h37.4376837v32.1100148h-37.4376837z" mask="url(#l)" transform="translate(123.559685 113.553857)"/><path d="m-10.6288204-10.3180895h37.4376837v32.1100147h-37.4376837z" mask="url(#m)" transform="translate(123.559685 125.559771)"/></g><path d="m-10.4040185-10.6010312h37.4398171v33.1027985h-37.4398171z" fill="#92d2f4" mask="url(#n)" transform="translate(163.304965 71.151692)"/><path d="m-10.5088395-10.5282252h37.4398171v34.9511346h-37.4398171z" fill="#44195e" mask="url(#o)" transform="translate(162.825223 84.819184)"/><path d="m-10.0370661-10.1421635h46.3874832v34.9511345h-46.3874832z" fill="#0069b3" mask="url(#p)" transform="translate(135.570187 62.574726)"/><path d="m-10.6532262-10.4942548h50.2234164v50.4754422h-50.2234164z" fill="#e6e8e8" mask="url(#q)" transform="translate(139.837076 70.66903)"/><g fill="#44195e"><path d="m-10.2685448-10.2104486h38.1993233v38.392642h-38.1993233z" mask="url(#r)" transform="translate(118.502631 37.645874)"/><path d="m-10.5801778-9.93052692h29.3071267v32.58389212h-29.3071267z" mask="url(#s)" transform="translate(157.694797 38.988071)"/><path d="m-10.6059112-9.93052692h29.3071267v32.58389212h-29.3071267z" mask="url(#t)" transform="translate(175.625889 38.988071)"/></g><path d="m-10.3666424-10.1272519h60.3163364v98.3360789h-60.3163364z" fill="#f6b075" mask="url(#u)" transform="translate(145.507772 139.226337)"/><path d="m-10.311186-10.1666206h41.1029331v41.8714272h-41.1029331z" fill="#623f16" mask="url(#v)" transform="translate(159.512953 52.806584)"/><path d="m-10.4271627-10.3146184h40.4599869v47.2192287h-40.4599869z" fill="#f6b075" mask="url(#w)" transform="translate(156.217617 60.213992)"/><path d="m-10.2272159-10.694306h61.2804868v92.5656587h-61.2804868z" fill="#f6b075" mask="url(#x)" transform="translate(160.336788 144.987654)"/><path d="m-10.2188587-11.1465478h43.7860391v34.7416575h-43.7860391z" fill="#4e4b9a" mask="url(#y)" transform="translate(180.932642 211.654321)"/><path d="m-10.2110107-10.3587548h46.8082606v84.8207288h-46.8082606z" fill="#e87d04" mask="url(#z)" transform="translate(160.336788 79.144033)"/><path d="m-9.69753537-10.5345009h43.71621427v78.398708h-43.71621427z" fill="#dd6d19" mask="url(#A)" transform="translate(162.80829 85.728395)"/><path d="m-11.0246682-10.4927914h55.84072v75.3582767h-55.84072z" fill="#945d32" mask="url(#B)" transform="translate(159.512953 83.259259)"/><path d="m-10.3821988-10.9165638h41.3808913v55.4970786h-41.3808913z" fill="#f6b075" mask="url(#C)" transform="translate(169.398964 85.728395)"/><path d="m-10.3821988-10.9165638h41.3808913v55.4970786h-41.3808913z" fill="#020203" mask="url(#D)" transform="translate(169.398964 85.728395)"/><path d="m-10.490748-10.6513761h37.7102299v42.0443967h-37.7102299z" fill="#dd6d19" mask="url(#E)" transform="translate(170.222798 85.728395)"/><path d="m-11.1307919-11.2313185h33.8717989v34.0952197h-33.8717989z" fill="#f6b075" mask="url(#F)" transform="translate(156.217617 98.897119)"/><path d="m-11.1433644-9.85682775h26.6481299v28.57594355h-26.6481299z" fill="#f6b075" mask="url(#G)" transform="translate(163.632124 96.427984)"/><path d="m-10.4089448-10.2417695h47.2929093v40.7823216h-47.2929093z" fill="#f6b075" mask="url(#H)" transform="translate(163.632124 103.835391)"/><path d="m-10.6343321-10.2684256h44.9291992v29.6313227h-44.9291992z" fill="#4e4b9a" mask="url(#I)" transform="translate(129.031088 214.946502)"/><g fill="#fff" transform="translate(153.746114 140.049383)"><path d="m0 29.8890926 7.8560829-29.82718365 24.9391088 4.5198071s-1.7047876 5.71785495-2.7746736 7.36766205c-.9842072 1.5191512-5.1385285 5.0845062-5.1385285 5.0845062l-8.9918756 16.9232561c-5.0462591-1.4128549-10.72522281-3.1711728-15.890114-4.0680478z"/><path d="m34.4151134 14.1678704-.142798 1.9598379 1.4213886 15.0763581c-5.1692849 1.0009567-10.7933264 1.9310493-16.0087461 2.6928395l-4.8024041-11.6682331-7.11573059-5.2040895-1.50706736-9.11933639 2.57475648-10.98395061 23.89338857 1.614375 1.5839586 9.8678395c.2087046 1.9155478.2438549 3.8421682.1032539 5.7643596z"/></g><path d="m-10.1280586-10.7564493h55.9817144v47.6126827h-55.9817144z" fill="#945d32" mask="url(#J)" transform="translate(157.041451 132.641975)"/><path d="m-10.1274094-10.4849383h55.9795504v38.2534065h-55.9795504z" fill="#ce7c3b" mask="url(#K)" transform="translate(157.041451 131.81893)"/><path d="m-9.97638921-10.0651927h28.55281471v29.1057646h-28.55281471z" fill="#f7b089" mask="url(#L)" transform="translate(114.202073 57.744856)"/><path d="m-10.2429326-9.03635185h38.8798792v25.42749815h-38.8798792z" fill="#19303b" mask="url(#M)" transform="translate(59.829016 209.185185)"/><path d="m-11.5648952-8.62761111h37.0881244v24.48012221h-37.0881244z" fill="#f7ae83" mask="url(#N)" transform="translate(61.476684 206.716049)"/><path d="m-8.96924561-10.1013241h24.67696481v37.9863469h-24.67696481z" fill="#19303b" mask="url(#O)" transform="translate(47.471503 206.716049)"/><path d="m-9.38146135-11.6645458h25.52000415v35.1994569h-25.52000415z" fill="#f7ae83" mask="url(#P)" transform="translate(48.295337 206.716049)"/><path d="m-11.100718-10.6659969h44.6403326v112.1422269h-44.6403326z" fill="#aedcf7" mask="url(#Q)" transform="translate(60.65285 119.473251)"/><path d="m-10.4716472-10.66604h46.4914435v112.143564h-46.4914435z" fill="#92d2f4" mask="url(#R)" transform="translate(48.295337 119.473251)"/><path d="m-10.7637518-10.0685951h48.3769289v47.3187092h-48.3769289z" fill="#55210f" mask="url(#S)" transform="translate(52.414508 48.691358)"/><path d="m-8.54364462-11.518907h25.10111172v33.1822815h-25.10111172z" fill="#f7b089" mask="url(#T)" transform="translate(62.300518 70.090535)"/><path d="m-11.6935539-9.10493416h36.5008492v24.84838886h-36.5008492z" fill="#55210f" mask="url(#U)" transform="translate(56.533679 48.691358)"/><path d="m-9.17961373-10.9734979h24.87882473v28.1357256h-24.87882473z" fill="#e6a37b" mask="url(#V)" transform="translate(63.124352 71.736626)"/><path d="m-10.4229367-10.4644961h37.3653174v43.7663891h-37.3653174z" fill="#f7ae83" mask="url(#W)" transform="translate(59.005181 53.62963)"/><path d="m-11.571946-10.4460522h33.3435463v81.0065679h-33.3435463z" fill="#f7ae83" mask="url(#X)" transform="translate(47.471503 80.790123)"/><path d="m-10.0216317-10.264194h64.6837963v47.2167324h-64.6837963z" fill="#f7ae83" mask="url(#Y)" transform="translate(77.129534 61.860082)"/><path d="m-8.28628706-9.07654321h18.53626946v20.58847741h-18.53626946z" fill="#5c92ac" mask="url(#Z)" transform="translate(48.295337 205.893004)"/><path d="m-10.17864-9.82864481h48.310995v69.40146051h-48.310995z" fill="#f7ae83" mask="url(#aa)" transform="translate(54.062176 76.674897)"/><path d="m-10.4499346-10.5523803h48.4803738v69.3982522h-48.4803738z" fill="#b90066" mask="url(#ab)" transform="translate(54.88601 77.497942)"/><path d="m-9.63764495-10.668267h24.80152845v25.6909007h-24.80152845z" fill="#e0006d" mask="url(#ac)" transform="translate(75.481865 98.074074)"/><path d="m-11.3829819-10.2247128h34.3572255v51.6033065h-34.3572255z" fill="#b90066" mask="url(#ad)" transform="translate(53.238342 92.312757)"/><path d="m-9.2481279-9.19729012h20.8279826v20.80938892h-20.8279826z" fill="#f7b089" mask="url(#ae)" transform="translate(48.295337 142.518519)"/><path d="m-9.66625753-10.636214h24.97999073v33.8290352h-24.97999073z" fill="#f7b089" mask="url(#af)" transform="translate(45 135.111111)"/><path d="m-9.90351684-10.7203932h22.97467614v34.3781435h-22.97467614z" fill="#fff" mask="url(#ag)" transform="translate(125.735751 40.460905)"/></g></svg>