<svg height="400" viewBox="0 0 1200 400" width="1200" xmlns="http://www.w3.org/2000/svg"><g fill="none" fill-rule="evenodd"><path d="m0 144h1201v-144h-1201z" fill="#dedfde" transform="translate(0 295)"/><path d="m327-25h546v451h-546z" opacity=".011091" stroke="#fefefe"/><g fill-rule="nonzero" transform="translate(339.307377 28.717122)"><g transform="translate(35.803279 79.456576)"><path d="m37.6924886 2.47197417c-5.3649893-2.84746392-16.7827869-3.66102504-26.274691.13559352-9.49190402 3.79661857-10.59241464 7.18645657-10.59241464 7.18645657l36.72954184.94915464z" fill="#7bb929"/><path d="m36.0417227 2.87875473s12.5183082 3.25424449 17.8832975 9.76273347c1.2380744 1.4915287 18.1584251 28.4746392 21.5975208 34.7119411.6878191 1.2203417-2.4761489 9.7627335-5.7776807 4.3389927-6.8781914-10.9830752-22.5604677-27.1187041-22.5604677-27.1187041s-9.0792125-1.8983092-14.4442018-4.2033991c-5.6401169-2.1694963 3.3015319-17.49156407 3.3015319-17.49156407z" fill="#f3ac7a"/><path d="m40.4437651 21.5906605v1.6271222c3.5766595.9491547 6.7406275 1.6271223 6.7406275 1.6271223s1.2380745 1.2203417 3.0264042 3.118651c-1.3756382-2.7118705-.9629468-8.1356113.1375639-14.1017261-3.7142234 8.5423917-9.9045956 7.7288306-9.9045956 7.7288306z" fill="#bb6636" opacity=".1"/><path d="m75.1098495 46.6754617 7.5660105 10.9830752c.4126915.542374.5502553 1.2203416.6878191 1.7627157l.4126915 7.7288307c0 .8135611-.1375638 1.6271222-.6878191 2.3050898l-4.1269148 5.6949278c-1.1005107-.9491546-1.5132021-2.5762768-.825383-4.0678056l1.6507659-3.5254315-1.2380744-6.1017084c0-.271187-.2751277-.5423741-.5502553-.8135611-.825383-.5423741-1.9258936.1355935-1.7883298 1.2203417l.9629468 6.1017084c.1375638.6779676-.2751276 1.3559352-.9629468 1.4915287-.6878191.271187-1.5132021-.1355935-1.7883297-.9491546l-2.7512766-8.4067983-2.6137127-11.9322298z" fill="#f3ac7a"/></g><g transform="translate(401.668033 12.310174)"><g transform="translate(39.589122)"><g transform="translate(0 129.043748)"><g fill="#000"><path d="m34.0300836 174.92597c.275212-3.294734-1.6512719-5.353943-.275212-22.376736.137606-2.059208-15.2742651-2.745611-15.2742651-2.745611.68803 8.374115 2.8897258 13.590778-5.2290277 23.61226-1.7888779 2.196489-6.88029959 6.177626-8.66917749 7.962274-1.23845393 1.235525-2.75211984 7.13859 4.81620972 7.13859 9.49481347 0 16.92553707-2.882892 19.26483887-7.413151.137606-.411842.825636-.274561.825636-.274561s3.8529678 2.608331 4.5409977-5.903065z"/><path d="m51.2308326 161.747034 14.4486292-1.921929s.137606 1.372806 1.3760599 6.314907c2.0640899 9.33508 7.4307236 14.277181 9.7700255 16.885512 1.9264838 2.196489 2.3393018 4.80482 1.9264838 7.00131v1.098244s-.8256359 4.392979-3.8529677 4.392979c-3.0273319 0-15.1366592-1.921928-16.6503251-4.118418-.6880299-.960964-.8256359-1.921928-.8256359-2.608331 0-.13728-.137606-.274561-.137606-.274561s-1.2384539-5.079381-3.0273318-4.66754c0 0-2.8897259-2.882892-1.238454-7.550432 1.7888779-4.667539-1.7888779-14.551741-1.7888779-14.551741z"/><path d="m1.83028147 2.22699612c0 1.51008642-.96324194 5.76578449-.96324194 7.13859032-.41281798 15.64998646-.82563596 24.43594376-.82563596 28.55436126 0 4.5302592 4.40339175 53.5394274 7.84354155 64.6591543 3.44014978 11.257008 7.01790558 53.951269 4.81620968 57.246003-2.2016958 3.432015-.4128179 13.453498-.4128179 13.453498s24.3562606-1.647367 24.9066845 2.745611c0 0 1.5136659-1.647367.68803-11.394288-1.3760599-17.571915-4.1281798-27.044275-5.3666337-60.678018-.275212-6.7267485-3.9905738-42.8315418-6.7426936-53.5394272-1.2384539-4.8048205 11.6965093 49.9701322 16.2375071 65.7573992 0 0 8.5315715 33.908304 6.7426936 48.460046-1.6512719 13.041655 2.6145138 14.963583 2.6145138 14.963583s16.5127191-5.353942 24.3562606-.823683c.275212-4.530259.825636-4.942101-.275212-13.178936-1.2384539-10.158763-10.0452374-41.870578-11.2836913-56.010478-1.5136659-16.7482311-4.5409978-48.1854846-5.6418457-68.3657303s-9.2196015-35.41839042-11.5589033-39.39952733c-2.4769079-4.25569807-45.13476543.41184175-45.13476543.41184175z"/></g><path d="m2.38070544 34.6252137c.82563595 23.0631379 11.42129736 61.6389818 13.89820516 71.7977453 2.4769079 10.158763-.8256359 6.314906.412818 12.217971 1.2384539 5.903066 4.2657858 36.104794 4.2657858 38.164003 0 2.059208 12.2469333 4.667539 9.7700254 6.314906-2.4769078 1.647367-11.8341153-1.235525-11.8341153 0 0 1.235526 7.1555116 3.843857 7.1555116 3.843857s-14.3110232.823683-15.2742651.411841c-.825636-.411841 1.6512719-4.118417 1.1008479-8.511396-2.61451386-23.200418.412818-35.143829-2.88972584-46.126276-3.4401498-10.982446-9.77002544-78.2499319-8.53157151-85.3885222 1.37605992-7.1385903 1.92648389 7.2758709 1.92648389 7.2758709z" fill="#26282d"/><path d="m25.6361181 45.7449409c4.6786037 9.3350797 16.2375071 58.3442481 18.4392029 65.0709961 2.0640899 6.726749 5.3666337 11.943411 7.0179056 14.00262 1.6512719 2.059208 9.4948135 35.28111 8.2563596 41.184175-4.2657858.411841-8.3939656-.411842-8.8067835 1.647367-.412818 2.059208 11.0084793 1.235525 11.0084793 1.235525l-13.0725692 6.314907c-.68803-2.608331-1.1008479-5.491224-1.1008479-10.570605 0-6.040346-1.9264839-32.260937-6.0546637-45.714434-3.4401498-10.982447-4.8162097-23.3376994-8.1187535-37.3403189-3.4401498-13.178936-7.5683296-35.8302322-7.5683296-35.8302322z" fill="#26282d"/></g><g transform="translate(16.829335 51.098884)"><path d="m3.16493782 5.49122332 2.47690786.41184175.55042396-4.94210099-4.95381571-.68640291-.27521198 2.19648932z" fill="#6e150e"/><path d="m7.43072357 6.04034565-2.06408988-.13728058.68802996-4.94210099 4.95381575.54912233-.275212 2.19648933z" fill="#991915"/></g><path d="m36.7822035 41.4892429c-1.513666 7.6877126-12.7973573 10.0214825-12.7973573 10.0214825l6.1922696 9.884202 10.8708734-14.2771806z" fill="#fff"/><path d="m21.6455443 51.5107254-8.2563595 7.0013097s-.9632419-9.3350796-.137606-11.1197272c1.1008479-2.4710505 2.2016959-2.0592087 2.2016959-2.0592087s-.412818 1.0982446 1.5136659 3.4320146c2.4769079 3.0201728 4.6786037 2.7456116 4.6786037 2.7456116z" fill="#fff"/><path d="m21.9207563 60.1594021c.825636.4118418 2.3393019 2.0592088 3.3025438 1.7846476.825636-.2745611 1.100848-.9609641 0-2.3337699-.9632419-1.3728058-2.7521198-2.3337699-3.3025438-1.2355252-.550424 1.2355252 0 1.7846475 0 1.7846475z" fill="#cc9584"/><path d="m20.5446964 33.6642496c.8256359 3.9811369-1.3760599 8.236835-3.0273318 11.6688496s3.1649378 14.1399 5.3666337 14.1399c2.2016958 0 17.063143-10.7078854 17.063143-10.7078854s-4.1281798.5491223-4.1281798-19.4938428c0-3.1574534-15.2742651 4.3929786-15.2742651 4.3929786z" fill="#d2a292"/><g transform="translate(7.196915)"><path d="m35.36474 20.6225942c0 2.8828923-1.9264839 13.7280583-3.3025438 15.3754253-.412818.4118418 0 3.7065758.5504239 3.5692952.550424-.1372806-2.2016958.8236835-3.1649378-.1372806-.9632419-.9609641-2.8897258-15.3754253-2.3393019-16.1991088.412818-.6864029 8.2563596-2.6083311 8.2563596-2.6083311z" fill="#000"/><path d="m28.3468344 24.1918894c.4128179-7.9622738 2.7521198-16.33638937-9.4948135-17.16007287-2.7521198-.13728058-4.9538157 0-6.8802996.41184175-.6880299-.27456117-1.3760599-.54912233-2.06408987-.68640292-2.75211984.27456117-4.54099774 2.05920875-6.19226964 5.62850394-1.37605992 3.0201728-1.7888779 7.1385903-1.65127191 11.1197272 0 1.2355252.68802996 3.0201728.82563595 4.2556981.137606 1.7846475 0 2.8828922.27521199 4.255698.55042397 4.8048204 2.88972583 10.7078855 6.60508762 14.2771807 1.10084796.5491223 2.33930186.960964 3.71536176.8236835 4.2657858-.1372806 8.1187536-1.647367 10.5956614-4.1184175 1.5136659-1.2355253 2.6145139-5.2166622 3.3025438-8.6486768 1.6512719-.6864029 4.5409978-4.1184174 4.8162097-6.5894679.412818-3.1574535-.9632419-5.0793816-3.8529677-3.5692952z" fill="#e0ac9c"/><path d="m14.1734172 6.4826942.275212-.68640292s3.3025438-1.78464758 2.6145138-1.78464758c-.412818 0-1.5136659-1.09824466-2.2016959.54912233l1.513666-2.60833107-7.43072361 2.05920874s-1.65127191-.27456116-2.88972584.54912233c-1.23845393.8236835-2.20169587 1.51008642-2.20169587 1.51008642s.13760599 1.23552524.41281797-.41184175c-1.6512719.41184175-2.75211984 4.25569807-2.88972583 7.0013097-.13760599.8236835-.27521198 1.7846476-.41281797 2.7456117-.41281798 4.1184175.41281797 8.7859573.41281797 8.7859573l.82563595.5491223s-1.37605992-9.8842019 2.47690786-12.6298136c3.85296778-2.74561166 12.79735727 0 12.79735727 0z" fill="#26282d"/><path d="m34.67671 12.3857593c-1.2384539-2.47105053-2.8897258-6.17762627-4.6786037-7.00130977-.963242-1.92192816-7.2931176-2.05920874-13.7605992-4.53025924 0 0 5.7794516 2.19648933 5.7794516 3.70657574-.8256359-1.23552524-10.3204494-4.53025923-9.7700254-3.84385632 2.6145138 4.25569807 2.0640899 1.37280583 1.3760599 3.15745341-.137606 0 .275212.13728058.137606.13728058.275212-1.78464758-1.7888779-3.56929515-3.1649378-3.9811369.550424 2.47105049-2.33930187 2.19648932-4.26578576 4.94210098-2.33930187 2.19648933-4.26578576 6.31490682-1.7888779 8.23683502 5.64184566 4.255698 10.18284346.8236835 13.76059916 1.0982446 3.3025439.2745612 5.0914218 2.1964894 5.7794517 3.4320146.825636 1.647367 1.3760599 9.4723602 1.3760599 9.4723602l2.3393019-1.5100864 1.6512719-3.4320146 5.0914217 2.1964894c0 .1372805 2.6145139-7.1385903.137606-12.0806913z" fill="#000"/></g><path d="m8.16015711 30.7813574c1.6512719.4118417 4.67860369.6864029 5.09142169-.6864029.412818-1.647367.68803-3.7065758.68803-3.7065758s.8256359-.6864029 2.3393018 0c0 0 .412818 2.3337699.963242 3.8438564.550424 1.5100864 5.7794517.6864029 7.9811475.2745611.963242-.1372806 1.100848-2.3337699 1.100848-4.1184175l10.5956614-2.7456116.5504239-.9609641s-10.1828434 1.7846476-11.6965093 2.0592087c-1.3760599-.2745611-6.3298756.6864029-8.2563595.5491224-.550424.1372805-1.6512719 0-2.4769079 0-.9632419 0-1.5136659.2745611-1.7888779.2745611-.412818-.1372806-5.36663368-.9609641-6.05466364-.4118417-.82563595.5491223-.27521198 5.3539427.96324195 5.6285039zm9.08199549-4.5302593c.550424.1372806 7.5683295-.8236835 7.9811475-.4118417.275212.2745612.275212 3.7065757-.6880299 3.9811369-1.238454.4118418-5.9170577.9609641-6.4674817-.2745612-.5504239-1.3728058-.8256359-3.294734-.8256359-3.294734zm-9.49481347-.2745611c.27521198-.2745612 4.54099777.2745611 5.09142167.1372806 0 0 .137606 1.9219281-.4128179 3.5692951-.137606.5491224-3.16493786.5491224-3.99057381.1372806-.68802996-.4118417-1.10084794-3.5692952-.68802996-3.8438563z" fill="#26282d"/></g><path d="m92.8840447 120.83742 1.1008479-32.3982178-1.7888779-7.6877126-.550424 8.0995544-2.3393018 31.849095 2.3393018 26.357872z" fill="#000" opacity=".1"/><path d="m114.625791 110.404096-8.256359-46.1262764c-.68803-1.7846475-3.164938-6.7267485-10.1828435-8.5113961l-27.2459865-9.884202v-.1372806s0 0 0-.1372806h-.137606l-.4128179.1372806-.412818-.1372806h-.137606v.1372806.1372806l-27.2459864 9.884202c-7.0179056 1.7846476-9.4948135 6.7267486-10.1828434 8.5113961l-2.8897259 49.5582904-15.8246891-8.785957s1.238454 6.589468 7.7059356 19.631123c6.4674816 12.904375 21.0537168-5.079381 21.0537168-5.079381s1.1008479-21.553052 1.1008479-25.3969083l.550424 26.3578723-1.5136659 20.042965-.412818 11.94341c18.5768089-.274561 36.8784059 1.784648 55.4552148 1.784648l-3.3025438-18.80744v-4.942101l.550424-9.746921v-1.235525l14.9990533 2.059208c4.12818.411842 7.705935-2.882892 7.430723-6.864029zm-21.1913224-6.177627.550424-15.5127056 2.3393019 15.5127056z" fill="#673328"/><path d="m78.2978095 48.9023943-9.2196015-3.294734v-.1372805s0 0 0-.1372806h-.137606l-.4128179.1372806-.412818-.1372806h-.137606v.1372806.1372805l-10.5956614 3.8438564 6.3298756 14.0026194 4.4033918.4118418z" fill="#d2a292"/><path d="m114.625791 110.404096-8.256359-46.1262764c-.412818-1.2355252-1.926484-4.1184175-5.091422-6.3149068 3.44015 6.1776262 4.678604 16.6109506 4.81621 17.7091952 1.37606 8.3741156 1.926484 16.7482311 3.44015 25.122347.68803 3.981137 2.201696 9.884202-.68803 13.453497-3.302544 3.981137-33.7134683.960964-42.2450398-.137281-4.2657858-.549122.4128179-8.374115.4128179-8.374115h6.4674817l20.0904748-1.510087s.412818-13.4534969.550424-15.5127056c-.550424 4.1184175-2.8897258 9.3350796-6.3298756 11.5315686-4.5409978 2.882893-10.1828435 2.745612-15.4118712 2.471051-10.1828434-.411842-20.2280808.686403-30.4109242 1.235525l-.825636 16.199109s6.3298757.549122 12.1093273.823683c1.238454 0 2.4769079-.686403 2.7521199-1.921928.275212-1.372806-.275212-2.745611 1.5136659-2.745611 10.1828434-.549123 21.6041407 3.843856 30.8237422 7.824993l4.4033918 2.882892.4128179-6.177626v-1.235525l14.9990534 2.059208c4.12818.411842 7.705935-2.882892 7.430723-6.864029z" fill="#000" opacity=".14"/><path d="m44.9971594 88.0273605h-41.96982757c-2.20169588 0-2.75211985.8236835-2.75211985 2.4710505l5.2290277 27.044275c0 1.784647 1.37605992 2.608331 3.16493782 2.608331h41.5570096c1.7888779 0 3.1649378-.823684 3.1649378-2.471051l-5.2290277-26.6324327c0-1.7846476-1.3760599-3.0201728-3.1649378-3.0201728z" fill="#9abccc"/><g fill="#be8c70"><path d="m61.7850904 103.265505-9.2196014-3.569295h-2.7521199l2.3393019 12.904375 4.8162097 1.510086c2.0640899.411842 4.2657858.411842 5.9170577-.686403l3.7153618.823684-.825636-8.099555z"/><path d="m38.6672838 103.402786 1.7888779 5.628504c.5504239 1.510086 1.7888779 2.745611 3.4401498 3.157453l9.6324194 2.608331 6.8802996-.411842s.963242-.274561 1.9264839-.549122l4.5409978.549122 1.2384539-8.511396-12.7973573-3.432014z"/><path d="m36.0527699 103.265505c-.8256359 0-1.3760599.686403-1.2384539 1.510087.137606.686403.68803 1.098244 1.3760599 1.098244l15.1366591.274561-.2752119-4.118417z"/></g><path d="m57.3816987 47.1177468-.9632419-.2745612-3.3025439 2.8828922c0 4.1184175 2.6145139 10.5706049 2.6145139 10.5706049l5.3666337-6.7267485c-4.5409978-2.4710505-3.7153618-6.4521874-3.7153618-6.4521874z" fill="#f8f9fa"/><path d="m57.7945167 57.8256322c.5504239 5.6285039 6.0546636 5.9030651 6.0546636 5.9030651l-2.6145138-10.1587631z" fill="#d5dde2"/><path d="m72.2431458 53.7072147 5.0914218 5.7657845s2.3393018-3.9811369 3.8529677-8.9232379l-3.8529677-4.5302592s-1.37606 5.7657845-5.0914218 7.6877126z" fill="#f8f9fa"/><path d="m68.2525721 64.140539s3.8529678-1.0982446 4.9538157-2.1964893c2.8897258-2.7456116 2.7521198-3.9811369 2.7521198-3.9811369l-3.8529677-4.1184175z" fill="#d5dde2"/></g><g transform="translate(72.72541 113.029777)"><path d="m117.888155 82.8452308 39.882211-5.5507693-25.530135-9.2975384-12.834068 1.2489231z" fill="#5c8599"/><path d="m103.536079 200.660308-24.4261285-13.460616c-11.178059-6.105846-20.7001092-13.460615-28.9801529-21.648-.9660051-.971384-1.7940095-1.804-2.7600146-2.775384-3.5880189-3.74677-6.7620357-7.632308-9.7980517-11.656616-3.7260197-4.995692-7.1760379-10.130154-10.2120539-15.403384-1.2420066-2.081539-2.3460124-4.163077-3.4500182-6.383385-5.5200292-10.685231-9.9360525-21.509231-13.1100693-32.0556922-.6900036-2.0815385-1.24200651-4.163077-1.79400943-6.2446154-.27600145-.9713846-.55200291-2.0815385-.82800437-3.0529231-1.10400583-4.0243077-2.07001092-8.0486154-2.8980153-11.9341538-5.24402768-24.7009231-5.24402768-43.851077-5.24402768-46.7652308v-.1387692-28.44769235l25.66813548 9.85261535v18.3175385 14.2932308 1.804.6938461 2.4978462 1.2489231.8326153.8326154.2775385c0 .6938461 0 1.2489231.1380007 1.9427692 0 .4163077 0 .8326154.1380008 1.2489231 0 .4163077 0 .8326154.1380007 1.2489231 0 .4163077 0 .8326154.1380007 1.3876923 0 .4163077.1380008.9713846.1380008 1.3876923 0 .6938461.1380007 1.2489231.1380007 1.9427692 0 .2775385 0 .6938462.1380007.9713846 0 .2775385 0 .6938462.1380007.9713846.1380008.9713847.1380008 1.9427693.2760015 2.9141539 0 .4163077.1380007.8326154.1380007 1.2489231v.2775384c.1380008.6938462.1380008 1.3876923.2760015 2.0815385v.1387692c.1380007.9713846.2760014 1.9427693.4140022 2.9141539.1380007 1.1101538.2760014 2.0815384.4140022 3.1916923 0 .4163077.1380007.6938461.1380007 1.1101538 0 .2775385.1380007.6938462.1380007.9713846 0 .1387693 0 .2775385.1380007.4163077.1380008.6938462.2760015 1.2489231.2760015 1.9427693.1380007.9713846.2760015 1.9427692.5520029 3.052923 0 .2775385.1380007.6938462.1380007.9713847.1380008.6938461.2760015 1.3876923.4140022 1.9427692 0 .2775384.1380008.6938461.1380008.9713846.1380007.6938462.2760014 1.3876923.4140021 2.0815385.1380008.9713846.4140022 1.9427692.552003 2.7753846.1380007.8326154.2760014 1.5264615.5520029 2.3590769 0 .1387692.1380007.4163077.1380007.5550769.2760015.9713846.4140022 1.9427693.6900036 2.9141539.1380008.5550769.2760015 1.1101538.4140022 1.5264615.2760015.9713846.5520029 1.9427697.6900037 2.9141537 0 .138769 0 .138769.1380007.277539.2760015.971384.5520029 1.804.8280044 2.775384.2760014.971385.5520029 2.081539.8280043 3.052923.1380008.416308.2760015.971385.4140022 1.387693.8280044 2.636615 1.6560088 5.27323 2.6220139 7.909846.2760014.832615.5520029 1.665231.8280043 2.497846.8280044 2.359077 1.7940095 4.718154 2.7600146 7.077231.4140022 1.110154.8280044 2.081538 1.2420066 3.191692s.9660051 2.081538 1.3800073 3.191692c.4140021 1.110154.9660051 2.081539 1.518008 3.191693.2760014.416307.4140022.832615.6900036 1.387692.8280044 1.804 1.6560088 3.469231 2.6220139 5.273231.2760014.416307.4140021.832615.6900036 1.387692.2760014.555077.5520029 1.110154.8280044 1.526462.4140021.693846.6900036 1.387692 1.1040058 1.942769v.138769c.1380007.416308.4140022.693846.5520029 1.110154 1.518008 2.636615 3.036016 5.134461 4.6920248 7.771077.2760014.555077.6900036.971384.9660051 1.526461.4140022.693846.8280043 1.248923 1.2420065 1.94277.2760015.416307.5520029.693846.8280044 1.110153.4140022.555077.6900036.971385 1.1040058 1.526462.2760015.416308.6900037.832615.9660051 1.387692.5520029.832616 1.2420066 1.665231 1.9320102 2.497846.2760015.416308.6900037.832616 1.1040059 1.248923.4140021.555077.8280043.971385 1.2420065 1.526462.5520029.693846 1.2420066 1.387692 1.7940095 2.081538.1380007.13877.1380007.13877.2760014.277539.552003.693846 1.2420066 1.387692 1.9320102 2.081538.552003.555077 1.1040059 1.248923 1.6560088 1.804.1380007.13877.2760014.277539.2760014.277539s0 0 .1380008.138769c.6900036.693846 1.3800073 1.387692 2.0700109 2.220308.6900036.693846 1.3800073 1.387692 2.0700109 2.081538.6900037.693846 1.3800073 1.387693 2.2080117 2.081539.6900036.693846 1.518008 1.387692 2.2080116 2.081538.8280044.693846 1.518008 1.387692 2.3460124 2.081539.8280044.693846 1.7940095 1.526461 2.7600146 2.220307.1380007.13877.4140022.277539.5520029.416308.5520029.416308 1.1040058.832615 1.518008 1.248923.5520029.416308 1.1040058.832615 1.6560088 1.248923.5520029.416308 1.1040058.832616 1.6560087 1.248923 0 0 0 0 .1380007.138769 0 0 .1380008 0 .1380008.13877.5520029.416307 1.1040058.693846 1.518008 1.110154.5520029.416307 1.1040058.693846 1.6560087 1.110153.6900037.416308 1.3800073.971385 2.0700109 1.387693.552003.416307 1.1040059.693846 1.7940095 1.110154.5520029.416307 1.2420061.832615 1.7940091 1.110153.690004.416308 1.242007.693847 1.932011 1.110154-.138001-.138769.276001.138769.552002.277539z" fill="#5c8599"/><path d="m200.136589 93.5304615c-12.006063 38.4390765-35.466187 83.1227695-81.282429 114.3458465-5.106027-2.081539-9.798051-4.301846-14.352075-6.799693-.276002-.138769-.690004-.416307-.966006-.555077-.276001-.138769-.690003-.416307-.966005-.555076-.690003-.416308-1.242006-.693847-1.93201-1.110154-.6900034-.416308-1.2420064-.693846-1.7940093-1.110154s-1.1040058-.693846-1.7940094-1.110154c-.6900037-.416308-1.3800073-.832615-2.070011-1.387692-.5520029-.416308-1.1040058-.693846-1.6560087-1.110154s-1.1040058-.693846-1.518008-1.110154c0 0-.1380008 0-.1380008-.138769 0 0-.1380007 0-.1380007-.138769-.5520029-.416308-1.1040058-.832616-1.6560087-1.248924-.5520029-.416307-1.1040059-.832615-1.6560088-1.248923-.5520029-.416307-1.1040058-.832615-1.518008-1.248923-.1380007-.138769-.4140022-.277538-.5520029-.416307-.9660051-.693847-1.7940095-1.526462-2.7600146-2.220308-.8280043-.693846-1.518008-1.387692-2.3460124-2.081539-.8280043-.693846-1.518008-1.387692-2.2080116-2.081538-.6900037-.693846-1.3800073-1.387692-2.2080117-2.081538-.6900036-.693847-1.3800073-1.387693-2.0700109-2.081539s-1.3800073-1.387692-2.0700109-2.220308c0 0 0 0-.1380007-.138769-.1380008-.138769-.2760015-.277538-.2760015-.277538-.5520029-.555077-1.1040058-1.248923-1.6560087-1.804-.6900037-.693846-1.2420066-1.387693-1.9320102-2.081539-.1380008-.138769-.1380008-.138769-.2760015-.277538-.5520029-.693846-1.2420066-1.387693-1.7940095-2.081539-.4140022-.555077-.8280043-.971384-1.2420065-1.526461-.4140022-.416308-.6900037-.832616-1.1040059-1.248923-.6900036-.832616-1.2420065-1.665231-1.9320102-2.497846-.2760014-.416308-.6900036-.832616-.9660051-1.387693-.4140021-.555077-.6900036-.971384-1.1040058-1.526461-.2760014-.416308-.5520029-.693846-.8280044-1.110154-.4140021-.693846-.8280043-1.248923-1.2420065-1.942769-.2760015-.555077-.6900037-.971385-.9660051-1.526462-1.6560088-2.497846-3.3120175-5.134461-4.6920248-7.771077-.2760014-.416308-.4140022-.693846-.5520029-1.110154 0 0 0 0 0-.138769-.4140022-.693846-.6900036-1.387692-1.1040058-1.942769-.2760015-.555077-.5520029-1.110154-.8280044-1.526462-.2760014-.416307-.4140022-.832615-.6900036-1.387692-.9660051-1.804-1.7940095-3.469231-2.6220139-5.273231-.2760014-.416307-.4140022-.832615-.6900036-1.387692-.5520029-1.110154-.9660051-2.081539-1.518008-3.191692-.4140022-1.110154-.9660051-2.081539-1.3800073-3.191693-.4140022-.971384-.8280044-2.081538-1.2420066-3.191692-.9660051-2.359077-1.7940094-4.718154-2.7600145-7.077231-.2760015-.832615-.552003-1.665231-.8280044-2.497846-.9660051-2.636615-1.7940095-5.273231-2.6220139-7.909846-.1380007-.416308-.2760014-.971385-.4140021-1.387692-.2760015-.971385-.552003-2.081539-.8280044-3.052923-.2760015-.971385-.5520029-1.804-.8280044-2.775385 0-.138769 0-.138769-.1380007-.277539-.2760015-.971384-.5520029-1.9427688-.6900037-2.9141534-.1380007-.5550769-.2760014-1.1101538-.4140021-1.5264615-.2760015-.9713846-.4140022-1.9427693-.6900037-2.9141539 0-.1387692-.1380007-.4163077-.1380007-.5550769-.1380007-.8326154-.2760015-1.5264615-.5520029-2.3590769-.2760015-.9713846-.4140022-1.9427692-.5520029-2.7753846-.1380008-.6938462-.2760015-1.3876923-.4140022-2.0815385 0-.2775385-.1380008-.6938461-.1380008-.9713846-.1380007-.6938462-.2760014-1.3876923-.4140021-1.9427692 0-.2775385-.1380008-.6938462-.1380008-.9713847-.1380007-.9713846-.4140022-1.9427692-.5520029-3.052923-.1380007-.6938462-.2760014-1.2489231-.2760014-1.9427693 0-.1387692 0-.2775384-.1380008-.4163077 0-.2775384-.1380007-.6938461-.1380007-.9713846 0-.4163077-.1380007-.6938461-.1380007-1.1101538-.1380008-1.1101539-.2760015-2.0815385-.4140022-3.1916923-.1380007-.9713846-.2760015-1.9427693-.4140022-2.9141539v-.1387692c-.1380007-.6938462-.1380007-1.3876923-.2760015-2.0815385 0-.1387692 0-.1387692 0-.2775384 0-.4163077-.1380007-.8326154-.1380007-1.2489231-.1380007-.9713846-.2760014-1.9427692-.2760014-2.9141538 0-.2775385 0-.6938462-.1380008-.9713847 0-.2775384 0-.6938461-.1380007-.9713846 0-.6938461-.1380007-1.3876923-.1380007-1.9427692 0-.4163077-.1380008-.9713846-.1380008-1.3876923s-.1380007-.9713846-.1380007-1.3876923 0-.8326154-.1380007-1.2489231c0-.4163077 0-.8326154-.1380007-1.2489231 0-.6938461-.1380008-1.3876923-.1380008-1.9427692 0-.1387692 0-.1387692 0-.2775385 0-.2775384 0-.5550769 0-.8326154v-.8326153c0-.4163077 0-.8326154 0-1.2489231 0-.9713846 0-1.804 0-2.4978462 0-.2775384 0-.4163077 0-.6938461 0-.8326154 0-1.3876923 0-1.804v-14.2932308-18.3175385l20.83811 7.9098462v21.7867692c0 .2775385.1380008 29.5578462 10.9020576 62.4461538 11.178059 34.276 29.1181537 59.254462 53.268281 74.519077-.138001 0-.138001.138769-.276001.138769l8.556045 4.718154c1.656009-1.248923 3.174017-2.636615 4.692025-3.885538.414002-.416308.966005-.832616 1.380007-1.248923.552003-.555077 1.104006-.971385 1.794009-1.526462.552003-.555077 1.242007-1.110154 1.79401-1.665231.276001-.277538.690004-.555077.966005-.971384 1.518008-1.387693 2.898015-2.775385 4.278023-4.301847.276001-.277538.552002-.555076.828004-.832615 1.242007-1.248923 2.346012-2.497846 3.450018-3.746769.276002-.416308.690004-.693846.966005-1.110154.276002-.277538.414002-.416308.690004-.693846 1.104006-1.248923 2.208012-2.636616 3.312017-3.885539.276002-.277538.414003-.555077.690004-.832615 1.104006-1.387692 2.208012-2.775385 3.312018-4.163077.276001-.416308.690003-.832615.966005-1.248923 1.242006-1.665231 2.484013-3.330462 3.588019-4.995692.138-.13877.138-.277539.276001-.416308 1.104006-1.665231 2.208012-3.330462 3.312017-4.995692.414003-.555077.690004-1.110154 1.104006-1.665231.828005-1.248923 1.656009-2.636615 2.484013-4.024308.414003-.555077.690004-1.248923 1.104006-1.804.828005-1.526461 1.79401-3.052923 2.622014-4.718154.276002-.416307.414002-.832615.690004-1.248923 0-.138769.138-.277538.138-.277538.414003-.693846.690004-1.387692 1.104006-2.220308.138001-.138769.138001-.277538.276002-.416308.276001-.416307.414002-.832615.690003-1.248923.138001-.277538.276002-.416307.276002-.693846.276001-.555077.552003-1.110154.828004-1.665231 0 0 0-.138769.138001-.138769.276001-.555077.552003-.971384.690004-1.526461v-.13877c.414002-.971384.828004-1.804 1.242006-2.775384.276002-.693846.552003-1.248923.966005-1.942769.138001-.13877.138001-.277539.276002-.416308.276001-.555077.414002-1.110154.690003-1.665231.552003-1.110154.966005-2.220308 1.518008-3.469231.276002-.555077.414003-1.110153.690004-1.66523.138001-.13877.138001-.277539.138001-.416308.276001-.555077.414002-1.110154.690003-1.665231 0 0 0 0 0-.138769.552003-1.248923.966005-2.497846 1.380008-3.746769.138-.555077.414002-.971385.552003-1.5264618 0-.1387693.138-.2775385.138-.555077.138001-.2775384.138001-.4163077.276002-.6938461.276001-.5550769.414002-1.1101539.690003-1.804 0-.1387693.138001-.1387693.138001-.2775385.414002-1.1101538.828005-2.2203077 1.104006-3.3304615.138001-.4163077.276001-.8326154.414002-1.2489231.690004-2.2203077 1.518008-4.4406154 2.208012-6.7996923z" fill="#92d2f4"/><path d="m171.708439 82.7064615c-.552003 1.804-1.104005 3.7467693-1.794009 5.5507693-.276002.8326154-.552003 1.5264615-.828004 2.3590769-.552003 1.6652308-1.104006 3.1916923-1.656009 4.7181538-.552003 1.3876923-.966005 2.6366154-1.518008 4.0243077-.414002 1.1101538-.828005 2.3590768-1.380008 3.4692308-.552002 1.248923-1.104005 2.636615-1.656008 3.885538-.414002 1.110154-.966005 2.220308-1.380008 3.330462-.552002 1.248923-1.242006 2.497846-1.794009 3.746769-.552003 1.110154-.966005 2.081539-1.518008 3.052923-.690004 1.248923-1.242007 2.497846-1.93201 3.74677-.552003.971384-.966005 1.942769-1.518008 2.914153-.276002.416308-.414002.832616-.690004 1.248923-.828004 1.526462-1.794009 3.052924-2.622014 4.579385-.414002.693846-.690003 1.248923-1.104006 1.804-.828004 1.387692-1.656008 2.636615-2.484013 4.024308-.414002.555077-.690003 1.110154-1.104005 1.665231-1.104006 1.66523-2.208012 3.330461-3.312018 4.995692-.138001.138769-.138001.277538-.276001.416308-1.242007 1.804-2.484014 3.46923-3.72602 5.134461-.276002.416308-.690004.832615-.966005 1.248923-1.104006 1.387692-2.208012 2.775385-3.312018 4.163077-.276001.277539-.414002.555077-.690003.832615-1.242007 1.526462-2.622014 3.191693-4.002021 4.718154-.276002.416308-.690004.693846-.966006 1.110154-1.104005 1.248923-2.346012 2.497846-3.450018 3.746769-.276001.277539-.552003.555077-.828004.832616-1.380007 1.387692-2.898015 2.914154-4.278023 4.301846-.276001.277538-.690003.693846-.966005.971385-1.242006 1.110153-2.346012 2.220307-3.588019 3.191692-.414002.416308-.966005.832615-1.380007 1.248923-1.518008 1.248923-3.036016 2.497846-4.554024 3.746769-24.2881283-15.403384-42.0902223-40.381846-53.2682813-74.519077-10.7640568-32.8883075-10.9020575-62.1686152-10.9020575-62.4461536v-21.7867692l12.4200655 4.7181538 26.0821377 29.0027692 26.0821376-21.3704615 11.040058 16.6523077-4.140021 35.2473846 39.88221-5.5507692z" fill="#cee9fb"/><g fill="#5c8599"><path d="m180.678487 86.1756923c-.690004 2.3590769-1.380008 4.5793846-2.208012 6.7996923-.138001.4163077-.276001.8326154-.414002 1.2489231s-.276002.8326154-.414002 1.2489231c-.276002.6938461-.414002 1.3876923-.690004 2.0815384 0 .1387693 0 .1387693-.138001.2775385-.276001.8326154-.552003 1.6652308-.828004 2.3590773 0 .138769-.138001.277538-.138001.555077-.138001.555076-.414002.971384-.552003 1.526461-.276001.693846-.552003 1.248923-.828004 1.942769-.276002.555077-.414002 1.110154-.690004 1.665231v.138769c-.276001.693846-.552003 1.387693-.828004 2.081539-.276002.555077-.414002 1.110154-.690004 1.665231-.276001.555076-.552003 1.248923-.828004 1.804-.276002.555076-.414002 1.110153-.690004 1.66523-.276001.555077-.414002 1.110154-.690003 1.665231-.138001.138769-.138001.277539-.276002.416308-.276001.693846-.552003 1.387692-.966005 1.942769-.276001.416308-.414002.832615-.690004 1.387692-.276001.416308-.414002.971385-.690003 1.387693v.138769c-.276002.555077-.552003 1.110154-.828005 1.804-.276001.555077-.552003 1.110154-.828004 1.665231-.138001.277538-.276001.416307-.276001.693846-.276002.416307-.414003.832615-.690004 1.248923-.138001.138769-.138001.277538-.276002.416308-11.868062 22.896923-27.186143 41.769538-45.816241 56.479076-2.898016-1.526461-5.65803-3.052923-8.280044-4.718153 1.518008-1.248923 3.036016-2.497847 4.554024-3.74677.414002-.416307.966005-.832615 1.380007-1.248923 1.242007-1.110154 2.346013-2.081538 3.588019-3.191692.276002-.277538.690004-.693846.966005-.971385 1.518008-1.387692 2.898016-2.775384 4.278023-4.301846.276001-.277538.552003-.555077.828004-.832615 1.242007-1.248923 2.346013-2.497846 3.450018-3.746769.276002-.416308.690004-.693847.966006-1.110154 1.380007-1.526462 2.760014-3.052923 4.002021-4.718154.276001-.277539.414002-.555077.690003-.832615 1.104006-1.387693 2.208012-2.775385 3.312018-4.163077.276001-.416308.690003-.832616.966005-1.248923 1.242006-1.665231 2.484013-3.330462 3.72602-5.134462.138-.138769.138-.277538.276001-.416308 1.104006-1.66523 2.208012-3.330461 3.312018-4.995692.414002-.555077.690003-1.110154 1.104005-1.665231.828005-1.248923 1.656009-2.636615 2.484013-4.024307.414003-.555077.690004-1.248924 1.104006-1.804.828005-1.526462 1.79401-3.052924 2.622014-4.579385.276002-.416308.414002-.832615.690004-1.248923.552003-.971385.966005-1.942769 1.518008-2.914154.690003-1.248923 1.242006-2.497846 1.93201-3.746769.552003-.971385.966005-2.081539 1.518008-3.052923.552003-1.248923 1.242007-2.497846 1.794009-3.74677.414003-1.110153.966006-2.220307 1.380008-3.330461.552003-1.248923 1.104006-2.636615 1.656008-3.885539.414003-1.110153.828005-2.220307 1.380008-3.4692303.552003-1.2489231.966005-2.6366154 1.518008-4.0243077.552003-1.5264615 1.104006-3.1916923 1.656009-4.7181538.276001-.8326154.552002-1.5264616.828004-2.359077.552003-1.804 1.242006-3.608 1.794009-5.5507692z"/><path d="m85.0439819 52.5935385 25.9441371-21.5092308-25.5301349-9.2975385-17.1120904 11.9341539z"/></g></g><path d="m110.995942 291.246773c-1.123667 2.936089-1.545043 6.011991-1.264126 9.227707l.140459 1.817579c0 .559255.421375.978697.983209.978697 1.966418.139813 25.563438-1.817579 30.900859-1.537952 5.337421.279628 11.79851-1.537951 11.517593-4.893481-20.647392-4.194413-26.827564-6.990688-26.827564-6.990688z" fill="#000"/><path d="m142.35218 300.261549c-4.569859-.286574-25.940667 1.146297-31.585787 1.289584v.716435c0 .573148.403223 1.00301.940854 1.00301 1.881706.143287 24.462183-1.862732 29.569672-1.576158 4.569858.286574 9.946162-1.146297 10.887015-4.012038-1.881706 1.862732-6.048342 2.865741-9.811754 2.579167z" fill="#000"/><path d="m120.879657 218.225806 6.669523 72.36153s-2.223174 4.344407-9.023472 5.566271c-6.800298 1.221865-10.331222-.678813-10.331222-.678813l-10.5927721-61.228987-.26155-14.255085z" fill="#878787"/><path d="m102.706512 214.868486s.870218 74.666555 18.129554 81.279091c-7.541895 1.23985-11.457878-.688806-11.457878-.688806l-11.7479512-62.130288-.2900729-14.464923z" fill="#232322"/><path d="m51.4935513 25.5655203c1.795214.6936325 5.2475488 3.0519828 6.766576 1.9421709 2.2094943-1.5259914 11.4617513 1.9421708 13.5331522 6.3814184.8285603 1.9421708 1.1047471 1.2485384.8285603 3.6068886-.4142802 5.1328801-3.0380546 9.8495806-6.9046695 13.4564693-10.3570041 9.4334011-9.8046306 21.5026055-17.1235802 21.7800585-11.8760314.4161795-22.6473158-13.0402898-21.6806621-27.051665-.1380934-19.9766142 16.7093001-23.0285969 24.5806233-20.1153407z" fill="#5f4540"/><path d="m34.2610157 58.1935484 16.1344586 7.4747887.4101981 6.9211006c.2734654 3.8758163 1.6407924 7.1979446 4.6489118 9.4126968 0 0 18.7323799 18.6869715 3.4183175 19.7943475s-30.9015902-19.9327695-30.9015902-19.9327695c7.1101004-10.5200729 6.2897042-23.6701641 6.2897042-23.6701641z" fill="#f7b282"/><path d="m41.1334342 162.270471 8.25934 4.048186 13.9032224 6.840037 32.2114262 15.075999c6.4698162 3.071037 12.6643212 6.700445 18.4458592 11.027815 4.267326 3.21063 6.882784 8.235963 6.882784 13.540481v3.21063l-10.048864 12.284148-11.5630762-8.794333-74.6093717-25.126667z" fill="#878787"/><path d="m51.8040719 190.248139 46.2218403 21.545237c2.5906048 1.18236 4.3631238 3.547081 4.6358188 6.305923l.272695 2.364721-76.081967-25.355065z" fill="#232322"/><path d="m35.65656 320.064516c-.2999659 4.560044 1.6498124 7.695074 2.999659 13.395128 1.0498806 3.847537 1.3498466 8.692583-8.3990452 8.977586-8.9989771.285002-8.9989771-5.985057-8.9989771-6.840066 0-.855008 1.1998636-10.972604 1.1998636-10.972604z" fill="#000"/><path d="m30.1581595 340.764203c-3.0514158.119633-5.6451193-.358902-7.7811103-.95707 1.0679955 1.435604 3.3565574 2.751576 8.0862518 2.631942 5.7976901-.119634 8.0862519-1.555239 8.6965351-3.349745-2.1359911.837436-5.0348361 1.555239-9.0016766 1.674873z" fill="#000"/><path d="m59.2991803 168.687634-1.9454776 16.080383c-.416888 3.188352-2.0844403 5.960832-4.863694 7.62432-1.6675523.970368-2.7792538 2.633855-3.1961418 4.435967l-8.3377612 56.281341-1.5285896 74.025211s-1.5285895 1.247616-9.0325746 1.802112-8.3377612-1.940736-8.3377612-1.940736l-3.8909552-34.655998c-.8337762-9.010559-2.3623657-18.991487-.8337762-27.863422l1.6675523-9.980927-2.9182164-30.358654c-.6948135-6.653952-1.5285896-14.278272-1.1117015-20.793599l.5558507-7.62432c.1389627-1.38624 0-2.772479-.5558507-4.158719-1.3896269-4.15872-1.806515-8.456064-1.3896269-12.753408l1.2506642-12.060287z" fill="#878787"/><path d="m22.7770539 253.119476c-3.7344696-32.394073.8002435-61.742549.8002435-61.742549s18.1388525 0 18.939096-17.16609l-27.4750266-8.583045h-.2667478l-1.2003653 12.04395c-.4001217 4.291522 0 8.583045 1.3337392 12.736131.4001217 1.384362.5334957 2.768724.5334957 4.153086l-.5334957 7.613992c-.5334957 6.644938.4001217 14.258929 1.0669913 20.765431l2.8008522 30.31753-1.6004869 9.967407c-1.3337392 8.859918 0 18.827325.8002435 27.825678l3.7344696 34.609053s-6.268574-45.545513 1.0669913-72.540574z" fill="#000"/><path d="m25.2884002 174.87382c-.5974995 5.862086-1.7924986 14.215559-1.7924986 14.215559s11.9499905 1.172417 15.2362379-9.232786c3.2862474-10.405202-13.4437393-4.982773-13.4437393-4.982773z" fill="#878787"/><path d="m9.98262898 85.4963985 16.25876352-5.8373067s11.7500308 15.4271676 26.3692552 13.3424152c4.2354762-.5559339 4.5087327-9.5898609.9563978-13.2034317.5465131.4169505 7.5145546-4.0305212 19.1279571-2.0847523 1.5029109 2.7796698 2.049424 21.5424412-1.6395392 27.657715-.6831413-.277967-4.0988479 2.084752-4.0988479 2.084752v.138984c.4098848 5.003405.1366282 10.006811-.8197696 14.871233-1.2296544 6.810191-2.8691936 16.678019-2.7325653 20.013623.6831413 14.176316 5.3285023 30.437385 3.8255914 33.217055-2.1860522 3.891537-21.5872659 10.840712-53.8315364 3.474587-.5465131-31.549253-2.595937-55.31543-2.595937-55.31543l-7.37792634-11.674613c-3.00582182-4.864422-4.23547621-10.701729-2.86919356-16.2610686 1.22965438-4.4474718 3.68896315-8.75596 9.42735028-10.4237619z" fill="#7bb929"/><path d="m42.6259702 79.6853549c1.9104988 1.3028747 9.6994556 4.3429157 12.1978003 2.6057494-.4408844-.2895277-.7348073-.5790554-1.1756916-1.013347-2.3513832-2.3162217-3.5270748-5.3562627-3.8209977-8.8305953l-.4408843-7.2381929-14.5491836-4.7772073s-1.9104988 12.8839833 7.7889569 19.2535931z" fill="#bb6636" opacity=".1"/><path d="m37.6558049 51.7677583c1.6507659-8.6673117 5.5025531-5.6879233 7.8411381-8.8027384 5.2274254-6.906764 10.8675424 1.3542674 19.3964996 4.6045093 0 .6771338-2.6137127 13.0009676-3.3015318 14.896942-4.5396063 12.0529803-3.8517872 13.6781013-12.3807444 11.9175536-8.5289573-1.8959745-14.306638-6.7713373-15.8198401-12.4592606-.4126915-1.4896942-2.0634574-7.990178-2.0634574-7.990178 1.513202.1354268 5.6401169 1.083414 6.327936-2.1668279z" fill="#f7b282"/><path d="m34.1497959 47.7504854c1.0498082.8356196.4499178 11.5594045-.8998356 11.5594045-3.2993972.13927-4.9490958-5.0137176-5.249041-8.356196-.4499178-4.3173679 4.3492054-4.5959078 6.1488766-3.2032085z" fill="#f7b282"/><g transform="translate(102.934426)"><g transform="translate(166.210518 73.094849)"><path d="m73.6271385 100.539896c-.4120922-2.8962112-.6868204-5.7924222-.8241844-8.6886332-1.6483688-.2758296-3.1593735-1.5170629-3.1593735-3.3099554 0-1.9308073 0-3.8616146.1373641-5.792422-1.3736407 1.2412333-4.120922.6895741-4.9451064-.9654036-.5494562-1.1033185-.8241843-2.206637-1.0989125-3.4478703-2.0604609.8274889-4.6703782-.4137444-4.6703782-3.0341258 0-.9654036 0-1.9308073.1373641-2.7582961-4.9451063 10.067781-.6868203 21.7905398-5.3571985 32.1341504-.5494563 5.516592-3.7088297 10.89527-4.258286 16.411862-.2747281 2.482467-2.197825 6.206167-2.197825 8.826548-1.3736407 10.757355-4.5330141 20.411392-4.9451063 31.306662-.5494563 13.791481-.4120922 27.720876-1.0989126 41.512357-.137364 1.930808.4120922 27.169218-2.6099172 37.650743.1373641 0 .2747282.137915.4120922.137915 3.7088298.965404 6.7308392-.27583 9.0660283-2.620381 2.0604609-10.067781 4.6703781-19.997648 6.7308391-29.927514 1.0989125-5.240763 2.060461-10.61944 2.6099172-15.860203.6868204-5.378678.8241844-10.757355 1.3736407-16.136033.4120922-5.240762.8241844-10.481525 1.7857328-15.584373.9615485-5.102848 2.3351891-9.929866 3.8461938-14.894799 2.7472813-9.240293 6.0440188-18.480585 7.0055673-28.134621.4120922-4.27536.5494562-8.688633.9615484-13.101907.8241844-.137915 1.5110047-.27583 2.3351891-.413745.6868204-.137915 1.2362766-.413744 1.7857329-.827489-1.5110047-.137914-2.8846454-.827488-3.0220094-2.482466" fill="#55210e"/><path d="m47.9400584 232.386453c-1.6483687 4.689104-3.1593734 9.378207-5.2198344 13.929396h.2747281c-.5494562 1.654978-1.0989125 3.309955-1.9230969 4.689103-.137364.413745-.4120922.827489-.5494562 1.103319-.1373641.137915-.1373641.27583-.2747282.551659v.137915c-1.6483687 0-2.8846453 3.034126-1.3736406 3.999529 3.4341016 2.068723 5.9066548-5.378677 6.7308391-7.585314 1.6483688-3.861615 4.3956501-8.412803 4.8077423-12.550248.2747281-1.792892-.8241844-3.585785-2.4725532-4.275359" fill="#bfc3c6"/><path d="m48.9016069 232.386453c.137364-.827489.137364-1.517063-.1373641-2.206637-2.3351891-1.517063-5.0824704-1.654977-7.9671157-1.517063 0 0-.6868203 0-.6868203.137915-.1373641 3.585785-.8241844 7.585315-3.2967376 10.205696-3.1593735 3.585785-5.9066547 6.206167-7.1429313 11.033185 0 .413744.137364.689574.2747281.965403 1.0989125 3.309956 4.258286 5.102848 7.2802954 3.99953.2747281-.137915.5494563-.27583.8241844-.413744.9615485-.27583 1.7857328-.827489 2.4725532-1.654978.8241843-.965404 1.3736406-2.068722 2.0604609-3.034126 1.0989125-1.517063 2.1978251-2.620381 3.0220094-4.275359.5494563-1.241233.9615485-2.620381 1.5110047-3.861615.8241844-1.654977 2.060461-3.034126 2.8846454-4.689103.6868203-1.654978.1373641-3.44787-1.0989125-4.689104" fill="#2f262e"/><path d="m28.8464535 251.280782c-.1373641 1.517063-.2747281 2.896211.4120922 3.585785.5494562.551659 1.3736406.827489 2.197825 1.103319 1.3736407.551659 2.8846454.965403 4.258286 1.379148 1.3736407.275829 2.7472813.275829 3.9835579.137915 1.5110047-1.517063 2.197825-4.551189 2.0604609-6.481997 0-.689574-.2747281-1.517062-.5494562-2.206636-.6868203-.965404-1.9230969-1.517063-2.7472813-2.068723-1.7857328-.827488-3.7088297-1.379148-5.6319266-1.241233s-3.0220095 1.379148-3.7088298 2.896211c0 .965404-.137364 1.930807-.2747281 2.896211" fill="#bfc3c6"/><path d="m104.534053 87.0242445c-.137364-2.3445517-1.923097-4.4132739-4.258286-4.5511887-1.6483689 0-3.1593736.9654037-3.9835579 2.3445518-5.4945626 0-10.9891252-.1379148-16.4836878-.1379148.4120922 0 .6868204 1.1033184.9615485 2.896211-2.3351891-.4137445-4.1209219.9654036-5.0824704 3.0341258-1.7857328 4.1374442-1.2362766 8.9644625-.6868203 13.2398214.5494563 4.275359 1.5110047 8.688633 1.9230969 12.688163 1.3736406 11.584844 3.4341016 23.031773 5.0824704 34.616617.4120922 3.309955.9615484 6.481996 1.3736406 9.791951.2747281 23.997177 1.9230969 47.994354 2.060461 71.99153.2747281.965404.5494562 1.792893.8241844 2.758297.4120922 1.241233.9615484 2.344551 1.5110047 3.44787 1.9230969 1.792892 4.39565 2.758296 7.4176594 2.206637.1373641 0 .2747282 0 .4120922-.137915-.9615484.27583 0-25.376325.4120922-27.720877 2.060461-12.274418 5.2198341-24.273006 4.5330141-36.685339-.8241843-14.205225 1.511005-28.548365 3.571466-42.615676 2.335189-15.998118.961548-30.892917.412092-47.1668645" fill="#55210e"/><path d="m87.9130011 232.248538c1.2362766 4.827019 2.3351891 9.654037 3.9835579 14.343141-.1373641 0-.2747281 0-.2747281 0 .4120922 1.654977.8241844 3.309955 1.3736406 4.827018.1373641.413744.2747281.827489.5494563 1.241233.137364.137915.137364.27583.2747281.551659v.137915.137915c1.6483688.137915 2.6099172 3.309955.9615484 4.137444-3.5714656 1.792893-5.3571985-5.930336-6.0440188-8.136973-1.2362766-3.99953-3.7088297-8.826548-3.7088297-12.963992 0-1.930808 1.2362766-3.585786 2.8846453-4.27536" fill="#bfc3c6"/><path d="m86.9514527 232.248538c-.1373641-.827488 0-1.517062.2747281-2.206636 2.4725532-1.379149 5.2198345-1.103319 8.1044798-.827489 0 0 .4120922 0 .4120922.137914-.2747281 3.585785.5494563 7.585315 2.7472813 10.619441 2.8846449 3.861614 5.3571989 6.619911 6.1813829 11.584844-.137364.275829-.274728.689574-.412092.965403-1.373641 3.309956-4.6703784 4.689104-7.5550238 3.309956-.2747281-.137915-.5494562-.27583-.8241843-.413745-.9615485-.413744-1.7857329-1.103318-2.3351891-1.930807-.6868203-1.103318-1.0989125-2.206637-1.7857329-3.309955-.9615484-1.517063-1.9230969-2.896211-2.6099172-4.551189-.5494562-1.241233-.6868203-2.620381-1.2362766-3.99953-.6868203-1.792892-1.7857328-3.17204-2.4725531-4.964933-.4120922-1.517063.2747281-3.309955 1.5110047-4.413274" fill="#2f262e"/><path d="m105.358237 252.797845c0 1.517063 0 2.896211-.824184 3.44787-.549456.551659-1.511005.689574-2.335189.965404-1.511005.413744-2.8846455.827489-4.3956502.965404-1.3736407.137914-2.7472813 0-3.9835579-.27583-1.3736406-1.654978-1.7857328-4.689104-1.5110047-6.757826.1373641-.689574.4120922-1.517063.6868203-2.206637.8241844-.827489 1.9230969-1.379148 2.8846454-1.792892 1.7857328-.689574 3.7088297-1.103319 5.7692911-.689574 1.785732.275829 2.884645 1.517063 3.434101 3.309955.137364 1.103319.274728 2.068722.274728 3.034126" fill="#bfc3c6"/><path d="m5.35719851 81.3697373c0-.1379148-.13736407-.1379148-.13736407-.2758296-.41209219-.5516592-.82418438-1.2412333-.82418438-2.0687221 0-.6895741 0-1.2412333 0-1.9308073.13736406-.1379148.13736406-.2758297.13736406-.4137445l3.02200942 1.2412333c.27472812.1379148.54945625.4137444.82418438.6895741.27472813.2758296.41209219.689574.27472813.9654036 0 .2758296-.27472813.4137445-.41209219.6895741-.54945626.5516592-.96154845 1.2412333-1.51100471 1.7928925-.13736406.1379148-.27472813.1379148-.41209219.1379148-.13736407 0-.4120922 0-.54945626-.1379148-.27472813-.1379148-.27472813-.4137444-.41209219-.6895741" fill="#f19d81"/><path d="m23.3518909 59.3033679c3.4341016-4.4132739 7.1429314-8.688633 10.9891252-12.5502476 4.39565-4.2753591 5.0824703-11.7227588 6.1813829-17.377266.9615484-4.8270183 9.2033923-33.927043 18.1320564-27.44504697.9615485.68957404 1.3736407 2.06872213 1.3736407 3.30995541-.1373641 4.96493316-2.7472813 10.48152546-4.8077423 14.75688456-.2747281.4137444-.5494562.6895741-.8241843.8274889-1.0989126 6.0682516-1.6483688 11.1710995-3.8461938 16.6876919-1.6483688 4.1374442-4.8077423 8.8265477-6.4561111 12.8260772-2.0604609 4.6891035-5.9066547 8.5507182-9.6154845 11.9985884-.8241844.689574-1.5110047 1.3791481-2.3351891 2.2066369-3.1593734 2.896211-6.3187469 5.792422-9.4781204 8.688633-1.7857328 1.5170629-7.6923876 8.5507182-9.2033923 4.5511887-.5494563-1.3791481-.2747281-1.2412333.2747281-2.7582962 1.9230969-5.792422 6.0440189-11.0331847 9.6154845-15.7222882" fill="#f7ae83"/><path d="m8.65393605 73.9223377c-1.51100471.4137444-2.74728129 1.1033184-3.70882974 1.9308073-.41209219.2758296-.68682032.8274888-.68682032 1.3791481 0 .9654036.82418439 1.3791481 1.51100471 1.7928925.54945626.2758296 1.09891251.8274888.96154845 1.5170629-.13736406.2758296-.27472813.5516592-.54945626.689574-2.33518909 2.3445518-3.29673754 3.3099555-5.63192663 5.6545072.68682032.4137444 1.5110047.4137444 2.33518909 0 .68682032-.2758296 1.23627658-.9654037 1.9230969-1.5170629 1.78573284-1.7928925 2.47255316-2.2066369 4.25828599-3.9995295.68682032-.689574 1.92309686-1.5170629 2.60991726-.8274888-.2747282 1.2412333-1.6483688 1.9308073-2.88464539 2.4824666-.54945625.2758296-.41209219.9654036.13736407 1.1033184 1.51100472.2758296 3.15937352 0 4.53301412-.689574 1.9230969-.9654037 3.2967375-2.896211 3.7088297-4.9649331.1373641-.6895741.1373641-1.3791481.4120922-2.0687222.1373641-.2758296.1373641-.5516592.1373641-.8274888 0-.2758297-.2747281-.5516593-.5494563-.6895741-2.197825-1.7928925-5.6319266-1.9308073-8.51657195-.9654036" fill="#f7b089"/></g><path d="m241.623389 14.2052253c-1.648369.6895741-4.670378.1379148-6.044019-.9654036-2.609917-2.206637-9.615484.2758296-12.362766 6.7578256-.824184 1.9308073-1.098912 4.2753591-.961548 6.7578257.274728 5.3786775 2.472553 10.3436106 5.769291 13.9293957 8.928664 9.6540366 8.241844 22.342199 14.697955 22.6180287 10.577033.4137444 20.467245-13.7914809 20.055153-28.5483655.961548-20.5493066-14.011135-23.7213472-21.154066-20.5493066z" fill="#a4a3a3"/><path d="m204.947184 108.40104 5.906655-22.2042843c3.708829-13.3777365 22.802434-18.6184993 22.802434-18.6184993s18.818877-.2758296 27.472813 3.0341258c8.516572 3.3099555 14.148499 9.1023774 14.148499 9.1023774l-3.571466 15.5843735-6.044019 18.7564139c-2.472553 7.585315-2.335189 15.722288.412093 23.169688.68682 2.068722 1.511004 3.999529 2.335189 6.068252 2.884645 7.723229 7.417659 44.270653 3.022009 69.922808-32.005827 5.240763-60.85228-1.930808-60.85228-1.930808l9.890212-50.614734c2.472553-15.998118 3.70883-30.203344 2.335189-45.373973l-2.060461-3.999529-9.340756 11.584844z" fill="#44195e"/><path d="m235.029914 55.9934125.274728 11.5848439-3.983558.4137445s-3.983558 8.6886329-4.807742 14.0673105c-.961548 5.792422 16.89578 8.688633 23.077163-9.7919515 6.181383-18.4805844-5.494563-23.5834323-5.494563-23.5834323z" fill="#e6b289"/><path d="m244.095942 48.6839276-9.066028 7.3094849.274728 10.2056958c.137364 0 .137364-.1379148.274728-.1379148l14.148499-8.1369737-.137364-3.0341258c-2.472553-4.1374443-5.494563-6.2061664-5.494563-6.2061664z" fill="#d89c73"/><path d="m222.804512 35.4441059c.961549 3.3099554-2.197825 8.8265478-1.236276 11.9985884.549456 1.7928925 3.846193 8.8265478 6.456111 12.5502476 1.098912 1.6549777 2.747281 3.1720406 4.670378 3.3099555 1.236276.1379148 2.472553-.2758297 3.571466-.8274889l13.599042-7.8611441-1.373641-23.3076027-21.566158-8.5507182-2.609917 2.896211c-1.785733 1.9308073-2.609917 4.5511887-2.060461 7.1715701z" fill="#e6b289"/><path d="m246.705859 43.5810797c.412093-1.2412333 1.236277-2.206637 2.472554-2.4824666.549456-.1379148 1.098912-.1379148 1.785732.1379148 2.060461.9654037-.274728 7.4473997-3.434101 7.8611441-2.335189.5516593-1.373641-3.4478702-.824185-5.5165923z" fill="#e6b289"/><path d="m225.551794 39.5815502c0 .1379148.137364.2758296.137364.2758296s0-.1379148-.137364-.2758296z" fill="#d89c73"/><path d="m215.249489 117.089673.274728.551659 3.70883-4.551189-.686821-1.379148c-2.335189-5.240762-2.884645-11.171099-1.511004-16.6876916l1.648368-6.8957404-2.609917 5.6545072c-3.571466 7.1715698-3.846194 15.5843738-.824184 23.3076028z" fill="#020203" opacity=".05"/><path d="m247.804772 116.813843s-10.302305-1.930807-14.835319-2.344551c-4.533014-.55166-9.066028.965403-8.7913 1.379148 1.373641.551659 10.714397 3.034125 23.626619.965403z" fill="#020203" opacity=".05"/><path d="m200.276806 21.7905398c-.412092-.1379148-.961549-.4137444-1.373641-.5516592-.274728-.1379148-.549456-.1379148-.68682-.2758296-.274728-.1379148-.686821-.2758296-.961549-.4137445l-.549456-.2758296c-.274728-.1379148-.68682-.2758296-.961548-.2758296-.274729-.1379148-.686821-.2758296-.961549-.2758296-.137364 0-.412092-.1379148-.549456-.1379148-.68682-.2758296-1.373641-.4137444-2.060461-.6895741-1.373641-.4137444-3.022009-.8274888-4.533014-1.2412332-.824185-.1379148-1.648369-.4137445-2.472553-.5516593-.412093-.1379148-.824185-.1379148-1.236277-.2758296s-.824184-.1379148-1.236277-.2758296c-.412092-.1379148-.824184-.1379148-1.37364-.2758296s-.961549-.1379148-1.511005-.2758296c-.961548-.1379149-1.923097-.2758297-2.884645-.4137445-.412092 0-.824185-.1379148-1.098913-.1379148-.137364 0-.137364 0-.274728 0 0 0-.137364 0-.274728 0-.412092 0-.961548-.1379148-1.373641-.1379148-1.098912-.1379148-2.060461-.2758296-3.159373-.2758296-.274728 0-.412092 0-.68682-.1379148-.274729 0-.549457 0-.686821 0-.961548-.1379148-1.923097-.1379148-3.022009-.2758296-.137364 0-.274728 0-.274728 0h-.137364c-.412093 0-.824185 0-1.236277-.1379148-.137364 0-.274728 0-.412092 0h-.137364c-.549456 0-.961549 0-1.511005-.1379149-.274728 0-.68682 0-1.098912 0-.824185 0-1.785733 0-2.609918-.1379148-.137364 0-.274728 0-.412092 0-.549456 0-1.098912 0-1.648369 0-.412092 0-.824184 0-1.236276 0s-.824185 0-1.236277 0h-.274728c-.549456 0-.961548 0-1.511005 0h-.412092c-9.615484.1379148-20.741973.8274889-33.242103 2.6203814-67.3083918 9.5161218-89.9734624 35.3061911-92.5833797 38.3403169l-25.54971591-13.6535661c.13736406-.1379148.27472812-.689574.54945625-.9654036.68682032-.6895741 1.78573284-2.0687222 3.70882974-3.7236999 1.9230969-1.7928925 4.53301412-3.8616146 8.10447982-6.3440812 4.39565-3.0341258 10.1649407-6.481996 17.4452361-9.9298663 14.4232268-6.8957404 35.0278364-13.65356605 63.4621977-17.65309551 11.675945-1.65497771 21.97825-2.48246656 31.181643-2.62038137h1.785732 1.511005 2.609917c26.099173.41374443 41.20922 6.0682516 48.901607 10.20569588z" fill="#6e9eb6"/><path d="m25.8244441 55.1659236-.1373641 43.3052501-25.54971594-9.7919515.13736407-47.1668647z" fill="#5c8599"/><path d="m182.968934 40.5469539-.137364 62.1995791c0 .275829-.274729 29.513769-11.12649 65.233704-.137364.689574-.412092 1.241234-.549456 1.792893l-13.87377-5.378678-39.698215 5.516593 4.120922-35.030362-10.989125-16.549777-25.9618083 21.238881-25.9618082-28.824195-12.3627658-4.689104.1373641-42.477761c11.6759455-8.2748886 35.3025645-19.5839029 72.5282262-24.8246657 19.093605-2.7582961 34.753108-2.7582961 46.841146-1.5170629 6.593475.6895741 12.088037 1.6549778 16.758415 2.896211z" fill="#cee9fb"/><path d="m205.221912 23.9971768c-.137364-.1379148-.274728-.1379148-.412092-.2758296-.274728-.1379149-.549456-.2758297-.824185-.4137445-.274728-.1379148-.412092-.2758296-.68682-.2758296-.137364-.1379148-.274728-.1379148-.549456-.2758296 0 0 0 0-.137364 0-.412092-.1379148-.686821-.2758296-1.098913-.5516592-.412092-.1379149-.824184-.4137445-1.37364-.5516593 0 0-14.697955-6.8957404-39.560851-7.5853145-1.373641 0-2.884645-.1379148-4.39565-.1379148-.412092 0-.824184 0-1.236276 0-.412093 0-.824185 0-1.236277 0h-.274728c-.549456 0-.961549 0-1.511005 0h-.412092c-.412092 0-.68682 0-1.098913 0-.549456 0-.961548 0-1.511004 0-.274728 0-.686821 0-.961549 0-.68682 0-1.37364 0-2.060461 0-.549456 0-1.098912 0-1.785733.1379148-.549456 0-1.236276 0-1.785732.1379148-.274729 0-.686821 0-.961549 0-.549456 0-1.236276 0-1.785733.1379148-.824184 0-1.785733.1379149-2.609917.1379149-.549456 0-1.098912.1379148-1.785733.1379148-.274728 0-.68682 0-.961548.1379148-.686821 0-1.373641.1379148-2.060461.1379148-1.511005.1379148-3.02201.2758296-4.533014.4137444-1.236277.1379148-2.609918.2758296-3.846194.4137444-1.648369.2758297-3.296738.4137445-4.945106.6895741-1.785733.2758296-3.571466.5516592-5.219835.8274888-.824184.1379148-1.648369.2758297-2.609917.4137445-.274728 0-.549456.1379148-.824184.1379148-.824185.1379148-1.648369.2758296-2.472554.4137444-1.098912.1379148-2.197825.4137444-3.159373.5516592-.68682.1379148-1.373641.2758296-2.060461.4137445-.549456.1379148-1.098913.2758296-1.648369.2758296-.68682.1379148-1.2362764.2758296-1.9230967.4137444s-1.3736407.2758296-2.060461.4137444c-.9615484.2758296-2.060461.4137445-3.0220094.6895741-1.2362766.2758296-2.4725532.5516592-3.7088297.9654036-3.5714657.8274889-6.8682032 1.7928926-10.1649408 2.7582962-1.2362766.4137444-2.6099172.8274889-3.8461938 1.2412333-.6868203.1379148-1.2362766.4137444-1.7857328.5516592-.5494563.1379148-1.2362766.4137445-1.7857329.5516593-.5494562.2758296-1.2362765.4137444-1.7857328.5516592-.5494563.2758296-1.0989125.4137444-1.6483688.6895741-.9615484.2758296-1.9230969.689574-2.8846453 1.1033184-.1373641 0-.2747281.1379148-.4120922.1379148-.5494563.2758297-1.0989125.4137445-1.6483688.6895741-.5494562.2758296-1.0989125.4137444-1.5110047.689574-.5494562.2758296-.9615484.4137445-1.5110047.6895741s-.9615484.4137444-1.5110047.689574-.9615485.4137444-1.3736406.6895741c-.4120922.1379148-.6868204.2758296-1.0989126.4137444-1.5110047.689574-3.0220094 1.3791481-4.39565 2.0687221-.8241844.4137445-1.7857329.8274889-2.4725532 1.2412333-.4120922.2758296-.8241844.4137444-1.2362766.6895741-.4120921.2758296-.8241843.4137444-1.2362765.689574-.8241844.4137444-1.5110047.8274889-2.1978251 1.2412333-.4120922.2758296-.6868203.4137444-1.0989125.689574s-.6868203.4137445-1.0989125.5516593c-.2747281.2758296-.6868203.4137444-.9615484.689574-.6868204.4137444-1.2362766.8274889-1.9230969 1.2412333-.6868204.4137444-1.2362766.8274888-1.7857329 1.2412333-.2747281.1379148-.5494562.4137444-.8241844.5516592-.4120922.2758296-.8241843.5516592-1.2362765.8274889-.2747282.1379148-.4120922.2758296-.5494563.4137444s-.4120922.2758296-.5494563.4137444c-.4120921.2758296-.8241843.5516593-1.0989125.8274889-.6868203.5516592-1.3736406 1.1033184-2.0604609 1.6549777-.2747282.2758296-.5494563.5516592-.8241844.689574-.2747281.2758296-.5494563.4137445-.8241844.6895741s-.5494563.4137444-.6868203.689574c-.6868203.6895741-1.3736407 1.2412333-1.9230969 1.7928925-.1373641.1379148-.2747282.2758297-.4120922.4137445-.1373641.1379148-.2747281.2758296-.2747281.2758296-.1373641.1379148-.1373641.1379148-.2747282.2758296-.137364.1379148-.137364.2758296-.2747281.2758296-.6868203.6895741-1.0989125 1.2412333-1.2362766 1.3791481l-.137364 43.30525 20.7419737 7.861144.137364-42.477761c11.6759455-8.2748886 35.3025645-19.5839029 72.5282263-24.8246657 19.093605-2.7582961 34.753108-2.7582961 46.841146-1.5170629 6.593475.6895741 12.088037 1.6549778 16.758415 2.896211.137364 0 .137364 0 .274729.1379148.274728.1379149.549456.1379149.824184.2758297s.549456.1379148.68682.2758296c.137364 0 .274728.1379148.412092.1379148.412093.1379148.824185.2758296 1.236277.4137444 2.472553.8274889 3.159374 1.1033185 4.533014 1.6549777.137364 0 .274728.1379148.412092.1379148s.274728.1379148.412093.1379148l-.137365 63.992471v1.241234.275829c0 .689574 0 1.517063-.137364 2.482467v.551659c0 1.103319-.137364 2.344552-.274728 3.861615 0 .551659-.137364.965403-.137364 1.517063v.551659c0 .27583 0 .551659-.137364.827489 0 .689574-.137364 1.379148-.274728 2.206637v.551659c0 .27583 0 .551659-.137364.965404v.137914c0 .27583 0 .55166-.137364.827489v.413745.137915c0 .275829 0 .413744-.137364.689574v.275829c0 .551659-.137364 1.241233-.274728 1.792893v.551659c-.137364.689574-.137364 1.517063-.274728 2.206637 0 .551659-.137364.965404-.137364 1.517063 0 .275829-.137365.551659-.137365.827489-.137364.827489-.274728 1.792892-.412092 2.620381-.137364.551659-.137364 1.103318-.274728 1.517063-.137364.827489-.274728 1.517063-.412092 2.344552-.137364 1.103318-.412092 2.206637-.549456 3.44787-.137364.551659-.137364.965404-.274728 1.517063-.274729 1.379148-.549457 2.758296-.824185 4.137444v.137915c-.274728 1.379148-.549456 2.896211-.961548 4.275359-.137364.551659-.274728 1.103318-.412092 1.654978-.274729.965403-.412093 1.930807-.686821 2.896211-1.098912 4.689103-2.335189 9.516121-3.846194 14.618969-.137364.55166-.274728 1.103319-.549456 1.792893 0 .27583-.137364.413744-.137364.551659l19.368333 7.4474c12.50013-39.995295 12.637494-72.956934 12.637494-76.128975l.137364-75.7152299c0-.4137444-2.060461-2.3445518-6.593475-4.8270183z" fill="#92d2f4"/><g fill="#5c8599"><path d="m191.485506 43.4431649-.137364 63.9924711v1.241234.275829c0 .689574 0 1.517063-.137365 2.482467v.551659c0 1.103318-.137364 2.344552-.274728 3.861615 0 .551659-.137364.965403-.137364 1.517063v.551659c0 .275829 0 .551659-.137364.827489 0 .689574-.137364 1.379148-.274728 2.206637v.551659c0 .275829 0 .551659-.137364.965403v.137915c0 .27583 0 .551659-.137364.827489v.413745.137914c0 .27583 0 .413745-.137364.689574v.27583c0 .551659-.137364 1.241233-.274728 1.792893v.551659c-.137364.689574-.137364 1.517063-.274728 2.206637 0 .551659-.137364.965403-.137364 1.517063 0 .275829-.137364.551659-.137364.827488-.137365.827489-.274729 1.792893-.412093 2.620382-.137364.551659-.137364 1.103318-.274728 1.517063-.137364.827489-.274728 1.517063-.412092 2.344551-.137364 1.103319-.412092 2.206637-.549456 3.447871-.137364.551659-.137364.965403-.274728 1.517063-.274729 1.379148-.549457 2.758296-.824185 4.137444v.137915c-.274728 1.379148-.549456 2.896211-.961548 4.275359-.137364.551659-.274728 1.103318-.412092 1.654977-.274729.965404-.412093 1.930808-.686821 2.896211-.824184 3.585786-1.785733 7.171571-2.747281 11.033185-.274728 1.241233-.68682 2.344552-1.098913 3.585785-.137364.551659-.274728 1.103319-.549456 1.792893 0 .275829-.137364.413744-.137364.551659l-8.928664-3.44787c.137364-.551659.412092-1.241234.549456-1.792893.412092-1.241233.686821-2.482466 1.098913-3.7237 9.752848-33.927043 10.027576-61.234175 10.027576-61.510004l.137364-62.1995793-.274728-.1379148c.137364 0 .137364 0 .274728.1379148.274729.1379148.549457.1379148.824185.2758296s.549456.1379148.68682.2758296c.137364 0 .274728.1379148.412092.1379148.412093.1379148.824185.2758296 1.236277.4137444 2.472553.8274889 3.159373 1.1033185 4.533014 1.6549778.137364 0 .274728.1379148.412092.1379148.412092-.2758297.549457-.2758297.686821-.1379148z"/><path d="m58.7918195 111.021421 25.9618082 28.96211-25.549716-9.791951-28.9838176-29.927514z"/><path d="m110.8528 118.606736 10.851761 16.549777-21.154066-8.136974z"/><path d="m100.550495 127.019539 21.154066 8.136974-4.120922 34.892447-21.1540659-7.999059z"/></g><path d="m236.128826 129.91575-20.329881-1.379148c-1.373641-1.103318-3.296738-4.137444-4.533014-4.413274-1.648369 1.517063-4.670378 3.585785-7.555024 3.309956l-4.533014-1.241234c-2.472553-.827489-2.884645-.689574-3.571465.55166l6.456111 2.620381 3.434101.551659h-4.39565l-3.983558-.965404c-.68682-.137914-1.37364.27583-1.648369.965404l-.274728.965404c.137364.551659.274728.965403.274728.965403l4.258286 3.447871 6.044019 1.930807s1.785733.827489 9.890213-1.241233l19.780425 2.620381z" fill="#e6b289"/><path d="m271.568755 101.091555c-3.434102 5.378678-18.818877 34.892447-18.818877 34.892447-1.511004 3.034126-4.670378 4.827018-7.967115 4.689103l-12.50013-.965403.961548-10.757356 10.027577.137915s4.670378-13.653566 7.555023-22.066369c4.533014-13.101907 7.967116-24.2730066 15.52214-30.7550026l6.456111 1.6549777c6.318747 4.9649331 4.807742 13.9293957-1.236277 23.1696879z" fill="#68247f"/></g><path d="m87.3681009 152.066532 7.7042569-27.165697c3.5142224-.835868 6.3526332-3.622093 7.4339322-7.383497.810974-2.646915.405487-5.43314-.675812-7.801432 0-.139311-.135163-.278622-.270325-.417933-.135162-.139312-.405487-.417934-.675812-.417934-.675812-.139311-1.351624.139311-1.6219488.975179l-1.0812992 3.761404c-.8109744 2.786225-3.6493848 4.457961-6.3526328 3.622093s-4.3251968-3.761404-3.5142224-6.54763l1.0812992-3.761404c.1351624-.696556-.1351624-1.393113-.9461368-1.671735-.2703248-.139311-.5406496 0-.8109744 0-.1351624 0-.2703249.139311-.4054873.278622-2.1625984 1.393113-3.9197096 3.482782-4.730684 6.269008-1.0812992 3.761404 0 7.662119 2.4329232 10.309033l-7.7042568 27.165698c-3.5142224.835867-6.3526328 3.622093-7.433932 7.383497-.8109744 2.646914-.4054872 5.433139.675812 7.801431.1351624.139311.1351624.278622.2703248.417934.1351624.139311.4054872.417934.675812.417934.675812.139311 1.351624-.139312 1.6219488-.975179l1.0812992-3.761405c.8109744-2.786225 3.6493848-4.45796 6.3526328-3.622093 2.703248.835868 4.3251968 3.761405 3.5142224 6.54763l-1.0812992 3.761404c-.1351624.696557.1351624 1.393113.9461368 1.671736.2703248.139311.5406496 0 .8109744 0 .1351624-.139312.2703248-.139312.4054872-.278623 2.1625984-1.393113 3.9197097-3.482782 4.7306841-6.269007 1.0812992-3.761404 0-7.66212-2.4329233-10.309034z" fill="#000"/><g fill="#f7b282"><path d="m42.2921354 142.601993-10.6035037-25.09579c-3.2517411 4.697073-16.2587056 7.381115-20.5001071 6.575903 0 0 15.4104254 23.082758 22.0552877 31.403287 1.2724204 1.610425 4.2414015 1.207819 6.3621022.939415l36.4760527-7.649519-.5655202-8.723135z"/><path d="m96.8095741 133.280846-13.3973931 3.148976c-1.0611796.273824-2.2550068-.410736-2.6529491-1.36912-.2652949-.68456-.1326475-1.506032.2652949-2.190592l1.7244169-2.875152c.9285322-2.327504.6632373-3.970448-1.0611796-4.655008l-6.6323729 8.351632-2.5203016 11.363695-.9285322 6.024127 7.4282575-.821471c5.0406034-.68456 9.6832644-3.833536 9.6832644-3.833536 2.1223593-.547648 2.2550067-3.4228 2.2550067-3.4228-.1326474-.410736.9285322-1.642944 1.1938271-2.05368l.3979424-1.095296c.2652949-.68456.1326475-1.36912-.2652949-1.779856 0 0 4.2447186-1.369119 4.5100135-2.053679 1.1938271-1.506032 0-2.73824 0-2.73824z"/></g></g></g></svg>