<svg height="400" viewBox="0 0 1200 400" width="1200" xmlns="http://www.w3.org/2000/svg"><g fill="none" fill-rule="evenodd"><path d="m0 400h1200v-400h-1200z" fill="#fff"/><path d="m0 400h1200v-135h-1200z" fill="#dedfde"/><g><g fill-rule="nonzero" transform="translate(902 45)"><path d="m11.9916264 26.5675676h7.0100857v-24.74701495h-4.1389336v19.99377725h-.1491508l-7.19652414-19.99377725h-7.01008572v24.74701495h4.13893359v-19.99377733h.14915076zm12.9015407 0h12.9388285v-3.7346867h-8.4643057v-21.01232825h-4.4745228zm29.3081244 0c8.0168533 0 13.0134038-4.1496519 13.0134038-13.0902655 0-7.46937345-4.5863859-11.65674945-12.8642531-11.65674945h-7.0100857v24.74701495zm-2.3864122-21.01232825h2.2372614c5.2575643 0 8.4643057 2.791584 8.4643057 8.14840735 0 6.4508225-3.2067414 9.1292342-8.1287165 9.1292342h-2.5728506zm24.3861493-3.7346867h-4.4745228v24.74701495h4.4745228zm15.884556 16.07047005h3.7660566v5.0550305c-1.081343.1131723-1.7152337.1508964-2.8338644.1508964-4.1762213 0-7.6066888-2.8670322-7.6066888-8.6388207 0-5.96040912 3.5050429-8.94061366 8.3897303-8.94061366 1.9389599 0 3.3186044.07544822 5.3321397.37724108l.3355892-3.84785902c-1.7152338-.33951698-3.2813167-.49041341-5.5185781-.49041341-7.4575381 0-13.23713 4.26282422-13.23713 13.35433431 0 7.9220627 4.9219751 11.9208181 12.1184993 11.9208181 2.6474259 0 4.921975-.2263446 7.3456746-.716758v-11.9208182h-8.0914284zm17.5997894-16.07047005v24.74701495h-4.474523v-24.74701495z" fill="#e98400"/><path d="m130.117049 16.8347477c0-5.9981332-3.057591-8.90288954-7.457538-8.90288954-1.752522 0-3.169454.33951698-4.8474 1.20717146v-8.94061362l-2.460988.22634465v25.95418635c1.976248.339517 3.542331.4149652 5.33214.4149652 5.518578 0 9.433786-3.6215144 9.433786-9.9591645zm-2.610139.2640687c0 5.0927546-2.833864 7.4316493-6.413482 7.4316493-1.118631 0-2.088111-.0377241-3.281317-.2263446v-13.0525414c1.379644-.679034 2.684714-.9808268 4.101646-.9808268 3.430467 0 5.593153 1.9993777 5.593153 6.8280635zm5.742304.3017929c0 6.5639948 3.281317 9.3933029 8.166005 9.3933029 2.349124 0 3.952495-.3772411 5.854167-1.2448956l.037288-2.3388947c-1.864385.8676545-3.579619 1.2448956-5.630442 1.2448956-3.430467 0-5.96603-2.2257224-5.891455-7.2430287h11.708335c.037288-.7544822.037288-1.4335162.037288-2.0371019 0-4.8286858-2.498275-7.35620106-6.823648-7.35620106-4.064358 0-7.457538 3.28199736-7.457538 9.58192346zm2.647426-2.3388947c.372877-3.2065492 2.386413-5.0550305 4.698249-5.0550305 2.722002 0 4.213509 1.5844125 4.213509 5.0550305zm14.020172-4.7909617h2.199974v10.8645431c0 4.4137206 2.237261 5.6586162 4.772824 5.6586162 1.081343 0 1.93896-.1131723 3.057591-.4149652v-2.1502741c-.932193.1886205-1.566083.2640687-2.498276.2640687-1.677946 0-2.871152-1.056275-2.871152-3.4706179v-10.7513708h4.772825v-2.11255009h-4.772825v-3.62151438l-2.460987.41496519v3.20654919h-2.199974zm11.969348 7.1298564c0 6.5639948 3.281317 9.3933029 8.166005 9.3933029 2.349124 0 3.952495-.3772411 5.854167-1.2448956l.037288-2.3388947c-1.864385.8676545-3.579619 1.2448956-5.630442 1.2448956-3.430467 0-5.96603-2.2257224-5.891455-7.2430287h11.708335c.037288-.7544822.037288-1.4335162.037288-2.0371019 0-4.8286858-2.498276-7.35620106-6.823648-7.35620106-4.064358 0-7.457538 3.28199736-7.457538 9.58192346zm2.647426-2.3388947c.372877-3.2065492 2.386413-5.0550305 4.698249-5.0550305 2.722002 0 4.213509 1.5844125 4.213509 5.0550305zm24.125136-6.86578768-.335589 2.52751528c-.82033-.2263447-1.342357-.3017929-2.088111-.3017929-1.193206 0-2.162686.6035857-3.542331 2.0371018v14.1088165h-2.460987v-18.29619246l2.4237-.22634465v2.15027411c1.416932-1.6221366 2.610138-2.26344644 3.915207-2.26344644.783042 0 1.305069.07544822 2.088111.26406876z" fill="#e98400"/><path d="m7.09863903 43.1346376h-2.0472093l-4.64771841 12.2404281h1.47546616l1.0881563-3.1720622h4.40795516l.59018646 3.1720622h1.53079615zm-1.12504295 1.1195513 1.23570291 6.7546265h-3.76243871l2.39763251-6.7546265zm10.82623292 1.9778741c-.3873098-.093296-.8115063-.1492736-1.3648062-.1492736-2.2316425 0-4.2972951 2.2017844-4.2972951 6.2881468 0 2.3323987.8299497 3.1720622 2.0287659 3.1720622 1.014383 0 1.8996627-.5224573 2.7296124-1.6606679h.05533l-.1659899 1.6233495c-.16599 1.6420086-.9959397 2.3323986-2.4160759 2.3323986-.8115064 0-1.6045694-.1119551-2.5082925-.3731837v1.287484c.9406097.1865919 1.6598995.2425695 2.6005092.2425695 1.8443327 0 3.3935721-1.0075963 3.6148921-3.5265868l.8299497-9.4228905zm-.7746197 6.2694875c-.8852797 1.2315065-1.7705594 1.8286006-2.4160758 1.8286006-.6270731 0-1.1065996-.5224573-1.1065996-2.0525108 0-3.3399949 1.4385795-5.0752995 2.821829-5.0752995.4057532 0 .8299497.0373184 1.1619296.1119551zm3.5226755-.3358654c0 2.369717.9959396 3.3773133 2.8033857 3.3773133 1.1250429 0 1.8812193-.1865919 2.7480557-.6530717v-1.2128473c-.793063.4291614-1.5307961.6530717-2.3791892.6530717-1.1803729 0-1.8443327-.5411165-1.8443327-2.5936273 2.987819 0 4.850595-1.4367576 4.850595-3.545246 0-1.3248024-.8299497-2.1084884-2.3423025-2.1084884-1.8812194 0-3.836212 1.9592149-3.836212 6.0828957zm4.8137083-3.8064746c0 1.3061433-1.2172596 2.3323987-3.3935721 2.3323987.2582065-2.3510579 1.3463628-3.45195 2.2685292-3.45195.7192897 0 1.1250429.3731838 1.1250429 1.1195513zm7.3773308 7.0158552h1.3094763l.5901864-6.2321692c.2028766-2.2204435-.5532998-3.0601071-1.8443327-3.0601071-.848393 0-1.6967861.4105022-2.7480557 1.474076h-.05533l.1291033-1.3994392-1.3094762.1679327-.8115064 9.0497068h1.3094762l.5901865-6.5493754c1.1250429-1.0075963 1.9918793-1.4554168 2.5267358-1.4554168.6086298 0 1.0328263.4664797.8852797 1.9778741zm10.881563-13.0800917-1.3279196.1679327-.3319798 3.7318379c-.3319799-.0746368-.7008465-.1119552-1.1619296-.1119552-2.2316426 0-4.2972952 2.2017844-4.2972952 6.2881468 0 2.3323987.8299497 3.1720622 2.0287659 3.1720622 1.014383 0 1.8996627-.5224573 2.7296124-1.6606679h.05533l-.1475466 1.4927352h1.2725896zm-2.2316426 10.2065765c-.8852797 1.2315065-1.7705594 1.8286006-2.4160758 1.8286006-.6270731 0-1.1065996-.5224573-1.1065996-2.0525108 0-3.3399949 1.4385795-5.0752995 2.821829-5.0752995.4057532 0 .848393.0373184 1.1803729.1119551zm9.2585502-6.2694875c-.3873099-.093296-.8115064-.1492736-1.3648062-.1492736-2.2316426 0-4.2972952 2.2017844-4.2972952 6.2881468 0 2.3323987.8299497 3.1720622 2.028766 3.1720622 1.014383 0 1.918106-.5224573 2.7296124-1.6606679h.0553299l-.1475466 1.4927352h1.2725896l.8299497-9.3295946zm-.7746197 6.2694875c-.8852797 1.2315065-1.7705594 1.8286006-2.4160759 1.8286006-.6270731 0-1.1065996-.5224573-1.1065996-2.0525108 0-3.3399949 1.4385795-5.0752995 2.821829-5.0752995.4057532 0 .8299497.0373184 1.1619296.1119551zm10.6971296 2.8735152c3.6517788 0 6.0678546-2.3510579 6.0678546-6.9225592 0-3.3026765-2.1578692-5.3178689-5.4038948-5.3178689h-3.1353656l-.903723 12.2404281zm.4610832-11.04624c2.5820658 0 4.1497486 1.6233494 4.1497486 4.347591 0 3.7504971-1.862776 5.5044609-4.4632852 5.5044609h-2.0472093l.7192898-9.8520519zm9.4983134 1.8286005-1.3279195.1679327-.8115064 9.0497068h1.3094762zm-1.1988162-2.7802192c0 .4851389.2950932.7277084.7192897.7277084.5717432 0 .903723-.4105022.903723-.9143003 0-.4664797-.2582065-.7463675-.7192897-.7463675-.5348565 0-.903723.3545245-.903723.9329594zm8.5945904 2.854856c-.3873099-.093296-.8115064-.1492736-1.3648062-.1492736-2.2316426 0-4.2972952 2.2017844-4.2972952 6.2881468 0 2.3323987.8299497 3.1720622 2.0287659 3.1720622 1.014383 0 1.8996627-.5224573 2.7296124-1.6606679h.05533l-.1659899 1.6233495c-.16599 1.6420086-.9959397 2.3323986-2.4160759 2.3323986-.8115064 0-1.6045694-.1119551-2.5082924-.3731837v1.287484c.9406096.1865919 1.6598994.2425695 2.6005091.2425695 1.8443327 0 3.3935721-1.0075963 3.6148921-3.5265868l.8299497-9.4228905zm-.7746198 6.2694875c-.8852797 1.2315065-1.7705594 1.8286006-2.4160758 1.8286006-.6270731 0-1.1065996-.5224573-1.1065996-2.0525108 0-3.3399949 1.4385795-5.0752995 2.821829-5.0752995.4057532 0 .8299497.0373184 1.1619296.1119551zm5.7912047-6.3441243-1.3279195.1679327-.8115064 9.0497068h1.3094762zm-1.1988162-2.7802192c0 .4851389.2950932.7277084.7192897.7277084.5717432 0 .903723-.4105022.903723-.9143003 0-.4664797-.2582065-.7463675-.7192897-.7463675-.5348565 0-.903723.3545245-.903723.9329594zm3.0062623 3.9370889h.9221663l-.5532998 5.4484833c-.2028766 2.0151924.4426399 2.7802192 1.6967861 2.7802192.7377331 0 1.069713-.0559776 1.6967861-.2798879v-1.1755289c-.5348565.1865919-.8299497.2425695-1.2910329.2425695-.6086298 0-.9221664-.3545246-.7930631-1.6606679l.5348565-5.3551873h1.862776l.11066-1.0635738h-1.862776l.2213199-2.1644659-1.3094762.2052511-.1844333 1.9592148h-1.0512696zm10.8446763-1.0822329c-.3873099-.093296-.8115064-.1492736-1.3648062-.1492736-2.2316426 0-4.2972952 2.2017844-4.2972952 6.2881468 0 2.3323987.8299497 3.1720622 2.0287659 3.1720622 1.014383 0 1.918106-.5224573 2.7296124-1.6606679h.05533l-.1475466 1.4927352h1.2725896l.8299497-9.3295946zm-.7746198 6.2694875c-.8852797 1.2315065-1.7705594 1.8286006-2.4160758 1.8286006-.6270731 0-1.1065996-.5224573-1.1065996-2.0525108 0-3.3399949 1.4385795-5.0752995 2.821829-5.0752995.4057532 0 .8299497.0373184 1.1619296.1119551zm6.1416279-10.2065765-1.3279195.1679327-1.1619296 12.912159h1.3094762zm1.3279194 9.8707111c0 2.369717.99594 3.3773133 2.803386 3.3773133 1.125043 0 1.881219-.1865919 2.748056-.6530717v-1.2128473c-.793063.4291614-1.530797.6530717-2.37919.6530717-1.180373 0-1.844332-.5411165-1.844332-2.5936273 2.987819 0 4.850595-1.4367576 4.850595-3.545246 0-1.3248024-.82995-2.1084884-2.342303-2.1084884-1.881219 0-3.836212 1.9592149-3.836212 6.0828957zm4.813709-3.8064746c0 1.3061433-1.21726 2.3323987-3.393573 2.3323987.258207-2.3510579 1.346363-3.45195 2.26853-3.45195.719289 0 1.125043.3731838 1.125043 1.1195513zm11.656182-5.3925056c-3.153809 0-5.569885 2.6309456-5.569885 7.5196532 0 3.4332908 1.696787 5.0566403 4.223522 5.0566403 2.932489 0 5.569885-2.556309 5.569885-7.2211063 0-3.3399948-1.733673-5.3551872-4.223522-5.3551872zm-.239763 1.287484c1.770559 0 2.987819 1.2688249 2.987819 4.3849095 0 3.7878154-1.918106 5.6350751-3.854655 5.6350751-1.789003 0-2.987819-1.0635738-2.987819-4.0677032 0-3.8811114 1.789002-5.9522814 3.854655-5.9522814zm7.524877 11.1208768h1.60457l.995939-1.9032373c1.1066-2.1271476 1.88122-4.3289319 2.360746-7.2211063h-1.364806c-.461083 3.0227887-1.088156 5.0193219-1.991879 6.8852409l-.49797 1.0262554h-.073773l-1.198817-7.9114963h-1.401692zm5.662102-3.2093806c0 2.369717.995939 3.3773133 2.803385 3.3773133 1.125043 0 1.88122-.1865919 2.748056-.6530717v-1.2128473c-.793063.4291614-1.530796.6530717-2.379189.6530717-1.180373 0-1.844333-.5411165-1.844333-2.5936273 2.987819 0 4.850595-1.4367576 4.850595-3.545246 0-1.3248024-.829949-2.1084884-2.342302-2.1084884-1.88122 0-3.836212 1.9592149-3.836212 6.0828957zm4.813708-3.8064746c0 1.3061433-1.217259 2.3323987-3.393572 2.3323987.258207-2.3510579 1.346363-3.45195 2.268529-3.45195.71929 0 1.125043.3731838 1.125043 1.1195513zm7.377331-2.1458067c-.184433-.093296-.38731-.1306144-.60863-.1306144-.737733 0-1.272589.2985471-2.120982 1.7912822h-.073774l.16599-1.7166454-1.309476.1679327-.756176 9.0497068h1.309476l.516413-6.0642365c.682403-1.1568698 1.493909-1.8286006 2.176313-1.8286006.221319 0 .331979 0 .534856.0373184zm5.274791 9.1616619h1.309477l.590186-6.2321692c.202877-2.2204435-.5533-3.0601071-1.844333-3.0601071-.848393 0-1.696786.4291614-2.748055 1.474076h-.05533l.49797-5.2618914-1.32792.1679327-1.16193 12.912159h1.309477l.590186-6.5493754c1.1066-.9889371 1.973436-1.4554168 2.545179-1.4554168.60863 0 .99594.4664797.866837 1.9778741zm3.707109-3.2093806c0 2.369717.99594 3.3773133 2.803386 3.3773133 1.125043 0 1.881219-.1865919 2.748056-.6530717v-1.2128473c-.793063.4291614-1.530796.6530717-2.37919.6530717-1.180372 0-1.844332-.5411165-1.844332-2.5936273 2.987819 0 4.850595-1.4367576 4.850595-3.545246 0-1.3248024-.82995-2.1084884-2.342303-2.1084884-1.881219 0-3.836212 1.9592149-3.836212 6.0828957zm4.813709-3.8064746c0 1.3061433-1.21726 2.3323987-3.393573 2.3323987.258207-2.3510579 1.346363-3.45195 2.26853-3.45195.719289 0 1.125043.3731838 1.125043 1.1195513zm4.776821-2.2017843-1.327919.1679327-.811507 9.0497068h1.309477zm-1.198816-2.7802192c0 .4851389.295093.7277084.71929.7277084.571743 0 .903723-.4105022.903723-.9143003 0-.4664797-.258207-.7463675-.71929-.7463675-.534856 0-.903723.3545245-.903723.9329594zm10.051613-1.082233-1.327919.1679327-.33198 3.7318379c-.33198-.0746368-.700847-.1119552-1.16193-.1119552-2.231642 0-4.297295 2.2017844-4.297295 6.2881468 0 2.3323987.82995 3.1720622 2.028766 3.1720622 1.014383 0 1.899663-.5224573 2.729612-1.6606679h.05533l-.147546 1.4927352h1.272589zm-2.231642 10.2065765c-.88528 1.2315065-1.77056 1.8286006-2.416076 1.8286006-.627073 0-1.1066-.5224573-1.1066-2.0525108 0-3.3399949 1.43858-5.0752995 2.821829-5.0752995.405753 0 .848393.0373184 1.180373.1119551z" fill="#1a1919"/></g><g fill="#80c9e4" transform="translate(1092 43)"><path d="m27.3921029 26.7304c-3.4083823-.256-6.3816176 2.2592-6.6436764 5.6176-.2572059 3.3568 2.2954411 6.2864 5.7022059 6.5424 3.4083823.2576 6.3816176-2.2576 6.6420588-5.6176.2588235-3.3584-2.2922059-6.2864-5.7005883-6.5424"/><path d="m28.5314118 13.15456c-6.9316177-.5232-13.6642647 2.4304-17.9914706 7.8976-.99970591 1.2624-.77323532 3.088.5111764 4.0752 1.2827942.9872 3.135.76 4.1363236-.5024 3.1091176-3.9296 7.9248529-6.048 12.8975-5.6784 4.6458823.3488 8.7822059 2.7872 11.3558823 6.6928.5645589.8576 1.5092647 1.3232 2.475 1.3232.5516177 0 1.1064706-.1504 1.6014706-.4672 1.3669118-.8736 1.7551471-2.672.8670588-4.0176-3.5798529-5.4384-9.3580882-8.8368-15.8529411-9.3232"/><path d="m29.4998971.63344c-9.6880883-.728-20.67352945 3.6288-27.98691181 11.0944-1.1275 1.1536-1.0967647 2.9936.07602942 4.1056 1.16955882 1.1136 3.03794117 1.0816 4.16544117-.072 6.14382352-6.272 15.28514702-9.9296 23.29735292-9.336 8.3163236.624 14.9276471 4.1056 19.6527941 10.3488.5775.7648 1.4655883 1.1696 2.3666177 1.1696.6130882 0 1.2277941-.1872 1.7567647-.576 1.3054412-.9584 1.5772059-2.7776.6033823-4.064-5.7879411-7.6496-13.8389705-11.912-23.9314705-12.6704"/></g></g><path d="m356 0h488v403h-488z" opacity=".011091" stroke="#fefefe"/><g fill-rule="evenodd" transform="translate(366 34)"><path d="m254 258.156069c0 .482246-.692308.843931-1.5.843931-.807692 0-1.5-.361685-1.5-.843931v-144.312138c0-.482246.692308-.843931 1.5-.843931.807692 0 1.5.361685 1.5.843931z" fill="#5a5a5c" fill-rule="nonzero"/><path d="m200.928423 270.419294c-.116543.485478-.815801.728217-1.631601.485478-.815801-.242739-1.398515-.849587-1.281972-1.335066l25.056727-154.989c.116543-.485478.815801-.728217 1.631601-.485478.815801.242739 1.398515.849587 1.281972 1.335066z" fill="#5a5a5c" fill-rule="nonzero"/><path d="m298.071577 270.419294c.116543.485478.815801.728217 1.631601.485478.815801-.242739 1.398515-.849587 1.281972-1.335066l-25.056727-154.989c-.116543-.485478-.815801-.728217-1.631601-.485478-.815801.242739-1.398515.849587-1.281972 1.335066z" fill="#5a5a5c" fill-rule="nonzero"/><path d="m252 0h10v94h-10z" fill="#5a5a5c" fill-rule="nonzero"/><path d="m188 10h129v137h-129z" fill="#929497" fill-rule="nonzero"/><path d="m199 16h109v120h-109z" fill="#fff" fill-rule="nonzero"/><path d="m185 140h137v9h-137z" fill="#5a5a5c" fill-rule="nonzero"/><path d="m247 9h20v9h-20z" fill="#5a5a5c" fill-rule="nonzero"/><g fill-rule="nonzero" transform="translate(218 32)"><path d="m48.7272727 52.92c-.3654545 1.68-.9745454 3.36-1.4618182 5.16-3.7763636 10.92-10.110909 19.08-18.76 24.24-8.6490909-5.16-14.9836363-13.32-18.75999995-24.24-3.28909091-9.48-3.4109091-17.52-3.4109091-17.64v-8.88l4.38545455 1.68 9.1363636 9.96 9.1363637-7.32 3.8981818 5.64-1.4618182 12.12 14.0090909-1.92z" fill="#cee9fb"/><path d="m54.6963636 55.08c-2.9236363 11.28-9.8672727 26.28-26.1909091 34.32-28.38363632-14.04-28.38363632-48.96-28.38363632-48.96v-11.28l6.33454546 2.4v8.88s.12181818 8.16 3.41090909 17.64c3.77636367 10.92 10.11090907 19.08 18.75999997 24.24 8.6490909-5.16 14.9836364-13.32 18.76-24.24.6090909-1.8 1.0963637-3.48 1.4618182-5.16z" fill="#92d2f4"/><path d="m66.5127273 7.08v21s0 6.36-2.1927273 14.76l-5.9690909-2.28c1.8272727-7.08 1.8272727-12.48 1.8272727-12.48v-17.76c-3.5327273-1.8-10.72-4.08-22.1709091-4.08-11.3290909 0-18.5163636 2.16-22.0490909 4.08v8.88l-6.33454544-2.4v-9.72s7.06545454-6.96 28.38363634-6.96 28.5054546 6.96 28.5054546 6.96z" fill="#92d2f4"/><path d="m60.3 10.32v17.76c0 .12 0 5.4-1.8272727 12.48l-3.4109091-1.2-14.0090909 1.92 1.4618182-12.12-3.8981819-5.64-9.1363636 7.32-9.1363636-9.96-4.3854546-1.68v-8.88c3.5327273-1.8 10.72-4.08 22.0490909-4.08 11.4509091.12 18.6381818 2.28 22.2927273 4.08z" fill="#cee9fb"/></g><ellipse cx="213.995563" cy="38.274969" fill="#d52e1e" fill-rule="nonzero" rx="7.702211" ry="7.701823" transform="matrix(.67740742 -.73560804 .73560804 .67740742 40.878007 169.764079)"/><path d="m211 35.3888889c.807692-.2592593 1.5-.3888889 2.192308-.3888889h.807692v7h-1.384615v-5.4444444c-.576923 0-1.038462 0-1.615385.1296296z" fill="#fff" fill-rule="nonzero"/><ellipse cx="276.960042" cy="29.81569" fill="#d52e1e" fill-rule="nonzero" rx="7.702211" ry="7.701823" transform="matrix(.67740742 -.73560804 .73560804 .67740742 67.412594 213.352355)"/><path d="m274.666667 26.2592593c.8-.1296297 1.466666-.2592593 2.266666-.2592593 1.866667 0 2.8.9074074 2.8 2.2037037 0 1.037037-.666666 1.6851852-1.866666 2.2037037l-.933334.3888889c-.4.1296296-.8.3888889-1.2.7777778h4.266667v1.4259259h-5.733333l-.266667-1.1666667c.133333-.7777777.8-1.4259259 1.866667-1.9444444l1.066666-.5185185c.8-.3888889 1.066667-.6481482 1.066667-1.0370371 0-.5185185-.533333-.7777777-1.333333-.7777777-.666667 0-1.333334 0-2 .2592592z" fill="#fff" fill-rule="nonzero"/><ellipse cx="292.77517" cy="77.29379" fill="#d52e1e" fill-rule="nonzero" rx="7.702211" ry="7.701823" transform="matrix(.67740742 -.73560804 .73560804 .67740742 37.589165 240.302174)"/><path d="m291.139535 72h5.44186l.27907 1.25c-.558139 1-1.116279 1.75-2.093023 2.375 1.395349.25 2.232558 1.125 2.232558 2.375 0 1.75-1.813953 3-4.744186 3h-1.255814v-1.25h1.255814c1.953488 0 2.930233-.625 2.930233-1.625 0-.75-.55814-1.25-1.674419-1.5-.55814.25-1.116279.375-1.674419.5l-.279069-1.25c1.813953-.375 3.069767-1.25 3.767441-2.5h-4.046511z" fill="#fff" fill-rule="nonzero"/><ellipse cx="273.784788" cy="120.411913" fill="#d52e1e" fill-rule="nonzero" rx="7.702211" ry="7.701823" transform="matrix(.67740742 -.73560804 .73560804 .67740742 -.255029 240.242283)"/><path d="m275.901961 121.5h1.098039v1.25h-1.098039v2.25h-1.647059v-2.25h-3.843137l-.411765-1c.411765-2.5 1.921569-4.625 4.254902-5.75h1.647059zm-1.509804 0v-4c-1.509804.875-2.470588 2.25-2.745098 4z" fill="#fff" fill-rule="nonzero"/><ellipse cx="217.512252" cy="112.984213" fill="#d52e1e" fill-rule="nonzero" rx="7.702211" ry="7.701823" transform="matrix(.67740742 -.73560804 .73560804 .67740742 -12.944256 196.451631)"/><path d="m219.710902 111.25h-3.900128v1.875h.975032c2.089354 0 3.342967 1.125 3.203677 2.625 0 2-1.950065 3.25-4.73587 3.25h-1.253613v-1.25h1.253613c1.671483 0 2.925096-.625 2.925096-1.75 0-.875-.696452-1.5-2.228645-1.5-.557161 0-1.253613 0-1.810774.125v-4.625h5.293031z" fill="#fff" fill-rule="nonzero"/><g stroke="#d52e1e"><path d="m217.726316 39.488889 1.694737.733333"/><path d="m221.6 41.2 15.252632 6.722222" stroke-dasharray="2.9567 1.9711"/><path d="m237.942105 48.411111 1.694737.733333"/></g><g stroke="#d52e1e"><path d="m272.466667 32.533333-1.466667 1.333334"/><path d="m268.866667 35.866667-9.333334 8.8" stroke-dasharray="3.2204 2.147"/><path d="m258.466667 45.733333-1.466667 1.333334"/></g><circle cx="240.5" cy="50.5" fill="#d52e1e" fill-rule="nonzero" r="3.5"/><g stroke="#d52e1e"><path d="m221.22963 110.182212 1.377777-1.16827"/><path d="m224.32963 107.612019 24.685185-21.729807" stroke-dasharray="2.944 1.9627"/><path d="m249.933333 85.18125 1.262963-1.168269"/></g><circle cx="254.5" cy="84.5" fill="#d52e1e" fill-rule="nonzero" r="3.5"/><circle cx="257.5" cy="48.5" fill="#d52e1e" fill-rule="nonzero" r="3.5"/><g stroke="#d52e1e"><path d="m290.5 76.125-1.625-.875"/><path d="m286.375 74.125-11.375-5.25" stroke-dasharray="3.3404 2.2269"/><path d="m273.75 68.25-1.75-.75"/></g><circle cx="272.5" cy="70.5" fill="#d52e1e" fill-rule="nonzero" r="3.5"/><g stroke="#d52e1e"><path d="m268.607692 116.946154-1.438461-1.25641"/><path d="m264.946154 113.930769-9.807692-8.166666" stroke-dasharray="3.3246 2.2164"/><path d="m253.961538 104.758974-1.438461-1.25641"/></g><g fill-rule="nonzero"><circle cx="255.5" cy="103.5" fill="#d52e1e" r="3.5"/><g transform="translate(106 14)"><path d="m32.4151271 260.476158 2.4190394-4.808051 15.3608998-.480805-1.5723756 3.485837c2.9028472 1.322214 6.5314062 2.764629 11.006629 3.846441 3.2657031.841409 6.2895023 1.202012 8.9504456 1.442415.1209519 0 3.0237991.96161 2.5399913 2.644428-.8466638 3.125233-22.3761139 1.803019-23.1018257 1.562617h-.120952c-1.6933275-.360604-3.2657031-.841409-4.7171267-1.322214l-.7257118.96161-9.5552054-.601007c-.120952 0-.2419039-.120201-.4838079-.120201-1.2095196-.360604 0-6.61107 0-6.61107z" fill="#000"/><path d="m2.05618344 269.491254 2.41903934-4.808051 15.36089982-.360604-1.5723756 3.485837c2.0561834 1.442415 4.8380787 3.125233 8.5875897 4.447447 4.1123668 1.442415 7.7409259 2.043421 10.4018691 2.283824 1.4514236.240403 1.6933276 1.562617 2.4190394 2.524227.6047598.841409-.120952 1.92322-1.2095197 1.92322l-18.6266029-1.081811c-.7257118-.120202-1.4514236-.360604-2.2980874-.480805h-.120952c-1.6933275-.360604-3.2657031-.841409-4.7171267-1.322214l-.7257118.96161-9.55520536-.601007c-.12095197 0-.24190393-.120201-.48380787-.120201-1.0885677-.601006.12095197-6.851472.12095197-6.851472z" fill="#000"/><path d="m46.4455553 134.986029 13.3047164 62.26426s-9.9180613 36.661388-6.7733102 62.023856c-17.6589871 2.283825-20.9246903-3.606038-20.9246903-3.606038s0-44.955276 1.5723756-55.052183c-8.4666377-31.973538-26.48848075-63.225869-26.48848075-63.225869z" fill="#00233e"/><path d="m48.3807868 142.558709-4.7171267 64.18748s-15.9656597 37.983602-19.5942187 62.865266c-20.44088239-3.245435-21.65040206-3.245435-21.65040206-3.245435s12.69995656-50.244132 15.96565966-59.860233c-2.6609433-32.935149-12.69995655-64.548084-12.69995655-64.548084z" fill="#003051"/><path d="m39.5512932 6.97167382s5.3218865 6.13026488 6.7733101 11.29891968c0 0 .4838079 1.322214 0 2.1636229-.4838078.8414089-.4838078 1.322214.4838079 2.644428.8466638 1.322214 2.6609433 3.0050318 1.8142795 4.3272458-.8466637 1.322214-2.6609433 1.8030191-2.6609433 1.8030191s1.8142796 3.0050318 0 3.966642c0 0 1.3304717.8414089 0 2.644428-1.3304716 1.322214 1.3304717 4.8080509-3.8704629 6.61107-5.6847424 1.322214-7.0152141 3.1252331-7.8618778 4.4474471-.4838079 1.322214-.4838079 1.322214-.4838079 1.322214l-18.9894588-6.0100637s1.3304716-2.644428 1.2095196-6.61107c0-3.966642 0-3.966642 0-3.966642s9.5552054-23.19884561 23.5856336-24.64126088z" fill="#f6b086"/><path d="m42.6960443 65.7500962s.8466638-2.1636229-.4838078-5.6494598c-1.3304717-3.4858369-2.1771354-2.1636229-3.1447512-6.61107-.4838078-4.8080509 0-6.61107 0-6.61107l-10.1599652-3.4858369-20.68278635 12.8615361s-.7257118 18.030191 1.57237557 26.3240788c2.29808738 7.933284 8.95044558 16.2271718 8.95044558 16.2271718z" fill="#003d64"/><path d="m39.0674853 46.8784964s-.1209519-.1202013 0 1.5626165c-.4838078 1.8030191 0 3.7262395 0 4.6878497 0 .8414089-1.2095196 2.2838241-1.2095196 2.2838241s-10.6437731-4.0868432-14.9980439-5.288856c-4.4752228-1.6828178-10.1599653-5.6494598-10.1599653-5.6494598s0-2.644428.3628559-3.966642c0-.4808051.8466638-.8414089 1.3304717-.8414089 8.2247337 1.6828178 16.6913714 3.8464407 24.6742012 7.2120764z" fill="#92d2f4"/><path d="m38.7046294 58.7784224s-7.9828298-3.0050318-14.1513801-2.5242268c-6.1685503.4808051-13.6675723 7.5726802-14.3932841 16.8281782-.84666374 9.255498 4.9590307 18.3907948 21.4084982 22.5978393 15.9656596 4.2070446 17.7799391 7.8130829 17.7799391 7.8130829l3.3866551 46.638094-52.3722017-4.928253s6.16855032-11.41912.96761574-82.0974688c-.7257118-10.4575107 10.88567706-18.9918011 10.88567706-18.9918011s7.4990219 2.5242267 13.3047163 4.3272458c5.5637905 1.5626166 11.8532928 8.1736866 13.1837644 10.3373095z" fill="#003d64"/><path d="m40.6398609 29.3291106-3.1447511.9616101s.3628559-3.1252331-1.8142795-4.8080509c-2.1771355-1.6828178-5.6847425 2.2838242-7.8618779 6.61107-2.1771354 4.4474471-11.4904369 3.6060382-11.4904369 3.6060382s0-3.1252331-2.2980873-6.61107c-2.2980874-3.4858369-5.44283855-17.0685807 5.0799826-24.64126091 10.5228211-7.57268018 22.1342099-1.08181145 22.1342099-1.08181145s2.2980874 3.966642-.3628559 5.288856c-2.6609432 1.322214-3.1447511.48080509-2.6609432 2.64442796.4838078 1.8030191 2.1771354 2.644428 2.6609432 4.3272459 0 .480805 0 1.322214-.4838078 1.803019-.241904 1.322214-1.0885677 3.9666421.2419039 11.8999261z" fill="#2b1110"/><g fill="#f7b282" transform="translate(27.68179 57.696611)"><path d="m32.7941931 32.0937398-18.7475549-17.3089833c-.7257118 5.288856-10.1599652 12.5009324-14.03042814 13.5827439 0 0 22.01325794 13.8231463 30.84275154 18.2705934 1.6933276.8414089 3.9914149-.6010063 5.5637905-1.6828178l26.6094327-20.5544176-3.9914149-7.2120764z"/><path d="m75.0064296 1.20201273-10.2809172 8.05348527c-.8466638.60100637-2.0561835.60100637-2.7818953-.12020127-.4838078-.48080509-.7257118-1.20201273-.7257118-1.92322036l.3628559-3.1252331c-.1209519-2.28382418-1.0885677-3.60603818-2.7818952-3.36563563l-2.4190393 9.73630306 2.2980873 10.4575108 1.5723756 5.4090572 6.0475984-3.7262394c4.1123668-2.644428 6.8942621-7.2120764 6.8942621-7.2120764 1.6933275-1.322214.6047598-3.7262394.6047598-3.7262394-.3628559-.2404026.2419039-1.80301913.120952-2.16362295l-.120952-1.08181146c0-.60100636-.4838079-1.20201272-.9676157-1.44241527 0 0 3.1447511-2.88483055 3.1447511-3.48583691.4838079-1.80301909-.9676157-2.28382418-.9676157-2.28382418z"/></g><path d="m54.791241 82.8186769c-.8466637-.8414089-3.507607-3.4858369-4.4752227-5.6494598-.8466638-2.1636229-.9676158-4.8080509-2.6609433-6.61107-1.8142795-1.6828178-4.9590307-14.4241527-13.7885243-10.4575107-8.3456857 3.966642-13.1837643 13.7029451-12.5790045 20.3140151.4838079 6.9716738-.3628559 10.0969069 2.7818952 12.7413349 3.1447512 2.644428 14.1513802 8.6544916 20.8037383 10.3373096 6.6523582 1.682818 3.6285591 0 5.4428386.841409 1.8142795.480805 6.6523581.841409 8.8294935-.480805 2.1771355-1.803019 3.5076071-6.1302653 2.1771355-10.5777123-.120952 0-1.4514237-7.5726802-6.5314063-10.4575108z" fill="#003d64"/></g><g transform="translate(401 18)"><path d="m26.4345455 237.474208c.3654545 2.647964 1.5836363 4.333032 2.3145454 5.657014.9745455 1.564706.8527273 4.333031.1218182 5.055203-2.0709091 2.166516-4.6290909 1.564706-7.0654546 3.370136-2.5581818 1.80543-6.090909 7.823529-8.2836363 8.545701s-7.18727275.722172-7.67454547-.240724c-.36545455-1.083257 4.62909087-5.175565 4.62909087-5.175565 7.3090909-10.110407 7.9181819-14.804525 7.9181819-14.804525s7.9181818-2.768326 8.04-2.40724z" fill="#fac39d"/><path d="m10.5981818 254.685973s-1.46181816 1.323982-1.2181818 1.685068c.36545455.481448 2.68.120362 3.2890909-.120362 5.2381818-3.00905 11.9381818-9.267874 13.4-11.193665 1.4618182-1.925792 1.4618182-4.092308 1.4618182-4.092308.4872727 0 2.5581818 2.888688 2.1927273 5.175565-.1218182.481448-.6090909 1.80543-.8527273 2.046154-1.0963636 1.20362-5.1163636 3.490498-6.2127273 4.21267-2.5581818 1.80543-5.7254545 7.823529-7.9181818 8.545701s-9.62363636 1.083258-10.11090909 0c-.24363636-.842534 3.65454545-4.453393 5.96909089-6.258823z" fill="#1a1a1a"/><path d="m29.7236364 245.779186s-1.34 4.212669-1.7054546 5.657013c-.6090909 2.166516-.7309091 6.740272-.7309091 6.740272h-.9745454s.7309091-8.666064-3.6545455-5.777376c-1.34.842534 7.0654546-6.619909 7.0654546-6.619909z" fill="#1a1a1a"/><path d="m26.1909091 175.608145c5.9690909 5.777375 7.3090909 20.822624 6.9436364 26.720362-.3654546 5.777375-7.309091 36.228959-6.9436364 38.275113.3654545 2.046154-7.7963636.481448-7.7963636-.722172.6090909-11.675113-2.68-42.608145-3.1672728-45.617195-.4872727-3.009049-2.0709091-16.97104-2.1927272-18.415384.1218181-7.101358 9.7454545-3.61086 13.1563636-.240724z" fill="#fac39d"/><path d="m63.1018182 249.269683s3.0454545 7.342082 3.0454545 9.267874c0 1.925791-.9745454 6.619909-2.5581818 6.860633s-5.36-3.249774-5.7254545-3.851584c-2.68-3.249773-2.8018182-9.869683-2.8018182-9.869683z" fill="#313131"/><path d="m61.5181818 245.057014s2.4363637 5.536651 2.9236364 9.990045c.1218182.962896-.6090909 5.175565-2.0709091 5.175565-4.1418182.120362-7.4309091-6.860633-7.3090909-9.388235.1218182-2.40724.2436363-5.055203.2436363-5.055203z" fill="#efb690"/><path d="m46.2909091 174.765611c-5.36 1.083258-6.7 4.694118-4.1418182 20.341176 1.9490909 11.795475 9.5018182 38.515837 13.0345455 50.792761 1.0963636 3.851583.7309091 6.499547 1.0963636 6.499547 1.5836364 0 6.0909091-.120362 6.5781818-3.61086.1218182-.722172-1.5836363-3.370135-1.7054545-5.416289 0-12.156561-.1218182-42.969231-.8527273-47.302263-.8527273-5.055203-5.4818182-22.98914-14.0090909-21.304072z" fill="#efb690"/><path d="m10.72 42.2470588c-3.53272727-.240724-7.06545455 10.4714932-7.79636364 22.1466064-1.21818181 20.3411764-6.33454545 24.7945701.97454546 26.7203619 9.13636368 2.2868779 7.18727268-6.1384615 10.59818178-23.2298642 2.68-13.480543 3.6545455-25.0352941-3.7763636-25.6371041z" fill="#d0d0d0"/><path d="m7.18727273 118.676923c-2.43636364 4.453394-2.43636364 12.638009-1.09636364 23.109502 1.70545455 14.323077 6.45636361 37.191856 7.06545451 39.238009 2.68 9.267874 11.9381819 8.906788 13.4 1.564706.3654546-2.046154 3.5327273-43.330316 3.0454546-47.904072s-3.0454546-12.999095-6.4563637-18.054299c-2.4363636-3.851583-12.1818181-4.694117-15.95818177 2.046154z" fill="#fac39d"/><path d="m49.7018182 119.038009c3.2890909 3.971946 4.8727273 11.915837 5.7254545 22.507692 1.2181818 14.443439.6090909 36.108598.4872728 38.154751-.7309091 9.62896-11.6945455 11.314028-14.6181819 4.333032-.7309091-1.925792-10.5981818-41.645249-10.9636363-46.339366-.3654546-4.694118-1.5836364-12.999095.7309091-18.656109 1.5836363-4.092308 13.6436363-5.897738 18.6381818 0z" fill="#efb690"/><path d="m8.64909091 112.057014c-1.70545455 4.333031-2.92363636 8.425339-2.43636364 10.591855 1.70545455 6.499547 21.19636363 12.036199 21.19636363 12.036199h1.34v-21.183711c-7.4309091 0-12.5472727-1.444343-20.09999999-1.444343z" fill="#28557d"/><path d="m52.9909091 47.4226244c-1.34-3.0090497-8.2836364-4.3330316-11.3290909-5.1755656-3.1672727-.9628959-12.7909091-1.3239819-12.7909091-1.3239819s-15.1054546 1.4443439-18.3945455 1.3239819c-1.33999996 0-2.4363636 4.8144797-2.92363633 6.2588236-3.04545454 7.8235294-6.57818181 17.0914027.97454546 23.4705882 1.70545457 1.4443439 3.16727277 18.0542986 3.16727277 25.7574661 0 3.2497733-.609091 8.3049773-3.04545459 14.3230773 7.55272729 0 12.66909089 1.444343 20.09999999 1.444343h22.5363636c-2.3145454-6.018099-4.8727272-12.638009-5.4818181-15.7674203-4.1418182-23.7113123 9.2581818-45.8579186 7.1872727-50.3113123z" fill="#da9b00"/><path d="m28.8709091 113.501357v21.183711h1.34s21.9272727-4.092308 23.6327273-10.591855c.6090909-2.286878-.7309091-6.258824-2.4363637-10.591856-7.5527272 0-14.9836363 0-22.5363636 0z" fill="#28557d"/><path d="m35.2054545 74.0226244c-1.9490909-.9628959-6.3345454-.4814479-16.6890909-1.0832579-10.35454542-.4814479-11.8163636-5.6570136-13.27818178-7.9438914-1.46181818-2.1665158-.12181818-9.5085973 0-9.8696832-1.82727273 6.0180995-2.19272727 12.156561 3.28909091 16.8506787 1.70545457 1.4443439 3.16727277 18.0542986 3.16727277 25.7574661 0 3.2497733-.609091 8.3049773-3.04545459 14.3230773 4.75090909 0 8.52727269.60181 12.66909089 1.083257 0 0-1.34-5.536651-1.34-8.425339 0-11.073303 22.2927273-3.370136 24.7290909-8.1846153 2.4363637-4.8144796-8.7709091-16.3692307-7.5527272-17.9339366 1.2181818-1.6850679.1218181-3.6108597-1.949091-4.5737557z" fill="#c08a00"/><path d="m8.64909091 112.057014s-3.28909091 5.416289-4.02 15.406334c-.60909091 9.869684 6.45636359 55.486878 6.45636359 55.486878l19.9781819 1.083258 26.4345454-2.046154s-.6090909-41.645249-1.8272727-54.162896c-1.2181818-12.397285-4.7509091-15.526696-4.7509091-15.526696l-23.9981818.962895z" fill="#da9b00"/><path d="m25.9472727 154.304072c-1.4618182 1.564706-.7309091 14.082353-2.9236363 16.489593-2.3145455 2.527602-5.7254546 2.166516-7.6745455-2.166516-1.9490909-4.333031-7.06545454-35.266063-2.9236364-46.098642 2.9236364-7.582806 8.8927273-9.388236 8.8927273-9.388236l-.7309091-.240723-11.81636361-.842534s-3.28909091 5.416289-4.02 15.406334c-.60909091 9.869684 6.45636361 55.486878 6.45636361 55.486878l19.9781818 1.083258 4.2636364-.240724s-4.7509091-.962896-5.4818182-5.295927c-1.4618182-8.545702-2.8018182-25.637104-4.02-24.192761z" fill="#c08a00"/><path d="m12.9127273 42.2470588s-7.91818185 17.0914027 8.4054545 17.0914027c0 0 13.6436364 1.6850679 19.1254546-12.758371 0 0 1.0963636-2.5276018 6.7-2.8886878 0 0-13.5218182-5.7773756-34.2309091-1.4443439z" fill="#e7e7e7"/><path d="m31.3072727 6.98099548s4.5072728-6.25882353 9.38-2.52760181c4.8727273 3.73122171 4.5072728 11.79547513 2.1927273 14.32307693-2.4363636 2.5276018-6.4563636 13.600905-5.6036364 13.8416289.7309091.120362-.2436363 2.0461539-2.0709091 1.6850679-1.8272727-.361086-6.7-2.4072398-4.9945454-7.9438914 1.8272727-5.5366516.3654545-9.8696832.3654545-9.8696832z" fill="#202c2b"/><path d="m35.6927273 36.7104072c-.9745455-2.5276018-.8527273-11.9158371-.8527273-11.9158371h-6.0909091-6.0909091s.1218182 9.3882353-.8527273 11.9158371c-.9745454 2.5276018-4.750909 5.5366516-4.750909 5.5366516s-1.5836364 6.6199095 8.8927272 6.6199095c10.4763637 0 12.7909091-7.2217194 12.7909091-7.2217194s-2.0709091-2.4072399-3.0454545-4.9348417z" fill="#fac39d"/><path d="m34.9618182 29.4886878c-.1218182-2.5276018-.1218182-4.6941177-.1218182-4.6941177h-6.0909091-6.0909091s.1218182 9.3882353-.8527273 11.9158371c-.9745454 2.5276018-5.8472727 6.1384616-5.8472727 6.1384616z" fill="#efb690"/><path d="m39.4690909 21.0633484c-2.8018182 8.9067873-12.7909091 13.841629-17.42 12.5176471-4.5072727-1.3239819-8.4054545-10.4714932-6.4563636-19.8597285 1.9490909-9.14751134 9.1363636-13.36018103 15.9581818-11.31402718 6.9436364 2.16651584 10.72 9.74932128 7.9181818 18.65610858z" fill="#fac39d"/><path d="m23.7545455 7.9438914c.6090909 2.6479638 3.0454545 4.5737557 8.6490909 5.7773756 4.02.8425339 5.8472727 6.7402715 5.4818181 8.9067873-.1218181.8425339-1.7054545 4.6941176-1.7054545 4.6941176s9.8672727-7.1013574 3.5327273-18.65610855c-6.3345455-11.67511312-16.6890909-6.98099548-16.8109091-6.13846154-.2436364.96289593.4872727 4.09230769.8527273 5.41628959z" fill="#202c2b"/><path d="m26.3127273 6.13846154s-.4872728 3.85158371-3.8981818 4.21266966c-3.4109091.361086-6.9436364 2.6479638-6.9436364 2.6479638s.6090909-9.14751129 7.4309091-10.23076921c6.7-1.20361991 3.4109091 3.37013575 3.4109091 3.37013575z" fill="#202c2b"/><path d="m50.4327273 45.1357466c4.02.481448 5.7254545 11.5547511 4.02 23.1095023-2.9236364 19.8597285-.4872728 26.840724-7.6745455 26.6-6.5781818-.240724-5.8472727-8.4253394-5.9690909-25.7574661-.1218182-13.600905 1.2181818-24.9149321 9.6236364-23.9520362z" fill="#e7e7e7"/><g fill="#465557" transform="translate(5.843742 54.162896)"><path d="m.37505376.84245933 30.21143444.00560004.0074742 39.84074223-30.21143439-.0056z" transform="matrix(.99987974 -.01550832 .01550832 .99987974 -.320178 .242636)"/><path d="m4.87625823 1.20361991s1.82727273 13.72126699 7.06545457 20.10045249c5.2381818 6.2588235 18.6381818 8.3049774 18.6381818 8.3049774l.2436364 10.9529412-30.21090913.4814479-.60909091-39.83981899z"/></g><path d="m7.91818182 113.380995s11.81636368 6.138462 43.00181818-1.083257l-.8527273-2.046154s-24.12 7.221719-41.17454543 1.925792c-.12181818 0-.24363636-.120362-.36545454-.120362z" fill="#2f2722"/><g fill="#f8bc96"><path d="m.12181818 89.6696833c.36545455 3.2497737 5.60363637 5.5366515 15.59272732 4.3330316 11.450909-1.4443439 28.0181818-3.2497737 27.530909-6.1384615-.6090909-3.9719457-14.9836363-3.4904977-26.6781818-4.8144796-11.69454543-1.3239819-17.17636361-.120362-16.44545452 6.6199095z"/><path d="m51.8945455 91.2343891c.8527272-3.0090497-5.2381819-8.3049773-14.4963637-10.8325791-10.72-2.8886878-25.9472727-7.2217195-26.5563636-4.4533937-.85272729 3.7312217 12.06 8.5457013 21.8054545 13.9619909 9.9890909 5.5366516 17.5418182 7.7031675 19.2472728 1.3239819z"/><g transform="translate(3.407378 69.809955)"><path d="m.12534914 6.49954751c.12181819-.48144796.60909091-.84253394 1.09636364-.60180995l3.89818182 1.08325792c.48727273.12036199.85272727.60180995.60909091 1.2036199-.12181818.48144797-.60909091.84253394-1.09636364.60180996l-3.89818182-1.08325792c-.36545454-.12036199-.73090909-.72217194-.60909091-1.20361991z"/><path d="m.49080369 4.81447964c.12181818-.48144797.60909091-.84253394 1.09636364-.60180996l3.89818181 1.08325792c.48727273.12036199.85272728.60180996.60909091 1.20361991-.12181818.48144797-.60909091.84253394-1.09636363.60180996l-3.89818182-1.08325792c-.48727273-.24072398-.73090909-.72217195-.60909091-1.20361991z"/><path d="m.85625824 3.12941176c.12181818-.48144796.6090909-.84253393 1.21818181-.60180995l3.89818182 1.08325792c.48727273.12036199.85272727.60180995.60909091 1.20361991-.12181818.48144796-.60909091.84253393-1.09636364.60180995l-3.89818181-1.08325792c-.48727273-.24072398-.85272728-.72217194-.73090909-1.20361991z"/><path d="m1.46534914 1.56470588c.12181819-.48144796.60909091-.84253393 1.09636364-.60180995l3.89818182 1.08325792c.48727273.12036199.85272727.60180995.60909091 1.20361991-.12181818.48144796-.60909091.84253393-1.09636364.60180995l-3.89818182-1.08325792c-.48727272-.24072398-.73090909-.72217194-.60909091-1.20361991z"/><path d="m14.3780764 5.77737557s-4.75090907-3.61085973-5.96909089-4.0923077c-1.21818182-.48144796-6.33454546-.84253393-6.33454546-.84253393s1.09636364 2.04615384.60909091 3.12941176-1.94909091 3.73122172-1.94909091 3.73122172 3.65454546 1.68506787 5.60363637 2.16651584c3.04545454.84253394 4.87272728.84253394 4.87272728.84253394z"/></g></g></g><g transform="translate(326 40)"><path d="m70.2281523 51.8302041c3.3728786-1.8122449 8.7935765.7248979 11.4436954 9.0612245 2.650119 8.3363265 8.9140365 30.2040816 9.7572562 33.8285714s4.2160983 11.115102-2.7705789 14.377143c-6.8662173 3.141224-9.8777161-4.107755-12.4073751-9.7861226-10.9618557-25.0089796-15.0574941-42.6481633-6.0229976-47.4808163z" fill="#815245"/><path d="m91.9109437 100.760816c-1.3250595-3.3828568-4.2160983-5.678367-13.9733545-3.2620405-9.8777161 2.4163265-30.235448 9.9069385-30.235448 9.9069385l.7227597 5.557551s20.8395717.724898 26.2602696-.362449c5.3002379-.96653 20.5986519-2.899592 17.2257732-11.84z" fill="#815245"/><path d="m64.2051546 282.589388s6.0229977-2.29551 9.1549564-2.174694c2.1682792.120816 4.9388581 1.933061 5.059318 3.745306 0 .724898-.8432196 1.570612-1.5659794 2.537143-.7227597.845714-9.998176 7.369796-12.0459952 7.611428-3.4933386.362449-7.1071372.362449-9.0344964-.362449-1.9273593-.724898-1.9273593-7.369795-1.9273593-7.369795z" fill="#55210e"/><path d="m25.0556701 95.444898c-4.2160983-12.927347-15.05749405-35.0367347-8.6731166-38.9028572 8.3117367-5.0742857 32.0423474-8.0946939 32.0423474-8.0946939v.362449s20.3577319 2.6579592 28.6694686 7.6114286c6.3843775 3.8661224-.9636796 26.4587755-5.1797779 39.3861224-.9636796 3.1412245-.8432197 17.0351021-.4818398 29.3583671.1204599 3.020408 2.529659 17.035102 2.1682791 22.834286-.1204599 1.691429-19.5145123 12.444082-25.0556701 12.685714v-.362449c-5.4206978-.241632-24.9352101-10.873469-25.0556701-12.685714-.4818398-5.799184 2.0478192-19.693061 2.1682792-22.834286.3613798-12.323265.4818398-26.2171426-.6022998-29.358367z" fill="#f8bc96"/><path d="m38.5471848 44.7020408c.6022997-2.4163265 1.9273592-14.6187755 1.9273592-14.6187755h8.0708168v.362449h8.0708168s1.3250595 12.202449 1.9273593 14.6187755c.6022997 2.4163265 7.1071372 6.1616326 7.1071372 6.1616326h-17.1053133v-.3624489h-17.1053132c-.12046 0 6.5048374-3.7453062 7.1071372-6.1616327z" fill="#744135"/><g fill="#f8bc96"><path d="m61.3141158 134.468571c9.7572561 0 13.6119746 6.765715 13.3710547 27.908572-.2409199 21.022041-3.3728787 43.856326-4.6979381 47.118367-1.3250595 3.262041-15.298414 3.382857-16.6234735 1.449796s-4.8183981-45.547755-4.8183981-52.434286c0-6.88653 2.0478192-24.042449 12.768755-24.042449z"/><path d="m55.8934179 226.409796 11.9255353-.241633c1.3250595 0 2.4091991-1.087347 2.2887391-2.416326l-.4818398-18.122449c0-1.32898-1.0841396-2.416327-2.4091991-2.29551l-11.9255352.241632c-1.3250595 0-2.4091991 1.087347-2.2887391 2.416327l.4818398 18.122449c0 1.208163 1.0841395 2.29551 2.409199 2.29551z"/><path d="m62.0368755 213.361633c3.0114988 0 10.3595559.96653 9.998176 20.659591-.3613798 19.572245-8.6731165 46.514286-8.6731165 46.514286h-7.1071372s-3.4933386-36.365714-3.4933386-43.252245c-.12046-15.947755-.2409199-23.921632 9.2754163-23.921632z"/><path d="m35.415226 134.589388c-9.7572561-1.087347-14.2142744 5.315918-16.2620936 26.337959-1.9273592 20.901224-1.2045995 43.977143-.2409199 47.36s14.8165742 4.953469 16.3825536 3.141224c1.5659793-1.812244 9.5163362-44.822857 10.2390959-51.588571.8432197-6.765714.4818398-24.163265-10.118636-25.250612z"/><path d="m31.1991277 226.530612-11.8050754-1.570612c-1.3250594-.120816-2.2887391-1.32898-2.0478192-2.657959l2.2887391-18.001633c.12046-1.328979 1.3250595-2.29551 2.650119-2.053877l11.8050753 1.570612c1.3250595.120816 2.2887391 1.328979 2.0478192 2.657959l-2.2887391 18.001633c-.1204599 1.328979-1.3250594 2.29551-2.6501189 2.053877z"/><path d="m26.5011895 212.999184c-3.0114988-.362449-10.3595559-.120817-12.0459952 19.451428s3.7342585 47.118368 3.7342585 47.118368l6.9866773.724898s7.2275971-35.761633 7.9503568-42.648164c1.8068993-15.706122 2.7705789-23.68-6.6252974-24.64653z"/></g><path d="m71.9145916 130.24s3.4933386 17.276735 4.0956384 26.700408c.6022997 9.423674-3.9751785 50.622041-4.0956384 55.213061 0 4.591021.2409199 18.484898 0 32.137143s-3.7342585 40.594286-3.7342585 40.594286l-17.4666931-.483265s0-57.750204 0-66.811429c0-9.061224-2.1682792-56.90449-2.1682792-56.90449v-29.720816z" fill="#3c3c3b"/><path d="m25.29659 129.635918s-5.3002379 16.914286-6.8662173 26.217143-1.3250595 50.742857-1.8068993 55.333878c-.4818398 4.470204-2.1682791 18.364081-3.3728786 31.89551-1.2045996 13.652245-.4818398 40.715102-.4818398 40.715102l17.3462331 1.449796s6.0229976-57.387755 6.9866772-66.44898c.9636797-9.061224 11.3232356-56.662857 11.3232356-56.662857l-.12046-31.170612z" fill="#3c3c3b"/><path d="m66.9757335 284.764082s.3613799 6.282449 0 8.094694c-.1204599 1.087346-2.8910388 2.174693-7.468517 2.416326-3.4933386.241633-6.7457573-.966531-7.4685171-1.32898-2.0478191-.845714.6022998-9.544489.6022998-9.544489z" fill="#55210e"/><path d="m18.6712926 281.139592s-6.0229976-2.29551-9.15495636-2.174694c-2.16827914.120816-4.93885805 1.933061-5.059318 3.745306 0 .724898.84321967 1.570612 1.56597938 2.537143.72275972.845714 9.99817608 7.369796 12.04599528 7.611429 3.4933386.362448 7.1071372.362448 9.0344964-.241633 1.9273592-.724898 1.9273592-7.369796 1.9273592-7.369796z" fill="#55210e"/><path d="m27.3444092 165.035102c-.9636796 6.161633-2.1682791 47.722449-2.2887391 50.017959-.1204599 2.29551-6.1434576 66.328163-6.3843775 69.227755l-5.6616177-.483265s-.7227598-27.062857.4818398-40.715102c1.2045995-13.652245 2.8910388-27.425306 3.3728786-31.89551s.2409199-45.910204 1.8068993-55.333878c1.5659794-9.302857 6.8662173-26.217143 6.8662173-26.217143l23.2487708 1.32898c.2409199 33.586939-26.0193497 24.646531-26.8625694 26.579592-1.0841395 1.933061 5.7820778 5.074286 5.4206979 7.490612z" fill="#4a4a49"/><path d="m63.8437748 166.364082c-1.4455194 7.853061-3.6137986 45.910204-3.3728787 46.997551.2409199.96653 0 71.04 0 71.04l-.3613798.241632-9.3958763-.241632s0-57.750204 0-66.811429c0-9.061224-1.6864394-44.218775-1.6864394-44.218775s2.650119-6.886531 6.8662173-6.524082c4.0956384.241633 8.1912768-1.933061 7.9503569-.483265z" fill="#4a4a49"/><path d="m33.7287867 21.6261224c.1204599 1.087347-.4818398 2.2955103-.3613799 3.7453062 0 .6040816.7227597 1.3289796.8432197 1.9330612.4818398 4.9534694 1.5659794 10.5110204 4.4570182 10.3902041 5.059318-.1208163 8.1912768.362449 11.5641555.362449 5.1797779 0 11.8050753-5.92 13.0096748-16.4310205 1.2045995-10.1485714-9.0344964-18.24326526-18.4303727-18.12244893-9.1549564.12081633-11.4436955 7.12816323-11.0823156 16.43102043-.12046.6040816 0 1.0873469 0 1.6914285z" fill="#744135"/><path d="m49.6295004.48326531c-7.588977-1.3289796-19.2735924 5.31591836-14.8165742 9.54448979 1.3250595 1.2081633 1.5659794 12.9273469 1.5659794 12.9273469s1.5659794-.8457142 2.1682792-.1208163c.6022997.724898 1.0841395 4.7118367 1.8068993 6.5240816.7227597 1.8122449 5.1797779 8.8195919 6.5048374 8.8195919s9.3958763.362449 10.4800159-.8457143c1.0841395-1.0873469 4.5774781-7.6114286 5.6616177-11.115102 1.0841396-3.5036735 6.0229976-22.23020412-13.3710547-25.73387759z" fill="#36180e"/><path d="m37.4630452 18.484898c0-.362449 2.1682791-1.6914286 3.1319588 1.0873469.4818398 1.4497959-1.3250595 7.4906122-1.6864394 7.4906122-.7227597 0-1.6864393-6.5240816-1.4455194-8.5779591z" fill="#744135"/><path d="m32.2832672 49.6555102h32.5241872l-4.5774782-5.3159184h-23.3692308z" fill="#e1f2fd"/><path d="m76.8534496 53.0383673s5.3002379 3.1412245 7.9503569 13.7730613c1.6864393 6.6448979 7.2275971 27.9085714 7.2275971 27.9085714s-4.3365582 3.9869388-10.4800158 5.0742857c-5.4206979.9665303-6.6252974-.1208163-6.6252974-.1208163l-9.8777161-23.5591837z" fill="#ed6b06"/><path d="m1.32505948 95.8073469c1.20459952-3.5036734 3.97517843-5.7991836 13.85289452-3.7453061 9.9981761 2.0538776 30.5968279 8.8195922 30.5968279 8.8195922l-.4818398 5.557551s-20.8395718 1.570612-26.2602696.604081c-5.4206979-.845714-20.71911183-2.174694-17.70761302-11.2359181z" fill="#815245"/><path d="m15.7802538 55.3338776s-5.3002379 3.1412244-7.95035689 13.7730612c-1.68643934 6.6448979-7.22759715 27.9085714-7.22759715 27.9085714s4.33655829 3.9869388 10.48001584 5.0742858c5.4206979.966531 6.6252974-.120816 6.6252974-.120816l9.8777161-23.5591841z" fill="#ed6b06"/><path d="m72.1555115 134.951837-48.183981-.120817c-.6022997 0-1.2045995-.483265-1.2045995-1.208163l.9636796-3.382857c0-.604082.4818398-1.208163 1.2045996-1.208163h47.0998413c.6022998 0 1.2045996.483265 1.2045996 1.208163v3.503673c.1204599.724898-.3613799 1.208164-1.0841396 1.208164z" fill="#3b1b1d"/><path d="m14.3347343 56.6628571c1.0841396-1.8122449 6.8662173-3.2620408 12.2869152-4.9534693 4.6979381-1.449796 8.5526566-3.5036735 8.5526566-3.5036735l26.6216495.1208163s4.6979381 2.0538776 9.6367962 2.6579592c6.0229976.724898 7.588977 3.3828571 8.4321967 5.3159184.9636796 1.9330612 1.3250594 19.3306122-6.6252974 42.2857142-1.0841396 3.1412246 1.6864393 25.1297956-.9636796 31.6538776l-23.4896908 2.174694-23.4896907-2.053878c-2.1682791-7.490612 0-28.875102-1.0841396-32.0163262-1.0841395-3.3828571-11.6846153-38.6612245-9.8777161-41.6816327z" fill="#f08100"/></g><path d="m17 152.961289c.115239.357678 9.7953131 5.484386 10.025791 5.842064 1.2676288 2.742193 4.7247981 6.795869 6.6838607 8.226579 2.6504965 1.907612 1.6133457-.715355 3.2266913 2.146064 1.7285847 2.861419 2.1895406 3.219096 2.7657355 2.980645.6914339-.238452-.4609559-2.026839-1.1523898-3.934451-.6914338-1.788387-3.2266913-4.769032-2.5352575-4.411354.6914339.357677 4.2638422 6.676644 4.955276 7.511224.6914339.834581 2.6504965 2.503741 2.3047796 1.192258-.345717-1.311484-3.1114524-6.79587-3.5724083-7.749676s4.0333642 6.676644 4.4943201 7.153547c.5761949.596129 1.0371508-.119226.4609559-1.549935-.3457169-1.073032-3.3419303-6.915096-3.6876473-7.511225-.1152389-.238451 1.3828678 1.549936 1.8438237 2.384516.8066728 1.311484 1.1523897 1.788387 1.6133456 2.622967.8066729 1.43071 2.1895406 1.907613 1.2676288 0-.8066728-1.788386-1.0371508-3.09987-1.4981067-3.695999s-1.7285847-2.26529-3.3419303-3.695999c-.5761949-.476903-7.6057725-5.484386-9.3343572-6.79587-4.955276-4.053677-8.1819674-6.080515-8.9886402-6.676644z" fill="#f7b282"/><path d="m23.634216 87.5660221c-2.9471223-.7268579-2.5934676-1.3325728-5.1869352 2.0594306-2.5934675 3.3920035-3.4186618 7.9954368-4.4796258 10.6605823-.9430791 2.665146-14.97138094 34.52575-13.91041693 38.281182.94307911 3.63429 10.49175513 16.717732 14.02830183 18.656019 7.3088632 3.997719 8.7234818 0 8.7234818 0l7.1909783-9.328009s-13.4388774-13.568014-11.788489-14.173729c1.6503885-.726858 6.8373236-14.294872 7.7804028-19.988592.9430791-5.814863-2.3576978-26.1668839-2.3576978-26.1668839z" fill="#7fc6b1"/><path d="m74 317.87403c2.2226366-.376598 6.9148696-2.134053 7.7792282.753195.8643587 2.761715-.9878385 7.029821-2.4695962 8.285146-1.4817578 1.129792-5.309632-9.038341-5.309632-9.038341z" fill="#000"/><path d="m72.2721753 302.917007c-.4985046 5.388708 2.1186444 8.142936 3.6141582 13.651393.6231307 1.915984 1.4955137 4.670213 2.617149 6.945445.3738784.838243.872383 1.676487 1.3708876 2.275232 1.2462614 1.676487-7.1036902 2.51473-10.7178484-3.712221-1.8693921-3.113475-8.8484562-9.579924-8.1006993-11.855156.9970091-2.873978 2.8664013-7.544191 2.3678967-12.813149-1.3708876-12.6934 9.3469608.239498 8.8484562 5.508456z" fill="#cc9584"/><g fill="#000" transform="translate(59 307)"><path d="m.2431579 3.12c.12157894-2.88 5.34947368-4.56 9.9694737 1.32 0 0 3.1610526 3.6 6.93 10.2.4863158.96 1.4589473 1.8 2.4315789 1.08 2.9178948.24 2.31-.72 2.31.84.121579 2.04-.2431579 3.96-1.4589473 4.68-1.3373685.96-3.7689474 2.64-8.1457895 1.44-1.2157895-.36-.3647369-.6-3.0394737-5.64-1.09421053-2.16-6.44368421-4.68-8.14578947-6.72-1.58052632-1.92-.97263158-3.6-.85105263-7.2z"/><path d="m1.45894737 9.36c.97263158 2.16 3.28263158 6.12 3.03947368 14.28.97263158.12 1.82368421 0 1.82368421 0s.2431579-10.08 1.21578948-11.76-6.07894737-2.52-6.07894737-2.52z"/></g><path d="m46.3253557 144.027301c-6.2065428 11.007324-9.1904577 27.637956-2.6258451 40.439953 3.222628 6.341176 7.9968917 52.284791 8.3549615 57.549163-2.625845 21.057491 1.6709923 60.540285 2.1484187 68.556489.2387132 3.4697 22.7971092-.47858 22.7971092-.47858s-4.7742637-58.625967-4.7742637-63.89034c-.1193566-7.537624 1.7903489-6.341176 1.1935659-13.759155-.2387132-2.871476.8354962-29.911208-.3580698-54.079464-.7161395-13.8788-3.9387675-28.116535-5.7291164-33.380908-2.0290621-6.101886-21.0067603-.957158-21.0067603-.957158z" fill="#44195e"/><path d="m72.086721 246.210227c-.1259815-7.517045 1.8897227-6.323863 1.2598152-13.721591-.2519631-2.863636.8818705-29.829545-.3779446-53.931818-.755889-13.840909-4.1573899-28.039773-6.0471125-33.289773-.3779446-1.073863-1.2598152-1.789772-2.5196303-2.267045-.8818706.238636-1.5117781.596591-1.3857966 1.3125.3779445 2.028409 3.4015008 9.426136 5.165242 24.340909 2.1416857 17.420455 1.6377596 58.107955 1.7637411 62.403409.1259815 2.028409.3779446 9.1875-2.1416857 14.795455-2.2676672 5.25.7558891 59.420454 1.0078521 65.147727 4.5353345-.477273 8.1887983-1.193182 8.1887983-1.193182s-4.7872974-58.346591-4.913279-63.596591z" fill="#44195e"/><path d="m38 316.931177c2.1940671-.390646 6.947879-2.213661 7.8011273.651077.8532483 2.864739-1.2189261 6.120124-2.8035301 7.292062-1.4627114 1.302154-4.9975972-7.943139-4.9975972-7.943139z" fill="#000"/><path d="m35.2721753 300.969848c-.4985046 5.376884 2.1186444 8.125069 3.6141582 13.62144.6231307 1.911781 1.4955137 4.659966 2.617149 6.930206.3738784.836404.872383 1.672808 1.3708876 2.27024 1.2462614 1.672808-7.1036902 2.509212-10.7178484-3.704076-1.8693921-3.22613-8.8484562-9.558905-8.1006993-11.829145.9970091-2.867671 2.8664013-7.527638 2.3678967-12.785035-1.4955137-12.785036 9.2223346.119486 8.8484562 5.49637z" fill="#cc9584"/><path d="m24.0283576 305.226337c.7347043-2.5055 4.408226-4.134076 9.1838042 2.129675 0 0 3.6735216 4.635175 6.7347897 11.77585.4898029 1.0022 3.3061695-.5011 3.6735217.25055 2.9388173.25055 2.3265637-.25055 2.3265637 1.378025.1224507 2.129675-1.346958 3.632975-2.4490145 4.5099-1.8367608 1.378025-4.0408738 2.25495-8.4490998 1.378025-1.2245072-.25055-.1224507-.626375-2.8163666-6.0132-1.1020565-2.25495-6.4898883-4.885725-8.2041984-7.0154s-.9796058-4.635175 0-8.393425z" fill="#000"/><path d="m23 313c1.1032843 2.109767 3.5856739 6.094884 3.1719423 13.947907 1.1032842.117209 2.068658 0 2.068658 0s.4137316-9.845581 1.6549264-11.603721c1.1032842-1.523721-6.8955267-2.344186-6.8955267-2.344186z" fill="#000"/><path d="m32.6226749 146.429347c-3.874225 13.330465-9.5094613 22.540605-3.874225 35.87107 2.8176182 6.544046-1.7610113 52.473559-1.7610113 57.805745-5.1656333 15.996558-5.9874386 59.138791-5.9874386 67.137071 0 3.514395 20.8973347 3.756767 20.8973347 3.756767s2.9350189-51.382884 3.2872212-56.715071c.469603-7.513535 2.1132136-6.180488 2.1132136-13.815209 0-4.483884 9.8616636-84.103117 11.6226749-90.283606 1.7610114-6.059302-26.2977695-3.756767-26.2977695-3.756767z" fill="#44195e"/><path d="m61.9945611 58.9471784c2.5453719-7.3109897 3.878662-11.3859676-3.6362456-16.6594685-2.4241638-1.4382275-6.7876585-3.4757164-7.8785322-3.715421-13.9389415-2.876455-17.2115625 5.5132054-19.0296853 15.7006502-1.5757065 9.3484787 1.2120818 16.1800593 4.8483274 19.6557757l-1.2120818 5.3933531 17.5751871 1.6779321s-.3636246-3.8352733.9696655-6.4720237c3.0302046 0 4.2422865.838966 8.3633649-11.50582.2424163-1.1985229-.2424164-3.2360118 0-4.0749779z" fill="#fac39d"/><path d="m55.4561699 82.5710965c2.1727494 1.4560451 16.0542037 5.9455176 16.2956203 6.0668547 1.5692079.7280225-4.9490402 23.5393958-1.5692079 30.4556108-1.8106244 4.004124-2.7762908 4.004124.8449581 20.384631 1.3277913 6.066855.1207083 9.706968.1207083 9.706968s-3.7419572-1.092034-18.226953.970696c-13.8814544 2.062731-20.6411191-.242674-21.7274938-.728022-4.466207-1.577382-3.3798323-2.184068-2.8969991-6.794877 1.2070829-10.920339-.7242498-22.083351-3.2591241-31.062296-3.0177075-10.920339-4.5869153-20.3846319-3.8626656-21.4766657 1.6899162-2.7907532 3.1384158-3.0334273 7.7253311-6.1881918 4.4662071-3.2761015 26.5558257-1.334708 26.5558257-1.334708z" fill="#9bd1bf"/><g fill="#7fc6b1" transform="translate(29 76)"><path d="m.812 7.4671875 3.712-6.328125s15.776-1.8984375 21.576 1.8984375c1.392 4.1765625 1.856 5.9484375 1.856 5.9484375s-10.44-3.796875-13.92-2.9109375c-3.48.759375-13.224 1.3921875-13.224 1.3921875z"/><path d="m19.488 1.1390625c5.452.8859375 6.728.8859375 7.308 1.8984375.464 1.0125 1.276 4.1765625 1.276 4.1765625s-5.104-1.1390625-7.192-1.3921875c-1.392-.1265625-1.392-4.6828125-1.392-4.6828125z"/></g><path d="m38.5483538 39.0554768c4.3657829-3.3166198 12.1533955-3.9088734 16.7551666-1.8952113 4.483777 2.013662 12.2713897 6.0409861 6.8436596 19.899719-5.8997065 14.8063386-15.9292077 14.8063386-19.3510375 14.9247893-6.1356948.2369014-8.0236009-2.3690142-8.0236009-2.3690142s-10.6194718-19.899719 3.7758122-30.5602828z" fill="#673328"/><path d="m35.9443631 60.4150897c3.0789814-1.6174468 5.788485 7.0918824 6.281122 8.5849103 7.5127145-5.4744355 2.7095036-13.6860888-4.8032109-11.695385-4.3105739 1.1197709-3.3252999 5.4744355-3.3252999 5.4744355z" fill="#673328"/><g fill="#673328" transform="translate(26 58)"><path d="m7.78235294 2.20181452c-2.34705882 1.82358871-9.14117647 12.40040318-7.16470588 21.63991938 1.97647059 9.2395161 9.63529414 37.3227822 3.95294118 42.6719758 6.91764706-3.1608871 6.05294116-11.9141129 6.05294116-11.9141129l-1.11176469 9.6042338s4.07647059-7.9022177 4.57058819-11.30625c.3705883 1.458871 0 5.7139113-2.4705882 8.0237904 0 0 10.3764706-3.5256049 8.5235294-16.4122984-1.9764706-13.4945565-3.4588235-22.4909274-3.2117647-28.8127016.3705882-9.72580648 2.8411765-10.21209681.6176471-13.12983874-2.9647059-4.01189516-8.02941179-1.58044355-9.75882356-.36471774z"/><path d="m15.8117647.01350806c-4.5705882 1.45887097-11.73529411 7.17278226-9.5117647 21.76149194 2.22352941 14.5887097 5.6823529 28.0832661 4.6941176 31.608871 1.3588236-2.6745968.1235295-18.2358871-1.48235289-26.0165323 2.84117649 8.0237903 3.45882349 23.9497984 1.97647059 27.840121 1.8529412-3.2824597 3.8294118-14.4671371 3.0882353-18.9653226.7411765 5.4707661 2.8411765 16.0475806 1.7294118 18.7221774 2.8411764-4.3766129 1.4823529-13.7377016.2470588-23.5850806-1.3588236-9.8473791-4.6941177-21.5183468 1.9764706-27.35383067 3.8294117-3.03931452-2.7176471-4.01189517-2.7176471-4.01189517z"/></g><path d="m59.2120777 37.3452612c-1.7869421-.7337788-4.2120777-1.3452612-4.2120777-1.3452612 2.4251356.4891859 11.9980394 8.1938636 3.1909679 18.0998778 2.6804131.4891859 5.1055487-8.4384565 5.1055487-8.4384565s-.893471 8.0715671-6.764852 10.7620895c2.2974969-.2445929 4.7226325-2.323633 6.5095746-5.0141553-1.2763872 3.3020047-3.7015228 6.481713-7.9136005 8.560753 5.871381.6114823 11.9980394-8.3161601 11.8704007-12.3519437 0-3.9134871-2.5527744-8.3161601-7.7859617-10.2729036z" fill="#673328"/><path d="m79.9057101 141.085094c1.6500263 9.04245 3.6808279 24.354333 4.0616032 33.758481.6346255 1.326226 2.2846518 4.21981 4.5693036 6.872262 1.1423259 1.326226 1.9038765 3.255282 1.9038765 3.255282s.7615506 2.652452.5077004 4.460942c-.1269251 1.085094-.7615506 2.049622-1.269251 2.893584-.6346255.964528-2.7923522 1.446792-2.0308016.120566.5077004-.964528 1.5231012-1.80849 1.269251-3.01415-.5077004-1.80849-.8884757-3.61698-.8884757-3.61698s.6346255 2.170188.8884757 3.61698c.2538502 1.085094-1.3961761 3.255282-1.5231012 3.496414-.7615506 1.326226-2.1577267.843962-1.6500263 0 .7615506-1.326226.6346255-2.049622.6346255-2.049622l-1.3961761-3.496414s1.5231012 2.290754 1.3961761 4.340376c0 1.20566-2.2846518 2.893584-3.1731275 2.049622-.5077004-.482264 1.0154008-1.80849 1.0154008-2.049622-.6346255-2.652452-1.5231012-3.737546-1.5231012-3.737546s1.0154008 1.687924 1.5231012 3.496414c.2538502 1.20566 0 .60283-.8884757 1.326226-.7615506.723396-2.0308016 1.567358-2.2846518.482264-.1269251-.482264 1.3961761-1.80849 1.269251-2.290754-.5077004-1.446792-.8884757-1.80849-1.6500263-2.893584-2.2846518-3.737546-3.4269777-10.85094-3.4269777-10.85094-5.8385546-15.432448-8.2501315-32.914519-6.8539554-37.254895z" fill="#f7b282"/><path d="m69.2980398 89c2.7421129 0 6.9799237 5.2486005 6.9799237 10.8550601 0 5.6064599 4.9856597 37.0980629 5.9827917 40.6766539.9971319 3.578591 5.7335087 25.765857 2.7421128 29.344448-1.2464149 1.431437.997132 4.29431.997132 4.29431s-8.4756216 2.147154-10.095961 1.789295c-.747849-.119286-1.3710564-2.6243-2.6174714-4.055736-2.8667543-3.220733-4.9856597-21.352262-6.3567162-27.31658-1.7449809-7.515042-.498566-37.336636-.498566-39.603077 0-2.147155 1.1217735-15.984374 2.8667544-15.984374z" fill="#7fc6b1"/></g></g></g></svg>