<svg height="400" viewBox="0 0 1200 400" width="1200" xmlns="http://www.w3.org/2000/svg"><g fill="none" fill-rule="evenodd"><path d="m0 400h1200v-400h-1200z" fill="#fff"/><path d="m0 400h1200v-135h-1200z" fill="#dedfde"/><g><g fill-rule="nonzero" transform="translate(902 45)"><path d="m11.9916264 26.5675676h7.0100857v-24.74701495h-4.1389336v19.99377725h-.1491508l-7.19652414-19.99377725h-7.01008572v24.74701495h4.13893359v-19.99377733h.14915076zm12.9015407 0h12.9388285v-3.7346867h-8.4643057v-21.01232825h-4.4745228zm29.3081244 0c8.0168533 0 13.0134038-4.1496519 13.0134038-13.0902655 0-7.46937345-4.5863859-11.65674945-12.8642531-11.65674945h-7.0100857v24.74701495zm-2.3864122-21.01232825h2.2372614c5.2575643 0 8.4643057 2.791584 8.4643057 8.14840735 0 6.4508225-3.2067414 9.1292342-8.1287165 9.1292342h-2.5728506zm24.3861493-3.7346867h-4.4745228v24.74701495h4.4745228zm15.884556 16.07047005h3.7660566v5.0550305c-1.081343.1131723-1.7152337.1508964-2.8338644.1508964-4.1762213 0-7.6066888-2.8670322-7.6066888-8.6388207 0-5.96040912 3.5050429-8.94061366 8.3897303-8.94061366 1.9389599 0 3.3186044.07544822 5.3321397.37724108l.3355892-3.84785902c-1.7152338-.33951698-3.2813167-.49041341-5.5185781-.49041341-7.4575381 0-13.23713 4.26282422-13.23713 13.35433431 0 7.9220627 4.9219751 11.9208181 12.1184993 11.9208181 2.6474259 0 4.921975-.2263446 7.3456746-.716758v-11.9208182h-8.0914284zm17.5997894-16.07047005v24.74701495h-4.474523v-24.74701495z" fill="#e98400"/><path d="m130.117049 16.8347477c0-5.9981332-3.057591-8.90288954-7.457538-8.90288954-1.752522 0-3.169454.33951698-4.8474 1.20717146v-8.94061362l-2.460988.22634465v25.95418635c1.976248.339517 3.542331.4149652 5.33214.4149652 5.518578 0 9.433786-3.6215144 9.433786-9.9591645zm-2.610139.2640687c0 5.0927546-2.833864 7.4316493-6.413482 7.4316493-1.118631 0-2.088111-.0377241-3.281317-.2263446v-13.0525414c1.379644-.679034 2.684714-.9808268 4.101646-.9808268 3.430467 0 5.593153 1.9993777 5.593153 6.8280635zm5.742304.3017929c0 6.5639948 3.281317 9.3933029 8.166005 9.3933029 2.349124 0 3.952495-.3772411 5.854167-1.2448956l.037288-2.3388947c-1.864385.8676545-3.579619 1.2448956-5.630442 1.2448956-3.430467 0-5.96603-2.2257224-5.891455-7.2430287h11.708335c.037288-.7544822.037288-1.4335162.037288-2.0371019 0-4.8286858-2.498275-7.35620106-6.823648-7.35620106-4.064358 0-7.457538 3.28199736-7.457538 9.58192346zm2.647426-2.3388947c.372877-3.2065492 2.386413-5.0550305 4.698249-5.0550305 2.722002 0 4.213509 1.5844125 4.213509 5.0550305zm14.020172-4.7909617h2.199974v10.8645431c0 4.4137206 2.237261 5.6586162 4.772824 5.6586162 1.081343 0 1.93896-.1131723 3.057591-.4149652v-2.1502741c-.932193.1886205-1.566083.2640687-2.498276.2640687-1.677946 0-2.871152-1.056275-2.871152-3.4706179v-10.7513708h4.772825v-2.11255009h-4.772825v-3.62151438l-2.460987.41496519v3.20654919h-2.199974zm11.969348 7.1298564c0 6.5639948 3.281317 9.3933029 8.166005 9.3933029 2.349124 0 3.952495-.3772411 5.854167-1.2448956l.037288-2.3388947c-1.864385.8676545-3.579619 1.2448956-5.630442 1.2448956-3.430467 0-5.96603-2.2257224-5.891455-7.2430287h11.708335c.037288-.7544822.037288-1.4335162.037288-2.0371019 0-4.8286858-2.498276-7.35620106-6.823648-7.35620106-4.064358 0-7.457538 3.28199736-7.457538 9.58192346zm2.647426-2.3388947c.372877-3.2065492 2.386413-5.0550305 4.698249-5.0550305 2.722002 0 4.213509 1.5844125 4.213509 5.0550305zm24.125136-6.86578768-.335589 2.52751528c-.82033-.2263447-1.342357-.3017929-2.088111-.3017929-1.193206 0-2.162686.6035857-3.542331 2.0371018v14.1088165h-2.460987v-18.29619246l2.4237-.22634465v2.15027411c1.416932-1.6221366 2.610138-2.26344644 3.915207-2.26344644.783042 0 1.305069.07544822 2.088111.26406876z" fill="#e98400"/><path d="m7.09863903 43.1346376h-2.0472093l-4.64771841 12.2404281h1.47546616l1.0881563-3.1720622h4.40795516l.59018646 3.1720622h1.53079615zm-1.12504295 1.1195513 1.23570291 6.7546265h-3.76243871l2.39763251-6.7546265zm10.82623292 1.9778741c-.3873098-.093296-.8115063-.1492736-1.3648062-.1492736-2.2316425 0-4.2972951 2.2017844-4.2972951 6.2881468 0 2.3323987.8299497 3.1720622 2.0287659 3.1720622 1.014383 0 1.8996627-.5224573 2.7296124-1.6606679h.05533l-.1659899 1.6233495c-.16599 1.6420086-.9959397 2.3323986-2.4160759 2.3323986-.8115064 0-1.6045694-.1119551-2.5082925-.3731837v1.287484c.9406097.1865919 1.6598995.2425695 2.6005092.2425695 1.8443327 0 3.3935721-1.0075963 3.6148921-3.5265868l.8299497-9.4228905zm-.7746197 6.2694875c-.8852797 1.2315065-1.7705594 1.8286006-2.4160758 1.8286006-.6270731 0-1.1065996-.5224573-1.1065996-2.0525108 0-3.3399949 1.4385795-5.0752995 2.821829-5.0752995.4057532 0 .8299497.0373184 1.1619296.1119551zm3.5226755-.3358654c0 2.369717.9959396 3.3773133 2.8033857 3.3773133 1.1250429 0 1.8812193-.1865919 2.7480557-.6530717v-1.2128473c-.793063.4291614-1.5307961.6530717-2.3791892.6530717-1.1803729 0-1.8443327-.5411165-1.8443327-2.5936273 2.987819 0 4.850595-1.4367576 4.850595-3.545246 0-1.3248024-.8299497-2.1084884-2.3423025-2.1084884-1.8812194 0-3.836212 1.9592149-3.836212 6.0828957zm4.8137083-3.8064746c0 1.3061433-1.2172596 2.3323987-3.3935721 2.3323987.2582065-2.3510579 1.3463628-3.45195 2.2685292-3.45195.7192897 0 1.1250429.3731838 1.1250429 1.1195513zm7.3773308 7.0158552h1.3094763l.5901864-6.2321692c.2028766-2.2204435-.5532998-3.0601071-1.8443327-3.0601071-.848393 0-1.6967861.4105022-2.7480557 1.474076h-.05533l.1291033-1.3994392-1.3094762.1679327-.8115064 9.0497068h1.3094762l.5901865-6.5493754c1.1250429-1.0075963 1.9918793-1.4554168 2.5267358-1.4554168.6086298 0 1.0328263.4664797.8852797 1.9778741zm10.881563-13.0800917-1.3279196.1679327-.3319798 3.7318379c-.3319799-.0746368-.7008465-.1119552-1.1619296-.1119552-2.2316426 0-4.2972952 2.2017844-4.2972952 6.2881468 0 2.3323987.8299497 3.1720622 2.0287659 3.1720622 1.014383 0 1.8996627-.5224573 2.7296124-1.6606679h.05533l-.1475466 1.4927352h1.2725896zm-2.2316426 10.2065765c-.8852797 1.2315065-1.7705594 1.8286006-2.4160758 1.8286006-.6270731 0-1.1065996-.5224573-1.1065996-2.0525108 0-3.3399949 1.4385795-5.0752995 2.821829-5.0752995.4057532 0 .848393.0373184 1.1803729.1119551zm9.2585502-6.2694875c-.3873099-.093296-.8115064-.1492736-1.3648062-.1492736-2.2316426 0-4.2972952 2.2017844-4.2972952 6.2881468 0 2.3323987.8299497 3.1720622 2.028766 3.1720622 1.014383 0 1.918106-.5224573 2.7296124-1.6606679h.0553299l-.1475466 1.4927352h1.2725896l.8299497-9.3295946zm-.7746197 6.2694875c-.8852797 1.2315065-1.7705594 1.8286006-2.4160759 1.8286006-.6270731 0-1.1065996-.5224573-1.1065996-2.0525108 0-3.3399949 1.4385795-5.0752995 2.821829-5.0752995.4057532 0 .8299497.0373184 1.1619296.1119551zm10.6971296 2.8735152c3.6517788 0 6.0678546-2.3510579 6.0678546-6.9225592 0-3.3026765-2.1578692-5.3178689-5.4038948-5.3178689h-3.1353656l-.903723 12.2404281zm.4610832-11.04624c2.5820658 0 4.1497486 1.6233494 4.1497486 4.347591 0 3.7504971-1.862776 5.5044609-4.4632852 5.5044609h-2.0472093l.7192898-9.8520519zm9.4983134 1.8286005-1.3279195.1679327-.8115064 9.0497068h1.3094762zm-1.1988162-2.7802192c0 .4851389.2950932.7277084.7192897.7277084.5717432 0 .903723-.4105022.903723-.9143003 0-.4664797-.2582065-.7463675-.7192897-.7463675-.5348565 0-.903723.3545245-.903723.9329594zm8.5945904 2.854856c-.3873099-.093296-.8115064-.1492736-1.3648062-.1492736-2.2316426 0-4.2972952 2.2017844-4.2972952 6.2881468 0 2.3323987.8299497 3.1720622 2.0287659 3.1720622 1.014383 0 1.8996627-.5224573 2.7296124-1.6606679h.05533l-.1659899 1.6233495c-.16599 1.6420086-.9959397 2.3323986-2.4160759 2.3323986-.8115064 0-1.6045694-.1119551-2.5082924-.3731837v1.287484c.9406096.1865919 1.6598994.2425695 2.6005091.2425695 1.8443327 0 3.3935721-1.0075963 3.6148921-3.5265868l.8299497-9.4228905zm-.7746198 6.2694875c-.8852797 1.2315065-1.7705594 1.8286006-2.4160758 1.8286006-.6270731 0-1.1065996-.5224573-1.1065996-2.0525108 0-3.3399949 1.4385795-5.0752995 2.821829-5.0752995.4057532 0 .8299497.0373184 1.1619296.1119551zm5.7912047-6.3441243-1.3279195.1679327-.8115064 9.0497068h1.3094762zm-1.1988162-2.7802192c0 .4851389.2950932.7277084.7192897.7277084.5717432 0 .903723-.4105022.903723-.9143003 0-.4664797-.2582065-.7463675-.7192897-.7463675-.5348565 0-.903723.3545245-.903723.9329594zm3.0062623 3.9370889h.9221663l-.5532998 5.4484833c-.2028766 2.0151924.4426399 2.7802192 1.6967861 2.7802192.7377331 0 1.069713-.0559776 1.6967861-.2798879v-1.1755289c-.5348565.1865919-.8299497.2425695-1.2910329.2425695-.6086298 0-.9221664-.3545246-.7930631-1.6606679l.5348565-5.3551873h1.862776l.11066-1.0635738h-1.862776l.2213199-2.1644659-1.3094762.2052511-.1844333 1.9592148h-1.0512696zm10.8446763-1.0822329c-.3873099-.093296-.8115064-.1492736-1.3648062-.1492736-2.2316426 0-4.2972952 2.2017844-4.2972952 6.2881468 0 2.3323987.8299497 3.1720622 2.0287659 3.1720622 1.014383 0 1.918106-.5224573 2.7296124-1.6606679h.05533l-.1475466 1.4927352h1.2725896l.8299497-9.3295946zm-.7746198 6.2694875c-.8852797 1.2315065-1.7705594 1.8286006-2.4160758 1.8286006-.6270731 0-1.1065996-.5224573-1.1065996-2.0525108 0-3.3399949 1.4385795-5.0752995 2.821829-5.0752995.4057532 0 .8299497.0373184 1.1619296.1119551zm6.1416279-10.2065765-1.3279195.1679327-1.1619296 12.912159h1.3094762zm1.3279194 9.8707111c0 2.369717.99594 3.3773133 2.803386 3.3773133 1.125043 0 1.881219-.1865919 2.748056-.6530717v-1.2128473c-.793063.4291614-1.530797.6530717-2.37919.6530717-1.180373 0-1.844332-.5411165-1.844332-2.5936273 2.987819 0 4.850595-1.4367576 4.850595-3.545246 0-1.3248024-.82995-2.1084884-2.342303-2.1084884-1.881219 0-3.836212 1.9592149-3.836212 6.0828957zm4.813709-3.8064746c0 1.3061433-1.21726 2.3323987-3.393573 2.3323987.258207-2.3510579 1.346363-3.45195 2.26853-3.45195.719289 0 1.125043.3731838 1.125043 1.1195513zm11.656182-5.3925056c-3.153809 0-5.569885 2.6309456-5.569885 7.5196532 0 3.4332908 1.696787 5.0566403 4.223522 5.0566403 2.932489 0 5.569885-2.556309 5.569885-7.2211063 0-3.3399948-1.733673-5.3551872-4.223522-5.3551872zm-.239763 1.287484c1.770559 0 2.987819 1.2688249 2.987819 4.3849095 0 3.7878154-1.918106 5.6350751-3.854655 5.6350751-1.789003 0-2.987819-1.0635738-2.987819-4.0677032 0-3.8811114 1.789002-5.9522814 3.854655-5.9522814zm7.524877 11.1208768h1.60457l.995939-1.9032373c1.1066-2.1271476 1.88122-4.3289319 2.360746-7.2211063h-1.364806c-.461083 3.0227887-1.088156 5.0193219-1.991879 6.8852409l-.49797 1.0262554h-.073773l-1.198817-7.9114963h-1.401692zm5.662102-3.2093806c0 2.369717.995939 3.3773133 2.803385 3.3773133 1.125043 0 1.88122-.1865919 2.748056-.6530717v-1.2128473c-.793063.4291614-1.530796.6530717-2.379189.6530717-1.180373 0-1.844333-.5411165-1.844333-2.5936273 2.987819 0 4.850595-1.4367576 4.850595-3.545246 0-1.3248024-.829949-2.1084884-2.342302-2.1084884-1.88122 0-3.836212 1.9592149-3.836212 6.0828957zm4.813708-3.8064746c0 1.3061433-1.217259 2.3323987-3.393572 2.3323987.258207-2.3510579 1.346363-3.45195 2.268529-3.45195.71929 0 1.125043.3731838 1.125043 1.1195513zm7.377331-2.1458067c-.184433-.093296-.38731-.1306144-.60863-.1306144-.737733 0-1.272589.2985471-2.120982 1.7912822h-.073774l.16599-1.7166454-1.309476.1679327-.756176 9.0497068h1.309476l.516413-6.0642365c.682403-1.1568698 1.493909-1.8286006 2.176313-1.8286006.221319 0 .331979 0 .534856.0373184zm5.274791 9.1616619h1.309477l.590186-6.2321692c.202877-2.2204435-.5533-3.0601071-1.844333-3.0601071-.848393 0-1.696786.4291614-2.748055 1.474076h-.05533l.49797-5.2618914-1.32792.1679327-1.16193 12.912159h1.309477l.590186-6.5493754c1.1066-.9889371 1.973436-1.4554168 2.545179-1.4554168.60863 0 .99594.4664797.866837 1.9778741zm3.707109-3.2093806c0 2.369717.99594 3.3773133 2.803386 3.3773133 1.125043 0 1.881219-.1865919 2.748056-.6530717v-1.2128473c-.793063.4291614-1.530796.6530717-2.37919.6530717-1.180372 0-1.844332-.5411165-1.844332-2.5936273 2.987819 0 4.850595-1.4367576 4.850595-3.545246 0-1.3248024-.82995-2.1084884-2.342303-2.1084884-1.881219 0-3.836212 1.9592149-3.836212 6.0828957zm4.813709-3.8064746c0 1.3061433-1.21726 2.3323987-3.393573 2.3323987.258207-2.3510579 1.346363-3.45195 2.26853-3.45195.719289 0 1.125043.3731838 1.125043 1.1195513zm4.776821-2.2017843-1.327919.1679327-.811507 9.0497068h1.309477zm-1.198816-2.7802192c0 .4851389.295093.7277084.71929.7277084.571743 0 .903723-.4105022.903723-.9143003 0-.4664797-.258207-.7463675-.71929-.7463675-.534856 0-.903723.3545245-.903723.9329594zm10.051613-1.082233-1.327919.1679327-.33198 3.7318379c-.33198-.0746368-.700847-.1119552-1.16193-.1119552-2.231642 0-4.297295 2.2017844-4.297295 6.2881468 0 2.3323987.82995 3.1720622 2.028766 3.1720622 1.014383 0 1.899663-.5224573 2.729612-1.6606679h.05533l-.147546 1.4927352h1.272589zm-2.231642 10.2065765c-.88528 1.2315065-1.77056 1.8286006-2.416076 1.8286006-.627073 0-1.1066-.5224573-1.1066-2.0525108 0-3.3399949 1.43858-5.0752995 2.821829-5.0752995.405753 0 .848393.0373184 1.180373.1119551z" fill="#1a1919"/></g><g fill="#80c9e4" transform="translate(1092 43)"><path d="m27.3921029 26.7304c-3.4083823-.256-6.3816176 2.2592-6.6436764 5.6176-.2572059 3.3568 2.2954411 6.2864 5.7022059 6.5424 3.4083823.2576 6.3816176-2.2576 6.6420588-5.6176.2588235-3.3584-2.2922059-6.2864-5.7005883-6.5424"/><path d="m28.5314118 13.15456c-6.9316177-.5232-13.6642647 2.4304-17.9914706 7.8976-.99970591 1.2624-.77323532 3.088.5111764 4.0752 1.2827942.9872 3.135.76 4.1363236-.5024 3.1091176-3.9296 7.9248529-6.048 12.8975-5.6784 4.6458823.3488 8.7822059 2.7872 11.3558823 6.6928.5645589.8576 1.5092647 1.3232 2.475 1.3232.5516177 0 1.1064706-.1504 1.6014706-.4672 1.3669118-.8736 1.7551471-2.672.8670588-4.0176-3.5798529-5.4384-9.3580882-8.8368-15.8529411-9.3232"/><path d="m29.4998971.63344c-9.6880883-.728-20.67352945 3.6288-27.98691181 11.0944-1.1275 1.1536-1.0967647 2.9936.07602942 4.1056 1.16955882 1.1136 3.03794117 1.0816 4.16544117-.072 6.14382352-6.272 15.28514702-9.9296 23.29735292-9.336 8.3163236.624 14.9276471 4.1056 19.6527941 10.3488.5775.7648 1.4655883 1.1696 2.3666177 1.1696.6130882 0 1.2277941-.1872 1.7567647-.576 1.3054412-.9584 1.5772059-2.7776.6033823-4.064-5.7879411-7.6496-13.8389705-11.912-23.9314705-12.6704"/></g></g><path d="m373 13h454v375h-454z" opacity=".011091" stroke="#fefefe"/><g fill-rule="evenodd" transform="translate(373 13)"><g fill="#000" fill-rule="nonzero" transform="translate(39.07377 261.476427)"><path d="m26.9829074 5.22077907 16.5604242-.00002898-.0000143 8.18887621-16.5604243.000029z" transform="matrix(.9999645 -.00842647 .00842647 .9999645 -.077242 .297474)"/><path d="m34.0536578 9.03592826 3.8144798-.00000667-.000056 32.01106161-3.8144798.0000066z" transform="matrix(.9999645 -.00842647 .00842647 .9999645 -.209734 .303912)"/><path d="m28.8439871 49.1422893 15.1648829-.0000266-.0000127 7.2583221-15.1648829.0000266z" transform="matrix(.9999645 -.00842647 .00842647 .9999645 -.443384 .30882)"/><path d="m66.2393443 3.53598015v3.62903226l-59.1688525.46526054v-3.62903226c0-1.48883374 1.20942623-2.69851116 2.69795082-2.79156327l53.77295078-.46526055c1.4885246 0 2.6979509 1.20967742 2.6979509 2.79156328"/><path d="m4.74467213 62.6240695h-3.34918033l3.25614754-7.2580645 27.16557376-3.6290323.0930328 1.3027295 2.7909836-1.3027295.9303279 1.674938 1.2094262-1.4888338v-.1861042h.1860656l.5581967-.6513648h-5.4889344l-.2790984-30.8002481 8.9311476-.0930521.2790983 30.8002481h-2.5118852l1.3954918 1.0235732 24.0954918 2.7915633 2.1397541 4.6526055c.8372951.5583126 1.3954918 1.4888337 1.4885246 2.605459 0 1.7679901-1.3954918 3.1637717-3.070082 3.1637717-1.767623 0-3.1631148-1.3957816-3.1631148-3.0707196 0-.9305211.3721312-1.6749379 1.0233607-2.3263027l-1.1163934-1.5818859-13.6758197-1.76799c-1.0233607-.2791564-2.1397541-.5583127-3.1631148-.837469 5.3959017 4.0942928 13.9549181 9.9565757 13.9549181 9.9565757l1.302459 3.3498759c1.5815574.5583127 2.7909836 2.0471464 2.7909836 3.9081886 0 2.3263027-1.8606558 4.1873449-4.1864754 4.1873449-2.3258197 0-4.1864754-1.8610422-4.1864754-4.1873449 0-1.3027295.5581967-2.512407 1.4885246-3.2568238l-1.1163935-2.2332507-18.4204918-13.2133995.5581967 1.0235732-22.0487705 10.2357321-.7442623 1.0235732c.5581968.7444168.9303279 1.5818858.9303279 2.5124069 0 2.3263027-1.8606557 4.1873449-4.1864754 4.1873449-2.32581967 0-4.1864754-1.8610422-4.1864754-4.1873449 0-2.1401985 1.67459016-4.0012407 3.7213115-4.1873449l1.5815573-2.512407 10.1405738-4.7456575-14.32704916 1.0235732z"/><ellipse cx="3.34918" cy="63.833747" rx="3.256148" ry="3.256824"/></g><g fill-rule="nonzero"><g transform="translate(41.864754 241.935484)"><path d="m4.2795082 38.2444169c0 .2791563 5.8610656 4.8387097 15.9086066 6.7928039 10.0475409 1.9540943 35.0733606-1.9540942 39.6319672-5.2109181 4.5586065-3.2568238 0-20.0992556-3.5352459-23.076923-3.5352459-2.9776675-6.5122951-1.5818859-10.4196722-7.81637722-3.5352459-6.1414392-26.9795082-10.70099255-34.05-6.79280397-7.25655734 3.90818859-16.93196718 18.23821339-7.5356557 36.10421839z" fill="#000"/><path d="m17.5831967 73.2320099s.6512295 2.6054591 3.2561476 3.5359802c2.604918.6513647 5.4889344-2.2332506 5.8610655-2.8846154 0 0 .6512295 4.5595533 2.8840164 6.1414392s5.4889345 5.4900744 5.4889345 5.4900744-2.2327869 2.6054591-6.140164 2.2332507c-3.907377-.2791564-9.3963115-3.9081886-10.4196721-5.4900745-1.0233607-1.5818858-2.604918-3.1637717-.9303279-9.0260546" fill="#402a1b"/><path d="m49.6795082 85.235732s-.9303279-4.8387097.9303279-7.1650124c0 0-.2790984.9305211.6512295 1.3027295.6512295.2791564 2.2327869-.6513647 4.8377049-1.9540943 2.604918-1.3027295 4.8377049 0 4.8377049 0s2.604918 4.5595534 3.5352459 5.4900745c1.302459.9305211 7.1635246 3.5359801 8.745082 3.5359801s.2790983 4.5595534-3.5352459 4.1873449c-3.9073771-.2791563-9.3963115-1.3027295-11.7221312-3.2568238-2.4188524-1.7679901-8.279918-2.1401985-8.279918-2.1401985z" fill="#402a1b"/><path d="m11.8151639 25.4032258s-4.37254095 10.6079405-1.3954918 18.1451613c0 0 1.5815574 4.7456576 3.5352459 11.91067 1.9536886 7.1650124 3.5352459 17.8660049 3.5352459 17.8660049s1.3954918 4.2803971 3.3491804 4.0012407c1.9536885-.2791563 5.5819672-.837469 5.5819672-3.0707196s1.1163934-17.4937965 1.1163934-21.4019851-1.1163934-6.8858561-.4651639-8.560794c.6512295-1.3027296.4651639-5.2109181 3.3491803-5.8622829s13.954918.9305211 13.954918.9305211l13.3036886 3.7220844s-7.2565574 33.7779156-7.6286886 35.7320099c0 0 .8372951 1.0235732 3.070082 2.3263027s8.0008197-2.8846154 8.0008197-2.8846154 7.9077869-22.2394541 8.8381147-25.4962779c.9303279-3.2568238 4.837705-13.3064516 5.4889345-16.5632754.9303278-3.2568238.9303278-8.7468983-4.837705-11.073201-5.8610655-2.2332506-11.35-2.2332506-11.35-2.2332506l-46.702459-2.6054591z" fill="#000"/></g><g transform="translate(0 139.578164)"><path d="m123.919672 95.9367246 20.746312 32.1029774-143.54959056 1.209678 29.49139346-32.5682386z" fill="#673328"/><g fill="#402a1b"><path d="m122.989344 232.165012-.558196-94.820099 8.37295-.093052.558197 94.913151c0 1.395782-1.860656 2.605459-4.186475 2.605459-2.32582 0-4.186476-1.116625-4.186476-2.605459z"/><path d="m14.3270492 232.165012-.5581967-94.820099 8.3729508-.093052.5581967 94.913151c0 1.395782-1.8606557 2.605459-4.1864754 2.605459-2.2327869 0-4.0934426-1.116625-4.1864754-2.605459z"/><path d="m144.479918 127.853598v5.397022c0 2.605459-2.046721 4.652606-4.651639 4.745658l-134.24631179 1.116625c-2.60491803 0-4.65163934-2.047146-4.74467213-4.652605v-5.397023z"/></g><g transform="translate(22.327869)"><g transform="translate(0 21.401985)"><path d="m70.0536885 27.7295285c0 2.7915633-.2790983 5.5831266-.9303278 8.0955335-.465164 2.2332507-1.2094263 4.2803971-2.0467214 6.2344913-3.2561475 7.1650125-8.7450819 11.91067-15.0713114 11.91067-5.9540984 0-11.35-4.280397-14.6061476-10.7940446-1.1163934-2.1401986-1.9536885-4.5595534-2.5118852-7.0719603-.6512295-2.6054591-.9303279-5.3970224-.9303279-8.3746899 0-.3722084 0-.8374689 0-1.2096774 0-.1861042 0-.4652605 0-.6513647.6512295-13.1203474 7.9077869-23.54218367 16.9319672-24.28660054h.3721312.6512295.0930328.7442623.3721311.3721312c8.7450819 1.0235732 15.7225409 11.07320094 16.4668032 23.72828784 0 .3722084.0930328.7444169.0930328 1.2096774z" fill="#4b3f51"/><path d="m67.8209016 24.751861c0 2.2332507-.1860655 4.3734492-.6512295 6.3275435-.2790983 1.3957816-.6512295 2.6985111-1.0233606 4.0012407-7.3495902 14.4230769-20.095082 16.3771712-28.2819672.2791563-.465164-1.3027295-.8372951-2.7915633-1.1163935-4.1873449-.3721311-2.0471464-.6512295-4.1873449-.6512295-6.4205956 0-1.2096774.0930328-2.5124069.1860656-3.7220843 1.2094262-11.07320102 7.7217213-19.54094295 15.6295082-19.54094295s14.4200819 8.46774193 15.6295082 19.54094295c.1860656 1.2096774.2790983 2.4193548.2790983 3.7220843z" fill="#321913"/><path d="m38.0504098 35.5459057c8.0938525 15.7258065 20.5602459 13.9578164 27.9098361 0l-13.8618852-2.7915633z" fill="#4b3f51"/><path d="m52.0983607 40.3846154h-.1860656c-4.0004099 0-7.2565574-3.2568238-7.2565574-7.2580645v-5.8622829h14.6991803v5.8622829c0 4.0012407-3.2561475 7.2580645-7.2565573 7.2580645z" fill="#f1c194"/><g transform="translate(38.143443 2.791563)"><path d="m13.7688525 1.48883375c6.6053278 0 11.9081967 4.37344913 11.4430327 12.18982625-.0930327.9305211-.1860655 1.7679901-.3721311 2.6985112 1.4885246-.837469 2.7909836.6513648 2.2327869 2.8846154-.3721312 1.5818859-1.1163935 3.7220844-2.0467213 4.0012407-1.0233607.3722084-1.3954918-.2791563-1.3954918-.2791563-.465164 2.2332506-.6512295 4.280397-1.4885246 5.4900744-.9303279 1.3957816-1.6745902 2.512407-2.4188525 3.2568238-1.5815574 1.8610422-2.8840164 2.3263028-5.8610656 2.3263028-2.9770491 0-4.27950815-.3722085-5.86106553-2.2332507-.65122951-.8374689-1.48852459-1.8610421-2.41885246-3.2568238-.83729508-1.2096774-1.02336065-3.2568238-1.48852459-5.4900744-.09303278 0-.37213114.6513647-1.3954918.2791563-.83729508-.2791563-1.67459016-2.4193548-2.04672131-4.0012407-.55819672-2.2332506.74426229-3.7220844 2.23278688-2.8846154-.18606557-.9305211-.27909836-1.76799-.37213114-2.6985111-.55819673-7.81637721 4.65163934-12.18982634 11.25696725-12.28287845z" fill="#fccea2"/><path d="m23.3512295 3.81513648c2.5118853 2.97766749 3.3491803 6.23449132 2.3258197 12.37593052-1.0233607.5583127-1.4885246 1.3027295-1.8606558 4.3734491-.7442623.1861042-1.0233606.2791564-1.6745901.4652606 4.0004098-16.19106702-2.3258197-16.47022335-4.0004099-16.74937968-1.3954918-.27915633-7.0704918-.27915633-8.46598356.09305211-1.67459017.37220844-8.00081968.74441687-3.81434427 16.84243177-.6512295-.1861042-.93032787-.2791563-1.67459016-.4652606-.37213115-3.0707196-.93032787-3.7220843-1.95368852-4.280397-1.11639345-6.0483871 0-9.11910667 2.23278688-12.3759305 2.79098361-4.65260546 14.32704923-5.58312655 18.88565573-.27915632z" fill="#1e1e1c"/></g><g transform="translate(41.864754 18.610422)"><path d="m20.0020492.83746898c-.2790984.27915633-.5581967.74441688-.8372951 1.20967742h-.6512295c-.1860656 1.30272953-.7442623 2.23325062-1.3954918 2.88461539-.7442623.65136476-1.5815574.93052109-2.4188525.93052109-1.7676229 0-3.8143442-1.39578164-4.0004098-4.46650124-.2790984-.18610422-.3721312-.27915633-.6512295-.18610422-.27909838 0-.46516395.09305211-.65122952.27915633-.09303279 3.16377171-2.04672132 4.55955335-3.90737705 4.65260546-1.67459017 0-3.44221312-1.11662531-3.90737705-3.62903226h-.55819672c-.18606558-.55831266-.46516394-.93052109-.7442623-1.11662531h1.30245902c.27909836-.74441688 1.20942623-.93052109 1.58155737-1.0235732.83729509-.18610422 1.86065574-.27915633 2.69795082-.27915633 1.67459017 0 2.79098361.27915633 3.16311476.93052109.27909836-.18610422.46516393-.27915633.93032787-.27915633.3721311 0 .6512295.09305211.9303279.27915633.4651639-.65136476 1.4885246-.93052109 3.1631147-1.0235732.9303279 0 1.8606558.09305211 2.6979508.18610422.3721312.09305211 1.3024591.27915633 1.6745902 1.0235732z" fill="#1e1e1c"/><g fill="#fff"><path d="m7.62868852 4.28039702c.65122951-.65136476 1.11639345-1.58188585 1.11639345-2.97766749 0-.18610422-.18606558-.37220844-.46516394-.46526055 0 1.48883375-.27909836 2.60545906-.65122951 3.44292804z" opacity=".2"/><path d="m2.79098361 1.39578164c0-.27915633.09303278-.46526055.18606557-.65136477-.65122951.18610422-.93032787.46526055-.93032787.83746899.18606558 1.95409429 1.20942623 3.0707196 2.41885246 3.44292804-.83729508-.65136477-1.48852459-1.86104219-1.67459016-3.62903226z" opacity=".2"/><path d="m16.9319672 4.37344913c.6512295-.65136476 1.1163935-1.58188585 1.1163935-2.97766749 0-.18610422-.1860656-.37220844-.465164-.46526055 0 1.39578164-.2790983 2.51240695-.6512295 3.44292804z" opacity=".2"/><path d="m12.0012295 1.20967742c0-.27915633.0930328-.46526055.1860656-.65136476-.6512295.18610421-.9303279.46526054-.9303279.83746898.1860656 1.95409429 1.2094262 3.0707196 2.4188525 3.44292804-.8372951-.65136477-1.5815574-1.86104219-1.6745902-3.62903226z" opacity=".2"/></g></g><path d="m76.379918 39.174938v.0930521c-.0930328.3722084-.0930328.7444168-.1860655 1.1166253-.8372951 6.4205955-1.2094263 10.8870968-1.767623 14.4230769-.1860656 1.3957816-.3721311 2.6054591-.6512295 3.7220844 0 .0930521-.0930328.1861042-.0930328.3722084-.2790983 1.1166253-.3721311 2.2332506-.5581967 3.5359802-.0930328.6513647-.0930328 1.3957816-.1860656 2.0471464v.8374689 1.0235732c-.1860656 7.5372209.8372951 16.7493797.0930328 22.7977668h-42.2368852c-.1860656-2.0471464-.2790984-4.3734491-.1860656-6.8858561 0-.5583126 0-1.1166253 0-1.6749379 0-1.1166254.0930328-2.3263028.0930328-3.4429281 0-.6513648.0930328-1.3027295.0930328-1.9540943 0-.0930521 0-.1861042 0-.2791563 0-1.1166253.0930327-2.2332506.0930327-3.3498759 0-.837469 0-1.7679901 0-2.6054591s0-1.674938 0-2.5124069c0-1.0235732-.0930327-2.0471464-.0930327-2.9776675 0-.0930521 0-.2791564 0-.3722085 0-.2791563-.0930328-.6513647-.0930328-.9305211 0-.1861042 0-.3722084-.0930328-.5583126-.0930328-.3722085-.0930328-.7444169-.1860656-1.1166253 0-.1861043-.0930328-.3722085-.0930328-.5583127 0-.0930521 0-.1861042-.0930328-.2791563 0-.1861042-.0930327-.3722085-.0930327-.4652606s-.0930328-.1861042-.0930328-.2791563c-.2790984-1.4888337-.5581968-3.1637717-.8372951-5.2109181-.465164-3.442928-.8372951-7.7233251-1.5815574-13.4925558 0-.1861043-.0930328-.4652606-.0930328-.6513648 1.9536885-.837469 4.5586066-1.9540943 7.1635246-3.1637717.4651639-.1861042 1.0233607-.4652606 1.4885246-.6513648.2790984-.0930521.5581967-.2791563.7442623-.3722084 1.9536885 4.7456576 5.0237705 8.0955335 8.6520492 9.7704715 1.7676229.8374689 3.7213114 1.3027295 5.675 1.3027295 5.3028688 0 10.7918033-3.3498759 14.4200819-10.6079405.1860656-.3722084.3721312-.7444168.5581968-1.1166253.5581967.2791564 1.1163934.5583127 1.6745901.837469.3721312.1861042.7442623.3722084 1.1163935.5583127 2.7909836 1.0235732 5.4889344 2.3263027 7.3495901 3.0707196z" fill="#4b3f51"/><g transform="translate(.930328 8.37469)"><path d="m20.2811475 14.1439206-1.302459 2.8846154-.4651639 1.0235732c-.1860656.4652605-.2790984.837469-.4651639 1.2096774-.8372951 1.9540943-2.1397541 3.0707196-3.9073771 4.7456576l-5.02377049-.1861042-3.34918032-.9305211-2.23278689-7.4441688-1.95368852-3.8151365-.09303279-.5583126-.65122951-3.62903227c-.09303278-.46526054.18606558-.93052109.65122951-1.11662531.65122951-.27915632 1.30245902 0 1.48852459.65136477l.37213115 1.48883375.46516393 1.58188586 1.48852459 2.5124069.27909836-.2791563-1.76762295-5.76923076.7442623-2.14019851.65122951-1.86104218c.18606557-.46526055.74426229-.83746898 1.20942623-.74441688.55819672.09305211.83729508.55831266.83729508 1.02357321v.27915632l-.65122951 2.88461539 1.67459016 4.55955331.46516394-.3722084-.7442623-4.55955335 1.02336066-3.72208437.27909836-.83746898c.18606557-.55831265.74426231-.93052109 1.39549181-.83746898.6512295.09305211 1.0233606.74441687.9303279 1.39578164l-.0930328.74441687-.465164 2.88461538.6512295 4.18734492.5581968.09305211.5581967-4.37344914 1.302459-1.86104218.9303279-1.30272953c.1860655-.27915632.5581967-.46526054.9303278-.46526054.1860656 0 .465164.09305211.6512296.18610422.5581967.37220843.7442622 1.0235732.3721311 1.58188585l-.7442623 1.39578164-.9303279 1.76799007v1.86104219.09305211 1.86104217l.3721312 5.0248139s.6512295-1.1166253 1.4885246-2.0471464c.4651639-.5583127 1.0233606-1.2096774 1.3954918-1.4888337 2.7909836-1.95409434 5.4889344-.6513648 1.6745901 2.4193548z" fill="#4b3f51"/><path d="m14.7922131 20.9367246-.1860656 1.0235732-.4651639 1.9540943-1.2094262 5.9553349-8.09385248-1.6749379.93032787-5.3970224.37213114-2.0471464.09303279-.3722084 3.34918033.1861042h.18606557z" fill="#4b3f51"/><g fill="#1e1e1c"><path d="m18.9786885 17.028536-.4651639 1.0235732c-.1860656.4652605-.2790984.837469-.4651639 1.2096774-.8372951 1.9540943-2.1397541 3.0707196-3.9073771 4.7456576l-.4651639 2.1401985-.7442623 3.8151365-8.18688527-1.674938.7442623-4.280397.18606557-1.1166253-2.23278689-7.4441688-1.95368852-3.8151365-.09303279-.5583126 3.62827869 6.1414392 1.02336066 3.6290323.18606557.8374689 4.27950818 1.3027296 3.3491803-.2791564.5581968-.6513647 2.9770491-3.4429281.465164-.4652605.6512295-.7444169z" opacity=".2"/><path d="m6.4192623 11.91067-1.30245902 1.2096774-1.3954918-2.6985112-.37213115-1.95409426.46516393 1.58188586 1.48852459 2.4193548.27909836-.2791563-1.76762295-5.76923077.7442623-2.14019851-.09303279 2.14019851z" opacity=".2"/><path d="m8.74508197 5.39702233.93032787 4.83870967s-1.86065574.837469-2.1397541 1.1166253l-1.48852459-5.58312653s1.11639344-2.88461539 1.20942623-2.88461539v.27915633l-.65122951 2.88461539 1.67459016 4.5595533.46516394-.3722084-.7442623-4.55955334 1.02336066-3.72208437c.27909836-.09305211-.27909836 3.44292804-.27909836 3.44292804z" opacity=".2"/><path d="m14.2340164 3.16377171-.7442623 2.41935484-.8372951 4.37344913-1.4885246-.27915633-.2790983-3.34987593-.1860656-1.48883374.9303279-2.51240695-.465164 2.88461538.6512295 4.18734492h.5581968l.5581967-4.37344913z" opacity=".2"/><path d="m17.9553279 16.7493797-2.3258197-.2791564c-1.302459 0-2.604918.6513648-3.7213115 1.8610422l-2.41885244 2.6054591 1.20942624-2.8846154-1.11639345-1.3957817c-.7442623-.930521-1.76762295-1.5818858-2.88401639-1.8610421l-1.48852459-.4652606h1.67459016c1.3954918 0 2.69795082.5583127 3.81434427 1.4888338l1.302459 1.1166253.6512295-.4652606c1.4885246-1.0235732 2.4188525-2.6985111 2.604918-4.4665012l.3721312-3.9081886v1.86104218l.3721311 5.02481392z" opacity=".2"/></g></g><path d="m36.8409836 56.8548387s-1.6745902.3722084-4.1864754 1.0235732c-.7442623.1861042-1.5815574.3722084-2.5118852.6513648-.1860656.0930521-.465164.0930521-.6512296.1861042-.1860655.0930521-.4651639.0930521-.6512295.1861042-1.302459.2791563-2.6979508.6513648-4.0004098 1.0235732-.4651639.0930521-.9303279.1861042-1.302459.3722084-.2790984.0930522-.6512295.1861043-.9303279.1861043-.2790983.0930521-.5581967.0930521-.8372951.1861042-.1860655.0930521-.3721311.0930521-.5581967.1861042-2.6979508.6513648-4.9307377 1.2096774-6.1401639 1.4888338-.0930328 0-.1860656 0-.1860656.0930521-.0930328 0-.1860656.0930521-.2790984.0930521-.0930327 0-.0930327 0-.0930327 0-.1860656 0-.2790984.0930521-.2790984.0930521-7.07049181 1.6749379-11.72213115.9305211-13.11762296-4.280397-.65122951-2.4193549-.55819672-5.955335.37213115-10.6079405l4.09344262-15.5397022 1.02336066.2791563 8.18688523 2.1401985.4651639.0930521v11.8176179l5.5819673-3.2568238 5.8610655-3.4429281 1.1163935-.6513647.3721311.6513647z" fill="#4b3f51"/><g transform="translate(80.938525 7.444169)"><path d="m21.397541 8.37468983-.6512295 3.62903227-.0930328.5583126-1.9536885 3.8151365-2.2327869 7.4441688-3.3491803.930521-5.02377054.1861043c-1.76762295-1.674938-2.97704918-2.6985112-3.81434426-4.5595534-.18606558-.3722084-.37213115-.837469-.55819672-1.3957816l-.46516394-1.0235732-1.30245902-2.8846154c-3.90737704-3.1637717-1.11639344-4.4665013 1.39549181-2.6054591.46516393.2791564 1.02336065.9305211 1.48852459 1.5818859.74426229 1.0235732 1.3954918 1.9540943 1.3954918 1.9540943l.37213115-5.0248139v-1.8610422-.09305211-1.86104218l-.83729508-1.67493797-.83729509-1.48883375c-.27909836-.55831265-.09303278-1.20967741.37213115-1.58188585.18606558-.09305211.46516394-.18610422.7442623-.18610422s.65122951.18610422.83729508.46526055l.93032787 1.30272952 1.30245901 1.86104219.55819673 4.37344912.55819676-.0930521.6512295-4.18734491-.465164-2.88461539-.0930328-.74441687c-.0930327-.65136476.2790984-1.30272953.9303279-1.39578164.5581967-.09305211 1.2094262.27915633 1.3954918.83746898l.2790984.83746899 1.0233606 3.72208436-.7442623 4.55955338.465164.3722084 1.6745901-4.55955334-.6512295-2.88461538c0-.09305211 0-.18610422 0-.27915633 0-.46526055.3721312-.93052109.8372951-1.0235732.5581967-.09305211 1.0233607.18610422 1.2094262.74441687l.6512295 1.86104218.7442623 2.14019852-1.7676229 5.76923078.2790984.2791563 1.4885245-2.5124069.465164-1.58188589.3721311-1.48883375c.1860656-.65136476.9303279-.93052109 1.4885246-.65136476.7442623.37220843 1.0233607.83746898.9303279 1.30272953z" fill="#4b3f51"/><path d="m7.44262295 21.8672457.18606557 1.0235732.37213115 1.9540943 1.30245902 5.9553349 8.09385241-1.6749379-.9303278-5.3970224-.465164-2.0471464v-.3722084l-3.3491803.1861042h-.1860656z" fill="#4b3f51"/><g fill="#1e1e1c"><path d="m20.7463115 12.0037221-.0930328.5583126-1.9536885 3.8151365-2.2327869 7.4441688.1860656 1.1166253.7442622 4.280397-8.1868852 1.6749379-.74426229-3.8151364-.46516394-2.1401985c-1.76762295-1.674938-2.97704918-2.6985112-3.81434426-4.5595534-.18606557-.3722084-.37213115-.837469-.55819672-1.3957816l-.46516394-1.0235732.37213115.3722084.7442623.7444169.37213114.3722084 2.97704918 3.4429281.55819673.6513647 3.34918035.2791564 4.2795082-1.3027296.1860655-.837469 1.0233607-3.6290322z" opacity=".2"/><path d="m15.8155738 12.8411911 1.302459 1.2096774 1.3954918-2.6985112.3721311-1.95409427-.4651639 1.58188587-1.4885246 2.4193548-.2790983-.2791563 1.6745901-5.76923077-.6512295-2.14019852.0930328 2.14019852z" opacity=".2"/><path d="m13.3967213 6.32754342-.9303279 4.83870968s1.8606558.837469 2.1397541 1.1166253l1.4885246-5.58312654s-1.1163934-2.88461538-1.2094262-2.88461538v.27915632l.6512295 2.88461539-1.6745902 4.55955331-.4651639-.3722084.7442623-4.55955335-1.0233606-3.72208437c-.1860656-.0930521.2790983 3.44292804.2790983 3.44292804z" opacity=".2"/><path d="m8.00081967 4.0942928.7442623 2.41935484.83729508 4.37344916 1.39549185-.2791564.3721311-3.34987588.0930328-1.48883375-.8372951-2.51240695.4651639 2.88461539-.6512295 4.18734489h-.55819669l-.55819672-4.37344911z" opacity=".2"/></g><path d="m4.2795082 17.6799007 2.32581967-.2791563c1.30245902 0 2.60491803.6513648 3.72131143 1.8610422l2.4188525 2.6054591-1.2094262-2.8846154 1.1163934-1.3957817c.7442623-.9305211 1.767623-1.5818858 2.8840164-1.8610421l1.4885246-.4652606h-1.6745902c-1.3954918 0-2.6979508.5583127-3.8143442 1.4888338l-1.302459 1.1166253-.65122955-.4652606c-1.48852459-1.0235732-2.41885246-2.6985111-2.60491803-4.4665012l-.37213115-3.90818861v1.86104221l-.37213115 5.0248139z" fill="#443845"/></g><path d="m103.359426 56.0173697c-.558196 7.1650124-5.4889342 8.3746899-13.4897539 6.5136477 0 0 0 0-.0930328 0-.0930327 0-.0930327 0-.1860655-.0930521-.1860656 0-.3721312-.0930521-.6512295-.1861043-.0930328 0-.0930328 0-.1860656-.0930521-1.4885246-.3722084-4.1864754-1.0235732-7.3495902-1.76799-.6512295-.1861043-1.302459-.2791564-1.9536885-.4652606-.2790984-.0930521-.6512295-.1861042-1.0233607-.2791563-1.6745901-.3722085-3.2561475-.837469-4.7446721-1.2096774-1.2094262-.2791564-2.2327869-.5583127-3.2561475-.837469-2.0467213-.4652606-3.4422131-.837469-3.4422131-.837469l3.3491803-6.4205955 5.2098361-10.0496278.5581967-1.1166253.0930328-.0930521 4.6516393 2.6985111 2.4188525 1.3957817 5.4889344 3.1637717v-11.8176179l.4651639-.0930521 8.1868853-2.1401985 1.0233606-.2791563 4.0934425 15.5397022c.837295 3.442928 1.023361 6.2344913.837295 8.4677419z" fill="#4b3f51"/><path d="m70.0536885 25.4032258v1.0235732c0 1.3027295-.1860655 2.6054591-.2790983 3.8151365-.0930328-.3722085-.0930328-.837469-.1860656-1.2096774-.3721312-2.0471464-.9303279-3.7220844-1.6745902-5.117866-.1860655-.3722085-.3721311-.7444169-.6512295-1.0235732-.0930328-.1861043-.2790983-.3722085-.3721311-.5583127-.0930328-.0930521-.0930328-.0930521-.1860656-.1861042 0-.0930521-.0930328-.0930521-.0930328-.1861042-.0930328-.0930521-.0930328-.1861043-.1860656-.2791564s-.0930328-.0930521-.1860655-.1861042c-.0930328-.0930521-.0930328-.0930521-.1860656-.1861042s-.0930328-.1861042-.1860656-.1861042c0 0-.0930328-.0930521-.0930328-.0930521s-.0930328-.0930521-.0930328-.0930521c-.0930327-.0930521-.0930327-.0930521-.1860655-.1861043 0 0-.0930328-.0930521-.0930328-.0930521-.0930328-.0930521-.1860656-.1861042-.2790984-.2791563-.0930328-.0930521-.1860656-.0930521-.2790983-.1861042 0 0-.0930328-.0930521-.0930328-.0930521-.3721312-.2791563-.8372951-.5583127-1.302459-.837469-.0930328-.0930521-.1860656-.0930521-.1860656-.0930521s-.0930328 0-.0930328-.0930521c-.5581967-.2791563-1.1163934-.5583127-1.767623-.7444169-.1860655-.0930521-.3721311-.0930521-.5581967-.1861042-.0930328 0-.0930328 0-.1860656-.0930521-.0930327 0-.0930327-.0930521-.1860655-.0930521-.3721312-.0930521-.7442623-.1861042-1.1163935-.2791564-.3721311-.0930521-.7442623-.1861042-1.1163934-.1861042-.0930328 0-.2790984 0-.3721312-.0930521h-.0930327c-.465164-.0930521-.8372951-.0930521-1.3024591-.1861042-.1860655 0-.4651639 0-.6512295-.0930521-.3721311 0-.7442623-.0930521-1.2094262-.0930521-.0930328 0-.0930328 0-.1860656 0-.3721311 0-.7442623 0-1.1163934 0-.4651639 0-.8372951 0-1.302459 0-.465164 0-.8372951 0-1.302459 0-.3721312 0-.7442623 0-1.0233607 0-.0930328 0-.0930328 0-.1860656 0-.3721311 0-.6512295 0-1.0233606.0930521-.6512295.0930521-1.302459.0930521-1.9536886.1861042-.0930327 0-.0930327 0-.0930327 0-.3721312.0930521-.7442623.0930521-1.2094263.1861042-.0930328 0-.2790983.0930521-.3721311.0930521-.1860656 0-.3721312.0930521-.5581967.0930521-.2790984.0930522-.465164.0930522-.7442623.1861043-.2790984.0930521-.5581968.1861042-.7442623.2791563-.0930328 0-.0930328.0930521-.1860656.0930521s-.1860656.0930521-.3721312.0930521c-.1860655.0930521-.2790983.0930521-.4651639.1861042-.1860656.0930521-.2790983.0930521-.3721311.1861042-.0930328.0930522-.1860656.0930522-.2790984.1861043-.0930328 0-.1860656.0930521-.2790984.0930521-.0930327 0-.0930327.0930521-.1860655.0930521-.0930328.0930521-.1860656.0930521-.3721312.1861042-.0930328.0930521-.1860656.0930521-.2790983.1861042-.0930328.0930521-.1860656.1861042-.2790984.1861042-.1860656.0930521-.2790984.1861043-.4651639.3722085-.1860656.0930521-.2790984.2791563-.465164.3722084-.0930328.0930521-.1860655.1861042-.2790983.2791563 0 0-.0930328.0930521-.0930328.0930521-.0930328.0930522-.1860656.1861043-.2790984.2791564s-.2790983.2791563-.3721311.3722084-.0930328.0930521-.1860656.1861042-.0930328.0930521-.1860656.1861042v.0930522c-.0930328.0930521-.1860655.1861042-.2790983.3722084-.1860656.1861042-.2790984.4652605-.465164.6513648-.0930328.0930521-.1860655.2791563-.1860655.3722084-.0930328.0930521-.0930328.2791563-.1860656.3722084-.6512295 1.3027296-1.2094262 2.8846154-1.5815574 4.7456576-.0930328.4652605-.1860656 1.0235732-.2790984 1.5818859-.1860655-1.2096775-.2790983-2.512407-.2790983-3.8151365 0-.2791563 0-.5583127 0-.837469v-.1861042c0-13.8647643 8.0938524-25.1240695 18.0483606-25.1240695 9.7684427 0 17.6762296 10.7940447 18.0483607 24.1935484-.1860656.6513648-.1860656.9305211-.1860656 1.2096774z" fill="#4b3f51"/><g fill="#1e1e1c"><path d="m41.7717213 47.5496278c-1.2094262-1.7679901-2.6979508-3.2568238-4.372541-4.4665012-1.302459-.9305211-2.7909836-1.7679901-4.372541-2.3263028-1.5815573-.5583126-3.2561475-.9305211-5.0237704-1.0235732-.0930328 0-.1860656 0-.2790984 0-.3721312 0-.7442623 0-1.1163935 0l1.1163935-.6513647c1.9536885-.837469 4.5586065-1.9540943 7.1635246-3.1637718-.6512295-2.605459-.9303279-5.3970223-.9303279-8.3746898 0-.3722084 0-.837469 0-1.2096774 0-.2791563 0-.5583127 0-.837469v.1861042c.1860656.9305211.3721312 1.9540943.5581967 2.8846154.465164 2.2332506 1.1163935 4.4665013 1.767623 6.6066998 1.4885246 4.4665012 3.2561475 8.560794 5.4889344 12.3759305z" opacity=".2"/><path d="m81.0315574 41.8734491c-1.5815574-.6513647-3.2561476-1.2096774-4.8377049-1.4888337-.0930328 0-.2790984 0-.465164-.0930521-.8372951-.0930521-1.6745901-.0930521-2.5118852 0-1.9536885.3722084-4.0934426.837469-6.140164 1.6749379-1.4885245.5583127-2.9770491 1.3027296-4.0934426 2.2332507 2.3258197-2.6054591 4.0004099-5.7692308 5.0237705-9.0260546.2790984-1.0235732.5581967-1.9540943.8372951-2.9776675s.4651639-2.1401985.6512295-3.1637717c.1860656-1.3027296.3721312-2.512407.4651639-3.8151365 0-.2791563.0930328-.4652606.0930328-.7444169v.837469 1.0235732 1.2096774c0 2.7915633-.2790983 5.5831266-.9303278 8.0955335 2.604918 1.3027295 5.3959016 2.6054591 7.1635245 3.3498759v.0930522l.0930328-.0930522z" opacity=".2"/><g opacity=".2" transform="translate(.930328 48.387097)"><path d="m43.7254098 40.6637717h-13.7688524c-.1860656-2.0471464-.2790984-4.3734491-.1860656-6.8858561 0-.5583126 0-1.1166253 0-1.6749379 0-1.1166253.0930328-2.3263028.0930328-3.4429281 0-.6513647.0930328-1.3027295.0930328-1.9540943 0-.0930521 0-.1861042 0-.2791563 0-1.1166253.0930328-2.2332506.0930328-3.3498759 0-1.7679901.0930328-3.4429281 0-5.117866 0-1.0235732-.0930328-2.0471464-.0930328-2.9776675 0-.0930521 0-.2791563 0-.3722085 0-.2791563-.0930328-.6513647-.0930328-.9305211 0-.1861042 0-.3722084-.0930328-.5583126-.0930328-.3722084-.0930328-.7444169-.1860656-1.1166253 0-.1861042-.0930328-.3722085-.0930328-.5583127 0-.0930521 0-.1861042-.0930327-.2791563 0-.1861042-.0930328-.3722084-.0930328-.4652605 0-.0930522-.0930328-.1861043-.0930328-.2791564-.1860656.0930521-.465164.0930521-.6512295.1861042-.1860656.0930522-.465164.0930522-.6512295.1861043-1.3024591.2791563-2.6979509.6513647-4.0004099 1.0235732-.4651639.0930521-.9303278.1861042-1.302459.3722084-.2790983.0930521-.6512295.1861042-.9303279.1861042-.2790983.0930521-.5581967.0930521-.837295.1861042-.1860656.0930521-.3721312.0930521-.5581968.1861043-2.6979508.6513647-4.9307377 1.2096774-6.1401639 1.4888337-.0930328 0-.1860656 0-.1860656.0930521-.0930328 0-.1860655.0930521-.2790983.0930521s-.0930328 0-.0930328 0c-.1860656 0-.2790984.0930521-.2790984.0930521-7.07049178 1.674938-11.72213112.9305211-13.11762293-4.280397 6.69836066 2.9776675 14.60614753 2.9776675 21.30450823.0930521 1.1163934-.46526053 2.1397541-1.02357318 3.1631147-1.67493795 1.3954918-.83746898 2.7909836-1.95409429 3.8143443-3.34987593 1.0233606-1.30272953 1.7676229-2.88461538 1.7676229-4.55955335.5581968 3.07071961 1.0233607 6.0483871 1.5815574 9.1191067.4651639 2.60545903.9303279 5.11786603 1.302459 7.72332503.0930328.1861043.1860656.4652606.2790984.6513648 1.9536885 3.8151365 4.5586065 7.3511166 7.8147541 10.1426799-2.8840164-.9305211-5.3959016-2.6985112-7.1635246-5.117866.2790984 1.4888337.5581967 2.8846154.8372951 4.3734491 2.8840164 3.8151365 6.6983606 6.9789082 10.9778688 9.1191067-3.2561475-.0930521-6.4192623-1.3027295-8.8381147-3.442928 1.7676229 2.605459 4.0004098 5.117866 6.6983606 7.3511166z"/><path d="m102.429098 7.63027295c-.558196 7.16501245-5.4889341 8.37468985-13.4897537 6.51364765 0 0 0 0-.0930328 0 0 0-.0930328 0-.1860656-.0930521-.1860656 0-.3721311-.0930521-.6512295-.1861042-.0930328 0-.0930328 0-.1860656-.0930521-1.4885246-.3722085-4.1864754-1.0235732-7.3495901-1.7679901-.6512296-.1861042-1.3024591-.2791563-1.9536886-.4652606-.2790983-.0930521-.6512295-.1861042-1.0233606-.2791563-1.6745902-.3722084-3.2561476-.837469-4.7446722-1.2096774 0 .0930521-.0930327.1861042-.0930327.3722084-.2790984 1.1166253-.3721312 2.2332506-.5581968 3.5359802-.0930328.6513647-.0930328 1.3957816-.1860655 2.0471464v.837469 1.0235732c-.1860656 7.5372208.837295 16.7493796.0930327 22.7977667h-9.4893442c2.2327869-3.2568238 3.7213115-6.9789082 4.7446721-10.7940447 0-.0930521.0930328-.1861042.0930328-.2791563-.7442623.837469-1.6745902 1.4888338-2.604918 2.1401985-1.9536886 1.3027296-4.1864754 2.1401985-6.4192623 2.9776675 4.9307377-3.1637717 8.5590164-8.0955335 10.4196721-13.67866.0930328-1.0235732.1860656-2.0471464.2790984-3.0707196.1860655-2.7915633.2790983-5.4900745.3721311-8.28163775 0-.0930521 0-.18610421 0-.27915632.0930328-2.41935484.1860656-4.74565757.2790984-7.16501241.8372951 1.67493797 2.1397541 3.16377171 3.6282787 4.28039702 1.0233606.74441688 2.0467213 1.39578164 3.1631147 1.86104219 1.302459.65136476 2.6979508 1.0235732 4.1864754 1.39578163 1.5815574.37220844 3.2561476.65136474 4.8377049.93052114 3.7213115.6513647 7.5356558 1.1166253 11.1639345.1861042 2.2327869-.5583127 4.2795084-1.67493799 5.7680324-3.25682385z"/></g></g></g><g transform="translate(19.536885 87.468983)"><path d="m61.2155738 32.7543424c0 1.2096775-.7442623 2.2332507-1.767623 2.2332507h-53.95901637c-1.02336066 0-1.86065574-1.0235732-1.76762295-2.2332507v-1.2096774h57.40122952z" fill="#878787"/><path d="m64.7508197 2.14019851-2.3258197 19.26178659-1.2094262 10.235732h-57.40122954l-1.20942623-10.1426799-2.32581967-19.35483869z" fill="#b3b2b2"/><path d="m64.6577869.37220844h-64.28565575l-.09303279 1.76799007h64.47172134z" fill="#878787"/><path d="m58.6106557 32.1960298h-52.47049177l.09303279-.837469h52.28442628z" fill="#727070"/></g><path d="m65.3090164 42.0595533c-.0930328-.0930521-.1860656-.1861042-.2790984-.2791563-.0930328-.0930521-.1860655-.0930521-.2790983-.1861042 0 0-.0930328-.0930521-.0930328-.0930521-.3721312-.2791563-.8372951-.5583127-1.302459-.837469-.0930328-.0930521-.1860656-.0930521-.1860656-.0930521s-.0930328 0-.0930328-.0930521c-.5581967-.2791563-1.1163934-.5583127-1.7676229-.7444169-.1860656-.0930521-.3721312-.0930521-.5581968-.1861042-.0930328 0-.0930328 0-.1860655-.0930521-.0930328 0-.0930328-.0930521-.1860656-.0930521-.3721312-.0930521-.7442623-.1861042-1.1163935-.2791563-.3721311-.0930522-.7442622-.1861043-1.1163934-.1861043-.0930328 0-.2790984 0-.3721311-.0930521h-.0930328c-.465164-.0930521-.8372951-.0930521-1.302459-.1861042-.1860656 0-.465164 0-.6512296-.0930521-.3721311 0-.7442623-.0930521-1.2094262-.0930521-.0930328 0-.0930328 0-.1860656 0-.3721311 0-.7442623 0-1.1163934 0-.4651639 0-.8372951 0-1.302459 0-.465164 0-.8372951 0-1.302459 0-.3721312 0-.7442623 0-1.0233607 0-.0930328 0-.0930328 0-.1860656 0-.3721311 0-.6512295 0-1.0233606.0930521-.6512295.0930521-1.302459.0930521-1.9536885.1861042-.0930328 0-.0930328 0-.0930328 0-.3721312.0930521-.7442623.0930521-1.2094263.1861042-.0930327 0-.2790983.0930521-.3721311.0930521-.1860656 0-.3721312.0930522-.5581967.0930522-.2790984.0930521-.465164.0930521-.7442623.1861042-.2790984.0930521-.5581967.1861042-.7442623.2791563-.0930328 0-.0930328.0930521-.1860656.0930521s-.1860656.0930521-.3721311.0930521c-.1860656.0930521-.2790984.0930521-.465164.1861042-.1860655.0930521-.2790983.0930521-.3721311.1861043-.0930328.0930521-.1860656.0930521-.2790984.1861042-.0930328 0-.1860656.0930521-.2790983.0930521-.0930328 0-.0930328.0930521-.1860656.0930521-.0930328.0930521-.1860656.0930521-.3721312.1861042-.0930328.0930521-.1860655.0930521-.2790983.1861042-.0930328.0930521-.1860656.1861042-.2790984.1861042-.1860656.0930522-.2790983.1861043-.4651639.3722085-.1860656.0930521-.2790984.2791563-.465164.3722084s-.0930327 0-.0930327.0930521c0 .4652606 0 1.0235732.1860655 1.4888338.3721312 1.5818858 1.2094263 3.6290322 2.0467213 4.0012407 1.0233607.3722084 1.3954918-.2791564 1.3954918-.2791564.0930328.3722085.1860656.7444169.1860656 1.1166254 2.7909836-1.1166254 6.0471312-1.4888338 9.4893443-1.5818859 2.1397541 0 4.0934426 0 5.9540983.2791563 1.3024591.1861042 2.5118853.4652606 3.6282787.9305211.0930328-.2791563.0930328-.5583126.1860656-.9305211 0 0 .1860656.2791564.4651639.3722085h.0930328.1860656.0930328.1860656c.0930327 0 .2790983-.0930521.3721311-.0930521s.1860656-.0930522.3721312-.1861043c.7442623-.6513647 1.3954918-2.4193548 1.6745901-3.8151364.1860656-.2791564.2790984-.7444169.1860656-1.1166254z" fill="#321913"/><g fill="#fff" transform="translate(45.586066 94.913151)"><path d="m11.4430328 13.4925558c0-.0930521-.0930328-.1861042-.1860656-.1861042-.1860656-.1861042-.3721311-.4652605-.5581967-.6513648-.1860656-.1861042-.2790984-.3722084-.2790984-.6513647s-.0930328-.6513648-.1860655-.9305211c0-.1861042-.0930328-.1861042-.2790984-.0930521-.09303279 0-.18606558.0930521-.18606558.0930521-.18606557.1861042-.37213114.3722084-.46516393.6513648-.09303279.1861042-.18606558.3722084-.27909836.4652605-.18606558.2791563-.46516394.4652605-.83729508.5583127-.93032787.4652605-4.2795082 1.8610421-5.0237705 2.2332506-.37213114.1861042-.74426229.2791563-1.20942623.2791563-.27909836 0-.6512295-.0930521-.93032786-.0930521-.18606558 0-.37213115 0-.46516394 0-.18606557 0-.18606557.1861042-.09303279.2791563 0 .0930521.09303279.0930521.09303279.1861042.27909836.2791564.46516394.5583127.7442623.7444169 0 0 .09303278.0930521.09303278.0930521 0 .0930521 0 .2791564.09303279.3722085 0 .2791563.09303279.4652605.18606557.7444168 0 .1861043.18606558.1861043.27909836.0930521.09303279-.0930521.18606558-.0930521.27909837-.1861042.27909836-.3722084.55819672-.7444168.83729508-1.1166253 0-.0930521.09303278-.0930521.18606557-.0930521.83729508-.3722084 5.02377049-2.1401985 6.04713115-2.6054591.18606557-.0930521.46516393-.0930521.74426231 0 .2790983 0 .4651639.0930522.7442623.0930522.2790983 0 .4651639 0 .7442623-.0930522-.0930328 0 0 0-.0930328-.1861042z"/><path d="m.37213115 13.1203474c0-.0930521.09303278-.0930521.09303278-.1861042.18606558-.1861042.37213115-.3722085.55819673-.5583127.18606557-.1861042.27909836-.3722084.27909836-.6513647 0-.2791564.09303278-.5583127.18606557-.9305211 0-.0930521.09303279-.1861043.27909836-.0930521.09303279 0 .18606557.0930521.18606557.0930521.18606558.1861042.37213115.3722084.46516394.6513647.09303279.1861042.18606557.3722085.27909836.4652606.18606557.2791563.46516393.4652605.83729508.6513647.93032787.4652606 4.2795082 2.2332507 5.02377049 2.6054591.37213115.1861042.83729509.3722084 1.20942623.3722084h1.02336068c.1860656 0 .3721311 0 .5581967.0930521.1860656.0930522.1860656.1861043.0930328.2791564 0 .0930521-.0930328.0930521-.0930328.1861042-.2790984.2791563-.5581967.4652605-.8372951.7444169 0 0-.0930328.0930521-.0930328.0930521 0 .0930521 0 .2791563-.0930328.3722084-.0930327.2791563-.0930327.4652606-.1860655.7444169 0 .1861042-.1860656.1861042-.27909839.0930521s-.18606557-.1861042-.27909836-.2791563c-.27909836-.3722085-.55819672-.837469-.83729508-1.2096775 0-.0930521-.09303279-.0930521-.18606558-.0930521-.83729508-.4652605-5.02377049-2.605459-6.04713114-3.0707196-.18606558-.0930521-.46516394-.0930521-.65122951-.0930521-.27909836 0-.46516394.0930521-.7442623.0930521s-.46516393 0-.74426229-.0930521c-.09303279-.0930521-.09303279-.1861042 0-.2791563z"/><path d="m11.35 4.55955335c-.0930328-1.0235732-.5581967-1.86104218-1.302459-2.60545906-.65122952-.55831265-1.30245903-.83746898-2.13975411-1.0235732-.65122951-.18610422-1.39549181-.27915633-2.04672132-.27915633-.6512295 0-1.3954918.09305211-2.04672131.27915633-.74426229.18610422-1.48852459.46526055-2.04672131 1.0235732-.74426229.65136477-1.20942623 1.48883375-1.20942623 2.51240695-.09303279 1.0235732.18606558 1.95409429.7442623 2.88461539 0 0 0 .0930521.09303278.0930521l.46516394.65136477c-.09303279.37220844-.09303279.74441687-.09303279 1.11662531.09303279.55831265.27909836.93052109.83729508 1.11662529.09303279 0 .09303279 0 .09303279.0930521.18606557.0930521.37213115.0930521.55819672.1861042.37213115.1861043.7442623.4652606.93032787.9305211 0 .0930521.09303279.2791564.09303279.3722085 0 0 0 .0930521.09303278.0930521.27909836.0930521.46516394.0930521.7442623.0930521h.93032787.93032787c.27909836 0 .46516393-.0930521.74426229-.0930521 0 0 .09303279-.0930521.09303279-.0930521 0-.0930521 0-.2791564.09303279-.3722085.18606557-.4652605.46516393-.7444168.93032786-.9305211.18606558-.0930521.37213115-.0930521.55819673-.1861042h.18606557c.55819675-.1861042.74426225-.55831263.83729505-1.11662528.0930328-.37220844 0-.74441688-.0930328-1.11662531l.465164-.65136477s.0930328-.09305211.0930328-.09305211c.2790983-.74441687.5581967-1.76799007.4651639-2.88461538zm-7.34959016 4.65260546c-.27909836.18610422-.55819673.27915633-.83729509.18610422s-.55819672-.27915633-.74426229-.55831266-.27909836-.55831265-.37213115-.93052109.09303279-.74441687.46516394-.83746898c.27909836-.09305211.55819672-.09305211.83729508-.18610422h.18606557c.18606558 0 .46516394 0 .65122951-.09305211.37213115 0 .55819672.37220844.65122951.65136476 0 .27915633 0 .46526055-.09303279.65136477-.09303279.37220844-.37213115.74441687-.74426229 1.11662531zm1.67459016 1.58188589v.0930521c-.09303279.0930521-.18606557.1861042-.27909836.2791563 0 0-.09303279.0930521-.09303279.0930521-.09303278.0930521-.18606557 0-.27909836-.0930521s-.09303279-.1861042-.09303279-.3722084c0-.3722085 0-.83746902.18606558-1.20967745.18606557-.27915633.37213115-.46526055.55819672-.74441688 0 0 .09303279-.09305211.18606557-.09305211v.27915633c-.18606557.65136476-.18606557 1.20967741-.18606557 1.76799011zm1.11639344.2791563c0 .0930521-.09303278.1861042-.18606557.2791563 0 0-.09303279 0-.18606557 0-.18606558-.0930521-.37213115-.2791563-.46516394-.4652605 0 0 0 0 0-.0930521 0-.5583127 0-1.20967745 0-1.76799011v-.09305211c.09303279 0 .09303279.09305211.18606557.09305211.27909837.27915633.46516394.55831266.65122951.93052109 0 .09305212.09303279.18610422.09303279.27915632-.09303279.2791563-.09303279.5583127-.09303279.837469zm2.79098361-3.07071961c-.18606557.37220844-.27909836.65136476-.46516394 1.0235732-.18606557.37220844-.55819672.46526055-1.02336065.46526055-.18606557 0-.37213115-.09305211-.46516394-.18610422-.46516393-.37220844-.74426229-.83746898-.93032786-1.39578164-.09303279-.37220844 0-.65136476.18606557-.93052109.09303279-.18610422.27909836-.18610422.46516393-.18610422.55819673.09305211 1.11639345.09305211 1.58155738.27915633.37213115.09305211.65122951.37220843.65122951.74441687z"/></g><g fill="#d52e1e" transform="translate(20.467213)"><path d="m34.05 3.0707196c0 1.30272953-.7442623 6.14143921-1.5815574 6.14143921s-1.5815574-4.74565757-1.5815574-6.14143921c0-1.30272953.7442623-2.41935484 1.5815574-2.41935484s1.5815574 1.02357321 1.5815574 2.41935484z"/><path d="m53.679918 10.4218362c-1.0233606.837469-4.1864754 4.5595534-3.6282787 5.2109181.5581968.6513648 4.6516394-1.9540943 5.675-2.7915632 1.0233607-.837469 1.3954918-2.1401985.8372951-2.7915633-.5581967-.74441688-1.8606557-.55831266-2.8840164.3722084z"/><path d="m61.4016393 31.7307692c-1.302459.1861042-6.1401639.0930521-6.2331967-.837469-.0930328-.8374689 4.5586066-2.1401985 5.8610656-2.3263027s2.5118852.3722085 2.604918 1.3027295c.0930328.9305211-.9303278 1.7679901-2.2327869 1.8610422z"/><path d="m12.9315574 8.83995037c1.0233606.83746898 4.372541 4.37344913 3.8143442 5.02481393-.5581967.6513647-4.7446721-1.674938-5.7680327-2.512407-1.0233607-.837469-1.48852464-2.04714638-.9303279-2.69851115.5581967-.74441687 1.8606557-.65136476 2.8840164.18610422z"/><path d="m2.88401639 28.3808933c1.30245902.1861042 6.14016394.0930521 6.23319672-.837469.09303279-.837469-4.55860655-2.1401985-5.86106557-2.3263027s-2.51188524.3722084-2.60491803 1.3027295c0 .837469.93032787 1.674938 2.23278688 1.8610422z"/></g></g></g></g><path d="m103.173361 259.057072h18.327459s8.37295 0 8.37295-8.37469v-124.689826s0-8.37469 8.372951-8.37469h10.884836" stroke="#d52e1e" stroke-width="2"/><g transform="translate(104.196721)"><g transform="translate(39.07377 40.012407)"><path d="m96.475 5.58312655c-.2790984-.18610422-.6512295-.37220844-1.0233607-.55831265-1.8606557-.9305211-4.3725409-1.9540943-7.7217213-2.79156328-7.7217213-1.95409429-19.5368852-3.16377171-37.1200819-.74441687-15.0713115 2.14019851-25.9561476 5.76923077-33.5848361 9.30521095-3.907377 1.8610421-6.8844262 3.6290322-9.30327869 5.3039702-1.86065574 1.3027295-3.25614754 2.4193548-4.2795082 3.3498759-1.02336065.9305211-1.58155737 1.5818859-1.95368852 1.9540943-.18606557.1861042-.27909836.2791563-.27909836.3722084l13.48975407 7.3511167c0-.0930521.0930328-.1861042.2790984-.3722085.3721311-.3722084 1.0233606-1.0235732 1.9536885-1.9540943 1.0233607-.930521 2.4188525-2.0471464 4.2795082-3.3498759 2.3258197-1.5818858 5.3959016-3.442928 9.3032787-5.3039702 7.6286885-3.6290323 18.5135246-7.2580645 33.5848361-9.30521093 17.5831967-2.51240695 29.4913934-1.30272953 37.1200818.74441688 3.256148.83746895 5.768033 1.86104215 7.721721 2.79156325.372132.1861042.744263.3722085 1.023361.5583127z" fill="#6e9eb6" fill-rule="nonzero"/><path d="m96.1028689 5.58312655c-5.7680328-3.16377171-19.2577869-7.72332506-45.865164-4.00124069-37.0270492 5.21091811-48.74918031 19.54094294-49.40040982 20.28535984l13.48975412 7.3511166c.6512295-.7444169 12.3733606-15.0744417 49.4004098-20.28535982 26.6073771-3.72208437 40.190164.93052109 45.865164 4.00124072z"/><g fill-rule="nonzero"><path d="m14.6991803 69.1377171v-7.5372208l.0930328-32.4751861s0 0 .0930328-.0930521c0 0 0 .0930521-.0930328.0930521l-2.604918-1.3957817-8.09385248-4.3734491-2.88401639-1.5818859-.09303279 40.012407c0 1.3027295 0 11.4454094 2.79098361 24.5657568.46516393 2.0471464.93032787 4.0942928 1.48852459 6.2344913.18606557.5583127.27909836 1.1166253.46516393 1.5818859.27909836 1.1166253.65122951 2.1401985.93032787 3.2568238 1.76762295 5.4900747 4.00040986 11.1662527 6.97745906 16.7493797.5581967 1.116625 1.2094262 2.233251 1.8606557 3.349876 1.5815574 2.791563 3.4422131 5.490074 5.3959016 8.095533 1.5815574 2.047147 3.3491804 4.094293 5.2098361 6.048387.4651639.465261.9303279.930522 1.3954918 1.488834 4.372541 4.280397 9.3963115 8.188586 15.2573771 11.352358l13.4897541 7.351116c-41.8647541-22.611662-41.6786886-79.5595532-41.6786886-82.7233249z" fill="#5c8599"/><path d="m64.0995902 8.93300248c-32.3754099 4.55955332-45.4 16.09801492-48.6561476 19.35483872-.4651639.4652605-.7442623.7444169-.7442623.837469l-.0930341 32.4751861v7.5372208c0 3.349876-.0930314 66.6253099 49.2143456 86.3523569 49.4004102-33.591811 49.4934422-96.8672452 49.5864752-100.2171211l.093033-40.012407c-.65123-.5583126-12.373361-11.53846153-49.4004098-6.32754342zm38.3295078 47.82878412c0 .1861042-.186065 15.6327543-5.8610652 34.4292804-6.6053279 21.774194-17.5831967 38.895782-32.6545082 50.806452-15.0713115-7.723325-25.9561476-21.681142-32.4684426-41.594293-5.675-17.2146404-5.7680328-32.6612905-5.7680328-32.7543426l.0930328-33.7779157c6.1401639-4.3734491 18.6995901-10.3287841 38.422541-13.1203474 10.1405737-1.3957816 18.4204918-1.4888337 24.839754-.8374689 3.4422132.3722084 6.4192623.9305211 8.8381148 1.5818858l4.0934422 1.3027295c.186066.0930522.372132.1861043.558197.2791564z" fill="#92d2f4"/><path d="m102.429098 56.7617866c0 .1861042-.186065 15.6327543-5.8610652 34.4292804-6.6053279 21.774194-17.5831967 38.895782-32.6545082 50.806452-15.0713115-7.723325-25.9561476-21.681142-32.4684426-41.594293-5.675-17.2146404-5.7680328-32.6612905-5.7680328-32.7543426l.0930328-33.7779157c6.1401639-4.3734491 18.6995901-10.3287841 38.422541-13.1203474 10.1405737-1.3957816 18.4204918-1.4888337 24.839754-.8374689 3.4422132.3722084 6.4192623.9305211 8.8381148 1.5818858 1.5815574.3722085 2.8840162.837469 4.0934422 1.3027295l.465164.2791564-.093032 33.6848635v.0930521-.0930521z" fill="#cee9fb"/><path d="m97.9635246 21.4950372-.0930328 32.8473946c0 .1861042-.1860656 15.6327543-5.8610656 34.4292804-.3721311 1.3027295-.8372951 2.605459-1.2094262 3.9081885-.1860656.3722085-.2790984.837469-.4651639 1.2096775-.2790984.8374689-.5581968 1.6749379-.9303279 2.5124069-.2790984.7444169-.5581967 1.3957816-.8372951 2.0471464-.2790983.5583127-.4651639 1.2096774-.7442623 1.7679905-.2790983.651364-.5581967 1.395781-.8372951 2.047146-.2790983.558313-.4651639 1.116625-.7442623 1.674938-.2790983.651365-.6512295 1.302729-.9303278 1.954094-.2790984.558313-.465164 1.116626-.7442623 1.674938-.3721312.651365-.6512295 1.30273-1.0233607 1.954095-.2790983.558312-.5581967 1.023573-.8372951 1.581885-.0930327.186105-.1860655.372209-.3721311.651365-.4651639.837469-.9303279 1.674938-1.3954918 2.419355-.1860656.372208-.3721312.651365-.5581967.930521-.465164.744417-.8372951 1.395782-1.302459 2.047146-.1860656.279157-.3721312.558313-.5581968.930522-.5581967.930521-1.2094262 1.76799-1.7676229 2.605459 0 .093052-.0930328.093052-.0930328.186104-.6512295.930521-1.302459 1.76799-1.9536885 2.698511-.1860656.186104-.3721312.465261-.5581968.651365-.5581967.744417-1.1163934 1.488834-1.7676229 2.23325-.0930328.093052-.1860656.279157-.3721312.372209-.6512295.837469-1.3954918 1.674938-2.139754 2.419355-.1860656.186104-.3721312.372208-.5581968.558312-.6512295.651365-1.2094262 1.30273-1.8606557 1.954095-.1860656.186104-.2790984.279156-.4651639.46526-.7442623.744417-1.4885246 1.488834-2.2327869 2.233251-.1860656.186104-.3721312.372208-.5581967.46526-.6512296.558313-1.2094263 1.116626-1.8606558 1.674938-.2790983.186104-.4651639.465261-.7442623.651365-.8372951.744417-1.6745901 1.395782-2.5118852 2.047146l4.4655737 2.419355c.8372951-.651364 1.6745902-1.395781 2.5118853-2.047146.2790983-.186104.4651639-.465261.7442623-.651365.2790983-.279156.6512295-.558313.9303279-.744417.3721311-.279156.6512295-.558312.9303278-.930521.1860656-.186104.3721312-.372208.5581967-.46526.7442623-.744417 1.4885246-1.488834 2.2327869-2.233251.1860656-.186104.2790984-.279156.465164-.465261.6512295-.651364 1.2094262-1.302729 1.8606557-1.954094.1860656-.186104.3721311-.372208.5581967-.558313.0930328-.093052.1860656-.279156.3721312-.372208.5581967-.651365 1.2094262-1.395782 1.7676229-2.047146.0930328-.093052.1860656-.279157.3721312-.372209.5581967-.744417 1.2094262-1.488834 1.7676229-2.23325.1860656-.186105.3721312-.465261.5581967-.651365.6512295-.837469 1.3024591-1.76799 1.9536886-2.605459 0-.093052.0930328-.093052.0930328-.186104.5581967-.837469 1.2094262-1.767991 1.7676229-2.60546.1860656-.279156.3721311-.558312.5581967-.930521.465164-.651364.8372951-1.395781 1.302459-2.047146.1860656-.279156.3721312-.651365.5581968-.930521.4651639-.837469.9303278-1.581886 1.3954918-2.419355.0930328-.186104.2790983-.372208.3721311-.651365 0-.093052.0930328-.093052.0930328-.186104.2790984-.46526.4651639-.930521.7442623-1.395782.3721311-.651364.6512295-1.302729 1.0233606-1.954094.2790984-.558312.5581968-1.116625.7442623-1.674938.2790984-.651365.6512296-1.302729.9303279-1.954094.2790984-.558313.4651639-1.116625.7442623-1.674938.2790984-.651365.5581967-1.30273.8372951-2.047146.2790984-.558313.4651639-1.209678.7442623-1.767991.2790983-.651364.5581967-1.3957812.8372951-2.0471459 0-.0930521.0930328-.1861043.0930328-.3722085.2790983-.7444169.4651639-1.3957816.7442622-2.1401985.1860656-.3722084.2790984-.837469.465164-1.2096774.4651639-1.3027295.8372951-2.512407 1.2094262-3.9081886 5.6749998-18.796526 5.8610658-34.2431762 5.8610658-34.4292804l.093033-33.7779156c-1.209427-.5583127-1.209427-.6513648-4.3725414-1.5818859z" fill="#5c8599"/></g></g><g fill="#fff" fill-rule="nonzero"><path d="m94.5213115.93052109c2.604918-.37220843 4.7446721 2.79156328 4.7446721 7.0719603 0 4.28039701-2.1397541 20.00620351-4.7446721 20.37841191-2.6049181.3722084-4.6516394-14.7952854-4.6516394-19.07568238-.0930328-4.18734492 2.0467213-8.00248139 4.6516394-8.37468983z"/><path d="m177.785656 20.1923077c1.209426-.1861042 2.325819.0930521 2.977049.9305211 1.67459 1.8610422.651229 6.0483871-2.418853 9.3052109-2.69795 2.8846154-12.652459 11.073201-16.001639 11.6315136-.465164.0930522-.744262 0-.930328-.1861042-1.67459-1.8610422 7.814754-14.9813895 10.791804-18.2382134 1.767622-2.0471464 3.814344-3.1637717 5.581967-3.442928z"/><path d="m181.693033 97.983871c3.34918-.4652606 6.047131.837469 6.326229 3.256824.279099 2.791563-2.604918 5.862283-6.605328 6.978908-1.02336.279156-2.69795.558313-4.651639.837469-5.768033.837469-13.861885 1.209677-14.047951-.837469-.279098-2.791563 13.582787-8.9330025 17.583197-10.0496278.465164 0 .930328-.0930521 1.395492-.1861042z"/><path d="m13.6758197 37.0347395c1.6745901-.2791564 3.6282787.2791563 5.3959016 1.4888337 3.1631148 2.2332506 13.0245902 12.0967742 11.4430328 14.6091811-.1860656.2791564-.5581967.4652606-1.0233607.5583127-3.5352459.4652605-13.4897541-4.280397-16.2807377-6.2344913-3.1631147-2.2332506-4.37254095-5.955335-2.6979508-8.3746898.7442623-1.2096775 1.8606558-1.8610422 3.1631148-2.0471464z"/><path d="m6.69836066 111.569479c.46516393-.093052.93032786-.093052 1.3954918-.093052 3.90737704 0 17.86229504 2.23325 17.49016394 5.117866-.2790984 2.140198-8.3729508 4.00124-14.0479508 4.745657-1.95368855.279157-3.62827871.465261-4.65163937.465261-3.90737705 0-6.88442623-2.233251-6.51229508-5.117866.27909836-2.605459 2.97704918-4.652606 6.32622951-5.117866z"/><path d="m103.731557 231.048387c-2.604918.372209-4.7446718-2.791563-4.7446718-7.07196s2.1397538-20.006204 4.7446718-20.378412c2.604918-.372209 4.65164 14.795285 4.65164 19.075682.093033 4.280397-2.046722 8.095534-4.65164 8.37469z"/><path d="m34.6081967 211.7866c-1.2094262.186105-2.3258197-.093052-2.9770492-.930521-1.6745901-1.861042-.6512295-6.048387 2.4188525-9.305211 2.6979508-2.884615 12.652459-11.073201 16.0016393-11.631513.465164-.093052.7442623 0 .9303279.186104 1.6745902 1.861042-7.8147541 14.98139-10.7918033 18.238213-1.7676229 2.047147-3.8143442 3.256824-5.5819672 3.442928z"/><path d="m163.644672 194.944169c-1.67459.279156-3.628279-.279157-5.395902-1.488834-3.163114-2.233251-13.02459-12.096774-11.443032-14.609181.186065-.279156.558196-.465261 1.02336-.558313 3.535246-.46526 13.489754 4.280397 16.280738 6.234492 3.163115 2.23325 4.372541 5.955334 2.697951 8.374689-.65123 1.209678-1.860656 1.861043-3.163115 2.047147z"/><g opacity=".2" transform="translate(63.262295 50.248139)"><path d="m18.1413934 5.0248139v10.4218362 7.1650124l-10.79180324 14.7952854h-.18606557v-6.6066998-18.0521091c-.46516393-.1861043-.74426229-.2791564-1.02336066-.3722085-.09303278 0-.18606557-.0930521-.27909836-.0930521-.18606557-.0930521-.46516393-.1861042-.74426229-.2791563-.09303279-.0930521-.27909836-.0930521-.46516394-.1861042-.18606557-.0930521-.37213114-.0930521-.55819672-.1861043-.09303278 0-.27909836-.0930521-.46516393-.0930521 0 0 0 0-.09303279 0-.18606557-.0930521-.37213115-.0930521-.55819672-.1861042 0 0-.09303279 0-.18606557 0-.09303279 0-.18606558-.0930521-.27909836-.0930521s-.09303279 0-.18606558 0c-.65122951-.1861042-1.30245901-.3722084-2.04672131-.4652605l8.27991803-10.42183626c2.41885251.74441687 4.18647541 1.67493796 5.58196721 2.41935484l-2.4188525-1.30272953c.8372951.37220843 1.6745902.74441687 2.3258197 1.11662531 2.7909836 1.20967742 3.9073771 2.32630273 4.0934426 2.41935484z" transform="translate(70.704918)"/><path d="m73.4028689 11.2593052-.0930328 25.9615385-.1860656.1861042-54.5172131 76.4888341c-3.8143443-5.210918-7.0704918-11.166253-9.67540986-17.8660053-.74426229-1.8610422-1.48852459-3.8151365-2.1397541-5.8622829-.18606557-.4652605-.27909836-.9305211-.46516393-1.3957816l59.44795079-78.90818863c1.9536886.27915633 3.7213115.55831263 5.3959017.93052113.7442623.1861042 1.3954918.3722084 2.0467213.4652605z"/><path d="m77.7754098 12.8411911-.0930328 18.2382134v6.4205955h-4.3725409v-.2791563l.0930328-25.9615385 3.907377 1.3027295z"/><path d="m22.2348361 118.455335-7.2565574 10.421836c-.0930328-.093052-.1860656-.186104-.2790984-.279156s-.1860655-.186104-.2790983-.279156c-1.1163935-1.116626-2.0467213-2.326303-3.070082-3.535981-.0930328-.093052-.1860656-.279156-.2790984-.372208-.2790983-.372208-.6512295-.744417-.9303278-1.116625-.27909839-.372209-.55819675-.744417-.83729511-1.023574-.27909836-.279156-.46516394-.651364-.7442623-.930521-.09303278-.093052-.18606557-.186104-.18606557-.279156-.27909836-.372208-.55819672-.744417-.83729508-1.209677-.55819672-.744417-1.02336066-1.488834-1.48852459-2.233251-.27909836-.465261-.55819672-.837469-.83729508-1.30273-.27909837-.372208-.46516394-.744416-.7442623-1.116625-.27909836-.46526-.46516393-.837469-.74426229-1.302729-.27909837-.465261-.55819673-1.023574-.83729509-1.581886-.37213114-.744417-.83729508-1.488834-1.20942623-2.233251-.18606557-.372208-.37213114-.744417-.55819672-1.116625-.18606557-.465261-.46516393-.930521-.65122951-1.395782-.09303278-.093052-.09303278-.186104-.09303278-.279156l8.37295082-11.0732011c2.69795083 6.7928041 5.95409833 12.7481391 9.67540983 17.8660051 1.3954918 1.395781 2.604918 2.884615 3.8143443 4.373449z"/></g></g></g><path d="m284.587295 208.808933h-48.097951s-8.372951 0-8.372951-8.37469v-74.441687s0-8.37469-8.37295-8.37469h-10.884836" stroke="#45ac34" stroke-width="2"/><g fill-rule="nonzero"><g transform="translate(249.327869 157.258065)"><g transform="translate(130.245902 56.761787)"><g fill="#334043"><path d="m53.1017234 64.556455 21.4942721-.0003482-.0000498 3.0699805-21.494272.0003482z" transform="matrix(.07824421 -.99693422 .99693422 .07824421 -7.035617 124.5731)"/><path d="m26.3436901 76.0340877 16.5604242-.0000289-.0000143 8.1888762-16.5604243.000029z" transform="matrix(.9999645 -.00842647 .00842647 .9999645 -.673971 .294602)"/><path d="m33.4145336 79.8492369 3.8144797-.0000066-.000056 32.0110617-3.8144797.000007z" transform="matrix(.9999645 -.00842647 .00842647 .9999645 -.806463 .301041)"/></g><path d="m28.2047698 119.955691 15.1648829-.000027-.0000127 7.258323-15.1648829.000026z" fill="#415559" transform="matrix(.9999645 -.00842647 .00842647 .9999645 -1.040114 .305948)"/><path d="m62.7971311 57.133995c-.5581967-.5583126-1.1163934-2.3263027-1.2094262-3.7220843-1.0233606-12.9342432-1.302459-27.5434243-.5581967-43.82754345.0930328-2.23325062.5581967-4.93176179 1.1163934-5.76923077 3.3491804-5.49007445 7.0704918-2.60545906 10.7918033 3.44292804.5581967 1.0235732 1.1163935 3.53598018 1.2094262 5.49007448.3721312 14.6091811-.1860655 29.032258-1.302459 43.2692307-.0930328 1.5818859-.5581967 3.5359802-1.0233606 4.0942928-2.5118853 2.8846154-5.4889345.6513648-9.0241804-2.9776675" fill="#465557"/><path d="m65.5881148 74.3486352v3.6290323l-59.1688525.4652605v-3.6290322c0-1.4888338 1.20942622-2.6985112 2.69795081-2.7915633l53.77295079-.4652605c1.4885246 0 2.6979509 1.2096774 2.6979509 2.7915632" fill="#465557"/><path d="m4.09344262 133.436725h-3.34918032l3.25614754-7.258065 27.16557376-3.629032.0930328 1.302729 2.7909836-1.302729.9303279 1.674938 1.2094262-1.488834v-.186104h.1860656l.5581967-.651365h-5.4889344l-.2790984-30.8002481 8.9311475-.0930521.2790984 30.8002482h-2.5118852l1.3954918 1.023573 24.0954918 2.791563 2.1397541 4.652606c.837295.558313 1.3954918 1.488834 1.4885246 2.605459 0 1.76799-1.3954918 3.163772-3.070082 3.163772-1.767623 0-3.1631148-1.395782-3.1631148-3.07072 0-.930521.3721312-1.674938 1.0233607-2.326303l-1.1163935-1.581886-13.6758196-1.76799c-1.0233607-.279156-2.1397541-.558312-3.1631148-.837469 5.3959017 4.094293 13.9549181 9.956576 13.9549181 9.956576l1.302459 3.349876c1.5815573.558313 2.7909836 2.047146 2.7909836 3.908189 0 2.326302-1.8606558 4.187344-4.1864754 4.187344-2.3258197 0-4.1864754-1.861042-4.1864754-4.187344 0-1.30273.5581967-2.512407 1.4885245-3.256824l-1.1163934-2.233251-18.4204918-13.213399.5581967 1.023573-22.0487705 10.235732-.7442623 1.023573c.5581968.744417.9303279 1.581886.9303279 2.512407 0 2.326303-1.8606557 4.187345-4.1864754 4.187345-2.32581968 0-4.18647541-1.861042-4.18647541-4.187345 0-2.140199 1.67459016-4.001241 3.72131147-4.187345l1.58155734-2.512407 10.1405738-4.745657-14.32704917 1.023573z" fill="#465557"/></g><path d="m124.012705 121.712159 1.581557-1.395782c-1.581557-.093052-3.163114-.46526-4.651639-.930521-.744262-.279156-1.581557-.558313-2.32582-.186104-.651229.372208-.837295 1.116625-1.02336 1.861042-1.116394 4.559553-9.489345 43.920596-10.32664 47.084367-1.02336 4.187345-3.256147 7.630273-4.837705 11.538462-1.581557 3.722084-3.2561472 7.630273-5.3028685 11.073201-.3721311.651365-1.1163934 1.209677-1.8606557 1.674938-.5581968.372208-1.0233607.651365-1.4885246.930521.2790983.372208.5581967.744417.9303278 1.023573.3721312.279156.7442623.558313 1.2094263.651365l3.5352459.093052h.0930328c1.581557-.372208 2.697951-1.581886 3.535246-2.884615.837295-1.395782 1.116393-3.07072 2.139754-4.37345 1.209426-1.488833 2.884016-2.419354 4.372541-3.53598.930328-.744417 1.767623-1.488833 2.790984-2.047146.744262-.372209 1.581557-.651365 2.325819-1.116625 1.209426-.651365.837295-1.209678.744263-2.419355-.093033-1.023573-.093033-2.047147 0-3.256824.093032-1.395782.558196-3.53598 1.02336-4.83871.930328-2.326302 1.860656-4.559553 3.442213-6.6067 3.535246-4.652605 6.512295-10.794044 7.535656-16.563275.465164-2.512407.558197-5.024814.558197-7.630273.093033-2.512407-.279099-5.490074.372131-7.909429.465164-1.581886 1.488524-3.163772 2.139754-4.745658.465164-1.302729 1.023361-2.605459 1.488525-3.908188z" fill="#efb690"/><path d="m116.197951 180.055831c0-.558312-1.116394-2.884615-.837295-3.256824-.837295 1.023574-1.767623 2.233251-2.790984 3.07072-3.163115 2.512407-5.954098 5.210918-8.652049 8.188586-1.023361 1.116625-2.232787 2.140198-3.628279 2.791563-.6512292.279156-1.3954915.46526-2.1397538.558313-.1860656 0-.5581968.093052-.7442623 0-.2790984-.093053-.5581968-.558313-.9303279-.558313-.1860656 0-.2790984.093052-.3721311.186104-.6512296.651365-1.6745902 1.023573-2.4188525 1.581886-.9303279.651365-4.9307377 2.791563-3.5352459 4.187345.4651639.46526 1.3954918.372208 1.9536885.372208 1.1163935 0 2.2327869-.093052 3.4422131-.186104 2.4188525-.279156 4.9307379-.651365 7.3495899-1.209677 2.697951-.558313 1.860656-5.117866 3.535246-6.792804.930328-.930521 4.279508-2.605459 5.209836-.930521.744263 1.302729-.372131 3.908188-.558196 5.210918-.093033.558312-.465164 1.674938-.372132 2.326302h1.209427c.558196-3.53598.651229-6.885856 2.790983-10.049627 1.209426-1.395782 1.67459-3.53598 1.488525-5.490075" fill="#2f2722"/><path d="m118.52377 119.199752c-.186065.093052-.279098.186104-.465163.279156-.465164.372209-.930328.744417-1.302459 1.30273-2.697951 3.349876 0 8.467742 1.209426 12.003722 1.488524 4.373449 2.604918 8.933002 4.186475 13.306451 3.070082 8.560794 6.32623 17.121589 9.117213 25.775435 1.302459 4.094292 1.302459 8.188585 1.953689 12.37593.651229 3.908189 1.302459 8.188586 1.302459 12.189826 0 .744417-.372131 1.581886-.744262 2.419355-.279099.558313-.558197 1.116626-.744263 1.581886.465164.186104.837295.279157 1.302459.372209s.930328 0 1.395492-.093052l3.070082-1.767991s0 0 .093033-.093052c1.116393-1.209677 1.488524-2.791563 1.488524-4.373449 0-1.674938-.744262-3.256824-.558196-4.838709.186065-1.861043 1.209426-3.535981 1.860655-5.303971.372132-1.116625.744263-2.140198 1.302459-3.163771.465164-.744417 1.023361-1.395782 1.395492-2.140199.65123-1.209677.093033-1.488834-.651229-2.419355-.558197-.837469-1.116394-1.674938-1.67459-2.791563-.65123-1.209677-1.395492-3.256824-1.674591-4.652606-.465164-2.512406-.837295-4.931761-.558196-7.444168.558196-5.769231-.093033-12.655087-2.32582-18.052109-.930328-2.326303-2.232787-4.559554-3.535246-6.792804-1.116393-1.954095-3.34918-3.535981-1.767623-5.769231.558197-.744417 1.302459-1.395782 1.67459-2.233251.186066-.279156.279099-.651365.279099-.930521 0-.558313-.372131-.930521-.65123-1.395782-1.302459-1.581885-2.884016-2.884615-4.186475-4.466501-.465164-.558312-.558197-.930521-1.302459-1.116625-.837295-.186104-1.67459.093052-2.511885-.372209-1.209427-.558312-2.232787-1.861042-3.535246-2.140198-1.116394-.186104-2.511886.186104-3.442214.744417" fill="#fac39d"/><path d="m145.22418 177.264268c-.372131-.465261-2.418852-1.861042-2.418852-2.326303-.279098 3.349876-2.139754 6.141439-3.070082 9.398263-1.116394 3.722085.744262 10.421837-4.279508 11.352358-.372131.093052-.65123.093052-.930328.279156-.372131.279156-.558197.744417-.744262 1.116625-.558197 1.395782-1.023361 2.605459-1.860656 3.815137-.372131.558312-1.860656 2.23325-.465164 2.791563.744262.279156 1.953688-.465261 2.604918-.651365 1.395492-.46526 2.790984-1.116625 4.093443-1.861042 1.02336-.558313 2.977049-1.302729 3.535245-2.419355 1.395492-2.698511.279099-5.397022-.093032-8.095533-.279099-1.674938.837295-4.559554 3.070082-4.094293 2.69795.558313 3.163114 6.420595 4.000409 8.467742.465164-.186104.837296-.372209 1.302459-.558313-1.302459-3.722084-2.884016-7.723325-2.790983-11.724566-.093033-1.861042-.837295-3.908188-1.953689-5.490074" fill="#2f2722"/><path d="m191.368443 128.504963c-.093033.093052-9.210246.093052-9.489345.093052-1.67459 0-38.143442.744417-38.143442.744417-2.977049.093052-5.116804.093052-5.954099.093052 1.209427-3.07072 5.488935-3.722084 8.559017-3.722084 14.69918-.744417 31.910246-1.116626 41.585656-13.957817 2.884016-3.722084 3.814344-8.37469 4.186475-13.2133994 1.302459 2.5124074 3.256147 10.4218364 3.442213 11.6315134.744262 4.559554.837295 10.421836-1.116393 14.702234-.65123 1.581885-1.767623 2.791563-3.070082 3.629032" fill="#c08a00"/><path d="m146.433607 125.620347c14.69918-.744416 31.910245-1.116625 41.585655-13.957816 2.884017-3.722084 3.814345-8.37469 4.186476-13.2133995-.279099-.5583126-.465164-.837469-.65123-.837469 0 0-29.863524 2.8846155-29.863524 2.8846155l-38.887705 9.677419-7.256558 10.607941c.186066.186104.465164.279156.65123.46526 4.186475 2.977668 8.559016 5.862283 12.838524 8.746899 1.302459.837469 2.604918 1.581885 4.00041 2.326302.558197.372209 1.023361.837469 1.67459.651365 1.209427-.372208 1.767623-3.53598 2.790984-3.629032h.372131c1.116394-3.07072 5.395902-3.629032 8.559017-3.722085" fill="#da9b00"/><path d="m123.454508 77.4193548 20.746312 32.1029782-143.54959049 1.209677 29.58442619-32.4751862z" fill="#a8aab3"/><path d="m106.801639 83.8399504c.279099 0 .558197.1861042.837295.1861042.279099.0930521.65123 0 .837296.0930521-.279099-.0930521-.558197 0-.744263.0930521-.558197.1861042-1.116393.0930521-1.767623.1861042-.558196.0930521-2.511885.7444169-1.953688 1.674938.558196.837469 1.767623.5583126 2.418852.4652605 1.209426-.1861042 2.511885.4652606 3.628279.837469 3.070082.9305211 6.047131-.2791563 8.931147-1.0235732l-2.139754-3.9081886-9.861475-2.6985111c-.930328.2791563-1.860656.6513647-2.790984.9305211-1.302459.4652605-2.418852.9305211-3.628278 1.76799-.465164.3722085-.6512299.837469-.8372955 1.3957817-.2790983.6513647-.6512295 1.3027295-.9303278 1.9540943-.2790984.4652605-1.302459 1.8610421-.6512295 2.5124069.3721311.3722084 1.1163934-.1861042 1.302459-.4652605.6512298-.9305211 1.2094258-2.6054591 2.1397538-3.1637717 1.395492-.837469 3.628279-1.0235732 5.209836-.837469" fill="#e4bca3"/><path d="m53.8659836 74.162531.1860656 2.4193549s1.6745901 5.2109181 5.1168033 7.723325c.837295.5583127 4.0004098 1.1166253 5.209836 1.1166253 0 0 1.3954918.1861042 1.8606558 1.3027296.4651639 1.1166253-5.8610656 5.4900744-11.0709017 5.7692307-5.209836.2791564-11.9081967-5.2109181-11.9081967-5.2109181s-.5581967-7.1650124 1.8606557-11.2593052z" fill="#69797d"/><path d="m44.7487705 76.8610422 6.6053279-3.2568238 2.5118852.1861042.0930328 2.0471464s-10.1405738 3.9081886-10.1405738 3.8151365c.3721312-1.5818859.9303279-2.7915633.9303279-2.7915633z" fill="#465557"/><path d="m30.4217213 23.9143921 36.8409836 1.2096774c.8372951 0 1.5815574 1.5818858 1.5815574 3.442928l.1860656 37.4069479c0 1.8610422-.6512295 3.6290323-1.4885246 3.9081886l-36.8409836 11.2593052c-1.3954918.4652606-2.6049181-1.2096774-2.6049181-3.6290323l-.2790983-49.1315136c.0930328-2.5124069 1.2094262-4.4665012 2.604918-4.4665012" fill="#69797d"/><path d="m68.1 67.369727-38.3295082 10.9801489-.2790984-51.2717121 38.422541.4652605z" fill="#45ac34"/><path d="m25.3979508 28.3808933.2790984 49.1315136c0 2.4193549 1.2094262 4.0942929 4.7446721 3.8151365l.4651639-.1861042c-1.3954918.4652606-2.604918-1.2096774-2.604918-3.6290323l-.2790983-49.1315136c0-2.2332506.9303278-4.0942928 2.2327868-4.3734491h-2.3258196c-1.3954918-.0930521-2.5118853 1.8610422-2.5118853 4.3734491z" fill="#465557"/><path d="m101.591803 84.398263c-.465164.6513648-.744262 1.4888338-1.02336 2.3263028-.279099.7444168-.8372955 1.4888337-.9303282 2.2332506-.0930328.5583126.2790983 1.1166253.9303282.9305211.279098-.0930521.465164-.2791564.651229-.3722085.279098.837469.837295.5583127 1.209426 0 .744263-1.1166253.930328-2.3263027 2.232787-2.5124069.930328-.0930521 1.953689 0 2.884017-.0930521 1.581557 0 3.163114-.0930521 4.837705-.0930521 0 0-.558197-1.9540943-.558197-2.0471464-.279099-1.1166253-.558197-1.9540943-1.767623-1.9540943-1.581557 0-3.070082.0930521-4.651639.0930521-.744263 0-1.581558 0-2.32582.2791563-.65123.2791563-1.116394.7444169-1.488525 1.2096774" fill="#efb690"/><g transform="translate(86.520492 80.024814)"><path d="m16.8389344.74441687 7.6286886 21.96029773h-24.09549185l1.58155737-21.86724562z" fill="#69797d"/><path d="m24.467623 22.7047146-.465164 1.7679901-23.07213113.1861042-.55819672-1.9540943z" fill="#465557"/><g fill="#cecece" transform="translate(2.790984 1.861042)"><path d="m15.1643443 16.3771712.3721311 1.674938h1.8606557l-.5581967-1.674938z"/><path d="m1.30245902 1.11662531h1.58155737v-.37220844h-1.58155737z"/><path d="m1.20942623 2.41935484h1.67459016v-.65136477h-1.58155737z"/><path d="m1.20942623 3.81513648h1.58155738l.09303278-.74441688-1.67459016.09305211z"/><path d="m1.11639344 5.21091811h1.67459017v-.74441687h-1.67459017z"/><path d="m1.02336066 6.69975186h1.76762295v-.83746898h-1.67459017z"/><path d="m1.02336066 8.18858561h1.76762295v-.83746898h-1.76762295z"/><path d="m.93032787 9.95657568h1.76762295l.09303279-1.11662531h-1.86065574z"/><path d="m.83729508 11.8176179h1.86065574v-1.2096775h-1.86065574z"/><path d="m.7442623 13.8647643h1.95368852v-1.3957817h-1.86065574z"/><path d="m.65122951 15.8188586h1.95368852l.09303279-1.3027296h-1.95368852z"/><path d="m.55819672 18.0521092h2.04672131v-1.5818859h-1.95368852z"/><path d="m3.5352459 1.11662531h1.30245902v-.46526055h-1.30245902z"/><path d="m3.5352459 2.41935484h1.3954918l-.09303278-.65136477h-1.30245902z"/><path d="m3.44221311 3.81513648h1.48852459v-.74441688h-1.3954918z"/><path d="m3.44221311 5.21091811h1.58155738l-.09303279-.74441687h-1.48852459z"/><path d="m3.44221311 6.69975186 1.58155738-.09305211v-.74441687h-1.58155738z"/><path d="m3.44221311 8.18858561 1.67459017-.09305211-.09303279-.83746898-1.58155738.09305211z"/><path d="m3.34918033 9.95657568h1.76762295v-1.20967742l-1.67459017.09305211z"/><path d="m3.34918033 11.8176179h1.86065574v-1.2096775h-1.86065574z"/><path d="m3.34918033 13.8647643h1.95368852l-.09303278-1.3957817h-1.86065574z"/><path d="m3.25614754 15.8188586 2.1397541-.0930521-.09303279-1.2096775h-1.95368852z"/><path d="m3.25614754 18.0521092h2.23278689l-.09303279-1.674938-2.1397541.0930521z"/><path d="m5.95409836 14.516129.09303279 1.2096775v.6513647l.09303278 1.674938h2.51188525l-.09303279-1.674938-.09303278-.6513647-.09303279-1.2096775z"/><path d="m5.86106557 12.4689826.09303279 1.3957817h2.32581967l-.18606557-1.3957817z"/><path d="m5.86106557 10.6079404v1.2096775h2.23278689l-.18606557-1.2096775z"/><path d="m5.76803279 8.74689826v1.20967742h2.1397541l-.18606558-1.20967742z"/><path d="m5.675 7.25806452.09303279.83746898h1.95368852l-.09303279-.83746898z"/><path d="m5.675 5.86228288v.74441687h1.86065574l-.09303279-.74441687z"/><path d="m5.58196721 4.46650124.09303279.74441687h1.76762295l-.09303279-.74441687z"/><path d="m5.58196721 3.0707196v.74441688h1.67459017l-.09303279-.74441688z"/><path d="m5.48893443 1.76799007.09303278.65136477h1.58155738l-.09303279-.65136477z"/><path d="m5.48893443.65136476v.46526055.65136476h1.58155737l-.09303278-.65136476v-.46526055z"/><path d="m7.62868852.65136476v.46526055h1.20942623c0-.09305211-.09303278-.27915633-.09303278-.46526055z"/><path d="m7.72172131 1.76799007.09303279.65136477h1.30245901c0-.18610422-.09303278-.46526055-.09303278-.65136477z"/><path d="m7.8147541 3.0707196.09303279.65136477h1.3954918c0-.18610422-.09303279-.46526055-.09303279-.65136477z"/><path d="m8.00081967 4.46650124.09303279.74441687h1.58155738c0-.27915632-.09303279-.46526054-.18606558-.74441687z"/><path d="m8.27991803 7.25806452.09303279.83746898h1.76762298c-.0930328-.27915633-.0930328-.55831266-.1860656-.83746898z"/><path d="m8.37295082 8.74689826.09303279 1.11662531h1.95368849c-.0930328-.37220843-.0930328-.74441687-.1860655-1.11662531z"/><path d="m8.55901639 10.6079404.09303279 1.2096775h2.04672132c-.0930328-.3722085-.1860656-.837469-.1860656-1.2096775z"/><path d="m8.74508197 12.4689826.18606557 1.3957817h2.23278686c-.0930328-.4652606-.1860655-.9305211-.2790983-1.3957817z"/><path d="m9.48934426.65136476c0 .18610422.09303279.27915633.09303279.46526055h1.02336065l-.0930328-.46526055z"/><path d="m9.67540984 1.76799007c0 .18610422.09303278.46526055.09303278.65136477h1.11639348l-.1860656-.65136477z"/><path d="m9.86147541 3.0707196c0 .18610422.09303279.46526055.09303279.65136477h1.2094262l-.1860655-.65136477z"/><path d="m10.1405738 4.37344913c.0930328.27915633.0930328.55831266.1860655.74441687h1.3024591l-.1860656-.74441687z"/><path d="m10.4196721 5.86228288c.0930328.27915633.0930328.55831265.1860656.74441687h1.3954918l-.1860656-.74441687z"/><path d="m10.6987705 7.25806452c.0930328.27915632.0930328.55831265.1860656.83746898h1.4885246l-.1860656-.83746898z"/><path d="m10.8848361 8.74689826c.0930328.37220844.1860655.74441688.1860655 1.11662531h1.6745902l-.2790984-1.11662531z"/><path d="m11.2569672 10.5148883c.0930328.4652606.1860656.837469.1860656 1.2096775h1.7676229l-.2790983-1.2096775z"/><path d="m11.6290984 12.4689826c.0930327.4652606.1860655.9305211.2790983 1.3957817h1.9536885l-.3721311-1.3957817z"/><path d="m12.0012295 14.516129c.0930328.4652606.1860656.837469.2790984 1.2096775h2.0467213l-.2790984-1.2096775z"/><path d="m9.02418033 14.516129.09303278 1.2096775.09303279.6513647.18606558 1.674938h2.60491802.6512295 2.2327869l-.4651639-1.674938h-2.1397541-.6512295c0-.1861042-.0930328-.4652605-.0930328-.6513647-.0930328-.3722085-.1860656-.837469-.1860656-1.2096775z"/><path d="m11.0709016.65136476.1860656.46526055h.9303279l-.0930328-.46526055z"/><path d="m11.35 1.76799007.1860656.65136477h1.1163934l-.2790983-.65136477z"/><path d="m11.7221311 3.0707196.1860656.65136477h1.1163935l-.1860656-.65136477z"/><path d="m12.0942623 4.37344913.1860656.83746898.1860655.65136477.1860656.74441687.1860656.65136477.1860656.83746898.1860655.65136476.2790984 1.11662531.1860656.65136473.2790983 1.3027296h1.4885246l-.3721311-1.3027296-.1860656-.65136473-.3721311-1.11662531-.1860656-.65136476-.2790984-.83746898-.1860656-.65136477-.1860655-.74441687-.1860656-.65136477-.2790984-.83746898z"/><path d="m14.1409836 12.4689826.3721312 1.3957817h1.5815573l-.4651639-1.3957817z"/><path d="m14.6061475 14.516129.3721312 1.2096775h1.6745902l-.3721312-1.2096775z"/><path d="m8.09385246 5.86228288.09303279.74441687h1.67459016c0-.27915633-.09303279-.55831265-.09303279-.74441687z"/></g></g><path d="m169.970902 21.5880893c-1.953689 2.0471464-3.721312 3.7220844-5.209836 5.2109181-5.488935 5.2109182-7.628689 6.2344914-7.628689 6.2344914-.093033.2791563 2.697951 4.6526054 1.023361 10.8870967 6.326229-6.0483871 10.419672-13.8647642 11.815164-22.3325062" fill="#efb690"/><path d="m106.801639 83.8399504c.279099 0 .558197.1861042.837295.1861042.279099.0930521.65123 0 .837296.0930521-.279099-.0930521-.558197 0-.744263.0930521-.558197.1861042-1.116393.0930521-1.767623.1861042-.558196.0930521-2.511885.7444169-1.953688 1.674938.558196.837469 1.767623.5583126 2.418852.4652605 1.209426-.1861042 2.511885.4652606 3.628279.837469 3.070082.9305211 6.047131-.2791563 8.931147-1.0235732l-2.139754-3.9081886-9.861475-2.6985111c-.930328.2791563-1.860656.6513647-2.790984.9305211-1.302459.4652605-2.418852.9305211-3.628278 1.76799-.465164.3722085-.6512299.837469-.8372955 1.3957817-.2790983.6513647-.6512295 1.3027295-.9303278 1.9540943-.2790984.4652605-1.302459 1.8610421-.6512295 2.5124069.3721311.3722084 1.1163934-.1861042 1.302459-.4652605.6512298-.9305211 1.2094258-2.6054591 2.1397538-3.1637717 1.395492-.837469 3.628279-1.0235732 5.209836-.837469" fill="#efb690"/><path d="m158.434836 42.8970223-1.953688 1.0235732c-2.32582 1.2096775-4.186476 3.2568239-5.116804 5.6761787l-10.140574 26.2406948-27.444672 4.9317618 1.209427 7.5372208 27.165573-.3722084c2.604918-.2791564 4.837705-1.7679901 6.140164-4.0942928l9.024181-10.5148884z" fill="#d0d0d0"/><path d="m151.271311 31.6377171c-.465163.1861042-.558196.9305211-.279098 1.3957817.279098.4652605.65123.8374689.837295 1.3027295.186066.5583126.093033 1.1166253.279099 1.674938.279098 1.2096774 1.488524 1.9540942 2.69795 2.0471464 1.209427.0930521 2.418853-.3722085 3.535246-.837469 4.279508-1.8610422 8.372951-4.5595534 10.605738-8.5607941 2.046721-3.6290322 2.418852-8.0024814 2.511885-12.1898263.093033-2.605459.093033-5.2109181-.837295-7.63027293-.279098-.74441687-.558197-1.39578164-1.023361-2.0471464-3.721311-5.86228288-10.791803-5.95533499-16.37377-3.25682382-5.488934 2.60545906-8.279918 9.39826305-6.419262 15.07444165.186065.6513648.651229 1.3027296.744262 1.9540943.372131 1.4888338-.372131 2.8846154-.930328 4.2803971-.372131.8374689-1.395492 3.3498759-.093033 3.9081885.744263.2791564 1.395492-.0930521 2.046722.3722085.558196.4652605.930328 1.3027295 1.02336 1.9540943 0 .0930521 0 .2791563.093033.3722084.093033.1861042 1.302459.1861042 1.581557.1861042" fill="#fac39d"/><path d="m177.134426 41.3151365c-.744262-.7444169-1.395492-1.4888338-2.139754-2.2332506-1.395492-1.674938-2.511885-3.4429281-3.256147-5.4900745-1.395492-3.8151365-1.953689-8.0955335-1.767623-12.1898263 0 0-.093033.0930521-.093033.0930521-1.395492 8.467742-5.488935 16.3771712-11.722131 22.3325062-.093033.2791564-.186066.5583127-.186066.837469-2.139754 3.7220844-4.00041 6.6066998-1.302459 8.2816377 2.139754 1.3957817 10.047541-1.5818858 13.117623-2.7915633.744262-.2791563 1.209426-.4652605 1.209426-.4652605.558197-.2791563 1.209427-2.4193548 1.488525-2.9776675.465164-.837469.837295-1.7679901 1.581557-2.4193548.558197-.4652606 1.023361-.6513648 1.67459-.7444169.65123-.0930521 2.046722.0930521 2.604918-.1861042.837296-.6513648-.558196-1.3957817-1.209426-2.0471464" fill="#fac39d"/><path d="m155.736885 48.9454094s3.721312 3.6290323 13.489754.1861042c-.744262 19.8200993-1.953688 28.939206-1.953688 28.939206l-11.629099 4.0012407-4.093442-12.8411911z" fill="#dadada"/><path d="m149.038525 70.719603c0 1.3027295 9.117213 23.2630273 11.629098 29.311414.186066.465261.279098.744417.465164 1.023574.186065.372208-1.302459 1.116625-1.302459 1.116625s4.465574 2.419355 4.465574 2.419355c.744262-.093052 7.628688-3.815137 26.700409-5.9553353h.093033c-.093033-.2791563-.186065-.5583126-.279098-.9305211-.279098-.9305211-.465164-2.0471464-.65123-3.3498759-2.232786-13.1203474-1.860655-39.174938-1.860655-39.174938l-2.604918-2.6985111-15.164345-.9305211s-10.791803 15.353598-14.978278 16.7493796c.093032 0 0-1.76799 0-1.9540943 0-.7444168 0-1.3957816 0-2.1401985 0-1.3957816 0-2.8846153.093032-4.280397.093033-2.605459.279099-5.3039702.558197-7.9094293.186066-1.3027295.372131-2.605459.65123-3.8151364.093032-.5583127.186065-1.2096775.372131-1.8610422.093033-.3722085.279098-.6513648.465164-.9305211.093033-.2791563.279098-.5583127.372131-.837469-.093033 0-.093033 0-.093033.0930521-.186065.1861042-.372131.3722084-.558197.6513648-.186065.2791563-.372131.5583126-.465164.9305211-.279098.7444168-.558196 1.4888337-.837295 2.2332506-.465164 1.3027295-.930327 2.605459-1.395491 3.8151365-.837295 2.605459-1.581558 5.2109181-2.418853 7.8163771-.744262 2.3263028-1.488524 4.6526055-2.232787 7.0719603-.465164 1.0235732-1.02336 2.4193549-1.02336 3.5359802" fill="#da9b00"/><path d="m160.667623 100.031017c.186066.465261.279098.744417.465164 1.023574l29.770492-3.2568243c-.279099-.930521-.465164-2.0471464-.65123-3.3498759-5.581967.9305211-23.909426 4.7456576-29.584426 5.5831262" fill="#2f2722"/><path d="m145.410246 10.7940447c.744262-3.44292807 1.860656-4.46650128 3.814344-6.32754346 3.628279-3.53598015 8.931148-5.30397022 13.861885-3.90818858 1.023361.27915632 2.32582 1.0235732 3.442214.83746898.930327-.18610422 1.767622-.83746898 2.69795-1.0235732 2.232787-.37220844 4.65164.18610422 6.512295 1.58188585 1.953689 1.58188586 4.279509 6.14143921 3.163115 8.65384611-.093033.2791564-.279098.5583127-.465164.7444169-.558196.7444169-1.209426 1.4888338-2.139754 1.4888338-.093033 0-.279098 0-.372131 0-.279098.0930521-.279098.4652605-.279098.7444168 0 3.5359802-2.046722 8.1885856-3.907377 11.1662531-.372132.6513648-1.953689 3.5359802-2.697951 3.5359802-1.023361-1.7679901-2.046722-3.5359802-3.070082-5.3039702.558197-1.4888338 1.116393-3.0707196.837295-4.6526055-.279098-1.5818858-1.67459-3.1637717-3.256148-2.9776675-1.116393.0930521-2.046721 1.1166253-2.418852 2.1401985-.093033.3722085-.186066.6513648-.279098 1.0235732 0 0-13.67582-1.0235732-15.443443-7.723325z" fill="#202c2b"/><path d="m122.52418 213.647643-.558196-94.8201 8.37295-.093052.558197 94.913152c0 1.395781-1.860656 2.605459-4.186475 2.605459-2.232787.093052-4.093443-1.116626-4.186476-2.605459 0 .093052 0 .093052 0 0z" fill="#a8aab3"/><path d="m13.954918 213.647643-.5581967-94.8201 8.3729508-.093052.5581968 94.913152c0 1.395781-1.8606558 2.605459-4.1864755 2.605459-2.3258196.093052-4.1864754-1.116626-4.1864754-2.605459 0 .093052 0 .093052 0 0z" fill="#a8aab3"/><path d="m144.107787 109.336228v5.397023c0 2.605459-2.046721 4.652605-4.651639 4.745657l-134.24631193 1.116625c-2.60491804 0-4.65163935-2.047146-4.74467214-4.652605v-5.397022z" fill="#d5dbd9"/><g fill="#fff" transform="translate(40.004098 32.568238)"><path d="m.83729508 13.67866v2.512407 7.3511166c-.09303278 6.8858561 4.74467213 10.235732 9.76844262 8.0024814l1.5815574-.7444169c3.8143442-1.6749379 6.5122951-6.6997518 6.5122951-11.3523573v-6.792804l-1.5815574.0930522-1.8606558.0930521-1.6745901.0930521-4.55860657.1861042h-.09303279l-1.76762295.0930521-2.97704918.1861042zm10.60573772 3.0707197c.8372951-.0930522 1.4885246.6513647 1.4885246 1.76799 0 .7444169-.3721312 1.4888338-.8372951 1.9540943v5.0248139l-1.3954918.4652606v-5.117866c-.5581967-.1861043-.93032788-.837469-.93032788-1.674938 0-1.2096774.74426228-2.2332506 1.67459018-2.4193548z"/><path d="m2.88401639 14.516129 2.8840164-.1861042v-4.0942928c0-4.00124068 2.69795082-6.79280396 5.58196721-6.42059552 2.604918.37220843 4.4655738 3.25682382 4.4655738 6.42059552v3.2568238l1.6745901-.0930521v-3.0707196c0-4.37344911-2.5118852-8.46774192-6.1401639-9.3052109-4.37254098-.93052109-8.55901639 3.0707196-8.55901639 9.1191067z"/></g><path d="m128.478279 91.0049628-7.814754.6513647-6.605328.6513648c-.65123.0930521-1.209427.2791563-1.767623.7444169-1.860656 1.4888337-3.907377 2.605459-5.581967 4.280397-1.116394 1.1166253-1.581558 1.7679901.372131 2.3263027 1.302459.3722081 2.418852-.0930521 3.256147-1.1166253-.279098.3722085-.744262.9305211-.558196 1.3957817.279098 1.0235727 1.302459.4652607 1.860655.1861037 1.302459-.6513643 2.511886-1.2096769 3.814345-1.8610417.744262-.3722084 1.67459-.4652606 2.511885-.2791563l6.047131 1.3027295c.744262.1861042 1.488525.0930521 2.232787-.0930521l4.744672-1.5818859z" fill="#fad2bc"/><path d="m180.111475 42.7109181c-4.837705-1.7679901-8.931147 2.6985112-10.233606 5.4900745-1.767623 3.7220843-1.860656 8.560794-3.34918 12.3759305-1.767623 4.4665012-4.186476 8.6538461-5.488935 13.3064516-.465164 1.7679901-.744262 3.5359801-1.581557 5.2109181-1.209427 2.6054591-3.349181 2.512407-5.954099 3.3498759-6.977459 2.0471464-25.39795 7.9094293-25.677049 8.0024814l2.046721 8.3746899c.465164-.0930522.930328-.1861043 1.30246-.1861043 3.442213-.2791563 6.977459-.5583126 10.419672-.9305211 5.861065-.4652605 11.35-2.0471464 17.304098-2.5124069 2.977049-.1861042 6.977459-.0930521 9.582377-1.7679901 1.860656-1.2096774 2.790984-3.8151365 4.00041-5.6761786 2.32582-3.349876 4.558606-6.6997519 6.884426-10.0496278 1.116394-1.5818859 2.139754-3.2568239 3.256148-4.8387097.744262-1.1166253 2.139754-4.280397 3.256147-4.8387097.279099-.0930521.465164-.2791563.558197-.3722084 5.302869-9.9565757-.093033-22.7047147-6.32623-24.9379653" fill="#e7e7e7"/></g><ellipse cx="209.509836" cy="117.617866" fill="#3a8835" rx="4.465574" ry="4.466501"/></g></g></g></svg>