<svg height="400" viewBox="0 0 1200 400" width="1200" xmlns="http://www.w3.org/2000/svg"><g fill="none" fill-rule="evenodd"><path d="m0 144h1201v-144h-1201z" fill="#dedfde" transform="translate(0 295)"/><path d="m381 19h440v363h-440z" opacity=".011091" stroke="#fefefe"/><g fill-rule="nonzero" transform="translate(421.57377 23.503722)"><g transform="translate(51.393443 86.471464)"><path d="m54.9886729 201.053583.6320537-112.145466-9.8600379-.12629-.6320537 112.271756c0 1.768059 2.2753933 3.030958 4.9300189 3.030958s4.930019-1.262899 4.930019-3.030958z" fill="#999ba3"/><path d="m207.566439 201.053583.632053-112.145466-9.860037-.12629-.632054 112.271756c0 1.768059 2.275393 3.030958 4.930019 3.030958 2.654625 0 4.803608-1.262899 4.930019-3.030958z" fill="#999ba3"/><g fill="#a8aab3"><path d="m43.2324738 80.4466911-42.85324157 37.8869819 250.54609077 1.515479-43.611706-38.5184314z"/><path d="m26.0406129 241.592653.6320537-112.145466-9.8600379-.12629-.6320537 112.271756c0 1.768059 2.2753934 3.030959 4.930019 3.030959 2.6546255.12629 4.9300189-1.2629 4.9300189-3.030959z"/><path d="m235.250391 241.592653.632054-112.145466-9.860038-.12629-.632054 112.271756c0 1.768059 2.275394 3.030959 4.930019 3.030959 2.654626.12629 4.930019-1.2629 4.930019-3.030959z"/></g><path d="m.50564297 118.207383v6.440787c0 3.030958 2.4018041 5.556757 5.43566192 5.556757l239.54835611 1.389189c3.033858 0 5.562073-2.399509 5.562073-5.430467v-6.440787z" fill="#d5dbd9"/><g transform="translate(74.582338)"><path d="m61.30921 70.0909161-6.9525908-1.3891894-6.8261801 1.2628994-.505643 3.9149881 14.6636461.12629z" fill="#465557"/><path d="m70.5371942 92.3179453-.7584645-1.8943491c-1.0112859-1.0103195-6.5733586-4.167568-6.5733586-4.167568l-1.3905181-12.376414-14.6636461-.1262899-1.6433397 12.2501241s-5.6884834 3.0309585-6.6997693 4.041278l-.8848752 1.8943491c-.3792323.3788698 0 .8840296.5056429.8840296l15.8013428.1262899 15.8013428.1262899c.505643.12629.8848752-.3788698.505643-.7577396" fill="#69797d"/><path d="m104.288862 1.64176921-98.47396786-.88402958c-2.90744707 0-5.30925117 2.2732189-5.30925117 5.30417744l-.50564297 58.47224173c0 2.9046686 2.27539336 5.3041774 5.30925117 5.3041774l98.34755783.8840296c2.907447 0 5.309251-2.2732189 5.309251-5.3041775l.505643-58.47224166c0-2.9046686-2.275394-5.30417743-5.182841-5.30417743" fill="#69797d"/><path d="m23.8890488-15.5119685 61.6316818.0004967.0008255 102.5227439-61.6316819-.0004967z" fill="#d52e1e" transform="matrix(.00842529 -.99996451 .99996451 .00842529 18.496011 90.151811)"/></g></g><g><path d="m55.4822722 150.412569h-44.2851696v-5.290895h43.4044986z" fill="#3b1b1d"/><g transform="translate(7.548608 149.524724)"><g transform="translate(45.291651 179.041616)"><path d="m2.39496533 14.9786581 11.19749547-.0003151-.0000601 2.141625-11.19749556.0003151z" fill="#1a1a1a" transform="matrix(.99976552 -.02165406 .02165406 .99976552 -.345658 .176859)"/><path d="m2.51620282.35092667c-1.38391155 2.14155248-2.39039268 6.17271011-2.39039268 7.93634157-.12581014 2.26752616 1.25810141 6.92855216 2.7678231 6.80257846 4.2775448-.1259737 9.30995046 0 13.71330536.5038947 4.403355.5038947 6.0388868 3.0233682 17.3617995 2.7714209 3.2710637-.1259737 9.0583301-.377921 9.0583301-1.7636315-.1258101-5.794789-10.8196721-3.5272629-14.342356-6.5506311-8.8067099-7.8103679-14.5939764-9.57399936-14.5939764-9.57399936s-11.3229127-.62986838-11.57453298-.12597367z" fill="#55210e"/></g><g transform="translate(1.258101 178.882619)"><path d="m12.2035837 17.0124752-9.81319102-.1259737-.12581014-1.8896051 9.81319096-.1259737z" fill="#1a1a1a"/><path d="m2.26458254.13200264c-1.00648113 2.01557881-1.63553183 6.04673644-1.76134198 7.93634157-.12581014 2.26752619 1.00648113 6.92855219 2.01296226 6.92855219 3.14525353 0 6.79374762.1259737 9.93900118.755842 3.1452535.6298684 3.7743042 1.1337631 11.9519634 1.1337631 2.3903926 0 6.5421273-.2519473 6.5421273-1.5116841-.1258101-5.79478908-3.6484941-3.9051839-6.2905071-7.05452584-6.4163171-7.93634157-14.2165459-7.68439422-14.2165459-7.68439422s-8.05184902-.88181573-8.17765916-.5038947z" fill="#55210e"/></g><path d="m22.3942051 4.03718659c-.2516203 1.76363146-.2516203 3.52726292 0 5.41686805-1.0064811-.12597367-2.0129622 0-2.8936332.37792103-.2516203-2.01557881-.2516203-4.03115762-.1258102-6.04673643" fill="#2a2d41"/><path d="m37.1139916.25797632c5.5356462 28.34407698-6.0388868 89.31533608-7.0453679 102.66854568-.5032406 6.17271-5.4098361 49.507655-7.5486085 67.017995-.5032405 4.535053-1.5097216 12.723342-1.5097216 12.723342s-.3774305 0-5.5356462 0c-9.43576063 0-11.95196345-3.40129-11.95196345-3.40129s1.76134197-74.072521 2.01296226-81.001073c.25162028-7.3064732-.37743043-51.0193386-1.76134198-59.5855486-.75486084-4.661026-7.80022874-14.9908674 0-38.17002373z" fill="#4a4a49"/><path d="m13.5874952 3.78523924 20.1296226-2.64544719c3.6484941 30.48562955-2.642013 89.44130975-3.5226839 101.78672995v.755842c-2.642013-17.7622882-7.2969882-55.9323119-7.6744187-57.4439961-3.7743042-3.2753155-14.59397631-15.3687884-8.93252-42.45312866z" fill="#3c3c3b"/><path d="m11.0712924.38394999c-3.3968738 31.49341891 13.335875 39.17781311 16.9843691 42.45312871.5032405 1.8896051 11.0712924 55.3024436 12.3293938 62.1050223 1.2581014 6.802578 6.1646969 75.710179 6.1646969 75.710179s1.5097217 2.519473 10.9454823 2.519473c5.1582157 0 6.9195577-2.645447 6.9195577-2.645447s1.761342-74.702389 1.761342-82.3867837c0-13.1012622-12.8326344-71.8049951-18.3682806-98.13349333z" fill="#4a4a49"/></g><path d="m15.6004575 53.1608911c1.3839115-1.0077894 3.6484941-24.3129194 3.6484941-24.3129194l18.6199009 7.9363416s.6290507 20.2817618.7548608 21.7934459z" fill="#744135"/><path d="m44.5367899 6.55063114c-5.1582157-4.78699968-20.3812428-9.32205201-28.0556614.62986837-7.67441863 9.95192039-4.403355 20.02981439-.5032406 26.20252459 3.1452535 4.7869996 6.1646969 7.5584205 12.2035837 10.3298414 1.2581014.6298683 12.455204 2.6454472 14.7197865 1.8896051 1.5097217-.5038947 2.8936332-11.7155518 3.2710637-11.7155518.5032405 0 1.7613419-.6298684 1.7613419-1.5116841.1258102-1.3857105-1.2581014-9.4480257-.8806709-10.2038678.5032405-.8818157 3.3968738-10.077894-2.5162029-15.62073576z" fill="#815245"/><path d="m47.6820435 11.5895782s-8.5550896-4.91297339-19.2489516 4.661026c-2.2645826 2.0155788 1.8871521 11.0856834 1.3839115 11.8415255-.6290507.8818157-8.4292794-6.6766048-8.051849-5.5428418 3.0194434 10.3298415-.5032406 15.9986569-1.3839115 15.9986569-2.8936333.1259736-11.44872288-14.4869727-7.0453679-26.2025246 4.529165-11.71555182 17.1101791-12.72334123 20.1296225-12.09347285 2.8936333.62986838 11.9519634 1.38571043 14.216546 11.33763085z" fill="#36180e"/><path d="m26.5459398 24.8168141c1.0064811 3.2753156 1.3839115 7.6843942-.3774305 8.1882889-1.7613419.5038947-4.0259245-1.7636314-5.0324056-5.038947s-.2516203-6.4246575 1.5097217-6.9285522c1.761342-.377921 2.8936332.5038947 3.9001144 3.7792103z" fill="#815245"/><path d="m87.8154785 89.9452044s3.6484941-1.5116841 5.1582157-3.4012892c1.5097217-1.8896051.880671-2.3934998 1.3839116-3.0233682s2.642013-1.3857104 2.642013-1.3857104 5.4098362-.5038948 2.8936332-4.283105l-2.1387724.755842s-.5032406 0-1.6355318.1259737c-1.1322913.1259737-2.1387724.2519474-4.403355-.1259737-1.6355318.1259737-3.2710636-.2519473-4.2775448 1.0077894-1.0064811.6298684-2.5162028 3.1493419-3.0194433 3.7792103-1.0064812.6298684-9.9390012 4.9129734-9.9390012 4.9129734l4.9065955 8.1882889s6.5421273-.6298684 10.1906214-2.6454472c3.6484941-1.5116841 6.6679375-4.661026 7.6744186-7.0545258 1.0064812-2.3934999.7548609-4.661026.7548609-4.661026s-3.9001144 6.6766048-6.4163172 8.0623152c-2.5162028 1.8896051-3.7743042-.2519474-3.7743042-.2519474z" fill="#815245"/><path d="m86.0541365 94.1023357 6.290507-2.2675261 6.0388868-5.6688154.880671-2.3934999-.2516203-2.8973945-7.9260389 2.3934998c.6290507-.6298683-8.5550896 8.3142626-5.0324056 10.8337361z" fill="#744135"/><path d="m91.2123523 91.3309149 1.1322912 1.0077894c.5032406 0 2.0129623-1.8896052 5.0324057-6.1727101.5032405-.6298684 1.0064811-1.2597368 1.5097217-1.8896052 1.5097221-2.3934998 2.8936331-4.9129733 4.9065951-7.3064732l1.006482-1.2597367c1.006481-1.7636315 1.887152-3.6532366 2.767823-6.0467364-1.509722 1.2597367-3.019444 2.5194735-4.529165 4.4090786l-1.006482 1.2597368c-1.509721 2.3934998-3.3968734 4.9129733-4.9065951 7.3064732-.5032406.6298683-1.0064811 1.2597367-1.5097217 1.8896051-3.5226839 3.9051839-3.9001144 5.5428417-4.4033549 6.8025785z" fill="#425b6c"/><path d="m104.170797 75.2062844c.50324-.6298684.50324-1.1337631 1.006481-1.2597368l-1.761342-1.5116841c-.503241.6298684-.503241.6298684-1.006481 1.2597368l-1.006481 1.2597367c0 .6298684-.503241.6298684-.503241 1.1337631l1.761342 1.5116841c0-.6298684.503241-.6298684.503241-1.1337631z" fill="#4db8a4"/><g fill="#4db8a4" transform="translate(91.841403 81.498939)"><path d="m1.76134197 5.04497599c0 .62986838.12581015 1.13376309.62905071 1.63765779.62905071.5038947 1.13229127.5038947 1.63553183-.12597368-.50324056.62986838-1.00648112 1.25973676-1.00648112 1.76363146-.50324057 0-.50324057 0-1.00648113.62986838-.50324057 0-.50324057 0-1.13229127.12597368 0 0 0-.62986838-.12581014-1.13376308 0-.62986838 0-.62986838-.12581014-1.13376309.12581014 0 .6290507-.62986837 1.13229126-1.76363146z"/><ellipse cx="3.827119" cy="4.541736" rx="5.037025" ry="1" transform="matrix(.55838695 -.82958062 .82958062 .55838695 -2.07763 5.180594)"/></g><g fill="#815245" transform="translate(89.3252 78.103679)"><path d="m1.88715212 12.0934729s-1.5097217 1.2597367-.37743043 2.8973945c1.25810141 1.6376578 4.40335494.7558421 4.9065955.1259737.50324057-.6298684 1.00648113-1.7636315 1.00648113-1.7636315s2.1387724-.755842 2.01296226-1.8896051-.12581014-1.1337631-.12581014-1.1337631 1.63553186-.75584205 2.01296226-1.88960513-.7548609-2.26752616-.7548609-2.26752616v-.62986838s2.642013-.25194735 2.5162029-2.01557881c-.1258102-1.76363146-1.2581014-2.14155249-1.2581014-2.14155249s-4.1517347 3.27531557-2.39039272 4.78699968v.62986838s-1.00648113.62986838-2.64201296.75584205c-1.63553184.12597368-1.63553184.12597368-2.1387724.25194735-.50324057 0-2.01296226 1.38571044-.37743042 2.39349981 1.76134197 1.0077894 1.13229127 1.0077894 1.13229127 1.0077894s-1.00648113.6298684-1.63553184.1259737c-.6290507-.5038947-1.13229127-.5038947-1.63553183.1259737-.37743043-.5038947-.25162028.6298684-.25162028.6298684z"/><path d="m10.693862.37792103-2.13877241.75584205s-.50324056 0-1.63553183.12597368c-.50324057 0-1.63553184.12597367-2.1387724.25194735l-4.40335494 5.03894703c.50324057-.62986838 7.29698818-1.88960514 7.29698818-1.88960514s5.0324056-.5038947 3.0194434-4.28310497z"/></g><path d="m45.0400305 75.4582317s.880671-2.5194735-.5032406-6.4246574c-1.3839115-3.905184-2.3903926-2.5194735-3.3968738-7.4324469-.5032405-5.416868 0-7.4324469 0-7.4324469l-10.8196721-3.9051839-22.01677469 14.6129464s-.75486085 20.4077354 1.63553183 29.8557611c2.39039266 8.9441309 9.56157076 18.2661829 9.56157076 18.2661829z" fill="#bacfed"/><path d="m41.1399161 54.1686805s-1.0064811-.5038947-.880671 1.5116842c-.5032405 2.0155788-2.2645825 7.9363415-2.2645825 8.9441309s.5032406 1.0077894.5032406 1.0077894-9.9390012-6.4246574-14.5939764-7.8103679c-4.7807854-1.8896051-10.8196721-6.4246574-10.8196721-6.4246574s0-3.0233682.3774304-4.5350523c0-.5038947.880671-1.0077894 1.3839115-1.0077894 8.9325201 2.0155788 17.8650401 4.4090786 26.2943195 8.3142625z" fill="#e1f2fd"/><path d="m40.7624857 67.5218902s-8.4292794-3.4012893-15.0972169-2.8973946c-6.5421274.5038947-14.4681662 8.56621-15.3488372 19.0220251-.88067102 10.455815 5.2840259 20.7856563 22.7716355 25.6986303 16.984369 4.786999 18.8715212 8.818157 18.8715212 8.818157l2.7678231 27.588235-43.4044987.377921s-10.81967214-61.7271013-10.44224171-73.6946005c.37743042-11.9674992 11.57453301-21.5414985 11.57453301-21.5414985s8.051849 2.8973945 14.0907358 4.7869997c6.1646969 2.0155788 12.8326344 9.4480256 14.2165459 11.8415255z" fill="#f08100"/><path d="m25.4136485 98.6373881c-4.2775448-7.4324469 13.4616851-9.6999731 22.268395-10.4558151 8.4292794-.7558421 26.2943194-.2519474 28.1814716-.2519474.1258101 0 .1258101 0 .1258101.1259737l3.7743042 8.0623153v.1259736c-1.7613419.6298684-14.2165459 7.3064728-36.9881814 10.3298418-2.2645826.377921-12.9584446-.377921-17.3617995-7.9363419z" fill="#815245"/><path d="m40.7624857 67.5218902s7.5486085 9.4480256 11.1971026 50.6414178l-11.0712925 3.275315s-27.3008006-17.006446-27.8040411-17.006446c-.5032406 0-6.41631722-20.6596827-6.41631722-20.6596827s4.78078532-15.116841 4.15173462-18.0142356c-.7548608-2.8973945 9.6873809-7.5584205 9.6873809-7.5584205s12.9584445 4.1571313 12.455204 3.5272629c-.5032406-.6298684 7.8002287 5.7947891 7.8002287 5.7947891z" fill="#f08100"/><g transform="translate(18.871521 61.727101)"><g transform="translate(30.194434 99.519204)"><path d="m25.7910789 13.3532096c-.6290507.2519474-1.5097217 0-1.761342-.755842-.2516202-.6298684 0-1.5116841.7548609-1.7636315.6290507-.2519473 1.5097217 0 1.761342.7558421.2516202.755842-.1258102 1.5116841-.7548609 1.7636314z" fill="#936037"/><path d="m5.53564621 23.683051-4.78078536-11.4636045c-.37743043-.755842 0-1.7636314.88067098-2.0155788l23.65230657-9.82594667c.7548608-.37792103 1.7613419 0 2.0129622.88181573l4.7807854 11.46360444c.3774304.7558421 0 1.7636315-.880671 2.0155789l-23.65230654 9.8259467c-.75486084.377921-1.63553183 0-2.01296225-.8818158z" fill="#000"/><path d="m23.6523065 10.5817888-.6290507-1.63765783c-.1258101-.37792102 0-.88181573.5032406-1.13376308l1.8871521-.75584205c.3774304-.12597368.880671 0 1.1322913.5038947l.6290507 1.63765779c.1258101.37792102 0 .88181577-.5032406 1.13376307l-1.8871521.7558421c-.5032406.1259736-1.0064811-.1259737-1.1322913-.5038947z" fill="#797979"/></g><g fill="#815245"><path d="m10.9454823.25194735c-7.80022877-.37792103-10.44224174 5.79478908-10.31643159 13.22723595.12581014 7.4324469 9.43576059 51.271286 11.32291269 52.7829701s13.0842547.5038947 14.3423561-2.6454472c1.2581014-3.2753155-1.6355319-42.5791024-2.8936333-48.6258388-1.0064811-6.04673643-3.2710636-14.23502535-12.4552039-14.73892005z"/><path d="m13.9649257 54.7985489c-7.80022879 3.1493419.1258101 18.7700777 4.4033549 26.2025246 4.2775448 7.4324468 18.8715212 27.8401825 18.8715212 27.8401825l8.3034693-4.157131s-5.5356462-22.2973411-16.2295082-43.3349449c-1.0064812-2.1415525-7.4227984-9.8259467-15.3488372-6.5506312z"/><g transform="translate(35.226839 98.259467)"><g transform="translate(3.546648 13.632151)"><path d="m4.25358096 12.3184259c.88067099-.2519474 1.38391155-1.1337631 1.13229127-2.0155789l-2.01296226-6.80257844c-.25162028-.88181573-1.13229127-1.38571043-2.01296225-1.13376308-.88067099.25194735-1.38391156 1.13376308-1.13229127 2.01557881l2.01296225 6.80257851c.25162028.8818157 1.13229127 1.3857104 2.01296226 1.1337631z"/><path d="m7.27302435 11.8145312c.88067098-.2519474 1.38391155-1.1337631 1.13229126-2.01557886l-2.01296225-6.80257848c-.25162028-.88181573-1.13229127-1.38571044-2.01296226-1.13376308-.88067099.25194735-1.38391155 1.13376308-1.13229127 2.01557881l2.01296226 6.80257851c.25162028.8818157 1.13229127 1.3857104 2.01296226 1.1337631z"/><path d="m10.1666576 11.0586891c.880671-.2519473 1.3839115-1.13376308 1.1322913-2.01557881l-2.0129623-6.80257849c-.25162028-.88181573-1.13229127-1.38571043-2.01296225-1.13376308-.88067099.25194735-1.38391156 1.13376308-1.13229127 2.01557881l2.01296225 6.80257849c.25162028.88181578 1.13229127 1.38571048 2.01296227 1.13376308z"/><path d="m12.9344807 10.0508997c.880671-.25194736 1.3839115-1.13376308 1.1322913-2.01557881l-2.0129623-6.80257849c-.2516203-.88181573-1.1322913-1.38571044-2.0129623-1.13376308-.88067094.25194735-1.3839115 1.13376308-1.13229122 2.01557881l2.01296222 6.80257849c.2516203.88181572 1.1322913 1.38571038 2.0129623 1.13376308z"/></g><path d="m7.54860846.5038947s7.42279834 8.94413098 8.42927944 10.9597098c.880671 2.1415525 1.761342 10.9597098 1.761342 10.9597098s-3.522684-1.7636315-5.4098361-.8818158c-1.8871521.8818158-6.41631717 3.4012893-6.41631717 3.4012893s-4.02592451-6.5506311-4.78078536-10.0778941c-.75486085-3.5272629-.75486085-7.18049948-.75486085-7.18049948z"/></g></g></g><path d="m33.8429279 57.6959435c2.8936333 1.6376578 9.0583302 6.6766048 9.9390012 13.1012622 1.1322913 9.0701047 5.9130766 32.5012083 5.9130766 32.5012083s-5.409836 4.283105-13.3358749 5.416868c-9.1841403 1.385711-15.2230271-1.38571-15.2230271-1.38571s-6.4163172-35.5245769-4.7807854-42.83105c1.1322913-5.7947891 9.4357606-11.4636045 17.4876096-6.8025785z" fill="#ed6b06"/></g><g transform="translate(207.377049 25.220844)"><path d="m35.472379 70.4175393c2.0193226-9.577318-4.164853-19.1546359-13.7566357-21.1709134-9.5917826-2.0162774-19.18356521 4.1585723-21.20288787 13.7358903-1.89311499 8.9472312 3.28139932 17.7684451 11.86352057 20.6668439v.1260174l-2.77656861 13.1058035c-.25241533 1.0081387.50483071 2.1422948 1.51449201 2.3943295s2.1455303-.5040694 2.3979456-1.5122081l2.7765687-13.1058035v-.1260174c8.9607443.7561041 17.2904503-5.166711 19.1835653-14.1139422zm-20.3194343 9.8293526c-7.4462523-1.6382254-12.24214361-8.9472312-10.72765162-16.5082717 1.64069966-7.4350231 8.96074432-12.2236821 16.53320422-10.711474 7.4462524 1.6382254 12.2421437 8.9472312 10.7276517 16.5082717-1.6406997 7.4350231-9.086952 12.3496995-16.5332043 10.711474z" fill="#000"/><path d="m133.28332 58.0678398c4.164853-3.9065375 19.688396 41.8377574 16.028374 51.1630402-3.660022 9.325284-43.541645 4.28459-49.094782 4.032555-5.6793453-.252034 16.911827-13.9879245 16.911827-13.9879245l-6.689006-10.5854567 17.669073-7.8130752c-.126208.1260174 4.164853-21.801 5.174514-22.8091388z" fill="#003051"/><path d="m130.632959 310.606592c.252416 4.28459 3.2814 8.695197-.50483 10.963509-3.660023 2.268312-7.06763 1.89026-11.106275.252034-4.038645-1.638225-5.300722-4.032555-7.320045-6.174849-2.019322-2.142295-7.951083-3.906538-9.591782-6.804937-1.6407-2.898399-2.2717383-10.585456 1.009661-9.4513 3.281399 1.134156 12.99939 3.27645 12.99939 3.27645z" fill="#000"/><path d="m132.147451 143.759632c2.524154 7.687058 7.446253 18.02048 3.2814 35.410873-3.407607 14.491994-3.407607 56.329752-3.407607 56.329752s.50483 65.655034-1.135869 80.903133c-20.698058.630086-20.57185-9.95537-20.067019-14.491995.50483-4.536624-10.727652-64.394861-10.8538596-67.797329-.2524154-3.402468 5.4269296-58.220012 8.3297056-68.301399 2.776569-9.95537 23.853249-22.053035 23.853249-22.053035z" fill="#00233e"/><path d="m102.741065 311.236679c1.514492 6.678919 3.028984 10.207404.757246 14.239959-2.397946 3.906538-11.9897283 1.638226-17.4166579-1.512208-3.2813993-1.89026-10.980067.378052-14.8925046-.126017-8.329706-.882122-12.9993896-10.585457-6.057968-10.585457 6.815214 0 14.0090509-2.646364 17.4166579-4.914676 3.2813994-2.39433 20.1932266 2.898399 20.1932266 2.898399z" fill="#000"/><g fill="#f6b086" transform="translate(71.062941 7.786921)"><path d="m29.2801785 17.0123411c-.2524153 3.9065376 4.922099 16.3822544 7.6986677 21.6749827 2.650361 5.2927283 8.2034983 12.4757168 8.2034983 12.4757168l-24.8629102 11.8456301s.1262076-23.0611735-6.6890064-25.7075376c-4.16485294-1.6382255 15.6497506-20.288792 15.6497506-20.288792z"/><path d="m13.1255973 36.166977c-1.0096613-.7561041.1262076-3.0244162 1.7669073-5.2927284l2.7765687-2.0162774 9.9704056 24.6993989-4.6696837 4.2845896-3.2813993-3.7805202c0-.1260174.2524154-12.9797862-6.5627986-17.8944625z"/><path d="m.50483066 15.500133c2.01932266 14.1139422 8.70832897 25.0774509 14.51388164 25.2034683 5.8055526.1260173 17.6690732-9.4513006 17.9214886-20.5408267.2524153-11.08952602-7.193837-21.04489599-18.0476963-19.65870523-11.86352061 1.51220809-15.90216593 3.90653758-14.38767394 14.99606363z"/></g><path d="m69.6746565 21.9008629c-4.164853-3.6545029 8.4559136-25.32948566 25.1153255-21.17091339 16.659412 4.15857226 18.426319 13.60987289 18.173904 22.17905209-.126208 8.5691792-4.795891 17.0123411-2.397946 17.6424278 3.2814 1.0081387-17.7952806 5.4187457-17.7952806 5.4187457s-7.4462523-9.7033353-7.6986676-11.5935954c-.757246-5.7967977-6.436591-7.5610405-6.057968-3.9065376.378623 3.5284855-1.514492 2.8983988-1.514492 2.8983988l-.757246.8821214s-3.1551917-9.5773179-4.543476-11.2155434c-1.6406997-1.6382254-2.5241533-1.134156-2.5241533-1.134156z" fill="#2b1110"/><path d="m110.06111 49.1206086-1.766908-4.0325549-20.1932263 5.4187457 1.0096614 4.9146763z" fill="#92d2f4"/><path d="m111.196979 46.9783138 5.679345 4.5366243s-17.0380353 8.0651098-22.3387573 7.9390925c-5.300722-.1260174-7.8248753-1.6382254-7.8248753-1.6382254l.6310383-4.5366243s10.8538593-2.5203469 15.3973353-3.5284856c4.417268-.756104 8.455914-2.7723815 8.455914-2.7723815z" fill="#003d64"/><path d="m23.9874813 91.8404873c-2.7765686-1.6382254-6.4365909-3.2764508-8.4559136-3.6545029-2.0193227-.378052-6.18417564-.756104-7.4462523.3780521-1.26207666 1.0081387-.63103833 1.8902601-.63103833 1.8902601s-2.52415332 1.7642428-.88345366 4.1585722c-1.38828433 2.2683122.63103833 3.6545029.63103833 3.6545029-.88345367 1.1341561.88345366 1.8902603 1.76690732 2.1422953 2.52415334.630086 6.43659094.252034 9.59178264.378052 1.2620767 0 8.9607443 5.922815 10.4752363 6.804936 1.514492.756104 6.436591-12.6017341 6.436591-12.6017341z" fill="#f6b086"/><path d="m76.9947011 150.060499c-.378623 16.760306.8834537 62.882653-.2524153 88.212139-.5048307 12.475717 4.6696836 63.51274.757246 70.821746 14.2614663 9.199266 26.7560252 7.182988 26.7560252 7.182988s1.009661-66.285121.252415-72.459971c-.883453-6.17485 3.028984-47.38252 10.727652-61.874515 7.698668-14.365977 13.756636-33.016543 6.436591-35.410873-7.57246-2.142294-44.6775139 3.528486-44.6775139 3.528486z" fill="#003051"/><g fill="#003d64"><path d="m111.196979 50.1287473c8.582121 1.3861908 19.183565 4.6626417 23.600833 7.8130752 0 0 .757246 44.6101385 3.028984 55.8256825 7.951083 38.687324 11.737313 48.264641 10.853859 53.431352-.883453 5.040694-69.2880082 15.500133-74.7149379 11.719613-.757246-21.29693 5.0483067-56.329751 2.3979457-71.955902-2.650361-15.62615-3.78623-36.7970634-3.78623-36.7970634s-1.7669073-3.9065376 5.5531373-8.5691792c6.3103833-4.1585723 13.1255973-5.544763 13.1255973-5.544763z"/><path d="m83.3050844 76.592389c-6.5627986 23.0611735-21.7077185 34.654769-21.7077185 34.654769-19.309773.252035-42.7843989-3.150434-42.7843989-3.150434s.378623-8.6951962 4.7958913-17.3903927c3.028984.756104 20.3194343 1.0081387 27.1346483.1260173 6.6890063-.8821214 20.9504725-28.9839885 25.3677409-30.4961966 9.4655749-3.2764509 17.2904502-5.6707804 17.9214886-.1260174-.2524154 0-4.922099 3.7805203-10.7276517 16.3822544z"/></g></g><g fill="#fff" transform="translate(165.901639 102.684864)"><path d="m27.8177205 29.3560794c-.1330991-.1228288-.2661983-.3684863-.3992974-.4913151-.3992974-.4913152-.931694-.9826303-1.4640905-1.4739454-.3992975-.3684864-.6654958-.8598015-.6654958-1.4739455 0-.7369727-.2661982-1.4739454-.3992974-2.0880893-.1330991-.3684863-.2661983-.3684863-.6654957-.2456575-.1330991.1228287-.3992974.1228287-.5323965.2456575-.5323966.3684864-.931694.8598015-1.1978923 1.3511166-.2661983.3684864-.5323966.7369727-.7985949 1.1054591-.5323965.6141439-1.1978922.9826303-1.9964871 1.3511166-2.2626854.9826303-10.64793129 4.2990075-12.37822013 5.0359802-.93169399.3684863-1.86338798.6141439-2.92818111.4913151-.79859485-.1228288-1.59718969-.1228288-2.2626854-.2456576-.39929742 0-.79859485 0-1.19789227.1228288s-.39929742.3684864-.26619828.6141439c.13309914.1228288.26619828.2456576.26619828.3684864.66549571.6141439 1.19789227 1.2282878 1.86338798 1.8424318.13309914.1228287.13309914.2456575.13309914.3684863 0 .2456576.13309914.6141439.13309914.8598015.13309914.6141439.26619828 1.1054591.39929742 1.719603.13309914.3684863.39929743.4913151.66549571.2456575.26619828-.1228287.39929742-.2456575.66549571-.4913151.6654957-.8598015 1.33099141-1.719603 1.99648712-2.4565757.13309914-.1228288.26619828-.2456575.39929742-.2456575 1.99648712-.8598015 12.37822017-4.9131514 15.04020297-5.8957817.5323966-.2456575 1.1978923-.2456575 1.7302888-.1228288.6654957.1228288 1.1978923.2456576 1.863388.2456576.6654957.1228288 1.1978923 0 1.863388-.2456576.2661983 0 .2661983-.2456575.1330991-.4913151z"/><path d="m.53239657 28.4962779c.13309914-.1228288.26619828-.2456576.26619828-.4913151.39929742-.4913152.93169399-.8598015 1.33099141-1.3511166.39929742-.3684864.53239657-.8598015.66549571-1.3511167 0-.7369727.26619828-1.3511166.39929742-2.0880893.13309914-.3684864.26619828-.3684864.66549571-.2456576.13309914.1228288.39929742.2456576.53239656.3684864.53239657.3684863.79859485.8598015 1.19789227 1.3511166.26619829.3684864.39929743.7369727.66549571 1.1054591.53239657.7369727 1.19789227 1.105459 1.99648712 1.4739454 2.26268544 1.105459 10.64793134 5.0359801 12.37822014 5.8957816.931694.4913151 1.9964871.8598015 3.0612803.7369727h2.3957845c.3992974 0 .931694 0 1.3309914.1228288s.5323966.3684864.2661983.7369727c-.1330992.1228288-.2661983.2456576-.3992974.3684864-.6654957.6141439-1.3309914 1.105459-1.9964872 1.7196029-.1330991.1228288-.1330991.2456576-.2661982.2456576-.1330992.2456576-.1330992.6141439-.1330992.9826303-.1330991.6141439-.2661983 1.105459-.3992974 1.719603-.1330991.3684863-.3992974.3684863-.6654957.2456575s-.3992974-.3684863-.6654957-.6141439c-.6654957-.8598015-1.3309914-1.8424318-2.1295863-2.7022332-.1330991-.1228288-.2661983-.2456576-.3992974-.2456576-2.1295863-1.1054591-12.37822014-5.8957817-14.90710382-7.0012407-.53239657-.2456576-1.06479313-.2456576-1.73028884-.2456576-.53239657 0-1.19789227.1228288-1.73028884.1228288-.53239656 0-1.19789227-.1228288-1.73028883-.2456576-.13309915-.1228287-.26619829-.3684863 0-.6141439z"/><path d="m27.5515222 9.08933002c-.1330991-2.33374689-1.3309914-4.29900744-3.3274785-5.89578163-1.4640905-1.22828784-3.3274785-1.84243176-5.3239656-2.3337469-1.7302889-.36848635-3.4605777-.61414392-5.1908665-.61414392-1.7302889 0-3.4605777.24565757-5.05776742.61414392-1.86338797.36848635-3.59367681 1.10545906-5.05776737 2.3337469-1.86338797 1.47394541-2.9281811 3.43920595-3.06128024 5.77295285-.13309915 2.33374686.53239656 4.54466506 1.86338797 6.50992556 0 .1228288.13309914.1228288.13309914.2456576l1.06479313 1.4739454c-.13309914.8598015-.39929742 1.719603-.26619828 2.5794044.13309914 1.2282879.66549571 2.0880894 1.99648712 2.4565757.13309914 0 .26619828.1228288.39929743.1228288.39929742.1228288.93169398.3684864 1.33099141.4913151 1.06479313.4913152 1.86338798 1.1054591 2.2626854 2.0880894.13309914.2456575.13309914.6141439.26619828.8598015 0 .1228287.13309914.2456575.13309914.2456575.53239659.1228288 1.19789229.2456576 1.73028889.3684864h2.2626854c.7985948 0 1.5971896.1228288 2.2626854.1228288.6654957 0 1.1978922-.1228288 1.8633879-.2456576 0 0 .1330992-.1228288.1330992-.2456576.1330991-.2456575.1330991-.6141439.2661983-.8598015.3992974-.9826302 1.1978922-1.5967741 2.2626854-2.0880893.3992974-.1228288.9316939-.2456576 1.4640905-.4913151.1330992 0 .2661983-.1228288.3992974-.1228288 1.4640906-.3684864 1.9964872-1.2282878 2.1295863-2.4565757.1330991-.8598015 0-1.719603-.2661983-2.5794045l1.0647931-1.4739454c.1330992-.1228287.1330992-.1228287.1330992-.2456575 1.5971897-1.9652606 2.3957845-4.1761787 2.1295862-6.63275438zm-17.96838403 10.44044668c-.53239656.4913151-1.33099141.6141439-1.99648712.3684863-.79859484-.2456575-1.33099141-.7369727-1.73028883-1.3511166-.39929743-.6141439-.66549571-1.3511166-.93169399-2.0880893-.13309914-.8598015.26619828-1.719603 1.19789227-1.9652606.66549571-.1228288 1.33099141-.2456575 1.99648712-.3684863.13309914 0 .39929742 0 .53239656-.1228288.53239657 0 1.06479313-.1228288 1.59718972-.1228288 1.0647931 0 1.4640905.7369727 1.5971897 1.4739454.1330991.4913152 0 1.1054591-.2661983 1.5967742-.3992974.9826303-1.1978923 1.8424318-1.99648713 2.5794045zm3.99297423 3.6848635c0 .1228288 0 .2456576-.1330991.2456576-.2661983.2456575-.5323966.4913151-.7985949.7369727-.1330991.1228288-.2661983.1228288-.2661983.1228288-.2661982.1228287-.5323965.1228287-.6654957-.2456576-.1330991-.2456576-.2661982-.4913151-.2661982-.7369727-.1330992-.8598015-.1330992-1.8424318.3992974-2.7022333.3992974-.6141439.7985948-1.105459 1.3309914-1.5967742.1330991-.1228287.2661983-.1228287.3992974-.2456575v.6141439zm2.795082.6141439c0 .2456576-.2661983.4913152-.5323966.6141439-.1330991 0-.2661983 0-.3992974 0-.5323966-.2456575-.931694-.6141439-1.1978923-1.105459v-.1228288c0-1.3511166 0-2.7022333 0-4.0533499 0-.1228288 0-.1228288 0-.2456575.1330992.1228287.2661983.1228287.3992974.2456575.6654957.6141439 1.1978923 1.3511166 1.5971897 2.0880894.1330992.1228287.1330992.3684863.1330992.6141439zm6.7880562-7.0012407c-.3992974.7369727-.6654957 1.5967742-1.1978923 2.3337469-.5323966.8598015-1.4640905 1.1054591-2.5288837 1.1054591-.3992974 0-.7985948-.1228288-1.1978922-.4913152-1.0647932-.9826302-1.863388-1.9652605-2.3957846-3.3163771-.2661983-.7369727-.1330991-1.4739454.3992974-2.0880894.2661983-.3684863.6654957-.4913151 1.1978923-.4913151 1.3309914.1228288 2.6619828.2456576 3.9929742.6141439.931694.2456576 1.5971897.9826303 1.7302889 1.719603.1330991.2456576.1330991.4913151 0 .6141439z"/></g><path d="m210.081967 189.156328h-81.147541l4.698684-7.205956h73.147079z" fill="#69797d"/><path d="m210.081967 190.957816h-81.147541v1.801489h80.893558z" fill="#465557"/></g></g></svg>