<svg height="400" viewBox="0 0 1200 400" width="1200" xmlns="http://www.w3.org/2000/svg"><g fill="none" fill-rule="evenodd"><path d="m0 400h1200v-400h-1200z" fill="#fff"/><path d="m0 400h1200v-135h-1200z" fill="#dedfde"/><g><g fill-rule="nonzero" transform="translate(902 45)"><path d="m11.9916264 26.5675676h7.0100857v-24.74701495h-4.1389336v19.99377725h-.1491508l-7.19652414-19.99377725h-7.01008572v24.74701495h4.13893359v-19.99377733h.14915076zm12.9015407 0h12.9388285v-3.7346867h-8.4643057v-21.01232825h-4.4745228zm29.3081244 0c8.0168533 0 13.0134038-4.1496519 13.0134038-13.0902655 0-7.46937345-4.5863859-11.65674945-12.8642531-11.65674945h-7.0100857v24.74701495zm-2.3864122-21.01232825h2.2372614c5.2575643 0 8.4643057 2.791584 8.4643057 8.14840735 0 6.4508225-3.2067414 9.1292342-8.1287165 9.1292342h-2.5728506zm24.3861493-3.7346867h-4.4745228v24.74701495h4.4745228zm15.884556 16.07047005h3.7660566v5.0550305c-1.081343.1131723-1.7152337.1508964-2.8338644.1508964-4.1762213 0-7.6066888-2.8670322-7.6066888-8.6388207 0-5.96040912 3.5050429-8.94061366 8.3897303-8.94061366 1.9389599 0 3.3186044.07544822 5.3321397.37724108l.3355892-3.84785902c-1.7152338-.33951698-3.2813167-.49041341-5.5185781-.49041341-7.4575381 0-13.23713 4.26282422-13.23713 13.35433431 0 7.9220627 4.9219751 11.9208181 12.1184993 11.9208181 2.6474259 0 4.921975-.2263446 7.3456746-.716758v-11.9208182h-8.0914284zm17.5997894-16.07047005v24.74701495h-4.474523v-24.74701495z" fill="#e98400"/><path d="m130.117049 16.8347477c0-5.9981332-3.057591-8.90288954-7.457538-8.90288954-1.752522 0-3.169454.33951698-4.8474 1.20717146v-8.94061362l-2.460988.22634465v25.95418635c1.976248.339517 3.542331.4149652 5.33214.4149652 5.518578 0 9.433786-3.6215144 9.433786-9.9591645zm-2.610139.2640687c0 5.0927546-2.833864 7.4316493-6.413482 7.4316493-1.118631 0-2.088111-.0377241-3.281317-.2263446v-13.0525414c1.379644-.679034 2.684714-.9808268 4.101646-.9808268 3.430467 0 5.593153 1.9993777 5.593153 6.8280635zm5.742304.3017929c0 6.5639948 3.281317 9.3933029 8.166005 9.3933029 2.349124 0 3.952495-.3772411 5.854167-1.2448956l.037288-2.3388947c-1.864385.8676545-3.579619 1.2448956-5.630442 1.2448956-3.430467 0-5.96603-2.2257224-5.891455-7.2430287h11.708335c.037288-.7544822.037288-1.4335162.037288-2.0371019 0-4.8286858-2.498275-7.35620106-6.823648-7.35620106-4.064358 0-7.457538 3.28199736-7.457538 9.58192346zm2.647426-2.3388947c.372877-3.2065492 2.386413-5.0550305 4.698249-5.0550305 2.722002 0 4.213509 1.5844125 4.213509 5.0550305zm14.020172-4.7909617h2.199974v10.8645431c0 4.4137206 2.237261 5.6586162 4.772824 5.6586162 1.081343 0 1.93896-.1131723 3.057591-.4149652v-2.1502741c-.932193.1886205-1.566083.2640687-2.498276.2640687-1.677946 0-2.871152-1.056275-2.871152-3.4706179v-10.7513708h4.772825v-2.11255009h-4.772825v-3.62151438l-2.460987.41496519v3.20654919h-2.199974zm11.969348 7.1298564c0 6.5639948 3.281317 9.3933029 8.166005 9.3933029 2.349124 0 3.952495-.3772411 5.854167-1.2448956l.037288-2.3388947c-1.864385.8676545-3.579619 1.2448956-5.630442 1.2448956-3.430467 0-5.96603-2.2257224-5.891455-7.2430287h11.708335c.037288-.7544822.037288-1.4335162.037288-2.0371019 0-4.8286858-2.498276-7.35620106-6.823648-7.35620106-4.064358 0-7.457538 3.28199736-7.457538 9.58192346zm2.647426-2.3388947c.372877-3.2065492 2.386413-5.0550305 4.698249-5.0550305 2.722002 0 4.213509 1.5844125 4.213509 5.0550305zm24.125136-6.86578768-.335589 2.52751528c-.82033-.2263447-1.342357-.3017929-2.088111-.3017929-1.193206 0-2.162686.6035857-3.542331 2.0371018v14.1088165h-2.460987v-18.29619246l2.4237-.22634465v2.15027411c1.416932-1.6221366 2.610138-2.26344644 3.915207-2.26344644.783042 0 1.305069.07544822 2.088111.26406876z" fill="#e98400"/><path d="m7.09863903 43.1346376h-2.0472093l-4.64771841 12.2404281h1.47546616l1.0881563-3.1720622h4.40795516l.59018646 3.1720622h1.53079615zm-1.12504295 1.1195513 1.23570291 6.7546265h-3.76243871l2.39763251-6.7546265zm10.82623292 1.9778741c-.3873098-.093296-.8115063-.1492736-1.3648062-.1492736-2.2316425 0-4.2972951 2.2017844-4.2972951 6.2881468 0 2.3323987.8299497 3.1720622 2.0287659 3.1720622 1.014383 0 1.8996627-.5224573 2.7296124-1.6606679h.05533l-.1659899 1.6233495c-.16599 1.6420086-.9959397 2.3323986-2.4160759 2.3323986-.8115064 0-1.6045694-.1119551-2.5082925-.3731837v1.287484c.9406097.1865919 1.6598995.2425695 2.6005092.2425695 1.8443327 0 3.3935721-1.0075963 3.6148921-3.5265868l.8299497-9.4228905zm-.7746197 6.2694875c-.8852797 1.2315065-1.7705594 1.8286006-2.4160758 1.8286006-.6270731 0-1.1065996-.5224573-1.1065996-2.0525108 0-3.3399949 1.4385795-5.0752995 2.821829-5.0752995.4057532 0 .8299497.0373184 1.1619296.1119551zm3.5226755-.3358654c0 2.369717.9959396 3.3773133 2.8033857 3.3773133 1.1250429 0 1.8812193-.1865919 2.7480557-.6530717v-1.2128473c-.793063.4291614-1.5307961.6530717-2.3791892.6530717-1.1803729 0-1.8443327-.5411165-1.8443327-2.5936273 2.987819 0 4.850595-1.4367576 4.850595-3.545246 0-1.3248024-.8299497-2.1084884-2.3423025-2.1084884-1.8812194 0-3.836212 1.9592149-3.836212 6.0828957zm4.8137083-3.8064746c0 1.3061433-1.2172596 2.3323987-3.3935721 2.3323987.2582065-2.3510579 1.3463628-3.45195 2.2685292-3.45195.7192897 0 1.1250429.3731838 1.1250429 1.1195513zm7.3773308 7.0158552h1.3094763l.5901864-6.2321692c.2028766-2.2204435-.5532998-3.0601071-1.8443327-3.0601071-.848393 0-1.6967861.4105022-2.7480557 1.474076h-.05533l.1291033-1.3994392-1.3094762.1679327-.8115064 9.0497068h1.3094762l.5901865-6.5493754c1.1250429-1.0075963 1.9918793-1.4554168 2.5267358-1.4554168.6086298 0 1.0328263.4664797.8852797 1.9778741zm10.881563-13.0800917-1.3279196.1679327-.3319798 3.7318379c-.3319799-.0746368-.7008465-.1119552-1.1619296-.1119552-2.2316426 0-4.2972952 2.2017844-4.2972952 6.2881468 0 2.3323987.8299497 3.1720622 2.0287659 3.1720622 1.014383 0 1.8996627-.5224573 2.7296124-1.6606679h.05533l-.1475466 1.4927352h1.2725896zm-2.2316426 10.2065765c-.8852797 1.2315065-1.7705594 1.8286006-2.4160758 1.8286006-.6270731 0-1.1065996-.5224573-1.1065996-2.0525108 0-3.3399949 1.4385795-5.0752995 2.821829-5.0752995.4057532 0 .848393.0373184 1.1803729.1119551zm9.2585502-6.2694875c-.3873099-.093296-.8115064-.1492736-1.3648062-.1492736-2.2316426 0-4.2972952 2.2017844-4.2972952 6.2881468 0 2.3323987.8299497 3.1720622 2.028766 3.1720622 1.014383 0 1.918106-.5224573 2.7296124-1.6606679h.0553299l-.1475466 1.4927352h1.2725896l.8299497-9.3295946zm-.7746197 6.2694875c-.8852797 1.2315065-1.7705594 1.8286006-2.4160759 1.8286006-.6270731 0-1.1065996-.5224573-1.1065996-2.0525108 0-3.3399949 1.4385795-5.0752995 2.821829-5.0752995.4057532 0 .8299497.0373184 1.1619296.1119551zm10.6971296 2.8735152c3.6517788 0 6.0678546-2.3510579 6.0678546-6.9225592 0-3.3026765-2.1578692-5.3178689-5.4038948-5.3178689h-3.1353656l-.903723 12.2404281zm.4610832-11.04624c2.5820658 0 4.1497486 1.6233494 4.1497486 4.347591 0 3.7504971-1.862776 5.5044609-4.4632852 5.5044609h-2.0472093l.7192898-9.8520519zm9.4983134 1.8286005-1.3279195.1679327-.8115064 9.0497068h1.3094762zm-1.1988162-2.7802192c0 .4851389.2950932.7277084.7192897.7277084.5717432 0 .903723-.4105022.903723-.9143003 0-.4664797-.2582065-.7463675-.7192897-.7463675-.5348565 0-.903723.3545245-.903723.9329594zm8.5945904 2.854856c-.3873099-.093296-.8115064-.1492736-1.3648062-.1492736-2.2316426 0-4.2972952 2.2017844-4.2972952 6.2881468 0 2.3323987.8299497 3.1720622 2.0287659 3.1720622 1.014383 0 1.8996627-.5224573 2.7296124-1.6606679h.05533l-.1659899 1.6233495c-.16599 1.6420086-.9959397 2.3323986-2.4160759 2.3323986-.8115064 0-1.6045694-.1119551-2.5082924-.3731837v1.287484c.9406096.1865919 1.6598994.2425695 2.6005091.2425695 1.8443327 0 3.3935721-1.0075963 3.6148921-3.5265868l.8299497-9.4228905zm-.7746198 6.2694875c-.8852797 1.2315065-1.7705594 1.8286006-2.4160758 1.8286006-.6270731 0-1.1065996-.5224573-1.1065996-2.0525108 0-3.3399949 1.4385795-5.0752995 2.821829-5.0752995.4057532 0 .8299497.0373184 1.1619296.1119551zm5.7912047-6.3441243-1.3279195.1679327-.8115064 9.0497068h1.3094762zm-1.1988162-2.7802192c0 .4851389.2950932.7277084.7192897.7277084.5717432 0 .903723-.4105022.903723-.9143003 0-.4664797-.2582065-.7463675-.7192897-.7463675-.5348565 0-.903723.3545245-.903723.9329594zm3.0062623 3.9370889h.9221663l-.5532998 5.4484833c-.2028766 2.0151924.4426399 2.7802192 1.6967861 2.7802192.7377331 0 1.069713-.0559776 1.6967861-.2798879v-1.1755289c-.5348565.1865919-.8299497.2425695-1.2910329.2425695-.6086298 0-.9221664-.3545246-.7930631-1.6606679l.5348565-5.3551873h1.862776l.11066-1.0635738h-1.862776l.2213199-2.1644659-1.3094762.2052511-.1844333 1.9592148h-1.0512696zm10.8446763-1.0822329c-.3873099-.093296-.8115064-.1492736-1.3648062-.1492736-2.2316426 0-4.2972952 2.2017844-4.2972952 6.2881468 0 2.3323987.8299497 3.1720622 2.0287659 3.1720622 1.014383 0 1.918106-.5224573 2.7296124-1.6606679h.05533l-.1475466 1.4927352h1.2725896l.8299497-9.3295946zm-.7746198 6.2694875c-.8852797 1.2315065-1.7705594 1.8286006-2.4160758 1.8286006-.6270731 0-1.1065996-.5224573-1.1065996-2.0525108 0-3.3399949 1.4385795-5.0752995 2.821829-5.0752995.4057532 0 .8299497.0373184 1.1619296.1119551zm6.1416279-10.2065765-1.3279195.1679327-1.1619296 12.912159h1.3094762zm1.3279194 9.8707111c0 2.369717.99594 3.3773133 2.803386 3.3773133 1.125043 0 1.881219-.1865919 2.748056-.6530717v-1.2128473c-.793063.4291614-1.530797.6530717-2.37919.6530717-1.180373 0-1.844332-.5411165-1.844332-2.5936273 2.987819 0 4.850595-1.4367576 4.850595-3.545246 0-1.3248024-.82995-2.1084884-2.342303-2.1084884-1.881219 0-3.836212 1.9592149-3.836212 6.0828957zm4.813709-3.8064746c0 1.3061433-1.21726 2.3323987-3.393573 2.3323987.258207-2.3510579 1.346363-3.45195 2.26853-3.45195.719289 0 1.125043.3731838 1.125043 1.1195513zm11.656182-5.3925056c-3.153809 0-5.569885 2.6309456-5.569885 7.5196532 0 3.4332908 1.696787 5.0566403 4.223522 5.0566403 2.932489 0 5.569885-2.556309 5.569885-7.2211063 0-3.3399948-1.733673-5.3551872-4.223522-5.3551872zm-.239763 1.287484c1.770559 0 2.987819 1.2688249 2.987819 4.3849095 0 3.7878154-1.918106 5.6350751-3.854655 5.6350751-1.789003 0-2.987819-1.0635738-2.987819-4.0677032 0-3.8811114 1.789002-5.9522814 3.854655-5.9522814zm7.524877 11.1208768h1.60457l.995939-1.9032373c1.1066-2.1271476 1.88122-4.3289319 2.360746-7.2211063h-1.364806c-.461083 3.0227887-1.088156 5.0193219-1.991879 6.8852409l-.49797 1.0262554h-.073773l-1.198817-7.9114963h-1.401692zm5.662102-3.2093806c0 2.369717.995939 3.3773133 2.803385 3.3773133 1.125043 0 1.88122-.1865919 2.748056-.6530717v-1.2128473c-.793063.4291614-1.530796.6530717-2.379189.6530717-1.180373 0-1.844333-.5411165-1.844333-2.5936273 2.987819 0 4.850595-1.4367576 4.850595-3.545246 0-1.3248024-.829949-2.1084884-2.342302-2.1084884-1.88122 0-3.836212 1.9592149-3.836212 6.0828957zm4.813708-3.8064746c0 1.3061433-1.217259 2.3323987-3.393572 2.3323987.258207-2.3510579 1.346363-3.45195 2.268529-3.45195.71929 0 1.125043.3731838 1.125043 1.1195513zm7.377331-2.1458067c-.184433-.093296-.38731-.1306144-.60863-.1306144-.737733 0-1.272589.2985471-2.120982 1.7912822h-.073774l.16599-1.7166454-1.309476.1679327-.756176 9.0497068h1.309476l.516413-6.0642365c.682403-1.1568698 1.493909-1.8286006 2.176313-1.8286006.221319 0 .331979 0 .534856.0373184zm5.274791 9.1616619h1.309477l.590186-6.2321692c.202877-2.2204435-.5533-3.0601071-1.844333-3.0601071-.848393 0-1.696786.4291614-2.748055 1.474076h-.05533l.49797-5.2618914-1.32792.1679327-1.16193 12.912159h1.309477l.590186-6.5493754c1.1066-.9889371 1.973436-1.4554168 2.545179-1.4554168.60863 0 .99594.4664797.866837 1.9778741zm3.707109-3.2093806c0 2.369717.99594 3.3773133 2.803386 3.3773133 1.125043 0 1.881219-.1865919 2.748056-.6530717v-1.2128473c-.793063.4291614-1.530796.6530717-2.37919.6530717-1.180372 0-1.844332-.5411165-1.844332-2.5936273 2.987819 0 4.850595-1.4367576 4.850595-3.545246 0-1.3248024-.82995-2.1084884-2.342303-2.1084884-1.881219 0-3.836212 1.9592149-3.836212 6.0828957zm4.813709-3.8064746c0 1.3061433-1.21726 2.3323987-3.393573 2.3323987.258207-2.3510579 1.346363-3.45195 2.26853-3.45195.719289 0 1.125043.3731838 1.125043 1.1195513zm4.776821-2.2017843-1.327919.1679327-.811507 9.0497068h1.309477zm-1.198816-2.7802192c0 .4851389.295093.7277084.71929.7277084.571743 0 .903723-.4105022.903723-.9143003 0-.4664797-.258207-.7463675-.71929-.7463675-.534856 0-.903723.3545245-.903723.9329594zm10.051613-1.082233-1.327919.1679327-.33198 3.7318379c-.33198-.0746368-.700847-.1119552-1.16193-.1119552-2.231642 0-4.297295 2.2017844-4.297295 6.2881468 0 2.3323987.82995 3.1720622 2.028766 3.1720622 1.014383 0 1.899663-.5224573 2.729612-1.6606679h.05533l-.147546 1.4927352h1.272589zm-2.231642 10.2065765c-.88528 1.2315065-1.77056 1.8286006-2.416076 1.8286006-.627073 0-1.1066-.5224573-1.1066-2.0525108 0-3.3399949 1.43858-5.0752995 2.821829-5.0752995.405753 0 .848393.0373184 1.180373.1119551z" fill="#1a1919"/></g><g fill="#80c9e4" transform="translate(1092 43)"><path d="m27.3921029 26.7304c-3.4083823-.256-6.3816176 2.2592-6.6436764 5.6176-.2572059 3.3568 2.2954411 6.2864 5.7022059 6.5424 3.4083823.2576 6.3816176-2.2576 6.6420588-5.6176.2588235-3.3584-2.2922059-6.2864-5.7005883-6.5424"/><path d="m28.5314118 13.15456c-6.9316177-.5232-13.6642647 2.4304-17.9914706 7.8976-.99970591 1.2624-.77323532 3.088.5111764 4.0752 1.2827942.9872 3.135.76 4.1363236-.5024 3.1091176-3.9296 7.9248529-6.048 12.8975-5.6784 4.6458823.3488 8.7822059 2.7872 11.3558823 6.6928.5645589.8576 1.5092647 1.3232 2.475 1.3232.5516177 0 1.1064706-.1504 1.6014706-.4672 1.3669118-.8736 1.7551471-2.672.8670588-4.0176-3.5798529-5.4384-9.3580882-8.8368-15.8529411-9.3232"/><path d="m29.4998971.63344c-9.6880883-.728-20.67352945 3.6288-27.98691181 11.0944-1.1275 1.1536-1.0967647 2.9936.07602942 4.1056 1.16955882 1.1136 3.03794117 1.0816 4.16544117-.072 6.14382352-6.272 15.28514702-9.9296 23.29735292-9.336 8.3163236.624 14.9276471 4.1056 19.6527941 10.3488.5775.7648 1.4655883 1.1696 2.3666177 1.1696.6130882 0 1.2277941-.1872 1.7567647-.576 1.3054412-.9584 1.5772059-2.7776.6033823-4.064-5.7879411-7.6496-13.8389705-11.912-23.9314705-12.6704"/></g></g><path d="m373 13h454v375h-454z" opacity=".011091" stroke="#fefefe"/><g fill-rule="nonzero" transform="translate(413.004098 26.027295)"><path d="m346.392846 216.892646 29.34261-.002293-.000332 4.24868-29.34261.002293z" fill="#334043" transform="matrix(.0782416 -.99693443 .99693443 .0782416 114.46933 561.836807)"/><path d="m309.879738 232.588044 22.650559-.000192-.000095 11.213907-22.650558.000191z" fill="#334043" transform="matrix(.9999645 -.00842635 .00842635 .9999645 -1.99571 2.715042)"/><path d="m319.526342 237.832261 5.226847-.000044-.000369 43.675989-5.226846.000044z" fill="#334043" transform="matrix(.9999645 -.00842635 .00842635 .9999645 -2.176636 2.72368)"/><path d="m312.354747 292.557467 20.671696-.000174-.000083 9.892155-20.671697.000175z" fill="#415559" transform="matrix(.9999645 -.00842635 .00842635 .9999645 -2.495412 2.729666)"/><path d="m359.32287 207.254958c-.987894-1.535646-1.56268-3.300481-1.668692-5.123593-1.485344-19.937309-1.734848-39.947521-.747079-59.915693.057524-2.710387.563486-5.392516 1.497336-7.937449 4.584167-7.523623 9.652531-3.579825 14.718353 4.651523 1.036305 2.385438 1.593783 4.951413 1.640726 7.551983.475068 19.718528-.117199 39.448327-1.774201 59.102796-.08315 1.920898-.54619 3.806237-1.362335 5.546956-3.423316 4.138247-7.552652 1.179031-12.304108-3.876523" fill="#465557"/><path d="m363.7165 230.733001.041697 4.938057-80.896686.681299-.041839-4.938056c-.008491-.985972.375346-1.934953 1.067142-2.638003.691796-.703051 1.634832-1.102529 2.621477-1.110479l73.457315-.618544c2.0541-.01691 3.733206 1.633023 3.750894 3.685726" fill="#465557"/><path d="m278.954056 310.347081-4.507335.038342 4.424197-9.983887 36.94481-4.993094.131044 1.795709 3.8383-1.829451 1.253664 2.345158 1.684056-2.055032.016729-.315176.219379.027351.749511-.913064-7.432761.063138-.353084-42.252079 12.220561-.10378.353084 42.252078-3.470008.029524 1.854642 1.384677 32.881682 3.876559 2.93658 6.330865c1.539406.974779 2.293267 2.829256 1.875325 4.613248-.417941 1.783993-1.915065 3.102154-3.724288 3.279095-1.809222.176942-3.529606-.826549-4.279673-2.49631-.750068-1.669762-.363599-3.635762.961391-4.890678l-1.580387-2.121621-18.634499-2.44766c-1.431093-.43621-2.861172-.768512-4.28162-1.087778 7.368127 5.685433 18.957167 13.681131 18.957167 13.681131l1.742735 4.576694c2.444467.874045 3.997539 3.299978 3.781252 5.906401-.216286 2.606423-2.147575 4.738298-4.702093 5.19046-2.554519.452162-5.090274-.889026-6.173783-3.265379-1.08351-2.376353-.44247-5.190655 1.560735-6.851958l-1.478366-3.048615-25.03589-18.152767.749511 1.394135-29.973998 14.061873-.999813 1.435033c1.608303 2.061294 1.627606 4.959499.046904 7.042394s-4.3598 2.821278-6.752973 1.794209-3.792389-3.558642-3.399975-6.15151c.392413-2.592868 2.476755-4.58826 5.064774-4.848635l2.120786-3.390887 13.793724-6.573829-19.576268 1.35886z" fill="#465557"/><path d="m265.40111 217.723309 2.119491-1.905159c-2.164463-.13468-4.299114-.577581-6.340412-1.315518-.960174-.525111-2.092958-.626763-3.130042-.280878-.804502.608772-1.320525 1.528347-1.423688 2.53707-1.508437 6.244128-12.919917 60.122693-14.014332 64.427029-1.423057 5.696377-4.369201 10.499317-6.588346 15.843259-2.0244 5.210741-4.442761 10.257065-7.233753 15.094463-.700363.927669-1.576992 1.70543-2.57873 2.287897-.708812.468936-1.424445.905532-2.002282 1.315136.361395.51665.788495.983248 1.270356 1.387838.492732.407959 1.050118.729324 1.64876.950606l4.769961.173161c.035238-.006748.073634-.016806.108999-.023555 2.066294-.630298 3.803978-2.054198 4.838164-3.964507 1.184975-1.909869 1.460821-4.256208 2.877941-6.039007 1.595208-2.010838 3.954548-3.273899 5.909467-4.873351 1.174134-1.049156 2.44853-1.978415 3.8045-2.774149 1.042126-.556026 2.175822-.931379 3.208097-1.516309 1.594828-.900567 1.12637-1.624917 1.00613-3.323173-.272834-3.734153.22504-7.484783 1.46221-11.015236 1.124557-3.224994 2.695828-6.273486 4.66715-9.054946 5.085317-6.679222 8.594895-14.438249 10.262501-22.688486.535991-3.442968.806249-6.922662.808339-10.40777.071235-3.376904-.442061-7.499421.465427-10.773701.610928-2.206409 2.07339-4.34559 2.918989-6.521568.691636-1.776603 1.382092-3.553164 2.07137-5.329682z" fill="#efb690"/><path d="m253.925932 297.516554c-.060538-.748407-1.475777-3.896157-1.093708-4.40241-1.078347 1.520103-2.328022 2.908437-3.723857 4.137042-4.182301 3.398479-8.070423 7.150521-11.622216 11.215452-1.336484 1.601285-2.986887 2.905627-4.847206 3.83083-.922571.436261-1.91567.700384-2.931333.779612-.35014.063844-.708383.068131-1.059922.012685-.416232-.13205-.744043-.764517-1.200341-.728365-.188369.043409-.35378.156562-.463582.317121-1.000294.826933-2.083829 1.545456-3.232769 2.143743-1.203104.852042-6.600429 3.816622-4.736052 5.67115.589181.58528 1.827578.522997 2.574761.536062 1.537441.006335 3.073684-.087559 4.599149-.281096 3.319777-.360717 6.618415-.897948 9.882181-1.609456 3.585825-.791663 2.511962-7.000271 4.772727-9.270608 1.279467-1.281172 5.788689-3.51929 7.014651-1.252884.950275 1.759264-.466848 5.283247-.729222 7.133461-.284269 1.04388-.445729 2.117959-.481041 3.200012l1.680126.059872c.726208-4.821137.854067-9.353313 3.711548-13.641052 1.478774-2.330448 2.142576-5.09377 1.885604-7.849522" fill="#2f2722"/><path d="m258.830827 214.128685c-.215479.118647-.424591.248872-.626448.390122-.66548.485941-1.25742 1.068267-1.757006 1.728466-3.571803 4.563084-.018888 11.534932 1.605273 16.405994 2.012188 6.028205 3.541906 12.17365 5.646411 18.201092 4.088172 11.700365 8.557491 23.339186 12.211228 35.191888 1.747874 5.5876 1.75 11.232168 2.649769 16.943366.990774 5.497391 1.565327 11.063931 1.718603 16.650648-.108429 1.159018-.444053 2.284235-.987081 3.3093-.353002.772361-.728395 1.52247-1.002841 2.177845.572091.246815 1.173432.41665 1.788778.505201.625652.084332 1.260787.061379 1.878968-.067903l4.101932-2.379009c.028395-.029247.056791-.055441.081934-.084688 1.41309-1.630786 2.140033-3.760249 2.024447-5.930292.006754-2.246892-.974572-4.388369-.707131-6.650392.306469-2.553343 1.635669-4.872969 2.458507-7.272324.446154-1.511689 1.036894-2.97532 1.763761-4.36993.592674-1.026551 1.350966-1.948069 1.918496-2.987335.880129-1.610972.107577-1.97935-.870622-3.354697-.846713-1.189268-1.5984-2.445539-2.247857-3.756772-.992159-2.0246-1.738216-4.164433-2.221713-6.372296-.721178-3.33395-.976495-6.754589-.758417-10.160984.82753-8.366258-.232273-16.814191-3.09884-24.701563-1.329295-3.209232-2.902073-6.308527-4.704112-9.269857-1.522838-2.618449-4.514477-4.804177-2.402592-7.858398.825555-.976783 1.589262-2.005871 2.286509-3.081051.221183-.386991.339234-.825939.342495-1.273493-.10725-.701282-.43148-1.3496-.925662-1.850919-1.751251-2.187127-3.877771-4.001425-5.63215-6.139469-.655344-.799446-.71301-1.257979-1.765137-1.533405-1.172713-.300348-2.196695.090029-3.429451-.52669-1.58701-.791435-3.045052-2.495487-4.797304-2.874928-1.580251-.181504-3.175553.167063-4.542872.9926" fill="#fac39d"/><path d="m294.202743 293.473682c-.447705-.601113-3.323285-2.520375-3.263938-3.151101-.442368 4.610985-2.882315 8.366871-4.247161 12.773225-1.559914 5.032271.975852 14.151611-5.891838 15.43192-.455478.041505-.899793.164004-1.311853.36168-.50977.389294-.880175.931645-1.056421 1.546824-.667608 1.792536-1.516957 3.512639-2.534877 5.133639-.538949.821817-2.545552 3.08441-.656244 3.760188.962508.342698 2.686357-.591876 3.594729-.905214 1.939858-.681218 3.823257-1.512445 5.632975-2.48608 1.425082-.742344 4.033919-1.713238 4.816355-3.228804 1.88829-3.654772.351886-7.28398-.189986-10.998737-.332443-2.252595 1.20447-6.174641 4.192135-5.520882 3.712787.81182 4.277152 8.715517 5.406136 11.550243.5955-.262465 1.194558-.502405 1.803147-.719818-1.826149-5.049356-3.972286-10.493928-3.772388-15.891297.043736-2.760777-.843679-5.456382-2.520263-7.655532" fill="#2f2722"/><path d="m358.156237 227.656538-.126016.070023s-12.545533.037785-12.905833.04088c-2.336464.019859-52.307804.96988-52.307804.96988-4.047317.083564-7.003646.148171-8.136256.170868 1.671657-4.282899 7.494558-5.119568 11.771691-5.155805 20.15551-1.056668 43.818269-1.553279 57.114408-19.370664 3.942495-5.213706 5.284621-11.651079 5.716164-18.277502 1.740219 3.539208 4.463284 14.384438 4.733573 16.057518 1.023704 6.36477 1.136313 14.406231-1.517807 20.392515-.898904 2.108058-2.414154 3.888319-4.342758 5.102287" fill="#c08a00"/><path d="m295.368786 223.479857c20.147963-1.047444 43.802139-1.534723 57.093255-19.144024 3.941172-5.151847 5.282804-11.512971 5.714189-18.05746-.353149-.713588-.668264-1.128233-.911269-1.10364-.061644.007136-40.916073 3.975702-40.916073 3.975702l-53.324766 13.135363-9.974942 14.568399c.293546.2114.581221.422801.871704.627702 5.75605 4.13078 11.71018 8.03627 17.622831 11.938829 1.778249 1.174107 3.603594 2.153506 5.439276 3.193942.821545.466253 1.424208 1.131673 2.282127.897718 1.647813-.451216 2.428007-4.899415 3.823115-4.927322 0 0 .181616-.004714.512557-.010831 1.670914-4.235397 7.491799-5.058826 11.767996-5.094633" fill="#da9b00"/><path d="m264.813723 157.258065 28.239556 43.938441-195.3688528 1.657092 40.2076578-44.519698z" fill="#a8aab3"/><path d="m241.87562 165.319451c.400438.070353.795138.16735 1.181165.290269.35562.085734.855519-.006854 1.169862.106777-.354927-.075423-.726093-.040291-1.058223.100163-.780553.132834-1.572062.199513-2.365125.199245-.784141.067457-3.429951 1.002596-2.654446 2.139746.703365 1.030733 2.376809.757538 3.25392.619137 1.63839-.260809 3.383212.642465 5.011442 1.091096 4.253211 1.161319 8.298766-.338367 12.216933-1.271342l-2.970695-5.084767-13.469983-3.460147c-1.281628.401615-2.569606.803111-3.854409 1.207733-1.751964.508913-3.404888 1.284098-4.894088 2.295221-.55079.477344-.96054 1.082451-1.188786 1.755566-.415567.834855-.844089 1.666825-1.288867 2.483524-.346348.644749-1.818995 2.428933-.845994 3.268718.530381.454283 1.486871-.195276 1.780638-.564546.926009-1.159876 1.646265-3.311766 2.911763-4.073874 2.178775-1.04775 4.646258-1.432606 7.064893-1.101918" fill="#e4bca3"/><path d="m169.901841 152.605459.263554 3.296724s2.291208 7.18102 7.071098 10.582422c1.108155.788651 5.540644 1.577176 7.12363 1.524709 1.106735.141472 2.076523.807352 2.603204 1.787423.633195 1.542156-8.090676 7.570698-15.197179 7.920899-7.106503.3502-16.322716-7.150075-16.322716-7.150075s-.773919-9.778744 2.532778-15.386537z" fill="#69797d"/><path d="m157.557202 156.132944 9.10399-4.458006 3.428757.280675.160051 2.815294s-13.964892 5.308322-13.954918 5.278596c.270358-1.349035.693788-2.663009 1.26212-3.916559z" fill="#465557"/><path d="m137.445755 83.7468983 50.03976 1.6206299c1.161703.0380922 2.099909 2.1500544 2.10989 4.7197587l.19148 51.1033141c.009528 2.563863-.910612 4.9266-2.069409 5.282762l-49.893331 15.343057c-1.918104.589795-3.510502-1.649395-3.527053-5.012815l-.329879-67.0624498c-.016421-3.3734511 1.55412-6.0557815 3.478921-5.9931832" fill="#69797d"/><path d="m188.856557 143.002238-52.683149 15.186348-.345539-70.7196034 52.821365.7372636z" fill="#45ac34"/><path d="m131.176305 89.7286434.328534 66.9318506c.025272 3.357997 1.617396 5.588214 6.456946 5.208064l.657067-.202747c-1.920657.582897-3.512781-1.64732-3.525417-5.005317l-.328533-66.9318506c-.025272-3.0918916 1.314134-5.6135573 3.032617-5.9430212l-3.133704-.0387239c-1.933167-.0499779-3.500146 2.6238748-3.48751 5.9817451z" fill="#465557"/><path d="m234.453092 166.755595c-.609975.938071-1.103979 1.938146-1.472469 2.98091-.539118.944347-.977475 1.936219-1.308704 2.961203-.137955.723345.442773 1.44415 1.290507 1.179259.323538-.127759.620576-.307821.877546-.53196.383926 1.0881 1.210108.666642 1.738442-.056823 1.040407-1.419124 1.294766-3.050186 3.104187-3.24278 1.288056-.136133 2.666963-.042556 3.972699-.062021 2.22406-.03627 4.452251-.066012 6.672569-.101919-.062332 0-.718039-2.496343-.768885-2.67733-.416575-1.4508-.728233-2.5389-2.466805-2.500937l-6.455764.133957c-1.070512-.035719-2.139763.098437-3.162518.396794-.827312.296244-1.534221.828743-2.020676 1.522131" fill="#efb690"/><path d="m237.096925 161.91067 10.370288 29.776675h-32.561475l2.125049-29.620321z" fill="#69797d"/><path d="m247.467213 191.687345-.712117 2.614624-31.123426.176939-.725932-2.791563z" fill="#465557"/><g fill="#cecece"><path d="m239.094262 186.11468.52331 1.850581h2.267674l-.627971-1.861043z"/><path d="m219.557377 164.450993h1.849775l.010881-.42804-1.838894.009305z"/><path d="m219.557377 166.437655h1.850084l.010572-.67928h-1.818368z"/><path d="m219.557377 168.30335 1.839982-.009305.020674-.679281-1.829645.009305z"/><path d="m219.557377 170.215105 1.850544-.009305.010112-.780707-1.820207.009305z"/><path d="m219.557377 172.076613 1.850759-.009305.009897-.781638-1.830965.009305z"/><path d="m218.627049 173.965571 2.776523-.009305.014461-.837469-2.73314.008374z"/><path d="m218.627049 176.799007 2.762934-.015008.02805-1.846034-2.720859.015009z"/><path d="m218.627049 179.590571 2.763755-.013889.027229-1.847153-2.709296.013888z"/><path d="m218.627049 182.382134 2.751489-.012325.039495-1.848717-2.698829.012325z"/><path d="m218.627049 185.173697 2.76526-.013775.025724-1.847267-2.713814.013775z"/><path d="m218.627049 187.965261 2.753771-.010397.037213-1.850646-2.691749.010397z"/><path d="m222.348361 164.460298 1.860655-.009305-.026392-.437345-1.821067.009305z"/><path d="m222.348361 166.442308 1.860655-.009306-.037716-.67928-1.810367.009305z"/><path d="m222.348361 168.30335 1.860655-.009305-.035781-.679281-1.80102.009305z"/><path d="m222.348361 170.215105 1.860655-.008374-.034036-.781638-1.815274.009305z"/><path d="m222.348361 172.076613 1.860655-.009305-.032643-.781638-1.817131.009305z"/><path d="m222.348361 173.965571 1.860655-.009305-.031011-.837469-1.819307.009305z"/><path d="m222.348361 176.799007 2.790983-.015008-.058757-1.846034-2.702848.015009z"/><path d="m222.348361 179.590571 2.790983-.013878-.055819-1.847164h-.013955l-2.6933.015265z"/><path d="m222.348361 182.382134 2.790983-.012325-.065825-1.848717-2.685663.012325z"/><path d="m222.348361 185.173697 2.790983-.013785-.062578-1.847257-2.703374.012407z"/><path d="m222.348361 187.965261 2.790983-.010397-.082783-1.850646-2.672722.010397z"/><path d="m227 183.324835.063721 1.619886.025489.852572.089209 2.167968 3.542892-.01218-.229395-2.169186-.08921-.851354-.178419-1.619886z"/><path d="m227 180.533417.054941 1.848717 2.736043-.012325-.164822-1.848717z"/><path d="m227 177.743407.046711 1.847164 2.744273-.013878-.151811-1.847164z"/><path d="m225.139344 174.952974.049398 1.846033 2.741586-.015008-.148194-1.846034z"/><path d="m225.139344 173.128102.03931.837469 2.751674-.009305-.117929-.837469z"/><path d="m225.139344 171.294975.041246.781638 2.749738-.009305-.123738-.781638z"/><path d="m225.139344 168.503412.043609.781638 2.747375-.009306-.116291-.781637z"/><path d="m225.139344 167.624069.030503.679281 1.830153-.009305-.08134-.679281z"/><path d="m225.139344 165.763027.032266.679281 1.82839-.010236-.075287-.67835z"/><path d="m225.139344 163.787484.02189.741262.02189 1.104008 1.816876-.015771-.076615-1.104008-.054725-.741263z"/><path d="m228.860656 164.022953.06693.437345 1.793725-.009305c-.040158-.139579-.080316-.288462-.120474-.437345z"/><path d="m228.860656 165.763027.085688.679281 1.774967-.009306c-.048964-.223325-.097929-.44665-.159135-.67928z"/><path d="m228.860656 167.624069.09132.679281 1.769335-.009305c-.04566-.223325-.09132-.44665-.148395-.679281z"/><path d="m229.790984 168.503412.084575.781638 1.77608-.009306c-.052859-.25124-.105719-.511786-.158578-.781637z"/><path d="m229.790984 173.128102.12435.837469 2.666633-.009305c-.0829-.269852-.151984-.549008-.234885-.837469z"/><path d="m229.790984 174.937965.152235 1.861042h2.638748c-.088804-.605217-.177608-1.210433-.266412-1.861042z"/><path d="m229.790984 177.729529.164175 1.861042 2.626808-.013993c-.093814-.587698-.187629-1.203381-.281444-1.847049z"/><path d="m230.721311 180.533417.162898 1.848717 2.628086-.012325c-.086879-.579265-.184618-1.195504-.293216-1.848717z"/><path d="m230.721311 164.013648c.032644.148883.081608.297766.130573.44665h1.730083l-.195858-.44665z"/><path d="m231.651639 165.758375c.071018.223325.127832.44665.184646.67928l1.67601-.009305-.269866-.669975z"/><path d="m231.651639 167.624069c.052785.223326.118766.455956.17155.679281l1.689106-.009305-.23753-.679281z"/><path d="m232.581967 168.503412c.071564.260546.1312.521092.178909.781638l1.681747-.009306-.2624-.781637z"/><path d="m232.581967 170.364454.168132.781638 1.692524-.009305-.235384-.781638z"/><path d="m233.512295 173.132754c.062022.279157.113707.558313.165392.828164h1.695264l-.237751-.837469z"/><path d="m233.512295 174.937965c.111084.620348.208282 1.240695.305481 1.861042h2.485503l-.444336-1.861042z"/><path d="m233.512295 177.729529c.102421.629675.217646 1.245359.320067 1.861042l2.470917-.013993-.435291-1.847049z"/><path d="m234.442623 180.533417c.105987.628564.211973 1.244803.31796 1.848717l2.473024-.012325-.4475-1.848717z"/><path d="m234.442623 183.326441c.100879.634132.190549 1.25448.291428 1.847256l2.499556-.013785-.381099-1.847257z"/><path d="m230.721311 183.324803.152851 1.627804.082303.850346.211639 2.162308 3.315671-.012148h.834796l2.845363-.012148-.540854-2.162308-2.680755.012148h-.858312c-.047031-.267251-.094061-.558798-.15285-.850345-.094062-.510208-.188123-1.044711-.293942-1.627805z"/><path d="m233.512295 164.013648.203265.44665h1.657391l-.218901-.44665z"/><path d="m233.512295 165.757909.253726.680211h1.60693l-.310109-.680211z"/><path d="m234.442623 167.619417.254334.67928h1.606322l-.294493-.67928z"/><path d="m234.442623 169.366558.267629.98443.229395.820359.280373.983259.229396.82153.293117 1.054747.229396.808639.395071 1.441488.229396.820358.433303 1.558682h2.064563l-.509768-1.558682-.280373-.820358-.471536-1.441488-.267629-.820358-.356838-1.054747-.267628-.820359-.33135-.98443-.267629-.820359-.318605-.98443z"/><path d="m237.233607 180.532191.502641 1.849943 2.288342-.0111-.608461-1.849942z"/><path d="m238.163934 183.326441.450159 1.847256 2.340825-.013785-.527329-1.847257z"/><path d="m229.790984 171.294975.088602.781638 1.772053-.009305-.147671-.781638z"/></g><path d="m327.47541 80.0248139c-2.739493 2.8386546-5.114765 5.1794052-7.154048 7.1104636-7.545349 7.130052-10.518417 8.6002067-10.518417 8.6002067-.140016.4244155 3.685085 6.3422908 1.474214 14.9965258 8.620113-8.193304 14.310071-18.9798171 16.198251-30.7071961" fill="#efb690"/><path d="m241.87562 165.319451c.400438.070353.795138.16735 1.181165.290269.35562.085734.855519-.006854 1.169862.106777-.354927-.075423-.726093-.040291-1.058223.100163-.780553.132834-1.572062.199513-2.365125.199245-.784141.067457-3.429951 1.002596-2.654446 2.139746.703365 1.030733 2.376809.757538 3.25392.619137 1.63839-.260809 3.383212.642465 5.011442 1.091096 4.253211 1.161319 8.298766-.338367 12.216933-1.271342l-2.970695-5.084767-13.469983-3.460147c-1.281628.401615-2.569606.803111-3.854409 1.207733-1.751964.508913-3.404888 1.284098-4.894088 2.295221-.55079.477344-.96054 1.082451-1.188786 1.755566-.415567.834855-.844089 1.666825-1.288867 2.483524-.346348.644749-1.818995 2.428933-.845994 3.268718.530381.454283 1.486871-.195276 1.780638-.564546.926009-1.159876 1.646265-3.311766 2.911763-4.073874 2.178775-1.04775 4.646258-1.432606 7.064893-1.101918" fill="#efb690"/><path d="m312.590164 109.801489-2.632019 1.367252c-3.171779 1.644841-5.634336 4.389343-6.926009 7.718988l-13.766141 35.490254-37.147143 6.63182 1.610922 10.206078 36.732342-.459521c3.472277-.398349 6.541437-2.440062 8.249122-5.487605l12.207148-14.140085z" fill="#d0d0d0"/><path d="m302.194809 94.535725c-.678942.235436-.755229 1.2171167-.436803 1.86371.318552.6498896.889389 1.1594304 1.143553 1.8348034.160391.7473179.26727 1.5053795.319804 2.2682746.520686 1.621935 1.993105 2.737047 3.677433 2.785328 1.644698.012106 3.267997-.377962 4.731671-1.137276 5.719769-2.4986392 11.225583-6.1814315 14.267792-11.6819116 2.754599-4.9814306 3.206809-10.9056194 3.351616-16.6131362.272983-3.5107165-.103839-7.0421619-1.111109-10.4129407-.345061-.9629039-.793129-1.8847285-1.336212-2.7490356-4.973058-7.9558863-14.538492-8.0516075-22.066725-4.4153445-7.398996 3.81414-11.050339 12.4329222-8.679303 20.4869905.288112.9116965.830514 1.7347717 1.062882 2.6645981.496679 1.999241-.484404 3.9623489-1.197543 5.7772474-.473254 1.1870692-1.932478 4.5641877-.134661 5.2664387.948765.3705867 1.885629-.1901745 2.79744.5465615.769097.7055171 1.255058 1.6726046 1.365399 2.7172131.004796.1636841.047991.3238662.126017.4673221.207566.3106183 1.761741.3784472 2.118874.3317911" fill="#fac39d"/><path d="m338.489659 108.211608c-.98808-.988105-1.953796-1.996131-2.855577-3.069536-1.90637-2.220993-3.407944-4.766025-4.434988-7.5169023-1.850201-5.349594-2.663023-11.0093932-2.394009-16.6698347-.035126.0392024-.070126.0752124-.108411.1112225-1.858369 11.6963191-7.459215 22.4545665-15.944731 30.6270415-.096407.364442-.192941.732076-.30868 1.109671-2.851533 5.137558-5.417256 9.107217-1.784104 11.410455 2.916226 1.855027 13.695396-2.194442 17.838256-3.865971 1.02447-.414498 1.642589-.679466 1.642589-.679466.745482-.327666 1.645873-3.351486 2.031376-4.111783.513927-1.225001 1.237455-2.348882 2.137386-3.320074.65186-.572633 1.461716-.929608 2.320472-1.022838.872594-.153234 2.828411.177241 3.512612-.276716 1.16927-.776131-.828623-1.901891-1.651433-2.726035" fill="#fac39d"/><path d="m308.196723 117.245658s5.08458 5.034016 18.348359.283114c-.974439 27.284169-2.68481 39.824114-2.68481 39.824114l-15.872638 5.488305-5.631077-17.671958z" fill="#dadada"/><path d="m299.565574 147.289615c.015425 1.793515 12.47137 31.703959 15.928409 39.980951.244637.575381.439938 1.051165.585522 1.398297.195046.459671-1.827828 1.563744-1.827828 1.563744s6.131087 3.322494 6.173156 3.31578c1.049426-.076136 10.472846-5.248986 36.633289-8.11016.058259-.006851.123019-.013956.18778-.020935-.123275-.386082-.240175-.797921-.350701-1.229298-.354781-1.325979-.672337-2.849122-.95611-4.520836-3.068731-17.925129-2.600619-53.398567-2.600619-53.398567l-3.628629-3.666708-20.721324-1.294133s-14.845456 20.907597-20.55254 22.868208c.04779-.901082.027122-1.80447-.061828-2.702453-.017847-.961041-.029236-1.923267-.034165-2.886677-.009944-1.948303.005864-3.899906.063741-5.845545.086393-3.614556.356574-7.222443.809506-10.809812.231379-1.763572.521144-3.517121.885613-5.258871.132201-.842159.316766-1.675345.552631-2.494758.158077-.456118.397742-.877472.575324-1.327374.162028-.391665.343434-.783457.489145-1.187937-.061107.016791-.115986.050911-.157949.098202-.300695.267805-.552459.58547-.744109.93888-.238062.397817-.450945.810034-.637406 1.234247-.396722.99699-.777636 2.003241-1.170661 3.000104-.682153 1.731473-1.289474 3.491366-1.867602 5.260648-1.149881 3.535265-2.150227 7.111257-3.293607 10.649694-1.026225 3.192447-2.046075 6.37817-3.007412 9.586096-.645066 1.554314-1.072927 3.189324-1.271626 4.85934" fill="#da9b00"/><path d="m315.381148 187.592273c.244945.538183.445026.97772.592122 1.303509l41.272632-4.170354c-.355429-1.233182-.679788-2.646663-.966245-4.204336-7.63662 1.08781-32.937402 5.977825-40.898509 7.071181" fill="#2f2722"/><path d="m294.913934 65.6383614c1.001097-4.640696 2.606317-6.0405323 5.247543-8.6000713 4.961898-4.9571847 12.238626-6.9628889 19.113243-5.2682348 1.4702.4021073 3.160385 1.3974487 4.719657 1.1499014 1.265103-.2046978 2.394161-1.1896095 3.762326-1.4132817 3.145688-.5195976 6.371268.2488449 8.921438 2.1253887 2.75738 2.0915866 5.886705 8.2465938 4.343476 11.6720459-.191546.3756077-.426409.7284955-.699998 1.0517621-.751849.9537484-1.684537 2.0042539-2.917041 2.0006098-.180046-.0231606-.363086-.0075941-.536357.0456141-.362191.1546857-.402107.6331934-.404802 1.0178343-.044279 4.7907323-2.835285 11.0598374-5.326347 15.0944822-.528143.8596302-2.639814 4.7186043-3.709191 4.8156127-1.400851-2.404267-2.800546-4.8074449-4.199086-7.2095338.938696-1.9788726 1.347813-4.1590091 1.188866-6.3353272-.34756-2.1468763-2.250927-4.2165984-4.45873-3.9647786-1.581291.2974952-2.875549 1.4072693-3.385246 2.9027125-.173292.4513998-.303561.9175265-.389145 1.3924225 0 0-18.841406-1.3993337-21.270606-10.4771588z" fill="#202c2b"/><path d="m263.119614 343.517772-.767155-129.401187 11.318681-.096734.767155 129.451332c0 .018153.008426.034783.008426.05281 0 1.966292-2.535762 3.560374-5.663868 3.560374-3.095407 0-5.601867-1.562345-5.65431-3.500201h-.0083v-.053572l-.001132-.006728z" fill="#a8aab3"/><path d="m116.127811 343.517772-.767155-129.401187 11.318681-.096734.767155 129.451332c0 .018153.008426.034783.008426.05281 0 1.966292-2.535888 3.560374-5.663994 3.560374-3.095408 0-5.601741-1.562345-5.654184-3.500201h-.0083v-.053572l-.001006-.006728z" fill="#a8aab3"/><path d="m292.991162 200.062035.062117 7.601399c.029046 3.627689-2.78765 6.593226-6.291829 6.624068l-182.616708 1.593157c-3.504163.030304-6.3687024-2.885687-6.3984249-6.513351l-.0618909-7.601398z" fill="#d5dbd9"/><path d="m152.656374 113.821698-.023763 3.497985-.058337 10.219877c-.066509 9.47978 6.462343 14.174484 13.171361 11.103127l2.193299-1.007737c5.15881-2.351857 8.754337-9.23351 8.7825-15.704112l.040861-9.337786-2.18915.113802-2.539675.128735-2.278542.111098-6.188762.321837-.167468.016478-2.445883.113673-4.034438.203659zm14.307677 4.245806c1.16385-.153452 2.072476.956629 2.064555 2.468749-.002758 1.017516-.416187 1.988602-1.142351 2.683221l-.034072 6.894655-1.936188.643675.036335-7.115178c-.831479-.456743-1.317297-1.376747-1.235263-2.339242-.085231-1.484679.849276-2.830323 2.246858-3.235365z" fill="#fff"/><path d="m154.434426 115.384615 4.042204-.283437.01668-5.553132c.016551-5.459588 3.74907-9.352931 7.819979-8.752237 3.606187.532163 6.241165 4.485997 6.230432 8.865689l-.010732 4.453838 2.358653-.165903.009997-4.269686c.013924-6.031695-3.525412-11.6754348-8.577359-12.7284037-6.014364-1.2537106-11.844338 4.2738977-11.870975 12.5633947z" fill="#fff"/><path d="m271.054212 174.937965-10.658675.902448-9.072862.998479c-.873098.097268-1.701459.460356-2.386113 1.045884-2.533197 2.164571-5.321053 3.787592-7.600357 6.305318-1.515712 1.676266-2.144837 2.646221.49211 3.374129 1.647382.489899 3.408536-.140487 4.444407-1.59083-.425195.556899-.997219 1.290376-.786534 2.064601.411685 1.53025 1.797136.631469 2.600112.207139 1.733408-.90933 3.465839-1.820018 5.197293-2.732064 1.052616-.552754 2.249742-.709771 3.396715-.445519l8.2226 1.886529c.998481.229125 2.035997.1737 3.007973-.160686l6.53584-2.246748z" fill="#fad2bc"/><path d="m342.009266 109.409135c-6.525494-2.386542-12.180972 3.714435-13.952798 7.523664-2.344785 5.048944-2.565455 11.735359-4.580247 16.927449-2.378734 6.133678-5.659532 11.861582-7.442252 18.229003-.514303 2.450426-1.240812 4.85102-2.171238 7.174386-1.666558 3.508049-4.509688 3.496724-8.155695 4.542522-9.549392 2.743709-34.576008 10.756871-34.981626 10.893402l2.767378 11.404657c.660492-.119607 1.285767-.221782 1.830604-.267207 4.720816-.409548 9.44028-.819308 14.158394-1.22928 8.004316-.696266 15.480645-2.84652 23.547793-3.464405 3.997408-.306398 9.53647-.107138 13.052634-2.360967 2.565075-1.645996 3.798398-5.2608 5.485858-7.744173 3.108476-4.592826 6.220034-9.183912 9.334674-13.773259 1.48313-2.194407 2.96947-4.389451 4.459018-6.585131.999859-1.471039 2.914703-5.847129 4.465731-6.584112.273773-.101324.521488-.262928.724971-.472957 7.260218-13.720072-.021282-31.174173-8.543579-34.212447" fill="#e7e7e7"/><path d="m54.8893443 151.674938h-44.6557377v-4.652605h43.8876498z" fill="#3b1b1d"/><path d="m54.9148913 346.677117 11.3582372-.000246-.000046 2.121562-11.3582372.000247z" fill="#1a1a1a" transform="matrix(.99976552 -.02165435 .02165435 .99976552 -7.515828 1.393662)"/><path d="m54.6024885 331.445717c-1.4043625 2.505628-2.2555844 5.284937-2.4959796 8.14958-.1302317 2.274484 1.3222244 7.033539 2.8103851 7.001189 4.6814256-.13934 9.3669429.020331 14.0281655.478045 4.4920954.508076 6.2218398 3.056189 17.6745254 2.780626 3.3421004-.080554 9.2343795-.409734 9.2041856-1.784065-.1285501-5.951913-11.0698129-3.598936-14.6261407-6.748311-8.9957497-7.966817-14.9144861-9.811073-14.9144861-9.811073s-11.381148-.506916-11.6806552-.065991z" fill="#55210e"/><path d="m20.4672131 348.014888-9.0928824-.124962-.2103963-1.714881 9.2609644-.021199z" fill="#1a1a1a"/><path d="m10.1203647 331.407947c-1.01494031 2.659169-1.60391118 5.475557-1.74316936 8.335625-.08018503 2.33769.98932872 7.263968 2.05656236 7.260651 3.3702338-.04821 6.7380813.21083 10.0654379.774188 3.2252623.613248 3.7688231 1.216809 11.9824049 1.163737 2.3968103-.015656 6.6211552-.235772 6.59217-1.65054-.1268245-6.127032-3.7065224-4.137362-6.2758635-7.449587-6.4984076-8.378879-14.2983968-8.131165-14.2983968-8.131165s-8.1665855-.750571-8.3791455-.302909z" fill="#55210e"/><path d="m28.8401639 155.659961c-.1896559 1.632311-.2045738 3.281403-.0444811 4.917122-.8725345-.084791-1.7517957.053598-2.5608902.403066-.1880496-1.854348-.2333044-3.72131-.1353339-5.583127" fill="#2a2d41"/><path d="m43.1600493 151.674938c5.5310462 28.609631-5.9856665 90.222349-6.9781456 103.669361-.4592515 6.223556-5.4284061 49.940085-7.4565482 67.68947-.5257173 4.605141-1.5305883 12.884345-1.5305883 12.884345h-5.470088c-9.3976966 0-11.8631854-3.470521-11.8631854-3.470521s1.7377459-74.845502 2.0332741-81.836666c.3109242-7.352961-.3181841-51.470086-1.7498875-60.211204-.76942472-4.697117-7.77410647-15.074841 0-38.601133z" fill="#4a4a49"/><path d="m21.1768144 155.2688 20.4556931-2.663341c3.747906 30.694708-2.6824893 90.054109-3.6298677 102.571544-.0149789.198295-.0358468.444038-.0600433.716297-2.6406254-17.872155-7.4074754-56.365188-7.8222735-57.827976-3.6757004-3.226381-14.7173962-15.431087-8.9435086-42.796524z" fill="#3c3c3b"/><path d="m18.1364232 151.164996c-3.4402051 31.882812 13.4177995 39.662452 17.0509618 42.900902.5187701 1.859056 11.0923175 55.90831 12.4065773 62.786053 1.3142599 6.877743 6.1999357 76.551472 6.1999357 76.551472s1.5606123 2.514691 11.0603056 2.514691c5.1720116 0 6.8981243-2.62458 6.8981243-2.62458s1.7435737-75.460995 1.7435737-83.328749c0-13.303838-12.8539849-72.546606-18.444935-99.220368z" fill="#4a4a49"/><path d="m13.954918 53.1530982c1.4194502-1.0574376 3.6702148-24.3069444 3.6702148-24.3069444l18.7967964 7.9959575s.6601652 20.3169708.7911856 21.7807175z" fill="#744135"/><path d="m44.7120697 6.40195576c-5.1361438-4.94261926-20.3789015-9.59967585-27.9865789.62707758-7.60767738 10.22675346-4.4372461 20.44899456-.4518952 26.80008886 3.108335 4.9533198 6.1467801 7.7085161 12.2021756 10.5838679 1.2351383.5862093 12.459737 2.7100736 14.7169503 1.9512375 1.5441113-.5183962 2.8534132-11.9935032 3.3006575-11.942579.8518622-.0817645 1.5627176-.7016402 1.778418-1.5508051.1108684-1.3570351-1.2294817-9.6304883-.8957455-10.4985214.3337363-.8680332 3.2215916-10.3072009-2.6639818-15.97036634z" fill="#815245"/><path d="m47.4467213 11.4272146s-8.4241861-4.8909563-19.0917939 4.6449285c-2.2963062 2.0528954 1.8925177 10.9401162 1.3141482 11.7186629-.6204283.8351205-8.3007475-6.5650689-8.0111895-5.5574792 2.9443588 10.2657255-.4582906 15.8642925-1.3901773 15.9167451-2.8257732.1589814-11.35883904-14.3763867-6.9148009-26.001509 4.4440381-11.62512235 16.9240281-12.65431753 19.9006153-11.9955377s11.9750365 1.42371375 14.1931981 11.2741894z" fill="#36180e"/><path d="m26.1649692 25.2187073c.946401 3.2843505 1.3554492 7.7033131-.3893468 8.2091191-1.7447961.5058061-3.9262221-1.7476038-4.8726231-5.0322053s-.3004448-6.3575929 1.4448438-6.8630224 2.8701095.4010051 3.8171261 3.6861086z" fill="#815245"/><path d="m87.6421565 91.1780974c1.9385724-.7653476 3.7071081-1.9080736 5.203735-3.3623542 1.4969856-1.8689455.9124268-2.3927975 1.411422-3.0158215.7922213-.6062 1.6785258-1.0772937 2.6233215-1.3943631 0 0 5.41777-.4952275 2.9510632-4.3112658l-2.1243264.7715923-1.6253311.1484416c-1.4595242.1637978-2.9353768.1040086-4.3769981-.1773193-1.6253311.1485683-3.2938226-.2763648-4.2908034.9695567-1.1471693 1.1177437-2.1526978 2.3731289-2.993845 3.7377644-1.0407723.6725469-9.9941647 4.9549349-9.9941647 4.9549349l4.97607 8.2054512s6.5013244-.594273 10.1654182-2.6611829c3.334834-1.3160181 6.0634066-3.8288048 7.6559292-7.0504692.5529928-1.4976479.804899-3.0904024.7411732-4.6862961 0 0-3.86349 6.7039366-6.4866853 8.0984263-2.5815492 1.9676111-3.8359783-.2270953-3.8359783-.2270953z" fill="#815245"/><path d="m85.4837252 95.8436725 6.6868045-2.423606 6.4172137-6.0263889.9573386-2.5055687-.2244383-3.0022528-8.3920059 2.5790435c.5232921-.6522543-9.0801509 8.6875278-5.4449126 11.3787729z" fill="#744135"/><path d="m91.1721311 92.9111456 1.1953065 1.0714847c.5538533-.0506346 2.0840778-1.9615395 5.1009203-6.3694673l1.5303535-1.9107755c1.4889116-2.6314202 3.1644256-5.151952 5.0135786-7.5420916l1.020107-1.2738934c1.091677-1.9918456 2.055517-4.051637 2.885636-6.1667995-1.712167 1.353683-3.280005 2.8817847-4.678403 4.5598315l-1.020235 1.2738935c-1.486489 2.4970228-3.5269607 5.0448097-5.0134497 7.5419621l-1.5303535 1.9107754c-3.6144313 3.872315-4.0370783 5.6822097-4.5034607 6.9050801z" fill="#425b6c"/><path d="m104.244649 76.0034974c.4412-.5510755.403373-1.0582353.8824-1.102039l-1.551007-1.3902921-.8824 1.102039-.882401 1.102039c.037827.5072718-.4412.5509635-.403373 1.0582352l1.551007 1.3902922c-.037827-.5072718.4412-.5510755.403262-1.0582353z" fill="#4db8a4"/><path d="m93.8528103 87.4689826c-.0256215.5685991.1845311 1.1207295.5754684 1.5119177.178758.228079.4522867.3483276.7312117.3214551.2789249-.0268725.5274161-.1974142.6642801-.4559013-.4284319.5638029-.8568638 1.1274911-.8201318 1.6464785-.4651639.0448154-.4651639.0448154-.8935959.6085036l-.9303278.0896308-.0734641-1.0378603-.073464-1.0378602c.3455247-.5050344.6216133-1.0593384.8200234-1.6463639z" fill="#4db8a4"/><ellipse cx="95.667922" cy="86.745756" fill="#4db8a4" rx="5.125235" ry="1" transform="matrix(.55837656 -.82958762 .82958762 .55837656 -29.714008 117.673883)"/><path d="m91.9364456 90.988632c-.8744208.7384082-1.0193121 2.057679-.3270551 2.9779182 1.2075881 1.6551892 4.4054325.7665595 4.9028078.1304755.389213-.5773001.7088746-1.2009987.951982-1.8574327 0 0 2.1174303-.7877666 2.0321444-1.9586837l-.0852859-1.170917c.8684192-.4053812 1.5826172-1.0937583 2.0320182-1.9585544.199786-.8403085-.074549-1.724894-.71059-2.2912732l-.042643-.5853939s2.700092-.2528043 2.572163-2.0092445c.015843-.9265672-.464567-1.7872304-1.250734-2.2407124 0 0-4.1068062 3.3317148-2.3588224 4.9364725l.042643.5853939c-.8150466.4769661-1.7224354.7631699-2.6574487.8381981l-2.1600732.2022435c-.5400183.0505608-2.0746616 1.3731604-.3693207 2.3922656 1.7053408 1.0191052 1.1653225 1.0697954 1.1653225 1.0697954s-1.0373937.6866449-1.6200549.1516825c-.2075554-.2572612-.5250835-.3928833-.8488698-.3625678-.3237864.0303155-.6122557.2226759-.7711852.5142504-.5822839-.534833-.496998.636084-.496998.636084z" fill="#815245"/><path d="m100.046142 79.0942928-2.0272259.6911956-1.5510389.1331099-2.0680518.1774799-4.1580221 4.5813412c.4761866-.5580857 6.9881653-1.7205562 6.9881653-1.7205562s4.6531164-.3992163 2.8161734-3.8625704z" fill="#815245"/><path d="m44.3497538 75.6879222c.5431572-2.169847.3596014-4.4600932-.5220471-6.5136364-1.443277-3.9984334-2.3724378-2.485856-3.3530857-7.4912346-.3565635-2.492753-.3765516-5.0227888-.0594179-7.5209626l-10.8537202-3.9139496-21.9999983 14.7385459s-.77847581 20.5651323 1.64909979 30.070257c2.42392491 9.0038121 9.55709981 18.4666311 9.55709981 18.4666311z" fill="#bacfed"/><path d="m40.0040984 55.0755012s-.9645229-.5085134-.948334 1.5604021c-.4640811 2.0732404-2.3364658 8.297549-2.3283713 9.3314825.0080944 1.0339335.4882359 1.0301328.4882359 1.0301328s-10.1373191-6.632561-14.951839-8.1406701c-3.8911808-1.8548743-7.6061871-4.0722091-11.0977304-6.6237798-.0219982-1.5651346.1268449-3.1279048.4437807-4.6594504-.0041114-.5172944.952317-1.0432387 1.4325869-1.0475637 9.2683674 1.8286573 18.3104009 4.6958528 26.9616712 8.5494466z" fill="#e1f2fd"/><path d="m39.9824975 68.1077502s-8.5003831-3.4612753-15.0858503-2.8962423-14.5239435 8.7242015-15.38204145 19.3463606c-.85809794 10.6221591 5.34415935 21.1810535 22.79941285 26.0777065 16.9845211 4.90088 18.8989333 8.927188 18.8989333 8.927188l2.7460645 27.99654-43.4894713.393551s-10.83553285-62.8001128-10.46000481-74.9344908c.37552804-12.1343779 11.59666341-21.8397032 11.59666341-21.8397032s8.025621 2.9600199 14.160379 4.9263654 12.7840725 9.4883792 14.2159148 12.0027248z" fill="#f08100"/><path d="m24.83658 99.6275507c-4.2714603-7.7080075 13.6369704-10.0601426 22.5642156-10.8097342 8.5871924-.7205092 26.6393791-.2940988 28.55286-.2828326.0726566.0014323.1379778.0459348.1676729.1142334l3.8691981 8.3438897c.0187254.0307707.0228099.0686524.0110953.1029034-.0117146.0342509-.0379509.0611361-.0712693.0730319-1.7192195.6419082-14.3786494 7.6297997-37.4401588 10.7088627-2.478709.33091-13.3078583-.408332-17.6536138-8.2503543z" fill="#815245"/><path d="m39.871995 67.9468961s7.5570808 9.5134544 11.2960378 50.6270759l-11.1321307 3.324291s-27.5337358-16.990652-27.9754237-16.990652-6.47851119-20.6523859-6.47851119-20.6523859 4.85869339-15.0865746 4.12263136-18.0158365 9.71776673-7.6165598 9.71776673-7.6165598 13.1043361 4.1012439 12.5147012 3.5155679c-.589635-.585676 7.9349285 5.8084994 7.9349285 5.8084994z" fill="#f08100"/><path d="m74.4927958 176.693374c-.7124093.293639-1.5279427-.045897-1.8215767-.758387-.293634-.712491.0458168-1.52815.7581977-1.821858.7123809-.293707 1.5279471.04575 1.8216497.758212.1412039.342167.1406314.726435-.0015915 1.06818-.1422229.341744-.4144319.612936-.7566792.753853z" fill="#936037"/><path d="m58.6833231 160.790178 13.1880822.004677c.6815636.001117 1.23402.553574 1.2351381 1.235137l.009409 26.517068c.0011176.681906-.5514803 1.234896-1.2333862 1.235138-.000292 0-.0005839 0-.0008756-.000875l-13.1880822-.004677c-.6815636-.001118-1.23402-.553574-1.2351381-1.235137l-.009409-26.517069c-.0011176-.681905.5514802-1.234895 1.2333862-1.235137.0002919 0 .0005839 0 .0008756.000875z" fill="#1d1d1b" transform="matrix(.38304137 .92373119 -.92373119 .38304137 202.19352 47.840568)"/><path d="m72.84956 169.86154 2.1538291.000764c.3661465.000601.6629346.297389.6635353.663535l.0008676 2.44526c.0006004.36633-.2962637.663405-.6625942.663535-.0001568 0-.0003137 0-.0004704-.000471l-2.153829-.000763c-.3661466-.000601-.6629347-.297389-.6635354-.663535l-.0008676-2.44526c-.0006004-.36633.2962638-.663405.6625942-.663535.0001569 0 .0003137 0 .0004704.00047z" fill="#797979" transform="matrix(.38304137 .92373119 -.92373119 .38304137 204.258837 37.67251)"/><path d="m29.8356783 62.3598293c-7.7487247-.3612397-10.3917152 5.8875007-10.2963126 13.4596744.0954025 7.5721737 9.3965872 52.2584823 11.334931 53.7569533 1.9383439 1.498471 13.0898858.571952 14.3888188-2.71103 1.2989329-3.282982-1.6626946-43.3121863-2.8322873-49.5179373-1.1695927-6.2057509-3.5161942-14.5645673-12.5951499-14.9876604z" fill="#815245"/><path d="m32.182045 117.109723c-7.9140985 3.196066.1491569 18.82882 4.4749623 26.266963 4.3258054 7.438142 19.140957 27.839195 19.140957 27.839195l8.3946587-4.153637c-3.9941047-14.971077-9.4897334-29.508274-16.4047165-43.394233-1.1110409-2.167718-7.5529147-9.810748-15.6058615-6.558288z" fill="#815245"/><path d="m61.2819576 187.903501.0067017-.001987c.76687-.239943 1.206699-1.080894.9866039-1.886381l-1.7355203-6.256797c-.1085726-.388667-.3602121-.716266-.6995559-.910724-.3393437-.194458-.7385918-.239843-1.1099067-.126172l-.0068134.001988c-.7666822.23989-1.2064414 1.080593-.9864921 1.885913l1.7354086 6.257615c.2263918.809146 1.0364342 1.273148 1.8095742 1.036545z" fill="#815245"/><path d="m64.0727466 186.973269.006814-.001987c.7670103-.239634 1.2069418-1.080686.9865774-1.886118l-1.7356703-6.257439c-.2261577-.808983-1.0359792-1.272988-1.8089487-1.036477l-.0071491.001871c-.7668494.23989-1.2065741 1.080885-.9862423 1.886235l1.7352235 6.257673c.1086484.388556.3603206.716021.6996495.910355.339329.194334.7385176.239617 1.109746.125887z" fill="#815245"/><path d="m66.8638534 186.042671.0068134-.002455c.7667678-.239788 1.2066086-1.080559.9866033-1.885927l-1.7355193-6.257197c-.1085398-.388677-.3601912-.716275-.6995585-.910682-.3393673-.194408-.7386315-.239687-1.1099029-.125871l-.0068134.002338c-.7667186.239628-1.2065521 1.080325-.9864915 1.885577l1.7355192 6.257197c.2264083.809047 1.0361766 1.273162 1.8093497 1.03702z" fill="#815245"/><path d="m70.5850906 185.112092.0068137-.002338c.7669746-.239623 1.2068855-1.080635.9865314-1.88603l-1.7354777-6.257146c-.2263018-.808874-1.036029-1.272795-1.8089762-1.036428l-.0071488.002221c-.7667647.239679-1.2066071 1.080404-.9865314 1.885679l1.7355894 6.257147c.226261.809049 1.0360702 1.27317 1.8091996 1.036895z" fill="#815245"/><path d="m61.3829458 161.91067s7.6039492 9.157071 8.5140279 11.302962c.9100788 2.14589 1.7382722 11.244273 1.7382722 11.244273s-3.6435137-1.808692-5.525469-.95005c-1.8819554.858642-6.5400796 3.526884-6.5400796 3.526884s-4.041937-6.794735-4.8409587-10.397966c-.4974884-2.413498-.7553513-4.87152-.7697222-7.337213z" fill="#815245"/><path d="m33.5145615 58.489612c2.9091435 1.6812308 9.0579096 6.6820573 9.8775278 13.0540923 1.1608753 9.0287201 5.9152877 32.4750507 5.9152877 32.4750507-3.9546143 2.825963-8.5133075 4.678788-13.3093973 5.40944-9.1760901 1.363014-15.1202023-1.445089-15.1202023-1.445089s-6.3591849-35.4485661-4.822714-42.7045238c1.2333124-5.821963 9.389642-11.4532983 17.4594981-6.7889702z" fill="#ed6b06"/></g></g></svg>