<svg height="400" viewBox="0 0 1200 400" width="1200" xmlns="http://www.w3.org/2000/svg"><g fill="none" fill-rule="evenodd"><path d="m0 144h1201v-144h-1201z" fill="#dedfde" transform="translate(0 295)"/><path d="m372 11h458v378h-458z" opacity=".011091" stroke="#fefefe"/><g fill-rule="nonzero" transform="translate(399.217213 21.317618)"><g transform="translate(299.389344 11.255583)"><path d="m8.78749512 37.5186104 8.71487118-7.9302009 6.7782332-10.5322981c-1.5735184-.7434563-3.5101565-.4956375-4.8415951.8673657l-3.5101565 3.4694629h-.1210399l-3.2680767-1.9825502s0 0-.1210398-.1239094l-5.08367491-20.07332103c-.12103988-.61954695-.60519939-.99127511-1.21039878-1.1151845-1.0893589-.24781878-2.05767792.74345633-1.81559816 1.85864083l2.17871779 9.7888418-.96831902-2.23036905c-.48415951-1.1151845-1.93663804-1.48691267-2.78391718-.61954695-.48415951.49563756-.72623927 1.2390939-.48415951 1.8586408l.60519938 1.8586409v.1239094l-.60519938.4956375c-.96831903.7434564-1.33143866 2.1064596-.84727915 3.3455535l.36311963.9912752c-1.08935889.6195469-1.69455828 2.1064596-1.21039877 3.3455535l.36311963.9912751c-1.33143865 4.3368286-.84727914 9.0453854 1.0893589 13.0104858l.60519939 1.2390939s.12103988.1239094.12103988.1239094l6.05199388.9912751z" fill="#815245"/><path d="m12.4186915 2.20443448c-.1210399 0-.1210399 0-.2420798 0h-.1210399c-.968319-.12390939-1.8155981.49563756-2.29975766 1.73473145l-7.26239266 20.44504927c-.60519939 1.7347314 0 3.9651004 1.33143866 4.9563755l5.930954 4.460738c1.21039876.8673658 2.29975766.7434564 2.66287736.619547.1210398 0 .1210398-.1239094.1210398-.1239094v-2.4781878l7.1413528-19.9494117c.6051994-1.7347314 0-3.96510041-1.3314386-4.95637552l-4.7205553-3.59337229v-.99127512.12390939z" fill="#000"/><path d="m14.839489 2.70007204 5.930954 4.46073801c1.3314387.99127512 2.0576779 3.22164415 1.3314387 4.95637555l-7.2623927 20.4450493c-.6051994 1.7347314-2.1787178 2.230369-3.6311963 1.2390938l-5.93095403-4.460738c-1.33143866-.9912751-2.05767792-3.2216441-1.33143866-4.9563755l7.26239269-20.44504927c.7262392-1.73473145 2.2997577-2.230369 3.6311963-1.23909389z" fill="#3d3d3b"/><path d="m5.15629879 24.6320339 9.19903071 6.9389258c.1210399 0 .2420798 0 .2420798-.1239094l6.7782331-19.3298647c0-.1239094 0-.1239094 0-.1239094l-8.9569509-6.69110699c-.1210399 0-.2420798 0-.2420798.12390939l-7.02031291 19.0820459z" fill="#fff"/><path d="m6.60877732 12.1171856.84727915 2.4781878c.60519938 1.6108221.12103987 3.4694629-1.21039878 4.5846474l.48415951 1.2390939c.24207976.619547.12103988 1.2390939-.36311963 1.7347315-.72623927.7434563-1.81559817.4956375-2.29975768-.2478188l-2.42079755-3.9651005v-.1239094l4.59951535-5.5759225c.24207975-.2478188.36311963-.2478188.36311963-.1239094z" fill="#815245"/></g><path d="m384.992282 342.214269s-5.563532 9.503199-4.821728 11.668485c.494536 1.202936 4.327192 5.052334 10.014357 4.330572 4.203557-.481175 10.385259-5.533509 11.374331-5.89439 2.472681-.721762-.123634-13.713477-.123634-13.713477z" fill="#55210e"/><path d="m353.821558 63.423794c4.485713 6.5653319.373809 12.1396702-6.354761 16.1036442s-45.480151 16.9707635-47.847611 16.1036442-7.47619-11.1486767-5.357936-13.997783c2.242857-2.8491063 33.518249-18.9527505 39.623803-21.3063601 5.980952-2.2297353 14.703172-4.5833449 19.936505 3.0968547z" fill="#815245"/><path d="m349.22449 59.3395623c-2.952836-1.1275726-10.270736-2.8815743-21.568545 2.6310027-7.574667 3.6332894-21.696929 11.15044-21.696929 11.15044s0 6.2642921 3.723142 12.5285842c4.236678 7.3918647 9.757199 10.0228674 9.757199 10.0228674s30.041901-14.7837294 33.893427-20.2963065c1.155458-1.7540018 3.97991-12.9044417-4.108294-16.0365878z" fill="#ed6b06"/><path d="m368.932521 29.0769231s.504003 23.0016237 1.890009 24.1267031c4.15802 3.5002471 19.27809 6.7504765 22.050104 12.8759089 3.276015 7.3755207-16.254077 39.8778149-19.02609 50.7535829-2.646012 10.875768 2.14201 27.751959 3.528017 38.502718 1.386006 10.750759-32.634153 23.001623-33.894159 22.877564-1.260006 0-11.970056-10.376682-13.860065-13.876929-2.01601-3.500247.630003-30.752171.756003-37.752665.126001-7.000494-1.008004-31.3772148-1.260006-33.0023295-1.890009-10.7507589 1.008005-19.1263501 1.512007-21.376509.504003-2.2501588.378002-6.0004236 1.638008-7.5005294 2.268011-2.875203 14.99407-6.3754501 15.246072-7.7505472.252001-1.375097 2.394011-21.376509 2.394011-21.376509z" fill="#815245"/><path d="m369.049693 53.4640199-20.471847 11.6366727-2.746223-7.8829073s-13.356632 3.8788909-15.104229 6.7567777-2.746223 10.1351666-3.370365 12.3874259c-.624142 2.2522592-1.123455 13.0130534-.374485 22.2723415.374485 5.3803966.124828 12.6376766.74897 21.7718396.499313 7.882907-.74897 27.527613-.74897 27.527613s7.4897.500502 19.223564.125125c13.48146-.375376 27.212577-2.252259 27.836719-2.627635 2.621395-2.127134-.499313-23.148221 0-25.40048s17.850452-42.1672979 18.224937-47.4225695-2.24691-8.758786-6.241417-10.8859197c-3.994506-2.1271338-16.976654-8.2582839-16.976654-8.2582839z" fill="#f08100"/><path d="m385.924259 60.0297767s13.207424 7.4872665-.253988 17.3455008c-5.841746 4.2427844-33.399543 10.4821732-38.606316 11.8548387-18.541191 5.1162988 9.016607 45.9219018 11.175513 48.9168078 2.158905 3.119695 2.031911 7.237691 2.031911 7.237691l17.779224-1.622241c5.460762 1.12309-2.412895-24.957555-.126994-30.448217 2.158905-5.61545 16.25529-37.311545 16.25529-41.5543294.126995-9.3590832-8.25464-11.7300509-8.25464-11.7300509z" fill="#f08100"/><path d="m349.131148 44.4789082 19.47298-6.9602978.236036 12.2754343-6.018921 3.6699752z" fill="#744135"/><path d="m345.831913 5.23922728c5.398584-4.45681828 20.841045-7.89493524 27.746211 2.67409097 6.779617 10.56902625 3.013163 20.37402645-1.381033 26.35889675-3.389809 4.5841559-6.654069 7.1309092-12.805944 9.5503248-1.255484.5093507-12.554846 1.7827274-14.68917.8913637-1.506581-.6366883-2.008775-11.9697405-2.385421-11.9697405-.502194 0-1.63213-.764026-1.63213-1.6553897 0-1.4007143 1.883227-9.2956495 1.63213-10.1870132-.502194-1.146039-2.762066-10.5690262 3.515357-15.66253282z" fill="#815245"/><path d="m342.561475 10.3257783s8.729847-4.2123191 18.706815 5.9468034c2.120106 2.2300513-2.618954 10.6546895-2.120105 11.39804.498848.8672421 8.729847-5.8229117 8.35571-4.9556696-3.616651 9.9113391-.62356 15.610359.249424 15.7342508 2.743667.3716752 12.346498-13.3803078 8.729847-25.1500229-3.616651-11.76971512-15.963148-13.62809119-18.956239-13.25641598-3.117802.61945869-12.097073.74335043-14.965452 10.28301428z" fill="#36180e"/><path d="m360.786323 23.3806892c-1.3559 3.2296988-2.03385 7.7512772-.27118 8.397217 1.89826.6459397 4.47447-1.5502555 5.69478-4.7799543 1.3559-3.2296989.81354-6.4593977-1.08472-7.1053375-1.76267-.6459398-3.11857.2583759-4.33888 3.4880748z" fill="#815245"/><path d="m340.301895 340.935361 13.153353-.000134-.000026 2.504228-13.153352.000134z" fill="#1a1a1a" transform="matrix(-.99976567 -.02164744 .02164744 -.99976567 686.26835 691.803664)"/><path d="m353.711438 324.716948c1.651014 2.21685 2.794024 6.65055 2.921025 8.634048.127002 2.450202-1.524013 7.467284-3.302029 7.467284-5.080044-.116676-11.049097 0-16.256143.466706-5.207046.583381-7.239064 3.266937-20.44718 2.916908-3.810034-.116677-10.668095-.466706-10.668095-1.866821.127002-6.300522 12.827114-3.850319 16.891149-7.117256 10.414092-8.400696 17.272153-10.384193 17.272153-10.384193s13.208116-.583382 13.58912-.116676z" fill="#55210e"/><path d="m352.758677 148.324078s17.28722 17.763293 17.92278 25.394003c.635559 7.630711-7.372491 31.773778-10.423177 50.788006-3.050686 19.014229-4.830253 22.892131-4.194693 27.395501.508447 4.50337 5.3387 22.892131 4.957364 35.151305-.508447 14.135578-.381335 43.282389-.381335 43.282389s-3.94047 2.877153-13.855199 2.626966c-6.355596-.125094-11.821408-4.753557-11.821408-4.753557s-2.415127-71.428452-3.050686-78.934069c-.381336-4.87865-3.686246-38.403738-4.321805-65.799239-.254224-8.756553.635559-33.525088.762671-37.152802z" fill="#3c3c3b"/><path d="m350.178803 60.5657568-1.047655 5.0918114 11.262295-6.5657568z" fill="#bacfed"/><path d="m350.069672 65.6575682-1.706408-6.5657568-2.986215 2.1885856z" fill="#bacfed"/><path d="m378.549039 145.509717s6.646534 17.264015 9.15466 28.648257c2.508126 11.509344 4.514627 70.682383 5.392471 76.186851.877844 5.629571 4.013002 22.643383 6.270315 39.532094 2.38272 16.88871 3.260564 50.54103 3.260564 50.54103l-21.569884 2.877336s-11.286567-70.932585-13.042255-82.066624c-1.755689-11.134039-21.444478-90.448429-21.444478-90.448429l-2.131907-25.395617z" fill="#4a4a49"/><path d="m376.698597 193.579618c1.636262 7.636092 5.789849 59.085822 6.167448 62.090186.377598 2.879182 12.083162 81.994096 12.586627 85.749551l7.174377-1.001455s-.881064-33.799093-3.272523-50.573457c-2.391459-16.899547-5.41225-33.924275-6.293313-39.557457-.881064-5.633183-2.894925-64.719004-5.41225-76.235732-2.517326-11.516728-9.188238-28.666639-9.188238-28.666639l-19.005807.125182c.125866-.125182 15.607418 40.43373 17.243679 48.069821z" fill="#4a4a49"/><path d="m378.05684 144.373906s-32.597784-.138706-34.442941-.138706c-1.968168 0-14.761261-1.66448-14.761261-1.66448l-.369031 5.825679s12.424061 1.525774 18.328565 1.66448c5.904504.138707 32.351762-.83224 32.351762-.83224z" fill="#3b1b1d"/><path d="m340.491201 149.940447 6.831907.133995c.372649 0 .745298-.401985.745298-.803971l.124217-4.823821c0-.401985-.37265-.80397-.745299-.80397l-6.831907-.133995c-.372649 0-.745299.401985-.745299.80397l-.124216 4.823821c0 .401986.372649.803971.745299.803971z" fill="#732d1d"/><path d="m373.532787 54.0689395-3.638101-5.294746-17.947965 11.1060525 2.667941 6.7152875z" fill="#e1f2fd"/><path d="m349.131148 58.1404467-4.944423 4.7032258-.686725-5.185608 4.120352-3.2560794z" fill="#e1f2fd"/><path d="m382.998959 62.4619329c7.34761-2.3599032 11.443 3.1051358 13.129337 10.4332562 1.806789 7.3281205 3.734032 53.1599249 2.168147 55.0230059-1.445431 1.987287-12.406621 3.850369-14.454316.993644s-8.913495-42.4782579-9.274853-48.8127348c-.361358-6.2102716-.120452-14.9046518 8.431685-17.6371713z" fill="#815245"/><path d="m376.993903 65.1376265c-1.862501 2.3882147-5.463335 8.6729902-4.097501 14.3292882 1.986667 8.0445127 5.463334 29.4127493 5.463334 29.4127493s5.960001 1.759737 12.913336.251391c8.195001-1.885432 12.292502-6.15908 12.292502-6.15908s-6.084168-32.052355-9.685002-37.708653c-2.98-4.6507339-11.547502-6.6618621-16.886669-.1256955z" fill="#ed6b06"/><path d="m393.679027 116.402429c8.402981 1.128484 4.627729 18.808067 2.313865 27.334391-2.313865 8.526323-11.447539 32.600649-11.447539 32.600649l-9.133675-2.006194s-.243565-23.572777 4.871293-47.396328c.608912-2.382355 4.871293-11.661002 13.396056-10.532518z" fill="#815245"/><g fill="#815245" transform="translate(369.778689 168.833747)"><g transform="translate(1.05584 14.307016)"><path d="m11.4193175 10.6110365c-.9096469 0-1.6893443-.71535073-1.6893443-1.66915177l.25989912-6.91505752c0-.83457591.77969738-1.54992669 1.81929378-1.54992669.909647 0 1.6893443.71535078 1.6893443 1.66915181l-.2598991 6.91505753c0 .95380104-.9096469 1.66915184-1.8192938 1.54992664z"/><path d="m8.1705785 10.8494868c-.90964691 0-1.68934426-.7153508-1.68934426-1.66915181l.25989911-6.91505753c0-.8345759.77969736-1.54992668 1.81929383-1.54992668.90964691 0 1.68934422.71535078 1.68934422 1.66915181l-.25989908 6.91505753c-.12994956.83457588-.90964691 1.54992668-1.81929382 1.54992668z"/><path d="m4.92183953 10.8494868c-.90964691 0-1.68934426-.7153508-1.68934426-1.66915181l.25989912-6.91505753c0-.8345759.77969735-1.54992668 1.81929382-1.54992668.90964691 0 1.68934426.71535078 1.68934426 1.66915181l-.25989912 6.91505753c0 .83457588-.90964691 1.54992668-1.81929382 1.54992668z"/><path d="m1.80305013 10.6110365c-.90964691 0-1.68934427-.71535073-1.68934427-1.66915177l.25989912-6.91505752c0-.83457591.77969735-1.54992669 1.81929382-1.54992669.90964691 0 1.68934426.71535078 1.68934426 1.66915181l-.25989911 6.91505753c0 .83457591-.77969735 1.54992664-1.81929382 1.54992664z"/></g><path d="m5.9776797.71535078s-5.32793191 10.25336112-5.71778058 12.51863862c-.38984868 2.1460523 1.16954603 10.7302617 1.16954603 10.7302617s3.24873896-2.5037278 5.3279319-2.2652775c2.07919294.3576754 7.53707445 1.6691518 7.53707445 1.6691518s2.339092-7.2727329 2.2091424-10.7302617c-.1299495-3.45752871-1.169546-6.91505747-1.169546-6.91505747z"/></g><g transform="translate(0 142.57072)"><g fill="#334043"><path d="m12.438605 73.6497785 4.1037008-.0018212-.0127485 28.8873377-4.1037008.001821z" transform="matrix(.99693422 -.07824428 .07824428 .99693422 -6.848332 1.403369)"/><path d="m47.9962608 95.9335079 11.0058454-.0005246-.0010612 22.1358977-11.0058454.000524z" transform="matrix(.00842647 -.9999645 .9999645 .00842647 -53.949547 159.596305)"/><path d="m31.1423627 125.536861 43.0228502-.002051-.0002445 5.098718-43.0228501.002051z" transform="matrix(.00842647 -.9999645 .9999645 .00842647 -75.870666 179.657685)"/></g><path d="m47.1607938 155.128832 9.7551812-.000465-.0009718 20.270512-9.7551812.000465z" fill="#415559" transform="matrix(.00842647 -.9999645 .9999645 .00842647 -113.658586 215.907315)"/><path d="m15.7930225 76.0377171c.7461271-.7503722 1.4922541-3.1265508 1.6166086-5.0024814 1.3678996-17.3836228 1.7409632-37.0183623.7461271-58.9042183-.1243545-3.00148886-.7461271-6.62828787-1.4922541-7.75384618-4.4767623-7.37866005-9.45094262-3.50173698-14.42512295 4.62729528-.74612705 1.3756824-1.4922541 4.7523573-1.61660861 7.3786601-.49741803 19.6347394.24870902 39.0193548 1.74096312 58.1538461.1243545 2.1260546.74612704 4.7523573 1.36789959 5.5027295 3.35757172 3.8769231 7.46127045.8754343 12.06238725-4.0019851" fill="#465557"/><path d="m12.0623873 99.1741935v4.8774195l79.0894672.62531v-4.8774193c0-2.0009925-1.6166086-3.626799-3.6062807-3.751861l-71.8769058-.6253102c-1.8653176 0-3.4819262 1.6258065-3.6062807 3.751861" fill="#465557"/><path d="m94.3850717 178.588586h4.4767623l-4.3524078-9.754839-36.3115164-4.877419-.1243545 1.750868-3.7306352-1.750868-1.2435451 2.251116-1.6166086-2.000992v-.250124h-.248709l-.7461271-.875435h7.336916l.3730635-41.395533-11.9380328-.125062-.3730635 41.395533h3.3575717l-1.8653176 1.375683-32.2078176 3.751861-2.8601537 6.253101c-1.1191906.750373-1.8653176 2.000993-1.9896721 3.501737 0 2.376179 1.8653176 4.25211 4.1036988 4.25211 2.3627356 0 4.2280532-1.875931 4.2280532-4.127048 0-1.25062-.497418-2.251116-1.3678996-3.12655l1.4922541-2.126055 18.2801127-2.376179c1.3678996-.375186 2.8601537-.750372 4.2280533-1.125558-7.2125615 5.50273-18.6531762 13.381638-18.6531762 13.381638l-1.7409631 4.502233c-2.1140267.750372-3.7306353 2.751365-3.7306353 5.252605 0 3.126551 2.4870902 5.627792 5.5959529 5.627792s5.5959529-2.501241 5.5959529-5.627792c0-1.750868-.7461271-3.376675-1.9896722-4.377171l1.4922541-3.001489 24.6221927-17.758809-.7461271 1.375683 29.4720185 13.756824.994836 1.375682c-.746127 1.000496-1.2435451 2.126055-1.2435451 3.376675 0 3.126551 2.4870902 5.627792 5.5959529 5.627792s5.5959529-2.501241 5.5959529-5.627792c0-2.876427-2.2383812-5.377668-4.9741804-5.627792l-2.1140266-3.376675-13.5546414-6.378163 19.1505943 1.375682z" fill="#465557"/></g><path d="m108.2112 229.66552-2.096266-1.874949c2.096266-.124997 4.192533-.624983 6.16549-1.249966.986478-.37499 2.096266-.74998 3.082745-.249994.863168.499987 1.109788 1.49996 1.356407 2.499933 1.479718 6.124833 12.5776 58.998397 13.687388 63.248282 1.356408 5.624847 4.315843 10.249721 6.41211 15.499579 2.096266 4.999864 4.315843 10.249721 7.028658 14.874596.49324.874976 1.479718 1.624956 2.466196 2.249939.739859.499986 1.356408.874976 1.972957 1.249966-.369929.499986-.739859.999973-1.233098 1.374962-.493239.37499-.986478.74998-1.603027.874977l-4.685773.124996h-.123309c-2.096267-.499986-3.575985-2.124942-4.685773-3.874895-1.109788-1.874949-1.479717-4.124888-2.836125-5.87484-1.603028-1.999946-3.822604-3.249912-5.795561-4.749871-1.233098-.999973-2.342886-1.999946-3.699294-2.749925-.986478-.499987-2.096266-.874977-3.082745-1.49996-1.603027-.874976-1.109788-1.624955-.986478-3.249911.12331-1.374963.12331-2.749926 0-4.374881-.12331-1.87495-.739859-4.749871-1.356408-6.499824-1.233098-3.124915-2.466196-6.124834-4.562463-8.874759-4.685772-6.24983-8.631686-14.499606-9.988093-22.249396-.616549-3.374908-.739859-6.749816-.739859-10.249721-.12331-3.374909.369929-7.3748-.493239-10.624712-.616549-2.124942-1.972957-4.249884-2.8361258-6.374826-.616549-1.749953-1.3564078-3.499905-1.9729568-5.249858z" fill="#efb690"/><path d="m118.272507 309.034433c0-.719267 1.510701-3.716212 1.133025-4.195723 1.133026 1.318656 2.391944 2.877067 3.776753 3.955968 4.280321 3.236701 8.057074 6.713157 11.707935 10.549247 1.384809 1.438534 3.021402 2.75719 4.909779 3.596335.881242.359633 1.888376.599389 2.89551.719267.251784 0 .755351.119877 1.007134 0 .377676-.119878.755351-.719267 1.258918-.719267.251784 0 .377675.119877.503567.239755.881243.839145 2.266052 1.318656 3.273186 2.037923 1.258918.839145 6.672264 3.596335 4.783887 5.394502-.629459.599389-1.888376.479511-2.643727.479511-1.510701 0-3.021402-.119878-4.657995-.239756-3.273186-.359633-6.672264-.839144-9.94545-1.558411-3.650861-.719267-2.517835-6.59328-4.783887-8.751081-1.258918-1.198778-5.791021-3.356578-7.049939-1.198778-1.007134 1.67829.503567 5.034868.755351 6.713158.125892.719267.629459 2.1578.503567 2.996945h-1.636593c-.755351-4.555357-.881243-8.870958-3.776753-12.946804-1.636593-1.798167-2.14016-4.555357-2.014268-7.072791" fill="#2f2722"/><path d="m117.102735 226.1761c.252241.12493.378361.24986.630601.37479.630601.49972 1.261202.999441 1.765683 1.749022 3.657485 4.497484 0 11.368641-1.639563 16.115985-2.017922 5.871716-3.531365 11.993292-5.675408 17.865007-4.161966 11.493572-8.576172 22.987143-12.3597771 34.605644-1.7656825 5.496925-1.7656825 10.993851-2.6485238 16.615706-.8828412 5.247065-1.7656825 10.993851-1.7656825 16.365846 0 .999441.5044807 2.123812 1.0089614 3.248183.3783606.749581.7567211 1.499161 1.0089615 2.123812-.6306009.24986-1.1350816.37479-1.7656825.499721-.6306009.12493-1.2612018 0-1.8918027-.124931l-4.1619659-2.373672s0 0-.1261202-.12493c-1.5134421-1.624092-2.0179228-3.747904-2.0179228-5.871716 0-2.248742 1.0089614-4.372554.756721-6.496366-.2522403-2.498602-1.6395623-4.747345-2.5224035-7.121017-.5044808-1.499161-1.0089615-2.873393-1.7656825-4.247624-.6306009-.999441-1.387322-1.873952-1.8918027-2.873393-.8828413-1.624091-.1261202-1.998882.8828412-3.248183.7567211-1.124371 1.5134422-2.248742 2.2701632-3.747904.8828413-1.624091 1.8918027-4.372554 2.2701633-6.246506.6306009-3.373113 1.1350816-6.621296.756721-9.994409-.756721-7.745668.1261202-16.990497 3.1530045-24.236444 1.2612018-3.123253 3.0268843-6.121576 4.7925668-9.119898 1.5134421-2.623533 4.5403263-4.747345 2.3962834-7.745668-.7567211-.999441-1.7656825-1.873952-2.2701632-2.998323-.2522404-.37479-.3783606-.874511-.3783606-1.249301 0-.749581.5044807-1.249301.8828413-1.873952 1.7656825-2.123812 3.9097254-3.872834 5.6754084-5.996646.6306-.74958.756721-1.249301 1.765682-1.499161 1.135082-.24986 2.270163.12493 3.405245-.499721 1.639562-.74958 3.026884-2.498602 4.792567-2.873392 1.513442-.249861 3.279124.24986 4.666446.999441" fill="#fac39d"/><path d="m80.4385517 305.129501c.493734-.620938 3.2092712-2.48375 3.2092712-3.104687.3703006 4.470749 2.8389708 8.196374 4.0733059 12.542935 1.4812021 4.9675-.9874681 13.908998 5.6779415 15.150873.493734.124187.8640346.124187 1.2343351.372562.493734.372563.7406011.9935.9874681 1.49025.740601 1.862812 1.3577686 3.47725 2.4686702 5.091687.493734.745125 2.4686703 2.980499.6171676 3.725624-.9874681.372563-2.5921038-.620937-3.4561383-.869312-1.8515027-.620938-3.7030054-1.49025-5.4310745-2.48375-1.3577686-.745125-3.9498724-1.738625-4.6904734-3.228874-1.8515027-3.601437-.3703006-7.202874.1234335-10.804311.3703005-2.235375-1.1109016-6.085187-4.0733059-5.464249-3.5795718.745125-4.1967393 8.568936-5.3076409 11.301061-.6171676-.248375-1.1109016-.49675-1.7280692-.745125 1.7280692-4.9675 3.8264389-10.307561 3.7030053-15.647623.1234336-2.483749.9874681-5.215874 2.5921038-7.327061" fill="#2f2722"/><path d="m18.5300612 238.847768s.1258799 0 0 0c.1258799.127134 12.4621104.127134 12.8397501.127134 2.2658382 0 51.6107602 1.017071 51.6107602 1.017071 4.0281569.127134 6.9233946.127134 8.0563137.127134-1.6364387-4.195417-7.4269142-5.085354-11.580951-5.085354-19.8890247-1.017071-43.1768067-1.525606-56.2683166-19.070077-3.902277-5.085354-5.161076-11.442046-5.6645956-18.053006-1.7623187 3.432614-4.4057966 14.238991-4.6575564 15.891731-1.0070393 6.229558-1.1329192 14.23899 1.5105588 20.087147.8811593 2.161276 2.3917181 3.814016 4.1540368 4.95822" fill="#c08a00"/><path d="m78.5353732 234.72449c-19.7955793-1.028299-42.9739475-1.542448-56.0039491-19.280606-3.8839428-5.141495-5.1368276-11.568364-5.6379815-18.252308.3758655-.771224.6264424-1.156837.8770194-1.156837 0 0 40.217601 3.984659 40.217601 3.984659l52.370583 13.23935 9.772502 14.653261c-.250577.257075-.626443.385613-.87702.642687-5.637981 4.113196-11.52654 8.097855-17.28981 12.082514-1.754038 1.156836-3.508077 2.185135-5.3874041 3.213434-.7517309.51415-1.3781733 1.156837-2.2551926.899762-1.6287502-.514149-2.380481-4.88442-3.7586543-5.012958 0 0-.1252885 0-.5011539 0-1.6287502-4.113196-7.2667317-4.88442-11.5265399-5.012958" fill="#da9b00"/><path d="m109.593274 169.771712-27.9416347 43.387443 193.3360657 1.63489-39.719723-43.890486z" fill="#a8aab3"/><path d="m132.676473 178.334077c-.373269 0-.746539.261294-1.119808.261294-.373269.130647-.870962 0-1.119808.130647.37327-.130647.746539 0 .995385.130647.746538.261295 1.493077.130647 2.364038.261295.746539.130647 3.359424 1.045176 2.612885 2.351646-.746538 1.175823-2.364038.783882-3.235.653235-1.6175-.261294-3.359423.653235-4.8525 1.175824-4.105962 1.30647-8.0875-.391942-11.944616-1.437118l2.861731-5.487175 13.188847-3.788764c1.24423.391941 2.488461.914529 3.732692 1.30647 1.741923.653235 3.235 1.306471 4.8525 2.482294.622116.522588.870962 1.175823 1.119808 1.959705.373269.91453.870961 1.829059 1.244231 2.743588.373269.653235 1.741923 2.612941.870961 3.52747-.497692.522588-1.493077-.261294-1.741923-.653235-.870961-1.306471-1.6175-3.658117-2.861731-4.441999-1.741923-1.175824-4.728077-1.437118-6.967692-1.175824" fill="#e4bca3"/><path d="m156.931488 3.75186104h-43.505703c-10.176773 0-18.57261 8.33912066-18.57261 19.96334936v16.4255406c0 6.3175156 2.4169835 11.8769294 6.360483 15.7937891 1.272096 1.2635031 1.653725 3.4114584.763258 5.1803628l-10.9400308 22.3640053s30.1486888-22.237655 32.1840438-22.237655h33.710559c10.176773 0 18.57261-9.4762734 18.57261-21.1005022v-16.4255406c0-11.6242287-8.395837-19.96334936-18.57261-19.96334936z" fill="#e2f2fd"/><g fill="#d52e1e" transform="translate(117.315574 13.131514)"><path d="m36.1771675 26.9501813-13.3901941-23.77209388c-.867883-1.65260546-2.4796656-2.66959343-4.3394148-2.66959343-1.7357659 0-3.2235652.88986448-4.2154315 2.41534644l-.1239833.12712349v.1271235l-13.39019411 23.77209388c-.86788296 1.525482-.99186624 3.5594579 0 5.2120634.86788295 1.525482 2.3556823 2.4153464 4.09144821 2.5424699h.12398328.12398328 26.65640504.1239833.1239832c1.735766-.1271235 3.2235653-1.0169879 4.0914483-2.5424699 1.1158495-1.779729 1.1158495-3.6865814.1239832-5.2120634zm-2.4796655 3.6865814c-.3719499.6356175-.9918663 1.016988-1.735766 1.016988h-.1239832-26.78038834-.12398328c-.74389968 0-1.36381607-.3813705-1.73576591-1.016988-.37194984-.7627409-.37194984-1.5254819 0-2.1610994l13.39019413-23.89921741.1239833-.1271235c.3719498-.63561748.9918662-1.01698798 1.7357659-1.01698798s1.4877994.50849399 1.8597492 1.14411148l13.3901942 23.89921741c.3719498.508494.4959331 1.3983585 0 2.1610994z"/><path d="m16.835776 24.280588h3.223565v3.178087h-3.223565z"/><path d="m16.835776 15.5090666.8678829 7.5002863h1.4877994l.8678829-7.5002863v-4.0679519h-3.2235652z"/></g><path d="m203.418011 166.019851-.249911 3.216795s-2.249199 6.928481-6.872553 10.268999c-1.1246.742337-5.373087 1.484674-6.997509 1.484674 0 0-1.874332.247446-2.49911 1.732121-.624777 1.484674 7.872197 7.29965 14.869706 7.670818 6.997509.371169 15.994305-6.928481 15.994305-6.928481s.749733-9.526662-2.49911-14.970468z" fill="#69797d"/><path d="m215.507633 168.688216-9.169988-4.544295-3.487179.259674-.129155 2.856414s14.077869 5.453154 14.077869 5.323317c-.516619-2.207229-1.291547-3.89511-1.291547-3.89511z" fill="#465557"/><path d="m234.114811 97.552719-48.762883 1.6433091c-1.108247 0-2.093356 2.1489429-2.093356 4.6771109l-.246277 50.816172c0 2.528168.86197 4.929928 1.970218 5.309153l48.639743 15.295415c1.847079.632042 3.447881-1.643309 3.447881-4.929927l.369416-66.74363c.123138-3.539435-1.354525-6.1940114-3.324742-6.067603" fill="#69797d"/><path d="m184.889344 156.046097 52.177444 14.66358.379933-68.471464-52.304088.621339z" fill="#d52e1e"/><g fill="#fff" transform="translate(199.905738 111.617866)"><path d="m13.4461696 29.9296188c0-.1279044-.1263398-.3837131-.1263398-.5116174-.2526797-.5116175-.5053594-1.1511392-.7580391-1.6627566-.2526797-.5116175-.2526797-1.0232349-.3790196-1.5348523 0-.7674261-.1263398-1.5348522-.2526797-2.3022784 0-.383713-.1263398-.383713-.3790195-.383713-.1263399.1279043-.1263399.1279043-.2526797.2558087-.2526797.3837131-.3790196.8953305-.6316993 1.4069479-.1263398.383713-.2526797.7674261-.3790195 1.1511392-.2526797.6395217-.63169925 1.0232348-1.0107188 1.4069479-1.13705864.8953304-5.05359394 4.0929393-5.93797288 4.732461-.37901955.3837131-.88437895.6395218-1.38973834.3837131-.37901955-.1279044-.75803909-.2558087-1.13705864-.3837131-.12633985 0-.37901954 0-.50535939 0-.12633985.1279044-.2526797.3837131-.12633985.6395218 0 .1279044.12633985.2558087.12633985.3837131.25267969.6395217.50535939 1.2790435.88437894 2.0464696 0 .1279044.12633985.2558087.12633985.3837131v1.0232348c0 .6395218.12633984 1.2790436.12633984 1.790661 0 .383713.12633985.5116174.37901955.2558087.12633985-.1279044.2526797-.2558087.2526797-.5116174.37901954-.8953305.63169924-1.790661 1.01071879-2.5580871 0-.1279044.12633985-.2558087.12633985-.2558087 1.01071879-.8953305 5.93797288-4.7324611 7.20137133-5.6277916.2526797-.2558087.5053594-.1279043.884379 0 .2526797.1279044.6316992.2558087.8843789.3837131.2526797.1279043.6316993 0 .884379-.1279044.3790195.1279044.5053594-.1279043.3790195-.383713z"/><path d="m.4331652 27.7552448c0-.1279044.12633984-.2558088.12633984-.3837131.2526797-.3837131.37901955-.8953305.63169925-1.2790435.12633985-.3837131.25267969-.8953305.25267969-1.4069479 0-.7674262.12633985-1.4069479.2526797-2.0464697 0-.3837131.12633985-.3837131.2526797-.2558087s.12633985.2558087.2526797.3837131c.25267969.383713.37901954.8953304.50535939 1.5348522.12633985.3837131.2526797.8953305.37901955 1.2790435.2526797.7674262.50535939 1.1511392.88437894 1.6627566 1.01071879 1.2790436 5.05359395 5.755696 5.93797289 6.7789308.50535935.5116174 1.01071875 1.0232348 1.51607815 1.0232348.3790196 0 .7580391 0 1.1370587.1279044.2526797 0 .3790195.1279043.6316992.2558087.2526797.1279043.2526797.5116174.1263399.7674261 0 .1279044-.1263399.2558087-.1263399.3837131-.2526797.6395217-.6316992 1.1511391-.8843789 1.7906609 0 .1279044-.1263399.2558087-.1263399.3837131 0 .383713 0 .6395217-.1263398 1.0232348 0 .6395218-.1263399 1.2790435-.1263399 1.9185653 0 .3837131-.2526797.5116174-.3790195.1279044-.1263399-.2558087-.2526797-.3837131-.3790196-.6395218-.3790195-1.0232348-.6316992-2.0464697-1.0107188-3.0697045 0-.1279043-.1263398-.2558087-.1263398-.3837131-1.01071879-1.2790435-5.93797289-6.9068351-7.07503153-8.3137829-.2526797-.2558088-.5053594-.3837131-.75803909-.2558088-.2526797 0-.5053594 0-.7580391.1279044-.25267969 0-.50535939-.1279044-.75803909-.3837131-.25267969-.6395217-.25267969-.8953304-.25267969-1.1511391z"/><path d="m13.0671501 8.82540041c-.1263399-2.30227837-.6316993-4.34874803-1.5160782-5.88360027-.7580391-1.27904354-1.5160782-1.91856531-2.40045715-2.30227837-.75803909-.38371306-1.51607818-.63952177-2.27411727-.63952177-.75803909 0-1.51607819.12790435-2.27411728.51161742-.88437894.38371306-1.64241803 1.02323482-2.27411727 2.04646965-.88437895 1.4069479-1.38973834 3.19760885-1.38973834 5.49988721-.12633985 2.30227842.12633985 4.47665242.75803909 6.52312202 0 .1279044 0 .1279044.12633985.2558087l.5053594 1.5348523c-.12633985.8953305-.12633985 1.6627566-.12633985 2.558087.12633985 1.1511392.25267969 2.1743741.88437894 2.5580871 0 0 .12633985.1279044.12633985.1279044.25267969.1279043.37901954.383713.63169924.5116174.50535939.5116174.88437894 1.2790435 1.01071879 2.3022784 0 .2558087 0 .6395217.12633985.8953304 0 .1279044 0 .2558087.12633985.2558087.25267969.1279044.50535939.3837131.88437894.3837131.37901954 0 .75803909.1279044 1.13705864.1279044.37901954.1279043.75803909.1279043 1.13705863.1279043.2526797 0 .63169925-.1279043.88437894-.1279043 0 0 0-.1279044.12633985-.2558088 0-.2558087 0-.6395217.12633985-.8953304.12633985-1.0232349.63169925-1.6627566 1.13705865-2.0464697.2526797-.1279043.3790195-.2558087.6316992-.383713 0 0 .1263399-.1279044.1263399-.1279044.6316992-.2558087.8843789-1.2790435 1.0107188-2.5580871 0-.8953305 0-1.7906609-.1263399-2.6859914l.5053594-1.4069479c0-.1279043.1263399-.1279043.1263399-.2558087 0-1.9185653.3790195-4.2208437.2526797-6.65102639zm-8.33843005 10.10444389c-.2526797.5116175-.63169924.6395218-.88437894.2558088-.37901955-.2558088-.63169924-.7674262-.75803909-1.4069479-.12633985-.6395218-.37901955-1.4069479-.37901955-2.174374-.12633985-.8953305.12633985-1.6627566.63169925-1.9185654.25267969-.1279043.63169924-.2558087.88437894-.2558087h.25267969c.2526797 0 .5053594 0 .7580391-.1279043.50535939 0 .63169924.7674261.75803909 1.5348522 0 .5116174 0 1.0232349-.12633985 1.5348523-.37901955.8953305-.75803909 1.7906609-1.13705864 2.558087zm1.89509773 3.8371307v.2558087c-.12633985.2558087-.2526797.5116174-.37901955.7674261 0 .1279043-.12633984.1279043-.12633984.1279043-.12633985.1279044-.2526797 0-.37901955-.2558087s-.12633985-.5116174-.12633985-.7674261c0-.8953305 0-1.9185653.2526797-2.6859914.12633985-.6395218.37901954-1.1511392.63169924-1.6627566 0-.1279044.12633985-.1279044.12633985-.2558087v.6395217zm1.26339849.7674261c0 .2558087-.12633985.5116174-.2526797.6395218h-.12633985c-.2526797-.2558088-.37901954-.6395218-.63169924-1.1511392v-.1279044c0-1.4069479 0-2.8138958 0-4.2208437 0-.1279043 0-.1279043 0-.2558087.12633985.1279044.12633985.1279044.12633985.2558087.25267969.6395218.50535939 1.4069479.75803909 2.1743741 0 .1279043.12633985.383713.12633985.6395217zm3.15849623-7.0347395c-.1263399.7674262-.3790196 1.6627566-.5053594 2.3022784-.2526797.7674261-.63169925 1.1511392-1.13705865 1.0232348-.2526797 0-.37901954-.1279043-.50535939-.5116174-.5053594-1.0232348-.88437894-2.174374-1.13705864-3.4534175-.12633985-.7674262 0-1.5348523.2526797-2.0464697.12633984-.3837131.25267969-.5116174.50535939-.3837131.63169924.2558087 1.26339849.3837131 1.89509769.6395218.3790196.2558087.7580391 1.0232348.7580391 1.790661 0 .383713 0 .5116174-.1263398.6395217z"/></g><path d="m242.139344 103.489181-.381772 66.690487c0 3.284002-1.654349 5.557541-6.490137 5.178618l-.636287-.252616c1.908863.631539 3.563212-1.642 3.563212-4.926002l.381772-66.690487c0-3.031386-1.272575-5.5575407-3.054181-5.9364639h3.181439c1.908863-.1263078 3.435954 2.5261549 3.435954 5.9364639z" fill="#465557"/><path d="m140.68085 175.399504-10.225932 29.076923h31.909836l-2.094468-28.953716z" fill="#69797d"/><path d="m140.68085 175.399504-10.225932 29.076923h31.909836l-2.094468-28.953716z" fill="#69797d"/><path d="m139.111848 178.595439c.615866.929752.985385 2.125148 1.354904 3.320544.36952 1.062574 1.108558 2.125149 1.231731 3.187723.123173.79693-.369519 1.593861-1.231731 1.328217-.369519-.132821-.615865-.398465-.862211-.531287-.36952 1.195396-1.108558.796931-1.60125 0-.985385-1.593861-1.231731-3.320544-2.956154-3.586187-1.231731-.132822-2.586635 0-3.818366-.132822-2.093943 0-4.187885-.132822-6.405001-.132822 0 0 .739039-2.789257.739039-2.922079.369519-1.593861.739039-2.789257 2.340289-2.789257 2.093942 0 4.064711.132822 6.158654.132822.985385 0 2.093942 0 3.079327.398465.862212.398465 1.478077 1.062574 1.970769 1.726683" fill="#efb690"/><path d="m130.454918 203.538462.739224 3.39454 30.554592.357321.61602-3.751861z" fill="#465557"/><g fill="#cecece" transform="translate(135.147541 177.275434)"><path d="m3.45772217 21.0022656-.61745038 2.2021793h-2.34631148l.61745039-2.2021793z"/><path d="m21.7342537.93796526h-2.0993314v-.48937318h2.0993314z"/><path d="m21.8577437 2.77311468h-2.0993313v-.97874636h2.0993313z"/><path d="m21.9812338 4.48592081h-2.2228214v-.85640306h2.0993313z"/><path d="m21.9812338 6.32107023h-2.2228214v-.97874635h2.2228214z"/><path d="m22.1047239 8.27856295h-2.3463115v-1.10108965h2.3463115z"/><path d="m22.228214 10.2360557h-2.3463115v-1.10108968h2.2228214z"/><path d="m22.3517041 12.5605783h-2.4698016v-1.4681196h2.3463115z"/><path d="m22.4751941 15.0074442h-2.5932916v-1.5904629h2.4698016z"/><path d="m22.5986842 17.6989967h-2.5932916l-.1234901-1.8351495h2.5932916z"/><path d="m22.5986842 20.2682058h-2.5932916v-1.7128061h2.5932916z"/><path d="m22.8456644 23.3267882-2.8402718-.1223433v-2.079836h2.7167817z"/><path d="m18.7704918.93796526h-1.7288611l.1234901-.61171647 1.605371.12234329z"/><path d="m18.8939819 2.77311468-1.8523512-.12234329v-.85640307h1.8523512z"/><path d="m18.8939819 4.48592081h-1.9758413l.1234901-.97874636 1.8523512.1223433z"/><path d="m18.8939819 6.32107023h-1.9758413v-.97874635h1.9758413z"/><path d="m18.8939819 8.27856295h-2.0993313l.12349-1.10108965h1.9758413z"/><path d="m19.017472 10.2360557h-2.2228214v-1.10108968h2.2228214z"/><path d="m19.017472 12.5605783h-2.3463115v-1.4681196h2.3463115z"/><path d="m19.017472 15.0074442h-2.4698016l.1234901-1.5904629h2.3463115z"/><path d="m19.140962 17.6989967h-2.7167817l.1234901-1.8351495h2.4698016z"/><path d="m19.140962 20.2682058h-2.7167817v-1.7128061h2.7167817z"/><path d="m19.140962 23.2044449h-2.8402717v-2.079836h2.8402717z"/><path d="m15.5597498 18.5553997v1.5904629l-.1234901.856403v2.2021793h-3.4577222l.2469802-2.2021793v-.856403l.2469801-1.5904629z"/><path d="m15.6832399 15.8638472-.1234901 1.8351495h-2.9637619l.1234901-1.8351495z"/><path d="m15.8067299 13.4169813-.12349 1.5904629h-2.8402718l.1234901-1.5904629z"/><path d="m15.8067299 11.0924587v1.4681196h-2.7167817l.1234901-1.5904629z"/><path d="m15.93022 9.13496602v1.10108968l-2.5932916-.1223433.1234901-1.10108968z"/><path d="m16.0537101 7.1774733-.1234901 1.10108965-2.4698015-.12234329.12349-.97874636z"/><path d="m16.0537101 5.34232388v.97874635h-2.3463115l.1234901-.97874635z"/><path d="m16.1772002 3.50717445-.1234901.97874636h-2.2228214l.1234901-.97874636z"/><path d="m16.1772002 1.79436832v.85640307h-2.0993313l.12349-.85640307z"/><path d="m16.3006903.32624879-.1234901.61171647v.85640306h-1.9758413v-.85640306l.1234901-.61171647z"/><path d="m13.4604185.32624879v.61171647h-1.605371c0-.12234329.12349-.36702988.12349-.61171647z"/><path d="m13.3369284 1.79436832-.1234901.85640307h-1.7288611c0-.24468659.1234901-.61171648.1234901-.85640307z"/><path d="m13.0899482 3.50717445-.12349.85640307h-1.8523512c0-.24468659.1234901-.61171648.1234901-.85640307z"/><path d="m12.9664582 5.34232388-.1234901.97874635h-2.0993313c0-.36702988.12349-.61171647.2469801-.97874635z"/><path d="m12.5959879 9.01262272-.1234901 1.10108968h-2.3463114c.12349-.36702991.12349-.73405979.2469801-1.10108968z"/><path d="m12.3490078 10.9701154-.1234901 1.4681196h-2.59329164c.12349007-.4893732.12349007-.9787464.24698015-1.4681196z"/><path d="m12.1020276 13.4169813-.1234901 1.5904629h-2.71678168c.12349008-.4893732.24698016-1.1010897.24698016-1.5904629z"/><path d="m11.8550475 15.8638472-.2469802 1.8351495h-2.96376186c.12349007-.6117165.24698015-1.223433.37047023-1.8351495z"/><path d="m10.9906169.32624879c0 .24468659-.1234901.36702988-.1234901.61171647h-1.35839082l.12349008-.61171647z"/><path d="m10.7436368 1.79436832c0 .24468659-.1234901.61171648-.1234901.85640307h-1.48188095l.24698015-.85640307z"/><path d="m10.3731665 3.50717445c0 .24468659-.1234901.61171648-.1234901.85640307h-1.60537096l.24698015-.85640307z"/><path d="m10.0026963 5.34232388c-.12349009.36702988-.12349009.73405976-.24698017.97874635h-1.72886108l.24698015-.97874635z"/><path d="m9.75571613 7.1774733c-.12349007.36702988-.12349007.73405977-.24698015.97874636h-1.85235117l.24698016-.97874636z"/><path d="m9.3852459 9.01262272c-.12349008.36702989-.12349008.73405977-.24698015 1.10108968h-1.97584125l.24698016-1.10108968z"/><path d="m9.01477567 10.9701154c-.12349008.4893732-.24698016.9787464-.24698016 1.4681196h-2.22282139l.37047023-1.4681196z"/><path d="m8.52081536 13.4169813c-.12349008.6117165-.24698016 1.1010897-.24698016 1.5904629h-2.34631147l.37047023-1.5904629z"/><path d="m8.15034513 15.8638472c-.12349008.6117165-.24698016 1.223433-.37047024 1.8351495h-2.59329163l.49396031-1.8351495z"/><path d="m7.65638481 18.5553997c-.12349007.6117165-.24698015 1.1010897-.37047023 1.5904629h-2.71678171l.37047024-1.5904629z"/><path d="m11.6080673 18.5553997-.1234901 1.5904629-.1234901.856403-.2469801 2.2021793h-3.45772219-.86443054-2.96376186l.61745039-2.2021793h2.84027178.86443055c0-.2446866.12349007-.6117165.12349007-.856403.12349008-.4893732.24698016-1.1010897.24698016-1.5904629z"/><path d="m8.76779551.32624879-.12349007.61171647h-1.35839086l.24698016-.61171647z"/><path d="m8.39732528 1.79436832-.24698015.85640307h-1.35839086l.24698016-.85640307z"/><path d="m7.90336497 3.50717445-.12349008.85640307h-1.48188093l.24698016-.85640307z"/><path d="m7.53289474 5.21998058-.24698016 1.10108965-.24698015.85640307-.24698016.97874636-.24698015.85640306-.24698016 1.10108968-.24698015.856403-.37047024 1.4681196-.24698015.856403-.49396031 1.7128062h-1.97584125l.49396031-1.7128062.24698016-.856403.49396031-1.4681196.24698016-.856403.37047023-1.10108968.24698015-.85640306.37047024-.97874636.24698015-.85640307.24698016-1.10108965z"/><path d="m4.81611303 15.8638472-.49396031 1.8351495h-2.09933132l.49396031-1.8351495z"/><path d="m4.07517256 18.5553997-.37047023 1.5904629h-2.34631148l.49396031-1.5904629z"/><path d="m12.719478 7.1774733-.1234901.97874636h-2.2228214c0-.36702989.1234901-.73405977.1234901-.97874636z"/></g><g transform="translate(18.770492 61.905707)"><path d="m98.2801811 87.4216248c.1246178-.3768174 1.3707957-1.0048463 1.6200313-1.2560579.9969426-.7536347 1.8692666-2.0096925 3.1154446-2.3865098 2.616974-.8792405 2.24312-.7536347 4.735476-1.2560579.747707-.1256057 4.361623-.8792404 5.233947-.6280289.249236 0 .249236.2512116.373854.3768174 1.246178 2.888933-1.744649 1.8840867-3.489298 3.0145388-.623089.5024231-2.118503-.3768174-2.741592.1256057 2.367738-.2512115 4.610858-.6280289 6.978596-.8792404 1.370796-.1256058 8.847864-1.1304521 8.972481.5024231.124618.8792405-1.12156 1.130452-1.620031 1.2560578-2.616973.7536347-6.106272 1.2560579-8.723245 1.6328752 2.24312-.2512116 3.613916-.6280289 3.738534 1.0048463 0 .5024231-.747707 1.6328751-2.243121 1.5072694 1.370796.1256057 1.12156 1.0048462 1.12156 1.8840867 0 1.130452-1.12156 2.1352983-1.495413 1.3816636 1.12156 1.8840867-.124618 4.0193851-2.990827 4.0193851-1.370796 0-2.866209.5024231-4.237005.5024231-1.744649 0-2.990827 0-4.735476.1256058-2.367738.1256057-3.8631515-.6280289-6.1062717-1.1304521z" fill="#fac39d"/><path d="m28.3696005 32.1550804c2.6169736 2.7633272 4.9847116 5.0242313 6.9785963 7.0339238 7.3524496 7.0339238 10.2186588 8.4155874 10.2186588 8.4155874.1246178.3768174-3.6139159 6.2802892-1.3707957 14.6958766-8.4740097-8.1643758-13.9571925-18.7152616-15.8264594-30.1453878" fill="#efb690"/><path d="m112.860463 116.185349c-.373854 0-.747707.251212-1.121561.251212-.373853.125605-.872324 0-1.12156.125605.373854-.125605.747707 0 .996943.125606.747706.251212 1.495413.125606 2.367738.251212.747706.125605 3.36468 1.004846 2.616973 2.260904-.747706 1.130452-2.367738.753634-3.240062.628029-1.620032-.251212-3.364681.628029-4.860094 1.130452-4.112387 1.256058-8.100156-.376818-11.963308-1.381664l2.8662092-5.275443 13.2094858-3.642567c1.246178.376817 2.492356.87924 3.738534 1.256057 1.744649.628029 3.240062 1.256058 4.860094 2.38651.623089.502423.872324 1.130452 1.12156 1.884087.373853.87924.872324 1.758481 1.246178 2.637721.373853.628029 1.744649 2.512116.872324 3.391357-.498471.502423-1.495413-.251212-1.744649-.628029-.872324-1.256058-1.620031-3.516962-2.866209-4.270597-1.744649-1.130452-4.735476-1.381664-6.978596-1.130452" fill="#efb690"/><path d="m43.8222066 60.9188046 2.6169736 1.3816636c3.1154447 1.6328752 5.6078005 4.3962024 6.8539784 7.6619528l13.5833392 35.420831 36.7622482 6.657106-1.620031 10.174069-36.3883951-.502424c-3.4892981-.376817-6.4801251-2.386509-8.2247742-5.526654l-12.0879257-14.193453z" fill="#d0d0d0"/><path d="m51.9223629 38.3097637c.7477068 0 1.1215602.8792405.9969424 1.6328752s-.4984712 1.3816636-.4984712 2.1352983.3738534 1.5072694.3738534 2.2609041c.1246178 1.6328752-1.1215601 3.1401446-2.6169736 3.7681735s-3.2400626.6280289-4.8600939.5024231c-6.2308895-.5024231-12.5863968-2.1352983-17.1972551-6.2802891-4.2370049-3.7681735-6.4801251-9.1692222-8.4740097-14.444665-1.2461779-3.2657504-2.3677381-6.6571065-2.2431203-10.1740684 0-1.0048463.1246178-2.0096926.3738534-3.0145388 2.1185024-9.04361638 11.0909834-12.30936673 19.3157576-11.43012625 7.9755386.87924048 14.5802815 8.28998165 14.7048993 16.32875175 0 1.0048463-.2492356 1.8840867-.1246178 2.888933.1246178 2.0096925 1.744649 3.5169619 2.9908269 5.0242313.8723246 1.0048463 3.2400626 3.6425677 1.8692669 4.8986255-.7477067.628029-1.8692669.5024232-2.4923558 1.3816637-.4984712.8792404-.623089 2.0096925-.3738534 3.0145387 0 .1256058.1246178.3768174 0 .5024232 0 .3768173-1.3707957 1.0048462-1.7446491 1.0048462" fill="#fac39d"/><path d="m18.7740306 58.7835063c.9969424-1.0048463 1.8692669-2.0096925 2.8662092-3.0145388 1.8692669-2.2609041 3.3646804-4.6474139 4.3616227-7.4107412 1.8692668-5.149837 2.6169736-10.9277031 2.367738-16.4543575 0 0 .1246178.1256058.1246178.1256058 1.8692669 11.4301262 7.3524497 22.1066178 15.7018416 30.1453878.1246178.3768174.2492356.7536347.2492356 1.1304521 2.8662092 5.0242313 5.358565 8.9180106 1.7446491 11.1789147-2.8662092 1.8840867-13.4587214-2.1352984-17.5711085-3.7681735-.9969423-.3768174-1.6200313-.6280289-1.6200313-.6280289-.7477067-.3768174-1.6200313-3.2657504-1.9938846-4.0193851-.623089-1.130452-1.1215602-2.3865099-2.1185025-3.2657503-.7477067-.628029-1.3707957-.8792405-2.2431202-1.0048463s-2.7415914.1256058-3.4892981-.2512116c-1.246178-.8792404.7477067-1.8840867 1.6200312-2.7633272" fill="#fac39d"/><path d="m47.4361225 69.0831805s-4.9847116 4.8986255-18.0695797.2512116c.9969424 26.7540317 2.6169736 39.0633979 2.6169736 39.0633979l15.5772239 5.401049 5.4831828-17.3335979z" fill="#dadada"/><path d="m56.4086034 98.4749336c0 1.7584814-12.2125435 31.4014454-15.5772238 39.5658214-.2492356.628029-.3738534 1.004846-.623089 1.381664-.2492356.502423 1.7446491 1.507269 1.7446491 1.507269s-5.981654 3.265751-5.981654 3.265751c-.9969423-.125606-10.2186588-5.149838-35.76530588-8.038771h-.12461779c.12461779-.376817.24923558-.753634.37385337-1.256057.37385337-1.256058.62308895-2.763328.87232454-4.521809 2.99082697-17.710415 2.49235581-52.8800341 2.49235581-52.8800341l3.48929814-3.6425677 20.31269991-1.2560578s14.4556637 20.7249542 20.0634643 22.6090409c-.1246178 0 0-2.3865099 0-2.6377214 0-1.0048463 0-1.8840868 0-2.888933 0-1.8840868 0-3.8937793-.1246178-5.777866-.1246178-3.516962-.3738534-7.1595297-.7477068-10.6764916-.2492356-1.7584809-.4984711-3.5169619-.8723245-5.1498371-.1246178-.7536347-.2492356-1.6328751-.4984712-2.5121156-.1246178-.5024232-.3738533-.8792405-.6230889-1.2560578-.1246178-.3768174-.3738534-.7536347-.4984712-1.1304521.1246178 0 .1246178 0 .1246178.1256058.2492356.2512116.4984712.5024231.7477068.8792405.2492355.3768173.4984711.7536347.6230889 1.2560578.3738534 1.0048463.7477067 2.0096925 1.1215601 3.0145388.623089 1.7584809 1.2461779 3.5169619 1.8692669 5.1498371 1.1215601 3.5169619 2.1185024 7.0339238 3.2400625 10.5508857.9969424 3.1401446 1.9938847 6.2802892 2.990827 9.5460395.623089 1.3816636 1.3707957 3.2657504 1.3707957 4.7730197" fill="#da9b00"/><path d="m40.8313796 138.040755c-.2492356.628029-.3738534 1.004846-.623089 1.381664l-39.87769299-4.396203c.37385337-1.256057.62308895-2.763327.87232453-4.521808 7.47706745 1.256058 31.90215446 6.405895 39.62845746 7.536347" fill="#2f2722"/><path d="m50.0530961 9.16922214c-2.367738-4.01938505-4.3616227-4.89862553-7.6016852-6.40589492-6.1062718-2.888933-13.5833392-2.76332722-19.1911398 1.13045204-1.2461779.87924048-2.4923558 2.38650988-3.9877693 2.63772144-1.2461779.25121157-2.6169736-.37681735-3.8631515-.12560578-2.990827.50242313-5.85703618 2.26090409-7.47706746 4.89862548-1.86926686 2.888933-2.74159139 9.6716453-.24923558 12.4349725.24923558.2512116.62308895.5024232.99694233.7536347.99694232.6280289 2.24312021 1.3816636 3.36468031 1.0048463.1246178 0 .3738534-.1256058.4984712-.1256058.3738534 0 .6230889.5024231.7477067.8792405 1.6200313 4.5218082 6.2308896 9.5460395 9.8448055 12.5605783.7477067.6280289 3.9877693 3.6425677 4.9847116 3.3913561.4984712-2.7633272.9969424-5.4010487 1.4954135-8.1643759-1.3707957-1.6328752-2.7415914-3.5169619-3.1154447-5.6522602-.3738534-2.1352983.7477067-4.647414 2.8662091-5.1498371 1.4954135-.3768173 3.1154448.5024231 3.9877693 1.6328752.2492356.3768173.623089.7536347.7477068 1.130452-.1246178-.1256058 16.6987839-7.4107412 15.9510772-16.83117486z" fill="#202c2b"/><path d="m6.68610493 61.9236509c4.61085827-5.0242313 12.33716127-2.1352983 15.57722387.3768173 4.2370049 3.3913562 7.4770674 9.1692222 11.4648367 12.8117899 4.8600938 4.2705966 10.2186588 7.9131643 14.5802815 12.686184 1.7446491 1.8840868 3.1154448 3.7681735 5.1093294 5.4010487 2.990827 2.3865098 5.4831828 1.0048462 9.2217165.3768173 9.5955699-1.8840867 35.142217-6.0290775 35.5160704-6.1546833l2.6169737 11.3045204c-.623089.2512116-1.246178.3768174-1.7446492.6280289-4.3616227 1.7584809-8.5986275 3.5169619-12.9602502 5.2754429-7.3524497 3.014539-14.8295171 4.396202-22.1819667 7.536347-3.613916 1.507269-8.4740098 4.144991-12.4617791 3.768173-2.990827-.251211-5.6078006-2.888933-8.2247742-4.396202-4.735476-2.637721-9.4709521-5.275443-14.3310459-7.913164-2.2431203-1.256058-4.6108583-2.512116-6.8539785-3.7681737-1.4954135-.8792405-5.1093294-3.8937793-6.8539785-3.7681735-.3738534 0-.7477067 0-.8723245-.1256058-12.33716131-8.9180106-13.70795701-27.5076664-7.60168527-34.0391671" fill="#e7e7e7"/></g><path d="m110.863217 353.856345.821209-127.681417-12.318135-.1253-.821209 127.806717c0 1.87951 2.737363 3.508419 6.159068 3.508419 3.421704 0 6.159067-1.628909 6.159067-3.508419z" fill="#a8aab3"/><path d="m258.211578 353.856345.821209-127.681417-12.318135-.1253-.821209 127.806717c0 1.87951 2.737363 3.508419 6.159067 3.508419 3.284836 0 6.0222-1.628909 6.159068-3.508419z" fill="#a8aab3"/><path d="m82.5901639 212.918114v7.643254c0 3.689847 2.7547885 6.589012 6.260883 6.720793l180.6890821 1.581363c3.506094 0 6.260883-2.899166 6.386101-6.589013v-7.643254z" fill="#d5dbd9"/><path d="m298.188368 97.5457304c-7.860712.2470609-5.240474-16.8001355-3.573051-25.0766728 1.667424-7.9059462 6.669696-23.7178384 7.146102-25.4472642 0-.1235304.119102-.1235304.119102-.1235304l8.337119.3705913c.119102 0 .119102 0 .119102.1235304.119101 1.8529561 2.977542 16.3060139-.357305 38.1708961-.238204 2.4706082-3.692153 11.7353888-11.791069 11.9824496z" fill="#815245"/></g></g></svg>