<svg height="400" viewBox="0 0 1200 400" width="1200" xmlns="http://www.w3.org/2000/svg" xmlns:xlink="http://www.w3.org/1999/xlink"><defs><path id="a" d="m.664 241.679v184h1239v-184z"/><filter id="b" height="158.7%" width="108.7%" x="-3.6%" y="-28.3%"><feMorphology in="SourceAlpha" operator="dilate" radius="7" result="shadowSpreadOuter1"/><feOffset dx="9" dy="2" in="shadowSpreadOuter1" result="shadowOffsetOuter1"/><feGaussianBlur in="shadowOffsetOuter1" result="shadowBlurOuter1" stdDeviation="9.5"/><feColorMatrix in="shadowBlurOuter1" type="matrix" values="0 0 0 0 0.628368433   0 0 0 0 0.628368433   0 0 0 0 0.628368433  0 0 0 0.5 0"/></filter></defs><g fill="none"><g transform="translate(-17)"><path d="m17 0v400h1200v-400z" fill="#ddeff8"/><use fill="#000" filter="url(#b)" xlink:href="#a"/><use fill="#bcdff1" xlink:href="#a"/></g><path d="m667.789 151h-7.137l1.911-25.584h6.63c3.406017 0 6.161989.99449 8.268 2.9835s3.159 4.699483 3.159 8.1315c0 4.758024-1.176488 8.358988-3.5295 10.803s-5.453481 3.666-9.3015 3.666zm.975-23.088h-3.471l-1.521 20.592h4.329c2.730014 0 4.985491-.942491 6.7665-2.8275s2.6715-4.77748 2.6715-8.6775c0-2.834014-.786492-5.056992-2.3595-6.669s-3.711486-2.418-6.4155-2.418zm25.74 17.082.975-10.842c-.338002-.078-.727998-.1365-1.17-.1755s-.870998-.0585-1.287-.0585c-1.456007 0-2.814494.896991-4.0755 2.691s-1.8915 4.432983-1.8915 7.917c0 1.586008.227498 2.697497.6825 3.3345s1.007497.9555 1.6575.9555c.676003 0 1.462496-.318497 2.3595-.9555s1.813495-1.592494 2.7495-2.8665zm1.638-13.104 2.34-.39-1.755 19.5h-2.691l.312-3.12h-.117c-.858004 1.196006-1.767995 2.073497-2.73 2.6325s-1.975995.8385-3.042.8385c-1.274006 0-2.307496-.500495-3.1005-1.5015s-1.1895-2.710488-1.1895-5.1285c0-4.238021.929491-7.487989 2.7885-9.75s3.958488-3.393 6.2985-3.393c.572003 0 1.091998.026 1.56.078s.909998.129999 1.326.234zm6.084 2.262v-2.223h2.223l.39-4.095 2.769-.429-.468 4.524h3.939l-.234 2.223h-3.939l-1.131 11.193c-.130001 1.352007-.045501 2.268498.2535 2.7495s.773497.7215 1.4235.7215c.494002 0 .929498-.039 1.3065-.117s.851497-.207999 1.4235-.39v2.457c-.650003.234001-1.215498.39-1.6965.468s-1.111496.117-1.8915.117c-1.326007 0-2.307497-.441996-2.9445-1.326s-.851501-2.378989-.6435-4.485l1.17-11.388zm21.294 10.842.975-10.842c-.338002-.078-.727998-.1365-1.17-.1755s-.870998-.0585-1.287-.0585c-1.456007 0-2.814494.896991-4.0755 2.691s-1.8915 4.432983-1.8915 7.917c0 1.586008.227498 2.697497.6825 3.3345s1.007497.9555 1.6575.9555c.676003 0 1.462496-.318497 2.3595-.9555s1.813495-1.592494 2.7495-2.8665zm1.638-13.104 2.34-.39-1.755 19.5h-2.691l.312-3.12h-.117c-.858004 1.196006-1.767995 2.073497-2.73 2.6325s-1.975995.8385-3.042.8385c-1.274006 0-2.307496-.500495-3.1005-1.5015s-1.1895-2.710488-1.1895-5.1285c0-4.238021.929491-7.487989 2.7885-9.75s3.958488-3.393 6.2985-3.393c.572003 0 1.091998.026 1.56.078s.909998.129999 1.326.234zm22.62-4.134h-.273l-5.07 14.118h7.956zm2.379-2.34 5.07 25.584h-3.237l-1.248-6.63h-9.321l-2.301 6.63h-3.12l9.828-25.584zm18.876 19.578.975-10.842c-.338002-.078-.727998-.1365-1.17-.1755s-.870998-.0585-1.287-.0585c-1.456007 0-2.814494.896991-4.0755 2.691s-1.8915 4.432983-1.8915 7.917c0 1.586008.227498 2.697497.6825 3.3345s1.007497.9555 1.6575.9555c.676003 0 1.462496-.318497 2.3595-.9555s1.813495-1.592494 2.7495-2.8665zm1.638-13.104 2.34-.39-1.755 19.695c-.234001 2.626013-1.078993 4.510994-2.535 5.655s-3.15899 1.716-5.109 1.716c-.988005 0-1.904496-.039-2.7495-.117s-1.761495-.207999-2.7495-.39v-2.691c.962005.260001 1.871996.454999 2.73.585s1.715996.195 2.574.195c1.482007 0 2.658496-.383496 3.5295-1.1505s1.397499-2.008491 1.5795-3.7245l.351-3.393h-.117c-.884004 1.196006-1.800495 2.073497-2.7495 2.6325s-1.956495.8385-3.0225.8385c-1.274006 0-2.307496-.500495-3.1005-1.5015s-1.1895-2.710488-1.1895-5.1285c0-4.238021.929491-7.487989 2.7885-9.75s3.958488-3.393 6.2985-3.393c.572003 0 1.091998.026 1.56.078s.909998.129999 1.326.234zm5.811 12.402c0-4.290021.857991-7.48149 2.574-9.5745s3.56199-3.1395 5.538-3.1395c1.586008 0 2.807996.389996 3.666 1.17s1.287 1.858993 1.287 3.237c0 2.184011-.922991 3.964993-2.769 5.343s-4.341984 2.067-7.488 2.067c0 2.132011.337997 3.568496 1.014 4.3095s1.637994 1.1115 2.886 1.1115c.884004 0 1.735496-.116999 2.5545-.351s1.644496-.571998 2.4765-1.014v2.535c-.910005.494002-1.806996.844999-2.691 1.053s-1.923994.312-3.12.312c-1.898009 0-3.360495-.558994-4.3875-1.677s-1.5405-2.911988-1.5405-5.382zm10.179-7.956c0-.780004-.207998-1.364998-.624-1.755s-1.000996-.585-1.755-.585c-.962005 0-1.936995.591494-2.925 1.7745s-1.611999 2.996488-1.872 5.4405c2.288011 0 4.055994-.474495 5.304-1.4235s1.872-2.099493 1.872-3.4515zm15.6 14.664 1.209-12.597c.156001-1.560008.045502-2.638997-.3315-3.237s-.890497-.897-1.5405-.897c-.572003 0-1.306496.246998-2.2035.741s-1.943494 1.260995-3.1395 2.301l-1.248 13.689h-2.769l1.716-18.915 2.769-.351-.273 2.925h.117c1.118006-1.118006 2.144995-1.910998 3.081-2.379s1.845996-.702 2.73-.702c1.352007 0 2.391996.487495 3.12 1.4625s.988001 2.619488.78 4.9335l-1.248 13.026zm18.291-6.006 1.014-10.842c-.338002-.078-.734498-.1365-1.1895-.1755s-.890498-.0585-1.3065-.0585c-1.456007 0-2.814494.896991-4.0755 2.691s-1.8915 4.432983-1.8915 7.917c0 1.586008.227498 2.697497.6825 3.3345s1.007497.9555 1.6575.9555c.676003 0 1.462496-.318497 2.3595-.9555s1.813495-1.592494 2.7495-2.8665zm4.719-21.333-2.496 27.339h-2.691l.312-3.12h-.117c-.884004 1.196006-1.800495 2.073497-2.7495 2.6325s-1.956495.8385-3.0225.8385c-1.274006 0-2.307496-.500495-3.1005-1.5015s-1.1895-2.710488-1.1895-5.1285c0-4.238021.929491-7.487989 2.7885-9.75s3.958488-3.393 6.2985-3.393c.494002 0 .942498.0195 1.3455.0585s.773498.0975 1.1115.1755l.702-7.8zm13.221 21.333.975-10.842c-.338002-.078-.727998-.1365-1.17-.1755s-.870998-.0585-1.287-.0585c-1.456007 0-2.814494.896991-4.0755 2.691s-1.8915 4.432983-1.8915 7.917c0 1.586008.227498 2.697497.6825 3.3345s1.007497.9555 1.6575.9555c.676003 0 1.462496-.318497 2.3595-.9555s1.813495-1.592494 2.7495-2.8665zm1.638-13.104 2.34-.39-1.755 19.5h-2.691l.312-3.12h-.117c-.858004 1.196006-1.767995 2.073497-2.73 2.6325s-1.975995.8385-3.042.8385c-1.274006 0-2.307496-.500495-3.1005-1.5015s-1.1895-2.710488-1.1895-5.1285c0-4.238021.929491-7.487989 2.7885-9.75s3.958488-3.393 6.2985-3.393c.572003 0 1.091998.026 1.56.078s.909998.129999 1.326.234zm25.155-6.825c2.626013 0 4.770992.99449 6.435 2.9835s2.496 4.725483 2.496 8.2095c0 4.862024-1.189488 8.592987-3.5685 11.193s-5.115485 3.9-8.2095 3.9c-2.652013 0-4.803492-.870991-6.4545-2.613s-2.4765-4.393982-2.4765-7.956c0-5.096025 1.130989-8.989487 3.393-11.6805s5.056983-4.0365 8.385-4.0365zm-.507 2.691c-2.184011 0-4.088492 1.065989-5.7135 3.198s-2.4375 5.21298-2.4375 9.243c0 3.120016.584994 5.316994 1.755 6.591s2.690991 1.911 4.563 1.911c2.02801 0 3.893491-.98149 5.5965-2.9445s2.5545-4.90748 2.5545-8.8335c0-3.250016-.584994-5.589993-1.755-7.02s-2.690991-2.145-4.563-2.145zm15.912 23.244-3.315-19.071h2.964l2.535 16.536h.156l1.053-2.145c.962005-1.95001 1.780997-4.049489 2.457-6.2985s1.260998-4.946484 1.755-8.0925h2.886c-.494002 3.016015-1.156996 5.732988-1.989 8.151s-1.832994 4.731989-3.003 6.942l-2.106 3.978zm11.973-6.708c0-4.290021.857991-7.48149 2.574-9.5745s3.56199-3.1395 5.538-3.1395c1.586008 0 2.807996.389996 3.666 1.17s1.287 1.858993 1.287 3.237c0 2.184011-.922991 3.964993-2.769 5.343s-4.341984 2.067-7.488 2.067c0 2.132011.337997 3.568496 1.014 4.3095s1.637994 1.1115 2.886 1.1115c.884004 0 1.735496-.116999 2.5545-.351s1.644496-.571998 2.4765-1.014v2.535c-.910005.494002-1.806996.844999-2.691 1.053s-1.923994.312-3.12.312c-1.898009 0-3.360495-.558994-4.3875-1.677s-1.5405-2.911988-1.5405-5.382zm10.179-7.956c0-.780004-.207998-1.364998-.624-1.755s-1.000996-.585-1.755-.585c-.962005 0-1.936995.591494-2.925 1.7745s-1.611999 2.996488-1.872 5.4405c2.288011 0 4.055994-.474495 5.304-1.4235s1.872-2.099493 1.872-3.4515zm15.6-4.485-.351 2.73c-.208001-.026-.389999-.0455-.546-.0585s-.350999-.0195-.585-.0195c-.728004 0-1.494996.337997-2.301 1.014s-1.572996 1.611994-2.301 2.808l-1.092 12.675h-2.769l1.599-18.915 2.769-.351-.351 3.588h.156c.884004-1.560008 1.657497-2.573998 2.3205-3.042s1.384496-.702 2.1645-.702c.234001 0 .461499.0195.6825.0585s.422499.110499.6045.2145zm11.154 19.149 1.209-12.597c.130001-1.560008.019502-2.638997-.3315-3.237s-.851497-.897-1.5015-.897c-.598003 0-1.351995.246998-2.262.741s-1.949994 1.260995-3.12 2.301l-1.248 13.689h-2.769l2.457-26.988 2.808-.351-1.053 10.998h.117c1.118006-1.092005 2.144995-1.878498 3.081-2.3595s1.845996-.7215 2.73-.7215c1.352007 0 2.391996.487495 3.12 1.4625s.988001 2.619488.78 4.9335l-1.248 13.026zm7.839-6.708c0-4.290021.857991-7.48149 2.574-9.5745s3.56199-3.1395 5.538-3.1395c1.586008 0 2.807996.389996 3.666 1.17s1.287 1.858993 1.287 3.237c0 2.184011-.922991 3.964993-2.769 5.343s-4.341984 2.067-7.488 2.067c0 2.132011.337997 3.568496 1.014 4.3095s1.637994 1.1115 2.886 1.1115c.884004 0 1.735496-.116999 2.5545-.351s1.644496-.571998 2.4765-1.014v2.535c-.910005.494002-1.806996.844999-2.691 1.053s-1.923994.312-3.12.312c-1.898009 0-3.360495-.558994-4.3875-1.677s-1.5405-2.911988-1.5405-5.382zm10.179-7.956c0-.780004-.207998-1.364998-.624-1.755s-1.000996-.585-1.755-.585c-.962005 0-1.936995.591494-2.925 1.7745s-1.611999 2.996488-1.872 5.4405c2.288011 0 4.055994-.474495 5.304-1.4235s1.872-2.099493 1.872-3.4515zm7.566-10.413c0-.598003.175498-1.072498.5265-1.4235s.812497-.5265 1.3845-.5265c.494002 0 .870999.136499 1.131.4095s.39.656498.39 1.1505c0 .520003-.168998.968498-.507 1.3455s-.805997.5655-1.404.5655c-.442002 0-.805999-.129999-1.092-.39s-.429-.636998-.429-1.131zm2.535 5.811-1.755 19.266h-2.769l1.716-18.915zm14.001 13.26 1.014-10.842c-.338002-.078-.734498-.1365-1.1895-.1755s-.890498-.0585-1.3065-.0585c-1.456007 0-2.814494.896991-4.0755 2.691s-1.8915 4.432983-1.8915 7.917c0 1.586008.227498 2.697497.6825 3.3345s1.007497.9555 1.6575.9555c.676003 0 1.462496-.318497 2.3595-.9555s1.813495-1.592494 2.7495-2.8665zm4.719-21.333-2.496 27.339h-2.691l.312-3.12h-.117c-.884004 1.196006-1.800495 2.073497-2.7495 2.6325s-1.956495.8385-3.0225.8385c-1.274006 0-2.307496-.500495-3.1005-1.5015s-1.1895-2.710488-1.1895-5.1285c0-4.238021.929491-7.487989 2.7885-9.75s3.958488-3.393 6.2985-3.393c.494002 0 .942498.0195 1.3455.0585s.773498.0975 1.1115.1755l.702-7.8z" fill="#000"/><path d="m679.784 102-10.36-29.68h-.336v29.68h-6.44v-36.736h11.088l10.416 29.68h.336v-29.68h6.44v36.736zm20.384 0v-36.736h7.28v30.8h12.432v5.936zm46.816 0h-10.36v-36.736h10.696c6.309365 0 11.143983 1.5213181 14.504 4.564s5.04 7.2893061 5.04 12.74c0 6.6453666-1.782649 11.5453176-5.348 14.7-3.565351 3.154682-8.409303 4.732-14.532 4.732zm-3.08-30.8v24.864h3.416c3.584018 0 6.458656-1.0266564 8.624-3.08s3.248-5.41331 3.248-10.08c0-3.7706855-1.110656-6.6639899-3.332-8.68s-5.217314-3.024-8.988-3.024zm37.52-5.936v36.736h-7.28v-36.736zm24.472 24.024v-5.936h12.376v17.976c-1.829342.373335-3.649324.643999-5.46.812s-3.705323.252-5.684.252c-5.562694 0-10.033316-1.483985-13.412-4.452-3.378684-2.9680148-5.068-7.3639709-5.068-13.188 0-6.6453666 1.903981-11.6199835 5.712-14.924s8.605304-4.956 14.392-4.956c1.680008 0 3.173327.0559994 4.48.168s2.613327.2986654 3.92.56l-.504 6.16c-1.530674-.2240011-2.911994-.373333-4.144-.448s-2.557326-.112-3.976-.112c-3.696018 0-6.654656 1.0919891-8.876 3.276s-3.332 5.3853122-3.332 9.604c0 4.0693537 1.073323 7.1493229 3.22 9.24s4.750651 3.136 7.812 3.136c.784004 0 1.446664-.0186665 1.988-.056s1.18533-.093333 1.932-.168v-6.944zm27.608-24.024v36.736h-7.28v-36.736zm23.184 5.936v30.8h-7.28v-30.8h-10.08v-5.936h27.44v5.936zm28.392 17.08-4.536-16.968h-.392l-4.536 16.968zm1.232-23.016 10.696 36.736h-8.4l-2.016-7.896h-12.432l-2.016 7.896h-7.56l10.752-36.736zm32.48 23.016-4.536-16.968h-.392l-4.536 16.968zm1.232-23.016 10.696 36.736h-8.4l-2.016-7.896h-12.432l-2.016 7.896h-7.56l10.752-36.736zm16.016 36.736v-36.736h7.28v30.8h12.432v5.936z" fill="#007bc7"/><g transform="translate(102 134)"><g transform="translate(487 154)"><path d="m101.2 87.3 4.7 62.7h-.9l-7.7-62.7z" fill="#1d2121"/><path d="m72.7 87.3-4.7 62.7h.9l7.6-62.7z" fill="#1d2121"/><path d="m30.7 159.1-3.3 13.1v-82.1h3.3z" fill="#402a1b"/><path d="m92.6 172.2 3.3-13.1v-69h-3.3z" fill="#402a1b"/><path d="m21.3 90.1h6.1v82.1h-6.1z" fill="#5b361e"/><path d="m86.5 90.1h6.1v82.1h-6.1z" fill="#5b361e"/><path d="m13 75.7h88.4v34.8h-88.4z" fill="#86532d"/><g fill="#402a1b"><path d="m101.4 110.5 5.2-11.8v-23h-5.2z"/><path d="m110.6 92.7h-109.8l15-26h103.9z"/><path d="m119.7 72.4-9.1 25.8v-5.5l9.1-25.8z"/></g><path d="m96.6 27.5s11.8 1.7 12.4 4.5 1 17.5 0 25.8-.1 12-5.9 11.9-31.7-1.6-31.7-1.6v-7l-6.4-.2-11-6.6s8.5-18.1 9.5-19.9 4.9-3.3 12.3-3.1 9.1.8 9.1.8z" fill="#6b9c53"/><path d="m83.9 34.3-5.5 3.2-2.6-6.4 2.6-2.5c0 .1 4.8 3.3 5.5 5.7" fill="#3a8835"/><path d="m81.6 31.5s1.9 1.6 2.3 2.7c0 0 6.5-3.9 7.9-8.2l-1.8-5.9z" fill="#f6b075"/><path d="m83.9 34.3 4.5 4.8 8.2-11.6-4.3-2.1z" fill="#3a8835"/><path d="m90 20.2-8.4 11.4s.7.6 1.4 1.4c2.6-1.5 5.9-5.5 6.5-6.4.7-1.2 1-2.6 1.2-4.1z" fill="#f19c55"/><path d="m71.5 11.7c-.3 1.8.6 4.4.9 5.7.4 1.3.2 6 1.6 8 1.5 2 4.2 7.5 6.7 6.9 2.6-.5 7.1-5.5 8-6.3.9-.9 2-3.6 1.5-5.8 0 0 .4-.4.7-1.2s.9-2.7.8-3.9c-.1-1-.5-2-1.5-1.3-1.1.7-1.3 2.5-1.3 2.5s-3.3-5.7-7.3-6.1c-3.9-.4-9.8-.5-10.1 1.5" fill="#f6b075"/><path d="m71.5 13.9s-2.5-1.9-1.8-5.6c.8-3.8 4.2-6.6 7.6-7.7 4.5-1.5 11 1.2 12.7 4.9 1.7 3.8 1 5 1 8.1 0 0-1.9-.4-2.1 4.6l-.7.5s-3.5-8-9.4-8c-6-.2-7.1 1.6-7.3 3.2" fill="#020203"/><path d="m71.5 13.9s-3.8-1.7-4-7.7c0 0 2.4.3 5.5-3.5 3.1-3.9 10.1-1.9 10.1-1.9v8.3s-10.2-.3-10.9 1.2c-.7 1.4-.7 3.6-.7 3.6" fill="#020203"/><path d="m103.1 34.3s-7.8 9.1-7.3 22.1c0 0-6.1 3.5-11.9 3.9s-12.5.7-12.5.7l-6.4-.2v-1.5s14.3-.2 16.8-.5c2.5-.2 10.3-2.2 11.1-4.4.9-2.2 2.8-14.9 10.2-20.1" fill="#3a8835"/><path d="m66.9 37.5-3.6 22.2 2.6 1.3z" fill="#3a8835"/><path d="m73.8 82v.6s.1.5 1 0 16.2-9.1 16.2-9.1.5-.5-.1-.9z" fill="#5b361e"/><path d="m72.5 82.5c.4 0 1-.1 1.4-.3l16.9-9.2c.3-.2.3-.4-.1-.4l-43.2-4.9c-.4 0-1 .1-1.3.3l-15.5 9.2c-.3.2-.3.4.1.5z" fill="#fff"/><path d="m73.8 82.4c0 .4-.3.7-.7.6l-42.3-4.9c-.4 0-.7-.4-.7-.8v-38.6c0-.4.3-.7.7-.6l42.3 4.9c.4 0 .7.4.7.8z" fill="#402a1b"/><path d="m73.8 82c0 .4-.3.7-.7.6l-42.3-4.9c-.4 0-.7-.4-.7-.8v-38.6c0-.4.3-.7.7-.6l42.3 4.9c.4 0 .7.4.7.8z" fill="#b4d0d6"/><g fill="#fff"><path d="m54.5 61.1c.3-.4.4-1 .4-1.6 0-1.7-1.4-3.3-3.2-3.5-1.7-.2-3.1 1-3.1 2.8 0 .6.2 1.2.4 1.7.8 1.6 1 2 1.1 2.7v1.9l1.7.2 1.7.2s0-.8 0-1.9c0-.7.1-1.1 1-2.5"/><path d="m51.8 65.7-1.2-.1c.2 1 1.2 1.1 1.2 1.1s1 .1 1.2-.8z"/><path d="m54 64.4c0 .3-.2.5-.5.5l-3.2-.3c-.3 0-.5-.3-.5-.6s.2-.5.5-.5l3.2.3c.2.1.4.3.5.6"/><path d="m53.8 64.3c0 .2-.2.4-.5.4l-2.9-.3c-.3 0-.5-.2-.5-.5 0-.2.2-.4.5-.4l2.9.3c.3 0 .5.3.5.5"/><path d="m54 65.5c0 .3-.2.5-.5.5l-3.2-.3c-.3 0-.6-.3-.6-.6s.2-.5.5-.5l3.2.3c.3 0 .6.3.6.6"/><path d="m51.8 53.8c.1 0 .2.1.2.2v1.3c0 .1-.1.2-.2.2s-.2-.1-.2-.2v-1.3c0-.1.1-.2.2-.2"/><path d="m49 54.2c.1 0 .2 0 .3.1l.6 1.2c.1.1 0 .2-.1.3-.1 0-.2 0-.3-.1l-.6-1.2c-.1-.1 0-.2.1-.3"/><path d="m46.9 56.1c.1-.1.2-.1.3-.1l1.1.8c.1.1.1.2.1.3-.1.1-.2.1-.3 0l-1.1-.8c-.1 0-.2-.1-.1-.2"/><path d="m46.1 58.8c0-.1.1-.2.2-.2l1.3.1c.1 0 .2.1.2.2s-.1.2-.2.2l-1.3-.1c-.1 0-.2-.1-.2-.2"/><path d="m46.9 61.8c-.1-.1 0-.2.1-.3l1.1-.5c.1 0 .2 0 .3.1s0 .2-.1.3l-1.1.5c-.1 0-.3 0-.3-.1"/><path d="m54.6 54.9c-.1-.1-.2-.1-.3 0l-.6 1c0 .1 0 .2.1.3s.2 0 .3 0l.6-1c0-.1 0-.2-.1-.3"/><path d="m56.7 57.2c-.1-.1-.2-.2-.3-.1l-1.1.5c-.1 0-.1.2-.1.3s.2.2.3.1l1.1-.5c.1 0 .2-.2.1-.3"/><path d="m57.5 60.1c0-.1-.1-.2-.2-.2l-1.2-.1c-.1 0-.2.1-.2.2s.1.2.2.2l1.3.1c.1 0 .1-.1.1-.2"/><path d="m56.9 62.9c.1-.1 0-.2-.1-.3l-1.1-.7c-.1-.1-.2-.1-.3 0s0 .2.1.3l1.1.7c.1.1.2.1.3 0"/><path d="m53.8 65.4c0 .2-.2.4-.5.4l-3-.3c-.3 0-.5-.2-.5-.5 0-.2.2-.4.5-.4l2.9.3c.4 0 .6.2.6.5"/></g></g><path d="m354.5 172c-.8.4-6.9 4.6-15.9 4.6s-16.7-4.5-17.6-4.7c-.9 1.3-1.6 3.2-1.6 3.2v.2l14.6 17.3c3.3.7 7.5.1 7.5.1l14.6-17.6v-.2s-1.5-2.9-1.6-2.9" fill="#293043"/><path d="m355.4 176c-.4-.7-.8-1.5-.8-1.4-.8.4-6.9 4.6-15.9 4.6s-16.7-4.5-17.6-4.7c-.3.5-.7 1.1-.9 1.7l-.7-.8v-.2s.8-1.9 1.6-3.2c.9.2 8.6 4.7 17.6 4.7s15.1-4.2 15.9-4.6c.1 0 1.6 2.8 1.6 2.8v.2z" fill="#2a2a2c"/><path d="m318.1 191.2c-5.6-2.7-18-10.1-23.2-21-.7-1.5 1.1-8 7-5.9 3.7 1.3 22.7 7.7 25.8 11.8 5 6.6 5.2 12.6 6.2 16.5-2.7 1.2-12.9-.1-15.8-1.4" fill="#293043"/><path d="m358 191.2c5.6-2.7 22-14.5 22.7-21.1.2-1.7 1.8-6.8-5.2-6.6-3.7 1.3-24.1 8.7-27.6 12.5-4.3 4.7-5.7 12.9-6.2 16.5 2.8 1.3 13.5.1 16.3-1.3" fill="#293043"/><path d="m320.5 188.1c5.4-.2 11.2-.9 13.4-1.4 6.4-2.6 41.5-22 41.5-22 5.7-1.5 7.2 3.5 5.5 6.5-4.5 7.9-8.7 12.4-24.6 14.5-4.7.6-13.7 3.3-18.5 5.1-.3 1.1-1.5 2.4-4.1 2.6-1.4.1-9.4 3-13.2 2.7-6.2-.5-6.2-3.3-6.2-4.5.1-1.3 1.6-3.3 6.2-3.5" fill="#9f6035"/><path d="m320.5 188.1c5.4-.2 11.2-.9 13.4-1.4.2-.1.3-.1.5-.2l4.3 3.9c-.3.1-.6.2-.9.3-.3 1.1-1.5 2.4-4.1 2.6-1.4.1-9.4 3-13.2 2.7-6.2-.5-6.2-3.3-6.2-4.5.1-1.2 1.6-3.2 6.2-3.4" fill="#1c3f7e"/><path d="m320.6 196.1c-6.2-.5-6.2-3.3-6.2-4.5 0-1.1 1.2-2.8 4.6-3.3.9.7 2.2 3 2.3 6 7 .3 13.2-2.2 16.5-3.5-.3 1.1-1.5 2.3-4.1 2.6-1.3.2-9.4 3-13.1 2.7" fill="#dce8ef"/><path d="m330.9 186.6c.8 1.3 1.2 2.7 1.2 4.2v.3c0 .3-.2.5-.5.5s-.5-.2-.5-.5v-.3c0-1.3-.4-2.6-1-3.7-.2-.3-.1-.6.2-.7.2-.1.5 0 .6.2" fill="#e7e8e9"/><path d="m329 186.9c.8 1.3 1.2 2.7 1.2 4.2v.1.3c0 .3-.2.5-.5.5s-.5-.2-.5-.5v-.3-.1c0-1.3-.4-2.5-1-3.6-.2-.2-.1-.6.2-.7.2-.2.5-.1.6.1" fill="#e7e8e9"/><path d="m327.1 187.2c.8 1.3 1.2 2.7 1.2 4.2v.1.3c0 .3-.2.5-.5.5s-.5-.2-.5-.5v-.3-.1c0-1.3-.4-2.5-1-3.7-.2-.2-.1-.6.2-.7.1-.1.5-.1.6.2" fill="#e7e8e9"/><path d="m325.5 187.4c.8 1.3 1.2 2.7 1.2 4.2v.3c0 .3-.2.5-.5.5s-.5-.2-.5-.5v-.3c0-1.3-.4-2.6-1-3.7-.2-.3-.1-.6.2-.7.1-.2.4-.1.6.2" fill="#e7e8e9"/><path d="m337.5 185.1c.3-.2.7-.4 1.1-.6h.1c-.4.2-.8.4-1.2.6" fill="#272e40"/><path d="m344.4 187.4c-.9-.1-1.6-.3-2.1-.4-.9-.2-2.6-.9-4.8-1.9l1.2-.6c1.5.8 3.2 1.8 3.6 2 .2 0 .9.1 1.8.3 0 .1 0 .2.1.2 0 .1.1.2.2.4" fill="#975b32"/><path d="m336.9 191.2c-1.2-.5-3-1-4.8-1.5-.1-.4-.1-.8-.3-1.2 2.3.6 4.4 1.3 5.9 1.9 0 .1.1.3.1.4-.3.2-.6.3-.9.4" fill="#1b3c78"/><path d="m330.9 189.5c-.1 0-.3-.1-.4-.1.1-.1.2-.3.3-.4.1.1.1.3.1.5" fill="#1b3c78"/><path d="m337.5 191.6c-.2-.1-.4-.2-.7-.3.4-.1.7-.3 1-.4 0 .2-.1.4-.3.7" fill="#d1dce3"/><path d="m332.1 189.8c-.4-.1-.7-.2-1.1-.3 0-.2-.1-.4-.1-.5.1-.2.3-.4.4-.5.2.1.4.1.6.2 0 .2.1.7.2 1.1" fill="#dbdcdd"/><path d="m375.5 163.6s-19.2 11.1-31.8 17.8c0 2.4.3 5 .5 5.5.4 1 3.1 4.5 4.3 5.9 4.5-3 6.7-4.3 9.4-5.2 18.4-5.6 20.1-8.2 24.6-16.1 1.7-2.9-1.3-9.4-7-7.9" fill="#2e364d"/><path d="m382.9 170.4v-.1zm-.1-2.3c0-.1 0-.2-.1-.2v.1zm-.6-1.4c0-.1-.1-.1-.1-.2.1.1.1.1.1.2z" fill="#b3d4e5"/><path d="m356 188.4c-3.7 0-8.6-.5-11.7-1-.1-.2-.2-.3-.2-.4 5.5-1.9 31.9-11.1 37-20.7.1-.2.3-.4.4-.6.1.1.2.2.3.3v.1c.1.1.1.2.2.3v.1s0 .1.1.1c0 .1.1.1.1.2v.1c0 .1.1.2.1.2v.1.1c0 .1.1.1.1.2v.1.1l.1.3c0 .1 0 .2.1.2v.1.1.1.2.2.2.2.2.5.1.2.1.1.1.2.2.1l-.1.2v.1c0 .1-.1.2-.1.3-4.5 7.9-6.1 10.5-24.6 16.1-.5.1-1.1.3-1.8.6" fill="#2c3349"/><path d="m344.2 187c0-.1 0-.2-.1-.3 2.8.7 7.2 1.6 11 1.7h1c-2 .9-4.1 2.2-7.6 4.5-1.2-1.4-3.9-4.9-4.3-5.9" fill="#333334"/><path d="m300.6 165.3s35.7 20.3 41.7 21.7c2.4.5 9 1.3 13.8 1.4 4.6.1 5.2 2.2 5.2 3.5 0 1.2-2.6 4-4.5 4.2-5.9.8-12.9-1.9-14.3-2.1-2.9-.3-4.5-2.4-4.7-3.6-4.5-1.8-14.3-4-18.4-4.5-16-1.9-20.1-7.3-24.6-15.2-1.8-3 .1-6.9 5.8-5.4" fill="#9f6035"/><path d="m300.5 163.9s19.2 11.1 31.8 17.9c0 2.4-.3 5-.5 5.5-.4 1-3.1 4.5-4.3 5.9-4.5-3-6.7-4.3-9.4-5.2-18.4-5.6-20.1-8.2-24.6-16.1-1.7-3 1.3-9.5 7-8" fill="#2e364d"/><path d="m293.3 168.3v-.1z" fill="#b3d4e5"/><path d="m327.5 193.2c-.4-.3-.8-.5-1.2-.8-.3-.2-.5-.3-.8-.5-2.8-1.8-4.6-2.8-6.5-3.6-.1 0-.1-.1-.2-.1-.3-.1-.5-.2-.8-.3-18.4-5.6-20.1-8.2-24.6-16.1-.1-.1-.1-.2-.1-.3l-.1-.1-.1-.2v-.1l-.1-.2v-.1-.2-.2-.2-.2-.2-.2-.2-.2-.2-.2l.1-.2v-.1l.1-.2v-.1l.1-.3v-.1s0 0 0-.1.1-.2.1-.2v-.1c0-.1.1-.2.1-.3v-.1s0 0 0-.1.1-.2.1-.3v-.1c.1-.1.1-.2.2-.3v-.1c.1-.1.2-.2.2-.3.1.2.2.4.4.6 5.1 9.6 31.5 18.9 37 20.7 0 1.2-2.6 4.5-3.9 6.1.1-.1.1-.1 0 0" fill="#2c3349"/><path d="m338.6 176.6c1.1 0 2.1-.1 3-.2v2.4c0 .3-.3.6-.6.6h-4.8c-.3 0-.6-.3-.6-.6v-2.4c1 .2 2 .2 3 .2" fill="#333334"/><path d="m336.2 176.5v1.8c0 .2.2.4.4.4h4.1c.2 0 .4-.2.4-.4v-1.8h.6v2.4c0 .3-.3.6-.6.6h-4.8c-.3 0-.6-.3-.6-.6v-2.4z" fill="#dcddd9"/><path d="m333.4 126.3c-1.9-.9-5-4.5-6-12.1-.7-5.6-1.5-12.1 5.4-13.2 4.3-1.4 14.8-2.6 16.7 4.7.9 8.6-1.9 21.1-6.2 20.7-.1 2.7-4.7 2-5.9 2.3-2.8.7-4-2.4-4-2.4" fill="#402f1a"/><path d="m365.5 168c-4 1.4-8.3-2.4-8.3-2.4s-1.9-10.8-1.4-13.6c2.7-.2 9.7-2 10.9-4.2 1.8 8.9-1.2 15.5-1.2 20.2" fill="#9f6035"/><path d="m362.3 167.8c-2.2-.8-5.1-2.2-5.1-2.2s-.4-2.2-.8-4.9c3.1 1 6.3 4.3 6.4 6.1v.2c0 .3-.2.6-.5.8" fill="#975b32"/><path d="m312.8 150.4c-1.2-5.2-.1-14.3 5.7-18.6 6.9-3 23.5-8.8 40.8-1.2 8.6 3.7 7.3 13.3 7.5 17.3-1.9 2.8-9 5.4-11.2 5.2-.7 1-1.6 15.4-1 19-4.6 3.4-7.7 4.6-15.9 4.6-8.7 0-10.5-.1-17.2-4.7.8-3.5 2.4-18 2.1-19-.7.6-9.6 2.6-10.8-2.6" fill="#e16f0d"/><path d="m331.9 131.7c-.6-.5-.9-1.4-.7-2.1.2-1.7.6-5 .3-7-.4-2.7 13.9-1.2 13.9-1.2s.1 5.3.5 7.9c.1.7-.1 1.4-.5 1.9-1.2 1.4-3.6 2.8-6.7 3-3.2.3-5.5-1.4-6.8-2.5" fill="#93572c"/><path d="m348.7 114.7c.4 0 .9.4 1 .8.3 1.4-.3 4.4-1 5.1-.6.5-1.6.7-1.6.7z" fill="#9f6035"/><path d="m347.6 119.3c-.3-.1-.5-.6-.5-1.2v-.3c0-.1 0-.2 0-.3.1-.9.5-1.6.9-1.7h.1c.1 0 .2.1.3.3z" fill="#3d2d19"/><path d="m347.7 119.3c-.1 0-.1 0-.2 0l.8-3.2c.1.2.1.5.1.8v.5c0 .2 0 .5-.1.7 0 .9-.2 1.2-.6 1.2" fill="#975b32"/><path d="m328.5 114.7c-.4 0-1 .4-1.1.8-.3 1.3 0 3.8.9 4.7.6.6 1.4.8 1.4.8z" fill="#9f6035"/><g transform="translate(328 115)"><path d="m1.4 4.3-.6-3.4.1-.1h.1c.4 0 .8.8.9 1.7v.3.3c0 .6-.2 1.1-.5 1.2" fill="#3d2d19"/><path d="m1.2 4.3c-.4 0-.6-.4-.7-1.3-.1-.8-.1-1.9.2-2.1l.6 3.4c.1 0 0 0-.1 0 .1 0 .1 0 0 0" fill="#975b32"/></g><path d="m346.3 112.2c1.1.5.6 5.6.6 6.8 0 .5.5.3.8.3 0 2.1-.2 4.9-.6 6.3-.3 1.2-5.4 5-8.4 5s-8.5-4.5-8.8-5.7c-.4-1.6-.3-3-.5-5.6.4.1.7.1.7-.3 0-.5-.7-7 2.3-8.3 1.9 1.4 11.7 2.1 13.9 1.5" fill="#9f6035"/><g transform="translate(346 143)"><path d="m8.8 15.7s0-.1-.1-.1c.2-2.9.5-5.2.8-5.6-.1.4-.4 2.8-.7 5.7" fill="#b3d4e5"/><path d="m8.8 15.6c-1.6-3-4.2-4.3-8.2-4.7 2.4-.4 8.9-.8 11.3-10.7 0 .1 0 .2.1.4-.3.1.3 3.9-2.4 9.5-.3.3-.6 2.6-.8 5.5" fill="#d6690c"/></g><path d="m323.5 153.4c0-.1 0-.3-.1-.4.1 0 .1.2.1.4" fill="#b3d4e5"/><path d="m324.1 158.5c0-.4-.1-.8-.1-1.1-.2-1.6-.3-3.1-.4-4 0-.2 0-.3-.1-.4.3-2.9-.4-7-.2-7.1.8 8.2 3.2 9.7 6.4 10-1.2.2-3.6.2-5.6 2.6" fill="#d6690c"/><path d="m341.5 186.8c.3.1.6.2.8.2 2.4.5 9 1.3 13.8 1.4 4.6.1 5.2 2.2 5.2 3.5 0 1.2-2.6 4-4.5 4.2-5.9.8-12.9-1.9-14.3-2.1-2.9-.3-4.5-2.4-4.7-3.6 0 0 2.8.8 2.2-.6-.6-1.2.1-2.6 1.5-3 0 0 .1 0 0 0" fill="#1c3f7e"/><path d="m354.9 194.8c-.9-2.7 0-5.2.7-6.4h.5c4.6.1 5.2 2.2 5.2 3.5 0 1.2-2.6 4-4.5 4.2-5.9.8-12.9-1.9-14.3-2.1-1.4-.1-2.5-.7-3.3-1.4 3.9 1.1 15.7 4.1 15.7 2.2" fill="#dce8ef"/><path d="m345.8 187.6c-.7 1.1-1 2.4-1 3.6v.3c0 .3-.2.5-.5.5s-.5-.2-.5-.5v-.3-.1c0-1.5.4-2.9 1.2-4.2.2-.3.5-.3.7-.2.1.3.2.6.1.9z" fill="#e7e8e9"/><path d="m347.7 187.9c-.7 1.1-1 2.4-1 3.7v.3c0 .3-.2.5-.5.5s-.5-.2-.5-.5v-.3c0-1.5.4-2.9 1.2-4.2.2-.3.5-.3.7-.2.1.1.2.4.1.7z" fill="#e7e8e9"/><path d="m349.6 188.1c-.7 1.1-1 2.4-1 3.6v.3c0 .3-.2.5-.5.5s-.5-.2-.5-.5v-.3-.1c0-1.5.4-2.9 1.2-4.2.2-.3.5-.3.7-.2.2.3.2.7.1.9z" fill="#e7e8e9"/><path d="m351.2 188.3c-.7 1.1-1 2.4-1 3.6v.3c0 .3-.2.5-.5.5s-.5-.2-.5-.5v-.3-.1c0-1.5.4-2.9 1.2-4.2.2-.3.5-.3.7-.2.2.3.3.6.1.9z" fill="#e7e8e9"/><path d="m354.5 172c0-.2-.1-.5-.1-.9.1.4.1.7.1.9" fill="#b3d4e5"/><path d="m348.2 175.5c-4-2.3-7.9-5.4-7.9-5.4-.1-.4-3.6-.3-4.9-.8-.4-.4-.6-1.3-.6-2.3v-.9c0-1.3.2-2.4.2-2.4v-1.5-.4c0-.5.7-.8 1.5-.8h6.2c.8 0 1.5.4 1.5.8v.4 1.5c.4-.4.9-.5 1.3-.5h.1c.5 0 .3.7.4 1.1l1.1 2.2s1.7.9 3.8 2.1l3.6 2.2v.4c0 .3.1.6.1.9-.1.1-.3.2-.4.3-2.1 1.4-3.9 2.4-6 3.1" fill="#d6690c"/><path d="m343.7 162.7c3.9 1.3 9.5-1.1 13.8.2 5.1 1.5 6.1 2.2 7.7 4 1.4 1.5-1.3 4.9-7.6 4.7-6.3-.1-11.4-2.7-16.5-4.9-5-2.3-4.8-8 2.6-4" fill="#9f6035"/><path d="m317.1 169.9c4.2.6 7.7-3.9 7.7-3.9s-1-10.7-1.4-13c-2.7.3-9.1-.7-10.7-2.6.1 9 3.5 14.9 4.4 19.5" fill="#93572c"/><path d="m322.1 168.5.1-.1s0 .1-.1.1zm2.3-2c.2-.2.3-.4.4-.5-.1.2-.2.3-.4.5m-.1-6.4c-.1-.5-.1-1.1-.2-1.6 0 .5.1 1.1.2 1.6" fill="#d6690c"/><g transform="translate(318 157)"><path d="m6.1 1.5c0-.4-.1-.8-.1-1.1 0 .3.1.7.1 1.1z" fill="#cb640c"/><path d="m3.4 11.5c-2 0-3.2-.9-3-2 .4-2.1 3.2-7.2 5.5-9.1 0 .4.1.8.1 1.1.1.5.1 1.1.2 1.6.3 2.9.6 5.6.6 5.9l-.1.1c-.1.1-.2.3-.4.5s-.4.4-.7.7c-.1.1-.3.3-.5.4s-.3.3-.5.4c-.1.1-.3.2-.5.3l-.1.1c-.1 0-.4 0-.6 0" fill="#8c532a"/></g><path d="m332.7 155.7c-2.6 3.2-8.4 2.9-11.3 6.2-3.5 3.9-3.9 5.1-4.4 7.5-.4 2 3.7 3.4 8.9-.1s8.2-8.4 11.3-13c3-4.6-.4-8-4.5-.6" fill="#93572c"/><path d="m330.5 157.3c1.7-2.3 2.3-5.3 3.4-6.6.8-.9 4.3-2 5.7-2.1.5 0 1 .2 1.4.6l3.2 3.7-10.6 6.5c0 .1-4.7.3-3.1-2.1" fill="#93572c"/><path d="m337.4 149.9h6.2c.8 0 1.5.7 1.5 1.5v11.8c0 .8-.7 1.5-1.5 1.5h-6.6c-.8 0-1.1-.7-1.1-1.5v-4.8-3.4-3.6c-.1-.8.6-1.5 1.5-1.5" fill="#d1d2d4"/><path d="m337.4 150.8h6.2c.8 0 1.5.7 1.5 1.5v11.3c0 .8-.7 1.5-1.5 1.5h-6.6c-.8 0-1.1-.7-1.1-1.5v-4.3-3.4-3.6c-.1-.9.6-1.5 1.5-1.5" fill="#fff"/><path d="m337.7 151.9c.3 0 .6.2.6.4s-.3.4-.6.4-.6-.2-.6-.4c0-.3.3-.4.6-.4" fill="#2a1b40"/><path d="m333.3 154.3c.4-.1.8.1 1.2.3 1.8.8 8.1 4.3 9.4 4.2 1.5-.1.9-2.1.9-2.1 0-.5 0-1 .2-1.5.4-1.1 1-1.2 1.4-1.2.5 0 .3 1.3.4 2l1.1 4-1.8 5.5-5 1c-.1-.5-3-.8-4.7-1.6-1.2-.5-1.6-1.7-1.4-2.1.2-.3.2-.6 0-.9-.2-.4-.2-1 0-1.3s.2-.6 0-.9c-.4-.7-.1-1.7.8-1.6 1.2.4 2.1 1.3 1.8.2-1.1-.8-4.7-2.7-4.9-3.4-.1-.1-.1-.5.6-.6" fill="#9f6035"/><path d="m100.4 190-1.6-3.4-10.6-.6 1 2.4-13.3 4.3s-.9.6-1.8 1.8c-.4.5 0 1.3.7 1.3l13-.4c.5-.1 1-.2 1.6-.3h.1c1.2-.3 2.3-.5 3.3-.8l.5.7 6.6-.2c.1 0 .2-.1.3-.1.8-.4.2-4.7.2-4.7" fill="#d9d9d9"/><path d="m114.2 191.4-1.4-3.4-10.5-.9.9 2.4-13.4 3.9s-.9.6-1.8 1.6c-.5.6 0 1.4.7 1.4h12.9c.5-.1 1.1-.2 1.6-.3h.1c1.2-.2 2.3-.5 3.4-.7l.5.7h6.6c.1 0 .2-.1.3-.1.6-.2.1-4.6.1-4.6" fill="#d9d9d9"/><path d="m89.7 100.6-3.6 44s2 26 .5 43.7c12.3 1 13.9 1.2 13.9 1.2s3.8-35.3 2.5-42.3c4.9-22.5 11.5-46.2 11.5-46.2z" fill="#0b9486"/><path d="m88.6 102.1 1.1 43.6s6.1 27.5 8.7 44.8c14.9.9 16.4-.9 16.4-.9s-5.3-37.4-7.6-44.1c1.8-22.9 8.8-44.9 8.8-44.9z" fill="#7fc6b1"/><path d="m91.7 32.7s4.9 8.4-1.4 17.5c-1.2 1.7 16.8-13.2 16.8-13.2s-3.4-8.1-3-9.4c.5-1.3-2.4-2.4-2.4-2.4z" fill="#f0b785"/><path d="m101.8 26.9c-.9.8-1.5 2-2.6 2.6-.6.3-.5.5-2.6 2-.6.4-1.4.6-2.1.8-1.5.4-3.1.9-4.6 1.3-.4.1-.8.2-1.2.2-.9-.1-1.5-.7-2-1.4-.1-.1-.2-.2-.2-.4-.1-.6.6-1.1.4-1.6-.1-.3-.4-.4-.6-.6-.2-.3-.1-.8 0-1.2-.4.1-.6-.3-.7-.7-.1-.3 0-.7-.2-1-.3-.5-1-.6-1.5-.8-.2-.1-.3-.3-.2-.5.3-.7.7-1.4 1.2-2.1.5-.6 1-1.2 1-1.9 0-.4-.3-.8-.5-1.3-.3-.9.3-1.8.5-2.8.2-.7.1-1.4.2-2.1s.3-1.5.9-1.9c1.7-1.4 2.4-3.1 4.4-4 3.6-1.6 8-1 11.5.7 1.1.5 2.1 1.2 2.9 2.1.6.7 1 1.5 1.3 2.4.7 1.9.8 3.9.3 5.9-.5 1.9-1.7 3.7-3.4 4.9-.7.4-1.5.9-2.2 1.4" fill="#f9bf8e"/><path d="m68.1 80.2c-.2-.1-1 0-1.3 0-.8 0-1.7 0-2.5 0-1.6 0-3.2.6-4.8.6-.5 0-2-.1-2.4.2-.1.1-.1.2 0 .3.5 1.7 2.8 1.1 4.2 1 .5 0 1.1.1 1.6.1-1.3.7-2.5 1.4-3.8 2.1-.7.4-4.5 2.3-3.9 3.1.3.4 1 .1 1.3 0 1.6-.6 3.1-1.3 4.6-2.1-1.2.7-2.4 1.4-3.7 2.1-.6.3-2.7 1.7-2.1 2.4.2.2.5.3.7.2 1.9-.7 3.6-1.8 5.2-3-1.2.9-2.5 1.7-3.7 2.6-.3.2-.9.7-.7 1.2.2.6 1.1.3 1.4.2 1.6-.8 3-1.6 4.5-2.6-.8 1-4.4 3.3-3.2 3.5.4.1.7-.1 1-.2 1.9-.9 3-1.4 4.9-2.2.8-.4 1.9-1 2.6-1.5.9-.6 1.5-1.1 2.4-1.6 1.2-.8 1.7-1.6 2.6-2.7z" fill="#f9bf8e"/><path d="m105 29.2c.3-.5.6-.9.8-1.4.7-1.8 1.4-3.6 1.9-5.4.5-1.9 1-3.8.9-5.7 0-1.9-.6-3.9-1.8-5.5-1.2-1.5-2.9-2.6-4.8-3.1-1.9-.6-3.9-.7-5.9-.6-1.5.1-3 .3-4.5.6-.7.2-1.6.3-2.1.7-.6.3-.9.8-1.6 1.1-.8.3-1.7.5-2.6.4-.1 0-.3 0-.4.1-.2.1-.1.4 0 .6 1.6 3.7 7 3.4 8.5 7.2.3.9.4 1.8.6 2.7.1.9.5 1.8.6 2.7 0 .6-.3 1.3.3 1.7.3.2 1.5-.3 1.5-.4 0-.8 0-1.7.3-2.4.2-.8.7-1.5 1.5-2 .8-.4 1.8-.4 2.5.2.8.7.7 1.8.5 2.8-.2 1.4-1.1 3-2.7 3.2.7.2 1 .8 1.2 1.4 0 .1.1.3.2.4s.2.1.4.1c2.1 0 3 .6 4.3 2-.1-.6.2-1 .4-1.4" fill="#5a4b42"/><path d="m96.9 53.7c-2.3.2-4.8 1.5-5.4 4.1-.8 3.1-2.2 5.9-3.3 8.9s-2.8 4.1-5.6 5.7c-3.7 2.1-9.3 4.6-9.3 4.6-1.8 1-3.9 1.8-5.4 3.2 1 1.9 1.9 3.9 2.8 6 3-.8 13.7-5 17.1-6.1 3.3-1.1 13.9-13.2 14.4-17.2.5-3.9-.1-9.6-5.3-9.2" fill="#f9bf8e"/><path d="m86.7 102.7h31.2c-1.3-7.2-2.2-15.3-2.3-24.4-.1-4.2.1-8.3.3-12.1.3-4.9-.1-9.9-1.4-14.7 0 0-.5-3.2-2.2-7.5-2.4-6.1-5.3-8.5-5.3-8.5l-6 2.8c-3.1 2.3-7.6 6.1-10.8 11.9-4.2 7.6-3.7 14.1-3.6 34.4.2 4.2.2 10.4.1 18.1" fill="#7fc6b1"/><path d="m98.8 108.4c-.9-.6-1.7-1.2-2.6-1.8-.2-.2-.5-.6-.8-.6-.1 0-.3-.1-.4.1-2 2.2-3 2.5-4.1 4.2-.2.3-.5 2.6-.2 2.6-.5 1-.6 1.4-1.1 2.4-.2.5-1.2 5.1.3 4.8.5-.1.8-3.2 1.1-3.6.5-.8 1.1-2 1.7-2.6-.5 1.5-1.5 4.6-2 6.1-.2.5-.3 1.2.1 1.5.3.2.6 0 .9-.2s.6-.8.7-1.2c.7-1.6 1.4-3.2 2.2-4.8-.4 1.8-1.3 3.7-1.9 5.5-.1.3 0 .9.2 1.1.2.1.5.1.7 0 .7-.7 1.1-1.9 1.5-2.8.7-1.4 1.2-2.6 1.6-2.9-.7 1.2-.8 1.6-2.2 4.4-.1.2-.2 1 0 1.1s.9-.2 1.1-.4c2.3-3 2.5-3.9 3.6-5.8 1.1-1.7.8-3.2 1.8-5 0-.1-2-2-2.2-2.1" fill="#f9bf8e"/><path d="m19.6 94.4c.5.9 1.2 2.4 1.8 4-.3.2-.7.4-1 .7-2.6 1.6-6.1 2.9-8.8 4.2-1.3-2.4-2.1-6.2-3.6-8.5-3.6-5.9-8-23.9-7.5-25.9 1.4-6 2.9-12 4.1-18 .7-3.4 2.4-9.7 6.5-11.1.3-.1.6-.2.9-.2 6.7-.9 7.9 7.6 7.5 11.9-.4 3.5-1.6 6.9-2.9 10.2-2 5.4-4.3 5.4-2.7 11 1.5 5.9 2.8 16.2 5.7 21.7" fill="#374549"/><path d="m19.3 187.5 1.9-3.4 11 .2-1.3 2.4c2 1.1 4.6 2.2 7.7 3.1 2.3.7 4.5 1.1 6.3 1.3.1 0 2.1.8 1.7 2-.7 2.2-16 .5-16.6.4h-.1c-1.2-.3-2.3-.7-3.4-1.1l-.6.7-6.8-.7c-.1 0-.2-.1-.3-.1-.5-.3.5-4.8.5-4.8" fill="#161618"/><path d="m1.2 189.7 1.7-3.5 11-.3-1.2 2.5c1.4 1 3.5 2.2 6.2 3.2 2.9 1.1 5.5 1.5 7.4 1.6 1.1.2 1.2 1.1 1.8 1.8.5.6-.1 1.4-.8 1.4l-13.3-.8c-.5-.1-1.1-.3-1.6-.4h-.1c-1.2-.3-2.3-.6-3.4-.9l-.5.7-6.8-.4c-.1 0-.2-.1-.3-.1-.9-.3-.1-4.8-.1-4.8" fill="#1e1d1f"/><path d="m33.4 97.7 7.5 45.2s-8.3 26-6.8 44.4c-12.7 1-14.9-3.2-14.9-3.2s1.5-32.3 2.9-39.5c-5-23.3-16.9-46.3-16.9-46.3z" fill="#1e2527"/><path d="m34.4 98.3-3.3 46.2s-11.4 27.3-14 45.2c-14.6-2.4-15.5-2.4-15.5-2.4s9-36.2 11.4-43.1c-1.9-23.7-9.1-46.5-9.1-46.5z" fill="#273035"/><path d="m31.3 28c-.2.1-.6.4-.9.7-1.1 1.1-1 2.8-1.5 3.9-.2.6-1.3 1.9-2.5 2.6-3.9 2.3-12.8-4.7-12.8-4.7s5.2-8.2 4.9-9.7c-.3-1.4 3-2.2 3-2.2z" fill="#854b29"/><path d="m21.3 20.4c.9 1 1.3 2.4 2.4 3.2.6.4.5.6 2.5 2.4.6.5 1.4.8 2.1 1.1 1.6.7 3.2 1.3 4.8 2 .4.2.8.4 1.3.4 1 .1 1.8-.6 2.4-1.2.1-.1.2-.2.3-.4.2-.6-.5-1.2-.2-1.8.2-.3.5-.4.8-.6.3-.3.2-.8.2-1.3.1.5 1-.9 1-.9.4-.5.2-.5.8-.7.6-.1.9.1 1.5-.3 1.4-1.1-.2-2.4-.8-3.4-.4-.7-.9-1.4-.7-2.1.8-2.8 2.2-4.7 1.3-7.8-.8-2.4-2.7-4.6-5-5.9-3.8-2.1-8.6-2.3-12.8-.9-1.3.4-2.5 1-3.5 1.8-.8.7-1.4 1.5-1.9 2.4-1.1 1.9-1.6 4.1-1.4 6.2s1.2 4.2 2.8 5.7c.7.8 1.5 1.4 2.1 2.1" fill="#9f6035"/><path d="m18.1 21.9c-.2-.1-.4-.4-.6-.6-3.2-5.4-2.9-12.3.7-17.5 1.3-1.9 4.4-3 6.7-3.4 4.9-.8 9.1.8 12.8 3.7.3.3.7.6.7 1-.7-.3.8.1 0 0 0 0-3.7 2.6-3.5 4.3.1.6-.3 1.3-.8 1.7-1.6 1.4-2 1.7-2.7 3.8-.3.9-.9 1.9-1.1 2.8-.1.6.1 1.4-.6 1.7-.4.1-1.6-.5-1.6-.6.1-.9.2-1.7.1-2.6s-.5-1.7-1.3-2.3c-.8-.5-1.9-.7-2.7-.2-1.5 1-1.4 4.8-1.7 6.5-.1.3-.1.6-.4.8-.2.2-.5.3-.8.3-.7.2-1.5.3-2.2.5-.3.1-.6.1-.9 0z" fill="#111"/><path d="m26.8 33.8c.4 1 1.3-.1 1.9 1.8 2.2 7.2 2.9 12.8 3 14.3.2 1.8.4 4.3.4 7.3-5.7-7-10.8-10.7-13.6-14.2-3.7-4.5-6.2-8.3-6.4-9.5s0-2.5 1.4-3.7c3.4-3 10.9 2.4 10.9 2.4z" fill="#dddedf"/><path d="m15.1 26.1 13.3 8.3-3.6 1.5-11.9-5.5z" fill="#fff"/><path d="m36.3 100h-34.6c1.3-7.4 1.2-16.4 1.3-25.7.1-4.4-.7-8.6-.9-12.5-.3-5.1-.1-9.7 1.3-14.7l3.9-8 5.6-8.7 6.2 2.9c3.2 2.3 7.9 6.3 11.2 12.3 4.4 7.9 6.1 14.4 6 35.5 0 4.3-.1 10.9 0 18.9" fill="#2b383d"/><path d="m14.3 27.6s12.6 10.5 17.4 20.4c-8.3-7.6-11.6-7.6-11.6-7.6v-5.4l-3.5 2.7-4.1-7.5z" fill="#3c5656"/><path d="m17.9 86.2h11v3.6h-11z" fill="#3c5656"/><path d="m52 84.5c.2-.1 1.1.2 1.4.2.9.2 1.8.3 2.7.5 1.7.3 3.3 1.2 5 1.6.5.1 2.2.2 2.5.7.1.1 0 .2 0 .4-.9 1.8-3.3.6-4.7.3-.5-.1-1.2-.1-1.7-.2 1.2 1 2.4 2 3.7 3 .7.6 4.3 3.4 3.6 4.1-.4.4-1.1 0-1.4-.3-1.6-.9-3.1-2-4.5-3.1 1.2 1 2.3 2 3.5 3 .5.5 2.5 2.3 1.7 3-.2.2-.6.2-.8 0-1.9-1.2-3.5-2.7-4.9-4.3 1.2 1.2 2.3 2.4 3.5 3.6.3.3.8 1 .5 1.4-.4.6-1.2.1-1.6-.1-1.6-1.2-2.9-2.3-4.3-3.7.7 1.3 4 4.4 2.6 4.4-.4 0-.7-.2-1-.5-1.8-1.3-3-2.1-4.8-3.4-.8-.5-1.9-1.5-2.5-2.2-.8-.8-1.4-1.4-2.2-2.2-1.2-1.1-4.7-4-5.4-5.3z" fill="#9f6035"/><path d="m18.3 38.9c3 .8 6.1 3.2 6.2 6.9.2 4.4 1.3 8.6 1.9 13 .6 4.3 2.6 6.3 6 9.2 4.4 3.8 14.3 10.3 14.3 10.3 2.2 1.8 4.8 3.4 6.5 5.7-1.9 2.4-3.8 4.9-5.6 7.4-3.9-1.8-22.4-10.2-26.8-12.5-4.2-2.3-14.7-22.5-14.2-28.2.5-5.4 4.8-13.7 11.7-11.8" fill="#374549"/><path d="m95.2 105.9 5.8 4.6s15.1-22.8 15-27.3c0-2.6-2-9.7-3.6-15-1.1-3.6-2-6.4-2-6.4l-7 6.8s.3 1.3.8 3c.9 3.3 2.3 8.4 3.2 10.6 1.3 3.5-12.2 23.7-12.2 23.7" fill="#f9bf8e"/><path d="m99.2 67.9c-.2 0-2.7-12.6-2.6-17.5s2.2-7.6 3.3-8c3.5-1.2 5 .6 7.2 4.3 2.2 3.8 7 20.7 7 20.7l-14 4.7z" fill="#9ed2c1"/><path d="m93.5 40.5c-2.2.8-3.4 2.8-4.5 6.2l-1-.3c1.2-3.7 3-6 5.5-6.9" fill="#240c09"/><path d="m80.8 58.5c-.1.4.1.7.4.9l2 .7c.3.1.6-.1.7-.5s0-.8-.3-.9l-1-.3c-.3-.1-.4-.5-.3-.8.8-2.5 1.9-5.6 3-7.7.7-1.4 1.5-2.5 2.2-2.8.3-.2.6-.2.8 0 .7.4.9 1.7.9 3.5 0 2.4-.5 5.7-1.2 8.5-.1.3-.3.5-.6.5l-1.2-.1c-.3 0-.6.3-.7.6-.1.4.2.7.5.8.4 0 .7.1 1.1.1.5 0 1.2.2 1.6-.2.2-.1.2-.4.3-.6.1-.3.2-.7.3-1 .4-1.6.7-3.1.9-4.7.2-1.2.3-2.5.3-3.7 0-.5 0-1.1-.1-1.6-.1-1.3-.4-2.8-1.5-3.4-.6-.3-1.2-.3-1.9 0-1.1.6-2.1 2.1-3 3.9-1.6 3.4-3 8.1-3.2 8.8" fill="#fff"/><path d="m84.2 49.6 1.2.3c.7-1.4 1.5-2.5 2.2-2.8.3-.2.6-.2.8 0 .7.4.9 1.7.9 3.5l1.2.2c0-.5 0-1.1-.1-1.6-.1-1.3-.4-2.8-1.5-3.4-.6-.3-1.2-.3-1.9 0-.9.5-1.9 2-2.8 3.8" fill="#240c09"/><path d="m105.7 33.3-.6-1.6c4.1 3.9 2.5 8.1-2 12-6.4 5.5-7.4 10.4-7.4 10.4l-1.1-.2c0-.2 1.1-5.3 7.8-11.1 4.4-3.9 4.2-7.1 3.3-9.5" fill="#240c09"/><path d="m91.9 53.7c-1.1 1.3-.9 3.3.5 4.4s3.4 1 4.5-.4c1.1-1.3.9-3.3-.5-4.4s-3.4-1-4.5.4" fill="#fff"/><path d="m93.2 54.8c-.5.6-.4 1.5.2 2s1.5.4 2-.2.4-1.5-.2-2-1.5-.4-2 .2" fill="#5b95c1"/><g fill="#0068b3"><path d="m419 125.8c3.6 2.3 8.4 1.2 10.6-2.4s1.2-8.4-2.4-10.6c-3.6-2.3-8.4-1.2-10.6 2.4-2.3 3.6-1.2 8.4 2.4 10.6z"/><path d="m516.2 163.2c1.3.8 3.1.4 3.9-.9s.4-3.1-.9-3.9-3.1-.4-3.9.9c-.9 1.3-.4 3.1.9 3.9z"/><path d="m468.1 138.1c3.1 2 7.3 1 9.3-2.1s1-7.3-2.1-9.3c-3.2-2-7.3-1-9.3 2.1-2 3.2-1.1 7.4 2.1 9.3z"/><path d="m421.4 119 50 14.1 45.8 27.4.7-1.1-46-27.6-50.1-14.1z"/><path d="m472 132.6 20-17.1-.9-1.1-20 17.2"/><path d="m489.6 118.4c2.2 1.4 5.1.7 6.5-1.5s.7-5.1-1.5-6.5-5.1-.7-6.5 1.5c-1.3 2.2-.7 5.1 1.5 6.5z"/></g><path d="m888.7 97.7h15.4v2.1h-15.4z" fill="#1f3159"/><path d="m806.7 101.8h83.5v3.9h-83.5z" fill="#026a9d"/><path d="m806.7 96.2h83.5v3.9h-83.5z" fill="#026a9d"/><path d="m806.7 90.6h83.5v3.9h-83.5z" fill="#026a9d"/><path d="m887 88.9h3.2v16.7h-3.2z" fill="#1f3159"/><path d="m806.7 88.9h3.2v16.7h-3.2z" fill="#1f3159"/><path d="m832.5 88.9h3.2v16.7h-3.2z" fill="#1f3159"/><path d="m861.3 88.9h3.2v16.7h-3.2z" fill="#1f3159"/><path d="m824.2 102v.6c.1 0 .2 0 .3.1l.2-.5c1.3.3 2.4.8 3.5 1.5l-.2.5.2.2.4-.4c1 .7 2 1.6 2.7 2.7l-.4.4.2.2.5-.2c.7 1.1 1.2 2.2 1.5 3.5l-.5.2v.3h.6c.1.6.2 1.2.2 1.9 0 .6-.1 1.3-.2 1.9h-.6v.3l.5.2c-.3 1.3-.8 2.4-1.5 3.5l-.5-.2-.2.2.4.4c-.7 1-1.6 1.9-2.7 2.7l-.4-.4-.2.2.2.5c-1.1.7-2.2 1.2-3.5 1.5l-.2-.5c-.1 0-.2 0-.3.1v.6c-.6.1-1.3.2-1.9.2s-1.3-.1-1.9-.2v-.6c-.1 0-.2 0-.3-.1l-.2.5c-1.3-.3-2.4-.8-3.5-1.5l.2-.5-.2-.2-.4.4c-1-.7-1.9-1.6-2.7-2.7l.4-.4-.2-.2-.5.2c-.7-1.1-1.2-2.2-1.4-3.5l.5-.2c0-.1 0-.2-.1-.3h-.6c-.1-.6-.2-1.2-.2-1.9 0-.6.1-1.3.2-1.9h.6c0-.1 0-.2.1-.3l-.5-.2c.3-1.3.8-2.4 1.5-3.5l.5.2.2-.2-.4-.4c.7-1 1.6-1.9 2.7-2.7l.4.4.3-.2-.2-.5c1.1-.7 2.2-1.2 3.5-1.5l.2.5c.1 0 .2 0 .3-.1v-.6c.6-.1 1.3-.2 1.9-.2.4 0 1.1.1 1.7.2" fill="#020203"/><path d="m822.3 106.6c-3.4 0-6.2 2.8-6.2 6.3s2.8 6.3 6.2 6.3c3.5 0 6.3-2.8 6.3-6.3-.1-3.5-2.9-6.3-6.3-6.3" fill="#3d3f41"/><g fill="#020203"><path d="m822.3 111.1c-1 0-1.8.8-1.8 1.8s.8 1.8 1.8 1.8 1.8-.8 1.8-1.8-.8-1.8-1.8-1.8"/><path d="m822.3 108.2c-.4 0-.6.3-.6.7s.3.7.6.7c.4 0 .7-.3.7-.7-.1-.5-.4-.7-.7-.7"/><path d="m822.3 116.2c-.4 0-.6.3-.6.7s.3.7.6.7c.4 0 .7-.3.7-.7s-.4-.7-.7-.7"/><path d="m827 112.8c0-.4-.3-.7-.7-.7s-.7.3-.7.7.3.7.7.7.7-.3.7-.7"/><path d="m818.9 112.8c0-.4-.3-.7-.7-.7s-.6.3-.6.7.3.7.6.7c.4 0 .7-.3.7-.7"/><path d="m876.6 102v.6c.1 0 .2 0 .3.1l.2-.5c1.3.3 2.4.8 3.5 1.5l-.2.5.2.2.4-.4c1 .7 1.9 1.6 2.7 2.7l-.4.4.2.2.5-.2c.7 1.1 1.2 2.2 1.4 3.5l-.5.2c0 .1 0 .2.1.3h.6c.1.6.2 1.2.2 1.9 0 .6-.1 1.3-.2 1.9h-.6c0 .1 0 .2-.1.3l.5.2c-.3 1.3-.8 2.4-1.4 3.5l-.5-.2-.2.2.4.4c-.7 1-1.6 1.9-2.7 2.7l-.4-.4-.2.2.2.5c-1.1.7-2.2 1.2-3.5 1.5l-.2-.5c-.1 0-.2 0-.3.1v.6c-.6.1-1.2.2-1.9.2-.6 0-1.3-.1-1.9-.2v-.6c-.1 0-.2 0-.3-.1l-.2.5c-1.3-.3-2.4-.8-3.5-1.5l.2-.5-.2-.2-.4.4c-1-.7-1.9-1.6-2.7-2.7l.4-.4-.2-.2-.5.2c-.7-1.1-1.2-2.2-1.5-3.5l.5-.2c0-.1 0-.2-.1-.3h-.6c-.1-.6-.2-1.2-.2-1.9 0-.6.1-1.3.2-1.9h.6c0-.1 0-.2.1-.3l-.5-.2c.3-1.3.8-2.4 1.5-3.5l.5.2.2-.2-.4-.4c.7-1 1.6-1.9 2.7-2.7l.4.4.2-.2-.2-.5c1.1-.7 2.2-1.2 3.5-1.5l.2.5c.1 0 .2 0 .3-.1v-.6c.6-.1 1.2-.2 1.9-.2s1.3.1 1.9.2"/></g><path d="m874.7 106.6c-3.4 0-6.2 2.8-6.2 6.3s2.8 6.3 6.2 6.3c3.5 0 6.3-2.8 6.3-6.3s-2.8-6.3-6.3-6.3" fill="#3d3f41"/><g fill="#020203"><path d="m874.7 111.1c-1 0-1.8.8-1.8 1.8s.8 1.8 1.8 1.8 1.8-.8 1.8-1.8-.8-1.8-1.8-1.8"/><path d="m874.7 108.2c-.4 0-.6.3-.6.7s.3.7.6.7c.4 0 .7-.3.7-.7 0-.5-.3-.7-.7-.7"/><path d="m874.7 116.2c-.4 0-.6.3-.6.7s.3.7.6.7c.4 0 .7-.3.7-.7s-.3-.7-.7-.7"/><path d="m879.4 112.8c0-.4-.3-.7-.7-.7s-.7.3-.7.7.3.7.7.7.7-.3.7-.7"/><path d="m871.3 112.8c0-.4-.3-.7-.6-.7-.4 0-.7.3-.7.7s.3.7.7.7c.3 0 .6-.3.6-.7"/></g><path d="m956.7 74.6v9.5h2.6v-9.5l-1.8-3.3h-2.6z" fill="#151e34"/><path d="m955.5 79.3h5.1v10.4h-5.1z" fill="#151e34"/><path d="m947.1 111.4h-18.8c.4-1.5.6-3.8.6-4.7s0-.4 0-.6h19.2c-.7 1.6-1 3.3-1 5.2z" fill="#020203"/><path d="m963.6 88h-24.3l-5.8-17.8h-29.9l.2 25.1c10.6-3.6 23.5-4.4 24 10.8h22.9c2-4.9 6-5.8 9.9-5.8s4.4.6 6.2 1.5v-10.6c0-1.7-1.5-3.2-3.2-3.2" fill="#026a9d"/><path d="m918.3 88h-13.4v-15.8h13.4zm18.9 0h-17.9v-15.8h12.3z" fill="#dbf0fd"/><path d="m929.3 89.3h8.1l3.4 9.3h-7.1c-.9-2.9-2.5-5.6-4.5-7.8z" fill="#dbf0fd"/><path d="m941.6 93.3h17.3v3.2h-17.3z" fill="#1f3159"/><path d="m941.6 97.7h14.8c-1.9.7-3.7 1.8-5.2 3.2h-9.6z" fill="#1f3159"/><path d="m941.6 101.9h8.7c-.8 1-1.5 2.1-2 3.2h-6.7z" fill="#1f3159"/><path d="m929.9 91.5.9-.1c.1 0 .2.1.2.2-.2 2.5 1.1 1.9 1.7 2 .5 0 .7.3.7.5.2.6-.8.7-1.2.7-.7 0-1-.2-1.3 0-.1.1-.7.1-.9.1-.3 0-.5-.6-.5-.9-.1-.5.1-.7.3-1.2v-1.1s0-.2.1-.2" fill="#3c1f11"/><path d="m930.7 87.5.7 5.7-1.9.2-.3-3.2-.4-3.3c1.3-.5 1.9-.1 1.9.6" fill="#919246"/><path d="m926.7 89c-.9.2-3.2.1-4-.3l.6-2.7 3.3.3 3.3.4c1 .2.9.9.7 1.4l-.4.7c-1.5 0-2.4 0-3.5.2" fill="#1f3159"/><path d="m921.5 86 1.8-1.3 1.4.4.3.4.5.4 3.9.3c.3 0 .5 0 .7.3.5.5.3 1.5-.4 2.4-1.1.2-3.4.6-4.3.6-2.2 0-4.3-.4-3.9-3.5" fill="#919246"/><path d="m922.2 76.9-.1 1.1 1.4 1 .3-.3c.3-1 0-.9.3-2l-1.5-.7c-.2.7-.3.4-.4.9" fill="#f0c17d"/><path d="m924.8 76.5.1.2-.1.2c-.3 0-.2.2-.2.2.2 0 .2.1.1.2l-.1.1c0 .1.1.3 0 .4-.2.2-1-.2-1.4-.4-.3-.1-.2-.4-.2-.7-.2 0-.3 0-.3-.3-.2-.3-.3-.6-.5-1l.6-1.5 1.2.1c.1.2.4.4.5.7.2.4.2.6.3.7s0 .2 0 .3v.1c0 .3.3.5.3.6.1 0-.1.1-.3.1" fill="#fedaa8"/><path d="m923.7 75.7c0 .1-.1.3-.1.5-.1-.1-.2-.2-.3-.4-.2-.1-.4-.3-.5-.2-.2.1-.1.4.1.6.1.1.1.2.1.3-.1.2-.3.1-.4.3s-.3.3-.4.4c-.1-.3-.1-.6-.2-.8-.1-.1-.2-.3-.2-.6-.2-.9.2-1.6.9-1.9.8-.4 1.8-.1 2.1.6-.1 0-.4.1-.7.2-.2.3-.3.7-.2 1z" fill="#62260c"/><path d="m922 77.5c-.4.9-1.1 1.5-1.3 2.7-.2 1.9.1 3.9.7 6.7.9.3 3-1.2 3.3-1.9.2-1.7.5-3.2.4-3.9-.1-.6-.6-1.3-1.2-2.5-.4 0-1.4-.5-1.9-1.1" fill="#e16f0d"/><path d="m922 77.5c-.4.9-1.1 1.5-1.3 2.7-.2 1.9.1 3.9.7 6.7.4.1.8 0 1.4-.3-.1-.3-.3-.6-.4-1-.8-2.8-1-4.9 0-7.7-.1-.1-.3-.2-.4-.4" fill="#f08217"/><path d="m923.8 83.6c-.2 1.7-1.9 1.3-2.2.1-.4-1.8-.6-4.8.8-4.8 1.8-.1 1.6 2.9 1.4 4.7m-2.5-4.9c-.3.4-.5.9-.6 1.5-.2 1.9.1 3.9.7 6.7.9.3 3.1-1.2 3.3-1.9.2-1.7.5-3.2.4-3.9-.1-.3-.3-.7-.5-1.2-.9-1.2-1.7-1.7-3.3-1.2" fill="#919246"/><path d="m921.3 78.7c-.3.4-.5.9-.6 1.5-.2 1.7 0 3.3.4 5.6.1.5.2 1 .3 1.4.3 2 2.1 2.3 4.1 2.2.2 0 .6 0 1-.1l-.2-.5c-2.3-.8-3.3-.8-4-3.2-.1-.4-.2-.8-.3-1.1-.2-.2-.4-.4-.5-.7-.3-1.6-.6-4.1.4-4.7 0-.2.1-.4.2-.6-.1 0-.4.1-.8.2" fill="#919246"/><path d="m919.3 81.1c-.2 0-.4.3-.4.5l.9 4.6c0 .2.3.4.5.3 1.5-.4.5-5.8-1-5.4" fill="#1f3159"/><path d="m929.5 91.5h.9c.1 0 .2.1.2.2-.4 2.5 1 2 1.5 2.1.5 0 .7.4.7.5.1.6-.8.6-1.3.6-.7 0-1-.3-1.3-.1-.1.1-.8.1-.9.1-.3-.1-.4-.6-.4-.9-.1-.5.1-.7.4-1.2l.1-1.1c-.1-.1 0-.2.1-.2" fill="#643214"/><path d="m930.8 87.5v5.8l-2 .4-.4-4 .4-2.5c.5-.3.8-.9 1.1-.9.9 0 .9.8.9 1.2" fill="#919246"/><path d="m927.9 88.2h-7.4c-.5 0-.9.4-.9.9v1.3c0 .5.4.9.9.9h7.4c.5 0 .9-.4.9-.9v-1.3c0-.5-.4-.9-.9-.9" fill="#1f3159"/><path d="m931.9 81-2.3 2.6 1.4-.6.4-.5z" fill="#020203"/><path d="m931.1 82.4-.3.4 6.6 5.9.4-.4z" fill="#020203"/><path d="m931.6 80.2-2.8 3.2c-.2.2-.2.5 0 .6.2.2.5.1.6 0l2.8-3.2c.2-.2.1-.5 0-.6-.2-.2-.5-.1-.6 0" fill="#f08217"/><path d="m923.2 82.1c.4.4 1.3 1.3 1.8 1.6 0 0 1.7.2 1-1.1 0-.2-.7-.7-1.8-2.3-.9-1.3-1.9-1.2-2.2-.6s.2 1.4 1.2 2.4" fill="#fedaa8"/><path d="m923.2 82.2c.2-.7 1-1.2 1.5-1.3-.1-.2-.2-.3-.4-.6-1-1.4-1.7-2-2.5-1.1-.9 1.2.9 2.5 1.4 3" fill="#e16f0d"/><path d="m925.5 83.9c1.5-.2 2.7-1 4.2-1.5-.1-.5-.2-.6-.2-.8 0 0-3 .5-4.3.6-.9.1-.8 1.8.3 1.7" fill="#fedaa8"/><path d="m930.6 80.8c.2-.1.2-.1.4-.1h.4l.4.2c.2.2.3.3.2.4s-.2 0-.4-.2h-.1c.1.1.2.1.3.2 0 .1.1.2-.1.3l-.1-.1-.1-.1c-.2 0-.3 0-.5 0 .2 0 .3.1.4.1.1.1.1.2 0 .3s-.2 0-.6 0c.1 0 .3 0 .4.1l-.1.2c-.3.1-.8.3-1.2.3-.2 0-.3 0-.4 0-.2.1-.6.1-.8.2l-.2-.9.9-.3c.2 0 1.1-.5 1.2-.6" fill="#026a9d"/><path d="m924.8 74.5-.5-.9c-.3-.5-.6-.5-.8-.5-.3 0-.5.3-.8.4-.4.1-.6 0-1 .2-.3.1-.3.3-.3.8v1.1l3.1-.8z" fill="#e16f0d"/><path d="m921.6 75.1c-.3.1-1.3.4-1.1.9.1.2.4.4 1.3.1l2.5-.8c.2-.1 1.9-.5 1.6-1.1-.1-.2-.5-.3-1.3 0z" fill="#e16f0d"/><path d="m924.7 74.3-.1-.1c-.8.5-1.8.8-2.7.8-.1-.7-.2-1 .2-1.4-.1 0-.2 0-.4.1-.3.1-.3.3-.3.8v.7c.5.3 3.1-.4 3.3-.9" fill="#f08217"/><path d="m962.7 98.9v.6c.1 0 .2 0 .3.1l.2-.6c1.4.3 2.8.9 4 1.7l-.2.6c.1.1.2.1.3.2l.4-.4c1.2.8 2.2 1.9 3.1 3.1l-.5.4c.1.1.1.2.2.3l.6-.2c.8 1.2 1.3 2.6 1.7 4l-.6.2c0 .1 0 .2.1.3h.6c.1.7.2 1.4.2 2.2s-.1 1.5-.2 2.2h-.6c0 .1 0 .2-.1.3l.6.2c-.3 1.4-.9 2.8-1.7 4l-.6-.2c-.1.1-.1.2-.2.3l.5.4c-.8 1.2-1.9 2.2-3.1 3.1l-.4-.4c-.1.1-.2.1-.3.2l.2.6c-1.2.8-2.6 1.3-4 1.7l-.2-.6c-.1 0-.2 0-.3.1v.6c-.7.1-1.4.2-2.2.2-.7 0-1.5-.1-2.2-.2v-.9c-.1 0-.2 0-.3-.1l-.2.6c-1.4-.3-2.8-.9-4-1.7l.2-.6c-.1-.1-.2-.1-.3-.2l-.4.4c-1.2-.8-2.2-1.9-3.1-3.1l.4-.4c-.1-.1-.1-.2-.2-.3l-.6.2c-.8-1.2-1.3-2.6-1.7-4l.6-.2c0-.1 0-.2-.1-.3h-.6c-.1-.7-.2-1.4-.2-2.2s.1-1.5.2-2.2h.6c0-.1 0-.2.1-.3l-.6-.2c.3-1.4.9-2.8 1.7-4l.6.2c.1-.1.1-.2.2-.3l-.4-.4c.8-1.2 1.9-2.2 3.1-3.1l.5.4c.1-.1.2-.1.3-.2l-.2-.6c1.2-.8 2.5-1.3 4-1.7l.2.6c.1 0 .2 0 .3-.1v-.6c.7-.1 1.4-.2 2.2-.2.7.3 1.4.4 2.1.5" fill="#020203"/><path d="m960.5 104.1c-3.9 0-7.1 3.2-7.1 7.1s3.2 7.1 7.1 7.1c4 0 7.1-3.2 7.1-7.1s-3.1-7.1-7.1-7.1" fill="#3d3f41"/><path d="m960.5 109.2c-1.1 0-2 .9-2 2s.9 2 2 2 2.1-.9 2.1-2-.9-2-2.1-2" fill="#020203"/><path d="m960.5 105.9c-.4 0-.7.3-.7.7s.3.7.7.7.8-.3.8-.7c0-.3-.4-.7-.8-.7" fill="#020203"/><path d="m960.5 115.1c-.4 0-.7.3-.7.7s.3.7.7.7.8-.3.8-.7-.4-.7-.8-.7" fill="#020203"/><path d="m965.9 111.3c0-.4-.3-.7-.8-.7s-.8.3-.8.7.3.7.8.7.8-.3.8-.7" fill="#020203"/><path d="m956.7 111.3c0-.4-.3-.7-.7-.7s-.8.3-.8.7.3.7.8.7c.3 0 .7-.3.7-.7" fill="#020203"/><path d="m946.5 115.8c-.2-1.1-.4-2.2-.4-3.3 0-8.6 7-15.6 15.6-15.6v2.3c-7.3 0-13.2 6-13.2 13.3 0 1.1.1 2.2.4 3.3z" fill="#1f3159"/><path d="m936.1 94.8h-9.7c-.5 0-.9.4-.9.9v3.8c0 .5.4.9.9.9h9.7c.5 0 .9-.4.9-.9v-3.8c-.1-.5-.5-.9-.9-.9" fill="#151e35"/><path d="m929.3 89.3h8.1l3.4 9.3h-7.1c-.9-2.9-2.5-5.6-4.5-7.8zm-11-1.3h-13.4v-15.8h13.4zm18.9 0h-17.9v-15.8h12.3zm6.1 12.4-4-12.4-5.8-17.8h-29.9l.2 25.1c10.6-3.6 23.5-4.4 24 10.8z" fill="#026a9d"/><path d="m915.9 89.8v.9c.2 0 .3.1.4.1l.3-.8c2 .4 3.8 1.2 5.5 2.3l-.3.8c.1.1.2.2.4.2l.6-.6c1.6 1.1 3 2.6 4.2 4.2l-.6.6c.1.1.2.3.3.4l.8-.3c1.1 1.7 1.8 3.5 2.3 5.5l-.8.3c0 .1.1.3.1.4h.9c.2 1 .2 1.9.2 3 0 1-.1 2-.2 3h-.9c0 .2-.1.3-.1.5l.8.3c-.4 2-1.2 3.8-2.3 5.5l-.8-.3c-.1.1-.2.2-.2.4l.6.6c-1.1 1.6-2.6 3-4.2 4.2l-.6-.6c-.1.1-.3.2-.4.3l.3.8c-1.7 1-3.5 1.8-5.5 2.3l-.3-.8c-.1 0-.3.1-.4.1v.9c-1 .2-2 .3-3 .3s-2-.1-3-.3v-.9c-.2 0-.3-.1-.4-.1l-.3.8c-2-.4-3.8-1.2-5.5-2.3l.3-.8c-.1-.1-.2-.2-.4-.2l-.6.6c-1.6-1.1-3-2.6-4.2-4.2l.6-.6c-.1-.1-.2-.3-.3-.4l-.8.3c-1.1-1.6-1.8-3.5-2.3-5.5l.8-.3c0-.1-.1-.3-.1-.4h-.9c-.2-1-.3-1.9-.3-3 0-1 .1-2 .3-3h.9c0-.2.1-.3.1-.5l-.8-.3c.4-2 1.2-3.8 2.3-5.5l.8.3c.1-.1.2-.2.2-.4l-.6-.6c1.1-1.6 2.6-3 4.2-4.2l.6.6c.1-.1.3-.2.4-.3l-.3-.8c1.6-1 3.5-1.8 5.4-2.3l.3.8c.1 0 .3-.1.4-.1v-.9c1-.2 2-.3 3-.3 1.1.1 2.1.2 3.1.3" fill="#020203"/><path d="m912.9 95.7c-6.1 0-11 4.9-11 11s4.9 11 11 11 11-4.9 11-11-4.9-11-11-11" fill="#3d3f41"/><path d="m912.9 103.6c-1.7 0-3.1 1.4-3.1 3.1s1.4 3.1 3.1 3.1 3.1-1.4 3.1-3.1c.1-1.7-1.3-3.1-3.1-3.1" fill="#020203"/><path d="m912.9 98.5c-.6 0-1.1.5-1.1 1.2s.5 1.1 1.1 1.1 1.2-.5 1.2-1.1-.5-1.2-1.2-1.2" fill="#020203"/><path d="m912.9 112.6c-.6 0-1.1.5-1.1 1.1s.5 1.2 1.1 1.2 1.2-.5 1.2-1.2-.5-1.1-1.2-1.1" fill="#020203"/><path d="m921.2 106.7c0-.6-.5-1.2-1.1-1.2s-1.2.5-1.2 1.2c0 .6.5 1.2 1.2 1.2.6 0 1.1-.5 1.1-1.2" fill="#020203"/><path d="m907 106.7c0-.6-.5-1.2-1.2-1.2-.6 0-1.1.5-1.1 1.2 0 .6.5 1.2 1.1 1.2.7 0 1.2-.5 1.2-1.2" fill="#020203"/><path d="m903.1 89.2h19.6v2.3h-19.6z" fill="#1f3159"/><path d="m896.8 94.8 6.3-5.6 1.7 2-6.1 5.4z" fill="#1f3159"/><path d="m929.1 94.8-6.4-5.6-1.6 2 6.2 5.4z" fill="#1f3159"/><path d="m778.2 92.2c-.9.6-1.9 1.2-2.8 1.8-.8.5-.8 1.3-.8 2.2 0 1.6 1 4.2 1.4 6.1l1.3-.7c.2-3.1.3-2.2-.8-5.2l.3-1.1c2.1-1.2 1.7-2.1 1.4-3.1" fill="#f0c17d"/><path d="m777.2 231.7c-3.9 2.3-10 .4-13.9 0-1.3.9-3.4.3-4.2.1-1.8-.4-1.4-4.7-.9-7.3.4-2.1 0-3.7 0-6l7.4-1.9c-.3 3.8-.7 5.1.2 6.7 2 3.3 6.3 3.6 9.2 3.7 4.5.2 4.8 3.2 2.2 4.7" fill="#141313"/><path d="m752.2 155.6c-1.4-5.5-1.7-7.6-1.1-11.2.8-4.5 2.3-7.2 4.4-11.2l14.9 3.2 1.5 13.2-3.4 28.5-1.5 45.5-10.2 1.1-2.2-32 2.9-14.8c-.7-7.7-3.8-16.2-5.3-22.3" fill="#787d24"/><path d="m768.1 232.2c-3.9 2.3-10 .2-13.9-.3-1.3.8-3.4.2-4.2 0-1.8-.4-1.4-4.7-.9-7.3.4-2.1 0-3.7 0-6l7.4-1.7c-.3 3.8-.7 5.1.2 6.7 2 3.4 6.3 3.7 9.2 3.9 4.5.2 4.8 3.2 2.2 4.7" fill="#201d1e"/><path d="m747.1 156.3c-2.5-11.9 2.2-14.2 3.4-23.1l15.3 4.1.5 13-1.6 4.9-2.5 22.4-.2 1.3-3.8 45.8-10.3 1.1-.6-33.3 1.7-15.2c-.4-7.5-.6-14.9-1.9-21" fill="#919246"/><path d="m756.1 84.3c-.7.6-1.7.9-3.5 1.7-5.3 2.4-6.6 4.1-8.1 6.7-3.3 5.8 3.4 24.3 5.8 41.3 5.2 6.3 19.4 5.2 20.3 4.8 2.2-12.3 5-18.1 5.6-28.1.3-5.2.2-10-.4-13.6-.7-4.2-.7-6.1-4.1-8.4-1.7-1.1-2.8-2.3-3.8-3.8 0 10.1-10.7-1.6-11.8-.6" fill="#e88d3f"/><path d="m766.1 139c2.4 0 4.2-.2 4.6-.3 2.2-12.3 5-18.1 5.6-28.1.3-5.2.2-10-.4-13.6-.7-4.2-.7-6.1-4.1-8.4-1.7-1.1-2.8-2.3-3.8-3.8 0 .5 0 1-.1 1.4.9 8.3 1.6 16.2 1.4 22.9-.8 18.7-2.8 23.7-3.2 29.9" fill="#e16f0d"/><path d="m755.3 84.8c-.6.3-1.4.6-2.7 1.2-.7.3-1.3.6-1.9.9 6 .6 6.8 8.1 6.4 19.4-.4 8.6-1.2 12.1-10.5 9 1.3 6 2.8 12.4 3.7 18.7-3.2 11.1.4 9.7 4.3 10.3 3.2.5 6.6-5.1 10.7-4.7 2.5.3 5.2-.7 5.4-.8 2.1-11.4 4.6-17.3 5.4-26.2-.4-.8-.4-2.1-.6-4.2-.2-3.9-.6-16-2.7-19-.3-.3-.7-.5-1.1-.8-1.6-1.1-2.7-2.2-3.7-3.6 4.1 7.9 4.2 14.3 3.8 23.3-3.3.4-5.9.3-9.2.5-.5-9.5.1-18.8-7.3-24" fill="#919246"/><path d="m765.8 139.6c2.7.6 4.5-.2 4.8-.9 2.1-11.4 4.6-17.3 5.4-26.2-.4-.8-.4-2.1-.6-4.2-.2-3.9-.6-16-2.7-19-.3-.3-.7-.5-1.1-.8-1.6-1.1-2.7-2.2-3.7-3.6 4.1 7.9 4.2 14.3 3.8 23.3-.9.1-1.8.2-2.6.2v.6c-.6 18.8-2.8 24.4-3.3 30.6" fill="#787d24"/><path d="m755.9 84.4c1.6 1.6 10 6.8 12.5 4-.2-3-.1-3.7 2.2-8l-5.9-11.2-6.6-3c-1.3 5.6 1.3 10.6.2 15.1-.3 1.3-1.6 2.5-2.4 3.1" fill="#f0c17d"/><path d="m743 109.4c.5 5.2 2 14.7 6.7 17.4 1.3.7 7.3.3 5.3-9.1-.5-.8-.9-.4.3-12.5 1.1-10.9.7-16.6-6.7-15.3-9 1.8-6.1 15.2-5.6 19.5" fill="#fedaa8"/><path d="m742.8 109.4c3.6-2.4 9.1-1.5 12.1.1.1-1.2.2-2.7.4-4.3 1.1-10.9.7-16.6-6.7-15.3-9 1.8-6.3 15.2-5.8 19.5" fill="#e88d3f"/><path d="m764.8 84.2c-1.2 0-1.7 0-2.3-.3-.6-.2-.9-.8-1.7-1.6-.7-.7-1.9-1.3-2.2-2-.4-.9-.3-1.8-.4-3.1-.6.3-1.3-1.5-1.4-2-.2-.9-.8-2.4-1-3.4-.1-.6 0-1 .1-1.2.4-.3.8-.1 1.4.7 0-.7.1-1.4.1-2.2-.1-1.4-.1-2.6.1-3.6s.6-1.9 1.4-2.6c.5-.4 1-.8 1.6-1l.1-.1h.1.1.1.1.1.1.1l.2-.1c1.5-.6 3.2-.7 4.9-.5 1.6.2 3.2.9 4.3 1.9.8.7 1.2 1.6 1.4 2.6s.1 2.2.1 3.6c0 .8 0 1.5.1 2.2.6-.8 1-1 1.4-.7.2.1.3.6.1 1.2-.2 1-.8 2.5-1 3.4-.1.6-.8 2.4-1.4 2.1-.1 1.2-.1 2.1-.4 3-.3.7-1.5 1.4-2.2 2.1-.8.8-1.1 1.3-1.6 1.6-.8-.1-1.3 0-2.4 0" fill="#fedaa8"/><path d="m759.5 64.4c-.5.6-1.9 4.9-1.7 8.9-1.8-6.3-2.7-10.9 1.1-13.7 5.1-3.7 11.3-1.3 11.8.1 4.1 1.4 2.4 7.7 1.3 12.7 0-2.5-.6-5.6-1.9-7.8-.3-.3-1.6 1.4-1.9 1.4-3-.2-4.1-.9-8.7-1.6" fill="#62260c"/><path d="m777 85.7c1.1 0 2.1.8 2.2 1.9l8.6 116.6-4.1.3-8.6-116.7c0-1 .8-2 1.9-2.1" fill="#885413"/><path d="m778.2 92.2c-.9.6-1.9 1.2-2.8 1.8-.8.5-1.2 1.4-.8 2.2l1.5 3.5c.2-3.1.1-3 .1-3.4l.5-1c2.2-1.2 1.8-2.1 1.5-3.1" fill="#e16f0d"/><path d="m778.4 93.8c-.6.4-1.4 1.1-2 1.5-.5.3-.7 1.3-.4 1.6s1 .1 2.1-.6c-1.3 1-1.4 1.2-1.2 1.6.2.6.6.7 1.7.4l-.9.7c-.7.7-.3 1.8.6 1.8l1.7-.9-1.1.9c-.4.3-.4 2.5 2.2.8 1.1-.7 1.8-1.1 2.3-1.8.5-.8.8-1.6.2-2.4 0-1 .1-1.2-.8-1.8-.2-.9-.3-1.5-1.2-1.8-.4-1.8-1.3-1.3-3.2 0" fill="#e16f0d"/><path d="m748.7 126.2c7.6 5.1 16.2 6.4 24.6 10.6 1.4-2.6 1.5-3.1 2.5-4.2 0 0-14.7-10.2-20.9-15-4.4-3.6-11.4 5-6.2 8.6" fill="#fedaa8"/><path d="m783.6 133.7c1.2.4 1.2.5 2.1 1.4.7.7 1.9 1.5 2 1.7.2.2 1 2.3 1 2.3-.1 1.7.1 2.6-.7 2.6-.5 0-.8-.7-1.1-2.4l-.4-.8c.2.8.4 1.4.2 2.1-.2.6-.6 1.4-1.8 1-.3-.1-.1-.3-.1-.6l.1-.8c-.7-.6-1.3-1.2-1.9-1.9.8 1 1.3 1.6 1.4 2.1.2.7-.4.9-1 1.2-.8.4-1-1-2.5-2.3.4.5 1.1 1.2 1.2 1.9s-.7.7-1.2.5c-1.8-.7-4.6-2.2-6.2-3.4-.7-.5-1.2-1.1-1.7-1.4-1.3-.6-3.2-1.3-4.5-1.9l3.2-6.3 4.7 3.3c.6 0 6.5 1.5 7.2 1.7" fill="#e16f0d"/><path d="m777.2 208.7 17.7-1.3c2.1-.2 3.9 1.4 4.1 3.5l1.4 19.3c.1 1.3-.5 2.5-1.4 3.3 0-.2 0-.4 0-.5l-1.5-20.1c-.1-1.8-1.7-3.2-3.6-3.1l-15.4 1.1c-1.8.1-3.2 1.7-3.1 3.6l1.5 20.1c0 .2 0 .4.1.5-1-.6-1.8-1.7-1.9-3l-1.4-19.3c-.1-2.1 1.4-3.9 3.5-4.1" fill="#026a9d"/><path d="m782.7 210.2 1.7 23.9c0 .2.1.4.1.5-1-.6-1.8-1.7-1.9-3l-1.6-21.3zm8.6-.7 1.6 21.3c.1 1.3-.5 2.5-1.4 3.3 0-.2 0-.4 0-.5l-1.8-23.9z" fill="#026a9d"/><path d="m783.5 200.6 4.1-.3c.4 0 .7.3.7.6l.5 7c0 .4-.2.7-.6.7l-4.1.3c-.4 0-.7-.3-.7-.6l-.5-7c-.1-.3.2-.6.6-.7" fill="#026a9d"/><path d="m300.3 74.7c-2.9.6-4.7 3.3-4.2 6.1s3.3 4.7 6.2 4.1 4.7-3.3 4.2-6.1c-.6-2.8-3.3-4.7-6.2-4.1" fill="#147abf"/><path d="m298.2 63.2c-5.8 1.1-10.6 5.1-13 10.6-.5 1.3.1 2.7 1.3 3.3 1.3.5 2.7-.1 3.3-1.3 1.7-4 5.1-6.8 9.3-7.6 3.9-.8 7.8.3 10.8 3 .7.6 1.5.8 2.3.5.5-.1.9-.4 1.2-.7.9-1 .8-2.6-.2-3.5-4.1-3.8-9.6-5.4-15-4.3" fill="#147abf"/><path d="m296.1 52.6c-8.1 1.6-16.1 7.6-20.4 15.5-.7 1.2-.2 2.7 1 3.4s2.7.2 3.4-1c3.6-6.6 10.3-11.7 17-13 7-1.3 13.2.1 18.5 4.2.6.5 1.5.6 2.2.4.5-.1 1-.4 1.3-.9.9-1.1.7-2.7-.4-3.5-6.6-5-14.1-6.7-22.6-5.1" fill="#147abf"/></g></g></svg>