<svg height="250" viewBox="0 0 250 250" width="250" xmlns="http://www.w3.org/2000/svg"><g fill="none"><path d="m0 0v250h250v-250z" fill="#fefefe"/><g transform="translate(91 98)"><path d="m69.7961569 130.874477-1.0701763-2.412508-7.5421952-.461969.7134509 1.745218-9.4277439 3.079796c-.4863366.359038-.9308188.772301-1.3249802 1.231919-.1664049.185631-.1917393.459409-.0622603.672818.1294791.21341.3829152.315594.6228288.251121l9.2239008-.25665 1.1211371-.20532h.1019216l2.3441958-.564629.3567254.513299 4.7393524-.15399.2038431-.10266c.458647-.205319 0-3.336445 0-3.336445z" fill="#d9d9d9"/><path d="m78.8997224 131.259474-1.0236672-2.564832-7.5751376-.694642.716567 1.816756-9.622472 2.93887c-.4849124.338018-.9165868.752621-1.279584 1.228982-.1358165.197311-.1531401.457813-.0447432.672824.1083969.21501.3238914.347589.5565768.342422h9.2130051l1.126034-.213736h.1023667l2.405618-.480906.3071002.480906h4.9647861c.4606503-.26717.1535501-3.526644.1535501-3.526644z" fill="#d9d9d9"/><path d="m61.5188917 70-2.5188917 30.205314s1.3602015 17.828502.3526448 29.959742l9.8236776.834944s2.6700252-24.213366 1.7128464-28.977456c3.4256927-15.4218999 8.1108312-31.6787437 8.1108312-31.6787437z" fill="#0a9486"/><path d="m61 71.0002858.6981627 30.5087172s4.2887139 19.205487 6.0341208 31.308945c10.3727034.650186 11.4698162-.650186 11.4698162-.650186s-3.6902887-26.157473-5.2860892-30.808802c1.2467192-16.004573 6.0839895-31.35896 6.0839895-31.35896z" fill="#7fc6b1"/><path d="m63.924647 22.0720611c1.8784683 3.8033682 1.535981 8.3768362-.8862579 11.8348094-.7929676 1.1593283 10.9616109-8.8881834 10.9616109-8.8881834s-2.2389673-5.5068092-1.9590964-6.3763054-1.53929-1.6423817-1.53929-1.6423817z" fill="#f0b785"/><path d="m70.0443035 18.4144536c-.6185292.530958-.9991626 1.3997984-1.7128501 1.7376807-.7136875.3378824-.3330542.3861513-1.7128501 1.3515295-.4462196.2398366-.9285537.4029454-1.427375.4826891l-3.0450668.8688404c-.2595456.0945462-.5330785.1435165-.8088459.1448067-.5647831-.1016772-1.0542371-.4563554-1.3322167-.9653782-.0726608-.0621495-.1228766-.1470559-.1427375-.2413445-.0951584-.3861513.4282125-.7240337.285475-1.0619161-.1427375-.3378823-.285475-.2896134-.3806334-.4344201-.0951583-.1448068-.0951583-.5309581 0-.8205715.0951584-.2896135-.4282125-.1930757-.4757917-.4344202.0153191-.2295314-.0171016-.4597661-.0951583-.6757647-.1903167-.3378824-.6185292-.3861513-.9991625-.530958-.1396879-.0461677-.2220283-.1923524-.1903167-.3378824.1825879-.5130346.4567793-.9875536.8088459-1.3997984.3330541-.3861513.7136875-.8205715.6661083-1.3032606-.0905163-.2816327-.2018504-.5559352-.3330542-.8205714-.1427375-.6274959.2378959-1.2549917.3806334-1.8824875s.0475792-.9653782.0951583-1.4480673c.0284419-.4902364.231322-.95333412.5709501-1.30326056 1.0943208-.9653782 1.5701125-2.07556312 2.9499084-2.70305895 2.3789584-1.06191601 5.3288669-.72403365 7.6602462.4826891.7076904.35432924 1.3511658.82761192 1.9031667 1.39979838.3774555.49230766.6672825 1.04769493.8564251 1.64114293.4826809 1.2622411.5658307 2.6456652.2378958 3.9580506-.369309 1.3266484-1.1752823 2.4849962-2.2838001 3.2822859-.4757917.3378823-.9991625.6274958-1.4749542 1.0136471z" fill="#f9bf8e"/><path d="m46.6988145 55.0481788c-.0956866-.1084023-.6698058 0-.8133356 0h-1.7223576c-1.0525519 0-2.1051038.4336095-3.1576557.4336095-.3349029.0542011-1.3396116-.1084024-1.5788279.2168047s-.0478433.1626035-.0478433.2168047c.3349029 1.3550295 1.9137308.8672189 2.7749096.7588165h1.0525519l-2.5356932 1.5718342c-.4784327.2710059-3.0141259 1.7344378-2.6313798 2.3306508.3827462.596213.6219625.1084023.8611788 0 1.0543265-.4353237 2.0779297-.9607811 3.0619692-1.5718342l-2.4400067 1.5718342c-.3827461.2710059-1.7702009 1.3008283-1.3874547 1.8428401.119863.1516976.3046554.2145024.4784326.1626035 1.2504379-.5746812 2.4255362-1.3406102 3.4925586-2.2764495l-2.4878499 1.9512424c-.2392164.2168048-.6219625.596213-.526276.9214201.0956866.3252071.717649.2710059.9568654.1084024 1.0515457-.5528157 2.05986-1.205564 3.0141259-1.9512425-.5741192.7588165-2.9662826 2.4932543-2.1051038 2.6558578.2330268.0319251.4687868-.0253085.6698057-.1626035l3.2533423-1.7344378c.6208707-.3143317 1.213659-.6954898 1.7702009-1.1382248l1.6266711-1.2466271c.8133356-.596213 1.1482385-1.2466271 1.7223577-2.0596448z" fill="#f9bf8e"/><path d="m71.6117755 20.153718c.2029422-.2975791.3788255-.6142308.5253668-.9458446.4849832-1.2345613.8996296-2.4978844 1.241776-3.7833784.4185228-1.28214.62838-2.6282072.620888-3.9825035-.0065348-1.3605977-.424332-2.68443747-1.1940154-3.78337842-.846037-1.05460763-1.9780941-1.8181065-3.2477219-2.19037696-1.2887897-.37532062-2.6281127-.52669279-3.9641311-.44803165-.9987364.04803106-1.9905411.19809393-2.9611582.44803165-.4980989.06568712-.9822841.21708822-1.4328184.44803165-.3398469.28862896-.7080651.53893136-1.0984942.74671942-.5529488.19957568-1.1342226.30055344-1.7193822.29868776h-.2865637c-.060132.04700708-.0955212.12078005-.0955212.19912518s.0353892.1521181.0955212.19912518c1.0507336 2.58862731 4.6805404 2.33972084 5.6357527 5.02791079.1958445.63044.3239897 1.2815786.3820849 1.9414704.0955212.5973756.3343243 1.2445324.3820849 1.8916892.0477607.6471569-.238803.8960633.2388031 1.1449698.4776062.2489065 1.0029729-.1493439 1.0029729-.2489065-.034127-.5715616.0305825-1.1448635.1910425-1.692564.1401713-.5866575.5018903-1.0893544 1.0029729-1.3938762.5406341-.2773401 1.1841551-.2198475 1.6716216.1493439.4776061.4480316.4298455 1.2445323.3343243 1.9414704-.0955212.6969382-.7164092 2.0410331-1.8149034 2.2401583.4054067.153858.7101327.5088434.8119305.9458446.0477606.0995626.0477606.2489065.1432818.2986878h.2865637c1.3850579 0 1.9581853.4480316 2.865637 1.3938762.1092976-.2905765.2369386-.5732892.3820849-.846282z" fill="#5a4b42"/><path d="m66.2177325 37.016069c-1.5437185.0972741-3.3364239 1.0213774-3.7846002 2.7723099-.4481763 1.7509326-1.5437185 3.9882353-2.290679 6.0309899-.7469606 2.0427547-1.9420975 2.8209469-3.884195 3.8909613-1.9420974 1.0700143-6.4736581 3.1127689-6.4736581 3.1127689-1.2449343.6809183-2.689058 1.2159254-3.7846002 2.1400287.7469606 1.3618365 1.344529 2.6750359 1.9918948 4.0368723 2.0914896-.5350072 9.5112978-3.3559541 11.9015716-4.1341463 2.3902738-.7781923 9.6606899-8.9492108 10.0092715-11.6728837s-.0995947-6.4687231-3.6850054-6.176901z" fill="#f9bf8e"/><path d="m60.0436086 71h20.9563914c-.9524458-5.6430903-1.4668074-11.3570611-1.5380838-17.0863539 0-2.95629.0480651-5.7622602.2403256-8.4179105.2339265-3.455916-.0910347-6.9282407-.9613023-10.271855-.3114178-1.7994061-.7944667-3.561886-1.4419536-5.261194-1.5861489-4.2590619-3.5568187-5.9626866-3.5568187-5.9626866l-4.0374699 1.9541578c-2.9838003 2.1738959-5.4635731 5.0157909-7.2578328 8.3176972-2.835842 5.3614073-2.451321 9.8208955-2.4032559 24.1012793.0480651 2.8560768.0480651 7.2153518 0 12.6268657z" fill="#7fc6b1"/><path d="m68.4310181 74.7512961-1.9477016-1.2769971c-.2164113-.0982305-.4328226-.3929222-.6492339-.4420374-.2164112-.0491153-.2164112-.0491153-.3246169.0491152-1.4607762 1.5225735-2.2723186 1.7190345-3.1379637 2.897801-.1082057.1964611-.3787198 1.7681498-.1623085 1.7681498l-.8115423 1.6699192c-.1623085.3929222-.919748 3.4871843.2164113 3.2907232 1.1361592-.1964611.595131-2.1610719.8115423-2.4557636.3953967-.6271285.828888-1.2338194 1.2984678-1.817265l-1.5148791 4.1747981c-.1082056.3438069-.2164113.8349596.1082057 1.0314207.3246169.196461.4328225 0 .6492338-.1473459.2297463-.2310946.412884-.4971024.5410283-.7858443.5410282-1.080536 1.0279536-2.2101872 1.6771875-3.3398384-.3896402 1.3058784-.8777163 2.5858935-1.4607762 3.8309911-.0541029.1964611 0 .6384985.1623084.7367291.17058.101337.3959306.0808794.5410283-.0491153.5410282-.4420374.8656451-1.276997 1.1902621-1.8663803.3246169-.5893832.9197479-1.817265 1.2443649-1.9646108-.5410283.8349596-.6492339 1.0805359-1.7312904 2.9960315-.0541028.1473458-.1082056.6876138.0541029.7858443.3018926-.0012446.5919849-.1065844.8115423-.2946916 1.0157838-1.2593286 1.9203151-2.5895846 2.7051412-3.978337.8115423-1.1787665.595131-2.1610719 1.2984677-3.4380689z" fill="#f9bf8e"/><path d="m13.3934066 65.1316364c.4743654.8716461.8786287 1.7813119 1.2087912 2.72l-.7252747.4945454c-1.7406594 1.088-4.06153848 1.9781818-5.94725277 2.8683637-.87032967-1.6814546-1.45054945-4.253091-2.41758242-5.885091-2.41758242-4.0552727-5.41538461-16.5178181-5.07692307-17.9025454.96703296-4.1047273 1.93406593-8.2589091 2.75604395-12.4130909.43516484-2.3243637 1.5956044-6.6763637 4.35164835-7.6654546l.62857143-.1483636c4.54505493-.6429091 5.36703293 5.2916364 5.07692303 8.2094545-.2901098 2.9178182-1.1120879 4.7476364-1.9824175 7.072-1.35384619 3.709091-2.90109894 3.709091-1.83736267 7.616 1.06373627 3.9069091 2.03076927 11.2261819 3.96483517 15.0341819z" fill="#374549"/><path d="m13.2 129.472 1.3054945-2.324364 7.3978022.098909-.8703297 1.681455c1.667578.896759 3.4164686 1.625522 5.2219781 2.176 1.4108179.405664 2.8492342.703215 4.3032967.890182.0483516.049454 1.4021978.544 1.1604395 1.384727-.2417582.840727-10.8307692.346182-11.2175824.247273h-.0483516l-2.2725275-.741818-.3868132.445091-4.5934066-.494546h-.2417582c-.4351649-.296727.2417582-3.362909.2417582-3.362909z" fill="#161618"/><path d="m.96703297 130.955636 1.20879121-2.373818 7.39780219-.197818-.82197802 1.681455c1.26857325.951809 2.67047855 1.702096 4.15824175 2.225454 1.6115683.632786 3.3064083 1.016156 5.0285714 1.137455.7252748.148363.8703297.791272 1.2087912 1.285818.1461343.197128.1573822.466296.0282257.675458-.1291564.209162-.3716202.314437-.6084454.264178l-9.04175827-.544-1.06373627-.296727h-.04835165l-2.32087912-.642909-.38681318.445091-4.5934066-.247273-.24175824-.098909c-.43516483-.197818.0967033-3.313455.0967033-3.313455z" fill="#1e1d1f"/><path d="m22.7252747 67.4065455 5.0769231 31.2058181s-5.6087912 18.0014544-4.6417582 30.6618184c-8.6065934.692363-10.0571429-2.225455-10.0571429-2.225455s1.0153846-22.353454 1.9824176-27.2989088c-3.432967-16.0727273-11.41098903-31.9970909-11.41098903-31.9970909z" fill="#1e2527"/><path d="m23.3538462 67.8516364-2.2241759 31.8981818s-7.7362637 18.8916368-9.476923 31.2552728c-9.91208796-1.632-10.49230774-1.632-10.49230774-1.632s6.14065934-24.974546 7.68791209-29.7716365c-1.25714286-16.3694545-6.09230769-32.096-6.09230769-32.096z" fill="#273035"/><path d="m21.2747253 19.2378182-.5802198.4945454c-.7736264.7418182-.6769231 1.9287273-1.0153846 2.6705455-.3600926.7620481-.9319344 1.3985411-1.6439561 1.8298182-2.6593406 1.5825454-8.65494502-3.264-8.65494502-3.264s3.52967032-5.6872728 3.33626372-6.6763637 2.0791209-1.5825454 2.0791209-1.5825454z" fill="#854b29"/><path d="m14.5538462 13.9956364c.5802197.6429091.8703296 1.632 1.5956043 2.176.7252748.544.3384616.4450909 1.6923077 1.6814545.4361257.3342183.9274623.5854903 1.4505495.7418182l3.2395604 1.3847273c.2740844.1425884.5674171.2425962.8703297.2967272.6334361-.0530857 1.2223729-.3542709 1.643956-.8407272l.1934066-.2472728c.145055-.3956363-.3384615-.8901818-.0967033-1.2363636.2417583-.3461818.3384616-.2472727.4835165-.4450909.145055-.1978182.1934066-.544.0967033-.8407273s.6769231-.6429091.6769231-.5934545c0 .0494545.0967033-.3461818.5802198-.4450909s.5802198.0494545.9670329-.2472728c.3868132-.2967272-.1450549-1.6814545-.5318681-2.3243636s-.6285714-.9890909-.4835165-1.4836364c.5318682-1.92872724 1.4989011-3.21454542.8219781-5.39054542-.5895718-1.73893639-1.7980349-3.18685497-3.3846154-4.05527273-2.6657985-1.39598205-5.77078-1.62792293-8.6065934-.64290909-.8637543.26750577-1.6684248.70421287-2.3692308 1.28581819-.5103601.46343843-.9360401 1.0160485-1.2571429 1.632-.7446845 1.29939147-1.0821797 2.80098295-.9670329 4.30254545.1709189 1.5100252.8555374 2.9104945 1.9340659 3.9563636.5060095.4188445.9901911.8645477 1.4505495 1.3352728z" fill="#9f6035"/><path d="m12.378022 15.0341818c-.1750723-.0985439-.3116571-.2557068-.3868132-.4450909-2.13840996-3.7725423-1.9691605-8.46574868.4351648-12.06690908.8703297-1.28581818 2.9494506-2.07709091 4.4967033-2.37381818 3.3362638-.544 6.1406594.544 8.6549451 2.57163636.2417582.19781818.4835165.39563636.4835165.69236364 0 .29672727.5318681.04945454 0 0-.5318682-.04945455-2.4659341 1.82981818-2.3692308 2.96727272.0122067.47269757-.1828897.92621253-.5318681 1.23636364-1.112088.93963636-1.3538462 1.18690909-1.8373627 2.6210909-.1934066.6429091-.5802198 1.2858182-.7252747 1.9781818-.1450549.6923637.0967033.9890909-.4351648 1.1869091-.3953865-.0126307-.773062-.1706586-1.0637363-.4450909.1287266-.600583.1613849-1.2185422.0967033-1.8298182-.0642071-.6142166-.3806183-1.17157682-.8703297-1.53309088-.5100371-.42034309-1.2194278-.47917324-1.789011-.14836364-1.0637362.74181822-.9670329 3.36290912-1.1604395 4.50036362-.0254567.2124995-.1292146.4070612-.2901099.544-.1268566.1392121-.2985165.2269998-.4835165.2472727l-1.4989011.3461819c-.203006.0755948-.4255654.0755948-.6285714 0z" fill="#111"/><path d="m18.2285714 23.2436364c.2417583.6923636.8703297-.0989091 1.2571429 1.2363636.9741748 3.2453542 1.6698493 6.5714029 2.0791209 9.9403636.1944768 1.6740773.2913515 3.3585109.2901216 5.0443637-3.819792-4.7970909-7.3011106-7.4181818-9.2351766-9.8414546-1.9340659-2.4232727-4.10989009-5.7367272-4.30329668-6.5774545-.1682611-.9742465.20385179-1.9638085.96703296-2.5716364 2.32087912-2.1265454 7.34945052 1.632 7.34945052 1.632z" fill="#dddedf"/><path d="m10.3956044 17.9025455 8.9450549 5.7367272-2.465934 1.088-8.02637365-3.8574545z" fill="#fff"/><path d="m24.6593407 68.9396364h-23.35384619c.87032967-5.1432728.82197802-11.3250909.87032967-17.7541819.04835164-3.0167272-.43516484-5.9345454-.62857143-8.6545454-.24139782-3.4052501.05243953-6.828064.87032967-10.1381818l2.65934066-5.4894546 3.77142857-6.0334545 4.20659345 2.0276363c3.1093212 2.2320936 5.7008842 5.1360192 7.5912087 8.5061819 2.9494506 5.4894545 4.1098902 9.9403636 4.0131869 24.5294545 0 2.9178182-.0483517 7.5170909 0 13.0065455z" fill="#2b383d"/><path d="m9.76703297 18.9410909s8.55824173 7.2698182 11.74945053 14.0450909c-5.6087912-5.2421818-7.832967-5.2421818-7.832967-5.2421818v-3.7090909l-2.3692308 1.8792727-2.80439559-5.1927273z" fill="#3c5656"/><path d="m12.232967 59.493818h7.446154v2.452945h-7.446154z" fill="#3c5656"/><path d="m35.2967033 58.2574545c.1450549-.098909.7252747.1483637.9186813.1483637l1.8373627.3461818c1.1604395.2472727 2.2241758.8407273 3.3846153 1.088.3384616.0989091 1.4989011.1978182 1.6923077.4945455.0565715.0722694.0565715.1750032 0 .2472727-.6285714 1.2363636-2.2241758.4450909-3.1912088.1978182-.3839185-.0707938-.7712963-.1203206-1.1604395-.1483637l2.465934 2.0276364c.4835165.3956364 2.9010989 2.3243636 2.3692308 2.8683636s-.7252747-.0494545-.967033-.1978182c-1.0444001-.6398594-2.0458922-1.350286-2.9978022-2.1265454l2.3692308 2.0276364c.3384616.2967272 1.6923077 1.5825454 1.1120879 2.0770909-.1453921.138901-.3643703.1592621-.5318681.0494545-1.2669342-.8104081-2.4078355-1.8106297-3.3846154-2.9672727l2.3692308 2.4727273c.1934066.1978181.5318681.642909.3384615.9890909-.1934066.3461818-.821978.0989091-1.0637362-.0494546-1.0210432-.7913152-1.9901626-1.6503768-2.9010989-2.5716363.4835164.8901818 2.7560439 3.0661818 1.7890109 3.0167272-.2529867-.013313-.4930239-.1185326-.676923-.2967272l-3.2879121-2.3243637c-.5823965-.4710402-1.1317331-.9833306-1.6439561-1.5330909l-1.4989011-1.5330909c-.7736263-.7418182-3.1912088-2.72-3.6747252-3.6596364z" fill="#9f6035"/><path d="m12.5230769 26.7549091c2.0307693.544 4.1098901 2.2254545 4.2065934 4.7476364.0967033 2.5221818.8703297 5.9345454 1.3054945 8.9512727.4351649 3.0167273 1.7406594 4.352 4.0131868 6.3796363 2.9978022 2.5716364 9.6703297 7.072 9.6703297 7.072 1.4989011 1.2858182 3.2395605 2.3738182 4.4 3.9069091-1.3054945 1.6814546-2.5626373 3.4123637-3.7714286 5.1432728-2.610989-1.2858182-15.1340659-7.0225455-18.0835164-8.6545455-2.9494506-1.632-9.9604396-15.5781818-9.62197806-19.4850909s3.19120879-9.3469091 7.88131866-8.0610909z" fill="#374549"/><path d="m65 72.7952872 3.8487973 3.2047128s10.1512027-15.9234168 10.1512027-19.0279823c-.04811-1.8527246-1.395189-6.8100148-2.4536082-10.5154639l-1.3470791-4.4565538-4.7147766 4.7569956s.1924398.9013255.5292096 2.1030928c.5773196 2.3033873 1.4914089 5.8586156 2.1168385 7.460972.9140893 2.4035346-8.1305842 16.4742268-8.1305842 16.4742268z" fill="#f9bf8e"/><path d="m67.7739493 47.0063568c-.1474911 0-1.8682208-8.7813533-1.7698934-12.174149.0983274-3.3927956 1.4749111-5.2887696 2.2615304-5.5881339 2.3598579-.7983049 3.3922957.3991524 4.9163706 3.0435372 1.5240748 2.6443849 4.8180431 14.4193814 4.8180431 14.4193814l-9.5869226 3.2930075z" fill="#9ed2c1"/><path d="m64 27.7425743c-1.1688312.5445544-1.8701299 1.980198-2.4545455 4.2574257l-.5454545-.2475248c.6233766-2.5247524 1.6363636-4.1089108 3-4.7524752" fill="#240c09"/><path d="m55.038575 40.341678c-.0503157.114262-.0514539.243973-.0031512.3590884.0483028.1151154.1418559.2056478.2589898.2506275l1.4326963.5080965c.2503569.0358925.4895549-.1152592.562845-.3556676.0652901-.2518223-.0374398-.5170508-.2558387-.6605255l-.6651804-.2032387c-.2248299-.1129635-.3333747-.3716481-.2558386-.6097159.5695969-1.8825276 1.2881838-3.7173919 2.1490444-5.487443.562845-.9653835 1.0745222-1.7275284 1.5861995-1.9815766.1763345-.1365513.4173495-.1564954.6140127-.0508097.4605095.3048579.6651804 1.2702414.6140127 2.4896732-.0592763 2.0383281-.3336717 4.0648624-.8186836 6.0463493-.0438337.1944563-.2094295.3383387-.4093418.3556676l-.8698513-.1016193c-.2558387-.0508097-.4605096.152429-.5116773.4572869-.0303824.1215096-.0092652.2500752.0584248.3557009.06769.1056256.1760323.1790728.2997493.2032053h.7675159c.3070063.0508097.8698513.2032387 1.1256899-.1016193.2558386-.3048579.1535032-.2540483.2046709-.4064772.0920522-.2471409.1605754-.502305.2046709-.7621449.2631096-1.1064799.4680576-2.2258058.6140127-3.3534374.1359037-.8580952.2213281-1.7233264.2558386-2.5912926.0096561-.3733375-.0074429-.7468843-.0511677-1.1178124-.1023354-.9145739-.3070063-1.9815767-1.0233545-2.4388636-.4408119-.2101303-.9575778-.1911248-1.3815286.0508097-.7675158.4064772-1.483864 1.47348-2.1490444 2.6929118-.9967423 2.0686889-1.785146 4.2301367-2.3537153 6.4528266z" fill="#fff"/><path d="m58 35.121559.7551268.2196103c.4886115-1.0431487.9328038-1.8666872 1.3769961-2.1412.1530777-.147551.3623054-.1691016.5330307-.0549025.399773.3294153.5774499 1.372564.5330307 2.6902255l.7995461.1647077c.0083825-.4034113-.0064614-.8070486-.0444193-1.2078564-.0888384-.9882461-.2665153-2.1411999-.8883845-2.635323-.3826733-.227057-.8312831-.2065205-1.1993191.0549026-.6662884.4392205-1.2881576 1.5921743-1.8656075 2.9098358z" fill="#240c09"/><path d="m72.7537834 23.0987261-.4001952-1.0987261c2.8513913 2.6273885 1.7508543 5.4458599-1.4006835 8.0254777-4.402148 3.678344-5.1525142 6.9267516-5.1525142 6.9745223l-.8003905-.1433121c.0500244-.1433121.7503661-3.5350318 5.4526606-7.4044586 3.1015134-2.5796178 2.9514402-4.7770701 2.3011228-6.3535032z" fill="#240c09"/><path d="m62.4568862 37.7292744c-.3376547.4091489-.4986902.9358069-.4475919 1.4638252.0510984.5280183.3101332 1.0140241.7199772 1.3508341.5514455.4541334 1.3032783.5795761 1.9722905.3290751.6690122-.2505009 1.1535647-.8388885 1.2711315-1.5435228.1175667-.7046344-.1497137-1.4184646-.7011591-1.872598-.4091473-.337656-.9358031-.4986922-1.4638194-.4475936-.5280162.0510985-1.0140201.3101344-1.3508288.71998z" fill="#fff"/><path d="m64.2381539 37.3756964c-.1765059.2002299-.2610651.4665571-.232802.733232.028263.266675.1667145.5088467.3811742.666729.3109314.2557727.7438181.2965432 1.0961343.103237.3523161-.1933062.5543924-.5824635.5116874-.9854047-.0427049-.4029411-.3217464-.739986-.7065748-.8534482-.3848284-.1134621-.7993453.0190951-1.0496191.3356549z" fill="#5b95c1"/></g></g></svg>