<?xml version="1.0" encoding="UTF-8"?>
<svg width="1200px" height="400px" viewBox="0 0 1200 400" version="1.1" xmlns="http://www.w3.org/2000/svg" xmlns:xlink="http://www.w3.org/1999/xlink">
    <!-- Generator: Sketch 53.2 (72643) - https://sketchapp.com -->
    <title>da-02-wetgeving-publieke-waarden</title>
    <desc>Created with Sketch.</desc>
    <defs>
        <polyline id="path-1" points="0.664 241.679 0.664 425.679 1239.664 425.679 1239.664 241.679 0.664 241.679"></polyline>
        <filter x="-3.6%" y="-28.3%" width="108.7%" height="158.7%" filterUnits="objectBoundingBox" id="filter-2">
            <feMorphology radius="7" operator="dilate" in="SourceAlpha" result="shadowSpreadOuter1"></feMorphology>
            <feOffset dx="9" dy="2" in="shadowSpreadOuter1" result="shadowOffsetOuter1"></feOffset>
            <feGaussianBlur stdDeviation="9.5" in="shadowOffsetOuter1" result="shadowBlurOuter1"></feGaussianBlur>
            <feColorMatrix values="0 0 0 0 0.628368433   0 0 0 0 0.628368433   0 0 0 0 0.628368433  0 0 0 0.5 0" type="matrix" in="shadowBlurOuter1"></feColorMatrix>
        </filter>
    </defs>
    <g id="da-02-wetgeving-publieke-waarden" stroke="none" stroke-width="1" fill="none" fill-rule="evenodd">
        <g id="achtergrond-header-images">
            <g id="Group" stroke-width="1" fill-rule="evenodd" transform="translate(-17.000000, 0.000000)">
                <polyline id="Path" fill="#DDEFF8" fill-rule="nonzero" points="17 0 17 400 1217 400 1217 0 17 0"></polyline>
                <g id="Path" fill-rule="nonzero">
                    <use fill="black" fill-opacity="1" filter="url(#filter-2)" xlink:href="#path-1"></use>
                    <use fill="#BCDFF1" xlink:href="#path-1"></use>
                </g>
            </g>
            <path d="M667.789,151 L660.652,151 L662.563,125.416 L669.193,125.416 C672.599017,125.416 675.354989,126.41049 677.461,128.3995 C679.567011,130.38851 680.62,133.098983 680.62,136.531 C680.62,141.289024 679.443512,144.889988 677.0905,147.334 C674.737488,149.778012 671.637019,151 667.789,151 Z M668.764,127.912 L665.293,127.912 L663.772,148.504 L668.101,148.504 C670.831014,148.504 673.086491,147.561509 674.8675,145.6765 C676.648509,143.791491 677.539,140.89902 677.539,136.999 C677.539,134.164986 676.752508,131.942008 675.1795,130.33 C673.606492,128.717992 671.468014,127.912 668.764,127.912 Z M694.504,144.994 L695.479,134.152 C695.140998,134.074 694.751002,134.0155 694.309,133.9765 C693.866998,133.9375 693.438002,133.918 693.022,133.918 C691.565993,133.918 690.207506,134.814991 688.9465,136.609 C687.685494,138.403009 687.055,141.041983 687.055,144.526 C687.055,146.112008 687.282498,147.223497 687.7375,147.8605 C688.192502,148.497503 688.744997,148.816 689.395,148.816 C690.071003,148.816 690.857496,148.497503 691.7545,147.8605 C692.651504,147.223497 693.567995,146.268006 694.504,144.994 Z M696.142,131.89 L698.482,131.5 L696.727,151 L694.036,151 L694.348,147.88 L694.231,147.88 C693.372996,149.076006 692.463005,149.953497 691.501,150.5125 C690.538995,151.071503 689.525005,151.351 688.459,151.351 C687.184994,151.351 686.151504,150.850505 685.3585,149.8495 C684.565496,148.848495 684.169,147.139012 684.169,144.721 C684.169,140.482979 685.098491,137.233011 686.9575,134.971 C688.816509,132.708989 690.915988,131.578 693.256,131.578 C693.828003,131.578 694.347998,131.604 694.816,131.656 C695.284002,131.708 695.725998,131.785999 696.142,131.89 Z M702.226,134.152 L702.226,131.929 L704.449,131.929 L704.839,127.834 L707.608,127.405 L707.14,131.929 L711.079,131.929 L710.845,134.152 L706.906,134.152 L705.775,145.345 C705.644999,146.697007 705.729499,147.613498 706.0285,148.0945 C706.327501,148.575502 706.801997,148.816 707.452,148.816 C707.946002,148.816 708.381498,148.777 708.7585,148.699 C709.135502,148.621 709.609997,148.491001 710.182,148.309 L710.182,150.766 C709.531997,151.000001 708.966502,151.156 708.4855,151.234 C708.004498,151.312 707.374004,151.351 706.594,151.351 C705.267993,151.351 704.286503,150.909004 703.6495,150.025 C703.012497,149.140996 702.797999,147.646011 703.006,145.54 L704.176,134.152 L702.226,134.152 Z M723.52,144.994 L724.495,134.152 C724.156998,134.074 723.767002,134.0155 723.325,133.9765 C722.882998,133.9375 722.454002,133.918 722.038,133.918 C720.581993,133.918 719.223506,134.814991 717.9625,136.609 C716.701494,138.403009 716.071,141.041983 716.071,144.526 C716.071,146.112008 716.298498,147.223497 716.7535,147.8605 C717.208502,148.497503 717.760997,148.816 718.411,148.816 C719.087003,148.816 719.873496,148.497503 720.7705,147.8605 C721.667504,147.223497 722.583995,146.268006 723.52,144.994 Z M725.158,131.89 L727.498,131.5 L725.743,151 L723.052,151 L723.364,147.88 L723.247,147.88 C722.388996,149.076006 721.479005,149.953497 720.517,150.5125 C719.554995,151.071503 718.541005,151.351 717.475,151.351 C716.200994,151.351 715.167504,150.850505 714.3745,149.8495 C713.581496,148.848495 713.185,147.139012 713.185,144.721 C713.185,140.482979 714.114491,137.233011 715.9735,134.971 C717.832509,132.708989 719.931988,131.578 722.272,131.578 C722.844003,131.578 723.363998,131.604 723.832,131.656 C724.300002,131.708 724.741998,131.785999 725.158,131.89 Z M747.778,127.756 L747.505,127.756 L742.435,141.874 L750.391,141.874 L747.778,127.756 Z M750.157,125.416 L755.227,151 L751.99,151 L750.742,144.37 L741.421,144.37 L739.12,151 L736,151 L745.828,125.416 L750.157,125.416 Z M769.033,144.994 L770.008,134.152 C769.669998,134.074 769.280002,134.0155 768.838,133.9765 C768.395998,133.9375 767.967002,133.918 767.551,133.918 C766.094993,133.918 764.736506,134.814991 763.4755,136.609 C762.214494,138.403009 761.584,141.041983 761.584,144.526 C761.584,146.112008 761.811498,147.223497 762.2665,147.8605 C762.721502,148.497503 763.273997,148.816 763.924,148.816 C764.600003,148.816 765.386496,148.497503 766.2835,147.8605 C767.180504,147.223497 768.096995,146.268006 769.033,144.994 Z M770.671,131.89 L773.011,131.5 L771.256,151.195 C771.021999,153.821013 770.177007,155.705994 768.721,156.85 C767.264993,157.994006 765.56201,158.566 763.612,158.566 C762.623995,158.566 761.707504,158.527 760.8625,158.449 C760.017496,158.371 759.101005,158.241001 758.113,158.059 L758.113,155.368 C759.075005,155.628001 759.984996,155.822999 760.843,155.953 C761.701004,156.083001 762.558996,156.148 763.417,156.148 C764.899007,156.148 766.075496,155.764504 766.9465,154.9975 C767.817504,154.230496 768.343999,152.989009 768.526,151.273 L768.877,147.88 L768.76,147.88 C767.875996,149.076006 766.959505,149.953497 766.0105,150.5125 C765.061495,151.071503 764.054005,151.351 762.988,151.351 C761.713994,151.351 760.680504,150.850505 759.8875,149.8495 C759.094496,148.848495 758.698,147.139012 758.698,144.721 C758.698,140.482979 759.627491,137.233011 761.4865,134.971 C763.345509,132.708989 765.444988,131.578 767.785,131.578 C768.357003,131.578 768.876998,131.604 769.345,131.656 C769.813002,131.708 770.254998,131.785999 770.671,131.89 Z M776.482,144.292 C776.482,140.001979 777.339991,136.81051 779.056,134.7175 C780.772009,132.62449 782.61799,131.578 784.594,131.578 C786.180008,131.578 787.401996,131.967996 788.26,132.748 C789.118004,133.528004 789.547,134.606993 789.547,135.985 C789.547,138.169011 788.624009,139.949993 786.778,141.328 C784.931991,142.706007 782.436016,143.395 779.29,143.395 C779.29,145.527011 779.627997,146.963496 780.304,147.7045 C780.980003,148.445504 781.941994,148.816 783.19,148.816 C784.074004,148.816 784.925496,148.699001 785.7445,148.465 C786.563504,148.230999 787.388996,147.893002 788.221,147.451 L788.221,149.986 C787.310995,150.480002 786.414004,150.830999 785.53,151.039 C784.645996,151.247001 783.606006,151.351 782.41,151.351 C780.511991,151.351 779.049505,150.792006 778.0225,149.674 C776.995495,148.555994 776.482,146.762012 776.482,144.292 Z M786.661,136.336 C786.661,135.555996 786.453002,134.971002 786.037,134.581 C785.620998,134.190998 785.036004,133.996 784.282,133.996 C783.319995,133.996 782.345005,134.587494 781.357,135.7705 C780.368995,136.953506 779.745001,138.766988 779.485,141.211 C781.773011,141.211 783.540994,140.736505 784.789,139.7875 C786.037006,138.838495 786.661,137.688007 786.661,136.336 Z M802.261,151 L803.47,138.403 C803.626001,136.842992 803.515502,135.764003 803.1385,135.166 C802.761498,134.567997 802.248003,134.269 801.598,134.269 C801.025997,134.269 800.291504,134.515998 799.3945,135.01 C798.497496,135.504002 797.451006,136.270995 796.255,137.311 L795.007,151 L792.238,151 L793.954,132.085 L796.723,131.734 L796.45,134.659 L796.567,134.659 C797.685006,133.540994 798.711995,132.748002 799.648,132.28 C800.584005,131.811998 801.493996,131.578 802.378,131.578 C803.730007,131.578 804.769996,132.065495 805.498,133.0405 C806.226004,134.015505 806.486001,135.659988 806.278,137.974 L805.03,151 L802.261,151 Z M820.552,144.994 L821.566,134.152 C821.227998,134.074 820.831502,134.0155 820.3765,133.9765 C819.921498,133.9375 819.486002,133.918 819.07,133.918 C817.613993,133.918 816.255506,134.814991 814.9945,136.609 C813.733494,138.403009 813.103,141.041983 813.103,144.526 C813.103,146.112008 813.330498,147.223497 813.7855,147.8605 C814.240502,148.497503 814.792997,148.816 815.443,148.816 C816.119003,148.816 816.905496,148.497503 817.8025,147.8605 C818.699504,147.223497 819.615995,146.268006 820.552,144.994 Z M825.271,123.661 L822.775,151 L820.084,151 L820.396,147.88 L820.279,147.88 C819.394996,149.076006 818.478505,149.953497 817.5295,150.5125 C816.580495,151.071503 815.573005,151.351 814.507,151.351 C813.232994,151.351 812.199504,150.850505 811.4065,149.8495 C810.613496,148.848495 810.217,147.139012 810.217,144.721 C810.217,140.482979 811.146491,137.233011 813.0055,134.971 C814.864509,132.708989 816.963988,131.578 819.304,131.578 C819.798002,131.578 820.246498,131.5975 820.6495,131.6365 C821.052502,131.6755 821.422998,131.734 821.761,131.812 L822.463,124.012 L825.271,123.661 Z M838.492,144.994 L839.467,134.152 C839.128998,134.074 838.739002,134.0155 838.297,133.9765 C837.854998,133.9375 837.426002,133.918 837.01,133.918 C835.553993,133.918 834.195506,134.814991 832.9345,136.609 C831.673494,138.403009 831.043,141.041983 831.043,144.526 C831.043,146.112008 831.270498,147.223497 831.7255,147.8605 C832.180502,148.497503 832.732997,148.816 833.383,148.816 C834.059003,148.816 834.845496,148.497503 835.7425,147.8605 C836.639504,147.223497 837.555995,146.268006 838.492,144.994 Z M840.13,131.89 L842.47,131.5 L840.715,151 L838.024,151 L838.336,147.88 L838.219,147.88 C837.360996,149.076006 836.451005,149.953497 835.489,150.5125 C834.526995,151.071503 833.513005,151.351 832.447,151.351 C831.172994,151.351 830.139504,150.850505 829.3465,149.8495 C828.553496,148.848495 828.157,147.139012 828.157,144.721 C828.157,140.482979 829.086491,137.233011 830.9455,134.971 C832.804509,132.708989 834.903988,131.578 837.244,131.578 C837.816003,131.578 838.335998,131.604 838.804,131.656 C839.272002,131.708 839.713998,131.785999 840.13,131.89 Z M865.285,125.065 C867.911013,125.065 870.055992,126.05949 871.72,128.0485 C873.384008,130.03751 874.216,132.773983 874.216,136.258 C874.216,141.120024 873.026512,144.850987 870.6475,147.451 C868.268488,150.051013 865.532015,151.351 862.438,151.351 C859.785987,151.351 857.634508,150.480009 855.9835,148.738 C854.332492,146.995991 853.507,144.344018 853.507,140.782 C853.507,135.685975 854.637989,131.792513 856.9,129.1015 C859.162011,126.410487 861.956983,125.065 865.285,125.065 Z M864.778,127.756 C862.593989,127.756 860.689508,128.821989 859.0645,130.954 C857.439492,133.086011 856.627,136.16698 856.627,140.197 C856.627,143.317016 857.211994,145.513994 858.382,146.788 C859.552006,148.062006 861.072991,148.699 862.945,148.699 C864.97301,148.699 866.838491,147.71751 868.5415,145.7545 C870.244509,143.79149 871.096,140.84702 871.096,136.921 C871.096,133.670984 870.511006,131.331007 869.341,129.901 C868.170994,128.470993 866.650009,127.756 864.778,127.756 Z M880.69,151 L877.375,131.929 L880.339,131.929 L882.874,148.465 L883.03,148.465 L884.083,146.32 C885.045005,144.36999 885.863997,142.270511 886.54,140.0215 C887.216003,137.772489 887.800998,135.075016 888.295,131.929 L891.181,131.929 C890.686998,134.945015 890.024004,137.661988 889.192,140.08 C888.359996,142.498012 887.359006,144.811989 886.189,147.022 L884.083,151 L880.69,151 Z M892.663,144.292 C892.663,140.001979 893.520991,136.81051 895.237,134.7175 C896.953009,132.62449 898.79899,131.578 900.775,131.578 C902.361008,131.578 903.582996,131.967996 904.441,132.748 C905.299004,133.528004 905.728,134.606993 905.728,135.985 C905.728,138.169011 904.805009,139.949993 902.959,141.328 C901.112991,142.706007 898.617016,143.395 895.471,143.395 C895.471,145.527011 895.808997,146.963496 896.485,147.7045 C897.161003,148.445504 898.122994,148.816 899.371,148.816 C900.255004,148.816 901.106496,148.699001 901.9255,148.465 C902.744504,148.230999 903.569996,147.893002 904.402,147.451 L904.402,149.986 C903.491995,150.480002 902.595004,150.830999 901.711,151.039 C900.826996,151.247001 899.787006,151.351 898.591,151.351 C896.692991,151.351 895.230505,150.792006 894.2035,149.674 C893.176495,148.555994 892.663,146.762012 892.663,144.292 Z M902.842,136.336 C902.842,135.555996 902.634002,134.971002 902.218,134.581 C901.801998,134.190998 901.217004,133.996 900.463,133.996 C899.500995,133.996 898.526005,134.587494 897.538,135.7705 C896.549995,136.953506 895.926001,138.766988 895.666,141.211 C897.954011,141.211 899.721994,140.736505 900.97,139.7875 C902.218006,138.838495 902.842,137.688007 902.842,136.336 Z M918.442,131.851 L918.091,134.581 C917.882999,134.555 917.701001,134.5355 917.545,134.5225 C917.388999,134.5095 917.194001,134.503 916.96,134.503 C916.231996,134.503 915.465004,134.840997 914.659,135.517 C913.852996,136.193003 913.086004,137.128994 912.358,138.325 L911.266,151 L908.497,151 L910.096,132.085 L912.865,131.734 L912.514,135.322 L912.67,135.322 C913.554004,133.761992 914.327497,132.748002 914.9905,132.28 C915.653503,131.811998 916.374996,131.578 917.155,131.578 C917.389001,131.578 917.616499,131.5975 917.8375,131.6365 C918.058501,131.6755 918.259999,131.746999 918.442,131.851 Z M929.596,151 L930.805,138.403 C930.935001,136.842992 930.824502,135.764003 930.4735,135.166 C930.122498,134.567997 929.622003,134.269 928.972,134.269 C928.373997,134.269 927.620005,134.515998 926.71,135.01 C925.799995,135.504002 924.760006,136.270995 923.59,137.311 L922.342,151 L919.573,151 L922.03,124.012 L924.838,123.661 L923.785,134.659 L923.902,134.659 C925.020006,133.566995 926.046995,132.780502 926.983,132.2995 C927.919005,131.818498 928.828996,131.578 929.713,131.578 C931.065007,131.578 932.104996,132.065495 932.833,133.0405 C933.561004,134.015505 933.821001,135.659988 933.613,137.974 L932.365,151 L929.596,151 Z M937.435,144.292 C937.435,140.001979 938.292991,136.81051 940.009,134.7175 C941.725009,132.62449 943.57099,131.578 945.547,131.578 C947.133008,131.578 948.354996,131.967996 949.213,132.748 C950.071004,133.528004 950.5,134.606993 950.5,135.985 C950.5,138.169011 949.577009,139.949993 947.731,141.328 C945.884991,142.706007 943.389016,143.395 940.243,143.395 C940.243,145.527011 940.580997,146.963496 941.257,147.7045 C941.933003,148.445504 942.894994,148.816 944.143,148.816 C945.027004,148.816 945.878496,148.699001 946.6975,148.465 C947.516504,148.230999 948.341996,147.893002 949.174,147.451 L949.174,149.986 C948.263995,150.480002 947.367004,150.830999 946.483,151.039 C945.598996,151.247001 944.559006,151.351 943.363,151.351 C941.464991,151.351 940.002505,150.792006 938.9755,149.674 C937.948495,148.555994 937.435,146.762012 937.435,144.292 Z M947.614,136.336 C947.614,135.555996 947.406002,134.971002 946.99,134.581 C946.573998,134.190998 945.989004,133.996 945.235,133.996 C944.272995,133.996 943.298005,134.587494 942.31,135.7705 C941.321995,136.953506 940.698001,138.766988 940.438,141.211 C942.726011,141.211 944.493994,140.736505 945.742,139.7875 C946.990006,138.838495 947.614,137.688007 947.614,136.336 Z M955.18,125.923 C955.18,125.324997 955.355498,124.850502 955.7065,124.4995 C956.057502,124.148498 956.518997,123.973 957.091,123.973 C957.585002,123.973 957.961999,124.109499 958.222,124.3825 C958.482001,124.655501 958.612,125.038998 958.612,125.533 C958.612,126.053003 958.443002,126.501498 958.105,126.8785 C957.766998,127.255502 957.299003,127.444 956.701,127.444 C956.258998,127.444 955.895001,127.314001 955.609,127.054 C955.322999,126.793999 955.18,126.417002 955.18,125.923 Z M957.715,131.734 L955.96,151 L953.191,151 L954.907,132.085 L957.715,131.734 Z M971.716,144.994 L972.73,134.152 C972.391998,134.074 971.995502,134.0155 971.5405,133.9765 C971.085498,133.9375 970.650002,133.918 970.234,133.918 C968.777993,133.918 967.419506,134.814991 966.1585,136.609 C964.897494,138.403009 964.267,141.041983 964.267,144.526 C964.267,146.112008 964.494498,147.223497 964.9495,147.8605 C965.404502,148.497503 965.956997,148.816 966.607,148.816 C967.283003,148.816 968.069496,148.497503 968.9665,147.8605 C969.863504,147.223497 970.779995,146.268006 971.716,144.994 Z M976.435,123.661 L973.939,151 L971.248,151 L971.56,147.88 L971.443,147.88 C970.558996,149.076006 969.642505,149.953497 968.6935,150.5125 C967.744495,151.071503 966.737005,151.351 965.671,151.351 C964.396994,151.351 963.363504,150.850505 962.5705,149.8495 C961.777496,148.848495 961.381,147.139012 961.381,144.721 C961.381,140.482979 962.310491,137.233011 964.1695,134.971 C966.028509,132.708989 968.127988,131.578 970.468,131.578 C970.962002,131.578 971.410498,131.5975 971.8135,131.6365 C972.216502,131.6755 972.586998,131.734 972.925,131.812 L973.627,124.012 L976.435,123.661 Z" id="DataAgendaOverheid" fill="#000000" fill-rule="nonzero"></path>
            <path d="M679.784,102 L669.424,72.32 L669.088,72.32 L669.088,102 L662.648,102 L662.648,65.264 L673.736,65.264 L684.152,94.944 L684.488,94.944 L684.488,65.264 L690.928,65.264 L690.928,102 L679.784,102 Z M700.168,102 L700.168,65.264 L707.448,65.264 L707.448,96.064 L719.88,96.064 L719.88,102 L700.168,102 Z M746.984,102 L736.624,102 L736.624,65.264 L747.32,65.264 C753.629365,65.264 758.463983,66.7853181 761.824,69.828 C765.184017,72.8706819 766.864,77.1173061 766.864,82.568 C766.864,89.2133666 765.081351,94.1133176 761.516,97.268 C757.950649,100.422682 753.106697,102 746.984,102 Z M743.904,71.2 L743.904,96.064 L747.32,96.064 C750.904018,96.064 753.778656,95.0373436 755.944,92.984 C758.109344,90.9306564 759.192,87.57069 759.192,82.904 C759.192,79.1333145 758.081344,76.2400101 755.86,74.224 C753.638656,72.2079899 750.642686,71.2 746.872,71.2 L743.904,71.2 Z M781.424,65.264 L781.424,102 L774.144,102 L774.144,65.264 L781.424,65.264 Z M805.896,89.288 L805.896,83.352 L818.272,83.352 L818.272,101.328 C816.442658,101.701335 814.622676,101.971999 812.812,102.14 C811.001324,102.308001 809.106677,102.392 807.128,102.392 C801.565306,102.392 797.094684,100.908015 793.716,97.94 C790.337316,94.9719852 788.648,90.5760291 788.648,84.752 C788.648,78.1066334 790.551981,73.1320165 794.36,69.828 C798.168019,66.5239835 802.965304,64.872 808.752,64.872 C810.432008,64.872 811.925327,64.9279994 813.232,65.04 C814.538673,65.1520006 815.845327,65.3386654 817.152,65.6 L816.648,71.76 C815.117326,71.5359989 813.736006,71.386667 812.504,71.312 C811.271994,71.237333 809.946674,71.2 808.528,71.2 C804.831982,71.2 801.873344,72.2919891 799.652,74.476 C797.430656,76.6600109 796.32,79.8613122 796.32,84.08 C796.32,88.1493537 797.393323,91.2293229 799.54,93.32 C801.686677,95.4106771 804.290651,96.456 807.352,96.456 C808.136004,96.456 808.798664,96.4373335 809.34,96.4 C809.881336,96.3626665 810.52533,96.306667 811.272,96.232 L811.272,89.288 L805.896,89.288 Z M833.504,65.264 L833.504,102 L826.224,102 L826.224,65.264 L833.504,65.264 Z M856.688,71.2 L856.688,102 L849.408,102 L849.408,71.2 L839.328,71.2 L839.328,65.264 L866.768,65.264 L866.768,71.2 L856.688,71.2 Z M885.08,88.28 L880.544,71.312 L880.152,71.312 L875.616,88.28 L885.08,88.28 Z M886.312,65.264 L897.008,102 L888.608,102 L886.592,94.104 L874.16,94.104 L872.144,102 L864.584,102 L875.336,65.264 L886.312,65.264 Z M918.792,88.28 L914.256,71.312 L913.864,71.312 L909.328,88.28 L918.792,88.28 Z M920.024,65.264 L930.72,102 L922.32,102 L920.304,94.104 L907.872,94.104 L905.856,102 L898.296,102 L909.048,65.264 L920.024,65.264 Z M936.04,102 L936.04,65.264 L943.32,65.264 L943.32,96.064 L955.752,96.064 L955.752,102 L936.04,102 Z" id="NLDIGITAAL" fill="#007BC7" fill-rule="nonzero"></path>
        </g>
        <g id="Hoofdstuk-2-site_NDA[v1]" transform="translate(102.000000, 134.000000)" fill-rule="nonzero">
            <g id="Group" transform="translate(487.000000, 154.000000)">
                <polygon id="Path" fill="#1D2121" points="101.2 87.3 105.9 150 105 150 97.3 87.3"></polygon>
                <polygon id="Path" fill="#1D2121" points="72.7 87.3 68 150 68.9 150 76.5 87.3"></polygon>
                <polygon id="Path" fill="#402A1B" points="30.7 159.1 27.4 172.2 27.4 90.1 30.7 90.1"></polygon>
                <polygon id="Path" fill="#402A1B" points="92.6 172.2 95.9 159.1 95.9 90.1 92.6 90.1"></polygon>
                <rect id="Rectangle" fill="#5B361E" x="21.3" y="90.1" width="6.1" height="82.1"></rect>
                <rect id="Rectangle" fill="#5B361E" x="86.5" y="90.1" width="6.1" height="82.1"></rect>
                <rect id="Rectangle" fill="#86532D" x="13" y="75.7" width="88.4" height="34.8"></rect>
                <polygon id="Path" fill="#402A1B" points="101.4 110.5 106.6 98.7 106.6 75.7 101.4 75.7"></polygon>
                <polygon id="Path" fill="#402A1B" points="110.6 92.7 0.8 92.7 15.8 66.7 119.7 66.7"></polygon>
                <polygon id="Path" fill="#402A1B" points="119.7 72.4 110.6 98.2 110.6 92.7 119.7 66.9"></polygon>
                <path d="M96.6,27.5 C96.6,27.5 108.4,29.2 109,32 C109.6,34.8 110,49.5 109,57.8 C108,66.1 108.9,69.8 103.1,69.7 C97.3,69.6 71.4,68.1 71.4,68.1 L71.4,61.1 L65,60.9 L54,54.3 C54,54.3 62.5,36.2 63.5,34.4 C64.5,32.6 68.4,31.1 75.8,31.3 C83.2,31.5 84.9,32.1 84.9,32.1 L96.6,27.5 Z" id="Path" fill="#6B9C53"></path>
                <path d="M83.9,34.3 L78.4,37.5 L75.8,31.1 L78.4,28.6 C78.4,28.7 83.2,31.9 83.9,34.3" id="Path" fill="#3A8835"></path>
                <path d="M81.6,31.5 C81.6,31.5 83.5,33.1 83.9,34.2 C83.9,34.2 90.4,30.3 91.8,26 L90,20.1 L81.6,31.5 Z" id="Path" fill="#F6B075"></path>
                <polygon id="Path" fill="#3A8835" points="83.9 34.3 88.4 39.1 96.6 27.5 92.3 25.4"></polygon>
                <path d="M90,20.2 L81.6,31.6 C81.6,31.6 82.3,32.2 83,33 C85.6,31.5 88.9,27.5 89.5,26.6 C90.2,25.4 90.5,24 90.7,22.5 L90,20.2 Z" id="Path" fill="#F19C55"></path>
                <path d="M71.5,11.7 C71.2,13.5 72.1,16.1 72.4,17.4 C72.8,18.7 72.6,23.4 74,25.4 C75.5,27.4 78.2,32.9 80.7,32.3 C83.3,31.8 87.8,26.8 88.7,26 C89.6,25.1 90.7,22.4 90.2,20.2 C90.2,20.2 90.6,19.8 90.9,19 C91.2,18.2 91.8,16.3 91.7,15.1 C91.6,14.1 91.2,13.1 90.2,13.8 C89.1,14.5 88.9,16.3 88.9,16.3 C88.9,16.3 85.6,10.6 81.6,10.2 C77.7,9.8 71.8,9.7 71.5,11.7" id="Path" fill="#F6B075"></path>
                <path d="M71.5,13.9 C71.5,13.9 69,12 69.7,8.3 C70.5,4.5 73.9,1.7 77.3,0.6 C81.8,-0.9 88.3,1.8 90,5.5 C91.7,9.3 91,10.5 91,13.6 C91,13.6 89.1,13.2 88.9,18.2 L88.2,18.7 C88.2,18.7 84.7,10.7 78.8,10.7 C72.8,10.5 71.7,12.3 71.5,13.9" id="Path" fill="#020203"></path>
                <path d="M71.5,13.9 C71.5,13.9 67.7,12.2 67.5,6.2 C67.5,6.2 69.9,6.5 73,2.7 C76.1,-1.2 83.1,0.8 83.1,0.8 L83.1,9.1 C83.1,9.1 72.9,8.8 72.2,10.3 C71.5,11.7 71.5,13.9 71.5,13.9" id="Path" fill="#020203"></path>
                <path d="M103.1,34.3 C103.1,34.3 95.3,43.4 95.8,56.4 C95.8,56.4 89.7,59.9 83.9,60.3 C78.1,60.7 71.4,61 71.4,61 L65,60.8 L65,59.3 C65,59.3 79.3,59.1 81.8,58.8 C84.3,58.6 92.1,56.6 92.9,54.4 C93.8,52.2 95.7,39.5 103.1,34.3" id="Path" fill="#3A8835"></path>
                <polygon id="Path" fill="#3A8835" points="66.9 37.5 63.3 59.7 65.9 61"></polygon>
                <path d="M73.8,82 L73.8,82.6 C73.8,82.6 73.9,83.1 74.8,82.6 C75.7,82.1 91,73.5 91,73.5 C91,73.5 91.5,73 90.9,72.6 L73.8,82 Z" id="Path" fill="#5B361E"></path>
                <path d="M72.5,82.5 C72.9,82.5 73.5,82.4 73.9,82.2 L90.8,73 C91.1,72.8 91.1,72.6 90.7,72.6 L47.5,67.7 C47.1,67.7 46.5,67.8 46.2,68 L30.7,77.2 C30.4,77.4 30.4,77.6 30.8,77.7 L72.5,82.5 Z" id="Path" fill="#FFFFFF"></path>
                <path d="M73.8,82.4 C73.8,82.8 73.5,83.1 73.1,83 L30.8,78.1 C30.4,78.1 30.1,77.7 30.1,77.3 L30.1,38.7 C30.1,38.3 30.4,38 30.8,38.1 L73.1,43 C73.5,43 73.8,43.4 73.8,43.8 L73.8,82.4 Z" id="Path" fill="#402A1B"></path>
                <path d="M73.8,82 C73.8,82.4 73.5,82.7 73.1,82.6 L30.8,77.7 C30.4,77.7 30.1,77.3 30.1,76.9 L30.1,38.3 C30.1,37.9 30.4,37.6 30.8,37.7 L73.1,42.6 C73.5,42.6 73.8,43 73.8,43.4 L73.8,82 Z" id="Path" fill="#B4D0D6"></path>
                <path d="M54.5,61.1 C54.8,60.7 54.9,60.1 54.9,59.5 C54.9,57.8 53.5,56.2 51.7,56 C50,55.8 48.6,57 48.6,58.8 C48.6,59.4 48.8,60 49,60.5 C49.8,62.1 50,62.5 50.1,63.2 C50.1,64.2 50.1,65.1 50.1,65.1 L51.8,65.3 L53.5,65.5 C53.5,65.5 53.5,64.7 53.5,63.6 C53.5,62.9 53.6,62.5 54.5,61.1" id="Path" fill="#FFFFFF"></path>
                <path d="M51.8,65.7 L50.6,65.6 C50.8,66.6 51.8,66.7 51.8,66.7 C51.8,66.7 52.8,66.8 53,65.9 L51.8,65.7 Z" id="Path" fill="#FFFFFF"></path>
                <path d="M54,64.4 C54,64.7 53.8,64.9 53.5,64.9 L50.3,64.6 C50,64.6 49.8,64.3 49.8,64 C49.8,63.7 50,63.5 50.3,63.5 L53.5,63.8 C53.7,63.9 53.9,64.1 54,64.4" id="Path" fill="#FFFFFF"></path>
                <path d="M53.8,64.3 C53.8,64.5 53.6,64.7 53.3,64.7 L50.4,64.4 C50.1,64.4 49.9,64.2 49.9,63.9 C49.9,63.7 50.1,63.5 50.4,63.5 L53.3,63.8 C53.6,63.8 53.8,64.1 53.8,64.3" id="Path" fill="#FFFFFF"></path>
                <path d="M54,65.5 C54,65.8 53.8,66 53.5,66 L50.3,65.7 C50,65.7 49.7,65.4 49.7,65.1 C49.7,64.8 49.9,64.6 50.2,64.6 L53.4,64.9 C53.7,64.9 54,65.2 54,65.5" id="Path" fill="#FFFFFF"></path>
                <path d="M51.8,53.8 C51.9,53.8 52,53.9 52,54 L52,55.3 C52,55.4 51.9,55.5 51.8,55.5 C51.7,55.5 51.6,55.4 51.6,55.3 L51.6,54 C51.6,53.9 51.7,53.8 51.8,53.8" id="Path" fill="#FFFFFF"></path>
                <path d="M49,54.2 C49.1,54.2 49.2,54.2 49.3,54.3 L49.9,55.5 C50,55.6 49.9,55.7 49.8,55.8 C49.7,55.8 49.6,55.8 49.5,55.7 L48.9,54.5 C48.8,54.4 48.9,54.3 49,54.2" id="Path" fill="#FFFFFF"></path>
                <path d="M46.9,56.1 C47,56 47.1,56 47.2,56 L48.3,56.8 C48.4,56.9 48.4,57 48.4,57.1 C48.3,57.2 48.2,57.2 48.1,57.1 L47,56.3 C46.9,56.3 46.8,56.2 46.9,56.1" id="Path" fill="#FFFFFF"></path>
                <path d="M46.1,58.8 C46.1,58.7 46.2,58.6 46.3,58.6 L47.6,58.7 C47.7,58.7 47.8,58.8 47.8,58.9 C47.8,59 47.7,59.1 47.6,59.1 L46.3,59 C46.2,59 46.1,58.9 46.1,58.8" id="Path" fill="#FFFFFF"></path>
                <path d="M46.9,61.8 C46.8,61.7 46.9,61.6 47,61.5 L48.1,61 C48.2,61 48.3,61 48.4,61.1 C48.5,61.2 48.4,61.3 48.3,61.4 L47.2,61.9 C47.1,61.9 46.9,61.9 46.9,61.8" id="Path" fill="#FFFFFF"></path>
                <path d="M54.6,54.9 C54.5,54.8 54.4,54.8 54.3,54.9 L53.7,55.9 C53.7,56 53.7,56.1 53.8,56.2 C53.9,56.3 54,56.2 54.1,56.2 L54.7,55.2 C54.7,55.1 54.7,55 54.6,54.9" id="Path" fill="#FFFFFF"></path>
                <path d="M56.7,57.2 C56.6,57.1 56.5,57 56.4,57.1 L55.3,57.6 C55.2,57.6 55.2,57.8 55.2,57.9 C55.2,58 55.4,58.1 55.5,58 L56.6,57.5 C56.7,57.5 56.8,57.3 56.7,57.2" id="Path" fill="#FFFFFF"></path>
                <path d="M57.5,60.1 C57.5,60 57.4,59.9 57.3,59.9 L56.1,59.8 C56,59.8 55.9,59.9 55.9,60 C55.9,60.1 56,60.2 56.1,60.2 L57.4,60.3 C57.5,60.3 57.5,60.2 57.5,60.1" id="Path" fill="#FFFFFF"></path>
                <path d="M56.9,62.9 C57,62.8 56.9,62.7 56.8,62.6 L55.7,61.9 C55.6,61.8 55.5,61.8 55.4,61.9 C55.3,62 55.4,62.1 55.5,62.2 L56.6,62.9 C56.7,63 56.8,63 56.9,62.9" id="Path" fill="#FFFFFF"></path>
                <path d="M53.8,65.4 C53.8,65.6 53.6,65.8 53.3,65.8 L50.3,65.5 C50,65.5 49.8,65.3 49.8,65 C49.8,64.8 50,64.6 50.3,64.6 L53.2,64.9 C53.6,64.9 53.8,65.1 53.8,65.4" id="Path" fill="#FFFFFF"></path>
            </g>
            <path d="M354.5,172 C353.7,172.4 347.6,176.6 338.6,176.6 C329.6,176.6 321.9,172.1 321,171.9 C320.1,173.2 319.4,175.1 319.4,175.1 L319.4,175.3 L334,192.6 C337.3,193.3 341.5,192.7 341.5,192.7 L356.1,175.1 L356.1,174.9 C356.1,174.9 354.6,172 354.5,172" id="Path" fill="#293043"></path>
            <path d="M355.4,176 C355,175.3 354.6,174.5 354.6,174.6 C353.8,175 347.7,179.2 338.7,179.2 C329.7,179.2 322,174.7 321.1,174.5 C320.8,175 320.4,175.6 320.2,176.2 L319.5,175.4 L319.5,175.2 C319.5,175.2 320.3,173.3 321.1,172 C322,172.2 329.7,176.7 338.7,176.7 C347.7,176.7 353.8,172.5 354.6,172.1 C354.7,172.1 356.2,174.9 356.2,174.9 L356.2,175.1 L355.4,176" id="Path" fill="#2A2A2C"></path>
            <path d="M318.1,191.2 C312.5,188.5 300.1,181.1 294.9,170.2 C294.2,168.7 296,162.2 301.9,164.3 C305.6,165.6 324.6,172 327.7,176.1 C332.7,182.7 332.9,188.7 333.9,192.6 C331.2,193.8 321,192.5 318.1,191.2" id="Path" fill="#293043"></path>
            <path d="M358,191.2 C363.6,188.5 380,176.7 380.7,170.1 C380.9,168.4 382.5,163.3 375.5,163.5 C371.8,164.8 351.4,172.2 347.9,176 C343.6,180.7 342.2,188.9 341.7,192.5 C344.5,193.8 355.2,192.6 358,191.2" id="Path" fill="#293043"></path>
            <path d="M320.5,188.1 C325.9,187.9 331.7,187.2 333.9,186.7 C340.3,184.1 375.4,164.7 375.4,164.7 C381.1,163.2 382.6,168.2 380.9,171.2 C376.4,179.1 372.2,183.6 356.3,185.7 C351.6,186.3 342.6,189 337.8,190.8 C337.5,191.9 336.3,193.2 333.7,193.4 C332.3,193.5 324.3,196.4 320.5,196.1 C314.3,195.6 314.3,192.8 314.3,191.6 C314.4,190.3 315.9,188.3 320.5,188.1" id="Path" fill="#9F6035"></path>
            <path d="M320.5,188.1 C325.9,187.9 331.7,187.2 333.9,186.7 C334.1,186.6 334.2,186.6 334.4,186.5 L338.7,190.4 C338.4,190.5 338.1,190.6 337.8,190.7 C337.5,191.8 336.3,193.1 333.7,193.3 C332.3,193.4 324.3,196.3 320.5,196 C314.3,195.5 314.3,192.7 314.3,191.5 C314.4,190.3 315.9,188.3 320.5,188.1" id="Path" fill="#1C3F7E"></path>
            <path d="M320.6,196.1 C314.4,195.6 314.4,192.8 314.4,191.6 C314.4,190.5 315.6,188.8 319,188.3 C319.9,189 321.2,191.3 321.3,194.3 C328.3,194.6 334.5,192.1 337.8,190.8 C337.5,191.9 336.3,193.1 333.7,193.4 C332.4,193.6 324.3,196.4 320.6,196.1" id="Path" fill="#DCE8EF"></path>
            <path d="M330.9,186.6 C331.7,187.9 332.1,189.3 332.1,190.8 L332.1,190.8 L332.1,191.1 C332.1,191.4 331.9,191.6 331.6,191.6 C331.3,191.6 331.1,191.4 331.1,191.1 L331.1,190.8 L331.1,190.8 C331.1,189.5 330.7,188.2 330.1,187.1 C329.9,186.8 330,186.5 330.3,186.4 C330.5,186.3 330.8,186.4 330.9,186.6" id="Path" fill="#E7E8E9"></path>
            <path d="M329,186.9 C329.8,188.2 330.2,189.6 330.2,191.1 L330.2,191.2 L330.2,191.5 C330.2,191.8 330,192 329.7,192 C329.4,192 329.2,191.8 329.2,191.5 L329.2,191.2 L329.2,191.2 L329.2,191.1 C329.2,189.8 328.8,188.6 328.2,187.5 C328,187.3 328.1,186.9 328.4,186.8 C328.6,186.6 328.9,186.7 329,186.9" id="Path" fill="#E7E8E9"></path>
            <path d="M327.1,187.2 C327.9,188.5 328.3,189.9 328.3,191.4 L328.3,191.5 L328.3,191.8 C328.3,192.1 328.1,192.3 327.8,192.3 C327.5,192.3 327.3,192.1 327.3,191.8 L327.3,191.5 L327.3,191.4 C327.3,190.1 326.9,188.9 326.3,187.7 C326.1,187.5 326.2,187.1 326.5,187 C326.6,186.9 327,186.9 327.1,187.2" id="Path" fill="#E7E8E9"></path>
            <path d="M325.5,187.4 C326.3,188.7 326.7,190.1 326.7,191.6 L326.7,191.6 L326.7,191.9 C326.7,192.2 326.5,192.4 326.2,192.4 C325.9,192.4 325.7,192.2 325.7,191.9 L325.7,191.6 L325.7,191.6 C325.7,190.3 325.3,189 324.7,187.9 C324.5,187.6 324.6,187.3 324.9,187.2 C325,187 325.3,187.1 325.5,187.4" id="Path" fill="#E7E8E9"></path>
            <path d="M337.5,185.1 L337.5,185.1 C337.8,184.9 338.2,184.7 338.6,184.5 C338.6,184.5 338.6,184.5 338.7,184.5 C338.3,184.7 337.9,184.9 337.5,185.1" id="Path" fill="#272E40"></path>
            <path d="M344.4,187.4 C343.5,187.3 342.8,187.1 342.3,187 C341.4,186.8 339.7,186.1 337.5,185.1 C337.9,184.9 338.3,184.7 338.7,184.5 C340.2,185.3 341.9,186.3 342.3,186.5 C342.5,186.5 343.2,186.6 344.1,186.8 C344.1,186.9 344.1,187 344.2,187 L344.2,187 L344.2,187 L344.2,187 C344.2,187.1 344.3,187.2 344.4,187.4" id="Path" fill="#975B32"></path>
            <path d="M336.9,191.2 C335.7,190.7 333.9,190.2 332.1,189.7 C332,189.3 332,188.9 331.8,188.5 C334.1,189.1 336.2,189.8 337.7,190.4 C337.7,190.5 337.8,190.7 337.8,190.8 C337.5,191 337.2,191.1 336.9,191.2" id="Shape" fill="#1B3C78"></path>
            <path d="M330.9,189.5 C330.8,189.5 330.6,189.4 330.5,189.4 C330.6,189.3 330.7,189.1 330.8,189 C330.9,189.1 330.9,189.3 330.9,189.5" id="Path" fill="#1B3C78"></path>
            <path d="M337.5,191.6 L337.5,191.6 C337.3,191.5 337.1,191.4 336.8,191.3 C337.2,191.2 337.5,191 337.8,190.9 L337.8,190.9 L337.8,190.9 C337.8,191.1 337.7,191.3 337.5,191.6" id="Path" fill="#D1DCE3"></path>
            <path d="M332.1,189.8 C331.7,189.7 331.4,189.6 331,189.5 C331,189.3 330.9,189.1 330.9,189 C331,188.8 331.2,188.6 331.3,188.5 C331.5,188.6 331.7,188.6 331.9,188.7 C331.9,188.9 332,189.4 332.1,189.8" id="Path" fill="#DBDCDD"></path>
            <path d="M375.5,163.6 C375.5,163.6 356.3,174.7 343.7,181.4 C343.7,183.8 344,186.4 344.2,186.9 C344.6,187.9 347.3,191.4 348.5,192.8 C353,189.8 355.2,188.5 357.9,187.6 C376.3,182 378,179.4 382.5,171.5 C384.2,168.6 381.2,162.1 375.5,163.6" id="Path" fill="#2E364D"></path>
            <path d="M382.9,170.4 L382.9,170.3 L382.9,170.4 L382.9,170.4 M382.8,168.1 C382.8,168 382.8,167.9 382.7,167.9 L382.7,168 L382.8,168.1 M382.2,166.7 C382.2,166.6 382.1,166.6 382.1,166.5 C382.2,166.6 382.2,166.6 382.2,166.7 L382.2,166.7" id="Shape" fill="#B3D4E5"></path>
            <path d="M356,188.4 C352.3,188.4 347.4,187.9 344.3,187.4 C344.2,187.2 344.1,187.1 344.1,187 L344.1,187 C349.6,185.1 376,175.9 381.1,166.3 C381.2,166.1 381.4,165.9 381.5,165.7 C381.6,165.8 381.7,165.9 381.8,166 L381.8,166.1 C381.9,166.2 381.9,166.3 382,166.4 L382,166.5 C382,166.5 382,166.6 382.1,166.6 C382.1,166.7 382.2,166.7 382.2,166.8 L382.2,166.9 C382.2,167 382.3,167.1 382.3,167.1 C382.3,167.1 382.3,167.1 382.3,167.2 L382.3,167.3 C382.3,167.4 382.4,167.4 382.4,167.5 L382.4,167.6 L382.4,167.7 L382.5,168 L382.5,168 C382.5,168.1 382.5,168.2 382.6,168.2 L382.6,168.3 C382.6,168.3 382.6,168.3 382.6,168.4 L382.6,168.5 L382.6,168.7 L382.6,168.9 L382.6,169.1 L382.6,169.3 L382.6,169.5 L382.6,170 L382.6,170.1 L382.6,170.3 L382.6,170.4 L382.6,170.5 L382.6,170.6 L382.6,170.8 L382.6,171 L382.6,171.1 L382.5,171.3 L382.5,171.4 L382.5,171.4 C382.5,171.5 382.4,171.6 382.4,171.7 L382.4,171.7 C377.9,179.6 376.3,182.2 357.8,187.8 C357.3,187.9 356.7,188.1 356,188.4" id="Path" fill="#2C3349"></path>
            <path d="M344.2,187 C344.2,186.9 344.2,186.8 344.1,186.7 C346.9,187.4 351.3,188.3 355.1,188.4 C355.4,188.4 355.7,188.4 356.1,188.4 C354.1,189.3 352,190.6 348.5,192.9 C347.3,191.5 344.6,188 344.2,187" id="Path" fill="#333334"></path>
            <path d="M300.6,165.3 C300.6,165.3 336.3,185.6 342.3,187 C344.7,187.5 351.3,188.3 356.1,188.4 C360.7,188.5 361.3,190.6 361.3,191.9 C361.3,193.1 358.7,195.9 356.8,196.1 C350.9,196.9 343.9,194.2 342.5,194 C339.6,193.7 338,191.6 337.8,190.4 C333.3,188.6 323.5,186.4 319.4,185.9 C303.4,184 299.3,178.6 294.8,170.7 C293,167.7 294.9,163.8 300.6,165.3" id="Path" fill="#9F6035"></path>
            <path d="M300.5,163.9 C300.5,163.9 319.7,175 332.3,181.8 C332.3,184.2 332,186.8 331.8,187.3 C331.4,188.3 328.7,191.8 327.5,193.2 C323,190.2 320.8,188.9 318.1,188 C299.7,182.4 298,179.8 293.5,171.9 C291.8,168.9 294.8,162.4 300.5,163.9" id="Path" fill="#2E364D"></path>
            <path d="M293.3,168.3 L293.3,168.3 L293.3,168.2 C293.3,168.2 293.3,168.3 293.3,168.3" id="Shape" fill="#B3D4E5"></path>
            <path d="M327.5,193.2 C327.1,192.9 326.7,192.7 326.3,192.4 C326,192.2 325.8,192.1 325.5,191.9 C322.7,190.1 320.9,189.1 319,188.3 C318.9,188.3 318.9,188.2 318.8,188.2 C318.5,188.1 318.3,188 318,187.9 C299.6,182.3 297.9,179.7 293.4,171.8 L293.4,171.8 C293.3,171.7 293.3,171.6 293.3,171.5 L293.2,171.4 L293.1,171.2 L293.1,171.1 L293,170.9 L293,170.8 L293,170.8 L293,170.6 L293,170.4 L293,170.2 L293,170 L293,169.8 L293,169.6 L293,169.4 L293,169.2 L293,169 L293,168.8 L293.1,168.6 L293.1,168.5 L293.2,168.3 L293.2,168.2 L293.2,168.2 L293.3,167.9 L293.3,167.8 C293.3,167.8 293.3,167.8 293.3,167.7 C293.3,167.6 293.4,167.5 293.4,167.5 L293.4,167.4 L293.4,167.4 C293.4,167.3 293.5,167.2 293.5,167.1 L293.5,167 C293.5,167 293.5,167 293.5,166.9 C293.5,166.8 293.6,166.7 293.6,166.6 L293.6,166.5 C293.7,166.4 293.7,166.3 293.8,166.2 L293.8,166.1 C293.9,166 294,165.9 294,165.8 C294.1,166 294.2,166.2 294.4,166.4 C299.5,176 325.9,185.3 331.4,187.1 L331.4,187.1 C331.4,188.3 328.8,191.6 327.5,193.2 C327.6,193.1 327.6,193.1 327.5,193.2" id="Path" fill="#2C3349"></path>
            <path d="M338.6,176.6 C339.7,176.6 340.7,176.5 341.6,176.4 L341.6,178.8 C341.6,179.1 341.3,179.4 341,179.4 L336.2,179.4 C335.9,179.4 335.6,179.1 335.6,178.8 L335.6,176.4 C336.6,176.6 337.6,176.6 338.6,176.6" id="Path" fill="#333334"></path>
            <path d="M336.2,176.5 L336.2,178.3 C336.2,178.5 336.4,178.7 336.6,178.7 L340.7,178.7 C340.9,178.7 341.1,178.5 341.1,178.3 L341.1,176.5 L341.7,176.5 L341.7,178.9 C341.7,179.2 341.4,179.5 341.1,179.5 L336.3,179.5 C336,179.5 335.7,179.2 335.7,178.9 L335.7,176.5 L336.2,176.5 Z" id="Path" fill="#DCDDD9"></path>
            <path d="M333.4,126.3 C331.5,125.4 328.4,121.8 327.4,114.2 C326.7,108.6 325.9,102.1 332.8,101 C337.1,99.6 347.6,98.4 349.5,105.7 C350.4,114.3 347.6,126.8 343.3,126.4 C343.2,129.1 338.6,128.4 337.4,128.7 C334.6,129.4 333.4,126.3 333.4,126.3" id="Path" fill="#402F1A"></path>
            <path d="M365.5,168 C361.5,169.4 357.2,165.6 357.2,165.6 C357.2,165.6 355.3,154.8 355.8,152 C358.5,151.8 365.5,150 366.7,147.8 C368.5,156.7 365.5,163.3 365.5,168" id="Path" fill="#9F6035"></path>
            <path d="M362.3,167.8 L362.3,167.8 C360.1,167 357.2,165.6 357.2,165.6 C357.2,165.6 356.8,163.4 356.4,160.7 C359.5,161.7 362.7,165 362.8,166.8 L362.8,167 C362.8,167.3 362.6,167.6 362.3,167.8" id="Path" fill="#975B32"></path>
            <path d="M312.8,150.4 C311.6,145.2 312.7,136.1 318.5,131.8 C325.4,128.8 342,123 359.3,130.6 C367.9,134.3 366.6,143.9 366.8,147.9 C364.9,150.7 357.8,153.3 355.6,153.1 C354.9,154.1 354,168.5 354.6,172.1 C350,175.5 346.9,176.7 338.7,176.7 C330,176.7 328.2,176.6 321.5,172 C322.3,168.5 323.9,154 323.6,153 C322.9,153.6 314,155.6 312.8,150.4" id="Path" fill="#E16F0D"></path>
            <path d="M331.9,131.7 C331.3,131.2 331,130.3 331.2,129.6 C331.4,127.9 331.8,124.6 331.5,122.6 C331.1,119.9 345.4,121.4 345.4,121.4 C345.4,121.4 345.5,126.7 345.9,129.3 C346,130 345.8,130.7 345.4,131.2 C344.2,132.6 341.8,134 338.7,134.2 C335.5,134.5 333.2,132.8 331.9,131.7" id="Path" fill="#93572C"></path>
            <path d="M348.7,114.7 C349.1,114.7 349.6,115.1 349.7,115.5 C350,116.9 349.4,119.9 348.7,120.6 C348.1,121.1 347.1,121.3 347.1,121.3 L348.7,114.7" id="Path" fill="#9F6035"></path>
            <path d="M347.6,119.3 C347.3,119.2 347.1,118.7 347.1,118.1 L347.1,117.8 C347.1,117.7 347.1,117.6 347.1,117.5 C347.2,116.6 347.6,115.9 348,115.8 L348.1,115.8 L348.1,115.8 C348.2,115.8 348.3,115.9 348.4,116.1 L347.6,119.3" id="Path" fill="#3D2D19"></path>
            <path d="M347.7,119.3 L347.7,119.3 C347.6,119.3 347.6,119.3 347.5,119.3 L348.3,116.1 C348.4,116.3 348.4,116.6 348.4,116.9 L348.4,117.4 C348.4,117.6 348.4,117.9 348.3,118.1 C348.3,119 348.1,119.3 347.7,119.3" id="Path" fill="#975B32"></path>
            <path d="M328.5,114.7 C328.1,114.7 327.5,115.1 327.4,115.5 C327.1,116.8 327.4,119.3 328.3,120.2 C328.9,120.8 329.7,121 329.7,121 L328.5,114.7" id="Path" fill="#9F6035"></path>
            <g id="Group" transform="translate(328.000000, 115.000000)">
                <path d="M1.4,4.3 L0.8,0.9 L0.9,0.8 L0.9,0.8 L1,0.8 C1.4,0.8 1.8,1.6 1.9,2.5 C1.9,2.6 1.9,2.7 1.9,2.8 L1.9,3.1 C1.9,3.7 1.7,4.2 1.4,4.3" id="Path" fill="#3D2D19"></path>
                <path d="M1.2,4.3 C0.8,4.3 0.6,3.9 0.5,3 C0.4,2.2 0.4,1.1 0.7,0.9 L1.3,4.3 C1.4,4.3 1.3,4.3 1.2,4.3 C1.3,4.3 1.3,4.3 1.2,4.3" id="Path" fill="#975B32"></path>
            </g>
            <path d="M346.3,112.2 C347.4,112.7 346.9,117.8 346.9,119 C346.9,119.5 347.4,119.3 347.7,119.3 C347.7,121.4 347.5,124.2 347.1,125.6 C346.8,126.8 341.7,130.6 338.7,130.6 C335.7,130.6 330.2,126.1 329.9,124.9 C329.5,123.3 329.6,121.9 329.4,119.3 C329.8,119.4 330.1,119.4 330.1,119 C330.1,118.5 329.4,112 332.4,110.7 C334.3,112.1 344.1,112.8 346.3,112.2" id="Path" fill="#9F6035"></path>
            <g id="Group" transform="translate(346.000000, 143.000000)">
                <path d="M8.8,15.7 L8.8,15.7 C8.8,15.7 8.8,15.6 8.7,15.6 C8.9,12.7 9.2,10.4 9.5,10 L9.5,10 L9.5,10 C9.4,10.4 9.1,12.8 8.8,15.7" id="Path" fill="#B3D4E5"></path>
                <path d="M8.8,15.6 C7.2,12.6 4.6,11.3 0.6,10.9 C3,10.5 9.5,10.1 11.9,0.2 C11.9,0.3 11.9,0.4 12,0.6 L12,0.6 L12,0.6 C11.7,0.7 12.3,4.5 9.6,10.1 L9.6,10.1 C9.3,10.4 9,12.7 8.8,15.6" id="Path" fill="#D6690C"></path>
            </g>
            <path d="M323.5,153.4 C323.5,153.3 323.5,153.1 323.4,153 L323.4,153 L323.4,153 L323.4,153 C323.5,153 323.5,153.2 323.5,153.4" id="Path" fill="#B3D4E5"></path>
            <path d="M324.1,158.5 C324.1,158.1 324,157.7 324,157.4 L324,157.4 C323.8,155.8 323.7,154.3 323.6,153.4 C323.6,153.2 323.6,153.1 323.5,153 C323.8,150.1 323.1,146 323.3,145.9 L323.3,145.9 L323.3,145.9 C324.1,154.1 326.5,155.6 329.7,155.9 L329.7,155.9 C328.5,156.1 326.1,156.1 324.1,158.5" id="Path" fill="#D6690C"></path>
            <path d="M341.5,186.8 C341.8,186.9 342.1,187 342.3,187 C344.7,187.5 351.3,188.3 356.1,188.4 C360.7,188.5 361.3,190.6 361.3,191.9 C361.3,193.1 358.7,195.9 356.8,196.1 C350.9,196.9 343.9,194.2 342.5,194 C339.6,193.7 338,191.6 337.8,190.4 C337.8,190.4 340.6,191.2 340,189.8 C339.4,188.6 340.1,187.2 341.5,186.8 C341.5,186.8 341.6,186.8 341.5,186.8" id="Path" fill="#1C3F7E"></path>
            <path d="M354.9,194.8 C354,192.1 354.9,189.6 355.6,188.4 C355.8,188.4 355.9,188.4 356.1,188.4 C360.7,188.5 361.3,190.6 361.3,191.9 C361.3,193.1 358.7,195.9 356.8,196.1 C350.9,196.9 343.9,194.2 342.5,194 C341.1,193.9 340,193.3 339.2,192.6 C343.1,193.7 354.9,196.7 354.9,194.8" id="Path" fill="#DCE8EF"></path>
            <path d="M345.8,187.6 C345.1,188.7 344.8,190 344.8,191.2 L344.8,191.2 L344.8,191.2 L344.8,191.5 C344.8,191.8 344.6,192 344.3,192 C344,192 343.8,191.8 343.8,191.5 L343.8,191.2 L343.8,191.2 L343.8,191.1 C343.8,189.6 344.2,188.2 345,186.9 C345.2,186.6 345.5,186.6 345.7,186.7 C345.8,187 345.9,187.3 345.8,187.6 L345.8,187.6 Z" id="Path" fill="#E7E8E9"></path>
            <path d="M347.7,187.9 C347,189 346.7,190.3 346.7,191.6 L346.7,191.6 L346.7,191.9 C346.7,192.2 346.5,192.4 346.2,192.4 C345.9,192.4 345.7,192.2 345.7,191.9 L345.7,191.6 L345.7,191.6 L345.7,191.6 C345.7,190.1 346.1,188.7 346.9,187.4 C347.1,187.1 347.4,187.1 347.6,187.2 C347.7,187.3 347.8,187.6 347.7,187.9 L347.7,187.9 Z" id="Path" fill="#E7E8E9"></path>
            <path d="M349.6,188.1 C348.9,189.2 348.6,190.5 348.6,191.7 L348.6,191.7 L348.6,192 C348.6,192.3 348.4,192.5 348.1,192.5 C347.8,192.5 347.6,192.3 347.6,192 L347.6,191.7 L347.6,191.7 L347.6,191.6 C347.6,190.1 348,188.7 348.8,187.4 C349,187.1 349.3,187.1 349.5,187.2 C349.7,187.5 349.7,187.9 349.6,188.1 L349.6,188.1 Z" id="Path" fill="#E7E8E9"></path>
            <path d="M351.2,188.3 C350.5,189.4 350.2,190.7 350.2,191.9 L350.2,191.9 L350.2,192.2 C350.2,192.5 350,192.7 349.7,192.7 C349.4,192.7 349.2,192.5 349.2,192.2 L349.2,191.9 L349.2,191.9 L349.2,191.8 C349.2,190.3 349.6,188.9 350.4,187.6 C350.6,187.3 350.9,187.3 351.1,187.4 C351.3,187.7 351.4,188 351.2,188.3 L351.2,188.3 Z" id="Path" fill="#E7E8E9"></path>
            <path d="M354.5,172 C354.5,171.8 354.4,171.5 354.4,171.1 C354.5,171.5 354.5,171.8 354.5,172" id="Path" fill="#B3D4E5"></path>
            <path d="M348.2,175.5 L348.2,175.5 C344.2,173.2 340.3,170.1 340.3,170.1 C340.2,169.7 336.7,169.8 335.4,169.3 C335,168.9 334.8,168 334.8,167 L334.8,166.1 C334.8,164.8 335,163.7 335,163.7 L335,162.2 L335,161.8 C335,161.3 335.7,161 336.5,161 L342.7,161 C343.5,161 344.2,161.4 344.2,161.8 L344.2,162.2 L344.2,163.7 C344.6,163.3 345.1,163.2 345.5,163.2 L345.6,163.2 C346.1,163.2 345.9,163.9 346,164.3 L347.1,166.5 C347.1,166.5 348.8,167.4 350.9,168.6 L354.5,170.8 C354.5,170.9 354.5,171 354.5,171.2 C354.5,171.5 354.6,171.8 354.6,172.1 L354.6,172.1 L354.6,172.1 C354.5,172.2 354.3,172.3 354.2,172.4 L354.2,172.4 C352.1,173.8 350.3,174.8 348.2,175.5" id="Path" fill="#D6690C"></path>
            <path d="M343.7,162.7 C347.6,164 353.2,161.6 357.5,162.9 C362.6,164.4 363.6,165.1 365.2,166.9 C366.6,168.4 363.9,171.8 357.6,171.6 C351.3,171.5 346.2,168.9 341.1,166.7 C336.1,164.4 336.3,158.7 343.7,162.7" id="Path" fill="#9F6035"></path>
            <path d="M317.1,169.9 C321.3,170.5 324.8,166 324.8,166 C324.8,166 323.8,155.3 323.4,153 C320.7,153.3 314.3,152.3 312.7,150.4 C312.8,159.4 316.2,165.3 317.1,169.9" id="Path" fill="#93572C"></path>
            <path d="M322.1,168.5 L322.2,168.4 C322.2,168.4 322.2,168.5 322.1,168.5 L322.1,168.5 M324.4,166.5 C324.6,166.3 324.7,166.1 324.8,166 C324.7,166.2 324.6,166.3 324.4,166.5 M324.3,160.1 C324.2,159.6 324.2,159 324.1,158.5 L324.1,158.5 C324.1,159 324.2,159.6 324.3,160.1" id="Shape" fill="#D6690C"></path>
            <g id="Group" transform="translate(318.000000, 157.000000)">
                <path d="M6.1,1.5 C6.1,1.1 6,0.7 6,0.4 L6,0.4 C6,0.7 6.1,1.1 6.1,1.5 L6.1,1.5" id="Path" fill="#CB640C"></path>
                <path d="M3.4,11.5 C1.4,11.5 0.2,10.6 0.4,9.5 C0.8,7.4 3.6,2.3 5.9,0.4 C5.9,0.8 6,1.2 6,1.5 C6.1,2 6.1,2.6 6.2,3.1 C6.5,6 6.8,8.7 6.8,9 L6.8,9 L6.8,9 L6.8,9 L6.8,9 L6.8,9 L6.7,9.1 L6.7,9.1 C6.6,9.2 6.5,9.4 6.3,9.6 C6.1,9.8 5.9,10 5.6,10.3 C5.5,10.4 5.3,10.6 5.1,10.7 C4.9,10.8 4.8,11 4.6,11.1 L4.6,11.1 C4.5,11.2 4.3,11.3 4.1,11.4 L4,11.5 C3.9,11.5 3.6,11.5 3.4,11.5" id="Path" fill="#8C532A"></path>
            </g>
            <path d="M332.7,155.7 C330.1,158.9 324.3,158.6 321.4,161.9 C317.9,165.8 317.5,167 317,169.4 C316.6,171.4 320.7,172.8 325.9,169.3 C331.1,165.8 334.1,160.9 337.2,156.3 C340.2,151.7 336.8,148.3 332.7,155.7" id="Path" fill="#93572C"></path>
            <path d="M330.5,157.3 C332.2,155 332.8,152 333.9,150.7 C334.7,149.8 338.2,148.7 339.6,148.6 C340.1,148.6 340.6,148.8 341,149.2 L344.2,152.9 L333.6,159.4 C333.6,159.5 328.9,159.7 330.5,157.3" id="Path" fill="#93572C"></path>
            <path d="M337.4,149.9 L343.6,149.9 C344.4,149.9 345.1,150.6 345.1,151.4 L345.1,163.2 C345.1,164 344.4,164.7 343.6,164.7 L337,164.7 C336.2,164.7 335.9,164 335.9,163.2 L335.9,158.4 L335.9,155 L335.9,151.4 C335.8,150.6 336.5,149.9 337.4,149.9" id="Path" fill="#D1D2D4"></path>
            <path d="M337.4,150.8 L343.6,150.8 C344.4,150.8 345.1,151.5 345.1,152.3 L345.1,163.6 C345.1,164.4 344.4,165.1 343.6,165.1 L337,165.1 C336.2,165.1 335.9,164.4 335.9,163.6 L335.9,159.3 L335.9,155.9 L335.9,152.3 C335.8,151.4 336.5,150.8 337.4,150.8" id="Path" fill="#FFFFFF"></path>
            <path d="M337.7,151.9 C338,151.9 338.3,152.1 338.3,152.3 C338.3,152.5 338,152.7 337.7,152.7 C337.4,152.7 337.1,152.5 337.1,152.3 C337.1,152 337.4,151.9 337.7,151.9" id="Path" fill="#2A1B40"></path>
            <path d="M333.3,154.3 C333.7,154.2 334.1,154.4 334.5,154.6 C336.3,155.4 342.6,158.9 343.9,158.8 C345.4,158.7 344.8,156.7 344.8,156.7 C344.8,156.2 344.8,155.7 345,155.2 C345.4,154.1 346,154 346.4,154 C346.9,154 346.7,155.3 346.8,156 L347.9,160 L346.1,165.5 L341.1,166.5 C341,166 338.1,165.7 336.4,164.9 C335.2,164.4 334.8,163.2 335,162.8 C335.2,162.5 335.2,162.2 335,161.9 C334.8,161.5 334.8,160.9 335,160.6 C335.2,160.3 335.2,160 335,159.7 C334.6,159 334.9,158 335.8,158.1 C337,158.5 337.9,159.4 337.6,158.3 C336.5,157.5 332.9,155.6 332.7,154.9 C332.6,154.8 332.6,154.4 333.3,154.3" id="Path" fill="#9F6035"></path>
            <path d="M100.4,190 L98.8,186.6 L88.2,186 L89.2,188.4 L75.9,192.7 C75.9,192.7 75,193.3 74.1,194.5 C73.7,195 74.1,195.8 74.8,195.8 L87.8,195.4 C88.3,195.3 88.8,195.2 89.4,195.1 L89.4,195.1 L89.5,195.1 C90.7,194.8 91.8,194.6 92.8,194.3 L93.3,195 L99.9,194.8 C100,194.8 100.1,194.7 100.2,194.7 C101,194.3 100.4,190 100.4,190" id="Path" fill="#D9D9D9"></path>
            <path d="M114.2,191.4 L112.8,188 L102.3,187.1 L103.2,189.5 L89.8,193.4 C89.8,193.4 88.9,194 88,195 C87.5,195.6 88,196.4 88.7,196.4 L101.6,196.4 C102.1,196.3 102.7,196.2 103.2,196.1 L103.2,196.1 L103.3,196.1 C104.5,195.9 105.6,195.6 106.7,195.4 L107.2,196.1 L113.8,196.1 C113.9,196.1 114,196 114.1,196 C114.7,195.8 114.2,191.4 114.2,191.4" id="Path" fill="#D9D9D9"></path>
            <path d="M89.7,100.6 L86.1,144.6 C86.1,144.6 88.1,170.6 86.6,188.3 C98.9,189.3 100.5,189.5 100.5,189.5 C100.5,189.5 104.3,154.2 103,147.2 C107.9,124.7 114.5,101 114.5,101 L89.7,100.6 Z" id="Path" fill="#0B9486"></path>
            <path d="M88.6,102.1 L89.7,145.7 C89.7,145.7 95.8,173.2 98.4,190.5 C113.3,191.4 114.8,189.6 114.8,189.6 C114.8,189.6 109.5,152.2 107.2,145.5 C109,122.6 116,100.6 116,100.6 L88.6,102.1 Z" id="Path" fill="#7FC6B1"></path>
            <path d="M91.7,32.7 C91.7,32.7 96.6,41.1 90.3,50.2 C89.1,51.9 107.1,37 107.1,37 C107.1,37 103.7,28.9 104.1,27.6 C104.6,26.3 101.7,25.2 101.7,25.2 L91.7,32.7 Z" id="Path" fill="#F0B785"></path>
            <path d="M101.8,26.9 C100.9,27.7 100.3,28.9 99.2,29.5 C98.6,29.8 98.7,30 96.6,31.5 C96,31.9 95.2,32.1 94.5,32.3 C93,32.7 91.4,33.2 89.9,33.6 C89.5,33.7 89.1,33.8 88.7,33.8 C87.8,33.7 87.2,33.1 86.7,32.4 C86.6,32.3 86.5,32.2 86.5,32 C86.4,31.4 87.1,30.9 86.9,30.4 C86.8,30.1 86.5,30 86.3,29.8 C86.1,29.5 86.2,29 86.3,28.6 C85.9,28.7 85.7,28.3 85.6,27.9 C85.5,27.6 85.6,27.2 85.4,26.9 C85.1,26.4 84.4,26.3 83.9,26.1 C83.7,26 83.6,25.8 83.7,25.6 C84,24.9 84.4,24.2 84.9,23.5 C85.4,22.9 85.9,22.3 85.9,21.6 C85.9,21.2 85.6,20.8 85.4,20.3 C85.1,19.4 85.7,18.5 85.9,17.5 C86.1,16.8 86,16.1 86.1,15.4 C86.2,14.7 86.4,13.9 87,13.5 C88.7,12.1 89.4,10.4 91.4,9.5 C95,7.9 99.4,8.5 102.9,10.2 C104,10.7 105,11.4 105.8,12.3 C106.4,13 106.8,13.8 107.1,14.7 C107.8,16.6 107.9,18.6 107.4,20.6 C106.9,22.5 105.7,24.3 104,25.5 C103.3,25.9 102.5,26.4 101.8,26.9" id="Path" fill="#F9BF8E"></path>
            <path d="M68.1,80.2 C67.9,80.1 67.1,80.2 66.8,80.2 C66,80.2 65.1,80.2 64.3,80.2 C62.7,80.2 61.1,80.8 59.5,80.8 C59,80.8 57.5,80.7 57.1,81 C57,81.1 57,81.2 57.1,81.3 C57.6,83 59.9,82.4 61.3,82.3 C61.8,82.3 62.4,82.4 62.9,82.4 C61.6,83.1 60.4,83.8 59.1,84.5 C58.4,84.9 54.6,86.8 55.2,87.6 C55.5,88 56.2,87.7 56.5,87.6 C58.1,87 59.6,86.3 61.1,85.5 C59.9,86.2 58.7,86.9 57.4,87.6 C56.8,87.9 54.7,89.3 55.3,90 C55.5,90.2 55.8,90.3 56,90.2 C57.9,89.5 59.6,88.4 61.2,87.2 C60,88.1 58.7,88.9 57.5,89.8 C57.2,90 56.6,90.5 56.8,91 C57,91.6 57.9,91.3 58.2,91.2 C59.8,90.4 61.2,89.6 62.7,88.6 C61.9,89.6 58.3,91.9 59.5,92.1 C59.9,92.2 60.2,92 60.5,91.9 C62.4,91 63.5,90.5 65.4,89.7 C66.2,89.3 67.3,88.7 68,88.2 C68.9,87.6 69.5,87.1 70.4,86.6 C71.6,85.8 72.1,85 73,83.9 L68.1,80.2 Z" id="Path" fill="#F9BF8E"></path>
            <path d="M105,29.2 C105.3,28.7 105.6,28.3 105.8,27.8 C106.5,26 107.2,24.2 107.7,22.4 C108.2,20.5 108.7,18.6 108.6,16.7 C108.6,14.8 108,12.8 106.8,11.2 C105.6,9.7 103.9,8.6 102,8.1 C100.1,7.5 98.1,7.4 96.1,7.5 C94.6,7.6 93.1,7.8 91.6,8.1 C90.9,8.3 90,8.4 89.5,8.8 C88.9,9.1 88.6,9.6 87.9,9.9 C87.1,10.2 86.2,10.4 85.3,10.3 C85.2,10.3 85,10.3 84.9,10.4 C84.7,10.5 84.8,10.8 84.9,11 C86.5,14.7 91.9,14.4 93.4,18.2 C93.7,19.1 93.8,20 94,20.9 C94.1,21.8 94.5,22.7 94.6,23.6 C94.6,24.2 94.3,24.9 94.9,25.3 C95.2,25.5 96.4,25 96.4,24.9 C96.4,24.1 96.4,23.2 96.7,22.5 C96.9,21.7 97.4,21 98.2,20.5 C99,20.1 100,20.1 100.7,20.7 C101.5,21.4 101.4,22.5 101.2,23.5 C101,24.9 100.1,26.5 98.5,26.7 C99.2,26.9 99.5,27.5 99.7,28.1 C99.7,28.2 99.8,28.4 99.9,28.5 C100,28.6 100.1,28.6 100.3,28.6 C102.4,28.6 103.3,29.2 104.6,30.6 C104.5,30 104.8,29.6 105,29.2" id="Path" fill="#5A4B42"></path>
            <path d="M96.9,53.7 C94.6,53.9 92.1,55.2 91.5,57.8 C90.7,60.9 89.3,63.7 88.2,66.7 C87.1,69.7 85.4,70.8 82.6,72.4 C78.9,74.5 73.3,77 73.3,77 C71.5,78 69.4,78.8 67.9,80.2 C68.9,82.1 69.8,84.1 70.7,86.2 C73.7,85.4 84.4,81.2 87.8,80.1 C91.1,79 101.7,66.9 102.2,62.9 C102.7,59 102.1,53.3 96.9,53.7" id="Path" fill="#F9BF8E"></path>
            <path d="M86.7,102.7 L117.9,102.7 C116.6,95.5 115.7,87.4 115.6,78.3 C115.5,74.1 115.7,70 115.9,66.2 C116.2,61.3 115.8,56.3 114.5,51.5 C114.5,51.5 114,48.3 112.3,44 C109.9,37.9 107,35.5 107,35.5 L101,38.3 C97.9,40.6 93.4,44.4 90.2,50.2 C86,57.8 86.5,64.3 86.6,84.6 C86.8,88.8 86.8,95 86.7,102.7" id="Path" fill="#7FC6B1"></path>
            <path d="M98.8,108.4 C97.9,107.8 97.1,107.2 96.2,106.6 C96,106.4 95.7,106 95.4,106 C95.3,106 95.1,105.9 95,106.1 C93,108.3 92,108.6 90.9,110.3 C90.7,110.6 90.4,112.9 90.7,112.9 C90.2,113.9 90.1,114.3 89.6,115.3 C89.4,115.8 88.4,120.4 89.9,120.1 C90.4,120 90.7,116.9 91,116.5 C91.5,115.7 92.1,114.5 92.7,113.9 C92.2,115.4 91.2,118.5 90.7,120 C90.5,120.5 90.4,121.2 90.8,121.5 C91.1,121.7 91.4,121.5 91.7,121.3 C92,121.1 92.3,120.5 92.4,120.1 C93.1,118.5 93.8,116.9 94.6,115.3 C94.2,117.1 93.3,119 92.7,120.8 C92.6,121.1 92.7,121.7 92.9,121.9 C93.1,122 93.4,122 93.6,121.9 C94.3,121.2 94.7,120 95.1,119.1 C95.8,117.7 96.3,116.5 96.7,116.2 C96,117.4 95.9,117.8 94.5,120.6 C94.4,120.8 94.3,121.6 94.5,121.7 C94.7,121.8 95.4,121.5 95.6,121.3 C97.9,118.3 98.1,117.4 99.2,115.5 C100.3,113.8 100,112.3 101,110.5 C101,110.4 99,108.5 98.8,108.4" id="Path" fill="#F9BF8E"></path>
            <path d="M19.6,94.4 C20.1,95.3 20.8,96.8 21.4,98.4 C21.1,98.6 20.7,98.8 20.4,99.1 C17.8,100.7 14.3,102 11.6,103.3 C10.3,100.9 9.5,97.1 8,94.8 C4.4,88.9 -2.84772206e-14,70.9 0.5,68.9 C1.9,62.9 3.4,56.9 4.6,50.9 C5.3,47.5 7,41.2 11.1,39.8 C11.4,39.7 11.7,39.6 12,39.6 C18.7,38.7 19.9,47.2 19.5,51.5 C19.1,55 17.9,58.4 16.6,61.7 C14.6,67.1 12.3,67.1 13.9,72.7 C15.4,78.6 16.7,88.9 19.6,94.4" id="Path" fill="#374549"></path>
            <path d="M19.3,187.5 L21.2,184.1 L32.2,184.3 L30.9,186.7 C32.9,187.8 35.5,188.9 38.6,189.8 C40.9,190.5 43.1,190.9 44.9,191.1 C45,191.1 47,191.9 46.6,193.1 C45.9,195.3 30.6,193.6 30,193.5 L30,193.5 L29.9,193.5 C28.7,193.2 27.6,192.8 26.5,192.4 L25.9,193.1 L19.1,192.4 C19,192.4 18.9,192.3 18.8,192.3 C18.3,192 19.3,187.5 19.3,187.5" id="Path" fill="#161618"></path>
            <path d="M1.2,189.7 L2.9,186.2 L13.9,185.9 L12.7,188.4 C14.1,189.4 16.2,190.6 18.9,191.6 C21.8,192.7 24.4,193.1 26.3,193.2 C27.4,193.4 27.5,194.3 28.1,195 C28.6,195.6 28,196.4 27.3,196.4 L14,195.6 C13.5,195.5 12.9,195.3 12.4,195.2 L12.4,195.2 L12.3,195.2 C11.1,194.9 10,194.6 8.9,194.3 L8.4,195 L1.6,194.6 C1.5,194.6 1.4,194.5 1.3,194.5 C0.4,194.2 1.2,189.7 1.2,189.7" id="Path" fill="#1E1D1F"></path>
            <path d="M33.4,97.7 L40.9,142.9 C40.9,142.9 32.6,168.9 34.1,187.3 C21.4,188.3 19.2,184.1 19.2,184.1 C19.2,184.1 20.7,151.8 22.1,144.6 C17.1,121.3 5.2,98.3 5.2,98.3 L33.4,97.7 Z" id="Path" fill="#1E2527"></path>
            <path d="M34.4,98.3 L31.1,144.5 C31.1,144.5 19.7,171.8 17.1,189.7 C2.5,187.3 1.6,187.3 1.6,187.3 C1.6,187.3 10.6,151.1 13,144.2 C11.1,120.5 3.9,97.7 3.9,97.7 L34.4,98.3 Z" id="Path" fill="#273035"></path>
            <path d="M31.3,28 C31.1,28.1 30.7,28.4 30.4,28.7 C29.3,29.8 29.4,31.5 28.9,32.6 C28.7,33.2 27.6,34.5 26.4,35.2 C22.5,37.5 13.6,30.5 13.6,30.5 C13.6,30.5 18.8,22.3 18.5,20.8 C18.2,19.4 21.5,18.6 21.5,18.6 L31.3,28 Z" id="Path" fill="#854B29"></path>
            <path d="M21.3,20.4 C22.2,21.4 22.6,22.8 23.7,23.6 C24.3,24 24.2,24.2 26.2,26 C26.8,26.5 27.6,26.8 28.3,27.1 C29.9,27.8 31.5,28.4 33.1,29.1 C33.5,29.3 33.9,29.5 34.4,29.5 C35.4,29.6 36.2,28.9 36.8,28.3 C36.9,28.2 37,28.1 37.1,27.9 C37.3,27.3 36.6,26.7 36.9,26.1 C37.1,25.8 37.4,25.7 37.7,25.5 C38,25.2 37.9,24.7 37.9,24.2 C38,24.7 38.9,23.3 38.9,23.3 C39.3,22.8 39.1,22.8 39.7,22.6 C40.3,22.5 40.6,22.7 41.2,22.3 C42.6,21.2 41,19.9 40.4,18.9 C40,18.2 39.5,17.5 39.7,16.8 C40.5,14 41.9,12.1 41,9 C40.2,6.6 38.3,4.4 36,3.1 C32.2,1 27.4,0.8 23.2,2.2 C21.9,2.6 20.7,3.2 19.7,4 C18.9,4.7 18.3,5.5 17.8,6.4 C16.7,8.3 16.2,10.5 16.4,12.6 C16.6,14.7 17.6,16.8 19.2,18.3 C19.9,19.1 20.7,19.7 21.3,20.4" id="Path" fill="#9F6035"></path>
            <path d="M18.1,21.9 C17.9,21.8 17.7,21.5 17.5,21.3 C14.3,15.9 14.6,9 18.2,3.8 C19.5,1.9 22.6,0.8 24.9,0.4 C29.8,-0.4 34,1.2 37.7,4.1 C38,4.4 38.4,4.7 38.4,5.1 C37.7,4.8 39.2,5.2 38.4,5.1 C38.4,5.1 34.7,7.7 34.9,9.4 C35,10 34.6,10.7 34.1,11.1 C32.5,12.5 32.1,12.8 31.4,14.9 C31.1,15.8 30.5,16.8 30.3,17.7 C30.2,18.3 30.4,19.1 29.7,19.4 C29.3,19.5 28.1,18.9 28.1,18.8 C28.2,17.9 28.3,17.1 28.2,16.2 C28.1,15.3 27.7,14.5 26.9,13.9 C26.1,13.4 25,13.2 24.2,13.7 C22.7,14.7 22.8,18.5 22.5,20.2 C22.4,20.5 22.4,20.8 22.1,21 C21.9,21.2 21.6,21.3 21.3,21.3 C20.6,21.5 19.8,21.6 19.1,21.8 C18.8,21.9 18.5,21.9 18.2,21.8 L18.1,21.9" id="Path" fill="#111111"></path>
            <path d="M26.8,33.8 C27.2,34.8 28.1,33.7 28.7,35.6 C30.9,42.8 31.6,48.4 31.7,49.9 C31.9,51.7 32.1,54.2 32.1,57.2 C26.4,50.2 21.3,46.5 18.5,43 C14.8,38.5 12.3,34.7 12.1,33.5 C11.9,32.3 12.1,31 13.5,29.8 C16.9,26.8 24.4,32.2 24.4,32.2 L26.8,33.8 Z" id="Path" fill="#DDDEDF"></path>
            <polygon id="Path" fill="#FFFFFF" points="15.1 26.1 28.4 34.4 24.8 35.9 12.9 30.4"></polygon>
            <path d="M36.3,100 L1.7,100 C3,92.6 2.9,83.6 3,74.3 C3.1,69.9 2.3,65.7 2.1,61.8 C1.8,56.7 2,52.1 3.4,47.1 L7.3,39.1 L12.9,30.4 L19.1,33.3 C22.3,35.6 27,39.6 30.3,45.6 C34.7,53.5 36.4,60 36.3,81.1 C36.3,85.4 36.2,92 36.3,100" id="Path" fill="#2B383D"></path>
            <path d="M14.3,27.6 C14.3,27.6 26.9,38.1 31.7,48 C23.4,40.4 20.1,40.4 20.1,40.4 L20.1,35 L16.6,37.7 L12.5,30.2 L14.3,27.6 Z" id="Path" fill="#3C5656"></path>
            <rect id="Rectangle" fill="#3C5656" x="17.9" y="86.2" width="11" height="3.6"></rect>
            <path d="M52,84.5 C52.2,84.4 53.1,84.7 53.4,84.7 C54.3,84.9 55.2,85 56.1,85.2 C57.8,85.5 59.4,86.4 61.1,86.8 C61.6,86.9 63.3,87 63.6,87.5 C63.7,87.6 63.6,87.7 63.6,87.9 C62.7,89.7 60.3,88.5 58.9,88.2 C58.4,88.1 57.7,88.1 57.2,88 C58.4,89 59.6,90 60.9,91 C61.6,91.6 65.2,94.4 64.5,95.1 C64.1,95.5 63.4,95.1 63.1,94.8 C61.5,93.9 60,92.8 58.6,91.7 C59.8,92.7 60.9,93.7 62.1,94.7 C62.6,95.2 64.6,97 63.8,97.7 C63.6,97.9 63.2,97.9 63,97.7 C61.1,96.5 59.5,95 58.1,93.4 C59.3,94.6 60.4,95.8 61.6,97 C61.9,97.3 62.4,98 62.1,98.4 C61.7,99 60.9,98.5 60.5,98.3 C58.9,97.1 57.6,96 56.2,94.6 C56.9,95.9 60.2,99 58.8,99 C58.4,99 58.1,98.8 57.8,98.5 C56,97.2 54.8,96.4 53,95.1 C52.2,94.6 51.1,93.6 50.5,92.9 C49.7,92.1 49.1,91.5 48.3,90.7 C47.1,89.6 43.6,86.7 42.9,85.4 L52,84.5 Z" id="Path" fill="#9F6035"></path>
            <path d="M18.3,38.9 C21.3,39.7 24.4,42.1 24.5,45.8 C24.7,50.2 25.8,54.4 26.4,58.8 C27,63.1 29,65.1 32.4,68 C36.8,71.8 46.7,78.3 46.7,78.3 C48.9,80.1 51.5,81.7 53.2,84 C51.3,86.4 49.4,88.9 47.6,91.4 C43.7,89.6 25.2,81.2 20.8,78.9 C16.6,76.6 6.1,56.4 6.6,50.7 C7.1,45.3 11.4,37 18.3,38.9" id="Path" fill="#374549"></path>
            <path d="M95.2,105.9 L101,110.5 C101,110.5 116.1,87.7 116,83.2 C116,80.6 114,73.5 112.4,68.2 C111.3,64.6 110.4,61.8 110.4,61.8 L103.4,68.6 C103.4,68.6 103.7,69.9 104.2,71.6 C105.1,74.9 106.5,80 107.4,82.2 C108.7,85.7 95.2,105.9 95.2,105.9" id="Path" fill="#F9BF8E"></path>
            <path d="M99.2,67.9 C99,67.9 96.5,55.3 96.6,50.4 C96.7,45.5 98.8,42.8 99.9,42.4 C103.4,41.2 104.9,43 107.1,46.7 C109.3,50.5 114.1,67.4 114.1,67.4 L100.1,72.1 L99.2,67.9 Z" id="Path" fill="#9ED2C1"></path>
            <path d="M93.5,40.5 C91.3,41.3 90.1,43.3 89,46.7 L88,46.4 C89.2,42.7 91,40.4 93.5,39.5" id="Path" fill="#240C09"></path>
            <path d="M80.8,58.5 C80.7,58.9 80.9,59.2 81.2,59.4 L83.2,60.1 L83.2,60.1 C83.5,60.2 83.8,60 83.9,59.6 C84,59.2 83.9,58.8 83.6,58.7 L82.6,58.4 C82.3,58.3 82.2,57.9 82.3,57.6 C83.1,55.1 84.2,52 85.3,49.9 C86,48.5 86.8,47.4 87.5,47.1 C87.8,46.9 88.1,46.9 88.3,47.1 C89,47.5 89.2,48.8 89.2,50.6 C89.2,53 88.7,56.3 88,59.1 C87.9,59.4 87.7,59.6 87.4,59.6 L86.2,59.5 C85.9,59.5 85.6,59.8 85.5,60.1 C85.4,60.5 85.7,60.8 86,60.9 C86.4,60.9 86.7,61 87.1,61 C87.6,61 88.3,61.2 88.7,60.8 C88.9,60.7 88.9,60.4 89,60.2 C89.1,59.9 89.2,59.5 89.3,59.2 C89.7,57.6 90,56.1 90.2,54.5 C90.4,53.3 90.5,52 90.5,50.8 C90.5,50.3 90.5,49.7 90.4,49.2 C90.3,47.9 90,46.4 88.9,45.8 C88.3,45.5 87.7,45.5 87,45.8 C85.9,46.4 84.9,47.9 84,49.7 C82.4,53.1 81,57.8 80.8,58.5" id="Path" fill="#FFFFFF"></path>
            <path d="M84.2,49.6 L85.4,49.9 C86.1,48.5 86.9,47.4 87.6,47.1 C87.9,46.9 88.2,46.9 88.4,47.1 C89.1,47.5 89.3,48.8 89.3,50.6 L90.5,50.8 C90.5,50.3 90.5,49.7 90.4,49.2 C90.3,47.9 90,46.4 88.9,45.8 C88.3,45.5 87.7,45.5 87,45.8 C86.1,46.3 85.1,47.8 84.2,49.6" id="Path" fill="#240C09"></path>
            <path d="M105.7,33.3 L105.1,31.7 C109.2,35.6 107.6,39.8 103.1,43.7 C96.7,49.2 95.7,54.1 95.7,54.1 L94.6,53.9 C94.6,53.7 95.7,48.6 102.4,42.8 C106.8,38.9 106.6,35.7 105.7,33.3" id="Path" fill="#240C09"></path>
            <path d="M91.9,53.7 C90.8,55 91,57 92.4,58.1 C93.8,59.2 95.8,59.1 96.9,57.7 C98,56.4 97.8,54.4 96.4,53.3 C95,52.2 93,52.3 91.9,53.7" id="Path" fill="#FFFFFF"></path>
            <path d="M93.2,54.8 C92.7,55.4 92.8,56.3 93.4,56.8 C94,57.3 94.9,57.2 95.4,56.6 C95.9,56 95.8,55.1 95.2,54.6 C94.6,54.1 93.7,54.2 93.2,54.8" id="Path" fill="#5B95C1"></path>
            <path d="M419,125.8 C422.6,128.1 427.4,127 429.6,123.4 C431.8,119.8 430.8,115 427.2,112.8 C423.6,110.5 418.8,111.6 416.6,115.2 C414.3,118.8 415.4,123.6 419,125.8 L419,125.8 Z" id="Path" fill="#0068B3"></path>
            <path d="M516.2,163.2 C517.5,164 519.3,163.6 520.1,162.3 C520.9,161 520.5,159.2 519.2,158.4 C517.9,157.6 516.1,158 515.3,159.3 C514.4,160.6 514.9,162.4 516.2,163.2 L516.2,163.2 Z" id="Path" fill="#0068B3"></path>
            <path d="M468.1,138.1 C471.2,140.1 475.4,139.1 477.4,136 C479.4,132.9 478.4,128.7 475.3,126.7 C472.1,124.7 468,125.7 466,128.8 C464,132 464.9,136.2 468.1,138.1 L468.1,138.1 Z" id="Path" fill="#0068B3"></path>
            <polygon id="Path" fill="#0068B3" points="421.4 119 471.4 133.1 517.2 160.5 517.9 159.4 471.9 131.8 421.8 117.7"></polygon>
            <polyline id="Path" fill="#0068B3" points="472 132.6 492 115.5 491.1 114.4 471.1 131.6"></polyline>
            <path d="M489.6,118.4 C491.8,119.8 494.7,119.1 496.1,116.9 C497.5,114.7 496.8,111.8 494.6,110.4 C492.4,109 489.5,109.7 488.1,111.9 C486.8,114.1 487.4,117 489.6,118.4 L489.6,118.4 Z" id="Path" fill="#0068B3"></path>
            <rect id="Rectangle" fill="#1F3159" x="888.7" y="97.7" width="15.4" height="2.1"></rect>
            <rect id="Rectangle" fill="#026A9D" x="806.7" y="101.8" width="83.5" height="3.9"></rect>
            <rect id="Rectangle" fill="#026A9D" x="806.7" y="96.2" width="83.5" height="3.9"></rect>
            <rect id="Rectangle" fill="#026A9D" x="806.7" y="90.6" width="83.5" height="3.9"></rect>
            <rect id="Rectangle" fill="#1F3159" x="887" y="88.9" width="3.2" height="16.7"></rect>
            <rect id="Rectangle" fill="#1F3159" x="806.7" y="88.9" width="3.2" height="16.7"></rect>
            <rect id="Rectangle" fill="#1F3159" x="832.5" y="88.9" width="3.2" height="16.7"></rect>
            <rect id="Rectangle" fill="#1F3159" x="861.3" y="88.9" width="3.2" height="16.7"></rect>
            <path d="M824.2,102 L824.2,102.6 C824.3,102.6 824.4,102.6 824.5,102.7 L824.7,102.2 C826,102.5 827.1,103 828.2,103.7 L828,104.2 L828.2,104.4 L828.6,104 C829.6,104.7 830.6,105.6 831.3,106.7 L830.9,107.1 L831.1,107.3 L831.6,107.1 C832.3,108.2 832.8,109.3 833.1,110.6 L832.6,110.8 C832.6,110.9 832.6,111 832.6,111.1 L833.2,111.1 C833.3,111.7 833.4,112.3 833.4,113 C833.4,113.6 833.3,114.3 833.2,114.9 L832.6,114.9 C832.6,115 832.6,115.1 832.6,115.2 L833.1,115.4 C832.8,116.7 832.3,117.8 831.6,118.9 L831.1,118.7 L830.9,118.9 L831.3,119.3 C830.6,120.3 829.7,121.2 828.6,122 L828.2,121.6 L828,121.8 L828.2,122.3 C827.1,123 826,123.5 824.7,123.8 L824.5,123.3 C824.4,123.3 824.3,123.3 824.2,123.4 L824.2,124 C823.6,124.1 822.9,124.2 822.3,124.2 C821.7,124.2 821,124.1 820.4,124 L820.4,123.4 C820.3,123.4 820.2,123.4 820.1,123.3 L819.9,123.8 C818.6,123.5 817.5,123 816.4,122.3 L816.6,121.8 L816.4,121.6 L816,122 C815,121.3 814.1,120.4 813.3,119.3 L813.7,118.9 L813.5,118.7 L813,118.9 C812.3,117.8 811.8,116.7 811.6,115.4 L812.1,115.2 C812.1,115.1 812.1,115 812,114.9 L811.4,114.9 C811.3,114.3 811.2,113.7 811.2,113 C811.2,112.4 811.3,111.7 811.4,111.1 L812,111.1 C812,111 812,110.9 812.1,110.8 L811.6,110.6 C811.9,109.3 812.4,108.2 813.1,107.1 L813.6,107.3 L813.8,107.1 L813.4,106.7 C814.1,105.7 815,104.8 816.1,104 L816.5,104.4 L816.8,104.2 L816.6,103.7 C817.7,103 818.8,102.5 820.1,102.2 L820.3,102.7 C820.4,102.7 820.5,102.7 820.6,102.6 L820.6,102 C821.2,101.9 821.9,101.8 822.5,101.8 C822.9,101.8 823.6,101.9 824.2,102" id="Path" fill="#020203"></path>
            <path d="M822.3,106.6 C818.9,106.6 816.1,109.4 816.1,112.9 C816.1,116.4 818.9,119.2 822.3,119.2 C825.8,119.2 828.6,116.4 828.6,112.9 C828.5,109.4 825.7,106.6 822.3,106.6" id="Path" fill="#3D3F41"></path>
            <path d="M822.3,111.1 C821.3,111.1 820.5,111.9 820.5,112.9 C820.5,113.9 821.3,114.7 822.3,114.7 C823.3,114.7 824.1,113.9 824.1,112.9 C824.1,111.9 823.3,111.1 822.3,111.1" id="Path" fill="#020203"></path>
            <path d="M822.3,108.2 C821.9,108.2 821.7,108.5 821.7,108.9 C821.7,109.3 822,109.6 822.3,109.6 C822.7,109.6 823,109.3 823,108.9 C822.9,108.4 822.6,108.2 822.3,108.2" id="Path" fill="#020203"></path>
            <path d="M822.3,116.2 C821.9,116.2 821.7,116.5 821.7,116.9 C821.7,117.3 822,117.6 822.3,117.6 C822.7,117.6 823,117.3 823,116.9 C823,116.5 822.6,116.2 822.3,116.2" id="Path" fill="#020203"></path>
            <path d="M827,112.8 C827,112.4 826.7,112.1 826.3,112.1 C825.9,112.1 825.6,112.4 825.6,112.8 C825.6,113.2 825.9,113.5 826.3,113.5 C826.7,113.5 827,113.2 827,112.8" id="Path" fill="#020203"></path>
            <path d="M818.9,112.8 C818.9,112.4 818.6,112.1 818.2,112.1 C817.8,112.1 817.6,112.4 817.6,112.8 C817.6,113.2 817.9,113.5 818.2,113.5 C818.6,113.5 818.9,113.2 818.9,112.8" id="Path" fill="#020203"></path>
            <path d="M876.6,102 L876.6,102.6 C876.7,102.6 876.8,102.6 876.9,102.7 L877.1,102.2 C878.4,102.5 879.5,103 880.6,103.7 L880.4,104.2 L880.6,104.4 L881,104 C882,104.7 882.9,105.6 883.7,106.7 L883.3,107.1 L883.5,107.3 L884,107.1 C884.7,108.2 885.2,109.3 885.4,110.6 L884.9,110.8 C884.9,110.9 884.9,111 885,111.1 L885.6,111.1 C885.7,111.7 885.8,112.3 885.8,113 C885.8,113.6 885.7,114.3 885.6,114.9 L885,114.9 C885,115 885,115.1 884.9,115.2 L885.4,115.4 C885.1,116.7 884.6,117.8 884,118.9 L883.5,118.7 L883.3,118.9 L883.7,119.3 C883,120.3 882.1,121.2 881,122 L880.6,121.6 L880.4,121.8 L880.6,122.3 C879.5,123 878.4,123.5 877.1,123.8 L876.9,123.3 C876.8,123.3 876.7,123.3 876.6,123.4 L876.6,124 C876,124.1 875.4,124.2 874.7,124.2 C874.1,124.2 873.4,124.1 872.8,124 L872.8,123.4 C872.7,123.4 872.6,123.4 872.5,123.3 L872.3,123.8 C871,123.5 869.9,123 868.8,122.3 L869,121.8 L868.8,121.6 L868.4,122 C867.4,121.3 866.5,120.4 865.7,119.3 L866.1,118.9 L865.9,118.7 L865.4,118.9 C864.7,117.8 864.2,116.7 863.9,115.4 L864.4,115.2 C864.4,115.1 864.4,115 864.3,114.9 L863.7,114.9 C863.6,114.3 863.5,113.7 863.5,113 C863.5,112.4 863.6,111.7 863.7,111.1 L864.3,111.1 C864.3,111 864.3,110.9 864.4,110.8 L863.9,110.6 C864.2,109.3 864.7,108.2 865.4,107.1 L865.9,107.3 L866.1,107.1 L865.7,106.7 C866.4,105.7 867.3,104.8 868.4,104 L868.8,104.4 L869,104.2 L868.8,103.7 C869.9,103 871,102.5 872.3,102.2 L872.5,102.7 C872.6,102.7 872.7,102.7 872.8,102.6 L872.8,102 C873.4,101.9 874,101.8 874.7,101.8 C875.4,101.8 876,101.9 876.6,102" id="Path" fill="#020203"></path>
            <path d="M874.7,106.6 C871.3,106.6 868.5,109.4 868.5,112.9 C868.5,116.4 871.3,119.2 874.7,119.2 C878.2,119.2 881,116.4 881,112.9 C881,109.4 878.2,106.6 874.7,106.6" id="Path" fill="#3D3F41"></path>
            <path d="M874.7,111.1 C873.7,111.1 872.9,111.9 872.9,112.9 C872.9,113.9 873.7,114.7 874.7,114.7 C875.7,114.7 876.5,113.9 876.5,112.9 C876.5,111.9 875.7,111.1 874.7,111.1" id="Path" fill="#020203"></path>
            <path d="M874.7,108.2 C874.3,108.2 874.1,108.5 874.1,108.9 C874.1,109.3 874.4,109.6 874.7,109.6 C875.1,109.6 875.4,109.3 875.4,108.9 C875.4,108.4 875.1,108.2 874.7,108.2" id="Path" fill="#020203"></path>
            <path d="M874.7,116.2 C874.3,116.2 874.1,116.5 874.1,116.9 C874.1,117.3 874.4,117.6 874.7,117.6 C875.1,117.6 875.4,117.3 875.4,116.9 C875.4,116.5 875.1,116.2 874.7,116.2" id="Path" fill="#020203"></path>
            <path d="M879.4,112.8 C879.4,112.4 879.1,112.1 878.7,112.1 C878.3,112.1 878,112.4 878,112.8 C878,113.2 878.3,113.5 878.7,113.5 C879.1,113.5 879.4,113.2 879.4,112.8" id="Path" fill="#020203"></path>
            <path d="M871.3,112.8 C871.3,112.4 871,112.1 870.7,112.1 C870.3,112.1 870,112.4 870,112.8 C870,113.2 870.3,113.5 870.7,113.5 C871,113.5 871.3,113.2 871.3,112.8" id="Path" fill="#020203"></path>
            <polygon id="Path" fill="#151E34" points="956.7 74.6 956.7 84.1 959.3 84.1 959.3 74.6 957.5 71.3 954.9 71.3"></polygon>
            <rect id="Rectangle" fill="#151E34" x="955.5" y="79.3" width="5.1" height="10.4"></rect>
            <path d="M947.1,111.4 L928.3,111.4 C928.7,109.9 928.9,107.6 928.9,106.7 C928.9,105.8 928.9,106.3 928.9,106.1 L948.1,106.1 C947.4,107.7 947.1,109.4 947.1,111.3 L947.1,111.4 L947.1,111.4 Z" id="Path" fill="#020203"></path>
            <path d="M963.6,88 L939.3,88 L933.5,70.2 L903.6,70.2 L903.8,95.3 C914.4,91.7 927.3,90.9 927.8,106.1 L950.7,106.1 C952.7,101.2 956.7,100.3 960.6,100.3 C964.5,100.3 965,100.9 966.8,101.8 L966.8,91.2 C966.8,89.5 965.3,88 963.6,88" id="Path" fill="#026A9D"></path>
            <path d="M918.3,88 L904.9,88 L904.9,72.2 L918.3,72.2 L918.3,88 Z M937.2,88 L919.3,88 L919.3,72.2 L931.6,72.2 L937.2,88 Z" id="Shape" fill="#DBF0FD"></path>
            <path d="M929.3,89.3 L937.4,89.3 L940.8,98.6 L933.7,98.6 C932.8,95.7 931.2,93 929.2,90.8 L929.3,89.3 L929.3,89.3 Z" id="Path" fill="#DBF0FD"></path>
            <rect id="Rectangle" fill="#1F3159" x="941.6" y="93.3" width="17.3" height="3.2"></rect>
            <path d="M941.6,97.7 L956.4,97.7 C954.5,98.4 952.7,99.5 951.2,100.9 L941.6,100.9 L941.6,97.7 L941.6,97.7 Z" id="Path" fill="#1F3159"></path>
            <path d="M941.6,101.9 L950.3,101.9 C949.5,102.9 948.8,104 948.3,105.1 L941.6,105.1 L941.6,101.9 Z" id="Path" fill="#1F3159"></path>
            <path d="M929.9,91.5 L930.8,91.4 C930.9,91.4 931,91.5 931,91.6 C930.8,94.1 932.1,93.5 932.7,93.6 C933.2,93.6 933.4,93.9 933.4,94.1 C933.6,94.7 932.6,94.8 932.2,94.8 C931.5,94.8 931.2,94.6 930.9,94.8 C930.8,94.9 930.2,94.9 930,94.9 C929.7,94.9 929.5,94.3 929.5,94 C929.4,93.5 929.6,93.3 929.8,92.8 L929.8,91.7 C929.8,91.7 929.8,91.5 929.9,91.5" id="Path" fill="#3C1F11"></path>
            <path d="M930.7,87.5 L931.4,93.2 L929.5,93.4 L929.2,90.2 L928.8,86.9 C930.1,86.4 930.7,86.8 930.7,87.5" id="Path" fill="#919246"></path>
            <path d="M926.7,89 C925.8,89.2 923.5,89.1 922.7,88.7 L923.3,86 L926.6,86.3 L929.9,86.7 C930.9,86.9 930.8,87.6 930.6,88.1 L930.2,88.8 C928.7,88.8 927.8,88.8 926.7,89" id="Path" fill="#1F3159"></path>
            <path d="M921.5,86 L923.3,84.7 L924.7,85.1 L925,85.5 L925.5,85.9 L929.4,86.2 C929.7,86.2 929.9,86.2 930.1,86.5 C930.6,87 930.4,88 929.7,88.9 C928.6,89.1 926.3,89.5 925.4,89.5 C923.2,89.5 921.1,89.1 921.5,86" id="Path" fill="#919246"></path>
            <path d="M922.2,76.9 L922.1,78 L923.5,79 L923.8,78.7 C924.1,77.7 923.8,77.8 924.1,76.7 L922.6,76 C922.4,76.7 922.3,76.4 922.2,76.9" id="Path" fill="#F0C17D"></path>
            <path d="M924.8,76.5 L924.9,76.7 L924.8,76.9 C924.5,76.9 924.6,77.1 924.6,77.1 C924.8,77.1 924.8,77.2 924.7,77.3 L924.6,77.4 C924.6,77.5 924.7,77.7 924.6,77.8 C924.4,78 923.6,77.6 923.2,77.4 C922.9,77.3 923,77 923,76.7 C922.8,76.7 922.7,76.7 922.7,76.4 C922.5,76.1 922.4,75.8 922.2,75.4 L922.8,73.9 L924,74 C924.1,74.2 924.4,74.4 924.5,74.7 C924.7,75.1 924.7,75.3 924.8,75.4 C924.9,75.5 924.8,75.6 924.8,75.7 L924.8,75.8 C924.8,76.1 925.1,76.3 925.1,76.4 C925.2,76.4 925,76.5 924.8,76.5" id="Path" fill="#FEDAA8"></path>
            <path d="M923.7,75.7 C923.7,75.8 923.6,76 923.6,76.2 C923.5,76.1 923.4,76 923.3,75.8 C923.1,75.7 922.9,75.5 922.8,75.6 C922.6,75.7 922.7,76 922.9,76.2 C923,76.3 923,76.4 923,76.5 C922.9,76.7 922.7,76.6 922.6,76.8 C922.5,77 922.3,77.1 922.2,77.2 C922.1,76.9 922.1,76.6 922,76.4 C921.9,76.3 921.8,76.1 921.8,75.8 C921.6,74.9 922,74.2 922.7,73.9 C923.5,73.5 924.5,73.8 924.8,74.5 C924.7,74.5 924.4,74.6 924.1,74.7 C923.9,75 923.8,75.4 923.9,75.7 L923.7,75.7 Z" id="Path" fill="#62260C"></path>
            <path d="M922,77.5 C921.6,78.4 920.9,79 920.7,80.2 C920.5,82.1 920.8,84.1 921.4,86.9 C922.3,87.2 924.4,85.7 924.7,85 C924.9,83.3 925.2,81.8 925.1,81.1 C925,80.5 924.5,79.8 923.9,78.6 C923.5,78.6 922.5,78.1 922,77.5" id="Path" fill="#E16F0D"></path>
            <path d="M922,77.5 C921.6,78.4 920.9,79 920.7,80.2 C920.5,82.1 920.8,84.1 921.4,86.9 C921.8,87 922.2,86.9 922.8,86.6 C922.7,86.3 922.5,86 922.4,85.6 C921.6,82.8 921.4,80.7 922.4,77.9 C922.3,77.8 922.1,77.7 922,77.5" id="Path" fill="#F08217"></path>
            <path d="M923.8,83.6 C923.6,85.3 921.9,84.9 921.6,83.7 C921.2,81.9 921,78.9 922.4,78.9 C924.2,78.8 924,81.8 923.8,83.6 M921.3,78.7 C921,79.1 920.8,79.6 920.7,80.2 C920.5,82.1 920.8,84.1 921.4,86.9 C922.3,87.2 924.5,85.7 924.7,85 C924.9,83.3 925.2,81.8 925.1,81.1 C925,80.8 924.8,80.4 924.6,79.9 C923.7,78.7 922.9,78.2 921.3,78.7" id="Shape" fill="#919246"></path>
            <path d="M921.3,78.7 C921,79.1 920.8,79.6 920.7,80.2 C920.5,81.9 920.7,83.5 921.1,85.8 C921.2,86.3 921.3,86.8 921.4,87.2 C921.7,89.2 923.5,89.5 925.5,89.4 C925.7,89.4 926.1,89.4 926.5,89.3 L926.3,88.8 C924,88 923,88 922.3,85.6 C922.2,85.2 922.1,84.8 922,84.5 C921.8,84.3 921.6,84.1 921.5,83.8 C921.2,82.2 920.9,79.7 921.9,79.1 C921.9,78.9 922,78.7 922.1,78.5 C922,78.5 921.7,78.6 921.3,78.7" id="Path" fill="#919246"></path>
            <path d="M919.3,81.1 C919.1,81.1 918.9,81.4 918.9,81.6 L919.8,86.2 C919.8,86.4 920.1,86.6 920.3,86.5 C921.8,86.1 920.8,80.7 919.3,81.1" id="Path" fill="#1F3159"></path>
            <path d="M929.5,91.5 L930.4,91.5 C930.5,91.5 930.6,91.6 930.6,91.7 C930.2,94.2 931.6,93.7 932.1,93.8 C932.6,93.8 932.8,94.2 932.8,94.3 C932.9,94.9 932,94.9 931.5,94.9 C930.8,94.9 930.5,94.6 930.2,94.8 C930.1,94.9 929.4,94.9 929.3,94.9 C929,94.8 928.9,94.3 928.9,94 C928.8,93.5 929,93.3 929.3,92.8 L929.4,91.7 C929.3,91.6 929.4,91.5 929.5,91.5" id="Path" fill="#643214"></path>
            <path d="M930.8,87.5 L930.8,93.3 L928.8,93.7 L928.4,89.7 L928.8,87.2 C929.3,86.9 929.6,86.3 929.9,86.3 C930.8,86.3 930.8,87.1 930.8,87.5" id="Path" fill="#919246"></path>
            <path d="M927.9,88.2 L920.5,88.2 C920,88.2 919.6,88.6 919.6,89.1 L919.6,90.4 C919.6,90.9 920,91.3 920.5,91.3 L927.9,91.3 C928.4,91.3 928.8,90.9 928.8,90.4 L928.8,89.1 C928.8,88.6 928.4,88.2 927.9,88.2" id="Path" fill="#1F3159"></path>
            <polygon id="Path" fill="#020203" points="931.9 81 929.6 83.6 931 83 931.4 82.5"></polygon>
            <polygon id="Path" fill="#020203" points="931.1 82.4 930.8 82.8 937.4 88.7 937.8 88.3"></polygon>
            <path d="M931.6,80.2 L928.8,83.4 C928.6,83.6 928.6,83.9 928.8,84 C929,84.2 929.3,84.1 929.4,84 L932.2,80.8 C932.4,80.6 932.3,80.3 932.2,80.2 C932,80 931.7,80.1 931.6,80.2" id="Path" fill="#F08217"></path>
            <path d="M923.2,82.1 C923.6,82.5 924.5,83.4 925,83.7 C925,83.7 926.7,83.9 926,82.6 C926,82.4 925.3,81.9 924.2,80.3 C923.3,79 922.3,79.1 922,79.7 C921.7,80.3 922.2,81.1 923.2,82.1" id="Path" fill="#FEDAA8"></path>
            <path d="M923.2,82.2 C923.4,81.5 924.2,81 924.7,80.9 C924.6,80.7 924.5,80.6 924.3,80.3 C923.3,78.9 922.6,78.3 921.8,79.2 C920.9,80.4 922.7,81.7 923.2,82.2" id="Path" fill="#E16F0D"></path>
            <path d="M925.5,83.9 C927,83.7 928.2,82.9 929.7,82.4 C929.6,81.9 929.5,81.8 929.5,81.6 C929.5,81.6 926.5,82.1 925.2,82.2 C924.3,82.3 924.4,84 925.5,83.9" id="Path" fill="#FEDAA8"></path>
            <path d="M930.6,80.8 C930.8,80.7 930.8,80.7 931,80.7 C931.2,80.7 931.4,80.7 931.4,80.7 L931.8,80.9 C932,81.1 932.1,81.2 932,81.3 C931.9,81.4 931.8,81.3 931.6,81.1 L931.5,81.1 C931.6,81.2 931.7,81.2 931.8,81.3 C931.8,81.4 931.9,81.5 931.7,81.6 L931.6,81.5 L931.5,81.4 C931.3,81.4 931.2,81.4 931,81.4 C931.2,81.4 931.3,81.5 931.4,81.5 C931.5,81.6 931.5,81.7 931.4,81.8 C931.3,81.9 931.2,81.8 930.8,81.8 C930.9,81.8 931.1,81.8 931.2,81.9 L931.1,82.1 C930.8,82.2 930.3,82.4 929.9,82.4 C929.7,82.4 929.6,82.4 929.5,82.4 C929.3,82.5 928.9,82.5 928.7,82.6 L928.5,81.7 L929.4,81.4 C929.6,81.4 930.5,80.9 930.6,80.8" id="Path" fill="#026A9D"></path>
            <path d="M924.8,74.5 L924.3,73.6 C924,73.1 923.7,73.1 923.5,73.1 C923.2,73.1 923,73.4 922.7,73.5 C922.3,73.6 922.1,73.5 921.7,73.7 C921.4,73.8 921.4,74 921.4,74.5 L921.4,75.6 L924.5,74.8 L924.8,74.5 Z" id="Path" fill="#E16F0D"></path>
            <path d="M921.6,75.1 C921.3,75.2 920.3,75.5 920.5,76 C920.6,76.2 920.9,76.4 921.8,76.1 L924.3,75.3 C924.5,75.2 926.2,74.8 925.9,74.2 C925.8,74 925.4,73.9 924.6,74.2 L921.6,75.1 Z" id="Path" fill="#E16F0D"></path>
            <path d="M924.7,74.3 L924.6,74.2 C923.8,74.7 922.8,75 921.9,75 C921.8,74.3 921.7,74 922.1,73.6 C922,73.6 921.9,73.6 921.7,73.7 C921.4,73.8 921.4,74 921.4,74.5 L921.4,75.2 C921.9,75.5 924.5,74.8 924.7,74.3" id="Path" fill="#F08217"></path>
            <path d="M962.7,98.9 L962.7,99.5 C962.8,99.5 962.9,99.5 963,99.6 L963.2,99 C964.6,99.3 966,99.9 967.2,100.7 L967,101.3 C967.1,101.4 967.2,101.4 967.3,101.5 L967.7,101.1 C968.9,101.9 969.9,103 970.8,104.2 L970.3,104.6 C970.4,104.7 970.4,104.8 970.5,104.9 L971.1,104.7 C971.9,105.9 972.4,107.3 972.8,108.7 L972.2,108.9 C972.2,109 972.2,109.1 972.3,109.2 L972.9,109.2 C973,109.9 973.1,110.6 973.1,111.4 C973.1,112.2 973,112.9 972.9,113.6 L972.3,113.6 C972.3,113.7 972.3,113.8 972.2,113.9 L972.8,114.1 C972.5,115.5 971.9,116.9 971.1,118.1 L970.5,117.9 C970.4,118 970.4,118.1 970.3,118.2 L970.8,118.6 C970,119.8 968.9,120.8 967.7,121.7 L967.3,121.3 C967.2,121.4 967.1,121.4 967,121.5 L967.2,122.1 C966,122.9 964.6,123.4 963.2,123.8 L963,123.2 C962.9,123.2 962.8,123.2 962.7,123.3 L962.7,123.9 C962,124 961.3,124.1 960.5,124.1 C959.8,124.1 959,124 958.3,123.9 L958.3,123 C958.2,123 958.1,123 958,122.9 L957.8,123.5 C956.4,123.2 955,122.6 953.8,121.8 L954,121.2 C953.9,121.1 953.8,121.1 953.7,121 L953.3,121.4 C952.1,120.6 951.1,119.5 950.2,118.3 L950.6,117.9 C950.5,117.8 950.5,117.7 950.4,117.6 L949.8,117.8 C949,116.6 948.5,115.2 948.1,113.8 L948.7,113.6 C948.7,113.5 948.7,113.4 948.6,113.3 L948,113.3 C947.9,112.6 947.8,111.9 947.8,111.1 C947.8,110.3 947.9,109.6 948,108.9 L948.6,108.9 C948.6,108.8 948.6,108.7 948.7,108.6 L948.1,108.4 C948.4,107 949,105.6 949.8,104.4 L950.4,104.6 C950.5,104.5 950.5,104.4 950.6,104.3 L950.2,103.9 C951,102.7 952.1,101.7 953.3,100.8 L953.8,101.2 C953.9,101.1 954,101.1 954.1,101 L953.9,100.4 C955.1,99.6 956.4,99.1 957.9,98.7 L958.1,99.3 C958.2,99.3 958.3,99.3 958.4,99.2 L958.4,98.6 C959.1,98.5 959.8,98.4 960.6,98.4 C961.3,98.7 962,98.8 962.7,98.9" id="Path" fill="#020203"></path>
            <path d="M960.5,104.1 C956.6,104.1 953.4,107.3 953.4,111.2 C953.4,115.1 956.6,118.3 960.5,118.3 C964.5,118.3 967.6,115.1 967.6,111.2 C967.6,107.3 964.5,104.1 960.5,104.1" id="Path" fill="#3D3F41"></path>
            <path d="M960.5,109.2 C959.4,109.2 958.5,110.1 958.5,111.2 C958.5,112.3 959.4,113.2 960.5,113.2 C961.6,113.2 962.6,112.3 962.6,111.2 C962.6,110.1 961.7,109.2 960.5,109.2" id="Path" fill="#020203"></path>
            <path d="M960.5,105.9 C960.1,105.9 959.8,106.2 959.8,106.6 C959.8,107 960.1,107.3 960.5,107.3 C960.9,107.3 961.3,107 961.3,106.6 C961.3,106.3 960.9,105.9 960.5,105.9" id="Path" fill="#020203"></path>
            <path d="M960.5,115.1 C960.1,115.1 959.8,115.4 959.8,115.8 C959.8,116.2 960.1,116.5 960.5,116.5 C960.9,116.5 961.3,116.2 961.3,115.8 C961.3,115.4 960.9,115.1 960.5,115.1" id="Path" fill="#020203"></path>
            <path d="M965.9,111.3 C965.9,110.9 965.6,110.6 965.1,110.6 C964.6,110.6 964.3,110.9 964.3,111.3 C964.3,111.7 964.6,112 965.1,112 C965.6,112 965.9,111.7 965.9,111.3" id="Path" fill="#020203"></path>
            <path d="M956.7,111.3 C956.7,110.9 956.4,110.6 956,110.6 C955.6,110.6 955.2,110.9 955.2,111.3 C955.2,111.7 955.5,112 956,112 C956.3,112 956.7,111.7 956.7,111.3" id="Path" fill="#020203"></path>
            <path d="M946.5,115.8 C946.3,114.7 946.1,113.6 946.1,112.5 C946.1,103.9 953.1,96.9 961.7,96.9 L961.7,99.2 C954.4,99.2 948.5,105.2 948.5,112.5 C948.5,113.6 948.6,114.7 948.9,115.8 L946.5,115.8 L946.5,115.8 Z" id="Path" fill="#1F3159"></path>
            <path d="M936.1,94.8 L926.4,94.8 C925.9,94.8 925.5,95.2 925.5,95.7 L925.5,99.5 C925.5,100 925.9,100.4 926.4,100.4 L936.1,100.4 C936.6,100.4 937,100 937,99.5 L937,95.7 C936.9,95.2 936.5,94.8 936.1,94.8" id="Path" fill="#151E35"></path>
            <path d="M929.3,89.3 L937.4,89.3 L940.8,98.6 L933.7,98.6 C932.8,95.7 931.2,93 929.2,90.8 L929.3,89.3 L929.3,89.3 Z M918.3,88 L904.9,88 L904.9,72.2 L918.3,72.2 L918.3,88 Z M937.2,88 L919.3,88 L919.3,72.2 L931.6,72.2 L937.2,88 Z M943.3,100.4 L939.3,88 L933.5,70.2 L903.6,70.2 L903.8,95.3 C914.4,91.7 927.3,90.9 927.8,106.1 L943.3,100.4 Z" id="Shape" fill="#026A9D"></path>
            <path d="M915.9,89.8 L915.9,90.7 C916.1,90.7 916.2,90.8 916.3,90.8 L916.6,90 C918.6,90.4 920.4,91.2 922.1,92.3 L921.8,93.1 C921.9,93.2 922,93.3 922.2,93.3 L922.8,92.7 C924.4,93.8 925.8,95.3 927,96.9 L926.4,97.5 C926.5,97.6 926.6,97.8 926.7,97.9 L927.5,97.6 C928.6,99.3 929.3,101.1 929.8,103.1 L929,103.4 C929,103.5 929.1,103.7 929.1,103.8 L930,103.8 C930.2,104.8 930.2,105.7 930.2,106.8 C930.2,107.8 930.1,108.8 930,109.8 L929.1,109.8 C929.1,110 929,110.1 929,110.3 L929.8,110.6 C929.4,112.6 928.6,114.4 927.5,116.1 L926.7,115.8 C926.6,115.9 926.5,116 926.5,116.2 L927.1,116.8 C926,118.4 924.5,119.8 922.9,121 L922.3,120.4 C922.2,120.5 922,120.6 921.9,120.7 L922.2,121.5 C920.5,122.5 918.7,123.3 916.7,123.8 L916.4,123 C916.3,123 916.1,123.1 916,123.1 L916,124 C915,124.2 914,124.3 913,124.3 C912,124.3 911,124.2 910,124 L910,123.1 C909.8,123.1 909.7,123 909.6,123 L909.3,123.8 C907.3,123.4 905.5,122.6 903.8,121.5 L904.1,120.7 C904,120.6 903.9,120.5 903.7,120.5 L903.1,121.1 C901.5,120 900.1,118.5 898.9,116.9 L899.5,116.3 C899.4,116.2 899.3,116 899.2,115.9 L898.4,116.2 C897.3,114.6 896.6,112.7 896.1,110.7 L896.9,110.4 C896.9,110.3 896.8,110.1 896.8,110 L895.9,110 C895.7,109 895.6,108.1 895.6,107 C895.6,106 895.7,105 895.9,104 L896.8,104 C896.8,103.8 896.9,103.7 896.9,103.5 L896.1,103.2 C896.5,101.2 897.3,99.4 898.4,97.7 L899.2,98 C899.3,97.9 899.4,97.8 899.4,97.6 L898.8,97 C899.9,95.4 901.4,94 903,92.8 L903.6,93.4 C903.7,93.3 903.9,93.2 904,93.1 L903.7,92.3 C905.3,91.3 907.2,90.5 909.1,90 L909.4,90.8 C909.5,90.8 909.7,90.7 909.8,90.7 L909.8,89.8 C910.8,89.6 911.8,89.5 912.8,89.5 C913.9,89.6 914.9,89.7 915.9,89.8" id="Path" fill="#020203"></path>
            <path d="M912.9,95.7 C906.8,95.7 901.9,100.6 901.9,106.7 C901.9,112.8 906.8,117.7 912.9,117.7 C919,117.7 923.9,112.8 923.9,106.7 C923.9,100.6 919,95.7 912.9,95.7" id="Path" fill="#3D3F41"></path>
            <path d="M912.9,103.6 C911.2,103.6 909.8,105 909.8,106.7 C909.8,108.4 911.2,109.8 912.9,109.8 C914.6,109.8 916,108.4 916,106.7 C916.1,105 914.7,103.6 912.9,103.6" id="Path" fill="#020203"></path>
            <path d="M912.9,98.5 C912.3,98.5 911.8,99 911.8,99.7 C911.8,100.4 912.3,100.8 912.9,100.8 C913.5,100.8 914.1,100.3 914.1,99.7 C914.1,99.1 913.6,98.5 912.9,98.5" id="Path" fill="#020203"></path>
            <path d="M912.9,112.6 C912.3,112.6 911.8,113.1 911.8,113.7 C911.8,114.3 912.3,114.9 912.9,114.9 C913.5,114.9 914.1,114.4 914.1,113.7 C914.1,113 913.6,112.6 912.9,112.6" id="Path" fill="#020203"></path>
            <path d="M921.2,106.7 C921.2,106.1 920.7,105.5 920.1,105.5 C919.5,105.5 918.9,106 918.9,106.7 C918.9,107.3 919.4,107.9 920.1,107.9 C920.7,107.9 921.2,107.4 921.2,106.7" id="Path" fill="#020203"></path>
            <path d="M907,106.7 C907,106.1 906.5,105.5 905.8,105.5 C905.2,105.5 904.7,106 904.7,106.7 C904.7,107.3 905.2,107.9 905.8,107.9 C906.5,107.9 907,107.4 907,106.7" id="Path" fill="#020203"></path>
            <rect id="Rectangle" fill="#1F3159" x="903.1" y="89.2" width="19.6" height="2.3"></rect>
            <polygon id="Path" fill="#1F3159" points="896.8 94.8 903.1 89.2 904.8 91.2 898.7 96.6"></polygon>
            <polygon id="Path" fill="#1F3159" points="929.1 94.8 922.7 89.2 921.1 91.2 927.3 96.6"></polygon>
            <path d="M778.2,92.2 C777.3,92.8 776.3,93.4 775.4,94 C774.6,94.5 774.6,95.3 774.6,96.2 C774.6,97.8 775.6,100.4 776,102.3 L777.3,101.6 C777.5,98.5 777.6,99.4 776.5,96.4 L776.8,95.3 C778.9,94.1 778.5,93.2 778.2,92.2" id="Path" fill="#F0C17D"></path>
            <path d="M777.2,231.7 C773.3,234 767.2,232.1 763.3,231.7 C762,232.6 759.9,232 759.1,231.8 C757.3,231.4 757.7,227.1 758.2,224.5 C758.6,222.4 758.2,220.8 758.2,218.5 L765.6,216.6 C765.3,220.4 764.9,221.7 765.8,223.3 C767.8,226.6 772.1,226.9 775,227 C779.5,227.2 779.8,230.2 777.2,231.7" id="Path" fill="#141313"></path>
            <path d="M752.2,155.6 C750.8,150.1 750.5,148 751.1,144.4 C751.9,139.9 753.4,137.2 755.5,133.2 L770.4,136.4 L771.9,149.6 L768.5,178.1 L767,223.6 L756.8,224.7 L754.6,192.7 L757.5,177.9 C756.8,170.2 753.7,161.7 752.2,155.6" id="Path" fill="#787D24"></path>
            <path d="M768.1,232.2 C764.2,234.5 758.1,232.4 754.2,231.9 C752.9,232.7 750.8,232.1 750,231.9 C748.2,231.5 748.6,227.2 749.1,224.6 C749.5,222.5 749.1,220.9 749.1,218.6 L756.5,216.9 C756.2,220.7 755.8,222 756.7,223.6 C758.7,227 763,227.3 765.9,227.5 C770.4,227.7 770.7,230.7 768.1,232.2" id="Path" fill="#201D1E"></path>
            <path d="M747.1,156.3 C744.6,144.4 749.3,142.1 750.5,133.2 L765.8,137.3 L766.3,150.3 L764.7,155.2 L762.2,177.6 L762,178.9 L758.2,224.7 L747.9,225.8 L747.3,192.5 L749,177.3 C748.6,169.8 748.4,162.4 747.1,156.3" id="Path" fill="#919246"></path>
            <path d="M756.1,84.3 C755.4,84.9 754.4,85.2 752.6,86 C747.3,88.4 746,90.1 744.5,92.7 C741.2,98.5 747.9,117 750.3,134 C755.5,140.3 769.7,139.2 770.6,138.8 C772.8,126.5 775.6,120.7 776.2,110.7 C776.5,105.5 776.4,100.7 775.8,97.1 C775.1,92.9 775.1,91 771.7,88.7 C770,87.6 768.9,86.4 767.9,84.9 C767.9,95 757.2,83.3 756.1,84.3" id="Path" fill="#E88D3F"></path>
            <path d="M766.1,139 C768.5,139 770.3,138.8 770.7,138.7 C772.9,126.4 775.7,120.6 776.3,110.6 C776.6,105.4 776.5,100.6 775.9,97 C775.2,92.8 775.2,90.9 771.8,88.6 C770.1,87.5 769,86.3 768,84.8 C768,85.3 768,85.8 767.9,86.2 C768.8,94.5 769.5,102.4 769.3,109.1 C768.5,127.8 766.5,132.8 766.1,139" id="Path" fill="#E16F0D"></path>
            <path d="M755.3,84.8 C754.7,85.1 753.9,85.4 752.6,86 C751.9,86.3 751.3,86.6 750.7,86.9 C756.7,87.5 757.5,95 757.1,106.3 C756.7,114.9 755.9,118.4 746.6,115.3 C747.9,121.3 749.4,127.7 750.3,134 C747.1,145.1 750.7,143.7 754.6,144.3 C757.8,144.8 761.2,139.2 765.3,139.6 C767.8,139.9 770.5,138.9 770.7,138.8 C772.8,127.4 775.3,121.5 776.1,112.6 C775.7,111.8 775.7,110.5 775.5,108.4 C775.3,104.5 774.9,92.4 772.8,89.4 C772.5,89.1 772.1,88.9 771.7,88.6 C770.1,87.5 769,86.4 768,85 C772.1,92.9 772.2,99.3 771.8,108.3 C768.5,108.7 765.9,108.6 762.6,108.8 C762.1,99.3 762.7,90 755.3,84.8" id="Path" fill="#919246"></path>
            <path d="M765.8,139.6 C768.5,140.2 770.3,139.4 770.6,138.7 C772.7,127.3 775.2,121.4 776,112.5 C775.6,111.7 775.6,110.4 775.4,108.3 C775.2,104.4 774.8,92.3 772.7,89.3 C772.4,89 772,88.8 771.6,88.5 C770,87.4 768.9,86.3 767.9,84.9 C772,92.8 772.1,99.2 771.7,108.2 C770.8,108.3 769.9,108.4 769.1,108.4 L769.1,109 C768.5,127.8 766.3,133.4 765.8,139.6" id="Path" fill="#787D24"></path>
            <path d="M755.9,84.4 C757.5,86 765.9,91.2 768.4,88.4 C768.2,85.4 768.3,84.7 770.6,80.4 L764.7,69.2 L758.1,66.2 C756.8,71.8 759.4,76.8 758.3,81.3 C758,82.6 756.7,83.8 755.9,84.4" id="Path" fill="#F0C17D"></path>
            <path d="M743,109.4 C743.5,114.6 745,124.1 749.7,126.8 C751,127.5 757,127.1 755,117.7 C754.5,116.9 754.1,117.3 755.3,105.2 C756.4,94.3 756,88.6 748.6,89.9 C739.6,91.7 742.5,105.1 743,109.4" id="Path" fill="#FEDAA8"></path>
            <path d="M742.8,109.4 C746.4,107 751.9,107.9 754.9,109.5 C755,108.3 755.1,106.8 755.3,105.2 C756.4,94.3 756,88.6 748.6,89.9 C739.6,91.7 742.3,105.1 742.8,109.4" id="Path" fill="#E88D3F"></path>
            <path d="M764.8,84.2 L764.8,84.2 C763.6,84.2 763.1,84.2 762.5,83.9 C761.9,83.7 761.6,83.1 760.8,82.3 C760.1,81.6 758.9,81 758.6,80.3 C758.2,79.4 758.3,78.5 758.2,77.2 C757.6,77.5 756.9,75.7 756.8,75.2 C756.6,74.3 756,72.8 755.8,71.8 C755.7,71.2 755.8,70.8 755.9,70.6 C756.3,70.3 756.7,70.5 757.3,71.3 C757.3,70.6 757.4,69.9 757.4,69.1 C757.3,67.7 757.3,66.5 757.5,65.5 C757.7,64.5 758.1,63.6 758.9,62.9 L758.9,62.9 C759.4,62.5 759.9,62.1 760.5,61.9 L760.5,61.9 L760.6,61.8 L760.7,61.8 L760.8,61.8 L760.9,61.8 L761,61.8 L761.1,61.8 L761.2,61.8 L761.3,61.8 L761.5,61.7 L761.5,61.7 C763,61.1 764.7,61 766.4,61.2 C768,61.4 769.6,62.1 770.7,63.1 C771.5,63.8 771.9,64.7 772.1,65.7 C772.3,66.7 772.2,67.9 772.2,69.3 C772.2,70.1 772.2,70.8 772.3,71.5 C772.9,70.7 773.3,70.5 773.7,70.8 C773.9,70.9 774,71.4 773.8,72 C773.6,73 773,74.5 772.8,75.4 C772.7,76 772,77.8 771.4,77.5 C771.3,78.7 771.3,79.6 771,80.5 C770.7,81.2 769.5,81.9 768.8,82.6 C768,83.4 767.7,83.9 767.2,84.2 C766.4,84.1 765.9,84.2 764.8,84.2" id="Path" fill="#FEDAA8"></path>
            <path d="M759.5,64.4 C759,65 757.6,69.3 757.8,73.3 C756,67 755.1,62.4 758.9,59.6 C764,55.9 770.2,58.3 770.7,59.7 C774.8,61.1 773.1,67.4 772,72.4 C772,69.9 771.4,66.8 770.1,64.6 C769.8,64.3 768.5,66 768.2,66 C765.2,65.8 764.1,65.1 759.5,64.4" id="Path" fill="#62260C"></path>
            <path d="M777,85.7 L777,85.7 C778.1,85.7 779.1,86.5 779.2,87.6 L787.8,204.2 L783.7,204.5 L775.1,87.8 C775.1,86.8 775.9,85.8 777,85.7" id="Path" fill="#885413"></path>
            <path d="M778.2,92.2 C777.3,92.8 776.3,93.4 775.4,94 C774.6,94.5 774.2,95.4 774.6,96.2 L776.1,99.7 C776.3,96.6 776.2,96.7 776.2,96.3 L776.7,95.3 C778.9,94.1 778.5,93.2 778.2,92.2" id="Path" fill="#E16F0D"></path>
            <path d="M778.4,93.8 C777.8,94.2 777,94.9 776.4,95.3 C775.9,95.6 775.7,96.6 776,96.9 C776.3,97.2 777,97 778.1,96.3 C776.8,97.3 776.7,97.5 776.9,97.9 C777.1,98.5 777.5,98.6 778.6,98.3 L777.7,99 C777,99.7 777.4,100.8 778.3,100.8 L780,99.9 L778.9,100.8 C778.5,101.1 778.5,103.3 781.1,101.6 C782.2,100.9 782.9,100.5 783.4,99.8 C783.9,99 784.2,98.2 783.6,97.4 C783.6,96.4 783.7,96.2 782.8,95.6 C782.6,94.7 782.5,94.1 781.6,93.8 C781.2,92 780.3,92.5 778.4,93.8" id="Path" fill="#E16F0D"></path>
            <path d="M748.7,126.2 C756.3,131.3 764.9,132.6 773.3,136.8 C774.7,134.2 774.8,133.7 775.8,132.6 C775.8,132.6 761.1,122.4 754.9,117.6 C750.5,114 743.5,122.6 748.7,126.2" id="Path" fill="#FEDAA8"></path>
            <path d="M783.6,133.7 C784.8,134.1 784.8,134.2 785.7,135.1 C786.4,135.8 787.6,136.6 787.7,136.8 C787.9,137 788.7,139.1 788.7,139.1 C788.6,140.8 788.8,141.7 788,141.7 C787.5,141.7 787.2,141 786.9,139.3 L786.5,138.5 C786.7,139.3 786.9,139.9 786.7,140.6 C786.5,141.2 786.1,142 784.9,141.6 C784.6,141.5 784.8,141.3 784.8,141 L784.9,140.2 C784.2,139.6 783.6,139 783,138.3 C783.8,139.3 784.3,139.9 784.4,140.4 C784.6,141.1 784,141.3 783.4,141.6 C782.6,142 782.4,140.6 780.9,139.3 C781.3,139.8 782,140.5 782.1,141.2 C782.2,141.9 781.4,141.9 780.9,141.7 C779.1,141 776.3,139.5 774.7,138.3 C774,137.8 773.5,137.2 773,136.9 C771.7,136.3 769.8,135.6 768.5,135 L771.7,128.7 L776.4,132 C777,132 782.9,133.5 783.6,133.7" id="Path" fill="#E16F0D"></path>
            <path d="M777.2,208.7 L794.9,207.4 C797,207.2 798.8,208.8 799,210.9 L800.4,230.2 C800.5,231.5 799.9,232.7 799,233.5 C799,233.3 799,233.1 799,233 L797.5,212.9 C797.4,211.1 795.8,209.7 793.9,209.8 L778.5,210.9 C776.7,211 775.3,212.6 775.4,214.5 L776.9,234.6 C776.9,234.8 776.9,235 777,235.1 C776,234.5 775.2,233.4 775.1,232.1 L773.7,212.8 C773.6,210.7 775.1,208.9 777.2,208.7" id="Path" fill="#026A9D"></path>
            <path d="M782.7,210.2 L784.4,234.1 C784.4,234.3 784.5,234.5 784.5,234.6 C783.5,234 782.7,232.9 782.6,231.6 L781,210.3 L782.7,210.2 Z M791.3,209.5 L792.9,230.8 C793,232.1 792.4,233.3 791.5,234.1 C791.5,233.9 791.5,233.7 791.5,233.6 L789.7,209.7 L791.3,209.5 Z" id="Shape" fill="#026A9D"></path>
            <path d="M783.5,200.6 L787.6,200.3 C788,200.3 788.3,200.6 788.3,200.9 L788.8,207.9 C788.8,208.3 788.6,208.6 788.2,208.6 L784.1,208.9 C783.7,208.9 783.4,208.6 783.4,208.3 L782.9,201.3 C782.8,201 783.1,200.7 783.5,200.6" id="Path" fill="#026A9D"></path>
            <path d="M300.3,74.7 C297.4,75.3 295.6,78 296.1,80.8 C296.6,83.6 299.4,85.5 302.3,84.9 C305.2,84.3 307,81.6 306.5,78.8 C305.9,76 303.2,74.1 300.3,74.7" id="Path" fill="#147ABF"></path>
            <path d="M298.2,63.2 C292.4,64.3 287.6,68.3 285.2,73.8 C284.7,75.1 285.3,76.5 286.5,77.1 C287.8,77.6 289.2,77 289.8,75.8 C291.5,71.8 294.9,69 299.1,68.2 C303,67.4 306.9,68.5 309.9,71.2 C310.6,71.8 311.4,72 312.2,71.7 C312.7,71.6 313.1,71.3 313.4,71 C314.3,70 314.2,68.4 313.2,67.5 C309.1,63.7 303.6,62.1 298.2,63.2" id="Path" fill="#147ABF"></path>
            <path d="M296.1,52.6 C288,54.2 280,60.2 275.7,68.1 C275,69.3 275.5,70.8 276.7,71.5 C277.9,72.2 279.4,71.7 280.1,70.5 C283.7,63.9 290.4,58.8 297.1,57.5 C304.1,56.2 310.3,57.6 315.6,61.7 C316.2,62.2 317.1,62.3 317.8,62.1 C318.3,62 318.8,61.7 319.1,61.2 C320,60.1 319.8,58.5 318.7,57.7 C312.1,52.7 304.6,51 296.1,52.6" id="Path" fill="#147ABF"></path>
        </g>
    </g>
</svg>