<svg height="250" viewBox="0 0 250 250" width="250" xmlns="http://www.w3.org/2000/svg"><g fill="none" transform="translate(44 14)"><path d="m74 52.8857143-20 22.1142857 2.6478873-45.0857143 16.3380282-4.9142857z" fill="#616f7a"/><path d="m74 21s-1.8898678-1.4258555-6.1277533-1.8821293c-4.2378855-.4562737-6.3568282.2851711-6.3568282.2851711l-.5154185-6.7870722 1.5462555-6.6159696 9.7356828 1.6539924 1.7180617 7.1863118z" fill="#e0b514"/><path d="m61.2981766 122.027844c-.0573563 1.154156-.8029887 2.253353-1.0897704 2.857911s-.2867817 1.868634.0573564 2.198393c.344138.329759 2.1221844.549599 3.2693112 1.264076 1.1471267.714478 2.9825295 3.242631 4.0149436 3.51743s3.2693112.109919 3.4413802-.329759c.172069-.439679-2.2942535-2.143434-2.2942535-2.143434-3.5560929-4.231907-3.9575872-6.4303-3.9575872-6.4303s-3.3840239-1.154157-3.4413803-.934317z" fill="#f5a37e"/><path d="m69.0645392 129.1852s.7032526.51852.5860438.674076-1.1720877.155556-1.4651096 0c-2.4613841-1.088892-5.8018339-3.474084-6.5050865-4.251864-.4208058-.466831-.702863-1.019426-.8204614-1.607412-.1758131 0-1.0548788 1.244448-.8204613 2.177784.0894712.293018.2277291.572625.4102307.829632.9511544.583578 1.9502029 1.103542 2.9888235 1.55556 1.230692.674076 2.9302191 3.111119 3.9264937 3.318527.9962745.207408 4.5125374.155556 4.6297462-.25926.1172088-.414815-1.7581315-1.762967-2.9302191-2.437043z" fill="#502819"/><path d="m60 126s.8614097 2.020408 1.0601965 2.693878c.3175655 1.083609.5391711 2.189299.6626229 3.306122h.4638359s-.6626228-4.163265 1.7228194-2.938776c.7951474.367347-3.9094747-3.061224-3.9094747-3.061224z" fill="#502819"/><g fill="#f5a37e"><path d="m71.0456197 93.6648642c-3.4426332 1.8257815-6.1136417 8.4221528-6.7665549 11.0724808s-1.8993838 17.55106-2.2555183 18.493399 3.4426332.942339 3.6207004.412273c1.3058264-5.359552 7.0633337-18.78788 7.7162469-20.083595.6529132-1.295716 3.3239217-7.3620223 3.5019889-7.950984 1.0090477-3.1803934-3.7987676-2.9448087-5.816863-1.9435738z"/><path d="m89.739628 69.0046102c.0758506.7356992.0758506 1.4771888 0 2.212888-.1332498.5150402-.3325939 1.0108689-.5931162 1.4752587-.1654992.3978577-.1916138.8395512-.0741395 1.2539699.3706976.2212888.7413953-.2950518.8896743-.6638664.3104439-.5272131.5356136-1.0997239.6672558-1.6965475.2198118-.7184408.3444302-1.4623537.3706976-2.212888-.0741395-.4425777-1.260372-.3688147-1.260372-.3688147z"/><path d="m90.0456206 69c-.132441.6766089-.3141767 1.3407921-.5435014 1.986316-.203813.3678363-.4755637.4414035-.8152521.7356726-.3396884.294269-.7473144.7356725-.6793768 1.1035088.0679377.3678363.6793768.0735673.9511275-.1471345.4825873-.2577602.9017208-.6359806 1.2228781-1.1035089.3542629-.5924196.6287719-1.2364741.8152521-1.9127487.0679377-.3678363-.9511274-.6621053-.9511274-.6621053z"/><path d="m90.2294887 68c-.1862605.5418459-.4195084 1.0639984-.6967152 1.5596779-.2390758.221161-.5266395.3744335-.8360583.4456222-.3483576.1485408-.6967152.5198927-.6967152.8169742s.4877007.1485407.7663867.0742703c.452894-.1737883.8764033-.4246018 1.2540874-.7427037.3534312-.4473876.6792499-.9187575.9754013-1.4111371.0696716-.3713519-.7663867-.7427038-.7663867-.7427038z"/><path d="m86.6923077 72.645933c.1025641.1722488.4615385-.0574163.7179487-.4019139.2215644-.5175692.2932766-1.0996736.2051282-1.6650717-.1025641-.4019139-.051282-1.0909091.2564103-1.1483254.5466113.0763602 1.053369.3600475 1.4358974.8038278.2564103.5741626.6666667 1.2631579.6666667 1.722488-.071166.5293207-.1914757 1.0488811-.3589744 1.5502392-.1369237.3431535-.2068575.7150739-.2051282 1.0909091.0288353.1870822.1469735.3413966.3076923.4019139.1538462 0 .2051282-.5741627.5128205-1.0334928.2934751-.5921165.5504835-1.2059854.7692308-1.8373206-.0554036-.7915132-.1581987-1.5779701-.3076923-2.354067-.1025641-.5167464-1.6410256-2.6985646-1.6410256-2.9282296 0-.2296651-1.4871795-3.84689-1.4871795-3.84689l-2.5641026.7464115s1.4358974 2.5263158 1.4358974 2.9856459c-.0179092.5424486-.0866625 1.0812904-.2051282 1.6076555-.1538461.9186603.3076923 2.0095694.4102564 2.4688995.1025641.4593302-.1538461 1.6076555.0512821 1.8373206z"/></g><path d="m58.9353424 119.903431s.2586303 1.607257-.2586302 2.488656c-.5172606.881399-2.5216452 2.799738-3.4268512 2.59235s-1.9397271-2.281268-2.0690422-2.644197c-.7112333-2.07388.9052059-5.34024.9052059-5.34024z" fill="#8e3c26"/><path d="m74.437562 27.0070994c1.6442225-.2281033 3.5006028 5.0752979 4.1370761 10.8919314 1.0077493 10.2076217 2.7050113 13.3440418-.1591183 14.0283516-2.8641297.6843098-3.1823663-3.478575-5.1448255-12.0324479-1.5381436-6.6720208-2.2276563-12.4316286 1.1668677-12.8878351z" fill="#f5a37e"/><path d="m51.261678 23.6323686c.9102408-1.3619886 5.2338843-1.3619886 6.8836957-1.5889867 1.6498113-.2269981 6.3147952.5107457 6.3147952.5107457s4.6649838.9647419 6.144125 1.7024857c1.4791412.7377439 5.5183346 2.269981 5.9165649 3.8022182.5689005 2.3834801-8.4197269 13.4496374-5.4045545 21.2243224 1.0240209 2.5537286 6.8836957 9.3636716 6.8836957 12.1443983s-9.9557582 8.1719316-9.9557582 8.1719316l-.6257905.1134991-.6257905.1702485s-11.0366691.8512429-12.6864804-2.0429829c-1.6498114-2.8942257 1.3653611-14.4143793 1.0240208-17.7626013-.8533507-8.5124287-5.2338843-24.4022957-3.8685232-26.4452786z" fill="#f8bc96"/><path d="m78.4152938 62.7668067c1.4494264 2.1506606 1.7513902 6.2255965 1.5098192 11.4890554-.3019639 7.2443304-2.8988528 17.9410371-3.1404239 18.9597711-1.026677 4.7540919-5.9788838 4.8672845-7.0055608 1.2451193-.3019638-.9621376-2.83846-21.2802207-2.7780672-23.6006703.0603927-2.3204496.0603927-6.5085782 1.5702119-9.1686058 1.5098191-2.6600275 7.6094885-2.0940642 9.8440208 1.0753303z" fill="#f5a37e"/><path d="m60.5616438 20.4891304c.7123288-1.0869565 1.4840183-5.4891304 1.4840183-5.4891304l3.086758.4891304 3.086758.4891305s-.890411 4.4021739-.6529681 5.6521739c.237443 1.25 2.43379 3.3695652 2.43379 3.3695652l-6.5296804-1.0326087-6.4703196-1.0869565s2.7899543-1.3043478 3.5616438-2.3913044z" fill="#f8bc96"/><path d="m77.5392856 47.0989431c1.5499128-.5592559 4.5923342 1.2303628 6.6014805 5.928112 2.0091462 4.6977492 5.9126304 13.1425125 4.5923343 13.757694-1.3202961.6151814-1.4351045-.1677768-2.0091463-1.3422141-1.2054877-2.4048001-4.4775259-5.8162608-6.8310972-8.9480936-3.6738674-4.7536748-5.3385886-8.3888378-2.3535713-9.3954983z" fill="#f5a37e"/><path d="m61 20.3142857.7924528-2.6285714c.2264151-.8571429.3962264-1.7714286.509434-2.3428572l2.7735849-.3428571h.2830189l2.9433962.5142857s-.8490566 4.6285714-.6226415 5.9428572c.2264151 1.3142857 2.3207547 3.5428571 2.3207547 3.5428571s-3.8490566-1.7142857-4.5283019-2.1142857z" fill="#f5a37e"/><path d="m72.814519 12.8123038c-.8360396 4.5561576-5.6731262 7.5935959-8.1812452 7.143605-2.508119-.4499908-4.9565208-4.6686552-4.5982181-9.3373104.3583027-4.66865525 3.9413298-7.14360501 7.584074-6.52486757s6.0911461 4.1624155 5.1953893 8.71857297z" fill="#f8bc96"/><path d="m64.7580508 6.86866531c.5219988 1.33854114 1.7979961 2.15330532 4.6979898 2.44429252 2.8999937.29098721 3.3059928 3.08446437 3.3059928 4.19021577s1.4499968 8.4968264 1.4499968 8.4968264 2.4939946-10.1845522-1.3919969-15.71330911c-3.8859916-5.5287569-8.757981-2.50248996-8.8159809-2.09510788-.0579999.40738209.5219989 1.978713.7539984 2.6770823z" fill="#e7c352"/><path d="m65.6988486 5.7370084s0 1.98886337-1.8357951 2.27298671c-3.3656244.62507135-2.8148859 11.99000489-2.8148859 11.99000489s-3.610397-14.20616693 2.5701132-15.79725763c3.5492038-.90919468 2.0805678 1.53426603 2.0805678 1.53426603z" fill="#e7c352"/><path d="m59 115.603489s-.5524297 4.874618-.8286445 5.373158c-.2762148.498541-2.0025575 2.271129-2.9002558 1.994162-2.4859335-.830901-2.6240409-5.040798-1.8644501-6.204059s.8286445-1.440228 1.1739131-1.938768c.4398436-.670152.9980349-1.285835 1.657289-1.827982z" fill="#f8bc96"/><path d="m71.5512323 90.7920332c1.9973573 1.7834457 2.1148489 3.4518304-.8224413 8.3419236s-12.0428898 17.2591522-12.6890936 16.8564382c-.6462039-.402713-2.8785444-2.243689-1.7036283-3.624421 1.174916-1.380733.9399328-2.818995 1.9973573-5.63799 1.8798657-4.890093 4.3471895-11.0458577 4.9933933-12.0238763.6462039-.9780186 4.9933934-6.7885999 8.2244126-3.9120745z" fill="#f8bc96"/><path d="m54.142209 65.8949078c-.5708758 2.465997.6279634 6.2770833 2.6831162 11.0969865 2.7972914 6.6133556 8.9056623 15.6927081 9.4765381 16.5894343 2.6260286 4.0352678 7.0217722 2.5780878 6.6792467-1.1209077-.1141752-1.008817-5.0807945-20.6807475-5.9371082-22.8104722s-2.3405907-5.9968563-4.6240939-7.9584448c-2.2835031-1.9615885-7.4784728.5044085-8.2776989 4.2034039z" fill="#f8bc96"/><path d="m73.8231338 25.4527629v11.1800357s-2.6913248 7.6434937-1.6381977 11.4652406 5.2656355 8.0998218 7.7229321 13.3475936 0 22.4171123 0 22.4171123-6.5527909 2.0534759-8.600538 0-5.2071285-1.426025-6.4357767-.57041c-1.2286483.855615-4.1540014 3.7076649-4.1540014 3.7076649s-5.9092132-9.3547237-7.1963685-18.0819964c-.99462-6.9590018 1.6967048-15.7433155 1.1701412-19.2798574l-2.6913248-17.9108735s3.1008742.342246 6.4357767.456328c.9946201.057041-1.98924-9.1836007-.99462-9.1836007 2.3987895.057041 3.2178884 10.0392157 9.1856086 8.7272727 4.4465367-.9696969 4.3880296-7.6434937 4.3880296-7.6434937z" fill="#5182b0"/><path d="m57.128518 39.6953405c1.2757229-.8602151 9.3939597 1.8351254 12.6412544 1.1469534 3.2472948-.688172 3.6532066-2.8673835 4.001131-3.8422939-.579874 1.6630824-2.3774836 7.7992832-1.5076725 11.125448.8698111 3.3261649 5.2188665 8.1433692 7.6543375 13.4193549 2.4354711 5.2759856 0 22.5376344 0 22.5376344s-6.4945894 2.0645161-8.5241486 0l-.1159748-.1146954-3.6532066-10.781362s5.9727028 1.7204301 5.856728-3.3835125c-.1159748-5.1039427-5.2188665-16.7455197-6.7265391-19.7275986-1.5076725-2.9820788-10.9596196-9.5197132-9.6259093-10.3799283z" fill="#026a9d"/><path d="m57.8253178 22.0009156c.8909416 2.456604 1.6060783 4.97366 2.1399816 7.5320611.5205361 3.0707634-4.9740112 28.042443-5.8415713 33.2569469-.8675601 5.2145038-.6362108 13.2100764-.6362108 13.2100764l-3.065379-3.0128245s2.1399816-13.4418321 2.0821442-20.8580154c-.0578373-7.4161833-3.0075417-25.49313-2.4291683-27.8686262s7.7502036-2.2596183 7.7502036-2.2596183z" fill="#9aa3aa"/><path d="m71 25s1.5100758 11.4624506 1.3288667 14.3280632c-.1812091 2.8656127 1.7516878 14.6719368 1.7516878 14.6719368s3.2013606-23.4980237 2.8993455-24.9881423c-.3020152-1.4901186-5.9799-4.0118577-5.9799-4.0118577z" fill="#9aa3aa"/><path d="m52.551159 23.0070994c-1.6466124-.2281033-3.5056909 5.0752979-4.0899727 10.8919314-1.0092141 10.2076217-2.7620595 13.3440418.106233 14.0283516 2.8682926.6843098 3.2401083-3.478575 5.2054199-12.0324479 1.4872628-6.6720208 2.1777777-12.4316286-1.2216802-12.8878351z" fill="#f5a37e"/><path d="m48.0513467 44.3196334c1.3122281-.9452517 4.6783784.1181565 7.8733685 4.3717893s9.0714898 11.9338032 7.9304219 12.8790549-1.4263349.1772347-2.2821358-.8270953c-1.7686553-2.1858946-5.8194463-4.8444151-8.9003296-7.3847792-4.6783784-3.8991634-7.2457811-7.2075445-4.621325-9.0389697z" fill="#f8bc96"/><path d="m67.9995946 59.0913936c.0523033-.308651-4.968817-2.4692081-7.8978039.308651-.5230334.4938416 1.0983701 2.0988269 1.9352235 2.4692081.5550347.2650615 1.190248.1199582 1.6214034-.3703812 2.2490435-2.4074779 4.2365703-1.1728738 4.341177-2.4074779z" fill="#f8bc96"/><path d="m63 58.8903445c.7638085-.351901 1.5563858-.5737313 2.3598308-.6604804l.4826926-.1467734h.6972227c.1608976-.0733867.3217951.0733867.4826927.0733867l.3754276-.1467734c.4290602-.0733867.4290602.2935468.5899577.2935468h.5363252c.3754276.0733868 1.448078 1.6878943 1.555343 1.9814411s1.0190178 1.9080543.9117528 2.0548278c-.1072651.1467734-.6435902.2935468-1.2335479-.4403203-.5899577-.733867-1.2871804-1.6878942-1.2335479-1.4677341.2062737.6779233.3329782 1.3961824.3754276 2.1282145 0 .3669335-.2681626.4403202-.4826926.4403202-.2122786-.2732058-.409471-.5675584-.5899577-.8806405 0 0-.2681626.6604804-.3754277.6604804-.107265 0-.5899577-.8072538-.6972227-1.0274139s-.2145301.7338671-.3754276.6604804c-.1608976-.0733867-.8044878-2.2749879-1.3944455-2.0548278-.5899576.2201601-1.7162405-.2935468-1.9844031-1.4677341z" fill="#f8bc96"/><path d="m108.712893 4.90097181s2.126745-3.21264236 4.471618-1.28505694c2.344873 1.92758541 2.126746 6.07481463.981575 7.35987153-1.145171 1.285057-3.053788 7.0094015-2.672065 7.1262249.381724.1168234-.109063 1.0514102-.927042.8761752-.817979-.1752351-3.217384-1.285057-2.399405-4.0888176.527683-1.6361717.603421-3.4006819.218127-5.08181604z" fill="#8e3c26"/><path d="m105.457529 120.025664c.158129 1.047125.560502 2.041419 1.174014 2.901075.469605.828879.469605 2.249814.117401 2.664253s-2.348028.828879-3.639443 1.716963c-1.291416.888084-3.1111374 4.144393-4.2264507 4.440421s-3.6981442.414439-3.8742463-.118411c-.1761021-.532851 2.3480281-2.664253 2.3480281-2.664253 3.7568449-5.328505 4.0503479-7.69673 4.0503479-7.69673s3.991648-1.480141 4.050349-1.243318z" fill="#f5a37e"/><path d="m98.1104317 129.660055s-.7134666.660502-.5945555.825627 1.3674778.055042 1.6647555-.110084c2.6755003-1.431086 6.1833773-4.458384 6.8968443-5.394094.466625-.573715.735945-1.264157.772922-1.981504.237823 0 1.308022 1.431086 1.129656 2.531922-.07374.342749-.193585.675593-.356734.990752-.594555.605459-2.675499 1.651253-3.270055 2.036546-.594556.385292-2.972778 3.797883-4.102433 4.128133-1.1296558.330251-4.9942669.495376-5.2320891 0s1.8431222-2.146629 3.0916888-3.027298z" fill="#1a1a1a"/><path d="m108 126s-.758099 2.072727-.947624 2.781818c-.228079 1.061971-.354855 2.138309-.37905 3.218182h-.568574s.37905-4.145455-2.021598-2.781818c-.758099.436363 3.916846-3.218182 3.916846-3.218182z" fill="#1a1a1a"/><path d="m105.478508 88.8960569c2.981027 2.9002274 3.668956 10.4635655 3.496974 13.3637931-.171983 2.900227-3.668956 18.140638-3.496974 19.221115s-3.898266.227469-3.840938-.341203c.286637-5.857322-1.318531-21.3252019-1.605169-22.8606164-.2866368-1.5354146-1.0318935-8.5300807-1.0318935-9.2124871-.0573275-3.5257667 4.7581775-1.8197506 6.4780005-.1706016z" fill="#f5a37e"/><path d="m124.3125 126s1.6875 3.659584 1.6875 4.616706-.5625 3.265475-1.375 3.378078c-.8125.112602-2.875-1.632738-3.125-1.857943-1.5-1.632738-1.5-4.898213-1.5-4.898213z" fill="#313131"/><path d="m123.092797 125c.923268 1.474115 1.562316 3.032277 1.899376 4.631163.073053.473641-.365265 2.368208-1.314953 2.368208-2.629904.052627-4.748439-3.210238-4.675386-4.315402s.146106-2.368208.146106-2.368208z" fill="#f8bc96"/><path d="m115.720677 89.0481392c-2.701381.5125245-3.391096 2.3917809-2.069143 10.1935425.977095 5.9225053 4.713048 19.3050893 6.49481 25.4553823.574762 1.993151.402333 3.302936.574762 3.302936.172428 0 3.046238-.056947 3.276143-1.822309.057476-.39863-.804667-1.708415-.804667-2.733464-.057476-6.093347-.114952-21.526029-.459809-23.6900208-.344858-2.1639923-2.758858-11.5033273-7.012096-10.706067z" fill="#f8bc96"/><path d="m98.0051028 22.0464854c-1.7135855-.5797231-4.8453107 4.3479233-6.6770745 10.0292096-3.1317252 9.913265-6.2634504 11.5364897-2.8362795 13.3336313 4.3135083 2.2609201 4.3725975-2.1449755 8.2133926-10.2031265 3.0135469-6.3189818 4.9634886-11.9422959 1.2999614-13.1597144z" fill="#90cbe8"/><path d="m95.9957927 60.5109486c-1.2440757 2.2007001-1.1875268 6.2071029-.565489 11.4549262.8482335 7.1663823 3.1667383 18.5084521 3.4494828 19.5241598 1.3571735 4.627113 5.8810855 4.4578284 6.6162215.7899949.169646-1.0157077 1.753015-21.5555753 1.470271-23.8127036-.423391-3.1944919-1.501347-6.2677936-3.166738-9.0285132-1.187527-1.8621308-5.9941835-2.3135565-7.8037483 1.0721359z" fill="#f5a37e"/><path d="m116.560887 60.134982c1.753491 1.9988675 2.539539 5.9966026 3.02326 11.3078792.456486 6.4062855.53723 12.8315245.241861 19.246239-.423257 4.8543926-6.16745 5.6539396-7.67908 2.170199-.423256-.9708785-5.562797-21.0166645-5.804658-23.3010845-.241861-2.2844201-.786047-6.5105972.362791-9.3661222 1.148839-2.8555251 7.255823-2.9697461 9.855826-.0571105z" fill="#f8bc96"/><path d="m97.2394366 57c-.8366197 2.28-1.4501408 4.44-1.1712676 5.58.8366197 3.48 10.31831 6.42 10.31831 6.42h.613521v-11.22c-3.681127 0-6.135211-.78-9.7605634-.78z" fill="#28557d"/><path d="m118.889198 25.2625c-.642586-1.51875-4.147597-2.1375-5.783269-2.5875s-6.484271-.675-6.484271-.675-7.7110254.7875-9.3466974.675c-.7010023 0-1.226754 2.41875-1.5188383 3.15-1.5188383 3.88125-3.271344 8.4375.5257517 11.5875.8762529.73125 1.6356721 8.94375 1.6356721 12.76875-.0749496 2.4295095-.5889138 4.8278698-1.5188383 7.0875 3.7970952 0 6.3674372.73125 10.2229502.73125h11.449704c-1.168337-2.98125-2.453508-6.24375-2.745592-7.81875-2.219841-11.7 4.614931-22.725 3.563428-24.91875z" fill="#90cbe8"/><path d="m106 58v11h.655295s11.37831-2.1176471 12.271894-5.4705882c.297862-1.1764706-.357433-3.2941177-1.251018-5.5294118z" fill="#28557d"/><path d="m110.428571 20.1111111c-.465608-1.2804233-.465608-6.1111111-.465608-6.1111111h-6.111111s.058201 4.8306878-.407408 6.1111111c-.465608 1.2804233-2.444444 2.7936508-2.444444 2.7936508l4.481481 2.0952381 6.518519-2.4444444c-.663108-.7163555-1.195024-1.5437803-1.571429-2.4444445z" fill="#f8bc96"/><path d="m110 16.3207547c-.054878-1.245283-.054878-2.3207547-.054878-2.3207547h-5.762195s.054878 4.6981132-.384147 5.9433962c-.439024 1.245283-2.79878 3.0566038-2.79878 3.0566038z" fill="#f5a37e"/><path d="m112.532271 11.603455c-1.421607 4.5015019-6.574934 7.0086675-8.94428 6.267914s-4.3240565-5.2422553-3.317084-9.91470026c1.006972-4.67244495 4.738691-6.72376224 8.233476-5.69810359 3.494786 1.02565864 5.449496 4.84338805 4.027888 9.34488985z" fill="#f8bc96"/><path d="m104.435375 4.68191537c.326532 1.43973274 1.469391 2.39955456 4.081643 3.05943207 2.612251.6598775 2.775516 3.59933186 2.612251 4.73912026-.163266 1.1397884-.816329 2.5195323-.816329 2.5195323s4.680284-3.7193096 1.687079-9.89816258c-2.993204-6.17885301-7.891175-3.65932072-8.000019-3.23939867.087644.94951775.233097 1.89146693.435375 2.81947662z" fill="#8e3c26"/><path d="m105.608053 3.76957139s-.236128 1.86160293-2.007092 1.97110898c-1.279086.19203642-2.503595.62026893-3.600961 1.25931963 0 0 .295161-4.43499521 3.778057-4.92777246 3.482896-.49277724 1.829996 1.69734385 1.829996 1.69734385z" fill="#8e3c26"/><path d="m110.183973 38.4392157c-.952151-.454902-3.080487-.227451-8.121283-.5117647-5.0407954-.2843137-5.7129016-2.8431373-6.4970254-3.9803922s0-4.7196078 0-4.9470588c-.8401326 3.0137255-1.064168 6.0843137 1.6242565 8.4156863.8401326.7392157 1.5682476 9.0411764 1.5682476 12.9078431-.07186 2.4559748-.564638 4.880461-1.4562299 7.1647059 2.0433976.0433621 4.0822342.2142729 6.1049642.5117647-.316708-1.4026804-.522727-2.8287698-.616098-4.2647059 0-5.5156863 10.865716-1.6490196 12.041902-4.0372549 1.176185-2.3882353-4.256672-8.1882353-3.640575-8.9843137s0-1.7627451-1.008159-2.2745098z" fill="#bacfed"/><path d="m105.44898 23 .55102 2-3-1.5z" fill="#bacfed"/><path d="m105 25 .769231-2 2.230769 1z" fill="#bacfed"/><path d="m96.999282 57s-1.6376961 2.7255521-1.9765297 7.6656151c-.3388337 4.9400631 3.2189198 27.7665616 3.2189198 27.7665616l9.7697039.5678233 12.988624-1.022082s-.338834-20.8391167-.903556-27.0851735c-.564723-6.2460568-2.371836-7.7223975-2.371836-7.7223975l-11.746234.4542587z" fill="#de5d3f"/><path d="m107 22.4736842 1.777778 2.5263158 5.222222-2.6315789-1.888889-2.3684211z" fill="#e1f2fd"/><path d="m100 22.2619048 2.769231-2.2619048 3.230769 2.3809524-2.373626 2.6190476z" fill="#e1f2fd"/><path d="m106.033711 78.1230284c-.718017.7949527-.359009 6.9842271-1.49587 8.2334385-1.136861 1.2492113-2.99174 1.0788643-4.008932-1.0788644-1.0171916-2.1577287-3.7097578-17.659306-1.4958701-23.0536277 1.4958701-3.8044164 4.6072801-4.7129338 4.6072801-4.7129338l-.359009-.1135647-6.1629848-.3974763s-1.7352094 2.7255521-2.0942182 7.6656151c-.3590088 4.9400631 3.4105839 27.7665616 3.4105839 27.7665616l10.3514211.5678233 2.213888-.1135647s-2.453227-.511041-2.812236-2.6687697c-.777852-4.2586751-1.49587-12.7760252-2.154053-12.0946372z" fill="#d52e1e"/><path d="m117.053456 24.0322112c1.687831.2285134 2.362963 5.8270896 1.687831 11.5970509-1.205593 9.9974576-.192895 13.4822857-3.23099 13.368029-3.038095-.1142566-2.411187-4.2274963-2.507634-12.9681307-.048224-6.7982712.530461-12.5111041 4.050793-11.9969492z" fill="#90cbe8"/><path d="m95.6176649 28.3891916 15.0878241.0009669.00129 20.0483875-15.0878241-.0009668z" fill="#5182b0" transform="matrix(.99987663 -.01570732 .01570732 .99987663 -.590652 1.625141)"/><path d="m97.5074627 29.0569801s1.0149254 6.8945869 3.7014923 10.08547c2.686567 3.1908832 9.671642 4.1025641 9.671642 4.1025641l.119403 5.5270656-15.7014925.2279202-.2985075-20z" fill="#026a9d"/><g fill="#f8bc96"><path d="m92.5717605 43.7840529c1.0957536-1.2247654.1730137-3.8413096-3.7486305-6.9588941-3.9216443-3.1175845-10.7845217-8.7960421-11.7072615-7.6826191-.9227398 1.1134231 3.863973 6.4578537 7.3242473 11.0228883 3.4602744 4.5650345 5.8824664 6.1794979 8.1316447 3.6186249z"/><path d="m117.965494 47.0802921c.390208-1.5288665-2.56422-4.1902267-7.079478-5.4359698-4.515257-1.245743-12.5981259-3.6239798-12.8768455-2.2083626-.2787196 1.4156171 5.8531115 4.2468513 10.5913455 6.9648361 4.738233 2.7179849 8.473076 3.8504786 9.364978.6794963z"/><path d="m94.018047 39.4433929c.023688-.1671838.1063809-.3101996.2233185-.3862247.1169375-.0760251.2545447-.0762342.3716185-.0005646l2.0227859.6962206c.248755.1091921.3999265.4367983.3569622.7735785-.0839765.3234485-.335929.5200122-.594937.4641471l-2.0227859-.7735785c-.1284061-.0362345-.2395793-.1398802-.3071816-.2863821-.0676022-.1465019-.0856185-.3228249-.0497806-.4871963z"/><path d="m94.0181878 38.4735973c.0846318-.3234485.3385504-.5200122.5995796-.4641471l2.0385709.7735785c.1295796.0308008.2404272.1383239.2993522.2903742s.059087.3309767.0004376.4832042c-.0238729.1671838-.1072111.3101996-.2250612.3862247-.11785.0760251-.2565311.0762342-.3745185.0005646l-1.9786128-.6962206c-.1294081-.0362346-.2414489-.1398802-.3095787-.2863821-.0681297-.146502-.0862866-.322825-.0501691-.4871964z"/><path d="m95.0020201 37.4958283c.0279158-.1697755.1077665-.3167661.2206345-.4061482.1128679-.0893821.2487107-.1132028.3753457-.0658188l2.0263329.7079505c.1286313.0368451.2399994.1422369.3077202.2912071s.0857687.3282639.049868.4954047c-.0841237.3288979-.3365181.5287733-.5959803.471967l-2.0263329-.7079506c-.2346861-.133835-.3785574-.4503187-.3575881-.7866117z"/><path d="m95.018047 36.4923201c.0278669-.1685743.1075778-.3145248.2202482-.4032745s.2482754-.1124019.3746888-.0653532l2.0227859.7029415c.248755.1102461.3999265.4410148.3569622.781046-.0278669.1685743-.1075778.3145248-.2202482.4032745s-.2482755.1124019-.3746888.0653532l-2.0227859-.7029415c-.1284061-.0365843-.2395793-.1412305-.3071816-.2891466-.0676022-.1479161-.0856185-.3259413-.0497806-.4918994z"/><path d="m101 39.5c-.847987-.7333291-1.7306816-1.4126542-2.6440678-2.0348837-.5084746-.2906977-2.7966102-.4651163-2.7966102-.4651163s.4576272 1.0465116.2542373 1.5697674c-.2033898.5232559-.8135593 1.8604652-.8135593 1.8604652.8115019.438843 1.6432332.8270106 2.4915254 1.1627907.6959912.228186 1.4124991.3647299 2.1355932.4069767z"/><path d="m80 30.7926891s-1.040625-2.8565199-2.8328126-2.791599c-1.7921875.0649209-3.2953126 1.8827063-3.7000001 2.1423899-1.7921876 1.2984182-4.3359376.4544464-5.5500002.9738137-1.2140625.5193672-1.040625 1.4282599-.5203125 1.4282599 2.6593751-.2596836 4.3359376.5842882 5.4921877.3246046 1.15625-.2596836 5.6078127.1298418 5.6078127.1298418z"/><path d="m78 29.8268693s-1.3789445-1.6713281-2.4396711-1.816661-2.0684168 1.3079959-2.9700344 1.3806624c-.9016176.0726664-.5303633.6539979-.4242907.7993308.1060727.1453329 1.2198356.0726664 1.6971626.1453329.4773269.0726664 2.6518164 1.7439945 4.1368336-.5086651z"/></g><path d="m39.2895654 43.6991826c3.2232202 1.7635957 6.5680715-4.6649949 8.0276429-7.9077353s4.6827917-13.0847418 4.6827917-13.0847418l-3.6489286-1.7067055c-4.172552 4.9957575-7.7990782 10.3703203-10.8251549 16.0430313-.4865238.9102429-1.4595714 4.8356655 1.7636489 6.6561513z" fill="#6d2f0f"/><path d="m7.11142972 135.547079s2.19853645 3.922949 1.85139912 4.751742c-.9631307 1.242767-2.56345001 1.879562-4.16564802 1.657584-1.73568667-.221011-4.16564801-2.320618-4.62849779-2.431124-.46284978-.110505.17356867-5.525281.17356867-5.525281z" fill="#1a1a1a"/><path d="m22.58517 24.9991119c-2.5666252 1.911332-1.7110835 4.5534673.3992528 6.9145244 2.1103362 2.3610571 15.1716064 12.0863637 16.1412204 12.0863637.9696139 0 4.3347446-3.2605074 3.8214196-4.6096829s-10.3235367-11.3555603-12.3768368-12.985814c-2.0533001-1.6302538-5.0191781-3.654017-7.985056-1.4053912z" fill="#6d2f0f"/><path d="m25.6219239 24.0201467c1.2077584-.1179006 4.1983982.1768511 7.7066488 3.7728217 2.3004922 2.3580136 6.6714273 7.0740406 6.6714273 7.0740406-.6304062 1.7037665-1.633871 3.2365156-2.9331275 4.4802258-1.3856808 1.3244631-3.094475 2.2409566-4.9460582 2.6527652 0 0-9.3169933-9.5499548-10.0646533-12.2616704-.2300492-.7663544.1150246-5.4823815 3.5657629-5.7181829z" fill="#6b9c53"/><path d="m16.1174785 11s-.4067562 9.2483349-.9297285 9.7050428c-1.7432409 1.3701237-7.90269205 2.5118935-9.06485264 4.9666984s6.27566724 16.0989534 7.26350374 20.4947669-1.1040526 11.0751665-1.8013489 15.356803c-.6972964 4.2816366 12.9580906 9.4766889 13.4810628 9.4766889.5229723 0 4.9391826-4.0532826 5.752695-5.4234063s.058108-12.3882017.058108-15.1855376c0-2.7973358.6972964-12.5594671.8135124-13.1874405.521685-2.8481509.3826484-5.7752328-.4067562-8.5632731-.1743241-.9134158-.116216-2.3977164-.5810803-2.9686013-.4648642-.5708849-6.0432351-2.6831589-6.1013431-3.2540438-.058108-.5708848-.7554044-8.6203615-.7554044-8.6203615z" fill="#6d2f0f"/><path d="m15.4635416 21 7.9751902 4.8244959 1.1877942-3.1217326s5.2602318 1.6460044 5.9389714 2.7811799 1.0181094 4.0298731 1.2443559 4.9947723c.2711999 2.946148.2522544 5.9119518-.0565616 8.8543689-.2262465 2.1568334-.1696849 4.9947722-.5090547 8.6840926s.0565616 10.9544436.0565616 10.9544436-2.9977665.1135176-7.6358203-.1135175-10.7467101-1.1351755-11.0295183-1.3054519c-.2828081-.1702763.4524931-9.1949216.2262466-10.1598207-.2262466-.9648992-6.73083425-16.914115-6.84395752-18.9574309-.16742997-1.8241243.86255189-3.546744 2.54527345-4.2569082 1.58372567-.7946228 6.90051907-3.1784914 6.90051907-3.1784914z" fill="#3a8835"/><path d="m9.39128662 24s-5.28636283 2.8708609-.05746047 6.8675497c2.29841865 1.7450331 13.15844655 4.3907284 15.22702335 5.0099337 7.2974791 2.1953643-4.0222326 18.1258279-4.8841396 19.3079471-.5417709.8445945-.8396413 1.8172943-.8619069 2.8145695l-7.0101768-.7880795c-2.24095819.4503312 1.1492093-9.8509933.2873023-12.0463576-.861907-2.1953642-6.09080935-14.9172185-6.09080935-16.5496689-.04610582-2.1067943 1.33644557-3.9892119 3.39016747-4.615894z" fill="#6b9c53"/><path d="m25 17.7857143-7.8367347-2.7857143-.1632653 4.5535714 2.3945578 1.4464286z" fill="#4f2111"/><path d="m27.056594 1.87747523c-2.2378615-1.83162772-8.5392082-3.42691639-11.4248716.82718672-2.8856635 4.25410311-1.4133862 8.27186715.3533465 10.75342725 1.2523559 1.8499385 3.0717819 3.239739 5.182416 3.9586793.5300198.2363391 5.1235249.8271867 6.0657824.4726782.9422574-.3545086.9422574-4.8449508 1.1189307-4.8449508s.647802-.2954238.647802-.6499324-.647802-3.84050978-.5300198-4.19501837 1.0600396-4.19501834-1.4133862-6.3220699z" fill="#6d2f0f"/><path d="m29 4.12832548s-3.7407285-1.71949954-8.0946912 2.16324136c-.9811747.83201591 1.0424981 4.21554726.7972044 4.54835366-.2452937.3328063-3.7407285-2.3851123-3.5567583-1.99683821 1.4717621 3.88274091.1226469 6.15691771-.2452936 6.15691771-.3679406 0-5.2124906-5.3249018-3.5567583-9.92872315 1.6557323-4.60382136 6.9908697-5.21396635 8.2786615-5.04756317s5.2124905.33280636 6.3776355 4.1046118z" fill="#36180e"/><path d="m19.5025332 8.51842436c.4984868 1.38829498.8100411 3.19911454 0 3.44055714s-1.744704-.6036065-2.2431908-1.99190151c-.4984869-1.38829497-.2492435-2.65586865.4984868-2.89731125.7477303-.24144261 1.2462171.1207213 1.744704 1.44865562z" fill="#6d2f0f"/><path d="m19 136h6v1h-6z" fill="#1a1a1a"/><path d="m20.1620158 130.043958c-.6361711 1.040822-1.0282419 2.201429-1.1490726 3.401481-.1094355.941949.4924597 2.930508 1.1490726 2.930508 2.0477666-.023134 4.094925.081751 6.1283872.313983 1.9698388.261652 2.6811694 1.360592 7.660484 1.308262 1.4773791 0 4.049113-.052331 4.049113-.627966 0-2.511863-4.8151614-1.622245-6.2925404-2.930507-3.8849598-3.401482-6.4566937-4.23877-6.4566937-4.23877s-4.9793146-.313983-5.0887501-.156991z" fill="#1a1a1a"/><path d="m23.29499 57.7349121s-6.9885562 6.8968679-7.2749724 9.8930482 2.5777461 12.6631016 3.6661278 20.2383499c1.0883817 7.5752482 1.6612142 9.1016042 1.4320812 10.9106188-.229133 1.809014-2.3486131 9.045073-2.2913299 13.850267.1145665 5.653171-.1718497 17.185638-.1718497 17.185638s1.4893644 1.187166 5.4419085 1.187166c2.5204628-.056532 4.6972262-1.809015 4.6972262-1.809015s1.603931-28.322383 1.8903472-31.2620316c.229133-1.9220779 1.8330639-15.2070283 2.2913299-26.0611154.1718497-3.4484339-.6301157-13.4545454-.6301157-14.867838z" fill="#026a9d"/><path d="m23.5945946 23.7333333.4054054 2.2666667-5-3z" fill="#bacfed"/><path d="m24 26 .8-3 1.2 1z" fill="#bacfed"/><path d="m11.3272311 57s-2.80320364 6.9214131-3.89016016 11.5356885c-1.08695652 4.6142755-2.45995424 28.5508292-2.8604119 30.8002884-.40045767 2.2494591-1.77345538 9.1131941-2.8604119 15.8615721-1.08695652 6.748377-1.71624714 20.475847-1.71624714 20.475847l8.63844394 1.326604 5.94965676-33.107426c.8009153-4.4989186 9.382151-36.337419 9.382151-36.337419l1.0297483-10.2667628z" fill="#5182b0"/><path d="m11.6878788 76.5339168c-.7484849 3.0539752-2.87878789 23.8555802-3.05151516 25.0080232-.17272728 1.152444-5.52727273 33.017506-5.75757576 34.45806l-2.87878788-.403355s.63333333-13.656455 1.72727273-20.455872c1.09393939-6.799416 2.47575757-13.598833 2.87878788-15.8460976.4030303-2.2472648 1.72727272-26.1604668 2.87878787-30.7702407 1.15151516-4.6097739 3.91515152-11.5244347 3.91515152-11.5244347l7.6.2304887s-6.6212121 16.2494529-7.3121212 19.3034281z" fill="#026a9d"/><path d="m11.4972376 56.2727273 13.5911602.3409091c.718232 0 5.801105-.6136364 5.801105-.6136364l.1104972 2.5227273s-4.9171271.4772727-7.2375691.4772727c-2.3204419 0-12.7624309-.6818182-12.7624309-.6818182z" fill="#3b1b1d"/><rect fill="#732d1d" height="3" rx=".6" width="4" x="24" y="57"/><path d="m15 21.6935484 1.3935484-1.6935484 6.6064516 3.7741935-1.0322581 2.2258065z" fill="#e1f2fd"/><path d="m25 23.7419355 1.7714286 2.2580645.2285714-2.3870968-1.4285714-1.6129032z" fill="#e1f2fd"/><path d="m8.26570615 26.0954029c-3.24054613.6165634-3.71189829 3.2509708-2.94595103 6.1656343.76594727 2.9146634 9.01461018 19.2816199 9.95731448 19.6739785.9427043.3923585 5.4794689-1.0649732 5.715145-2.4102025.235676-1.3452293-4.9491978-16.5911614-6.0686591-18.8332102-1.1194614-2.2420489-2.887032-5.2688148-6.65784935-4.5962001z" fill="#6d2f0f"/><path d="m11.1306473 25.4351369c1.1658301.4563136 3.6723646 1.9963721 4.2552796 4.2209011.816081 3.1941954 3.6140731 11.3508015 3.6140731 11.3508015-1.3325582 1.1944087-2.9281874 2.072668-4.6633201 2.5667642-1.8412553.5268265-3.7923928.5661919-5.65427562.1140784 0 0-3.90553058-12.3775072-3.67236458-15.0583498.23316601-2.6808426 2.97286657-4.5060971 6.1206076-3.1941954z" fill="#3a8835"/><path d="m15.9148984 45.8306241c-2.9454562 1.9791391 1.9440012 7.4076349 4.4770936 9.9522423 2.5330924 2.5446075 10.6036426 9.2171336 10.6036426 9.2171336l3.0043654-2.4880606c-3.154254-5.5355614-6.8634519-10.7626149-11.0749156-15.6069255-.6480004-.7351088-4.0647297-3.1666226-7.010186-1.0743898z" fill="#6d2f0f"/><path d="m47 19.6912795s.6377764-3.2526406 1.1161087-3.8695207 2.7636977-5.3836808 3.0825859-4.7668007-1.2755528 4.7107207-1.1161087 4.7668007c.1594441.0560801 2.1790693.9533602 2.8168457 1.6263203s-1.9664772 4.9911208-1.9664772 4.9911208l-3.0294378.5608001z" fill="#6d2f0f"/><path d="m42.2320896 62.4308641 1.0556135-.3929442c.225325-.0767102.5104703-.0335895.6496084.0982361.1268159.1362977.0555295.3087804-.1624021.3929442l-.9744125.3929442c-.103718.0577953-.243747.0855715-.3839039.0761515s-.2666907-.0551121-.3469055-.1252695c-.1365826-.1511571-.0671615-.3401229.1624021-.4420623z" fill="#91a5a3"/><path d="m32.017199 69.9348719c-.169184-.2546157.9587095-1.2221553 1.2406829-1.4258478l8.7975696-5.3978523c.1300221-.0936711.2992073-.1307346.4623107-.1012789.1631034.0294558.3034875.1224262.3836095.2540483.180987.2541457.106132.5921076-.169184.763847l-8.7975697 5.3978523c-.2819733.2036926-1.6918403.763847-1.917419.5092314z" fill="#4c5c61"/><path d="m40.6983088 63.1552034 1.3731415-.0026653-.0012327.6358981-1.3731415.0026653z" fill="#91a5a3" transform="matrix(.58495767 .81106382 -.81106382 .58495767 68.655917 -7.221787)"/><path d="m38.1055096 65.8847666c-.0746093-.0192056-.1199713-.0970515-.101319-.1738738.0186523-.0768222.0942557-.1235298.168865-.1043242l3.4448465-2.5733316c.1141982-.0632778.2559528-.034086.33773.0695495.067546.139099.067546.278198-.067546.3477475l-3.4448465 2.5037821c-.135092.0695495-.270184.0695495-.33773-.0695495z" fill="#cadbd9"/><path d="m33.6127651 71.8572872c.3520793-.2277985.4883634-.7509119.307066-1.1786436l-1.5967432-3.2412699c-.0891775-.2063351-.2479242-.3568064-.4358982-.4131752s-.3870775-.0132079-.5467129.1185143c-.329648.252451-.4374772.769816-.2456528 1.1786436l1.5353299 3.2412699c.0891776.2063351.2479242.3568064.4358983.4131752.187974.0563688.3870774.0132079.5467129-.1185143z" fill="#4f2111"/><path d="m34.6000637 70.9069551h.0611147c.3280455-.2548372.4353504-.7770925.2444586-1.1897845l-1.5278663-3.2719072c-.1012156-.212731-.2700689-.3652389-.4667179-.4215385-.196649-.0562997-.4036758-.0114045-.5722312.1240924-.3280455.2548371-.4353504.7770924-.2444586 1.1897844l1.5278663 3.2719073c.2259233.3702264.6353027.494755.9778344.2974461z" fill="#4f2111"/><path d="m36.6760263 70.900315c.307161-.2732064.410477-.7682639.2467783-1.1824834l-1.5423645-3.2518295c-.1907811-.4236955-.6288883-.5877011-.9871133-.3695261-.3620702.2569818-.4967455.8055049-.3084729 1.2563887l1.5423645 3.2518294c.2491609.3796901.6844566.5023841 1.0488079.2956209z" fill="#4f2111"/><path d="m37.6127651 69.8564554c.3520793-.2291261.4883634-.7552882.307066-1.1855127l-1.5967432-3.2601601c-.2104631-.3977178-.6417798-.5278128-.9826111-.2963782-.329648.2539222-.4374772.7743025-.2456528 1.1855128l1.5353299 3.26016c.0891776.2075377.2479242.358886.4358983.4155833.187974.0566973.3870774.0132849.5467129-.1192051z" fill="#4f2111"/><path d="m31.122449 62s3.7006803 2.8735632 4.2448979 3.6206897c.5442177.7471264 1.6326531 4.1954023 1.6326531 4.1954023s-1.5238095-.3448276-2.1768707.1724137l-2.122449 2.0114943s-2.122449-2.2413793-2.7210885-3.6206897c-.4192414-.8797921-.7476607-1.8046512-.9795918-2.7586206z" fill="#6d2f0f"/><path d="m-2 102h68v5h-68z" fill="#7a858e" transform="matrix(0 -1 1 0 -72.5 136.5)"/><path d="m120 102h68v5h-68z" fill="#7a858e" transform="matrix(0 -1 1 0 49.5 258.5)"/><path d="m30 73h126v9h-126z" fill="#7a858e"/><path d="m157 78.7857143-127 1.2142857v-4h127z" fill="#b9b9bd"/><path d="m24 71h138v6h-138z" fill="#9aa3aa"/><path d="m148.883991 26.2972464c1.940555-.9808155 5.057205.4038652 6.586128 5.0771626s5.174815 17.0200337 5.645253 19.0393597c.470438 2.0193261 2.410994 6.2887583-1.587727 8.1349992-3.998721 1.846241-5.704058-2.3654962-7.115371-5.5387228-6.35091-14.1352823-8.820708-24.0588274-3.528283-26.7127987z" fill="#f8bc96"/><path d="m113.719004 51.310516c-.714417-1.818664-2.381389-3.0862177-8.156258-1.7635529-5.7748692 1.3226647-17.562746 5.3457699-17.562746 5.3457699l.3572084 2.9759956s12.1450856.3857772 15.3004256-.1653331c3.155341-.5511103 12.026016-1.5982199 10.06137-6.3928795z" fill="#f8bc96"/><path d="m161.719004 54.2925349c-.714417-1.8235526-2.440924-3.0392542-8.156258-1.7682934-5.715334 1.2709609-17.562746 5.3601392-17.562746 5.3601392l.357208 2.983995s12.145086.3868142 15.300426-.1657775c3.155341-.5525916 12.026016-1.6025158 10.06137-6.4100633z" fill="#f8bc96"/><path d="m147.469676 142.924206s3.185635-.970994 4.808506-.922444c1.622871.048549 2.584573.776795 2.704785 1.602139.120213.825345-.420744.679696-.841488 1.068093-.420745.388398-5.289357 3.15573-6.371271 3.252829s-3.786699.145649-4.7484-.145649c-.961702-.291298-1.021808-3.155729-1.021808-3.155729z" fill="#1a1a1a"/><path d="m126.374076 48.504065c-2.13209-6.4308943-7.606375-17.5284552-4.379428-19.406504 4.148932-2.5040651 16.249982-4.097561 16.249982-4.097561v.2276423s10.314706 1.3089431 14.521262 3.8130081c3.169322 1.9349594-.518617 13.203252-2.650707 19.6341463-.518616 1.5365854-.460992 8.4796748-.28812 14.6260163.057624 1.5365854 1.325353 8.4796748 1.094857 11.3821138-.057624.8536586-9.911337 6.2032521-12.677292 6.3170732v-.1707317c-2.765954-.1707317-12.619667-5.4634146-12.677291-6.3170732-.230496-2.902439 1.037233-9.8455284 1.094857-11.3821138.172872-6.1463415.230496-13.0894309-.28812-14.6260163z" fill="#f8bc96"/><path d="m128.733719 27.9292434c-1.421658-1.6200425-4.719902-1.3307492-7.676949 2.545781s-10.349665 14.291089-11.486991 16.0847074c-1.137325 1.7936185-4.321838 5.1494207-1.307924 8.2159297 3.013913 3.066509 5.97096-.2892933 8.359344-2.8350743 10.520264-11.22458 16.036294-19.729803 12.11252-24.0113438z" fill="#f8bc96"/><path d="m133.55814 22.5698925c.282392-1.3010753.960132-7.5698925.960132-7.5698925h4.009967v.1774194h3.953489s.67774 6.3279569.960132 7.5698924 3.55814 3.2526882 3.55814 3.2526882h-8.471761v-.2365591h-8.528239s3.275748-1.8924732 3.55814-3.1935484z" fill="#f5a37e"/><g fill="#f8bc96"><path d="m144.872839 67c5.230656 0 7.29859 3.4303106 7.116125 14.0071016-.182465 10.5767909-1.763826 21.9539874-2.493685 23.6119714-.729859 1.657983-8.210913 1.715155-8.940772.743234-.729859-.971922-2.554507-22.8687375-2.554507-26.2990481s1.15561-12.0060871 6.872839-12.0632589z"/><path d="m143.249348 102.115656 4.433106.000841c1.104413.00011 1.99969.895387 1.9998 1.9998l.00155 7.501129c.00011 1.10457-.89523 2.00009-1.9998 2.0002-.000133 0-.000266 0-.000399 0l-4.433107-.00124c-1.104413-.000111-1.99969-.895387-1.9998-1.9998l-.00155-7.501129c-.00011-1.10457.895231-2.00009 1.9998-2.0002h.0004z" transform="matrix(-.99970149 .02443218 -.02443218 -.99970149 293.524941 212.14662)"/><path d="m145.338628 107c1.375653 0 4.814787.520408 4.656058 10.465986-.15873 9.945579-4.074051 23.534014-4.074051 23.534014h-3.280404s-1.640202-18.387755-1.640202-21.914966c0-8.037415-.052909-12.085034 4.338599-12.085034z"/><path d="m132.363754 67.063577c-5.269948-.5723783-7.659808 2.6329399-8.701542 13.1646994-1.041734 10.5317596-.674063 22.0937996-.122557 23.8109346s7.9662 2.461227 8.824099 1.602659c.857898-.858567 5.14739-22.4944646 5.515061-25.928734s.245114-12.0771808-5.515061-12.649559z"/><path d="m125.736515 101.827254 4.432555-.00231c1.104569-.000576 2.000466.894388 2.001042 1.998957v.002089l-.003926 7.501881c-.000577 1.103754-.895203 1.998378-1.998957 1.998953l-4.432554.00231c-1.10457.000576-2.000467-.894388-2.001042-1.998957-.000001-.000696-.000001-.001393 0-.002089l.003925-7.501881c.000577-1.103753.895203-1.998378 1.998957-1.998953z" transform="matrix(.99167116 .1287956 -.1287956 .99167116 14.921139 -15.583646)"/><path d="m127.101713 106.033992c-1.456743-.172709-5.098601-.05757-5.93903 9.786816-.840428 9.844385 1.848944 23.833775 1.848944 23.833775l3.473772.345417s3.585829-18.019255 3.97803-21.530995c.840428-7.944592 1.288657-11.974457-3.361716-12.435013z"/></g><path d="m150.896094 65s1.790188 8.7369197 2.078928 13.5077377c.288741 4.7708179-2.02118 25.5210023-2.02118 27.8201913 0 2.29919.115496 9.311717 0 16.209285-.115497 6.897569-1.905685 20.462786-1.905685 20.462786l-8.893196-.229919v-33.740604c0-4.540899-1.154961-28.6823878-1.154961-28.6823878v-14.9447311z" fill="#026a9d"/><path d="m126.314839 65s-2.679037 8.4061584-3.420047 13.0953079c-.74101 4.6891496-.684009 25.5043991-.912013 27.7346041-.228003 2.230205-1.083015 9.206745-1.653022 16.01173-.570008 6.804986-.228004 20.472141-.228004 20.472141l8.721121.686217s3.021041-28.821114 3.477047-33.33871c.456007-4.517595 5.700079-28.4208208 5.700079-28.4208208v-15.6114369z" fill="#026a9d"/><path d="m146.941729 143.156053c.077695 1.229773.077695 2.463473 0 3.693247-.100691.468158-1.258637 1.040351-3.272457 1.144386-1.138538.046732-2.273052-.166394-3.322803-.624211-.906218-.41614.251728-4.369475.251728-4.369475z" fill="#1a1a1a"/><path d="m124.525306 141.924206s-3.188558-.970994-4.812918-.922444c-1.62436.048549-2.647105.776795-2.707266 1.602139-.060162.825345.42113.679696.84226 1.068093.421131.388398 5.29421 3.15573 6.377117 3.252829 1.082906.097099 3.730011.145649 4.752756-.145649s1.022745-3.155729 1.022745-3.155729z" fill="#1a1a1a"/><path d="m127.377709 82.7743363c-.513947 3.1637168-1.084998 24.1017697-1.199208 25.2522127-.11421 1.150442-3.026572 33.477876-3.197887 34.973451l-2.855257-.230088s-.399736-13.690266.228421-20.592921c.628156-6.902655 1.427628-13.80531 1.656048-16.106195.228421-2.300884.114211-23.1814155.913683-27.8982296.799471-4.7168142 3.426307-13.1725664 3.426307-13.1725664l11.649447.6327434c.11421 16.9690265-13.077075 12.4247787-13.476811 13.4026548s3.026572 2.5884956 2.855257 3.7389381z" fill="#5182b0"/><path d="m146.995599 84.2846765c-.69956 3.8501851-1.721994 22.8180095-1.614369 23.3275925s.053812 35.27449.053812 35.27449l-.161437.113241-4.466421-.113241v-33.236157c0-4.473009-.807184-21.9687033-.807184-21.9687033s1.237683-3.3972222 3.228738-3.2273611 3.874486-.9625463 3.766861-.1698611z" fill="#5182b0"/><path d="m130.249375 11.9210824c.060632.5049323-.303163 1.0659683-.24253 1.795315.060632.7293467.424428.6732431.48506.9537611.24253 2.4685582.848856 5.2176343 2.36467 5.1615307 2.728466-.1122072 4.365546.1683108 6.184523.1683108 2.728466 0 6.305788-2.9173869 6.912113-8.0789176.606326-5.16153076-4.789973-8.97657521-9.822477-8.92047161-5.032503.05610359-6.123889 3.47842287-5.941992 8.07891761 0 .280518.060633.561036.060633.841554z" fill="#f5a37e"/><path d="m139.281216 1.09029192c-3.934936-.68467568-10.135441 2.68164641-7.750631 4.79272975.655822.57056306.834683 6.44736263.834683 6.44736263s.834684-.3993941 1.132785-.0570563.596202 2.3393086.953924 3.2522095c.357721.9129009 2.68291 4.4503919 3.338733 4.4503919s4.94848.1711689 5.544682-.3993942c1.224157-1.7340955 2.20627-3.6138502 2.921392-5.591518.596202-1.7687455 3.219493-11.12597978-6.975568-12.89472528z" fill="#8e3c26"/><path d="m133.01468 9.35058723c0-.18597651 1.247967-.92988256 1.839109.55792953.591142 1.48781204-.788189 4.09148324-.985237 4.09148324-.197047 0-.985236-3.5335537-.853872-4.64941277z" fill="#f5a37e"/><path d="m121.092647 28.3116531c.567129-.9322493 3.459485-1.6897019 6.12499-2.5636856 1.470369-.4373933 2.895103-1.02289 4.253465-1.7479675h13.270811c1.542472.6626712 3.163336 1.1132657 4.820594 1.3401084 2.94907.3495935 3.74305 1.7479675 4.196753 2.7384824s.680554 9.905149-3.289347 21.5582656c-.510416 1.5731707.850693 12.8184282-.453703 16.1978319l-11.739564 1.1653117-11.739564-1.1070461c-1.077544-3.8455284 0-14.7411924-.510415-16.3726287-.510416-1.6314363-5.784713-19.6937669-4.93402-21.2086721z" fill="#313131"/><path d="m130 26h16l-2.245614-3h-11.508772z" fill="#1a1a1a"/><path d="m123.038835 28s-2.038835.295239-4.776699 5.2552542c-1.864078 3.4247723-9.262136 13.6400417-9.262136 13.6400417 1.08145 2.0004224 2.670123 3.6719406 4.601942 4.8419195 2.737864 1.5352428 3.553398 1.2400038 3.553398 1.2400038l9.84466-10.8057473z" fill="#313131"/><path d="m152.969697 27s3.151515 1.7531029 4.727273 7.5779286c.969697 3.7324127 4.30303 15.3820642 4.30303 15.3820642-1.751672 1.4426164-3.886806 2.4192342-6.181818 2.8275853-3.212121.5089653-3.939394-.0565517-3.939394-.0565517l-5.878788-13.0068925z" fill="#313131"/><path d="m90.2905057 54.8816198c-.3296304-.44491-.6824045-.8721784-1.0568628-1.2800371-.166873-.1669614-1.8356037-1.1130757-2.1693498-1.6139598s-.3337461-.8904606-.4449949-.9461144c-.2772726-.098213-.5863749-.0186019-.7817879.201354-.195413.219956-.2381937.5364227-.1082017.8004142.3337461.9461143 1.1681114 1.7252674 1.1124871 2.0591901-.0556244.3339227-2.2249742.5008841-2.6699691.3339227-.4449948-.1669614-3.2818369-1.558306-3.3930856-1.6139598s-.6118679-.1113076-.7231166 0c-.0409198.3672184.037073.7378802.2224974 1.0574219.1112487.1669614-.2781218.3339228-.2781218.5008841l.2224974.779153c.0162147.3442161.0914775.6830779.2224974 1.0017682.3835766.4846537.792038.94906 1.2237359 1.3913446.166873.0556538 2.6143446 1.4469985 3.2818369 1.4469985s4.5055728 0 5.6180599-1.1130757c1.1124871-1.1130758-.2781218-3.0053045-.2781218-3.0053045z" fill="#f8bc96"/><path d="m151.413176 67.996221h-24.822651c-.16074.0195236-.321371-.0373041-.435832-.1541881s-.170111-.2809142-.150992-.4450561l.528141-1.7977326c0-.3309534.26273-.5992442.586824-.5992442h24.29451c.324094 0 .586824.2682908.586824.5992442v1.857657c-.030246.3073531-.284329.5408678-.586824.5393198z" fill="#1a1a1a"/><path d="m93 64h6v7h-6z" fill="#b7caea"/><path d="m98.1454545 71-.1454545-.6990291c.0727273-.0582525 3.054545-.4660194 3.054545-2.5048544 0-2.0388349-2.7636359-2.0388349-2.9090905-2.0388349v-.7572816c1.309091 0 3.8545455.5825243 3.8545455 2.7961165s-2.5454545 3.0291262-3.8545455 3.2038835z" fill="#b7caea"/><path d="m44 64h6v7h-6z" fill="#b7caea" transform="matrix(-1 0 0 -1 94 135)"/><path d="m44.8545455 71 .1454545-.6990291c-.1454545 0-3.1272727-.4660194-3.1272727-2.5048544 0-2.0388349 2.8363636-2.0388349 2.9818182-2.0388349v-.7572816c-1.309091 0-3.8545455.5825243-3.8545455 2.7961165s2.4727273 3.0291262 3.8545455 3.2038835z" fill="#b7caea"/></g></svg>