<?xml version="1.0" encoding="UTF-8"?>
<svg width="1200px" height="400px" viewBox="0 0 1200 400" version="1.1" xmlns="http://www.w3.org/2000/svg" xmlns:xlink="http://www.w3.org/1999/xlink">
    <!-- Generator: Sketch 53.2 (72643) - https://sketchapp.com -->
    <title>da-05-mensen-organisatie-cultuurverandering</title>
    <desc>Created with Sketch.</desc>
    <g id="da-05-mensen-organisatie-cultuurverandering" stroke="none" stroke-width="1" fill="none" fill-rule="evenodd">
        <g id="Hoofdstuk-5-site_NDA[v1]" transform="translate(-1.000000, 0.000000)">
            <polyline id="Path" fill="#DDEFF8" fill-rule="nonzero" points="0.8 0 0.8 400 1200.8 400 1200.8 0 0.8 0"></polyline>
            <polyline id="Path" fill="#BCDFF1" fill-rule="nonzero" points="0.8 239.6 0.8 400 1200.8 400 1200.8 239.6 0.8 239.6"></polyline>
            <polygon id="Path" fill="#616F7A" fill-rule="nonzero" points="251.7 219.1 224.8 248.5 228.4 188.6 250.4 182.1"></polygon>
            <path d="M251.1,176.1 C251.1,176.1 248.5,174.2 243,173.6 C237.4,173 234.6,174 234.6,174 L233.9,164.9 L236,156.1 L248.9,158.3 L251.2,167.9 L251.2,176.1 L251.1,176.1 L251.1,176.1 Z" id="Path" fill="#E0B514" fill-rule="nonzero"></path>
            <path d="M235.2,309.8 C235.1,311.4 234.1,312.9 233.7,313.8 C233.2,314.8 233.3,316.4 233.8,316.9 C235.1,318.1 236.6,317.7 238.2,318.7 C239.8,319.7 242.1,323.2 243.5,323.5 C244.8,323.8 247.9,323.7 248,323.1 C248.2,322.5 245,320.2 245,320.2 C240.2,314.3 239.7,311.3 239.7,311.3 C239.7,311.3 235.2,309.5 235.2,309.8" id="Path" fill="#F5A37E" fill-rule="nonzero"></path>
            <path d="M245,320 C245,320 245.9,320.8 245.8,321 C245.6,321.3 244.2,321.2 243.9,321 C240.7,319.4 236.4,315.8 235.5,314.8 C234.6,313.7 234.5,312.4 234.5,312.4 C234.2,312.4 233.1,314.2 233.4,315.6 C233.5,315.9 233.8,316.7 234,316.8 C234.7,317.5 237.2,318.7 237.9,319.1 C239.5,320.1 241.7,323.6 243,323.9 C244.3,324.2 248.8,324.1 249,323.5 C248.9,323.1 246.5,321 245,320" id="Path" fill="#502819" fill-rule="nonzero"></path>
            <path d="M233.2,315.4 C233.2,315.4 234.1,317.9 234.4,318.8 C234.8,320.1 235.1,322.8 235.1,322.8 L235.7,322.8 C235.7,322.8 234.9,317.6 237.7,319.2 C238.6,319.6 233.2,315.4 233.2,315.4" id="Path" fill="#502819" fill-rule="nonzero"></path>
            <path d="M246.6,272.8 C242.1,275.1 238.7,283.6 237.9,287 C237.1,290.4 235.5,309.7 235,310.9 C234.6,312.1 239.4,312.1 239.6,311.4 C241.3,304.5 248.7,287.2 249.5,285.5 C250.3,283.8 253.7,276 254,275.2 C255.3,271.1 249.1,271.5 246.6,272.8" id="Path" fill="#F5A37E" fill-rule="nonzero"></path>
            <path d="M272.6,240.7 C272.6,240.7 272.7,242.6 272.6,243 C272.5,243.5 272.2,244 272,244.5 C271.8,244.9 271.9,245.7 272,245.8 C272.3,246.1 272.8,245.5 272.9,245.1 C273.1,244.7 273.5,243.9 273.6,243.4 C273.7,242.9 274.1,241.5 274,241.1 C273.8,240.7 272.6,240.7 272.6,240.7" id="Path" fill="#F5A37E" fill-rule="nonzero"></path>
            <path d="M272.7,240.1 C272.7,240.1 272.3,241.8 272.1,242.2 C271.9,242.6 271.6,242.6 271.1,242.9 C270.7,243.2 270.3,243.6 270.4,244 C270.5,244.4 271.1,244 271.4,243.9 C271.8,243.7 272.5,243.2 272.8,242.7 C273.1,242.2 273.7,241.2 273.8,240.8 C273.8,240.4 272.7,240.1 272.7,240.1" id="Path" fill="#F5A37E" fill-rule="nonzero"></path>
            <path d="M272.6,239.8 C272.6,239.8 272,241.1 271.8,241.4 C271.6,241.7 271.3,241.7 270.9,241.9 C270.6,242.1 270.1,242.4 270.2,242.7 C270.2,243 270.8,242.8 271.1,242.8 C271.5,242.7 272.1,242.4 272.4,242 C272.7,241.7 273.4,240.9 273.5,240.5 C273.5,240.3 272.6,239.8 272.6,239.8" id="Path" fill="#F5A37E" fill-rule="nonzero"></path>
            <path d="M268.8,244 C269,244.2 269.5,243.9 269.9,243.4 C270.3,242.9 270.3,241.8 270.2,241.2 C270.1,240.6 270.2,239.8 270.6,239.7 C271,239.6 272.5,240.3 272.7,240.7 C273.1,241.4 273.7,242.4 273.7,242.9 C273.7,243.4 273.3,244.5 273.2,244.9 C273,245.4 272.8,246 272.9,246.4 C273,246.8 273.2,246.8 273.4,246.9 C273.6,247 273.7,246.1 274.1,245.5 C274.5,244.9 275.2,243.3 275.3,243.1 C275.3,243 275,240.6 274.8,239.9 C274.7,239.2 272.4,236.3 272.4,236.1 C272.4,235.8 270.2,231 270.2,231 L266.3,232 C266.3,232 268.4,235.4 268.4,236 C268.4,236.6 268.2,237.4 268.1,238.1 C267.9,239.3 268.5,240.8 268.7,241.4 C269,242.5 268.5,243.7 268.8,244" id="Path" fill="#F5A37E" fill-rule="nonzero"></path>
            <path d="M230.3,307.8 C230.3,307.8 230.6,310.1 230,311.5 C229.4,312.8 227.1,315.6 226,315.3 C224.9,315 223.7,311.9 223.6,311.4 C222.8,308.4 224.6,303.5 224.6,303.5 L230.3,307.8 Z" id="Path" fill="#8E3C26" fill-rule="nonzero"></path>
            <path d="M252.1,183.3 C254.5,183 257.1,190.1 258,197.9 C259.5,211.4 261.9,215.6 257.8,216.6 C254.1,217.4 253.2,211.9 250.4,200.6 C248.2,191.6 247.2,184 252.1,183.3" id="Path" fill="#F5A37E" fill-rule="nonzero"></path>
            <path d="M221.3,179.9 C222.5,178.1 228.3,178.1 230.5,177.8 C232.7,177.5 239,178.4 239,178.4 C239,178.4 245.2,179.7 247.2,180.7 C249.2,181.7 254.6,183.7 255.1,185.8 C255.9,189 243.9,203.8 247.9,214.2 C249.2,217.6 257.1,226.8 257.1,230.5 C257.1,235 243.8,241.4 243.8,241.4 L243,241.6 L242.2,241.8 C242.2,241.8 227.5,242.9 225.2,239 C223.4,235.8 227,219.7 226.6,215.3 C225.3,203.9 219.4,182.6 221.3,179.9" id="Path" fill="#F8BC96" fill-rule="nonzero"></path>
            <path d="M257,231.2 C258.9,234.1 259.2,239.5 258.9,246.6 C258.5,256.3 255.2,270.6 254.9,272 C253.6,278.4 247.4,278.6 246.1,273.7 C245.7,272.4 242.5,245.1 242.6,242 C242.7,238.9 242.6,233.3 244.6,229.7 C246.1,227.1 254.2,226.9 257,231.2" id="Path" fill="#F5A37E" fill-rule="nonzero"></path>
            <path d="M235,174.4 C235.9,172.9 236.9,166.7 236.9,166.7 L240.8,167.4 L244.7,168.1 C244.7,168.1 243.5,174.3 243.9,176 C244.2,177.8 247,180.7 247,180.7 L238.7,179.2 L230.4,177.7 C230.4,177.8 234.1,175.9 235,174.4" id="Path" fill="#F8BC96" fill-rule="nonzero"></path>
            <path d="M256.5,211.1 C258.5,210.4 262.5,212.8 265.3,219.2 C268.4,226.6 273.1,237.1 271.4,237.9 C270.6,238.3 269.5,237.6 268.7,236.1 C267.1,232.8 262.7,228.1 259.6,223.9 C254.8,217.4 252.6,212.5 256.5,211.1" id="Path" fill="#F5A37E" fill-rule="nonzero"></path>
            <path d="M235,174.4 L236.1,170.9 C236.4,169.8 236.6,168.6 236.7,167.8 L236.7,167.8 L240.5,167.4 L240.8,167.5 L244.7,168.2 C244.7,168.2 243.5,174.4 243.9,176.1 C244.2,177.9 247,180.8 247,180.8 C247,180.8 241.8,178.5 240.9,178 C240,177.3 235,174.4 235,174.4" id="Path" fill="#F5A37E" fill-rule="nonzero"></path>
            <path d="M250.2,163.9 C249.1,170.1 242.9,174.1 239.8,173.6 C236.7,173.1 233.5,167.3 234,160.9 C234.5,154.6 238.9,151.3 243.6,152.1 C248.2,153 251.3,157.7 250.2,163.9" id="Path" fill="#F8BC96" fill-rule="nonzero"></path>
            <path d="M238.8,156.4 C239.4,158.1 241.1,159.2 244.9,159.6 C247.6,159.9 249.3,163.6 249.2,165.1 C249.2,165.7 251.1,176.1 251.1,176.1 C251.1,176.1 254.3,162.9 249.3,155.6 C244.3,148.3 237.8,152.3 237.7,152.9 C237.7,153.5 238.5,155.5 238.8,156.4" id="Path" fill="#E7C352" fill-rule="nonzero"></path>
            <path d="M240.3,154.9 C240.3,154.9 240.3,157.5 238,158 C233.8,158.8 234.5,174 234.5,174 C234.5,174 230,155 237.6,152.9 C242.1,151.7 240.3,154.9 240.3,154.9" id="Path" fill="#E7C352" fill-rule="nonzero"></path>
            <path d="M231,301.4 C231,301.4 230.4,308.1 230.1,308.8 C229.8,309.5 227.9,311.9 226.9,311.5 C224.1,310.4 224,304.6 224.8,303 C225.3,302.1 225.7,301 226.1,300.4 C227.1,298.6 227.9,297.9 227.9,297.9 L231,301.4 Z" id="Path" fill="#F8BC96" fill-rule="nonzero"></path>
            <path d="M247.5,269.2 C250.1,271.6 250.2,273.8 246.4,280.2 C242.6,286.7 230.8,303 230,302.4 C229.2,301.9 226.2,299.5 227.8,297.6 C228.8,296.3 229,293.9 230.4,290.2 C232.8,283.8 236,275.7 236.8,274.3 C238,272.2 243.3,265.4 247.5,269.2" id="Path" fill="#F8BC96" fill-rule="nonzero"></path>
            <path d="M224.7,235.3 C224,238.7 225.5,243.8 228.3,250.4 C232.1,259.3 240.2,271.6 240.9,272.8 C244.3,278.3 250.2,276.3 249.7,271.3 C249.6,269.9 243,243.3 241.8,240.4 C240.6,237.6 238.7,232.2 235.6,229.6 C233.4,227.6 225.8,230.3 224.7,235.3" id="Path" fill="#F8BC96" fill-rule="nonzero"></path>
            <path d="M250.4,182.1 L250.4,197 C250.4,197 246.9,207.2 248.3,212.3 C249.6,217.4 255.2,223.1 258.4,230.1 C261.6,237.1 258.4,260 258.4,260 C258.4,260 249.9,262.7 247.2,259.9 C244.5,257.1 240.4,258.1 238.9,259.2 C237.4,260.3 233.5,264.1 233.5,264.1 C233.5,264.1 225.8,251.7 224.1,240 C222.8,230.7 226.3,219 225.6,214.3 C224.9,209.6 222.1,190.5 222.1,190.5 C222.1,190.5 226.1,190.9 230.5,191.1 C231.2,191.1 230.5,188 229.9,185 C229.2,181.9 228.6,178.9 229.2,178.9 C232.3,178.9 233.4,192.3 241.1,190.5 C246.9,189.2 246.8,180.3 246.8,180.3 L250.4,182.1" id="Path" fill="#5182B0" fill-rule="nonzero"></path>
            <path d="M228.4,201 C229.3,200.4 232.5,201.1 236,201.7 C239.3,202.3 242.9,202.9 244.9,202.5 C248.3,201.8 249.7,198.7 250.1,197.4 C249.4,199.6 247,207.8 248.1,212.1 C249.4,217.2 255,222.9 258.2,229.9 C261.4,236.9 258.2,259.8 258.2,259.8 C258.2,259.8 249.7,262.5 247,259.7 L246.8,259.6 L242,245.4 C242,245.4 249.8,247.7 249.7,240.9 C249.6,234.1 242.9,218.8 240.9,214.8 C239.1,210.8 226.7,202.2 228.4,201" id="Path" fill="#026A9D" fill-rule="nonzero"></path>
            <path d="M230.4,177.8 C230.4,177.8 232.5,183.6 233.2,187.7 C233.9,191.7 226.7,224.5 225.5,231.3 C224.3,238.1 224.7,248.6 224.7,248.6 L220.7,244.7 C220.7,244.7 223.5,227.1 223.5,217.4 C223.4,207.7 219.5,184 220.3,180.9 C221,177.6 230.4,177.8 230.4,177.8" id="Path" fill="#9AA3AA" fill-rule="nonzero"></path>
            <path d="M247.8,180.7 C247.8,180.7 249.7,195.9 249.5,199.7 C249.3,203.5 251.7,219.1 251.7,219.1 C251.7,219.1 255.7,188 255.4,186 C254.9,183.3 247.8,180.7 247.8,180.7" id="Path" fill="#9AA3AA" fill-rule="nonzero"></path>
            <path d="M222.9,179.1 C220.5,178.8 217.9,185.9 217,193.7 C215.5,207.2 213.1,211.4 217.2,212.4 C220.9,213.2 221.8,207.7 224.6,196.4 C226.8,187.4 227.8,179.7 222.9,179.1" id="Path" fill="#F5A37E" fill-rule="nonzero"></path>
            <path d="M216.5,207.5 C218.3,206.3 222.8,207.6 227,213.1 C231.9,219.4 239.1,228.4 237.6,229.7 C236.9,230.3 235.7,229.9 234.6,228.6 C232.2,225.8 226.8,222.4 222.7,219.1 C216.4,214 213,209.8 216.5,207.5" id="Path" fill="#F8BC96" fill-rule="nonzero"></path>
            <path d="M245.2,226.7 C245.2,226.3 237.9,223.7 233.7,227.1 C232.9,227.7 235.3,229.7 236.5,230.2 C237.1,230.4 238.1,230.5 238.9,229.7 C242.2,226.6 245.1,228.2 245.2,226.7" id="Path" fill="#F8BC96" fill-rule="nonzero"></path>
            <path d="M236.8,226.9 C236.8,226.9 238.2,226.4 240.1,226.2 C240.3,226.2 240.6,226 240.8,226 C241,226 241.3,226.1 241.4,226.1 C241.5,226.1 241.7,226 241.8,226 C242,226 242.3,226.1 242.4,226.1 C242.6,226.1 242.8,226 243,226 C243.6,225.9 243.6,226.3 243.8,226.3 C244.3,226.3 244.5,226.3 244.6,226.3 C245.1,226.4 246.6,228 246.8,228.4 C247,228.7 248.3,230.4 248.1,230.5 C248,230.7 247.2,230.8 246.4,230 C245.6,229.2 244.5,228.3 244.7,228.5 C244.8,228.7 245.2,230.1 245.2,230.7 C245.2,231.1 244.8,231.2 244.5,231.1 C244.3,231.1 243.7,230.2 243.7,230.2 C243.7,230.2 243.3,230.9 243.2,230.9 C242.6,230.9 242.4,230.1 242.2,229.9 C242.1,229.7 241.9,230.6 241.7,230.5 C240.8,230.3 240.6,228.1 239.7,228.4 C239.1,228.5 237.2,228.2 236.8,226.9" id="Path" fill="#F8BC96" fill-rule="nonzero"></path>
            <path d="M296.6,153.8 C296.6,153.8 299.6,149.6 302.8,152.1 C306,154.6 305.8,160 304.2,161.7 C302.6,163.4 299.9,170.8 300.5,170.9 C301,171 300.3,172.3 299.2,172.1 C298,171.9 294.8,170.5 295.9,166.8 C297.1,163.1 296.2,160.2 296.2,160.2 L296.6,153.8 Z" id="Path" fill="#8E3C26" fill-rule="nonzero"></path>
            <path d="M293.4,308.5 C293.6,310.3 294.4,311.4 294.9,312.3 C295.5,313.3 295.5,315.2 295,315.7 C293.7,317.1 292,316.8 290.3,317.9 C288.6,319.1 286.3,323.1 284.8,323.6 C283.4,324 280,324.1 279.8,323.4 C279.5,322.7 282.9,319.9 282.9,319.9 C287.7,313.1 288.1,310 288.1,310 C288.1,310 293.4,308.2 293.4,308.5" id="Path" fill="#F5A37E" fill-rule="nonzero"></path>
            <path d="M282.9,320 C282.9,320 282,320.9 282.1,321.2 C282.4,321.6 283.9,321.3 284.2,321.1 C287.6,319.1 292.1,314.9 293,313.6 C293.9,312.3 294,310.9 294,310.9 C294.3,310.9 295.7,312.8 295.5,314.4 C295.4,314.7 295.1,315.6 295,315.8 C294.2,316.6 291.6,318.1 290.9,318.6 C289.2,319.8 287.1,323.8 285.6,324.3 C284.2,324.7 279.2,325 279,324.3 C278.8,323.6 281.4,321.2 282.9,320" id="Path" fill="#1A1A1A" fill-rule="nonzero"></path>
            <path d="M295.6,314 C295.6,314 294.7,316.9 294.5,317.8 C294.1,319.2 294,322.3 294,322.3 L293.4,322.3 C293.4,322.3 293.9,316.5 291,318.4 C290,319.1 295.6,314 295.6,314" id="Path" fill="#1A1A1A" fill-rule="nonzero"></path>
            <path d="M293.3,267.1 C297.3,271 298.1,281.1 297.9,284.9 C297.7,288.8 293.1,309.1 293.3,310.5 C293.5,311.9 288.1,310.8 288.2,310 C288.6,302.2 286.4,281.5 286.1,279.5 C285.8,277.5 284.7,268.1 284.7,267.2 C284.6,262.5 291,264.9 293.3,267.1" id="Path" fill="#F5A37E" fill-rule="nonzero"></path>
            <path d="M317.7,316.4 C317.7,316.4 319.7,321.3 319.7,322.6 C319.7,323.9 319.1,327 318,327.2 C317,327.3 314.5,325 314.2,324.6 C312.4,322.4 312.4,318 312.4,318 L317.7,316.4 Z" id="Path" fill="#313131" fill-rule="nonzero"></path>
            <path d="M316.6,313.6 C316.6,313.6 318.2,317.3 318.6,320.3 C318.7,321 318.2,323.7 317.2,323.8 C314.5,323.9 312.3,319.2 312.4,317.5 C312.5,315.9 312.6,314.1 312.6,314.1 L316.6,313.6 Z" id="Path" fill="#F8BC96" fill-rule="nonzero"></path>
            <path d="M306.5,266.5 C303,267.2 302.1,269.7 303.8,280.1 C305.1,288 310.1,305.9 312.4,314.1 C313.1,316.7 312.9,318.5 313.1,318.5 C314.1,318.5 317.1,318.4 317.4,316.1 C317.5,315.6 316.3,313.9 316.3,312.5 C316.3,304.4 316.2,283.8 315.7,280.9 C315.3,277.4 312.2,265.4 306.5,266.5" id="Path" fill="#F8BC96" fill-rule="nonzero"></path>
            <path d="M283,177.9 C280.8,177.1 276.8,183.6 274.4,191 C270.3,204 266.3,206.1 270.8,208.5 C276.3,211.4 276.4,205.7 281.4,195.1 C285.2,186.8 287.7,179.5 283,177.9" id="Path" fill="#90CBE8" fill-rule="nonzero"></path>
            <path d="M280.7,229 C279.1,232 279.1,237.4 280,244.5 C281.1,254.1 284.3,269.4 284.7,270.8 C286.5,277 292.6,276.8 293.5,271.8 C293.8,270.4 295.9,242.8 295.5,239.8 C295.2,236.7 293.5,231.1 291.3,227.7 C289.6,225.1 283.2,224.6 280.7,229" id="Path" fill="#F5A37E" fill-rule="nonzero"></path>
            <path d="M308.8,229.3 C311,231.9 312,237.2 312.6,244.3 C313.4,253.9 313,268.4 312.9,269.9 C312.4,276.4 305.1,277.4 303.2,272.8 C302.7,271.5 296.2,244.9 295.9,241.8 C295.6,238.7 294.9,233.1 296.4,229.4 C297.5,226.5 305.5,225.4 308.8,229.3" id="Path" fill="#F8BC96" fill-rule="nonzero"></path>
            <path d="M281.7,224.6 C280.6,227.5 279.7,230.2 280.1,231.7 C281.2,236.1 294.1,239.8 294.1,239.8 L295,239.8 L295,225.6 C290,225.6 286.7,224.6 281.7,224.6" id="Path" fill="#27557D" fill-rule="nonzero"></path>
            <path d="M311,181.3 C310.1,179.3 305.6,178.4 303.5,177.8 C301.4,177.2 295.1,176.9 295.1,176.9 C295.1,176.9 285.1,177.9 283,177.8 C282.1,177.8 281.4,181.1 281.1,182 C279.1,187.3 276.8,193.4 281.7,197.7 C282.8,198.7 283.8,209.8 283.8,214.9 C283.8,217 283.4,220.4 281.8,224.4 C286.8,224.4 290.1,225.4 295.1,225.4 L310,225.4 C308.5,221.4 306.8,217 306.4,214.8 C303.4,199.2 312.3,184.3 311,181.3" id="Path" fill="#90CBE8" fill-rule="nonzero"></path>
            <path d="M295,225.6 L295,239.8 L295.9,239.8 C295.9,239.8 310.4,237.1 311.5,232.7 C311.9,231.2 311,228.5 309.9,225.6 L295,225.6 L295,225.6 Z" id="Path" fill="#27557D" fill-rule="nonzero"></path>
            <path d="M299.6,173.8 C299,172.1 299,165.9 299,165.9 L295,165.9 L291,165.9 C291,165.9 291.1,172.2 290.4,173.8 C289.8,175.5 287.2,177.5 287.2,177.5 L293.1,180.2 L301.6,177 C301.6,177 300.2,175.4 299.6,173.8" id="Path" fill="#F8BC96" fill-rule="nonzero"></path>
            <path d="M299,168.9 C298.9,167.2 299,165.8 299,165.8 L295,165.8 L291,165.8 C291,165.8 291.1,172.1 290.4,173.7 C289.8,175.4 286.5,177.8 286.5,177.8 L299,168.9 L299,168.9 Z" id="Path" fill="#F5A37E" fill-rule="nonzero"></path>
            <path d="M302,163.3 C300.2,169.3 293.6,172.6 290.5,171.7 C287.5,170.8 285,164.7 286.2,158.4 C287.5,152.3 292.2,149.5 296.8,150.9 C301.4,152.3 303.8,157.3 302,163.3" id="Path" fill="#F8BC96" fill-rule="nonzero"></path>
            <path d="M291.6,154.5 C292,156.3 293.6,157.6 297.3,158.4 C299.9,159 301.2,162.9 300.9,164.4 C300.8,165 299.8,167.6 299.8,167.6 C299.8,167.6 306.3,162.9 302.1,155.1 C297.9,147.3 291.1,150.5 291,151 C290.9,151.5 291.4,153.6 291.6,154.5" id="Path" fill="#8E3C26" fill-rule="nonzero"></path>
            <path d="M293.4,153.3 C293.4,153.3 293.1,155.9 290.8,156.1 C288.5,156.3 286.2,157.8 286.2,157.8 C286.2,157.8 286.6,151.7 291.1,151 C295.5,150.3 293.4,153.3 293.4,153.3" id="Path" fill="#8E3C26" fill-rule="nonzero"></path>
            <path d="M299.2,199.2 C297.9,198.6 295,198.8 288.2,198.5 C281.4,198.1 280.4,194.7 279.4,193.2 C278.4,191.7 279.3,186.8 279.4,186.6 C278.2,190.6 278,194.7 281.6,197.9 C282.7,198.9 283.7,210 283.7,215.1 C283.7,217.2 283.3,220.6 281.7,224.6 C284.9,224.6 287.4,225 290,225.3 C290,225.3 289.1,221.6 289.1,219.6 C289.1,212.2 303.8,217.3 305.5,214.2 C307.1,211 299.7,203.3 300.5,202.2 C301.3,201.1 300.6,199.8 299.2,199.2" id="Path" fill="#BACFED" fill-rule="nonzero"></path>
            <polygon id="Path" fill="#BACFED" fill-rule="nonzero" points="292.4 178.1 293.1 180.2 289.4 178.6"></polygon>
            <polygon id="Path" fill="#BACFED" fill-rule="nonzero" points="293.1 180.2 293.9 178.1 296.1 179.1"></polygon>
            <path d="M281.7,224.6 C281.7,224.6 279.5,228.2 279.1,234.9 C278.7,241.5 283.4,272 283.4,272 L296.6,272.7 L314.1,271.3 C314.1,271.3 313.7,243.4 312.9,235.1 C312.1,226.8 309.7,224.7 309.7,224.7 L293.9,225.3 L281.7,224.6" id="Path" fill="#DE5D3F" fill-rule="nonzero"></path>
            <polygon id="Path" fill="#E0F2FD" fill-rule="nonzero" points="293.9 178.1 296.3 181.7 303.4 177.9 300.9 174.5"></polygon>
            <polygon id="Path" fill="#E0F2FD" fill-rule="nonzero" points="285.5 177.9 288.7 175 292.4 178.1 289.7 181.4"></polygon>
            <path d="M293.1,252.8 C292.2,253.9 292.6,262.2 291.2,263.8 C289.7,265.5 287.5,265.2 286.2,262.3 C284.9,259.4 281.5,238.7 284.3,231.5 C286.2,226.4 290.2,225.2 290.2,225.2 L289.7,225 L281.9,224.5 C281.9,224.5 279.7,228.1 279.3,234.8 C278.9,241.4 283.6,271.9 283.6,271.9 L296.8,272.6 L299.6,272.4 C299.6,272.4 296.5,271.8 296,268.9 C294.8,263.3 293.9,251.9 293.1,252.8" id="Path" fill="#D52D1E" fill-rule="nonzero"></path>
            <path d="M309.3,179.8 C312,180.1 313.1,187.6 312,195.2 C310.1,208.5 311.7,213.2 306.9,213 C302.6,212.8 303.1,207.4 302.9,195.8 C302.8,186.8 303.7,179.2 309.3,179.8" id="Path" fill="#90CBE8" fill-rule="nonzero"></path>
            <rect id="Rectangle" fill="#5182B0" fill-rule="nonzero" transform="translate(290.005564, 199.254021) rotate(-0.885885) translate(-290.005564, -199.254021) " x="280.005369" y="185.90376" width="20.0003906" height="26.7005215"></rect>
            <path d="M283,186.2 C283,186.2 284.2,195.4 287.7,199.6 C291.2,203.8 300,205.1 300,205.1 L300.1,212.4 L280.1,212.7 L279.7,186 L283,186.2 Z" id="Path" fill="#026A9D" fill-rule="nonzero"></path>
            <path d="M275.5,207.5 C276.9,205.8 275.7,202.3 270.6,198 C264.7,193.1 256.4,186 255.2,187.5 C253.6,189.6 260.3,196.3 264.9,202.5 C269.5,208.9 272.6,211 275.5,207.5" id="Path" fill="#F8BC96" fill-rule="nonzero"></path>
            <path d="M310.3,210.7 C310.9,208.7 306.8,205.1 300.7,203.5 C293.6,201.6 283.5,198.6 283.1,200.5 C282.5,203 291.1,206.2 297.5,209.9 C304.1,213.5 309.1,214.9 310.3,210.7" id="Path" fill="#F8BC96" fill-rule="nonzero"></path>
            <path d="M278.3,200.7 L278.3,200.7 C278.4,200.4 278.7,200.2 279.1,200.3 L281.7,201 C282,201.1 282.2,201.4 282.1,201.8 L282.1,201.8 C282,202.1 281.7,202.3 281.3,202.2 L278.7,201.5 C278.4,201.4 278.2,201 278.3,200.7" id="Path" fill="#F8BC96" fill-rule="nonzero"></path>
            <path d="M278.5,199.5 L278.5,199.5 C278.6,199.2 278.9,199 279.3,199.1 L281.9,199.8 C282.2,199.9 282.4,200.2 282.3,200.6 L282.3,200.6 C282.2,200.9 281.9,201.1 281.5,201 L278.9,200.3 C278.6,200.2 278.4,199.9 278.5,199.5" id="Path" fill="#F8BC96" fill-rule="nonzero"></path>
            <path d="M278.8,198.4 L278.8,198.4 C278.9,198.1 279.2,197.9 279.6,198 L282.2,198.7 C282.5,198.8 282.7,199.1 282.6,199.5 L282.6,199.5 C282.5,199.8 282.2,200 281.8,199.9 L279.2,199.2 C278.9,199.1 278.7,198.8 278.8,198.4" id="Path" fill="#F8BC96" fill-rule="nonzero"></path>
            <path d="M279.1,197.4 L279.1,197.4 C279.2,197.1 279.5,196.9 279.9,197 L282.5,197.7 C282.8,197.8 283,198.1 282.9,198.5 L282.9,198.5 C282.8,198.8 282.5,199 282.1,198.9 L279.5,198.2 C279.2,198.1 279,197.7 279.1,197.4" id="Path" fill="#F8BC96" fill-rule="nonzero"></path>
            <path d="M287.7,200.2 C287.7,200.2 284.6,197.8 283.8,197.5 C283,197.2 279.6,196.9 279.6,196.9 C279.6,196.9 280.3,198.2 280,199 C279.7,199.7 278.7,201.5 278.7,201.5 C278.7,201.5 281.1,202.6 282.4,202.9 C284.4,203.5 285.6,203.5 285.6,203.5 L287.7,200.2 Z" id="Path" fill="#F8BC96" fill-rule="nonzero"></path>
            <path d="M259.3,189.4 C259.3,189.4 257.9,186 255.6,186.1 C253.3,186.2 251.3,188.3 250.7,188.7 C248.4,190.2 245,189.2 243.4,189.8 C241.8,190.5 242.1,191.5 242.7,191.4 C246.2,191.2 248.4,192.1 249.9,191.8 C251.4,191.5 257.3,192 257.3,192 L259.3,189.4 Z" id="Path" fill="#F8BC96" fill-rule="nonzero"></path>
            <path d="M258,187.3 C258,187.3 256,185.6 254.5,185.4 C253,185.3 251.6,186.7 250.3,186.8 C249,186.9 249.5,187.5 249.7,187.7 C249.8,187.9 251.4,187.8 252.2,187.8 C252.8,187.9 255.9,189.7 258,187.3" id="Path" fill="#F8BC96" fill-rule="nonzero"></path>
            <path d="M205.7,206.4 C209.7,208.8 213.9,200.1 215.7,195.8 C217.5,191.5 221.6,178.3 221.6,178.3 L217,176 C217,176 209.1,185.8 203.4,197.4 C202.9,198.7 201.7,204 205.7,206.4" id="Path" fill="#6D2F0F" fill-rule="nonzero"></path>
            <path d="M163.3,328.7 C163.3,328.7 166.2,334.1 165.7,335.2 C165.4,335.9 163.3,338 160.3,337.5 C158,337.2 154.8,334.3 154.2,334.1 C152.9,333.7 154.4,326.5 154.4,326.5 L163.3,328.7 Z" id="Path" fill="#1A1A1A" fill-rule="nonzero"></path>
            <path d="M183.3,180.6 C179.9,183.2 181.1,186.8 183.8,189.9 C186.6,193.1 204,206.3 205.4,206.2 C206.8,206.1 211.1,201.8 210.5,200 C209.9,198.2 196.7,184.7 194,182.5 C191.2,180.3 187.2,177.6 183.3,180.6" id="Path" fill="#6D2F0F" fill-rule="nonzero"></path>
            <path d="M186.8,179.3 C188.4,179.2 192.4,179.5 197,184.2 C200.1,187.3 205.8,193.4 205.8,193.4 C205.8,193.4 204.8,196.5 201.9,199.1 C198.6,202.1 195.4,202.6 195.4,202.6 C195.4,202.6 183.1,190.2 182.1,186.8 C181.9,185.7 182.3,179.6 186.8,179.3" id="Path" fill="#6B9C53" fill-rule="nonzero"></path>
            <path d="M175.3,163 C175.3,163 174.7,175.3 174,175.9 C171.8,177.7 163.7,179.3 162.2,182.5 C160.4,186.4 170.3,204 171.6,209.7 C172.9,215.5 170.2,224.5 169.3,230.1 C168.4,235.8 186.3,242.7 186.9,242.7 C187.6,242.7 193.3,237.3 194.4,235.5 C195.5,233.6 194.5,219.1 194.5,215.4 C194.5,211.7 195.4,198.7 195.6,197.8 C196.7,192.1 195.3,187.6 195.1,186.4 C194.9,185.2 195,183.2 194.4,182.4 C193.2,180.9 186.5,178.8 186.4,178.1 C186.3,177.3 185.4,166.7 185.4,166.7 L175.3,163 Z" id="Path" fill="#6D2F0F" fill-rule="nonzero"></path>
            <path d="M174,175.8 L184.8,182.3 L186.4,178.1 C186.4,178.1 193.5,180.3 194.4,181.9 C195.3,183.4 195.8,187.3 196.1,188.6 C196.4,189.8 196.6,195.5 196.1,200.4 C195.8,203.3 195.9,207.1 195.4,212 C195,216.2 195.5,226.7 195.5,226.7 C195.5,226.7 191.5,226.9 185.3,226.5 C178.1,226.1 170.8,225 170.5,224.7 C169.1,223.6 171.1,212.4 170.8,211.2 C170.6,210 161.7,188.6 161.6,185.8 C161.5,183 162.9,181.2 165,180.1 C166.9,179 174,175.8 174,175.8" id="Path" fill="#3A8835" fill-rule="nonzero"></path>
            <path d="M165.9,179.5 C165.9,179.5 158.9,183.4 165.8,188.8 C168.8,191.1 183.2,194.8 185.9,195.6 C195.6,198.6 180.6,220 179.5,221.6 C178.4,223.2 178.4,225.4 178.4,225.4 L169.1,224.3 C166.2,224.9 170.6,211 169.5,208 C168.4,205 161.4,187.9 161.4,185.6 C161.4,180.7 165.9,179.5 165.9,179.5" id="Path" fill="#6B9C53" fill-rule="nonzero"></path>
            <polygon id="Path" fill="#4F2111" fill-rule="nonzero" points="185.7 171.3 174.8 167.3 174.5 173.8 177.9 175.8"></polygon>
            <path d="M188.1,150.6 C185.3,148.2 177.1,146.2 173.4,151.7 C169.7,157.2 171.6,162.3 173.9,165.5 C175.7,168 177.3,169.3 180.6,170.6 C181.3,170.9 187.2,171.7 188.4,171.2 C189.2,170.9 189.6,165 189.8,165 C190,165 190.7,164.6 190.7,164.2 C190.7,163.5 189.8,159.3 190,158.8 C190,158.2 191.3,153.3 188.1,150.6" id="Path" fill="#6D2F0F" fill-rule="nonzero"></path>
            <path d="M189.8,153.1 C189.8,153.1 185.2,150.7 179.8,156.1 C178.6,157.3 181.1,161.9 180.8,162.3 C180.5,162.8 176.2,159 176.4,159.6 C178.2,165 176.6,168 176.1,168.1 C174.6,168.3 169.7,160.8 171.7,154.5 C173.8,148.2 180.4,147.3 182,147.6 C183.5,147.8 188.4,148 189.8,153.1" id="Path" fill="#36180E" fill-rule="nonzero"></path>
            <path d="M179.1,160.7 C179.7,162.4 180,164.7 179.1,165 C178.2,165.3 176.9,164.2 176.3,162.5 C175.7,160.8 176,159.2 176.9,158.8 C177.8,158.5 178.5,158.9 179.1,160.7" id="Path" fill="#6D2F0F" fill-rule="nonzero"></path>
            <rect id="Rectangle" fill="#1A1A1A" fill-rule="nonzero" x="179.6" y="329.1" width="7" height="1.3"></rect>
            <path d="M179.9,319.9 C179,321.2 178.4,323.7 178.3,324.8 C178.2,326.2 179,329.1 179.9,329.1 C182.5,329.1 185.7,329.2 188.4,329.6 C191.1,330 192.1,331.5 199.1,331.5 C201.1,331.5 204.7,331.4 204.7,330.5 C204.7,326.9 198,328.2 195.9,326.2 C190.5,321.3 187,320.1 187,320.1 C187,320.1 180.1,319.7 179.9,319.9" id="Path" fill="#1A1A1A" fill-rule="nonzero"></path>
            <path d="M183.2,225 C183.2,225 173.9,234.3 173.5,238.3 C173.1,242.3 177,255.3 178.4,265.5 C179.8,275.7 180.6,277.7 180.3,280.2 C180,282.6 177.2,292.3 177.3,298.8 C177.4,306.4 177,321.9 177,321.9 C177,321.9 179,323.5 184.2,323.5 C187.6,323.5 190.4,321.1 190.4,321.1 C190.4,321.1 192.5,283.1 192.9,279.1 C193.2,276.5 195.3,258.7 195.9,244.1 C196.1,239.4 195,226 195,224.1 L183.2,225" id="Path" fill="#026A9D" fill-rule="nonzero"></path>
            <polygon id="Path" fill="#BACFED" fill-rule="nonzero" points="184.3 179.7 184.8 182.3 179.1 178.9"></polygon>
            <polygon id="Path" fill="#BACFED" fill-rule="nonzero" points="184.8 182.3 185.7 179.1 187 180.2"></polygon>
            <path d="M168.7,224.3 C168.7,224.3 165,233.4 163.5,239.5 C162,245.6 160.3,277.1 159.7,280 C159.2,283 157.3,292 155.9,300.9 C154.5,309.8 153.6,327.8 153.6,327.8 L165.1,329.6 C165.1,329.6 171.9,291.9 173,286 C174.1,280.1 185.4,238.1 185.4,238.1 L186.8,224.6 L168.7,224.3 Z" id="Path" fill="#5182B0" fill-rule="nonzero"></path>
            <path d="M169.1,250 C168.1,254 165.3,281.4 165.1,282.9 C164.9,284.4 157.8,326.4 157.5,328.4 L153.7,327.8 C153.7,327.8 154.6,309.8 156,300.9 C157.4,292 159.3,282.9 159.8,280 C160.3,277 162.1,245.6 163.6,239.5 C165.1,233.4 168.8,224.3 168.8,224.3 L178.8,224.6 C178.7,224.6 170,246 169.1,250" id="Path" fill="#026A9D" fill-rule="nonzero"></path>
            <path d="M168.5,224.3 C168.5,224.3 186.1,224.6 187.2,224.6 C188.3,224.6 195.2,223.9 195.2,223.9 L195.3,226.7 C195.3,226.7 188.6,227.3 185.4,227.3 C182.2,227.3 167.9,226.6 167.9,226.6 L168.5,224.3 Z" id="Path" fill="#3B1B1D" fill-rule="nonzero"></path>
            <path d="M188.7,227.7 L186.2,227.7 C185.7,227.7 185.2,227.3 185.2,226.7 L185.2,225.4 C185.2,224.9 185.6,224.4 186.2,224.4 L188.7,224.4 C189.2,224.4 189.7,224.8 189.7,225.4 L189.7,226.7 C189.7,227.3 189.2,227.7 188.7,227.7" id="Path" fill="#732D1D" fill-rule="nonzero"></path>
            <polygon id="Path" fill="#E0F2FD" fill-rule="nonzero" points="172.5 176.5 174.5 173.8 184.3 179.7 182.7 183.2"></polygon>
            <polygon id="Path" fill="#E0F2FD" fill-rule="nonzero" points="185.7 179.1 188 181.8 188.3 178.9 186.4 177.1"></polygon>
            <path d="M165.1,181.6 C160.9,182.4 160.3,186 161.3,190 C162.3,193.9 172.9,216.1 174.2,216.6 C175.4,217.1 181.3,215.2 181.5,213.3 C181.8,211.4 175.1,190.9 173.7,187.8 C172.3,184.7 170,180.7 165.1,181.6" id="Path" fill="#6D2F0F" fill-rule="nonzero"></path>
            <path d="M168.8,181.7 C170.3,182.3 173.5,184.4 174.3,187.3 C175.4,191.5 179,202.4 179,202.4 C179,202.4 176.7,204.7 172.9,205.8 C168.6,207 165.6,206 165.6,206 C165.6,206 160.5,189.5 160.8,185.9 C161.1,183.1 164.7,179.9 168.8,181.7" id="Path" fill="#3A8835" fill-rule="nonzero"></path>
            <path d="M173.7,210.2 C169.9,212.9 176.2,220.2 179.4,223.6 C182.6,227 193.1,236 193.1,236 L197,232.7 C197,232.7 191.2,221.6 182.8,211.7 C181.9,210.7 177.5,207.5 173.7,210.2" id="Path" fill="#6D2F0F" fill-rule="nonzero"></path>
            <path d="M215.9,174.8 C215.9,174.8 216.8,170.4 217.5,169.6 C218.2,168.8 221.5,162.3 222,163.1 C222.6,164 220.2,169.5 220.3,169.6 C220.5,169.7 223.5,170.9 224.4,171.8 C225.3,172.7 221.6,178.6 221.6,178.6 L217.3,179.4 L215.9,174.8 Z" id="Path" fill="#6D2F0F" fill-rule="nonzero"></path>
            <path d="M209,231.2 L210,230.6 C210.2,230.5 210.5,230.5 210.7,230.7 C210.8,230.9 210.8,231.2 210.6,231.4 L209.6,232 C209.4,232.1 209.1,232.1 208.9,231.9 C208.7,231.6 208.7,231.3 209,231.2" id="Path" fill="#91A5A3" fill-rule="nonzero"></path>
            <path d="M195.1,241.3 L195.1,241.3 C194.8,240.9 196.4,239.4 196.7,239.2 L208.6,231.1 C209,230.8 209.5,230.9 209.7,231.3 C210,231.7 209.9,232.2 209.5,232.4 L197.6,240.5 C197.3,240.8 195.3,241.7 195.1,241.3" id="Path" fill="#4B5C61" fill-rule="nonzero"></path>
            <rect id="Rectangle" fill="#91A5A3" fill-rule="nonzero" transform="translate(208.008600, 232.504850) rotate(-35.775462) translate(-208.008600, -232.504850) " x="207.608607" y="231.604866" width="1" height="1.79996836"></rect>
            <path d="M204.4,235.1 L204.4,235.1 C204.3,235 204.3,234.8 204.5,234.7 L208.4,231.9 C208.5,231.8 208.7,231.8 208.8,232 C208.9,232.1 208.9,232.3 208.7,232.4 L204.8,235.1 C204.7,235.3 204.5,235.2 204.4,235.1" id="Path" fill="#CADBD9" fill-rule="nonzero"></path>
            <path d="M198.2,243.5 L198.2,243.5 C198.6,243.3 198.8,242.7 198.5,242.3 L196.6,239 C196.4,238.6 195.8,238.4 195.4,238.7 L195.4,238.7 C195,238.9 194.8,239.5 195.1,239.9 L197,243.2 C197.2,243.6 197.8,243.7 198.2,243.5" id="Path" fill="#4F2111" fill-rule="nonzero"></path>
            <path d="M199.7,242.8 L199.7,242.8 C200.1,242.6 200.3,242 200,241.6 L198.1,238.3 C197.9,237.9 197.3,237.7 196.9,238 L196.9,238 C196.5,238.2 196.3,238.8 196.6,239.2 L198.5,242.5 C198.7,242.9 199.3,243 199.7,242.8" id="Path" fill="#4F2111" fill-rule="nonzero"></path>
            <path d="M201.2,242 L201.2,242 C201.6,241.8 201.8,241.2 201.5,240.8 L199.6,237.5 C199.4,237.1 198.8,236.9 198.4,237.2 L198.4,237.2 C198,237.4 197.8,238 198.1,238.4 L200,241.7 C200.2,242.1 200.8,242.2 201.2,242" id="Path" fill="#4F2111" fill-rule="nonzero"></path>
            <path d="M202.5,241.1 L202.5,241.1 C202.9,240.9 203.1,240.3 202.8,239.9 L200.9,236.6 C200.7,236.2 200.1,236 199.7,236.3 L199.7,236.3 C199.3,236.5 199.1,237.1 199.4,237.5 L201.3,240.8 C201.5,241.2 202.1,241.4 202.5,241.1" id="Path" fill="#4F2111" fill-rule="nonzero"></path>
            <path d="M194.8,229.9 C194.8,229.9 199.9,233.7 200.7,234.7 C201.4,235.7 203,240.3 203,240.3 C203,240.3 200.9,239.8 200,240.5 C199.1,241.2 197,243.2 197,243.2 C197,243.2 194,240.2 193.2,238.4 C192.3,236.6 191.9,234.7 191.9,234.7 L194.8,229.9 Z" id="Path" fill="#6D2F0F" fill-rule="nonzero"></path>
            <polyline id="Path" fill="#7A868E" fill-rule="nonzero" points="198.2 333.2 192.3 333.2 192.3 242.8 198.2 242.8 198.2 333.2"></polyline>
            <polyline id="Path" fill="#7A868E" fill-rule="nonzero" points="360.5 333.2 354.5 333.2 354.5 242.8 360.5 242.8 360.5 333.2"></polyline>
            <polyline id="Path" fill="#7A868E" fill-rule="nonzero" points="359.5 257.1 193.1 257.1 193.1 244.2 359.5 244.2 359.5 257.1"></polyline>
            <polyline id="Path" fill="#596169" fill-rule="nonzero" points="192.3 254.2 192.3 254.2 192.3 249.9 193.1 249.9 193.1 254.2 192.3 254.2"></polyline>
            <polyline id="Path" fill="#596169" fill-rule="nonzero" points="359.5 252.9 359.5 250 360.4 250 360.4 252.9 359.5 252.9"></polyline>
            <polyline id="Path" fill="#596169" fill-rule="nonzero" points="193.1 254.2 193.1 249.9 359.5 250 359.5 252.9 193.1 254.2"></polyline>
            <rect id="Rectangle" fill="#9AA3AA" fill-rule="nonzero" x="185.1" y="242.5" width="182.8" height="7.5"></rect>
            <path d="M351.8,183.3 C354.3,182 358.3,183.8 360.3,190 C362.3,196.2 366.9,212.4 367.6,215.1 C368.2,217.8 370.7,223.4 365.6,225.8 C360.5,228.2 358.2,222.7 356.4,218.5 C348.1,199.9 345,186.8 351.8,183.3" id="Path" fill="#F8BC96" fill-rule="nonzero"></path>
            <path d="M303,216.2 C302,213.7 299.9,212 292.6,213.8 C285.3,215.6 270.2,221.2 270.2,221.2 L270.7,225.3 C270.7,225.3 286.2,225.8 290.2,225 C294.2,224.2 305.5,222.9 303,216.2" id="Path" fill="#F8BC96" fill-rule="nonzero"></path>
            <path d="M367.9,219.5 C366.9,217 364.8,215.3 357.5,217.1 C350.2,218.9 335.1,224.5 335.1,224.5 L335.6,228.6 C335.6,228.6 351.1,229.1 355.1,228.3 C359.1,227.5 370.4,226.2 367.9,219.5" id="Path" fill="#F8BC96" fill-rule="nonzero"></path>
            <path d="M347.7,336.8 C347.7,336.8 351.7,335.3 353.8,335.3 C355.3,335.3 357.1,336.6 357.2,337.8 C357.2,338.3 356.7,338.9 356.2,339.5 C355.7,340 349.5,344.4 348.1,344.6 C345.8,344.9 343.3,344.8 342.1,344.4 C340.8,343.9 340.8,339.5 340.8,339.5 L347.7,336.8 Z" id="Path" fill="#1A1A1A" fill-rule="nonzero"></path>
            <path d="M321.5,212.1 C318.7,203.5 311.4,188.8 315.7,186.2 C321.2,182.9 337.1,180.8 337.1,180.8 L337.1,181.1 C337.1,181.1 350.7,182.8 356.2,186.2 C360.4,188.8 355.5,203.8 352.7,212.4 C352,214.5 352.1,223.7 352.4,231.9 C352.5,233.9 354.1,243.2 353.8,247.1 C353.7,248.2 340.7,255.4 337.1,255.5 L337.1,255.2 C333.5,255 320.5,247.9 320.4,246.8 C320.1,243 321.8,233.6 321.8,231.6 C322.1,223.4 322.2,214.2 321.5,212.1" id="Path" fill="#F8BC96" fill-rule="nonzero"></path>
            <path d="M323.1,185.4 C321.2,183.3 316.8,183.7 312.8,188.8 C308.8,193.9 299,207.6 297.4,209.9 C295.9,212.2 291.7,216.6 295.7,220.6 C299.7,224.5 303.7,220.2 306.8,216.9 C321,202.2 328.3,191 323.1,185.4" id="Path" fill="#F8BC96" fill-rule="nonzero"></path>
            <path d="M330.5,178.3 C330.9,176.7 331.8,168.6 331.8,168.6 L337.2,168.6 L337.2,168.9 L342.6,168.9 C342.6,168.9 343.5,177 343.9,178.6 C344.3,180.2 348.7,182.7 348.7,182.7 L337.3,182.7 L337.3,182.4 L325.9,182.4 C325.7,182.4 330.1,179.9 330.5,178.3" id="Path" fill="#F5A37E" fill-rule="nonzero"></path>
            <path d="M345.7,238.1 C352.3,238.1 354.8,242.6 354.6,256.7 C354.4,270.7 352.3,285.9 351.4,288.1 C350.5,290.3 341.2,290.3 340.3,289.1 C339.4,287.8 337.1,258.7 337.1,254.2 C337.2,249.5 338.6,238.1 345.7,238.1" id="Path" fill="#F8BC96" fill-rule="nonzero"></path>
            <path d="M343.6,299.3 L348.6,299.2 C350.3,299.2 351.7,297.7 351.6,296 L351.4,286.9 C351.4,285.2 349.9,283.8 348.2,283.9 L343.2,284 C341.5,284 340.1,285.5 340.2,287.2 L340.4,296.3 C340.5,298 341.9,299.3 343.6,299.3" id="Path" fill="#F8BC96" fill-rule="nonzero"></path>
            <path d="M346.2,290.7 C348.2,290.7 353.1,291.4 352.9,304.4 C352.6,317.5 347.1,335.4 347.1,335.4 L342.4,335.4 C342.4,335.4 340.1,311.2 340.1,306.6 C340,296 339.9,290.7 346.2,290.7" id="Path" fill="#F8BC96" fill-rule="nonzero"></path>
            <path d="M328.4,238.2 C321.9,237.5 318.9,241.8 317.6,255.7 C316.3,269.7 316.8,285 317.5,287.3 C318.2,289.6 327.4,290.6 328.4,289.4 C329.4,288.2 334.8,259.5 335.2,255 C335.7,250.5 335.5,238.9 328.4,238.2" id="Path" fill="#F8BC96" fill-rule="nonzero"></path>
            <path d="M324.1,299.3 L319.1,298.7 C317.4,298.5 316.2,296.9 316.4,295.2 L317.6,286.2 C317.8,284.5 319.4,283.3 321.1,283.5 L326.1,284.1 C327.8,284.3 329,285.9 328.8,287.6 L327.6,296.6 C327.4,298.3 325.8,299.5 324.1,299.3" id="Path" fill="#F8BC96" fill-rule="nonzero"></path>
            <path d="M322.4,290.4 C320.4,290.2 315.5,290.3 314.3,303.4 C313.2,316.4 316.8,334.8 316.8,334.8 L321.5,335.3 C321.5,335.3 326.3,311.5 326.8,306.9 C328.1,296.4 328.7,291.1 322.4,290.4" id="Path" fill="#F8BC96" fill-rule="nonzero"></path>
            <path d="M352.8,235.2 C352.8,235.2 355.2,246.7 355.5,253 C355.9,259.3 352.8,286.7 352.8,289.8 C352.8,292.8 353,302.1 352.8,311.2 C352.6,320.3 350.3,338.2 350.3,338.2 L338.6,337.9 C338.6,337.9 338.6,299.4 338.6,293.4 C338.6,287.4 337.1,255.5 337.1,255.5 L337.1,235.7 L352.8,235.2 Z" id="Path" fill="#026A9D" fill-rule="nonzero"></path>
            <path d="M321.7,234.9 C321.7,234.9 318.1,246.1 317.1,252.3 C316.1,258.5 316.2,286.1 315.9,289.1 C315.6,292.1 314.4,301.3 313.6,310.4 C312.8,319.5 313.3,337.5 313.3,337.5 L324.9,338.4 C324.9,338.4 328.9,300.1 329.6,294.1 C330.2,288.1 337.2,256.4 337.2,256.4 L337.1,235.6 L321.7,234.9 Z" id="Path" fill="#026A9D" fill-rule="nonzero"></path>
            <path d="M349.5,338.2 C349.5,338.2 349.7,342.4 349.5,343.6 C349.4,344.3 347.6,345.1 344.5,345.2 C342.2,345.3 340,344.5 339.5,344.3 C338.1,343.7 339.9,337.9 339.9,337.9 L349.5,338.2 Z" id="Path" fill="#1A1A1A" fill-rule="nonzero"></path>
            <path d="M317.2,335.8 C317.2,335.8 313.2,334.3 311.1,334.3 C309.6,334.3 307.8,335.5 307.7,336.8 C307.7,337.3 308.2,337.9 308.7,338.5 C309.2,339 315.4,343.4 316.7,343.6 C319,343.9 321.5,343.9 322.7,343.4 C324,342.9 324,338.5 324,338.5 L317.2,335.8 Z" id="Path" fill="#1A1A1A" fill-rule="nonzero"></path>
            <path d="M323,258.4 C322.3,262.5 321.6,290.2 321.5,291.7 C321.4,293.2 317.4,335.9 317.2,337.8 L313.4,337.5 C313.4,337.5 312.9,319.4 313.7,310.4 C314.5,301.3 315.6,292.1 316,289.1 C316.3,286.1 316.1,258.5 317.2,252.3 C318.2,246.1 321.8,234.9 321.8,234.9 L337.3,235.8 C337.4,258.2 319.9,252.2 319.4,253.5 C318.7,254.8 323.3,256.9 323,258.4" id="Path" fill="#5182B0" fill-rule="nonzero"></path>
            <path d="M347.4,259.4 C346.4,264.6 345,290 345.2,290.7 C345.4,291.4 345.2,338 345.2,338 L345,338.1 L338.7,337.9 C338.7,337.9 338.7,299.4 338.7,293.4 C338.7,287.4 337.6,263.9 337.6,263.9 C337.6,263.9 339.3,259.3 342.2,259.6 C344.8,259.9 347.6,258.4 347.4,259.4" id="Path" fill="#5182B0" fill-rule="nonzero"></path>
            <path d="M327.3,162.9 C327.3,163.6 327,164.4 327,165.4 C327,165.8 327.5,166.3 327.6,166.7 C327.9,170 328.7,173.7 330.6,173.7 C334,173.6 336.1,173.9 338.4,173.9 C341.9,173.9 346.3,170 347.1,163 C347.9,156.2 341.1,150.8 334.8,150.9 C328.7,151 327.1,155.6 327.4,161.8 C327.2,162.2 327.3,162.5 327.3,162.9" id="Path" fill="#F5A37E" fill-rule="nonzero"></path>
            <path d="M338,148.8 C332.9,147.9 325.1,152.4 328.1,155.1 C329,155.9 329.2,163.7 329.2,163.7 C329.2,163.7 330.3,163.1 330.7,163.6 C331.1,164.1 331.4,166.8 331.9,168 C332.4,169.2 335.4,173.9 336.2,173.9 C337.1,173.9 342.5,174.1 343.2,173.4 C343.9,172.6 346.3,168.3 347,166 C347.6,163.6 350.9,151.1 338,148.8" id="Path" fill="#8E3C26" fill-rule="nonzero"></path>
            <path d="M329.8,160.8 C329.8,160.5 331.2,159.7 331.9,161.5 C332.2,162.4 331,166.5 330.8,166.5 C330.2,166.5 329.7,162.2 329.8,160.8" id="Path" fill="#F5A37E" fill-rule="nonzero"></path>
            <path d="M314.3,186.2 C315,185 318.9,184 322.5,182.9 C325.7,181.9 328.2,180.6 328.2,180.6 L346,180.7 C346,180.7 349.1,182.1 352.4,182.5 C356.4,183 357.5,184.8 358.1,186 C358.7,187.3 359,198.9 353.7,214.1 C353,216.2 354.8,230.8 353,235.2 L337.3,236.6 L321.6,235.2 C320.2,230.2 321.6,215.9 320.9,213.9 C320.2,211.8 313.1,188.3 314.3,186.2" id="Path" fill="#313131" fill-rule="nonzero"></path>
            <polygon id="Path" fill="#1A1A1A" fill-rule="nonzero" points="326.4 181.6 348 181.6 345 178 329.4 178"></polygon>
            <path d="M315.3,185.4 C315.3,185.4 312.7,185.7 309.1,192.1 C306.6,196.6 297,209.7 297,209.7 C297,209.7 299,213.6 303,215.9 C306.5,217.9 307.7,217.5 307.7,217.5 L320.5,203.6 L315.3,185.4 Z" id="Path" fill="#313131" fill-rule="nonzero"></path>
            <path d="M356.7,184.2 C356.7,184.2 360.7,186.6 362.6,194.4 C363.8,199.4 368,215.1 368,215.1 C368,215.1 364.8,218.1 360.3,218.9 C356.3,219.6 355.4,218.8 355.4,218.8 L348.1,201.4 L356.7,184.2 Z" id="Path" fill="#313131" fill-rule="nonzero"></path>
            <path d="M273,221 C273,221 271.8,219.5 271.5,219.3 C271.3,219.1 269,217.8 268.6,217.1 C268.2,216.4 268.1,215.9 268,215.8 C267.9,215.7 266.3,215.8 266.8,217.2 C267.3,218.5 268.4,219.6 268.3,220 C268.2,220.4 265.3,220.7 264.6,220.5 C263.9,220.3 260.1,218.4 259.9,218.3 C259.7,218.2 259.1,218.1 259,218.3 C258.8,218.5 259.1,219.6 259.3,219.7 C259.5,219.9 258.9,220.1 259,220.3 C259,220.5 259.3,221.4 259.3,221.4 C259.3,221.4 259.4,222.4 259.6,222.8 C259.8,223.1 261.1,224.6 261.2,224.7 C261.4,224.8 264.8,226.6 265.7,226.7 C266.6,226.8 271.8,226.7 273.4,225.1 C274.2,224.4 273,221 273,221" id="Path" fill="#F8BC96" fill-rule="nonzero"></path>
            <path d="M353,238.4 L320.8,238.4 C320.4,238.4 320,238.1 320,237.6 L320.7,235.3 C320.7,234.9 321,234.5 321.5,234.5 L353,234.5 C353.4,234.5 353.8,234.8 353.8,235.3 L353.8,237.6 C353.8,238.1 353.4,238.4 353,238.4" id="Path" fill="#1A1A1A" fill-rule="nonzero"></path>
            <rect id="Rectangle" fill="#B7CAEA" fill-rule="nonzero" x="276.5" y="232.2" width="8.4" height="10.4"></rect>
            <path d="M284.6,241.3 L284.4,240.3 C284.5,240.3 287.6,239.7 287.6,237 C287.6,234.4 284.7,234.3 284.5,234.3 L284.5,233.3 C285.9,233.3 288.5,234.1 288.5,236.9 C288.6,239.9 286,241.1 284.6,241.3" id="Path" fill="#B7CAEA" fill-rule="nonzero"></path>
            <rect id="Rectangle" fill="#B7CAEA" fill-rule="nonzero" x="210.7" y="232.2" width="8.4" height="10.4"></rect>
            <path d="M211.1,241.3 L211.3,240.3 C211.2,240.3 208.1,239.7 208.1,237 C208.1,234.4 211,234.3 211.2,234.3 L211.2,233.3 C209.8,233.3 207.2,234.1 207.2,236.9 C207,239.9 209.7,241.1 211.1,241.3" id="Path" fill="#B7CAEA" fill-rule="nonzero"></path>
            <rect id="Rectangle" fill="#A7A9AB" fill-rule="nonzero" x="937.3" y="307.8" width="6.3" height="38.5"></rect>
            <path d="M924.9,362.1 C924.9,363.5 926,364.6 927.4,364.6 C928.8,364.6 929.9,363.5 929.9,362.1 C929.9,360.7 928.8,359.6 927.4,359.6 C926,359.6 924.9,360.7 924.9,362.1" id="Path" fill="#5F7578" fill-rule="nonzero"></path>
            <rect id="Rectangle" fill="#324142" fill-rule="nonzero" x="896.3" y="316.8" width="12.6" height="6.2"></rect>
            <rect id="Rectangle" fill="#324142" fill-rule="nonzero" x="900.8" y="319.7" width="2.9" height="24.2"></rect>
            <rect id="Rectangle" fill="#415557" fill-rule="nonzero" x="896.3" y="350.1" width="11.5" height="5.5"></rect>
            <path d="M881.4,303.4 C881.8,302.9 882.2,301.7 882.3,300.6 C883,290.8 883.1,279.7 882.4,267.3 C882.3,265.6 881.9,263.5 881.5,262.9 C878.9,258.7 876.1,261 873.3,265.6 C872.9,266.4 872.5,268.3 872.4,269.8 C872.2,280.8 872.7,291.8 873.7,302.6 C873.8,303.8 874.2,305.3 874.5,305.7 C876.5,307.9 878.8,306.3 881.4,303.4" id="Path" fill="#415557" fill-rule="nonzero"></path>
            <path d="M879.4,316.5 L879.4,319.2 L924.3,319.2 L924.3,316.5 C924.3,315.4 923.4,314.4 922.2,314.4 L881.4,314.4 C880.3,314.4 879.4,315.3 879.4,316.5" id="Path" fill="#415557" fill-rule="nonzero"></path>
            <path d="M926.5,361 L929,361 L926.5,355.5 L905.9,352.9 L905.8,353.9 L903.6,352.9 L902.9,354.2 L902,353 L902,352.8 L901.9,352.8 L901.5,352.3 L905.6,352.3 L905.6,329 L898.8,329 L898.8,352.3 L900.7,352.3 L899.7,353.1 L881.4,355.4 L879.8,358.9 C879.1,359.3 878.7,360.1 878.7,360.9 C878.7,362.2 879.8,363.3 881.1,363.3 C882.4,363.3 883.5,362.2 883.5,360.9 C883.5,360.2 883.2,359.6 882.7,359.2 L883.6,358 L894,356.6 C894.8,356.4 895.6,356.2 896.4,356 C892.3,359.2 885.9,363.6 885.9,363.6 L885,366.1 C883.8,366.5 882.9,367.7 882.9,369.1 C882.9,370.9 884.3,372.3 886.1,372.3 C887.9,372.3 889.3,370.9 889.3,369.1 C889.3,368.1 888.8,367.2 888.1,366.6 L888.9,364.9 L902.8,354.8 L902.4,355.6 L919.1,363.2 L919.7,364 C919.3,364.5 919,365.2 919,365.9 C919,367.7 920.4,369.1 922.2,369.1 C924,369.1 925.4,367.7 925.4,365.9 C925.4,364.2 924.1,362.9 922.5,362.8 L921.3,360.9 L913.6,357.3 L924.5,358 L926.5,361 Z" id="Path" fill="#415557" fill-rule="nonzero"></path>
            <path d="M939,308.9 L937.8,307.9 C939,307.8 940.2,307.6 941.3,307.1 C941.9,306.9 942.5,306.6 943.1,306.9 C943.6,307.2 943.8,307.8 943.9,308.3 C944.8,311.8 951.4,341.6 952,343.9 C952.8,347 954.5,349.7 955.8,352.6 C957,355.4 958.3,358.4 959.9,360.9 C960.2,361.4 960.8,361.8 961.4,362.2 C961.8,362.5 962.2,362.7 962.5,362.9 C962.3,363.2 962.1,363.4 961.8,363.7 C961.5,363.9 961.2,364.1 960.9,364.2 L958.2,364.3 L958.1,364.3 C956.9,364 956,363.1 955.4,362.1 C954.7,361 954.6,359.7 953.8,358.8 C952.9,357.7 951.6,357 950.5,356.1 C949.8,355.5 949.2,355 948.4,354.6 C947.8,354.3 947.2,354.1 946.6,353.8 C945.7,353.3 946,352.9 946,352 C946,351.2 946,350.4 946,349.6 C945.9,348.5 945.6,346.9 945.2,345.9 C944.5,344.1 943.7,342.4 942.5,340.9 C939.8,337.4 937.5,332.8 936.7,328.4 C936.4,326.5 936.3,324.6 936.2,322.6 C936.1,320.7 936.4,318.4 935.9,316.6 C935.5,315.4 934.7,314.2 934.2,313 C933.8,312 933.4,311 933,310.1 L939,308.9 Z" id="Path" fill="#E4BBA5" fill-rule="nonzero"></path>
            <path d="M945.2,353.1 C945.2,352.7 946,350.9 945.8,350.6 C946.4,351.4 947.1,352.3 947.9,352.9 C950.3,354.8 952.5,356.8 954.5,359.1 C955.3,360 956.2,360.7 957.2,361.2 C957.7,361.4 958.3,361.6 958.9,361.6 C959.1,361.6 959.3,361.7 959.5,361.6 C959.7,361.5 959.9,361.2 960.2,361.2 C960.3,361.2 960.4,361.3 960.5,361.4 C961,361.9 961.7,362.2 962.3,362.6 C963,363.1 966,364.7 965,365.7 C964.7,366 964,366 963.5,366 C962.6,366 961.8,366 960.9,365.9 C959,365.7 957.2,365.4 955.3,365.1 C953.3,364.7 953.9,361.2 952.6,360 C951.9,359.3 949.3,358.1 948.6,359.3 C948.1,360.3 948.9,362.2 949.1,363.3 C949.2,363.7 949.4,364.5 949.4,365.1 L948.5,365.1 C948.1,362.4 948,359.9 946.3,357.5 C945.5,356.2 945.1,354.6 945.2,353.1" id="Path" fill="#212020" fill-rule="nonzero"></path>
            <path d="M943.1,306.9 C943.2,307 943.4,307 943.5,307.1 C943.9,307.4 944.2,307.7 944.5,308.1 C946.5,310.6 944.6,314.5 943.7,317.2 C942.6,320.6 941.8,324 940.6,327.3 C938.3,333.8 935.9,340.3 933.9,346.9 C932.9,350 933,353.1 932.5,356.3 C932,359.3 931.6,362.5 931.6,365.5 C931.6,366 931.9,366.7 932.2,367.3 C932.4,367.7 932.6,368.1 932.8,368.5 C932.5,368.6 932.2,368.7 931.8,368.8 C931.4,368.9 931.1,368.8 930.7,368.8 L928.4,367.5 L928.4,367.5 C927.5,366.6 927.2,365.4 927.2,364.2 C927.2,363 927.7,361.8 927.6,360.5 C927.4,359.1 926.7,357.8 926.2,356.5 C925.9,355.7 925.6,354.9 925.2,354.1 C924.9,353.5 924.4,353 924.1,352.5 C923.6,351.6 924,351.4 924.6,350.6 C925.1,350 925.5,349.3 925.9,348.5 C926.4,347.6 926.9,346 927.1,345 C927.4,343.1 927.7,341.3 927.5,339.4 C927,335 927.5,329.8 929.1,325.7 C929.8,323.9 930.7,322.2 931.7,320.5 C932.5,319 934.2,317.8 933,316.1 C932.6,315.5 932,315 931.7,314.4 C931.6,314.2 931.5,313.9 931.5,313.7 C931.5,313.3 931.8,313 932,312.7 C933,311.5 934.2,310.5 935.1,309.3 C935.5,308.9 935.5,308.6 936.1,308.4 C936.8,308.2 937.3,308.4 938,308.1 C938.9,307.7 939.7,306.7 940.7,306.5 C941.4,306.2 942.4,306.5 943.1,306.9" id="Path" fill="#FAD2BC" fill-rule="nonzero"></path>
            <path d="M923.3,351.1 C923.5,350.8 925.1,349.7 925.1,349.3 C925.4,351.9 926.7,354 927.5,356.4 C928.4,359.2 927,364.3 930.8,365 C931,365 931.3,365.1 931.5,365.2 C931.8,365.4 932,365.7 932.1,366.1 C932.5,367.1 932.9,368 933.5,368.9 C933.8,369.4 934.9,370.6 933.9,371 C933.4,371.2 932.4,370.7 931.9,370.5 C930.8,370.1 929.8,369.7 928.8,369.1 C928,368.7 926.6,368.2 926.1,367.3 C925,365.3 925.9,363.2 926.2,361.2 C926.4,359.9 925.5,357.8 923.9,358.1 C921.8,358.6 921.6,363 920.9,364.6 C920.6,364.5 920.2,364.3 919.9,364.2 C920.9,361.4 922.1,358.3 921.9,355.3 C921.9,353.9 922.4,352.4 923.3,351.1" id="Path" fill="#2D2D2D" fill-rule="nonzero"></path>
            <path d="M888,314.4 L888,314.4 C888.1,314.4 895,314.4 895.2,314.4 C896.5,314.4 924.1,314.7 924.1,314.7 C926.3,314.7 928,314.7 928.6,314.8 C927.7,312.5 924.4,312 922.1,312 C911,311.5 897.9,311.4 890.4,301.7 C888.2,298.9 887.4,295.3 887.2,291.7 C886.3,293.6 884.8,299.6 884.7,300.5 C884.2,304 884.1,308.4 885.6,311.7 C886.1,312.9 887,313.8 888,314.4" id="Path" fill="#E16F0D" fill-rule="nonzero"></path>
            <path d="M922,312 C910.9,311.5 897.8,311.4 890.3,301.7 C888.1,298.9 887.3,295.3 887.1,291.7 C887.3,291.3 887.5,291.1 887.6,291.1 L910.2,293.1 L939.8,300.1 L945.4,308.1 C945.2,308.2 945.1,308.3 944.9,308.5 C941.7,310.8 938.5,313 935.2,315.2 C934.2,315.9 933.2,316.4 932.2,317 C931.7,317.3 931.4,317.6 931,317.5 C930.1,317.3 929.6,314.8 928.9,314.8 C928.9,314.8 928.8,314.8 928.6,314.8 C927.6,312.4 924.4,312 922,312" id="Path" fill="#E88D3F" fill-rule="nonzero"></path>
            <path d="M915.1,300.5 L915.1,304.6 C915.1,306.6 916.3,308.1 917.9,308.1 L998.4,308.1 C1000,308.1 1001.2,306.5 1001.2,304.6 L1001.2,300.5 L915.1,300.5 Z" id="Path" fill="#D1D2D4" fill-rule="nonzero"></path>
            <polygon id="Path" fill="#A7A9AB" fill-rule="nonzero" points="983.4 276.1 927.4 276.1 915.1 300.5 1001.2 300.5"></polygon>
            <polygon id="Path" fill="#FFFFFF" fill-rule="nonzero" points="951.9 290.5 954.3 296.6 924.1 296.6 927 290.3"></polygon>
            <path d="M903.2,232.5 C904.7,234.1 906,235.3 907.2,236.4 C911.4,240.3 913,241.1 913,241.1 C913.1,241.3 911,244.6 912.3,249.4 C907.4,244.8 904.3,238.9 903.2,232.5" id="Path" fill="#E4BBA5" fill-rule="nonzero"></path>
            <path d="M955.4,279.7 C955.8,280.2 956,280.8 956.2,281.4 C956.4,282 956.8,282.5 956.9,283.1 C957,283.5 956.7,283.9 956.2,283.8 C956,283.7 955.9,283.6 955.7,283.5 C955.5,284.1 955,283.9 954.8,283.5 C954.2,282.7 954.1,281.7 953.1,281.6 C952.4,281.5 951.6,281.6 950.9,281.6 C949.7,281.6 948.5,281.6 947.2,281.6 C947.2,281.6 947.6,280.1 947.6,280 C947.8,279.2 948,278.5 948.9,278.5 C950.1,278.5 951.2,278.5 952.4,278.5 C953,278.5 953.6,278.5 954.1,278.7 C954.8,279 955.2,279.3 955.4,279.7" id="Path" fill="#D1A998" fill-rule="nonzero"></path>
            <path d="M951.5,279.3 C951.3,279.3 951.1,279.4 950.8,279.5 C950.6,279.6 950.3,279.5 950.1,279.6 C950.3,279.5 950.5,279.6 950.7,279.7 C951.1,279.8 951.6,279.8 952,279.8 C952.4,279.8 953.9,280.4 953.5,281 C953.1,281.6 952.2,281.5 951.7,281.4 C950.8,281.3 949.8,281.8 948.9,282.1 C946.6,282.8 944.3,281.9 942.1,281.4 L943.7,278.4 L951.2,276.3 C951.9,276.5 952.6,276.8 953.4,277 C954.4,277.3 955.3,277.7 956.1,278.3 C956.5,278.5 956.6,278.9 956.8,279.3 C957,279.8 957.3,280.3 957.5,280.8 C957.7,281.2 958.5,282.2 958,282.7 C957.7,283 957.2,282.6 957,282.4 C956.5,281.7 956.1,280.5 955.4,280 C954.4,279.3 952.7,279.2 951.5,279.3" id="Path" fill="#E2BCA2" fill-rule="nonzero"></path>
            <path d="M951.5,279.3 C951.3,279.3 951.1,279.4 950.8,279.5 C950.6,279.6 950.3,279.5 950.1,279.6 C950.3,279.5 950.5,279.6 950.7,279.7 C951.1,279.8 951.6,279.8 952,279.8 C952.4,279.8 953.9,280.4 953.5,281 C953.1,281.6 952.2,281.5 951.7,281.4 C950.8,281.3 949.8,281.8 948.9,282.1 C946.6,282.8 944.3,281.9 942.1,281.4 L943.7,278.4 L951.2,276.3 C951.9,276.5 952.6,276.8 953.4,277 C954.4,277.3 955.3,277.7 956.1,278.3 C956.5,278.5 956.6,278.9 956.8,279.3 C957,279.8 957.3,280.3 957.5,280.8 C957.7,281.2 958.5,282.2 958,282.7 C957.7,283 957.2,282.6 957,282.4 C956.5,281.7 956.1,280.5 955.4,280 C954.4,279.3 952.7,279.2 951.5,279.3" id="Path" fill="#E4BBA5" fill-rule="nonzero"></path>
            <path d="M912.1,248.6 L913.6,249.4 C915.4,250.3 916.8,251.8 917.5,253.7 L925.4,273.6 L946.3,277.1 L945.4,282.8 L924.8,282.7 C922.9,282.5 921.1,281.4 920.1,279.7 L913.2,271.8 L912.1,248.6 Z" id="Path" fill="#FFFFFF" fill-rule="nonzero"></path>
            <path d="M917.6,238.1 C918,238.2 918.1,238.7 917.9,239.1 C917.8,239.5 917.5,239.8 917.3,240.2 C917.2,240.6 917.3,241.1 917.2,241.5 C917.1,242.4 916.2,243.1 915.3,243.2 C914.4,243.4 913.5,243.1 912.6,242.8 C909.3,241.7 906,240 904,237.1 C902.2,234.5 901.6,231.2 901.3,228.1 C901.1,226.2 900.9,224.2 901.4,222.3 C901.5,221.7 901.7,221.2 902,220.7 C904.4,216 909.8,215.5 914.2,217.1 C918.5,218.7 921.1,223.6 920.1,228 C920,228.5 919.7,229 919.6,229.5 C919.4,230.6 920.1,231.7 920.6,232.6 C920.9,233.2 921.9,235 920.9,235.5 C920.4,235.8 919.8,235.5 919.4,235.9 C919,236.3 918.8,236.9 918.8,237.5 L918.7,237.8 C918.7,238 917.9,238.1 917.6,238.1" id="Path" fill="#FAD2BC" fill-rule="nonzero"></path>
            <path d="M897.9,247.5 C898.4,247 899,246.4 899.5,245.8 C900.5,244.5 901.4,243.2 901.9,241.6 C902.9,238.7 903.3,235.5 903.2,232.4 L903.3,232.5 C904.4,238.9 907.5,244.9 912.4,249.3 C912.4,249.5 912.5,249.7 912.6,249.9 C914.2,252.7 915.7,254.9 913.7,256.2 C912.1,257.2 906,255.1 903.7,254.1 C903.1,253.9 902.8,253.7 902.8,253.7 C902.4,253.5 901.9,251.9 901.6,251.4 C901.3,250.8 900.9,250 900.4,249.6 C900,249.3 899.6,249.1 899.1,249 C898.6,248.9 897.5,249.1 897.1,248.9 C896.3,248.6 897.4,248 897.9,247.5" id="Path" fill="#FAD2BC" fill-rule="nonzero"></path>
            <path d="M914.1,253.1 C914.1,253.1 911.3,255.9 903.9,253.3 C904.6,268.3 905.6,275.3 905.6,275.3 L914.5,278.3 L917.5,268.5 L914.1,253.1 Z" id="Path" fill="#FFFFFF" fill-rule="nonzero"></path>
            <path d="M919.4,269.6 C919.4,270.6 912.6,287.3 910.8,291.9 C910.7,292.2 910.6,292.5 910.5,292.7 C910.4,293 910.3,293.1 910.3,293.1 L910.3,293.1 C909.7,293.1 902.3,292.6 887.8,291.1 L887.7,291.1 C887.8,290.9 887.8,290.7 887.9,290.4 C888.1,289.7 888.3,288.8 888.4,287.9 C890,277.9 889.6,258.2 889.6,258.2 L891.6,256.1 L903.1,255.3 C903.1,255.3 911.4,266.9 914.6,267.9 C914.5,267.9 914.6,266.5 914.6,266.4 C914.6,265.9 914.6,265.3 914.6,264.8 C914.6,263.7 914.6,262.6 914.5,261.5 C914.4,259.5 914.3,257.5 914,255.5 C913.9,254.5 913.7,253.5 913.5,252.6 C913.4,252.1 913.3,251.7 913.2,251.2 C913.1,250.9 913,250.7 912.9,250.5 C912.8,250.3 912.7,250.1 912.6,249.8 L912.7,249.9 C912.9,250.1 913,250.2 913.1,250.4 C913.2,250.6 913.4,250.8 913.5,251.1 C913.7,251.7 913.9,252.2 914.2,252.8 C914.6,253.8 914.9,254.7 915.3,255.7 C916,257.7 916.5,259.6 917.2,261.6 C917.8,263.4 918.4,265.1 918.9,266.9 C918.9,267.7 919.4,268.7 919.4,269.6" id="Path" fill="#E88D3F" fill-rule="nonzero"></path>
            <path d="M910.8,291.9 C910.7,292.2 910.6,292.5 910.5,292.7 L887.9,290.4 C888.1,289.7 888.3,288.8 888.4,287.9 C892.5,288.5 906.4,291.3 910.8,291.9" id="Path" fill="#030304" fill-rule="nonzero"></path>
            <path d="M908.5,228.7 C908.4,228.4 908.3,228.2 908.2,227.9 C907.8,227.1 907.1,226.5 906.2,226.4 C905,226.4 904,227.6 904,228.8 C903.9,230 904.5,231.2 905,232.3 C904.4,233.7 903.7,235.1 903.1,236.5 C902.5,236.5 901.2,234.4 900.8,234 C899.2,231.9 897.4,228.5 897.1,225.8 C897.1,225.6 897,225.3 896.8,225.3 C896.7,225.3 896.6,225.3 896.5,225.3 C895.8,225.4 895.3,224.8 894.8,224.3 C894.6,224.1 894.5,224 894.4,223.7 C893.4,221.9 894.8,218.3 896.2,217 C897.5,215.8 899.3,215.2 901,215.4 C901.8,215.5 902.4,215.9 903.1,216 C904,216.1 904.8,215.4 905.6,215.1 C909.2,213.7 913.4,214.6 916.3,217.1 C917.9,218.4 919,219.6 919.6,221.6 C920,221.5 920.5,221.7 920.8,222 C921.1,222.3 921.3,222.7 921.4,223.2 C921.8,224.6 921.8,226.1 921.4,227.5 C921.4,227.7 917.8,228.1 917.3,228.3 C917.7,227.2 917,225.4 916,224.8 C914.3,223.7 913.1,225.6 912,226.6 C911.3,227.2 908.7,229.4 908.8,230.4 C908.8,229.9 908.7,229.3 908.5,228.7" id="Path" fill="#CCA74A" fill-rule="nonzero"></path>
            <path d="M929,289.4 L934.6,289.8 L939.4,290.3 C939.8,290.3 940.3,290.5 940.6,290.8 C941.9,291.9 943.4,292.7 944.6,293.9 C945.4,294.7 945.7,295.2 944.3,295.6 C943.4,295.8 942.6,295.5 942,294.8 C942.2,295.1 942.5,295.4 942.4,295.8 C942.2,296.6 941.5,296.1 941,295.9 C940.1,295.5 939.2,295 938.3,294.6 C937.7,294.3 937.1,294.3 936.5,294.4 L932.2,295.3 C931.7,295.4 931.1,295.4 930.6,295.2 L927.2,294.1 L929,289.4 Z" id="Path" fill="#FAD2BC" fill-rule="nonzero"></path>
            <path d="M897.6,247.6 C900.3,247.1 903.2,251.2 903.9,253.4 C904.8,256.4 905.1,259.6 905.7,262.6 C906.5,266.2 907.8,269.6 908.2,273.2 C908.4,274.6 908.4,275.9 908.8,277.3 C909.4,279.4 911,279.6 912.9,280.5 C917.9,282.8 931,289.4 931.2,289.5 L928.7,295.5 C928.3,295.4 928,295.3 927.7,295.2 C925.1,294.6 922.6,293.9 920,293.3 C915.7,292.2 911.7,290.4 907.3,289.4 C905.1,288.9 902.1,288.5 900.3,287 C899,285.9 898.7,283.8 897.9,282.3 C896.6,279.5 895.3,276.7 893.9,274 C893.3,272.7 892.6,271.3 892,270 C891.6,269.1 890.9,266.5 890.1,266 C889.9,265.9 889.8,265.8 889.7,265.7 C887.2,257.4 892.7,248.5 897.6,247.6" id="Path" fill="#FFFFFF" fill-rule="nonzero"></path>
            <path d="M974.8,294.7 C974.5,294.8 973.9,294.9 973,295.1 C973,294.7 972.9,294.3 972.9,293.9 C973.9,294 974.4,294 974.7,294 L974.8,294.7 Z" id="Path" fill="#24B7EA" fill-rule="nonzero"></path>
            <polygon id="Path" fill="#24B7EA" fill-rule="nonzero" points="957 294.6 955.1 294.8 956.3 297 957.6 296.9"></polygon>
            <path d="M963.1,296.5 L962.9,294.1 C963.1,294.1 963.4,294.1 963.6,294.1 L963.8,296.5 C963.6,296.4 963.4,296.5 963.1,296.5" id="Path" fill="#414142" fill-rule="nonzero"></path>
            <path d="M964.5,294 C967,293.9 969.4,293.9 973,293.8 C973,294.3 973.1,294.7 973.1,295.2 C969.6,295.7 967.2,296 964.7,296.3 L964.5,294 Z" id="Path" fill="#595A5C" fill-rule="nonzero"></path>
            <path d="M957.4,294.8 C957.4,294.8 957.3,294.4 957.7,294 C958.2,293.6 959.1,293.4 960.4,293.3 C963.1,293.2 966.3,292.8 966.4,292.8 C966.4,292.8 966,293.9 964.5,293.5 C963.6,293.6 959.6,294 959.6,294 C959.6,294 959.3,294 959.2,294.2 C959.1,294.3 959,294.4 959.2,294.7 C959.3,294.9 959.3,295 959.2,295.1 C958.8,295.4 957.8,295 957.4,294.8 L957.4,294.8 L957.4,294.8 Z" id="Path" fill="#595A5C" fill-rule="nonzero"></path>
            <path d="M963.9,296.4 L963.7,294 C964,294 964.3,294 964.6,294 L964.8,296.3 C964.4,296.3 964.1,296.4 963.9,296.4" id="Path" fill="#24B7EA" fill-rule="nonzero"></path>
            <path d="M957.1,297 C957,296.2 957,295.4 956.9,294.6 C959.3,294.4 961.2,294.2 963,294.1 L963.2,296.5 C961.4,296.7 959.5,296.8 957.1,297" id="Path" fill="#595A5C" fill-rule="nonzero"></path>
            <path d="M974.8,294 C974.9,294 975.1,294 975.2,294.1 C975.5,294.2 975.7,294.2 975.8,294.3 C975.7,294.4 975.5,294.5 975.3,294.6 C975.1,294.7 975,294.7 974.8,294.8 C974.8,294.5 974.8,294.2 974.8,294" id="Path" fill="#414142" fill-rule="nonzero"></path>
            <rect id="Rectangle" fill="#A7A9AB" fill-rule="nonzero" x="983.2" y="308.1" width="6.3" height="63"></rect>
            <rect id="Rectangle" fill="#A7A9AB" fill-rule="nonzero" x="972.1" y="307.8" width="6.3" height="38.5"></rect>
            <rect id="Rectangle" fill="#A7A9AB" fill-rule="nonzero" x="928.5" y="308.1" width="6.3" height="63"></rect>
            <path d="M944.8,288.3 C944.8,287.1 945.9,286.2 947.3,286.2 L974.1,286.2 C975.5,286.2 976.6,287.1 976.6,288.3 C976.6,289.5 975.5,290.4 974.1,290.4 L947.3,290.4 C946,290.4 944.8,289.5 944.8,288.3" id="Path" fill="#FFFFFF" fill-rule="nonzero"></path>
            <path d="M971.7,287.9 L949.7,287.9 C948.6,287.9 947.7,287.1 947.7,286.2 L973.7,286.2 C973.7,287.2 972.8,287.9 971.7,287.9" id="Path" fill="#EBF5FC" fill-rule="nonzero"></path>
            <path d="M947.4,289.4 L974.2,289.4 C975.4,289.4 976.3,288.7 976.6,287.8 C976.6,288 976.7,288.1 976.7,288.3 C976.7,289.5 975.6,290.4 974.2,290.4 L947.4,290.4 C946,290.4 944.9,289.5 944.9,288.3 C944.9,288.1 945,288 945,287.8 C945.2,288.7 946.2,289.4 947.4,289.4" id="Path" fill="#CCE5F5" fill-rule="nonzero"></path>
            <path d="M974.7,287.3 C974.7,288.4 975.6,289.2 976.6,289.2 C977.7,289.2 978.5,288.3 978.5,287.3 L984.7,253.3 C984.7,252.2 983.8,251.4 982.8,251.4 C981.7,251.4 980.9,252.3 980.9,253.3 L974.7,287.3 Z" id="Path" fill="#CCE5F5" fill-rule="nonzero"></path>
            <path d="M919.4,219.9 C919.4,219.9 908,223.6 906.2,233.4 C906.2,233.4 904.4,233.8 904.4,232.4 C904.4,231 908.2,219.5 917.1,216.9 C917,216.9 918.2,217.9 919.4,219.9" id="Path" fill="#3F3E3C" fill-rule="nonzero"></path>
            <path d="M906.1,232.7 C906.1,232.7 906.1,235.9 908.2,236.8 C910.3,237.7 912.7,238.4 912.7,238.4 L912.5,239.1 C912.5,239.1 909.9,238.5 908.1,237.8 C905.3,236.8 905.1,233 905.1,233 L906.1,232.7 Z" id="Path" fill="#3F3E3C" fill-rule="nonzero"></path>
            <path d="M912.7,239.4 L914.9,239.7 C915.4,239.8 915.8,239.4 915.8,239 C915.9,238.5 915.5,238.1 915.1,238.1 L912.9,237.8 C912.4,237.7 912,238.1 912,238.5 C911.9,239 912.2,239.4 912.7,239.4" id="Path" fill="#2D2D2A" fill-rule="nonzero"></path>
            <path d="M871.2,170.2 C870.9,168.2 869.4,166.7 867.4,166.3 C861.8,165.3 852.4,165.3 850.5,165.3 C848.6,165.3 839.2,165.3 833.6,166.3 C831.6,166.6 830.2,168.2 829.8,170.2 C829.5,171.9 829.3,173.5 829.2,175 C834.2,175 842.2,175.2 847.5,176.1 C850.9,176.7 853.4,179.3 854,182.7 C855.1,189.4 855.1,191.1 855.1,197.5 C855.1,198.3 855.1,199.4 855.1,200.9 L864.4,208.4 C865.1,208.8 865.7,208.6 866.1,208.2 C866.4,207.9 866.4,207.5 866.2,207 L863.7,200.2 C865.1,200.1 866.4,199.9 867.6,199.7 C869.6,199.4 871,197.8 871.4,195.8 C872.3,190 872.3,184.8 872.3,182.9 C872.1,177.3 872.1,176 871.2,170.2" id="Path" fill="#147ABF" fill-rule="nonzero"></path>
            <path d="M846.9,178.9 C840.6,177.8 830.1,177.8 828,177.8 C825.9,177.8 815.4,177.8 809.1,178.9 C806.9,179.3 805.3,181 804.9,183.2 C803.9,189.7 803.9,195.4 803.9,197.6 C803.9,199.7 803.9,205.5 804.9,212 C805.3,214.2 806.9,215.9 809.1,216.3 C809.9,216.4 810.8,216.6 811.8,216.7 L816.5,210.2 C816.7,209.8 817,210.1 817,210.1 L813,224.4 L813,224.4 L812.9,224.6 C812.9,224.9 812.9,225.2 813.1,225.5 C813.5,226.1 814.3,226.3 814.9,225.9 L828.9,217.4 C832.1,217.4 841.3,217.3 847,216.3 C849.2,215.9 850.8,214.2 851.2,212 C852.3,205.5 852.3,199.8 852.3,197.6 C852.3,191.1 852.3,189.7 851.2,183.2 C850.7,180.9 849,179.2 846.9,178.9" id="Path" fill="#90CBE8" fill-rule="nonzero"></path>
            <text id="?" fill="#FFFFFF" font-family="Helvetica" font-size="40.1224" font-weight="normal">
                <tspan x="820.6638" y="210.6835">?</tspan>
            </text>
            <path d="M744.9,273.4 C745,274.7 742.8,278 742.1,278.5 C741.4,279 740.7,281.6 740.8,282.2 C741.1,283.2 741.3,284 743.4,284.3 C745.5,284.6 745.6,285.2 746.7,283.6 C747.8,282 748.3,276.7 748.9,274.2 C749.6,271.7 744.9,273.4 744.9,273.4" id="Path" fill="#D8A899" fill-rule="nonzero"></path>
            <path d="M759,310.6 C758.9,311 758.6,311.3 758.2,311.2 L720.5,306.4 C720.1,306.3 719.2,305.3 719.3,304.9 L721.9,286.6 C722,286.2 722.3,285.9 722.7,286 L761,291.5 C761.4,291.6 762.2,292.2 762.2,292.6 L759,310.6 Z" id="Path" fill="#292B36" fill-rule="nonzero"></path>
            <path d="M759.7,311.2 C759.6,311.6 759.3,311.9 758.9,311.8 L720.6,306.3 C720.2,306.2 719.9,305.9 720,305.5 L722.6,287.3 C722.7,286.9 723,286.6 723.4,286.7 L761.7,292.2 C762.1,292.3 762.4,292.6 762.3,293 L759.7,311.2 Z" id="Path" fill="#151823" fill-rule="nonzero"></path>
            <path d="M732.8,288.5 C734.3,283.5 739.9,280.5 744.2,281.3 C749.7,282.3 753,286.9 753.2,291.1 C753.4,295.2 751.6,291.3 751.6,291.3 C751.6,291.3 750.2,283.4 744.1,282.9 C741,282.7 738.2,283.2 735.2,288.6 C733.9,290.6 732.8,288.5 732.8,288.5" id="Path" fill="#151823" fill-rule="nonzero"></path>
            <path d="M746.3,284.1 C746.7,283.3 747,281.4 746,281.3 C745.6,281.2 746.2,282.4 746,282.9 C745.6,283.5 745.1,284.1 745.1,284.1 C745.1,284.1 745.5,283.5 745.8,282.8 C746.2,282.1 745.7,280.7 745.4,280.6 C745,280.4 745.3,281.6 744.8,282.4 C744.4,283.2 744,284 744,284 C744,284 744.3,283.2 744.7,282.4 C745.1,281.4 744.9,280.2 744.5,280.2 C743.8,280.2 744.1,281.4 743.5,282.1 C743,282.8 742.6,283.4 742.6,283.4 C742.6,283.4 743.2,282.7 743.5,282 C743.8,281.2 743.8,280.5 743.6,280.4 C743.4,280.3 742.8,281 742.3,281.8 C741.9,282.5 741.5,283.2 741.5,283.5 C741.5,284.2 742.3,284.1 742.3,284.1 C742.3,284.1 742.9,284.9 743.8,284.7 C744.4,285.3 745,284.8 745,284.8 C745,284.8 745.2,285.2 745.7,285 C746.2,284.8 746.3,284.1 746.3,284.1" id="Path" fill="#CC9584" fill-rule="nonzero"></path>
            <path d="M745.3,274.2 C744.5,275.1 742.5,278.2 742.3,278.8 C742,279.4 742.7,280.3 742.2,282.6 C742,283.4 743,283.1 743.4,282.3 C743.8,281.4 744,280 744.3,279.1 C744.9,277.1 746,274.7 746,274.7 L745.3,274.2 Z" id="Path" fill="#D8A899" fill-rule="nonzero"></path>
            <path d="M753,248.1 C751.3,253.1 745,271.3 744.9,274.3 C744.8,277.3 748.3,275.2 748.3,275.2 C748.3,275.2 758.1,260.8 758.6,255.8 C759.1,250.7 753,248.1 753,248.1" id="Path" fill="#D8A899" fill-rule="nonzero"></path>
            <path d="M749.4,299.2 C747.3,303.4 744.9,320 745.2,324.4 C745.5,329.3 741.3,354.8 739.3,359.8 C738,363.1 733.6,370.7 727.9,371.3 C730.1,374 731.7,374.7 738.6,370.5 C741.1,368.9 745.8,366.7 746.9,365.3 C749.1,362.6 746.1,361.4 747.3,358.9 C749.8,353.5 757.4,335.6 756.4,325.5 C755.8,319.3 761,301.9 761,299.8 C761,297.7 749.4,299.2 749.4,299.2" id="Path" fill="#D8A899" fill-rule="nonzero"></path>
            <path d="M748.1,362.2 C749.1,363.3 749.2,365.4 748.2,367.5 C747.2,369.7 744.3,374.1 744.5,376 C743.2,376.1 743.3,375.8 743.3,375.8 C743.3,375.8 744.9,368.9 743.7,369.2 C742.5,369.5 739.8,372.8 737.5,374.8 C735.1,376.8 727.3,374.9 726.9,374.2 C726.6,373.5 726.4,371.2 728.3,370.8 C730.2,370.4 731.9,369.5 731.9,369.5 C731.9,369.5 736.4,371.7 738.9,369.1 C745,362.7 748.1,362.2 748.1,362.2" id="Path" fill="#212121" fill-rule="nonzero"></path>
            <path d="M760.9,309.4 C762,313.9 770.2,322.8 772.1,324.1 C774.1,325.5 787.9,346.8 789.6,353.3 C790.5,356.7 791.3,367.1 787.4,371.3 C790.8,371.9 792,371.4 796.3,362.8 C797.6,360.2 799.5,360 799.4,358.1 C799.2,353.9 797.1,355.4 794.9,349.8 C792.7,344.3 790.9,325.3 780.8,317.3 C775.9,313.4 776,304.7 774.6,303.1 C773.5,301.6 760.9,309.4 760.9,309.4" id="Path" fill="#D8A899" fill-rule="nonzero"></path>
            <path d="M797,353.1 C798.4,353.5 800.5,355.7 800.7,358 C800.9,360.4 801.9,365.2 802.9,366.7 C801.9,367.4 801.7,367.2 801.7,367.2 C801.7,367.2 798.6,360.3 797.7,361.1 C796.8,361.9 798,367.2 796.9,370.1 C795.8,373 788.1,375.3 787.4,374.8 C786.7,374.3 785.5,372.5 786.9,371.2 C788.4,369.9 789.4,368.2 789.4,368.2 C789.4,368.2 793.9,368.1 794.7,364.5 C795.6,361.1 797,353.1 797,353.1" id="Path" fill="#151823" fill-rule="nonzero"></path>
            <path d="M767.1,262.1 C768.2,266 773.2,271.8 773.2,279.3 C773.2,286.8 786.2,304.7 791.1,312.7 C783.9,312.7 775.4,321.1 769.2,321.7 C767.7,321.9 765.2,321 763.8,321.1 C751.4,321.3 741.9,317.6 741.9,317.6 C741.9,317.6 744.4,277.2 748.5,263.3 C760.5,262.4 767.1,262.1 767.1,262.1" id="Path" fill="#275A38" fill-rule="nonzero"></path>
            <path d="M760.5,192.1 C764.8,193.3 767.5,200.1 767.5,203.4 C767.5,206.7 771.2,223.9 778.5,222.6 C778.5,222.6 771.4,225.1 769.8,219.8 C773,225.3 774.8,225 777.1,224.6 C775,227.6 771.1,229.4 769,228 C766.9,226.6 760.7,224.5 758,214.3 C755.4,204.1 756.8,201.5 758.7,197.8 C760.6,194.1 760.5,192.1 760.5,192.1" id="Path" fill="#683328" fill-rule="nonzero"></path>
            <path d="M750.1,224.7 C750.2,225.6 745.1,237.2 745.1,237.2 L747.4,236.8 L750.6,225.3 L750.1,224.7 Z" id="Path" fill="#3A8835" fill-rule="nonzero"></path>
            <path d="M753,219 C751.4,220.1 748.7,222.9 748.7,222.9 L750.4,228.7 L754.3,221.2 L753,219 Z" id="Path" fill="#3A8835" fill-rule="nonzero"></path>
            <path d="M765.2,222 C764,219.2 759.1,213.2 758.3,199.7 C758,194.1 746,212.7 746,212.7 C749.2,214.3 752.3,218.6 751.5,223.1 C748.8,231.4 746.6,236.5 747.1,236.3 C745.5,241.1 766.2,222.8 765.2,222" id="Path" fill="#D8A899" fill-rule="nonzero"></path>
            <path d="M758,221.4 C756.6,222.4 753,224.5 753,224.5 C751.7,227.7 748.9,230.5 744.3,237.7 C743,239.7 744.1,244.6 745.8,245.6 C747,246.3 746.2,253.8 746.2,255.3 C746.1,266.2 748.3,264.4 748.3,264.4 C748.3,264.4 765.1,263.6 767,263.2 C775.6,261.3 766.9,250.2 767.5,235.7 C767.7,231.3 769.6,227.7 767.5,223.3 C766.4,221.8 764.9,220.6 762.9,218.3 C760.2,219.4 760.2,219.9 758,221.4" id="Path" fill="#3A8835" fill-rule="nonzero"></path>
            <path d="M742.3,209.2 C742.3,208.7 743.3,207.6 743.5,204.6 C743.5,203.9 742.9,202 742.9,201.8 C742.8,194.5 745.9,191 751.8,190.9 C757.6,190.8 758.8,193.3 758.8,200.6 C758.9,207.9 756.2,212.8 754.4,214 C753.3,214.7 747.8,216.3 746.6,215.5 C745,214.5 744.5,213.1 744.1,210.5 C743.4,210.5 742.3,210.2 742.3,209.2" id="Path" fill="#D8A899" fill-rule="nonzero"></path>
            <path d="M746.9,233.6 C748.4,231.9 752,226.2 753.3,223.9 C754.1,222.5 754.6,223.7 754.6,223.7 L746.9,233.6 Z" id="Path" fill="#FFFFFF" fill-rule="nonzero"></path>
            <polygon id="Path" fill="#FFFFFF" fill-rule="nonzero" points="754.4 227.3 751.7 222.5 761.4 215.6 763 217.8"></polygon>
            <path d="M761.3,212.1 C760.8,209.6 762.4,209.4 761.4,208.6 C763.7,206.3 766.2,202.3 764.4,196.6 C762.2,189.8 753.5,188.9 747,191.8 C745.6,192.4 744.8,193.5 744.5,194.3 C741.3,196.5 744.4,196.7 745.3,198.2 C747.6,202 752,203.2 752.3,203.8 C752.5,204.4 754.6,201.9 755.6,203.1 C756.2,203.9 756.2,204.9 755.9,205.7 L755.8,205.7 L755.8,205.9 C755.5,206.7 755.1,207.3 755.1,207.3 L755.3,207.6 C754.8,208.5 754,211.8 755.2,213 C757,214.9 757.3,213.1 757.2,214.9 C757,216.7 756.3,216.9 757.8,218.4 C759.3,219.9 759.4,219.3 758,222.4 C756.6,225.5 758.5,225.2 759.4,226.4 C758.9,225.6 756.8,221.8 761.5,221.6 C763.2,221.5 763.5,220.9 763.4,217.6 C763.3,214.2 761.9,215.4 761.3,212.1" id="Path" fill="#683328" fill-rule="nonzero"></path>
            <path d="M765.2,222 C767.8,221.9 770.3,224.4 771,226.6 C771.7,228.8 770.9,236.9 769.4,238.2 C767.9,239.4 761.1,237.6 760.1,237.1 C759.1,236.6 761.3,226.4 762.1,224.6 C762.8,222.9 765.2,222 765.2,222" id="Path" fill="#3A8835" fill-rule="nonzero"></path>
            <path d="M759.3,206.6 C759.5,206.9 759.5,207.2 759.2,207.5 L749.8,215.9 C749.5,216.1 749.2,216.1 748.9,215.8 L745.4,211.8 C745.2,211.5 745.2,211.2 745.5,210.9 L755,202.5 C755.2,202.3 755.6,202.3 755.9,202.5 L759.3,206.6 Z" id="Path" fill="#151823" fill-rule="nonzero"></path>
            <path d="M754.5,208.8 C754.5,208.8 754.2,208.2 753.8,207.2 C753.6,206.5 753.3,206.2 752.9,205.9 C752.5,205.4 751.9,205.3 752.3,206 C752.7,206.8 752.8,207.1 753,207.5 C753.2,208.2 753.2,209.2 753.2,209.2 C753.2,209.2 752.6,208.1 752.3,207.3 C752.1,206.7 751.4,206 751.2,205.8 C750.7,205.3 750.4,205.6 750.6,206.1 C751.1,207 751.5,207.6 751.5,207.6 L752,209.9 C752,209.9 750.8,205.9 750,206.1 C749.6,206.2 750,206.6 750.4,208.1 C750.9,209.6 750.8,210.2 750.8,210.2 C750.8,210.2 750,207.6 749.7,207 C749.5,206.5 749.1,206.4 749.2,207.5 C749.3,208.6 749.8,209.7 749.8,210.7 C749.8,213.1 751.3,217 751.3,217 C753.1,226.2 758.4,240 760.4,241.8 C760.4,241.8 763.2,244.5 764.6,244.1 C766.9,243.4 766.7,236.7 766.7,236.7 C764.8,231.8 757.7,221 755.1,216.3 C755,215.5 756,213.8 756.2,211.8 C756.2,211.8 756.5,209.9 756.6,209.7 C755.9,210.3 755.3,210.7 755.3,210.7 L754.5,208.8 Z" id="Path" fill="#CC9584" fill-rule="nonzero"></path>
            <path d="M765.4,243.3 C766.2,242.8 769.5,235.6 769.5,233.8 C769.5,232.1 766.9,226.9 762.4,228.2 C760.8,228.6 762.8,234.3 762.5,234.7 C762.3,235.1 765.4,243.3 765.4,243.3" id="Path" fill="#CC9584" fill-rule="nonzero"></path>
            <path d="M410.4,185.9 C414.7,185.9 418.1,182.5 418.1,178.2 C418.1,173.9 414.7,170.5 410.4,170.5 C406.1,170.5 402.7,173.9 402.7,178.2 C402.7,182.5 406.2,185.9 410.4,185.9 L410.4,185.9 Z" id="Path" fill="#0068B3" fill-rule="nonzero"></path>
            <path d="M512.6,166.1 C514.2,166.1 515.5,164.8 515.5,163.2 C515.5,161.6 514.2,160.3 512.6,160.3 C511,160.3 509.8,161.6 509.8,163.2 C509.8,164.8 511.1,166.1 512.6,166.1 L512.6,166.1 Z" id="Path" fill="#0068B3" fill-rule="nonzero"></path>
            <path d="M458.6,170.4 C462.3,170.4 465.3,167.4 465.3,163.7 C465.3,160 462.3,157 458.6,157 C454.9,157 451.9,160 451.9,163.7 C451.9,167.4 454.9,170.4 458.6,170.4 L458.6,170.4 Z" id="Path" fill="#0068B3" fill-rule="nonzero"></path>
            <polygon id="Path" fill="#0068B3" fill-rule="nonzero" points="408.9 178.9 458.7 164.3 512.1 163.3 512.1 161.9 458.5 163 408.5 177.6"></polygon>
            <polyline id="Path" fill="#0068B3" fill-rule="nonzero" points="459 163.6 466.8 138.5 465.5 138 457.7 163.2"></polyline>
            <path d="M466.4,142.2 C469,142.2 471.1,140.1 471.1,137.5 C471.1,134.9 469,132.8 466.4,132.8 C463.8,132.8 461.7,134.9 461.7,137.5 C461.7,140.1 463.8,142.2 466.4,142.2 L466.4,142.2 Z" id="Path" fill="#0068B3" fill-rule="nonzero"></path>
        </g>
        <g id="achtergrond-header-images" fill-rule="nonzero">
            <path d="M667.789,151 L660.652,151 L662.563,125.416 L669.193,125.416 C672.599017,125.416 675.354989,126.41049 677.461,128.3995 C679.567011,130.38851 680.62,133.098983 680.62,136.531 C680.62,141.289024 679.443512,144.889988 677.0905,147.334 C674.737488,149.778012 671.637019,151 667.789,151 Z M668.764,127.912 L665.293,127.912 L663.772,148.504 L668.101,148.504 C670.831014,148.504 673.086491,147.561509 674.8675,145.6765 C676.648509,143.791491 677.539,140.89902 677.539,136.999 C677.539,134.164986 676.752508,131.942008 675.1795,130.33 C673.606492,128.717992 671.468014,127.912 668.764,127.912 Z M694.504,144.994 L695.479,134.152 C695.140998,134.074 694.751002,134.0155 694.309,133.9765 C693.866998,133.9375 693.438002,133.918 693.022,133.918 C691.565993,133.918 690.207506,134.814991 688.9465,136.609 C687.685494,138.403009 687.055,141.041983 687.055,144.526 C687.055,146.112008 687.282498,147.223497 687.7375,147.8605 C688.192502,148.497503 688.744997,148.816 689.395,148.816 C690.071003,148.816 690.857496,148.497503 691.7545,147.8605 C692.651504,147.223497 693.567995,146.268006 694.504,144.994 Z M696.142,131.89 L698.482,131.5 L696.727,151 L694.036,151 L694.348,147.88 L694.231,147.88 C693.372996,149.076006 692.463005,149.953497 691.501,150.5125 C690.538995,151.071503 689.525005,151.351 688.459,151.351 C687.184994,151.351 686.151504,150.850505 685.3585,149.8495 C684.565496,148.848495 684.169,147.139012 684.169,144.721 C684.169,140.482979 685.098491,137.233011 686.9575,134.971 C688.816509,132.708989 690.915988,131.578 693.256,131.578 C693.828003,131.578 694.347998,131.604 694.816,131.656 C695.284002,131.708 695.725998,131.785999 696.142,131.89 Z M702.226,134.152 L702.226,131.929 L704.449,131.929 L704.839,127.834 L707.608,127.405 L707.14,131.929 L711.079,131.929 L710.845,134.152 L706.906,134.152 L705.775,145.345 C705.644999,146.697007 705.729499,147.613498 706.0285,148.0945 C706.327501,148.575502 706.801997,148.816 707.452,148.816 C707.946002,148.816 708.381498,148.777 708.7585,148.699 C709.135502,148.621 709.609997,148.491001 710.182,148.309 L710.182,150.766 C709.531997,151.000001 708.966502,151.156 708.4855,151.234 C708.004498,151.312 707.374004,151.351 706.594,151.351 C705.267993,151.351 704.286503,150.909004 703.6495,150.025 C703.012497,149.140996 702.797999,147.646011 703.006,145.54 L704.176,134.152 L702.226,134.152 Z M723.52,144.994 L724.495,134.152 C724.156998,134.074 723.767002,134.0155 723.325,133.9765 C722.882998,133.9375 722.454002,133.918 722.038,133.918 C720.581993,133.918 719.223506,134.814991 717.9625,136.609 C716.701494,138.403009 716.071,141.041983 716.071,144.526 C716.071,146.112008 716.298498,147.223497 716.7535,147.8605 C717.208502,148.497503 717.760997,148.816 718.411,148.816 C719.087003,148.816 719.873496,148.497503 720.7705,147.8605 C721.667504,147.223497 722.583995,146.268006 723.52,144.994 Z M725.158,131.89 L727.498,131.5 L725.743,151 L723.052,151 L723.364,147.88 L723.247,147.88 C722.388996,149.076006 721.479005,149.953497 720.517,150.5125 C719.554995,151.071503 718.541005,151.351 717.475,151.351 C716.200994,151.351 715.167504,150.850505 714.3745,149.8495 C713.581496,148.848495 713.185,147.139012 713.185,144.721 C713.185,140.482979 714.114491,137.233011 715.9735,134.971 C717.832509,132.708989 719.931988,131.578 722.272,131.578 C722.844003,131.578 723.363998,131.604 723.832,131.656 C724.300002,131.708 724.741998,131.785999 725.158,131.89 Z M747.778,127.756 L747.505,127.756 L742.435,141.874 L750.391,141.874 L747.778,127.756 Z M750.157,125.416 L755.227,151 L751.99,151 L750.742,144.37 L741.421,144.37 L739.12,151 L736,151 L745.828,125.416 L750.157,125.416 Z M769.033,144.994 L770.008,134.152 C769.669998,134.074 769.280002,134.0155 768.838,133.9765 C768.395998,133.9375 767.967002,133.918 767.551,133.918 C766.094993,133.918 764.736506,134.814991 763.4755,136.609 C762.214494,138.403009 761.584,141.041983 761.584,144.526 C761.584,146.112008 761.811498,147.223497 762.2665,147.8605 C762.721502,148.497503 763.273997,148.816 763.924,148.816 C764.600003,148.816 765.386496,148.497503 766.2835,147.8605 C767.180504,147.223497 768.096995,146.268006 769.033,144.994 Z M770.671,131.89 L773.011,131.5 L771.256,151.195 C771.021999,153.821013 770.177007,155.705994 768.721,156.85 C767.264993,157.994006 765.56201,158.566 763.612,158.566 C762.623995,158.566 761.707504,158.527 760.8625,158.449 C760.017496,158.371 759.101005,158.241001 758.113,158.059 L758.113,155.368 C759.075005,155.628001 759.984996,155.822999 760.843,155.953 C761.701004,156.083001 762.558996,156.148 763.417,156.148 C764.899007,156.148 766.075496,155.764504 766.9465,154.9975 C767.817504,154.230496 768.343999,152.989009 768.526,151.273 L768.877,147.88 L768.76,147.88 C767.875996,149.076006 766.959505,149.953497 766.0105,150.5125 C765.061495,151.071503 764.054005,151.351 762.988,151.351 C761.713994,151.351 760.680504,150.850505 759.8875,149.8495 C759.094496,148.848495 758.698,147.139012 758.698,144.721 C758.698,140.482979 759.627491,137.233011 761.4865,134.971 C763.345509,132.708989 765.444988,131.578 767.785,131.578 C768.357003,131.578 768.876998,131.604 769.345,131.656 C769.813002,131.708 770.254998,131.785999 770.671,131.89 Z M776.482,144.292 C776.482,140.001979 777.339991,136.81051 779.056,134.7175 C780.772009,132.62449 782.61799,131.578 784.594,131.578 C786.180008,131.578 787.401996,131.967996 788.26,132.748 C789.118004,133.528004 789.547,134.606993 789.547,135.985 C789.547,138.169011 788.624009,139.949993 786.778,141.328 C784.931991,142.706007 782.436016,143.395 779.29,143.395 C779.29,145.527011 779.627997,146.963496 780.304,147.7045 C780.980003,148.445504 781.941994,148.816 783.19,148.816 C784.074004,148.816 784.925496,148.699001 785.7445,148.465 C786.563504,148.230999 787.388996,147.893002 788.221,147.451 L788.221,149.986 C787.310995,150.480002 786.414004,150.830999 785.53,151.039 C784.645996,151.247001 783.606006,151.351 782.41,151.351 C780.511991,151.351 779.049505,150.792006 778.0225,149.674 C776.995495,148.555994 776.482,146.762012 776.482,144.292 Z M786.661,136.336 C786.661,135.555996 786.453002,134.971002 786.037,134.581 C785.620998,134.190998 785.036004,133.996 784.282,133.996 C783.319995,133.996 782.345005,134.587494 781.357,135.7705 C780.368995,136.953506 779.745001,138.766988 779.485,141.211 C781.773011,141.211 783.540994,140.736505 784.789,139.7875 C786.037006,138.838495 786.661,137.688007 786.661,136.336 Z M802.261,151 L803.47,138.403 C803.626001,136.842992 803.515502,135.764003 803.1385,135.166 C802.761498,134.567997 802.248003,134.269 801.598,134.269 C801.025997,134.269 800.291504,134.515998 799.3945,135.01 C798.497496,135.504002 797.451006,136.270995 796.255,137.311 L795.007,151 L792.238,151 L793.954,132.085 L796.723,131.734 L796.45,134.659 L796.567,134.659 C797.685006,133.540994 798.711995,132.748002 799.648,132.28 C800.584005,131.811998 801.493996,131.578 802.378,131.578 C803.730007,131.578 804.769996,132.065495 805.498,133.0405 C806.226004,134.015505 806.486001,135.659988 806.278,137.974 L805.03,151 L802.261,151 Z M820.552,144.994 L821.566,134.152 C821.227998,134.074 820.831502,134.0155 820.3765,133.9765 C819.921498,133.9375 819.486002,133.918 819.07,133.918 C817.613993,133.918 816.255506,134.814991 814.9945,136.609 C813.733494,138.403009 813.103,141.041983 813.103,144.526 C813.103,146.112008 813.330498,147.223497 813.7855,147.8605 C814.240502,148.497503 814.792997,148.816 815.443,148.816 C816.119003,148.816 816.905496,148.497503 817.8025,147.8605 C818.699504,147.223497 819.615995,146.268006 820.552,144.994 Z M825.271,123.661 L822.775,151 L820.084,151 L820.396,147.88 L820.279,147.88 C819.394996,149.076006 818.478505,149.953497 817.5295,150.5125 C816.580495,151.071503 815.573005,151.351 814.507,151.351 C813.232994,151.351 812.199504,150.850505 811.4065,149.8495 C810.613496,148.848495 810.217,147.139012 810.217,144.721 C810.217,140.482979 811.146491,137.233011 813.0055,134.971 C814.864509,132.708989 816.963988,131.578 819.304,131.578 C819.798002,131.578 820.246498,131.5975 820.6495,131.6365 C821.052502,131.6755 821.422998,131.734 821.761,131.812 L822.463,124.012 L825.271,123.661 Z M838.492,144.994 L839.467,134.152 C839.128998,134.074 838.739002,134.0155 838.297,133.9765 C837.854998,133.9375 837.426002,133.918 837.01,133.918 C835.553993,133.918 834.195506,134.814991 832.9345,136.609 C831.673494,138.403009 831.043,141.041983 831.043,144.526 C831.043,146.112008 831.270498,147.223497 831.7255,147.8605 C832.180502,148.497503 832.732997,148.816 833.383,148.816 C834.059003,148.816 834.845496,148.497503 835.7425,147.8605 C836.639504,147.223497 837.555995,146.268006 838.492,144.994 Z M840.13,131.89 L842.47,131.5 L840.715,151 L838.024,151 L838.336,147.88 L838.219,147.88 C837.360996,149.076006 836.451005,149.953497 835.489,150.5125 C834.526995,151.071503 833.513005,151.351 832.447,151.351 C831.172994,151.351 830.139504,150.850505 829.3465,149.8495 C828.553496,148.848495 828.157,147.139012 828.157,144.721 C828.157,140.482979 829.086491,137.233011 830.9455,134.971 C832.804509,132.708989 834.903988,131.578 837.244,131.578 C837.816003,131.578 838.335998,131.604 838.804,131.656 C839.272002,131.708 839.713998,131.785999 840.13,131.89 Z M865.285,125.065 C867.911013,125.065 870.055992,126.05949 871.72,128.0485 C873.384008,130.03751 874.216,132.773983 874.216,136.258 C874.216,141.120024 873.026512,144.850987 870.6475,147.451 C868.268488,150.051013 865.532015,151.351 862.438,151.351 C859.785987,151.351 857.634508,150.480009 855.9835,148.738 C854.332492,146.995991 853.507,144.344018 853.507,140.782 C853.507,135.685975 854.637989,131.792513 856.9,129.1015 C859.162011,126.410487 861.956983,125.065 865.285,125.065 Z M864.778,127.756 C862.593989,127.756 860.689508,128.821989 859.0645,130.954 C857.439492,133.086011 856.627,136.16698 856.627,140.197 C856.627,143.317016 857.211994,145.513994 858.382,146.788 C859.552006,148.062006 861.072991,148.699 862.945,148.699 C864.97301,148.699 866.838491,147.71751 868.5415,145.7545 C870.244509,143.79149 871.096,140.84702 871.096,136.921 C871.096,133.670984 870.511006,131.331007 869.341,129.901 C868.170994,128.470993 866.650009,127.756 864.778,127.756 Z M880.69,151 L877.375,131.929 L880.339,131.929 L882.874,148.465 L883.03,148.465 L884.083,146.32 C885.045005,144.36999 885.863997,142.270511 886.54,140.0215 C887.216003,137.772489 887.800998,135.075016 888.295,131.929 L891.181,131.929 C890.686998,134.945015 890.024004,137.661988 889.192,140.08 C888.359996,142.498012 887.359006,144.811989 886.189,147.022 L884.083,151 L880.69,151 Z M892.663,144.292 C892.663,140.001979 893.520991,136.81051 895.237,134.7175 C896.953009,132.62449 898.79899,131.578 900.775,131.578 C902.361008,131.578 903.582996,131.967996 904.441,132.748 C905.299004,133.528004 905.728,134.606993 905.728,135.985 C905.728,138.169011 904.805009,139.949993 902.959,141.328 C901.112991,142.706007 898.617016,143.395 895.471,143.395 C895.471,145.527011 895.808997,146.963496 896.485,147.7045 C897.161003,148.445504 898.122994,148.816 899.371,148.816 C900.255004,148.816 901.106496,148.699001 901.9255,148.465 C902.744504,148.230999 903.569996,147.893002 904.402,147.451 L904.402,149.986 C903.491995,150.480002 902.595004,150.830999 901.711,151.039 C900.826996,151.247001 899.787006,151.351 898.591,151.351 C896.692991,151.351 895.230505,150.792006 894.2035,149.674 C893.176495,148.555994 892.663,146.762012 892.663,144.292 Z M902.842,136.336 C902.842,135.555996 902.634002,134.971002 902.218,134.581 C901.801998,134.190998 901.217004,133.996 900.463,133.996 C899.500995,133.996 898.526005,134.587494 897.538,135.7705 C896.549995,136.953506 895.926001,138.766988 895.666,141.211 C897.954011,141.211 899.721994,140.736505 900.97,139.7875 C902.218006,138.838495 902.842,137.688007 902.842,136.336 Z M918.442,131.851 L918.091,134.581 C917.882999,134.555 917.701001,134.5355 917.545,134.5225 C917.388999,134.5095 917.194001,134.503 916.96,134.503 C916.231996,134.503 915.465004,134.840997 914.659,135.517 C913.852996,136.193003 913.086004,137.128994 912.358,138.325 L911.266,151 L908.497,151 L910.096,132.085 L912.865,131.734 L912.514,135.322 L912.67,135.322 C913.554004,133.761992 914.327497,132.748002 914.9905,132.28 C915.653503,131.811998 916.374996,131.578 917.155,131.578 C917.389001,131.578 917.616499,131.5975 917.8375,131.6365 C918.058501,131.6755 918.259999,131.746999 918.442,131.851 Z M929.596,151 L930.805,138.403 C930.935001,136.842992 930.824502,135.764003 930.4735,135.166 C930.122498,134.567997 929.622003,134.269 928.972,134.269 C928.373997,134.269 927.620005,134.515998 926.71,135.01 C925.799995,135.504002 924.760006,136.270995 923.59,137.311 L922.342,151 L919.573,151 L922.03,124.012 L924.838,123.661 L923.785,134.659 L923.902,134.659 C925.020006,133.566995 926.046995,132.780502 926.983,132.2995 C927.919005,131.818498 928.828996,131.578 929.713,131.578 C931.065007,131.578 932.104996,132.065495 932.833,133.0405 C933.561004,134.015505 933.821001,135.659988 933.613,137.974 L932.365,151 L929.596,151 Z M937.435,144.292 C937.435,140.001979 938.292991,136.81051 940.009,134.7175 C941.725009,132.62449 943.57099,131.578 945.547,131.578 C947.133008,131.578 948.354996,131.967996 949.213,132.748 C950.071004,133.528004 950.5,134.606993 950.5,135.985 C950.5,138.169011 949.577009,139.949993 947.731,141.328 C945.884991,142.706007 943.389016,143.395 940.243,143.395 C940.243,145.527011 940.580997,146.963496 941.257,147.7045 C941.933003,148.445504 942.894994,148.816 944.143,148.816 C945.027004,148.816 945.878496,148.699001 946.6975,148.465 C947.516504,148.230999 948.341996,147.893002 949.174,147.451 L949.174,149.986 C948.263995,150.480002 947.367004,150.830999 946.483,151.039 C945.598996,151.247001 944.559006,151.351 943.363,151.351 C941.464991,151.351 940.002505,150.792006 938.9755,149.674 C937.948495,148.555994 937.435,146.762012 937.435,144.292 Z M947.614,136.336 C947.614,135.555996 947.406002,134.971002 946.99,134.581 C946.573998,134.190998 945.989004,133.996 945.235,133.996 C944.272995,133.996 943.298005,134.587494 942.31,135.7705 C941.321995,136.953506 940.698001,138.766988 940.438,141.211 C942.726011,141.211 944.493994,140.736505 945.742,139.7875 C946.990006,138.838495 947.614,137.688007 947.614,136.336 Z M955.18,125.923 C955.18,125.324997 955.355498,124.850502 955.7065,124.4995 C956.057502,124.148498 956.518997,123.973 957.091,123.973 C957.585002,123.973 957.961999,124.109499 958.222,124.3825 C958.482001,124.655501 958.612,125.038998 958.612,125.533 C958.612,126.053003 958.443002,126.501498 958.105,126.8785 C957.766998,127.255502 957.299003,127.444 956.701,127.444 C956.258998,127.444 955.895001,127.314001 955.609,127.054 C955.322999,126.793999 955.18,126.417002 955.18,125.923 Z M957.715,131.734 L955.96,151 L953.191,151 L954.907,132.085 L957.715,131.734 Z M971.716,144.994 L972.73,134.152 C972.391998,134.074 971.995502,134.0155 971.5405,133.9765 C971.085498,133.9375 970.650002,133.918 970.234,133.918 C968.777993,133.918 967.419506,134.814991 966.1585,136.609 C964.897494,138.403009 964.267,141.041983 964.267,144.526 C964.267,146.112008 964.494498,147.223497 964.9495,147.8605 C965.404502,148.497503 965.956997,148.816 966.607,148.816 C967.283003,148.816 968.069496,148.497503 968.9665,147.8605 C969.863504,147.223497 970.779995,146.268006 971.716,144.994 Z M976.435,123.661 L973.939,151 L971.248,151 L971.56,147.88 L971.443,147.88 C970.558996,149.076006 969.642505,149.953497 968.6935,150.5125 C967.744495,151.071503 966.737005,151.351 965.671,151.351 C964.396994,151.351 963.363504,150.850505 962.5705,149.8495 C961.777496,148.848495 961.381,147.139012 961.381,144.721 C961.381,140.482979 962.310491,137.233011 964.1695,134.971 C966.028509,132.708989 968.127988,131.578 970.468,131.578 C970.962002,131.578 971.410498,131.5975 971.8135,131.6365 C972.216502,131.6755 972.586998,131.734 972.925,131.812 L973.627,124.012 L976.435,123.661 Z" id="DataAgendaOverheid" fill="#000000"></path>
            <path d="M679.784,102 L669.424,72.32 L669.088,72.32 L669.088,102 L662.648,102 L662.648,65.264 L673.736,65.264 L684.152,94.944 L684.488,94.944 L684.488,65.264 L690.928,65.264 L690.928,102 L679.784,102 Z M700.168,102 L700.168,65.264 L707.448,65.264 L707.448,96.064 L719.88,96.064 L719.88,102 L700.168,102 Z M746.984,102 L736.624,102 L736.624,65.264 L747.32,65.264 C753.629365,65.264 758.463983,66.7853181 761.824,69.828 C765.184017,72.8706819 766.864,77.1173061 766.864,82.568 C766.864,89.2133666 765.081351,94.1133176 761.516,97.268 C757.950649,100.422682 753.106697,102 746.984,102 Z M743.904,71.2 L743.904,96.064 L747.32,96.064 C750.904018,96.064 753.778656,95.0373436 755.944,92.984 C758.109344,90.9306564 759.192,87.57069 759.192,82.904 C759.192,79.1333145 758.081344,76.2400101 755.86,74.224 C753.638656,72.2079899 750.642686,71.2 746.872,71.2 L743.904,71.2 Z M781.424,65.264 L781.424,102 L774.144,102 L774.144,65.264 L781.424,65.264 Z M805.896,89.288 L805.896,83.352 L818.272,83.352 L818.272,101.328 C816.442658,101.701335 814.622676,101.971999 812.812,102.14 C811.001324,102.308001 809.106677,102.392 807.128,102.392 C801.565306,102.392 797.094684,100.908015 793.716,97.94 C790.337316,94.9719852 788.648,90.5760291 788.648,84.752 C788.648,78.1066334 790.551981,73.1320165 794.36,69.828 C798.168019,66.5239835 802.965304,64.872 808.752,64.872 C810.432008,64.872 811.925327,64.9279994 813.232,65.04 C814.538673,65.1520006 815.845327,65.3386654 817.152,65.6 L816.648,71.76 C815.117326,71.5359989 813.736006,71.386667 812.504,71.312 C811.271994,71.237333 809.946674,71.2 808.528,71.2 C804.831982,71.2 801.873344,72.2919891 799.652,74.476 C797.430656,76.6600109 796.32,79.8613122 796.32,84.08 C796.32,88.1493537 797.393323,91.2293229 799.54,93.32 C801.686677,95.4106771 804.290651,96.456 807.352,96.456 C808.136004,96.456 808.798664,96.4373335 809.34,96.4 C809.881336,96.3626665 810.52533,96.306667 811.272,96.232 L811.272,89.288 L805.896,89.288 Z M833.504,65.264 L833.504,102 L826.224,102 L826.224,65.264 L833.504,65.264 Z M856.688,71.2 L856.688,102 L849.408,102 L849.408,71.2 L839.328,71.2 L839.328,65.264 L866.768,65.264 L866.768,71.2 L856.688,71.2 Z M885.08,88.28 L880.544,71.312 L880.152,71.312 L875.616,88.28 L885.08,88.28 Z M886.312,65.264 L897.008,102 L888.608,102 L886.592,94.104 L874.16,94.104 L872.144,102 L864.584,102 L875.336,65.264 L886.312,65.264 Z M918.792,88.28 L914.256,71.312 L913.864,71.312 L909.328,88.28 L918.792,88.28 Z M920.024,65.264 L930.72,102 L922.32,102 L920.304,94.104 L907.872,94.104 L905.856,102 L898.296,102 L909.048,65.264 L920.024,65.264 Z M936.04,102 L936.04,65.264 L943.32,65.264 L943.32,96.064 L955.752,96.064 L955.752,102 L936.04,102 Z" id="NLDIGITAAL" fill="#007BC7"></path>
        </g>
    </g>
</svg>