<svg height="250" viewBox="0 0 250 250" width="250" xmlns="http://www.w3.org/2000/svg"><g fill="none"><path d="m0 0v250h250v-250z" fill="#fefefe"/><g transform="translate(66 105)"><path d="m45.1207729 114h27.7584542l3.1207729-57h-34z" fill="#815245"/><path d="m38 51h43l-2.0077821 8h-38.9844358z" fill="#673328"/><path d="m42 119h35l-3.1666667-6h-28.6666666z" fill="#673328"/><path d="m42 119h35v3h-35z" fill="#815245"/><path d="m38 48h43v3h-43z" fill="#402a1b"/><path d="m60.1486329 58c.9947375.570691 2.4271595 1.2174742 2.944423 2.0925337.5172635.8750596 2.4669489 3.2719618 1.7507379 4.0328832s-3.3025284 1.2555202-3.9789499.4945989c-.6764215-.7609214-2.2680014-2.4349484-2.2282119-3.2339158s-.636632-2.1686258-.636632-2.1686258z" fill="#f8b174"/><path d="m62.084849 61.6049384h.0473792l6.0645396 6.2226604c.0655182.0916806.179277.1539392.308657.1689237s.2600908-.0189602.354652-.0921008c.1865643-.1622782.1865643-.413894 0-.5761722l-6.0171603-6.1458374c-.1597875-.187523-.4742294-.2385082-.7106883-.1152345-.1569335.1522955-.1760198.368928-.0473792.5377608z" fill="#402a1b"/><path d="m63.3691373 61.2345952c.3221499.5338791 1.7315559 1.0343906 2.496662.6006139s-1.9731684-1.368065-2.3758558-1.601637c-.4026874-.2335721-1.4899435-.2335721-1.4899435-.2335721z" fill="#f8b174"/><path d="m33.175 16s.075 2.9408284.825 3.8106509c0 0-.7125 3.1893491-3 3.1893491v-6.6272189z" fill="#f8b174"/><path d="m27.825 16s-.075 2.9408284-.825 3.8106509c0 0 .7125 3.1893491 3 3.1893491v-6.6272189z" fill="#f8b174"/><path d="m31.8740157 19.9999655c-1.2598425 0-2.2834645-.9176365-2.8740157-1.7293919.072183-.4205574.1116483-.8451065.1181102-1.2705736l2.2834646.3176434 2.2834646-.3176434c.030467.7364773.1358917 1.4689219.3149606 2.1882101-.553543.5217314-1.3227995.8154533-2.1259843.8117554z" fill="#f29d56"/><path d="m40.106231 117.475489 3.5477308 4.262523c1.0981072 1.352531-.5068187 4.385481-3.5477308 2.82802-3.0409121-1.55746-4.5191333-3.114921-5.1526566-3.31985-.6335234-.204929-1.1403421-1.55746-.8869327-5.246182z" fill="#1e2020"/><path d="m41 66.8401977-.1652893 50.1598023h-8.0578512l-1.0743802-43.1861614s-.0413223-2.3945635-.7024793-2.8146623v-4.9991763z" fill="#333"/><path d="m21.893769 117.475489-3.5477308 4.262523c-1.0981072 1.352531.5068187 4.385481 3.5477308 2.82802 3.0409121-1.55746 4.5191333-3.114921 5.1526566-3.31985.6335234-.204929 1.1403421-1.55746.8869327-5.246182z" fill="#1e2020"/><path d="m21 66.8401977.1652893 50.1598023h8.0578512l1.0743802-43.1861614s.1652892-2.562603.7024793-2.8146623v-4.9991763z" fill="#333"/><path d="m36.5705706 20c1.3130631.7580645 6.1674176 1.6845878 6.4061563 4.2956989s-1.4324325 14.4032258-1.6711712 20.8046595.2387387 21.8996416.2387387 21.8996416h-10.5442944v-44.5573477z" fill="#026a9d"/><path d="m25.0044939 20c-1.4132264.7580645-6.7235318 2.2741935-6.9804821 4.8853047-.2569503 2.6111111 1.6273516 13.81362 1.8843019 20.2150537s-.2569503 21.8996416-.2569503 21.8996416h11.3486366v-44.5573477z" fill="#026a9d"/><path d="m37 21.56-7 15.44v-13.32l5.5165563-2.68z" fill="#fff"/><path d="m24 21.6766169 7 15.3233831v-13.3333333l-5.6178344-2.6666667z" fill="#fff"/><path d="m31 18c-2.0742739 0-4.1070624-2.5031056-4.6463736-5.4503106-.2913018.0361139-.5790815-.0883573-.7467387-.3229813-.4563402-.4844721-.7882241-1.5745342-.4978257-2.1801242.2903984-.60559011 1.3690208-.32298142 1.3690208-.32298142s-.1244564-4.72360248 4.5219172-4.72360248z" fill="#f8b174"/><path d="m31 18c2.0742739 0 4.1070624-2.5031056 4.6463736-5.4503106.2913018.0361139.5790815-.0883573.7467387-.3229813.4563402-.4844721.7882241-1.5745342.4978257-2.1801242-.2903984-.60559011-1.3690208-.32298142-1.3690208-.32298142s.1244564-4.72360248-4.5219172-4.72360248z" fill="#f8b174"/><path d="m25.0277587 4.92468366c.2059394-2.57203174 1.4827634-4.83364585 5.9722413-4.9223366s5.7663019 2.35030486 5.9722413 4.9223366c.0958801 1.7149233-.056975 3.43546048-.4530666 5.09971814-.9061332-.22172692-1.3180119.9755982-1.3180119.9755982.2883151-2.30595949-1.1944482-5.76489872-1.7710784-5.32144497-.7225072.52272405-1.5612785.82885029-2.4300844.88690749-.8688059-.0580572-1.7075772-.36418344-2.4300844-.88690749-.5766302-.44345375-2.0593935 3.01548548-1.7710784 5.32144497 0 0-.4118787-1.19732512-1.3180119-.9755982-.3960916-1.66425766-.5489467-3.38479484-.4530666-5.09971814z" fill="#723d20"/><path d="m31 23.6326531 3.4285714-3.6326531 2.5714286 1.2653061-3.1714286 4.7346939z" fill="#ebf5fc"/><path d="m31 23.6326531-3.4285714-3.6326531-2.5714286 1.2653061 3.1714286 4.7346939z" fill="#ebf5fc"/><path d="m16.0409844 33c0-.2985782-.0379361-.5545024-.0379361-.8530806-.1138083-5.4597156 2.9969517-8.1469194 2.9969517-8.1469194l-.0758722 9z" fill="#026a9d"/><path d="m12.4953659 31.642342 13.6194679.00361.0057194 21.5358991-13.6194679-.00361z" fill="#fff" transform="matrix(.9909832 -.13398619 .13398619 .9909832 -5.508539 2.969421)"/><path d="m13.1210663 42.4098806c.7251819 1.4979981 2.0992108.4405877 2.5572204.8371166s.4961771 3.040055-.3435072 4.0974654c-.8396843 1.0574105-1.0305217.5287052-1.5648662.4846465-1.9083734-.1321763-2.4045505-6.3444627-.8396843-6.8291091z" fill="#f8b174"/><path d="m41 37.5694761s3.0553279 5.5205011 6.8852459 11.1252847 9.8545082 12.3052392 9.8545082 12.3052392l4.2602459-3.4555809-10.0696721-14.4965831-8.9938525-19.047836z" fill="#026a9d"/><path d="m86.8975686 94.6823956s-.0868764-3.0403387-.3475057-3.5333666-.8253262-2.9170817-.390944-3.7798806c.4343822-.8627988.9556408-1.5201693 1.4768995-2.5062251.5212586-.9860558 1.3465847-2.2186256 2.2153491-1.7666834.8687644.4519423 1.7375288 2.5062252 1.9981581 3.1635957.2606293.6573706.1303147 3.369024 0 4.3550798s-1.6940905 3.1635957-1.6940905 4.8070221c0 1.6434263-3.2578665-.7395419-3.2578665-.7395419z" fill="#f8b174"/><path d="m86.1567926 112.985193c2.8655644.170654 4.3588867-1.109247 4.4799668-5.119602.1210802-4.010356.3632406-13.0976506.3632406-13.0976506l-5.892569-.7679404s-1.6547625 11.647096-1.977643 13.09765-.2825204 5.71689 3.0270046 5.887543z" fill="#d52e1e"/><path d="m88.1817401 84.1003944c-.2968587-1.0709591-.2597514-3.6412608.3339661-2.9986854s1.4842938 3.898291 1.4842938 3.898291z" fill="#f8b174"/><path d="m89.5 85c-.2761424 0-.5-.2095688-.5-.4680851v-10.0638299c0-.2585162.2238577-.468085.5-.468085s.5.2095688.5.468085v10.0638299c0 .2585163-.2238576.4680851-.5.4680851z" fill="#026a9d"/><path d="m89.1299111 84c.682033.3677674 2.0460991 1.3893433 1.8512325 2.6560976-.1948666 1.2667542-1.5589327 2.4926454-1.8512325 2.3291932-.2922999-.1634522 0-4.9852908 0-4.9852908z" fill="#f8b174"/><path d="m3 82c.56554409-1.3479491 1.04763959-2.7270046 1.44375-4.1299108.2625-1.2642585.39375-1.2642585 0-2.6970847s-.74375-2.5285168-.2625-2.9920782c.48125-.4635615.65625-1.2642585 1.26875-1.3485424.6125-.0842838.48125-1.4328262 1.3125-1.559252s1.18125-1.3906843 2.1875-1.2642584c1.00625.1264258 1.05 1.1378326 1.05 3.8770591 0 2.7392266-.4375 4.3827626-1.00625 5.1413176-.56875.7585551-1.75 4.4670464-1.75 4.4670464z" fill="#f8b174"/><path d="m7.81981982 108-7.81981982-13.1083969s1.42942943-12.119084 1.80780781-13.8916031l5.38138138.4946565-.50450451 11.2534351s1.17717718 4.1633588 7.31531532 6.6778626z" fill="#e16f0d"/><path d="m7.72725217 71c-.40165028 0-.72725217-.2247943-.72725217-.5020921l.60604347-8.9958158c0-.2772978.32560189-.5020921.72725217-.5020921.38723732.0416063.67130913.2733869.66664782.5439331l-.54543912 8.9958159c-.0560648.2521866-.35848641.443578-.72725217.460251z" fill="#7fc6b1"/><path d="m7 74.1860465c.49940238-.744186.44946214-4.1860465 1.29844619-4.1860465.84898404 0 .64922309 2.744186.69916333 3.255814.04994024.5116279-.69916333 2.744186-.69916333 2.744186z" fill="#f8b174"/><path d="m4 121s1.04347826-12.330134.82608696-16.510557c-.21739131-4.180422 4.17391304-5.0249516 8.39130434-4.8560457v-.6333973h5.7826087v22z" fill="#e16f0d"/><path d="m14 97h5v2h-5z" fill="#cde5f5"/><path d="m34 121s-1.0465116-12.330134-.8284884-16.510557c.2180233-4.180422-4.1860465-5.0249516-8.4156976-4.8560457v-.6333973h-5.755814v22z" fill="#e16f0d"/><path d="m19 97h5v2h-5z" fill="#cde5f5"/><path d="m19 80c-4.7391304 0-7 3.6424443-7 7.1193229s1.5652174 12.0035094 7 11.8793352z" fill="#673328"/><path d="m19 80c4.725 0 7 3.6424443 7 7.1193229s-1.575 12.0035094-7 11.8793352z" fill="#673328"/><path d="m60.0065713 121s.217296-12.330134 0-16.510557c-.2172961-4.180422 4.9978095-5.0249516 9.2133533-4.8560457v-.6333973h5.7800754v22z" fill="#d52e1e"/><path d="m70 97h5v2h-5z" fill="#cde5f5"/><path d="m88.9934096 121s-.2179274-12.330134 0-16.510557c.2179275-4.180422-5.0123317-5.0249516-9.2401245-4.8560457v-.6333973h-5.7532851v22z" fill="#d52e1e"/><path d="m74 97h5v2h-5z" fill="#cde5f5"/><path d="m74 81c-4.7391304 0-7 3.5871807-7 7.0113078 0 3.424127 1.5652174 10.1093275 7 9.9870372z" fill="#402a1b"/><path d="m75 81c4.725 0 7 3.5871807 7 7.0113078 0 3.424127-1.575 10.1093275-7 9.9870372z" fill="#402a1b"/><path d="m68.6065209 80s-.2856979.942623 5.673144.942623h.4081398c5.713958.2868852 5.3058181 4.9590163 5.3058181 4.9590163.040814 1.6393443-.2040699 2.4590164-.4489538 4.0983607l-.122442-.7786885s-.1224419 0-.3673258-.942623v-.1639344c-.081628-.2459016-.163256-.5327869-.2856979-.8196721-1.5509315-3.6885246-5.2241902-2.4590164-5.2241902-2.4590164s-3.6732586-1.2295082-5.2241901 2.4590164c-.1002426.2672643-.1820636.5411344-.2448839.8196721-.040814.0409836-.040814.1229508-.081628.1639344-.0532975.3255127-.1493684.6424859-.2856979.942623l-.1224419.7786885c-.163256-1.0245902-.3673259-1.2295082-.4489539-2.2540984-.6938377-5.4508196 1.4693035-7.7459016 1.4693035-7.7459016z" fill="#402a1b"/><path d="m51 100.47651c0-1.9261744-.76-3.47651-1.72-3.47651h-5.56c-.96 0-1.72 1.5503356-1.72 3.47651 0 1.973154.76 3.52349 1.72 3.52349h5.56c.96 0 1.72-1.550336 1.72-3.52349z" fill="#026a9d"/><path d="m35 121s.950495-11.435223 1.4653465-15.303644c.7128713-5.356275 7.2475248-5.696356 7.2475248-5.696356h3.2871287v21z" fill="#7fc6b1"/><path d="m59 121s-.9108911-11.435223-1.4257426-15.303644c-.7128713-5.356275-7.2871287-5.696356-7.2871287-5.696356h-3.2871287v21z" fill="#7fc6b1"/><path d="m32.0072825 123.135552c-.0353623-.302942.0592721-.606737.2574607-.8265s.4786792-.331928.7630976-.305154h4.8382021c.2972107-.010965.5858325.107663.7996507.328668.2138182.221006.3344798.525419.3343029.843402v8.689484c.0007518.314678-.1210695.615482-.3362171.830193s-.504191.323939-.7977365.301461h-3.7798454c-.6274755.026185-1.1693325-.465413-1.247349-1.131654z" fill="#673328"/><path d="m30 122.019481c.0723643-.595164.6772253-1.040114 1.3815789-1.016321h4.1907895c.7216871-.045484 1.3547556.405192 1.4276316 1.016321 0 .547249-.6447368.977231-1.4276316.977231h-4.1907895c-.6963177.045568-1.3088185-.387672-1.3815789-.977231z" fill="#402a1b"/><path d="m61.9966096 123.132874c.0248637-.299667-.0878932-.595006-.3097729-.811375s-.5316516-.333064-.8510252-.320593h-5.5030432c-.3421217-.010902-.6748192.106533-.9248043.326437-.2499851.219905-.3967498.524237-.407964.845959v8.691894c.010863.318392.1590397.61892.4104404.832444.2514007.213523.5843785.321657.9223279.299524h4.2992525c.7136999.026192 1.3300162-.465542 1.4187533-1.131968z" fill="#673328"/><path d="m64 122.019481c-.072876-.611129-.7059445-1.061805-1.4276316-1.016321h-4.1907895c-.7043536-.023793-1.3092146.421157-1.3815789 1.016321.0727604.589559.6852612 1.022799 1.3815789.977231h4.1907895c.7828948 0 1.4276316-.429982 1.4276316-.977231z" fill="#402a1b"/><path d="m57 129.5c0 1.958333-1.6859813 3.5-3.7420561 3.5h-14.5158878c-2.0560748 0-3.7420561-1.541667-3.7420561-3.5v-22c0-1.916667 1.6859813-3.5 3.7420561-3.5h14.5158878c2.0560748 0 3.7420561 1.583333 3.7420561 3.5z" fill="#815245"/><path d="m60.0033904 123.132874c-.0248637-.299667.0878932-.595006.3097729-.811375s.5316516-.333064.8510252-.320593h5.5030432c.3421217-.010902.6748192.106533.9248043.326437.2499851.219905.3967498.524237.407964.845959v8.691894c-.010863.318392-.1590397.61892-.4104404.832444-.2514007.213523-.5843785.321657-.9223279.299524h-4.2992525c-.7136999.026192-1.3300162-.465542-1.4187533-1.131968z" fill="#673328"/><path d="m58 122.019481c.072876-.611129.7059445-1.061805 1.4276316-1.016321h4.1907895c.7043536-.023793 1.3092146.421157 1.3815789 1.016321-.0727604.589559-.6852612 1.022799-1.3815789.977231h-4.1907895c-.7828948 0-1.4276316-.429982-1.4276316-.977231z" fill="#402a1b"/><path d="m88.9927175 123.135552c.0353623-.302942-.0592721-.606737-.2574607-.8265s-.4786792-.331928-.7630976-.305154h-4.8382021c-.2972107-.010965-.5858325.107663-.7996507.328668-.2138182.221006-.3344798.525419-.3343029.843402v8.689484c-.0007518.314678.1210695.615482.3362171.830193s.504191.323939.7977365.301461h3.7798454c.6298771.010557 1.1740564-.468628 1.2851474-1.131654z" fill="#673328"/><path d="m91 122.019481c-.0723643-.595164-.6772253-1.040114-1.3815789-1.016321h-4.1907895c-.7216871-.045484-1.3547556.405192-1.4276316 1.016321 0 .547249.6447368.977231 1.4276316.977231h4.1907895c.6963177.045568 1.3088185-.387672 1.3815789-.977231z" fill="#402a1b"/><path d="m85 129.5c0 1.958333-1.6859813 3.5-3.7420561 3.5h-14.5158878c-2.0560748 0-3.7420561-1.541667-3.7420561-3.5v-22c0-1.916667 1.6859813-3.5 3.7420561-3.5h14.5158878c2.0560748 0 3.7420561 1.583333 3.7420561 3.5z" fill="#815245"/><path d="m107 101c0-1.6666667-.76-3-1.68-3h-5.6c-.92 0-1.72 1.3333333-1.72 3 0 1.625.8 3 1.72 3h5.6c.92 0 1.68-1.375 1.68-3z" fill="#cde5f5"/><path d="m90 121s.950495-10.901468 1.4653465-14.549266c.7128713-5.115304 7.2475248-5.450734 7.2475248-5.450734h3.2871287v20z" fill="#026a9d"/><path d="m114 121s-.950495-10.901468-1.465347-14.549266c-.712871-5.115304-7.247524-5.450734-7.247524-5.450734h-3.287129v20z" fill="#026a9d"/><path d="m4.00339036 123.132874c-.02486364-.299667.08789323-.595006.30977292-.811375s.53165159-.333064.85102525-.320593h5.50304317c.3421217-.010902.6748192.106533.9248043.326437.2499851.219905.3967498.524237.407964.845959v8.691894c-.010863.318392-.1590397.61892-.4104404.832444-.2514007.213523-.5843785.321657-.9223279.299524h-4.29925247c-.71369996.026192-1.33001624-.465542-1.41875332-1.131968z" fill="#673328"/><path d="m2 122.019481c.07287605-.611129.70594447-1.061805 1.42763158-1.016321h4.19078947c.70435362-.023793 1.30921467.421157 1.38157895 1.016321-.07276041.589559-.68526125 1.022799-1.38157895.977231h-4.19078947c-.78289474 0-1.42763158-.429982-1.42763158-.977231z" fill="#402a1b"/><path d="m33.9927175 123.135552c.0353623-.302942-.0592721-.606737-.2574607-.8265s-.4786792-.331928-.7630976-.305154h-4.8382021c-.2972107-.010965-.5858325.107663-.7996507.328668-.2138182.221006-.3344798.525419-.3343029.843402v8.689484c-.0007518.314678.1210695.615482.3362171.830193s.504191.323939.7977365.301461h3.7798454c.6298771.010557 1.1740564-.468628 1.2851474-1.131654z" fill="#673328"/><path d="m36 122.019481c-.0723643-.595164-.6772253-1.040114-1.3815789-1.016321h-4.1907895c-.7216871-.045484-1.3547556.405192-1.4276316 1.016321 0 .547249.6447368.977231 1.4276316.977231h4.1907895c.6963177.045568 1.3088185-.387672 1.3815789-.977231z" fill="#402a1b"/><path d="m30 129.5c0 1.958333-1.6859813 3.5-3.7420561 3.5h-14.5158878c-2.05607479 0-3.7420561-1.541667-3.7420561-3.5v-22c0-1.916667 1.68598131-3.5 3.7420561-3.5h14.5158878c2.0560748 0 3.7420561 1.583333 3.7420561 3.5z" fill="#815245"/><path d="m88.0007252 123.13276c-.0106751-.303591.0969026-.598226.2968622-.813051.1999596-.214824.474208-.330399.756792-.31893h4.7790748c.2994524-.010903.5906559.106534.809463.326441.218807.219907.3472672.524243.3570828.845968v8.691995c-.0095081.318396-.1392044.618927-.3592504.832453s-.511495.321662-.8072954.299528h-3.763051c-.6186041.007667-1.1481139-.475013-1.2418068-1.131981z" fill="#673328"/><path d="m85 122.017602c.0237299-.290073.1838212-.560221.4448378-.750649.2610166-.190427.6014303-.285427.9458907-.263972h4.218543c.3444604-.021455.6848741.073545.9458907.263972.2610166.190428.4211079.460576.4448378.750649-.0231232.287187-.1848142.553907-.4475001.738181-.2626858.184275-.6034938.270058-.9432284.237416h-4.218543c-.3397346.032642-.6805426-.053141-.9432284-.237416-.2626859-.184274-.4243769-.450994-.4475001-.738181z" fill="#402a1b"/><path d="m115.999275 123.13276c.010675-.303591-.096903-.598226-.296862-.813051-.19996-.214824-.474208-.330399-.756792-.31893h-4.779075c-.299453-.010903-.590656.106534-.809463.326441s-.347267.524243-.357083.845968v8.691995c.009508.318396.139204.618927.35925.832453s.511495.321662.807296.299528h3.763051c.618604.007667 1.148114-.475013 1.241807-1.131981z" fill="#673328"/><path d="m118 122.017602c-.02373-.290073-.183821-.560221-.444838-.750649-.261016-.190427-.60143-.285427-.94589-.263972h-4.218544c-.34446-.021455-.684874.073545-.94589.263972-.261017.190428-.421108.460576-.444838.750649.023123.287187.184814.553907.4475.738181.262686.184275.603494.270058.943228.237416h4.218544c.339734.032642.680542-.053141.943228-.237416.262686-.184274.424377-.450994.4475-.738181z" fill="#402a1b"/><path d="m113 129.5c0 1.958333-1.689139 3.5-3.749064 3.5h-14.5018723c-2.0599251 0-3.7490637-1.541667-3.7490637-3.5v-22c0-1.916667 1.6891386-3.5 3.7490637-3.5h14.5018723c2.059925 0 3.749064 1.583333 3.749064 3.5z" fill="#815245"/><g fill="#1e2020"><path d="m54.8014382 93c-.3472946.0060583-.6750585.1752022-.8983032.4635728-.2917684-.2097499-.6337327-.3225385-.9838558-.324501-.933668.0286564-1.7200912.7646966-1.882159 1.7615767-.840536.0493089-1.4984025.8029868-1.4971719 1.7152193-.8504899 0-1.5399482.747175-1.5399482 1.6688621-.0003133.9294772.6825832 1.6900984 1.5399482 1.7152193.4940457.0042288.9582087-.2559537 1.2405139-.6953592.2172698.0954671.4499968.1427563.6844214.1390719 1.0463704-.0252054 1.8824175-.9518323 1.882159-2.0860776v-.1390718c.7317854-.1783405 1.2903485-.8203487 1.4116192-1.6225048h.0427764c.3212263.0131507.6329771-.1193751.8602804-.3657067s.349592-.58418.3374571-.9322972c0-.7168677-.5362454-1.2980038-1.1977375-1.2980038z"/><path d="m46.6027397 96.8251279-.5342465.0824642c-.2699887-.4756635-.7110821-.8297079-1.2328768-.9895706.2446756-.3655211.3735939-.7966731.3698631-1.2369632-.0224131-1.2590934-1.0462359-2.2679666-2.3013699-2.2677658-.3095381-.0089151-.6175097.0472653-.9041096.1649285-.2245458-.3735675-.6340429-.5947968-1.0684932-.5772495-.7035956 0-1.2739726.5722675-1.2739726 1.2781953.0017232.3797574.1664516.740356.4520548.9895705-.6641719.2790635-1.1000175.9269009-1.109589 1.6492842 0 1.0247339.8279666 1.8554448 1.8493151 1.8554448h.369863c-.0330054.0780431-.0470896.1628281-.0410959.2473926-.0002151.2916116.1179816.5707276.3273415.7730016.2093598.2022739.4918143.3102491.7822475.2990332h.2876713c.3786594.562118 1.0087346.9013277 1.6849315.9071063.542951-.0031725 1.0616174-.2261949 1.4383561-.6184816.2547018.2108086.5739377.3272791.9041096.3298569.7716856 0 1.3972603-.6276483 1.3972603-1.4018916 0-.7742434-.6255747-1.4018916-1.3972603-1.4018916z"/><path d="m52.044155 92.7899769s.8134281-3.5159908-.128436-5.4883758c-.9418642-1.9723851-2.5687205-3.3016011-5.437125-3.3016011s-4.3668248 1.2005822-5.394313 3.3016011c-1.0274882 2.1010188-.128436 5.4883758-.128436 5.4883758-1.2843602-.2572676-1.0274882 1.1577042-.6421801 1.8008733.2533032.3493717.4418211.7415118.5565561 1.1577042.256872.8146808.9418642.2572677.9418642.2572677.385308 1.0719484.6421801 1.329216 2.1834124 2.7441879 1.5412322 1.414972 1.8409163 1.2434601 2.4830964 1.2434601s1.1559242 0 2.5259084-1.2434601c1.3699843-1.2434602 1.7981044-1.6722395 2.1834124-2.7441879.1411503.1465663.3508685.2043803.5470244.1508009.1961559-.0535795.3475296-.2100247.3948398-.4080686.114735-.4161924.3032529-.8083325.5565561-1.1577042.3853081-.6431691.6421801-2.0581409-.6421801-1.8008733z"/><path d="m55.9130739 90.5154775c.4947536-.4284432.7788813-1.0397691.7819511-1.6824372.0053214-.5820366-.2291934-1.1421197-.6516259-1.5562545.2070491-.3289718.3125651-.7084315.3040921-1.0935842 0-1.0917917-.9141277-1.9768637-2.0417613-1.9768637h-.3475339c.0118869-.6616211-.2543303-1.2995335-.7375985-1.767441-.4832683-.4679075-1.1421225-.725663-1.8254635-.714154l-.7819512.0841219c-.0645842-.561742-.5459969-.9919983-1.129485-1.0094623h-.2172086c-.4011051-.5123786-1.0302768-.8091554-1.6942275-.7991577-.5191443.0005121-1.0177059.196615-1.3901354.5467921-.3542145-.2038801-.7610211-.3059962-1.1729267-.2944266-1.0533205-.0079076-1.9724786.6900866-2.2155282 1.6824373-.2928002-.1531838-.6232975-.2259094-.9557181-.2103047-.861334-.0208818-1.6435038.4839905-1.9548779 1.261828h-.1303252c-1.2785826.0229287-2.3026309 1.0331352-2.3024117 2.2712902-.0141016.2275916.015354.455747.0868835.6729749-.5967844.1693193-1.004821.701801-.9991598 1.3038889.0043257.2661998.0791124.5268743.2172087.7570967-.5199938.3912922-.8015497 1.0097862-.7490316 1.6453974.0525182.6356113.432051 1.2028992 1.0096819 1.5091725-.399934.4080028-.6183445.9517786-.6081842 1.5141935-.0839727 1.2079397.8593293 2.253078 2.1069239 2.3343816 1.2475947.0813037 2.3270433-.8320154 2.4110161-2.0399551.4442314-.2382173.7251513-.6862022.7385094-1.1777061.0092443-.1415576-.0054291-.2836272-.0434418-.4206093.9941955-.2170791 1.6988116-1.0742271 1.6942275-2.0609856-.002649-.3765793-.12389-.7434146-.3475338-1.0515233.5730322-.3202301.9221103-.9157234.9122763-1.5562544v-.2103047c0 .042061.0434418.042061.0868835.0841219.1645678.6797378.7996288 1.1540704 1.5204605 1.1356451h.0434418c.1314615.4966335.4843345.9108841.9628778 1.1303575.4785432.2194734 1.0331339.2214112 1.5133008.0052877v.2103046c0 1.4170063 1.186421 2.5657168 2.6499455 2.5657168.2066707.0162262.4144729-.0125162.6081843-.0841219v.2523656c.0127874.7103912.5083796 1.327328 1.2163684 1.5141935.3774208.8373615 1.2284955 1.3812168 2.1720865 1.3880107 1.0361252.0192279 1.9578368-.6341305 2.2518966-1.5962646.2940599-.9621341-.1120056-1.9959173-.9920864-2.5257066z"/><path d="m108.956946 91.3044716c.086108-1.9969315-.344433-4.7427124-3.099897-6.0323973-.893488-.3980338-1.858643-.6241232-2.841573-.6656438.009385-.2523435-.019627-.5046512-.086108-.7488493-.473596-1.7057123-2.540194-3.203411-4.3484671-2.7873836-1.8082734.4160274-2.7554642 2.6209726-2.2818688 4.2850822.0982059.3601963.2909962.6897884.5597036.956863-1.9804899 1.4976986-1.9804899 4.1186712-1.7652192 5.7411781.5166495 5.8659862 5.0373335 7.9045205 6.8886605 7.9461232 1.851328.0416029 6.888661-2.2465479 7.017823-8.6949725z"/></g></g></g></svg>