<?xml version="1.0" encoding="UTF-8"?>
<svg width="1200px" height="400px" viewBox="0 0 1200 400" version="1.1" xmlns="http://www.w3.org/2000/svg" xmlns:xlink="http://www.w3.org/1999/xlink">
    <!-- Generator: Sketch 53.2 (72643) - https://sketchapp.com -->
    <title>da-04-kennis-verzamelen-verbeteren</title>
    <desc>Created with Sketch.</desc>
    <g id="da-04-kennis-verzamelen-verbeteren" stroke="none" stroke-width="1" fill="none" fill-rule="evenodd">
        <g id="Hoofdstuk-4-site_NDA[v1]" fill-rule="nonzero">
            <polyline id="Path" fill="#DDEFF8" points="0 0 0 400 1199.9 400 1199.9 0 0 0"></polyline>
            <polyline id="Path" fill="#BCDFF1" points="0 239.6 0 400 1199.9 400 1199.9 239.6 0 239.6"></polyline>
            <path d="M1006.8,224.8 C1009.3,222.1 1015.6,219.4 1021.7,219.7 C1027.9,220 1029.1,221.8 1029.1,221.8 L1008.5,229.5 L1006.8,224.8" id="Path" fill="#275A38"></path>
            <path d="M1051.5,349.9 L1051.5,349.9 C1053.3,350.3 1055,351.1 1056.4,352.3 L1057.3,353 C1057.6,353.2 1057.6,353.5 1057.5,353.8 C1056.9,354.9 1048.4,365.8 1046.8,368.5 C1045.3,371.2 1042.2,373.8 1040.7,372.6 C1045.3,361.1 1045.9,357.1 1045.9,357.1 L1051.5,349.9 Z" id="Path" fill="#D69631"></path>
            <path d="M1045.8,368.5 C1047.2,366 1055,355.5 1057,352.7 L1057.3,352.9 C1057.6,353.1 1057.6,353.4 1057.5,353.7 C1056.9,354.8 1048.4,365.7 1046.8,368.4 C1045.4,370.8 1042.9,373.2 1041.2,372.7 C1042.8,372.4 1044.7,370.5 1045.8,368.5" id="Path" fill="#DFB683"></path>
            <path d="M1011,331.1 L1045.5,358.7 C1045.5,358.7 1048.5,358.9 1051.4,355.8 C1054.4,352.7 1054.6,350.1 1054.6,350.1 L1027.1,324.1 L1019.9,319.2 L1011,331.1 Z" id="Path" fill="#2E2E2C"></path>
            <path d="M1016.3,320.6 C1016.3,320.6 1053.4,345.5 1051.4,355.8 C1054.4,352.7 1054.6,350.1 1054.6,350.1 L1027.1,324.1 L1019.9,319.2 L1016.3,320.6 Z" id="Path" fill="#232322"></path>
            <path d="M1018.7,188.1 C1017.6,188.5 1015.6,188.2 1014.7,187.5 C1012.9,186.2 1008.3,187.6 1006.6,191.3 C1006.1,192.4 1005.9,193.8 1006.1,195.1 C1006.4,198.2 1007.9,201 1010.2,203.1 C1016.4,208.7 1016.1,215.9 1020.4,216 C1027.5,216.3 1033.9,208.3 1033.3,199.9 C1033.4,188.2 1023.4,186.3 1018.7,188.1" id="Path" fill="#5F4540"></path>
            <path d="M1030,207.4 L1020.3,211.8 L1020,215.9 C1019.8,218.2 1019,220.2 1017.2,221.5 C1017.2,221.5 1005.9,232.6 1015.1,233.3 C1024.3,233.9 1033.7,221.4 1033.7,221.4 C1029.5,215.2 1030,207.4 1030,207.4" id="Path" fill="#AE7955"></path>
            <path d="M1007.8,224.8 C1007.8,224.8 1001.3,229.1 999.6,233.9 C999.2,235 994.9,253.8 994.2,258.1 C994.1,258.9 997.5,263.2 998.3,259.5 C1000,251.9 1005.8,239.5 1005.8,239.5 C1005.8,239.5 1010.6,236.6 1013.1,234.3 C1015.9,231.8 1007.8,224.8 1007.8,224.8" id="Path" fill="#946648"></path>
            <path d="M1005.6,239.9 C1005.7,239.8 1005.7,239.7 1005.7,239.6 L1005.7,239.6 C1005.7,239.7 1005.6,239.8 1005.6,239.9" id="Path" fill="#BCD3DE"></path>
            <path d="M1004.6,241.9 C1004.8,240.1 1003.5,237.1 1001.8,233.8 C1003.6,235.8 1005.3,236.4 1006.6,236.6 C1006.8,237.3 1007,238 1007.3,238.5 C1006.4,239.1 1005.8,239.4 1005.7,239.5 L1005.7,239.5 C1005.7,239.5 1005.7,239.5 1005.6,239.6 C1005.6,239.7 1005.5,239.8 1005.5,239.9 C1005.4,240.3 1005.1,241 1004.6,241.9" id="Path" fill="#986646"></path>
            <path d="M994.3,257.6 L992.2,265.4 C992.1,265.8 992.1,266.2 992.2,266.6 L993.5,271.1 C993.6,271.6 993.9,272 994.3,272.3 L997.8,274.8 C998.2,274 998.1,273 997.5,272.3 L995.8,270.6 L995.3,266.9 C995.3,266.7 995.3,266.5 995.5,266.4 C995.9,265.9 996.7,266.1 996.7,266.7 L997.3,270.4 C997.4,270.8 997.7,271.1 998.1,271.1 C998.6,271.1 999,270.7 999,270.2 L998.9,264.9 L998,257.5 L994.3,257.6 L994.3,257.6 Z" id="Path" fill="#946648"></path>
            <path d="M1010.5,273.8 L1009.8,279.2 L1008.7,288.4 L1005.5,309.4 C1004.9,313.6 1004.7,317.9 1004.9,322.2 C1005.1,325.4 1006.7,328.3 1009.4,330 L1011,331.1 L1020.4,330 L1019.8,321.3 L1031.8,275.7 L1010.5,273.8 Z" id="Path" fill="#2E2E2C"></path>
            <path d="M1021,286.8 L1017,317.6 C1016.8,319.3 1017.5,321 1018.8,322.1 L1019.9,323 L1031.8,275.8 L1021,286.8 Z" id="Path" fill="#232322"></path>
            <path d="M1028.1,365 C1028.3,367.7 1027.2,369.4 1026.4,372.7 C1025.9,374.9 1025.6,377.7 1031,377.9 C1036,378.1 1035.9,374.4 1035.9,373.9 C1035.9,373.4 1035.2,367.6 1035.2,367.6 L1028.1,365 Z" id="Path" fill="#D69631"></path>
            <path d="M1031.1,376.7 C1032.8,376.8 1034.2,376.5 1035.3,376.1 C1034.7,377.1 1033.5,378 1030.9,377.9 C1027.8,377.8 1026.6,376.8 1026.2,375.6 C1027.4,376.2 1029,376.6 1031.1,376.7" id="Path" fill="#DFB683"></path>
            <path d="M1014.3,274.6 L1015.4,284.2 C1015.6,286.1 1016.7,287.7 1018.3,288.7 C1019.3,289.3 1019.9,290.2 1020.2,291.3 L1025.2,324.8 L1026.1,368.9 C1026.1,368.9 1027,369.6 1031.4,369.9 C1035.8,370.2 1036.3,368.8 1036.3,368.8 L1038.6,348.2 C1039.1,342.9 1040,336.9 1039.1,331.7 L1038.1,325.8 L1039.9,307.8 C1040.3,303.9 1040.8,299.3 1040.6,295.4 L1040.2,290.9 C1040.1,290.1 1040.2,289.2 1040.5,288.4 C1041.3,285.9 1041.6,283.4 1041.3,280.8 L1040.6,273.6 L1014.3,274.6 Z" id="Path" fill="#3D3D3B"></path>
            <path d="M1035.7,325.6 C1038,306.3 1035.2,288.8 1035.2,288.8 C1035.2,288.8 1024,288.8 1023.5,278.6 L1040.5,273.5 L1040.7,273.5 L1041.4,280.7 C1041.7,283.3 1041.4,285.9 1040.6,288.3 C1040.3,289.1 1040.2,290 1040.3,290.8 L1040.7,295.3 C1041,299.2 1040.5,303.8 1040,307.7 L1038.2,325.7 L1039.2,331.6 C1040.1,336.9 1039.2,342.8 1038.7,348.1 L1036.4,368.7 C1036.3,368.8 1040.2,341.7 1035.7,325.6" id="Path" fill="#2E2E2C"></path>
            <path d="M1033.8,278.5 C1034.1,281.8 1034.8,286.5 1034.8,286.5 C1034.8,286.5 1028.2,287.2 1026.4,281.3 C1024.6,275.4 1033.8,278.5 1033.8,278.5" id="Path" fill="#3D3D3B"></path>
            <path d="M1043.6,224.9 L1033.8,221.4 C1033.8,221.4 1026.7,230.6 1017.9,229.4 C1015.4,229 1015.1,223.7 1017.3,221.6 C1017.2,221.7 1016.9,221.6 1016.4,221.5 C1014.9,221.3 1011.5,221 1006.8,224.9 C1005.9,226.6 1005.3,235.3 1007.5,238.9 C1007.9,238.8 1009.2,238 1009.2,238 L1009.2,238.1 C1009,241 1009.1,244 1009.7,246.9 C1010.5,251 1011.5,256.8 1011.4,258.8 C1011,267.2 1008.2,276.9 1009.1,278.5 C1010.4,280.8 1022.1,284.9 1041.6,280.6 C1042,261.9 1043.1,247.8 1043.1,247.8 L1047.6,240.9 C1049.4,238 1050.1,234.5 1049.3,231.2 C1048.6,228.4 1047,225.8 1043.6,224.9" id="Path" fill="#3A8835"></path>
            <path d="M1024,257.3 L1031.5,242.5 C1033.2,245.5 1040.5,247.8 1043.1,247.6 C1043.1,247.6 1032.9,261 1028.6,265.7 C1027.8,266.6 1026.1,266.3 1024.8,265.9 L1004,259.4 L1004.8,254.1 L1024,257.3 Z" id="Path" fill="#AE7955"></path>
            <path d="M990.2,241.3 L1003.8,245.6 C1004.2,245.7 1004.4,246.1 1004.2,246.4 L1002.9,250.5 L988,245.8 L989.3,241.7 C989.5,241.4 989.8,241.2 990.2,241.3" id="Path" fill="#3D3D3B"></path>
            <path d="M990.3,242.3 C990.4,242.1 990.6,241.9 990.9,242 L1002.7,245.8 C1002.9,245.9 1003.1,246.1 1003,246.4 L1002.2,249.1 C1002.1,249.3 1001.9,249.5 1001.6,249.4 L989.8,245.6 C989.6,245.5 989.4,245.3 989.5,245 L990.3,242.3 Z" id="Path" fill="#FFFFFF"></path>
            <path d="M988,245.8 C988.1,245.6 988.3,245.5 988.5,245.5 L1002.6,250 C1002.8,250.1 1002.9,250.3 1002.9,250.5 L1002.7,251.1 C1002.6,251.3 1002.4,251.4 1002.2,251.4 L988.1,246.9 C987.9,246.8 987.8,246.6 987.8,246.4 L988,245.8 Z" id="Path" fill="#BBBCBD"></path>
            <path d="M989.4,246.3 L990.6,246.7 C990.7,246.7 990.8,246.9 990.8,247.1 C990.8,247.2 990.6,247.3 990.4,247.3 L989.2,246.9 C989,246.9 989,246.7 989,246.5 C989,246.4 989.2,246.3 989.4,246.3" id="Path" fill="#FFFFFF"></path>
            <path d="M992.5,247.3 L995.4,248.2 C995.5,248.2 995.6,248.4 995.6,248.6 C995.6,248.7 995.4,248.8 995.3,248.8 L992.4,247.9 C992.3,247.9 992.2,247.7 992.2,247.5 C992.2,247.3 992.3,247.3 992.5,247.3" id="Path" fill="#FFFFFF"></path>
            <path d="M991.3,248 L999.4,250.6 C1000.1,250.8 1000.8,250.5 1001.1,249.9 C1001.3,249.5 1001.3,249 1001.1,248.6 L1000.2,246.8 C999.8,245.4 1000,244.4 1001.1,244.1 L1004.8,249.5 L1005.8,256.4 L1006.1,260.1 L1001.6,259.2 C998.5,258.5 995.8,256.3 995.8,256.3 C994.5,255.8 994.6,254.2 994.6,254.2 C994.7,254 994.1,253.2 994,252.9 L993.8,252.2 C993.7,251.8 993.8,251.4 994.1,251.1 C994.1,251.1 991.5,250.1 991.4,249.7 C990.6,248.6 991.3,248 991.3,248" id="Path" fill="#AE7955"></path>
            <g id="Group" transform="translate(1017.000000, 209.000000)">
                <path d="M0.9,12 L0.9,12 C1.2,11.8 1.4,11.5 1.6,11.2 C1.4,11.5 1.1,11.7 0.9,12 M1.6,11.2 L1.7,11.1 C1.6,11.1 1.6,11.1 1.6,11.2" id="Shape" fill="#365B38"></path>
                <path d="M1.5,12.8 C1,12.8 0.5,12.7 0.3,12.5 C0.5,12.4 0.7,12.2 1,12 C1.3,11.8 1.5,11.5 1.7,11.2 L1.7,11.2 L1.8,11.1 L1.8,11.1 L1.9,11 C2.7,9.9 3,8.5 3.1,7 L3.4,2.9 L11.6,0.2 C11.6,0.3 12.7,7.6 7.2,11.2 C6.2,11.6 3.3,12.8 1.5,12.8" id="Path" fill="#AF7752"></path>
            </g>
            <path d="M1026.6,204.4 C1025.6,199.1 1023.3,200.9 1021.9,199.1 C1018.7,194.9 1015.4,200 1010.3,201.9 C1010.3,202.3 1011.8,209.8 1012.2,210.9 C1014.9,218.2 1014.5,219.3 1019.6,218.1 C1024.7,217 1028.2,213.9 1029.1,210.5 C1029.3,209.6 1030.4,205.7 1030.4,205.7 C1029.5,205.8 1027,206.4 1026.6,204.4" id="Path" fill="#AE7955"></path>
            <path d="M1026.6,204.4 C1026.6,204.4 1027.6,208.6 1025.3,211.5 C1023,214.4 1019.9,212.9 1018,212.1 C1016.1,211.4 1012.8,212.3 1012.8,212.3 C1012.8,212.3 1013.9,219.1 1015.6,220.3 C1017.3,221.5 1022.7,218.8 1025.3,216.9 C1027.9,215 1029.7,210 1028.6,206 C1027.4,202 1026.6,204.4 1026.6,204.4" id="Path" fill="#5F4540"></path>
            <path d="M1013.2,214.7 L1016.3,214 C1016.7,213.9 1017.1,214.2 1017.2,214.5 C1017.3,214.9 1017,215.3 1016.7,215.4 L1013.6,216.1 L1013.6,216.1 C1013.4,215.7 1013.3,215.2 1013.2,214.7 L1013.2,214.7" id="Path" fill="#AE7955"></path>
            <path d="M1028.7,201.7 C1028.1,202.2 1028.4,208.5 1029.2,208.6 C1031,208.7 1031.9,205.7 1032.1,203.7 C1032.4,201 1029.7,200.9 1028.7,201.7" id="Path" fill="#AE7955"></path>
            <path d="M1007.5,238.8 C1007.5,238.7 1007.4,238.7 1007.4,238.6 C1007.4,238.4 1008.8,233.3 1010.3,230.7 L1010.3,230.7 C1009.2,233.8 1009.2,237.9 1009.2,237.9 L1009.2,237.9 C1009.2,237.9 1007.8,238.7 1007.5,238.8" id="Path" fill="#428433"></path>
            <path d="M863.8,280.8 C868.7,279.7 871.8,274.8 870.6,269.9 C869.5,265 864.6,262 859.7,263.1 C854.8,264.2 851.7,269.1 852.9,274 C854,278.8 858.9,281.9 863.8,280.8 L863.8,280.8 Z" id="Path" fill="#0068B3"></path>
            <path d="M976.3,230.7 C978.1,230.3 979.2,228.5 978.8,226.7 C978.4,224.9 976.6,223.8 974.8,224.2 C973,224.6 971.9,226.4 972.3,228.2 C972.6,230 974.4,231.2 976.3,230.7 L976.3,230.7 Z" id="Path" fill="#0068B3"></path>
            <path d="M915.1,250 C919.4,249 922,244.8 921.1,240.5 C920.1,236.2 915.9,233.6 911.6,234.6 C907.3,235.6 904.7,239.8 905.7,244.1 C906.6,248.3 910.9,251 915.1,250 L915.1,250 Z" id="Path" fill="#0068B3"></path>
            <polygon id="Path" fill="#0068B3" points="860.2 273.1 913.7 243 974.9 227.7 974.5 226.1 913 241.5 859.4 271.6"></polygon>
            <polyline id="Path" fill="#0068B3" points="913.8 242.1 916.1 211.1 914.5 211 912.2 242"></polyline>
            <path d="M916.6,215.5 C919.6,214.8 921.4,211.8 920.7,208.9 C920,205.9 917,204.1 914.1,204.7 C911.1,205.4 909.2,208.4 909.9,211.3 C910.7,214.3 913.7,216.2 916.6,215.5 L916.6,215.5 Z" id="Path" fill="#0068B3"></path>
            <path d="M370.9,168 C373.4,168 375.4,166 375.4,163.5 C375.4,161 373.4,159 370.9,159 C368.4,159 366.4,161 366.4,163.5 C366.4,166 368.4,168 370.9,168" id="Path" fill="#FFFFFF"></path>
            <path d="M400.5,182.4 C395.9,182.4 392.2,186.1 392.2,190.7 C392.2,195.3 395.9,199 400.5,199 C405.1,199 408.8,195.3 408.8,190.7 C408.8,186.1 405.1,182.4 400.5,182.4" id="Path" fill="#FFFFFF"></path>
            <path d="M296.7,274 C295.5,274 294.5,275 294.5,276.2 C294.5,277.4 295.5,278.4 296.7,278.4 C297.9,278.4 298.9,277.4 298.9,276.2 C298.9,275 297.9,274 296.7,274" id="Path" fill="#FFFFFF"></path>
            <path d="M146.4,152.1 C147.5,152.1 148.4,151.2 148.4,150.1 C148.4,149 147.5,148.1 146.4,148.1 C145.3,148.1 144.4,149 144.4,150.1 C144.4,151.2 145.3,152.1 146.4,152.1" id="Path" fill="#FFFFFF"></path>
            <path d="M233.9,138.6 C233.9,138.6 228,140.3 225.6,141.3 C223.2,142.3 219.7,146.7 218.7,151.6 C217.6,156.5 216.3,161.3 215.8,163.5 C214.9,168.2 214.9,171.2 215.5,173.6 C216.1,176 218.4,177.7 220.3,178.3 C220.8,178.5 222.4,179.3 222.4,179.3 L239.3,179.3 L237,145.4 L233.9,138.6 Z" id="Path" fill="#026A9D"></path>
            <rect id="Rectangle" fill="#402A1B" x="220.4" y="208" width="3.7" height="69.8"></rect>
            <rect id="Rectangle" fill="#402A1B" x="260.1" y="208" width="3.7" height="69.8"></rect>
            <path d="M267.4,197 C267.4,195.2 265.9,193.7 263.9,193.7 L220.5,193.7 C218.6,193.7 217,195.2 217,197 L215.8,206.2 C215.8,208 217.4,209.5 219.3,209.5 L265.1,209.5 C267,209.5 268.6,208 268.6,206.2 L267.4,197 Z" id="Path" fill="#1E2020"></path>
            <path d="M256.2,209.6 C256.2,209.6 244,214 239.1,212.6 C234.2,211.2 241.3,200.4 241.3,200.4 L253.4,201 L256.2,209.6 Z" id="Path" fill="#F1A05B"></path>
            <path d="M258.2,177.6 C258.2,177.6 262,187.8 264,191.4 C265.9,194.7 266.1,202.1 264.4,205.3 C262.6,208.6 240.7,200.2 240.7,200.2 L239.8,179.4 L258.2,177.6 Z" id="Path" fill="#026A9D"></path>
            <path d="M256.2,209.6 C256.2,209.6 266.8,207.2 264.6,196.2 C263.6,191.4 257.5,195.4 257.5,195.4 L246,196.9 L256.2,209.6 Z" id="Path" fill="#026A9D"></path>
            <path d="M247.6,250.6 C247.5,252.1 247.3,255.9 248.1,259.3 C249,263.1 250.8,267.6 254.9,267 C260.8,266.1 255.7,251.3 254.9,249.5 C253.8,247.1 252.3,246.7 250.9,247.1 C248.4,247.6 248,246.6 247.6,250.6" id="Path" fill="#1E2020"></path>
            <path d="M237.5,261.5 C237.5,261.5 236.3,270.6 237.3,274 C238.4,277.5 239.2,279.1 241.4,279.1 C244.6,279.1 245.7,275.4 245.7,271.8 C245.7,268.4 245.6,263.5 244.6,261.2 C243.8,258.9 237.5,261.5 237.5,261.5" id="Path" fill="#1E2020"></path>
            <path d="M226.3,208 C222.5,206.6 218.6,205.7 218.1,202.5 C217.5,199.3 219.2,195.6 221.1,192.8 C223,189.9 226.6,179.4 226.6,179.4 L242.5,179.4 L242.1,207.5 L226.3,208 Z" id="Path" fill="#026A9D"></path>
            <path d="M230.3,210.3 C229.6,213.4 231.1,220.6 233.5,229.9 C235.2,236.6 238.2,252.8 237.9,255.4 C237.6,258 237.6,263.5 237.7,265.8 C237.8,268.1 237.8,271.1 241.6,271 C245.4,270.9 245.5,265.4 245,262.1 C244.5,258.8 243.7,253.7 243.7,250.7 C243.7,247.7 244.4,233.1 244.2,227.7 C244,222.3 241.3,204.1 241.3,204.1 C241.3,204.1 230.6,208.6 230.3,210.3" id="Path" fill="#F1A05B"></path>
            <path d="M253.8,246.9 C252.4,244.4 251.1,223.1 251.1,223.1 C251.1,223.1 249.6,201.4 248.3,199.7 C247,198 236.8,198 231.4,201.6 C226,205.3 226.5,206 226.3,207.9 C226.3,207.9 234.2,209.4 238.5,208.4 C237.7,215.4 241.7,227.1 243,230.3 C244.8,235.1 247.6,242.4 247.7,245.8 C247.9,250 248.3,261.1 253.3,260.2 C258.1,259.4 255.7,250.5 253.8,246.9" id="Path" fill="#F8B174"></path>
            <polygon id="Path" fill="#FFFFFF" points="250.8 146.2 242.2 149.6 234.8 146.2 234.8 179.3 250.8 179.3"></polygon>
            <path d="M237.8,132.1 C237.8,132.1 237.6,136.5 236.3,138.9 L242.1,150.4 L242.1,135 L237.8,132.1 Z" id="Path" fill="#F8B174"></path>
            <path d="M246.5,132.1 C246.5,132.1 246.7,136.5 248,138.9 L242.2,150.4 L242.2,135 L246.5,132.1 Z" id="Path" fill="#F8B174"></path>
            <path d="M246.7,134.3 L246.7,134.3 C246.6,133.6 246.6,133.1 246.5,132.7 L246.4,132.2 L242.1,135.1 L238,132.3 L237.8,132.4 C237.8,132.9 237.7,134.2 237.4,135.6 L237.2,136.5 C237.2,136.5 237.9,137.9 241.4,137.9 C244.6,137.8 246.7,134.3 246.7,134.3" id="Path" fill="#F1A05B"></path>
            <path d="M225.6,152.6 C227.8,153.5 225.6,179.4 225.6,179.4 L239.2,179.4 L237.2,142.3 L225.6,152.6 Z" id="Path" fill="#026A9D"></path>
            <path d="M248.7,132.1 C248.7,132.1 249.7,131.2 249.8,130.8 L249.1,130.5 L248.7,132.1 Z" id="Path" fill="#4E2B14"></path>
            <path d="M235.6,132.1 C235.6,132.1 234.6,131.2 234.5,130.8 L235.2,130.5 L235.6,132.1 Z" id="Path" fill="#4E2B14"></path>
            <path d="M243.5,110.9 C244.2,113.6 242.2,114.8 239.5,115.5 C236.8,116.2 234.5,116 233.8,113.3 C233.1,110.6 235,109.1 237.7,108.4 C240.4,107.8 242.8,108.2 243.5,110.9" id="Path" fill="#E16F0D"></path>
            <path d="M250.6,126.2 C250.6,126.2 251.8,121 250.4,118.1 C248.8,115 246.5,113.2 242.2,113.2 C237.9,113.2 235.6,115 234,118.1 C232.6,121 233.8,126.2 233.8,126.2 C231.8,125.8 232.2,127.9 232.8,128.8 C233.3,129.6 233.3,129.7 233.6,130.5 C234,131.7 235,130.9 235,130.9 C235.6,132.5 236,132.9 238.3,135 C240.3,136.8 241.1,136.8 242.1,136.8 C243.1,136.8 243.8,136.8 245.9,135 C248.2,132.9 248.7,132.5 249.2,130.9 C249.2,130.9 250.2,131.8 250.7,130.5 C251,129.6 251,129.6 251.5,128.8 C252.2,127.9 252.5,125.8 250.6,126.2" id="Path" fill="#F8B174"></path>
            <path d="M247.8,113.2 C243,110.8 239,113.2 239,113.2 C229.1,114.3 232.5,126.5 232.5,126.5 L232.5,126.5 C232.7,126.2 233.1,126.1 233.7,126.2 C233.6,125.3 234.7,124.2 236.4,123 C238.2,121.7 238.9,119.9 238.9,119.9 C238.9,119.9 240.7,123.1 245.1,124 C249.5,124.9 250.4,125.5 250.6,126.3 C251.2,126.2 251.6,126.3 251.8,126.6 C251.8,126.5 254.5,116.6 247.8,113.2" id="Path" fill="#E16F0D"></path>
            <path d="M250.4,131.1 C250.4,131.4 250.2,131.5 250,131.5 C249.8,131.5 249.6,131.3 249.6,131.1 C249.6,130.9 249.8,130.7 250,130.7 C250.2,130.6 250.4,130.8 250.4,131.1" id="Path" fill="#D41216"></path>
            <path d="M233.9,131.1 C233.9,131.4 234.1,131.5 234.4,131.5 C234.7,131.5 234.8,131.3 234.8,131.1 C234.8,130.9 234.6,130.7 234.4,130.7 C234.1,130.6 233.9,130.8 233.9,131.1" id="Path" fill="#D41216"></path>
            <polygon id="Path" fill="#D8E9ED" points="242.2 150.5 236.4 138.9 237.2 136.8 234.8 137.4 230.3 143.2 234.8 144.1 233.9 146.8"></polygon>
            <path d="M250.4,138.6 C250.4,138.6 256.3,140.3 258.7,141.3 C261.1,142.3 264.6,146.7 265.6,151.6 C266.7,156.5 268.1,161.9 268.6,164.1 C269.5,168.1 269.4,171.1 268.8,173.5 C268.2,175.9 265.9,177.6 264,178.2 C263.5,178.4 261.9,179.2 261.9,179.2 L245,179.2 L247.3,145.3 L250.4,138.6 Z" id="Path" fill="#026A9D"></path>
            <polygon id="Path" fill="#D8E9ED" points="242.2 150.5 248 138.9 247.2 136.8 249.5 137.4 254 143.2 249.5 144.1 250.4 146.8"></polygon>
            <path d="M255.6,172.1 C255.6,172.1 260.8,169.6 261,169.2 C261.2,168.8 257.9,155 257.9,155 C257.9,155 258.9,166.8 259,167.8 C259.1,168.8 254.1,172.1 254.1,172.1 L255.6,172.1 Z" id="Path" fill="#093C5D"></path>
            <path d="M228.7,172.1 C228.7,172.1 223.5,169.6 223.3,169.2 C223.1,168.8 226.4,155 226.4,155 C226.4,155 225.4,166.8 225.3,167.8 C225.2,168.8 230.2,172.1 230.2,172.1 L228.7,172.1 Z" id="Path" fill="#093C5D"></path>
            <path d="M224.8,179.3 C224.8,179.3 223.1,179.5 222.7,178.8 C222.2,178 221.4,177.6 220.4,177.5 C220.4,177.5 220.6,175 223.2,174.1 C225.8,173.2 229,171.7 229.5,172.1 C229.8,172.5 224.8,179.3 224.8,179.3" id="Path" fill="#EDAC72"></path>
            <path d="M230.8,172.2 C231.8,173.1 234.8,176.1 234,177.3 C233.2,178.4 232.6,178.1 232.3,178.6 C232.1,179.1 231.7,179.4 231,179.8 C230.3,180.3 229.2,180.2 228.6,180.6 C228,181 226.9,181.7 225.9,180.6 C224.8,179.5 223.5,177.5 223.4,176.8 C223.3,176.2 223.7,175.4 224.4,175.1 C225.1,174.9 225.5,174 226,173.8 C226.5,173.6 227.1,173.4 227.5,173 C227.9,172.6 228.6,172.6 228.8,172.4 C228.9,172.3 230,171.5 230.8,172.2" id="Path" fill="#F8B174"></path>
            <path d="M136.7,221.3 L148.5,208.8 L148.7,208.5 L149.8,208.9 C149.8,208.9 162.9,211.5 169.8,213.8 C175.8,215.8 175.6,218 175.9,221.8 C176.2,226.7 174,254.5 173.9,254.9 L173.9,254.9 C171.4,254.6 168.2,255 165.7,255.4 C162.2,244.1 164.3,232.1 165.8,225.1 C165.8,225.1 159.6,223.7 138.2,221.3 C137.7,221.4 137.2,221.4 136.7,221.3" id="Path" fill="#F1A05B"></path>
            <path d="M173.9,255 C174.1,266.1 173.1,278.1 176.2,281 C176.2,281 173.5,282.5 172,281.8 C169.4,280.5 166.4,270.9 166.4,270.9 C166.4,270.9 168.2,267.1 167,259.8 C166.6,257.6 166.2,256.7 165.8,255.6 C168.2,255.2 171.4,254.8 173.9,255 L173.9,255 Z" id="Path" fill="#F1A05B"></path>
            <path d="M148.1,279.6 C148.1,281.1 146.9,282.3 145.4,282.3 C143.9,282.3 142.7,281.1 142.7,279.6 L142.7,223.2 C142.7,221.7 143.9,220.5 145.4,220.5 C146.9,220.5 148.1,221.7 148.1,223.2 L148.1,279.6 Z" id="Path" fill="#88522E"></path>
            <path d="M128.1,225.5 C128.1,227.7 126.3,229.5 124.1,229.5 C121.9,229.5 120.1,227.7 120.1,225.5 L117.4,163.4 C117.4,161.2 119.2,159.4 121.4,159.4 C123.6,159.4 125.4,161.2 125.4,163.4 L128.1,225.5 Z" id="Path" fill="#5B361F"></path>
            <path d="M166.4,225.2 C166.4,222.8 164.4,220.8 162,220.8 L124.4,220.8 C122,220.8 120,222.8 120,225.2 C120,227.6 122,229.6 124.4,229.6 L162,229.6 C164.5,229.6 166.4,227.6 166.4,225.2" id="Path" fill="#402A1B"></path>
            <path d="M156.4,280.6 C156.4,278.9 155,277.6 153.4,277.6 L136.6,277.6 C134.9,277.6 133.6,279 133.6,280.6 C133.6,282.3 135,283.6 136.6,283.6 L153.4,283.6 C155,283.6 156.4,282.3 156.4,280.6" id="Path" fill="#402A1B"></path>
            <path d="M166.4,270.8 C166.4,270.8 164.2,272.9 164.5,276.2 C164.9,279.5 165.3,283.4 165,284.6 L166.4,284.8 L166.7,277.5 C166.7,277.5 169.3,279.9 169.8,281.8 C170.3,283.7 169.3,284.8 176.5,285.3 C180.1,285.5 182.8,285.4 182.3,283.9 C181.5,281.6 179.9,283.3 176.1,280.9 C176.2,281 172.4,281.7 166.4,270.8" id="Path" fill="#093C5D"></path>
            <path d="M130.1,207.2 L139,208 L149.8,209 C149.8,209 165.9,213.6 173.6,215.9 C179.6,217.7 179.7,219.7 180.2,223.4 C180.8,228.2 180.2,256.2 180.2,256.6 L180.2,256.6 C177.7,256.5 174.5,257.2 172.1,257.7 C167.9,246.7 169.4,234.5 170.4,227.5 C170.4,227.5 164.2,226.4 142.6,225.6 C120.6,224.8 130.1,207.2 130.1,207.2" id="Path" fill="#F8B174"></path>
            <path d="M180.2,256.6 C181.1,267.7 181,279.7 184.2,282.3 C184.2,282.3 181.6,284 180.1,283.4 C177.4,282.3 173.8,272.9 173.8,272.9 C173.8,272.9 175.4,269 173.7,261.8 C173.2,259.7 172.7,258.8 172.2,257.7 C174.5,257.2 177.7,256.6 180.2,256.6 L180.2,256.6 Z" id="Path" fill="#F8B174"></path>
            <path d="M173.7,272.9 C173.7,272.9 171.6,275.2 172.2,278.5 C172.8,281.8 173.5,285.6 173.3,286.8 L174.7,286.9 L174.5,279.6 C174.5,279.6 177.2,281.8 177.9,283.6 C178.5,285.5 177.6,286.7 184.8,286.6 C188.4,286.6 191.1,286.2 190.5,284.8 C189.6,282.6 188.1,284.4 184.1,282.3 C184.1,282.3 180.5,283.4 173.7,272.9" id="Path" fill="#026A9D"></path>
            <path d="M166.7,227.1 L166.7,227.1 C165.6,220.7 168.8,213.7 168.8,213.6 C161.7,211.4 149.7,209 149.7,209 L149.5,207.7 C149.4,207.8 144,208 139,208 C134.2,208 130.1,207.2 130.1,207.2 C130.1,207.2 120.6,224.8 142.5,225.6 C155.5,226.1 162.9,226.7 166.7,227.1" id="Path" fill="#1E1E1C"></path>
            <rect id="Rectangle" fill="#1E2020" x="195.8" y="187.8" width="4.3" height="94.9"></rect>
            <rect id="Rectangle" fill="#1E2020" x="291.7" y="187.8" width="4.3" height="94.9"></rect>
            <path d="M343.5,218.4 L331.7,205.9 L331.5,205.6 L330.4,206 C330.4,206 317.3,208.6 310.4,210.9 C304.4,212.9 304.6,215.1 304.3,218.9 C304,223.8 306.2,251.6 306.3,252 L306.3,252 C308.8,251.8 312,252.1 314.5,252.5 C318,241.2 315.9,229.2 314.4,222.2 C314.4,222.2 320.5,220.8 342,218.4 C342.4,218.5 342.9,218.5 343.5,218.4" id="Path" fill="#3A8835"></path>
            <path d="M306.2,252.1 C306,263.2 307,275.2 303.9,278.1 C303.9,278.1 306.6,279.6 308.1,278.9 C310.7,277.6 313.7,268 313.7,268 C313.7,268 311.9,264.2 313.1,256.9 C313.5,254.7 313.9,253.8 314.3,252.7 C311.9,252.3 308.7,251.9 306.2,252.1 L306.2,252.1 Z" id="Path" fill="#B37143"></path>
            <path d="M332,276.7 C332,278.2 333.2,279.4 334.7,279.4 C336.2,279.4 337.4,278.2 337.4,276.7 L337.4,220.3 C337.4,218.8 336.2,217.6 334.7,217.6 C333.2,217.6 332,218.8 332,220.3 L332,276.7 Z" id="Path" fill="#88522E"></path>
            <path d="M352,222.6 C352,224.8 353.8,226.6 356,226.6 C358.2,226.6 360,224.8 360,222.6 L362.7,160.5 C362.7,158.3 360.9,156.5 358.7,156.5 C356.5,156.5 354.7,158.3 354.7,160.5 L352,222.6 Z" id="Path" fill="#5B361F"></path>
            <path d="M313.7,222.3 C313.7,219.9 315.7,217.9 318.1,217.9 L355.7,217.9 C358.1,217.9 360.1,219.9 360.1,222.3 C360.1,224.7 358.1,226.7 355.7,226.7 L318,226.7 C315.6,226.7 313.7,224.7 313.7,222.3" id="Path" fill="#402A1B"></path>
            <path d="M323.8,277.7 C323.8,276 325.2,274.7 326.8,274.7 L343.6,274.7 C345.3,274.7 346.6,276.1 346.6,277.7 C346.6,279.4 345.2,280.7 343.6,280.7 L326.8,280.7 C325.1,280.7 323.8,279.4 323.8,277.7" id="Path" fill="#402A1B"></path>
            <path d="M313.8,267.9 C313.8,267.9 316,270 315.7,273.3 C315.3,276.6 314.9,280.5 315.2,281.7 L313.8,281.9 L313.5,274.6 C313.5,274.6 310.9,277 310.4,278.9 C309.9,280.8 310.9,281.9 303.7,282.4 C300.1,282.6 297.4,282.5 297.9,281 C298.7,278.7 300.3,280.4 304.1,278 C303.9,278.1 307.7,278.8 313.8,267.9" id="Path" fill="#093C5D"></path>
            <path d="M350,204.3 L341.1,205.1 L330.3,206.1 C330.3,206.1 314.2,210.7 306.5,213 C300.5,214.8 300.4,216.8 299.9,220.5 C299.3,225.3 299.9,253.2 299.9,253.7 L299.9,253.7 C302.4,253.6 305.6,254.3 308,254.8 C312.2,243.8 310.7,231.6 309.7,224.6 C309.7,224.6 315.9,223.5 337.5,222.7 C359.5,221.9 350,204.3 350,204.3" id="Path" fill="#6B9C53"></path>
            <path d="M300,253.7 C299.1,264.8 299.2,276.8 296,279.4 C296,279.4 298.6,281.1 300.1,280.5 C302.8,279.4 306.4,270 306.4,270 C306.4,270 304.8,266.1 306.5,258.9 C307,256.8 307.5,255.9 308,254.8 C305.6,254.3 302.4,253.7 300,253.7 L300,253.7 Z" id="Path" fill="#DC8D53"></path>
            <path d="M306.4,270 C306.4,270 308.5,272.3 307.9,275.6 C307.3,278.9 306.7,282.7 306.8,283.9 L305.4,284 L305.6,276.7 C305.6,276.7 302.8,278.9 302.2,280.7 C301.6,282.5 302.5,283.8 295.3,283.7 C291.7,283.7 289,283.3 289.6,281.9 C290.5,279.7 292,281.5 296,279.4 C296,279.5 299.7,280.5 306.4,270" id="Path" fill="#026A9D"></path>
            <path d="M337.5,147.1 C337.5,147.1 334.8,148.8 333.2,154.6 C332.5,157.3 333.2,161.7 333.3,166 C333.3,169.5 334.5,173.4 333.5,176.1 C331.4,182 333.4,186.7 333.4,186.7 C333.4,186.7 331.5,184.2 333.1,180.5 C333.6,179.2 335.3,177 335.1,173.2 C335,169.4 335.2,166.4 336.3,164.2 C337.3,162 337.2,159.1 337,156.9 C336.8,154.7 338.2,149.3 338.8,148.9 C339.4,148.5 338.3,148.2 338.3,148.2 L337.5,147.1 Z" id="Path" fill="#3A8835"></path>
            <path d="M354.5,147.3 C354.5,147.3 356.9,150.2 356.1,157 C355.8,160.2 354.5,165.3 352.6,169.9 C351,173.6 347.9,177.3 347.8,180.6 C347.6,187.7 341.6,191 341.6,191 C341.6,191 344.3,188.8 344.1,184.3 C344,182.7 343,179.9 344.9,176 C346.7,172 350.1,168.2 349.9,165.4 C349.7,162.7 349.5,160.2 350.7,158 C351.9,155.7 350.2,152.1 349.7,151.4 C349.2,150.7 353,148.3 353,148.3 L354.5,147.3 Z" id="Path" fill="#3A8835"></path>
            <path d="M348.5,153.8 C348.5,153.8 348.2,157.3 348.5,159.6 C348.8,161.9 347.4,163.1 346.5,164.8 C345.6,166.4 346.1,167 346.5,168.9 C346.9,170.7 345,171.8 344.7,173.1 C344.4,174.4 344.8,174.7 344.5,175.5 C344.2,176.3 342.6,179.6 343.6,181.6 C344.7,183.5 348.7,172.1 348.7,172.1 L350.7,163 C350.7,163 353.8,155.2 353.4,154.8 C352.9,154.4 351.1,151.5 351.1,151.5 L348.5,153.8 Z" id="Path" fill="#3A8835"></path>
            <path d="M333.6,158.5 C333.6,161.5 336,163.9 338.9,163.9 C341.8,163.9 344.2,161.5 344.2,158.5 C344.2,155.5 341.8,153.1 338.9,153.1 C336,153.1 333.6,155.5 333.6,158.5" id="Path" fill="#3A8835"></path>
            <path d="M337.1,162.6 C338,162.4 338.9,162.1 339.6,161.7 C341.3,160.7 341,155.8 341,155.8 L348.4,155.8 C348.4,155.8 348.1,160.8 349.8,161.7 C351.5,162.7 354.2,162.9 355.9,163.4 C357.5,163.9 356,165.3 356.5,168.5 C356.9,171.1 356.9,174.6 356.9,174.6 L337,174.5 L337,162.6 L337.1,162.6 L337.1,162.6 Z" id="Path" fill="#F8B174"></path>
            <path d="M335.3,163 L335.3,163 C336.7,162.6 338.4,162.3 339.6,161.6 C341.3,160.6 341,155.7 341,155.7 L348.4,155.7 C348.4,155.7 348.1,160.7 349.8,161.6 C351.5,162.6 354.2,162.8 355.9,163.3 C357.5,163.8 356,165.2 356.5,168.4 C356.9,171 356.9,174.5 356.9,174.5 L338.7,174.4 C338,174.9 337.1,175.3 336.1,175.7 C335.8,175.8 335.5,175.9 335.2,175.9 L335.2,163 L335.3,163 Z" id="Path" fill="#B37143"></path>
            <path d="M348.8,160.1 L348.8,160.1 C346.8,159.7 343,158.5 341.1,157.1 L341.1,156.7 L341.1,156.7 L341.1,156.6 L341.1,156.6 L341.1,156.5 L341.1,156.5 L341.1,156.4 L341.1,156.4 L341.1,156.3 L341.1,156.3 L341.1,156.3 L341.1,156.3 L344.8,156.3 L348.5,156.3 C348.5,156.1 348.3,158.3 348.8,160.1" id="Path" fill="#B37143"></path>
            <path d="M357,173.7 C357,173.7 357.6,169.4 356.6,166.9 C356,165.4 355.9,163.7 354.7,163 C354.2,162.7 351.8,162.2 351,162.1 C349.8,164.4 337.2,163.9 338.2,162.2 C337.4,162.4 335.2,162.5 334.2,163.8 C333.1,165.3 330.4,169.5 329.4,173.3 C328.5,176.7 329.8,178.2 330.9,183.8 C331.2,185.5 332.3,189.4 332.3,191.2 C332.4,196.9 330.4,205.8 330.4,206 C343.7,208.9 350,204.3 350,204.3 L348.7,201.1 C347.7,196.8 350.9,187.6 354.1,182.3 C356,179.1 357,176.9 357.4,175.4 L357.4,173.8 L357,173.7 Z" id="Path" fill="#4E3167"></path>
            <path d="M335.4,145.3 C335.4,145.3 334.7,141.7 335.5,139.1 C336.4,136.1 339,132.7 344.4,132.9 C349.6,133.3 335.4,145.3 335.4,145.3" id="Path" fill="#3A8835"></path>
            <path d="M336,146.9 C335.5,147.5 335.6,148.3 336.2,148.8 L337.4,149.8 C338,150.3 338.8,150.2 339.3,149.7 C339.8,149.1 339.7,148.3 339.2,147.8 L338,146.8 C337.4,146.3 336.5,146.4 336,146.9" id="Path" fill="#C91517"></path>
            <path d="M336.9,140.1 C338.5,135.9 341.6,131.9 347.6,133.3 C353.9,134.7 356.1,140.7 355.5,144.3 C354.9,147.8 353.8,149.9 353.4,150.6 C353,151.2 349.7,152.5 348.7,154.6 C347.6,156.6 336.9,140.1 336.9,140.1" id="Path" fill="#3A8835"></path>
            <path d="M349.8,151.3 C349.3,152.5 348.7,154.2 348.4,156.1 C347.9,156.3 347.6,156.8 346.9,157 C342.7,158.4 340,156.7 340,156.7 C340,156.7 339.9,157.3 340.7,156.5 L349.8,151.3 L349.8,151.3" id="Path" fill="#B37143"></path>
            <path d="M350.2,151.1 C349.6,152.3 349.1,154 346.8,155.3 C344.5,156.6 341,158.2 339.9,158.1 C338.9,157.9 338,158.1 336.9,155.2 C335.7,152.3 334.8,150.9 335.1,148.1 C335.4,145.4 335.2,139.7 338.9,138.2 C341.6,137.1 345.5,138.4 347.3,141 C349.1,143.5 349.7,143.8 349.9,147.4 L350.2,151.1 Z" id="Path" fill="#DC8D53"></path>
            <rect id="Rectangle" fill="#1E2020" x="165" y="205.9" width="4.3" height="90.3"></rect>
            <rect id="Rectangle" fill="#1E2020" x="322.5" y="210.4" width="4.3" height="85.8"></rect>
            <path d="M313.6,192.2 C309.8,189.8 303,187.8 298.6,187.8 L253.1,187.8 L237,187.8 L191.5,187.8 C187.1,187.8 180.3,189.8 176.5,192.2 L153.7,206.6 C149.9,209 150.4,211 154.8,211 L195,211 C199.4,211 206,208.8 209.7,206.1 L211.1,205.1 C214.7,202.4 213.2,200.2 217.6,200.2 L237,200.2 L253.1,200.2 L272.4,200.2 C276.8,200.2 275.3,202.4 278.9,205.1 L280.3,206.1 C284,208.8 290.6,211 295,211 L335.2,211 C339.6,211 340.1,209 336.3,206.6 L313.6,192.2 Z" id="Path" fill="#402A1B"></path>
            <rect id="Rectangle" fill="#402A1B" x="308" y="198.1" width="28.1" height="9.9"></rect>
            <polygon id="Path" fill="#402A1B" points="151.2 201 151.2 209.4 183.2 209.4 183.2 202.2"></polygon>
            <path d="M313.6,183.5 C309.8,181.1 303,179.1 298.6,179.1 L253.1,179.1 L237,179.1 L191.5,179.1 C187.1,179.1 180.3,181.1 176.5,183.5 L153.7,197.9 C149.9,200.3 150.4,202.3 154.8,202.3 L195,202.3 C199.4,202.3 206,200.1 209.7,197.4 L211.1,196.4 C214.7,193.7 213.2,191.5 217.6,191.5 L237,191.5 L253.1,191.5 L272.4,191.5 C276.8,191.5 275.3,193.7 278.9,196.4 L280.3,197.4 C284,200.1 290.6,202.3 295,202.3 L335.2,202.3 C339.6,202.3 340.1,200.3 336.3,197.9 L313.6,183.5 Z" id="Path" fill="#88522E"></path>
            <path d="M313.4,186.6 C313.4,186.6 311,185.5 309.9,185.3 C308.8,185.1 308.8,184.9 307.5,185.2 C306.2,185.5 305.3,185.7 304.9,185.3 C304.5,184.9 303.8,184.7 303.8,184.2 C303.8,183.7 302.6,183.7 302.5,183.1 C302.4,182.4 301.3,182.1 301.5,181.2 C301.6,180.4 302.5,180.3 304.9,180.4 C307.2,180.5 308.7,180.9 309.4,181.4 C310.1,181.9 313.2,183 313.2,183 L313.4,186.6 Z" id="Path" fill="#DC8D53"></path>
            <path d="M301.4,186.1 L301.4,186.1 C301.6,186.2 301.9,186.2 302.1,185.9 L307.2,178.3 C307.3,178.1 307.3,177.8 307.1,177.7 C306.9,177.6 306.6,177.7 306.5,177.9 L301.4,185.5 C301.2,185.7 301.2,186 301.4,186.1" id="Path" fill="#42B3AC"></path>
            <path d="M306.8,181.8 C306.1,181.9 303.7,180.6 303.4,181.2 C303.1,181.8 305.1,182.6 305.5,182.8 C305.8,183 307.6,183.3 307.6,183.3 L306.8,181.8 Z" id="Path" fill="#DC8D53"></path>
            <path d="M335.8,162.8 C335.4,163 333.7,170.2 332,173.2 C330.3,176.2 328.5,182.1 328.5,182.1 L312,181.7 L311.2,185.8 L330.6,188.9 L338.4,174.6 L335.8,162.8 Z" id="Path" fill="#40245D"></path>
            <rect id="Rectangle" fill="#FFFFFF" x="291.4" y="186.6" width="18.4" height="1.4"></rect>
            <rect id="Rectangle" fill="#FFFFFF" x="292.3" y="186.6" width="16.5" height="1"></rect>
            <path d="M321.5,185 C321.5,185 318.9,184.7 318,184.4 C317.2,184.1 309.5,185.6 309.3,187.5 C309.1,189.5 311.3,189 313.3,188.7 C315.3,188.4 321.5,188.3 322.6,188.4 C323.8,188.6 321.5,185 321.5,185" id="Path" fill="#DC8D53"></path>
            <path d="M332.3,191.1 C332.3,191.8 332.3,192.5 332.2,193.2 C337.8,194.1 343.5,193.7 349.2,194.1 C350.2,190 352.1,185.4 354,182.2 C355.9,179 356.9,176.8 357.3,175.3 L357.3,173.7 L356.9,173.6 C356.9,173.6 357.5,169.3 356.5,166.8 C355.9,165.3 355.8,163.6 354.6,162.9 C354.1,162.6 351.7,162.1 350.9,162 C349.7,164.3 337.1,163.8 338.1,162.1 C337.3,162.3 335.1,162.4 334.1,163.7 C333,165.2 330.3,169.4 329.3,173.2 C328.4,176.6 329.7,178.1 330.8,183.7 C331.2,185.5 332.3,189.4 332.3,191.1" id="Path" fill="#4E3167"></path>
            <path d="M332.3,191.1 C332.3,191.1 332.4,192 332.3,193.3 L348.5,198 C348.5,198 349.7,192.6 350.4,190.5 C351,188.3 332.3,191.1 332.3,191.1" id="Path" fill="#42B3AC"></path>
            <path d="M350.4,170.3 C350.4,170.3 344.8,182.4 343.4,184.3 C342.5,185.4 331.1,184.3 331.1,184.3 L332.8,189.7 L346.9,190.5 L350.4,170.3 Z" id="Path" fill="#40245D"></path>
            <path d="M353.4,162.8 C356,163.4 361.6,163.5 358.9,174.5 C356.2,185.5 349.2,194.2 347.8,195.9 C346.4,197.6 319.1,188.4 319.1,188.4 L319.8,183.1 L343.6,186.7 C343.6,186.7 346,185.7 348.4,176.5 C350.5,168.9 353.4,162.8 353.4,162.8" id="Path" fill="#4E3167"></path>
            <path d="M127.5,150.2 C127.5,150.2 125.5,153.1 126.1,159.9 C126.4,163.1 127.4,168.2 129.1,172.8 C130.5,176.5 133.1,180.2 133.2,183.5 C133.4,190.6 138.5,193.9 138.5,193.9 C138.5,193.9 136.2,191.7 136.3,187.2 C136.3,185.6 137.2,182.8 135.6,178.9 C134.1,174.9 131.2,171.1 131.3,168.3 C131.5,165.6 131.6,163.2 130.6,160.9 C129.6,158.6 131,155 131.5,154.3 C131.9,153.6 128.7,151.2 128.7,151.2 L127.5,150.2 Z" id="Path" fill="#36140F"></path>
            <path d="M132.6,154.1 C132.6,154.1 132.8,157.9 132.6,160.5 C132.4,163 133.5,164.4 134.3,166.1 C135,167.9 134.7,168.5 134.3,170.5 C134,172.5 135.5,173.7 135.8,175.1 C136.1,176.5 135.7,176.9 136,177.8 C136.2,178.7 137.6,182.3 136.7,184.4 C135.8,186.5 132.4,174 132.4,174 L130.7,164 C130.7,164 128,155.5 128.4,155 C128.8,154.5 130.4,151.4 130.4,151.4 L132.6,154.1 Z" id="Path" fill="#36140F"></path>
            <path d="M143,165.4 C142.1,165.2 141.2,164.9 140.5,164.5 C138.8,163.5 139.1,158.5 139.1,158.5 L131.7,158.5 C131.7,158.5 132,163.5 130.3,164.5 C128.6,165.5 125.9,165.7 124.2,166.2 C122.6,166.7 124.1,168.1 123.6,171.3 C123.2,173.9 123.2,177.4 123.2,177.4 L143.1,177.3 L143.1,165.4 L143,165.4 L143,165.4 Z" id="Path" fill="#F8B174"></path>
            <path d="M144.8,165.9 L144.8,165.9 C143.4,165.5 141.7,165.2 140.5,164.5 C138.8,163.5 139.1,158.6 139.1,158.6 L131.7,158.6 C131.7,158.6 132,163.6 130.3,164.5 C128.6,165.5 125.9,165.7 124.2,166.2 C122.6,166.7 124.1,168.1 123.6,171.3 C123.2,173.9 123.2,177.4 123.2,177.4 L141.4,177.3 C142.1,177.8 143,178.2 144,178.6 C144.3,178.7 144.6,178.8 144.9,178.8 L144.9,165.9 L144.8,165.9 L144.8,165.9 Z" id="Path" fill="#F8B174"></path>
            <path d="M131.3,163 L131.3,163 C133.3,162.6 137.1,161.4 139,160 L139,159.6 L139,159.6 L139,159.5 L139,159.5 L139,159.4 L139,159.4 L139,159.3 L139,159.3 L139,159 L139,159 L139,159 L139,159 L135.3,159 L131.6,159 C131.7,158.9 131.8,161.2 131.3,163" id="Path" fill="#F1A05B"></path>
            <path d="M123.1,176.6 C123.1,176.6 122.5,172.3 123.5,169.8 C124.1,168.3 124.2,166.6 125.4,165.9 C125.9,165.6 128.3,165.1 129.1,165 C130.3,167.3 142.9,166.8 141.9,165.1 C142.7,165.3 144.9,165.4 145.9,166.7 C147,168.2 149.7,172.4 150.7,176.2 C151.6,179.6 150.3,181.1 149.2,186.7 C148.9,188.4 147.8,192.3 147.8,194.1 C147.7,199.8 149.7,208.7 149.8,208.9 C136.5,211.8 130.2,207.2 130.2,207.2 L131.5,204 C132.5,199.7 129.3,190.5 126.1,185.2 C124.2,182 123.2,179.8 122.8,178.3 L122.8,176.7 L123.1,176.6 Z" id="Path" fill="#DE5D3F"></path>
            <path d="M144.7,148.2 C144.7,148.2 145.4,144.6 144.6,142 C143.7,139 141.1,135.6 135.7,135.8 C130.5,136.2 144.7,148.2 144.7,148.2" id="Path" fill="#36140F"></path>
            <path d="M144.1,149.8 C144.6,150.4 144.5,151.2 143.9,151.7 L142.7,152.7 C142.1,153.2 141.3,153.1 140.8,152.6 C140.3,152 140.4,151.2 140.9,150.7 L142.1,149.7 C142.7,149.2 143.6,149.3 144.1,149.8" id="Path" fill="#C91517"></path>
            <path d="M143.3,143 C141.7,138.8 138.6,134.8 132.6,136.2 C126.3,137.6 124.1,143.6 124.7,147.2 C125.3,150.7 126.4,152.8 126.8,153.5 C127.2,154.2 130.5,155.4 131.5,157.5 C132.5,159.5 143.3,143 143.3,143" id="Path" fill="#36140F"></path>
            <path d="M130.3,154.2 C130.8,155.4 131.4,157.1 131.7,159 C132.2,159.2 132.5,159.7 133.2,159.9 C137.4,161.3 140.1,159.6 140.1,159.6 C140.1,159.6 140.2,160.2 139.4,159.4 L130.3,154.2 L130.3,154.2" id="Path" fill="#F1A05B"></path>
            <path d="M130,154 C130.6,155.2 131.1,156.9 133.4,158.2 C135.7,159.5 139.2,161.1 140.3,161 C141.3,160.8 142.2,161 143.3,158.1 C144.5,155.2 145.4,153.8 145.1,151 C144.8,148.3 145,142.6 141.3,141.1 C138.6,140 134.7,141.3 132.9,143.9 C131.1,146.4 131.2,147.3 131,150.9 C131,150.9 128.8,148.8 128.1,148.8 C127.4,148.8 126.8,149.4 127.5,150.8 C128.1,152.2 128.5,151.9 128.6,152.7 C128.8,153.4 129,154.2 129.4,154.4 C130,154.5 130,154 130,154" id="Path" fill="#F8B174"></path>
            <path d="M139.4,140.5 C139.4,140.5 136.8,149.2 131.1,151.7 L127.3,145.2 L131.9,139.8 L139.4,140.5 Z" id="Path" fill="#36140F"></path>
            <path d="M138.3,141 C138.3,141 142.1,144.9 144.9,145.6 C144.9,145.6 143.7,139.3 139.7,137.3 L138.3,141 Z" id="Path" fill="#36140F"></path>
            <path d="M166.7,189.5 C166.7,189.5 169.1,188.4 170.2,188.2 C171.3,188 171.3,187.8 172.5,188.1 C173.8,188.4 174.7,188.7 175.1,188.2 C175.5,187.8 176.2,187.6 176.2,187.1 C176.2,186.6 177.4,186.6 177.5,186 C177.6,185.3 178.7,185 178.5,184.1 C178.4,183.3 177.5,183.2 175.1,183.3 C172.7,183.4 171.3,183.8 170.6,184.3 C169.9,184.8 166.8,185.9 166.8,185.9 L166.7,189.5 Z" id="Path" fill="#F8B174"></path>
            <path d="M178.7,189 L178.7,189 C178.5,189.1 178.2,189.1 178,188.8 L172.9,181.2 C172.8,181 172.8,180.7 173,180.6 C173.2,180.5 173.5,180.6 173.6,180.8 L178.7,188.4 C178.9,188.6 178.9,188.9 178.7,189" id="Path" fill="#42B3AC"></path>
            <path d="M173.3,184.7 C174,184.8 176.4,183.5 176.7,184.1 C177,184.7 175,185.5 174.7,185.7 C174.4,185.9 172.6,186.2 172.6,186.2 L173.3,184.7 Z" id="Path" fill="#F8B174"></path>
            <path d="M144.4,165.7 C144.8,165.9 146.5,173.1 148.2,176.1 C149.9,179.1 151.7,185 151.7,185 L168.2,184.6 L169,188.7 L149.6,191.8 L141.8,177.5 L144.4,165.7 Z" id="Path" fill="#D52D1E"></path>
            <rect id="Rectangle" fill="#FFFFFF" x="170.3" y="189.5" width="18.4" height="1.4"></rect>
            <rect id="Rectangle" fill="#FFFFFF" x="171.4" y="189.5" width="16.5" height="1"></rect>
            <path d="M158.6,187.9 C158.6,187.9 161.2,187.6 162.1,187.3 C163,187 170.6,188.4 170.8,190.4 C171,192.4 168.8,191.9 166.8,191.6 C164.8,191.3 158.6,191.2 157.5,191.3 C156.4,191.5 158.6,187.9 158.6,187.9" id="Path" fill="#F8B174"></path>
            <path d="M147.8,194 C147.8,194.7 147.8,195.4 147.9,196.1 C142.3,197 136.6,196.6 130.9,197 C129.9,192.9 128,188.3 126.1,185.1 C124.2,181.9 123.2,179.7 122.8,178.2 L122.8,176.6 L123.2,176.5 C123.2,176.5 122.6,172.2 123.6,169.7 C124.2,168.2 124.3,166.5 125.5,165.8 C126,165.5 128.4,165 129.2,164.9 C130.4,167.2 143,166.7 142,165 C142.8,165.2 145,165.3 146,166.6 C147.1,168.1 149.8,172.3 150.8,176.1 C151.7,179.5 150.4,181 149.3,186.6 C148.9,188.4 147.8,192.3 147.8,194" id="Path" fill="#DE5D3F"></path>
            <path d="M147.8,194 C147.8,194 147.7,194.9 147.8,196.2 L131.6,200.9 C131.6,200.9 130.3,195.5 129.7,193.4 C129.1,191.2 147.8,194 147.8,194" id="Path" fill="#D52D1E"></path>
            <path d="M129.8,173.2 C129.8,173.2 135.4,185.3 136.8,187.2 C137.7,188.4 149.1,187.2 149.1,187.2 L147.4,192.6 L133.3,193.4 L129.8,173.2 Z" id="Path" fill="#D52D1E"></path>
            <path d="M126.8,165.7 C124.2,166.3 118.6,166.4 121.3,177.4 C124,188.4 131,197.1 132.4,198.8 C133.8,200.5 161.1,191.3 161.1,191.3 L160.3,186 L136.5,189.6 C136.5,189.6 134.1,188.6 131.7,179.4 C129.7,171.8 126.8,165.7 126.8,165.7" id="Path" fill="#DE5D3F"></path>
            <path d="M132.7,167.4 C132.7,167.4 142.3,173.3 144.4,180.6 C144.4,180.6 141.5,167.9 142.3,165.3 L132.7,167.4 Z" id="Path" fill="#B5D1D7"></path>
            <polygon id="Path" fill="#D8E9ED" points="130.9 163.8 138.8 166.4 137.7 169.7 128.1 165.2 129.7 163.4 131.3 162.6"></polygon>
            <path d="M138.8,166.4 L140.5,164.5 C140.5,164.5 140.1,164.2 139.8,163.8 C139.7,163.6 139.4,163 139.4,163 L141.5,163.9 L142.2,165.2 L141.5,169.2 L138.8,166.4 Z" id="Path" fill="#D8E9ED"></path>
            <path d="M325.4,195.6 C325.4,194.7 324.5,193.9 323.4,193.9 L302.2,193.9 C301.1,193.9 300.2,194.6 300.2,195.6 C300.2,196.5 301.1,197.3 302.2,197.3 L323.4,197.3 C324.5,197.3 325.4,196.5 325.4,195.6" id="Path" fill="#FFFFFF"></path>
            <path d="M304,195.3 L321.5,195.3 C322.4,195.3 323.1,194.7 323.1,194 L302.4,194 C302.4,194.7 303.1,195.3 304,195.3" id="Path" fill="#D8E9ED"></path>
            <path d="M323.4,196.5 L302.2,196.5 C301.3,196.5 300.5,196 300.3,195.2 C300.3,195.3 300.2,195.5 300.2,195.6 C300.2,196.5 301.1,197.3 302.2,197.3 L323.4,197.3 C324.5,197.3 325.4,196.5 325.4,195.6 C325.4,195.5 325.3,195.3 325.3,195.2 C325,195.9 324.3,196.5 323.4,196.5" id="Path" fill="#B5D1D7"></path>
            <path d="M301.6,194.8 C301.6,195.6 300.9,196.3 300.1,196.3 C299.3,196.3 298.6,195.6 298.6,194.8 L293.7,167.8 C293.7,167 294.4,166.3 295.2,166.3 C296,166.3 296.7,167 296.7,167.8 L301.6,194.8 Z" id="Path" fill="#B5D1D7"></path>
            <path d="M249.8,186.7 L249.8,187.2 C249.8,187.2 249.9,187.6 250.5,187.2 C251.1,186.8 259.2,180.5 259.2,180.5 C259.2,180.5 259.6,180.2 259.1,179.9 L249.8,186.7 Z" id="Path" fill="#5B361F"></path>
            <path d="M248.9,187 C249.2,187 249.6,186.9 249.8,186.8 L258.9,180.1 C259.1,180 259.1,179.8 258.8,179.8 L231.4,179.1 C231.1,179.1 230.6,178.3 230.4,178.4 L219.6,184.8 C219.4,184.9 219.4,185.1 219.7,185.1 L248.9,187 Z" id="Path" fill="#FFFFFF"></path>
            <path d="M249.8,187 C249.8,187.3 249.6,187.5 249.3,187.4 L219.8,185.5 C219.5,185.5 219.3,185.2 219.3,184.9 L219.3,157.9 C219.3,157.6 219.5,157.4 219.8,157.5 L249.3,159.4 C249.6,159.4 249.8,159.7 249.8,160 L249.8,187 Z" id="Path" fill="#402A1B"></path>
            <path d="M249.8,186.7 C249.8,187 249.6,187.2 249.3,187.1 L219.8,185.3 C219.5,185.3 219.3,185 219.3,184.7 L219.3,157.7 C219.3,157.4 219.5,157.2 219.8,157.2 L249.3,159.1 C249.6,159.1 249.8,159.4 249.8,159.7 L249.8,186.7 Z" id="Path" fill="#B5D1D7"></path>
            <path d="M236.3,173.7 C236.5,173.4 236.6,173 236.6,172.6 C236.6,171.4 235.6,170.3 234.4,170.2 C233.2,170.1 232.2,170.9 232.2,172.1 C232.2,172.5 232.3,172.9 232.5,173.3 C233.1,174.4 233.2,174.7 233.2,175.2 C233.2,175.9 233.2,176.5 233.2,176.5 L234.4,176.6 L235.6,176.7 C235.6,176.7 235.6,176.1 235.6,175.4 C235.6,174.9 235.7,174.7 236.3,173.7" id="Path" fill="#FFFFFF"></path>
            <path d="M234.5,176.9 L233.7,176.8 C233.8,177.5 234.5,177.5 234.5,177.5 C234.5,177.5 235.2,177.6 235.3,176.9 L234.5,176.9 Z" id="Path" fill="#FFFFFF"></path>
            <path d="M235.9,176 C235.9,176.2 235.7,176.4 235.5,176.3 L233.3,176.1 C233.1,176.1 232.9,175.9 232.9,175.7 C232.9,175.5 233.1,175.3 233.3,175.4 L235.5,175.6 C235.8,175.6 235.9,175.8 235.9,176" id="Path" fill="#FFFFFF"></path>
            <path d="M235.8,175.9 C235.8,176.1 235.6,176.2 235.4,176.2 L233.3,176 C233.1,176 232.9,175.8 232.9,175.7 C232.9,175.5 233.1,175.4 233.2,175.4 L235.2,175.6 C235.7,175.6 235.8,175.7 235.8,175.9" id="Path" fill="#FFFFFF"></path>
            <path d="M236,176.7 C236,176.9 235.8,177.1 235.6,177 L233.4,176.8 C233.2,176.8 233,176.6 233,176.4 C233,176.2 233.2,176 233.4,176.1 L235.6,176.3 C235.8,176.3 235.9,176.5 236,176.7" id="Path" fill="#FFFFFF"></path>
            <polyline id="Path" fill="#FFFFFF" points="234.4 168.6 234.6 168.8 234.6 169.7 234.4 169.8 234.3 169.6 234.3 168.7 234.4 168.6"></polyline>
            <polyline id="Path" fill="#FFFFFF" points="232.5 168.9 232.7 169 233.1 169.8 233 170 232.9 169.9 232.4 169.1 232.5 168.9"></polyline>
            <polyline id="Path" fill="#FFFFFF" points="231 170.2 231.2 170.1 232 170.7 232 170.9 231.8 170.9 231.1 170.4 231 170.2"></polyline>
            <polyline id="Path" fill="#FFFFFF" points="230.5 172.1 230.6 172 231.5 172.1 231.6 172.2 231.5 172.4 230.6 172.3 230.5 172.1"></polyline>
            <polyline id="Path" fill="#FFFFFF" points="231 174.2 231 174 231.8 173.6 232 173.7 232 173.9 231.2 174.2 231 174.2"></polyline>
            <polyline id="Path" fill="#FFFFFF" points="236.4 169.4 236.2 169.4 235.8 170.1 235.8 170.3 236 170.3 236.5 169.6 236.4 169.4"></polyline>
            <polyline id="Path" fill="#FFFFFF" points="237.9 171 237.7 170.9 236.9 171.2 236.9 171.4 237.1 171.5 237.8 171.2 237.9 171"></polyline>
            <polyline id="Path" fill="#FFFFFF" points="238.5 173 238.3 172.8 237.4 172.7 237.3 172.9 237.4 173 238.3 173.1 238.5 173"></polyline>
            <polyline id="Path" fill="#FFFFFF" points="238 174.9 237.9 174.7 237.1 174.2 236.9 174.2 237 174.4 237.8 175 238 174.9"></polyline>
            <path d="M235.8,176.7 C235.8,176.9 235.6,177 235.5,177 L233.4,176.8 C233.2,176.8 233.1,176.6 233.1,176.5 C233.1,176.3 233.3,176.2 233.4,176.2 L235.5,176.4 C235.7,176.3 235.8,176.5 235.8,176.7" id="Path" fill="#FFFFFF"></path>
            <path d="M259.5,179.3 C259.5,179.3 261.2,179.5 261.7,178.8 C262.2,178 263,177.6 264,177.5 C264,177.5 263.8,175 261.2,174.1 C258.6,173.2 255.4,171.7 254.9,172.1 C254.5,172.5 259.5,179.3 259.5,179.3" id="Path" fill="#EDAC72"></path>
            <path d="M253.6,172.2 C252.5,173.1 249.6,176.1 250.4,177.3 C251.2,178.4 251.8,178.1 252.1,178.6 C252.3,179.1 252.7,179.4 253.4,179.8 C254.1,180.3 255.2,180.2 255.8,180.6 C256.4,181 257.5,181.7 258.5,180.6 C259.6,179.5 260.9,177.5 261,176.8 C261.1,176.2 260.7,175.4 260,175.1 C259.3,174.9 258.9,174 258.4,173.8 C257.9,173.6 257.3,173.4 256.9,173 C256.5,172.6 255.8,172.6 255.6,172.4 C255.4,172.3 254.4,171.5 253.6,172.2" id="Path" fill="#F8B174"></path>
            <path d="M335.2,191.6 C335.2,191.6 332.2,190.9 331.3,190.4 C330.4,189.9 323.9,190.7 321.1,193.4 C319.3,195.2 323,194.7 325.3,194.6 C327.6,194.4 335,195.8 336.2,196.2 C337.4,196.5 335.2,191.6 335.2,191.6" id="Path" fill="#F1A05B"></path>
            <path d="M361.8,182.1 C361.5,183 359.1,190.8 357.3,193.3 C357.3,193.3 337.1,190 333.1,189.7 L331.4,197.2 C333.8,198.3 361.5,205.9 362.4,204.5 C367.9,196.5 369.8,194.3 374,184 C378.1,173.8 384,169.1 378.5,166.7 C365.7,161.3 362.2,181.3 361.8,182.1" id="Path" fill="#141B30"></path>
            <path d="M364.5,157.6 L364.5,157.2 L367.3,154.7 C367.9,155.4 369,155.7 369.9,154.9 L380.1,145.7 C380.9,150.8 378.6,156.3 378.3,157.3 C378,158.5 378.6,161.3 379.6,164.3 C376.6,165.1 373.6,165.8 370.6,166.2 C371.4,164.1 372,159.8 367.3,160.6 C363,161.3 363.1,159.6 363.4,158.3 C364.1,158.1 364.5,158.5 364.5,157.6" id="Path" fill="#F8B174"></path>
            <path d="M369.1,140.2 C368.4,140.8 364.9,141.8 363.7,145.3 C363,147.2 363.2,147 363.4,147.7 C363.8,148.9 362.7,150 362.1,150.7 C361.1,151.7 360.1,152.2 361.4,153 C362.8,153.9 362.1,154.4 361.7,154.7 C361.3,155 361.9,155.7 362.1,155.9 C362.1,155.9 361.3,156.5 361.8,157 C362.2,157.5 362.8,157.5 362.8,157.9 C362.8,158.3 362.2,160 362.9,160.6 C363.6,161.3 365.7,161 366.8,161 C367.7,161 369,161 369.9,162.1 C373,165.4 372.3,166.7 372.3,166.7 C372.3,166.7 374.6,167.1 377.8,164.9 C378.5,164.4 376.5,165.4 376.3,163.9 C376,161.4 384.1,150.6 380.1,150 C379.9,150 371.6,145.9 371.6,145.9 L369.1,140.2 Z" id="Path" fill="#F8B174"></path>
            <path d="M383.2,143.5 C381.1,141.1 376.1,137.6 372.5,137.9 C371.1,138 370,139 369,140.2 C368.2,140.8 364.9,141.9 363.7,145.2 C363,147.1 363.2,146.9 363.4,147.6 C363.8,148.8 362.7,149.9 362.1,150.6 C361.1,151.6 360.1,152.1 361.4,152.9 C362.8,153.8 362.1,154.3 361.7,154.6 C361.3,154.9 361.9,155.6 362.1,155.8 C362.1,155.8 361.3,156.4 361.8,156.9 C362.2,157.4 362.8,157.4 362.8,157.8 C362.8,158.2 362.2,159.9 362.9,160.5 C363.6,161.2 365.7,160.9 366.8,160.9 C367,160.9 367.3,160.9 367.5,160.9 C367.6,161.1 367.8,161.3 367.9,161.5 C368.2,162 368,163.1 368.3,163.6 C368.6,164.1 369,164.2 369.1,164.6 C369.5,166.1 368.5,167.4 368.5,167.4 L372.3,165.4 C372.5,166.2 372.4,166.5 372.4,166.5 C372.4,166.5 374.7,166.9 377.9,164.7 C378.6,164.2 376.6,165.2 376.4,163.7 C376.4,163.6 376.4,163.5 376.4,163.3 L378.3,162.3 C378.3,162.3 380,158.3 382.9,153.9 C385.8,149.9 385.3,145.9 383.2,143.5" id="Path" fill="#F8B174"></path>
            <path d="M386.7,146.1 C385.5,141.5 383.7,136.8 378.5,136.3 C373.2,135.8 367.5,137.4 367.1,135 C367.1,135 364.3,139.8 365.8,142.3 C366.4,141.4 372.3,150.4 373.2,151.7 C374.2,153 373.6,149.2 375.5,149.5 C377.4,149.8 378.3,153.8 377.5,155.6 C376.9,156.9 378.8,159.9 378.8,159.9 L378.6,161.1 L381.7,158 C381.7,158 387.8,150.8 386.7,146.1" id="Path" fill="#25100D"></path>
            <path d="M389.3,222.2 C389.3,222.2 388.5,188.9 388.5,185.7 C388.5,182.4 387.5,167.1 381.1,164.8 L379.4,162.2 L369.1,166.5 C369.1,166.5 363.7,172.7 362.9,180.3 C362.3,186 363.2,194.3 364.8,200.6 C366.4,206.9 369.5,224.2 369.5,224.2 L389.3,222.2 Z" id="Path" fill="#026A9D"></path>
            <path d="M337.5,195.1 C337.5,195.1 334.5,193.9 333.6,193.2 C331.5,191.8 325,193.2 322.3,194.8 C320,196.2 323.8,197.2 326.7,196.5 C329.1,195.9 336.6,199.5 337.8,200.1 C339.1,200.7 337.5,195.1 337.5,195.1" id="Path" fill="#F8B174"></path>
            <path d="M347.6,285.6 C348.7,286.7 352.1,288.1 353.8,287.7 C355.5,287.3 357.8,285.3 358.2,286.6 C358.7,287.8 359.5,291.3 358.9,293.1 C358.9,293.1 359.3,293.5 359.1,294.5 C358.8,295.5 356.5,295.7 353.6,295.7 C350.6,295.7 341.7,296.4 339.2,295.6 C336.7,294.9 334.5,293.9 334.2,292.7 C333.9,291.5 333.2,289.1 335.4,289.4 C337.6,289.7 340.2,289.7 341.3,289.1 C342.4,288.4 344.9,287.4 345.9,286.4 C346.8,285.4 347.2,285.1 347.6,285.6" id="Path" fill="#093C5D"></path>
            <path d="M372,237.4 C372,237.4 354.8,236.2 354.8,239.1 L358.6,286.5 C354.8,293.3 345.1,288.8 345.1,288.8 C345.1,288.8 340.8,230.1 340.9,228.8 C341.2,225 350.9,223.1 362.4,223.1 L372,237.4 Z" id="Path" fill="#D35715"></path>
            <path d="M341.3,289.5 C342.4,290.6 346.1,292.2 347.9,291.7 C349.7,291.3 352.1,289.2 352.7,290.5 C353.2,291.8 354.1,295.5 353.4,297.5 C353.4,297.5 353.9,298 353.6,299 C353.3,300 350.8,300.3 347.7,300.3 C344.5,300.3 335,301 332.3,300.2 C329.7,299.4 327.3,298.4 326.9,297.1 C326.5,295.9 325.8,293.2 328.2,293.6 C330.6,294 333.3,293.9 334.6,293.2 C335.8,292.5 338.4,291.4 339.5,290.3 C340.4,289.3 340.8,289 341.3,289.5" id="Path" fill="#026A9D"></path>
            <path d="M369.5,295.4 C369.5,296.9 370.7,298.1 372.2,298.1 C373.7,298.1 374.9,296.9 374.9,295.4 L374.9,238.5 C374.9,237 373.7,235.8 372.2,235.8 C370.7,235.8 369.5,237 369.5,238.5 L369.5,295.4 Z" id="Path" fill="#88522E"></path>
            <path d="M389.7,240.9 C389.7,243.1 391.5,245 393.8,245 C396,245 397.9,243.2 397.9,240.9 L400.6,178.3 C400.6,176.1 398.8,174.2 396.5,174.2 C394.3,174.2 392.4,176 392.4,178.3 L389.7,240.9 Z" id="Path" fill="#5B361F"></path>
            <path d="M351.1,240.5 C351.1,238.1 353.1,236.1 355.5,236.1 L393.4,236.1 C395.8,236.1 397.8,238.1 397.8,240.5 C397.8,242.9 395.8,244.9 393.4,244.9 L355.5,244.9 C353,244.9 351.1,243 351.1,240.5" id="Path" fill="#402A1B"></path>
            <path d="M361.2,296.4 C361.2,294.7 362.6,293.4 364.2,293.4 L381.1,293.4 C382.8,293.4 384.1,294.8 384.1,296.4 C384.1,298.1 382.7,299.4 381.1,299.4 L364.2,299.4 C362.6,299.4 361.2,298.1 361.2,296.4" id="Path" fill="#402A1B"></path>
            <path d="M367.4,238.4 C367.4,238.4 349.1,237.2 349.1,240.2 L353.2,290.5 C349.1,297.7 338.7,292.9 338.7,292.9 C338.7,292.9 334.1,230.5 334.3,229.2 C334.7,225.2 345,220.8 357.3,220.8 L367.4,238.4 Z" id="Path" fill="#E16F0D"></path>
            <path d="M389.2,218.8 C389.2,218.8 392.3,232.3 388.1,235.3 C382.5,239.2 367.3,238.4 367.3,238.4 L355.3,220.7 L389.2,218.8 Z" id="Path" fill="#E16F0D"></path>
            <path d="M365.6,185.5 C365.2,186.3 362.4,194 360.5,196.4 C360.5,196.4 338.7,193.3 334.7,192.8 L333.2,200.1 C335.6,201.3 364.2,209.4 365.3,208 C371.4,200.3 373.4,198.2 378.2,188.2 C382.9,178.2 386.1,171.5 380.5,168.7 C367.4,162.5 366,184.7 365.6,185.5" id="Path" fill="#093C5D"></path>
            <path d="M375.3,156.7 C374.2,160.6 366.8,161 366.8,161 C367,161 367.3,161 367.5,161 C367.6,161.2 367.8,161.4 367.9,161.6 C368,161.8 368.1,162.2 368.1,162.6 C375.5,162 375.3,156.7 375.3,156.7" id="Path" fill="#F1A05B"></path>
            <path d="M340.3,158.9 C340.3,158.9 346.3,158.2 349.8,154.3 C353.4,150.5 356,157.4 356,157.4 C356,157.4 356.7,162.6 354.3,164.3 C351.9,166 344.6,171.1 341,169.5 C337.4,167.9 333.2,169.6 333.1,165.3 C333,161 334.9,158 334.9,158 L340.3,158.9 Z" id="Path" fill="#3A8835"></path>
            <polyline id="Path" fill="#79B849" points="857 348.5 862.5 354.1 854.4 356.6 849.6 350.9 857 348.5"></polyline>
            <path d="M859,352.2 C859.7,352.1 862.8,348.6 862.8,348.6 C863.9,349.1 864.5,350.2 864.5,351.3 L864.5,352.9 L873.3,356.1 C874,356.4 874.5,357 874.6,357.7 C874.8,358.8 874.1,359.8 873.1,360.1 C870.7,360.7 868.3,361 865.8,360.9 L851.6,360.5 C850,360.4 848.8,359 849,357.4 L849.4,354.7 C849.6,353.8 850.5,353.1 851.4,353.4 C852.7,353.7 854.2,354.1 854.6,354.1 C855.2,354.2 859,352.2 859,352.2" id="Path" fill="#3D3D3B"></path>
            <path d="M873,360.1 C874,359.8 874.7,358.8 874.5,357.7 C874.5,357.5 874.4,357.3 874.3,357.1 C871.8,358.9 868.7,359.7 865.6,359.3 L848.9,357.1 L848.9,357.3 C848.7,358.9 849.9,360.3 851.5,360.4 L865.7,360.8 C868.2,361 870.7,360.7 873,360.1" id="Path" fill="#147ABF"></path>
            <path d="M865.2,353.2 L863.3,355.2 C863.1,355.4 862.7,355.4 862.4,355.2 C862.2,355 862.2,354.6 862.4,354.3 L864.3,352.3 C864.5,352.1 864.9,352.1 865.2,352.3 C865.5,352.6 865.5,353 865.2,353.2" id="Path" fill="#E6E7E7"></path>
            <path d="M867.1,353.8 L865.3,355.6 C865.1,355.8 864.7,355.8 864.4,355.6 C864.2,355.4 864.2,355 864.4,354.7 L866.2,352.9 C866.4,352.7 866.8,352.7 867.1,352.9 C867.3,353.2 867.3,353.6 867.1,353.8" id="Path" fill="#E6E7E7"></path>
            <path d="M868.8,354.6 L867.3,356.1 C867.1,356.3 866.7,356.3 866.4,356.1 C866.2,355.9 866.2,355.5 866.4,355.2 L867.9,353.7 C868.1,353.5 868.5,353.5 868.8,353.7 C869,354 869,354.3 868.8,354.6" id="Path" fill="#E6E7E7"></path>
            <path d="M870.4,355.1 L869.2,356.3 C869,356.5 868.6,356.5 868.3,356.3 C868.1,356.1 868.1,355.7 868.3,355.4 L869.5,354.2 C869.7,354 870.1,354 870.3,354.2 C870.6,354.5 870.6,354.9 870.4,355.1" id="Path" fill="#E6E7E7"></path>
            <path d="M876.8,349.9 C882,348.3 885,342.9 885,342.9 L885.6,354.4 C885.6,354.4 886.1,359.6 881.8,357.7 C877.5,355.8 864.5,356.5 864.5,356.5 C864.5,356.5 863.2,351.4 864.5,350.5 C865.8,349.6 868.3,349.8 870.8,350 C872.9,350.2 875.2,350.4 876.8,349.9" id="Path" fill="#82BD53"></path>
            <path d="M881.8,349.3 C881.8,348.6 878.8,345 878.8,345 C879.5,344 880.6,343.5 881.8,343.7 L883.4,343.9 L887.9,335.7 C888.3,335 889,334.6 889.7,334.6 C890.8,334.6 891.7,335.4 891.8,336.5 C892,338.9 892,341.4 891.5,343.8 L888.9,357.8 C888.6,359.4 887,360.4 885.4,359.9 L882.8,359.1 C881.9,358.8 881.4,357.8 881.8,356.9 C882.3,355.7 882.9,354.2 883,353.9 C883.3,353.2 881.8,349.3 881.8,349.3" id="Path" fill="#3D3D3B"></path>
            <path d="M891.8,336.5 C891.7,335.4 890.8,334.6 889.7,334.6 C889.5,334.6 889.3,334.6 889.1,334.7 C890.5,337.5 890.8,340.6 889.9,343.6 L885.2,359.7 L885.4,359.8 C886.9,360.3 888.6,359.3 888.9,357.7 L891.5,343.7 C892,341.4 892.1,339 891.8,336.5" id="Path" fill="#147ABF"></path>
            <path d="M883.9,343.2 L885.5,345.4 C885.7,345.7 885.6,346.1 885.4,346.3 C885.1,346.5 884.7,346.4 884.5,346.2 L882.9,344 C882.7,343.7 882.8,343.3 883,343.1 C883.3,342.9 883.7,343 883.9,343.2" id="Path" fill="#E6E7E7"></path>
            <path d="M884.7,341.5 L886.2,343.5 C886.4,343.8 886.3,344.2 886.1,344.4 C885.8,344.6 885.4,344.5 885.2,344.3 L883.7,342.3 C883.5,342 883.5,341.6 883.8,341.4 C884.1,341.2 884.5,341.2 884.7,341.5" id="Path" fill="#E6E7E7"></path>
            <path d="M885.7,339.9 L887,341.6 C887.2,341.9 887.1,342.3 886.9,342.5 C886.6,342.7 886.3,342.6 886.1,342.4 L884.8,340.7 C884.6,340.4 884.6,340 884.9,339.8 C885.1,339.6 885.5,339.7 885.7,339.9" id="Path" fill="#E6E7E7"></path>
            <path d="M886.5,338.4 L887.5,339.8 C887.7,340.1 887.6,340.5 887.4,340.7 C887.1,340.9 886.7,340.8 886.6,340.6 L885.6,339.2 C885.4,338.9 885.4,338.5 885.7,338.3 C885.9,338.1 886.3,338.2 886.5,338.4" id="Path" fill="#E6E7E7"></path>
            <path d="M802,338.9 C819.8,322.8 831.9,311.5 838.6,319.7 C847.6,329.5 845.6,329.8 857.3,349 L851.9,355.1 L832.3,334.3 L813.3,352.3 L787.8,351.7 L785.7,339.8 C785.8,339.9 793.7,346.4 802,338.9" id="Path" fill="#D52D1E"></path>
            <path d="M855.6,346.2 C852.3,345.8 849.1,345.5 846.4,345.3 C841.7,340.7 835.8,334.8 831.3,329.9 C828.9,336.4 823.4,341 817.1,344.3 C812.6,344.1 808.5,343.8 805.8,343.4 L802,339.1 L802,339.1 C815.7,326.7 826,317.2 833.1,317.2 C835.2,317.2 837.1,318.1 838.6,320 C847.2,329 845.8,329.8 855.6,346.2 M786.5,343.9 L785.8,339.9 C785.8,339.9 788,341.7 791.4,342.3 L786.5,343.9" id="Shape" fill="#BF291B"></path>
            <path d="M849.8,314.7 L845.9,313.3 L844.1,312 L844.4,310.9 C844.3,310.5 843.8,310.4 843.5,310.6 L840.2,313.5 L837.8,317 L819.3,317.5 L813.1,307.4 L807.6,308 C807.6,308 811.5,322.3 814.8,325 C816.9,326.3 832.8,322.6 838.6,321.2 C841.9,320.4 841.8,322.7 846,319.5 C846.7,318.9 847.1,317.9 847.8,317 C848.9,315.6 849.8,314.7 849.8,314.7" id="Path" fill="#F8B78B"></path>
            <path d="M834.4,316.4 L819.5,317 L812.4,301.8 L803.6,307.7 C803.6,307.7 810.3,323.2 813.6,326 C815.7,327.3 827.6,324.8 833.4,323.4 C836.1,322.7 835.3,318.4 835,316.9 C835,316.6 834.7,316.4 834.4,316.4" id="Path" fill="#147ABF"></path>
            <path d="M847.2,307.9 L839.6,316.5 C839.4,316.7 839.4,317.1 839.6,317.3 L842.2,319.6 L850.5,310.2 L847.9,307.9 C847.8,307.7 847.4,307.7 847.2,307.9" id="Path" fill="#3D3D3B"></path>
            <path d="M847.5,308.7 C847.3,308.6 847.1,308.6 847,308.7 L840.4,316.1 C840.3,316.3 840.3,316.5 840.4,316.6 L842.1,318.1 C842.3,318.2 842.5,318.2 842.6,318.1 L849.2,310.6 C849.3,310.4 849.3,310.2 849.2,310.1 L847.5,308.7 Z" id="Path" fill="#FFFFFF"></path>
            <path d="M850.6,310.2 C850.5,310.1 850.3,310.1 850.1,310.2 L842.3,319 C842.2,319.1 842.2,319.3 842.3,319.5 L842.7,319.8 C842.8,319.9 843.1,319.9 843.2,319.8 L851,311 C851.1,310.9 851.1,310.7 851,310.5 L850.6,310.2 Z" id="Path" fill="#BBBCBD"></path>
            <path d="M849.9,311 L849.2,311.8 C849.1,311.9 849.1,312 849.2,312.1 C849.3,312.2 849.4,312.2 849.5,312.1 L850.2,311.3 C850.3,311.2 850.3,311.1 850.2,311 C850.1,310.9 849.9,310.9 849.9,311" id="Path" fill="#FFFFFF"></path>
            <path d="M848.1,313 L846.5,314.8 C846.4,314.9 846.4,315 846.5,315.1 C846.6,315.2 846.7,315.2 846.8,315.1 L848.4,313.3 C848.5,313.2 848.5,313.1 848.4,313 C848.4,312.9 848.2,312.9 848.1,313" id="Path" fill="#FFFFFF"></path>
            <path d="M845.6,314.3 L845.6,314.3 C845.6,313.8 846,313.5 846.5,313.5 L849.3,313.6 C849.8,313.6 850.1,314 850.1,314.5 C850.1,315 849.7,315.3 849.2,315.3 L846.4,315.2 C845.9,315.2 845.6,314.8 845.6,314.3" id="Path" fill="#F8B78B"></path>
            <path d="M844.5,315.7 L844.5,315.7 C844.5,315.2 844.9,314.9 845.4,314.9 L848.2,315 C848.7,315 849,315.4 849,315.9 C849,316.4 848.6,316.7 848.1,316.7 L845.3,316.6 C844.9,316.6 844.5,316.2 844.5,315.7" id="Path" fill="#F8B78B"></path>
            <path d="M843.5,316.8 L843.5,316.8 C843.6,316.3 844,316 844.5,316.1 L847.3,316.7 C847.8,316.8 848.1,317.2 848,317.7 C847.9,318.2 847.5,318.5 847,318.4 L844.2,317.8 C843.7,317.7 843.4,317.3 843.5,316.8" id="Path" fill="#F8B78B"></path>
            <path d="M842.9,317.9 L842.9,317.9 C843,317.5 843.4,317.3 843.8,317.5 L846,318.3 C846.4,318.4 846.6,318.8 846.4,319.2 C846.3,319.6 845.9,319.8 845.5,319.6 L843.3,318.8 C843,318.6 842.8,318.2 842.9,317.9" id="Path" fill="#F8B78B"></path>
            <polyline id="Path" fill="#B3D4E5" points="842.2 344.8 842.2 344.8 832.4 334.4 821.9 344.4 821.9 344.4 832.4 334.4 842.2 344.8"></polyline>
            <path d="M846.5,345.2 C844.8,345 843.3,344.9 842.2,344.8 L832.4,334.4 L821.9,344.4 C820.3,344.3 818.7,344.3 817.2,344.2 C823.5,340.9 829,336.3 831.4,329.8 C835.9,334.7 841.8,340.6 846.5,345.2" id="Path" fill="#B5271A"></path>
            <path d="M815.6,300.8 L815.6,309.4 C815.6,309.7 815.3,310 815,310 C814.7,310 814.4,309.7 814.4,309.4 L814.4,300.8 C814.4,300.5 814.7,300.2 815,300.2 C815.3,300.2 815.6,300.4 815.6,300.8" id="Path" fill="#E6E7E7"></path>
            <path d="M815.5,300.6 C815.5,300.6 816,302.1 816.5,304 C817,306 817.5,308.5 817.5,310.7 C817.5,311.2 817.5,311.8 817.4,312.2 C817.3,312.5 817,312.8 816.7,312.7 C816.4,312.7 816.1,312.3 816.2,312 C816.3,311.6 816.3,311.1 816.3,310.6 C816.3,308.6 815.8,306.2 815.4,304.2 C815.2,303.2 814.9,302.4 814.8,301.8 C814.7,301.5 814.6,301.3 814.6,301.1 C814.5,300.9 814.5,300.9 814.5,300.9 C814.4,300.6 814.6,300.2 814.9,300.1 C815.1,300.1 815.4,300.3 815.5,300.6 L815.5,300.6 Z" id="Path" fill="#E6E7E7"></path>
            <path d="M804.6,293.2 L808.3,286.1 L807.3,275.9 L816.4,269.1 L828.2,277.4 L826.5,282.2 L825.5,288.2 C825.5,288.9 824.9,289.5 824.2,289.5 L823.5,289.6 L821.4,293.4 C820.5,295 818.4,295.6 816.9,294.6 L816.9,294.6 L816.3,294.2 L813.1,299.7 L804.6,293.2 Z" id="Path" fill="#FBCCAA"></path>
            <path d="M782.9,345 L782.9,351.4 C782.9,356.3 785.8,360.2 791.4,361 C794,361.3 800.8,360.8 809.2,360.3 C818.7,359.7 830.1,359.1 839.9,359.8 C858.3,361 875.2,358.3 876.4,356.9 C877.6,355.5 878.7,351.2 876.5,349.5 C874.3,347.7 840,344.7 840,344.7 C832.1,344.7 813.7,344.5 805.8,343.3 L802,339 L782.9,345" id="Path" fill="#D52D1E"></path>
            <path d="M793.7,361 L793.7,361 C797.1,361 802.6,360.6 809.2,360.2 C815.7,359.8 823.1,359.4 830.2,359.4 L830.2,359.4 C823,359.4 815.6,359.8 809.2,360.2 C802.7,360.6 797.1,361 793.7,361 M793.1,361 C792.4,361 791.9,361 791.5,360.9 L791.5,360.9 L791.5,360.9 C791.9,361 792.4,361 793.1,361 M849.5,360 L849.5,360 C849.7,360 849.9,360 850.2,360 L850.2,360 C849.9,360 849.7,360 849.5,360" id="Shape" fill="#B3D4E5"></path>
            <path d="M849,360 C847.7,360 846.4,360 845.1,359.9 C846.4,360 847.7,360 849,360 M874.5,357.6 L874.5,357.6 C875.5,357.3 876.2,357 876.3,356.8 C876.3,356.8 876.3,356.8 876.3,356.7 L876.3,356.7 L876.3,356.7 C876.2,357 875.6,357.3 874.5,357.6" id="Shape" fill="#B3D4E5"></path>
            <path d="M864.7,359.3 L864.7,359.3 C868.2,358.9 871.1,358.5 873.2,358 L873.2,358 C871.2,358.4 868.2,358.9 864.7,359.3" id="Shape" fill="#3A3A38"></path>
            <path d="M857.6,359.8 C860.2,359.7 862.5,359.5 864.7,359.2 L864.7,359.2 C862.6,359.5 860.2,359.7 857.6,359.8 M873.2,357.9 L873.2,357.9 C873.7,357.8 874.1,357.7 874.5,357.6 L874.5,357.6 C874.1,357.7 873.7,357.8 873.2,357.9" id="Shape" fill="#1374B5"></path>
            <path d="M835.1,359.5 C834.3,359.5 833.5,359.5 832.7,359.4 C833.5,359.5 834.3,359.5 835.1,359.5" id="Path" fill="#B3D4E5"></path>
            <path d="M793.7,361 C793.5,361 793.2,361 793,361 C792.3,361 791.8,361 791.4,360.9 L791.4,360.9 C791.3,360.9 791.1,360.9 791,360.8 L791,360.8 C787.1,360.2 784.6,357.9 783.5,354.9 C786.7,358.2 790.1,359.6 794,359.6 C795.9,359.6 797.9,359.3 800,358.7 C803.6,357.7 807.6,357.3 811.7,357.3 C815.8,357.3 820,357.6 823.9,358 C827.9,358.3 831.6,358.7 834.7,358.7 C836.7,358.7 838.5,358.6 839.9,358.2 C845,356.8 859.1,356 868.3,356 C873,356 876.3,356.2 876.5,356.6 L876.5,356.7 C876.5,356.7 876.5,356.7 876.5,356.8 C876.3,357 875.7,357.3 874.7,357.6 L874.7,357.6 C874.3,357.7 873.9,357.8 873.4,357.9 C871.4,358.4 868.4,358.8 864.9,359.2 C862.7,359.4 860.4,359.6 857.8,359.8 C855.8,359.9 853.8,360 851.6,360 C851.2,360 850.7,360 850.3,360 C850.1,360 849.9,360 849.6,360 C849.4,360 849.3,360 849.1,360 C847.8,360 846.5,360 845.2,359.9 C843.5,359.8 841.7,359.8 839.9,359.6 L839.9,359.6 L839.9,359.6 C838.4,359.5 836.8,359.4 835.2,359.4 C834.4,359.4 833.6,359.4 832.8,359.3 C832,359.3 831.2,359.3 830.3,359.3 L830.3,359.3 L830.3,359.3 C823.1,359.3 815.7,359.7 809.3,360.1 C802.7,360.6 797.1,361 793.7,361" id="Path" fill="#CA2B1D"></path>
            <path d="M807.8,289.1 C799,289.7 784.3,298.8 781.4,317.7 C778.5,336.6 780.1,352.1 785.1,353 C790,353.9 808,350 807.1,340 C806.2,330 797.5,328.5 811.1,314.1 C813.7,311.4 815.2,307.8 815,304.1 C814.5,295.1 809.8,288.9 807.8,289.1" id="Path" fill="#026A9D"></path>
            <path d="M806.5,288.2 C806.5,288.2 811.2,285.5 811.4,285 C811.5,284.8 812,283.4 812.4,282 C812.9,280.5 814.5,279.7 816.1,280.1 L815.3,283.6 L816.9,284.1 L819,278.1 C819.4,277.1 820.5,276.6 821.5,277.1 L827.4,280.2 L828.4,279.8 C830.2,279.1 831.6,277.5 831.9,275.6 C832.2,273.9 831.8,272.2 830.7,270.9 L827,266.4 L825.7,268.7 L822.9,266.8 C820.1,264.9 816.5,264.5 813.3,265.6 L812.3,265.9 C809,267.1 806.4,269.8 805.5,273.2 C805,274.9 805,276.6 805.3,278.2 C805.8,280.9 806.3,283.6 806.5,286.3 L806.5,288.2 Z" id="Path" fill="#E5782B"></path>
            <path d="M813.3,290.6 C813.3,290.6 812.4,293.7 814.3,297.7 L816.4,294.1 L813.3,290.6 Z" id="Path" fill="#F8B78B"></path>
            <path d="M814.8,302.5 C814.8,302.5 810.9,291.7 795.6,295.9 C794.4,296.2 792.5,296.4 791.5,295.8 C790.4,295.7 791,290.5 794.6,290.5 C796.2,290.5 793.8,288.8 796.5,287.3 C799.7,285.5 805,285.6 808.8,288.7 C812.6,291.6 817.9,301.3 814.8,302.5" id="Path" fill="#147ABF"></path>
            <path d="M836.3,320.4 L836.7,316 L840.2,312.6 L844,311.7 C844,312.6 843.5,313.4 842.7,313.7 L841.1,314.4 L843.4,314.9 L844.2,316.4 L843.7,319.3 C843.7,319.3 841.2,324.4 833.2,326.6 C825.1,328.8 824.9,323 824.9,323 L836.3,320.4 Z" id="Path" fill="#FBCCAA"></path>
            <path d="M802.7,295.9 C807.2,294.7 811.1,298.6 812.1,303.2 C812.7,306 812.8,321.9 812.8,321.9 L833.8,320.9 C833.8,320.9 834.7,326.6 833.7,326.9 C830.1,328 805.9,335.2 803.3,331.9 C801.1,329.1 799.2,318.6 797.4,312 C794.6,301.5 798.8,296.9 802.7,295.9" id="Path" fill="#147ABF"></path>
        </g>
        <g id="achtergrond-header-images" fill-rule="nonzero">
            <path d="M667.789,151 L660.652,151 L662.563,125.416 L669.193,125.416 C672.599017,125.416 675.354989,126.41049 677.461,128.3995 C679.567011,130.38851 680.62,133.098983 680.62,136.531 C680.62,141.289024 679.443512,144.889988 677.0905,147.334 C674.737488,149.778012 671.637019,151 667.789,151 Z M668.764,127.912 L665.293,127.912 L663.772,148.504 L668.101,148.504 C670.831014,148.504 673.086491,147.561509 674.8675,145.6765 C676.648509,143.791491 677.539,140.89902 677.539,136.999 C677.539,134.164986 676.752508,131.942008 675.1795,130.33 C673.606492,128.717992 671.468014,127.912 668.764,127.912 Z M694.504,144.994 L695.479,134.152 C695.140998,134.074 694.751002,134.0155 694.309,133.9765 C693.866998,133.9375 693.438002,133.918 693.022,133.918 C691.565993,133.918 690.207506,134.814991 688.9465,136.609 C687.685494,138.403009 687.055,141.041983 687.055,144.526 C687.055,146.112008 687.282498,147.223497 687.7375,147.8605 C688.192502,148.497503 688.744997,148.816 689.395,148.816 C690.071003,148.816 690.857496,148.497503 691.7545,147.8605 C692.651504,147.223497 693.567995,146.268006 694.504,144.994 Z M696.142,131.89 L698.482,131.5 L696.727,151 L694.036,151 L694.348,147.88 L694.231,147.88 C693.372996,149.076006 692.463005,149.953497 691.501,150.5125 C690.538995,151.071503 689.525005,151.351 688.459,151.351 C687.184994,151.351 686.151504,150.850505 685.3585,149.8495 C684.565496,148.848495 684.169,147.139012 684.169,144.721 C684.169,140.482979 685.098491,137.233011 686.9575,134.971 C688.816509,132.708989 690.915988,131.578 693.256,131.578 C693.828003,131.578 694.347998,131.604 694.816,131.656 C695.284002,131.708 695.725998,131.785999 696.142,131.89 Z M702.226,134.152 L702.226,131.929 L704.449,131.929 L704.839,127.834 L707.608,127.405 L707.14,131.929 L711.079,131.929 L710.845,134.152 L706.906,134.152 L705.775,145.345 C705.644999,146.697007 705.729499,147.613498 706.0285,148.0945 C706.327501,148.575502 706.801997,148.816 707.452,148.816 C707.946002,148.816 708.381498,148.777 708.7585,148.699 C709.135502,148.621 709.609997,148.491001 710.182,148.309 L710.182,150.766 C709.531997,151.000001 708.966502,151.156 708.4855,151.234 C708.004498,151.312 707.374004,151.351 706.594,151.351 C705.267993,151.351 704.286503,150.909004 703.6495,150.025 C703.012497,149.140996 702.797999,147.646011 703.006,145.54 L704.176,134.152 L702.226,134.152 Z M723.52,144.994 L724.495,134.152 C724.156998,134.074 723.767002,134.0155 723.325,133.9765 C722.882998,133.9375 722.454002,133.918 722.038,133.918 C720.581993,133.918 719.223506,134.814991 717.9625,136.609 C716.701494,138.403009 716.071,141.041983 716.071,144.526 C716.071,146.112008 716.298498,147.223497 716.7535,147.8605 C717.208502,148.497503 717.760997,148.816 718.411,148.816 C719.087003,148.816 719.873496,148.497503 720.7705,147.8605 C721.667504,147.223497 722.583995,146.268006 723.52,144.994 Z M725.158,131.89 L727.498,131.5 L725.743,151 L723.052,151 L723.364,147.88 L723.247,147.88 C722.388996,149.076006 721.479005,149.953497 720.517,150.5125 C719.554995,151.071503 718.541005,151.351 717.475,151.351 C716.200994,151.351 715.167504,150.850505 714.3745,149.8495 C713.581496,148.848495 713.185,147.139012 713.185,144.721 C713.185,140.482979 714.114491,137.233011 715.9735,134.971 C717.832509,132.708989 719.931988,131.578 722.272,131.578 C722.844003,131.578 723.363998,131.604 723.832,131.656 C724.300002,131.708 724.741998,131.785999 725.158,131.89 Z M747.778,127.756 L747.505,127.756 L742.435,141.874 L750.391,141.874 L747.778,127.756 Z M750.157,125.416 L755.227,151 L751.99,151 L750.742,144.37 L741.421,144.37 L739.12,151 L736,151 L745.828,125.416 L750.157,125.416 Z M769.033,144.994 L770.008,134.152 C769.669998,134.074 769.280002,134.0155 768.838,133.9765 C768.395998,133.9375 767.967002,133.918 767.551,133.918 C766.094993,133.918 764.736506,134.814991 763.4755,136.609 C762.214494,138.403009 761.584,141.041983 761.584,144.526 C761.584,146.112008 761.811498,147.223497 762.2665,147.8605 C762.721502,148.497503 763.273997,148.816 763.924,148.816 C764.600003,148.816 765.386496,148.497503 766.2835,147.8605 C767.180504,147.223497 768.096995,146.268006 769.033,144.994 Z M770.671,131.89 L773.011,131.5 L771.256,151.195 C771.021999,153.821013 770.177007,155.705994 768.721,156.85 C767.264993,157.994006 765.56201,158.566 763.612,158.566 C762.623995,158.566 761.707504,158.527 760.8625,158.449 C760.017496,158.371 759.101005,158.241001 758.113,158.059 L758.113,155.368 C759.075005,155.628001 759.984996,155.822999 760.843,155.953 C761.701004,156.083001 762.558996,156.148 763.417,156.148 C764.899007,156.148 766.075496,155.764504 766.9465,154.9975 C767.817504,154.230496 768.343999,152.989009 768.526,151.273 L768.877,147.88 L768.76,147.88 C767.875996,149.076006 766.959505,149.953497 766.0105,150.5125 C765.061495,151.071503 764.054005,151.351 762.988,151.351 C761.713994,151.351 760.680504,150.850505 759.8875,149.8495 C759.094496,148.848495 758.698,147.139012 758.698,144.721 C758.698,140.482979 759.627491,137.233011 761.4865,134.971 C763.345509,132.708989 765.444988,131.578 767.785,131.578 C768.357003,131.578 768.876998,131.604 769.345,131.656 C769.813002,131.708 770.254998,131.785999 770.671,131.89 Z M776.482,144.292 C776.482,140.001979 777.339991,136.81051 779.056,134.7175 C780.772009,132.62449 782.61799,131.578 784.594,131.578 C786.180008,131.578 787.401996,131.967996 788.26,132.748 C789.118004,133.528004 789.547,134.606993 789.547,135.985 C789.547,138.169011 788.624009,139.949993 786.778,141.328 C784.931991,142.706007 782.436016,143.395 779.29,143.395 C779.29,145.527011 779.627997,146.963496 780.304,147.7045 C780.980003,148.445504 781.941994,148.816 783.19,148.816 C784.074004,148.816 784.925496,148.699001 785.7445,148.465 C786.563504,148.230999 787.388996,147.893002 788.221,147.451 L788.221,149.986 C787.310995,150.480002 786.414004,150.830999 785.53,151.039 C784.645996,151.247001 783.606006,151.351 782.41,151.351 C780.511991,151.351 779.049505,150.792006 778.0225,149.674 C776.995495,148.555994 776.482,146.762012 776.482,144.292 Z M786.661,136.336 C786.661,135.555996 786.453002,134.971002 786.037,134.581 C785.620998,134.190998 785.036004,133.996 784.282,133.996 C783.319995,133.996 782.345005,134.587494 781.357,135.7705 C780.368995,136.953506 779.745001,138.766988 779.485,141.211 C781.773011,141.211 783.540994,140.736505 784.789,139.7875 C786.037006,138.838495 786.661,137.688007 786.661,136.336 Z M802.261,151 L803.47,138.403 C803.626001,136.842992 803.515502,135.764003 803.1385,135.166 C802.761498,134.567997 802.248003,134.269 801.598,134.269 C801.025997,134.269 800.291504,134.515998 799.3945,135.01 C798.497496,135.504002 797.451006,136.270995 796.255,137.311 L795.007,151 L792.238,151 L793.954,132.085 L796.723,131.734 L796.45,134.659 L796.567,134.659 C797.685006,133.540994 798.711995,132.748002 799.648,132.28 C800.584005,131.811998 801.493996,131.578 802.378,131.578 C803.730007,131.578 804.769996,132.065495 805.498,133.0405 C806.226004,134.015505 806.486001,135.659988 806.278,137.974 L805.03,151 L802.261,151 Z M820.552,144.994 L821.566,134.152 C821.227998,134.074 820.831502,134.0155 820.3765,133.9765 C819.921498,133.9375 819.486002,133.918 819.07,133.918 C817.613993,133.918 816.255506,134.814991 814.9945,136.609 C813.733494,138.403009 813.103,141.041983 813.103,144.526 C813.103,146.112008 813.330498,147.223497 813.7855,147.8605 C814.240502,148.497503 814.792997,148.816 815.443,148.816 C816.119003,148.816 816.905496,148.497503 817.8025,147.8605 C818.699504,147.223497 819.615995,146.268006 820.552,144.994 Z M825.271,123.661 L822.775,151 L820.084,151 L820.396,147.88 L820.279,147.88 C819.394996,149.076006 818.478505,149.953497 817.5295,150.5125 C816.580495,151.071503 815.573005,151.351 814.507,151.351 C813.232994,151.351 812.199504,150.850505 811.4065,149.8495 C810.613496,148.848495 810.217,147.139012 810.217,144.721 C810.217,140.482979 811.146491,137.233011 813.0055,134.971 C814.864509,132.708989 816.963988,131.578 819.304,131.578 C819.798002,131.578 820.246498,131.5975 820.6495,131.6365 C821.052502,131.6755 821.422998,131.734 821.761,131.812 L822.463,124.012 L825.271,123.661 Z M838.492,144.994 L839.467,134.152 C839.128998,134.074 838.739002,134.0155 838.297,133.9765 C837.854998,133.9375 837.426002,133.918 837.01,133.918 C835.553993,133.918 834.195506,134.814991 832.9345,136.609 C831.673494,138.403009 831.043,141.041983 831.043,144.526 C831.043,146.112008 831.270498,147.223497 831.7255,147.8605 C832.180502,148.497503 832.732997,148.816 833.383,148.816 C834.059003,148.816 834.845496,148.497503 835.7425,147.8605 C836.639504,147.223497 837.555995,146.268006 838.492,144.994 Z M840.13,131.89 L842.47,131.5 L840.715,151 L838.024,151 L838.336,147.88 L838.219,147.88 C837.360996,149.076006 836.451005,149.953497 835.489,150.5125 C834.526995,151.071503 833.513005,151.351 832.447,151.351 C831.172994,151.351 830.139504,150.850505 829.3465,149.8495 C828.553496,148.848495 828.157,147.139012 828.157,144.721 C828.157,140.482979 829.086491,137.233011 830.9455,134.971 C832.804509,132.708989 834.903988,131.578 837.244,131.578 C837.816003,131.578 838.335998,131.604 838.804,131.656 C839.272002,131.708 839.713998,131.785999 840.13,131.89 Z M865.285,125.065 C867.911013,125.065 870.055992,126.05949 871.72,128.0485 C873.384008,130.03751 874.216,132.773983 874.216,136.258 C874.216,141.120024 873.026512,144.850987 870.6475,147.451 C868.268488,150.051013 865.532015,151.351 862.438,151.351 C859.785987,151.351 857.634508,150.480009 855.9835,148.738 C854.332492,146.995991 853.507,144.344018 853.507,140.782 C853.507,135.685975 854.637989,131.792513 856.9,129.1015 C859.162011,126.410487 861.956983,125.065 865.285,125.065 Z M864.778,127.756 C862.593989,127.756 860.689508,128.821989 859.0645,130.954 C857.439492,133.086011 856.627,136.16698 856.627,140.197 C856.627,143.317016 857.211994,145.513994 858.382,146.788 C859.552006,148.062006 861.072991,148.699 862.945,148.699 C864.97301,148.699 866.838491,147.71751 868.5415,145.7545 C870.244509,143.79149 871.096,140.84702 871.096,136.921 C871.096,133.670984 870.511006,131.331007 869.341,129.901 C868.170994,128.470993 866.650009,127.756 864.778,127.756 Z M880.69,151 L877.375,131.929 L880.339,131.929 L882.874,148.465 L883.03,148.465 L884.083,146.32 C885.045005,144.36999 885.863997,142.270511 886.54,140.0215 C887.216003,137.772489 887.800998,135.075016 888.295,131.929 L891.181,131.929 C890.686998,134.945015 890.024004,137.661988 889.192,140.08 C888.359996,142.498012 887.359006,144.811989 886.189,147.022 L884.083,151 L880.69,151 Z M892.663,144.292 C892.663,140.001979 893.520991,136.81051 895.237,134.7175 C896.953009,132.62449 898.79899,131.578 900.775,131.578 C902.361008,131.578 903.582996,131.967996 904.441,132.748 C905.299004,133.528004 905.728,134.606993 905.728,135.985 C905.728,138.169011 904.805009,139.949993 902.959,141.328 C901.112991,142.706007 898.617016,143.395 895.471,143.395 C895.471,145.527011 895.808997,146.963496 896.485,147.7045 C897.161003,148.445504 898.122994,148.816 899.371,148.816 C900.255004,148.816 901.106496,148.699001 901.9255,148.465 C902.744504,148.230999 903.569996,147.893002 904.402,147.451 L904.402,149.986 C903.491995,150.480002 902.595004,150.830999 901.711,151.039 C900.826996,151.247001 899.787006,151.351 898.591,151.351 C896.692991,151.351 895.230505,150.792006 894.2035,149.674 C893.176495,148.555994 892.663,146.762012 892.663,144.292 Z M902.842,136.336 C902.842,135.555996 902.634002,134.971002 902.218,134.581 C901.801998,134.190998 901.217004,133.996 900.463,133.996 C899.500995,133.996 898.526005,134.587494 897.538,135.7705 C896.549995,136.953506 895.926001,138.766988 895.666,141.211 C897.954011,141.211 899.721994,140.736505 900.97,139.7875 C902.218006,138.838495 902.842,137.688007 902.842,136.336 Z M918.442,131.851 L918.091,134.581 C917.882999,134.555 917.701001,134.5355 917.545,134.5225 C917.388999,134.5095 917.194001,134.503 916.96,134.503 C916.231996,134.503 915.465004,134.840997 914.659,135.517 C913.852996,136.193003 913.086004,137.128994 912.358,138.325 L911.266,151 L908.497,151 L910.096,132.085 L912.865,131.734 L912.514,135.322 L912.67,135.322 C913.554004,133.761992 914.327497,132.748002 914.9905,132.28 C915.653503,131.811998 916.374996,131.578 917.155,131.578 C917.389001,131.578 917.616499,131.5975 917.8375,131.6365 C918.058501,131.6755 918.259999,131.746999 918.442,131.851 Z M929.596,151 L930.805,138.403 C930.935001,136.842992 930.824502,135.764003 930.4735,135.166 C930.122498,134.567997 929.622003,134.269 928.972,134.269 C928.373997,134.269 927.620005,134.515998 926.71,135.01 C925.799995,135.504002 924.760006,136.270995 923.59,137.311 L922.342,151 L919.573,151 L922.03,124.012 L924.838,123.661 L923.785,134.659 L923.902,134.659 C925.020006,133.566995 926.046995,132.780502 926.983,132.2995 C927.919005,131.818498 928.828996,131.578 929.713,131.578 C931.065007,131.578 932.104996,132.065495 932.833,133.0405 C933.561004,134.015505 933.821001,135.659988 933.613,137.974 L932.365,151 L929.596,151 Z M937.435,144.292 C937.435,140.001979 938.292991,136.81051 940.009,134.7175 C941.725009,132.62449 943.57099,131.578 945.547,131.578 C947.133008,131.578 948.354996,131.967996 949.213,132.748 C950.071004,133.528004 950.5,134.606993 950.5,135.985 C950.5,138.169011 949.577009,139.949993 947.731,141.328 C945.884991,142.706007 943.389016,143.395 940.243,143.395 C940.243,145.527011 940.580997,146.963496 941.257,147.7045 C941.933003,148.445504 942.894994,148.816 944.143,148.816 C945.027004,148.816 945.878496,148.699001 946.6975,148.465 C947.516504,148.230999 948.341996,147.893002 949.174,147.451 L949.174,149.986 C948.263995,150.480002 947.367004,150.830999 946.483,151.039 C945.598996,151.247001 944.559006,151.351 943.363,151.351 C941.464991,151.351 940.002505,150.792006 938.9755,149.674 C937.948495,148.555994 937.435,146.762012 937.435,144.292 Z M947.614,136.336 C947.614,135.555996 947.406002,134.971002 946.99,134.581 C946.573998,134.190998 945.989004,133.996 945.235,133.996 C944.272995,133.996 943.298005,134.587494 942.31,135.7705 C941.321995,136.953506 940.698001,138.766988 940.438,141.211 C942.726011,141.211 944.493994,140.736505 945.742,139.7875 C946.990006,138.838495 947.614,137.688007 947.614,136.336 Z M955.18,125.923 C955.18,125.324997 955.355498,124.850502 955.7065,124.4995 C956.057502,124.148498 956.518997,123.973 957.091,123.973 C957.585002,123.973 957.961999,124.109499 958.222,124.3825 C958.482001,124.655501 958.612,125.038998 958.612,125.533 C958.612,126.053003 958.443002,126.501498 958.105,126.8785 C957.766998,127.255502 957.299003,127.444 956.701,127.444 C956.258998,127.444 955.895001,127.314001 955.609,127.054 C955.322999,126.793999 955.18,126.417002 955.18,125.923 Z M957.715,131.734 L955.96,151 L953.191,151 L954.907,132.085 L957.715,131.734 Z M971.716,144.994 L972.73,134.152 C972.391998,134.074 971.995502,134.0155 971.5405,133.9765 C971.085498,133.9375 970.650002,133.918 970.234,133.918 C968.777993,133.918 967.419506,134.814991 966.1585,136.609 C964.897494,138.403009 964.267,141.041983 964.267,144.526 C964.267,146.112008 964.494498,147.223497 964.9495,147.8605 C965.404502,148.497503 965.956997,148.816 966.607,148.816 C967.283003,148.816 968.069496,148.497503 968.9665,147.8605 C969.863504,147.223497 970.779995,146.268006 971.716,144.994 Z M976.435,123.661 L973.939,151 L971.248,151 L971.56,147.88 L971.443,147.88 C970.558996,149.076006 969.642505,149.953497 968.6935,150.5125 C967.744495,151.071503 966.737005,151.351 965.671,151.351 C964.396994,151.351 963.363504,150.850505 962.5705,149.8495 C961.777496,148.848495 961.381,147.139012 961.381,144.721 C961.381,140.482979 962.310491,137.233011 964.1695,134.971 C966.028509,132.708989 968.127988,131.578 970.468,131.578 C970.962002,131.578 971.410498,131.5975 971.8135,131.6365 C972.216502,131.6755 972.586998,131.734 972.925,131.812 L973.627,124.012 L976.435,123.661 Z" id="DataAgendaOverheid" fill="#000000"></path>
            <path d="M679.784,102 L669.424,72.32 L669.088,72.32 L669.088,102 L662.648,102 L662.648,65.264 L673.736,65.264 L684.152,94.944 L684.488,94.944 L684.488,65.264 L690.928,65.264 L690.928,102 L679.784,102 Z M700.168,102 L700.168,65.264 L707.448,65.264 L707.448,96.064 L719.88,96.064 L719.88,102 L700.168,102 Z M746.984,102 L736.624,102 L736.624,65.264 L747.32,65.264 C753.629365,65.264 758.463983,66.7853181 761.824,69.828 C765.184017,72.8706819 766.864,77.1173061 766.864,82.568 C766.864,89.2133666 765.081351,94.1133176 761.516,97.268 C757.950649,100.422682 753.106697,102 746.984,102 Z M743.904,71.2 L743.904,96.064 L747.32,96.064 C750.904018,96.064 753.778656,95.0373436 755.944,92.984 C758.109344,90.9306564 759.192,87.57069 759.192,82.904 C759.192,79.1333145 758.081344,76.2400101 755.86,74.224 C753.638656,72.2079899 750.642686,71.2 746.872,71.2 L743.904,71.2 Z M781.424,65.264 L781.424,102 L774.144,102 L774.144,65.264 L781.424,65.264 Z M805.896,89.288 L805.896,83.352 L818.272,83.352 L818.272,101.328 C816.442658,101.701335 814.622676,101.971999 812.812,102.14 C811.001324,102.308001 809.106677,102.392 807.128,102.392 C801.565306,102.392 797.094684,100.908015 793.716,97.94 C790.337316,94.9719852 788.648,90.5760291 788.648,84.752 C788.648,78.1066334 790.551981,73.1320165 794.36,69.828 C798.168019,66.5239835 802.965304,64.872 808.752,64.872 C810.432008,64.872 811.925327,64.9279994 813.232,65.04 C814.538673,65.1520006 815.845327,65.3386654 817.152,65.6 L816.648,71.76 C815.117326,71.5359989 813.736006,71.386667 812.504,71.312 C811.271994,71.237333 809.946674,71.2 808.528,71.2 C804.831982,71.2 801.873344,72.2919891 799.652,74.476 C797.430656,76.6600109 796.32,79.8613122 796.32,84.08 C796.32,88.1493537 797.393323,91.2293229 799.54,93.32 C801.686677,95.4106771 804.290651,96.456 807.352,96.456 C808.136004,96.456 808.798664,96.4373335 809.34,96.4 C809.881336,96.3626665 810.52533,96.306667 811.272,96.232 L811.272,89.288 L805.896,89.288 Z M833.504,65.264 L833.504,102 L826.224,102 L826.224,65.264 L833.504,65.264 Z M856.688,71.2 L856.688,102 L849.408,102 L849.408,71.2 L839.328,71.2 L839.328,65.264 L866.768,65.264 L866.768,71.2 L856.688,71.2 Z M885.08,88.28 L880.544,71.312 L880.152,71.312 L875.616,88.28 L885.08,88.28 Z M886.312,65.264 L897.008,102 L888.608,102 L886.592,94.104 L874.16,94.104 L872.144,102 L864.584,102 L875.336,65.264 L886.312,65.264 Z M918.792,88.28 L914.256,71.312 L913.864,71.312 L909.328,88.28 L918.792,88.28 Z M920.024,65.264 L930.72,102 L922.32,102 L920.304,94.104 L907.872,94.104 L905.856,102 L898.296,102 L909.048,65.264 L920.024,65.264 Z M936.04,102 L936.04,65.264 L943.32,65.264 L943.32,96.064 L955.752,96.064 L955.752,102 L936.04,102 Z" id="NLDIGITAAL" fill="#007BC7"></path>
        </g>
    </g>
</svg>