<?xml version="1.0" encoding="UTF-8"?>
<svg width="250px" height="250px" viewBox="0 0 250 250" version="1.1" xmlns="http://www.w3.org/2000/svg" xmlns:xlink="http://www.w3.org/1999/xlink">
    <!-- Generator: Sketch 53.2 (72643) - https://sketchapp.com -->
    <title>da-02-wetgeving-publieke-waarden-thumb</title>
    <desc>Created with Sketch.</desc>
    <g id="da-02-wetgeving-publieke-waarden-thumb" stroke="none" stroke-width="1" fill="none" fill-rule="evenodd">
        <g transform="translate(59.000000, 10.000000)" fill-rule="nonzero" id="02-wetgeving-publieke-waarden">
            <g>
                <path d="M48.1,53.1081081 L47.7230769,52.8378378 L47.7230769,52.7297297 L47.5615385,51.6486486 L47.4,49.5405405 L46,49 L46,49.3783784 C46,50.1351351 46,50.8918919 46.0538462,51.6486486 C48.6384615,53.4864865 51.0076923,55.2702703 53,56.7837838 C56.9307692,59.6486486 59.4615385,61.6486486 59.4615385,61.6486486 L58.3846154,63 L59.7307692,62.7837838 C59.8513374,62.3217993 59.941278,61.8523023 60,61.3783784 L54.8846154,57.8108108 L48.1,53.1081081 Z" id="Path" fill="#673328"></path>
                <path d="M95.0137931,77.7267442 L94.5724138,77.8837209 L93.9655172,76 C93.4137931,76.8372093 92.9172414,77.622093 92.4758621,78.4069767 C92.0344828,79.1918605 91.537931,79.9767442 91.1517241,80.7093023 L90.1034483,82.75 L89.3310345,84.3197674 C89.2420777,84.5553345 89.1313002,84.7829677 89,85 C90.5024343,83.277811 92.4114472,81.915447 94.5724138,81.0232558 L95.2896552,80.8139535 L95.6758621,79.872093 C96.0068966,79.0348837 96.4482759,78.1453488 96.8344828,77.255814 L97,76.9418605 L96.1172414,77.3081395 L95.0137931,77.7267442 Z" id="Path" fill="#673328"></path>
                <path d="M73.0801981,102.118852 C72.8760983,102.567657 72.7027227,103.030528 72.5613327,103.504098 C72.2500135,104.409836 72.0424673,105.315574 71.7830346,106.168033 C71.5236019,107.020492 71.627375,107.07377 71.5236019,107.446721 C71.4198288,107.819672 71.3679423,108.29918 71.3160558,108.672131 C71.2641692,109.045082 71.2641692,109.204918 71.2122827,109.471311 C71.1603961,109.737705 71.1603961,109.684426 71.1603961,109.790984 C71.1603961,109.897541 71.1085096,110.483607 71.0566231,110.803279 C71.0047365,111.122951 71.0047365,112.028689 71.0047365,112.454918 C70.9906466,112.828707 71.0080065,113.203048 71.0566231,113.57377 L71.0566231,114 L73.2358577,113.680328 L73.4434038,113.680328 L73.4434038,113.413934 C73.3929998,113.114154 73.3583586,112.811804 73.3396308,112.508197 C73.3396308,112.081967 73.2877442,111.602459 73.2877442,111.016393 L73.2877442,110.057377 C73.2877442,109.737705 73.3396308,109.364754 73.3396308,109.045082 C73.3396308,108.72541 73.4434038,108.29918 73.4434038,107.872951 L73.5990635,106.70082 C73.7452807,105.821064 73.9357866,104.949678 74.1698154,104.090164 C74.2666822,103.639589 74.387939,103.194909 74.5330212,102.758197 L75,101.372951 L75,101.266393 L73.5990635,101 C73.3999026,101.359531 73.2264893,101.73347 73.0801981,102.118852 Z" id="Path" fill="#673328"></path>
                <path d="M103.215548,105.208451 C101.850127,106.51213 100.022136,107.229958 98.1272085,107.206573 C97.1747776,107.207825 96.2276462,107.065998 95.3180212,106.785915 C92.8268551,107.416901 90.9187279,108.047887 90.0176678,108.205634 L89.434629,108.205634 C88.6096696,108.231605 87.8445015,107.780257 87.4734982,107.048826 C86.6738881,107.266998 85.858868,107.425191 85.0353357,107.522066 C85.459364,109.204695 85.8303887,110.78216 85.6183746,111.097653 C84.7173145,112.25446 83.5512367,113.358685 82.2791519,114.830986 C80.3430903,116.994604 78.2337344,118.999267 75.9717314,120.825352 C76.130742,121.351174 76.2897527,121.876995 76.3957597,122.402817 C76.5862417,123.195916 76.6928253,124.006561 76.7137809,124.821596 C76.7137809,125.137089 76.6607774,125.4 76.6607774,125.557746 L76.6607774,125.820657 L72.2084806,125.084507 L72.2084806,124.716432 C72.2628672,124.332717 72.2628672,123.94334 72.2084806,123.559624 L70.8303887,124.243192 L70.5123675,124.243192 C67.9151943,124.243192 60.7597173,116.829108 57.8975265,113.095775 C55.0353357,109.362441 56.1484099,108.626291 55.4063604,106.41784 C55.1413428,105.523944 55.565371,104.20939 56.2014134,103 L56.1484099,103 C54.7334417,104.724883 52.6127202,105.72856 50.3710247,105.734272 L50,105.734272 C51.1130742,106.785915 51.9611307,107.732394 51.9611307,107.732394 C54.1872792,116.092958 59.9116608,121.035681 65.3710247,126.451643 C70.8303887,131.867606 65.5830389,141.490141 65.1060071,149.377465 C64.6819788,156.002817 62.3498233,156.528638 61.6077739,156.528638 L61.3957597,156.528638 L54.3992933,157.475117 C54.3992933,157.475117 58.9575972,159 62.4028269,159 L63.1448763,159 C65.9540636,158.842254 67.3321555,156.107981 70.0353357,156.107981 C70.7325041,156.125655 71.4183706,156.286806 72.04947,156.581221 C73.9089173,157.202718 75.865808,157.487684 77.8268551,157.422535 C80.1373018,157.401404 82.4420092,157.190353 84.7173145,156.791549 C82.3659084,156.369707 80.046086,155.78997 77.7738516,155.056338 C73.7985866,153.846948 76.024735,144.224413 76.024735,137.073239 C76.024735,129.922066 78.5159011,124.295775 81.4840989,120.825352 C84.4522968,117.35493 88.9575972,111.938967 90.4416961,110.466667 C91.9257951,108.994366 103.109541,106.785915 108.833922,106.523005 L110,106.523005 C108.188817,106.407654 106.420827,105.924427 104.805654,105.103286 L103.215548,105.208451 Z" id="Path" fill="#673328"></path>
                <path d="M51.6286765,59.8780488 L48.2702206,58.0284553 L44.4319853,56.1788618 L40.2205882,54.3292683 L35.9025735,52.6382114 L32.2775735,51.3699187 L30.4117647,51.5284553 C29.2536489,51.5300078 28.1024371,51.3516942 27,51 L30.8915441,52.5853659 L35.1029412,54.4878049 L39.2610294,56.495935 L43.1525735,58.5569106 L46.6709559,60.6178862 L48.1636029,60.5121951 C50.8009566,60.4536595 53.2735612,61.779673 54.6672794,64 L56,63.4715447 L52.9613971,60.6707317 L51.6286765,59.8780488 Z" id="Path" fill="#673328"></path>
                <path d="M61.3837209,53 C61.2590727,53.4068604 61.1619999,53.81997 61.0930233,54.2371134 C60.744186,55.371134 60.5116279,56.4536082 60.2209302,57.5360825 C59.9302326,58.6185567 59.755814,59.5463918 59.5813953,60.4742268 C59.4069767,61.4020619 59.4069767,61.2474227 59.2906977,61.6597938 C59.2272935,62.1117316 59.1301815,62.5594477 59,63 L61.7325581,63 L62.1395349,62.6907216 L63.0697674,62.0721649 C63.1399122,61.6972058 63.1787773,61.3181713 63.1860465,60.9381443 C63.3023256,60.0618557 63.4186047,59.0309278 63.5348837,58 C63.6511628,56.9690722 63.8255814,55.8350515 64,54.7010309 L63.9418605,54.7010309 L61.3837209,53 Z" id="Path" fill="#673328"></path>
                <path d="M63.1650312,45.1019489 C62.9491525,45.713642 62.7332739,46.3253352 62.5713649,46.9370284 L62.0856378,48.7211335 L61.5999108,50.5052385 C61.3840321,51.269855 61.2221231,51.983497 61.0602141,52.6971391 C60.8983051,53.4107811 61.1141838,52.6461646 61.1141838,52.5951902 L61.5999108,52.0854459 L63.3809099,50.556213 L64.0825156,49.9954942 L64.2444246,49.1799033 L64.5682426,47.3957983 C64.676182,46.5802074 64.838091,45.8155909 65,45 L64.838091,45 L63.1650312,45.1019489 Z" id="Path" fill="#673328"></path>
                <path d="M74.0296296,54 C71.4888889,55.7135678 69.2074074,57.4271357 67.2888889,58.8643216 L63.4518519,61.959799 L63.1925926,62.1809045 L62.362963,62.8442211 L62,63.1758794 C63.4214142,63.3609302 64.7580515,63.9963653 65.837037,65 L65.8888889,65 C66.6666667,64.1708543 67.8592593,63.0100503 69.362963,61.6281407 C70.8666667,60.2462312 73.5111111,57.8140704 76,55.7688442 C75.1892091,55.4075121 74.5016111,54.7902405 74.0296296,54 Z" id="Path" fill="#673328"></path>
                <path d="M69.8790698,46.8181818 L69.0604651,47.2545455 L68.2930233,47.7454545 C67.7621587,48.0773464 67.2496807,48.4415869 66.7581395,48.8363636 L65.427907,49.8727273 L64.9162791,50.3090909 L64.2511628,50.9090909 L62.5627907,52.5454545 L62.1023256,53.0909091 C62.1023256,53.1454545 62.0511628,53.1454545 62.0511628,53.2 L62,53.2 L64.2511628,55 L64.3023256,55 L64.3023256,54.8909091 C64.4278938,54.7452203 64.5314558,54.5796067 64.6093023,54.4 C65.0219377,53.7922744 65.4660379,53.2095517 65.9395349,52.6545455 L66.8604651,51.5636364 L67.9860465,50.3636364 L69.2139535,49.2181818 L69.8790698,48.6181818 L70.5953488,48.0181818 L72.027907,46.9818182 C72.3337443,46.7500462 72.6591835,46.549177 73,46.3818182 L71.2093023,46 L69.8790698,46.8181818 Z" id="Path" fill="#673328"></path>
                <path d="M45.606357,52.3397436 L38.1833741,47 C37.7477073,47.1570202 37.3459432,47.3975044 37,47.7083333 L37.3765281,47.9807692 C41.3031785,51.0320513 45.1760391,54.1923077 48.4572127,56.8621795 L51.2542787,59.2051282 L57.00978,64 L57.9242054,63.7820513 L59,62.4198718 C59,62.4198718 56.4718826,60.4038462 52.5452323,57.5160256 C50.5550122,55.9903846 48.1882641,54.1923077 45.606357,52.3397436 Z" id="Path" fill="#673328"></path>
                <path d="M94.800759,65.7128954 C94.7917434,65.3361408 94.7562338,64.9605038 94.6944972,64.5888078 C94.0330715,64.4821401 93.3894261,64.284001 92.7817837,64 C92.7817837,64.5888078 92.8349146,65.1776156 92.7817837,65.7664234 C92.7286528,66.3552311 92.7817837,67.1581509 92.7286528,67.8540146 C92.6755218,68.5498783 92.4629981,70.5304136 92.3036053,71.8686131 C92.1442125,73.2068127 91.8785579,74.4914842 91.5597723,75.7226277 C91.3041277,76.916676 90.9848804,78.0959972 90.6034156,79.2554745 C90.28463,80.3260341 89.9127135,81.3965937 89.540797,82.3065693 C89.1688805,83.216545 88.4250474,84.8759124 88,85.8394161 L88.6907021,86 C88.843695,85.7169394 89.0215063,85.4482294 89.2220114,85.1970803 C89.3484533,84.9750608 89.4551318,84.7421967 89.540797,84.5012165 L90.28463,82.8953771 L91.2941176,80.8077859 C91.6660342,80.0583942 92.0910816,79.2554745 92.56926,78.4525547 C93.0474383,77.649635 93.4724858,76.8467153 94.0037951,75.9902676 L93.5256167,74.5985401 L93.8975332,74.4914842 L94.800759,74.2238443 L94.9601518,72.136253 C95.0132827,70.6909976 95.0132827,69.2992701 94.9601518,67.8540146 C94.9070209,66.4087591 94.9070209,66.4087591 94.800759,65.7128954 Z" id="Path" fill="#673328"></path>
                <path d="M99.816,67.504 C99.088,68.344 98.416,69.24 97.688,70.192 C96.96,71.144 96.344,72.04 95.672,72.992 L95,74 C95.896,73.664 97.128,73.272 98.584,72.656 L99.088,72.432 L99.648,71.48 C100.208,70.528 100.768,69.52 101.384,68.624 L102,67.672 C101.402145,67.5011294 100.821082,67.2762017 100.264,67 L99.816,67.504 Z" id="Path" fill="#673328"></path>
                <path d="M106.52861,69.0810811 L103.836512,70.6486486 C102.283379,71.4594595 100.730245,72.2162162 99.3841962,72.7567568 L98.9182561,72.972973 C97.5722071,73.5675676 96.4332425,73.9459459 95.6049046,74.2702703 L95.2425068,74.2702703 L94.3623978,74.5405405 L94,74.6486486 L94.4659401,76.0540541 L95.0354223,78 L95.4495913,77.8378378 L96.4850136,77.4054054 L97.3133515,77.027027 L100.108992,75.5675676 C101.610354,74.7567568 103.26703,73.7837838 105.027248,72.5945946 L107.615804,70.7567568 L110.20436,68.6486486 C111.032698,67.8918919 111.861035,67.1351351 112.637602,66.3243243 L113,66 C111.554834,66.6654917 110.06715,67.225397 108.547684,67.6756757 L106.52861,69.0810811 Z" id="Path" fill="#673328"></path>
                <path d="M76.1891892,120.89486 C75.5765574,118.992361 74.8546508,117.126367 74.027027,115.306075 L73.4324324,114.070093 L71.1621622,114.392523 L71.1621622,113.962617 C71.1115147,113.588696 71.0934296,113.211126 71.1081081,112.834112 C71.1081081,112.404206 71.1081081,111.813084 71.1621622,111.168224 C71.2162162,110.523364 71.2162162,110.523364 71.2702703,110.147196 C71.3243243,109.771028 71.3243243,109.932243 71.3243243,109.824766 C70.1351351,107.675234 68.8918919,105.364486 67.5405405,103 C66.7857436,103.601962 65.9239666,104.057677 65,104.343458 C67.2162162,108.857477 69.1081081,113.156542 70.4594595,116.757009 C71.3037078,118.875778 71.9373585,121.071602 72.3513514,123.313084 C72.3467532,123.44067 72.3650573,123.56805 72.4054054,123.689252 C72.46087,124.081404 72.46087,124.479343 72.4054054,124.871495 L72.4054054,125.247664 L76.9459459,126 L76.9459459,125.731308 C76.9459459,125.570093 77,125.301402 77,124.978972 C76.978629,124.146016 76.8699329,123.317547 76.6756757,122.507009 C76.5135135,121.969626 76.3513514,121.432243 76.1891892,120.89486 Z" id="Path" fill="#673328"></path>
                <path d="M109.187767,13.4302697 C107.614262,13.4747276 106.055161,13.7428488 104.557578,14.2265307 C103.568194,12.3325802 101.589146,11.1605339 99.4484038,11.2007387 C98.1779235,11.2219459 96.9263661,11.5114178 95.7761848,12.0500838 C95.7761848,12.0500838 94.764994,8.12186267 91.4653189,8.12186267 C90.146017,8.19631696 88.8739514,8.63763978 87.7930998,9.39588035 C87.7930998,9.39588035 88.2188643,6.3170043 84.9191892,6.3170043 L83.961219,6.42317244 C83.961219,6.42317244 82.4710431,1.2209336 77.8940744,1.2209336 C76.8298087,1.24748368 75.7810912,1.48193818 74.8072816,1.91102651 C74.8072816,1.91102651 71.8269299,0 68.740137,0 C66.6645349,0 64.5357123,0.902429186 63.3648598,3.92822116 L62.1940073,6.79476093 C60.8152125,5.74885734 59.1362351,5.17202612 57.4041564,5.14915477 C55.5738766,5.17587299 53.8009467,5.79015333 52.3482026,6.90092907 C52.3482026,6.90092907 49.7936154,2.91962384 45.3230878,2.91962384 C43.5699784,2.96655856 41.8612535,3.47969393 40.3735751,4.40597779 C32.9226958,8.91812372 34.25321,9.71438477 32.7630341,12.7401767 L32.3904901,12.7401767 C31.059976,12.7401767 26.3765661,13.1117652 24.9396108,18.26092 C24.9396108,18.26092 23.076891,19.5880217 25.2589342,21.5521323 C25.2589342,21.5521323 25.9508016,24.7902606 24.2477435,24.7902606 L23.7687584,24.7902606 C22.5143117,24.3797498 21.2038416,24.1648826 19.883657,24.1532517 C17.5059191,24.1322388 15.2072107,25.0038866 13.4439685,26.595119 C9.61208771,29.8863313 10.3039551,31.5850215 11.4748075,33.3898799 C11.4748075,33.3898799 12.273116,34.8762338 9.98463167,35.725579 C7.69614732,36.5749241 3.33206087,38.6982869 4.29003107,41.6709948 C4.29003107,41.6709948 -2.68186314,48.9965964 1.15001765,50.4829503 C1.15001765,50.4829503 0.404929717,53.6679945 2.53375237,54.8358441 L2.64019351,54.8358441 C2.96564402,54.8301794 3.28846319,54.7765142 3.5981637,54.6765919 C3.95003078,54.8448747 4.32790777,54.9525627 4.7157956,54.9950963 L5.35444239,54.9950963 C7.85981414,55.0813266 10.268559,54.0265411 11.9005721,52.1285565 C12.5437845,51.303196 13.0307324,50.3677757 13.3375274,49.3681849 L13.869733,49.5805212 C15.204057,49.8322933 16.556859,49.9743283 17.9144961,50.0051937 C19.9074853,50.0705043 21.8737894,49.5339329 23.5558761,48.4657557 C25.9508016,46.7670655 26.4830073,44.3251983 26.1104633,41.830247 C26.5386306,42.1758515 27.0544425,42.3963468 27.6006392,42.4672558 C29.1373642,42.6543771 30.6828985,42.7606923 32.2308284,42.7857602 C34.680292,42.847705 37.1138877,42.3767259 39.3623843,41.4055744 C40.8243039,40.7663299 42.0515137,39.6906388 42.8749417,38.3266984 L43.087824,38.5921187 C45.0176254,40.7082666 47.7253471,41.9533056 50.5919239,42.0425833 L51.3370118,42.0425833 C54.0667712,41.813306 56.2636569,39.7105901 56.6058479,36.9995966 C63.2051981,36.4156719 70.0174306,35.035486 73.3703263,30.6295083 C74.2744429,31.212936 75.3270824,31.5260759 76.4038986,31.5319374 C77.1129257,31.5380434 77.8168602,31.4120202 78.4795007,31.160349 C78.7456035,32.699787 79.2778092,34.1861409 80.4486616,35.1947383 C81.4789724,36.0945735 82.8046868,36.5857188 84.1741013,36.5749241 C84.8602696,36.568604 85.5417434,36.4612789 86.1964828,36.2564196 C87.9672872,35.6004356 89.5041315,34.4369071 90.6137898,32.9121233 C90.7394837,32.747431 90.8465729,32.5694067 90.9331132,32.3812826 C91.9911081,32.52771 93.0582279,32.5986689 94.1263472,32.5936188 C96.8026586,32.6635092 99.4374331,31.9232227 101.683668,30.470256 C104.77046,28.4530614 106.63318,25.3741853 107.53793,21.9237208 C108.619681,21.8099819 109.668481,21.485327 110.624723,20.9682076 C112.163565,20.0141948 113.313763,18.5472212 113.871177,16.8276501 C114.083838,16.2865073 114.192176,15.7101876 114.190501,15.1289599 C114.97877,15.7236556 115.601634,16.5093746 116,17.4115749 C115.787118,16.774566 114.190501,13.4302697 109.187767,13.4302697 Z" id="Path" fill="#3A8835"></path>
                <path d="M128.971365,22.6341146 C127.66117,21.7247325 126.105806,21.2403842 124.51408,21.2460938 C122.384629,21.314486 120.313032,21.9600306 118.51797,23.1145833 C118.51797,23.1145833 120.481298,17.9895833 116.183202,17.2955729 L116.130139,17.2955729 C115.732953,16.3882511 115.111934,15.5980716 114.326,15 C114.32767,15.5845272 114.219653,16.1641185 114.007622,16.7083333 C113.451859,18.4376661 112.305068,19.9129674 110.770784,20.8723958 C109.817375,21.3924508 108.771682,21.7189488 107.693135,21.8333333 C106.791066,25.3033854 104.933864,28.3997396 101.856214,30.4283854 C99.6166336,31.8896003 96.9896637,32.6340892 94.3212801,32.5638021 C93.2563248,32.5688808 92.192366,32.4975191 91.1375051,32.3502604 C91.0512212,32.5394525 90.9444492,32.7184874 90.8191276,32.8841146 C89.7127563,34.4175543 88.1804645,35.5876879 86.4149055,36.2473958 C85.7621056,36.453418 85.0826504,36.5613524 84.3985146,36.5677083 C83.0331566,36.5785643 81.7113692,36.0846309 80.6841104,35.1796875 C79.5167263,34.1653646 78.9860971,32.6705729 78.7207825,31.1223958 C78.060105,31.3754958 77.3582556,31.5022344 76.6513288,31.4960937 C75.5777023,31.4901989 74.528181,31.1752814 73.6267425,30.5885417 C70.2837787,35.0195312 63.4917253,36.4075521 56.9119236,36.9947917 C56.5707463,39.7211749 54.3803682,41.8358274 51.6586949,42.0664062 L50.915814,42.0664062 C48.0577286,41.9766218 45.3580277,40.7245149 43.4339427,38.5963542 L43.2216911,38.3294271 C42.4007022,39.7011103 41.1771277,40.7829079 39.7195385,41.4257812 C37.4777024,42.4024457 35.0513155,42.8760985 32.6091077,42.8138021 C31.065763,42.7885918 29.5248069,42.6816731 27.9926339,42.4934896 C27.4480551,42.422178 26.9337712,42.2004311 26.5068722,41.8528646 C26.8783126,44.3619792 26.3476835,46.8177083 23.9598522,48.5260417 C22.2827481,49.6002827 20.3222687,50.1399001 18.335183,50.0742188 C16.9815675,50.0431781 15.6327728,49.9003368 14.3024013,49.6471354 L13.7717721,49.4335938 C13.4658859,50.438859 12.9803805,51.3795895 12.3390734,52.2096354 C10.7118947,54.1183944 8.31028496,55.1791678 5.8123346,55.0924479 L5.1755796,55.0924479 C4.78884077,55.0496729 4.41208312,54.9413736 4.06125834,54.7721354 C3.75247522,54.872625 3.4306123,54.9265948 3.10612583,54.9322917 L3,54.9322917 C3.53281589,55.2358204 4.13925376,55.3837292 4.75107626,55.359375 L4.91026501,55.359375 C6.45225236,55.767682 8.03845534,55.9828519 9.63286462,56 C12.4982621,56 15.7351001,55.1992188 16.8494213,51.8893229 C18.4569828,52.6674062 20.2128676,53.0862804 21.9965243,53.1171875 C23.9710261,53.1659548 25.882478,52.4159579 27.302816,51.0351562 C28.4497069,51.418239 29.6495992,51.6164335 30.8580314,51.6223958 C32.7450544,51.7046596 34.5841063,51.0108237 35.9520714,49.7005208 C36.0052916,49.5160118 36.0763829,49.3372033 36.1643231,49.1666667 L36.1643231,49.1666667 L36.1643231,49.0598958 C36.5888264,48.1523437 37.6500848,46.6041667 39.6664756,46.6041667 C40.1889851,46.6233995 40.7065571,46.7131784 41.2053002,46.8710937 C41.6298036,47.03125 45.6625852,50.2877604 49.3239265,50.2877604 C49.7885296,50.2903178 50.2517467,50.2365448 50.7035624,50.1276042 L50.9688769,50.0208333 C50.9688769,50.0208333 58.2915595,47.8854167 59.4058807,45.2161458 C61.3040953,44.7801504 63.2428478,44.5475178 65.1897387,44.5221354 C66.6190912,44.469768 68.0444057,44.7057389 69.3817091,45.2161458 C72.2656532,45.9498804 75.2177415,46.3792824 78.1901533,46.4973958 C80.4063,45.5586495 82.7900024,45.0862788 85.1944584,45.109375 L86.5740942,45.109375 C90.0762468,43.3476562 92.8885814,42.8138021 95.0641609,42.8138021 C98.5132505,42.8138021 100.211264,44.2018229 100.211264,44.2018229 C101.978615,43.0861732 104.015135,42.4770415 106.101248,42.4401042 C107.365741,42.4293772 108.616646,42.702966 109.762589,43.2408854 C110.673972,42.8244511 111.327125,41.9881127 111.513665,40.9986979 C112.266541,41.1370359 113.030051,41.2084917 113.795371,41.2122396 C115.440321,41.2122396 117.350586,40.7851562 117.350586,38.703125 C117.357478,38.4528413 117.339704,38.2024864 117.297523,37.9557292 C117.297523,37.9557292 128.546862,37.6354167 128.546862,33.4713542 C128.599924,33.4713542 133.747027,25.9973958 128.971365,22.6341146 Z" id="Path" fill="#275A38"></path>
                <path d="M78.1415051,68.796334 C77.424366,68.2164948 76.5116533,67.9322735 75.5907982,68.0020367 C72.5618337,68.0020367 68.6826336,69.802444 68.6826336,69.802444 C68.2372298,68.0564586 67.2963081,66.4753771 65.9725075,65.2484725 C64.8667226,64.2870198 63.4968864,63.6782916 62.0401677,63.5010183 L59.5426005,63.5010183 L58.2141073,63.712831 L57.310732,63.9246436 L56.5667758,64.1364562 L55.2382826,64.6659878 C53.8489853,62.4411388 51.3842238,61.1124246 48.7552359,61.1710794 L47.2673235,61.2769857 C45.7632897,61.5139484 44.3089111,61.9970392 42.9630056,62.706721 C42.9630056,62.0712831 38.8712466,59 34.3543698,59 L33.6635533,59 C28.8278381,59.3177189 30.3157505,64.6130346 30.3157505,64.6130346 C29.1060712,64.0398561 27.7750248,63.7673137 26.4365504,63.8187373 C25.1179263,63.8251305 23.8086396,64.0396001 22.5573503,64.4541752 C17.7216351,65.9368635 21.2288571,70.2260692 21.2288571,70.2260692 C18.3061721,79.6517312 27.2336463,81.0814664 32.9195971,81.0814664 C34.3938793,81.0842933 35.8669144,80.9958678 37.3301945,80.8167006 C38.127493,82.3473763 39.2094885,83.713092 40.5185781,84.8411405 L41.0499754,85 C41.0499754,85 43.281844,81.5580448 46.9484852,80.1812627 C48.0759479,79.7954389 49.2641534,79.6160398 50.4557072,79.6517312 C52.5523021,79.6927578 54.630584,80.0498243 56.6199155,80.7107943 C58.3675452,79.6610777 60.3716125,79.1114361 62.4121458,79.1221996 C67.7792583,79.1221996 71.924157,82.8818737 71.924157,82.8818737 C72.3614881,82.7962173 72.8072155,82.7606843 73.2526502,82.7759674 L74.262305,82.7759674 C74.4866913,81.6789718 74.5582178,80.5563846 74.4748639,79.4399185 C74.4748639,79.4399185 86.2718834,76.4215886 78.1415051,68.796334 Z" id="Path" fill="#275A38"></path>
                <path d="M125.174965,91.5339915 C125.174965,91.5339915 126.935512,83.6174922 120.640223,83.6174922 L119.253126,83.7223465 C119.253126,83.7223465 115.145183,80.0000191 109.703492,80.0000191 C107.672624,79.9962867 105.679657,80.5403134 103.941703,81.5728335 C101.944503,80.9184292 99.8580008,80.5649097 97.7531134,80.5242906 C96.8014527,80.5224349 95.8527229,80.6279806 94.9255684,80.8388534 L94.2320196,81.048562 C92.1424361,81.942485 90.2964836,83.3074934 88.8436791,85.0330252 C88.6423476,85.2790093 88.4638036,85.5421932 88.3101801,85.8194324 L87.6166313,85.662151 C85.2766812,85.0948038 82.8777317,84.7957236 80.4677439,84.7708895 C79.3044794,84.771456 78.1437138,84.8767503 77,85.0854524 C77.8002486,87.3398197 77.2133996,90.0660314 77.2133996,90.0660314 C77.2133996,90.0660314 88.5769296,94.5223389 79.5074456,101.075732 L79.2406961,101.233014 C78.8672467,102.333984 77.9602983,106.056311 82.0148912,106.842719 C82.6675143,106.947099 83.3276274,106.999696 83.9888377,107 L85.2158855,107 C86.0447995,106.903411 86.8651457,106.745684 87.6699812,106.528156 C89.9640272,105.89903 91.6712242,104.79806 91.7245741,104.43107 C92.9003018,105.222307 94.1970117,105.824051 95.5657673,106.213593 C96.4813366,106.49285 97.4346574,106.634258 98.3933123,106.63301 C100.300623,106.656326 102.140559,105.940615 103.514903,104.640778 L104.208452,103.906798 C104.512394,104.10872 104.833717,104.284145 105.16875,104.43107 C106.794478,105.24979 108.574022,105.731592 110.397041,105.846603 L110.770491,105.846603 C113.437986,105.846603 116.372231,104.693206 118.239477,100.499034 C118.239477,100.499034 122.56082,103.120391 125.601764,103.120391 C126.282854,103.154713 126.956862,102.970726 127.522361,102.59612 C136.538495,95.990299 125.174965,91.5339915 125.174965,91.5339915 Z" id="Path" fill="#275A38"></path>
                <path d="M77.2583855,90.4816417 C77.2583855,90.4816417 77.8387762,87.7554436 77.0473343,85.5010875 C76.6069395,83.9737 75.3058273,82.8450398 73.7232786,82.6176087 L72.7207856,82.6176087 C72.2785105,82.6024775 71.8359448,82.6376574 71.4017158,82.7224625 C71.4017158,82.7224625 67.2862182,79.0001536 61.9571765,79.0001536 C59.9311174,78.989497 57.9412656,79.5336761 56.2060324,80.5729601 C54.2308118,79.9185591 52.1672719,79.5650414 50.0855488,79.5244224 C48.9024472,79.4890858 47.72267,79.6667019 46.6032047,80.0486913 C42.9625722,81.4117903 40.746535,84.8195379 40.746535,84.8195379 L40.2189071,84.6622573 C37.8665823,84.1075786 35.4605244,83.8087361 33.0431678,83.7710002 C27.8196516,83.7710002 22.1740331,85.5010875 23.5986284,93.3126935 C23.5986284,93.3126935 19.6414192,97.0874293 24.1790191,99.1320779 C25.7867334,99.8630625 27.5292262,100.255751 29.2970097,100.285469 C30.1905019,100.304438 31.0812511,100.180527 31.9351492,99.9184812 C31.9351492,99.9184812 29.8246376,104.951462 34.5205259,105.842719 C35.1659669,105.947099 35.8188154,105.999696 36.4727491,106 C40.4827211,106 44.0705908,103.902925 44.1233536,103.378656 C45.9738193,104.631969 48.1180971,105.390327 50.3493628,105.580585 L50.7187023,105.580585 C52.9502159,105.57489 55.061305,104.574176 56.4698464,102.854387 L56.5226091,102.854387 C58.4752348,104.009523 60.6887175,104.658523 62.9596695,104.741755 C63.7268538,104.740473 64.4902355,104.634632 65.2284694,104.427193 C66.1303639,104.148387 66.9715545,103.703793 67.7083206,103.116521 C68.8010157,102.143887 69.6655586,100.944812 70.2409345,99.6039199 L70.34646,99.3942123 C71.9390024,100.342443 73.6393415,101.099205 75.4116878,101.648568 C76.1306134,101.868451 76.8758902,101.991873 77.627725,102.015557 C78.1964595,102.044182 78.7622005,101.917248 79.2633715,101.648568 L79.5271854,101.491288 C88.4968597,94.937927 77.2583855,90.4816417 77.2583855,90.4816417 Z" id="Path" fill="#3A8835"></path>
                <path d="M129.356036,54.2262228 C129.356036,54.2262228 131.41856,47.0776406 124.543479,47.0776406 L123.009808,47.0776406 C121.587546,44.761689 119.061529,43.3565623 116.346268,43.3709684 C114.63668,43.4049894 112.956292,43.8210976 111.42794,44.588875 C111.027489,44.2620889 110.582232,43.9945948 110.10581,43.7945881 L110.10581,43.7945881 C108.963704,43.2610313 107.716987,42.9896613 106.456728,43.0003012 C104.377601,43.036939 102.3479,43.6411306 100.586467,44.7477324 C100.586467,44.7477324 98.8941391,43.3709684 95.4565987,43.3709684 C93.2883039,43.3709684 90.4853863,43.900493 86.9949606,45.6479242 L85.6199445,45.6479242 C83.2235397,45.6250153 80.847819,46.0935551 78.6390931,47.0246882 L78.6390931,47.0246882 C77.1169941,47.7108261 75.7766601,48.7445579 74.7255855,50.0429784 C74.7255855,50.0429784 73.2447988,52.5846965 74.5140445,54.6498424 C74.9954324,55.4068597 75.6967339,55.9981801 76.5236835,56.3443212 L77.5813883,56.7679408 C77.5813883,56.7679408 77.951585,62.2220442 83.4516497,62.2220442 C85.0910921,62.2220442 87.1007311,61.7454721 89.744993,60.580518 C90.1247405,62.3987037 91.3405041,63.9301569 93.0238777,64.7108099 C93.6287102,64.9917573 94.2693793,65.1877661 94.9277463,65.2932869 L96.3556477,65.3991918 L97.8893196,65.2932869 C98.3393862,66.5063725 99.2258863,67.5073135 100.374926,68.0997673 C100.901022,68.360938 101.449766,68.5736251 102.014368,68.7351968 C102.79508,68.9133634 103.593474,69.0021866 104.394204,68.9999591 C105.825166,68.9626801 107.246113,68.7492672 108.625023,68.3645296 C110.177188,67.9234274 111.696887,67.3749326 113.173153,66.7230033 L115.077022,65.8228115 C116.407198,66.1678682 117.775108,66.3457447 119.149185,66.3523361 C122.110759,66.3523361 125.706955,65.3991918 126.130037,60.9511852 C126.130037,60.9511852 134.433019,58.9389917 129.356036,54.2262228 Z" id="Path" fill="#275A38"></path>
                <path d="M32.7094972,159.123799 C32.0055866,159.076974 31.2513966,159.264273 31.150838,159.498398 L31,159.732523 L31.301676,160.294422 C32.1062422,160.785821 33.0553205,161.031341 34.0167598,160.996796 C35.5251397,160.903146 36.1787709,160.622197 36.8826816,160.669022 C37.5865922,160.715847 39.698324,161.043621 39.7988827,160.388072 C39.8994413,159.732523 40,158.655549 40,158.655549 L35.3240223,158 C35.3240223,158 33.4636872,159.170624 32.7094972,159.123799 Z" id="Path" fill="#F4F3F4"></path>
                <path d="M32,160.847135 C32.4846539,160.953488 32.9814582,161.004706 33.4794521,160.999661 C35.1232877,160.897977 35.8356164,160.592927 36.6027397,160.643769 C37.369863,160.69461 39.6712329,161.050502 39.7808219,160.338718 C39.890411,159.626935 40,158.457575 40,158.457575 L36.6575342,158 C35.9452055,159.677776 34.0273973,160.491243 32,160.847135 Z" id="Path" fill="#010101" opacity="0.07"></path>
                <path d="M43.2098235,151.062961 C43.2098235,151.062961 39.0508812,155.310505 38.2612087,155.917297 C37.4715361,156.524089 33.3652386,158.951256 33.0493696,159.337397 C32.7335005,159.723537 33.9443318,160.330329 36.3659944,159.7787 C37.7874051,159.502886 38.787657,158.951256 39.6826193,159.061582 C39.707498,158.588757 39.8529357,158.131574 40.103778,157.737672 C40.4196471,157.296369 46,153.765943 46,153.765943 C46,153.765943 45.5788413,150.511332 43.2098235,151.062961 Z" id="Path" fill="#EDC7B2"></path>
                <path d="M44.7692308,152 C44.8112919,152.245724 44.775407,152.498539 44.6666667,152.722581 C44.0361859,153.728745 43.1512629,154.548127 42.1025641,155.096774 C40.5695384,156.013757 39.185828,157.162683 38,158.503226 C37.417413,159.106883 36.7421163,159.612266 36,160 L36.6153846,159.896774 C38,159.63871 38.974359,159.122581 39.8461538,159.225806 C39.8703885,158.78341 40.0120613,158.355649 40.2564103,157.987097 C40.5641026,157.574194 46,154.270968 46,154.270968 C46,154.270968 45.7435897,152.670968 44.7692308,152 Z" id="Path" fill="#010101" opacity="0.07"></path>
                <path d="M67,133.517787 C67,133.517787 68.3384615,135.204216 69.6307692,134.979359 L70,133.349144 L67.9692308,132 C67.9692308,132 67.8307692,133.461572 67,133.517787 Z" id="Path" fill="#CE9B25"></path>
                <path d="M67,133.517787 C67,133.517787 68.3384615,135.204216 69.6307692,134.979359 L70,133.349144 L67.9692308,132 C67.9692308,132 67.8307692,133.461572 67,133.517787 Z" id="Path" fill="#B58B55"></path>
                <polygon id="Path" fill="#EDC7B2" points="61.85 148 65.15 143.411765 66 135 60 145.323529"></polygon>
                <path d="M61,147.075314 L61.6770833,148 L65.1145833,143.430962 L66,135 L65.0625,136.577406 C64.75,140.276151 63.8645833,145.008368 61,147.075314 Z" id="Path" fill="#010101" opacity="0.07"></path>
                <path d="M58.7071084,139.082521 L48.262468,138.000053 C48.1843109,137.998467 48.1096743,138.032571 48.0596291,138.092736 C48.0095839,138.1529 47.9895602,138.232598 48.0052108,138.30933 L50.7835881,146.762893 L62,148 L59.3245256,139.546437 C59.237503,139.276444 58.9901914,139.090619 58.7071084,139.082521 L58.7071084,139.082521 Z" id="Path" fill="#9D9D9C"></path>
                <path d="M53.1052632,145.932489 C53.1052632,145.932489 51.3157895,145 50.4736842,145 C49.6315789,145 45,149.662447 45,149.662447 L47.9473684,153.008439 L51.4736842,150.924051 C51.4736842,150.924051 59,156.793249 60.6842105,157.396624 C62.3684211,158 65,158 65,158 L59.5263158,151.14346 L53.1052632,145.932489 Z" id="Path" fill="#7FC6B1"></path>
                <path d="M36.7597765,161.123799 C36.0055866,161.123799 35.2513966,161.311098 35.150838,161.498398 L35,161.732523 L35.301676,162.294422 C36.1062422,162.785821 37.0553205,163.031341 38.0167598,162.996796 C39.5251397,162.903146 40.1787709,162.669022 40.8826816,162.669022 C41.5865922,162.669022 43.698324,163.043621 43.7988827,162.434897 C43.8994413,161.826173 44,160.702374 44,160.702374 L39.3240223,160 C39.3240223,160 37.4636872,161.170624 36.7597765,161.123799 Z" id="Path" fill="#FFFFFF"></path>
                <path d="M36,162.737132 C36.5847534,162.934368 37.2012673,163.021926 37.8181818,162.995352 C39.3766234,162.892064 40.0519481,162.633844 40.7792208,162.633844 C41.5064935,162.633844 43.6883117,163.046996 43.7922078,162.375624 C43.8961039,161.704252 44,160.464796 44,160.464796 L41.1948052,160 C39.5324675,161.187812 38.025974,162.375624 36,162.737132 Z" id="Path" fill="#010101" opacity="0.07"></path>
                <path d="M69.7672956,132.648002 C69.7672956,132.648002 70.0188679,133.472004 69.8176101,133.472004 L68.9119497,133.691737 L67,139.84428 C67,139.84428 69.918239,140.228814 70.0691824,139.789346 C70.2201258,139.349879 75,133.526937 75,133.526937 L72.9371069,131 L69.7672956,132.648002 Z" id="Path" fill="#EDC3AD"></path>
                <path d="M77.5554161,135.180587 C76.4761935,134.394914 75.3538097,133.666974 74.1932459,133 L68.5362613,139.074492 L68.6429968,134.24605 L66.5082856,134.713318 C65.7332445,135.168655 65.2352569,135.963179 65.1740912,136.841986 L64,142.968397 L64.1067356,149.406321 C64.1067356,149.406321 68.2160546,149.873589 69.7103524,150.860045 C71.2046503,151.846501 72.3787414,154.961625 72.2720059,156 C72.9044288,155.076587 73.457759,154.104163 73.926407,153.092551 C74.3533493,151.586907 78.9429783,144.214447 78.9963461,139.957111 C79.0497139,135.699774 78.5160361,135.907449 77.5554161,135.180587 Z" id="Path" fill="#FFFFFF"></path>
                <path d="M77.5942626,135.104218 L77.4384646,135 C77.3668937,135.248286 77.2801757,135.491922 77.1788013,135.729529 C74.478303,140.679901 72.193266,147.08933 67,149.799007 C68.0294352,150.009449 69.0253734,150.360089 69.9601616,150.841191 C71.4142761,151.883375 72.5567946,154.957816 72.4529293,156 C73.0683456,155.0732 73.6067961,154.097209 74.0628417,153.081886 C74.478303,151.57072 78.9445117,144.171216 78.9964444,139.898263 C79.048377,135.62531 78.5290504,135.833747 77.5942626,135.104218 Z" id="Path" fill="#F4F3F4"></path>
                <path d="M68.6245939,148.923178 L59.5304204,147.003466 C59.4069359,146.98763 59.2827899,147.026485 59.1857028,147.111355 C59.0886157,147.196226 59.0266731,147.320044 59.013706,147.455163 C58.9830245,147.59019 59.0043496,147.733058 59.0727059,147.850435 C59.1410623,147.967811 59.2504712,148.049429 59.3754061,148.076246 L68.4179081,149.995958 C68.6863343,150.031047 68.93414,149.834116 68.986294,149.544261 C69.0169755,149.409233 68.9956504,149.266365 68.9272941,149.148989 C68.8589377,149.031613 68.7495288,148.949995 68.6245939,148.923178 L68.6245939,148.923178 Z" id="Path" fill="#9D9D9C"></path>
                <path d="M70.9029125,150.409963 C69.7506024,149.680978 65.560384,148.899922 65.560384,148.899922 C65.560384,148.899922 57.0228139,145.515347 56.237148,145.359135 C55.451482,145.202924 53.4611282,144.734291 53.1468619,145.202924 L49.0090212,150.878597 C48.7995102,151.191019 52.3088182,154.054891 52.3088182,154.054891 C52.3088182,154.054891 55.2419711,151.867934 55.5562375,151.399301 C55.8705038,150.930667 59.2226786,154.731806 59.8512114,155.20044 C60.4797441,155.669073 63.0986306,157.647748 65.2984953,157.85603 C67.49836,158.064311 69.5934692,158.220522 71.3219343,157.022903 C73.0503994,155.825284 72.945644,155.044228 72.9980217,154.211102 C73.0503994,153.377976 72.0552225,151.138949 70.9029125,150.409963 Z" id="Path" fill="#7FC6B1"></path>
                <path d="M65.7912621,155.586747 C62.7475728,155.034127 59.9708738,153.321004 57.1941748,152.10524 L54.7912621,151 C53.9309715,151.962763 52.9629959,152.816118 51.907767,153.542052 C51.6351612,153.760782 51.3280426,153.92905 51,154.03941 L51.907767,154.813078 C51.907767,154.813078 54.8980583,152.492074 55.2184466,151.994716 C55.538835,151.497358 58.9563107,155.531485 59.5970874,156.028843 C60.2378641,156.526201 62.907767,158.626157 65.1504854,158.847205 C67.3932039,159.068253 69.5291262,159.234039 71.2912621,157.963013 C73.0533981,156.691987 72.9466019,155.863057 73,154.978864 L73,154.647292 C70.9708738,155.973581 67.7669903,155.973581 65.7912621,155.586747 Z" id="Path" fill="#010101" opacity="0.07"></path>
                <path d="M49.4583333,150 L48,152.021277 C49.9270833,152.074468 51.1770833,155 51.1770833,155 L53,153.56383 C52.6593413,151.739652 51.2493576,150.320845 49.4583333,150 Z" id="Path" fill="#7FC6B1"></path>
                <path d="M50,153.486486 C50.3885721,153.953577 50.7177157,154.461508 50.9807692,155 L53,153.540541 C52.8185959,152.559928 52.2902371,151.665051 51.5,151 C51.2089094,151.925154 50.6958262,152.77567 50,153.486486 Z" id="Path" fill="#010101" opacity="0.07"></path>
                <path d="M44.6145833,149 L43,150.989247 L46.1770833,154 L48,152.548387 C47.7477836,150.727054 46.3749438,149.288127 44.6145833,149 Z" id="Path" fill="#7FC6B1"></path>
                <path d="M47.2287046,152.063699 C47.2287046,152.063699 43.0979058,156.295702 42.3135769,156.900274 C41.529248,157.504845 37.4507377,160.033055 37.1370062,160.417782 C36.8232746,160.80251 36.7186974,161.352121 40.6403419,160.692588 C42.94104,160.252899 43.7253689,160.417782 43.7253689,160.417782 C43.7858065,159.80764 43.9449614,159.212834 44.1959662,158.659028 C44.5619864,158.219339 50,154.701831 50,154.701831 C50,154.701831 49.5816913,151.514088 47.2287046,152.063699 Z" id="Path" fill="#EDC7B2"></path>
                <path d="M46.752381,156.708029 C44.2380952,158.291971 41.5142857,159.518248 39,161 L40.6238095,160.79562 C42.9285714,160.386861 43.7142857,160.540146 43.7142857,160.540146 C43.7748301,159.972924 43.9342661,159.419958 44.1857143,158.905109 C44.552381,158.49635 50,155.226277 50,155.226277 C49.9169872,154.801123 49.7760554,154.388708 49.5809524,154 C48.8429902,155.085997 47.8793109,156.008609 46.752381,156.708029 L46.752381,156.708029 Z" id="Path" fill="#010101" opacity="0.07"></path>
                <path d="M69.1475718,125.007477 C68.1543591,125.24774 67.2202636,125.661412 66.3958374,126.226104 C66.3958374,126.226104 65.7354212,126.479985 66.120664,127.495508 C66.5059068,128.511031 66.8911496,129.425002 66.8911496,129.425002 C66.8911496,129.425002 66.5059068,129.831211 67.001219,130.64363 C67.5118292,131.360528 68.0822498,132.039602 68.7072943,132.674676 C68.8569236,132.873272 69.1057316,132.988049 69.3677106,132.979333 C69.6016059,133.034626 69.849951,132.977344 70.0281268,132.827004 L73,131.049839 C73,131.049839 70.5784737,124.753596 69.1475718,125.007477 Z" id="Path" fill="#EDC7B2"></path>
                <path d="M76.071212,135.275172 C74.7723309,135.849277 74.4476106,138.458844 74.3934905,139.032949 C74.3393705,139.607054 74.6099707,147.174798 74.6099707,147.174798 L67.0331643,146.548502 L63.7318415,145.556867 L62,146.496311 L65.517803,148.00986 L67.4661246,148.375199 C67.4661246,148.375199 72.7698892,150.201896 74.1228903,150.567236 C75.4758915,150.932575 77.5324532,151.245723 78.2901339,150.72381 C79.0478145,150.201896 79.2101746,137.623782 78.7230942,136.318999 C78.2360138,135.014215 77.315973,134.701067 76.071212,135.275172 Z" id="Path" fill="#EDC7B2"></path>
                <path d="M78.6048941,136 C78.5493744,140.549373 77.9941782,143.405956 77.3834624,145.416144 C76.3841093,148.801724 73.4415695,150.177116 70.0548728,149.119122 L69,149.013323 C70.7211082,149.595219 73.1639714,150.388715 73.9967657,150.600313 C74.82956,150.811912 77.4945017,151.288009 78.2717763,150.759013 C79.049051,150.230016 79.2156099,137.481191 78.7159333,136.158699 L78.6048941,136 Z" id="Path" fill="#010101" opacity="0.07"></path>
                <polygon id="Path" fill="#EDC7B2" points="62 147 62.3287671 148.16129 66 149 65.7260274 147.129032"></polygon>
                <path d="M67.7637806,124.389838 C66.653322,125.011202 65.9855596,126.103864 66.0014367,127.273566 C65.9426919,128.374626 67.7050358,130 67.7050358,130 C67.7050358,130 67.5875462,129.737843 67.352567,129.003803 C67.1175878,128.269763 68.0575046,126.277369 68.0575046,126.277369 L68.9974214,124.127681 C68.9974214,124.127681 69.1149109,123.708229 67.7637806,124.389838 Z" id="Path" fill="#B58B55"></path>
                <path d="M71.4366109,123.325061 C69.8708651,122.910813 68.8990229,122.703689 67.8731894,123.894651 C66.847356,125.085614 67.0093297,126.017672 67.0093297,126.017672 C67.914134,127.110027 69.1071985,127.950316 70.4647686,128.451378 C72.3544618,129.176312 72.0305144,131.610018 71.8145495,132.697419 C71.5985846,133.784819 71.1666547,133.940162 71.1666547,133.940162 C72.1367167,134.019946 73.1121193,134.019946 74.0821813,133.940162 C75.0540235,133.629476 75.6479271,133.577695 76.1878394,132.7492 C76.7277518,131.920704 77.5916115,129.486998 76.4038044,127.985349 C75.2159972,126.483701 73.0563479,123.739309 71.4366109,123.325061 Z" id="Path" fill="#B58B55"></path>
            </g>
        </g>
    </g>
</svg>