<svg height="400" viewBox="0 0 1200 400" width="1200" xmlns="http://www.w3.org/2000/svg" xmlns:xlink="http://www.w3.org/1999/xlink"><defs><path id="a" d="m.664 241.679v184h1239v-184z"/><filter id="b" height="158.7%" width="108.7%" x="-3.6%" y="-28.3%"><feMorphology in="SourceAlpha" operator="dilate" radius="7" result="shadowSpreadOuter1"/><feOffset dx="9" dy="2" in="shadowSpreadOuter1" result="shadowOffsetOuter1"/><feGaussianBlur in="shadowOffsetOuter1" result="shadowBlurOuter1" stdDeviation="9.5"/><feColorMatrix in="shadowBlurOuter1" type="matrix" values="0 0 0 0 0.628368433   0 0 0 0 0.628368433   0 0 0 0 0.628368433  0 0 0 0.5 0"/></filter></defs><g fill="none" fill-rule="nonzero"><g transform="translate(-17)"><path d="m17 0v400h1200v-400z" fill="#ddeff8"/><g><use fill="#000" filter="url(#b)" xlink:href="#a"/><use fill="#bcdff1" xlink:href="#a"/></g></g><path d="m667.789 151h-7.137l1.911-25.584h6.63c3.406017 0 6.161989.99449 8.268 2.9835s3.159 4.699483 3.159 8.1315c0 4.758024-1.176488 8.358988-3.5295 10.803s-5.453481 3.666-9.3015 3.666zm.975-23.088h-3.471l-1.521 20.592h4.329c2.730014 0 4.985491-.942491 6.7665-2.8275s2.6715-4.77748 2.6715-8.6775c0-2.834014-.786492-5.056992-2.3595-6.669s-3.711486-2.418-6.4155-2.418zm25.74 17.082.975-10.842c-.338002-.078-.727998-.1365-1.17-.1755s-.870998-.0585-1.287-.0585c-1.456007 0-2.814494.896991-4.0755 2.691s-1.8915 4.432983-1.8915 7.917c0 1.586008.227498 2.697497.6825 3.3345s1.007497.9555 1.6575.9555c.676003 0 1.462496-.318497 2.3595-.9555s1.813495-1.592494 2.7495-2.8665zm1.638-13.104 2.34-.39-1.755 19.5h-2.691l.312-3.12h-.117c-.858004 1.196006-1.767995 2.073497-2.73 2.6325s-1.975995.8385-3.042.8385c-1.274006 0-2.307496-.500495-3.1005-1.5015s-1.1895-2.710488-1.1895-5.1285c0-4.238021.929491-7.487989 2.7885-9.75s3.958488-3.393 6.2985-3.393c.572003 0 1.091998.026 1.56.078s.909998.129999 1.326.234zm6.084 2.262v-2.223h2.223l.39-4.095 2.769-.429-.468 4.524h3.939l-.234 2.223h-3.939l-1.131 11.193c-.130001 1.352007-.045501 2.268498.2535 2.7495s.773497.7215 1.4235.7215c.494002 0 .929498-.039 1.3065-.117s.851497-.207999 1.4235-.39v2.457c-.650003.234001-1.215498.39-1.6965.468s-1.111496.117-1.8915.117c-1.326007 0-2.307497-.441996-2.9445-1.326s-.851501-2.378989-.6435-4.485l1.17-11.388zm21.294 10.842.975-10.842c-.338002-.078-.727998-.1365-1.17-.1755s-.870998-.0585-1.287-.0585c-1.456007 0-2.814494.896991-4.0755 2.691s-1.8915 4.432983-1.8915 7.917c0 1.586008.227498 2.697497.6825 3.3345s1.007497.9555 1.6575.9555c.676003 0 1.462496-.318497 2.3595-.9555s1.813495-1.592494 2.7495-2.8665zm1.638-13.104 2.34-.39-1.755 19.5h-2.691l.312-3.12h-.117c-.858004 1.196006-1.767995 2.073497-2.73 2.6325s-1.975995.8385-3.042.8385c-1.274006 0-2.307496-.500495-3.1005-1.5015s-1.1895-2.710488-1.1895-5.1285c0-4.238021.929491-7.487989 2.7885-9.75s3.958488-3.393 6.2985-3.393c.572003 0 1.091998.026 1.56.078s.909998.129999 1.326.234zm22.62-4.134h-.273l-5.07 14.118h7.956zm2.379-2.34 5.07 25.584h-3.237l-1.248-6.63h-9.321l-2.301 6.63h-3.12l9.828-25.584zm18.876 19.578.975-10.842c-.338002-.078-.727998-.1365-1.17-.1755s-.870998-.0585-1.287-.0585c-1.456007 0-2.814494.896991-4.0755 2.691s-1.8915 4.432983-1.8915 7.917c0 1.586008.227498 2.697497.6825 3.3345s1.007497.9555 1.6575.9555c.676003 0 1.462496-.318497 2.3595-.9555s1.813495-1.592494 2.7495-2.8665zm1.638-13.104 2.34-.39-1.755 19.695c-.234001 2.626013-1.078993 4.510994-2.535 5.655s-3.15899 1.716-5.109 1.716c-.988005 0-1.904496-.039-2.7495-.117s-1.761495-.207999-2.7495-.39v-2.691c.962005.260001 1.871996.454999 2.73.585s1.715996.195 2.574.195c1.482007 0 2.658496-.383496 3.5295-1.1505s1.397499-2.008491 1.5795-3.7245l.351-3.393h-.117c-.884004 1.196006-1.800495 2.073497-2.7495 2.6325s-1.956495.8385-3.0225.8385c-1.274006 0-2.307496-.500495-3.1005-1.5015s-1.1895-2.710488-1.1895-5.1285c0-4.238021.929491-7.487989 2.7885-9.75s3.958488-3.393 6.2985-3.393c.572003 0 1.091998.026 1.56.078s.909998.129999 1.326.234zm5.811 12.402c0-4.290021.857991-7.48149 2.574-9.5745s3.56199-3.1395 5.538-3.1395c1.586008 0 2.807996.389996 3.666 1.17s1.287 1.858993 1.287 3.237c0 2.184011-.922991 3.964993-2.769 5.343s-4.341984 2.067-7.488 2.067c0 2.132011.337997 3.568496 1.014 4.3095s1.637994 1.1115 2.886 1.1115c.884004 0 1.735496-.116999 2.5545-.351s1.644496-.571998 2.4765-1.014v2.535c-.910005.494002-1.806996.844999-2.691 1.053s-1.923994.312-3.12.312c-1.898009 0-3.360495-.558994-4.3875-1.677s-1.5405-2.911988-1.5405-5.382zm10.179-7.956c0-.780004-.207998-1.364998-.624-1.755s-1.000996-.585-1.755-.585c-.962005 0-1.936995.591494-2.925 1.7745s-1.611999 2.996488-1.872 5.4405c2.288011 0 4.055994-.474495 5.304-1.4235s1.872-2.099493 1.872-3.4515zm15.6 14.664 1.209-12.597c.156001-1.560008.045502-2.638997-.3315-3.237s-.890497-.897-1.5405-.897c-.572003 0-1.306496.246998-2.2035.741s-1.943494 1.260995-3.1395 2.301l-1.248 13.689h-2.769l1.716-18.915 2.769-.351-.273 2.925h.117c1.118006-1.118006 2.144995-1.910998 3.081-2.379s1.845996-.702 2.73-.702c1.352007 0 2.391996.487495 3.12 1.4625s.988001 2.619488.78 4.9335l-1.248 13.026zm18.291-6.006 1.014-10.842c-.338002-.078-.734498-.1365-1.1895-.1755s-.890498-.0585-1.3065-.0585c-1.456007 0-2.814494.896991-4.0755 2.691s-1.8915 4.432983-1.8915 7.917c0 1.586008.227498 2.697497.6825 3.3345s1.007497.9555 1.6575.9555c.676003 0 1.462496-.318497 2.3595-.9555s1.813495-1.592494 2.7495-2.8665zm4.719-21.333-2.496 27.339h-2.691l.312-3.12h-.117c-.884004 1.196006-1.800495 2.073497-2.7495 2.6325s-1.956495.8385-3.0225.8385c-1.274006 0-2.307496-.500495-3.1005-1.5015s-1.1895-2.710488-1.1895-5.1285c0-4.238021.929491-7.487989 2.7885-9.75s3.958488-3.393 6.2985-3.393c.494002 0 .942498.0195 1.3455.0585s.773498.0975 1.1115.1755l.702-7.8zm13.221 21.333.975-10.842c-.338002-.078-.727998-.1365-1.17-.1755s-.870998-.0585-1.287-.0585c-1.456007 0-2.814494.896991-4.0755 2.691s-1.8915 4.432983-1.8915 7.917c0 1.586008.227498 2.697497.6825 3.3345s1.007497.9555 1.6575.9555c.676003 0 1.462496-.318497 2.3595-.9555s1.813495-1.592494 2.7495-2.8665zm1.638-13.104 2.34-.39-1.755 19.5h-2.691l.312-3.12h-.117c-.858004 1.196006-1.767995 2.073497-2.73 2.6325s-1.975995.8385-3.042.8385c-1.274006 0-2.307496-.500495-3.1005-1.5015s-1.1895-2.710488-1.1895-5.1285c0-4.238021.929491-7.487989 2.7885-9.75s3.958488-3.393 6.2985-3.393c.572003 0 1.091998.026 1.56.078s.909998.129999 1.326.234zm25.155-6.825c2.626013 0 4.770992.99449 6.435 2.9835s2.496 4.725483 2.496 8.2095c0 4.862024-1.189488 8.592987-3.5685 11.193s-5.115485 3.9-8.2095 3.9c-2.652013 0-4.803492-.870991-6.4545-2.613s-2.4765-4.393982-2.4765-7.956c0-5.096025 1.130989-8.989487 3.393-11.6805s5.056983-4.0365 8.385-4.0365zm-.507 2.691c-2.184011 0-4.088492 1.065989-5.7135 3.198s-2.4375 5.21298-2.4375 9.243c0 3.120016.584994 5.316994 1.755 6.591s2.690991 1.911 4.563 1.911c2.02801 0 3.893491-.98149 5.5965-2.9445s2.5545-4.90748 2.5545-8.8335c0-3.250016-.584994-5.589993-1.755-7.02s-2.690991-2.145-4.563-2.145zm15.912 23.244-3.315-19.071h2.964l2.535 16.536h.156l1.053-2.145c.962005-1.95001 1.780997-4.049489 2.457-6.2985s1.260998-4.946484 1.755-8.0925h2.886c-.494002 3.016015-1.156996 5.732988-1.989 8.151s-1.832994 4.731989-3.003 6.942l-2.106 3.978zm11.973-6.708c0-4.290021.857991-7.48149 2.574-9.5745s3.56199-3.1395 5.538-3.1395c1.586008 0 2.807996.389996 3.666 1.17s1.287 1.858993 1.287 3.237c0 2.184011-.922991 3.964993-2.769 5.343s-4.341984 2.067-7.488 2.067c0 2.132011.337997 3.568496 1.014 4.3095s1.637994 1.1115 2.886 1.1115c.884004 0 1.735496-.116999 2.5545-.351s1.644496-.571998 2.4765-1.014v2.535c-.910005.494002-1.806996.844999-2.691 1.053s-1.923994.312-3.12.312c-1.898009 0-3.360495-.558994-4.3875-1.677s-1.5405-2.911988-1.5405-5.382zm10.179-7.956c0-.780004-.207998-1.364998-.624-1.755s-1.000996-.585-1.755-.585c-.962005 0-1.936995.591494-2.925 1.7745s-1.611999 2.996488-1.872 5.4405c2.288011 0 4.055994-.474495 5.304-1.4235s1.872-2.099493 1.872-3.4515zm15.6-4.485-.351 2.73c-.208001-.026-.389999-.0455-.546-.0585s-.350999-.0195-.585-.0195c-.728004 0-1.494996.337997-2.301 1.014s-1.572996 1.611994-2.301 2.808l-1.092 12.675h-2.769l1.599-18.915 2.769-.351-.351 3.588h.156c.884004-1.560008 1.657497-2.573998 2.3205-3.042s1.384496-.702 2.1645-.702c.234001 0 .461499.0195.6825.0585s.422499.110499.6045.2145zm11.154 19.149 1.209-12.597c.130001-1.560008.019502-2.638997-.3315-3.237s-.851497-.897-1.5015-.897c-.598003 0-1.351995.246998-2.262.741s-1.949994 1.260995-3.12 2.301l-1.248 13.689h-2.769l2.457-26.988 2.808-.351-1.053 10.998h.117c1.118006-1.092005 2.144995-1.878498 3.081-2.3595s1.845996-.7215 2.73-.7215c1.352007 0 2.391996.487495 3.12 1.4625s.988001 2.619488.78 4.9335l-1.248 13.026zm7.839-6.708c0-4.290021.857991-7.48149 2.574-9.5745s3.56199-3.1395 5.538-3.1395c1.586008 0 2.807996.389996 3.666 1.17s1.287 1.858993 1.287 3.237c0 2.184011-.922991 3.964993-2.769 5.343s-4.341984 2.067-7.488 2.067c0 2.132011.337997 3.568496 1.014 4.3095s1.637994 1.1115 2.886 1.1115c.884004 0 1.735496-.116999 2.5545-.351s1.644496-.571998 2.4765-1.014v2.535c-.910005.494002-1.806996.844999-2.691 1.053s-1.923994.312-3.12.312c-1.898009 0-3.360495-.558994-4.3875-1.677s-1.5405-2.911988-1.5405-5.382zm10.179-7.956c0-.780004-.207998-1.364998-.624-1.755s-1.000996-.585-1.755-.585c-.962005 0-1.936995.591494-2.925 1.7745s-1.611999 2.996488-1.872 5.4405c2.288011 0 4.055994-.474495 5.304-1.4235s1.872-2.099493 1.872-3.4515zm7.566-10.413c0-.598003.175498-1.072498.5265-1.4235s.812497-.5265 1.3845-.5265c.494002 0 .870999.136499 1.131.4095s.39.656498.39 1.1505c0 .520003-.168998.968498-.507 1.3455s-.805997.5655-1.404.5655c-.442002 0-.805999-.129999-1.092-.39s-.429-.636998-.429-1.131zm2.535 5.811-1.755 19.266h-2.769l1.716-18.915zm14.001 13.26 1.014-10.842c-.338002-.078-.734498-.1365-1.1895-.1755s-.890498-.0585-1.3065-.0585c-1.456007 0-2.814494.896991-4.0755 2.691s-1.8915 4.432983-1.8915 7.917c0 1.586008.227498 2.697497.6825 3.3345s1.007497.9555 1.6575.9555c.676003 0 1.462496-.318497 2.3595-.9555s1.813495-1.592494 2.7495-2.8665zm4.719-21.333-2.496 27.339h-2.691l.312-3.12h-.117c-.884004 1.196006-1.800495 2.073497-2.7495 2.6325s-1.956495.8385-3.0225.8385c-1.274006 0-2.307496-.500495-3.1005-1.5015s-1.1895-2.710488-1.1895-5.1285c0-4.238021.929491-7.487989 2.7885-9.75s3.958488-3.393 6.2985-3.393c.494002 0 .942498.0195 1.3455.0585s.773498.0975 1.1115.1755l.702-7.8z" fill="#000"/><path d="m679.784 102-10.36-29.68h-.336v29.68h-6.44v-36.736h11.088l10.416 29.68h.336v-29.68h6.44v36.736zm20.384 0v-36.736h7.28v30.8h12.432v5.936zm46.816 0h-10.36v-36.736h10.696c6.309365 0 11.143983 1.5213181 14.504 4.564s5.04 7.2893061 5.04 12.74c0 6.6453666-1.782649 11.5453176-5.348 14.7-3.565351 3.154682-8.409303 4.732-14.532 4.732zm-3.08-30.8v24.864h3.416c3.584018 0 6.458656-1.0266564 8.624-3.08s3.248-5.41331 3.248-10.08c0-3.7706855-1.110656-6.6639899-3.332-8.68s-5.217314-3.024-8.988-3.024zm37.52-5.936v36.736h-7.28v-36.736zm24.472 24.024v-5.936h12.376v17.976c-1.829342.373335-3.649324.643999-5.46.812s-3.705323.252-5.684.252c-5.562694 0-10.033316-1.483985-13.412-4.452-3.378684-2.9680148-5.068-7.3639709-5.068-13.188 0-6.6453666 1.903981-11.6199835 5.712-14.924s8.605304-4.956 14.392-4.956c1.680008 0 3.173327.0559994 4.48.168s2.613327.2986654 3.92.56l-.504 6.16c-1.530674-.2240011-2.911994-.373333-4.144-.448s-2.557326-.112-3.976-.112c-3.696018 0-6.654656 1.0919891-8.876 3.276s-3.332 5.3853122-3.332 9.604c0 4.0693537 1.073323 7.1493229 3.22 9.24s4.750651 3.136 7.812 3.136c.784004 0 1.446664-.0186665 1.988-.056s1.18533-.093333 1.932-.168v-6.944zm27.608-24.024v36.736h-7.28v-36.736zm23.184 5.936v30.8h-7.28v-30.8h-10.08v-5.936h27.44v5.936zm28.392 17.08-4.536-16.968h-.392l-4.536 16.968zm1.232-23.016 10.696 36.736h-8.4l-2.016-7.896h-12.432l-2.016 7.896h-7.56l10.752-36.736zm32.48 23.016-4.536-16.968h-.392l-4.536 16.968zm1.232-23.016 10.696 36.736h-8.4l-2.016-7.896h-12.432l-2.016 7.896h-7.56l10.752-36.736zm16.016 36.736v-36.736h7.28v30.8h12.432v5.936z" fill="#007bc7"/><g transform="translate(38 -1)"><path d="m986.7 259c1.2.1.1 3.2 1.4 3.7 6.4 2.3 3.2 10.5 1.8 10.7-12.9 1.4-27.5-2.2-39.8-3.2.2-2.5.7-9.2.8-9.4.1-.3 4.1-3.3 8-2.9.3 0 .6-.2.9-.5.4-.3.7-.5 1.1-.5 5.4.1 9.1-1.9 8.3-7.6 3.8.4 7 .6 10.9.8-1.9 5.6 1.3 8.1 6.6 8.9" fill="#ad743f"/><path d="m978.9 304.8-.1-.2-16.6-1.2-10-21.4-4.7 31.5 9.4.3-2.8 4.2-7.4 17.9 3.6 7.6 10.6-11.3 4.9-7.7 11.9-7.6c2.7-4.2 3.2-7.4 1.2-12.1" fill="#3d3d3d"/><path d="m950.3 343.6-1.2-2.5 9.7-9.5 5.5-10 13.3-4.6h.1l-11.9 7.6-5 7.7z" fill="#373737"/><path d="m956.9 313.9-9.4-.3 4.7-31.5 10 21.4-.3.7c-.8.2-1.5.5-2.2.7.5.2 1.1.3 1.6.3h.2z" fill="#323232"/><path d="m945 329.6.7-5.9-6.7-.8-.6 6.4z" fill="#ad743f"/><path d="m945 329.6-.9-.2c-.1-1.1-1.1-2-2.6-2.2-1.6-.2-2.9.6-3.1 1.8v.3l-4.1 6.5c-.5 1.2 0 2.5 1.2 3.1 2.3 1.1 4.9 1.7 7.5 1.8h.3c1.2 0 2.2-.8 2.4-1.9z" fill="#e9a212"/><path d="m945.6 338.7-.2-6.3c0-1-.2-1.9-.5-2.8v8.2c-.2 1.2-1.2 1.2-1.9 1.2h-.3c-2.6-.1-5.1-.7-7.5-1.8-.5-.3-.9-.7-1.2-1.2-.4 1.1.2 2.4 1.2 2.9 2.3 1.1 4.9 1.7 7.5 1.8h.3c1.4 0 2.4-.8 2.6-2" fill="#e0e1e1"/><path d="m992.7 270.5 4.3 21.6s12 15.9 13 16.5 5.1.3 5.1.3c.6-.1 5.4.9 5.9 1.2l3.4 1.9c.4.2.2.8-.2.8 0 0-5.1-.9-7.9-1.1-3.3 1.1 3.1 1.1 2.3 2.6h-4.2l-4.1-1.6s-9.6-5-12.3-7.2c-2.7-2.3-7.2-7.6-7.2-7.6s-4.4-9.7-5.2-17.3c2.3-3.7 7.1-10.1 7.1-10.1" fill="#e3b98f"/><path d="m980.3 308.5h-.3s0 0-.1 0c-.2-1.2-.6-2.4-1.1-3.7l-.1-.2-15.1-1.1c5-1.6 10.8-3.6 13.5-5.6 5.2-3.8-14-2.7-2.4-8.6 4.4-2.2 8.1-5.4 11.1-8.5.1.9.3 1.9.5 2.9-2.8 7-5 23.8-5 23.8-.1.6-.5 1-1 1" fill="#b3d4e5"/><path d="m980 308.5c-.2 0-.4-.1-.5-.3-.4-.3-.8-.7-1.3-1-2.8-1.8-6-2.7-9.3-2.7-.2 0-.5 0-.7 0-1 .1-2 .1-3.2.2l-3.2.2c-.1 0-.2 0-.4 0l.5-1c.6-.2 1.2-.4 1.8-.6l15.1 1.1.1.2c.5 1.6.9 2.8 1.1 3.9" fill="#3a3a3a"/><path d="m993 271.7c.2-.3.3-.5.4-.6-.2.1-.3.3-.4.6" fill="#b3d4e5"/><path d="m961.2 305.1c-.6 0-1.1-.1-1.6-.3.7-.2 1.5-.4 2.2-.7l-.5 1c0-.1 0 0-.1 0" fill="#303030"/><path d="m986.3 283.8c-.2-1-.4-1.9-.5-2.9 3.8-4 6.3-7.8 7.2-9.3-1.4 2.6-4.7 8.5-5.9 10.4-.3.5-.6 1.1-.8 1.8" fill="#d8b088"/><path d="m993.3 271c.2-.4.3-.6.3-.6z" fill="#b3d4e5"/><path d="m944.6 330c-3.7-5.1 5.6 17.8 5.6 17.8l.6-2.9z" fill="#e9a212"/><path d="m983.1 257.4c0 3.5-4.2 6.3-9.5 6.3s-9.5-2.8-9.5-6.3c0-.4.1-.8.2-1.1-3.4.1-6.3.4-8.4.8-5.3.9-10.6 8.5-15.7 13.6.5 4 6.7 4.8 9.5 9.8l3.5 4.3 3.7 16.7c.5 2.2 2.6 3.8 4.9 3.5l3.2-.2c1.2-.1 2.2-.1 3.2-.2 3.5-.1 7 .8 10 2.7.5.3.9.6 1.3 1 .7.6 1.7.2 1.8-.7 0 0 2.7-20.3 5.8-25.6 1.5-2.5 6.5-11.6 6.5-11.6-.4-5.4-3.3-11.1-10.5-13" fill="#147abf"/><path d="m939.5 284.8c.2-2 1.3-3.7 2.8-4.9 1.3-1 3-1.5 4.6-1.4l2.9.1c2.8 3.2 4.1 7.4 3.5 11.6l-7.7 35.7-7.7-1z" fill="#3d3d3d"/><path d="m947.2 347s-1.7-11.3-4.7-16.8" fill="#e9a212"/><path d="m946.3 351.4c-2.8-.2-4.6-2.6-4.5-5.9.1-1.6-.3-3-1.1-4l-3.6-4.8c-1.2-1.6-1.9-3.7-1.8-6.2 0-.9.2-1.8.4-2.6.4-1.2 2.1-1.5 3.4-1.2 2.2.5 4.3 1.9 5 4l6 16.6c.5 1.6-2.2 4.2-3.8 4.1" fill="#e0e1e1"/><path d="m949 347.8-6-16.6c-.8-2.2-2.9-3.5-5.1-4-.5-.1-1.1-.1-1.6 0 .7-.5 1.8-.6 2.7-.4 2.2.5 4.3 1.9 5 4l6 16.6c.5 1.4-1.7 3.7-3.3 3.9 1.4-.7 2.7-2.4 2.3-3.5" fill="#f0efef"/><path d="m1001 228.9c6-2.8 8.7 6 9.4 9.1 1.5 7.3 12.2 14-7.9 18s-13.1-6.4-14.3-14c-1-6.1.6-12.1 7.8-12.4 1.6-.1 3.4.5 5.1.5-.2-.3-.5-.6-.8-.8z" fill="#e16f0d"/><path d="m997.1 249.6c.8 3 .7 6.2-.4 7.6-.3.4-1.5.6-2.7.9-1.7.3-3.8.6-4.8.8-2.6.5-2.9 3.9-2.8 5.3.2 1.8 1.8 1.5 2.3 3 .1.3.2 1.1.3 2 1.1.6 2.2 1.1 3.4 1.6h18.7c.7-.2 1.3-.5 2-.8l.4-3.3 3.9-2.7c-.1-6.4-6.4-4.7-9.7-6.1-2.7-1.1-2.9-3.4-2.7-8z" fill="#fbd7c0"/><path d="m1008.7 258c2 .2 5.8-.1 7.6.8.9.5 1.9 1.6 2.2 2.6.3 1.1 1.4 6.2 2.3 9.3l-5.9-2.1-.5 2.7c.5.9.7 1.9.7 2.9 0 1.9-.9 3.7-2.3 4.8l-2.6 13.2 2.9 8.1-22.5.4 3.2-8.1-2.7-13.6c-1.4-1.2-2.3-2.9-2.3-4.9 0-1.1.3-2.1.7-3l-.6-3.1-6 4.2c1.2-2.7 1.7-9.9 2.2-11.1.8-2.1 2.1-2.7 4.3-2.7 1-.1 3.5-.2 4.5-.4 1.1 7.6 4.1 11.4 7.1 11.9 3.8.8 7.5-3.5 7.7-11.9" fill="#e9acce"/><path d="m991.5 241.3c-.4-.2-.6 0-.6.4 0 .6.7 1.7 1 2.3-.2-1-.9-1.8-.9-2.3 0-.3.3-.4.6-.2z" fill="#e9a37a"/><path d="m1004.3 251c.8-.9 1.3-1.8 2-3.3.5-1.1.7-1.9.9-3.1.8 0 1-.6 1-1.5.1-1.3.4-2.6.4-3.7.1-1.4-.9-2-1.5-.8-.1-1.1-.3-2.3-.6-3.3-1.3-3.8-4.3-6.4-8.5-5.8-4.6.7-6.6 2.9-6.6 7.4 0 1.4.1 2.6.3 3.7-.8-.5-1.3.3-.9 1.4.4 1 1.1 2.2 1.5 3.4.3.8.7 1.3 1.3 1.1.6 1.2 1.2 2.2 2.1 3.1s1.6 1.5 2.4 2c1.7 1.1 2.6 1.5 3.4 1.4.8.1 1.6-.6 2.8-2" fill="#fad4c7"/><path d="m988.4 238.8c-1.5-8 8-14.1 13.8-10-.2.1 1.8 1.3 2.7 2.2 3.3 3.5 2.7 8.2 2.1 12.4 0-3.3 0-6.5-1.6-9.4-2.1 6-13.1 4-12.2 10.9-.4-.3-.6-1-.8-1.4-.6 1.6-.2 6.8 3.8 7.8-5.2 1.2-7.5-11.4-7.8-12.5" fill="#e16f0d"/><path d="m992.8 265.6-5.3 15.1 5.9 13.8-2.2 2.6-9.5-13.6c-1.9-1.8-1.8-1.2-.6-3.5l5-19.9z" fill="#e9acce"/><path d="m1013.2 269.7c1.2 1.1 1.9 2.8 1.9 4.5 0 1.3-.4 2.5-1.1 3.6-1.9 2.8-5.4 3.4-8.4 1.9 4.2.4 10.1-3.3 7.6-10" fill="#e494bf"/><path d="m990.7 269.8c-1.2 1.1-1.9 2.8-1.9 4.5 0 1.3.4 2.5 1.1 3.6 1.9 2.8 5.4 3.4 8.4 1.9-4.2.4-10.1-3.3-7.6-10" fill="#e494bf"/><path d="m1009.7 265.6 10.6 14.6-11.2 14.3 2.2 2.6 14.9-14c1.9-1.8 1.8-1.2.6-3.6l-10.4-19.5z" fill="#e9acce"/><path d="m973.9 264.8 4.3-2.2 5.4.4-.2 1-3.9-.1c-.7 3.9.3 6.9-2.6 9.3l3.8.5-1.3 1.4-5.4.4-4.8-2.9.1-5.6z" fill="#ad743f"/><path d="m978.6 264h14.4c1 0 1.8.8 1.8 1.8v6c0 1-.8 1.8-1.8 1.8h-14.4c-1 0-1.8-.8-1.8-1.8v-6c0-1 .8-1.8 1.8-1.8" fill="#2e2e2c"/><path d="m990.4 269.6c.5 0 .8-.4.8-.8 0-.5-.4-.8-.8-.8s-.8.4-.8.8c0 .5.3.8.8.8" fill="#4e4d4c"/><path d="m969.3 266.2 1.4 7.6-26.6 6.4c-2.3.6-5.2-.9-6.1-3.2-1.1-3 .8-7.3 6.6-7.9z" fill="#5b91cd"/><path d="m989 308.6h26.5v-9.3h-26.5z" fill="#026a9d"/><path d="m1007.7 317h-10.6c-5.7 0-10.5-4.4-10.9-10.2l-1.3-18.2 11.7 1.1 5.7 16.7 7.1-20 10.9-.1-1.8 20.8c-.4 5.6-5.1 9.9-10.8 9.9" fill="#026a9d"/><path d="m995.2 344.4c1.8.3 3.5-.7 4.1-2.4l1.6-8.3c.6-2 .6-3.7-1.3-4.4-1.9-.6-3 .8-3.6 2.7l-3.6 7.4c-.8 2.2.5 4.6 2.8 5" fill="#f0f1f1"/><path d="m993.4 338.5 4-8.7 2.3-10.6 5.9 1.9-4.7 10.6-1.8 9z" fill="#f0c89b"/><path d="m999.1 340.7-5.7-2.2 4-8.7 2.3-10.6 5.9 1.9-4.4 10-.3.6z" fill="#e6bd92"/><path d="m1005.6 321.1 14.6-32.5c1.1-3.3-.7-6.8-4-7.9-3.5-1.2-7.2 1-8 4.6l-8.4 33.8z" fill="#026a9d"/><path d="m1000.3 317.1v-.1z" fill="#afcfe0"/><path d="m1000.3 317 .9-3.5z" fill="#026392"/><path d="m1005.6 321.1-4.1-1.3-1.2-2.7v-.1l.9-3.5 2.7-11.2 3.6 14.4z" fill="#026392"/><path d="m1009.9 344.4c-1.8.3-3.5-.7-4.1-2.4l-1.5-8.3c-.6-2-.6-3.7 1.3-4.4 2-.6 3 .8 3.6 2.7l3.6 7.3c.7 2.3-.6 4.7-2.9 5.1" fill="#f0f1f1"/><path d="m1011.7 338.6-4-8.7-2.3-10.7-5.9 1.9 4.7 10.6 1.8 9z" fill="#f0c89b"/><path d="m999.5 321.1-14.5-32.5c-1.1-3.3.7-6.8 4-7.8 3.5-1.2 7.2 1 8 4.6l8.4 33.8z" fill="#026a9d"/><path d="m988.5 281s16.2 7.7 21.5 7.5 6.9-1 6.9-1l2.3 2.1c.8.7 1 1.9.5 2.8l-.5 1.1c-.8 1.7-2.8 2.4-4.6 1.7l-4.5-2s-22.3-4.6-25.6-5.9c-5.9-2.2-4-6.6-3.6-7.3 2.3-.3 5.1.1 7.6 1" fill="#fbd7c0"/><path d="m972.7 257.3c-1.2-.5-1.8-.8-2.3-1.3s-.5-1.2-1-2.3c-.4-1-1.4-2.2-1.4-3 0-1 .5-2 .9-3.3-.8.1-.7-2-.6-2.7.2-1 .2-2.8.4-3.9.1-.6.4-1.1.7-1.1.5-.1.9.2 1.2 1.3.3-.7.7-1.4 1-2.2.6-1.5 1-2.7 1.6-3.7s1.4-1.7 2.6-2.1c.6-.2 1.3-.4 2-.4h.1.1.1.1.1.1.1.1.2c1.8.1 3.6.7 5.2 1.6 1.5.9 2.8 2.2 3.6 3.8.5 1.1.6 2.1.3 3.3-.2 1.1-.8 2.3-1.4 3.7-.3.8-.6 1.5-.9 2.3.9-.6 1.4-.6 1.7-.1.1.2 0 .7-.4 1.3-.6.9-1.9 2.2-2.5 3-.4.5-1.8 2.1-2.3 1.5-.7 1.2-1 2.2-1.7 2.9-.6.6-2.1.8-3.1 1.2-1.1.5-1.7.9-2.4.9-.6 0-1.2-.2-2.2-.7" fill="#c78f58"/><path d="m975.3 235.4c-.8.4-3.4 3.8-5 8 .9-6.8 1.8-11.6 6.1-13.2 1.1-.8.6-1.7 3.2-5 .1 2.4 2.2 3 3 4v-.8c.8 1.3 2 2 3.2 2.8 2 1.2 3.2 2.9 3.2 3.7 3.5 3.1-.9 8.9-4.1 13.5 1-2.6 1.8-6 1.5-8.8-.2-.4-.5-.8-.8-.7-4.6.1-9.6-3.9-10.3-3.5" fill="#552a16"/><path d="m657.3 349.1h5.8v52.2h-5.8z" fill="#fff"/><path d="m657.3 297.8h5.8v3.9h-5.8z" fill="#fff"/><path d="m657.3 313.8h5.8v3.9h-5.8z" fill="#fff"/><g fill="#fff"><path d="m657.3 329.9h5.8v12.1h-5.8z"/><path d="m801.1 349.1h5.8v52.2h-5.8z"/></g><path d="m801.1 329.9h5.8v12.1h-5.8z" fill="#fff"/><path d="m801.1 297.8h5.8v3.9h-5.8z" fill="#fff"/><path d="m801.1 313.8h5.8v3.9h-5.8z" fill="#fff"/><path d="m726.9 285.6h-78.9v12.2h9.3 5.8 62.5l.6-4.7c.8.2 1.7.3 2.5.5-1.8-.3-3.1-.6-3.2-.6z" fill="#a29598"/><path d="m735.9 295-.5 2.8h1.1l.1-3.9-.3 1.2c-.1-.1-.2-.1-.4-.1" fill="#a29598"/><path d="m733.7 294.6c-1.7-.3-3.3-.6-5-.9 1.6.2 3.4.5 5 .9" fill="#a29598"/><path d="m780.5 292.5c-.6.1-1.3.2-2 .3l.5 5h22 5.8 11.1v-12.2h-38.9z" fill="#a29598"/><path d="m801.1 301.6h-14.3l-2.7 12.2h17 5.8 11v-12.2h-11z" fill="#a29598"/><path d="m733.9 307.2 2.3 1.5.2-7.1h-1.6z" fill="#a29598"/><path d="m724.1 309.9.1-1.3.4-2.9.5-4.1h-61.9-5.8-9.3v12.2h9.3 5.8 63.8c-1.9-.8-3-1.9-2.9-3.9" fill="#a29598"/><path d="m801.1 317.7h-17.8l-1 4.6 1.2 7.6h17.6 5.8 11v-12.2h-11z" fill="#a29598"/><path d="m663.1 317.7h-5.8-9.3v12.2h9.3 5.8 72.6v-4.1h-.5v-2.4h.5l.2-5.7h-.1z" fill="#a29598"/><path d="m801.1 342h-13.6c-.2.7-.6 1.2-1.6 1.2h-6.3l-.4 5.9h21.9 5.8 11.1v-7.1h-11.1z" fill="#a29598"/><path d="m764.6 343.2h-6.3l-.4 5.9h8.8v-6c-.5.1-1 .1-1.5.1z" fill="#a29598"/><path d="m743.9 343.2c-1.6 0-3-.4-4.3-1.2h-76.5-5.8-9.3v7.1h9.3 5.8 82.4v-5.9h-.9z" fill="#a29598"/><path d="m742.2 323.4h.6l.5-2.3-1.7-.8c.2 1.2.4 2.3.6 3.1" fill="#ef7b26"/><path d="m776.5 273.4c-.4-1.1-2-4.4-6.3-5.5l-11.4-4.3v2.6c0 1.4-.5 2.6-1.4 3.6-.6.4-1.1 1.5-3.8 1.5-.6 0-1.2 0-2-.1-2-.7-3.5-2.6-3.5-4.9v-3.2l-12.7 4.8c-4.4 1.1-5.9 4.4-6.3 5.5l8.5 16.5v.1l.3.2c.4 1.4 1.5 12.1 2.6 21.2l4.4 2.8 3.1-14.4h21.5v-1.9l-.5-3.5-1-6.6z" fill="#e47e28"/><path d="m735.9 317.7-.2 5.7h6.6c-.2-.8-.4-1.8-.6-3.1z" fill="#ed6b08"/><path d="m737.5 289.9-.9 3.9-.5 14.8 4.2 2.7c-1.1-9.1-2.2-19.7-2.6-21.2z" fill="#ed6b08"/><path d="m749 244.4v1.7c.2 4 .5 6.8 1.7 8.3l3.8-.4c.5-.4 1.2-.6 1.9-.6h2.4c1.3 0 2.5.8 3 2 1.3-.8 1.7-2.1 1.8-3v-.9-.1.1-9.8h-11.9c-2.8 0-2.7 2.7-2.7 2.7" fill="#edc4ad"/><path d="m748.1 258.3v-2.4c-.3-.9-.5-1.7-.6-2.3z" fill="#edc4ad"/><path d="m746.2 246c-.6 0-1.3 0-1.3 1.9 0 4.4 1.9 4.6 2.3 4.6h.1l.2-5.5c-.3-.3-.7-1-1.3-1" fill="#edc4ad"/><path d="m753.3 255.7c.2-.7.6-1.2 1.2-1.7h-3.4c.6.8 1.3 1.3 2.2 1.7" fill="#edc4ad"/><path d="m757.5 263.4c-5.7-.1-8.3-4.3-9.4-7.5v2.5 4.7 3.1c0 2.3 1.5 4.2 3.5 4.9.8.1 1.4.1 2 .1 2.7 0 3.2-1 3.8-1.5.9-.9 1.4-2.2 1.4-3.6v-2.6-.3c-.3.1-.7.1-1.1.1z" fill="#edc4ad"/><path d="m750.9 234.5c-2.3 0-7.4.7-7.4 6.9v7s.3 7.7 4.6 9.9l-.6-4.7c-.1-.6-.2-1-.2-1.1h-.1c-.4 0-2.3-.3-2.3-4.6 0-1.8.7-1.9 1.3-1.9s1.1.7 1.2 1l1.6-.1-.1-1.1v.3-1.7h.1s-.1-2.7 2.6-2.8h.3 11.7s2.2-.1 2.2-7h-13.7c-.1-.1-.5-.1-1.2-.1" fill="#683328"/><path d="m735.7 334.3v.6c0 3 1.6 5.6 4 7.1h.5c-2.7-1.6-4.5-4.4-4.5-7.7" fill="#ececec"/><path d="m765.3 343.2c.5 0 1 0 1.5-.1v-.1c-.7.2-1.4.2-2.1.2z" fill="#978b8e"/><path d="m739.7 342c1.2.8 2.7 1.2 4.3 1.2h.6c-1.6 0-3.2-.4-4.5-1.2z" fill="#978b8e"/><path d="m783.8 397-8.1-3.4h-7.8s-1.7 3.4-1.1 7.3h21.6c.1 0-.2-3.4-4.6-3.9" fill="#5e5d5c"/><path d="m759.4 397-5.4-3.4h-7.2s-1.8 3.4-1.2 7.3h18.6s-.3-3.4-4.8-3.9" fill="#5e5d5c"/><path d="m778.5 292.8c-2.9.4-6.6.9-9 1.4l-.6.3.5 3.5.2 1.9v-.2l.1.2h9.5l-.2-2z" fill="#edc4ad"/><path d="m782.3 322.3-.8 3.5h-2.8c1 1.2 1.6 2.7 1.7 4.4.8 1.6 1.4 3 2.1 4l.1.2h1.7l-.7-4.6z" fill="#edc4ad"/><path d="m776.5 273.4-8.5 14.5 1 6.6.6-.3c2.4-.5 6.1-1 8.9-1.4.7-.1 1.4-.2 2-.3l-1.4-6.9z" fill="#e47e28"/><path d="m769.7 299.8h.1l-.1-.2z" fill="#dbb6a2"/><path d="m780.3 330.2v.2l-.3 4h2.4l-.1-.2c-.5-1-1.2-2.4-2-4" fill="#dbb6a2"/><path d="m726.9 285.6-1.3 7.4s4.6.9 8.1 1.6c.7.1 1.4.2 2.2.3v.1c.2 0 .3.1.5.1l.3-1.2.9-3.9-8.5-16.5z" fill="#e47e28"/><path d="m726.3 293.1-.6 4.7-.5 3.9 8.8 5.6.9-5.6.6-3.9.5-2.8v-.1c-.7-.1-1.5-.2-2.2-.3-2.6-.5-5.1-.9-7.5-1.5" fill="#edc4ad"/><path d="m724.2 308.6.4-2.9z" fill="#edc4ad"/><path d="m784.2 334.4h-1.7-2.4l-.6 8.8h6.3c1 0 1.4-.5 1.6-1.2s.1-1.6 0-2.3c-.1-1.5-3.2-5.3-3.2-5.3" fill="#edc4ad"/><path d="m742.8 323.4h-.6-6.5z" fill="#1d9fa4"/><path d="m767 328.5c-.2.6-.3 1.2-.3 1.8 0-.6.1-1.2.3-1.8m13.3 1.7c-.1-1.7-.7-3.2-1.7-4.4h-10.3c-.2.3-.4.6-.6.9-.8 4.6-.2 9.1.8 13.5-1-4.4-1.6-8.8-.8-13.5-.3.5-.5 1-.7 1.6.3-.9.7-1.8 1.3-2.5h-11-9.6-.5-4.8-6.7v.1 8.4c0 3.3 1.8 6.2 4.4 7.7 1.3.8 2.8 1.2 4.5 1.2h.9v50.4h5.8 3.8l2.8-44.5.4-5.9h6.3c.7 0 1.4-.1 2.1-.2v50.7h5.2 4.4l2.8-44.5.4-5.9.6-8.8.3-4z" fill="#026a9d"/><path d="m736.2 308.7-.3 9 5.7 2.6 1.7.7 1.5-6.8-4.4-2.8z" fill="#edc4ad"/><path d="m725.1 301.6-.6 4.1-.3 2.9-.1 1.3c-.1 2 1 3.1 2.9 3.9.4.2.9.4 1.4.5l7.5 3.3.3-9-2.3-1.4z" fill="#edc4ad"/><path d="m763.5 251.3c0 .2.1.6 0 1-.1.9-.5 2.2-1.8 3 .2.4.3.9.3 1.3v.9c0 1.8-1.5 3.3-3.3 3.3h-2.4c-1.8 0-3.3-1.5-3.3-3.3v-.9c0-.4.1-.7.2-1.1-.8-.3-1.6-.8-2.2-1.7-1.1-1.5-1.8-3.1-2.1-7.2 0-.1 0 .1 0 0l-1.6.1-.2 5.5c0 .1.1.5.2 1.1s.3 1.4.6 2.3c1.1 3.2 3.7 7.4 9.4 7.5h.2c.4 0 .8 0 1.1-.1 6.6-.8 5-10.8 4.9-11.7z" fill="#edc4ad"/><path d="m758.5 257.9h-.2-.3c-1.2 0-2.1 0-2.1-1.5h4.7c0 1.4-.9 1.5-2.1 1.5m.2-4.5h-2.4c-.7 0-1.4.2-1.9.6s-1 1-1.2 1.7c-.1.3-.2.7-.2 1.1v.9c0 1.8 1.4 3.3 3.3 3.3h2.4c1.8 0 3.3-1.5 3.3-3.3v-.9c0-.5-.1-.9-.3-1.3-.5-1.3-1.6-2.1-3-2.1" fill="#edc4ad"/><path d="m758 257.9h.3.2c1.2 0 2.1 0 2.1-1.5h-4.7c0 1.4.9 1.5 2.1 1.5" fill="#f1c5ac"/><path d="m769.8 299.8h-.1-.2-21.5l-3.2 14.4-1.5 6.8-.5 2.4h6.1v2.4h8.5 11 10.3 2.8l.8-3.5 1-4.6.8-3.9 2.7-12.2.4-1.8h-7.9z" fill="#666665"/><path d="m735.7 323.4h-.5v2.4h.5 6.6 5.4 1.2v-2.4h-6.1z" fill="#666665"/><g transform="translate(806 193)"><path d="m100.6 5.4-8.7-5.4-73.2 117 8.7 5.5z" fill="#c5c5c4"/><g fill="#147abf"><path d="m21.4 29c-3-1.2-6.4.3-7.6 3.4-1.2 3 .3 6.4 3.4 7.6 3 1.2 6.4-.3 7.6-3.4 1.1-3-.4-6.4-3.4-7.6"/><path d="m26.1 16.8c-6.2-2.4-13.1-1.5-18.6 2.4-1.3.9-1.6 2.6-.7 3.9s2.7 1.6 3.9.7c3.9-2.8 8.9-3.4 13.3-1.7 4.1 1.6 7.2 5 8.5 9.3.3.9 1 1.6 1.9 1.9.5.2 1 .2 1.6 0 1.5-.4 2.3-2 1.9-3.5-1.6-6-6-10.8-11.8-13"/><path d="m30.5 5.5c-8.6-3.3-19.9-2.3-28.6 2.6-1.3.8-1.8 2.5-1.1 3.8.8 1.3 2.5 1.8 3.8 1.1 7.3-4.1 16.7-5 23.8-2.2 7.4 2.9 12.5 7.9 15.1 14.9.3.9 1 1.5 1.8 1.7.6.2 1.2.2 1.8 0 1.5-.5 2.2-2.1 1.7-3.6-3.1-8.7-9.3-14.8-18.3-18.3"/></g></g><g fill="#0068b3"><path d="m437.4 124.7 197.3 93.5.6-1.4-197.3-93.5"/><path d="m318.4 158c-4-1.4-8.4.8-9.8 4.8s.8 8.4 4.8 9.8 8.4-.8 9.8-4.8-.8-8.4-4.8-9.8z"/><path d="m178.8 103.3c-1.5-.5-3.1.3-3.6 1.8s.3 3.1 1.8 3.6 3.1-.3 3.6-1.8c.5-1.4-.3-3-1.8-3.6z"/><path d="m267.8 157.1c-3.5-1.2-7.3.7-8.5 4.2s.7 7.3 4.2 8.5 7.3-.7 8.5-4.2-.7-7.3-4.2-8.5z"/><path d="m317.6 165.2-51.8-2.4-243.8-162.3-.8 1.2 244.2 162.4 52.1 2.5z"/><path d="m265.2 163.4-15.6 21.2 1.1.8 15.6-21.2"/><path d="m251.2 181.2c-2.4-.8-5.1.5-6 2.9-.8 2.4.5 5.1 2.9 6 2.4.8 5.1-.5 6-2.9.9-2.5-.4-5.2-2.9-6z"/><path d="m178.2 105.5-170.2 66.1.5 1.4 170.2-66.1"/><path d="m318.1 166.6 169.4-58.8-.5-1.4-169.4 58.8"/><path d="m45 158.1-13.1-22.9-1.2.7 13.1 22.8"/><path d="m34.3 138.1c1.8-1.9 1.7-4.9-.2-6.6-1.9-1.8-4.9-1.7-6.6.2-1.8 1.9-1.7 4.9.2 6.6 1.9 1.8 4.9 1.7 6.6-.2z"/><path d="m10.7 165c-4-1.4-8.4.8-9.8 4.8s.8 8.4 4.8 9.8 8.4-.8 9.8-4.8c1.3-4-.8-8.4-4.8-9.8z"/><path d="m489.1 102c-2.4-.8-5.1.5-6 2.9-.8 2.4.5 5.1 2.9 6 2.4.8 5.1-.5 6-2.9.8-2.5-.5-5.2-2.9-6z"/><path d="m637.8 211.3c-4-1.4-8.4.8-9.8 4.8s.8 8.4 4.8 9.8 8.4-.8 9.8-4.8-.7-8.4-4.8-9.8z"/><path d="m1119.8 162.1c3.8-2 8.4-.6 10.4 3.2s.6 8.4-3.2 10.4-8.4.6-10.4-3.2c-2-3.7-.5-8.4 3.2-10.4z"/><path d="m982.2 201.1 179.2-40.4.3 1.3-179.2 40.5"/><path d="m1121.3 170.5-80.8-36.1.6-1.3 80.8 36"/><path d="m1039 129.3c2.3-1.2 5.1-.3 6.4 1.9 1.2 2.3.3 5.1-1.9 6.3-2.3 1.2-5.1.3-6.3-1.9-1.3-2.2-.5-5.1 1.8-6.3z"/><path d="m978.8 195.9c3.3-1.7 7.3-.5 9.1 2.8s.5 7.3-2.8 9.1c-3.3 1.7-7.3.5-9.1-2.8-1.7-3.3-.4-7.4 2.8-9.1z"/></g><path d="m396.6 226.2.3-1.4c-1.9.7-4.1.6-5.9-.2l-.1 1.1-2.9 10 1.1 6.4 2.2 3s1.6.4 1.8-1.2c.3-1.6 1.2-9.1 1.2-9.1s1.1-.4 1.3 1c.1 1.4.7 3.6 2.4 3.6l-.2-6.8z" fill="#be8c70"/><path d="m439.5 217.5c-.1 0-37.3.2-37.5.1l-.5 19.6 1.6 33.1 4.2 47.7h8.1l1.6-46.8 2.5-34.8 1.8-.1 3.7 33.7 7.2 48h7.8l-.7-48.2.8-34.4z" fill="#3a8835"/><path d="m401.8 225.2h38.4v92.9h-38.4z" fill="#367d31"/><path d="m415.5 318.1h-3.5c.2-5.3.2-10.6.2-15.9-.1-11.4.6-22.8 1.4-34.2.6-8.7 6-31.5 6-31.5l-2.5 34.8z" fill="#367d31"/><path d="m439.3 213.1-1-9.4-.5-4.2zm-1.5-13.6v-.8z" fill="#c7d7df"/><path d="m432.2 318.1-5.2 3.6c-4.7.5-5 5.5-5 5.5h19.6c.4-4.7-1-7.5-1.5-9.1z" fill="#e6ebee"/><path d="m427.1 327.2h4.3c.1-.4.3-.7.7-1.1 2.4-2.6 5.5-4.3 8.9-5.5-.1-.5 0-.1-.1-.5-5.4.9-10.4 2.1-13.8 7.1" fill="#ee7552"/><path d="m407.4 318.1-9.5 3.6c-4.7.5-5 5.5-5 5.5h23.6c.5-4.7-.4-7.6-.9-9.1z" fill="#e6ebee"/><path d="m400.8 327.2h4.9c.2-.3.3-.6.6-.8 2.7-2.6 5.9-4.5 9.4-5.7-5.6 1-11.4 2.6-14.9 6.5" fill="#ee7552"/><path d="m422 327.2h19.6c.1-.7.1-1.4.1-2h-19.2c-.4 1.1-.5 2-.5 2" fill="#2e5a71"/><path d="m393.3 325.2c-.4 1.1-.5 2-.5 2h23.6c.1-.7.1-1.4.1-2h-22.7c-.2 0-.3 0-.5 0" fill="#2e5a71"/><path d="m438.2 188.1.3-10.6 1.6 10.6zm14.4 4.3-5.6-31.6c-.5-1.2-2.2-4.6-6.9-5.8l-18.6-6.7v-.1-.1h-.1l-.2.1-.2-.1h-.1v.1.1l-18.6 6.7c-4.8 1.2-6.5 4.6-6.9 5.8l-2 33.9-2.9 31.6 6.7 1.3 5-28.9s.8-14.8.7-17.4l.4 18.1-1 13.7-.3 12.2c12.7-.2 25.3-.1 38-.1l-.5-12.1-1.5-13.6v-.8l10.3 1.4c2.8.3 5.2-2 5.1-4.7z" fill="#182e38"/><path d="m448.6 200.1c-.2 0-.3 0-.5 0l-10.3-1.4 10.3 1.4zm-45.5-1c-.5 0-.8-.1-.8-.1l.6-11z" fill="#beced5"/><path d="m438.2 203.7-.5-4.2zm-.4-4.2v-.8z" fill="#abb9c0"/><path d="m438.2 203.7-3.7-2c-5.9-2.7-13.2-5.4-19.9-5.4-.4 0-.7 0-1.1 0-1.2.1-.8 1-1 1.9-.2.8-.9 1.4-1.8 1.4h-.1c-2.9-.1-6-.4-7.5-.5l-.2-11.1v-.1c5.8-.3 11.6-.9 17.4-.9 1.1 0 2.3 0 3.4.1.9 0 1.8.1 2.8.1 2.7 0 5.4-.3 7.7-1.8 2.4-1.6 4-5.2 4.4-7.9-.1 1.4-.3 10.6-.3 10.6l-13.7 1.1-4.4.1s-3.1 5.4-.2 5.7c3.6.5 13.1 1.4 20.3 1.4 4.3 0 7.8-.4 8.6-1.4 2-2.5 1-6.5.5-9.2-1.1-5.8-1.4-11.5-2.4-17.2-.1-.7-.9-7.9-3.3-12.1 2.2 1.5 3.2 3.5 3.5 4.3l5.6 31.6.6 3v.5c-.1 2.3-2.1 4.2-4.6 4.2-.2 0-.3 0-.5 0l-10.3-1.4v.8z" fill="#152831"/><path d="m406.1 181.1h-23.3c-1.2 0-1.6.4-1.6 1.4l2.9 15.1c0 1 .8 1.4 1.8 1.4h23.1c1 0 1.8-.4 1.8-1.4l-2.9-14.8c0-1-.8-1.7-1.8-1.7" fill="#9abccc"/><path d="m416.5 187.4-6.3-2.4h-1.9l1.6 8.8 3.3 1c1.4.3 2.9.3 4.1-.4l2.5.5-.5-5.5z" fill="#be8c70"/><path d="m400.7 187.5 1.2 3.9c.4 1 1.2 1.8 2.3 2.1l6.6 1.8 4.7-.3s.7-.2 1.4-.4l3.1.4.8-5.8-8.7-2.4z" fill="#be8c70"/><path d="m407.1 127.3 1.3 11.5c.6 5.2 5.3 8.9 10.6 8.2 5.4-.6 9.3-10.7 9.3-14.3l-.8-7.8z" fill="#be8c70"/><path d="m414.6 139.9-.4 12c.5 2 3.3 6.5 4.4 8.8h1.3c1.8-2.6 6.4-8.2 6.5-9.6l-1.1-12z" fill="#be8c70"/><path d="m414.3 149.8.1-2z" fill="#c7d7df"/><path d="m425.4 140.8v-1z" fill="#ab7e65"/><path d="m416.8 150.5c-.9 0-1.8-.2-2.5-.7l.1-2c.1 0 .2-.1.4-.1.4.1 1.1.3 2 .3 1.7 0 4-.6 5.9-3.1 0 0-2.3 2.1-5.7 2.1-.1 0-.2 0-.3 0 3.5-1.5 7.3-3.8 8.7-7.1l.1 1 .3 3.9c-.6 1.4-1.6 2.7-2.9 3.7-1.4.9-3.9 2-6.1 2" fill="#ab7e65"/><path d="m417 117.4-12.5 2.3c-2.1 6.5 2.6 7.6 2.6 7.6l12.3-1.5c3.2-.4 3.3 2.6 3.3 2.6l.6 3.2 1.6-.2s.4-1.4 1.2-1.5c.6-.1 1.2-.1 1.4 1.8.6 5.2-2 5-2 5l-.3 3.9.5 1.6c2.8-5.9 3.1-10.2 3.1-10.2l-.9-7.3c-1-8.2-10.9-7.3-10.9-7.3" fill="#312b2b"/><path d="m414.4 147.5c-.1 0-.1 0 0 0l-.2-1.1c.1 0 .1 0 .2.1z" fill="#c7d7df"/><path d="m414.7 147.7c-.2 0-.3-.1-.4-.1v-1c.8.2 1.6.3 2.3.4-.6.2-1.3.4-1.9.7" fill="#ab7e65"/><path d="m416.7 147.9c-.9 0-1.6-.1-2-.3.6-.2 1.3-.5 1.9-.8h.3c3.5 0 5.7-2.1 5.7-2.1-1.9 2.6-4.2 3.2-5.9 3.2" fill="#9a715b"/><path d="m424.7 130-1.5.2c.7 10.9-3.6 11.2-8.9 11.8-5.9.7-5.9-4.3-5.9-4.3s0 12 7.1 11.6c10.9-.6 10.1-12.3 10.1-12.3z" fill="#312b2b"/><path d="m418.8 142c-.2-1.9-1.9-3.2-3.8-3l-2.5.3c-1.9.2-3.3 1.9-3 3.8l.1.9c.2 1.9 1.9 3.2 3.8 3l2.5-.3c1.9-.2 3.3-1.9 3-3.8z" fill="#312b2b"/><path d="m411.4 142.6c.2 1.6 1.3 1.4 2.7 1.2s2.5-.2 2.3-1.8z" fill="#be8c70"/><path d="m398.9 187.4c-.5 0-.9.5-.9 1 .1.4.4.8.9.8l10.3.2-.2-2.8z" fill="#be8c70"/><path d="m414.3 149.2-.6-.1-2.3 2c0 2.8 1.8 7.3 1.8 7.3l3.7-4.6c-3.2-1.8-2.6-4.6-2.6-4.6" fill="#f8f9fa"/><path d="m414.6 156.6c.4 3.8 4.1 4.1 4.1 4.1l-1.8-6.9z" fill="#d5dde2"/><path d="m422.6 153.5 3.4 3.9s1.6-2.7 2.7-6.1l-2.6-3.1c0 .1-.9 4-3.5 5.3" fill="#f8f9fa"/><path d="m419.9 160.7s2.6-.8 3.4-1.5c2-1.9 1.9-2.7 1.9-2.7l-2.6-2.9z" fill="#d5dde2"/><path d="m138.8 314-11-42.9 1.7-.7 11 43.3z" fill="#adb4bb"/><path d="m97.5 314-1.6-.3 6.6-46.3 1.7.3z" fill="#adb4bb"/><path d="m147.8 314-11.3-42.9 1.6-.7 11.4 43.3z" fill="#adb4bb"/><path d="m106.5 314-1.7-.3 6.4-46.3 1.6.3z" fill="#adb4bb"/><path d="m95.5 266.1c0 .3 6 5 16.3 7s36-2 40.6-5.3c4.7-3.3 0-20.6-3.7-23.6s-6.7-1.7-10.7-8c-3.7-6.3-27.6-11-35-7-7.1 3.9-17.1 18.6-7.5 36.9" fill="#147abf"/><path d="m109.2 303.4s.3-4 .3-7 8-5.7 8-5.7.7 12 1.3 14.3l.7 2.3c0 .1-8.3 3.7-10.3-3.9" fill="#e8eae9"/><path d="m109.2 302s.7 2.7 3.3 3.7c2.7.7 5.7-2.3 6-3 0 0 .7 4.7 3 6.3 2.3 1.7 5.7 5.7 5.7 5.7s-2.3 2.7-6.3 2.3c-4-.3-9.7-4-10.7-5.7-1-1.6-2.7-3.3-1-9.3" fill="#364b5e"/><path d="m142.5 313.3-.7 1v1.3l4 1v-.7s2-.3 3.7 1 3.3 2.7 5.7 2.7c2 0 4.7-.3 5-1.7.6-.9-12.1-4.6-17.7-4.6" fill="#425b6b"/><path d="m142.1 314.3s-1-5 1-7.3c0 0-.3 1 .7 1.3.7.3 2.3-.7 5-2s5 0 5 0 2.7 4.7 3.7 5.7c1.3 1 7.3 3.7 9 3.7s.3 4.7-3.7 4.3c-4-.3-9.7-1.3-12-3.3-2.7-2-8.7-2.4-8.7-2.4" fill="#364b5e"/><path d="m166.8 273.1-6.7 44.6c0 1 0 2.3 1 3 .7 1 1.7 1.3 3 1.3h54.9c1.3 0 2.7-.7 3.3-2 .7-1.3.7-2.7 0-3.7l-25-42.6zm51.9 50.6h-54.9c-1.7 0-3-.7-4-2-1-1-1.3-2.7-1.3-4.3l7-45.9 32.2.6 25.3 43.3c1 1.7 1 3.7 0 5.3-.6 2-2.3 3-4.3 3z" fill="#cfd6e0"/><path d="m98.2 222.5c2.2 0 4 2.7 4 6s-1.8 6-4 6-4-2.7-4-6c0-3.4 1.8-6 4-6" fill="#364b5e"/><path d="m96.9 263.1s5.3 7.3 8.7 8c0 0-2 5.3 0 12.7 2 7.3 4 14.6 4 14.6s2.7-.3 4.7-.7c2-.3 5.3-2 5.3-4.3v-12.3c0-4-.3-6.3.3-8 .7-1.3-.3-2.7 2.7-3.3 3-.7 13.3-.7 13.3-.7l14.6 2s-3 19-3.3 21c0 0 1.3-.3 3.7 1 2.3 1.3 6 2.3 6 2.3s5.3-11 6.3-14.3 5-13.6 5.7-17c1-3.3 1-9-5-11.3s-11.7-2.3-11.7-2.3l-47.9-2.7z" fill="#2b3f4f"/><path d="m112.2 202.5s1 3 1.3 4 1.7 8 1.7 8l8 1.7 2.3-5.3s1.3-.7 1.7-3.7c.3-3 .3-5.7.3-8s-.7-6-.7-6-.7-3.3-1.7-4.7-14 1.7-14.6 4.3c-.7 2.7 1.3 8.7 1.7 9.7" fill="#f9bf8e"/><path d="m114.5 211.5c-.3-2-.7-4-1-4.7s-.7-2.3-1-3.3c.3.7.3 1.3.7 2.3.3 1.7 1 3.7 1.3 5.7" fill="#f9bf8e"/><path d="m123.2 216.1 2-4.7s-2.3 1.7-5.3.7-6.3-5-6.3-5 3.6 6.7 9.6 9" fill="#f8b74c"/><path d="m119.8 213.5h1l6.7-.7 10.3 36s-7.3 7.3-14 7.7c-6.7.3-17.6-3.7-19.6-4.7-1.7-1 8-39.3 8-39.3z" fill="#8dd3f3"/><path d="m120.8 217.5 1 1s.7 2.3 1 3c0 .7 5.7 39.3 5.7 39.3l-3.3 4.7-4.3-3.7s-3.3-34-2.7-37c.3-3 1.3-6 1.3-6z" fill="#e8eae9"/><path d="m118.5 214.1 1.3-.3h1l2.3 1s-1.3 2.7-1 4c-1-.3-1.7-.3-2.7.3 0 0-.7-3-1.7-3.7-1.2-.6.8-1.3.8-1.3" fill="#e8eae9"/><path d="m111.5 201.8s-2 .3-5 1-9.3 1.3-9.3 1.3 1.7 2.7 1.3 6.7c0 4.3 2.3 8 2.3 10.7s-4.3 27-7 32.3-4.3 7.7-4.7 12.3c-.7 4.7-2 11.7 0 13s4.7-5 8.3-10.3 14-25.3 15-31c1.1-6-.9-36-.9-36" fill="#364b5e"/><path d="m103.2 239.4 2 1s2.3.7 1.3-7.3c0 0-2 .7-2.7 1.3-.6.7-.6 5-.6 5" fill="#adb4bb"/><path d="m114.8 214.5v5.3c0 3.7-2.7 18-2.7 18s.3-7.7-.7-10c-.7-2.3-4.7-11.7-4.7-11.7l2.7-1.7-2-1.3 3.7-11s.3 0 .3.3v.3s1 3 1.3 4c.8.8 2.1 6.4 2.1 7.8" fill="#425b6b"/><path d="m114.8 219.5v.3c0 3.7-2.7 18-2.7 18s.3-7.7-.7-10c-.7-2.3-4.7-11.7-4.7-11.7l2.7-1.7-2-1.3 3.7-11c.3.3.7.7.7 1.3.3.7.3 1.3.7 2.3.7 2 1 3.7 1.3 5.7 1 2.7 1 5.4 1 8.1" fill="#425b6b"/><path d="m104.5 234.1s2.7.3 2.7 0c0-.7.3-1 1-1.7.7-.3 1.3-.3 2-.3 1 0 3 0 3.3.7.7.7 0 1.7-1 1.3-1 0-1.7 0-2 .3l-.3.3s2.3.7 3.3.3c1-.3 3-.3 4-.3 1 .3 2 .7 1.7 1.3 0 0 .7.3.3 1-.3.7-2 1.3-4 1.3-2.3 0-5.7.7-7.7.3-2 0-5-.7-7.7-1h-2.7z" fill="#f9bf8e"/><path d="m113.5 200.8c.7 1.7.7 3.3 0 3.7-1 .3-2-.7-3-2.3-.7-1.7-.7-3.3 0-3.7 1-.4 2 .6 3 2.3" fill="#f9bf8e"/><path d="m151.8 231.8c0 2.3-.7 4-.7 4l-5 .7s-.3-6.7-6.3-8c-.3-2.3-.7-4.3-.7-5.7 0-5.3 4.3-16.3 4.3-16.3s2 1.3 1.7 3.7c-.3 2.3 1.3 3.3 1.3 4.7 0 1.3-.3 1.7 0 3 .7.9 5.7 11.5 5.4 13.9" fill="#425b6b"/><path d="m151.8 250.4s-6 .7-8.3 1c-2.7.3-4 .3-5-.7-1.3-1-7-12.7-7-12.7s-2-9.3-2.3-18c0-5.7-1.3-12-2-15.6v-3c1.3.3 5 1.3 7.7 2 3.3 1 9 2.3 9 2.3s-4.3 11-4.3 16.3 3.3 23.6 4.7 25c1.5 2.1 7.5 3.4 7.5 3.4" fill="#364b5e"/><path d="m139.5 235.8s-2.3-.3-1.3-7.7c0 0 1.3-.7 3 .3s3 4 2.3 5.3c-.7 1.4-3.4 2.1-4 2.1" fill="#cfd6e0"/><path d="m135.5 246.8c-.3-.3-4.7-6-6.7-13.3-1.3-5-2.3-15.6-3-22.6.3-.7.7-1.3 1-3 0-1.3.3-2.3.3-3.7l4.7 8.3-1 2 3 .3s-1.7 13.3-1.3 17c.3 3.3 3 14.3 3 15" fill="#425b6b"/><path d="m139.5 227.8-1.3.3s-1.7 0-2.7-.3-3-1.3-4-.7c-1 .3-3 4-3 4l8 4.3s1-.3 1.3-.7c.3-.3 2 .7 4.3 0l2.7-.3s-1.3-3.3-2-4.7c-.7-1.3-2.3-1.6-3.3-1.9" fill="#f9bf8e"/><path d="m178.1 189.5 2.7 2v.7l-5.7 14.6s-1.7-2-3-2.3-3.7 2-5.3 1.7c-1.7-.3-2.3-1-2.7-1.7-.3-1-3-1-1.7-2.3 0 0-1 .3-1-.7s-1-1.3-1-1.3-3 .7-2.7-1 1-3.7 1-3.7-.3-.3-1-.7c-.7-.3-3.3-3.7-3-6.7s12-6.3 16.6-6c4.5.7 6.8 7.4 6.8 7.4" fill="#f9bf8e"/><path d="m165.4 290s3.3 8 6.3 9.7 4 3.3 4 3.3l-13 5.7s0-4.7-1.7-8c-1.7-3.7-5.7-7.3-5.7-7.3z" fill="#e8eae9"/><path d="m163.4 312s-4 2.3-6.7 3-5.7 1.7-5.7 3.7 3.3 3 6.7 3c3.3 0 9-1 10.7-3s4.3-4 4.3-4l1.3 1.3s6.7-3.3 7.3-5.3c1-2 .3-2 .3-2l-1.7-2.3z" fill="#364b5e"/><path d="m162.1 306.4s2-2 5.7-2 7-2.7 7-2.7 2.7.7 5.3 4.3c0 0-4.3 2-7 4-2.7 2.3-4 3.3-6.3 4-2.7 1-14 1.3-15.6 4.7 0 0-.3-1.3 2.7-2.7 3-1.7 6.3-2.7 7-4.3.9-2.3 1.2-5.3 1.2-5.3" fill="#425b6b"/><path d="m152.8 258.1s-13.3 1.7-16 3.7-3 6-2.3 8.3c.7 2 22.3 27.3 24.3 28.3 0 0 1.7-2.3 4.3-4 2.7-1.7 3.3-4 3.3-4s-9-10.7-11.7-14.3c-2.7-3.7-3.7-4-3.7-4l13.3-7z" fill="#364b5e"/><path d="m162.4 272.7-6.3 41.6c0 1 0 2 .7 2.7s1.7 1.3 2.7 1.3h51.2c1.3 0 2.3-.7 3-1.7s.7-2.3 0-3.7l-23.3-39.6zm48.3 47h-51.3c-1.3 0-2.7-.7-3.7-1.7s-1.3-2.7-1-4l6.3-42.9 30.3.7 23.6 40.3c1 1.7 1 3.3 0 5-.8 1.6-2.5 2.6-4.2 2.6z" fill="#adb4bb"/><path d="m127.5 297s.7 2 4.7 2.7c3.7.7 8.3 3.3 8.3 3.3s9.7-18.3 10.7-22 1.7-9 1.7-9 11-1.3 22-.7c11 .7 26.6-5.7 28.3-9.3 1.7-3.7 2.7-11.7 2.7-11.7l-34.6 2.7s-1.3 2.3-4.3 2.7c-3.3.3-16.6.7-19.6 2-3 1-6 1.3-7.3 7-1.6 5.7-7.6 20.7-12.6 32.3" fill="#425b6b"/><path d="m180.8 192.2s-6 5.7-7.3 14.6l5.3 4.3 6.3-14.3z" fill="#cfd6e0"/><path d="m205.4 242.8-4 19s-30.6-2-32.6-5.7.7-19.3 1.7-23c1-3.3 4.3-11.7 6.3-20.6 2-9 8.3-16.3 8.3-16.3l2 .3s5.7 3 7.7 4.3 6.7 7 7.7 9.7c.2 3 2.9 32.3 2.9 32.3" fill="#364b5e"/><path d="m183.4 193.8s-2.3 1.3-4.3 8.3c-2.3 7-4 15.3-5 18.3s-3.7 12.7-3.7 12.7 4.7-11.7 6-16.3c1-4.7 3.3-15.6 10.7-20.3z" fill="#425b6b"/><path d="m157.1 272.7s4.3-3.7 7.3-7.7 12-15.6 20.3-19c8.3-3.3 31-8 31-8s-3.7 14.7-4.3 20.6c-.7 6-4.7 16.3-16.6 17.3-12 .8-37.7-3.2-37.7-3.2" fill="#147abf"/><path d="m180.8 191.5c-1 1-5 1.7-6 .3-1-1.7-4.3-2.7-5.7-1.3-1.3 1.7-.3 4-.3 4l-1.7.7s-.3-1-1-1.7c-.7-1-3-1.3-3-2.7s-1.3-3.7-3.3-4-4.7 1-4.7 1-2.3-.7-1.7-2.7c.7-2 5.3-9.7 11.3-11.7 6-1.3 12.7 3 14.3 6.7 1.4 3.7 1.8 11.4 1.8 11.4" fill="#3c3c3b"/><path d="m169.8 205.1c1-.3 1.7-1 2.3-.7.3 0 .7.3 1 .3 1-4.3.3-9.3.3-9.3 0 4.1-3.6 9.7-3.6 9.7" fill="#f8b74c"/><path d="m138.1 228.1s2.7-.3 3.7 1 1 5.7-2.3 6.7h7s.7-4-1.3-6c-2.1-2-4.1-2.4-7.1-1.7" fill="#f3f3f3"/><path d="m147.1 220.5v11c-.7.3-1.3.7-1.7 1.3-1-1.7-2.3-4-5.3-4.7-.3-2.3-.7-4-.7-5.3v-2h7.7z" fill="#425b6b"/><path d="m158.5 238.8s-1.3-.3-3-.3-3 .7-4.3 0c-1-.7-1.3-1-2.3-.7-.7.3-1 .7-1.3.7s-.7.3-.7 0c-.3-.3-1-.7-1-1 0 0-.7-.7-.3-1 0 0-.3-.7-.3-1 0 0-1.3-.3-.7-1.7.7-1.3 2.3-2 3-2.7 1-.7 1.7-1 2.3-.7 1 .3 4 2 4.7 2 .7.3 9.7.3 9.7.3l-.3 6z" fill="#f9bf8e"/><path d="m162.4 231.8h-3.3s-1.3 5.3-.7 8.7l6 1z" fill="#f3f3f3"/><path d="m179.4 220.5s-1.7-9.7.7-14.3c2.3-4.7 9.3-4.7 12.3-1.7s5.3 10 5 14.3-3 8.7-3 12-1 4.7-2.3 6c-1 1.3-3 4-4.3 4.7-1.3.3-26.3 2-26 1.7s-1-8.7-.7-11.3c0 0 8.3-.3 9.7-.3 1.3.3 2 0 3-.7 1-.3 1-.7 1.7-.3.7.3 2 .3 2.7 0s1.3-1.3 1.3-1.3-1-4.3-.3-5.3.2-3.5.2-3.5" fill="#425b6b"/><path d="m126.2 213.8-2 5-3.3-5.3c3.7-1 5.3-3 5.3-3z" fill="#fff"/><path d="m119.8 213.5s-1.3 1-2 2.3-1.3 2.3-1.3 2.3l-1.7-3.3c-.3-3-.7-5.7-1.3-8.7 0 .7 3.3 6.4 6.3 7.4" fill="#fff"/><path d="m111.8 201.8h.7s-1.3-2-.7-3.3c.7-1.3-1.3-5.3 1-4.7 2.3.7 8-1.3 9.7-3s2.3-1.7 3-1 1.3 3.3 1.3 3.3-.7-2.7-1.3-4.3c-.7-1.7.7-3.3-5-5s-10.7.7-12.3 5c-1.7 4.3.3 8.7 1.7 10 .9 1 1.9 3 1.9 3" fill="#683328"/><path d="m100.2 232.8 6 .3s-2 1-2 4 .7 3 .7 3l-10-1.7c.3.4 4.6-5.6 5.3-5.6" fill="#f3f3f3"/><path d="m104.5 232.8c-3.7 1.7-5 3-5.7 7l-17-1s.3-7 .7-9 1.7-5.3 3.7-7.3c1.7-2 5.3-7 5.7-8 .3-1 1.3-2 1.7-2.7.3-.7 1-3 1.3-5 .3-2.3 2.3-2.7 2.3-2.7s1.7 2.7 1.3 6.7c0 4.3 2.3 8 2.3 10.7 0 .7-.3 2-.3 4l-2.7 6 1 .3z" fill="#425b6b"/><path d="m111.2 244.1h5.3v67.9h-5.3z" fill="#683328"/><path d="m161.5 243.4h-94.9c-1.3 0-2.3-1-2.3-2.3s1-2.3 2.3-2.3h94.9c1.3 0 2.3 1 2.3 2.3s-1 2.3-2.3 2.3" fill="#683328"/><path d="m161.5 243.4c-31 2.3-62.6 2-94.9 0z" fill="#683328"/><path d="m141.8 316.3h-55.9c0-2.3 2-4.3 4.3-4.3h47.3c2.3 0 4.3 2 4.3 4.3" fill="#683328"/><path d="m136.5 313-6.7 2.3-4.7-6s2.7-2.7 4-5.3c.7-1.3 1.7-3 2.3-4.3h.3c3 .7 6.7 2.3 7.7 3.3-.9 1.7-3.3 6.7-2.9 10" fill="#e8eae9"/><path d="m109.5 317.7h-2.3s-1 1.3-.7 1.7c.3.3 7.3 3 12 4 4.3 1 10.3-.7 11.3-1.7v1.7h6.7c1 0 1.7-.7 1.7-1.7v-2.3l-2.3-1.7z" fill="#364b5e"/><path d="m125.5 308.7s1.7 0 2.7 1.7 2.7 2.7 4 3 4.3-1 4.7-2c0 0 1.3 5.7 1 8 0 0-5.3 0-9 1.7-4 1.3-5.3 2.3-9.7 1.3-4.3-1-11.3-3.7-12-4.7 0 0 3-.3 6-.7 3-.3 6-3.7 8-5.3 2-2 4.3-3 4.3-3" fill="#425b6b"/><path d="m137.8 220.5h-31.6c-1 0-1.7.7-1.7 1.7l2.3 16.6h30l2.3-16.6c.4-.7-.6-1.7-1.3-1.7" fill="#cfd6e0"/><path d="m122.2 228.8c.9 0 1.7.4 1.7 1s-.7 1-1.7 1c-.9 0-1.7-.4-1.7-1s.7-1 1.7-1" fill="#adb4bb"/></g></g></svg>