<?xml version="1.0" encoding="UTF-8"?>
<svg width="1200px" height="400px" viewBox="0 0 1200 400" version="1.1" xmlns="http://www.w3.org/2000/svg" xmlns:xlink="http://www.w3.org/1999/xlink">
    <!-- Generator: Sketch 53.2 (72643) - https://sketchapp.com -->
    <title>da-04-kennis-verzamelen-verbeteren</title>
    <desc>Created with Sketch.</desc>
    <defs>
        <polyline id="path-1" points="0.664 241.679 0.664 425.679 1239.664 425.679 1239.664 241.679 0.664 241.679"></polyline>
        <filter x="-3.6%" y="-28.3%" width="108.7%" height="158.7%" filterUnits="objectBoundingBox" id="filter-2">
            <feMorphology radius="7" operator="dilate" in="SourceAlpha" result="shadowSpreadOuter1"></feMorphology>
            <feOffset dx="9" dy="2" in="shadowSpreadOuter1" result="shadowOffsetOuter1"></feOffset>
            <feGaussianBlur stdDeviation="9.5" in="shadowOffsetOuter1" result="shadowBlurOuter1"></feGaussianBlur>
            <feColorMatrix values="0 0 0 0 0.628368433   0 0 0 0 0.628368433   0 0 0 0 0.628368433  0 0 0 0.5 0" type="matrix" in="shadowBlurOuter1"></feColorMatrix>
        </filter>
    </defs>
    <g id="da-04-kennis-verzamelen-verbeteren" stroke="none" stroke-width="1" fill="none" fill-rule="evenodd">
        <g id="achtergrond-header-images">
            <g id="Group" stroke-width="1" fill-rule="evenodd" transform="translate(-17.000000, 0.000000)">
                <polyline id="Path" fill="#DDEFF8" fill-rule="nonzero" points="17 0 17 400 1217 400 1217 0 17 0"></polyline>
                <g id="Path" fill-rule="nonzero">
                    <use fill="black" fill-opacity="1" filter="url(#filter-2)" xlink:href="#path-1"></use>
                    <use fill="#BCDFF1" xlink:href="#path-1"></use>
                </g>
            </g>
            <path d="M667.789,151 L660.652,151 L662.563,125.416 L669.193,125.416 C672.599017,125.416 675.354989,126.41049 677.461,128.3995 C679.567011,130.38851 680.62,133.098983 680.62,136.531 C680.62,141.289024 679.443512,144.889988 677.0905,147.334 C674.737488,149.778012 671.637019,151 667.789,151 Z M668.764,127.912 L665.293,127.912 L663.772,148.504 L668.101,148.504 C670.831014,148.504 673.086491,147.561509 674.8675,145.6765 C676.648509,143.791491 677.539,140.89902 677.539,136.999 C677.539,134.164986 676.752508,131.942008 675.1795,130.33 C673.606492,128.717992 671.468014,127.912 668.764,127.912 Z M694.504,144.994 L695.479,134.152 C695.140998,134.074 694.751002,134.0155 694.309,133.9765 C693.866998,133.9375 693.438002,133.918 693.022,133.918 C691.565993,133.918 690.207506,134.814991 688.9465,136.609 C687.685494,138.403009 687.055,141.041983 687.055,144.526 C687.055,146.112008 687.282498,147.223497 687.7375,147.8605 C688.192502,148.497503 688.744997,148.816 689.395,148.816 C690.071003,148.816 690.857496,148.497503 691.7545,147.8605 C692.651504,147.223497 693.567995,146.268006 694.504,144.994 Z M696.142,131.89 L698.482,131.5 L696.727,151 L694.036,151 L694.348,147.88 L694.231,147.88 C693.372996,149.076006 692.463005,149.953497 691.501,150.5125 C690.538995,151.071503 689.525005,151.351 688.459,151.351 C687.184994,151.351 686.151504,150.850505 685.3585,149.8495 C684.565496,148.848495 684.169,147.139012 684.169,144.721 C684.169,140.482979 685.098491,137.233011 686.9575,134.971 C688.816509,132.708989 690.915988,131.578 693.256,131.578 C693.828003,131.578 694.347998,131.604 694.816,131.656 C695.284002,131.708 695.725998,131.785999 696.142,131.89 Z M702.226,134.152 L702.226,131.929 L704.449,131.929 L704.839,127.834 L707.608,127.405 L707.14,131.929 L711.079,131.929 L710.845,134.152 L706.906,134.152 L705.775,145.345 C705.644999,146.697007 705.729499,147.613498 706.0285,148.0945 C706.327501,148.575502 706.801997,148.816 707.452,148.816 C707.946002,148.816 708.381498,148.777 708.7585,148.699 C709.135502,148.621 709.609997,148.491001 710.182,148.309 L710.182,150.766 C709.531997,151.000001 708.966502,151.156 708.4855,151.234 C708.004498,151.312 707.374004,151.351 706.594,151.351 C705.267993,151.351 704.286503,150.909004 703.6495,150.025 C703.012497,149.140996 702.797999,147.646011 703.006,145.54 L704.176,134.152 L702.226,134.152 Z M723.52,144.994 L724.495,134.152 C724.156998,134.074 723.767002,134.0155 723.325,133.9765 C722.882998,133.9375 722.454002,133.918 722.038,133.918 C720.581993,133.918 719.223506,134.814991 717.9625,136.609 C716.701494,138.403009 716.071,141.041983 716.071,144.526 C716.071,146.112008 716.298498,147.223497 716.7535,147.8605 C717.208502,148.497503 717.760997,148.816 718.411,148.816 C719.087003,148.816 719.873496,148.497503 720.7705,147.8605 C721.667504,147.223497 722.583995,146.268006 723.52,144.994 Z M725.158,131.89 L727.498,131.5 L725.743,151 L723.052,151 L723.364,147.88 L723.247,147.88 C722.388996,149.076006 721.479005,149.953497 720.517,150.5125 C719.554995,151.071503 718.541005,151.351 717.475,151.351 C716.200994,151.351 715.167504,150.850505 714.3745,149.8495 C713.581496,148.848495 713.185,147.139012 713.185,144.721 C713.185,140.482979 714.114491,137.233011 715.9735,134.971 C717.832509,132.708989 719.931988,131.578 722.272,131.578 C722.844003,131.578 723.363998,131.604 723.832,131.656 C724.300002,131.708 724.741998,131.785999 725.158,131.89 Z M747.778,127.756 L747.505,127.756 L742.435,141.874 L750.391,141.874 L747.778,127.756 Z M750.157,125.416 L755.227,151 L751.99,151 L750.742,144.37 L741.421,144.37 L739.12,151 L736,151 L745.828,125.416 L750.157,125.416 Z M769.033,144.994 L770.008,134.152 C769.669998,134.074 769.280002,134.0155 768.838,133.9765 C768.395998,133.9375 767.967002,133.918 767.551,133.918 C766.094993,133.918 764.736506,134.814991 763.4755,136.609 C762.214494,138.403009 761.584,141.041983 761.584,144.526 C761.584,146.112008 761.811498,147.223497 762.2665,147.8605 C762.721502,148.497503 763.273997,148.816 763.924,148.816 C764.600003,148.816 765.386496,148.497503 766.2835,147.8605 C767.180504,147.223497 768.096995,146.268006 769.033,144.994 Z M770.671,131.89 L773.011,131.5 L771.256,151.195 C771.021999,153.821013 770.177007,155.705994 768.721,156.85 C767.264993,157.994006 765.56201,158.566 763.612,158.566 C762.623995,158.566 761.707504,158.527 760.8625,158.449 C760.017496,158.371 759.101005,158.241001 758.113,158.059 L758.113,155.368 C759.075005,155.628001 759.984996,155.822999 760.843,155.953 C761.701004,156.083001 762.558996,156.148 763.417,156.148 C764.899007,156.148 766.075496,155.764504 766.9465,154.9975 C767.817504,154.230496 768.343999,152.989009 768.526,151.273 L768.877,147.88 L768.76,147.88 C767.875996,149.076006 766.959505,149.953497 766.0105,150.5125 C765.061495,151.071503 764.054005,151.351 762.988,151.351 C761.713994,151.351 760.680504,150.850505 759.8875,149.8495 C759.094496,148.848495 758.698,147.139012 758.698,144.721 C758.698,140.482979 759.627491,137.233011 761.4865,134.971 C763.345509,132.708989 765.444988,131.578 767.785,131.578 C768.357003,131.578 768.876998,131.604 769.345,131.656 C769.813002,131.708 770.254998,131.785999 770.671,131.89 Z M776.482,144.292 C776.482,140.001979 777.339991,136.81051 779.056,134.7175 C780.772009,132.62449 782.61799,131.578 784.594,131.578 C786.180008,131.578 787.401996,131.967996 788.26,132.748 C789.118004,133.528004 789.547,134.606993 789.547,135.985 C789.547,138.169011 788.624009,139.949993 786.778,141.328 C784.931991,142.706007 782.436016,143.395 779.29,143.395 C779.29,145.527011 779.627997,146.963496 780.304,147.7045 C780.980003,148.445504 781.941994,148.816 783.19,148.816 C784.074004,148.816 784.925496,148.699001 785.7445,148.465 C786.563504,148.230999 787.388996,147.893002 788.221,147.451 L788.221,149.986 C787.310995,150.480002 786.414004,150.830999 785.53,151.039 C784.645996,151.247001 783.606006,151.351 782.41,151.351 C780.511991,151.351 779.049505,150.792006 778.0225,149.674 C776.995495,148.555994 776.482,146.762012 776.482,144.292 Z M786.661,136.336 C786.661,135.555996 786.453002,134.971002 786.037,134.581 C785.620998,134.190998 785.036004,133.996 784.282,133.996 C783.319995,133.996 782.345005,134.587494 781.357,135.7705 C780.368995,136.953506 779.745001,138.766988 779.485,141.211 C781.773011,141.211 783.540994,140.736505 784.789,139.7875 C786.037006,138.838495 786.661,137.688007 786.661,136.336 Z M802.261,151 L803.47,138.403 C803.626001,136.842992 803.515502,135.764003 803.1385,135.166 C802.761498,134.567997 802.248003,134.269 801.598,134.269 C801.025997,134.269 800.291504,134.515998 799.3945,135.01 C798.497496,135.504002 797.451006,136.270995 796.255,137.311 L795.007,151 L792.238,151 L793.954,132.085 L796.723,131.734 L796.45,134.659 L796.567,134.659 C797.685006,133.540994 798.711995,132.748002 799.648,132.28 C800.584005,131.811998 801.493996,131.578 802.378,131.578 C803.730007,131.578 804.769996,132.065495 805.498,133.0405 C806.226004,134.015505 806.486001,135.659988 806.278,137.974 L805.03,151 L802.261,151 Z M820.552,144.994 L821.566,134.152 C821.227998,134.074 820.831502,134.0155 820.3765,133.9765 C819.921498,133.9375 819.486002,133.918 819.07,133.918 C817.613993,133.918 816.255506,134.814991 814.9945,136.609 C813.733494,138.403009 813.103,141.041983 813.103,144.526 C813.103,146.112008 813.330498,147.223497 813.7855,147.8605 C814.240502,148.497503 814.792997,148.816 815.443,148.816 C816.119003,148.816 816.905496,148.497503 817.8025,147.8605 C818.699504,147.223497 819.615995,146.268006 820.552,144.994 Z M825.271,123.661 L822.775,151 L820.084,151 L820.396,147.88 L820.279,147.88 C819.394996,149.076006 818.478505,149.953497 817.5295,150.5125 C816.580495,151.071503 815.573005,151.351 814.507,151.351 C813.232994,151.351 812.199504,150.850505 811.4065,149.8495 C810.613496,148.848495 810.217,147.139012 810.217,144.721 C810.217,140.482979 811.146491,137.233011 813.0055,134.971 C814.864509,132.708989 816.963988,131.578 819.304,131.578 C819.798002,131.578 820.246498,131.5975 820.6495,131.6365 C821.052502,131.6755 821.422998,131.734 821.761,131.812 L822.463,124.012 L825.271,123.661 Z M838.492,144.994 L839.467,134.152 C839.128998,134.074 838.739002,134.0155 838.297,133.9765 C837.854998,133.9375 837.426002,133.918 837.01,133.918 C835.553993,133.918 834.195506,134.814991 832.9345,136.609 C831.673494,138.403009 831.043,141.041983 831.043,144.526 C831.043,146.112008 831.270498,147.223497 831.7255,147.8605 C832.180502,148.497503 832.732997,148.816 833.383,148.816 C834.059003,148.816 834.845496,148.497503 835.7425,147.8605 C836.639504,147.223497 837.555995,146.268006 838.492,144.994 Z M840.13,131.89 L842.47,131.5 L840.715,151 L838.024,151 L838.336,147.88 L838.219,147.88 C837.360996,149.076006 836.451005,149.953497 835.489,150.5125 C834.526995,151.071503 833.513005,151.351 832.447,151.351 C831.172994,151.351 830.139504,150.850505 829.3465,149.8495 C828.553496,148.848495 828.157,147.139012 828.157,144.721 C828.157,140.482979 829.086491,137.233011 830.9455,134.971 C832.804509,132.708989 834.903988,131.578 837.244,131.578 C837.816003,131.578 838.335998,131.604 838.804,131.656 C839.272002,131.708 839.713998,131.785999 840.13,131.89 Z M865.285,125.065 C867.911013,125.065 870.055992,126.05949 871.72,128.0485 C873.384008,130.03751 874.216,132.773983 874.216,136.258 C874.216,141.120024 873.026512,144.850987 870.6475,147.451 C868.268488,150.051013 865.532015,151.351 862.438,151.351 C859.785987,151.351 857.634508,150.480009 855.9835,148.738 C854.332492,146.995991 853.507,144.344018 853.507,140.782 C853.507,135.685975 854.637989,131.792513 856.9,129.1015 C859.162011,126.410487 861.956983,125.065 865.285,125.065 Z M864.778,127.756 C862.593989,127.756 860.689508,128.821989 859.0645,130.954 C857.439492,133.086011 856.627,136.16698 856.627,140.197 C856.627,143.317016 857.211994,145.513994 858.382,146.788 C859.552006,148.062006 861.072991,148.699 862.945,148.699 C864.97301,148.699 866.838491,147.71751 868.5415,145.7545 C870.244509,143.79149 871.096,140.84702 871.096,136.921 C871.096,133.670984 870.511006,131.331007 869.341,129.901 C868.170994,128.470993 866.650009,127.756 864.778,127.756 Z M880.69,151 L877.375,131.929 L880.339,131.929 L882.874,148.465 L883.03,148.465 L884.083,146.32 C885.045005,144.36999 885.863997,142.270511 886.54,140.0215 C887.216003,137.772489 887.800998,135.075016 888.295,131.929 L891.181,131.929 C890.686998,134.945015 890.024004,137.661988 889.192,140.08 C888.359996,142.498012 887.359006,144.811989 886.189,147.022 L884.083,151 L880.69,151 Z M892.663,144.292 C892.663,140.001979 893.520991,136.81051 895.237,134.7175 C896.953009,132.62449 898.79899,131.578 900.775,131.578 C902.361008,131.578 903.582996,131.967996 904.441,132.748 C905.299004,133.528004 905.728,134.606993 905.728,135.985 C905.728,138.169011 904.805009,139.949993 902.959,141.328 C901.112991,142.706007 898.617016,143.395 895.471,143.395 C895.471,145.527011 895.808997,146.963496 896.485,147.7045 C897.161003,148.445504 898.122994,148.816 899.371,148.816 C900.255004,148.816 901.106496,148.699001 901.9255,148.465 C902.744504,148.230999 903.569996,147.893002 904.402,147.451 L904.402,149.986 C903.491995,150.480002 902.595004,150.830999 901.711,151.039 C900.826996,151.247001 899.787006,151.351 898.591,151.351 C896.692991,151.351 895.230505,150.792006 894.2035,149.674 C893.176495,148.555994 892.663,146.762012 892.663,144.292 Z M902.842,136.336 C902.842,135.555996 902.634002,134.971002 902.218,134.581 C901.801998,134.190998 901.217004,133.996 900.463,133.996 C899.500995,133.996 898.526005,134.587494 897.538,135.7705 C896.549995,136.953506 895.926001,138.766988 895.666,141.211 C897.954011,141.211 899.721994,140.736505 900.97,139.7875 C902.218006,138.838495 902.842,137.688007 902.842,136.336 Z M918.442,131.851 L918.091,134.581 C917.882999,134.555 917.701001,134.5355 917.545,134.5225 C917.388999,134.5095 917.194001,134.503 916.96,134.503 C916.231996,134.503 915.465004,134.840997 914.659,135.517 C913.852996,136.193003 913.086004,137.128994 912.358,138.325 L911.266,151 L908.497,151 L910.096,132.085 L912.865,131.734 L912.514,135.322 L912.67,135.322 C913.554004,133.761992 914.327497,132.748002 914.9905,132.28 C915.653503,131.811998 916.374996,131.578 917.155,131.578 C917.389001,131.578 917.616499,131.5975 917.8375,131.6365 C918.058501,131.6755 918.259999,131.746999 918.442,131.851 Z M929.596,151 L930.805,138.403 C930.935001,136.842992 930.824502,135.764003 930.4735,135.166 C930.122498,134.567997 929.622003,134.269 928.972,134.269 C928.373997,134.269 927.620005,134.515998 926.71,135.01 C925.799995,135.504002 924.760006,136.270995 923.59,137.311 L922.342,151 L919.573,151 L922.03,124.012 L924.838,123.661 L923.785,134.659 L923.902,134.659 C925.020006,133.566995 926.046995,132.780502 926.983,132.2995 C927.919005,131.818498 928.828996,131.578 929.713,131.578 C931.065007,131.578 932.104996,132.065495 932.833,133.0405 C933.561004,134.015505 933.821001,135.659988 933.613,137.974 L932.365,151 L929.596,151 Z M937.435,144.292 C937.435,140.001979 938.292991,136.81051 940.009,134.7175 C941.725009,132.62449 943.57099,131.578 945.547,131.578 C947.133008,131.578 948.354996,131.967996 949.213,132.748 C950.071004,133.528004 950.5,134.606993 950.5,135.985 C950.5,138.169011 949.577009,139.949993 947.731,141.328 C945.884991,142.706007 943.389016,143.395 940.243,143.395 C940.243,145.527011 940.580997,146.963496 941.257,147.7045 C941.933003,148.445504 942.894994,148.816 944.143,148.816 C945.027004,148.816 945.878496,148.699001 946.6975,148.465 C947.516504,148.230999 948.341996,147.893002 949.174,147.451 L949.174,149.986 C948.263995,150.480002 947.367004,150.830999 946.483,151.039 C945.598996,151.247001 944.559006,151.351 943.363,151.351 C941.464991,151.351 940.002505,150.792006 938.9755,149.674 C937.948495,148.555994 937.435,146.762012 937.435,144.292 Z M947.614,136.336 C947.614,135.555996 947.406002,134.971002 946.99,134.581 C946.573998,134.190998 945.989004,133.996 945.235,133.996 C944.272995,133.996 943.298005,134.587494 942.31,135.7705 C941.321995,136.953506 940.698001,138.766988 940.438,141.211 C942.726011,141.211 944.493994,140.736505 945.742,139.7875 C946.990006,138.838495 947.614,137.688007 947.614,136.336 Z M955.18,125.923 C955.18,125.324997 955.355498,124.850502 955.7065,124.4995 C956.057502,124.148498 956.518997,123.973 957.091,123.973 C957.585002,123.973 957.961999,124.109499 958.222,124.3825 C958.482001,124.655501 958.612,125.038998 958.612,125.533 C958.612,126.053003 958.443002,126.501498 958.105,126.8785 C957.766998,127.255502 957.299003,127.444 956.701,127.444 C956.258998,127.444 955.895001,127.314001 955.609,127.054 C955.322999,126.793999 955.18,126.417002 955.18,125.923 Z M957.715,131.734 L955.96,151 L953.191,151 L954.907,132.085 L957.715,131.734 Z M971.716,144.994 L972.73,134.152 C972.391998,134.074 971.995502,134.0155 971.5405,133.9765 C971.085498,133.9375 970.650002,133.918 970.234,133.918 C968.777993,133.918 967.419506,134.814991 966.1585,136.609 C964.897494,138.403009 964.267,141.041983 964.267,144.526 C964.267,146.112008 964.494498,147.223497 964.9495,147.8605 C965.404502,148.497503 965.956997,148.816 966.607,148.816 C967.283003,148.816 968.069496,148.497503 968.9665,147.8605 C969.863504,147.223497 970.779995,146.268006 971.716,144.994 Z M976.435,123.661 L973.939,151 L971.248,151 L971.56,147.88 L971.443,147.88 C970.558996,149.076006 969.642505,149.953497 968.6935,150.5125 C967.744495,151.071503 966.737005,151.351 965.671,151.351 C964.396994,151.351 963.363504,150.850505 962.5705,149.8495 C961.777496,148.848495 961.381,147.139012 961.381,144.721 C961.381,140.482979 962.310491,137.233011 964.1695,134.971 C966.028509,132.708989 968.127988,131.578 970.468,131.578 C970.962002,131.578 971.410498,131.5975 971.8135,131.6365 C972.216502,131.6755 972.586998,131.734 972.925,131.812 L973.627,124.012 L976.435,123.661 Z" id="DataAgendaOverheid" fill="#000000" fill-rule="nonzero"></path>
            <path d="M679.784,102 L669.424,72.32 L669.088,72.32 L669.088,102 L662.648,102 L662.648,65.264 L673.736,65.264 L684.152,94.944 L684.488,94.944 L684.488,65.264 L690.928,65.264 L690.928,102 L679.784,102 Z M700.168,102 L700.168,65.264 L707.448,65.264 L707.448,96.064 L719.88,96.064 L719.88,102 L700.168,102 Z M746.984,102 L736.624,102 L736.624,65.264 L747.32,65.264 C753.629365,65.264 758.463983,66.7853181 761.824,69.828 C765.184017,72.8706819 766.864,77.1173061 766.864,82.568 C766.864,89.2133666 765.081351,94.1133176 761.516,97.268 C757.950649,100.422682 753.106697,102 746.984,102 Z M743.904,71.2 L743.904,96.064 L747.32,96.064 C750.904018,96.064 753.778656,95.0373436 755.944,92.984 C758.109344,90.9306564 759.192,87.57069 759.192,82.904 C759.192,79.1333145 758.081344,76.2400101 755.86,74.224 C753.638656,72.2079899 750.642686,71.2 746.872,71.2 L743.904,71.2 Z M781.424,65.264 L781.424,102 L774.144,102 L774.144,65.264 L781.424,65.264 Z M805.896,89.288 L805.896,83.352 L818.272,83.352 L818.272,101.328 C816.442658,101.701335 814.622676,101.971999 812.812,102.14 C811.001324,102.308001 809.106677,102.392 807.128,102.392 C801.565306,102.392 797.094684,100.908015 793.716,97.94 C790.337316,94.9719852 788.648,90.5760291 788.648,84.752 C788.648,78.1066334 790.551981,73.1320165 794.36,69.828 C798.168019,66.5239835 802.965304,64.872 808.752,64.872 C810.432008,64.872 811.925327,64.9279994 813.232,65.04 C814.538673,65.1520006 815.845327,65.3386654 817.152,65.6 L816.648,71.76 C815.117326,71.5359989 813.736006,71.386667 812.504,71.312 C811.271994,71.237333 809.946674,71.2 808.528,71.2 C804.831982,71.2 801.873344,72.2919891 799.652,74.476 C797.430656,76.6600109 796.32,79.8613122 796.32,84.08 C796.32,88.1493537 797.393323,91.2293229 799.54,93.32 C801.686677,95.4106771 804.290651,96.456 807.352,96.456 C808.136004,96.456 808.798664,96.4373335 809.34,96.4 C809.881336,96.3626665 810.52533,96.306667 811.272,96.232 L811.272,89.288 L805.896,89.288 Z M833.504,65.264 L833.504,102 L826.224,102 L826.224,65.264 L833.504,65.264 Z M856.688,71.2 L856.688,102 L849.408,102 L849.408,71.2 L839.328,71.2 L839.328,65.264 L866.768,65.264 L866.768,71.2 L856.688,71.2 Z M885.08,88.28 L880.544,71.312 L880.152,71.312 L875.616,88.28 L885.08,88.28 Z M886.312,65.264 L897.008,102 L888.608,102 L886.592,94.104 L874.16,94.104 L872.144,102 L864.584,102 L875.336,65.264 L886.312,65.264 Z M918.792,88.28 L914.256,71.312 L913.864,71.312 L909.328,88.28 L918.792,88.28 Z M920.024,65.264 L930.72,102 L922.32,102 L920.304,94.104 L907.872,94.104 L905.856,102 L898.296,102 L909.048,65.264 L920.024,65.264 Z M936.04,102 L936.04,65.264 L943.32,65.264 L943.32,96.064 L955.752,96.064 L955.752,102 L936.04,102 Z" id="NLDIGITAAL" fill="#007BC7" fill-rule="nonzero"></path>
        </g>
        <g id="Hoofdstuk-4-site_NDA[v1]" transform="translate(117.000000, 108.000000)" fill-rule="nonzero">
            <path d="M889.8,116.8 C892.3,114.1 898.6,111.4 904.7,111.7 C910.9,112 912.1,113.8 912.1,113.8 L891.5,121.5 L889.8,116.8" id="Path" fill="#275A38"></path>
            <path d="M934.5,241.9 L934.5,241.9 C936.3,242.3 938,243.1 939.4,244.3 L940.3,245 C940.6,245.2 940.6,245.5 940.5,245.8 C939.9,246.9 931.4,257.8 929.8,260.5 C928.3,263.2 925.2,265.8 923.7,264.6 C928.3,253.1 928.9,249.1 928.9,249.1 L934.5,241.9 Z" id="Path" fill="#D69631"></path>
            <path d="M928.8,260.5 C930.2,258 938,247.5 940,244.7 L940.3,244.9 C940.6,245.1 940.6,245.4 940.5,245.7 C939.9,246.8 931.4,257.7 929.8,260.4 C928.4,262.8 925.9,265.2 924.2,264.7 C925.8,264.4 927.7,262.5 928.8,260.5" id="Path" fill="#DFB683"></path>
            <path d="M894,223.1 L928.5,250.7 C928.5,250.7 931.5,250.9 934.4,247.8 C937.4,244.7 937.6,242.1 937.6,242.1 L910.1,216.1 L902.9,211.2 L894,223.1 Z" id="Path" fill="#2E2E2C"></path>
            <path d="M899.3,212.6 C899.3,212.6 936.4,237.5 934.4,247.8 C937.4,244.7 937.6,242.1 937.6,242.1 L910.1,216.1 L902.9,211.2 L899.3,212.6 Z" id="Path" fill="#232322"></path>
            <path d="M901.7,80.1 C900.6,80.5 898.6,80.2 897.7,79.5 C895.9,78.2 891.3,79.6 889.6,83.3 C889.1,84.4 888.9,85.8 889.1,87.1 C889.4,90.2 890.9,93 893.2,95.1 C899.4,100.7 899.1,107.9 903.4,108 C910.5,108.3 916.9,100.3 916.3,91.9 C916.4,80.2 906.4,78.3 901.7,80.1" id="Path" fill="#5F4540"></path>
            <path d="M913,99.4 L903.3,103.8 L903,107.9 C902.8,110.2 902,112.2 900.2,113.5 C900.2,113.5 888.9,124.6 898.1,125.3 C907.3,125.9 916.7,113.4 916.7,113.4 C912.5,107.2 913,99.4 913,99.4" id="Path" fill="#AE7955"></path>
            <path d="M890.8,116.8 C890.8,116.8 884.3,121.1 882.6,125.9 C882.2,127 877.9,145.8 877.2,150.1 C877.1,150.9 880.5,155.2 881.3,151.5 C883,143.9 888.8,131.5 888.8,131.5 C888.8,131.5 893.6,128.6 896.1,126.3 C898.9,123.8 890.8,116.8 890.8,116.8" id="Path" fill="#946648"></path>
            <path d="M888.6,131.9 C888.7,131.8 888.7,131.7 888.7,131.6 L888.7,131.6 C888.7,131.7 888.6,131.8 888.6,131.9" id="Path" fill="#BCD3DE"></path>
            <path d="M887.6,133.9 C887.8,132.1 886.5,129.1 884.8,125.8 C886.6,127.8 888.3,128.4 889.6,128.6 C889.8,129.3 890,130 890.3,130.5 C889.4,131.1 888.8,131.4 888.7,131.5 L888.7,131.5 C888.7,131.5 888.7,131.5 888.6,131.6 C888.6,131.7 888.5,131.8 888.5,131.9 C888.4,132.3 888.1,133 887.6,133.9" id="Path" fill="#986646"></path>
            <path d="M877.3,149.6 L875.2,157.4 C875.1,157.8 875.1,158.2 875.2,158.6 L876.5,163.1 C876.6,163.6 876.9,164 877.3,164.3 L880.8,166.8 C881.2,166 881.1,165 880.5,164.3 L878.8,162.6 L878.3,158.9 C878.3,158.7 878.3,158.5 878.5,158.4 C878.9,157.9 879.7,158.1 879.7,158.7 L880.3,162.4 C880.4,162.8 880.7,163.1 881.1,163.1 C881.6,163.1 882,162.7 882,162.2 L881.9,156.9 L881,149.5 L877.3,149.6 L877.3,149.6 Z" id="Path" fill="#946648"></path>
            <path d="M893.5,165.8 L892.8,171.2 L891.7,180.4 L888.5,201.4 C887.9,205.6 887.7,209.9 887.9,214.2 C888.1,217.4 889.7,220.3 892.4,222 L894,223.1 L903.4,222 L902.8,213.3 L914.8,167.7 L893.5,165.8 Z" id="Path" fill="#2E2E2C"></path>
            <path d="M904,178.8 L900,209.6 C899.8,211.3 900.5,213 901.8,214.1 L902.9,215 L914.8,167.8 L904,178.8 Z" id="Path" fill="#232322"></path>
            <path d="M911.1,257 C911.3,259.7 910.2,261.4 909.4,264.7 C908.9,266.9 908.6,269.7 914,269.9 C919,270.1 918.9,266.4 918.9,265.9 C918.9,265.4 918.2,259.6 918.2,259.6 L911.1,257 Z" id="Path" fill="#D69631"></path>
            <path d="M914.1,268.7 C915.8,268.8 917.2,268.5 918.3,268.1 C917.7,269.1 916.5,270 913.9,269.9 C910.8,269.8 909.6,268.8 909.2,267.6 C910.4,268.2 912,268.6 914.1,268.7" id="Path" fill="#DFB683"></path>
            <path d="M897.3,166.6 L898.4,176.2 C898.6,178.1 899.7,179.7 901.3,180.7 C902.3,181.3 902.9,182.2 903.2,183.3 L908.2,216.8 L909.1,260.9 C909.1,260.9 910,261.6 914.4,261.9 C918.8,262.2 919.3,260.8 919.3,260.8 L921.6,240.2 C922.1,234.9 923,228.9 922.1,223.7 L921.1,217.8 L922.9,199.8 C923.3,195.9 923.8,191.3 923.6,187.4 L923.2,182.9 C923.1,182.1 923.2,181.2 923.5,180.4 C924.3,177.9 924.6,175.4 924.3,172.8 L923.6,165.6 L897.3,166.6 Z" id="Path" fill="#3D3D3B"></path>
            <path d="M918.7,217.6 C921,198.3 918.2,180.8 918.2,180.8 C918.2,180.8 907,180.8 906.5,170.6 L923.5,165.5 L923.7,165.5 L924.4,172.7 C924.7,175.3 924.4,177.9 923.6,180.3 C923.3,181.1 923.2,182 923.3,182.8 L923.7,187.3 C924,191.2 923.5,195.8 923,199.7 L921.2,217.7 L922.2,223.6 C923.1,228.9 922.2,234.8 921.7,240.1 L919.4,260.7 C919.3,260.8 923.2,233.7 918.7,217.6" id="Path" fill="#2E2E2C"></path>
            <path d="M916.8,170.5 C917.1,173.8 917.8,178.5 917.8,178.5 C917.8,178.5 911.2,179.2 909.4,173.3 C907.6,167.4 916.8,170.5 916.8,170.5" id="Path" fill="#3D3D3B"></path>
            <path d="M926.6,116.9 L916.8,113.4 C916.8,113.4 909.7,122.6 900.9,121.4 C898.4,121 898.1,115.7 900.3,113.6 C900.2,113.7 899.9,113.6 899.4,113.5 C897.9,113.3 894.5,113 889.8,116.9 C888.9,118.6 888.3,127.3 890.5,130.9 C890.9,130.8 892.2,130 892.2,130 L892.2,130.1 C892,133 892.1,136 892.7,138.9 C893.5,143 894.5,148.8 894.4,150.8 C894,159.2 891.2,168.9 892.1,170.5 C893.4,172.8 905.1,176.9 924.6,172.6 C925,153.9 926.1,139.8 926.1,139.8 L930.6,132.9 C932.4,130 933.1,126.5 932.3,123.2 C931.6,120.4 930,117.8 926.6,116.9" id="Path" fill="#3A8835"></path>
            <path d="M907,149.3 L914.5,134.5 C916.2,137.5 923.5,139.8 926.1,139.6 C926.1,139.6 915.9,153 911.6,157.7 C910.8,158.6 909.1,158.3 907.8,157.9 L887,151.4 L887.8,146.1 L907,149.3 Z" id="Path" fill="#AE7955"></path>
            <path d="M873.2,133.3 L886.8,137.6 C887.2,137.7 887.4,138.1 887.2,138.4 L885.9,142.5 L871,137.8 L872.3,133.7 C872.5,133.4 872.8,133.2 873.2,133.3" id="Path" fill="#3D3D3B"></path>
            <path d="M873.3,134.3 C873.4,134.1 873.6,133.9 873.9,134 L885.7,137.8 C885.9,137.9 886.1,138.1 886,138.4 L885.2,141.1 C885.1,141.3 884.9,141.5 884.6,141.4 L872.8,137.6 C872.6,137.5 872.4,137.3 872.5,137 L873.3,134.3 Z" id="Path" fill="#FFFFFF"></path>
            <path d="M871,137.8 C871.1,137.6 871.3,137.5 871.5,137.5 L885.6,142 C885.8,142.1 885.9,142.3 885.9,142.5 L885.7,143.1 C885.6,143.3 885.4,143.4 885.2,143.4 L871.1,138.9 C870.9,138.8 870.8,138.6 870.8,138.4 L871,137.8 Z" id="Path" fill="#BBBCBD"></path>
            <path d="M872.4,138.3 L873.6,138.7 C873.7,138.7 873.8,138.9 873.8,139.1 C873.8,139.2 873.6,139.3 873.4,139.3 L872.2,138.9 C872,138.9 872,138.7 872,138.5 C872,138.4 872.2,138.3 872.4,138.3" id="Path" fill="#FFFFFF"></path>
            <path d="M875.5,139.3 L878.4,140.2 C878.5,140.2 878.6,140.4 878.6,140.6 C878.6,140.7 878.4,140.8 878.3,140.8 L875.4,139.9 C875.3,139.9 875.2,139.7 875.2,139.5 C875.2,139.3 875.3,139.3 875.5,139.3" id="Path" fill="#FFFFFF"></path>
            <path d="M874.3,140 L882.4,142.6 C883.1,142.8 883.8,142.5 884.1,141.9 C884.3,141.5 884.3,141 884.1,140.6 L883.2,138.8 C882.8,137.4 883,136.4 884.1,136.1 L887.8,141.5 L888.8,148.4 L889.1,152.1 L884.6,151.2 C881.5,150.5 878.8,148.3 878.8,148.3 C877.5,147.8 877.6,146.2 877.6,146.2 C877.7,146 877.1,145.2 877,144.9 L876.8,144.2 C876.7,143.8 876.8,143.4 877.1,143.1 C877.1,143.1 874.5,142.1 874.4,141.7 C873.6,140.6 874.3,140 874.3,140" id="Path" fill="#AE7955"></path>
            <g id="Group" transform="translate(900.000000, 101.000000)">
                <path d="M0.9,12 L0.9,12 C1.2,11.8 1.4,11.5 1.6,11.2 C1.4,11.5 1.1,11.7 0.9,12 M1.6,11.2 L1.7,11.1 C1.6,11.1 1.6,11.1 1.6,11.2" id="Shape" fill="#365B38"></path>
                <path d="M1.5,12.8 C1,12.8 0.5,12.7 0.3,12.5 C0.5,12.4 0.7,12.2 1,12 C1.3,11.8 1.5,11.5 1.7,11.2 L1.7,11.2 L1.8,11.1 L1.8,11.1 L1.9,11 C2.7,9.9 3,8.5 3.1,7 L3.4,2.9 L11.6,0.2 C11.6,0.3 12.7,7.6 7.2,11.2 C6.2,11.6 3.3,12.8 1.5,12.8" id="Path" fill="#AF7752"></path>
            </g>
            <path d="M909.6,96.4 C908.6,91.1 906.3,92.9 904.9,91.1 C901.7,86.9 898.4,92 893.3,93.9 C893.3,94.3 894.8,101.8 895.2,102.9 C897.9,110.2 897.5,111.3 902.6,110.1 C907.7,109 911.2,105.9 912.1,102.5 C912.3,101.6 913.4,97.7 913.4,97.7 C912.5,97.8 910,98.4 909.6,96.4" id="Path" fill="#AE7955"></path>
            <path d="M909.6,96.4 C909.6,96.4 910.6,100.6 908.3,103.5 C906,106.4 902.9,104.9 901,104.1 C899.1,103.4 895.8,104.3 895.8,104.3 C895.8,104.3 896.9,111.1 898.6,112.3 C900.3,113.5 905.7,110.8 908.3,108.9 C910.9,107 912.7,102 911.6,98 C910.4,94 909.6,96.4 909.6,96.4" id="Path" fill="#5F4540"></path>
            <path d="M896.2,106.7 L899.3,106 C899.7,105.9 900.1,106.2 900.2,106.5 C900.3,106.9 900,107.3 899.7,107.4 L896.6,108.1 L896.6,108.1 C896.4,107.7 896.3,107.2 896.2,106.7 L896.2,106.7" id="Path" fill="#AE7955"></path>
            <path d="M911.7,93.7 C911.1,94.2 911.4,100.5 912.2,100.6 C914,100.7 914.9,97.7 915.1,95.7 C915.4,93 912.7,92.9 911.7,93.7" id="Path" fill="#AE7955"></path>
            <path d="M890.5,130.8 C890.5,130.7 890.4,130.7 890.4,130.6 C890.4,130.4 891.8,125.3 893.3,122.7 L893.3,122.7 C892.2,125.8 892.2,129.9 892.2,129.9 L892.2,129.9 C892.2,129.9 890.8,130.7 890.5,130.8" id="Path" fill="#428433"></path>
            <path d="M746.8,172.8 C751.7,171.7 754.8,166.8 753.6,161.9 C752.5,157 747.6,154 742.7,155.1 C737.8,156.2 734.7,161.1 735.9,166 C737,170.8 741.9,173.9 746.8,172.8 L746.8,172.8 Z" id="Path" fill="#0068B3"></path>
            <path d="M859.3,122.7 C861.1,122.3 862.2,120.5 861.8,118.7 C861.4,116.9 859.6,115.8 857.8,116.2 C856,116.6 854.9,118.4 855.3,120.2 C855.6,122 857.4,123.2 859.3,122.7 L859.3,122.7 Z" id="Path" fill="#0068B3"></path>
            <path d="M798.1,142 C802.4,141 805,136.8 804.1,132.5 C803.1,128.2 798.9,125.6 794.6,126.6 C790.3,127.6 787.7,131.8 788.7,136.1 C789.6,140.3 793.9,143 798.1,142 L798.1,142 Z" id="Path" fill="#0068B3"></path>
            <polygon id="Path" fill="#0068B3" points="743.2 165.1 796.7 135 857.9 119.7 857.5 118.1 796 133.5 742.4 163.6"></polygon>
            <polyline id="Path" fill="#0068B3" points="796.8 134.1 799.1 103.1 797.5 103 795.2 134"></polyline>
            <path d="M799.6,107.5 C802.6,106.8 804.4,103.8 803.7,100.9 C803,97.9 800,96.1 797.1,96.7 C794.1,97.4 792.2,100.4 792.9,103.3 C793.7,106.3 796.7,108.2 799.6,107.5 L799.6,107.5 Z" id="Path" fill="#0068B3"></path>
            <path d="M253.9,60 C256.4,60 258.4,58 258.4,55.5 C258.4,53 256.4,51 253.9,51 C251.4,51 249.4,53 249.4,55.5 C249.4,58 251.4,60 253.9,60" id="Path" fill="#FFFFFF"></path>
            <path d="M283.5,74.4 C278.9,74.4 275.2,78.1 275.2,82.7 C275.2,87.3 278.9,91 283.5,91 C288.1,91 291.8,87.3 291.8,82.7 C291.8,78.1 288.1,74.4 283.5,74.4" id="Path" fill="#FFFFFF"></path>
            <path d="M179.7,166 C178.5,166 177.5,167 177.5,168.2 C177.5,169.4 178.5,170.4 179.7,170.4 C180.9,170.4 181.9,169.4 181.9,168.2 C181.9,167 180.9,166 179.7,166" id="Path" fill="#FFFFFF"></path>
            <path d="M29.4,44.1 C30.5,44.1 31.4,43.2 31.4,42.1 C31.4,41 30.5,40.1 29.4,40.1 C28.3,40.1 27.4,41 27.4,42.1 C27.4,43.2 28.3,44.1 29.4,44.1" id="Path" fill="#FFFFFF"></path>
            <path d="M116.9,30.6 C116.9,30.6 111,32.3 108.6,33.3 C106.2,34.3 102.7,38.7 101.7,43.6 C100.6,48.5 99.3,53.3 98.8,55.5 C97.9,60.2 97.9,63.2 98.5,65.6 C99.1,68 101.4,69.7 103.3,70.3 C103.8,70.5 105.4,71.3 105.4,71.3 L122.3,71.3 L120,37.4 L116.9,30.6 Z" id="Path" fill="#026A9D"></path>
            <rect id="Rectangle" fill="#402A1B" x="103.4" y="100" width="3.7" height="69.8"></rect>
            <rect id="Rectangle" fill="#402A1B" x="143.1" y="100" width="3.7" height="69.8"></rect>
            <path d="M150.4,89 C150.4,87.2 148.9,85.7 146.9,85.7 L103.5,85.7 C101.6,85.7 100,87.2 100,89 L98.8,98.2 C98.8,100 100.4,101.5 102.3,101.5 L148.1,101.5 C150,101.5 151.6,100 151.6,98.2 L150.4,89 Z" id="Path" fill="#1E2020"></path>
            <path d="M139.2,101.6 C139.2,101.6 127,106 122.1,104.6 C117.2,103.2 124.3,92.4 124.3,92.4 L136.4,93 L139.2,101.6 Z" id="Path" fill="#F1A05B"></path>
            <path d="M141.2,69.6 C141.2,69.6 145,79.8 147,83.4 C148.9,86.7 149.1,94.1 147.4,97.3 C145.6,100.6 123.7,92.2 123.7,92.2 L122.8,71.4 L141.2,69.6 Z" id="Path" fill="#026A9D"></path>
            <path d="M139.2,101.6 C139.2,101.6 149.8,99.2 147.6,88.2 C146.6,83.4 140.5,87.4 140.5,87.4 L129,88.9 L139.2,101.6 Z" id="Path" fill="#026A9D"></path>
            <path d="M130.6,142.6 C130.5,144.1 130.3,147.9 131.1,151.3 C132,155.1 133.8,159.6 137.9,159 C143.8,158.1 138.7,143.3 137.9,141.5 C136.8,139.1 135.3,138.7 133.9,139.1 C131.4,139.6 131,138.6 130.6,142.6" id="Path" fill="#1E2020"></path>
            <path d="M120.5,153.5 C120.5,153.5 119.3,162.6 120.3,166 C121.4,169.5 122.2,171.1 124.4,171.1 C127.6,171.1 128.7,167.4 128.7,163.8 C128.7,160.4 128.6,155.5 127.6,153.2 C126.8,150.9 120.5,153.5 120.5,153.5" id="Path" fill="#1E2020"></path>
            <path d="M109.3,100 C105.5,98.6 101.6,97.7 101.1,94.5 C100.5,91.3 102.2,87.6 104.1,84.8 C106,81.9 109.6,71.4 109.6,71.4 L125.5,71.4 L125.1,99.5 L109.3,100 Z" id="Path" fill="#026A9D"></path>
            <path d="M113.3,102.3 C112.6,105.4 114.1,112.6 116.5,121.9 C118.2,128.6 121.2,144.8 120.9,147.4 C120.6,150 120.6,155.5 120.7,157.8 C120.8,160.1 120.8,163.1 124.6,163 C128.4,162.9 128.5,157.4 128,154.1 C127.5,150.8 126.7,145.7 126.7,142.7 C126.7,139.7 127.4,125.1 127.2,119.7 C127,114.3 124.3,96.1 124.3,96.1 C124.3,96.1 113.6,100.6 113.3,102.3" id="Path" fill="#F1A05B"></path>
            <path d="M136.8,138.9 C135.4,136.4 134.1,115.1 134.1,115.1 C134.1,115.1 132.6,93.4 131.3,91.7 C130,90 119.8,90 114.4,93.6 C109,97.3 109.5,98 109.3,99.9 C109.3,99.9 117.2,101.4 121.5,100.4 C120.7,107.4 124.7,119.1 126,122.3 C127.8,127.1 130.6,134.4 130.7,137.8 C130.9,142 131.3,153.1 136.3,152.2 C141.1,151.4 138.7,142.5 136.8,138.9" id="Path" fill="#F8B174"></path>
            <polygon id="Path" fill="#FFFFFF" points="133.8 38.2 125.2 41.6 117.8 38.2 117.8 71.3 133.8 71.3"></polygon>
            <path d="M120.8,24.1 C120.8,24.1 120.6,28.5 119.3,30.9 L125.1,42.4 L125.1,27 L120.8,24.1 Z" id="Path" fill="#F8B174"></path>
            <path d="M129.5,24.1 C129.5,24.1 129.7,28.5 131,30.9 L125.2,42.4 L125.2,27 L129.5,24.1 Z" id="Path" fill="#F8B174"></path>
            <path d="M129.7,26.3 L129.7,26.3 C129.6,25.6 129.6,25.1 129.5,24.7 L129.4,24.2 L125.1,27.1 L121,24.3 L120.8,24.4 C120.8,24.9 120.7,26.2 120.4,27.6 L120.2,28.5 C120.2,28.5 120.9,29.9 124.4,29.9 C127.6,29.8 129.7,26.3 129.7,26.3" id="Path" fill="#F1A05B"></path>
            <path d="M108.6,44.6 C110.8,45.5 108.6,71.4 108.6,71.4 L122.2,71.4 L120.2,34.3 L108.6,44.6 Z" id="Path" fill="#026A9D"></path>
            <path d="M131.7,24.1 C131.7,24.1 132.7,23.2 132.8,22.8 L132.1,22.5 L131.7,24.1 Z" id="Path" fill="#4E2B14"></path>
            <path d="M118.6,24.1 C118.6,24.1 117.6,23.2 117.5,22.8 L118.2,22.5 L118.6,24.1 Z" id="Path" fill="#4E2B14"></path>
            <path d="M126.5,2.9 C127.2,5.6 125.2,6.8 122.5,7.5 C119.8,8.2 117.5,8 116.8,5.3 C116.1,2.6 118,1.1 120.7,0.4 C123.4,-0.2 125.8,0.2 126.5,2.9" id="Path" fill="#E16F0D"></path>
            <path d="M133.6,18.2 C133.6,18.2 134.8,13 133.4,10.1 C131.8,7 129.5,5.2 125.2,5.2 C120.9,5.2 118.6,7 117,10.1 C115.6,13 116.8,18.2 116.8,18.2 C114.8,17.8 115.2,19.9 115.8,20.8 C116.3,21.6 116.3,21.7 116.6,22.5 C117,23.7 118,22.9 118,22.9 C118.6,24.5 119,24.9 121.3,27 C123.3,28.8 124.1,28.8 125.1,28.8 C126.1,28.8 126.8,28.8 128.9,27 C131.2,24.9 131.7,24.5 132.2,22.9 C132.2,22.9 133.2,23.8 133.7,22.5 C134,21.6 134,21.6 134.5,20.8 C135.2,19.9 135.5,17.8 133.6,18.2" id="Path" fill="#F8B174"></path>
            <path d="M130.8,5.2 C126,2.8 122,5.2 122,5.2 C112.1,6.3 115.5,18.5 115.5,18.5 L115.5,18.5 C115.7,18.2 116.1,18.1 116.7,18.2 C116.6,17.3 117.7,16.2 119.4,15 C121.2,13.7 121.9,11.9 121.9,11.9 C121.9,11.9 123.7,15.1 128.1,16 C132.5,16.9 133.4,17.5 133.6,18.3 C134.2,18.2 134.6,18.3 134.8,18.6 C134.8,18.5 137.5,8.6 130.8,5.2" id="Path" fill="#E16F0D"></path>
            <path d="M133.4,23.1 C133.4,23.4 133.2,23.5 133,23.5 C132.8,23.5 132.6,23.3 132.6,23.1 C132.6,22.9 132.8,22.7 133,22.7 C133.2,22.6 133.4,22.8 133.4,23.1" id="Path" fill="#D41216"></path>
            <path d="M116.9,23.1 C116.9,23.4 117.1,23.5 117.4,23.5 C117.7,23.5 117.8,23.3 117.8,23.1 C117.8,22.9 117.6,22.7 117.4,22.7 C117.1,22.6 116.9,22.8 116.9,23.1" id="Path" fill="#D41216"></path>
            <polygon id="Path" fill="#D8E9ED" points="125.2 42.5 119.4 30.9 120.2 28.8 117.8 29.4 113.3 35.2 117.8 36.1 116.9 38.8"></polygon>
            <path d="M133.4,30.6 C133.4,30.6 139.3,32.3 141.7,33.3 C144.1,34.3 147.6,38.7 148.6,43.6 C149.7,48.5 151.1,53.9 151.6,56.1 C152.5,60.1 152.4,63.1 151.8,65.5 C151.2,67.9 148.9,69.6 147,70.2 C146.5,70.4 144.9,71.2 144.9,71.2 L128,71.2 L130.3,37.3 L133.4,30.6 Z" id="Path" fill="#026A9D"></path>
            <polygon id="Path" fill="#D8E9ED" points="125.2 42.5 131 30.9 130.2 28.8 132.5 29.4 137 35.2 132.5 36.1 133.4 38.8"></polygon>
            <path d="M138.6,64.1 C138.6,64.1 143.8,61.6 144,61.2 C144.2,60.8 140.9,47 140.9,47 C140.9,47 141.9,58.8 142,59.8 C142.1,60.8 137.1,64.1 137.1,64.1 L138.6,64.1 Z" id="Path" fill="#093C5D"></path>
            <path d="M111.7,64.1 C111.7,64.1 106.5,61.6 106.3,61.2 C106.1,60.8 109.4,47 109.4,47 C109.4,47 108.4,58.8 108.3,59.8 C108.2,60.8 113.2,64.1 113.2,64.1 L111.7,64.1 Z" id="Path" fill="#093C5D"></path>
            <path d="M107.8,71.3 C107.8,71.3 106.1,71.5 105.7,70.8 C105.2,70 104.4,69.6 103.4,69.5 C103.4,69.5 103.6,67 106.2,66.1 C108.8,65.2 112,63.7 112.5,64.1 C112.8,64.5 107.8,71.3 107.8,71.3" id="Path" fill="#EDAC72"></path>
            <path d="M113.8,64.2 C114.8,65.1 117.8,68.1 117,69.3 C116.2,70.4 115.6,70.1 115.3,70.6 C115.1,71.1 114.7,71.4 114,71.8 C113.3,72.3 112.2,72.2 111.6,72.6 C111,73 109.9,73.7 108.9,72.6 C107.8,71.5 106.5,69.5 106.4,68.8 C106.3,68.2 106.7,67.4 107.4,67.1 C108.1,66.9 108.5,66 109,65.8 C109.5,65.6 110.1,65.4 110.5,65 C110.9,64.6 111.6,64.6 111.8,64.4 C111.9,64.3 113,63.5 113.8,64.2" id="Path" fill="#F8B174"></path>
            <path d="M19.7,113.3 L31.5,100.8 L31.7,100.5 L32.8,100.9 C32.8,100.9 45.9,103.5 52.8,105.8 C58.8,107.8 58.6,110 58.9,113.8 C59.2,118.7 57,146.5 56.9,146.9 L56.9,146.9 C54.4,146.6 51.2,147 48.7,147.4 C45.2,136.1 47.3,124.1 48.8,117.1 C48.8,117.1 42.6,115.7 21.2,113.3 C20.7,113.4 20.2,113.4 19.7,113.3" id="Path" fill="#F1A05B"></path>
            <path d="M56.9,147 C57.1,158.1 56.1,170.1 59.2,173 C59.2,173 56.5,174.5 55,173.8 C52.4,172.5 49.4,162.9 49.4,162.9 C49.4,162.9 51.2,159.1 50,151.8 C49.6,149.6 49.2,148.7 48.8,147.6 C51.2,147.2 54.4,146.8 56.9,147 L56.9,147 Z" id="Path" fill="#F1A05B"></path>
            <path d="M31.1,171.6 C31.1,173.1 29.9,174.3 28.4,174.3 C26.9,174.3 25.7,173.1 25.7,171.6 L25.7,115.2 C25.7,113.7 26.9,112.5 28.4,112.5 C29.9,112.5 31.1,113.7 31.1,115.2 L31.1,171.6 Z" id="Path" fill="#88522E"></path>
            <path d="M11.1,117.5 C11.1,119.7 9.3,121.5 7.1,121.5 C4.9,121.5 3.1,119.7 3.1,117.5 L0.4,55.4 C0.4,53.2 2.2,51.4 4.4,51.4 C6.6,51.4 8.4,53.2 8.4,55.4 L11.1,117.5 Z" id="Path" fill="#5B361F"></path>
            <path d="M49.4,117.2 C49.4,114.8 47.4,112.8 45,112.8 L7.4,112.8 C5,112.8 3,114.8 3,117.2 C3,119.6 5,121.6 7.4,121.6 L45,121.6 C47.5,121.6 49.4,119.6 49.4,117.2" id="Path" fill="#402A1B"></path>
            <path d="M39.4,172.6 C39.4,170.9 38,169.6 36.4,169.6 L19.6,169.6 C17.9,169.6 16.6,171 16.6,172.6 C16.6,174.3 18,175.6 19.6,175.6 L36.4,175.6 C38,175.6 39.4,174.3 39.4,172.6" id="Path" fill="#402A1B"></path>
            <path d="M49.4,162.8 C49.4,162.8 47.2,164.9 47.5,168.2 C47.9,171.5 48.3,175.4 48,176.6 L49.4,176.8 L49.7,169.5 C49.7,169.5 52.3,171.9 52.8,173.8 C53.3,175.7 52.3,176.8 59.5,177.3 C63.1,177.5 65.8,177.4 65.3,175.9 C64.5,173.6 62.9,175.3 59.1,172.9 C59.2,173 55.4,173.7 49.4,162.8" id="Path" fill="#093C5D"></path>
            <path d="M13.1,99.2 L22,100 L32.8,101 C32.8,101 48.9,105.6 56.6,107.9 C62.6,109.7 62.7,111.7 63.2,115.4 C63.8,120.2 63.2,148.2 63.2,148.6 L63.2,148.6 C60.7,148.5 57.5,149.2 55.1,149.7 C50.9,138.7 52.4,126.5 53.4,119.5 C53.4,119.5 47.2,118.4 25.6,117.6 C3.6,116.8 13.1,99.2 13.1,99.2" id="Path" fill="#F8B174"></path>
            <path d="M63.2,148.6 C64.1,159.7 64,171.7 67.2,174.3 C67.2,174.3 64.6,176 63.1,175.4 C60.4,174.3 56.8,164.9 56.8,164.9 C56.8,164.9 58.4,161 56.7,153.8 C56.2,151.7 55.7,150.8 55.2,149.7 C57.5,149.2 60.7,148.6 63.2,148.6 L63.2,148.6 Z" id="Path" fill="#F8B174"></path>
            <path d="M56.7,164.9 C56.7,164.9 54.6,167.2 55.2,170.5 C55.8,173.8 56.5,177.6 56.3,178.8 L57.7,178.9 L57.5,171.6 C57.5,171.6 60.2,173.8 60.9,175.6 C61.5,177.5 60.6,178.7 67.8,178.6 C71.4,178.6 74.1,178.2 73.5,176.8 C72.6,174.6 71.1,176.4 67.1,174.3 C67.1,174.3 63.5,175.4 56.7,164.9" id="Path" fill="#026A9D"></path>
            <path d="M49.7,119.1 L49.7,119.1 C48.6,112.7 51.8,105.7 51.8,105.6 C44.7,103.4 32.7,101 32.7,101 L32.5,99.7 C32.4,99.8 27,100 22,100 C17.2,100 13.1,99.2 13.1,99.2 C13.1,99.2 3.6,116.8 25.5,117.6 C38.5,118.1 45.9,118.7 49.7,119.1" id="Path" fill="#1E1E1C"></path>
            <rect id="Rectangle" fill="#1E2020" x="78.8" y="79.8" width="4.3" height="94.9"></rect>
            <rect id="Rectangle" fill="#1E2020" x="174.7" y="79.8" width="4.3" height="94.9"></rect>
            <path d="M226.5,110.4 L214.7,97.9 L214.5,97.6 L213.4,98 C213.4,98 200.3,100.6 193.4,102.9 C187.4,104.9 187.6,107.1 187.3,110.9 C187,115.8 189.2,143.6 189.3,144 L189.3,144 C191.8,143.8 195,144.1 197.5,144.5 C201,133.2 198.9,121.2 197.4,114.2 C197.4,114.2 203.5,112.8 225,110.4 C225.4,110.5 225.9,110.5 226.5,110.4" id="Path" fill="#3A8835"></path>
            <path d="M189.2,144.1 C189,155.2 190,167.2 186.9,170.1 C186.9,170.1 189.6,171.6 191.1,170.9 C193.7,169.6 196.7,160 196.7,160 C196.7,160 194.9,156.2 196.1,148.9 C196.5,146.7 196.9,145.8 197.3,144.7 C194.9,144.3 191.7,143.9 189.2,144.1 L189.2,144.1 Z" id="Path" fill="#B37143"></path>
            <path d="M215,168.7 C215,170.2 216.2,171.4 217.7,171.4 C219.2,171.4 220.4,170.2 220.4,168.7 L220.4,112.3 C220.4,110.8 219.2,109.6 217.7,109.6 C216.2,109.6 215,110.8 215,112.3 L215,168.7 Z" id="Path" fill="#88522E"></path>
            <path d="M235,114.6 C235,116.8 236.8,118.6 239,118.6 C241.2,118.6 243,116.8 243,114.6 L245.7,52.5 C245.7,50.3 243.9,48.5 241.7,48.5 C239.5,48.5 237.7,50.3 237.7,52.5 L235,114.6 Z" id="Path" fill="#5B361F"></path>
            <path d="M196.7,114.3 C196.7,111.9 198.7,109.9 201.1,109.9 L238.7,109.9 C241.1,109.9 243.1,111.9 243.1,114.3 C243.1,116.7 241.1,118.7 238.7,118.7 L201,118.7 C198.6,118.7 196.7,116.7 196.7,114.3" id="Path" fill="#402A1B"></path>
            <path d="M206.8,169.7 C206.8,168 208.2,166.7 209.8,166.7 L226.6,166.7 C228.3,166.7 229.6,168.1 229.6,169.7 C229.6,171.4 228.2,172.7 226.6,172.7 L209.8,172.7 C208.1,172.7 206.8,171.4 206.8,169.7" id="Path" fill="#402A1B"></path>
            <path d="M196.8,159.9 C196.8,159.9 199,162 198.7,165.3 C198.3,168.6 197.9,172.5 198.2,173.7 L196.8,173.9 L196.5,166.6 C196.5,166.6 193.9,169 193.4,170.9 C192.9,172.8 193.9,173.9 186.7,174.4 C183.1,174.6 180.4,174.5 180.9,173 C181.7,170.7 183.3,172.4 187.1,170 C186.9,170.1 190.7,170.8 196.8,159.9" id="Path" fill="#093C5D"></path>
            <path d="M233,96.3 L224.1,97.1 L213.3,98.1 C213.3,98.1 197.2,102.7 189.5,105 C183.5,106.8 183.4,108.8 182.9,112.5 C182.3,117.3 182.9,145.2 182.9,145.7 L182.9,145.7 C185.4,145.6 188.6,146.3 191,146.8 C195.2,135.8 193.7,123.6 192.7,116.6 C192.7,116.6 198.9,115.5 220.5,114.7 C242.5,113.9 233,96.3 233,96.3" id="Path" fill="#6B9C53"></path>
            <path d="M183,145.7 C182.1,156.8 182.2,168.8 179,171.4 C179,171.4 181.6,173.1 183.1,172.5 C185.8,171.4 189.4,162 189.4,162 C189.4,162 187.8,158.1 189.5,150.9 C190,148.8 190.5,147.9 191,146.8 C188.6,146.3 185.4,145.7 183,145.7 L183,145.7 Z" id="Path" fill="#DC8D53"></path>
            <path d="M189.4,162 C189.4,162 191.5,164.3 190.9,167.6 C190.3,170.9 189.7,174.7 189.8,175.9 L188.4,176 L188.6,168.7 C188.6,168.7 185.8,170.9 185.2,172.7 C184.6,174.5 185.5,175.8 178.3,175.7 C174.7,175.7 172,175.3 172.6,173.9 C173.5,171.7 175,173.5 179,171.4 C179,171.5 182.7,172.5 189.4,162" id="Path" fill="#026A9D"></path>
            <path d="M220.5,39.1 C220.5,39.1 217.8,40.8 216.2,46.6 C215.5,49.3 216.2,53.7 216.3,58 C216.3,61.5 217.5,65.4 216.5,68.1 C214.4,74 216.4,78.7 216.4,78.7 C216.4,78.7 214.5,76.2 216.1,72.5 C216.6,71.2 218.3,69 218.1,65.2 C218,61.4 218.2,58.4 219.3,56.2 C220.3,54 220.2,51.1 220,48.9 C219.8,46.7 221.2,41.3 221.8,40.9 C222.4,40.5 221.3,40.2 221.3,40.2 L220.5,39.1 Z" id="Path" fill="#3A8835"></path>
            <path d="M237.5,39.3 C237.5,39.3 239.9,42.2 239.1,49 C238.8,52.2 237.5,57.3 235.6,61.9 C234,65.6 230.9,69.3 230.8,72.6 C230.6,79.7 224.6,83 224.6,83 C224.6,83 227.3,80.8 227.1,76.3 C227,74.7 226,71.9 227.9,68 C229.7,64 233.1,60.2 232.9,57.4 C232.7,54.7 232.5,52.2 233.7,50 C234.9,47.7 233.2,44.1 232.7,43.4 C232.2,42.7 236,40.3 236,40.3 L237.5,39.3 Z" id="Path" fill="#3A8835"></path>
            <path d="M231.5,45.8 C231.5,45.8 231.2,49.3 231.5,51.6 C231.8,53.9 230.4,55.1 229.5,56.8 C228.6,58.4 229.1,59 229.5,60.9 C229.9,62.7 228,63.8 227.7,65.1 C227.4,66.4 227.8,66.7 227.5,67.5 C227.2,68.3 225.6,71.6 226.6,73.6 C227.7,75.5 231.7,64.1 231.7,64.1 L233.7,55 C233.7,55 236.8,47.2 236.4,46.8 C235.9,46.4 234.1,43.5 234.1,43.5 L231.5,45.8 Z" id="Path" fill="#3A8835"></path>
            <path d="M216.6,50.5 C216.6,53.5 219,55.9 221.9,55.9 C224.8,55.9 227.2,53.5 227.2,50.5 C227.2,47.5 224.8,45.1 221.9,45.1 C219,45.1 216.6,47.5 216.6,50.5" id="Path" fill="#3A8835"></path>
            <path d="M220.1,54.6 C221,54.4 221.9,54.1 222.6,53.7 C224.3,52.7 224,47.8 224,47.8 L231.4,47.8 C231.4,47.8 231.1,52.8 232.8,53.7 C234.5,54.7 237.2,54.9 238.9,55.4 C240.5,55.9 239,57.3 239.5,60.5 C239.9,63.1 239.9,66.6 239.9,66.6 L220,66.5 L220,54.6 L220.1,54.6 L220.1,54.6 Z" id="Path" fill="#F8B174"></path>
            <path d="M218.3,55 L218.3,55 C219.7,54.6 221.4,54.3 222.6,53.6 C224.3,52.6 224,47.7 224,47.7 L231.4,47.7 C231.4,47.7 231.1,52.7 232.8,53.6 C234.5,54.6 237.2,54.8 238.9,55.3 C240.5,55.8 239,57.2 239.5,60.4 C239.9,63 239.9,66.5 239.9,66.5 L221.7,66.4 C221,66.9 220.1,67.3 219.1,67.7 C218.8,67.8 218.5,67.9 218.2,67.9 L218.2,55 L218.3,55 Z" id="Path" fill="#B37143"></path>
            <path d="M231.8,52.1 L231.8,52.1 C229.8,51.7 226,50.5 224.1,49.1 L224.1,48.7 L224.1,48.7 L224.1,48.6 L224.1,48.6 L224.1,48.5 L224.1,48.5 L224.1,48.4 L224.1,48.4 L224.1,48.3 L224.1,48.3 L224.1,48.3 L224.1,48.3 L227.8,48.3 L231.5,48.3 C231.5,48.1 231.3,50.3 231.8,52.1" id="Path" fill="#B37143"></path>
            <path d="M240,65.7 C240,65.7 240.6,61.4 239.6,58.9 C239,57.4 238.9,55.7 237.7,55 C237.2,54.7 234.8,54.2 234,54.1 C232.8,56.4 220.2,55.9 221.2,54.2 C220.4,54.4 218.2,54.5 217.2,55.8 C216.1,57.3 213.4,61.5 212.4,65.3 C211.5,68.7 212.8,70.2 213.9,75.8 C214.2,77.5 215.3,81.4 215.3,83.2 C215.4,88.9 213.4,97.8 213.4,98 C226.7,100.9 233,96.3 233,96.3 L231.7,93.1 C230.7,88.8 233.9,79.6 237.1,74.3 C239,71.1 240,68.9 240.4,67.4 L240.4,65.8 L240,65.7 Z" id="Path" fill="#4E3167"></path>
            <path d="M218.4,37.3 C218.4,37.3 217.7,33.7 218.5,31.1 C219.4,28.1 222,24.7 227.4,24.9 C232.6,25.3 218.4,37.3 218.4,37.3" id="Path" fill="#3A8835"></path>
            <path d="M219,38.9 C218.5,39.5 218.6,40.3 219.2,40.8 L220.4,41.8 C221,42.3 221.8,42.2 222.3,41.7 C222.8,41.1 222.7,40.3 222.2,39.8 L221,38.8 C220.4,38.3 219.5,38.4 219,38.9" id="Path" fill="#C91517"></path>
            <path d="M219.9,32.1 C221.5,27.9 224.6,23.9 230.6,25.3 C236.9,26.7 239.1,32.7 238.5,36.3 C237.9,39.8 236.8,41.9 236.4,42.6 C236,43.2 232.7,44.5 231.7,46.6 C230.6,48.6 219.9,32.1 219.9,32.1" id="Path" fill="#3A8835"></path>
            <path d="M232.8,43.3 C232.3,44.5 231.7,46.2 231.4,48.1 C230.9,48.3 230.6,48.8 229.9,49 C225.7,50.4 223,48.7 223,48.7 C223,48.7 222.9,49.3 223.7,48.5 L232.8,43.3 L232.8,43.3" id="Path" fill="#B37143"></path>
            <path d="M233.2,43.1 C232.6,44.3 232.1,46 229.8,47.3 C227.5,48.6 224,50.2 222.9,50.1 C221.9,49.9 221,50.1 219.9,47.2 C218.7,44.3 217.8,42.9 218.1,40.1 C218.4,37.4 218.2,31.7 221.9,30.2 C224.6,29.1 228.5,30.4 230.3,33 C232.1,35.5 232.7,35.8 232.9,39.4 L233.2,43.1 Z" id="Path" fill="#DC8D53"></path>
            <rect id="Rectangle" fill="#1E2020" x="48" y="97.9" width="4.3" height="90.3"></rect>
            <rect id="Rectangle" fill="#1E2020" x="205.5" y="102.4" width="4.3" height="85.8"></rect>
            <path d="M196.6,84.2 C192.8,81.8 186,79.8 181.6,79.8 L136.1,79.8 L120,79.8 L74.5,79.8 C70.1,79.8 63.3,81.8 59.5,84.2 L36.7,98.6 C32.9,101 33.4,103 37.8,103 L78,103 C82.4,103 89,100.8 92.7,98.1 L94.1,97.1 C97.7,94.4 96.2,92.2 100.6,92.2 L120,92.2 L136.1,92.2 L155.4,92.2 C159.8,92.2 158.3,94.4 161.9,97.1 L163.3,98.1 C167,100.8 173.6,103 178,103 L218.2,103 C222.6,103 223.1,101 219.3,98.6 L196.6,84.2 Z" id="Path" fill="#402A1B"></path>
            <rect id="Rectangle" fill="#402A1B" x="191" y="90.1" width="28.1" height="9.9"></rect>
            <polygon id="Path" fill="#402A1B" points="34.2 93 34.2 101.4 66.2 101.4 66.2 94.2"></polygon>
            <path d="M196.6,75.5 C192.8,73.1 186,71.1 181.6,71.1 L136.1,71.1 L120,71.1 L74.5,71.1 C70.1,71.1 63.3,73.1 59.5,75.5 L36.7,89.9 C32.9,92.3 33.4,94.3 37.8,94.3 L78,94.3 C82.4,94.3 89,92.1 92.7,89.4 L94.1,88.4 C97.7,85.7 96.2,83.5 100.6,83.5 L120,83.5 L136.1,83.5 L155.4,83.5 C159.8,83.5 158.3,85.7 161.9,88.4 L163.3,89.4 C167,92.1 173.6,94.3 178,94.3 L218.2,94.3 C222.6,94.3 223.1,92.3 219.3,89.9 L196.6,75.5 Z" id="Path" fill="#88522E"></path>
            <path d="M196.4,78.6 C196.4,78.6 194,77.5 192.9,77.3 C191.8,77.1 191.8,76.9 190.5,77.2 C189.2,77.5 188.3,77.7 187.9,77.3 C187.5,76.9 186.8,76.7 186.8,76.2 C186.8,75.7 185.6,75.7 185.5,75.1 C185.4,74.4 184.3,74.1 184.5,73.2 C184.6,72.4 185.5,72.3 187.9,72.4 C190.2,72.5 191.7,72.9 192.4,73.4 C193.1,73.9 196.2,75 196.2,75 L196.4,78.6 Z" id="Path" fill="#DC8D53"></path>
            <path d="M184.4,78.1 L184.4,78.1 C184.6,78.2 184.9,78.2 185.1,77.9 L190.2,70.3 C190.3,70.1 190.3,69.8 190.1,69.7 C189.9,69.6 189.6,69.7 189.5,69.9 L184.4,77.5 C184.2,77.7 184.2,78 184.4,78.1" id="Path" fill="#42B3AC"></path>
            <path d="M189.8,73.8 C189.1,73.9 186.7,72.6 186.4,73.2 C186.1,73.8 188.1,74.6 188.5,74.8 C188.8,75 190.6,75.3 190.6,75.3 L189.8,73.8 Z" id="Path" fill="#DC8D53"></path>
            <path d="M218.8,54.8 C218.4,55 216.7,62.2 215,65.2 C213.3,68.2 211.5,74.1 211.5,74.1 L195,73.7 L194.2,77.8 L213.6,80.9 L221.4,66.6 L218.8,54.8 Z" id="Path" fill="#40245D"></path>
            <rect id="Rectangle" fill="#FFFFFF" x="174.4" y="78.6" width="18.4" height="1.4"></rect>
            <rect id="Rectangle" fill="#FFFFFF" x="175.3" y="78.6" width="16.5" height="1"></rect>
            <path d="M204.5,77 C204.5,77 201.9,76.7 201,76.4 C200.2,76.1 192.5,77.6 192.3,79.5 C192.1,81.5 194.3,81 196.3,80.7 C198.3,80.4 204.5,80.3 205.6,80.4 C206.8,80.6 204.5,77 204.5,77" id="Path" fill="#DC8D53"></path>
            <path d="M215.3,83.1 C215.3,83.8 215.3,84.5 215.2,85.2 C220.8,86.1 226.5,85.7 232.2,86.1 C233.2,82 235.1,77.4 237,74.2 C238.9,71 239.9,68.8 240.3,67.3 L240.3,65.7 L239.9,65.6 C239.9,65.6 240.5,61.3 239.5,58.8 C238.9,57.3 238.8,55.6 237.6,54.9 C237.1,54.6 234.7,54.1 233.9,54 C232.7,56.3 220.1,55.8 221.1,54.1 C220.3,54.3 218.1,54.4 217.1,55.7 C216,57.2 213.3,61.4 212.3,65.2 C211.4,68.6 212.7,70.1 213.8,75.7 C214.2,77.5 215.3,81.4 215.3,83.1" id="Path" fill="#4E3167"></path>
            <path d="M215.3,83.1 C215.3,83.1 215.4,84 215.3,85.3 L231.5,90 C231.5,90 232.7,84.6 233.4,82.5 C234,80.3 215.3,83.1 215.3,83.1" id="Path" fill="#42B3AC"></path>
            <path d="M233.4,62.3 C233.4,62.3 227.8,74.4 226.4,76.3 C225.5,77.4 214.1,76.3 214.1,76.3 L215.8,81.7 L229.9,82.5 L233.4,62.3 Z" id="Path" fill="#40245D"></path>
            <path d="M236.4,54.8 C239,55.4 244.6,55.5 241.9,66.5 C239.2,77.5 232.2,86.2 230.8,87.9 C229.4,89.6 202.1,80.4 202.1,80.4 L202.8,75.1 L226.6,78.7 C226.6,78.7 229,77.7 231.4,68.5 C233.5,60.9 236.4,54.8 236.4,54.8" id="Path" fill="#4E3167"></path>
            <path d="M10.5,42.2 C10.5,42.2 8.5,45.1 9.1,51.9 C9.4,55.1 10.4,60.2 12.1,64.8 C13.5,68.5 16.1,72.2 16.2,75.5 C16.4,82.6 21.5,85.9 21.5,85.9 C21.5,85.9 19.2,83.7 19.3,79.2 C19.3,77.6 20.2,74.8 18.6,70.9 C17.1,66.9 14.2,63.1 14.3,60.3 C14.5,57.6 14.6,55.2 13.6,52.9 C12.6,50.6 14,47 14.5,46.3 C14.9,45.6 11.7,43.2 11.7,43.2 L10.5,42.2 Z" id="Path" fill="#36140F"></path>
            <path d="M15.6,46.1 C15.6,46.1 15.8,49.9 15.6,52.5 C15.4,55 16.5,56.4 17.3,58.1 C18,59.9 17.7,60.5 17.3,62.5 C17,64.5 18.5,65.7 18.8,67.1 C19.1,68.5 18.7,68.9 19,69.8 C19.2,70.7 20.6,74.3 19.7,76.4 C18.8,78.5 15.4,66 15.4,66 L13.7,56 C13.7,56 11,47.5 11.4,47 C11.8,46.5 13.4,43.4 13.4,43.4 L15.6,46.1 Z" id="Path" fill="#36140F"></path>
            <path d="M26,57.4 C25.1,57.2 24.2,56.9 23.5,56.5 C21.8,55.5 22.1,50.5 22.1,50.5 L14.7,50.5 C14.7,50.5 15,55.5 13.3,56.5 C11.6,57.5 8.9,57.7 7.2,58.2 C5.6,58.7 7.1,60.1 6.6,63.3 C6.2,65.9 6.2,69.4 6.2,69.4 L26.1,69.3 L26.1,57.4 L26,57.4 L26,57.4 Z" id="Path" fill="#F8B174"></path>
            <path d="M27.8,57.9 L27.8,57.9 C26.4,57.5 24.7,57.2 23.5,56.5 C21.8,55.5 22.1,50.6 22.1,50.6 L14.7,50.6 C14.7,50.6 15,55.6 13.3,56.5 C11.6,57.5 8.9,57.7 7.2,58.2 C5.6,58.7 7.1,60.1 6.6,63.3 C6.2,65.9 6.2,69.4 6.2,69.4 L24.4,69.3 C25.1,69.8 26,70.2 27,70.6 C27.3,70.7 27.6,70.8 27.9,70.8 L27.9,57.9 L27.8,57.9 L27.8,57.9 Z" id="Path" fill="#F8B174"></path>
            <path d="M14.3,55 L14.3,55 C16.3,54.6 20.1,53.4 22,52 L22,51.6 L22,51.6 L22,51.5 L22,51.5 L22,51.4 L22,51.4 L22,51.3 L22,51.3 L22,51 L22,51 L22,51 L22,51 L18.3,51 L14.6,51 C14.7,50.9 14.8,53.2 14.3,55" id="Path" fill="#F1A05B"></path>
            <path d="M6.1,68.6 C6.1,68.6 5.5,64.3 6.5,61.8 C7.1,60.3 7.2,58.6 8.4,57.9 C8.9,57.6 11.3,57.1 12.1,57 C13.3,59.3 25.9,58.8 24.9,57.1 C25.7,57.3 27.9,57.4 28.9,58.7 C30,60.2 32.7,64.4 33.7,68.2 C34.6,71.6 33.3,73.1 32.2,78.7 C31.9,80.4 30.8,84.3 30.8,86.1 C30.7,91.8 32.7,100.7 32.8,100.9 C19.5,103.8 13.2,99.2 13.2,99.2 L14.5,96 C15.5,91.7 12.3,82.5 9.1,77.2 C7.2,74 6.2,71.8 5.8,70.3 L5.8,68.7 L6.1,68.6 Z" id="Path" fill="#DE5D3F"></path>
            <path d="M27.7,40.2 C27.7,40.2 28.4,36.6 27.6,34 C26.7,31 24.1,27.6 18.7,27.8 C13.5,28.2 27.7,40.2 27.7,40.2" id="Path" fill="#36140F"></path>
            <path d="M27.1,41.8 C27.6,42.4 27.5,43.2 26.9,43.7 L25.7,44.7 C25.1,45.2 24.3,45.1 23.8,44.6 C23.3,44 23.4,43.2 23.9,42.7 L25.1,41.7 C25.7,41.2 26.6,41.3 27.1,41.8" id="Path" fill="#C91517"></path>
            <path d="M26.3,35 C24.7,30.8 21.6,26.8 15.6,28.2 C9.3,29.6 7.1,35.6 7.7,39.2 C8.3,42.7 9.4,44.8 9.8,45.5 C10.2,46.2 13.5,47.4 14.5,49.5 C15.5,51.5 26.3,35 26.3,35" id="Path" fill="#36140F"></path>
            <path d="M13.3,46.2 C13.8,47.4 14.4,49.1 14.7,51 C15.2,51.2 15.5,51.7 16.2,51.9 C20.4,53.3 23.1,51.6 23.1,51.6 C23.1,51.6 23.2,52.2 22.4,51.4 L13.3,46.2 L13.3,46.2" id="Path" fill="#F1A05B"></path>
            <path d="M13,46 C13.6,47.2 14.1,48.9 16.4,50.2 C18.7,51.5 22.2,53.1 23.3,53 C24.3,52.8 25.2,53 26.3,50.1 C27.5,47.2 28.4,45.8 28.1,43 C27.8,40.3 28,34.6 24.3,33.1 C21.6,32 17.7,33.3 15.9,35.9 C14.1,38.4 14.2,39.3 14,42.9 C14,42.9 11.8,40.8 11.1,40.8 C10.4,40.8 9.8,41.4 10.5,42.8 C11.1,44.2 11.5,43.9 11.6,44.7 C11.8,45.4 12,46.2 12.4,46.4 C13,46.5 13,46 13,46" id="Path" fill="#F8B174"></path>
            <path d="M22.4,32.5 C22.4,32.5 19.8,41.2 14.1,43.7 L10.3,37.2 L14.9,31.8 L22.4,32.5 Z" id="Path" fill="#36140F"></path>
            <path d="M21.3,33 C21.3,33 25.1,36.9 27.9,37.6 C27.9,37.6 26.7,31.3 22.7,29.3 L21.3,33 Z" id="Path" fill="#36140F"></path>
            <path d="M49.7,81.5 C49.7,81.5 52.1,80.4 53.2,80.2 C54.3,80 54.3,79.8 55.5,80.1 C56.8,80.4 57.7,80.7 58.1,80.2 C58.5,79.8 59.2,79.6 59.2,79.1 C59.2,78.6 60.4,78.6 60.5,78 C60.6,77.3 61.7,77 61.5,76.1 C61.4,75.3 60.5,75.2 58.1,75.3 C55.7,75.4 54.3,75.8 53.6,76.3 C52.9,76.8 49.8,77.9 49.8,77.9 L49.7,81.5 Z" id="Path" fill="#F8B174"></path>
            <path d="M61.7,81 L61.7,81 C61.5,81.1 61.2,81.1 61,80.8 L55.9,73.2 C55.8,73 55.8,72.7 56,72.6 C56.2,72.5 56.5,72.6 56.6,72.8 L61.7,80.4 C61.9,80.6 61.9,80.9 61.7,81" id="Path" fill="#42B3AC"></path>
            <path d="M56.3,76.7 C57,76.8 59.4,75.5 59.7,76.1 C60,76.7 58,77.5 57.7,77.7 C57.4,77.9 55.6,78.2 55.6,78.2 L56.3,76.7 Z" id="Path" fill="#F8B174"></path>
            <path d="M27.4,57.7 C27.8,57.9 29.5,65.1 31.2,68.1 C32.9,71.1 34.7,77 34.7,77 L51.2,76.6 L52,80.7 L32.6,83.8 L24.8,69.5 L27.4,57.7 Z" id="Path" fill="#D52D1E"></path>
            <rect id="Rectangle" fill="#FFFFFF" x="53.3" y="81.5" width="18.4" height="1.4"></rect>
            <rect id="Rectangle" fill="#FFFFFF" x="54.4" y="81.5" width="16.5" height="1"></rect>
            <path d="M41.6,79.9 C41.6,79.9 44.2,79.6 45.1,79.3 C46,79 53.6,80.4 53.8,82.4 C54,84.4 51.8,83.9 49.8,83.6 C47.8,83.3 41.6,83.2 40.5,83.3 C39.4,83.5 41.6,79.9 41.6,79.9" id="Path" fill="#F8B174"></path>
            <path d="M30.8,86 C30.8,86.7 30.8,87.4 30.9,88.1 C25.3,89 19.6,88.6 13.9,89 C12.9,84.9 11,80.3 9.1,77.1 C7.2,73.9 6.2,71.7 5.8,70.2 L5.8,68.6 L6.2,68.5 C6.2,68.5 5.6,64.2 6.6,61.7 C7.2,60.2 7.3,58.5 8.5,57.8 C9,57.5 11.4,57 12.2,56.9 C13.4,59.2 26,58.7 25,57 C25.8,57.2 28,57.3 29,58.6 C30.1,60.1 32.8,64.3 33.8,68.1 C34.7,71.5 33.4,73 32.3,78.6 C31.9,80.4 30.8,84.3 30.8,86" id="Path" fill="#DE5D3F"></path>
            <path d="M30.8,86 C30.8,86 30.7,86.9 30.8,88.2 L14.6,92.9 C14.6,92.9 13.3,87.5 12.7,85.4 C12.1,83.2 30.8,86 30.8,86" id="Path" fill="#D52D1E"></path>
            <path d="M12.8,65.2 C12.8,65.2 18.4,77.3 19.8,79.2 C20.7,80.4 32.1,79.2 32.1,79.2 L30.4,84.6 L16.3,85.4 L12.8,65.2 Z" id="Path" fill="#D52D1E"></path>
            <path d="M9.8,57.7 C7.2,58.3 1.6,58.4 4.3,69.4 C7,80.4 14,89.1 15.4,90.8 C16.8,92.5 44.1,83.3 44.1,83.3 L43.3,78 L19.5,81.6 C19.5,81.6 17.1,80.6 14.7,71.4 C12.7,63.8 9.8,57.7 9.8,57.7" id="Path" fill="#DE5D3F"></path>
            <path d="M15.7,59.4 C15.7,59.4 25.3,65.3 27.4,72.6 C27.4,72.6 24.5,59.9 25.3,57.3 L15.7,59.4 Z" id="Path" fill="#B5D1D7"></path>
            <polygon id="Path" fill="#D8E9ED" points="13.9 55.8 21.8 58.4 20.7 61.7 11.1 57.2 12.7 55.4 14.3 54.6"></polygon>
            <path d="M21.8,58.4 L23.5,56.5 C23.5,56.5 23.1,56.2 22.8,55.8 C22.7,55.6 22.4,55 22.4,55 L24.5,55.9 L25.2,57.2 L24.5,61.2 L21.8,58.4 Z" id="Path" fill="#D8E9ED"></path>
            <path d="M208.4,87.6 C208.4,86.7 207.5,85.9 206.4,85.9 L185.2,85.9 C184.1,85.9 183.2,86.6 183.2,87.6 C183.2,88.5 184.1,89.3 185.2,89.3 L206.4,89.3 C207.5,89.3 208.4,88.5 208.4,87.6" id="Path" fill="#FFFFFF"></path>
            <path d="M187,87.3 L204.5,87.3 C205.4,87.3 206.1,86.7 206.1,86 L185.4,86 C185.4,86.7 186.1,87.3 187,87.3" id="Path" fill="#D8E9ED"></path>
            <path d="M206.4,88.5 L185.2,88.5 C184.3,88.5 183.5,88 183.3,87.2 C183.3,87.3 183.2,87.5 183.2,87.6 C183.2,88.5 184.1,89.3 185.2,89.3 L206.4,89.3 C207.5,89.3 208.4,88.5 208.4,87.6 C208.4,87.5 208.3,87.3 208.3,87.2 C208,87.9 207.3,88.5 206.4,88.5" id="Path" fill="#B5D1D7"></path>
            <path d="M184.6,86.8 C184.6,87.6 183.9,88.3 183.1,88.3 C182.3,88.3 181.6,87.6 181.6,86.8 L176.7,59.8 C176.7,59 177.4,58.3 178.2,58.3 C179,58.3 179.7,59 179.7,59.8 L184.6,86.8 Z" id="Path" fill="#B5D1D7"></path>
            <path d="M132.8,78.7 L132.8,79.2 C132.8,79.2 132.9,79.6 133.5,79.2 C134.1,78.8 142.2,72.5 142.2,72.5 C142.2,72.5 142.6,72.2 142.1,71.9 L132.8,78.7 Z" id="Path" fill="#5B361F"></path>
            <path d="M131.9,79 C132.2,79 132.6,78.9 132.8,78.8 L141.9,72.1 C142.1,72 142.1,71.8 141.8,71.8 L114.4,71.1 C114.1,71.1 113.6,70.3 113.4,70.4 L102.6,76.8 C102.4,76.9 102.4,77.1 102.7,77.1 L131.9,79 Z" id="Path" fill="#FFFFFF"></path>
            <path d="M132.8,79 C132.8,79.3 132.6,79.5 132.3,79.4 L102.8,77.5 C102.5,77.5 102.3,77.2 102.3,76.9 L102.3,49.9 C102.3,49.6 102.5,49.4 102.8,49.5 L132.3,51.4 C132.6,51.4 132.8,51.7 132.8,52 L132.8,79 Z" id="Path" fill="#402A1B"></path>
            <path d="M132.8,78.7 C132.8,79 132.6,79.2 132.3,79.1 L102.8,77.3 C102.5,77.3 102.3,77 102.3,76.7 L102.3,49.7 C102.3,49.4 102.5,49.2 102.8,49.2 L132.3,51.1 C132.6,51.1 132.8,51.4 132.8,51.7 L132.8,78.7 Z" id="Path" fill="#B5D1D7"></path>
            <path d="M119.3,65.7 C119.5,65.4 119.6,65 119.6,64.6 C119.6,63.4 118.6,62.3 117.4,62.2 C116.2,62.1 115.2,62.9 115.2,64.1 C115.2,64.5 115.3,64.9 115.5,65.3 C116.1,66.4 116.2,66.7 116.2,67.2 C116.2,67.9 116.2,68.5 116.2,68.5 L117.4,68.6 L118.6,68.7 C118.6,68.7 118.6,68.1 118.6,67.4 C118.6,66.9 118.7,66.7 119.3,65.7" id="Path" fill="#FFFFFF"></path>
            <path d="M117.5,68.9 L116.7,68.8 C116.8,69.5 117.5,69.5 117.5,69.5 C117.5,69.5 118.2,69.6 118.3,68.9 L117.5,68.9 Z" id="Path" fill="#FFFFFF"></path>
            <path d="M118.9,68 C118.9,68.2 118.7,68.4 118.5,68.3 L116.3,68.1 C116.1,68.1 115.9,67.9 115.9,67.7 C115.9,67.5 116.1,67.3 116.3,67.4 L118.5,67.6 C118.8,67.6 118.9,67.8 118.9,68" id="Path" fill="#FFFFFF"></path>
            <path d="M118.8,67.9 C118.8,68.1 118.6,68.2 118.4,68.2 L116.3,68 C116.1,68 115.9,67.8 115.9,67.7 C115.9,67.5 116.1,67.4 116.2,67.4 L118.2,67.6 C118.7,67.6 118.8,67.7 118.8,67.9" id="Path" fill="#FFFFFF"></path>
            <path d="M119,68.7 C119,68.9 118.8,69.1 118.6,69 L116.4,68.8 C116.2,68.8 116,68.6 116,68.4 C116,68.2 116.2,68 116.4,68.1 L118.6,68.3 C118.8,68.3 118.9,68.5 119,68.7" id="Path" fill="#FFFFFF"></path>
            <polyline id="Path" fill="#FFFFFF" points="117.4 60.6 117.6 60.8 117.6 61.7 117.4 61.8 117.3 61.6 117.3 60.7 117.4 60.6"></polyline>
            <polyline id="Path" fill="#FFFFFF" points="115.5 60.9 115.7 61 116.1 61.8 116 62 115.9 61.9 115.4 61.1 115.5 60.9"></polyline>
            <polyline id="Path" fill="#FFFFFF" points="114 62.2 114.2 62.1 115 62.7 115 62.9 114.8 62.9 114.1 62.4 114 62.2"></polyline>
            <polyline id="Path" fill="#FFFFFF" points="113.5 64.1 113.6 64 114.5 64.1 114.6 64.2 114.5 64.4 113.6 64.3 113.5 64.1"></polyline>
            <polyline id="Path" fill="#FFFFFF" points="114 66.2 114 66 114.8 65.6 115 65.7 115 65.9 114.2 66.2 114 66.2"></polyline>
            <polyline id="Path" fill="#FFFFFF" points="119.4 61.4 119.2 61.4 118.8 62.1 118.8 62.3 119 62.3 119.5 61.6 119.4 61.4"></polyline>
            <polyline id="Path" fill="#FFFFFF" points="120.9 63 120.7 62.9 119.9 63.2 119.9 63.4 120.1 63.5 120.8 63.2 120.9 63"></polyline>
            <polyline id="Path" fill="#FFFFFF" points="121.5 65 121.3 64.8 120.4 64.7 120.3 64.9 120.4 65 121.3 65.1 121.5 65"></polyline>
            <polyline id="Path" fill="#FFFFFF" points="121 66.9 120.9 66.7 120.1 66.2 119.9 66.2 120 66.4 120.8 67 121 66.9"></polyline>
            <path d="M118.8,68.7 C118.8,68.9 118.6,69 118.5,69 L116.4,68.8 C116.2,68.8 116.1,68.6 116.1,68.5 C116.1,68.3 116.3,68.2 116.4,68.2 L118.5,68.4 C118.7,68.3 118.8,68.5 118.8,68.7" id="Path" fill="#FFFFFF"></path>
            <path d="M142.5,71.3 C142.5,71.3 144.2,71.5 144.7,70.8 C145.2,70 146,69.6 147,69.5 C147,69.5 146.8,67 144.2,66.1 C141.6,65.2 138.4,63.7 137.9,64.1 C137.5,64.5 142.5,71.3 142.5,71.3" id="Path" fill="#EDAC72"></path>
            <path d="M136.6,64.2 C135.5,65.1 132.6,68.1 133.4,69.3 C134.2,70.4 134.8,70.1 135.1,70.6 C135.3,71.1 135.7,71.4 136.4,71.8 C137.1,72.3 138.2,72.2 138.8,72.6 C139.4,73 140.5,73.7 141.5,72.6 C142.6,71.5 143.9,69.5 144,68.8 C144.1,68.2 143.7,67.4 143,67.1 C142.3,66.9 141.9,66 141.4,65.8 C140.9,65.6 140.3,65.4 139.9,65 C139.5,64.6 138.8,64.6 138.6,64.4 C138.4,64.3 137.4,63.5 136.6,64.2" id="Path" fill="#F8B174"></path>
            <path d="M218.2,83.6 C218.2,83.6 215.2,82.9 214.3,82.4 C213.4,81.9 206.9,82.7 204.1,85.4 C202.3,87.2 206,86.7 208.3,86.6 C210.6,86.4 218,87.8 219.2,88.2 C220.4,88.5 218.2,83.6 218.2,83.6" id="Path" fill="#F1A05B"></path>
            <path d="M244.8,74.1 C244.5,75 242.1,82.8 240.3,85.3 C240.3,85.3 220.1,82 216.1,81.7 L214.4,89.2 C216.8,90.3 244.5,97.9 245.4,96.5 C250.9,88.5 252.8,86.3 257,76 C261.1,65.8 267,61.1 261.5,58.7 C248.7,53.3 245.2,73.3 244.8,74.1" id="Path" fill="#141B30"></path>
            <path d="M247.5,49.6 L247.5,49.2 L250.3,46.7 C250.9,47.4 252,47.7 252.9,46.9 L263.1,37.7 C263.9,42.8 261.6,48.3 261.3,49.3 C261,50.5 261.6,53.3 262.6,56.3 C259.6,57.1 256.6,57.8 253.6,58.2 C254.4,56.1 255,51.8 250.3,52.6 C246,53.3 246.1,51.6 246.4,50.3 C247.1,50.1 247.5,50.5 247.5,49.6" id="Path" fill="#F8B174"></path>
            <path d="M252.1,32.2 C251.4,32.8 247.9,33.8 246.7,37.3 C246,39.2 246.2,39 246.4,39.7 C246.8,40.9 245.7,42 245.1,42.7 C244.1,43.7 243.1,44.2 244.4,45 C245.8,45.9 245.1,46.4 244.7,46.7 C244.3,47 244.9,47.7 245.1,47.9 C245.1,47.9 244.3,48.5 244.8,49 C245.2,49.5 245.8,49.5 245.8,49.9 C245.8,50.3 245.2,52 245.9,52.6 C246.6,53.3 248.7,53 249.8,53 C250.7,53 252,53 252.9,54.1 C256,57.4 255.3,58.7 255.3,58.7 C255.3,58.7 257.6,59.1 260.8,56.9 C261.5,56.4 259.5,57.4 259.3,55.9 C259,53.4 267.1,42.6 263.1,42 C262.9,42 254.6,37.9 254.6,37.9 L252.1,32.2 Z" id="Path" fill="#F8B174"></path>
            <path d="M266.2,35.5 C264.1,33.1 259.1,29.6 255.5,29.9 C254.1,30 253,31 252,32.2 C251.2,32.8 247.9,33.9 246.7,37.2 C246,39.1 246.2,38.9 246.4,39.6 C246.8,40.8 245.7,41.9 245.1,42.6 C244.1,43.6 243.1,44.1 244.4,44.9 C245.8,45.8 245.1,46.3 244.7,46.6 C244.3,46.9 244.9,47.6 245.1,47.8 C245.1,47.8 244.3,48.4 244.8,48.9 C245.2,49.4 245.8,49.4 245.8,49.8 C245.8,50.2 245.2,51.9 245.9,52.5 C246.6,53.2 248.7,52.9 249.8,52.9 C250,52.9 250.3,52.9 250.5,52.9 C250.6,53.1 250.8,53.3 250.9,53.5 C251.2,54 251,55.1 251.3,55.6 C251.6,56.1 252,56.2 252.1,56.6 C252.5,58.1 251.5,59.4 251.5,59.4 L255.3,57.4 C255.5,58.2 255.4,58.5 255.4,58.5 C255.4,58.5 257.7,58.9 260.9,56.7 C261.6,56.2 259.6,57.2 259.4,55.7 C259.4,55.6 259.4,55.5 259.4,55.3 L261.3,54.3 C261.3,54.3 263,50.3 265.9,45.9 C268.8,41.9 268.3,37.9 266.2,35.5" id="Path" fill="#F8B174"></path>
            <path d="M269.7,38.1 C268.5,33.5 266.7,28.8 261.5,28.3 C256.2,27.8 250.5,29.4 250.1,27 C250.1,27 247.3,31.8 248.8,34.3 C249.4,33.4 255.3,42.4 256.2,43.7 C257.2,45 256.6,41.2 258.5,41.5 C260.4,41.8 261.3,45.8 260.5,47.6 C259.9,48.9 261.8,51.9 261.8,51.9 L261.6,53.1 L264.7,50 C264.7,50 270.8,42.8 269.7,38.1" id="Path" fill="#25100D"></path>
            <path d="M272.3,114.2 C272.3,114.2 271.5,80.9 271.5,77.7 C271.5,74.4 270.5,59.1 264.1,56.8 L262.4,54.2 L252.1,58.5 C252.1,58.5 246.7,64.7 245.9,72.3 C245.3,78 246.2,86.3 247.8,92.6 C249.4,98.9 252.5,116.2 252.5,116.2 L272.3,114.2 Z" id="Path" fill="#026A9D"></path>
            <path d="M220.5,87.1 C220.5,87.1 217.5,85.9 216.6,85.2 C214.5,83.8 208,85.2 205.3,86.8 C203,88.2 206.8,89.2 209.7,88.5 C212.1,87.9 219.6,91.5 220.8,92.1 C222.1,92.7 220.5,87.1 220.5,87.1" id="Path" fill="#F8B174"></path>
            <path d="M230.6,177.6 C231.7,178.7 235.1,180.1 236.8,179.7 C238.5,179.3 240.8,177.3 241.2,178.6 C241.7,179.8 242.5,183.3 241.9,185.1 C241.9,185.1 242.3,185.5 242.1,186.5 C241.8,187.5 239.5,187.7 236.6,187.7 C233.6,187.7 224.7,188.4 222.2,187.6 C219.7,186.9 217.5,185.9 217.2,184.7 C216.9,183.5 216.2,181.1 218.4,181.4 C220.6,181.7 223.2,181.7 224.3,181.1 C225.4,180.4 227.9,179.4 228.9,178.4 C229.8,177.4 230.2,177.1 230.6,177.6" id="Path" fill="#093C5D"></path>
            <path d="M255,129.4 C255,129.4 237.8,128.2 237.8,131.1 L241.6,178.5 C237.8,185.3 228.1,180.8 228.1,180.8 C228.1,180.8 223.8,122.1 223.9,120.8 C224.2,117 233.9,115.1 245.4,115.1 L255,129.4 Z" id="Path" fill="#D35715"></path>
            <path d="M224.3,181.5 C225.4,182.6 229.1,184.2 230.9,183.7 C232.7,183.3 235.1,181.2 235.7,182.5 C236.2,183.8 237.1,187.5 236.4,189.5 C236.4,189.5 236.9,190 236.6,191 C236.3,192 233.8,192.3 230.7,192.3 C227.5,192.3 218,193 215.3,192.2 C212.7,191.4 210.3,190.4 209.9,189.1 C209.5,187.9 208.8,185.2 211.2,185.6 C213.6,186 216.3,185.9 217.6,185.2 C218.8,184.5 221.4,183.4 222.5,182.3 C223.4,181.3 223.8,181 224.3,181.5" id="Path" fill="#026A9D"></path>
            <path d="M252.5,187.4 C252.5,188.9 253.7,190.1 255.2,190.1 C256.7,190.1 257.9,188.9 257.9,187.4 L257.9,130.5 C257.9,129 256.7,127.8 255.2,127.8 C253.7,127.8 252.5,129 252.5,130.5 L252.5,187.4 Z" id="Path" fill="#88522E"></path>
            <path d="M272.7,132.9 C272.7,135.1 274.5,137 276.8,137 C279,137 280.9,135.2 280.9,132.9 L283.6,70.3 C283.6,68.1 281.8,66.2 279.5,66.2 C277.3,66.2 275.4,68 275.4,70.3 L272.7,132.9 Z" id="Path" fill="#5B361F"></path>
            <path d="M234.1,132.5 C234.1,130.1 236.1,128.1 238.5,128.1 L276.4,128.1 C278.8,128.1 280.8,130.1 280.8,132.5 C280.8,134.9 278.8,136.9 276.4,136.9 L238.5,136.9 C236,136.9 234.1,135 234.1,132.5" id="Path" fill="#402A1B"></path>
            <path d="M244.2,188.4 C244.2,186.7 245.6,185.4 247.2,185.4 L264.1,185.4 C265.8,185.4 267.1,186.8 267.1,188.4 C267.1,190.1 265.7,191.4 264.1,191.4 L247.2,191.4 C245.6,191.4 244.2,190.1 244.2,188.4" id="Path" fill="#402A1B"></path>
            <path d="M250.4,130.4 C250.4,130.4 232.1,129.2 232.1,132.2 L236.2,182.5 C232.1,189.7 221.7,184.9 221.7,184.9 C221.7,184.9 217.1,122.5 217.3,121.2 C217.7,117.2 228,112.8 240.3,112.8 L250.4,130.4 Z" id="Path" fill="#E16F0D"></path>
            <path d="M272.2,110.8 C272.2,110.8 275.3,124.3 271.1,127.3 C265.5,131.2 250.3,130.4 250.3,130.4 L238.3,112.7 L272.2,110.8 Z" id="Path" fill="#E16F0D"></path>
            <path d="M248.6,77.5 C248.2,78.3 245.4,86 243.5,88.4 C243.5,88.4 221.7,85.3 217.7,84.8 L216.2,92.1 C218.6,93.3 247.2,101.4 248.3,100 C254.4,92.3 256.4,90.2 261.2,80.2 C265.9,70.2 269.1,63.5 263.5,60.7 C250.4,54.5 249,76.7 248.6,77.5" id="Path" fill="#093C5D"></path>
            <path d="M258.3,48.7 C257.2,52.6 249.8,53 249.8,53 C250,53 250.3,53 250.5,53 C250.6,53.2 250.8,53.4 250.9,53.6 C251,53.8 251.1,54.2 251.1,54.6 C258.5,54 258.3,48.7 258.3,48.7" id="Path" fill="#F1A05B"></path>
            <path d="M223.3,50.9 C223.3,50.9 229.3,50.2 232.8,46.3 C236.4,42.5 239,49.4 239,49.4 C239,49.4 239.7,54.6 237.3,56.3 C234.9,58 227.6,63.1 224,61.5 C220.4,59.9 216.2,61.6 216.1,57.3 C216,53 217.9,50 217.9,50 L223.3,50.9 Z" id="Path" fill="#3A8835"></path>
            <polyline id="Path" fill="#79B849" points="740 240.5 745.5 246.1 737.4 248.6 732.6 242.9 740 240.5"></polyline>
            <path d="M742,244.2 C742.7,244.1 745.8,240.6 745.8,240.6 C746.9,241.1 747.5,242.2 747.5,243.3 L747.5,244.9 L756.3,248.1 C757,248.4 757.5,249 757.6,249.7 C757.8,250.8 757.1,251.8 756.1,252.1 C753.7,252.7 751.3,253 748.8,252.9 L734.6,252.5 C733,252.4 731.8,251 732,249.4 L732.4,246.7 C732.6,245.8 733.5,245.1 734.4,245.4 C735.7,245.7 737.2,246.1 737.6,246.1 C738.2,246.2 742,244.2 742,244.2" id="Path" fill="#3D3D3B"></path>
            <path d="M756,252.1 C757,251.8 757.7,250.8 757.5,249.7 C757.5,249.5 757.4,249.3 757.3,249.1 C754.8,250.9 751.7,251.7 748.6,251.3 L731.9,249.1 L731.9,249.3 C731.7,250.9 732.9,252.3 734.5,252.4 L748.7,252.8 C751.2,253 753.7,252.7 756,252.1" id="Path" fill="#147ABF"></path>
            <path d="M748.2,245.2 L746.3,247.2 C746.1,247.4 745.7,247.4 745.4,247.2 C745.2,247 745.2,246.6 745.4,246.3 L747.3,244.3 C747.5,244.1 747.9,244.1 748.2,244.3 C748.5,244.6 748.5,245 748.2,245.2" id="Path" fill="#E6E7E7"></path>
            <path d="M750.1,245.8 L748.3,247.6 C748.1,247.8 747.7,247.8 747.4,247.6 C747.2,247.4 747.2,247 747.4,246.7 L749.2,244.9 C749.4,244.7 749.8,244.7 750.1,244.9 C750.3,245.2 750.3,245.6 750.1,245.8" id="Path" fill="#E6E7E7"></path>
            <path d="M751.8,246.6 L750.3,248.1 C750.1,248.3 749.7,248.3 749.4,248.1 C749.2,247.9 749.2,247.5 749.4,247.2 L750.9,245.7 C751.1,245.5 751.5,245.5 751.8,245.7 C752,246 752,246.3 751.8,246.6" id="Path" fill="#E6E7E7"></path>
            <path d="M753.4,247.1 L752.2,248.3 C752,248.5 751.6,248.5 751.3,248.3 C751.1,248.1 751.1,247.7 751.3,247.4 L752.5,246.2 C752.7,246 753.1,246 753.3,246.2 C753.6,246.5 753.6,246.9 753.4,247.1" id="Path" fill="#E6E7E7"></path>
            <path d="M759.8,241.9 C765,240.3 768,234.9 768,234.9 L768.6,246.4 C768.6,246.4 769.1,251.6 764.8,249.7 C760.5,247.8 747.5,248.5 747.5,248.5 C747.5,248.5 746.2,243.4 747.5,242.5 C748.8,241.6 751.3,241.8 753.8,242 C755.9,242.2 758.2,242.4 759.8,241.9" id="Path" fill="#82BD53"></path>
            <path d="M764.8,241.3 C764.8,240.6 761.8,237 761.8,237 C762.5,236 763.6,235.5 764.8,235.7 L766.4,235.9 L770.9,227.7 C771.3,227 772,226.6 772.7,226.6 C773.8,226.6 774.7,227.4 774.8,228.5 C775,230.9 775,233.4 774.5,235.8 L771.9,249.8 C771.6,251.4 770,252.4 768.4,251.9 L765.8,251.1 C764.9,250.8 764.4,249.8 764.8,248.9 C765.3,247.7 765.9,246.2 766,245.9 C766.3,245.2 764.8,241.3 764.8,241.3" id="Path" fill="#3D3D3B"></path>
            <path d="M774.8,228.5 C774.7,227.4 773.8,226.6 772.7,226.6 C772.5,226.6 772.3,226.6 772.1,226.7 C773.5,229.5 773.8,232.6 772.9,235.6 L768.2,251.7 L768.4,251.8 C769.9,252.3 771.6,251.3 771.9,249.7 L774.5,235.7 C775,233.4 775.1,231 774.8,228.5" id="Path" fill="#147ABF"></path>
            <path d="M766.9,235.2 L768.5,237.4 C768.7,237.7 768.6,238.1 768.4,238.3 C768.1,238.5 767.7,238.4 767.5,238.2 L765.9,236 C765.7,235.7 765.8,235.3 766,235.1 C766.3,234.9 766.7,235 766.9,235.2" id="Path" fill="#E6E7E7"></path>
            <path d="M767.7,233.5 L769.2,235.5 C769.4,235.8 769.3,236.2 769.1,236.4 C768.8,236.6 768.4,236.5 768.2,236.3 L766.7,234.3 C766.5,234 766.5,233.6 766.8,233.4 C767.1,233.2 767.5,233.2 767.7,233.5" id="Path" fill="#E6E7E7"></path>
            <path d="M768.7,231.9 L770,233.6 C770.2,233.9 770.1,234.3 769.9,234.5 C769.6,234.7 769.3,234.6 769.1,234.4 L767.8,232.7 C767.6,232.4 767.6,232 767.9,231.8 C768.1,231.6 768.5,231.7 768.7,231.9" id="Path" fill="#E6E7E7"></path>
            <path d="M769.5,230.4 L770.5,231.8 C770.7,232.1 770.6,232.5 770.4,232.7 C770.1,232.9 769.7,232.8 769.6,232.6 L768.6,231.2 C768.4,230.9 768.4,230.5 768.7,230.3 C768.9,230.1 769.3,230.2 769.5,230.4" id="Path" fill="#E6E7E7"></path>
            <path d="M685,230.9 C702.8,214.8 714.9,203.5 721.6,211.7 C730.6,221.5 728.6,221.8 740.3,241 L734.9,247.1 L715.3,226.3 L696.3,244.3 L670.8,243.7 L668.7,231.8 C668.8,231.9 676.7,238.4 685,230.9" id="Path" fill="#D52D1E"></path>
            <path d="M738.6,238.2 C735.3,237.8 732.1,237.5 729.4,237.3 C724.7,232.7 718.8,226.8 714.3,221.9 C711.9,228.4 706.4,233 700.1,236.3 C695.6,236.1 691.5,235.8 688.8,235.4 L685,231.1 L685,231.1 C698.7,218.7 709,209.2 716.1,209.2 C718.2,209.2 720.1,210.1 721.6,212 C730.2,221 728.8,221.8 738.6,238.2 M669.5,235.9 L668.8,231.9 C668.8,231.9 671,233.7 674.4,234.3 L669.5,235.9" id="Shape" fill="#BF291B"></path>
            <path d="M732.8,206.7 L728.9,205.3 L727.1,204 L727.4,202.9 C727.3,202.5 726.8,202.4 726.5,202.6 L723.2,205.5 L720.8,209 L702.3,209.5 L696.1,199.4 L690.6,200 C690.6,200 694.5,214.3 697.8,217 C699.9,218.3 715.8,214.6 721.6,213.2 C724.9,212.4 724.8,214.7 729,211.5 C729.7,210.9 730.1,209.9 730.8,209 C731.9,207.6 732.8,206.7 732.8,206.7" id="Path" fill="#F8B78B"></path>
            <path d="M717.4,208.4 L702.5,209 L695.4,193.8 L686.6,199.7 C686.6,199.7 693.3,215.2 696.6,218 C698.7,219.3 710.6,216.8 716.4,215.4 C719.1,214.7 718.3,210.4 718,208.9 C718,208.6 717.7,208.4 717.4,208.4" id="Path" fill="#147ABF"></path>
            <path d="M730.2,199.9 L722.6,208.5 C722.4,208.7 722.4,209.1 722.6,209.3 L725.2,211.6 L733.5,202.2 L730.9,199.9 C730.8,199.7 730.4,199.7 730.2,199.9" id="Path" fill="#3D3D3B"></path>
            <path d="M730.5,200.7 C730.3,200.6 730.1,200.6 730,200.7 L723.4,208.1 C723.3,208.3 723.3,208.5 723.4,208.6 L725.1,210.1 C725.3,210.2 725.5,210.2 725.6,210.1 L732.2,202.6 C732.3,202.4 732.3,202.2 732.2,202.1 L730.5,200.7 Z" id="Path" fill="#FFFFFF"></path>
            <path d="M733.6,202.2 C733.5,202.1 733.3,202.1 733.1,202.2 L725.3,211 C725.2,211.1 725.2,211.3 725.3,211.5 L725.7,211.8 C725.8,211.9 726.1,211.9 726.2,211.8 L734,203 C734.1,202.9 734.1,202.7 734,202.5 L733.6,202.2 Z" id="Path" fill="#BBBCBD"></path>
            <path d="M732.9,203 L732.2,203.8 C732.1,203.9 732.1,204 732.2,204.1 C732.3,204.2 732.4,204.2 732.5,204.1 L733.2,203.3 C733.3,203.2 733.3,203.1 733.2,203 C733.1,202.9 732.9,202.9 732.9,203" id="Path" fill="#FFFFFF"></path>
            <path d="M731.1,205 L729.5,206.8 C729.4,206.9 729.4,207 729.5,207.1 C729.6,207.2 729.7,207.2 729.8,207.1 L731.4,205.3 C731.5,205.2 731.5,205.1 731.4,205 C731.4,204.9 731.2,204.9 731.1,205" id="Path" fill="#FFFFFF"></path>
            <path d="M728.6,206.3 L728.6,206.3 C728.6,205.8 729,205.5 729.5,205.5 L732.3,205.6 C732.8,205.6 733.1,206 733.1,206.5 C733.1,207 732.7,207.3 732.2,207.3 L729.4,207.2 C728.9,207.2 728.6,206.8 728.6,206.3" id="Path" fill="#F8B78B"></path>
            <path d="M727.5,207.7 L727.5,207.7 C727.5,207.2 727.9,206.9 728.4,206.9 L731.2,207 C731.7,207 732,207.4 732,207.9 C732,208.4 731.6,208.7 731.1,208.7 L728.3,208.6 C727.9,208.6 727.5,208.2 727.5,207.7" id="Path" fill="#F8B78B"></path>
            <path d="M726.5,208.8 L726.5,208.8 C726.6,208.3 727,208 727.5,208.1 L730.3,208.7 C730.8,208.8 731.1,209.2 731,209.7 C730.9,210.2 730.5,210.5 730,210.4 L727.2,209.8 C726.7,209.7 726.4,209.3 726.5,208.8" id="Path" fill="#F8B78B"></path>
            <path d="M725.9,209.9 L725.9,209.9 C726,209.5 726.4,209.3 726.8,209.5 L729,210.3 C729.4,210.4 729.6,210.8 729.4,211.2 C729.3,211.6 728.9,211.8 728.5,211.6 L726.3,210.8 C726,210.6 725.8,210.2 725.9,209.9" id="Path" fill="#F8B78B"></path>
            <polyline id="Path" fill="#B3D4E5" points="725.2 236.8 725.2 236.8 715.4 226.4 704.9 236.4 704.9 236.4 715.4 226.4 725.2 236.8"></polyline>
            <path d="M729.5,237.2 C727.8,237 726.3,236.9 725.2,236.8 L715.4,226.4 L704.9,236.4 C703.3,236.3 701.7,236.3 700.2,236.2 C706.5,232.9 712,228.3 714.4,221.8 C718.9,226.7 724.8,232.6 729.5,237.2" id="Path" fill="#B5271A"></path>
            <path d="M698.6,192.8 L698.6,201.4 C698.6,201.7 698.3,202 698,202 C697.7,202 697.4,201.7 697.4,201.4 L697.4,192.8 C697.4,192.5 697.7,192.2 698,192.2 C698.3,192.2 698.6,192.4 698.6,192.8" id="Path" fill="#E6E7E7"></path>
            <path d="M698.5,192.6 C698.5,192.6 699,194.1 699.5,196 C700,198 700.5,200.5 700.5,202.7 C700.5,203.2 700.5,203.8 700.4,204.2 C700.3,204.5 700,204.8 699.7,204.7 C699.4,204.7 699.1,204.3 699.2,204 C699.3,203.6 699.3,203.1 699.3,202.6 C699.3,200.6 698.8,198.2 698.4,196.2 C698.2,195.2 697.9,194.4 697.8,193.8 C697.7,193.5 697.6,193.3 697.6,193.1 C697.5,192.9 697.5,192.9 697.5,192.9 C697.4,192.6 697.6,192.2 697.9,192.1 C698.1,192.1 698.4,192.3 698.5,192.6 L698.5,192.6 Z" id="Path" fill="#E6E7E7"></path>
            <path d="M687.6,185.2 L691.3,178.1 L690.3,167.9 L699.4,161.1 L711.2,169.4 L709.5,174.2 L708.5,180.2 C708.5,180.9 707.9,181.5 707.2,181.5 L706.5,181.6 L704.4,185.4 C703.5,187 701.4,187.6 699.9,186.6 L699.9,186.6 L699.3,186.2 L696.1,191.7 L687.6,185.2 Z" id="Path" fill="#FBCCAA"></path>
            <path d="M665.9,237 L665.9,243.4 C665.9,248.3 668.8,252.2 674.4,253 C677,253.3 683.8,252.8 692.2,252.3 C701.7,251.7 713.1,251.1 722.9,251.8 C741.3,253 758.2,250.3 759.4,248.9 C760.6,247.5 761.7,243.2 759.5,241.5 C757.3,239.7 723,236.7 723,236.7 C715.1,236.7 696.7,236.5 688.8,235.3 L685,231 L665.9,237" id="Path" fill="#D52D1E"></path>
            <path d="M676.7,253 L676.7,253 C680.1,253 685.6,252.6 692.2,252.2 C698.7,251.8 706.1,251.4 713.2,251.4 L713.2,251.4 C706,251.4 698.6,251.8 692.2,252.2 C685.7,252.6 680.1,253 676.7,253 M676.1,253 C675.4,253 674.9,253 674.5,252.9 L674.5,252.9 L674.5,252.9 C674.9,253 675.4,253 676.1,253 M732.5,252 L732.5,252 C732.7,252 732.9,252 733.2,252 L733.2,252 C732.9,252 732.7,252 732.5,252" id="Shape" fill="#B3D4E5"></path>
            <path d="M732,252 C730.7,252 729.4,252 728.1,251.9 C729.4,252 730.7,252 732,252 M757.5,249.6 L757.5,249.6 C758.5,249.3 759.2,249 759.3,248.8 C759.3,248.8 759.3,248.8 759.3,248.7 L759.3,248.7 L759.3,248.7 C759.2,249 758.6,249.3 757.5,249.6" id="Shape" fill="#B3D4E5"></path>
            <path d="M747.7,251.3 L747.7,251.3 C751.2,250.9 754.1,250.5 756.2,250 L756.2,250 C754.2,250.4 751.2,250.9 747.7,251.3" id="Shape" fill="#3A3A38"></path>
            <path d="M740.6,251.8 C743.2,251.7 745.5,251.5 747.7,251.2 L747.7,251.2 C745.6,251.5 743.2,251.7 740.6,251.8 M756.2,249.9 L756.2,249.9 C756.7,249.8 757.1,249.7 757.5,249.6 L757.5,249.6 C757.1,249.7 756.7,249.8 756.2,249.9" id="Shape" fill="#1374B5"></path>
            <path d="M718.1,251.5 C717.3,251.5 716.5,251.5 715.7,251.4 C716.5,251.5 717.3,251.5 718.1,251.5" id="Path" fill="#B3D4E5"></path>
            <path d="M676.7,253 C676.5,253 676.2,253 676,253 C675.3,253 674.8,253 674.4,252.9 L674.4,252.9 C674.3,252.9 674.1,252.9 674,252.8 L674,252.8 C670.1,252.2 667.6,249.9 666.5,246.9 C669.7,250.2 673.1,251.6 677,251.6 C678.9,251.6 680.9,251.3 683,250.7 C686.6,249.7 690.6,249.3 694.7,249.3 C698.8,249.3 703,249.6 706.9,250 C710.9,250.3 714.6,250.7 717.7,250.7 C719.7,250.7 721.5,250.6 722.9,250.2 C728,248.8 742.1,248 751.3,248 C756,248 759.3,248.2 759.5,248.6 L759.5,248.7 C759.5,248.7 759.5,248.7 759.5,248.8 C759.3,249 758.7,249.3 757.7,249.6 L757.7,249.6 C757.3,249.7 756.9,249.8 756.4,249.9 C754.4,250.4 751.4,250.8 747.9,251.2 C745.7,251.4 743.4,251.6 740.8,251.8 C738.8,251.9 736.8,252 734.6,252 C734.2,252 733.7,252 733.3,252 C733.1,252 732.9,252 732.6,252 C732.4,252 732.3,252 732.1,252 C730.8,252 729.5,252 728.2,251.9 C726.5,251.8 724.7,251.8 722.9,251.6 L722.9,251.6 L722.9,251.6 C721.4,251.5 719.8,251.4 718.2,251.4 C717.4,251.4 716.6,251.4 715.8,251.3 C715,251.3 714.2,251.3 713.3,251.3 L713.3,251.3 L713.3,251.3 C706.1,251.3 698.7,251.7 692.3,252.1 C685.7,252.6 680.1,253 676.7,253" id="Path" fill="#CA2B1D"></path>
            <path d="M690.8,181.1 C682,181.7 667.3,190.8 664.4,209.7 C661.5,228.6 663.1,244.1 668.1,245 C673,245.9 691,242 690.1,232 C689.2,222 680.5,220.5 694.1,206.1 C696.7,203.4 698.2,199.8 698,196.1 C697.5,187.1 692.8,180.9 690.8,181.1" id="Path" fill="#026A9D"></path>
            <path d="M689.5,180.2 C689.5,180.2 694.2,177.5 694.4,177 C694.5,176.8 695,175.4 695.4,174 C695.9,172.5 697.5,171.7 699.1,172.1 L698.3,175.6 L699.9,176.1 L702,170.1 C702.4,169.1 703.5,168.6 704.5,169.1 L710.4,172.2 L711.4,171.8 C713.2,171.1 714.6,169.5 714.9,167.6 C715.2,165.9 714.8,164.2 713.7,162.9 L710,158.4 L708.7,160.7 L705.9,158.8 C703.1,156.9 699.5,156.5 696.3,157.6 L695.3,157.9 C692,159.1 689.4,161.8 688.5,165.2 C688,166.9 688,168.6 688.3,170.2 C688.8,172.9 689.3,175.6 689.5,178.3 L689.5,180.2 Z" id="Path" fill="#E5782B"></path>
            <path d="M696.3,182.6 C696.3,182.6 695.4,185.7 697.3,189.7 L699.4,186.1 L696.3,182.6 Z" id="Path" fill="#F8B78B"></path>
            <path d="M697.8,194.5 C697.8,194.5 693.9,183.7 678.6,187.9 C677.4,188.2 675.5,188.4 674.5,187.8 C673.4,187.7 674,182.5 677.6,182.5 C679.2,182.5 676.8,180.8 679.5,179.3 C682.7,177.5 688,177.6 691.8,180.7 C695.6,183.6 700.9,193.3 697.8,194.5" id="Path" fill="#147ABF"></path>
            <path d="M719.3,212.4 L719.7,208 L723.2,204.6 L727,203.7 C727,204.6 726.5,205.4 725.7,205.7 L724.1,206.4 L726.4,206.9 L727.2,208.4 L726.7,211.3 C726.7,211.3 724.2,216.4 716.2,218.6 C708.1,220.8 707.9,215 707.9,215 L719.3,212.4 Z" id="Path" fill="#FBCCAA"></path>
            <path d="M685.7,187.9 C690.2,186.7 694.1,190.6 695.1,195.2 C695.7,198 695.8,213.9 695.8,213.9 L716.8,212.9 C716.8,212.9 717.7,218.6 716.7,218.9 C713.1,220 688.9,227.2 686.3,223.9 C684.1,221.1 682.2,210.6 680.4,204 C677.6,193.5 681.8,188.9 685.7,187.9" id="Path" fill="#147ABF"></path>
        </g>
    </g>
</svg>