<svg height="250" viewBox="0 0 250 250" width="250" xmlns="http://www.w3.org/2000/svg"><g fill="none" transform="translate(59 10)"><g fill="#673328"><path d="m48.1 53.1081081-.3769231-.2702703v-.1081081l-.1615384-1.0810811-.1615385-2.1081081-1.4-.5405405v.3783784c0 .7567567 0 1.5135135.0538462 2.2702702 2.5846153 1.8378379 4.9538461 3.6216217 6.9461538 5.1351352 3.9307692 2.8648648 6.4615385 4.8648648 6.4615385 4.8648648l-1.0769231 1.3513514 1.3461538-.2162162c.1205682-.4619845.2105088-.9314815.2692308-1.4054054l-5.1153846-3.5675676z"/><path d="m95.0137931 77.7267442-.4413793.1569767-.6068966-1.8837209c-.5517241.8372093-1.0482758 1.622093-1.4896551 2.4069767-.4413793.7848838-.9379311 1.5697675-1.324138 2.3023256l-1.0482758 2.0406977-.7724138 1.5697674c-.0889568.2355671-.1997343.4632003-.3310345.6802326 1.5024343-1.722189 3.4114472-3.084553 5.5724138-3.9767442l.7172414-.2093023.3862069-.9418605c.3310345-.8372093.7724138-1.7267442 1.1586207-2.616279l.1655172-.3139535-.8827586.366279z"/><path d="m73.0801981 102.118852c-.2040998.448805-.3774754.911676-.5188654 1.385246-.3113192.905738-.5188654 1.811476-.7782981 2.663935s-.1556596.905737-.2594327 1.278688-.1556596.852459-.2075461 1.22541c-.0518866.372951-.0518866.532787-.1037731.79918-.0518866.266394-.0518866.213115-.0518866.319673 0 .106557-.0518865.692623-.103773 1.012295-.0518866.319672-.0518866 1.22541-.0518866 1.651639-.0140899.373789.00327.74813.0518866 1.118852v.42623l2.1792346-.319672h.2075461v-.266394c-.050404-.29978-.0850452-.60213-.103773-.905737 0-.42623-.0518866-.905738-.0518866-1.491804v-.959016c0-.319672.0518866-.692623.0518866-1.012295s.103773-.745902.103773-1.172131l.1556597-1.172131c.1462172-.879756.3367231-1.751142.5707519-2.610656.0968668-.450575.2181236-.895255.3632058-1.331967l.4669788-1.385246v-.106558l-1.4009365-.266393c-.1991609.359531-.3725742.73347-.5188654 1.118852z"/><path d="m103.215548 105.208451c-1.365421 1.303679-3.193412 2.021507-5.0883395 1.998122-.9524309.001252-1.8995623-.140575-2.8091873-.420658-2.4911661.630986-4.3992933 1.261972-5.3003534 1.419719h-.5830388c-.8249594.025971-1.5901275-.425377-1.9611308-1.156808-.7996101.218172-1.6146302.376365-2.4381625.47324.4240283 1.682629.795053 3.260094.5830389 3.575587-.9010601 1.156807-2.0671379 2.261032-3.3392227 3.733333-1.9360616 2.163618-4.0454175 4.168281-6.3074205 5.994366.1590106.525822.3180213 1.051643.4240283 1.577465.190482.793099.2970656 1.603744.3180212 2.418779 0 .315493-.0530035.578404-.0530035.73615v.262911l-4.4522968-.73615v-.368075c.0543866-.383715.0543866-.773092 0-1.156808l-1.3780919.683568h-.3180212c-2.5971732 0-9.7526502-7.414084-12.614841-11.147417-2.8621908-3.733334-1.7491166-4.469484-2.4911661-6.677935-.2650176-.893896.1590106-2.20845.795053-3.41784h-.0530035c-1.4149682 1.724883-3.5356897 2.72856-5.7773852 2.734272h-.3710247c1.1130742 1.051643 1.9611307 1.998122 1.9611307 1.998122 2.2261485 8.360564 7.9505301 13.303287 13.409894 18.719249 5.459364 5.415963.2120142 15.038498-.2650176 22.925822-.4240283 6.625352-2.7561838 7.151173-3.4982332 7.151173h-.2120142l-6.9964664.946479s4.5583039 1.524883 8.0035336 1.524883h.7420494c2.8091873-.157746 4.1872792-2.892019 6.8904594-2.892019.6971684.017674 1.3830349.178825 2.0141343.47324 1.8594473.621497 3.816338.906463 5.7773851.841314 2.3104467-.021131 4.6151541-.232182 6.8904594-.630986-2.3514061-.421842-4.6712285-1.001579-6.9434629-1.735211-3.975265-1.20939-1.7491166-10.831925-1.7491166-17.983099 0-7.151173 2.4911661-12.777464 5.4593639-16.247887 2.9681979-3.470422 7.4734983-8.886385 8.9575972-10.358685 1.484099-1.472301 12.6678449-3.680752 18.3922259-3.943662h1.166078c-1.811183-.115351-3.579173-.598578-5.194346-1.419719z"/><path d="m51.6286765 59.8780488-3.3584559-1.8495935-3.8382353-1.8495935-4.2113971-1.8495935-4.3180147-1.6910569-3.625-1.2682927-1.8658088.1585366c-1.1581158.0015525-2.3093276-.1767611-3.4117647-.5284553l3.8915441 1.5853659 4.2113971 1.902439 4.1580882 2.0081301 3.8915441 2.0609756 3.5183824 2.0609756 1.492647-.1056911c2.6373537-.0585356 5.1099583 1.2674779 6.5036765 3.4878049l1.3327206-.5284553-3.0386029-2.800813z"/><path d="m61.3837209 53c-.1246482.4068604-.221721.81997-.2906976 1.2371134-.3488373 1.1340206-.5813954 2.2164948-.8720931 3.2989691-.2906976 1.0824742-.4651162 2.0103093-.6395349 2.9381443-.1744186.9278351-.1744186.7731959-.2906976 1.185567-.0634042.4519378-.1605162.8996539-.2906977 1.3402062h2.7325581l.4069768-.3092784.9302325-.6185567c.0701448-.3749591.1090099-.7539936.1162791-1.1340206.1162791-.8762886.2325582-1.9072165.3488372-2.9381443.1162791-1.0309278.2906977-2.1649485.4651163-3.2989691h-.0581395z"/><path d="m63.1650312 45.1019489c-.2158787.6116931-.4317573 1.2233863-.5936663 1.8350795l-.4857271 1.7841051-.485727 1.784105c-.2158787.7646165-.3777877 1.4782585-.5396967 2.1919006-.161909.713642.0539697-.0509745.0539697-.1019489l.485727-.5097443 1.7809991-1.5292329.7016057-.5607188.161909-.8155909.323818-1.784105c.1079394-.8155909.2698484-1.5802074.4317574-2.3957983h-.161909z"/><path d="m74.0296296 54c-2.5407407 1.7135678-4.8222222 3.4271357-6.7407407 4.8643216l-3.837037 3.0954774-.2592593.2211055-.8296296.6633166-.362963.3316583c1.4214142.1850508 2.7580515.8204859 3.837037 1.8241206h.0518519c.7777778-.8291457 1.9703704-1.9899497 3.4740741-3.3718593 1.5037037-1.3819095 4.1481481-3.8140703 6.637037-5.8592965-.8107909-.3613321-1.4983889-.9786037-1.9703704-1.7688442z"/><path d="m69.8790698 46.8181818-.8186047.4363637-.7674418.490909c-.5308646.3318919-1.0433426.6961324-1.5348838 1.0909091l-1.3302325 1.0363637-.5116279.4363636-.6651163.6-1.6883721 1.6363636-.4604651.5454546c0 .0545454-.0511628.0545454-.0511628.1090909h-.0511628l2.2511628 1.8h.0511628v-.1090909c.1255682-.1456888.2291302-.3113024.3069767-.4909091.4126354-.6077256.8567356-1.1904483 1.3302326-1.7454545l.9209302-1.0909091 1.1255814-1.2 1.227907-1.1454546.6651163-.6.716279-.6 1.4325582-1.0363636c.3058373-.231772.6312765-.4326412.972093-.6l-1.7906977-.3818182z"/><path d="m45.606357 52.3397436-7.4229829-5.3397436c-.4356668.1570202-.8374309.3975044-1.1833741.7083333l.3765281.2724359c3.9266504 3.0512821 7.799511 6.2115385 11.0806846 8.8814103l2.797066 2.3429487 5.7555013 4.7948718.9144254-.2179487 1.0757946-1.3621795s-2.5281174-2.0160256-6.4547677-4.9038462c-1.9902201-1.525641-4.3569682-3.3237179-6.9388753-5.176282z"/><path d="m94.800759 65.7128954c-.0090156-.3767546-.0445252-.7523916-.1062618-1.1240876-.6614257-.1066677-1.3050711-.3048068-1.9127135-.5888078 0 .5888078.0531309 1.1776156 0 1.7664234-.0531309.5888077 0 1.3917275-.0531309 2.0875912-.053131.6958637-.2656547 2.676399-.4250475 4.0145985-.1593928 1.3381996-.4250474 2.6228711-.743833 3.8540146-.2556446 1.1940483-.5748919 2.3733695-.9563567 3.5328468-.3187856 1.0705596-.6907021 2.1411192-1.0626186 3.0510948-.3719165.9099757-1.1157496 2.5693431-1.540797 3.5328468l.6907021.1605839c.1529929-.2830606.3308042-.5517706.5313093-.8029197.1264419-.2220195.2331204-.4548836.3187856-.6958638l.743833-1.6058394 1.0094876-2.0875912c.3719166-.7493917.796964-1.5523114 1.2751424-2.3552312.4781783-.8029197.9032258-1.6058394 1.4345351-2.4622871l-.4781784-1.3917275.3719165-.1070559.9032258-.2676399.1593928-2.0875913c.0531309-1.4452554.0531309-2.8369829 0-4.2822384s-.0531309-1.4452555-.1593928-2.1411192z"/><path d="m99.816 67.504c-.728.84-1.4 1.736-2.128 2.688s-1.344 1.848-2.016 2.8l-.672 1.008c.896-.336 2.128-.728 3.584-1.344l.504-.224.56-.952c.56-.952 1.12-1.96 1.736-2.856l.616-.952c-.597855-.1708706-1.178918-.3957983-1.736-.672z"/><path d="m106.52861 69.0810811-2.692098 1.5675675c-1.553133.8108109-3.106267 1.5675676-4.4523158 2.1081082l-.4659401.2162162c-1.346049.5945946-2.4850136.9729729-3.3133515 1.2972973h-.3623978l-.880109.2702702-.3623978.1081081.4659401 1.4054055.5694822 1.9459459.414169-.1621622 1.0354223-.4324324.8283379-.3783784 2.7956405-1.4594594c1.501362-.8108108 3.158038-1.7837838 4.918256-2.972973l2.588556-1.8378378 2.588556-2.1081082c.828338-.7567567 1.656675-1.5135135 2.433242-2.3243243l.362398-.3243243c-1.445166.6654917-2.93285 1.225397-4.452316 1.6756757z"/><path d="m76.1891892 120.89486c-.6126318-1.902499-1.3345384-3.768493-2.1621622-5.588785l-.5945946-1.235982-2.2702702.32243v-.429906c-.0506475-.373921-.0687326-.751491-.0540541-1.128505 0-.429906 0-1.021028.0540541-1.665888.054054-.64486.054054-.64486.1081081-1.021028.054054-.376168.054054-.214953.054054-.32243-1.1891892-2.149532-2.4324324-4.46028-3.7837838-6.824766-.7547969.601962-1.6165739 1.057677-2.5405405 1.343458 2.2162162 4.514019 4.1081081 8.813084 5.4594595 12.413551.8442483 2.118769 1.477899 4.314593 1.8918919 6.556075-.0045982.127586.0137059.254966.054054.376168.0554646.392152.0554646.790091 0 1.182243v.376169l4.5405405.752336v-.268692c0-.161215.0540541-.429906.0540541-.752336-.021371-.832956-.1300671-1.661425-.3243243-2.471963-.1621622-.537383-.3243243-1.074766-.4864865-1.612149z"/></g><path d="m109.187767 13.4302697c-1.573505.0444579-3.132606.3125791-4.630189.796261-.989384-1.8939505-2.968432-3.0659968-5.1091742-3.025792-1.2704803.0212072-2.5220377.3106791-3.672219.8493451 0 0-1.0111908-3.92822113-4.3108659-3.92822113-1.3193019.07445429-2.5913675.51577711-3.6722191 1.27401768 0 0 .4257645-3.07887605-2.8739106-3.07887605l-.9579702.10616814s-1.4901759-5.20223884-6.0671446-5.20223884c-1.0642657.02655008-2.1129832.26100458-3.0867928.69009291 0 0-2.9803517-1.91102651-6.0671446-1.91102651-2.0756021 0-4.2044247.90242919-5.3752772 3.92822116l-1.1708525 2.86653977c-1.3787948-1.04590359-3.0577722-1.62273481-4.7898509-1.64560616-1.8302798.02671822-3.6032097.64099856-5.0559538 1.7517743 0 0-2.5545872-3.98130523-7.0251148-3.98130523-1.7531094.04693472-3.4618343.56007009-4.9495127 1.48635395-7.4508793 4.51214593-6.1203651 5.30840698-7.610541 8.33419891h-.372544c-1.3305141 0-6.013924.3715885-7.4508793 5.5207433 0 0-1.8627198 1.3271017.3193234 3.2912123 0 0 .6918674 3.2381283-1.0111907 3.2381283h-.4789851c-1.2544467-.4105108-2.5649168-.625378-3.8851014-.6370089-2.3777379-.0210129-4.6764463.8506349-6.4396885 2.4418673-3.83188079 3.2912123-3.1400134 4.9899025-1.969161 6.7947609 0 0 .7983085 1.4863539-1.49017583 2.3356991-2.28848435.8493451-6.6525708 2.9727079-5.6946006 5.9454158 0 0-6.97189421 7.3256016-3.14001342 8.8119555 0 0-.74508793 3.1850442 1.38373472 4.3528938h.10644114c.32545051-.0056647.64826968-.0593299.95797019-.1592522.35186708.1682828.72974407.2759708 1.1176319.3185044h.63864679c2.50537175.0862303 4.91411661-.9685552 6.54612971-2.8665398.6432124-.8253605 1.1301603-1.7607808 1.4369553-2.7603716l.5322056.2123363c1.334324.2517721 2.687126.3938071 4.0447631.4246725 1.9929892.0653106 3.9592933-.4712608 5.64138-1.539438 2.3949255-1.6986902 2.9271312-4.1405574 2.5545872-6.6355087.4281673.3456045.9439792.5660998 1.4901759.6370088 1.536725.1871213 3.0822593.2934365 4.6301892.3185044 2.4494636.0619448 4.8830593-.4090343 7.1315559-1.3801858 1.4619196-.6392445 2.6891294-1.7149356 3.5125574-3.078876l.2128823.2654203c1.9298014 2.1161479 4.6375231 3.3611869 7.5040999 3.4504646h.7450879c2.7297594-.2292773 4.9266451-2.3319932 5.2688361-5.0429867 6.5993502-.5839247 13.4115827-1.9641106 16.7644784-6.3700883.9041166.5834277 1.9567561.8965676 3.0335723.9024291.7090271.006106 1.4129616-.1199172 2.0756021-.3715884.2661028 1.539438.7983085 3.0257919 1.9691609 4.0343893 1.0303108.8998352 2.3560252 1.3909805 3.7254397 1.3801858.6861683-.0063201 1.3676421-.1136452 2.0223815-.3185045 1.7708044-.655984 3.3076487-1.8195125 4.417307-3.3442963.1256939-.1646923.2327831-.3427166.3193234-.5308407 1.0579949.1464274 2.1251147.2173863 3.193234.2123362 2.6763114.0698904 5.3110859-.6703961 7.5573208-2.1233628 3.086792-2.0171946 4.949512-5.0960707 5.854262-8.5465352 1.081751-.1137389 2.130551-.4383938 3.086793-.9555132 1.538842-.9540128 2.68904-2.4209864 3.246454-4.1405575.212661-.5411428.320999-1.1174625.319324-1.6986902.788269.5946957 1.411133 1.3804147 1.809499 2.282615-.212882-.6370089-1.809499-3.9813052-6.812233-3.9813052z" fill="#3a8835"/><g fill="#275a38"><path d="m128.971365 22.6341146c-1.310195-.9093821-2.865559-1.3937304-4.457285-1.3880208-2.129451.0683922-4.201048.7139368-5.99611 1.8684895 0 0 1.963328-5.125-2.334768-5.8190104h-.053063c-.397186-.9073218-1.018205-1.6975013-1.804139-2.2955729.00167.5845272-.106347 1.1641185-.318378 1.7083333-.555763 1.7293328-1.702554 3.2046341-3.236838 4.1640625-.953409.520055-1.999102.846553-3.077649.9609375-.902069 3.4700521-2.759271 6.5664063-5.836921 8.5950521-2.2395804 1.4612149-4.8665503 2.2057038-7.5349339 2.1354167-1.0649553.0050787-2.1289141-.066283-3.183775-.2135417-.0862839.1891921-.1930559.368227-.3183775.5338542-1.1063713 1.5334397-2.6386631 2.7035733-4.4042221 3.3632812-.6527999.2060222-1.3322551.3139566-2.0163909.3203125-1.365358.010856-2.6871454-.4830774-3.7144042-1.3880208-1.1673841-1.0143229-1.6980133-2.5091146-1.9633279-4.0572917-.6606775.2531-1.3625269.3798386-2.0694537.3736979-1.0736265-.0058948-2.1231478-.3208123-3.0245863-.907552-3.3429638 4.4309895-10.1350172 5.8190104-16.7148189 6.40625-.3411773 2.7263832-2.5315554 4.8410357-5.2532287 5.0716145h-.7428809c-2.8580854-.0897844-5.5577863-1.3418913-7.4818713-3.470052l-.2122516-.2669271c-.8209889 1.3716832-2.0445634 2.4534808-3.5021526 3.0963541-2.2418361.9766645-4.668223 1.4503173-7.1104308 1.3880209-1.5433447-.0252103-3.0843008-.132129-4.6164738-.3203125-.5445788-.0713116-1.0588627-.2930585-1.4857617-.640625.3714404 2.5091146-.1591887 4.9648437-2.54702 6.6731771-1.6771041 1.074241-3.6375835 1.6138584-5.6246692 1.5481771-1.3536155-.0310407-2.7024102-.173882-4.0327817-.4270834l-.5306292-.2135416c-.3058862 1.0052652-.7913916 1.9459957-1.4326987 2.7760416-1.6271787 1.908759-4.02878844 2.9695324-6.5267388 2.8828125h-.636755c-.38673883-.042775-.76349648-.1510743-1.11432126-.3203125-.30878312.1004896-.63064604.1544594-.95513251.1601563h-.10612583c.53281589.3035287 1.13925376.4514375 1.75107626.4270833h.15918875c1.54198735.408307 3.12819033.6234769 4.72259961.640625 2.86539748 0 6.10223548-.8007812 7.21655668-4.1106771 1.6075615.7780833 3.3634463 1.1969575 5.147103 1.2278646 1.9745018.0487673 3.8859537-.7012296 5.3062917-2.0820313 1.1468909.3830828 2.3467832.5812773 3.5552154.5872396 1.887023.0822638 3.7260749-.6115721 5.09404-1.921875.0532202-.184509.1243115-.3633175.2122517-.5338541v-.1067709c.4245033-.9075521 1.4857617-2.4557291 3.5021525-2.4557291.5225095.0192328 1.0400815.1090117 1.5388246.266927.4245034.1601563 4.457285 3.4166667 8.1186263 3.4166667.4646031.0025574.9278202-.0512156 1.3796359-.1601562l.2653145-.1067709s7.3226826-2.1354166 8.4370038-4.8046875c1.8982146-.4359954 3.8369671-.668628 5.783858-.6940104 1.4293525-.0523674 2.854667.1836035 4.1919704.6940104 2.8839441.7337346 5.8360324 1.1631366 8.8084442 1.28125 2.2161467-.9387463 4.5998491-1.411117 7.0043051-1.3880208h1.3796358c3.5021526-1.7617188 6.3144872-2.2955729 8.4900667-2.2955729 3.4490896 0 5.1471031 1.3880208 5.1471031 1.3880208 1.767351-1.1156497 3.803871-1.7247814 5.889984-1.7617187 1.264493-.010727 2.515398.2628618 3.661341.8007812.911383-.4164343 1.564536-1.2527727 1.751076-2.2421875.752876.138338 1.516386.2097938 2.281706.2135417 1.64495 0 3.555215-.4270834 3.555215-2.5091146.006892-.2502837-.010882-.5006386-.053063-.7473958 0 0 11.249339-.3203125 11.249339-4.484375.053062 0 5.200165-7.4739584.424503-10.8372396z"/><path d="m78.1415051 68.796334c-.7171391-.5798392-1.6298518-.8640605-2.5507069-.7942973-3.0289645 0-6.9081646 1.8004073-6.9081646 1.8004073-.4454038-1.7459854-1.3863255-3.3270669-2.7101261-4.5539715-1.1057849-.9614527-2.4756211-1.5701809-3.9323398-1.7474542h-2.4975672l-1.3284932.2118127-.9033753.2118126-.7439562.2118126-1.3284932.5295316c-1.3892973-2.224849-3.8540588-3.5535632-6.4830467-3.4949084l-1.4879124.1059063c-1.5040338.2369627-2.9584124.7200535-4.3043179 1.4297353 0-.6354379-4.091759-3.706721-8.6086358-3.706721h-.6908165c-4.8357152.3177189-3.3478028 5.6130346-3.3478028 5.6130346-1.2096793-.5731785-2.5407257-.8457209-3.8792001-.7942973-1.3186241.0063932-2.6279108.2208628-3.8792001.6354379-4.8357152 1.4826883-1.3284932 5.771894-1.3284932 5.771894-2.922685 9.425662 6.0047892 10.8553972 11.69074 10.8553972 1.4742822.0028269 2.9473173-.0855986 4.4105974-.2647658.7972985 1.5306757 1.879294 2.8963914 3.1883836 4.0244399l.5313973.1588595s2.2318686-3.4419552 5.8985098-4.8187373c1.1274627-.3858238 2.3156682-.5652229 3.507222-.5295315 2.0965949.0410266 4.1748768.3980931 6.1642083 1.0590631 1.7476297-1.0497166 3.751697-1.5993582 5.7922303-1.5885947 5.3671125 0 9.5120112 3.7596741 9.5120112 3.7596741.4373311-.0856564.8830585-.1211894 1.3284932-.1059063h1.0096548c.2243863-1.0969956.2959128-2.2195828.2125589-3.3360489 0 0 11.7970195-3.0183299 3.6666412-10.6435845z"/><path d="m125.174965 91.5339915s1.760547-7.9164993-4.534742-7.9164993l-1.387097.1048543s-4.107943-3.7223274-9.549634-3.7223274c-2.030868-.0037324-4.023835.5402943-5.761789 1.5728144-1.9972-.6544043-4.0837022-1.0079238-6.1885896-1.0485429-.9516607-.0018557-1.9003905.10369-2.827545.3145628l-.6935488.2097086c-2.0895835.893923-3.935536 2.2589314-5.3883405 3.9844632-.2013315.2459841-.3798755.509168-.533499.7864072l-.6935488-.1572814c-2.3399501-.5673472-4.7388996-.8664274-7.1488874-.8912615-1.1632645.0005665-2.3240301.1058608-3.4677439.3145629.8002486 2.2543673.2133996 4.980579.2133996 4.980579s11.36353 4.4563075 2.294046 11.0097006l-.2667495.157282c-.3734494 1.10097-1.2803978 4.823297 2.7741951 5.609705.6526231.10438 1.3127362.156977 1.9739465.157281h1.2270478c.828914-.096589 1.6492602-.254316 2.4540957-.471844 2.294046-.629126 4.001243-1.730096 4.0545929-2.097086 1.1757277.791237 2.4724376 1.392981 3.8411932 1.782523.9155693.279257 1.8688901.420665 2.827545.419417 1.9073107.023316 3.7472467-.692395 5.1215907-1.992232l.693549-.73398c.303942.201922.625265.377347.960298.524272 1.625728.81872 3.405272 1.300522 5.228291 1.415533h.37345c2.667495 0 5.60174-1.153397 7.468986-5.347569 0 0 4.321343 2.621357 7.362287 2.621357.68109.034322 1.355098-.149665 1.920597-.524271 9.016134-6.605821-2.347396-11.0621285-2.347396-11.0621285z"/></g><path d="m77.2583855 90.4816417s.5803907-2.7261981-.2110512-4.9805542c-.4403948-1.5273875-1.741507-2.6560477-3.3240557-2.8834788h-1.002493c-.4422751-.0151312-.8848408.0200487-1.3190698.1048538 0 0-4.1154976-3.7223089-9.4445393-3.7223089-2.0260591-.0106566-4.0159109.5335225-5.7511441 1.5728065-1.9752206-.654401-4.0387605-1.0079187-6.1204836-1.0485377-1.1831016-.0353366-2.3628788.1422795-3.4823441.5242689-3.6406325 1.363099-5.8566697 4.7708466-5.8566697 4.7708466l-.5276279-.1572806c-2.3523248-.5546787-4.7583827-.8535212-7.1757393-.8912571-5.2235162 0-10.8691347 1.7300873-9.4445394 9.5416933 0 0-3.9572092 3.7747358.5803907 5.8193844 1.6077143.7309846 3.3502071 1.1236731 5.1179906 1.1533911.8934922.018969 1.7842414-.104942 2.6381395-.3669878 0 0-2.1105116 5.0329808 2.5853767 5.9242378.645441.10438 1.2982895.156977 1.9522232.157281 4.009972 0 7.5978417-2.097075 7.6506045-2.621344 1.8504657 1.253313 3.9947435 2.011671 6.2260092 2.201929h.3693395c2.2315136-.005695 4.3426027-1.006409 5.7511441-2.726198h.0527627c1.9526257 1.155136 4.1661084 1.804136 6.4370604 1.887368.7671843-.001282 1.530566-.107123 2.2687999-.314562.9018945-.278806 1.7430851-.7234 2.4798512-1.310672 1.0926951-.972634 1.957238-2.171709 2.5326139-3.5126011l.1055255-.2097076c1.5925424.9482307 3.2928815 1.7049927 5.0652278 2.2543557.7189256.219883 1.4642024.343305 2.2160372.366989.5687345.028625 1.1344755-.098309 1.6356465-.366989l.2638139-.15728c8.9696743-6.553361-2.2687999-11.0096463-2.2687999-11.0096463z" fill="#3a8835"/><path d="m129.356036 54.2262228s2.062524-7.1485822-4.812557-7.1485822h-1.533671c-1.422262-2.3159516-3.948279-3.7210783-6.66354-3.7066722-1.709588.034021-3.389976.4501292-4.918328 1.2179066-.400451-.3267861-.845708-.5942802-1.32213-.7942869-1.142106-.5335568-2.388823-.8049268-3.649082-.7942869-2.079127.0366378-4.108828.6408294-5.870261 1.7474312 0 0-1.6923279-1.376764-5.1298683-1.376764-2.1682948 0-4.9712124.5295246-8.4616381 2.2769558h-1.3750161c-2.3964048-.0229089-4.7721255.4456309-6.9808514 1.376764-1.522099.6861379-2.862433 1.7198697-3.9135076 3.0182902 0 0-1.4807867 2.5417181-.211541 4.606864.4813879.7570173 1.1826894 1.3483377 2.009639 1.6944788l1.0577048.4236196s.3701967 5.4541034 5.8702614 5.4541034c1.6394424 0 3.6490814-.4765721 6.2933433-1.6415262.3797475 1.8181857 1.5955111 3.3496389 3.2788847 4.1302919.6048325.2809474 1.2455016.4769562 1.9038686.582477l1.4279014.1059049 1.5336719-.1059049c.4500666 1.2130856 1.3365667 2.2140266 2.4856064 2.8064804.526096.2611707 1.07484.4738578 1.639442.6354295.780712.1781666 1.579106.2669898 2.379836.2647623 1.430962-.037279 2.851909-.2506919 4.230819-.6354295 1.552165-.4411022 3.071864-.989597 4.54813-1.6415263l1.903869-.9001918c1.330176.3450567 2.698086.5229332 4.072163.5295246 2.961574 0 6.55777-.9531443 6.980852-5.4011509 0 0 8.302982-2.0121935 3.225999-6.7249624z" fill="#275a38"/><path d="m32.7094972 159.123799c-.7039106-.046825-1.4581006.140474-1.5586592.374599l-.150838.234125.301676.561899c.8045662.491399 1.7536445.736919 2.7150838.702374 1.5083799-.09365 2.1620111-.374599 2.8659218-.327774.7039106.046825 2.8156424.374599 2.9162011-.28095.1005586-.655549.2011173-1.732523.2011173-1.732523l-4.6759777-.655549s-1.8603351 1.170624-2.6145251 1.123799z" fill="#f4f3f4"/><path d="m32 160.847135c.4846539.106353.9814582.157571 1.4794521.152526 1.6438356-.101684 2.3561643-.406734 3.1232876-.355892.7671233.050841 3.0684932.406733 3.1780822-.305051.1095891-.711783.2191781-1.881143.2191781-1.881143l-3.3424658-.457575c-.7123287 1.677776-2.6301369 2.491243-4.6575342 2.847135z" fill="#010101" opacity=".07"/><path d="m43.2098235 151.062961s-4.1589423 4.247544-4.9486148 4.854336c-.7896726.606792-4.8959701 3.033959-5.2118391 3.4201-.3158691.38614.8949622.992932 3.3166248.441303 1.4214107-.275814 2.4216626-.827444 3.3166249-.717118.0248787-.472825.1703164-.930008.4211587-1.32391.3158691-.441303 5.896222-3.971729 5.896222-3.971729s-.4211587-3.254611-2.7901765-2.702982z" fill="#edc7b2"/><path d="m44.7692308 152c.0420611.245724.0061762.498539-.1025641.722581-.6304808 1.006164-1.5154038 1.825546-2.5641026 2.374193-1.5330257.916983-2.9167361 2.065909-4.1025641 3.406452-.582587.603657-1.2578837 1.10904-2 1.496774l.6153846-.103226c1.3846154-.258064 2.3589744-.774193 3.2307692-.670968.0242347-.442396.1659075-.870157.4102565-1.238709.3076923-.412903 5.7435897-3.716129 5.7435897-3.716129s-.2564103-1.6-1.2307692-2.270968z" fill="#010101" opacity=".07"/><path d="m67 133.517787s1.3384615 1.686429 2.6307692 1.461572l.3692308-1.630215-2.0307692-1.349144s-.1384616 1.461572-.9692308 1.517787z" fill="#ce9b25"/><path d="m67 133.517787s1.3384615 1.686429 2.6307692 1.461572l.3692308-1.630215-2.0307692-1.349144s-.1384616 1.461572-.9692308 1.517787z" fill="#b58b55"/><path d="m61.85 148 3.3-4.588235.85-8.411765-6 10.323529z" fill="#edc7b2"/><path d="m61 147.075314.6770833.924686 3.4375-4.569038.8854167-8.430962-.9375 1.577406c-.3125 3.698745-1.1979167 8.430962-4.0625 10.497908z" fill="#010101" opacity=".07"/><path d="m58.7071084 139.082521-10.4446404-1.082468c-.0781571-.001586-.1527937.032518-.2028389.092683-.0500452.060164-.0700689.139862-.0544183.216594l2.7783773 8.453563 11.2164119 1.237107-2.6754744-8.453563c-.0870226-.269993-.3343342-.455818-.6174172-.463916z" fill="#9d9d9c"/><path d="m53.1052632 145.932489s-1.7894737-.932489-2.631579-.932489-5.4736842 4.662447-5.4736842 4.662447l2.9473684 3.345992 3.5263158-2.084388s7.5263158 5.869198 9.2105263 6.472573c1.6842106.603376 4.3157895.603376 4.3157895.603376l-5.4736842-6.85654z" fill="#7fc6b1"/><path d="m36.7597765 161.123799c-.7541899 0-1.5083799.187299-1.6089385.374599l-.150838.234125.301676.561899c.8045662.491399 1.7536445.736919 2.7150838.702374 1.5083799-.09365 2.1620111-.327774 2.8659218-.327774.7039106 0 2.8156424.374599 2.9162011-.234125.1005586-.608724.2011173-1.732523.2011173-1.732523l-4.6759777-.702374s-1.8603351 1.170624-2.5642458 1.123799z" fill="#fff"/><path d="m36 162.737132c.5847534.197236 1.2012673.284794 1.8181818.25822 1.5584416-.103288 2.2337663-.361508 2.961039-.361508s2.9090909.413152 3.012987-.25822.2077922-1.910828.2077922-1.910828l-2.8051948-.464796c-1.6623377 1.187812-3.1688312 2.375624-5.1948052 2.737132z" fill="#010101" opacity=".07"/><path d="m69.7672956 132.648002s.2515723.824002.0503145.824002l-.9056604.219733-1.9119497 6.152543s2.918239.384534 3.0691824-.054934c.1509434-.439467 4.9308176-6.262409 4.9308176-6.262409l-2.0628931-2.526937z" fill="#edc3ad"/><path d="m77.5554161 135.180587c-1.0792226-.785673-2.2016064-1.513613-3.3621702-2.180587l-5.6569846 6.074492.1067355-4.828442-2.1347112.467268c-.7750411.455337-1.2730287 1.249861-1.3341944 2.128668l-1.1740912 6.126411.1067356 6.437924s4.109319.467268 5.6036168 1.453724c1.4942979.986456 2.668389 4.10158 2.5616535 5.139955.6324229-.923413 1.1857531-1.895837 1.6544011-2.907449.4269423-1.505644 5.0165713-8.878104 5.0699391-13.13544.0533678-4.257337-.48031-4.049662-1.44093-4.776524z" fill="#fff"/><path d="m77.5942626 135.104218-.155798-.104218c-.0715709.248286-.1582889.491922-.2596633.729529-2.7004983 4.950372-4.9855353 11.359801-10.1788013 14.069478 1.0294352.210442 2.0253734.561082 2.9601616 1.042184 1.4541145 1.042184 2.596633 4.116625 2.4927677 5.158809.6154163-.9268 1.1538668-1.902791 1.6099124-2.918114.4154613-1.511166 4.88167-8.91067 4.9336027-13.183623.0519326-4.272953-.467394-4.064516-1.4021818-4.794045z" fill="#f4f3f4"/><path d="m68.6245939 148.923178-9.0941735-1.919712c-.1234845-.015836-.2476305.023019-.3447176.107889-.0970871.084871-.1590297.208689-.1719968.343808-.0306815.135027-.0093564.277895.0589999.395272.0683564.117376.1777653.198994.3027002.225811l9.042502 1.919712c.2684262.035089.5162319-.161842.5683859-.451697.0306815-.135028.0093564-.277896-.0589999-.395272-.0683564-.117376-.1777653-.198994-.3027002-.225811z" fill="#9d9d9c"/><path d="m70.9029125 150.409963c-1.1523101-.728985-5.3425285-1.510041-5.3425285-1.510041s-8.5375701-3.384575-9.323236-3.540787c-.785666-.156211-2.7760198-.624844-3.0902861-.156211l-4.1378407 5.675673c-.209511.312422 3.299797 3.176294 3.299797 3.176294s2.9331529-2.186957 3.2474193-2.65559c.3142663-.468634 3.6664411 3.332505 4.2949739 3.801139.6285327.468633 3.2474192 2.447308 5.4472839 2.65559 2.1998647.208281 4.2949739.364492 6.023439-.833127s1.6237097-1.978675 1.6760874-2.811801-.9427992-3.072153-2.0951092-3.801139z" fill="#7fc6b1"/><path d="m65.7912621 155.586747c-3.0436893-.55262-5.8203883-2.265743-8.5970873-3.481507l-2.4029127-1.10524c-.8602906.962763-1.8282662 1.816118-2.8834951 2.542052-.2726058.21873-.5797244.386998-.907767.497358l.907767.773668s2.9902913-2.321004 3.3106796-2.818362c.3203884-.497358 3.7378641 3.536769 4.3786408 4.034127s3.3106796 2.597314 5.553398 2.818362c2.2427185.221048 4.3786408.386834 6.1407767-.884192 1.762136-1.271026 1.6553398-2.099956 1.7087379-2.984149v-.331572c-2.0291262 1.326289-5.2330097 1.326289-7.2087379.939455z" fill="#010101" opacity=".07"/><path d="m49.4583333 150-1.4583333 2.021277c1.9270833.053191 3.1770833 2.978723 3.1770833 2.978723l1.8229167-1.43617c-.3406587-1.824178-1.7506424-3.242985-3.5416667-3.56383z" fill="#7fc6b1"/><path d="m50 153.486486c.3885721.467091.7177157.975022.9807692 1.513514l2.0192308-1.459459c-.1814041-.980613-.7097629-1.87549-1.5-2.540541-.2910906.925154-.8041738 1.77567-1.5 2.486486z" fill="#010101" opacity=".07"/><path d="m44.6145833 149-1.6145833 1.989247 3.1770833 3.010753 1.8229167-1.451613c-.2522164-1.821333-1.6250562-3.26026-3.3854167-3.548387z" fill="#7fc6b1"/><path d="m47.2287046 152.063699s-4.1307988 4.232003-4.9151277 4.836575c-.7843289.604571-4.8628392 3.132781-5.1765707 3.517508-.3137316.384728-.4183088.934339 3.5033357.274806 2.3006981-.439689 3.085027-.274806 3.085027-.274806.0604376-.610142.2195925-1.204948.4705973-1.758754.3660202-.439689 5.8040338-3.957197 5.8040338-3.957197s-.4183087-3.187743-2.7712954-2.638132z" fill="#edc7b2"/><path d="m46.752381 156.708029c-2.5142858 1.583942-5.2380953 2.810219-7.752381 4.291971l1.6238095-.20438c2.3047619-.408759 3.0904762-.255474 3.0904762-.255474.0605444-.567222.2199804-1.120188.4714286-1.635037.3666667-.408759 5.8142857-3.678832 5.8142857-3.678832-.0830128-.425154-.2239446-.837569-.4190476-1.226277-.7379622 1.085997-1.7016415 2.008609-2.8285714 2.708029z" fill="#010101" opacity=".07"/><path d="m69.1475718 125.007477c-.9932127.240263-1.9273082.653935-2.7517344 1.218627 0 0-.6604162.253881-.2751734 1.269404s.7704856 1.929494.7704856 1.929494-.3852428.406209.1100694 1.218628c.5106102.716898 1.0810308 1.395972 1.7060753 2.031046.1496293.198596.3984373.313373.6604163.304657.2338953.055293.4822404-.001989.6604162-.152329l2.9718732-1.777165s-2.4215263-6.296243-3.8524282-6.042362z" fill="#edc7b2"/><path d="m76.071212 135.275172c-1.2988811.574105-1.6236014 3.183672-1.6777215 3.757777-.05412.574105.2164802 8.141849.2164802 8.141849l-7.5768064-.626296-3.3013228-.991635-1.7318415.939444 3.517803 1.513549 1.9483216.365339s5.3037646 1.826697 6.6567657 2.192037c1.3530012.365339 3.4095629.678487 4.1672436.156574.7576806-.521914.9200407-13.100028.4329603-14.404811-.4870804-1.304784-1.4071212-1.617932-2.6518822-1.043827z" fill="#edc7b2"/><path d="m78.6048941 136c-.0555197 4.549373-.6107159 7.405956-1.2214317 9.416144-.9993531 3.38558-3.9418929 4.760972-7.3285896 3.702978l-1.0548728-.105799c1.7211082.581896 4.1639714 1.375392 4.9967657 1.58699.8327943.211599 3.497736.687696 4.2750106.1587.7772747-.528997.9438336-13.277822.444157-14.600314z" fill="#010101" opacity=".07"/><path d="m62 147 .3287671 1.16129 3.6712329.83871-.2739726-1.870968z" fill="#edc7b2"/><g fill="#b58b55"><path d="m67.7637806 124.389838c-1.1104586.621364-1.778221 1.714026-1.7623439 2.883728-.0587448 1.10106 1.7035991 2.726434 1.7035991 2.726434s-.1174896-.262157-.3524688-.996197.7049376-2.726434.7049376-2.726434l.9399168-2.149688s.1174895-.419452-1.2336408.262157z"/><path d="m71.4366109 123.325061c-1.5657458-.414248-2.537588-.621372-3.5634215.56959-1.0258334 1.190963-.8638597 2.123021-.8638597 2.123021.9048043 1.092355 2.0978688 1.932644 3.4554389 2.433706 1.8896932.724934 1.5657458 3.15864 1.3497809 4.246041-.2159649 1.0874-.6478948 1.242743-.6478948 1.242743.970062.079784 1.9454646.079784 2.9155266 0 .9718422-.310686 1.5657458-.362467 2.1056581-1.190962.5399124-.828496 1.4037721-3.262202.215965-4.763851-1.1878072-1.501648-3.3474565-4.24604-4.9671935-4.660288z"/></g></g></svg>