<?xml version="1.0" encoding="UTF-8"?>
<svg width="250px" height="250px" viewBox="0 0 250 250" version="1.1" xmlns="http://www.w3.org/2000/svg" xmlns:xlink="http://www.w3.org/1999/xlink">
    <!-- Generator: Sketch 53.2 (72643) - https://sketchapp.com -->
    <title>da-04-kennis-verzamelen-verbeteren-thumb</title>
    <desc>Created with Sketch.</desc>
    <g id="da-04-kennis-verzamelen-verbeteren-thumb" stroke="none" stroke-width="1" fill="none" fill-rule="evenodd">
        <g transform="translate(44.000000, 14.000000)" fill-rule="nonzero" id="04-kennis-verzamelen-verbeteren">
            <g>
                <polygon id="Path" fill="#616F7A" points="74 52.8857143 54 75 56.6478873 29.9142857 72.9859155 25"></polygon>
                <path d="M74,21 C74,21 72.1101322,19.5741445 67.8722467,19.1178707 C63.6343612,18.661597 61.5154185,19.4030418 61.5154185,19.4030418 L61,12.6159696 L62.5462555,6 L72.2819383,7.6539924 L74,14.8403042 L74,21 Z" id="Path" fill="#E0B514"></path>
                <path d="M61.2981766,122.027844 C61.2408203,123.182 60.4951879,124.281197 60.2084062,124.885755 C59.9216245,125.490313 59.9216245,126.754389 60.2657626,127.084148 C60.6099006,127.413907 62.387947,127.633747 63.5350738,128.348224 C64.6822005,129.062702 66.5176033,131.590855 67.5500174,131.865654 C68.5824315,132.140453 70.8193286,131.975573 70.9913976,131.535895 C71.1634666,131.096216 68.6971441,129.392461 68.6971441,129.392461 C65.1410512,125.160554 64.7395569,122.962161 64.7395569,122.962161 C64.7395569,122.962161 61.355533,121.808004 61.2981766,122.027844 Z" id="Path" fill="#F5A37E"></path>
                <path d="M69.0645392,129.1852 C69.0645392,129.1852 69.7677918,129.70372 69.650583,129.859276 C69.5333742,130.014832 68.4784953,130.014832 68.1854734,129.859276 C65.7240893,128.770384 62.3836395,126.385192 61.6803869,125.607412 C61.2595811,125.140581 60.9775239,124.587986 60.8599255,124 C60.6841124,124 59.8050467,125.244448 60.0394642,126.177784 C60.1289354,126.470802 60.2671933,126.750409 60.4496949,127.007416 C61.4008493,127.590994 62.3998978,128.110958 63.4385184,128.562976 C64.6692104,129.237052 66.3687375,131.674095 67.3650121,131.881503 C68.3612866,132.088911 71.8775495,132.037059 71.9947583,131.622243 C72.1119671,131.207428 70.2366268,129.859276 69.0645392,129.1852 Z" id="Path" fill="#502819"></path>
                <path d="M60,126 C60,126 60.8614097,128.020408 61.0601965,128.693878 C61.377762,129.777487 61.5993676,130.883177 61.7228194,132 L62.1866553,132 C62.1866553,132 61.5240325,127.836735 63.9094747,129.061224 C64.7046221,129.428571 60,126 60,126 Z" id="Path" fill="#502819"></path>
                <path d="M71.0456197,93.6648642 C67.6029865,95.4906457 64.931978,102.087017 64.2790648,104.737345 C63.6261516,107.387673 62.379681,122.288405 62.0235465,123.230744 C61.667412,124.173083 65.4661797,124.173083 65.6442469,123.643017 C66.9500733,118.283465 72.7075806,104.855137 73.3604938,103.559422 C74.013407,102.263706 76.6844155,96.1973997 76.8624827,95.608438 C77.8715304,92.4280446 73.0637151,92.6636293 71.0456197,93.6648642 Z" id="Path" fill="#F5A37E"></path>
                <path d="M89.739628,69.0046102 C89.8154786,69.7403094 89.8154786,70.481799 89.739628,71.2174982 C89.6063782,71.7325384 89.4070341,72.2283671 89.1465118,72.6927569 C88.9810126,73.0906146 88.954898,73.5323081 89.0723723,73.9467268 C89.4430699,74.1680156 89.8137676,73.651675 89.9620466,73.2828604 C90.2724905,72.7556473 90.4976602,72.1831365 90.6293024,71.5863129 C90.8491142,70.8678721 90.9737326,70.1239592 91,69.3734249 C90.9258605,68.9308472 89.739628,69.0046102 89.739628,69.0046102 Z" id="Path" fill="#F5A37E"></path>
                <path d="M90.0456206,69 C89.9131796,69.6766089 89.7314439,70.3407921 89.5021192,70.986316 C89.2983062,71.3541523 89.0265555,71.4277195 88.6868671,71.7219886 C88.3471787,72.0162576 87.9395527,72.4576611 88.0074903,72.8254974 C88.075428,73.1933337 88.6868671,72.8990647 88.9586178,72.6783629 C89.4412051,72.4206027 89.8603386,72.0423823 90.1814959,71.574854 C90.5357588,70.9824344 90.8102678,70.3383799 90.996748,69.6621053 C91.0646857,69.294269 90.0456206,69 90.0456206,69 Z" id="Path" fill="#F5A37E"></path>
                <path d="M90.2294887,68 C90.0432282,68.5418459 89.8099803,69.0639984 89.5327735,69.5596779 C89.2936977,69.7808389 89.006134,69.9341114 88.6967152,70.0053001 C88.3483576,70.1538409 88,70.5251928 88,70.8222743 C88,71.1193558 88.4877007,70.970815 88.7663867,70.8965446 C89.2192807,70.7227563 89.64279,70.4719428 90.0204741,70.1538409 C90.3739053,69.7064533 90.699724,69.2350834 90.9958754,68.7427038 C91.065547,68.3713519 90.2294887,68 90.2294887,68 Z" id="Path" fill="#F5A37E"></path>
                <path d="M86.6923077,72.645933 C86.7948718,72.8181818 87.1538462,72.5885167 87.4102564,72.2440191 C87.6318208,71.7264499 87.703533,71.1443455 87.6153846,70.5789474 C87.5128205,70.1770335 87.5641026,69.4880383 87.8717949,69.430622 C88.4184062,69.5069822 88.9251639,69.7906695 89.3076923,70.2344498 C89.5641026,70.8086124 89.974359,71.4976077 89.974359,71.9569378 C89.903193,72.4862585 89.7828833,73.0058189 89.6153846,73.507177 C89.4784609,73.8503305 89.4085271,74.2222509 89.4102564,74.5980861 C89.4390917,74.7851683 89.5572299,74.9394827 89.7179487,75 C89.8717949,75 89.9230769,74.4258373 90.2307692,73.9665072 C90.5242443,73.3743907 90.7812527,72.7605218 91,72.1291866 C90.9445964,71.3376734 90.8418013,70.5512165 90.6923077,69.7751196 C90.5897436,69.2583732 89.0512821,67.076555 89.0512821,66.84689 C89.0512821,66.6172249 87.5641026,63 87.5641026,63 L85,63.7464115 C85,63.7464115 86.4358974,66.2727273 86.4358974,66.7320574 C86.4179882,67.274506 86.3492349,67.8133478 86.2307692,68.3397129 C86.0769231,69.2583732 86.5384615,70.3492823 86.6410256,70.8086124 C86.7435897,71.2679426 86.4871795,72.4162679 86.6923077,72.645933 Z" id="Path" fill="#F5A37E"></path>
                <path d="M58.9353424,119.903431 C58.9353424,119.903431 59.1939727,121.510688 58.6767122,122.392087 C58.1594516,123.273486 56.155067,125.191825 55.249861,124.984437 C54.344655,124.777049 53.3101339,122.703169 53.1808188,122.34024 C52.4695855,120.26636 54.0860247,117 54.0860247,117 L58.9353424,119.903431 Z" id="Path" fill="#8E3C26"></path>
                <path d="M74.437562,27.0070994 C76.0817845,26.7789961 77.9381648,32.0823973 78.5746381,37.8990308 C79.5823874,48.1066525 81.2796494,51.2430726 78.4155198,51.9273824 C75.5513901,52.6116922 75.2331535,48.4488074 73.2706943,39.8949345 C71.7325507,33.2229137 71.043038,27.4633059 74.437562,27.0070994 Z" id="Path" fill="#F5A37E"></path>
                <path d="M51.261678,23.6323686 C52.1719188,22.27038 56.4955623,22.27038 58.1453737,22.0433819 C59.795185,21.8163838 64.4601689,22.5541276 64.4601689,22.5541276 C64.4601689,22.5541276 69.1251527,23.5188695 70.6042939,24.2566133 C72.0834351,24.9943572 76.1226285,26.5265943 76.5208588,28.0588315 C77.0897593,30.4423116 68.1011319,41.5084689 71.1163043,49.2831539 C72.1403252,51.8368825 78,58.6468255 78,61.4275522 C78,64.2082789 68.0442418,69.5994838 68.0442418,69.5994838 L67.4184513,69.7129829 L66.7926608,69.8832314 C66.7926608,69.8832314 55.7559917,70.7344743 54.1061804,67.8402485 C52.456369,64.9460228 55.4715415,53.4258692 55.1302012,50.0776472 C54.2768505,41.5652185 49.8963169,25.6753515 51.261678,23.6323686 Z" id="Path" fill="#F8BC96"></path>
                <path d="M78.4152938,62.7668067 C79.8647202,64.9174673 80.166684,68.9924032 79.925113,74.2558621 C79.6231491,81.5001925 77.0262602,92.1968992 76.7846891,93.2156332 C75.7580121,97.9697251 70.8058053,98.0829177 69.7791283,94.4607525 C69.4771645,93.4986149 66.9406683,73.1805318 67.0010611,70.8600822 C67.0614538,68.5396326 67.0614538,64.351504 68.571273,61.6914764 C70.0810921,59.0314489 76.1807615,59.5974122 78.4152938,62.7668067 Z" id="Path" fill="#F5A37E"></path>
                <path d="M60.5616438,20.4891304 C61.2739726,19.4021739 62.0456621,15 62.0456621,15 L65.1324201,15.4891304 L68.2191781,15.9782609 C68.2191781,15.9782609 67.3287671,20.3804348 67.56621,21.6304348 C67.803653,22.8804348 70,25 70,25 L63.4703196,23.9673913 L57,22.8804348 C57,22.8804348 59.7899543,21.576087 60.5616438,20.4891304 Z" id="Path" fill="#F8BC96"></path>
                <path d="M77.5392856,47.0989431 C79.0891984,46.5396872 82.1316198,48.3293059 84.1407661,53.0270551 C86.1499123,57.7248043 90.0533965,66.1695676 88.7331004,66.7847491 C87.4128043,67.3999305 87.2979959,66.6169723 86.7239541,65.442535 C85.5184664,63.0377349 82.2464282,59.6262742 79.8928569,56.4944414 C76.2189895,51.7407666 74.5542683,48.1056036 77.5392856,47.0989431 Z" id="Path" fill="#F5A37E"></path>
                <path d="M61,20.3142857 L61.7924528,17.6857143 C62.0188679,16.8285714 62.1886792,15.9142857 62.3018868,15.3428571 L62.3018868,15.3428571 L65.0754717,15 L65.3584906,15 L68.3018868,15.5142857 C68.3018868,15.5142857 67.4528302,20.1428571 67.6792453,21.4571429 C67.9056604,22.7714286 70,25 70,25 C70,25 66.1509434,23.2857143 65.4716981,22.8857143 L61,20.3142857 Z" id="Path" fill="#F5A37E"></path>
                <path d="M72.814519,12.8123038 C71.9784794,17.3684614 67.1413928,20.4058997 64.6332738,19.9559088 C62.1251548,19.505918 59.676753,15.2872536 60.0350557,10.6185984 C60.3933584,5.94994315 63.9763855,3.47499339 67.6191297,4.09373083 C71.2618739,4.71246827 73.7102758,8.25614633 72.814519,12.8123038 Z" id="Path" fill="#F8BC96"></path>
                <path d="M64.7580508,6.86866531 C65.2800496,8.20720645 66.5560469,9.02197063 69.4560406,9.31295783 C72.3560343,9.60394504 72.7620334,12.3974222 72.7620334,13.5031736 C72.7620334,14.608925 74.2120302,22 74.2120302,22 C74.2120302,22 76.7060248,11.8154478 72.8200333,6.28669089 C68.9340417,0.757933987 64.0620523,3.78420093 64.0040524,4.19158301 C63.9460525,4.5989651 64.5260513,6.17029601 64.7580508,6.86866531 Z" id="Path" fill="#E7C352"></path>
                <path d="M65.6988486,5.7370084 C65.6988486,5.7370084 65.6988486,7.72587177 63.8630535,8.00999511 C60.4974291,8.63506646 61.0481676,20 61.0481676,20 C61.0481676,20 57.4377706,5.79383307 63.6182808,4.20274237 C67.1674846,3.29354769 65.6988486,5.7370084 65.6988486,5.7370084 Z" id="Path" fill="#E7C352"></path>
                <path d="M59,115.603489 C59,115.603489 58.4475703,120.478107 58.1713555,120.976647 C57.8951407,121.475188 56.168798,123.247776 55.2710997,122.970809 C52.7851662,122.139908 52.6470588,117.930011 53.4066496,116.76675 C54.1662404,115.603489 54.2352941,115.326522 54.5805627,114.827982 C55.0204063,114.15783 55.5785976,113.542147 56.2378517,113 L59,115.603489 Z" id="Path" fill="#F8BC96"></path>
                <path d="M71.5512323,90.7920332 C73.5485896,92.5754789 73.6660812,94.2438636 70.728791,99.1339568 C67.7915008,104.02405 58.6859012,116.393109 58.0396974,115.990395 C57.3934935,115.587682 55.161153,113.746706 56.3360691,112.365974 C57.5109851,110.985241 57.2760019,109.546979 58.3334264,106.727984 C60.2132921,101.837891 62.6806159,95.6821263 63.3268197,94.7041077 C63.9730236,93.7260891 68.3202131,87.9155078 71.5512323,90.7920332 Z" id="Path" fill="#F8BC96"></path>
                <path d="M54.142209,65.8949078 C53.5713332,68.3609048 54.7701724,72.1719911 56.8253252,76.9918943 C59.6226166,83.6052499 65.7309875,92.6846024 66.3018633,93.5813286 C68.9278919,97.6165964 73.3236355,96.1594164 72.98111,92.4604209 C72.8669348,91.4516039 67.9003155,71.7796734 67.0440018,69.6499487 C66.1876881,67.520224 64.7034111,63.6530924 62.4199079,61.6915039 C60.1364048,59.7299154 54.9414351,62.1959124 54.142209,65.8949078 Z" id="Path" fill="#F8BC96"></path>
                <path d="M73.8231338,25.4527629 L73.8231338,36.6327986 C73.8231338,36.6327986 71.131809,44.2762923 72.1849361,48.0980392 C73.2380632,51.9197861 77.4505716,56.197861 79.9078682,61.4456328 C82.3651648,66.6934046 79.9078682,83.8627451 79.9078682,83.8627451 C79.9078682,83.8627451 73.3550773,85.916221 71.3073302,83.8627451 C69.2595831,81.8092692 66.1002017,82.4367201 64.8715535,83.2923351 C63.6429052,84.1479501 60.7175521,87 60.7175521,87 C60.7175521,87 54.8083389,77.6452763 53.5211836,68.9180036 C52.5265636,61.9590018 55.2178884,53.1746881 54.6913248,49.6381462 L52,31.7272727 C52,31.7272727 55.1008742,32.0695187 58.4357767,32.1836007 C59.4303968,32.2406417 56.4465367,23 57.4411567,23 C59.8399462,23.057041 60.6590451,33.0392157 66.6267653,31.7272727 C71.073302,30.7575758 71.0147949,24.083779 71.0147949,24.083779 L73.8231338,25.4527629 Z" id="Path" fill="#5182B0"></path>
                <path d="M57.128518,39.6953405 C58.4042409,38.8351254 66.5224777,41.5304659 69.7697724,40.8422939 C73.0170672,40.1541219 73.422979,37.9749104 73.7709034,37 C73.1910294,38.6630824 71.3934198,44.7992832 72.2632309,48.125448 C73.133042,51.4516129 77.4820974,56.2688172 79.9175684,61.5448029 C82.3530395,66.8207885 79.9175684,84.0824373 79.9175684,84.0824373 C79.9175684,84.0824373 73.422979,86.1469534 71.3934198,84.0824373 L71.277445,83.9677419 L67.6242384,73.1863799 C67.6242384,73.1863799 73.5969412,74.90681 73.4809664,69.8028674 C73.3649916,64.6989247 68.2620999,53.0573477 66.7544273,50.0752688 C65.2467548,47.09319 55.7948077,40.5555556 57.128518,39.6953405 Z" id="Path" fill="#026A9D"></path>
                <path d="M57.8253178,22.0009156 C58.7162594,24.4575196 59.4313961,26.9745756 59.9652994,29.5329767 C60.4858355,32.6037401 54.9912882,57.5754197 54.1237281,62.7899236 C53.256168,68.0044274 53.4875173,76 53.4875173,76 L50.4221383,72.9871755 C50.4221383,72.9871755 52.5621199,59.5453434 52.5042825,52.1291601 C52.4464452,44.7129768 49.4967408,26.6360301 50.0751142,24.2605339 C50.6534876,21.8850377 57.8253178,22.0009156 57.8253178,22.0009156 Z" id="Path" fill="#9AA3AA"></path>
                <path d="M71,25 C71,25 72.5100758,36.4624506 72.3288667,39.3280632 C72.1476576,42.1936759 74.0805545,54 74.0805545,54 C74.0805545,54 77.2819151,30.5019763 76.9799,29.0118577 C76.6778848,27.5217391 71,25 71,25 Z" id="Path" fill="#9AA3AA"></path>
                <path d="M52.551159,23.0070994 C50.9045466,22.7789961 49.0454681,28.0823973 48.4611863,33.8990308 C47.4519722,44.1066525 45.6991268,47.2430726 48.5674193,47.9273824 C51.4357119,48.6116922 51.8075276,44.4488074 53.7728392,35.8949345 C55.260102,29.2229137 55.9506169,23.4633059 52.551159,23.0070994 Z" id="Path" fill="#F5A37E"></path>
                <path d="M48.0513467,44.3196334 C49.3635748,43.3743817 52.7297251,44.4377899 55.9247152,48.6914227 C59.1197053,52.9450555 64.996205,60.6252259 63.8551371,61.5704776 C62.7140692,62.5157293 62.4288022,61.7477123 61.5730013,60.7433823 C59.804346,58.5574877 55.753555,55.8989672 52.6726717,53.3586031 C47.9942933,49.4594397 45.4268906,46.1510586 48.0513467,44.3196334 Z" id="Path" fill="#F8BC96"></path>
                <path d="M67.9995946,59.0913936 C68.0518979,58.7827426 63.0307776,56.6221855 60.1017907,59.4000446 C59.5787573,59.8938862 61.2001608,61.4988715 62.0370142,61.8692527 C62.5920489,62.1343142 63.2272622,61.9892109 63.6584176,61.4988715 C65.9074611,59.0913936 67.8949879,60.3259977 67.9995946,59.0913936 Z" id="Path" fill="#F8BC96"></path>
                <path d="M63,58.8903445 C63.7638085,58.5384435 64.5563858,58.3166132 65.3598308,58.2298641 L65.8425234,58.0830907 L66.5397461,58.0830907 C66.7006437,58.009704 66.8615412,58.1564774 67.0224388,58.1564774 L67.3978664,58.009704 C67.8269266,57.9363173 67.8269266,58.3032508 67.9878241,58.3032508 L68.5241493,58.3032508 C68.8995769,58.3766376 69.9722273,59.9911451 70.0794923,60.2846919 C70.1867573,60.5782387 71.0985101,62.1927462 70.9912451,62.3395197 C70.88398,62.4862931 70.3476549,62.6330665 69.7576972,61.8991994 C69.1677395,61.1653324 68.4705168,60.2113052 68.5241493,60.4314653 C68.730423,61.1093886 68.8571275,61.8276477 68.8995769,62.5596798 C68.8995769,62.9266133 68.6314143,63 68.4168843,63 C68.2046057,62.7267942 68.0074133,62.4324416 67.8269266,62.1193595 C67.8269266,62.1193595 67.558764,62.7798399 67.4514989,62.7798399 C67.3442339,62.7798399 66.8615412,61.9725861 66.7542762,61.752426 C66.6470112,61.5322659 66.5397461,62.4862931 66.3788486,62.4129064 C66.217951,62.3395197 65.5743608,60.1379185 64.9844031,60.3580786 C64.3944455,60.5782387 63.2681626,60.0645318 63,58.8903445 Z" id="Path" fill="#F8BC96"></path>
                <path d="M108.712893,4.90097181 C108.712893,4.90097181 110.839638,1.68832945 113.184511,3.61591487 C115.529384,5.54350028 115.311257,9.6907295 114.166086,10.9757864 C113.020915,12.2608434 111.112298,17.9851879 111.494021,18.1020113 C111.875745,18.2188347 111.384958,19.1534215 110.566979,18.9781865 C109.749,18.8029514 107.349595,17.6931295 108.167574,14.8893689 C108.695257,13.2531972 108.770995,11.488687 108.385701,9.80755286 L108.712893,4.90097181 Z" id="Path" fill="#8E3C26"></path>
                <path d="M105.457529,120.025664 C105.615658,121.072789 106.018031,122.067083 106.631543,122.926739 C107.101148,123.755618 107.101148,125.176553 106.748944,125.590992 C106.39674,126.005431 104.400916,126.419871 103.109501,127.307955 C101.818085,128.196039 99.9983636,131.452348 98.8830503,131.748376 C97.767737,132.044404 95.1849061,132.162815 95.008804,131.629965 C94.8327019,131.097114 97.3568321,128.965712 97.3568321,128.965712 C101.113677,123.637207 101.40718,121.268982 101.40718,121.268982 C101.40718,121.268982 105.398828,119.788841 105.457529,120.025664 Z" id="Path" fill="#F5A37E"></path>
                <path d="M98.1104317,129.660055 C98.1104317,129.660055 97.3969651,130.320557 97.5158762,130.485682 C97.6347873,130.650807 98.883354,130.540724 99.1806317,130.375598 C101.856132,128.944512 105.364009,125.917214 106.077476,124.981504 C106.544101,124.407789 106.813421,123.717347 106.850398,123 C107.088221,123 108.15842,124.431086 107.980054,125.531922 C107.906314,125.874671 107.786469,126.207515 107.62332,126.522674 C107.028765,127.128133 104.947821,128.173927 104.353265,128.55922 C103.758709,128.944512 101.380487,132.357103 100.250832,132.687353 C99.1211762,133.017604 95.2565651,133.182729 95.0187429,132.687353 C94.7809207,132.191977 96.8618651,130.540724 98.1104317,129.660055 Z" id="Path" fill="#1A1A1A"></path>
                <path d="M108,126 C108,126 107.241901,128.072727 107.052376,128.781818 C106.824297,129.843789 106.697521,130.920127 106.673326,132 L106.104752,132 C106.104752,132 106.483802,127.854545 104.083154,129.218182 C103.325055,129.654545 108,126 108,126 Z" id="Path" fill="#1A1A1A"></path>
                <path d="M105.478508,88.8960569 C108.459535,91.7962843 109.147464,99.3596224 108.975482,102.25985 C108.803499,105.160077 105.306526,120.400488 105.478508,121.480965 C105.65049,122.561442 101.580242,121.708434 101.63757,121.139762 C101.924207,115.28244 100.319039,99.8145601 100.032401,98.2791456 C99.7457642,96.743731 99.0005075,89.7490649 99.0005075,89.0666585 C98.94318,85.5408918 103.758685,87.2469079 105.478508,88.8960569 Z" id="Path" fill="#F5A37E"></path>
                <path d="M124.3125,126 C124.3125,126 126,129.659584 126,130.616706 C126,131.573828 125.4375,133.882181 124.625,133.994784 C123.8125,134.107386 121.75,132.362046 121.5,132.136841 C120,130.504103 120,127.238628 120,127.238628 L124.3125,126 Z" id="Path" fill="#313131"></path>
                <path d="M123.092797,125 C124.016065,126.474115 124.655113,128.032277 124.992173,129.631163 C125.065226,130.104804 124.626908,131.999371 123.67722,131.999371 C121.047316,132.051998 118.928781,128.789133 119.001834,127.683969 C119.074887,126.578805 119.14794,125.315761 119.14794,125.315761 L123.092797,125 Z" id="Path" fill="#F8BC96"></path>
                <path d="M115.720677,89.0481392 C113.019296,89.5606637 112.329581,91.4399201 113.651534,99.2416817 C114.628629,105.164187 118.364582,118.546771 120.146344,124.697064 C120.721106,126.690215 120.548677,128 120.721106,128 C120.893534,128 123.767344,127.943053 123.997249,126.177691 C124.054725,125.779061 123.192582,124.469276 123.192582,123.444227 C123.135106,117.35088 123.07763,101.918198 122.732773,99.7542062 C122.387915,97.5902139 119.973915,88.2508789 115.720677,89.0481392 Z" id="Path" fill="#F8BC96"></path>
                <path d="M98.0051028,22.0464854 C96.2915173,21.4667623 93.1597921,26.3944087 91.3280283,32.075695 C88.1963031,41.98896 85.0645779,43.6121847 88.4917488,45.4093263 C92.8052571,47.6702464 92.8643463,43.2643508 96.7051414,35.2061998 C99.7186883,28.887218 101.66863,23.2639039 98.0051028,22.0464854 Z" id="Path" fill="#90CBE8"></path>
                <path d="M95.9957927,60.5109486 C94.751717,62.7116487 94.8082659,66.7180515 95.4303037,71.9658748 C96.2785372,79.1322571 98.597042,90.4743269 98.8797865,91.4900346 C100.23696,96.1171476 104.760872,95.947863 105.496008,92.2800295 C105.665654,91.2643218 107.249023,70.7244542 106.966279,68.4673259 C106.542888,65.272834 105.464932,62.1995323 103.799541,59.4388127 C102.612014,57.5766819 97.8053575,57.1252562 95.9957927,60.5109486 Z" id="Path" fill="#F5A37E"></path>
                <path d="M116.560887,60.134982 C118.314378,62.1338495 119.100426,66.1315846 119.584147,71.4428612 C120.040633,77.8491467 120.121377,84.2743857 119.826008,90.6891002 C119.402751,95.5434928 113.658558,96.3430398 112.146928,92.8592992 C111.723672,91.8884207 106.584131,71.8426347 106.34227,69.5582147 C106.100409,67.2737946 105.556223,63.0476175 106.705061,60.1920925 C107.8539,57.3365674 113.960884,57.2223464 116.560887,60.134982 Z" id="Path" fill="#F8BC96"></path>
                <path d="M97.2394366,57 C96.4028169,59.28 95.7892958,61.44 96.068169,62.58 C96.9047887,66.06 106.386479,69 106.386479,69 L107,69 L107,57.78 C103.318873,57.78 100.864789,57 97.2394366,57 Z" id="Path" fill="#28557D"></path>
                <path d="M118.889198,25.2625 C118.246612,23.74375 114.741601,23.125 113.105929,22.675 C111.470257,22.225 106.621658,22 106.621658,22 C106.621658,22 98.9106326,22.7875 97.2749606,22.675 C96.5739583,22.675 96.0482066,25.09375 95.7561223,25.825 C94.237284,29.70625 92.4847783,34.2625 96.281874,37.4125 C97.1581269,38.14375 97.9175461,46.35625 97.9175461,50.18125 C97.8425965,52.6107595 97.3286323,55.0091198 96.3987078,57.26875 C100.195803,57.26875 102.766145,58 106.621658,58 L118.071362,58 C116.903025,55.01875 115.617854,51.75625 115.32577,50.18125 C113.105929,38.48125 119.940701,27.45625 118.889198,25.2625 Z" id="Path" fill="#90CBE8"></path>
                <path d="M106,58 L106,69 L106.655295,69 C106.655295,69 118.033605,66.8823529 118.927189,63.5294118 C119.225051,62.3529412 118.569756,60.2352941 117.676171,58 L106,58 Z" id="Path" fill="#28557D"></path>
                <path d="M110.428571,20.1111111 C109.962963,18.8306878 109.962963,14 109.962963,14 L103.851852,14 C103.851852,14 103.910053,18.8306878 103.444444,20.1111111 C102.978836,21.3915344 101,22.9047619 101,22.9047619 L105.481481,25 L112,22.5555556 C111.336892,21.8392001 110.804976,21.0117753 110.428571,20.1111111 L110.428571,20.1111111 Z" id="Path" fill="#F8BC96"></path>
                <path d="M110,16.3207547 C109.945122,15.0754717 109.945122,14 109.945122,14 L104.182927,14 C104.182927,14 104.237805,18.6981132 103.79878,19.9433962 C103.359756,21.1886792 101,23 101,23 L110,16.3207547 L110,16.3207547 Z" id="Path" fill="#F5A37E"></path>
                <path d="M112.532271,11.603455 C111.110664,16.1049569 105.957337,18.6121225 103.587991,17.871369 C101.218645,17.1306155 99.2639345,12.6291137 100.270907,7.95666874 C101.277879,3.28422379 105.009598,1.2329065 108.504383,2.25856515 C111.999169,3.28422379 113.953879,7.1019532 112.532271,11.603455 Z" id="Path" fill="#F8BC96"></path>
                <path d="M104.435375,4.68191537 C104.761907,6.12164811 105.904766,7.08146993 108.517018,7.74134744 C111.129269,8.40122494 111.292534,11.3406793 111.129269,12.4804677 C110.966003,13.6202561 110.31294,15 110.31294,15 C110.31294,15 114.993224,11.2806904 112.000019,5.10183742 C109.006815,-1.07701559 104.108844,1.4425167 104,1.86243875 C104.087644,2.8119565 104.233097,3.75390568 104.435375,4.68191537 Z" id="Path" fill="#8E3C26"></path>
                <path d="M105.608053,3.76957139 C105.608053,3.76957139 105.371925,5.63117432 103.600961,5.74068037 C102.321875,5.93271679 101.097366,6.3609493 100,7 C100,7 100.295161,2.56500479 103.778057,2.07222754 C107.260953,1.5794503 105.608053,3.76957139 105.608053,3.76957139 Z" id="Path" fill="#8E3C26"></path>
                <path d="M110.183973,38.4392157 C109.231822,37.9843137 107.103486,38.2117647 102.06269,37.927451 C97.0218946,37.6431373 96.3497884,35.0843137 95.5656646,33.9470588 C94.7815408,32.8098039 95.5656646,29.227451 95.5656646,29 C94.725532,32.0137255 94.5014966,35.0843137 97.1899211,37.4156863 C98.0300537,38.154902 98.7581687,46.4568627 98.7581687,50.3235294 C98.6863087,52.7795042 98.1935307,55.2039904 97.3019388,57.4882353 C99.3453364,57.5315974 101.384173,57.7025082 103.406903,58 C103.090195,56.5973196 102.884176,55.1712302 102.790805,53.7352941 C102.790805,48.2196078 113.656521,52.0862745 114.832707,49.6980392 C116.008892,47.3098039 110.576035,41.5098039 111.192132,40.7137255 C111.808229,39.9176471 111.192132,38.9509804 110.183973,38.4392157 Z" id="Path" fill="#BACFED"></path>
                <polygon id="Path" fill="#BACFED" points="105.44898 23 106 25 103 23.5"></polygon>
                <polygon id="Path" fill="#BACFED" points="105 25 105.769231 23 108 24"></polygon>
                <path d="M96.999282,57 C96.999282,57 95.3615859,59.7255521 95.0227523,64.6656151 C94.6839186,69.6056782 98.2416721,92.4321767 98.2416721,92.4321767 L108.011376,93 L121,91.977918 C121,91.977918 120.661166,71.1388013 120.096444,64.8927445 C119.531721,58.6466877 117.724608,57.170347 117.724608,57.170347 L105.978374,57.6246057 L96.999282,57 Z" id="Path" fill="#DE5D3F"></path>
                <polygon id="Path" fill="#E1F2FD" points="107 22.4736842 108.777778 25 114 22.3684211 112.111111 20"></polygon>
                <polygon id="Path" fill="#E1F2FD" points="100 22.2619048 102.769231 20 106 22.3809524 103.626374 25"></polygon>
                <path d="M106.033711,78.1230284 C105.315694,78.9179811 105.674702,85.1072555 104.537841,86.3564669 C103.40098,87.6056782 101.546101,87.4353312 100.528909,85.2776025 C99.5117174,83.1198738 96.8191512,67.6182965 99.0330389,62.2239748 C100.528909,58.4195584 103.640319,57.511041 103.640319,57.511041 L103.28131,57.3974763 L97.1183252,57 C97.1183252,57 95.3831158,59.7255521 95.024107,64.6656151 C94.6650982,69.6056782 98.4346909,92.4321767 98.4346909,92.4321767 L108.786112,93 L111,92.8864353 C111,92.8864353 108.546773,92.3753943 108.187764,90.2176656 C107.409912,85.9589905 106.691894,77.4416404 106.033711,78.1230284 Z" id="Path" fill="#D52E1E"></path>
                <path d="M117.053456,24.0322112 C118.741287,24.2607246 119.416419,29.8593008 118.741287,35.6292621 C117.535694,45.6267197 118.548392,49.1115478 115.510297,48.9972911 C112.472202,48.8830345 113.09911,44.7697948 113.002663,36.0291604 C112.954439,29.2308892 113.533124,23.5180563 117.053456,24.0322112 Z" id="Path" fill="#90CBE8"></path>
                <polygon id="Rectangle" fill="#5182B0" transform="translate(103.162222, 38.413869) rotate(-0.900000) translate(-103.162222, -38.413869) " points="95.6176649 28.3891916 110.705489 28.3901585 110.706779 48.438546 95.6189549 48.4375792"></polygon>
                <path d="M97.5074627,29.0569801 C97.5074627,29.0569801 98.5223881,35.951567 101.208955,39.1424501 C103.895522,42.3333333 110.880597,43.2450142 110.880597,43.2450142 L111,48.7720798 L95.2985075,49 L95,29 L97.5074627,29.0569801 Z" id="Path" fill="#026A9D"></path>
                <path d="M92.5717605,43.7840529 C93.6675141,42.5592875 92.7447742,39.9427433 88.82313,36.8251588 C84.9014857,33.7075743 78.0386083,28.0291167 77.1158685,29.1425397 C76.1931287,30.2559628 80.9798415,35.6003934 84.4401158,40.165428 C87.9003902,44.7304625 90.3225822,46.3449259 92.5717605,43.7840529 Z" id="Path" fill="#F8BC96"></path>
                <path d="M117.965494,47.0802921 C118.355702,45.5514256 115.401274,42.8900654 110.886016,41.6443223 C106.370759,40.3985793 98.2878901,38.0203425 98.0091705,39.4359597 C97.7304509,40.8515768 103.862282,43.682811 108.600516,46.4007958 C113.338749,49.1187807 117.073592,50.2512744 117.965494,47.0802921 Z" id="Path" fill="#F8BC96"></path>
                <path d="M94.018047,39.4433929 L94.018047,39.4433929 C94.041735,39.2762091 94.1244279,39.1331933 94.2413655,39.0571682 C94.358303,38.9811431 94.4959102,38.980934 94.612984,39.0566036 L96.6357699,39.7528242 C96.8845249,39.8620163 97.0356964,40.1896225 96.9927321,40.5264027 L96.9927321,40.5264027 C96.9087556,40.8498512 96.6568031,41.0464149 96.3977951,40.9905498 L94.3750092,40.2169713 C94.2466031,40.1807368 94.1354299,40.0770911 94.0678276,39.9305892 C94.0002254,39.7840873 93.9822091,39.6077643 94.018047,39.4433929 L94.018047,39.4433929 Z" id="Path" fill="#F8BC96"></path>
                <path d="M94.0181878,38.4735973 L94.0181878,38.4735973 C94.1028196,38.1501488 94.3567382,37.9535851 94.6177674,38.0094502 L96.6563383,38.7830287 C96.7859179,38.8138295 96.8967655,38.9213526 96.9556905,39.0734029 C97.0146155,39.2254532 97.0147775,39.4043796 96.9561281,39.5566071 L96.9561281,39.5566071 C96.9322552,39.7237909 96.848917,39.8668067 96.7310669,39.9428318 C96.6132169,40.0188569 96.4745358,40.019066 96.3565484,39.9433964 L94.3779356,39.2471758 C94.2485275,39.2109412 94.1364867,39.1072956 94.0683569,38.9607937 C94.0002272,38.8142917 93.9820703,38.6379687 94.0181878,38.4735973 L94.0181878,38.4735973 Z" id="Path" fill="#F8BC96"></path>
                <path d="M95.0020201,37.4958283 L95.0020201,37.4958283 C95.0299359,37.3260528 95.1097866,37.1790622 95.2226546,37.0896801 C95.3355225,37.000298 95.4713653,36.9764773 95.5980003,37.0238613 L97.6243332,37.7318118 C97.7529645,37.7686569 97.8643326,37.8740487 97.9320534,38.0230189 C97.9997742,38.1719891 98.0178221,38.3512828 97.9819214,38.5184236 L97.9819214,38.5184236 C97.8977977,38.8473215 97.6454033,39.0471969 97.3859411,38.9903906 L95.3596082,38.28244 C95.1249221,38.148605 94.9810508,37.8321213 95.0020201,37.4958283 Z" id="Path" fill="#F8BC96"></path>
                <path d="M95.018047,36.4923201 L95.018047,36.4923201 C95.0459139,36.3237458 95.1256248,36.1777953 95.2382952,36.0890456 C95.3509656,36.0002959 95.4865706,35.9766437 95.612984,36.0236924 L97.6357699,36.7266339 C97.8845249,36.83688 98.0356964,37.1676487 97.9927321,37.5076799 L97.9927321,37.5076799 C97.9648652,37.6762542 97.8851543,37.8222047 97.7724839,37.9109544 C97.6598135,37.9997041 97.5242084,38.0233563 97.3977951,37.9763076 L95.3750092,37.2733661 C95.2466031,37.2367818 95.1354299,37.1321356 95.0678276,36.9842195 C95.0002254,36.8363034 94.9822091,36.6582782 95.018047,36.4923201 L95.018047,36.4923201 Z" id="Path" fill="#F8BC96"></path>
                <path d="M101,39.5 C100.152013,38.7666709 99.2693184,38.0873458 98.3559322,37.4651163 C97.8474576,37.1744186 95.559322,37 95.559322,37 C95.559322,37 96.0169492,38.0465116 95.8135593,38.5697674 C95.6101695,39.0930233 95,40.4302326 95,40.4302326 C95.8115019,40.8690756 96.6432332,41.2572432 97.4915254,41.5930233 C98.1875166,41.8212093 98.9040245,41.9577532 99.6271186,42 L101,39.5 Z" id="Path" fill="#F8BC96"></path>
                <path d="M80,30.7926891 C80,30.7926891 78.959375,27.9361692 77.1671874,28.0010901 C75.3749999,28.066011 73.8718748,29.8837964 73.4671873,30.14348 C71.6749997,31.4418982 69.1312497,30.5979264 67.9171871,31.1172937 C66.7031246,31.6366609 66.8765621,32.5455536 67.3968746,32.5455536 C70.0562497,32.28587 71.7328122,33.1298418 72.8890623,32.8701582 C74.0453123,32.6104746 78.496875,33 78.496875,33 L80,30.7926891 Z" id="Path" fill="#F8BC96"></path>
                <path d="M78,29.8268693 C78,29.8268693 76.6210555,28.1555412 75.5603289,28.0102083 C74.4996023,27.8648754 73.4919121,29.3182042 72.5902945,29.3908707 C71.6886769,29.4635371 72.0599312,30.0448686 72.1660038,30.1902015 C72.2720765,30.3355344 73.3858394,30.2628679 73.8631664,30.3355344 C74.3404933,30.4082008 76.5149828,32.0795289 78,29.8268693 Z" id="Path" fill="#F8BC96"></path>
                <path d="M39.2895654,43.6991826 C42.5127856,45.4627783 45.8576369,39.0341877 47.3172083,35.7914473 C48.7767797,32.5487069 52,22.7067055 52,22.7067055 L48.3510714,21 C44.1785194,25.9957575 40.5519932,31.3703203 37.5259165,37.0430313 C37.0393927,37.9532742 36.0663451,41.8786968 39.2895654,43.6991826 Z" id="Path" fill="#6D2F0F"></path>
                <path d="M7.11142972,135.547079 C7.11142972,135.547079 9.30996617,139.470028 8.96282884,140.298821 C7.99969814,141.541588 6.39937883,142.178383 4.79718082,141.956405 C3.06149415,141.735394 0.63153281,139.635787 0.168683031,139.525281 C-0.294166749,139.414776 0.342251698,134 0.342251698,134 L7.11142972,135.547079 Z" id="Path" fill="#1A1A1A"></path>
                <path d="M22.58517,24.9991119 C20.0185448,26.9104439 20.8740865,29.5525792 22.9844228,31.9136363 C25.094759,34.2746934 38.1560292,44 39.1256432,44 C40.0952571,44 43.4603878,40.7394926 42.9470628,39.3903171 C42.4337378,38.0411416 32.6235261,28.0347568 30.570226,26.4045031 C28.5169259,24.7742493 25.5510479,22.7504861 22.58517,24.9991119 Z" id="Path" fill="#6D2F0F"></path>
                <path d="M25.6219239,24.0201467 C26.8296823,23.9022461 29.8203221,24.1969978 33.3285727,27.7929684 C35.6290649,30.150982 40,34.867009 40,34.867009 C39.3695938,36.5707755 38.366129,38.1035246 37.0668725,39.3472348 C35.6811917,40.6716979 33.9723975,41.5881914 32.1208143,42 C32.1208143,42 22.803821,32.4500452 22.056161,29.7383296 C21.8261118,28.9719752 22.1711856,24.2559481 25.6219239,24.0201467 Z" id="Path" fill="#6B9C53"></path>
                <path d="M16.1174785,11 C16.1174785,11 15.7107223,20.2483349 15.18775,20.7050428 C13.4445091,22.0751665 7.28505795,23.2169363 6.12289736,25.6717412 C4.96073677,28.1265461 12.3985646,41.7706946 13.3864011,46.1665081 C14.3742376,50.5623216 12.2823485,57.2416746 11.5850522,61.5233111 C10.8877558,65.8049477 24.5431428,71 25.066115,71 C25.5890873,71 30.0052976,66.9467174 30.81881,65.5765937 C31.6323224,64.20647 30.876918,53.188392 30.876918,50.3910561 C30.876918,47.5937203 31.5742144,37.831589 31.6904304,37.2036156 C32.2121154,34.3554647 32.0730788,31.4283828 31.2836742,28.6403425 C31.1093501,27.7269267 31.1674582,26.2426261 30.7025939,25.6717412 C30.2377297,25.1008563 24.6593588,22.9885823 24.6012508,22.4176974 C24.5431428,21.8468126 23.8458464,13.7973359 23.8458464,13.7973359 L16.1174785,11 Z" id="Path" fill="#6D2F0F"></path>
                <path d="M15.4635416,21 L23.4387318,25.8244959 L24.626526,22.7027633 C24.626526,22.7027633 29.8867578,24.3487677 30.5654974,25.4839432 C31.244237,26.6191187 31.5836068,29.5138163 31.8098533,30.4787155 C32.0810532,33.4248635 32.0621077,36.3906673 31.7532917,39.3330844 C31.5270452,41.4899178 31.5836068,44.3278566 31.244237,48.017177 C30.9048672,51.7064974 31.3007986,58.9716206 31.3007986,58.9716206 C31.3007986,58.9716206 28.3030321,59.0851382 23.6649783,58.8581031 C19.0269245,58.631068 12.9182682,57.7229276 12.63546,57.5526512 C12.3526519,57.3823749 13.0879531,48.3577296 12.8617066,47.3928305 C12.63546,46.4279313 6.13087235,30.4787155 6.01774908,28.4353996 C5.85031911,26.6112753 6.88030097,24.8886556 8.56302253,24.1784914 C10.1467482,23.3838686 15.4635416,21 15.4635416,21 Z" id="Path" fill="#3A8835"></path>
                <path d="M9.39128662,24 C9.39128662,24 4.10492379,26.8708609 9.33382615,30.8675497 C11.6322448,32.6125828 22.4922727,35.2582781 24.5608495,35.8774834 C31.8583286,38.0728477 20.5386169,54.0033113 19.6767099,55.1854305 C19.134939,56.030025 18.8370686,57.0027248 18.814803,58 L11.8046262,57.2119205 C9.56366801,57.6622517 12.9538355,47.3609272 12.0919285,45.1655629 C11.2300215,42.9701987 6.00111915,30.2483444 6.00111915,28.615894 C5.95501333,26.5090997 7.33756472,24.6266821 9.39128662,24 L9.39128662,24 Z" id="Path" fill="#6B9C53"></path>
                <polygon id="Path" fill="#4F2111" points="25 17.7857143 17.1632653 15 17 19.5535714 19.3945578 21"></polygon>
                <path d="M27.056594,1.87747523 C24.8187325,0.0458475067 18.5173858,-1.54944116 15.6317224,2.70466195 C12.7460589,6.95876506 14.2183362,10.9765291 15.9850689,13.4580892 C17.2374248,15.3080277 19.0568508,16.6978282 21.1674849,17.4167685 C21.6975047,17.6531076 26.2910098,18.2439552 27.2332673,17.8894467 C28.1755247,17.5349381 28.1755247,13.0444959 28.352198,13.0444959 C28.5288713,13.0444959 29,12.7490721 29,12.3945635 C29,12.0400549 28.352198,8.55405372 28.4699802,8.19954513 C28.5877624,7.84503654 29.5300198,4.00452679 27.056594,1.87747523 Z" id="Path" fill="#6D2F0F"></path>
                <path d="M29,4.12832548 C29,4.12832548 25.2592715,2.40882594 20.9053088,6.29156684 C19.9241341,7.12358275 21.9478069,10.5071141 21.7025132,10.8399205 C21.4572195,11.1727268 17.9617847,8.4548082 18.1457549,8.84308229 C19.617517,12.7258232 18.2684018,15 17.9004613,15 C17.5325207,15 12.6879707,9.6750982 14.343703,5.07127685 C15.9994353,0.467455494 21.3345727,-0.142689504 22.6223645,0.0237136769 C23.9101563,0.190116858 27.834855,0.35652004 29,4.12832548 Z" id="Path" fill="#36180E"></path>
                <path d="M19.5025332,8.51842436 C20.00102,9.90671934 20.3125743,11.7175389 19.5025332,11.9589815 C18.6924921,12.2004241 17.7578292,11.355375 17.2593424,9.96707999 C16.7608555,8.57878502 17.0100989,7.31121134 17.7578292,7.06976874 C18.5055595,6.82832613 19.0040463,7.19049004 19.5025332,8.51842436 Z" id="Path" fill="#6D2F0F"></path>
                <rect id="Rectangle" fill="#1A1A1A" x="19" y="136" width="6" height="1"></rect>
                <path d="M20.1620158,130.043958 C19.5258447,131.08478 19.1337739,132.245387 19.0129432,133.445439 C18.9035077,134.387388 19.5054029,136.375947 20.1620158,136.375947 C22.2097824,136.352813 24.2569408,136.457698 26.290403,136.68993 C28.2602418,136.951582 28.9715724,138.050522 33.950887,137.998192 C35.4282661,137.998192 38,137.945861 38,137.370226 C38,134.858363 33.1848386,135.747981 31.7074596,134.439719 C27.8224998,131.038237 25.2507659,130.200949 25.2507659,130.200949 C25.2507659,130.200949 20.2714513,129.886966 20.1620158,130.043958 Z" id="Path" fill="#1A1A1A"></path>
                <path d="M23.29499,57.7349121 C23.29499,57.7349121 16.3064338,64.63178 16.0200176,67.6279603 C15.7336014,70.6241406 18.5977637,80.2910619 19.6861454,87.8663102 C20.7745271,95.4415584 21.3473596,96.9679144 21.1182266,98.776929 C20.8890936,100.585943 18.7696135,107.822002 18.8268967,112.627196 C18.9414632,118.280367 18.655047,129.812834 18.655047,129.812834 C18.655047,129.812834 20.1444114,131 24.0969555,131 C26.6174183,130.943468 28.7941817,129.190985 28.7941817,129.190985 C28.7941817,129.190985 30.3981127,100.868602 30.6845289,97.9289534 C30.9136619,96.0068755 32.5175928,82.7219251 32.9758588,71.867838 C33.1477085,68.4194041 32.3457431,58.4132926 32.3457431,57 L23.29499,57.7349121 Z" id="Path" fill="#026A9D"></path>
                <polygon id="Path" fill="#BACFED" points="23.5945946 23.7333333 24 26 19 23"></polygon>
                <polygon id="Path" fill="#BACFED" points="24 26 24.8 23 26 24"></polygon>
                <path d="M11.3272311,57 C11.3272311,57 8.52402746,63.9214131 7.43707094,68.5356885 C6.35011442,73.149964 4.9771167,97.0865177 4.57665904,99.3359769 C4.17620137,101.585436 2.80320366,108.449171 1.71624714,115.197549 C0.629290618,121.945926 0,135.673396 0,135.673396 L8.63844394,137 L14.5881007,103.892574 C15.389016,99.3936554 23.9702517,67.555155 23.9702517,67.555155 L25,57.2883922 L11.3272311,57 Z" id="Path" fill="#5182B0"></path>
                <path d="M11.6878788,76.5339168 C10.9393939,79.587892 8.80909091,100.389497 8.63636364,101.54194 C8.46363636,102.694384 3.10909091,134.559446 2.87878788,136 L0,135.596645 C0,135.596645 0.633333333,121.94019 1.72727273,115.140773 C2.82121212,108.341357 4.2030303,101.54194 4.60606061,99.2946754 C5.00909091,97.0474106 6.33333333,73.1342086 7.48484848,68.5244347 C8.63636364,63.9146608 11.4,57 11.4,57 L19,57.2304887 C19,57.2304887 12.3787879,73.4799416 11.6878788,76.5339168 Z" id="Path" fill="#026A9D"></path>
                <path d="M11.4972376,56.2727273 L25.0883978,56.6136364 C25.8066298,56.6136364 30.8895028,56 30.8895028,56 L31,58.5227273 C31,58.5227273 26.0828729,59 23.7624309,59 C21.441989,59 11,58.3181818 11,58.3181818 L11.4972376,56.2727273 Z" id="Path" fill="#3B1B1D"></path>
                <rect id="Rectangle" fill="#732D1D" x="24" y="57" width="4" height="3" rx="0.6"></rect>
                <polygon id="Path" fill="#E1F2FD" points="15 21.6935484 16.3935484 20 23 23.7741935 21.9677419 26"></polygon>
                <polygon id="Path" fill="#E1F2FD" points="25 23.7419355 26.7714286 26 27 23.6129032 25.5714286 22"></polygon>
                <path d="M8.26570615,26.0954029 C5.02516002,26.7119663 4.55380786,29.3463737 5.31975512,32.2610372 C6.08570239,35.1757006 14.3343653,51.5426571 15.2770696,51.9350157 C16.2197739,52.3273742 20.7565385,50.8700425 20.9922146,49.5248132 C21.2278906,48.1795839 16.0430168,32.9336518 14.9235555,30.691603 C13.8040941,28.4495541 12.0365235,25.4227882 8.26570615,26.0954029 Z" id="Path" fill="#6D2F0F"></path>
                <path d="M11.1306473,25.4351369 C12.2964774,25.8914505 14.8030119,27.431509 15.3859269,29.656038 C16.2020079,32.8502334 19,41.0068395 19,41.0068395 C17.6674418,42.2012482 16.0718126,43.0795075 14.3366799,43.5736037 C12.4954246,44.1004302 10.5442871,44.1397956 8.68240428,43.6876821 C8.68240428,43.6876821 4.7768737,31.3101749 5.0100397,28.6293323 C5.24320571,25.9484897 7.98290627,24.1232352 11.1306473,25.4351369 Z" id="Path" fill="#3A8835"></path>
                <path d="M15.9148984,45.8306241 C12.9694422,47.8097632 17.8588996,53.238259 20.391992,55.7828664 C22.9250844,58.3274739 30.9956346,65 30.9956346,65 L34,62.5119394 C30.845746,56.976378 27.1365481,51.7493245 22.9250844,46.9050139 C22.277084,46.1699051 18.8603547,43.7383913 15.9148984,45.8306241 Z" id="Path" fill="#6D2F0F"></path>
                <path d="M47,19.6912795 C47,19.6912795 47.6377764,16.4386389 48.1161087,15.8217588 C48.594441,15.2048787 50.8798064,10.438078 51.1986946,11.0549581 C51.5175828,11.6718382 49.9231418,15.7656788 50.0825859,15.8217588 C50.24203,15.8778389 52.2616552,16.775119 52.8994316,17.4480791 C53.537208,18.1210392 50.9329544,22.4391999 50.9329544,22.4391999 L47.9035166,23 L47,19.6912795 Z" id="Path" fill="#6D2F0F"></path>
                <path d="M42.2320896,62.4308641 L43.2877031,62.0379199 C43.5130281,61.9612097 43.7981734,62.0043304 43.9373115,62.136156 L43.9373115,62.136156 C44.0641274,62.2724537 43.992841,62.4449364 43.7749094,62.5291002 L42.8004969,62.9220444 C42.6967789,62.9798397 42.5567499,63.0076159 42.416593,62.9981959 C42.2764361,62.9887759 42.1499023,62.9430838 42.0696875,62.8729264 L42.0696875,62.8729264 C41.9331049,62.7217693 42.002526,62.5328035 42.2320896,62.4308641 Z" id="Path" fill="#91A5A3"></path>
                <path d="M32.017199,69.9348719 L32.017199,69.9348719 C31.848015,69.6802562 32.9759085,68.7127166 33.2578819,68.5090241 L42.0554515,63.1111718 C42.1854736,63.0175007 42.3546588,62.9804372 42.5177622,63.0098929 C42.6808656,63.0393487 42.8212497,63.1323191 42.9013717,63.2639412 L42.9013717,63.2639412 C43.0823587,63.5180869 43.0075037,63.8560488 42.7321877,64.0277882 L33.934618,69.4256405 C33.6526447,69.6293331 32.2427777,70.1894875 32.017199,69.9348719 Z" id="Path" fill="#4C5C61"></path>
                <polygon id="Rectangle" fill="#91A5A3" transform="translate(41.384263, 63.471820) rotate(54.200000) translate(-41.384263, -63.471820) " points="40.6983088 63.1552034 42.0714503 63.1525381 42.0702176 63.7884362 40.6970761 63.7911015"></polygon>
                <path d="M38.1055096,65.8847666 L38.1055096,65.8847666 C38.0309003,65.865561 37.9855383,65.7877151 38.0041906,65.7108928 C38.0228429,65.6340706 38.0984463,65.587363 38.1730556,65.6065686 L41.6179021,63.033237 C41.7321003,62.9699592 41.8738549,62.999151 41.9556321,63.1027865 L41.9556321,63.1027865 C42.0231781,63.2418855 42.0231781,63.3809845 41.8880861,63.450534 L38.4432396,65.9543161 C38.3081476,66.0238656 38.1730556,66.0238656 38.1055096,65.8847666 Z" id="Path" fill="#CADBD9"></path>
                <path d="M33.6127651,71.8572872 L33.6127651,71.8572872 C33.9648444,71.6294887 34.1011285,71.1063753 33.9198311,70.6786436 L32.3230879,67.4373737 C32.2339104,67.2310386 32.0751637,67.0805673 31.8871897,67.0241985 C31.6992157,66.9678297 31.5001122,67.0109906 31.3404768,67.1427128 L31.3404768,67.1427128 C31.0108288,67.3951638 30.9029996,67.9125288 31.094824,68.3213564 L32.6301539,71.5626263 C32.7193315,71.7689614 32.8780781,71.9194327 33.0660522,71.9758015 C33.2540262,72.0321703 33.4531296,71.9890094 33.6127651,71.8572872 L33.6127651,71.8572872 Z" id="Path" fill="#4F2111"></path>
                <path d="M34.6000637,70.9069551 L34.6611784,70.9069551 C34.9892239,70.6521179 35.0965288,70.1298626 34.905637,69.7171706 L33.3777707,66.4452634 C33.2765551,66.2325324 33.1077018,66.0800245 32.9110528,66.0237249 C32.7144038,65.9674252 32.507377,66.0123204 32.3388216,66.1478173 L32.3388216,66.1478173 C32.0107761,66.4026544 31.9034712,66.9249097 32.094363,67.3376017 L33.6222293,70.609509 C33.8481526,70.9797354 34.257532,71.104264 34.6000637,70.9069551 L34.6000637,70.9069551 Z" id="Path" fill="#4F2111"></path>
                <path d="M36.6760263,70.900315 L36.6760263,70.900315 C36.9831873,70.6271086 37.0865033,70.1320511 36.9228046,69.7178316 L35.3804401,66.4660021 C35.189659,66.0423066 34.7515518,65.878301 34.3933268,66.096476 L34.3933268,66.096476 C34.0312566,66.3534578 33.8965813,66.9019809 34.0848539,67.3528647 L35.6272184,70.6046941 C35.8763793,70.9843842 36.311675,71.1070782 36.6760263,70.900315 L36.6760263,70.900315 Z" id="Path" fill="#4F2111"></path>
                <path d="M37.6127651,69.8564554 L37.6127651,69.8564554 C37.9648444,69.6273293 38.1011285,69.1011672 37.9198311,68.6709427 L36.3230879,65.4107826 C36.1126248,65.0130648 35.6813081,64.8829698 35.3404768,65.1144044 L35.3404768,65.1144044 C35.0108288,65.3683266 34.9029996,65.8887069 35.094824,66.2999172 L36.6301539,69.5600772 C36.7193315,69.7676149 36.8780781,69.9189632 37.0660522,69.9756605 C37.2540262,70.0323578 37.4531296,69.9889454 37.6127651,69.8564554 Z" id="Path" fill="#4F2111"></path>
                <path d="M31.122449,62 C31.122449,62 34.8231293,64.8735632 35.3673469,65.6206897 C35.9115646,66.3678161 37,69.816092 37,69.816092 C37,69.816092 35.4761905,69.4712644 34.8231293,69.9885057 L32.7006803,72 C32.7006803,72 30.5782313,69.7586207 29.9795918,68.3793103 C29.5603504,67.4995182 29.2319311,66.5746591 29,65.6206897 L31.122449,62 Z" id="Path" fill="#6D2F0F"></path>
                <polygon id="Rectangle" fill="#7A858E" transform="translate(32.000000, 104.500000) rotate(-90.000000) translate(-32.000000, -104.500000) " points="-2 102 66 102 66 107 -2 107"></polygon>
                <polygon id="Rectangle" fill="#7A858E" transform="translate(154.000000, 104.500000) rotate(-90.000000) translate(-154.000000, -104.500000) " points="120 102 188 102 188 107 120 107"></polygon>
                <rect id="Rectangle" fill="#7A858E" x="30" y="73" width="126" height="9"></rect>
                <polygon id="Path" fill="#B9B9BD" style="mix-blend-mode: multiply;" points="157 78.7857143 30 80 30 76 157 76"></polygon>
                <rect id="Rectangle" fill="#9AA3AA" x="24" y="71" width="138" height="6"></rect>
                <path d="M148.883991,26.2972464 C150.824546,25.3164309 153.941196,26.7011116 155.470119,31.374409 C156.999042,36.0477064 160.644934,48.3944427 161.115372,50.4137687 C161.58581,52.4330948 163.526366,56.702527 159.527645,58.5487679 C155.528924,60.3950089 153.823587,56.1832717 152.412274,53.0100451 C146.061364,38.8747628 143.591566,28.9512177 148.883991,26.2972464 Z" id="Path" fill="#F8BC96"></path>
                <path d="M113.719004,51.310516 C113.004587,49.491852 111.337615,48.2242983 105.562746,49.5469631 C99.7878768,50.8696278 88,54.892733 88,54.892733 L88.3572084,57.8687286 C88.3572084,57.8687286 100.502294,58.2545058 103.657634,57.7033955 C106.812975,57.1522852 115.68365,56.1051756 113.719004,51.310516 Z" id="Path" fill="#F8BC96"></path>
                <path d="M161.719004,54.2925349 C161.004587,52.4689823 159.27808,51.2532807 153.562746,52.5242415 C147.847412,53.7952024 136,57.8843807 136,57.8843807 L136.357208,60.8683757 C136.357208,60.8683757 148.502294,61.2551899 151.657634,60.7025982 C154.812975,60.1500066 163.68365,59.1000824 161.719004,54.2925349 Z" id="Path" fill="#F8BC96"></path>
                <path d="M147.469676,142.924206 C147.469676,142.924206 150.655311,141.953212 152.278182,142.001762 C153.901053,142.050311 154.862755,142.778557 154.982967,143.603901 C155.10318,144.429246 154.562223,144.283597 154.141479,144.671994 C153.720734,145.060392 148.852122,147.827724 147.770208,147.924823 C146.688294,148.021922 143.983509,148.070472 143.021808,147.779174 C142.060106,147.487876 142,144.623445 142,144.623445 L147.469676,142.924206 Z" id="Path" fill="#1A1A1A"></path>
                <path d="M126.374076,48.504065 C124.241986,42.0731707 118.767701,30.9756098 121.994648,29.097561 C126.14358,26.5934959 138.24463,25 138.24463,25 L138.24463,25.2276423 C138.24463,25.2276423 148.559336,26.5365854 152.765892,29.0406504 C155.935214,30.9756098 152.247275,42.2439024 150.115185,48.6747967 C149.596569,50.2113821 149.654193,57.1544715 149.827065,63.300813 C149.884689,64.8373984 151.152418,71.7804878 150.921922,74.6829268 C150.864298,75.5365854 141.010585,80.8861789 138.24463,81 L138.24463,80.8292683 C135.478676,80.6585366 125.624963,75.3658537 125.567339,74.5121951 C125.336843,71.6097561 126.604572,64.6666667 126.662196,63.1300813 C126.835068,56.9837398 126.892692,50.0406504 126.374076,48.504065 Z" id="Path" fill="#F8BC96"></path>
                <path d="M128.733719,27.9292434 C127.312061,26.3092009 124.013817,26.5984942 121.05677,30.4750244 C118.099723,34.3515546 110.707105,44.7661134 109.569779,46.5597318 C108.432454,48.3533503 105.247941,51.7091525 108.261855,54.7756615 C111.275768,57.8421705 114.232815,54.4863682 116.621199,51.9405872 C127.141463,40.7160072 132.657493,32.2107842 128.733719,27.9292434 Z" id="Path" fill="#F8BC96"></path>
                <path d="M133.55814,22.5698925 C133.840532,21.2688172 134.518272,15 134.518272,15 L138.528239,15 L138.528239,15.1774194 L142.481728,15.1774194 C142.481728,15.1774194 143.159468,21.5053763 143.44186,22.7473118 C143.724252,23.9892473 147,26 147,26 L138.528239,26 L138.528239,25.7634409 L130,25.7634409 C130,25.7634409 133.275748,23.8709677 133.55814,22.5698925 Z" id="Path" fill="#F5A37E"></path>
                <path d="M144.872839,67 C150.103495,67 152.171429,70.4303106 151.988964,81.0071016 C151.806499,91.5838925 150.225138,102.961089 149.495279,104.619073 C148.76542,106.277056 141.284366,106.334228 140.554507,105.362307 C139.824648,104.390385 138,82.4935695 138,79.0632589 C138,75.6329483 139.15561,67.0571718 144.872839,67 Z" id="Path" fill="#F8BC96"></path>
                <path d="M143.249348,102.115656 L147.682454,102.116497 C148.786867,102.116607 149.682144,103.011884 149.682254,104.116297 L149.683804,111.617426 C149.683914,112.721996 148.788574,113.617516 147.684004,113.617626 C147.683871,113.617626 147.683738,113.617626 147.683605,113.617626 L143.250498,113.616386 C142.146085,113.616275 141.250808,112.720999 141.250698,111.616586 L141.249148,104.115457 C141.249038,103.010887 142.144379,102.115367 143.248948,102.115257 C143.249081,102.115257 143.249214,102.115257 143.249348,102.115257 Z" id="Rectangle" fill="#F8BC96" transform="translate(145.466476, 107.866441) rotate(178.600000) translate(-145.466476, -107.866441) "></path>
                <path d="M145.338628,107 C146.714281,107 150.153415,107.520408 149.994686,117.465986 C149.835956,127.411565 145.920635,141 145.920635,141 L142.640231,141 C142.640231,141 141.000029,122.612245 141.000029,119.085034 C141.000029,111.047619 140.94712,107 145.338628,107 Z" id="Path" fill="#F8BC96"></path>
                <path d="M132.363754,67.063577 C127.093806,66.4911987 124.703946,69.6965169 123.662212,80.2282764 C122.620478,90.760036 122.988149,102.322076 123.539655,104.039211 C124.091161,105.756346 131.505855,106.500438 132.363754,105.64187 C133.221652,104.783303 137.511144,83.1474054 137.878815,79.713136 C138.246486,76.2788666 138.123929,67.6359552 132.363754,67.063577 Z" id="Path" fill="#F8BC96"></path>
                <path d="M125.736515,101.827254 L130.16907,101.824944 C131.273639,101.824368 132.169536,102.719332 132.170112,103.823901 C132.170112,103.824597 132.170112,103.825294 132.170112,103.82599 L132.166186,111.327871 C132.165609,112.431625 131.270983,113.326249 130.167229,113.326824 L125.734675,113.329134 C124.630105,113.32971 123.734208,112.434746 123.733633,111.330177 C123.733632,111.329481 123.733632,111.328784 123.733633,111.328088 L123.737558,103.826207 C123.738135,102.722454 124.632761,101.827829 125.736515,101.827254 Z" id="Rectangle" fill="#F8BC96" transform="translate(127.951872, 107.577039) rotate(7.400000) translate(-127.951872, -107.577039) "></path>
                <path d="M127.101713,106.033992 C125.64497,105.861283 122.003112,105.976422 121.162683,115.820808 C120.322255,125.665193 123.011627,139.654583 123.011627,139.654583 L126.485399,140 C126.485399,140 130.071228,121.980745 130.463429,118.469005 C131.303857,110.524413 131.752086,106.494548 127.101713,106.033992 Z" id="Path" fill="#F8BC96"></path>
                <path d="M150.896094,65 C150.896094,65 152.686282,73.7369197 152.975022,78.5077377 C153.263763,83.2785556 150.953842,104.02874 150.953842,106.327929 C150.953842,108.627119 151.069338,115.639646 150.953842,122.537214 C150.838345,129.434783 149.048157,143 149.048157,143 L140.154961,142.770081 L140.154961,109.029477 C140.154961,104.488578 139,80.3470892 139,80.3470892 L139,65.4023581 L150.896094,65 Z" id="Path" fill="#026A9D"></path>
                <path d="M126.314839,65 C126.314839,65 123.635802,73.4061584 122.894792,78.0953079 C122.153782,82.7844575 122.210783,103.599707 121.982779,105.829912 C121.754776,108.060117 120.899764,115.036657 120.329757,121.841642 C119.759749,128.646628 120.101753,142.313783 120.101753,142.313783 L128.822874,143 C128.822874,143 131.843915,114.178886 132.299921,109.66129 C132.755928,105.143695 138,81.2404692 138,81.2404692 L138,65.6290323 L126.314839,65 Z" id="Path" fill="#026A9D"></path>
                <path d="M146.941729,143.156053 C147.019424,144.385826 147.019424,145.619526 146.941729,146.8493 C146.841038,147.317458 145.683092,147.889651 143.669272,147.993686 C142.530734,148.040418 141.39622,147.827292 140.346469,147.369475 C139.440251,146.953335 140.598197,143 140.598197,143 L146.941729,143.156053 Z" id="Path" fill="#1A1A1A"></path>
                <path d="M124.525306,141.924206 C124.525306,141.924206 121.336748,140.953212 119.712388,141.001762 C118.088028,141.050311 117.065283,141.778557 117.005122,142.603901 C116.94496,143.429246 117.426252,143.283597 117.847382,143.671994 C118.268513,144.060392 123.141592,146.827724 124.224499,146.924823 C125.307405,147.021922 127.95451,147.070472 128.977255,146.779174 C130,146.487876 130,143.623445 130,143.623445 L124.525306,141.924206 Z" id="Path" fill="#1A1A1A"></path>
                <path d="M127.377709,82.7743363 C126.863762,85.9380531 126.292711,106.876106 126.178501,108.026549 C126.064291,109.176991 123.151929,141.504425 122.980614,143 L120.125357,142.769912 C120.125357,142.769912 119.725621,129.079646 120.353778,122.176991 C120.981934,115.274336 121.781406,108.371681 122.009826,106.070796 C122.238247,103.769912 122.124037,82.8893805 122.923509,78.1725664 C123.72298,73.4557522 126.349816,65 126.349816,65 L137.999263,65.6327434 C138.113473,82.6017699 124.922188,78.0575221 124.522452,79.0353982 C124.122716,80.0132743 127.549024,81.6238938 127.377709,82.7743363 Z" id="Path" fill="#5182B0"></path>
                <path d="M146.995599,84.2846765 C146.296039,88.1348616 145.273605,107.102686 145.38123,107.612269 C145.488855,108.121852 145.435042,142.886759 145.435042,142.886759 L145.273605,143 L140.807184,142.886759 L140.807184,109.650602 C140.807184,105.177593 140,87.6818987 140,87.6818987 C140,87.6818987 141.237683,84.2846765 143.228738,84.4545376 C145.219793,84.6243987 147.103224,83.4919913 146.995599,84.2846765 Z" id="Path" fill="#5182B0"></path>
                <path d="M130.249375,11.9210824 C130.310007,12.4260147 129.946212,12.9870507 130.006845,13.7163974 C130.067477,14.4457441 130.431273,14.3896405 130.491905,14.6701585 C130.734435,17.1387167 131.340761,19.8877928 132.856575,19.8316892 C135.585041,19.719482 137.222121,20 139.041098,20 C141.769564,20 145.346886,17.0826131 145.953211,11.9210824 C146.559537,6.75955164 141.163238,2.94450719 136.130734,3.00061079 C131.098231,3.05671438 130.006845,6.47903366 130.188742,11.0795284 C130.188742,11.3600464 130.249375,11.6405644 130.249375,11.9210824 Z" id="Path" fill="#F5A37E"></path>
                <path d="M139.281216,1.09029192 C135.34628,0.405616243 129.145775,3.77193833 131.530585,5.88302167 C132.186407,6.45358473 132.365268,12.3303843 132.365268,12.3303843 C132.365268,12.3303843 133.199952,11.9309902 133.498053,12.273328 C133.796154,12.6156658 134.094255,14.6126366 134.451977,15.5255375 C134.809698,16.4384384 137.134887,19.9759294 137.79071,19.9759294 C138.446533,19.9759294 142.73919,20.1470983 143.335392,19.5765352 C144.559549,17.8424397 145.541662,15.962685 146.256784,13.9850172 C146.852986,12.2162717 149.476277,2.85903742 139.281216,1.09029192 Z" id="Path" fill="#8E3C26"></path>
                <path d="M133.01468,9.35058723 C133.01468,9.16461072 134.262647,8.42070467 134.853789,9.90851676 C135.444931,11.3963288 134.0656,14 133.868552,14 C133.671505,14 132.883316,10.4664463 133.01468,9.35058723 Z" id="Path" fill="#F5A37E"></path>
                <path d="M121.092647,28.3116531 C121.659776,27.3794038 124.552132,26.6219512 127.217637,25.7479675 C128.688006,25.3105742 130.11274,24.7250775 131.471102,24 L144.741913,24 C146.284385,24.6626712 147.905249,25.1132657 149.562507,25.3401084 C152.511577,25.6897019 153.305557,27.0880759 153.75926,28.0785908 C154.212963,29.0691057 154.439814,37.9837398 150.469913,49.6368564 C149.959497,51.2100271 151.320606,62.4552846 150.01621,65.8346883 L138.276646,67 L126.537082,65.8929539 C125.459538,62.0474255 126.537082,51.1517615 126.026667,49.5203252 C125.516251,47.8888889 120.241954,29.8265583 121.092647,28.3116531 Z" id="Path" fill="#313131"></path>
                <polygon id="Path" fill="#1A1A1A" points="130 26 146 26 143.754386 23 132.245614 23"></polygon>
                <path d="M123.038835,28 C123.038835,28 121,28.295239 118.262136,33.2552542 C116.398058,36.6800265 109,46.8952959 109,46.8952959 C110.08145,48.8957183 111.670123,50.5672365 113.601942,51.7372154 C116.339806,53.2724582 117.15534,52.9772192 117.15534,52.9772192 L127,42.1714719 L123.038835,28 Z" id="Path" fill="#313131"></path>
                <path d="M152.969697,27 C152.969697,27 156.121212,28.7531029 157.69697,34.5779286 C158.666667,38.3103413 162,49.9599928 162,49.9599928 C160.248328,51.4026092 158.113194,52.379227 155.818182,52.7875781 C152.606061,53.2965434 151.878788,52.7310264 151.878788,52.7310264 L146,39.7241339 L152.969697,27 Z" id="Path" fill="#313131"></path>
                <path d="M90.2905057,54.8816198 C89.9608753,54.4367098 89.6081012,54.0094414 89.2336429,53.6015827 C89.0667699,53.4346213 87.3980392,52.488507 87.0642931,51.9876229 C86.730547,51.4867388 86.730547,51.0971623 86.6192982,51.0415085 C86.3420256,50.9432955 86.0329233,51.0229066 85.8375103,51.2428625 C85.6420973,51.4628185 85.5993166,51.7792852 85.7293086,52.0432767 C86.0630547,52.989391 86.89742,53.7685441 86.8417957,54.1024668 C86.7861713,54.4363895 84.6168215,54.6033509 84.1718266,54.4363895 C83.7268318,54.2694281 80.8899897,52.8780835 80.778741,52.8224297 C80.6674923,52.7667759 80.1668731,52.7111221 80.0556244,52.8224297 C80.0147046,53.1896481 80.0926974,53.5603099 80.2781218,53.8798516 C80.3893705,54.046813 80,54.2137744 80,54.3807357 L80.2224974,55.1598887 C80.2387121,55.5041048 80.3139749,55.8429666 80.4449948,56.1616569 C80.8285714,56.6463106 81.2370328,57.1107169 81.6687307,57.5530015 C81.8356037,57.6086553 84.2830753,59 84.9505676,59 C85.6180599,59 89.4561404,59 90.5686275,57.8869243 C91.6811146,56.7738485 90.2905057,54.8816198 90.2905057,54.8816198 Z" id="Path" fill="#F8BC96"></path>
                <path d="M151.413176,67.996221 L126.590525,67.996221 C126.429785,68.0157446 126.269154,67.9589169 126.154693,67.8420329 C126.040232,67.7251489 125.984582,67.5611187 126.003701,67.3969768 L126.531842,65.5992442 C126.531842,65.2682908 126.794572,65 127.118666,65 L151.413176,65 C151.73727,65 152,65.2682908 152,65.5992442 L152,67.4569012 C151.969754,67.7642543 151.715671,67.997769 151.413176,67.996221 Z" id="Path" fill="#1A1A1A"></path>
                <rect id="Rectangle" fill="#B7CAEA" x="93" y="64" width="6" height="7"></rect>
                <path d="M98.1454545,71 L98,70.3009709 C98.0727273,70.2427184 101.054545,69.8349515 101.054545,67.7961165 C101.054545,65.7572816 98.2909091,65.7572816 98.1454545,65.7572816 L98.1454545,65 C99.4545455,65 102,65.5825243 102,67.7961165 C102,70.0097087 99.4545455,70.8252427 98.1454545,71 Z" id="Path" fill="#B7CAEA"></path>
                <rect id="Rectangle" fill="#B7CAEA" transform="translate(47.000000, 67.500000) rotate(180.000000) translate(-47.000000, -67.500000) " x="44" y="64" width="6" height="7"></rect>
                <path d="M44.8545455,71 L45,70.3009709 C44.8545455,70.3009709 41.8727273,69.8349515 41.8727273,67.7961165 C41.8727273,65.7572816 44.7090909,65.7572816 44.8545455,65.7572816 L44.8545455,65 C43.5454545,65 41,65.5825243 41,67.7961165 C41,70.0097087 43.4727273,70.8252427 44.8545455,71 Z" id="Path" fill="#B7CAEA"></path>
            </g>
        </g>
    </g>
</svg>