<?xml version="1.0" encoding="UTF-8"?>
<svg width="250px" height="250px" viewBox="0 0 250 250" version="1.1" xmlns="http://www.w3.org/2000/svg" xmlns:xlink="http://www.w3.org/1999/xlink">
    <!-- Generator: Sketch 53.2 (72643) - https://sketchapp.com -->
    <title>da-05-mensen-organisatie-cultuurverandering-thumb</title>
    <desc>Created with Sketch.</desc>
    <g id="da-05-mensen-organisatie-cultuurverandering-thumb" stroke="none" stroke-width="1" fill="none" fill-rule="evenodd">
        <g transform="translate(66.000000, 105.000000)" fill-rule="nonzero" id="05-mensen-organisatie-cultuurverandering">
            <g>
                <polygon id="Path" fill="#815245" points="45.1207729 114 72.8792271 114 76 57 42 57"></polygon>
                <polygon id="Path" fill="#673328" points="38 51 81 51 78.9922179 59 40.0077821 59"></polygon>
                <polygon id="Path" fill="#673328" points="42 119 77 119 73.8333333 113 45.1666667 113"></polygon>
                <rect id="Rectangle" fill="#815245" x="42" y="119" width="35" height="3"></rect>
                <rect id="Rectangle" fill="#402A1B" x="38" y="48" width="43" height="3"></rect>
                <path d="M60.1486329,58 C61.1433704,58.570691 62.5757924,59.2174742 63.0930559,60.0925337 C63.6103194,60.9675933 65.5600048,63.3644955 64.8437938,64.1254169 C64.1275828,64.8863383 61.5412654,65.3809371 60.8648439,64.6200158 C60.1884224,63.8590944 58.5968425,62.1850674 58.636632,61.3861 C58.6764215,60.5871326 58,59.2174742 58,59.2174742 L60.1486329,58 Z" id="Path" fill="#F8B174"></path>
                <path d="M62.084849,61.6049384 L62.1322282,61.6049384 L68.1967678,67.8275988 C68.262286,67.9192794 68.3760448,67.981538 68.5054248,67.9965225 C68.6348048,68.011507 68.7655156,67.9775623 68.8600768,67.9044217 C69.0466411,67.7421435 69.0466411,67.4905277 68.8600768,67.3282495 L62.8429165,61.1824121 C62.683129,60.9948891 62.3686871,60.9439039 62.1322282,61.0671776 C61.9752947,61.2194731 61.9562084,61.4361056 62.084849,61.6049384 L62.084849,61.6049384 Z" id="Path" fill="#402A1B"></path>
                <path d="M63.3691373,61.2345952 C63.6912872,61.7684743 65.1006932,62.2689858 65.8657993,61.8352091 C66.6309054,61.4014324 63.8926309,60.4671441 63.4899435,60.2335721 C63.0872561,60 62,60 62,60 L63.3691373,61.2345952 Z" id="Path" fill="#F8B174"></path>
                <path d="M33.175,16 C33.175,16 33.25,18.9408284 34,19.8106509 C34,19.8106509 33.2875,23 31,23 L31,16.3727811 L33.175,16 Z" id="Path" fill="#F8B174"></path>
                <path d="M27.825,16 C27.825,16 27.75,18.9408284 27,19.8106509 C27,19.8106509 27.7125,23 30,23 L30,16.3727811 L27.825,16 Z" id="Path" fill="#F8B174"></path>
                <path d="M31.8740157,19.9999655 C30.6141732,19.9999655 29.5905512,19.082329 29,18.2705736 C29.072183,17.8500162 29.1116483,17.4254671 29.1181102,17 L31.4015748,17.3176434 L33.6850394,17 C33.7155064,17.7364773 33.8209311,18.4689219 34,19.1882101 C33.446457,19.7099415 32.6772005,20.0036634 31.8740157,19.9999655 L31.8740157,19.9999655 Z" id="Path" fill="#F29D56"></path>
                <path d="M40.106231,117.475489 L43.6539618,121.738012 C44.752069,123.090543 43.1471431,126.123493 40.106231,124.566032 C37.0653189,123.008572 35.5870977,121.451111 34.9535744,121.246182 C34.320051,121.041253 33.8132323,119.688722 34.0666417,116 L40.106231,117.475489 Z" id="Path" fill="#1E2020"></path>
                <path d="M41,66.8401977 L40.8347107,117 L32.7768595,117 L31.7024793,73.8138386 C31.7024793,73.8138386 31.661157,71.4192751 31,70.9991763 L31,66 L41,66.8401977 Z" id="Path" fill="#333333"></path>
                <path d="M21.893769,117.475489 L18.3460382,121.738012 C17.247931,123.090543 18.8528569,126.123493 21.893769,124.566032 C24.9346811,123.008572 26.4129023,121.451111 27.0464256,121.246182 C27.679949,121.041253 28.1867677,119.688722 27.9333583,116 L21.893769,117.475489 Z" id="Path" fill="#1E2020"></path>
                <path d="M21,66.8401977 L21.1652893,117 L29.2231405,117 L30.2975207,73.8138386 C30.2975207,73.8138386 30.4628099,71.2512356 31,70.9991763 L31,66 L21,66.8401977 Z" id="Path" fill="#333333"></path>
                <path d="M36.5705706,20 C37.8836337,20.7580645 42.7379882,21.6845878 42.9767269,24.2956989 C43.2154656,26.90681 41.5442944,38.6989247 41.3055557,45.1003584 C41.066817,51.5017921 41.5442944,67 41.5442944,67 L31,67 L31,22.4426523 L36.5705706,20 Z" id="Path" fill="#026A9D"></path>
                <path d="M25.0044939,20 C23.5912675,20.7580645 18.2809621,22.2741935 18.0240118,24.8853047 C17.7670615,27.4964158 19.6513634,38.6989247 19.9083137,45.1003584 C20.165264,51.5017921 19.6513634,67 19.6513634,67 L31,67 L31,22.4426523 L25.0044939,20 Z" id="Path" fill="#026A9D"></path>
                <polygon id="Path" fill="#FFFFFF" points="37 21.56 30 37 30 23.68 35.5165563 21"></polygon>
                <polygon id="Path" fill="#FFFFFF" points="24 21.6766169 31 37 31 23.6666667 25.3821656 21"></polygon>
                <path d="M31,18 C28.9257261,18 26.8929376,15.4968944 26.3536264,12.5496894 C26.0623246,12.5858033 25.7745449,12.4613321 25.6068877,12.2267081 C25.1505475,11.742236 24.8186636,10.6521739 25.109062,10.0465839 C25.3994604,9.44099379 26.4780828,9.72360248 26.4780828,9.72360248 C26.4780828,9.72360248 26.3536264,5 31,5 L31,18 Z" id="Path" fill="#F8B174"></path>
                <path d="M31,18 C33.0742739,18 35.1070624,15.4968944 35.6463736,12.5496894 C35.9376754,12.5858033 36.2254551,12.4613321 36.3931123,12.2267081 C36.8494525,11.742236 37.1813364,10.6521739 36.890938,10.0465839 C36.6005396,9.44099379 35.5219172,9.72360248 35.5219172,9.72360248 C35.5219172,9.72360248 35.6463736,5 31,5 L31,18 Z" id="Path" fill="#F8B174"></path>
                <path d="M25.0277587,4.92468366 C25.2336981,2.35265192 26.5105221,0.0910378111 31,0.00234706157 C35.4894779,-0.0863436879 36.7663019,2.35265192 36.9722413,4.92468366 C37.0681214,6.63960696 36.9152663,8.36014414 36.5191747,10.0244018 C35.6130415,9.80267488 35.2011628,11 35.2011628,11 C35.4894779,8.69404051 34.0067146,5.23510128 33.4300844,5.67855503 C32.7075772,6.20127908 31.8688059,6.50740532 31,6.56546252 C30.1311941,6.50740532 29.2924228,6.20127908 28.5699156,5.67855503 C27.9932854,5.23510128 26.5105221,8.69404051 26.7988372,11 C26.7988372,11 26.3869585,9.80267488 25.4808253,10.0244018 C25.0847337,8.36014414 24.9318786,6.63960696 25.0277587,4.92468366 L25.0277587,4.92468366 Z" id="Path" fill="#723D20"></path>
                <polygon id="Path" fill="#EBF5FC" points="31 23.6326531 34.4285714 20 37 21.2653061 33.8285714 26"></polygon>
                <polygon id="Path" fill="#EBF5FC" points="31 23.6326531 27.5714286 20 25 21.2653061 28.1714286 26"></polygon>
                <path d="M16.0409844,33 C16.0409844,32.7014218 16.0030483,32.4454976 16.0030483,32.1469194 C15.88924,26.6872038 19,24 19,24 L18.9241278,33 L16.0409844,33 Z" id="Path" fill="#026A9D"></path>
                <polygon id="Rectangle" fill="#FFFFFF" transform="translate(19.307960, 42.412097) rotate(-7.700000) translate(-19.307960, -42.412097) " points="12.4953659 31.642342 26.1148338 31.645952 26.1205532 53.1818511 12.5010853 53.1782411"></polygon>
                <path d="M13.1210663,42.4098806 C13.8462482,43.9078787 15.2202771,42.8504683 15.6782867,43.2469972 C16.1362963,43.6435261 16.1744638,46.2870522 15.3347795,47.3444626 C14.4950952,48.4018731 14.3042578,47.8731678 13.7699133,47.8291091 C11.8615399,47.6969328 11.3653628,41.4846464 12.930229,41 L13.1210663,42.4098806 Z" id="Path" fill="#F8B174"></path>
                <path d="M41,37.5694761 C41,37.5694761 44.0553279,43.0899772 47.8852459,48.6947608 C51.7151639,54.2995444 57.7397541,61 57.7397541,61 L62,57.5444191 L51.9303279,43.047836 L42.9364754,24 L41,37.5694761 Z" id="Path" fill="#026A9D"></path>
                <path d="M86.8975686,94.6823956 C86.8975686,94.6823956 86.8106922,91.6420569 86.5500629,91.149029 C86.2894336,90.6560011 85.7247367,88.2319473 86.1591189,87.3691484 C86.5935011,86.5063496 87.1147597,85.8489791 87.6360184,84.8629233 C88.157277,83.8768675 88.9826031,82.6442977 89.8513675,83.0962399 C90.7201319,83.5481822 91.5888963,85.6024651 91.8495256,86.2598356 C92.1101549,86.9172062 91.9798403,89.6288596 91.8495256,90.6149154 C91.7192109,91.6009712 90.1554351,93.7785111 90.1554351,95.4219375 C90.1554351,97.0653638 86.8975686,94.6823956 86.8975686,94.6823956 Z" id="Path" fill="#F8B174"></path>
                <path d="M86.1567926,112.985193 C89.022357,113.155847 90.5156793,111.875946 90.6367594,107.865591 C90.7578396,103.855235 91,94.7679404 91,94.7679404 L85.107431,94 C85.107431,94 83.4526685,105.647096 83.129788,107.09765 C82.8069075,108.548204 82.8472676,112.81454 86.1567926,112.985193 Z" id="Path" fill="#D52E1E"></path>
                <path d="M88.1817401,84.1003944 C87.8848814,83.0294353 87.9219887,80.4591336 88.5157062,81.101709 C89.1094237,81.7442844 90,85 90,85 L88.1817401,84.1003944 Z" id="Path" fill="#F8B174"></path>
                <path d="M89.5,85 C89.2238576,85 89,84.7904312 89,84.5319149 L89,74.468085 C89,74.2095688 89.2238577,74 89.5,74 C89.7761423,74 90,74.2095688 90,74.468085 L90,84.5319149 C90,84.7904312 89.7761424,85 89.5,85 L89.5,85 Z" id="Path" fill="#026A9D"></path>
                <path d="M89.1299111,84 C89.8119441,84.3677674 91.1760102,85.3893433 90.9811436,86.6560976 C90.786277,87.9228518 89.4222109,89.148743 89.1299111,88.9852908 C88.8376112,88.8218386 89.1299111,84 89.1299111,84 Z" id="Path" fill="#F8B174"></path>
                <path d="M3,82 C3.56554409,80.6520509 4.04763959,79.2729954 4.44375,77.8700892 C4.70625,76.6058307 4.8375,76.6058307 4.44375,75.1730045 C4.05,73.7401783 3.7,72.6444877 4.18125,72.1809263 C4.6625,71.7173648 4.8375,70.9166678 5.45,70.8323839 C6.0625,70.7481001 5.93125,69.3995577 6.7625,69.2731319 C7.59375,69.1467061 7.94375,67.8824476 8.95,68.0088735 C9.95625,68.1352993 10,69.1467061 10,71.8859326 C10,74.6251592 9.5625,76.2686952 8.99375,77.0272502 C8.425,77.7858053 7.24375,81.4942966 7.24375,81.4942966 L3,82 Z" id="Path" fill="#F8B174"></path>
                <path d="M7.81981982,108 L0,94.8916031 C0,94.8916031 1.42942943,82.7725191 1.80780781,81 L7.18918919,81.4946565 L6.68468468,92.7480916 C6.68468468,92.7480916 7.86186186,96.9114504 14,99.4259542 L7.81981982,108 Z" id="Path" fill="#E16F0D"></path>
                <path d="M7.72725217,71 L7.72725217,71 C7.32560189,71 7,70.7752057 7,70.4979079 L7.60604347,61.5020921 C7.60604347,61.2247943 7.93164536,61 8.33329564,61 C8.72053296,61.0416063 9.00460477,61.2733869 8.99994346,61.5439331 L8.45450434,70.539749 C8.39843954,70.7919356 8.09601793,70.983327 7.72725217,71 Z" id="Path" fill="#7FC6B1"></path>
                <path d="M7,74.1860465 C7.49940238,73.4418605 7.44946214,70 8.29844619,70 C9.14743023,70 8.94766928,72.744186 8.99760952,73.255814 C9.04754976,73.7674419 8.29844619,76 8.29844619,76 L7,74.1860465 Z" id="Path" fill="#F8B174"></path>
                <path d="M4,121 C4,121 5.04347826,108.669866 4.82608696,104.489443 C4.60869565,100.309021 9,99.4644914 13.2173913,99.6333973 L13.2173913,99 L19,99 L19,121 L4,121 Z" id="Path" fill="#E16F0D"></path>
                <rect id="Rectangle" fill="#CDE5F5" x="14" y="97" width="5" height="2"></rect>
                <path d="M34,121 C34,121 32.9534884,108.669866 33.1715116,104.489443 C33.3895349,100.309021 28.9854651,99.4644914 24.755814,99.6333973 L24.755814,99 L19,99 L19,121 L34,121 Z" id="Path" fill="#E16F0D"></path>
                <rect id="Rectangle" fill="#CDE5F5" x="19" y="97" width="5" height="2"></rect>
                <path d="M19,80 C14.2608696,80 12,83.6424443 12,87.1193229 C12,90.5962015 13.5652174,99.1228323 19,98.9986581 L19,80 Z" id="Path" fill="#673328"></path>
                <path d="M19,80 C23.725,80 26,83.6424443 26,87.1193229 C26,90.5962015 24.425,99.1228323 19,98.9986581 L19,80 Z" id="Path" fill="#673328"></path>
                <path d="M60.0065713,121 C60.0065713,121 60.2238673,108.669866 60.0065713,104.489443 C59.7892752,100.309021 65.0043808,99.4644914 69.2199246,99.6333973 L69.2199246,99 L75,99 L75,121 L60.0065713,121 Z" id="Path" fill="#D52E1E"></path>
                <rect id="Rectangle" fill="#CDE5F5" x="70" y="97" width="5" height="2"></rect>
                <path d="M88.9934096,121 C88.9934096,121 88.7754822,108.669866 88.9934096,104.489443 C89.2113371,100.309021 83.9810779,99.4644914 79.7532851,99.6333973 L79.7532851,99 L74,99 L74,121 L88.9934096,121 Z" id="Path" fill="#D52E1E"></path>
                <rect id="Rectangle" fill="#CDE5F5" x="74" y="97" width="5" height="2"></rect>
                <path d="M74,81 C69.2608696,81 67,84.5871807 67,88.0113078 C67,91.4354348 68.5652174,98.1206353 74,97.998345 L74,81 Z" id="Path" fill="#402A1B"></path>
                <path d="M75,81 C79.725,81 82,84.5871807 82,88.0113078 C82,91.4354348 80.425,98.1206353 75,97.998345 L75,81 Z" id="Path" fill="#402A1B"></path>
                <path d="M68.6065209,80 C68.6065209,80 68.320823,80.942623 74.2796649,80.942623 L74.6878047,80.942623 C80.4017627,81.2295082 79.9936228,85.9016393 79.9936228,85.9016393 L79.9936228,85.9016393 C80.0344368,87.5409836 79.7895529,88.3606557 79.544669,90 L79.422227,89.2213115 C79.422227,89.2213115 79.2997851,89.2213115 79.0549012,88.2786885 L79.0549012,88.1147541 C78.9732732,87.8688525 78.8916452,87.5819672 78.7692033,87.295082 C77.2182718,83.6065574 73.5450131,84.8360656 73.5450131,84.8360656 C73.5450131,84.8360656 69.8717545,83.6065574 68.320823,87.295082 C68.2205804,87.5623463 68.1387594,87.8362164 68.0759391,88.1147541 C68.0351251,88.1557377 68.0351251,88.2377049 67.9943111,88.2786885 C67.9410136,88.6042012 67.8449427,88.9211744 67.7086132,89.2213115 L67.5861713,90 C67.4229153,88.9754098 67.2188454,88.7704918 67.1372174,87.7459016 L67.1372174,87.7459016 C66.4433797,82.295082 68.6065209,80 68.6065209,80 Z" id="Path" fill="#402A1B"></path>
                <path d="M51,100.47651 C51,98.5503356 50.24,97 49.28,97 L43.72,97 C42.76,97 42,98.5503356 42,100.47651 L42,100.47651 C42,102.449664 42.76,104 43.72,104 L49.28,104 C50.24,104 51,102.449664 51,100.47651 L51,100.47651 Z" id="Path" fill="#026A9D"></path>
                <path d="M35,121 C35,121 35.950495,109.564777 36.4653465,105.696356 C37.1782178,100.340081 43.7128713,100 43.7128713,100 L47,100 L47,121 L35,121 Z" id="Path" fill="#7FC6B1"></path>
                <path d="M59,121 C59,121 58.0891089,109.564777 57.5742574,105.696356 C56.8613861,100.340081 50.2871287,100 50.2871287,100 L47,100 L47,121 L59,121 Z" id="Path" fill="#7FC6B1"></path>
                <path d="M32.0072825,123.135552 C31.9719202,122.83261 32.0665546,122.528815 32.2647432,122.309052 C32.4629318,122.089289 32.7434224,121.977124 33.0278408,122.003898 L37.8660429,122.003898 C38.1632536,121.992933 38.4518754,122.111561 38.6656936,122.332566 C38.8795118,122.553572 39.0001734,122.857985 38.9999965,123.175968 L38.9999965,131.865452 C39.0007483,132.18013 38.878927,132.480934 38.6637794,132.695645 C38.4486318,132.910356 38.1595884,133.019584 37.8660429,132.997106 L34.0861975,132.997106 C33.458722,133.023291 32.916865,132.531693 32.8388485,131.865452 L32.0072825,123.135552 Z" id="Path" fill="#673328"></path>
                <path d="M30,122.019481 C30.0723643,121.424317 30.6772253,120.979367 31.3815789,121.00316 L35.5723684,121.00316 C36.2940555,120.957676 36.927124,121.408352 37,122.019481 C37,122.56673 36.3552632,122.996712 35.5723684,122.996712 L31.3815789,122.996712 C30.6852612,123.04228 30.0727604,122.60904 30,122.019481 L30,122.019481 Z" id="Path" fill="#402A1B"></path>
                <path d="M61.9966096,123.132874 C62.0214733,122.833207 61.9087164,122.537868 61.6868367,122.321499 C61.464957,122.10513 61.1551851,121.988435 60.8358115,122.000906 L55.3327683,122.000906 C54.9906466,121.990004 54.6579491,122.107439 54.407964,122.327343 C54.1579789,122.547248 54.0112142,122.85158 54,123.173302 L54,131.865196 C54.010863,132.183588 54.1590397,132.484116 54.4104404,132.69764 C54.6618411,132.911163 54.9948189,133.019297 55.3327683,132.997164 L59.6320208,132.997164 C60.3457207,133.023356 60.962037,132.531622 61.0507741,131.865196 L61.9966096,123.132874 Z" id="Path" fill="#673328"></path>
                <path d="M64,122.019481 C63.927124,121.408352 63.2940555,120.957676 62.5723684,121.00316 L58.3815789,121.00316 C57.6772253,120.979367 57.0723643,121.424317 57,122.019481 C57.0727604,122.60904 57.6852612,123.04228 58.3815789,122.996712 L62.5723684,122.996712 C63.3552632,122.996712 64,122.56673 64,122.019481 Z" id="Path" fill="#402A1B"></path>
                <path d="M57,129.5 C57,131.458333 55.3140187,133 53.2579439,133 L38.7420561,133 C36.6859813,133 35,131.458333 35,129.5 L35,107.5 C35,105.583333 36.6859813,104 38.7420561,104 L53.2579439,104 C55.3140187,104 57,105.583333 57,107.5 L57,129.5 Z" id="Path" fill="#815245"></path>
                <path d="M60.0033904,123.132874 C59.9785267,122.833207 60.0912836,122.537868 60.3131633,122.321499 C60.535043,122.10513 60.8448149,121.988435 61.1641885,122.000906 L66.6672317,122.000906 C67.0093534,121.990004 67.3420509,122.107439 67.592036,122.327343 C67.8420211,122.547248 67.9887858,122.85158 68,123.173302 L68,131.865196 C67.989137,132.183588 67.8409603,132.484116 67.5895596,132.69764 C67.3381589,132.911163 67.0051811,133.019297 66.6672317,132.997164 L62.3679792,132.997164 C61.6542793,133.023356 61.037963,132.531622 60.9492259,131.865196 L60.0033904,123.132874 Z" id="Path" fill="#673328"></path>
                <path d="M58,122.019481 C58.072876,121.408352 58.7059445,120.957676 59.4276316,121.00316 L63.6184211,121.00316 C64.3227747,120.979367 64.9276357,121.424317 65,122.019481 C64.9272396,122.60904 64.3147388,123.04228 63.6184211,122.996712 L59.4276316,122.996712 C58.6447368,122.996712 58,122.56673 58,122.019481 Z" id="Path" fill="#402A1B"></path>
                <path d="M88.9927175,123.135552 C89.0280798,122.83261 88.9334454,122.528815 88.7352568,122.309052 C88.5370682,122.089289 88.2565776,121.977124 87.9721592,122.003898 L83.1339571,122.003898 C82.8367464,121.992933 82.5481246,122.111561 82.3343064,122.332566 C82.1204882,122.553572 81.9998266,122.857985 82.0000035,123.175968 L82.0000035,131.865452 C81.9992517,132.18013 82.121073,132.480934 82.3362206,132.695645 C82.5513682,132.910356 82.8404116,133.019584 83.1339571,132.997106 L86.9138025,132.997106 C87.5436796,133.007663 88.0878589,132.528478 88.1989499,131.865452 L88.9927175,123.135552 Z" id="Path" fill="#673328"></path>
                <path d="M91,122.019481 C90.9276357,121.424317 90.3227747,120.979367 89.6184211,121.00316 L85.4276316,121.00316 C84.7059445,120.957676 84.072876,121.408352 84,122.019481 C84,122.56673 84.6447368,122.996712 85.4276316,122.996712 L89.6184211,122.996712 C90.3147388,123.04228 90.9272396,122.60904 91,122.019481 Z" id="Path" fill="#402A1B"></path>
                <path d="M85,129.5 C85,131.458333 83.3140187,133 81.2579439,133 L66.7420561,133 C64.6859813,133 63,131.458333 63,129.5 L63,107.5 C63,105.583333 64.6859813,104 66.7420561,104 L81.2579439,104 C83.3140187,104 85,105.583333 85,107.5 L85,129.5 Z" id="Path" fill="#815245"></path>
                <path d="M107,101 C107,99.3333333 106.24,98 105.32,98 L99.72,98 C98.8,98 98,99.3333333 98,101 L98,101 C98,102.625 98.8,104 99.72,104 L105.32,104 C106.24,104 107,102.625 107,101 Z" id="Path" fill="#CDE5F5"></path>
                <path d="M90,121 C90,121 90.950495,110.098532 91.4653465,106.450734 C92.1782178,101.33543 98.7128713,101 98.7128713,101 L102,101 L102,121 L90,121 Z" id="Path" fill="#026A9D"></path>
                <path d="M114,121 C114,121 113.049505,110.098532 112.534653,106.450734 C111.821782,101.33543 105.287129,101 105.287129,101 L102,101 L102,121 L114,121 Z" id="Path" fill="#026A9D"></path>
                <path d="M4.00339036,123.132874 C3.97852672,122.833207 4.09128359,122.537868 4.31316328,122.321499 C4.53504297,122.10513 4.84481487,121.988435 5.16418853,122.000906 L10.6672317,122.000906 C11.0093534,121.990004 11.3420509,122.107439 11.592036,122.327343 C11.8420211,122.547248 11.9887858,122.85158 12,123.173302 L12,131.865196 C11.989137,132.183588 11.8409603,132.484116 11.5895596,132.69764 C11.3381589,132.911163 11.0051811,133.019297 10.6672317,132.997164 L6.36797923,132.997164 C5.65427927,133.023356 5.03796299,132.531622 4.94922591,131.865196 L4.00339036,123.132874 Z" id="Path" fill="#673328"></path>
                <path d="M2,122.019481 C2.07287605,121.408352 2.70594447,120.957676 3.42763158,121.00316 L7.61842105,121.00316 C8.32277467,120.979367 8.92763572,121.424317 9,122.019481 C8.92723959,122.60904 8.31473875,123.04228 7.61842105,122.996712 L3.42763158,122.996712 C2.64473684,122.996712 2,122.56673 2,122.019481 Z" id="Path" fill="#402A1B"></path>
                <path d="M33.9927175,123.135552 C34.0280798,122.83261 33.9334454,122.528815 33.7352568,122.309052 C33.5370682,122.089289 33.2565776,121.977124 32.9721592,122.003898 L28.1339571,122.003898 C27.8367464,121.992933 27.5481246,122.111561 27.3343064,122.332566 C27.1204882,122.553572 26.9998266,122.857985 27.0000035,123.175968 L27.0000035,131.865452 C26.9992517,132.18013 27.121073,132.480934 27.3362206,132.695645 C27.5513682,132.910356 27.8404116,133.019584 28.1339571,132.997106 L31.9138025,132.997106 C32.5436796,133.007663 33.0878589,132.528478 33.1989499,131.865452 L33.9927175,123.135552 Z" id="Path" fill="#673328"></path>
                <path d="M36,122.019481 C35.9276357,121.424317 35.3227747,120.979367 34.6184211,121.00316 L30.4276316,121.00316 C29.7059445,120.957676 29.072876,121.408352 29,122.019481 C29,122.56673 29.6447368,122.996712 30.4276316,122.996712 L34.6184211,122.996712 C35.3147388,123.04228 35.9272396,122.60904 36,122.019481 Z" id="Path" fill="#402A1B"></path>
                <path d="M30,129.5 C30,131.458333 28.3140187,133 26.2579439,133 L11.7420561,133 C9.68598131,133 8,131.458333 8,129.5 L8,107.5 C8,105.583333 9.68598131,104 11.7420561,104 L26.2579439,104 C28.3140187,104 30,105.583333 30,107.5 L30,129.5 Z" id="Path" fill="#815245"></path>
                <path d="M88.0007252,123.13276 C87.9900501,122.829169 88.0976278,122.534534 88.2975874,122.319709 C88.497547,122.104885 88.7717954,121.98931 89.0543794,122.000779 L93.8334542,122.000779 C94.1329066,121.989876 94.4241101,122.107313 94.6429172,122.32722 C94.8617242,122.547127 94.9901844,122.851463 95,123.173188 L95,131.865183 C94.9904919,132.183579 94.8607956,132.48411 94.6407496,132.697636 C94.4207036,132.911162 94.1292546,133.019298 93.8334542,132.997164 L90.0704032,132.997164 C89.4517991,133.004831 88.9222893,132.522151 88.8285964,131.865183 L88.0007252,123.13276 Z" id="Path" fill="#673328"></path>
                <path d="M85,122.017602 C85.0237299,121.727529 85.1838212,121.457381 85.4448378,121.266953 C85.7058544,121.076526 86.0462681,120.981526 86.3907285,121.002981 L90.6092715,121.002981 C90.9537319,120.981526 91.2941456,121.076526 91.5551622,121.266953 C91.8161788,121.457381 91.9762701,121.727529 92,122.017602 C91.9768768,122.304789 91.8151858,122.571509 91.5524999,122.755783 C91.2898141,122.940058 90.9490061,123.025841 90.6092715,122.993199 L86.3907285,122.993199 C86.0509939,123.025841 85.7101859,122.940058 85.4475001,122.755783 C85.1848142,122.571509 85.0231232,122.304789 85,122.017602 L85,122.017602 Z" id="Path" fill="#402A1B"></path>
                <path d="M115.999275,123.13276 C116.00995,122.829169 115.902372,122.534534 115.702413,122.319709 C115.502453,122.104885 115.228205,121.98931 114.945621,122.000779 L110.166546,122.000779 C109.867093,121.989876 109.57589,122.107313 109.357083,122.32722 C109.138276,122.547127 109.009816,122.851463 109,123.173188 L109,131.865183 C109.009508,132.183579 109.139204,132.48411 109.35925,132.697636 C109.579296,132.911162 109.870745,133.019298 110.166546,132.997164 L113.929597,132.997164 C114.548201,133.004831 115.077711,132.522151 115.171404,131.865183 L115.999275,123.13276 Z" id="Path" fill="#673328"></path>
                <path d="M118,122.017602 C117.97627,121.727529 117.816179,121.457381 117.555162,121.266953 C117.294146,121.076526 116.953732,120.981526 116.609272,121.002981 L112.390728,121.002981 C112.046268,120.981526 111.705854,121.076526 111.444838,121.266953 C111.183821,121.457381 111.02373,121.727529 111,122.017602 C111.023123,122.304789 111.184814,122.571509 111.4475,122.755783 C111.710186,122.940058 112.050994,123.025841 112.390728,122.993199 L116.609272,122.993199 C116.949006,123.025841 117.289814,122.940058 117.5525,122.755783 C117.815186,122.571509 117.976877,122.304789 118,122.017602 Z" id="Path" fill="#402A1B"></path>
                <path d="M113,129.5 C113,131.458333 111.310861,133 109.250936,133 L94.7490637,133 C92.6891386,133 91,131.458333 91,129.5 L91,107.5 C91,105.583333 92.6891386,104 94.7490637,104 L109.250936,104 C111.310861,104 113,105.583333 113,107.5 L113,129.5 Z" id="Path" fill="#815245"></path>
                <path d="M54.8014382,93 C54.4541436,93.0060583 54.1263797,93.1752022 53.903135,93.4635728 C53.6113666,93.2538229 53.2694023,93.1410343 52.9192792,93.1390718 C51.9856112,93.1677282 51.199188,93.9037684 51.0371202,94.9006485 C50.1965842,94.9499574 49.5387177,95.7036353 49.5399483,96.6158678 L49.5399483,96.6158678 C48.6894584,96.6158678 48.0000001,97.3630428 48.0000001,98.2847299 C47.9996868,99.2142071 48.6825833,99.9748283 49.5399483,99.9999492 C50.033994,100.004178 50.498157,99.7439955 50.7804622,99.30459 C50.997732,99.4000571 51.230459,99.4473463 51.4648836,99.4436619 C52.511254,99.4184565 53.3473011,98.4918296 53.3470426,97.3575843 L53.3470426,97.2185125 C54.078828,97.040172 54.6373911,96.3981638 54.7586618,95.5960077 L54.8014382,95.5960077 C55.1226645,95.6091584 55.4344153,95.4766326 55.6617186,95.230301 C55.8890219,94.9839694 56.0113106,94.646121 55.9991757,94.2980038 C55.9991757,93.5811361 55.4629303,93 54.8014382,93 L54.8014382,93 Z" id="Path" fill="#1E2020"></path>
                <path d="M46.6027397,96.8251279 L46.0684932,96.9075921 C45.7985045,96.4319286 45.3574111,96.0778842 44.8356164,95.9180215 C45.080292,95.5525004 45.2092103,95.1213484 45.2054795,94.6810583 C45.1830664,93.4219649 44.1592436,92.4130917 42.9041096,92.4132925 C42.5945715,92.4043774 42.2865999,92.4605578 42,92.578221 C41.7754542,92.2046535 41.3659571,91.9834242 40.9315068,92.0009715 C40.2279112,92.0009715 39.6575342,92.573239 39.6575342,93.2791668 C39.6592574,93.6589242 39.8239858,94.0195228 40.109589,94.2687373 C39.4454171,94.5478008 39.0095715,95.1956382 39,95.9180215 C39,96.9427554 39.8279666,97.7734663 40.8493151,97.7734663 L41.2191781,97.7734663 C41.1861727,97.8515094 41.1720885,97.9362944 41.1780822,98.0208589 C41.1778671,98.3124705 41.2960638,98.5915865 41.5054237,98.7938605 C41.7147835,98.9961344 41.997238,99.1041096 42.2876712,99.0928937 L42.5753425,99.0928937 C42.9540019,99.6550117 43.5840771,99.9942214 44.260274,100 C44.803225,99.9968275 45.3218914,99.7738051 45.6986301,99.3815184 C45.9533319,99.592327 46.2725678,99.7087975 46.6027397,99.7113753 C47.3744253,99.7113753 48,99.083727 48,98.3094837 C48,97.5352403 47.3744253,96.9075921 46.6027397,96.9075921 L46.6027397,96.8251279 Z" id="Path" fill="#1E2020"></path>
                <path d="M52.044155,92.7899769 C52.044155,92.7899769 52.8575831,89.2739861 51.915719,87.3016011 C50.9738548,85.329216 49.3469985,84 46.478594,84 C43.6101895,84 42.1117692,85.2005822 41.084281,87.3016011 C40.0567928,89.4026199 40.955845,92.7899769 40.955845,92.7899769 C39.6714848,92.5327093 39.9283568,93.9476811 40.3136649,94.5908502 C40.5669681,94.9402219 40.755486,95.332362 40.870221,95.7485544 C41.127093,96.5632352 41.8120852,96.0058221 41.8120852,96.0058221 C42.1973932,97.0777705 42.4542653,97.3350381 43.9954976,98.75001 C45.5367298,100.164982 45.8364139,99.9934701 46.478594,99.9934701 C47.1207741,99.9934701 47.6345182,99.9934701 49.0045024,98.75001 C50.3744867,97.5065498 50.8026068,97.0777705 51.1879148,96.0058221 C51.3290651,96.1523884 51.5387833,96.2102024 51.7349392,96.156623 C51.9310951,96.1030435 52.0824688,95.9465983 52.129779,95.7485544 C52.244514,95.332362 52.4330319,94.9402219 52.6863351,94.5908502 C53.0716432,93.9476811 53.3285152,92.5327093 52.044155,92.7899769 Z" id="Path" fill="#1E2020"></path>
                <path d="M55.9130739,90.5154775 C56.4078275,90.0870343 56.6919552,89.4757084 56.695025,88.8330403 C56.7003464,88.2510037 56.4658316,87.6909206 56.0433991,87.2767858 C56.2504482,86.947814 56.3559642,86.5683543 56.3474912,86.1832016 C56.3474912,85.0914099 55.4333635,84.2063379 54.3057299,84.2063379 L53.958196,84.2063379 C53.9700829,83.5447168 53.7038657,82.9068044 53.2205975,82.4388969 C52.7373292,81.9709894 52.078475,81.7132339 51.395134,81.7247429 L50.6131828,81.8088648 C50.5485986,81.2471228 50.0671859,80.8168665 49.4836978,80.7994025 L49.2664892,80.7994025 C48.8653841,80.2870239 48.2362124,79.9902471 47.5722617,80.0002448 C47.0531174,80.0007569 46.5545558,80.1968598 46.1821263,80.5470369 C45.8279118,80.3431568 45.4211052,80.2410407 45.0091996,80.2526103 C43.9558791,80.2447027 43.036721,80.9426969 42.7936714,81.9350476 C42.5008712,81.7818638 42.1703739,81.7091382 41.8379533,81.7247429 C40.9766193,81.7038611 40.1944495,82.2087334 39.8830754,82.9865709 L39.7527502,82.9865709 C38.4741676,83.0094996 37.4501193,84.0197061 37.4503385,85.2578611 C37.4362369,85.4854527 37.4656925,85.7136081 37.537222,85.930836 C36.9404376,86.1001553 36.532401,86.632637 36.5380622,87.2347249 C36.5423879,87.5009247 36.6171746,87.7615992 36.7552709,87.9918216 C36.2352771,88.3831138 35.9537212,89.0016078 36.0062393,89.637219 C36.0587575,90.2728303 36.4382903,90.8401182 37.0159212,91.1463915 C36.6159872,91.5543943 36.3975767,92.0981701 36.407737,92.660585 C36.3237643,93.8685247 37.2670663,94.913663 38.5146609,94.9949666 C39.7622556,95.0762703 40.8417042,94.1629512 40.925677,92.9550115 C41.3699084,92.7167942 41.6508283,92.2688093 41.6641864,91.7773054 C41.6734307,91.6357478 41.6587573,91.4936782 41.6207446,91.3566961 C42.6149401,91.139617 43.3195562,90.282469 43.3149721,89.2957105 C43.3123231,88.9191312 43.1910821,88.5522959 42.9674383,88.2441872 C43.5404705,87.9239571 43.8895486,87.3284638 43.8797146,86.6879328 L43.8797146,86.4776281 C43.8797146,86.5196891 43.9231564,86.5196891 43.9665981,86.56175 C44.1311659,87.2414878 44.7662269,87.7158204 45.4870586,87.6973951 L45.5305004,87.6973951 C45.6619619,88.1940286 46.0148349,88.6082792 46.4933782,88.8277526 C46.9719214,89.047226 47.5265121,89.0491638 48.006679,88.8330403 L48.006679,89.0433449 C48.006679,90.4603512 49.1931,91.6090617 50.6566245,91.6090617 C50.8632952,91.6252879 51.0710974,91.5965455 51.2648088,91.5249398 L51.2648088,91.7773054 C51.2775962,92.4876966 51.7731884,93.1046334 52.4811772,93.2914989 C52.858598,94.1288604 53.7096727,94.6727157 54.6532637,94.6795096 C55.6893889,94.6987375 56.6111005,94.0453791 56.9051603,93.083245 C57.1992202,92.1211109 56.7931547,91.0873277 55.9130739,90.5575384 L55.9130739,90.5154775 Z" id="Path" fill="#1E2020"></path>
                <path d="M108.956946,91.3044716 C109.043054,89.3075401 108.612513,86.5617592 105.857049,85.2720743 C104.963561,84.8740405 103.998406,84.6479511 103.015476,84.6064305 C103.024861,84.354087 102.995849,84.1017793 102.929368,83.8575812 C102.455772,82.1518689 100.389174,80.6541702 98.5809009,81.0701976 C96.7726275,81.486225 95.8254367,83.6911702 96.2990321,85.3552798 C96.397238,85.7154761 96.5900283,86.0450682 96.8587357,86.3121428 C94.8782458,87.8098414 94.8782458,90.430814 95.0935165,92.0533209 C95.610166,97.9193071 100.13085,99.9578414 101.982177,99.9994441 C103.833505,100.041047 108.870838,97.7528962 109,91.3044716 L108.956946,91.3044716 Z" id="Path" fill="#1E2020"></path>
            </g>
        </g>
    </g>
</svg>