<svg height="400" viewBox="0 0 1200 400" width="1200" xmlns="http://www.w3.org/2000/svg" xmlns:xlink="http://www.w3.org/1999/xlink"><defs><path id="a" d="m0 239.8v160.4h1200v-160.4z"/><filter id="b" height="149.3%" width="106.6%" x="-2.7%" y="-22.8%"><feMorphology in="SourceAlpha" operator="dilate" radius="6" result="shadowSpreadOuter1"/><feOffset dx="7" dy="3" in="shadowSpreadOuter1" result="shadowOffsetOuter1"/><feGaussianBlur in="shadowOffsetOuter1" result="shadowBlurOuter1" stdDeviation="6"/><feColorMatrix in="shadowBlurOuter1" type="matrix" values="0 0 0 0 0   0 0 0 0 0   0 0 0 0 0  0 0 0 0.139690897 0"/></filter></defs><g fill="none" fill-rule="evenodd"><path d="m.7.2v400h1200v-400z" fill="#fefefe" fill-rule="nonzero"/><g transform="translate(289 20)"><g fill="#92d2f4" fill-rule="nonzero" transform="translate(398)"><path d="m29.0557692 28.56c-2.6790093-.1974003-5.2123238 1.2463067-6.4171884 3.6570825-1.2048647 2.4107758-.8436344 5.3131239.9150395 7.3519947 1.7586738 2.0388709 4.567914 2.8121217 7.1161412 1.9587369s4.3328343-3.1650855 4.5206231-5.8558141c.2556377-3.6628993-2.4876695-6.8432781-6.1346154-7.112"/><path d="m30.2826923 13.72c-7.4621556-.538325-14.7000028 2.6964748-19.2961538 8.624-.8633754.8715187-1.15162617 2.1634355-.7410982 3.3215429.4105279 1.1581074 1.4468748 1.9765846 2.6644678 2.1043205 1.2175929.1277359 2.4000391-.4579709 3.0400919-1.5058634 3.1644028-4.1455825 8.143196-6.4812799 13.3401782-6.2582677 5.1969822.2230123 9.959176 2.9767138 12.7598218 7.3782677.5902964.8796998 1.5653303 1.4213122 2.6211538 1.456.622377.0123391 1.2309689-.1847932 1.7288462-.56.7079333-.4484063 1.2069883-1.1633907 1.3852291-1.9845854s.0207484-1.6798649-.4371522-2.3834146c-3.7799476-5.8987279-10.0990814-9.6727191-17.0653846-10.192"/><path d="m31.3423077.112c-10.4288462-.84-22.19615385 3.92-30.05961539 12.096-.77705278.8102783-1.06458215 1.9752745-.75427856 3.0561457s1.17129763 1.9134074 2.25865397 2.1840002c1.08735633.2705927 2.23587965-.0618674 3.01293228-.8721459 6.6365385-6.832 16.4519231-10.808 25.0403846-10.192 8.5884616.616 16.0615385 4.48 21.1365385 11.312.5966177.8215546 1.5528787 1.3016636 2.5653846 1.288.6785607-.0140168 1.3380084-.2282504 1.8961538-.616.6742551-.5114793 1.1179503-1.2714833 1.2330592-2.1121028s-.1078427-1.6926668-.6195976-2.3678972c-6.1903846-8.344-14.8346154-12.992-25.7096154-13.776"/></g><g stroke="#92d2f4" stroke-width=".75"><path d="m427 36 29 100"/><path d="m0 328 456-193"/><path d="m456 135-81 134"/><path d="m409 213 39 42"/></g><g transform="translate(223 128)"><path d="m225.894522 122.61256c-2.691984-.197536-5.237567 1.247167-6.448267 3.659607-1.2107 2.412439-.84772 5.31679.919471 7.357068s4.590037 2.814063 7.150605 1.960089c2.560569-.853974 4.353819-3.16727 4.542517-5.859855.256876-3.665428-2.499717-6.848001-6.164326-7.116909" fill="#92d2f4" fill-rule="nonzero"/><path d="m225.894522 122.61256c-2.691984-.197536-5.237567 1.247167-6.448267 3.659607-1.2107 2.412439-.84772 5.31679.919471 7.357068s4.590037 2.814063 7.150605 1.960089c2.560569-.853974 4.353819-3.16727 4.542517-5.859855.256876-3.665428-2.499717-6.848001-6.164326-7.116909z" stroke="#92d2f4" stroke-width=".75"/><path d="m233.347753.22415459c-2.689602-.21834361-5.245704 1.20570485-6.475488 3.60760585-1.229783 2.401901-.890834 5.30819226.858676 7.36263806 1.749511 2.0544458 4.564718 2.8520741 7.131892 2.0206677 2.567174-.8314065 4.380274-3.127961 4.593206-5.81796475.290211-3.66625752-2.442576-6.87536218-6.108286-7.17294686" fill="#92d2f4" fill-rule="nonzero"/><path d="m233.347753.22415459c-2.689602-.21834361-5.245704 1.20570485-6.475488 3.60760585-1.229783 2.401901-.890834 5.30819226.858676 7.36263806 1.749511 2.0544458 4.564718 2.8520741 7.131892 2.0206677 2.567174-.8314065 4.380274-3.127961 4.593206-5.81796475.290211-3.66625752-2.442576-6.87536218-6.108286-7.17294686z" stroke="#92d2f4" stroke-width=".75"/><path d="m150.913904 134.100483c-3.668349-.266886-6.86018 2.486658-7.134063 6.154448-.273882 3.667789 2.473604 6.864826 6.140909 7.145698s6.869613-2.46048 7.15748-6.127199c.138943-1.769787-.433515-3.521928-1.590566-4.868298-1.157052-1.346371-2.803186-2.175833-4.57376-2.304649" fill="#92d2f4" fill-rule="nonzero"/><path d="m150.913904 134.100483c-3.668349-.266886-6.86018 2.486658-7.134063 6.154448-.273882 3.667789 2.473604 6.864826 6.140909 7.145698s6.869613-2.46048 7.15748-6.127199c.138943-1.769787-.433515-3.521928-1.590566-4.868298-1.157052-1.346371-2.803186-2.175833-4.57376-2.304649z" stroke="#92d2f4" stroke-width=".75"/><path d="m232.283006 8.62995169 166.716994 75.54009661" stroke="#92d2f4" stroke-width=".75"/><path d="m7.62134831 94.0888889c-3.66834977-.2668858-6.86018021 2.4866577-7.13406304 6.1544471-.27388284 3.66779 2.47360328 6.864826 6.14090866 7.145699 3.66730537.280872 6.86961287-2.46048 7.15748027-6.127199.1389427-1.769787-.4335155-3.5219278-1.5905668-4.8682986-1.1570514-1.3463707-2.80318516-2.1758328-4.57375909-2.3046485" fill="#92d2f4" fill-rule="nonzero"/><path d="m7.62134831 94.0888889c-3.66834977-.2668858-6.86018021 2.4866577-7.13406304 6.1544471-.27388284 3.66779 2.47360328 6.864826 6.14090866 7.145699 3.66730537.280872 6.86961287-2.46048 7.15748027-6.127199.1389427-1.769787-.4335155-3.5219278-1.5905668-4.8682986-1.1570514-1.3463707-2.80318516-2.1758328-4.57375909-2.3046485z" stroke="#92d2f4" stroke-width=".75"/><path d="m48.3058989 156.123671 166.6609551 75.540097" stroke="#92d2f4" stroke-width=".75"/><path d="m48.7542135 147.661836c-2.691984-.197537-5.2375676 1.247167-6.4482675 3.659606-1.2106998 2.41244-.8477201 5.316791.9194712 7.357069 1.7671912 2.040278 4.5900368 2.814062 7.1506052 1.960088 2.5605685-.853973 4.3538186-3.167269 4.5425169-5.859855.2568758-3.665427-2.4997175-6.848001-6.1643258-7.116908" fill="#92d2f4" fill-rule="nonzero"/><path d="m48.7542135 147.661836c-2.691984-.197537-5.2375676 1.247167-6.4482675 3.659606-1.2106998 2.41244-.8477201 5.316791.9194712 7.357069 1.7671912 2.040278 4.5900368 2.814062 7.1506052 1.960088 2.5605685-.853973 4.3538186-3.167269 4.5425169-5.859855.2568758-3.665427-2.4997175-6.848001-6.1643258-7.116908z" stroke="#92d2f4" stroke-width=".75"/></g></g><g fill-rule="nonzero"><g><use fill="#000" filter="url(#b)" xlink:href="#a"/><use fill="#f5f7fc" xlink:href="#a"/></g><g transform="translate(893 46)"><g fill="#673328"><path d="m87.7597403 98.5714286-.6818182-.487013v-.1948052l-.2922078-1.948052-.2922078-3.7987013-2.5324675-.9740259v.6818182c0 1.3636363 0 2.7272727.0974026 4.090909 4.6753246 3.3116884 8.9610389 6.5259736 12.564935 9.2532466 7.1103894 5.162338 11.6883114 8.766234 11.6883114 8.766234l-1.948052 2.435065 2.435065-.38961c.218097-.832473.380791-1.678482.487013-2.532468l-9.253246-6.428571z"/><path d="m174.155844 143.376623-.779221.292208-1.071428-3.506493c-.974026 1.558441-1.85065 3.01948-2.62987 4.480519-.779221 1.461039-1.655844 2.922078-2.337663 4.285714l-1.850649 3.798702-1.363636 2.922078c-.157047.438501-.352616.862234-.584416 1.266233 2.652431-3.205806 6.022644-5.741808 9.837662-7.402597l1.266234-.38961.681818-1.753247c.584416-1.558442 1.363637-3.214286 2.045455-4.87013l.292208-.584416-1.558442.681819z"/><path d="m135 188.668831c-.383141.820491-.708605 1.666699-.974026 2.532468-.584416 1.655844-.974026 3.311688-1.461039 4.87013-.487013 1.558441-.292208 1.655844-.487013 2.337662s-.292208 1.558441-.38961 2.24026c-.097403.681818-.097403.974026-.194806 1.461039-.097402.487013-.097402.38961-.097402.584415s-.097403 1.266234-.194805 1.85065c-.097403.584415-.097403 2.240259-.097403 3.01948-.02645.683351.006139 1.367709.097403 2.045455v.77922l4.090909-.584415h.38961v-.487013c-.094619-.54805-.159649-1.100799-.194805-1.655844 0-.779221-.097403-1.655844-.097403-2.727273v-1.753247c0-.584415.097403-1.266234.097403-1.850649 0-.584416.194805-1.363637.194805-2.142857l.292208-2.142857c.274482-1.608345.632104-3.201389 1.071429-4.772728.18184-.823729.409466-1.636679.681818-2.435065l.876623-2.532467v-.194805l-2.62987-.487013c-.373869.657284-.699405 1.340908-.974026 2.045454z"/><path d="m190.324675 193.246753c-2.509183 2.414922-5.868413 3.744617-9.350649 3.701299-1.750246.002319-3.490754-.260399-5.162338-.779221-4.577922 1.168831-8.084415 2.337663-9.740259 2.62987h-1.071429c-1.515997.048109-2.922117-.787963-3.603896-2.142857-1.469413.404139-2.967145.697174-4.48052.876624.779221 3.116883 1.461039 6.038961 1.071429 6.623376-1.655844 2.142857-3.798701 4.188312-6.136364 6.915585-3.557827 4.007861-7.434111 7.721275-11.590909 11.103896.292208.974026.584416 1.948052.779221 2.922078.350042 1.469127.545906 2.970757.584416 4.480519 0 .584416-.097403 1.071429-.097403 1.363636v.487013l-8.181818-1.363636v-.681818c.099944-.71079.099944-1.432068 0-2.142857l-2.532468 1.266234h-.584415c-4.772728 0-17.922078-13.733767-23.181818-20.649351-5.259741-6.915585-3.214286-8.279221-4.577923-12.37013-.487013-1.655844.292208-4.090909 1.461039-6.331169h-.097402c-2.600234 3.195154-6.497404 5.054354-10.6168833 5.064935h-.6818182c2.0454546 1.948052 3.6038961 3.701299 3.6038961 3.701299 4.0909094 15.487013 14.6103894 24.642857 24.6428574 34.675325 10.032467 10.032467.38961 27.857142-.487013 42.467532-.779221 12.272727-5.064935 13.246753-6.428572 13.246753h-.38961l-12.857143 1.753247s8.376623 2.824675 14.707792 2.824675h1.363637c5.162337-.292207 7.694805-5.357142 12.662337-5.357142 1.28116.032739 2.541552.331252 3.701299.876623 3.417036 1.151254 7.013141 1.679123 10.616883 1.558441 4.245821-.039144 8.481095-.430092 12.662338-1.168831-4.321091-.781416-8.584141-1.855314-12.75974-3.214285-7.305195-2.24026-3.214286-20.064935-3.214286-33.311689 0-13.246753 4.577922-23.668831 10.032467-30.097402 5.454546-6.428572 13.733767-16.461039 16.461039-19.188312 2.727273-2.727273 23.279221-6.818182 33.798702-7.305195h2.142857c-3.328344-.213675-6.577312-1.108799-9.545455-2.62987z"/><path d="m95.3571429 110.551948-6.1363637-3.409091-7.012987-3.409091-7.6948052-3.409091-7.8896104-3.1168828-6.6233766-2.3376623-3.4090909.2922078c-2.1160378.0028615-4.2194611-.3257984-6.2337662-.974026l7.1103896 2.9220779 7.6948052 3.5064934 7.5974026 3.701299 7.1103896 3.798701 6.4285714 3.798701 2.7272727-.194805c4.81881-.10789 9.3366009 2.336161 11.883117 6.428572l2.435065-.974026-5.5519482-5.162338z"/><path d="m112.792208 97.1103896c-.208827.7688076-.371455 1.5494239-.487013 2.3376623-.584416 2.1428571-.974026 4.1883121-1.461039 6.2337661-.487013 2.045455-.779221 3.798701-1.071429 5.551948s-.292208 1.461039-.487013 2.24026c-.106222.853986-.268916 1.699995-.487013 2.532468h4.577922l.681819-.584416 1.558441-1.168831c.117515-.708527.182627-1.424755.194805-2.142857.194806-1.655845.389611-3.603896.584416-5.551948s.487013-4.09091.779221-6.233767h-.097403z"/><path d="m116.688312 82.4025974c-.389611 1.1688312-.779221 2.3376623-1.071429 3.5064935l-.876623 3.4090909-.876624 3.4090909c-.38961 1.461039-.681818 2.8246754-.974026 4.1883117-.292207 1.3636364.097403-.0974026.097403-.1948052l.876623-.974026 3.214286-2.9220779 1.266234-1.0714285.292208-1.5584416.584415-3.4090909c.194805-1.5584416.487013-3.0194805.779221-4.5779221h-.292208z"/><path d="m135.974026 99.8376623c-4.772727 3.0194807-9.058442 6.0389607-12.662338 8.5714287l-7.207792 5.454545-.487013.389611-1.558441 1.168831-.681819.584416c2.670097.326078 5.180941 1.445779 7.207793 3.214285h.097402c1.461039-1.461039 3.701299-3.506493 6.525974-5.941558 2.824676-2.435065 7.792208-6.720779 12.467533-10.324676-1.523054-.636703-2.814692-1.724399-3.701299-3.1168827z"/><path d="m127.792208 85.5194805-1.558442.7792208-1.461039.8766234c-1.010648.5926639-1.986292 1.2430935-2.922078 1.9480519l-2.532467 1.8506494-.974026.7792208-1.266234 1.0714285-3.214286 2.9220779-.876623.974026c0 .0974026-.097403.0974026-.097403.1948052h-.097402l4.285714 3.2142856h.097403v-.1948051c.239054-.2601584.436213-.5558971.584415-.8766233.785566-1.0852244 1.631035-2.1258007 2.532468-3.1168832l1.753247-1.9480519 2.142857-2.1428571 2.337662-2.0454546 1.266234-1.0714286 1.363636-1.0714285 2.727273-1.8506494c.582246-.4138786 1.20181-.7725736 1.850649-1.0714286l-3.409091-.6818181z"/><path d="m84.0584416 95.9415584-13.4415585-9.5454545c-.7889067.280693-1.5164222.7105885-2.1428571 1.2662338l.6818182.4870129c7.1103896 5.4545455 14.1233766 11.1038962 20.064935 15.8766234l5.0649351 4.188312 10.4220777 8.571428 1.655844-.38961 1.948052-2.435065s-4.577922-3.603896-11.6883114-8.766234c-3.6038961-2.727273-7.8896104-5.9415582-12.564935-9.2532466z"/><path d="m173.766234 121.461039c-.016528-.685564-.081626-1.369095-.194805-2.045455-1.212563-.194098-2.39253-.554644-3.506494-1.071428 0 1.071428.097403 2.142857 0 3.214286-.097403 1.071428 0 2.532467-.097403 3.798701-.097402 1.266234-.487013 4.87013-.77922 7.305195-.292208 2.435065-.779221 4.772727-1.363637 7.012987-.468662 2.172759-1.053924 4.318719-1.753246 6.428571-.584416 1.948052-1.266234 3.896104-1.948052 5.551948-.681819 1.655844-2.045455 4.675325-2.824676 6.428572l1.266234.292207c.280475-.515073.606449-1.004033.974026-1.461039.2318-.403999.427369-.827732.584416-1.266233l1.363636-2.922078 1.850649-3.798702c.681819-1.363636 1.461039-2.824675 2.337663-4.285714.876623-1.461039 1.655844-2.922078 2.62987-4.480519l-.876624-2.532468.681819-.194805 1.655844-.487013.292208-3.798701c.097402-2.62987.097402-5.162338 0-7.792208-.097403-2.62987-.097403-2.62987-.292208-3.896104z"/><path d="m182.824675 125.454545c-1.266233 1.461039-2.435065 3.019481-3.701298 4.675325-1.266234 1.655844-2.337663 3.214286-3.506494 4.87013l-1.168831 1.753247c1.558442-.584416 3.701299-1.266234 6.233766-2.337663l.876624-.38961.974026-1.655844c.974026-1.655844 1.948051-3.409091 3.01948-4.967533l1.071429-1.655844c-1.039869-.2972-2.050531-.688424-3.019481-1.168831z"/><path d="m195 127.402597-5.064935 2.824676c-2.922078 1.461039-5.844156 2.824675-8.376623 3.798701l-.876624.38961c-2.532467 1.071429-4.675324 1.753247-6.233766 2.337663h-.681818l-1.655844.487013-.681819.194805.876624 2.532467 1.071428 3.506494.779221-.292208 1.948052-.779221 1.558442-.681818 5.25974-2.62987c2.824675-1.461039 5.941558-3.214286 9.253247-5.357143l4.87013-3.311688 4.870129-3.798701c1.558442-1.363637 3.116884-2.727273 4.577922-4.188312l.681819-.584416c-2.718947 1.199182-5.517888 2.208102-8.376624 3.019481z"/><path d="m140.25974 222.175325c-1.10393-3.448347-2.404769-6.830526-3.896104-10.12987l-1.071428-2.24026-4.090909.584415v-.77922c-.091264-.677746-.123853-1.362104-.097403-2.045455 0-.779221 0-1.850649.097403-3.01948.097402-1.168832.097402-1.168832.194805-1.85065.097402-.681818.097402-.38961.097402-.584415-2.142857-3.896104-4.383116-8.084416-6.818181-12.37013-1.360105 1.091078-2.912983 1.917076-4.577922 2.435065 3.993506 8.181818 7.402597 15.974026 9.837662 22.5 1.521292 3.840343 2.663097 7.820351 3.409091 11.883117-.008286.231253.024697.462134.097402.681818.099945.710789.099945 1.432067 0 2.142857v.681818l8.181819 1.363636v-.487013c0-.292207.097402-.77922.097402-1.363636-.038509-1.509762-.234374-3.011392-.584415-4.480519-.292208-.974026-.584416-1.948052-.876624-2.922078z"/></g><path d="m200.649351 25.4220779c-2.87978.0815748-5.733198.5735434-8.474026 1.461039-1.81074-3.4751612-5.432732-5.6257189-9.35065-5.5519481-2.325193.0389125-4.615753.570057-6.720779 1.5584416 0 0-1.850649-7.2077922-7.88961-7.2077922-2.414545.1366142-4.742639.9463862-6.72078 2.3376623 0 0 .779221-5.6493506-5.25974-5.6493506l-1.753247.1948052s-2.727272-9.54545458-11.103896-9.54545458c-1.947785.04871605-3.867115.47891059-5.64935 1.26623377 0 0-5.454546-3.50649351-11.103896-3.50649351-3.798702 0-7.694806 1.65584416-9.837663 7.20779221l-2.142857 5.25974021c-2.523427-1.9191016-5.596238-2.9775144-8.766234-3.0194805-3.34972.0490246-6.59448 1.1761518-9.2532464 3.2142857 0 0-4.6753247-7.30519476-12.8571428-7.30519476-3.2084854.08611931-6.3357397 1.02765824-9.0584416 2.72727272-13.6363636 8.27922074-11.2012987 9.74025974-13.9285714 15.29220784h-.6818182c-2.4350649 0-11.0064935.6818181-13.6363636 10.1298701 0 0-3.4090909 2.4350649.5844155 6.038961 0 0 1.2662338 5.9415585-1.8506493 5.9415585h-.8766234c-2.2958486-.7532356-4.6942295-1.14749-7.1103896-1.1688312-4.3516608-.0385562-8.5586841 1.5608081-11.7857143 4.4805195-7.012987 6.038961-5.7467532 9.1558441-3.6038961 12.4675324 0 0 1.461039 2.7272728-2.7272727 4.2857143-4.1883117 1.5584416-12.17532468 5.4545455-10.42207793 10.9090909 0 0-12.75974026 13.4415585-5.74675325 16.1688312 0 0-1.36363636 5.8441559 2.53246753 7.9870131h.1948052c.59562924-.010394 1.18644267-.108863 1.75324675-.292208.64397599.308778 1.33555452.506372 2.04545455.584416h1.16883115c4.5852521.158222 8.9936608-1.7771774 11.9805195-5.2597406 1.177187-1.5144328 2.0683836-3.2308115 2.6298701-5.064935l.974026.3896104c2.4420375.4619702 4.9178929.7225865 7.4025974.7792207 3.6475059.1198368 7.2461734-.8647043 10.3246753-2.8246753 4.3831169-3.1168831 5.3571429-7.5974026 4.6753247-12.1753247.7836183.634141 1.7276408 1.0387221 2.7272727 1.1688312 2.8124657.343344 5.6410536.5384191 8.474026.5844156 4.4829308.1136609 8.9368206-.7505267 13.0519481-2.5324675 2.675559-1.1729334 4.9215594-3.1466914 6.4285714-5.6493507l.3896104.487013c3.5318615 3.8828654 8.487448 6.1673556 13.7337662 6.3311688h1.3636364c4.9959193-.4206949 9.0165897-4.2789143 9.6428567-9.2532467 12.077922-1.0714286 24.545455-3.6038961 30.681819-11.6883117 1.654685 1.0705165 3.581193 1.6450889 5.551948 1.6558441 1.297639.0112037 2.585957-.220033 3.798701-.6818181.487013 2.8246753 1.461039 5.551948 3.603896 7.4025974 1.885642 1.6510845 4.311923 2.5522745 6.818182 2.5324675 1.255803-.0115965 2.503015-.2085247 3.701299-.5844156 3.24087-1.2036483 6.053554-3.3385769 8.084415-6.1363636.230041-.3021896.426032-.6288418.584416-.974026 1.936308.268676 3.889317.3988766 5.844156.3896104 4.8981.1282401 9.720181-1.2300926 13.831168-3.8961039 5.649351-3.7012987 9.058442-9.3506494 10.714286-15.6818182 1.979786-.2086965 3.899267-.8043976 5.649351-1.7532467 2.81634-1.7504935 4.921397-4.4422057 5.941558-7.5974026.389205-.9929292.587481-2.0504034.584416-3.1168832 1.442665 1.0911919 2.582611 2.5328876 3.311688 4.1883117-.38961-1.1688311-3.311688-7.3051948-12.467532-7.3051948z" fill="#3a8835"/><path d="m236.688312 42.3701299c-2.405001-1.659183-5.260037-2.5428846-8.181818-2.5324676-3.908833.1247829-7.711468 1.30259-11.006494 3.4090909 0 0 3.603896-9.3506493-4.285714-10.6168831h-.097403c-.729077-1.6554241-1.869023-3.0971198-3.311688-4.1883117.003065 1.0664798-.195211 2.123954-.584416 3.1168832-1.020161 3.1551969-3.125218 5.8469091-5.941558 7.5974026-1.750084.9488491-3.669565 1.5445502-5.649351 1.7532467-1.655844 6.3311688-5.064935 11.9805195-10.714286 15.6818182-4.110987 2.6660113-8.933068 4.024344-13.831168 3.8961039-1.954839.0092662-3.907848-.1209344-5.844156-.3896104-.158384.3451842-.354375.6718364-.584416.974026-2.030861 2.7977867-4.843545 4.9327153-8.084415 6.1363636-1.198284.3758909-2.445496.5728191-3.701299.5844156-2.506259.019807-4.93254-.881383-6.818182-2.5324675-2.142857-1.8506494-3.116883-4.5779221-3.603896-7.4025974-1.212744.4617851-2.501062.6930218-3.798701.6818181-1.970755-.0107552-3.897263-.5853276-5.551948-1.6558441-6.136364 8.0844156-18.603897 10.6168831-30.681819 11.6883117-.626267 4.9743324-4.6469374 8.8325518-9.6428567 9.2532467h-1.3636364c-5.2463182-.1638132-10.2019047-2.4483034-13.7337662-6.3311688l-.3896104-.487013c-1.507012 2.5026593-3.7530124 4.4764173-6.4285714 5.6493507-4.1151275 1.7819408-8.5690173 2.6461284-13.0519481 2.5324675-2.8329724-.0459965-5.6615603-.2410716-8.474026-.5844156-.9996319-.1301091-1.9436544-.5346902-2.7272727-1.1688312.6818182 4.5779221-.2922078 9.0584416-4.6753247 12.1753247-3.0785019 1.959971-6.6771694 2.9445121-10.3246753 2.8246753-2.4847045-.0566342-4.9605599-.3172505-7.4025974-.7792207l-.974026-.3896104c-.5614865 1.8341235-1.4526831 3.5505022-2.6298701 5.064935-2.9868587 3.4825632-7.3952674 5.4179622-11.9805195 5.2597402h-1.16883115c-.70990003-.078044-1.40147856-.275638-2.04545455-.584415-.56680408.183344-1.15761751.281813-1.75324675.292207h-.1948052c.97803994.553794 2.0912208.823656 3.21428572.779221h.29220779c2.83048094.744963 5.74212424 1.137544 8.66883114 1.168831 5.2597403 0 11.2012987-1.461039 13.2467533-7.4999998 2.9508491 1.4196261 6.1739614 2.1838693 9.4480519 2.2402598 3.624407.0889767 7.1330791-1.2794054 9.7402598-3.7987013 2.1052396.698941 4.3077688 1.0605502 6.525974 1.0714286 3.4638303.1500916 6.8396046-1.1158238 9.3506493-3.5064935.0976912-.3366399.2281869-.6628791.3896104-.974026v-.1948052c.7792208-1.6558442 2.7272728-4.4805195 6.4285715-4.4805195.9591214.0350907 1.9091795.1988938 2.8246753.487013.7792208.2922078 8.1818182 6.2337662 14.9025974 6.2337662.8528282.0046659 1.703112-.0934437 2.5324675-.2922078l.487013-.1948052s13.4415585-3.8961039 15.4870125-8.7662337c3.484374-.795481 7.043159-1.2199233 10.616884-1.2662338 2.623727-.0955453 5.240043.3349876 7.694805 1.2662338 5.293784 1.3387112 10.712655 2.1221623 16.168831 2.3376623 4.067972-1.7127586 8.443509-2.574607 12.857143-2.5324675h2.532467c6.428572-3.2142857 11.590909-4.1883117 15.584416-4.1883117 6.331169 0 9.448052 2.5324675 9.448052 2.5324675 3.24416-2.0355218 6.982408-3.1468929 10.811688-3.2142857 2.321111-.0195715 4.617281.479596 6.720779 1.461039 1.67294-.7597914 2.871872-2.2857051 3.214286-4.0909091 1.381983.2523999 2.783486.3827723 4.188312.3896104 3.01948 0 6.525974-.7792208 6.525974-4.5779221.012651-.4566469-.019976-.9134236-.097403-1.3636364 0 0 20.649351-.5844156 20.649351-8.1818182.097403 0 9.545454-13.6363636.779221-19.7727272z" fill="#275a38"/><path d="m142.88961 125.746753c-1.314482-1.066562-2.987441-1.589362-4.675324-1.461039-5.551948 0-12.662338 3.311689-12.662338 3.311689-.816404-3.211584-2.541069-6.119842-4.967532-8.376624-2.026852-1.768506-4.537696-2.888207-7.207793-3.214285h-4.577922l-2.435065.38961-1.655844.38961-1.363636.389611-2.435065.974026c-2.5465161-4.092411-7.064307-6.536462-11.883117-6.428572l-2.7272727.194805c-2.7568225.435872-5.4226294 1.324474-7.8896104 2.629871 0-1.168832-7.5-6.818182-15.7792208-6.818182h-1.2662337c-8.8636364.584415-6.1363637 10.324675-6.1363637 10.324675-2.2172848-1.054311-4.6570295-1.555628-7.1103896-1.461039-2.4169753.01176-4.8168357.406257-7.1103896 1.168831-8.8636364 2.727273-2.4350649 10.616883-2.4350649 10.616883-5.3571429 17.337663 11.0064935 19.967533 21.4285714 19.967533 2.7022893.0052 5.4022927-.157451 8.0844156-.487013 1.4614103 2.815541 3.4446566 5.327653 5.8441558 7.402597l.974026.292208s4.0909091-6.331169 10.8116883-8.863636c2.0665857-.709689 4.24451-1.039677 6.4285714-.974026 3.842959.075465 7.6523511.732256 11.2987009 1.948052 3.203323-1.93086 6.876683-2.941877 10.616884-2.922078 9.837662 0 17.435064 6.915584 17.435064 6.915584.801608-.157557 1.618605-.222917 2.435065-.194805h1.85065c.411289-2.017825.542394-4.082724.38961-6.136364 0 0 21.623377-5.551948 6.720779-19.577922z" fill="#275a38"/><path d="m229.87013 168.993506s3.214286-14.707792-8.279221-14.707792l-2.532467.194805s-7.5-6.915584-17.435065-6.915584c-3.707821-.006934-7.346443 1.003794-10.519481 2.922078-3.64635-1.215795-7.455742-1.872587-11.298701-1.948052-1.737477-.003447-3.469603.192642-5.162338.584416l-1.266234.38961c-3.815018 1.660789-7.185231 4.196791-9.837662 7.402597-.367577.457006-.693551.945966-.974026 1.461039l-1.266234-.292207c-4.27212-1.054055-8.651957-1.609706-13.051948-1.655845-2.123808.001053-4.243054.196676-6.331169.584416 1.461039 4.188312.389611 9.253247.389611 9.253247s20.746753 8.279221 4.188311 20.454545l-.487012.292208c-.681819 2.045455-2.337663 8.961039 5.064935 10.422078 1.191514.193925 2.396703.291643 3.603896.292208h2.240259c1.513375-.17945 3.011107-.472485 4.48052-.876624 4.188312-1.168831 7.305195-3.214285 7.402597-3.896104 2.146563 1.470012 4.514007 2.587972 7.012987 3.311689 1.671584.518822 3.412092.78154 5.162338.779221 3.482236.043317 6.841466-1.286378 9.350649-3.701299l1.266234-1.363637c.554917.375144 1.141565.70106 1.753247.974026 2.968142 1.521072 6.217111 2.416196 9.545454 2.629871h.681819c4.870129 0 10.227272-2.142858 13.636363-9.935065 0 0 7.889611 4.87013 13.441559 4.87013 1.243485.063765 2.474045-.278057 3.506493-.974026 16.461039-12.272728-4.285714-20.551949-4.285714-20.551949z" fill="#275a38"/><path d="m142.305195 166.266234s1.071428-5.064935-.389611-9.253247c-.812989-2.837695-3.214904-4.934604-6.136363-5.357143h-1.85065c-.81646-.028112-1.633457.037248-2.435065.194805 0 0-7.597402-6.915584-17.435064-6.915584-3.740201-.019799-7.413561.991218-10.616884 2.922078-3.6463498-1.215795-7.4557419-1.872587-11.2987009-1.948052-2.1840614-.065651-4.3619857.264337-6.4285714.974026-6.7207792 2.532467-10.8116883 8.863636-10.8116883 8.863636l-.974026-.292208c-4.3425025-1.030523-8.7841989-1.585735-13.2467532-1.655844-9.6428572 0-20.0649351 3.214286-17.435065 17.727273 0 0-7.3051948 7.012987 1.0714286 10.811688 2.9679164 1.358078 6.1846404 2.087645 9.448052 2.142857 1.6494286.035242 3.2937938-.194969 4.8701298-.681818 0 0-3.8961039 9.35065 4.7727273 11.006494 1.1915146.193925 2.3967037.291643 3.6038961.292208 7.4025974 0 14.025974-3.896104 14.1233766-4.87013 3.4160469 2.328498 7.374485 3.737434 11.4935065 4.090909h.6818182c4.1194793-.010581 8.0166497-1.869782 10.6168827-5.064935h.097403c3.604639 2.146098 7.690832 3.35186 11.883117 3.506493 1.416258-.002382 2.825497-.19902 4.188312-.584415 1.664939-.517989 3.217817-1.343987 4.577922-2.435065 2.017166-1.807033 3.613153-4.034765 4.675324-6.525974l.194806-.389611c2.939908 1.761695 6.078814 3.167663 9.350649 4.188312 1.32717.408514 2.702986.637817 4.090909.681818 1.049911.053183 2.094295-.182646 3.019481-.681818l.487012-.292208c16.558442-12.175324-4.188311-20.454545-4.188311-20.454545z" fill="#3a8835"/><path d="m236.980519 99.0584416s3.798702-13.1493507-8.863636-13.1493507h-2.824675c-2.619483-4.260042-7.271833-6.8446809-12.272727-6.8181818-3.148672.0625793-6.243566.8279832-9.058442 2.2402597-.73754-.6011017-1.557603-1.0931398-2.435065-1.4610389-2.103499-.981443-4.399669-1.4806105-6.720779-1.461039-3.82928.0673928-7.567528 1.1787639-10.811689 3.2142857 0 0-3.116883-2.5324675-9.448051-2.5324675-3.993507 0-9.155845.974026-15.584416 4.1883117h-2.532468c-4.413633-.0421395-8.789171.8197089-12.857142 2.5324675-2.803361 1.262106-5.271952 3.1635882-7.207793 5.5519481 0 0-2.727272 4.6753246-.38961 8.4740259.886607 1.3924837 2.178245 2.4801797 3.701299 3.1168827l1.948052.779221s.681818 10.032468 10.811688 10.032468c3.01948 0 6.720779-.876624 11.590909-3.019481.699409 3.344434 2.938569 6.161443 6.038961 7.597403 1.113964.516784 2.293931.87733 3.506494 1.071428l2.62987.194806 2.824675-.194806c.82892 2.231392 2.461652 4.072558 4.577922 5.162338.96895.480407 1.979612.871631 3.019481 1.168831 1.437894.327726 2.908353.49111 4.383117.487013 2.635508-.068572 5.252568-.461131 7.792207-1.168831 2.858736-.811379 5.657677-1.820299 8.376624-3.01948l3.506493-1.655845c2.449882.63471 4.969263.961902 7.5.974026 5.454546 0 12.077922-1.753246 12.857143-9.935065 0 0 15.292208-3.701298 5.941558-12.3701294z" fill="#275a38"/><path d="m59.512987 293.376623c-1.3636364-.097402-2.8246753.292208-3.0194805.779221l-.2922078.487013.5844156 1.168831c1.5586294 1.022179 3.3972118 1.532897 5.2597402 1.461039 2.922078-.194805 4.1883117-.779221 5.5519481-.681818s5.4545455.779221 5.6493506-.584415c.1948052-1.363637.3896104-3.603897.3896104-3.603897l-9.0584415-1.363636s-3.6038961 2.435065-5.0649351 2.337662z" fill="#f4f3f4"/><path d="m59.4155844 296.980519c.8615196.203751 1.7446376.301875 2.6298701.292208 2.922078-.194805 4.1883117-.779221 5.5519481-.681818s5.4545455.779221 5.6493506-.584415c.1948052-1.363637.3896104-3.603897.3896104-3.603897l-5.9415584-.876623c-1.2662338 3.214286-4.6753247 4.772727-8.2792208 5.454545z" fill="#010101" opacity=".07"/><path d="m80.1623377 278.279221s-7.6948052 7.5-9.1558442 8.571428c-1.461039 1.071429-9.0584416 5.357143-9.6428571 6.038961-.5844156.681819 1.6558441 1.753247 6.1363636.779221 2.6298701-.487013 4.4805195-1.461039 6.1363636-1.266234.0460301-.83488.3151165-1.642139.7792208-2.337662.5844156-.779221 10.9090909-7.012987 10.9090909-7.012987s-.7792208-5.746753-5.1623376-4.772727z" fill="#edc7b2"/><path d="m82.987013 278.766234c.0798888.463724.0117308.94083-.1948052 1.363636-1.197504 1.898809-2.8782832 3.445126-4.8701299 4.48052-2.9117533 1.730506-5.5399046 3.898731-7.7922078 6.428571-1.1065369 1.139207-2.3891623 2.092954-3.7987013 2.824675l1.1688312-.194805c2.6298701-.487013 4.4805195-1.461039 6.1363636-1.266234.0460301-.83488.3151165-1.642139.7792208-2.337662.5844156-.779221 10.9090909-7.012987 10.9090909-7.012987s-.487013-3.01948-2.3376623-4.285714z" fill="#010101" opacity=".07"/><path d="m123.116883 244.87013s2.824675 2.922078 5.551948 2.532467l.779221-2.824675-4.285714-2.337662s-.292208 2.532467-2.045455 2.62987z" fill="#ce9b25"/><path d="m123.116883 244.87013s2.824675 2.922078 5.551948 2.532467l.779221-2.824675-4.285714-2.337662s-.292208 2.532467-2.045455 2.62987z" fill="#b58b55"/><path d="m113.279221 271.655844 6.428571-8.181818 1.655844-15-11.688311 18.409091z" fill="#edc7b2"/><path d="m112.012987 270 1.266234 1.655844 6.428571-8.181818 1.655844-15.097403-1.753246 2.824676c-.584416 6.623376-2.24026 15.097402-7.597403 18.798701z" fill="#010101" opacity=".07"/><path d="m108.409091 255.292208-19.7727274-2.045455c-.1479589-.002996-.2892533.061447-.3839938.175135-.0947404.113689-.1326473.264288-.1030192.409281l5.2597403 15.974026 21.2337661 2.337662-5.064935-15.974026c-.164742-.510183-.632927-.861322-1.168831-.876623z" fill="#9d9d9c"/><path d="m96.9155844 268.928571s-3.3116883-1.655844-4.8701299-1.655844c-1.5584415 0-10.1298701 8.279221-10.1298701 8.279221l5.4545455 5.941558 6.525974-3.701298s13.9285711 10.422078 17.0454541 11.493506c3.116884 1.071429 7.987013 1.071429 7.987013 1.071429l-10.12987-12.175325z" fill="#7fc6b1"/><path d="m67.1103896 295.811688c-1.461039 0-2.9220779.389611-3.1168831.779221l-.2922078.487013.5844156 1.168831c1.5586294 1.022179 3.3972118 1.532897 5.2597402 1.461039 2.922078-.194805 4.1883117-.681818 5.5519481-.681818s5.4545455.779221 5.6493506-.487013c.1948052-1.266234.3896104-3.603896.3896104-3.603896l-9.0584415-1.461039s-3.6038961 2.435065-4.9675325 2.337662z" fill="#fff"/><path d="m66.1363636 299.220779c1.0964127.371995 2.2523762.537133 3.4090909.487013 2.922078-.194805 4.1883117-.681818 5.5519481-.681818s5.4545455.779221 5.6493506-.487013c.1948052-1.266234.3896104-3.603896.3896104-3.603896l-5.2597402-.876623c-3.1168831 2.240259-5.9415585 4.480519-9.7402598 5.162337z" fill="#010101" opacity=".07"/><path d="m128.084416 244.577922s.487013 1.461039.097402 1.461039l-1.753247.38961-3.701298 10.909091s5.64935.681819 5.941558-.097402 9.545455-11.103896 9.545455-11.103896l-3.993507-4.48052z" fill="#edc3ad"/><path d="m142.694805 248.181818c-1.96971-1.473969-4.018195-2.839626-6.136363-4.090909l-10.324676 11.396104.194805-9.058442-3.896103.876624c-1.414544.854237-2.323431 2.344812-2.435065 3.993506l-2.142858 11.493507.194806 12.077922s7.5.876623 10.227272 2.727273c2.727273 1.850649 4.87013 7.694805 4.675325 9.642857 1.154248-1.732377 2.164142-3.556701 3.019481-5.454546.77922-2.824675 9.155844-16.655844 9.253246-24.642857.097403-7.987013-.876623-7.597402-2.62987-8.961039z" fill="#fff"/><path d="m142.694805 248.181818-.292208-.194805c-.134235.464098-.296879.919502-.487013 1.363636-5.064935 9.253247-9.350649 21.233767-19.090909 26.298702 1.930763.393357 3.798701 1.048774 5.551948 1.948052 2.727273 1.948052 4.87013 7.694805 4.675325 9.642857 1.154248-1.732377 2.164142-3.556701 3.019481-5.454546.77922-2.824675 9.155844-16.655844 9.253246-24.642857.097403-7.987013-.876623-7.597402-2.62987-8.961039z" fill="#f4f3f4"/><path d="m127.012987 274.480519-17.142857-3.311688c-.232773-.027319-.466793.03971-.649806.18612-.183012.14641-.299777.360008-.32422.593101-.057836.232935-.017637.479397.111217.681882s.335094.343284.570601.389547l17.045455 3.311688c.505993.060533.973116-.279193 1.071428-.779221.057836-.232935.017637-.479397-.111217-.681882s-.335094-.343284-.570601-.389547z" fill="#9d9d9c"/><path d="m129.642857 277.597403c-2.142857-1.363637-9.935065-2.824676-9.935065-2.824676s-15.876623-6.331169-17.337662-6.623376c-1.461039-.292208-5.1623378-1.168832-5.7467534-.292208l-7.6948052 10.616883c-.3896104.584416 6.1363637 5.941558 6.1363637 5.941558s5.4545459-4.090909 6.0389609-4.967532c.584416-.876623 6.818182 6.233766 7.987013 7.11039 1.168831.876623 6.038961 4.577922 10.12987 4.967532s7.987013.681818 11.201299-1.558442c3.214286-2.240259 3.01948-3.701298 3.116883-5.25974.097403-1.558441-1.753247-5.746753-3.896104-7.110389z" fill="#7fc6b1"/><path d="m120.38961 285.779221c-5.551948-.974026-10.616883-3.993507-15.681818-6.136364l-4.383117-1.948052c-1.569243 1.696928-3.3349127 3.201017-5.2597399 4.48052-.4972561.385524-1.0574667.682106-1.6558442.876623l1.6558442 1.363636s5.4545459-4.090909 6.0389609-4.967532c.584416-.876623 6.818182 6.233766 7.987013 7.11039 1.168831.876623 6.038961 4.577922 10.12987 4.967532s7.987013.681818 11.201299-1.558442c3.214286-2.240259 3.01948-3.701298 3.116883-5.25974v-.584415c-3.701299 2.337662-9.545455 2.337662-13.149351 1.655844z" fill="#010101" opacity=".07"/><path d="m89.9025974 276.915584-2.7272727 3.701299c3.6038961.097403 5.9415584 5.454546 5.9415584 5.454546l3.4090909-2.629871c-.637076-3.340376-3.2739287-5.938452-6.6233766-6.525974z" fill="#7fc6b1"/><path d="m91.461039 283.344156c.6560307.841672 1.2117278 1.756938 1.6558441 2.727273l3.4090909-2.629871c-.3062666-1.767012-1.1983009-3.379535-2.5324675-4.577922-.4914516 1.667079-1.357696 3.199665-2.5324675 4.48052z" fill="#010101" opacity=".07"/><path d="m82.3051948 274.675325-3.0194805 3.603896 5.9415584 5.454545 3.4090909-2.62987c-.4716775-3.299688-3.0390662-5.906575-6.3311688-6.428571z" fill="#7fc6b1"/><path d="m87.6623377 280.811688s-7.6948052 7.5-9.1558442 8.571429c-1.461039 1.071428-9.0584416 5.551948-9.6428571 6.233766-.5844156.681818-.7792208 1.655844 6.525974.487013 4.2857143-.779221 5.7467532-.487013 5.7467532-.487013.1125826-1.0813.4090545-2.135423.8766234-3.116883.6818182-.779221 10.8116883-7.012987 10.8116883-7.012987s-.7792208-5.649351-5.1623376-4.675325z" fill="#edc7b2"/><path d="m86.7857143 288.311688c-4.6753247 3.019481-9.7402598 5.357143-14.4155844 8.181818l3.0194805-.38961c4.2857143-.779221 5.7467532-.487013 5.7467532-.487013.1125826-1.0813.4090545-2.135423.8766234-3.116883.6818182-.779221 10.8116883-7.012987 10.8116883-7.012987-.1543626-.810475-.4164259-1.596665-.7792208-2.337662-1.3722436 2.070245-3.1642094 3.829026-5.2597402 5.162337z" fill="#010101" opacity=".07"/><path d="m127.402597 230.064935c-1.757827.460891-3.411027 1.254427-4.870129 2.337662 0 0-1.168832.487013-.487013 2.435065.681818 1.948052 1.363636 3.701299 1.363636 3.701299s-.681818.779221.194805 2.337662c.903699 1.375208 1.913252 2.677858 3.019481 3.896104.264819.380961.70517.601137 1.168831.584416.413957.106066.853488-.003816 1.168831-.292208l5.25974-3.409091s-4.285714-12.077922-6.818182-11.590909z" fill="#edc7b2"/><path d="m139.480519 249.448052c-2.337662 1.071429-2.922077 5.941558-3.01948 7.012987s.38961 15.194805.38961 15.194805l-13.636363-1.168831-5.941559-1.850649-3.116883 1.753246 6.331169 2.824676 3.506493.681818s9.545455 3.409091 11.98052 4.090909 6.136364 1.266234 7.5.292208 1.655844-24.448052.779221-26.883117c-.876624-2.435065-2.532468-3.019481-4.772728-1.948052z" fill="#edc7b2"/><path d="m144.058442 251.103896c-.097403 8.376623-1.071429 13.636364-2.142858 17.337662-1.753246 6.233767-6.915584 8.766234-12.857142 6.818182l-1.85065-.194805c3.019481 1.071429 7.305195 2.532468 8.766234 2.922078s6.136364 1.266234 7.5.292208 1.655844-24.448052.779221-26.883117z" fill="#010101" opacity=".07"/><path d="m114.058442 270.38961.584415 1.753247 6.525974 1.266234-.487013-2.824675z" fill="#edc7b2"/><path d="m123.506494 228.116883c-1.841211 1.154317-2.948403 3.18417-2.922078 5.357143-.097403 2.045455 2.824675 5.064935 2.824675 5.064935s-.194805-.487013-.584416-1.850649c-.38961-1.363637 1.168831-5.064935 1.168831-5.064935l1.558442-3.993507s.194805-.779221-2.045454.487013z" fill="#b58b55"/><path d="m131.980519 226.558442c-2.824675-.779221-4.577922-1.168832-6.428571 1.071428s-1.558442 3.993507-1.558442 3.993507c1.632308 2.054774 3.78465 3.635399 6.233767 4.577922 3.409091 1.363636 2.824675 5.941558 2.435065 7.987013-.389611 2.045454-1.168832 2.337662-1.168832 2.337662 1.750036.150077 3.509706.150077 5.259741 0 1.753247-.584416 2.824675-.681818 3.798701-2.24026.974026-1.558441 2.532468-6.136363.38961-8.961039-2.142857-2.824675-6.038961-7.987013-8.961039-8.766233z" fill="#b58b55"/></g><g transform="translate(88 127)"><g fill="#92d2f4"><path d="m64.0540541 70.6216216c-38.2432433 8.5135135-55.94594599 15.945946-61.48648653 32.0270274-2.16216216 6.756756 3.10810811 46.891892 12.97297293 48.378378 9.8648649 1.486487 53.5135136-26.216216 56.7567568-42.567568 3.7837838-18.7837833-8.2432432-37.8378374-8.2432432-37.8378374"/><path d="m.54054054 104.675676c.67567568-3.378379 5-17.2972976 19.72972976-7.0270274 2.9729729 5.0000004 4.1891892 34.8648654 3.1081081 41.0810814s3.1081081 13.918919-7.8378379 12.297297c-10.94594591-1.621622-16.35135131-39.864865-14.99999996-46.351351z"/><path d="m22.1621622 105.621622c11.6216216-14.0540544 36.7567567-26.4864869 41.3513513-27.9729734 4.5945946-1.4864864-3.1081081-4.8648648-8.5135135-4.4594594-19.7297297 1.3513513-45.94594595 10.8108108-50.94594595 25.9459459-5 15.1351349 18.10810815 6.4864869 18.10810815 6.4864869"/><path d="m332.162162 66.7027027c38.108108 8.5135135 62.702703 17.1621622 68.243243 33.2432432 2.162163 6.6216221-5.135135 45.6756761-15 47.1621621-9.864864 1.486487-58.378378-26.216216-61.621621-42.567567-3.783784-18.7837842 8.378378-37.8378383 8.378378-37.8378383"/><path d="m402.297297 101.972973c-.675675-3.5135135-2.567567-17.2972973-17.297297-7.0270271-2.972973 5-6.081081 33.6486491-5 39.8648651s-5.540541 13.918919 5.405405 12.297297 18.243244-38.648649 16.891892-45.135135z"/><path d="m385.540541 102.918919c-11.486487-14.0540541-48.378379-27.7027028-52.972973-29.1891893-4.594595-1.4864865 12.297297-3.2432432 17.837837-3.2432432 5.540541 0 43.378379 10.8108108 48.378379 25.9459459 5 15.1351356-13.243243 6.4864866-13.243243 6.4864866"/><path d="m23.3783784 159.945946c-4.0540541 2.027027-3.1081081 13.108108-3.1081081 21.216216s6.2162162 20.27027 10.2702702 20.27027l345.6756755.810811s17.702703-4.054054 9.324325-41.756757c-3.648649-16.216216-362.1621626-.54054-362.1621626-.54054"/><path d="m387.972973 137.378378c-.945946 4.72973 2.837838 29.594595-4.72973 30.405406-7.567567.810811-178.648648 9.054054-179.324324-2.972973s-4.594595-27.972973 2.297297-29.45946c6.891892-1.486486 181.756757 2.027027 181.756757 2.027027"/><path d="m18.5135135 137.378378c0 7.972973-5 33.108108 8.1081081 33.108108s171.4864864 2.297298 173.5135134-2.702702 7.297297-29.45946.27027-34.45946-181.8918915 4.054054-181.8918915 4.054054"/><path d="m46.8918919 115.216216c-6.8918919-2.972973 2.2972973-26.8918917 1.6216216-33.5135133s-4.5945946-26.8918919-2.2972973-34.3243243c2.2972973-7.4324325 83.2432428 1.3513513 90.9459458 2.8378378 0 0 57.972973-7.2972973 62.567568-7.2972973 4.594594 0 8.648648 20.8108108 4.864865 39.4594595-1.216217 5.9459459 2.027027 28.3783786-1.756757 30.6756756s-27.297297.945946-50 .675676c-15-.135135-28.918919-.270271-34.45946 0-12.837837.675675-71.4864861 1.486486-71.4864861 1.486486"/><path d="m206.081081 115.216216c-6.891892-2.972973-2.972973-27.9729728-3.648649-34.7297295-.675675-6.7567568.540541-25.6756757 2.837838-33.1081081 2.297298-7.4324325 96.621622-2.027027 104.324325-.5405406 0 0 44.594594-5.8108108 49.189189-5.8108108 4.594594 0 2.702702 22.7027027-1.081081 41.3513514-1.216217 6.0810811 4.594594 28.3783786.675675 30.6756756s-15.27027.945946-28.378378.675676c-8.648649-.135135-17.297297-.270271-22.837838 0-12.837838.675675-101.081081 1.486486-101.081081 1.486486"/></g><path d="m57.1621622 111.972973c-10.1351352-.810811-38.7837838 13.783784-38.6486487 25.405405.1351351 4.054054 48.5135135 2.972973 68.6486487.945946 9.054054-.81081 31.6216218 0 54.1891888.945946 27.702703 1.216216 55.270271 2.297298 57.972973.135135 5.135135-4.054054 15.945946-26.756756 3.513514-26.486486-20.675676.54054-141.4864866-.540541-145.6756758-.945946" fill="#719dd4"/><path d="m351.081081 111.567568c10-.810811 37.702703 13.243243 36.891892 25.81081-.405405 3.918919-48.243243 4.054054-68.378378 2.027027-8.918919-.945946-31.351352-.27027-54.054054.405406-28.378379.945946-59.324325 1.891892-62.162163-.405406-5-4.054054-8.378378-27.162162 4.054054-26.891891 12.432433.27027 131.351352 0 143.648649-.945946" fill="#719dd4"/><path d="m160.675676 163.72973c3.108108 7.567567 6.891892 25.810811 5 28.918919-2.509633 3.960262-5.556714 7.553089-9.054054 10.675675-1.486487.810811 1.486486 2.702703 4.324324 2.702703s17.297297-4.189189 18.783784-4.189189c1.486486 0 3.783784-3.513514 3.378378-5-.405405-1.486487-1.351351-2.702703-3.243243-6.216216-3.243243-6.081081-4.864865-29.054054-4.864865-29.054054z" fill="#dba89c"/><path d="m162.027027 194.27027c-7.027027 8.108108-10.945946 10-14.72973 12.702703-3.783783 2.702703 2.027027 5 6.486487 5.675676 4.459459.675675 13.648648-2.972973 16.081081-5 7.432432-6.216217 10.945946-2.297298 13.918919-5 .810811-.810811-.27027-9.45946-1.756757-10.270271-1.486486-.81081-.810811 2.837838-4.324324 4.72973-3.513514 1.891892-9.864865 4.594595-10.135135 2.837838-.270271-1.756757-2.972973-8.783784-5.540541-5.675676" fill="#2e2d2c"/><path d="m283.918919 38.1891892c2.162162-3.6486487 8.378378-5.6756757 10.810811-5.945946 10.675675-1.081081 21.756756-.6756756 22.972973 4.0540541 1.216216 4.7297297-6.351352 13.2432432-6.351352 13.2432432z" fill="#25377c"/><path d="m293.918919 49.8108108-9.864865-10c2.996734-.0766755 5.81039-1.4588223 7.702703-3.7837838 1.216216-2.7027027 1.756757-2.1621621 1.621621-6.4864865l17.567568-1.2162162c.27027 10.1351352 5.405405 10.5405406 5.405405 10.5405406l-2.567567 13.3783783z" fill="#cf9f94"/><path d="m289.594595 23.8648649c.135135 5.1351351.405405 10.5405405 2.972973 13.5135135 2.567567 2.972973 6.756756 5.4054054 8.243243 5.6756757 1.486486.2702702 7.162162-2.4324325 10.54054-5.4054055 3.378379-2.9729729 1.081081-5.2702702 2.567568-11.2162162 2.027027-8.5135135-.27027-18.10810808-11.081081-18.51351348-16.486487-.67567568-13.648649 7.29729728-13.243243 15.94594598z" fill="#dba89c"/><path d="m290.540541 19.5405405c-1.351352-.2702702-5-.9459459-5.135136.945946-.135135 1.8918919 3.783784 9.1891892 5.270271 9.054054 1.486486-.1351351-.135135-10-.135135-10z" fill="#dba89c"/><path d="m314.459459 20.4864865c2.027027-.8108108 3.783784-.1351351 2.567568 2.4324324-1.216216 2.5675676-3.783784 7.1621622-4.324324 6.3513514-.540541-.8108108 1.756756-8.7837838 1.756756-8.7837838z" fill="#dba89c"/><path d="m306.216216 15.0810811c7.162162-3.3783784 9.45946 2.1621621 6.891892 8.1081081 1.220039-.8805572 2.31159-1.9266274 3.243243-3.1081081.260163-1.7312841.621137-3.4459105 1.081081-5.1351352.675676-3.1081081-5.27027-15.27027022-12.162162-11.62162158-6.891892 3.64864865.945946 11.75675678.945946 11.75675678z" fill="#b1b6c4"/><path d="m310.405405 14.5405405c-1.621621 1.7567568-7.837837 4.8648649-9.864864 3.3783784s-8.243244-4.3243243-9.054055-3.1081081c-.81081 1.2162162-.81081 9.0540541-.81081 9.0540541l-1.891892-3.2432433c-.201365-.8479155-1.036904-1.3850481-1.891892-1.2162162-.405406 0 .54054-1.2162162.405405-7.5675676-.135135-6.35135131 12.702703-12.70270267 16.891892-10.5405405 4.189189 2.16216216 5.810811 1.62162162 5.945946 4.86486486.135135 3.24324325.27027 8.37837834.27027 8.37837834z" fill="#b1b6c4"/><path d="m327.432432 44.5405405-12.432432-7.4324324s.810811 3.1081081-4.594595 7.1621622c-2.256009 1.7165526-5.003296 2.663893-7.837837 2.7027027-12.027027-.6756757-12.567568-10.2702703-12.567568-10.2702703s-2.837838 1.3513514-14.324324 5.4054054c-4.45946 1.6216216-1.621622 5.2702703-2.027027 10.2702703-.405406 5 1.756756 15.6756757 2.702702 19.8648648.945946 4.1891892 2.972973 17.972973 2.432433 25.5405406-.27027 4.1891892 46.486486 2.4324322 46.621621 1.3513513 1.756757-20.4054054 7.297298-51.4864865 2.027027-54.5945946z" fill="#fff"/><path d="m318.243243 38.7297297c1.486487 5.2702703-1.891892 13.6486487-5.675675 22.8378379-3.783784 9.1891892-7.027027 15.5405405-6.081082 20.4054054 2.162163 10.4054054-.675675 40.675676-.27027 43.783784 5.540541.810811 40.945946-.945946 43.378379-2.567568 2.432432-1.621621-6.621622-11.891892-8.783784-26.4864863-1.756757-11.8918919-4.72973-14.8648649-3.513514-20.8108108 1.216217-5.945946.945946-27.7027027-1.756756-30.1351351-4.819352-4.2080971-10.908628-6.6818654-17.297298-7.0270271z" fill="#3653a1"/><path d="m298.918919 121.702703c4.054054-1.486487 9.459459-25.675676 8.243243-38.5135138s-22.162162-41.2162162-20.54054-47.1621622c-11.216217 6.2162162-18.243244 7.2972973-20.810811 11.3513514 1.216216 8.1081081 6.621621 20.1351351 5.135135 22.8378378.810811 7.027027-3.108108 25.945946-4.594595 32.1621618-1.486486 6.216217-6.486486 23.513514-5.27027 25.270271 1.216216 1.756756 31.621622-3.513514 37.837838-5.945946z" fill="#25377c"/><path d="m306.081081 79.6756757c-.27027-7.1621622-16.216216-32.1621622-17.567567-42.8378379-.098601-.9207541.040996-1.8513999.405405-2.7027027 0 0-10.405405 4.7297298-12.702703 5.2702703 1.351352 1.3513514 7.837838 1.8918919 12.162162 11.3513514 4.324325 9.4594594 17.702703 28.9189189 17.702703 28.9189189z" fill="#3653a1"/><path d="m305.540541 77.5135135c.405405-1.8918919 12.837837-25.9459459 10.27027-43.6486486 0 0 10.810811 5.6756756 12.162162 5.5405405s-7.162162 2.7027027-9.054054 8.2432432c-1.891892 5.5405406-12.837838 31.4864865-12.837838 31.4864865z" fill="#25377c"/><path d="m278.513514 99.1351351c-12.972973 10.1351349-10.135136 21.0810809-11.351352 28.6486489-1.216216 7.567567 21.081081 5.810811 21.081081 5.810811l16.351352-3.378379c4.459459 0 14.189189 3.108108 20.405405 3.108108s20.540541 1.081081 19.324324-5.27027c-1.216216-6.351351-9.729729-27.027027-15.81081-28.7837837-6.081082-1.7567568-50-.1351352-50-.1351352z" fill="#151823"/><path d="m332.972973 44.5405405c7.297297-1.8918919 11.486486 17.972973 21.216216 33.918919 5.135135 8.5135135 3.108108 15.4054054-4.324324 21.3513513-1.891892 1.4864862-16.081081-5.1351351-16.081081-5.1351351l3.783784-13.9189189-5.270271-14.5945946z" fill="#25377c"/><path d="m267.837838 46.027027c-4.594595-.6756756-18.513514 38.5135135-16.891892 47.4324325 1.621622 8.9189185 18.243243 7.9729725 18.243243 7.9729725s5.675676-7.9729725 7.162162-15.9459455l4.054054-14.0540541z" fill="#25377c"/><path d="m342.027027 186.027027c-1.081081 5.540541-4.594595 2.027027-12.837838 1.216216s-13.243243-1.081081-12.837838-7.702702c.405406-6.621622 8.513514-13.783784 14.864865-11.756757 6.351352 2.027027 10.810811 18.243243 10.810811 18.243243z" fill="#2e2d2c"/><path d="m301.891892 208.459459c-.945946.540541-.810811 5.810811.405405 7.162163 1.216217 1.351351 10.405406 4.054054 18.108108-.135136 7.702703-4.189189 5.810811-3.378378 12.702703-4.729729 1.621622-.405406 3.783784-8.243243.945946-9.324325-2.837838-1.081081-30.810811 6.351352-32.162162 7.027027z" fill="#2e2d2c"/><path d="m323.108108 165.756757c1.081081 7.702702-1.081081 18.378378-3.918919 26.351351-1.351351 3.783784-3.918919 6.756757-4.459459 9.054054-1.891892 7.027027 2.837838 7.837838 2.837838 7.837838s15.405405-2.432432 16.081081-4.054054c2.162162-5.945946-1.216217-6.351351-1.081081-8.378378.675675-7.972973 2.432432-20.945946 2.432432-23.648649s-11.891892-7.162162-11.891892-7.162162z" fill="#fff"/><path d="m317.027027 193.594595c-2.972973 3.648648-2.297297 3.513513-5.135135 5.675675 0 0-8.378378 6.081081-9.45946 7.972973-1.081081 1.891892-2.162162 7.162162 6.351352 7.297298 4.189189.135135 10.135135-2.027027 15.405405-4.594595s7.837838-3.513514 9.864865-4.189189c2.027027-.675676-4.72973 2.162162-7.702703-2.702703 0 0 5.945946-5-1.891892-9.594595-3.108108-1.891891-7.432432.135136-7.432432.135136z" fill="#55210e"/><path d="m324.459459 103.054054c-5.81081 2.837838-8.783783 7.702703-8.783783 10.405405 0 2.702703 1.081081 8.108109 1.486486 11.621622.405406 3.513514-.405405 52.027027-.810811 55.945946.103115-1.782592.921781-3.447988 2.270278-4.618381 1.348497-1.170394 3.112519-1.746576 4.891885-1.597835 0 0 8.513513-53.648649 6.081081-61.081081-2.432433-7.432433-5.135136-10.675676-5.135136-10.675676z" fill="#2b2d31"/><path d="m323.918919 105.081081c-3.918919-4.054054 17.567567-5.1351351 21.756757 12.567568 2.702702 11.351351-1.216217 58.108108-4.18919 69.864865-6.351351-11.756757-17.972972-12.702703-21.486486-10.810811 2.162162-27.837838 9.189189-66.081081 3.918919-71.621622z" fill="#1d1d1b"/><path d="m271.621622 185.351351c1.216216 5.405406 4.594594 2.162163 12.972973 1.351352 8.378378-.810811 13.648648-1.081081 13.243243-7.702703-.405406-6.621622-8.783784-13.783784-15.27027-11.756757-6.486487 2.027027-10.945946 18.108108-10.945946 18.108108z" fill="#2e2d2c"/><path d="m302.162162 205.756757c2.027027 2.027027.675676 8.513513-.945946 9.324324-4.948789 1.871904-10.394 1.967434-15.405405.27027-7.297297-2.567567-5.27027-4.459459-12.027027-7.027027-1.621622-.675675-2.837838-7.162162-.27027-8.513513 5.945945-3.378379 28.648648 5.945946 28.648648 5.945946z" fill="#2e2d2c"/><path d="m288.108108 162.648649c-1.081081 7.567567.675676 18.513513 2.432433 27.027027.81081 4.189189 6.621621 13.108108 7.162162 15.405405 1.351351 4.864865-7.702703 10.945946-18.648649.405405-.810811-.945945-3.378378-.675675-4.189189-1.891891-.810811-1.216217.945946-8.648649.810811-10.540541-.540541-7.972973-1.216217-17.702703-1.216217-20.54054 0-2.837838 13.648649-9.864865 13.648649-9.864865z" fill="#fff"/><path d="m292.432432 193.054054c2.972973 3.648649 1.621622 2.972973 3.648649 5.405405 1.938844 1.900937 3.744892 3.932741 5.405405 6.081082 1.216217 1.891891 5.540541 10.135135-8.783783 8.918918-4.45946-.27027-6.351352-2.027027-11.351352-5.27027-2.249628-1.551838-4.70605-2.780049-7.297297-3.648648-1.081081-.270271 5.135135 2.837837 7.972973-2.027027 0 0-6.216216-5.135136 1.621622-9.72973 3.108108-1.891892 8.783783.27027 8.783783.27027z" fill="#55210e"/><path d="m288.243243 103.324324c5.810811 1.081081 9.864865 7.162162 9.864865 9.864865s-.945946 7.567568-1.351351 11.081081c-.405406 3.513514.54054 52.027027.945946 55.945946-.357077-3.757836-3.670667-6.529203-7.432433-6.216216 0 0-8.648648-53.648649-6.216216-61.081081 2.432432-7.432433 4.189189-9.594595 4.189189-9.594595z" fill="#2b2d31"/><path d="m289.459459 105.351351c4.054055-4.054054-17.567567-4.189189-21.756756 13.513514-2.702703 11.351351 1.081081 56.081081 4.054054 67.837838 6.621621-11.756757 18.513513-12.702703 22.162162-10.810811-4.324324-26.351351-9.864865-64.864865-4.45946-70.540541z" fill="#1d1d1b"/><path d="m271.081081 85.3513514 12.297297.4054054c1.351352.1351351 1.486487.5405405 3.648649 2.4324324s1.216216 2.1621622-.675676 1.3513513c-.933061-.3830352-1.836438-.8347238-2.702702-1.3513513l-2.837838-.4054054 4.054054 2.027027c.675676.2702703 2.432432 2.4324324 3.243243 2.8378378.810811.4054055 1.081081 2.2972973-.675676 1.6216217-1.756756-.6756757-2.567567-1.7567568-3.648648-2.2972973-1.320805-.4664555-2.676366-.8279382-4.054054-1.0810811 3.108108 1.4864865 6.891892 3.3783784 7.567567 4.4594595.675676 1.081081-1.216216.9459459-3.108108 0-1.540486-.6037587-3.120821-1.1004353-4.72973-1.4864865l4.594595 2.8378378s1.351351 1.4864865-1.621622.5405405c-5.675675-1.7567567-9.594594-2.4324324-10.675675-2.7027027-10.135135-3.2432432-5.270271-5.1351351-.675676-9.1891891z" fill="#dba89c"/><path d="m262.567568 95.6216216c0-4.8648648-1.351352-9.4594594 5-12.7027027 1.686437.3193166 3.355313.7252595 5 1.2162162 0 0-3.918919 1.3513514-4.72973 14.0540541z" fill="#3653a1"/><path d="m271.081081 51.5675676c1.447548 4.2268855 2.267087 8.6432881 2.432433 13.1081081-.270271 3.2432432-.675676 15.2702702-1.756757 15.2702702s-8.918919 1.8918919-11.891892 4.7297298c-2.972973 2.8378378 2.432432-5.1351352 5.945946-5.8108108-3.648649 1.2162162-5.27027 2.1621621-6.081081 2.2972973-.810811.1351351 2.702702-2.0270271 5-3.2432433 2.297297-1.2162162 3.378378-5.6756757 4.324324-15s2.027027-11.3513513 2.027027-11.3513513z" fill="#3653a1"/><path d="m334.594595 103.864865c0 .54054-.405406.810811-.945946.810811l-59.054054.54054c-.505694.016001-.954848-.320865-1.081081-.810811l-4.72973-40.8108104c-.039467-.2733306.042483-.5502592.224339-.7580947.181856-.2078356.445456-.325821.721607-.3229864l67.027027-.8108108c.54804-.0042964 1.01259.4021849 1.081081.9459459z" fill="#bec4d3"/><path d="m345.405405 86.972973c.810811-1.2162162-1.351351-4.5945946-2.162162-7.5675676 0 0-7.567567-4.3243243-13.648648-5.1351351-1.351352-.1351352-2.297298.2702702-5.270271.8108108-2.972973.5405405-2.432432 1.6216216-.27027 1.8918919 1.305853.1476799 2.62634.1021459 3.918919-.1351352l3.108108.6756757-3.243243-.2702703-5.135135.6756757c-1.216217 0-2.027027 1.4864865 0 1.7567568 1.387758.1938848 2.788021.2842244 4.189189.2702702l4.054054.5405406c-2.972973-.1351351-7.297297-.6756757-8.378378-.1351351-1.081082.5405405-.810811 2.1621621 1.351351 1.8918918 2.284003-.1947297 4.583671.0812306 6.756757.8108109l-5.540541-.5405406s-2.027027.945946.675676 1.4864865c6.621621 1.4864865 11.756757 3.6486486 13.918919 3.3783784 2.162162-.2702703 5 .5405405 5.675675-.4054054z" fill="#dba89c"/><path d="m345.405405 92.6486486c1.351352-2.2972972 2.837838-11.8918918 0-15-3.243243-.9459459-4.054054 0-4.054054 0s.540541 10.8108109-2.162162 12.972973z" fill="#3653a1"/><path d="m176.081081 75.8918919c-2.027027 5.5405405-8.513513 17.1621622-9.594595 17.7027027-1.081081.5405405-7.567567 1.6216216-13.108108 1.3513513h-7.972973c-5.65708.2014894-11.310895-.4824397-16.756756-2.027027-.675676-.1351351-.675676-7.4324324-.675676-7.4324324 12.162162-1.0810811 27.297297-4.0540541 27.972973-4.1891892s11.621622-26.0810811 15-27.4324324c3.378378-1.3513514 5.135135 22.1621621 5.135135 22.1621621" fill="#dba89c"/><path d="m157.432432 106.432432c-8.648648 2.432433-11.216216 9.864865-11.486486 15.945946s13.513513 52.702703 14.324324 66.486487c11.891892 6.621621 23.918919-5.945946 23.918919-5.945946-3.658221-17.275461-8.720064-34.223594-15.135135-50.675676-3.378378-8.513513 49.054054-1.081081 55.135135-.810811 6.081081.270271-.810811-27.162162-4.72973-30.405405-3.918918-3.2432432-27.297297-10.9459459-27.297297-10.9459459l-2.837838 12.8378379z" fill="#fff"/><path d="m186.756757 59.1351351c-3.108108.5405406-10.270271-5.8108108-10-6.6216216 2.027027-5.6756757-.540541-12.7027027-2.432433-15l8.918919-18.5135135c1.891892 2.7027027 8.108108 11.2162162 12.297298 13.6486486 3.016299 1.8324888 6.128895 3.5015619 9.324324 5 0 0 5.54054 16.6216217-18.108108 21.4864865" fill="#d59988"/><path d="m181.891892 49.2702703h-.27027c.149266 0 .27027-.1210042.27027-.2702703v.4054054" fill="#cf9f94"/><path d="m187.432432 26.4324324c-2.567567 0-8.243243 7.2972973-8.243243 7.2972973l-2.972973 7.2972973c.471596 1.4113301.83304 2.8571055 1.081081 4.3243244.117689.6233304.163034 1.2581623.135135 1.8918918l18.648649 8.6486487c1.3893-.6687586 2.70308-1.4842081 3.918919-2.4324324l1.756757-16.3513514s-3.243243-2.1621622-6.621622-4.7297297l-.810811-.5405406c-2.145864-1.5166416-4.178281-3.1877393-6.081081-5-.207928-.2345731-.498395-.379807-.810811-.4054054" fill="#cf9f94"/><path d="m181.081081 48.189189h1.621622v1.689189h-1.621622z" fill="#cf9f94"/><path d="m193.783784 111.162162c-11.351352 2.432433-15.945946 7.837838-25.135135 1.081081-1.756757-1.351351 1.216216 3.378379 2.027027 5.675676 1.891892 5.27027-4.054054 0-6.081081-1.621622l5.945946 5.405406c-3.02141-.441384-6.003533-1.11914-8.918919-2.027027-3.513514-1.216217 6.621621 5.27027 6.621621 5.27027s2.027027 1.891892-5.27027 2.297297c-2.162162.135135 12.972973 24.72973 8.783784 53.243243l-1.891892 10.405406s14.594594-4.45946 14.324324-8.783784-9.189189-40.675676-12.162162-50.405405c-1.621622-5.270271 20.405405-3.108108 20.945946-4.594595.540541-1.486486.810811-15.945946.810811-15.945946" fill="#dbe0e5"/><path d="m192.972973 166.297297c.675676 9.189189 3.378378 20.540541 1.486486 24.324325-1.891891 3.783783-8.513513 10.405405-10.135135 11.486486-1.621621 1.081081 0 5.675676 3.513514 5.405406 3.513513-.270271 18.648648-4.72973 20.27027-4.864865s6.216216-3.918919 5.675676-5.540541c-.540541-1.621622-.945946-4.594594-3.243243-10.675676-2.297298-6.081081-5.540541-20.54054-5.540541-20.54054z" fill="#dba89c"/><path d="m191.081081 194c-8.243243 11.621622-14.72973 9.324324-16.351351 13.378378-1.621622 4.054054 3.378378 5.945946 8.513513 6.081081 5.838919-.053383 11.530269-1.840749 16.351352-5.135135 7.162162-5.135135 12.162162-1.081081 15.405405-4.459459 1.081081-.945946.27027-11.081081-1.621622-11.891892s-1.216216 4.594595-5.27027 7.027027-8.243243 3.918919-8.648649 1.756757c-.405405-2.162162-5.675675-10.540541-8.378378-6.756757z" fill="#2e2d2c"/><path d="m184.594595 107.783784c-9.18919 1.891892-12.297298 14.054054-9.72973 20 2.567567 5.945946 9.864865 40.135135 13.108108 59.324324 12.972973 1.486487 19.864865-3.513513 19.864865-3.513513s-5.540541-26.621622-8.513514-55.405406c-.27027-1.756757 2.432433-.405405 7.567568.945946 8.377652 2.150963 17.162889 2.150963 25.54054 0 13.378379-3.513513 7.027027-20.405405-2.162162-25.405405-4.459459-2.432433-5.27027 1.351351-5.27027 1.351351z" fill="#fff"/><path d="m231.081081 104.27027c2.432433 4.594595 2.972973 16.351352-1.756757 18.783784-4.729729 2.432432-20.54054-1.621622-25.675675-4.459459-5.135135-2.837838-9.054054-9.594595-8.918919-6.216217.135135 3.378379 6.486486 12.027027 5 9.324325-.270271-.675676-9.594595-5.675676-9.594595-5.675676s6.216216 5.135135 5.405406 7.027027c-.810811 1.891892-4.72973.135135-5.945946-.27027-1.216217-.405406 5.405405 3.783784 5.405405 3.783784l-5.540541 3.783783s7.567568.945946 5.945946 3.918919c-1.621621 2.972973 12.567568 43.513514 10.135136 46.621622-3.783784 5.27027-4.054055 4.594594-9.054055 6.081081l15.675676-4.324324c-.752818-16.184022-3.894916-32.167741-9.324324-47.432433-1.756757-4.324324 6.621621-3.513513 11.351351-2.297297s27.297297 4.459459 28.648649-10.405405c.811626-8.156396-2.179319-16.231947-8.108108-21.891892z" fill="#dbe0e5"/><path d="m185.810811 93.1891892c-3.648649-4.8648649-7.972973-11.7567568-10-15-2.027027-3.2432433-6.621622-16.0810811-9.324325-22.2972973.810811-5.4054054 6.621622-9.7297297 6.486487-9.8648649-.135135-.1351351.405405 4.5945946 9.864865 5.4054054 5.27027.2702703 13.108108-8.3783783 14.864865-12.5675675 1.756756-4.1891892 0-5.945946.675675-5.8108108 3.918919 1.3513513 17.027027 7.5675675 17.027027 7.5675675s10.675676 6.2162162 13.648649 17.4324325c.675676 2.5675675 5.810811 19.3243243 15.540541 53.6486489.405405 1.621621-7.567568 5.405405-21.081081-1.891892-15.540541-12.9729732-36.486487-7.432433-36.486487-7.432433-.135135-3.2432429 2.027027-4.5945942-1.216216-9.1891888" fill="#151823"/><path d="m198.378378 33.0540541c1.621622.9459459 20.540541 4.1891891 24.324325 10.2702702 3.783783 6.0810811 11.621621 27.8378379 13.243243 38.6486487s9.189189 25.540541 7.162162 27.567568-17.432432-5.540541-16.621622-5.540541c.810811 0 1.621622 1.621622 0 0-1.621621-1.621622.675676 2.972973-2.837837-2.027027-3.513514-5-1.081081-.405405.54054-.540541 3.689129-.312192 7.028887-2.3060768 9.054054-5.405405-.27027-6.4864865-3.783784-20.9459459-6.081081-27.2972973-3.783784-10.2702702-10.27027-17.8378378-12.972973-22.027027s-12.702703-5.9459459-17.027027-6.2162162" fill="#2b2d31"/><path d="m181.891892 76.7027027-11.351351-31.8918919c-5.540541 1.7567568-6.081082 4.5945946-8.243244 14.0540541-1.04791 5.4283245-2.539399 10.7615279-4.459459 15.9459459-1.081081 2.7027027 16.351351 12.972973 16.351351 12.972973z" fill="#151823"/><path d="m161.486486 32.6486486c8.378379 14.0540541 10.675676 11.8918919 15.540541 9.7297298 2.263029-1.1866991 4.244682-2.8457578 5.810811-4.8648649 3.524643-5.4015512 4.41869-12.1069052 2.432432-18.2432432-2.972973-9.0540541-11.216216-13.91891895-19.324324-9.59459462-8.108108 4.32432432-11.891892 11.89189192-7.027027 18.51351352" fill="#dba89c"/><path d="m159.72973 15.3513514c2.972973 4.3243243 10.810811-.2702703 13.918919-.4054055 2.249213.1297481 4.369256 1.0934039 5.945946 2.7027027.27027.2702703.27027-.4054054.675675-1.081081.405406-.6756757.810811-1.4864865 1.891892-1.0810811s3.243243 6.2162162 2.297297 7.1621621c-.945945.945946 2.027027 5.6756757 3.648649 7.1621622s7.027027-5.6756757 7.027027-5.6756757-4.72973-.8108108-7.972973-11.3513513c-3.243243-10.54054056-18.108108-13.51351353-26.216216-6.89189191-8.108108 6.62162161-1.216216 9.45945951-1.216216 9.45945951" fill="#ce926a"/><path d="m160.405405 11.5675676c.309289 1.9666012.900982 3.8782251 1.756757 5.6756756-2.060112.8336151-3.628066 2.5605888-4.259419 4.6914035-.631352 2.1308147-.257283 4.4332025 1.016176 6.2545425.940215 1.4362956 1.797472 2.9252158 2.567567 4.4594594l-3.783783-4.1891891c-.810811-.8108109-4.594595-4.4594595-4.189189-8.1081081.405405-3.6486487-3.243244-11.08108113 6.756756-14.0540541.675676-.13513514-.27027 2.56756756.135135 5.2702703" fill="#ce926a"/><path d="m168.648649 34.6756757c-1.794299.7573773-2.963971 2.5118851-2.972973 4.4594594.308339 1.2904153.909428 2.4925928 1.756756 3.5135135 0 0-.81081-2.8378378.810811-3.3783783.671003-.2656831 1.239294-.7392585 1.621622-1.3513514z" fill="#ce926a"/><path d="m168.648649 34.6756757c1.894525-.6266595 3.947464-.5789167 5.81081.1351351 1.351352.5405406 1.891892 4.1891892 1.891892 4.1891892s-1.891892-1.8918919-3.378378-1.4864865c-1.01703.2540452-2.059941.3900772-3.108108.4054054z" fill="#ce926a"/><path d="m172.162162 40.0810811c-1.351351.9459459-5 0-6.216216-1.2162162-1.216216-1.2162163 3.783784 9.8648648 4.864865 10.8108108 1.081081.9459459 6.621621 3.2432432 6.756757 2.4324324.135135-.8108108-5.405406-12.027027-5.405406-12.027027" fill="#ce926a"/><path d="m185.135135 22.7837838c1.216216 2.7027027 3.648649 8.9189189 4.189189 10.5405405.540541 1.6216216-2.297297 9.5945946-3.378378 11.6216216-1.081081 2.0270271-8.648649 7.5675676-8.648649 7.5675676l-6.081081-12.1621621s4.864865-2.5675676 5.675676-3.7837838 4.594594-6.4864865 5.135135-9.8648649-2.297297-7.1621622-2.297297-8.3783784 2.162162.8108108 2.972973 3.5135135 2.432432.945946 2.432432.945946" fill="#ce926a"/><path d="m224.459459 50.6216216c2.972973 30.6756757.810811 37.7027027-.135135 41.8918919l-1.486486 5.8108108c-3.243243 4.8648647-25.945946-3.7837838-36.081081-10.6756757-6.486487-4.4594594 2.027027-7.2972972 2.027027-7.2972972 6.216216 1.6216216 14.054054 2.4324324 20.675675 3.9189189 2.432433.5405405-3.918918-8.9189189-2.162162-31.7567568.405406-5.1351351 17.162162-1.8918919 17.162162-1.8918919z" fill="#dba89c"/><path d="m189.459459 79.5405405c-1.247231-1.5340794-2.376582-3.1603444-3.378378-4.8648648-.810811-1.2162162-3.378378-1.8918919-5-3.9189189-1.621622-2.0270271-1.891892-1.0810811-1.756757.1351351s1.621622 2.1621622 2.162162 3.5135135c.540541 1.3513514-4.189189-.1351351-5.405405-.6756757-1.216216-.5405405-7.972973-2.1621621-8.108108-1.3513513s7.432432 2.8378378 7.162162 3.3783784c-.27027.5405405-1.891892-.2702703-3.918919-.8108109-2.027027-.5405405-4.459459-1.2162162-4.459459-.6756756 0 .5405405 6.756757 2.9729729 7.297297 4.1891892l-3.513513-.945946c-1.621622-.5405405-3.108109-1.3513513-3.513514-1.0810811-2.567568 1.7567568 8.378378 3.2432433 7.567568 4.4594595-.810811 1.2162162-1.621622.1351351-2.972973-.1351351-1.351352-.2702703-2.972973-.6756757-2.972973 0 0 .6756756 6.756756 2.5675675 6.756756 2.5675675 2.662606 1.9136451 5.7887 3.0800981 9.054054 3.3783784 2.027027.1351351 10.270271 5.6756757 10.270271 5.6756757l1.351351-9.0540541s-4.864865-1.8918919-6.621622-3.7837838" fill="#dba89c"/><path d="m212.432432 40.0810811c9.594595.5405405 12.972973 12.1621621 13.918919 16.0810811.945946 3.9189189 2.567568 23.6486486 1.756757 23.7837837-.810811.1351352-22.567567-.4054054-22.432432-2.5675675.135135-2.1621622-3.783784-23.5135135-2.567568-28.1081081 0 0 .135135-9.5945946 9.324324-9.1891892z" fill="#151823"/><path d="m138.918919 207.648649c6.216216-1.351352-9.594595-12.432433-8.918919-18.108108 1.756757-14.864865 10.27027-46.486487 14.054054-55.270271 2.162162-5-24.054054-15.27027-24.72973 1.351352-6.351351 9.864864-.945946 51.621621-.945946 51.621621-1.351351 4.864865-7.027027 10.675676-4.594594 12.567568 2.432432 1.891892 7.837838 5.27027 9.864865 4.054054s4.324324.675676 7.702702 1.891892c3.378379 1.216216 6.216217 2.297297 7.567568 1.891892" fill="#dba89c"/><path d="m112.027027 200.756757c-1.891892.675675-2.297297 1.621621-.810811 2.837838 1.486487 1.216216 8.243243 2.702702 9.594595 1.756756 1.351351-.945946 5.27027 1.891892 7.837838 3.243244 5.81081 2.837837 16.216216 2.162162 17.297297-2.027027 1.081081-4.18919-2.297297-.810811-9.864865-9.864865-2.702703-3.243244-5.135135 5.675675-7.702703 6.486486-2.567567.810811-16.351351-2.432432-16.351351-2.432432z" fill="#2e2d2c"/><path d="m111.756757 209.27027c-.405406-.675675-7.027027-11.216216-5.270271-17.027027 4.864865-15.810811 19.45946-48.918919 26.891892-55.54054 4.18919-3.918919-12.702702-24.594595-20.675675-8.918919-10.405406 6.621621-17.702703 60.405405-17.702703 60.405405-3.5135135 4.054054-5.9459459 6.891892-5.8108108 9.324325.1351351 2.432432 3.3783784 5 5.8108108 4.729729 2.4324324-.27027 5.27027 7.162162 10.135135 8.783784s8.243243.810811 6.621622-1.756757" fill="#dba89c"/><path d="m87.5675676 196.432432c-.6756757 1.081082-1.7567568 2.702703-.1351352 4.45946 1.6216217 1.756757 2.2972973 2.567567 4.0540541 2.837838 1.7567567.27027 5 4.864865 7.027027 7.027027 2.0270275 2.162162 9.4594595 8.108108 17.4324325 5.27027 3.243243-1.216216-5.135135-12.027027-6.621622-14.054054-1.486486-2.027027-8.378378 6.351351-10.9459456 5.135135-6.3513514-2.972973-10.8108108-10.675676-10.8108108-10.675676z" fill="#2e2d2c"/><path d="m72.4324324 100.081081s34.0540536-3.3783783 39.4594596-1.8918918c2.702703.6756757 9.054054.4054054 12.567567 9.3243248l16.756757 5.27027c5.945946 2.837838 4.324325 9.054054 5.540541 17.027027.54054 3.108108-1.486487 40.27027-1.486487 40.27027s-.54054-8.108108-9.594594-6.486486c-.270271 0-2.432433 1.486486-2.837838 1.486486-1.079743.163378-2.180835.117499-3.243243-.135135-1.006793-.313781-2.077881-.36035-3.108109-.135135-1.466046.40325-2.874031.993695-4.189189 1.756757-2.027027 1.216216-4.324324 2.702702-6.351351 3.648648-14.45946 7.162162-28.3783784 7.702703-28.6486487 6.486487-.2702703-1.216217 2.2972973-29.72973 1.3513513-35.675676-.2702702-2.297297 1.0810811-4.459459-.6756756-6.081081-9.8648649-1.756757-17.4324325-3.648649-20.1351352-7.297297-5.6756756-7.702703-1.6216216-20.675676 4.5945946-27.567568" fill="#1d1d1b"/><path d="m108.783784 118.459459c4.054054-3.243243 8.648648-2.702702 12.027027-2.162162 3.378378.540541 4.189189.810811 4.864865 0 4.864865-5 13.108108-4.189189 15.945946-3.243243-12.702703-5.135135-17.027027-7.702703-22.162163-7.702703-5.135135 0-28.9189185 2.162163-32.5675671 4.45946-3.6486487 2.297297 21.8918921 8.648648 21.8918921 8.648648" fill="#2e2d2c"/><path d="m175.135135 38.0540541c-.532257-.3218324-1.135644-.50749-1.756757-.5405406h-.405405l-2.702703.4054054h-.405405l-1.216216-3.2432432h.27027c.694024-.2397239 1.430483-.3317812 2.162162-.2702703 1.152409-.075359 2.307013.1093777 3.378378.5405405.675676.2702703 1.216217 1.6216217 1.486487 2.7027027l-.810811.5405406" fill="#ce926a"/><path d="m125.27027 53.4594595c2.972973 2.4324324 5 3.7837837 5.675676 6.7567567s8.378378 27.1621622 8.648649 33.2432433c.27027 6.081081-2.972973 10.8108105-7.432433 10.4054055-4.459459-.405406-5.135135-.945946-10.945946-15.5405407-5.810811-14.5945946 4.054054-34.8648648 4.054054-34.8648648" fill="#b90066"/><path d="m132.972973 36.972973c-1.756757 1.7567567-2.837838 3.3783784-2.702703 4.1891892s1.486487 4.054054-.405405 3.7837837c-.711909.1369198-1.246453.7297255-1.309256 1.4519566s.361395 1.3984058 1.038986 1.6561516c.675675.1351351-1.486487 2.027027-3.513514 1.7567567s-1.081081.4054054-1.216216.945946c-.135135.5405405-.540541 1.3513513-2.567568.8108108-2.027027-.5405406-3.513513.2702702-4.054054-4.8648649-.54054-5.1351351 2.162162-15.8108108 3.108108-16.4864865s7.432433-10.4054054 10.675676-7.8378378c3.243243 2.5675675.945946 14.5945946.945946 14.5945946" fill="#c6c6c6"/><path d="m120.945946 40.7567568c-2.432432 2.9729729-2.432432 9.7297297-3.243243 16.6216216-.405406 4.3243243-8.378379.5405405-10.135135-.4054054-1.756757-.945946-8.6486491-15-8.6486491-15s7.2972971-7.8378379 9.3243241-15.2702703c.810811-2.8378378 12.702703 14.0540541 12.702703 14.0540541" fill="#dba89c"/><path d="m103.918919 24.8108108c-2.432433 2.5675676-.810811 6.0810811-.945946 7.972973s-2.027027 2.7027027-1.621622 3.6486486c.405406.945946-8.2432429 8.7837838-7.8378375 9.5945946s-15.1351351.1351352-12.972973-1.3513513c5.4054054-3.7837838 3.7837838-3.2432433 3.7837838-3.2432433s-7.4324324-.4054054-3.2432432-1.7567567c1.6216216-.5405406 6.8918919-3.9189189 7.1621621-5.2702703 1.0810811-9.1891892 4.1891892-7.4324324 5.5405406-8.6486486 1.3513513-1.2162163 4.1891892-5.1351352 6.3513512-8.5135136 2.162162-3.3783783 3.783784 7.5675676 3.783784 7.5675676" fill="#bec4d3"/><path d="m107.702703 51.5675676c2.567567 3.9189189 4.729729 5.1351351 5.810811 6.6216216 1.081081 1.4864865 1.216216 7.027027 1.216216 8.7837838 0 1.7567567-6.351352 1.4864865-9.864865-2.4324325-3.513514-3.9189189-10.6756758-14.4594594-10.4054055-18.1081081.2702702-3.6486486 13.2432435 5.1351352 13.2432435 5.1351352" fill="#fff"/><path d="m114.864865 68.8648649c.54054-4.3243244-1.756757-9.5945946-.675676-10.1351352 1.081081-.5405405 3.243243-6.7567567 3.243243-8.5135135 0-1.7567567 4.054054 5.4054054 4.18919 8.1081081.135135 2.7027027-6.756757 10.5405406-6.756757 10.5405406" fill="#fff"/><path d="m106.621622 21.027027c1.081081-7.4324324.675675-14.86486484 12.162162-13.10810808 2.128677.29398166 4.215195.83829068 6.216216 1.62162162l2.162162-.27027027c2.432433.81081083 3.783784 2.83783783 4.594595 6.48648653.810811 3.6486486-1.081081 13.5135135-3.243243 18.2432432-2.162163 4.7297297-2.837838 7.5675676-6.756757 10.8108108-1.923809 1.2293697-4.231799 1.7102012-6.486487 1.3513514-8.108108-1.3513514-10.54054-8.7837838-10.54054-15.4054054-1.351352-.945946-2.432433-3.918919-2.297298-6.2162163.135136-2.2972973 1.756757-5.4054054 4.18919-3.5135135" fill="#dba89c"/><path d="m127.027027 21.5675676c3.513514-.945946 6.216216 5.6756756 5 6.7567567s-1.756757 1.6216216-.945946 2.972973c.810811 1.3513513.810811 1.6216216-.135135 1.8918919s-.675676 3.2432432-.675676 3.2432432 3.378379 1.8918919 2.162162 3.1081081c-1.216216 1.2162163-3.783783 1.2162163-2.297297 1.3513514 1.486487.1351351 5.945946 0 6.081081-2.4324324.135135-2.4324325-1.351351-2.8378379-.27027-4.8648649s1.081081-.4054054 1.216216-3.5135135-.945946-3.5135135-1.081081-5 1.756757-1.3513514.540541-5.945946c-.675676-2.2972973-1.216217-2.2972973-2.837838-6.081081-1.621622-3.78378383-8.918919-7.02702707-10.810811-4.18918924 1.105695 4.30874514 2.4593 8.55004014 4.054054 12.70270274" fill="#bec4d3"/><path d="m117.702703 107.243243s-53.7837841 10-52.4324327 5.810811c3.7837838-11.216216 7.7027027-21.2162162 9.054054-25.8108108 1.3513514-4.5945946-4.8648648-36.2162162 7.2972973-41.4864864 4.1891892-1.7567568 11.2162162-6.0810811 16.2162162-7.7027027 0 0 4.5945942 10.9459459 6.3513512 15.8108108 1.756757 4.8648648 4.72973 11.8918919 12.837838 10.6756756 1.081081 3.5135136.675676 42.7027025.675676 42.7027025" fill="#e0006d"/><path d="m125.810811 55.0810811c-4.72973-3.9189189-5.405406-6.2162162-5.540541-6.3513514 1.216216 15.8108108-5.810811 15-5.810811 15.945946-.27027 7.2972973 5.135136 9.5945946-1.216216 30.8108108 0 0 .675676 12.2972975 1.081081 12.2972975.405406 0 7.432433.675675 10.810811-1.621622l-.54054-1.756757-1.216217-4.189189h-.27027c-4.324324-14.189189 2.837838-12.0270268 3.378378-24.9999998.135136-2.7027027-.405405-12.972973-.405405-12.972973s1.216216-5.9459459-.27027-7.027027" fill="#e0006d"/><path d="m118.918919 46.027027c1.081081 1.3513514 3.243243 8.3783784 3.378378 8.9189189.135135.5405406.675676 6.8918919.675676 6.8918919s-1.486487-6.8918919-3.918919-5.9459459c-2.432432.9459459-2.567568-.2702703-2.567568-.2702703s.135136-6.7567567.945946-7.8378378z" fill="#fff"/><path d="m127.027027 21.5675676c-2.162162-.945946-5-3.2432433-8.918919-1.3513514s-6.351351 5.2702703-6.351351 5.2702703-1.486487 2.1621621-2.432433 2.1621621-1.216216-3.3783783-2.972973-1.7567567c-1.756756 1.6216216-1.216216 5.6756757-2.297297 7.2972973s-3.378378 1.3513513-3.513513 2.2972973c-.405406 4.1891892-3.3783788 3.7837838-3.7837842 3.9189189s-.2702703.2702703-4.5945946 2.972973c-1.7567568 1.0810811-6.6216217-.1351352-6.6216217-.1351352 5.945946 1.8918919 13.5135136-10.6756756 14.0540541-13.3783783.5405404-2.7027027-1.6216216-2.7027027-1.4864865-5.945946.1351351-3.2432432 1.6216216-5.2702703 3.1081079-7.4324324 1.660299-3.0983018 4.198996-5.63699893 7.297298-7.29729731 4.324324-2.02702703 9.729729-4.5945946 15.945945-.54054054 1.891892 1.21621621 2.567568 13.91891895 2.567568 13.91891895" fill="#bec4d3"/><path d="m138.783784 101.567568c-1.469319.841534-3.067322 1.435078-4.72973 1.756756-1.081081 0-4.72973-1.081081-5.405405-2.702702-.675676-1.621622.675675-1.3513517 2.567567-1.0810815 2.563048.5141205 5.0907 1.1911705 7.567568 2.0270275" fill="#d9a799"/><path d="m147.162162 72.3783784c.554845.1922023.854821.7921537.675676 1.3513513l-2.567568 25.1351352c.038171.2871223-.040471.5775534-.218298.806188-.177827.2286347-.439964.3763481-.727648.4100281l-35.81081 2.702703c-.810811.135135-1.351352-.540541-1.351352-1.351352l1.891892-26.7567563c.034254-.3948868.2248-.7597392.5293-1.0134889s.697731-.375379 1.092322-.3378625z" fill="#1d1d1b"/><path d="m98.2432432 91.4324324c-.5405405-1.081081 1.3513514-3.6486486 2.2972978-5.8108108 0 0 6.216216-2.8378378 10.81081-2.972973 1.398214.1534444 2.765092.517945 4.054054 1.0810811 1.756757.4054054 1.891892 1.4864865.135136 1.4864865-1.003336-.0196926-2.000998-.1557374-2.972973-.4054054l-2.432433.2702703h2.432433l3.918918.9459459c1.081082.1351352 1.486487 1.2162162 0 1.3513514-1.127925.0415775-2.257377-.0036006-3.378378-.1351352h-3.243243c2.432432.1351352 5.810811 0 6.621621.5405406.810811.5405405.405406 1.7567567-1.216216 1.3513513-1.791293-.3351155-3.633095-.2890705-5.405405.1351352h4.459459s1.486487.9459459-.675675 1.0810811c-5.270271.6756756-9.324325 1.8918918-11.081081 1.6216216-1.756757-.2702703-3.9189194.1351351-4.3243248-.6756757" fill="#d9a799"/><path d="m94.7297297 93.5945946c-.2702702-1.7567568 1.0810811-8.2432432 3.6486487-9.5945946.9250131.2545158 1.8785606.3907369 2.8378376.4054054 0 0 1.486487 2.8378378-1.3513511 10.4054054z" fill="#f0f0f0"/><path d="m126.486486 72.9189189c0-3.9189189-.405405-10.8108108-.405405-10.8108108s1.216216-5.9459459-.27027-7.027027l-.405406-.4054054.810811-.4054054c2.567568 1.8918919 4.189189 3.2432432 4.72973 5.9459459.54054 2.7027027 1.891892 6.4864865 3.648649 12.4324324z" fill="#b90066"/><path d="m123.648649 51.7027027h-1.621622c-.813047-.7307569-1.419007-1.6630025-1.756757-2.7027027v.2702703c-.342959-1.0154035-.749159-2.008337-1.216216-2.972973l2.702703-1.2162162c3.918919-3.2432433 4.459459-5.945946 6.756757-10.8108108 1.390465-2.9663015 2.389813-6.100621 2.972972-9.3243244.810811 1.4864865 1.081082 3.2432433.540541 3.6486487s-1.756757 1.6216216-.945946 2.972973c.810811 1.3513513.810811 1.6216216-.135135 1.8918919-.945946.2702702-.675676 3.2432432-.675676 3.2432432.677206.4331646 1.310803.9309907 1.891892 1.4864865h-.135135c-.753698.6464745-1.31476 1.4880667-1.621622 2.4324324-.675675.2702703-1.081081.2702703-.27027.4054054h.135135v.2702703c.270271.6756757 1.351352 3.7837838-.27027 3.7837838h-.27027c-.697961.1730602-1.19859.7851041-1.229826 1.5035211-.031235.7184169.414384 1.3716021 1.094691 1.604587.675675.1351351-1.216217 1.7567567-3.243244 1.7567567h-.54054c-.675676 0-.810811.5405406-.945946.945946-.03368.2876837-.181394.5498202-.410028.7276472-.228635.177827-.519066.2564696-.806188.2182987" fill="#bec4d3"/><path d="m104.72973 59.4054054s-9.0540543-16.3513513-9.0540543-18.2432432c.060867-.546936.3568635-1.0402636.8108108-1.3513514 1.8918919 4.5945946 5.5405405 6.7567568 6.7567565 6.7567568h.135135c-.945946 0-5.5405402-7.1621622-1.756756-7.4324325h.27027c1.709287 3.8770501 3.696442 7.625546 5.945946 11.2162163 1.081081 1.6216216 1.891892 2.7027027 2.297297 2.7027027l-.945946.5405405c-1.300249 1.1961975-2.436262 2.5594128-3.378378 4.054054-.401344.5593548-.762606 1.1464063-1.081081 1.7567568" fill="#fff"/><path d="m122.972973 61.8378378s-1.081081-4.8648648-2.837838-5.8108108l-.675676-.2702702h-.405405l-1.486486.2702702c-.945946 0-1.081082-.5405405-1.081082-.5405405.009577-.6326639.054693-1.2642899.135136-1.8918919 0-2.1621622.27027-5.2702703.81081-5.945946l1.486487-1.6216216h.135135c.467057.964636.873257 1.9575695 1.216216 2.972973.945946 2.5675676 1.891892 5.6756757 2.027027 5.9459459.135135.2702703.675676 6.8918919.675676 6.8918919" fill="#fff"/><path d="m103.243243 46.5675676c-1.216216 0-4.8648646-2.1621622-6.7567565-6.7567568-.0781911-.0693093-.1266024-.1661319-.1351351-.2702703h.4054054c.4054054-.1351351 3.3783782.2702703 3.7837842-3.9189189.135135-.9459459 2.162162-.2702702 3.513513-2.2972973.450229-.8368125.72606-1.7562468.810811-2.7027027v.945946c.282467.7331629.329697 1.5360739.135135 2.2972973v.4054054c-.27027 2.1621621-1.216216 4.5945946-2.972973 5h-.27027c-3.783784.2702702.810811 7.4324324 1.756757 7.4324324h-.135136" fill="#c6c6c6"/><path d="m75.6756757 49.9459459c-4.0540541 3.918919-10.5405406 30-7.1621622 42.4324325 1.2162162 4.054054 29.4594595 5.6756757 29.4594595 5.6756757s3.648649-13.2432433 1.3513513-14.0540541c-10.1351351-3.2432432-16.2162162-4.5945946-16.2162162-4.5945946 3.6753767-4.9426457 6.1295707-10.6845335 7.1621622-16.7567568 2.2972973-18.5135135-10.2702703-17.1621621-14.5945946-12.7027027z" fill="#b90066"/><path d="m132.567568 101.972973c-.006579.32619.220862.610491.54054.675676.485038.183718 1.027559-.057403 1.216216-.540541.18641-.56666.277734-1.160269.270271-1.756757.135135-1.2162159-.270271-2.4324321-.675676-2.4324321s-.405405 1.4864865-.675676 2.5675671c-.14225.529173-.370519 1.031363-.675675 1.486487z" fill="#d9a799"/><path d="m134.054054 101.972973c.135135.675676 1.081081 1.351351 1.756757.675676.675675-.675676.54054-1.756757.675675-2.567568.135136-.8108107.135136-2.5675675-.54054-2.8378378-.675676-.2702702-.810811 1.3513514-.945946 2.2972973-.111902.8759045-.436684 1.7110575-.945946 2.4324325z" fill="#d9a799"/><path d="m136.081081 102.243243c.143596.359255.491489.594855.878378.594855.38689 0 .734783-.2356.878379-.594855.293145-.734711.47532-1.508957.54054-2.2972971 0-2.027027-.405405-3.2432432-.81081-3.2432432-.405406 0-.810811 2.2972973-.810811 3.1081081-.180734.8225172-.406296 1.6345392-.675676 2.4324322z" fill="#d9a799"/><path d="m137.837838 101.837838c.675676.135135 1.351351.54054 1.621621-.27027.25936-.558231.441222-1.149284.540541-1.7567572 0-1.2162162 0-2.5675676-.540541-2.5675676-.54054 0-.675675 1.0810811-.81081 2.0270271z" fill="#d9a799"/><path d="m100.945946 36.4324324c1.216216 4.5945946 7.972973 16.3513514 9.189189 16.6216217-2.432432 1.081081-5.405405 6.3513513-5.405405 6.3513513s-9.0540543-16.3513513-9.0540543-18.2432432 5.2702703-4.7297298 5.2702703-4.7297298" fill="#f8f8f8"/><path d="m103.378378 28.1891892c0 1.0810811.405406-.1351351.810811-1.3513514.405406-1.2162162.810811-2.027027.945946-1.6216216l-.405405 6.2162162c.675675.8108108-.135135 7.5675676-3.108108 7.7027027-2.9729734.1351352.81081 7.4324325 1.756756 7.4324325-1.351351.1351351-5.6756753-2.5675676-7.4324321-8.1081081-.5405405-1.8918919 2.7027027-5.2702703 3.3783784-7.2972973.6756757-2.0270271 4.0540537-2.972973 4.0540537-2.972973" fill="#bec4d3"/></g></g></g></svg>