<svg height="400" viewBox="0 0 1200 400" width="1200" xmlns="http://www.w3.org/2000/svg" xmlns:xlink="http://www.w3.org/1999/xlink"><defs><path id="a" d="m0 239.8v160.4h1200v-160.4z"/><filter id="b" height="149.3%" width="106.6%" x="-2.7%" y="-22.8%"><feMorphology in="SourceAlpha" operator="dilate" radius="6" result="shadowSpreadOuter1"/><feOffset dx="7" dy="3" in="shadowSpreadOuter1" result="shadowOffsetOuter1"/><feGaussianBlur in="shadowOffsetOuter1" result="shadowBlurOuter1" stdDeviation="6"/><feColorMatrix in="shadowBlurOuter1" type="matrix" values="0 0 0 0 0   0 0 0 0 0   0 0 0 0 0  0 0 0 0.139690897 0"/></filter></defs><g fill="none" fill-rule="evenodd"><path d="m.7.2v400h1200v-400z" fill="#fefefe" fill-rule="nonzero"/><g transform="translate(289 20)"><g fill="#92d2f4" fill-rule="nonzero" transform="translate(398)"><path d="m29.0557692 28.56c-2.6790093-.1974003-5.2123238 1.2463067-6.4171884 3.6570825-1.2048647 2.4107758-.8436344 5.3131239.9150395 7.3519947 1.7586738 2.0388709 4.567914 2.8121217 7.1161412 1.9587369s4.3328343-3.1650855 4.5206231-5.8558141c.2556377-3.6628993-2.4876695-6.8432781-6.1346154-7.112"/><path d="m30.2826923 13.72c-7.4621556-.538325-14.7000028 2.6964748-19.2961538 8.624-.8633754.8715187-1.15162617 2.1634355-.7410982 3.3215429.4105279 1.1581074 1.4468748 1.9765846 2.6644678 2.1043205 1.2175929.1277359 2.4000391-.4579709 3.0400919-1.5058634 3.1644028-4.1455825 8.143196-6.4812799 13.3401782-6.2582677 5.1969822.2230123 9.959176 2.9767138 12.7598218 7.3782677.5902964.8796998 1.5653303 1.4213122 2.6211538 1.456.622377.0123391 1.2309689-.1847932 1.7288462-.56.7079333-.4484063 1.2069883-1.1633907 1.3852291-1.9845854s.0207484-1.6798649-.4371522-2.3834146c-3.7799476-5.8987279-10.0990814-9.6727191-17.0653846-10.192"/><path d="m31.3423077.112c-10.4288462-.84-22.19615385 3.92-30.05961539 12.096-.77705278.8102783-1.06458215 1.9752745-.75427856 3.0561457s1.17129763 1.9134074 2.25865397 2.1840002c1.08735633.2705927 2.23587965-.0618674 3.01293228-.8721459 6.6365385-6.832 16.4519231-10.808 25.0403846-10.192 8.5884616.616 16.0615385 4.48 21.1365385 11.312.5966177.8215546 1.5528787 1.3016636 2.5653846 1.288.6785607-.0140168 1.3380084-.2282504 1.8961538-.616.6742551-.5114793 1.1179503-1.2714833 1.2330592-2.1121028s-.1078427-1.6926668-.6195976-2.3678972c-6.1903846-8.344-14.8346154-12.992-25.7096154-13.776"/></g><g stroke="#92d2f4" stroke-width=".75"><path d="m427 36 29 100"/><path d="m0 328 456-193"/><path d="m456 135-81 134"/><path d="m409 213 39 42"/></g><g transform="translate(223 128)"><path d="m225.894522 122.61256c-2.691984-.197536-5.237567 1.247167-6.448267 3.659607-1.2107 2.412439-.84772 5.31679.919471 7.357068s4.590037 2.814063 7.150605 1.960089c2.560569-.853974 4.353819-3.16727 4.542517-5.859855.256876-3.665428-2.499717-6.848001-6.164326-7.116909" fill="#92d2f4" fill-rule="nonzero"/><path d="m225.894522 122.61256c-2.691984-.197536-5.237567 1.247167-6.448267 3.659607-1.2107 2.412439-.84772 5.31679.919471 7.357068s4.590037 2.814063 7.150605 1.960089c2.560569-.853974 4.353819-3.16727 4.542517-5.859855.256876-3.665428-2.499717-6.848001-6.164326-7.116909z" stroke="#92d2f4" stroke-width=".75"/><path d="m233.347753.22415459c-2.689602-.21834361-5.245704 1.20570485-6.475488 3.60760585-1.229783 2.401901-.890834 5.30819226.858676 7.36263806 1.749511 2.0544458 4.564718 2.8520741 7.131892 2.0206677 2.567174-.8314065 4.380274-3.127961 4.593206-5.81796475.290211-3.66625752-2.442576-6.87536218-6.108286-7.17294686" fill="#92d2f4" fill-rule="nonzero"/><path d="m233.347753.22415459c-2.689602-.21834361-5.245704 1.20570485-6.475488 3.60760585-1.229783 2.401901-.890834 5.30819226.858676 7.36263806 1.749511 2.0544458 4.564718 2.8520741 7.131892 2.0206677 2.567174-.8314065 4.380274-3.127961 4.593206-5.81796475.290211-3.66625752-2.442576-6.87536218-6.108286-7.17294686z" stroke="#92d2f4" stroke-width=".75"/><path d="m150.913904 134.100483c-3.668349-.266886-6.86018 2.486658-7.134063 6.154448-.273882 3.667789 2.473604 6.864826 6.140909 7.145698s6.869613-2.46048 7.15748-6.127199c.138943-1.769787-.433515-3.521928-1.590566-4.868298-1.157052-1.346371-2.803186-2.175833-4.57376-2.304649" fill="#92d2f4" fill-rule="nonzero"/><path d="m150.913904 134.100483c-3.668349-.266886-6.86018 2.486658-7.134063 6.154448-.273882 3.667789 2.473604 6.864826 6.140909 7.145698s6.869613-2.46048 7.15748-6.127199c.138943-1.769787-.433515-3.521928-1.590566-4.868298-1.157052-1.346371-2.803186-2.175833-4.57376-2.304649z" stroke="#92d2f4" stroke-width=".75"/><path d="m232.283006 8.62995169 166.716994 75.54009661" stroke="#92d2f4" stroke-width=".75"/><path d="m7.62134831 94.0888889c-3.66834977-.2668858-6.86018021 2.4866577-7.13406304 6.1544471-.27388284 3.66779 2.47360328 6.864826 6.14090866 7.145699 3.66730537.280872 6.86961287-2.46048 7.15748027-6.127199.1389427-1.769787-.4335155-3.5219278-1.5905668-4.8682986-1.1570514-1.3463707-2.80318516-2.1758328-4.57375909-2.3046485" fill="#92d2f4" fill-rule="nonzero"/><path d="m7.62134831 94.0888889c-3.66834977-.2668858-6.86018021 2.4866577-7.13406304 6.1544471-.27388284 3.66779 2.47360328 6.864826 6.14090866 7.145699 3.66730537.280872 6.86961287-2.46048 7.15748027-6.127199.1389427-1.769787-.4335155-3.5219278-1.5905668-4.8682986-1.1570514-1.3463707-2.80318516-2.1758328-4.57375909-2.3046485z" stroke="#92d2f4" stroke-width=".75"/><path d="m48.3058989 156.123671 166.6609551 75.540097" stroke="#92d2f4" stroke-width=".75"/><path d="m48.7542135 147.661836c-2.691984-.197537-5.2375676 1.247167-6.4482675 3.659606-1.2106998 2.41244-.8477201 5.316791.9194712 7.357069 1.7671912 2.040278 4.5900368 2.814062 7.1506052 1.960088 2.5605685-.853973 4.3538186-3.167269 4.5425169-5.859855.2568758-3.665427-2.4997175-6.848001-6.1643258-7.116908" fill="#92d2f4" fill-rule="nonzero"/><path d="m48.7542135 147.661836c-2.691984-.197537-5.2375676 1.247167-6.4482675 3.659606-1.2106998 2.41244-.8477201 5.316791.9194712 7.357069 1.7671912 2.040278 4.5900368 2.814062 7.1506052 1.960088 2.5605685-.853973 4.3538186-3.167269 4.5425169-5.859855.2568758-3.665427-2.4997175-6.848001-6.1643258-7.116908z" stroke="#92d2f4" stroke-width=".75"/></g></g><g fill-rule="nonzero"><g><use fill="#000" filter="url(#b)" xlink:href="#a"/><use fill="#f5f7fc" xlink:href="#a"/></g><g transform="translate(179 42)"><path d="m108.1 272.7h67.6l7.6-135h-82.8z" fill="#815245"/><path d="m90.5 122.4h102.8l-4.8 19.6h-93.2z" fill="#673328"/><path d="m99.9 285.3h84l-7.6-14.7h-68.8z" fill="#673328"/><path d="m99.9 285.3h84v7.94h-84z" fill="#815245"/><path d="m90.5 114.2h102.8v8.2h-102.8z" fill="#402a1b"/><path d="m143.6 136.1c2.5 1.5 6.1 3.2 7.4 5.5s6.2 8.6 4.4 10.6-8.3 3.3-10 1.3-5.7-6.4-5.6-8.5-1.6-5.7-1.6-5.7z" fill="#f8b174"/><path d="m149.4 147h.1l12.8 16.2c.138285.23868.378388.400764.651461.439774s.548955-.049361.748539-.239774c.393768-.422473.393768-1.077527 0-1.5l-12.7-16c-.337252-.488195-1.000923-.620929-1.5-.3-.331229.396484-.371513.960463-.1 1.4z" fill="#402a1b"/><path d="m149.9 147.6c.8 1.6 4.3 3.1 6.2 1.8s-4.9-4.1-5.9-4.8-3.7-.7-3.7-.7z" fill="#f8b174"/><path d="m79.4 38.1s.2 7.1 2.2 9.2c0 0-1.9 7.7-8 7.7v-16z" fill="#f8b174"/><path d="m67.8 38.1s-.2 7.1-2.2 9.2c0 0 1.9 7.7 8 7.7v-16z" fill="#f8b174"/><path d="m74.8 46.6c-3.2 0-5.8-2.6-7.3-4.9.1833448-1.1915932.2835867-2.3944959.3-3.6l5.8.9 5.8-.9c.0773863 2.0867097.3451649 4.1619934.8 6.2-1.4059991 1.4782559-3.3599107 2.3104775-5.4 2.3z" fill="#f29d56"/><path d="m95.6 280.2 8.4 10.4c2.6 3.3-1.2 10.7-8.4 6.9s-10.7-7.6-12.2-8.1-2.7-3.8-2.1-12.8z" fill="#1e2020"/><path d="m97.8 160.8-.4 119.4h-19.5l-2.6-102.8s-.1-5.7-1.7-6.7v-11.9z" fill="#333"/><path d="m51.6 280.2-8.4 10.4c-2.6 3.3 1.2 10.7 8.4 6.9s10.7-7.6 12.2-8.1 2.7-3.8 2.1-12.8z" fill="#1e2020"/><path d="m49.4 160.8.4 119.4h19.5l2.6-102.8s.4-6.1 1.7-6.7v-11.9z" fill="#333"/><path d="m87.6 49.2c3.3 1.8 15.5 4 16.1 10.2s-3.6 34.2-4.2 49.4.6 52 .6 52h-26.5v-105.8z" fill="#026a9d"/><path d="m59.6 49.2c-3.3 1.8-15.7 5.4-16.3 11.6s3.8 32.8 4.4 48-.6 52-.6 52h26.5v-105.8z" fill="#026a9d"/><path d="m89 49.7-15.1 38.6v-33.3l11.9-6.7z" fill="#fff"/><path d="m58.2 50 15.7 38.5v-33.5l-12.6-6.7z" fill="#fff"/><path d="m73.6 43.9c-5 0-9.9-6.2-11.2-13.5-.7021778.0894514-1.3958654-.2188542-1.8-.8-1.1-1.2-1.9-3.9-1.2-5.4s3.3-.8 3.3-.8-.3-11.7 10.9-11.7z" fill="#f8b174"/><path d="m73.6 43.9c5 0 9.9-6.2 11.2-13.5.7021778.0894514 1.3958654-.2188542 1.8-.8 1.1-1.2 1.9-3.9 1.2-5.4s-3.3-.8-3.3-.8.3-11.7-10.9-11.7z" fill="#f8b174"/><path d="m59.1 11.7c.5-5.8 3.6-10.9 14.5-11.1s14 5.3 14.5 11.1c.2327873 3.8671977-.1383295 7.7470548-1.1 11.5-2.2-.5-3.2 2.2-3.2 2.2.7-5.2-2.9-13-4.3-12-1.7541745 1.1787566-3.7906268 1.8690795-5.9 2-2.1093732-.1309205-4.1458255-.8212434-5.9-2-1.4-1-5 6.8-4.3 12 0 0-1-2.7-3.2-2.2-.9616705-3.7529452-1.3327873-7.6328023-1.1-11.5z" fill="#723d20"/><path d="m73.6 55 8-8.9 6 3.1-7.4 11.6z" fill="#ebf5fc"/><path d="m73.6 55-8-8.9-6 3.1 7.4 11.6z" fill="#ebf5fc"/><path d="m38.2 77.4c0-.7-.1-1.3-.1-2-.3-12.8 7.9-19.1 7.9-19.1l-.2 21.1z" fill="#026a9d"/><path d="m29.82274 75.661366h32.5v51.49h-32.5z" fill="#fff" transform="matrix(.9909832 -.13398619 .13398619 .9909832 -13.171623 7.087472)"/><path d="m29.7 101.5c1.9 3.4 5.5 1 6.7 1.9s1.3 6.9-.9 9.3-2.7 1.2-4.1 1.1c-5-.3-6.3-14.4-2.2-15.5z" fill="#f8b174"/><path d="m97.8 88.5s7.1 13.1 16 26.4 22.9 29.2 22.9 29.2l9.9-8.2-23.4-34.4-20.9-45.2z" fill="#026a9d"/><path d="m207.7 225.8s-.2-7.4-.8-8.6-1.9-7.1-.9-9.2 2.2-3.7 3.4-6.1 3.1-5.4 5.1-4.3 4 6.1 4.6 7.7.3 8.2 0 10.6-3.9 7.7-3.9 11.7-7.5-1.8-7.5-1.8z" fill="#f8b174"/><path d="m205.6 269.3c7.1.4 10.8-2.6 11.1-12s.9-30.7.9-30.7l-14.6-1.8s-4.1 27.3-4.9 30.7-.7 13.4 7.5 13.8z" fill="#d52e1e"/><path d="m211.4 199.8c-.8-2.5-.7-8.5.9-7s4 9.1 4 9.1z" fill="#f8b174"/><path d="m213.9 205.3c-.662742 0-1.2-.537258-1.2-1.2v-25.8c0-.662742.537258-1.2 1.2-1.2s1.2.537258 1.2 1.2v25.8c0 .662742-.537258 1.2-1.2 1.2z" fill="#026a9d"/><path d="m212.5 199.8c1.4.9 4.2 3.4 3.8 6.5s-3.2 6.1-3.8 5.7 0-12.2 0-12.2z" fill="#f8b174"/><path d="m7.6 196.7c1.29267221-3.198592 2.39460478-6.470998 3.3-9.8.6-3 .9-3 0-6.4s-1.7-6-.6-7.1 1.5-3 2.9-3.2 1.1-3.4 3-3.7 2.7-3.3 5-3 2.4 2.7 2.4 9.2-1 10.4-2.3 12.2-4 10.6-4 10.6z" fill="#f8b174"/><path d="m18.8 259.8-18.6-31.8s3.4-29.4 4.3-33.7l12.8 1.2-1.2 27.3s2.8 10.1 17.4 16.2z" fill="#e16f0d"/><path d="m20.1 171.6c-.6627417 0-1.2-.537258-1.2-1.2l1-21.5c0-.662742.5372583-1.2 1.2-1.2.6389596.099439 1.1076914.653395 1.1 1.3l-.9 21.5c-.0925095.602726-.5915193 1.060152-1.2 1.1z" fill="#7fc6b1"/><path d="m18 177.8c1-1.6.9-9 2.6-9s1.3 5.9 1.4 7-1.4 5.9-1.4 5.9z" fill="#f8b174"/><path d="m11 289.1s2.4-29.2 1.9-39.1 9.6-11.9 19.3-11.5v-1.5h13.3v52.1z" fill="#e16f0d"/><path d="m34.3 231.9h11.1v5.12h-11.1z" fill="#cde5f5"/><path d="m79.9 289.1s-2.4-29.2-1.9-39.1-9.6-11.9-19.3-11.5v-1.5h-13.2v52.1z" fill="#e16f0d"/><path d="m45.5 231.9h11.1v5.12h-11.1z" fill="#cde5f5"/><path d="m45.5 189.5c-10.9 0-16.1 8.8-16.1 17.2s3.6 29 16.1 28.7z" fill="#673328"/><path d="m45.5 189.5c10.8 0 16 8.8 16 17.2s-3.6 29-16 28.7z" fill="#673328"/><path d="m142.9 289.1s.5-29.2 0-39.1 11.5-11.9 21.2-11.5v-1.5h13.3v52.1z" fill="#d52e1e"/><path d="m166.2 231.9h11.1v5.12h-11.1z" fill="#cde5f5"/><path d="m211.8 289.1s-.5-29.2 0-39.1-11.5-11.9-21.2-11.5v-1.5h-13.2v52.1z" fill="#d52e1e"/><path d="m177.4 231.9h11.1v5.12h-11.1z" fill="#cde5f5"/><path d="m177.4 193.7c-10.9 0-16.1 8.8-16.1 17.2s3.6 24.8 16.1 24.5z" fill="#402a1b"/><path d="m177.4 193.7c10.8 0 16 8.8 16 17.2s-3.6 24.8-16 24.5z" fill="#402a1b"/><path d="m165.4 190.3s-.7 2.3 13.9 2.3h1c14 .7 13 12.1 13 12.1.1 4-.5 6-1.1 10l-.3-1.9s-.3 0-.9-2.3v-.4c-.2-.6-.4-1.3-.7-2-3.8-9-12.8-6-12.8-6s-9-3-12.8 6c-.245609.652125-.446081 1.320368-.6 2-.1.1-.1.3-.2.4-.130586.794251-.365974 1.567666-.7 2.3l-.3 1.9c-.4-2.5-.9-3-1.1-5.5-1.7-13.3 3.6-18.9 3.6-18.9z" fill="#402a1b"/><path d="m122.7 239.3c0-4.1-1.9-7.4-4.3-7.4h-13.9c-2.4 0-4.3 3.3-4.3 7.4 0 4.2 1.9 7.5 4.3 7.5h13.9c2.4 0 4.3-3.3 4.3-7.5z" fill="#026a9d"/><path d="m81.1 289.4s2.4-26.9 3.7-36c1.8-12.6 18.3-13.4 18.3-13.4h8.3v49.4z" fill="#7fc6b1"/><path d="m141.7 289.4s-2.3-26.9-3.6-36c-1.8-12.6-18.4-13.4-18.4-13.4h-8.3v49.4z" fill="#7fc6b1"/><path d="m76.8 293.2c-.093555-.749555.1568109-1.501222.6811407-2.044971.5243298-.54375 1.2663988-.821275 2.0188593-.755029h12.8c.7863039-.02713 1.5498848.266385 2.1155646.813209s.8849033 1.300019.8844354 2.086791v21.5c.0019889.778594-.320303 1.522857-.8894998 2.054107-.5691967.531251-1.3338931.80151-2.1105002.745893h-10c-1.6600559.064788-3.0935988-1.151552-3.3-2.8z" fill="#673328"/><path d="m72.8 290.9c.1571339-1.522577 1.4705464-2.660868 3-2.6h9.1c1.567092-.116361 2.9417549 1.036582 3.1 2.6 0 1.4-1.4 2.5-3.1 2.5h-9.1c-1.5120042.116573-2.842006-.991761-3-2.5z" fill="#402a1b"/><path d="m146.1 293.2c.057832-.741246-.204438-1.471788-.720527-2.006991-.516089-.535204-1.236614-.823858-1.979473-.793009h-12.8c-.79577-.026968-1.56962.263516-2.151082.807464-.581461.543949-.922834 1.296736-.948918 2.092536v21.5c.025267.787564.369924 1.530941.954679 2.059106.584754.528165 1.359256.795642 2.145321.740894h10c1.660056.064788 3.093599-1.151552 3.3-2.8z" fill="#673328"/><path d="m150.1 290.9c-.158245-1.563418-1.532908-2.716361-3.1-2.6h-9.1c-1.529454-.060868-2.842866 1.077423-3 2.6.157994 1.508239 1.487996 2.616573 3 2.5h9.1c1.7 0 3.1-1.1 3.1-2.5z" fill="#402a1b"/><path d="m138.2 309.2c0 4.7-4.1 8.4-9.1 8.4h-35.3c-5 0-9.1-3.7-9.1-8.4v-52.8c0-4.6 4.1-8.4 9.1-8.4h35.3c5 0 9.1 3.8 9.1 8.4z" fill="#815245"/><path d="m142.7 293.2c-.057832-.741246.204438-1.471788.720527-2.006991.516089-.535204 1.236614-.823858 1.979473-.793009h12.8c.79577-.026968 1.56962.263516 2.151082.807464.581461.543949.922834 1.296736.948918 2.092536v21.5c-.025267.787564-.369924 1.530941-.954679 2.059106-.584754.528165-1.359256.795642-2.145321.740894h-10c-1.660056.064788-3.093599-1.151552-3.3-2.8z" fill="#673328"/><path d="m138.7 290.9c.158245-1.563418 1.532908-2.716361 3.1-2.6h9.1c1.529454-.060868 2.842866 1.077423 3 2.6-.157994 1.508239-1.487996 2.616573-3 2.5h-9.1c-1.7 0-3.1-1.1-3.1-2.5z" fill="#402a1b"/><path d="m212 293.2c.093555-.749555-.156811-1.501222-.681141-2.044971-.52433-.54375-1.266399-.821275-2.018859-.755029h-12.8c-.786304-.02713-1.549885.266385-2.115565.813209-.565679.546824-.884903 1.300019-.884435 2.086791v21.5c-.001989.778594.320303 1.522857.8895 2.054107.569197.531251 1.333893.80151 2.1105.745893h10c1.66641.026119 3.106096-1.159505 3.4-2.8z" fill="#673328"/><path d="m216 290.9c-.157134-1.522577-1.470546-2.660868-3-2.6h-9.1c-1.567092-.116361-2.941755 1.036582-3.1 2.6 0 1.4 1.4 2.5 3.1 2.5h9.1c1.512004.116573 2.842006-.991761 3-2.5z" fill="#402a1b"/><path d="m204.1 309.2c0 4.7-4.1 8.4-9.1 8.4h-35.3c-5 0-9.1-3.7-9.1-8.4v-52.8c0-4.6 4.1-8.4 9.1-8.4h35.3c5 0 9.1 3.8 9.1 8.4z" fill="#815245"/><path d="m254.5 241.1c0-4-1.9-7.2-4.2-7.2h-14c-2.3 0-4.3 3.2-4.3 7.2 0 3.9 2 7.2 4.3 7.2h14c2.3 0 4.2-3.3 4.2-7.2z" fill="#cde5f5"/><path d="m213 289.4s2.4-26 3.7-34.7c1.8-12.2 18.3-13 18.3-13h8.3v47.7z" fill="#026a9d"/><path d="m273.6 289.4s-2.4-26-3.7-34.7c-1.8-12.2-18.3-13-18.3-13h-8.3v47.7z" fill="#026a9d"/><path d="m11 293.2c-.0578325-.741246.2044384-1.471788.7205274-2.006991.516089-.535204 1.236614-.823858 1.9794726-.793009h12.8c.7957702-.026968 1.5696198.263516 2.1510816.807464.5814618.543949.9228343 1.296736.9489184 2.092536v21.5c-.0252671.787564-.3699242 1.530941-.9546785 2.059106-.5847544.528165-1.3592561.795642-2.1453215.740894h-10c-1.6600559.064788-3.0935988-1.151552-3.3-2.8z" fill="#673328"/><path d="m7 290.9c.15824513-1.563418 1.53290799-2.716361 3.1-2.6h9.1c1.5294536-.060868 2.8428661 1.077423 3 2.6-.157994 1.508239-1.4879958 2.616573-3 2.5h-9.1c-1.7 0-3.1-1.1-3.1-2.5z" fill="#402a1b"/><path d="m80.3 293.2c.093555-.749555-.1568109-1.501222-.6811407-2.044971-.5243298-.54375-1.2663988-.821275-2.0188593-.755029h-12.8c-.7863039-.02713-1.5498848.266385-2.1155646.813209s-.8849033 1.300019-.8844354 2.086791v21.5c-.0019889.778594.320303 1.522857.8894998 2.054107.5691967.531251 1.3338931.80151 2.1105002.745893h10c1.6664096.026119 3.1060963-1.159505 3.4-2.8z" fill="#673328"/><path d="m84.3 290.9c-.1571339-1.522577-1.4705464-2.660868-3-2.6h-9.1c-1.567092-.116361-2.9417549 1.036582-3.1 2.6 0 1.4 1.4 2.5 3.1 2.5h9.1c1.5120042.116573 2.842006-.991761 3-2.5z" fill="#402a1b"/><path d="m72.4 309.2c0 4.7-4.1 8.4-9.1 8.4h-35.3c-5 0-9.1-3.7-9.1-8.4v-52.8c0-4.6 4.1-8.4 9.1-8.4h35.3c5 0 9.1 3.8 9.1 8.4z" fill="#815245"/><path d="m208.6 293.2c-.028368-.750944.257511-1.479737.788887-2.011113s1.260169-.817255 2.011113-.788887h12.7c.79577-.026968 1.56962.263516 2.151082.807464.581461.543949.922834 1.296736.948918 2.092536v21.5c-.025267.787564-.369924 1.530941-.954679 2.059106-.584754.528165-1.359256.795642-2.145321.740894h-10c-1.64389.018963-3.051019-1.174964-3.3-2.8z" fill="#673328"/><path d="m204.7 290.9c.051189-.743321.396529-1.435586.959579-1.923563s1.297371-.731418 2.040421-.676437h9.1c.74305-.054981 1.477371.18846 2.040421.676437s.90839 1.180242.959579 1.923563c-.04988.735926-.398671 1.419405-.965322 1.891614-.56665.472209-1.301822.692032-2.034678.608386h-9.1c-.732856.083646-1.468028-.136177-2.034678-.608386-.566651-.472209-.915442-1.155688-.965322-1.891614z" fill="#402a1b"/><path d="m278 293.2c.028368-.750944-.257511-1.479737-.788887-2.011113s-1.260169-.817255-2.011113-.788887h-12.7c-.79577-.026968-1.56962.263516-2.151082.807464-.581461.543949-.922834 1.296736-.948918 2.092536v21.5c.025267.787564.369924 1.530941.954679 2.059106.584754.528165 1.359256.795642 2.145321.740894h10c1.64389.018963 3.051019-1.174964 3.3-2.8z" fill="#673328"/><path d="m281.9 290.9c-.051189-.743321-.396529-1.435586-.959579-1.923563s-1.297371-.731418-2.040421-.676437h-9.1c-.74305-.054981-1.477371.18846-2.040421.676437s-.90839 1.180242-.959579 1.923563c.04988.735926.398671 1.419405.965322 1.891614.56665.472209 1.301822.692032 2.034678.608386h9.1c.732856.083646 1.468028-.136177 2.034678-.608386.566651-.472209.915442-1.155688.965322-1.891614z" fill="#402a1b"/><path d="m270 309.2c0 4.7-4.1 8.4-9.1 8.4h-35.2c-5 0-9.1-3.7-9.1-8.4v-52.8c0-4.6 4.1-8.4 9.1-8.4h35.2c5 0 9.1 3.8 9.1 8.4z" fill="#815245"/><g fill="#1e2020"><path d="m129.2 224.4c-.811885.013069-1.578112.377939-2.1 1-.682079-.452464-1.481503-.695767-2.3-.7-2.182674.061816-4.021128 1.649572-4.4 3.8-1.964955.106367-3.502877 1.73217-3.5 3.7-1.988225 0-3.6 1.611775-3.6 3.6-.000732 2.00503 1.595703 3.64581 3.6 3.7 1.154951.009122 2.240044-.552133 2.9-1.5.507921.205938 1.051976.307948 1.6.3 2.446143-.054372 4.400604-2.053253 4.4-4.5v-.3c1.710725-.384709 3.0165-1.769622 3.3-3.5h.1c.750944.028368 1.479737-.257511 2.011113-.788887s.817255-1.260169.788887-2.011113c0-1.546397-1.253603-2.8-2.8-2.8z"/><path d="m109.9 232.5-1.3.2c-.656972-1.153624-1.7303-2.012286-3-2.4.595377-.886496.909078-1.932167.9-3-.054539-3.053672-2.545841-5.500487-5.6-5.5-.753209-.021622-1.5026068.114632-2.2.4-.5463947-.906011-1.5428377-1.442557-2.6-1.4-1.7120827 0-3.1 1.387917-3.1 3.1.004193.921024.405032 1.795581 1.1 2.4-1.6161517.676811-2.6767093 2.248008-2.7 4 0 2.485281 2.0147186 4.5 4.5 4.5h.9c-.0803132.189278-.1145846.394906-.1.6-.0005233.707244.2870887 1.384182.7965309 1.874756s1.1967483.752446 1.9034691.725244h.7c.921405 1.363302 2.454587 2.185985 4.1 2.2 1.321181-.007694 2.583269-.548589 3.5-1.5.619774.511273 1.396582.793748 2.2.8 1.877768 0 3.4-1.522232 3.4-3.4s-1.522232-3.4-3.4-3.4z"/><path d="m125.2 220.3s1.9-8.2-.3-12.8-6-7.7-12.7-7.7-10.2 2.8-12.6 7.7-.3 12.8-.3 12.8c-3-.6-2.4 2.7-1.5 4.2.5916638.814805 1.0320027 1.729355 1.3 2.7.6 1.9 2.2.6 2.2.6.9 2.5 1.5 3.1 5.1 6.4s4.3 2.9 5.8 2.9 2.7 0 5.9-2.9 4.2-3.9 5.1-6.4c.329698.341822.819556.476656 1.277736.351698s.811757-.48982.922264-.951698c.267997-.970645.708336-1.885195 1.3-2.7.9-1.5 1.5-4.8-1.5-4.2z"/><path d="m133.1 217.9c1.13889-1.018625 1.792933-2.472054 1.8-4 .012249-1.383794-.527588-2.715393-1.5-3.7.476613-.782132.719504-1.684298.7-2.6 0-2.595738-2.104262-4.7-4.7-4.7h-.8c.027363-1.573006-.585452-3.089645-1.697903-4.202097-1.112452-1.112451-2.629091-1.725266-4.202097-1.697903l-1.8.2c-.148669-1.335543-1.256849-2.358479-2.6-2.4h-.5c-.923317-1.218182-2.371629-1.92377-3.9-1.9-1.195036.001218-2.342692.467453-3.2 1.3-.815379-.484726-1.75182-.727507-2.7-.7-2.424674-.0188-4.540516 1.640683-5.1 4-.674007-.364195-1.43479-.5371-2.2-.5-1.9827342-.049647-3.7832375 1.150689-4.5 3h-.3c-2.943213.054513-5.3005048 2.456282-5.3 5.4-.0324612.5411.0353438 1.08354.2 1.6-1.3737585.402557-2.3130316 1.668534-2.3 3.1.0099575.632891.1821115 1.252645.5 1.8-1.1969913.930298-1.8451146 2.40077-1.7242212 3.911938.1208934 1.511167.9945528 2.859896 2.3242212 3.588062-.9206217.970028-1.4233884 2.262857-1.4 3.6-.1932997 2.871881 1.9781193 5.3567 4.85 5.55s5.3567003-1.978119 5.55-4.85c1.0225914-.566362 1.669251-1.631448 1.7-2.8.02128-.336554-.012497-.674325-.1-1 2.288572-.516106 3.910552-2.553978 3.9-4.9-.006098-.895318-.285187-1.76747-.8-2.5 1.319082-.761348 2.122637-2.177135 2.1-3.7v-.5c0 .1.1.1.2.2.378824 1.616079 1.840693 2.743806 3.5 2.7h.1c.302616 1.180748 1.114906 2.16563 2.216481 2.687429 1.101575.521798 2.378206.526405 3.483519.012571v.5c0 3.368937 2.731063 6.1 6.1 6.1.475742.038578.954089-.029757 1.4-.2v.6c.029436 1.688957 1.170256 3.155727 2.8 3.6.868798 1.99083 2.827916 3.283847 5 3.3 2.385092.045714 4.506811-1.507648 5.183718-3.795124.676906-2.287477-.25783-4.7453-2.283718-6.004876z"/><path d="m259.7 218.5c.2-4.8-.8-11.4-7.2-14.5-2.075265-.956749-4.31699-1.500197-6.6-1.6.021798-.606555-.045588-1.213024-.2-1.8-1.1-4.1-5.9-7.7-10.1-6.7s-6.4 6.3-5.3 10.3c.228099.865799.675885 1.658036 1.3 2.3-4.6 3.6-4.6 9.9-4.1 13.8 1.2 14.1 11.7 19 16 19.1s16-5.4 16.3-20.9z"/></g></g><g transform="translate(999 64)"><path d="m79.8 251.1c2.1 5 8.9 18.8 1.2 20.9s-8.8-19.6-8.8-19.6z" fill="#1e2020"/><path d="m68.9 176.8c.2 6-.2 10.5 3.3 17.3s4.2 13.6 4.2 25.1c.1511924 9.20396.8860008 18.389065 2.2 27.5.5 2.6 5.2 14.9 0 15.6s-6.2-7.7-6.9-13.8-6-20.2-9.3-30.4-4.8-19.4-4.6-22.6-7.5-19.5-7.5-19.5z" fill="#565656"/><path d="m45.3 251.9s5.1 23.6-6.3 21.6c-7.9-1.3-1.3-21.6-1.3-21.6z" fill="#1e2020"/><path d="m46.4 178.2c-.8159492 2.553142-1.2209999 5.219726-1.2 7.9.3 2 3.3 9.2 2.8 15.8s-2.2 25.7-2.8 33.4-.8 11.4 0 15.8-.7 14.1-4.4 14.1-4.4-7.7-3-14.1.1-12.7-.7-16.9-3.9-30.9-4.2-34.4c-.4-6 .9-10.6.5-13.7s-3.5-12.8-3.5-12.8z" fill="#565656"/><path d="m66.5 115.1c2.8 7.4 6.8 23.2 7.9 40.7 1 14.3 2.1 34.1 2.1 34.1s-35.7 1.7-49.7-4.4c0 0-1.4-19.6-1.4-31 0-6.6-1.2-31.8 4.9-40.7z" fill="#6b9c53"/><path d="m74.4 155.8c-1.1-17.5-5.1-33.3-7.9-40.7h-3c2.6 7.3 5.5 22 6.4 36.5s2.1 34.1 2.1 34.1-29.5 1.4-45.4-3c.2 1.8.2 2.9.2 2.9 14 6.1 49.7 4.4 49.7 4.4s-1.1-19.9-2.1-34.2z" fill="#3a8835"/><path d="m47.6 37.8c-1.1 0-2.3-.9-3.6-1.9-1.3787154-1.078837-2.621163-2.3212846-3.7-3.7-1.4953221-1.8116683-2.3714096-4.0544521-2.5-6.4 0 0 .1-5.3.1-4.9s5.8-3.9 5.1-12.9l3.8-7.3c-2.7696259.08609969-5.4365224 1.0686405-7.6 2.8-3.2 2.8-6.5 8-6.5 21.1s4.5 16.9 4.5 16.9l3.6 4.8z" fill="#1e2020"/><path d="m47.6 37.8c1.1 0 2.4-1.2 3.7-2.1 3.1-2.3 6.1-6.1 6.1-9.9 0 0-.1-5.3-.1-4.9s-18.3-4.3-18-16.2l7.5-4s6 0 9.2 2.8 6.4 8 6.4 21.1-4.5 16.9-4.5 16.9l-3.5 4.8z" fill="#1e2020"/><path d="m47.6 36.6v9.2l6.6-5.2c-1.1962587-2.954505-1.4066953-6.2162721-.6-9.3z" fill="#e38f50"/><path d="m47.6 36.6v9.2l-6.6-5.2c1.1962587-2.954505 1.4066953-6.2162721.6-9.3z" fill="#e38f50"/><path d="m53.1 34.2s-3 3.3-5.5 3.2-5.6-3.2-5.6-3.2v2.2c1.6 2.7 4 2.8 5.6 2.8s4-1.4 5.5-4.2z" fill="#f29d56"/><path d="m61.1 42.8-4.8-1.5-.9-2.1-7.8 4.7v77.4s20.3-2.6 20-3.2-6.5-75.3-6.5-75.3z" fill="#6b9c53"/><path d="m34 42.8 4.9-1.5.8-2.1 7.9 4.7v77.4s-20.3-2.6-20-3.2 6.4-75.3 6.4-75.3z" fill="#6b9c53"/><path d="m56.5 31.3 1.4 10.2s5.7 8.3-.3 10.2-14.6 1.9-20 0-.4-10.2-.4-10.2l-3-11.7" fill="#1e2020"/><path d="m24.1 83.5s2.6 10.1 1.5 25.1c-.7 10.1-1.5 18.1-1.5 18.1l16.1.8s4.2-32.6 1.1-42.9-4.1-43.1-4.1-43.1l-17.9 14z" fill="#673328"/><path d="m57.9 41.5s12.8 4.7 14.7 6.2 5.8 17.4 6.8 25 3.3 16.1 3.5 19.1-13.7 1.8-13.7 1.8l-1.3-18.1-10-13.4z" fill="#673328"/><path d="m71.1 83.5s-2.6 10.1-1.6 25.1c.7 10.1 1.6 18.1 1.6 18.1l-16.1.8s-4.3-32.6-1.1-42.9 4-43.1 4-43.1l17.9 14z" fill="#673328"/><path d="m57.4 25.8s-.1-5.3-.1-4.9 1.9-11.1-9.7-14.3v31.2c3.6 0 9.8-6.6 9.8-12z" fill="#e38f50"/><path d="m37.8 25.8s.1-5.3.1-4.9-2.3-14.3 9.7-14.3v31.2c-1.3514198-.1358035-2.6355294-.6563885-3.7-1.5-3.1-2.3-6.1-6.7-6.1-10.5z" fill="#e38f50"/><path d="m37.5 13.9s11.4-2.8 20.1.7-3.4-8.7-3.4-8.7l-9.9-1.3-7.1 5z" fill="#1e2020"/><path d="m26.5 94.9s-4.3 6.6-9 5.1-6.3-7.1-5-10.2 4.5-4.3 6.1-5.2z" fill="#402a1b"/><path d="m37.2 41.5s-12.7 4.7-14.7 6.2-5.7 17.4-6.8 25-3.2 16.1-3.4 19.1 13.6 1.8 13.6 1.8l1.3-18.1 10-13.4z" fill="#673328"/><path d="m82.7 76.8s6.8-2.1 7.9-3.4 3.1-7.6 1.8-9.5-3.2-4-3.9-2.9c-.3941163.5126694-.3515043 1.237073.1 1.7 0 0-2.1-2.6-3-2s0 4.2.5 5.3-1.3 1.7-2.5 1.7-5-1.5-9.8 4.5c0 0 .5 4.5 2.7 5.2s5.6.6 6.2-.6z" fill="#e38f50"/><path d="m82.7 76.8s4.9 26-8.9 25.3 0-29.9 0-29.9 2.5 7.5 8.9 4.6z" fill="#402a1b"/><path d="m60.3 63.1h1v3.24h-1z" fill="#815245"/><path d="m54.8 65.3h12v10.03h-12z" fill="#fff"/><path d="m67.3 75.8h-13v-11h13zm-12-1h11v-9h-11z" fill="#815245"/><path d="m60.7 64c-.8284271 0-1.5-.6715729-1.5-1.5s.6715729-1.5 1.5-1.5 1.5.6715729 1.5 1.5c.0302272.4063401-.1180732.8056874-.4061929 1.0938071s-.687467.4364201-1.0938071.4061929z" fill="#815245"/><path d="m41.8 91.6c.4433245.0902328.904298.0193138 1.3-.2l12.7-9.4c.3-.2.3-.3-.1-.4l-38.1-.9c-.4-.1-1.1-1.1-1.4-.9l-15.1 8.9c-.3.2-.3.4.1.4z" fill="#fff"/><path d="m43 91.2c.0024939.1780747-.0742487.3480551-.2094663.4639559-.1352177.1159009-.3149354.1657436-.4905337.1360441l-41.1-2.6c-.40238314-.0506829-.70317936-.39445-.7-.8v-37.5c0-.3865993.31340068-.7.7-.7l41.1 2.6c.4023831.0506829.7031794.39445.7.8z" fill="#b5d1d7"/><g fill="#fff"><path d="m24.2 73.1c.2958271-.4418793.4365243-.9694937.4-1.5-.031465-1.7154557-1.301812-3.1551822-3-3.4-.7735375-.1214657-1.5606233.1121515-2.1426345.6359616-.5820113.5238102-.8969601 1.282024-.8573655 2.0640384-.0243273.560806.1146261 1.1166193.4 1.6.8 1.6 1 2 1 2.6v1.9h1.6l1.7.2c-.0667181-.5976787-.1001031-1.198609-.1-1.8.155161-.8324095.4970679-1.6187954 1-2.3z"/><path d="m21.7 77.6h-1.2c.1595821.5462428.6339349.9415368 1.2 1 .5194864.0621475.9990661-.2866377 1.1-.8z"/><path d="m23.7 76.3c0 .2761424-.2238576.5-.5.5l-3.1-.3c-.291842-.0493006-.5041349-.304052-.5-.6 0-.2761424.2238576-.5.5-.5l3.1.3c.291842.0493006.5041349.304052.5.6z"/><path d="m23.6 76.2c0 .2-.3.4-.5.4l-2.9-.3c-.3-.1-.5-.3-.5-.5 0-.3.2-.4.5-.4l2.9.3c.2576039.0403203.4596797.2423961.5.5z"/><path d="m23.7 77.4c.0040174.1259305-.0515333.2463936-.1499186.3251018-.0983852.0787082-.2281042.1064609-.3500814.0748982l-3.1-.3c-.291842-.0493006-.5041349-.304052-.5-.6 0-.2761424.2238576-.5.5-.5l3.1.4c.291842.0493006.5041349.304052.5.6z"/><path d="m21.6 66c.1 0 .2.1.2.3v1.2l-.2.2-.2-.3v-1.2c0-.1104569.0895431-.2.2-.2z"/><path d="m18.9 66.4h.3l.6 1.2c0 .1 0 .2-.1.2-.1.1-.2 0-.3-.1l-.6-1.1c-.0092881-.1094906.0268752-.2179804.1-.3z"/><path d="m16.9 68.2c0-.1.1-.1.2-.1l1.1.8c.1 0 .1.2.1.3h-.3l-1.1-.7c-.0430501-.0379666-.0677124-.0925999-.0677124-.15s.0246623-.1120334.0677124-.15z"/><path d="m16.1 70.9c0-.1104569.0895431-.2.2-.2h1.2c.1 0 .2.1.2.3 0 .1-.1.2-.2.1h-1.2c-.1104569 0-.2-.0895431-.2-.2z"/><path d="m16.8 73.7c0-.1 0-.2.1-.2l1.1-.5c.1-.1.2 0 .2.1.0430501.0379666.0677124.0925999.0677124.15s-.0246623.1120334-.0677124.15l-1.1.5z"/><path d="m24.4 67.1h-.3l-.6 1c-.1.1 0 .2.1.3.1.1.2 0 .2-.1l.6-.9c.1-.1.1-.3 0-.3z"/><path d="m26.4 69.3h-.3l-1 .5c-.1 0-.1.2-.1.3h.3l1-.5c.1-.1.2-.2.1-.3z"/><path d="m27.2 72.1-.2-.2h-1.2c-.1 0-.2 0-.2.1 0 .2.1.3.2.3h1.2c.1 0 .2 0 .2-.2z"/><path d="m26.5 74.8c.0430501-.0379666.0677124-.0925999.0677124-.15s-.0246623-.1120334-.0677124-.15l-1.1-.7h-.3c0 .1 0 .3.1.3l1.1.8z"/><path d="m23.6 77.2c0 .3-.3.4-.5.4l-2.9-.3c-.2761424 0-.5-.2238576-.5-.5.0482368-.2365616.2586196-.4048679.5-.4l2.9.3c.2.1.5.3.5.5z"/></g><path d="m16.3 88.7c-.6658475 2.0142337.4004537 4.1912653 2.4 4.9l4.8.4c2 .7 4.4.7 5-1.3l.6-1.7c.6-2-.4-4.9-2.4-5.5l-3.2-1c-.8607616-.1244201-1.7322246-.1579379-2.6-.1-2-.7-3.4.6-4.1 2.6z" fill="#e38f50"/></g></g></g></svg>