<?xml version="1.0" encoding="UTF-8"?>
<svg width="1200px" height="400px" viewBox="0 0 1200 400" version="1.1" xmlns="http://www.w3.org/2000/svg" xmlns:xlink="http://www.w3.org/1999/xlink">
    <!-- Generator: Sketch 53.2 (72643) - https://sketchapp.com -->
    <title>da-03-overheidsdata-verbeteren</title>
    <desc>Created with Sketch.</desc>
    <g id="da-03-overheidsdata-verbeteren" stroke="none" stroke-width="1" fill="none" fill-rule="evenodd">
        <g id="Hoofdstuk-3-site_NDA[v1]" transform="translate(-1.000000, 0.000000)" fill-rule="nonzero">
            <polyline id="Path" fill="#DDEFF8" points="0.9 0 0.9 400 1200.9 400 1200.9 0 0.9 0"></polyline>
            <polyline id="Path" fill="#BCDFF1" points="0.9 239.6 0.9 400 1200.9 400 1200.9 239.6 0.9 239.6"></polyline>
            <g id="Group" transform="translate(336.000000, 247.000000)">
                <polygon id="Path" fill="#ADB4BB" points="40.6 64.2 32.2 56.2 25.4 42.1 33.4 41.7 33.8 42.1"></polygon>
                <path d="M31.5,37.1 C31.5,37.1 33,48.9 34.2,52 C35.3,55 39.5,61.1 40.7,64.6 C41.8,68 42.2,73 42.2,73 C42.2,73 42.6,62.7 41.1,57.4 C39.2,51.7 36.1,47.9 35.4,44.4 C34.1,40.9 33.8,37.5 31.5,37.1" id="Path" fill="#425B6B"></path>
                <path d="M149.6,10.4 C149.6,10.4 145,15.7 143.9,20.3 C143.9,20.3 143.5,21.4 143.9,22.2 C144.3,23 144.3,23.3 143.5,24.5 C142.7,25.6 141.2,27.2 142,28.3 C142.8,29.4 144.3,29.8 144.3,29.8 C144.3,29.8 142.8,32.5 144.3,33.2 C144.3,33.2 143.2,34 144.3,35.5 C145.4,36.6 143.2,39.7 147.7,41.2 C152.7,42.3 153.8,43.9 154.6,45 L155,46.1 L171.4,40.8 C171.4,40.8 170.3,38.5 170.3,35.1 L170.3,31.7 C170.2,31.8 161.8,11.6 149.6,10.4" id="Path" fill="#F9BF8E"></path>
                <path d="M147.3,61.5 C147.3,61.5 146.5,59.6 147.7,56.5 C148.8,53.5 149.6,54.6 150.4,50.8 C150.8,46.6 150.4,45.1 150.4,45.1 L159.2,42.1 L177.1,53.2 C177.1,53.2 177.9,68.8 176,76.1 C174.1,83 168.4,90.2 168.4,90.2 L147.3,61.5 Z" id="Path" fill="#CFD6E0"></path>
                <path d="M150.4,45.1 C150.4,45.1 151.2,44.7 151.2,46.2 C151.6,47.7 153.1,52.3 153.1,53.1 C153.1,53.9 152.7,53.9 152.7,53.9 C152.7,53.9 160.7,48.9 164.5,47.8 C168.3,46.3 173.3,42.8 173.3,42.8 C173.3,42.8 173.3,40.5 172.9,39.4 C172.9,39 172.1,38.6 171.8,38.6 C164.5,40.2 157.2,42.1 150.4,45.1" id="Path" fill="#F3F3F3"></path>
                <path d="M140.1,64.2 L142,105 C142,105 33.4,106.9 33.4,105 C33.4,103.1 54.4,58.9 54.4,58.9 L140.1,64.2 Z" id="Path" fill="#683328"></path>
                <path d="M89,63.8 L87.1,64.9 L85.6,68.7 C85.6,69.1 85.2,69.5 85.2,69.5 C85.2,69.9 85.2,70.3 85.6,70.3 L102.4,70.7 C103.2,70.7 103.5,70.3 103.5,69.6 L103.1,65.4 L89,63.8 Z" id="Path" fill="#CFD6E0"></path>
                <rect id="Rectangle" fill="#ADB4BB" x="87.1" y="60" width="16.4" height="5.3"></rect>
                <path d="M126.4,63.4 L60.1,62.3 C59,62.3 58.2,61.5 58.2,60.4 L58.2,14.7 C58.2,13.6 59,12.8 60.1,12.8 L128.3,13.9 C129.4,13.9 130.2,14.7 130.2,15.8 L128.7,61.2 C128.3,62.7 127.5,63.4 126.4,63.4" id="Path" fill="#ADB4BB"></path>
                <path d="M129.8,16.2 L128.3,57 L57.8,54.7 L57.8,14.7 C57.8,13.6 58.6,12.8 59.7,12.8 L127.9,13.9 C129,14.3 130.2,15 129.8,16.2" id="Path" fill="#ADB4BB"></path>
                <path d="M128.3,14.3 L60.1,13.2 C59,13.2 58.2,14 58.2,15.1 L58.2,55.1 L128.7,57.4 L129.8,16.2 C130.2,15 129,14.3 128.3,14.3" id="Path" fill="#425B6B"></path>
                <polygon id="Path" fill="#FFFFFF" points="61.2 16.2 61.6 51.6 125.6 53.9 126.7 17.3"></polygon>
                <path d="M128.7,56.9 L128.7,61.5 C128.7,62.6 127.9,63.4 126.8,63.4 L60.5,62.3 C59.4,62.3 58.6,61.5 58.6,60.4 L58.6,54.7 L128.7,56.9 Z" id="Path" fill="#CFD6E0"></path>
                <path d="M68.4,57.7 C68.4,57.7 71.1,56.9 72.2,55.8 C73.3,54.7 73,54.3 73.3,53.9 C73.7,53.5 75.2,53.1 75.2,53.1 C75.2,53.1 79,53.1 77.5,50.4 L76,50.8 L74.9,50.8 C74.1,50.8 73.4,50.8 71.9,50.4 C70.8,50.4 69.6,50 68.9,50.8 C68.1,51.2 67,52.7 66.6,53.1 C65.8,53.5 59.4,55.8 59.4,55.8 L62.4,61.5 C62.4,61.5 67,61.5 69.6,60.4 C72.3,59.6 74.6,57.7 75.3,56.2 C76.1,54.7 76.1,53.2 76.1,53.2 C76.1,53.2 73.1,57.4 71.1,58.2 C69.2,59.2 68.4,57.7 68.4,57.7" id="Path" fill="#F9BF8E"></path>
                <path d="M58.1,56.6 L61.1,55.5 C61.1,55.5 61.9,61.2 64.1,63.5 L56.1,66.9 L58.1,56.6 Z" id="Path" fill="#FFFFFF"></path>
                <path d="M66.9,60.4 L71.5,59.3 L76.1,55.9 L76.9,54.4 L76.9,52.5 L71.2,53.6 C71.5,53.1 64.6,58.5 66.9,60.4" id="Path" fill="#F9BF8E"></path>
                <path d="M70.7,58.8 L71.5,59.6 C71.9,59.6 73,58.5 75.3,55.8 L76.4,54.7 C77.5,53.2 78.7,51.7 80.2,50.1 L81,49.3 C81.8,48.2 82.5,47 83.3,45.5 C82.2,46.3 81,47 79.9,48.2 L79.1,49 C78,50.5 76.4,52 75.3,53.6 L74.2,54.7 C71.5,56.9 71.1,58.1 70.7,58.8" id="Path" fill="#425B6B"></path>
                <path d="M80.6,48.9 C81,48.5 81,48.1 81.4,48.1 L80.3,47 L79.5,47.8 L78.7,48.6 C78.7,49 78.3,49 78.3,49.4 L79.4,50.5 C79.4,50.1 79.8,50.1 79.8,49.7 L80.6,48.9 Z" id="Path" fill="#4DB8A4"></path>
                <path d="M70.7,59.2 L70.7,59.2 L71.5,59.6 L71.1,60 C71.1,60 70.7,60.4 70.3,60 C70.7,59.6 70.3,59.2 70.7,59.2" id="Path" fill="#EE715C"></path>
                <path d="M72.6,55.8 C72.6,56.2 72.6,56.6 73,56.9 C73.4,57.3 73.8,57.3 74.1,56.9 C73.7,57.3 73.3,57.7 73.3,58 C72.9,58 72.9,58 72.5,58.4 L71.7,58.4 L71.7,57.6 L71.7,56.8 C71.9,56.9 72.2,56.6 72.6,55.8" id="Path" fill="#4DB8A4"></path>
                <path d="M71.9,58.2 C71.7,58.1 72.6,56.8 73.8,55.3 C75,53.8 76.1,52.8 76.3,52.9 C76.5,53 75.6,54.3 74.4,55.8 C73.2,57.3 72,58.3 71.9,58.2" id="Path" fill="#4DB8A4"></path>
                <path d="M70.7,58.1 C70.7,58.1 69.6,58.9 70.3,60 C71.1,61.1 73.3,60.8 73.7,60.4 C74.1,60 74.5,59.3 74.5,59.3 C74.5,59.3 76,58.9 76,58.2 L76,57.4 C76,57.4 77.1,57 77.5,56.3 C77.9,55.5 77.1,54.8 77.1,54.8 L77.1,54.4 C77.1,54.4 79,54.4 79,53.3 C79,52.2 78.2,51.8 78.2,51.8 C78.2,51.8 75.2,53.7 76.3,54.8 L76.3,55.2 C76.3,55.2 75.5,55.6 74.4,55.6 L73,55.6 C72.6,55.6 71.5,56.4 72.6,57.1 C73.7,57.9 73.4,57.9 73.4,57.9 C73.4,57.9 72.6,58.3 72.3,57.9 C71.9,57.5 71.5,57.5 71.2,57.9 C70.7,57.3 70.7,58.1 70.7,58.1" id="Path" fill="#F9BF8E"></path>
                <path d="M77.6,50.8 L76.1,51.2 L75,51.2 L73.5,51.2 L73.5,54.2 C73.9,53.8 75.4,53.4 75.4,53.4 C75.4,53.4 78.7,53.5 77.6,50.8" id="Path" fill="#F9BF8E"></path>
                <path d="M150.8,55.4 C150.8,55.4 157.7,52.7 163,53.1 C168.3,53.5 174.8,59.6 175.6,67.6 C176.4,75.6 171.4,83.6 157.3,87.4 C143.6,91.2 142.1,94.3 142.1,94.3 L142.1,105 L182.8,105 C182.8,105 189,87.3 184.9,63.8 C182.3,48.7 173.7,42.5 173.7,42.5 C173.7,42.5 167.2,44.8 162.3,46.3 C157.2,47.8 151.9,53.5 150.8,55.4" id="Path" fill="#3A8835"></path>
                <path d="M102.4,71.4 L101.3,72.2 C101.3,72.2 100.2,75.6 100.2,76.4 C100.2,77.2 101.3,77.2 101.7,76.4 C102.1,75.6 102.8,73.4 102.8,73.4 L103.6,72.3 C103.6,72.3 102.8,74.2 102.8,75.3 C102.8,76.4 102.8,77.2 103.6,77.6 C104.4,77.6 104.7,77.2 104.7,76.8 C104.7,76.8 105.1,77.2 105.5,77.2 C106.3,77.2 106.3,76.8 106.3,76.4 C106.3,76.4 106.7,76.8 107.1,76.8 L107.9,76.8 L108.7,75.3 L108.7,72.3 L107.2,70.4 L102.4,71.4 Z" id="Path" fill="#F9BF8E"></path>
                <path d="M103.9,73.7 C103.9,73.7 102.4,74.1 101.6,75.2 C100.8,76 101.6,77.1 102.7,77.1 C103.8,77.1 105.4,76.7 106.1,76 C106.9,75.6 108,74.9 108.8,74.9 C109.6,74.9 110.3,75.7 113,75.7 C115.7,75.7 120.2,74.9 122.5,74.9 L124.8,75.3 L122.1,69.6 C122.1,69.6 117.5,70 116.4,69.6 C115.3,69.2 109.2,67.7 108.4,67.3 C107.3,66.9 106.9,67.3 106.5,67.7 C106.1,68.1 102.7,70 102.3,70.4 C101.9,70.8 101.5,72.3 101.5,72.3 L103,73.1 L103.8,72.3 C104.2,71.9 105.3,71.2 105.3,71.2 L107.6,71.2 L108,72.3 C107.7,71.8 105.8,73.3 103.9,73.7" id="Path" fill="#F9BF8E"></path>
                <path d="M120.3,76.4 C120.3,76.4 119.5,71.1 121.1,69.5 L129.5,69.9 C129.5,69.9 131.8,69.1 133.7,69.1 C135.6,69.1 136.7,68.7 137.9,68.7 C139,68.3 144,67.2 144,67.2 L149,75.6 C149,75.6 139.8,77.5 136,77.5 C132.2,77.5 129.1,77.1 129.1,77.1 L120.3,76.4 Z" id="Path" fill="#CFD6E0"></path>
                <path d="M132.8,78.7 C132.8,78.7 132.4,79.5 133.2,78.7 C134,77.9 136.6,77.2 137,76.4 C137.8,75.6 140,73.4 140.8,71.4 C141.6,69.5 141.6,67.2 143.1,65.7 C144.6,64.2 147.3,53.1 154.9,56.6 C162.1,60 166.3,68.4 166,74.1 C165.6,80.2 166.4,82.9 163.7,85.2 C161,87.5 151.5,92.8 145.8,94.3 C140.1,95.8 136.7,96.6 135.1,97.3 C133.6,97.7 129.4,98.1 127.5,96.9 C125.6,95.4 124.5,91.6 125.6,87.8 C126.7,84 126.7,82.1 126.7,82.1 C126.7,82.1 127.5,80.2 132.8,78.7" id="Path" fill="#F3F3F3"></path>
                <path d="M148.9,29.9 L151.6,30.7 C151.6,30.7 151.2,28 153.1,26.5 C155,25 158,28.4 160,32.2 C161.9,36 169.9,35.2 169.9,35.2 C169.9,35.2 169.9,32.5 171.8,29.5 C173.7,26.5 176.4,14.6 167.2,8.2 C158,1.7 148.1,7.4 148.1,7.4 C148.1,7.4 146.2,10.8 148.5,12 C150.8,13.1 151.2,12.4 150.8,14.3 C150.4,15.8 148.9,16.6 148.5,18.1 C148.5,18.5 148.5,19.2 148.9,19.6 C149.2,20.7 150,23 148.9,29.9" id="Path" fill="#683328"></path>
                <path d="M60.1,55.4 C60.1,55.4 55.1,56.9 53.6,57.7 C52.1,58.5 52.5,58.5 51.7,58.8 C50.9,58.8 50.2,58.8 49,59.2 C47.9,59.6 47.5,60 46.7,60 C45.9,60 45.2,60 44,60.4 C43.2,60.8 41,60.8 41,60.8 L35.7,61.2 L39.1,73.8 C39.1,73.8 48.6,71.1 51.3,70 C54.3,68.5 62.4,66.6 62.4,66.6 C62.4,66.6 58.5,58.5 60.1,55.4" id="Path" fill="#364B5E"></path>
                <path d="M44.8,15.4 C44.8,15.4 43.7,18.4 43.3,19.2 C42.5,20 42.9,20.7 43.3,21.5 C43.7,22.3 44.8,23.8 45.2,24.2 C45.6,24.6 45.2,25.7 44.4,25.7 L42.9,25.7 C42.9,25.7 43.7,28.7 42.1,28.7 C42.1,28.7 42.9,29.5 42.1,29.8 C41.3,30.6 42.9,33.2 38.7,34 C34.5,35.1 30.7,41.6 30.7,41.6 L17.4,31.7 L18.2,29 C18.2,29 21.6,14.9 27.3,12.2 C32.6,10.1 45.2,10.8 44.8,15.4" id="Path" fill="#F9BF8E"></path>
                <path d="M18.1,29.1 C18.1,29.1 26.1,28.3 26.5,22.6 C27.3,16.5 33.4,18 33.7,20.7 C34.1,23.4 34.5,23 34.5,23 L36.4,22.6 C36.4,22.6 34.5,20.3 36.8,18.4 C39.1,16.5 40.2,17.6 41,16.1 C41,16.1 40.2,18.4 39.1,19.1 C39.1,19.1 42.5,19.1 43.7,18 C44.8,16.9 46,14.6 46.4,12.3 C46.4,10 43.7,5.8 37.3,3.5 C30.8,1.2 28.9,-0.3 22.8,1.2 C16.7,2.7 15.6,11.5 15.6,14.2 C15.1,17.7 17,25.7 18.1,29.1" id="Path" fill="#425B6B"></path>
                <path d="M18.1,29.1 C18.1,29.1 20,32.1 23.4,34.8 C26.8,37.5 33.3,40.9 33.3,40.9 L29.5,51.6 L15.4,33.7 L18.1,29.1 Z" id="Path" fill="#FFFFFF"></path>
                <path d="M42.1,85.5 C37.5,95.4 33.3,104.6 33.3,105.3 L7.8,105.3 C7.8,105.3 4,85.9 2.1,79 C0.6,72.5 -0.2,59.9 0.2,57.3 C1,54.6 1.7,53.5 3.2,48.9 C4.7,43.9 5.1,45.9 8.5,40.9 C11.9,35.6 14.6,33.7 14.6,33.7 C14.6,33.7 34,55.8 37.5,61.1 C40.9,66.1 41.7,77.5 41.7,77.5 L41.7,85.5 L42.1,85.5 L42.1,85.5 Z" id="Path" fill="#364B5E"></path>
                <path d="M25.4,72.9 C25.8,66.4 23.5,59.6 20.4,56.1 C17.4,52.7 11.6,52.3 7.1,57.2 C2.5,62.2 4.4,70.2 4.4,70.2 C4.4,70.2 8.6,81.3 9.4,85.1 C9.8,88.9 14.7,96.5 20.5,100 C23.9,101.9 29.6,103.4 33.8,104.6 C34.6,102.7 36.5,98.1 39.1,92.8 C33,85.9 25,76.8 25.4,72.9" id="Path" fill="#425B6B"></path>
                <path d="M17.4,30.6 C17.4,30.6 18.9,35.2 23.1,39.4 C27.3,43.6 37.6,58.1 39.9,62.3 C42.2,66.5 42.2,77.2 42.2,77.2 C42.2,77.2 41.1,69.6 39.9,66.1 C38.8,62.7 31.1,53.5 27.7,50.5 C24.7,47.8 17.4,39.4 15.1,35.6 C14.7,34.5 15.1,33.7 15.5,32.9 L17.4,30.6 Z" id="Path" fill="#425B6B"></path>
                <rect id="Rectangle" fill="#6BC1B7" x="83.7" y="42.1" width="1.9" height="7.2"></rect>
                <rect id="Rectangle" fill="#F9BF8E" x="87.9" y="34.4" width="1.9" height="14.9"></rect>
                <rect id="Rectangle" fill="#56C1EC" x="91.7" y="45.1" width="1.9" height="4.2"></rect>
                <rect id="Rectangle" fill="#425B6B" x="95.9" y="40.9" width="1.9" height="8.8"></rect>
                <polygon id="Path" fill="#EE715C" points="101.6 39 101.6 49.7 99.7 49.7 99.7 38.6"></polygon>
                <rect id="Rectangle" fill="#F9BF8E" x="103.9" y="47" width="1.9" height="2.7"></rect>
                <polygon id="Path" fill="#56C1EC" points="109.6 36.4 109.6 50.1 107.7 49.7 107.7 36.4"></polygon>
                <rect id="Rectangle" fill="#425B6B" x="111.9" y="44.7" width="1.9" height="5.3"></rect>
                <polygon id="Path" fill="#6BC1B7" points="117.6 41.3 117.6 50.1 115.7 50.1 115.7 40.9"></polygon>
                <polygon id="Path" fill="#EE715C" points="121.8 43.6 121.8 50.5 119.9 50.1 119.9 43.6"></polygon>
                <path d="M73.4,22.3 C71.1,22.3 68.8,23.1 67.3,24.6 L73.4,31.1 L73.4,22.3 Z" id="Path" fill="#425B6B"></path>
                <path d="M79.5,24.9 C78,23.4 75.7,22.2 73.4,22.2 L73.4,31 L79.5,24.9 Z" id="Path" fill="#6BC1B7"></path>
                <path d="M73.4,31 L75.7,39.4 C79.5,38.3 82.2,34.8 82.2,31 C82.2,28.7 81.4,26.4 79.5,24.9 L73.4,31 Z" id="Path" fill="#EE715C"></path>
                <path d="M67.3,24.9 C65.8,26.4 64.6,28.7 64.6,31.4 C64.6,35.6 67.6,39 71.5,40.2 L73.4,31.4 L67.3,24.9 Z" id="Path" fill="#56C1EC"></path>
                <path d="M71.5,39.8 L73.4,39.8 C74.2,39.8 74.9,39.8 75.7,39.4 L73.4,31 L71.5,39.8 Z" id="Path" fill="#F9BF8E"></path>
            </g>
            <rect id="Rectangle" fill="#1E1E1C" transform="translate(39.274330, 102.234045) rotate(-74.924277) translate(-39.274330, -102.234045) " x="35.2742593" y="78.0836179" width="8.00014148" height="48.3008542"></rect>
            <polygon id="Path" fill="#1E1E1C" points="42.7 102 71.6 110.9 75.1 98 49.7 90.1"></polygon>
            <polygon id="Path" fill="#3D3D3D" points="21.2 76.2 16.8 92.6 63.4 105.2 75.1 90.8"></polygon>
            <path d="M7.5,125.9 L6.4,122.5 L31.8,117.6 L35.8,105.1 L39.2,106.2 L34.9,119.6 C34.7,120.1 34.3,120.6 33.8,120.8 L7.5,125.9 Z" id="Path" fill="#1E1E1C"></path>
            <path d="M36.4,119.1 C36.4,121.5 34.5,123.4 32.1,123.4 C29.7,123.4 27.8,121.5 27.8,119.1 C27.8,116.7 29.7,114.8 32.1,114.8 C34.5,114.8 36.4,116.7 36.4,119.1" id="Path" fill="#1E1E1C"></path>
            <path d="M2.8,133.4 L2.8,133.4 L2.8,115.1 C5.9,115.1 8.5,117.7 8.5,120.8 L8.5,127.7 C8.5,130.8 5.9,133.4 2.8,133.4" id="Path" fill="#3D3D3D"></path>
            <path d="M192.8,251 L201.7,296.4 L194.9,298.7 L183.3,265.5 L180.7,253.7 L165.7,231.4 C165.7,231.4 161.1,227.5 160,225.8 C158.8,224 156.9,217.7 156.9,217.7 L184.4,212.8 L192.8,251" id="Path" fill="#F6B075"></path>
            <path d="M194.8,298.2 L183.4,265.5 L180.8,253.7 L177.9,249.4 C182.4,248.1 187.2,246.7 191.7,245.8 L191.9,246.9 L191.8,247 C184,253.8 186.3,263 188.3,272.1 C188.9,274.8 189.6,277.4 190.5,280 C192.2,286 194.5,291.9 197.4,297.4 L194.8,298 C194.8,298 194.8,298.1 194.8,298.2" id="Path" fill="#E3A26C"></path>
            <path d="M193.3,245.4 C187.6,246.4 181.3,248.3 175.7,249.9 L165.7,231.3 C165.7,231.3 161.1,227.4 160,225.7 C158.8,223.9 156.9,217.6 156.9,217.6 L184.6,212.6 L193.3,245.4" id="Path" fill="#66727A"></path>
            <path d="M175.7,249.9 L175.7,249.9 L173.3,245.4 L175.7,249.9 C176.3,249.7 177,249.5 177.6,249.4 C177,249.6 176.3,249.7 175.7,249.9" id="Path" fill="#ADCEDE"></path>
            <path d="M175.7,249.9 L173.3,245.4 L176.8,237 L181.9,233.3 L181.9,233.3 L182.8,232.7 C180.2,237.7 178.4,243.6 177.7,249.4 C177.7,249.4 177.7,249.4 177.6,249.4 C177,249.6 176.4,249.7 175.7,249.9 M185.1,228.9 L186.4,221.2 L184.6,213.6 C184.7,213.6 184.8,213.6 184.9,213.6 L188.5,227.1 C188.1,227.4 187.7,227.6 187.2,227.8 C187.1,227.8 186.9,227.8 186.8,227.8 C186.3,227.8 185.8,228 185.4,228.5 C185.3,228.7 185.2,228.8 185.1,228.9" id="Shape" fill="#5E6971"></path>
            <path d="M172.8,115.1 C175.8,115.2 180.4,115.4 184.1,115.6 C186.6,115.7 187.8,118.8 186,120.6 L174.4,138.5 L168.4,135.7 C168.4,135.7 164.4,130.7 164.5,126.4 C164.8,121.9 166.9,115 172.8,115.1" id="Path" fill="#633F3C"></path>
            <path d="M171.9,135.9 C174.3,135.9 174.4,132.7 174.4,132.7 C173.7,132.2 173.6,131.2 173.9,129.5 C174.3,126.9 177.2,129.2 177.2,129.2 C178.2,123.8 179.6,123.4 181.1,122.6 C182.9,121.7 186.1,120.6 186.1,120.6 L187.6,125.8 L187.2,127.9 L190.5,132.1 C190.8,132.5 190.7,133 190.3,133.2 L188.3,134.2 L188.6,136.2 L187.8,137.5 L188.4,138.2 L187.8,139.5 L187.5,142.1 C187.4,143.4 186.2,144.3 184.9,144.1 L181.2,143.7 L178.5,151.3 L168.3,144.1 L168.5,135.8 C168.5,135.6 169.5,135.9 171.9,135.9" id="Path" fill="#F6B075"></path>
            <polyline id="Path" fill="#F6B075" points="154.2 255.5 157.1 217 165.6 218.4 186.4 221.3 178.9 232.4 175.4 236.5 164.3 265.8 146.8 296.5 140.5 294.9 149.5 265.8 154.2 255.5"></polyline>
            <polyline id="Path" fill="#ADCEDE" points="140.7 294.2 140.7 294.2 149.5 265.8 140.7 294.2"></polyline>
            <path d="M144.1,294.9 L140.7,294.2 L149.4,265.8 L154.1,255.4 L154.7,247 C159.8,247.9 165.2,248.8 170.3,249.6 L169.6,251.4 C168.9,251.3 168.3,251.2 167.7,251.2 C156.8,251.2 151,266.7 149.3,272.3 C148.1,276.4 145.5,287.8 144.1,294.9" id="Path" fill="#E3A26C"></path>
            <path d="M155.2,228.2 C155,226.1 155.1,224 155.3,221.9 L157,211 L183.5,209.2 L186.4,221.3 L184.7,231.3 L176.8,237 L171.5,249.8 C165.7,249 159.5,247.9 153.8,246.8 L155.4,230.2 L155.2,228.2" id="Path" fill="#66727A"></path>
            <polyline id="Path" fill="#5E6971" points="182.8 232.7 182.8 232.7 184.7 231.3 185.1 228.9 185.1 228.9 184.7 231.3 182.8 232.7"></polyline>
            <polyline id="Path" fill="#576168" points="182 233.3 182.8 232.7 182.8 232.7 182 233.3 182 233.3"></polyline>
            <path d="M159.1,247.9 L159.1,247.9 C157.3,247.6 155.5,247.3 153.7,246.9 L153.7,246.9 L155.3,230.3 L155.1,228.1 C155,227.2 155,226.2 155,225.3 C155,224.1 155.1,222.9 155.2,221.7 L156.4,214 C157.5,214.1 162.2,214.5 168.5,214.5 C170,214.5 171.7,214.5 173.4,214.4 C173.5,214.4 173.5,214.4 173.6,214.4 C173.8,214.4 173.9,214.4 174.1,214.4 C176.8,214.3 179.6,214.1 182.5,213.8 L182.5,213.8 L182.5,213.8 C183.2,213.7 183.9,213.6 184.5,213.6 L186.3,221.2 L185,228.9 L184.6,231.3 L182.7,232.7 L181.8,233.3 C173.3,236.7 164.5,240.6 159.1,247.9" id="Path" fill="#5E6971"></path>
            <path d="M147.7,295.7 L154.4,301.2 C154.7,301.5 159.9,303 159.9,303 C163.3,303.5 162.6,306.7 162.6,306.7 L149.9,306.6 L136.4,303.7 C136,298.9 139.9,294 139.9,294 L147.7,295.7" id="Path" fill="#D9D9D9"></path>
            <path d="M143.4,305.3 L136.4,303.8 C136.4,303.6 136.4,303.3 136.4,303.1 C136.4,303.3 136.4,303.5 136.4,303.8 L143.4,305.3 C143.4,305.2 143.4,305.3 143.4,305.3 M140.7,294.2 L139.9,294 L140.7,294.2 L140.7,294.2" id="Shape" fill="#ADCEDE"></path>
            <polyline id="Path" fill="#D19564" points="144.1 294.9 140.7 294.2 140.7 294.2 144.1 294.9 144.1 294.9"></polyline>
            <path d="M143.4,305.2 L136.4,303.7 C136.4,303.5 136.4,303.3 136.4,303 C136.4,298.4 140,294 140,294 L140,294 L140.8,294.2 L140.8,294.2 L144.2,294.9 L144.2,294.9 L144.1,295 C142.9,298.4 142.8,301.8 143.4,305.2" id="Path" fill="#C8C8C8"></path>
            <path d="M156.4,172.5 C156.4,172.5 156.5,162.3 158.8,155.8 C161,149.4 168.4,143.2 168.4,143.2 C168.4,143.2 177.7,148.4 180.1,151.6 C185.4,158.9 183.7,167.6 184.9,172.5 C185.3,174.3 184.7,199.2 184.7,199.2 L185.5,213.4 C170.3,215.5 156.3,213.9 156.3,213.9 L157.9,196.3 L156.4,172.5" id="Path" fill="#026A9D"></path>
            <path d="M173.5,214.6 C173.6,214.6 173.6,214.6 173.7,214.6 C173.6,214.6 173.5,214.6 173.5,214.6 M174.2,214.6 C176.9,214.5 179.7,214.3 182.6,214 L182.6,214 L182.6,214 C179.7,214.3 176.8,214.5 174.2,214.6" id="Shape" fill="#59646B"></path>
            <path d="M168.6,214.7 C161.3,214.7 156.2,214.1 156.2,214.1 L156.2,214.1 L157.8,196.5 L157.6,194 L157.6,194 C158.9,194 160.3,193.7 161.8,192.9 L171.3,185.2 C171.7,189.2 172.4,193.1 173.7,197 C175.7,203.2 178.8,208.7 182.4,213.9 C179.5,214.2 176.7,214.4 174,214.5 C173.8,214.5 173.7,214.5 173.5,214.5 C173.4,214.5 173.4,214.5 173.3,214.5 C171.8,214.7 170.1,214.7 168.6,214.7 M167,178.6 C168.4,175.9 169.9,172.8 171.2,170 C171.2,172.1 171.1,174.2 171.1,176.3 L167,178.6 M157.1,163.2 C157.5,160.7 158,158.1 158.7,155.9 C159.4,154 160.5,152.1 161.7,150.4 C162.1,150.5 162.4,150.7 162.8,150.8 C159.5,153.7 157.8,158.4 157.3,161.6 L157.1,163.2 M160.7,158.7 C161.5,156.4 163,153.4 165.5,151.8 L165.6,151.8 C163.1,153.5 161.3,157.2 160.7,158.7" id="Shape" fill="#026595"></path>
            <path d="M154.8,203.2 L183.6,203.2 C186.3,203.2 188.5,205.4 188.5,208.1 L188.5,227.7 C188.5,230.4 186.3,232.6 183.6,232.6 L154.8,232.6 C152.1,232.6 149.9,230.4 149.9,227.7 L149.9,208.1 C149.8,205.4 152.1,203.2 154.8,203.2" id="Path" fill="#3F4D57"></path>
            <path d="M170.7,148.3 C182.6,149.6 184,162.8 184,163 L187.3,207.3 L184.8,207.5 L181.5,163.2 C181.5,162.7 180.3,151.8 170.4,150.8 C162,149.8 159.9,161.5 159.8,162 L152.8,206.2 L150.3,205.8 L157.3,161.6 C158.2,156.5 162.1,147.3 170.7,148.3" id="Path" fill="#3F4D57"></path>
            <path d="M160.5,159.4 C160.5,159.4 163.8,150.1 169.1,151.2 C174.3,152.3 175.1,155 174.8,160.2 C174.5,165.3 161.9,188.4 161.9,188.4 C161.9,188.4 155.9,188.2 152.2,186.9 L152.2,186.8 L160.5,159.4" id="Path" fill="#F6B075"></path>
            <path d="M152.2,186.8 L152.2,186.8 L152.2,186.8 L160.5,159.3 C160.5,159.3 163.4,151.1 168.1,151 L168.3,151 C168.6,151 168.8,151 169.1,151.1 C173.7,152.1 174.9,154.3 174.9,158.5 C174.9,159 174.9,159.5 174.9,160.1 C174.8,163 170.7,171.6 167.2,178.5 L156.9,184.2 C157,184.1 157.1,184.1 157.1,184 L157.1,184 L152.2,186.8" id="Path" fill="#E3A26C"></path>
            <path d="M169.1,151.2 C174.3,152.3 175.1,155 174.8,160.2 C174.7,162.6 172,168.7 169,174.6 C164.9,173.6 160.8,172.6 156.8,171.5 L160.4,159.4 C160.5,159.4 163.8,150.1 169.1,151.2" id="Path" fill="#026A9D"></path>
            <path d="M184.1,166 C184.6,165.9 185.2,166 185.5,166.4 C186.7,167.7 187.9,169.9 188.7,170.9 C189,171.3 189.1,171.9 188.8,172.4 L187,175.6 L181,177.7 L177.5,173.5 L180.2,167.2 L184.1,166 Z" id="Path" fill="#F6B075"></path>
            <path d="M180.4,163.8 C182.2,164.2 181.7,166.8 181.7,166.8 L177.8,173.1 L179,166.5 L180.4,163.8 Z" id="Path" fill="#F6B075"></path>
            <path d="M178.8,172 L181.7,176.9 L161.9,192.9 C155.1,196.1 150.9,191.4 152.2,186.8 L178.8,172" id="Path" fill="#F6B075"></path>
            <path d="M152.2,186.8 L157,184.1 L157,184.1 C157,184.1 156.9,184.2 156.8,184.3 L152.2,186.8" id="Path" fill="#D19564"></path>
            <path d="M153.6,192.4 C152.6,191.4 152,190.1 151.9,188.6 L151.9,188.1 C151.9,187.8 151.9,187.6 152,187.3 L152,187.3 C152,187.2 152,187.2 152,187.1 L152,187.1 L152,187 L152,187 C152,186.9 152,186.9 152,186.8 L152,186.8 L156.5,184.3 C155.8,185 152.2,187.6 153.6,192.4" id="Path" fill="#E3A26C"></path>
            <path d="M201.5,296.3 L212,299 C212.4,299.2 217.8,299.1 217.8,299.1 C221.2,298.5 221.5,301.8 221.5,301.8 L210.3,305.6 L195.7,306.9 C193.9,302.4 194.9,298.1 194.9,298.1 L201.5,296.3" id="Path" fill="#D9D9D9"></path>
            <path d="M195.6,306.9 C194.8,305 194.5,303 194.5,301.5 L194.5,301.5 C194.6,303 194.8,304.9 195.6,306.9 L201.7,306.4 L201.7,306.4 L201.7,306.4 L195.6,306.9" id="Path" fill="#ADCEDE"></path>
            <polyline id="Path" fill="#E3A26C" points="197.4 297.4 197.4 297.4 197.8 297.3 197.8 297.3 197.4 297.4"></polyline>
            <polyline id="Path" fill="#D19564" points="194.8 298 197.4 297.4 197.4 297.4 194.8 298"></polyline>
            <path d="M195.6,306.9 C194.8,305 194.5,303 194.5,301.5 L194.5,300.6 C194.5,299.1 194.8,298.1 194.8,298.1 L194.8,298.1 L197.4,297.5 L197.8,297.4 C197.8,297.5 197.8,297.6 197.8,297.6 C198.4,300.9 199.6,304.1 201.7,306.4 L195.6,306.9" id="Path" fill="#C8C8C8"></path>
            <path d="M154.5,203.2 L183.8,203.2 C186.4,203.2 188.5,205.3 188.5,207.9 L188.5,218 C188.5,220 187,221.7 185,221.9 C180.2,222.4 171.9,223.1 168.4,223.1 C165.2,223.1 157.8,222.4 153.4,221.9 C151.4,221.7 149.9,220 149.9,218 L149.9,207.8 C149.8,205.3 151.9,203.2 154.5,203.2" id="Path" fill="#4C5E6A"></path>
            <polyline id="Path" fill="#44515B" points="1038.9 296.1 1038.8 296.1 1033.1 295.8 1033.1 295.8 1038.9 296.1"></polyline>
            <path d="M731.7,239.8 L731.2,239.5 L731.2,239.3 C731.1,238.8 731.1,238.3 731,237.8 C730.9,236.8 730.8,235.9 730.8,234.9 C730.1,234.7 729.5,234.5 728.8,234.2 L728.8,234.7 C728.8,235.7 728.8,236.8 728.9,237.8 C732.4,240.3 735.7,242.7 738.5,244.8 C743.9,248.8 747.4,251.5 747.4,251.5 L745.9,253.4 C746.5,253.3 747.1,253.2 747.8,253.1 C747.9,252.5 748,251.8 748.2,251.1 C746.6,250 744.1,248.3 741.1,246.2 C738.3,244.4 735.1,242.1 731.7,239.8" id="Path" fill="#683328"></path>
            <path d="M797.5,274 C797.1,274.1 796.9,274.2 796.9,274.2 L796,271.5 C795.3,272.7 794.6,273.8 794,274.9 C793.3,276.1 792.8,277.2 792.2,278.2 C791.7,279.2 791.2,280.2 790.8,281 C790.4,281.9 790,282.6 789.8,283.2 C789.6,283.6 789.5,283.9 789.4,284.2 C790.6,282.7 793.3,279.9 796.9,278.6 C797.2,278.5 797.5,278.4 797.8,278.3 C798,277.8 798.2,277.4 798.4,276.9 C798.9,275.7 799.4,274.5 800,273.2 C800.1,273 800.1,272.9 800.2,272.7 C799.8,272.9 799.4,273.1 799.1,273.2 C798.3,273.6 797.8,273.8 797.5,274" id="Path" fill="#683328"></path>
            <path d="M767.6,308.4 C767.3,309 767.1,309.7 766.9,310.3 C766.4,311.6 766.1,312.8 765.8,314 C765.6,314.6 765.5,315.2 765.4,315.8 C765.3,316.4 765.2,316.9 765.1,317.5 C765,317.9 765,318.3 764.9,318.6 C764.9,318.7 764.9,318.9 764.8,319 C764.7,319.5 764.7,320 764.7,320.4 C764.6,321.3 764.6,322.1 764.6,322.7 C764.6,323.4 764.6,323.9 764.6,324.3 C764.6,324.7 764.6,324.8 764.6,324.8 L767.7,324.4 L768,324.4 L768,324.3 C768,324.2 768,324.1 767.9,324 C767.9,323.7 767.8,323.3 767.8,322.7 C767.8,322.1 767.7,321.4 767.7,320.6 C767.7,320.2 767.7,319.8 767.7,319.3 C767.7,318.8 767.8,318.4 767.8,317.9 C767.8,317.4 767.9,316.9 768,316.3 C768.1,315.8 768.1,315.2 768.2,314.6 C768.4,313.5 768.6,312.2 769,311 C769.2,310.4 769.3,309.7 769.5,309.1 C769.7,308.5 769.9,307.8 770.1,307.2 L770.2,307.1 C769.6,307 768.9,306.9 768.1,306.7 C768.1,307.2 767.9,307.8 767.6,308.4" id="Path" fill="#683328"></path>
            <path d="M809.7,311.9 C807.4,314 804.9,314.8 802.6,314.8 C801.2,314.8 799.9,314.5 798.7,314.2 C795.2,315.1 792.6,316 791.3,316.2 C791,316.3 790.7,316.3 790.5,316.3 C789.1,316.3 788.2,315.5 787.8,314.7 C786.8,315 785.6,315.2 784.4,315.4 C785,317.8 785.5,320 785.2,320.4 C784,322 782.3,323.6 780.6,325.6 C778.6,328 775.1,331.3 771.8,334 C772,334.8 772.2,335.5 772.4,336.2 C772.7,337.5 772.8,338.7 772.8,339.6 C772.8,340 772.8,340.4 772.7,340.7 C772.7,341 772.6,341.1 772.6,341.1 L766.5,340 L766.5,339.9 C766.5,339.8 766.5,339.7 766.5,339.5 C766.5,339.2 766.5,338.6 766.4,337.9 C765.6,338.4 765,338.7 764.5,338.9 C764.3,338.9 764.2,339 764,339 C760.4,339 750.4,328.6 746.4,323.3 C742.2,317.7 744,317 742.9,313.9 C742.5,312.6 743.1,310.8 744,309 L743.9,309 C741.4,311.9 738.5,312.9 735.8,312.9 C735.6,312.9 735.5,312.9 735.3,312.9 C736.9,314.4 738,315.7 738,315.7 C741.1,327.5 749.1,334.5 756.8,342.1 C764.5,349.7 757.2,363.3 756.5,374.4 C755.9,383.8 752.6,384.5 751.6,384.5 C751.4,384.5 751.3,384.5 751.3,384.5 L741.6,385.9 C741.6,385.9 748,388 752.7,388 C753.1,388 753.4,388 753.7,388 C757.7,387.7 759.6,383.9 763.4,383.9 C764.2,383.9 765.2,384.1 766.2,384.5 C768.4,385.4 771.3,385.7 774.2,385.7 C779.2,385.7 783.9,384.9 783.9,384.9 C783.9,384.9 779.7,384.2 774.2,382.5 C768.6,380.8 771.8,367.2 771.8,357.1 C771.8,347 775.3,339 779.4,334.2 C783.6,329.3 789.8,321.7 791.9,319.6 C794,317.5 809.6,314.4 817.6,314 C818.2,314 818.7,313.9 819.2,313.9 C816.3,313.8 813.6,312.7 812,311.9 C811.3,311.7 810.5,311.8 809.7,311.9" id="Path" fill="#683328"></path>
            <path d="M737.5,248.9 C736.1,248.1 734.5,247.2 732.8,246.3 C731.1,245.4 729.3,244.6 727.5,243.7 C725.6,242.8 723.7,242 721.7,241.2 C719.7,240.4 717.7,239.6 715.6,238.8 C713.9,238.2 712.2,237.6 710.6,237 C709.7,237.2 708.9,237.3 708,237.3 C705.7,237.3 703.8,236.7 703.2,236.5 C705,237.2 706.8,238 708.6,238.7 C710.6,239.5 712.5,240.4 714.5,241.3 C716.4,242.2 718.4,243.2 720.3,244.1 C722.1,245.1 724,246 725.7,247 C727.4,248 729,248.9 730.6,249.9 C731.3,249.8 732,249.7 732.7,249.7 C735.8,249.7 739.3,250.8 741.8,254.6 C741.8,254.6 742.5,254.3 743.7,253.9 C742.6,252.8 741.1,251.5 739.5,250 C738.7,249.7 738.1,249.3 737.5,248.9" id="Path" fill="#683328"></path>
            <path d="M750.8,238.7 C750.7,239.3 750.5,239.9 750.4,240.5 C750,242.1 749.7,243.7 749.4,245.3 C749.1,246.8 748.8,248.2 748.5,249.6 C748.4,250.2 748.3,250.7 748.2,251.3 C748.1,252 747.9,252.7 747.8,253.3 C748.3,253.2 748.9,253.2 749.5,253.2 C750.1,253.2 750.7,253.2 751.3,253.3 C751.3,253.3 751.5,253.1 751.8,252.9 C752.1,252.7 752.5,252.4 753,252 C753,251.5 753.1,251 753.2,250.4 C753.3,249.1 753.5,247.6 753.6,246.1 C753.8,244.6 754,243 754.2,241.3 L754.2,241.2 L754.1,241.3 L750.8,238.7 Z" id="Path" fill="#683328"></path>
            <path d="M753.7,227.5 C753.4,228.4 753.2,229.3 752.9,230.2 C752.7,231.1 752.4,231.9 752.2,232.8 C752,233.7 751.8,234.5 751.5,235.4 C751.2,236.5 751,237.5 750.7,238.5 L750.8,238.4 C751,238.2 751.2,238 751.5,237.7 C752.1,237.1 752.9,236.3 753.9,235.4 C754.2,235.1 754.5,234.9 754.9,234.6 C755,234.2 755,233.8 755.1,233.4 C755.2,232.5 755.4,231.7 755.5,230.8 C755.7,229.6 755.9,228.5 756.1,227.4 L755.9,227.4 C755.2,227.4 754.4,227.4 753.7,227.5" id="Path" fill="#683328"></path>
            <path d="M768.4,240.8 C764.8,243.1 761.5,245.4 758.8,247.3 C756.5,249 754.6,250.4 753.3,251.4 C753.2,251.5 753.1,251.6 752.9,251.7 C752.4,252.1 752,252.4 751.7,252.6 C751.4,252.9 751.2,253 751.2,253 C753.1,253.2 755,253.9 756.7,255.4 L756.7,255.4 C757.9,254.3 759.6,252.7 761.7,250.9 C764.4,248.6 767.6,245.8 771.3,243.1 C769.8,242.5 768.9,241.7 768.4,240.8" id="Path" fill="#683328"></path>
            <path d="M762.2,229.8 L761,230.4 C760.6,230.6 760.2,230.9 759.9,231.1 C759.1,231.5 758.4,232 757.7,232.5 C757,233 756.3,233.5 755.7,233.9 C755.5,234.1 755.2,234.3 755,234.5 C754.7,234.8 754.3,235.1 754,235.3 C753,236.2 752.1,237 751.6,237.6 C751.3,237.9 751.1,238.1 750.9,238.3 L750.8,238.4 L750.7,238.5 L750.8,238.5 L754.1,241 L754.2,240.9 L754.3,240.8 C754.4,240.7 754.5,240.4 754.7,240.1 C755.1,239.5 755.7,238.7 756.6,237.8 C757,237.3 757.5,236.8 757.9,236.3 C758.4,235.8 758.9,235.2 759.5,234.7 C760.1,234.2 760.7,233.6 761.3,233.1 C761.6,232.8 762,232.6 762.3,232.3 L763.3,231.5 C764,231 764.7,230.5 765.4,230.1 C765.8,229.8 766.3,229.5 766.8,229.3 C765.8,229.1 765,229 764.3,228.8 C763.5,229.2 762.8,229.5 762.2,229.8" id="Path" fill="#683328"></path>
            <path d="M728.9,237.8 C725.6,235.4 722.2,233 718.7,230.5 C718.1,230.7 717.5,231.1 717.1,231.5 C717.3,231.6 717.4,231.8 717.6,231.9 C723,236.1 728.3,240.3 732.8,244 C734.2,245.1 735.5,246.2 736.7,247.2 C740.6,250.4 743.4,252.8 744.6,253.8 C745,253.7 745.4,253.6 745.9,253.5 L747.4,251.6 C747.4,251.6 743.9,248.9 738.5,244.9 C735.7,242.8 732.4,240.4 728.9,237.8" id="Path" fill="#683328"></path>
            <path d="M797.2,257.2 C797.2,256.7 797.1,256.1 797,255.6 C796,255.4 795.1,255.2 794.3,254.8 C794.3,255.6 794.3,256.4 794.3,257.3 C794.3,258.2 794.3,259.2 794.2,260.1 C794.1,262 793.9,263.9 793.6,265.7 C793.3,267.5 793,269.3 792.6,271 C792.2,272.7 791.8,274.3 791.3,275.9 C790.8,277.4 790.3,278.9 789.8,280.1 C789,282 788.3,283.7 787.6,285 C788.2,285.1 788.6,285.2 788.6,285.2 C788.6,285.2 788.9,284.8 789.4,284.1 C789.5,283.8 789.7,283.5 789.8,283.1 C790.1,282.5 790.4,281.7 790.8,280.9 C791.2,280 791.7,279.1 792.2,278.1 C792.7,277.1 793.3,276 794,274.8 C794.6,273.7 795.3,272.6 796,271.4 L795.4,269.5 C795.4,269.5 795.6,269.5 795.9,269.4 C796.2,269.3 796.7,269.2 797.2,269 C797.3,268 797.3,267.1 797.4,266.1 C797.5,264.1 797.5,262.2 797.4,260.2 C797.4,259.2 797.3,258.2 797.2,257.2" id="Path" fill="#683328"></path>
            <path d="M804.1,260.2 C803.1,261.3 802.2,262.6 801.2,263.8 C800.3,265 799.4,266.3 798.5,267.5 C798.2,267.9 797.9,268.4 797.6,268.8 C798.8,268.4 800.5,267.8 802.4,267 C802.6,266.9 802.8,266.8 803.1,266.7 C803.3,266.3 803.6,265.8 803.8,265.4 C804.6,264.1 805.3,262.8 806.1,261.6 C806.4,261.2 806.7,260.7 806.9,260.3 C806,260.1 805.2,259.8 804.6,259.4 C804.5,259.8 804.3,260 804.1,260.2" id="Path" fill="#683328"></path>
            <path d="M813.3,261.8 C812,262.6 810.7,263.3 809.5,263.9 C807.2,265.1 805.1,266.1 803.1,266.9 C802.9,267 802.6,267.1 802.4,267.2 C800.5,268 798.8,268.5 797.6,269 C797.5,269 797.4,269.1 797.3,269.1 L797.2,269.1 C796.6,269.3 796.2,269.4 795.9,269.5 C795.6,269.6 795.4,269.6 795.4,269.6 L796,271.5 L796.9,274.2 C796.9,274.2 797.1,274.1 797.5,274 C797.9,273.9 798.4,273.6 799,273.4 C799.3,273.2 799.7,273.1 800.1,272.9 C801.2,272.4 802.6,271.7 804.2,270.9 C806.3,269.8 808.7,268.4 811.2,266.8 C812.4,266 813.7,265.1 815,264.2 C816.3,263.3 817.5,262.3 818.7,261.3 C819.9,260.3 821.1,259.2 822.2,258.2 C822.4,258 822.6,257.9 822.7,257.7 C820.3,258.8 818.2,259.5 816.3,260 C815.3,260.6 814.3,261.2 813.3,261.8" id="Path" fill="#683328"></path>
            <path d="M771.7,333.9 C771,331.7 770,329.1 768.7,326.2 C768.5,325.6 768.2,325.1 767.9,324.5 L764.8,324.9 C764.8,324.9 764.8,324.7 764.8,324.4 C764.8,324 764.8,323.5 764.8,322.8 C764.8,322.1 764.8,321.4 764.9,320.5 C764.9,320.1 765,319.6 765,319.1 C765,319 765,318.8 765.1,318.7 C763.5,315.7 761.8,312.5 759.9,309.2 C758.8,310.1 757.6,310.7 756.4,311.1 C759.4,317.3 762.1,323.3 763.9,328.2 C765.3,332 766.2,335.2 766.5,337.2 C766.5,337.4 766.6,337.5 766.6,337.7 C766.7,338.5 766.7,339 766.7,339.3 C766.7,339.5 766.7,339.6 766.6,339.7 L766.6,339.8 L772.7,340.9 C772.7,340.9 772.7,340.8 772.7,340.5 C772.7,340.2 772.8,339.9 772.8,339.4 C772.8,338.5 772.7,337.3 772.4,336 C772.1,335.4 771.9,334.7 771.7,333.9" id="Path" fill="#683328"></path>
            <path d="M817.6,184.2 C815.8,184.2 813.7,184.5 811.2,185.3 C811.2,185.3 809.2,181.1 804.1,181.1 C802.6,181.1 800.9,181.4 798.9,182.3 C798.9,182.3 797.5,176.8 792.9,176.8 C791.5,176.8 789.8,177.3 787.8,178.6 C787.8,178.6 788.4,174.3 783.8,174.3 C783.4,174.3 782.9,174.3 782.4,174.4 C782.4,174.4 780.3,167.2 774,167.2 C772.7,167.2 771.3,167.5 769.7,168.2 C769.7,168.2 765.5,165.5 761.3,165.5 C758.4,165.5 755.5,166.8 753.8,171 C753.1,172.8 752.6,174.1 752.2,175 C751.5,174.5 749,172.7 745.5,172.7 C743.4,172.7 741.1,173.3 738.5,175.2 C738.5,175.2 734.9,169.6 728.7,169.6 C726.7,169.6 724.4,170.2 721.9,171.7 C711.5,178 713.3,179.1 711.2,183.3 C711.2,183.3 711,183.3 710.7,183.3 C708.9,183.3 702.3,183.8 700.3,191 C700.3,191 697.8,192.9 700.8,195.6 C700.8,195.6 701.8,200.1 699.4,200.1 C699.2,200.1 699,200.1 698.7,200 C697.3,199.6 695.4,199.2 693.3,199.2 C690.5,199.2 687.4,200 684.3,202.6 C679,207.2 679.9,209.6 681.5,212.1 C681.5,212.1 682.7,214.2 679.4,215.3 C676.2,216.5 670.1,219.5 671.5,223.6 C671.5,223.6 661.8,233.8 667.1,235.9 C667.1,235.9 666,240.4 669.1,242 L669.2,242 C669.6,242 670.1,241.9 670.6,241.8 C671.1,242 671.6,242.2 672.2,242.2 C672.5,242.2 672.8,242.2 673.1,242.2 C676.6,242.2 680,240.9 682.2,238.2 C683.2,237 683.8,235.7 684.2,234.4 C684.4,234.5 684.7,234.6 685,234.6 C686.8,235 688.7,235.2 690.6,235.2 C693.4,235.2 696.2,234.6 698.5,233 C701.8,230.7 702.6,227.2 702,223.8 C702.6,224.2 703.2,224.5 704.1,224.7 C706.2,225 708.4,225.2 710.6,225.2 C714,225.2 717.4,224.7 720.5,223.3 C722.7,222.3 724.4,220.8 725.4,219 L725.6,219.3 C728.2,222.1 732.1,224.2 736,224.2 C736.4,224.2 736.7,224.2 737.1,224.1 C741.2,223.7 743.8,220.8 744.4,217.1 C753.6,216.3 763.1,214.3 767.7,208.2 C769,209 770.4,209.5 771.9,209.5 C772.9,209.5 773.8,209.3 774.8,208.9 C775.1,211 775.9,213.1 777.5,214.6 C778.9,215.9 780.8,216.6 782.7,216.6 C783.6,216.6 784.6,216.4 785.5,216.1 C788,215.2 790.1,213.6 791.7,211.4 C791.9,211.2 792,210.9 792.2,210.7 C793.7,210.9 795.2,211 796.6,211 C800.3,211 803.9,210.2 807.1,208 C811.4,205.1 814,200.9 815.2,196.1 C816.7,195.9 818.1,195.5 819.5,194.7 C821.7,193.4 823.3,191.4 824.1,189 C824.4,188.2 824.5,187.4 824.5,186.6 C826.2,187.9 826.9,189.4 827.1,189.8 C826.9,188.8 824.6,184.2 817.6,184.2" id="Path" fill="#3A8835"></path>
            <path d="M845,197 C843,195.6 840.8,195.1 838.8,195.1 C834.2,195.1 830.4,197.7 830.4,197.7 C830.4,197.7 833.2,190.5 827.2,189.6 L827.2,189.5 C827,189.1 826.3,187.6 824.6,186.3 C824.6,187.1 824.4,187.9 824.2,188.7 C823.4,191.1 821.8,193.1 819.6,194.4 C818.2,195.2 816.8,195.6 815.3,195.8 C814.1,200.6 811.5,204.9 807.2,207.7 C804,209.9 800.4,210.7 796.7,210.7 C795.3,210.7 793.8,210.6 792.3,210.4 C792.1,210.7 792,210.9 791.8,211.1 C790.2,213.3 788.1,214.8 785.6,215.8 C784.7,216.1 783.7,216.3 782.8,216.3 C780.9,216.3 779.1,215.6 777.6,214.3 C776,212.9 775.2,210.8 774.9,208.6 C773.9,209 772.9,209.2 772,209.2 C770.5,209.2 769.1,208.7 767.8,207.9 C763.2,214 753.7,216 744.5,216.8 C743.9,220.5 741.3,223.4 737.2,223.8 C736.8,223.8 736.5,223.9 736.1,223.9 C732.2,223.9 728.3,221.9 725.7,219 L725.4,218.7 C724.3,220.5 722.7,222 720.5,223 C717.4,224.4 714,224.9 710.6,224.9 C708.4,224.9 706.2,224.7 704.1,224.4 C703.3,224.3 702.6,224 702,223.5 C702.6,227 701.8,230.4 698.5,232.7 C696.2,234.3 693.4,234.9 690.6,234.9 C688.7,234.9 686.8,234.6 685,234.3 C684.7,234.2 684.5,234.2 684.2,234.1 C683.8,235.4 683.2,236.7 682.2,237.9 C680,240.7 676.6,241.9 673.1,241.9 C672.8,241.9 672.5,241.9 672.2,241.9 C671.6,241.9 671.1,241.7 670.6,241.5 C670.1,241.7 669.7,241.7 669.2,241.7 L669.1,241.7 C669.7,242 670.5,242.3 671.5,242.3 L671.5,242.3 L671.6,242.3 L671.6,242.3 L671.6,242.3 L671.6,242.3 L671.6,242.3 L671.7,242.3 C671.7,242.3 674.7,243.2 678.3,243.2 C682.3,243.2 686.8,242.1 688.4,237.5 C688.4,237.5 691.6,239.3 695.5,239.3 C697.9,239.3 700.6,238.6 702.9,236.4 C702.9,236.4 705.1,237.2 707.9,237.2 C710.2,237.2 712.9,236.6 715,234.5 C715,234.5 715.1,234.2 715.3,233.7 L715.3,233.7 L715.4,233.6 C716,232.3 717.5,230.2 720.3,230.2 C720.9,230.2 721.6,230.3 722.4,230.6 C723,230.8 728.7,235.4 733.8,235.4 C734.4,235.4 735.1,235.3 735.7,235.2 C735.8,235.2 736,235.1 736.1,235.1 C736.1,235.1 746.3,232.1 747.9,228.4 C747.9,228.4 751.8,227.5 755.9,227.5 C758,227.5 760.1,227.7 761.8,228.4 C761.8,228.4 767.9,230 774.1,230.2 C777.8,228.5 781.6,228.2 783.9,228.2 C785.1,228.2 785.9,228.3 785.9,228.3 C790.8,225.9 794.7,225.1 797.7,225.1 C802.5,225.1 804.9,227 804.9,227 C808,225.2 810.8,224.6 813.1,224.6 C815.3,224.6 817,225.1 818.2,225.7 C819.4,225.1 820.4,224.2 820.6,222.6 C820.6,222.6 822.1,222.9 823.8,222.9 C826.1,222.9 828.8,222.3 828.8,219.4 C828.8,219.1 828.8,218.7 828.7,218.4 C828.7,218.4 844.5,217.9 844.5,212.1 C844.6,212.1 851.8,201.7 845,197" id="Path" fill="#275A38"></path>
            <path d="M773.7,260.5 C772.8,259.7 771.6,259.4 770.1,259.4 C765.9,259.4 760.5,261.9 760.5,261.9 C759.6,258.9 758.3,256.9 756.7,255.5 C755,254 753.1,253.3 751.2,253.1 C750.6,253 750,253 749.4,253 C748.8,253 748.2,253 747.7,253.1 C747,253.2 746.4,253.3 745.8,253.4 C745.4,253.5 744.9,253.6 744.5,253.7 C744.1,253.8 743.8,253.9 743.5,254 C742.4,254.4 741.6,254.7 741.6,254.7 C739.1,250.9 735.6,249.8 732.5,249.8 C731.8,249.8 731.1,249.9 730.4,250 C727,250.5 724.4,252 724.4,252 C724.4,251.1 718.7,246.9 712.4,246.9 C712.1,246.9 711.8,246.9 711.4,246.9 C704.7,247.4 706.8,254.8 706.8,254.8 C706.8,254.8 704.8,253.7 701.4,253.7 C699.9,253.7 698,253.9 695.9,254.6 C689.2,256.7 694,262.7 694,262.7 C690,275.9 702.4,277.9 710.4,277.9 C713.9,277.9 716.5,277.5 716.5,277.5 C716.5,277.5 718,280.6 721,283.1 C721.5,283.2 721.7,283.3 721.7,283.3 C721.7,283.3 724.9,278.5 730,276.6 C731.5,276 733.2,275.8 734.9,275.8 C739.3,275.8 743.5,277.3 743.5,277.3 C746.3,275.7 749,275.1 751.6,275.1 C759.1,275.1 764.9,280.4 764.9,280.4 C765.6,280.3 766.2,280.2 766.8,280.2 C767.3,280.2 767.8,280.2 768.2,280.3 C768.7,277.9 768.5,275.6 768.5,275.6 C768.5,275.6 785,271.2 773.7,260.5" id="Path" fill="#275A38"></path>
            <path d="M839.9,293.4 C839.9,293.4 842.3,282.2 833.6,282.2 C833,282.2 832.4,282.2 831.7,282.4 C831.7,282.4 825.9,277.1 818.4,277.1 C815.9,277.1 813.1,277.7 810.3,279.3 C810.3,279.3 806.2,277.8 801.7,277.8 C800.4,277.8 799,277.9 797.7,278.3 C797.4,278.4 797.1,278.5 796.8,278.6 C793.2,280 790.6,282.7 789.3,284.2 C788.8,284.8 788.5,285.3 788.5,285.3 C788.5,285.3 788.2,285.2 787.5,285.1 C785.7,284.7 781.8,283.9 777.6,283.9 C776,283.9 774.3,284 772.8,284.3 C773.9,287.5 773,291.3 773,291.3 C773,291.3 788.8,297.7 776.2,306.9 C776.1,307 776,307.1 775.8,307.1 C775.3,308.7 774,314 779.6,315 C780.5,315.2 781.5,315.3 782.4,315.3 C783,315.3 783.6,315.3 784.2,315.2 C785.4,315.1 786.5,314.8 787.5,314.5 C790.7,313.6 793.1,312 793.1,311.5 C793.1,311.5 795.3,313.1 798.4,314.1 C799.6,314.5 800.9,314.7 802.3,314.7 C804.7,314.7 807.2,314 809.4,311.9 C809.7,311.6 810.1,311.3 810.4,310.9 C810.4,310.9 810.9,311.2 811.8,311.6 C813.4,312.4 816.1,313.5 819,313.6 C819.2,313.6 819.3,313.6 819.5,313.6 C823.3,313.6 827.3,311.9 829.9,306 C829.9,306 835.9,309.7 840.2,309.7 C841.2,309.7 842.1,309.5 842.9,309 C855.7,299.8 839.9,293.4 839.9,293.4" id="Path" fill="#275A38"></path>
            <path d="M773.2,291.3 C773.2,291.3 774,287.5 773,284.3 C772.3,282.4 771,280.7 768.3,280.2 C767.9,280.1 767.4,280.1 766.9,280.1 C766.3,280.1 765.7,280.2 765,280.3 C765,280.3 759.2,275 751.7,275 C749.2,275 746.4,275.6 743.6,277.2 C743.6,277.2 739.4,275.7 735,275.7 C733.3,275.7 731.6,275.9 730.1,276.5 C725,278.4 721.8,283.2 721.8,283.2 C721.8,283.2 721.6,283.1 721.1,283 C719.5,282.6 715.3,281.7 711,281.7 C703.7,281.7 695.8,284.1 697.7,295.1 C697.7,295.1 692.1,300.5 698.6,303.4 C701.4,304.7 703.9,305 705.8,305 C708.1,305 709.5,304.4 709.5,304.4 C709.5,304.4 706.5,311.5 713.2,312.8 C714.1,313 715,313.1 715.9,313.1 C721.5,313.1 726.6,310.1 726.6,309.3 C726.6,309.3 730.6,312.3 735.4,312.4 C735.6,312.4 735.7,312.4 735.9,312.4 C738.6,312.4 741.5,311.5 744,308.5 L744.1,308.5 C744.6,308.8 748.6,311.2 753.2,311.2 C754.3,311.2 755.3,311.1 756.4,310.7 C757.6,310.3 758.8,309.7 759.9,308.8 C761.2,307.7 762.5,306.1 763.5,303.9 C763.6,303.8 763.6,303.7 763.6,303.6 C763.6,303.6 767.1,305.8 770.7,306.8 C771.8,307.1 772.9,307.3 773.9,307.3 C774.7,307.3 775.5,307.2 776.2,306.8 C776.3,306.7 776.5,306.7 776.6,306.6 C789,297.7 773.2,291.3 773.2,291.3" id="Path" fill="#3A8835"></path>
            <path d="M845.3,240.2 C845.3,240.2 848.2,230.2 838.5,230.2 C837.9,230.2 837.2,230.2 836.4,230.3 C836.4,230.3 833.6,225 827,225 C825,225 822.8,225.5 820.1,226.7 C820.1,226.7 819.4,226.1 818.2,225.6 C817,225.1 815.3,224.5 813.1,224.5 C810.8,224.5 808,225.1 804.9,226.9 C804.9,226.9 802.5,225 797.7,225 C794.7,225 790.8,225.8 785.9,228.2 C785.9,228.2 785.1,228.1 783.9,228.1 C781.6,228.1 777.7,228.4 774.1,230.1 C772.1,231 770.2,232.4 768.6,234.3 C768.6,234.3 766.5,237.8 768.3,240.7 C768.9,241.6 769.7,242.4 771.2,243.1 C771.6,243.3 772.1,243.5 772.7,243.7 C772.7,243.7 773.1,251.3 780.9,251.3 C783.2,251.3 786,250.7 789.7,249 C789.7,249 790.3,253 794.3,254.8 C795.1,255.2 796,255.4 797,255.6 C797.6,255.7 798.3,255.7 799,255.7 C799.7,255.7 800.4,255.7 801.1,255.6 C801.1,255.6 801.8,258 804.6,259.5 C805.3,259.9 806,260.2 806.9,260.4 C807.8,260.6 808.9,260.8 810.2,260.8 C811.9,260.8 813.8,260.5 816.1,259.9 C818,259.4 820.1,258.6 822.5,257.6 C823.3,257.2 824.2,256.8 825.1,256.4 C825.1,256.4 827.7,257.1 830.8,257.1 C835,257.1 840,255.8 840.6,249.5 C840.7,249.6 852.4,246.8 845.3,240.2" id="Path" fill="#275A38"></path>
            <path d="M710.2,388.1 C709.1,388 708,388.4 707.9,388.7 L707.7,389.1 L708.1,390 C708.1,390 709.9,391.3 712.2,391.1 C714.4,390.9 715.4,390.5 716.4,390.6 C717.5,390.7 720.5,391.2 720.7,390.2 C720.8,389.5 721,387.4 721,387.4 L714.1,386.3 C714.1,386.3 711.3,388.1 710.2,388.1" id="Path" fill="#F4F3F4"></path>
            <path d="M712.1,391 L711.3,391 C710.9,391 710.4,390.9 710.1,390.8 C712,390.4 713.9,389.7 715.2,388.5 C715.4,388.5 715.7,388.4 715.9,388.4 C716,388.4 716.1,388.4 716.3,388.3 C718.1,387.9 719.4,387.3 720.6,387.3 C720.7,387.3 720.8,387.3 720.9,387.3 L720.9,387.3 C719.8,388 718.7,388.7 718,389.1 C717.3,389.5 716.5,389.8 716,389.8 L716,389.8 C715.9,389.8 715.8,389.8 715.8,389.8 C714.8,389.8 713.9,390.1 713.7,390.4 L713.5,390.7 C713,391 712.6,391 712.1,391 L712.1,391" id="Path" fill="#E3E2E3"></path>
            <path d="M725.9,376.6 C725.9,376.6 720.1,382.3 719,383.1 C717.9,383.9 712.1,387.1 711.7,387.7 C711.7,387.7 712.9,389 716.4,388.3 C718.4,387.9 719.8,387.2 721.1,387.3 C721.1,387.3 721.2,386.1 721.6,385.5 C722.1,384.9 729.9,380.1 729.9,380.1 C729.9,380.1 729.2,375.9 725.9,376.6" id="Path" fill="#EDC7B2"></path>
            <path d="M715.9,388.4 C716,388.4 716.1,388.4 716.3,388.3 C718.1,387.9 719.4,387.3 720.6,387.3 C720.7,387.3 720.8,387.3 720.9,387.3 L720.9,387.3 C720.8,387.3 720.7,387.3 720.6,387.3 C719.4,387.3 718.1,387.9 716.3,388.3 C716.2,388.4 716,388.4 715.9,388.4" id="Path" fill="#D3D2D3"></path>
            <path d="M729.8,380.2 C729.8,380.2 729.8,380.1 729.7,379.9 C729.8,380.1 729.8,380.2 729.8,380.2" id="Shape" fill="#AFCFE0"></path>
            <path d="M715.4,388.5 L715.4,388.5 C716.4,388 717.4,387.3 718.3,386.3 C720.3,384.1 721.8,383 724.2,381.5 C725.7,380.6 727,379.6 727.9,378.1 C728.1,377.8 728.1,377.4 728.1,377.1 C729.1,377.8 729.6,379.1 729.7,379.9 L729.7,379.9 C729.7,379.9 729.7,379.9 729.7,380 L729.7,380 L729.7,380 C729.7,380.2 729.8,380.3 729.8,380.3 L729.8,380.3 C729.8,380.3 722,385.1 721.5,385.7 C721,386.3 721,387.5 721,387.5 L721,387.5 C720.9,387.5 720.8,387.5 720.7,387.5 C719.5,387.5 718.2,388.1 716.4,388.5 C716.3,388.5 716.1,388.6 716,388.6 C715.7,388.4 715.6,388.5 715.4,388.5" id="Path" fill="#DCB9A6"></path>
            <path d="M758.6,351.2 C758.6,351.2 760.8,353.5 762.9,353.1 L763.5,351 L760.3,349.2 C760.2,349.2 759.9,351.1 758.6,351.2" id="Path" fill="#CE9B25"></path>
            <path d="M758.6,351.2 C758.6,351.2 760.8,353.5 762.9,353.1 L763.5,351 L760.3,349.2 C760.2,349.2 759.9,351.1 758.6,351.2" id="Path" fill="#B58B55"></path>
            <polyline id="Path" fill="#EDC7B2" points="751.1 371.5 756 365.4 757.3 353.9 748.4 367.9 751.1 371.5"></polyline>
            <path d="M751.1,371.5 L751.1,371.5 L751.8,370.6 L751.1,371.5 M756,356 L756,356 L756.6,355.1 L756.6,355.1 L756,356" id="Shape" fill="#AFCFE0"></path>
            <path d="M751.1,371.5 L751.1,371.5 L750.2,370.2 C754.2,367.4 755.5,361 756,355.9 L756.6,355 C756.5,355.3 756.4,355.6 756.4,356 C756.1,358 754.8,364.8 754.8,364.8 L754.8,367 L752,370.5 L751.8,370.6 L751.9,370.6 L751.1,371.5" id="Path" fill="#DCB9A6"></path>
            <path d="M747.4,359.1 L732.3,357.6 C732.1,357.6 731.9,357.8 732,358 L736,370.1 L752.2,371.9 L748.3,359.7 C748.2,359.4 747.8,359.1 747.4,359.1" id="Path" fill="#9D9D9C"></path>
            <path d="M738.7,369.5 C738.7,369.5 736.2,368.2 735,368.2 C733.8,368.2 727.3,374.5 727.3,374.5 L731.5,379 L736.5,376.2 C736.5,376.2 747.1,384.1 749.4,385 C751.8,385.8 755.5,385.8 755.5,385.8 L747.7,376.6 L738.7,369.5" id="Path" fill="#7FC6B1"></path>
            <path d="M715.9,390 C714.8,389.9 713.7,390.3 713.5,390.6 L713.3,390.9 L713.7,391.8 C713.7,391.8 715.5,393.1 717.8,392.9 C720,392.7 720.9,392.3 722,392.4 C723.1,392.5 726.1,393 726.3,392 C726.4,391.3 726.6,389.3 726.6,389.3 L719.7,388.2 C719.8,388.2 717,390 715.9,390" id="Path" fill="#FFFFFF"></path>
            <path d="M717.5,392.9 C716.7,392.9 715.9,392.7 715.3,392.5 C717.1,392.2 718.6,391.4 720.1,390.4 C720.7,390.4 721.4,390.3 722.3,390.1 L722.3,390.1 C724.1,389.8 725.3,389.7 726,389.7 C726.5,389.7 726.7,389.7 726.7,389.7 C726.6,390.4 726.5,391.4 726.4,391.9 C726.3,392.4 725.6,392.5 724.7,392.5 C723.7,392.5 722.6,392.3 722.1,392.3 C722,392.3 722,392.3 721.9,392.3 C720.9,392.3 720,392.7 717.9,392.8 L717.9,392.8 C717.7,392.9 717.6,392.9 717.5,392.9" id="Path" fill="#EDEDED"></path>
            <path d="M762.4,351 C762.4,351 762.7,352.1 762.5,352.1 C762.2,352.1 761.1,352.4 761.1,352.4 L758.3,360.7 C758.3,360.7 762.7,361.3 762.9,360.7 C763.1,360.1 770.1,352.2 770.1,352.2 L767.1,348.8 L762.4,351 Z" id="Path" fill="#EDC4AD"></path>
            <path d="M773.5,353.7 C771.8,352.3 768.9,350.7 768.9,350.7 L761,359.3 L761.2,352.4 L758.2,353 C758.2,353 756.7,353.8 756.4,356 C756.1,358 754.8,364.8 754.8,364.8 L754.9,374 C754.9,374 760.6,374.7 762.7,376.1 C764.8,377.5 766.4,381.9 766.3,383.4 C766.3,383.4 768.2,380.4 768.5,379.2 C769.1,377.1 775.5,366.5 775.5,360.4 C775.5,354.7 774.8,354.8 773.5,353.7" id="Path" fill="#FFFFFF"></path>
            <path d="M773.5,353.7 L773.3,353.5 C773.2,353.9 773.1,354.2 772.9,354.6 C769.1,361.6 765.8,370.8 758.4,374.6 C760,374.9 761.7,375.4 762.6,376.1 C764.7,377.5 766.3,381.9 766.2,383.4 C766.2,383.4 768.1,380.4 768.4,379.2 C769,377.1 775.4,366.5 775.4,360.4 C775.5,354.7 774.8,354.8 773.5,353.7" id="Path" fill="#F4F3F4"></path>
            <path d="M761.6,373.7 L748.6,371.2 C748.2,371.1 747.9,371.4 747.8,371.8 C747.7,372.2 748,372.5 748.4,372.6 L761.4,375.1 C761.8,375.2 762.2,374.9 762.2,374.5 C762.2,374.2 761.9,373.8 761.6,373.7" id="Path" fill="#9D9D9C"></path>
            <path d="M763.6,376.1 C762,375 756,373.9 756,373.9 C756,373.9 743.9,369.1 742.8,368.9 C741.6,368.7 738.9,368 738.4,368.7 C737.9,369.4 732.8,376.4 732.6,376.8 C732.3,377.2 737.3,381.3 737.3,381.3 C737.3,381.3 741.5,378.2 741.9,377.5 C741.9,377.5 747.1,382.2 748,382.9 C748.8,383.6 752.7,386.4 755.8,386.7 C758.9,387 761.8,387.3 764.4,385.5 C766.9,383.8 766.7,382.7 766.7,381.5 C766.7,379.5 765.2,377.2 763.6,376.1" id="Path" fill="#7FC6B1"></path>
            <path d="M758.9,386.9 L758.9,386.9 C758.2,386.9 757.5,386.8 756.7,386.8 L756.7,386.8 C757.5,386.8 758.2,386.9 758.9,386.9" id="Path" fill="#AFCFE0"></path>
            <path d="M759.3,386.9 L758.9,386.9 C758.2,386.9 757.5,386.8 756.7,386.8 C756.3,386.8 756,386.7 755.6,386.7 C754.5,386.6 753.3,386.2 752.2,385.6 C750.2,384.6 748.4,383.3 747.9,382.9 C747,382.2 741.8,377.5 741.8,377.5 C741.6,377.8 740.9,378.4 740.1,379 C739.5,379.5 738.8,380 738.3,380.4 C738.3,380.3 738.3,380.3 738.3,380.2 C738.3,380.1 738.3,380.1 738.3,380 L738.3,380 C738.2,379.6 738.1,379.3 738,379 C739.2,378.1 740.4,377.2 741.3,376 C742.7,376.6 744.5,377.5 744.6,377.5 C748.5,379.1 752.3,381.4 756.5,382.2 C757.4,382.4 758.6,382.5 759.8,382.5 C762.1,382.5 764.7,382.1 766.5,380.9 C766.5,381 766.5,381 766.5,381.1 L766.5,381.4 L766.5,381.4 C766.5,381.5 766.5,381.7 766.5,381.8 C766.5,382.8 766.4,383.8 764.2,385.4 C762.7,386.5 761.1,386.8 759.3,386.9" id="Path" fill="#76B8A5"></path>
            <path d="M733.3,375.6 L731.2,378.4 C734,378.5 735.7,382.6 735.7,382.6 L738.3,380.6 C737.5,376.1 733.3,375.6 733.3,375.6" id="Path" fill="#7FC6B1"></path>
            <path d="M738.3,380.3 C738.3,380.2 738.3,380.2 738.3,380.1 C738.3,380.2 738.3,380.3 738.3,380.3" id="Path" fill="#6EAB9A"></path>
            <path d="M737.9,379.1 C737.5,378.2 737,377.6 736.4,377.1 L736.4,377.1 C737,377.6 737.5,378.2 737.9,379.1 L737.9,379.1" id="Path" fill="#76B8A5"></path>
            <path d="M738.3,380.1 C738.2,379.7 738.1,379.4 738,379.1 L738,379.1 C738.1,379.4 738.2,379.8 738.3,380.1" id="Path" fill="#6EAB9A"></path>
            <path d="M735.8,382.6 L735.8,382.6 C735.8,382.6 735.7,382.4 735.6,382.1 C735.6,382 735.6,381.9 735.5,381.7 C735.4,381.3 735.2,380.7 734.9,380.1 C735.6,379.2 736.2,378.2 736.5,377.1 C737.1,377.6 737.6,378.3 738,379.1 C738.1,379.4 738.2,379.8 738.3,380.1 L738.3,380.1 C738.3,380.2 738.3,380.2 738.3,380.3 C738.3,380.4 738.3,380.5 738.3,380.5 L735.8,382.6" id="Path" fill="#76B8A5"></path>
            <path d="M727.6,373.9 L725.3,376.6 L729.8,380.8 L732.4,378.8 C731.5,374.3 727.6,373.9 727.6,373.9" id="Path" fill="#7FC6B1"></path>
            <path d="M731.6,378.5 C731.6,378.5 725.8,384.2 724.7,385 C723.6,385.8 717.8,389.2 717.3,389.7 C717.3,389.7 716.7,391 722.3,390.1 C725.6,389.5 726.7,389.8 726.7,389.8 C726.7,389.8 726.9,388 727.4,387.4 C727.9,386.8 735.6,382.1 735.6,382.1 C735.6,382.1 734.9,377.8 731.6,378.5" id="Path" fill="#EDC7B2"></path>
            <path d="M735.5,382.1 L735.5,382.1 C735.5,382 735.5,381.9 735.4,381.7 C735.5,381.9 735.5,382 735.5,382.1" id="Path" fill="#6EAB9A"></path>
            <path d="M720,390.5 C723.6,388.3 727.5,386.6 731,384.3 C732.7,383.2 734.1,382 735,380.4 C735.3,380.9 735.4,381.4 735.5,381.8 C735.5,382 735.6,382.1 735.6,382.2 L735.6,382.2 L735.6,382.2 C735.5,382.3 728.3,386.6 727.4,387.5 L727.3,387.6 C726.8,388.2 726.6,390 726.6,390 L726.6,390 C726.6,390 726.4,390 725.9,390 C725.2,390 724.1,390.1 722.2,390.4 L722.2,390.4 C721.3,390.3 720.6,390.4 720,390.5" id="Path" fill="#DCB9A6"></path>
            <path d="M761.9,339.9 C760,340.3 758.1,341.7 758.1,341.7 C758.1,341.7 757.2,342.1 757.7,343.6 C758.3,345.1 758.7,346.4 758.7,346.4 C758.7,346.4 758.2,347 758.9,348.2 C759.4,349.1 760.6,350.5 761.2,351.1 C761.4,351.4 761.8,351.5 762.1,351.6 C762.4,351.6 762.7,351.6 763,351.4 L767,348.8 C767.1,348.7 763.8,339.6 761.9,339.9" id="Path" fill="#EDC7B2"></path>
            <path d="M771,354.6 C769.3,355.4 768.8,359.2 768.7,359.9 C768.7,360.7 769,371.4 769,371.4 L758.6,370.6 L754.1,369.2 L751.7,370.5 L756.5,372.7 L759.2,373.2 C759.2,373.2 766.5,375.8 768.4,376.3 C770.2,376.8 773.1,377.3 774.1,376.5 C774.6,376.1 775.4,357.9 774.7,356.1 C774,354.4 772.8,353.8 771,354.6" id="Path" fill="#EDC7B2"></path>
            <path d="M769.6,376.7 C769.2,376.6 768.8,376.5 768.4,376.4 L768.4,376.4 L768.4,376.4 C768.8,376.5 769.2,376.6 769.6,376.7 L769.6,376.7 M775,361 C775,358.6 774.9,356.7 774.7,356.1 C774.7,356 774.6,356 774.6,355.9 C774.6,356 774.7,356 774.7,356.1 C774.9,356.7 775,358.6 775,361" id="Shape" fill="#E3E2E3"></path>
            <path d="M772.2,377 C771.4,377 770.4,376.9 769.6,376.7 C769.2,376.6 768.8,376.5 768.4,376.4 L768.4,376.4 C767.2,376.1 764,374.9 761.7,374.1 C762.2,374.2 762.7,374.2 763.2,374.3 C764.2,374.6 765.1,374.8 766.1,374.8 C769.3,374.8 771.9,372.8 773,369.1 C773.8,366.3 774.5,362.2 774.6,355.9 C774.6,355.9 774.6,355.9 774.6,356 C774.6,356.1 774.7,356.1 774.7,356.2 C774.9,356.7 775,358.6 775,361.1 C775,366.6 774.6,374.8 774.2,376.4 C774.2,376.6 774.1,376.6 774.1,376.7 C773.7,376.9 773,377 772.2,377" id="Path" fill="#DCB9A6"></path>
            <polygon id="Path" fill="#EDC7B2" points="751.7 370.6 752.2 371.9 757.1 372.9 756.8 370.7"></polygon>
            <path d="M758.9,338.4 C757.2,339.4 756.7,341 756.6,342.5 C756.5,344 758.7,346.4 758.7,346.4 C758.7,346.4 758.5,346 758.2,344.9 C757.9,343.8 759.1,341.1 759.1,341.1 L760.3,338 C760.5,338.1 760.6,337.4 758.9,338.4" id="Path" fill="#B58B55"></path>
            <path d="M765.3,337.2 C763.2,336.6 761.9,336.3 760.4,338 C759,339.7 759.2,341.1 759.2,341.1 C759.2,341.1 760.7,343.2 763.9,344.6 C766.5,345.6 766.1,349.1 765.8,350.7 C765.5,352.3 764.9,352.4 764.9,352.4 C764.9,352.4 768.1,352.6 768.9,352.4 C770.3,351.9 771.1,351.9 771.8,350.8 C772.8,349.3 773.7,346.1 772.1,343.9 C770.5,341.8 767.6,337.8 765.3,337.2" id="Path" fill="#B58B55"></path>
            <path d="M257.6,206.1 C261.9,206.1 265.3,202.7 265.3,198.4 C265.3,194.1 261.9,190.7 257.6,190.7 C253.3,190.7 249.9,194.1 249.9,198.4 C249.9,202.7 253.3,206.1 257.6,206.1 L257.6,206.1 Z" id="Path" fill="#0068B3"></path>
            <path d="M359.8,186.3 C361.4,186.3 362.7,185 362.7,183.4 C362.7,181.8 361.4,180.5 359.8,180.5 C358.2,180.5 356.9,181.8 356.9,183.4 C357,185 358.2,186.3 359.8,186.3 L359.8,186.3 Z" id="Path" fill="#0068B3"></path>
            <path d="M305.8,190.5 C309.5,190.5 312.5,187.5 312.5,183.8 C312.5,180.1 309.5,177.1 305.8,177.1 C302.1,177.1 299.1,180.1 299.1,183.8 C299,187.5 302,190.5 305.8,190.5 L305.8,190.5 Z" id="Path" fill="#0068B3"></path>
            <polygon id="Path" fill="#0068B3" points="256 199.1 305.9 184.5 359.3 183.5 359.3 182.1 305.6 183.1 255.6 197.8"></polygon>
            <polyline id="Path" fill="#0068B3" points="306.2 183.8 314 158.6 312.7 158.2 304.9 183.4"></polyline>
            <path d="M313.6,162.4 C316.2,162.4 318.3,160.3 318.3,157.7 C318.3,155.1 316.2,153 313.6,153 C311,153 308.9,155.1 308.9,157.7 C308.9,160.3 311,162.4 313.6,162.4 L313.6,162.4 Z" id="Path" fill="#0068B3"></path>
            <g id="Tekengebied-5" transform="translate(941.000000, 181.000000)">
                <g id="Group" opacity="0.9" transform="translate(84.000000, 47.000000)">
                    <path d="M8.72857143,148.111111 L13.3064935,148.111111 L14.3441558,132.980159 L7.14155844,132.980159 C7.93506494,140.238095 8.72857143,148.111111 8.72857143,148.111111 Z" id="Path" fill="#CA987A"></path>
                    <path d="M8.72857143,148.111111 L10.6818182,148.111111 C9.70519481,144.359127 9.58311688,139.869048 11.2311688,136.670635 C11.480223,136.13919 11.9340726,135.733457 12.4873847,135.547603 C13.0406967,135.361748 13.6453598,135.411932 14.161039,135.686508 L14.3441558,132.980159 L7.14155844,132.980159 C7.93506494,140.238095 8.72857143,148.111111 8.72857143,148.111111 Z" id="Path" fill="#010101" opacity="0.06"></path>
                    <path d="M28.6272727,147.742063 L33.2051948,147.742063 L34.1818182,133.041667 L27.1012987,133.041667 C27.8948052,140.238095 28.6272727,147.742063 28.6272727,147.742063 Z" id="Path" fill="#CA987A"></path>
                    <path d="M29.4207792,133.103175 L27.1012987,133.103175 C27.8948052,140.299603 28.6272727,147.803571 28.6272727,147.803571 L30.0922078,147.803571 C28.3220779,143.251984 28.4441558,137.962302 29.4207792,133.103175 Z" id="Path" fill="#010101" opacity="0.06"></path>
                    <path d="M29.6038961,56.6488095 L9.82727273,56.4642857 L7.38571429,64.7063492 C5.98181818,68.3968254 4.08961039,73.8095238 4.51688312,77.7460317 L7.50779221,106.962302 C7.50779221,106.962302 5.7987013,117.541667 6.22597403,123.753968 C6.59220779,127.998016 6.59220779,133.22619 7.2025974,139.253968 L14.3441558,138.884921 L16.2363636,105.363095 L19.0441558,82.4206349 L20.8142857,82.6051587 L28.8714286,106.654762 C28.8714286,106.654762 25.9415584,113.174603 27.0402597,139.438492 L33.9987013,139.438492 L37.661039,104.994048 C37.661039,104.994048 32.838961,67.5357143 32.0454545,64.4603175 L29.6038961,56.6488095 Z" id="Path" fill="#3F4D57"></path>
                    <path d="M13.4896104,56.5257937 L9.82727273,56.5257937 L7.38571429,64.7678571 C5.98181818,68.4583333 4.08961039,73.8710317 4.51688312,77.8075397 L7.50779221,107.02381 C7.50779221,107.02381 5.61558442,117.603175 6.22597403,123.815476 C6.71428571,128.059524 6.59220779,133.287698 7.2025974,139.315476 L11.9025974,139.069444 C10.6818182,133.22619 11.5974026,126.152778 11.9025974,121.232143 C12.3909091,112.128968 12.7571429,103.025794 12.4519481,93.922619 C12.1467532,84.8194444 11.5974026,76.2698413 13.0623377,67.4742063 C13.1377905,66.9493086 13.397705,66.4691375 13.7948052,66.1210317 C13.9371352,64.6491094 13.9575521,63.1677982 13.8558442,61.6924603 C13.7337662,59.9087302 13.5506494,58.1865079 13.4896104,56.5257937 Z" id="Path" fill="#010101" opacity="0.1"></path>
                    <path d="M31.0688312,114.343254 C31.9844156,100.257937 21.4857143,81.7440476 20.9974026,83.2202381 L28.8714286,106.654762 C28.8714286,106.654762 26.4298701,133.287698 27.0402597,139.438492 L32.5337662,139.438492 C28.3831169,132.672619 30.6415584,121.170635 31.0688312,114.343254 Z" id="Path" fill="#010101" opacity="0.1"></path>
                    <path d="M17.6402597,151.125 L13.7337662,148.172619 C13.573372,148.056563 13.3818337,147.992226 13.1844156,147.988095 L8.85064935,147.988095 C8.46582863,147.991776 8.12436591,148.237552 7.9961039,148.603175 C7.46411708,150.293882 7.19641329,152.057701 7.2025974,153.831349 C7.23441568,154.214792 7.55322016,154.509275 7.93506494,154.507937 L20.8142857,154.630952 C21.0441126,154.647065 21.2660891,154.543315 21.4023288,154.356106 C21.5385686,154.168897 21.5700452,153.924374 21.4857143,153.708333 C20.7929784,152.182739 19.3041998,151.182595 17.6402597,151.125 L17.6402597,151.125 Z" id="Path" fill="#EBEBEB"></path>
                    <path d="M14.7714286,148.972222 C12.4519481,149.095238 10.1324675,149.218254 7.81298701,149.218254 C7.40123999,150.594484 7.19551317,152.024905 7.2025974,153.462302 L17.1519481,153.585317 C17.0553687,152.706855 17.1813716,151.818058 17.5181818,151.001984 L14.7714286,148.972222 Z" id="Path" fill="#D52E1E"></path>
                    <path d="M42.6662338,151.063492 L33.9987013,147.680556 L28.6272727,147.680556 C28.3926365,147.698084 28.1842237,147.838094 28.0779221,148.049603 C27.4385904,149.904502 27.2094305,151.877823 27.4064935,153.831349 C27.4666786,154.190361 27.7776739,154.451515 28.138961,154.446429 L46.7558442,154.630952 C46.7558442,154.630952 46.5116883,151.494048 42.6662338,151.063492 Z" id="Path" fill="#EBEBEB"></path>
                    <path d="M27.8948052,148.541667 C27.4724726,150.166068 27.3076674,151.847541 27.4064935,153.52381 L40.1025974,153.52381 C40.2740328,152.456802 40.6922297,151.445418 41.3233766,150.571429 L35.8298701,148.480159 C33.3883117,149.34127 30.3974026,148.664683 27.8948052,148.541667 Z" id="Path" fill="#D52E1E"></path>
                    <path d="M33.6324675,24.8492063 L21.7298701,21.1587302 L11.1701299,22.4503968 C11.1701299,22.4503968 7.81298701,23.25 6.8974026,25.0337302 C6.47012987,25.8333333 10.925974,40.5337302 10.925974,40.5337302 C10.925974,40.5337302 11.7194805,50.3134921 9.82727273,54.8650794 C7.93506494,59.4166667 6.1038961,67.7202381 6.1038961,67.7202381 L33.4493506,69.0734127 C33.4493506,69.0734127 32.2896104,54.25 31.1909091,47.6071429 C30.9467532,45.7619048 33.2662338,38.0119048 33.2662338,38.0119048 C33.2662338,38.0119048 36.9285714,29.093254 33.6324675,24.8492063 Z" id="Path" fill="#D52E1E"></path>
                    <path d="M9.09480519,33.952381 C10.0103896,37.3968254 10.925974,40.5337302 10.925974,40.5337302 C10.925974,40.5337302 11.7194805,50.3134921 9.82727273,54.8650794 C7.93506494,59.4166667 6.1038961,67.7202381 6.1038961,67.7202381 L12.6961039,68.0277778 C11.7194805,65.5674603 12.0246753,57.202381 11.9636364,59.9087302 C11.9025974,62.6150794 12.2077922,49.8214286 12.2688312,41.640873 C12.2249132,40.9332508 12.5199233,40.2472276 13.0623377,39.7956349 C12.5830563,37.3853943 11.150576,35.2756834 9.09480519,33.952381 L9.09480519,33.952381 Z" id="Path" fill="#010101" opacity="0.06"></path>
                    <path d="M33.6324675,24.8492063 L30.9467532,47.7301587 C30.9467532,47.7301587 33.9376623,55.4186508 34.7922078,55.4186508 C35.6467532,55.4186508 38.2103896,44.6547619 37.2337662,34.875 C36.2571429,25.0952381 33.6324675,24.8492063 33.6324675,24.8492063 Z" id="Path" fill="#D52E1E"></path>
                    <path d="M34.2428571,40.0416667 C34.0597403,42.3789683 33.0831169,44.4702381 31.1909091,45.7003968 L30.9467532,47.7301587 C30.9467532,47.7301587 33.9376623,55.4186508 34.7922078,55.4186508 C35.6467532,55.4186508 37.6,47.1150794 37.4779221,38.5039683 C36.2996905,38.4388866 35.1700248,38.0093223 34.2428571,37.2738095 C34.3342375,38.194131 34.3342375,39.1213452 34.2428571,40.0416667 L34.2428571,40.0416667 Z" id="Path" fill="#010101" opacity="0.06"></path>
                    <polygon id="Path" fill="#3F4D57" points="30.7636364 38.1964286 36.6844156 39.3650794 41.9337662 28.5396825 36.3181818 27.6785714"></polygon>
                    <path d="M18.3727273,18.9444444 C18.1896104,19.7440476 17.3350649,21.9583333 17.3350649,21.9583333 C17.212987,24.0496032 19.4714286,25.2797619 20.6311688,25.5257937 C21.7909091,25.7718254 25.4532468,25.218254 25.5142857,23.1269841 L26.3077922,13.4702381 L17.7012987,12.2400794 C17.7012987,12.2400794 20.2038961,12.7321429 18.3727273,18.9444444 Z" id="Path" fill="#CA987A"></path>
                    <path d="M20.387013,18.2678571 C21.0553058,20.5692821 23.2725736,22.0501578 25.6363636,21.7738095 L25.8194805,21.0972222 C23.1948052,21.8968254 20.387013,18.2678571 20.387013,18.2678571 Z" id="Path" fill="#010101" opacity="0.1"></path>
                    <path d="M6.47012987,70.9801587 L6.47012987,70.9801587 L6.8974026,57.0178571 L1.46493506,56.4642857 L2.99090909,70.8571429 L2.92987013,70.8571429 L1.34285714,78.3611111 L3.23506494,82.7281746 L4.76103896,84.9424603 L4.88311688,84.9424603 L5.12727273,86.172619 C5.47860546,86.0774969 5.76953272,85.8294363 5.92077922,85.4960317 C6.1038961,84.8809524 5.49350649,81.4365079 5.49350649,81.4365079 L5.43246753,81.4365079 C5.42468693,81.1405432 5.36260192,80.8485871 5.24935065,80.5753968 C4.94415584,79.0992063 5.73766234,77.1924603 5.73766234,77.1924603 C5.73766234,77.1924603 6.47012987,76.8234127 6.71428571,77.8075397 C6.95844156,78.7916667 7.50779221,80.390873 8.72857143,80.2063492 L7.93506494,75.3472222 L6.47012987,70.9801587 Z" id="Path" fill="#CA987A"></path>
                    <path d="M2.99090909,70.8571429 L2.92987013,70.8571429 L1.34285714,78.3611111 L3.23506494,82.7281746 L3.78441558,83.5277778 C2.68571429,80.6369048 2.80779221,77.6230159 3.47922078,74.0555556 C4.15064935,70.4880952 3.54025974,69.3809524 3.23506494,66.6130952 C2.95573704,64.7970862 3.44261853,62.9461021 4.57792208,61.5079365 C5.07099049,60.8035986 5.96148937,60.504485 6.77532468,60.7698413 L6.8974026,57.0178571 L1.46493506,56.4642857 L2.99090909,70.8571429 Z" id="Path" fill="#010101" opacity="0.06"></path>
                    <path d="M6.8974026,25.0337302 C2.56363636,33.952381 0.549350649,49.3293651 0.549350649,49.3293651 C0.549350649,49.3293651 1.0987013,55.9722222 1.46493506,60.8928571 C3.54025974,60.8313492 5.43246753,60.9543651 7.50779221,61.015873 L7.87402597,47.8531746 C8.97272727,45.1468254 10.1324675,41.5178571 12.8792208,34.2599206 C16.8467532,23.6805556 6.8974026,25.0337302 6.8974026,25.0337302 Z" id="Path" fill="#D52E1E"></path>
                    <path d="M6.83636364,25.0952381 C2.56363636,34.0753968 0.549350649,49.3293651 0.549350649,49.3293651 C0.549350649,49.3293651 1.0987013,55.9722222 1.46493506,60.8928571 C3.05194805,60.8313492 4.51688312,60.8928571 6.04285714,60.9543651 C3.11298701,55.234127 2.80779221,48.8373016 3.6012987,42.5019841 C4.39480519,36.1666667 5.18831169,32.906746 6.83636364,25.0952381 Z" id="Path" fill="#010101" opacity="0.06"></path>
                    <path d="M37.2337662,32.2916667 C37.0089583,32.4876076 36.884938,32.7760488 36.8968179,33.0753275 C36.9086978,33.3746062 37.0551845,33.652144 37.2948052,33.8293651 C37.4779221,34.0753968 38.5766234,35.1210317 38.5766234,35.1210317 L38.2103896,36.1051587 L37.6,35.9206349 L34.1818182,34.6289683 C34.0539829,34.7213936 33.9781733,34.8702253 33.9781733,35.0287698 C33.9781733,35.1873144 34.0539829,35.3361461 34.1818182,35.4285714 L35.0363636,35.9821429 L35.0363636,35.9821429 L33.2662338,35.3670635 C33.2662338,35.3670635 32.5337662,35.859127 33.3272727,36.4126984 L34.6701299,37.0277778 L34.6701299,37.0277778 L32.9,36.5357143 C32.7577363,36.6576328 32.6866828,36.8440308 32.711365,37.0305694 C32.7360471,37.2171081 32.853084,37.3782347 33.0220779,37.4583333 C33.5337651,37.7974125 34.0879879,38.0663108 34.6701299,38.2579365 L35.5857143,38.8730159 L32.7779221,38.0734127 C32.1675325,38.1349206 32.7779221,38.8730159 32.961039,39.1190476 C33.6125975,39.5433525 34.3085728,39.8940137 35.0363636,40.1646825 C35.3598544,41.2525333 35.6046519,42.3625858 35.7688312,43.4861111 C35.7688312,43.8551587 34.5480519,45.8849206 34.1207792,48.406746 C33.6935065,50.9285714 33.9987013,55.234127 34.7922078,55.2956349 C35.5857143,55.3571429 38.0883117,55.172619 39.125974,50.5595238 C39.4944588,48.4072774 39.5969708,46.2173248 39.4311688,44.0396825 L39.4311688,39.672619 C39.4311688,39.672619 39.7363636,35.859127 40.0415584,35.3055556 C40.2301764,34.9330583 40.2068992,34.4873922 39.9805195,34.1369048 L37.2337662,32.2916667 Z" id="Path" fill="#CA987A"></path>
                    <path d="M33.9376623,38.9960317 C33.5268059,39.0527848 33.1084512,39.0106279 32.7168831,38.8730159 L32.961039,39.2420635 C33.6125975,39.6663683 34.3085728,40.0170296 35.0363636,40.2876984 C35.3598544,41.3755491 35.6046519,42.4856017 35.7688312,43.609127 C35.7688312,43.9781746 34.5480519,46.0079365 34.1207792,48.5297619 C33.6935065,51.0515873 33.9987013,55.3571429 34.7922078,55.4186508 C35.1420759,55.4261881 35.4912907,55.3847883 35.8298701,55.2956349 C35.7617746,55.1836129 35.7200166,55.0573761 35.7077922,54.9265873 C34.7922078,52.4047619 35.0974026,49.8829365 35.6467532,47.2996032 C35.9519481,45.9464286 37.4779221,38.3194444 33.9376623,38.9960317 Z" id="Path" fill="#010101" opacity="0.06"></path>
                    <path d="M12.3298701,4.92063492 C8.97272727,7.19642857 15.4428571,17.5912698 16.1142857,18.6984127 L18.6168831,5.10515873 C18.6168831,5.10515873 15.625974,2.58333333 12.3298701,4.92063492 Z" id="Path" fill="#403F3E"></path>
                    <path d="M17.3350649,5.04365079 L17.5181818,13.7162698 C17.5792208,17.7142857 23.5,21.4047619 26.0025974,21.343254 C28.5051948,21.281746 31.374026,17.468254 31.312987,13.4702381 L31.1298701,4.79761905 L17.3350649,5.04365079 Z" id="Path" fill="#CA987A"></path>
                    <path d="M24.6597403,0.430555556 L22.0961039,0.430555556 C18.861039,0.430555556 15.625974,3.62896825 15.4428571,6.82738095 C15.1376623,14.0238095 19.0441558,17.1607143 19.0441558,17.1607143 C19.0441558,17.1607143 17.8233766,13.6547619 19.3493506,11.4404762 C19.4103896,11.3174603 20.325974,12.4861111 20.387013,11.7480159 C20.4023402,10.2277412 21.5177754,8.94689796 23.0116883,8.73412698 C24.9196048,8.48412799 26.7183544,7.69512703 28.2,6.45833333 C28.6340224,6.9656606 29.125706,7.41983347 29.6649351,7.81150794 C30.4403621,8.294819 31.2575365,8.70654549 32.1064935,9.04166667 C32.0454545,5.84325397 32.3506494,0.0615079365 24.6597403,0.430555556 Z" id="Path" fill="#403F3E"></path>
                    <path d="M17.3350649,10.9484127 C16.8467532,11.3174603 17.5181818,14.8849206 19.3493506,14.7003968 L19.4714286,11.625 C19.4714286,11.625 18.1896104,10.2103175 17.3350649,10.9484127 Z" id="Path" fill="#CA987A"></path>
                </g>
                <polygon id="Path" fill="#F5D85B" points="58.0311927 1 41 1 47.2385321 23 58.0311927 23 68.7614679 23 75 1"></polygon>
                <polygon id="Path" fill="#F5E395" points="58.0311284 1 50 1 52.92607 23 58.0311284 23 63.07393 23 66 1"></polygon>
                <rect id="Rectangle" fill="#C5C5C4" x="51" y="128" width="15" height="35"></rect>
                <rect id="Rectangle" fill="#C5C5C4" x="54" y="22" width="8" height="103"></rect>
                <rect id="Rectangle" fill="#747474" x="51" y="122" width="15" height="6"></rect>
                <rect id="Rectangle" fill="#747474" x="52" y="41" width="12" height="6"></rect>
                <path d="M67.0777044,160.000326 L49.9222956,160.000326 C48.3466902,159.98361 46.8308073,160.610347 45.7166249,161.739148 C44.6024426,162.867949 43.9838219,164.403722 44.0003218,166 L72.9996782,166 C73.0161781,164.403722 72.3975574,162.867949 71.2833751,161.739148 C70.1691927,160.610347 68.6533098,159.98361 67.0777044,160.000326 Z" id="Path" fill="#747474"></path>
                <path d="M50.6353276,26 L65.3646724,26 C67.3724084,26 69,24.209139 69,22 L47,22 C47,24.209139 48.6275916,26 50.6353276,26 Z" id="Path" fill="#747474"></path>
                <path d="M77.9999998,2.02816901 C77.9999998,3.1171812 77.0314875,4 75.8367669,4 L41.1632331,4 C39.9685125,4 39.0000002,3.1171812 39.0000002,2.02816901 L39.0000002,2.02816901 C38.9995351,0.929679743 39.9585805,0.0305135114 41.1632331,0 L75.8367669,0 C77.0414195,0.0305135114 78.0004649,0.929679743 77.9999998,2.02816901 L77.9999998,2.02816901 Z" id="Path" fill="#747474"></path>
                <path d="M21.6962267,68.0719532 C19.2303904,68.5513155 17.6147784,70.92929 18.0797386,73.3949617 C18.5720625,75.8174601 20.9289389,77.3895792 23.3579836,76.9157361 C25.7870283,76.441893 27.3784183,74.0995703 26.9219151,71.6700843 C26.4654118,69.2405983 24.1320034,67.6339373 21.6962267,68.0719532" id="Path" fill="#157ABF"></path>
                <path d="M19.904897,59.2842667 C15.1370305,60.1967909 11.1516833,63.4308138 9.30126123,67.8888876 C8.87932355,68.5759815 8.90221838,69.4449037 9.35976178,70.1091447 C9.81730518,70.7733857 10.6244901,71.1095361 11.4222687,70.9680713 C12.2200473,70.8266064 12.8602002,70.233809 13.0579779,69.4533641 C14.3372961,66.3499278 17.0592422,64.0602862 20.3522074,63.3176174 C23.6451725,62.5749487 27.095988,63.4724357 29.5996498,65.7226893 C30.1307717,66.1833986 30.8622887,66.3423087 31.5386003,66.1438945 C31.9064811,66.0251431 32.2393814,65.8185227 32.5080756,65.5421728 C33.2286252,64.6839736 33.1488446,63.4163327 32.326299,62.6539084 C28.9581269,59.6382427 24.3491709,58.3879386 19.904897,59.2842667" id="Path" fill="#157ABF"></path>
                <path d="M17.3767414,50.4820044 C10.5784443,51.7390762 3.84194979,56.707503 0.257393095,63.0527227 C-0.00690685144,63.5127098 -0.0707162919,64.0558489 0.0801272119,64.561591 C0.230970716,65.0673331 0.583988348,65.4938397 1.06082822,65.746448 C2.06858365,66.2849365 3.33606219,65.9379924 3.90375249,64.9682607 C6.93208487,59.6406706 12.5561307,55.5102917 18.1801766,54.4328016 C23.8042224,53.3553114 29.1810574,54.4926621 33.630852,57.8448537 C34.1507892,58.2515863 34.8434798,58.3857709 35.484933,58.204017 C36.2348851,57.9929655 36.8021265,57.3964767 36.9577802,56.6552287 C37.1134339,55.9139807 36.8318193,55.1502687 36.2265654,54.6722438 C30.7879277,50.541865 24.4222494,49.165072 17.3767414,50.4820044" id="Path" fill="#157ABF"></path>
            </g>
        </g>
        <g id="achtergrond-header-images" fill-rule="nonzero">
            <path d="M667.789,151 L660.652,151 L662.563,125.416 L669.193,125.416 C672.599017,125.416 675.354989,126.41049 677.461,128.3995 C679.567011,130.38851 680.62,133.098983 680.62,136.531 C680.62,141.289024 679.443512,144.889988 677.0905,147.334 C674.737488,149.778012 671.637019,151 667.789,151 Z M668.764,127.912 L665.293,127.912 L663.772,148.504 L668.101,148.504 C670.831014,148.504 673.086491,147.561509 674.8675,145.6765 C676.648509,143.791491 677.539,140.89902 677.539,136.999 C677.539,134.164986 676.752508,131.942008 675.1795,130.33 C673.606492,128.717992 671.468014,127.912 668.764,127.912 Z M694.504,144.994 L695.479,134.152 C695.140998,134.074 694.751002,134.0155 694.309,133.9765 C693.866998,133.9375 693.438002,133.918 693.022,133.918 C691.565993,133.918 690.207506,134.814991 688.9465,136.609 C687.685494,138.403009 687.055,141.041983 687.055,144.526 C687.055,146.112008 687.282498,147.223497 687.7375,147.8605 C688.192502,148.497503 688.744997,148.816 689.395,148.816 C690.071003,148.816 690.857496,148.497503 691.7545,147.8605 C692.651504,147.223497 693.567995,146.268006 694.504,144.994 Z M696.142,131.89 L698.482,131.5 L696.727,151 L694.036,151 L694.348,147.88 L694.231,147.88 C693.372996,149.076006 692.463005,149.953497 691.501,150.5125 C690.538995,151.071503 689.525005,151.351 688.459,151.351 C687.184994,151.351 686.151504,150.850505 685.3585,149.8495 C684.565496,148.848495 684.169,147.139012 684.169,144.721 C684.169,140.482979 685.098491,137.233011 686.9575,134.971 C688.816509,132.708989 690.915988,131.578 693.256,131.578 C693.828003,131.578 694.347998,131.604 694.816,131.656 C695.284002,131.708 695.725998,131.785999 696.142,131.89 Z M702.226,134.152 L702.226,131.929 L704.449,131.929 L704.839,127.834 L707.608,127.405 L707.14,131.929 L711.079,131.929 L710.845,134.152 L706.906,134.152 L705.775,145.345 C705.644999,146.697007 705.729499,147.613498 706.0285,148.0945 C706.327501,148.575502 706.801997,148.816 707.452,148.816 C707.946002,148.816 708.381498,148.777 708.7585,148.699 C709.135502,148.621 709.609997,148.491001 710.182,148.309 L710.182,150.766 C709.531997,151.000001 708.966502,151.156 708.4855,151.234 C708.004498,151.312 707.374004,151.351 706.594,151.351 C705.267993,151.351 704.286503,150.909004 703.6495,150.025 C703.012497,149.140996 702.797999,147.646011 703.006,145.54 L704.176,134.152 L702.226,134.152 Z M723.52,144.994 L724.495,134.152 C724.156998,134.074 723.767002,134.0155 723.325,133.9765 C722.882998,133.9375 722.454002,133.918 722.038,133.918 C720.581993,133.918 719.223506,134.814991 717.9625,136.609 C716.701494,138.403009 716.071,141.041983 716.071,144.526 C716.071,146.112008 716.298498,147.223497 716.7535,147.8605 C717.208502,148.497503 717.760997,148.816 718.411,148.816 C719.087003,148.816 719.873496,148.497503 720.7705,147.8605 C721.667504,147.223497 722.583995,146.268006 723.52,144.994 Z M725.158,131.89 L727.498,131.5 L725.743,151 L723.052,151 L723.364,147.88 L723.247,147.88 C722.388996,149.076006 721.479005,149.953497 720.517,150.5125 C719.554995,151.071503 718.541005,151.351 717.475,151.351 C716.200994,151.351 715.167504,150.850505 714.3745,149.8495 C713.581496,148.848495 713.185,147.139012 713.185,144.721 C713.185,140.482979 714.114491,137.233011 715.9735,134.971 C717.832509,132.708989 719.931988,131.578 722.272,131.578 C722.844003,131.578 723.363998,131.604 723.832,131.656 C724.300002,131.708 724.741998,131.785999 725.158,131.89 Z M747.778,127.756 L747.505,127.756 L742.435,141.874 L750.391,141.874 L747.778,127.756 Z M750.157,125.416 L755.227,151 L751.99,151 L750.742,144.37 L741.421,144.37 L739.12,151 L736,151 L745.828,125.416 L750.157,125.416 Z M769.033,144.994 L770.008,134.152 C769.669998,134.074 769.280002,134.0155 768.838,133.9765 C768.395998,133.9375 767.967002,133.918 767.551,133.918 C766.094993,133.918 764.736506,134.814991 763.4755,136.609 C762.214494,138.403009 761.584,141.041983 761.584,144.526 C761.584,146.112008 761.811498,147.223497 762.2665,147.8605 C762.721502,148.497503 763.273997,148.816 763.924,148.816 C764.600003,148.816 765.386496,148.497503 766.2835,147.8605 C767.180504,147.223497 768.096995,146.268006 769.033,144.994 Z M770.671,131.89 L773.011,131.5 L771.256,151.195 C771.021999,153.821013 770.177007,155.705994 768.721,156.85 C767.264993,157.994006 765.56201,158.566 763.612,158.566 C762.623995,158.566 761.707504,158.527 760.8625,158.449 C760.017496,158.371 759.101005,158.241001 758.113,158.059 L758.113,155.368 C759.075005,155.628001 759.984996,155.822999 760.843,155.953 C761.701004,156.083001 762.558996,156.148 763.417,156.148 C764.899007,156.148 766.075496,155.764504 766.9465,154.9975 C767.817504,154.230496 768.343999,152.989009 768.526,151.273 L768.877,147.88 L768.76,147.88 C767.875996,149.076006 766.959505,149.953497 766.0105,150.5125 C765.061495,151.071503 764.054005,151.351 762.988,151.351 C761.713994,151.351 760.680504,150.850505 759.8875,149.8495 C759.094496,148.848495 758.698,147.139012 758.698,144.721 C758.698,140.482979 759.627491,137.233011 761.4865,134.971 C763.345509,132.708989 765.444988,131.578 767.785,131.578 C768.357003,131.578 768.876998,131.604 769.345,131.656 C769.813002,131.708 770.254998,131.785999 770.671,131.89 Z M776.482,144.292 C776.482,140.001979 777.339991,136.81051 779.056,134.7175 C780.772009,132.62449 782.61799,131.578 784.594,131.578 C786.180008,131.578 787.401996,131.967996 788.26,132.748 C789.118004,133.528004 789.547,134.606993 789.547,135.985 C789.547,138.169011 788.624009,139.949993 786.778,141.328 C784.931991,142.706007 782.436016,143.395 779.29,143.395 C779.29,145.527011 779.627997,146.963496 780.304,147.7045 C780.980003,148.445504 781.941994,148.816 783.19,148.816 C784.074004,148.816 784.925496,148.699001 785.7445,148.465 C786.563504,148.230999 787.388996,147.893002 788.221,147.451 L788.221,149.986 C787.310995,150.480002 786.414004,150.830999 785.53,151.039 C784.645996,151.247001 783.606006,151.351 782.41,151.351 C780.511991,151.351 779.049505,150.792006 778.0225,149.674 C776.995495,148.555994 776.482,146.762012 776.482,144.292 Z M786.661,136.336 C786.661,135.555996 786.453002,134.971002 786.037,134.581 C785.620998,134.190998 785.036004,133.996 784.282,133.996 C783.319995,133.996 782.345005,134.587494 781.357,135.7705 C780.368995,136.953506 779.745001,138.766988 779.485,141.211 C781.773011,141.211 783.540994,140.736505 784.789,139.7875 C786.037006,138.838495 786.661,137.688007 786.661,136.336 Z M802.261,151 L803.47,138.403 C803.626001,136.842992 803.515502,135.764003 803.1385,135.166 C802.761498,134.567997 802.248003,134.269 801.598,134.269 C801.025997,134.269 800.291504,134.515998 799.3945,135.01 C798.497496,135.504002 797.451006,136.270995 796.255,137.311 L795.007,151 L792.238,151 L793.954,132.085 L796.723,131.734 L796.45,134.659 L796.567,134.659 C797.685006,133.540994 798.711995,132.748002 799.648,132.28 C800.584005,131.811998 801.493996,131.578 802.378,131.578 C803.730007,131.578 804.769996,132.065495 805.498,133.0405 C806.226004,134.015505 806.486001,135.659988 806.278,137.974 L805.03,151 L802.261,151 Z M820.552,144.994 L821.566,134.152 C821.227998,134.074 820.831502,134.0155 820.3765,133.9765 C819.921498,133.9375 819.486002,133.918 819.07,133.918 C817.613993,133.918 816.255506,134.814991 814.9945,136.609 C813.733494,138.403009 813.103,141.041983 813.103,144.526 C813.103,146.112008 813.330498,147.223497 813.7855,147.8605 C814.240502,148.497503 814.792997,148.816 815.443,148.816 C816.119003,148.816 816.905496,148.497503 817.8025,147.8605 C818.699504,147.223497 819.615995,146.268006 820.552,144.994 Z M825.271,123.661 L822.775,151 L820.084,151 L820.396,147.88 L820.279,147.88 C819.394996,149.076006 818.478505,149.953497 817.5295,150.5125 C816.580495,151.071503 815.573005,151.351 814.507,151.351 C813.232994,151.351 812.199504,150.850505 811.4065,149.8495 C810.613496,148.848495 810.217,147.139012 810.217,144.721 C810.217,140.482979 811.146491,137.233011 813.0055,134.971 C814.864509,132.708989 816.963988,131.578 819.304,131.578 C819.798002,131.578 820.246498,131.5975 820.6495,131.6365 C821.052502,131.6755 821.422998,131.734 821.761,131.812 L822.463,124.012 L825.271,123.661 Z M838.492,144.994 L839.467,134.152 C839.128998,134.074 838.739002,134.0155 838.297,133.9765 C837.854998,133.9375 837.426002,133.918 837.01,133.918 C835.553993,133.918 834.195506,134.814991 832.9345,136.609 C831.673494,138.403009 831.043,141.041983 831.043,144.526 C831.043,146.112008 831.270498,147.223497 831.7255,147.8605 C832.180502,148.497503 832.732997,148.816 833.383,148.816 C834.059003,148.816 834.845496,148.497503 835.7425,147.8605 C836.639504,147.223497 837.555995,146.268006 838.492,144.994 Z M840.13,131.89 L842.47,131.5 L840.715,151 L838.024,151 L838.336,147.88 L838.219,147.88 C837.360996,149.076006 836.451005,149.953497 835.489,150.5125 C834.526995,151.071503 833.513005,151.351 832.447,151.351 C831.172994,151.351 830.139504,150.850505 829.3465,149.8495 C828.553496,148.848495 828.157,147.139012 828.157,144.721 C828.157,140.482979 829.086491,137.233011 830.9455,134.971 C832.804509,132.708989 834.903988,131.578 837.244,131.578 C837.816003,131.578 838.335998,131.604 838.804,131.656 C839.272002,131.708 839.713998,131.785999 840.13,131.89 Z M865.285,125.065 C867.911013,125.065 870.055992,126.05949 871.72,128.0485 C873.384008,130.03751 874.216,132.773983 874.216,136.258 C874.216,141.120024 873.026512,144.850987 870.6475,147.451 C868.268488,150.051013 865.532015,151.351 862.438,151.351 C859.785987,151.351 857.634508,150.480009 855.9835,148.738 C854.332492,146.995991 853.507,144.344018 853.507,140.782 C853.507,135.685975 854.637989,131.792513 856.9,129.1015 C859.162011,126.410487 861.956983,125.065 865.285,125.065 Z M864.778,127.756 C862.593989,127.756 860.689508,128.821989 859.0645,130.954 C857.439492,133.086011 856.627,136.16698 856.627,140.197 C856.627,143.317016 857.211994,145.513994 858.382,146.788 C859.552006,148.062006 861.072991,148.699 862.945,148.699 C864.97301,148.699 866.838491,147.71751 868.5415,145.7545 C870.244509,143.79149 871.096,140.84702 871.096,136.921 C871.096,133.670984 870.511006,131.331007 869.341,129.901 C868.170994,128.470993 866.650009,127.756 864.778,127.756 Z M880.69,151 L877.375,131.929 L880.339,131.929 L882.874,148.465 L883.03,148.465 L884.083,146.32 C885.045005,144.36999 885.863997,142.270511 886.54,140.0215 C887.216003,137.772489 887.800998,135.075016 888.295,131.929 L891.181,131.929 C890.686998,134.945015 890.024004,137.661988 889.192,140.08 C888.359996,142.498012 887.359006,144.811989 886.189,147.022 L884.083,151 L880.69,151 Z M892.663,144.292 C892.663,140.001979 893.520991,136.81051 895.237,134.7175 C896.953009,132.62449 898.79899,131.578 900.775,131.578 C902.361008,131.578 903.582996,131.967996 904.441,132.748 C905.299004,133.528004 905.728,134.606993 905.728,135.985 C905.728,138.169011 904.805009,139.949993 902.959,141.328 C901.112991,142.706007 898.617016,143.395 895.471,143.395 C895.471,145.527011 895.808997,146.963496 896.485,147.7045 C897.161003,148.445504 898.122994,148.816 899.371,148.816 C900.255004,148.816 901.106496,148.699001 901.9255,148.465 C902.744504,148.230999 903.569996,147.893002 904.402,147.451 L904.402,149.986 C903.491995,150.480002 902.595004,150.830999 901.711,151.039 C900.826996,151.247001 899.787006,151.351 898.591,151.351 C896.692991,151.351 895.230505,150.792006 894.2035,149.674 C893.176495,148.555994 892.663,146.762012 892.663,144.292 Z M902.842,136.336 C902.842,135.555996 902.634002,134.971002 902.218,134.581 C901.801998,134.190998 901.217004,133.996 900.463,133.996 C899.500995,133.996 898.526005,134.587494 897.538,135.7705 C896.549995,136.953506 895.926001,138.766988 895.666,141.211 C897.954011,141.211 899.721994,140.736505 900.97,139.7875 C902.218006,138.838495 902.842,137.688007 902.842,136.336 Z M918.442,131.851 L918.091,134.581 C917.882999,134.555 917.701001,134.5355 917.545,134.5225 C917.388999,134.5095 917.194001,134.503 916.96,134.503 C916.231996,134.503 915.465004,134.840997 914.659,135.517 C913.852996,136.193003 913.086004,137.128994 912.358,138.325 L911.266,151 L908.497,151 L910.096,132.085 L912.865,131.734 L912.514,135.322 L912.67,135.322 C913.554004,133.761992 914.327497,132.748002 914.9905,132.28 C915.653503,131.811998 916.374996,131.578 917.155,131.578 C917.389001,131.578 917.616499,131.5975 917.8375,131.6365 C918.058501,131.6755 918.259999,131.746999 918.442,131.851 Z M929.596,151 L930.805,138.403 C930.935001,136.842992 930.824502,135.764003 930.4735,135.166 C930.122498,134.567997 929.622003,134.269 928.972,134.269 C928.373997,134.269 927.620005,134.515998 926.71,135.01 C925.799995,135.504002 924.760006,136.270995 923.59,137.311 L922.342,151 L919.573,151 L922.03,124.012 L924.838,123.661 L923.785,134.659 L923.902,134.659 C925.020006,133.566995 926.046995,132.780502 926.983,132.2995 C927.919005,131.818498 928.828996,131.578 929.713,131.578 C931.065007,131.578 932.104996,132.065495 932.833,133.0405 C933.561004,134.015505 933.821001,135.659988 933.613,137.974 L932.365,151 L929.596,151 Z M937.435,144.292 C937.435,140.001979 938.292991,136.81051 940.009,134.7175 C941.725009,132.62449 943.57099,131.578 945.547,131.578 C947.133008,131.578 948.354996,131.967996 949.213,132.748 C950.071004,133.528004 950.5,134.606993 950.5,135.985 C950.5,138.169011 949.577009,139.949993 947.731,141.328 C945.884991,142.706007 943.389016,143.395 940.243,143.395 C940.243,145.527011 940.580997,146.963496 941.257,147.7045 C941.933003,148.445504 942.894994,148.816 944.143,148.816 C945.027004,148.816 945.878496,148.699001 946.6975,148.465 C947.516504,148.230999 948.341996,147.893002 949.174,147.451 L949.174,149.986 C948.263995,150.480002 947.367004,150.830999 946.483,151.039 C945.598996,151.247001 944.559006,151.351 943.363,151.351 C941.464991,151.351 940.002505,150.792006 938.9755,149.674 C937.948495,148.555994 937.435,146.762012 937.435,144.292 Z M947.614,136.336 C947.614,135.555996 947.406002,134.971002 946.99,134.581 C946.573998,134.190998 945.989004,133.996 945.235,133.996 C944.272995,133.996 943.298005,134.587494 942.31,135.7705 C941.321995,136.953506 940.698001,138.766988 940.438,141.211 C942.726011,141.211 944.493994,140.736505 945.742,139.7875 C946.990006,138.838495 947.614,137.688007 947.614,136.336 Z M955.18,125.923 C955.18,125.324997 955.355498,124.850502 955.7065,124.4995 C956.057502,124.148498 956.518997,123.973 957.091,123.973 C957.585002,123.973 957.961999,124.109499 958.222,124.3825 C958.482001,124.655501 958.612,125.038998 958.612,125.533 C958.612,126.053003 958.443002,126.501498 958.105,126.8785 C957.766998,127.255502 957.299003,127.444 956.701,127.444 C956.258998,127.444 955.895001,127.314001 955.609,127.054 C955.322999,126.793999 955.18,126.417002 955.18,125.923 Z M957.715,131.734 L955.96,151 L953.191,151 L954.907,132.085 L957.715,131.734 Z M971.716,144.994 L972.73,134.152 C972.391998,134.074 971.995502,134.0155 971.5405,133.9765 C971.085498,133.9375 970.650002,133.918 970.234,133.918 C968.777993,133.918 967.419506,134.814991 966.1585,136.609 C964.897494,138.403009 964.267,141.041983 964.267,144.526 C964.267,146.112008 964.494498,147.223497 964.9495,147.8605 C965.404502,148.497503 965.956997,148.816 966.607,148.816 C967.283003,148.816 968.069496,148.497503 968.9665,147.8605 C969.863504,147.223497 970.779995,146.268006 971.716,144.994 Z M976.435,123.661 L973.939,151 L971.248,151 L971.56,147.88 L971.443,147.88 C970.558996,149.076006 969.642505,149.953497 968.6935,150.5125 C967.744495,151.071503 966.737005,151.351 965.671,151.351 C964.396994,151.351 963.363504,150.850505 962.5705,149.8495 C961.777496,148.848495 961.381,147.139012 961.381,144.721 C961.381,140.482979 962.310491,137.233011 964.1695,134.971 C966.028509,132.708989 968.127988,131.578 970.468,131.578 C970.962002,131.578 971.410498,131.5975 971.8135,131.6365 C972.216502,131.6755 972.586998,131.734 972.925,131.812 L973.627,124.012 L976.435,123.661 Z" id="DataAgendaOverheid" fill="#000000"></path>
            <path d="M679.784,102 L669.424,72.32 L669.088,72.32 L669.088,102 L662.648,102 L662.648,65.264 L673.736,65.264 L684.152,94.944 L684.488,94.944 L684.488,65.264 L690.928,65.264 L690.928,102 L679.784,102 Z M700.168,102 L700.168,65.264 L707.448,65.264 L707.448,96.064 L719.88,96.064 L719.88,102 L700.168,102 Z M746.984,102 L736.624,102 L736.624,65.264 L747.32,65.264 C753.629365,65.264 758.463983,66.7853181 761.824,69.828 C765.184017,72.8706819 766.864,77.1173061 766.864,82.568 C766.864,89.2133666 765.081351,94.1133176 761.516,97.268 C757.950649,100.422682 753.106697,102 746.984,102 Z M743.904,71.2 L743.904,96.064 L747.32,96.064 C750.904018,96.064 753.778656,95.0373436 755.944,92.984 C758.109344,90.9306564 759.192,87.57069 759.192,82.904 C759.192,79.1333145 758.081344,76.2400101 755.86,74.224 C753.638656,72.2079899 750.642686,71.2 746.872,71.2 L743.904,71.2 Z M781.424,65.264 L781.424,102 L774.144,102 L774.144,65.264 L781.424,65.264 Z M805.896,89.288 L805.896,83.352 L818.272,83.352 L818.272,101.328 C816.442658,101.701335 814.622676,101.971999 812.812,102.14 C811.001324,102.308001 809.106677,102.392 807.128,102.392 C801.565306,102.392 797.094684,100.908015 793.716,97.94 C790.337316,94.9719852 788.648,90.5760291 788.648,84.752 C788.648,78.1066334 790.551981,73.1320165 794.36,69.828 C798.168019,66.5239835 802.965304,64.872 808.752,64.872 C810.432008,64.872 811.925327,64.9279994 813.232,65.04 C814.538673,65.1520006 815.845327,65.3386654 817.152,65.6 L816.648,71.76 C815.117326,71.5359989 813.736006,71.386667 812.504,71.312 C811.271994,71.237333 809.946674,71.2 808.528,71.2 C804.831982,71.2 801.873344,72.2919891 799.652,74.476 C797.430656,76.6600109 796.32,79.8613122 796.32,84.08 C796.32,88.1493537 797.393323,91.2293229 799.54,93.32 C801.686677,95.4106771 804.290651,96.456 807.352,96.456 C808.136004,96.456 808.798664,96.4373335 809.34,96.4 C809.881336,96.3626665 810.52533,96.306667 811.272,96.232 L811.272,89.288 L805.896,89.288 Z M833.504,65.264 L833.504,102 L826.224,102 L826.224,65.264 L833.504,65.264 Z M856.688,71.2 L856.688,102 L849.408,102 L849.408,71.2 L839.328,71.2 L839.328,65.264 L866.768,65.264 L866.768,71.2 L856.688,71.2 Z M885.08,88.28 L880.544,71.312 L880.152,71.312 L875.616,88.28 L885.08,88.28 Z M886.312,65.264 L897.008,102 L888.608,102 L886.592,94.104 L874.16,94.104 L872.144,102 L864.584,102 L875.336,65.264 L886.312,65.264 Z M918.792,88.28 L914.256,71.312 L913.864,71.312 L909.328,88.28 L918.792,88.28 Z M920.024,65.264 L930.72,102 L922.32,102 L920.304,94.104 L907.872,94.104 L905.856,102 L898.296,102 L909.048,65.264 L920.024,65.264 Z M936.04,102 L936.04,65.264 L943.32,65.264 L943.32,96.064 L955.752,96.064 L955.752,102 L936.04,102 Z" id="NLDIGITAAL" fill="#007BC7"></path>
        </g>
    </g>
</svg>