<svg height="250" viewBox="0 0 250 250" width="250" xmlns="http://www.w3.org/2000/svg"><g fill="none"><path d="m0 0v250h250v-250z" fill="#fefefe"/><g transform="translate(115.653614 110)"><g opacity=".9" transform="translate(50.346386 28)"><path d="m5.2 88.8666667h2.72727273l.61818182-9.0785715h-4.2909091c.47272728 4.3547619.94545455 9.0785715.94545455 9.0785715z" fill="#ca987a"/><path d="m5.2 88.8666667h1.16363636c-.58181818-2.2511905-.65454545-4.9452381.32727273-6.8642857.14837271-.3188671.41875119-.5623066.74838391-.6738193.32963272-.1115126.68985752-.0814022.99707064.0833431l.10909091-1.6238096h-4.2909091c.47272728 4.3547619.94545455 9.0785715.94545455 9.0785715z" fill="#010101" opacity=".06"/><path d="m17.0545455 88.6452381h2.7272727l.5818182-8.8202381h-4.2181819c.4727273 4.3178571.909091 8.8202381.909091 8.8202381z" fill="#ca987a"/><path d="m17.5272727 79.8619048h-1.3818182c.4727273 4.3178571.909091 8.8202381.909091 8.8202381h.8727272c-1.0545454-2.7309524-.9818182-5.9047619-.4-8.8202381z" fill="#010101" opacity=".06"/><path d="m17.6363636 33.9892857-11.78181815-.1107143-1.45454545 4.9452381c-.83636364 2.2142857-1.96363636 5.4619048-1.70909091 7.8238095l1.78181818 17.529762s-1.01818182 6.347619-.76363636 10.075c.21818182 2.5464285.21818182 5.6833333.58181818 9.3l4.25454546-.2214286 1.12727272-20.1130953 1.67272723-13.7654761 1.0545455.1107142 4.8 14.4297619s-1.7454545 3.9119048-1.0909091 19.6702381h4.1454546l2.1818181-20.6666666s-2.8727272-22.475-3.3454545-24.3202381z" fill="#3f4d57"/><path d="m8.03636364 33.9154762h-2.18181819l-1.45454545 4.9452381c-.83636364 2.2142857-1.96363636 5.4619047-1.70909091 7.8238095l1.78181818 17.5297619s-1.12727272 6.3476191-.76363636 10.075c.29090909 2.5464286.21818182 5.6833333.58181818 9.3l2.8-.147619c-.72727273-3.5059524-.18181818-7.75 0-10.702381.29090909-5.4619047.50909091-10.9238095.32727273-16.3857143-.18181818-5.4619047-.50909091-10.5916666.36363636-15.8690476.04495063-.3149386.19979333-.6030413.43636364-.8119048.08479236-.8831534.09695562-1.7719401.03636363-2.6571428-.07272727-1.0702381-.18181818-2.1035714-.21818181-3.1z" fill="#010101" opacity=".1"/><path d="m18.5090909 68.6059524c.5454546-8.4511905-5.7090909-19.5595238-6-18.6738095l4.6909091 14.0607142s-1.4545455 15.9797619-1.0909091 19.6702381h3.2727273c-2.4727273-4.0595238-1.1272727-10.9607142-.8727273-15.0571428z" fill="#010101" opacity=".1"/><path d="m10.5090909 90.675-2.32727272-1.7714286c-.095554-.0696336-.20966195-.1082356-.32727273-.1107143h-2.58181818c-.22925489.0022085-.43267949.1496741-.50909091.3690477-.31692831 1.0144243-.47641142 2.0727159-.47272727 3.1369047.01895557.2300657.20888164.4067553.43636364.4059524l7.67272727.0738095c.1369181.0096674.2691594-.0525826.3503236-.164908.0811641-.1123253.0999161-.2590393.0496764-.3886634-.4126937-.9153563-1.2996256-1.5154432-2.2909091-1.55z" fill="#ebebeb"/><path d="m8.8 89.3833333c-1.38181818.0738096-2.76363636.1476191-4.14545455.1476191-.24529609.8257378-.36785676 1.6839908-.36363636 2.5464286l5.92727271.0738095c-.0575366-.5270775.0175289-1.0603556.2181818-1.55z" fill="#d52e1e"/><path d="m25.4181818 90.6380952-5.1636363-2.0297619h-3.2c-.1397833.0105172-.2639442.0945229-.3272728.2214286-.3808784 1.112939-.5173992 2.2969318-.4 3.4690476.035855.2154072.2211288.3720996.4363637.3690476l11.0909091.1107143s-.1454546-1.8821428-2.4363637-2.1404762z" fill="#ebebeb"/><path d="m16.6181818 89.125c-.2516024.9746405-.3497842 1.9835244-.2909091 2.9892857h7.5636364c.1021317-.6402045.3512703-1.2470349.7272727-1.7714286l-3.2727273-1.2547619c-1.4545454.5166667-3.2363636.1107143-4.7272727.0369048z" fill="#d52e1e"/><path d="m20.0363636 14.9095238-7.0909091-2.2142857-6.29090905.775s-2 .4797619-2.54545454 1.55c-.25454546.4797619 2.4 9.3 2.4 9.3s.47272727 5.8678571-.65454546 8.5988095c-1.12727272 2.7309524-2.21818181 7.7130953-2.21818181 7.7130953l16.29090906.8119047s-.6909091-8.8940476-1.3454545-12.8797619c-.1454546-1.1071428 1.2363636-5.7571428 1.2363636-5.7571428s2.1818182-5.3511905.2181818-7.8976191z" fill="#d52e1e"/><path d="m5.41818182 20.3714286c.54545454 2.0666666 1.09090909 3.9488095 1.09090909 3.9488095s.47272727 5.8678571-.65454546 8.5988095c-1.12727272 2.7309524-2.21818181 7.7130953-2.21818181 7.7130953l3.92727272.1845238c-.58181818-1.4761905-.4-6.4952381-.43636363-4.8714286-.03636364 1.6238095.14545454-6.052381.18181818-10.9607143-.0261639-.4245733.14958679-.8361872.47272727-1.1071428-.2855293-1.4461444-1.13892185-2.711971-2.36363636-3.5059524z" fill="#010101" opacity=".06"/><path d="m20.0363636 14.9095238-1.6 13.7285714s1.7818182 4.6130953 2.2909091 4.6130953 2.0363637-6.4583334 1.4545455-12.3261905-2.1454546-6.0154762-2.1454546-6.0154762z" fill="#d52e1e"/><path d="m20.4 24.025c-.1090909 1.402381-.6909091 2.6571429-1.8181818 3.3952381l-.1454546 1.2178571s1.7818182 4.6130953 2.2909091 4.6130953 1.6727273-4.9821429 1.6-10.1488095c-.7019251-.0390491-1.3749175-.2967876-1.9272727-.7380953.0544393.5521929.0544393 1.1085214 0 1.6607143z" fill="#010101" opacity=".06"/><path d="m18.3272727 22.9178571 3.5272728.7011905 3.1272727-6.4952381-3.3454546-.5166666z" fill="#3f4d57"/><path d="m10.9454545 11.3666667c-.1090909.4797619-.6181818 1.8083333-.6181818 1.8083333-.0727272 1.2547619 1.2727273 1.9928571 1.9636364 2.1404762.6909091.147619 2.8727273-.1845238 2.9090909-1.4392857l.4727273-5.79404764-5.1272728-.73809524s1.4909091.29523809.4 4.02261908z" fill="#ca987a"/><path d="m12.1454545 10.9607143c.3981319 1.380855 1.7190574 2.2693804 3.1272728 2.1035714l.1090909-.4059524c-1.5636364.4797619-3.2363637-1.697619-3.2363637-1.697619z" fill="#010101" opacity=".1"/><path d="m3.85454545 42.5880952.25454546-8.3773809-3.23636364-.3321429.90909091 8.6357143h-.03636363l-.94545455 4.502381 1.12727273 2.6202381.90909091 1.3285714h.07272727l.14545454.7380952c.20930461-.0570733.38262298-.2059096.47272728-.4059524.10909091-.3690476-.25454546-2.4357142-.25454546-2.4357142h-.03636363c-.00463525-.1775789-.04162207-.3527526-.10909091-.5166667-.18181818-.8857143.29090909-2.0297619.29090909-2.0297619s.43636363-.2214286.58181818.3690476.47272727 1.55 1.2 1.4392857l-.47272727-2.9154762z" fill="#ca987a"/><path d="m1.78181818 42.5142857h-.03636363l-.94545455 4.502381 1.12727273 2.6202381.32727272.4797619c-.65454545-1.7345238-.58181818-3.5428572-.18181818-5.6833334s.03636364-2.8047619-.14545454-4.4654762c-.16640811-1.0896054.12364894-2.2001959.8-3.0630952.29374288-.4226028.82425285-.6020709 1.30909091-.4428571l.07272727-2.2511905-3.23636364-.3321429z" fill="#010101" opacity=".06"/><path d="m4.10909091 15.0202381c-2.58181818 5.3511905-3.78181818 14.5773809-3.78181818 14.5773809s.32727273 3.9857143.54545454 6.9380953c1.23636364-.0369048 2.36363637.0369047 3.6.0738095l.21818182-7.897619c.65454546-1.6238096 1.34545455-3.8011905 2.98181818-8.1559524 2.36363633-6.3476191-3.56363636-5.5357143-3.56363636-5.5357143z" fill="#d52e1e"/><path d="m4.07272727 15.0571429c-2.54545454 5.3880952-3.74545454 14.5404761-3.74545454 14.5404761s.32727273 3.9857143.54545454 6.9380953c.94545455-.0369048 1.81818182 0 2.72727273.0369047-1.74545455-3.4321428-1.92727273-7.270238-1.45454545-11.0714285.47272727-3.8011905.94545454-5.7571429 1.92727272-10.4440476z" fill="#010101" opacity=".06"/><path d="m22.1818182 19.375c-.1339282.1175646-.2078126.2906293-.2007352.4701965s.0943461.3460899.2370988.4524225c.1090909.1476191.7636364.775.7636364.775l-.2181818.5904762-.3636364-.1107142-2.0363636-.775c-.0761572.0554551-.1213204.1447542-.1213204.2398809s.0451632.1844258.1213204.239881l.5090909.3321428-1.0545455-.3690476s-.4363636.2952381.0363637.6273809l.8.3690477-1.0545455-.2952381c-.0847528.0731511-.1270826.1849899-.1123783.2969131s.0844283.2085991.1851056.2566583c.3048349.2034475.6350102.3647865.9818182.4797619l.5454545.3690476-1.6727273-.4797619c-.3636363.0369048 0 .4797619.1090909.627381.3881626.2545829.8027861.4649796 1.2363637.6273809.1927179.6527105.3385547 1.318742.4363636 1.9928572 0 .2214285-.7272727 1.4392857-.9818182 2.9523809-.2545454 1.5130953-.0727272 4.0964286.4 4.1333334.4727273.0369047 1.9636364-.0738096 2.5818182-2.8416667.2195228-1.2913479.2805938-2.6053194.1818182-3.9119048v-2.6202381s.1818182-2.2880952.3636364-2.6202381c.1123681-.2234983.0985008-.490898-.0363637-.7011904z" fill="#ca987a"/><path d="m20.2181818 23.397619c-.2447655.0340519-.4939981.0087577-.7272727-.0738095l.1454545.2214286c.3881626.2545829.8027861.4649797 1.2363637.6273809.1927179.6527105.3385547 1.318742.4363636 1.9928572 0 .2214286-.7272727 1.4392857-.9818182 2.9523809-.2545454 1.5130953-.0727272 4.0964286.4 4.1333334.2084321.0045224.4164749-.0203175.6181818-.0738095-.0405675-.0672133-.0654446-.1429553-.0727272-.2214286-.5454546-1.5130953-.3636364-3.0261905-.0363637-4.5761905.1818182-.8119048 1.0909091-5.3880952-1.0181818-4.9821429z" fill="#010101" opacity=".06"/><path d="m7.34545455 2.95238095c-2 1.36547619 1.85454545 7.60238095 2.25454545 8.26666665l1.4909091-8.15595236s-1.78181819-1.51309524-3.74545455-.11071429z" fill="#403f3e"/><path d="m10.3272727 3.02619048.1090909 5.20357142c.0363637 2.3988095 3.5636364 4.6130952 5.0545455 4.5761905 1.4909091-.0369048 3.2-2.325 3.1636364-4.72380954l-.109091-5.20357143z" fill="#ca987a"/><path d="m14.6909091.25833333h-1.5272727c-1.9272728 0-3.85454549 1.91904762-3.9636364 3.83809524-.18181818 4.31785714 2.1454545 6.20000003 2.1454545 6.20000003s-.7272727-2.10357146.1818182-3.43214289c.0363637-.07380952.5818182.62738096.6181818.18452381.0091311-.91216478.6736457-1.68067074 1.5636364-1.80833333 1.1366311-.1499994 2.2082266-.62339997 3.0909091-1.36547619.2585665.30439636.5514844.57690008.8727273.81190476.4619565.28998664.9487838.53702254 1.4545454.73809524-.0363636-1.91904762.1454546-5.38809524-4.4363636-5.16666667z" fill="#403f3e"/><path d="m10.3272727 6.56904762c-.2909091.22142857.1090909 2.36190476 1.2 2.25119048l.0727273-1.8452381s-.7636364-.84880952-1.2727273-.40595238z" fill="#ca987a"/></g><path d="m34.3647342 1h-10.0183487l3.6697248 13h6.3486239 6.3119266l3.6697247-13z" fill="#f5d85b"/><path d="m34.8638953 1h-4.5175098l1.6459144 13h2.8715954 2.8365758l1.6459144-13z" fill="#f5e395"/><path d="m30.346386 76h9v21h-9z" fill="#c5c5c4"/><path d="m32.346385 14h5v62h-5z" fill="#c5c5c4"/><g fill="#747474"><path d="m30.346386 73h9v3h-9z"/><path d="m31.346386 25h7v3h-7z"/><path d="m39.874695 96.0002173h-10.0566189c-.9236308-.0111442-1.8122518.4066807-2.4653932 1.1592148s-1.015781 1.7763823-1.0061087 2.8405679h16.9996227c.0096723-1.0641856-.3529674-2.0880338-1.0061087-2.8405679-.6531414-.7525341-1.5417624-1.170359-2.4653932-1.1592148z"/><path d="m30.4945337 15h8.7037037c1.1863895 0 2.1481481-.8954305 2.1481481-2h-13c0 1.1045695.9617587 2 2.1481482 2z"/><path d="m46.3463854 1.01408451c0 .54450609-.5960076.98591549-1.3312202.98591549h-21.3375593c-.7352126 0-1.3312203-.4414094-1.3312203-.98591549-.0002861-.54924464.5898956-.99882775 1.3312203-1.01408451h21.3375593c.7413247.01525676 1.3315064.46483987 1.3312202 1.01408451z"/></g><path d="m12.3998448 41.039974c-1.369909.2663124-2.2674712 1.5874093-2.00916 2.957227.2735132 1.3458324 1.582889 2.2192319 2.9323583 1.9559857s2.2335748-1.5645365 1.9799619-2.914251c-.2536129-1.3497144-1.5499509-2.2423039-2.9031602-1.9989617" fill="#157abf"/><path d="m11.7075755 35.1895111c-2.78125553.6083495-5.10604134 2.7643648-6.18545424 5.736414-.24613032.4580626-.23277499 1.037344.03412532 1.4801714.26690032.4428273.73775818.6669276 1.20312903.5726177.46537086-.09431.83879339-.4895082.95416372-1.0098048.74626894-2.0689575 2.33407087-3.5953853 4.25496717-4.0904978 1.9208963-.4951124 3.933872.1032122 5.3943414 1.6033813.3098211.3071395.7365394.4130795 1.1310545.2808035.2145971-.0791677.4087889-.2169146.5655272-.4011479.4203207-.5721327.373782-1.4172267-.1060363-1.9255095-1.9647671-2.0104438-4.6533247-2.8439799-7.2458178-2.2464279" fill="#157abf"/><path d="m10.6785021 30.3012528c-4.04223078.7856698-8.04771398 3.8909366-10.17907201 7.8566989-.15715132.2874919-.19509207.6269539-.10540134.9430427s.29959311.5826554.58311952.7405356c.59920593.3365553 1.35284182.1197153 1.6903874-.4863671 1.80063006-3.3297438 5.14465732-5.9112306 8.48868463-6.5846619 3.3440272-.6734314 6.5410643.0374128 9.186888 2.1325325.3091519.2542079.721022.3380733 1.1024266.2244772.4459175-.1319073.7831961-.5047127.875747-.9679928.0925508-.46328-.0748957-.9406-.4347764-1.2393655-3.2337846-2.5814868-7.0187825-3.4419824-11.2080034-2.6188996" fill="#157abf"/></g></g></svg>