<?xml version="1.0" encoding="UTF-8"?>
<svg width="1200px" height="400px" viewBox="0 0 1200 400" version="1.1" xmlns="http://www.w3.org/2000/svg" xmlns:xlink="http://www.w3.org/1999/xlink">
    <!-- Generator: Sketch 53.2 (72643) - https://sketchapp.com -->
    <title>da-01-problemen-oplossen</title>
    <desc>Created with Sketch.</desc>
    <g id="da-01-problemen-oplossen" stroke="none" stroke-width="1" fill="none" fill-rule="evenodd">
        <g id="Hoofdstuk-1-site_NDA[v1]" transform="translate(-1.000000, -1.000000)" fill-rule="nonzero">
            <polyline id="Path" fill="#DDEFF8" points="0.6 1.1 0.6 401.1 1200.6 401.1 1200.6 1.1 0.6 1.1"></polyline>
            <polyline id="Path" fill="#BCDFF1" points="0.6 240.7 0.6 401.1 1200.6 401.1 1200.6 240.7 0.6 240.7"></polyline>
            <path d="M1025.7,259 C1026.9,259.1 1025.8,262.2 1027.1,262.7 C1033.5,265 1030.3,273.2 1028.9,273.4 C1016,274.8 1001.4,271.2 989.1,270.2 C989.3,267.7 989.8,261 989.9,260.8 C990,260.5 994,257.5 997.9,257.9 C998.2,257.9 998.5,257.7 998.8,257.4 C999.2,257.1 999.5,256.9 999.9,256.9 C1005.3,257 1009,255 1008.2,249.3 C1012,249.7 1015.2,249.9 1019.1,250.1 C1017.2,255.7 1020.4,258.2 1025.7,259" id="Path" fill="#AD743F"></path>
            <path d="M1017.9,304.8 L1017.8,304.6 L1001.2,303.4 L991.2,282 L986.5,313.5 L995.9,313.8 L993.1,318 L985.7,335.9 L989.3,343.5 L999.9,332.2 L1004.8,324.5 L1016.7,316.9 C1019.4,312.7 1019.9,309.5 1017.9,304.8" id="Path" fill="#3D3D3D"></path>
            <polyline id="Path" fill="#373737" points="989.3 343.6 989.3 343.6 988.1 341.1 997.8 331.6 1003.3 321.6 1016.6 317 1016.7 317 1004.8 324.6 999.8 332.3 989.3 343.6"></polyline>
            <path d="M995.9,313.9 L995.9,313.9 L986.5,313.6 L991.2,282.1 L1001.2,303.5 L1000.9,304.2 C1000.1,304.4 999.4,304.7 998.7,304.9 C999.2,305.1 999.8,305.2 1000.3,305.2 C1000.4,305.2 1000.4,305.2 1000.5,305.2 L995.9,313.9" id="Path" fill="#323232"></path>
            <polygon id="Path" fill="#AD743F" points="984 329.6 984.7 323.7 978 322.9 977.4 329.3"></polygon>
            <path d="M984,329.6 L983.1,329.4 C983,328.3 982,327.4 980.5,327.2 C978.9,327 977.6,327.8 977.4,329 C977.4,329.1 977.4,329.2 977.4,329.3 L977.4,329.3 L973.3,335.8 C972.8,337 973.3,338.3 974.5,338.9 C976.8,340 979.4,340.6 982,340.7 L982.3,340.7 C983.5,340.7 984.5,339.9 984.7,338.8 L984,329.6 Z" id="Path" fill="#E9A212"></path>
            <path d="M984.6,338.7 L984.4,332.4 C984.4,331.4 984.2,330.5 983.9,329.6 L983.9,337.8 C983.7,339 982.7,339 982,339 L981.7,339 C979.1,338.9 976.6,338.3 974.2,337.2 C973.7,336.9 973.3,336.5 973,336 C972.6,337.1 973.2,338.4 974.2,338.9 C976.5,340 979.1,340.6 981.7,340.7 L982,340.7 C983.4,340.7 984.4,339.9 984.6,338.7" id="Path" fill="#E0E1E1"></path>
            <path d="M1031.7,270.5 L1036,292.1 C1036,292.1 1048,308 1049,308.6 C1050,309.2 1054.1,308.9 1054.1,308.9 C1054.7,308.8 1059.5,309.8 1060,310.1 L1063.4,312 C1063.8,312.2 1063.6,312.8 1063.2,312.8 C1063.2,312.8 1058.1,311.9 1055.3,311.7 C1052,312.8 1058.4,312.8 1057.6,314.3 L1053.4,314.3 L1049.3,312.7 C1049.3,312.7 1039.7,307.7 1037,305.5 C1034.3,303.2 1029.8,297.9 1029.8,297.9 C1029.8,297.9 1025.4,288.2 1024.6,280.6 C1026.9,276.9 1031.7,270.5 1031.7,270.5" id="Path" fill="#E3B98F"></path>
            <path d="M1019.3,308.5 L1019,308.5 C1019,308.5 1019,308.5 1018.9,308.5 C1018.7,307.3 1018.3,306.1 1017.8,304.8 L1017.7,304.6 L1002.6,303.5 C1007.6,301.9 1013.4,299.9 1016.1,297.9 C1021.3,294.1 1002.1,295.2 1013.7,289.3 C1018.1,287.1 1021.8,283.9 1024.8,280.8 C1024.9,281.7 1025.1,282.7 1025.3,283.7 C1022.5,290.7 1020.3,307.5 1020.3,307.5 C1020.2,308.1 1019.8,308.5 1019.3,308.5" id="Path" fill="#B3D4E5"></path>
            <path d="M1019,308.5 C1018.8,308.5 1018.6,308.4 1018.5,308.2 C1018.1,307.9 1017.7,307.5 1017.2,307.2 C1014.4,305.4 1011.2,304.5 1007.9,304.5 C1007.7,304.5 1007.4,304.5 1007.2,304.5 C1006.2,304.6 1005.2,304.6 1004,304.7 L1000.8,304.9 C1000.7,304.9 1000.6,304.9 1000.4,304.9 L1000.9,303.9 C1001.5,303.7 1002.1,303.5 1002.7,303.3 L1017.8,304.4 L1017.9,304.6 C1018.4,306.2 1018.8,307.4 1019,308.5" id="Path" fill="#3A3A3A"></path>
            <path d="M1032,271.7 L1032,271.7 C1032.2,271.4 1032.3,271.2 1032.4,271.1 C1032.2,271.2 1032.1,271.4 1032,271.7" id="Path" fill="#B3D4E5"></path>
            <path d="M1000.2,305.1 C999.6,305.1 999.1,305 998.6,304.8 C999.3,304.6 1000.1,304.4 1000.8,304.1 L1000.3,305.1 C1000.3,305 1000.3,305.1 1000.2,305.1" id="Path" fill="#303030"></path>
            <path d="M1025.3,283.8 C1025.1,282.8 1024.9,281.9 1024.8,280.9 C1028.6,276.9 1031.1,273.1 1032,271.6 L1032,271.6 C1030.6,274.2 1027.3,280.1 1026.1,282 C1025.8,282.5 1025.5,283.1 1025.3,283.8" id="Path" fill="#D8B088"></path>
            <path d="M1032.3,271 C1032.5,270.6 1032.6,270.4 1032.6,270.4 L1032.3,271 L1032.3,271" id="Path" fill="#B3D4E5"></path>
            <path d="M983.6,330 C979.9,324.9 989.2,347.8 989.2,347.8 L989.8,344.9 L983.6,330 Z" id="Path" fill="#E9A212"></path>
            <path d="M1022.1,257.4 L1022.1,257.4 C1022.1,260.9 1017.9,263.7 1012.6,263.7 C1007.3,263.7 1003.1,260.9 1003.1,257.4 C1003.1,257 1003.2,256.6 1003.3,256.3 C999.9,256.4 997,256.7 994.9,257.1 C989.6,258 984.3,265.6 979.2,270.7 C979.7,274.7 985.9,275.5 988.7,280.5 L992.2,284.8 L995.9,301.5 C996.4,303.7 998.5,305.3 1000.8,305 L1004,304.8 C1005.2,304.7 1006.2,304.7 1007.2,304.6 C1010.7,304.5 1014.2,305.4 1017.2,307.3 C1017.7,307.6 1018.1,307.9 1018.5,308.3 C1019.2,308.9 1020.2,308.5 1020.3,307.6 C1020.3,307.6 1023,287.3 1026.1,282 C1027.6,279.5 1032.6,270.4 1032.6,270.4 C1032.2,265 1029.3,259.3 1022.1,257.4" id="Path" fill="#147ABF"></path>
            <path d="M978.5,284.8 C978.7,282.8 979.8,281.1 981.3,279.9 C982.6,278.9 984.3,278.4 985.9,278.5 L988.8,278.6 C991.6,281.8 992.9,286 992.3,290.2 L984.6,325.9 L976.9,324.9 L978.5,284.8 Z" id="Path" fill="#3D3D3D"></path>
            <path d="M986.2,347 C986.2,347 984.5,335.7 981.5,330.2" id="Path" fill="#E9A212"></path>
            <path d="M985.3,351.4 L985.3,351.4 C982.5,351.2 980.7,348.8 980.8,345.5 C980.9,343.9 980.5,342.5 979.7,341.5 L976.1,336.7 C974.9,335.1 974.2,333 974.3,330.5 C974.3,329.6 974.5,328.7 974.7,327.9 C975.1,326.7 976.8,326.4 978.1,326.7 C980.3,327.2 982.4,328.6 983.1,330.7 L989.1,347.3 C989.6,348.9 986.9,351.5 985.3,351.4" id="Path" fill="#E0E1E1"></path>
            <path d="M988,347.8 L982,331.2 C981.2,329 979.1,327.7 976.9,327.2 C976.4,327.1 975.8,327.1 975.3,327.2 C976,326.7 977.1,326.6 978,326.8 C980.2,327.3 982.3,328.7 983,330.8 L989,347.4 C989.5,348.8 987.3,351.1 985.7,351.3 C987.1,350.6 988.4,348.9 988,347.8" id="Path" fill="#F0EFEF"></path>
            <path d="M1040,228.9 C1046,226.1 1048.7,234.9 1049.4,238 C1050.9,245.3 1061.6,252 1041.5,256 C1021.4,260 1028.4,249.6 1027.2,242 C1026.2,235.9 1027.8,229.9 1035,229.6 C1036.6,229.5 1038.4,230.1 1040.1,230.1 C1039.9,229.8 1039.6,229.5 1039.3,229.3 L1040,228.9 Z" id="Path" fill="#E16F0D"></path>
            <path d="M1036.1,249.6 C1036.9,252.6 1036.8,255.8 1035.7,257.2 C1035.4,257.6 1034.2,257.8 1033,258.1 C1031.3,258.4 1029.2,258.7 1028.2,258.9 C1025.6,259.4 1025.3,262.8 1025.4,264.2 C1025.6,266 1027.2,265.7 1027.7,267.2 C1027.8,267.5 1027.9,268.3 1028,269.2 C1029.1,269.8 1030.2,270.3 1031.4,270.8 L1050.1,270.8 C1050.8,270.6 1051.4,270.3 1052.1,270 L1052.5,266.7 L1056.4,264 C1056.3,257.6 1050,259.3 1046.7,257.9 C1044,256.8 1043.8,254.5 1044,249.9 L1036.1,249.6 Z" id="Path" fill="#FBD7C0"></path>
            <path d="M1047.7,258 C1049.7,258.2 1053.5,257.9 1055.3,258.8 C1056.2,259.3 1057.2,260.4 1057.5,261.4 C1057.8,262.5 1058.9,267.6 1059.8,270.7 L1053.9,268.6 L1053.4,271.3 C1053.9,272.2 1054.1,273.2 1054.1,274.2 C1054.1,276.1 1053.2,277.9 1051.8,279 L1049.2,292.2 L1052.1,300.3 L1029.6,300.7 L1032.8,292.6 L1030.1,279 C1028.7,277.8 1027.8,276.1 1027.8,274.1 C1027.8,273 1028.1,272 1028.5,271.1 L1027.9,268 L1021.9,272.2 C1023.1,269.5 1023.6,262.3 1024.1,261.1 C1024.9,259 1026.2,258.4 1028.4,258.4 C1029.4,258.3 1031.9,258.2 1032.9,258 C1034,265.6 1037,269.4 1040,269.9 C1043.8,270.7 1047.5,266.4 1047.7,258" id="Path" fill="#E9ACCE"></path>
            <path d="M1030.5,241.3 C1030.1,241.1 1029.9,241.3 1029.9,241.7 C1029.9,242.3 1030.6,243.4 1030.9,244 C1030.7,243 1030,242.2 1030,241.7 C1030,241.4 1030.3,241.3 1030.6,241.5 L1030.5,241.3" id="Path" fill="#E9A37A"></path>
            <path d="M1043.3,251 C1044.1,250.1 1044.6,249.2 1045.3,247.7 C1045.8,246.6 1046,245.8 1046.2,244.6 C1047,244.6 1047.2,244 1047.2,243.1 C1047.3,241.8 1047.6,240.5 1047.6,239.4 C1047.7,238 1046.7,237.4 1046.1,238.6 C1046,237.5 1045.8,236.3 1045.5,235.3 C1044.2,231.5 1041.2,228.9 1037,229.5 C1032.4,230.2 1030.4,232.4 1030.4,236.9 C1030.4,238.3 1030.5,239.5 1030.7,240.6 C1029.9,240.1 1029.4,240.9 1029.8,242 C1030.2,243 1030.9,244.2 1031.3,245.4 C1031.6,246.2 1032,246.7 1032.6,246.5 C1033.2,247.7 1033.8,248.7 1034.7,249.6 C1035.6,250.5 1036.3,251.1 1037.1,251.6 C1038.8,252.7 1039.7,253.1 1040.5,253 C1041.3,253.1 1042.1,252.4 1043.3,251" id="Path" fill="#FAD4C7"></path>
            <path d="M1027.4,238.8 C1025.9,230.8 1035.4,224.7 1041.2,228.8 C1041,228.9 1043,230.1 1043.9,231 C1047.2,234.5 1046.6,239.2 1046,243.4 C1046,240.1 1046,236.9 1044.4,234 C1042.3,240 1031.3,238 1032.2,244.9 C1031.8,244.6 1031.6,243.9 1031.4,243.5 C1030.8,245.1 1031.2,250.3 1035.2,251.3 C1030,252.5 1027.7,239.9 1027.4,238.8" id="Path" fill="#E16F0D"></path>
            <path d="M1031.8,265.6 L1026.5,280.7 L1032.4,294.5 L1030.2,297.1 L1020.7,283.5 C1018.8,281.7 1018.9,282.3 1020.1,280 L1025.1,260.1 L1031.8,265.6 Z" id="Path" fill="#E9ACCE"></path>
            <path d="M1052.2,269.7 C1053.4,270.8 1054.1,272.5 1054.1,274.2 C1054.1,275.5 1053.7,276.7 1053,277.8 C1051.1,280.6 1047.6,281.2 1044.6,279.7 C1048.8,280.1 1054.7,276.4 1052.2,269.7" id="Path" fill="#E494BF"></path>
            <path d="M1029.7,269.8 C1028.5,270.9 1027.8,272.6 1027.8,274.3 C1027.8,275.6 1028.2,276.8 1028.9,277.9 C1030.8,280.7 1034.3,281.3 1037.3,279.8 C1033.1,280.2 1027.2,276.5 1029.7,269.8" id="Path" fill="#E494BF"></path>
            <path d="M1048.7,265.6 L1059.3,280.2 L1048.1,294.5 L1050.3,297.1 L1065.2,283.1 C1067.1,281.3 1067,281.9 1065.8,279.5 L1055.4,260 L1048.7,265.6 Z" id="Path" fill="#E9ACCE"></path>
            <path d="M1012.9,264.8 L1017.2,262.6 L1022.6,263 L1022.4,264 L1018.5,263.9 C1017.8,267.8 1018.8,270.8 1015.9,273.2 L1019.7,273.7 L1018.4,275.1 L1013,275.5 L1008.2,272.6 L1008.3,267 L1012.9,264.8 Z" id="Path" fill="#AD743F"></path>
            <path d="M1017.6,264 L1032,264 C1033,264 1033.8,264.8 1033.8,265.8 L1033.8,271.8 C1033.8,272.8 1033,273.6 1032,273.6 L1017.6,273.6 C1016.6,273.6 1015.8,272.8 1015.8,271.8 L1015.8,265.8 C1015.8,264.8 1016.6,264 1017.6,264" id="Path" fill="#2E2E2C"></path>
            <path d="M1029.4,269.6 C1029.9,269.6 1030.2,269.2 1030.2,268.8 C1030.2,268.3 1029.8,268 1029.4,268 C1029,268 1028.6,268.4 1028.6,268.8 C1028.6,269.3 1028.9,269.6 1029.4,269.6" id="Path" fill="#4E4D4C"></path>
            <path d="M1008.3,266.2 L1009.7,273.8 L983.1,280.2 C980.8,280.8 977.9,279.3 977,277 C975.9,274 977.8,269.7 983.6,269.1 L1008.3,266.2 Z" id="Path" fill="#5B91CD"></path>
            <polyline id="Path" fill="#026A9D" points="1028 308.6 1054.5 308.6 1054.5 299.3 1028 299.3 1028 308.6"></polyline>
            <path d="M1046.7,317 L1036.1,317 C1030.4,317 1025.6,312.6 1025.2,306.8 L1023.9,288.6 L1035.6,289.7 L1041.3,306.4 L1048.4,286.4 L1059.3,286.3 L1057.5,307.1 C1057.1,312.7 1052.4,317 1046.7,317" id="Path" fill="#026A9D"></path>
            <path d="M1034.2,344.4 C1036,344.7 1037.7,343.7 1038.3,342 L1039.9,333.7 C1040.5,331.7 1040.5,330 1038.6,329.3 C1036.7,328.7 1035.6,330.1 1035,332 L1031.4,339.4 C1030.6,341.6 1031.9,344 1034.2,344.4" id="Path" fill="#F0F1F1"></path>
            <polyline id="Path" fill="#F0C89B" points="1032.4 338.5 1036.4 329.8 1038.7 319.2 1044.6 321.1 1039.9 331.7 1038.1 340.7 1032.4 338.5"></polyline>
            <polyline id="Path" fill="#E6BD92" points="1038.1 340.7 1032.4 338.5 1036.4 329.8 1038.7 319.2 1044.6 321.1 1040.2 331.1 1039.9 331.7 1038.1 340.7"></polyline>
            <path d="M1044.6,321.1 L1059.2,288.6 C1060.3,285.3 1058.5,281.8 1055.2,280.7 C1051.7,279.5 1048,281.7 1047.2,285.3 L1038.8,319.1 L1044.6,321.1" id="Path" fill="#026A9D"></path>
            <polyline id="Path" fill="#AFCFE0" points="1039.3 317.1 1039.3 317.1 1039.3 317 1039.3 317 1039.3 317.1"></polyline>
            <polyline id="Path" fill="#026392" points="1039.3 317 1039.3 317 1040.2 313.5 1039.3 317"></polyline>
            <polyline id="Path" fill="#026392" points="1044.6 321.1 1044.6 321.1 1040.5 319.8 1039.3 317.1 1039.3 317 1040.2 313.5 1042.9 302.3 1046.5 316.7 1044.6 321.1"></polyline>
            <path d="M1048.9,344.4 L1048.9,344.4 C1047.1,344.7 1045.4,343.7 1044.8,342 L1043.3,333.7 C1042.7,331.7 1042.7,330 1044.6,329.3 C1046.6,328.7 1047.6,330.1 1048.2,332 L1051.8,339.3 C1052.5,341.6 1051.2,344 1048.9,344.4" id="Path" fill="#F0F1F1"></path>
            <polygon id="Path" fill="#F0C89B" points="1050.7 338.6 1046.7 329.9 1044.4 319.2 1038.5 321.1 1043.2 331.7 1045 340.7"></polygon>
            <path d="M1038.5,321.1 L1024,288.6 C1022.9,285.3 1024.7,281.8 1028,280.8 C1031.5,279.6 1035.2,281.8 1036,285.4 L1044.4,319.2 L1038.5,321.1 Z" id="Path" fill="#026A9D"></path>
            <path d="M1027.5,281 C1027.5,281 1043.7,288.7 1049,288.5 C1054.3,288.3 1055.9,287.5 1055.9,287.5 L1058.2,289.6 C1059,290.3 1059.2,291.5 1058.7,292.4 L1058.2,293.5 C1057.4,295.2 1055.4,295.9 1053.6,295.2 L1049.1,293.2 C1049.1,293.2 1026.8,288.6 1023.5,287.3 C1017.6,285.1 1019.5,280.7 1019.9,280 C1022.2,279.7 1025,280.1 1027.5,281" id="Path" fill="#FBD7C0"></path>
            <path d="M1011.7,257.3 L1011.7,257.3 C1010.5,256.8 1009.9,256.5 1009.4,256 C1008.9,255.5 1008.9,254.8 1008.4,253.7 C1008,252.7 1007,251.5 1007,250.7 C1007,249.7 1007.5,248.7 1007.9,247.4 C1007.1,247.5 1007.2,245.4 1007.3,244.7 C1007.5,243.7 1007.5,241.9 1007.7,240.8 C1007.8,240.2 1008.1,239.7 1008.4,239.7 C1008.9,239.6 1009.3,239.9 1009.6,241 C1009.9,240.3 1010.3,239.6 1010.6,238.8 C1011.2,237.3 1011.6,236.1 1012.2,235.1 C1012.8,234.1 1013.6,233.4 1014.8,233 L1014.8,233 C1015.4,232.8 1016.1,232.6 1016.8,232.6 L1016.8,232.6 L1016.9,232.6 L1017,232.6 L1017.1,232.6 L1017.2,232.6 L1017.3,232.6 L1017.4,232.6 L1017.5,232.6 L1017.6,232.6 L1017.8,232.6 L1017.8,232.6 C1019.6,232.7 1021.4,233.3 1023,234.2 C1024.5,235.1 1025.8,236.4 1026.6,238 C1027.1,239.1 1027.2,240.1 1026.9,241.3 C1026.7,242.4 1026.1,243.6 1025.5,245 C1025.2,245.8 1024.9,246.5 1024.6,247.3 C1025.5,246.7 1026,246.7 1026.3,247.2 C1026.4,247.4 1026.3,247.9 1025.9,248.5 C1025.3,249.4 1024,250.7 1023.4,251.5 C1023,252 1021.6,253.6 1021.1,253 C1020.4,254.2 1020.1,255.2 1019.4,255.9 C1018.8,256.5 1017.3,256.7 1016.3,257.1 C1015.2,257.6 1014.6,258 1013.9,258 C1013.3,258 1012.7,257.8 1011.7,257.3" id="Path" fill="#C78F58"></path>
            <path d="M1014.3,235.4 C1013.5,235.8 1010.9,239.2 1009.3,243.4 C1010.2,236.6 1011.1,231.8 1015.4,230.2 C1016.5,229.4 1016,228.5 1018.6,225.2 C1018.7,227.6 1020.8,228.2 1021.6,229.2 L1021.6,228.4 C1022.4,229.7 1023.6,230.4 1024.8,231.2 C1026.8,232.4 1028,234.1 1028,234.9 C1031.5,238 1027.1,243.8 1023.9,248.4 C1024.9,245.8 1025.7,242.4 1025.4,239.6 C1025.2,239.2 1024.9,238.8 1024.6,238.9 C1020,239 1015,235 1014.3,235.4" id="Path" fill="#552A16"></path>
            <rect id="Rectangle" fill="#FFFFFF" x="696.3" y="349.1" width="5.8" height="52.2"></rect>
            <rect id="Rectangle" fill="#FFFFFF" x="696.3" y="297.8" width="5.8" height="3.9"></rect>
            <rect id="Rectangle" fill="#FFFFFF" x="696.3" y="313.8" width="5.8" height="3.9"></rect>
            <g id="Group" transform="translate(696.000000, 329.000000)" fill="#FFFFFF">
                <rect id="Rectangle" x="0.3" y="0.9" width="5.8" height="12.1"></rect>
                <rect id="Rectangle" x="144.1" y="20.1" width="5.8" height="52.2"></rect>
            </g>
            <rect id="Rectangle" fill="#FFFFFF" x="840.1" y="329.9" width="5.8" height="12.1"></rect>
            <rect id="Rectangle" fill="#FFFFFF" x="840.1" y="297.8" width="5.8" height="3.9"></rect>
            <rect id="Rectangle" fill="#FFFFFF" x="840.1" y="313.8" width="5.8" height="3.9"></rect>
            <path d="M765.9,285.6 L687,285.6 L687,297.8 L696.3,297.8 L702.1,297.8 L764.6,297.8 L765.2,293.1 C766,293.3 766.9,293.4 767.7,293.6 C765.9,293.3 764.6,293 764.5,293 L765.9,285.6 Z" id="Path" fill="#A29598"></path>
            <path d="M774.9,295 L774.4,297.8 L775.5,297.8 L775.6,293.9 L775.3,295.1 C775.2,295 775.1,295 774.9,295" id="Path" fill="#A29598"></path>
            <path d="M772.7,294.6 C771,294.3 769.4,294 767.7,293.7 C769.3,293.9 771.1,294.2 772.7,294.6" id="Path" fill="#A29598"></path>
            <path d="M819.5,292.5 C818.9,292.6 818.2,292.7 817.5,292.8 L818,297.8 L840,297.8 L845.8,297.8 L856.9,297.8 L856.9,285.6 L818,285.6 L819.5,292.5 Z" id="Path" fill="#A29598"></path>
            <polygon id="Path" fill="#A29598" points="840.1 301.6 825.8 301.6 823.1 313.8 840.1 313.8 845.9 313.8 856.9 313.8 856.9 301.6 845.9 301.6"></polygon>
            <polygon id="Path" fill="#A29598" points="772.9 307.2 775.2 308.7 775.4 301.6 773.8 301.6"></polygon>
            <path d="M763.1,309.9 L763.2,308.6 L763.2,308.6 L763.6,305.7 L764.1,301.6 L702.2,301.6 L696.4,301.6 L687.1,301.6 L687.1,313.8 L696.4,313.8 L702.2,313.8 L766,313.8 C764.1,313 763,311.9 763.1,309.9" id="Path" fill="#A29598"></path>
            <polygon id="Path" fill="#A29598" points="840.1 317.7 822.3 317.7 821.3 322.3 822.5 329.9 840.1 329.9 845.9 329.9 856.9 329.9 856.9 317.7 845.9 317.7"></polygon>
            <polygon id="Path" fill="#A29598" points="702.1 317.7 696.3 317.7 687 317.7 687 329.9 696.3 329.9 702.1 329.9 774.7 329.9 774.7 325.8 774.2 325.8 774.2 323.4 774.7 323.4 774.7 323.4 774.9 317.7 774.8 317.7"></polygon>
            <path d="M840.1,342 L826.5,342 C826.3,342.7 825.9,343.2 824.9,343.2 L818.6,343.2 L818.2,349.1 L840.1,349.1 L845.9,349.1 L857,349.1 L857,342 L845.9,342 L840.1,342 Z" id="Path" fill="#A29598"></path>
            <path d="M803.6,343.2 L797.3,343.2 L796.9,349.1 L805.7,349.1 L805.7,343.1 C805.2,343.2 804.7,343.2 804.2,343.2 L803.6,343.2 Z" id="Path" fill="#A29598"></path>
            <path d="M782.9,343.2 C781.3,343.2 779.9,342.8 778.6,342 L702.1,342 L696.3,342 L687,342 L687,349.1 L696.3,349.1 L702.1,349.1 L784.5,349.1 L784.5,343.2 L783.6,343.2 L782.9,343.2 Z" id="Path" fill="#A29598"></path>
            <path d="M781.2,323.4 L781.8,323.4 L782.3,321.1 L780.6,320.3 C780.8,321.5 781,322.6 781.2,323.4" id="Path" fill="#EF7B26"></path>
            <path d="M815.5,273.4 C815.1,272.3 813.5,269 809.2,267.9 L797.8,263.6 L797.8,266.2 C797.8,267.6 797.3,268.8 796.4,269.8 C795.8,270.2 795.3,271.3 792.6,271.3 C792,271.3 791.4,271.3 790.6,271.2 C788.6,270.5 787.1,268.6 787.1,266.3 L787.1,263.1 L774.4,267.9 C770,269 768.5,272.3 768.1,273.4 L776.6,289.9 L776.6,290 L776.9,290.2 C777.3,291.6 778.4,302.3 779.5,311.4 L783.9,314.2 L787,299.8 L808.5,299.8 L808.5,297.9 L808,294.4 L807,287.8 L815.5,273.4 L815.5,273.4 Z" id="Path" fill="#E47E28"></path>
            <path d="M774.9,317.7 L774.7,323.4 L781.3,323.4 C781.1,322.6 780.9,321.6 780.7,320.3 L774.9,317.7 Z" id="Path" fill="#ED6B08"></path>
            <path d="M776.5,289.9 L775.6,293.8 L775.1,308.6 L779.3,311.3 C778.2,302.2 777.1,291.6 776.7,290.1 L776.5,289.9 Z" id="Path" fill="#ED6B08"></path>
            <path d="M788,244.4 L788,244.4 L788,244.4 L788,246.1 C788.2,250.1 788.5,252.9 789.7,254.4 L793.5,254 C794,253.6 794.7,253.4 795.4,253.4 L797.8,253.4 C799.1,253.4 800.3,254.2 800.8,255.4 C802.1,254.6 802.5,253.3 802.6,252.4 L802.6,251.5 L802.6,251.4 L802.6,251.5 L802.6,241.7 L790.7,241.7 C787.9,241.7 788,244.4 788,244.4" id="Path" fill="#EDC4AD"></path>
            <path d="M787.1,258.3 L787.1,258.3 L787.1,255.9 C786.8,255 786.6,254.2 786.5,253.6 L787.1,258.3 Z" id="Path" fill="#EDC4AD"></path>
            <path d="M785.2,246 C784.6,246 783.9,246 783.9,247.9 C783.9,252.3 785.8,252.5 786.2,252.5 L786.3,252.5 L786.3,252.5 L786.5,247 C786.2,246.7 785.8,246 785.2,246" id="Path" fill="#EDC4AD"></path>
            <path d="M792.3,255.7 C792.5,255 792.9,254.5 793.5,254 L790.1,254 C790.7,254.8 791.4,255.3 792.3,255.7" id="Path" fill="#EDC4AD"></path>
            <path d="M796.5,263.4 C790.8,263.3 788.2,259.1 787.1,255.9 L787.1,258.4 L787.1,263.1 L787.1,266.2 C787.1,268.5 788.6,270.4 790.6,271.1 C791.4,271.2 792,271.2 792.6,271.2 C795.3,271.2 795.8,270.2 796.4,269.7 C797.3,268.8 797.8,267.5 797.8,266.1 L797.8,263.5 L797.8,263.2 C797.5,263.3 797.1,263.3 796.7,263.3 L796.5,263.4" id="Path" fill="#EDC4AD"></path>
            <path d="M789.9,234.5 C787.6,234.5 782.5,235.2 782.5,241.4 L782.5,248.4 C782.5,248.4 782.8,256.1 787.1,258.3 L787.1,258.3 L786.5,253.6 C786.4,253 786.3,252.6 786.3,252.5 L786.2,252.5 C785.8,252.5 783.9,252.2 783.9,247.9 C783.9,246.1 784.6,246 785.2,246 C785.8,246 786.3,246.7 786.4,247 L788,246.9 L787.9,245.8 C787.9,245.9 787.9,246 787.9,246.1 L787.9,244.4 L787.9,244.4 L788,244.4 C788,244.4 787.9,241.7 790.6,241.6 C790.7,241.6 790.8,241.6 790.9,241.6 L802.6,241.6 C802.6,241.6 804.8,241.5 804.8,234.6 L791.1,234.6 C791,234.5 790.6,234.5 789.9,234.5" id="Path" fill="#683328"></path>
            <path d="M774.7,334.3 L774.7,334.9 C774.7,337.9 776.3,340.5 778.7,342 L779.2,342 C776.5,340.4 774.7,337.6 774.7,334.3" id="Path" fill="#ECECEC"></path>
            <path d="M804.3,343.2 C804.8,343.2 805.3,343.2 805.8,343.1 L805.8,343 C805.1,343.2 804.4,343.2 803.7,343.2 L804.3,343.2 Z" id="Path" fill="#978B8E"></path>
            <path d="M778.7,342 C779.9,342.8 781.4,343.2 783,343.2 L783.6,343.2 C782,343.2 780.4,342.8 779.1,342 L778.7,342 Z" id="Path" fill="#978B8E"></path>
            <path d="M822.8,397 L814.7,393.6 L806.9,393.6 C806.9,393.6 805.2,397 805.8,400.9 L827.4,400.9 C827.5,400.9 827.2,397.5 822.8,397" id="Path" fill="#5E5D5C"></path>
            <path d="M798.4,397 L793,393.6 L785.8,393.6 C785.8,393.6 784,397 784.6,400.9 L803.2,400.9 C803.2,400.9 802.9,397.5 798.4,397" id="Path" fill="#5E5D5C"></path>
            <path d="M817.5,292.8 C814.6,293.2 810.9,293.7 808.5,294.2 L807.9,294.5 L807.9,294.5 L808.4,298 L808.6,299.9 L808.6,299.7 L808.7,299.9 L818.2,299.9 L818,297.9 L817.5,292.8 Z" id="Path" fill="#EDC4AD"></path>
            <path d="M821.3,322.3 L820.5,325.8 L817.7,325.8 C818.7,327 819.3,328.5 819.4,330.2 C820.2,331.8 820.8,333.2 821.5,334.2 L821.6,334.4 L823.3,334.4 L822.6,329.8 L821.3,322.3 Z" id="Path" fill="#EDC4AD"></path>
            <path d="M815.5,273.4 L807,287.9 L808,294.5 L808,294.5 L808.6,294.2 C811,293.7 814.7,293.2 817.5,292.8 C818.2,292.7 818.9,292.6 819.5,292.5 L818.1,285.6 L815.5,273.4 Z" id="Path" fill="#E47E28"></path>
            <polygon id="Path" fill="#DBB6A2" points="808.7 299.8 808.8 299.8 808.7 299.6"></polygon>
            <path d="M819.3,330.2 L819.3,330.4 L819,334.4 L821.4,334.4 L821.3,334.2 C820.8,333.2 820.1,331.8 819.3,330.2" id="Path" fill="#DBB6A2"></path>
            <path d="M765.9,285.6 L764.6,293 C764.6,293 769.2,293.9 772.7,294.6 C773.4,294.7 774.1,294.8 774.9,294.9 L774.9,295 C775.1,295 775.2,295.1 775.4,295.1 L775.7,293.9 L776.6,290 L776.6,290 L768.1,273.5 L765.9,285.6 Z" id="Path" fill="#E47E28"></path>
            <path d="M765.3,293.1 L764.7,297.8 L764.2,301.7 L764.2,301.7 L773,307.3 L773.9,301.7 L774.5,297.8 L775,295 L775,294.9 C774.3,294.8 773.5,294.7 772.8,294.6 C770.2,294.1 767.7,293.7 765.3,293.1" id="Path" fill="#EDC4AD"></path>
            <path d="M763.2,308.6 L763.6,305.7 L763.2,308.6 Z" id="Path" fill="#EDC4AD"></path>
            <path d="M823.2,334.4 L821.5,334.4 L819.1,334.4 L818.5,343.2 L824.8,343.2 C825.8,343.2 826.2,342.7 826.4,342 C826.6,341.3 826.5,340.4 826.4,339.7 C826.3,338.2 823.2,334.4 823.2,334.4" id="Path" fill="#EDC4AD"></path>
            <polygon id="Path" fill="#1D9FA4" points="781.8 323.4 781.2 323.4 774.7 323.4 774.7 323.4"></polygon>
            <path d="M806,328.5 C805.8,329.1 805.7,329.7 805.7,330.3 C805.7,329.7 805.8,329.1 806,328.5 M819.3,330.2 C819.2,328.5 818.6,327 817.6,325.8 L807.3,325.8 C807.1,326.1 806.9,326.4 806.7,326.7 C805.9,331.3 806.5,335.8 807.5,340.2 C806.5,335.8 805.9,331.4 806.7,326.7 L806.7,326.7 C806.4,327.2 806.2,327.7 806,328.3 C806.3,327.4 806.7,326.5 807.3,325.8 L796.3,325.8 L786.7,325.8 L786.2,325.8 L786.2,325.8 L781.4,325.8 L774.7,325.8 L774.7,325.9 L774.7,334.3 C774.7,337.6 776.5,340.5 779.1,342 C780.4,342.8 781.9,343.2 783.6,343.2 L784.5,343.2 L784.5,393.6 L790.3,393.6 L794.1,393.6 L796.9,349.1 L797.3,343.2 L803.6,343.2 C804.3,343.2 805,343.1 805.7,343 L805.7,393.7 L810.9,393.7 L815.3,393.7 L818.1,349.2 L818.5,343.3 L819.1,334.5 L819.4,330.5 L819.3,330.2" id="Shape" fill="#026A9D"></path>
            <polygon id="Path" fill="#EDC4AD" points="775.2 308.7 774.9 317.7 780.6 320.3 782.3 321 783.8 314.2 779.4 311.4"></polygon>
            <path d="M764.1,301.6 L764.1,301.6 L764.1,301.6 L764.1,301.6 L763.5,305.7 L763.2,308.6 L763.1,309.9 C763,311.9 764.1,313 766,313.8 C766.4,314 766.9,314.2 767.4,314.3 L774.9,317.6 L774.9,317.6 L775.2,308.6 L772.9,307.2 L764.1,301.6 Z" id="Path" fill="#EDC4AD"></path>
            <path d="M802.5,251.3 L802.5,251.3 C802.5,251.5 802.6,251.9 802.5,252.3 C802.4,253.2 802,254.5 800.7,255.3 C800.9,255.7 801,256.2 801,256.6 L801,257.5 C801,259.3 799.5,260.8 797.7,260.8 L795.3,260.8 C793.5,260.8 792,259.3 792,257.5 L792,256.6 C792,256.2 792.1,255.9 792.2,255.5 C791.4,255.2 790.6,254.7 790,253.8 C788.9,252.3 788.2,250.7 787.9,246.6 C787.9,246.5 787.9,246.7 787.9,246.6 L786.3,246.7 L786.1,252.2 L786.1,252.2 C786.1,252.3 786.2,252.7 786.3,253.3 C786.4,253.9 786.6,254.7 786.9,255.6 C788,258.8 790.6,263 796.3,263.1 L796.5,263.1 C796.9,263.1 797.3,263.1 797.6,263 C804.2,262.2 802.6,252.2 802.5,251.3 L802.5,251.3" id="Path" fill="#EDC4AD"></path>
            <path d="M797.5,257.9 L797.3,257.9 L797,257.9 C795.8,257.9 794.9,257.9 794.9,256.4 L799.6,256.4 C799.6,257.8 798.7,257.9 797.5,257.9 M797.7,253.4 L795.3,253.4 C794.6,253.4 793.9,253.6 793.4,254 C792.9,254.4 792.4,255 792.2,255.7 C792.1,256 792,256.4 792,256.8 L792,257.7 C792,259.5 793.4,261 795.3,261 L797.7,261 C799.5,261 801,259.5 801,257.7 L801,256.8 C801,256.3 800.9,255.9 800.7,255.5 C800.2,254.2 799.1,253.4 797.7,253.4" id="Shape" fill="#EDC4AD"></path>
            <path d="M797,257.9 L797.3,257.9 L797.5,257.9 C798.7,257.9 799.6,257.9 799.6,256.4 L794.9,256.4 C794.9,257.8 795.8,257.9 797,257.9" id="Path" fill="#F1C5AC"></path>
            <polygon id="Path" fill="#666665" points="808.8 299.8 808.7 299.8 808.5 299.8 787 299.8 783.8 314.2 782.3 321 781.8 323.4 781.8 323.4 787.9 323.4 787.9 325.8 796.4 325.8 807.4 325.8 817.7 325.8 820.5 325.8 821.3 322.3 822.3 317.7 823.1 313.8 825.8 301.6 826.2 299.8 818.3 299.8"></polygon>
            <polygon id="Path" fill="#666665" points="774.7 323.4 774.2 323.4 774.2 325.8 774.7 325.8 781.3 325.8 786.7 325.8 787.9 325.8 787.9 323.4 781.8 323.4"></polygon>
            <g id="Group" transform="translate(845.000000, 193.000000)">
                <polygon id="Path" fill="#C5C5C4" points="100.6 5.4 91.9 0 18.7 117 27.4 122.5"></polygon>
                <path d="M21.4,29 C18.4,27.8 15,29.3 13.8,32.4 C12.6,35.4 14.1,38.8 17.2,40 C20.2,41.2 23.6,39.7 24.8,36.6 C25.9,33.6 24.4,30.2 21.4,29" id="Path" fill="#147ABF"></path>
                <path d="M26.1,16.8 C19.9,14.4 13,15.3 7.5,19.2 C6.2,20.1 5.9,21.8 6.8,23.1 C7.7,24.4 9.5,24.7 10.7,23.8 C14.6,21 19.6,20.4 24,22.1 C28.1,23.7 31.2,27.1 32.5,31.4 C32.8,32.3 33.5,33 34.4,33.3 C34.9,33.5 35.4,33.5 36,33.3 C37.5,32.9 38.3,31.3 37.9,29.8 C36.3,23.8 31.9,19 26.1,16.8" id="Path" fill="#147ABF"></path>
                <path d="M30.5,5.5 C21.9,2.2 10.6,3.2 1.9,8.1 C0.6,8.9 0.1,10.6 0.8,11.9 C1.6,13.2 3.3,13.7 4.6,13 C11.9,8.9 21.3,8 28.4,10.8 C35.8,13.7 40.9,18.7 43.5,25.7 C43.8,26.6 44.5,27.2 45.3,27.4 C45.9,27.6 46.5,27.6 47.1,27.4 C48.6,26.9 49.3,25.3 48.8,23.8 C45.7,15.1 39.5,9 30.5,5.5" id="Path" fill="#147ABF"></path>
            </g>
            <polyline id="Path" fill="#0068B3" points="476.4 124.7 673.7 218.2 674.3 216.8 477 123.3"></polyline>
            <path d="M357.4,158 C353.4,156.6 349,158.8 347.6,162.8 C346.2,166.8 348.4,171.2 352.4,172.6 C356.4,174 360.8,171.8 362.2,167.8 C363.6,163.8 361.4,159.4 357.4,158 L357.4,158 Z" id="Path" fill="#0068B3"></path>
            <path d="M217.8,103.3 C216.3,102.8 214.7,103.6 214.2,105.1 C213.7,106.6 214.5,108.2 216,108.7 C217.5,109.2 219.1,108.4 219.6,106.9 C220.1,105.5 219.3,103.9 217.8,103.3 L217.8,103.3 Z" id="Path" fill="#0068B3"></path>
            <path d="M306.8,157.1 C303.3,155.9 299.5,157.8 298.3,161.3 C297.1,164.8 299,168.6 302.5,169.8 C306,171 309.8,169.1 311,165.6 C312.2,162.1 310.3,158.3 306.8,157.1 L306.8,157.1 Z" id="Path" fill="#0068B3"></path>
            <polygon id="Path" fill="#0068B3" points="356.6 165.2 304.8 162.8 61 0.5 60.2 1.7 304.4 164.1 356.5 166.6"></polygon>
            <polyline id="Path" fill="#0068B3" points="304.2 163.4 288.6 184.6 289.7 185.4 305.3 164.2"></polyline>
            <path d="M290.2,181.2 C287.8,180.4 285.1,181.7 284.2,184.1 C283.4,186.5 284.7,189.2 287.1,190.1 C289.5,190.9 292.2,189.6 293.1,187.2 C294,184.7 292.7,182 290.2,181.2 L290.2,181.2 Z" id="Path" fill="#0068B3"></path>
            <polyline id="Path" fill="#0068B3" points="217.2 105.5 47 171.6 47.5 173 217.7 106.9"></polyline>
            <polyline id="Path" fill="#0068B3" points="357.1 166.6 526.5 107.8 526 106.4 356.6 165.2"></polyline>
            <polyline id="Path" fill="#0068B3" points="84 158.1 70.9 135.2 69.7 135.9 82.8 158.7"></polyline>
            <path d="M73.3,138.1 C75.1,136.2 75,133.2 73.1,131.5 C71.2,129.7 68.2,129.8 66.5,131.7 C64.7,133.6 64.8,136.6 66.7,138.3 C68.6,140.1 71.6,140 73.3,138.1 L73.3,138.1 Z" id="Path" fill="#0068B3"></path>
            <path d="M49.7,165 C45.7,163.6 41.3,165.8 39.9,169.8 C38.5,173.8 40.7,178.2 44.7,179.6 C48.7,181 53.1,178.8 54.5,174.8 C55.8,170.8 53.7,166.4 49.7,165 L49.7,165 Z" id="Path" fill="#0068B3"></path>
            <path d="M528.1,102 C525.7,101.2 523,102.5 522.1,104.9 C521.3,107.3 522.6,110 525,110.9 C527.4,111.7 530.1,110.4 531,108 C531.8,105.5 530.5,102.8 528.1,102 L528.1,102 Z" id="Path" fill="#0068B3"></path>
            <path d="M676.8,211.3 C672.8,209.9 668.4,212.1 667,216.1 C665.6,220.1 667.8,224.5 671.8,225.9 C675.8,227.3 680.2,225.1 681.6,221.1 C683,217.1 680.9,212.7 676.8,211.3 L676.8,211.3 Z" id="Path" fill="#0068B3"></path>
            <path d="M1158.8,162.1 C1162.6,160.1 1167.2,161.5 1169.2,165.3 C1171.2,169.1 1169.8,173.7 1166,175.7 C1162.2,177.7 1157.6,176.3 1155.6,172.5 C1153.6,168.8 1155.1,164.1 1158.8,162.1 L1158.8,162.1 Z" id="Path" fill="#0068B3"></path>
            <polyline id="Path" fill="#0068B3" points="1021.2 201.1 1200.4 160.7 1200.7 162 1021.5 202.5"></polyline>
            <polyline id="Path" fill="#0068B3" points="1160.3 170.5 1079.5 134.4 1080.1 133.1 1160.9 169.1"></polyline>
            <path d="M1078,129.3 C1080.3,128.1 1083.1,129 1084.4,131.2 C1085.6,133.5 1084.7,136.3 1082.5,137.5 C1080.2,138.7 1077.4,137.8 1076.2,135.6 C1074.9,133.4 1075.7,130.5 1078,129.3 L1078,129.3 Z" id="Path" fill="#0068B3"></path>
            <path d="M1017.8,195.9 C1021.1,194.2 1025.1,195.4 1026.9,198.7 C1028.7,202 1027.4,206 1024.1,207.8 C1020.8,209.5 1016.8,208.3 1015,205 C1013.3,201.7 1014.6,197.6 1017.8,195.9 L1017.8,195.9 Z" id="Path" fill="#0068B3"></path>
            <path d="M435.6,226.2 L435.9,224.8 C434,225.5 431.8,225.4 430,224.6 L429.9,225.7 L429.9,225.7 L427,235.7 L428.1,242.1 L430.3,245.1 C430.3,245.1 431.9,245.5 432.1,243.9 C432.4,242.3 433.3,234.8 433.3,234.8 C433.3,234.8 434.4,234.4 434.6,235.8 C434.7,237.2 435.3,239.4 437,239.4 L436.8,232.6 L435.6,226.2 Z" id="Path" fill="#BE8C70"></path>
            <path d="M478.5,217.5 C478.4,217.5 441.2,217.7 441,217.6 L440.5,237.2 L442.1,270.3 L446.3,318 L454.4,318 L456,271.2 L458.5,236.4 L460.3,236.3 L464,270 L471.2,318 L479,318 L478.3,269.8 L479.1,235.4 L478.5,217.5" id="Path" fill="#3A8835"></path>
            <rect id="Rectangle" fill="#367D31" x="440.8" y="225.2" width="38.4" height="92.9"></rect>
            <path d="M454.5,318.1 L451,318.1 C451.2,312.8 451.2,307.5 451.2,302.2 C451.1,290.8 451.8,279.4 452.6,268 C453.2,259.3 458.6,236.5 458.6,236.5 L456.1,271.3 L454.5,318.1" id="Path" fill="#367D31"></path>
            <path d="M478.3,213.1 L478.3,213.1 L477.3,203.7 L477.3,203.7 L476.8,199.5 L478.3,213.1 M476.8,199.5 L476.8,198.7 L476.8,198.7 L476.8,199.5" id="Shape" fill="#C7D7DF"></path>
            <path d="M471.2,318.1 L466,321.7 C461.3,322.2 461,327.2 461,327.2 L480.6,327.2 C481,322.5 479.6,319.7 479.1,318.1 L471.2,318.1 Z" id="Path" fill="#E6EBEE"></path>
            <path d="M466.1,327.2 L470.4,327.2 C470.5,326.8 470.7,326.5 471.1,326.1 C473.5,323.5 476.6,321.8 480,320.6 C479.9,320.1 480,320.5 479.9,320.1 C474.5,321 469.5,322.2 466.1,327.2" id="Path" fill="#EE7552"></path>
            <path d="M446.4,318.1 L436.9,321.7 C432.2,322.2 431.9,327.2 431.9,327.2 L455.5,327.2 C456,322.5 455.1,319.6 454.6,318.1 L446.4,318.1 Z" id="Path" fill="#E6EBEE"></path>
            <path d="M439.8,327.2 L444.7,327.2 C444.9,326.9 445,326.6 445.3,326.4 C448,323.8 451.2,321.9 454.7,320.7 C449.1,321.7 443.3,323.3 439.8,327.2" id="Path" fill="#EE7552"></path>
            <path d="M461,327.2 L480.6,327.2 C480.7,326.5 480.7,325.8 480.7,325.2 L461.5,325.2 C461.1,326.3 461,327.2 461,327.2" id="Path" fill="#2E5A71"></path>
            <path d="M432.3,325.2 C431.9,326.3 431.8,327.2 431.8,327.2 L455.4,327.2 C455.5,326.5 455.5,325.8 455.5,325.2 L432.8,325.2 C432.6,325.2 432.5,325.2 432.3,325.2" id="Path" fill="#2E5A71"></path>
            <path d="M477.2,188.1 L477.5,177.5 L479.1,188.1 L477.2,188.1 M491.6,192.4 L486,160.8 L486,160.8 C485.5,159.6 483.8,156.2 479.1,155 L460.5,148.3 L460.5,148.2 L460.5,148.1 L460.4,148.1 L460.2,148.2 L460,148.1 L459.9,148.1 L459.9,148.2 L459.9,148.3 L441.3,155 C436.5,156.2 434.8,159.6 434.4,160.8 L432.4,194.7 L429.5,226.3 L436.2,227.6 L441.2,198.7 C441.2,198.7 442,183.9 441.9,181.3 L442.3,199.4 L441.3,213.1 L441.3,213.1 L441,225.3 C453.7,225.1 466.3,225.2 479,225.2 L478.5,213.1 L478.5,213.1 L477,199.5 L477,198.7 L487.3,200.1 C490.1,200.4 492.5,198.1 492.4,195.4 L491.6,192.4" id="Shape" fill="#182E38"></path>
            <path d="M487.6,200.1 C487.4,200.1 487.3,200.1 487.1,200.1 L476.8,198.7 L487.1,200.1 C487.3,200.1 487.4,200.1 487.6,200.1 L487.6,200.1 M442.1,199.1 C441.6,199.1 441.3,199 441.3,199 L441.9,188 L442.1,199.1" id="Shape" fill="#BECED5"></path>
            <path d="M477.2,203.7 L477.2,203.7 L476.7,199.5 L477.2,203.7 M476.8,199.5 L476.8,198.7 L476.8,198.7 L476.8,198.7 L476.8,199.5" id="Shape" fill="#ABB9C0"></path>
            <path d="M477.2,203.7 L473.5,201.7 C467.6,199 460.3,196.3 453.6,196.3 C453.2,196.3 452.9,196.3 452.5,196.3 C451.3,196.4 451.7,197.3 451.5,198.2 C451.3,199 450.6,199.6 449.7,199.6 L449.6,199.6 C446.7,199.5 443.6,199.2 442.1,199.1 L441.9,188 L441.9,187.9 C447.7,187.6 453.5,187 459.3,187 C460.4,187 461.6,187 462.7,187.1 C463.6,187.1 464.5,187.2 465.5,187.2 C468.2,187.2 470.9,186.9 473.2,185.4 C475.6,183.8 477.2,180.2 477.6,177.5 C477.5,178.9 477.3,188.1 477.3,188.1 L477.3,188.1 L477.3,188.1 L463.6,189.2 L459.2,189.3 C459.2,189.3 456.1,194.7 459,195 C462.6,195.5 472.1,196.4 479.3,196.4 C483.6,196.4 487.1,196 487.9,195 C489.9,192.5 488.9,188.5 488.4,185.8 C487.3,180 487,174.3 486,168.6 C485.9,167.9 485.1,160.7 482.7,156.5 C484.9,158 485.9,160 486.2,160.8 L486.2,160.8 L491.8,192.4 L492.4,195.4 L492.4,195.9 C492.3,198.2 490.3,200.1 487.8,200.1 C487.6,200.1 487.5,200.1 487.3,200.1 L477,198.7 L477,198.7 L477,199.5 L477.2,203.7" id="Path" fill="#152831"></path>
            <path d="M445.1,181.1 L421.8,181.1 C420.6,181.1 420.2,181.5 420.2,182.5 L423.1,197.6 C423.1,198.6 423.9,199 424.9,199 L448,199 C449,199 449.8,198.6 449.8,197.6 L446.9,182.8 C446.9,181.8 446.1,181.1 445.1,181.1" id="Path" fill="#9ABCCC"></path>
            <path d="M455.5,187.4 L449.2,185 L447.3,185 L448.9,193.8 L452.2,194.8 C453.6,195.1 455.1,195.1 456.3,194.4 L458.8,194.9 L458.3,189.4 L455.5,187.4 Z" id="Path" fill="#BE8C70"></path>
            <path d="M439.7,187.5 L440.9,191.4 C441.3,192.4 442.1,193.2 443.2,193.5 L449.8,195.3 L454.5,195 C454.5,195 455.2,194.8 455.9,194.6 L459,195 L459.8,189.2 L451.1,186.8 L439.7,187.5 Z" id="Path" fill="#BE8C70"></path>
            <path d="M446.1,127.3 L447.4,138.8 C448,144 452.7,147.7 458,147 C463.4,146.4 467.3,136.3 467.3,132.7 L466.5,124.9 L446.1,127.3" id="Path" fill="#BE8C70"></path>
            <path d="M453.6,139.9 L453.2,151.9 C453.7,153.9 456.5,158.4 457.6,160.7 C457.8,160.7 458.7,160.7 458.9,160.7 C460.7,158.1 465.3,152.5 465.4,151.1 L464.3,139.1 L453.6,139.9" id="Path" fill="#BE8C70"></path>
            <polyline id="Path" fill="#C7D7DF" points="453.3 149.8 453.3 149.8 453.4 147.8 453.4 147.8 453.3 149.8"></polyline>
            <polyline id="Path" fill="#AB7E65" points="464.4 140.8 464.4 139.8 464.4 139.8 464.4 140.8"></polyline>
            <path d="M455.8,150.5 C454.9,150.5 454,150.3 453.3,149.8 L453.4,147.8 C453.5,147.8 453.6,147.7 453.8,147.7 C454.2,147.8 454.9,148 455.8,148 C457.5,148 459.8,147.4 461.7,144.9 C461.7,144.9 459.4,147 456,147 C455.9,147 455.8,147 455.7,147 C459.2,145.5 463,143.2 464.4,139.9 L464.5,140.9 L464.8,144.8 C464.2,146.2 463.2,147.5 461.9,148.5 C460.5,149.4 458,150.5 455.8,150.5" id="Path" fill="#AB7E65"></path>
            <path d="M456,117.4 L443.5,119.7 C441.4,126.2 446.1,127.3 446.1,127.3 L458.4,125.8 C461.6,125.4 461.7,128.4 461.7,128.4 L462.3,131.6 L463.9,131.4 C463.9,131.4 464.3,130 465.1,129.9 C465.7,129.8 466.3,129.8 466.5,131.7 C467.1,136.9 464.5,136.7 464.5,136.7 L464.2,140.6 L464.7,142.2 C467.5,136.3 467.8,132 467.8,132 L466.9,124.7 C465.9,116.5 456,117.4 456,117.4" id="Path" fill="#312B2B"></path>
            <path d="M453.4,147.5 C453.3,147.5 453.3,147.5 453.4,147.5 L453.2,146.4 C453.3,146.4 453.3,146.4 453.4,146.5 L453.4,147.5" id="Path" fill="#C7D7DF"></path>
            <path d="M453.7,147.7 C453.5,147.7 453.4,147.6 453.3,147.6 L453.3,146.6 C454.1,146.8 454.9,146.9 455.6,147 C455,147.2 454.3,147.4 453.7,147.7" id="Path" fill="#AB7E65"></path>
            <path d="M455.7,147.9 C454.8,147.9 454.1,147.8 453.7,147.6 C454.3,147.4 455,147.1 455.6,146.8 C455.7,146.8 455.8,146.8 455.9,146.8 C459.4,146.8 461.6,144.7 461.6,144.7 C459.7,147.3 457.4,147.9 455.7,147.9" id="Path" fill="#9A715B"></path>
            <path d="M463.7,130 L462.2,130.2 C462.9,141.1 458.6,141.4 453.3,142 C447.4,142.7 447.4,137.7 447.4,137.7 C447.4,137.7 447.4,149.7 454.5,149.3 C465.4,148.7 464.6,137 464.6,137 L463.7,130 Z" id="Path" fill="#312B2B"></path>
            <path d="M457.8,142 C457.6,140.1 455.9,138.8 454,139 L451.5,139.3 C449.6,139.5 448.2,141.2 448.5,143.1 L448.6,144 C448.8,145.9 450.5,147.2 452.4,147 L454.9,146.7 C456.8,146.5 458.2,144.8 457.9,142.9 L457.8,142 Z" id="Path" fill="#312B2B"></path>
            <path d="M450.4,142.6 C450.6,144.2 451.7,144 453.1,143.8 C454.5,143.6 455.6,143.6 455.4,142 L450.4,142.6 Z" id="Path" fill="#BE8C70"></path>
            <path d="M437.9,187.4 C437.4,187.4 437,187.9 437,188.4 C437.1,188.8 437.4,189.2 437.9,189.2 L448.2,189.4 L448,186.6 L437.9,187.4 Z" id="Path" fill="#BE8C70"></path>
            <path d="M453.3,149.2 L452.7,149.1 L450.4,151.1 C450.4,153.9 452.2,158.4 452.2,158.4 L455.9,153.8 C452.7,152 453.3,149.2 453.3,149.2" id="Path" fill="#F8F9FA"></path>
            <path d="M453.6,156.6 C454,160.4 457.7,160.7 457.7,160.7 L455.9,153.8 L453.6,156.6 Z" id="Path" fill="#D5DDE2"></path>
            <path d="M461.6,153.5 L465,157.4 C465,157.4 466.6,154.7 467.7,151.3 L465.1,148.2 C465.1,148.3 464.2,152.2 461.6,153.5" id="Path" fill="#F8F9FA"></path>
            <path d="M458.9,160.7 C458.9,160.7 461.5,159.9 462.3,159.2 C464.3,157.3 464.2,156.5 464.2,156.5 L461.6,153.6 L458.9,160.7 Z" id="Path" fill="#D5DDE2"></path>
            <polygon id="Path" fill="#ADB4BB" points="177.8 314 166.8 271.1 168.5 270.4 179.5 313.7"></polygon>
            <polygon id="Path" fill="#ADB4BB" points="136.5 314 134.9 313.7 141.5 267.4 143.2 267.7"></polygon>
            <polygon id="Path" fill="#ADB4BB" points="186.8 314 175.5 271.1 177.1 270.4 188.5 313.7"></polygon>
            <polygon id="Path" fill="#ADB4BB" points="145.5 314 143.8 313.7 150.2 267.4 151.8 267.7"></polygon>
            <path d="M134.5,266.1 C134.5,266.4 140.5,271.1 150.8,273.1 C161.1,275.1 186.8,271.1 191.4,267.8 C196.1,264.5 191.4,247.2 187.7,244.2 C184,241.2 181,242.5 177,236.2 C173.3,229.9 149.4,225.2 142,229.2 C134.9,233.1 124.9,247.8 134.5,266.1" id="Path" fill="#147ABF"></path>
            <path d="M148.2,303.4 C148.2,303.4 148.5,299.4 148.5,296.4 C148.5,293.4 156.5,290.7 156.5,290.7 C156.5,290.7 157.2,302.7 157.8,305 L158.5,307.3 C158.5,307.4 150.2,311 148.2,303.4" id="Path" fill="#E8EAE9"></path>
            <path d="M148.2,302 C148.2,302 148.9,304.7 151.5,305.7 C154.2,306.4 157.2,303.4 157.5,302.7 C157.5,302.7 158.2,307.4 160.5,309 C162.8,310.7 166.2,314.7 166.2,314.7 C166.2,314.7 163.9,317.4 159.9,317 C155.9,316.7 150.2,313 149.2,311.3 C148.2,309.7 146.5,308 148.2,302" id="Path" fill="#364B5E"></path>
            <path d="M181.5,313.3 L180.8,314.3 L180.8,315.6 L184.8,316.6 L184.8,315.9 C184.8,315.9 186.8,315.6 188.5,316.9 C190.2,318.2 191.8,319.6 194.2,319.6 C196.2,319.6 198.9,319.3 199.2,317.9 C199.8,317 187.1,313.3 181.5,313.3" id="Path" fill="#425B6B"></path>
            <path d="M181.1,314.3 C181.1,314.3 180.1,309.3 182.1,307 C182.1,307 181.8,308 182.8,308.3 C183.5,308.6 185.1,307.6 187.8,306.3 C190.5,305 192.8,306.3 192.8,306.3 C192.8,306.3 195.5,311 196.5,312 C197.8,313 203.8,315.7 205.5,315.7 C207.2,315.7 205.8,320.4 201.8,320 C197.8,319.7 192.1,318.7 189.8,316.7 C187.1,314.7 181.1,314.3 181.1,314.3" id="Path" fill="#364B5E"></path>
            <path d="M205.8,273.1 L199.1,317.7 C199.1,318.7 199.1,320 200.1,320.7 C200.8,321.7 201.8,322 203.1,322 L258,322 C259.3,322 260.7,321.3 261.3,320 C262,318.7 262,317.3 261.3,316.3 L236.3,273.7 L205.8,273.1 Z M257.7,323.7 L202.8,323.7 C201.1,323.7 199.8,323 198.8,321.7 C197.8,320.7 197.5,319 197.5,317.4 L204.5,271.5 L236.7,272.1 L262,315.4 C263,317.1 263,319.1 262,320.7 C261.4,322.7 259.7,323.7 257.7,323.7 L257.7,323.7 Z" id="Shape" fill="#CFD6E0"></path>
            <path d="M137.2,222.5 C139.4,222.5 141.2,225.2 141.2,228.5 C141.2,231.8 139.4,234.5 137.2,234.5 C135,234.5 133.2,231.8 133.2,228.5 C133.2,225.1 135,222.5 137.2,222.5" id="Path" fill="#364B5E"></path>
            <path d="M135.9,263.1 C135.9,263.1 141.2,270.4 144.6,271.1 C144.6,271.1 142.6,276.4 144.6,283.8 C146.6,291.1 148.6,298.4 148.6,298.4 C148.6,298.4 151.3,298.1 153.3,297.7 C155.3,297.4 158.6,295.7 158.6,293.4 L158.6,281.1 C158.6,277.1 158.3,274.8 158.9,273.1 C159.6,271.8 158.6,270.4 161.6,269.8 C164.6,269.1 174.9,269.1 174.9,269.1 L189.5,271.1 C189.5,271.1 186.5,290.1 186.2,292.1 C186.2,292.1 187.5,291.8 189.9,293.1 C192.2,294.4 195.9,295.4 195.9,295.4 C195.9,295.4 201.2,284.4 202.2,281.1 C203.2,277.8 207.2,267.5 207.9,264.1 C208.9,260.8 208.9,255.1 202.9,252.8 C196.9,250.5 191.2,250.5 191.2,250.5 L143.3,247.8 L135.9,263.1 Z" id="Path" fill="#2B3F4F"></path>
            <path d="M151.2,202.5 C151.2,202.5 152.2,205.5 152.5,206.5 C152.8,207.5 154.2,214.5 154.2,214.5 L162.2,216.2 L164.5,210.9 C164.5,210.9 165.8,210.2 166.2,207.2 C166.5,204.2 166.5,201.5 166.5,199.2 C166.5,196.9 165.8,193.2 165.8,193.2 C165.8,193.2 165.1,189.9 164.1,188.5 C163.1,187.1 150.1,190.2 149.5,192.8 C148.8,195.5 150.8,201.5 151.2,202.5" id="Path" fill="#F9BF8E"></path>
            <path d="M153.5,211.5 C153.2,209.5 152.8,207.5 152.5,206.8 C152.2,206.1 151.8,204.5 151.5,203.5 C151.8,204.2 151.8,204.8 152.2,205.8 C152.5,207.5 153.2,209.5 153.5,211.5" id="Path" fill="#F9BF8E"></path>
            <path d="M162.2,216.1 L164.2,211.4 C164.2,211.4 161.9,213.1 158.9,212.1 C155.9,211.1 152.6,207.1 152.6,207.1 C152.6,207.1 156.2,213.8 162.2,216.1" id="Path" fill="#F8B74C"></path>
            <path d="M158.8,213.5 L159.8,213.5 L166.5,212.8 L176.8,248.8 C176.8,248.8 169.5,256.1 162.8,256.5 C156.1,256.8 145.2,252.8 143.2,251.8 C141.5,250.8 151.2,212.5 151.2,212.5 L158.8,213.5 Z" id="Path" fill="#8DD3F3"></path>
            <path d="M159.8,217.5 L160.8,218.5 C160.8,218.5 161.5,220.8 161.8,221.5 C161.8,222.2 167.5,260.8 167.5,260.8 L164.2,265.5 L159.9,261.8 C159.9,261.8 156.6,227.8 157.2,224.8 C157.5,221.8 158.5,218.8 158.5,218.8 L159.8,217.5 Z" id="Path" fill="#E8EAE9"></path>
            <path d="M157.5,214.1 L158.8,213.8 L159.8,213.8 L162.1,214.8 C162.1,214.8 160.8,217.5 161.1,218.8 C160.1,218.5 159.4,218.5 158.4,219.1 C158.4,219.1 157.7,216.1 156.7,215.4 C155.5,214.8 157.5,214.1 157.5,214.1" id="Path" fill="#E8EAE9"></path>
            <path d="M150.5,201.8 C150.5,201.8 148.5,202.1 145.5,202.8 C142.5,203.5 136.2,204.1 136.2,204.1 C136.2,204.1 137.9,206.8 137.5,210.8 C137.5,215.1 139.8,218.8 139.8,221.5 C139.8,224.2 135.5,248.5 132.8,253.8 C130.1,259.1 128.5,261.5 128.1,266.1 C127.4,270.8 126.1,277.8 128.1,279.1 C130.1,280.4 132.8,274.1 136.4,268.8 C140,263.5 150.4,243.5 151.4,237.8 C152.5,231.8 150.5,201.8 150.5,201.8" id="Path" fill="#364B5E"></path>
            <path d="M142.2,239.4 L144.2,240.4 C144.2,240.4 146.5,241.1 145.5,233.1 C145.5,233.1 143.5,233.8 142.8,234.4 C142.2,235.1 142.2,239.4 142.2,239.4" id="Path" fill="#ADB4BB"></path>
            <path d="M153.8,214.5 L153.8,219.8 C153.8,223.5 151.1,237.8 151.1,237.8 C151.1,237.8 151.4,230.1 150.4,227.8 C149.7,225.5 145.7,216.1 145.7,216.1 L148.4,214.4 L146.4,213.1 L150.1,202.1 C150.1,202.1 150.4,202.1 150.4,202.4 L150.4,202.7 C150.4,202.7 151.4,205.7 151.7,206.7 C152.5,207.5 153.8,213.1 153.8,214.5" id="Path" fill="#425B6B"></path>
            <path d="M153.8,219.5 L153.8,219.8 C153.8,223.5 151.1,237.8 151.1,237.8 C151.1,237.8 151.4,230.1 150.4,227.8 C149.7,225.5 145.7,216.1 145.7,216.1 L148.4,214.4 L146.4,213.1 L150.1,202.1 C150.4,202.4 150.8,202.8 150.8,203.4 C151.1,204.1 151.1,204.7 151.5,205.7 C152.2,207.7 152.5,209.4 152.8,211.4 C153.8,214.1 153.8,216.8 153.8,219.5" id="Path" fill="#425B6B"></path>
            <path d="M143.5,234.1 C143.5,234.1 146.2,234.4 146.2,234.1 C146.2,233.4 146.5,233.1 147.2,232.4 C147.9,232.1 148.5,232.1 149.2,232.1 C150.2,232.1 152.2,232.1 152.5,232.8 C153.2,233.5 152.5,234.5 151.5,234.1 C150.5,234.1 149.8,234.1 149.5,234.4 L149.2,234.7 C149.2,234.7 151.5,235.4 152.5,235 C153.5,234.7 155.5,234.7 156.5,234.7 C157.5,235 158.5,235.4 158.2,236 C158.2,236 158.9,236.3 158.5,237 C158.2,237.7 156.5,238.3 154.5,238.3 C152.2,238.3 148.8,239 146.8,238.6 C144.8,238.6 141.8,237.9 139.1,237.6 L136.4,237.6 L143.5,234.1 Z" id="Path" fill="#F9BF8E"></path>
            <path d="M152.5,200.8 C153.2,202.5 153.2,204.1 152.5,204.5 C151.5,204.8 150.5,203.8 149.5,202.2 C148.8,200.5 148.8,198.9 149.5,198.5 C150.5,198.1 151.5,199.1 152.5,200.8" id="Path" fill="#F9BF8E"></path>
            <path d="M190.8,231.8 C190.8,234.1 190.1,235.8 190.1,235.8 L185.1,236.5 C185.1,236.5 184.8,229.8 178.8,228.5 C178.5,226.2 178.1,224.2 178.1,222.8 C178.1,217.5 182.4,206.5 182.4,206.5 C182.4,206.5 184.4,207.8 184.1,210.2 C183.8,212.5 185.4,213.5 185.4,214.9 C185.4,216.2 185.1,216.6 185.4,217.9 C186.1,218.8 191.1,229.4 190.8,231.8" id="Path" fill="#425B6B"></path>
            <path d="M190.8,250.4 C190.8,250.4 184.8,251.1 182.5,251.4 C179.8,251.7 178.5,251.7 177.5,250.7 C176.2,249.7 170.5,238 170.5,238 C170.5,238 168.5,228.7 168.2,220 C168.2,214.3 166.9,208 166.2,204.4 L166.2,201.4 C167.5,201.7 171.2,202.7 173.9,203.4 C177.2,204.4 182.9,205.7 182.9,205.7 C182.9,205.7 178.6,216.7 178.6,222 C178.6,227.3 181.9,245.6 183.3,247 C184.8,249.1 190.8,250.4 190.8,250.4" id="Path" fill="#364B5E"></path>
            <path d="M178.5,235.8 C178.5,235.8 176.2,235.5 177.2,228.1 C177.2,228.1 178.5,227.4 180.2,228.4 C181.9,229.4 183.2,232.4 182.5,233.7 C181.8,235.1 179.1,235.8 178.5,235.8" id="Path" fill="#CFD6E0"></path>
            <path d="M174.5,246.8 C174.2,246.5 169.8,240.8 167.8,233.5 C166.5,228.5 165.5,217.9 164.8,210.9 C165.1,210.2 165.5,209.6 165.8,207.9 C165.8,206.6 166.1,205.6 166.1,204.2 L170.8,212.5 L169.8,214.5 L172.8,214.8 C172.8,214.8 171.1,228.1 171.5,231.8 C171.8,235.1 174.5,246.1 174.5,246.8" id="Path" fill="#425B6B"></path>
            <path d="M178.5,227.8 L177.2,228.1 C177.2,228.1 175.5,228.1 174.5,227.8 C173.5,227.5 171.5,226.5 170.5,227.1 C169.5,227.4 167.5,231.1 167.5,231.1 L175.5,235.4 C175.5,235.4 176.5,235.1 176.8,234.7 C177.1,234.4 178.8,235.4 181.1,234.7 L183.8,234.4 C183.8,234.4 182.5,231.1 181.8,229.7 C181.1,228.4 179.5,228.1 178.5,227.8" id="Path" fill="#F9BF8E"></path>
            <path d="M217.1,189.5 L219.8,191.5 L219.8,192.2 L214.1,206.8 C214.1,206.8 212.4,204.8 211.1,204.5 C209.8,204.2 207.4,206.5 205.8,206.2 C204.1,205.9 203.5,205.2 203.1,204.5 C202.8,203.5 200.1,203.5 201.4,202.2 C201.4,202.2 200.4,202.5 200.4,201.5 C200.4,200.5 199.4,200.2 199.4,200.2 C199.4,200.2 196.4,200.9 196.7,199.2 C197,197.5 197.7,195.5 197.7,195.5 C197.7,195.5 197.4,195.2 196.7,194.8 C196,194.5 193.4,191.1 193.7,188.1 C194,185.1 205.7,181.8 210.3,182.1 C214.8,182.8 217.1,189.5 217.1,189.5" id="Path" fill="#F9BF8E"></path>
            <path d="M204.4,290 C204.4,290 207.7,298 210.7,299.7 C213.7,301.4 214.7,303 214.7,303 L201.7,308.7 C201.7,308.7 201.7,304 200,300.7 C198.3,297 194.3,293.4 194.3,293.4 L204.4,290 Z" id="Path" fill="#E8EAE9"></path>
            <path d="M202.4,312 C202.4,312 198.4,314.3 195.7,315 C193,315.7 190,316.7 190,318.7 C190,320.7 193.3,321.7 196.7,321.7 C200,321.7 205.7,320.7 207.4,318.7 C209.1,316.7 211.7,314.7 211.7,314.7 L213,316 C213,316 219.7,312.7 220.3,310.7 C221.3,308.7 220.6,308.7 220.6,308.7 L218.9,306.4 L202.4,312 Z" id="Path" fill="#364B5E"></path>
            <path d="M201.1,306.4 C201.1,306.4 203.1,304.4 206.8,304.4 C210.5,304.4 213.8,301.7 213.8,301.7 C213.8,301.7 216.5,302.4 219.1,306 C219.1,306 214.8,308 212.1,310 C209.4,312.3 208.1,313.3 205.8,314 C203.1,315 191.8,315.3 190.2,318.7 C190.2,318.7 189.9,317.4 192.9,316 C195.9,314.3 199.2,313.3 199.9,311.7 C200.8,309.4 201.1,306.4 201.1,306.4" id="Path" fill="#425B6B"></path>
            <path d="M191.8,258.1 C191.8,258.1 178.5,259.8 175.8,261.8 C173.1,263.8 172.8,267.8 173.5,270.1 C174.2,272.1 195.8,297.4 197.8,298.4 C197.8,298.4 199.5,296.1 202.1,294.4 C204.8,292.7 205.4,290.4 205.4,290.4 C205.4,290.4 196.4,279.7 193.7,276.1 C191,272.4 190,272.1 190,272.1 L203.3,265.1 L191.8,258.1 Z" id="Path" fill="#364B5E"></path>
            <path d="M201.4,272.7 L195.1,314.3 C195.1,315.3 195.1,316.3 195.8,317 C196.5,317.7 197.5,318.3 198.5,318.3 L249.7,318.3 C251,318.3 252,317.6 252.7,316.6 C253.4,315.6 253.4,314.3 252.7,312.9 L229.4,273.3 L201.4,272.7 Z M249.7,319.7 L198.4,319.7 C197.1,319.7 195.7,319 194.7,318 C193.7,317 193.4,315.3 193.7,314 L200,271.1 L230.3,271.8 L253.9,312.1 C254.9,313.8 254.9,315.4 253.9,317.1 C253.1,318.7 251.4,319.7 249.7,319.7 L249.7,319.7 Z" id="Shape" fill="#ADB4BB"></path>
            <path d="M166.5,297 C166.5,297 167.2,299 171.2,299.7 C174.9,300.4 179.5,303 179.5,303 C179.5,303 189.2,284.7 190.2,281 C191.2,277.3 191.9,272 191.9,272 C191.9,272 202.9,270.7 213.9,271.3 C224.9,272 240.5,265.6 242.2,262 C243.9,258.3 244.9,250.3 244.9,250.3 L210.3,253 C210.3,253 209,255.3 206,255.7 C202.7,256 189.4,256.4 186.4,257.7 C183.4,258.7 180.4,259 179.1,264.7 C177.5,270.4 171.5,285.4 166.5,297" id="Path" fill="#425B6B"></path>
            <path d="M219.8,192.2 C219.8,192.2 213.8,197.9 212.5,206.8 L217.8,211.1 L224.1,196.8 L219.8,192.2 Z" id="Path" fill="#CFD6E0"></path>
            <path d="M244.4,242.8 L240.4,261.8 C240.4,261.8 209.8,259.8 207.8,256.1 C205.8,252.4 208.5,236.8 209.5,233.1 C210.5,229.8 213.8,221.4 215.8,212.5 C217.8,203.5 224.1,196.2 224.1,196.2 L226.1,196.5 C226.1,196.5 231.8,199.5 233.8,200.8 C235.8,202.1 240.5,207.8 241.5,210.5 C241.7,213.5 244.4,242.8 244.4,242.8" id="Path" fill="#364B5E"></path>
            <path d="M222.4,193.8 C222.4,193.8 220.1,195.1 218.1,202.1 C215.8,209.1 214.1,217.4 213.1,220.4 C212.1,223.4 209.4,233.1 209.4,233.1 C209.4,233.1 214.1,221.4 215.4,216.8 C216.4,212.1 218.7,201.2 226.1,196.5 L222.4,193.8 Z" id="Path" fill="#425B6B"></path>
            <path d="M196.1,272.7 C196.1,272.7 200.4,269 203.4,265 C206.4,261 215.4,249.4 223.7,246 C232,242.7 254.7,238 254.7,238 C254.7,238 251,252.7 250.4,258.6 C249.7,264.6 245.7,274.9 233.8,275.9 C221.8,276.7 196.1,272.7 196.1,272.7" id="Path" fill="#147ABF"></path>
            <path d="M219.8,191.5 C218.8,192.5 214.8,193.2 213.8,191.8 C212.8,190.1 209.5,189.1 208.1,190.5 C206.8,192.2 207.8,194.5 207.8,194.5 L206.1,195.2 C206.1,195.2 205.8,194.2 205.1,193.5 C204.4,192.5 202.1,192.2 202.1,190.8 C202.1,189.4 200.8,187.1 198.8,186.8 C196.8,186.5 194.1,187.8 194.1,187.8 C194.1,187.8 191.8,187.1 192.4,185.1 C193.1,183.1 197.7,175.4 203.7,173.4 C209.7,172.1 216.4,176.4 218,180.1 C219.4,183.8 219.8,191.5 219.8,191.5" id="Path" fill="#3C3C3B"></path>
            <path d="M208.8,205.1 L208.8,205.1 C209.8,204.8 210.5,204.1 211.1,204.4 C211.4,204.4 211.8,204.7 212.1,204.7 C213.1,200.4 212.4,195.4 212.4,195.4 C212.4,199.5 208.8,205.1 208.8,205.1" id="Path" fill="#F8B74C"></path>
            <path d="M177.1,228.1 C177.1,228.1 179.8,227.8 180.8,229.1 C181.8,230.4 181.8,234.8 178.5,235.8 L185.5,235.8 C185.5,235.8 186.2,231.8 184.2,229.8 C182.1,227.8 180.1,227.4 177.1,228.1" id="Path" fill="#F3F3F3"></path>
            <path d="M186.1,220.5 L186.1,231.5 C185.4,231.8 184.8,232.2 184.4,232.8 C183.4,231.1 182.1,228.8 179.1,228.1 C178.8,225.8 178.4,224.1 178.4,222.8 L178.4,220.8 L186.1,220.8 L186.1,220.5 Z" id="Path" fill="#425B6B"></path>
            <path d="M197.5,238.8 C197.5,238.8 196.2,238.5 194.5,238.5 C192.8,238.5 191.5,239.2 190.2,238.5 C189.2,237.8 188.9,237.5 187.9,237.8 C187.2,238.1 186.9,238.5 186.6,238.5 C186.3,238.5 185.9,238.8 185.9,238.5 C185.6,238.2 184.9,237.8 184.9,237.5 C184.9,237.5 184.2,236.8 184.6,236.5 C184.6,236.5 184.3,235.8 184.3,235.5 C184.3,235.5 183,235.2 183.6,233.8 C184.3,232.5 185.9,231.8 186.6,231.1 C187.6,230.4 188.3,230.1 188.9,230.4 C189.9,230.7 192.9,232.4 193.6,232.4 C194.3,232.7 203.3,232.7 203.3,232.7 L203,238.7 L197.5,238.8 L197.5,238.8 Z" id="Path" fill="#F9BF8E"></path>
            <path d="M201.4,231.8 L198.1,231.8 C198.1,231.8 196.8,237.1 197.4,240.5 L203.4,241.5 L201.4,231.8 Z" id="Path" fill="#F3F3F3"></path>
            <path d="M218.4,220.5 C218.4,220.5 216.7,210.8 219.1,206.2 C221.4,201.5 228.4,201.5 231.4,204.5 C234.4,207.5 236.7,214.5 236.4,218.8 C236.1,223.1 233.4,227.5 233.4,230.8 C233.4,234.1 232.4,235.5 231.1,236.8 C230.1,238.1 228.1,240.8 226.8,241.5 C225.5,241.8 200.5,243.5 200.8,243.2 C201.1,242.9 199.8,234.5 200.1,231.9 C200.1,231.9 208.4,231.6 209.8,231.6 C211.1,231.9 211.8,231.6 212.8,230.9 C213.8,230.6 213.8,230.2 214.5,230.6 C215.2,230.9 216.5,230.9 217.2,230.6 C217.9,230.3 218.5,229.3 218.5,229.3 C218.5,229.3 217.5,225 218.2,224 C218.9,223 218.4,220.5 218.4,220.5" id="Path" fill="#425B6B"></path>
            <path d="M165.2,213.8 L163.2,218.8 L159.9,213.5 C163.6,212.5 165.2,210.5 165.2,210.5 L165.2,213.8 Z" id="Path" fill="#FFFFFF"></path>
            <path d="M158.8,213.5 C158.8,213.5 157.5,214.5 156.8,215.8 C156.1,217.1 155.5,218.1 155.5,218.1 L153.8,214.8 C153.5,211.8 153.1,209.1 152.5,206.1 C152.5,206.8 155.8,212.5 158.8,213.5" id="Path" fill="#FFFFFF"></path>
            <path d="M150.8,201.8 L151.5,201.8 C151.5,201.8 150.2,199.8 150.8,198.5 C151.5,197.2 149.5,193.2 151.8,193.8 C154.1,194.5 159.8,192.5 161.5,190.8 C163.2,189.1 163.8,189.1 164.5,189.8 C165.2,190.5 165.8,193.1 165.8,193.1 C165.8,193.1 165.1,190.4 164.5,188.8 C163.8,187.1 165.2,185.5 159.5,183.8 C153.8,182.1 148.8,184.5 147.2,188.8 C145.5,193.1 147.5,197.5 148.9,198.8 C149.8,199.8 150.8,201.8 150.8,201.8" id="Path" fill="#683328"></path>
            <path d="M139.2,232.8 L145.2,233.1 C145.2,233.1 143.2,234.1 143.2,237.1 C143.2,240.1 143.9,240.1 143.9,240.1 L133.9,238.4 C134.2,238.8 138.5,232.8 139.2,232.8" id="Path" fill="#F3F3F3"></path>
            <path d="M143.5,232.8 C139.8,234.5 138.5,235.8 137.8,239.8 L120.8,238.8 C120.8,238.8 121.1,231.8 121.5,229.8 C121.9,227.8 123.2,224.5 125.2,222.5 C126.9,220.5 130.5,215.5 130.9,214.5 C131.2,213.5 132.2,212.5 132.6,211.8 C132.9,211.1 133.6,208.8 133.9,206.8 C134.2,204.5 136.2,204.1 136.2,204.1 C136.2,204.1 137.9,206.8 137.5,210.8 C137.5,215.1 139.8,218.8 139.8,221.5 C139.8,222.2 139.5,223.5 139.5,225.5 L136.8,231.5 L137.8,231.8 L143.5,232.8 Z" id="Path" fill="#425B6B"></path>
            <rect id="Rectangle" fill="#683328" x="150.2" y="244.1" width="5.3" height="67.9"></rect>
            <path d="M200.5,243.4 L105.6,243.4 C104.3,243.4 103.3,242.4 103.3,241.1 C103.3,239.8 104.3,238.8 105.6,238.8 L200.5,238.8 C201.8,238.8 202.8,239.8 202.8,241.1 C202.8,242.4 201.8,243.4 200.5,243.4" id="Path" fill="#683328"></path>
            <path d="M200.5,243.4 C169.5,245.7 137.9,245.4 105.6,243.4 L200.5,243.4 Z" id="Path" fill="#683328"></path>
            <path d="M180.8,316.3 L124.9,316.3 C124.9,314 126.9,312 129.2,312 L176.5,312 C178.8,312 180.8,314 180.8,316.3" id="Path" fill="#683328"></path>
            <path d="M175.5,313 L168.8,315.3 L164.1,309.3 C164.1,309.3 166.8,306.6 168.1,304 C168.8,302.7 169.8,301 170.4,299.7 L170.7,299.7 C173.7,300.4 177.4,302 178.4,303 C177.5,304.7 175.1,309.7 175.5,313" id="Path" fill="#E8EAE9"></path>
            <path d="M148.5,317.7 L146.2,317.7 C146.2,317.7 145.2,319 145.5,319.4 C145.8,319.7 152.8,322.4 157.5,323.4 C161.8,324.4 167.8,322.7 168.8,321.7 L168.8,323.4 L175.5,323.4 C176.5,323.4 177.2,322.7 177.2,321.7 L177.2,319.4 L174.9,317.7 L148.5,317.7 Z" id="Path" fill="#364B5E"></path>
            <path d="M164.5,308.7 C164.5,308.7 166.2,308.7 167.2,310.4 C168.2,312.1 169.9,313.1 171.2,313.4 C172.5,313.7 175.5,312.4 175.9,311.4 C175.9,311.4 177.2,317.1 176.9,319.4 C176.9,319.4 171.6,319.4 167.9,321.1 C163.9,322.4 162.6,323.4 158.2,322.4 C153.9,321.4 146.9,318.7 146.2,317.7 C146.2,317.7 149.2,317.4 152.2,317 C155.2,316.7 158.2,313.3 160.2,311.7 C162.2,309.7 164.5,308.7 164.5,308.7" id="Path" fill="#425B6B"></path>
            <path d="M176.8,220.5 L145.2,220.5 C144.2,220.5 143.5,221.2 143.5,222.2 L145.8,238.8 L175.8,238.8 L178.1,222.2 C178.5,221.5 177.5,220.5 176.8,220.5" id="Path" fill="#CFD6E0"></path>
            <path d="M161.2,228.8 C162.1,228.8 162.9,229.2 162.9,229.8 C162.9,230.4 162.2,230.8 161.2,230.8 C160.3,230.8 159.5,230.4 159.5,229.8 C159.5,229.2 160.2,228.8 161.2,228.8" id="Path" fill="#ADB4BB"></path>
        </g>
        <g id="achtergrond-header-images" fill-rule="nonzero">
            <path d="M667.789,151 L660.652,151 L662.563,125.416 L669.193,125.416 C672.599017,125.416 675.354989,126.41049 677.461,128.3995 C679.567011,130.38851 680.62,133.098983 680.62,136.531 C680.62,141.289024 679.443512,144.889988 677.0905,147.334 C674.737488,149.778012 671.637019,151 667.789,151 Z M668.764,127.912 L665.293,127.912 L663.772,148.504 L668.101,148.504 C670.831014,148.504 673.086491,147.561509 674.8675,145.6765 C676.648509,143.791491 677.539,140.89902 677.539,136.999 C677.539,134.164986 676.752508,131.942008 675.1795,130.33 C673.606492,128.717992 671.468014,127.912 668.764,127.912 Z M694.504,144.994 L695.479,134.152 C695.140998,134.074 694.751002,134.0155 694.309,133.9765 C693.866998,133.9375 693.438002,133.918 693.022,133.918 C691.565993,133.918 690.207506,134.814991 688.9465,136.609 C687.685494,138.403009 687.055,141.041983 687.055,144.526 C687.055,146.112008 687.282498,147.223497 687.7375,147.8605 C688.192502,148.497503 688.744997,148.816 689.395,148.816 C690.071003,148.816 690.857496,148.497503 691.7545,147.8605 C692.651504,147.223497 693.567995,146.268006 694.504,144.994 Z M696.142,131.89 L698.482,131.5 L696.727,151 L694.036,151 L694.348,147.88 L694.231,147.88 C693.372996,149.076006 692.463005,149.953497 691.501,150.5125 C690.538995,151.071503 689.525005,151.351 688.459,151.351 C687.184994,151.351 686.151504,150.850505 685.3585,149.8495 C684.565496,148.848495 684.169,147.139012 684.169,144.721 C684.169,140.482979 685.098491,137.233011 686.9575,134.971 C688.816509,132.708989 690.915988,131.578 693.256,131.578 C693.828003,131.578 694.347998,131.604 694.816,131.656 C695.284002,131.708 695.725998,131.785999 696.142,131.89 Z M702.226,134.152 L702.226,131.929 L704.449,131.929 L704.839,127.834 L707.608,127.405 L707.14,131.929 L711.079,131.929 L710.845,134.152 L706.906,134.152 L705.775,145.345 C705.644999,146.697007 705.729499,147.613498 706.0285,148.0945 C706.327501,148.575502 706.801997,148.816 707.452,148.816 C707.946002,148.816 708.381498,148.777 708.7585,148.699 C709.135502,148.621 709.609997,148.491001 710.182,148.309 L710.182,150.766 C709.531997,151.000001 708.966502,151.156 708.4855,151.234 C708.004498,151.312 707.374004,151.351 706.594,151.351 C705.267993,151.351 704.286503,150.909004 703.6495,150.025 C703.012497,149.140996 702.797999,147.646011 703.006,145.54 L704.176,134.152 L702.226,134.152 Z M723.52,144.994 L724.495,134.152 C724.156998,134.074 723.767002,134.0155 723.325,133.9765 C722.882998,133.9375 722.454002,133.918 722.038,133.918 C720.581993,133.918 719.223506,134.814991 717.9625,136.609 C716.701494,138.403009 716.071,141.041983 716.071,144.526 C716.071,146.112008 716.298498,147.223497 716.7535,147.8605 C717.208502,148.497503 717.760997,148.816 718.411,148.816 C719.087003,148.816 719.873496,148.497503 720.7705,147.8605 C721.667504,147.223497 722.583995,146.268006 723.52,144.994 Z M725.158,131.89 L727.498,131.5 L725.743,151 L723.052,151 L723.364,147.88 L723.247,147.88 C722.388996,149.076006 721.479005,149.953497 720.517,150.5125 C719.554995,151.071503 718.541005,151.351 717.475,151.351 C716.200994,151.351 715.167504,150.850505 714.3745,149.8495 C713.581496,148.848495 713.185,147.139012 713.185,144.721 C713.185,140.482979 714.114491,137.233011 715.9735,134.971 C717.832509,132.708989 719.931988,131.578 722.272,131.578 C722.844003,131.578 723.363998,131.604 723.832,131.656 C724.300002,131.708 724.741998,131.785999 725.158,131.89 Z M747.778,127.756 L747.505,127.756 L742.435,141.874 L750.391,141.874 L747.778,127.756 Z M750.157,125.416 L755.227,151 L751.99,151 L750.742,144.37 L741.421,144.37 L739.12,151 L736,151 L745.828,125.416 L750.157,125.416 Z M769.033,144.994 L770.008,134.152 C769.669998,134.074 769.280002,134.0155 768.838,133.9765 C768.395998,133.9375 767.967002,133.918 767.551,133.918 C766.094993,133.918 764.736506,134.814991 763.4755,136.609 C762.214494,138.403009 761.584,141.041983 761.584,144.526 C761.584,146.112008 761.811498,147.223497 762.2665,147.8605 C762.721502,148.497503 763.273997,148.816 763.924,148.816 C764.600003,148.816 765.386496,148.497503 766.2835,147.8605 C767.180504,147.223497 768.096995,146.268006 769.033,144.994 Z M770.671,131.89 L773.011,131.5 L771.256,151.195 C771.021999,153.821013 770.177007,155.705994 768.721,156.85 C767.264993,157.994006 765.56201,158.566 763.612,158.566 C762.623995,158.566 761.707504,158.527 760.8625,158.449 C760.017496,158.371 759.101005,158.241001 758.113,158.059 L758.113,155.368 C759.075005,155.628001 759.984996,155.822999 760.843,155.953 C761.701004,156.083001 762.558996,156.148 763.417,156.148 C764.899007,156.148 766.075496,155.764504 766.9465,154.9975 C767.817504,154.230496 768.343999,152.989009 768.526,151.273 L768.877,147.88 L768.76,147.88 C767.875996,149.076006 766.959505,149.953497 766.0105,150.5125 C765.061495,151.071503 764.054005,151.351 762.988,151.351 C761.713994,151.351 760.680504,150.850505 759.8875,149.8495 C759.094496,148.848495 758.698,147.139012 758.698,144.721 C758.698,140.482979 759.627491,137.233011 761.4865,134.971 C763.345509,132.708989 765.444988,131.578 767.785,131.578 C768.357003,131.578 768.876998,131.604 769.345,131.656 C769.813002,131.708 770.254998,131.785999 770.671,131.89 Z M776.482,144.292 C776.482,140.001979 777.339991,136.81051 779.056,134.7175 C780.772009,132.62449 782.61799,131.578 784.594,131.578 C786.180008,131.578 787.401996,131.967996 788.26,132.748 C789.118004,133.528004 789.547,134.606993 789.547,135.985 C789.547,138.169011 788.624009,139.949993 786.778,141.328 C784.931991,142.706007 782.436016,143.395 779.29,143.395 C779.29,145.527011 779.627997,146.963496 780.304,147.7045 C780.980003,148.445504 781.941994,148.816 783.19,148.816 C784.074004,148.816 784.925496,148.699001 785.7445,148.465 C786.563504,148.230999 787.388996,147.893002 788.221,147.451 L788.221,149.986 C787.310995,150.480002 786.414004,150.830999 785.53,151.039 C784.645996,151.247001 783.606006,151.351 782.41,151.351 C780.511991,151.351 779.049505,150.792006 778.0225,149.674 C776.995495,148.555994 776.482,146.762012 776.482,144.292 Z M786.661,136.336 C786.661,135.555996 786.453002,134.971002 786.037,134.581 C785.620998,134.190998 785.036004,133.996 784.282,133.996 C783.319995,133.996 782.345005,134.587494 781.357,135.7705 C780.368995,136.953506 779.745001,138.766988 779.485,141.211 C781.773011,141.211 783.540994,140.736505 784.789,139.7875 C786.037006,138.838495 786.661,137.688007 786.661,136.336 Z M802.261,151 L803.47,138.403 C803.626001,136.842992 803.515502,135.764003 803.1385,135.166 C802.761498,134.567997 802.248003,134.269 801.598,134.269 C801.025997,134.269 800.291504,134.515998 799.3945,135.01 C798.497496,135.504002 797.451006,136.270995 796.255,137.311 L795.007,151 L792.238,151 L793.954,132.085 L796.723,131.734 L796.45,134.659 L796.567,134.659 C797.685006,133.540994 798.711995,132.748002 799.648,132.28 C800.584005,131.811998 801.493996,131.578 802.378,131.578 C803.730007,131.578 804.769996,132.065495 805.498,133.0405 C806.226004,134.015505 806.486001,135.659988 806.278,137.974 L805.03,151 L802.261,151 Z M820.552,144.994 L821.566,134.152 C821.227998,134.074 820.831502,134.0155 820.3765,133.9765 C819.921498,133.9375 819.486002,133.918 819.07,133.918 C817.613993,133.918 816.255506,134.814991 814.9945,136.609 C813.733494,138.403009 813.103,141.041983 813.103,144.526 C813.103,146.112008 813.330498,147.223497 813.7855,147.8605 C814.240502,148.497503 814.792997,148.816 815.443,148.816 C816.119003,148.816 816.905496,148.497503 817.8025,147.8605 C818.699504,147.223497 819.615995,146.268006 820.552,144.994 Z M825.271,123.661 L822.775,151 L820.084,151 L820.396,147.88 L820.279,147.88 C819.394996,149.076006 818.478505,149.953497 817.5295,150.5125 C816.580495,151.071503 815.573005,151.351 814.507,151.351 C813.232994,151.351 812.199504,150.850505 811.4065,149.8495 C810.613496,148.848495 810.217,147.139012 810.217,144.721 C810.217,140.482979 811.146491,137.233011 813.0055,134.971 C814.864509,132.708989 816.963988,131.578 819.304,131.578 C819.798002,131.578 820.246498,131.5975 820.6495,131.6365 C821.052502,131.6755 821.422998,131.734 821.761,131.812 L822.463,124.012 L825.271,123.661 Z M838.492,144.994 L839.467,134.152 C839.128998,134.074 838.739002,134.0155 838.297,133.9765 C837.854998,133.9375 837.426002,133.918 837.01,133.918 C835.553993,133.918 834.195506,134.814991 832.9345,136.609 C831.673494,138.403009 831.043,141.041983 831.043,144.526 C831.043,146.112008 831.270498,147.223497 831.7255,147.8605 C832.180502,148.497503 832.732997,148.816 833.383,148.816 C834.059003,148.816 834.845496,148.497503 835.7425,147.8605 C836.639504,147.223497 837.555995,146.268006 838.492,144.994 Z M840.13,131.89 L842.47,131.5 L840.715,151 L838.024,151 L838.336,147.88 L838.219,147.88 C837.360996,149.076006 836.451005,149.953497 835.489,150.5125 C834.526995,151.071503 833.513005,151.351 832.447,151.351 C831.172994,151.351 830.139504,150.850505 829.3465,149.8495 C828.553496,148.848495 828.157,147.139012 828.157,144.721 C828.157,140.482979 829.086491,137.233011 830.9455,134.971 C832.804509,132.708989 834.903988,131.578 837.244,131.578 C837.816003,131.578 838.335998,131.604 838.804,131.656 C839.272002,131.708 839.713998,131.785999 840.13,131.89 Z M865.285,125.065 C867.911013,125.065 870.055992,126.05949 871.72,128.0485 C873.384008,130.03751 874.216,132.773983 874.216,136.258 C874.216,141.120024 873.026512,144.850987 870.6475,147.451 C868.268488,150.051013 865.532015,151.351 862.438,151.351 C859.785987,151.351 857.634508,150.480009 855.9835,148.738 C854.332492,146.995991 853.507,144.344018 853.507,140.782 C853.507,135.685975 854.637989,131.792513 856.9,129.1015 C859.162011,126.410487 861.956983,125.065 865.285,125.065 Z M864.778,127.756 C862.593989,127.756 860.689508,128.821989 859.0645,130.954 C857.439492,133.086011 856.627,136.16698 856.627,140.197 C856.627,143.317016 857.211994,145.513994 858.382,146.788 C859.552006,148.062006 861.072991,148.699 862.945,148.699 C864.97301,148.699 866.838491,147.71751 868.5415,145.7545 C870.244509,143.79149 871.096,140.84702 871.096,136.921 C871.096,133.670984 870.511006,131.331007 869.341,129.901 C868.170994,128.470993 866.650009,127.756 864.778,127.756 Z M880.69,151 L877.375,131.929 L880.339,131.929 L882.874,148.465 L883.03,148.465 L884.083,146.32 C885.045005,144.36999 885.863997,142.270511 886.54,140.0215 C887.216003,137.772489 887.800998,135.075016 888.295,131.929 L891.181,131.929 C890.686998,134.945015 890.024004,137.661988 889.192,140.08 C888.359996,142.498012 887.359006,144.811989 886.189,147.022 L884.083,151 L880.69,151 Z M892.663,144.292 C892.663,140.001979 893.520991,136.81051 895.237,134.7175 C896.953009,132.62449 898.79899,131.578 900.775,131.578 C902.361008,131.578 903.582996,131.967996 904.441,132.748 C905.299004,133.528004 905.728,134.606993 905.728,135.985 C905.728,138.169011 904.805009,139.949993 902.959,141.328 C901.112991,142.706007 898.617016,143.395 895.471,143.395 C895.471,145.527011 895.808997,146.963496 896.485,147.7045 C897.161003,148.445504 898.122994,148.816 899.371,148.816 C900.255004,148.816 901.106496,148.699001 901.9255,148.465 C902.744504,148.230999 903.569996,147.893002 904.402,147.451 L904.402,149.986 C903.491995,150.480002 902.595004,150.830999 901.711,151.039 C900.826996,151.247001 899.787006,151.351 898.591,151.351 C896.692991,151.351 895.230505,150.792006 894.2035,149.674 C893.176495,148.555994 892.663,146.762012 892.663,144.292 Z M902.842,136.336 C902.842,135.555996 902.634002,134.971002 902.218,134.581 C901.801998,134.190998 901.217004,133.996 900.463,133.996 C899.500995,133.996 898.526005,134.587494 897.538,135.7705 C896.549995,136.953506 895.926001,138.766988 895.666,141.211 C897.954011,141.211 899.721994,140.736505 900.97,139.7875 C902.218006,138.838495 902.842,137.688007 902.842,136.336 Z M918.442,131.851 L918.091,134.581 C917.882999,134.555 917.701001,134.5355 917.545,134.5225 C917.388999,134.5095 917.194001,134.503 916.96,134.503 C916.231996,134.503 915.465004,134.840997 914.659,135.517 C913.852996,136.193003 913.086004,137.128994 912.358,138.325 L911.266,151 L908.497,151 L910.096,132.085 L912.865,131.734 L912.514,135.322 L912.67,135.322 C913.554004,133.761992 914.327497,132.748002 914.9905,132.28 C915.653503,131.811998 916.374996,131.578 917.155,131.578 C917.389001,131.578 917.616499,131.5975 917.8375,131.6365 C918.058501,131.6755 918.259999,131.746999 918.442,131.851 Z M929.596,151 L930.805,138.403 C930.935001,136.842992 930.824502,135.764003 930.4735,135.166 C930.122498,134.567997 929.622003,134.269 928.972,134.269 C928.373997,134.269 927.620005,134.515998 926.71,135.01 C925.799995,135.504002 924.760006,136.270995 923.59,137.311 L922.342,151 L919.573,151 L922.03,124.012 L924.838,123.661 L923.785,134.659 L923.902,134.659 C925.020006,133.566995 926.046995,132.780502 926.983,132.2995 C927.919005,131.818498 928.828996,131.578 929.713,131.578 C931.065007,131.578 932.104996,132.065495 932.833,133.0405 C933.561004,134.015505 933.821001,135.659988 933.613,137.974 L932.365,151 L929.596,151 Z M937.435,144.292 C937.435,140.001979 938.292991,136.81051 940.009,134.7175 C941.725009,132.62449 943.57099,131.578 945.547,131.578 C947.133008,131.578 948.354996,131.967996 949.213,132.748 C950.071004,133.528004 950.5,134.606993 950.5,135.985 C950.5,138.169011 949.577009,139.949993 947.731,141.328 C945.884991,142.706007 943.389016,143.395 940.243,143.395 C940.243,145.527011 940.580997,146.963496 941.257,147.7045 C941.933003,148.445504 942.894994,148.816 944.143,148.816 C945.027004,148.816 945.878496,148.699001 946.6975,148.465 C947.516504,148.230999 948.341996,147.893002 949.174,147.451 L949.174,149.986 C948.263995,150.480002 947.367004,150.830999 946.483,151.039 C945.598996,151.247001 944.559006,151.351 943.363,151.351 C941.464991,151.351 940.002505,150.792006 938.9755,149.674 C937.948495,148.555994 937.435,146.762012 937.435,144.292 Z M947.614,136.336 C947.614,135.555996 947.406002,134.971002 946.99,134.581 C946.573998,134.190998 945.989004,133.996 945.235,133.996 C944.272995,133.996 943.298005,134.587494 942.31,135.7705 C941.321995,136.953506 940.698001,138.766988 940.438,141.211 C942.726011,141.211 944.493994,140.736505 945.742,139.7875 C946.990006,138.838495 947.614,137.688007 947.614,136.336 Z M955.18,125.923 C955.18,125.324997 955.355498,124.850502 955.7065,124.4995 C956.057502,124.148498 956.518997,123.973 957.091,123.973 C957.585002,123.973 957.961999,124.109499 958.222,124.3825 C958.482001,124.655501 958.612,125.038998 958.612,125.533 C958.612,126.053003 958.443002,126.501498 958.105,126.8785 C957.766998,127.255502 957.299003,127.444 956.701,127.444 C956.258998,127.444 955.895001,127.314001 955.609,127.054 C955.322999,126.793999 955.18,126.417002 955.18,125.923 Z M957.715,131.734 L955.96,151 L953.191,151 L954.907,132.085 L957.715,131.734 Z M971.716,144.994 L972.73,134.152 C972.391998,134.074 971.995502,134.0155 971.5405,133.9765 C971.085498,133.9375 970.650002,133.918 970.234,133.918 C968.777993,133.918 967.419506,134.814991 966.1585,136.609 C964.897494,138.403009 964.267,141.041983 964.267,144.526 C964.267,146.112008 964.494498,147.223497 964.9495,147.8605 C965.404502,148.497503 965.956997,148.816 966.607,148.816 C967.283003,148.816 968.069496,148.497503 968.9665,147.8605 C969.863504,147.223497 970.779995,146.268006 971.716,144.994 Z M976.435,123.661 L973.939,151 L971.248,151 L971.56,147.88 L971.443,147.88 C970.558996,149.076006 969.642505,149.953497 968.6935,150.5125 C967.744495,151.071503 966.737005,151.351 965.671,151.351 C964.396994,151.351 963.363504,150.850505 962.5705,149.8495 C961.777496,148.848495 961.381,147.139012 961.381,144.721 C961.381,140.482979 962.310491,137.233011 964.1695,134.971 C966.028509,132.708989 968.127988,131.578 970.468,131.578 C970.962002,131.578 971.410498,131.5975 971.8135,131.6365 C972.216502,131.6755 972.586998,131.734 972.925,131.812 L973.627,124.012 L976.435,123.661 Z" id="DataAgendaOverheid" fill="#000000"></path>
            <path d="M679.784,102 L669.424,72.32 L669.088,72.32 L669.088,102 L662.648,102 L662.648,65.264 L673.736,65.264 L684.152,94.944 L684.488,94.944 L684.488,65.264 L690.928,65.264 L690.928,102 L679.784,102 Z M700.168,102 L700.168,65.264 L707.448,65.264 L707.448,96.064 L719.88,96.064 L719.88,102 L700.168,102 Z M746.984,102 L736.624,102 L736.624,65.264 L747.32,65.264 C753.629365,65.264 758.463983,66.7853181 761.824,69.828 C765.184017,72.8706819 766.864,77.1173061 766.864,82.568 C766.864,89.2133666 765.081351,94.1133176 761.516,97.268 C757.950649,100.422682 753.106697,102 746.984,102 Z M743.904,71.2 L743.904,96.064 L747.32,96.064 C750.904018,96.064 753.778656,95.0373436 755.944,92.984 C758.109344,90.9306564 759.192,87.57069 759.192,82.904 C759.192,79.1333145 758.081344,76.2400101 755.86,74.224 C753.638656,72.2079899 750.642686,71.2 746.872,71.2 L743.904,71.2 Z M781.424,65.264 L781.424,102 L774.144,102 L774.144,65.264 L781.424,65.264 Z M805.896,89.288 L805.896,83.352 L818.272,83.352 L818.272,101.328 C816.442658,101.701335 814.622676,101.971999 812.812,102.14 C811.001324,102.308001 809.106677,102.392 807.128,102.392 C801.565306,102.392 797.094684,100.908015 793.716,97.94 C790.337316,94.9719852 788.648,90.5760291 788.648,84.752 C788.648,78.1066334 790.551981,73.1320165 794.36,69.828 C798.168019,66.5239835 802.965304,64.872 808.752,64.872 C810.432008,64.872 811.925327,64.9279994 813.232,65.04 C814.538673,65.1520006 815.845327,65.3386654 817.152,65.6 L816.648,71.76 C815.117326,71.5359989 813.736006,71.386667 812.504,71.312 C811.271994,71.237333 809.946674,71.2 808.528,71.2 C804.831982,71.2 801.873344,72.2919891 799.652,74.476 C797.430656,76.6600109 796.32,79.8613122 796.32,84.08 C796.32,88.1493537 797.393323,91.2293229 799.54,93.32 C801.686677,95.4106771 804.290651,96.456 807.352,96.456 C808.136004,96.456 808.798664,96.4373335 809.34,96.4 C809.881336,96.3626665 810.52533,96.306667 811.272,96.232 L811.272,89.288 L805.896,89.288 Z M833.504,65.264 L833.504,102 L826.224,102 L826.224,65.264 L833.504,65.264 Z M856.688,71.2 L856.688,102 L849.408,102 L849.408,71.2 L839.328,71.2 L839.328,65.264 L866.768,65.264 L866.768,71.2 L856.688,71.2 Z M885.08,88.28 L880.544,71.312 L880.152,71.312 L875.616,88.28 L885.08,88.28 Z M886.312,65.264 L897.008,102 L888.608,102 L886.592,94.104 L874.16,94.104 L872.144,102 L864.584,102 L875.336,65.264 L886.312,65.264 Z M918.792,88.28 L914.256,71.312 L913.864,71.312 L909.328,88.28 L918.792,88.28 Z M920.024,65.264 L930.72,102 L922.32,102 L920.304,94.104 L907.872,94.104 L905.856,102 L898.296,102 L909.048,65.264 L920.024,65.264 Z M936.04,102 L936.04,65.264 L943.32,65.264 L943.32,96.064 L955.752,96.064 L955.752,102 L936.04,102 Z" id="NLDIGITAAL" fill="#007BC7"></path>
        </g>
    </g>
</svg>