<?xml version="1.0" encoding="UTF-8"?>
<svg width="1200px" height="400px" viewBox="0 0 1200 400" version="1.1" xmlns="http://www.w3.org/2000/svg" xmlns:xlink="http://www.w3.org/1999/xlink">
    <!-- Generator: Sketch 53.2 (72643) - https://sketchapp.com -->
    <title>da-03-overheidsdata-verbeteren</title>
    <desc>Created with Sketch.</desc>
    <defs>
        <polyline id="path-1" points="0.664 241.679 0.664 425.679 1239.664 425.679 1239.664 241.679 0.664 241.679"></polyline>
        <filter x="-3.6%" y="-28.3%" width="108.7%" height="158.7%" filterUnits="objectBoundingBox" id="filter-2">
            <feMorphology radius="7" operator="dilate" in="SourceAlpha" result="shadowSpreadOuter1"></feMorphology>
            <feOffset dx="9" dy="2" in="shadowSpreadOuter1" result="shadowOffsetOuter1"></feOffset>
            <feGaussianBlur stdDeviation="9.5" in="shadowOffsetOuter1" result="shadowBlurOuter1"></feGaussianBlur>
            <feColorMatrix values="0 0 0 0 0.628368433   0 0 0 0 0.628368433   0 0 0 0 0.628368433  0 0 0 0.5 0" type="matrix" in="shadowBlurOuter1"></feColorMatrix>
        </filter>
    </defs>
    <g id="da-03-overheidsdata-verbeteren" stroke="none" stroke-width="1" fill="none" fill-rule="evenodd">
        <g id="achtergrond-header-images">
            <g id="Group" stroke-width="1" fill-rule="evenodd" transform="translate(-17.000000, 0.000000)">
                <polyline id="Path" fill="#DDEFF8" fill-rule="nonzero" points="17 0 17 400 1217 400 1217 0 17 0"></polyline>
                <g id="Path" fill-rule="nonzero">
                    <use fill="black" fill-opacity="1" filter="url(#filter-2)" xlink:href="#path-1"></use>
                    <use fill="#BCDFF1" xlink:href="#path-1"></use>
                </g>
            </g>
            <path d="M667.789,151 L660.652,151 L662.563,125.416 L669.193,125.416 C672.599017,125.416 675.354989,126.41049 677.461,128.3995 C679.567011,130.38851 680.62,133.098983 680.62,136.531 C680.62,141.289024 679.443512,144.889988 677.0905,147.334 C674.737488,149.778012 671.637019,151 667.789,151 Z M668.764,127.912 L665.293,127.912 L663.772,148.504 L668.101,148.504 C670.831014,148.504 673.086491,147.561509 674.8675,145.6765 C676.648509,143.791491 677.539,140.89902 677.539,136.999 C677.539,134.164986 676.752508,131.942008 675.1795,130.33 C673.606492,128.717992 671.468014,127.912 668.764,127.912 Z M694.504,144.994 L695.479,134.152 C695.140998,134.074 694.751002,134.0155 694.309,133.9765 C693.866998,133.9375 693.438002,133.918 693.022,133.918 C691.565993,133.918 690.207506,134.814991 688.9465,136.609 C687.685494,138.403009 687.055,141.041983 687.055,144.526 C687.055,146.112008 687.282498,147.223497 687.7375,147.8605 C688.192502,148.497503 688.744997,148.816 689.395,148.816 C690.071003,148.816 690.857496,148.497503 691.7545,147.8605 C692.651504,147.223497 693.567995,146.268006 694.504,144.994 Z M696.142,131.89 L698.482,131.5 L696.727,151 L694.036,151 L694.348,147.88 L694.231,147.88 C693.372996,149.076006 692.463005,149.953497 691.501,150.5125 C690.538995,151.071503 689.525005,151.351 688.459,151.351 C687.184994,151.351 686.151504,150.850505 685.3585,149.8495 C684.565496,148.848495 684.169,147.139012 684.169,144.721 C684.169,140.482979 685.098491,137.233011 686.9575,134.971 C688.816509,132.708989 690.915988,131.578 693.256,131.578 C693.828003,131.578 694.347998,131.604 694.816,131.656 C695.284002,131.708 695.725998,131.785999 696.142,131.89 Z M702.226,134.152 L702.226,131.929 L704.449,131.929 L704.839,127.834 L707.608,127.405 L707.14,131.929 L711.079,131.929 L710.845,134.152 L706.906,134.152 L705.775,145.345 C705.644999,146.697007 705.729499,147.613498 706.0285,148.0945 C706.327501,148.575502 706.801997,148.816 707.452,148.816 C707.946002,148.816 708.381498,148.777 708.7585,148.699 C709.135502,148.621 709.609997,148.491001 710.182,148.309 L710.182,150.766 C709.531997,151.000001 708.966502,151.156 708.4855,151.234 C708.004498,151.312 707.374004,151.351 706.594,151.351 C705.267993,151.351 704.286503,150.909004 703.6495,150.025 C703.012497,149.140996 702.797999,147.646011 703.006,145.54 L704.176,134.152 L702.226,134.152 Z M723.52,144.994 L724.495,134.152 C724.156998,134.074 723.767002,134.0155 723.325,133.9765 C722.882998,133.9375 722.454002,133.918 722.038,133.918 C720.581993,133.918 719.223506,134.814991 717.9625,136.609 C716.701494,138.403009 716.071,141.041983 716.071,144.526 C716.071,146.112008 716.298498,147.223497 716.7535,147.8605 C717.208502,148.497503 717.760997,148.816 718.411,148.816 C719.087003,148.816 719.873496,148.497503 720.7705,147.8605 C721.667504,147.223497 722.583995,146.268006 723.52,144.994 Z M725.158,131.89 L727.498,131.5 L725.743,151 L723.052,151 L723.364,147.88 L723.247,147.88 C722.388996,149.076006 721.479005,149.953497 720.517,150.5125 C719.554995,151.071503 718.541005,151.351 717.475,151.351 C716.200994,151.351 715.167504,150.850505 714.3745,149.8495 C713.581496,148.848495 713.185,147.139012 713.185,144.721 C713.185,140.482979 714.114491,137.233011 715.9735,134.971 C717.832509,132.708989 719.931988,131.578 722.272,131.578 C722.844003,131.578 723.363998,131.604 723.832,131.656 C724.300002,131.708 724.741998,131.785999 725.158,131.89 Z M747.778,127.756 L747.505,127.756 L742.435,141.874 L750.391,141.874 L747.778,127.756 Z M750.157,125.416 L755.227,151 L751.99,151 L750.742,144.37 L741.421,144.37 L739.12,151 L736,151 L745.828,125.416 L750.157,125.416 Z M769.033,144.994 L770.008,134.152 C769.669998,134.074 769.280002,134.0155 768.838,133.9765 C768.395998,133.9375 767.967002,133.918 767.551,133.918 C766.094993,133.918 764.736506,134.814991 763.4755,136.609 C762.214494,138.403009 761.584,141.041983 761.584,144.526 C761.584,146.112008 761.811498,147.223497 762.2665,147.8605 C762.721502,148.497503 763.273997,148.816 763.924,148.816 C764.600003,148.816 765.386496,148.497503 766.2835,147.8605 C767.180504,147.223497 768.096995,146.268006 769.033,144.994 Z M770.671,131.89 L773.011,131.5 L771.256,151.195 C771.021999,153.821013 770.177007,155.705994 768.721,156.85 C767.264993,157.994006 765.56201,158.566 763.612,158.566 C762.623995,158.566 761.707504,158.527 760.8625,158.449 C760.017496,158.371 759.101005,158.241001 758.113,158.059 L758.113,155.368 C759.075005,155.628001 759.984996,155.822999 760.843,155.953 C761.701004,156.083001 762.558996,156.148 763.417,156.148 C764.899007,156.148 766.075496,155.764504 766.9465,154.9975 C767.817504,154.230496 768.343999,152.989009 768.526,151.273 L768.877,147.88 L768.76,147.88 C767.875996,149.076006 766.959505,149.953497 766.0105,150.5125 C765.061495,151.071503 764.054005,151.351 762.988,151.351 C761.713994,151.351 760.680504,150.850505 759.8875,149.8495 C759.094496,148.848495 758.698,147.139012 758.698,144.721 C758.698,140.482979 759.627491,137.233011 761.4865,134.971 C763.345509,132.708989 765.444988,131.578 767.785,131.578 C768.357003,131.578 768.876998,131.604 769.345,131.656 C769.813002,131.708 770.254998,131.785999 770.671,131.89 Z M776.482,144.292 C776.482,140.001979 777.339991,136.81051 779.056,134.7175 C780.772009,132.62449 782.61799,131.578 784.594,131.578 C786.180008,131.578 787.401996,131.967996 788.26,132.748 C789.118004,133.528004 789.547,134.606993 789.547,135.985 C789.547,138.169011 788.624009,139.949993 786.778,141.328 C784.931991,142.706007 782.436016,143.395 779.29,143.395 C779.29,145.527011 779.627997,146.963496 780.304,147.7045 C780.980003,148.445504 781.941994,148.816 783.19,148.816 C784.074004,148.816 784.925496,148.699001 785.7445,148.465 C786.563504,148.230999 787.388996,147.893002 788.221,147.451 L788.221,149.986 C787.310995,150.480002 786.414004,150.830999 785.53,151.039 C784.645996,151.247001 783.606006,151.351 782.41,151.351 C780.511991,151.351 779.049505,150.792006 778.0225,149.674 C776.995495,148.555994 776.482,146.762012 776.482,144.292 Z M786.661,136.336 C786.661,135.555996 786.453002,134.971002 786.037,134.581 C785.620998,134.190998 785.036004,133.996 784.282,133.996 C783.319995,133.996 782.345005,134.587494 781.357,135.7705 C780.368995,136.953506 779.745001,138.766988 779.485,141.211 C781.773011,141.211 783.540994,140.736505 784.789,139.7875 C786.037006,138.838495 786.661,137.688007 786.661,136.336 Z M802.261,151 L803.47,138.403 C803.626001,136.842992 803.515502,135.764003 803.1385,135.166 C802.761498,134.567997 802.248003,134.269 801.598,134.269 C801.025997,134.269 800.291504,134.515998 799.3945,135.01 C798.497496,135.504002 797.451006,136.270995 796.255,137.311 L795.007,151 L792.238,151 L793.954,132.085 L796.723,131.734 L796.45,134.659 L796.567,134.659 C797.685006,133.540994 798.711995,132.748002 799.648,132.28 C800.584005,131.811998 801.493996,131.578 802.378,131.578 C803.730007,131.578 804.769996,132.065495 805.498,133.0405 C806.226004,134.015505 806.486001,135.659988 806.278,137.974 L805.03,151 L802.261,151 Z M820.552,144.994 L821.566,134.152 C821.227998,134.074 820.831502,134.0155 820.3765,133.9765 C819.921498,133.9375 819.486002,133.918 819.07,133.918 C817.613993,133.918 816.255506,134.814991 814.9945,136.609 C813.733494,138.403009 813.103,141.041983 813.103,144.526 C813.103,146.112008 813.330498,147.223497 813.7855,147.8605 C814.240502,148.497503 814.792997,148.816 815.443,148.816 C816.119003,148.816 816.905496,148.497503 817.8025,147.8605 C818.699504,147.223497 819.615995,146.268006 820.552,144.994 Z M825.271,123.661 L822.775,151 L820.084,151 L820.396,147.88 L820.279,147.88 C819.394996,149.076006 818.478505,149.953497 817.5295,150.5125 C816.580495,151.071503 815.573005,151.351 814.507,151.351 C813.232994,151.351 812.199504,150.850505 811.4065,149.8495 C810.613496,148.848495 810.217,147.139012 810.217,144.721 C810.217,140.482979 811.146491,137.233011 813.0055,134.971 C814.864509,132.708989 816.963988,131.578 819.304,131.578 C819.798002,131.578 820.246498,131.5975 820.6495,131.6365 C821.052502,131.6755 821.422998,131.734 821.761,131.812 L822.463,124.012 L825.271,123.661 Z M838.492,144.994 L839.467,134.152 C839.128998,134.074 838.739002,134.0155 838.297,133.9765 C837.854998,133.9375 837.426002,133.918 837.01,133.918 C835.553993,133.918 834.195506,134.814991 832.9345,136.609 C831.673494,138.403009 831.043,141.041983 831.043,144.526 C831.043,146.112008 831.270498,147.223497 831.7255,147.8605 C832.180502,148.497503 832.732997,148.816 833.383,148.816 C834.059003,148.816 834.845496,148.497503 835.7425,147.8605 C836.639504,147.223497 837.555995,146.268006 838.492,144.994 Z M840.13,131.89 L842.47,131.5 L840.715,151 L838.024,151 L838.336,147.88 L838.219,147.88 C837.360996,149.076006 836.451005,149.953497 835.489,150.5125 C834.526995,151.071503 833.513005,151.351 832.447,151.351 C831.172994,151.351 830.139504,150.850505 829.3465,149.8495 C828.553496,148.848495 828.157,147.139012 828.157,144.721 C828.157,140.482979 829.086491,137.233011 830.9455,134.971 C832.804509,132.708989 834.903988,131.578 837.244,131.578 C837.816003,131.578 838.335998,131.604 838.804,131.656 C839.272002,131.708 839.713998,131.785999 840.13,131.89 Z M865.285,125.065 C867.911013,125.065 870.055992,126.05949 871.72,128.0485 C873.384008,130.03751 874.216,132.773983 874.216,136.258 C874.216,141.120024 873.026512,144.850987 870.6475,147.451 C868.268488,150.051013 865.532015,151.351 862.438,151.351 C859.785987,151.351 857.634508,150.480009 855.9835,148.738 C854.332492,146.995991 853.507,144.344018 853.507,140.782 C853.507,135.685975 854.637989,131.792513 856.9,129.1015 C859.162011,126.410487 861.956983,125.065 865.285,125.065 Z M864.778,127.756 C862.593989,127.756 860.689508,128.821989 859.0645,130.954 C857.439492,133.086011 856.627,136.16698 856.627,140.197 C856.627,143.317016 857.211994,145.513994 858.382,146.788 C859.552006,148.062006 861.072991,148.699 862.945,148.699 C864.97301,148.699 866.838491,147.71751 868.5415,145.7545 C870.244509,143.79149 871.096,140.84702 871.096,136.921 C871.096,133.670984 870.511006,131.331007 869.341,129.901 C868.170994,128.470993 866.650009,127.756 864.778,127.756 Z M880.69,151 L877.375,131.929 L880.339,131.929 L882.874,148.465 L883.03,148.465 L884.083,146.32 C885.045005,144.36999 885.863997,142.270511 886.54,140.0215 C887.216003,137.772489 887.800998,135.075016 888.295,131.929 L891.181,131.929 C890.686998,134.945015 890.024004,137.661988 889.192,140.08 C888.359996,142.498012 887.359006,144.811989 886.189,147.022 L884.083,151 L880.69,151 Z M892.663,144.292 C892.663,140.001979 893.520991,136.81051 895.237,134.7175 C896.953009,132.62449 898.79899,131.578 900.775,131.578 C902.361008,131.578 903.582996,131.967996 904.441,132.748 C905.299004,133.528004 905.728,134.606993 905.728,135.985 C905.728,138.169011 904.805009,139.949993 902.959,141.328 C901.112991,142.706007 898.617016,143.395 895.471,143.395 C895.471,145.527011 895.808997,146.963496 896.485,147.7045 C897.161003,148.445504 898.122994,148.816 899.371,148.816 C900.255004,148.816 901.106496,148.699001 901.9255,148.465 C902.744504,148.230999 903.569996,147.893002 904.402,147.451 L904.402,149.986 C903.491995,150.480002 902.595004,150.830999 901.711,151.039 C900.826996,151.247001 899.787006,151.351 898.591,151.351 C896.692991,151.351 895.230505,150.792006 894.2035,149.674 C893.176495,148.555994 892.663,146.762012 892.663,144.292 Z M902.842,136.336 C902.842,135.555996 902.634002,134.971002 902.218,134.581 C901.801998,134.190998 901.217004,133.996 900.463,133.996 C899.500995,133.996 898.526005,134.587494 897.538,135.7705 C896.549995,136.953506 895.926001,138.766988 895.666,141.211 C897.954011,141.211 899.721994,140.736505 900.97,139.7875 C902.218006,138.838495 902.842,137.688007 902.842,136.336 Z M918.442,131.851 L918.091,134.581 C917.882999,134.555 917.701001,134.5355 917.545,134.5225 C917.388999,134.5095 917.194001,134.503 916.96,134.503 C916.231996,134.503 915.465004,134.840997 914.659,135.517 C913.852996,136.193003 913.086004,137.128994 912.358,138.325 L911.266,151 L908.497,151 L910.096,132.085 L912.865,131.734 L912.514,135.322 L912.67,135.322 C913.554004,133.761992 914.327497,132.748002 914.9905,132.28 C915.653503,131.811998 916.374996,131.578 917.155,131.578 C917.389001,131.578 917.616499,131.5975 917.8375,131.6365 C918.058501,131.6755 918.259999,131.746999 918.442,131.851 Z M929.596,151 L930.805,138.403 C930.935001,136.842992 930.824502,135.764003 930.4735,135.166 C930.122498,134.567997 929.622003,134.269 928.972,134.269 C928.373997,134.269 927.620005,134.515998 926.71,135.01 C925.799995,135.504002 924.760006,136.270995 923.59,137.311 L922.342,151 L919.573,151 L922.03,124.012 L924.838,123.661 L923.785,134.659 L923.902,134.659 C925.020006,133.566995 926.046995,132.780502 926.983,132.2995 C927.919005,131.818498 928.828996,131.578 929.713,131.578 C931.065007,131.578 932.104996,132.065495 932.833,133.0405 C933.561004,134.015505 933.821001,135.659988 933.613,137.974 L932.365,151 L929.596,151 Z M937.435,144.292 C937.435,140.001979 938.292991,136.81051 940.009,134.7175 C941.725009,132.62449 943.57099,131.578 945.547,131.578 C947.133008,131.578 948.354996,131.967996 949.213,132.748 C950.071004,133.528004 950.5,134.606993 950.5,135.985 C950.5,138.169011 949.577009,139.949993 947.731,141.328 C945.884991,142.706007 943.389016,143.395 940.243,143.395 C940.243,145.527011 940.580997,146.963496 941.257,147.7045 C941.933003,148.445504 942.894994,148.816 944.143,148.816 C945.027004,148.816 945.878496,148.699001 946.6975,148.465 C947.516504,148.230999 948.341996,147.893002 949.174,147.451 L949.174,149.986 C948.263995,150.480002 947.367004,150.830999 946.483,151.039 C945.598996,151.247001 944.559006,151.351 943.363,151.351 C941.464991,151.351 940.002505,150.792006 938.9755,149.674 C937.948495,148.555994 937.435,146.762012 937.435,144.292 Z M947.614,136.336 C947.614,135.555996 947.406002,134.971002 946.99,134.581 C946.573998,134.190998 945.989004,133.996 945.235,133.996 C944.272995,133.996 943.298005,134.587494 942.31,135.7705 C941.321995,136.953506 940.698001,138.766988 940.438,141.211 C942.726011,141.211 944.493994,140.736505 945.742,139.7875 C946.990006,138.838495 947.614,137.688007 947.614,136.336 Z M955.18,125.923 C955.18,125.324997 955.355498,124.850502 955.7065,124.4995 C956.057502,124.148498 956.518997,123.973 957.091,123.973 C957.585002,123.973 957.961999,124.109499 958.222,124.3825 C958.482001,124.655501 958.612,125.038998 958.612,125.533 C958.612,126.053003 958.443002,126.501498 958.105,126.8785 C957.766998,127.255502 957.299003,127.444 956.701,127.444 C956.258998,127.444 955.895001,127.314001 955.609,127.054 C955.322999,126.793999 955.18,126.417002 955.18,125.923 Z M957.715,131.734 L955.96,151 L953.191,151 L954.907,132.085 L957.715,131.734 Z M971.716,144.994 L972.73,134.152 C972.391998,134.074 971.995502,134.0155 971.5405,133.9765 C971.085498,133.9375 970.650002,133.918 970.234,133.918 C968.777993,133.918 967.419506,134.814991 966.1585,136.609 C964.897494,138.403009 964.267,141.041983 964.267,144.526 C964.267,146.112008 964.494498,147.223497 964.9495,147.8605 C965.404502,148.497503 965.956997,148.816 966.607,148.816 C967.283003,148.816 968.069496,148.497503 968.9665,147.8605 C969.863504,147.223497 970.779995,146.268006 971.716,144.994 Z M976.435,123.661 L973.939,151 L971.248,151 L971.56,147.88 L971.443,147.88 C970.558996,149.076006 969.642505,149.953497 968.6935,150.5125 C967.744495,151.071503 966.737005,151.351 965.671,151.351 C964.396994,151.351 963.363504,150.850505 962.5705,149.8495 C961.777496,148.848495 961.381,147.139012 961.381,144.721 C961.381,140.482979 962.310491,137.233011 964.1695,134.971 C966.028509,132.708989 968.127988,131.578 970.468,131.578 C970.962002,131.578 971.410498,131.5975 971.8135,131.6365 C972.216502,131.6755 972.586998,131.734 972.925,131.812 L973.627,124.012 L976.435,123.661 Z" id="DataAgendaOverheid" fill="#000000" fill-rule="nonzero"></path>
            <path d="M679.784,102 L669.424,72.32 L669.088,72.32 L669.088,102 L662.648,102 L662.648,65.264 L673.736,65.264 L684.152,94.944 L684.488,94.944 L684.488,65.264 L690.928,65.264 L690.928,102 L679.784,102 Z M700.168,102 L700.168,65.264 L707.448,65.264 L707.448,96.064 L719.88,96.064 L719.88,102 L700.168,102 Z M746.984,102 L736.624,102 L736.624,65.264 L747.32,65.264 C753.629365,65.264 758.463983,66.7853181 761.824,69.828 C765.184017,72.8706819 766.864,77.1173061 766.864,82.568 C766.864,89.2133666 765.081351,94.1133176 761.516,97.268 C757.950649,100.422682 753.106697,102 746.984,102 Z M743.904,71.2 L743.904,96.064 L747.32,96.064 C750.904018,96.064 753.778656,95.0373436 755.944,92.984 C758.109344,90.9306564 759.192,87.57069 759.192,82.904 C759.192,79.1333145 758.081344,76.2400101 755.86,74.224 C753.638656,72.2079899 750.642686,71.2 746.872,71.2 L743.904,71.2 Z M781.424,65.264 L781.424,102 L774.144,102 L774.144,65.264 L781.424,65.264 Z M805.896,89.288 L805.896,83.352 L818.272,83.352 L818.272,101.328 C816.442658,101.701335 814.622676,101.971999 812.812,102.14 C811.001324,102.308001 809.106677,102.392 807.128,102.392 C801.565306,102.392 797.094684,100.908015 793.716,97.94 C790.337316,94.9719852 788.648,90.5760291 788.648,84.752 C788.648,78.1066334 790.551981,73.1320165 794.36,69.828 C798.168019,66.5239835 802.965304,64.872 808.752,64.872 C810.432008,64.872 811.925327,64.9279994 813.232,65.04 C814.538673,65.1520006 815.845327,65.3386654 817.152,65.6 L816.648,71.76 C815.117326,71.5359989 813.736006,71.386667 812.504,71.312 C811.271994,71.237333 809.946674,71.2 808.528,71.2 C804.831982,71.2 801.873344,72.2919891 799.652,74.476 C797.430656,76.6600109 796.32,79.8613122 796.32,84.08 C796.32,88.1493537 797.393323,91.2293229 799.54,93.32 C801.686677,95.4106771 804.290651,96.456 807.352,96.456 C808.136004,96.456 808.798664,96.4373335 809.34,96.4 C809.881336,96.3626665 810.52533,96.306667 811.272,96.232 L811.272,89.288 L805.896,89.288 Z M833.504,65.264 L833.504,102 L826.224,102 L826.224,65.264 L833.504,65.264 Z M856.688,71.2 L856.688,102 L849.408,102 L849.408,71.2 L839.328,71.2 L839.328,65.264 L866.768,65.264 L866.768,71.2 L856.688,71.2 Z M885.08,88.28 L880.544,71.312 L880.152,71.312 L875.616,88.28 L885.08,88.28 Z M886.312,65.264 L897.008,102 L888.608,102 L886.592,94.104 L874.16,94.104 L872.144,102 L864.584,102 L875.336,65.264 L886.312,65.264 Z M918.792,88.28 L914.256,71.312 L913.864,71.312 L909.328,88.28 L918.792,88.28 Z M920.024,65.264 L930.72,102 L922.32,102 L920.304,94.104 L907.872,94.104 L905.856,102 L898.296,102 L909.048,65.264 L920.024,65.264 Z M936.04,102 L936.04,65.264 L943.32,65.264 L943.32,96.064 L955.752,96.064 L955.752,102 L936.04,102 Z" id="NLDIGITAAL" fill="#007BC7" fill-rule="nonzero"></path>
        </g>
        <g id="Hoofdstuk-3-site_NDA[v1]" transform="translate(1.000000, 76.000000)" fill-rule="nonzero">
            <g id="Group" transform="translate(334.000000, 171.000000)">
                <polygon id="Path" fill="#ADB4BB" points="40.6 64.2 32.2 56.2 25.4 42.1 33.4 41.7 33.8 42.1"></polygon>
                <path d="M31.5,37.1 C31.5,37.1 33,48.9 34.2,52 C35.3,55 39.5,61.1 40.7,64.6 C41.8,68 42.2,73 42.2,73 C42.2,73 42.6,62.7 41.1,57.4 C39.2,51.7 36.1,47.9 35.4,44.4 C34.1,40.9 33.8,37.5 31.5,37.1" id="Path" fill="#425B6B"></path>
                <path d="M149.6,10.4 C149.6,10.4 145,15.7 143.9,20.3 C143.9,20.3 143.5,21.4 143.9,22.2 C144.3,23 144.3,23.3 143.5,24.5 C142.7,25.6 141.2,27.2 142,28.3 C142.8,29.4 144.3,29.8 144.3,29.8 C144.3,29.8 142.8,32.5 144.3,33.2 C144.3,33.2 143.2,34 144.3,35.5 C145.4,36.6 143.2,39.7 147.7,41.2 C152.7,42.3 153.8,43.9 154.6,45 L155,46.1 L171.4,40.8 C171.4,40.8 170.3,38.5 170.3,35.1 L170.3,31.7 C170.2,31.8 161.8,11.6 149.6,10.4" id="Path" fill="#F9BF8E"></path>
                <path d="M147.3,61.5 C147.3,61.5 146.5,59.6 147.7,56.5 C148.8,53.5 149.6,54.6 150.4,50.8 C150.8,46.6 150.4,45.1 150.4,45.1 L159.2,42.1 L177.1,53.2 C177.1,53.2 177.9,68.8 176,76.1 C174.1,83 168.4,90.2 168.4,90.2 L147.3,61.5 Z" id="Path" fill="#CFD6E0"></path>
                <path d="M150.4,45.1 C150.4,45.1 151.2,44.7 151.2,46.2 C151.6,47.7 153.1,52.3 153.1,53.1 C153.1,53.9 152.7,53.9 152.7,53.9 C152.7,53.9 160.7,48.9 164.5,47.8 C168.3,46.3 173.3,42.8 173.3,42.8 C173.3,42.8 173.3,40.5 172.9,39.4 C172.9,39 172.1,38.6 171.8,38.6 C164.5,40.2 157.2,42.1 150.4,45.1" id="Path" fill="#F3F3F3"></path>
                <path d="M140.1,64.2 L142,105 C142,105 33.4,106.9 33.4,105 C33.4,103.1 54.4,58.9 54.4,58.9 L140.1,64.2 Z" id="Path" fill="#683328"></path>
                <path d="M89,63.8 L87.1,64.9 L85.6,68.7 C85.6,69.1 85.2,69.5 85.2,69.5 C85.2,69.9 85.2,70.3 85.6,70.3 L102.4,70.7 C103.2,70.7 103.5,70.3 103.5,69.6 L103.1,65.4 L89,63.8 Z" id="Path" fill="#CFD6E0"></path>
                <rect id="Rectangle" fill="#ADB4BB" x="87.1" y="60" width="16.4" height="5.3"></rect>
                <path d="M126.4,63.4 L60.1,62.3 C59,62.3 58.2,61.5 58.2,60.4 L58.2,14.7 C58.2,13.6 59,12.8 60.1,12.8 L128.3,13.9 C129.4,13.9 130.2,14.7 130.2,15.8 L128.7,61.2 C128.3,62.7 127.5,63.4 126.4,63.4" id="Path" fill="#ADB4BB"></path>
                <path d="M129.8,16.2 L128.3,57 L57.8,54.7 L57.8,14.7 C57.8,13.6 58.6,12.8 59.7,12.8 L127.9,13.9 C129,14.3 130.2,15 129.8,16.2" id="Path" fill="#ADB4BB"></path>
                <path d="M128.3,14.3 L60.1,13.2 C59,13.2 58.2,14 58.2,15.1 L58.2,55.1 L128.7,57.4 L129.8,16.2 C130.2,15 129,14.3 128.3,14.3" id="Path" fill="#425B6B"></path>
                <polygon id="Path" fill="#FFFFFF" points="61.2 16.2 61.6 51.6 125.6 53.9 126.7 17.3"></polygon>
                <path d="M128.7,56.9 L128.7,61.5 C128.7,62.6 127.9,63.4 126.8,63.4 L60.5,62.3 C59.4,62.3 58.6,61.5 58.6,60.4 L58.6,54.7 L128.7,56.9 Z" id="Path" fill="#CFD6E0"></path>
                <path d="M68.4,57.7 C68.4,57.7 71.1,56.9 72.2,55.8 C73.3,54.7 73,54.3 73.3,53.9 C73.7,53.5 75.2,53.1 75.2,53.1 C75.2,53.1 79,53.1 77.5,50.4 L76,50.8 L74.9,50.8 C74.1,50.8 73.4,50.8 71.9,50.4 C70.8,50.4 69.6,50 68.9,50.8 C68.1,51.2 67,52.7 66.6,53.1 C65.8,53.5 59.4,55.8 59.4,55.8 L62.4,61.5 C62.4,61.5 67,61.5 69.6,60.4 C72.3,59.6 74.6,57.7 75.3,56.2 C76.1,54.7 76.1,53.2 76.1,53.2 C76.1,53.2 73.1,57.4 71.1,58.2 C69.2,59.2 68.4,57.7 68.4,57.7" id="Path" fill="#F9BF8E"></path>
                <path d="M58.1,56.6 L61.1,55.5 C61.1,55.5 61.9,61.2 64.1,63.5 L56.1,66.9 L58.1,56.6 Z" id="Path" fill="#FFFFFF"></path>
                <path d="M66.9,60.4 L71.5,59.3 L76.1,55.9 L76.9,54.4 L76.9,52.5 L71.2,53.6 C71.5,53.1 64.6,58.5 66.9,60.4" id="Path" fill="#F9BF8E"></path>
                <path d="M70.7,58.8 L71.5,59.6 C71.9,59.6 73,58.5 75.3,55.8 L76.4,54.7 C77.5,53.2 78.7,51.7 80.2,50.1 L81,49.3 C81.8,48.2 82.5,47 83.3,45.5 C82.2,46.3 81,47 79.9,48.2 L79.1,49 C78,50.5 76.4,52 75.3,53.6 L74.2,54.7 C71.5,56.9 71.1,58.1 70.7,58.8" id="Path" fill="#425B6B"></path>
                <path d="M80.6,48.9 C81,48.5 81,48.1 81.4,48.1 L80.3,47 L79.5,47.8 L78.7,48.6 C78.7,49 78.3,49 78.3,49.4 L79.4,50.5 C79.4,50.1 79.8,50.1 79.8,49.7 L80.6,48.9 Z" id="Path" fill="#4DB8A4"></path>
                <path d="M70.7,59.2 L70.7,59.2 L71.5,59.6 L71.1,60 C71.1,60 70.7,60.4 70.3,60 C70.7,59.6 70.3,59.2 70.7,59.2" id="Path" fill="#EE715C"></path>
                <path d="M72.6,55.8 C72.6,56.2 72.6,56.6 73,56.9 C73.4,57.3 73.8,57.3 74.1,56.9 C73.7,57.3 73.3,57.7 73.3,58 C72.9,58 72.9,58 72.5,58.4 L71.7,58.4 L71.7,57.6 L71.7,56.8 C71.9,56.9 72.2,56.6 72.6,55.8" id="Path" fill="#4DB8A4"></path>
                <path d="M71.9,58.2 C71.7,58.1 72.6,56.8 73.8,55.3 C75,53.8 76.1,52.8 76.3,52.9 C76.5,53 75.6,54.3 74.4,55.8 C73.2,57.3 72,58.3 71.9,58.2" id="Path" fill="#4DB8A4"></path>
                <path d="M70.7,58.1 C70.7,58.1 69.6,58.9 70.3,60 C71.1,61.1 73.3,60.8 73.7,60.4 C74.1,60 74.5,59.3 74.5,59.3 C74.5,59.3 76,58.9 76,58.2 L76,57.4 C76,57.4 77.1,57 77.5,56.3 C77.9,55.5 77.1,54.8 77.1,54.8 L77.1,54.4 C77.1,54.4 79,54.4 79,53.3 C79,52.2 78.2,51.8 78.2,51.8 C78.2,51.8 75.2,53.7 76.3,54.8 L76.3,55.2 C76.3,55.2 75.5,55.6 74.4,55.6 L73,55.6 C72.6,55.6 71.5,56.4 72.6,57.1 C73.7,57.9 73.4,57.9 73.4,57.9 C73.4,57.9 72.6,58.3 72.3,57.9 C71.9,57.5 71.5,57.5 71.2,57.9 C70.7,57.3 70.7,58.1 70.7,58.1" id="Path" fill="#F9BF8E"></path>
                <path d="M77.6,50.8 L76.1,51.2 L75,51.2 L73.5,51.2 L73.5,54.2 C73.9,53.8 75.4,53.4 75.4,53.4 C75.4,53.4 78.7,53.5 77.6,50.8" id="Path" fill="#F9BF8E"></path>
                <path d="M150.8,55.4 C150.8,55.4 157.7,52.7 163,53.1 C168.3,53.5 174.8,59.6 175.6,67.6 C176.4,75.6 171.4,83.6 157.3,87.4 C143.6,91.2 142.1,94.3 142.1,94.3 L142.1,105 L182.8,105 C182.8,105 189,87.3 184.9,63.8 C182.3,48.7 173.7,42.5 173.7,42.5 C173.7,42.5 167.2,44.8 162.3,46.3 C157.2,47.8 151.9,53.5 150.8,55.4" id="Path" fill="#3A8835"></path>
                <path d="M102.4,71.4 L101.3,72.2 C101.3,72.2 100.2,75.6 100.2,76.4 C100.2,77.2 101.3,77.2 101.7,76.4 C102.1,75.6 102.8,73.4 102.8,73.4 L103.6,72.3 C103.6,72.3 102.8,74.2 102.8,75.3 C102.8,76.4 102.8,77.2 103.6,77.6 C104.4,77.6 104.7,77.2 104.7,76.8 C104.7,76.8 105.1,77.2 105.5,77.2 C106.3,77.2 106.3,76.8 106.3,76.4 C106.3,76.4 106.7,76.8 107.1,76.8 L107.9,76.8 L108.7,75.3 L108.7,72.3 L107.2,70.4 L102.4,71.4 Z" id="Path" fill="#F9BF8E"></path>
                <path d="M103.9,73.7 C103.9,73.7 102.4,74.1 101.6,75.2 C100.8,76 101.6,77.1 102.7,77.1 C103.8,77.1 105.4,76.7 106.1,76 C106.9,75.6 108,74.9 108.8,74.9 C109.6,74.9 110.3,75.7 113,75.7 C115.7,75.7 120.2,74.9 122.5,74.9 L124.8,75.3 L122.1,69.6 C122.1,69.6 117.5,70 116.4,69.6 C115.3,69.2 109.2,67.7 108.4,67.3 C107.3,66.9 106.9,67.3 106.5,67.7 C106.1,68.1 102.7,70 102.3,70.4 C101.9,70.8 101.5,72.3 101.5,72.3 L103,73.1 L103.8,72.3 C104.2,71.9 105.3,71.2 105.3,71.2 L107.6,71.2 L108,72.3 C107.7,71.8 105.8,73.3 103.9,73.7" id="Path" fill="#F9BF8E"></path>
                <path d="M120.3,76.4 C120.3,76.4 119.5,71.1 121.1,69.5 L129.5,69.9 C129.5,69.9 131.8,69.1 133.7,69.1 C135.6,69.1 136.7,68.7 137.9,68.7 C139,68.3 144,67.2 144,67.2 L149,75.6 C149,75.6 139.8,77.5 136,77.5 C132.2,77.5 129.1,77.1 129.1,77.1 L120.3,76.4 Z" id="Path" fill="#CFD6E0"></path>
                <path d="M132.8,78.7 C132.8,78.7 132.4,79.5 133.2,78.7 C134,77.9 136.6,77.2 137,76.4 C137.8,75.6 140,73.4 140.8,71.4 C141.6,69.5 141.6,67.2 143.1,65.7 C144.6,64.2 147.3,53.1 154.9,56.6 C162.1,60 166.3,68.4 166,74.1 C165.6,80.2 166.4,82.9 163.7,85.2 C161,87.5 151.5,92.8 145.8,94.3 C140.1,95.8 136.7,96.6 135.1,97.3 C133.6,97.7 129.4,98.1 127.5,96.9 C125.6,95.4 124.5,91.6 125.6,87.8 C126.7,84 126.7,82.1 126.7,82.1 C126.7,82.1 127.5,80.2 132.8,78.7" id="Path" fill="#F3F3F3"></path>
                <path d="M148.9,29.9 L151.6,30.7 C151.6,30.7 151.2,28 153.1,26.5 C155,25 158,28.4 160,32.2 C161.9,36 169.9,35.2 169.9,35.2 C169.9,35.2 169.9,32.5 171.8,29.5 C173.7,26.5 176.4,14.6 167.2,8.2 C158,1.7 148.1,7.4 148.1,7.4 C148.1,7.4 146.2,10.8 148.5,12 C150.8,13.1 151.2,12.4 150.8,14.3 C150.4,15.8 148.9,16.6 148.5,18.1 C148.5,18.5 148.5,19.2 148.9,19.6 C149.2,20.7 150,23 148.9,29.9" id="Path" fill="#683328"></path>
                <path d="M60.1,55.4 C60.1,55.4 55.1,56.9 53.6,57.7 C52.1,58.5 52.5,58.5 51.7,58.8 C50.9,58.8 50.2,58.8 49,59.2 C47.9,59.6 47.5,60 46.7,60 C45.9,60 45.2,60 44,60.4 C43.2,60.8 41,60.8 41,60.8 L35.7,61.2 L39.1,73.8 C39.1,73.8 48.6,71.1 51.3,70 C54.3,68.5 62.4,66.6 62.4,66.6 C62.4,66.6 58.5,58.5 60.1,55.4" id="Path" fill="#364B5E"></path>
                <path d="M44.8,15.4 C44.8,15.4 43.7,18.4 43.3,19.2 C42.5,20 42.9,20.7 43.3,21.5 C43.7,22.3 44.8,23.8 45.2,24.2 C45.6,24.6 45.2,25.7 44.4,25.7 L42.9,25.7 C42.9,25.7 43.7,28.7 42.1,28.7 C42.1,28.7 42.9,29.5 42.1,29.8 C41.3,30.6 42.9,33.2 38.7,34 C34.5,35.1 30.7,41.6 30.7,41.6 L17.4,31.7 L18.2,29 C18.2,29 21.6,14.9 27.3,12.2 C32.6,10.1 45.2,10.8 44.8,15.4" id="Path" fill="#F9BF8E"></path>
                <path d="M18.1,29.1 C18.1,29.1 26.1,28.3 26.5,22.6 C27.3,16.5 33.4,18 33.7,20.7 C34.1,23.4 34.5,23 34.5,23 L36.4,22.6 C36.4,22.6 34.5,20.3 36.8,18.4 C39.1,16.5 40.2,17.6 41,16.1 C41,16.1 40.2,18.4 39.1,19.1 C39.1,19.1 42.5,19.1 43.7,18 C44.8,16.9 46,14.6 46.4,12.3 C46.4,10 43.7,5.8 37.3,3.5 C30.8,1.2 28.9,-0.3 22.8,1.2 C16.7,2.7 15.6,11.5 15.6,14.2 C15.1,17.7 17,25.7 18.1,29.1" id="Path" fill="#425B6B"></path>
                <path d="M18.1,29.1 C18.1,29.1 20,32.1 23.4,34.8 C26.8,37.5 33.3,40.9 33.3,40.9 L29.5,51.6 L15.4,33.7 L18.1,29.1 Z" id="Path" fill="#FFFFFF"></path>
                <path d="M42.1,85.5 C37.5,95.4 33.3,104.6 33.3,105.3 L7.8,105.3 C7.8,105.3 4,85.9 2.1,79 C0.6,72.5 -0.2,59.9 0.2,57.3 C1,54.6 1.7,53.5 3.2,48.9 C4.7,43.9 5.1,45.9 8.5,40.9 C11.9,35.6 14.6,33.7 14.6,33.7 C14.6,33.7 34,55.8 37.5,61.1 C40.9,66.1 41.7,77.5 41.7,77.5 L41.7,85.5 L42.1,85.5 L42.1,85.5 Z" id="Path" fill="#364B5E"></path>
                <path d="M25.4,72.9 C25.8,66.4 23.5,59.6 20.4,56.1 C17.4,52.7 11.6,52.3 7.1,57.2 C2.5,62.2 4.4,70.2 4.4,70.2 C4.4,70.2 8.6,81.3 9.4,85.1 C9.8,88.9 14.7,96.5 20.5,100 C23.9,101.9 29.6,103.4 33.8,104.6 C34.6,102.7 36.5,98.1 39.1,92.8 C33,85.9 25,76.8 25.4,72.9" id="Path" fill="#425B6B"></path>
                <path d="M17.4,30.6 C17.4,30.6 18.9,35.2 23.1,39.4 C27.3,43.6 37.6,58.1 39.9,62.3 C42.2,66.5 42.2,77.2 42.2,77.2 C42.2,77.2 41.1,69.6 39.9,66.1 C38.8,62.7 31.1,53.5 27.7,50.5 C24.7,47.8 17.4,39.4 15.1,35.6 C14.7,34.5 15.1,33.7 15.5,32.9 L17.4,30.6 Z" id="Path" fill="#425B6B"></path>
                <rect id="Rectangle" fill="#6BC1B7" x="83.7" y="42.1" width="1.9" height="7.2"></rect>
                <rect id="Rectangle" fill="#F9BF8E" x="87.9" y="34.4" width="1.9" height="14.9"></rect>
                <rect id="Rectangle" fill="#56C1EC" x="91.7" y="45.1" width="1.9" height="4.2"></rect>
                <rect id="Rectangle" fill="#425B6B" x="95.9" y="40.9" width="1.9" height="8.8"></rect>
                <polygon id="Path" fill="#EE715C" points="101.6 39 101.6 49.7 99.7 49.7 99.7 38.6"></polygon>
                <rect id="Rectangle" fill="#F9BF8E" x="103.9" y="47" width="1.9" height="2.7"></rect>
                <polygon id="Path" fill="#56C1EC" points="109.6 36.4 109.6 50.1 107.7 49.7 107.7 36.4"></polygon>
                <rect id="Rectangle" fill="#425B6B" x="111.9" y="44.7" width="1.9" height="5.3"></rect>
                <polygon id="Path" fill="#6BC1B7" points="117.6 41.3 117.6 50.1 115.7 50.1 115.7 40.9"></polygon>
                <polygon id="Path" fill="#EE715C" points="121.8 43.6 121.8 50.5 119.9 50.1 119.9 43.6"></polygon>
                <path d="M73.4,22.3 C71.1,22.3 68.8,23.1 67.3,24.6 L73.4,31.1 L73.4,22.3 Z" id="Path" fill="#425B6B"></path>
                <path d="M79.5,24.9 C78,23.4 75.7,22.2 73.4,22.2 L73.4,31 L79.5,24.9 Z" id="Path" fill="#6BC1B7"></path>
                <path d="M73.4,31 L75.7,39.4 C79.5,38.3 82.2,34.8 82.2,31 C82.2,28.7 81.4,26.4 79.5,24.9 L73.4,31 Z" id="Path" fill="#EE715C"></path>
                <path d="M67.3,24.9 C65.8,26.4 64.6,28.7 64.6,31.4 C64.6,35.6 67.6,39 71.5,40.2 L73.4,31.4 L67.3,24.9 Z" id="Path" fill="#56C1EC"></path>
                <path d="M71.5,39.8 L73.4,39.8 C74.2,39.8 74.9,39.8 75.7,39.4 L73.4,31 L71.5,39.8 Z" id="Path" fill="#F9BF8E"></path>
            </g>
            <rect id="Rectangle" fill="#1E1E1C" transform="translate(37.274330, 26.234045) rotate(-74.924277) translate(-37.274330, -26.234045) " x="33.2742593" y="2.08361791" width="8.00014148" height="48.3008542"></rect>
            <polygon id="Path" fill="#1E1E1C" points="40.7 26 69.6 34.9 73.1 22 47.7 14.1"></polygon>
            <polygon id="Path" fill="#3D3D3D" points="19.2 0.2 14.8 16.6 61.4 29.2 73.1 14.8"></polygon>
            <path d="M5.5,49.9 L4.4,46.5 L29.8,41.6 L33.8,29.1 L37.2,30.2 L32.9,43.6 C32.7,44.1 32.3,44.6 31.8,44.8 L5.5,49.9 Z" id="Path" fill="#1E1E1C"></path>
            <path d="M34.4,43.1 C34.4,45.5 32.5,47.4 30.1,47.4 C27.7,47.4 25.8,45.5 25.8,43.1 C25.8,40.7 27.7,38.8 30.1,38.8 C32.5,38.8 34.4,40.7 34.4,43.1" id="Path" fill="#1E1E1C"></path>
            <path d="M0.8,57.4 L0.8,57.4 L0.8,39.1 C3.9,39.1 6.5,41.7 6.5,44.8 L6.5,51.7 C6.5,54.8 3.9,57.4 0.8,57.4" id="Path" fill="#3D3D3D"></path>
            <path d="M190.8,175 L199.7,220.4 L192.9,222.7 L181.3,189.5 L178.7,177.7 L163.7,155.4 C163.7,155.4 159.1,151.5 158,149.8 C156.8,148 154.9,141.7 154.9,141.7 L182.4,136.8 L190.8,175" id="Path" fill="#F6B075"></path>
            <path d="M192.8,222.2 L181.4,189.5 L178.8,177.7 L175.9,173.4 C180.4,172.1 185.2,170.7 189.7,169.8 L189.9,170.9 L189.8,171 C182,177.8 184.3,187 186.3,196.1 C186.9,198.8 187.6,201.4 188.5,204 C190.2,210 192.5,215.9 195.4,221.4 L192.8,222 C192.8,222 192.8,222.1 192.8,222.2" id="Path" fill="#E3A26C"></path>
            <path d="M191.3,169.4 C185.6,170.4 179.3,172.3 173.7,173.9 L163.7,155.3 C163.7,155.3 159.1,151.4 158,149.7 C156.8,147.9 154.9,141.6 154.9,141.6 L182.6,136.6 L191.3,169.4" id="Path" fill="#66727A"></path>
            <path d="M173.7,173.9 L173.7,173.9 L171.3,169.4 L173.7,173.9 C174.3,173.7 175,173.5 175.6,173.4 C175,173.6 174.3,173.7 173.7,173.9" id="Path" fill="#ADCEDE"></path>
            <path d="M173.7,173.9 L171.3,169.4 L174.8,161 L179.9,157.3 L179.9,157.3 L180.8,156.7 C178.2,161.7 176.4,167.6 175.7,173.4 C175.7,173.4 175.7,173.4 175.6,173.4 C175,173.6 174.4,173.7 173.7,173.9 M183.1,152.9 L184.4,145.2 L182.6,137.6 C182.7,137.6 182.8,137.6 182.9,137.6 L186.5,151.1 C186.1,151.4 185.7,151.6 185.2,151.8 C185.1,151.8 184.9,151.8 184.8,151.8 C184.3,151.8 183.8,152 183.4,152.5 C183.3,152.7 183.2,152.8 183.1,152.9" id="Shape" fill="#5E6971"></path>
            <path d="M170.8,39.1 C173.8,39.2 178.4,39.4 182.1,39.6 C184.6,39.7 185.8,42.8 184,44.6 L172.4,62.5 L166.4,59.7 C166.4,59.7 162.4,54.7 162.5,50.4 C162.8,45.9 164.9,39 170.8,39.1" id="Path" fill="#633F3C"></path>
            <path d="M169.9,59.9 C172.3,59.9 172.4,56.7 172.4,56.7 C171.7,56.2 171.6,55.2 171.9,53.5 C172.3,50.9 175.2,53.2 175.2,53.2 C176.2,47.8 177.6,47.4 179.1,46.6 C180.9,45.7 184.1,44.6 184.1,44.6 L185.6,49.8 L185.2,51.9 L188.5,56.1 C188.8,56.5 188.7,57 188.3,57.2 L186.3,58.2 L186.6,60.2 L185.8,61.5 L186.4,62.2 L185.8,63.5 L185.5,66.1 C185.4,67.4 184.2,68.3 182.9,68.1 L179.2,67.7 L176.5,75.3 L166.3,68.1 L166.5,59.8 C166.5,59.6 167.5,59.9 169.9,59.9" id="Path" fill="#F6B075"></path>
            <polyline id="Path" fill="#F6B075" points="152.2 179.5 155.1 141 163.6 142.4 184.4 145.3 176.9 156.4 173.4 160.5 162.3 189.8 144.8 220.5 138.5 218.9 147.5 189.8 152.2 179.5"></polyline>
            <polyline id="Path" fill="#ADCEDE" points="138.7 218.2 138.7 218.2 147.5 189.8 138.7 218.2"></polyline>
            <path d="M142.1,218.9 L138.7,218.2 L147.4,189.8 L152.1,179.4 L152.7,171 C157.8,171.9 163.2,172.8 168.3,173.6 L167.6,175.4 C166.9,175.3 166.3,175.2 165.7,175.2 C154.8,175.2 149,190.7 147.3,196.3 C146.1,200.4 143.5,211.8 142.1,218.9" id="Path" fill="#E3A26C"></path>
            <path d="M153.2,152.2 C153,150.1 153.1,148 153.3,145.9 L155,135 L181.5,133.2 L184.4,145.3 L182.7,155.3 L174.8,161 L169.5,173.8 C163.7,173 157.5,171.9 151.8,170.8 L153.4,154.2 L153.2,152.2" id="Path" fill="#66727A"></path>
            <polyline id="Path" fill="#5E6971" points="180.8 156.7 180.8 156.7 182.7 155.3 183.1 152.9 183.1 152.9 182.7 155.3 180.8 156.7"></polyline>
            <polyline id="Path" fill="#576168" points="180 157.3 180.8 156.7 180.8 156.7 180 157.3 180 157.3"></polyline>
            <path d="M157.1,171.9 L157.1,171.9 C155.3,171.6 153.5,171.3 151.7,170.9 L151.7,170.9 L153.3,154.3 L153.1,152.1 C153,151.2 153,150.2 153,149.3 C153,148.1 153.1,146.9 153.2,145.7 L154.4,138 C155.5,138.1 160.2,138.5 166.5,138.5 C168,138.5 169.7,138.5 171.4,138.4 C171.5,138.4 171.5,138.4 171.6,138.4 C171.8,138.4 171.9,138.4 172.1,138.4 C174.8,138.3 177.6,138.1 180.5,137.8 L180.5,137.8 L180.5,137.8 C181.2,137.7 181.9,137.6 182.5,137.6 L184.3,145.2 L183,152.9 L182.6,155.3 L180.7,156.7 L179.8,157.3 C171.3,160.7 162.5,164.6 157.1,171.9" id="Path" fill="#5E6971"></path>
            <path d="M145.7,219.7 L152.4,225.2 C152.7,225.5 157.9,227 157.9,227 C161.3,227.5 160.6,230.7 160.6,230.7 L147.9,230.6 L134.4,227.7 C134,222.9 137.9,218 137.9,218 L145.7,219.7" id="Path" fill="#D9D9D9"></path>
            <path d="M141.4,229.3 L134.4,227.8 C134.4,227.6 134.4,227.3 134.4,227.1 C134.4,227.3 134.4,227.5 134.4,227.8 L141.4,229.3 C141.4,229.2 141.4,229.3 141.4,229.3 M138.7,218.2 L137.9,218 L138.7,218.2 L138.7,218.2" id="Shape" fill="#ADCEDE"></path>
            <polyline id="Path" fill="#D19564" points="142.1 218.9 138.7 218.2 138.7 218.2 142.1 218.9 142.1 218.9"></polyline>
            <path d="M141.4,229.2 L134.4,227.7 C134.4,227.5 134.4,227.3 134.4,227 C134.4,222.4 138,218 138,218 L138,218 L138.8,218.2 L138.8,218.2 L142.2,218.9 L142.2,218.9 L142.1,219 C140.9,222.4 140.8,225.8 141.4,229.2" id="Path" fill="#C8C8C8"></path>
            <path d="M154.4,96.5 C154.4,96.5 154.5,86.3 156.8,79.8 C159,73.4 166.4,67.2 166.4,67.2 C166.4,67.2 175.7,72.4 178.1,75.6 C183.4,82.9 181.7,91.6 182.9,96.5 C183.3,98.3 182.7,123.2 182.7,123.2 L183.5,137.4 C168.3,139.5 154.3,137.9 154.3,137.9 L155.9,120.3 L154.4,96.5" id="Path" fill="#026A9D"></path>
            <path d="M171.5,138.6 C171.6,138.6 171.6,138.6 171.7,138.6 C171.6,138.6 171.5,138.6 171.5,138.6 M172.2,138.6 C174.9,138.5 177.7,138.3 180.6,138 L180.6,138 L180.6,138 C177.7,138.3 174.8,138.5 172.2,138.6" id="Shape" fill="#59646B"></path>
            <path d="M166.6,138.7 C159.3,138.7 154.2,138.1 154.2,138.1 L154.2,138.1 L155.8,120.5 L155.6,118 L155.6,118 C156.9,118 158.3,117.7 159.8,116.9 L169.3,109.2 C169.7,113.2 170.4,117.1 171.7,121 C173.7,127.2 176.8,132.7 180.4,137.9 C177.5,138.2 174.7,138.4 172,138.5 C171.8,138.5 171.7,138.5 171.5,138.5 C171.4,138.5 171.4,138.5 171.3,138.5 C169.8,138.7 168.1,138.7 166.6,138.7 M165,102.6 C166.4,99.9 167.9,96.8 169.2,94 C169.2,96.1 169.1,98.2 169.1,100.3 L165,102.6 M155.1,87.2 C155.5,84.7 156,82.1 156.7,79.9 C157.4,78 158.5,76.1 159.7,74.4 C160.1,74.5 160.4,74.7 160.8,74.8 C157.5,77.7 155.8,82.4 155.3,85.6 L155.1,87.2 M158.7,82.7 C159.5,80.4 161,77.4 163.5,75.8 L163.6,75.8 C161.1,77.5 159.3,81.2 158.7,82.7" id="Shape" fill="#026595"></path>
            <path d="M152.8,127.2 L181.6,127.2 C184.3,127.2 186.5,129.4 186.5,132.1 L186.5,151.7 C186.5,154.4 184.3,156.6 181.6,156.6 L152.8,156.6 C150.1,156.6 147.9,154.4 147.9,151.7 L147.9,132.1 C147.8,129.4 150.1,127.2 152.8,127.2" id="Path" fill="#3F4D57"></path>
            <path d="M168.7,72.3 C180.6,73.6 182,86.8 182,87 L185.3,131.3 L182.8,131.5 L179.5,87.2 C179.5,86.7 178.3,75.8 168.4,74.8 C160,73.8 157.9,85.5 157.8,86 L150.8,130.2 L148.3,129.8 L155.3,85.6 C156.2,80.5 160.1,71.3 168.7,72.3" id="Path" fill="#3F4D57"></path>
            <path d="M158.5,83.4 C158.5,83.4 161.8,74.1 167.1,75.2 C172.3,76.3 173.1,79 172.8,84.2 C172.5,89.3 159.9,112.4 159.9,112.4 C159.9,112.4 153.9,112.2 150.2,110.9 L150.2,110.8 L158.5,83.4" id="Path" fill="#F6B075"></path>
            <path d="M150.2,110.8 L150.2,110.8 L150.2,110.8 L158.5,83.3 C158.5,83.3 161.4,75.1 166.1,75 L166.3,75 C166.6,75 166.8,75 167.1,75.1 C171.7,76.1 172.9,78.3 172.9,82.5 C172.9,83 172.9,83.5 172.9,84.1 C172.8,87 168.7,95.6 165.2,102.5 L154.9,108.2 C155,108.1 155.1,108.1 155.1,108 L155.1,108 L150.2,110.8" id="Path" fill="#E3A26C"></path>
            <path d="M167.1,75.2 C172.3,76.3 173.1,79 172.8,84.2 C172.7,86.6 170,92.7 167,98.6 C162.9,97.6 158.8,96.6 154.8,95.5 L158.4,83.4 C158.5,83.4 161.8,74.1 167.1,75.2" id="Path" fill="#026A9D"></path>
            <path d="M182.1,90 C182.6,89.9 183.2,90 183.5,90.4 C184.7,91.7 185.9,93.9 186.7,94.9 C187,95.3 187.1,95.9 186.8,96.4 L185,99.6 L179,101.7 L175.5,97.5 L178.2,91.2 L182.1,90 Z" id="Path" fill="#F6B075"></path>
            <path d="M178.4,87.8 C180.2,88.2 179.7,90.8 179.7,90.8 L175.8,97.1 L177,90.5 L178.4,87.8 Z" id="Path" fill="#F6B075"></path>
            <path d="M176.8,96 L179.7,100.9 L159.9,116.9 C153.1,120.1 148.9,115.4 150.2,110.8 L176.8,96" id="Path" fill="#F6B075"></path>
            <path d="M150.2,110.8 L155,108.1 L155,108.1 C155,108.1 154.9,108.2 154.8,108.3 L150.2,110.8" id="Path" fill="#D19564"></path>
            <path d="M151.6,116.4 C150.6,115.4 150,114.1 149.9,112.6 L149.9,112.1 C149.9,111.8 149.9,111.6 150,111.3 L150,111.3 C150,111.2 150,111.2 150,111.1 L150,111.1 L150,111 L150,111 C150,110.9 150,110.9 150,110.8 L150,110.8 L154.5,108.3 C153.8,109 150.2,111.6 151.6,116.4" id="Path" fill="#E3A26C"></path>
            <path d="M199.5,220.3 L210,223 C210.4,223.2 215.8,223.1 215.8,223.1 C219.2,222.5 219.5,225.8 219.5,225.8 L208.3,229.6 L193.7,230.9 C191.9,226.4 192.9,222.1 192.9,222.1 L199.5,220.3" id="Path" fill="#D9D9D9"></path>
            <path d="M193.6,230.9 C192.8,229 192.5,227 192.5,225.5 L192.5,225.5 C192.6,227 192.8,228.9 193.6,230.9 L199.7,230.4 L199.7,230.4 L199.7,230.4 L193.6,230.9" id="Path" fill="#ADCEDE"></path>
            <polyline id="Path" fill="#E3A26C" points="195.4 221.4 195.4 221.4 195.8 221.3 195.8 221.3 195.4 221.4"></polyline>
            <polyline id="Path" fill="#D19564" points="192.8 222 195.4 221.4 195.4 221.4 192.8 222"></polyline>
            <path d="M193.6,230.9 C192.8,229 192.5,227 192.5,225.5 L192.5,224.6 C192.5,223.1 192.8,222.1 192.8,222.1 L192.8,222.1 L195.4,221.5 L195.8,221.4 C195.8,221.5 195.8,221.6 195.8,221.6 C196.4,224.9 197.6,228.1 199.7,230.4 L193.6,230.9" id="Path" fill="#C8C8C8"></path>
            <path d="M152.5,127.2 L181.8,127.2 C184.4,127.2 186.5,129.3 186.5,131.9 L186.5,142 C186.5,144 185,145.7 183,145.9 C178.2,146.4 169.9,147.1 166.4,147.1 C163.2,147.1 155.8,146.4 151.4,145.9 C149.4,145.7 147.9,144 147.9,142 L147.9,131.8 C147.8,129.3 149.9,127.2 152.5,127.2" id="Path" fill="#4C5E6A"></path>
            <polyline id="Path" fill="#44515B" points="1036.9 220.1 1036.8 220.1 1031.1 219.8 1031.1 219.8 1036.9 220.1"></polyline>
            <path d="M729.7,163.8 L729.2,163.5 L729.2,163.3 C729.1,162.8 729.1,162.3 729,161.8 C728.9,160.8 728.8,159.9 728.8,158.9 C728.1,158.7 727.5,158.5 726.8,158.2 L726.8,158.7 C726.8,159.7 726.8,160.8 726.9,161.8 C730.4,164.3 733.7,166.7 736.5,168.8 C741.9,172.8 745.4,175.5 745.4,175.5 L743.9,177.4 C744.5,177.3 745.1,177.2 745.8,177.1 C745.9,176.5 746,175.8 746.2,175.1 C744.6,174 742.1,172.3 739.1,170.2 C736.3,168.4 733.1,166.1 729.7,163.8" id="Path" fill="#683328"></path>
            <path d="M795.5,198 C795.1,198.1 794.9,198.2 794.9,198.2 L794,195.5 C793.3,196.7 792.6,197.8 792,198.9 C791.3,200.1 790.8,201.2 790.2,202.2 C789.7,203.2 789.2,204.2 788.8,205 C788.4,205.9 788,206.6 787.8,207.2 C787.6,207.6 787.5,207.9 787.4,208.2 C788.6,206.7 791.3,203.9 794.9,202.6 C795.2,202.5 795.5,202.4 795.8,202.3 C796,201.8 796.2,201.4 796.4,200.9 C796.9,199.7 797.4,198.5 798,197.2 C798.1,197 798.1,196.9 798.2,196.7 C797.8,196.9 797.4,197.1 797.1,197.2 C796.3,197.6 795.8,197.8 795.5,198" id="Path" fill="#683328"></path>
            <path d="M765.6,232.4 C765.3,233 765.1,233.7 764.9,234.3 C764.4,235.6 764.1,236.8 763.8,238 C763.6,238.6 763.5,239.2 763.4,239.8 C763.3,240.4 763.2,240.9 763.1,241.5 C763,241.9 763,242.3 762.9,242.6 C762.9,242.7 762.9,242.9 762.8,243 C762.7,243.5 762.7,244 762.7,244.4 C762.6,245.3 762.6,246.1 762.6,246.7 C762.6,247.4 762.6,247.9 762.6,248.3 C762.6,248.7 762.6,248.8 762.6,248.8 L765.7,248.4 L766,248.4 L766,248.3 C766,248.2 766,248.1 765.9,248 C765.9,247.7 765.8,247.3 765.8,246.7 C765.8,246.1 765.7,245.4 765.7,244.6 C765.7,244.2 765.7,243.8 765.7,243.3 C765.7,242.8 765.8,242.4 765.8,241.9 C765.8,241.4 765.9,240.9 766,240.3 C766.1,239.8 766.1,239.2 766.2,238.6 C766.4,237.5 766.6,236.2 767,235 C767.2,234.4 767.3,233.7 767.5,233.1 C767.7,232.5 767.9,231.8 768.1,231.2 L768.2,231.1 C767.6,231 766.9,230.9 766.1,230.7 C766.1,231.2 765.9,231.8 765.6,232.4" id="Path" fill="#683328"></path>
            <path d="M807.7,235.9 C805.4,238 802.9,238.8 800.6,238.8 C799.2,238.8 797.9,238.5 796.7,238.2 C793.2,239.1 790.6,240 789.3,240.2 C789,240.3 788.7,240.3 788.5,240.3 C787.1,240.3 786.2,239.5 785.8,238.7 C784.8,239 783.6,239.2 782.4,239.4 C783,241.8 783.5,244 783.2,244.4 C782,246 780.3,247.6 778.6,249.6 C776.6,252 773.1,255.3 769.8,258 C770,258.8 770.2,259.5 770.4,260.2 C770.7,261.5 770.8,262.7 770.8,263.6 C770.8,264 770.8,264.4 770.7,264.7 C770.7,265 770.6,265.1 770.6,265.1 L764.5,264 L764.5,263.9 C764.5,263.8 764.5,263.7 764.5,263.5 C764.5,263.2 764.5,262.6 764.4,261.9 C763.6,262.4 763,262.7 762.5,262.9 C762.3,262.9 762.2,263 762,263 C758.4,263 748.4,252.6 744.4,247.3 C740.2,241.7 742,241 740.9,237.9 C740.5,236.6 741.1,234.8 742,233 L741.9,233 C739.4,235.9 736.5,236.9 733.8,236.9 C733.6,236.9 733.5,236.9 733.3,236.9 C734.9,238.4 736,239.7 736,239.7 C739.1,251.5 747.1,258.5 754.8,266.1 C762.5,273.7 755.2,287.3 754.5,298.4 C753.9,307.8 750.6,308.5 749.6,308.5 C749.4,308.5 749.3,308.5 749.3,308.5 L739.6,309.9 C739.6,309.9 746,312 750.7,312 C751.1,312 751.4,312 751.7,312 C755.7,311.7 757.6,307.9 761.4,307.9 C762.2,307.9 763.2,308.1 764.2,308.5 C766.4,309.4 769.3,309.7 772.2,309.7 C777.2,309.7 781.9,308.9 781.9,308.9 C781.9,308.9 777.7,308.2 772.2,306.5 C766.6,304.8 769.8,291.2 769.8,281.1 C769.8,271 773.3,263 777.4,258.2 C781.6,253.3 787.8,245.7 789.9,243.6 C792,241.5 807.6,238.4 815.6,238 C816.2,238 816.7,237.9 817.2,237.9 C814.3,237.8 811.6,236.7 810,235.9 C809.3,235.7 808.5,235.8 807.7,235.9" id="Path" fill="#683328"></path>
            <path d="M735.5,172.9 C734.1,172.1 732.5,171.2 730.8,170.3 C729.1,169.4 727.3,168.6 725.5,167.7 C723.6,166.8 721.7,166 719.7,165.2 C717.7,164.4 715.7,163.6 713.6,162.8 C711.9,162.2 710.2,161.6 708.6,161 C707.7,161.2 706.9,161.3 706,161.3 C703.7,161.3 701.8,160.7 701.2,160.5 C703,161.2 704.8,162 706.6,162.7 C708.6,163.5 710.5,164.4 712.5,165.3 C714.4,166.2 716.4,167.2 718.3,168.1 C720.1,169.1 722,170 723.7,171 C725.4,172 727,172.9 728.6,173.9 C729.3,173.8 730,173.7 730.7,173.7 C733.8,173.7 737.3,174.8 739.8,178.6 C739.8,178.6 740.5,178.3 741.7,177.9 C740.6,176.8 739.1,175.5 737.5,174 C736.7,173.7 736.1,173.3 735.5,172.9" id="Path" fill="#683328"></path>
            <path d="M748.8,162.7 C748.7,163.3 748.5,163.9 748.4,164.5 C748,166.1 747.7,167.7 747.4,169.3 C747.1,170.8 746.8,172.2 746.5,173.6 C746.4,174.2 746.3,174.7 746.2,175.3 C746.1,176 745.9,176.7 745.8,177.3 C746.3,177.2 746.9,177.2 747.5,177.2 C748.1,177.2 748.7,177.2 749.3,177.3 C749.3,177.3 749.5,177.1 749.8,176.9 C750.1,176.7 750.5,176.4 751,176 C751,175.5 751.1,175 751.2,174.4 C751.3,173.1 751.5,171.6 751.6,170.1 C751.8,168.6 752,167 752.2,165.3 L752.2,165.2 L752.1,165.3 L748.8,162.7 Z" id="Path" fill="#683328"></path>
            <path d="M751.7,151.5 C751.4,152.4 751.2,153.3 750.9,154.2 C750.7,155.1 750.4,155.9 750.2,156.8 C750,157.7 749.8,158.5 749.5,159.4 C749.2,160.5 749,161.5 748.7,162.5 L748.8,162.4 C749,162.2 749.2,162 749.5,161.7 C750.1,161.1 750.9,160.3 751.9,159.4 C752.2,159.1 752.5,158.9 752.9,158.6 C753,158.2 753,157.8 753.1,157.4 C753.2,156.5 753.4,155.7 753.5,154.8 C753.7,153.6 753.9,152.5 754.1,151.4 L753.9,151.4 C753.2,151.4 752.4,151.4 751.7,151.5" id="Path" fill="#683328"></path>
            <path d="M766.4,164.8 C762.8,167.1 759.5,169.4 756.8,171.3 C754.5,173 752.6,174.4 751.3,175.4 C751.2,175.5 751.1,175.6 750.9,175.7 C750.4,176.1 750,176.4 749.7,176.6 C749.4,176.9 749.2,177 749.2,177 C751.1,177.2 753,177.9 754.7,179.4 L754.7,179.4 C755.9,178.3 757.6,176.7 759.7,174.9 C762.4,172.6 765.6,169.8 769.3,167.1 C767.8,166.5 766.9,165.7 766.4,164.8" id="Path" fill="#683328"></path>
            <path d="M760.2,153.8 L759,154.4 C758.6,154.6 758.2,154.9 757.9,155.1 C757.1,155.5 756.4,156 755.7,156.5 C755,157 754.3,157.5 753.7,157.9 C753.5,158.1 753.2,158.3 753,158.5 C752.7,158.8 752.3,159.1 752,159.3 C751,160.2 750.1,161 749.6,161.6 C749.3,161.9 749.1,162.1 748.9,162.3 L748.8,162.4 L748.7,162.5 L748.8,162.5 L752.1,165 L752.2,164.9 L752.3,164.8 C752.4,164.7 752.5,164.4 752.7,164.1 C753.1,163.5 753.7,162.7 754.6,161.8 C755,161.3 755.5,160.8 755.9,160.3 C756.4,159.8 756.9,159.2 757.5,158.7 C758.1,158.2 758.7,157.6 759.3,157.1 C759.6,156.8 760,156.6 760.3,156.3 L761.3,155.5 C762,155 762.7,154.5 763.4,154.1 C763.8,153.8 764.3,153.5 764.8,153.3 C763.8,153.1 763,153 762.3,152.8 C761.5,153.2 760.8,153.5 760.2,153.8" id="Path" fill="#683328"></path>
            <path d="M726.9,161.8 C723.6,159.4 720.2,157 716.7,154.5 C716.1,154.7 715.5,155.1 715.1,155.5 C715.3,155.6 715.4,155.8 715.6,155.9 C721,160.1 726.3,164.3 730.8,168 C732.2,169.1 733.5,170.2 734.7,171.2 C738.6,174.4 741.4,176.8 742.6,177.8 C743,177.7 743.4,177.6 743.9,177.5 L745.4,175.6 C745.4,175.6 741.9,172.9 736.5,168.9 C733.7,166.8 730.4,164.4 726.9,161.8" id="Path" fill="#683328"></path>
            <path d="M795.2,181.2 C795.2,180.7 795.1,180.1 795,179.6 C794,179.4 793.1,179.2 792.3,178.8 C792.3,179.6 792.3,180.4 792.3,181.3 C792.3,182.2 792.3,183.2 792.2,184.1 C792.1,186 791.9,187.9 791.6,189.7 C791.3,191.5 791,193.3 790.6,195 C790.2,196.7 789.8,198.3 789.3,199.9 C788.8,201.4 788.3,202.9 787.8,204.1 C787,206 786.3,207.7 785.6,209 C786.2,209.1 786.6,209.2 786.6,209.2 C786.6,209.2 786.9,208.8 787.4,208.1 C787.5,207.8 787.7,207.5 787.8,207.1 C788.1,206.5 788.4,205.7 788.8,204.9 C789.2,204 789.7,203.1 790.2,202.1 C790.7,201.1 791.3,200 792,198.8 C792.6,197.7 793.3,196.6 794,195.4 L793.4,193.5 C793.4,193.5 793.6,193.5 793.9,193.4 C794.2,193.3 794.7,193.2 795.2,193 C795.3,192 795.3,191.1 795.4,190.1 C795.5,188.1 795.5,186.2 795.4,184.2 C795.4,183.2 795.3,182.2 795.2,181.2" id="Path" fill="#683328"></path>
            <path d="M802.1,184.2 C801.1,185.3 800.2,186.6 799.2,187.8 C798.3,189 797.4,190.3 796.5,191.5 C796.2,191.9 795.9,192.4 795.6,192.8 C796.8,192.4 798.5,191.8 800.4,191 C800.6,190.9 800.8,190.8 801.1,190.7 C801.3,190.3 801.6,189.8 801.8,189.4 C802.6,188.1 803.3,186.8 804.1,185.6 C804.4,185.2 804.7,184.7 804.9,184.3 C804,184.1 803.2,183.8 802.6,183.4 C802.5,183.8 802.3,184 802.1,184.2" id="Path" fill="#683328"></path>
            <path d="M811.3,185.8 C810,186.6 808.7,187.3 807.5,187.9 C805.2,189.1 803.1,190.1 801.1,190.9 C800.9,191 800.6,191.1 800.4,191.2 C798.5,192 796.8,192.5 795.6,193 C795.5,193 795.4,193.1 795.3,193.1 L795.2,193.1 C794.6,193.3 794.2,193.4 793.9,193.5 C793.6,193.6 793.4,193.6 793.4,193.6 L794,195.5 L794.9,198.2 C794.9,198.2 795.1,198.1 795.5,198 C795.9,197.9 796.4,197.6 797,197.4 C797.3,197.2 797.7,197.1 798.1,196.9 C799.2,196.4 800.6,195.7 802.2,194.9 C804.3,193.8 806.7,192.4 809.2,190.8 C810.4,190 811.7,189.1 813,188.2 C814.3,187.3 815.5,186.3 816.7,185.3 C817.9,184.3 819.1,183.2 820.2,182.2 C820.4,182 820.6,181.9 820.7,181.7 C818.3,182.8 816.2,183.5 814.3,184 C813.3,184.6 812.3,185.2 811.3,185.8" id="Path" fill="#683328"></path>
            <path d="M769.7,257.9 C769,255.7 768,253.1 766.7,250.2 C766.5,249.6 766.2,249.1 765.9,248.5 L762.8,248.9 C762.8,248.9 762.8,248.7 762.8,248.4 C762.8,248 762.8,247.5 762.8,246.8 C762.8,246.1 762.8,245.4 762.9,244.5 C762.9,244.1 763,243.6 763,243.1 C763,243 763,242.8 763.1,242.7 C761.5,239.7 759.8,236.5 757.9,233.2 C756.8,234.1 755.6,234.7 754.4,235.1 C757.4,241.3 760.1,247.3 761.9,252.2 C763.3,256 764.2,259.2 764.5,261.2 C764.5,261.4 764.6,261.5 764.6,261.7 C764.7,262.5 764.7,263 764.7,263.3 C764.7,263.5 764.7,263.6 764.6,263.7 L764.6,263.8 L770.7,264.9 C770.7,264.9 770.7,264.8 770.7,264.5 C770.7,264.2 770.8,263.9 770.8,263.4 C770.8,262.5 770.7,261.3 770.4,260 C770.1,259.4 769.9,258.7 769.7,257.9" id="Path" fill="#683328"></path>
            <path d="M815.6,108.2 C813.8,108.2 811.7,108.5 809.2,109.3 C809.2,109.3 807.2,105.1 802.1,105.1 C800.6,105.1 798.9,105.4 796.9,106.3 C796.9,106.3 795.5,100.8 790.9,100.8 C789.5,100.8 787.8,101.3 785.8,102.6 C785.8,102.6 786.4,98.3 781.8,98.3 C781.4,98.3 780.9,98.3 780.4,98.4 C780.4,98.4 778.3,91.2 772,91.2 C770.7,91.2 769.3,91.5 767.7,92.2 C767.7,92.2 763.5,89.5 759.3,89.5 C756.4,89.5 753.5,90.8 751.8,95 C751.1,96.8 750.6,98.1 750.2,99 C749.5,98.5 747,96.7 743.5,96.7 C741.4,96.7 739.1,97.3 736.5,99.2 C736.5,99.2 732.9,93.6 726.7,93.6 C724.7,93.6 722.4,94.2 719.9,95.7 C709.5,102 711.3,103.1 709.2,107.3 C709.2,107.3 709,107.3 708.7,107.3 C706.9,107.3 700.3,107.8 698.3,115 C698.3,115 695.8,116.9 698.8,119.6 C698.8,119.6 699.8,124.1 697.4,124.1 C697.2,124.1 697,124.1 696.7,124 C695.3,123.6 693.4,123.2 691.3,123.2 C688.5,123.2 685.4,124 682.3,126.6 C677,131.2 677.9,133.6 679.5,136.1 C679.5,136.1 680.7,138.2 677.4,139.3 C674.2,140.5 668.1,143.5 669.5,147.6 C669.5,147.6 659.8,157.8 665.1,159.9 C665.1,159.9 664,164.4 667.1,166 L667.2,166 C667.6,166 668.1,165.9 668.6,165.8 C669.1,166 669.6,166.2 670.2,166.2 C670.5,166.2 670.8,166.2 671.1,166.2 C674.6,166.2 678,164.9 680.2,162.2 C681.2,161 681.8,159.7 682.2,158.4 C682.4,158.5 682.7,158.6 683,158.6 C684.8,159 686.7,159.2 688.6,159.2 C691.4,159.2 694.2,158.6 696.5,157 C699.8,154.7 700.6,151.2 700,147.8 C700.6,148.2 701.2,148.5 702.1,148.7 C704.2,149 706.4,149.2 708.6,149.2 C712,149.2 715.4,148.7 718.5,147.3 C720.7,146.3 722.4,144.8 723.4,143 L723.6,143.3 C726.2,146.1 730.1,148.2 734,148.2 C734.4,148.2 734.7,148.2 735.1,148.1 C739.2,147.7 741.8,144.8 742.4,141.1 C751.6,140.3 761.1,138.3 765.7,132.2 C767,133 768.4,133.5 769.9,133.5 C770.9,133.5 771.8,133.3 772.8,132.9 C773.1,135 773.9,137.1 775.5,138.6 C776.9,139.9 778.8,140.6 780.7,140.6 C781.6,140.6 782.6,140.4 783.5,140.1 C786,139.2 788.1,137.6 789.7,135.4 C789.9,135.2 790,134.9 790.2,134.7 C791.7,134.9 793.2,135 794.6,135 C798.3,135 801.9,134.2 805.1,132 C809.4,129.1 812,124.9 813.2,120.1 C814.7,119.9 816.1,119.5 817.5,118.7 C819.7,117.4 821.3,115.4 822.1,113 C822.4,112.2 822.5,111.4 822.5,110.6 C824.2,111.9 824.9,113.4 825.1,113.8 C824.9,112.8 822.6,108.2 815.6,108.2" id="Path" fill="#3A8835"></path>
            <path d="M843,121 C841,119.6 838.8,119.1 836.8,119.1 C832.2,119.1 828.4,121.7 828.4,121.7 C828.4,121.7 831.2,114.5 825.2,113.6 L825.2,113.5 C825,113.1 824.3,111.6 822.6,110.3 C822.6,111.1 822.4,111.9 822.2,112.7 C821.4,115.1 819.8,117.1 817.6,118.4 C816.2,119.2 814.8,119.6 813.3,119.8 C812.1,124.6 809.5,128.9 805.2,131.7 C802,133.9 798.4,134.7 794.7,134.7 C793.3,134.7 791.8,134.6 790.3,134.4 C790.1,134.7 790,134.9 789.8,135.1 C788.2,137.3 786.1,138.8 783.6,139.8 C782.7,140.1 781.7,140.3 780.8,140.3 C778.9,140.3 777.1,139.6 775.6,138.3 C774,136.9 773.2,134.8 772.9,132.6 C771.9,133 770.9,133.2 770,133.2 C768.5,133.2 767.1,132.7 765.8,131.9 C761.2,138 751.7,140 742.5,140.8 C741.9,144.5 739.3,147.4 735.2,147.8 C734.8,147.8 734.5,147.9 734.1,147.9 C730.2,147.9 726.3,145.9 723.7,143 L723.4,142.7 C722.3,144.5 720.7,146 718.5,147 C715.4,148.4 712,148.9 708.6,148.9 C706.4,148.9 704.2,148.7 702.1,148.4 C701.3,148.3 700.6,148 700,147.5 C700.6,151 699.8,154.4 696.5,156.7 C694.2,158.3 691.4,158.9 688.6,158.9 C686.7,158.9 684.8,158.6 683,158.3 C682.7,158.2 682.5,158.2 682.2,158.1 C681.8,159.4 681.2,160.7 680.2,161.9 C678,164.7 674.6,165.9 671.1,165.9 C670.8,165.9 670.5,165.9 670.2,165.9 C669.6,165.9 669.1,165.7 668.6,165.5 C668.1,165.7 667.7,165.7 667.2,165.7 L667.1,165.7 C667.7,166 668.5,166.3 669.5,166.3 L669.5,166.3 L669.6,166.3 L669.6,166.3 L669.6,166.3 L669.6,166.3 L669.6,166.3 L669.7,166.3 C669.7,166.3 672.7,167.2 676.3,167.2 C680.3,167.2 684.8,166.1 686.4,161.5 C686.4,161.5 689.6,163.3 693.5,163.3 C695.9,163.3 698.6,162.6 700.9,160.4 C700.9,160.4 703.1,161.2 705.9,161.2 C708.2,161.2 710.9,160.6 713,158.5 C713,158.5 713.1,158.2 713.3,157.7 L713.3,157.7 L713.4,157.6 C714,156.3 715.5,154.2 718.3,154.2 C718.9,154.2 719.6,154.3 720.4,154.6 C721,154.8 726.7,159.4 731.8,159.4 C732.4,159.4 733.1,159.3 733.7,159.2 C733.8,159.2 734,159.1 734.1,159.1 C734.1,159.1 744.3,156.1 745.9,152.4 C745.9,152.4 749.8,151.5 753.9,151.5 C756,151.5 758.1,151.7 759.8,152.4 C759.8,152.4 765.9,154 772.1,154.2 C775.8,152.5 779.6,152.2 781.9,152.2 C783.1,152.2 783.9,152.3 783.9,152.3 C788.8,149.9 792.7,149.1 795.7,149.1 C800.5,149.1 802.9,151 802.9,151 C806,149.2 808.8,148.6 811.1,148.6 C813.3,148.6 815,149.1 816.2,149.7 C817.4,149.1 818.4,148.2 818.6,146.6 C818.6,146.6 820.1,146.9 821.8,146.9 C824.1,146.9 826.8,146.3 826.8,143.4 C826.8,143.1 826.8,142.7 826.7,142.4 C826.7,142.4 842.5,141.9 842.5,136.1 C842.6,136.1 849.8,125.7 843,121" id="Path" fill="#275A38"></path>
            <path d="M771.7,184.5 C770.8,183.7 769.6,183.4 768.1,183.4 C763.9,183.4 758.5,185.9 758.5,185.9 C757.6,182.9 756.3,180.9 754.7,179.5 C753,178 751.1,177.3 749.2,177.1 C748.6,177 748,177 747.4,177 C746.8,177 746.2,177 745.7,177.1 C745,177.2 744.4,177.3 743.8,177.4 C743.4,177.5 742.9,177.6 742.5,177.7 C742.1,177.8 741.8,177.9 741.5,178 C740.4,178.4 739.6,178.7 739.6,178.7 C737.1,174.9 733.6,173.8 730.5,173.8 C729.8,173.8 729.1,173.9 728.4,174 C725,174.5 722.4,176 722.4,176 C722.4,175.1 716.7,170.9 710.4,170.9 C710.1,170.9 709.8,170.9 709.4,170.9 C702.7,171.4 704.8,178.8 704.8,178.8 C704.8,178.8 702.8,177.7 699.4,177.7 C697.9,177.7 696,177.9 693.9,178.6 C687.2,180.7 692,186.7 692,186.7 C688,199.9 700.4,201.9 708.4,201.9 C711.9,201.9 714.5,201.5 714.5,201.5 C714.5,201.5 716,204.6 719,207.1 C719.5,207.2 719.7,207.3 719.7,207.3 C719.7,207.3 722.9,202.5 728,200.6 C729.5,200 731.2,199.8 732.9,199.8 C737.3,199.8 741.5,201.3 741.5,201.3 C744.3,199.7 747,199.1 749.6,199.1 C757.1,199.1 762.9,204.4 762.9,204.4 C763.6,204.3 764.2,204.2 764.8,204.2 C765.3,204.2 765.8,204.2 766.2,204.3 C766.7,201.9 766.5,199.6 766.5,199.6 C766.5,199.6 783,195.2 771.7,184.5" id="Path" fill="#275A38"></path>
            <path d="M837.9,217.4 C837.9,217.4 840.3,206.2 831.6,206.2 C831,206.2 830.4,206.2 829.7,206.4 C829.7,206.4 823.9,201.1 816.4,201.1 C813.9,201.1 811.1,201.7 808.3,203.3 C808.3,203.3 804.2,201.8 799.7,201.8 C798.4,201.8 797,201.9 795.7,202.3 C795.4,202.4 795.1,202.5 794.8,202.6 C791.2,204 788.6,206.7 787.3,208.2 C786.8,208.8 786.5,209.3 786.5,209.3 C786.5,209.3 786.2,209.2 785.5,209.1 C783.7,208.7 779.8,207.9 775.6,207.9 C774,207.9 772.3,208 770.8,208.3 C771.9,211.5 771,215.3 771,215.3 C771,215.3 786.8,221.7 774.2,230.9 C774.1,231 774,231.1 773.8,231.1 C773.3,232.7 772,238 777.6,239 C778.5,239.2 779.5,239.3 780.4,239.3 C781,239.3 781.6,239.3 782.2,239.2 C783.4,239.1 784.5,238.8 785.5,238.5 C788.7,237.6 791.1,236 791.1,235.5 C791.1,235.5 793.3,237.1 796.4,238.1 C797.6,238.5 798.9,238.7 800.3,238.7 C802.7,238.7 805.2,238 807.4,235.9 C807.7,235.6 808.1,235.3 808.4,234.9 C808.4,234.9 808.9,235.2 809.8,235.6 C811.4,236.4 814.1,237.5 817,237.6 C817.2,237.6 817.3,237.6 817.5,237.6 C821.3,237.6 825.3,235.9 827.9,230 C827.9,230 833.9,233.7 838.2,233.7 C839.2,233.7 840.1,233.5 840.9,233 C853.7,223.8 837.9,217.4 837.9,217.4" id="Path" fill="#275A38"></path>
            <path d="M771.2,215.3 C771.2,215.3 772,211.5 771,208.3 C770.3,206.4 769,204.7 766.3,204.2 C765.9,204.1 765.4,204.1 764.9,204.1 C764.3,204.1 763.7,204.2 763,204.3 C763,204.3 757.2,199 749.7,199 C747.2,199 744.4,199.6 741.6,201.2 C741.6,201.2 737.4,199.7 733,199.7 C731.3,199.7 729.6,199.9 728.1,200.5 C723,202.4 719.8,207.2 719.8,207.2 C719.8,207.2 719.6,207.1 719.1,207 C717.5,206.6 713.3,205.7 709,205.7 C701.7,205.7 693.8,208.1 695.7,219.1 C695.7,219.1 690.1,224.5 696.6,227.4 C699.4,228.7 701.9,229 703.8,229 C706.1,229 707.5,228.4 707.5,228.4 C707.5,228.4 704.5,235.5 711.2,236.8 C712.1,237 713,237.1 713.9,237.1 C719.5,237.1 724.6,234.1 724.6,233.3 C724.6,233.3 728.6,236.3 733.4,236.4 C733.6,236.4 733.7,236.4 733.9,236.4 C736.6,236.4 739.5,235.5 742,232.5 L742.1,232.5 C742.6,232.8 746.6,235.2 751.2,235.2 C752.3,235.2 753.3,235.1 754.4,234.7 C755.6,234.3 756.8,233.7 757.9,232.8 C759.2,231.7 760.5,230.1 761.5,227.9 C761.6,227.8 761.6,227.7 761.6,227.6 C761.6,227.6 765.1,229.8 768.7,230.8 C769.8,231.1 770.9,231.3 771.9,231.3 C772.7,231.3 773.5,231.2 774.2,230.8 C774.3,230.7 774.5,230.7 774.6,230.6 C787,221.7 771.2,215.3 771.2,215.3" id="Path" fill="#3A8835"></path>
            <path d="M843.3,164.2 C843.3,164.2 846.2,154.2 836.5,154.2 C835.9,154.2 835.2,154.2 834.4,154.3 C834.4,154.3 831.6,149 825,149 C823,149 820.8,149.5 818.1,150.7 C818.1,150.7 817.4,150.1 816.2,149.6 C815,149.1 813.3,148.5 811.1,148.5 C808.8,148.5 806,149.1 802.9,150.9 C802.9,150.9 800.5,149 795.7,149 C792.7,149 788.8,149.8 783.9,152.2 C783.9,152.2 783.1,152.1 781.9,152.1 C779.6,152.1 775.7,152.4 772.1,154.1 C770.1,155 768.2,156.4 766.6,158.3 C766.6,158.3 764.5,161.8 766.3,164.7 C766.9,165.6 767.7,166.4 769.2,167.1 C769.6,167.3 770.1,167.5 770.7,167.7 C770.7,167.7 771.1,175.3 778.9,175.3 C781.2,175.3 784,174.7 787.7,173 C787.7,173 788.3,177 792.3,178.8 C793.1,179.2 794,179.4 795,179.6 C795.6,179.7 796.3,179.7 797,179.7 C797.7,179.7 798.4,179.7 799.1,179.6 C799.1,179.6 799.8,182 802.6,183.5 C803.3,183.9 804,184.2 804.9,184.4 C805.8,184.6 806.9,184.8 808.2,184.8 C809.9,184.8 811.8,184.5 814.1,183.9 C816,183.4 818.1,182.6 820.5,181.6 C821.3,181.2 822.2,180.8 823.1,180.4 C823.1,180.4 825.7,181.1 828.8,181.1 C833,181.1 838,179.8 838.6,173.5 C838.7,173.6 850.4,170.8 843.3,164.2" id="Path" fill="#275A38"></path>
            <path d="M708.2,312.1 C707.1,312 706,312.4 705.9,312.7 L705.7,313.1 L706.1,314 C706.1,314 707.9,315.3 710.2,315.1 C712.4,314.9 713.4,314.5 714.4,314.6 C715.5,314.7 718.5,315.2 718.7,314.2 C718.8,313.5 719,311.4 719,311.4 L712.1,310.3 C712.1,310.3 709.3,312.1 708.2,312.1" id="Path" fill="#F4F3F4"></path>
            <path d="M710.1,315 L709.3,315 C708.9,315 708.4,314.9 708.1,314.8 C710,314.4 711.9,313.7 713.2,312.5 C713.4,312.5 713.7,312.4 713.9,312.4 C714,312.4 714.1,312.4 714.3,312.3 C716.1,311.9 717.4,311.3 718.6,311.3 C718.7,311.3 718.8,311.3 718.9,311.3 L718.9,311.3 C717.8,312 716.7,312.7 716,313.1 C715.3,313.5 714.5,313.8 714,313.8 L714,313.8 C713.9,313.8 713.8,313.8 713.8,313.8 C712.8,313.8 711.9,314.1 711.7,314.4 L711.5,314.7 C711,315 710.6,315 710.1,315 L710.1,315" id="Path" fill="#E3E2E3"></path>
            <path d="M723.9,300.6 C723.9,300.6 718.1,306.3 717,307.1 C715.9,307.9 710.1,311.1 709.7,311.7 C709.7,311.7 710.9,313 714.4,312.3 C716.4,311.9 717.8,311.2 719.1,311.3 C719.1,311.3 719.2,310.1 719.6,309.5 C720.1,308.9 727.9,304.1 727.9,304.1 C727.9,304.1 727.2,299.9 723.9,300.6" id="Path" fill="#EDC7B2"></path>
            <path d="M713.9,312.4 C714,312.4 714.1,312.4 714.3,312.3 C716.1,311.9 717.4,311.3 718.6,311.3 C718.7,311.3 718.8,311.3 718.9,311.3 L718.9,311.3 C718.8,311.3 718.7,311.3 718.6,311.3 C717.4,311.3 716.1,311.9 714.3,312.3 C714.2,312.4 714,312.4 713.9,312.4" id="Path" fill="#D3D2D3"></path>
            <path d="M727.8,304.2 C727.8,304.2 727.8,304.1 727.7,303.9 C727.8,304.1 727.8,304.2 727.8,304.2" id="Shape" fill="#AFCFE0"></path>
            <path d="M713.4,312.5 L713.4,312.5 C714.4,312 715.4,311.3 716.3,310.3 C718.3,308.1 719.8,307 722.2,305.5 C723.7,304.6 725,303.6 725.9,302.1 C726.1,301.8 726.1,301.4 726.1,301.1 C727.1,301.8 727.6,303.1 727.7,303.9 L727.7,303.9 C727.7,303.9 727.7,303.9 727.7,304 L727.7,304 L727.7,304 C727.7,304.2 727.8,304.3 727.8,304.3 L727.8,304.3 C727.8,304.3 720,309.1 719.5,309.7 C719,310.3 719,311.5 719,311.5 L719,311.5 C718.9,311.5 718.8,311.5 718.7,311.5 C717.5,311.5 716.2,312.1 714.4,312.5 C714.3,312.5 714.1,312.6 714,312.6 C713.7,312.4 713.6,312.5 713.4,312.5" id="Path" fill="#DCB9A6"></path>
            <path d="M756.6,275.2 C756.6,275.2 758.8,277.5 760.9,277.1 L761.5,275 L758.3,273.2 C758.2,273.2 757.9,275.1 756.6,275.2" id="Path" fill="#CE9B25"></path>
            <path d="M756.6,275.2 C756.6,275.2 758.8,277.5 760.9,277.1 L761.5,275 L758.3,273.2 C758.2,273.2 757.9,275.1 756.6,275.2" id="Path" fill="#B58B55"></path>
            <polyline id="Path" fill="#EDC7B2" points="749.1 295.5 754 289.4 755.3 277.9 746.4 291.9 749.1 295.5"></polyline>
            <path d="M749.1,295.5 L749.1,295.5 L749.8,294.6 L749.1,295.5 M754,280 L754,280 L754.6,279.1 L754.6,279.1 L754,280" id="Shape" fill="#AFCFE0"></path>
            <path d="M749.1,295.5 L749.1,295.5 L748.2,294.2 C752.2,291.4 753.5,285 754,279.9 L754.6,279 C754.5,279.3 754.4,279.6 754.4,280 C754.1,282 752.8,288.8 752.8,288.8 L752.8,291 L750,294.5 L749.8,294.6 L749.9,294.6 L749.1,295.5" id="Path" fill="#DCB9A6"></path>
            <path d="M745.4,283.1 L730.3,281.6 C730.1,281.6 729.9,281.8 730,282 L734,294.1 L750.2,295.9 L746.3,283.7 C746.2,283.4 745.8,283.1 745.4,283.1" id="Path" fill="#9D9D9C"></path>
            <path d="M736.7,293.5 C736.7,293.5 734.2,292.2 733,292.2 C731.8,292.2 725.3,298.5 725.3,298.5 L729.5,303 L734.5,300.2 C734.5,300.2 745.1,308.1 747.4,309 C749.8,309.8 753.5,309.8 753.5,309.8 L745.7,300.6 L736.7,293.5" id="Path" fill="#7FC6B1"></path>
            <path d="M713.9,314 C712.8,313.9 711.7,314.3 711.5,314.6 L711.3,314.9 L711.7,315.8 C711.7,315.8 713.5,317.1 715.8,316.9 C718,316.7 718.9,316.3 720,316.4 C721.1,316.5 724.1,317 724.3,316 C724.4,315.3 724.6,313.3 724.6,313.3 L717.7,312.2 C717.8,312.2 715,314 713.9,314" id="Path" fill="#FFFFFF"></path>
            <path d="M715.5,316.9 C714.7,316.9 713.9,316.7 713.3,316.5 C715.1,316.2 716.6,315.4 718.1,314.4 C718.7,314.4 719.4,314.3 720.3,314.1 L720.3,314.1 C722.1,313.8 723.3,313.7 724,313.7 C724.5,313.7 724.7,313.7 724.7,313.7 C724.6,314.4 724.5,315.4 724.4,315.9 C724.3,316.4 723.6,316.5 722.7,316.5 C721.7,316.5 720.6,316.3 720.1,316.3 C720,316.3 720,316.3 719.9,316.3 C718.9,316.3 718,316.7 715.9,316.8 L715.9,316.8 C715.7,316.9 715.6,316.9 715.5,316.9" id="Path" fill="#EDEDED"></path>
            <path d="M760.4,275 C760.4,275 760.7,276.1 760.5,276.1 C760.2,276.1 759.1,276.4 759.1,276.4 L756.3,284.7 C756.3,284.7 760.7,285.3 760.9,284.7 C761.1,284.1 768.1,276.2 768.1,276.2 L765.1,272.8 L760.4,275 Z" id="Path" fill="#EDC4AD"></path>
            <path d="M771.5,277.7 C769.8,276.3 766.9,274.7 766.9,274.7 L759,283.3 L759.2,276.4 L756.2,277 C756.2,277 754.7,277.8 754.4,280 C754.1,282 752.8,288.8 752.8,288.8 L752.9,298 C752.9,298 758.6,298.7 760.7,300.1 C762.8,301.5 764.4,305.9 764.3,307.4 C764.3,307.4 766.2,304.4 766.5,303.2 C767.1,301.1 773.5,290.5 773.5,284.4 C773.5,278.7 772.8,278.8 771.5,277.7" id="Path" fill="#FFFFFF"></path>
            <path d="M771.5,277.7 L771.3,277.5 C771.2,277.9 771.1,278.2 770.9,278.6 C767.1,285.6 763.8,294.8 756.4,298.6 C758,298.9 759.7,299.4 760.6,300.1 C762.7,301.5 764.3,305.9 764.2,307.4 C764.2,307.4 766.1,304.4 766.4,303.2 C767,301.1 773.4,290.5 773.4,284.4 C773.5,278.7 772.8,278.8 771.5,277.7" id="Path" fill="#F4F3F4"></path>
            <path d="M759.6,297.7 L746.6,295.2 C746.2,295.1 745.9,295.4 745.8,295.8 C745.7,296.2 746,296.5 746.4,296.6 L759.4,299.1 C759.8,299.2 760.2,298.9 760.2,298.5 C760.2,298.2 759.9,297.8 759.6,297.7" id="Path" fill="#9D9D9C"></path>
            <path d="M761.6,300.1 C760,299 754,297.9 754,297.9 C754,297.9 741.9,293.1 740.8,292.9 C739.6,292.7 736.9,292 736.4,292.7 C735.9,293.4 730.8,300.4 730.6,300.8 C730.3,301.2 735.3,305.3 735.3,305.3 C735.3,305.3 739.5,302.2 739.9,301.5 C739.9,301.5 745.1,306.2 746,306.9 C746.8,307.6 750.7,310.4 753.8,310.7 C756.9,311 759.8,311.3 762.4,309.5 C764.9,307.8 764.7,306.7 764.7,305.5 C764.7,303.5 763.2,301.2 761.6,300.1" id="Path" fill="#7FC6B1"></path>
            <path d="M756.9,310.9 L756.9,310.9 C756.2,310.9 755.5,310.8 754.7,310.8 L754.7,310.8 C755.5,310.8 756.2,310.9 756.9,310.9" id="Path" fill="#AFCFE0"></path>
            <path d="M757.3,310.9 L756.9,310.9 C756.2,310.9 755.5,310.8 754.7,310.8 C754.3,310.8 754,310.7 753.6,310.7 C752.5,310.6 751.3,310.2 750.2,309.6 C748.2,308.6 746.4,307.3 745.9,306.9 C745,306.2 739.8,301.5 739.8,301.5 C739.6,301.8 738.9,302.4 738.1,303 C737.5,303.5 736.8,304 736.3,304.4 C736.3,304.3 736.3,304.3 736.3,304.2 C736.3,304.1 736.3,304.1 736.3,304 L736.3,304 C736.2,303.6 736.1,303.3 736,303 C737.2,302.1 738.4,301.2 739.3,300 C740.7,300.6 742.5,301.5 742.6,301.5 C746.5,303.1 750.3,305.4 754.5,306.2 C755.4,306.4 756.6,306.5 757.8,306.5 C760.1,306.5 762.7,306.1 764.5,304.9 C764.5,305 764.5,305 764.5,305.1 L764.5,305.4 L764.5,305.4 C764.5,305.5 764.5,305.7 764.5,305.8 C764.5,306.8 764.4,307.8 762.2,309.4 C760.7,310.5 759.1,310.8 757.3,310.9" id="Path" fill="#76B8A5"></path>
            <path d="M731.3,299.6 L729.2,302.4 C732,302.5 733.7,306.6 733.7,306.6 L736.3,304.6 C735.5,300.1 731.3,299.6 731.3,299.6" id="Path" fill="#7FC6B1"></path>
            <path d="M736.3,304.3 C736.3,304.2 736.3,304.2 736.3,304.1 C736.3,304.2 736.3,304.3 736.3,304.3" id="Path" fill="#6EAB9A"></path>
            <path d="M735.9,303.1 C735.5,302.2 735,301.6 734.4,301.1 L734.4,301.1 C735,301.6 735.5,302.2 735.9,303.1 L735.9,303.1" id="Path" fill="#76B8A5"></path>
            <path d="M736.3,304.1 C736.2,303.7 736.1,303.4 736,303.1 L736,303.1 C736.1,303.4 736.2,303.8 736.3,304.1" id="Path" fill="#6EAB9A"></path>
            <path d="M733.8,306.6 L733.8,306.6 C733.8,306.6 733.7,306.4 733.6,306.1 C733.6,306 733.6,305.9 733.5,305.7 C733.4,305.3 733.2,304.7 732.9,304.1 C733.6,303.2 734.2,302.2 734.5,301.1 C735.1,301.6 735.6,302.3 736,303.1 C736.1,303.4 736.2,303.8 736.3,304.1 L736.3,304.1 C736.3,304.2 736.3,304.2 736.3,304.3 C736.3,304.4 736.3,304.5 736.3,304.5 L733.8,306.6" id="Path" fill="#76B8A5"></path>
            <path d="M725.6,297.9 L723.3,300.6 L727.8,304.8 L730.4,302.8 C729.5,298.3 725.6,297.9 725.6,297.9" id="Path" fill="#7FC6B1"></path>
            <path d="M729.6,302.5 C729.6,302.5 723.8,308.2 722.7,309 C721.6,309.8 715.8,313.2 715.3,313.7 C715.3,313.7 714.7,315 720.3,314.1 C723.6,313.5 724.7,313.8 724.7,313.8 C724.7,313.8 724.9,312 725.4,311.4 C725.9,310.8 733.6,306.1 733.6,306.1 C733.6,306.1 732.9,301.8 729.6,302.5" id="Path" fill="#EDC7B2"></path>
            <path d="M733.5,306.1 L733.5,306.1 C733.5,306 733.5,305.9 733.4,305.7 C733.5,305.9 733.5,306 733.5,306.1" id="Path" fill="#6EAB9A"></path>
            <path d="M718,314.5 C721.6,312.3 725.5,310.6 729,308.3 C730.7,307.2 732.1,306 733,304.4 C733.3,304.9 733.4,305.4 733.5,305.8 C733.5,306 733.6,306.1 733.6,306.2 L733.6,306.2 L733.6,306.2 C733.5,306.3 726.3,310.6 725.4,311.5 L725.3,311.6 C724.8,312.2 724.6,314 724.6,314 L724.6,314 C724.6,314 724.4,314 723.9,314 C723.2,314 722.1,314.1 720.2,314.4 L720.2,314.4 C719.3,314.3 718.6,314.4 718,314.5" id="Path" fill="#DCB9A6"></path>
            <path d="M759.9,263.9 C758,264.3 756.1,265.7 756.1,265.7 C756.1,265.7 755.2,266.1 755.7,267.6 C756.3,269.1 756.7,270.4 756.7,270.4 C756.7,270.4 756.2,271 756.9,272.2 C757.4,273.1 758.6,274.5 759.2,275.1 C759.4,275.4 759.8,275.5 760.1,275.6 C760.4,275.6 760.7,275.6 761,275.4 L765,272.8 C765.1,272.7 761.8,263.6 759.9,263.9" id="Path" fill="#EDC7B2"></path>
            <path d="M769,278.6 C767.3,279.4 766.8,283.2 766.7,283.9 C766.7,284.7 767,295.4 767,295.4 L756.6,294.6 L752.1,293.2 L749.7,294.5 L754.5,296.7 L757.2,297.2 C757.2,297.2 764.5,299.8 766.4,300.3 C768.2,300.8 771.1,301.3 772.1,300.5 C772.6,300.1 773.4,281.9 772.7,280.1 C772,278.4 770.8,277.8 769,278.6" id="Path" fill="#EDC7B2"></path>
            <path d="M767.6,300.7 C767.2,300.6 766.8,300.5 766.4,300.4 L766.4,300.4 L766.4,300.4 C766.8,300.5 767.2,300.6 767.6,300.7 L767.6,300.7 M773,285 C773,282.6 772.9,280.7 772.7,280.1 C772.7,280 772.6,280 772.6,279.9 C772.6,280 772.7,280 772.7,280.1 C772.9,280.7 773,282.6 773,285" id="Shape" fill="#E3E2E3"></path>
            <path d="M770.2,301 C769.4,301 768.4,300.9 767.6,300.7 C767.2,300.6 766.8,300.5 766.4,300.4 L766.4,300.4 C765.2,300.1 762,298.9 759.7,298.1 C760.2,298.2 760.7,298.2 761.2,298.3 C762.2,298.6 763.1,298.8 764.1,298.8 C767.3,298.8 769.9,296.8 771,293.1 C771.8,290.3 772.5,286.2 772.6,279.9 C772.6,279.9 772.6,279.9 772.6,280 C772.6,280.1 772.7,280.1 772.7,280.2 C772.9,280.7 773,282.6 773,285.1 C773,290.6 772.6,298.8 772.2,300.4 C772.2,300.6 772.1,300.6 772.1,300.7 C771.7,300.9 771,301 770.2,301" id="Path" fill="#DCB9A6"></path>
            <polygon id="Path" fill="#EDC7B2" points="749.7 294.6 750.2 295.9 755.1 296.9 754.8 294.7"></polygon>
            <path d="M756.9,262.4 C755.2,263.4 754.7,265 754.6,266.5 C754.5,268 756.7,270.4 756.7,270.4 C756.7,270.4 756.5,270 756.2,268.9 C755.9,267.8 757.1,265.1 757.1,265.1 L758.3,262 C758.5,262.1 758.6,261.4 756.9,262.4" id="Path" fill="#B58B55"></path>
            <path d="M763.3,261.2 C761.2,260.6 759.9,260.3 758.4,262 C757,263.7 757.2,265.1 757.2,265.1 C757.2,265.1 758.7,267.2 761.9,268.6 C764.5,269.6 764.1,273.1 763.8,274.7 C763.5,276.3 762.9,276.4 762.9,276.4 C762.9,276.4 766.1,276.6 766.9,276.4 C768.3,275.9 769.1,275.9 769.8,274.8 C770.8,273.3 771.7,270.1 770.1,267.9 C768.5,265.8 765.6,261.8 763.3,261.2" id="Path" fill="#B58B55"></path>
            <path d="M255.6,130.1 C259.9,130.1 263.3,126.7 263.3,122.4 C263.3,118.1 259.9,114.7 255.6,114.7 C251.3,114.7 247.9,118.1 247.9,122.4 C247.9,126.7 251.3,130.1 255.6,130.1 L255.6,130.1 Z" id="Path" fill="#0068B3"></path>
            <path d="M357.8,110.3 C359.4,110.3 360.7,109 360.7,107.4 C360.7,105.8 359.4,104.5 357.8,104.5 C356.2,104.5 354.9,105.8 354.9,107.4 C355,109 356.2,110.3 357.8,110.3 L357.8,110.3 Z" id="Path" fill="#0068B3"></path>
            <path d="M303.8,114.5 C307.5,114.5 310.5,111.5 310.5,107.8 C310.5,104.1 307.5,101.1 303.8,101.1 C300.1,101.1 297.1,104.1 297.1,107.8 C297,111.5 300,114.5 303.8,114.5 L303.8,114.5 Z" id="Path" fill="#0068B3"></path>
            <polygon id="Path" fill="#0068B3" points="254 123.1 303.9 108.5 357.3 107.5 357.3 106.1 303.6 107.1 253.6 121.8"></polygon>
            <polyline id="Path" fill="#0068B3" points="304.2 107.8 312 82.6 310.7 82.2 302.9 107.4"></polyline>
            <path d="M311.6,86.4 C314.2,86.4 316.3,84.3 316.3,81.7 C316.3,79.1 314.2,77 311.6,77 C309,77 306.9,79.1 306.9,81.7 C306.9,84.3 309,86.4 311.6,86.4 L311.6,86.4 Z" id="Path" fill="#0068B3"></path>
            <g id="Tekengebied-5" transform="translate(939.000000, 105.000000)">
                <g id="Group" opacity="0.9" transform="translate(84.000000, 47.000000)">
                    <path d="M8.72857143,148.111111 L13.3064935,148.111111 L14.3441558,132.980159 L7.14155844,132.980159 C7.93506494,140.238095 8.72857143,148.111111 8.72857143,148.111111 Z" id="Path" fill="#CA987A"></path>
                    <path d="M8.72857143,148.111111 L10.6818182,148.111111 C9.70519481,144.359127 9.58311688,139.869048 11.2311688,136.670635 C11.480223,136.13919 11.9340726,135.733457 12.4873847,135.547603 C13.0406967,135.361748 13.6453598,135.411932 14.161039,135.686508 L14.3441558,132.980159 L7.14155844,132.980159 C7.93506494,140.238095 8.72857143,148.111111 8.72857143,148.111111 Z" id="Path" fill="#010101" opacity="0.06"></path>
                    <path d="M28.6272727,147.742063 L33.2051948,147.742063 L34.1818182,133.041667 L27.1012987,133.041667 C27.8948052,140.238095 28.6272727,147.742063 28.6272727,147.742063 Z" id="Path" fill="#CA987A"></path>
                    <path d="M29.4207792,133.103175 L27.1012987,133.103175 C27.8948052,140.299603 28.6272727,147.803571 28.6272727,147.803571 L30.0922078,147.803571 C28.3220779,143.251984 28.4441558,137.962302 29.4207792,133.103175 Z" id="Path" fill="#010101" opacity="0.06"></path>
                    <path d="M29.6038961,56.6488095 L9.82727273,56.4642857 L7.38571429,64.7063492 C5.98181818,68.3968254 4.08961039,73.8095238 4.51688312,77.7460317 L7.50779221,106.962302 C7.50779221,106.962302 5.7987013,117.541667 6.22597403,123.753968 C6.59220779,127.998016 6.59220779,133.22619 7.2025974,139.253968 L14.3441558,138.884921 L16.2363636,105.363095 L19.0441558,82.4206349 L20.8142857,82.6051587 L28.8714286,106.654762 C28.8714286,106.654762 25.9415584,113.174603 27.0402597,139.438492 L33.9987013,139.438492 L37.661039,104.994048 C37.661039,104.994048 32.838961,67.5357143 32.0454545,64.4603175 L29.6038961,56.6488095 Z" id="Path" fill="#3F4D57"></path>
                    <path d="M13.4896104,56.5257937 L9.82727273,56.5257937 L7.38571429,64.7678571 C5.98181818,68.4583333 4.08961039,73.8710317 4.51688312,77.8075397 L7.50779221,107.02381 C7.50779221,107.02381 5.61558442,117.603175 6.22597403,123.815476 C6.71428571,128.059524 6.59220779,133.287698 7.2025974,139.315476 L11.9025974,139.069444 C10.6818182,133.22619 11.5974026,126.152778 11.9025974,121.232143 C12.3909091,112.128968 12.7571429,103.025794 12.4519481,93.922619 C12.1467532,84.8194444 11.5974026,76.2698413 13.0623377,67.4742063 C13.1377905,66.9493086 13.397705,66.4691375 13.7948052,66.1210317 C13.9371352,64.6491094 13.9575521,63.1677982 13.8558442,61.6924603 C13.7337662,59.9087302 13.5506494,58.1865079 13.4896104,56.5257937 Z" id="Path" fill="#010101" opacity="0.1"></path>
                    <path d="M31.0688312,114.343254 C31.9844156,100.257937 21.4857143,81.7440476 20.9974026,83.2202381 L28.8714286,106.654762 C28.8714286,106.654762 26.4298701,133.287698 27.0402597,139.438492 L32.5337662,139.438492 C28.3831169,132.672619 30.6415584,121.170635 31.0688312,114.343254 Z" id="Path" fill="#010101" opacity="0.1"></path>
                    <path d="M17.6402597,151.125 L13.7337662,148.172619 C13.573372,148.056563 13.3818337,147.992226 13.1844156,147.988095 L8.85064935,147.988095 C8.46582863,147.991776 8.12436591,148.237552 7.9961039,148.603175 C7.46411708,150.293882 7.19641329,152.057701 7.2025974,153.831349 C7.23441568,154.214792 7.55322016,154.509275 7.93506494,154.507937 L20.8142857,154.630952 C21.0441126,154.647065 21.2660891,154.543315 21.4023288,154.356106 C21.5385686,154.168897 21.5700452,153.924374 21.4857143,153.708333 C20.7929784,152.182739 19.3041998,151.182595 17.6402597,151.125 L17.6402597,151.125 Z" id="Path" fill="#EBEBEB"></path>
                    <path d="M14.7714286,148.972222 C12.4519481,149.095238 10.1324675,149.218254 7.81298701,149.218254 C7.40123999,150.594484 7.19551317,152.024905 7.2025974,153.462302 L17.1519481,153.585317 C17.0553687,152.706855 17.1813716,151.818058 17.5181818,151.001984 L14.7714286,148.972222 Z" id="Path" fill="#D52E1E"></path>
                    <path d="M42.6662338,151.063492 L33.9987013,147.680556 L28.6272727,147.680556 C28.3926365,147.698084 28.1842237,147.838094 28.0779221,148.049603 C27.4385904,149.904502 27.2094305,151.877823 27.4064935,153.831349 C27.4666786,154.190361 27.7776739,154.451515 28.138961,154.446429 L46.7558442,154.630952 C46.7558442,154.630952 46.5116883,151.494048 42.6662338,151.063492 Z" id="Path" fill="#EBEBEB"></path>
                    <path d="M27.8948052,148.541667 C27.4724726,150.166068 27.3076674,151.847541 27.4064935,153.52381 L40.1025974,153.52381 C40.2740328,152.456802 40.6922297,151.445418 41.3233766,150.571429 L35.8298701,148.480159 C33.3883117,149.34127 30.3974026,148.664683 27.8948052,148.541667 Z" id="Path" fill="#D52E1E"></path>
                    <path d="M33.6324675,24.8492063 L21.7298701,21.1587302 L11.1701299,22.4503968 C11.1701299,22.4503968 7.81298701,23.25 6.8974026,25.0337302 C6.47012987,25.8333333 10.925974,40.5337302 10.925974,40.5337302 C10.925974,40.5337302 11.7194805,50.3134921 9.82727273,54.8650794 C7.93506494,59.4166667 6.1038961,67.7202381 6.1038961,67.7202381 L33.4493506,69.0734127 C33.4493506,69.0734127 32.2896104,54.25 31.1909091,47.6071429 C30.9467532,45.7619048 33.2662338,38.0119048 33.2662338,38.0119048 C33.2662338,38.0119048 36.9285714,29.093254 33.6324675,24.8492063 Z" id="Path" fill="#D52E1E"></path>
                    <path d="M9.09480519,33.952381 C10.0103896,37.3968254 10.925974,40.5337302 10.925974,40.5337302 C10.925974,40.5337302 11.7194805,50.3134921 9.82727273,54.8650794 C7.93506494,59.4166667 6.1038961,67.7202381 6.1038961,67.7202381 L12.6961039,68.0277778 C11.7194805,65.5674603 12.0246753,57.202381 11.9636364,59.9087302 C11.9025974,62.6150794 12.2077922,49.8214286 12.2688312,41.640873 C12.2249132,40.9332508 12.5199233,40.2472276 13.0623377,39.7956349 C12.5830563,37.3853943 11.150576,35.2756834 9.09480519,33.952381 L9.09480519,33.952381 Z" id="Path" fill="#010101" opacity="0.06"></path>
                    <path d="M33.6324675,24.8492063 L30.9467532,47.7301587 C30.9467532,47.7301587 33.9376623,55.4186508 34.7922078,55.4186508 C35.6467532,55.4186508 38.2103896,44.6547619 37.2337662,34.875 C36.2571429,25.0952381 33.6324675,24.8492063 33.6324675,24.8492063 Z" id="Path" fill="#D52E1E"></path>
                    <path d="M34.2428571,40.0416667 C34.0597403,42.3789683 33.0831169,44.4702381 31.1909091,45.7003968 L30.9467532,47.7301587 C30.9467532,47.7301587 33.9376623,55.4186508 34.7922078,55.4186508 C35.6467532,55.4186508 37.6,47.1150794 37.4779221,38.5039683 C36.2996905,38.4388866 35.1700248,38.0093223 34.2428571,37.2738095 C34.3342375,38.194131 34.3342375,39.1213452 34.2428571,40.0416667 L34.2428571,40.0416667 Z" id="Path" fill="#010101" opacity="0.06"></path>
                    <polygon id="Path" fill="#3F4D57" points="30.7636364 38.1964286 36.6844156 39.3650794 41.9337662 28.5396825 36.3181818 27.6785714"></polygon>
                    <path d="M18.3727273,18.9444444 C18.1896104,19.7440476 17.3350649,21.9583333 17.3350649,21.9583333 C17.212987,24.0496032 19.4714286,25.2797619 20.6311688,25.5257937 C21.7909091,25.7718254 25.4532468,25.218254 25.5142857,23.1269841 L26.3077922,13.4702381 L17.7012987,12.2400794 C17.7012987,12.2400794 20.2038961,12.7321429 18.3727273,18.9444444 Z" id="Path" fill="#CA987A"></path>
                    <path d="M20.387013,18.2678571 C21.0553058,20.5692821 23.2725736,22.0501578 25.6363636,21.7738095 L25.8194805,21.0972222 C23.1948052,21.8968254 20.387013,18.2678571 20.387013,18.2678571 Z" id="Path" fill="#010101" opacity="0.1"></path>
                    <path d="M6.47012987,70.9801587 L6.47012987,70.9801587 L6.8974026,57.0178571 L1.46493506,56.4642857 L2.99090909,70.8571429 L2.92987013,70.8571429 L1.34285714,78.3611111 L3.23506494,82.7281746 L4.76103896,84.9424603 L4.88311688,84.9424603 L5.12727273,86.172619 C5.47860546,86.0774969 5.76953272,85.8294363 5.92077922,85.4960317 C6.1038961,84.8809524 5.49350649,81.4365079 5.49350649,81.4365079 L5.43246753,81.4365079 C5.42468693,81.1405432 5.36260192,80.8485871 5.24935065,80.5753968 C4.94415584,79.0992063 5.73766234,77.1924603 5.73766234,77.1924603 C5.73766234,77.1924603 6.47012987,76.8234127 6.71428571,77.8075397 C6.95844156,78.7916667 7.50779221,80.390873 8.72857143,80.2063492 L7.93506494,75.3472222 L6.47012987,70.9801587 Z" id="Path" fill="#CA987A"></path>
                    <path d="M2.99090909,70.8571429 L2.92987013,70.8571429 L1.34285714,78.3611111 L3.23506494,82.7281746 L3.78441558,83.5277778 C2.68571429,80.6369048 2.80779221,77.6230159 3.47922078,74.0555556 C4.15064935,70.4880952 3.54025974,69.3809524 3.23506494,66.6130952 C2.95573704,64.7970862 3.44261853,62.9461021 4.57792208,61.5079365 C5.07099049,60.8035986 5.96148937,60.504485 6.77532468,60.7698413 L6.8974026,57.0178571 L1.46493506,56.4642857 L2.99090909,70.8571429 Z" id="Path" fill="#010101" opacity="0.06"></path>
                    <path d="M6.8974026,25.0337302 C2.56363636,33.952381 0.549350649,49.3293651 0.549350649,49.3293651 C0.549350649,49.3293651 1.0987013,55.9722222 1.46493506,60.8928571 C3.54025974,60.8313492 5.43246753,60.9543651 7.50779221,61.015873 L7.87402597,47.8531746 C8.97272727,45.1468254 10.1324675,41.5178571 12.8792208,34.2599206 C16.8467532,23.6805556 6.8974026,25.0337302 6.8974026,25.0337302 Z" id="Path" fill="#D52E1E"></path>
                    <path d="M6.83636364,25.0952381 C2.56363636,34.0753968 0.549350649,49.3293651 0.549350649,49.3293651 C0.549350649,49.3293651 1.0987013,55.9722222 1.46493506,60.8928571 C3.05194805,60.8313492 4.51688312,60.8928571 6.04285714,60.9543651 C3.11298701,55.234127 2.80779221,48.8373016 3.6012987,42.5019841 C4.39480519,36.1666667 5.18831169,32.906746 6.83636364,25.0952381 Z" id="Path" fill="#010101" opacity="0.06"></path>
                    <path d="M37.2337662,32.2916667 C37.0089583,32.4876076 36.884938,32.7760488 36.8968179,33.0753275 C36.9086978,33.3746062 37.0551845,33.652144 37.2948052,33.8293651 C37.4779221,34.0753968 38.5766234,35.1210317 38.5766234,35.1210317 L38.2103896,36.1051587 L37.6,35.9206349 L34.1818182,34.6289683 C34.0539829,34.7213936 33.9781733,34.8702253 33.9781733,35.0287698 C33.9781733,35.1873144 34.0539829,35.3361461 34.1818182,35.4285714 L35.0363636,35.9821429 L35.0363636,35.9821429 L33.2662338,35.3670635 C33.2662338,35.3670635 32.5337662,35.859127 33.3272727,36.4126984 L34.6701299,37.0277778 L34.6701299,37.0277778 L32.9,36.5357143 C32.7577363,36.6576328 32.6866828,36.8440308 32.711365,37.0305694 C32.7360471,37.2171081 32.853084,37.3782347 33.0220779,37.4583333 C33.5337651,37.7974125 34.0879879,38.0663108 34.6701299,38.2579365 L35.5857143,38.8730159 L32.7779221,38.0734127 C32.1675325,38.1349206 32.7779221,38.8730159 32.961039,39.1190476 C33.6125975,39.5433525 34.3085728,39.8940137 35.0363636,40.1646825 C35.3598544,41.2525333 35.6046519,42.3625858 35.7688312,43.4861111 C35.7688312,43.8551587 34.5480519,45.8849206 34.1207792,48.406746 C33.6935065,50.9285714 33.9987013,55.234127 34.7922078,55.2956349 C35.5857143,55.3571429 38.0883117,55.172619 39.125974,50.5595238 C39.4944588,48.4072774 39.5969708,46.2173248 39.4311688,44.0396825 L39.4311688,39.672619 C39.4311688,39.672619 39.7363636,35.859127 40.0415584,35.3055556 C40.2301764,34.9330583 40.2068992,34.4873922 39.9805195,34.1369048 L37.2337662,32.2916667 Z" id="Path" fill="#CA987A"></path>
                    <path d="M33.9376623,38.9960317 C33.5268059,39.0527848 33.1084512,39.0106279 32.7168831,38.8730159 L32.961039,39.2420635 C33.6125975,39.6663683 34.3085728,40.0170296 35.0363636,40.2876984 C35.3598544,41.3755491 35.6046519,42.4856017 35.7688312,43.609127 C35.7688312,43.9781746 34.5480519,46.0079365 34.1207792,48.5297619 C33.6935065,51.0515873 33.9987013,55.3571429 34.7922078,55.4186508 C35.1420759,55.4261881 35.4912907,55.3847883 35.8298701,55.2956349 C35.7617746,55.1836129 35.7200166,55.0573761 35.7077922,54.9265873 C34.7922078,52.4047619 35.0974026,49.8829365 35.6467532,47.2996032 C35.9519481,45.9464286 37.4779221,38.3194444 33.9376623,38.9960317 Z" id="Path" fill="#010101" opacity="0.06"></path>
                    <path d="M12.3298701,4.92063492 C8.97272727,7.19642857 15.4428571,17.5912698 16.1142857,18.6984127 L18.6168831,5.10515873 C18.6168831,5.10515873 15.625974,2.58333333 12.3298701,4.92063492 Z" id="Path" fill="#403F3E"></path>
                    <path d="M17.3350649,5.04365079 L17.5181818,13.7162698 C17.5792208,17.7142857 23.5,21.4047619 26.0025974,21.343254 C28.5051948,21.281746 31.374026,17.468254 31.312987,13.4702381 L31.1298701,4.79761905 L17.3350649,5.04365079 Z" id="Path" fill="#CA987A"></path>
                    <path d="M24.6597403,0.430555556 L22.0961039,0.430555556 C18.861039,0.430555556 15.625974,3.62896825 15.4428571,6.82738095 C15.1376623,14.0238095 19.0441558,17.1607143 19.0441558,17.1607143 C19.0441558,17.1607143 17.8233766,13.6547619 19.3493506,11.4404762 C19.4103896,11.3174603 20.325974,12.4861111 20.387013,11.7480159 C20.4023402,10.2277412 21.5177754,8.94689796 23.0116883,8.73412698 C24.9196048,8.48412799 26.7183544,7.69512703 28.2,6.45833333 C28.6340224,6.9656606 29.125706,7.41983347 29.6649351,7.81150794 C30.4403621,8.294819 31.2575365,8.70654549 32.1064935,9.04166667 C32.0454545,5.84325397 32.3506494,0.0615079365 24.6597403,0.430555556 Z" id="Path" fill="#403F3E"></path>
                    <path d="M17.3350649,10.9484127 C16.8467532,11.3174603 17.5181818,14.8849206 19.3493506,14.7003968 L19.4714286,11.625 C19.4714286,11.625 18.1896104,10.2103175 17.3350649,10.9484127 Z" id="Path" fill="#CA987A"></path>
                </g>
                <polygon id="Path" fill="#F5D85B" points="58.0311927 1 41 1 47.2385321 23 58.0311927 23 68.7614679 23 75 1"></polygon>
                <polygon id="Path" fill="#F5E395" points="58.0311284 1 50 1 52.92607 23 58.0311284 23 63.07393 23 66 1"></polygon>
                <rect id="Rectangle" fill="#C5C5C4" x="51" y="128" width="15" height="35"></rect>
                <rect id="Rectangle" fill="#C5C5C4" x="54" y="22" width="8" height="103"></rect>
                <rect id="Rectangle" fill="#747474" x="51" y="122" width="15" height="6"></rect>
                <rect id="Rectangle" fill="#747474" x="52" y="41" width="12" height="6"></rect>
                <path d="M67.0777044,160.000326 L49.9222956,160.000326 C48.3466902,159.98361 46.8308073,160.610347 45.7166249,161.739148 C44.6024426,162.867949 43.9838219,164.403722 44.0003218,166 L72.9996782,166 C73.0161781,164.403722 72.3975574,162.867949 71.2833751,161.739148 C70.1691927,160.610347 68.6533098,159.98361 67.0777044,160.000326 Z" id="Path" fill="#747474"></path>
                <path d="M50.6353276,26 L65.3646724,26 C67.3724084,26 69,24.209139 69,22 L47,22 C47,24.209139 48.6275916,26 50.6353276,26 Z" id="Path" fill="#747474"></path>
                <path d="M77.9999998,2.02816901 C77.9999998,3.1171812 77.0314875,4 75.8367669,4 L41.1632331,4 C39.9685125,4 39.0000002,3.1171812 39.0000002,2.02816901 L39.0000002,2.02816901 C38.9995351,0.929679743 39.9585805,0.0305135114 41.1632331,0 L75.8367669,0 C77.0414195,0.0305135114 78.0004649,0.929679743 77.9999998,2.02816901 L77.9999998,2.02816901 Z" id="Path" fill="#747474"></path>
                <path d="M21.6962267,68.0719532 C19.2303904,68.5513155 17.6147784,70.92929 18.0797386,73.3949617 C18.5720625,75.8174601 20.9289389,77.3895792 23.3579836,76.9157361 C25.7870283,76.441893 27.3784183,74.0995703 26.9219151,71.6700843 C26.4654118,69.2405983 24.1320034,67.6339373 21.6962267,68.0719532" id="Path" fill="#157ABF"></path>
                <path d="M19.904897,59.2842667 C15.1370305,60.1967909 11.1516833,63.4308138 9.30126123,67.8888876 C8.87932355,68.5759815 8.90221838,69.4449037 9.35976178,70.1091447 C9.81730518,70.7733857 10.6244901,71.1095361 11.4222687,70.9680713 C12.2200473,70.8266064 12.8602002,70.233809 13.0579779,69.4533641 C14.3372961,66.3499278 17.0592422,64.0602862 20.3522074,63.3176174 C23.6451725,62.5749487 27.095988,63.4724357 29.5996498,65.7226893 C30.1307717,66.1833986 30.8622887,66.3423087 31.5386003,66.1438945 C31.9064811,66.0251431 32.2393814,65.8185227 32.5080756,65.5421728 C33.2286252,64.6839736 33.1488446,63.4163327 32.326299,62.6539084 C28.9581269,59.6382427 24.3491709,58.3879386 19.904897,59.2842667" id="Path" fill="#157ABF"></path>
                <path d="M17.3767414,50.4820044 C10.5784443,51.7390762 3.84194979,56.707503 0.257393095,63.0527227 C-0.00690685144,63.5127098 -0.0707162919,64.0558489 0.0801272119,64.561591 C0.230970716,65.0673331 0.583988348,65.4938397 1.06082822,65.746448 C2.06858365,66.2849365 3.33606219,65.9379924 3.90375249,64.9682607 C6.93208487,59.6406706 12.5561307,55.5102917 18.1801766,54.4328016 C23.8042224,53.3553114 29.1810574,54.4926621 33.630852,57.8448537 C34.1507892,58.2515863 34.8434798,58.3857709 35.484933,58.204017 C36.2348851,57.9929655 36.8021265,57.3964767 36.9577802,56.6552287 C37.1134339,55.9139807 36.8318193,55.1502687 36.2265654,54.6722438 C30.7879277,50.541865 24.4222494,49.165072 17.3767414,50.4820044" id="Path" fill="#157ABF"></path>
            </g>
        </g>
    </g>
</svg>