<svg height="400" viewBox="0 0 1200 400" width="1200" xmlns="http://www.w3.org/2000/svg" xmlns:xlink="http://www.w3.org/1999/xlink"><defs><path id="a" d="m.664 241.679v184h1239v-184z"/><filter id="b" height="158.7%" width="108.7%" x="-3.6%" y="-28.3%"><feMorphology in="SourceAlpha" operator="dilate" radius="7" result="shadowSpreadOuter1"/><feOffset dx="9" dy="2" in="shadowSpreadOuter1" result="shadowOffsetOuter1"/><feGaussianBlur in="shadowOffsetOuter1" result="shadowBlurOuter1" stdDeviation="9.5"/><feColorMatrix in="shadowBlurOuter1" type="matrix" values="0 0 0 0 0.628368433   0 0 0 0 0.628368433   0 0 0 0 0.628368433  0 0 0 0.5 0"/></filter><path id="c" d="m837.113984 190.180954c0 1.604904-.327663 2.888808-.982999 3.85175s-1.785439 1.872374-3.390343 2.728323l-1.965997 1.00306c-.561717.294233-.976311.621896-1.243795.982999s-.401224.755636-.401224 1.183611c0 .374477.046809.735575.140429 1.083305.093619.347729.24742.735575.461407 1.163549l-4.01224.200612c-.401226-.401226-.715515-.849255-.942876-1.3441-.227361-.494846-.34104-1.063241-.34104-1.705202 0-.909446.234045-1.718573.702142-2.427405.468097-.708833 1.250476-1.38422 2.34716-2.026182l2.126487-1.163549c.829201-.481471 1.404283-.936187 1.725263-1.364162.320981-.427974.481469-.936186.481469-1.524651 0-.615213-.307602-1.136799-.922815-1.564774-.615213-.427974-1.538019-.641958-2.768446-.641958-.936194 0-1.865687.093618-2.788506.280857-.92282.187239-1.879061.468093-2.868752.84257v-4.373341c1.123433-.427975 2.246849-.748951 3.370282-.962938 1.123432-.213987 2.313718-.320979 3.570893-.320979 2.300363 0 4.159349.561708 5.577014 1.685141 1.417665 1.123432 2.126487 2.594572 2.126487 4.413464zm-12.518189 17.292754c0-.989691.274167-1.825566.822509-2.50765.548343-.682084 1.35747-1.023121 2.427406-1.023121 1.043187 0 1.852314.300915 2.427405.902754.57509.601839.862631 1.477836.862631 2.628017 0 .962942-.274167 1.772069-.822509 2.427405s-1.357469.982999-2.427405.982999c-1.043188 0-1.852315-.287541-2.427405-.862632-.575091-.57509-.862632-1.424339-.862632-2.547772z"/></defs><g fill="none"><g transform="translate(-17)"><path d="m17 0v400h1200v-400z" fill="#ddeff8"/><use fill="#000" filter="url(#b)" xlink:href="#a"/><use fill="#bcdff1" xlink:href="#a"/></g><path d="m667.789 151h-7.137l1.911-25.584h6.63c3.406017 0 6.161989.99449 8.268 2.9835s3.159 4.699483 3.159 8.1315c0 4.758024-1.176488 8.358988-3.5295 10.803s-5.453481 3.666-9.3015 3.666zm.975-23.088h-3.471l-1.521 20.592h4.329c2.730014 0 4.985491-.942491 6.7665-2.8275s2.6715-4.77748 2.6715-8.6775c0-2.834014-.786492-5.056992-2.3595-6.669s-3.711486-2.418-6.4155-2.418zm25.74 17.082.975-10.842c-.338002-.078-.727998-.1365-1.17-.1755s-.870998-.0585-1.287-.0585c-1.456007 0-2.814494.896991-4.0755 2.691s-1.8915 4.432983-1.8915 7.917c0 1.586008.227498 2.697497.6825 3.3345s1.007497.9555 1.6575.9555c.676003 0 1.462496-.318497 2.3595-.9555s1.813495-1.592494 2.7495-2.8665zm1.638-13.104 2.34-.39-1.755 19.5h-2.691l.312-3.12h-.117c-.858004 1.196006-1.767995 2.073497-2.73 2.6325s-1.975995.8385-3.042.8385c-1.274006 0-2.307496-.500495-3.1005-1.5015s-1.1895-2.710488-1.1895-5.1285c0-4.238021.929491-7.487989 2.7885-9.75s3.958488-3.393 6.2985-3.393c.572003 0 1.091998.026 1.56.078s.909998.129999 1.326.234zm6.084 2.262v-2.223h2.223l.39-4.095 2.769-.429-.468 4.524h3.939l-.234 2.223h-3.939l-1.131 11.193c-.130001 1.352007-.045501 2.268498.2535 2.7495s.773497.7215 1.4235.7215c.494002 0 .929498-.039 1.3065-.117s.851497-.207999 1.4235-.39v2.457c-.650003.234001-1.215498.39-1.6965.468s-1.111496.117-1.8915.117c-1.326007 0-2.307497-.441996-2.9445-1.326s-.851501-2.378989-.6435-4.485l1.17-11.388zm21.294 10.842.975-10.842c-.338002-.078-.727998-.1365-1.17-.1755s-.870998-.0585-1.287-.0585c-1.456007 0-2.814494.896991-4.0755 2.691s-1.8915 4.432983-1.8915 7.917c0 1.586008.227498 2.697497.6825 3.3345s1.007497.9555 1.6575.9555c.676003 0 1.462496-.318497 2.3595-.9555s1.813495-1.592494 2.7495-2.8665zm1.638-13.104 2.34-.39-1.755 19.5h-2.691l.312-3.12h-.117c-.858004 1.196006-1.767995 2.073497-2.73 2.6325s-1.975995.8385-3.042.8385c-1.274006 0-2.307496-.500495-3.1005-1.5015s-1.1895-2.710488-1.1895-5.1285c0-4.238021.929491-7.487989 2.7885-9.75s3.958488-3.393 6.2985-3.393c.572003 0 1.091998.026 1.56.078s.909998.129999 1.326.234zm22.62-4.134h-.273l-5.07 14.118h7.956zm2.379-2.34 5.07 25.584h-3.237l-1.248-6.63h-9.321l-2.301 6.63h-3.12l9.828-25.584zm18.876 19.578.975-10.842c-.338002-.078-.727998-.1365-1.17-.1755s-.870998-.0585-1.287-.0585c-1.456007 0-2.814494.896991-4.0755 2.691s-1.8915 4.432983-1.8915 7.917c0 1.586008.227498 2.697497.6825 3.3345s1.007497.9555 1.6575.9555c.676003 0 1.462496-.318497 2.3595-.9555s1.813495-1.592494 2.7495-2.8665zm1.638-13.104 2.34-.39-1.755 19.695c-.234001 2.626013-1.078993 4.510994-2.535 5.655s-3.15899 1.716-5.109 1.716c-.988005 0-1.904496-.039-2.7495-.117s-1.761495-.207999-2.7495-.39v-2.691c.962005.260001 1.871996.454999 2.73.585s1.715996.195 2.574.195c1.482007 0 2.658496-.383496 3.5295-1.1505s1.397499-2.008491 1.5795-3.7245l.351-3.393h-.117c-.884004 1.196006-1.800495 2.073497-2.7495 2.6325s-1.956495.8385-3.0225.8385c-1.274006 0-2.307496-.500495-3.1005-1.5015s-1.1895-2.710488-1.1895-5.1285c0-4.238021.929491-7.487989 2.7885-9.75s3.958488-3.393 6.2985-3.393c.572003 0 1.091998.026 1.56.078s.909998.129999 1.326.234zm5.811 12.402c0-4.290021.857991-7.48149 2.574-9.5745s3.56199-3.1395 5.538-3.1395c1.586008 0 2.807996.389996 3.666 1.17s1.287 1.858993 1.287 3.237c0 2.184011-.922991 3.964993-2.769 5.343s-4.341984 2.067-7.488 2.067c0 2.132011.337997 3.568496 1.014 4.3095s1.637994 1.1115 2.886 1.1115c.884004 0 1.735496-.116999 2.5545-.351s1.644496-.571998 2.4765-1.014v2.535c-.910005.494002-1.806996.844999-2.691 1.053s-1.923994.312-3.12.312c-1.898009 0-3.360495-.558994-4.3875-1.677s-1.5405-2.911988-1.5405-5.382zm10.179-7.956c0-.780004-.207998-1.364998-.624-1.755s-1.000996-.585-1.755-.585c-.962005 0-1.936995.591494-2.925 1.7745s-1.611999 2.996488-1.872 5.4405c2.288011 0 4.055994-.474495 5.304-1.4235s1.872-2.099493 1.872-3.4515zm15.6 14.664 1.209-12.597c.156001-1.560008.045502-2.638997-.3315-3.237s-.890497-.897-1.5405-.897c-.572003 0-1.306496.246998-2.2035.741s-1.943494 1.260995-3.1395 2.301l-1.248 13.689h-2.769l1.716-18.915 2.769-.351-.273 2.925h.117c1.118006-1.118006 2.144995-1.910998 3.081-2.379s1.845996-.702 2.73-.702c1.352007 0 2.391996.487495 3.12 1.4625s.988001 2.619488.78 4.9335l-1.248 13.026zm18.291-6.006 1.014-10.842c-.338002-.078-.734498-.1365-1.1895-.1755s-.890498-.0585-1.3065-.0585c-1.456007 0-2.814494.896991-4.0755 2.691s-1.8915 4.432983-1.8915 7.917c0 1.586008.227498 2.697497.6825 3.3345s1.007497.9555 1.6575.9555c.676003 0 1.462496-.318497 2.3595-.9555s1.813495-1.592494 2.7495-2.8665zm4.719-21.333-2.496 27.339h-2.691l.312-3.12h-.117c-.884004 1.196006-1.800495 2.073497-2.7495 2.6325s-1.956495.8385-3.0225.8385c-1.274006 0-2.307496-.500495-3.1005-1.5015s-1.1895-2.710488-1.1895-5.1285c0-4.238021.929491-7.487989 2.7885-9.75s3.958488-3.393 6.2985-3.393c.494002 0 .942498.0195 1.3455.0585s.773498.0975 1.1115.1755l.702-7.8zm13.221 21.333.975-10.842c-.338002-.078-.727998-.1365-1.17-.1755s-.870998-.0585-1.287-.0585c-1.456007 0-2.814494.896991-4.0755 2.691s-1.8915 4.432983-1.8915 7.917c0 1.586008.227498 2.697497.6825 3.3345s1.007497.9555 1.6575.9555c.676003 0 1.462496-.318497 2.3595-.9555s1.813495-1.592494 2.7495-2.8665zm1.638-13.104 2.34-.39-1.755 19.5h-2.691l.312-3.12h-.117c-.858004 1.196006-1.767995 2.073497-2.73 2.6325s-1.975995.8385-3.042.8385c-1.274006 0-2.307496-.500495-3.1005-1.5015s-1.1895-2.710488-1.1895-5.1285c0-4.238021.929491-7.487989 2.7885-9.75s3.958488-3.393 6.2985-3.393c.572003 0 1.091998.026 1.56.078s.909998.129999 1.326.234zm25.155-6.825c2.626013 0 4.770992.99449 6.435 2.9835s2.496 4.725483 2.496 8.2095c0 4.862024-1.189488 8.592987-3.5685 11.193s-5.115485 3.9-8.2095 3.9c-2.652013 0-4.803492-.870991-6.4545-2.613s-2.4765-4.393982-2.4765-7.956c0-5.096025 1.130989-8.989487 3.393-11.6805s5.056983-4.0365 8.385-4.0365zm-.507 2.691c-2.184011 0-4.088492 1.065989-5.7135 3.198s-2.4375 5.21298-2.4375 9.243c0 3.120016.584994 5.316994 1.755 6.591s2.690991 1.911 4.563 1.911c2.02801 0 3.893491-.98149 5.5965-2.9445s2.5545-4.90748 2.5545-8.8335c0-3.250016-.584994-5.589993-1.755-7.02s-2.690991-2.145-4.563-2.145zm15.912 23.244-3.315-19.071h2.964l2.535 16.536h.156l1.053-2.145c.962005-1.95001 1.780997-4.049489 2.457-6.2985s1.260998-4.946484 1.755-8.0925h2.886c-.494002 3.016015-1.156996 5.732988-1.989 8.151s-1.832994 4.731989-3.003 6.942l-2.106 3.978zm11.973-6.708c0-4.290021.857991-7.48149 2.574-9.5745s3.56199-3.1395 5.538-3.1395c1.586008 0 2.807996.389996 3.666 1.17s1.287 1.858993 1.287 3.237c0 2.184011-.922991 3.964993-2.769 5.343s-4.341984 2.067-7.488 2.067c0 2.132011.337997 3.568496 1.014 4.3095s1.637994 1.1115 2.886 1.1115c.884004 0 1.735496-.116999 2.5545-.351s1.644496-.571998 2.4765-1.014v2.535c-.910005.494002-1.806996.844999-2.691 1.053s-1.923994.312-3.12.312c-1.898009 0-3.360495-.558994-4.3875-1.677s-1.5405-2.911988-1.5405-5.382zm10.179-7.956c0-.780004-.207998-1.364998-.624-1.755s-1.000996-.585-1.755-.585c-.962005 0-1.936995.591494-2.925 1.7745s-1.611999 2.996488-1.872 5.4405c2.288011 0 4.055994-.474495 5.304-1.4235s1.872-2.099493 1.872-3.4515zm15.6-4.485-.351 2.73c-.208001-.026-.389999-.0455-.546-.0585s-.350999-.0195-.585-.0195c-.728004 0-1.494996.337997-2.301 1.014s-1.572996 1.611994-2.301 2.808l-1.092 12.675h-2.769l1.599-18.915 2.769-.351-.351 3.588h.156c.884004-1.560008 1.657497-2.573998 2.3205-3.042s1.384496-.702 2.1645-.702c.234001 0 .461499.0195.6825.0585s.422499.110499.6045.2145zm11.154 19.149 1.209-12.597c.130001-1.560008.019502-2.638997-.3315-3.237s-.851497-.897-1.5015-.897c-.598003 0-1.351995.246998-2.262.741s-1.949994 1.260995-3.12 2.301l-1.248 13.689h-2.769l2.457-26.988 2.808-.351-1.053 10.998h.117c1.118006-1.092005 2.144995-1.878498 3.081-2.3595s1.845996-.7215 2.73-.7215c1.352007 0 2.391996.487495 3.12 1.4625s.988001 2.619488.78 4.9335l-1.248 13.026zm7.839-6.708c0-4.290021.857991-7.48149 2.574-9.5745s3.56199-3.1395 5.538-3.1395c1.586008 0 2.807996.389996 3.666 1.17s1.287 1.858993 1.287 3.237c0 2.184011-.922991 3.964993-2.769 5.343s-4.341984 2.067-7.488 2.067c0 2.132011.337997 3.568496 1.014 4.3095s1.637994 1.1115 2.886 1.1115c.884004 0 1.735496-.116999 2.5545-.351s1.644496-.571998 2.4765-1.014v2.535c-.910005.494002-1.806996.844999-2.691 1.053s-1.923994.312-3.12.312c-1.898009 0-3.360495-.558994-4.3875-1.677s-1.5405-2.911988-1.5405-5.382zm10.179-7.956c0-.780004-.207998-1.364998-.624-1.755s-1.000996-.585-1.755-.585c-.962005 0-1.936995.591494-2.925 1.7745s-1.611999 2.996488-1.872 5.4405c2.288011 0 4.055994-.474495 5.304-1.4235s1.872-2.099493 1.872-3.4515zm7.566-10.413c0-.598003.175498-1.072498.5265-1.4235s.812497-.5265 1.3845-.5265c.494002 0 .870999.136499 1.131.4095s.39.656498.39 1.1505c0 .520003-.168998.968498-.507 1.3455s-.805997.5655-1.404.5655c-.442002 0-.805999-.129999-1.092-.39s-.429-.636998-.429-1.131zm2.535 5.811-1.755 19.266h-2.769l1.716-18.915zm14.001 13.26 1.014-10.842c-.338002-.078-.734498-.1365-1.1895-.1755s-.890498-.0585-1.3065-.0585c-1.456007 0-2.814494.896991-4.0755 2.691s-1.8915 4.432983-1.8915 7.917c0 1.586008.227498 2.697497.6825 3.3345s1.007497.9555 1.6575.9555c.676003 0 1.462496-.318497 2.3595-.9555s1.813495-1.592494 2.7495-2.8665zm4.719-21.333-2.496 27.339h-2.691l.312-3.12h-.117c-.884004 1.196006-1.800495 2.073497-2.7495 2.6325s-1.956495.8385-3.0225.8385c-1.274006 0-2.307496-.500495-3.1005-1.5015s-1.1895-2.710488-1.1895-5.1285c0-4.238021.929491-7.487989 2.7885-9.75s3.958488-3.393 6.2985-3.393c.494002 0 .942498.0195 1.3455.0585s.773498.0975 1.1115.1755l.702-7.8z" fill="#000"/><path d="m679.784 102-10.36-29.68h-.336v29.68h-6.44v-36.736h11.088l10.416 29.68h.336v-29.68h6.44v36.736zm20.384 0v-36.736h7.28v30.8h12.432v5.936zm46.816 0h-10.36v-36.736h10.696c6.309365 0 11.143983 1.5213181 14.504 4.564s5.04 7.2893061 5.04 12.74c0 6.6453666-1.782649 11.5453176-5.348 14.7-3.565351 3.154682-8.409303 4.732-14.532 4.732zm-3.08-30.8v24.864h3.416c3.584018 0 6.458656-1.0266564 8.624-3.08s3.248-5.41331 3.248-10.08c0-3.7706855-1.110656-6.6639899-3.332-8.68s-5.217314-3.024-8.988-3.024zm37.52-5.936v36.736h-7.28v-36.736zm24.472 24.024v-5.936h12.376v17.976c-1.829342.373335-3.649324.643999-5.46.812s-3.705323.252-5.684.252c-5.562694 0-10.033316-1.483985-13.412-4.452-3.378684-2.9680148-5.068-7.3639709-5.068-13.188 0-6.6453666 1.903981-11.6199835 5.712-14.924s8.605304-4.956 14.392-4.956c1.680008 0 3.173327.0559994 4.48.168s2.613327.2986654 3.92.56l-.504 6.16c-1.530674-.2240011-2.911994-.373333-4.144-.448s-2.557326-.112-3.976-.112c-3.696018 0-6.654656 1.0919891-8.876 3.276s-3.332 5.3853122-3.332 9.604c0 4.0693537 1.073323 7.1493229 3.22 9.24s4.750651 3.136 7.812 3.136c.784004 0 1.446664-.0186665 1.988-.056s1.18533-.093333 1.932-.168v-6.944zm27.608-24.024v36.736h-7.28v-36.736zm23.184 5.936v30.8h-7.28v-30.8h-10.08v-5.936h27.44v5.936zm28.392 17.08-4.536-16.968h-.392l-4.536 16.968zm1.232-23.016 10.696 36.736h-8.4l-2.016-7.896h-12.432l-2.016 7.896h-7.56l10.752-36.736zm32.48 23.016-4.536-16.968h-.392l-4.536 16.968zm1.232-23.016 10.696 36.736h-8.4l-2.016-7.896h-12.432l-2.016 7.896h-7.56l10.752-36.736zm16.016 36.736v-36.736h7.28v30.8h12.432v5.936z" fill="#007bc7"/><path d="m.8 0v400h1200v-400z" fill="#ddeff8"/><path d="m.8 239.6v160.4h1200v-160.4z" fill="#bcdff1"/><path d="m251.7 219.1-26.9 29.4 3.6-59.9 22-6.5z" fill="#616f7a"/><path d="m251.1 176.1s-2.6-1.9-8.1-2.5c-5.6-.6-8.4.4-8.4.4l-.7-9.1 2.1-8.8 12.9 2.2 2.3 9.6v8.2z" fill="#e0b514"/><path d="m235.2 309.8c-.1 1.6-1.1 3.1-1.5 4-.5 1-.4 2.6.1 3.1 1.3 1.2 2.8.8 4.4 1.8s3.9 4.5 5.3 4.8c1.3.3 4.4.2 4.5-.4.2-.6-3-2.9-3-2.9-4.8-5.9-5.3-8.9-5.3-8.9s-4.5-1.8-4.5-1.5" fill="#f5a37e"/><path d="m245 320s.9.8.8 1c-.2.3-1.6.2-1.9 0-3.2-1.6-7.5-5.2-8.4-6.2-.9-1.1-1-2.4-1-2.4-.3 0-1.4 1.8-1.1 3.2.1.3.4 1.1.6 1.2.7.7 3.2 1.9 3.9 2.3 1.6 1 3.8 4.5 5.1 4.8s5.8.2 6-.4c-.1-.4-2.5-2.5-4-3.5" fill="#502819"/><path d="m233.2 315.4s.9 2.5 1.2 3.4c.4 1.3.7 4 .7 4h.6s-.8-5.2 2-3.6c.9.4-4.5-3.8-4.5-3.8" fill="#502819"/><path d="m246.6 272.8c-4.5 2.3-7.9 10.8-8.7 14.2s-2.4 22.7-2.9 23.9c-.4 1.2 4.4 1.2 4.6.5 1.7-6.9 9.1-24.2 9.9-25.9s4.2-9.5 4.5-10.3c1.3-4.1-4.9-3.7-7.4-2.4" fill="#f5a37e"/><path d="m272.6 240.7s.1 1.9 0 2.3c-.1.5-.4 1-.6 1.5-.2.4-.1 1.2 0 1.3.3.3.8-.3.9-.7.2-.4.6-1.2.7-1.7s.5-1.9.4-2.3c-.2-.4-1.4-.4-1.4-.4" fill="#f5a37e"/><path d="m272.7 240.1s-.4 1.7-.6 2.1-.5.4-1 .7c-.4.3-.8.7-.7 1.1s.7 0 1-.1c.4-.2 1.1-.7 1.4-1.2s.9-1.5 1-1.9c0-.4-1.1-.7-1.1-.7" fill="#f5a37e"/><path d="m272.6 239.8s-.6 1.3-.8 1.6-.5.3-.9.5c-.3.2-.8.5-.7.8 0 .3.6.1.9.1.4-.1 1-.4 1.3-.8.3-.3 1-1.1 1.1-1.5 0-.2-.9-.7-.9-.7" fill="#f5a37e"/><path d="m268.8 244c.2.2.7-.1 1.1-.6s.4-1.6.3-2.2 0-1.4.4-1.5 1.9.6 2.1 1c.4.7 1 1.7 1 2.2s-.4 1.6-.5 2c-.2.5-.4 1.1-.3 1.5s.3.4.5.5.3-.8.7-1.4 1.1-2.2 1.2-2.4c0-.1-.3-2.5-.5-3.2-.1-.7-2.4-3.6-2.4-3.8 0-.3-2.2-5.1-2.2-5.1l-3.9 1s2.1 3.4 2.1 4-.2 1.4-.3 2.1c-.2 1.2.4 2.7.6 3.3.3 1.1-.2 2.3.1 2.6" fill="#f5a37e"/><path d="m230.3 307.8s.3 2.3-.3 3.7c-.6 1.3-2.9 4.1-4 3.8s-2.3-3.4-2.4-3.9c-.8-3 1-7.9 1-7.9z" fill="#8e3c26"/><path d="m252.1 183.3c2.4-.3 5 6.8 5.9 14.6 1.5 13.5 3.9 17.7-.2 18.7-3.7.8-4.6-4.7-7.4-16-2.2-9-3.2-16.6 1.7-17.3" fill="#f5a37e"/><path d="m221.3 179.9c1.2-1.8 7-1.8 9.2-2.1s8.5.6 8.5.6 6.2 1.3 8.2 2.3 7.4 3 7.9 5.1c.8 3.2-11.2 18-7.2 28.4 1.3 3.4 9.2 12.6 9.2 16.3 0 4.5-13.3 10.9-13.3 10.9l-.8.2-.8.2s-14.7 1.1-17-2.8c-1.8-3.2 1.8-19.3 1.4-23.7-1.3-11.4-7.2-32.7-5.3-35.4" fill="#f8bc96"/><path d="m257 231.2c1.9 2.9 2.2 8.3 1.9 15.4-.4 9.7-3.7 24-4 25.4-1.3 6.4-7.5 6.6-8.8 1.7-.4-1.3-3.6-28.6-3.5-31.7s0-8.7 2-12.3c1.5-2.6 9.6-2.8 12.4 1.5" fill="#f5a37e"/><path d="m235 174.4c.9-1.5 1.9-7.7 1.9-7.7l3.9.7 3.9.7s-1.2 6.2-.8 7.9c.3 1.8 3.1 4.7 3.1 4.7l-8.3-1.5-8.3-1.5c0 .1 3.7-1.8 4.6-3.3" fill="#f8bc96"/><path d="m256.5 211.1c2-.7 6 1.7 8.8 8.1 3.1 7.4 7.8 17.9 6.1 18.7-.8.4-1.9-.3-2.7-1.8-1.6-3.3-6-8-9.1-12.2-4.8-6.5-7-11.4-3.1-12.8" fill="#f5a37e"/><path d="m235 174.4 1.1-3.5c.3-1.1.5-2.3.6-3.1l3.8-.4.3.1 3.9.7s-1.2 6.2-.8 7.9c.3 1.8 3.1 4.7 3.1 4.7s-5.2-2.3-6.1-2.8c-.9-.7-5.9-3.6-5.9-3.6" fill="#f5a37e"/><path d="m250.2 163.9c-1.1 6.2-7.3 10.2-10.4 9.7s-6.3-6.3-5.8-12.7c.5-6.3 4.9-9.6 9.6-8.8 4.6.9 7.7 5.6 6.6 11.8" fill="#f8bc96"/><path d="m238.8 156.4c.6 1.7 2.3 2.8 6.1 3.2 2.7.3 4.4 4 4.3 5.5 0 .6 1.9 11 1.9 11s3.2-13.2-1.8-20.5-11.5-3.3-11.6-2.7c0 .6.8 2.6 1.1 3.5" fill="#e7c352"/><path d="m240.3 154.9s0 2.6-2.3 3.1c-4.2.8-3.5 16-3.5 16s-4.5-19 3.1-21.1c4.5-1.2 2.7 2 2.7 2" fill="#e7c352"/><path d="m231 301.4s-.6 6.7-.9 7.4-2.2 3.1-3.2 2.7c-2.8-1.1-2.9-6.9-2.1-8.5.5-.9.9-2 1.3-2.6 1-1.8 1.8-2.5 1.8-2.5z" fill="#f8bc96"/><path d="m247.5 269.2c2.6 2.4 2.7 4.6-1.1 11-3.8 6.5-15.6 22.8-16.4 22.2-.8-.5-3.8-2.9-2.2-4.8 1-1.3 1.2-3.7 2.6-7.4 2.4-6.4 5.6-14.5 6.4-15.9 1.2-2.1 6.5-8.9 10.7-5.1" fill="#f8bc96"/><path d="m224.7 235.3c-.7 3.4.8 8.5 3.6 15.1 3.8 8.9 11.9 21.2 12.6 22.4 3.4 5.5 9.3 3.5 8.8-1.5-.1-1.4-6.7-28-7.9-30.9-1.2-2.8-3.1-8.2-6.2-10.8-2.2-2-9.8.7-10.9 5.7" fill="#f8bc96"/><path d="m250.4 182.1v14.9s-3.5 10.2-2.1 15.3c1.3 5.1 6.9 10.8 10.1 17.8s0 29.9 0 29.9-8.5 2.7-11.2-.1-6.8-1.8-8.3-.7-5.4 4.9-5.4 4.9-7.7-12.4-9.4-24.1c-1.3-9.3 2.2-21 1.5-25.7s-3.5-23.8-3.5-23.8 4 .4 8.4.6c.7 0 0-3.1-.6-6.1-.7-3.1-1.3-6.1-.7-6.1 3.1 0 4.2 13.4 11.9 11.6 5.8-1.3 5.7-10.2 5.7-10.2z" fill="#5182b0"/><path d="m228.4 201c.9-.6 4.1.1 7.6.7 3.3.6 6.9 1.2 8.9.8 3.4-.7 4.8-3.8 5.2-5.1-.7 2.2-3.1 10.4-2 14.7 1.3 5.1 6.9 10.8 10.1 17.8s0 29.9 0 29.9-8.5 2.7-11.2-.1l-.2-.1-4.8-14.2s7.8 2.3 7.7-4.5-6.8-22.1-8.8-26.1c-1.8-4-14.2-12.6-12.5-13.8" fill="#026a9d"/><path d="m230.4 177.8s2.1 5.8 2.8 9.9c.7 4-6.5 36.8-7.7 43.6s-.8 17.3-.8 17.3l-4-3.9s2.8-17.6 2.8-27.3c-.1-9.7-4-33.4-3.2-36.5.7-3.3 10.1-3.1 10.1-3.1" fill="#9aa3aa"/><path d="m247.8 180.7s1.9 15.2 1.7 19 2.2 19.4 2.2 19.4 4-31.1 3.7-33.1c-.5-2.7-7.6-5.3-7.6-5.3" fill="#9aa3aa"/><path d="m222.9 179.1c-2.4-.3-5 6.8-5.9 14.6-1.5 13.5-3.9 17.7.2 18.7 3.7.8 4.6-4.7 7.4-16 2.2-9 3.2-16.7-1.7-17.3" fill="#f5a37e"/><path d="m216.5 207.5c1.8-1.2 6.3.1 10.5 5.6 4.9 6.3 12.1 15.3 10.6 16.6-.7.6-1.9.2-3-1.1-2.4-2.8-7.8-6.2-11.9-9.5-6.3-5.1-9.7-9.3-6.2-11.6" fill="#f8bc96"/><path d="m245.2 226.7c0-.4-7.3-3-11.5.4-.8.6 1.6 2.6 2.8 3.1.6.2 1.6.3 2.4-.5 3.3-3.1 6.2-1.5 6.3-3" fill="#f8bc96"/><path d="m236.8 226.9s1.4-.5 3.3-.7c.2 0 .5-.2.7-.2s.5.1.6.1.3-.1.4-.1c.2 0 .5.1.6.1.2 0 .4-.1.6-.1.6-.1.6.3.8.3h.8c.5.1 2 1.7 2.2 2.1.2.3 1.5 2 1.3 2.1-.1.2-.9.3-1.7-.5s-1.9-1.7-1.7-1.5c.1.2.5 1.6.5 2.2 0 .4-.4.5-.7.4-.2 0-.8-.9-.8-.9s-.4.7-.5.7c-.6 0-.8-.8-1-1-.1-.2-.3.7-.5.6-.9-.2-1.1-2.4-2-2.1-.6.1-2.5-.2-2.9-1.5" fill="#f8bc96"/><path d="m296.6 153.8s3-4.2 6.2-1.7 3 7.9 1.4 9.6-4.3 9.1-3.7 9.2c.5.1-.2 1.4-1.3 1.2-1.2-.2-4.4-1.6-3.3-5.3 1.2-3.7.3-6.6.3-6.6z" fill="#8e3c26"/><path d="m293.4 308.5c.2 1.8 1 2.9 1.5 3.8.6 1 .6 2.9.1 3.4-1.3 1.4-3 1.1-4.7 2.2-1.7 1.2-4 5.2-5.5 5.7-1.4.4-4.8.5-5-.2-.3-.7 3.1-3.5 3.1-3.5 4.8-6.8 5.2-9.9 5.2-9.9s5.3-1.8 5.3-1.5" fill="#f5a37e"/><path d="m282.9 320s-.9.9-.8 1.2c.3.4 1.8.1 2.1-.1 3.4-2 7.9-6.2 8.8-7.5s1-2.7 1-2.7c.3 0 1.7 1.9 1.5 3.5-.1.3-.4 1.2-.5 1.4-.8.8-3.4 2.3-4.1 2.8-1.7 1.2-3.8 5.2-5.3 5.7-1.4.4-6.4.7-6.6 0s2.4-3.1 3.9-4.3" fill="#1a1a1a"/><path d="m295.6 314s-.9 2.9-1.1 3.8c-.4 1.4-.5 4.5-.5 4.5h-.6s.5-5.8-2.4-3.9c-1 .7 4.6-4.4 4.6-4.4" fill="#1a1a1a"/><path d="m293.3 267.1c4 3.9 4.8 14 4.6 17.8-.2 3.9-4.8 24.2-4.6 25.6s-5.2.3-5.1-.5c.4-7.8-1.8-28.5-2.1-30.5s-1.4-11.4-1.4-12.3c-.1-4.7 6.3-2.3 8.6-.1" fill="#f5a37e"/><path d="m317.7 316.4s2 4.9 2 6.2-.6 4.4-1.7 4.6c-1 .1-3.5-2.2-3.8-2.6-1.8-2.2-1.8-6.6-1.8-6.6z" fill="#313131"/><path d="m316.6 313.6s1.6 3.7 2 6.7c.1.7-.4 3.4-1.4 3.5-2.7.1-4.9-4.6-4.8-6.3.1-1.6.2-3.4.2-3.4z" fill="#f8bc96"/><path d="m306.5 266.5c-3.5.7-4.4 3.2-2.7 13.6 1.3 7.9 6.3 25.8 8.6 34 .7 2.6.5 4.4.7 4.4 1 0 4-.1 4.3-2.4.1-.5-1.1-2.2-1.1-3.6 0-8.1-.1-28.7-.6-31.6-.4-3.5-3.5-15.5-9.2-14.4" fill="#f8bc96"/><path d="m283 177.9c-2.2-.8-6.2 5.7-8.6 13.1-4.1 13-8.1 15.1-3.6 17.5 5.5 2.9 5.6-2.8 10.6-13.4 3.8-8.3 6.3-15.6 1.6-17.2" fill="#90cbe8"/><path d="m280.7 229c-1.6 3-1.6 8.4-.7 15.5 1.1 9.6 4.3 24.9 4.7 26.3 1.8 6.2 7.9 6 8.8 1 .3-1.4 2.4-29 2-32-.3-3.1-2-8.7-4.2-12.1-1.7-2.6-8.1-3.1-10.6 1.3" fill="#f5a37e"/><path d="m308.8 229.3c2.2 2.6 3.2 7.9 3.8 15 .8 9.6.4 24.1.3 25.6-.5 6.5-7.8 7.5-9.7 2.9-.5-1.3-7-27.9-7.3-31s-1-8.7.5-12.4c1.1-2.9 9.1-4 12.4-.1" fill="#f8bc96"/><path d="m281.7 224.6c-1.1 2.9-2 5.6-1.6 7.1 1.1 4.4 14 8.1 14 8.1h.9v-14.2c-5 0-8.3-1-13.3-1" fill="#27557d"/><path d="m311 181.3c-.9-2-5.4-2.9-7.5-3.5s-8.4-.9-8.4-.9-10 1-12.1.9c-.9 0-1.6 3.3-1.9 4.2-2 5.3-4.3 11.4.6 15.7 1.1 1 2.1 12.1 2.1 17.2 0 2.1-.4 5.5-2 9.5 5 0 8.3 1 13.3 1h14.9c-1.5-4-3.2-8.4-3.6-10.6-3-15.6 5.9-30.5 4.6-33.5" fill="#90cbe8"/><path d="m295 225.6v14.2h.9s14.5-2.7 15.6-7.1c.4-1.5-.5-4.2-1.6-7.1z" fill="#27557d"/><path d="m299.6 173.8c-.6-1.7-.6-7.9-.6-7.9h-4-4s.1 6.3-.6 7.9c-.6 1.7-3.2 3.7-3.2 3.7l5.9 2.7 8.5-3.2s-1.4-1.6-2-3.2" fill="#f8bc96"/><path d="m299 168.9c-.1-1.7 0-3.1 0-3.1h-4-4s.1 6.3-.6 7.9c-.6 1.7-3.9 4.1-3.9 4.1z" fill="#f5a37e"/><path d="m302 163.3c-1.8 6-8.4 9.3-11.5 8.4-3-.9-5.5-7-4.3-13.3 1.3-6.1 6-8.9 10.6-7.5s7 6.4 5.2 12.4" fill="#f8bc96"/><path d="m291.6 154.5c.4 1.8 2 3.1 5.7 3.9 2.6.6 3.9 4.5 3.6 6-.1.6-1.1 3.2-1.1 3.2s6.5-4.7 2.3-12.5-11-4.6-11.1-4.1.4 2.6.6 3.5" fill="#8e3c26"/><path d="m293.4 153.3s-.3 2.6-2.6 2.8-4.6 1.7-4.6 1.7.4-6.1 4.9-6.8c4.4-.7 2.3 2.3 2.3 2.3" fill="#8e3c26"/><path d="m299.2 199.2c-1.3-.6-4.2-.4-11-.7-6.8-.4-7.8-3.8-8.8-5.3s-.1-6.4 0-6.6c-1.2 4-1.4 8.1 2.2 11.3 1.1 1 2.1 12.1 2.1 17.2 0 2.1-.4 5.5-2 9.5 3.2 0 5.7.4 8.3.7 0 0-.9-3.7-.9-5.7 0-7.4 14.7-2.3 16.4-5.4 1.6-3.2-5.8-10.9-5-12s.1-2.4-1.3-3" fill="#bacfed"/><path d="m292.4 178.1.7 2.1-3.7-1.6z" fill="#bacfed"/><path d="m293.1 180.2.8-2.1 2.2 1z" fill="#bacfed"/><path d="m281.7 224.6s-2.2 3.6-2.6 10.3c-.4 6.6 4.3 37.1 4.3 37.1l13.2.7 17.5-1.4s-.4-27.9-1.2-36.2-3.2-10.4-3.2-10.4l-15.8.6z" fill="#de5d3f"/><path d="m293.9 178.1 2.4 3.6 7.1-3.8-2.5-3.4z" fill="#e0f2fd"/><path d="m285.5 177.9 3.2-2.9 3.7 3.1-2.7 3.3z" fill="#e0f2fd"/><path d="m293.1 252.8c-.9 1.1-.5 9.4-1.9 11-1.5 1.7-3.7 1.4-5-1.5s-4.7-23.6-1.9-30.8c1.9-5.1 5.9-6.3 5.9-6.3l-.5-.2-7.8-.5s-2.2 3.6-2.6 10.3c-.4 6.6 4.3 37.1 4.3 37.1l13.2.7 2.8-.2s-3.1-.6-3.6-3.5c-1.2-5.6-2.1-17-2.9-16.1" fill="#d52d1e"/><path d="m309.3 179.8c2.7.3 3.8 7.8 2.7 15.4-1.9 13.3-.3 18-5.1 17.8-4.3-.2-3.8-5.6-4-17.2-.1-9 .8-16.6 6.4-16" fill="#90cbe8"/><path d="m280.005369 185.90376h20.000391v26.700522h-20.000391z" fill="#5182b0" transform="matrix(.99988047 -.01546099 .01546099 .99988047 -3.046001 4.507591)"/><path d="m283 186.2s1.2 9.2 4.7 13.4 12.3 5.5 12.3 5.5l.1 7.3-20 .3-.4-26.7z" fill="#026a9d"/><g fill="#f8bc96"><path d="m275.5 207.5c1.4-1.7.2-5.2-4.9-9.5-5.9-4.9-14.2-12-15.4-10.5-1.6 2.1 5.1 8.8 9.7 15 4.6 6.4 7.7 8.5 10.6 5"/><path d="m310.3 210.7c.6-2-3.5-5.6-9.6-7.2-7.1-1.9-17.2-4.9-17.6-3-.6 2.5 8 5.7 14.4 9.4 6.6 3.6 11.6 5 12.8.8"/><path d="m278.3 200.7c.1-.3.4-.5.8-.4l2.6.7c.3.1.5.4.4.8-.1.3-.4.5-.8.4l-2.6-.7c-.3-.1-.5-.5-.4-.8"/><path d="m278.5 199.5c.1-.3.4-.5.8-.4l2.6.7c.3.1.5.4.4.8-.1.3-.4.5-.8.4l-2.6-.7c-.3-.1-.5-.4-.4-.8"/><path d="m278.8 198.4c.1-.3.4-.5.8-.4l2.6.7c.3.1.5.4.4.8-.1.3-.4.5-.8.4l-2.6-.7c-.3-.1-.5-.4-.4-.8"/><path d="m279.1 197.4c.1-.3.4-.5.8-.4l2.6.7c.3.1.5.4.4.8-.1.3-.4.5-.8.4l-2.6-.7c-.3-.1-.5-.5-.4-.8"/><path d="m287.7 200.2s-3.1-2.4-3.9-2.7-4.2-.6-4.2-.6.7 1.3.4 2.1c-.3.7-1.3 2.5-1.3 2.5s2.4 1.1 3.7 1.4c2 .6 3.2.6 3.2.6z"/><path d="m259.3 189.4s-1.4-3.4-3.7-3.3-4.3 2.2-4.9 2.6c-2.3 1.5-5.7.5-7.3 1.1-1.6.7-1.3 1.7-.7 1.6 3.5-.2 5.7.7 7.2.4s7.4.2 7.4.2z"/><path d="m258 187.3s-2-1.7-3.5-1.9c-1.5-.1-2.9 1.3-4.2 1.4s-.8.7-.6.9c.1.2 1.7.1 2.5.1.6.1 3.7 1.9 5.8-.5"/></g><path d="m205.7 206.4c4 2.4 8.2-6.3 10-10.6s5.9-17.5 5.9-17.5l-4.6-2.3s-7.9 9.8-13.6 21.4c-.5 1.3-1.7 6.6 2.3 9" fill="#6d2f0f"/><path d="m163.3 328.7s2.9 5.4 2.4 6.5c-.3.7-2.4 2.8-5.4 2.3-2.3-.3-5.5-3.2-6.1-3.4-1.3-.4.2-7.6.2-7.6z" fill="#1a1a1a"/><path d="m183.3 180.6c-3.4 2.6-2.2 6.2.5 9.3 2.8 3.2 20.2 16.4 21.6 16.3s5.7-4.4 5.1-6.2-13.8-15.3-16.5-17.5c-2.8-2.2-6.8-4.9-10.7-1.9" fill="#6d2f0f"/><path d="m186.8 179.3c1.6-.1 5.6.2 10.2 4.9 3.1 3.1 8.8 9.2 8.8 9.2s-1 3.1-3.9 5.7c-3.3 3-6.5 3.5-6.5 3.5s-12.3-12.4-13.3-15.8c-.2-1.1.2-7.2 4.7-7.5" fill="#6b9c53"/><path d="m175.3 163s-.6 12.3-1.3 12.9c-2.2 1.8-10.3 3.4-11.8 6.6-1.8 3.9 8.1 21.5 9.4 27.2 1.3 5.8-1.4 14.8-2.3 20.4-.9 5.7 17 12.6 17.6 12.6.7 0 6.4-5.4 7.5-7.2 1.1-1.9.1-16.4.1-20.1s.9-16.7 1.1-17.6c1.1-5.7-.3-10.2-.5-11.4s-.1-3.2-.7-4c-1.2-1.5-7.9-3.6-8-4.3-.1-.8-1-11.4-1-11.4z" fill="#6d2f0f"/><path d="m174 175.8 10.8 6.5 1.6-4.2s7.1 2.2 8 3.8c.9 1.5 1.4 5.4 1.7 6.7.3 1.2.5 6.9 0 11.8-.3 2.9-.2 6.7-.7 11.6-.4 4.2.1 14.7.1 14.7s-4 .2-10.2-.2c-7.2-.4-14.5-1.5-14.8-1.8-1.4-1.1.6-12.3.3-13.5-.2-1.2-9.1-22.6-9.2-25.4s1.3-4.6 3.4-5.7c1.9-1.1 9-4.3 9-4.3" fill="#3a8835"/><path d="m165.9 179.5s-7 3.9-.1 9.3c3 2.3 17.4 6 20.1 6.8 9.7 3-5.3 24.4-6.4 26s-1.1 3.8-1.1 3.8l-9.3-1.1c-2.9.6 1.5-13.3.4-16.3s-8.1-20.1-8.1-22.4c0-4.9 4.5-6.1 4.5-6.1" fill="#6b9c53"/><path d="m185.7 171.3-10.9-4-.3 6.5 3.4 2z" fill="#4f2111"/><path d="m188.1 150.6c-2.8-2.4-11-4.4-14.7 1.1s-1.8 10.6.5 13.8c1.8 2.5 3.4 3.8 6.7 5.1.7.3 6.6 1.1 7.8.6.8-.3 1.2-6.2 1.4-6.2s.9-.4.9-.8c0-.7-.9-4.9-.7-5.4 0-.6 1.3-5.5-1.9-8.2" fill="#6d2f0f"/><path d="m189.8 153.1s-4.6-2.4-10 3c-1.2 1.2 1.3 5.8 1 6.2-.3.5-4.6-3.3-4.4-2.7 1.8 5.4.2 8.4-.3 8.5-1.5.2-6.4-7.3-4.4-13.6 2.1-6.3 8.7-7.2 10.3-6.9 1.5.2 6.4.4 7.8 5.5" fill="#36180e"/><path d="m179.1 160.7c.6 1.7.9 4 0 4.3s-2.2-.8-2.8-2.5-.3-3.3.6-3.7c.9-.3 1.6.1 2.2 1.9" fill="#6d2f0f"/><path d="m179.6 329.1h7v1.3h-7z" fill="#1a1a1a"/><path d="m179.9 319.9c-.9 1.3-1.5 3.8-1.6 4.9-.1 1.4.7 4.3 1.6 4.3 2.6 0 5.8.1 8.5.5s3.7 1.9 10.7 1.9c2 0 5.6-.1 5.6-1 0-3.6-6.7-2.3-8.8-4.3-5.4-4.9-8.9-6.1-8.9-6.1s-6.9-.4-7.1-.2" fill="#1a1a1a"/><path d="m183.2 225s-9.3 9.3-9.7 13.3 3.5 17 4.9 27.2 2.2 12.2 1.9 14.7c-.3 2.4-3.1 12.1-3 18.6.1 7.6-.3 23.1-.3 23.1s2 1.6 7.2 1.6c3.4 0 6.2-2.4 6.2-2.4s2.1-38 2.5-42c.3-2.6 2.4-20.4 3-35 .2-4.7-.9-18.1-.9-20z" fill="#026a9d"/><path d="m184.3 179.7.5 2.6-5.7-3.4z" fill="#bacfed"/><path d="m184.8 182.3.9-3.2 1.3 1.1z" fill="#bacfed"/><path d="m168.7 224.3s-3.7 9.1-5.2 15.2-3.2 37.6-3.8 40.5c-.5 3-2.4 12-3.8 20.9s-2.3 26.9-2.3 26.9l11.5 1.8s6.8-37.7 7.9-43.6 12.4-47.9 12.4-47.9l1.4-13.5z" fill="#5182b0"/><path d="m169.1 250c-1 4-3.8 31.4-4 32.9s-7.3 43.5-7.6 45.5l-3.8-.6s.9-18 2.3-26.9 3.3-18 3.8-20.9c.5-3 2.3-34.4 3.8-40.5s5.2-15.2 5.2-15.2l10 .3c-.1 0-8.8 21.4-9.7 25.4" fill="#026a9d"/><path d="m168.5 224.3s17.6.3 18.7.3 8-.7 8-.7l.1 2.8s-6.7.6-9.9.6-17.5-.7-17.5-.7z" fill="#3b1b1d"/><path d="m188.7 227.7h-2.5c-.5 0-1-.4-1-1v-1.3c0-.5.4-1 1-1h2.5c.5 0 1 .4 1 1v1.3c0 .6-.5 1-1 1" fill="#732d1d"/><path d="m172.5 176.5 2-2.7 9.8 5.9-1.6 3.5z" fill="#e0f2fd"/><path d="m185.7 179.1 2.3 2.7.3-2.9-1.9-1.8z" fill="#e0f2fd"/><path d="m165.1 181.6c-4.2.8-4.8 4.4-3.8 8.4 1 3.9 11.6 26.1 12.9 26.6 1.2.5 7.1-1.4 7.3-3.3.3-1.9-6.4-22.4-7.8-25.5s-3.7-7.1-8.6-6.2" fill="#6d2f0f"/><path d="m168.8 181.7c1.5.6 4.7 2.7 5.5 5.6 1.1 4.2 4.7 15.1 4.7 15.1s-2.3 2.3-6.1 3.4c-4.3 1.2-7.3.2-7.3.2s-5.1-16.5-4.8-20.1c.3-2.8 3.9-6 8-4.2" fill="#3a8835"/><path d="m173.7 210.2c-3.8 2.7 2.5 10 5.7 13.4s13.7 12.4 13.7 12.4l3.9-3.3s-5.8-11.1-14.2-21c-.9-1-5.3-4.2-9.1-1.5" fill="#6d2f0f"/><path d="m215.9 174.8s.9-4.4 1.6-5.2 4-7.3 4.5-6.5c.6.9-1.8 6.4-1.7 6.5.2.1 3.2 1.3 4.1 2.2s-2.8 6.8-2.8 6.8l-4.3.8z" fill="#6d2f0f"/><path d="m209 231.2 1-.6c.2-.1.5-.1.7.1.1.2.1.5-.1.7l-1 .6c-.2.1-.5.1-.7-.1-.2-.3-.2-.6.1-.7" fill="#91a5a3"/><path d="m195.1 241.3c-.3-.4 1.3-1.9 1.6-2.1l11.9-8.1c.4-.3.9-.2 1.1.2.3.4.2.9-.2 1.1l-11.9 8.1c-.3.3-2.3 1.2-2.5.8" fill="#4b5c61"/><path d="m207.608607 231.604866h1v1.799968h-1z" fill="#91a5a3" transform="matrix(.81131426 -.58461027 .58461027 .81131426 -96.676467 165.474312)"/><path d="m204.4 235.1c-.1-.1-.1-.3.1-.4l3.9-2.8c.1-.1.3-.1.4.1.1.1.1.3-.1.4l-3.9 2.7c-.1.2-.3.1-.4 0" fill="#cadbd9"/><path d="m198.2 243.5c.4-.2.6-.8.3-1.2l-1.9-3.3c-.2-.4-.8-.6-1.2-.3-.4.2-.6.8-.3 1.2l1.9 3.3c.2.4.8.5 1.2.3" fill="#4f2111"/><path d="m199.7 242.8c.4-.2.6-.8.3-1.2l-1.9-3.3c-.2-.4-.8-.6-1.2-.3-.4.2-.6.8-.3 1.2l1.9 3.3c.2.4.8.5 1.2.3" fill="#4f2111"/><path d="m201.2 242c.4-.2.6-.8.3-1.2l-1.9-3.3c-.2-.4-.8-.6-1.2-.3-.4.2-.6.8-.3 1.2l1.9 3.3c.2.4.8.5 1.2.3" fill="#4f2111"/><path d="m202.5 241.1c.4-.2.6-.8.3-1.2l-1.9-3.3c-.2-.4-.8-.6-1.2-.3-.4.2-.6.8-.3 1.2l1.9 3.3c.2.4.8.6 1.2.3" fill="#4f2111"/><path d="m194.8 229.9s5.1 3.8 5.9 4.8c.7 1 2.3 5.6 2.3 5.6s-2.1-.5-3 .2-3 2.7-3 2.7-3-3-3.8-4.8c-.9-1.8-1.3-3.7-1.3-3.7z" fill="#6d2f0f"/><path d="m198.2 333.2h-5.9v-90.4h5.9z" fill="#7a868e"/><path d="m360.5 333.2h-6v-90.4h6z" fill="#7a868e"/><path d="m359.5 257.1h-166.4v-12.9h166.4z" fill="#7a868e"/><path d="m192.3 254.2v-4.3h.8v4.3z" fill="#596169"/><path d="m359.5 252.9v-2.9h.9v2.9z" fill="#596169"/><path d="m193.1 254.2v-4.3l166.4.1v2.9z" fill="#596169"/><path d="m185.1 242.5h182.8v7.5h-182.8z" fill="#9aa3aa"/><path d="m351.8 183.3c2.5-1.3 6.5.5 8.5 6.7s6.6 22.4 7.3 25.1c.6 2.7 3.1 8.3-2 10.7s-7.4-3.1-9.2-7.3c-8.3-18.6-11.4-31.7-4.6-35.2" fill="#f8bc96"/><path d="m303 216.2c-1-2.5-3.1-4.2-10.4-2.4s-22.4 7.4-22.4 7.4l.5 4.1s15.5.5 19.5-.3 15.3-2.1 12.8-8.8" fill="#f8bc96"/><path d="m367.9 219.5c-1-2.5-3.1-4.2-10.4-2.4s-22.4 7.4-22.4 7.4l.5 4.1s15.5.5 19.5-.3 15.3-2.1 12.8-8.8" fill="#f8bc96"/><path d="m347.7 336.8s4-1.5 6.1-1.5c1.5 0 3.3 1.3 3.4 2.5 0 .5-.5 1.1-1 1.7-.5.5-6.7 4.9-8.1 5.1-2.3.3-4.8.2-6-.2-1.3-.5-1.3-4.9-1.3-4.9z" fill="#1a1a1a"/><path d="m321.5 212.1c-2.8-8.6-10.1-23.3-5.8-25.9 5.5-3.3 21.4-5.4 21.4-5.4v.3s13.6 1.7 19.1 5.1c4.2 2.6-.7 17.6-3.5 26.2-.7 2.1-.6 11.3-.3 19.5.1 2 1.7 11.3 1.4 15.2-.1 1.1-13.1 8.3-16.7 8.4v-.3c-3.6-.2-16.6-7.3-16.7-8.4-.3-3.8 1.4-13.2 1.4-15.2.3-8.2.4-17.4-.3-19.5" fill="#f8bc96"/><path d="m323.1 185.4c-1.9-2.1-6.3-1.7-10.3 3.4s-13.8 18.8-15.4 21.1c-1.5 2.3-5.7 6.7-1.7 10.7 4 3.9 8-.4 11.1-3.7 14.2-14.7 21.5-25.9 16.3-31.5" fill="#f8bc96"/><path d="m330.5 178.3c.4-1.6 1.3-9.7 1.3-9.7h5.4v.3h5.4s.9 8.1 1.3 9.7 4.8 4.1 4.8 4.1h-11.4v-.3h-11.4c-.2 0 4.2-2.5 4.6-4.1" fill="#f5a37e"/><g fill="#f8bc96"><path d="m345.7 238.1c6.6 0 9.1 4.5 8.9 18.6-.2 14-2.3 29.2-3.2 31.4s-10.2 2.2-11.1 1c-.9-1.3-3.2-30.4-3.2-34.9.1-4.7 1.5-16.1 8.6-16.1"/><path d="m343.6 299.3 5-.1c1.7 0 3.1-1.5 3-3.2l-.2-9.1c0-1.7-1.5-3.1-3.2-3l-5 .1c-1.7 0-3.1 1.5-3 3.2l.2 9.1c.1 1.7 1.5 3 3.2 3"/><path d="m346.2 290.7c2 0 6.9.7 6.7 13.7-.3 13.1-5.8 31-5.8 31h-4.7s-2.3-24.2-2.3-28.8c-.1-10.6-.2-15.9 6.1-15.9"/><path d="m328.4 238.2c-6.5-.7-9.5 3.6-10.8 17.5-1.3 14-.8 29.3-.1 31.6s9.9 3.3 10.9 2.1 6.4-29.9 6.8-34.4c.5-4.5.3-16.1-6.8-16.8"/><path d="m324.1 299.3-5-.6c-1.7-.2-2.9-1.8-2.7-3.5l1.2-9c.2-1.7 1.8-2.9 3.5-2.7l5 .6c1.7.2 2.9 1.8 2.7 3.5l-1.2 9c-.2 1.7-1.8 2.9-3.5 2.7"/><path d="m322.4 290.4c-2-.2-6.9-.1-8.1 13-1.1 13 2.5 31.4 2.5 31.4l4.7.5s4.8-23.8 5.3-28.4c1.3-10.5 1.9-15.8-4.4-16.5"/></g><path d="m352.8 235.2s2.4 11.5 2.7 17.8c.4 6.3-2.7 33.7-2.7 36.8 0 3 .2 12.3 0 21.4s-2.5 27-2.5 27l-11.7-.3s0-38.5 0-44.5-1.5-37.9-1.5-37.9v-19.8z" fill="#026a9d"/><path d="m321.7 234.9s-3.6 11.2-4.6 17.4-.9 33.8-1.2 36.8-1.5 12.2-2.3 21.3-.3 27.1-.3 27.1l11.6.9s4-38.3 4.7-44.3c.6-6 7.6-37.7 7.6-37.7l-.1-20.8z" fill="#026a9d"/><path d="m349.5 338.2s.2 4.2 0 5.4c-.1.7-1.9 1.5-5 1.6-2.3.1-4.5-.7-5-.9-1.4-.6.4-6.4.4-6.4z" fill="#1a1a1a"/><path d="m317.2 335.8s-4-1.5-6.1-1.5c-1.5 0-3.3 1.2-3.4 2.5 0 .5.5 1.1 1 1.7.5.5 6.7 4.9 8 5.1 2.3.3 4.8.3 6-.2 1.3-.5 1.3-4.9 1.3-4.9z" fill="#1a1a1a"/><path d="m323 258.4c-.7 4.1-1.4 31.8-1.5 33.3s-4.1 44.2-4.3 46.1l-3.8-.3s-.5-18.1.3-27.1c.8-9.1 1.9-18.3 2.3-21.3.3-3 .1-30.6 1.2-36.8 1-6.2 4.6-17.4 4.6-17.4l15.5.9c.1 22.4-17.4 16.4-17.9 17.7-.7 1.3 3.9 3.4 3.6 4.9" fill="#5182b0"/><path d="m347.4 259.4c-1 5.2-2.4 30.6-2.2 31.3s0 47.3 0 47.3l-.2.1-6.3-.2s0-38.5 0-44.5-1.1-29.5-1.1-29.5 1.7-4.6 4.6-4.3c2.6.3 5.4-1.2 5.2-.2" fill="#5182b0"/><path d="m327.3 162.9c0 .7-.3 1.5-.3 2.5 0 .4.5.9.6 1.3.3 3.3 1.1 7 3 7 3.4-.1 5.5.2 7.8.2 3.5 0 7.9-3.9 8.7-10.9.8-6.8-6-12.2-12.3-12.1-6.1.1-7.7 4.7-7.4 10.9-.2.4-.1.7-.1 1.1" fill="#f5a37e"/><path d="m338 148.8c-5.1-.9-12.9 3.6-9.9 6.3.9.8 1.1 8.6 1.1 8.6s1.1-.6 1.5-.1.7 3.2 1.2 4.4 3.5 5.9 4.3 5.9c.9 0 6.3.2 7-.5.7-.8 3.1-5.1 3.8-7.4.6-2.4 3.9-14.9-9-17.2" fill="#8e3c26"/><path d="m329.8 160.8c0-.3 1.4-1.1 2.1.7.3.9-.9 5-1.1 5-.6 0-1.1-4.3-1-5.7" fill="#f5a37e"/><path d="m314.3 186.2c.7-1.2 4.6-2.2 8.2-3.3 3.2-1 5.7-2.3 5.7-2.3l17.8.1s3.1 1.4 6.4 1.8c4 .5 5.1 2.3 5.7 3.5.6 1.3.9 12.9-4.4 28.1-.7 2.1 1.1 16.7-.7 21.1l-15.7 1.4-15.7-1.4c-1.4-5 0-19.3-.7-21.3-.7-2.1-7.8-25.6-6.6-27.7" fill="#313131"/><path d="m326.4 181.6h21.6l-3-3.6h-15.6z" fill="#1a1a1a"/><path d="m315.3 185.4s-2.6.3-6.2 6.7c-2.5 4.5-12.1 17.6-12.1 17.6s2 3.9 6 6.2c3.5 2 4.7 1.6 4.7 1.6l12.8-13.9z" fill="#313131"/><path d="m356.7 184.2s4 2.4 5.9 10.2c1.2 5 5.4 20.7 5.4 20.7s-3.2 3-7.7 3.8c-4 .7-4.9-.1-4.9-.1l-7.3-17.4z" fill="#313131"/><path d="m273 221s-1.2-1.5-1.5-1.7c-.2-.2-2.5-1.5-2.9-2.2s-.5-1.2-.6-1.3-1.7 0-1.2 1.4c.5 1.3 1.6 2.4 1.5 2.8s-3 .7-3.7.5-4.5-2.1-4.7-2.2-.8-.2-.9 0c-.2.2.1 1.3.3 1.4.2.2-.4.4-.3.6 0 .2.3 1.1.3 1.1s.1 1 .3 1.4c.2.3 1.5 1.8 1.6 1.9.2.1 3.6 1.9 4.5 2s6.1 0 7.7-1.6c.8-.7-.4-4.1-.4-4.1" fill="#f8bc96"/><path d="m353 238.4h-32.2c-.4 0-.8-.3-.8-.8l.7-2.3c0-.4.3-.8.8-.8h31.5c.4 0 .8.3.8.8v2.3c0 .5-.4.8-.8.8" fill="#1a1a1a"/><path d="m276.5 232.2h8.4v10.4h-8.4z" fill="#b7caea"/><path d="m284.6 241.3-.2-1c.1 0 3.2-.6 3.2-3.3 0-2.6-2.9-2.7-3.1-2.7v-1c1.4 0 4 .8 4 3.6.1 3-2.5 4.2-3.9 4.4" fill="#b7caea"/><path d="m210.7 232.2h8.4v10.4h-8.4z" fill="#b7caea"/><path d="m211.1 241.3.2-1c-.1 0-3.2-.6-3.2-3.3 0-2.6 2.9-2.7 3.1-2.7v-1c-1.4 0-4 .8-4 3.6-.2 3 2.5 4.2 3.9 4.4" fill="#b7caea"/><path d="m937.3 307.8h6.3v38.5h-6.3z" fill="#a7a9ab"/><path d="m924.9 362.1c0 1.4 1.1 2.5 2.5 2.5s2.5-1.1 2.5-2.5-1.1-2.5-2.5-2.5-2.5 1.1-2.5 2.5" fill="#5f7578"/><path d="m896.3 316.8h12.6v6.2h-12.6z" fill="#324142"/><path d="m900.8 319.7h2.9v24.2h-2.9z" fill="#324142"/><path d="m896.3 350.1h11.5v5.5h-11.5z" fill="#415557"/><path d="m881.4 303.4c.4-.5.8-1.7.9-2.8.7-9.8.8-20.9.1-33.3-.1-1.7-.5-3.8-.9-4.4-2.6-4.2-5.4-1.9-8.2 2.7-.4.8-.8 2.7-.9 4.2-.2 11 .3 22 1.3 32.8.1 1.2.5 2.7.8 3.1 2 2.2 4.3.6 6.9-2.3" fill="#415557"/><path d="m879.4 316.5v2.7h44.9v-2.7c0-1.1-.9-2.1-2.1-2.1h-40.8c-1.1 0-2 .9-2 2.1" fill="#415557"/><path d="m926.5 361h2.5l-2.5-5.5-20.6-2.6-.1 1-2.2-1-.7 1.3-.9-1.2v-.2h-.1l-.4-.5h4.1v-23.3h-6.8v23.3h1.9l-1 .8-18.3 2.3-1.6 3.5c-.7.4-1.1 1.2-1.1 2 0 1.3 1.1 2.4 2.4 2.4s2.4-1.1 2.4-2.4c0-.7-.3-1.3-.8-1.7l.9-1.2 10.4-1.4c.8-.2 1.6-.4 2.4-.6-4.1 3.2-10.5 7.6-10.5 7.6l-.9 2.5c-1.2.4-2.1 1.6-2.1 3 0 1.8 1.4 3.2 3.2 3.2s3.2-1.4 3.2-3.2c0-1-.5-1.9-1.2-2.5l.8-1.7 13.9-10.1-.4.8 16.7 7.6.6.8c-.4.5-.7 1.2-.7 1.9 0 1.8 1.4 3.2 3.2 3.2s3.2-1.4 3.2-3.2c0-1.7-1.3-3-2.9-3.1l-1.2-1.9-7.7-3.6 10.9.7z" fill="#415557"/><path d="m939 308.9-1.2-1c1.2-.1 2.4-.3 3.5-.8.6-.2 1.2-.5 1.8-.2.5.3.7.9.8 1.4.9 3.5 7.5 33.3 8.1 35.6.8 3.1 2.5 5.8 3.8 8.7 1.2 2.8 2.5 5.8 4.1 8.3.3.5.9.9 1.5 1.3.4.3.8.5 1.1.7-.2.3-.4.5-.7.8-.3.2-.6.4-.9.5l-2.7.1h-.1c-1.2-.3-2.1-1.2-2.7-2.2-.7-1.1-.8-2.4-1.6-3.3-.9-1.1-2.2-1.8-3.3-2.7-.7-.6-1.3-1.1-2.1-1.5-.6-.3-1.2-.5-1.8-.8-.9-.5-.6-.9-.6-1.8 0-.8 0-1.6 0-2.4-.1-1.1-.4-2.7-.8-3.7-.7-1.8-1.5-3.5-2.7-5-2.7-3.5-5-8.1-5.8-12.5-.3-1.9-.4-3.8-.5-5.8-.1-1.9.2-4.2-.3-6-.4-1.2-1.2-2.4-1.7-3.6-.4-1-.8-2-1.2-2.9z" fill="#e4bba5"/><path d="m945.2 353.1c0-.4.8-2.2.6-2.5.6.8 1.3 1.7 2.1 2.3 2.4 1.9 4.6 3.9 6.6 6.2.8.9 1.7 1.6 2.7 2.1.5.2 1.1.4 1.7.4.2 0 .4.1.6 0s.4-.4.7-.4c.1 0 .2.1.3.2.5.5 1.2.8 1.8 1.2.7.5 3.7 2.1 2.7 3.1-.3.3-1 .3-1.5.3-.9 0-1.7 0-2.6-.1-1.9-.2-3.7-.5-5.6-.8-2-.4-1.4-3.9-2.7-5.1-.7-.7-3.3-1.9-4-.7-.5 1 .3 2.9.5 4 .1.4.3 1.2.3 1.8h-.9c-.4-2.7-.5-5.2-2.2-7.6-.8-1.3-1.2-2.9-1.1-4.4" fill="#212020"/><path d="m943.1 306.9c.1.1.3.1.4.2.4.3.7.6 1 1 2 2.5.1 6.4-.8 9.1-1.1 3.4-1.9 6.8-3.1 10.1-2.3 6.5-4.7 13-6.7 19.6-1 3.1-.9 6.2-1.4 9.4-.5 3-.9 6.2-.9 9.2 0 .5.3 1.2.6 1.8.2.4.4.8.6 1.2-.3.1-.6.2-1 .3s-.7 0-1.1 0l-2.3-1.3c-.9-.9-1.2-2.1-1.2-3.3s.5-2.4.4-3.7c-.2-1.4-.9-2.7-1.4-4-.3-.8-.6-1.6-1-2.4-.3-.6-.8-1.1-1.1-1.6-.5-.9-.1-1.1.5-1.9.5-.6.9-1.3 1.3-2.1.5-.9 1-2.5 1.2-3.5.3-1.9.6-3.7.4-5.6-.5-4.4 0-9.6 1.6-13.7.7-1.8 1.6-3.5 2.6-5.2.8-1.5 2.5-2.7 1.3-4.4-.4-.6-1-1.1-1.3-1.7-.1-.2-.2-.5-.2-.7 0-.4.3-.7.5-1 1-1.2 2.2-2.2 3.1-3.4.4-.4.4-.7 1-.9.7-.2 1.2 0 1.9-.3.9-.4 1.7-1.4 2.7-1.6.7-.3 1.7 0 2.4.4" fill="#fad2bc"/><path d="m923.3 351.1c.2-.3 1.8-1.4 1.8-1.8.3 2.6 1.6 4.7 2.4 7.1.9 2.8-.5 7.9 3.3 8.6.2 0 .5.1.7.2.3.2.5.5.6.9.4 1 .8 1.9 1.4 2.8.3.5 1.4 1.7.4 2.1-.5.2-1.5-.3-2-.5-1.1-.4-2.1-.8-3.1-1.4-.8-.4-2.2-.9-2.7-1.8-1.1-2-.2-4.1.1-6.1.2-1.3-.7-3.4-2.3-3.1-2.1.5-2.3 4.9-3 6.5-.3-.1-.7-.3-1-.4 1-2.8 2.2-5.9 2-8.9 0-1.4.5-2.9 1.4-4.2" fill="#2d2d2d"/><path d="m888 314.4h7.2c1.3 0 28.9.3 28.9.3 2.2 0 3.9 0 4.5.1-.9-2.3-4.2-2.8-6.5-2.8-11.1-.5-24.2-.6-31.7-10.3-2.2-2.8-3-6.4-3.2-10-.9 1.9-2.4 7.9-2.5 8.8-.5 3.5-.6 7.9.9 11.2.5 1.2 1.4 2.1 2.4 2.7" fill="#e16f0d"/><path d="m922 312c-11.1-.5-24.2-.6-31.7-10.3-2.2-2.8-3-6.4-3.2-10 .2-.4.4-.6.5-.6l22.6 2 29.6 7 5.6 8c-.2.1-.3.2-.5.4-3.2 2.3-6.4 4.5-9.7 6.7-1 .7-2 1.2-3 1.8-.5.3-.8.6-1.2.5-.9-.2-1.4-2.7-2.1-2.7 0 0-.1 0-.3 0-1-2.4-4.2-2.8-6.6-2.8" fill="#e88d3f"/><path d="m915.1 300.5v4.1c0 2 1.2 3.5 2.8 3.5h80.5c1.6 0 2.8-1.6 2.8-3.5v-4.1z" fill="#d1d2d4"/><path d="m983.4 276.1h-56l-12.3 24.4h86.1z" fill="#a7a9ab"/><path d="m951.9 290.5 2.4 6.1h-30.2l2.9-6.3z" fill="#fff"/><path d="m903.2 232.5c1.5 1.6 2.8 2.8 4 3.9 4.2 3.9 5.8 4.7 5.8 4.7.1.2-2 3.5-.7 8.3-4.9-4.6-8-10.5-9.1-16.9" fill="#e4bba5"/><path d="m955.4 279.7c.4.5.6 1.1.8 1.7s.6 1.1.7 1.7c.1.4-.2.8-.7.7-.2-.1-.3-.2-.5-.3-.2.6-.7.4-.9 0-.6-.8-.7-1.8-1.7-1.9-.7-.1-1.5 0-2.2 0-1.2 0-2.4 0-3.7 0 0 0 .4-1.5.4-1.6.2-.8.4-1.5 1.3-1.5h3.5c.6 0 1.2 0 1.7.2.7.3 1.1.6 1.3 1" fill="#d1a998"/><path d="m951.5 279.3c-.2 0-.4.1-.7.2-.2.1-.5 0-.7.1.2-.1.4 0 .6.1.4.1.9.1 1.3.1s1.9.6 1.5 1.2-1.3.5-1.8.4c-.9-.1-1.9.4-2.8.7-2.3.7-4.6-.2-6.8-.7l1.6-3 7.5-2.1c.7.2 1.4.5 2.2.7 1 .3 1.9.7 2.7 1.3.4.2.5.6.7 1 .2.5.5 1 .7 1.5.2.4 1 1.4.5 1.9-.3.3-.8-.1-1-.3-.5-.7-.9-1.9-1.6-2.4-1-.7-2.7-.8-3.9-.7" fill="#e2bca2"/><path d="m951.5 279.3c-.2 0-.4.1-.7.2-.2.1-.5 0-.7.1.2-.1.4 0 .6.1.4.1.9.1 1.3.1s1.9.6 1.5 1.2-1.3.5-1.8.4c-.9-.1-1.9.4-2.8.7-2.3.7-4.6-.2-6.8-.7l1.6-3 7.5-2.1c.7.2 1.4.5 2.2.7 1 .3 1.9.7 2.7 1.3.4.2.5.6.7 1 .2.5.5 1 .7 1.5.2.4 1 1.4.5 1.9-.3.3-.8-.1-1-.3-.5-.7-.9-1.9-1.6-2.4-1-.7-2.7-.8-3.9-.7" fill="#e4bba5"/><path d="m912.1 248.6 1.5.8c1.8.9 3.2 2.4 3.9 4.3l7.9 19.9 20.9 3.5-.9 5.7-20.6-.1c-1.9-.2-3.7-1.3-4.7-3l-6.9-7.9z" fill="#fff"/><path d="m917.6 238.1c.4.1.5.6.3 1-.1.4-.4.7-.6 1.1-.1.4 0 .9-.1 1.3-.1.9-1 1.6-1.9 1.7-.9.2-1.8-.1-2.7-.4-3.3-1.1-6.6-2.8-8.6-5.7-1.8-2.6-2.4-5.9-2.7-9-.2-1.9-.4-3.9.1-5.8.1-.6.3-1.1.6-1.6 2.4-4.7 7.8-5.2 12.2-3.6 4.3 1.6 6.9 6.5 5.9 10.9-.1.5-.4 1-.5 1.5-.2 1.1.5 2.2 1 3.1.3.6 1.3 2.4.3 2.9-.5.3-1.1 0-1.5.4s-.6 1-.6 1.6l-.1.3c0 .2-.8.3-1.1.3" fill="#fad2bc"/><path d="m897.9 247.5c.5-.5 1.1-1.1 1.6-1.7 1-1.3 1.9-2.6 2.4-4.2 1-2.9 1.4-6.1 1.3-9.2l.1.1c1.1 6.4 4.2 12.4 9.1 16.8 0 .2.1.4.2.6 1.6 2.8 3.1 5 1.1 6.3-1.6 1-7.7-1.1-10-2.1-.6-.2-.9-.4-.9-.4-.4-.2-.9-1.8-1.2-2.3-.3-.6-.7-1.4-1.2-1.8-.4-.3-.8-.5-1.3-.6s-1.6.1-2-.1c-.8-.3.3-.9.8-1.4" fill="#fad2bc"/><path d="m914.1 253.1s-2.8 2.8-10.2.2c.7 15 1.7 22 1.7 22l8.9 3 3-9.8z" fill="#fff"/><path d="m919.4 269.6c0 1-6.8 17.7-8.6 22.3-.1.3-.2.6-.3.8-.1.3-.2.4-.2.4-.6 0-8-.5-22.5-2h-.1c.1-.2.1-.4.2-.7.2-.7.4-1.6.5-2.5 1.6-10 1.2-29.7 1.2-29.7l2-2.1 11.5-.8s8.3 11.6 11.5 12.6c-.1 0 0-1.4 0-1.5 0-.5 0-1.1 0-1.6 0-1.1 0-2.2-.1-3.3-.1-2-.2-4-.5-6-.1-1-.3-2-.5-2.9-.1-.5-.2-.9-.3-1.4-.1-.3-.2-.5-.3-.7s-.2-.4-.3-.7l.1.1c.2.2.3.3.4.5s.3.4.4.7c.2.6.4 1.1.7 1.7.4 1 .7 1.9 1.1 2.9.7 2 1.2 3.9 1.9 5.9.6 1.8 1.2 3.5 1.7 5.3 0 .8.5 1.8.5 2.7" fill="#e88d3f"/><path d="m910.8 291.9c-.1.3-.2.6-.3.8l-22.6-2.3c.2-.7.4-1.6.5-2.5 4.1.6 18 3.4 22.4 4" fill="#030304"/><path d="m908.5 228.7c-.1-.3-.2-.5-.3-.8-.4-.8-1.1-1.4-2-1.5-1.2 0-2.2 1.2-2.2 2.4-.1 1.2.5 2.4 1 3.5-.6 1.4-1.3 2.8-1.9 4.2-.6 0-1.9-2.1-2.3-2.5-1.6-2.1-3.4-5.5-3.7-8.2 0-.2-.1-.5-.3-.5-.1 0-.2 0-.3 0-.7.1-1.2-.5-1.7-1-.2-.2-.3-.3-.4-.6-1-1.8.4-5.4 1.8-6.7 1.3-1.2 3.1-1.8 4.8-1.6.8.1 1.4.5 2.1.6.9.1 1.7-.6 2.5-.9 3.6-1.4 7.8-.5 10.7 2 1.6 1.3 2.7 2.5 3.3 4.5.4-.1.9.1 1.2.4s.5.7.6 1.2c.4 1.4.4 2.9 0 4.3 0 .2-3.6.6-4.1.8.4-1.1-.3-2.9-1.3-3.5-1.7-1.1-2.9.8-4 1.8-.7.6-3.3 2.8-3.2 3.8 0-.5-.1-1.1-.3-1.7" fill="#cca74a"/><path d="m929 289.4 5.6.4 4.8.5c.4 0 .9.2 1.2.5 1.3 1.1 2.8 1.9 4 3.1.8.8 1.1 1.3-.3 1.7-.9.2-1.7-.1-2.3-.8.2.3.5.6.4 1-.2.8-.9.3-1.4.1-.9-.4-1.8-.9-2.7-1.3-.6-.3-1.2-.3-1.8-.2l-4.3.9c-.5.1-1.1.1-1.6-.1l-3.4-1.1z" fill="#fad2bc"/><path d="m897.6 247.6c2.7-.5 5.6 3.6 6.3 5.8.9 3 1.2 6.2 1.8 9.2.8 3.6 2.1 7 2.5 10.6.2 1.4.2 2.7.6 4.1.6 2.1 2.2 2.3 4.1 3.2 5 2.3 18.1 8.9 18.3 9l-2.5 6c-.4-.1-.7-.2-1-.3-2.6-.6-5.1-1.3-7.7-1.9-4.3-1.1-8.3-2.9-12.7-3.9-2.2-.5-5.2-.9-7-2.4-1.3-1.1-1.6-3.2-2.4-4.7-1.3-2.8-2.6-5.6-4-8.3-.6-1.3-1.3-2.7-1.9-4-.4-.9-1.1-3.5-1.9-4-.2-.1-.3-.2-.4-.3-2.5-8.3 3-17.2 7.9-18.1" fill="#fff"/><path d="m974.8 294.7c-.3.1-.9.2-1.8.4 0-.4-.1-.8-.1-1.2 1 .1 1.5.1 1.8.1z" fill="#24b7ea"/><path d="m957 294.6-1.9.2 1.2 2.2 1.3-.1z" fill="#24b7ea"/><path d="m963.1 296.5-.2-2.4h.7l.2 2.4c-.2-.1-.4 0-.7 0" fill="#414142"/><path d="m964.5 294c2.5-.1 4.9-.1 8.5-.2 0 .5.1.9.1 1.4-3.5.5-5.9.8-8.4 1.1z" fill="#595a5c"/><path d="m957.4 294.8s-.1-.4.3-.8c.5-.4 1.4-.6 2.7-.7 2.7-.1 5.9-.5 6-.5 0 0-.4 1.1-1.9.7-.9.1-4.9.5-4.9.5s-.3 0-.4.2c-.1.1-.2.2 0 .5.1.2.1.3 0 .4-.4.3-1.4-.1-1.8-.3z" fill="#595a5c"/><path d="m963.9 296.4-.2-2.4h.9l.2 2.3c-.4 0-.7.1-.9.1" fill="#24b7ea"/><path d="m957.1 297c-.1-.8-.1-1.6-.2-2.4 2.4-.2 4.3-.4 6.1-.5l.2 2.4c-1.8.2-3.7.3-6.1.5" fill="#595a5c"/><path d="m974.8 294c.1 0 .3 0 .4.1.3.1.5.1.6.2-.1.1-.3.2-.5.3s-.3.1-.5.2c0-.3 0-.6 0-.8" fill="#414142"/><path d="m983.2 308.1h6.3v63h-6.3z" fill="#a7a9ab"/><path d="m972.1 307.8h6.3v38.5h-6.3z" fill="#a7a9ab"/><path d="m928.5 308.1h6.3v63h-6.3z" fill="#a7a9ab"/><path d="m944.8 288.3c0-1.2 1.1-2.1 2.5-2.1h26.8c1.4 0 2.5.9 2.5 2.1s-1.1 2.1-2.5 2.1h-26.8c-1.3 0-2.5-.9-2.5-2.1" fill="#fff"/><path d="m971.7 287.9h-22c-1.1 0-2-.8-2-1.7h26c0 1-.9 1.7-2 1.7" fill="#ebf5fc"/><path d="m947.4 289.4h26.8c1.2 0 2.1-.7 2.4-1.6 0 .2.1.3.1.5 0 1.2-1.1 2.1-2.5 2.1h-26.8c-1.4 0-2.5-.9-2.5-2.1 0-.2.1-.3.1-.5.2.9 1.2 1.6 2.4 1.6" fill="#cce5f5"/><path d="m974.7 287.3c0 1.1.9 1.9 1.9 1.9 1.1 0 1.9-.9 1.9-1.9l6.2-34c0-1.1-.9-1.9-1.9-1.9-1.1 0-1.9.9-1.9 1.9z" fill="#cce5f5"/><path d="m919.4 219.9s-11.4 3.7-13.2 13.5c0 0-1.8.4-1.8-1s3.8-12.9 12.7-15.5c-.1 0 1.1 1 2.3 3" fill="#3f3e3c"/><path d="m906.1 232.7s0 3.2 2.1 4.1 4.5 1.6 4.5 1.6l-.2.7s-2.6-.6-4.4-1.3c-2.8-1-3-4.8-3-4.8z" fill="#3f3e3c"/><path d="m912.7 239.4 2.2.3c.5.1.9-.3.9-.7.1-.5-.3-.9-.7-.9l-2.2-.3c-.5-.1-.9.3-.9.7-.1.5.2.9.7.9" fill="#2d2d2a"/><path d="m871.2 170.2c-.3-2-1.8-3.5-3.8-3.9-5.6-1-15-1-16.9-1s-11.3 0-16.9 1c-2 .3-3.4 1.9-3.8 3.9-.3 1.7-.5 3.3-.6 4.8 5 0 13 .2 18.3 1.1 3.4.6 5.9 3.2 6.5 6.6 1.1 6.7 1.1 8.4 1.1 14.8v3.4l9.3 7.5c.7.4 1.3.2 1.7-.2.3-.3.3-.7.1-1.2l-2.5-6.8c1.4-.1 2.7-.3 3.9-.5 2-.3 3.4-1.9 3.8-3.9.9-5.8.9-11 .9-12.9-.2-5.6-.2-6.9-1.1-12.7" fill="#147abf"/><path d="m846.9 178.9c-6.3-1.1-16.8-1.1-18.9-1.1s-12.6 0-18.9 1.1c-2.2.4-3.8 2.1-4.2 4.3-1 6.5-1 12.2-1 14.4 0 2.1 0 7.9 1 14.4.4 2.2 2 3.9 4.2 4.3.8.1 1.7.3 2.7.4l4.7-6.5c.2-.4.5-.1.5-.1l-4 14.3-.1.2c0 .3 0 .6.2.9.4.6 1.2.8 1.8.4l14-8.5c3.2 0 12.4-.1 18.1-1.1 2.2-.4 3.8-2.1 4.2-4.3 1.1-6.5 1.1-12.2 1.1-14.4 0-6.5 0-7.9-1.1-14.4-.5-2.3-2.2-4-4.3-4.3" fill="#90cbe8"/><use fill="#000" xlink:href="#c"/><use fill="#fff" xlink:href="#c"/><path d="m744.9 273.4c.1 1.3-2.1 4.6-2.8 5.1s-1.4 3.1-1.3 3.7c.3 1 .5 1.8 2.6 2.1s2.2.9 3.3-.7 1.6-6.9 2.2-9.4c.7-2.5-4-.8-4-.8" fill="#d8a899"/><path d="m759 310.6c-.1.4-.4.7-.8.6l-37.7-4.8c-.4-.1-1.3-1.1-1.2-1.5l2.6-18.3c.1-.4.4-.7.8-.6l38.3 5.5c.4.1 1.2.7 1.2 1.1z" fill="#292b36"/><path d="m759.7 311.2c-.1.4-.4.7-.8.6l-38.3-5.5c-.4-.1-.7-.4-.6-.8l2.6-18.2c.1-.4.4-.7.8-.6l38.3 5.5c.4.1.7.4.6.8z" fill="#151823"/><path d="m732.8 288.5c1.5-5 7.1-8 11.4-7.2 5.5 1 8.8 5.6 9 9.8.2 4.1-1.6.2-1.6.2s-1.4-7.9-7.5-8.4c-3.1-.2-5.9.3-8.9 5.7-1.3 2-2.4-.1-2.4-.1" fill="#151823"/><path d="m746.3 284.1c.4-.8.7-2.7-.3-2.8-.4-.1.2 1.1 0 1.6-.4.6-.9 1.2-.9 1.2s.4-.6.7-1.3c.4-.7-.1-2.1-.4-2.2-.4-.2-.1 1-.6 1.8-.4.8-.8 1.6-.8 1.6s.3-.8.7-1.6c.4-1 .2-2.2-.2-2.2-.7 0-.4 1.2-1 1.9-.5.7-.9 1.3-.9 1.3s.6-.7.9-1.4c.3-.8.3-1.5.1-1.6s-.8.6-1.3 1.4c-.4.7-.8 1.4-.8 1.7 0 .7.8.6.8.6s.6.8 1.5.6c.6.6 1.2.1 1.2.1s.2.4.7.2.6-.9.6-.9" fill="#cc9584"/><path d="m745.3 274.2c-.8.9-2.8 4-3 4.6-.3.6.4 1.5-.1 3.8-.2.8.8.5 1.2-.3.4-.9.6-2.3.9-3.2.6-2 1.7-4.4 1.7-4.4z" fill="#d8a899"/><path d="m753 248.1c-1.7 5-8 23.2-8.1 26.2s3.4.9 3.4.9 9.8-14.4 10.3-19.4c.5-5.1-5.6-7.7-5.6-7.7" fill="#d8a899"/><path d="m749.4 299.2c-2.1 4.2-4.5 20.8-4.2 25.2.3 4.9-3.9 30.4-5.9 35.4-1.3 3.3-5.7 10.9-11.4 11.5 2.2 2.7 3.8 3.4 10.7-.8 2.5-1.6 7.2-3.8 8.3-5.2 2.2-2.7-.8-3.9.4-6.4 2.5-5.4 10.1-23.3 9.1-33.4-.6-6.2 4.6-23.6 4.6-25.7s-11.6-.6-11.6-.6" fill="#d8a899"/><path d="m748.1 362.2c1 1.1 1.1 3.2.1 5.3-1 2.2-3.9 6.6-3.7 8.5-1.3.1-1.2-.2-1.2-.2s1.6-6.9.4-6.6-3.9 3.6-6.2 5.6c-2.4 2-10.2.1-10.6-.6-.3-.7-.5-3 1.4-3.4s3.6-1.3 3.6-1.3 4.5 2.2 7-.4c6.1-6.4 9.2-6.9 9.2-6.9" fill="#212121"/><path d="m760.9 309.4c1.1 4.5 9.3 13.4 11.2 14.7 2 1.4 15.8 22.7 17.5 29.2.9 3.4 1.7 13.8-2.2 18 3.4.6 4.6.1 8.9-8.5 1.3-2.6 3.2-2.8 3.1-4.7-.2-4.2-2.3-2.7-4.5-8.3-2.2-5.5-4-24.5-14.1-32.5-4.9-3.9-4.8-12.6-6.2-14.2-1.1-1.5-13.7 6.3-13.7 6.3" fill="#d8a899"/><path d="m797 353.1c1.4.4 3.5 2.6 3.7 4.9.2 2.4 1.2 7.2 2.2 8.7-1 .7-1.2.5-1.2.5s-3.1-6.9-4-6.1.3 6.1-.8 9-8.8 5.2-9.5 4.7-1.9-2.3-.5-3.6c1.5-1.3 2.5-3 2.5-3s4.5-.1 5.3-3.7c.9-3.4 2.3-11.4 2.3-11.4" fill="#151823"/><path d="m767.1 262.1c1.1 3.9 6.1 9.7 6.1 17.2s13 25.4 17.9 33.4c-7.2 0-15.7 8.4-21.9 9-1.5.2-4-.7-5.4-.6-12.4.2-21.9-3.5-21.9-3.5s2.5-40.4 6.6-54.3c12-.9 18.6-1.2 18.6-1.2" fill="#275a38"/><path d="m760.5 192.1c4.3 1.2 7 8 7 11.3s3.7 20.5 11 19.2c0 0-7.1 2.5-8.7-2.8 3.2 5.5 5 5.2 7.3 4.8-2.1 3-6 4.8-8.1 3.4s-8.3-3.5-11-13.7c-2.6-10.2-1.2-12.8.7-16.5s1.8-5.7 1.8-5.7" fill="#683328"/><path d="m750.1 224.7c.1.9-5 12.5-5 12.5l2.3-.4 3.2-11.5z" fill="#3a8835"/><path d="m753 219c-1.6 1.1-4.3 3.9-4.3 3.9l1.7 5.8 3.9-7.5z" fill="#3a8835"/><path d="m765.2 222c-1.2-2.8-6.1-8.8-6.9-22.3-.3-5.6-12.3 13-12.3 13 3.2 1.6 6.3 5.9 5.5 10.4-2.7 8.3-4.9 13.4-4.4 13.2-1.6 4.8 19.1-13.5 18.1-14.3" fill="#d8a899"/><path d="m758 221.4c-1.4 1-5 3.1-5 3.1-1.3 3.2-4.1 6-8.7 13.2-1.3 2-.2 6.9 1.5 7.9 1.2.7.4 8.2.4 9.7-.1 10.9 2.1 9.1 2.1 9.1s16.8-.8 18.7-1.2c8.6-1.9-.1-13 .5-27.5.2-4.4 2.1-8 0-12.4-1.1-1.5-2.6-2.7-4.6-5-2.7 1.1-2.7 1.6-4.9 3.1" fill="#3a8835"/><path d="m742.3 209.2c0-.5 1-1.6 1.2-4.6 0-.7-.6-2.6-.6-2.8-.1-7.3 3-10.8 8.9-10.9 5.8-.1 7 2.4 7 9.7.1 7.3-2.6 12.2-4.4 13.4-1.1.7-6.6 2.3-7.8 1.5-1.6-1-2.1-2.4-2.5-5-.7 0-1.8-.3-1.8-1.3" fill="#d8a899"/><path d="m746.9 233.6c1.5-1.7 5.1-7.4 6.4-9.7.8-1.4 1.3-.2 1.3-.2z" fill="#fff"/><path d="m754.4 227.3-2.7-4.8 9.7-6.9 1.6 2.2z" fill="#fff"/><path d="m761.3 212.1c-.5-2.5 1.1-2.7.1-3.5 2.3-2.3 4.8-6.3 3-12-2.2-6.8-10.9-7.7-17.4-4.8-1.4.6-2.2 1.7-2.5 2.5-3.2 2.2-.1 2.4.8 3.9 2.3 3.8 6.7 5 7 5.6.2.6 2.3-1.9 3.3-.7.6.8.6 1.8.3 2.6h-.1v.2c-.3.8-.7 1.4-.7 1.4l.2.3c-.5.9-1.3 4.2-.1 5.4 1.8 1.9 2.1.1 2 1.9-.2 1.8-.9 2 .6 3.5s1.6.9.2 4 .5 2.8 1.4 4c-.5-.8-2.6-4.6 2.1-4.8 1.7-.1 2-.7 1.9-4-.1-3.4-1.5-2.2-2.1-5.5" fill="#683328"/><path d="m765.2 222c2.6-.1 5.1 2.4 5.8 4.6s-.1 10.3-1.6 11.6c-1.5 1.2-8.3-.6-9.3-1.1s1.2-10.7 2-12.5c.7-1.7 3.1-2.6 3.1-2.6" fill="#3a8835"/><path d="m759.3 206.6c.2.3.2.6-.1.9l-9.4 8.4c-.3.2-.6.2-.9-.1l-3.5-4c-.2-.3-.2-.6.1-.9l9.5-8.4c.2-.2.6-.2.9 0z" fill="#151823"/><path d="m754.5 208.8s-.3-.6-.7-1.6c-.2-.7-.5-1-.9-1.3-.4-.5-1-.6-.6.1.4.8.5 1.1.7 1.5.2.7.2 1.7.2 1.7s-.6-1.1-.9-1.9c-.2-.6-.9-1.3-1.1-1.5-.5-.5-.8-.2-.6.3.5.9.9 1.5.9 1.5l.5 2.3s-1.2-4-2-3.8c-.4.1 0 .5.4 2 .5 1.5.4 2.1.4 2.1s-.8-2.6-1.1-3.2c-.2-.5-.6-.6-.5.5s.6 2.2.6 3.2c0 2.4 1.5 6.3 1.5 6.3 1.8 9.2 7.1 23 9.1 24.8 0 0 2.8 2.7 4.2 2.3 2.3-.7 2.1-7.4 2.1-7.4-1.9-4.9-9-15.7-11.6-20.4-.1-.8.9-2.5 1.1-4.5 0 0 .3-1.9.4-2.1-.7.6-1.3 1-1.3 1z" fill="#cc9584"/><path d="m765.4 243.3c.8-.5 4.1-7.7 4.1-9.5 0-1.7-2.6-6.9-7.1-5.6-1.6.4.4 6.1.1 6.5-.2.4 2.9 8.6 2.9 8.6" fill="#cc9584"/><g fill="#0068b3"><path d="m410.4 185.9c4.3 0 7.7-3.4 7.7-7.7s-3.4-7.7-7.7-7.7-7.7 3.4-7.7 7.7 3.5 7.7 7.7 7.7z"/><path d="m512.6 166.1c1.6 0 2.9-1.3 2.9-2.9s-1.3-2.9-2.9-2.9-2.8 1.3-2.8 2.9 1.3 2.9 2.8 2.9z"/><path d="m458.6 170.4c3.7 0 6.7-3 6.7-6.7s-3-6.7-6.7-6.7-6.7 3-6.7 6.7 3 6.7 6.7 6.7z"/><path d="m408.9 178.9 49.8-14.6 53.4-1v-1.4l-53.6 1.1-50 14.6z"/><path d="m459 163.6 7.8-25.1-1.3-.5-7.8 25.2"/><path d="m466.4 142.2c2.6 0 4.7-2.1 4.7-4.7s-2.1-4.7-4.7-4.7-4.7 2.1-4.7 4.7 2.1 4.7 4.7 4.7z"/></g><g fill="#007bc7" transform="translate(665 64)"><path d="m7.3 8.2h-.3v29.4h-6.4v-36.4h11l10.3 29.4h.3v-29.4h6.4v36.3h-11z"/><path d="m37.7 1.2h7.2v30.5h12.3v5.9h-19.5z"/><path d="m73.8 37.5v-36.3h10.6c12.5 0 19.3 6.3 19.3 17.1 0 13.2-7.5 19.2-19.7 19.2zm7.2-5.8h3.4c7.1 0 11.7-3.8 11.7-13 0-7.5-4.7-11.6-12.2-11.6h-2.9z"/><path d="m118.1 37.5h-7.2v-36.3h7.2z"/><path d="m142.3 19.1h12.2v17.8c-3.7.7-7.1 1.1-11 1.1-11 0-18.3-5.9-18.3-17.5 0-13.2 8.4-19.7 19.9-19.7 3.3 0 5.7.2 8.3.7l-.5 6.1c-3-.4-5.2-.6-8-.6-7.3 0-12.1 4.4-12.1 12.7 0 8.1 4.8 12.2 10.9 12.2 1.6 0 2.4-.1 3.9-.2v-6.7h-5.3z"/><path d="m169.6 37.5h-7.2v-36.3h7.2z"/><path d="m192.5 37.5h-7.2v-30.4h-10v-5.9h27.1v5.9h-10v30.4z"/></g><g fill="#007bc7" transform="translate(865 65)"><path d="m32.4 36.5h-8.3l-2-7.8h-12.3l-2 7.8h-7.5l10.7-36.3h10.9zm-16.3-30.3h-.4l-4.4 16.8h9.4z"/><path d="m65.8 36.5h-8.3l-2-7.8h-12.3l-2 7.8h-7.5l10.6-36.3h10.9zm-16.3-30.3h-.4l-4.5 16.8h9.4z"/><path d="m71 .2h7.2v30.5h12.3v5.9h-19.5z"/></g><g fill="#000" transform="translate(663 121)"><path d="m.7 28.8 1.9-26h6.7c7 0 11.6 4.3 11.6 11.3 0 9.7-5.2 14.7-13 14.7zm4.7-23.5-1.5 20.9h4.4c5.6 0 9.6-3.7 9.6-11.7 0-5.8-3.4-9.2-8.9-9.2z"/><path d="m39.1 9-1.8 19.8h-2.7l.3-3.2h-.1c-1.7 2.4-3.7 3.5-5.9 3.5-2.6 0-4.4-1.8-4.4-6.7 0-8.7 4.4-13.4 9.2-13.4 1.2 0 2.1.1 2.9.3zm-3 2.7c-.7-.2-1.6-.2-2.5-.2-3 0-6.1 3.7-6.1 10.8 0 3.3 1 4.4 2.4 4.4s3.3-1.3 5.2-3.9z"/><path d="m43 9.4h2.3l.4-4.2 2.8-.4-.5 4.6h4l-.2 2.3h-4l-1.2 11.4c-.3 2.8.4 3.5 1.7 3.5 1 0 1.6-.1 2.8-.5v2.5c-1.3.5-2.1.6-3.6.6-2.7 0-4.1-1.6-3.6-5.9l1.2-11.6h-2v-2.3z"/><path d="m68.6 9-1.8 19.8h-2.7l.3-3.2h-.1c-1.7 2.4-3.7 3.5-5.9 3.5-2.6 0-4.4-1.8-4.4-6.7 0-8.7 4.4-13.4 9.2-13.4 1.2 0 2.1.1 2.9.3zm-3 2.7c-.7-.2-1.6-.2-2.5-.2-3 0-6.1 3.7-6.1 10.8 0 3.3 1 4.4 2.4 4.4s3.3-1.3 5.2-3.9z"/><path d="m96.8 28.8h-3.3l-1.3-6.7h-9.5l-2.3 6.7h-3.2l10-26h4.4zm-7.8-23.6-5.2 14.4h8.1l-2.7-14.4z"/><path d="m114.9 9-1.8 20c-.5 5.4-3.8 7.5-7.8 7.5-2 0-3.6-.1-5.6-.5v-2.7c1.9.6 3.6.8 5.4.8 3.1 0 4.8-1.5 5.2-5l.4-3.5h-.1c-1.8 2.4-3.7 3.5-5.9 3.5-2.6 0-4.4-1.8-4.4-6.7 0-8.7 4.4-13.4 9.2-13.4 1.2 0 2.1.1 2.9.3zm-3 2.7c-.7-.2-1.6-.2-2.5-.2-3 0-6.1 3.7-6.1 10.8 0 3.3 1 4.4 2.4 4.4s3.3-1.3 5.2-3.9z"/><path d="m126.7 9c3.3 0 5 1.7 5 4.5 0 4.5-4 7.5-10.4 7.5 0 4.4 1.4 5.5 4 5.5 1.8 0 3.4-.5 5.1-1.4v2.6c-1.9 1-3.5 1.4-5.9 1.4-3.9 0-6-2.1-6-7.2-.1-8.7 4.2-12.9 8.2-12.9zm-.3 2.5c-2 0-4.3 2.3-4.9 7.3 4.7 0 7.3-2.2 7.3-5 0-1.5-.9-2.3-2.4-2.3z"/><path d="m145.9 16c.3-3.2-.6-4.2-1.9-4.2-1.1 0-3 1-5.4 3.1l-1.3 13.9h-2.8l1.7-19.2 2.8-.4-.3 3h.1c2.3-2.3 4.1-3.1 5.9-3.1 2.8 0 4.4 1.8 4 6.5l-1.3 13.2h-2.8z"/><path d="m165.5 28.8h-2.7l.3-3.2h-.1c-1.8 2.4-3.7 3.5-5.9 3.5-2.6 0-4.4-1.8-4.4-6.7 0-8.7 4.4-13.4 9.2-13.4 1 0 1.8.1 2.5.2l.7-7.9 2.9-.4zm-1.2-17.1c-.7-.2-1.7-.2-2.5-.2-3 0-6.1 3.7-6.1 10.8 0 3.3 1 4.4 2.4 4.4s3.3-1.3 5.2-3.9z"/><path d="m185.5 9-1.8 19.8h-2.7l.3-3.2h-.1c-1.7 2.4-3.7 3.5-5.9 3.5-2.6 0-4.4-1.8-4.4-6.7 0-8.7 4.4-13.4 9.2-13.4 1.2 0 2.1.1 2.9.3zm-3 2.7c-.7-.2-1.6-.2-2.5-.2-3 0-6.1 3.7-6.1 10.8 0 3.3 1 4.4 2.4 4.4s3.3-1.3 5.2-3.9z"/><path d="m217.8 13.8c0 9.9-5.7 15.3-12 15.3-5.4 0-9.1-3.5-9.1-10.7 0-10.4 5.2-16 12-16 5.4 0 9.1 4.3 9.1 11.4zm-17.9 4c0 6.4 2.6 8.6 6.4 8.6 4.2 0 8.3-3.9 8.3-12 0-6.6-2.6-9.3-6.4-9.3-4.4.1-8.3 4.5-8.3 12.7z"/><path d="m221 9.4h3l2.6 16.8h.2l1.1-2.2c1.9-4 3.3-8.2 4.3-14.6h2.9c-1 6.1-2.7 10.8-5.1 15.3l-2.1 4h-3.5z"/><path d="m244.8 9c3.3 0 5 1.7 5 4.5 0 4.5-4 7.5-10.4 7.5 0 4.4 1.4 5.5 4 5.5 1.8 0 3.4-.5 5.1-1.4v2.6c-1.9 1-3.5 1.4-5.9 1.4-3.9 0-6-2.1-6-7.2 0-8.7 4.2-12.9 8.2-12.9zm-.3 2.5c-2 0-4.3 2.3-4.9 7.3 4.7 0 7.3-2.2 7.3-5 0-1.5-.9-2.3-2.4-2.3z"/><path d="m262.4 12.1c-.4-.1-.7-.1-1.2-.1-1.5 0-3.2 1.4-4.7 3.9l-1.1 12.9h-2.8l1.6-19.2 2.8-.4-.4 3.6h.2c1.8-3.2 3-3.8 4.6-3.8.5 0 .9.1 1.3.3z"/><path d="m275.4 16c.3-3.2-.6-4.2-1.9-4.2-1.2 0-3.1 1-5.5 3.1l-1.3 13.9h-2.8l2.5-27.4 2.9-.4-1.1 11.2h.1c2.3-2.2 4.1-3.1 5.9-3.1 2.8 0 4.4 1.8 4 6.5l-1.3 13.2h-2.8z"/><path d="m290.3 9c3.3 0 5 1.7 5 4.5 0 4.5-4 7.5-10.4 7.5 0 4.4 1.4 5.5 4 5.5 1.8 0 3.4-.5 5.1-1.4v2.6c-1.9 1-3.5 1.4-5.9 1.4-3.9 0-6-2.1-6-7.2 0-8.7 4.2-12.9 8.2-12.9zm-.3 2.5c-2 0-4.3 2.3-4.9 7.3 4.7 0 7.3-2.2 7.3-5 0-1.5-.8-2.3-2.4-2.3z"/><path d="m300.9 28.8h-2.8l1.7-19.2 2.9-.4zm1.2-27.5c1 0 1.5.6 1.5 1.6 0 1.1-.7 1.9-1.9 1.9-.9 0-1.5-.5-1.5-1.5-.1-1.2.7-2 1.9-2z"/><path d="m319.2 28.8h-2.7l.3-3.2h-.1c-1.8 2.4-3.7 3.5-5.9 3.5-2.6 0-4.4-1.8-4.4-6.7 0-8.7 4.4-13.4 9.2-13.4 1 0 1.8.1 2.5.2l.7-7.9 2.9-.4zm-1.2-17.1c-.7-.2-1.7-.2-2.5-.2-3 0-6.1 3.7-6.1 10.8 0 3.3 1 4.4 2.4 4.4s3.3-1.3 5.2-3.9z"/></g></g></svg>