<?xml version="1.0" encoding="UTF-8"?>
<svg width="250px" height="250px" viewBox="0 0 250 250" version="1.1" xmlns="http://www.w3.org/2000/svg" xmlns:xlink="http://www.w3.org/1999/xlink">
    <!-- Generator: Sketch 53.2 (72643) - https://sketchapp.com -->
    <title>da-01-problemen-oplossen-thumb</title>
    <desc>Created with Sketch.</desc>
    <g id="da-01-problemen-oplossen-thumb" stroke="none" stroke-width="1" fill="none" fill-rule="evenodd">
        <g transform="translate(91.000000, 98.000000)" fill-rule="nonzero" id="01-problemen-oplossen">
            <g>
                <path d="M69.7961569,130.874477 L68.7259806,128.461969 L61.1837854,128 L61.8972363,129.745218 L52.4694924,132.825014 C51.9831558,133.184052 51.5386736,133.597315 51.1445122,134.056933 C50.9781073,134.242564 50.9527729,134.516342 51.0822519,134.729751 C51.211731,134.943161 51.4651671,135.045345 51.7050807,134.980872 L60.9289815,134.724222 L62.0501186,134.518902 L62.1520402,134.518902 L64.496236,133.954273 L64.8529614,134.467572 L69.5923138,134.313582 L69.7961569,134.210922 C70.2548039,134.005603 69.7961569,130.874477 69.7961569,130.874477 Z" id="Path" fill="#D9D9D9"></path>
                <path d="M78.8997224,131.259474 L77.8760552,128.694642 L70.3009176,128 L71.0174846,129.816756 L61.3950126,132.755626 C60.9101002,133.093644 60.4784258,133.508247 60.1154286,133.984608 C59.9796121,134.181919 59.9622885,134.442421 60.0706854,134.657432 C60.1790823,134.872442 60.3945768,135.005021 60.6272622,134.999854 L69.8402673,134.999854 L70.9663013,134.786118 L71.068668,134.786118 L73.474286,134.305212 L73.7813862,134.786118 L78.7461723,134.786118 C79.2068226,134.518948 78.8997224,131.259474 78.8997224,131.259474 Z" id="Path" fill="#D9D9D9"></path>
                <path d="M61.5188917,70 L59,100.205314 C59,100.205314 60.3602015,118.033816 59.3526448,130.165056 L69.1763224,131 C69.1763224,131 71.8463476,106.786634 70.8891688,102.022544 C74.3148615,86.6006441 79,70.3438003 79,70.3438003 L61.5188917,70 Z" id="Path" fill="#0A9486"></path>
                <path d="M61,71.0002858 L61.6981627,101.509003 C61.6981627,101.509003 65.9868766,120.71449 67.7322835,132.817948 C78.1049869,133.468134 79.2020997,132.167762 79.2020997,132.167762 C79.2020997,132.167762 75.511811,106.010289 73.9160105,101.35896 C75.1627297,85.354387 80,70 80,70 L61,71.0002858 Z" id="Path" fill="#7FC6B1"></path>
                <path d="M63.924647,22.0720611 C65.8031153,25.8754293 65.460628,30.4488973 63.0383891,33.9068705 C62.2454215,35.0661988 74,25.0186871 74,25.0186871 C74,25.0186871 71.7610327,19.5118779 72.0409036,18.6423817 C72.3207745,17.7728855 70.5016136,17 70.5016136,17 L63.924647,22.0720611 Z" id="Path" fill="#F0B785"></path>
                <path d="M70.0443035,18.4144536 C69.4257743,18.9454116 69.0451409,19.814252 68.3314534,20.1521343 C67.6177659,20.4900167 67.9983992,20.5382856 66.6186033,21.5036638 C66.1723837,21.7435004 65.6900496,21.9066092 65.1912283,21.9863529 L62.1461615,22.8551933 C61.8866159,22.9497395 61.613083,22.9987098 61.3373156,23 C60.7725325,22.8983228 60.2830785,22.5436446 60.0050989,22.0346218 C59.9324381,21.9724723 59.8822223,21.8875659 59.8623614,21.7932773 C59.767203,21.407126 60.2905739,21.0692436 60.1478364,20.7313612 C60.0050989,20.3934789 59.8623614,20.4417478 59.767203,20.2969411 C59.6720447,20.1521343 59.6720447,19.765983 59.767203,19.4763696 C59.8623614,19.1867561 59.3389905,19.2832939 59.2914113,19.0419494 C59.3067304,18.812418 59.2743097,18.5821833 59.196253,18.3661847 C59.0059363,18.0283023 58.5777238,17.9800334 58.1970905,17.8352267 C58.0574026,17.789059 57.9750622,17.6428743 58.0067738,17.4973443 C58.1893617,16.9843097 58.4635531,16.5097907 58.8156197,16.0975459 C59.1486738,15.7113946 59.5293072,15.2769744 59.481728,14.7942853 C59.3912117,14.5126526 59.2798776,14.2383501 59.1486738,13.9737139 C59.0059363,13.346218 59.3865697,12.7187222 59.5293072,12.0912264 C59.6720447,11.4637306 59.5768864,11.1258482 59.6244655,10.6431591 C59.6529074,10.1529227 59.8557875,9.68982498 60.1954156,9.33989854 C61.2897364,8.37452034 61.7655281,7.26433542 63.145324,6.63683959 C65.5242824,5.57492358 68.4741909,5.91280594 70.8055702,7.11952869 C71.5132606,7.47385793 72.156736,7.94714061 72.7087369,8.51932707 C73.0861924,9.01163473 73.3760194,9.567022 73.565162,10.16047 C74.0478429,11.4227111 74.1309927,12.8061352 73.8030578,14.1185206 C73.4337488,15.445169 72.6277755,16.6035168 71.5192577,17.4008065 C71.043466,17.7386888 70.5200952,18.0283023 70.0443035,18.4144536 Z" id="Path" fill="#F9BF8E"></path>
                <path d="M46.6988145,55.0481788 C46.6031279,54.9397765 46.0290087,55.0481788 45.8854789,55.0481788 L44.1631213,55.0481788 C43.1105694,55.0481788 42.0580175,55.4817883 41.0054656,55.4817883 C40.6705627,55.5359894 39.665854,55.3733859 39.4266377,55.698593 C39.1874214,56.0238001 39.3787944,55.8611965 39.3787944,55.9153977 C39.7136973,57.2704272 41.2925252,56.7826166 42.153704,56.6742142 L43.2062559,56.6742142 L40.6705627,58.2460484 C40.19213,58.5170543 37.6564368,59.9804862 38.0391829,60.5766992 C38.4219291,61.1729122 38.6611454,60.6851015 38.9003617,60.5766992 C39.9546882,60.1413755 40.9782914,59.6159181 41.9623309,59.004865 L39.5223242,60.5766992 C39.1395781,60.8477051 37.7521233,61.8775275 38.1348695,62.4195393 C38.2547325,62.5712369 38.4395249,62.6340417 38.6133021,62.5821428 C39.86374,62.0074616 41.0388383,61.2415326 42.1058607,60.3056933 L39.6180108,62.2569357 C39.3787944,62.4737405 38.9960483,62.8531487 39.0917348,63.1783558 C39.1874214,63.5035629 39.8093838,63.4493617 40.0486002,63.2867582 C41.1001459,62.7339425 42.1084602,62.0811942 43.0627261,61.3355157 C42.4886069,62.0943322 40.0964435,63.82877 40.9576223,63.9913735 C41.1906491,64.0232986 41.4264091,63.966065 41.627428,63.82877 L44.8807703,62.0943322 C45.501641,61.7800005 46.0944293,61.3988424 46.6509712,60.9561074 L48.2776423,59.7094803 C49.0909779,59.1132673 49.4258808,58.4628532 50,57.6498355 L46.6988145,55.0481788 Z" id="Path" fill="#F9BF8E"></path>
                <path d="M71.6117755,20.153718 C71.8147177,19.8561389 71.990601,19.5394872 72.1371423,19.2078734 C72.6221255,17.9733121 73.0367719,16.709989 73.3789183,15.424495 C73.7974411,14.142355 74.0072983,12.7962878 73.9998063,11.4419915 C73.9932715,10.0813938 73.5754743,8.75755403 72.8057909,7.65861308 C71.9597539,6.60400545 70.8276968,5.84050658 69.558069,5.46823612 C68.2692793,5.0929155 66.9299563,4.94154333 65.5939379,5.02020447 C64.5952015,5.06823553 63.6033968,5.2182984 62.6327797,5.46823612 C62.1346808,5.53392324 61.6504956,5.68532434 61.1999613,5.91626777 C60.8601144,6.20489673 60.4918962,6.45519913 60.1014671,6.66298719 C59.5485183,6.86256287 58.9672445,6.96354063 58.3820849,6.96167495 L58.0955212,6.96167495 C58.0353892,7.00868203 58,7.082455 58,7.16080013 C58,7.23914526 58.0353892,7.31291823 58.0955212,7.35992531 C59.1462548,9.94855262 62.7760616,9.69964615 63.7312739,12.3878361 C63.9271184,13.0182761 64.0552636,13.6694147 64.1133588,14.3293065 C64.20888,14.9266821 64.4476831,15.5738389 64.4954437,16.2209957 C64.5432044,16.8681526 64.2566407,17.117059 64.7342468,17.3659655 C65.211853,17.614872 65.7372197,17.2166216 65.7372197,17.117059 C65.7030927,16.5454974 65.7678022,15.9721955 65.9282622,15.424495 C66.0684335,14.8378375 66.4301525,14.3351406 66.9312351,14.0306188 C67.4718692,13.7532787 68.1153902,13.8107713 68.6028567,14.1799627 C69.0804628,14.6279943 69.0327022,15.424495 68.937181,16.1214331 C68.8416598,16.8183713 68.2207718,18.1624662 67.1222776,18.3615914 C67.5276843,18.5154494 67.8324103,18.8704348 67.9342081,19.307436 C67.9819687,19.4069986 67.9819687,19.5563425 68.0774899,19.6061238 L68.3640536,19.6061238 C69.7491115,19.6061238 70.3222389,20.0541554 71.2296906,21 C71.3389882,20.7094235 71.4666292,20.4267108 71.6117755,20.153718 L71.6117755,20.153718 Z" id="Path" fill="#5A4B42"></path>
                <path d="M66.2177325,37.016069 C64.674014,37.1133431 62.8813086,38.0374464 62.4331323,39.7883789 C61.984956,41.5393115 60.8894138,43.7766142 60.1424533,45.8193688 C59.3954927,47.8621235 58.2003558,48.6403157 56.2582583,49.7103301 C54.3161609,50.7803444 49.7846002,52.823099 49.7846002,52.823099 C48.5396659,53.5040173 47.0955422,54.0390244 46,54.9631277 C46.7469606,56.3249642 47.344529,57.6381636 47.9918948,59 C50.0833844,58.4649928 57.5031926,55.6440459 59.8934664,54.8658537 C62.2837402,54.0876614 69.5541563,45.9166429 69.9027379,43.19297 C70.2513195,40.4692971 69.8031432,36.7242469 66.2177325,37.016069 Z" id="Path" fill="#F9BF8E"></path>
                <path d="M60.0436086,71 L81,71 C80.0475542,65.3569097 79.5331926,59.6429389 79.4619162,53.9136461 C79.4619162,50.9573561 79.5099813,48.1513859 79.7022418,45.4957356 C79.9361683,42.0398196 79.6112071,38.5674949 78.7409395,35.2238806 C78.4295217,33.4244745 77.9464728,31.6619946 77.2989859,29.9626866 C75.712837,25.7036247 73.7421672,24 73.7421672,24 L69.7046973,25.9541578 C66.720897,28.1280537 64.2411242,30.9699487 62.4468645,34.271855 C59.6110225,39.6332623 59.9955435,44.0927505 60.0436086,58.3731343 C60.0916737,61.2292111 60.0916737,65.5884861 60.0436086,71 Z" id="Path" fill="#7FC6B1"></path>
                <path d="M68.4310181,74.7512961 L66.4833165,73.474299 C66.2669052,73.3760685 66.0504939,73.0813768 65.8340826,73.0322616 C65.6176714,72.9831463 65.6176714,72.9831463 65.5094657,73.0813768 C64.0486895,74.6039503 63.2371471,74.8004113 62.371502,75.9791778 C62.2632963,76.1756389 61.9927822,77.7473276 62.2091935,77.7473276 L61.3976512,79.4172468 C61.2353427,79.810169 60.4779032,82.9044311 61.6140625,82.70797 C62.7502217,82.5115089 62.2091935,80.5468981 62.4256048,80.2522064 C62.8210015,79.6250779 63.2544928,79.018387 63.7240726,78.4349414 L62.2091935,82.6097395 C62.1009879,82.9535464 61.9927822,83.4446991 62.3173992,83.6411602 C62.6420161,83.8376212 62.7502217,83.6411602 62.966633,83.4938143 C63.1963793,83.2627197 63.379517,82.9967119 63.5076613,82.70797 C64.0486895,81.627434 64.5356149,80.4977828 65.1848488,79.3681316 C64.7952086,80.67401 64.3071325,81.9540251 63.7240726,83.1991227 C63.6699697,83.3955838 63.7240726,83.8376212 63.886381,83.9358518 C64.056961,84.0371888 64.2823116,84.0167312 64.4274093,83.8867365 C64.9684375,83.4446991 65.2930544,82.6097395 65.6176714,82.0203562 C65.9422883,81.430973 66.5374193,80.2030912 66.8620363,80.0557454 C66.321008,80.890705 66.2128024,81.1362813 65.1307459,83.0517769 C65.0766431,83.1991227 65.0225403,83.7393907 65.1848488,83.8376212 C65.4867414,83.8363766 65.7768337,83.7310368 65.9963911,83.5429296 C67.0121749,82.283601 67.9167062,80.953345 68.7015323,79.5645926 C69.5130746,78.3858261 69.2966633,77.4035207 70,76.1265237 L68.4310181,74.7512961 Z" id="Path" fill="#F9BF8E"></path>
                <g id="_7">
                    <path d="M13.3934066,65.1316364 C13.867772,66.0032825 14.2720353,66.9129483 14.6021978,67.8516364 L13.8769231,68.3461818 C12.1362637,69.4341818 9.81538462,70.3243636 7.92967033,71.2145455 C7.05934066,69.5330909 6.47912088,66.9614545 5.51208791,65.3294545 C3.09450549,61.2741818 0.0967032967,48.8116364 0.435164835,47.4269091 C1.4021978,43.3221818 2.36923077,39.168 3.19120879,35.0138182 C3.62637363,32.6894545 4.78681319,28.3374545 7.54285714,27.3483636 L8.17142857,27.2 C12.7164835,26.5570909 13.5384615,32.4916364 13.2483516,35.4094545 C12.9582418,38.3272727 12.1362637,40.1570909 11.2659341,42.4814545 C9.91208791,46.1905455 8.36483516,46.1905455 9.42857143,50.0974545 C10.4923077,54.0043636 11.4593407,61.3236364 13.3934066,65.1316364 Z" id="Path" fill="#374549"></path>
                    <path d="M13.2,129.472 L14.5054945,127.147636 L21.9032967,127.246545 L21.032967,128.928 C22.700545,129.824759 24.4494356,130.553522 26.2549451,131.104 C27.665763,131.509664 29.1041793,131.807215 30.5582418,131.994182 C30.6065934,132.043636 31.9604396,132.538182 31.7186813,133.378909 C31.4769231,134.219636 20.8879121,133.725091 20.5010989,133.626182 L20.4527473,133.626182 L18.1802198,132.884364 L17.7934066,133.329455 L13.2,132.834909 L12.9582418,132.834909 C12.5230769,132.538182 13.2,129.472 13.2,129.472 Z" id="Path" fill="#161618"></path>
                    <path d="M0.967032967,130.955636 L2.17582418,128.581818 L9.57362637,128.384 L8.75164835,130.065455 C10.0202216,131.017264 11.4221269,131.767551 12.9098901,132.290909 C14.5214584,132.923695 16.2162984,133.307065 17.9384615,133.428364 C18.6637363,133.576727 18.8087912,134.219636 19.1472527,134.714182 C19.293387,134.91131 19.3046349,135.180478 19.1754784,135.38964 C19.046322,135.598802 18.8038582,135.704077 18.567033,135.653818 L9.52527473,135.109818 L8.46153846,134.813091 L8.41318681,134.813091 L6.09230769,134.170182 L5.70549451,134.615273 L1.11208791,134.368 L0.87032967,134.269091 C0.435164835,134.071273 0.967032967,130.955636 0.967032967,130.955636 Z" id="Path" fill="#1E1D1F"></path>
                    <path d="M22.7252747,67.4065455 L27.8021978,98.6123636 C27.8021978,98.6123636 22.1934066,116.613818 23.1604396,129.274182 C14.5538462,129.966545 13.1032967,127.048727 13.1032967,127.048727 C13.1032967,127.048727 14.1186813,104.695273 15.0857143,99.7498182 C11.6527473,83.6770909 3.67472527,67.7527273 3.67472527,67.7527273 L22.7252747,67.4065455 Z" id="Path" fill="#1E2527"></path>
                    <path d="M23.3538462,67.8516364 L21.1296703,99.7498182 C21.1296703,99.7498182 13.3934066,118.641455 11.6527473,131.005091 C1.74065934,129.373091 1.16043956,129.373091 1.16043956,129.373091 C1.16043956,129.373091 7.3010989,104.398545 8.84835165,99.6014545 C7.59120879,83.232 2.75604396,67.5054545 2.75604396,67.5054545 L23.3538462,67.8516364 Z" id="Path" fill="#273035"></path>
                    <path d="M21.2747253,19.2378182 L20.6945055,19.7323636 C19.9208791,20.4741818 20.0175824,21.6610909 19.6791209,22.4029091 C19.3190283,23.1649572 18.7471865,23.8014502 18.0351648,24.2327273 C15.3758242,25.8152727 9.38021978,20.9687273 9.38021978,20.9687273 L9.38021978,20.9687273 C9.38021978,20.9687273 12.9098901,15.2814545 12.7164835,14.2923636 C12.5230769,13.3032727 14.7956044,12.7098182 14.7956044,12.7098182 L21.2747253,19.2378182 Z" id="Path" fill="#854B29"></path>
                    <path d="M14.5538462,13.9956364 C15.1340659,14.6385455 15.4241758,15.6276364 16.1494505,16.1716364 C16.8747253,16.7156364 16.4879121,16.6167273 17.8417582,17.8530909 C18.2778839,18.1873092 18.7692205,18.4385812 19.2923077,18.5949091 L22.5318681,19.9796364 C22.8059525,20.1222248 23.0992852,20.2222326 23.4021978,20.2763636 C24.0356339,20.2232779 24.6245707,19.9220927 25.0461538,19.4356364 L25.2395604,19.1883636 C25.3846154,18.7927273 24.9010989,18.2981818 25.1428571,17.952 C25.3846154,17.6058182 25.4813187,17.7047273 25.6263736,17.5069091 C25.7714286,17.3090909 25.8197802,16.9629091 25.7230769,16.6661818 C25.6263736,16.3694545 26.4,16.0232727 26.4,16.0727273 C26.4,16.1221818 26.4967033,15.7265455 26.9802198,15.6276364 C27.4637363,15.5287273 27.5604396,15.6770909 27.9472527,15.3803636 C28.3340659,15.0836364 27.8021978,13.6989091 27.4153846,13.056 C27.0285714,12.4130909 26.7868132,12.0669091 26.9318681,11.5723636 C27.4637363,9.64363636 28.4307692,8.35781818 27.7538462,6.18181818 C27.1642744,4.44288179 25.9558113,2.99496321 24.3692308,2.12654545 C21.7034323,0.7305634 18.5984508,0.498622518 15.7626374,1.48363636 C14.8988831,1.75114213 14.0942126,2.18784923 13.3934066,2.76945455 C12.8830465,3.23289298 12.4573665,3.78550305 12.1362637,4.40145455 C11.3915792,5.70084602 11.054084,7.2024375 11.1692308,8.704 C11.3401497,10.2140252 12.0247682,11.6144945 13.1032967,12.6603636 C13.6093062,13.0792081 14.0934878,13.5249113 14.5538462,13.9956364 Z" id="Path" fill="#9F6035"></path>
                    <path d="M12.378022,15.0341818 C12.2029497,14.9356379 12.0663649,14.778475 11.9912088,14.5890909 C9.85279884,10.8165486 10.0220483,6.12334222 12.4263736,2.52218182 C13.2967033,1.23636364 15.3758242,0.445090909 16.9230769,0.148363636 C20.2593407,-0.395636364 23.0637363,0.692363636 25.578022,2.72 C25.8197802,2.91781818 26.0615385,3.11563636 26.0615385,3.41236364 C26.0615385,3.70909091 26.5934066,3.46181818 26.0615385,3.41236364 C25.5296703,3.36290909 23.5956044,5.24218182 23.6923077,6.37963636 C23.7045144,6.85233393 23.509418,7.30584889 23.1604396,7.616 C22.0483516,8.55563636 21.8065934,8.80290909 21.3230769,10.2370909 C21.1296703,10.88 20.7428571,11.5229091 20.5978022,12.2152727 C20.4527473,12.9076364 20.6945055,13.2043636 20.1626374,13.4021818 C19.7672509,13.3895511 19.3895754,13.2315232 19.0989011,12.9570909 C19.2276277,12.3565079 19.260286,11.7385487 19.1956044,11.1272727 C19.1313973,10.5130561 18.8149861,9.95569588 18.3252747,9.59418182 C17.8152376,9.17383873 17.1058469,9.11500858 16.5362637,9.44581818 C15.4725275,10.1876364 15.5692308,12.8087273 15.3758242,13.9461818 C15.3503675,14.1586813 15.2466096,14.353243 15.0857143,14.4901818 C14.9588577,14.6293939 14.7871978,14.7171816 14.6021978,14.7374545 L13.1032967,15.0836364 C12.9002907,15.1592312 12.6777313,15.1592312 12.4747253,15.0836364 L12.378022,15.0341818 Z" id="Path" fill="#111111"></path>
                    <path d="M18.2285714,23.2436364 C18.4703297,23.936 19.0989011,23.1447273 19.4857143,24.48 C20.4598891,27.7253542 21.1555636,31.0514029 21.5648352,34.4203636 C21.759312,36.0944409 21.8561867,37.7788745 21.8549568,39.4647273 C18.0351648,34.6676364 14.5538462,32.0465455 12.6197802,29.6232727 C10.6857143,27.2 8.50989011,23.8865455 8.31648352,23.0458182 C8.14822242,22.0715717 8.52033531,21.0820097 9.28351648,20.4741818 C11.6043956,18.3476364 16.632967,22.1061818 16.632967,22.1061818 L18.2285714,23.2436364 Z" id="Path" fill="#DDDEDF"></path>
                    <polygon id="Path" fill="#FFFFFF" points="10.3956044 17.9025455 19.3406593 23.6392727 16.8747253 24.7272727 8.84835165 20.8698182"></polygon>
                    <path d="M24.6593407,68.9396364 L1.30549451,68.9396364 C2.17582418,63.7963636 2.12747253,57.6145455 2.17582418,51.1854545 C2.22417582,48.1687273 1.74065934,45.2509091 1.54725275,42.5309091 C1.30585493,39.125659 1.59969228,35.7028451 2.41758242,32.3927273 L5.07692308,26.9032727 L8.84835165,20.8698182 L13.0549451,22.8974545 C16.1642663,25.1295481 18.7558293,28.0334737 20.6461538,31.4036364 C23.5956044,36.8930909 24.756044,41.344 24.6593407,55.9330909 C24.6593407,58.8509091 24.610989,63.4501818 24.6593407,68.9396364 Z" id="Path" fill="#2B383D"></path>
                    <path d="M9.76703297,18.9410909 C9.76703297,18.9410909 18.3252747,26.2109091 21.5164835,32.9861818 C15.9076923,27.744 13.6835165,27.744 13.6835165,27.744 L13.6835165,24.0349091 L11.3142857,25.9141818 L8.50989011,20.7214545 L9.76703297,18.9410909 Z" id="Path" fill="#3C5656"></path>
                    <rect id="Rectangle" fill="#3C5656" x="12.232967" y="59.4938182" width="7.44615385" height="2.45294545"></rect>
                    <path d="M35.2967033,58.2574545 C35.4417582,58.1585455 36.021978,58.4058182 36.2153846,58.4058182 L38.0527473,58.752 C39.2131868,58.9992727 40.2769231,59.5927273 41.4373626,59.84 C41.7758242,59.9389091 42.9362637,60.0378182 43.1296703,60.3345455 C43.1862418,60.4068149 43.1862418,60.5095487 43.1296703,60.5818182 C42.5010989,61.8181818 40.9054945,61.0269091 39.9384615,60.7796364 C39.554543,60.7088426 39.1671652,60.6593158 38.778022,60.6312727 L41.243956,62.6589091 C41.7274725,63.0545455 44.1450549,64.9832727 43.6131868,65.5272727 C43.0813187,66.0712727 42.8879121,65.4778182 42.6461538,65.3294545 C41.6017537,64.6895951 40.6002616,63.9791685 39.6483516,63.2029091 L42.0175824,65.2305455 C42.356044,65.5272727 43.7098901,66.8130909 43.1296703,67.3076364 C42.9842782,67.4465374 42.7653,67.4668985 42.5978022,67.3570909 C41.330868,66.5466828 40.1899667,65.5464612 39.2131868,64.3898182 L41.5824176,66.8625455 C41.7758242,67.0603636 42.1142857,67.5054545 41.9208791,67.8516364 C41.7274725,68.1978182 41.0989011,67.9505455 40.8571429,67.8021818 C39.8360997,67.0108666 38.8669803,66.151805 37.956044,65.2305455 C38.4395604,66.1207273 40.7120879,68.2967273 39.7450549,68.2472727 C39.4920682,68.2339597 39.252031,68.1287401 39.0681319,67.9505455 L35.7802198,65.6261818 C35.1978233,65.1551416 34.6484867,64.6428512 34.1362637,64.0930909 L32.6373626,62.56 C31.8637363,61.8181818 29.4461538,59.84 28.9626374,58.9003636 L35.2967033,58.2574545 Z" id="Path" fill="#9F6035"></path>
                    <path d="M12.5230769,26.7549091 C14.5538462,27.2989091 16.632967,28.9803636 16.7296703,31.5025455 C16.8263736,34.0247273 17.6,37.4370909 18.0351648,40.4538182 C18.4703297,43.4705455 19.7758242,44.8058182 22.0483516,46.8334545 C25.0461538,49.4050909 31.7186813,53.9054545 31.7186813,53.9054545 C33.2175824,55.1912727 34.9582418,56.2792727 36.1186813,57.8123636 C34.8131868,59.4938182 33.556044,61.2247273 32.3472527,62.9556364 C29.7362637,61.6698182 17.2131868,55.9330909 14.2637363,54.3010909 C11.3142857,52.6690909 4.3032967,38.7229091 4.64175824,34.816 C4.98021978,30.9090909 7.83296703,25.4690909 12.5230769,26.7549091 Z" id="Path" fill="#374549"></path>
                </g>
                <path d="M65,72.7952872 L68.8487973,76 C68.8487973,76 79,60.0765832 79,56.9720177 C78.95189,55.1192931 77.604811,50.1620029 76.5463918,46.4565538 L75.1993127,42 L70.4845361,46.7569956 C70.4845361,46.7569956 70.6769759,47.6583211 71.0137457,48.8600884 C71.5910653,51.1634757 72.5051546,54.718704 73.1305842,56.3210604 C74.0446735,58.724595 65,72.7952872 65,72.7952872 Z" id="Path" fill="#F9BF8E"></path>
                <path d="M67.7739493,47.0063568 C67.6264582,47.0063568 65.9057285,38.2250035 66.0040559,34.8322078 C66.1023833,31.4394122 67.478967,29.5434382 68.2655863,29.2440739 C70.6254442,28.445769 71.657882,29.6432263 73.1819569,32.2876111 C74.7060317,34.931996 78,46.7069925 78,46.7069925 L68.4130774,50 L67.7739493,47.0063568 Z" id="Path" fill="#9ED2C1"></path>
                <path d="M64,27.7425743 C62.8311688,28.2871287 62.1298701,29.7227723 61.5454545,32 L61,31.7524752 C61.6233766,29.2277228 62.6363636,27.6435644 64,27" id="Path" fill="#240C09"></path>
                <path d="M55.038575,40.341678 C54.9882593,40.45594 54.9871211,40.585651 55.0354238,40.7007664 C55.0837266,40.8158818 55.1772797,40.9064142 55.2944136,40.9513939 L56.7271099,41.4594904 L56.7271099,41.4594904 C56.9774668,41.4953829 57.2166648,41.3442312 57.2899549,41.1038228 C57.355245,40.8520005 57.2525151,40.586772 57.0341162,40.4432973 L56.3689358,40.2400586 C56.1441059,40.1270951 56.0355611,39.8684105 56.1130972,39.6303427 C56.6826941,37.7478151 57.401281,35.9129508 58.2621416,34.1428997 C58.8249866,33.1775162 59.3366638,32.4153713 59.8483411,32.1613231 C60.0246756,32.0247718 60.2656906,32.0048277 60.4623538,32.1105134 C60.9228633,32.4153713 61.1275342,33.3807548 61.0763665,34.6001866 C61.0170902,36.6385147 60.7426948,38.665049 60.2576829,40.6465359 C60.2138492,40.8409922 60.0482534,40.9848746 59.8483411,41.0022035 L58.9784898,40.9005842 C58.7226511,40.8497745 58.5179802,41.0530132 58.4668125,41.3578711 C58.4364301,41.4793807 58.4575473,41.6079463 58.5252373,41.713572 C58.5929273,41.8191976 58.7012696,41.8926448 58.8249866,41.9167773 L59.5925025,41.9167773 C59.8995088,41.967587 60.4623538,42.120016 60.7181924,41.815158 C60.974031,41.5103001 60.8716956,41.5611097 60.9228633,41.4086808 C61.0149155,41.1615399 61.0834387,40.9063758 61.1275342,40.6465359 C61.3906438,39.540056 61.5955918,38.4207301 61.7415469,37.2930985 C61.8774506,36.4350033 61.962875,35.5697721 61.9973855,34.7018059 C62.0070416,34.3284684 61.9899426,33.9549216 61.9462178,33.5839935 C61.8438824,32.6694196 61.6392115,31.6024168 60.9228633,31.1451299 C60.4820514,30.9349996 59.9652855,30.9540051 59.5413347,31.1959396 C58.7738189,31.6024168 58.0574707,32.6694196 57.3922903,33.8888514 C56.395548,35.9575403 55.6071443,38.1189881 55.038575,40.341678 Z" id="Path" fill="#FFFFFF"></path>
                <path d="M58,35.121559 L58.7551268,35.3411693 C59.2437383,34.2980206 59.6879306,33.4744821 60.1321229,33.1999693 C60.2852006,33.0524183 60.4944283,33.0308677 60.6651536,33.1450668 C61.0649266,33.4744821 61.2426035,34.5176308 61.1981843,35.8352923 L61.9977304,36 C62.0061129,35.5965887 61.991269,35.1929514 61.9533111,34.7921436 C61.8644727,33.8038975 61.6867958,32.6509437 61.0649266,32.1568206 C60.6822533,31.9297636 60.2336435,31.9503001 59.8656075,32.2117232 C59.1993191,32.6509437 58.5774499,33.8038975 58,35.121559 Z" id="Path" fill="#240C09"></path>
                <path d="M72.7537834,23.0987261 L72.3535882,22 C75.2049795,24.6273885 74.1044425,27.4458599 70.9529047,30.0254777 C66.5507567,33.7038217 65.8003905,36.9522293 65.8003905,37 L65,36.8566879 C65.0500244,36.7133758 65.7503661,33.3216561 70.4526606,29.4522293 C73.554174,26.8726115 73.4041008,24.6751592 72.7537834,23.0987261 Z" id="Path" fill="#240C09"></path>
                <path d="M62.4568862,37.7292744 C62.1192315,38.1384233 61.958196,38.6650813 62.0092943,39.1930996 C62.0603927,39.7211179 62.3194275,40.2071237 62.7292715,40.5439337 C63.280717,40.9980671 64.0325498,41.1235098 64.701562,40.8730088 C65.3705742,40.6225079 65.8551267,40.0341203 65.9726935,39.329486 C66.0902602,38.6248516 65.8229798,37.9110214 65.2715344,37.456888 C64.8623871,37.119232 64.3357313,36.9581958 63.807715,37.0092944 C63.2796988,37.0603929 62.7936949,37.3194288 62.4568862,37.7292744 L62.4568862,37.7292744 Z" id="Path" fill="#FFFFFF"></path>
                <path d="M64.2381539,37.3756964 C64.061648,37.5759263 63.9770888,37.8422535 64.0053519,38.1089284 C64.0336149,38.3756034 64.1720664,38.6177751 64.3865261,38.7756574 C64.6974575,39.0314301 65.1303442,39.0722006 65.4826604,38.8788944 C65.8349765,38.6855882 66.0370528,38.2964309 65.9943478,37.8934897 C65.9516429,37.4905486 65.6726014,37.1535037 65.287773,37.0400415 C64.9029446,36.9265794 64.4884277,37.0591366 64.2381539,37.3756964 L64.2381539,37.3756964 Z" id="Path" fill="#5B95C1"></path>
            </g>
        </g>
    </g>
</svg>