<svg height="400" viewBox="0 0 1200 400" width="1200" xmlns="http://www.w3.org/2000/svg" xmlns:xlink="http://www.w3.org/1999/xlink"><defs><path id="a" d="m.664 241.679v184h1239v-184z"/><filter id="b" height="158.7%" width="108.7%" x="-3.6%" y="-28.3%"><feMorphology in="SourceAlpha" operator="dilate" radius="7" result="shadowSpreadOuter1"/><feOffset dx="9" dy="2" in="shadowSpreadOuter1" result="shadowOffsetOuter1"/><feGaussianBlur in="shadowOffsetOuter1" result="shadowBlurOuter1" stdDeviation="9.5"/><feColorMatrix in="shadowBlurOuter1" type="matrix" values="0 0 0 0 0.628368433   0 0 0 0 0.628368433   0 0 0 0 0.628368433  0 0 0 0.5 0"/></filter></defs><g fill="none"><g transform="translate(-17)"><path d="m17 0v400h1200v-400z" fill="#ddeff8"/><use fill="#000" filter="url(#b)" xlink:href="#a"/><use fill="#bcdff1" xlink:href="#a"/></g><path d="m667.789 151h-7.137l1.911-25.584h6.63c3.406017 0 6.161989.99449 8.268 2.9835s3.159 4.699483 3.159 8.1315c0 4.758024-1.176488 8.358988-3.5295 10.803s-5.453481 3.666-9.3015 3.666zm.975-23.088h-3.471l-1.521 20.592h4.329c2.730014 0 4.985491-.942491 6.7665-2.8275s2.6715-4.77748 2.6715-8.6775c0-2.834014-.786492-5.056992-2.3595-6.669s-3.711486-2.418-6.4155-2.418zm25.74 17.082.975-10.842c-.338002-.078-.727998-.1365-1.17-.1755s-.870998-.0585-1.287-.0585c-1.456007 0-2.814494.896991-4.0755 2.691s-1.8915 4.432983-1.8915 7.917c0 1.586008.227498 2.697497.6825 3.3345s1.007497.9555 1.6575.9555c.676003 0 1.462496-.318497 2.3595-.9555s1.813495-1.592494 2.7495-2.8665zm1.638-13.104 2.34-.39-1.755 19.5h-2.691l.312-3.12h-.117c-.858004 1.196006-1.767995 2.073497-2.73 2.6325s-1.975995.8385-3.042.8385c-1.274006 0-2.307496-.500495-3.1005-1.5015s-1.1895-2.710488-1.1895-5.1285c0-4.238021.929491-7.487989 2.7885-9.75s3.958488-3.393 6.2985-3.393c.572003 0 1.091998.026 1.56.078s.909998.129999 1.326.234zm6.084 2.262v-2.223h2.223l.39-4.095 2.769-.429-.468 4.524h3.939l-.234 2.223h-3.939l-1.131 11.193c-.130001 1.352007-.045501 2.268498.2535 2.7495s.773497.7215 1.4235.7215c.494002 0 .929498-.039 1.3065-.117s.851497-.207999 1.4235-.39v2.457c-.650003.234001-1.215498.39-1.6965.468s-1.111496.117-1.8915.117c-1.326007 0-2.307497-.441996-2.9445-1.326s-.851501-2.378989-.6435-4.485l1.17-11.388zm21.294 10.842.975-10.842c-.338002-.078-.727998-.1365-1.17-.1755s-.870998-.0585-1.287-.0585c-1.456007 0-2.814494.896991-4.0755 2.691s-1.8915 4.432983-1.8915 7.917c0 1.586008.227498 2.697497.6825 3.3345s1.007497.9555 1.6575.9555c.676003 0 1.462496-.318497 2.3595-.9555s1.813495-1.592494 2.7495-2.8665zm1.638-13.104 2.34-.39-1.755 19.5h-2.691l.312-3.12h-.117c-.858004 1.196006-1.767995 2.073497-2.73 2.6325s-1.975995.8385-3.042.8385c-1.274006 0-2.307496-.500495-3.1005-1.5015s-1.1895-2.710488-1.1895-5.1285c0-4.238021.929491-7.487989 2.7885-9.75s3.958488-3.393 6.2985-3.393c.572003 0 1.091998.026 1.56.078s.909998.129999 1.326.234zm22.62-4.134h-.273l-5.07 14.118h7.956zm2.379-2.34 5.07 25.584h-3.237l-1.248-6.63h-9.321l-2.301 6.63h-3.12l9.828-25.584zm18.876 19.578.975-10.842c-.338002-.078-.727998-.1365-1.17-.1755s-.870998-.0585-1.287-.0585c-1.456007 0-2.814494.896991-4.0755 2.691s-1.8915 4.432983-1.8915 7.917c0 1.586008.227498 2.697497.6825 3.3345s1.007497.9555 1.6575.9555c.676003 0 1.462496-.318497 2.3595-.9555s1.813495-1.592494 2.7495-2.8665zm1.638-13.104 2.34-.39-1.755 19.695c-.234001 2.626013-1.078993 4.510994-2.535 5.655s-3.15899 1.716-5.109 1.716c-.988005 0-1.904496-.039-2.7495-.117s-1.761495-.207999-2.7495-.39v-2.691c.962005.260001 1.871996.454999 2.73.585s1.715996.195 2.574.195c1.482007 0 2.658496-.383496 3.5295-1.1505s1.397499-2.008491 1.5795-3.7245l.351-3.393h-.117c-.884004 1.196006-1.800495 2.073497-2.7495 2.6325s-1.956495.8385-3.0225.8385c-1.274006 0-2.307496-.500495-3.1005-1.5015s-1.1895-2.710488-1.1895-5.1285c0-4.238021.929491-7.487989 2.7885-9.75s3.958488-3.393 6.2985-3.393c.572003 0 1.091998.026 1.56.078s.909998.129999 1.326.234zm5.811 12.402c0-4.290021.857991-7.48149 2.574-9.5745s3.56199-3.1395 5.538-3.1395c1.586008 0 2.807996.389996 3.666 1.17s1.287 1.858993 1.287 3.237c0 2.184011-.922991 3.964993-2.769 5.343s-4.341984 2.067-7.488 2.067c0 2.132011.337997 3.568496 1.014 4.3095s1.637994 1.1115 2.886 1.1115c.884004 0 1.735496-.116999 2.5545-.351s1.644496-.571998 2.4765-1.014v2.535c-.910005.494002-1.806996.844999-2.691 1.053s-1.923994.312-3.12.312c-1.898009 0-3.360495-.558994-4.3875-1.677s-1.5405-2.911988-1.5405-5.382zm10.179-7.956c0-.780004-.207998-1.364998-.624-1.755s-1.000996-.585-1.755-.585c-.962005 0-1.936995.591494-2.925 1.7745s-1.611999 2.996488-1.872 5.4405c2.288011 0 4.055994-.474495 5.304-1.4235s1.872-2.099493 1.872-3.4515zm15.6 14.664 1.209-12.597c.156001-1.560008.045502-2.638997-.3315-3.237s-.890497-.897-1.5405-.897c-.572003 0-1.306496.246998-2.2035.741s-1.943494 1.260995-3.1395 2.301l-1.248 13.689h-2.769l1.716-18.915 2.769-.351-.273 2.925h.117c1.118006-1.118006 2.144995-1.910998 3.081-2.379s1.845996-.702 2.73-.702c1.352007 0 2.391996.487495 3.12 1.4625s.988001 2.619488.78 4.9335l-1.248 13.026zm18.291-6.006 1.014-10.842c-.338002-.078-.734498-.1365-1.1895-.1755s-.890498-.0585-1.3065-.0585c-1.456007 0-2.814494.896991-4.0755 2.691s-1.8915 4.432983-1.8915 7.917c0 1.586008.227498 2.697497.6825 3.3345s1.007497.9555 1.6575.9555c.676003 0 1.462496-.318497 2.3595-.9555s1.813495-1.592494 2.7495-2.8665zm4.719-21.333-2.496 27.339h-2.691l.312-3.12h-.117c-.884004 1.196006-1.800495 2.073497-2.7495 2.6325s-1.956495.8385-3.0225.8385c-1.274006 0-2.307496-.500495-3.1005-1.5015s-1.1895-2.710488-1.1895-5.1285c0-4.238021.929491-7.487989 2.7885-9.75s3.958488-3.393 6.2985-3.393c.494002 0 .942498.0195 1.3455.0585s.773498.0975 1.1115.1755l.702-7.8zm13.221 21.333.975-10.842c-.338002-.078-.727998-.1365-1.17-.1755s-.870998-.0585-1.287-.0585c-1.456007 0-2.814494.896991-4.0755 2.691s-1.8915 4.432983-1.8915 7.917c0 1.586008.227498 2.697497.6825 3.3345s1.007497.9555 1.6575.9555c.676003 0 1.462496-.318497 2.3595-.9555s1.813495-1.592494 2.7495-2.8665zm1.638-13.104 2.34-.39-1.755 19.5h-2.691l.312-3.12h-.117c-.858004 1.196006-1.767995 2.073497-2.73 2.6325s-1.975995.8385-3.042.8385c-1.274006 0-2.307496-.500495-3.1005-1.5015s-1.1895-2.710488-1.1895-5.1285c0-4.238021.929491-7.487989 2.7885-9.75s3.958488-3.393 6.2985-3.393c.572003 0 1.091998.026 1.56.078s.909998.129999 1.326.234zm25.155-6.825c2.626013 0 4.770992.99449 6.435 2.9835s2.496 4.725483 2.496 8.2095c0 4.862024-1.189488 8.592987-3.5685 11.193s-5.115485 3.9-8.2095 3.9c-2.652013 0-4.803492-.870991-6.4545-2.613s-2.4765-4.393982-2.4765-7.956c0-5.096025 1.130989-8.989487 3.393-11.6805s5.056983-4.0365 8.385-4.0365zm-.507 2.691c-2.184011 0-4.088492 1.065989-5.7135 3.198s-2.4375 5.21298-2.4375 9.243c0 3.120016.584994 5.316994 1.755 6.591s2.690991 1.911 4.563 1.911c2.02801 0 3.893491-.98149 5.5965-2.9445s2.5545-4.90748 2.5545-8.8335c0-3.250016-.584994-5.589993-1.755-7.02s-2.690991-2.145-4.563-2.145zm15.912 23.244-3.315-19.071h2.964l2.535 16.536h.156l1.053-2.145c.962005-1.95001 1.780997-4.049489 2.457-6.2985s1.260998-4.946484 1.755-8.0925h2.886c-.494002 3.016015-1.156996 5.732988-1.989 8.151s-1.832994 4.731989-3.003 6.942l-2.106 3.978zm11.973-6.708c0-4.290021.857991-7.48149 2.574-9.5745s3.56199-3.1395 5.538-3.1395c1.586008 0 2.807996.389996 3.666 1.17s1.287 1.858993 1.287 3.237c0 2.184011-.922991 3.964993-2.769 5.343s-4.341984 2.067-7.488 2.067c0 2.132011.337997 3.568496 1.014 4.3095s1.637994 1.1115 2.886 1.1115c.884004 0 1.735496-.116999 2.5545-.351s1.644496-.571998 2.4765-1.014v2.535c-.910005.494002-1.806996.844999-2.691 1.053s-1.923994.312-3.12.312c-1.898009 0-3.360495-.558994-4.3875-1.677s-1.5405-2.911988-1.5405-5.382zm10.179-7.956c0-.780004-.207998-1.364998-.624-1.755s-1.000996-.585-1.755-.585c-.962005 0-1.936995.591494-2.925 1.7745s-1.611999 2.996488-1.872 5.4405c2.288011 0 4.055994-.474495 5.304-1.4235s1.872-2.099493 1.872-3.4515zm15.6-4.485-.351 2.73c-.208001-.026-.389999-.0455-.546-.0585s-.350999-.0195-.585-.0195c-.728004 0-1.494996.337997-2.301 1.014s-1.572996 1.611994-2.301 2.808l-1.092 12.675h-2.769l1.599-18.915 2.769-.351-.351 3.588h.156c.884004-1.560008 1.657497-2.573998 2.3205-3.042s1.384496-.702 2.1645-.702c.234001 0 .461499.0195.6825.0585s.422499.110499.6045.2145zm11.154 19.149 1.209-12.597c.130001-1.560008.019502-2.638997-.3315-3.237s-.851497-.897-1.5015-.897c-.598003 0-1.351995.246998-2.262.741s-1.949994 1.260995-3.12 2.301l-1.248 13.689h-2.769l2.457-26.988 2.808-.351-1.053 10.998h.117c1.118006-1.092005 2.144995-1.878498 3.081-2.3595s1.845996-.7215 2.73-.7215c1.352007 0 2.391996.487495 3.12 1.4625s.988001 2.619488.78 4.9335l-1.248 13.026zm7.839-6.708c0-4.290021.857991-7.48149 2.574-9.5745s3.56199-3.1395 5.538-3.1395c1.586008 0 2.807996.389996 3.666 1.17s1.287 1.858993 1.287 3.237c0 2.184011-.922991 3.964993-2.769 5.343s-4.341984 2.067-7.488 2.067c0 2.132011.337997 3.568496 1.014 4.3095s1.637994 1.1115 2.886 1.1115c.884004 0 1.735496-.116999 2.5545-.351s1.644496-.571998 2.4765-1.014v2.535c-.910005.494002-1.806996.844999-2.691 1.053s-1.923994.312-3.12.312c-1.898009 0-3.360495-.558994-4.3875-1.677s-1.5405-2.911988-1.5405-5.382zm10.179-7.956c0-.780004-.207998-1.364998-.624-1.755s-1.000996-.585-1.755-.585c-.962005 0-1.936995.591494-2.925 1.7745s-1.611999 2.996488-1.872 5.4405c2.288011 0 4.055994-.474495 5.304-1.4235s1.872-2.099493 1.872-3.4515zm7.566-10.413c0-.598003.175498-1.072498.5265-1.4235s.812497-.5265 1.3845-.5265c.494002 0 .870999.136499 1.131.4095s.39.656498.39 1.1505c0 .520003-.168998.968498-.507 1.3455s-.805997.5655-1.404.5655c-.442002 0-.805999-.129999-1.092-.39s-.429-.636998-.429-1.131zm2.535 5.811-1.755 19.266h-2.769l1.716-18.915zm14.001 13.26 1.014-10.842c-.338002-.078-.734498-.1365-1.1895-.1755s-.890498-.0585-1.3065-.0585c-1.456007 0-2.814494.896991-4.0755 2.691s-1.8915 4.432983-1.8915 7.917c0 1.586008.227498 2.697497.6825 3.3345s1.007497.9555 1.6575.9555c.676003 0 1.462496-.318497 2.3595-.9555s1.813495-1.592494 2.7495-2.8665zm4.719-21.333-2.496 27.339h-2.691l.312-3.12h-.117c-.884004 1.196006-1.800495 2.073497-2.7495 2.6325s-1.956495.8385-3.0225.8385c-1.274006 0-2.307496-.500495-3.1005-1.5015s-1.1895-2.710488-1.1895-5.1285c0-4.238021.929491-7.487989 2.7885-9.75s3.958488-3.393 6.2985-3.393c.494002 0 .942498.0195 1.3455.0585s.773498.0975 1.1115.1755l.702-7.8z" fill="#000"/><path d="m679.784 102-10.36-29.68h-.336v29.68h-6.44v-36.736h11.088l10.416 29.68h.336v-29.68h6.44v36.736zm20.384 0v-36.736h7.28v30.8h12.432v5.936zm46.816 0h-10.36v-36.736h10.696c6.309365 0 11.143983 1.5213181 14.504 4.564s5.04 7.2893061 5.04 12.74c0 6.6453666-1.782649 11.5453176-5.348 14.7-3.565351 3.154682-8.409303 4.732-14.532 4.732zm-3.08-30.8v24.864h3.416c3.584018 0 6.458656-1.0266564 8.624-3.08s3.248-5.41331 3.248-10.08c0-3.7706855-1.110656-6.6639899-3.332-8.68s-5.217314-3.024-8.988-3.024zm37.52-5.936v36.736h-7.28v-36.736zm24.472 24.024v-5.936h12.376v17.976c-1.829342.373335-3.649324.643999-5.46.812s-3.705323.252-5.684.252c-5.562694 0-10.033316-1.483985-13.412-4.452-3.378684-2.9680148-5.068-7.3639709-5.068-13.188 0-6.6453666 1.903981-11.6199835 5.712-14.924s8.605304-4.956 14.392-4.956c1.680008 0 3.173327.0559994 4.48.168s2.613327.2986654 3.92.56l-.504 6.16c-1.530674-.2240011-2.911994-.373333-4.144-.448s-2.557326-.112-3.976-.112c-3.696018 0-6.654656 1.0919891-8.876 3.276s-3.332 5.3853122-3.332 9.604c0 4.0693537 1.073323 7.1493229 3.22 9.24s4.750651 3.136 7.812 3.136c.784004 0 1.446664-.0186665 1.988-.056s1.18533-.093333 1.932-.168v-6.944zm27.608-24.024v36.736h-7.28v-36.736zm23.184 5.936v30.8h-7.28v-30.8h-10.08v-5.936h27.44v5.936zm28.392 17.08-4.536-16.968h-.392l-4.536 16.968zm1.232-23.016 10.696 36.736h-8.4l-2.016-7.896h-12.432l-2.016 7.896h-7.56l10.752-36.736zm32.48 23.016-4.536-16.968h-.392l-4.536 16.968zm1.232-23.016 10.696 36.736h-8.4l-2.016-7.896h-12.432l-2.016 7.896h-7.56l10.752-36.736zm16.016 36.736v-36.736h7.28v30.8h12.432v5.936z" fill="#007bc7"/><g transform="translate(1 76)"><g transform="translate(334 171)"><path d="m40.6 64.2-8.4-8-6.8-14.1 8-.4.4.4z" fill="#adb4bb"/><path d="m31.5 37.1s1.5 11.8 2.7 14.9c1.1 3 5.3 9.1 6.5 12.6 1.1 3.4 1.5 8.4 1.5 8.4s.4-10.3-1.1-15.6c-1.9-5.7-5-9.5-5.7-13-1.3-3.5-1.6-6.9-3.9-7.3" fill="#425b6b"/><path d="m149.6 10.4s-4.6 5.3-5.7 9.9c0 0-.4 1.1 0 1.9s.4 1.1-.4 2.3c-.8 1.1-2.3 2.7-1.5 3.8s2.3 1.5 2.3 1.5-1.5 2.7 0 3.4c0 0-1.1.8 0 2.3 1.1 1.1-1.1 4.2 3.4 5.7 5 1.1 6.1 2.7 6.9 3.8l.4 1.1 16.4-5.3s-1.1-2.3-1.1-5.7v-3.4c-.1.1-8.5-20.1-20.7-21.3" fill="#f9bf8e"/><path d="m147.3 61.5s-.8-1.9.4-5c1.1-3 1.9-1.9 2.7-5.7.4-4.2 0-5.7 0-5.7l8.8-3 17.9 11.1s.8 15.6-1.1 22.9c-1.9 6.9-7.6 14.1-7.6 14.1z" fill="#cfd6e0"/><path d="m150.4 45.1s.8-.4.8 1.1c.4 1.5 1.9 6.1 1.9 6.9s-.4.8-.4.8 8-5 11.8-6.1c3.8-1.5 8.8-5 8.8-5s0-2.3-.4-3.4c0-.4-.8-.8-1.1-.8-7.3 1.6-14.6 3.5-21.4 6.5" fill="#f3f3f3"/><path d="m140.1 64.2 1.9 40.8s-108.6 1.9-108.6 0 21-46.1 21-46.1z" fill="#683328"/><path d="m89 63.8-1.9 1.1-1.5 3.8c0 .4-.4.8-.4.8 0 .4 0 .8.4.8l16.8.4c.8 0 1.1-.4 1.1-1.1l-.4-4.2z" fill="#cfd6e0"/><g fill="#adb4bb"><path d="m87.1 60h16.4v5.3h-16.4z"/><path d="m126.4 63.4-66.3-1.1c-1.1 0-1.9-.8-1.9-1.9v-45.7c0-1.1.8-1.9 1.9-1.9l68.2 1.1c1.1 0 1.9.8 1.9 1.9l-1.5 45.4c-.4 1.5-1.2 2.2-2.3 2.2"/><path d="m129.8 16.2-1.5 40.8-70.5-2.3v-40c0-1.1.8-1.9 1.9-1.9l68.2 1.1c1.1.4 2.3 1.1 1.9 2.3"/></g><path d="m128.3 14.3-68.2-1.1c-1.1 0-1.9.8-1.9 1.9v40l70.5 2.3 1.1-41.2c.4-1.2-.8-1.9-1.5-1.9" fill="#425b6b"/><path d="m61.2 16.2.4 35.4 64 2.3 1.1-36.6z" fill="#fff"/><path d="m128.7 56.9v4.6c0 1.1-.8 1.9-1.9 1.9l-66.3-1.1c-1.1 0-1.9-.8-1.9-1.9v-5.7z" fill="#cfd6e0"/><path d="m68.4 57.7s2.7-.8 3.8-1.9.8-1.5 1.1-1.9c.4-.4 1.9-.8 1.9-.8s3.8 0 2.3-2.7l-1.5.4h-1.1c-.8 0-1.5 0-3-.4-1.1 0-2.3-.4-3 .4-.8.4-1.9 1.9-2.3 2.3-.8.4-7.2 2.7-7.2 2.7l3 5.7s4.6 0 7.2-1.1c2.7-.8 5-2.7 5.7-4.2.8-1.5.8-3 .8-3s-3 4.2-5 5c-1.9 1-2.7-.5-2.7-.5" fill="#f9bf8e"/><path d="m58.1 56.6 3-1.1s.8 5.7 3 8l-8 3.4z" fill="#fff"/><path d="m66.9 60.4 4.6-1.1 4.6-3.4.8-1.5v-1.9l-5.7 1.1c.3-.5-6.6 4.9-4.3 6.8" fill="#f9bf8e"/><path d="m70.7 58.8.8.8c.4 0 1.5-1.1 3.8-3.8l1.1-1.1c1.1-1.5 2.3-3 3.8-4.6l.8-.8c.8-1.1 1.5-2.3 2.3-3.8-1.1.8-2.3 1.5-3.4 2.7l-.8.8c-1.1 1.5-2.7 3-3.8 4.6l-1.1 1.1c-2.7 2.2-3.1 3.4-3.5 4.1" fill="#425b6b"/><path d="m80.6 48.9c.4-.4.4-.8.8-.8l-1.1-1.1-.8.8-.8.8c0 .4-.4.4-.4.8l1.1 1.1c0-.4.4-.4.4-.8z" fill="#4db8a4"/><path d="m70.7 59.2.8.4-.4.4s-.4.4-.8 0c.4-.4 0-.8.4-.8" fill="#ee715c"/><path d="m72.6 55.8c0 .4 0 .8.4 1.1.4.4.8.4 1.1 0-.4.4-.8.8-.8 1.1-.4 0-.4 0-.8.4h-.8v-.8-.8c.2.1.5-.2.9-1" fill="#4db8a4"/><path d="m71.9 58.2c-.2-.1.7-1.4 1.9-2.9s2.3-2.5 2.5-2.4-.7 1.4-1.9 2.9-2.4 2.5-2.5 2.4" fill="#4db8a4"/><path d="m70.7 58.1s-1.1.8-.4 1.9c.8 1.1 3 .8 3.4.4s.8-1.1.8-1.1 1.5-.4 1.5-1.1v-.8s1.1-.4 1.5-1.1c.4-.8-.4-1.5-.4-1.5v-.4s1.9 0 1.9-1.1-.8-1.5-.8-1.5-3 1.9-1.9 3v.4s-.8.4-1.9.4h-1.4c-.4 0-1.5.8-.4 1.5 1.1.8.8.8.8.8s-.8.4-1.1 0c-.4-.4-.8-.4-1.1 0-.5-.6-.5.2-.5.2" fill="#f9bf8e"/><path d="m77.6 50.8-1.5.4h-1.1-1.5v3c.4-.4 1.9-.8 1.9-.8s3.3.1 2.2-2.6" fill="#f9bf8e"/><path d="m150.8 55.4s6.9-2.7 12.2-2.3 11.8 6.5 12.6 14.5-4.2 16-18.3 19.8c-13.7 3.8-15.2 6.9-15.2 6.9v10.7h40.7s6.2-17.7 2.1-41.2c-2.6-15.1-11.2-21.3-11.2-21.3s-6.5 2.3-11.4 3.8c-5.1 1.5-10.4 7.2-11.5 9.1" fill="#3a8835"/><path d="m102.4 71.4-1.1.8s-1.1 3.4-1.1 4.2 1.1.8 1.5 0 1.1-3 1.1-3l.8-1.1s-.8 1.9-.8 3 0 1.9.8 2.3c.8 0 1.1-.4 1.1-.8 0 0 .4.4.8.4.8 0 .8-.4.8-.8 0 0 .4.4.8.4h.8l.8-1.5v-3l-1.5-1.9z" fill="#f9bf8e"/><path d="m103.9 73.7s-1.5.4-2.3 1.5c-.8.8 0 1.9 1.1 1.9s2.7-.4 3.4-1.1c.8-.4 1.9-1.1 2.7-1.1s1.5.8 4.2.8 7.2-.8 9.5-.8l2.3.4-2.7-5.7s-4.6.4-5.7 0-7.2-1.9-8-2.3c-1.1-.4-1.5 0-1.9.4s-3.8 2.3-4.2 2.7-.8 1.9-.8 1.9l1.5.8.8-.8c.4-.4 1.5-1.1 1.5-1.1h2.3l.4 1.1c-.3-.5-2.2 1-4.1 1.4" fill="#f9bf8e"/><path d="m120.3 76.4s-.8-5.3.8-6.9l8.4.4s2.3-.8 4.2-.8 3-.4 4.2-.4c1.1-.4 6.1-1.5 6.1-1.5l5 8.4s-9.2 1.9-13 1.9-6.9-.4-6.9-.4z" fill="#cfd6e0"/><path d="m132.8 78.7s-.4.8.4 0 3.4-1.5 3.8-2.3c.8-.8 3-3 3.8-5 .8-1.9.8-4.2 2.3-5.7s4.2-12.6 11.8-9.1c7.2 3.4 11.4 11.8 11.1 17.5-.4 6.1.4 8.8-2.3 11.1s-12.2 7.6-17.9 9.1-9.1 2.3-10.7 3c-1.5.4-5.7.8-7.6-.4-1.9-1.5-3-5.3-1.9-9.1s1.1-5.7 1.1-5.7.8-1.9 6.1-3.4" fill="#f3f3f3"/><path d="m148.9 29.9 2.7.8s-.4-2.7 1.5-4.2 4.9 1.9 6.9 5.7c1.9 3.8 9.9 3 9.9 3s0-2.7 1.9-5.7 4.6-14.9-4.6-21.3c-9.2-6.5-19.1-.8-19.1-.8s-1.9 3.4.4 4.6c2.3 1.1 2.7.4 2.3 2.3-.4 1.5-1.9 2.3-2.3 3.8 0 .4 0 1.1.4 1.5.3 1.1 1.1 3.4 0 10.3" fill="#683328"/><path d="m60.1 55.4s-5 1.5-6.5 2.3-1.1.8-1.9 1.1c-.8 0-1.5 0-2.7.4-1.1.4-1.5.8-2.3.8s-1.5 0-2.7.4c-.8.4-3 .4-3 .4l-5.3.4 3.4 12.6s9.5-2.7 12.2-3.8c3-1.5 11.1-3.4 11.1-3.4s-3.9-8.1-2.3-11.2" fill="#364b5e"/><path d="m44.8 15.4s-1.1 3-1.5 3.8c-.8.8-.4 1.5 0 2.3s1.5 2.3 1.9 2.7 0 1.5-.8 1.5h-1.5s.8 3-.8 3c0 0 .8.8 0 1.1-.8.8.8 3.4-3.4 4.2-4.2 1.1-8 7.6-8 7.6l-13.3-9.9.8-2.7s3.4-14.1 9.1-16.8c5.3-2.1 17.9-1.4 17.5 3.2" fill="#f9bf8e"/><path d="m18.1 29.1s8-.8 8.4-6.5c.8-6.1 6.9-4.6 7.2-1.9.4 2.7.8 2.3.8 2.3l1.9-.4s-1.9-2.3.4-4.2 3.4-.8 4.2-2.3c0 0-.8 2.3-1.9 3 0 0 3.4 0 4.6-1.1 1.1-1.1 2.3-3.4 2.7-5.7 0-2.3-2.7-6.5-9.1-8.8-6.5-2.3-8.4-3.8-14.5-2.3s-7.2 10.3-7.2 13c-.5 3.5 1.4 11.5 2.5 14.9" fill="#425b6b"/><path d="m18.1 29.1s1.9 3 5.3 5.7 9.9 6.1 9.9 6.1l-3.8 10.7-14.1-17.9z" fill="#fff"/><path d="m42.1 85.5c-4.6 9.9-8.8 19.1-8.8 19.8h-25.5s-3.8-19.4-5.7-26.3c-1.5-6.5-2.3-19.1-1.9-21.7.8-2.7 1.5-3.8 3-8.4 1.5-5 1.9-3 5.3-8 3.4-5.3 6.1-7.2 6.1-7.2s19.4 22.1 22.9 27.4c3.4 5 4.2 16.4 4.2 16.4v8z" fill="#364b5e"/><path d="m25.4 72.9c.4-6.5-1.9-13.3-5-16.8-3-3.4-8.8-3.8-13.3 1.1-4.6 5-2.7 13-2.7 13s4.2 11.1 5 14.9c.4 3.8 5.3 11.4 11.1 14.9 3.4 1.9 9.1 3.4 13.3 4.6.8-1.9 2.7-6.5 5.3-11.8-6.1-6.9-14.1-16-13.7-19.9" fill="#425b6b"/><path d="m17.4 30.6s1.5 4.6 5.7 8.8 14.5 18.7 16.8 22.9 2.3 14.9 2.3 14.9-1.1-7.6-2.3-11.1c-1.1-3.4-8.8-12.6-12.2-15.6-3-2.7-10.3-11.1-12.6-14.9-.4-1.1 0-1.9.4-2.7z" fill="#425b6b"/><path d="m83.7 42.1h1.9v7.2h-1.9z" fill="#6bc1b7"/><path d="m87.9 34.4h1.9v14.9h-1.9z" fill="#f9bf8e"/><path d="m91.7 45.1h1.9v4.2h-1.9z" fill="#56c1ec"/><path d="m95.9 40.9h1.9v8.8h-1.9z" fill="#425b6b"/><path d="m101.6 39v10.7h-1.9v-11.1z" fill="#ee715c"/><path d="m103.9 47h1.9v2.7h-1.9z" fill="#f9bf8e"/><path d="m109.6 36.4v13.7l-1.9-.4v-13.3z" fill="#56c1ec"/><path d="m111.9 44.7h1.9v5.3h-1.9z" fill="#425b6b"/><path d="m117.6 41.3v8.8h-1.9v-9.2z" fill="#6bc1b7"/><path d="m121.8 43.6v6.9l-1.9-.4v-6.5z" fill="#ee715c"/><path d="m73.4 22.3c-2.3 0-4.6.8-6.1 2.3l6.1 6.5z" fill="#425b6b"/><path d="m79.5 24.9c-1.5-1.5-3.8-2.7-6.1-2.7v8.8z" fill="#6bc1b7"/><path d="m73.4 31 2.3 8.4c3.8-1.1 6.5-4.6 6.5-8.4 0-2.3-.8-4.6-2.7-6.1z" fill="#ee715c"/><path d="m67.3 24.9c-1.5 1.5-2.7 3.8-2.7 6.5 0 4.2 3 7.6 6.9 8.8l1.9-8.8z" fill="#56c1ec"/><path d="m71.5 39.8h1.9c.8 0 1.5 0 2.3-.4l-2.3-8.4z" fill="#f9bf8e"/></g><path d="m33.274259 2.083618h8.000141v48.300854h-8.000141z" fill="#1e1e1c" transform="matrix(.2600954 -.96558292 .96558292 .2600954 2.248302 55.402147)"/><path d="m40.7 26 28.9 8.9 3.5-12.9-25.4-7.9z" fill="#1e1e1c"/><path d="m19.2.2-4.4 16.4 46.6 12.6 11.7-14.4z" fill="#3d3d3d"/><path d="m5.5 49.9-1.1-3.4 25.4-4.9 4-12.5 3.4 1.1-4.3 13.4c-.2.5-.6 1-1.1 1.2z" fill="#1e1e1c"/><path d="m34.4 43.1c0 2.4-1.9 4.3-4.3 4.3s-4.3-1.9-4.3-4.3 1.9-4.3 4.3-4.3 4.3 1.9 4.3 4.3" fill="#1e1e1c"/><path d="m.8 57.4v-18.3c3.1 0 5.7 2.6 5.7 5.7v6.9c0 3.1-2.6 5.7-5.7 5.7" fill="#3d3d3d"/><path d="m190.8 175 8.9 45.4-6.8 2.3-11.6-33.2-2.6-11.8-15-22.3s-4.6-3.9-5.7-5.6c-1.2-1.8-3.1-8.1-3.1-8.1l27.5-4.9z" fill="#f6b075"/><path d="m192.8 222.2-11.4-32.7-2.6-11.8-2.9-4.3c4.5-1.3 9.3-2.7 13.8-3.6l.2 1.1-.1.1c-7.8 6.8-5.5 16-3.5 25.1.6 2.7 1.3 5.3 2.2 7.9 1.7 6 4 11.9 6.9 17.4l-2.6.6z" fill="#e3a26c"/><path d="m191.3 169.4c-5.7 1-12 2.9-17.6 4.5l-10-18.6s-4.6-3.9-5.7-5.6c-1.2-1.8-3.1-8.1-3.1-8.1l27.7-5z" fill="#66727a"/><path d="m173.7 173.9-2.4-4.5 2.4 4.5c.6-.2 1.3-.4 1.9-.5-.6.2-1.3.3-1.9.5" fill="#adcede"/><path d="m173.7 173.9-2.4-4.5 3.5-8.4 5.1-3.7.9-.6c-2.6 5-4.4 10.9-5.1 16.7 0 0 0 0-.1 0-.6.2-1.2.3-1.9.5m9.4-21 1.3-7.7-1.8-7.6h.3l3.6 13.5c-.4.3-.8.5-1.3.7-.1 0-.3 0-.4 0-.5 0-1 .2-1.4.7-.1.2-.2.3-.3.4" fill="#5e6971"/><path d="m170.8 39.1c3 .1 7.6.3 11.3.5 2.5.1 3.7 3.2 1.9 5l-11.6 17.9-6-2.8s-4-5-3.9-9.3c.3-4.5 2.4-11.4 8.3-11.3" fill="#633f3c"/><path d="m169.9 59.9c2.4 0 2.5-3.2 2.5-3.2-.7-.5-.8-1.5-.5-3.2.4-2.6 3.3-.3 3.3-.3 1-5.4 2.4-5.8 3.9-6.6 1.8-.9 5-2 5-2l1.5 5.2-.4 2.1 3.3 4.2c.3.4.2.9-.2 1.1l-2 1 .3 2-.8 1.3.6.7-.6 1.3-.3 2.6c-.1 1.3-1.3 2.2-2.6 2l-3.7-.4-2.7 7.6-10.2-7.2.2-8.3c0-.2 1 .1 3.4.1" fill="#f6b075"/><path d="m152.2 179.5 2.9-38.5 8.5 1.4 20.8 2.9-7.5 11.1-3.5 4.1-11.1 29.3-17.5 30.7-6.3-1.6 9-29.1z" fill="#f6b075"/><path d="m138.7 218.2 8.8-28.4z" fill="#adcede"/><path d="m142.1 218.9-3.4-.7 8.7-28.4 4.7-10.4.6-8.4c5.1.9 10.5 1.8 15.6 2.6l-.7 1.8c-.7-.1-1.3-.2-1.9-.2-10.9 0-16.7 15.5-18.4 21.1-1.2 4.1-3.8 15.5-5.2 22.6" fill="#e3a26c"/><path d="m153.2 152.2c-.2-2.1-.1-4.2.1-6.3l1.7-10.9 26.5-1.8 2.9 12.1-1.7 10-7.9 5.7-5.3 12.8c-5.8-.8-12-1.9-17.7-3l1.6-16.6z" fill="#66727a"/><path d="m180.8 156.7 1.9-1.4.4-2.4-.4 2.4z" fill="#5e6971"/><path d="m180 157.3.8-.6z" fill="#576168"/><path d="m157.1 171.9c-1.8-.3-3.6-.6-5.4-1l1.6-16.6-.2-2.2c-.1-.9-.1-1.9-.1-2.8 0-1.2.1-2.4.2-3.6l1.2-7.7c1.1.1 5.8.5 12.1.5 1.5 0 3.2 0 4.9-.1h.2.5c2.7-.1 5.5-.3 8.4-.6.7-.1 1.4-.2 2-.2l1.8 7.6-1.3 7.7-.4 2.4-1.9 1.4-.9.6c-8.5 3.4-17.3 7.3-22.7 14.6" fill="#5e6971"/><path d="m145.7 219.7 6.7 5.5c.3.3 5.5 1.8 5.5 1.8 3.4.5 2.7 3.7 2.7 3.7l-12.7-.1-13.5-2.9c-.4-4.8 3.5-9.7 3.5-9.7z" fill="#d9d9d9"/><path d="m141.4 229.3-7-1.5c0-.2 0-.5 0-.7v.7l7 1.5c0-.1 0 0 0 0m-2.7-11.1-.8-.2z" fill="#adcede"/><path d="m142.1 218.9-3.4-.7z" fill="#d19564"/><path d="m141.4 229.2-7-1.5c0-.2 0-.4 0-.7 0-4.6 3.6-9 3.6-9l.8.2 3.4.7-.1.1c-1.2 3.4-1.3 6.8-.7 10.2" fill="#c8c8c8"/><path d="m154.4 96.5s.1-10.2 2.4-16.7c2.2-6.4 9.6-12.6 9.6-12.6s9.3 5.2 11.7 8.4c5.3 7.3 3.6 16 4.8 20.9.4 1.8-.2 26.7-.2 26.7l.8 14.2c-15.2 2.1-29.2.5-29.2.5l1.6-17.6z" fill="#026a9d"/><path d="m171.5 138.6h.2c-.1 0-.2 0-.2 0m.7 0c2.7-.1 5.5-.3 8.4-.6-2.9.3-5.8.5-8.4.6" fill="#59646b"/><path d="m166.6 138.7c-7.3 0-12.4-.6-12.4-.6l1.6-17.6-.2-2.5c1.3 0 2.7-.3 4.2-1.1l9.5-7.7c.4 4 1.1 7.9 2.4 11.8 2 6.2 5.1 11.7 8.7 16.9-2.9.3-5.7.5-8.4.6-.2 0-.3 0-.5 0-.1 0-.1 0-.2 0-1.5.2-3.2.2-4.7.2m-1.6-36.1c1.4-2.7 2.9-5.8 4.2-8.6 0 2.1-.1 4.2-.1 6.3zm-9.9-15.4c.4-2.5.9-5.1 1.6-7.3.7-1.9 1.8-3.8 3-5.5.4.1.7.3 1.1.4-3.3 2.9-5 7.6-5.5 10.8zm3.6-4.5c.8-2.3 2.3-5.3 4.8-6.9h.1c-2.5 1.7-4.3 5.4-4.9 6.9" fill="#026595"/><path d="m152.8 127.2h28.8c2.7 0 4.9 2.2 4.9 4.9v19.6c0 2.7-2.2 4.9-4.9 4.9h-28.8c-2.7 0-4.9-2.2-4.9-4.9v-19.6c-.1-2.7 2.2-4.9 4.9-4.9" fill="#3f4d57"/><path d="m168.7 72.3c11.9 1.3 13.3 14.5 13.3 14.7l3.3 44.3-2.5.2-3.3-44.3c0-.5-1.2-11.4-11.1-12.4-8.4-1-10.5 10.7-10.6 11.2l-7 44.2-2.5-.4 7-44.2c.9-5.1 4.8-14.3 13.4-13.3" fill="#3f4d57"/><path d="m158.5 83.4s3.3-9.3 8.6-8.2c5.2 1.1 6 3.8 5.7 9-.3 5.1-12.9 28.2-12.9 28.2s-6-.2-9.7-1.5v-.1z" fill="#f6b075"/><path d="m150.2 110.8 8.3-27.5s2.9-8.2 7.6-8.3h.2c.3 0 .5 0 .8.1 4.6 1 5.8 3.2 5.8 7.4v1.6c-.1 2.9-4.2 11.5-7.7 18.4l-10.3 5.7c.1-.1.2-.1.2-.2z" fill="#e3a26c"/><path d="m167.1 75.2c5.2 1.1 6 3.8 5.7 9-.1 2.4-2.8 8.5-5.8 14.4-4.1-1-8.2-2-12.2-3.1l3.6-12.1c.1 0 3.4-9.3 8.7-8.2" fill="#026a9d"/><g fill="#f6b075"><path d="m182.1 90c.5-.1 1.1 0 1.4.4 1.2 1.3 2.4 3.5 3.2 4.5.3.4.4 1 .1 1.5l-1.8 3.2-6 2.1-3.5-4.2 2.7-6.3z"/><path d="m178.4 87.8c1.8.4 1.3 3 1.3 3l-3.9 6.3 1.2-6.6z"/><path d="m176.8 96 2.9 4.9-19.8 16c-6.8 3.2-11-1.5-9.7-6.1z"/></g><path d="m150.2 110.8 4.8-2.7s-.1.1-.2.2z" fill="#d19564"/><path d="m151.6 116.4c-1-1-1.6-2.3-1.7-3.8v-.5c0-.3 0-.5.1-.8 0-.1 0-.1 0-.2v-.1c0-.1 0-.1 0-.2l4.5-2.5c-.7.7-4.3 3.3-2.9 8.1" fill="#e3a26c"/><path d="m199.5 220.3 10.5 2.7c.4.2 5.8.1 5.8.1 3.4-.6 3.7 2.7 3.7 2.7l-11.2 3.8-14.6 1.3c-1.8-4.5-.8-8.8-.8-8.8z" fill="#d9d9d9"/><path d="m193.6 230.9c-.8-1.9-1.1-3.9-1.1-5.4.1 1.5.3 3.4 1.1 5.4l6.1-.5z" fill="#adcede"/><path d="m195.4 221.4.4-.1z" fill="#e3a26c"/><path d="m192.8 222 2.6-.6z" fill="#d19564"/><path d="m193.6 230.9c-.8-1.9-1.1-3.9-1.1-5.4v-.9c0-1.5.3-2.5.3-2.5l2.6-.6.4-.1v.2c.6 3.3 1.8 6.5 3.9 8.8z" fill="#c8c8c8"/><path d="m152.5 127.2h29.3c2.6 0 4.7 2.1 4.7 4.7v10.1c0 2-1.5 3.7-3.5 3.9-4.8.5-13.1 1.2-16.6 1.2-3.2 0-10.6-.7-15-1.2-2-.2-3.5-1.9-3.5-3.9v-10.2c-.1-2.5 2-4.6 4.6-4.6" fill="#4c5e6a"/><path d="m1036.9 220.1h-.1l-5.7-.3z" fill="#44515b"/><g fill="#683328"><path d="m729.7 163.8-.5-.3v-.2c-.1-.5-.1-1-.2-1.5-.1-1-.2-1.9-.2-2.9-.7-.2-1.3-.4-2-.7v.5c0 1 0 2.1.1 3.1 3.5 2.5 6.8 4.9 9.6 7 5.4 4 8.9 6.7 8.9 6.7l-1.5 1.9c.6-.1 1.2-.2 1.9-.3.1-.6.2-1.3.4-2-1.6-1.1-4.1-2.8-7.1-4.9-2.8-1.8-6-4.1-9.4-6.4"/><path d="m795.5 198c-.4.1-.6.2-.6.2l-.9-2.7c-.7 1.2-1.4 2.3-2 3.4-.7 1.2-1.2 2.3-1.8 3.3-.5 1-1 2-1.4 2.8-.4.9-.8 1.6-1 2.2-.2.4-.3.7-.4 1 1.2-1.5 3.9-4.3 7.5-5.6.3-.1.6-.2.9-.3.2-.5.4-.9.6-1.4.5-1.2 1-2.4 1.6-3.7.1-.2.1-.3.2-.5-.4.2-.8.4-1.1.5-.8.4-1.3.6-1.6.8"/><path d="m765.6 232.4c-.3.6-.5 1.3-.7 1.9-.5 1.3-.8 2.5-1.1 3.7-.2.6-.3 1.2-.4 1.8s-.2 1.1-.3 1.7c-.1.4-.1.8-.2 1.1 0 .1 0 .3-.1.4-.1.5-.1 1-.1 1.4-.1.9-.1 1.7-.1 2.3v1.6.5l3.1-.4h.3v-.1c0-.1 0-.2-.1-.3 0-.3-.1-.7-.1-1.3s-.1-1.3-.1-2.1c0-.4 0-.8 0-1.3s.1-.9.1-1.4.1-1 .2-1.6c.1-.5.1-1.1.2-1.7.2-1.1.4-2.4.8-3.6.2-.6.3-1.3.5-1.9s.4-1.3.6-1.9l.1-.1c-.6-.1-1.3-.2-2.1-.4 0 .5-.2 1.1-.5 1.7"/><path d="m807.7 235.9c-2.3 2.1-4.8 2.9-7.1 2.9-1.4 0-2.7-.3-3.9-.6-3.5.9-6.1 1.8-7.4 2-.3.1-.6.1-.8.1-1.4 0-2.3-.8-2.7-1.6-1 .3-2.2.5-3.4.7.6 2.4 1.1 4.6.8 5-1.2 1.6-2.9 3.2-4.6 5.2-2 2.4-5.5 5.7-8.8 8.4.2.8.4 1.5.6 2.2.3 1.3.4 2.5.4 3.4 0 .4 0 .8-.1 1.1 0 .3-.1.4-.1.4l-6.1-1.1v-.1c0-.1 0-.2 0-.4 0-.3 0-.9-.1-1.6-.8.5-1.4.8-1.9 1-.2 0-.3.1-.5.1-3.6 0-13.6-10.4-17.6-15.7-4.2-5.6-2.4-6.3-3.5-9.4-.4-1.3.2-3.1 1.1-4.9h-.1c-2.5 2.9-5.4 3.9-8.1 3.9-.2 0-.3 0-.5 0 1.6 1.5 2.7 2.8 2.7 2.8 3.1 11.8 11.1 18.8 18.8 26.4s.4 21.2-.3 32.3c-.6 9.4-3.9 10.1-4.9 10.1-.2 0-.3 0-.3 0l-9.7 1.4s6.4 2.1 11.1 2.1h1c4-.3 5.9-4.1 9.7-4.1.8 0 1.8.2 2.8.6 2.2.9 5.1 1.2 8 1.2 5 0 9.7-.8 9.7-.8s-4.2-.7-9.7-2.4c-5.6-1.7-2.4-15.3-2.4-25.4s3.5-18.1 7.6-22.9c4.2-4.9 10.4-12.5 12.5-14.6s17.7-5.2 25.7-5.6c.6 0 1.1-.1 1.6-.1-2.9-.1-5.6-1.2-7.2-2-.7-.2-1.5-.1-2.3 0"/><path d="m735.5 172.9c-1.4-.8-3-1.7-4.7-2.6s-3.5-1.7-5.3-2.6c-1.9-.9-3.8-1.7-5.8-2.5s-4-1.6-6.1-2.4c-1.7-.6-3.4-1.2-5-1.8-.9.2-1.7.3-2.6.3-2.3 0-4.2-.6-4.8-.8 1.8.7 3.6 1.5 5.4 2.2 2 .8 3.9 1.7 5.9 2.6 1.9.9 3.9 1.9 5.8 2.8 1.8 1 3.7 1.9 5.4 2.9s3.3 1.9 4.9 2.9c.7-.1 1.4-.2 2.1-.2 3.1 0 6.6 1.1 9.1 4.9 0 0 .7-.3 1.9-.7-1.1-1.1-2.6-2.4-4.2-3.9-.8-.3-1.4-.7-2-1.1"/><path d="m748.8 162.7c-.1.6-.3 1.2-.4 1.8-.4 1.6-.7 3.2-1 4.8-.3 1.5-.6 2.9-.9 4.3-.1.6-.2 1.1-.3 1.7-.1.7-.3 1.4-.4 2 .5-.1 1.1-.1 1.7-.1s1.2 0 1.8.1c0 0 .2-.2.5-.4s.7-.5 1.2-.9c0-.5.1-1 .2-1.6.1-1.3.3-2.8.4-4.3.2-1.5.4-3.1.6-4.8v-.1l-.1.1z"/><path d="m751.7 151.5c-.3.9-.5 1.8-.8 2.7-.2.9-.5 1.7-.7 2.6s-.4 1.7-.7 2.6c-.3 1.1-.5 2.1-.8 3.1l.1-.1c.2-.2.4-.4.7-.7.6-.6 1.4-1.4 2.4-2.3.3-.3.6-.5 1-.8.1-.4.1-.8.2-1.2.1-.9.3-1.7.4-2.6.2-1.2.4-2.3.6-3.4h-.2c-.7 0-1.5 0-2.2.1"/><path d="m766.4 164.8c-3.6 2.3-6.9 4.6-9.6 6.5-2.3 1.7-4.2 3.1-5.5 4.1-.1.1-.2.2-.4.3-.5.4-.9.7-1.2.9-.3.3-.5.4-.5.4 1.9.2 3.8.9 5.5 2.4 1.2-1.1 2.9-2.7 5-4.5 2.7-2.3 5.9-5.1 9.6-7.8-1.5-.6-2.4-1.4-2.9-2.3"/><path d="m760.2 153.8-1.2.6c-.4.2-.8.5-1.1.7-.8.4-1.5.9-2.2 1.4s-1.4 1-2 1.4c-.2.2-.5.4-.7.6-.3.3-.7.6-1 .8-1 .9-1.9 1.7-2.4 2.3-.3.3-.5.5-.7.7l-.1.1-.1.1h.1l3.3 2.5.1-.1.1-.1c.1-.1.2-.4.4-.7.4-.6 1-1.4 1.9-2.3.4-.5.9-1 1.3-1.5.5-.5 1-1.1 1.6-1.6s1.2-1.1 1.8-1.6c.3-.3.7-.5 1-.8l1-.8c.7-.5 1.4-1 2.1-1.4.4-.3.9-.6 1.4-.8-1-.2-1.8-.3-2.5-.5-.8.4-1.5.7-2.1 1"/><path d="m726.9 161.8c-3.3-2.4-6.7-4.8-10.2-7.3-.6.2-1.2.6-1.6 1 .2.1.3.3.5.4 5.4 4.2 10.7 8.4 15.2 12.1 1.4 1.1 2.7 2.2 3.9 3.2 3.9 3.2 6.7 5.6 7.9 6.6.4-.1.8-.2 1.3-.3l1.5-1.9s-3.5-2.7-8.9-6.7c-2.8-2.1-6.1-4.5-9.6-7.1"/><path d="m795.2 181.2c0-.5-.1-1.1-.2-1.6-1-.2-1.9-.4-2.7-.8v2.5c0 .9 0 1.9-.1 2.8-.1 1.9-.3 3.8-.6 5.6s-.6 3.6-1 5.3-.8 3.3-1.3 4.9c-.5 1.5-1 3-1.5 4.2-.8 1.9-1.5 3.6-2.2 4.9.6.1 1 .2 1 .2s.3-.4.8-1.1c.1-.3.3-.6.4-1 .3-.6.6-1.4 1-2.2.4-.9.9-1.8 1.4-2.8s1.1-2.1 1.8-3.3c.6-1.1 1.3-2.2 2-3.4l-.6-1.9s.2 0 .5-.1.8-.2 1.3-.4c.1-1 .1-1.9.2-2.9.1-2 .1-3.9 0-5.9 0-1-.1-2-.2-3"/><path d="m802.1 184.2c-1 1.1-1.9 2.4-2.9 3.6-.9 1.2-1.8 2.5-2.7 3.7-.3.4-.6.9-.9 1.3 1.2-.4 2.9-1 4.8-1.8.2-.1.4-.2.7-.3.2-.4.5-.9.7-1.3.8-1.3 1.5-2.6 2.3-3.8.3-.4.6-.9.8-1.3-.9-.2-1.7-.5-2.3-.9-.1.4-.3.6-.5.8"/><path d="m811.3 185.8c-1.3.8-2.6 1.5-3.8 2.1-2.3 1.2-4.4 2.2-6.4 3-.2.1-.5.2-.7.3-1.9.8-3.6 1.3-4.8 1.8-.1 0-.2.1-.3.1h-.1c-.6.2-1 .3-1.3.4s-.5.1-.5.1l.6 1.9.9 2.7s.2-.1.6-.2.9-.4 1.5-.6c.3-.2.7-.3 1.1-.5 1.1-.5 2.5-1.2 4.1-2 2.1-1.1 4.5-2.5 7-4.1 1.2-.8 2.5-1.7 3.8-2.6s2.5-1.9 3.7-2.9 2.4-2.1 3.5-3.1c.2-.2.4-.3.5-.5-2.4 1.1-4.5 1.8-6.4 2.3-1 .6-2 1.2-3 1.8"/><path d="m769.7 257.9c-.7-2.2-1.7-4.8-3-7.7-.2-.6-.5-1.1-.8-1.7l-3.1.4s0-.2 0-.5c0-.4 0-.9 0-1.6s0-1.4.1-2.3c0-.4.1-.9.1-1.4 0-.1 0-.3.1-.4-1.6-3-3.3-6.2-5.2-9.5-1.1.9-2.3 1.5-3.5 1.9 3 6.2 5.7 12.2 7.5 17.1 1.4 3.8 2.3 7 2.6 9 0 .2.1.3.1.5.1.8.1 1.3.1 1.6 0 .2 0 .3-.1.4v.1l6.1 1.1s0-.1 0-.4.1-.6.1-1.1c0-.9-.1-2.1-.4-3.4-.3-.6-.5-1.3-.7-2.1"/></g><path d="m815.6 108.2c-1.8 0-3.9.3-6.4 1.1 0 0-2-4.2-7.1-4.2-1.5 0-3.2.3-5.2 1.2 0 0-1.4-5.5-6-5.5-1.4 0-3.1.5-5.1 1.8 0 0 .6-4.3-4-4.3-.4 0-.9 0-1.4.1 0 0-2.1-7.2-8.4-7.2-1.3 0-2.7.3-4.3 1 0 0-4.2-2.7-8.4-2.7-2.9 0-5.8 1.3-7.5 5.5-.7 1.8-1.2 3.1-1.6 4-.7-.5-3.2-2.3-6.7-2.3-2.1 0-4.4.6-7 2.5 0 0-3.6-5.6-9.8-5.6-2 0-4.3.6-6.8 2.1-10.4 6.3-8.6 7.4-10.7 11.6 0 0-.2 0-.5 0-1.8 0-8.4.5-10.4 7.7 0 0-2.5 1.9.5 4.6 0 0 1 4.5-1.4 4.5-.2 0-.4 0-.7-.1-1.4-.4-3.3-.8-5.4-.8-2.8 0-5.9.8-9 3.4-5.3 4.6-4.4 7-2.8 9.5 0 0 1.2 2.1-2.1 3.2-3.2 1.2-9.3 4.2-7.9 8.3 0 0-9.7 10.2-4.4 12.3 0 0-1.1 4.5 2 6.1h.1c.4 0 .9-.1 1.4-.2.5.2 1 .4 1.6.4h.9c3.5 0 6.9-1.3 9.1-4 1-1.2 1.6-2.5 2-3.8.2.1.5.2.8.2 1.8.4 3.7.6 5.6.6 2.8 0 5.6-.6 7.9-2.2 3.3-2.3 4.1-5.8 3.5-9.2.6.4 1.2.7 2.1.9 2.1.3 4.3.5 6.5.5 3.4 0 6.8-.5 9.9-1.9 2.2-1 3.9-2.5 4.9-4.3l.2.3c2.6 2.8 6.5 4.9 10.4 4.9.4 0 .7 0 1.1-.1 4.1-.4 6.7-3.3 7.3-7 9.2-.8 18.7-2.8 23.3-8.9 1.3.8 2.7 1.3 4.2 1.3 1 0 1.9-.2 2.9-.6.3 2.1 1.1 4.2 2.7 5.7 1.4 1.3 3.3 2 5.2 2 .9 0 1.9-.2 2.8-.5 2.5-.9 4.6-2.5 6.2-4.7.2-.2.3-.5.5-.7 1.5.2 3 .3 4.4.3 3.7 0 7.3-.8 10.5-3 4.3-2.9 6.9-7.1 8.1-11.9 1.5-.2 2.9-.6 4.3-1.4 2.2-1.3 3.8-3.3 4.6-5.7.3-.8.4-1.6.4-2.4 1.7 1.3 2.4 2.8 2.6 3.2-.2-1-2.5-5.6-9.5-5.6" fill="#3a8835"/><path d="m843 121c-2-1.4-4.2-1.9-6.2-1.9-4.6 0-8.4 2.6-8.4 2.6s2.8-7.2-3.2-8.1v-.1c-.2-.4-.9-1.9-2.6-3.2 0 .8-.2 1.6-.4 2.4-.8 2.4-2.4 4.4-4.6 5.7-1.4.8-2.8 1.2-4.3 1.4-1.2 4.8-3.8 9.1-8.1 11.9-3.2 2.2-6.8 3-10.5 3-1.4 0-2.9-.1-4.4-.3-.2.3-.3.5-.5.7-1.6 2.2-3.7 3.7-6.2 4.7-.9.3-1.9.5-2.8.5-1.9 0-3.7-.7-5.2-2-1.6-1.4-2.4-3.5-2.7-5.7-1 .4-2 .6-2.9.6-1.5 0-2.9-.5-4.2-1.3-4.6 6.1-14.1 8.1-23.3 8.9-.6 3.7-3.2 6.6-7.3 7-.4 0-.7.1-1.1.1-3.9 0-7.8-2-10.4-4.9l-.3-.3c-1.1 1.8-2.7 3.3-4.9 4.3-3.1 1.4-6.5 1.9-9.9 1.9-2.2 0-4.4-.2-6.5-.5-.8-.1-1.5-.4-2.1-.9.6 3.5-.2 6.9-3.5 9.2-2.3 1.6-5.1 2.2-7.9 2.2-1.9 0-3.8-.3-5.6-.6-.3-.1-.5-.1-.8-.2-.4 1.3-1 2.6-2 3.8-2.2 2.8-5.6 4-9.1 4-.3 0-.6 0-.9 0-.6 0-1.1-.2-1.6-.4-.5.2-.9.2-1.4.2h-.1c.6.3 1.4.6 2.4.6h.1.1s3 .9 6.6.9c4 0 8.5-1.1 10.1-5.7 0 0 3.2 1.8 7.1 1.8 2.4 0 5.1-.7 7.4-2.9 0 0 2.2.8 5 .8 2.3 0 5-.6 7.1-2.7 0 0 .1-.3.3-.8l.1-.1c.6-1.3 2.1-3.4 4.9-3.4.6 0 1.3.1 2.1.4.6.2 6.3 4.8 11.4 4.8.6 0 1.3-.1 1.9-.2.1 0 .3-.1.4-.1 0 0 10.2-3 11.8-6.7 0 0 3.9-.9 8-.9 2.1 0 4.2.2 5.9.9 0 0 6.1 1.6 12.3 1.8 3.7-1.7 7.5-2 9.8-2 1.2 0 2 .1 2 .1 4.9-2.4 8.8-3.2 11.8-3.2 4.8 0 7.2 1.9 7.2 1.9 3.1-1.8 5.9-2.4 8.2-2.4 2.2 0 3.9.5 5.1 1.1 1.2-.6 2.2-1.5 2.4-3.1 0 0 1.5.3 3.2.3 2.3 0 5-.6 5-3.5 0-.3 0-.7-.1-1 0 0 15.8-.5 15.8-6.3.1 0 7.3-10.4.5-15.1" fill="#275a38"/><path d="m771.7 184.5c-.9-.8-2.1-1.1-3.6-1.1-4.2 0-9.6 2.5-9.6 2.5-.9-3-2.2-5-3.8-6.4-1.7-1.5-3.6-2.2-5.5-2.4-.6-.1-1.2-.1-1.8-.1s-1.2 0-1.7.1c-.7.1-1.3.2-1.9.3-.4.1-.9.2-1.3.3s-.7.2-1 .3c-1.1.4-1.9.7-1.9.7-2.5-3.8-6-4.9-9.1-4.9-.7 0-1.4.1-2.1.2-3.4.5-6 2-6 2 0-.9-5.7-5.1-12-5.1-.3 0-.6 0-1 0-6.7.5-4.6 7.9-4.6 7.9s-2-1.1-5.4-1.1c-1.5 0-3.4.2-5.5.9-6.7 2.1-1.9 8.1-1.9 8.1-4 13.2 8.4 15.2 16.4 15.2 3.5 0 6.1-.4 6.1-.4s1.5 3.1 4.5 5.6c.5.1.7.2.7.2s3.2-4.8 8.3-6.7c1.5-.6 3.2-.8 4.9-.8 4.4 0 8.6 1.5 8.6 1.5 2.8-1.6 5.5-2.2 8.1-2.2 7.5 0 13.3 5.3 13.3 5.3.7-.1 1.3-.2 1.9-.2.5 0 1 0 1.4.1.5-2.4.3-4.7.3-4.7s16.5-4.4 5.2-15.1" fill="#275a38"/><path d="m837.9 217.4s2.4-11.2-6.3-11.2c-.6 0-1.2 0-1.9.2 0 0-5.8-5.3-13.3-5.3-2.5 0-5.3.6-8.1 2.2 0 0-4.1-1.5-8.6-1.5-1.3 0-2.7.1-4 .5-.3.1-.6.2-.9.3-3.6 1.4-6.2 4.1-7.5 5.6-.5.6-.8 1.1-.8 1.1s-.3-.1-1-.2c-1.8-.4-5.7-1.2-9.9-1.2-1.6 0-3.3.1-4.8.4 1.1 3.2.2 7 .2 7s15.8 6.4 3.2 15.6c-.1.1-.2.2-.4.2-.5 1.6-1.8 6.9 3.8 7.9.9.2 1.9.3 2.8.3.6 0 1.2 0 1.8-.1 1.2-.1 2.3-.4 3.3-.7 3.2-.9 5.6-2.5 5.6-3 0 0 2.2 1.6 5.3 2.6 1.2.4 2.5.6 3.9.6 2.4 0 4.9-.7 7.1-2.8.3-.3.7-.6 1-1 0 0 .5.3 1.4.7 1.6.8 4.3 1.9 7.2 2h.5c3.8 0 7.8-1.7 10.4-7.6 0 0 6 3.7 10.3 3.7 1 0 1.9-.2 2.7-.7 12.8-9.2-3-15.6-3-15.6" fill="#275a38"/><path d="m771.2 215.3s.8-3.8-.2-7c-.7-1.9-2-3.6-4.7-4.1-.4-.1-.9-.1-1.4-.1-.6 0-1.2.1-1.9.2 0 0-5.8-5.3-13.3-5.3-2.5 0-5.3.6-8.1 2.2 0 0-4.2-1.5-8.6-1.5-1.7 0-3.4.2-4.9.8-5.1 1.9-8.3 6.7-8.3 6.7s-.2-.1-.7-.2c-1.6-.4-5.8-1.3-10.1-1.3-7.3 0-15.2 2.4-13.3 13.4 0 0-5.6 5.4.9 8.3 2.8 1.3 5.3 1.6 7.2 1.6 2.3 0 3.7-.6 3.7-.6s-3 7.1 3.7 8.4c.9.2 1.8.3 2.7.3 5.6 0 10.7-3 10.7-3.8 0 0 4 3 8.8 3.1h.5c2.7 0 5.6-.9 8.1-3.9h.1c.5.3 4.5 2.7 9.1 2.7 1.1 0 2.1-.1 3.2-.5 1.2-.4 2.4-1 3.5-1.9 1.3-1.1 2.6-2.7 3.6-4.9.1-.1.1-.2.1-.3 0 0 3.5 2.2 7.1 3.2 1.1.3 2.2.5 3.2.5.8 0 1.6-.1 2.3-.5.1-.1.3-.1.4-.2 12.4-8.9-3.4-15.3-3.4-15.3" fill="#3a8835"/><path d="m843.3 164.2s2.9-10-6.8-10c-.6 0-1.3 0-2.1.1 0 0-2.8-5.3-9.4-5.3-2 0-4.2.5-6.9 1.7 0 0-.7-.6-1.9-1.1s-2.9-1.1-5.1-1.1c-2.3 0-5.1.6-8.2 2.4 0 0-2.4-1.9-7.2-1.9-3 0-6.9.8-11.8 3.2 0 0-.8-.1-2-.1-2.3 0-6.2.3-9.8 2-2 .9-3.9 2.3-5.5 4.2 0 0-2.1 3.5-.3 6.4.6.9 1.4 1.7 2.9 2.4.4.2.9.4 1.5.6 0 0 .4 7.6 8.2 7.6 2.3 0 5.1-.6 8.8-2.3 0 0 .6 4 4.6 5.8.8.4 1.7.6 2.7.8.6.1 1.3.1 2 .1s1.4 0 2.1-.1c0 0 .7 2.4 3.5 3.9.7.4 1.4.7 2.3.9s2 .4 3.3.4c1.7 0 3.6-.3 5.9-.9 1.9-.5 4-1.3 6.4-2.3.8-.4 1.7-.8 2.6-1.2 0 0 2.6.7 5.7.7 4.2 0 9.2-1.3 9.8-7.6.1.1 11.8-2.7 4.7-9.3" fill="#275a38"/><path d="m708.2 312.1c-1.1-.1-2.2.3-2.3.6l-.2.4.4.9s1.8 1.3 4.1 1.1c2.2-.2 3.2-.6 4.2-.5 1.1.1 4.1.6 4.3-.4.1-.7.3-2.8.3-2.8l-6.9-1.1s-2.8 1.8-3.9 1.8" fill="#f4f3f4"/><path d="m710.1 315h-.8c-.4 0-.9-.1-1.2-.2 1.9-.4 3.8-1.1 5.1-2.3.2 0 .5-.1.7-.1.1 0 .2 0 .4-.1 1.8-.4 3.1-1 4.3-1h.3c-1.1.7-2.2 1.4-2.9 1.8s-1.5.7-2 .7c-.1 0-.2 0-.2 0-1 0-1.9.3-2.1.6l-.2.3c-.5.3-.9.3-1.4.3z" fill="#e3e2e3"/><path d="m723.9 300.6s-5.8 5.7-6.9 6.5-6.9 4-7.3 4.6c0 0 1.2 1.3 4.7.6 2-.4 3.4-1.1 4.7-1 0 0 .1-1.2.5-1.8.5-.6 8.3-5.4 8.3-5.4s-.7-4.2-4-3.5" fill="#edc7b2"/><path d="m713.9 312.4c.1 0 .2 0 .4-.1 1.8-.4 3.1-1 4.3-1h.3c-.1 0-.2 0-.3 0-1.2 0-2.5.6-4.3 1-.1.1-.3.1-.4.1" fill="#d3d2d3"/><path d="m727.8 304.2s0-.1-.1-.3c.1.2.1.3.1.3" fill="#afcfe0"/><path d="m713.4 312.5c1-.5 2-1.2 2.9-2.2 2-2.2 3.5-3.3 5.9-4.8 1.5-.9 2.8-1.9 3.7-3.4.2-.3.2-.7.2-1 1 .7 1.5 2 1.6 2.8v.1c0 .2.1.3.1.3s-7.8 4.8-8.3 5.4-.5 1.8-.5 1.8c-.1 0-.2 0-.3 0-1.2 0-2.5.6-4.3 1-.1 0-.3.1-.4.1-.3-.2-.4-.1-.6-.1" fill="#dcb9a6"/><path d="m756.6 275.2s2.2 2.3 4.3 1.9l.6-2.1-3.2-1.8c-.1 0-.4 1.9-1.7 2" fill="#ce9b25"/><path d="m756.6 275.2s2.2 2.3 4.3 1.9l.6-2.1-3.2-1.8c-.1 0-.4 1.9-1.7 2" fill="#b58b55"/><path d="m749.1 295.5 4.9-6.1 1.3-11.5-8.9 14z" fill="#edc7b2"/><path d="m749.1 295.5.7-.9zm4.9-15.5.6-.9z" fill="#afcfe0"/><path d="m749.1 295.5-.9-1.3c4-2.8 5.3-9.2 5.8-14.3l.6-.9c-.1.3-.2.6-.2 1-.3 2-1.6 8.8-1.6 8.8v2.2l-2.8 3.5-.2.1h.1z" fill="#dcb9a6"/><path d="m745.4 283.1-15.1-1.5c-.2 0-.4.2-.3.4l4 12.1 16.2 1.8-3.9-12.2c-.1-.3-.5-.6-.9-.6" fill="#9d9d9c"/><path d="m736.7 293.5s-2.5-1.3-3.7-1.3-7.7 6.3-7.7 6.3l4.2 4.5 5-2.8s10.6 7.9 12.9 8.8c2.4.8 6.1.8 6.1.8l-7.8-9.2z" fill="#7fc6b1"/><path d="m713.9 314c-1.1-.1-2.2.3-2.4.6l-.2.3.4.9s1.8 1.3 4.1 1.1c2.2-.2 3.1-.6 4.2-.5s4.1.6 4.3-.4c.1-.7.3-2.7.3-2.7l-6.9-1.1c.1 0-2.7 1.8-3.8 1.8" fill="#fff"/><path d="m715.5 316.9c-.8 0-1.6-.2-2.2-.4 1.8-.3 3.3-1.1 4.8-2.1.6 0 1.3-.1 2.2-.3 1.8-.3 3-.4 3.7-.4h.7c-.1.7-.2 1.7-.3 2.2s-.8.6-1.7.6c-1 0-2.1-.2-2.6-.2-.1 0-.1 0-.2 0-1 0-1.9.4-4 .5-.2.1-.3.1-.4.1" fill="#ededed"/><path d="m760.4 275s.3 1.1.1 1.1c-.3 0-1.4.3-1.4.3l-2.8 8.3s4.4.6 4.6 0 7.2-8.5 7.2-8.5l-3-3.4z" fill="#edc4ad"/><path d="m771.5 277.7c-1.7-1.4-4.6-3-4.6-3l-7.9 8.6.2-6.9-3 .6s-1.5.8-1.8 3c-.3 2-1.6 8.8-1.6 8.8l.1 9.2s5.7.7 7.8 2.1 3.7 5.8 3.6 7.3c0 0 1.9-3 2.2-4.2.6-2.1 7-12.7 7-18.8 0-5.7-.7-5.6-2-6.7" fill="#fff"/><path d="m771.5 277.7-.2-.2c-.1.4-.2.7-.4 1.1-3.8 7-7.1 16.2-14.5 20 1.6.3 3.3.8 4.2 1.5 2.1 1.4 3.7 5.8 3.6 7.3 0 0 1.9-3 2.2-4.2.6-2.1 7-12.7 7-18.8.1-5.7-.6-5.6-1.9-6.7" fill="#f4f3f4"/><path d="m759.6 297.7-13-2.5c-.4-.1-.7.2-.8.6s.2.7.6.8l13 2.5c.4.1.8-.2.8-.6 0-.3-.3-.7-.6-.8" fill="#9d9d9c"/><path d="m761.6 300.1c-1.6-1.1-7.6-2.2-7.6-2.2s-12.1-4.8-13.2-5c-1.2-.2-3.9-.9-4.4-.2s-5.6 7.7-5.8 8.1c-.3.4 4.7 4.5 4.7 4.5s4.2-3.1 4.6-3.8c0 0 5.2 4.7 6.1 5.4.8.7 4.7 3.5 7.8 3.8s6 .6 8.6-1.2c2.5-1.7 2.3-2.8 2.3-4 0-2-1.5-4.3-3.1-5.4" fill="#7fc6b1"/><path d="m756.9 310.9c-.7 0-1.4-.1-2.2-.1.8 0 1.5.1 2.2.1" fill="#afcfe0"/><path d="m757.3 310.9h-.4c-.7 0-1.4-.1-2.2-.1-.4 0-.7-.1-1.1-.1-1.1-.1-2.3-.5-3.4-1.1-2-1-3.8-2.3-4.3-2.7-.9-.7-6.1-5.4-6.1-5.4-.2.3-.9.9-1.7 1.5-.6.5-1.3 1-1.8 1.4 0-.1 0-.1 0-.2s0-.1 0-.2c-.1-.4-.2-.7-.3-1 1.2-.9 2.4-1.8 3.3-3 1.4.6 3.2 1.5 3.3 1.5 3.9 1.6 7.7 3.9 11.9 4.7.9.2 2.1.3 3.3.3 2.3 0 4.9-.4 6.7-1.6v.2.3.4c0 1-.1 2-2.3 3.6-1.5 1.1-3.1 1.4-4.9 1.5" fill="#76b8a5"/><path d="m731.3 299.6-2.1 2.8c2.8.1 4.5 4.2 4.5 4.2l2.6-2c-.8-4.5-5-5-5-5" fill="#7fc6b1"/><path d="m736.3 304.3c0-.1 0-.1 0-.2z" fill="#6eab9a"/><path d="m735.9 303.1c-.4-.9-.9-1.5-1.5-2 .6.5 1.1 1.1 1.5 2z" fill="#76b8a5"/><path d="m736.3 304.1c-.1-.4-.2-.7-.3-1 .1.3.2.7.3 1" fill="#6eab9a"/><path d="m733.8 306.6s-.1-.2-.2-.5c0-.1 0-.2-.1-.4-.1-.4-.3-1-.6-1.6.7-.9 1.3-1.9 1.6-3 .6.5 1.1 1.2 1.5 2 .1.3.2.7.3 1v.2.2z" fill="#76b8a5"/><path d="m725.6 297.9-2.3 2.7 4.5 4.2 2.6-2c-.9-4.5-4.8-4.9-4.8-4.9" fill="#7fc6b1"/><path d="m729.6 302.5s-5.8 5.7-6.9 6.5-6.9 4.2-7.4 4.7c0 0-.6 1.3 5 .4 3.3-.6 4.4-.3 4.4-.3s.2-1.8.7-2.4 8.2-5.3 8.2-5.3-.7-4.3-4-3.6" fill="#edc7b2"/><path d="m733.5 306.1c0-.1 0-.2-.1-.4.1.2.1.3.1.4" fill="#6eab9a"/><path d="m718 314.5c3.6-2.2 7.5-3.9 11-6.2 1.7-1.1 3.1-2.3 4-3.9.3.5.4 1 .5 1.4 0 .2.1.3.1.4-.1.1-7.3 4.4-8.2 5.3l-.1.1c-.5.6-.7 2.4-.7 2.4s-.2 0-.7 0c-.7 0-1.8.1-3.7.4-.9-.1-1.6 0-2.2.1" fill="#dcb9a6"/><path d="m759.9 263.9c-1.9.4-3.8 1.8-3.8 1.8s-.9.4-.4 1.9c.6 1.5 1 2.8 1 2.8s-.5.6.2 1.8c.5.9 1.7 2.3 2.3 2.9.2.3.6.4.9.5.3 0 .6 0 .9-.2l4-2.6c.1-.1-3.2-9.2-5.1-8.9" fill="#edc7b2"/><path d="m769 278.6c-1.7.8-2.2 4.6-2.3 5.3 0 .8.3 11.5.3 11.5l-10.4-.8-4.5-1.4-2.4 1.3 4.8 2.2 2.7.5s7.3 2.6 9.2 3.1c1.8.5 4.7 1 5.7.2.5-.4 1.3-18.6.6-20.4-.7-1.7-1.9-2.3-3.7-1.5" fill="#edc7b2"/><path d="m767.6 300.7c-.4-.1-.8-.2-1.2-.3zm5.4-15.7c0-2.4-.1-4.3-.3-4.9 0-.1-.1-.1-.1-.2 0 .1.1.1.1.2.2.6.3 2.5.3 4.9" fill="#e3e2e3"/><path d="m770.2 301c-.8 0-1.8-.1-2.6-.3-.4-.1-.8-.2-1.2-.3-1.2-.3-4.4-1.5-6.7-2.3.5.1 1 .1 1.5.2 1 .3 1.9.5 2.9.5 3.2 0 5.8-2 6.9-5.7.8-2.8 1.5-6.9 1.6-13.2v.1c0 .1.1.1.1.2.2.5.3 2.4.3 4.9 0 5.5-.4 13.7-.8 15.3 0 .2-.1.2-.1.3-.4.2-1.1.3-1.9.3" fill="#dcb9a6"/><path d="m749.7 294.6.5 1.3 4.9 1-.3-2.2z" fill="#edc7b2"/><path d="m756.9 262.4c-1.7 1-2.2 2.6-2.3 4.1s2.1 3.9 2.1 3.9-.2-.4-.5-1.5.9-3.8.9-3.8l1.2-3.1c.2.1.3-.6-1.4.4" fill="#b58b55"/><path d="m763.3 261.2c-2.1-.6-3.4-.9-4.9.8-1.4 1.7-1.2 3.1-1.2 3.1s1.5 2.1 4.7 3.5c2.6 1 2.2 4.5 1.9 6.1s-.9 1.7-.9 1.7 3.2.2 4 0c1.4-.5 2.2-.5 2.9-1.6 1-1.5 1.9-4.7.3-6.9-1.6-2.1-4.5-6.1-6.8-6.7" fill="#b58b55"/><g fill="#0068b3"><path d="m255.6 130.1c4.3 0 7.7-3.4 7.7-7.7s-3.4-7.7-7.7-7.7-7.7 3.4-7.7 7.7 3.4 7.7 7.7 7.7z"/><path d="m357.8 110.3c1.6 0 2.9-1.3 2.9-2.9s-1.3-2.9-2.9-2.9-2.9 1.3-2.9 2.9c.1 1.6 1.3 2.9 2.9 2.9z"/><path d="m303.8 114.5c3.7 0 6.7-3 6.7-6.7s-3-6.7-6.7-6.7-6.7 3-6.7 6.7c-.1 3.7 2.9 6.7 6.7 6.7z"/><path d="m254 123.1 49.9-14.6 53.4-1v-1.4l-53.7 1-50 14.7z"/><path d="m304.2 107.8 7.8-25.2-1.3-.4-7.8 25.2"/><path d="m311.6 86.4c2.6 0 4.7-2.1 4.7-4.7s-2.1-4.7-4.7-4.7-4.7 2.1-4.7 4.7 2.1 4.7 4.7 4.7z"/></g><g transform="translate(939 105)"><g opacity=".9" transform="translate(84 47)"><path d="m8.72857143 148.111111h4.57792207l1.0376623-15.130952h-7.20259736c.7935065 7.257936 1.58701299 15.130952 1.58701299 15.130952z" fill="#ca987a"/><path d="m8.72857143 148.111111h1.95324677c-.97662339-3.751984-1.09870132-8.242063.5493506-11.440476.2490542-.531445.7029038-.937178 1.2562159-1.123032.553312-.185855 1.1579751-.135671 1.6736543.138905l.1831168-2.706349h-7.20259736c.7935065 7.257936 1.58701299 15.130952 1.58701299 15.130952z" fill="#010101" opacity=".06"/><path d="m28.6272727 147.742063h4.5779221l.9766234-14.700396h-7.0805195c.7935065 7.196428 1.525974 14.700396 1.525974 14.700396z" fill="#ca987a"/><path d="m29.4207792 133.103175h-2.3194805c.7935065 7.196428 1.525974 14.700396 1.525974 14.700396h1.4649351c-1.7701299-4.551587-1.648052-9.841269-.6714286-14.700396z" fill="#010101" opacity=".06"/><path d="m29.6038961 56.6488095-19.77662337-.1845238-2.44155844 8.2420635c-1.40389611 3.6904762-3.2961039 9.1031746-2.86883117 13.0396825l2.99090909 29.2162703s-1.70909091 10.579365-1.28181818 16.791666c.36623376 4.244048.36623376 9.472222.97662337 15.5l7.1415584-.369047 1.8922078-33.521826 2.8077922-22.9424601 1.7701299.1845238 8.0571429 24.0496033s-2.9298702 6.519841-1.8311689 32.78373h6.9584416l3.6623377-34.444444s-4.822078-37.4583337-5.6155845-40.5337305z" fill="#3f4d57"/><path d="m13.4896104 56.5257937h-3.66233767l-2.44155844 8.2420634c-1.40389611 3.6904762-3.2961039 9.1031746-2.86883117 13.0396826l2.99090909 29.2162703s-1.89220779 10.579365-1.28181818 16.791666c.48831168 4.244048.36623376 9.472222.97662337 15.5l4.7-.246032c-1.2207792-5.843254-.3051948-12.916666 0-17.837301.4883117-9.103175.8545455-18.206349.5493507-27.309524-.3051949-9.1031746-.8545455-17.6527777.6103896-26.4484127.0754528-.5248977.3353673-1.0050688.7324675-1.3531746.14233-1.4719223.1627469-2.9532335.061039-4.4285714-.122078-1.7837301-.3051948-3.5059524-.3662338-5.1666666z" fill="#010101" opacity=".1"/><path d="m31.0688312 114.343254c.9155844-14.085317-9.5831169-32.5992064-10.0714286-31.1230159l7.874026 23.4345239s-2.4415585 26.632936-1.8311689 32.78373h5.4935065c-4.1506493-6.765873-1.8922078-18.267857-1.464935-25.095238z" fill="#010101" opacity=".1"/><path d="m17.6402597 151.125-3.9064935-2.952381c-.1603942-.116056-.3519325-.180393-.5493506-.184524h-4.33376625c-.38482072.003681-.72628344.249457-.85454545.61508-.53198682 1.690707-.79969061 3.454526-.7935065 5.228174.03181828.383443.35062276.677926.73246754.676588l12.87922076.123015c.2298269.016113.4518034-.087637.5880431-.274846.1362398-.187209.1677164-.431732.0833855-.647773-.6927359-1.525594-2.1815145-2.525738-3.8454546-2.583333z" fill="#ebebeb"/><path d="m14.7714286 148.972222c-2.3194805.123016-4.6389611.246032-6.95844159.246032-.41174702 1.37623-.61747384 2.806651-.61038961 4.244048l9.9493507.123015c-.0965794-.878462.0294235-1.767259.3662337-2.583333z" fill="#d52e1e"/><path d="m42.6662338 151.063492-8.6675325-3.382936h-5.3714286c-.2346362.017528-.443049.157538-.5493506.369047-.6393317 1.854899-.8684916 3.82822-.6714286 5.781746.0601851.359012.3711804.620166.7324675.61508l18.6168832.184523s-.2441559-3.136904-4.0896104-3.56746z" fill="#ebebeb"/><path d="m27.8948052 148.541667c-.4223326 1.624401-.5871378 3.305874-.4883117 4.982143h12.6961039c.1714354-1.067008.5896323-2.078392 1.2207792-2.952381l-5.4935065-2.09127c-2.4415584.861111-5.4324675.184524-7.9350649.061508z" fill="#d52e1e"/><path d="m33.6324675 24.8492063-11.9025974-3.6904761-10.5597402 1.2916666s-3.35714289.7996032-4.2727273 2.5833334c-.42727273.7996031 4.0285714 15.5 4.0285714 15.5s.7935065 9.7797619-1.09870127 14.3313492c-1.89220779 4.5515873-3.72337663 12.8551587-3.72337663 12.8551587l27.3454545 1.3531746s-1.1597402-14.8234127-2.2584415-21.4662698c-.2441559-1.8452381 2.0753247-9.5952381 2.0753247-9.5952381s3.6623376-8.9186508.3662337-13.1626985z" fill="#d52e1e"/><path d="m9.09480519 33.952381c.91558441 3.4444444 1.83116881 6.5813492 1.83116881 6.5813492s.7935065 9.7797619-1.09870127 14.3313492c-1.89220779 4.5515873-3.72337663 12.8551587-3.72337663 12.8551587l6.5922078.3075397c-.9766234-2.4603175-.6714286-10.8253968-.7324675-8.1190476-.061039 2.7063492.2441558-10.0873016.3051948-18.2678572-.043918-.7076222.2510921-1.3936454.7935065-1.8452381-.4792814-2.4102406-1.9117617-4.5199515-3.96753251-5.8432539z" fill="#010101" opacity=".06"/><path d="m33.6324675 24.8492063-2.6857143 22.8809524s2.9909091 7.6884921 3.8454546 7.6884921c.8545454 0 3.4181818-10.7638889 2.4415584-20.5436508-.9766233-9.7797619-3.6012987-10.0257937-3.6012987-10.0257937z" fill="#d52e1e"/><path d="m34.2428571 40.0416667c-.1831168 2.3373016-1.1597402 4.4285714-3.051948 5.6587301l-.2441559 2.0297619s2.9909091 7.6884921 3.8454546 7.6884921c.8545454 0 2.8077922-8.3035714 2.6857143-16.9146825-1.1782316-.0650817-2.3078973-.494646-3.235065-1.2301588.0913804.9203215.0913804 1.8475357 0 2.7678572z" fill="#010101" opacity=".06"/><path d="m30.7636364 38.1964286 5.9207792 1.1686508 5.2493506-10.8253969-5.6155844-.8611111z" fill="#3f4d57"/><path d="m18.3727273 18.9444444c-.1831169.7996032-1.0376624 3.0138889-1.0376624 3.0138889-.1220779 2.0912699 2.1363637 3.3214286 3.2961039 3.5674604 1.1597403.2460317 4.822078-.3075397 4.8831169-2.3988096l.7935065-9.656746-8.6064935-1.2301587s2.5025974.4920635.6714286 6.704365z" fill="#ca987a"/><path d="m20.387013 18.2678571c.6682928 2.301425 2.8855606 3.7823007 5.2493506 3.5059524l.1831169-.6765873c-2.6246753.7996032-5.4324675-2.8293651-5.4324675-2.8293651z" fill="#010101" opacity=".1"/><path d="m6.47012987 70.9801587.42727273-13.9623016-5.43246754-.5535714 1.52597403 14.3928572h-.06103896l-1.58701299 7.5039682 1.8922078 4.3670635 1.52597402 2.2142857h.12207792l.24415585 1.2301587c.35133273-.0951221.64225999-.3431827.79350649-.6765873.18311688-.6150793-.42727273-4.0595238-.42727273-4.0595238h-.06103896c-.0077806-.2959647-.06986561-.5879208-.18311688-.8611111-.30519481-1.4761905.48831169-3.3829365.48831169-3.3829365s.73246753-.3690476.97662337.6150794c.24415585.984127.7935065 2.5833333 2.01428572 2.3988095l-.79350649-4.859127z" fill="#ca987a"/><path d="m2.99090909 70.8571429h-.06103896l-1.58701299 7.5039682 1.8922078 4.3670635.54935064.7996032c-1.09870129-2.890873-.97662337-5.9047619-.3051948-9.4722222.67142857-3.5674604.06103896-4.6746032-.24415584-7.4424604-.2793279-1.816009.20755359-3.6669931 1.34285714-5.1051587.49306841-.7043379 1.38356729-1.0034515 2.1974026-.7380952l.12207792-3.7519842-5.43246754-.5535714z" fill="#010101" opacity=".06"/><path d="m6.8974026 25.0337302c-4.33376624 8.9186508-6.34805195 24.2956349-6.34805195 24.2956349s.54935065 6.6428571.91558441 11.563492c2.07532468-.0615079 3.96753247.061508 6.04285715.1230159l.36623376-13.1626984c1.0987013-2.7063492 2.25844153-6.3353175 5.00519483-13.593254 3.9675324-10.579365-5.9818182-9.2261904-5.9818182-9.2261904z" fill="#d52e1e"/><path d="m6.83636364 25.0952381c-4.27272728 8.9801587-6.28701299 24.234127-6.28701299 24.234127s.54935065 6.6428571.91558441 11.563492c1.58701299-.0615079 3.05194806 0 4.57792208.061508-2.92987013-5.7202381-3.23506493-12.1170635-2.44155844-18.452381.79350649-6.3353174 1.58701299-9.5952381 3.23506494-17.406746z" fill="#010101" opacity=".06"/><path d="m37.2337662 32.2916667c-.2248079.1959409-.3488282.4843821-.3369483.7836608s.1583666.5768165.3979873.7540376c.1831169.2460317 1.2818182 1.2916666 1.2818182 1.2916666l-.3662338.984127-.6103896-.1845238-3.4181818-1.2916666c-.1278353.0924253-.2036449.241257-.2036449.3998015 0 .1585446.0758096.3073763.2036449.3998016l.8545454.5535715-1.7701298-.6150794s-.7324676.4920635.0610389 1.0456349l1.3428572.6150794-1.7701299-.4920635c-.1422637.1219185-.2133172.3083165-.188635.4948551.0246821.1865387.141719.3476653.3107129.4277639.5116872.3390792 1.06591.6079775 1.648052.7996032l.9155844.6150794-2.8077922-.7996032c-.6103896.0615079 0 .7996032.1831169 1.0456349.6515585.4243049 1.3475338.7749661 2.0753246 1.0456349.3234908 1.0878508.5682883 2.1979033.7324676 3.3214286 0 .3690476-1.2207793 2.3988095-1.648052 4.9206349s-.1220779 6.827381.6714286 6.8888889c.7935065.061508 3.2961039-.1230159 4.3337662-4.7361111.3684848-2.1522464.4709968-4.342199.3051948-6.5198413v-4.3670635s.3051948-3.813492.6103896-4.3670634c.188618-.3724973.1653408-.8181634-.0610389-1.1686508z" fill="#ca987a"/><path d="m33.9376623 38.9960317c-.4108564.0567531-.8292111.0145962-1.2207792-.1230158l.2441559.3690476c.6515585.4243048 1.3475338.7749661 2.0753246 1.0456349.3234908 1.0878507.5682883 2.1979033.7324676 3.3214286 0 .3690476-1.2207793 2.3988095-1.648052 4.9206349s-.1220779 6.827381.6714286 6.8888889c.3498681.0075373.6990829-.0338625 1.0376623-.1230159-.0680955-.112022-.1098535-.2382588-.1220779-.3690476-.9155844-2.5218254-.6103896-5.0436508-.061039-7.6269841.3051949-1.3531746 1.8311689-8.9801588-1.7090909-8.3035715z" fill="#010101" opacity=".06"/><path d="m12.3298701 4.92063492c-3.35714283 2.27579365 3.112987 12.67063488 3.7844156 13.77777778l2.5025974-13.59325397s-2.9909091-2.5218254-6.287013-.18452381z" fill="#403f3e"/><path d="m17.3350649 5.04365079.1831169 8.67261901c.061039 3.9980159 5.9818182 7.6884921 8.4844156 7.6269842 2.5025974-.061508 5.3714286-3.875 5.3103896-7.8730159l-.1831169-8.67261905z" fill="#ca987a"/><path d="m24.6597403.43055556h-2.5636364c-3.2350649 0-6.4701299 3.19841269-6.6532468 6.39682539-.3051948 7.19642855 3.6012987 10.33333335 3.6012987 10.33333335s-1.2207792-3.5059524.3051948-5.7202381c.061039-.1230159.9766234 1.0456349 1.0376624.3075397.0153272-1.5202747 1.1307624-2.80111794 2.6246753-3.01388892 1.9079165-.24999899 3.7066661-1.03899995 5.1883117-2.27579365.4340224.50732727.925706.96150014 1.4649351 1.35317461.775427.48331106 1.5926014.89503755 2.4415584 1.23015873-.061039-3.1984127.2441559-8.98015873-7.4467532-8.61111111z" fill="#403f3e"/><path d="m17.3350649 10.9484127c-.4883117.3690476.1831169 3.9365079 2.0142857 3.7519841l.122078-3.0753968s-1.2818182-1.4146825-2.1363637-.6765873z" fill="#ca987a"/></g><path d="m58.0311927 1h-17.0311927l6.2385321 22h10.7926606 10.7302752l6.2385321-22z" fill="#f5d85b"/><path d="m58.0311284 1h-8.0311284l2.92607 22h5.1050584 5.0428016l2.92607-22z" fill="#f5e395"/><path d="m51 128h15v35h-15z" fill="#c5c5c4"/><path d="m54 22h8v103h-8z" fill="#c5c5c4"/><g fill="#747474"><path d="m51 122h15v6h-15z"/><path d="m52 41h12v6h-12z"/><path d="m67.0777044 160.000326h-17.1554088c-1.5756054-.016716-3.0914883.610021-4.2056707 1.738822-1.1141823 1.128801-1.732803 2.664574-1.7163031 4.260852h28.9993564c.0164999-1.596278-.6021208-3.132051-1.7163031-4.260852-1.1141824-1.128801-2.6300653-1.755538-4.2056707-1.738822z"/><path d="m50.6353276 26h14.7293448c2.007736 0 3.6353276-1.790861 3.6353276-4h-22c0 2.209139 1.6275916 4 3.6353276 4z"/><path d="m77.9999998 2.02816901c0 1.08901219-.9685123 1.97183099-2.1632329 1.97183099h-34.6735338c-1.1947206 0-2.1632329-.8828188-2.1632329-1.97183099-.0004651-1.09848927.9585803-1.9976555 2.1632329-2.02816901h34.6735338c1.2046526.03051351 2.163698.92967974 2.1632329 2.02816901z"/></g><g fill="#157abf"><path d="m21.6962267 68.0719532c-2.4658363.4793623-4.0814483 2.8573368-3.6164881 5.3230085.4923239 2.4224984 2.8492003 3.9946175 5.278245 3.5207744s4.0204347-2.8161658 3.5639315-5.2456518c-.4565033-2.429486-2.7899117-4.036147-5.2256884-3.5981311"/><path d="m19.904897 59.2842667c-4.7678665.9125242-8.7532137 4.1465471-10.60363577 8.6046209-.42193768.6870939-.39904285 1.5560161.05850055 2.2202571s1.26472832 1.0003914 2.06250692.8589266c.7977786-.1414649 1.4379315-.7342623 1.6357092-1.5147072 1.2793182-3.1034363 4.0012643-5.3930779 7.2942295-6.1357467 3.2929651-.7426687 6.7437806.1548183 9.2474424 2.4050719.5311219.4607093 1.2626389.6196194 1.9389505.4212052.3678808-.1187514.7007811-.3253718.9694753-.6017217.7205496-.8581992.640769-2.1258401-.1817766-2.8882644-3.3681721-3.0156657-7.9771281-4.2659698-12.421402-3.3696417"/><path d="m17.3767414 50.4820044c-6.7982971 1.2570718-13.53479161 6.2254986-17.1193483 12.5707183-.26429995.4599871-.32810939 1.0031262-.17726589 1.5088683.15084351.5057421.50386114.9322487.98070101 1.184857 1.00775543.5384885 2.27523397.1915444 2.84292427-.7781873 3.02833238-5.3275901 8.65237821-9.457969 14.27642411-10.5354591 5.6240458-1.0774902 11.0008808.0598605 15.4506754 3.4120521.5199372.4067326 1.2126278.5409172 1.854081.3591633.7499521-.2110515 1.3171935-.8075403 1.4728472-1.5487883s-.1259609-1.50496-.7312148-1.9829849c-5.4386377-4.1303788-11.804316-5.5071718-18.849824-4.1902394"/></g></g></g></g></svg>