<?xml version="1.0" encoding="UTF-8"?>
<svg width="1200px" height="400px" viewBox="0 0 1200 400" version="1.1" xmlns="http://www.w3.org/2000/svg" xmlns:xlink="http://www.w3.org/1999/xlink">
    <!-- Generator: Sketch 53.2 (72643) - https://sketchapp.com -->
    <title>da-01-problemen-oplossen</title>
    <desc>Created with Sketch.</desc>
    <defs>
        <polyline id="path-1" points="0.664 241.679 0.664 425.679 1239.664 425.679 1239.664 241.679 0.664 241.679"></polyline>
        <filter x="-3.6%" y="-28.3%" width="108.7%" height="158.7%" filterUnits="objectBoundingBox" id="filter-2">
            <feMorphology radius="7" operator="dilate" in="SourceAlpha" result="shadowSpreadOuter1"></feMorphology>
            <feOffset dx="9" dy="2" in="shadowSpreadOuter1" result="shadowOffsetOuter1"></feOffset>
            <feGaussianBlur stdDeviation="9.5" in="shadowOffsetOuter1" result="shadowBlurOuter1"></feGaussianBlur>
            <feColorMatrix values="0 0 0 0 0.628368433   0 0 0 0 0.628368433   0 0 0 0 0.628368433  0 0 0 0.5 0" type="matrix" in="shadowBlurOuter1"></feColorMatrix>
        </filter>
    </defs>
    <g id="da-01-problemen-oplossen" stroke="none" stroke-width="1" fill="none" fill-rule="evenodd">
        <g id="achtergrond-header-images">
            <g id="Group" stroke-width="1" fill-rule="evenodd" transform="translate(-17.000000, 0.000000)">
                <polyline id="Path" fill="#DDEFF8" fill-rule="nonzero" points="17 0 17 400 1217 400 1217 0 17 0"></polyline>
                <g id="Path" fill-rule="nonzero">
                    <use fill="black" fill-opacity="1" filter="url(#filter-2)" xlink:href="#path-1"></use>
                    <use fill="#BCDFF1" xlink:href="#path-1"></use>
                </g>
            </g>
            <path d="M667.789,151 L660.652,151 L662.563,125.416 L669.193,125.416 C672.599017,125.416 675.354989,126.41049 677.461,128.3995 C679.567011,130.38851 680.62,133.098983 680.62,136.531 C680.62,141.289024 679.443512,144.889988 677.0905,147.334 C674.737488,149.778012 671.637019,151 667.789,151 Z M668.764,127.912 L665.293,127.912 L663.772,148.504 L668.101,148.504 C670.831014,148.504 673.086491,147.561509 674.8675,145.6765 C676.648509,143.791491 677.539,140.89902 677.539,136.999 C677.539,134.164986 676.752508,131.942008 675.1795,130.33 C673.606492,128.717992 671.468014,127.912 668.764,127.912 Z M694.504,144.994 L695.479,134.152 C695.140998,134.074 694.751002,134.0155 694.309,133.9765 C693.866998,133.9375 693.438002,133.918 693.022,133.918 C691.565993,133.918 690.207506,134.814991 688.9465,136.609 C687.685494,138.403009 687.055,141.041983 687.055,144.526 C687.055,146.112008 687.282498,147.223497 687.7375,147.8605 C688.192502,148.497503 688.744997,148.816 689.395,148.816 C690.071003,148.816 690.857496,148.497503 691.7545,147.8605 C692.651504,147.223497 693.567995,146.268006 694.504,144.994 Z M696.142,131.89 L698.482,131.5 L696.727,151 L694.036,151 L694.348,147.88 L694.231,147.88 C693.372996,149.076006 692.463005,149.953497 691.501,150.5125 C690.538995,151.071503 689.525005,151.351 688.459,151.351 C687.184994,151.351 686.151504,150.850505 685.3585,149.8495 C684.565496,148.848495 684.169,147.139012 684.169,144.721 C684.169,140.482979 685.098491,137.233011 686.9575,134.971 C688.816509,132.708989 690.915988,131.578 693.256,131.578 C693.828003,131.578 694.347998,131.604 694.816,131.656 C695.284002,131.708 695.725998,131.785999 696.142,131.89 Z M702.226,134.152 L702.226,131.929 L704.449,131.929 L704.839,127.834 L707.608,127.405 L707.14,131.929 L711.079,131.929 L710.845,134.152 L706.906,134.152 L705.775,145.345 C705.644999,146.697007 705.729499,147.613498 706.0285,148.0945 C706.327501,148.575502 706.801997,148.816 707.452,148.816 C707.946002,148.816 708.381498,148.777 708.7585,148.699 C709.135502,148.621 709.609997,148.491001 710.182,148.309 L710.182,150.766 C709.531997,151.000001 708.966502,151.156 708.4855,151.234 C708.004498,151.312 707.374004,151.351 706.594,151.351 C705.267993,151.351 704.286503,150.909004 703.6495,150.025 C703.012497,149.140996 702.797999,147.646011 703.006,145.54 L704.176,134.152 L702.226,134.152 Z M723.52,144.994 L724.495,134.152 C724.156998,134.074 723.767002,134.0155 723.325,133.9765 C722.882998,133.9375 722.454002,133.918 722.038,133.918 C720.581993,133.918 719.223506,134.814991 717.9625,136.609 C716.701494,138.403009 716.071,141.041983 716.071,144.526 C716.071,146.112008 716.298498,147.223497 716.7535,147.8605 C717.208502,148.497503 717.760997,148.816 718.411,148.816 C719.087003,148.816 719.873496,148.497503 720.7705,147.8605 C721.667504,147.223497 722.583995,146.268006 723.52,144.994 Z M725.158,131.89 L727.498,131.5 L725.743,151 L723.052,151 L723.364,147.88 L723.247,147.88 C722.388996,149.076006 721.479005,149.953497 720.517,150.5125 C719.554995,151.071503 718.541005,151.351 717.475,151.351 C716.200994,151.351 715.167504,150.850505 714.3745,149.8495 C713.581496,148.848495 713.185,147.139012 713.185,144.721 C713.185,140.482979 714.114491,137.233011 715.9735,134.971 C717.832509,132.708989 719.931988,131.578 722.272,131.578 C722.844003,131.578 723.363998,131.604 723.832,131.656 C724.300002,131.708 724.741998,131.785999 725.158,131.89 Z M747.778,127.756 L747.505,127.756 L742.435,141.874 L750.391,141.874 L747.778,127.756 Z M750.157,125.416 L755.227,151 L751.99,151 L750.742,144.37 L741.421,144.37 L739.12,151 L736,151 L745.828,125.416 L750.157,125.416 Z M769.033,144.994 L770.008,134.152 C769.669998,134.074 769.280002,134.0155 768.838,133.9765 C768.395998,133.9375 767.967002,133.918 767.551,133.918 C766.094993,133.918 764.736506,134.814991 763.4755,136.609 C762.214494,138.403009 761.584,141.041983 761.584,144.526 C761.584,146.112008 761.811498,147.223497 762.2665,147.8605 C762.721502,148.497503 763.273997,148.816 763.924,148.816 C764.600003,148.816 765.386496,148.497503 766.2835,147.8605 C767.180504,147.223497 768.096995,146.268006 769.033,144.994 Z M770.671,131.89 L773.011,131.5 L771.256,151.195 C771.021999,153.821013 770.177007,155.705994 768.721,156.85 C767.264993,157.994006 765.56201,158.566 763.612,158.566 C762.623995,158.566 761.707504,158.527 760.8625,158.449 C760.017496,158.371 759.101005,158.241001 758.113,158.059 L758.113,155.368 C759.075005,155.628001 759.984996,155.822999 760.843,155.953 C761.701004,156.083001 762.558996,156.148 763.417,156.148 C764.899007,156.148 766.075496,155.764504 766.9465,154.9975 C767.817504,154.230496 768.343999,152.989009 768.526,151.273 L768.877,147.88 L768.76,147.88 C767.875996,149.076006 766.959505,149.953497 766.0105,150.5125 C765.061495,151.071503 764.054005,151.351 762.988,151.351 C761.713994,151.351 760.680504,150.850505 759.8875,149.8495 C759.094496,148.848495 758.698,147.139012 758.698,144.721 C758.698,140.482979 759.627491,137.233011 761.4865,134.971 C763.345509,132.708989 765.444988,131.578 767.785,131.578 C768.357003,131.578 768.876998,131.604 769.345,131.656 C769.813002,131.708 770.254998,131.785999 770.671,131.89 Z M776.482,144.292 C776.482,140.001979 777.339991,136.81051 779.056,134.7175 C780.772009,132.62449 782.61799,131.578 784.594,131.578 C786.180008,131.578 787.401996,131.967996 788.26,132.748 C789.118004,133.528004 789.547,134.606993 789.547,135.985 C789.547,138.169011 788.624009,139.949993 786.778,141.328 C784.931991,142.706007 782.436016,143.395 779.29,143.395 C779.29,145.527011 779.627997,146.963496 780.304,147.7045 C780.980003,148.445504 781.941994,148.816 783.19,148.816 C784.074004,148.816 784.925496,148.699001 785.7445,148.465 C786.563504,148.230999 787.388996,147.893002 788.221,147.451 L788.221,149.986 C787.310995,150.480002 786.414004,150.830999 785.53,151.039 C784.645996,151.247001 783.606006,151.351 782.41,151.351 C780.511991,151.351 779.049505,150.792006 778.0225,149.674 C776.995495,148.555994 776.482,146.762012 776.482,144.292 Z M786.661,136.336 C786.661,135.555996 786.453002,134.971002 786.037,134.581 C785.620998,134.190998 785.036004,133.996 784.282,133.996 C783.319995,133.996 782.345005,134.587494 781.357,135.7705 C780.368995,136.953506 779.745001,138.766988 779.485,141.211 C781.773011,141.211 783.540994,140.736505 784.789,139.7875 C786.037006,138.838495 786.661,137.688007 786.661,136.336 Z M802.261,151 L803.47,138.403 C803.626001,136.842992 803.515502,135.764003 803.1385,135.166 C802.761498,134.567997 802.248003,134.269 801.598,134.269 C801.025997,134.269 800.291504,134.515998 799.3945,135.01 C798.497496,135.504002 797.451006,136.270995 796.255,137.311 L795.007,151 L792.238,151 L793.954,132.085 L796.723,131.734 L796.45,134.659 L796.567,134.659 C797.685006,133.540994 798.711995,132.748002 799.648,132.28 C800.584005,131.811998 801.493996,131.578 802.378,131.578 C803.730007,131.578 804.769996,132.065495 805.498,133.0405 C806.226004,134.015505 806.486001,135.659988 806.278,137.974 L805.03,151 L802.261,151 Z M820.552,144.994 L821.566,134.152 C821.227998,134.074 820.831502,134.0155 820.3765,133.9765 C819.921498,133.9375 819.486002,133.918 819.07,133.918 C817.613993,133.918 816.255506,134.814991 814.9945,136.609 C813.733494,138.403009 813.103,141.041983 813.103,144.526 C813.103,146.112008 813.330498,147.223497 813.7855,147.8605 C814.240502,148.497503 814.792997,148.816 815.443,148.816 C816.119003,148.816 816.905496,148.497503 817.8025,147.8605 C818.699504,147.223497 819.615995,146.268006 820.552,144.994 Z M825.271,123.661 L822.775,151 L820.084,151 L820.396,147.88 L820.279,147.88 C819.394996,149.076006 818.478505,149.953497 817.5295,150.5125 C816.580495,151.071503 815.573005,151.351 814.507,151.351 C813.232994,151.351 812.199504,150.850505 811.4065,149.8495 C810.613496,148.848495 810.217,147.139012 810.217,144.721 C810.217,140.482979 811.146491,137.233011 813.0055,134.971 C814.864509,132.708989 816.963988,131.578 819.304,131.578 C819.798002,131.578 820.246498,131.5975 820.6495,131.6365 C821.052502,131.6755 821.422998,131.734 821.761,131.812 L822.463,124.012 L825.271,123.661 Z M838.492,144.994 L839.467,134.152 C839.128998,134.074 838.739002,134.0155 838.297,133.9765 C837.854998,133.9375 837.426002,133.918 837.01,133.918 C835.553993,133.918 834.195506,134.814991 832.9345,136.609 C831.673494,138.403009 831.043,141.041983 831.043,144.526 C831.043,146.112008 831.270498,147.223497 831.7255,147.8605 C832.180502,148.497503 832.732997,148.816 833.383,148.816 C834.059003,148.816 834.845496,148.497503 835.7425,147.8605 C836.639504,147.223497 837.555995,146.268006 838.492,144.994 Z M840.13,131.89 L842.47,131.5 L840.715,151 L838.024,151 L838.336,147.88 L838.219,147.88 C837.360996,149.076006 836.451005,149.953497 835.489,150.5125 C834.526995,151.071503 833.513005,151.351 832.447,151.351 C831.172994,151.351 830.139504,150.850505 829.3465,149.8495 C828.553496,148.848495 828.157,147.139012 828.157,144.721 C828.157,140.482979 829.086491,137.233011 830.9455,134.971 C832.804509,132.708989 834.903988,131.578 837.244,131.578 C837.816003,131.578 838.335998,131.604 838.804,131.656 C839.272002,131.708 839.713998,131.785999 840.13,131.89 Z M865.285,125.065 C867.911013,125.065 870.055992,126.05949 871.72,128.0485 C873.384008,130.03751 874.216,132.773983 874.216,136.258 C874.216,141.120024 873.026512,144.850987 870.6475,147.451 C868.268488,150.051013 865.532015,151.351 862.438,151.351 C859.785987,151.351 857.634508,150.480009 855.9835,148.738 C854.332492,146.995991 853.507,144.344018 853.507,140.782 C853.507,135.685975 854.637989,131.792513 856.9,129.1015 C859.162011,126.410487 861.956983,125.065 865.285,125.065 Z M864.778,127.756 C862.593989,127.756 860.689508,128.821989 859.0645,130.954 C857.439492,133.086011 856.627,136.16698 856.627,140.197 C856.627,143.317016 857.211994,145.513994 858.382,146.788 C859.552006,148.062006 861.072991,148.699 862.945,148.699 C864.97301,148.699 866.838491,147.71751 868.5415,145.7545 C870.244509,143.79149 871.096,140.84702 871.096,136.921 C871.096,133.670984 870.511006,131.331007 869.341,129.901 C868.170994,128.470993 866.650009,127.756 864.778,127.756 Z M880.69,151 L877.375,131.929 L880.339,131.929 L882.874,148.465 L883.03,148.465 L884.083,146.32 C885.045005,144.36999 885.863997,142.270511 886.54,140.0215 C887.216003,137.772489 887.800998,135.075016 888.295,131.929 L891.181,131.929 C890.686998,134.945015 890.024004,137.661988 889.192,140.08 C888.359996,142.498012 887.359006,144.811989 886.189,147.022 L884.083,151 L880.69,151 Z M892.663,144.292 C892.663,140.001979 893.520991,136.81051 895.237,134.7175 C896.953009,132.62449 898.79899,131.578 900.775,131.578 C902.361008,131.578 903.582996,131.967996 904.441,132.748 C905.299004,133.528004 905.728,134.606993 905.728,135.985 C905.728,138.169011 904.805009,139.949993 902.959,141.328 C901.112991,142.706007 898.617016,143.395 895.471,143.395 C895.471,145.527011 895.808997,146.963496 896.485,147.7045 C897.161003,148.445504 898.122994,148.816 899.371,148.816 C900.255004,148.816 901.106496,148.699001 901.9255,148.465 C902.744504,148.230999 903.569996,147.893002 904.402,147.451 L904.402,149.986 C903.491995,150.480002 902.595004,150.830999 901.711,151.039 C900.826996,151.247001 899.787006,151.351 898.591,151.351 C896.692991,151.351 895.230505,150.792006 894.2035,149.674 C893.176495,148.555994 892.663,146.762012 892.663,144.292 Z M902.842,136.336 C902.842,135.555996 902.634002,134.971002 902.218,134.581 C901.801998,134.190998 901.217004,133.996 900.463,133.996 C899.500995,133.996 898.526005,134.587494 897.538,135.7705 C896.549995,136.953506 895.926001,138.766988 895.666,141.211 C897.954011,141.211 899.721994,140.736505 900.97,139.7875 C902.218006,138.838495 902.842,137.688007 902.842,136.336 Z M918.442,131.851 L918.091,134.581 C917.882999,134.555 917.701001,134.5355 917.545,134.5225 C917.388999,134.5095 917.194001,134.503 916.96,134.503 C916.231996,134.503 915.465004,134.840997 914.659,135.517 C913.852996,136.193003 913.086004,137.128994 912.358,138.325 L911.266,151 L908.497,151 L910.096,132.085 L912.865,131.734 L912.514,135.322 L912.67,135.322 C913.554004,133.761992 914.327497,132.748002 914.9905,132.28 C915.653503,131.811998 916.374996,131.578 917.155,131.578 C917.389001,131.578 917.616499,131.5975 917.8375,131.6365 C918.058501,131.6755 918.259999,131.746999 918.442,131.851 Z M929.596,151 L930.805,138.403 C930.935001,136.842992 930.824502,135.764003 930.4735,135.166 C930.122498,134.567997 929.622003,134.269 928.972,134.269 C928.373997,134.269 927.620005,134.515998 926.71,135.01 C925.799995,135.504002 924.760006,136.270995 923.59,137.311 L922.342,151 L919.573,151 L922.03,124.012 L924.838,123.661 L923.785,134.659 L923.902,134.659 C925.020006,133.566995 926.046995,132.780502 926.983,132.2995 C927.919005,131.818498 928.828996,131.578 929.713,131.578 C931.065007,131.578 932.104996,132.065495 932.833,133.0405 C933.561004,134.015505 933.821001,135.659988 933.613,137.974 L932.365,151 L929.596,151 Z M937.435,144.292 C937.435,140.001979 938.292991,136.81051 940.009,134.7175 C941.725009,132.62449 943.57099,131.578 945.547,131.578 C947.133008,131.578 948.354996,131.967996 949.213,132.748 C950.071004,133.528004 950.5,134.606993 950.5,135.985 C950.5,138.169011 949.577009,139.949993 947.731,141.328 C945.884991,142.706007 943.389016,143.395 940.243,143.395 C940.243,145.527011 940.580997,146.963496 941.257,147.7045 C941.933003,148.445504 942.894994,148.816 944.143,148.816 C945.027004,148.816 945.878496,148.699001 946.6975,148.465 C947.516504,148.230999 948.341996,147.893002 949.174,147.451 L949.174,149.986 C948.263995,150.480002 947.367004,150.830999 946.483,151.039 C945.598996,151.247001 944.559006,151.351 943.363,151.351 C941.464991,151.351 940.002505,150.792006 938.9755,149.674 C937.948495,148.555994 937.435,146.762012 937.435,144.292 Z M947.614,136.336 C947.614,135.555996 947.406002,134.971002 946.99,134.581 C946.573998,134.190998 945.989004,133.996 945.235,133.996 C944.272995,133.996 943.298005,134.587494 942.31,135.7705 C941.321995,136.953506 940.698001,138.766988 940.438,141.211 C942.726011,141.211 944.493994,140.736505 945.742,139.7875 C946.990006,138.838495 947.614,137.688007 947.614,136.336 Z M955.18,125.923 C955.18,125.324997 955.355498,124.850502 955.7065,124.4995 C956.057502,124.148498 956.518997,123.973 957.091,123.973 C957.585002,123.973 957.961999,124.109499 958.222,124.3825 C958.482001,124.655501 958.612,125.038998 958.612,125.533 C958.612,126.053003 958.443002,126.501498 958.105,126.8785 C957.766998,127.255502 957.299003,127.444 956.701,127.444 C956.258998,127.444 955.895001,127.314001 955.609,127.054 C955.322999,126.793999 955.18,126.417002 955.18,125.923 Z M957.715,131.734 L955.96,151 L953.191,151 L954.907,132.085 L957.715,131.734 Z M971.716,144.994 L972.73,134.152 C972.391998,134.074 971.995502,134.0155 971.5405,133.9765 C971.085498,133.9375 970.650002,133.918 970.234,133.918 C968.777993,133.918 967.419506,134.814991 966.1585,136.609 C964.897494,138.403009 964.267,141.041983 964.267,144.526 C964.267,146.112008 964.494498,147.223497 964.9495,147.8605 C965.404502,148.497503 965.956997,148.816 966.607,148.816 C967.283003,148.816 968.069496,148.497503 968.9665,147.8605 C969.863504,147.223497 970.779995,146.268006 971.716,144.994 Z M976.435,123.661 L973.939,151 L971.248,151 L971.56,147.88 L971.443,147.88 C970.558996,149.076006 969.642505,149.953497 968.6935,150.5125 C967.744495,151.071503 966.737005,151.351 965.671,151.351 C964.396994,151.351 963.363504,150.850505 962.5705,149.8495 C961.777496,148.848495 961.381,147.139012 961.381,144.721 C961.381,140.482979 962.310491,137.233011 964.1695,134.971 C966.028509,132.708989 968.127988,131.578 970.468,131.578 C970.962002,131.578 971.410498,131.5975 971.8135,131.6365 C972.216502,131.6755 972.586998,131.734 972.925,131.812 L973.627,124.012 L976.435,123.661 Z" id="DataAgendaOverheid" fill="#000000" fill-rule="nonzero"></path>
            <path d="M679.784,102 L669.424,72.32 L669.088,72.32 L669.088,102 L662.648,102 L662.648,65.264 L673.736,65.264 L684.152,94.944 L684.488,94.944 L684.488,65.264 L690.928,65.264 L690.928,102 L679.784,102 Z M700.168,102 L700.168,65.264 L707.448,65.264 L707.448,96.064 L719.88,96.064 L719.88,102 L700.168,102 Z M746.984,102 L736.624,102 L736.624,65.264 L747.32,65.264 C753.629365,65.264 758.463983,66.7853181 761.824,69.828 C765.184017,72.8706819 766.864,77.1173061 766.864,82.568 C766.864,89.2133666 765.081351,94.1133176 761.516,97.268 C757.950649,100.422682 753.106697,102 746.984,102 Z M743.904,71.2 L743.904,96.064 L747.32,96.064 C750.904018,96.064 753.778656,95.0373436 755.944,92.984 C758.109344,90.9306564 759.192,87.57069 759.192,82.904 C759.192,79.1333145 758.081344,76.2400101 755.86,74.224 C753.638656,72.2079899 750.642686,71.2 746.872,71.2 L743.904,71.2 Z M781.424,65.264 L781.424,102 L774.144,102 L774.144,65.264 L781.424,65.264 Z M805.896,89.288 L805.896,83.352 L818.272,83.352 L818.272,101.328 C816.442658,101.701335 814.622676,101.971999 812.812,102.14 C811.001324,102.308001 809.106677,102.392 807.128,102.392 C801.565306,102.392 797.094684,100.908015 793.716,97.94 C790.337316,94.9719852 788.648,90.5760291 788.648,84.752 C788.648,78.1066334 790.551981,73.1320165 794.36,69.828 C798.168019,66.5239835 802.965304,64.872 808.752,64.872 C810.432008,64.872 811.925327,64.9279994 813.232,65.04 C814.538673,65.1520006 815.845327,65.3386654 817.152,65.6 L816.648,71.76 C815.117326,71.5359989 813.736006,71.386667 812.504,71.312 C811.271994,71.237333 809.946674,71.2 808.528,71.2 C804.831982,71.2 801.873344,72.2919891 799.652,74.476 C797.430656,76.6600109 796.32,79.8613122 796.32,84.08 C796.32,88.1493537 797.393323,91.2293229 799.54,93.32 C801.686677,95.4106771 804.290651,96.456 807.352,96.456 C808.136004,96.456 808.798664,96.4373335 809.34,96.4 C809.881336,96.3626665 810.52533,96.306667 811.272,96.232 L811.272,89.288 L805.896,89.288 Z M833.504,65.264 L833.504,102 L826.224,102 L826.224,65.264 L833.504,65.264 Z M856.688,71.2 L856.688,102 L849.408,102 L849.408,71.2 L839.328,71.2 L839.328,65.264 L866.768,65.264 L866.768,71.2 L856.688,71.2 Z M885.08,88.28 L880.544,71.312 L880.152,71.312 L875.616,88.28 L885.08,88.28 Z M886.312,65.264 L897.008,102 L888.608,102 L886.592,94.104 L874.16,94.104 L872.144,102 L864.584,102 L875.336,65.264 L886.312,65.264 Z M918.792,88.28 L914.256,71.312 L913.864,71.312 L909.328,88.28 L918.792,88.28 Z M920.024,65.264 L930.72,102 L922.32,102 L920.304,94.104 L907.872,94.104 L905.856,102 L898.296,102 L909.048,65.264 L920.024,65.264 Z M936.04,102 L936.04,65.264 L943.32,65.264 L943.32,96.064 L955.752,96.064 L955.752,102 L936.04,102 Z" id="NLDIGITAAL" fill="#007BC7" fill-rule="nonzero"></path>
        </g>
        <g id="Hoofdstuk-1-site_NDA[v1]" transform="translate(38.000000, -1.000000)" fill-rule="nonzero">
            <path d="M986.7,259 C987.9,259.1 986.8,262.2 988.1,262.7 C994.5,265 991.3,273.2 989.9,273.4 C977,274.8 962.4,271.2 950.1,270.2 C950.3,267.7 950.8,261 950.9,260.8 C951,260.5 955,257.5 958.9,257.9 C959.2,257.9 959.5,257.7 959.8,257.4 C960.2,257.1 960.5,256.9 960.9,256.9 C966.3,257 970,255 969.2,249.3 C973,249.7 976.2,249.9 980.1,250.1 C978.2,255.7 981.4,258.2 986.7,259" id="Path" fill="#AD743F"></path>
            <path d="M978.9,304.8 L978.8,304.6 L962.2,303.4 L952.2,282 L947.5,313.5 L956.9,313.8 L954.1,318 L946.7,335.9 L950.3,343.5 L960.9,332.2 L965.8,324.5 L977.7,316.9 C980.4,312.7 980.9,309.5 978.9,304.8" id="Path" fill="#3D3D3D"></path>
            <polyline id="Path" fill="#373737" points="950.3 343.6 950.3 343.6 949.1 341.1 958.8 331.6 964.3 321.6 977.6 317 977.7 317 965.8 324.6 960.8 332.3 950.3 343.6"></polyline>
            <path d="M956.9,313.9 L956.9,313.9 L947.5,313.6 L952.2,282.1 L962.2,303.5 L961.9,304.2 C961.1,304.4 960.4,304.7 959.7,304.9 C960.2,305.1 960.8,305.2 961.3,305.2 C961.4,305.2 961.4,305.2 961.5,305.2 L956.9,313.9" id="Path" fill="#323232"></path>
            <polygon id="Path" fill="#AD743F" points="945 329.6 945.7 323.7 939 322.9 938.4 329.3"></polygon>
            <path d="M945,329.6 L944.1,329.4 C944,328.3 943,327.4 941.5,327.2 C939.9,327 938.6,327.8 938.4,329 C938.4,329.1 938.4,329.2 938.4,329.3 L938.4,329.3 L934.3,335.8 C933.8,337 934.3,338.3 935.5,338.9 C937.8,340 940.4,340.6 943,340.7 L943.3,340.7 C944.5,340.7 945.5,339.9 945.7,338.8 L945,329.6 Z" id="Path" fill="#E9A212"></path>
            <path d="M945.6,338.7 L945.4,332.4 C945.4,331.4 945.2,330.5 944.9,329.6 L944.9,337.8 C944.7,339 943.7,339 943,339 L942.7,339 C940.1,338.9 937.6,338.3 935.2,337.2 C934.7,336.9 934.3,336.5 934,336 C933.6,337.1 934.2,338.4 935.2,338.9 C937.5,340 940.1,340.6 942.7,340.7 L943,340.7 C944.4,340.7 945.4,339.9 945.6,338.7" id="Path" fill="#E0E1E1"></path>
            <path d="M992.7,270.5 L997,292.1 C997,292.1 1009,308 1010,308.6 C1011,309.2 1015.1,308.9 1015.1,308.9 C1015.7,308.8 1020.5,309.8 1021,310.1 L1024.4,312 C1024.8,312.2 1024.6,312.8 1024.2,312.8 C1024.2,312.8 1019.1,311.9 1016.3,311.7 C1013,312.8 1019.4,312.8 1018.6,314.3 L1014.4,314.3 L1010.3,312.7 C1010.3,312.7 1000.7,307.7 998,305.5 C995.3,303.2 990.8,297.9 990.8,297.9 C990.8,297.9 986.4,288.2 985.6,280.6 C987.9,276.9 992.7,270.5 992.7,270.5" id="Path" fill="#E3B98F"></path>
            <path d="M980.3,308.5 L980,308.5 C980,308.5 980,308.5 979.9,308.5 C979.7,307.3 979.3,306.1 978.8,304.8 L978.7,304.6 L963.6,303.5 C968.6,301.9 974.4,299.9 977.1,297.9 C982.3,294.1 963.1,295.2 974.7,289.3 C979.1,287.1 982.8,283.9 985.8,280.8 C985.9,281.7 986.1,282.7 986.3,283.7 C983.5,290.7 981.3,307.5 981.3,307.5 C981.2,308.1 980.8,308.5 980.3,308.5" id="Path" fill="#B3D4E5"></path>
            <path d="M980,308.5 C979.8,308.5 979.6,308.4 979.5,308.2 C979.1,307.9 978.7,307.5 978.2,307.2 C975.4,305.4 972.2,304.5 968.9,304.5 C968.7,304.5 968.4,304.5 968.2,304.5 C967.2,304.6 966.2,304.6 965,304.7 L961.8,304.9 C961.7,304.9 961.6,304.9 961.4,304.9 L961.9,303.9 C962.5,303.7 963.1,303.5 963.7,303.3 L978.8,304.4 L978.9,304.6 C979.4,306.2 979.8,307.4 980,308.5" id="Path" fill="#3A3A3A"></path>
            <path d="M993,271.7 L993,271.7 C993.2,271.4 993.3,271.2 993.4,271.1 C993.2,271.2 993.1,271.4 993,271.7" id="Path" fill="#B3D4E5"></path>
            <path d="M961.2,305.1 C960.6,305.1 960.1,305 959.6,304.8 C960.3,304.6 961.1,304.4 961.8,304.1 L961.3,305.1 C961.3,305 961.3,305.1 961.2,305.1" id="Path" fill="#303030"></path>
            <path d="M986.3,283.8 C986.1,282.8 985.9,281.9 985.8,280.9 C989.6,276.9 992.1,273.1 993,271.6 L993,271.6 C991.6,274.2 988.3,280.1 987.1,282 C986.8,282.5 986.5,283.1 986.3,283.8" id="Path" fill="#D8B088"></path>
            <path d="M993.3,271 C993.5,270.6 993.6,270.4 993.6,270.4 L993.3,271 L993.3,271" id="Path" fill="#B3D4E5"></path>
            <path d="M944.6,330 C940.9,324.9 950.2,347.8 950.2,347.8 L950.8,344.9 L944.6,330 Z" id="Path" fill="#E9A212"></path>
            <path d="M983.1,257.4 L983.1,257.4 C983.1,260.9 978.9,263.7 973.6,263.7 C968.3,263.7 964.1,260.9 964.1,257.4 C964.1,257 964.2,256.6 964.3,256.3 C960.9,256.4 958,256.7 955.9,257.1 C950.6,258 945.3,265.6 940.2,270.7 C940.7,274.7 946.9,275.5 949.7,280.5 L953.2,284.8 L956.9,301.5 C957.4,303.7 959.5,305.3 961.8,305 L965,304.8 C966.2,304.7 967.2,304.7 968.2,304.6 C971.7,304.5 975.2,305.4 978.2,307.3 C978.7,307.6 979.1,307.9 979.5,308.3 C980.2,308.9 981.2,308.5 981.3,307.6 C981.3,307.6 984,287.3 987.1,282 C988.6,279.5 993.6,270.4 993.6,270.4 C993.2,265 990.3,259.3 983.1,257.4" id="Path" fill="#147ABF"></path>
            <path d="M939.5,284.8 C939.7,282.8 940.8,281.1 942.3,279.9 C943.6,278.9 945.3,278.4 946.9,278.5 L949.8,278.6 C952.6,281.8 953.9,286 953.3,290.2 L945.6,325.9 L937.9,324.9 L939.5,284.8 Z" id="Path" fill="#3D3D3D"></path>
            <path d="M947.2,347 C947.2,347 945.5,335.7 942.5,330.2" id="Path" fill="#E9A212"></path>
            <path d="M946.3,351.4 L946.3,351.4 C943.5,351.2 941.7,348.8 941.8,345.5 C941.9,343.9 941.5,342.5 940.7,341.5 L937.1,336.7 C935.9,335.1 935.2,333 935.3,330.5 C935.3,329.6 935.5,328.7 935.7,327.9 C936.1,326.7 937.8,326.4 939.1,326.7 C941.3,327.2 943.4,328.6 944.1,330.7 L950.1,347.3 C950.6,348.9 947.9,351.5 946.3,351.4" id="Path" fill="#E0E1E1"></path>
            <path d="M949,347.8 L943,331.2 C942.2,329 940.1,327.7 937.9,327.2 C937.4,327.1 936.8,327.1 936.3,327.2 C937,326.7 938.1,326.6 939,326.8 C941.2,327.3 943.3,328.7 944,330.8 L950,347.4 C950.5,348.8 948.3,351.1 946.7,351.3 C948.1,350.6 949.4,348.9 949,347.8" id="Path" fill="#F0EFEF"></path>
            <path d="M1001,228.9 C1007,226.1 1009.7,234.9 1010.4,238 C1011.9,245.3 1022.6,252 1002.5,256 C982.4,260 989.4,249.6 988.2,242 C987.2,235.9 988.8,229.9 996,229.6 C997.6,229.5 999.4,230.1 1001.1,230.1 C1000.9,229.8 1000.6,229.5 1000.3,229.3 L1001,228.9 Z" id="Path" fill="#E16F0D"></path>
            <path d="M997.1,249.6 C997.9,252.6 997.8,255.8 996.7,257.2 C996.4,257.6 995.2,257.8 994,258.1 C992.3,258.4 990.2,258.7 989.2,258.9 C986.6,259.4 986.3,262.8 986.4,264.2 C986.6,266 988.2,265.7 988.7,267.2 C988.8,267.5 988.9,268.3 989,269.2 C990.1,269.8 991.2,270.3 992.4,270.8 L1011.1,270.8 C1011.8,270.6 1012.4,270.3 1013.1,270 L1013.5,266.7 L1017.4,264 C1017.3,257.6 1011,259.3 1007.7,257.9 C1005,256.8 1004.8,254.5 1005,249.9 L997.1,249.6 Z" id="Path" fill="#FBD7C0"></path>
            <path d="M1008.7,258 C1010.7,258.2 1014.5,257.9 1016.3,258.8 C1017.2,259.3 1018.2,260.4 1018.5,261.4 C1018.8,262.5 1019.9,267.6 1020.8,270.7 L1014.9,268.6 L1014.4,271.3 C1014.9,272.2 1015.1,273.2 1015.1,274.2 C1015.1,276.1 1014.2,277.9 1012.8,279 L1010.2,292.2 L1013.1,300.3 L990.6,300.7 L993.8,292.6 L991.1,279 C989.7,277.8 988.8,276.1 988.8,274.1 C988.8,273 989.1,272 989.5,271.1 L988.9,268 L982.9,272.2 C984.1,269.5 984.6,262.3 985.1,261.1 C985.9,259 987.2,258.4 989.4,258.4 C990.4,258.3 992.9,258.2 993.9,258 C995,265.6 998,269.4 1001,269.9 C1004.8,270.7 1008.5,266.4 1008.7,258" id="Path" fill="#E9ACCE"></path>
            <path d="M991.5,241.3 C991.1,241.1 990.9,241.3 990.9,241.7 C990.9,242.3 991.6,243.4 991.9,244 C991.7,243 991,242.2 991,241.7 C991,241.4 991.3,241.3 991.6,241.5 L991.5,241.3" id="Path" fill="#E9A37A"></path>
            <path d="M1004.3,251 C1005.1,250.1 1005.6,249.2 1006.3,247.7 C1006.8,246.6 1007,245.8 1007.2,244.6 C1008,244.6 1008.2,244 1008.2,243.1 C1008.3,241.8 1008.6,240.5 1008.6,239.4 C1008.7,238 1007.7,237.4 1007.1,238.6 C1007,237.5 1006.8,236.3 1006.5,235.3 C1005.2,231.5 1002.2,228.9 998,229.5 C993.4,230.2 991.4,232.4 991.4,236.9 C991.4,238.3 991.5,239.5 991.7,240.6 C990.9,240.1 990.4,240.9 990.8,242 C991.2,243 991.9,244.2 992.3,245.4 C992.6,246.2 993,246.7 993.6,246.5 C994.2,247.7 994.8,248.7 995.7,249.6 C996.6,250.5 997.3,251.1 998.1,251.6 C999.8,252.7 1000.7,253.1 1001.5,253 C1002.3,253.1 1003.1,252.4 1004.3,251" id="Path" fill="#FAD4C7"></path>
            <path d="M988.4,238.8 C986.9,230.8 996.4,224.7 1002.2,228.8 C1002,228.9 1004,230.1 1004.9,231 C1008.2,234.5 1007.6,239.2 1007,243.4 C1007,240.1 1007,236.9 1005.4,234 C1003.3,240 992.3,238 993.2,244.9 C992.8,244.6 992.6,243.9 992.4,243.5 C991.8,245.1 992.2,250.3 996.2,251.3 C991,252.5 988.7,239.9 988.4,238.8" id="Path" fill="#E16F0D"></path>
            <path d="M992.8,265.6 L987.5,280.7 L993.4,294.5 L991.2,297.1 L981.7,283.5 C979.8,281.7 979.9,282.3 981.1,280 L986.1,260.1 L992.8,265.6 Z" id="Path" fill="#E9ACCE"></path>
            <path d="M1013.2,269.7 C1014.4,270.8 1015.1,272.5 1015.1,274.2 C1015.1,275.5 1014.7,276.7 1014,277.8 C1012.1,280.6 1008.6,281.2 1005.6,279.7 C1009.8,280.1 1015.7,276.4 1013.2,269.7" id="Path" fill="#E494BF"></path>
            <path d="M990.7,269.8 C989.5,270.9 988.8,272.6 988.8,274.3 C988.8,275.6 989.2,276.8 989.9,277.9 C991.8,280.7 995.3,281.3 998.3,279.8 C994.1,280.2 988.2,276.5 990.7,269.8" id="Path" fill="#E494BF"></path>
            <path d="M1009.7,265.6 L1020.3,280.2 L1009.1,294.5 L1011.3,297.1 L1026.2,283.1 C1028.1,281.3 1028,281.9 1026.8,279.5 L1016.4,260 L1009.7,265.6 Z" id="Path" fill="#E9ACCE"></path>
            <path d="M973.9,264.8 L978.2,262.6 L983.6,263 L983.4,264 L979.5,263.9 C978.8,267.8 979.8,270.8 976.9,273.2 L980.7,273.7 L979.4,275.1 L974,275.5 L969.2,272.6 L969.3,267 L973.9,264.8 Z" id="Path" fill="#AD743F"></path>
            <path d="M978.6,264 L993,264 C994,264 994.8,264.8 994.8,265.8 L994.8,271.8 C994.8,272.8 994,273.6 993,273.6 L978.6,273.6 C977.6,273.6 976.8,272.8 976.8,271.8 L976.8,265.8 C976.8,264.8 977.6,264 978.6,264" id="Path" fill="#2E2E2C"></path>
            <path d="M990.4,269.6 C990.9,269.6 991.2,269.2 991.2,268.8 C991.2,268.3 990.8,268 990.4,268 C990,268 989.6,268.4 989.6,268.8 C989.6,269.3 989.9,269.6 990.4,269.6" id="Path" fill="#4E4D4C"></path>
            <path d="M969.3,266.2 L970.7,273.8 L944.1,280.2 C941.8,280.8 938.9,279.3 938,277 C936.9,274 938.8,269.7 944.6,269.1 L969.3,266.2 Z" id="Path" fill="#5B91CD"></path>
            <polyline id="Path" fill="#026A9D" points="989 308.6 1015.5 308.6 1015.5 299.3 989 299.3 989 308.6"></polyline>
            <path d="M1007.7,317 L997.1,317 C991.4,317 986.6,312.6 986.2,306.8 L984.9,288.6 L996.6,289.7 L1002.3,306.4 L1009.4,286.4 L1020.3,286.3 L1018.5,307.1 C1018.1,312.7 1013.4,317 1007.7,317" id="Path" fill="#026A9D"></path>
            <path d="M995.2,344.4 C997,344.7 998.7,343.7 999.3,342 L1000.9,333.7 C1001.5,331.7 1001.5,330 999.6,329.3 C997.7,328.7 996.6,330.1 996,332 L992.4,339.4 C991.6,341.6 992.9,344 995.2,344.4" id="Path" fill="#F0F1F1"></path>
            <polyline id="Path" fill="#F0C89B" points="993.4 338.5 997.4 329.8 999.7 319.2 1005.6 321.1 1000.9 331.7 999.1 340.7 993.4 338.5"></polyline>
            <polyline id="Path" fill="#E6BD92" points="999.1 340.7 993.4 338.5 997.4 329.8 999.7 319.2 1005.6 321.1 1001.2 331.1 1000.9 331.7 999.1 340.7"></polyline>
            <path d="M1005.6,321.1 L1020.2,288.6 C1021.3,285.3 1019.5,281.8 1016.2,280.7 C1012.7,279.5 1009,281.7 1008.2,285.3 L999.8,319.1 L1005.6,321.1" id="Path" fill="#026A9D"></path>
            <polyline id="Path" fill="#AFCFE0" points="1000.3 317.1 1000.3 317.1 1000.3 317 1000.3 317 1000.3 317.1"></polyline>
            <polyline id="Path" fill="#026392" points="1000.3 317 1000.3 317 1001.2 313.5 1000.3 317"></polyline>
            <polyline id="Path" fill="#026392" points="1005.6 321.1 1005.6 321.1 1001.5 319.8 1000.3 317.1 1000.3 317 1001.2 313.5 1003.9 302.3 1007.5 316.7 1005.6 321.1"></polyline>
            <path d="M1009.9,344.4 L1009.9,344.4 C1008.1,344.7 1006.4,343.7 1005.8,342 L1004.3,333.7 C1003.7,331.7 1003.7,330 1005.6,329.3 C1007.6,328.7 1008.6,330.1 1009.2,332 L1012.8,339.3 C1013.5,341.6 1012.2,344 1009.9,344.4" id="Path" fill="#F0F1F1"></path>
            <polygon id="Path" fill="#F0C89B" points="1011.7 338.6 1007.7 329.9 1005.4 319.2 999.5 321.1 1004.2 331.7 1006 340.7"></polygon>
            <path d="M999.5,321.1 L985,288.6 C983.9,285.3 985.7,281.8 989,280.8 C992.5,279.6 996.2,281.8 997,285.4 L1005.4,319.2 L999.5,321.1 Z" id="Path" fill="#026A9D"></path>
            <path d="M988.5,281 C988.5,281 1004.7,288.7 1010,288.5 C1015.3,288.3 1016.9,287.5 1016.9,287.5 L1019.2,289.6 C1020,290.3 1020.2,291.5 1019.7,292.4 L1019.2,293.5 C1018.4,295.2 1016.4,295.9 1014.6,295.2 L1010.1,293.2 C1010.1,293.2 987.8,288.6 984.5,287.3 C978.6,285.1 980.5,280.7 980.9,280 C983.2,279.7 986,280.1 988.5,281" id="Path" fill="#FBD7C0"></path>
            <path d="M972.7,257.3 L972.7,257.3 C971.5,256.8 970.9,256.5 970.4,256 C969.9,255.5 969.9,254.8 969.4,253.7 C969,252.7 968,251.5 968,250.7 C968,249.7 968.5,248.7 968.9,247.4 C968.1,247.5 968.2,245.4 968.3,244.7 C968.5,243.7 968.5,241.9 968.7,240.8 C968.8,240.2 969.1,239.7 969.4,239.7 C969.9,239.6 970.3,239.9 970.6,241 C970.9,240.3 971.3,239.6 971.6,238.8 C972.2,237.3 972.6,236.1 973.2,235.1 C973.8,234.1 974.6,233.4 975.8,233 L975.8,233 C976.4,232.8 977.1,232.6 977.8,232.6 L977.8,232.6 L977.9,232.6 L978,232.6 L978.1,232.6 L978.2,232.6 L978.3,232.6 L978.4,232.6 L978.5,232.6 L978.6,232.6 L978.8,232.6 L978.8,232.6 C980.6,232.7 982.4,233.3 984,234.2 C985.5,235.1 986.8,236.4 987.6,238 C988.1,239.1 988.2,240.1 987.9,241.3 C987.7,242.4 987.1,243.6 986.5,245 C986.2,245.8 985.9,246.5 985.6,247.3 C986.5,246.7 987,246.7 987.3,247.2 C987.4,247.4 987.3,247.9 986.9,248.5 C986.3,249.4 985,250.7 984.4,251.5 C984,252 982.6,253.6 982.1,253 C981.4,254.2 981.1,255.2 980.4,255.9 C979.8,256.5 978.3,256.7 977.3,257.1 C976.2,257.6 975.6,258 974.9,258 C974.3,258 973.7,257.8 972.7,257.3" id="Path" fill="#C78F58"></path>
            <path d="M975.3,235.4 C974.5,235.8 971.9,239.2 970.3,243.4 C971.2,236.6 972.1,231.8 976.4,230.2 C977.5,229.4 977,228.5 979.6,225.2 C979.7,227.6 981.8,228.2 982.6,229.2 L982.6,228.4 C983.4,229.7 984.6,230.4 985.8,231.2 C987.8,232.4 989,234.1 989,234.9 C992.5,238 988.1,243.8 984.9,248.4 C985.9,245.8 986.7,242.4 986.4,239.6 C986.2,239.2 985.9,238.8 985.6,238.9 C981,239 976,235 975.3,235.4" id="Path" fill="#552A16"></path>
            <rect id="Rectangle" fill="#FFFFFF" x="657.3" y="349.1" width="5.8" height="52.2"></rect>
            <rect id="Rectangle" fill="#FFFFFF" x="657.3" y="297.8" width="5.8" height="3.9"></rect>
            <rect id="Rectangle" fill="#FFFFFF" x="657.3" y="313.8" width="5.8" height="3.9"></rect>
            <g id="Group" transform="translate(657.000000, 329.000000)" fill="#FFFFFF">
                <rect id="Rectangle" x="0.3" y="0.9" width="5.8" height="12.1"></rect>
                <rect id="Rectangle" x="144.1" y="20.1" width="5.8" height="52.2"></rect>
            </g>
            <rect id="Rectangle" fill="#FFFFFF" x="801.1" y="329.9" width="5.8" height="12.1"></rect>
            <rect id="Rectangle" fill="#FFFFFF" x="801.1" y="297.8" width="5.8" height="3.9"></rect>
            <rect id="Rectangle" fill="#FFFFFF" x="801.1" y="313.8" width="5.8" height="3.9"></rect>
            <path d="M726.9,285.6 L648,285.6 L648,297.8 L657.3,297.8 L663.1,297.8 L725.6,297.8 L726.2,293.1 C727,293.3 727.9,293.4 728.7,293.6 C726.9,293.3 725.6,293 725.5,293 L726.9,285.6 Z" id="Path" fill="#A29598"></path>
            <path d="M735.9,295 L735.4,297.8 L736.5,297.8 L736.6,293.9 L736.3,295.1 C736.2,295 736.1,295 735.9,295" id="Path" fill="#A29598"></path>
            <path d="M733.7,294.6 C732,294.3 730.4,294 728.7,293.7 C730.3,293.9 732.1,294.2 733.7,294.6" id="Path" fill="#A29598"></path>
            <path d="M780.5,292.5 C779.9,292.6 779.2,292.7 778.5,292.8 L779,297.8 L801,297.8 L806.8,297.8 L817.9,297.8 L817.9,285.6 L779,285.6 L780.5,292.5 Z" id="Path" fill="#A29598"></path>
            <polygon id="Path" fill="#A29598" points="801.1 301.6 786.8 301.6 784.1 313.8 801.1 313.8 806.9 313.8 817.9 313.8 817.9 301.6 806.9 301.6"></polygon>
            <polygon id="Path" fill="#A29598" points="733.9 307.2 736.2 308.7 736.4 301.6 734.8 301.6"></polygon>
            <path d="M724.1,309.9 L724.2,308.6 L724.2,308.6 L724.6,305.7 L725.1,301.6 L663.2,301.6 L657.4,301.6 L648.1,301.6 L648.1,313.8 L657.4,313.8 L663.2,313.8 L727,313.8 C725.1,313 724,311.9 724.1,309.9" id="Path" fill="#A29598"></path>
            <polygon id="Path" fill="#A29598" points="801.1 317.7 783.3 317.7 782.3 322.3 783.5 329.9 801.1 329.9 806.9 329.9 817.9 329.9 817.9 317.7 806.9 317.7"></polygon>
            <polygon id="Path" fill="#A29598" points="663.1 317.7 657.3 317.7 648 317.7 648 329.9 657.3 329.9 663.1 329.9 735.7 329.9 735.7 325.8 735.2 325.8 735.2 323.4 735.7 323.4 735.7 323.4 735.9 317.7 735.8 317.7"></polygon>
            <path d="M801.1,342 L787.5,342 C787.3,342.7 786.9,343.2 785.9,343.2 L779.6,343.2 L779.2,349.1 L801.1,349.1 L806.9,349.1 L818,349.1 L818,342 L806.9,342 L801.1,342 Z" id="Path" fill="#A29598"></path>
            <path d="M764.6,343.2 L758.3,343.2 L757.9,349.1 L766.7,349.1 L766.7,343.1 C766.2,343.2 765.7,343.2 765.2,343.2 L764.6,343.2 Z" id="Path" fill="#A29598"></path>
            <path d="M743.9,343.2 C742.3,343.2 740.9,342.8 739.6,342 L663.1,342 L657.3,342 L648,342 L648,349.1 L657.3,349.1 L663.1,349.1 L745.5,349.1 L745.5,343.2 L744.6,343.2 L743.9,343.2 Z" id="Path" fill="#A29598"></path>
            <path d="M742.2,323.4 L742.8,323.4 L743.3,321.1 L741.6,320.3 C741.8,321.5 742,322.6 742.2,323.4" id="Path" fill="#EF7B26"></path>
            <path d="M776.5,273.4 C776.1,272.3 774.5,269 770.2,267.9 L758.8,263.6 L758.8,266.2 C758.8,267.6 758.3,268.8 757.4,269.8 C756.8,270.2 756.3,271.3 753.6,271.3 C753,271.3 752.4,271.3 751.6,271.2 C749.6,270.5 748.1,268.6 748.1,266.3 L748.1,263.1 L735.4,267.9 C731,269 729.5,272.3 729.1,273.4 L737.6,289.9 L737.6,290 L737.9,290.2 C738.3,291.6 739.4,302.3 740.5,311.4 L744.9,314.2 L748,299.8 L769.5,299.8 L769.5,297.9 L769,294.4 L768,287.8 L776.5,273.4 L776.5,273.4 Z" id="Path" fill="#E47E28"></path>
            <path d="M735.9,317.7 L735.7,323.4 L742.3,323.4 C742.1,322.6 741.9,321.6 741.7,320.3 L735.9,317.7 Z" id="Path" fill="#ED6B08"></path>
            <path d="M737.5,289.9 L736.6,293.8 L736.1,308.6 L740.3,311.3 C739.2,302.2 738.1,291.6 737.7,290.1 L737.5,289.9 Z" id="Path" fill="#ED6B08"></path>
            <path d="M749,244.4 L749,244.4 L749,244.4 L749,246.1 C749.2,250.1 749.5,252.9 750.7,254.4 L754.5,254 C755,253.6 755.7,253.4 756.4,253.4 L758.8,253.4 C760.1,253.4 761.3,254.2 761.8,255.4 C763.1,254.6 763.5,253.3 763.6,252.4 L763.6,251.5 L763.6,251.4 L763.6,251.5 L763.6,241.7 L751.7,241.7 C748.9,241.7 749,244.4 749,244.4" id="Path" fill="#EDC4AD"></path>
            <path d="M748.1,258.3 L748.1,258.3 L748.1,255.9 C747.8,255 747.6,254.2 747.5,253.6 L748.1,258.3 Z" id="Path" fill="#EDC4AD"></path>
            <path d="M746.2,246 C745.6,246 744.9,246 744.9,247.9 C744.9,252.3 746.8,252.5 747.2,252.5 L747.3,252.5 L747.3,252.5 L747.5,247 C747.2,246.7 746.8,246 746.2,246" id="Path" fill="#EDC4AD"></path>
            <path d="M753.3,255.7 C753.5,255 753.9,254.5 754.5,254 L751.1,254 C751.7,254.8 752.4,255.3 753.3,255.7" id="Path" fill="#EDC4AD"></path>
            <path d="M757.5,263.4 C751.8,263.3 749.2,259.1 748.1,255.9 L748.1,258.4 L748.1,263.1 L748.1,266.2 C748.1,268.5 749.6,270.4 751.6,271.1 C752.4,271.2 753,271.2 753.6,271.2 C756.3,271.2 756.8,270.2 757.4,269.7 C758.3,268.8 758.8,267.5 758.8,266.1 L758.8,263.5 L758.8,263.2 C758.5,263.3 758.1,263.3 757.7,263.3 L757.5,263.4" id="Path" fill="#EDC4AD"></path>
            <path d="M750.9,234.5 C748.6,234.5 743.5,235.2 743.5,241.4 L743.5,248.4 C743.5,248.4 743.8,256.1 748.1,258.3 L748.1,258.3 L747.5,253.6 C747.4,253 747.3,252.6 747.3,252.5 L747.2,252.5 C746.8,252.5 744.9,252.2 744.9,247.9 C744.9,246.1 745.6,246 746.2,246 C746.8,246 747.3,246.7 747.4,247 L749,246.9 L748.9,245.8 C748.9,245.9 748.9,246 748.9,246.1 L748.9,244.4 L748.9,244.4 L749,244.4 C749,244.4 748.9,241.7 751.6,241.6 C751.7,241.6 751.8,241.6 751.9,241.6 L763.6,241.6 C763.6,241.6 765.8,241.5 765.8,234.6 L752.1,234.6 C752,234.5 751.6,234.5 750.9,234.5" id="Path" fill="#683328"></path>
            <path d="M735.7,334.3 L735.7,334.9 C735.7,337.9 737.3,340.5 739.7,342 L740.2,342 C737.5,340.4 735.7,337.6 735.7,334.3" id="Path" fill="#ECECEC"></path>
            <path d="M765.3,343.2 C765.8,343.2 766.3,343.2 766.8,343.1 L766.8,343 C766.1,343.2 765.4,343.2 764.7,343.2 L765.3,343.2 Z" id="Path" fill="#978B8E"></path>
            <path d="M739.7,342 C740.9,342.8 742.4,343.2 744,343.2 L744.6,343.2 C743,343.2 741.4,342.8 740.1,342 L739.7,342 Z" id="Path" fill="#978B8E"></path>
            <path d="M783.8,397 L775.7,393.6 L767.9,393.6 C767.9,393.6 766.2,397 766.8,400.9 L788.4,400.9 C788.5,400.9 788.2,397.5 783.8,397" id="Path" fill="#5E5D5C"></path>
            <path d="M759.4,397 L754,393.6 L746.8,393.6 C746.8,393.6 745,397 745.6,400.9 L764.2,400.9 C764.2,400.9 763.9,397.5 759.4,397" id="Path" fill="#5E5D5C"></path>
            <path d="M778.5,292.8 C775.6,293.2 771.9,293.7 769.5,294.2 L768.9,294.5 L768.9,294.5 L769.4,298 L769.6,299.9 L769.6,299.7 L769.7,299.9 L779.2,299.9 L779,297.9 L778.5,292.8 Z" id="Path" fill="#EDC4AD"></path>
            <path d="M782.3,322.3 L781.5,325.8 L778.7,325.8 C779.7,327 780.3,328.5 780.4,330.2 C781.2,331.8 781.8,333.2 782.5,334.2 L782.6,334.4 L784.3,334.4 L783.6,329.8 L782.3,322.3 Z" id="Path" fill="#EDC4AD"></path>
            <path d="M776.5,273.4 L768,287.9 L769,294.5 L769,294.5 L769.6,294.2 C772,293.7 775.7,293.2 778.5,292.8 C779.2,292.7 779.9,292.6 780.5,292.5 L779.1,285.6 L776.5,273.4 Z" id="Path" fill="#E47E28"></path>
            <polygon id="Path" fill="#DBB6A2" points="769.7 299.8 769.8 299.8 769.7 299.6"></polygon>
            <path d="M780.3,330.2 L780.3,330.4 L780,334.4 L782.4,334.4 L782.3,334.2 C781.8,333.2 781.1,331.8 780.3,330.2" id="Path" fill="#DBB6A2"></path>
            <path d="M726.9,285.6 L725.6,293 C725.6,293 730.2,293.9 733.7,294.6 C734.4,294.7 735.1,294.8 735.9,294.9 L735.9,295 C736.1,295 736.2,295.1 736.4,295.1 L736.7,293.9 L737.6,290 L737.6,290 L729.1,273.5 L726.9,285.6 Z" id="Path" fill="#E47E28"></path>
            <path d="M726.3,293.1 L725.7,297.8 L725.2,301.7 L725.2,301.7 L734,307.3 L734.9,301.7 L735.5,297.8 L736,295 L736,294.9 C735.3,294.8 734.5,294.7 733.8,294.6 C731.2,294.1 728.7,293.7 726.3,293.1" id="Path" fill="#EDC4AD"></path>
            <path d="M724.2,308.6 L724.6,305.7 L724.2,308.6 Z" id="Path" fill="#EDC4AD"></path>
            <path d="M784.2,334.4 L782.5,334.4 L780.1,334.4 L779.5,343.2 L785.8,343.2 C786.8,343.2 787.2,342.7 787.4,342 C787.6,341.3 787.5,340.4 787.4,339.7 C787.3,338.2 784.2,334.4 784.2,334.4" id="Path" fill="#EDC4AD"></path>
            <polygon id="Path" fill="#1D9FA4" points="742.8 323.4 742.2 323.4 735.7 323.4 735.7 323.4"></polygon>
            <path d="M767,328.5 C766.8,329.1 766.7,329.7 766.7,330.3 C766.7,329.7 766.8,329.1 767,328.5 M780.3,330.2 C780.2,328.5 779.6,327 778.6,325.8 L768.3,325.8 C768.1,326.1 767.9,326.4 767.7,326.7 C766.9,331.3 767.5,335.8 768.5,340.2 C767.5,335.8 766.9,331.4 767.7,326.7 L767.7,326.7 C767.4,327.2 767.2,327.7 767,328.3 C767.3,327.4 767.7,326.5 768.3,325.8 L757.3,325.8 L747.7,325.8 L747.2,325.8 L747.2,325.8 L742.4,325.8 L735.7,325.8 L735.7,325.9 L735.7,334.3 C735.7,337.6 737.5,340.5 740.1,342 C741.4,342.8 742.9,343.2 744.6,343.2 L745.5,343.2 L745.5,393.6 L751.3,393.6 L755.1,393.6 L757.9,349.1 L758.3,343.2 L764.6,343.2 C765.3,343.2 766,343.1 766.7,343 L766.7,393.7 L771.9,393.7 L776.3,393.7 L779.1,349.2 L779.5,343.3 L780.1,334.5 L780.4,330.5 L780.3,330.2" id="Shape" fill="#026A9D"></path>
            <polygon id="Path" fill="#EDC4AD" points="736.2 308.7 735.9 317.7 741.6 320.3 743.3 321 744.8 314.2 740.4 311.4"></polygon>
            <path d="M725.1,301.6 L725.1,301.6 L725.1,301.6 L725.1,301.6 L724.5,305.7 L724.2,308.6 L724.1,309.9 C724,311.9 725.1,313 727,313.8 C727.4,314 727.9,314.2 728.4,314.3 L735.9,317.6 L735.9,317.6 L736.2,308.6 L733.9,307.2 L725.1,301.6 Z" id="Path" fill="#EDC4AD"></path>
            <path d="M763.5,251.3 L763.5,251.3 C763.5,251.5 763.6,251.9 763.5,252.3 C763.4,253.2 763,254.5 761.7,255.3 C761.9,255.7 762,256.2 762,256.6 L762,257.5 C762,259.3 760.5,260.8 758.7,260.8 L756.3,260.8 C754.5,260.8 753,259.3 753,257.5 L753,256.6 C753,256.2 753.1,255.9 753.2,255.5 C752.4,255.2 751.6,254.7 751,253.8 C749.9,252.3 749.2,250.7 748.9,246.6 C748.9,246.5 748.9,246.7 748.9,246.6 L747.3,246.7 L747.1,252.2 L747.1,252.2 C747.1,252.3 747.2,252.7 747.3,253.3 C747.4,253.9 747.6,254.7 747.9,255.6 C749,258.8 751.6,263 757.3,263.1 L757.5,263.1 C757.9,263.1 758.3,263.1 758.6,263 C765.2,262.2 763.6,252.2 763.5,251.3 L763.5,251.3" id="Path" fill="#EDC4AD"></path>
            <path d="M758.5,257.9 L758.3,257.9 L758,257.9 C756.8,257.9 755.9,257.9 755.9,256.4 L760.6,256.4 C760.6,257.8 759.7,257.9 758.5,257.9 M758.7,253.4 L756.3,253.4 C755.6,253.4 754.9,253.6 754.4,254 C753.9,254.4 753.4,255 753.2,255.7 C753.1,256 753,256.4 753,256.8 L753,257.7 C753,259.5 754.4,261 756.3,261 L758.7,261 C760.5,261 762,259.5 762,257.7 L762,256.8 C762,256.3 761.9,255.9 761.7,255.5 C761.2,254.2 760.1,253.4 758.7,253.4" id="Shape" fill="#EDC4AD"></path>
            <path d="M758,257.9 L758.3,257.9 L758.5,257.9 C759.7,257.9 760.6,257.9 760.6,256.4 L755.9,256.4 C755.9,257.8 756.8,257.9 758,257.9" id="Path" fill="#F1C5AC"></path>
            <polygon id="Path" fill="#666665" points="769.8 299.8 769.7 299.8 769.5 299.8 748 299.8 744.8 314.2 743.3 321 742.8 323.4 742.8 323.4 748.9 323.4 748.9 325.8 757.4 325.8 768.4 325.8 778.7 325.8 781.5 325.8 782.3 322.3 783.3 317.7 784.1 313.8 786.8 301.6 787.2 299.8 779.3 299.8"></polygon>
            <polygon id="Path" fill="#666665" points="735.7 323.4 735.2 323.4 735.2 325.8 735.7 325.8 742.3 325.8 747.7 325.8 748.9 325.8 748.9 323.4 742.8 323.4"></polygon>
            <g id="Group" transform="translate(806.000000, 193.000000)">
                <polygon id="Path" fill="#C5C5C4" points="100.6 5.4 91.9 0 18.7 117 27.4 122.5"></polygon>
                <path d="M21.4,29 C18.4,27.8 15,29.3 13.8,32.4 C12.6,35.4 14.1,38.8 17.2,40 C20.2,41.2 23.6,39.7 24.8,36.6 C25.9,33.6 24.4,30.2 21.4,29" id="Path" fill="#147ABF"></path>
                <path d="M26.1,16.8 C19.9,14.4 13,15.3 7.5,19.2 C6.2,20.1 5.9,21.8 6.8,23.1 C7.7,24.4 9.5,24.7 10.7,23.8 C14.6,21 19.6,20.4 24,22.1 C28.1,23.7 31.2,27.1 32.5,31.4 C32.8,32.3 33.5,33 34.4,33.3 C34.9,33.5 35.4,33.5 36,33.3 C37.5,32.9 38.3,31.3 37.9,29.8 C36.3,23.8 31.9,19 26.1,16.8" id="Path" fill="#147ABF"></path>
                <path d="M30.5,5.5 C21.9,2.2 10.6,3.2 1.9,8.1 C0.6,8.9 0.1,10.6 0.8,11.9 C1.6,13.2 3.3,13.7 4.6,13 C11.9,8.9 21.3,8 28.4,10.8 C35.8,13.7 40.9,18.7 43.5,25.7 C43.8,26.6 44.5,27.2 45.3,27.4 C45.9,27.6 46.5,27.6 47.1,27.4 C48.6,26.9 49.3,25.3 48.8,23.8 C45.7,15.1 39.5,9 30.5,5.5" id="Path" fill="#147ABF"></path>
            </g>
            <polyline id="Path" fill="#0068B3" points="437.4 124.7 634.7 218.2 635.3 216.8 438 123.3"></polyline>
            <path d="M318.4,158 C314.4,156.6 310,158.8 308.6,162.8 C307.2,166.8 309.4,171.2 313.4,172.6 C317.4,174 321.8,171.8 323.2,167.8 C324.6,163.8 322.4,159.4 318.4,158 L318.4,158 Z" id="Path" fill="#0068B3"></path>
            <path d="M178.8,103.3 C177.3,102.8 175.7,103.6 175.2,105.1 C174.7,106.6 175.5,108.2 177,108.7 C178.5,109.2 180.1,108.4 180.6,106.9 C181.1,105.5 180.3,103.9 178.8,103.3 L178.8,103.3 Z" id="Path" fill="#0068B3"></path>
            <path d="M267.8,157.1 C264.3,155.9 260.5,157.8 259.3,161.3 C258.1,164.8 260,168.6 263.5,169.8 C267,171 270.8,169.1 272,165.6 C273.2,162.1 271.3,158.3 267.8,157.1 L267.8,157.1 Z" id="Path" fill="#0068B3"></path>
            <polygon id="Path" fill="#0068B3" points="317.6 165.2 265.8 162.8 22 0.5 21.2 1.7 265.4 164.1 317.5 166.6"></polygon>
            <polyline id="Path" fill="#0068B3" points="265.2 163.4 249.6 184.6 250.7 185.4 266.3 164.2"></polyline>
            <path d="M251.2,181.2 C248.8,180.4 246.1,181.7 245.2,184.1 C244.4,186.5 245.7,189.2 248.1,190.1 C250.5,190.9 253.2,189.6 254.1,187.2 C255,184.7 253.7,182 251.2,181.2 L251.2,181.2 Z" id="Path" fill="#0068B3"></path>
            <polyline id="Path" fill="#0068B3" points="178.2 105.5 8 171.6 8.5 173 178.7 106.9"></polyline>
            <polyline id="Path" fill="#0068B3" points="318.1 166.6 487.5 107.8 487 106.4 317.6 165.2"></polyline>
            <polyline id="Path" fill="#0068B3" points="45 158.1 31.9 135.2 30.7 135.9 43.8 158.7"></polyline>
            <path d="M34.3,138.1 C36.1,136.2 36,133.2 34.1,131.5 C32.2,129.7 29.2,129.8 27.5,131.7 C25.7,133.6 25.8,136.6 27.7,138.3 C29.6,140.1 32.6,140 34.3,138.1 L34.3,138.1 Z" id="Path" fill="#0068B3"></path>
            <path d="M10.7,165 C6.7,163.6 2.3,165.8 0.9,169.8 C-0.5,173.8 1.7,178.2 5.7,179.6 C9.7,181 14.1,178.8 15.5,174.8 C16.8,170.8 14.7,166.4 10.7,165 L10.7,165 Z" id="Path" fill="#0068B3"></path>
            <path d="M489.1,102 C486.7,101.2 484,102.5 483.1,104.9 C482.3,107.3 483.6,110 486,110.9 C488.4,111.7 491.1,110.4 492,108 C492.8,105.5 491.5,102.8 489.1,102 L489.1,102 Z" id="Path" fill="#0068B3"></path>
            <path d="M637.8,211.3 C633.8,209.9 629.4,212.1 628,216.1 C626.6,220.1 628.8,224.5 632.8,225.9 C636.8,227.3 641.2,225.1 642.6,221.1 C644,217.1 641.9,212.7 637.8,211.3 L637.8,211.3 Z" id="Path" fill="#0068B3"></path>
            <path d="M1119.8,162.1 C1123.6,160.1 1128.2,161.5 1130.2,165.3 C1132.2,169.1 1130.8,173.7 1127,175.7 C1123.2,177.7 1118.6,176.3 1116.6,172.5 C1114.6,168.8 1116.1,164.1 1119.8,162.1 L1119.8,162.1 Z" id="Path" fill="#0068B3"></path>
            <polyline id="Path" fill="#0068B3" points="982.2 201.1 1161.4 160.7 1161.7 162 982.5 202.5"></polyline>
            <polyline id="Path" fill="#0068B3" points="1121.3 170.5 1040.5 134.4 1041.1 133.1 1121.9 169.1"></polyline>
            <path d="M1039,129.3 C1041.3,128.1 1044.1,129 1045.4,131.2 C1046.6,133.5 1045.7,136.3 1043.5,137.5 C1041.2,138.7 1038.4,137.8 1037.2,135.6 C1035.9,133.4 1036.7,130.5 1039,129.3 L1039,129.3 Z" id="Path" fill="#0068B3"></path>
            <path d="M978.8,195.9 C982.1,194.2 986.1,195.4 987.9,198.7 C989.7,202 988.4,206 985.1,207.8 C981.8,209.5 977.8,208.3 976,205 C974.3,201.7 975.6,197.6 978.8,195.9 L978.8,195.9 Z" id="Path" fill="#0068B3"></path>
            <path d="M396.6,226.2 L396.9,224.8 C395,225.5 392.8,225.4 391,224.6 L390.9,225.7 L390.9,225.7 L388,235.7 L389.1,242.1 L391.3,245.1 C391.3,245.1 392.9,245.5 393.1,243.9 C393.4,242.3 394.3,234.8 394.3,234.8 C394.3,234.8 395.4,234.4 395.6,235.8 C395.7,237.2 396.3,239.4 398,239.4 L397.8,232.6 L396.6,226.2 Z" id="Path" fill="#BE8C70"></path>
            <path d="M439.5,217.5 C439.4,217.5 402.2,217.7 402,217.6 L401.5,237.2 L403.1,270.3 L407.3,318 L415.4,318 L417,271.2 L419.5,236.4 L421.3,236.3 L425,270 L432.2,318 L440,318 L439.3,269.8 L440.1,235.4 L439.5,217.5" id="Path" fill="#3A8835"></path>
            <rect id="Rectangle" fill="#367D31" x="401.8" y="225.2" width="38.4" height="92.9"></rect>
            <path d="M415.5,318.1 L412,318.1 C412.2,312.8 412.2,307.5 412.2,302.2 C412.1,290.8 412.8,279.4 413.6,268 C414.2,259.3 419.6,236.5 419.6,236.5 L417.1,271.3 L415.5,318.1" id="Path" fill="#367D31"></path>
            <path d="M439.3,213.1 L439.3,213.1 L438.3,203.7 L438.3,203.7 L437.8,199.5 L439.3,213.1 M437.8,199.5 L437.8,198.7 L437.8,198.7 L437.8,199.5" id="Shape" fill="#C7D7DF"></path>
            <path d="M432.2,318.1 L427,321.7 C422.3,322.2 422,327.2 422,327.2 L441.6,327.2 C442,322.5 440.6,319.7 440.1,318.1 L432.2,318.1 Z" id="Path" fill="#E6EBEE"></path>
            <path d="M427.1,327.2 L431.4,327.2 C431.5,326.8 431.7,326.5 432.1,326.1 C434.5,323.5 437.6,321.8 441,320.6 C440.9,320.1 441,320.5 440.9,320.1 C435.5,321 430.5,322.2 427.1,327.2" id="Path" fill="#EE7552"></path>
            <path d="M407.4,318.1 L397.9,321.7 C393.2,322.2 392.9,327.2 392.9,327.2 L416.5,327.2 C417,322.5 416.1,319.6 415.6,318.1 L407.4,318.1 Z" id="Path" fill="#E6EBEE"></path>
            <path d="M400.8,327.2 L405.7,327.2 C405.9,326.9 406,326.6 406.3,326.4 C409,323.8 412.2,321.9 415.7,320.7 C410.1,321.7 404.3,323.3 400.8,327.2" id="Path" fill="#EE7552"></path>
            <path d="M422,327.2 L441.6,327.2 C441.7,326.5 441.7,325.8 441.7,325.2 L422.5,325.2 C422.1,326.3 422,327.2 422,327.2" id="Path" fill="#2E5A71"></path>
            <path d="M393.3,325.2 C392.9,326.3 392.8,327.2 392.8,327.2 L416.4,327.2 C416.5,326.5 416.5,325.8 416.5,325.2 L393.8,325.2 C393.6,325.2 393.5,325.2 393.3,325.2" id="Path" fill="#2E5A71"></path>
            <path d="M438.2,188.1 L438.5,177.5 L440.1,188.1 L438.2,188.1 M452.6,192.4 L447,160.8 L447,160.8 C446.5,159.6 444.8,156.2 440.1,155 L421.5,148.3 L421.5,148.2 L421.5,148.1 L421.4,148.1 L421.2,148.2 L421,148.1 L420.9,148.1 L420.9,148.2 L420.9,148.3 L402.3,155 C397.5,156.2 395.8,159.6 395.4,160.8 L393.4,194.7 L390.5,226.3 L397.2,227.6 L402.2,198.7 C402.2,198.7 403,183.9 402.9,181.3 L403.3,199.4 L402.3,213.1 L402.3,213.1 L402,225.3 C414.7,225.1 427.3,225.2 440,225.2 L439.5,213.1 L439.5,213.1 L438,199.5 L438,198.7 L448.3,200.1 C451.1,200.4 453.5,198.1 453.4,195.4 L452.6,192.4" id="Shape" fill="#182E38"></path>
            <path d="M448.6,200.1 C448.4,200.1 448.3,200.1 448.1,200.1 L437.8,198.7 L448.1,200.1 C448.3,200.1 448.4,200.1 448.6,200.1 L448.6,200.1 M403.1,199.1 C402.6,199.1 402.3,199 402.3,199 L402.9,188 L403.1,199.1" id="Shape" fill="#BECED5"></path>
            <path d="M438.2,203.7 L438.2,203.7 L437.7,199.5 L438.2,203.7 M437.8,199.5 L437.8,198.7 L437.8,198.7 L437.8,198.7 L437.8,199.5" id="Shape" fill="#ABB9C0"></path>
            <path d="M438.2,203.7 L434.5,201.7 C428.6,199 421.3,196.3 414.6,196.3 C414.2,196.3 413.9,196.3 413.5,196.3 C412.3,196.4 412.7,197.3 412.5,198.2 C412.3,199 411.6,199.6 410.7,199.6 L410.6,199.6 C407.7,199.5 404.6,199.2 403.1,199.1 L402.9,188 L402.9,187.9 C408.7,187.6 414.5,187 420.3,187 C421.4,187 422.6,187 423.7,187.1 C424.6,187.1 425.5,187.2 426.5,187.2 C429.2,187.2 431.9,186.9 434.2,185.4 C436.6,183.8 438.2,180.2 438.6,177.5 C438.5,178.9 438.3,188.1 438.3,188.1 L438.3,188.1 L438.3,188.1 L424.6,189.2 L420.2,189.3 C420.2,189.3 417.1,194.7 420,195 C423.6,195.5 433.1,196.4 440.3,196.4 C444.6,196.4 448.1,196 448.9,195 C450.9,192.5 449.9,188.5 449.4,185.8 C448.3,180 448,174.3 447,168.6 C446.9,167.9 446.1,160.7 443.7,156.5 C445.9,158 446.9,160 447.2,160.8 L447.2,160.8 L452.8,192.4 L453.4,195.4 L453.4,195.9 C453.3,198.2 451.3,200.1 448.8,200.1 C448.6,200.1 448.5,200.1 448.3,200.1 L438,198.7 L438,198.7 L438,199.5 L438.2,203.7" id="Path" fill="#152831"></path>
            <path d="M406.1,181.1 L382.8,181.1 C381.6,181.1 381.2,181.5 381.2,182.5 L384.1,197.6 C384.1,198.6 384.9,199 385.9,199 L409,199 C410,199 410.8,198.6 410.8,197.6 L407.9,182.8 C407.9,181.8 407.1,181.1 406.1,181.1" id="Path" fill="#9ABCCC"></path>
            <path d="M416.5,187.4 L410.2,185 L408.3,185 L409.9,193.8 L413.2,194.8 C414.6,195.1 416.1,195.1 417.3,194.4 L419.8,194.9 L419.3,189.4 L416.5,187.4 Z" id="Path" fill="#BE8C70"></path>
            <path d="M400.7,187.5 L401.9,191.4 C402.3,192.4 403.1,193.2 404.2,193.5 L410.8,195.3 L415.5,195 C415.5,195 416.2,194.8 416.9,194.6 L420,195 L420.8,189.2 L412.1,186.8 L400.7,187.5 Z" id="Path" fill="#BE8C70"></path>
            <path d="M407.1,127.3 L408.4,138.8 C409,144 413.7,147.7 419,147 C424.4,146.4 428.3,136.3 428.3,132.7 L427.5,124.9 L407.1,127.3" id="Path" fill="#BE8C70"></path>
            <path d="M414.6,139.9 L414.2,151.9 C414.7,153.9 417.5,158.4 418.6,160.7 C418.8,160.7 419.7,160.7 419.9,160.7 C421.7,158.1 426.3,152.5 426.4,151.1 L425.3,139.1 L414.6,139.9" id="Path" fill="#BE8C70"></path>
            <polyline id="Path" fill="#C7D7DF" points="414.3 149.8 414.3 149.8 414.4 147.8 414.4 147.8 414.3 149.8"></polyline>
            <polyline id="Path" fill="#AB7E65" points="425.4 140.8 425.4 139.8 425.4 139.8 425.4 140.8"></polyline>
            <path d="M416.8,150.5 C415.9,150.5 415,150.3 414.3,149.8 L414.4,147.8 C414.5,147.8 414.6,147.7 414.8,147.7 C415.2,147.8 415.9,148 416.8,148 C418.5,148 420.8,147.4 422.7,144.9 C422.7,144.9 420.4,147 417,147 C416.9,147 416.8,147 416.7,147 C420.2,145.5 424,143.2 425.4,139.9 L425.5,140.9 L425.8,144.8 C425.2,146.2 424.2,147.5 422.9,148.5 C421.5,149.4 419,150.5 416.8,150.5" id="Path" fill="#AB7E65"></path>
            <path d="M417,117.4 L404.5,119.7 C402.4,126.2 407.1,127.3 407.1,127.3 L419.4,125.8 C422.6,125.4 422.7,128.4 422.7,128.4 L423.3,131.6 L424.9,131.4 C424.9,131.4 425.3,130 426.1,129.9 C426.7,129.8 427.3,129.8 427.5,131.7 C428.1,136.9 425.5,136.7 425.5,136.7 L425.2,140.6 L425.7,142.2 C428.5,136.3 428.8,132 428.8,132 L427.9,124.7 C426.9,116.5 417,117.4 417,117.4" id="Path" fill="#312B2B"></path>
            <path d="M414.4,147.5 C414.3,147.5 414.3,147.5 414.4,147.5 L414.2,146.4 C414.3,146.4 414.3,146.4 414.4,146.5 L414.4,147.5" id="Path" fill="#C7D7DF"></path>
            <path d="M414.7,147.7 C414.5,147.7 414.4,147.6 414.3,147.6 L414.3,146.6 C415.1,146.8 415.9,146.9 416.6,147 C416,147.2 415.3,147.4 414.7,147.7" id="Path" fill="#AB7E65"></path>
            <path d="M416.7,147.9 C415.8,147.9 415.1,147.8 414.7,147.6 C415.3,147.4 416,147.1 416.6,146.8 C416.7,146.8 416.8,146.8 416.9,146.8 C420.4,146.8 422.6,144.7 422.6,144.7 C420.7,147.3 418.4,147.9 416.7,147.9" id="Path" fill="#9A715B"></path>
            <path d="M424.7,130 L423.2,130.2 C423.9,141.1 419.6,141.4 414.3,142 C408.4,142.7 408.4,137.7 408.4,137.7 C408.4,137.7 408.4,149.7 415.5,149.3 C426.4,148.7 425.6,137 425.6,137 L424.7,130 Z" id="Path" fill="#312B2B"></path>
            <path d="M418.8,142 C418.6,140.1 416.9,138.8 415,139 L412.5,139.3 C410.6,139.5 409.2,141.2 409.5,143.1 L409.6,144 C409.8,145.9 411.5,147.2 413.4,147 L415.9,146.7 C417.8,146.5 419.2,144.8 418.9,142.9 L418.8,142 Z" id="Path" fill="#312B2B"></path>
            <path d="M411.4,142.6 C411.6,144.2 412.7,144 414.1,143.8 C415.5,143.6 416.6,143.6 416.4,142 L411.4,142.6 Z" id="Path" fill="#BE8C70"></path>
            <path d="M398.9,187.4 C398.4,187.4 398,187.9 398,188.4 C398.1,188.8 398.4,189.2 398.9,189.2 L409.2,189.4 L409,186.6 L398.9,187.4 Z" id="Path" fill="#BE8C70"></path>
            <path d="M414.3,149.2 L413.7,149.1 L411.4,151.1 C411.4,153.9 413.2,158.4 413.2,158.4 L416.9,153.8 C413.7,152 414.3,149.2 414.3,149.2" id="Path" fill="#F8F9FA"></path>
            <path d="M414.6,156.6 C415,160.4 418.7,160.7 418.7,160.7 L416.9,153.8 L414.6,156.6 Z" id="Path" fill="#D5DDE2"></path>
            <path d="M422.6,153.5 L426,157.4 C426,157.4 427.6,154.7 428.7,151.3 L426.1,148.2 C426.1,148.3 425.2,152.2 422.6,153.5" id="Path" fill="#F8F9FA"></path>
            <path d="M419.9,160.7 C419.9,160.7 422.5,159.9 423.3,159.2 C425.3,157.3 425.2,156.5 425.2,156.5 L422.6,153.6 L419.9,160.7 Z" id="Path" fill="#D5DDE2"></path>
            <polygon id="Path" fill="#ADB4BB" points="138.8 314 127.8 271.1 129.5 270.4 140.5 313.7"></polygon>
            <polygon id="Path" fill="#ADB4BB" points="97.5 314 95.9 313.7 102.5 267.4 104.2 267.7"></polygon>
            <polygon id="Path" fill="#ADB4BB" points="147.8 314 136.5 271.1 138.1 270.4 149.5 313.7"></polygon>
            <polygon id="Path" fill="#ADB4BB" points="106.5 314 104.8 313.7 111.2 267.4 112.8 267.7"></polygon>
            <path d="M95.5,266.1 C95.5,266.4 101.5,271.1 111.8,273.1 C122.1,275.1 147.8,271.1 152.4,267.8 C157.1,264.5 152.4,247.2 148.7,244.2 C145,241.2 142,242.5 138,236.2 C134.3,229.9 110.4,225.2 103,229.2 C95.9,233.1 85.9,247.8 95.5,266.1" id="Path" fill="#147ABF"></path>
            <path d="M109.2,303.4 C109.2,303.4 109.5,299.4 109.5,296.4 C109.5,293.4 117.5,290.7 117.5,290.7 C117.5,290.7 118.2,302.7 118.8,305 L119.5,307.3 C119.5,307.4 111.2,311 109.2,303.4" id="Path" fill="#E8EAE9"></path>
            <path d="M109.2,302 C109.2,302 109.9,304.7 112.5,305.7 C115.2,306.4 118.2,303.4 118.5,302.7 C118.5,302.7 119.2,307.4 121.5,309 C123.8,310.7 127.2,314.7 127.2,314.7 C127.2,314.7 124.9,317.4 120.9,317 C116.9,316.7 111.2,313 110.2,311.3 C109.2,309.7 107.5,308 109.2,302" id="Path" fill="#364B5E"></path>
            <path d="M142.5,313.3 L141.8,314.3 L141.8,315.6 L145.8,316.6 L145.8,315.9 C145.8,315.9 147.8,315.6 149.5,316.9 C151.2,318.2 152.8,319.6 155.2,319.6 C157.2,319.6 159.9,319.3 160.2,317.9 C160.8,317 148.1,313.3 142.5,313.3" id="Path" fill="#425B6B"></path>
            <path d="M142.1,314.3 C142.1,314.3 141.1,309.3 143.1,307 C143.1,307 142.8,308 143.8,308.3 C144.5,308.6 146.1,307.6 148.8,306.3 C151.5,305 153.8,306.3 153.8,306.3 C153.8,306.3 156.5,311 157.5,312 C158.8,313 164.8,315.7 166.5,315.7 C168.2,315.7 166.8,320.4 162.8,320 C158.8,319.7 153.1,318.7 150.8,316.7 C148.1,314.7 142.1,314.3 142.1,314.3" id="Path" fill="#364B5E"></path>
            <path d="M166.8,273.1 L160.1,317.7 C160.1,318.7 160.1,320 161.1,320.7 C161.8,321.7 162.8,322 164.1,322 L219,322 C220.3,322 221.7,321.3 222.3,320 C223,318.7 223,317.3 222.3,316.3 L197.3,273.7 L166.8,273.1 Z M218.7,323.7 L163.8,323.7 C162.1,323.7 160.8,323 159.8,321.7 C158.8,320.7 158.5,319 158.5,317.4 L165.5,271.5 L197.7,272.1 L223,315.4 C224,317.1 224,319.1 223,320.7 C222.4,322.7 220.7,323.7 218.7,323.7 L218.7,323.7 Z" id="Shape" fill="#CFD6E0"></path>
            <path d="M98.2,222.5 C100.4,222.5 102.2,225.2 102.2,228.5 C102.2,231.8 100.4,234.5 98.2,234.5 C96,234.5 94.2,231.8 94.2,228.5 C94.2,225.1 96,222.5 98.2,222.5" id="Path" fill="#364B5E"></path>
            <path d="M96.9,263.1 C96.9,263.1 102.2,270.4 105.6,271.1 C105.6,271.1 103.6,276.4 105.6,283.8 C107.6,291.1 109.6,298.4 109.6,298.4 C109.6,298.4 112.3,298.1 114.3,297.7 C116.3,297.4 119.6,295.7 119.6,293.4 L119.6,281.1 C119.6,277.1 119.3,274.8 119.9,273.1 C120.6,271.8 119.6,270.4 122.6,269.8 C125.6,269.1 135.9,269.1 135.9,269.1 L150.5,271.1 C150.5,271.1 147.5,290.1 147.2,292.1 C147.2,292.1 148.5,291.8 150.9,293.1 C153.2,294.4 156.9,295.4 156.9,295.4 C156.9,295.4 162.2,284.4 163.2,281.1 C164.2,277.8 168.2,267.5 168.9,264.1 C169.9,260.8 169.9,255.1 163.9,252.8 C157.9,250.5 152.2,250.5 152.2,250.5 L104.3,247.8 L96.9,263.1 Z" id="Path" fill="#2B3F4F"></path>
            <path d="M112.2,202.5 C112.2,202.5 113.2,205.5 113.5,206.5 C113.8,207.5 115.2,214.5 115.2,214.5 L123.2,216.2 L125.5,210.9 C125.5,210.9 126.8,210.2 127.2,207.2 C127.5,204.2 127.5,201.5 127.5,199.2 C127.5,196.9 126.8,193.2 126.8,193.2 C126.8,193.2 126.1,189.9 125.1,188.5 C124.1,187.1 111.1,190.2 110.5,192.8 C109.8,195.5 111.8,201.5 112.2,202.5" id="Path" fill="#F9BF8E"></path>
            <path d="M114.5,211.5 C114.2,209.5 113.8,207.5 113.5,206.8 C113.2,206.1 112.8,204.5 112.5,203.5 C112.8,204.2 112.8,204.8 113.2,205.8 C113.5,207.5 114.2,209.5 114.5,211.5" id="Path" fill="#F9BF8E"></path>
            <path d="M123.2,216.1 L125.2,211.4 C125.2,211.4 122.9,213.1 119.9,212.1 C116.9,211.1 113.6,207.1 113.6,207.1 C113.6,207.1 117.2,213.8 123.2,216.1" id="Path" fill="#F8B74C"></path>
            <path d="M119.8,213.5 L120.8,213.5 L127.5,212.8 L137.8,248.8 C137.8,248.8 130.5,256.1 123.8,256.5 C117.1,256.8 106.2,252.8 104.2,251.8 C102.5,250.8 112.2,212.5 112.2,212.5 L119.8,213.5 Z" id="Path" fill="#8DD3F3"></path>
            <path d="M120.8,217.5 L121.8,218.5 C121.8,218.5 122.5,220.8 122.8,221.5 C122.8,222.2 128.5,260.8 128.5,260.8 L125.2,265.5 L120.9,261.8 C120.9,261.8 117.6,227.8 118.2,224.8 C118.5,221.8 119.5,218.8 119.5,218.8 L120.8,217.5 Z" id="Path" fill="#E8EAE9"></path>
            <path d="M118.5,214.1 L119.8,213.8 L120.8,213.8 L123.1,214.8 C123.1,214.8 121.8,217.5 122.1,218.8 C121.1,218.5 120.4,218.5 119.4,219.1 C119.4,219.1 118.7,216.1 117.7,215.4 C116.5,214.8 118.5,214.1 118.5,214.1" id="Path" fill="#E8EAE9"></path>
            <path d="M111.5,201.8 C111.5,201.8 109.5,202.1 106.5,202.8 C103.5,203.5 97.2,204.1 97.2,204.1 C97.2,204.1 98.9,206.8 98.5,210.8 C98.5,215.1 100.8,218.8 100.8,221.5 C100.8,224.2 96.5,248.5 93.8,253.8 C91.1,259.1 89.5,261.5 89.1,266.1 C88.4,270.8 87.1,277.8 89.1,279.1 C91.1,280.4 93.8,274.1 97.4,268.8 C101,263.5 111.4,243.5 112.4,237.8 C113.5,231.8 111.5,201.8 111.5,201.8" id="Path" fill="#364B5E"></path>
            <path d="M103.2,239.4 L105.2,240.4 C105.2,240.4 107.5,241.1 106.5,233.1 C106.5,233.1 104.5,233.8 103.8,234.4 C103.2,235.1 103.2,239.4 103.2,239.4" id="Path" fill="#ADB4BB"></path>
            <path d="M114.8,214.5 L114.8,219.8 C114.8,223.5 112.1,237.8 112.1,237.8 C112.1,237.8 112.4,230.1 111.4,227.8 C110.7,225.5 106.7,216.1 106.7,216.1 L109.4,214.4 L107.4,213.1 L111.1,202.1 C111.1,202.1 111.4,202.1 111.4,202.4 L111.4,202.7 C111.4,202.7 112.4,205.7 112.7,206.7 C113.5,207.5 114.8,213.1 114.8,214.5" id="Path" fill="#425B6B"></path>
            <path d="M114.8,219.5 L114.8,219.8 C114.8,223.5 112.1,237.8 112.1,237.8 C112.1,237.8 112.4,230.1 111.4,227.8 C110.7,225.5 106.7,216.1 106.7,216.1 L109.4,214.4 L107.4,213.1 L111.1,202.1 C111.4,202.4 111.8,202.8 111.8,203.4 C112.1,204.1 112.1,204.7 112.5,205.7 C113.2,207.7 113.5,209.4 113.8,211.4 C114.8,214.1 114.8,216.8 114.8,219.5" id="Path" fill="#425B6B"></path>
            <path d="M104.5,234.1 C104.5,234.1 107.2,234.4 107.2,234.1 C107.2,233.4 107.5,233.1 108.2,232.4 C108.9,232.1 109.5,232.1 110.2,232.1 C111.2,232.1 113.2,232.1 113.5,232.8 C114.2,233.5 113.5,234.5 112.5,234.1 C111.5,234.1 110.8,234.1 110.5,234.4 L110.2,234.7 C110.2,234.7 112.5,235.4 113.5,235 C114.5,234.7 116.5,234.7 117.5,234.7 C118.5,235 119.5,235.4 119.2,236 C119.2,236 119.9,236.3 119.5,237 C119.2,237.7 117.5,238.3 115.5,238.3 C113.2,238.3 109.8,239 107.8,238.6 C105.8,238.6 102.8,237.9 100.1,237.6 L97.4,237.6 L104.5,234.1 Z" id="Path" fill="#F9BF8E"></path>
            <path d="M113.5,200.8 C114.2,202.5 114.2,204.1 113.5,204.5 C112.5,204.8 111.5,203.8 110.5,202.2 C109.8,200.5 109.8,198.9 110.5,198.5 C111.5,198.1 112.5,199.1 113.5,200.8" id="Path" fill="#F9BF8E"></path>
            <path d="M151.8,231.8 C151.8,234.1 151.1,235.8 151.1,235.8 L146.1,236.5 C146.1,236.5 145.8,229.8 139.8,228.5 C139.5,226.2 139.1,224.2 139.1,222.8 C139.1,217.5 143.4,206.5 143.4,206.5 C143.4,206.5 145.4,207.8 145.1,210.2 C144.8,212.5 146.4,213.5 146.4,214.9 C146.4,216.2 146.1,216.6 146.4,217.9 C147.1,218.8 152.1,229.4 151.8,231.8" id="Path" fill="#425B6B"></path>
            <path d="M151.8,250.4 C151.8,250.4 145.8,251.1 143.5,251.4 C140.8,251.7 139.5,251.7 138.5,250.7 C137.2,249.7 131.5,238 131.5,238 C131.5,238 129.5,228.7 129.2,220 C129.2,214.3 127.9,208 127.2,204.4 L127.2,201.4 C128.5,201.7 132.2,202.7 134.9,203.4 C138.2,204.4 143.9,205.7 143.9,205.7 C143.9,205.7 139.6,216.7 139.6,222 C139.6,227.3 142.9,245.6 144.3,247 C145.8,249.1 151.8,250.4 151.8,250.4" id="Path" fill="#364B5E"></path>
            <path d="M139.5,235.8 C139.5,235.8 137.2,235.5 138.2,228.1 C138.2,228.1 139.5,227.4 141.2,228.4 C142.9,229.4 144.2,232.4 143.5,233.7 C142.8,235.1 140.1,235.8 139.5,235.8" id="Path" fill="#CFD6E0"></path>
            <path d="M135.5,246.8 C135.2,246.5 130.8,240.8 128.8,233.5 C127.5,228.5 126.5,217.9 125.8,210.9 C126.1,210.2 126.5,209.6 126.8,207.9 C126.8,206.6 127.1,205.6 127.1,204.2 L131.8,212.5 L130.8,214.5 L133.8,214.8 C133.8,214.8 132.1,228.1 132.5,231.8 C132.8,235.1 135.5,246.1 135.5,246.8" id="Path" fill="#425B6B"></path>
            <path d="M139.5,227.8 L138.2,228.1 C138.2,228.1 136.5,228.1 135.5,227.8 C134.5,227.5 132.5,226.5 131.5,227.1 C130.5,227.4 128.5,231.1 128.5,231.1 L136.5,235.4 C136.5,235.4 137.5,235.1 137.8,234.7 C138.1,234.4 139.8,235.4 142.1,234.7 L144.8,234.4 C144.8,234.4 143.5,231.1 142.8,229.7 C142.1,228.4 140.5,228.1 139.5,227.8" id="Path" fill="#F9BF8E"></path>
            <path d="M178.1,189.5 L180.8,191.5 L180.8,192.2 L175.1,206.8 C175.1,206.8 173.4,204.8 172.1,204.5 C170.8,204.2 168.4,206.5 166.8,206.2 C165.1,205.9 164.5,205.2 164.1,204.5 C163.8,203.5 161.1,203.5 162.4,202.2 C162.4,202.2 161.4,202.5 161.4,201.5 C161.4,200.5 160.4,200.2 160.4,200.2 C160.4,200.2 157.4,200.9 157.7,199.2 C158,197.5 158.7,195.5 158.7,195.5 C158.7,195.5 158.4,195.2 157.7,194.8 C157,194.5 154.4,191.1 154.7,188.1 C155,185.1 166.7,181.8 171.3,182.1 C175.8,182.8 178.1,189.5 178.1,189.5" id="Path" fill="#F9BF8E"></path>
            <path d="M165.4,290 C165.4,290 168.7,298 171.7,299.7 C174.7,301.4 175.7,303 175.7,303 L162.7,308.7 C162.7,308.7 162.7,304 161,300.7 C159.3,297 155.3,293.4 155.3,293.4 L165.4,290 Z" id="Path" fill="#E8EAE9"></path>
            <path d="M163.4,312 C163.4,312 159.4,314.3 156.7,315 C154,315.7 151,316.7 151,318.7 C151,320.7 154.3,321.7 157.7,321.7 C161,321.7 166.7,320.7 168.4,318.7 C170.1,316.7 172.7,314.7 172.7,314.7 L174,316 C174,316 180.7,312.7 181.3,310.7 C182.3,308.7 181.6,308.7 181.6,308.7 L179.9,306.4 L163.4,312 Z" id="Path" fill="#364B5E"></path>
            <path d="M162.1,306.4 C162.1,306.4 164.1,304.4 167.8,304.4 C171.5,304.4 174.8,301.7 174.8,301.7 C174.8,301.7 177.5,302.4 180.1,306 C180.1,306 175.8,308 173.1,310 C170.4,312.3 169.1,313.3 166.8,314 C164.1,315 152.8,315.3 151.2,318.7 C151.2,318.7 150.9,317.4 153.9,316 C156.9,314.3 160.2,313.3 160.9,311.7 C161.8,309.4 162.1,306.4 162.1,306.4" id="Path" fill="#425B6B"></path>
            <path d="M152.8,258.1 C152.8,258.1 139.5,259.8 136.8,261.8 C134.1,263.8 133.8,267.8 134.5,270.1 C135.2,272.1 156.8,297.4 158.8,298.4 C158.8,298.4 160.5,296.1 163.1,294.4 C165.8,292.7 166.4,290.4 166.4,290.4 C166.4,290.4 157.4,279.7 154.7,276.1 C152,272.4 151,272.1 151,272.1 L164.3,265.1 L152.8,258.1 Z" id="Path" fill="#364B5E"></path>
            <path d="M162.4,272.7 L156.1,314.3 C156.1,315.3 156.1,316.3 156.8,317 C157.5,317.7 158.5,318.3 159.5,318.3 L210.7,318.3 C212,318.3 213,317.6 213.7,316.6 C214.4,315.6 214.4,314.3 213.7,312.9 L190.4,273.3 L162.4,272.7 Z M210.7,319.7 L159.4,319.7 C158.1,319.7 156.7,319 155.7,318 C154.7,317 154.4,315.3 154.7,314 L161,271.1 L191.3,271.8 L214.9,312.1 C215.9,313.8 215.9,315.4 214.9,317.1 C214.1,318.7 212.4,319.7 210.7,319.7 L210.7,319.7 Z" id="Shape" fill="#ADB4BB"></path>
            <path d="M127.5,297 C127.5,297 128.2,299 132.2,299.7 C135.9,300.4 140.5,303 140.5,303 C140.5,303 150.2,284.7 151.2,281 C152.2,277.3 152.9,272 152.9,272 C152.9,272 163.9,270.7 174.9,271.3 C185.9,272 201.5,265.6 203.2,262 C204.9,258.3 205.9,250.3 205.9,250.3 L171.3,253 C171.3,253 170,255.3 167,255.7 C163.7,256 150.4,256.4 147.4,257.7 C144.4,258.7 141.4,259 140.1,264.7 C138.5,270.4 132.5,285.4 127.5,297" id="Path" fill="#425B6B"></path>
            <path d="M180.8,192.2 C180.8,192.2 174.8,197.9 173.5,206.8 L178.8,211.1 L185.1,196.8 L180.8,192.2 Z" id="Path" fill="#CFD6E0"></path>
            <path d="M205.4,242.8 L201.4,261.8 C201.4,261.8 170.8,259.8 168.8,256.1 C166.8,252.4 169.5,236.8 170.5,233.1 C171.5,229.8 174.8,221.4 176.8,212.5 C178.8,203.5 185.1,196.2 185.1,196.2 L187.1,196.5 C187.1,196.5 192.8,199.5 194.8,200.8 C196.8,202.1 201.5,207.8 202.5,210.5 C202.7,213.5 205.4,242.8 205.4,242.8" id="Path" fill="#364B5E"></path>
            <path d="M183.4,193.8 C183.4,193.8 181.1,195.1 179.1,202.1 C176.8,209.1 175.1,217.4 174.1,220.4 C173.1,223.4 170.4,233.1 170.4,233.1 C170.4,233.1 175.1,221.4 176.4,216.8 C177.4,212.1 179.7,201.2 187.1,196.5 L183.4,193.8 Z" id="Path" fill="#425B6B"></path>
            <path d="M157.1,272.7 C157.1,272.7 161.4,269 164.4,265 C167.4,261 176.4,249.4 184.7,246 C193,242.7 215.7,238 215.7,238 C215.7,238 212,252.7 211.4,258.6 C210.7,264.6 206.7,274.9 194.8,275.9 C182.8,276.7 157.1,272.7 157.1,272.7" id="Path" fill="#147ABF"></path>
            <path d="M180.8,191.5 C179.8,192.5 175.8,193.2 174.8,191.8 C173.8,190.1 170.5,189.1 169.1,190.5 C167.8,192.2 168.8,194.5 168.8,194.5 L167.1,195.2 C167.1,195.2 166.8,194.2 166.1,193.5 C165.4,192.5 163.1,192.2 163.1,190.8 C163.1,189.4 161.8,187.1 159.8,186.8 C157.8,186.5 155.1,187.8 155.1,187.8 C155.1,187.8 152.8,187.1 153.4,185.1 C154.1,183.1 158.7,175.4 164.7,173.4 C170.7,172.1 177.4,176.4 179,180.1 C180.4,183.8 180.8,191.5 180.8,191.5" id="Path" fill="#3C3C3B"></path>
            <path d="M169.8,205.1 L169.8,205.1 C170.8,204.8 171.5,204.1 172.1,204.4 C172.4,204.4 172.8,204.7 173.1,204.7 C174.1,200.4 173.4,195.4 173.4,195.4 C173.4,199.5 169.8,205.1 169.8,205.1" id="Path" fill="#F8B74C"></path>
            <path d="M138.1,228.1 C138.1,228.1 140.8,227.8 141.8,229.1 C142.8,230.4 142.8,234.8 139.5,235.8 L146.5,235.8 C146.5,235.8 147.2,231.8 145.2,229.8 C143.1,227.8 141.1,227.4 138.1,228.1" id="Path" fill="#F3F3F3"></path>
            <path d="M147.1,220.5 L147.1,231.5 C146.4,231.8 145.8,232.2 145.4,232.8 C144.4,231.1 143.1,228.8 140.1,228.1 C139.8,225.8 139.4,224.1 139.4,222.8 L139.4,220.8 L147.1,220.8 L147.1,220.5 Z" id="Path" fill="#425B6B"></path>
            <path d="M158.5,238.8 C158.5,238.8 157.2,238.5 155.5,238.5 C153.8,238.5 152.5,239.2 151.2,238.5 C150.2,237.8 149.9,237.5 148.9,237.8 C148.2,238.1 147.9,238.5 147.6,238.5 C147.3,238.5 146.9,238.8 146.9,238.5 C146.6,238.2 145.9,237.8 145.9,237.5 C145.9,237.5 145.2,236.8 145.6,236.5 C145.6,236.5 145.3,235.8 145.3,235.5 C145.3,235.5 144,235.2 144.6,233.8 C145.3,232.5 146.9,231.8 147.6,231.1 C148.6,230.4 149.3,230.1 149.9,230.4 C150.9,230.7 153.9,232.4 154.6,232.4 C155.3,232.7 164.3,232.7 164.3,232.7 L164,238.7 L158.5,238.8 L158.5,238.8 Z" id="Path" fill="#F9BF8E"></path>
            <path d="M162.4,231.8 L159.1,231.8 C159.1,231.8 157.8,237.1 158.4,240.5 L164.4,241.5 L162.4,231.8 Z" id="Path" fill="#F3F3F3"></path>
            <path d="M179.4,220.5 C179.4,220.5 177.7,210.8 180.1,206.2 C182.4,201.5 189.4,201.5 192.4,204.5 C195.4,207.5 197.7,214.5 197.4,218.8 C197.1,223.1 194.4,227.5 194.4,230.8 C194.4,234.1 193.4,235.5 192.1,236.8 C191.1,238.1 189.1,240.8 187.8,241.5 C186.5,241.8 161.5,243.5 161.8,243.2 C162.1,242.9 160.8,234.5 161.1,231.9 C161.1,231.9 169.4,231.6 170.8,231.6 C172.1,231.9 172.8,231.6 173.8,230.9 C174.8,230.6 174.8,230.2 175.5,230.6 C176.2,230.9 177.5,230.9 178.2,230.6 C178.9,230.3 179.5,229.3 179.5,229.3 C179.5,229.3 178.5,225 179.2,224 C179.9,223 179.4,220.5 179.4,220.5" id="Path" fill="#425B6B"></path>
            <path d="M126.2,213.8 L124.2,218.8 L120.9,213.5 C124.6,212.5 126.2,210.5 126.2,210.5 L126.2,213.8 Z" id="Path" fill="#FFFFFF"></path>
            <path d="M119.8,213.5 C119.8,213.5 118.5,214.5 117.8,215.8 C117.1,217.1 116.5,218.1 116.5,218.1 L114.8,214.8 C114.5,211.8 114.1,209.1 113.5,206.1 C113.5,206.8 116.8,212.5 119.8,213.5" id="Path" fill="#FFFFFF"></path>
            <path d="M111.8,201.8 L112.5,201.8 C112.5,201.8 111.2,199.8 111.8,198.5 C112.5,197.2 110.5,193.2 112.8,193.8 C115.1,194.5 120.8,192.5 122.5,190.8 C124.2,189.1 124.8,189.1 125.5,189.8 C126.2,190.5 126.8,193.1 126.8,193.1 C126.8,193.1 126.1,190.4 125.5,188.8 C124.8,187.1 126.2,185.5 120.5,183.8 C114.8,182.1 109.8,184.5 108.2,188.8 C106.5,193.1 108.5,197.5 109.9,198.8 C110.8,199.8 111.8,201.8 111.8,201.8" id="Path" fill="#683328"></path>
            <path d="M100.2,232.8 L106.2,233.1 C106.2,233.1 104.2,234.1 104.2,237.1 C104.2,240.1 104.9,240.1 104.9,240.1 L94.9,238.4 C95.2,238.8 99.5,232.8 100.2,232.8" id="Path" fill="#F3F3F3"></path>
            <path d="M104.5,232.8 C100.8,234.5 99.5,235.8 98.8,239.8 L81.8,238.8 C81.8,238.8 82.1,231.8 82.5,229.8 C82.9,227.8 84.2,224.5 86.2,222.5 C87.9,220.5 91.5,215.5 91.9,214.5 C92.2,213.5 93.2,212.5 93.6,211.8 C93.9,211.1 94.6,208.8 94.9,206.8 C95.2,204.5 97.2,204.1 97.2,204.1 C97.2,204.1 98.9,206.8 98.5,210.8 C98.5,215.1 100.8,218.8 100.8,221.5 C100.8,222.2 100.5,223.5 100.5,225.5 L97.8,231.5 L98.8,231.8 L104.5,232.8 Z" id="Path" fill="#425B6B"></path>
            <rect id="Rectangle" fill="#683328" x="111.2" y="244.1" width="5.3" height="67.9"></rect>
            <path d="M161.5,243.4 L66.6,243.4 C65.3,243.4 64.3,242.4 64.3,241.1 C64.3,239.8 65.3,238.8 66.6,238.8 L161.5,238.8 C162.8,238.8 163.8,239.8 163.8,241.1 C163.8,242.4 162.8,243.4 161.5,243.4" id="Path" fill="#683328"></path>
            <path d="M161.5,243.4 C130.5,245.7 98.9,245.4 66.6,243.4 L161.5,243.4 Z" id="Path" fill="#683328"></path>
            <path d="M141.8,316.3 L85.9,316.3 C85.9,314 87.9,312 90.2,312 L137.5,312 C139.8,312 141.8,314 141.8,316.3" id="Path" fill="#683328"></path>
            <path d="M136.5,313 L129.8,315.3 L125.1,309.3 C125.1,309.3 127.8,306.6 129.1,304 C129.8,302.7 130.8,301 131.4,299.7 L131.7,299.7 C134.7,300.4 138.4,302 139.4,303 C138.5,304.7 136.1,309.7 136.5,313" id="Path" fill="#E8EAE9"></path>
            <path d="M109.5,317.7 L107.2,317.7 C107.2,317.7 106.2,319 106.5,319.4 C106.8,319.7 113.8,322.4 118.5,323.4 C122.8,324.4 128.8,322.7 129.8,321.7 L129.8,323.4 L136.5,323.4 C137.5,323.4 138.2,322.7 138.2,321.7 L138.2,319.4 L135.9,317.7 L109.5,317.7 Z" id="Path" fill="#364B5E"></path>
            <path d="M125.5,308.7 C125.5,308.7 127.2,308.7 128.2,310.4 C129.2,312.1 130.9,313.1 132.2,313.4 C133.5,313.7 136.5,312.4 136.9,311.4 C136.9,311.4 138.2,317.1 137.9,319.4 C137.9,319.4 132.6,319.4 128.9,321.1 C124.9,322.4 123.6,323.4 119.2,322.4 C114.9,321.4 107.9,318.7 107.2,317.7 C107.2,317.7 110.2,317.4 113.2,317 C116.2,316.7 119.2,313.3 121.2,311.7 C123.2,309.7 125.5,308.7 125.5,308.7" id="Path" fill="#425B6B"></path>
            <path d="M137.8,220.5 L106.2,220.5 C105.2,220.5 104.5,221.2 104.5,222.2 L106.8,238.8 L136.8,238.8 L139.1,222.2 C139.5,221.5 138.5,220.5 137.8,220.5" id="Path" fill="#CFD6E0"></path>
            <path d="M122.2,228.8 C123.1,228.8 123.9,229.2 123.9,229.8 C123.9,230.4 123.2,230.8 122.2,230.8 C121.3,230.8 120.5,230.4 120.5,229.8 C120.5,229.2 121.2,228.8 122.2,228.8" id="Path" fill="#ADB4BB"></path>
        </g>
    </g>
</svg>