<?xml version="1.0" encoding="UTF-8"?>
<svg width="1200px" height="400px" viewBox="0 0 1200 400" version="1.1" xmlns="http://www.w3.org/2000/svg" xmlns:xlink="http://www.w3.org/1999/xlink">
    <!-- Generator: Sketch 53.2 (72643) - https://sketchapp.com -->
    <title>da-06</title>
    <desc>Created with Sketch.</desc>
    <defs>
        <polyline id="path-1" points="0.664 241.679 0.664 425.679 1239.664 425.679 1239.664 241.679 0.664 241.679"></polyline>
        <filter x="-3.6%" y="-28.3%" width="108.7%" height="158.7%" filterUnits="objectBoundingBox" id="filter-2">
            <feMorphology radius="7" operator="dilate" in="SourceAlpha" result="shadowSpreadOuter1"></feMorphology>
            <feOffset dx="9" dy="2" in="shadowSpreadOuter1" result="shadowOffsetOuter1"></feOffset>
            <feGaussianBlur stdDeviation="9.5" in="shadowOffsetOuter1" result="shadowBlurOuter1"></feGaussianBlur>
            <feColorMatrix values="0 0 0 0 0.628368433   0 0 0 0 0.628368433   0 0 0 0 0.628368433  0 0 0 0.5 0" type="matrix" in="shadowBlurOuter1"></feColorMatrix>
        </filter>
    </defs>
    <g id="da-06" stroke="none" stroke-width="1" fill="none" fill-rule="evenodd">
        <g id="achtergrond-header-images">
            <g id="Group" stroke-width="1" fill-rule="evenodd" transform="translate(-17.000000, 0.000000)">
                <polyline id="Path" fill="#DDEFF8" fill-rule="nonzero" points="17 0 17 400 1217 400 1217 0 17 0"></polyline>
                <g id="Path" fill-rule="nonzero">
                    <use fill="black" fill-opacity="1" filter="url(#filter-2)" xlink:href="#path-1"></use>
                    <use fill="#BCDFF1" xlink:href="#path-1"></use>
                </g>
            </g>
            <path d="M667.789,151 L660.652,151 L662.563,125.416 L669.193,125.416 C672.599017,125.416 675.354989,126.41049 677.461,128.3995 C679.567011,130.38851 680.62,133.098983 680.62,136.531 C680.62,141.289024 679.443512,144.889988 677.0905,147.334 C674.737488,149.778012 671.637019,151 667.789,151 Z M668.764,127.912 L665.293,127.912 L663.772,148.504 L668.101,148.504 C670.831014,148.504 673.086491,147.561509 674.8675,145.6765 C676.648509,143.791491 677.539,140.89902 677.539,136.999 C677.539,134.164986 676.752508,131.942008 675.1795,130.33 C673.606492,128.717992 671.468014,127.912 668.764,127.912 Z M694.504,144.994 L695.479,134.152 C695.140998,134.074 694.751002,134.0155 694.309,133.9765 C693.866998,133.9375 693.438002,133.918 693.022,133.918 C691.565993,133.918 690.207506,134.814991 688.9465,136.609 C687.685494,138.403009 687.055,141.041983 687.055,144.526 C687.055,146.112008 687.282498,147.223497 687.7375,147.8605 C688.192502,148.497503 688.744997,148.816 689.395,148.816 C690.071003,148.816 690.857496,148.497503 691.7545,147.8605 C692.651504,147.223497 693.567995,146.268006 694.504,144.994 Z M696.142,131.89 L698.482,131.5 L696.727,151 L694.036,151 L694.348,147.88 L694.231,147.88 C693.372996,149.076006 692.463005,149.953497 691.501,150.5125 C690.538995,151.071503 689.525005,151.351 688.459,151.351 C687.184994,151.351 686.151504,150.850505 685.3585,149.8495 C684.565496,148.848495 684.169,147.139012 684.169,144.721 C684.169,140.482979 685.098491,137.233011 686.9575,134.971 C688.816509,132.708989 690.915988,131.578 693.256,131.578 C693.828003,131.578 694.347998,131.604 694.816,131.656 C695.284002,131.708 695.725998,131.785999 696.142,131.89 Z M702.226,134.152 L702.226,131.929 L704.449,131.929 L704.839,127.834 L707.608,127.405 L707.14,131.929 L711.079,131.929 L710.845,134.152 L706.906,134.152 L705.775,145.345 C705.644999,146.697007 705.729499,147.613498 706.0285,148.0945 C706.327501,148.575502 706.801997,148.816 707.452,148.816 C707.946002,148.816 708.381498,148.777 708.7585,148.699 C709.135502,148.621 709.609997,148.491001 710.182,148.309 L710.182,150.766 C709.531997,151.000001 708.966502,151.156 708.4855,151.234 C708.004498,151.312 707.374004,151.351 706.594,151.351 C705.267993,151.351 704.286503,150.909004 703.6495,150.025 C703.012497,149.140996 702.797999,147.646011 703.006,145.54 L704.176,134.152 L702.226,134.152 Z M723.52,144.994 L724.495,134.152 C724.156998,134.074 723.767002,134.0155 723.325,133.9765 C722.882998,133.9375 722.454002,133.918 722.038,133.918 C720.581993,133.918 719.223506,134.814991 717.9625,136.609 C716.701494,138.403009 716.071,141.041983 716.071,144.526 C716.071,146.112008 716.298498,147.223497 716.7535,147.8605 C717.208502,148.497503 717.760997,148.816 718.411,148.816 C719.087003,148.816 719.873496,148.497503 720.7705,147.8605 C721.667504,147.223497 722.583995,146.268006 723.52,144.994 Z M725.158,131.89 L727.498,131.5 L725.743,151 L723.052,151 L723.364,147.88 L723.247,147.88 C722.388996,149.076006 721.479005,149.953497 720.517,150.5125 C719.554995,151.071503 718.541005,151.351 717.475,151.351 C716.200994,151.351 715.167504,150.850505 714.3745,149.8495 C713.581496,148.848495 713.185,147.139012 713.185,144.721 C713.185,140.482979 714.114491,137.233011 715.9735,134.971 C717.832509,132.708989 719.931988,131.578 722.272,131.578 C722.844003,131.578 723.363998,131.604 723.832,131.656 C724.300002,131.708 724.741998,131.785999 725.158,131.89 Z M747.778,127.756 L747.505,127.756 L742.435,141.874 L750.391,141.874 L747.778,127.756 Z M750.157,125.416 L755.227,151 L751.99,151 L750.742,144.37 L741.421,144.37 L739.12,151 L736,151 L745.828,125.416 L750.157,125.416 Z M769.033,144.994 L770.008,134.152 C769.669998,134.074 769.280002,134.0155 768.838,133.9765 C768.395998,133.9375 767.967002,133.918 767.551,133.918 C766.094993,133.918 764.736506,134.814991 763.4755,136.609 C762.214494,138.403009 761.584,141.041983 761.584,144.526 C761.584,146.112008 761.811498,147.223497 762.2665,147.8605 C762.721502,148.497503 763.273997,148.816 763.924,148.816 C764.600003,148.816 765.386496,148.497503 766.2835,147.8605 C767.180504,147.223497 768.096995,146.268006 769.033,144.994 Z M770.671,131.89 L773.011,131.5 L771.256,151.195 C771.021999,153.821013 770.177007,155.705994 768.721,156.85 C767.264993,157.994006 765.56201,158.566 763.612,158.566 C762.623995,158.566 761.707504,158.527 760.8625,158.449 C760.017496,158.371 759.101005,158.241001 758.113,158.059 L758.113,155.368 C759.075005,155.628001 759.984996,155.822999 760.843,155.953 C761.701004,156.083001 762.558996,156.148 763.417,156.148 C764.899007,156.148 766.075496,155.764504 766.9465,154.9975 C767.817504,154.230496 768.343999,152.989009 768.526,151.273 L768.877,147.88 L768.76,147.88 C767.875996,149.076006 766.959505,149.953497 766.0105,150.5125 C765.061495,151.071503 764.054005,151.351 762.988,151.351 C761.713994,151.351 760.680504,150.850505 759.8875,149.8495 C759.094496,148.848495 758.698,147.139012 758.698,144.721 C758.698,140.482979 759.627491,137.233011 761.4865,134.971 C763.345509,132.708989 765.444988,131.578 767.785,131.578 C768.357003,131.578 768.876998,131.604 769.345,131.656 C769.813002,131.708 770.254998,131.785999 770.671,131.89 Z M776.482,144.292 C776.482,140.001979 777.339991,136.81051 779.056,134.7175 C780.772009,132.62449 782.61799,131.578 784.594,131.578 C786.180008,131.578 787.401996,131.967996 788.26,132.748 C789.118004,133.528004 789.547,134.606993 789.547,135.985 C789.547,138.169011 788.624009,139.949993 786.778,141.328 C784.931991,142.706007 782.436016,143.395 779.29,143.395 C779.29,145.527011 779.627997,146.963496 780.304,147.7045 C780.980003,148.445504 781.941994,148.816 783.19,148.816 C784.074004,148.816 784.925496,148.699001 785.7445,148.465 C786.563504,148.230999 787.388996,147.893002 788.221,147.451 L788.221,149.986 C787.310995,150.480002 786.414004,150.830999 785.53,151.039 C784.645996,151.247001 783.606006,151.351 782.41,151.351 C780.511991,151.351 779.049505,150.792006 778.0225,149.674 C776.995495,148.555994 776.482,146.762012 776.482,144.292 Z M786.661,136.336 C786.661,135.555996 786.453002,134.971002 786.037,134.581 C785.620998,134.190998 785.036004,133.996 784.282,133.996 C783.319995,133.996 782.345005,134.587494 781.357,135.7705 C780.368995,136.953506 779.745001,138.766988 779.485,141.211 C781.773011,141.211 783.540994,140.736505 784.789,139.7875 C786.037006,138.838495 786.661,137.688007 786.661,136.336 Z M802.261,151 L803.47,138.403 C803.626001,136.842992 803.515502,135.764003 803.1385,135.166 C802.761498,134.567997 802.248003,134.269 801.598,134.269 C801.025997,134.269 800.291504,134.515998 799.3945,135.01 C798.497496,135.504002 797.451006,136.270995 796.255,137.311 L795.007,151 L792.238,151 L793.954,132.085 L796.723,131.734 L796.45,134.659 L796.567,134.659 C797.685006,133.540994 798.711995,132.748002 799.648,132.28 C800.584005,131.811998 801.493996,131.578 802.378,131.578 C803.730007,131.578 804.769996,132.065495 805.498,133.0405 C806.226004,134.015505 806.486001,135.659988 806.278,137.974 L805.03,151 L802.261,151 Z M820.552,144.994 L821.566,134.152 C821.227998,134.074 820.831502,134.0155 820.3765,133.9765 C819.921498,133.9375 819.486002,133.918 819.07,133.918 C817.613993,133.918 816.255506,134.814991 814.9945,136.609 C813.733494,138.403009 813.103,141.041983 813.103,144.526 C813.103,146.112008 813.330498,147.223497 813.7855,147.8605 C814.240502,148.497503 814.792997,148.816 815.443,148.816 C816.119003,148.816 816.905496,148.497503 817.8025,147.8605 C818.699504,147.223497 819.615995,146.268006 820.552,144.994 Z M825.271,123.661 L822.775,151 L820.084,151 L820.396,147.88 L820.279,147.88 C819.394996,149.076006 818.478505,149.953497 817.5295,150.5125 C816.580495,151.071503 815.573005,151.351 814.507,151.351 C813.232994,151.351 812.199504,150.850505 811.4065,149.8495 C810.613496,148.848495 810.217,147.139012 810.217,144.721 C810.217,140.482979 811.146491,137.233011 813.0055,134.971 C814.864509,132.708989 816.963988,131.578 819.304,131.578 C819.798002,131.578 820.246498,131.5975 820.6495,131.6365 C821.052502,131.6755 821.422998,131.734 821.761,131.812 L822.463,124.012 L825.271,123.661 Z M838.492,144.994 L839.467,134.152 C839.128998,134.074 838.739002,134.0155 838.297,133.9765 C837.854998,133.9375 837.426002,133.918 837.01,133.918 C835.553993,133.918 834.195506,134.814991 832.9345,136.609 C831.673494,138.403009 831.043,141.041983 831.043,144.526 C831.043,146.112008 831.270498,147.223497 831.7255,147.8605 C832.180502,148.497503 832.732997,148.816 833.383,148.816 C834.059003,148.816 834.845496,148.497503 835.7425,147.8605 C836.639504,147.223497 837.555995,146.268006 838.492,144.994 Z M840.13,131.89 L842.47,131.5 L840.715,151 L838.024,151 L838.336,147.88 L838.219,147.88 C837.360996,149.076006 836.451005,149.953497 835.489,150.5125 C834.526995,151.071503 833.513005,151.351 832.447,151.351 C831.172994,151.351 830.139504,150.850505 829.3465,149.8495 C828.553496,148.848495 828.157,147.139012 828.157,144.721 C828.157,140.482979 829.086491,137.233011 830.9455,134.971 C832.804509,132.708989 834.903988,131.578 837.244,131.578 C837.816003,131.578 838.335998,131.604 838.804,131.656 C839.272002,131.708 839.713998,131.785999 840.13,131.89 Z M865.285,125.065 C867.911013,125.065 870.055992,126.05949 871.72,128.0485 C873.384008,130.03751 874.216,132.773983 874.216,136.258 C874.216,141.120024 873.026512,144.850987 870.6475,147.451 C868.268488,150.051013 865.532015,151.351 862.438,151.351 C859.785987,151.351 857.634508,150.480009 855.9835,148.738 C854.332492,146.995991 853.507,144.344018 853.507,140.782 C853.507,135.685975 854.637989,131.792513 856.9,129.1015 C859.162011,126.410487 861.956983,125.065 865.285,125.065 Z M864.778,127.756 C862.593989,127.756 860.689508,128.821989 859.0645,130.954 C857.439492,133.086011 856.627,136.16698 856.627,140.197 C856.627,143.317016 857.211994,145.513994 858.382,146.788 C859.552006,148.062006 861.072991,148.699 862.945,148.699 C864.97301,148.699 866.838491,147.71751 868.5415,145.7545 C870.244509,143.79149 871.096,140.84702 871.096,136.921 C871.096,133.670984 870.511006,131.331007 869.341,129.901 C868.170994,128.470993 866.650009,127.756 864.778,127.756 Z M880.69,151 L877.375,131.929 L880.339,131.929 L882.874,148.465 L883.03,148.465 L884.083,146.32 C885.045005,144.36999 885.863997,142.270511 886.54,140.0215 C887.216003,137.772489 887.800998,135.075016 888.295,131.929 L891.181,131.929 C890.686998,134.945015 890.024004,137.661988 889.192,140.08 C888.359996,142.498012 887.359006,144.811989 886.189,147.022 L884.083,151 L880.69,151 Z M892.663,144.292 C892.663,140.001979 893.520991,136.81051 895.237,134.7175 C896.953009,132.62449 898.79899,131.578 900.775,131.578 C902.361008,131.578 903.582996,131.967996 904.441,132.748 C905.299004,133.528004 905.728,134.606993 905.728,135.985 C905.728,138.169011 904.805009,139.949993 902.959,141.328 C901.112991,142.706007 898.617016,143.395 895.471,143.395 C895.471,145.527011 895.808997,146.963496 896.485,147.7045 C897.161003,148.445504 898.122994,148.816 899.371,148.816 C900.255004,148.816 901.106496,148.699001 901.9255,148.465 C902.744504,148.230999 903.569996,147.893002 904.402,147.451 L904.402,149.986 C903.491995,150.480002 902.595004,150.830999 901.711,151.039 C900.826996,151.247001 899.787006,151.351 898.591,151.351 C896.692991,151.351 895.230505,150.792006 894.2035,149.674 C893.176495,148.555994 892.663,146.762012 892.663,144.292 Z M902.842,136.336 C902.842,135.555996 902.634002,134.971002 902.218,134.581 C901.801998,134.190998 901.217004,133.996 900.463,133.996 C899.500995,133.996 898.526005,134.587494 897.538,135.7705 C896.549995,136.953506 895.926001,138.766988 895.666,141.211 C897.954011,141.211 899.721994,140.736505 900.97,139.7875 C902.218006,138.838495 902.842,137.688007 902.842,136.336 Z M918.442,131.851 L918.091,134.581 C917.882999,134.555 917.701001,134.5355 917.545,134.5225 C917.388999,134.5095 917.194001,134.503 916.96,134.503 C916.231996,134.503 915.465004,134.840997 914.659,135.517 C913.852996,136.193003 913.086004,137.128994 912.358,138.325 L911.266,151 L908.497,151 L910.096,132.085 L912.865,131.734 L912.514,135.322 L912.67,135.322 C913.554004,133.761992 914.327497,132.748002 914.9905,132.28 C915.653503,131.811998 916.374996,131.578 917.155,131.578 C917.389001,131.578 917.616499,131.5975 917.8375,131.6365 C918.058501,131.6755 918.259999,131.746999 918.442,131.851 Z M929.596,151 L930.805,138.403 C930.935001,136.842992 930.824502,135.764003 930.4735,135.166 C930.122498,134.567997 929.622003,134.269 928.972,134.269 C928.373997,134.269 927.620005,134.515998 926.71,135.01 C925.799995,135.504002 924.760006,136.270995 923.59,137.311 L922.342,151 L919.573,151 L922.03,124.012 L924.838,123.661 L923.785,134.659 L923.902,134.659 C925.020006,133.566995 926.046995,132.780502 926.983,132.2995 C927.919005,131.818498 928.828996,131.578 929.713,131.578 C931.065007,131.578 932.104996,132.065495 932.833,133.0405 C933.561004,134.015505 933.821001,135.659988 933.613,137.974 L932.365,151 L929.596,151 Z M937.435,144.292 C937.435,140.001979 938.292991,136.81051 940.009,134.7175 C941.725009,132.62449 943.57099,131.578 945.547,131.578 C947.133008,131.578 948.354996,131.967996 949.213,132.748 C950.071004,133.528004 950.5,134.606993 950.5,135.985 C950.5,138.169011 949.577009,139.949993 947.731,141.328 C945.884991,142.706007 943.389016,143.395 940.243,143.395 C940.243,145.527011 940.580997,146.963496 941.257,147.7045 C941.933003,148.445504 942.894994,148.816 944.143,148.816 C945.027004,148.816 945.878496,148.699001 946.6975,148.465 C947.516504,148.230999 948.341996,147.893002 949.174,147.451 L949.174,149.986 C948.263995,150.480002 947.367004,150.830999 946.483,151.039 C945.598996,151.247001 944.559006,151.351 943.363,151.351 C941.464991,151.351 940.002505,150.792006 938.9755,149.674 C937.948495,148.555994 937.435,146.762012 937.435,144.292 Z M947.614,136.336 C947.614,135.555996 947.406002,134.971002 946.99,134.581 C946.573998,134.190998 945.989004,133.996 945.235,133.996 C944.272995,133.996 943.298005,134.587494 942.31,135.7705 C941.321995,136.953506 940.698001,138.766988 940.438,141.211 C942.726011,141.211 944.493994,140.736505 945.742,139.7875 C946.990006,138.838495 947.614,137.688007 947.614,136.336 Z M955.18,125.923 C955.18,125.324997 955.355498,124.850502 955.7065,124.4995 C956.057502,124.148498 956.518997,123.973 957.091,123.973 C957.585002,123.973 957.961999,124.109499 958.222,124.3825 C958.482001,124.655501 958.612,125.038998 958.612,125.533 C958.612,126.053003 958.443002,126.501498 958.105,126.8785 C957.766998,127.255502 957.299003,127.444 956.701,127.444 C956.258998,127.444 955.895001,127.314001 955.609,127.054 C955.322999,126.793999 955.18,126.417002 955.18,125.923 Z M957.715,131.734 L955.96,151 L953.191,151 L954.907,132.085 L957.715,131.734 Z M971.716,144.994 L972.73,134.152 C972.391998,134.074 971.995502,134.0155 971.5405,133.9765 C971.085498,133.9375 970.650002,133.918 970.234,133.918 C968.777993,133.918 967.419506,134.814991 966.1585,136.609 C964.897494,138.403009 964.267,141.041983 964.267,144.526 C964.267,146.112008 964.494498,147.223497 964.9495,147.8605 C965.404502,148.497503 965.956997,148.816 966.607,148.816 C967.283003,148.816 968.069496,148.497503 968.9665,147.8605 C969.863504,147.223497 970.779995,146.268006 971.716,144.994 Z M976.435,123.661 L973.939,151 L971.248,151 L971.56,147.88 L971.443,147.88 C970.558996,149.076006 969.642505,149.953497 968.6935,150.5125 C967.744495,151.071503 966.737005,151.351 965.671,151.351 C964.396994,151.351 963.363504,150.850505 962.5705,149.8495 C961.777496,148.848495 961.381,147.139012 961.381,144.721 C961.381,140.482979 962.310491,137.233011 964.1695,134.971 C966.028509,132.708989 968.127988,131.578 970.468,131.578 C970.962002,131.578 971.410498,131.5975 971.8135,131.6365 C972.216502,131.6755 972.586998,131.734 972.925,131.812 L973.627,124.012 L976.435,123.661 Z" id="DataAgendaOverheid" fill="#000000" fill-rule="nonzero"></path>
            <path d="M679.784,102 L669.424,72.32 L669.088,72.32 L669.088,102 L662.648,102 L662.648,65.264 L673.736,65.264 L684.152,94.944 L684.488,94.944 L684.488,65.264 L690.928,65.264 L690.928,102 L679.784,102 Z M700.168,102 L700.168,65.264 L707.448,65.264 L707.448,96.064 L719.88,96.064 L719.88,102 L700.168,102 Z M746.984,102 L736.624,102 L736.624,65.264 L747.32,65.264 C753.629365,65.264 758.463983,66.7853181 761.824,69.828 C765.184017,72.8706819 766.864,77.1173061 766.864,82.568 C766.864,89.2133666 765.081351,94.1133176 761.516,97.268 C757.950649,100.422682 753.106697,102 746.984,102 Z M743.904,71.2 L743.904,96.064 L747.32,96.064 C750.904018,96.064 753.778656,95.0373436 755.944,92.984 C758.109344,90.9306564 759.192,87.57069 759.192,82.904 C759.192,79.1333145 758.081344,76.2400101 755.86,74.224 C753.638656,72.2079899 750.642686,71.2 746.872,71.2 L743.904,71.2 Z M781.424,65.264 L781.424,102 L774.144,102 L774.144,65.264 L781.424,65.264 Z M805.896,89.288 L805.896,83.352 L818.272,83.352 L818.272,101.328 C816.442658,101.701335 814.622676,101.971999 812.812,102.14 C811.001324,102.308001 809.106677,102.392 807.128,102.392 C801.565306,102.392 797.094684,100.908015 793.716,97.94 C790.337316,94.9719852 788.648,90.5760291 788.648,84.752 C788.648,78.1066334 790.551981,73.1320165 794.36,69.828 C798.168019,66.5239835 802.965304,64.872 808.752,64.872 C810.432008,64.872 811.925327,64.9279994 813.232,65.04 C814.538673,65.1520006 815.845327,65.3386654 817.152,65.6 L816.648,71.76 C815.117326,71.5359989 813.736006,71.386667 812.504,71.312 C811.271994,71.237333 809.946674,71.2 808.528,71.2 C804.831982,71.2 801.873344,72.2919891 799.652,74.476 C797.430656,76.6600109 796.32,79.8613122 796.32,84.08 C796.32,88.1493537 797.393323,91.2293229 799.54,93.32 C801.686677,95.4106771 804.290651,96.456 807.352,96.456 C808.136004,96.456 808.798664,96.4373335 809.34,96.4 C809.881336,96.3626665 810.52533,96.306667 811.272,96.232 L811.272,89.288 L805.896,89.288 Z M833.504,65.264 L833.504,102 L826.224,102 L826.224,65.264 L833.504,65.264 Z M856.688,71.2 L856.688,102 L849.408,102 L849.408,71.2 L839.328,71.2 L839.328,65.264 L866.768,65.264 L866.768,71.2 L856.688,71.2 Z M885.08,88.28 L880.544,71.312 L880.152,71.312 L875.616,88.28 L885.08,88.28 Z M886.312,65.264 L897.008,102 L888.608,102 L886.592,94.104 L874.16,94.104 L872.144,102 L864.584,102 L875.336,65.264 L886.312,65.264 Z M918.792,88.28 L914.256,71.312 L913.864,71.312 L909.328,88.28 L918.792,88.28 Z M920.024,65.264 L930.72,102 L922.32,102 L920.304,94.104 L907.872,94.104 L905.856,102 L898.296,102 L909.048,65.264 L920.024,65.264 Z M936.04,102 L936.04,65.264 L943.32,65.264 L943.32,96.064 L955.752,96.064 L955.752,102 L936.04,102 Z" id="NLDIGITAAL" fill="#007BC7" fill-rule="nonzero"></path>
        </g>
        <g id="Hoofdstuk-5-site_NDA[v1]" transform="translate(152.000000, 132.000000)">
            <polygon id="Path" fill="#616F7A" fill-rule="nonzero" points="98.7 87.1 71.8 116.5 75.4 56.6 97.4 50.1"></polygon>
            <path d="M98.1,44.1 C98.1,44.1 95.5,42.2 90,41.6 C84.4,41 81.6,42 81.6,42 L80.9,32.9 L83,24.1 L95.9,26.3 L98.2,35.9 L98.2,44.1 L98.1,44.1 L98.1,44.1 Z" id="Path" fill="#E0B514" fill-rule="nonzero"></path>
            <path d="M82.2,177.8 C82.1,179.4 81.1,180.9 80.7,181.8 C80.2,182.8 80.3,184.4 80.8,184.9 C82.1,186.1 83.6,185.7 85.2,186.7 C86.8,187.7 89.1,191.2 90.5,191.5 C91.8,191.8 94.9,191.7 95,191.1 C95.2,190.5 92,188.2 92,188.2 C87.2,182.3 86.7,179.3 86.7,179.3 C86.7,179.3 82.2,177.5 82.2,177.8" id="Path" fill="#F5A37E" fill-rule="nonzero"></path>
            <path d="M92,188 C92,188 92.9,188.8 92.8,189 C92.6,189.3 91.2,189.2 90.9,189 C87.7,187.4 83.4,183.8 82.5,182.8 C81.6,181.7 81.5,180.4 81.5,180.4 C81.2,180.4 80.1,182.2 80.4,183.6 C80.5,183.9 80.8,184.7 81,184.8 C81.7,185.5 84.2,186.7 84.9,187.1 C86.5,188.1 88.7,191.6 90,191.9 C91.3,192.2 95.8,192.1 96,191.5 C95.9,191.1 93.5,189 92,188" id="Path" fill="#502819" fill-rule="nonzero"></path>
            <path d="M80.2,183.4 C80.2,183.4 81.1,185.9 81.4,186.8 C81.8,188.1 82.1,190.8 82.1,190.8 L82.7,190.8 C82.7,190.8 81.9,185.6 84.7,187.2 C85.6,187.6 80.2,183.4 80.2,183.4" id="Path" fill="#502819" fill-rule="nonzero"></path>
            <path d="M93.6,140.8 C89.1,143.1 85.7,151.6 84.9,155 C84.1,158.4 82.5,177.7 82,178.9 C81.6,180.1 86.4,180.1 86.6,179.4 C88.3,172.5 95.7,155.2 96.5,153.5 C97.3,151.8 100.7,144 101,143.2 C102.3,139.1 96.1,139.5 93.6,140.8" id="Path" fill="#F5A37E" fill-rule="nonzero"></path>
            <path d="M119.6,108.7 C119.6,108.7 119.7,110.6 119.6,111 C119.5,111.5 119.2,112 119,112.5 C118.8,112.9 118.9,113.7 119,113.8 C119.3,114.1 119.8,113.5 119.9,113.1 C120.1,112.7 120.5,111.9 120.6,111.4 C120.7,110.9 121.1,109.5 121,109.1 C120.8,108.7 119.6,108.7 119.6,108.7" id="Path" fill="#F5A37E" fill-rule="nonzero"></path>
            <path d="M119.7,108.1 C119.7,108.1 119.3,109.8 119.1,110.2 C118.9,110.6 118.6,110.6 118.1,110.9 C117.7,111.2 117.3,111.6 117.4,112 C117.5,112.4 118.1,112 118.4,111.9 C118.8,111.7 119.5,111.2 119.8,110.7 C120.1,110.2 120.7,109.2 120.8,108.8 C120.8,108.4 119.7,108.1 119.7,108.1" id="Path" fill="#F5A37E" fill-rule="nonzero"></path>
            <path d="M119.6,107.8 C119.6,107.8 119,109.1 118.8,109.4 C118.6,109.7 118.3,109.7 117.9,109.9 C117.6,110.1 117.1,110.4 117.2,110.7 C117.2,111 117.8,110.8 118.1,110.8 C118.5,110.7 119.1,110.4 119.4,110 C119.7,109.7 120.4,108.9 120.5,108.5 C120.5,108.3 119.6,107.8 119.6,107.8" id="Path" fill="#F5A37E" fill-rule="nonzero"></path>
            <path d="M115.8,112 C116,112.2 116.5,111.9 116.9,111.4 C117.3,110.9 117.3,109.8 117.2,109.2 C117.1,108.6 117.2,107.8 117.6,107.7 C118,107.6 119.5,108.3 119.7,108.7 C120.1,109.4 120.7,110.4 120.7,110.9 C120.7,111.4 120.3,112.5 120.2,112.9 C120,113.4 119.8,114 119.9,114.4 C120,114.8 120.2,114.8 120.4,114.9 C120.6,115 120.7,114.1 121.1,113.5 C121.5,112.9 122.2,111.3 122.3,111.1 C122.3,111 122,108.6 121.8,107.9 C121.7,107.2 119.4,104.3 119.4,104.1 C119.4,103.8 117.2,99 117.2,99 L113.3,100 C113.3,100 115.4,103.4 115.4,104 C115.4,104.6 115.2,105.4 115.1,106.1 C114.9,107.3 115.5,108.8 115.7,109.4 C116,110.5 115.5,111.7 115.8,112" id="Path" fill="#F5A37E" fill-rule="nonzero"></path>
            <path d="M77.3,175.8 C77.3,175.8 77.6,178.1 77,179.5 C76.4,180.8 74.1,183.6 73,183.3 C71.9,183 70.7,179.9 70.6,179.4 C69.8,176.4 71.6,171.5 71.6,171.5 L77.3,175.8 Z" id="Path" fill="#8E3C26" fill-rule="nonzero"></path>
            <path d="M99.1,51.3 C101.5,51 104.1,58.1 105,65.9 C106.5,79.4 108.9,83.6 104.8,84.6 C101.1,85.4 100.2,79.9 97.4,68.6 C95.2,59.6 94.2,52 99.1,51.3" id="Path" fill="#F5A37E" fill-rule="nonzero"></path>
            <path d="M68.3,47.9 C69.5,46.1 75.3,46.1 77.5,45.8 C79.7,45.5 86,46.4 86,46.4 C86,46.4 92.2,47.7 94.2,48.7 C96.2,49.7 101.6,51.7 102.1,53.8 C102.9,57 90.9,71.8 94.9,82.2 C96.2,85.6 104.1,94.8 104.1,98.5 C104.1,103 90.8,109.4 90.8,109.4 L90,109.6 L89.2,109.8 C89.2,109.8 74.5,110.9 72.2,107 C70.4,103.8 74,87.7 73.6,83.3 C72.3,71.9 66.4,50.6 68.3,47.9" id="Path" fill="#F8BC96" fill-rule="nonzero"></path>
            <path d="M104,99.2 C105.9,102.1 106.2,107.5 105.9,114.6 C105.5,124.3 102.2,138.6 101.9,140 C100.6,146.4 94.4,146.6 93.1,141.7 C92.7,140.4 89.5,113.1 89.6,110 C89.7,106.9 89.6,101.3 91.6,97.7 C93.1,95.1 101.2,94.9 104,99.2" id="Path" fill="#F5A37E" fill-rule="nonzero"></path>
            <path d="M82,42.4 C82.9,40.9 83.9,34.7 83.9,34.7 L87.8,35.4 L91.7,36.1 C91.7,36.1 90.5,42.3 90.9,44 C91.2,45.8 94,48.7 94,48.7 L85.7,47.2 L77.4,45.7 C77.4,45.8 81.1,43.9 82,42.4" id="Path" fill="#F8BC96" fill-rule="nonzero"></path>
            <path d="M103.5,79.1 C105.5,78.4 109.5,80.8 112.3,87.2 C115.4,94.6 120.1,105.1 118.4,105.9 C117.6,106.3 116.5,105.6 115.7,104.1 C114.1,100.8 109.7,96.1 106.6,91.9 C101.8,85.4 99.6,80.5 103.5,79.1" id="Path" fill="#F5A37E" fill-rule="nonzero"></path>
            <path d="M82,42.4 L83.1,38.9 C83.4,37.8 83.6,36.6 83.7,35.8 L83.7,35.8 L87.5,35.4 L87.8,35.5 L91.7,36.2 C91.7,36.2 90.5,42.4 90.9,44.1 C91.2,45.9 94,48.8 94,48.8 C94,48.8 88.8,46.5 87.9,46 C87,45.3 82,42.4 82,42.4" id="Path" fill="#F5A37E" fill-rule="nonzero"></path>
            <path d="M97.2,31.9 C96.1,38.1 89.9,42.1 86.8,41.6 C83.7,41.1 80.5,35.3 81,28.9 C81.5,22.6 85.9,19.3 90.6,20.1 C95.2,21 98.3,25.7 97.2,31.9" id="Path" fill="#F8BC96" fill-rule="nonzero"></path>
            <path d="M85.8,24.4 C86.4,26.1 88.1,27.2 91.9,27.6 C94.6,27.9 96.3,31.6 96.2,33.1 C96.2,33.7 98.1,44.1 98.1,44.1 C98.1,44.1 101.3,30.9 96.3,23.6 C91.3,16.3 84.8,20.3 84.7,20.9 C84.7,21.5 85.5,23.5 85.8,24.4" id="Path" fill="#E7C352" fill-rule="nonzero"></path>
            <path d="M87.3,22.9 C87.3,22.9 87.3,25.5 85,26 C80.8,26.8 81.5,42 81.5,42 C81.5,42 77,23 84.6,20.9 C89.1,19.7 87.3,22.9 87.3,22.9" id="Path" fill="#E7C352" fill-rule="nonzero"></path>
            <path d="M78,169.4 C78,169.4 77.4,176.1 77.1,176.8 C76.8,177.5 74.9,179.9 73.9,179.5 C71.1,178.4 71,172.6 71.8,171 C72.3,170.1 72.7,169 73.1,168.4 C74.1,166.6 74.9,165.9 74.9,165.9 L78,169.4 Z" id="Path" fill="#F8BC96" fill-rule="nonzero"></path>
            <path d="M94.5,137.2 C97.1,139.6 97.2,141.8 93.4,148.2 C89.6,154.7 77.8,171 77,170.4 C76.2,169.9 73.2,167.5 74.8,165.6 C75.8,164.3 76,161.9 77.4,158.2 C79.8,151.8 83,143.7 83.8,142.3 C85,140.2 90.3,133.4 94.5,137.2" id="Path" fill="#F8BC96" fill-rule="nonzero"></path>
            <path d="M71.7,103.3 C71,106.7 72.5,111.8 75.3,118.4 C79.1,127.3 87.2,139.6 87.9,140.8 C91.3,146.3 97.2,144.3 96.7,139.3 C96.6,137.9 90,111.3 88.8,108.4 C87.6,105.6 85.7,100.2 82.6,97.6 C80.4,95.6 72.8,98.3 71.7,103.3" id="Path" fill="#F8BC96" fill-rule="nonzero"></path>
            <path d="M97.4,50.1 L97.4,65 C97.4,65 93.9,75.2 95.3,80.3 C96.6,85.4 102.2,91.1 105.4,98.1 C108.6,105.1 105.4,128 105.4,128 C105.4,128 96.9,130.7 94.2,127.9 C91.5,125.1 87.4,126.1 85.9,127.2 C84.4,128.3 80.5,132.1 80.5,132.1 C80.5,132.1 72.8,119.7 71.1,108 C69.8,98.7 73.3,87 72.6,82.3 C71.9,77.6 69.1,58.5 69.1,58.5 C69.1,58.5 73.1,58.9 77.5,59.1 C78.2,59.1 77.5,56 76.9,53 C76.2,49.9 75.6,46.9 76.2,46.9 C79.3,46.9 80.4,60.3 88.1,58.5 C93.9,57.2 93.8,48.3 93.8,48.3 L97.4,50.1" id="Path" fill="#5182B0" fill-rule="nonzero"></path>
            <path d="M75.4,69 C76.3,68.4 79.5,69.1 83,69.7 C86.3,70.3 89.9,70.9 91.9,70.5 C95.3,69.8 96.7,66.7 97.1,65.4 C96.4,67.6 94,75.8 95.1,80.1 C96.4,85.2 102,90.9 105.2,97.9 C108.4,104.9 105.2,127.8 105.2,127.8 C105.2,127.8 96.7,130.5 94,127.7 L93.8,127.6 L89,113.4 C89,113.4 96.8,115.7 96.7,108.9 C96.6,102.1 89.9,86.8 87.9,82.8 C86.1,78.8 73.7,70.2 75.4,69" id="Path" fill="#026A9D" fill-rule="nonzero"></path>
            <path d="M77.4,45.8 C77.4,45.8 79.5,51.6 80.2,55.7 C80.9,59.7 73.7,92.5 72.5,99.3 C71.3,106.1 71.7,116.6 71.7,116.6 L67.7,112.7 C67.7,112.7 70.5,95.1 70.5,85.4 C70.4,75.7 66.5,52 67.3,48.9 C68,45.6 77.4,45.8 77.4,45.8" id="Path" fill="#9AA3AA" fill-rule="nonzero"></path>
            <path d="M94.8,48.7 C94.8,48.7 96.7,63.9 96.5,67.7 C96.3,71.5 98.7,87.1 98.7,87.1 C98.7,87.1 102.7,56 102.4,54 C101.9,51.3 94.8,48.7 94.8,48.7" id="Path" fill="#9AA3AA" fill-rule="nonzero"></path>
            <path d="M69.9,47.1 C67.5,46.8 64.9,53.9 64,61.7 C62.5,75.2 60.1,79.4 64.2,80.4 C67.9,81.2 68.8,75.7 71.6,64.4 C73.8,55.4 74.8,47.7 69.9,47.1" id="Path" fill="#F5A37E" fill-rule="nonzero"></path>
            <path d="M63.5,75.5 C65.3,74.3 69.8,75.6 74,81.1 C78.9,87.4 86.1,96.4 84.6,97.7 C83.9,98.3 82.7,97.9 81.6,96.6 C79.2,93.8 73.8,90.4 69.7,87.1 C63.4,82 60,77.8 63.5,75.5" id="Path" fill="#F8BC96" fill-rule="nonzero"></path>
            <path d="M92.2,94.7 C92.2,94.3 84.9,91.7 80.7,95.1 C79.9,95.7 82.3,97.7 83.5,98.2 C84.1,98.4 85.1,98.5 85.9,97.7 C89.2,94.6 92.1,96.2 92.2,94.7" id="Path" fill="#F8BC96" fill-rule="nonzero"></path>
            <path d="M83.8,94.9 C83.8,94.9 85.2,94.4 87.1,94.2 C87.3,94.2 87.6,94 87.8,94 C88,94 88.3,94.1 88.4,94.1 C88.5,94.1 88.7,94 88.8,94 C89,94 89.3,94.1 89.4,94.1 C89.6,94.1 89.8,94 90,94 C90.6,93.9 90.6,94.3 90.8,94.3 C91.3,94.3 91.5,94.3 91.6,94.3 C92.1,94.4 93.6,96 93.8,96.4 C94,96.7 95.3,98.4 95.1,98.5 C95,98.7 94.2,98.8 93.4,98 C92.6,97.2 91.5,96.3 91.7,96.5 C91.8,96.7 92.2,98.1 92.2,98.7 C92.2,99.1 91.8,99.2 91.5,99.1 C91.3,99.1 90.7,98.2 90.7,98.2 C90.7,98.2 90.3,98.9 90.2,98.9 C89.6,98.9 89.4,98.1 89.2,97.9 C89.1,97.7 88.9,98.6 88.7,98.5 C87.8,98.3 87.6,96.1 86.7,96.4 C86.1,96.5 84.2,96.2 83.8,94.9" id="Path" fill="#F8BC96" fill-rule="nonzero"></path>
            <path d="M143.6,21.8 C143.6,21.8 146.6,17.6 149.8,20.1 C153,22.6 152.8,28 151.2,29.7 C149.6,31.4 146.9,38.8 147.5,38.9 C148,39 147.3,40.3 146.2,40.1 C145,39.9 141.8,38.5 142.9,34.8 C144.1,31.1 143.2,28.2 143.2,28.2 L143.6,21.8 Z" id="Path" fill="#8E3C26" fill-rule="nonzero"></path>
            <path d="M140.4,176.5 C140.6,178.3 141.4,179.4 141.9,180.3 C142.5,181.3 142.5,183.2 142,183.7 C140.7,185.1 139,184.8 137.3,185.9 C135.6,187.1 133.3,191.1 131.8,191.6 C130.4,192 127,192.1 126.8,191.4 C126.5,190.7 129.9,187.9 129.9,187.9 C134.7,181.1 135.1,178 135.1,178 C135.1,178 140.4,176.2 140.4,176.5" id="Path" fill="#F5A37E" fill-rule="nonzero"></path>
            <path d="M129.9,188 C129.9,188 129,188.9 129.1,189.2 C129.4,189.6 130.9,189.3 131.2,189.1 C134.6,187.1 139.1,182.9 140,181.6 C140.9,180.3 141,178.9 141,178.9 C141.3,178.9 142.7,180.8 142.5,182.4 C142.4,182.7 142.1,183.6 142,183.8 C141.2,184.6 138.6,186.1 137.9,186.6 C136.2,187.8 134.1,191.8 132.6,192.3 C131.2,192.7 126.2,193 126,192.3 C125.8,191.6 128.4,189.2 129.9,188" id="Path" fill="#1A1A1A" fill-rule="nonzero"></path>
            <path d="M142.6,182 C142.6,182 141.7,184.9 141.5,185.8 C141.1,187.2 141,190.3 141,190.3 L140.4,190.3 C140.4,190.3 140.9,184.5 138,186.4 C137,187.1 142.6,182 142.6,182" id="Path" fill="#1A1A1A" fill-rule="nonzero"></path>
            <path d="M140.3,135.1 C144.3,139 145.1,149.1 144.9,152.9 C144.7,156.8 140.1,177.1 140.3,178.5 C140.5,179.9 135.1,178.8 135.2,178 C135.6,170.2 133.4,149.5 133.1,147.5 C132.8,145.5 131.7,136.1 131.7,135.2 C131.6,130.5 138,132.9 140.3,135.1" id="Path" fill="#F5A37E" fill-rule="nonzero"></path>
            <path d="M164.7,184.4 C164.7,184.4 166.7,189.3 166.7,190.6 C166.7,191.9 166.1,195 165,195.2 C164,195.3 161.5,193 161.2,192.6 C159.4,190.4 159.4,186 159.4,186 L164.7,184.4 Z" id="Path" fill="#313131" fill-rule="nonzero"></path>
            <path d="M163.6,181.6 C163.6,181.6 165.2,185.3 165.6,188.3 C165.7,189 165.2,191.7 164.2,191.8 C161.5,191.9 159.3,187.2 159.4,185.5 C159.5,183.9 159.6,182.1 159.6,182.1 L163.6,181.6 Z" id="Path" fill="#F8BC96" fill-rule="nonzero"></path>
            <path d="M153.5,134.5 C150,135.2 149.1,137.7 150.8,148.1 C152.1,156 157.1,173.9 159.4,182.1 C160.1,184.7 159.9,186.5 160.1,186.5 C161.1,186.5 164.1,186.4 164.4,184.1 C164.5,183.6 163.3,181.9 163.3,180.5 C163.3,172.4 163.2,151.8 162.7,148.9 C162.3,145.4 159.2,133.4 153.5,134.5" id="Path" fill="#F8BC96" fill-rule="nonzero"></path>
            <path d="M130,45.9 C127.8,45.1 123.8,51.6 121.4,59 C117.3,72 113.3,74.1 117.8,76.5 C123.3,79.4 123.4,73.7 128.4,63.1 C132.2,54.8 134.7,47.5 130,45.9" id="Path" fill="#90CBE8" fill-rule="nonzero"></path>
            <path d="M127.7,97 C126.1,100 126.1,105.4 127,112.5 C128.1,122.1 131.3,137.4 131.7,138.8 C133.5,145 139.6,144.8 140.5,139.8 C140.8,138.4 142.9,110.8 142.5,107.8 C142.2,104.7 140.5,99.1 138.3,95.7 C136.6,93.1 130.2,92.6 127.7,97" id="Path" fill="#F5A37E" fill-rule="nonzero"></path>
            <path d="M155.8,97.3 C158,99.9 159,105.2 159.6,112.3 C160.4,121.9 160,136.4 159.9,137.9 C159.4,144.4 152.1,145.4 150.2,140.8 C149.7,139.5 143.2,112.9 142.9,109.8 C142.6,106.7 141.9,101.1 143.4,97.4 C144.5,94.5 152.5,93.4 155.8,97.3" id="Path" fill="#F8BC96" fill-rule="nonzero"></path>
            <path d="M128.7,92.6 C127.6,95.5 126.7,98.2 127.1,99.7 C128.2,104.1 141.1,107.8 141.1,107.8 L142,107.8 L142,93.6 C137,93.6 133.7,92.6 128.7,92.6" id="Path" fill="#27557D" fill-rule="nonzero"></path>
            <path d="M158,49.3 C157.1,47.3 152.6,46.4 150.5,45.8 C148.4,45.2 142.1,44.9 142.1,44.9 C142.1,44.9 132.1,45.9 130,45.8 C129.1,45.8 128.4,49.1 128.1,50 C126.1,55.3 123.8,61.4 128.7,65.7 C129.8,66.7 130.8,77.8 130.8,82.9 C130.8,85 130.4,88.4 128.8,92.4 C133.8,92.4 137.1,93.4 142.1,93.4 L157,93.4 C155.5,89.4 153.8,85 153.4,82.8 C150.4,67.2 159.3,52.3 158,49.3" id="Path" fill="#90CBE8" fill-rule="nonzero"></path>
            <path d="M142,93.6 L142,107.8 L142.9,107.8 C142.9,107.8 157.4,105.1 158.5,100.7 C158.9,99.2 158,96.5 156.9,93.6 L142,93.6 L142,93.6 Z" id="Path" fill="#27557D" fill-rule="nonzero"></path>
            <path d="M146.6,41.8 C146,40.1 146,33.9 146,33.9 L142,33.9 L138,33.9 C138,33.9 138.1,40.2 137.4,41.8 C136.8,43.5 134.2,45.5 134.2,45.5 L140.1,48.2 L148.6,45 C148.6,45 147.2,43.4 146.6,41.8" id="Path" fill="#F8BC96" fill-rule="nonzero"></path>
            <path d="M146,36.9 C145.9,35.2 146,33.8 146,33.8 L142,33.8 L138,33.8 C138,33.8 138.1,40.1 137.4,41.7 C136.8,43.4 133.5,45.8 133.5,45.8 L146,36.9 L146,36.9 Z" id="Path" fill="#F5A37E" fill-rule="nonzero"></path>
            <path d="M149,31.3 C147.2,37.3 140.6,40.6 137.5,39.7 C134.5,38.8 132,32.7 133.2,26.4 C134.5,20.3 139.2,17.5 143.8,18.9 C148.4,20.3 150.8,25.3 149,31.3" id="Path" fill="#F8BC96" fill-rule="nonzero"></path>
            <path d="M138.6,22.5 C139,24.3 140.6,25.6 144.3,26.4 C146.9,27 148.2,30.9 147.9,32.4 C147.8,33 146.8,35.6 146.8,35.6 C146.8,35.6 153.3,30.9 149.1,23.1 C144.9,15.3 138.1,18.5 138,19 C137.9,19.5 138.4,21.6 138.6,22.5" id="Path" fill="#8E3C26" fill-rule="nonzero"></path>
            <path d="M140.4,21.3 C140.4,21.3 140.1,23.9 137.8,24.1 C135.5,24.3 133.2,25.8 133.2,25.8 C133.2,25.8 133.6,19.7 138.1,19 C142.5,18.3 140.4,21.3 140.4,21.3" id="Path" fill="#8E3C26" fill-rule="nonzero"></path>
            <path d="M146.2,67.2 C144.9,66.6 142,66.8 135.2,66.5 C128.4,66.1 127.4,62.7 126.4,61.2 C125.4,59.7 126.3,54.8 126.4,54.6 C125.2,58.6 125,62.7 128.6,65.9 C129.7,66.9 130.7,78 130.7,83.1 C130.7,85.2 130.3,88.6 128.7,92.6 C131.9,92.6 134.4,93 137,93.3 C137,93.3 136.1,89.6 136.1,87.6 C136.1,80.2 150.8,85.3 152.5,82.2 C154.1,79 146.7,71.3 147.5,70.2 C148.3,69.1 147.6,67.8 146.2,67.2" id="Path" fill="#BACFED" fill-rule="nonzero"></path>
            <polygon id="Path" fill="#BACFED" fill-rule="nonzero" points="139.4 46.1 140.1 48.2 136.4 46.6"></polygon>
            <polygon id="Path" fill="#BACFED" fill-rule="nonzero" points="140.1 48.2 140.9 46.1 143.1 47.1"></polygon>
            <path d="M128.7,92.6 C128.7,92.6 126.5,96.2 126.1,102.9 C125.7,109.5 130.4,140 130.4,140 L143.6,140.7 L161.1,139.3 C161.1,139.3 160.7,111.4 159.9,103.1 C159.1,94.8 156.7,92.7 156.7,92.7 L140.9,93.3 L128.7,92.6" id="Path" fill="#DE5D3F" fill-rule="nonzero"></path>
            <polygon id="Path" fill="#E0F2FD" fill-rule="nonzero" points="140.9 46.1 143.3 49.7 150.4 45.9 147.9 42.5"></polygon>
            <polygon id="Path" fill="#E0F2FD" fill-rule="nonzero" points="132.5 45.9 135.7 43 139.4 46.1 136.7 49.4"></polygon>
            <path d="M140.1,120.8 C139.2,121.9 139.6,130.2 138.2,131.8 C136.7,133.5 134.5,133.2 133.2,130.3 C131.9,127.4 128.5,106.7 131.3,99.5 C133.2,94.4 137.2,93.2 137.2,93.2 L136.7,93 L128.9,92.5 C128.9,92.5 126.7,96.1 126.3,102.8 C125.9,109.4 130.6,139.9 130.6,139.9 L143.8,140.6 L146.6,140.4 C146.6,140.4 143.5,139.8 143,136.9 C141.8,131.3 140.9,119.9 140.1,120.8" id="Path" fill="#D52D1E" fill-rule="nonzero"></path>
            <path d="M156.3,47.8 C159,48.1 160.1,55.6 159,63.2 C157.1,76.5 158.7,81.2 153.9,81 C149.6,80.8 150.1,75.4 149.9,63.8 C149.8,54.8 150.7,47.2 156.3,47.8" id="Path" fill="#90CBE8" fill-rule="nonzero"></path>
            <rect id="Rectangle" fill="#5182B0" fill-rule="nonzero" transform="translate(137.005564, 67.254021) rotate(-0.885885) translate(-137.005564, -67.254021) " x="127.005369" y="53.9037599" width="20.0003906" height="26.7005215"></rect>
            <path d="M130,54.2 C130,54.2 131.2,63.4 134.7,67.6 C138.2,71.8 147,73.1 147,73.1 L147.1,80.4 L127.1,80.7 L126.7,54 L130,54.2 Z" id="Path" fill="#026A9D" fill-rule="nonzero"></path>
            <path d="M122.5,75.5 C123.9,73.8 122.7,70.3 117.6,66 C111.7,61.1 103.4,54 102.2,55.5 C100.6,57.6 107.3,64.3 111.9,70.5 C116.5,76.9 119.6,79 122.5,75.5" id="Path" fill="#F8BC96" fill-rule="nonzero"></path>
            <path d="M157.3,78.7 C157.9,76.7 153.8,73.1 147.7,71.5 C140.6,69.6 130.5,66.6 130.1,68.5 C129.5,71 138.1,74.2 144.5,77.9 C151.1,81.5 156.1,82.9 157.3,78.7" id="Path" fill="#F8BC96" fill-rule="nonzero"></path>
            <path d="M125.3,68.7 L125.3,68.7 C125.4,68.4 125.7,68.2 126.1,68.3 L128.7,69 C129,69.1 129.2,69.4 129.1,69.8 L129.1,69.8 C129,70.1 128.7,70.3 128.3,70.2 L125.7,69.5 C125.4,69.4 125.2,69 125.3,68.7" id="Path" fill="#F8BC96" fill-rule="nonzero"></path>
            <path d="M125.5,67.5 L125.5,67.5 C125.6,67.2 125.9,67 126.3,67.1 L128.9,67.8 C129.2,67.9 129.4,68.2 129.3,68.6 L129.3,68.6 C129.2,68.9 128.9,69.1 128.5,69 L125.9,68.3 C125.6,68.2 125.4,67.9 125.5,67.5" id="Path" fill="#F8BC96" fill-rule="nonzero"></path>
            <path d="M125.8,66.4 L125.8,66.4 C125.9,66.1 126.2,65.9 126.6,66 L129.2,66.7 C129.5,66.8 129.7,67.1 129.6,67.5 L129.6,67.5 C129.5,67.8 129.2,68 128.8,67.9 L126.2,67.2 C125.9,67.1 125.7,66.8 125.8,66.4" id="Path" fill="#F8BC96" fill-rule="nonzero"></path>
            <path d="M126.1,65.4 L126.1,65.4 C126.2,65.1 126.5,64.9 126.9,65 L129.5,65.7 C129.8,65.8 130,66.1 129.9,66.5 L129.9,66.5 C129.8,66.8 129.5,67 129.1,66.9 L126.5,66.2 C126.2,66.1 126,65.7 126.1,65.4" id="Path" fill="#F8BC96" fill-rule="nonzero"></path>
            <path d="M134.7,68.2 C134.7,68.2 131.6,65.8 130.8,65.5 C130,65.2 126.6,64.9 126.6,64.9 C126.6,64.9 127.3,66.2 127,67 C126.7,67.7 125.7,69.5 125.7,69.5 C125.7,69.5 128.1,70.6 129.4,70.9 C131.4,71.5 132.6,71.5 132.6,71.5 L134.7,68.2 Z" id="Path" fill="#F8BC96" fill-rule="nonzero"></path>
            <path d="M106.3,57.4 C106.3,57.4 104.9,54 102.6,54.1 C100.3,54.2 98.3,56.3 97.7,56.7 C95.4,58.2 92,57.2 90.4,57.8 C88.8,58.5 89.1,59.5 89.7,59.4 C93.2,59.2 95.4,60.1 96.9,59.8 C98.4,59.5 104.3,60 104.3,60 L106.3,57.4 Z" id="Path" fill="#F8BC96" fill-rule="nonzero"></path>
            <path d="M105,55.3 C105,55.3 103,53.6 101.5,53.4 C100,53.3 98.6,54.7 97.3,54.8 C96,54.9 96.5,55.5 96.7,55.7 C96.8,55.9 98.4,55.8 99.2,55.8 C99.8,55.9 102.9,57.7 105,55.3" id="Path" fill="#F8BC96" fill-rule="nonzero"></path>
            <path d="M52.7,74.4 C56.7,76.8 60.9,68.1 62.7,63.8 C64.5,59.5 68.6,46.3 68.6,46.3 L64,44 C64,44 56.1,53.8 50.4,65.4 C49.9,66.7 48.7,72 52.7,74.4" id="Path" fill="#6D2F0F" fill-rule="nonzero"></path>
            <path d="M10.3,196.7 C10.3,196.7 13.2,202.1 12.7,203.2 C12.4,203.9 10.3,206 7.3,205.5 C5,205.2 1.8,202.3 1.2,202.1 C-0.1,201.7 1.4,194.5 1.4,194.5 L10.3,196.7 Z" id="Path" fill="#1A1A1A" fill-rule="nonzero"></path>
            <path d="M30.3,48.6 C26.9,51.2 28.1,54.8 30.8,57.9 C33.6,61.1 51,74.3 52.4,74.2 C53.8,74.1 58.1,69.8 57.5,68 C56.9,66.2 43.7,52.7 41,50.5 C38.2,48.3 34.2,45.6 30.3,48.6" id="Path" fill="#6D2F0F" fill-rule="nonzero"></path>
            <path d="M33.8,47.3 C35.4,47.2 39.4,47.5 44,52.2 C47.1,55.3 52.8,61.4 52.8,61.4 C52.8,61.4 51.8,64.5 48.9,67.1 C45.6,70.1 42.4,70.6 42.4,70.6 C42.4,70.6 30.1,58.2 29.1,54.8 C28.9,53.7 29.3,47.6 33.8,47.3" id="Path" fill="#6B9C53" fill-rule="nonzero"></path>
            <path d="M22.3,31 C22.3,31 21.7,43.3 21,43.9 C18.8,45.7 10.7,47.3 9.2,50.5 C7.4,54.4 17.3,72 18.6,77.7 C19.9,83.5 17.2,92.5 16.3,98.1 C15.4,103.8 33.3,110.7 33.9,110.7 C34.6,110.7 40.3,105.3 41.4,103.5 C42.5,101.6 41.5,87.1 41.5,83.4 C41.5,79.7 42.4,66.7 42.6,65.8 C43.7,60.1 42.3,55.6 42.1,54.4 C41.9,53.2 42,51.2 41.4,50.4 C40.2,48.9 33.5,46.8 33.4,46.1 C33.3,45.3 32.4,34.7 32.4,34.7 L22.3,31 Z" id="Path" fill="#6D2F0F" fill-rule="nonzero"></path>
            <path d="M21,43.8 L31.8,50.3 L33.4,46.1 C33.4,46.1 40.5,48.3 41.4,49.9 C42.3,51.4 42.8,55.3 43.1,56.6 C43.4,57.8 43.6,63.5 43.1,68.4 C42.8,71.3 42.9,75.1 42.4,80 C42,84.2 42.5,94.7 42.5,94.7 C42.5,94.7 38.5,94.9 32.3,94.5 C25.1,94.1 17.8,93 17.5,92.7 C16.1,91.6 18.1,80.4 17.8,79.2 C17.6,78 8.7,56.6 8.6,53.8 C8.5,51 9.9,49.2 12,48.1 C13.9,47 21,43.8 21,43.8" id="Path" fill="#3A8835" fill-rule="nonzero"></path>
            <path d="M12.9,47.5 C12.9,47.5 5.9,51.4 12.8,56.8 C15.8,59.1 30.2,62.8 32.9,63.6 C42.6,66.6 27.6,88 26.5,89.6 C25.4,91.2 25.4,93.4 25.4,93.4 L16.1,92.3 C13.2,92.9 17.6,79 16.5,76 C15.4,73 8.4,55.9 8.4,53.6 C8.4,48.7 12.9,47.5 12.9,47.5" id="Path" fill="#6B9C53" fill-rule="nonzero"></path>
            <polygon id="Path" fill="#4F2111" fill-rule="nonzero" points="32.7 39.3 21.8 35.3 21.5 41.8 24.9 43.8"></polygon>
            <path d="M35.1,18.6 C32.3,16.2 24.1,14.2 20.4,19.7 C16.7,25.2 18.6,30.3 20.9,33.5 C22.7,36 24.3,37.3 27.6,38.6 C28.3,38.9 34.2,39.7 35.4,39.2 C36.2,38.9 36.6,33 36.8,33 C37,33 37.7,32.6 37.7,32.2 C37.7,31.5 36.8,27.3 37,26.8 C37,26.2 38.3,21.3 35.1,18.6" id="Path" fill="#6D2F0F" fill-rule="nonzero"></path>
            <path d="M36.8,21.1 C36.8,21.1 32.2,18.7 26.8,24.1 C25.6,25.3 28.1,29.9 27.8,30.3 C27.5,30.8 23.2,27 23.4,27.6 C25.2,33 23.6,36 23.1,36.1 C21.6,36.3 16.7,28.8 18.7,22.5 C20.8,16.2 27.4,15.3 29,15.6 C30.5,15.8 35.4,16 36.8,21.1" id="Path" fill="#36180E" fill-rule="nonzero"></path>
            <path d="M26.1,28.7 C26.7,30.4 27,32.7 26.1,33 C25.2,33.3 23.9,32.2 23.3,30.5 C22.7,28.8 23,27.2 23.9,26.8 C24.8,26.5 25.5,26.9 26.1,28.7" id="Path" fill="#6D2F0F" fill-rule="nonzero"></path>
            <rect id="Rectangle" fill="#1A1A1A" fill-rule="nonzero" x="26.6" y="197.1" width="7" height="1.3"></rect>
            <path d="M26.9,187.9 C26,189.2 25.4,191.7 25.3,192.8 C25.2,194.2 26,197.1 26.9,197.1 C29.5,197.1 32.7,197.2 35.4,197.6 C38.1,198 39.1,199.5 46.1,199.5 C48.1,199.5 51.7,199.4 51.7,198.5 C51.7,194.9 45,196.2 42.9,194.2 C37.5,189.3 34,188.1 34,188.1 C34,188.1 27.1,187.7 26.9,187.9" id="Path" fill="#1A1A1A" fill-rule="nonzero"></path>
            <path d="M30.2,93 C30.2,93 20.9,102.3 20.5,106.3 C20.1,110.3 24,123.3 25.4,133.5 C26.8,143.7 27.6,145.7 27.3,148.2 C27,150.6 24.2,160.3 24.3,166.8 C24.4,174.4 24,189.9 24,189.9 C24,189.9 26,191.5 31.2,191.5 C34.6,191.5 37.4,189.1 37.4,189.1 C37.4,189.1 39.5,151.1 39.9,147.1 C40.2,144.5 42.3,126.7 42.9,112.1 C43.1,107.4 42,94 42,92.1 L30.2,93" id="Path" fill="#026A9D" fill-rule="nonzero"></path>
            <polygon id="Path" fill="#BACFED" fill-rule="nonzero" points="31.3 47.7 31.8 50.3 26.1 46.9"></polygon>
            <polygon id="Path" fill="#BACFED" fill-rule="nonzero" points="31.8 50.3 32.7 47.1 34 48.2"></polygon>
            <path d="M15.7,92.3 C15.7,92.3 12,101.4 10.5,107.5 C9,113.6 7.3,145.1 6.7,148 C6.2,151 4.3,160 2.9,168.9 C1.5,177.8 0.6,195.8 0.6,195.8 L12.1,197.6 C12.1,197.6 18.9,159.9 20,154 C21.1,148.1 32.4,106.1 32.4,106.1 L33.8,92.6 L15.7,92.3 Z" id="Path" fill="#5182B0" fill-rule="nonzero"></path>
            <path d="M16.1,118 C15.1,122 12.3,149.4 12.1,150.9 C11.9,152.4 4.8,194.4 4.5,196.4 L0.7,195.8 C0.7,195.8 1.6,177.8 3,168.9 C4.4,160 6.3,150.9 6.8,148 C7.3,145 9.1,113.6 10.6,107.5 C12.1,101.4 15.8,92.3 15.8,92.3 L25.8,92.6 C25.7,92.6 17,114 16.1,118" id="Path" fill="#026A9D" fill-rule="nonzero"></path>
            <path d="M15.5,92.3 C15.5,92.3 33.1,92.6 34.2,92.6 C35.3,92.6 42.2,91.9 42.2,91.9 L42.3,94.7 C42.3,94.7 35.6,95.3 32.4,95.3 C29.2,95.3 14.9,94.6 14.9,94.6 L15.5,92.3 Z" id="Path" fill="#3B1B1D" fill-rule="nonzero"></path>
            <path d="M35.7,95.7 L33.2,95.7 C32.7,95.7 32.2,95.3 32.2,94.7 L32.2,93.4 C32.2,92.9 32.6,92.4 33.2,92.4 L35.7,92.4 C36.2,92.4 36.7,92.8 36.7,93.4 L36.7,94.7 C36.7,95.3 36.2,95.7 35.7,95.7" id="Path" fill="#732D1D" fill-rule="nonzero"></path>
            <polygon id="Path" fill="#E0F2FD" fill-rule="nonzero" points="19.5 44.5 21.5 41.8 31.3 47.7 29.7 51.2"></polygon>
            <polygon id="Path" fill="#E0F2FD" fill-rule="nonzero" points="32.7 47.1 35 49.8 35.3 46.9 33.4 45.1"></polygon>
            <path d="M12.1,49.6 C7.9,50.4 7.3,54 8.3,58 C9.3,61.9 19.9,84.1 21.2,84.6 C22.4,85.1 28.3,83.2 28.5,81.3 C28.8,79.4 22.1,58.9 20.7,55.8 C19.3,52.7 17,48.7 12.1,49.6" id="Path" fill="#6D2F0F" fill-rule="nonzero"></path>
            <path d="M15.8,49.7 C17.3,50.3 20.5,52.4 21.3,55.3 C22.4,59.5 26,70.4 26,70.4 C26,70.4 23.7,72.7 19.9,73.8 C15.6,75 12.6,74 12.6,74 C12.6,74 7.5,57.5 7.8,53.9 C8.1,51.1 11.7,47.9 15.8,49.7" id="Path" fill="#3A8835" fill-rule="nonzero"></path>
            <path d="M20.7,78.2 C16.9,80.9 23.2,88.2 26.4,91.6 C29.6,95 40.1,104 40.1,104 L44,100.7 C44,100.7 38.2,89.6 29.8,79.7 C28.9,78.7 24.5,75.5 20.7,78.2" id="Path" fill="#6D2F0F" fill-rule="nonzero"></path>
            <path d="M62.9,42.8 C62.9,42.8 63.8,38.4 64.5,37.6 C65.2,36.8 68.5,30.3 69,31.1 C69.6,32 67.2,37.5 67.3,37.6 C67.5,37.7 70.5,38.9 71.4,39.8 C72.3,40.7 68.6,46.6 68.6,46.6 L64.3,47.4 L62.9,42.8 Z" id="Path" fill="#6D2F0F" fill-rule="nonzero"></path>
            <path d="M56,99.2 L57,98.6 C57.2,98.5 57.5,98.5 57.7,98.7 C57.8,98.9 57.8,99.2 57.6,99.4 L56.6,100 C56.4,100.1 56.1,100.1 55.9,99.9 C55.7,99.6 55.7,99.3 56,99.2" id="Path" fill="#91A5A3" fill-rule="nonzero"></path>
            <path d="M42.1,109.3 L42.1,109.3 C41.8,108.9 43.4,107.4 43.7,107.2 L55.6,99.1 C56,98.8 56.5,98.9 56.7,99.3 C57,99.7 56.9,100.2 56.5,100.4 L44.6,108.5 C44.3,108.8 42.3,109.7 42.1,109.3" id="Path" fill="#4B5C61" fill-rule="nonzero"></path>
            <rect id="Rectangle" fill="#91A5A3" fill-rule="nonzero" transform="translate(55.008600, 100.504850) rotate(-35.775462) translate(-55.008600, -100.504850) " x="54.608607" y="99.6048658" width="1" height="1.79996836"></rect>
            <path d="M51.4,103.1 L51.4,103.1 C51.3,103 51.3,102.8 51.5,102.7 L55.4,99.9 C55.5,99.8 55.7,99.8 55.8,100 C55.9,100.1 55.9,100.3 55.7,100.4 L51.8,103.1 C51.7,103.3 51.5,103.2 51.4,103.1" id="Path" fill="#CADBD9" fill-rule="nonzero"></path>
            <path d="M45.2,111.5 L45.2,111.5 C45.6,111.3 45.8,110.7 45.5,110.3 L43.6,107 C43.4,106.6 42.8,106.4 42.4,106.7 L42.4,106.7 C42,106.9 41.8,107.5 42.1,107.9 L44,111.2 C44.2,111.6 44.8,111.7 45.2,111.5" id="Path" fill="#4F2111" fill-rule="nonzero"></path>
            <path d="M46.7,110.8 L46.7,110.8 C47.1,110.6 47.3,110 47,109.6 L45.1,106.3 C44.9,105.9 44.3,105.7 43.9,106 L43.9,106 C43.5,106.2 43.3,106.8 43.6,107.2 L45.5,110.5 C45.7,110.9 46.3,111 46.7,110.8" id="Path" fill="#4F2111" fill-rule="nonzero"></path>
            <path d="M48.2,110 L48.2,110 C48.6,109.8 48.8,109.2 48.5,108.8 L46.6,105.5 C46.4,105.1 45.8,104.9 45.4,105.2 L45.4,105.2 C45,105.4 44.8,106 45.1,106.4 L47,109.7 C47.2,110.1 47.8,110.2 48.2,110" id="Path" fill="#4F2111" fill-rule="nonzero"></path>
            <path d="M49.5,109.1 L49.5,109.1 C49.9,108.9 50.1,108.3 49.8,107.9 L47.9,104.6 C47.7,104.2 47.1,104 46.7,104.3 L46.7,104.3 C46.3,104.5 46.1,105.1 46.4,105.5 L48.3,108.8 C48.5,109.2 49.1,109.4 49.5,109.1" id="Path" fill="#4F2111" fill-rule="nonzero"></path>
            <path d="M41.8,97.9 C41.8,97.9 46.9,101.7 47.7,102.7 C48.4,103.7 50,108.3 50,108.3 C50,108.3 47.9,107.8 47,108.5 C46.1,109.2 44,111.2 44,111.2 C44,111.2 41,108.2 40.2,106.4 C39.3,104.6 38.9,102.7 38.9,102.7 L41.8,97.9 Z" id="Path" fill="#6D2F0F" fill-rule="nonzero"></path>
            <polyline id="Path" fill="#7A868E" fill-rule="nonzero" points="45.2 201.2 39.3 201.2 39.3 110.8 45.2 110.8 45.2 201.2"></polyline>
            <polyline id="Path" fill="#7A868E" fill-rule="nonzero" points="207.5 201.2 201.5 201.2 201.5 110.8 207.5 110.8 207.5 201.2"></polyline>
            <polyline id="Path" fill="#7A868E" fill-rule="nonzero" points="206.5 125.1 40.1 125.1 40.1 112.2 206.5 112.2 206.5 125.1"></polyline>
            <polyline id="Path" fill="#596169" fill-rule="nonzero" points="39.3 122.2 39.3 122.2 39.3 117.9 40.1 117.9 40.1 122.2 39.3 122.2"></polyline>
            <polyline id="Path" fill="#596169" fill-rule="nonzero" points="206.5 120.9 206.5 118 207.4 118 207.4 120.9 206.5 120.9"></polyline>
            <polyline id="Path" fill="#596169" fill-rule="nonzero" points="40.1 122.2 40.1 117.9 206.5 118 206.5 120.9 40.1 122.2"></polyline>
            <rect id="Rectangle" fill="#9AA3AA" fill-rule="nonzero" x="32.1" y="110.5" width="182.8" height="7.5"></rect>
            <path d="M198.8,51.3 C201.3,50 205.3,51.8 207.3,58 C209.3,64.2 213.9,80.4 214.6,83.1 C215.2,85.8 217.7,91.4 212.6,93.8 C207.5,96.2 205.2,90.7 203.4,86.5 C195.1,67.9 192,54.8 198.8,51.3" id="Path" fill="#F8BC96" fill-rule="nonzero"></path>
            <path d="M150,84.2 C149,81.7 146.9,80 139.6,81.8 C132.3,83.6 117.2,89.2 117.2,89.2 L117.7,93.3 C117.7,93.3 133.2,93.8 137.2,93 C141.2,92.2 152.5,90.9 150,84.2" id="Path" fill="#F8BC96" fill-rule="nonzero"></path>
            <path d="M214.9,87.5 C213.9,85 211.8,83.3 204.5,85.1 C197.2,86.9 182.1,92.5 182.1,92.5 L182.6,96.6 C182.6,96.6 198.1,97.1 202.1,96.3 C206.1,95.5 217.4,94.2 214.9,87.5" id="Path" fill="#F8BC96" fill-rule="nonzero"></path>
            <path d="M194.7,204.8 C194.7,204.8 198.7,203.3 200.8,203.3 C202.3,203.3 204.1,204.6 204.2,205.8 C204.2,206.3 203.7,206.9 203.2,207.5 C202.7,208 196.5,212.4 195.1,212.6 C192.8,212.9 190.3,212.8 189.1,212.4 C187.8,211.9 187.8,207.5 187.8,207.5 L194.7,204.8 Z" id="Path" fill="#1A1A1A" fill-rule="nonzero"></path>
            <path d="M168.5,80.1 C165.7,71.5 158.4,56.8 162.7,54.2 C168.2,50.9 184.1,48.8 184.1,48.8 L184.1,49.1 C184.1,49.1 197.7,50.8 203.2,54.2 C207.4,56.8 202.5,71.8 199.7,80.4 C199,82.5 199.1,91.7 199.4,99.9 C199.5,101.9 201.1,111.2 200.8,115.1 C200.7,116.2 187.7,123.4 184.1,123.5 L184.1,123.2 C180.5,123 167.5,115.9 167.4,114.8 C167.1,111 168.8,101.6 168.8,99.6 C169.1,91.4 169.2,82.2 168.5,80.1" id="Path" fill="#F8BC96" fill-rule="nonzero"></path>
            <path d="M170.1,53.4 C168.2,51.3 163.8,51.7 159.8,56.8 C155.8,61.9 146,75.6 144.4,77.9 C142.9,80.2 138.7,84.6 142.7,88.6 C146.7,92.5 150.7,88.2 153.8,84.9 C168,70.2 175.3,59 170.1,53.4" id="Path" fill="#F8BC96" fill-rule="nonzero"></path>
            <path d="M177.5,46.3 C177.9,44.7 178.8,36.6 178.8,36.6 L184.2,36.6 L184.2,36.9 L189.6,36.9 C189.6,36.9 190.5,45 190.9,46.6 C191.3,48.2 195.7,50.7 195.7,50.7 L184.3,50.7 L184.3,50.4 L172.9,50.4 C172.7,50.4 177.1,47.9 177.5,46.3" id="Path" fill="#F5A37E" fill-rule="nonzero"></path>
            <path d="M192.7,106.1 C199.3,106.1 201.8,110.6 201.6,124.7 C201.4,138.7 199.3,153.9 198.4,156.1 C197.5,158.3 188.2,158.3 187.3,157.1 C186.4,155.8 184.1,126.7 184.1,122.2 C184.2,117.5 185.6,106.1 192.7,106.1" id="Path" fill="#F8BC96" fill-rule="nonzero"></path>
            <path d="M190.6,167.3 L195.6,167.2 C197.3,167.2 198.7,165.7 198.6,164 L198.4,154.9 C198.4,153.2 196.9,151.8 195.2,151.9 L190.2,152 C188.5,152 187.1,153.5 187.2,155.2 L187.4,164.3 C187.5,166 188.9,167.3 190.6,167.3" id="Path" fill="#F8BC96" fill-rule="nonzero"></path>
            <path d="M193.2,158.7 C195.2,158.7 200.1,159.4 199.9,172.4 C199.6,185.5 194.1,203.4 194.1,203.4 L189.4,203.4 C189.4,203.4 187.1,179.2 187.1,174.6 C187,164 186.9,158.7 193.2,158.7" id="Path" fill="#F8BC96" fill-rule="nonzero"></path>
            <path d="M175.4,106.2 C168.9,105.5 165.9,109.8 164.6,123.7 C163.3,137.7 163.8,153 164.5,155.3 C165.2,157.6 174.4,158.6 175.4,157.4 C176.4,156.2 181.8,127.5 182.2,123 C182.7,118.5 182.5,106.9 175.4,106.2" id="Path" fill="#F8BC96" fill-rule="nonzero"></path>
            <path d="M171.1,167.3 L166.1,166.7 C164.4,166.5 163.2,164.9 163.4,163.2 L164.6,154.2 C164.8,152.5 166.4,151.3 168.1,151.5 L173.1,152.1 C174.8,152.3 176,153.9 175.8,155.6 L174.6,164.6 C174.4,166.3 172.8,167.5 171.1,167.3" id="Path" fill="#F8BC96" fill-rule="nonzero"></path>
            <path d="M169.4,158.4 C167.4,158.2 162.5,158.3 161.3,171.4 C160.2,184.4 163.8,202.8 163.8,202.8 L168.5,203.3 C168.5,203.3 173.3,179.5 173.8,174.9 C175.1,164.4 175.7,159.1 169.4,158.4" id="Path" fill="#F8BC96" fill-rule="nonzero"></path>
            <path d="M199.8,103.2 C199.8,103.2 202.2,114.7 202.5,121 C202.9,127.3 199.8,154.7 199.8,157.8 C199.8,160.8 200,170.1 199.8,179.2 C199.6,188.3 197.3,206.2 197.3,206.2 L185.6,205.9 C185.6,205.9 185.6,167.4 185.6,161.4 C185.6,155.4 184.1,123.5 184.1,123.5 L184.1,103.7 L199.8,103.2 Z" id="Path" fill="#026A9D" fill-rule="nonzero"></path>
            <path d="M168.7,102.9 C168.7,102.9 165.1,114.1 164.1,120.3 C163.1,126.5 163.2,154.1 162.9,157.1 C162.6,160.1 161.4,169.3 160.6,178.4 C159.8,187.5 160.3,205.5 160.3,205.5 L171.9,206.4 C171.9,206.4 175.9,168.1 176.6,162.1 C177.2,156.1 184.2,124.4 184.2,124.4 L184.1,103.6 L168.7,102.9 Z" id="Path" fill="#026A9D" fill-rule="nonzero"></path>
            <path d="M196.5,206.2 C196.5,206.2 196.7,210.4 196.5,211.6 C196.4,212.3 194.6,213.1 191.5,213.2 C189.2,213.3 187,212.5 186.5,212.3 C185.1,211.7 186.9,205.9 186.9,205.9 L196.5,206.2 Z" id="Path" fill="#1A1A1A" fill-rule="nonzero"></path>
            <path d="M164.2,203.8 C164.2,203.8 160.2,202.3 158.1,202.3 C156.6,202.3 154.8,203.5 154.7,204.8 C154.7,205.3 155.2,205.9 155.7,206.5 C156.2,207 162.4,211.4 163.7,211.6 C166,211.9 168.5,211.9 169.7,211.4 C171,210.9 171,206.5 171,206.5 L164.2,203.8 Z" id="Path" fill="#1A1A1A" fill-rule="nonzero"></path>
            <path d="M170,126.4 C169.3,130.5 168.6,158.2 168.5,159.7 C168.4,161.2 164.4,203.9 164.2,205.8 L160.4,205.5 C160.4,205.5 159.9,187.4 160.7,178.4 C161.5,169.3 162.6,160.1 163,157.1 C163.3,154.1 163.1,126.5 164.2,120.3 C165.2,114.1 168.8,102.9 168.8,102.9 L184.3,103.8 C184.4,126.2 166.9,120.2 166.4,121.5 C165.7,122.8 170.3,124.9 170,126.4" id="Path" fill="#5182B0" fill-rule="nonzero"></path>
            <path d="M194.4,127.4 C193.4,132.6 192,158 192.2,158.7 C192.4,159.4 192.2,206 192.2,206 L192,206.1 L185.7,205.9 C185.7,205.9 185.7,167.4 185.7,161.4 C185.7,155.4 184.6,131.9 184.6,131.9 C184.6,131.9 186.3,127.3 189.2,127.6 C191.8,127.9 194.6,126.4 194.4,127.4" id="Path" fill="#5182B0" fill-rule="nonzero"></path>
            <path d="M174.3,30.9 C174.3,31.6 174,32.4 174,33.4 C174,33.8 174.5,34.3 174.6,34.7 C174.9,38 175.7,41.7 177.6,41.7 C181,41.6 183.1,41.9 185.4,41.9 C188.9,41.9 193.3,38 194.1,31 C194.9,24.2 188.1,18.8 181.8,18.9 C175.7,19 174.1,23.6 174.4,29.8 C174.2,30.2 174.3,30.5 174.3,30.9" id="Path" fill="#F5A37E" fill-rule="nonzero"></path>
            <path d="M185,16.8 C179.9,15.9 172.1,20.4 175.1,23.1 C176,23.9 176.2,31.7 176.2,31.7 C176.2,31.7 177.3,31.1 177.7,31.6 C178.1,32.1 178.4,34.8 178.9,36 C179.4,37.2 182.4,41.9 183.2,41.9 C184.1,41.9 189.5,42.1 190.2,41.4 C190.9,40.6 193.3,36.3 194,34 C194.6,31.6 197.9,19.1 185,16.8" id="Path" fill="#8E3C26" fill-rule="nonzero"></path>
            <path d="M176.8,28.8 C176.8,28.5 178.2,27.7 178.9,29.5 C179.2,30.4 178,34.5 177.8,34.5 C177.2,34.5 176.7,30.2 176.8,28.8" id="Path" fill="#F5A37E" fill-rule="nonzero"></path>
            <path d="M161.3,54.2 C162,53 165.9,52 169.5,50.9 C172.7,49.9 175.2,48.6 175.2,48.6 L193,48.7 C193,48.7 196.1,50.1 199.4,50.5 C203.4,51 204.5,52.8 205.1,54 C205.7,55.3 206,66.9 200.7,82.1 C200,84.2 201.8,98.8 200,103.2 L184.3,104.6 L168.6,103.2 C167.2,98.2 168.6,83.9 167.9,81.9 C167.2,79.8 160.1,56.3 161.3,54.2" id="Path" fill="#313131" fill-rule="nonzero"></path>
            <polygon id="Path" fill="#1A1A1A" fill-rule="nonzero" points="173.4 49.6 195 49.6 192 46 176.4 46"></polygon>
            <path d="M162.3,53.4 C162.3,53.4 159.7,53.7 156.1,60.1 C153.6,64.6 144,77.7 144,77.7 C144,77.7 146,81.6 150,83.9 C153.5,85.9 154.7,85.5 154.7,85.5 L167.5,71.6 L162.3,53.4 Z" id="Path" fill="#313131" fill-rule="nonzero"></path>
            <path d="M203.7,52.2 C203.7,52.2 207.7,54.6 209.6,62.4 C210.8,67.4 215,83.1 215,83.1 C215,83.1 211.8,86.1 207.3,86.9 C203.3,87.6 202.4,86.8 202.4,86.8 L195.1,69.4 L203.7,52.2 Z" id="Path" fill="#313131" fill-rule="nonzero"></path>
            <path d="M120,89 C120,89 118.8,87.5 118.5,87.3 C118.3,87.1 116,85.8 115.6,85.1 C115.2,84.4 115.1,83.9 115,83.8 C114.9,83.7 113.3,83.8 113.8,85.2 C114.3,86.5 115.4,87.6 115.3,88 C115.2,88.4 112.3,88.7 111.6,88.5 C110.9,88.3 107.1,86.4 106.9,86.3 C106.7,86.2 106.1,86.1 106,86.3 C105.8,86.5 106.1,87.6 106.3,87.7 C106.5,87.9 105.9,88.1 106,88.3 C106,88.5 106.3,89.4 106.3,89.4 C106.3,89.4 106.4,90.4 106.6,90.8 C106.8,91.1 108.1,92.6 108.2,92.7 C108.4,92.8 111.8,94.6 112.7,94.7 C113.6,94.8 118.8,94.7 120.4,93.1 C121.2,92.4 120,89 120,89" id="Path" fill="#F8BC96" fill-rule="nonzero"></path>
            <path d="M200,106.4 L167.8,106.4 C167.4,106.4 167,106.1 167,105.6 L167.7,103.3 C167.7,102.9 168,102.5 168.5,102.5 L200,102.5 C200.4,102.5 200.8,102.8 200.8,103.3 L200.8,105.6 C200.8,106.1 200.4,106.4 200,106.4" id="Path" fill="#1A1A1A" fill-rule="nonzero"></path>
            <rect id="Rectangle" fill="#B7CAEA" fill-rule="nonzero" x="123.5" y="100.2" width="8.4" height="10.4"></rect>
            <path d="M131.6,109.3 L131.4,108.3 C131.5,108.3 134.6,107.7 134.6,105 C134.6,102.4 131.7,102.3 131.5,102.3 L131.5,101.3 C132.9,101.3 135.5,102.1 135.5,104.9 C135.6,107.9 133,109.1 131.6,109.3" id="Path" fill="#B7CAEA" fill-rule="nonzero"></path>
            <rect id="Rectangle" fill="#B7CAEA" fill-rule="nonzero" x="57.7" y="100.2" width="8.4" height="10.4"></rect>
            <path d="M58.1,109.3 L58.3,108.3 C58.2,108.3 55.1,107.7 55.1,105 C55.1,102.4 58,102.3 58.2,102.3 L58.2,101.3 C56.8,101.3 54.2,102.1 54.2,104.9 C54,107.9 56.7,109.1 58.1,109.3" id="Path" fill="#B7CAEA" fill-rule="nonzero"></path>
            <rect id="Rectangle" fill="#A7A9AB" fill-rule="nonzero" x="784.3" y="175.8" width="6.3" height="38.5"></rect>
            <path d="M771.9,230.1 C771.9,231.5 773,232.6 774.4,232.6 C775.8,232.6 776.9,231.5 776.9,230.1 C776.9,228.7 775.8,227.6 774.4,227.6 C773,227.6 771.9,228.7 771.9,230.1" id="Path" fill="#5F7578" fill-rule="nonzero"></path>
            <rect id="Rectangle" fill="#324142" fill-rule="nonzero" x="743.3" y="184.8" width="12.6" height="6.2"></rect>
            <rect id="Rectangle" fill="#324142" fill-rule="nonzero" x="747.8" y="187.7" width="2.9" height="24.2"></rect>
            <rect id="Rectangle" fill="#415557" fill-rule="nonzero" x="743.3" y="218.1" width="11.5" height="5.5"></rect>
            <path d="M728.4,171.4 C728.8,170.9 729.2,169.7 729.3,168.6 C730,158.8 730.1,147.7 729.4,135.3 C729.3,133.6 728.9,131.5 728.5,130.9 C725.9,126.7 723.1,129 720.3,133.6 C719.9,134.4 719.5,136.3 719.4,137.8 C719.2,148.8 719.7,159.8 720.7,170.6 C720.8,171.8 721.2,173.3 721.5,173.7 C723.5,175.9 725.8,174.3 728.4,171.4" id="Path" fill="#415557" fill-rule="nonzero"></path>
            <path d="M726.4,184.5 L726.4,187.2 L771.3,187.2 L771.3,184.5 C771.3,183.4 770.4,182.4 769.2,182.4 L728.4,182.4 C727.3,182.4 726.4,183.3 726.4,184.5" id="Path" fill="#415557" fill-rule="nonzero"></path>
            <path d="M773.5,229 L776,229 L773.5,223.5 L752.9,220.9 L752.8,221.9 L750.6,220.9 L749.9,222.2 L749,221 L749,220.8 L748.9,220.8 L748.5,220.3 L752.6,220.3 L752.6,197 L745.8,197 L745.8,220.3 L747.7,220.3 L746.7,221.1 L728.4,223.4 L726.8,226.9 C726.1,227.3 725.7,228.1 725.7,228.9 C725.7,230.2 726.8,231.3 728.1,231.3 C729.4,231.3 730.5,230.2 730.5,228.9 C730.5,228.2 730.2,227.6 729.7,227.2 L730.6,226 L741,224.6 C741.8,224.4 742.6,224.2 743.4,224 C739.3,227.2 732.9,231.6 732.9,231.6 L732,234.1 C730.8,234.5 729.9,235.7 729.9,237.1 C729.9,238.9 731.3,240.3 733.1,240.3 C734.9,240.3 736.3,238.9 736.3,237.1 C736.3,236.1 735.8,235.2 735.1,234.6 L735.9,232.9 L749.8,222.8 L749.4,223.6 L766.1,231.2 L766.7,232 C766.3,232.5 766,233.2 766,233.9 C766,235.7 767.4,237.1 769.2,237.1 C771,237.1 772.4,235.7 772.4,233.9 C772.4,232.2 771.1,230.9 769.5,230.8 L768.3,228.9 L760.6,225.3 L771.5,226 L773.5,229 Z" id="Path" fill="#415557" fill-rule="nonzero"></path>
            <path d="M786,176.9 L784.8,175.9 C786,175.8 787.2,175.6 788.3,175.1 C788.9,174.9 789.5,174.6 790.1,174.9 C790.6,175.2 790.8,175.8 790.9,176.3 C791.8,179.8 798.4,209.6 799,211.9 C799.8,215 801.5,217.7 802.8,220.6 C804,223.4 805.3,226.4 806.9,228.9 C807.2,229.4 807.8,229.8 808.4,230.2 C808.8,230.5 809.2,230.7 809.5,230.9 C809.3,231.2 809.1,231.4 808.8,231.7 C808.5,231.9 808.2,232.1 807.9,232.2 L805.2,232.3 L805.1,232.3 C803.9,232 803,231.1 802.4,230.1 C801.7,229 801.6,227.7 800.8,226.8 C799.9,225.7 798.6,225 797.5,224.1 C796.8,223.5 796.2,223 795.4,222.6 C794.8,222.3 794.2,222.1 793.6,221.8 C792.7,221.3 793,220.9 793,220 C793,219.2 793,218.4 793,217.6 C792.9,216.5 792.6,214.9 792.2,213.9 C791.5,212.1 790.7,210.4 789.5,208.9 C786.8,205.4 784.5,200.8 783.7,196.4 C783.4,194.5 783.3,192.6 783.2,190.6 C783.1,188.7 783.4,186.4 782.9,184.6 C782.5,183.4 781.7,182.2 781.2,181 C780.8,180 780.4,179 780,178.1 L786,176.9 Z" id="Path" fill="#E4BBA5" fill-rule="nonzero"></path>
            <path d="M792.2,221.1 C792.2,220.7 793,218.9 792.8,218.6 C793.4,219.4 794.1,220.3 794.9,220.9 C797.3,222.8 799.5,224.8 801.5,227.1 C802.3,228 803.2,228.7 804.2,229.2 C804.7,229.4 805.3,229.6 805.9,229.6 C806.1,229.6 806.3,229.7 806.5,229.6 C806.7,229.5 806.9,229.2 807.2,229.2 C807.3,229.2 807.4,229.3 807.5,229.4 C808,229.9 808.7,230.2 809.3,230.6 C810,231.1 813,232.7 812,233.7 C811.7,234 811,234 810.5,234 C809.6,234 808.8,234 807.9,233.9 C806,233.7 804.2,233.4 802.3,233.1 C800.3,232.7 800.9,229.2 799.6,228 C798.9,227.3 796.3,226.1 795.6,227.3 C795.1,228.3 795.9,230.2 796.1,231.3 C796.2,231.7 796.4,232.5 796.4,233.1 L795.5,233.1 C795.1,230.4 795,227.9 793.3,225.5 C792.5,224.2 792.1,222.6 792.2,221.1" id="Path" fill="#212020" fill-rule="nonzero"></path>
            <path d="M790.1,174.9 C790.2,175 790.4,175 790.5,175.1 C790.9,175.4 791.2,175.7 791.5,176.1 C793.5,178.6 791.6,182.5 790.7,185.2 C789.6,188.6 788.8,192 787.6,195.3 C785.3,201.8 782.9,208.3 780.9,214.9 C779.9,218 780,221.1 779.5,224.3 C779,227.3 778.6,230.5 778.6,233.5 C778.6,234 778.9,234.7 779.2,235.3 C779.4,235.7 779.6,236.1 779.8,236.5 C779.5,236.6 779.2,236.7 778.8,236.8 C778.4,236.9 778.1,236.8 777.7,236.8 L775.4,235.5 L775.4,235.5 C774.5,234.6 774.2,233.4 774.2,232.2 C774.2,231 774.7,229.8 774.6,228.5 C774.4,227.1 773.7,225.8 773.2,224.5 C772.9,223.7 772.6,222.9 772.2,222.1 C771.9,221.5 771.4,221 771.1,220.5 C770.6,219.6 771,219.4 771.6,218.6 C772.1,218 772.5,217.3 772.9,216.5 C773.4,215.6 773.9,214 774.1,213 C774.4,211.1 774.7,209.3 774.5,207.4 C774,203 774.5,197.8 776.1,193.7 C776.8,191.9 777.7,190.2 778.7,188.5 C779.5,187 781.2,185.8 780,184.1 C779.6,183.5 779,183 778.7,182.4 C778.6,182.2 778.5,181.9 778.5,181.7 C778.5,181.3 778.8,181 779,180.7 C780,179.5 781.2,178.5 782.1,177.3 C782.5,176.9 782.5,176.6 783.1,176.4 C783.8,176.2 784.3,176.4 785,176.1 C785.9,175.7 786.7,174.7 787.7,174.5 C788.4,174.2 789.4,174.5 790.1,174.9" id="Path" fill="#FAD2BC" fill-rule="nonzero"></path>
            <path d="M770.3,219.1 C770.5,218.8 772.1,217.7 772.1,217.3 C772.4,219.9 773.7,222 774.5,224.4 C775.4,227.2 774,232.3 777.8,233 C778,233 778.3,233.1 778.5,233.2 C778.8,233.4 779,233.7 779.1,234.1 C779.5,235.1 779.9,236 780.5,236.9 C780.8,237.4 781.9,238.6 780.9,239 C780.4,239.2 779.4,238.7 778.9,238.5 C777.8,238.1 776.8,237.7 775.8,237.1 C775,236.7 773.6,236.2 773.1,235.3 C772,233.3 772.9,231.2 773.2,229.2 C773.4,227.9 772.5,225.8 770.9,226.1 C768.8,226.6 768.6,231 767.9,232.6 C767.6,232.5 767.2,232.3 766.9,232.2 C767.9,229.4 769.1,226.3 768.9,223.3 C768.9,221.9 769.4,220.4 770.3,219.1" id="Path" fill="#2D2D2D" fill-rule="nonzero"></path>
            <path d="M735,182.4 L735,182.4 C735.1,182.4 742,182.4 742.2,182.4 C743.5,182.4 771.1,182.7 771.1,182.7 C773.3,182.7 775,182.7 775.6,182.8 C774.7,180.5 771.4,180 769.1,180 C758,179.5 744.9,179.4 737.4,169.7 C735.2,166.9 734.4,163.3 734.2,159.7 C733.3,161.6 731.8,167.6 731.7,168.5 C731.2,172 731.1,176.4 732.6,179.7 C733.1,180.9 734,181.8 735,182.4" id="Path" fill="#E16F0D" fill-rule="nonzero"></path>
            <path d="M769,180 C757.9,179.5 744.8,179.4 737.3,169.7 C735.1,166.9 734.3,163.3 734.1,159.7 C734.3,159.3 734.5,159.1 734.6,159.1 L757.2,161.1 L786.8,168.1 L792.4,176.1 C792.2,176.2 792.1,176.3 791.9,176.5 C788.7,178.8 785.5,181 782.2,183.2 C781.2,183.9 780.2,184.4 779.2,185 C778.7,185.3 778.4,185.6 778,185.5 C777.1,185.3 776.6,182.8 775.9,182.8 C775.9,182.8 775.8,182.8 775.6,182.8 C774.6,180.4 771.4,180 769,180" id="Path" fill="#E88D3F" fill-rule="nonzero"></path>
            <path d="M762.1,168.5 L762.1,172.6 C762.1,174.6 763.3,176.1 764.9,176.1 L845.4,176.1 C847,176.1 848.2,174.5 848.2,172.6 L848.2,168.5 L762.1,168.5 Z" id="Path" fill="#D1D2D4" fill-rule="nonzero"></path>
            <polygon id="Path" fill="#A7A9AB" fill-rule="nonzero" points="830.4 144.1 774.4 144.1 762.1 168.5 848.2 168.5"></polygon>
            <polygon id="Path" fill="#FFFFFF" fill-rule="nonzero" points="798.9 158.5 801.3 164.6 771.1 164.6 774 158.3"></polygon>
            <path d="M750.2,100.5 C751.7,102.1 753,103.3 754.2,104.4 C758.4,108.3 760,109.1 760,109.1 C760.1,109.3 758,112.6 759.3,117.4 C754.4,112.8 751.3,106.9 750.2,100.5" id="Path" fill="#E4BBA5" fill-rule="nonzero"></path>
            <path d="M802.4,147.7 C802.8,148.2 803,148.8 803.2,149.4 C803.4,150 803.8,150.5 803.9,151.1 C804,151.5 803.7,151.9 803.2,151.8 C803,151.7 802.9,151.6 802.7,151.5 C802.5,152.1 802,151.9 801.8,151.5 C801.2,150.7 801.1,149.7 800.1,149.6 C799.4,149.5 798.6,149.6 797.9,149.6 C796.7,149.6 795.5,149.6 794.2,149.6 C794.2,149.6 794.6,148.1 794.6,148 C794.8,147.2 795,146.5 795.9,146.5 C797.1,146.5 798.2,146.5 799.4,146.5 C800,146.5 800.6,146.5 801.1,146.7 C801.8,147 802.2,147.3 802.4,147.7" id="Path" fill="#D1A998" fill-rule="nonzero"></path>
            <path d="M798.5,147.3 C798.3,147.3 798.1,147.4 797.8,147.5 C797.6,147.6 797.3,147.5 797.1,147.6 C797.3,147.5 797.5,147.6 797.7,147.7 C798.1,147.8 798.6,147.8 799,147.8 C799.4,147.8 800.9,148.4 800.5,149 C800.1,149.6 799.2,149.5 798.7,149.4 C797.8,149.3 796.8,149.8 795.9,150.1 C793.6,150.8 791.3,149.9 789.1,149.4 L790.7,146.4 L798.2,144.3 C798.9,144.5 799.6,144.8 800.4,145 C801.4,145.3 802.3,145.7 803.1,146.3 C803.5,146.5 803.6,146.9 803.8,147.3 C804,147.8 804.3,148.3 804.5,148.8 C804.7,149.2 805.5,150.2 805,150.7 C804.7,151 804.2,150.6 804,150.4 C803.5,149.7 803.1,148.5 802.4,148 C801.4,147.3 799.7,147.2 798.5,147.3" id="Path" fill="#E2BCA2" fill-rule="nonzero"></path>
            <path d="M798.5,147.3 C798.3,147.3 798.1,147.4 797.8,147.5 C797.6,147.6 797.3,147.5 797.1,147.6 C797.3,147.5 797.5,147.6 797.7,147.7 C798.1,147.8 798.6,147.8 799,147.8 C799.4,147.8 800.9,148.4 800.5,149 C800.1,149.6 799.2,149.5 798.7,149.4 C797.8,149.3 796.8,149.8 795.9,150.1 C793.6,150.8 791.3,149.9 789.1,149.4 L790.7,146.4 L798.2,144.3 C798.9,144.5 799.6,144.8 800.4,145 C801.4,145.3 802.3,145.7 803.1,146.3 C803.5,146.5 803.6,146.9 803.8,147.3 C804,147.8 804.3,148.3 804.5,148.8 C804.7,149.2 805.5,150.2 805,150.7 C804.7,151 804.2,150.6 804,150.4 C803.5,149.7 803.1,148.5 802.4,148 C801.4,147.3 799.7,147.2 798.5,147.3" id="Path" fill="#E4BBA5" fill-rule="nonzero"></path>
            <path d="M759.1,116.6 L760.6,117.4 C762.4,118.3 763.8,119.8 764.5,121.7 L772.4,141.6 L793.3,145.1 L792.4,150.8 L771.8,150.7 C769.9,150.5 768.1,149.4 767.1,147.7 L760.2,139.8 L759.1,116.6 Z" id="Path" fill="#FFFFFF" fill-rule="nonzero"></path>
            <path d="M764.6,106.1 C765,106.2 765.1,106.7 764.9,107.1 C764.8,107.5 764.5,107.8 764.3,108.2 C764.2,108.6 764.3,109.1 764.2,109.5 C764.1,110.4 763.2,111.1 762.3,111.2 C761.4,111.4 760.5,111.1 759.6,110.8 C756.3,109.7 753,108 751,105.1 C749.2,102.5 748.6,99.2 748.3,96.1 C748.1,94.2 747.9,92.2 748.4,90.3 C748.5,89.7 748.7,89.2 749,88.7 C751.4,84 756.8,83.5 761.2,85.1 C765.5,86.7 768.1,91.6 767.1,96 C767,96.5 766.7,97 766.6,97.5 C766.4,98.6 767.1,99.7 767.6,100.6 C767.9,101.2 768.9,103 767.9,103.5 C767.4,103.8 766.8,103.5 766.4,103.9 C766,104.3 765.8,104.9 765.8,105.5 L765.7,105.8 C765.7,106 764.9,106.1 764.6,106.1" id="Path" fill="#FAD2BC" fill-rule="nonzero"></path>
            <path d="M744.9,115.5 C745.4,115 746,114.4 746.5,113.8 C747.5,112.5 748.4,111.2 748.9,109.6 C749.9,106.7 750.3,103.5 750.2,100.4 L750.3,100.5 C751.4,106.9 754.5,112.9 759.4,117.3 C759.4,117.5 759.5,117.7 759.6,117.9 C761.2,120.7 762.7,122.9 760.7,124.2 C759.1,125.2 753,123.1 750.7,122.1 C750.1,121.9 749.8,121.7 749.8,121.7 C749.4,121.5 748.9,119.9 748.6,119.4 C748.3,118.8 747.9,118 747.4,117.6 C747,117.3 746.6,117.1 746.1,117 C745.6,116.9 744.5,117.1 744.1,116.9 C743.3,116.6 744.4,116 744.9,115.5" id="Path" fill="#FAD2BC" fill-rule="nonzero"></path>
            <path d="M761.1,121.1 C761.1,121.1 758.3,123.9 750.9,121.3 C751.6,136.3 752.6,143.3 752.6,143.3 L761.5,146.3 L764.5,136.5 L761.1,121.1 Z" id="Path" fill="#FFFFFF" fill-rule="nonzero"></path>
            <path d="M766.4,137.6 C766.4,138.6 759.6,155.3 757.8,159.9 C757.7,160.2 757.6,160.5 757.5,160.7 C757.4,161 757.3,161.1 757.3,161.1 L757.3,161.1 C756.7,161.1 749.3,160.6 734.8,159.1 L734.7,159.1 C734.8,158.9 734.8,158.7 734.9,158.4 C735.1,157.7 735.3,156.8 735.4,155.9 C737,145.9 736.6,126.2 736.6,126.2 L738.6,124.1 L750.1,123.3 C750.1,123.3 758.4,134.9 761.6,135.9 C761.5,135.9 761.6,134.5 761.6,134.4 C761.6,133.9 761.6,133.3 761.6,132.8 C761.6,131.7 761.6,130.6 761.5,129.5 C761.4,127.5 761.3,125.5 761,123.5 C760.9,122.5 760.7,121.5 760.5,120.6 C760.4,120.1 760.3,119.7 760.2,119.2 C760.1,118.9 760,118.7 759.9,118.5 C759.8,118.3 759.7,118.1 759.6,117.8 L759.7,117.9 C759.9,118.1 760,118.2 760.1,118.4 C760.2,118.6 760.4,118.8 760.5,119.1 C760.7,119.7 760.9,120.2 761.2,120.8 C761.6,121.8 761.9,122.7 762.3,123.7 C763,125.7 763.5,127.6 764.2,129.6 C764.8,131.4 765.4,133.1 765.9,134.9 C765.9,135.7 766.4,136.7 766.4,137.6" id="Path" fill="#E88D3F" fill-rule="nonzero"></path>
            <path d="M757.8,159.9 C757.7,160.2 757.6,160.5 757.5,160.7 L734.9,158.4 C735.1,157.7 735.3,156.8 735.4,155.9 C739.5,156.5 753.4,159.3 757.8,159.9" id="Path" fill="#030304" fill-rule="nonzero"></path>
            <path d="M755.5,96.7 C755.4,96.4 755.3,96.2 755.2,95.9 C754.8,95.1 754.1,94.5 753.2,94.4 C752,94.4 751,95.6 751,96.8 C750.9,98 751.5,99.2 752,100.3 C751.4,101.7 750.7,103.1 750.1,104.5 C749.5,104.5 748.2,102.4 747.8,102 C746.2,99.9 744.4,96.5 744.1,93.8 C744.1,93.6 744,93.3 743.8,93.3 C743.7,93.3 743.6,93.3 743.5,93.3 C742.8,93.4 742.3,92.8 741.8,92.3 C741.6,92.1 741.5,92 741.4,91.7 C740.4,89.9 741.8,86.3 743.2,85 C744.5,83.8 746.3,83.2 748,83.4 C748.8,83.5 749.4,83.9 750.1,84 C751,84.1 751.8,83.4 752.6,83.1 C756.2,81.7 760.4,82.6 763.3,85.1 C764.9,86.4 766,87.6 766.6,89.6 C767,89.5 767.5,89.7 767.8,90 C768.1,90.3 768.3,90.7 768.4,91.2 C768.8,92.6 768.8,94.1 768.4,95.5 C768.4,95.7 764.8,96.1 764.3,96.3 C764.7,95.2 764,93.4 763,92.8 C761.3,91.7 760.1,93.6 759,94.6 C758.3,95.2 755.7,97.4 755.8,98.4 C755.8,97.9 755.7,97.3 755.5,96.7" id="Path" fill="#CCA74A" fill-rule="nonzero"></path>
            <path d="M776,157.4 L781.6,157.8 L786.4,158.3 C786.8,158.3 787.3,158.5 787.6,158.8 C788.9,159.9 790.4,160.7 791.6,161.9 C792.4,162.7 792.7,163.2 791.3,163.6 C790.4,163.8 789.6,163.5 789,162.8 C789.2,163.1 789.5,163.4 789.4,163.8 C789.2,164.6 788.5,164.1 788,163.9 C787.1,163.5 786.2,163 785.3,162.6 C784.7,162.3 784.1,162.3 783.5,162.4 L779.2,163.3 C778.7,163.4 778.1,163.4 777.6,163.2 L774.2,162.1 L776,157.4 Z" id="Path" fill="#FAD2BC" fill-rule="nonzero"></path>
            <path d="M744.6,115.6 C747.3,115.1 750.2,119.2 750.9,121.4 C751.8,124.4 752.1,127.6 752.7,130.6 C753.5,134.2 754.8,137.6 755.2,141.2 C755.4,142.6 755.4,143.9 755.8,145.3 C756.4,147.4 758,147.6 759.9,148.5 C764.9,150.8 778,157.4 778.2,157.5 L775.7,163.5 C775.3,163.4 775,163.3 774.7,163.2 C772.1,162.6 769.6,161.9 767,161.3 C762.7,160.2 758.7,158.4 754.3,157.4 C752.1,156.9 749.1,156.5 747.3,155 C746,153.9 745.7,151.8 744.9,150.3 C743.6,147.5 742.3,144.7 740.9,142 C740.3,140.7 739.6,139.3 739,138 C738.6,137.1 737.9,134.5 737.1,134 C736.9,133.9 736.8,133.8 736.7,133.7 C734.2,125.4 739.7,116.5 744.6,115.6" id="Path" fill="#FFFFFF" fill-rule="nonzero"></path>
            <path d="M821.8,162.7 C821.5,162.8 820.9,162.9 820,163.1 C820,162.7 819.9,162.3 819.9,161.9 C820.9,162 821.4,162 821.7,162 L821.8,162.7 Z" id="Path" fill="#24B7EA" fill-rule="nonzero"></path>
            <polygon id="Path" fill="#24B7EA" fill-rule="nonzero" points="804 162.6 802.1 162.8 803.3 165 804.6 164.9"></polygon>
            <path d="M810.1,164.5 L809.9,162.1 C810.1,162.1 810.4,162.1 810.6,162.1 L810.8,164.5 C810.6,164.4 810.4,164.5 810.1,164.5" id="Path" fill="#414142" fill-rule="nonzero"></path>
            <path d="M811.5,162 C814,161.9 816.4,161.9 820,161.8 C820,162.3 820.1,162.7 820.1,163.2 C816.6,163.7 814.2,164 811.7,164.3 L811.5,162 Z" id="Path" fill="#595A5C" fill-rule="nonzero"></path>
            <path d="M804.4,162.8 C804.4,162.8 804.3,162.4 804.7,162 C805.2,161.6 806.1,161.4 807.4,161.3 C810.1,161.2 813.3,160.8 813.4,160.8 C813.4,160.8 813,161.9 811.5,161.5 C810.6,161.6 806.6,162 806.6,162 C806.6,162 806.3,162 806.2,162.2 C806.1,162.3 806,162.4 806.2,162.7 C806.3,162.9 806.3,163 806.2,163.1 C805.8,163.4 804.8,163 804.4,162.8 L804.4,162.8 L804.4,162.8 Z" id="Path" fill="#595A5C" fill-rule="nonzero"></path>
            <path d="M810.9,164.4 L810.7,162 C811,162 811.3,162 811.6,162 L811.8,164.3 C811.4,164.3 811.1,164.4 810.9,164.4" id="Path" fill="#24B7EA" fill-rule="nonzero"></path>
            <path d="M804.1,165 C804,164.2 804,163.4 803.9,162.6 C806.3,162.4 808.2,162.2 810,162.1 L810.2,164.5 C808.4,164.7 806.5,164.8 804.1,165" id="Path" fill="#595A5C" fill-rule="nonzero"></path>
            <path d="M821.8,162 C821.9,162 822.1,162 822.2,162.1 C822.5,162.2 822.7,162.2 822.8,162.3 C822.7,162.4 822.5,162.5 822.3,162.6 C822.1,162.7 822,162.7 821.8,162.8 C821.8,162.5 821.8,162.2 821.8,162" id="Path" fill="#414142" fill-rule="nonzero"></path>
            <rect id="Rectangle" fill="#A7A9AB" fill-rule="nonzero" x="830.2" y="176.1" width="6.3" height="63"></rect>
            <rect id="Rectangle" fill="#A7A9AB" fill-rule="nonzero" x="819.1" y="175.8" width="6.3" height="38.5"></rect>
            <rect id="Rectangle" fill="#A7A9AB" fill-rule="nonzero" x="775.5" y="176.1" width="6.3" height="63"></rect>
            <path d="M791.8,156.3 C791.8,155.1 792.9,154.2 794.3,154.2 L821.1,154.2 C822.5,154.2 823.6,155.1 823.6,156.3 C823.6,157.5 822.5,158.4 821.1,158.4 L794.3,158.4 C793,158.4 791.8,157.5 791.8,156.3" id="Path" fill="#FFFFFF" fill-rule="nonzero"></path>
            <path d="M818.7,155.9 L796.7,155.9 C795.6,155.9 794.7,155.1 794.7,154.2 L820.7,154.2 C820.7,155.2 819.8,155.9 818.7,155.9" id="Path" fill="#EBF5FC" fill-rule="nonzero"></path>
            <path d="M794.4,157.4 L821.2,157.4 C822.4,157.4 823.3,156.7 823.6,155.8 C823.6,156 823.7,156.1 823.7,156.3 C823.7,157.5 822.6,158.4 821.2,158.4 L794.4,158.4 C793,158.4 791.9,157.5 791.9,156.3 C791.9,156.1 792,156 792,155.8 C792.2,156.7 793.2,157.4 794.4,157.4" id="Path" fill="#CCE5F5" fill-rule="nonzero"></path>
            <path d="M821.7,155.3 C821.7,156.4 822.6,157.2 823.6,157.2 C824.7,157.2 825.5,156.3 825.5,155.3 L831.7,121.3 C831.7,120.2 830.8,119.4 829.8,119.4 C828.7,119.4 827.9,120.3 827.9,121.3 L821.7,155.3 Z" id="Path" fill="#CCE5F5" fill-rule="nonzero"></path>
            <path d="M766.4,87.9 C766.4,87.9 755,91.6 753.2,101.4 C753.2,101.4 751.4,101.8 751.4,100.4 C751.4,99 755.2,87.5 764.1,84.9 C764,84.9 765.2,85.9 766.4,87.9" id="Path" fill="#3F3E3C" fill-rule="nonzero"></path>
            <path d="M753.1,100.7 C753.1,100.7 753.1,103.9 755.2,104.8 C757.3,105.7 759.7,106.4 759.7,106.4 L759.5,107.1 C759.5,107.1 756.9,106.5 755.1,105.8 C752.3,104.8 752.1,101 752.1,101 L753.1,100.7 Z" id="Path" fill="#3F3E3C" fill-rule="nonzero"></path>
            <path d="M759.7,107.4 L761.9,107.7 C762.4,107.8 762.8,107.4 762.8,107 C762.9,106.5 762.5,106.1 762.1,106.1 L759.9,105.8 C759.4,105.7 759,106.1 759,106.5 C758.9,107 759.2,107.4 759.7,107.4" id="Path" fill="#2D2D2A" fill-rule="nonzero"></path>
            <path d="M718.2,38.2 C717.9,36.2 716.4,34.7 714.4,34.3 C708.8,33.3 699.4,33.3 697.5,33.3 C695.6,33.3 686.2,33.3 680.6,34.3 C678.6,34.6 677.2,36.2 676.8,38.2 C676.5,39.9 676.3,41.5 676.2,43 C681.2,43 689.2,43.2 694.5,44.1 C697.9,44.7 700.4,47.3 701,50.7 C702.1,57.4 702.1,59.1 702.1,65.5 C702.1,66.3 702.1,67.4 702.1,68.9 L711.4,76.4 C712.1,76.8 712.7,76.6 713.1,76.2 C713.4,75.9 713.4,75.5 713.2,75 L710.7,68.2 C712.1,68.1 713.4,67.9 714.6,67.7 C716.6,67.4 718,65.8 718.4,63.8 C719.3,58 719.3,52.8 719.3,50.9 C719.1,45.3 719.1,44 718.2,38.2" id="Path" fill="#147ABF" fill-rule="nonzero"></path>
            <path d="M693.9,46.9 C687.6,45.8 677.1,45.8 675,45.8 C672.9,45.8 662.4,45.8 656.1,46.9 C653.9,47.3 652.3,49 651.9,51.2 C650.9,57.7 650.9,63.4 650.9,65.6 C650.9,67.7 650.9,73.5 651.9,80 C652.3,82.2 653.9,83.9 656.1,84.3 C656.9,84.4 657.8,84.6 658.8,84.7 L663.5,78.2 C663.7,77.8 664,78.1 664,78.1 L660,92.4 L660,92.4 L659.9,92.6 C659.9,92.9 659.9,93.2 660.1,93.5 C660.5,94.1 661.3,94.3 661.9,93.9 L675.9,85.4 C679.1,85.4 688.3,85.3 694,84.3 C696.2,83.9 697.8,82.2 698.2,80 C699.3,73.5 699.3,67.8 699.3,65.6 C699.3,59.1 699.3,57.7 698.2,51.2 C697.7,48.9 696,47.2 693.9,46.9" id="Path" fill="#90CBE8" fill-rule="nonzero"></path>
            <text id="?" fill="#FFFFFF" font-family="Helvetica" font-size="40.1224" font-weight="normal">
                <tspan x="667.6638" y="78.6835">?</tspan>
            </text>
            <path d="M591.9,141.4 C592,142.7 589.8,146 589.1,146.5 C588.4,147 587.7,149.6 587.8,150.2 C588.1,151.2 588.3,152 590.4,152.3 C592.5,152.6 592.6,153.2 593.7,151.6 C594.8,150 595.3,144.7 595.9,142.2 C596.6,139.7 591.9,141.4 591.9,141.4" id="Path" fill="#D8A899" fill-rule="nonzero"></path>
            <path d="M606,178.6 C605.9,179 605.6,179.3 605.2,179.2 L567.5,174.4 C567.1,174.3 566.2,173.3 566.3,172.9 L568.9,154.6 C569,154.2 569.3,153.9 569.7,154 L608,159.5 C608.4,159.6 609.2,160.2 609.2,160.6 L606,178.6 Z" id="Path" fill="#292B36" fill-rule="nonzero"></path>
            <path d="M606.7,179.2 C606.6,179.6 606.3,179.9 605.9,179.8 L567.6,174.3 C567.2,174.2 566.9,173.9 567,173.5 L569.6,155.3 C569.7,154.9 570,154.6 570.4,154.7 L608.7,160.2 C609.1,160.3 609.4,160.6 609.3,161 L606.7,179.2 Z" id="Path" fill="#151823" fill-rule="nonzero"></path>
            <path d="M579.8,156.5 C581.3,151.5 586.9,148.5 591.2,149.3 C596.7,150.3 600,154.9 600.2,159.1 C600.4,163.2 598.6,159.3 598.6,159.3 C598.6,159.3 597.2,151.4 591.1,150.9 C588,150.7 585.2,151.2 582.2,156.6 C580.9,158.6 579.8,156.5 579.8,156.5" id="Path" fill="#151823" fill-rule="nonzero"></path>
            <path d="M593.3,152.1 C593.7,151.3 594,149.4 593,149.3 C592.6,149.2 593.2,150.4 593,150.9 C592.6,151.5 592.1,152.1 592.1,152.1 C592.1,152.1 592.5,151.5 592.8,150.8 C593.2,150.1 592.7,148.7 592.4,148.6 C592,148.4 592.3,149.6 591.8,150.4 C591.4,151.2 591,152 591,152 C591,152 591.3,151.2 591.7,150.4 C592.1,149.4 591.9,148.2 591.5,148.2 C590.8,148.2 591.1,149.4 590.5,150.1 C590,150.8 589.6,151.4 589.6,151.4 C589.6,151.4 590.2,150.7 590.5,150 C590.8,149.2 590.8,148.5 590.6,148.4 C590.4,148.3 589.8,149 589.3,149.8 C588.9,150.5 588.5,151.2 588.5,151.5 C588.5,152.2 589.3,152.1 589.3,152.1 C589.3,152.1 589.9,152.9 590.8,152.7 C591.4,153.3 592,152.8 592,152.8 C592,152.8 592.2,153.2 592.7,153 C593.2,152.8 593.3,152.1 593.3,152.1" id="Path" fill="#CC9584" fill-rule="nonzero"></path>
            <path d="M592.3,142.2 C591.5,143.1 589.5,146.2 589.3,146.8 C589,147.4 589.7,148.3 589.2,150.6 C589,151.4 590,151.1 590.4,150.3 C590.8,149.4 591,148 591.3,147.1 C591.9,145.1 593,142.7 593,142.7 L592.3,142.2 Z" id="Path" fill="#D8A899" fill-rule="nonzero"></path>
            <path d="M600,116.1 C598.3,121.1 592,139.3 591.9,142.3 C591.8,145.3 595.3,143.2 595.3,143.2 C595.3,143.2 605.1,128.8 605.6,123.8 C606.1,118.7 600,116.1 600,116.1" id="Path" fill="#D8A899" fill-rule="nonzero"></path>
            <path d="M596.4,167.2 C594.3,171.4 591.9,188 592.2,192.4 C592.5,197.3 588.3,222.8 586.3,227.8 C585,231.1 580.6,238.7 574.9,239.3 C577.1,242 578.7,242.7 585.6,238.5 C588.1,236.9 592.8,234.7 593.9,233.3 C596.1,230.6 593.1,229.4 594.3,226.9 C596.8,221.5 604.4,203.6 603.4,193.5 C602.8,187.3 608,169.9 608,167.8 C608,165.7 596.4,167.2 596.4,167.2" id="Path" fill="#D8A899" fill-rule="nonzero"></path>
            <path d="M595.1,230.2 C596.1,231.3 596.2,233.4 595.2,235.5 C594.2,237.7 591.3,242.1 591.5,244 C590.2,244.1 590.3,243.8 590.3,243.8 C590.3,243.8 591.9,236.9 590.7,237.2 C589.5,237.5 586.8,240.8 584.5,242.8 C582.1,244.8 574.3,242.9 573.9,242.2 C573.6,241.5 573.4,239.2 575.3,238.8 C577.2,238.4 578.9,237.5 578.9,237.5 C578.9,237.5 583.4,239.7 585.9,237.1 C592,230.7 595.1,230.2 595.1,230.2" id="Path" fill="#212121" fill-rule="nonzero"></path>
            <path d="M607.9,177.4 C609,181.9 617.2,190.8 619.1,192.1 C621.1,193.5 634.9,214.8 636.6,221.3 C637.5,224.7 638.3,235.1 634.4,239.3 C637.8,239.9 639,239.4 643.3,230.8 C644.6,228.2 646.5,228 646.4,226.1 C646.2,221.9 644.1,223.4 641.9,217.8 C639.7,212.3 637.9,193.3 627.8,185.3 C622.9,181.4 623,172.7 621.6,171.1 C620.5,169.6 607.9,177.4 607.9,177.4" id="Path" fill="#D8A899" fill-rule="nonzero"></path>
            <path d="M644,221.1 C645.4,221.5 647.5,223.7 647.7,226 C647.9,228.4 648.9,233.2 649.9,234.7 C648.9,235.4 648.7,235.2 648.7,235.2 C648.7,235.2 645.6,228.3 644.7,229.1 C643.8,229.9 645,235.2 643.9,238.1 C642.8,241 635.1,243.3 634.4,242.8 C633.7,242.3 632.5,240.5 633.9,239.2 C635.4,237.9 636.4,236.2 636.4,236.2 C636.4,236.2 640.9,236.1 641.7,232.5 C642.6,229.1 644,221.1 644,221.1" id="Path" fill="#151823" fill-rule="nonzero"></path>
            <path d="M614.1,130.1 C615.2,134 620.2,139.8 620.2,147.3 C620.2,154.8 633.2,172.7 638.1,180.7 C630.9,180.7 622.4,189.1 616.2,189.7 C614.7,189.9 612.2,189 610.8,189.1 C598.4,189.3 588.9,185.6 588.9,185.6 C588.9,185.6 591.4,145.2 595.5,131.3 C607.5,130.4 614.1,130.1 614.1,130.1" id="Path" fill="#275A38" fill-rule="nonzero"></path>
            <path d="M607.5,60.1 C611.8,61.3 614.5,68.1 614.5,71.4 C614.5,74.7 618.2,91.9 625.5,90.6 C625.5,90.6 618.4,93.1 616.8,87.8 C620,93.3 621.8,93 624.1,92.6 C622,95.6 618.1,97.4 616,96 C613.9,94.6 607.7,92.5 605,82.3 C602.4,72.1 603.8,69.5 605.7,65.8 C607.6,62.1 607.5,60.1 607.5,60.1" id="Path" fill="#683328" fill-rule="nonzero"></path>
            <path d="M597.1,92.7 C597.2,93.6 592.1,105.2 592.1,105.2 L594.4,104.8 L597.6,93.3 L597.1,92.7 Z" id="Path" fill="#3A8835" fill-rule="nonzero"></path>
            <path d="M600,87 C598.4,88.1 595.7,90.9 595.7,90.9 L597.4,96.7 L601.3,89.2 L600,87 Z" id="Path" fill="#3A8835" fill-rule="nonzero"></path>
            <path d="M612.2,90 C611,87.2 606.1,81.2 605.3,67.7 C605,62.1 593,80.7 593,80.7 C596.2,82.3 599.3,86.6 598.5,91.1 C595.8,99.4 593.6,104.5 594.1,104.3 C592.5,109.1 613.2,90.8 612.2,90" id="Path" fill="#D8A899" fill-rule="nonzero"></path>
            <path d="M605,89.4 C603.6,90.4 600,92.5 600,92.5 C598.7,95.7 595.9,98.5 591.3,105.7 C590,107.7 591.1,112.6 592.8,113.6 C594,114.3 593.2,121.8 593.2,123.3 C593.1,134.2 595.3,132.4 595.3,132.4 C595.3,132.4 612.1,131.6 614,131.2 C622.6,129.3 613.9,118.2 614.5,103.7 C614.7,99.3 616.6,95.7 614.5,91.3 C613.4,89.8 611.9,88.6 609.9,86.3 C607.2,87.4 607.2,87.9 605,89.4" id="Path" fill="#3A8835" fill-rule="nonzero"></path>
            <path d="M589.3,77.2 C589.3,76.7 590.3,75.6 590.5,72.6 C590.5,71.9 589.9,70 589.9,69.8 C589.8,62.5 592.9,59 598.8,58.9 C604.6,58.8 605.8,61.3 605.8,68.6 C605.9,75.9 603.2,80.8 601.4,82 C600.3,82.7 594.8,84.3 593.6,83.5 C592,82.5 591.5,81.1 591.1,78.5 C590.4,78.5 589.3,78.2 589.3,77.2" id="Path" fill="#D8A899" fill-rule="nonzero"></path>
            <path d="M593.9,101.6 C595.4,99.9 599,94.2 600.3,91.9 C601.1,90.5 601.6,91.7 601.6,91.7 L593.9,101.6 Z" id="Path" fill="#FFFFFF" fill-rule="nonzero"></path>
            <polygon id="Path" fill="#FFFFFF" fill-rule="nonzero" points="601.4 95.3 598.7 90.5 608.4 83.6 610 85.8"></polygon>
            <path d="M608.3,80.1 C607.8,77.6 609.4,77.4 608.4,76.6 C610.7,74.3 613.2,70.3 611.4,64.6 C609.2,57.8 600.5,56.9 594,59.8 C592.6,60.4 591.8,61.5 591.5,62.3 C588.3,64.5 591.4,64.7 592.3,66.2 C594.6,70 599,71.2 599.3,71.8 C599.5,72.4 601.6,69.9 602.6,71.1 C603.2,71.9 603.2,72.9 602.9,73.7 L602.8,73.7 L602.8,73.9 C602.5,74.7 602.1,75.3 602.1,75.3 L602.3,75.6 C601.8,76.5 601,79.8 602.2,81 C604,82.9 604.3,81.1 604.2,82.9 C604,84.7 603.3,84.9 604.8,86.4 C606.3,87.9 606.4,87.3 605,90.4 C603.6,93.5 605.5,93.2 606.4,94.4 C605.9,93.6 603.8,89.8 608.5,89.6 C610.2,89.5 610.5,88.9 610.4,85.6 C610.3,82.2 608.9,83.4 608.3,80.1" id="Path" fill="#683328" fill-rule="nonzero"></path>
            <path d="M612.2,90 C614.8,89.9 617.3,92.4 618,94.6 C618.7,96.8 617.9,104.9 616.4,106.2 C614.9,107.4 608.1,105.6 607.1,105.1 C606.1,104.6 608.3,94.4 609.1,92.6 C609.8,90.9 612.2,90 612.2,90" id="Path" fill="#3A8835" fill-rule="nonzero"></path>
            <path d="M606.3,74.6 C606.5,74.9 606.5,75.2 606.2,75.5 L596.8,83.9 C596.5,84.1 596.2,84.1 595.9,83.8 L592.4,79.8 C592.2,79.5 592.2,79.2 592.5,78.9 L602,70.5 C602.2,70.3 602.6,70.3 602.9,70.5 L606.3,74.6 Z" id="Path" fill="#151823" fill-rule="nonzero"></path>
            <path d="M601.5,76.8 C601.5,76.8 601.2,76.2 600.8,75.2 C600.6,74.5 600.3,74.2 599.9,73.9 C599.5,73.4 598.9,73.3 599.3,74 C599.7,74.8 599.8,75.1 600,75.5 C600.2,76.2 600.2,77.2 600.2,77.2 C600.2,77.2 599.6,76.1 599.3,75.3 C599.1,74.7 598.4,74 598.2,73.8 C597.7,73.3 597.4,73.6 597.6,74.1 C598.1,75 598.5,75.6 598.5,75.6 L599,77.9 C599,77.9 597.8,73.9 597,74.1 C596.6,74.2 597,74.6 597.4,76.1 C597.9,77.6 597.8,78.2 597.8,78.2 C597.8,78.2 597,75.6 596.7,75 C596.5,74.5 596.1,74.4 596.2,75.5 C596.3,76.6 596.8,77.7 596.8,78.7 C596.8,81.1 598.3,85 598.3,85 C600.1,94.2 605.4,108 607.4,109.8 C607.4,109.8 610.2,112.5 611.6,112.1 C613.9,111.4 613.7,104.7 613.7,104.7 C611.8,99.8 604.7,89 602.1,84.3 C602,83.5 603,81.8 603.2,79.8 C603.2,79.8 603.5,77.9 603.6,77.7 C602.9,78.3 602.3,78.7 602.3,78.7 L601.5,76.8 Z" id="Path" fill="#CC9584" fill-rule="nonzero"></path>
            <path d="M612.4,111.3 C613.2,110.8 616.5,103.6 616.5,101.8 C616.5,100.1 613.9,94.9 609.4,96.2 C607.8,96.6 609.8,102.3 609.5,102.7 C609.3,103.1 612.4,111.3 612.4,111.3" id="Path" fill="#CC9584" fill-rule="nonzero"></path>
            <path d="M257.4,53.9 C261.7,53.9 265.1,50.5 265.1,46.2 C265.1,41.9 261.7,38.5 257.4,38.5 C253.1,38.5 249.7,41.9 249.7,46.2 C249.7,50.5 253.2,53.9 257.4,53.9 L257.4,53.9 Z" id="Path" fill="#0068B3" fill-rule="nonzero"></path>
            <path d="M359.6,34.1 C361.2,34.1 362.5,32.8 362.5,31.2 C362.5,29.6 361.2,28.3 359.6,28.3 C358,28.3 356.8,29.6 356.8,31.2 C356.8,32.8 358.1,34.1 359.6,34.1 L359.6,34.1 Z" id="Path" fill="#0068B3" fill-rule="nonzero"></path>
            <path d="M305.6,38.4 C309.3,38.4 312.3,35.4 312.3,31.7 C312.3,28 309.3,25 305.6,25 C301.9,25 298.9,28 298.9,31.7 C298.9,35.4 301.9,38.4 305.6,38.4 L305.6,38.4 Z" id="Path" fill="#0068B3" fill-rule="nonzero"></path>
            <polygon id="Path" fill="#0068B3" fill-rule="nonzero" points="255.9 46.9 305.7 32.3 359.1 31.3 359.1 29.9 305.5 31 255.5 45.6"></polygon>
            <polyline id="Path" fill="#0068B3" fill-rule="nonzero" points="306 31.6 313.8 6.5 312.5 6 304.7 31.2"></polyline>
            <path d="M313.4,10.2 C316,10.2 318.1,8.1 318.1,5.5 C318.1,2.9 316,0.8 313.4,0.8 C310.8,0.8 308.7,2.9 308.7,5.5 C308.7,8.1 310.8,10.2 313.4,10.2 L313.4,10.2 Z" id="Path" fill="#0068B3" fill-rule="nonzero"></path>
        </g>
    </g>
</svg>