<svg enable-background="new 0 0 1200 400" viewBox="0 0 1200 400" xmlns="http://www.w3.org/2000/svg" xmlns:xlink="http://www.w3.org/1999/xlink"><filter id="a" height="149.3%" width="106.6%" x="-2.7%" y="-22.8%"><feMorphology in="SourceAlpha" operator="dilate" radius="6" result="shadowSpreadOuter1"/><feOffset dx="7" dy="3" in="shadowSpreadOuter1" result="shadowOffsetOuter1"/><feGaussianBlur in="shadowOffsetOuter1" result="shadowBlurOuter1" stdDeviation="6"/><feColorMatrix in="shadowBlurOuter1" type="matrix" values="0 0 0 0 0   0 0 0 0 0   0 0 0 0 0  0 0 0 0.139690897 0"/></filter><path d="m.7 0h1200v400h-1200z" fill="#007bc7"/><g filter="url(#a)"><path d="m0 239.8v160.4h1200v-160.4z"/></g><path d="m0 239.8v160.4h1200v-160.4z" fill="#007bc7"/><path d="m883.6 72.2c-1.5-.4-3-.6-4.5-.6-2.8 0-5.4 1.4-8.5 4.8v-4.6l-5.2.5v39.1h5.3v-30.1c3-3.1 5.1-4.4 7.7-4.4 1.5 0 3.1.2 4.5.6zm-52.2 14.6c.8-6.9 5.2-10.8 10.2-10.8 5.9 0 9.1 3.4 9.1 10.8zm-5.7 5c0 14 7.1 20.1 17.7 20.1 4.4.1 8.7-.8 12.7-2.7l.1-5c-3.8 1.8-8 2.7-12.2 2.7-7.4 0-12.9-4.8-12.7-15.5h25.3c.1-1.6.1-3.1.1-4.4 0-10.3-5.4-15.7-14.8-15.7-8.8.1-16.2 7.1-16.2 20.5zm-25.9-15.2h4.8v23.2c0 9.4 4.8 12.1 10.3 12.1 2.2 0 4.5-.3 6.6-.9v-4.6c-1.8.4-3.6.6-5.4.6-3.6 0-6.2-2.3-6.2-7.4v-23h10.3v-4.5h-10.3v-7.7l-5.3.9v6.9h-4.8zm-30.3 10.2c.8-6.9 5.2-10.8 10.2-10.8 5.9 0 9.1 3.4 9.1 10.8zm-5.7 5c0 14 7.1 20.1 17.7 20.1 4.4.1 8.7-.8 12.7-2.7l.1-5c-3.8 1.8-8 2.7-12.2 2.7-7.4 0-12.9-4.8-12.7-15.5h25.3c.1-1.6.1-3.1.1-4.4 0-10.3-5.4-15.7-14.8-15.7-8.9.1-16.2 7.1-16.2 20.5zm-12.4-.6c0 10.9-6.1 15.9-13.9 15.9-2.4 0-4.7-.1-7.1-.5v-27.9c2.8-1.4 5.8-2.1 8.9-2.1 7.4 0 12.1 4.3 12.1 14.6zm5.6-.6c0-12.8-6.6-19-16.1-19-3.7 0-7.3.8-10.5 2.6v-19.1l-5.3.5v55.4c3.8.6 7.7.9 11.5.9 12 0 20.4-7.7 20.4-21.3zm-44.2-32.1h-9.7v52.9h9.7zm-38 34.4h8.1v10.8c-2 .2-4.1.3-6.1.3-9 0-16.4-6.1-16.4-18.5 0-12.7 7.6-19.1 18.1-19.1 3.9 0 7.7.2 11.5.8l.7-8.2c-3.9-.8-7.9-1.1-11.9-1-16.1 0-28.6 9.1-28.6 28.5 0 16.9 10.6 25.5 26.2 25.5 5.3 0 10.7-.5 15.9-1.5v-25.5h-17.5zm-34.4-34.4h-9.7v52.9h9.7zm-52.7 8h4.8c11.4 0 18.3 6 18.3 17.4 0 13.8-6.9 19.5-17.6 19.5h-5.6v-36.9zm5.2 44.9c17.3 0 28.1-8.9 28.1-28 0-16-9.9-24.9-27.8-24.9h-15.2v52.9zm-63.4 0h28v-8h-18.3v-44.9h-9.7zm-27.9 0h15.2v-52.9h-9v42.7h-.3l-15.6-42.7h-15.2v52.9h9v-42.7h.3z" fill="#d9ebf7"/><g fill="#8fcae7" transform="translate(911 25)"><path d="m59 58.1c-7.4-.5-13.9 5-14.4 12.5s5 13.8 12.4 14.4 13.9-5 14.5-12.4c.5-7.5-5.1-14-12.5-14.5"/><path d="m61.5 28c-15.2-1.1-30 5.4-39.4 17.5-2.2 2.8-1.7 6.9 1.1 9 2.8 2.2 6.9 1.7 9-1.1 6.5-8.4 16.6-13.1 27.1-12.6s20.2 6 26 14.9c1.9 3 5.9 3.8 8.9 1.9s3.8-5.9 1.9-8.9c-7.6-12-20.4-19.6-34.6-20.7"/><path d="m63.6.3c-21.2-1.6-45.2 8-61.2 24.5-2.5 2.6-2.4 6.6.2 9.1s6.6 2.4 9.1-.2c13.4-13.9 33.4-22 51-20.7 18.2 1.4 32.7 9.1 43 22.9 2.1 2.8 6.1 3.4 9 1.3 2.8-2.1 3.4-6.1 1.3-9-12.7-16.8-30.3-26.2-52.4-27.9"/></g><path d="m36.6 323.5c9.4-2.6 19-4 28.8-3.9 12.9 0 19.8 4.5 19.8 11.4 0 6.3-3.7 10.4-14.3 15.9l-14.3 7.3c-13.9 7.1-22.8 17.1-25.5 28.6l3.5 17.5h80.2v-20.3h-60.7v-.4c4.1-5.3 9.4-9 15.9-11.8l13.1-5.5c16.5-6.9 25.7-18 25.7-32.2 0-19.6-13.7-31.8-40.4-31.8-10.8.1-21.5 1.6-31.8 4.5z" fill="#d9ebf7"/><path d="m470 301.1h1.5v1.5h-1.5z" fill="#cf9f94"/><g transform="translate(313 260)"><g fill="#92d2f4"><path d="m55.7 60.5c-33 7.4-48.3 13.8-53.1 27.7-1.9 5.8 2.7 40.6 11.2 41.9s46.4-22.7 49.2-36.9c3.2-16.2-7.3-32.7-7.3-32.7"/><path d="m.8 90c.6-3 4.3-14.9 17.1-6.1 2.6 4.4 3.6 30.2 2.6 35.6-.9 5.1 2.7 12-6.7 10.7-9.4-1.4-14.1-34.6-13-40.2"/><path d="m19.5 90.8c10-12.2 31.8-22.9 35.8-24.2 3.9-1.3-2.6-4.2-7.4-3.9-17.1 1.2-39.7 9.4-44 22.5-4.4 13 15.6 5.6 15.6 5.6"/><path d="m287.7 57.1c33.1 7.4 54.2 14.8 59 28.7 1.9 5.8-4.4 39.6-12.9 40.9s-50.5-22.7-53.3-36.9c-3.3-16.2 7.2-32.7 7.2-32.7"/><path d="m348.5 87.6c-.6-3-2.2-15-15-6.1-2.6 4.4-5.3 29.1-4.4 34.5.9 5.1-4.8 12 4.7 10.7s15.9-33.4 14.7-39.1"/><path d="m334 88.5c-10-12.2-41.9-24-45.8-25.3s10.6-2.9 15.4-2.9 37.6 9.4 41.9 22.5-11.5 5.7-11.5 5.7"/><path d="m20.6 137.9c-3.5 1.7-2.7 11.3-2.7 18.3s5.3 17.6 8.8 17.6 299.1.7 299.1.7 15.3-3.5 8-36.1c-3-14.2-313.2-.5-313.2-.5"/><path d="m336 118.3c-.8 4.1 2.5 25.7-4 26.3s-154.5 7.8-155.2-2.6-3.9-24.1 2-25.5c5.8-1.3 157.2 1.8 157.2 1.8"/><path d="m16.4 118.3c0 7-4.3 28.7 7 28.7s148.4 2 150.1-2.4 6.3-25.4.2-29.8-157.3 3.5-157.3 3.5"/><path d="m41 99.1c-6-2.6 2-23.2 1.3-29s-4-23.2-2-29.7c2-6.4 72.1 1.2 78.7 2.5 0 0 50.2-6.3 54.2-6.3s7.5 18 4.2 34.1c-1.1 5.2 1.8 24.6-1.6 26.5-2 1.2-23.6.9-43.2.7-13-.2-25.1-.3-29.9-.1-11.1.6-61.7 1.3-61.7 1.3"/><path d="m178.7 99.1c-6-2.6-2.6-24.2-3.2-30-.7-5.8.6-22.2 2.6-28.7 2-6.4 83.6-1.8 90.2-.5 0 0 38.6-5.1 42.6-5.1s2.4 19.7-1 35.9c-1.1 5.2 4 24.5.7 26.4-2 1.2-13.3.9-24.6.7-7.5-.2-15-.3-19.8-.1-11.2.7-87.5 1.4-87.5 1.4"/></g><path d="m49.8 96.4c-8.7-.7-33.5 11.9-33.4 21.9 0 3.5 41.9 2.6 59.3.9 7.8-.8 27.4 0 46.9.8 23.9 1 47.8 2 50.2 0 4.3-3.5 13.7-23.1 3-22.9-17.8.5-122.4-.4-126-.7" fill="#719dd4"/><path d="m304.1 95.9c8.7-.7 32.6 11.5 31.9 22.3-.2 3.5-41.7 3.5-59.1 1.7-7.7-.8-27.2-.2-46.8.4-24.5.8-51.3 1.6-53.8-.4-4.4-3.5-7.3-23.5 3.5-23.3 10.8.5 113.7.2 124.3-.7" fill="#719dd4"/><path d="m139.4 141.1c2.6 6.5 6 22.3 4.3 25-1.6 2.7-6.6 8.4-7.9 9.2-1.3.7 1.3 2.4 3.8 2.4s14.9-3.6 16.1-3.6c1.3 0 3.4-3.1 3-4.3-.4-1.3-1.2-2.4-2.8-5.4-2.8-5.3-4.2-25.1-4.2-25.1z" fill="#dba89d"/><path d="m246 32.4c1.9-3.2 7.3-4.9 9.4-5.1 9.2-.9 18.9-.5 19.9 3.5 1.1 4-5.6 11.5-5.6 11.5z" fill="#25377c"/><path d="m254.7 42.6-8.6-8.7s4.4 0 6.7-3.3c1-2.4 1.5-1.9 1.4-5.6l15.2-1.1c.3 8.8 4.7 9.2 4.7 9.2l-2.2 11.5z" fill="#cf9f94"/><path d="m250.9 20c.2 4.5.4 9.2 2.6 11.7 1.3 1.5 5.8 4.7 7.1 4.9 2.8.4 6.2-2.1 9.2-4.7 2.4-2.1.9-4.5 2.2-9.7 1.8-7.3-.2-15.6-9.6-16-14.3-.5-11.8 6.4-11.5 13.8" fill="#dba89d"/><path d="m251.7 16.3c-1.2-.2-4.3-.7-4.4.9s3.3 8 4.6 7.9c1.2-.2-.2-8.8-.2-8.8" fill="#dba89d"/><path d="m272.4 17.2c1.7-.7 3.2-.2 2.3 2-1 2.2-3.3 6.3-3.8 5.6-.4-.7 1.5-7.6 1.5-7.6" fill="#dba89d"/><path d="m265.3 12.5c6.3-2.8 8.1 1.9 6 7.1 1-.8 1.9-1.7 2.7-2.7 0 0 .1-.5 1-4.5.6-2.6-4.5-13.1-10.5-10s.8 10.1.8 10.1" fill="#b0b6c4"/><path d="m268.9 12.1c-1.4 1.5-6.7 4.2-8.5 2.9-3.1-2.3-7.1-3.7-7.9-2.7-1.8 2.3-.7 7.8-.7 7.8l-1.6-2.8c-.2-.7-.8-1.1-1.6-1.1-.4.1.5-1 .3-6.5-.2-6 11-11 14.6-9.1 2.6 1.4 5 1.4 5.1 4.3.1 2.8.3 7.2.3 7.2" fill="#b0b6c4"/><path d="m283.7 38c-9.2-5.6-10.8-6.5-10.8-6.5s.6 2.7-4.1 6.2c-1.9 1.5-4.3 2.3-6.7 2.3-10.4-.6-10.9-8.8-10.9-8.8s-2.4 1.1-12.4 4.7c-3.8 1.4-1.3 4.5-1.6 8.8-.2 3.3 1.4 13.5 2.3 17.2s2.5 15.5 2.1 22.1c-.2 3.7 40.1 2.1 40.2 1.2 1.7-17.6 6.4-44.5 1.9-47.2" fill="#fff"/><path d="m275.7 33c1.3 4.5-1.6 11.8-4.9 19.8-3.2 7.8-6.1 13.4-5.2 17.7 1.9 9-.6 35.2-.2 37.9 4.7.7 35.4-.8 37.5-2.2 2-1.4-5.7-10.3-7.6-23-1.5-10.3-4.1-12.9-3.1-17.9 1-5.1.8-24-1.5-26.1-4.2-3.8-9.5-6-15-6.2" fill="#3653a1"/><path d="m259 104.7c3.4-1.3 8.2-22.2 7.1-33.4-1-11.1-19.2-35.7-17.8-40.7-9.7 5.3-15.8 6.3-18 9.7 1 7.1 5.7 17.4 4.4 19.8.7 6.1-2.6 22.4-3.9 27.8s-5.6 20.4-4.6 21.9c2 1.1 27.4-3 32.8-5.1" fill="#25377c"/><path d="m265.2 68.4c-.2-6.2-14-27.8-15.2-37-.1-.8 0-1.6.3-2.4 0 0-8.9 4.1-11 4.5 1.2 1.3 6.8 1.7 10.6 9.8 3.9 8.5 15.3 25.1 15.3 25.1" fill="#3653a1"/><path d="m264.8 66.5c.3-1.7 11-22.5 8.8-37.7 0 0 9.4 4.8 10.6 4.8 0 0-6.2 2.3-7.9 7.1-1.7 4.9-11 27.2-11 27.2z" fill="#25377c"/><path d="m241.4 85.2c-11.3 8.8-8.8 18.3-9.8 24.8-1.1 6.6 18.2 5 18.2 5l14.1-2.9c3.9 0 12.4 2.6 17.6 2.6 5.3 0 17.8.9 16.8-4.6s-8.4-23.4-13.7-24.8-43.2-.1-43.2-.1" fill="#151823"/><path d="m288.5 38c6.3-1.6 9.9 15.6 18.3 29.3 4.5 7.4 2.7 13.3-3.8 18.5-1.6 1.3-13.9-4.4-13.9-4.4l3.3-12.1-4.6-12.6z" fill="#25377c"/><path d="m232.1 39.3c-4-.7-16 33.3-14.5 41 1.8 9.2 15.8 6.9 15.8 6.9s4.9-6.9 6.2-13.8l3.5-12.1z" fill="#25377c"/><path d="m281.2 88.7c-5.1 2.4-7.6 6.6-7.6 9s.9 7 1.3 10c.3 3.1-.4 45-.8 48.4.1-1.6.8-3 2-4s2.7-1.5 4.3-1.4c0 0 7.3-46.4 5.2-52.8-2.1-6.5-4.4-9.2-4.4-9.2" fill="#2b2d31"/><path d="m280.6 90.4c-3.4-3.6 15.2-4.4 18.8 10.8 2.3 9.9-1 50.3-3.6 60.5-5.6-10.2-15.6-11-18.6-9.3 1.9-24.1 8-57.3 3.4-62"/><path d="m249.8 88.9c5 .9 8.5 6.2 8.5 8.5 0 2.4-.8 6.5-1.1 9.6-.4 3 .4 45 .8 48.4-.3-3.3-3.2-5.7-6.4-5.4 0 0-7.5-46.4-5.4-52.8 2-6.5 3.6-8.3 3.6-8.3" fill="#2b2d31"/><path d="m250.8 90.6c3.5-3.6-15.2-3.6-18.8 11.6-2.4 9.9.9 48.6 3.5 58.7 5.7-10.2 16-11 19.1-9.3-3.7-22.8-8.5-56.2-3.8-61"/><path d="m234.9 73.3s9.5.2 10.6.3 1.3.5 3.2 2c1.4 1.1 1 1.9-.6 1.2-1.4-.6-2.4-1.1-2.4-1.1l-2.5-.4s3.1 1.6 3.6 1.8 2.1 2.1 2.7 2.4c.9.5 1 2-.6 1.4-1.5-.5-2.2-1.6-3.2-2.1-1.1-.4-2.3-.7-3.5-.9 2.7 1.3 6 3 6.6 3.8.6.9-1.1.8-2.7 0-1.3-.6-2.7-1-4.1-1.4l3.9 2.5s1.2 1.3-1.3.4c-4.9-1.6-8.4-2.1-9.3-2.4-8.6-2.4-4.4-4-.4-7.5" fill="#dba89d"/><path d="m227.6 82.2c0-4.2-1.2-8.2 4.3-11 2.5.5 4.3 1.1 4.3 1.1s-3.4 1.1-4.1 12.2z" fill="#3653a1"/><path d="m234.9 44.1c1 2.9 2.2 8.5 2.1 11.3s-.6 13.2-1.5 13.2-7.8 1.6-10.3 4.1 2.1-4.4 5.1-5c-3.2 1-4.6 1.8-5.3 1.9-1.1.1 2.4-1.8 4.3-2.8s2.9-4.8 3.8-12.9 1.8-9.8 1.8-9.8" fill="#3653a1"/><path d="m289.9 89.3c-.1.4-.5.8-.9.7l-51 .4c-.5 0-.9-.3-1-.7l-4.2-35.3c0-.2.1-.5.2-.7s.4-.3.6-.3l57.9-.8c.2 0 .5.1.7.2.2.2.3.4.3.7z" fill="#bec4d3"/><path d="m299.2 74.7c.7-1.1-1.1-4.1-1.9-6.5 0 0-6.5-3.8-11.7-4.5-1.2-.1-2 .2-4.6.6-1.9.3-2.1 1.5-.2 1.7 1.1.1 2.3 0 3.4-.1l2.7.6s-2.2-.2-2.8-.3c-.6 0-3.6.6-4.4.6-1.1 0-1.8 1.3-.1 1.6 1.2.2 2.5.2 3.7.1 1.3.1 3.5.5 3.5.5-2.6-.1-6.3-.6-7.3-.1s-.7 1.8 1.2 1.6c2-.2 4 0 5.8.6l-4.8-.4s-1.8.8.5 1.3c5.8 1.2 10.2 3.1 12.1 2.9 1.7 0 4.3.6 4.9-.2" fill="#dba89d"/><path d="m299.3 79.6c1.1-1.9 2.4-10.2 0-12.9-2.8-.9-3.6 0-3.6 0s.5 9.4-1.8 11.2z" fill="#3653a1"/><path d="m152.7 65.1c-1.8 4.9-7.4 14.8-8.3 15.4-1.5.9-6.6 1.4-11.3 1.2-2.8-.1-5-.1-6.9-.1-4.9.2-9.8-.4-14.5-1.7-.5-.1-.6-6.5-.6-6.5 10.5-.9 23.7-3.5 24.2-3.7 1.4-.4 10-22.5 12.9-23.7 3-1.2 4.5 19.1 4.5 19.1" fill="#dba89d"/><path d="m136.6 91.5c-7.6 2.2-9.7 8.6-10 13.8s11.7 45.6 12.4 57.5c10.2 5.8 20.6-5.1 20.6-5.1-3.1-14.9-7.5-29.6-13-43.8-3-7.4 42.4-1 47.6-.8 5.2.3-.6-23.5-4-26.3s-23.7-9.4-23.7-9.4l-2.4 11z" fill="#fff"/><path d="m161.9 50.6c-2.7.5-8.9-5-8.6-5.7 1.7-4.9-.5-11-2.1-12.9l7.8-16.1c1.5 2.3 7 9.7 10.6 11.9 2.6 1.6 5.3 3 8 4.3 0-.1 4.8 14.3-15.7 18.5" fill="#d59a88"/><path d="m157.8 42.1-.3-.1c.1-.1.2-.1.3-.2z" fill="#cf9f94"/><path d="m162.5 22.3c-2.2 0-7.1 6.4-7.1 6.4l-2.6 6.2c.5 1.2.8 2.5 1 3.8.1.5.1 1.1.2 1.6l16.1 7.6c1.2-.6 2.3-1.3 3.3-2.2l1.6-14.1s-2.9-1.9-5.8-4.1l-.7-.5c-1.9-1.3-3.7-2.7-5.3-4.4-.1-.2-.4-.3-.7-.3" fill="#cf9f94"/></g><g transform="translate(369 189)"><path d="m112 166.6c-9.7 2.2-13.8 6.8-21.7.9-1.6-1.2 1 3 1.8 5 1.6 4.5-3.6-.1-5.3-1.5s5.1 4.7 5.1 4.7c-2.6-.4-5.2-1-7.7-1.8-3-1 5.8 4.6 5.8 4.6s1.7 1.6-4.5 2c-1.9.1 11.2 21.4 7.6 46.1l-1.6 9s12.7-3.8 12.4-7.6c-.3-3.7-7.9-35.2-10.5-43.6-1.4-4.6 17.7-2.8 18.2-4.1.3-1.2.4-13.7.4-13.7" fill="#dbe0e5"/><path d="m104.1 163.7c-8 1.6-10.7 12.1-8.5 17.3 2 4.8 8.5 34.6 11.4 51.3 11.3 1.3 17.2-3 17.2-3s-4.8-23.1-7.4-47.9c-.2-1.6 2.2-.4 6.6.7 7.2 2 14.8 2 22.1 0 11.7-3 6.1-17.6-1.9-21.9-3.8-2.1-4.5 1.1-4.5 1.1z" fill="#fff"/><path d="m144.2 160.6c2.1 4.1 2.6 14.1-1.5 16.3-4 2.1-17.8-1.4-22.2-3.8-3.8-2.1-7.9-8.4-7.7-5.4s5.6 10.4 4.3 8c-.3-.5-8.4-4.9-8.4-4.9s5.4 4.4 4.7 6-4.1.2-5.1-.2 4.7 3.2 4.7 3.2l-4.8 3.3s6.6.8 5.2 3.4 10.8 37.7 8.8 40.4c-3.3 4.5-3.6 3.9-7.9 5.2-1.1.3 13.6-3.8 13.6-3.8-.6-14-3.3-27.8-8.1-41-1.4-3.8 5.8-3.1 9.9-2 4 1.1 23.6 3.8 24.8-9 .7-7.1-1.9-14.1-7.1-19z" fill="#dbe0e5"/><path d="m105.1 151.1c-3.1-4.2-6.9-10.2-8.6-13-2.5-4.1-5.8-13.9-8.1-19.3.8-4.7 5.7-8.5 5.7-8.5s.3 4 8.5 4.6c4.6.3 11.3-7.3 12.9-10.8 1.8-4.2 0-5.2.6-5 3.3 1.1 14.7 6.6 14.7 6.6s9.2 5.3 11.8 15c.6 2.2 5 16.8 13.4 46.4.4 1.4-6.6 4.7-18.3-1.7-13.4-11.2-31.5-6.4-31.5-6.4-.1-2.8 1.8-4-1.1-7.9" fill="#151823"/><path d="m116 99.1c1.3.7 17.7 3.6 21 8.8 2.9 4.6 10 24.1 11.5 33.5 2.5 10.7 8 22.1 6.2 23.8-2.5 2.3-15.1-4.7-14.4-4.7.6 0 1.5 1.4 0 0-.4-.4.6 2.5-2.4-1.8-2.3-3.3-1-.3.5-.5 3.2-.2 6.1-2 7.8-4.7-.2-5.5-3.2-18-5.3-23.6-3.3-8.9-8.9-15.4-11.2-19.1s-11-5.1-14.7-5.3" fill="#2b2d31"/><path d="m101.8 136.8-9.8-27.6c-4.8 1.6-5.3 4-7.2 12.2-1.3 5.5-2.1 9.8-3.8 13.8-1 2.3 14.1 11.2 14.1 11.2z" fill="#151823"/><path d="m84.1 98.7c7.2 12.1 9.2 10.3 13.4 8.4 2-1 3.7-2.4 5-4.2 3-4.7 3.8-10.5 2.2-15.9-2.7-7.8-9.8-12-16.8-8.3-7.7 4-10.2 10.3-6.1 16.1" fill="#dba89d"/><g fill="#ce926a"><path d="m82.5 83.8c2.6 3.6 9.4-.3 12.1-.4 1.9.1 3.8.9 5.1 2.3.2.3.3-.3.6-.9s.7-1.3 1.7-.9c1.9.8 2.7 5.4 2 6.1-.4.4 1.7 5 3.1 6.2 1.2 1.1 6.1-4.9 6.1-4.9s-4.1-.7-6.9-9.8c-3-9.8-15.7-11.7-22.6-6-5.4 4.4-1.2 8.3-1.2 8.3"/><path d="m83.1 80.5c.3 1.7.8 3.3 1.5 4.9-4.2 1.6-4.8 6.7-2.8 9.5.8 1.2 1.6 2.5 2.3 3.9 0 0-2.7-2.9-3.3-3.6-.7-.7-3.9-3.8-3.6-7 .2-1.6-2.8-9.6 5.8-12.1.6-.4-.2 1.9.1 4.4"/><path d="m90.3 100.4c-1.6.9-2.7 2.3-2.5 3.9.2 1.1.7 2.2 1.5 3.1 0 0-.7-2.5.6-2.9.6-.2 1.1-.6 1.4-1.2z"/><path d="m90.3 100.4c.9-.5 3.9-.4 5 .1s1.6 3.7 1.6 3.7-1.6-1.6-2.9-1.3c-.9.2-1.8.3-2.7.3z"/><path d="m93.3 105.1c-1.2.9-4.3 0-5.3-1s3.2 8.5 4.1 9.4c.9.8 5.7 2.8 5.9 2.1.1-.7-4.7-10.5-4.7-10.5"/><path d="m104.5 90.2c1.1 2.2 3.2 7.7 3.6 9.1.4 1.3-2 8.3-2.9 10.1s-7.5 6.5-7.5 6.5l-5.2-10.5s4.2-2.1 4.9-3.3 4-5.5 4.4-8.5-1.9-6.2-2-7.2c0-1 1.9.7 2.6 3 .3.9 2.1.8 2.1.8"/></g><path d="m138.6 114.2c2.5 26.6.7 32.7-.2 36.3-.5 2.2-1.2 5.1-1.2 5.1-2.8 4.2-22.4-3.3-31.3-9.3-5.6-3.8 1.8-6.3 1.8-6.3 5.4 1.4 12.2 2.2 17.9 3.4 2.1.5-3.4-7.8-1.9-27.5.4-4.5 14.9-1.7 14.9-1.7" fill="#dba89d"/><path d="m108.3 139.3c-1.1-1.3-2.1-2.8-3-4.2-.7-1.1-2.8-1.7-4.3-3.4-.5-.6-1.6-.9-1.5.1s1.3 1.9 1.8 3.1c.6 1.5-3.6-.1-4.7-.5-.9-.4-6.8-1.9-7-1.2-.3 1.3 6.5 2.4 6.3 3-.1.2-1.7-.3-3.4-.7-1.9-.5-3.9-1-4-.6-.1 1.8 5.9 2.6 6.3 3.6 0 0-1.4-.4-3-.8-1.4-.4-2.7-1.1-3-.9-2.3 1.5 7.2 2.8 6.5 3.8-.3.4-1.4.1-2.6-.1-1.3-.3-2.6-.5-2.6.1s5.8 2.2 5.8 2.2c2.3 1.6 5 2.7 7.9 2.9 1.8.1 8.9 4.9 8.9 4.9l1.2-7.9c.1-.2-4.1-1.8-5.6-3.4" fill="#dba89d"/><path d="m128.2 105.1c8.3.4 11.2 10.5 12 13.9.8 3.3 2.2 20.5 1.6 20.6-1.6.2-19.5-.3-19.4-2.2.1-1.8-3.3-20.4-2.2-24.3-.1-.1.1-8.3 8-8" fill="#151823"/><path d="m64.5 250.1c5.4-1.2-8.2-10.8-7.6-15.7 1.5-12.8 8.8-40.3 12.1-47.8 1.9-4.3-20.8-13.3-21.4 1.2-5.5 8.4-.9 44.6-.9 44.6-1.2 4.2-6 9.2-3.9 10.9s6.7 4.6 8.5 3.5c.9-.6 3.8.5 6.7 1.6 2.7 1 5.4 2 6.5 1.7" fill="#dba89d"/><path d="m41.1 251.5c-.4-.6-6.1-9.8-4.6-14.8 4.2-13.7 16.8-42.3 23.3-48.1 3.7-3.3-11-21.2-17.9-7.6-8.9 5.7-15.3 52.2-15.3 52.2-3 3.5-5.1 5.9-5 8 .1 2.5 2.9 4.4 5 4.1s4.6 6.2 8.8 7.6c4.1 1.6 7.1.9 5.7-1.4" fill="#dba89d"/><path d="m7 157s29.5-3 34.2-1.6c2.3.6 7.8.4 10.8 8l14.5 4.6c5.1 2.4 3.8 7.8 4.8 14.8.4 2.6-1.3 34.8-1.3 34.8s-.4-7-8.3-5.7c-.3 0-2.1 1.3-2.4 1.3-.9.1-1.9.1-2.8-.1-.9-.3-1.8-.3-2.7-.1-1.3.3-2.5.8-3.6 1.5-1.8 1.1-3.8 2.4-5.5 3.2-12.5 6.2-24.6 6.7-24.8 5.5-.4-1.8 2-25.7 1.2-30.8-.3-2 .9-3.9-.6-5.3-8.5-1.5-15.1-3.1-17.5-6.3-4.8-6.6-1.3-17.8 4-23.8"/><path d="m38.5 172.9c3.5-2.8 7.4-2.3 10.4-1.8 2 .3 3.6.7 4.3 0 4.1-4.3 11.3-3.6 13.8-2.8-11-4.4-14.8-6.6-19.2-6.6s-25 1.8-28.2 3.8c-3.3 2 18.9 7.4 18.9 7.4" fill="#282827"/><path d="m95.9 103.4c-.4-.3-.9-.5-1.4-.5-.1 0-.3 0-.4 0-.8.2-1.5.3-2.3.3-.2 0-.4 0-.4 0l-1-2.8c.1 0 .1-.1.2-.1.6-.2 1.3-.3 2-.3 1 0 2 .1 2.9.5.6.3 1 1.4 1.3 2.3-.4.2-.7.4-.9.6" fill="#ce926a"/><path d="m52.7 116.7c2.6 2.1 4.4 3.2 5 5.9.6 2.6 7.2 23.4 7.5 28.7s-2.6 9.3-6.5 9c-3.8-.3-4.5-.9-9.5-13.5-4.9-12.6 3.5-30.1 3.5-30.1" fill="#b90066"/><path d="m59.4 102.5c-1.5 1.4-2.4 2.9-2.3 3.5s1.2 3.5-.3 3.3c-.7 0-1.3.5-1.4 1.2s.4 1.3 1.1 1.5c.6.1-1.3 1.7-3 1.6-.8-.1-.9.4-1.1.8-.2.6-.4 1.1-2.2.6-3.1-.9-3 .3-3.5-4.2-.5-4.4 1.8-13.7 2.7-14.2.8-.5 6.5-9.1 9.2-6.8s.8 12.7.8 12.7" fill="#c6c6c6"/><path d="m49 105.7c-2.1 2.6-2.1 8.4-2.8 14.4-.4 3.7-7.3.5-8.8-.3-1.6-.8-7.5-13-7.5-13s6.4-6.8 8.1-13.2c.7-2.5 11 12.1 11 12.1" fill="#dba89d"/><path d="m34.3 91.9c-2.1 2.2-.7 5.2-.8 6.8-.1 1.7-1.8 2.3-1.4 3.2 1.1 2.5-7.2 7.6-6.9 8.3 1.2 2.3-13 .1-11.2-1.2 4.7-3.2 3.2-2.8 3.2-2.8s-6.4-.3-2.8-1.5c1.4-.4 6-3.5 6.2-4.6 1-7.9 3.7-6.5 4.8-7.5 2.4-2.1 3.6-4.4 5.5-7.4 2.1-2.8 3.4 6.7 3.4 6.7" fill="#bec4d3"/><path d="m37.6 115.1c2.2 3.4 4.1 4.4 5 5.7s1 6 1 7.6-5.4 1.2-8.5-2.2-9.3-12.5-9-15.6c.3-3 11.5 4.5 11.5 4.5" fill="#fff"/><path d="m43.7 130c.4-3.8-1.5-8.4-.6-8.8s2.8-5.9 2.8-7.3c0-1.5 3.5 4.7 3.7 7 .2 2.4-5.9 9.1-5.9 9.1" fill="#fff"/><path d="m36.6 88.7c1-6.4.7-12.9 10.6-11.4 1.9.2 3.7.7 5.4 1.5.6-.1 1.2-.2 1.8-.2 2.2.7 3.3 2.4 4 5.6 1.1 4.9-1 11.7-2.8 15.8-2 4.2-2.5 6.5-5.9 9.4-1.4.6-3.1 1.6-5.7 1.2-7-1.2-9.1-7.7-9.1-13.3-1.2-.8-2.1-3.4-2-5.4.3-2.8 1.6-4.9 3.7-3.2" fill="#dba89d"/><path d="m54.3 89.1c3-.9 5.4 4.9 4.2 5.8-1.1 1-1.5 1.4-.7 2.5.7 1.1.7 1.4-.1 1.6-.8.3-.7 3-.7 3s3 1.6 1.9 2.6-3.3 1.1-2 1.2 5.2 0 5.3-2.1-1.2-2.4-.3-4.2.9-.4 1.1-3c.1-2.6-.8-3.1-.9-4.4-.2-1.3 1.6-1.2.5-5.1-.6-2-1.1-2-2.5-5.3-1.4-3.2-7.7-6-9.2-3.6.9 3.8 2 7.4 3.4 11" fill="#bec4d3"/><path d="m46.2 163.2s-46.6 8.7-45.4 5.1c3.3-9.7 6.7-18.3 7.9-22.3 1.4-4.8-4.3-31.4 6.3-35.9 3.7-1.6 9.8-5.3 14.1-6.7 0 0 4 9.5 5.5 13.7 1.4 3.7 4 10.4 11 9.3 1 2.9.6 36.8.6 36.8" fill="#e0006d"/><path d="m53.3 118.1c-4.2-3.4-4.8-5.3-4.8-5.5 1 13.7-5 13-5.1 13.8-.2 6.3 4.5 8.3-1 26.7 0 0 .5 10.6.9 10.7 1.8.2 6.5.6 9.4-1.4l-.5-1.5v-.1l-1.1-3.6h-.2c-3.7-12.3 2.4-10.5 2.9-21.6.1-2.3-.3-11.2-.3-11.2s1-5.4-.2-6.3" fill="#e0006d"/><path d="m47.3 110.2c.9 1.2 2.8 7.3 2.9 7.8s.6 5.9.6 5.9-1.3-5.9-3.4-5.1c-2.1.7-2.2-.1-2.2-.1s0-5.9.7-6.8c.8-1 1.4-1.7 1.4-1.7" fill="#fff"/><path d="m54.3 89.1c-1.9-.9-4.4-2.8-7.7-1.2-4.9 2.3-5.5 4.6-5.5 4.6s-1.3 1.9-2.1 1.9c-.6 0-1.1-3-2.6-1.6s-1 4.9-2 6.4c-1.2 1.7-2.9 1.2-3 1.9-.4 3.7-3 3.2-3.3 3.3-1.5.6-.3.2-4 2.6-1.5.9-5.8-.1-5.8-.1 5.2 1.6 11.7-9.3 12.3-11.6.5-2.4-1.5-2.3-1.3-5.1s1.3-4.6 2.6-6.5 2.8-4.4 6.4-6.2c3.7-1.8 8.4-4 13.8-.6 1.6 1.2 2.2 12.2 2.2 12.2" fill="#bec4d3"/><path d="m64.5 158.3c-1.3.7-2.7 1.3-4.1 1.5-1 .1-4.1-.9-4.6-2.3s.5-1.2 2.1-1 6.6 1.8 6.6 1.8" fill="#d9a799"/><path d="m71.7 133c.4.1.7.6.6 1.1l-2.2 21.9c0 .5-.4.9-.8 1l-31 2.4c-.3 0-.6-.1-.9-.3s-.3-.6-.3-.9l1.6-23.2c0-.3.2-.7.4-.9s.6-.3 1-.3z"/><path d="m29.4 149.5c-.5-.9 1.2-3.1 1.9-4.9 0 0 5.3-2.5 9.4-2.6 1 0 1.6.3 3.5.9 1.5.4 1.6 1.3.1 1.3-.9 0-1.8-.1-2.6-.4l-2.1.3h2.2c.5 0 2.8.7 3.4.8.9.1 1.3 1.1-.1 1.2-1 0-1.9 0-2.9-.2-1 0-2.7.1-2.7.1 2 .1 4.9 0 5.7.5.7.5.4 1.5-1.1 1.2s-3.1-.3-4.6 0h3.8s1.3.8-.5 1c-4.6.5-8.1 1.6-9.6 1.3-1.3-.1-3.5.2-3.8-.5" fill="#d9a799"/><path d="m26.4 151.4c-.2-1.5.9-7.1 3.1-8.3.8.3 1.6.4 2.5.4 0 0 1.4 2.5-1.2 9z" fill="#f0f0f0"/><path d="m53.8 133.5c0-3.4-.3-9.4-.3-9.4s1-5.1-.2-6.1c-.1-.1-.3-.2-.4-.3.2-.1.5-.2.7-.4 2.2 1.7 3.6 2.9 4.1 5.2.3 1.1 1.6 5.6 3.1 10.8z" fill="#b90066"/><path d="m51.3 115.2c-.4 0-.8-.1-1.1-.2-.1 0-.2-.1-.3-.1-.7-.7-1.2-1.5-1.5-2.3v.2c-.3-.9-.7-1.7-1.1-2.6 0 0 0 0 0-.1.8-.3 1.6-.6 2.4-1 3.4-2.8 3.9-5.2 5.9-9.4 1.1-2.6 2-5.3 2.6-8.1.7 1.3.9 2.8.4 3.2-1.1 1-1.5 1.4-.7 2.5.7 1.1.7 1.4-.1 1.6-.9.4-.8 3.1-.8 3.1.6.3 1.1.7 1.6 1.2 0 0-.1.1-.1.1-.6.6-1.1 1.4-1.4 2.2-.6.2-.9.2-.2.3h.2v.2c.1.6 1.2 3.4-.2 3.4h-.1-.1c-.7.1-1.2.6-1.2 1.3s.4 1.3 1.1 1.4c.6.1-1.1 1.6-2.8 1.6-.1 0-.2 0-.3 0s-.1 0-.2 0c-.6 0-.7.4-.9.8-.1.4-.6.8-1.1.7" fill="#bec4d3"/><path d="m34.9 121.8s-7.8-14.1-7.8-15.7c.1-.5.3-.9.7-1.3 1.6 4 4.8 5.9 5.9 5.9h.1c-.8 0-4.7-6.3-1.5-6.4h.3c1.5 3.4 3.2 6.6 5.2 9.7.5.9 1.1 1.7 1.9 2.4-.3.1-.5.3-.8.5-1.1 1-2.1 2.1-2.9 3.4-.7.8-1.1 1.5-1.1 1.5" fill="#fff"/><path d="m50.8 123.9s-.9-4.1-2.4-5c-.2-.1-.4-.2-.6-.2-.1 0-.2 0-.4.1-.4.2-.9.3-1.4.3-.8 0-.8-.4-.8-.4s0-.7 0-1.7c.1-1.8.2-4.5.7-5.1.6-.8 1.2-1.4 1.3-1.6.5.8.8 1.7 1.1 2.6.8 2.2 1.6 4.9 1.7 5.2.4.3.8 5.8.8 5.8" fill="#fff"/><path d="m33.7 110.7c-1.1 0-4.3-1.9-5.9-5.9 0-.1-.1-.1-.1-.2.1 0 .2-.1.4-.1.3-.1 2.9.3 3.3-3.3.1-.8 1.9-.2 3-1.9.4-.8.6-1.6.7-2.4v.9c.2.6.2 1.3.1 2v.4c-.3 1.8-1.1 4-2.6 4.3-.1 0-.2 0-.3 0-3.2 0 .7 6.2 1.4 6.2z" fill="#c6c6c6"/><path d="m9.8 113.6c-3.4 3.4-9.1 26-6.1 36.8 1 3.5 25.4 4.9 25.4 4.9s3.2-11.5 1.1-12.1c-4.6-1.6-9.3-2.9-14-4 0 0 5.1-6.6 6.2-14.5 2.1-16.1-8.8-14.9-12.6-11.1" fill="#b90066"/><path d="m59.1 158.6c0 .3.2.5.5.6.2.1.4.1.6 0s.3-.3.4-.5c.1-.5.2-1 .3-1.6.1-1-.3-2-.6-2.1-.3 0-.4 1.3-.6 2.2-.2.6-.4 1-.6 1.4" fill="#d9a799"/><path d="m60.3 158.6c.1.6 1 1.2 1.5.6.4-.6.7-1.4.7-2.2.1-.7.1-2.2-.5-2.5-.4-.2-.7 1.3-.8 2-.1.8-.4 1.5-.9 2.1" fill="#d9a799"/><path d="m62.1 158.9c.2.3.5.4.8.4s.6-.2.8-.5c.3-.6.4-1.3.4-2 .1-1.7-.3-2.8-.6-2.8-.6 0-.7 2-.8 2.6-.2.9-.4 1.6-.6 2.3" fill="#d9a799"/><path d="m63.7 158.5c.6.2 1.2.5 1.4-.2.2-.5.3-1 .4-1.5.1-1.1 0-2.2-.4-2.2-.6-.1-.6 1-.8 1.8-.2.7-.4 1.4-.6 2.1" fill="#d9a799"/><path d="m103.3 26.8c-3.3-.2-6.2 2.3-6.5 5.6s2.3 6.2 5.6 6.5 6.2-2.3 6.5-5.6-2.2-6.2-5.6-6.5" fill="#87cac0"/><path d="m104.4 13.3c-6.8-.5-13.5 2.4-17.7 7.9-1 1.3-.8 3.1.5 4.1s3.1.8 4.1-.5c2.9-3.8 7.4-5.9 12.2-5.7s9.1 2.7 11.7 6.7c.9 1.3 2.7 1.7 4 .8s1.7-2.6.9-4c-3.5-5.4-9.3-8.8-15.7-9.3" fill="#87cac0"/><path d="m105.4.8c-9.5-.7-20.3 3.6-27.5 11-1.1 1.2-1.1 3 .1 4.1s3 1.1 4.1-.1c6-6.2 15-9.9 22.9-9.3 8.2.6 14.7 4.1 19.3 10.3.6.8 1.6 1.3 2.7 1.1s1.9-.8 2.3-1.7.3-2-.3-2.9c-5.8-7.5-13.7-11.7-23.6-12.5" fill="#87cac0"/><path d="m31.7 102c1 4 6.9 14.1 7.9 14.4-2.1.9-4.7 5.4-4.7 5.4s-7.8-14.1-7.8-15.7 4.6-4.1 4.6-4.1" fill="#f8f8f8"/><path d="m33.8 94.8c-.1.9.3-.2.7-1.2.3-.9.7-1.8.8-1.4l-.3 5.4c.5.7-.1 6.6-2.8 6.7-3.2.1.7 6.4 1.5 6.4-1.1.1-4.9-2.2-6.4-7-.5-1.6 2.3-4.6 2.9-6.3s3.6-2.6 3.6-2.6" fill="#bec4d3"/></g><g transform="translate(768 267)"><path d="m70.4 23.2v-.8c.8 0 1.5-.3 2.1-.8.6-.6 1.1-1.2 1.5-2l.1-.2c.4-.7.8-1.4 1.3-2 .6-.7 1.6-1.2 2.5-1.2.6-.1 1.2.2 1.7.6.3.4.4.9.3 1.4l-.8-.1c.1-.3 0-.6-.1-.8-.3-.2-.7-.4-1.1-.3-.8 0-1.5.4-2 1s-.9 1.2-1.2 1.9l-.1.2c-.4.8-1 1.6-1.6 2.2-.8.5-1.7.9-2.6.9" fill="#9d9d9c"/><path d="m25.5 83.8-.4 1.2-5 12.9 8.1 45.8-14.8 2.3-12.7-54.2c3.1-15 6.7-29.2 14.1-37.7.3-.3.6-.6.8-.9.1.3.2.5.2.8l6.5 20.3z" fill="#4b3f51"/><path d="m65.8 30.5c.6 3.4.7 6.8.5 10.2-.1 2.7-.6 5.5-1.3 8.1-2.6 9.5-8.5 16.4-16.3 17.7-7.4 1.2-14.8-3-20.2-10.4-1.8-2.6-3.3-5.3-4.5-8.2-1.3-3.3-2.3-6.6-2.8-10.1-.1-.5-.2-1-.2-1.5 0-.3-.1-.5-.1-.8-1.9-16.3 4.9-30.7 15.9-33.5.2 0 .3 0 .5-.1.3-.1.5-.1.8-.2h.1c.3 0 .6-.1.9-.1h.4.4c11-.5 21.6 10.5 25.2 26 .1.5.2 1 .3 1.5.2.4.3.9.4 1.4" fill="#4e3c4e"/><path d="m62.4 27.3c.4 2.6.6 5.3.5 8 0 1.7-.2 3.4-.5 5.1-6.2 19.3-21.5 24.3-34.9 6-.9-1.6-1.6-3.3-2.2-5-.9-2.5-1.6-5.1-2-7.8-.2-1.5-.4-3-.5-4.6-.7-14 5.6-25.7 15.4-27.3 9.8-1.5 19.5 7.6 23.3 21.1.4 1.5.7 3 .9 4.5" fill="#321913"/><path d="m27.7 46.6c13.2 17.8 28.2 13.1 34.5-5.6l-17.7-.7z" fill="#4b3f51"/><path d="m46.1 49.8h-.2c-2.4.4-4.8-.2-6.8-1.6s-3.3-3.6-3.7-5.9l-1.2-7.2 18.2-3 1.2 7.2c.4 2.4-.2 4.8-1.6 6.8-1.3 2-3.5 3.3-5.9 3.7" fill="#f1c194"/><path d="m38.7 5.2c8.2-1.4 15.6 3 16.5 12.8.1 1.1.2 2.3.1 3.4 1.7-1.3 3.5.2 3.3 3.1-.1 2-.7 4.8-1.7 5.4-.5.4-1.3.4-1.8-.1-.1 2.9 0 5.4-.7 7.1-.7 1.6-1.4 3.1-2.3 4.6-1.6 2.6-3.1 3.4-6.7 4-3.7.6-5.4.3-7.7-1.6-1.3-1.1-2.5-2.3-3.6-3.6-1.3-1.3-1.9-3.8-3-6.5-.1 0-.3.9-1.7.7-1.1-.2-2.5-2.6-3.3-4.5-1.1-2.6.2-4.7 2.2-4-.4-1.1-.7-2.1-1-3.3-2.4-9.5 3.2-16.1 11.4-17.5" fill="#fbcea2"/><path d="m81.9 114.2h-52.2c-.7-2.8-1.3-5.6-1.7-8.5-.1-.7-.2-1.4-.3-2.1-.2-1.4-.4-2.8-.6-4.3-.1-.8-.2-1.7-.3-2.5v-.3c-.2-1.3-.3-2.5-.5-3.8 0-.1 0-.3-.1-.4-.1-1.1-.3-2.2-.5-3.2-.2-1.1-.3-2.1-.5-3.1-.1-.3-.1-.7-.2-1-.2-.9-.4-1.8-.6-2.7 0-.1-.1-.3-.1-.5-.1-.4-.2-.8-.3-1.1-.1-.2-.1-.5-.2-.7-.1-.5-.3-1-.4-1.4-.1-.2-.2-.5-.2-.7 0-.1-.1-.3-.1-.4-.1-.2-.1-.4-.2-.6 0-.1-.1-.3-.2-.4-.2-.5-.3-.9-.5-1.4-.5-1.4-1-3-1.6-4.8-1.2-4.1-2.6-9.3-4.6-16.3-.1-.2-.2-.5-.2-.8 2.3-1.4 5.3-3.3 8.3-5.3.6-.4 1.1-.7 1.7-1.1.3-.2.6-.4.9-.6 3.3 5.5 7.8 9 12.6 10.4 2.3.7 4.8.8 7.2.5 6.5-1.1 12.6-6.2 15.7-16 .2-.5.3-.9.4-1.4.7.2 1.5.5 2.3.7.5.1 1 .3 1.4.4 3.5 1.1 7.1 2.1 9.5 2.7v.1 1.4c.3 8.1.7 13.7.8 18.2v4.7.4c-.1 1.5-.1 3 .1 4.5 0 .8.1 1.7.2 2.6 0 .3.1.7.1 1 .1.4.1.8.2 1.3v.1c1 6.9 2.8 19.1 3.9 28.2.4 3.2.7 6.1.8 8.2" fill="#4b3f51"/><path d="m81.9 18.1c-.6-.3-1.3-.5-1.9-.6.3-.1.5-.2.7-.3l1.4-1.3 1.6-1.5 2 2.1.5 5.5s-1-1.1-2.2-2.2c-.6-.7-1.4-1.3-2.1-1.7m20.4-10c-.4-.1-.8-.1-1.2.2-.3.2-.5.6-.6 1l-.2 1.9-.2 2-1.4 3.4-.4-.3 1-7.5-1.3-2.6-1.1-2.1c-.3-.6-1-.9-1.7-.6-.6.2-1 .9-.9 1.5l.1.3 1.3 3.4-1.2 6-.7-.3v-5.8l-2-4.4-.5-1c-.3-.7-1.2-1-1.9-.7-.8.3-1.2 1.2-.9 1.9l.3.9 1.2 3.4.1 5.3-.6.2c-1-1.1-2.1-2-3.3-2.9-.5-.4-1.1-.7-1.6-1.1-.6-.4-1.3-.3-1.8.2l-3.7 3.6c-1.2 1.7-1.3 3.2-.4 3.6-1.5.4-1.7 2 1.9 4l2.1 3.3.7 1.1c.3.5.6 1.1.9 1.6 1.4 2.1 3.2 3.2 5.7 4.9l6.2-1.2 3.9-1.8 1.3-9.6 1.6-5.1v-.7l.1-4.6c.2-.7-.2-1.3-.8-1.4" fill="#4b3f51"/><path d="m88.7 28.9.5 1.2.9 2.3 2.7 7.1 9.8-3.6-2.3-6.5-.9-2.5-.2-.5-4.1.9h-.2z" fill="#4e3c4e"/><path d="m103.2 14v.7l-.7 2.3.7-2.3zm-2.5 11.9-.5 3.5.5 1.3-.5-1.3z" fill="#c5c2c2"/><path d="m103.2 14-3.3 8.3-.6 4.6.9 2.5.5-3.5.9-6.2.9-2.8.7-2.3z" fill="#443845"/><path d="m82.8 24.9.7 1.1c.1.2.3.5.4.7-.1-.2-.3-.5-.4-.7zm1.6 2.6s0 .1 0 0c0 .1.1.1 0 0 .1.1 0 .1 0 0z" fill="#c5c2c2"/><path d="m82.8 24.9.7 1.1c.1.2.3.5.4.7.2.3.3.6.5.8v.1c1.4 2 3.2 3.2 5.6 4.8l-.9-2.3-4.3-3.7-.5-.4-1.1-.8z" fill="#443845"/><path d="m99.3 26.9-.1 1-5 2.5-4.2.4-.8-.7.9 2.3 1 2.6 9.6-4.2-.5-1.3z" fill="#443845"/><path d="m98 6.2 1.3 2.5v.2-.2zm2.1 6.8v.1l-1.4 3.4 1.4-3.4z" fill="#c5c2c2"/><path d="m98 6.2.6 2.6-1.3 7.2 1.8 1.2 1.2-3.7.1-2.5-.2 1.9v.1l-1.4 3.4-.3-.2-.1-.1 1-7.3v-.2z" fill="#443845"/><path d="m92 4.5 1.9 4.1v5.2-5.2zm2.3.6.1.2.2.4-.2-.4zm-.4 9.3.6.3z" fill="#c5c2c2"/><path d="m91.8 4.2 1.2 4.3-.2 6.2s2.5.7 2.9.9l.7-7.2-2.1-3.4v.1l.1.2.2.4 1.2 3-1.2 6-.1-.1-.6-.2v-.5-5.2l-1.9-4.2z" fill="#443845"/><path d="m86.2 11.3c1.2.8 2.3 1.8 3.3 2.9l.6-.2-.6.2c-1-1.1-2.1-2.1-3.3-2.9" fill="#c5c2c2"/><path d="m88.9 5.2 1.1 3.5.1 5.3-.6.2c-1-1.1-2.1-2-3.3-2.9l3 3.6 1.8-.6-.3-4.2-.1-1.9z" fill="#443845"/><path d="m84.5 12.5-2.4 3.3 1.6-1.5 2 2.1.5 5.5-2.2 2.4 2.9-.8c.3 0 .5-.1.8-.1 1.5.1 3 .7 4.2 1.6l3 2.4h.2l-1.8-2.9 1.1-2c.7-1.3 1.8-2.3 3.1-2.9l1.8-.8-2.1.4c-1.7.3-3.3 1.2-4.4 2.5l-1.4 1.6-.8-.3c-2-1-4.1-3.8-4.4-6.9-1.2-.9-1.8-2.2-1.7-3.6" fill="#443845"/><path d="m95.1 27.4h-.2l.5.4z" fill="#443845"/><path d="m112.6 58.9c.7 9-5.2 11.4-15.3 10.7h-.1-.3c-.2 0-.5 0-.8-.1h-.2c-1.9-.2-5.4-.4-9.4-.8-.8-.1-1.7-.1-2.5-.2-.4 0-.8-.1-1.3-.1-2.1-.2-4.2-.3-6.2-.5-1.5-.1-2.9-.2-4.1-.3-2.6-.2-4.4-.4-4.4-.4l2.9-8.7 4.5-13.5.5-1.5v-.1l6.3 2.4 3.2 1.2 7.4 2.8-2.4-14.6.6-.3 9.6-4.2 1.2-.5 8.1 18.4c1.5 3.3 2.3 6.7 2.7 10.3" fill="#4b3f51"/><path d="m65.3 27.7c.1.4.1.9.2 1.3.2 1.6.3 3.2.4 4.8-.2-.5-.3-1-.5-1.4-.7-2.2-1.8-4.2-3.1-6-.3-.4-.6-.8-1-1.2-.2-.2-.4-.4-.6-.6l-.2-.2-.2-.2-.3-.3-.2-.2-.2-.2-.3-.2-.1-.1-.1-.1-.3-.2-.1-.1c-.1-.1-.3-.2-.4-.3l-.3-.2-.2-.1c-.6-.3-1.2-.6-1.8-.8l-.3-.1h-.1c-.8-.3-1.5-.5-2.3-.6-.3 0-.5-.1-.8-.1h-.2-.3c-.5-.1-.9-.1-1.4-.1s-.9 0-1.4 0c-.1 0-.3 0-.5 0h-.1c-.5 0-1.1 0-1.6.1-.3 0-.5 0-.8.1-.5 0-1 .1-1.5.1h-.2c-.4.1-.9.1-1.4.2s-1 .1-1.6.2c-.5.1-1 .2-1.6.3-.4.1-.9.2-1.3.3h-.2c-.4.1-.8.2-1.2.3-.8.2-1.6.4-2.4.6l-.2.1c-.5.1-.9.3-1.4.5-.2.1-.3.1-.5.2s-.4.2-.6.3c-.3.1-.6.3-.9.4-.3.2-.6.3-.9.5l-.2.1c-.1.1-.3.2-.4.2-.2.1-.4.2-.6.4-.2.1-.3.2-.5.3l-.3.2-.3.2-.2.2-.4.3h-.4l-.4.4c-.2.2-.3.3-.5.5s-.3.3-.5.5c-.1.1-.2.3-.3.4l-.1.1c-.1.1-.2.3-.3.4-.1.2-.2.4-.4.5l-.2.3-.1.3v.1.1c-.1.1-.2.3-.2.5-.1.3-.3.6-.4.9-.1.2-.1.3-.2.5s-.1.3-.2.5c-.6 2-1 4.1-1 6.2v2c-.5-1.5-.9-3.1-1.2-4.6-.1-.4-.1-.7-.2-1.1v-.2c-2.9-17.1 4.9-32.6 17.2-34.6 12-1.9 24 9.8 27.1 26.3.1.4.2.8.2 1.1" fill="#4b3f51"/><path d="m24 47.9c-3 2-6 3.9-8.2 5.3l-1.2 1c.1 0 .2 0 .4-.1.3-.3.5-.6.8-.9.1.3.2.5.2.8-.1-.3-.2-.5-.2-.8 2.2-1.4 5.2-3.3 8.2-5.3z" fill="#c5c2c2"/><path d="m15.7 53.2c-.3.3-.6.6-.8.9.3-.1.7-.1 1-.2 0-.2-.1-.4-.2-.7" fill="#443845"/><path d="m20.9 36.3c.1.5.1 1 .2 1.5.6 3.5 1.5 6.9 2.8 10.1.6-.4 1.1-.7 1.7-1.1-1.3-2.5-2.5-5.2-3.5-7.8v2c-.5-1.6-.9-3.2-1.2-4.7" fill="#443845"/><path d="m25.6 46.8c-.6.4-1.1.8-1.7 1.1-3 2-6 3.9-8.3 5.3.1.3.2.5.2.8h.3c.8-.1 1.6-.1 2.4-.1 1.3 0 2.7.1 4 .4 4.6.9 8.9 3.2 12.1 6.6-3.3-4.5-6.4-9.2-9-14.1z" fill="#443845"/><path d="m20.7 35.2c.1.4.1.7.2 1.1.3 1.6.7 3.1 1.2 4.6 0-.7 0-1.3 0-2-.5-1.1-.9-2.3-1.3-3.5z" fill="#443845"/><path d="m66.8 40.9c3.3 1 6.7 2 9 2.5-2.4-.5-5.7-1.5-9-2.5zm9.1 2.5v.1-.1l-.1.1.1-.1 6.3 2.4z" fill="#c5c2c2"/><path d="m65.5 29c.2 1.6.3 3.2.4 4.8-.2-.5-.3-1-.5-1.4 0 1.4 0 2.7-.1 4.1-.1 1.3-.2 2.6-.4 3.9.5.1 1 .3 1.4.4.1-.9.1-1.8.1-2.7 0-2.5-.2-5-.6-7.5-.1-.6-.2-1.1-.3-1.6" fill="#443845"/><path d="m64.8 40.3c-.6 4.3-2.1 8.5-4.5 12.2 1.3-1.4 2.9-2.7 4.6-3.6 2.3-1.3 4.7-2.4 7.3-3.3 1-.3 2.1-.5 3.1-.6l.5-1.4v-.1h-.1c-2.3-.5-5.7-1.5-9-2.5-.2 0-.3-.1-.5-.1-.4-.3-.9-.4-1.4-.6z" fill="#443845"/><path d="m75.9 43.4v.1l-.5 1.5h.5.3c2 0 4 .3 6 .8z" fill="#443845"/><path d="m65.1 26.6c0 .3.1.6.1.9.1 1.6.2 3.2.2 4.8.2.5.3.9.5 1.4 0-1.6-.1-3.2-.4-4.8-.1-.4-.1-.9-.2-1.3 0-.2-.1-.6-.2-1" fill="#443845"/><path d="m76.6 67.9v.4c-.1 1.4-.1 2.7 0 4.1-.1-1.4-.1-2.7 0-4.1 0-.1 0-.3 0-.4zm.1 5c0 .6.1 1.3.2 1.9-.1-.6-.2-1.3-.2-1.9m.2 2.8c0 .2 0 .4.1.7v.3c0-.1 0-.2 0-.3 0-.3-.1-.5-.1-.7m.2 1.4c0 .2 0 .3.1.5-.1-.2-.1-.3-.1-.5m.2 1.3c1 7 2.8 18.7 3.8 27.4l.8-.1c-.4-7.4-3.3-18.1-4.6-27.3" fill="#c5c2c2"/><path d="m72.5 67.5v.3c.4 3.4.9 6.9 1.2 10.3.1 1.3.2 2.6.3 3.9-1.2 7.3-4.7 14-10.1 19 2.6-1.4 5-3.1 7.3-5 1-.9 2-2 2.8-3.1v.4c-.4 4.9-1.7 9.8-3.7 14.3l11-1.8c-1-8.8-2.8-20.5-3.8-27.4 0-.3-.1-.5-.1-.8 0-.2 0-.3-.1-.5 0-.2 0-.3-.1-.5 0-.1 0-.2 0-.3 0-.2-.1-.4-.1-.7 0-.1 0-.2 0-.3 0-.2 0-.3-.1-.5-.1-.6-.1-1.3-.2-1.9 0-.1 0-.1 0-.2s0-.2 0-.4c-.1-1.4-.1-2.7 0-4.1 0-.1 0-.3 0-.4-1.7-.1-3.1-.2-4.3-.3" fill="#443845"/><path d="m71.3 58.6c.4 3 .8 5.9 1.1 8.9 1.2.1 2.6.2 4.1.3 1.9.2 4 .3 6.2.5.4 0 .8.1 1.3.1.8.1 1.7.1 2.5.2 4 .3 7.5.6 9.4.8h.2c.3 0 .6.1.8.1h.3.1c1.1.1 2.1.1 3.1.1 7.7 0 12.3-2.5 12.2-9.4 0-.4 0-.9-.1-1.4-1.6 2.3-3.7 4.1-6.3 5.2-4.1 1.8-8.6 2-13.1 2-.2 0-.5 0-.7 0-2.1 0-4.1 0-6.2-.2-1.8-.1-3.6-.4-5.4-.9-1.5-.4-2.9-1-4.3-1.7-2-1.1-3.8-2.7-5.2-4.6" fill="#443845"/><path d="m62.4 27.3c.4 2.2.5 4.5.6 6.7 0-2.3-.2-4.5-.6-6.7zm-39.2 5.7c0 .2.1.3.1.5-.1-.1-.1-.3-.1-.5" fill="#443845"/><path d="m58.5 22.8c.2.6.2 1.1.2 1.7-.1 2-.7 4.8-1.7 5.4-.3.2-.6.3-.9.3s-.6-.1-.9-.4v1.1c3 .6 5.8 2.1 7.8 4.4 0-.4 0-.9 0-1.3 0-2.2-.2-4.4-.5-6.6 0-.3-.1-.6-.2-.9-.3-.4-.6-.8-1-1.2-.2-.2-.4-.4-.6-.6l-.2-.2-.2-.2-.3-.4-.3-.2-.2-.2s0 0-.1 0l-.3-.2-.1-.1s0 0-.1 0l-.1-.1-.3-.2c.1-.1.1-.1 0-.1zm-32.8 5.3c-.1.2-.2.3-.3.4l-.1.1c-.1.1-.2.2-.3.4 0 0 0 .1-.1.1-.1.2-.2.4-.3.5l-.2.3-.1.3v.1.1s-.1.1-.1.1c0 .1-.1.2-.1.3-.1.3-.3.6-.4.9-.1.2-.1.3-.2.5v.1c-.1.2-.1.3-.2.5v.3c0 .2.1.3.1.5v.1c.4 2.6 1.1 5.2 2 7.8 1.2-2.9 3.4-5.2 6.1-6.7-.1-.3-.2-.6-.3-.9-.2.5-.7.7-1.2.7-.2 0-.3 0-.5 0-1.1-.2-2.5-2.6-3.3-4.5-.4-.7-.5-1.4-.5-2z" fill="#2f1a15"/><path d="m53 20.7c-.1 0-.2 0-.4-.1-.1 0-.3 0-.4-.1h-.2-.1c-1-.1-2.1-.2-3.1-.2" fill="#c4a182"/><path d="m48.8 20.3c-.1 0-.3 0-.4 0-.3 0-.6 0-.8 0-.5 0-1.1.1-1.6.1-.3 0-.6.1-.9.1s-.6.1-.9.1c-.4.1-.7.1-1.1.1-.6.1-1.1.2-1.7.3s-1.2.2-1.8.3c-.3.1-.5.1-.8.2s-.6.1-.9.2c-.2 0-.4.1-.6.1-.8.2-1.6.4-2.3.6-.1 0-.2.1-.3.1l-.2.1c-.1 0-.2.1-.3.1-.3.1-.7.2-1 .3h-.1c-.2.1-.3.1-.5.2s-.4.2-.6.3h-.1c-.3.1-.5.2-.8.4s-.6.3-.9.5c-.1.1-.3.1-.5.3-.5.3-1.1.6-1.5 1-.1.1-.5.4-.5.4l-.1.1-.2.2-.4.2s0 0-.1 0l-.3.4s0 0-.1.1-.2.2-.3.3c0 0-.1.1-.1.1-.2.2-.3.3-.5.5 0 .7.1 1.3.4 1.9.8 1.9 2.2 4.3 3.3 4.5h.5c.5 0 1-.2 1.2-.7.1.3.2.6.3.9 3.2-1.9 7.2-2.9 11.6-3.6 2.5-.4 5-.7 7.5-.7 1.6 0 3.1.1 4.7.4 0-.4 0-.7 0-1.1.2.2.5.3.9.4.3 0 .7-.1.9-.3 1-.6 1.5-3.3 1.7-5.4 0-.6 0-1.2-.2-1.7 0 0-.1 0-.1-.1 0 0 0 0-.1 0-.1-.1-.2-.1-.3-.2l-.3-.2-.2-.1c-1.5-.8-3.2-1.4-4.9-1.6" fill="#c4a182"/><path d="m48.4 20.3c-.3 0-.6 0-.9 0zm-2.5.1c-.3 0-.6.1-.9.1.3 0 .6 0 .9-.1zm6.1.1h.3c.1 0 .3 0 .4.1-.3 0-.5-.1-.7-.1zm-7.8.1c-.4 0-.7.1-1.1.1.3 0 .7 0 1.1-.1zm10 .3c.4.1.7.2 1.1.3h.1l.3.1c.6.2 1.2.5 1.8.8l.2.1.3.2c.1 0 .2.1.3.2-1.2-.7-2.6-1.3-4.1-1.7zm-14.6.4c-.3 0-.5.1-.8.2.3-.1.5-.1.8-.2zm-1.7.4c-.2 0-.4.1-.6.1.2 0 .4-.1.6-.1zm-2.9.7c-.3.1-.5.2-.8.2.1 0 .2-.1.3-.1l.2-.1c.1.1.2 0 .3 0zm23.4.3c.1 0 .1.1 0 0l.1.1s0-.1-.1-.1zm.2.1.3.2.1.1c-.1-.1-.2-.2-.4-.3zm-25.4.2c-.4.2-.8.3-1.2.5l.6-.3c.2-.1.3-.1.5-.2zm25.9.2.1.1.3.2c-.1-.1-.3-.2-.4-.3zm.4.3.2.2.3.2.3.3.2.2c-.3-.4-.6-.6-1-.9zm-27.7 0c-.7.3-1.3.6-1.9 1l.2-.1c.3-.2.6-.3.9-.5.3-.1.6-.2.8-.4zm28.7.8.2.2c.2.2.4.4.6.6.3.4.7.8 1 1.2-.6-.7-1.2-1.3-1.8-2zm-30.8.3c-.5.3-1 .6-1.4.9l.2-.1c.2-.1.3-.2.5-.3.2-.1.4-.2.6-.4-.1 0 0 0 .1-.1zm-1.6 1.1s-.1.1-.1.1zm-.6.5c-.1.1-.2.1-.2.2zm-.3.2c-.1.1-.2.2-.3.2zm-.3.3c-.1.1-.3.2-.4.4 0 0 .1-.1.1-.1zm-.7.7c-.4.4-.7.8-1 1.2l.1-.1c.1-.1.2-.3.3-.4.1-.2.3-.4.5-.5 0-.1.1-.2.1-.2zm-1.2 1.6c-.3.5-.6 1-.9 1.5 0 0 .1-.1.1-.1v-.1-.1l.1-.3.2-.3c.2-.2.3-.4.5-.6zm-1.1 1.7c-.1.3-.3.6-.4.9.2-.3.3-.6.4-.9zm-.6 1.4c0 .1 0 .1 0 0z" fill="#443845"/><path d="m22.2 75.2-6.5 20.3v18.7h4.4v-16.3l5-12.9c-.2-.9-.4-1.8-.6-2.7 0-.1-.1-.3-.1-.5-.1-.4-.2-.8-.3-1.1-.1-.2-.1-.5-.2-.7-.1-.5-.3-1-.4-1.4-.1-.2-.2-.5-.2-.7 0-.1-.1-.3-.1-.4-.1-.2-.1-.4-.2-.6 0-.1-.1-.3-.2-.4-.3-.4-.4-.8-.6-1.3" fill="#443845"/><path d="m21.9 64.4s.5 3.4 1.2 7.8l-.7 2.1-.3.9c.2.5.3.9.5 1.4 0 .1.1.3.2.4.1.2.2.4.2.6 0 .1.1.3.1.4.1.2.2.4.2.7.2.5.3.9.4 1.4.1.2.1.5.2.7.1.4.2.7.3 1.1 0 .2.1.3.1.5.2.9.4 1.8.6 2.7.1.3.1.7.2 1 .2 1 .4 2 .5 3.1.2 1 .3 2.1.5 3.2 0 .1 0 .3.1.4.2 1.3.3 2.5.5 3.8v.3c.1.8.2 1.7.3 2.5.2 1.4.4 2.9.6 4.3.1.7.2 1.4.3 2.1.5 3.1 8.1 37.9 8.8 40.3l67.4-5.1c-3.7-2.2-5.5-38.5-8.1-41.9 2.8 1.7-53.1 6.8-49.8 6.8.8 0 1.5-.1 2.3-.1-5.8-1.8-11-4.9-15.4-9.1-.7-1.7-1.3-3.4-2-5.2 2.7 2.6 6.2 4.3 9.9 4.9-4.6-2.8-8.6-6.5-11.7-10.9-.2-.3-.4-.5-.5-.8-1.1-3.1-2.1-6.2-3.2-9.2-1.1-3.8-2.4-7.4-3.7-11.1" fill="#443845"/><path d="m79 49.4c0 .6.3 1 .5 1s.5-.4.5-1-.3-1-.5-1-.5.4-.5 1m-.8 0c0-1 .6-1.9 1.3-1.9s1.3.8 1.3 1.9-.6 1.9-1.3 1.9-1.3-.8-1.3-1.9" fill="#fff"/><path d="m79.9 17.5v31.6c0 .2-.2.4-.4.4s-.4-.2-.4-.4v-31.6z" fill="#9d9d9c"/><path d="m78.8 47.6 1.5-.3c.1 0 .3-.1.3-.3 0-.1 0-.3-.1-.4s-.2-.2-.4-.1l-1.4.3c-.2 0-.3.2-.3.4s.2.4.4.4" fill="#9d9d9c"/><path d="m78.8 46.8 1.5-.3c.1 0 .3-.1.3-.3 0-.1 0-.3-.1-.4s-.2-.2-.4-.1l-1.4.3c-.2 0-.3.2-.3.4s.2.4.4.4" fill="#9d9d9c"/><path d="m78.8 46 1.5-.3c.1 0 .3-.1.3-.3 0-.1 0-.3-.1-.4s-.2-.2-.4-.1l-1.4.3c-.2 0-.3.2-.3.4s.2.4.4.4" fill="#9d9d9c"/><path d="m74.7 64.6c2.3 0 4.2-1.9 4.2-4.2v-9.9h1.1v9.9c0 1.4-.6 2.8-1.6 3.8s-2.4 1.6-3.9 1.6h-.2l.1-1.1z" fill="#fff"/><path d="m39.8 62h74.2v52.2h-74.2z" fill="#e0006d"/><path d="m109.7 71.5v10.7c0 1.4-1.2 2.6-2.6 2.6h-60.4c-1 0-1.8-.5-2.3-1.4-.2-.4-.3-.8-.3-1.2v-10.7c0-.7.3-1.3.8-1.8s1.1-.8 1.8-.8h60.4c1.4 0 2.6 1.2 2.6 2.6" fill="#fff"/><path d="m109.7 92.6v10.7c0 1.4-1.2 2.6-2.6 2.6h-60.4c-1.4 0-2.6-1.2-2.6-2.6v-10.7c0-.7.3-1.3.8-1.8s1.1-.8 1.8-.8h60.4c1.4 0 2.6 1.2 2.6 2.6" fill="#fff"/><g fill="#020203"><path d="m65.6 80.7-.3-.1-.1-.2v-7.1l.1-.2.3-.1.3.1.1.2v6.6h2.9l.2.1.1.3-.1.3-.2.1z"/><path d="m73.5 75.3c0-.4-.1-.8-.4-1.1s-.6-.4-1-.4-.7.1-1 .4-.4.7-.4 1.1v3.2c0 .4.1.8.4 1.1s.6.4 1 .4.7-.1 1-.4.4-.7.4-1.1zm-1.4 5.4c-.3 0-.6 0-.9-.1s-.5-.2-.7-.4-.4-.4-.5-.7-.2-.7-.2-1.1v-3.2c0-.4 0-.7.2-1.1.2-.5.6-1 1.2-1.1.6-.2 1.2-.2 1.8 0 .3.1.5.2.7.4s.4.4.5.7.2.7.2 1.1v3.2c0 .4 0 .7-.2 1.1-.1.3-.3.5-.5.7s-.5.3-.7.4c-.3.1-.6.1-.9.1z"/><path d="m79.4 75c0-.3-.2-.6-.4-.9-.3-.2-.6-.4-1-.3-.4 0-.7.1-1 .4s-.4.7-.4 1.1v3.2c0 .4.1.8.4 1.1s.6.4 1 .4.7-.1 1-.4.4-.7.4-1.1v-1.1h-1.3l-.2-.1v-.3l.1-.3.2-.1h1.8l.2.1.1.2v1.5c0 .4 0 .7-.2 1.1-.1.3-.3.5-.5.7s-.5.3-.7.4c-.6.2-1.2.2-1.8 0-.3-.1-.5-.2-.7-.4s-.4-.4-.5-.7-.2-.7-.2-1.1v-3.2c0-.4 0-.7.2-1.1.2-.5.6-1 1.2-1.1h.9c.3 0 .6 0 .9.1s.5.2.7.4.4.4.5.6.2.5.2.8c0 .1 0 .3-.1.3-.1.1-.2.1-.3.1l-.3-.1z"/><path d="m81.8 73-.1.2v7.1l.1.2.3.1.3-.1.1-.2v-7.1l-.1-.2h-.3z"/><path d="m88.2 80.7-.3-.1-.2-.3-2.8-5.3v5.4l-.1.2-.3.1-.3-.1-.2-.3v-7.1l.1-.2.3-.1c.1 0 .3 0 .4.1s.2.3.3.4l2.6 5.1v-5.4l.1-.2.3-.1.3.1.1.2v7.1l-.1.2z"/><path d="m54.6 94.9v3.1h1.4c.4 0 .7-.1 1-.4s.4-.7.4-1.1v-.1c0-.4-.1-.8-.4-1.1s-.6-.4-1-.4zm-.9-.5.1-.2.3-.1h2c.3 0 .6 0 .9.1.6.2 1 .6 1.2 1.1.1.3.2.7.2 1.1v.1c0 .4-.1.7-.2 1.1-.1.3-.3.5-.5.7s-.5.3-.7.4c-.3.1-.6.1-.9.1h-1.4v2.7l-.1.2-.3.1-.3-.1-.1-.2z"/><path d="m62.3 99.3-1.2-4-1.2 4zm-3.4 2.5-.4-.1-.2-.3v-.1l2.2-7 .2-.2.3-.1.3.1.2.2 2.2 7-.2.3-.4.1h-.2l-.1-.2-.5-1.6h-2.8l-.5 1.6c.2.2.1.3-.1.3z"/><path d="m66.6 101c.4 0 .8-.1 1.1-.3s.4-.6.4-1c0-.3-.1-.6-.3-.8s-.4-.4-.6-.5c-.3-.1-.5-.3-.8-.4s-.6-.2-.8-.4c-.3-.2-.5-.4-.6-.6-.2-.3-.3-.7-.3-1s.1-.7.2-1c.1-.2.3-.4.6-.6.2-.1.5-.3.7-.3.3-.1.5-.1.8-.1h.6c.2 0 .4.1.6.1s.3.1.5.2l.2.3-.3.4-.3.2-.2-.1-.2-.1c-.1-.1-.3-.1-.4-.1-.2 0-.4-.1-.6-.1s-.4 0-.6.1c-.2 0-.3.1-.5.2-.1.1-.2.2-.3.3-.1.2-.1.3-.1.5 0 .3.1.5.3.7s.4.3.6.4c.3.1.5.2.8.3s.6.2.8.4c.3.2.5.4.6.7.2.4.3.7.3 1.1 0 .3-.1.7-.2 1s-.3.5-.5.7-.5.3-.7.4c-.3.1-.6.1-.9.1s-.6 0-.9-.1c-.2-.1-.5-.2-.7-.3s-.3-.2-.4-.4c-.1-.1-.1-.2-.2-.4l.1-.3.3-.2.2.1.3.3c.1.1.3.2.5.3.3.3.6.3.9.3"/><path d="m71.8 101c.4 0 .8-.1 1.1-.3s.4-.6.4-1c0-.3-.1-.6-.3-.8s-.4-.4-.6-.5c-.3-.1-.5-.3-.8-.4s-.6-.2-.8-.4c-.3-.2-.5-.4-.6-.6-.2-.3-.3-.7-.3-1s.1-.7.2-1c.1-.2.3-.4.6-.6.2-.1.5-.3.7-.3.3-.1.5-.1.8-.1h.6c.2 0 .4.1.6.1s.3.1.5.2l.2.3-.2.4-.3.2-.2-.1-.3-.1c-.1-.1-.3-.1-.4-.1-.2 0-.4-.1-.6-.1s-.4 0-.6.1c-.2 0-.3.1-.5.2-.1.1-.2.2-.3.3-.1.2-.1.3-.1.5 0 .3.1.5.3.7s.4.3.6.4c.3.1.5.2.8.3s.6.2.8.4c.6.4 1 1.1.9 1.8 0 .3-.1.7-.2 1s-.3.5-.5.7-.5.3-.7.4c-.3.1-.6.1-.9.1s-.6 0-.9-.1c-.2-.1-.5-.2-.7-.3s-.3-.2-.4-.4c-.1-.1-.1-.2-.2-.4l.1-.3.3-.2.2.1.3.3c.1.1.3.2.5.3.4.3.7.3.9.3"/><path d="m80.9 101.5-.2.2-.3.1-.3-.1-.2-.2-1-3.5-.9 3.5-.2.2-.3.1-.3-.1-.2-.2-2.1-7v-.1l.2-.3.4-.1h.2l.1.2 1.8 6.3 1-3.9.2-.2.3-.1.3.1.2.2 1 3.9 1.8-6.3.1-.2h.2l.4.1.2.3v.1z"/><path d="m87.5 96.4c0-.4-.1-.8-.4-1.1s-.6-.4-1-.4-.7.1-1 .4-.4.7-.4 1.1v3.2c0 .4.1.8.4 1.1s.6.4 1 .4.7-.1 1-.4.4-.7.4-1.1zm-1.4 5.4c-.3 0-.6 0-.9-.1s-.5-.2-.7-.4-.4-.4-.5-.7-.2-.7-.2-1.1v-3.2c0-.4 0-.7.2-1.1.1-.3.3-.5.5-.7s.5-.3.7-.4c.6-.2 1.2-.2 1.8 0s1 .6 1.2 1.1c.1.3.2.7.2 1.1v3.2c0 .4 0 .7-.2 1.1-.1.3-.3.5-.5.7s-.5.3-.7.4c-.3.1-.6.1-.9.1z"/><path d="m90.7 94.9v2.8h1.4c.4 0 .7-.1 1.1-.3.5-.6.5-1.5 0-2.1-.3-.2-.7-.3-1.1-.3zm-.9-.5.1-.2.2-.1h1.9c.3 0 .6 0 .9.1s.5.2.7.3c.2.2.4.4.5.6.1.3.2.7.2 1s0 .6-.1.8-.2.4-.3.6-.3.3-.5.4-.4.2-.6.2l1.6 3v.2l-.2.3-.4.1-.2-.1-.2-.2-1.6-3.1h-1.2v3.1l-.1.2-.3.1-.3-.1-.1-.2z"/><path d="m96.4 94.9v6.1h1.4c.4 0 .7-.1 1-.4s.4-.7.4-1.1v-3.1c0-.4-.1-.8-.4-1.1s-.6-.4-1-.4zm1.4-.8c.3 0 .6 0 .9.1s.5.2.7.4.4.4.5.7.2.7.2 1.1v3.1c0 .4 0 .7-.2 1.1-.1.3-.3.5-.5.7s-.5.3-.7.4c-.3.1-.6.1-.9.1h-1.9l-.3-.1-.1-.2v-7.1l.1-.2.3-.1z"/></g><path d="m73.6 60.5-1.8-1.8v-1.2-2z" fill="#fff"/><path d="m71.6 62.7.2-5.1h.6l.3 5.1c0 1 .8 1.9 1.9 1.9.6 0 .7 1.2-.1 1.1-1.7-.1-2.9-1.4-2.9-3" fill="#fff"/></g><g transform="translate(950 123)"><path d="m102.6 168.9c-5.8 8.9-8 10.1-16.7 11.5-2.7.4-3.6 1-3.5 3.9 8.4.4 15.6.2 24.1-.1 1.2-2 1.6-3.3 3.8-3.6l.3 3.4 7.5-.2.2-7.1-2-7.5z" fill="#221b14"/><path d="m140.3 31.9-10 12-1.2-.3c-3.7-8.4-3.6-9.7-5.9-18.8l12.1-7.7c.5 3.3 1.5 4.7 2.2 8.3.4 2.3 1.4 4.5 2.8 6.5" fill="#f8d7ae"/><path d="m113.8 28.6c.4.6.3 1.3-.1 1.8.1.6.6 1 1.2 1 2.2-.9 1.8.8 1.7.9-1.6.7-1.2 1.2-.7 1.7.5 0 .8.1.9.3.4.7-.5 2.5.9 3.4 1.7 1.1 7.5-4.1 10.2-6.5 2.2-2 .9-3.5-.2-6.3 1.5-.2 2.5-1 2-3.3 1.2-3.3 1.2-5.7 1.5-9.1 0 0-8.3-10.9-8.6-10.9s-9.5 4-9.5 4c-.6 2.2-2 4.4-2.6 6.9-.5 2.2-.6 4.5-.4 6.8-.1.9.2 1.7.8 2.4.2.2.4.5.6.8.7 2.3-1 5-.7 5.7 0 .5 1.4 1.1 3 .4" fill="#fedea9"/><path d="m121.3 18.9c.3.9.7 1.7 1.2 2.6.3.7.5 1.2.8 1.3.7-1.1 1.1-2.2 1.4-3.5.8-1.7 2.1-3.7 3.6-3.7 1.6 0 1.8 2.9 1.4 5.1-.2 1 0 2 .5 2.8 1 1.3 2.2.1 4 1.1 1.4.9 2.8 1.9 4 3-.3-4-.9-5.4-.2-8.1.9-3.8-.4-10.5-3.5-13.4l.3.1c-2.5-2.2-3.2-3.1-6.6-3.8-2.7-2.4-6.5-2.6-9.9-1.6 1.2-.2 2.4-.1 3.5.1-12.3 1.2-12.4 11-16 11.1 3.7 3.6 6.8 2.3 10.6.3 2.6 1.6 4.2 4.4 4.3 7.5l.5-1.1z" fill="#55210f"/><path d="m134.5 104.5c0-8.7-5-22.4-9.3-33.2-2.2-5.7-3.7-11.6-4.6-17.7-.8-5.5-1.6-7.9 1.6-12.2 1.5-1.9 2.6-4 3.2-6.3.2.6.4 1.2.7 1.7.3 11.7 1 22.2 5.2 31.2 9.4 20.3 15.3 29.1 18.6 35.6-2.4.1-13.8 2.2-15.4.9" fill="#3a4953"/><path d="m111.3 75c-4.4 2.1-23.2 9.4-29.5 11.4l2.4 7.2c6.5-1.3 21.8-4.2 30.4-6.7 2.7-.8 5.9-5.4 3.5-7.9-3.7-3.7.6-7.7-6.8-4" fill="#3a4953"/><path d="m38.1 231.9c18.1-.5 32.4-15.5 31.9-33.7-.5-18.1-15.5-32.4-33.7-31.9s-32.3 15.5-31.8 33.6 15.5 32.4 33.6 32" fill="#1d160f"/><path d="m37.8 219.4c11.2-.3 20.1-9.6 19.8-20.8s-9.6-20.1-20.8-19.8-20.1 9.6-19.8 20.8 9.6 20 20.8 19.8" fill="#e0e0e0"/><path d="m37.7 215.8c6.8-.2 12.7-4.4 15.2-10.7s.8-13.5-4.1-18.1c-4.9-4.7-12.1-5.9-18.3-3.1s-10.1 9-9.9 15.7c.2 9.1 7.9 16.4 17.1 16.2" fill="#323231"/><path d="m78.5 86.9c-.9 1.3-3.3 12.4-4.3 13.7-14.4 18.7-34.8 35.2-30.8 58.8 18 5.9 22.1 11.9 30.3 27.1 6.5 12 11.8 16.4 18.7 17.9l58.4-1.3c15.2-46.3 9.4-29.3 79.9-23.1 4.2-24.2-36.3-33.7-40.5-45.2l-63.9 1.8c-.4 3.2 9 7.4 15.2 13.8 6.9 7.1-15.4 8.2-15.9 32l-36.2-.1c-10.6-8.7-16.1-21.2-15.8-33 .3-14.9 10.7-31 12.4-44.5 1.9-15.3-.5-16.9-7.5-17.9" fill="#323231"/><path d="m128.3 117.4 57-1.5c3.7-.1 6.7 2.8 6.8 6.4l.3 9.8c.1 3.7-2.8 6.7-6.4 6.8l-57 1.5c-3.7.1-6.7-2.8-6.8-6.4l-.3-9.8c-.1-3.7 2.8-6.7 6.4-6.8" fill="#1d160f"/><path d="m36.2 158c13.4-.3 26.2 5.9 34.1 16.7s10.1 24.8 5.8 37.5c-32.4-8.9-28.2-24-75.4-31.9 6.9-13.3 20.5-21.9 35.5-22.3" fill="#455561"/><path d="m194.9 227.7c18.1-.5 32.4-15.5 31.9-33.7s-15.5-32.4-33.7-31.9-32.4 15.5-31.9 33.7c.5 18.1 15.6 32.4 33.7 31.9" fill="#1d160f"/><path d="m194.5 215.3c11.2-.3 20.1-9.6 19.8-20.8s-9.6-20.1-20.8-19.8-20.1 9.6-19.8 20.8 9.6 20 20.8 19.8" fill="#e0e0e0"/><path d="m194.5 211.7c6.8-.2 12.7-4.4 15.2-10.7s.8-13.5-4.1-18.1c-4.9-4.7-12.1-5.9-18.3-3.1s-10.1 9-9.9 15.7c.2 9.1 7.8 16.4 17.1 16.2" fill="#323231"/><path d="m139.9 194.4c-1.5-1-2.3-2.8-2.1-4.5s1.3-3.3 2.9-4.1 3.5-.6 5 .5l12.5 8.9c.1 0 .1.1.2.1l.7.5c.9.7 1.8 1.3 2.8 1.8 1.6.2 3.3.2 4.9 0h.4l35.9-1.1c1.8-.1 3.5.8 4.4 2.4s1 3.4.1 5-2.5 2.6-4.3 2.6l-35.9 1.1h-.4c-3.9.1-5.8.2-7.9-.4s-3.4-1.5-5.9-3.2l-.7-.5c-.1-.1-.2-.1-.3-.2z" fill="#455561"/><path d="m88.5 182.7 39.6-1c1.5 0 2.8 1.2 2.8 2.7s-1.2 2.8-2.7 2.8l-39.6 1c-1.5 0-2.8-1.2-2.8-2.7s1.1-2.8 2.7-2.8" fill="#585d62"/><path d="m61.2 80 11-.3c5.4-.1 9.8 4.1 10 9.5l.1 5.2c.1 5.4-4.1 9.8-9.5 10l-11 .3c-5.4.1-5.8-4.2-6-9.6l-.1-5.2c-.1-5.4.2-9.8 5.5-9.9" fill="#1d160f"/><path d="m61.2 80 4.9 2.2.1 20.3-4.4 2.1c-5.4.1-5.8-4.2-6-9.6l-.1-5.2c-.1-5.3.2-9.7 5.5-9.8" fill="#dfe0e2"/><path d="m61.2 80 5.9-.2.6 24.6-5.9.2c-.3 0-.6 0-.9 0l-.5-24.6z" fill="#455561"/><path d="m82.2 88.8 27.4 6.9c2.1.6 3.5 2.5 3.6 4.6.1.9-.2 1.8-.9 2.4s-1.6.8-2.5.5l-27.4-6.9c-2.1-.6-3.5-2.5-3.6-4.6-.1-.9.2-1.8.9-2.4s1.7-.8 2.5-.5" fill="#1d160f"/><path d="m98 122.4 3.2 47.6 15.6-1.2-2.5-26.1-2.2-27.4c-10.6-3.4-14.8 1.2-14.1 7.1" fill="#3a4953"/><path d="m132.7 128.2c7.8-.1 26.2-3.8 32.3-8.9l-8.8-21-26 7.6-25.9 8.1c-8.1 2.8-5.9 8.4-3.7 12.6l4.5 4.9c11.1-2.1 18.4-3.2 27.6-3.3" fill="#1f3059"/><path d="m170.9 95.5-16.9-8-10.9 9.5-1.9 3.6-3.9 4-31.6 8.2c-2.5.9-3.7.9-5.5 3.2-3.6 4.6-.1 8.8 6.5 15.3 9.2-.3 28.1-.7 35.9-1.8 19.8-2.8 36.2-9.6 28.3-34" fill="#455561"/><path d="m128.8 67.3c-3 6.2-8.5 17.2-14.5 19.3-2 .4-6.9-3.4-4.2-9.8.7-2.2 2.3-2.9 6-18 3.3-13.7 6.3-20.4 15.4-16.2 10.9 5.2.2 19.8-2.7 24.7" fill="#3a4953"/><path d="m140 29.5c1.1.4 2.3 2.1 4.9 2.3 7.6.8 7.1 2 10.1 4.6 5.1 4.6 8.5 22.2 10.8 40.7.6 5.1 4.7 13.9 5.5 18.7-2.7 4.8-27 5.3-29.8 2.8-6.5-11.1-10.2-17.2-14.5-27.9-2.5-6.3-4.7-12.3-5.4-17.1-.9-5.5-2.7-7.9.5-12.1 1.5-1.9 2.6-4 3.2-6.3 4.4 12.6 12.9-6.4 14.7-5.7" fill="#92d2f4"/><path d="m141.5 29.8c9.8 2.9 10.8 1.7 15.2 5.8s8.1 22.8 10.4 41.3c.6 5.1 7 25.4 10.3 30.2-2 1.8-12.2 3.8-17.8 4.2-12.4-17.2-20.2-33.2-22.1-47.8-1.8-13.7 2.1-26.2 4-33.7" fill="#3a4953"/><path d="m133.1 85c-2.9-4.5-5.3-9.3-7.3-14.2-2.3-5.5-4-11.2-5.1-17.1-.9-5.5-1.6-7.9 1.6-12.2l1.4-2.1c5 16.5 6.9 28.6 9.4 45.6" fill="#3a4953"/><path d="m155.4 57.5c-1.3 4.1-5 16.3-7.2 20.8-.1.3-11.4 8.8-11.9-4-.6-1.2 2.7-11.8 4.2-27.7 1.3-13.1 9.8-14 14.1-11.2 3.9 2.6 4.4 10.4.8 22.1" fill="#455561"/><path d="m98.5 92.1c-1.1.3-2.2 1-2.9 2-.9 1-2.5 2.2-2.6 2.4-.5 1.1-.9 2.2-1.3 3.3.2 2.3 0 3.6 1.1 3.6.7 0 1-1 1.4-3.3l.6-1.1c-.4.9-.4 1.9-.2 2.9.1.6.4 1 .9 1.3s1.1.3 1.6 0c.4-.1.2-.4.2-.9l-.1-1.1c.9-.9 1.7-1.8 2.6-2.7-.8.9-1.5 1.9-1.9 3-.2 1 .6 1.3 1.4 1.6 1.1.4 1.4-1.5 3.3-3.3-.7.7-1.3 1.7-1.6 2.7-.1.9 1 .9 1.7.6 3-1.3 5.8-3 8.5-4.9 1-.8 1.6-1.6 2.3-2 1.7-.9 4.3-2.6 6.1-3.4l-3.9-7-7.1 3.8c-1-.2-9.1 2.2-10.1 2.5" fill="#fedea9"/><path d="m138.7 28c-1.7 4.7-4.9 8.7-9 11.5 0 .1.1.2.1.2 2.2 1.2 4.1 2.9 5.5 4.9 2.1-4.4 5.7-9.8 5-15z" fill="#b8e0f8"/><path d="m125.6 35c.5 2.1 2.1 3.8 4.1 4.5 0 0 .2.1 0 .2-1.2 1.2-2.2 2.3-2.7 5.7-1.4-2.4-2.3-5-2.6-7.7z" fill="#b8e0f8"/><path d="m204.8 154.3c-12.9-3.6-26.8-.7-37.2 7.9s-15.9 21.6-14.8 35c33.5-.7 33.2-16.4 81-12.5-3.4-14.7-14.5-26.4-29-30.4" fill="#455561"/><path d="m146.5 80c-10.3 7.4-21.1 10.5-32.6 16.7-1.4-2.8-3.3-5.3-5.4-7.5 0 0 21.3-13 29.6-20 6.1-5.1 15.3 5.7 8.4 10.8" fill="#455561"/><path d="m109.3 169.4c-5.8 8.9-8 10.1-16.7 11.5-2.7.4-3.6 1.1-3.5 3.9 8.5.4 15.6.2 24.1-.1 1.2-2 1.6-3.3 3.8-3.6l.3 3.4 7.5-.2.2-7.1-2-7.5z" fill="#1d160f"/><path d="m99 123.3 9.1 49.1 15.6-1.2-3.1-35.2-7.4-19.8c-10.7-3.3-14.9 1.2-14.2 7.1" fill="#455561"/></g><g transform="translate(154 38)"><path d="m126.6 111.5s9.2 2.4 9.8 2.6c.5.1 2.5 4.9 2.5 5.7s-1.8 2.3-2.5 2.3-6.8.4-6.8-.3-.5-1.2.5-1.9c1-.8 2.5-2.6-.1-4.2-3.5-2.1-5.7 3.3-7.6 2.3-1.6-1-2.7-2.6-3-4.4-.2-2.2 7.2-2.1 7.2-2.1" fill="#f5a37f"/><path d="m129.4 120.9h-2.2c-1.4 0-2.6-1.2-2.6-2.6v-.4c0-1.4 1.2-2.6 2.6-2.6h2.2c1.4 0 2.6 1.2 2.6 2.6v.4c0 1.4-1.2 2.6-2.6 2.6" fill="#313131"/><path d="m107.4 255.2c0 12-7.2 22.8-18.3 27.4s-23.9 2.1-32.3-6.4c-8.5-8.5-11-21.3-6.4-32.3s15.4-18.3 27.4-18.3c16.3-.1 29.6 13.2 29.6 29.6" fill="#313131"/><path d="m99.6 255.2c0 8.9-5.3 16.9-13.5 20.3s-17.6 1.5-23.9-4.8-8.2-15.7-4.8-23.9 11.4-13.5 20.3-13.5c12.1-.1 21.9 9.7 21.9 21.9" fill="#878787"/><path d="m43.2 124.9h-4.5c-1.2 0-2.1-1-2.1-2.1v-14.5c0-1.2 1-2.1 2.1-2.2h4.5c1.2 0 2.1 1 2.1 2.2v14.5c0 1.1-.9 2.1-2.1 2.1" fill="#3c3c3b"/><path d="m39 111.7c-.5 0-1-.4-1-1v-7.7c0-.3.2-.7.5-.8s.7-.2 1 0 .5.5.5.8v7.8c0 .5-.5.9-1 .9" fill="#3c3c3b"/><path d="m89.9 86.4c-4.5 4.6 5.7 13 10.9 16.9s21.5 13.7 21.5 13.7l4.5-5.4c-7.2-9.2-15.3-17.7-24.2-25.3-1.4-1.1-8.1-4.5-12.7.1" fill="#f5a37f"/><path d="m48.2 256.6s4.7 7 4.2 8.6c-.3.9-.3 4.1-4.5 3.9-3.2-.2-10-2-11.5-3.9-1.2-1.4-.6-10.4-.6-10.4z" fill="#1b1b1b"/><path d="m70.5 50c-5.5 2.2-5.3 7.4-2.8 12.6s20.8 29.4 22.6 29.8 9.2-3.7 9.1-6.4c-.2-2.7-12.6-25.6-15.4-29.5-2.8-4-7.1-9.1-13.5-6.5" fill="#f5a37f"/><path d="m68.6 47c2.2-.1 9 .5 14 7.3 3.6 4.9 10.2 14.5 10.2 14.5-1.2 3-3 5.7-5.4 7.9-2.5 2.4-5.6 4-8.9 4.8 0 0-15-19.6-16.3-24.3-.4-1.3.2-9.7 6.4-10.2" fill="#1e3260"/><path d="m52.7 24.5s-.8 17-1.8 17.8c-3.1 2.5-14.2 4.7-16.3 9.1-2.5 5.4 11.3 29.6 13 37.6 1.8 8-2 20.4-3.2 28.3s23.5 17.4 24.4 17.4 8.9-7.4 10.4-10 .1-22.7.1-27.8 1.2-23.1 1.5-24.3c.9-5.2.7-10.6-.7-15.7-.3-1.7-.2-4.4-1-5.5-1.7-2.1-10.9-4.9-11-6s-1.4-15.8-1.4-15.8z" fill="#fac39d"/><path d="m50.9 42.2 14.9 8.9 2.1-5.8s9.8 3.1 11 5.2 1.9 7.5 2.3 9.2.6 9.6 0 16.4c-.4 4-.3 9.3-.9 16-.5 5.8.1 20.3.1 20.3s-5.5.2-14.2-.2c-10-.5-20-2.1-20.5-2.4-1.9-1.6.8-17 .4-18.7s-12.5-31.3-12.7-35.1c-.3-3.4 1.6-6.5 4.7-7.9 3-1.5 12.8-5.9 12.8-5.9" fill="#1e3d7f"/><path d="m39.6 47.4s-9.7 5.4-.1 12.8c4.2 3.2 24 8.2 27.8 9.4 13.4 4.1-7.3 33.7-8.9 35.9-1 1.6-1.5 3.4-1.6 5.3l-12.8-1.5c-4 .8 2.1-18.4.6-22.5s-11.2-27.7-11.2-30.8c0-4 2.5-7.5 6.2-8.6" fill="#1e3260"/><path d="m67.1 36-15-5.4-.4 8.9 4.6 2.8z" fill="#f5a37f"/><path d="m70.3 7.3c-3.9-3.3-15.1-6-20.3 1.5s-2.5 14.7.6 19c2.4 3.4 4.8 5.2 9.3 7.1.9.4 9.2 1.5 10.8.8 1.1-.4 1.6-8.6 2-8.6.3 0 1.2-.5 1.2-1.2 0-1-1.2-6.8-1-7.4s1.9-7.4-2.6-11.2" fill="#fac39d"/><path d="m72.7 10.9s-6.4-3.3-13.9 4.1c-1.6 1.6 1.8 7.9 1.4 8.5s-6.3-4.5-6.1-3.8c2.5 7.4.3 11.6-.4 11.7-2.1.2-8.9-10.1-6-18.8s12-9.9 14.2-9.5 8.9.6 10.8 7.8" fill="#55210f"/><path d="m57.9 21.3c.8 2.4 1.3 5.6 0 6s-3-1.1-3.8-3.5-.5-4.6.8-5.1 2.2.2 3 2.6" fill="#f8bc95"/><path d="m58.6 254.1h9.6v1.8h-9.6z" fill="#1b1b1b"/><path d="m59 241.4c-1.2 2.1-2 4.4-2.2 6.8-.2 1.9 1 5.9 2.2 5.9 3.9 0 7.9.2 11.8.7 3.8.5 5.2 2.7 14.8 2.6 2.8 0 7.7-.2 7.7-1.3 0-5-9.2-3.2-12.1-5.9-7.4-6.8-12.3-8.5-12.3-8.5s-9.6-.7-9.9-.3" fill="#1b1b1b"/><path d="m63.6 110.2s-12.8 12.8-13.4 18.4 4.8 23.5 6.7 37.6 3.1 16.9 2.6 20.2-4.2 16.8-4.1 25.7c.1 10.5-.4 31.9-.4 31.9s2.8 2.2 10 2.2c4.6 0 8.6-3.3 8.6-3.3s2.9-52.6 3.5-58.1c.4-3.6 3.3-28.2 4.2-48.3.3-6.5-1.2-25-1.2-27.6z" fill="#1e3260"/><path d="m65.1 47.6.7 3.5-7.8-4.7z" fill="#1b1b1b"/><path d="m65.8 51.2 1.2-4.4 1.9 1.5z" fill="#1b1b1b"/><path d="m42.3 112.3s-3.9 13-5.2 21.5.4 52.1 0 56.2c-.3 4.1-1.7 16.8-2.6 29.3s.3 37.3.3 37.3l16 1s4.6-52.7 5.3-61 12.5-67.8 12.5-67.8l.2-16.1z" fill="#184287"/><g fill="#1e3260"><path d="m46.1 147.6c-.8 5.7-1.2 43.7-1.3 45.8s-4.5 60.8-4.7 63.5l-5.3-.3s-1.1-24.8-.3-37.3 2.2-25.2 2.6-29.3-1.3-47.7 0-56.2 5.2-21.5 5.2-21.5l13.3.8c.1-.1-8.7 28.8-9.5 34.5"/><path d="m48.9 43.1 2.8-3.7 13.5 8.2-2.2 4.8z"/><path d="m67 46.8 3.2 3.7.5-3.9-2.6-2.6z"/><path d="m80.1 115h-37.7c-.9 0-1.6-.7-1.6-1.6v-4.2c0-.9.7-1.6 1.6-1.6h37.7c.9 0 1.6.7 1.6 1.6v4.2c0 .9-.7 1.6-1.6 1.6"/><path d="m67.7 1.5c-3.2-1.9-10.6-.4-10.6-.4 2.4-.9-8.6 2.5-9.8 5.5-.9 2.2-.2 6.5-.2 6.5s9.9-1.4 14.5-2.6 11.6-2.3 11.6-2.3z"/></g><path d="m46.8 16.5 27.2-5.1-.8-3.5-26.5 4.7z" fill="#294783"/><path d="m57.1 14.6s23.6.1 23.6-1.4c0-.9-6.7-1.8-6.7-1.8z" fill="#1e3260"/><path d="m70.2 8.1 2.8-.4.6 3.5-2.8.5z" fill="#92d2f4"/><path d="m70.3 253.7h8.2l39.6-129.7c1.2-3.9-1.6-7.4-5.9-7.4z" fill="#bfc3c6"/><path d="m112.9 116.6c2.3 1.3 3.4 4 2.5 6.6l-39.6 129.6h-5.2l-.2.8h8.2l39.5-129.6c1.2-3.8-1.3-7.1-5.2-7.4" fill="#878787"/><path d="m107.3 126.1h15.6c1.9 0 3 1.6 2.2 3.2l-14.6 28.5c-.6 1.1-1.8 1.8-3 1.8h-8.2c-.7.1-1.4-.2-1.9-.7s-.7-1.3-.5-2l7.2-28.5c.4-1.4 1.7-2.3 3.2-2.3" fill="#d1d1d1"/><path d="m124.4 126.6c0 .1 0 .2-.1.2l-14.6 28.5c-.6 1.1-1.8 1.8-3 1.8h-8.2c-.5 0-1.1-.2-1.5-.5l-.1.3c-.2.7 0 1.4.5 2s1.2.8 1.9.7h8.2c1.2 0 2.4-.7 3-1.8l14.6-28.5c.3-.5.3-1 .2-1.5s-.5-1-.9-1.2" fill="#babab8"/><path d="m38.7 255.4h58.3v6.6h-58.3z" fill="#4a4a49"/><path d="m83.2 243.6h-12.4c-1.5 0-2.9.6-3.9 1.6s-1.6 2.4-1.6 3.9v6.3h23.5v-6.3c0-1.5-.6-2.9-1.6-3.9s-2.5-1.6-4-1.6" fill="#4a4a49"/><path d="m127.5 120.2h-30.9l.4-4h26.4s2.9-.1 4.5 0c1 .1 1.8 4-.4 4" fill="#bfc3c6"/><path d="m59.6 266.3c0 12-7.2 22.8-18.3 27.4s-23.9 2.1-32.3-6.4c-8.5-8.5-11-21.3-6.4-32.3 4.6-11.1 15.4-18.3 27.4-18.3 16.3-.1 29.6 13.2 29.6 29.6" fill="#313131"/><path d="m51.8 266.3c0 8.9-5.3 16.9-13.5 20.3s-17.6 1.5-23.9-4.8-8.2-15.7-4.8-23.9 11.4-13.5 20.3-13.5c5.8 0 11.4 2.3 15.5 6.4s6.4 9.7 6.4 15.5" fill="#878787"/><path d="m38 271c2.4-5.2 8-8 13.6-6.9-.3-3.4-1.5-6.7-3.3-9.6-3.4 4.7-9.7 6.4-15 3.9s-8.1-8.2-6.8-13.9c-3.4.5-6.6 1.8-9.4 3.8 4.4 3.3 6 9.2 3.9 14.3s-7.4 8.2-12.9 7.4c.5 3 1.7 5.8 3.4 8.3 3.6-3.9 9.2-5 14-2.8s7.6 7.2 7 12.4c3-.4 5.9-1.4 8.5-2.9-4-3.4-5.2-9.2-3-14" fill="#b2b2b2"/><path d="m95.7 121.4h-2.9c-1.5 0-2.8-1.3-2.8-2.8s1.3-2.8 2.8-2.8h2.9c1.5 0 2.8 1.3 2.8 2.8s-1.3 2.7-2.8 2.8" fill="#313131"/><path d="m36.2 51.2c-5.5 2.2-5.4 7.2-3 12.3s22.6 32.5 24.4 32.9 9.2-3.7 9.1-6.4c-.1-2.6-14.5-28.8-17.2-32.6-2.8-3.8-7-8.7-13.3-6.2" fill="#fac39d"/><path d="m40.7 48.2c2.2.5 7.6 4.5 9.4 8.4 2.6 5.5 10.4 19.3 10.4 19.3-1.9 2.6-4.5 4.7-7.4 6.1-3 1.6-6.5 2.4-9.9 2.2 0 0-11.4-21.9-11.9-26.8-.5-3.9 3.3-10.5 9.4-9.2" fill="#1e3260"/><path d="m55.3 87.8c-4.4 4.7 6 12.9 11.3 16.7s21.8 13.2 21.8 13.2l4.4-5.5c-7.5-9-15.8-17.3-24.8-24.7-1.5-1.1-8.3-4.4-12.7.3" fill="#fac39d"/><path d="m92.7 112.3s9.2 2.4 9.8 2.6 2.5 4.9 2.5 5.7-1.8 2.2-2.5 2.2-6.8.4-6.8-.3-.5-1.2.5-1.9c1-.8 2.5-2.6-.1-4.2-3.5-2.1-5.7 3.3-7.6 2.3-1.6-1-2.7-2.6-3-4.4-.2-2.2 7.2-2 7.2-2" fill="#fac39d"/></g><g fill="#d9ebf7"><path d="m486.7 160h-7.5l2-26.9h7c3.6 0 6.5 1 8.7 3.1s3.3 4.9 3.3 8.5c0 5-1.2 8.8-3.7 11.4s-5.8 3.9-9.8 3.9zm1-24.3h-3.7l-1.6 21.6h4.6c2.9 0 5.2-1 7.1-3s2.8-5 2.8-9.1c0-3-.8-5.3-2.5-7-1.6-1.7-3.9-2.5-6.7-2.5z"/><path d="m508.4 139.7-1.8 20.3h-2.9l1.8-19.9zm-2.7-6.1c0-.6.2-1.1.6-1.5s.9-.6 1.5-.6c.5 0 .9.1 1.2.4s.4.7.4 1.2-.2 1-.5 1.4c-.4.4-.8.6-1.5.6-.5 0-.8-.1-1.1-.4-.5-.2-.6-.6-.6-1.1z"/><path d="m524.4 139.9 2.5-.4-1.8 20.7c-.2 2.8-1.1 4.7-2.7 5.9-1.5 1.2-3.3 1.8-5.4 1.8-1 0-2 0-2.9-.1s-1.9-.2-2.9-.4v-2.8c1 .3 2 .5 2.9.6s1.8.2 2.7.2c1.6 0 2.8-.4 3.7-1.2s1.5-2.1 1.7-3.9l.4-3.6h-.1c-.9 1.3-1.9 2.2-2.9 2.8s-2.1.9-3.2.9c-1.3 0-2.4-.5-3.3-1.6-.8-1.1-1.3-2.8-1.3-5.4 0-4.5 1-7.9 2.9-10.2 2-2.4 4.2-3.6 6.6-3.6.6 0 1.1 0 1.6.1.5 0 1 .1 1.5.2zm-1.8 13.8 1-11.4c-.4-.1-.8-.1-1.2-.2-.5 0-.9-.1-1.4-.1-1.5 0-3 .9-4.3 2.8s-2 4.7-2 8.3c0 1.7.2 2.8.7 3.5s1.1 1 1.7 1c.7 0 1.5-.3 2.5-1 1.1-.6 2-1.6 3-2.9z"/><path d="m535.1 139.7-1.8 20.3h-2.9l1.8-19.9zm-2.7-6.1c0-.6.2-1.1.6-1.5s.9-.6 1.5-.6c.5 0 .9.1 1.2.4s.4.7.4 1.2-.2 1-.5 1.4c-.4.4-.8.6-1.5.6-.5 0-.8-.1-1.1-.4-.5-.2-.6-.6-.6-1.1z"/><path d="m538.6 142.3v-2.3h2.3l.4-4.3 2.9-.5-.5 4.8h4.1l-.2 2.3h-4.1l-1.2 11.8c-.1 1.4 0 2.4.3 2.9s.8.8 1.5.8c.5 0 1 0 1.4-.1s.9-.2 1.5-.4v2.6c-.7.2-1.3.4-1.8.5s-1.2.1-2 .1c-1.4 0-2.4-.5-3.1-1.4s-.9-2.5-.7-4.7l1.2-12h-2z"/><path d="m562.3 139.9 2.5-.4-1.8 20.5h-2.8l.3-3.3h-.1c-.9 1.3-1.9 2.2-2.9 2.8s-2.1.9-3.2.9c-1.3 0-2.4-.5-3.3-1.6-.8-1.1-1.3-2.8-1.3-5.4 0-4.5 1-7.9 2.9-10.2 2-2.4 4.2-3.6 6.6-3.6.6 0 1.1 0 1.6.1.6 0 1 .1 1.5.2zm-1.7 13.8 1-11.4c-.4-.1-.8-.1-1.2-.2-.5 0-.9-.1-1.4-.1-1.5 0-3 .9-4.3 2.8s-2 4.7-2 8.3c0 1.7.2 2.8.7 3.5s1.1 1 1.7 1c.7 0 1.5-.3 2.5-1 1-.6 2-1.6 3-2.9z"/><path d="m573.8 131.2-2.6 28.7h-2.9l2.6-28.4z"/><path d="m595.5 150v-2.7h7.6l-.9 12.3c-1.3.2-2.5.4-3.7.5-1.1.1-2.4.2-3.6.2-3.3 0-5.9-1-8-3s-3.2-4.8-3.2-8.4c0-5.3 1.4-9.3 4.2-12s6-4.1 9.8-4.1c1.1 0 2.2 0 3.2.1s2 .2 3 .4l-.2 2.8c-1.1-.2-2.1-.4-3.1-.5-.9-.1-1.9-.1-3-.1-2.8 0-5.3 1.1-7.3 3.3-2.1 2.2-3.1 5.3-3.1 9.2 0 3.1.8 5.5 2.4 7.1s3.5 2.4 5.8 2.4h2.1c.6 0 1.3-.1 2-.2l.5-7.3z"/><path d="m613.6 160.3c-2.1 0-3.7-.6-4.9-1.9s-1.8-3.3-1.8-6.3c0-4.1.9-7.2 2.6-9.4 1.8-2.2 3.8-3.3 6.2-3.3 2.1 0 3.7.7 4.9 2.1s1.8 3.4 1.8 6.2c0 4-.9 7.1-2.7 9.3-1.7 2.2-3.8 3.3-6.1 3.3zm-3.7-8.5c0 2.3.4 3.9 1.1 4.7.8.8 1.7 1.3 2.8 1.3 1.3 0 2.6-.8 3.8-2.3 1.2-1.6 1.8-4 1.8-7.3 0-2.1-.4-3.7-1.1-4.6-.7-1-1.7-1.4-3-1.4s-2.5.8-3.7 2.4c-1.1 1.6-1.7 4-1.7 7.2z"/><path d="m628.6 160-3.5-20h3.1l2.7 17.4h.2l1.1-2.3c1-2.1 1.9-4.3 2.6-6.6.7-2.4 1.3-5.2 1.8-8.5h3c-.5 3.2-1.2 6-2.1 8.6-.9 2.5-1.9 5-3.2 7.3l-2.2 4.2h-3.5z"/><path d="m640.7 152.9c0-4.5.9-7.9 2.7-10.1s3.7-3.3 5.8-3.3c1.7 0 3 .4 3.9 1.2s1.4 2 1.4 3.4c0 2.3-1 4.2-2.9 5.6s-4.6 2.2-7.9 2.2c0 2.2.4 3.8 1.1 4.5.7.8 1.7 1.2 3 1.2.9 0 1.8-.1 2.7-.4.9-.2 1.7-.6 2.6-1.1v2.7c-1 .5-1.9.9-2.8 1.1s-2 .3-3.3.3c-2 0-3.5-.6-4.6-1.8-1.2-1-1.7-2.9-1.7-5.5zm10.7-8.4c0-.8-.2-1.4-.7-1.8-.4-.4-1.1-.6-1.8-.6-1 0-2 .6-3.1 1.9-1 1.2-1.7 3.2-2 5.7 2.4 0 4.3-.5 5.6-1.5 1.4-1 2-2.2 2-3.7z"/><path d="m667.4 139.8-.4 2.9c-.2 0-.4 0-.6-.1-.2 0-.4 0-.6 0-.8 0-1.6.4-2.4 1.1s-1.7 1.7-2.4 3l-1.1 13.3h-2.9l1.7-19.9 2.9-.4-.4 3.8h.2c.9-1.6 1.7-2.7 2.4-3.2s1.5-.7 2.3-.7c.2 0 .5 0 .7.1s.4 0 .6.1z"/><path d="m678.6 160 1.3-13.2c.2-1.6 0-2.8-.3-3.4-.4-.6-.9-.9-1.6-.9-.6 0-1.4.3-2.3.8s-2 1.3-3.3 2.4l-1.4 14.3h-2.9l1.8-19.9 2.9-.4-.3 3.1h.1c1.2-1.2 2.3-2 3.2-2.5 1-.5 1.9-.7 2.9-.7 1.4 0 2.5.5 3.3 1.5s1 2.8.8 5.2l-1.3 13.7z"/><path d="m686.7 160 1.8-19.9 2.9-.4-.3 3.1h.1c1.2-1.2 2.2-2 3.1-2.5s1.8-.7 2.8-.7c1.1 0 2 .3 2.6.8.6.6 1 1.4 1.3 2.5h.1c1.2-1.2 2.2-2 3.2-2.5s2-.8 3-.8c1.4 0 2.4.5 3.2 1.6.8 1 1 2.8.8 5.2l-1.3 13.6h-2.9l1.3-13.2c.2-1.6 0-2.8-.3-3.4-.4-.6-.9-.9-1.5-.9s-1.4.2-2.2.7-1.8 1.2-3 2.2l-1.4 14.7h-3l1.3-13.2c.2-1.6.1-2.8-.2-3.4s-.8-.9-1.6-.9c-.6 0-1.4.3-2.3.8s-1.9 1.3-3.2 2.4l-1.3 14.4h-3z"/><path d="m714.9 152.9c0-4.5.9-7.9 2.7-10.1s3.7-3.3 5.8-3.3c1.7 0 3 .4 3.9 1.2s1.4 2 1.4 3.4c0 2.3-1 4.2-2.9 5.6s-4.6 2.2-7.9 2.2c0 2.2.4 3.8 1.1 4.5.7.8 1.7 1.2 3 1.2.9 0 1.8-.1 2.7-.4.9-.2 1.7-.6 2.6-1.1v2.7c-1 .5-1.9.9-2.8 1.1s-2 .3-3.3.3c-2 0-3.5-.6-4.6-1.8-1.1-1-1.7-2.9-1.7-5.5zm10.7-8.4c0-.8-.2-1.4-.7-1.8-.4-.4-1.1-.6-1.8-.6-1 0-2 .6-3.1 1.9-1 1.2-1.7 3.2-2 5.7 2.4 0 4.3-.5 5.6-1.5 1.4-1 2-2.2 2-3.7z"/><path d="m741.6 160 1.3-13.2c.2-1.6 0-2.8-.3-3.4-.4-.6-.9-.9-1.6-.9-.6 0-1.4.3-2.3.8s-2 1.3-3.3 2.4l-1.3 14.4h-3.1l1.8-19.9 2.9-.4-.3 3.1h.1c1.2-1.2 2.3-2 3.2-2.5 1-.5 1.9-.7 2.9-.7 1.4 0 2.5.5 3.3 1.5s1 2.8.8 5.2l-1.3 13.7h-2.8z"/><path d="m749.6 142.3v-2.3h2.3l.4-4.3 2.9-.5-.5 4.8h4.1l-.2 2.3h-4.1l-1.2 11.8c-.1 1.4 0 2.4.3 2.9s.8.8 1.5.8c.5 0 1 0 1.4-.1s.9-.2 1.5-.4v2.6c-.7.2-1.3.4-1.8.5s-1.2.1-2 .1c-1.4 0-2.4-.5-3.1-1.4s-.9-2.5-.7-4.7l1.2-12h-2z"/><path d="m780.3 133.1 5.3 26.9h-3.4l-1.3-7h-9.8l-2.4 7h-3.3l10.3-26.9zm-2.5 2.4h-.3l-5.3 14.8h8.4z"/><path d="m801.4 139.9 2.5-.4-1.8 20.7c-.2 2.8-1.1 4.7-2.7 5.9-1.5 1.2-3.3 1.8-5.4 1.8-1 0-2 0-2.9-.1s-1.9-.2-2.9-.4v-2.8c1 .3 2 .5 2.9.6s1.8.2 2.7.2c1.6 0 2.8-.4 3.7-1.2s1.5-2.1 1.7-3.9l.4-3.6h-.1c-.9 1.3-1.9 2.2-2.9 2.8s-2.1.9-3.2.9c-1.3 0-2.4-.5-3.3-1.6-.8-1.1-1.3-2.8-1.3-5.4 0-4.5 1-7.9 2.9-10.2s4.2-3.6 6.6-3.6c.6 0 1.1 0 1.6.1.6 0 1.1.1 1.5.2zm-1.7 13.8 1-11.4c-.4-.1-.8-.1-1.2-.2s-.9-.1-1.4-.1c-1.5 0-3 .9-4.3 2.8s-2 4.7-2 8.3c0 1.7.2 2.8.7 3.5s1.1 1 1.7 1c.7 0 1.5-.3 2.5-1 1.1-.6 2-1.6 3-2.9z"/><path d="m807.1 152.9c0-4.5.9-7.9 2.7-10.1s3.7-3.3 5.8-3.3c1.7 0 3 .4 3.9 1.2s1.4 2 1.4 3.4c0 2.3-1 4.2-2.9 5.6s-4.6 2.2-7.9 2.2c0 2.2.4 3.8 1.1 4.5.7.8 1.7 1.2 3 1.2.9 0 1.8-.1 2.7-.4.9-.2 1.7-.6 2.6-1.1v2.7c-1 .5-1.9.9-2.8 1.1s-2 .3-3.3.3c-2 0-3.5-.6-4.6-1.8-1.2-1-1.7-2.9-1.7-5.5zm10.7-8.4c0-.8-.2-1.4-.7-1.8-.4-.4-1.1-.6-1.8-.6-1 0-2 .6-3.1 1.9-1 1.2-1.7 3.2-2 5.7 2.4 0 4.3-.5 5.6-1.5s2-2.2 2-3.7z"/><path d="m833.7 160 1.3-13.2c.2-1.6 0-2.8-.3-3.4-.4-.6-.9-.9-1.6-.9-.6 0-1.4.3-2.3.8s-2 1.3-3.3 2.4l-1.3 14.4h-2.9l1.8-19.9 2.9-.4-.3 3.1h.1c1.2-1.2 2.3-2 3.2-2.5 1-.5 1.9-.7 2.9-.7 1.4 0 2.5.5 3.3 1.5s1 2.8.8 5.2l-1.3 13.7h-3z"/><path d="m857.5 131.2-2.6 28.7h-2.9l.3-3.3h-.1c-.9 1.3-1.9 2.2-2.9 2.8s-2.1.9-3.2.9c-1.3 0-2.4-.5-3.3-1.6-.8-1.1-1.3-2.8-1.3-5.4 0-4.5 1-7.9 2.9-10.2s4.2-3.6 6.6-3.6c.5 0 1 0 1.4.1s.8.1 1.2.2l.7-8.2zm-5 22.5 1.1-11.4c-.4-.1-.8-.1-1.3-.2s-.9-.1-1.4-.1c-1.5 0-3 .9-4.3 2.8s-2 4.7-2 8.3c0 1.7.2 2.8.7 3.5s1.1 1 1.7 1c.7 0 1.5-.3 2.5-1 1.1-.6 2-1.6 3-2.9z"/><path d="m872.6 139.9 2.5-.4-1.8 20.5h-2.8l.3-3.3h-.1c-.9 1.3-1.9 2.2-2.9 2.8s-2.1.9-3.2.9c-1.3 0-2.4-.5-3.3-1.6-.8-1.1-1.3-2.8-1.3-5.4 0-4.5 1-7.9 2.9-10.2s4.2-3.6 6.6-3.6c.6 0 1.1 0 1.6.1.6 0 1.1.1 1.5.2zm-1.7 13.8 1-11.4c-.4-.1-.8-.1-1.2-.2s-.9-.1-1.4-.1c-1.5 0-3 .9-4.3 2.8s-2 4.7-2 8.3c0 1.7.2 2.8.7 3.5s1.1 1 1.7 1c.7 0 1.5-.3 2.5-1 1.1-.6 2-1.6 3-2.9z"/></g></svg>