<svg enable-background="new 0 0 1200 400" viewBox="0 0 1200 400" xmlns="http://www.w3.org/2000/svg" xmlns:xlink="http://www.w3.org/1999/xlink"><filter id="a" height="149.3%" width="106.6%" x="-2.7%" y="-22.8%"><feMorphology in="SourceAlpha" operator="dilate" radius="6" result="shadowSpreadOuter1"/><feOffset dx="7" dy="3" in="shadowSpreadOuter1" result="shadowOffsetOuter1"/><feGaussianBlur in="shadowOffsetOuter1" result="shadowBlurOuter1" stdDeviation="6"/><feColorMatrix in="shadowBlurOuter1" type="matrix" values="0 0 0 0 0   0 0 0 0 0   0 0 0 0 0  0 0 0 0.139690897 0"/></filter><path d="m.7.2v400h1200v-400z" fill="#42145f"/><path d="m970 83.2c-4.9-.6-9.7 1.6-12.6 5.6s-3.3 9.3-1.1 13.7 6.6 7.3 11.6 7.5c7.3.3 13.5-5.2 14-12.4s-4.7-13.6-11.9-14.4z" fill="#a90061"/><path d="m972.5 53.2c-15.2-1.2-30 5.4-39.4 17.5-1.1 1.3-1.5 3-1.3 4.7s1.1 3.2 2.4 4.3c2.8 2.2 6.9 1.7 9.1-1.1 6.4-8.4 16.5-13.1 27.1-12.7s20.2 6 25.9 14.9c1.2 1.8 3.3 2.9 5.5 2.9 1.2 0 2.5-.3 3.5-1 3-2 3.8-5.9 1.9-8.9-7.7-11.9-20.6-19.5-34.7-20.6z" fill="#a90061"/><path d="m974.6 25.5c-21.2-1.6-45.3 8-61.3 24.5-2.1 2.6-1.9 6.4.6 8.7s6.2 2.4 8.7.3c13.5-13.9 33.5-22 51-20.7s32.7 9.1 43 22.9c1.2 1.6 3.2 2.6 5.2 2.6 1.4 0 2.7-.4 3.8-1.3 1.4-1 2.3-2.5 2.6-4.2s-.2-3.4-1.2-4.8c-12.7-16.9-30.3-26.3-52.4-28z" fill="#a90061"/><g filter="url(#a)"><path d="m0 239.8v160.4h1200v-160.4z"/></g><path d="m0 239.8v160.4h1200v-160.4z" fill="#42145f"/><g fill="#e3dce7" transform="translate(34 55)"><path d="m467.6 56.6h15.1v-52.9h-8.9v42.8h-.4l-15.5-42.8h-15.2v52.9h9v-42.7h.3zm27.9 0h27.9v-8h-18.3v-44.9h-9.6zm63.3 0c17.4 0 28.2-8.8 28.2-28 0-15.9-10-24.9-27.9-24.9h-15.1v52.9zm-5.1-44.9h4.8c11.4 0 18.3 6 18.3 17.4 0 13.8-6.9 19.5-17.6 19.5h-5.5zm52.7-8h-9.7v52.9h9.7zm34.3 34.4h8.2v10.8c-2 .2-4.1.3-6.1.3-9.1 0-16.5-6.1-16.5-18.5s7.6-19.1 18.2-19.1c3.8 0 7.7.2 11.5.8l.7-8.2c-3.9-.7-7.9-1.1-11.9-1-16.1 0-28.6 9.1-28.6 28.5 0 16.9 10.6 25.5 26.2 25.5 5.3 0 10.6-.5 15.8-1.5v-25.5h-17.5zm38.1-34.4h-9.7v52.9h9.7zm44.2 32.1c0-12.8-6.6-19-16.1-19-3.7-.1-7.3.8-10.5 2.6v-19.1l-5.3.4v55.5c3.8.6 7.6.9 11.5.9 11.9 0 20.4-7.7 20.4-21.3zm-5.7.6c0 10.9-6.1 15.9-13.8 15.9-2.4 0-4.8-.1-7.1-.5v-27.9c2.8-1.4 5.8-2.1 8.9-2.1 7.4 0 12 4.3 12 14.6zm12.5.6c0 14.1 7.1 20.1 17.6 20.1 4.4.1 8.7-.8 12.7-2.7v-5c-3.8 1.8-8 2.7-12.2 2.7-7.4 0-12.9-4.8-12.8-15.5h25.4v-4.3c0-10.4-5.4-15.8-14.7-15.8s-16 7.1-16 20.5zm5.7-5c.8-6.8 5.2-10.8 10.1-10.8s9.2 3.4 9.2 10.8zm30.3-10.2h4.8v23.2c0 9.4 4.8 12.1 10.3 12.1 2.2 0 4.5-.3 6.6-.9v-4.6c-1.8.4-3.6.6-5.4.6-3.6 0-6.2-2.3-6.2-7.4v-23h10.3v-4.5h-10.3v-7.8l-5.3.9v6.9h-4.8zm25.9 15.2c0 14.1 7.1 20.1 17.6 20.1 4.4.1 8.7-.8 12.7-2.7v-5c-3.8 1.8-8 2.8-12.2 2.7-7.4 0-12.9-4.8-12.7-15.5h25.3c.1-1.6.1-3 .1-4.3 0-10.4-5.4-15.8-14.8-15.8s-16 7.1-16 20.5zm5.7-5c.8-6.8 5.2-10.8 10.2-10.8s9.1 3.4 9.1 10.8zm52.2-14.6c-1.5-.4-3-.6-4.5-.6-2.9 0-5.4 1.4-8.5 4.8v-4.6l-5.2.5v39.1h5.3v-30.1c3-3.1 5.1-4.4 7.6-4.4 1.6 0 3.1.2 4.6.7z"/><path d="m74.2 209.2h-71.8v68.7c7.5-.8 16.5-1.4 23.8-1.4 20.2 0 30.2 8.1 30.2 22 0 16.7-15.5 27.4-38.7 27.4h-17.4v18.9h16.3c38 0 63.5-20.2 63.5-49.3 0-23.5-15.3-39.4-44.5-39.4-4.9 0-9 .2-14.1.6v-27.3h52.7z"/></g><path d="m318.6 212.5h59v90.5h-59z" fill="#2b474c"/><path d="m405.1 250.7h-113.8c-4.7 0-8.6-3.9-8.6-8.6v-184.2c0-4.8 3.8-8.6 8.6-8.7h113.8c4.8.1 8.6 3.9 8.6 8.7v184.2c0 4.7-3.9 8.6-8.6 8.6" fill="#19303b"/><path d="m296.7 63.3h102.9v173.4h-102.9z" fill="#e6e8e9"/><path d="m279.5 182 .4.3c-.4 0-.7.2-.9.5l-.3-.2c-.5-.1-1.7-.3-1.5-.9s1.8-.1 2.3.3" fill="#f7b088"/><path d="m280.1 186.9c1.1-1 3-1.5 3.1-3.3s-1-2.8-1.8-4c-.8-1.4-2.2-2.3-3.8-2.4l-3.8-.4c-.3 0-.7 0-1 0h-.8c-.4 0-.8 0-1.1-.2-.8-.4-1.5.8-.7 1.2h.2c-.3.3-.5.7-.7 1.1-.4 1.2.7 2.2 1.5 3s2.3 2.5 4.1 2.7c.8.1 1.7.1 2.5-.2.2.3.7.4 1 .2.4-.2.7-.5 1-.8l-.4.3-.8.7c-.5.3-.2 1.1.3 1.2s.6 1.3 1.2.9" fill="#f7b088"/><path d="m239.8 322.2c-2.5-3.1-9.8-1.9-13.1-1.3-1.3.2-2.5.2-3.8 0-.5-.1-3.2-.4-3.2-1.1-1.2-.9-1.9-2.2-2.2-3.6h-.1c-.5-.4.3-1.8-.3-1.5s-2.8 5-3.2 6.4c-1 3.9 1.8 5.1 4.2 5.1 7.5.1 15.4.6 20.9-1 .6-.2 1-.7 1.2-1.2s0-1.2-.4-1.7" fill="#19303b"/><g transform="translate(194 311)"><path d="m23.1 10c3.8 2 9.7 1 13.5.6.2 0 3.6-.6 3.2-.7-5.5-2.7-9.4-2.2-10.7-7.6-.1-.9-1-1.6-1.9-1.5s-1.6 1-1.5 1.9c0-2.2-3.5-2.2-3.5.1s-2 4.9-.1 6.5z" fill="#f7ae83"/><path d="m11.1 2.3c-.1-.9-.7 2.1-1.4 2.1-1.3-.2-2.6-.2-3.8.1-.3-1.1.3-4.2-.7-3.3-2.7 2.2-3.8 9-4.1 12.6s-.4 8.2 2.6 10.3c4.9 3.4 6.9-5.2 7.4-9.7.3-2.7.5-9.3 0-12.1" fill="#19303b"/></g><path d="m204 313.9c-.5-.9-1.2-1.5-2.3-.9s-1.3-1-1.8-.8-1.4 1.9-1.7 2.6c-1 2.2-1.7 4.5-2.1 6.8-.6 3.4 2.1 8.4 6.1 5.6 2.3-1.7 2.9-4.8 2.9-7.4 0-2-.4-4-1.1-5.9" fill="#f7ae83"/><path d="m245 214.4c1-6.5 1-13.2-.2-19.7-.4-2.5-.8-5-1.1-7.5-1.4-1.1-2.9-1.9-4.6-2.4-2.6-.9-5.9-1.2-8.4.3l-.7.5c-1.1-.4-2.4-.3-3.5.2-2.6 1.2-4.1 4-5 6.6-.9 2.9-1.5 5.9-1.8 9-.7 6.1-.9 12.2-.5 18.3.3 4.9 1.1 9.8 1.4 14.6.2 4.8 0 9.6-.8 14.4-1.5 10-4.1 19.9-5 30-.6 5.5-.9 11-.9 16.5.2 5.7 1 11.4 1 17.1 0 1.8 1.2 3.3 2.9 3.8.9.2 1.7.2 2.6.2 2.1 0 3.9-1.8 4-3.9.1-14 1.9-28 5.3-41.6 1.7-6.9 4-13.5 6.1-20.3 2.7-8.5 4.3-17.3 6.8-25.8 1-3.4 1.8-6.8 2.4-10.3" fill="#afddf7"/><path d="m227.8 203.3-.3 3.2c-.3 3.8-.9 7.6-1.7 11.4-.8 3.6-1.9 7.1-2.9 10.7-1.9 7.3-3.4 14.7-5.7 21.9s-4.4 13.4-6.1 20.3c-3.4 13.6-5.2 27.6-5.3 41.6-.1 2.2-1.8 3.9-4 3.9-.9 0-1.7 0-2.6-.2-1.7-.5-2.9-2-2.9-3.8 0-5.7-.8-11.4-1-17.1 0-5.5.3-11 .9-16.5.9-10.1 3.5-20 5-30 .8-4.8 1-9.6.8-14.4-.3-4.8-1.1-9.7-1.4-14.6-.4-6.1-.2-12.2.5-18.3.4-3 4.2-14.4 6.8-15.6 1-.4 2.1-.5 3.2-.3h.3l.7-.5c2.5-1.5 5.8-1.2 8.4-.3s5.5 2.4 6.9 5l.2.5.3-.5c.4-.6 1.2-.8 1.8-.6s1.1.9 1.1 1.6h.1c.8 0 1.5.7 1.6 1.5.3 4-2.2 7.8-4.7 11" fill="#92d2f4"/><path d="m239.3 98.9c.8 3.1 1.7 6.3 2.2 9.4s.2 4.6-2 5.9-5.7 2.2-8.4 3c-5.8 1.9-11.9 2.9-18 3.2-2 0-6.8.4-8.4-.9s-1.4-5.7-1.8-7.6c-.3-2-.4-4.1-.3-6.1.1-3.1.4-6.1 1-9.1.8-4.3 2.5-9.7 6.4-12.2h.2c2-2.3 4.7-3.9 7.7-4.5 3.3-.6 6.7 0 9.6 1.7 3.1 1.7 5.6 4.1 7.4 7.1 2 3.1 3.5 6.6 4.4 10.1" fill="#55210e"/><path d="m226.8 122.7c-2.1 2-6.8 2.8-8.8-.1-.9.1-1.9-.9-1.6-2.5v-.4l.2-.8.3-2.8c.1-.4.1-.8.2-1.2v-.7c0-.5.1-.9.3-1.3v-.8c.5-2.1 2.6-1.7 2.9 0 .5.3.8.7.9 1.2v.3c.1.4.1.9.2 1.4.6-.4 1.4-.3 1.8.2h.7v-.3l.2-.5c.7-1.4 2.4-.9 2.8.6.1.4.1.7 0 1.1s-.1.9-.1 1.3v1.1c.1.7.1 1.4.2 2 .2.8-.1 1.7-.7 2.3" fill="#f7b088"/><path d="m227.5 81.6c.3 2.7-.3 5.4-2.7 7.2-2.5 1.6-5.5 2.1-8.4 1.2-2.8-.8-5.2-2.8-6.4-5.5h.2c2-2.3 4.7-3.9 7.7-4.5 3.3-.6 6.7 0 9.6 1.6" fill="#55210e"/><path d="m227.4 116c-.1.4-.1.9-.2 1.3.1.4.1.7.1 1.1 0 0-3.5 6.7-10.6.5 0-.4.4-3.6.5-4v-.7c0-.5.1-.9.3-1.3v-.3l4.1 1 3 .7 2.8.6c.1.4.1.7 0 1.1" fill="#e6a37b"/><path d="m229.6 87.8c-.7-.4-1.4-.6-2.2-.6-1.7-.2-3.7 1.2-5.3 1.4s-6.8.6-8.3 3.4.1 5.4.7 8.2c.1.6.2 1.1.2 1.7h-.1c-.7-.4-1.5-.4-2.3-.2-.7.3-1.1.9-1.1 1.6.5 2.1 2 3.9 4.1 4.6.2.9.5 1.8.9 2.7 1.5 3.1 4.4 4.7 7.3 6.3s5.2.9 7.7-.8 3.2-4.3 3.4-7.2.5-6.2-.5-9.3-.6-9.9-4.5-11.8" fill="#f7ae83"/><path d="m208.1 149.5c-.1-2.8.4-21.5-2-23.9-.9-.8-2.8 1.7-3.3 2.4-1.7 2.3-2.1 5-2.8 7.9-1.8 7.3-2.2 14.8-2.4 22.4s-1.6 18.3-2.5 27.4c-.6 5.3-.7 10.6-.8 15.9 0 2.9.1 5.7.1 8.5s-.1 3.3 1.1 4 2.5-1.6 2.8-3.3c.8-3.5 1.4-6.9 2.1-10.4 1.6-7.9 2.9-15.9 3.7-23.9.3-2.6.7-5.2 1.4-7.7 1.3-5.4 2.2-10.9 2.6-16.5z" fill="#f7ae83"/><path d="m255.8 169.3 1.9 1.5c2.6 2.2 5.3 4.2 8.1 6.3s6.6 6.2 7.6 3.1c.4-1.1.2-1-.3-2.1-1.8-4.2-5.4-8.1-8.5-11.5-2.9-3.3-6.1-6.3-9.4-9.2-3.1-2.6-2.9-6.2-3.8-9.9-1.3-5-3-9.9-5.1-14.6-1.3-2.9-4.2-10.8-7.8-11.6-1.8-.3-2 4.2-.8 4.8-.5 3-.5 6.1-.1 9.2-.2.4-.2.9-.1 1.3 1 5.3 3.2 9.8 5.5 14.4s2.9 6.4 4.5 9.5 5.1 6.2 8.3 8.8" fill="#f7ae83"/><path d="m243 181.1c-.8-2.4-1.9-4.7-2.7-7.1-.9-2.7-1.2-5.6-1.1-8.4.2-5.2 1.9-10.3 2.8-15.5v-.2c0-.3.1-.6.1-.9v-1.7c0-.6 0-1.3-.1-1.9v-.8c-.4-2.5-1-4.9-1.8-7.3-1.4-5.3-2.3-10.4-1.6-15.9-2.7-.7-5.8-.6-8.4-1.1s-3-.6-4.5.3c-.7.7-1.6 1.1-2.6 1.4-1.7.4-2.7-.8-4.2-1.4-.5-.3-1.1-.4-1.7-.4-1.3-.1-2.8 1.3-3.9 1.8s-5.2 2.4-7.9 3.5c-1.3.4-2.3 1.6-2.3 3-.2 2.1.9 4.1 1.1 6.2s.8 5.6 1.4 8.4c1.3 5.4 3.5 10.6 4.7 16.1 1 4.1.8 8.5-.8 12.5-1 2.9-2.1 5.7-3.1 8.6s-1.6 2.9-1.7 4.4c-.2 3.3 6.5 4.2 8.7 4.9 5.1 1.6 10.3 2.6 15.6 3.1 3.2.4 6.4.2 9.6-.4 2-.5 3.9-1.3 5.6-2.5-.1-2.2-.3-4.5-.5-6.8-.2-.6-.4-1.2-.6-1.8" fill="#f7ae83"/><path d="m241.7 158.7c-.7 3.6-.9 7.2-.4 10.8.2 1.3.6 2.7.8 4.1l.3 1.8v.5c.1.4.1.8.2 1.1.3 2.6.6 5.3 1.1 7.8s.3 3.3.4 4.9c-1.7 1.2-3.6 2-5.6 2.5-3.2.6-6.4.8-9.6.4-5.3-.5-10.5-1.5-15.6-3.1l-4.5-1.2c-2.2-.8-4.3-1.8-4.2-3.7s1.2-3 1.7-4.4 2.1-5.7 3.1-8.6c1.6-4 1.8-8.4.8-12.5-.5-2.5-1.3-4.8-2-7.2.9-2.2 1.5-4.5 1.7-6.8.1-.8.2-1.6.1-2.4-.1-2.6-.4-5.1-.9-7.6-.5-3.2-1.3-7-3.2-9.8l3.7-1.6.7.5c4.7 3.3 10.6 4.6 16.3 3.4 4.1-.8 7.7-3.1 10.2-6.5 1 .1 1.9.4 2.8.8.2 4.1-.1 8.3 1.5 12.3s6.2 10.5 4.4 15.9c-.5 1.4-1.5 2.2-2.2 3.4h-.1c-.4.9-.7 1.8-1 2.8-.2.9-.3 1.7-.5 2.4" fill="#b90066"/><path d="m243.3 153.4h-.1c-.4.9-.7 1.8-1 2.8-1.8 0-3.7-.4-5.3-1.2 2.3.3 4.6-.3 6.4-1.6" fill="#e0006d"/><path d="m213.9 156.9c1.1 5.2 1.4 13.8 0 17.2s-3.8 10.4-5.1 14.2c-2.2-.8-4.3-1.8-4.2-3.7s1.2-3 1.7-4.4 2.1-5.7 3.1-8.6c1.6-4 1.8-8.4.8-12.5-.5-2.5-1.3-4.8-2-7.2.9-2.2 1.5-4.5 1.7-6.8 0 .7.4 9.3 4 9.8 2.1.3 4.1.3 6.2 0 0 0-2.8 2.8-6.2 2" fill="#b90066"/><g fill="#f7b088" transform="translate(191 206)"><path d="m5.2 9.6c.6.2.1 1.2 0 1.8v.3c-.3.1-.6.3-.8.6l-.2-.5c-.1-.6.1-2.4 1-2.2"/><path d="m8.2 13.2c.1-.3 0-.6-.2-.7s-.5-.2-.8-.1l-.9.4h-.5l1.2-.4c.3-.2.4-.7.2-1 .6-.6 1.1-1.4 1.4-2.2.7-1.7.1-3.2-.5-4.9s-.6-2.4-1.9-2.7h-1.3v-.2c.1-.9-1.3-.9-1.4 0 0 .4-.1.8-.3 1.1l-.3.4v.3l-.4.9c-.5 1.2-1 2.4-1.4 3.6-.7 1.5-.5 3.1.3 4.5.6 1.2 1.4 2.8 2.7 3.4s2.9-.6 4.3-1.2c.4 0 .7-.4.6-.8s-.3-.6-.7-.6"/></g><path d="m289.3 289.6c-.9-7.4-.9-14.9.1-22.3 1.4-10.1 1.6-19.2-.5-29.2v-.2c-.7-.8-1.4-1.4-2.3-1.9-.6-.3-1.3-.4-2-.1s-1.2.8-1.4 1.4c-.6 0-1.2.3-1.6.7l-.9 1.1c-1-.4-2.1 0-2.7.9l-.4.9c-.5-.6-1.3-1-2.1-.9-.5-.7-1-1.2-1.7-1.7l-4.6-2.3c-1.2-.6-2.5-1.1-3.8-1.4-3 7.4-4.2 13.1-2.5 21.1 1 4.3 2.3 8.6 2.9 13.1.8 6.2-1.1 12.6-1.1 18.9-.1 8.7 1.4 17 2.6 25.5v.9c.1.8.8 1.4 1.6 1.5h.5c.6.3 1.4.3 2-.1.6-.5 1.1-1 1.6-1.6.6-.9.3-4.5.4-5.7s.5-4.3.7-6.5c.6-4.2.9-8.4.9-12.6-.1-4.4-.3-8.9-.2-13.4s.5-6.5.7-9.8-.4-7.9.1-11.8c-.1.8 3.4.9 3.4 3.1.1 4.4.1 8.8.3 13.3v.4c.1 7.1.4 14.2.7 21.2s2.9 14.9 3 22.5c1.2 1.6 2.9 1.7 5.1-2.1 1.2-2.2 1-5.1 1.1-7.5 0-5.1.8-10.2.1-15.2z" fill="#f7ae83"/><path d="m264.1 291.8c4.2-.5 8.4-.3 12.6-.4.4-.4-.9-31.1-.8-31.6s.2-2.2.2-3.3h1.8c0 1.7 0 32.8.8 34.2h1.7c3.7-.4 7.4-1 11.1-1.3v-29.8c-.4-2.5.2-5.5-.1-8.1s-.1-16.1-6.4-15.9c-2.3.1-4.7 1-6.9 1.4-1.9.3-3.8.5-5.7.6h-4.8c-1.1-.1-2.1.1-3.1.5-.7-.2-1.4-.1-1.9.4s-.8 1.1-.8 1.8c.1 3.5-.6 7.1-.5 10.6s2.7 37.2 2.8 40.9" fill="#f9af00"/><path d="m270.4 165.8h-1.3l.5-.3c.7-.2.8 0 .8.3" fill="#4d2a1d"/><path d="m266.2 165.4-.4.5h-1.2c.3-.4.7-.7 1.2-.9.5-.1.5.1.4.4" fill="#4d2a1d"/><path d="m280.9 169.3c-.2-.5-.7-.9-1.2-1 .3-1.7 0-3.3-2-3.6-.7 0-1.5.1-2.1.5-.8-.7-2-.9-3-.4-.2-.8-.8-1.4-1.6-1.6-.9-.3-2-.1-2.8.4-.4-.4-1-.7-1.6-.9-2-.4-3.7 1.3-4.5 3.1-1.9-.2-3.8.6-5 2.2-.2.4-.4.8-.6 1.3-2.1.3-3.8 2.2-4.6 4.2-.6 1.3-.9 2.6-.9 4-.2.8-.3 1.6-.1 2.4 0 .6.2 1.1.4 1.6.3.5.5.5.4 1s-.8 1.6-.7 2.7 1.6 2.8 2.9 3.8c-.2.5-.1 1 .1 1.4s.7.8 1.2.9c.9.3 1.8.5 2.8.6.1.8.7 1.5 1.5 1.8 1.7.8 3.3 0 4.8-.9.8.7 1.5 1.9 2.6 2.2.8.1 1.7-.1 2.4-.6.6-.3 1.3-1.1 1.8-1.2h.2c2.7-.7 2.6-4 .3-5.1s-6.7-4.2-7.4-8.4c-.2-1.5-.3-3.1-.2-4.6 0-.7.1-1.4.4-2.1.2-.5.4-.5.7-.7.8-.3 1.4-1 1.5-1.9.3.3.8.4 1.2.3.6.1 1.2-.3 1.5-.9h.1v.3c-.2.5-.1 1 .3 1.3s1 .3 1.4 0c.5-.2.9-.6 1.1-1.1l.9-.3.8.3c0 .4.1.7.3 1 .3.4.8.6 1.3.6s1-.2 1.3-.6l.7.3h-.1c-.8.7 0 2.1.9 2 .4.2 1 .1 1.3-.2.3-.2.5-.5.6-.9.9-.8 1.5-1.9.8-3.1" fill="#55210e"/><path d="m278.2 202.8c-.1 1.2-1 2.2-2.1 2.5-2 .4-4.2.5-5.6-1.2s-1.7-4.3-2.1-6.6l-.9-2.6-.5-1.7-.6-1.9v-.4l-.3-.6c-1.7-3 3-5.4 4.7-2.5l.2.2c.6-.3 1.3-.4 2-.2s1.2.7 1.5 1.3c1.3 2.7 2.2 5.6 2.7 8.6.5 1.7.9 3.4 1.1 5.1" fill="#f7b088"/><path d="m277.1 197.7c-4.5 1.6-9-2.5-9-2.5l-.6-.3-.5-1.7-.6-1.9v-.4l-.3-.6c-1.7-3 3-5.4 4.7-2.5l.2.2c.6-.3 1.3-.4 2-.2s1.2.7 1.5 1.3c1.3 2.7 2.2 5.6 2.7 8.6" fill="#f19d80"/><path d="m284.8 184.6c-.9-2.5-2.4-4.6-3.4-7s-1.1-2.6-1.8-3.8-1.6-2.1-2.3-3.3c-.5-1.1-1.8-1.6-2.9-1.2l-.5.4c-1.3-.8-2.8-1-4.3-.7-4.1.8-7.2 4.1-7.8 8.2-.4 3 .2 6.1 1.8 8.7.7.5 1.2 1.2 1.5 2 .7 2 1.6 4 2.6 5.9 1.4.7 3 1.3 4.5 1.7 3.2 1 7.2 2.1 10.3.1s3.6-7.5 2.3-11" fill="#f7b088"/><path d="m266.5 186.2s-5.1-1.8-4.3 1 5.3 3.7 5.3 3.7z" fill="#f7b088"/><path d="m287.5 210.2.2-.8c-.8-1.1-1.7-2.3-2.4-3.4-1.6-2.2-2.7-4.7-3.4-7.3-3.8 1.7-9.7 1-13.4 1.3s-5.5.7-7.7 2.2c-2 1.3-3.6 3.1-4.7 5.3-1.1 1.9-1.9 3.8-2.5 5.9-1.4 3.9-3.4 7.8-4.7 12.3-1.4 4.7-3.3 9.4-5.5 13.8-2 3.6-3.6 7.3-4.8 11.2-.5 1.5-.8 3.2-.8 4.8-.2 2.5.6 5 2.2 7 .3.3.7.4 1.1.3l.5.6c.2.2.5.3.8.3s.6-.1.8-.3c.5 0 .9-.3 1.1-.8s.2-1.1.2-1.6l.3-.6c.7-2.7.3-5.6-.9-8.1-.1-.5 0-1 .1-1.5.6-2.2 2.7-4.2 3.9-6.1 2.8-4.2 5.4-8.6 6.5-13.6l.3-.8c1-2.5 2.1-4.9 3.4-7.3 1.1-2.3 2.3-4.5 3.4-6.8.4 3.3.8 6.7 1 10.1s.3 4.6.6 6.8 1.1 4.2 3.4 5 4 .4 5.9.2c1.1-.2 2.1-.6 3.1-1l1.5-.3c2.4-.5 7-.2 10.3-1.2-1.3-5.4-1.9-11-1.9-16.6-.1-3.3 0-5.9 2.1-9" fill="#f7ae83"/><path d="m328 177.8h-.1c.1-.9-.5-1.6-1.4-1.4-.7.1-1.3.4-1.9.7-.3-.4-.8-.5-1.2-.4-2.3.4-4 2.7-5.7 4.2s-6.7 5.4-10 8.2l-4.4 3.9c-1.3 1.2-2.6 2.7-4.3 3.2-4.4 1.4-9.2 2.4-13.8 3.6-1 0-1.9 0-2.9-.2-.9-.2-1.9.1-2.4.8s-.7 1.7-.3 2.6c-.3.6-.5 1.2-.4 1.9l.2 1.5c.3 1 1.3 1.7 2.4 1.7l1.4 1.8c1.1 1.4 3 1.6 4 0 .7-1 1.2-2.1 1.5-3.2 4.2-1.3 8.4-2.6 11.7-4 3-1.4 5.8-3.4 8.1-5.8 2.7-2.6 5.8-4.8 8.3-7.6v-.3c1.7.7 3.6.9 5.5.7h.2c1.4.2 2.8-.2 4-1 .4-.3.6-.8.5-1.3s-.6-.9-1.1-.9l-2.3.2h-1c.4-.3.8-.7 1.1-1.1l1.5-1c1.2-.6 2.2-1.6 3-2.7.2-.3.2-.8 0-1.1l.7-1.1c.2-.4.1-.8-.1-1.1-.2-.4-.5-.6-.8-.8" fill="#f7ae83"/><path d="m292.8 245.2-2.8.2c-3.6.2-7.1.5-10.7.9-5.3.7-10.9 1.6-16.3 1.5l-2.5-.2c-.7-.1 2.3-28.3 1-28.7h-.2c-2.4-.2-10.6-.9-9.5-4.9 2.2-7.7 7.9-14.9 16.7-14 3 4.1 5.2 4.1 8.5 1.1s1.8-2.2 4.9-2.8c.7-.1 8.5-1 8.5-.8s2.2 10.2 1.3 11.3c-1.2 1.2-2.6 2.1-4.3 2.5-.1 3.5.2 7 .7 10.5 1 6.2 2.8 17.6 4.7 23.4" fill="#d4dce1"/><path d="m273.6 312.1c0-.5.6-4.1.6-4.1s-5.6-1.3-6.9-1-.3 5.1-.3 5.1z" fill="#bfd3d7"/><path d="m273.9 313.2c-.3-1.5-2.5-.8-2.3.6v.6c0 .5 0 .9.1 1.4 0 1.2 0 2.4-.1 3.6 0 1.1-.1 2.2-.3 3.3v.9h-.1c-.5.2-.9.6-.9 1.1s.3 1 .9 1.1c2.7.5 2.8-4 2.9-5.7.3-2.4.2-4.8-.1-7.2" fill="#d4d3d4"/><path d="m269.3 310.2c-.8.1-1.6.3-1.9.9-.1.3-.2.7-.4 1-.8 3.9-3 7.7-2.8 11.7l.4.5c1.4 1.6 3.8 2 5.6.9 1.9-1 2.6-3.4 2.9-5.4.3-2.6.5-5.1.5-7.7 0-1.6-.9-1.9-2.3-1.9z" fill="#19303b"/><path d="m271.8 321.3c-.7-.3-1.4-.5-2.2-.6-1.3-.2-2.7 0-4 .3-2.5.7-2.2 3.1-1.8 5.1s2.3 1 3.8 1.1 3.6.3 4.6-.7 1-2.9.4-4.1c-.2-.4-.5-.8-.8-1.1" fill="#d4d3d4"/><path d="m282.7 312.1c0-.5-.6-4.1-.6-4.1s5.6-1.3 6.9-1 .3 5.1.3 5.1z" fill="#bfd3d7"/><path d="m282.4 313.2c.3-1.5 2.5-.8 2.3.6h-.1v.6c0 .4-.1.9-.1 1.4v3.6c.1 1.1.2 2.2.4 3.3v.9h.1c.5.2.9.6.9 1.1s-.3 1-.9 1.1c-2.7.5-2.8-4-3-5.7-.2-2.4-.1-4.8.2-7.2" fill="#d4d3d4"/><path d="m287 310.2c.8.1 1.6.3 1.9.9.1.3.2.7.4 1 .8 3.9 3 7.7 2.8 11.7l-.4.5c-1.4 1.6-3.8 2-5.6.9-1.9-1-2.6-3.4-2.9-5.4-.3-2.6-.5-5.1-.5-7.7 0-1.6.9-1.9 2.3-1.9z" fill="#19303b"/><path d="m284.5 321.3c.7-.3 1.4-.5 2.2-.6 1.3-.2 2.7 0 4 .3 2.5.7 2.2 3.1 1.7 5.1s-2.2 1-3.7 1.1-3.6.3-4.6-.7-1-2.9-.4-4.1c.2-.4.5-.8.8-1.1" fill="#d4d3d4"/><path d="m278.2 167.8c-.4-.2-.9-.1-1.3.2-1.5-.4-3.4-.6-4.5.1-.5-.2-1.1-.3-1.6-.3-.6 0-1.1.2-1.5.6-.4-.1-.8 0-1.2.1-1.7-.9-4.4-.3-4.6 1.7-.5.2-.8.5-1 1-1.3.2-2.5 1.1-3 2.3-.4.3-.5.8-.5 1.3s.3.9.7 1.2c.8 1.3 3.5 1.2 4.5 0 .5-.5 1-1.1 1.3-1.7 1-.1 1.9-.6 2.5-1.4l1.1.4c1.1.1 2.3-.3 3.1-1.1.8.2 1.7 0 2.4-.4.9.7 2.1.6 3-.1.9-.8 2.2-3.2.6-3.9" fill="#55210e"/><path d="m385.9 312.4h-75.4v-4.1c0-2.9 2.3-5.2 5.2-5.2h65c2.9 0 5.2 2.3 5.2 5.2z" fill="#19303b"/><path d="m388.6 182.8h-1.7v-16.6l-17.9-27.5h-28.1l-29.4-30.6v-26.8h1.7v26.1l28.4 29.6h28.3l18.7 28.7z" fill="#e0006d"/><path d="m333.8 196.7h-1.7v-14.3l29.8-27.9v-46.9l13.2-33h14.7v1.7h-13.6l-12.6 31.6v47.3l-29.8 27.9z" fill="#c18f00"/><path d="m310.1 173.6h-1.7v-9l8.9-10.1h32.8v-28.7l-25.9-25.4v-28.9h1.7v28.2l25.9 25.4v31.1h-33.7l-8 9.1z" fill="#44195e"/><path d="m319.8 132.9h-15.7v-1.7h14.9l21.9-24.3h37.6l10.8-7.5.9 1.4-11.2 7.8h-37.3z" fill="#92d2f4"/><path d="m314.3 107.8c-.1 1-.9 1.8-1.9 1.8s-1.8-.8-1.8-1.8c0-.5.1-1 .5-1.3.3-.4.8-.6 1.3-.6 1 0 1.9.9 1.9 1.9" fill="#df233c"/><path d="m314.3 82.9c-.1 1-.9 1.8-1.9 1.9-1 0-1.9-.9-1.9-1.9s.9-1.9 1.9-1.9c1 .1 1.8.9 1.9 1.9" fill="#df233c"/><path d="m326.9 71.5c0 1-.8 1.8-1.8 1.8-.8.2-1.6-.1-2-.8s-.4-1.5 0-2.1 1.2-1 2-.8c.5 0 1 .2 1.3.6s.5.8.5 1.3" fill="#1d2b33"/><path d="m326.9 84c0 1-.8 1.8-1.8 1.9-1-.1-1.8-.9-1.9-1.9.1-1 .9-1.8 1.9-1.8s1.8.8 1.8 1.8" fill="#1d2b33"/><path d="m326.9 100.1c0 1-.8 1.8-1.8 1.8-.8.2-1.6-.1-2-.8s-.4-1.5 0-2.1 1.2-1 2-.8c.5 0 1 .2 1.3.6s.5.8.5 1.3" fill="#1d2b33"/><path d="m339.5 112.1c0 .8-.5 1.5-1.2 1.8s-1.5.1-2.1-.4-.7-1.4-.4-2.1 1-1.2 1.8-1.2c1 0 1.9.9 1.9 1.9" fill="#1d2b33"/><path d="m352.9 125.5c-.1 1-.9 1.8-1.9 1.8s-1.8-.8-1.8-1.8.8-1.8 1.8-1.9c1 .1 1.8.9 1.9 1.9" fill="#44195e"/><path d="m352.9 137.9c-.1 1-.9 1.8-1.9 1.9-1-.1-1.8-.9-1.8-1.9s.8-1.8 1.8-1.8 1.8.8 1.9 1.8" fill="#44195e"/><path d="m352.9 155c-.1 1-.9 1.8-1.9 1.8s-1.8-.8-1.8-1.8c0-.5.1-1 .5-1.3s.8-.6 1.3-.6c1 0 1.9.9 1.9 1.9" fill="#44195e"/><path d="m319.8 155c-.1 1-.9 1.8-1.9 1.8s-1.8-.8-1.8-1.8c0-.5.1-1 .5-1.3s.8-.6 1.3-.6c1 0 1.9.9 1.9 1.9" fill="#44195e"/><path d="m311.2 173.6c0 .8-.5 1.5-1.2 1.8s-1.5.1-2.1-.4-.7-1.4-.4-2.1 1-1.2 1.8-1.2c1 0 1.9.9 1.9 1.9" fill="#44195e"/><g fill="#c18f00"><path d="m334.8 196.7c.2.8-.1 1.6-.8 2s-1.5.4-2.1 0-1-1.2-.8-2c0-.5.2-1 .6-1.3s.8-.5 1.3-.5c1 0 1.8.8 1.8 1.8"/><path d="m334.8 182.8c0 1-.8 1.8-1.8 1.8-.5 0-1-.1-1.3-.5s-.6-.8-.6-1.3c-.2-.8.1-1.6.8-2s1.5-.4 2.1 0 1 1.2.8 2"/><path d="m349.8 168.8c0 1-.9 1.9-1.9 1.9-.5 0-1-.2-1.3-.6s-.5-.8-.5-1.3c0-1 .8-1.8 1.8-1.8s1.8.8 1.9 1.8"/><path d="m364.6 154.9c0 .5-.2.9-.5 1.3-.3.3-.8.5-1.3.5-.8.2-1.6-.1-2-.8s-.4-1.5 0-2.1 1.2-1 2-.8c.5 0 1 .2 1.3.6s.5.8.5 1.3"/><path d="m364.6 120.7c0 1-.8 1.8-1.8 1.8s-1.8-.8-1.9-1.8c.1-1 .9-1.8 1.9-1.9 1 .1 1.8.9 1.8 1.9"/><path d="m364.6 107.8c0 1-.8 1.8-1.8 1.8-.8.2-1.6-.1-2-.8s-.4-1.5 0-2.1 1.2-1 2-.8c.5 0 1 .2 1.3.6s.5.8.5 1.3"/><path d="m371.5 90.7c0 1-.8 1.8-1.8 1.9-1-.1-1.8-.9-1.9-1.9.1-1 .9-1.8 1.9-1.8s1.8.8 1.8 1.8"/></g><path d="m391.7 100.1c0 1-.9 1.9-1.9 1.9s-1.9-.9-1.9-1.9.9-1.9 1.9-1.9 1.9.9 1.9 1.9" fill="#92d2f4"/><path d="m380.7 107.5c-.1 1-.9 1.8-1.9 1.9-1 0-1.9-.9-1.9-1.9s.9-1.9 1.9-1.9c1 .1 1.8.9 1.9 1.9" fill="#92d2f4"/><path d="m352 107.5c0 1-.9 1.9-1.9 1.9s-1.9-.9-1.9-1.9.9-1.9 1.9-1.9 1.9.9 1.9 1.9" fill="#92d2f4"/><path d="m321.3 132c0 .5-.1 1-.5 1.3s-.8.6-1.3.6-1-.2-1.4-.5-.6-.9-.5-1.4c0-.5.2-1 .6-1.3s.8-.5 1.3-.5.9.2 1.3.5.5.8.5 1.3" fill="#79abc9"/><path d="m306.5 132c0 .5-.1 1-.5 1.3s-.8.6-1.3.6c-.8.2-1.6-.1-2-.8s-.4-1.5 0-2.1 1.2-1 2-.8c.5 0 .9.2 1.3.5s.5.8.5 1.3" fill="#79abc9"/><path d="m377.7 75.4c.2.8-.1 1.6-.8 2s-1.5.4-2.1 0-1-1.2-.8-2c0-.5.2-1 .6-1.3s.8-.5 1.3-.5c1 0 1.8.8 1.8 1.8" fill="#c18f00"/><path d="m391.7 75.4c0 1-.9 1.9-1.9 1.9s-1.9-.9-1.9-1.9.9-1.9 1.9-1.9 1.9.9 1.9 1.9" fill="#c18f00"/><path d="m314.3 94.4c0 .5-.2 1-.6 1.3s-.8.6-1.3.6-1-.2-1.3-.6-.5-.8-.5-1.3c0-1 .8-1.8 1.8-1.8s1.8.8 1.9 1.8" fill="#df233c"/><path d="m329 123.2c0 1-.8 1.8-1.8 1.8s-1.8-.8-1.9-1.8c.1-1 .9-1.8 1.9-1.9 1 .1 1.8.9 1.8 1.9" fill="#df233c"/><g fill="#e0006d"><path d="m343.2 137.6c0 .5-.2 1-.5 1.4-.4.4-.9.6-1.4.5-.5 0-1-.2-1.3-.6s-.5-.8-.5-1.3c0-1 .8-1.8 1.8-1.8.5 0 1 .1 1.3.5s.6.8.6 1.3"/><path d="m364.6 137.6c0 .5-.1 1-.5 1.3s-.8.6-1.3.6c-.8.2-1.6-.1-2-.8s-.4-1.5 0-2.1 1.2-1 2-.8c1 0 1.8.8 1.8 1.8"/><path d="m379.8 151.2c0 .5-.1 1-.5 1.3s-.8.6-1.3.6c-.8.2-1.6-.1-2-.8s-.4-1.5 0-2.1 1.2-1 2-.8c1 0 1.8.8 1.8 1.8"/><path d="m389.7 165.9c0 .5-.2 1-.5 1.4-.4.4-.9.6-1.4.5-.5 0-1-.2-1.3-.6s-.5-.8-.5-1.3c0-1 .8-1.8 1.8-1.8.5 0 1 .1 1.3.5s.6.8.6 1.3"/><path d="m389.7 182.8c0 .5-.2 1-.6 1.3s-.8.5-1.3.5c-1 0-1.8-.8-1.8-1.8-.2-.8.1-1.6.8-2s1.5-.4 2.1 0 1 1.2.8 2"/><path d="m313.3 84.5c-.3.2-.6.3-.9.3s-.6-.1-.8-.3v8.3c.2-.2.5-.2.8-.2s.6 0 .9.2z"/><path d="m313.3 96.1-.9.2-.8-.2v10l.8-.2.9.2z"/><path d="m314.2 108.4c-.2.5-.7 1-1.2 1.2l12.4 12.9c.3-.5.7-.9 1.3-1.1z"/><path d="m328.9 123.8c-.2.6-.6 1-1.2 1.2l1.4 1.3.9-1.5z"/></g><path d="m325.9 73.1c-.2.2-.5.2-.8.2s-.6 0-.9-.2v9.3c.3-.2.6-.2.9-.2s.6 0 .8.2z" fill="#44195e"/><path d="m325.9 85.7-.8.2-.9-.2v12.7l.9-.2.8.2z" fill="#44195e"/><path d="m326.9 100.6c-.2.6-.6 1-1.2 1.2l10.1 9.9c.1-.6.5-1.1 1-1.3z" fill="#44195e"/><path d="m341 106.9h-.1l-2.9 3.3.7.4z" fill="#a7c8db"/><path d="m335.8 112.6-7.9 8.9c.5.2.9.7 1.1 1.2l7.2-8 .6-1c-.5-.2-.8-.6-1-1.1" fill="#92d2f4"/><path d="m325.5 124-5.6 6.3c.6.1 1.1.5 1.3 1.1l5.7-6.4c-.6-.1-1.1-.5-1.4-1" fill="#92d2f4"/><path d="m317.8 131.2h-11.5c.2.3.2.6.2.9s0 .6-.2.8h11.5c-.1-.3-.2-.5-.2-.8s.1-.6.2-.9" fill="#92d2f4"/><path d="m312.4 105.9-.8.2c-.6.3-1 1-1 1.7 0 .5.2.9.5 1.3.3.3.8.5 1.3.5h.6c.5-.2 1-.7 1.2-1.2 0-.2.1-.4.1-.6 0-.7-.4-1.4-1-1.7z" fill="#e0006d"/><path d="m312.4 81c-1 .1-1.8.9-1.8 1.9 0 .7.4 1.3 1 1.7l.8.2c.3 0 .6-.1.9-.3.6-.3 1-.9 1-1.6-.1-1-.9-1.8-1.9-1.9" fill="#e0006d"/><path d="m325.1 69.6c-1 0-1.9.9-1.9 1.9 0 .7.4 1.3 1 1.6.3.2.6.2.9.2s.6 0 .8-.2c.6-.3 1-.9 1-1.6 0-.5-.1-1-.5-1.3-.3-.4-.8-.6-1.3-.6" fill="#44195e"/><path d="m325.1 82.2c-.3 0-.6 0-.9.2-.6.3-1 .9-1 1.6s.4 1.4 1 1.7l.9.2.8-.2c.6-.3 1-1 1-1.7s-.4-1.3-1-1.6c-.2-.2-.5-.2-.8-.2" fill="#44195e"/><path d="m325.1 98.2-.9.2c-.6.3-1 1-1 1.7.1 1 .9 1.8 1.9 1.8h.6c.6-.2 1-.6 1.2-1.2v-.5c0-.7-.4-1.4-1-1.7l-.8-.2" fill="#44195e"/><path d="m337.6 110.2-.8.2c-.5.2-.9.7-1 1.3 0 .1-.1.2-.1.4s.1.3.1.5c.2.5.5.9 1 1.1l1.9-3.1-.7-.4z" fill="#44195e"/><path d="m319.5 130.2c-.7 0-1.4.4-1.7 1-.1.3-.2.5-.2.8s.1.6.2.9c.4.7 1.3 1 2.1.8s1.4-.9 1.4-1.7c0-.2 0-.4-.1-.6-.2-.6-.7-1-1.3-1.1z" fill="#92d2f4"/><path d="m304.7 130.2c-.8-.2-1.6.1-2 .8s-.4 1.5 0 2.1 1.2 1 2 .8c.7 0 1.3-.4 1.6-1 .2-.3.2-.6.2-.9s0-.6-.2-.8c-.3-.6-.9-1-1.6-1" fill="#92d2f4"/><path d="m312.4 92.6c-.3 0-.6 0-.8.2-.6.3-1 .9-1 1.6s.4 1.4 1 1.7l.8.2.9-.2c.6-.3 1-1 1-1.7s-.4-1.3-1-1.6c-.3-.2-.6-.2-.9-.2" fill="#e0006d"/><path d="m327.2 121.3h-.5c-.6.2-1 .6-1.3 1.1 0 .2-.1.5-.1.7 0 .3.1.6.2.8.3.5.8.9 1.4 1h.9c.5-.2.9-.7 1.1-1.2.1-.2.1-.4.1-.6v-.5c-.2-.5-.6-1-1.1-1.2z" fill="#e0006d"/><path d="m304.6 205.6h87.5v23.5h-87.5z" fill="#d4d3d4"/><path d="m1085.9 198.2h13.9l-11.1 15.3c-5.8 8.6-7.2 10.3-14.1 11.2l-6.7-1.3z" fill="#79bb58"/><path d="m1061.8 143.8h68.7c.8 0 1.6.3 2.1.9.3.3.6.8.8 1.2.2.5.3 1 .3 1.5v53.8c.1 1.9-1.3 3.5-3.2 3.7h-68.7c-1.9-.2-3.3-1.8-3.2-3.7v-5.5-48.2c-.1-1.9 1.3-3.5 3.2-3.7" fill="#7c8d9a"/><path d="m1132.4 144.5.2.2c.3.3.6.8.8 1.2.2.5.3 1 .3 1.5v53.8c.1 1.9-1.3 3.5-3.2 3.7h-68.7c-1.1 0-2-.6-2.6-1.5z" fill="#69787d"/><path d="m1061.1 147.1h70v47h-70z" fill="#f5e2eb"/><path d="m1123.4 173.7 1-9-2.4-.6-2.7 3.9-1.1-.3-1.7 3.2.5 3.7 3.5 1.4z" fill="#f9c4a7"/><path d="m1096.3 183.9 12.9 4.4 7.7-14.3 4 1.8-7 16.4c-.3.6-.7 1.2-1.1 1.8h-6.1l-16.5-3.1z" fill="#989b22"/><path d="m1092.1 148.1c-5.2-1.5-8 3-8.4 8.4-1.1 13.7 9.8 16.6 3.9 22.2 7.5-1.6 11.9-13.2 12.5-21 .4-5.6-1.6-11.9-8-9.6" fill="#f9af00"/><path d="m1092.1 148.1c-5.2-1.5-8 3-8.4 8.4-1.1 13.7 9.8 16.6 3.9 22.2 7.5-2.4 7.5-25.1 4.5-30.6" fill="#f2b236"/><path d="m1089.1 168.1c1.2 1.7 2.8 3.5 4.4 3.8s4.4.5 6.2-1.7c10-11.7-.3-24.4-6.7-18.2-2.8-1.3-4.3 0-5.2 2.2-1.8 4.5-1.7 9.9 1.3 13.9" fill="#f2b236"/><path d="m1098.9 170.1c-.7 2.7-.2 5.5.8 6.8.7.4 1.6.7 2.4.8l4.3.7c2.3.4 2.6 3.4 2.5 4.7s-1.7 1.3-2.1 2.6c-.1.6-.2 1.2-.3 1.8l-3 1.4h-16.7l-1.7-.8-.4-2.9-3.5-2.5c0-5.6 5.7-4.2 8.7-5.4s2.1-3 1.9-7.1z" fill="#f9c4a7"/><path d="m1083.5 187.4.4 2c-.4.8-.6 1.7-.6 2.6 0 .7.1 1.4.4 2h22.7c.2-.6.4-1.3.4-2 0-.9-.3-1.8-.7-2.6l.3-1.4 5.1 2.4c-.5-2.6-1-8.8-1.5-9.9s-1.9-2.4-3.9-2.5l-4-.3c-.6-.1-3.6.5-6.6.5s-6.1-.7-6.5-.6-5.2-.1-6.8.7c-.9.5-1.6 1.3-1.9 2.3s-.6 5.8-.8 8.6z" fill="#989b22"/><path d="m1106.4 194c.2-.6.4-1.3.4-2 0-.9-.2-1.8-.7-2.6l.3-1.4 5.1 2.4c-.5-2.6-1-8.8-1.5-9.9s-1.9-2.4-3.9-2.5l-4-.3c-.6-.1-3.6.5-6.6.5h-.4v15.8z" fill="#989b22"/><path d="m1102.5 161.2c.7-1 1.4-.3 1.2.8s-.6 2.1-.9 3.2-.4 1.3-1.1 1.2v-2c-.3 1.8-.9 3.5-1.9 5-.6.8-1.2 1.5-1.9 2.1-1.3 1.2-2 1.7-2.8 1.7s-1.5-.5-2.7-1.6c-.9-.8-1.6-1.6-2.2-2.6-.5-.8-.9-1.7-1.2-2.7-.3-.2-.4-.6-.6-1.1s-.7-2.2-.8-3.2.1-1.4.6-1.3c0-.8 0-1.7.2-2.5.6-3.5 2.9-6.2 6.7-6.2s6.2 1.6 6.8 5.6c.3 1.5.3 3.1.1 4.6z" fill="#fbcdab"/><path d="m1102.9 161.3c.3-.2.5 0 .6.3-.1.8-.3 1.5-.6 2.2.1-.9.6-1.7.5-2.2s-.3-.3-.6 0c.1-.1.1-.2.1-.3" fill="#e8a577"/><path d="m1103.2 164.1c6.5-10.3-6-17.8-11.6-12.4-4.3 1.8-4 6.5-3.7 8.3s.7 2.8 1.1 4.3c-.2-1.6-.2-2.8-.3-4s1.1-3.9 1.4-5.4v-.2c1.3 4.4 14.7 2 9.2 17.6.3-.4 2.8-8.6 3-9 .8 1.4.8 3.2 0 4.6.8-1.1 1.1-2.5.9-3.8" fill="#f2b236"/><path d="m1105.1 188c1.1 1.1 1.7 2.6 1.7 4.1 0 .7-.1 1.3-.4 1.9h-1.8c1.2-1.8 1.3-4 .5-6" fill="#8e9300"/><path d="m1079.1 194 .7-9.7.5-3.8 7.3 2.7-2.4 10.8z" fill="#6ac1b6"/><g transform="translate(1032 154)"><path d="m53 34c-1.1 1-1.7 2.5-1.7 4 0 .7.1 1.4.4 2h1.8c-1.3-1.8-1.4-4.1-.5-6" fill="#65bfb3"/><path d="m10.8 11.1c3.7-2 5.5-5.4 4.3-11h17.1c-1.1 5 .1 8.3 3 10.3 67.9 46.9-72.4 26-24.4.7" fill="#f9c4a7"/></g><path d="m1055.7 154.2h8.5c-1.1 5 .1 8.3 3 10.3 37.7 26 11.2 31.2-11.5 26.3z" fill="#f9c4a7"/><path d="m1042.9 139c-1.1-1.5-1.8-1.8-2.5-1.2s-.5 1-.3 2 1.4 4.3 1.8 5.8 1.4 4.1 2.5 3.5c.2 2.2.1 3.9.7 5.4s2.7 2.4 3.8 3.5 4.1 1.1 6.3 1.1 4.9 1.1 7.2-1.2 3.3-2.3 3.8-3.5.5-3.1.7-5.2c1.1.5 2.3-2.6 2.5-3.6s1.4-4.1 1.8-5.8 0-1.8-.3-2-1.4-.3-2.5 1.1c0-1.2-.1-2.5-.1-3.8.2-2.1.1-4.2-.2-6.3-.2-1.7-1.1-3.3-2.4-4.5-2.1-1.8-4.7-3-7.4-3.3-2.8-.4-5.7-.2-8.4.8h-1.3c-.1 0-.1 0-.1.1h-.2c-1 .5-1.9 1.1-2.7 1.8-1.4 1.1-2.3 2.7-2.5 4.5-.2 2.1-.3 4.2-.1 6.3 0 1.4-.1 2.6-.1 3.9" fill="#fbd5c5"/><path d="m1055.7 159.1c2.1.1 4.5 1 6.7-1.2s3.3-2.3 3.8-3.5.5-3.1.7-5.2c1.1.5 2.3-2.6 2.5-3.6s1.4-4.1 1.8-5.8c.2-.7.1-1.4-.3-2-.7-.6-1.4-.3-2.5 1.1 0-1.2-.1-2.5-.1-3.8.2-2.1.1-4.2-.2-6.3-.2-1.8-1.1-3.4-2.4-4.5-2.1-1.8-4.7-3-7.4-3.3l-2.6-.2z" fill="#fac8b2"/><path d="m1042.4 141.1c-1.4-7.6-1.1-13.9 3.8-17.6 8.4-6.3 18.7-1.3 19.2.1 4.7 2.6 4.7 9.4 3.7 16.2-.8 5.3-1.9 12.8-4.9 17s-5.8 3.2-8.6 4.9c-3.6-1.9-6.2-1.4-8.2-4.3s-4.1-11.8-5-16.3" fill="#c18f00"/><path d="m1046.1 161.4c-.2 1-.8 2-1.7 2.6 7.8 6.2 14.2 5.8 22.5 0-1-.6-1.7-1.5-2.1-2.5-6.2.5-12.5.4-18.7-.1" fill="#45ac34"/><g transform="translate(1020 161)"><path d="m35.7 7.5c3.5-.1 7.1-1.6 11.2-4.5-1-.6-1.7-1.5-2.1-2.5-3 .3-6.1.4-9.1.3z" fill="#45ac34"/><path d="m7.7 18.5c3.6 14.1 25.8 43.2 14.3 45-4.8.8-8.9.4-12-2.1s-4.4-10-5.4-17.5c-2.1-15.7-3.9-29.5-3.9-29.6.1-1.9.6-3.7 1.5-5.3 1.7 4.7 2.2 5.8 5.5 9.5" fill="#79bb58"/></g><path d="m1083.2 104.1h33.8c1.8 0 3.2 1.4 3.2 3.2v23.3c0 1.8-1.4 3.2-3.2 3.2h-33.8c-.9 0-1.7-.3-2.3-.9s-1-1.4-1-2.3v-23.3c0-.9.4-1.7 1-2.3s1.4-.9 2.3-.9" fill="#ed6b06"/><path d="m1083.5 109.6h33v1h-33z" fill="#f9af00"/><path d="m1083.5 113.2h33v1h-33z" fill="#f9af00"/><path d="m1083.5 116.9h33v1h-33z" fill="#f9af00"/><path d="m1083.5 120.6h33v1h-33z" fill="#f9af00"/><path d="m1083.5 124.3h33v1h-33z" fill="#f9af00"/><path d="m1083.5 128.2h33v1h-33z" fill="#f9af00"/><path d="m1090.4 107.1c9.8 0 17.7 6.1 17.7 13.7s-7.9 13.4-17.7 13.6c-11.9.2-17.7-5.5-17.7-13.6s7.9-13.7 17.7-13.7" fill="#87cac0"/><path d="m1082.3 122.8c1.3 0 2.3-1 2.3-2.3s-1-2.3-2.3-2.3-2.3 1-2.3 2.3 1 2.3 2.3 2.3" fill="#cae6e1"/><path d="m1098.3 122.8c1.3 0 2.3-1 2.3-2.3s-1-2.3-2.3-2.3-2.3 1-2.3 2.3 1 2.3 2.3 2.3" fill="#cae6e1"/><path d="m1090.3 122.8c1.3 0 2.3-1 2.3-2.3s-1-2.3-2.3-2.3-2.3 1-2.3 2.3 1 2.3 2.3 2.3" fill="#cae6e1"/><path d="m1103.1 133.6 14.5 8.5-5.8-12z" fill="#ed6b06"/><path d="m1087.9 133.6-14.6 8.5 5.9-12z" fill="#87cac0"/><path d="m1076.8 389.3h-14.1l-1.9 10.9 20.3-.2z"/><path d="m1035.3 389.3h14.1l2.1 10.9-20.3-.2z"/><path d="m1081.5 272.1-5.1 55.6 3 23.6-1.6 40.8h-16.1l-2.8-65.5-2.7-51.7h-1.1l-2.4 51.7-2.2 65.5h-16.1l-2.1-41 3-23.4-5.7-56.8-.2-.7 6.1-37.8h40.2l6.1 37.9z" fill="#55210e"/><path d="m1026.4 178.1 6.4 52.5-3.7 36.9 24.2-.2.9-8.5.6 8.5 27.2-.2-4.8-38.5 2.7-17.6c2.1-.3 4.2-.8 6.2-1.3l4.5-34.4c-.6-7-3.2-8-12.5-7.6-3.2.1-9.4-2.1-11.8-4.1-8.4 2.3-14.4 2.2-21.3 0-2.4 2-8.6 4.2-11.8 4.1-6.1-.2-9.3.1-11 2.4l.3.7c1.4 3.9 1.6 4.6 3.9 7.3" fill="#8fc36e"/><g transform="translate(570 225)"><path d="m66.9 121.3.8 141.7 86.6-18.5.8-132.1z" fill="#92d2f4"/><path d="m155.1 114.3c0-2.2-.1-5.6-.9-13.9-2.4-24.7-16.6-75.4-35.2-91.4-9.6-2.9-80-9-80-9l-9.3 6.1 31.6 117.1z" fill="#b2def7"/><path d="m69.6 263s.6-138.4-1.1-158.8c-3.2-38.7-15.8-84.2-29.5-104.2l-38.3 12.8.6 229.8z" fill="#0068b3"/></g><path d="m622.1 235.7c6.4 6.6 15.1 28 27.2 94.9 20-1.6 50.3-4.6 50.3-4.6s-1.5-60.9-29.9-86.2c-18.4-2.1-47.6-4.1-47.6-4.1" fill="#92d2f4"/><path d="m622.5 235.7c3.9.3 30.2 2.1 47.2 4.1.2.3.4.5.7.7l-.3-.7c-18.4-2.1-47.6-4.1-47.6-4.1" fill="#6e9dd3"/><path d="m622.6 235.7c2.6 2.9 8.7 14.4 14.5 34.7l33.5.6c3.6-7.2 2.5-23.8-.2-30.5-.3-.2-.5-.4-.7-.7-17-2-43.3-3.8-47.1-4.1" fill="#2c81c4"/><path d="m638 276.6 6.9 31.6v-.2c-2.5-12.4-4.8-22.8-6.9-31.4" fill="#4b7fc1"/><path d="m645.4 310.6 1 4.8z" fill="#4b7fc1"/><path d="m636.7 270.4 1.3 6.2c2.2 8.6 4.5 19 7 31.4.3-.3.7-.5 1.1-.6l23.6-1.3h.1c.6-.1 1.3.3 1.6.8l.6 1.5c.2.5-.2 1-1 1l-24.6 1.4h-.9c.3 1.5.6 3.1 1 4.7l35.6-2.3-11.5-42.2c-.4.7-.8 1.3-1.3 1.9l-31.4.2c-.3-1-.5-1.9-.8-2.7z" fill="#2c81c4"/><path d="m650.7 304.1c-.4 0-.7-.2-.7-.4v-.7c0-.2.3-.4.7-.4l12.2-.7h.1c.4 0 .7.1.8.3l.4.7c.1.2-.2.4-.6.5l-12.8.7z" fill="#3d6fb5"/><path d="m637.1 270.4c.3.8.5 1.8.8 2.7l31.4-.2c.5-.6.9-1.2 1.3-1.9z" fill="#92d2f4"/><path d="m646.4 315.4h-.4l2.4 10.6c-.6-3.6-1.3-7-1.9-10.3z" fill="#6e9dd3"/><path d="m699.1 326.1c-3.8.4-31 3-49.6 4.5l49.8-4.5z" fill="#6e9dd3"/><path d="m682.1 313.1v.3l-35.6 2.3c.6 3.3 1.3 6.7 1.9 10.3l1.1 4.6 49.6-4.5z" fill="#2c81c4"/><path d="m646.5 315.4-.1.3z" fill="#3869b1"/><path d="m682.1 313.1-35.6 2.3v.3l35.6-2.3z" fill="#2b5aa4"/><path d="m664.8 277.9 5.1 19.9-28.6 1.3-5.7-21.1z" fill="#92d2f4"/><path d="m644.9 308.2c0 .1-.1.2 0 .2v1.5c.1.3.3.5.5.7z" fill="#4b7fc1"/><path d="m645 308v.2l.5 2.4h.1c-.1-.9-.3-1.8-.5-2.7" fill="#2956a3"/><path d="m669.8 306.1-23.7 1.3c-.4.1-.8.3-1.1.6.2.9.4 1.8.5 2.7h.9l24.6-1.4c.8 0 1.2-.5 1-1l-.6-1.5c-.3-.5-1-.9-1.6-.7" fill="#0068b3"/><path d="m663 301.9-12.3.7c-.4 0-.7.2-.7.4v.7c0 .2.3.4.7.4h.1l12.8-.7c.4 0 .7-.3.6-.5l-.4-.7c-.1-.2-.4-.3-.8-.3" fill="#0068b3"/><path d="m622.4 232.4c2.5 4.1 8.6 12.8 17.5 49.4s9.3 49.5 9.3 52.7-7-1.6-7-1.6-10.9-60-17.9-80.1-7.3-22.3-7.3-22.3z" fill="#b0ddf7"/><path d="m709.6 284.2c.2.8-.1 1.5-.8 1.6h-8.4c-.9 0-1.8-.6-2-1.5l-3.1-10.1c-.1-.4-.1-.7.1-1.1.2-.3.6-.5 1-.4l8.5.6c.8.1 1.4.7 1.6 1.5z" fill="#2c81c4"/><path d="m701.9 299.2 1 4.3 11.9-1.1-1.1-3.9z" fill="#2c81c4"/><path d="m712 291.9-11.8.2 1 4.4 11.9-.5z" fill="#2c81c4"/><path d="m739.5 272.5c-3.2 6.3-12.7 21.9-17.8 24.9s-20.2 11.8-22.3 12.1-7.3 0-9.4.3c-1.8.2-3.5.5-5.2 1.1-1 .6-4.8 2.9-5.5 3.8s-1.9 3.2-1.5 4.2.7 1.2 2.1-.6c1.3-1.5 2.8-2.6 4.5-3.5 1.1 0 2.3 0 3.4.1l1.1 1.7c-1.4 1.1-2.8 2.3-4.1 3.6-1.2 1.4-.8 1.9 1.3 1.4 2.3-.8 4.6-1.8 6.8-2.9 3.6-1.6 6.1-2.9 7.8-3.1s24-6.9 26.4-8.2c6.4-3.4 21-16.1 22-19.5s-7.2-20.4-9.6-15.4" fill="#e4aba5"/><g transform="translate(717 217)"><path d="m20 37c4.7 4.1 8.3 3.9 1 20-1.4 3.3 4.3-3.4 9.6-6.1s5.5-3.3 8.6-4.1c-2.1-2.4-5.2-14-3.6-21.4s-15.6 11.6-15.6 11.6" fill="#e4aba5"/><path d="m35.6 14.9c-2.4-11.7-11-15.4-20.2-13.5s-12.8 10.3-10.4 21.9c.5 2.1 1.1 4.2 1.8 6.3 0 1.3-.1 2.7-.4 4 .2 1 1.5 1.1 2.9 1 3.3 5.2 8 8.1 13.8 6.9 9.2-1.9 14.9-15 12.5-26.6" fill="#f0c2b8"/><path d="m35.9 14.9c-2.5-11.7-11-15.4-20.3-13.5-1.7.4 3.7 4.6 2.4 5.4 2.8 3.8 10.9 29.8 2.3 35 1 0 2-.1 3-.3 9.2-1.9 15-15 12.6-26.6" fill="#e4aba5"/><path d="m14.9 15.2-10.6-2.1c-1.4-2.1 1.5-11.3 15.7-12.7s17.3 6.4 19.1 13.8-3.7 19.6-3.7 19.6-11.1-4.7-9.5-7.5 1.8-7.6-.8-7.4-2.2 1.7-2.2 1.7z" fill="#f9af00"/><path d="m3 10.6c-1 0-4.8 3.4-1.8 8.4 4.4-.7 16.4-5 16.4-5l-5.2-3.7z" fill="#f9af00"/><path d="m27.7 169.4c-1.1 6.5-1.6 25.8.2 28.6s5.2 45.1 5.1 47.9c-.1 5-8.6 13.6-16 16.9 4 2.7 14.2-2 19.2-3.6s7.4.5 8.3-2c2-5.5-1.1-7.4-.8-15.8s6.8-33.7 1.3-46.9c-3.3-8-1.3-19.2-2.1-22s-15.2-3.1-15.2-3.1" fill="#e4aba5"/></g><path d="m744.9 264.9c-2.5 1.6-8.5 9.8-8.5 9.8-2.4 5.3-8.3 12.9-9.2 15.7s1.1 9.7 2.4 11.6.8 12.3.8 14.8 3.3 2.6 3.3 2.6 20.4 1.5 23.6.5 4.4-15.3 5-25.6 1.8-22.6-7.4-33.9c-4.6 1.6-6.2 2.1-10 4.5" fill="#e41f13"/><g fill="#e41f13" transform="translate(732 260)"><path d="m30.3 34.1c-.6 10.3 4.5 19.2-3.7 26-3.9 3.3.5 4.3.5 4.3l-15.1-2.4s-.4-5.2.1-6.6 5.3-36.8 5.3-41.6-2-7-3.9-9.4c3.3-2.1 5-2.6 9.4-4.2 9.2 11.4 8.1 23.6 7.4 33.9"/><path d="m27.3 59.5c.7 4 10.2 8.5 8.8 24.8s-3.6 39-2 48.4c.4 2.8 7.2 16.8 12.2 48-13.4 3.6-31.2 2.3-31.2 2.3-2-17.1-6.8-35.3-9.5-47.5-1.9-8.3-2.7-50.5-3.4-55.2s-1.6-21.3-1.6-21.3z"/></g><path d="m756 239.2c1.2 4.1 5.2 15.3 4 17.6s-7-2-8.3-7 4.3-10.6 4.3-10.6" fill="#f9af00"/><path d="m759 250.5c2.2 3.8 5 14.1 4 17.8s-9.8-8.2-7.8-13.8 3.8-4 3.8-4" fill="#f9af00"/><path d="m763 268.3c2.3 2.3 4.3 15.1 2.5 20.8-.9.3-1.8.3-2.6-.2s-1.4-1.2-1.7-2c0 0-1.2-20.8-.2-20.8s2 2.2 2 2.2" fill="#f9af00"/><path d="m715.5 329.9c-1.8 3.9 3 34.6 6.1 36.1s27.7 1 27.7 1l1.4-36.8c-5 .5-5.2 1.4-14.1 0s-20.6-1.3-21.1-.3" fill="#c18f00"/><path d="m776.9 329.9c.6 4.2-3 34.6-6 36.1s-26.4 1-26.4 1l-.2-36.2c4-.1 7.9-.6 11.8-1.3 7.8-1.2 20.6-1.4 20.8.4" fill="#c18f00"/><path d="m758.6 334.6 5.5-.6.7 6.6-2.1 3-3.3-2.7z" fill="#c18f00"/><path d="m733.1 334.6-5.5-.6-.7 6.6 2.1 3 3.3-2.7z" fill="#c18f00"/><path d="m760.3 335.3c-1.4-4.6-3-9.1-4.9-13.5-2.8-6.8-7.1-13.3-9.8-13s-5.9 4.8-8.5 11c-2.1 5-3.8 10-5.3 15.2-.1.3-.3.6-.6.7-.3.2-.6.2-.9.1-.6-.3-.9-1-.7-1.6 1.5-5.3 3.3-10.5 5.4-15.5 2.9-6.2 6-12.1 10.6-12.4s8.8 7.6 11.9 14.4c1.9 4.5 3.6 9.1 5 13.8.2.7-.2 1.4-.8 1.6h-.3c-.5 0-1-.4-1.1-.9" fill="#c18f00"/><path d="m749.5 267.3c-6.2.6-5.9 8.6-4.9 14.9s3 22.7 1.3 24.6-18.7 11.8-22.1 11.4-7-3.6-9.7-2.9c-2.3.8-4.3 2.4-5.5 4.5-1.1 2-1 5.4 1.5 4.7s1.1-.8 4.3-.9 3.9 1.2 8.8 1.6 25.6-5.1 31-10.7 5.3-25.5 3.7-34.8c-2.1-12.9-8.4-12.4-8.4-12.4" fill="#f0c2b8"/><path d="m743.5 308.6c2-.6 6 .7 9.8 8.5 1.6-.5 1.7-1.2 1.7-1.2s-2.5-8.8-8.8-9.5c-3.4-.4-2.7 2.2-2.7 2.2" fill="#c18f00"/><g fill="#e3dce7"><path d="m486.7 160h-7.5l2-26.9h7c3.6 0 6.5 1 8.7 3.1s3.3 4.9 3.3 8.5c0 5-1.2 8.8-3.7 11.4s-5.8 3.9-9.8 3.9zm1-24.3h-3.7l-1.6 21.6h4.6c2.9 0 5.2-1 7.1-3s2.8-5 2.8-9.1c0-3-.8-5.3-2.5-7-1.6-1.7-3.9-2.5-6.7-2.5z"/><path d="m508.4 139.7-1.8 20.3h-2.9l1.8-19.9zm-2.7-6.1c0-.6.2-1.1.6-1.5s.9-.6 1.5-.6c.5 0 .9.1 1.2.4s.4.7.4 1.2-.2 1-.5 1.4c-.4.4-.8.6-1.5.6-.5 0-.8-.1-1.1-.4-.5-.2-.6-.6-.6-1.1z"/><path d="m524.4 139.9 2.5-.4-1.8 20.7c-.2 2.8-1.1 4.7-2.7 5.9-1.5 1.2-3.3 1.8-5.4 1.8-1 0-2 0-2.9-.1s-1.9-.2-2.9-.4v-2.8c1 .3 2 .5 2.9.6s1.8.2 2.7.2c1.6 0 2.8-.4 3.7-1.2s1.5-2.1 1.7-3.9l.4-3.6h-.1c-.9 1.3-1.9 2.2-2.9 2.8s-2.1.9-3.2.9c-1.3 0-2.4-.5-3.3-1.6-.8-1.1-1.3-2.8-1.3-5.4 0-4.5 1-7.9 2.9-10.2 2-2.4 4.2-3.6 6.6-3.6.6 0 1.1 0 1.6.1.5 0 1 .1 1.5.2zm-1.8 13.8 1-11.4c-.4-.1-.8-.1-1.2-.2-.5 0-.9-.1-1.4-.1-1.5 0-3 .9-4.3 2.8s-2 4.7-2 8.3c0 1.7.2 2.8.7 3.5s1.1 1 1.7 1c.7 0 1.5-.3 2.5-1 1.1-.6 2-1.6 3-2.9z"/><path d="m535.1 139.7-1.8 20.3h-2.9l1.8-19.9zm-2.7-6.1c0-.6.2-1.1.6-1.5s.9-.6 1.5-.6c.5 0 .9.1 1.2.4s.4.7.4 1.2-.2 1-.5 1.4c-.4.4-.8.6-1.5.6-.5 0-.8-.1-1.1-.4-.5-.2-.6-.6-.6-1.1z"/><path d="m538.6 142.3v-2.3h2.3l.4-4.3 2.9-.5-.5 4.8h4.1l-.2 2.3h-4.1l-1.2 11.8c-.1 1.4 0 2.4.3 2.9s.8.8 1.5.8c.5 0 1 0 1.4-.1s.9-.2 1.5-.4v2.6c-.7.2-1.3.4-1.8.5s-1.2.1-2 .1c-1.4 0-2.4-.5-3.1-1.4s-.9-2.5-.7-4.7l1.2-12h-2z"/><path d="m562.3 139.9 2.5-.4-1.8 20.5h-2.8l.3-3.3h-.1c-.9 1.3-1.9 2.2-2.9 2.8s-2.1.9-3.2.9c-1.3 0-2.4-.5-3.3-1.6-.8-1.1-1.3-2.8-1.3-5.4 0-4.5 1-7.9 2.9-10.2 2-2.4 4.2-3.6 6.6-3.6.6 0 1.1 0 1.6.1.6 0 1 .1 1.5.2zm-1.7 13.8 1-11.4c-.4-.1-.8-.1-1.2-.2-.5 0-.9-.1-1.4-.1-1.5 0-3 .9-4.3 2.8s-2 4.7-2 8.3c0 1.7.2 2.8.7 3.5s1.1 1 1.7 1c.7 0 1.5-.3 2.5-1 1-.6 2-1.6 3-2.9z"/><path d="m573.8 131.2-2.6 28.7h-2.9l2.6-28.4z"/><path d="m595.5 150v-2.7h7.6l-.9 12.3c-1.3.2-2.5.4-3.7.5-1.1.1-2.4.2-3.6.2-3.3 0-5.9-1-8-3s-3.2-4.8-3.2-8.4c0-5.3 1.4-9.3 4.2-12s6-4.1 9.8-4.1c1.1 0 2.2 0 3.2.1s2 .2 3 .4l-.2 2.8c-1.1-.2-2.1-.4-3.1-.5-.9-.1-1.9-.1-3-.1-2.8 0-5.3 1.1-7.3 3.3-2.1 2.2-3.1 5.3-3.1 9.2 0 3.1.8 5.5 2.4 7.1s3.5 2.4 5.8 2.4h2.1c.6 0 1.3-.1 2-.2l.5-7.3z"/><path d="m613.6 160.3c-2.1 0-3.7-.6-4.9-1.9s-1.8-3.3-1.8-6.3c0-4.1.9-7.2 2.6-9.4 1.8-2.2 3.8-3.3 6.2-3.3 2.1 0 3.7.7 4.9 2.1s1.8 3.4 1.8 6.2c0 4-.9 7.1-2.7 9.3-1.7 2.2-3.8 3.3-6.1 3.3zm-3.7-8.5c0 2.3.4 3.9 1.1 4.7.8.8 1.7 1.3 2.8 1.3 1.3 0 2.6-.8 3.8-2.3 1.2-1.6 1.8-4 1.8-7.3 0-2.1-.4-3.7-1.1-4.6-.7-1-1.7-1.4-3-1.4s-2.5.8-3.7 2.4c-1.1 1.6-1.7 4-1.7 7.2z"/><path d="m628.6 160-3.5-20h3.1l2.7 17.4h.2l1.1-2.3c1-2.1 1.9-4.3 2.6-6.6.7-2.4 1.3-5.2 1.8-8.5h3c-.5 3.2-1.2 6-2.1 8.6-.9 2.5-1.9 5-3.2 7.3l-2.2 4.2h-3.5z"/><path d="m640.7 152.9c0-4.5.9-7.9 2.7-10.1s3.7-3.3 5.8-3.3c1.7 0 3 .4 3.9 1.2s1.4 2 1.4 3.4c0 2.3-1 4.2-2.9 5.6s-4.6 2.2-7.9 2.2c0 2.2.4 3.8 1.1 4.5.7.8 1.7 1.2 3 1.2.9 0 1.8-.1 2.7-.4.9-.2 1.7-.6 2.6-1.1v2.7c-1 .5-1.9.9-2.8 1.1s-2 .3-3.3.3c-2 0-3.5-.6-4.6-1.8-1.2-1-1.7-2.9-1.7-5.5zm10.7-8.4c0-.8-.2-1.4-.7-1.8-.4-.4-1.1-.6-1.8-.6-1 0-2 .6-3.1 1.9-1 1.2-1.7 3.2-2 5.7 2.4 0 4.3-.5 5.6-1.5 1.4-1 2-2.2 2-3.7z"/><path d="m667.4 139.8-.4 2.9c-.2 0-.4 0-.6-.1-.2 0-.4 0-.6 0-.8 0-1.6.4-2.4 1.1s-1.7 1.7-2.4 3l-1.1 13.3h-2.9l1.7-19.9 2.9-.4-.4 3.8h.2c.9-1.6 1.7-2.7 2.4-3.2s1.5-.7 2.3-.7c.2 0 .5 0 .7.1s.4 0 .6.1z"/><path d="m678.6 160 1.3-13.2c.2-1.6 0-2.8-.3-3.4-.4-.6-.9-.9-1.6-.9-.6 0-1.4.3-2.3.8s-2 1.3-3.3 2.4l-1.4 14.3h-2.9l1.8-19.9 2.9-.4-.3 3.1h.1c1.2-1.2 2.3-2 3.2-2.5 1-.5 1.9-.7 2.9-.7 1.4 0 2.5.5 3.3 1.5s1 2.8.8 5.2l-1.3 13.7z"/><path d="m686.7 160 1.8-19.9 2.9-.4-.3 3.1h.1c1.2-1.2 2.2-2 3.1-2.5s1.8-.7 2.8-.7c1.1 0 2 .3 2.6.8.6.6 1 1.4 1.3 2.5h.1c1.2-1.2 2.2-2 3.2-2.5s2-.8 3-.8c1.4 0 2.4.5 3.2 1.6.8 1 1 2.8.8 5.2l-1.3 13.6h-2.9l1.3-13.2c.2-1.6 0-2.8-.3-3.4-.4-.6-.9-.9-1.5-.9s-1.4.2-2.2.7-1.8 1.2-3 2.2l-1.4 14.7h-3l1.3-13.2c.2-1.6.1-2.8-.2-3.4s-.8-.9-1.6-.9c-.6 0-1.4.3-2.3.8s-1.9 1.3-3.2 2.4l-1.3 14.4h-3z"/><path d="m714.9 152.9c0-4.5.9-7.9 2.7-10.1s3.7-3.3 5.8-3.3c1.7 0 3 .4 3.9 1.2s1.4 2 1.4 3.4c0 2.3-1 4.2-2.9 5.6s-4.6 2.2-7.9 2.2c0 2.2.4 3.8 1.1 4.5.7.8 1.7 1.2 3 1.2.9 0 1.8-.1 2.7-.4.9-.2 1.7-.6 2.6-1.1v2.7c-1 .5-1.9.9-2.8 1.1s-2 .3-3.3.3c-2 0-3.5-.6-4.6-1.8-1.1-1-1.7-2.9-1.7-5.5zm10.7-8.4c0-.8-.2-1.4-.7-1.8-.4-.4-1.1-.6-1.8-.6-1 0-2 .6-3.1 1.9-1 1.2-1.7 3.2-2 5.7 2.4 0 4.3-.5 5.6-1.5 1.4-1 2-2.2 2-3.7z"/><path d="m741.6 160 1.3-13.2c.2-1.6 0-2.8-.3-3.4-.4-.6-.9-.9-1.6-.9-.6 0-1.4.3-2.3.8s-2 1.3-3.3 2.4l-1.3 14.4h-3.1l1.8-19.9 2.9-.4-.3 3.1h.1c1.2-1.2 2.3-2 3.2-2.5 1-.5 1.9-.7 2.9-.7 1.4 0 2.5.5 3.3 1.5s1 2.8.8 5.2l-1.3 13.7h-2.8z"/><path d="m749.6 142.3v-2.3h2.3l.4-4.3 2.9-.5-.5 4.8h4.1l-.2 2.3h-4.1l-1.2 11.8c-.1 1.4 0 2.4.3 2.9s.8.8 1.5.8c.5 0 1 0 1.4-.1s.9-.2 1.5-.4v2.6c-.7.2-1.3.4-1.8.5s-1.2.1-2 .1c-1.4 0-2.4-.5-3.1-1.4s-.9-2.5-.7-4.7l1.2-12h-2z"/><path d="m780.3 133.1 5.3 26.9h-3.4l-1.3-7h-9.8l-2.4 7h-3.3l10.3-26.9zm-2.5 2.4h-.3l-5.3 14.8h8.4z"/><path d="m801.4 139.9 2.5-.4-1.8 20.7c-.2 2.8-1.1 4.7-2.7 5.9-1.5 1.2-3.3 1.8-5.4 1.8-1 0-2 0-2.9-.1s-1.9-.2-2.9-.4v-2.8c1 .3 2 .5 2.9.6s1.8.2 2.7.2c1.6 0 2.8-.4 3.7-1.2s1.5-2.1 1.7-3.9l.4-3.6h-.1c-.9 1.3-1.9 2.2-2.9 2.8s-2.1.9-3.2.9c-1.3 0-2.4-.5-3.3-1.6-.8-1.1-1.3-2.8-1.3-5.4 0-4.5 1-7.9 2.9-10.2s4.2-3.6 6.6-3.6c.6 0 1.1 0 1.6.1.6 0 1.1.1 1.5.2zm-1.7 13.8 1-11.4c-.4-.1-.8-.1-1.2-.2s-.9-.1-1.4-.1c-1.5 0-3 .9-4.3 2.8s-2 4.7-2 8.3c0 1.7.2 2.8.7 3.5s1.1 1 1.7 1c.7 0 1.5-.3 2.5-1 1.1-.6 2-1.6 3-2.9z"/><path d="m807.1 152.9c0-4.5.9-7.9 2.7-10.1s3.7-3.3 5.8-3.3c1.7 0 3 .4 3.9 1.2s1.4 2 1.4 3.4c0 2.3-1 4.2-2.9 5.6s-4.6 2.2-7.9 2.2c0 2.2.4 3.8 1.1 4.5.7.8 1.7 1.2 3 1.2.9 0 1.8-.1 2.7-.4.9-.2 1.7-.6 2.6-1.1v2.7c-1 .5-1.9.9-2.8 1.1s-2 .3-3.3.3c-2 0-3.5-.6-4.6-1.8-1.2-1-1.7-2.9-1.7-5.5zm10.7-8.4c0-.8-.2-1.4-.7-1.8-.4-.4-1.1-.6-1.8-.6-1 0-2 .6-3.1 1.9-1 1.2-1.7 3.2-2 5.7 2.4 0 4.3-.5 5.6-1.5s2-2.2 2-3.7z"/><path d="m833.7 160 1.3-13.2c.2-1.6 0-2.8-.3-3.4-.4-.6-.9-.9-1.6-.9-.6 0-1.4.3-2.3.8s-2 1.3-3.3 2.4l-1.3 14.4h-2.9l1.8-19.9 2.9-.4-.3 3.1h.1c1.2-1.2 2.3-2 3.2-2.5 1-.5 1.9-.7 2.9-.7 1.4 0 2.5.5 3.3 1.5s1 2.8.8 5.2l-1.3 13.7h-3z"/><path d="m857.5 131.2-2.6 28.7h-2.9l.3-3.3h-.1c-.9 1.3-1.9 2.2-2.9 2.8s-2.1.9-3.2.9c-1.3 0-2.4-.5-3.3-1.6-.8-1.1-1.3-2.8-1.3-5.4 0-4.5 1-7.9 2.9-10.2s4.2-3.6 6.6-3.6c.5 0 1 0 1.4.1s.8.1 1.2.2l.7-8.2zm-5 22.5 1.1-11.4c-.4-.1-.8-.1-1.3-.2s-.9-.1-1.4-.1c-1.5 0-3 .9-4.3 2.8s-2 4.7-2 8.3c0 1.7.2 2.8.7 3.5s1.1 1 1.7 1c.7 0 1.5-.3 2.5-1 1.1-.6 2-1.6 3-2.9z"/><path d="m872.6 139.9 2.5-.4-1.8 20.5h-2.8l.3-3.3h-.1c-.9 1.3-1.9 2.2-2.9 2.8s-2.1.9-3.2.9c-1.3 0-2.4-.5-3.3-1.6-.8-1.1-1.3-2.8-1.3-5.4 0-4.5 1-7.9 2.9-10.2s4.2-3.6 6.6-3.6c.6 0 1.1 0 1.6.1.6 0 1.1.1 1.5.2zm-1.7 13.8 1-11.4c-.4-.1-.8-.1-1.2-.2s-.9-.1-1.4-.1c-1.5 0-3 .9-4.3 2.8s-2 4.7-2 8.3c0 1.7.2 2.8.7 3.5s1.1 1 1.7 1c.7 0 1.5-.3 2.5-1 1.1-.6 2-1.6 3-2.9z"/></g></svg>