<svg enable-background="new 0 0 1200 400" viewBox="0 0 1200 400" xmlns="http://www.w3.org/2000/svg" xmlns:xlink="http://www.w3.org/1999/xlink"><filter id="a" height="149.3%" width="106.6%" x="-2.7%" y="-22.8%"><feMorphology in="SourceAlpha" operator="dilate" radius="6" result="shadowSpreadOuter1"/><feOffset dx="7" dy="3" in="shadowSpreadOuter1" result="shadowOffsetOuter1"/><feGaussianBlur in="shadowOffsetOuter1" result="shadowBlurOuter1" stdDeviation="6"/><feColorMatrix in="shadowBlurOuter1" type="matrix" values="0 0 0 0 0   0 0 0 0 0   0 0 0 0 0  0 0 0 0.139690897 0"/></filter><path d="m.7.2v400h1200v-400z" fill="#a90061"/><path d="m970 83.2c-4.9-.6-9.7 1.6-12.6 5.6s-3.3 9.3-1.1 13.7 6.6 7.3 11.6 7.5c7.3.3 13.5-5.2 14-12.4s-4.7-13.6-11.9-14.4z" fill="#f092cd"/><path d="m972.5 53.2c-15.2-1.2-30 5.4-39.4 17.5-1.1 1.3-1.5 3-1.3 4.7s1.1 3.2 2.4 4.3c2.8 2.2 6.9 1.7 9.1-1.1 6.4-8.4 16.5-13.1 27.1-12.7s20.2 6 25.9 14.9c1.2 1.8 3.3 2.9 5.5 2.9 1.2 0 2.5-.3 3.5-1 3-2 3.8-5.9 1.9-8.9-7.7-11.9-20.6-19.5-34.7-20.6z" fill="#f092cd"/><path d="m974.6 25.5c-21.2-1.6-45.3 8-61.3 24.5-2.1 2.6-1.9 6.4.6 8.7s6.2 2.4 8.7.3c13.5-13.9 33.5-22 51-20.7s32.7 9.1 43 22.9c1.2 1.6 3.2 2.6 5.2 2.6 1.4 0 2.7-.4 3.8-1.3 1.4-1 2.3-2.5 2.6-4.2s-.2-3.4-1.2-4.8c-12.7-16.9-30.3-26.3-52.4-28z" fill="#f092cd"/><g filter="url(#a)"><path d="m0 239.8v160.4h1200v-160.4z"/></g><path d="m0 239.8v160.4h1200v-160.4z" fill="#a90061"/><path d="m1071.7 180.7c0-.9.4-4.3 2.4-9.8 1.3-3.9 5.7-15.3 7.4-25.8h-.6c-1.6 10.4-6 21.8-7.4 25.7-2 5.5-2.4 9-2.4 10z"/><path d="m1153.9 351.7c2.7 2.7 5 5.9 6.5 9.4l.9 2.6-7 4s-.6-2.5-2.4-.9-6 6.7-7.6 7.9c-3.5 2.6-6.7 2.3-9.9 1.8 0 0-3.5-4.2.1-5.2s3.2-1.6 5.4-5.4 2.1-8.3 3.2-10.4 10.8-3.8 10.8-3.8" fill="#55210e"/><path d="m1085.6 240.4c0 7.4 21.3 57.2 28.6 71.1 4.9 9.4 17.2 45 18.2 48.1 6.6-.7 23-4.1 23-4.1s-7.9-36.5-22-58c-5-7.6-17.2-49.7-17.8-57.4s-30 .3-30 .3"/><path d="m1073.9 366c-.4 3.8-1.5 7.5-3.3 10.9l-1.5 2.3-7.4-3s1.5-1.9-.9-2.4-5.1.3-7-.2c-4.2-1.2-10.4-2.2-13.3-5.5 0 0-.9-4.3 2.9-4.3s5.7.4 10-.4 8.5-3 10.8-3.5 9.7 6.1 9.7 6.1" fill="#55210e"/><path d="m1119.5 232.5s5.1 26.5-1.2 35.4c-7.8 10.7-21 41.6-21.5 46.1s-8.3 32-19.6 55c0 0-14-2-21.5-8.9 4.1-9.8 20-41.8 18.3-49.9-.6-3 .7-11.2 2.1-14.7s11.2-34 14.4-61.8c1.1-10 29-1.2 29-1.2"/><path d="m1089.5 240.8c-1.9 6.2-9.9 47-11.4 50.3s-5.5 10-3.6 21c-2.9 4.2-2.3 13-6.1 19.6s-12.4 26.4-12.7 28.4 5.1 1.8 7.1 3.2 4.2-9.1 7.5-20 9.6-27.4 10.5-32.2 1.1-12.4 2.6-18.6 9.9-44.1 9-50.7-2.9-1-2.9-1"/><path d="m1084.4 163.3c-4 .6-9.3 45.2-3.3 69.2 5.9 8.2 21.1-.3 25.3-.8s5.2-65.4 2.3-67.1-4.1-6.3-6.1-6-15.1 4.3-18.2 4.7" fill="#d5dbd9"/><path d="m1094.4 138c.1 3.1 5.5 13 8 17s-7.7 7.1-7.7 7.1l-9.1 4.1s-1.3-6.1-3.7-8.7 12.5-19.5 12.5-19.5" fill="#d39883"/><path d="m1078.4 206.5c.3-7.1 2-30.6 3.8-37.8.1-.8.2-1.7.4-2.5l1.5-4.4c.4.9.3 1.1.9 1.5l7.6-.4-7.7 6.4c-1.1 3.9-1.5 44.2-1.4 45.9-3.2 2.3-3 1.7-3 1.7s-2.2-9.5-2.1-10.4" fill="#0068b3"/><path d="m1101 150.8c-1 2.2-14.2 12.4-14.2 12.4l3 7.7 14.7-15.7z" fill="#fff"/><path d="m1084.1 162.9c-1.7 2.2-3.2 4.5-4.5 7l.4.4-1.6 6.2.3 27s2.1-33 3.8-36.8 1.2-3.1 1.2-3.1z" fill="#292a36"/><path d="m1103.9 154.9c3.3 2.8 6.2 6.1 8.7 9.6 2 2.9 4.9 17.3 5.6 32.5.5 10.3 2.7 20.5 6.6 30.1 2.6 6.5 5.5 15 6.4 19.9.3 1.6-51.7 13.3-50.7 8.1 1.7-9-.7-21.6-1.2-29.2-.6-6.8-.7-13.7-.2-20.5.9-10.2 7.8-29 9.7-34.2 3.1-8.6 15.1-16.3 15.1-16.3"/><path d="m1101.7 152 4.1 4.2-11.2 11.3-3.8.6-.4 8.6s-5.9 9.2-11.9 31.9c1.5-8.7.3-13.9 6.4-31.9 3.7-10.9 16.8-24.7 16.8-24.7" fill="#2c2e39"/><path d="m1083.8 160.2-1.2 5.3-.5 3.6s.2-4 2.6-6c.2-.2-.9-2.9-.9-2.9" fill="#fff"/><path d="m1074.7 126.3c-6.2 2.8-8 6.5-5 16.2.1.6 1.4 1.6 1.6 2.2s.1.2.2.4c.2 2.6.3 6.7.7 7.3s1.7.4 2.9.1c.8 1.3 1.6 2.3 2.3 3.3s2.4 3 3.2 2.7c3.2-.8 6.2-3.3 9.1-5.4s1.4-9.7-.1-14.7c-2.4-8.3-7.1-15.7-14.9-12.1" fill="#d39883"/><path d="m1067.9 135.5c-1.3-.4-2.6-.9-3.8-1.6-1.1-.8-2.1-1.7-2.9-2.8l4.7.5s-6-1.2-4.7-1.1c2.7.3 5.4-.8 7.2-2.9 3.3-4.3 8.2-7.1 13.6-7.6 4.8-.6 6.3.9 6.3.9s12.3-.1 10.9 16.4c0 0-.9 7.6 1.7 8.6-1.5 2.1-6.5 2.2-6.5 2.2s-4.7-5.3-4.7-7.2c0-3.9-3.7-4.1-4-2.5s1.3 3.4.9 4-1.7 3.1-1.8 2.6c-1.2-6.4-7.5-10.4-9.5-10.9s3.7-5.9 5.3-7-3.1 1-6.3 6.1c-.7 1.1-6.4 2.3-6.4 2.3" fill="#55210e"/><path d="m1085 144.4c-.3 1.4-.6 6.7-1 7.9s-5.5 5.5-5.5 5.5 2 6.7 2.8 6.5 7.2-6.5 7.7-7.5-1.9-13.7-2.3-14.8-1.7 2.4-1.7 2.4" fill="#55210e"/><path d="m1085.4 138.1c.3-.8 2-2.6 3.1-1s2.3 5.8.8 6.5-3.9-5.5-3.9-5.5" fill="#cc9583"/><path d="m1106.6 221.9-17.6 3.8s-1.4 6.1.5 7.1 17.6-2.4 19-3.8-1.9-7.1-1.9-7.1" fill="#2c2e39"/><path d="m1072.3 192c.3-1.2.5-2.5.5-3.8 0-3.1-1.1-5-1.1-7.4s.7-4.2 3.4-7.7c6.1-8.3 13.6-16.8 13.6-27.5 0-1.7-.2-3.4-.6-5l-.5.2c.3 1.6.5 3.2.5 4.8 0 10.5-7.3 18.9-13.5 27.1-2.7 3.6-3.4 6-3.4 8.1s1.1 4.5 1 7.4c0 1.2-.2 2.4-.5 3.6-2 7.5-3 17.9-9.2 17.8-1.1 0-2.3-.3-3.3-.8l-.2.5c1.1.5 2.3.9 3.5.9 6.9-.1 7.7-10.9 9.8-18.2"/><path d="m1060.5 207.8c.2.3.4.6.3.8l-1.4 2.6c-.4.6-1.8.5-2 .3l-14.9-14.8c-.6-.6-.7-1.2-.4-1.5l2.7-2.9c.2-.2 1-.7 1.5-.3z" fill="#3c3c3b"/><path d="m1061.1 207.6c.2.3.4.6.3.7l-1.9 2.8c-.1.2-.6.2-.8 0l-15.3-14.9c-.5-.4-.6-.9-.4-1.1l2.7-3c.2-.2.4-.3 1 .3z"/><path d="m1053.4 200.6c.1-.1.1-.3 0-.4s-.2-.2-.3-.2c-1.4-.2-3.5-.9-3-1.4s3.9-.1 5.4.2c1.9.5 3.7 1.1 5.4 2 4 .3 7.9.3 11.9-.2 1.9-.3 7.9 3.8 5.7 7.4-1.1 1.9-10.9 1.3-17.6.3-2.5.6-5.1.7-7.6.2-1.8-.5-3.5-1.3-5.1-2.4-1.8-1-.8-1.5 0-1.1 1.1.5 2.2.9 3.3 1.1l-2.7-1c-2.1-.7-2.3-2-1.8-2.5s.9 1 1.8 1.2l2.5.3-3-.6c-.7-.3-1.3-.9-1.6-1.6-.7-1.2.1-.9.1-.9s1.2 1.2 1.8 1.2h3.1c-1.2 0-2.4-.3-3.5-.7-1-.3-2-.9-2.8-1.6-.6-.7-.5-1.4.7-.9l2.8 1c1.5.3 3 .5 4.5.5" fill="#d39883"/><path d="m1068.3 199.8-4.4.5s0 11.9-.2 13.4l6.9-1.1z" fill="#d5dbd9"/><path d="m1098.1 168.5c3.9-4.3 10.2-3.8 12-.6s2.9 4.9 1.8 11c-2.3 13-9.2 28.2-14.3 30.4-2.6 1.1-29.2 7.9-29.6 6.7s-1.4-14-2.5-16.2c11-2.6 21.5-3.3 22.4-5.2 2.1-4.5 10.2-26.1 10.2-26.1" fill="#2c2e39"/><path d="m1086.6 140.8c0 1.2.6 2.2 1.3 2.2s1.4-1 1.4-2.2-.6-2.2-1.4-2.2-1.3 1-1.3 2.2"/><path d="m1025.1 126.9c3.4-.3 6.4 2.3 6.7 5.7s-2.3 6.4-5.7 6.7-6.4-2.3-6.7-5.7c-.1-1.6.4-3.3 1.5-4.5 1-1.3 2.6-2.1 4.2-2.2" fill="#87cac0"/><g fill="#87cac0" transform="translate(998 100)"><path d="m26 13.2c7-.6 13.8 2.4 18 8 1 1.3.8 3.1-.5 4.1s-3.1.8-4.1-.5c-2.9-3.9-7.6-6.1-12.5-5.9s-9.3 2.8-11.9 6.9c-.5.9-1.4 1.4-2.4 1.4-.6 0-1.1-.2-1.6-.5-.7-.4-1.2-1.1-1.3-1.9s0-1.6.4-2.2c3.5-5.4 9.4-8.9 15.9-9.4"/><path d="m25 .5c9.7-.8 20.7 3.7 28.1 11.2.9 1.2.7 2.9-.4 3.9s-2.8 1.1-3.9.2c-6.1-6.3-15.3-10-23.3-9.4s-15 4.1-19.8 10.4c-.5.8-1.4 1.2-2.3 1.2-.6 0-1.3-.2-1.8-.6-.6-.5-1-1.2-1.2-1.9-.1-.8.1-1.6.6-2.2 5.8-7.7 13.9-12.1 24-12.8"/></g><path d="m697.9 365.6 3.4-.3 2 23.1-3.4.3z" fill="#334042"/><path d="m728.3 320.1c3.7-6 7.4-8.9 10.8-3.5.7 1.9 1.1 3.8 1.1 5.8.9 14.6.8 29.3-.2 43.9 0 1.3-.5 2.6-1.2 3.7-3.4 3.8-6.4 6-9 2.9-.6-1.3-.9-2.6-1-4-1.3-14.4-1.9-28.8-1.6-43.2 0-1.9.3-3.8 1.1-5.6" fill="#6c828a"/><path d="m758.5 387.7h16.6v8.2h-16.6z" fill="#69787d"/><g transform="translate(689 307)"><path d="m106.5 80.3v3.6h-59.3v-3.6c0-1.5 1.2-2.7 2.7-2.8h53.9c1.5.1 2.7 1.3 2.7 2.8" fill="#69787d"/><path d="m75.3 84.5h3.8v32h-3.8z" fill="#69787d"/><path d="m34.5 80h17.9v8.8h-17.9z" fill="#334042"/><path d="m40.8 84.1h4.1v34.5h-4.1z" fill="#334042"/><path d="m13.3 60.9c.8-1.2 1.2-2.6 1.3-4 1-15.7 1.1-31.5.2-47.3-.1-2.2-.5-4.3-1.2-6.3-3.7-5.9-7.7-2.7-11.6 3.8-.8 1.9-1.2 3.9-1.3 6-.2 15.6.4 31.1 1.8 46.6.1 1.5.5 2.9 1.1 4.3 2.8 3.3 6 .9 9.7-3.1" fill="#465557"/><path d="m10.5 79.5v3.9h63.9v-3.9c0-.8-.3-1.5-.9-2.1s-1.3-.8-2.1-.8h-58c-1.6 0-2.9 1.3-2.9 2.9" fill="#465557"/><path d="m141.6 71.4c.1-2.4 0-4.9-.5-7.3-.8-5.1-6.4-6.2-10.7-7.3l-19-4.6-24.7-6-33.5.8c9.7-.2 20.4 2.5 29.5 5.7 6.4 2.1 12.3 5.3 17.6 9.4 2.6 2.1 4.8 4.4 6.8 7.1 2.7 3.6 6.2 5.6 10.3 7.3 1 .3 2 .8 2.8 1.4l.8.9c-1.3 18.2-.8 53.1-.8 53.1l18.9-.2c.2-11.4.8-22.9 1.5-34.3.3-5 .8-10 .8-15s.2-7.4.2-11" fill="#0068b3"/><path d="m138.2 64.7c-1.9-4.2-6.9-4.3-12.2-5.7l-16.5-4.6-21.2-5.8-36.9-2.2c-1.4 0-3 8.2-3.1 9-.8 6.8 2.4 12.7 8.1 16.4 12.6 8.3 30.9 8 45.4 7.5l11.5-.5c-5 19-12.1 51.8-12.1 51.8s1.9 2.9 22 3.2c2.3-10.1 4.9-20.1 7.5-30 2.1-7.8 4.7-15.5 6-23.4 2.5-4.6 3.5-11.4 1.5-15.7" fill="#0078be"/><path d="m85.9 39.7c-12.5.5-24.5 6.4-37.2 7.7-.4 7.7-1.3 15.5-2.6 23.1h42.2c-.1-11.3-2.5-20.7-2.5-26.8 0-1.4 0-2.7.1-4" fill="#162f4e"/><path d="m95.2 68.6-1.7-1.4c1.7-.2 3.4-.5 5.1-1.1.8-.3 1.7-.7 2.4-.3.6.5 1.1 1.2 1.2 2 1.2 4.9 10.7 47.3 11.5 50.7s3.6 8.3 5.4 12.5c1.6 4.1 3.6 8 5.8 11.8.6.7 1.3 1.3 2.1 1.8l1.6 1c-.3.4-.6.8-1 1.1s-.8.6-1.3.8h-3.9c-1.6-.5-3-1.6-3.8-3.1-1-1.5-1.2-3.3-2.4-4.7s-3.1-2.6-4.7-3.8c-.9-.8-1.9-1.6-3-2.2l-2.6-1.1c-1.3-.7-.9-1.3-.8-2.7s0-2.2-.1-3.4c-.1-1.8-.6-3.5-1.2-5.2-.8-2.5-2.1-4.9-3.7-7.1-4.1-5.2-7-11.4-8.3-17.9-.5-2.7-.7-5.4-.7-8.1-.1-2.7.3-6-.5-8.5s-1.7-3.4-2.3-5.2-1.2-2.7-1.7-4.1z" fill="#efb690"/><path d="m101.1 65.9.5.3c.6.4 1.1.9 1.5 1.4 2.9 3.6.1 9.1-1.2 12.9s-2.8 9.7-4.4 14.4c-3.2 9.3-6.7 18.5-9.6 27.9-1.4 4.4-1.3 8.9-2 13.4-.7 4.3-1.2 8.7-1.3 13.1.1.9.4 1.8.8 2.6l.9 1.8-1.5.4h-1.5l-3.3-1.8c-1.2-1.3-1.8-3-1.7-4.7 0-1.7.7-3.4.5-5.2s-1.3-3.8-2-5.7c-.4-1.2-.9-2.4-1.5-3.5-.4-.8-1.1-1.5-1.5-2.3s-.1-1.6.7-2.7c.7-.9 1.2-1.9 1.7-3 .8-1.6 1.4-3.3 1.8-5 .5-2.6.7-5.3.5-8-.6-6.6.1-13.2 2.3-19.5 1.1-2.6 2.3-5 3.8-7.4 1.2-2.1 3.5-3.8 1.8-6.2-.7-.8-1.3-1.6-1.8-2.4-.2-.3-.3-.6-.3-1 .1-.6.3-1.1.7-1.5 1.4-1.7 3.1-3.2 4.5-4.9s.6-1 1.4-1.2 1.8.1 2.8-.4 2.4-2 3.8-2.3c1.2-.2 2.5 0 3.6.7" fill="#fac39d"/></g><path d="m711.6 383.6h10.3l41.1.4h6.4c-1.3-3.4-5.9-4-9.3-4-15.8-.7-34.4-.9-45-14.7-3.1-4-4.2-9-4.6-14.2-1.4 2.8-3.4 11.3-3.6 12.6-.8 4.9-.8 11.2 1.3 15.8.7 1.7 1.9 3.1 3.4 4" fill="#f9af00"/><path d="m760.1 380.1c-15.8-.7-34.4-.9-45-14.7-3.1-4-4.2-9-4.6-14.2.2-.5.5-.8.7-.8l32.2 2.8 42 10 7.9 11.4-.6.5c-4.5 3.3-9.2 6.4-13.8 9.5-1.4 1-2.8 1.8-4.3 2.6-.6.4-1.1.9-1.8.7s-1.9-3.8-3-3.8h-.4c-1.3-3.4-5.9-4-9.3-4" fill="#f9af00"/><path d="m761.8 361.5v5.9c.1 2.8 2.3 5 5.1 5h144.8c2.8 0 5-2.2 5-5v-5.9z" fill="#d5dbd9"/><path d="m783.9 326.8-22.1 34.8h154.9l-32.2-34.8z" fill="#a8aab3"/><path d="m814 347.3 3.5 8.7h-43l4.2-8.9z" fill="#fff"/><path d="m883.4 309.3c0-1.3 3.7-36 3.7-36s2.8-.3 2.9 3-1.2 66.2-1.2 66.2c0 1.1-.8 2.1-1.9 2.3-2.1-.1-2.6-1.9-7.2-6.8s-5.1-4.8-5.5-5.8c-.8-7.1 8.6-9.6 9.2-22.9" fill="#2f2722"/><path d="m884.9 343.2s-.4 4.1-3.3 5.2l-58.2 1.7s-3.8-1.3-4.9-4.6c21-4.2 66.4-2.3 66.4-2.3" fill="#2f2722"/><path d="m874.6 331.6 10.2 10.3c.8.8 2.4 1.3 2.4-.6l1-65.3c.1-1.9-.6-3.1-1.5-2.6l-11.3 7c-.5.3-.9 1.7-.9 3.1l-.6 46.2c-.1.7.2 1.4.7 1.9" fill="#8ba4a8"/><path d="m874.6 329.1 11.3 9.4.9-60.1-11.7 5.9z" fill="#92d2f4"/><path d="m870.2 331.9c2.1 0 3.9 0 4.2.4l10 10.8c.6.7-1.2 1.3-4.1 1.3h-.8l-10-12.6z" fill="#7b9396"/><path d="m828 333.4 42-1.5 10 12.7-57.6 1.5c-2.6 0-4.4-.4-4.1-1.1l5.8-10.8c.2-.4 2-.8 3.9-.8" fill="#8ba4a8"/><g fill="#d5d6d7"><path d="m825.4 340.2 11.6-.4.4-2.2-11.1.4z"/><path d="m834.7 333.9-.2 1 2.1-.1.2-1z"/><path d="m830.5 334-.4 1h2.1l.3-1z"/><path d="m871.2 344 5.9-.1-8.4-11.4-4.4.2z"/><path d="m864.7 343.3.5 1.1 4.4-.2-.5-1z"/><path d="m864 342 .5.9 4.3-.1-.5-1z"/><path d="m863.4 340.7.4.9 4.2-.1-.5-1z"/><path d="m862.8 339.4.4.9 4.1-.1-.5-.9z"/><path d="m862.3 338.3.4.8 3.9-.1-.4-.8z"/><path d="m861.8 337.2.3.8 3.9-.2-.5-.7z"/><path d="m861.3 336.2.3.7 3.8-.1-.5-.8z"/><path d="m860.8 335.2.3.7 3.7-.1-.4-.7z"/><path d="m860.4 334.3.3.6 3.5-.1-.3-.7z"/><path d="m859.9 333.4.3.6 3.5-.1-.3-.6z"/><path d="m859.5 332.5.3.6 3.4-.1-.3-.6z"/><path d="m857.5 343.3.3 1.2 5.7-.2-.5-1.1z"/><path d="m857 342 .4 1 5.5-.1-.5-1.1z"/><path d="m856.6 340.7.4 1 5.3-.1-.5-1.1z"/><path d="m856.3 339.5.3.9 5.1-.1-.4-1z"/><path d="m855.9 338.4.3.9 5-.2-.4-.9z"/><path d="m855.6 337.3.2.8 4.9-.1-.4-.9z"/><path d="m855.3 336.3.2.8 4.7-.2-.3-.8z"/><path d="m855 335.3.2.8 4.6-.2-.3-.8z"/><path d="m854.7 334.4.2.7 4.5-.1-.3-.8z"/><path d="m854.4 333.5.2.7 4.4-.1-.3-.7z"/><path d="m851 332.8.2.6 7.4-.2-.3-.7z"/><path d="m851 343.5.2 1.1 5.6-.1-.3-1.2z"/><path d="m850.8 342.1.2 1.1 5.4-.1-.3-1.1z"/><path d="m850.6 340.9.2 1 5.2-.2-.3-1z"/><path d="m850.4 339.7.1.9 5.1-.1-.2-1z"/><path d="m850.2 338.5.1.9 5-.1-.3-.9z"/><path d="m850 337.5.2.8 4.8-.1-.3-.9z"/><path d="m849.8 336.4.2.9 4.7-.2-.3-.8z"/><path d="m849.7 335.5.1.7 4.6-.1-.3-.8z"/><path d="m849.5 334.6.1.7 4.5-.2-.2-.7z"/><path d="m849.4 333.7.1.7 4.3-.2-.2-.7z"/><path d="m849.2 332.8.1.7 4.3-.1-.2-.7z"/><path d="m844.3 343.7v1.1l5.5-.1-.1-1.2z"/><path d="m844.2 342.3.1 1.1 5.3-.1-.1-1.1z"/><path d="m844.2 341.1v1l5.3-.2-.2-1z"/><path d="m844.2 339.9v.9l5.1-.1-.2-1z"/><path d="m844.2 338.7v.9l4.9-.1-.1-.9z"/><path d="m844.1 337.6.1.9 4.8-.2-.2-.8z"/><path d="m844.1 336.6v.8l4.7-.1-.1-.8z"/><path d="m844.1 335.7v.7l4.6-.1-.2-.8z"/><path d="m844.1 334.7v.8l4.4-.2-.1-.7z"/><path d="m844.1 333.9v.7l4.3-.2-.1-.7z"/><path d="m839.8 333.2-.1.6 8.6-.3-.1-.6z"/><path d="m837.6 343.9-.2 1.1 5.5-.1v-1.2z"/><path d="m837.7 342.5-.1 1.1 5.3-.2v-1z"/><path d="m837.9 341.2-.1 1.1 5.1-.2v-1z"/><path d="m838.1 340-.2 1 5.1-.2v-.9z"/><path d="m838.2 338.9-.1.9 4.9-.1v-.9z"/><path d="m838.3 337.8-.1.9 4.8-.2v-.8z"/><path d="m843 339.4-4.9.1.5-3.7 4.4-.1z"/><path d="m838.7 334.9-.1.8 4.4-.2v-.7z"/><path d="m838.8 334-.1.7 4.3-.1v-.7z"/><path d="m838.9 333.2-.1.7 4.2-.2v-.6z"/></g><path d="m884.3 266.6c-.1 2.1-1.2 4.3-2.7 5.1s-3.3-.4-3.4-2.9 1.5-5.3 3.3-5.7 2.8 1.3 2.8 3.5" fill="#8ba4a8"/><path d="m882.4 267.3c.1 1.3-.6 2.5-1.7 3.1-1 .4-1.9-.4-1.9-1.8s.8-3.1 1.9-3.4 1.7.7 1.7 2.1" fill="#2f2722"/><path d="m880.3 271.2.2 6.2 2.1-1.5.1-5.7z" fill="#647e83"/><path d="m770.6 274.8s-3.3 7.4-5.7 9.1-15.2-2.7-15.2-2.7 4.7-11.9 4-13.8 3.3-3.6 3.3-3.6z" fill="#efb690"/><path d="m757 266.3c1.2 1.2 2 3 3.5 3.9s.7.7 3.5 2.8c.9.5 1.8.9 2.8 1.1l6.2 1.9c.5.2 1.1.3 1.7.3 1.2-.3 2.1-1 2.7-2.1l.3-.5c.1-.8-.9-1.6-.6-2.4s.6-.6.8-.9c.2-.6.2-1.2-.1-1.7.5.1.9-.5 1-1 0-.5.1-1 .2-1.5.4-.7 1.3-.8 2.1-1.1.3-.2.4-.5.3-.8-.4-1.1-1-2.1-1.6-3.1-.8-.7-1.2-1.7-1.3-2.7.1-.7.3-1.3.6-1.9.3-1.3-.4-2.6-.7-4s-.2-2.1-.3-3.1c0-1.1-.4-2.1-1.1-2.9-2.2-2.1-3.3-4.6-6-5.9-4.9-2.3-10.8-1.5-15.5 1.1-1.5.7-2.8 1.7-3.9 3-.8 1.1-1.4 2.2-1.8 3.5-1 2.8-1.2 5.7-.5 8.6s2.3 5.4 4.7 7.2c.9.8 2 1.4 3 2.2" fill="#fac39d"/><path d="m803.8 306c-.1-.3.6-1.2.7-1.5s1.1-2 1.6-3 2.7-3.4 3.7-5.3 1.1-2.6 1.8-2.8l.5.2c1.9 1.8-.4 4.2-1.3 5.7-.3.6-.6 1.2-.9 1.9l5.1-3.2c.9-.6 5.7-3.8 6.4-2.6s-.4 1.2-.8 1.6c-1.7 1.5-3.6 2.8-5.5 4.1l5-3c.7-.5 3.8-2.1 4.4-.9.2.3.1.8-.2 1-2.1 1.7-4.5 3.2-7.1 4.2l5.7-2.7c.5-.2 1.5-.6 2-.1s-.2 1.5-.6 1.8c-2 1.4-4 2.6-6.2 3.7 1.8-.4 7-3.1 6.5-1.5-.2.4-.5.8-.9 1.1l-6 4.4c-1.1.8-2.3 1.5-3.6 2.1l-3.6 1.8c-1.8.9-3.2.9-5.2 1.3z" fill="#fac39d"/><path d="m819.7 325c.1-.3 1.3-.6 1.6-.7l3.1-1.4c2-.9 4.2-1 6.2-1.8s2.4-1.3 3.1-1 .2.2.2.4c.4 2.6-2.8 3-4.5 3.6l-1.9 1 5.9.6c1.2.2 6.9.6 6.7 2s-1.1.7-1.6.7c-2.3.1-4.6.1-6.9-.2l5.8.8c.9.1 4.3.7 4 2.1s-.4.6-.8.6c-2.8 0-5.5-.3-8.2-1.1l6.2 1.4c.5.1 1.6.5 1.6 1.2s-1.1 1-1.6 1c-2.4-.2-4.8-.5-7.1-1 1.6.9 7.4 2 5.9 2.9-.4.2-.8.3-1.3.3l-7.4-.3-4.2-.6-3.9-.9c-1.7-.4-3.4-1.2-4.9-2.2z" fill="#fac39d"/><path d="m752.6 269.6c-.4-.6-.8-1.4-1-2.1-1-2.6-1.9-5.2-2.6-7.9-.8-2.7-1.2-5.6-1.2-8.4-.3-5.8 3.4-11 9-12.6 2.6-.9 5.3-1.2 8-.9 2 .1 4 .4 6 .9 1 .2 2 .5 2.9.9.7.6 1.4 1.1 2.2 1.6 1.1.5 2.3.7 3.5.6h.6c.2.2.1.6 0 .9-2.2 5.5-9.5 5-11.4 10.6-.4 1.3-.7 2.7-.8 4.1-.2 1.3-.7 2.6-.8 4s.5 1.9-.4 2.4-2.1-.3-2.1-.5c.1-1.2-.1-2.4-.4-3.6s-1-2.2-2-2.9-2.4-.5-3.3.3c-1.1 1-1 2.6-.8 4s1.5 4.4 3.7 4.8c-.9.3-1.5 1.1-1.6 2-.1.2-.2.5-.4.6h-.5c-2.9-.1-4 .8-5.8 2.9-.2-.7-.5-1.3-.8-1.9" fill="#55210e"/><path d="m768.3 280c.5 1.5 1.2 3.7 2 6.4 1.9 6.6 3.2 13.4 3.9 20.3.4 3.5.6 6.9.6 10.4-7.4-9.9-14.1-15.2-17.8-20.2s-8-11.7-8.3-13.5c-.4-2 .3-4 1.8-5.3 4.5-4.3 14.3 3.4 14.3 3.4z" fill="#bfc2c3"/><path d="m751.1 289c9.9-7.3 18 3.6 22.4 11.2 2.7 4.8 5.5 9.6 9.5 13.3 1.7-.4 21.7-7.9 20.8-9.7 2.1 4.1 4.9 6.8 6.3 10.8-5.9 5.7-22.2 15.2-28.4 17.7s-20.1-18.2-26-23.5-12.2-14.2-4.6-19.8" fill="#127cc0"/><path d="m752.6 272.9 15.6 7.1-3.1 6.8-15.4-7.8z" fill="#eaeef1"/><path d="m772.4 300.6c-3.5-6.8-8.5-12.8-14.6-17.5l-8.1-4.1-7.3 12.3-2.8 11.2c-1.7 7.1-2.3 14.3-1.9 21.6.4 5.6.6 11.5.5 17.7-.1 4.4-.2 8.6-.5 12.6 12.7-1.3 24.7-7.2 37.2-7.7.3-26.7 3-35.4-2.5-46.1" fill="#0075bc"/><path d="m751.5 275s16.5 14.9 22.7 28.9c-10.9-10.9-15.2-10.9-15.2-10.9v-7.6l-4.5 3.9-4.8-10.3z" fill="#0068b3"/><path d="m815.2 321.7c2-.1 3.9 0 5.9.2.1.5.2 1.1.2 1.6.6 4 .4 8.8.5 12.8-3.8.2-8.9-.9-12.6-.6-9.2.9-34-4-36.2-5.7-6.6-5.1-13.3-10.2-20.1-15.1-3.8-2.6-10.7-8.3-10.2-13.9 0-.4.1-.9.2-1.3 2.5-8.5 13.8-5.1 18.8-2.1 4.1 2.6 7.8 5.7 11.1 9.2 5.6 5.5 4.3 8.2 12.2 9.5s21.8 5.7 30.2 5.4" fill="#127cc0"/><path d="m733.3 267 5.7 5.5c5.9 5.5 8.2 6.7 8.2 6.7s-2.8 5-1 11.7c-6.8-6.4-11.3-14.7-12.9-23.9" fill="#efb690"/><path d="m807.6 334.2c.5.8.9 1.6 1.2 2.4.4.8.7 1.6 1 2.5.1.6-.3 1.2-1 1l-.7-.5c-.3.9-.9.6-1.3 0s-1.1-2.5-2.5-2.7h-8.2s.5-2.1.5-2.3.6-2.1 1.9-2.1h5.1c.8-.1 1.6 0 2.4.3.7.3 1.2.7 1.6 1.3" fill="#efb690"/><path d="m802 333.6-1 .3h-.9c.3-.1.5-.1.8 0 .6.1 1.3.2 1.9.2.6.1 2.7.8 2.1 1.8s-1.8.6-2.5.5-2.7.6-4 1c-3.3.9-6.6-.3-9.7-1l2.4-4.3 10.6-3 3 1c1.4.4 2.7 1.1 3.9 1.9.4.4.8.9 1 1.5l1 2c.3.5 1.5 2 .7 2.7s-1.2-.1-1.4-.4-1.3-2.8-2.3-3.4c-1.7-.8-3.7-1.2-5.6-.8" fill="#e3bba3"/><path d="m802 333.6-1 .3h-.9c.3-.1.5-.1.8 0 .6.1 1.3.2 1.9.2.6.1 2.7.8 2.1 1.8s-1.8.6-2.5.5-2.7.6-4 1c-3.3.9-6.6-.3-9.7-1l2.4-4.3 10.6-3 3 1c1.4.4 2.7 1.1 3.9 1.9.4.4.8.9 1 1.5l1 2c.3.5 1.5 2 .7 2.7s-1.2-.1-1.4-.4-1.3-2.8-2.3-3.4c-1.7-.8-3.7-1.2-5.6-.8" fill="#efb690"/><path d="m745.9 289.9 2.2 1.1c2.5 1.3 4.5 3.4 5.5 6.1l11.3 28.2 29.7 5.1-1.3 8.2-29.3-.2c-2.8-.3-5.2-1.9-6.6-4.3l-9.8-11.2z" fill="#e7e7e7"/><path d="m753.9 275c.5.3.7.9.5 1.5-.4.4-.6 1-.8 1.5-.1.6-.1 1.2-.1 1.8-.3 1.3-1.4 2.3-2.7 2.5-1.3.1-2.7-.1-3.9-.6-4.7-1.5-9.4-4-12.2-8.1s-3.4-8.4-3.9-12.9c-.5-2.7-.5-5.6.1-8.3.2-.8.5-1.5.9-2.2 3.4-6.7 11-7.4 17.2-5.1 6.2 2.4 9.8 9 8.5 15.5-.3.7-.5 1.4-.7 2.2-.2 1.6.7 3 1.4 4.4s1.9 3.5.5 4.2-1.5-.1-2.2.6c-.6.6-.9 1.4-.9 2.2 0 .2 0 .3-.1.4s-1.3.4-1.6.4" fill="#fac39d"/><path d="m725.7 288.4c.8-.8 1.6-1.6 2.3-2.5 1.5-1.7 2.7-3.7 3.4-5.9 1.4-4.2 2.1-8.7 1.8-13.1.1 0 .1 0 .1.1 1.6 9.2 6.1 17.5 12.9 23.9.1.3.1.6.2.9 2.3 4 4.4 7.1 1.5 9s-10.9-1.7-14.2-3l-1.3-.5c-.6-.2-1.3-2.6-1.6-3.2-.4-.9-1-1.8-1.7-2.6-.5-.5-1.2-.7-1.9-.8s-2.2.2-2.8-.2.7-1.5 1.3-2.1" fill="#fac39d"/><path d="m748.9 296.4s-4 4-14.5.3c.9 21.4 2.3 31.2 2.3 31.2l12.6 4.2 4.4-13.9z" fill="#e7e7e7"/><path d="m756.3 319.8c0 1.4-9.6 25.2-12.2 31.8l-.5 1.1c-.1.3 1.5 1.2 1.5 1.2l-4.9 2.7c-.8-.1-8.3-4.1-28.9-6.2h-.1l.3-1c.2-1.1.5-2.3.7-3.6 2.3-14.2 1.7-42.2 1.7-42.2l2.8-3 16.3-1.1s11.8 16.4 16.3 17.9c0-.7 0-1.4.1-2.1v-2.3c0-1.5-.1-3.1-.1-4.6-.1-2.9-.3-5.7-.7-8.6-.2-1.4-.5-2.7-.8-4.1-.1-.7-.2-1.3-.4-2-.1-.4-.3-.7-.5-1-.1-.3-.2-.7-.4-1h.2l.6.7c.1.4.3.7.5 1l.9 2.4c.6 1.3 1 2.7 1.5 4.1s1.7 5.6 2.7 8.4l2.4 7.6c.5 1.2.9 2.5 1 3.8" fill="#f9af00"/><path d="m744.1 351.6-.5 1.1-32.1-3.3c.2-1.1.5-2.3.7-3.6 5.9.9 25.7 4.9 31.9 5.8" fill="#2f2722"/><path d="m741.1 261.7c-.1-.4-.2-.8-.4-1.1-.5-1.2-1.6-2-2.8-2.1-1.8 0-3.1 1.8-3.2 3.5 0 1.7.5 3.4 1.4 4.9l-2.7 6.1c-.9 0-2.8-2.9-3.3-3.6-2.2-3-4.9-7.8-5.3-11.6 0-.3 0-.7-.3-.8h-.5c-.9.1-1.7-.7-2.4-1.4l-.6-.7c-1.5-2.7.5-7.8 2.5-9.6 1.8-1.7 4.3-2.6 6.8-2.4 1.1.1 2 .8 3 .9s2.5-.9 3.6-1.3c5.2-1.8 11.1-.8 15.3 2.8 2.2 1.9 3.9 3.6 4.7 6.5.6-.1 1.3 0 1.7.5s.6 1.1.8 1.7c.5 2 .5 4.1 0 6.1 0 .2-5.1.8-5.8 1 .6-1.5-.4-4-1.8-4.9s-4.1 1.2-5.7 2.5-4.7 4-4.6 5.5c0-.8-.2-1.7-.4-2.5" fill="#202c2b"/><path d="m770 347.9 7.9.7 6.8.7c.6 0 1.2.3 1.7.7 1.9 1.5 4 2.6 5.7 4.4s1.6 1.8-.4 2.3c-1.2.4-2.6 0-3.3-1.1.3.4.8.9.6 1.5s-1.3.4-1.9.1l-3.9-1.9c-.8-.4-1.7-.5-2.5-.3l-6.1 1.3c-.8.2-1.6.1-2.3-.1l-4.8-1.6z" fill="#fac39d"/><g transform="translate(713 288)"><path d="m12.4.5c3.9-.8 8 5 8.9 8.2s1.7 8.8 2.6 13.1 3 9.9 3.7 15.1c.1 2 .3 3.9.8 5.8.9 3 3.1 3.3 5.8 4.6 7.2 3.3 25.8 12.6 26.1 12.7l-3.5 8.6-1.4-.5-11-2.7c-6.2-1.5-11.8-4-18-5.5-3.1-.7-7.5-1.3-9.9-3.4s-2.4-4.6-3.4-6.7c-1.9-4-3.7-8-5.6-11.9l-2.7-5.7c-.6-1.3-1.6-4.9-2.7-5.7l-.5-.4c-4.1-11.6 3.8-24.3 10.8-25.6" fill="#e7e7e7"/><path d="m171.2 84.4h9v58.3h-9z" fill="#a8aab3"/></g><path d="m788.3 312.4.4-.3c.9-.5 2-.3 2.7.4 1.8 1.8 3 3.2 4.7 5.2.4.6.6 1.2.6 1.9l4.9 5.7c1.7 2 2.7 4.5 2.7 7.1.5.1.8.5.8 1v8.6c0 .2-.1.3-.2.5 1.3.3 2.3 1.2 2.8 2.4h-8.1c.5-1.2 1.5-2 2.7-2.4-.1-.2-.1-.3-.1-.5v-8.6c0-.5.3-.9.7-1.1 0-2.2-.9-4.4-2.3-6.1l-4.8-5.4c-.9.3-1.9.1-2.6-.5-1.8-1.8-3-3.2-4.7-5.2s-.8-2.2-.2-2.7" fill="#5e818c"/><path d="m803.2 211.9c-1.8-.1-3.6.7-4.6 2.2s-1.2 3.5-.4 5.1 2.4 2.8 4.2 2.9c2.8.2 5.3-1.9 5.5-4.7s-1.9-5.3-4.7-5.5" fill="#87cac0"/><g fill="#87cac0" transform="translate(781 190)"><path d="m23.2 10.6c-5.8-.4-11.4 2-14.9 6.6-.8 1-.6 2.6.4 3.4s2.6.6 3.4-.4c2.4-3.2 6.3-5 10.3-4.8s7.7 2.3 9.8 5.6c.4.7 1.2 1.1 2 1.1.5 0 1-.1 1.4-.4 1.1-.7 1.4-2.2.7-3.3-2.9-4.5-7.8-7.4-13.1-7.8"/><path d="m24 .1c-8-.6-17.1 3.1-23.2 9.3-.9 1-.9 2.5.1 3.4s2.5.9 3.4-.1c5.1-5.2 12.7-8.2 19.3-7.7 6.4.3 12.4 3.4 16.2 8.6.4.7 1.2 1 2 1 .9-.1 1.7-.6 2.1-1.4s.3-1.8-.2-2.5c-4.7-6.4-11.4-9.9-19.7-10.6"/></g><g transform="translate(553 339)"><path d="m12.2.1 8 8.1-11.7 3.6-6.9-8.2z"/><path d="m15.1 5.4c1-.2 5.4-5.2 5.4-5.2 1.6.7 2.5 2.3 2.5 4v2.3l12.7 4.7c1.1.3 1.8 1.2 2 2.3.2 1.5-.7 3-2.2 3.4-3.5.9-7 1.3-10.6 1.2l-20.4-.7c-1.1 0-2.2-.5-2.9-1.3s-1.1-2-.9-3.1l.7-4c.1-.6.5-1.2 1-1.6s1.3-.4 1.9-.3l4.6 1.1c.8.1 6.2-2.8 6.2-2.8" fill="#41413f"/><path d="m35.5 16.9c1.5-.4 2.4-1.9 2.2-3.4l-.3-.8c-3.6 2.5-8.1 3.7-12.5 3.1l-24.1-3.2v.4c-.2 1.1.1 2.2.9 3.1s1.8 1.3 2.9 1.3l20.4.7c3.6.1 7.1-.3 10.5-1.2"/></g><path d="m485.8 325.2c25.8-23.2 43.2-39.6 53-27.7 12.8 14.1 30.2 42.4 30.2 42.4l-15.1 10.9-24.2-32.2-27.5 26.1-36.8-.9-3.1-17.2s11.5 9.4 23.5-1.4" fill="#9f7f6d"/><path d="m530.8 293.5c-10.3 0-25.2 13.9-45 31.7l5.8 10.5 7.2 1c12.6-4.7 25-12.3 29.5-24.7 12.8 14.1 33.2 33.3 33.2 33.3l-3.9 2.8 11.4-8.2s-17.4-28.3-30.2-42.4c-1.9-2.5-4.9-4-8-4" fill="#55210e"/><path d="m462.3 326.6.8 4 4.7-1.1c-2-.7-3.8-1.7-5.5-2.9" fill="#8c6e5f"/><path d="m528.3 312c-4.5 12.4-16.9 20-29.5 24.7 3.6.5 7.2.8 10.7 1.1l20.2-19.2 16.9 22.6h5c1.9 0 3.6.9 4.8 2.4 1 1.3 1.4 2.9 1.2 4.5l3.9-2.8s-20.4-19.2-33.2-33.3" fill="#5d2817"/><path d="m546.1 356.3h-18.1v-15.1h23.6c1.9 0 3.6.9 4.8 2.4 1.6 2 1.7 4.9.2 7-2.3 3.6-6.3 5.7-10.5 5.7"/><path d="m544.4 356h-17.4v-14.5h22.7c1.8 0 3.5.8 4.6 2.3 1.5 2 1.6 4.7.2 6.8-2.3 3.4-6 5.4-10.1 5.4" fill="#41413f"/><path d="m495.8 270.1v12.4c0 .3.2.5.5.5.2 0 .4-.3.4-.5v-12.4c0-.2-.2-.4-.4-.4s-.5.2-.5.4" fill="#e5e6ea"/><path d="m495.9 270.2c0 .1 0 .3.1.4.5 1.6 2.6 8.6 2.6 13.8 0 .7-.1 1.3-.2 2 0 .2.2.5.4.5.1.1.2.1.4 0s.2-.2.1-.3c.1-.7.2-1.5.2-2.2-.1-6.2-2.8-14.4-2.8-14.4 0-.1-.1-.3-.2-.3s-.3-.1-.4 0c-.2.1-.3.3-.2.5" fill="#e9e5ec"/><g transform="translate(453 229)"><path d="m32.5 26.4 8.7-7.6 4.1-14.3 15.7-4.5 11.7 17.5-4.8 5.5-4.3 7.6c-.4.9-1.4 1.3-2.4 1.1l-1.1-.3-4.8 4c-1 .8-2.2 1.2-3.5 1.1s-2.4-.8-3.2-1.8h-.1l-.6-.9-7.2 5.8z" fill="#f8b990"/><path d="m.1 104v9.2c0 7.1 5.3 13 12.3 13.8l24.3 2.8c10.8 1.5 21.8 1.6 32.7.4l5.5-.5c5.6-.2 10-5 9.8-10.7-.2-5.6-5-10-10.7-9.8h-2.8c-10.9 0-21.8-.9-32.6-2.6l-5.8-10.5z" fill="#55210e"/></g><path d="m527.9 338.3v.1z" fill="#eeecec"/><path d="m537 346.8v.3c0-.1 0-.2 0-.3" fill="#3d3c3b"/><g transform="translate(446 222)"><path d="m45.6 113.7s-14.3 1.3-11.1 1.6 32.6 2.8 45.9 6.3c2.7.6 5 2.3 6.4 4.7 3.1 5.1 0 10.1-30.5 11.6h5.2c4.5 0 9.2-.3 14.8-.8h.1l5.2-.5c2.8-.2 5.3-1.5 7.1-3.6s2.6-4.9 2.4-7.7v-.3c0-.1 0-.2-.1-.3-.7-4.2-3.9-7.5-8-8.3h-4.8c-5.2 0-9.9-.2-14.7-.5s-7.1-.6-10.7-1.1z" fill="#55210e"/><path d="m40 31.2c-12.7.8-34 14-38.2 41.3s5.1 44.6 5.1 44.6 21.8-2.4 32.9-13.9c-1.4-12.7-14.9-15.1 4.8-35.9 3.7-3.8 5.8-9 5.7-14.4-.7-12.9-7.5-22-10.3-21.7" fill="#45ac34"/><path d="m44.7 27.5s7.7-1.2 8.2-1.7 1.6-2 3-3.5c1.5-1.8 4.1-2.1 5.9-.7l-2.9 4.4 1.8 1.6 6-7c.5-.6 1.2-.9 1.9-.9s1.4.3 1.9.9l6.3 7.3h1.5c2.8 0 5.5-1.5 7-3.9 1.3-2.1 1.6-4.6.8-6.9l-2.6-8-3 2.3-2.8-3.9c-2.8-4.1-7.4-6.5-12.3-6.7h-1.5c-7.8-.3-14.6 5.2-15.9 12.9-.7 3.9-1.5 7.7-2.6 11.5z" fill="#f28b3e"/></g><path d="m498.6 256.4s-2.8 3.7-2.3 10.1l4.6-3.7z" fill="#f7ad79"/><path d="m496.1 272.6s-5.7-15.6-27.7-9.6c-1.8.5-4.5.7-6-.1s-.7-7.7 4.4-7.7c2.4 0-1.2-2.5 2.9-4.7s12.3-2.5 17.7 2 13.2 18.3 8.7 20.1" fill="#45ac34"/><path d="m550.4 305.7c-.3 0-.6.1-.7.3l-19.7 23.2 8 8.4 25.1-31z" fill="#41413f"/><path d="m497.2 329.5.8 5.9h40.6l-7.8-7.2h-32.4c-.3 0-.7.1-.9.4s-.3.6-.3.9" fill="#bfc3c6"/><path d="m548.4 308.5 10.4 1-20.1 23.5-6.4-5z" fill="#fff"/><path d="m539.8 335.4h-41.8c0 2.1 1.7 3.8 3.8 3.8h34.3c1 0 2-.4 2.7-1.1.6-.7 1-1.7 1-2.7" fill="#e9e5ec"/><path d="m539.2 337.6 24.6-29.4c.3-.2.5-.7.4-1.1s-.5-.7-.9-.7-.8.2-1 .6l-24.7 29.3z" fill="#e9e5ec"/><path d="m532.8 334.4-4.5-5.6h-16.8l2.4 5.6z" fill="#403f3e"/><path d="m509.9 333h-9.6l-.4-3.1h9.1z" fill="#d2d4d7"/><path d="m548.4 308.5 10.4 1-2.4 2.8-9.6-1.9z" fill="#e9e5ec"/><path d="m546.5 312 7.2 1.9-1.4 1.6-6.7-2.2z" fill="#e9e5ec"/><path d="m544.8 314.1 6.5 2.5-1.3 1.6-6.1-2.8z" fill="#e9e5ec"/><path d="m542.8 317 5.3 2.7-4.9 5.8-4.9-3.3z" fill="#e9e5ec"/><path d="m506.4 319.7 3.4 2.2 7.3.8 6.7 7.7h-3.4l-8.2 1.9-11.6-3.5z" fill="#f7ad79"/><path d="m489.3 302 18.8 16.9-5 9.3-27.3-18.2z" fill="#45ac34"/><path d="m510.7 326.4 8.2-2 6.3 3.2 3.1 4.7c-1.2.4-2.5.1-3.4-.8l-1.7-1.9.4 3.4-1.7 1.8-4.1.6-12-2.4 1.2-6.9z" fill="#f8b990"/><path d="m491.4 267.5c5.7.4 7.2 11.9 5.7 17.4s-5.2 28.1-5.2 28.1l19.3 12s-.7 8.8-6 9.7-30.9-11.2-31-17.2 0-23.4 2.2-33c3.5-15.5 9.3-17.5 15-17" fill="#45ac34"/><path d="m563.7 274c-1.1-.1-2.2.3-3.1 1s-1.4 1.8-1.4 2.9c-.1 1.1.3 2.2 1 3.1s1.8 1.4 2.9 1.4c2.3.1 4.3-1.6 4.5-3.9.1-1.1-.3-2.2-1-3.1s-1.8-1.3-2.9-1.4" fill="#87cac0"/><path d="m564.5 264.7c-4.7-.4-9.4 1.6-12.3 5.4-.7.9-.5 2.1.4 2.8s2.1.5 2.8-.4c2.1-2.7 5.4-4.1 8.8-3.9 3.1.3 6 2 7.7 4.6.4.6 1 1 1.7 1 .4 0 .8-.2 1.1-.4.9-.6 1.2-1.8.6-2.7-2.4-3.7-6.4-6.1-10.8-6.4" fill="#87cac0"/><path d="m565.2 256c-6.6-.5-14.1 2.5-19.1 7.7-.6.8-.5 1.9.3 2.6.7.7 1.9.7 2.6.1 4.2-4.3 10.4-6.8 15.8-6.4s10.2 2.8 13.4 7.1c.4.5 1 .8 1.6.8.4 0 .8-.1 1.2-.3.4-.3.7-.8.8-1.3s-.1-1.1-.4-1.5c-3.8-5.2-9.8-8.4-16.2-8.8" fill="#87cac0"/><path d="m273.2 317.4-3.3 9.5 17.8.1-2.1-9.6z" fill="#b6c4b5"/><path d="m274.9 322.8-5.3 4.2h17.8l-3.5-4.2z" fill="#575756"/><path d="m290.1 317.4-2.1 9.6 17.8-.1-3.3-9.5z" fill="#b6c4b5"/><path d="m291.8 322.8-3.6 4.2h17.9l-5.3-4.2z" fill="#575756"/><path d="m304.7 137-16.9 25.9-10 2.1c-4.6-4.3-4.3-5-1.3-10.3l14.4-26.2c1.6-2.9 2.6-4.9 4.6-6.4l6.1 1.7z" fill="#c04c4e"/><path d="m304.6 122.5c2-.2 4-.2 5.9.2 8.9 2.4 1.8 18.4-.1 18.8-17.2 3.2-37.2 0-53.9 0v-12.7c.5-5.2 2.3-6.4 8.4-6.3h4.6c7.2-.5 12-3.6 10.3-11.1h14.8c-1.7 7.5 2.8 10.5 10 11.1" fill="#f9c0a7"/><g transform="translate(226 120)"><path d="m38.4 94 6.7 48.1-2.2 20.4 3.5 35.2h14.1l-.1-56.5.5-44.8h.6l1 44.8.6 56.5h14.1l3.1-35.2-2.5-20.4 6.1-49 .3-.7-5.4-32.6h-35.2l-5.5 32.7z" fill="#00401c"/><path d="m87 21.6-4.2 59.3h-43.2l-2.7-57.1c-.5-.3-1.1-.5-1.7-.6-9.8 5.6-25.5 13.5-27.1 13.3s-12.3-1.4-4.4-10.3l24.9-21.8c1.2-1.5 3.3-1.9 7.1-1.9h7.8c2.5-.1 5-.7 7.2-1.9 1.3 4 5.5 7 10.5 7s9.2-3 10.5-7c2.1 1.1 4.5 1.7 6.9 1.8 1.6-.1 7.2-1.6 9-1.1 8.9 2.5 1.9 19.7 0 20.1z" fill="#c18f00"/></g><path d="m286.7 119.8h-.1c-1.1-.1-2.2-.5-3.2-1.1-.8-.5-1-1.4-1.9-2.8s-2.3-2.6-2.6-3.7.2-2.7.4-4.6c-1 .3-1.4-2.6-1.4-3.5s-.4-3.7-.4-5.2.3-1.5.6-1.6 1.2 0 1.9 1.4c.2-1 .6-2 .8-3.1.2-1.8.7-3.6 1.3-5.3.5-1.5 1.5-2.7 2.9-3.4.8-.4 1.7-.8 2.6-1h1.5c2.4-.2 4.9.1 7.2.9 2.2.8 4.2 2.3 5.6 4.2.9 1.2 1.4 2.7 1.2 4.2-.2 1.8-.5 3.6-1 5.4-.3 1-.5 2.1-.6 3.2 1.1-1 1.8-1.1 2.2-.5s.2.9-.1 1.7-2 3.4-2.6 4.6-1.9 3.2-2.7 2.5c-.6 1.8-.8 3.1-1.6 4.3s-2.7 1.5-3.9 2.2-2 1.7-2.9 1.8c-1.1.2-2.2.1-3.2-.2" fill="#f9c5af"/><path d="m285 89.9c-1 .8-3.7 5.9-4.8 11.8-.4-9.2-.4-15.8 5-19 1.3-1.4.4-2.4 3.1-7.4.7 3.2 3.7 3.5 4.9 4.6v-1.1c1.3 1.6 3.1 2.2 4.8 3s5 3.1 5.1 4.2c5.3 3.3 1 12-2.3 19 .8-3.7 1-8.5-.1-12.1-.3-.5-.8-.9-1.2-.8-6 1.4-13.6-2.8-14.4-2.2" fill="#754130"/><path d="m323.3 309.9-1.5 15.5 2.2 1.5 6.7-.1 1.9-2.8-3.2-14.1z" fill="#f9c7b4"/><path d="m329.2 322.4-5.5-.1-1.3-3-.6 6 2.2 1.5 6.8-.1 1.9-2.8-1.6-6.5z" fill="#92d2f4"/><path d="m310.8 324.1 1.9 2.8 6.7.1 2.3-1.5-1.3-15.5-6-.1z" fill="#f9c7b4"/><path d="m302.7 223.6c2.4 11.7 4.6 23.4 7.2 35l-.7 14.8 4.8 36.8h6.5l.3-38.9v-13.6l.9-44.1h.6l.5 44v13.5l.4 38.9h6.5l4.7-36.7-.7-14.8c2.4-10.9 4.6-21.8 6.9-32.7s2.2-14.9-4-30.4l-2.2-5.6-25.5 1.2-2 5.1c-5.8 14.2-5.6 16.3-4.2 27.5" fill="#0068b3"/><path d="m325 98.3c8.6-2.5 10.5 9.8 10.7 14.1.5 10 13.4 21.1-14.1 22.4s-16.2-11.2-16.3-21.5c-.1-8.4 3.2-16 12.9-15 2.2.2 4.5 1.4 6.7 1.7l-.9-1.2z" fill="#ed6b06"/><path d="m315.3 126.2c1 4.1.9 8.4-.6 10.3s-2 .9-3.7 1.2l-6.4 1c-3.5.8-4 5.3-3.8 7.2s2.5 2 3.1 4c.2.9.3 1.7.4 2.6 1.5.8 3 1.5 4.6 2.1h25.3l2.7-1.1.5-4.4 5.3-3.7c0-8.7-8.6-6.4-13.1-8.2s-4-4.6-3.7-10.8z" fill="#f9c7b4"/><path d="m310.8 324 1.9 2.8 6.7.1 2.2-1.5-.4-6-1.4 3h-5.5l-1.8-4.9z" fill="#92d2f4"/><path d="m330.9 137.5c2.8.3 7.8-.1 10.3 1.1 1.4.8 2.5 2 3 3.5.3 1.5 1.8 8.3 3.1 12.5l-8-2.8-.7 3.6c.6 1.2 1 2.6 1 4 0 2.5-1.1 4.9-3.1 6.5l-3.5 17.9 3.9 10.9-30.5.6 4.4-10.9-3.7-18.4c-2-1.6-3.1-4-3.1-6.6 0-1.4.3-2.8 1-4l-.9-4.2-9.8 3.3c1.7-3.8 4.1-10.9 4.8-12.6s2.8-3.6 5.8-3.7l6.1-.5c3.3 22.2 19.4 19.8 19.9-.2" fill="#e1c486"/><path d="m309.8 112.9c-.4-.4-.8-.1-.9.5s.7 2.3.9 3.3c0-1.3-.8-2.6-.7-3.3s.5-.5.8-.1 0-.3-.1-.4" fill="#e9a379"/><path d="m324.9 128.5c1.3-1.2 2.4-2.5 3.3-4 .7-1.2 1.3-2.5 1.7-3.9 1 .2 1.4-.7 1.7-1.8s1.1-3.3 1.3-4.8-.8-2.8-1.7-1.3c.1-1.5 0-3-.2-4.5-1-5.4-4.5-9.5-10.2-9.5s-9.4 2.6-10.4 8.6c-.2 1.7-.3 3.3-.3 5-.9-.9-1.8.1-1.5 1.7s1 3.1 1.4 4.8.6 1.9 1.5 1.8c.5 1.6 1.2 3.1 2.2 4.5.8 1.2 1.7 2.3 2.8 3.2 2 1.8 3.1 2.6 4.2 2.6s2.4-.8 4.2-2.4" fill="#fbd5c7"/><path d="m306.2 109c-.4-11 13.5-17.3 20.5-10.6-.3.1 2.1 2 3.1 3.4 3.8 5.3 1.9 11.5.3 17.1.6-4.4 1.3-8.7-.3-12.9-4 7.6-18.4 2.7-18.6 12-.4-.6-.6-1.3-.7-2-1.2 2 .7 8.3 5.9 10.4-7.1.6-10.1-15.9-10.2-17.4" fill="#ed6b06"/><path d="m309.4 147.7-14.3 19.7 15 19.3-2.9 3.6-20.2-19c-2.5-2.5-2.4-1.6-.9-4.8l14.1-26.3z" fill="#e1c486"/><path d="m337 153.3c1.7 1.6 2.6 3.8 2.6 6.1 0 1.7-.5 3.4-1.5 4.8-2.6 3.8-7.3 4.6-11.4 2.5 5.7.6 13.7-4.3 10.3-13.4" fill="#d8b361"/><path d="m306.5 153.4c-1.6 1.6-2.5 3.8-2.5 6.1 0 1.7.5 3.4 1.5 4.8 2.5 3.8 7.2 4.6 11.3 2.5-5.7.6-13.6-4.3-10.3-13.4" fill="#d8b361"/><path d="m306.6 192.9c-.8-1.7 1.2-3.2 2-4.4s1.5-3.2 2.8-3.1l3.8 5.1-2.3 3.8z" fill="#fbd5c7"/><path d="m282.1 147.6 5.8-3.1 7.3.5-.2 1.4h-5.3c-1 5.2.4 9.2-3.4 12.5l5.1.6-1.7 1.9-7.2.6-6.5-4 .2-7.5z" fill="#f9c5af"/><path d="m288.5 146.5h19.4c1.4 0 2.5 1.1 2.5 2.5v8.1c0 1.4-1.1 2.5-2.5 2.5h-19.4c-1.4 0-2.5-1.1-2.5-2.5v-8.1c0-1.4 1.1-2.5 2.5-2.5" fill="#282727"/><g transform="translate(226 143)"><path d="m81.6 10.8c.6 0 1.1-.5 1.1-1.1s-.5-1.1-1.1-1.1c-.4 0-.8.2-1 .6s-.2.8 0 1.1.6.5 1 .5" fill="#282727"/><path d="m51.5 6-.4 10.4-43.3-.8c-3.5-.1-6.4-2.6-7.1-6-.5-4.4 3.3-9.4 11.1-8.5z" fill="#c7991f"/></g><path d="m354.9 93.7c7.6-3.2 12.7 2.9 14.4 10.9 4.3 20.4-11.5 27-1.5 34.2-11.5-1-20.5-17.5-22.9-29-1.8-8.4 0-18.2 10-16.1" fill="#55210e"/><path d="m354.9 93.7c7.6-3.2 12.7 2.9 14.4 10.9 4.3 20.4-11.5 27-1.5 34.2-11.7-2.1-16.2-36.2-12.9-45.1" fill="#55210e"/><path d="m332.3 203.5-1.1 7.4 2.6 10.4 4.8-1.2-2.7-18.4-3.6-.5z" fill="#fbd5c7"/><path d="m359.3 126.2c-1 4.1-.2 8.4 1.3 10.3s2 .9 3.7 1.2l6.4 1c3.5.8 4 5.3 3.8 7.2s-2.5 2-3.1 4c-.2.9-.3 1.7-.4 2.6-1.5.8-3 1.5-4.6 2.1h-25.3l-2.7-1.1-.5-4.4-5.3-3.7c.1-8.7 8.7-6.4 13.1-8.2s3.3-4.6 3-10.8z" fill="#855341"/><path d="m343.3 324.1 2 2.8 6.7.1 2.2-1.5-2.1-15.5-6-.1z" fill="#855341"/><path d="m343.2 324 2 2.8 6.8.1 2.1-1.5-.7-6-1.2 3h-5.5l-2.1-4.9z" fill="#87cac0"/><path d="m334 213.6.2-1.9 17.9 2 .4 44v13.6l-.3 38.8h-6.2l-5.1-36.7.7-14.8z" fill="#45ac34"/><path d="m354.8 310-1.6 12.8 2.2 2.9 6.3.4 2-2-2.9-14.2z" fill="#855341"/><path d="m360.2 322.4h-5.4l-1.2-3-.8 6 2.2 1.5 6.7-.1 2.1-2.8-1.5-6.5z" fill="#87cac0"/><path d="m373 213.6-.3-1.9-17.9 2-.3 44-.1 13.6.4 38.8h6.2l5-36.7-.7-14.8z" fill="#45ac34"/><path d="m336.1 152.4.6 3c-.6 1.2-1 2.6-1 4 0 2.5 1.1 4.9 3.1 6.5l3.9 19.8-6.7 14.9c-4.3 10.5-1.4 22.5-.8 33.8h36.3c.9-11.6 4-22.9-.2-33.3l-7-15.4 3.9-19.7c2-1.6 3.1-4 3.1-6.6 0-1.4-.3-2.8-1-4l.5-2.1 7.7 3.7c-.8-4-1.6-13.4-2.3-15.1s-2.8-3.6-5.8-3.7l-6.1-.5c-1-.2-5.6.8-10.1.7s-9.3-1-9.8-.9c-2.8.3-7.8-.1-10.3 1.1-1.4.7-2.4 2-2.9 3.5-.4 1.5-.9 8.8-1.2 13z" fill="#87cac0"/><path d="m345 125.3c2.3 2.2 5.1 4.5 7.6 4.5.3 0 6.6-.3 8.8-3.9 12.2-20-6.1-36.5-14.2-25.7-4.6-1.2-6.6 1.1-7.4 4.5-1.6 7.2-.2 15.2 5.2 20.6" fill="#55210e"/><path d="m363.5 111.7c.7-1.6 2-.8 2 1s-.5 3.3-.6 5-.4 2-1.4 1.9l-.4-2.8c.1 2.7-.5 5.4-1.6 7.8-.6 1.3-1.4 2.5-2.3 3.6-1.7 2.1-2.6 3-3.8 3.2s-2.4-.4-4.4-1.7c-1.5-.9-2.8-2.1-3.9-3.5-1-1.1-1.9-2.3-2.4-3.7-.5-.1-.9-.7-1.2-1.5s-1.5-3.1-2-4.5-.1-2.2.6-2.1c-.2-1.3-.3-2.5-.3-3.8 0-5.5 2.9-10.1 8.5-10.9s9.7 1 11.6 6.8c.8 2.2 1.2 4.5 1.3 6.9z" fill="#855341"/><path d="m364.1 111.8c.4-.4.8-.2 1 .3s-.3 2.4-.4 3.4c-.1-1.3.5-2.7.2-3.3s-.5-.5-.8 0z" fill="#e9a379"/><path d="m365.3 115.9c7.2-17-13.3-25.2-20.5-15.8-5.8 3.7-4.4 10.7-3.5 13.3s1.7 4 2.8 6.1c-.6-1.9-1.1-3.8-1.5-5.8-.6-3.2.7-6.2.8-8.4v-.3c2.9 6.3 22.4-.5 18 24 .3-.6 2.1-13.5 2.2-14 1.7 1.8 2.1 4.5 1.2 6.8.9-1.8 1.1-3.9.5-5.9" fill="#55210e"/><path d="m365.4 147.5 6.9 23.3-22.2 6.5 1.7 4.4 26.8-4.5c3.2-1.5 2.7-.8 2.4-4.3l-4.5-29.5z" fill="#87cac0"/><path d="m368.8 153.4c2.9 2.9 3.3 7.5 1.1 10.9-2.6 3.8-7.3 4.6-11.4 2.5 5.7.6 13.6-4.3 10.3-13.4" fill="#55aaa2"/><g transform="translate(343 170)"><path d="m1.6 7.2c-3 1.1-1 7 2.2 7.6l5.6-3.6-1.4-4.2z" fill="#955f47"/><path d="m23 .6c-3.9 0-7.5 1.7-10 4.7l-.4.4 2.3-.7c2.2-2 5.1-3.2 8.1-3.2 3.5 0 6.8 1.6 9.1 4.3 2.2 2.6 3.5 5.9 3.7 9.3h-25.7c.1-1.4.4-2.8.8-4.1l-1.3.2c-.4 1.3-.6 2.6-.7 3.9h-1.2l-2.5 23.2h35.5l-2.4-23.2h-1.2c-.3-3.7-1.7-7.3-4.1-10.1-2.5-2.9-6.1-4.6-10-4.7"/></g><path d="m336.3 173 .4 30.5-4.6-.2-3.6-26.9c.2-1.3.2-2 .3-2.5-.1-.8-.1-1.6 0-2.4l1.7-23.7.8-5.8 11.1 4z" fill="#87cac0"/><path d="m338.3 153.3c-1.7 1.6-2.6 3.8-2.6 6.1 0 1.7.5 3.4 1.5 4.8 2.6 3.8 7.3 4.6 11.4 2.5-5.7.6-13.7-4.3-10.3-13.4" fill="#63bfb5"/><path d="m374.8 138-3.5 6.5-4.7-.9-.3-3.6-.9-.5v-3.5c.4-1.3 3.3-.7 5.9.1s3.8 1.3 3.4 1.9" fill="#fbd5c7"/><path d="m324.7 61.2c-1.7-.3-3.5.3-4.5 1.7s-1.2 3.3-.3 4.8c.8 1.5 2.5 2.4 4.2 2.3 2.5.2 4.6-1.7 4.8-4.1.1-1.2-.3-2.4-1.1-3.3s-1.9-1.3-3.1-1.4" fill="#87cac0"/><g fill="#87cac0" transform="translate(305 42)"><path d="m20.6 9.2c-5.1-.3-10 1.8-13.1 5.8-.7.9-.5 2.3.4 3 .4.4 1 .5 1.6.4s1.1-.4 1.4-.8c2.2-2.8 5.7-4.4 9.3-4.1 3.4.2 6.5 2 8.3 4.9.4.6 1.1 1 1.8 1 .4 0 .8-.2 1.1-.4.5-.3.8-.8.9-1.3s0-1.1-.3-1.6c-2.5-4-6.7-6.5-11.4-6.9"/><path d="m21.3.1c-7.1-.6-15 2.6-20.3 8.1-.4.4-.6 1-.6 1.5 0 .6.3 1.1.7 1.5.8.8 2.2.8 3 0 4.4-4.6 11-7.3 16.8-6.9 5.7.3 10.9 3.1 14.3 7.6.4.5 1 .9 1.7.8.5 0 .9-.1 1.3-.4.9-.7 1.1-2 .4-2.9-4.1-5.6-10.4-9-17.3-9.3"/></g><path d="m338.4 153.3c-1.7 1.6-2.6 3.8-2.6 6.1 0 1.7.5 3.4 1.5 4.8 2.6 3.8 7.2 4.6 11.3 2.5-5.6.6-13.6-4.3-10.2-13.4" fill="#55aaa2"/><g fill="#f2d9e7" transform="translate(28 55)"><path d="m473.6 56.6h15.1v-52.9h-8.9v42.8h-.4l-15.5-42.8h-15.2v52.9h9v-42.7h.3zm27.9 0h27.9v-8h-18.3v-44.9h-9.6zm63.3 0c17.4 0 28.2-8.8 28.2-28 0-15.9-10-24.9-27.9-24.9h-15.1v52.9zm-5.1-44.9h4.8c11.4 0 18.3 6 18.3 17.4 0 13.8-6.9 19.5-17.6 19.5h-5.5zm52.7-8h-9.7v52.9h9.7zm34.3 34.4h8.2v10.8c-2 .2-4.1.3-6.1.3-9.1 0-16.5-6.1-16.5-18.5s7.6-19.1 18.2-19.1c3.8 0 7.7.2 11.5.8l.7-8.2c-3.9-.7-7.9-1.1-11.9-1-16.1 0-28.6 9.1-28.6 28.5 0 16.9 10.6 25.5 26.2 25.5 5.3 0 10.6-.5 15.8-1.5v-25.5h-17.5zm38.1-34.4h-9.7v52.9h9.7zm44.2 32.1c0-12.8-6.6-19-16.1-19-3.7-.1-7.3.8-10.5 2.6v-19.1l-5.3.4v55.5c3.8.6 7.6.9 11.5.9 11.9 0 20.4-7.7 20.4-21.3zm-5.7.6c0 10.9-6.1 15.9-13.8 15.9-2.4 0-4.8-.1-7.1-.5v-27.9c2.8-1.4 5.8-2.1 8.9-2.1 7.4 0 12 4.3 12 14.6zm12.5.6c0 14.1 7.1 20.1 17.6 20.1 4.4.1 8.7-.8 12.7-2.7v-5c-3.8 1.8-8 2.7-12.2 2.7-7.4 0-12.9-4.8-12.8-15.5h25.4v-4.3c0-10.4-5.4-15.8-14.7-15.8s-16 7.1-16 20.5zm5.7-5c.8-6.8 5.2-10.8 10.1-10.8s9.2 3.4 9.2 10.8zm30.3-10.2h4.8v23.2c0 9.4 4.8 12.1 10.3 12.1 2.2 0 4.5-.3 6.6-.9v-4.6c-1.8.4-3.6.6-5.4.6-3.6 0-6.2-2.3-6.2-7.4v-23h10.3v-4.5h-10.3v-7.8l-5.3.9v6.9h-4.8zm25.9 15.2c0 14.1 7.1 20.1 17.6 20.1 4.4.1 8.7-.8 12.7-2.7v-5c-3.8 1.8-8 2.8-12.2 2.7-7.4 0-12.9-4.8-12.7-15.5h25.3c.1-1.6.1-3 .1-4.3 0-10.4-5.4-15.8-14.8-15.8s-16 7.1-16 20.5zm5.7-5c.8-6.8 5.2-10.8 10.2-10.8s9.1 3.4 9.1 10.8zm52.2-14.6c-1.5-.4-3-.6-4.5-.6-2.9 0-5.4 1.4-8.5 4.8v-4.6l-5.2.5v39.1h5.3v-30.1c3-3.1 5.1-4.4 7.6-4.4 1.6 0 3.1.2 4.6.7z"/><path d="m81 208.8h-23.1c-32 16.3-51.4 48.7-57.5 86.3l5.1 15h53v34.7h22.5v-34.7h15.5v-18.9h-15.5zm-60.2 82.4c4.1-27 17.1-47.8 37.5-61h.4v61z"/></g><path d="m986.7 120.7 37.3 33.5 46.7-53.8-22-10.2-24.7-.5z" fill="#a90061"/><path d="m486.7 160h-7.5l2-26.9h7c3.6 0 6.5 1 8.7 3.1s3.3 4.9 3.3 8.5c0 5-1.2 8.8-3.7 11.4s-5.8 3.9-9.8 3.9zm1-24.3h-3.7l-1.6 21.6h4.6c2.9 0 5.2-1 7.1-3s2.8-5 2.8-9.1c0-3-.8-5.3-2.5-7-1.6-1.7-3.9-2.5-6.7-2.5z" fill="#f2d9e7"/><path d="m508.4 139.7-1.8 20.3h-2.9l1.8-19.9zm-2.7-6.1c0-.6.2-1.1.6-1.5s.9-.6 1.5-.6c.5 0 .9.1 1.2.4s.4.7.4 1.2-.2 1-.5 1.4c-.4.4-.8.6-1.5.6-.5 0-.8-.1-1.1-.4-.5-.2-.6-.6-.6-1.1z" fill="#f2d9e7"/><path d="m524.4 139.9 2.5-.4-1.8 20.7c-.2 2.8-1.1 4.7-2.7 5.9-1.5 1.2-3.3 1.8-5.4 1.8-1 0-2 0-2.9-.1s-1.9-.2-2.9-.4v-2.8c1 .3 2 .5 2.9.6s1.8.2 2.7.2c1.6 0 2.8-.4 3.7-1.2s1.5-2.1 1.7-3.9l.4-3.6h-.1c-.9 1.3-1.9 2.2-2.9 2.8s-2.1.9-3.2.9c-1.3 0-2.4-.5-3.3-1.6-.8-1.1-1.3-2.8-1.3-5.4 0-4.5 1-7.9 2.9-10.2 2-2.4 4.2-3.6 6.6-3.6.6 0 1.1 0 1.6.1.5 0 1 .1 1.5.2zm-1.8 13.8 1-11.4c-.4-.1-.8-.1-1.2-.2-.5 0-.9-.1-1.4-.1-1.5 0-3 .9-4.3 2.8s-2 4.7-2 8.3c0 1.7.2 2.8.7 3.5s1.1 1 1.7 1c.7 0 1.5-.3 2.5-1 1.1-.6 2-1.6 3-2.9z" fill="#f2d9e7"/><path d="m535.1 139.7-1.8 20.3h-2.9l1.8-19.9zm-2.7-6.1c0-.6.2-1.1.6-1.5s.9-.6 1.5-.6c.5 0 .9.1 1.2.4s.4.7.4 1.2-.2 1-.5 1.4c-.4.4-.8.6-1.5.6-.5 0-.8-.1-1.1-.4-.5-.2-.6-.6-.6-1.1z" fill="#f2d9e7"/><path d="m538.6 142.3v-2.3h2.3l.4-4.3 2.9-.5-.5 4.8h4.1l-.2 2.3h-4.1l-1.2 11.8c-.1 1.4 0 2.4.3 2.9s.8.8 1.5.8c.5 0 1 0 1.4-.1s.9-.2 1.5-.4v2.6c-.7.2-1.3.4-1.8.5s-1.2.1-2 .1c-1.4 0-2.4-.5-3.1-1.4s-.9-2.5-.7-4.7l1.2-12h-2z" fill="#f2d9e7"/><path d="m562.3 139.9 2.5-.4-1.8 20.5h-2.8l.3-3.3h-.1c-.9 1.3-1.9 2.2-2.9 2.8s-2.1.9-3.2.9c-1.3 0-2.4-.5-3.3-1.6-.8-1.1-1.3-2.8-1.3-5.4 0-4.5 1-7.9 2.9-10.2 2-2.4 4.2-3.6 6.6-3.6.6 0 1.1 0 1.6.1.6 0 1 .1 1.5.2zm-1.7 13.8 1-11.4c-.4-.1-.8-.1-1.2-.2-.5 0-.9-.1-1.4-.1-1.5 0-3 .9-4.3 2.8s-2 4.7-2 8.3c0 1.7.2 2.8.7 3.5s1.1 1 1.7 1c.7 0 1.5-.3 2.5-1 1-.6 2-1.6 3-2.9z" fill="#f2d9e7"/><path d="m573.8 131.2-2.6 28.7h-2.9l2.6-28.4z" fill="#f2d9e7"/><path d="m595.5 150v-2.7h7.6l-.9 12.3c-1.3.2-2.5.4-3.7.5-1.1.1-2.4.2-3.6.2-3.3 0-5.9-1-8-3s-3.2-4.8-3.2-8.4c0-5.3 1.4-9.3 4.2-12s6-4.1 9.8-4.1c1.1 0 2.2 0 3.2.1s2 .2 3 .4l-.2 2.8c-1.1-.2-2.1-.4-3.1-.5-.9-.1-1.9-.1-3-.1-2.8 0-5.3 1.1-7.3 3.3-2.1 2.2-3.1 5.3-3.1 9.2 0 3.1.8 5.5 2.4 7.1s3.5 2.4 5.8 2.4h2.1c.6 0 1.3-.1 2-.2l.5-7.3z" fill="#f2d9e7"/><path d="m613.6 160.3c-2.1 0-3.7-.6-4.9-1.9s-1.8-3.3-1.8-6.3c0-4.1.9-7.2 2.6-9.4 1.8-2.2 3.8-3.3 6.2-3.3 2.1 0 3.7.7 4.9 2.1s1.8 3.4 1.8 6.2c0 4-.9 7.1-2.7 9.3-1.7 2.2-3.8 3.3-6.1 3.3zm-3.7-8.5c0 2.3.4 3.9 1.1 4.7.8.8 1.7 1.3 2.8 1.3 1.3 0 2.6-.8 3.8-2.3 1.2-1.6 1.8-4 1.8-7.3 0-2.1-.4-3.7-1.1-4.6-.7-1-1.7-1.4-3-1.4s-2.5.8-3.7 2.4c-1.1 1.6-1.7 4-1.7 7.2z" fill="#f2d9e7"/><path d="m628.6 160-3.5-20h3.1l2.7 17.4h.2l1.1-2.3c1-2.1 1.9-4.3 2.6-6.6.7-2.4 1.3-5.2 1.8-8.5h3c-.5 3.2-1.2 6-2.1 8.6-.9 2.5-1.9 5-3.2 7.3l-2.2 4.2h-3.5z" fill="#f2d9e7"/><path d="m640.7 152.9c0-4.5.9-7.9 2.7-10.1s3.7-3.3 5.8-3.3c1.7 0 3 .4 3.9 1.2s1.4 2 1.4 3.4c0 2.3-1 4.2-2.9 5.6s-4.6 2.2-7.9 2.2c0 2.2.4 3.8 1.1 4.5.7.8 1.7 1.2 3 1.2.9 0 1.8-.1 2.7-.4.9-.2 1.7-.6 2.6-1.1v2.7c-1 .5-1.9.9-2.8 1.1s-2 .3-3.3.3c-2 0-3.5-.6-4.6-1.8-1.2-1-1.7-2.9-1.7-5.5zm10.7-8.4c0-.8-.2-1.4-.7-1.8-.4-.4-1.1-.6-1.8-.6-1 0-2 .6-3.1 1.9-1 1.2-1.7 3.2-2 5.7 2.4 0 4.3-.5 5.6-1.5 1.4-1 2-2.2 2-3.7z" fill="#f2d9e7"/><path d="m667.4 139.8-.4 2.9c-.2 0-.4 0-.6-.1-.2 0-.4 0-.6 0-.8 0-1.6.4-2.4 1.1s-1.7 1.7-2.4 3l-1.1 13.3h-2.9l1.7-19.9 2.9-.4-.4 3.8h.2c.9-1.6 1.7-2.7 2.4-3.2s1.5-.7 2.3-.7c.2 0 .5 0 .7.1s.4 0 .6.1z" fill="#f2d9e7"/><path d="m678.6 160 1.3-13.2c.2-1.6 0-2.8-.3-3.4-.4-.6-.9-.9-1.6-.9-.6 0-1.4.3-2.3.8s-2 1.3-3.3 2.4l-1.4 14.3h-2.9l1.8-19.9 2.9-.4-.3 3.1h.1c1.2-1.2 2.3-2 3.2-2.5 1-.5 1.9-.7 2.9-.7 1.4 0 2.5.5 3.3 1.5s1 2.8.8 5.2l-1.3 13.7z" fill="#f2d9e7"/><path d="m686.7 160 1.8-19.9 2.9-.4-.3 3.1h.1c1.2-1.2 2.2-2 3.1-2.5s1.8-.7 2.8-.7c1.1 0 2 .3 2.6.8.6.6 1 1.4 1.3 2.5h.1c1.2-1.2 2.2-2 3.2-2.5s2-.8 3-.8c1.4 0 2.4.5 3.2 1.6.8 1 1 2.8.8 5.2l-1.3 13.6h-2.9l1.3-13.2c.2-1.6 0-2.8-.3-3.4-.4-.6-.9-.9-1.5-.9s-1.4.2-2.2.7-1.8 1.2-3 2.2l-1.4 14.7h-3l1.3-13.2c.2-1.6.1-2.8-.2-3.4s-.8-.9-1.6-.9c-.6 0-1.4.3-2.3.8s-1.9 1.3-3.2 2.4l-1.3 14.4h-3z" fill="#f2d9e7"/><path d="m714.9 152.9c0-4.5.9-7.9 2.7-10.1s3.7-3.3 5.8-3.3c1.7 0 3 .4 3.9 1.2s1.4 2 1.4 3.4c0 2.3-1 4.2-2.9 5.6s-4.6 2.2-7.9 2.2c0 2.2.4 3.8 1.1 4.5.7.8 1.7 1.2 3 1.2.9 0 1.8-.1 2.7-.4.9-.2 1.7-.6 2.6-1.1v2.7c-1 .5-1.9.9-2.8 1.1s-2 .3-3.3.3c-2 0-3.5-.6-4.6-1.8-1.1-1-1.7-2.9-1.7-5.5zm10.7-8.4c0-.8-.2-1.4-.7-1.8-.4-.4-1.1-.6-1.8-.6-1 0-2 .6-3.1 1.9-1 1.2-1.7 3.2-2 5.7 2.4 0 4.3-.5 5.6-1.5 1.4-1 2-2.2 2-3.7z" fill="#f2d9e7"/><path d="m741.6 160 1.3-13.2c.2-1.6 0-2.8-.3-3.4-.4-.6-.9-.9-1.6-.9-.6 0-1.4.3-2.3.8s-2 1.3-3.3 2.4l-1.3 14.4h-3.1l1.8-19.9 2.9-.4-.3 3.1h.1c1.2-1.2 2.3-2 3.2-2.5 1-.5 1.9-.7 2.9-.7 1.4 0 2.5.5 3.3 1.5s1 2.8.8 5.2l-1.3 13.7h-2.8z" fill="#f2d9e7"/><path d="m749.6 142.3v-2.3h2.3l.4-4.3 2.9-.5-.5 4.8h4.1l-.2 2.3h-4.1l-1.2 11.8c-.1 1.4 0 2.4.3 2.9s.8.8 1.5.8c.5 0 1 0 1.4-.1s.9-.2 1.5-.4v2.6c-.7.2-1.3.4-1.8.5s-1.2.1-2 .1c-1.4 0-2.4-.5-3.1-1.4s-.9-2.5-.7-4.7l1.2-12h-2z" fill="#f2d9e7"/><path d="m780.3 133.1 5.3 26.9h-3.4l-1.3-7h-9.8l-2.4 7h-3.3l10.3-26.9zm-2.5 2.4h-.3l-5.3 14.8h8.4z" fill="#f2d9e7"/><path d="m801.4 139.9 2.5-.4-1.8 20.7c-.2 2.8-1.1 4.7-2.7 5.9-1.5 1.2-3.3 1.8-5.4 1.8-1 0-2 0-2.9-.1s-1.9-.2-2.9-.4v-2.8c1 .3 2 .5 2.9.6s1.8.2 2.7.2c1.6 0 2.8-.4 3.7-1.2s1.5-2.1 1.7-3.9l.4-3.6h-.1c-.9 1.3-1.9 2.2-2.9 2.8s-2.1.9-3.2.9c-1.3 0-2.4-.5-3.3-1.6-.8-1.1-1.3-2.8-1.3-5.4 0-4.5 1-7.9 2.9-10.2s4.2-3.6 6.6-3.6c.6 0 1.1 0 1.6.1.6 0 1.1.1 1.5.2zm-1.7 13.8 1-11.4c-.4-.1-.8-.1-1.2-.2s-.9-.1-1.4-.1c-1.5 0-3 .9-4.3 2.8s-2 4.7-2 8.3c0 1.7.2 2.8.7 3.5s1.1 1 1.7 1c.7 0 1.5-.3 2.5-1 1.1-.6 2-1.6 3-2.9z" fill="#f2d9e7"/><path d="m807.1 152.9c0-4.5.9-7.9 2.7-10.1s3.7-3.3 5.8-3.3c1.7 0 3 .4 3.9 1.2s1.4 2 1.4 3.4c0 2.3-1 4.2-2.9 5.6s-4.6 2.2-7.9 2.2c0 2.2.4 3.8 1.1 4.5.7.8 1.7 1.2 3 1.2.9 0 1.8-.1 2.7-.4.9-.2 1.7-.6 2.6-1.1v2.7c-1 .5-1.9.9-2.8 1.1s-2 .3-3.3.3c-2 0-3.5-.6-4.6-1.8-1.2-1-1.7-2.9-1.7-5.5zm10.7-8.4c0-.8-.2-1.4-.7-1.8-.4-.4-1.1-.6-1.8-.6-1 0-2 .6-3.1 1.9-1 1.2-1.7 3.2-2 5.7 2.4 0 4.3-.5 5.6-1.5s2-2.2 2-3.7z" fill="#f2d9e7"/><path d="m833.7 160 1.3-13.2c.2-1.6 0-2.8-.3-3.4-.4-.6-.9-.9-1.6-.9-.6 0-1.4.3-2.3.8s-2 1.3-3.3 2.4l-1.3 14.4h-2.9l1.8-19.9 2.9-.4-.3 3.1h.1c1.2-1.2 2.3-2 3.2-2.5 1-.5 1.9-.7 2.9-.7 1.4 0 2.5.5 3.3 1.5s1 2.8.8 5.2l-1.3 13.7h-3z" fill="#f2d9e7"/><path d="m857.5 131.2-2.6 28.7h-2.9l.3-3.3h-.1c-.9 1.3-1.9 2.2-2.9 2.8s-2.1.9-3.2.9c-1.3 0-2.4-.5-3.3-1.6-.8-1.1-1.3-2.8-1.3-5.4 0-4.5 1-7.9 2.9-10.2s4.2-3.6 6.6-3.6c.5 0 1 0 1.4.1s.8.1 1.2.2l.7-8.2zm-5 22.5 1.1-11.4c-.4-.1-.8-.1-1.3-.2s-.9-.1-1.4-.1c-1.5 0-3 .9-4.3 2.8s-2 4.7-2 8.3c0 1.7.2 2.8.7 3.5s1.1 1 1.7 1c.7 0 1.5-.3 2.5-1 1.1-.6 2-1.6 3-2.9z" fill="#f2d9e7"/><path d="m872.6 139.9 2.5-.4-1.8 20.5h-2.8l.3-3.3h-.1c-.9 1.3-1.9 2.2-2.9 2.8s-2.1.9-3.2.9c-1.3 0-2.4-.5-3.3-1.6-.8-1.1-1.3-2.8-1.3-5.4 0-4.5 1-7.9 2.9-10.2s4.2-3.6 6.6-3.6c.6 0 1.1 0 1.6.1.6 0 1.1.1 1.5.2zm-1.7 13.8 1-11.4c-.4-.1-.8-.1-1.2-.2s-.9-.1-1.4-.1c-1.5 0-3 .9-4.3 2.8s-2 4.7-2 8.3c0 1.7.2 2.8.7 3.5s1.1 1 1.7 1c.7 0 1.5-.3 2.5-1 1.1-.6 2-1.6 3-2.9z" fill="#f2d9e7"/></svg>