<svg enable-background="new 0 0 1200 400" viewBox="0 0 1200 400" xmlns="http://www.w3.org/2000/svg" xmlns:xlink="http://www.w3.org/1999/xlink"><filter id="a" height="149.3%" width="106.6%" x="-2.7%" y="-22.8%"><feMorphology in="SourceAlpha" operator="dilate" radius="6" result="shadowSpreadOuter1"/><feOffset dx="7" dy="3" in="shadowSpreadOuter1" result="shadowOffsetOuter1"/><feGaussianBlur in="shadowOffsetOuter1" result="shadowBlurOuter1" stdDeviation="6"/><feColorMatrix in="shadowBlurOuter1" type="matrix" values="0 0 0 0 0   0 0 0 0 0   0 0 0 0 0  0 0 0 0.139690897 0"/></filter><path d="m.7.2v400h1200v-400z" fill="#d43900"/><path d="m970 83.2c-4.9-.6-9.7 1.6-12.6 5.6s-3.3 9.3-1.1 13.7 6.6 7.3 11.6 7.5c7.3.3 13.5-5.2 14-12.4s-4.7-13.6-11.9-14.4z" fill="#f0b880"/><path d="m972.5 53.2c-15.2-1.2-30 5.4-39.4 17.5-1.1 1.3-1.5 3-1.3 4.7s1.1 3.2 2.4 4.3c2.8 2.2 6.9 1.7 9.1-1.1 6.4-8.4 16.5-13.1 27.1-12.7s20.2 6 25.9 14.9c1.2 1.8 3.3 2.9 5.5 2.9 1.2 0 2.5-.3 3.5-1 3-2 3.8-5.9 1.9-8.9-7.7-11.9-20.6-19.5-34.7-20.6z" fill="#f0b880"/><path d="m974.6 25.5c-21.2-1.6-45.3 8-61.3 24.5-2.1 2.6-1.9 6.4.6 8.7s6.2 2.4 8.7.3c13.5-13.9 33.5-22 51-20.7s32.7 9.1 43 22.9c1.2 1.6 3.2 2.6 5.2 2.6 1.4 0 2.7-.4 3.8-1.3 1.4-1 2.3-2.5 2.6-4.2s-.2-3.4-1.2-4.8c-12.7-16.9-30.3-26.3-52.4-28z" fill="#f0b880"/><g filter="url(#a)"><path d="m.7 239.8v160.4h1200v-160.4z"/></g><path d="m.7 239.8v160.4h1200v-160.4z" fill="#d43900"/><g fill="#fbead9" transform="translate(27 55)"><path d="m474.6 56.6h15.1v-52.9h-8.9v42.8h-.4l-15.5-42.8h-15.2v52.9h9v-42.7h.3zm27.9 0h27.9v-8h-18.3v-44.9h-9.6zm63.3 0c17.4 0 28.2-8.8 28.2-28 0-15.9-10-24.9-27.9-24.9h-15.1v52.9zm-5.1-44.9h4.8c11.4 0 18.3 6 18.3 17.4 0 13.8-6.9 19.5-17.6 19.5h-5.5zm52.7-8h-9.7v52.9h9.7zm34.3 34.4h8.2v10.8c-2 .2-4.1.3-6.1.3-9.1 0-16.5-6.1-16.5-18.5s7.6-19.1 18.2-19.1c3.8 0 7.7.2 11.5.8l.7-8.2c-3.9-.7-7.9-1.1-11.9-1-16.1 0-28.6 9.1-28.6 28.5 0 16.9 10.6 25.5 26.2 25.5 5.3 0 10.6-.5 15.8-1.5v-25.5h-17.5zm38.1-34.4h-9.7v52.9h9.7zm44.2 32.1c0-12.8-6.6-19-16.1-19-3.7-.1-7.3.8-10.5 2.6v-19.1l-5.3.4v55.5c3.8.6 7.6.9 11.5.9 11.9 0 20.4-7.7 20.4-21.3zm-5.7.6c0 10.9-6.1 15.9-13.8 15.9-2.4 0-4.8-.1-7.1-.5v-27.9c2.8-1.4 5.8-2.1 8.9-2.1 7.4 0 12 4.3 12 14.6zm12.5.6c0 14.1 7.1 20.1 17.6 20.1 4.4.1 8.7-.8 12.7-2.7v-5c-3.8 1.8-8 2.7-12.2 2.7-7.4 0-12.9-4.8-12.8-15.5h25.4v-4.3c0-10.4-5.4-15.8-14.7-15.8s-16 7.1-16 20.5zm5.7-5c.8-6.8 5.2-10.8 10.1-10.8s9.2 3.4 9.2 10.8zm30.3-10.2h4.8v23.2c0 9.4 4.8 12.1 10.3 12.1 2.2 0 4.5-.3 6.6-.9v-4.6c-1.8.4-3.6.6-5.4.6-3.6 0-6.2-2.3-6.2-7.4v-23h10.3v-4.5h-10.3v-7.8l-5.3.9v6.9h-4.8zm25.9 15.2c0 14.1 7.1 20.1 17.6 20.1 4.4.1 8.7-.8 12.7-2.7v-5c-3.8 1.8-8 2.8-12.2 2.7-7.4 0-12.9-4.8-12.7-15.5h25.3c.1-1.6.1-3 .1-4.3 0-10.4-5.4-15.8-14.8-15.8s-16 7.1-16 20.5zm5.7-5c.8-6.8 5.2-10.8 10.2-10.8s9.1 3.4 9.1 10.8zm52.2-14.6c-1.5-.4-3-.6-4.5-.6-2.9 0-5.4 1.4-8.5 4.8v-4.6l-5.2.5v39.1h5.3v-30.1c3-3.1 5.1-4.4 7.6-4.4 1.6 0 3.1.2 4.6.7z"/><path d="m.6 267.4c8.6-1.6 17.3-2.4 26.1-2.3v79.8h23v-101h-12.8c-12.3.1-24.5 1.9-36.3 5.5z"/></g><path d="m1024.3 306.7h9.6v68.3h-9.6z" fill="#706f6f"/><path d="m1010 383c0 3.1-2.5 5.6-5.6 5.6s-5.6-2.5-5.6-5.6 2.5-5.6 5.6-5.6 5.6 2.5 5.6 5.6" fill="#313131"/><path d="m1060.7 383c0 3.1-2.5 5.6-5.6 5.6s-5.6-2.5-5.6-5.6 2.5-5.6 5.6-5.6 5.6 2.5 5.6 5.6" fill="#3c3c3b"/><path d="m1062.5 379.7h-66.7c0-2.6 2.1-4.7 4.7-4.7h57.3c2.6 0 4.7 2.1 4.7 4.7" fill="#706f6f"/><path d="m1060.6 312.8h-63c-2.9 0-5.3-2.4-5.3-5.3v-3.1c0-2.9 2.4-5.3 5.3-5.4h63c3 0 5.4 2.4 5.4 5.4v3.1c-.1 2.9-2.5 5.3-5.4 5.3" fill="#3c3c3b"/><path d="m1024.4 292.7h31.2c7.2 0 13.1-5.9 13.1-13.1v-43.2c0-15.9-12.8-28.7-28.7-28.7s-28.7 12.8-28.7 28.7v43.2c0 7.2 5.9 13.1 13.1 13.1" fill="#3c3c3b"/><path d="m1024 287.7h24.3c5.6 0 10.2-4.6 10.2-10.2v-42.4c.6-8.3-3.6-16.3-10.7-20.6s-16.1-4.3-23.3 0-11.3 12.3-10.7 20.6v42.4c0 5.6 4.6 10.2 10.2 10.2" fill="#3c3c3b"/><path d="m1023.1 198.3h22.1v7.7h-22.1z" fill="#bacfed"/><path d="m1019.4 376.1-13.2-1.3c-3.9 2.8-7.7 5.8-11.3 9-2.2 2.2-3.3 5.2-3 8.3 0 0 11.3 2.9 16 0 3.7-2.2 7.5-4.2 11.5-5.9z" fill="#212121"/><path d="m1056.1 246.5c3.9-12.1 14.1-32.7 8.1-36.3-7.7-4.7-30-7.6-30-7.6v.4s-22.5 1.9-30.3 6.6c-5.9 3.6 4.4 25.2 8.3 37.3 1 2.9.9 15.9.5 27.4-.1 2.8-2.4 15.9-2 21.3.1 1.6 18.4 6 23.6 6.3s23.2-5.1 23.3-6.7c.4-5.4-1.9-18.5-2-21.3-.4-11.5-.5-24.5.5-27.4" fill="#f8bc95"/><path d="m1007.4 208.9c-4.3-1.7-8.6 2.8-11.6 10.8s-5.7 13.9-6.4 16-5.1 14.1-6 17.5c-1 3.4.7 7.1 4 8.5 2.8 1.1 8.2-2.6 11.4-7.9s20-40.3 8.6-44.9" fill="#45ac34"/><path d="m1043.5 199c-.5-2.3-1.8-13.6-1.8-13.6h-7.5v.4h-7.6s-1.2 11.3-1.7 13.6-6.8 5.8-6.8 5.8h16.1v-.4h16s-6.2-3.5-6.7-5.8" fill="#f8bc95"/><path d="m1043 195.8c-.5-3.5-1.1-8.4-1.2-9.9l-.5-.5h-7.1v.4h-7.6s-1.2 11.3-1.7 13.6-6.8 5.8-6.8 5.8h.8l15.2-4.1c2-.6 8.9-5.3 8.9-5.3" fill="#edb293"/><path d="m1012.2 278.9-11.2 19.4-.6 8.4h32.8l24.6-.8 4.6-7.6-6.4-19.4z" fill="#0068b3"/><path d="m999.2 300.1 3.3 77.3h20.5l1.9-77.3s-3-10.3-13.6-10.3c-9.1 0-12.1 10.3-12.1 10.3" fill="#0068b3"/><path d="m1011.3 289.8c-9.1 0-12.1 10.3-12.1 10.3l3.3 77.3h8.8z" fill="#0068b3"/><path d="m1058.2 210c4.1-1.9 9.4-2.3 12.9 5.8s7.3 18.4 8.1 20.5 5.1 13.6 6.2 17.1.4 7.4-2.9 8.9-8.4-2.4-11.9-7.7-23.4-39.5-12.4-44.6" fill="#45ac34"/><path d="m1065.9 210.5c-.8-1.8-6.3-3.1-11.3-4.6s-8.2-3.1-8.2-3.1l-12.2 6.9-12.1-6.9c-2.7 1.1-5.4 2.1-8.2 3-5 1.5-10.5 2.8-11.4 4.6s8 35.8 9 38.7-1.6 23.1.9 29.1l21.7.8h.1l21.7-.7c2-6.9-.1-26.7.9-29.6s10-36.5 9.1-38.2" fill="#d3e1f4"/><path d="m1033.2 205.6 1 4.2-7.4-2.8 4.3-2.1z" fill="#bacfed"/><path d="m1066.5 210.2c-.8-1.8-6.5-3.1-11.5-4.7-2.9-.9-5.7-1.9-8.4-3.1l-12.4 42.6-12.3-42.6s-4 1.7-8.4 3.1-10.7 2.8-11.5 4.6 8.1 36.4 9.1 39.4-1.6 23.5.9 29.7l22.1.7h.1l22.1-.6c2-7.1-.1-27.2 1-30.1s10.1-37.2 9.2-39" fill="#45ac34"/><path d="m1037.8 277c-2.2-1.4-5.3-2.7-7.3-3.9s0-5.3 0-7.4 5.8-6.1 9.8-7.6 10.9-.9 12.5-3.7-2.6-5.4-4.5-5.4-13.8-3.5-15.7-3.2-15.9 1.7-18.2-.1-12.4-35.6-12.4-35.6c2.5 10.9 8.4 37.5 9.1 39.4s-1.6 23.5.9 29.7l22.1.7h.1l22.1-.6s-4.9-.7-6.9-1.3-9.5.3-11.6-1" fill="#45ac34"/><path d="m1035.1 205.6-1 4.2 7.5-2.8-4.3-2.1z" fill="#bacfed"/><path d="m1018.8 203.4 4.3-5.1 10.1 7.3-3.6 6.9z" fill="#e2f2fd"/><path d="m1049.5 274.5s9.5 9.8 12 15.5 2.5 15.4-3.6 15.9-11.2.5-12.5-.3-11.7-18.5-11.5-20.7 11.5-12.2 15.6-10.4" fill="#0068b3"/><path d="m973.9 315.9 8.1 10.5c-.2 4.8-.7 9.6-1.6 14.3-.6 3-2.6 5.6-5.4 6.9 0 0-8.5-7.9-8.5-13.5-.2-4.3-.6-8.6-1.2-12.9z" fill="#212121"/><path d="m1049 292.5-67.3 38.4-10.9-17.4 64.5-42.8s10.3-2.9 16 6-2.3 15.8-2.3 15.8" fill="#0068b3"/><path d="m1061.4 290.9c-.3-.5-11.3-15.7-11.7-16.1-5.8-6.5-14.4-4.1-14.4-4.1l-64.5 42.8 5.9 9.3s42.9-40.9 60.9-47.8c6.9-2.8 23.8 15.9 23.8 15.9" fill="#0068b3"/><path d="m1049.5 203.4-4.3-5.1-10.1 7.3 3.7 6.9z" fill="#e2f2fd"/><path d="m1018.9 174.8c-.3 9.6 3.3 19.4 9.4 20.2s17.2-7.2 18.3-16.7-3.6-17.9-12.3-19.2-15.1 5.8-15.4 15.7" fill="#f8b999"/><path d="m1019.1 170.3s9.5-6.8 18 .8c1.8 1.6-.5 8.9 0 9.5s2.7-5.6 3-4.9c2.3 5.7.4 12.9 1.2 12.9s8.9-11.7 5.3-21.1c-.3-.8-.6-1.5-1-2.2-.5-.7-.9-1.4-1.4-2l-1.1-1.2c-.7-.6-1.4-1.1-2.1-1.6-.9-.6-1.8-1.1-2.7-1.5-1-.4-2-.6-3-.8l-1.9-.3c-.9-.1-1.7 0-2.6.1-1 .3-2 .7-2.9 1.2l-1.4.9-1.1.7-1.4 1.2c-.9.8-1.7 1.7-2.4 2.7-.4.5-.8 1.1-1.1 1.7l-.4.9c-.5.9-.8 2-1 3" fill="#878787"/><path d="m1038.4 178.5c-.7 2.7-1 6.2.4 6.6s3.1-1.4 3.9-4.1.2-5.1-1.2-5.5-2.3.3-3.1 3" fill="#f8bc95"/><path d="m988.1 250.4c3.6-1.1 8.5.6 11.9 9.8s7 26.7 7 26.7l-8.5 3.8s-8.7-14.3-10.7-19.3-9-18.3.3-21" fill="#45ac34"/><path d="m999.3 289.1c.2 1 .3 2 .4 3 .2 2.7 1.2 5.3 2.7 7.5 1.5 2.1 5.4 5.9 6 5.7s.2-1.6.2-1.6 2.7 2.6 3.4 2.2.4-1.6.4-1.6 2.4 1.2 3.4.7-2-3.4-2-3.4 2.3 1.4 2.9.4-3.5-3.4-5-6.7c-.5-1.2-1.1-2.8-.7-3s3.8.4 4.7.1 1.6-1.7 1.4-1.8-1.6.1-4.5-.9c-.6-.3-3.3-3.1-6.9-2.6-2.2.5-4.3 1.2-6.4 2" fill="#f8b999"/><path d="m995 284.9 10.2-5.6 3.6 7.6-9.5 5.4z" fill="#45ac34"/><path d="m1086.1 256.6c-.2 3.7-2.4 6.6-12.8 6.5s-27-2.7-27-2.7l.2-8.7s13-3.6 18.7-3.8 21.4-.9 20.9 8.7" fill="#45ac34"/><path d="m1042.9 252.7c-5.5 1-9.8 5.4-10.5 11 .1.7 1.9 1.4 3.6.5s8.9-4.3 9-6.5-.5-5.3-2.1-5" fill="#f8b999"/><path d="m1041.4 254.9c-1.6 1-3.1 2.2-4.5 3.5l-1 .7-.6.9-.6.4-.6 1-.8.6c-.7.6-.3 1.1-.5 1.3l-.9 1.1c-.4.7.1 4.5.3 5s1 4.1 1.3 4.1 1.5-.9 1.3-2.8c-.1-1.3-.1-2.6 0-3.9.7 1.1 1.4 2.1 2.3 3.1.5.4 1 0 1.3-.4l-.2-2.1h1.4c.6-.8-.1-2-.2-2.5s1.2.4 1.4.1-1.8-4.1-.5-5 2.3-3.3 1.1-5.1" fill="#f8b999"/><path d="m1050.8 250.4.3 11.2-8.2.1v-10.5z" fill="#45ac34"/><g fill="#a17458" transform="translate(878 164)"><path d="m34.3 45.1c-3.9-12.1-14.1-33-8.2-36.6 7.8-4.8 30.1-7.7 30.1-7.7v.4s22.6 1.9 30.3 6.6c6 3.6-4.3 25.5-8.2 37.6-1 3-.9 16-.5 27.6.1 2.9 2.4 16.1 2.1 21.5-.2 1.6-18.4 11.7-23.5 12v-.4c-5.1-.3-23.4-10.3-23.5-11.9-.4-5.5 1.9-18.6 2-21.5.3-11.6.4-24.7-.6-27.6"/><path d="m31.5 7.4c4.2 2 4.8 9.5.7 17.1s-7.6 12.2-8.7 14.2-6.9 14-9 17-6.5 5.6-9.7 3.8-5.7-2.7-3.9-8.6 17.6-49.8 30.6-43.5"/></g><path d="m924.8 161.2c.5-2.3 1.8-13.8 1.8-13.8h7.6v.4h7.6s1.3 11.5 1.8 13.8 6.7 5.8 6.7 5.8h-16.1v-.4h-16.2s6.3-3.5 6.8-5.8" fill="#a17458"/><path d="m925.3 158c.5-3.5 1-8.5 1.2-10.1l.5-.5h7.2v.4h7.6s1.3 11.5 1.8 13.8 6.7 5.8 6.7 5.8h-.7l-15.4-4.1c-2-.6-8.9-5.3-8.9-5.3" fill="#956856"/><path d="m946.4 245.7c9.3 0 12.9 6.4 12.7 26.3s-3.2 41.3-4.5 44.4-14.4 3.1-15.7 1.3-4.5-42.9-4.6-49.3 2-22.6 12.1-22.7" fill="#f8bc95"/><path d="m945.8 332.2h2.5c1.8-.1 3.5-.8 4.7-2.1s1.9-3 1.8-4.8l-.2-8.2c-.1-1.8-.8-3.5-2.1-4.7s-3-1.9-4.8-1.8h-2.4c-1.8.1-3.5.8-4.7 2.1s-1.9 3-1.8 4.8l.2 8.2c.1 3.7 3.1 6.6 6.8 6.5" fill="#f8bc95"/><path d="m947.2 320.1c2.8 0 9.7.9 9.4 19.4s-8.2 43.8-8.2 43.8h-6.7s-3.3-34.2-3.3-40.8c-.1-14.9-.2-22.4 8.8-22.4" fill="#f8bc95"/><path d="m922 245.9c-9.3-1-13.5 5.1-15.3 24.8s-2.7 41.4-1.7 44.6 14 4.7 15.4 3 10.6-42.2 11.2-48.6.4-22.7-9.6-23.8" fill="#f8bc95"/><path d="m912.1 332-2.4-.3c-1.8-.2-3.4-1.1-4.5-2.5s-1.6-3.2-1.3-5l1-8.2c.6-3.6 3.9-6.2 7.5-5.8l2.5.4c1.8.2 3.4 1.1 4.4 2.6s1.5 3.2 1.3 4.9l-1 8.2c-.5 3.6-3.9 6.2-7.5 5.7" fill="#f8bc95"/><path d="m912 319.8c-2.8-.3-9.8-.1-11.4 18.3s1.5 44.4 1.5 44.4l6.7.7s8.9-33.7 9.6-40.2c1.6-14.8 2.5-22.3-6.4-23.2" fill="#f8bc95"/><path d="m962.1 172.1c-4.3 1.5-6 8.8-3 16.8s6 13.2 6.8 15.3 5 14.8 6.6 18 5.7 6.5 9.1 5.2 6-1.9 5-8.1-10.7-51.7-24.5-47.2" fill="#f8bc95"/><path d="m956.5 241.8s3.3 16.3 3.8 25.1-3.7 47.7-3.7 52 .3 17.4 0 30.3-3.5 38.2-3.5 38.2l-16.5-.4s-.1-54.4-.1-62.9-2.2-53.6-2.2-53.6v-28z" fill="#333332"/><path d="m901.9 172.7c1.1-1.7 6.5-3.1 11.6-4.6 2.7-.9 5.4-2 8-3.3l2.8 1.5c6.2 3.5 13.7 3.5 19.9 0l2.3-1.4s4 1.7 8.5 3.1 10.6 2.8 11.5 4.6-8.1 36.5-9.1 39.4 1.6 23.6-.9 29.7l-22.1.8h-.1l-22.1-.7c-2-7.1 0-27.1-1-30.1s-11-36.1-9.3-39" fill="#6296d0"/><g transform="translate(897 241)"><path d="m15.4.3s-5 15.9-6.5 24.7-2.7 47.8-3.1 52-2.1 17.3-3.2 30.1-2.5 38.4-2.5 38.4l16.4 1.3s7.8-54.1 8.7-62.6 12.2-53.3 12.2-53.3v-29.4z" fill="#333332"/><path d="m54.3 146.4s5.7 6.5 5.4 8.3-2.6 4.5-6.9 4.8-8.6-2.8-9.4-2.9-2-10.6-2-10.6z" fill="#212121"/></g><path d="m899.4 386.7s-6.3 6-6.1 7.7 2 4.8 6.3 5.5 8.9-1.8 9.7-1.8 3-10.4 3-10.4z" fill="#212121"/><path d="m914.3 274.6c-.9 5.8-3.5 44.9-3.7 47.1s-7.8 62.5-8.1 65.2l-5.4-.4s1.4-25.5 2.5-38.4 2.7-25.8 3.2-30.1 1.7-43.3 3.1-52 6.5-24.7 6.5-24.7l13 .9s-10.2 26.5-11.1 32.4" fill="#212121"/><path d="m936.9 259.6c1.3-2.4 4.1-3.7 6.9-3.1 2.7.6 4.7 2.9 4.9 5.7.5 6.4.7 10.8.1 13.7-1.4 7.3-3.4 43.3-3.1 44.2s.1 66.9.1 66.9l-.3.2-8.9-.2s-.1-54.4-.1-63-2.2-53.5-2.2-53.5v-6z" fill="#212121"/><path d="m966.4 171.9s5.8 1.4 10.8 11.7 9.3 31.6 9.3 31.6c-2.6 2-5.5 3.4-8.7 4.3-5.8 1.8-8.2 1.3-8.2 1.3l-7.5-21.9s-2.8-26.3 4.3-27" fill="#6296d0"/><path d="m905.6 170.5s-5.9.8-11.9 10.5-14.4 30.2-14.4 30.2c2.4 2.2 5.2 4 8.2 5.2 5.5 2.3 8.2 2.3 8.2 2.3l11.4-20.9s5.5-25.8-1.5-27.3" fill="#6296d0"/><path d="m951.8 140.2c-1.8 9.6-7.5 18.6-13.7 18s-15.5-10.8-14.6-20.5 7.5-17 16.4-16.4 13.7 9 11.9 18.9" fill="#ab795b"/><path d="m949.4 129.4s-4.8-2.5-14.8 3.2c-2.2 1.2-1.5 8.9-2.1 9.4s-1.5-6.1-1.9-5.4c-3.6 5.1-3.3 12.6-4 12.5s-2.1-2.5-2.7-5.9c-.2-1.3-.4-2.7-.5-4.2-.1-1.6 0-3.1.1-4.7.1-.9.2-1.9.4-2.9s1.5-1.7 1.5-3.9 3.9-5.2 7.4-6.1l3-1.1c2.6-.5 5.3-.1 7.7 1l1.5.7c.3.2.1.5.9.3s2.3.8 2.9 1.2.6 1.6 1.4 2.9 1.6 2.3 1.7 6.7" fill="#55210e"/><path d="m931.6 139.7c.2 2.7-.3 6.3-1.8 6.4s-2.8-2.1-2.9-4.9.9-5.1 2.4-5.2 2.1.9 2.3 3.7" fill="#ab795b"/><path d="m929.4 235.9c-3-5 5.4-13.1 9.1-14.5s10.7-.6 11.7-3.5c1.7-5.3-17.1-8.7-18.8-8.4s-14.9 1.6-17 0-12.5-33.1-12.5-33.1c2.3 10.5 8.8 34.9 9.4 36.7s-1.5 22.7.9 28.7l20.6.7 20.6-.6s-22-2.7-24-6" fill="#4288c8"/><g fill="#ab795b" transform="translate(878 207)"><path d="m108.2 13.8c-1.1-3.5-2.9-6.1-7.4-4.9s-14.3 6.9-14.3 6.9l1.9 5.8s10.4 2.3 12.9 1.9 9.9-.3 6.9-9.7"/><path d="m.6 12c-.5-3.7 1.1-7 11.5-8.8s34.8-2.8 34.8-2.8l.7 6s-19.7 8.3-25.2 9.5-20.7 5.8-21.8-3.9"/></g><path d="m920 214.2c2.3 1.1 4.7 2 7.1 2.7 1.8.2 8.1-.6 9.5-.5s7.5 4.7 7.7 3.2-4.4-8-4.4-8-6.6-5.1-9.4-5-7.9.9-7.9.9z" fill="#ab795b"/><path d="m974.7 221.9c-2.5-.6-5-1-7.6-1.3-1.8.1-7.8 2.2-9.2 2.4s-9.7-.4-9.7 1.2 8.3 4.5 8.3 4.5c3 .7 6 1.1 9.1 1l7.7-.7z" fill="#ab795b"/><path d="m946.8 222.3h47.1l-24.3-2.6-41.3-.1z" fill="#5b5a5a"/><path d="m946.8 222.3h48.3l5.5-36.3h-48.3z" fill="#d2d6d9"/><path d="m946.8 225.1-18.5-2.7v-2.8l18.5 2.7z" fill="#c4c8cd"/><path d="m946.8 222.3h48.2v2.8h-48.2z" fill="#767676"/><path d="m964.9 227.8s-5.2-1.5-5.4-2.4-5.6-3.9-5.8-4.5 2.4-1.1 4.4-.3c1.3.5 2.6.8 4 .7.7 0 3.8-1.2 6.2 0 1.6.7 2.7 2.4 2.7 4.2-.1.9-4.5 3.7-6.1 2.3" fill="#ab795b"/><path d="m1063.6 265.5h6.8v124.4h-6.8z" fill="#646363"/><path d="m1183.4 266.1h6.8v124.4h-6.8z" fill="#646363"/><path d="m1065 265.5h123.8v18.1h-123.8z" fill="#646363"/><path d="m1063.6 273.5h1v6h-1z" fill="#121212"/><path d="m1063.6 273.5v6h1.4v-6z" fill="#575756"/><path d="m1188.8 277.8 1.5-.1v-4.1h-1.5z" fill="#575756"/><path d="m1065 273.5v6l123.8-1.7v-4.2z" fill="#575756"/><path d="m1055.6 262.8h142.9v11.2h-142.9z" fill="#b2b2b2"/><path d="m1109.3 204.5-5.4 58.3 14.1.3 6.1-66.7z" fill="#f5bfd9"/><path d="m1128.5 176.5c3.1 2.5 1.8 8.1-2.8 12.8s-33.5 24.4-35.6 24.2-6.6-3.3-5.5-6.2 22.9-23 27.4-26.2 12.4-7.8 16.5-4.6" fill="#f5bfd9"/><path d="m1089.3 214.6c-3.9-.5-8-9.9-10.4-16.9s-7.1-28.4-7.1-28.4l6-1.7s15.7 35 16.4 37 1.7 10.8-4.9 10" fill="#f8b999"/><path d="m1147.4 249.1c.7 3.6 1 7.3.8 11-.7 9-31.2 11.7-32.2 11.5s-11-11-12-14.3c-.6-1.8 3.4-9 6-16.5 12.9 2.9 24.4 5.3 37.4 8.3" fill="#44195e"/><path d="m1088.5 375.9c1.1 2.3 1.6 8.1 1.4 9.7s-2.3 4-3.5 4.2c-3.1.5-5.9-.5-9.2-.6s-9.3 1.3-13.9 1c-1.9-.2-6.5-.9-6.2-2s6.6-2.7 9.9-4c4.9-2 9.5-4.3 14-7.1 0 0 7.3-1.6 7.5-1.2" fill="#f4a17f"/><path d="m1121.8 250.9c4.9 5.8 8.9 17.8-.1 29.9s-20.9 31.8-22.4 32.2-12.2-4-13.2-5.6 18.5-53.4 19.7-56.1c2.1-4.9 10.4-7 16-.4" fill="#44195e"/><path d="m1099.7 308.7c5.3 7.1 2.6 25.9 1.4 31.9s-12 34.6-12 36.9-7.9.9-8.1-.4 4.3-47.1 4.2-50.4.6-18.3.8-19.7c1.1-7.5 10.6-2.3 13.7 1.7" fill="#44195e"/><path d="m1130 177c-2.7-.2-2.5-3.3-2.4-5.9l.2-.3c.3-1.2.7-16.7.7-16.7l16.1-5.1s-1.8 15.7-1.1 18.6c-4.1 4.2-7.6 9.7-13.5 9.4" fill="#f4a17f"/><path d="m1114.6 227.6c1-7.6-1.9-17.7-2.8-18.8s-3.9-5.7-3.7-9.5c.2-5.5 6.2-12.8 6.6-14.7s-.1-4.7.9-5.8 10.6-6.2 12-7.7c1.4 2 11.8.7 15.9-3.5v.5c3.4 3 13.6 6.2 15.7 11.4s-11.4 20.7-12.2 42.5c-.2 6.6-.1 18.6.3 27.1-13.3-.6-24.4-4.6-37.4-8.3 2.3-4.1 3.8-8.6 4.7-13.2" fill="#92d2f4"/><path d="m1147.8 255.9c2.7 10.1-9.3 22-19.5 33.1-13.7 15-24.3 27.5-25.9 27.7s-10-5.1-10.8-6.9 18-38.7 24.9-51.3c10.4-19 26.9-19.5 31.3-2.6" fill="#542c6a"/><path d="m1068.3 376.8c.3 2.1 2.2 5.4 2.3 7s-1.2 3.8-2.3 4.1c-3 1.1-4.1 1-9.1 2.2-3.2.7-11.4 3.5-13.8 3.1s-7.5-1.6-7.3-2.7 6.8-1.9 9.8-3.8c5.2-3.6 10-7.9 14.1-12.8 0 0 6.2 2.5 6.3 2.9" fill="#f8bc95"/><path d="m1103.5 316.6c2.4 8.5-6.8 25.1-10.2 30.3s-23.6 27.9-24.4 30.1-7.7-2.1-7.4-3.3 20.9-42.4 22.1-45.5 7.1-16.9 7.8-18.2c3.7-6.6 10.7 1.8 12.1 6.6" fill="#542c6a"/><path d="m1089.9 381.4c.1 1.4.1 2.8 0 4.2-.3 1.9-2.3 4-3.5 4.2-3.1.5-5.7-.1-8.9-.2s-10.2.8-12.6.8-8.7-1.2-8.4-2.3 7.2-2.6 10.5-3.9c0 0 2.9 1.7 4.6 1.6s18.1-4.3 18.3-4.4" fill="#282727"/><path d="m1120.1 133.1c3.5-4.2 14.7-9 21.3-1.9s5 15.2 2.5 20.4c-1.8 3.9-4.8 7-8.5 9.1-.9.5-9.2 3.1-11 2.7s-3.1-8.9-3.4-8.8c-.7 0-1.3-.4-1.5-1.1-.2-1 .2-7.4-.1-8s-3.3-7.6.7-12.4" fill="#f8b999"/><path d="m1069.2 379.7c.7 1.3 1.2 2.7 1.4 4.1.1 1.9-1.2 3.8-2.3 4.1-3 1.1-4.1 1-9.1 2.2-3.2.7-11.4 3.5-13.8 3.1s-7.5-1.6-7.3-2.7 6.8-1.9 9.8-3.8l2.8 1.3z" fill="#3c3c3b"/><path d="m1117.1 138.7s10.9.8 13.6 1.2 8.5 25 9.2 26.3c7.3 11.2 11.7-2.7 10.8 0 0 0 3.6-4.3-1.7-29-3.3-8.3-12.8-11.2-19.1-10.4s-13.1 5.1-12.8 11.9" fill="#40245d"/><path d="m1109.3 204.5c3.1 1.6 6.5 2.6 10 3 14.1 2.3 16.6-5.6 19.8-8.7s6.6-17.7 6.6-17.7l12.6 5.4s-10.2 20.6-10.8 31.1c-.3 5.9-.1 31.5-.1 31.5s-11.7-.6-20.7-3.6c-3.2-1.1 2.5-8.6 2.3-14.9s-15-17.7-15.9-18.9-3.8-7.2-3.8-7.2" fill="#5bc5f2"/><path d="m1079 165.5s-1.6-5.8-2.6-6.8-5.9-9.2-6.4-8.1 3 8.2 2.8 8.3-4.1 2-5.2 3.3 4.4 8.7 4.4 8.7l5.8.6z" fill="#f8b999"/><path d="m1146.6 167.6c-4.5 2.7-7.3 7.5-7.7 12.7-.8 9.1 6.9 63 7.2 72.9s.5 15.2.5 15.2l11.7-5.3s-1.1-86.5-2.8-89.6-8.9-5.9-8.9-5.9" fill="#f5bfd9"/><path d="m1124.2 173.3-11.7 15.3 1.7-9.1s5.8-5.9 10-6.2" fill="#f5bfd9"/><path d="m1168.3 222.1c.9 1.9 15 38.1 15 38.1l-6.1 1.5s-11.4-17.5-14.9-24-7-16.2-4.5-19.4c4.2-5.4 9.6 1.9 10.5 3.8" fill="#f8b999"/><path d="m1150.5 172.8c3.7-1.7 8 2 10.3 8.2s6.9 40.8 5.8 42.6-6.7 3.2-8.7.9-9.7-29.4-10.6-34.9-1.5-14.5 3.2-16.8" fill="#f5bfd9"/><g transform="translate(1155 218)"><path d="m14.2 2.5c.5 1.8-.5 3.7-2.3 4.2l-7 2.2c-1.8.5-3.7-.5-4.2-2.3-.3-.8-.2-1.7.2-2.5s1.1-1.3 2-1.6l7.1-2.2c1.8-.5 3.6.5 4.2 2.2" fill="#f5bfd9"/><path d="m20.6 41.2c1.6 2.5 3.3 6.3 6.7 6.7s5.9-1 8-1 3.3.5 3.5.2-1-2-1-2c1.6-.2 3.1.2 4.5 1 1.5 1.3 2.5 2.3 3.3 1.9s-3.5-4.9-5-5.3-14.5-2.8-14.5-2.8z" fill="#f8b999"/></g><path d="m1139.5 151s.5-5.9 6.9-3.5 1 10.3-.4 13.9c1.8 5.4 7.9 8.9 7.3 9.5-3.4 3.8-23.2.9-25.2 1.2-4.9.7.7-10.8.8-9.1 6.7-1.4 13-5.9 13-5.9z" fill="#40245d"/><path d="m1059.7 122.6c-3.5-.2-6.5 2.3-6.8 5.8-.1 1.7.4 3.3 1.5 4.6s2.6 2.1 4.3 2.2c3.5.2 6.5-2.3 6.8-5.8.1-1.7-.4-3.3-1.5-4.6s-2.6-2.1-4.3-2.2" fill="#87cac0"/><g fill="#87cac0" transform="translate(1032 95)"><path d="m28.8 13.7c-7.1-.5-13.9 2.5-18.3 8.1-.9 1.3-.6 3.1.6 4s3 .8 4.1-.3c3.1-4.1 8.1-6.3 13.2-5.9 4.7.4 9 2.9 11.6 6.9.5.9 1.5 1.4 2.5 1.4.6 0 1.1-.2 1.6-.5 1.4-.9 1.8-2.7.9-4.1-3.6-5.6-9.6-9.2-16.2-9.6"/><path d="m29.8.7c-9.8-.7-21 3.8-28.5 11.5-.9 1.2-.7 2.9.4 3.9s2.8 1.1 3.9.2c6.3-6.4 15.6-10.2 23.8-9.6s15.2 4.2 20 10.7c.6.8 1.5 1.2 2.4 1.2.7 0 1.3-.2 1.8-.6.6-.5 1.1-1.2 1.2-2s-.1-1.6-.6-2.2c-5.9-7.9-14.1-12.3-24.4-13.1"/></g><path d="m219.3 308h1.5v5.9h-1.5z" fill="#453b43"/><path d="m237.5 308h1.5v5.9h-1.5z" fill="#453b43"/><path d="m177.3 310.5c-.8-2.5-1.4-5.1-1.7-7.7v.2c0 2.3 0 4.5.1 6.7.1 1.5.1 3.1-.2 4.6-.3 1.3-1.3 2.6-2.9 2.2s-2.9-2.9-1.7-4.2c.3-.3.3-.9 0-1.2s-.9-.3-1.2 0c-3.3 3.5 2.5 9.5 6.1 6.1 1.5-1.3 1.6-3.6 1.6-5.5v-1.2z" fill="#2e292d"/><path d="m187.7 310.6c.8-2.5 1.4-5.2 1.7-7.8v.3c.1 2.2.1 4.5.1 6.7-.2 1.5-.1 3 .1 4.5.3 1.4 1.4 2.7 2.9 2.2s3-2.9 1.7-4.2.5-2 1.2-1.2c3.3 3.5-2.4 9.6-6.1 6.2-1.4-1.4-1.6-3.6-1.6-5.5z" fill="#2e292d"/><path d="m177.2 306.5c.1-2.4-.3-4.7-1-7-.4-1.1-1.1-1.7-2-1s-1.1-1.2-1.5-1-1.2 2.2-1.5 3.1c-.8 2.5-1.4 5.1-1.7 7.7-.3 1.4-.4 2.9-.5 4.3-.2.8-.1 1.7.4 2.4l.5.4c.1.5.5.9.9 1.1s1 .2 1.4-.1c.3.3.7.5 1.1.4.5-.1.9-.4 1.2-.7.3.1.6.3.9.2.6-.2 1.1-.6 1.3-1.2.4-1.3.5-2.7.4-4.1 0-1.5.1-3 .1-4.5" fill="#f6ae86"/><path d="m195.6 310.5c.1-.3.1-.6 0-.9-.1-2.8-.6-5.6-1.3-8.3-.2-.9-.5-2.9-1.2-3.3s-1.8.6-1.6.8-1.6-.3-2.1.8c-.8 2.2-1.3 4.5-1.4 6.8v1.2c-.1 1 0 2.1 0 3.2s0 2.2.1 3.3c-.1.8.1 1.5.6 2.1.4.3 1 .4 1.4.1.2.4.7.7 1.2.7.4 0 .7-.1 1-.3.4 0 .8-.2 1.1-.5.5-.2.9-.6 1.1-1.1.8-.3 1.3-1.1 1.3-2s0-1.7-.2-2.6" fill="#f6ae86"/><path d="m200.1 193.5c-1.9.3-3.6 1-5.2 2-1.8.9-3.5 2-5.1 3.1-1.6 1.3-2.6 3.1-2.9 5.1-.1.3-.2.6-.2.9l-.3 1.7c-.6 5.4-.7 10.9-.2 16.3v1.4c.2 12.8.4 25.5.8 38.2.3 6.3.5 12.5.5 18.8.1 2.2.3 4.3.6 6.5s.7 7.2 1 10.8v.7c.1.8.1 1.7.2 2.5 0 1 .8 1.8 1.8 1.8 1-.1 1.8-1 1.8-2 .1-.4.1-.8.2-1.2.3-.4.5-.9.6-1.4 1-9.1 2.7-18 3.4-27.1.3-4.7.4-9.5.1-14.2-.2-4.4-1.1-8.8-.9-13.3.1-1.3.3-2.5.5-3.8s1-4 1.6-5.9c1.1-3.7 1.9-7.4 2.8-11.2s1.6-8.2 2.1-12.3c.5-5.7.9-12.9-3.2-17.4" fill="#f6ae86"/><g transform="translate(166 98)"><path d="m16.3 105.2v-.2c-.3-1.7-1.3-3.3-2.6-4.4-1.6-1.1-3.2-2.2-4.9-3.1-1.3-.9-2.7-1.5-4.2-1.9-1.3 4.1-2.9 8.1-3.8 12.3l-.3.8v1c.3 4.1.5 8.2 1.1 12.3s1.3 8.2 2.1 12.2c1 3.9 1.6 7.9 1.8 12 .1 4.4-1 8.9-1.4 13.3-.4 4.7-.5 9.4-.3 14.1.3 9.1 1.6 18.1 2.4 27.2 0 .5.2 1 .5 1.4 0 .4.1.8.1 1.2s.8 2 1.7 2c.5 0 .9-.1 1.3-.5.4-.3.6-.8.6-1.2l.3-2.6v-.6c.4-3.6.9-7.2 1.4-10.9.4-2.1.7-4.3.8-6.5.3-6.3.8-12.5 1.2-18.7.6-8.8 1.2-17.6 1.6-26.4-.6-10.9.6-21.9.6-32.8" fill="#f6ae86"/><path d="m38.8 21.6c.6-1.3.7-2.7-.4-3.7-.3-.3-.7-.5-1.1-.6.1-.3.1-.6.2-.9 1-1.4 1.2-3.1.6-4.7-.3-.9-.8-1.6-1.4-2.3-.5-.3-1.1-.6-1.7-.9v-1c0-.8-.2-1.5-.7-2.1-.7-1.2-1.9-2.1-3.2-2.4h-.3c-.6-.6-1.5-.7-2.2-.4l-.6.2c-.4-.6-.9-1.1-1.5-1.4-1-.7-2.4-.8-3.4-.1h-.2c-2-.9-4.2-1.3-6.4-.9-2.1.1-4.1 1-5.7 2.4-.8.8-1.3 1.8-1.7 2.8l-.7.9c-1 .3-1.9 1-2.5 1.9-.7 1.3-.9 2.8-.4 4.2-.5 1-.6 2.2-.3 3.3-1 1.3-1.4 2.9-1.1 4.5-.9 1.4-1.3 3.2-.9 4.9.1 1 .6 2 1.3 2.7-.2 1.6.2 3.1 1.1 4.4.8 1 1.9 1.6 3.1 1.8.4 1.1 1.4 1.9 2.5 2.2 1.1.4 2.4.4 3.5.1.7.4 1.4.6 2.2.6 1.1.2 2.3.2 3.4-.2 1.1.8 2.5 1.1 3.8.8 1.4-.4 2.7-1.3 3.6-2.5.6.1 1.2 0 1.7-.2l1.2-.5c1.3-.5 2.3-1.4 2.8-2.7 2-.5 3.7-2 4.5-3.9.6-1.5.7-3.2.1-4.8l.8-1.2" fill="#55210e"/></g><path d="m182.3 135.9c1.8 1.7 5.8 2.4 7.6-.1.8.1 1.6-.8 1.3-2.1v-1.1l-.3-2.4c-.1-.3-.1-.7-.1-1v-.6c0-.4-.1-.8-.3-1.1v-.2l-.2-.5c-.4-1.8-2.2-1.5-2.5 0-.4.2-.6.6-.7 1v.3c-.1.4-.1.8-.2 1.2-.5-.3-1.1-.3-1.5.2h-.6l-.2-.2v-.5c-.6-1.2-2.1-.8-2.4.5-.1.3-.1.6 0 .9.1.4.1.8.1 1.2 0 .3 0 .7-.1 1 0 .6 0 1.1-.1 1.7-.2.7.1 1.4.6 1.9" fill="#f6ae86"/><path d="m181.8 130.1c.1.4.1.8.1 1.2v1s2.9 5.7 9.1.3c0-.3-.4-3-.4-3.4v-.6c0-.4-.1-.8-.3-1.1v-.2l-3.5.8-2.6.6-2.4.5c-.1.3-.1.6 0 .9" fill="#f6af8c"/><path d="m175.4 108.1c.4-.5 1-.9 1.6-1.2 1.3-.6 3.4-.1 4.8-.4s5.6-1.6 7.6.3 1.5 4.4 1.9 6.8l.3 1.4h.1c.5-.5 1.1-.8 1.8-.8.6 0 1.1.3 1.3.9.3 1.8-.4 3.7-1.8 4.9h-.1c.2.8.2 1.7.1 2.5-.3 2.9-2.1 5.1-4 7.2-1.6 1.8-4.1 2.4-6.4 1.7-2.6-.7-3.9-2.5-4.9-4.8-1.3-2.4-2.1-5-2.4-7.7-.2-3.3-2.4-8.1.1-10.8" fill="#f6af8c"/><path d="m160.7 179.2-1.5 1.4c-2.1 2.1-4.2 4.1-6.4 6s-5.2 5.8-6.3 3.2c-.4-.8-.2-.8.1-1.7 1.2-3.8 4-7.4 6.4-10.5 2.2-3.1 4.7-5.9 7.4-8.6 2.4-2.5 1.9-5.6 2.5-8.8.7-4.4 1.7-8.7 3.2-12.9.9-2.6 2.7-9.5 5.8-10.4 1.5-.5 2 3.3 1 4 .7 2.5.9 5.2.8 7.8.2.3.3.7.2 1.1-.6 4.4-1.8 8.7-3.6 12.8-1.1 2.8-2 5.7-3.1 8.4s-4 5.8-6.5 8.2" fill="#f6af8c"/><path d="m172.3 144c-.2.9-.2 1.8 0 2.7.4 1.5 1.4 2.9 2.7 3.8.7.5 1.5.4 2.1-.2 3.4.3 6.9.1 10.4.1 1.6 0 3.2 0 4.8.2h.7l3.1.4h2.9c.7-.3 1.1-1 1.1-1.7.1-1.1.4-2.2.7-3.2v-.7c.3-1.3.8-2.4 1.6-3.5l.4-.3c.1-.5.1-.9 0-1.4-.1-1-.7-1.8-1.6-2.2l-.6-.2-1.5-.5-1.5-.5h-.1l-4-1.4c-1-.4-2.3-1.4-3.4-1.3-.5.1-1 .2-1.5.5-1.2.7-1.9 1.7-3.4 1.6-.9-.2-1.7-.5-2.4-1-1.3-.7-2.5-.4-3.9 0-1 .3-1.9.5-2.9.6l-1.3.3c-1 .2-1.9.4-2.8.8.5 2.2.7 4.5.6 6.7z" fill="#f6af8c"/><path d="m215.2 215v.4l-.8-.4v-.3c-.2-.4-.6-1.3-.2-1.5s1.1 1.3 1 1.8" fill="#f6ae86"/><path d="m212 217.7c1.2.4 2.4 1.5 3.7.8s1.6-2.1 2.1-3.2c.6-1.2.5-2.7-.1-3.9l-1.5-2.9-.4-.7v-.3l-.3-.3c-.2-.3-.3-.6-.4-.9.1-.3 0-.5-.2-.7s-.5-.1-.7.1-.2.5-.1.7h-1.1c-1.1.3-1.2 1.5-1.5 2.4s-.7 2.9 0 4.3c.4.6.8 1.2 1.4 1.7h-.1c-.1.3 0 .6.3.8.3.1.7.2 1 .3h-.4l-.8-.2c-.5-.3-.9.3-.8.8s-.6.9.1 1.1" fill="#f6ae86"/><path d="m200.7 158.5c.5-2.8-.8-5-1.7-7.5s-.6-2.1-.8-3.2-.1-2.2-.1-3.3c.2-2.4.5-4.8 1-7.1l2.2.7.6.7c1.6 1.8 2.2 4.1 3 6.5 2.1 6.2 3 12.5 3.8 19s2.7 15.6 4.2 23.3c.9 4.4 1.4 9 1.9 13.5l.6 7.3c.1 1.3.3 2.8-.7 3.5s-2.2-1.2-2.7-2.7-1.7-5.7-2.5-8.6c-2-6.6-3.7-13.4-5-20.2-.4-2.2-1-4.4-1.8-6.5-1.4-4-2.5-8.1-3.2-12.3.6-.9 1-2 1.2-3.1" fill="#f6af8c"/><path d="m169.1 312.9h8.1c.3 0 .5-.2.5-.5v-3.9c0-.3-.2-.5-.5-.5h-7.2l-.6.4-.8 3.9c0 .1 0 .3.1.4s.2.2.4.2" fill="#2e292d"/><path d="m195.9 312.9h-7.6c-.3 0-.6-.3-.6-.6l.2-3.8c0-.3.3-.5.6-.5h6.7c.3 0 .6.2.6.5l.6 3.8c0 .3-.2.6-.5.6" fill="#2e292d"/><path d="m176.1 298.4c-.7.9-2.7.4-3.5-.1-.4-.1-.8 0-1 .4s-.2.8.1 1.1c1.5.8 4.4 1.3 5.6-.2s-.4-2-1.2-1.2" fill="#2e292d"/><path d="m193.2 298.8c-1 .8-2.5 1-3.6.3-.9-.6-1.7.8-.8 1.4s4 .8 5.6-.5-.4-1.9-1.2-1.2" fill="#2e292d"/><path d="m203.8 200.6v-.4c-.7-2.8-1.7-5.6-2.9-8.3l-1.6-3v-.3c-.3-.7-1.2-3.6-1.7-3.9-.6-.2-1.2-.4-1.8-.4h-.4c-1.5 0-3.1.1-4.6.4-4.2.6-8.5.1-12.8.6-1 .1-2 .2-2.9.5-.4-.7-1.1-1.1-1.9-.9s-1.4.7-1.6 1.4l-.2.5c-.6 1.4-1.3 2.8-2.1 4.1-.9 2-1.5 4.1-2 6.2-.1.4-.3.9-.4 1.4-1.6 7.3-.6 14.7.4 22s1.5 12.7 2.2 19 .1 12.8-.4 19.2c-.3 3.1-.5 6.3-.6 9.4s.1 5 .1 7.5-.1 8.9 4.5 9.9c1.9.4 4 .3 5.4-1.3 1-1.6 1.5-3.4 1.5-5.2.5-5.5 1-11 1.3-16.5s.7-13.2 1.2-19.8-.1-12 .1-18c.1-2.9.2-5.9.2-8.9-.1-2.4.2-4.8 1-7v-.2h2c-.1.6-.1 1.1-.1 1.7v.3c-.9 11.5-1 23.1-.8 34.7.1 5.9.3 11.7.6 17.6s.7 11.4.7 17.1c0 1.7-.5 3.8.8 5.1s3.8 1.4 5.4 1h.4c.5.5 1.2.7 1.9.5.7-.1 1.3-.6 1.6-1.2 1.5-4.2.6-10.3.8-14.8 0-7.4.8-14.6.1-22s1.8-13.6 3.8-19.6c1.8-5.7 3-11.7 3.4-17.7.2-3.6 0-7.2-.6-10.7" fill="#55210e"/><path d="m183.4 205.4-.9-14.8h-2.5s1.4 11.4 3.4 14.8" fill="#65301f"/><path d="m203.8 200.6c-9.7.2-9.1-9-9.1-9l4.5-2.7 1.6 3c1.2 2.7 2.2 5.5 2.9 8.3z" fill="#65301f"/><path d="m175.4 193.1c-1.1 8.9-8.7 5.4-8.7 5.4s.3-1 .4-1.4c.5-2.1 1.1-4.2 2-6.2.8-1.3 1.5-2.7 2.1-4.1 2.6.7 4.7 2.5 4.2 6.3" fill="#65301f"/><path d="m200 180.2c-1.2-3.6-2.8-7.4-2.5-10.9s2.6-7.1 3.2-10.8c.3-1.3.2-2.6-.3-3.8 1.2-.5 2.4-1.2 3.5-2 1.5-.9 2.8-2.2 3.6-3.7-.8-3-1.2-6.2-2.6-9-.2-.4-.4-.7-.7-1-2.6 1.1-5.4 2-8.2 2.4-5.3.8-10.6 1.2-15.9 1.1-3.9 0-9.2-.1-12.3-2.9-1.2 2-2.3 4-3.3 6.1-.1 1.8.4 3.6 1.4 5.1.9 1.5 2.1 2.3 2.8 3.5s.2 2.8.3 3.6c.3 1.4.7 2.7 1.3 4 1.1 2.2 2.5 3.6 2.5 6.3s-1.1 5.4-1.9 8c-1.1 4.2-3 9.2-3 13.6 0 .3.1.6.2.8l.2.5c1.3 2.1 3.9 2.7 6.1 3.3 7 1.8 14.8 3.8 21.9 1.6 2.5-.8 5.3-2.1 6-4.9s-1.1-6.4-1.7-8.8z" fill="#e41f13"/><path d="m168 281.2s3.6 3.8 13.1 1.8c.6 5.9-.7 5.9-.7 5.9l-12.4-2c-.5-1.9-.5-3.8 0-5.7" fill="#4c2a1b"/><path d="m198.3 282.8s-3.8 2.2-13.2.2c-.7 5.9.7 5.9.7 5.9l12.5-.4c.6-1.9.6-3.8 0-5.7" fill="#4c2a1b"/><path d="m168.7 154.3s16.6 4.8 31.7.4c-9.4 5.6-26.5 3.9-31.7-.4" fill="#b92226"/><path d="m218.2 295.5c-.7 0-1.2-.5-1.3-1.2l-3.9-81c0-.7.5-1.2 1.2-1.2.3 0 .6.1.8.3s.4.5.4.8l4 81c0 .7-.5 1.2-1.2 1.3" fill="#453b43"/><path d="m236.4 310.5h-19.3l-2.4-60.8 11.3-.8h8c4.9-.1 9 3.8 9.3 8.7l2.2 43.6c.1 2.5-.8 4.9-2.5 6.7s-4.1 2.8-6.6 2.8" fill="#4c8091"/><path d="m235.2 310.5h-3.9l-3.1-61.6 4.1-.1z" fill="#1c2b34"/><path d="m219.7 270 5.9-.1.1 3.2-5.9.1z" fill="#e1b951"/><path d="m219.8 288.6 5.9-.1.1 3.2-5.9.1z" fill="#e1b951"/><path d="m224.3 271.4.6 18.6h-3.6l-.5-18.6z" fill="#dd213b"/><path d="m223 313.9c0 .8-.3 1.5-.8 2.1s-1.3.8-2.1.8c-1.6 0-2.9-1.3-3-2.9.1-1.6 1.4-2.9 3-3 1.6.1 2.9 1.4 2.9 3" fill="#453b43"/><path d="m241.2 313.9c-.3 1.4-1.5 2.5-2.9 2.5s-2.7-1-2.9-2.5c-.2-1.2.3-2.4 1.3-3 1-.7 2.3-.7 3.3 0 .9.6 1.4 1.8 1.2 3" fill="#453b43"/><path d="m149.4 188.9c-.2-.5-.4-1.1-.5-1.7 0-.4 1.4-1.4-.1-1.4s-1.8 1.1-2.3 1.4c-2 1.5-3.7 3.4-5 5.6v.3l-.2.5c-.2.8 0 1.6.5 2.2-.3.9-.2 1.7.7 2 .5.2 1 0 1.3-.5.5.2 1.2.2 1.7 0 1.3-.5 2.3-1.6 2.7-2.9.8-1.4 1.3-3 1.4-4.7z" fill="#f6ae86"/><path d="m149.1 347.8h-38.3v-144.9c0-7.2 5.8-13 13-13.1h12.2c7.2 0 13.1 5.9 13.1 13.1z" fill="#5bc5f2"/><path d="m141.2 347.8h-22.6v-158.4c0-1.3 1.1-2.4 2.4-2.4h17.8c1.3 0 2.4 1.1 2.4 2.4z" fill="#92d2f4"/><path d="m302.5 347.8h-38.3v-144.9c0-7.2 5.9-13.1 13.1-13.1h12.1c3.5 0 6.8 1.4 9.3 3.8s3.8 5.8 3.8 9.3z" fill="#5bc5f2"/><path d="m294.7 347.8h-22.6v-158.4c0-1.3 1.1-2.4 2.4-2.4h17.8c1.3 0 2.4 1.1 2.4 2.4z" fill="#92d2f4"/><path d="m165.9 205.7h-6.4c-1 0-2 .4-2.7 1.1s-1.1 1.7-1.1 2.7v103.9l12.9-1.1.7-3.4c.1-.2.1-.4.2-.5.3-2.6.9-5.2 1.7-7.7l.3-1c-.2-.2-.3-.6-.2-.9s.4-.5.7-.5h.1c-.3-3.6-.7-7.1-1.1-10.7l-3-.5c-.4-1.3-.5-2.7-.3-4l-12 9.6v-11.5l12.6-9.9v-3.2c.1-3.1.3-6.3.6-9.4v-.7l-13.2 9.6v-6.7l13.7-9.4c.3-4 .2-8-.1-12-.7-6.3-1.3-12.7-2.2-19-.7-4.9-1.1-9.8-1.2-14.8" fill="#d9e6e7"/><path d="m204.4 207.3c.1 1.3 0 2.7 0 4-.4 6-1.6 12-3.4 17.7-.2.3-.3.7-.4 1.1l4.6-3.2v-17.4c0-.8-.3-1.6-.8-2.2" fill="#d9e6e7"/><path d="m185.9 208.5h-2v.2c-.8 2.2-1.1 4.6-1 7 0 3-.1 6-.2 8.9-.2 6 .3 11.9-.1 17.8l2.4-1.7c-.1-10.1.1-20.2.9-30.3v-.3c0-.6 0-1.1.1-1.7" fill="#d9e6e7"/><path d="m205.2 231.8-6.5 4.7c-1.2 3.8-1.7 7.9-1.4 11.9v.3l7.9-6.2z" fill="#d9e6e7"/><path d="m185 246.4-2.9 2.1c-.3 4.2-.5 8.4-.7 12.6l4-3.1c-.2-3.9-.3-7.8-.4-11.6" fill="#d9e6e7"/><path d="m205.2 252.8-7.7 6.1c0 1.1-.1 2.3-.1 3.4s-.1 5-.2 7.5v.6c-.2 3.9.5 8.9-.3 12.9.5-.1 1-.2 1.4-.5.6 1.9.6 3.8 0 5.7h-3.3c-.5 3.4-.9 6.7-1.3 10 .7 0 1.3.9.7 1.4l-.3.2c.1.4.2.7.2 1.1.6 2.2 1 4.5 1.2 6.8.2.1.2.2.3.4l.3 2 9.1-.5z" fill="#d9e6e7"/><path d="m185.9 268.3-5.3 4.2c-.2 2.2-.4 4.3-.7 6.5 0 1.5-.4 3-1 4.4l2.2-.4c.6 5.9-.7 5.9-.7 5.9l-2.4-.4c-.4 3.2-.9 6.4-1.2 9.7.3 0 .6.2.7.5s0 .7-.2.9c-.2.3-.5.5-.8.6v.3c.5 2 .7 4 .7 6v1.5c.3 0 .5.2.5.5v3.1l10-.6v-.4c.1-.1.1-.3.1-.4v-1.8c0-.3 0-.5.1-.8v-1.2c.2-1.9.5-3.8 1-5.7-.1-.1-.2-.1-.2-.2-.3-.2-.4-.6-.4-.9.1-.3.3-.6.7-.7v-.6c-.2-3.1-.6-6.3-.9-9.5h-2.4s-1.4 0-.7-5.9l1.2.2c-.1-1.1-.1-2.2 0-3.3 0-3.9-.2-7.7-.3-11.5" fill="#d9e6e7"/><path d="m205.2 310-9.1.5.3 1.8c0 .1 0 .3-.1.4.7 2.6-1.9 5.6-4.5 5.6-.9 0-1.8-.4-2.4-1-1.5-1.4-1.7-3.6-1.7-5.5v-.8l-10 .6v.8c0 .2-.2.4-.4.5.1 1.6-.5 3.1-1.6 4.3-.6.6-1.5 1-2.4 1-2.6 0-5.2-2.9-4.6-5.5-.1-.1-.1-.2-.1-.4l-12.9 1.1v6.2c0 2.1 1.7 3.8 3.8 3.8h41.9c2.1 0 3.8-1.7 3.8-3.8z" fill="#d7e3e4"/><path d="m168.7 312.7c-.6 2.6 2 5.5 4.6 5.5.9 0 1.8-.4 2.4-1 1.1-1.2 1.7-2.7 1.6-4.3h-.2c0 .8-.1 1.5-.4 2.2-.2.6-.7 1-1.3 1.2h-.2l-.7-.2c-.3.3-.7.6-1.2.7h-.2c-.3 0-.7-.1-.9-.4-.2.2-.5.2-.8.2-.7-.1-1.3-.5-1.5-1.2l-.5-.4c-.4-.6-.6-1.4-.5-2.1z" fill="#a8b0b2"/><path d="m187.8 310.2c0 .1 0 .3-.1.4v1.2c0 1.9.2 4.1 1.7 5.5.6.6 1.5 1 2.4 1 2.6 0 5.2-3 4.5-5.6l-.4.2h-.1v.2c0 .9-.5 1.7-1.3 2-.2.5-.6.9-1.1 1.1-.3.3-.7.5-1.1.5-.2.2-.6.3-.9.3h-.1c-.5 0-1-.3-1.2-.7l-.7.2-.7-.3c-.5-.6-.7-1.3-.6-2.1v-1.2c-.2-.1-.4-.3-.4-.5z" fill="#a8b0b2"/><path d="m171.5 299.6-.3 1c-.8 2.5-1.4 5.1-1.7 7.7-.1.1-.1.3-.2.5v-.4l.6-.4h7.2v-1.5c0-2-.2-4-.7-6 0 .4-.1.8-.1 1.2-.1 1-.8 1.7-1.8 1.7h-.1c-.9 0-1.5-.9-1.7-2s-.1-.8-.1-1.2l-1-.4-.2-.2" fill="#d9d7d0"/><path d="m168.9 312.9c-.1.7.1 1.5.5 2.1l.5.4c.2.7.8 1.1 1.5 1.2.3 0 .6 0 .8-.2.2.3.6.4.9.4h.2c.5-.1.9-.4 1.2-.7l.7.2h.2c.6-.2 1.1-.6 1.3-1.2.3-.7.4-1.4.4-2.2z" fill="#d9d7d0"/><path d="m194.1 300.2-1.1.7c-.1.1-.1.2-.1.4 0 1-.8 1.9-1.8 2h-.1c-1-.1-1.7-.8-1.7-1.8v-.7h-.3c-.5 1.9-.8 3.8-1 5.7v1.2c0 .3-.1.5-.1.8.1-.2.4-.3.6-.3h7c-.2-2.3-.6-4.6-1.2-6.8 0-.4-.1-.7-.2-1.1" fill="#d9d7d0"/><path d="m195.8 312.9h-7.5c-.1 0-.2 0-.2-.1v1.2c-.1.8.1 1.5.6 2.1l.7.3.7-.2c.2.4.7.7 1.2.7h.1c.3 0 .7-.1.9-.3.4 0 .8-.2 1.1-.5.5-.2.9-.6 1.1-1.1.8-.3 1.3-1.1 1.3-2v-.2" fill="#d9d7d0"/><path d="m197.4 262.3c-.1 2.5-.2 5-.2 7.5.1-2.5.2-5 .2-7.5" fill="#d9d7d0"/><path d="m195 288.6-6.8.2c.3 3.2.7 6.4.9 9.5v.6h.1l.4.2c.4.3 1 .5 1.5.5.8 0 1.5-.3 2.1-.8l.5-.2c.4-3.3.8-6.6 1.3-10" fill="#d9d7d0"/><path d="m189.3 300.8v.7c0 1 .7 1.7 1.7 1.8h.1c1-.1 1.8-1 1.8-2 0-.2 0-.3.1-.4-.6.2-1.3.4-2 .4-.6 0-1.2-.2-1.7-.5" fill="#d9d7d0"/><path d="m171 287.4c.4 3.6.8 7.1 1.1 10.7h.5c.7.4 1.4.6 2.2.6.6 0 1.1-.1 1.3-.5.2-.2.4-.2.6-.2h.1c.3-3.3.8-6.5 1.2-9.7z" fill="#d9d7d0"/><path d="m172.7 300.2c0 .4.1.8.1 1.2s.8 2 1.7 2h.1c1 0 1.7-.7 1.8-1.7 0-.4.1-.8.1-1.2v-.3c-.5.3-1.1.4-1.7.4-.7 0-1.4-.2-2.1-.4" fill="#d9d7d0"/><path d="m177.2 308h-7.2l-.6.4v.4l-.7 3.5c0 .2 0 .3.1.4l.2.2h8.4c.2-.1.4-.3.4-.5v-3.9c0-.3-.2-.5-.6-.5" fill="#a8b0b2"/><path d="m195.2 308h-6.7c-.2 0-.5.1-.6.3v4c0 .2.2.4.4.5 0 .1.1.1.2.1h7.6l.4-.2c.1-.1.1-.3.1-.4l-.3-1.8-.3-2c-.1-.2-.1-.3-.3-.4h-.3" fill="#a8b0b2"/><path d="m176.7 298.2c-.2 0-.4 0-.6.2-.2.4-.7.5-1.3.5-.8 0-1.5-.2-2.2-.6h-.6c-.3 0-.6.2-.7.5s0 .7.2.9l.2.2 1 .4c.7.2 1.4.4 2.1.4.6 0 1.2-.1 1.7-.4.3-.1.6-.3.8-.6.2-.2.3-.6.2-.9s-.4-.5-.7-.5h-.1" fill="#a8b0b2"/><path d="m193.7 298.6-.5.2c-.6.5-1.3.8-2.1.8-.5 0-1.1-.2-1.5-.5l-.4-.2h-.1c-.4 0-.7.3-.8.7s.1.8.5 1h.5c.5.3 1.1.4 1.7.4.7 0 1.4-.1 2-.3l1.1-.7.3-.2c.6-.5 0-1.4-.7-1.4" fill="#a8b0b2"/><path d="m201.4 205.7h-35.5c0 5 .4 9.9 1.2 14.8.9 6.3 1.5 12.7 2.2 19 .3 4 .4 8 .1 12l13.1-9c.4-5.9-.1-11.8.1-17.8.1-2.9.2-5.9.2-8.9-.1-2.4.2-4.8 1-7v-.2h2c-.1.6-.1 1.1-.1 1.7v.3c-.8 10.1-1 20.2-.9 30.3l15.7-10.7c.1-.4.2-.8.4-1.1 1.8-5.7 3-11.7 3.4-17.7 0-1.3.1-2.7 0-4-.7-1-1.8-1.6-3-1.6" fill="#b7b6af"/><path d="m198.7 236.5-13.7 9.9c.1 3.8.2 7.7.4 11.6l11.9-9.3v-.3c-.3-4 .2-8.1 1.4-11.9" fill="#b7b6af"/><path d="m182.1 248.5-13.2 9.5v.7c-.3 3.1-.5 6.3-.6 9.4v3.2l13.1-10.2c.2-4.2.4-8.4.7-12.6" fill="#b7b6af"/><path d="m197.5 258.9-11.6 9.4c.2 3.9.4 7.7.4 11.6-.1 1.1-.1 2.2 0 3.3 2 .4 4.1.6 6.1.6 1.5 0 3-.1 4.5-.5.8-4 .1-9 .3-12.9v-.6c0-2.5.1-5 .2-7.5s.1-2.3.1-3.4" fill="#b7b6af"/><path d="m180.6 272.5-11.6 9.3c2.1 1.2 4.5 1.8 6.9 1.7l3-.2c.6-1.4 1-2.8 1.1-4.3z" fill="#b7b6af"/><path d="m168.9 281.9-1.2 1c-.2 1.3-.1 2.7.3 4l3 .5 7 1.1 2.4.4s1.3 0 .7-5.9l-2.2.4-3 .2c-2.4.1-4.8-.5-6.9-1.7z" fill="#b2b1ac"/><path d="m198.3 282.8c-.4.3-.9.4-1.4.5-1.5.4-3 .5-4.5.5-2 0-4.1-.2-6.1-.6l-1.2-.2c-.7 5.9.7 5.9.7 5.9h2.4l6.8-.2h3.3c.6-1.9.6-3.8 0-5.7" fill="#b2b1ac"/><path d="m249.1 205.7h-11.3l-22 15.9.5 9.8z" fill="#d9e6e7"/><path d="m231.7 205.7h-16.5v1.2l.2.3.3.3v.3l.4.7 1.5 2.9c.6 1.2.7 2.7.1 3.9-.1.1-.1.3-.2.4z" fill="#d9e6e7"/><path d="m211 205.7h-.5c-2.1 0-3.8 1.7-3.8 3.8v100.4l10.3-.4-2.3-59.8h.1l-.4-6.8-7.7 6.2v-10.2l7.3-5.7-.5-9.9-6.8 4.9v-4.7l6.6-4.7v-.5l-1.4-.6c-.6-.2-.5-1.1 0-1.1-.1-.2 0-.4.1-.6s.3-.3.5-.3h.4c-.3-.2-.4-.5-.3-.8h.1c-.6-.5-1-1.1-1.4-1.7-.7-1.4-.3-2.8 0-4.3l.3-1.1-.6-2.2" fill="#d9e6e7"/><path d="m256.2 209.3-39.4 31.7.4 8.5 8.8-.6h8.2c4.9 0 8.8 3.9 9.1 8.7l2.2 43.6c.2 3-1.1 5.8-3.5 7.6l14.2-.3v-78.1h-14.3c-1.6 0-2.9-1.3-2.9-2.9 0-.8.3-1.5.9-2s1.3-.8 2-.8h14.3z" fill="#d9e6e7"/><path d="m256.2 308.3-14.2.3c-.9.7-1.9 1.3-3 1.6v.8c1.3.4 2.2 1.5 2.2 2.9-.3 1.4-1.5 2.5-2.9 2.5s-2.7-1-2.9-2.5c0-1.4.9-2.5 2.2-2.9v-.5h-16.6v.6c1.3.3 2.1 1.5 2.1 2.8 0 .8-.3 1.5-.8 2.1s-1.3.8-2.1.8c-1.6 0-2.9-1.3-3-2.9 0-1.4 1-2.5 2.3-2.9v-.5h-2.3v-1l-10.3.4v9.7c0 1 .4 2 1.1 2.7s1.7 1.1 2.7 1.1h41.9c2.1 0 3.8-1.7 3.8-3.8z" fill="#d7e3e4"/><path d="m220.9 310.5h-1.5v.5h1.5z" fill="#aeb6b9"/><path d="m239 310.2-1.5.3v.5h1.5z" fill="#aeb6b9"/><path d="m215.3 206.9c0 .5 0 1 .1 1.5.1 1.3.3 2.8-.7 3.5l-.3.2c.6.1 1 .5 1 1.1l.2 3.9 2-1.4c.1-.1.1-.3.2-.4.6-1.2.5-2.7-.1-3.9l-1.5-2.9-.4-.7v-.3l-.3-.3c-.1-.1-.1-.2-.2-.3" fill="#d9d7d0"/><path d="m211.6 207.9-.3 1.1c-.3 1.5-.7 2.9 0 4.3.4.6.8 1.2 1.4 1.7h-.1c-.1.3 0 .6.3.8h.2v-2.6c0-.5.3-.9.7-1.1-.9-.2-1.3-1.9-1.7-3-.1-.4-.2-.9-.4-1.3" fill="#d9d7d0"/><path d="m212.5 215.7c-.2 0-.4.1-.5.3s-.1.4-.1.6c-.5 0-.6.9.1 1.1l1.3.6-.2-2.3-.4-.2h-.2" fill="#d9d7d0"/><path d="m215.2 205.7h-4.2l.6 2.2c.2.4.3.9.4 1.3.4 1.1.8 2.8 1.7 3h.7l.3-.2c1-.7.8-2.2.7-3.5s-.1-1-.2-1.5v-1.2" fill="#d9d7d0"/><path d="m214.2 212.1h-.5c-.4.2-.7.6-.7 1.1v2.6l.2 2.3v.5l2.3-1.7-.2-3.9c0-.6-.4-1-1-1.1h-.2" fill="#aeb6b9"/><path d="m215.8 221.6-2.3 1.7.4 9.9 2.4-1.8z" fill="#aeb6b9"/><path d="m216.7 241-2.3 1.9.3 6.8 2.4-.2z" fill="#aeb6b9"/><path d="m234.2 248.7h-1.9l3 61.8h-4l-3-61.7h-2.3l-8.8.6-2.4.2h-.1l2.3 59.8v1.1h20.4l1.5-.3c4-1.3 6.6-5 6.5-9.2l-2.2-43.6c-.3-4.8-4.2-8.7-9.1-8.7" fill="#b6cacf"/><path d="m219.7 273.2-.1-3.2 5.9-.1.1 3.2h-1.3l.5 15.3 1.1-.1.1 3.2-5.9.1v-3.1l1.2-.1-.4-15.2z" fill="#b6cacf"/><path d="m232.3 248.8-4 .1 3 61.6h3.9z" fill="#a0aeb4"/><path d="m225.5 269.9-5.9.1.1 3.2h1.2l-.1-1.8h3.5v1.7h1.3z" fill="#d6d8c6"/><path d="m225.9 288.3-1.1.1.1 1.6h-3.6v-1.6l-1.2.1v3.1l5.9-.1z" fill="#d6d8c6"/><path d="m224.3 271.4h-3.5l.1 1.8.4 15.2v1.6h3.6l-.1-1.6-.5-15.3z" fill="#d6c2bc"/><path d="m220.1 310.9h-.7c-1.3.4-2.3 1.5-2.3 2.9.1 1.6 1.4 2.9 3 2.9.8 0 1.5-.3 2.1-.8s.8-1.3.8-2.1c0-1.3-.9-2.5-2.2-2.8l-.7-.2" fill="#aeb6b9"/><path d="m238.3 310.9h-.8c-1.3.4-2.2 1.5-2.2 2.9.3 1.4 1.5 2.5 2.9 2.5s2.7-1 2.9-2.5c0-1.3-.9-2.4-2.2-2.8h-.7" fill="#aeb6b9"/><path d="m171.4 230.4h-22.3v-5.7h22.3c.8 0 1.5.3 2 .8s.9 1.3.9 2c0 1.6-1.3 2.9-2.9 2.9" fill="#19303b"/><path d="m171.4 304.7h-22.3v-5.7h22.3c1.1-.2 2.3.3 3 1.2.6 1 .6 2.2 0 3.2s-1.9 1.5-3 1.3" fill="#19303b"/><path d="m241.8 230.4h22.4v-5.7h-22.4c-1.5 0-2.8 1.3-2.8 2.8 0 1.6 1.2 2.8 2.8 2.9" fill="#19303b"/><path d="m241.8 304.7h22.4v-5.7h-22.4c-1.4.3-2.4 1.5-2.4 2.9s1 2.5 2.4 2.8" fill="#19303b"/><path d="m205.2 226.9-4.6 3.2c-.6 2-1.3 4.2-1.9 6.4l6.5-4.7z" fill="#e4f1f2"/><path d="m184.9 240.8-2.4 1.7v.2c-.2 1.9-.3 3.9-.4 5.8l2.9-2.1v-1.2c0-1.4 0-2.9-.1-4.4" fill="#e4f1f2"/><path d="m169.4 251.5-13.7 9.4v6.7l13.2-9.6c.2-2.2.4-4.3.5-6.5" fill="#e4f1f2"/><path d="m200.6 230.1-15.7 10.7c.1 1.5.1 3 .1 4.4v1.2l13.7-9.9c.6-2.2 1.3-4.4 1.9-6.4" fill="#dde7e7"/><path d="m182.5 242.5-13.1 9c-.1 2.2-.3 4.3-.5 6.5l13.2-9.5c.1-1.9.3-3.9.4-5.8z" fill="#dde7e7"/><path d="m237.8 205.7h-6.1l-14.1 10c-.3 1.1-1 2.1-1.9 2.8v3.1z" fill="#e4f1f2"/><path d="m213.2 218.8-6.5 4.7v4.7l6.8-4.9z" fill="#e4f1f2"/><path d="m217.6 215.7-2 1.4v1.4c.9-.7 1.6-1.7 1.9-2.8" fill="#e4eeef"/><path d="m213.2 218.8.2 4.5 2.4-1.7-.2-3.1v-1.4z" fill="#dbe6e8"/><path d="m205.2 242.5-7.9 6.2c.3 3.4.3 6.8.2 10.2l7.7-6.1z" fill="#e4f1f2"/><path d="m185.4 258-4 3.1c-.1.5-.1.9-.1 1.4-.2 3.3-.4 6.7-.7 10l5.3-4.2-.3-5.5c-.1-1.6-.1-3.2-.2-4.8" fill="#e4f1f2"/><path d="m168.3 271.3-12.6 9.9v11.3l12-9.6c0-.6.1-1.2.3-1.7l.9.7h.1c-.6-2-.8-4.1-.6-6.2 0-1.4 0-2.9-.1-4.4" fill="#e4f1f2"/><path d="m197.3 248.7-11.9 9.3c.1 1.6.1 3.2.2 4.8l.3 5.5 11.6-9.4c.1-3.4.1-6.8-.2-10.2" fill="#dde7e7"/><path d="m181.4 261.1-13.1 10.2c.1 1.4.1 2.9.1 4.3-.2 2.1 0 4.2.6 6.2l11.6-9.3c.3-3.3.5-6.7.7-10 0-.5 0-.9.1-1.4" fill="#dde7e7"/><path d="m168 281.2c-.2.5-.3 1.1-.3 1.7l1.2-1z" fill="#dbe5e5"/><path d="m252.4 205.7h-3.3l-32.8 25.7.5 9.6 39.4-31.7c-.1-2-1.8-3.6-3.8-3.6" fill="#e4f1f2"/><path d="m213.9 233.2-7.2 5.7v10.2l7.7-6.2z" fill="#e4f1f2"/><path d="m213.9 233.2.5 9.7 2.3-1.9-.4-9.6z" fill="#dbe6e8"/><path d="m455.9 347.8h-38.3v-144.9c0-7.2 5.9-13.1 13.1-13.1h12.2c7.2.1 13 5.9 13 13.1z" fill="#5bc5f2"/><path d="m354.4 313.4-.2-.2c-.2-.5-.6-.9-1.1-1s-1 .1-1.3.5c-.8-.3-1.6-.2-2.4.1-2.4 1.2-3.8 4.5-4.7 6.9s-1.8 7.8-2.7 11.6c-.4 1.3-.7 2.9 0 4.1.7 1.3 2.3 1.9 3.7 1.5 2.1-.5 3.8-1.9 4.8-3.8 1.3-2.1 2.4-4.2 3.4-6.4.4-.9.7-1.8.9-2.8.6-1 1.1-2 1.6-3 1.1-2.6-.5-5.4-2-7.5" fill="#55210e"/><path d="m368.5 313.4.2-.2c.2-.5.6-.9 1.1-1s1 .1 1.3.5c.8-.3 1.6-.2 2.3.1 2.5 1.2 3.9 4.5 4.8 6.9s1.8 7.8 2.7 11.6c.3 1.3.7 2.9 0 4.1-.7 1.3-2.3 1.9-3.7 1.5-2.1-.5-3.8-1.9-4.8-3.8-1.3-2.1-2.4-4.2-3.4-6.4-.4-.9-.7-1.8-.9-2.8-.6-1-1.1-2-1.6-3-1.1-2.6.5-5.4 2-7.5" fill="#55210e"/><path d="m379.3 254.2c.7-9.6 1.4-19.1 1-28.8-.1-2.1 0-4.3 0-6.5.2-2.7 0-5.4-.4-8l-4.8.7-4.7.9c-3.3.5-6.6.9-10 1.1-6.7.5-13.4-.2-19.8-1.9l-.2.6c-.7 2.5 0 5.1 0 7.6s-.3 7.1-.5 10.7.2 10.1.3 15.2c.1 8.6 1.8 14.5 2.8 23.1s-.3 18.3-.1 26.2c.1 4.1.2 8.1.5 12.2s-.6 6.7 2.3 8.9c1.8 1.1 3.9 1.6 6 1.3 2.6-.3 6.7-1.1 7.6-4 .3-1.1.4-2.3.4-3.4.8-13.5-.9-27.3-1.4-40.8 1.6-17.7-.2-26.4 0-40.7 0 .3 2.7.3 3 .3 1.5 4.2.7 10.1.9 14.5 0 8.7 1.5 16.8 2.2 25.3.2 2.8.1 5.6-.4 8.4-.5 2.7-.9 5.4-1 8.2 0 2.8.1 5.6.2 8.4.2 4.8.5 9.6.7 14.4s2.7 12.7 10 10.9c4.7-1.2 5.3-5.5 5.4-9.6.4-13.4 2.2-27.9-1.1-41 .2-1 .3-2 .3-3 .2-3.7.5-7.4.8-11.2" fill="#1c2b34"/><path d="m349.6 209.3-3.5 4.7s-1.6 4.6-5.7 5.8c.1-1.9.1-3.7 0-5.6-.1-1.6-.2-3.4 1.4-4.4s3.1-.8 5.8-.6h2" fill="#202529"/><path d="m380.3 218.9c-4.3-1.1-5.9-5.9-5.9-5.9l-1.6-2.1 1.4-.3v-.2c0-.5.1-.9.5-1.3s.8-.5 1.2-.5v-.5c.9 0 1.8.3 2.6.7.5.3.9.8 1.2 1.3.5 2.9.7 5.9.5 8.8" fill="#202529"/><path d="m355.5 215.8 2.7 8.2v-10.3z" fill="#202529"/><path d="m343.8 215.3s13.7 4.7 32.7.4l-2.6-1.7c-9.6.9-19.3.9-28.9 0-.2.6-.6 1-1.2 1.3" fill="#202529"/><path d="m373.5 111.6c.4-3.8-2-7.3-5.1-9.3-1.8-1.1-3.8-1.8-5.9-1.9-2 .1-3.9.6-5.8 1.2l-1 .2h-2.8c-2.3.1-4.4 1-6 2.6-1.7 2.1-2.5 4.8-2 7.4-.3 2.8.3 5.6 1.5 8.1.3 2.4.8 4.7 1.6 6.9h.3c3.6 2.2 7.6 3.5 11.9 2.7 2.3-.5 4.6-1.4 6.8-1.9l.2-.4c4-.4 5.6-4.5 6.1-8.2 1-2.4 1.1-5.1.2-7.6" fill="#754130"/><path d="m368.1 149.8c-.1-.8-.5-1.5-1.1-1.9v-.5c-.5-1.3-.9-2.7-1.2-4.1v-.4c-.3-1.6-.4-3.3-.5-4.9-.3-.1-.8 0-.8.4v.7c-.8-.4-1.7-.4-2.5 0-1.1.4-2.1.7-3.2 1-.4-.6-1.1-.9-1.8-1-.9-.8-2.3-1-3.4-.5 0 .5 0 1.1-.1 1.6-.1.7-.3 1.4-.4 2.2-.4 1.6-1 3.1-1.9 4.5-.1.4-.2.7-.2 1.1-.7.7-.9 1.6-.5 2.5v.6c-.1 4.5 1.1 11.4 6.4 12.5s8.7-3.9 11.9-7.1c.9-.9 1.4-2.2 1.3-3.4s-.7-2.5-1.7-3.3" fill="#f6af8c"/><path d="m365.7 143.3c-2.2.6-4.4.9-6.6.9-2.2-.2-4.3-.8-6.2-1.8.1-.8.3-1.5.4-2.2.1-.5.1-1.1.1-1.6 1.1-.5 2.5-.3 3.4.5.7.1 1.4.4 1.8 1 1.1-.3 2.1-.6 3.2-1 .8-.4 1.7-.4 2.5 0v-.7c0-.4.5-.5.8-.4.1 1.6.2 3.3.5 4.9z" fill="#f6af8c"/><path d="m367.7 134.8c.7-1.6 1.2-3.3 1.4-5.1.1-.5.1-1 .1-1.5.2-3.1.5-6.2.5-9.3s0-5.3-2.4-6.7c-1.8-.9-3.8-1.1-5.7-.7-3 .3-6.3-.9-9.2.4s-4 4.4-3.8 7.6c0 1.5.2 3.1.5 4.6.2 1.7-.1 3.3 0 5s2.3 8.5 3.8 10.3 5.1 2.7 8.1 2.6 4.4-2.1 5.5-4.3c.5-.9.9-1.9 1.2-2.9" fill="#f6af8c"/><path d="m350.5 128.8v-1.5c-.1-.8-.3-1.7-.7-2.4.4 0 .8-.4.5-.8s-1.3-2.1-2.4-1.6-.8 2.1-.7 3 .7 4.6 3 4.4c.2 0 .4-.2.5-.5s-.1-.5-.3-.6" fill="#f6ae86"/><path d="m370.3 123.1-.7-.3c-.7-.1-1.1.8-1.3 1.5-.1.3 0 .7.3.9l-.5 2.5c-.1.3 0 .7.3.9h.1l-.4.7c-.4.6.4 1.4.8.9.9-1.2 1.6-2.5 1.9-4v-.2c.2-.9.3-2.6-.6-3" fill="#f6ae86"/><path d="m379.9 210.9-1.9 1.9-.4.4c-2.6 2.2-6.1 2.9-9.4 3.2-2.1.2-4.3.3-6.4.2h-2.4c-6-.4-11.9-1.7-17.5-4l-.6-.2-.9-.5c0-5 .6-10 .8-15 .3-7-.6-14-1.5-20.9l-.2-.7c.4-.9.7-1.8 1-2.8-.1-.2-.2-.5-.2-.7 0-3.1-.3-6.2-.6-9.2-.6-2.9-.9-5.9-.9-8.9 0-.5.2-.9.6-1.2-.3-.5-.4-1-.5-1.5-.4-3.2 5.8-4.4 11.9-4.9.2.4.5.8.8 1.2h.5l.2.7c.3.7 2.5 2.1 3 3 1 1.6 1.7 3.4 2.3 5.2.2.8 1.9 5.5 1.5 6.2v-.2c1.7-2.4 1.1-7 2.2-9.9.2-.5 0-.8.2-1.3.3-.5.7-1.1 1.2-1.5.5-.3 2.3-.5 2.5-.8.6-.8 1-1.6 1.4-2.5 5.2.5 12.4 1.7 11.4 4.6-1.2 3.2-1.7 6.5-1.7 9.9.6.3.9.8 1 1.4.2 1.6 1.1 3 1.3 4.6 0 1.6-.4 3.1-1 4.5-.2.4-.4.8-.8 1-.2 13.4 1.1 25.5 3 38.8" fill="#c18f00"/><path d="m351.6 143.8 4.3 7.5-4.9 3.6-1.2-8.9z" fill="#d5ae55"/><path d="m366.7 143.9-5.5 6.6 4.3 4.5 2.4-8.7z" fill="#d5ae55"/><path d="m330.8 232.8c-.3-.2-.7-.6-.9-.9h-.1v-.9h.8v.2c.2.3.3.6.4.9l.3 1.3z" fill="#f6ae86"/><path d="m333.9 235c.2-.5 0-1-.4-1.3.7-1.3.8-2.8.3-4.2l.2-.6c.1-1.6-.4-3.1-1.2-4.4-.3-.6-.7-1-1.3-1.3-.6-.4-1.3-.1-2-.4h-.6c-.5-.5-1.1-.7-1.8-.6s-1.2.5-1.5 1.1c-1.1 2-1.1 4.7-.9 6.9.1 1.3.5 2.5 1.3 3.6.4 1.1 1.2 2 2.3 2.6l.3.2c1.3 1.4 4.1.8 5.9.4s.8-2.4-.6-2.1" fill="#f6af8c"/><path d="m335.7 195.3c0-.6 0-1.2.1-1.8.1-1 .2-2 .4-3 .4-2.1 1-4.1 1.8-6.1 1.1-3.3 2.2-6.5 3.1-9.9-.1-8.8-.5-17.6-.7-26.5-2.7.3-4.5 2.4-5.7 4.9s-3.4 9.5-4.3 12.1c-1.4 3.8-2.3 7.7-2.7 11.7-.1 1.7-.1 3.3-.2 5-.4 4.7-1.8 9.2-2.6 13.9 3.6.3 7.2.6 10.8-.3" fill="#c18f00"/><path d="m324.3 201.6c-.1 7.4 1.3 14.3 1.3 21.7 1.5.3 1.6.9 3.2.7.5-.2 1-.2 1.5-.1l1.7-.2c.2-5.8 2.3-12.4 2.7-18.1.3-1.4.5-2.7.6-4.1-3.7.4-7.3.4-11 .1" fill="#f6af8c"/><path d="m387.5 233.2.3-1.3.4-.9v-.2h.8v.8l-.9.9z" fill="#f6ae86"/><path d="m384.4 237.1c1.7.4 4.5 1 5.8-.4l.3-.2c1.1-.6 1.9-1.5 2.3-2.6.8-1.1 1.2-2.3 1.3-3.6.2-2.2.2-4.9-.9-6.9-.3-.6-.8-1-1.5-1.1-.6-.1-1.3.1-1.7.6h-.7c-.7.3-1.3 0-2 .4-.6.3-1 .7-1.3 1.3-.8 1.3-1.2 2.9-1.2 4.4l.2.6c-.5 1.4-.4 2.9.4 4.2-.4.3-.6.8-.5 1.3-1.3-.3-1.9 1.8-.5 2.1" fill="#f6af8c"/><path d="m394.5 199.6c0 7.4-1.3 16.3-1.3 23.7-1.5.3-1.6.9-3.2.7-.5-.2-1-.2-1.5-.1l-1.6-.2c-.3-5.8-2.3-12.4-2.8-18.1-.3-1.4-.5-2.7-.6-4.1 3.7.5 7.3-1.6 11-1.9" fill="#f6af8c"/><path d="m370.1 109.9h-.3c.3-.5.2-1.1-.1-1.6v-.2c-.2-2.3-3.7-2.5-3.9-.3h-.4c-2.6.2-5.2.5-7.7.9-2.1.1-4.1.4-6.1.9-.4-.3-1-.3-1.4-.2-.5.2-.8.6-1 1.1-.1.4-.1.7-.1 1.1-.2.2-.4.6-.5.9v.7l-.6.6c-.8 1 3.2 3.3 3.7 3.5 2.2 1 4.7 1.4 7.1 1.2 2.2-.1 4.3-.8 6.2-1.8 1.7-1 3.1-3 5.2-2.8s2.5-3.8 0-3.9" fill="#754130"/><path d="m382.1 190.5c.2 1 .4 2 .5 3v1c3.5-.1 7-.5 10.4-1.1-.9-3.9-1.6-7.8-2.1-11.7-.1-1.7-.1-3.3-.2-5-.4-4-1.4-7.9-2.7-11.7-.9-2.6-2-8.4-4.3-12.1s-3.4-5-6.6-4.9c-.5 0-1 .3-1.2.8s-.2 1 0 1.4c-.9.9-1.4 2.1-1.6 3.3-.8 3.4-2.7 7.2-1.4 10.7.2.6.6 1.2 1.1 1.5s1.2.4 1.9.2h.2c.4.4.6 1 .8 1.5 0 .8.1 1.7.3 2.5-.6.3-.9.9-.8 1.6 1.1 4.4 2.6 8.7 4 13 .7 2 1.2 4 1.7 6.1" fill="#c18f00"/><path d="m360.9 170.6c.3 2.6.9 45 .9 46h-2.4c-1.1-21.7-2.7-44.2 2.1-65.6l2 2c.7.7-1.9 8.4-2.2 9.5-.6 2.7-.7 5.5-.4 8.1" fill="#d5ae55"/><path d="m324.3 194.5s10.3 1.4 12.2.7c1.7 4.1-1.3 9.6-1.3 9.6l-10.9-.8s-1.4-7.2 0-9.5" fill="#d5ae55"/><path d="m393.4 192.8s1.5 5.6 1.4 8c-5.1 0-12.1 2.2-12.1 2.2s-2.1-8.6-1.2-9.6 10.2.4 11.9-.6" fill="#d5ae55"/><path d="m448.1 347.8h-22.6v-158.4c0-1.3 1.1-2.4 2.4-2.4h17.8c1.3 0 2.4 1.1 2.4 2.4z" fill="#92d2f4"/><path d="m324.4 205.7h-13.5c-1 0-1.8 1.7-1.8 3.8v98.6l23.8.4v-55.7l-23.8 39.7v-11.3l23.8-38.7v-5.1l-1.7.2c-.7 0-1.3-.1-1.9-.4l-20.2 30.4v-6.7l17.9-25.5c-.4-.5-.8-1-1-1.6-.8-1.1-1.2-2.3-1.3-3.6-.2-2.2-.2-4.9.9-6.9 0-6-.9-11.7-1.2-17.6" fill="#d9e6e7"/><path d="m309.1 308.1v11.5c0 2.1.8 3.8 1.8 3.8h20.2c1 0 1.8-1.7 1.8-3.8v-11.1z" fill="#d7e3e4"/><path d="m332.9 216.6c-.4 2.3-.7 4.6-.9 6.9.3.3.6.6.8 1h.1z" fill="#d9e6e7"/><path d="m330.1 230.9h-.3v.1.4z" fill="#d9e6e7"/><path d="m325.6 223.3c-1.1 2-1.1 4.7-.9 6.9.1 1.3.5 2.5 1.3 3.6.2.6.6 1.1 1 1.6l2.8-4v-.4h.4l2.7-4v-2.3h-.1c-.2-.4-.5-.7-.8-1v.2l-1.3.2h-.8l-1.1.2h-.7c-1 0-1.2-.4-2.5-.7" fill="#d9d7d0"/><path d="m332.9 231.8-3.6 5.4c.6.3 1.2.4 1.9.4l1.7-.2z" fill="#d9d7d0"/><path d="m331.1 205.7h-6.7c.3 5.9 1.2 11.6 1.2 17.6 1.3.3 1.5.7 2.5.7h.7l1.1-.2h.8l1.3-.2v-.2c.2-2.3.5-4.6.9-6.9v-7.1c0-2.1-.8-3.8-1.8-3.7" fill="#d9d7d0"/><path d="m406.5 205.7h-4.9l-8.3 13.7c0 1.3-.1 2.6-.1 3.9.7 1.4 1 2.9 1 4.4z" fill="#d9e6e7"/><path d="m398.9 205.7h-4.6l-.6 8.5z" fill="#d9e6e7"/><path d="m409.6 209.3-21.6 39.8v-10.2l.8-1.4h-.8v73.1l21.6 1.4z" fill="#d9e6e7"/><path d="m388 310.7v8.9c0 2.1.7 3.8 1.6 3.8h18.4c.9 0 1.6-1.7 1.6-3.8v-7.5z" fill="#d7e3e4"/><path d="m388.2 230.8v.2c-.1.1-.2.3-.2.5v1.4h.1l.9-.9v-1h-.8z" fill="#d9e6e7"/><path d="m393.2 223.3c-1.2.3-1.5.7-2.4.7h-.3l-2.5 4.2v3.3c0-.2.1-.4.2-.5v-.2h.8v.8l-.9.9h-.1v4.7h.8l5.4-9.8c0-1.5-.3-3-1-4.4" fill="#d9d7d0"/><path d="m394.3 205.7h-4.7c-.9 0-1.6 1.7-1.6 3.8v14l5.7-9.3z" fill="#d9d7d0"/><path d="m393.3 219.4-2.8 4.6h.3c.9 0 1.2-.4 2.4-.7s.1-2.6.1-3.9" fill="#d9d7d0"/><path d="m324.9 230.4h-22.4v-5.7h22.4c1.5 0 2.8 1.3 2.8 2.8 0 1.6-1.2 2.8-2.8 2.9" fill="#19303b"/><path d="m324.9 304.7h-22.4v-5.7h22.4c1.4.3 2.4 1.5 2.4 2.9s-1 2.5-2.4 2.8" fill="#19303b"/><path d="m395.3 304.7h22.3v-5.7h-22.3c-1.1-.2-2.3.3-3 1.2-.6 1-.6 2.2 0 3.2s1.9 1.5 3 1.3" fill="#19303b"/><path d="m330.6 230.8h-.4l-.4.5v.4h.1c.2.3.6.7.9.9l.5.4-.3-1.3c-.1-.3-.2-.6-.4-.9z" fill="#e4f1f2"/><path d="m327 235.4-17.9 25.5v6.7l20.2-30.4c-.3-.1-.5-.3-.7-.5l-.3-.2c-.5-.2-1-.6-1.3-1" fill="#e4f1f2"/><path d="m332.9 226.9-2.7 4h.4v.2c.2.3.3.6.4.9l.3 1.3-.5-.4c-.3-.2-.7-.6-.9-.9h-.1v-.4l-2.8 4c.3.4.8.8 1.3 1l.3.2c.2.2.4.4.7.5l3.6-5.4z" fill="#e4eeef"/><path d="m401.6 205.7h-2.7l-5.3 8.5-.3 5.2z" fill="#e4f1f2"/><path d="m388.9 223.8h-.9v4.3l2.5-4.2h-.5z" fill="#e4eeef"/><path d="m393.7 214.2-5.7 9.3v.4h.9l1.1.2h.5l2.8-4.6c.1-1.7.2-3.4.4-5.3" fill="#e4eeef"/><path d="m332.9 242.5-23.8 38.7v11.3l23.8-39.7z" fill="#e4f1f2"/><path d="m408 205.7h-1.5l-12.3 22c0 .8 0 1.7-.1 2.5-.1 1.3-.5 2.5-1.3 3.6-.4 1.1-1.2 2-2.3 2.6l-.3.2c-.4.4-.9.7-1.4.8l-.8 1.4v10.2l21.6-39.8c0-2-.7-3.6-1.6-3.6" fill="#e4f1f2"/><path d="m394.2 227.7-5.4 9.8c.5-.1 1-.4 1.4-.8l.3-.2c1.1-.6 1.9-1.5 2.3-2.6.8-1.1 1.2-2.3 1.3-3.6.1-.8.2-1.7.1-2.6" fill="#e4eeef"/><path d="m395.3 230.4h22.3v-5.7h-22.3c-.8 0-1.5.3-2 .8s-.9 1.3-.9 2c0 1.6 1.3 2.9 2.9 2.9" fill="#19303b"/><path d="m68.8 262.6c-3.5-.2-6.5 2.4-6.8 5.9-.2 2.6 1.2 5 3.5 6.2s5.1.8 7.1-.9 2.7-4.4 1.9-6.9-3.1-4.1-5.7-4.3" fill="#87cac0"/><g fill="#87cac0" transform="translate(41 235)"><path d="m29 13.6c-7.1-.6-14.1 2.5-18.4 8.2-.8.8-1 2-.6 3.1s1.3 1.8 2.5 1.9 2.2-.4 2.8-1.3c3.2-4.1 8.2-6.3 13.3-5.9 4.7.3 9 2.9 11.6 6.9.5.9 1.5 1.4 2.5 1.4.6 0 1.2-.2 1.7-.5 1.4-.9 1.8-2.8.9-4.2-3.6-5.6-9.7-9.1-16.3-9.6"/><path d="m30 .6c-9.9-.7-21.2 3.8-28.7 11.5-1.2 1.2-1.1 3.1.1 4.3s3.1 1.1 4.3-.1c6.3-6.5 15.6-10.3 23.8-9.7s15.3 4.3 20.2 10.7c.6.9 1.7 1.3 2.8 1.2s2-.8 2.4-1.8.3-2.1-.4-3c-5.9-7.9-14.2-12.3-24.5-13.1"/></g><path d="m670.4 332c7 4.3 15.1 6.6 23.3 6.7 13.3 0 24.6-6.6 25.9-6.9.9 1.5 1.7 3.1 2.4 4.7v.3l-21.4 25.3c-3.6.6-7.3.6-11 .1l-21.5-25.7s-.1-.1-.1-.1 0-.1.1-.1c0-.1 2.1-4.4 2.3-4.3" fill="#2f3145"/><path d="m669.1 337.7c.4-.7.8-1.4 1.3-2.1 7 4.4 15.1 6.7 23.3 6.8 13.3 0 24.6-6.7 25.9-6.9.5.8 1 1.6 1.4 2.4l1-1.1v-.3c-.7-1.6-1.5-3.2-2.4-4.7-1.3.3-12.6 6.9-25.9 6.9-8.2-.1-16.3-2.4-23.3-6.7-.2-.1-2.3 4.2-2.3 4.2s-.1.1-.1.1 0 .1.1.1z" fill="#352b2e"/><path d="m723.8 360.1c8.2-4 26.3-14.7 33.9-30.8 1.1-2.3-1.6-11.7-10.2-8.7-5.4 1.9-33.3 11.3-37.8 17.3-7.3 9.7-7.6 18.5-9.1 24.2 4.1 1.8 19 0 23.2-2" fill="#2f3145"/><g transform="translate(630 319)"><path d="m35.3 41.2c-8.2-4-32.2-21.3-33.3-30.9-.3-2.5-2.7-10 7.6-9.7 5.4 1.9 35.4 12.8 40.4 18.3s8.5 18.9 9.2 24.2c-4.1 1.8-19.7 0-23.9-1.9" fill="#2f3145"/><path d="m90.3 36.6c-6.6-.3-13.2-.9-19.7-2-9.4-3.8-60.5-33.6-60.5-33.6-8.3-2.2-11 6.3-8.5 10.8 6.6 11.5 12.8 18.2 36.1 21.2 6.9 1 20 4.9 27.1 7.5.5 1.6 2.2 3.5 6.1 3.9 2 .2 13.8 4.4 19.2 3.9 9.2-.8 9.1-4.9 9.2-6.7s-2.2-4.7-9-5" fill="#f5a26c"/><path d="m90.3 36.6c-6.6-.3-13.2-.9-19.7-2l-.8-.3-6.3 5.7 1.3.5c.5 1.6 2.2 3.5 6.1 3.9 2 .2 13.8 4.4 19.2 3.9 9.2-.8 9.1-4.9 9.2-6.7s-2.2-4.7-9-5" fill="#538fcc"/><path d="m90.1 48.3c9.2-.8 9.1-4.9 9.2-6.7s-1.8-4-6.9-4.8c-1.2 1.1-3.2 4.4-3.4 8.9-10.3.4-19.4-3.3-24.2-5.1.5 1.6 2.2 3.4 6.1 3.8 2 .2 13.8 4.4 19.2 3.9" fill="#d8eefc"/></g><path d="m710.9 354.4c-1.2 1.8-1.8 3.9-1.8 6v.5c0 .3.2.5.5.5s.5-.2.5-.5v-.5c0-2 .5-3.9 1.6-5.5.1-.3 0-.5-.2-.7-.1-.1-.2-.1-.3 0s-.3.1-.3.2" fill="#e5e6ea"/><path d="m713.2 354.6c-1.1 1.8-1.7 3.9-1.7 6v.5c0 .2.3.4.5.4s.5-.2.5-.4v-.5c0-2 .5-3.9 1.6-5.5.1-.2 0-.5-.2-.6-.1-.1-.2-.1-.4-.1s-.2.1-.3.2" fill="#e5e6ea"/><path d="m693.7 350.2 1.6.9z" fill="#2e2f41"/><path d="m694.9 359.6c.1.3.2.6.3.9z" fill="#386b88"/><g transform="translate(628 319)"><path d="m66.9 40.6.3.9h.1s0 0 0 .1l1-.5z" fill="#cdd6de"/><path d="m11.6.6s28.2 16.3 46.7 26.2c0 2.7-.2 5.4-.7 8.1-1.9 3-4 5.9-6.3 8.6-6.7-4.3-9.8-6.3-13.9-7.5-27-8.2-29.4-12.1-36-23.6-2.5-4.4 1.9-14 10.2-11.8" fill="#363850"/></g><path d="m630.8 322.6c-.2.1-.3.3-.4.5l-.3.5h-.1c-.1.2-.2.3-.2.4v.2c-.1.1-.1.3-.2.4v.2c0 .1-.1.2-.1.4h-.1c0 .2-.1.3-.1.4v.2c0 .2 0 .3-.1.4v.2c0 .1 0 .3-.1.4v1.9c0 .1 0 .2.1.3v.8c0 .1 0 .2.1.3v.2c0 .1.1.2.1.3h.1c0 .1.1.2.1.3v.2c6.6 11.5 9 15.4 36 23.6l2.8 1c5.7-.2 11.4-.7 17.1-1.5l.3-.6c-8.1-2.7-46.8-16.3-54.3-30.4-.2-.3-.4-.6-.5-.9" fill="#34354b"/><g transform="translate(660 319)"><path d="m25.6 34.9c0-.1 0-.3.1-.4-4.2 1-10.6 2.4-16.1 2.4h-1.4c3.9 1.9 7.6 4.1 11.1 6.5 2.3-2.7 4.4-5.6 6.3-8.5" fill="#373536"/><path d="m89.6 1s-52.4 31.9-61.2 33.9c-6.7 1.2-13.4 1.9-20.2 2.1-6.8.1-7.7 3.3-7.6 5.1s3.8 5.8 6.5 6.2c8.7 1.1 19-2.8 21.1-3 4.3-.5 6.6-3.6 6.8-5.3 6.6-2.7 21-5.9 27.1-6.6 23.4-2.9 29.4-10.8 36-22.3 2.5-4.5-.1-12.3-8.5-10.1" fill="#f5a26c"/><path d="m89.6 1s-28.2 16.4-46.7 26.2c0 2.7.2 5.4.7 8.1.7 1.5 4.7 6.6 6.4 8.7 6.6-4.4 9.8-6.3 13.8-7.6 27-8.2 29.5-12 36-23.6 2.5-4.4-1.8-14-10.2-11.8" fill="#363850"/></g><path d="m758.5 323-.6.9c-7.5 14.2-46.1 27.7-54.3 30.4h.1c.6 1.5 4.6 6.6 6.3 8.7 6.6-4.4 9.8-6.3 13.8-7.6 27-8.2 29.5-12 36-23.6.1-.1.2-.3.2-.4v-.2c0-.1.1-.2.1-.3v-.2c0-.1 0-.2.1-.3v-.2c0-.1 0-.2.1-.3v-1.9c0-.1 0-.3-.1-.4v-.2c0-.1 0-.2-.1-.3v-.2c0-.2-.1-.3-.1-.4v-.2c0-.2 0-.3-.1-.4v-.2c-.1-.1-.2-.3-.2-.4v-.2c0-.1-.1-.2-.2-.4l-.3-.5-.3-.4h-.1l-.3-.5" fill="#34354b"/><path d="m693.7 338.7c-1.5 0-2.9 0-4.4-.2v3.6c0 .5.4.9.9.9h7.1c.5 0 .9-.4.9-.9v-3.6c-1.5.2-3 .2-4.5.2" fill="#373536"/><g transform="translate(676 226)"><path d="m21.3 112.5v2.6c0 .3-.3.5-.6.5h-5.9c-.3 0-.6-.2-.6-.5v-2.6h-.9v3.6c0 .5.4.9.9.9h7.1c.5 0 .9-.4.9-.9v-3.6z" fill="#d5dbd9"/><path d="m10 39c-2.7-1.3-7.3-6.6-8.7-17.8-1.1-8.3-2.1-17.7 8-19.5 6.3-2.1 21.7-3.8 24.5 6.9 1.4 12.6-2.8 30.9-9 30.3-.2 4-7 3-8.7 3.4-4.3 1.2-6.1-3.3-6.1-3.3" fill="#55210e"/></g><path d="m661.8 330.5 8.2 7.7h47l8.4-7.8c1.1-1 1.7-2.4 1.7-3.9h-67.1c0 1.5.7 2.9 1.8 4" fill="#d2d4d7"/><path d="m660 326.6 12.5 10.2h43.6l11-10.2z" fill="#94969c"/><path d="m740.2 309.4c-.9-5.5-6.7-31.1-15.2-37.4-11.9-9.1-36.1-12-61.4-.8-8.8 4.3-12.9 33-14.1 39.3-2.1 11.7 15.9 15.6 18.5 16.1 5.3 1 6.9-1.6 7.7-3.6s-9.7-9.4-10.4-13.2c2.9-14.2.8-13.6 0-19.6.9 4.1-.4 5.8 3.6 13.9.8 1.6 2.3 22.6 1.5 27.9-.4 2.1 49.7 1.9 49.2-.2-1.2-5.1-.2-27.3.3-28.7 2.4-5.8 2.6-11.7 2.9-13.4-.6 3.4-2.5 3.9 0 18.2-2.9 2.8-10.1 12.7-8.9 16.2s3 5 6.1 2.5 22.1-5.3 20.2-17.2" fill="#816394"/><path d="m703.5 272.8c.9-.8 1.3-1.9 1.1-3.1-.3-2.5-.9-7.3-.4-10.3s-20.4-1.7-20.4-1.7-.1 7.8-.7 11.7c-.2 1 .1 2 .7 2.8 1.7 2.1 5.2 4.1 9.8 4.4 3.7.2 7.3-1.2 9.9-3.8" fill="#e59767"/><path d="m707.6 249.5c-.6 0-1.2 1.1-1.4 2.4s.1 2.5.7 2.7l1.1-4.7c-.1-.2-.2-.4-.4-.4z" fill="#3f2e16"/><path d="m679.5 249.5h-.2l.9 5c.6-.2.9-1.3.7-2.7s-.8-2.4-1.4-2.3" fill="#3f2e16"/><path d="m708.5 247.9c.7 0 1.3.5 1.5 1.2.5 2.1-.4 6.4-1.5 7.4-.7.5-1.5.9-2.3 1.1z" fill="#f5a26c"/><path d="m679 247.9c-.7.1-1.4.5-1.7 1.2-.5 1.9 0 5.6 1.4 6.9.6.5 1.3.9 2 1.1z" fill="#f5a26c"/><path d="m705 244.3c1.5.7.9 8.2.9 10s.7.4 1.1.4c0 3.1-.3 6.1-.9 9.1-.5 1.7-8 7.3-12.4 7.3s-12.4-6.6-12.8-8.3-.5-4.3-.8-8.1c.6 0 1.1.1 1.1-.5s-1.1-10.1 3.3-12.2c3 2.1 17.3 3.1 20.5 2.3" fill="#f5a26c"/><path d="m665.6 291.4v-.2" fill="#eeecec"/><path d="m668.9 304.2c.5 2.7.9 5.4 1 8.2-.1-2.8-.5-5.5-1-8.2" fill="#eeecec"/><path d="m665.4 289.7c.1.1 0 .3-.1.5.2 0 .2.4.3 1.2v.2c.2 4.4 1.3 8.7 3.3 12.6.5 2.7.9 5.4 1 8.2 2.3-4.5 6.3-6.4 12.1-7.1-3.5-.5-13.1-1.2-16.6-15.6" fill="#603a75"/><path d="m719.7 304.2c-.2 1.6-.3 4.5-.5 7.9.2-3.4.3-6.3.5-7.9" fill="#eeecec"/><path d="m722.8 289.7c-2.9 13.4-12.3 15.1-19.2 15.9 2.6.4 12.6 2.8 15.4 15.7 0-3.1.1-6.3.2-9.2s.3-6.3.5-7.9c.1-.6.2-.9.2-1.1 2.4-5.8 2.6-11.7 2.9-13.4" fill="#603a75"/><path d="m672.5 339.1h42.2c2.2 0 4-1.8 4-4h-50.2c0 2.2 1.8 4 4 4" fill="#d2d4d7"/><path d="m718.7 335.1h-50.2l-7.6-27.9c-.2-.7-.1-1.5.4-2.1s1.2-1 1.9-1h60.8c.8 0 1.5.4 1.9 1s.6 1.4.4 2.1z" fill="#d2d4d7"/><g transform="translate(660 320)"><path d="m38 2.6c0 1.3-2.1 2.4-4.6 2.4s-4.7-1.1-4.7-2.4 2.1-2.5 4.7-2.5 4.6 1.1 4.6 2.5" fill="#e5e6ea"/><path d="m29.5 33.6-1.1.3c-6.7 1.2-13.4 1.9-20.2 2.1-6.8.1-7.7 3.3-7.6 5.1s3.8 5.8 6.5 6.2c8.7 1.1 19-2.8 21.1-3 4.3-.5 6.6-3.6 6.8-5.3 0 0-4.1 1.1-3.2-.9.3-.9.3-1.9-.1-2.7s-1.2-1.5-2.2-1.8z" fill="#538fcc"/><path d="m9.9 45.4c1-3.1.6-6.5-1-9.4h-.7c-6.8.1-7.7 3.3-7.6 5.1s3.8 5.8 6.5 6.2c8.7 1.1 19-2.8 21.1-3 1.8-.2 3.4-.9 4.8-2.1-5.8 1.6-23.2 5.9-23.1 3.2" fill="#d8eefc"/></g><path d="m739.5 259.4c-2.2-.1-4.1 1.5-4.3 3.7s1.5 4.1 3.7 4.3 4.1-1.5 4.3-3.7c.1-2.2-1.5-4.1-3.7-4.3" fill="#87cac0"/><path d="m740.2 250.6c-4.5-.3-8.8 1.6-11.6 5.1-.6.8-.5 2 .3 2.7.8.6 2 .5 2.7-.3 2-2.6 5.1-4 8.3-3.8 3 .3 5.7 1.9 7.4 4.4.3.6.9.9 1.6.9.4 0 .7-.1 1-.3.9-.6 1.1-1.7.6-2.6-2.3-3.6-6.1-5.8-10.3-6.1" fill="#87cac0"/><path d="m740.9 242.4c-6.3-.5-13.4 2.4-18.1 7.2-.4.4-.6.8-.6 1.4s.2 1 .6 1.4c.8.7 1.9.7 2.7 0 4-4.1 9.9-6.5 15.1-6.1 5 .2 9.7 2.7 12.7 6.7.3.5.9.8 1.5.8.4 0 .8-.1 1.1-.4.4-.3.7-.7.8-1.2s-.1-1-.4-1.4c-3.6-5.1-9.3-8.1-15.4-8.4" fill="#87cac0"/><path d="m1020.7 110.2 35 34.5 51-41-33-23.5z" fill="#d43900"/><g fill="#fbead9"><path d="m486.7 160h-7.5l2-26.9h7c3.6 0 6.5 1 8.7 3.1s3.3 4.9 3.3 8.5c0 5-1.2 8.8-3.7 11.4s-5.8 3.9-9.8 3.9zm1-24.3h-3.7l-1.6 21.6h4.6c2.9 0 5.2-1 7.1-3s2.8-5 2.8-9.1c0-3-.8-5.3-2.5-7-1.6-1.7-3.9-2.5-6.7-2.5z"/><path d="m508.4 139.7-1.8 20.3h-2.9l1.8-19.9zm-2.7-6.1c0-.6.2-1.1.6-1.5s.9-.6 1.5-.6c.5 0 .9.1 1.2.4s.4.7.4 1.2-.2 1-.5 1.4c-.4.4-.8.6-1.5.6-.5 0-.8-.1-1.1-.4-.5-.2-.6-.6-.6-1.1z"/><path d="m524.4 139.9 2.5-.4-1.8 20.7c-.2 2.8-1.1 4.7-2.7 5.9-1.5 1.2-3.3 1.8-5.4 1.8-1 0-2 0-2.9-.1s-1.9-.2-2.9-.4v-2.8c1 .3 2 .5 2.9.6s1.8.2 2.7.2c1.6 0 2.8-.4 3.7-1.2s1.5-2.1 1.7-3.9l.4-3.6h-.1c-.9 1.3-1.9 2.2-2.9 2.8s-2.1.9-3.2.9c-1.3 0-2.4-.5-3.3-1.6-.8-1.1-1.3-2.8-1.3-5.4 0-4.5 1-7.9 2.9-10.2 2-2.4 4.2-3.6 6.6-3.6.6 0 1.1 0 1.6.1.5 0 1 .1 1.5.2zm-1.8 13.8 1-11.4c-.4-.1-.8-.1-1.2-.2-.5 0-.9-.1-1.4-.1-1.5 0-3 .9-4.3 2.8s-2 4.7-2 8.3c0 1.7.2 2.8.7 3.5s1.1 1 1.7 1c.7 0 1.5-.3 2.5-1 1.1-.6 2-1.6 3-2.9z"/><path d="m535.1 139.7-1.8 20.3h-2.9l1.8-19.9zm-2.7-6.1c0-.6.2-1.1.6-1.5s.9-.6 1.5-.6c.5 0 .9.1 1.2.4s.4.7.4 1.2-.2 1-.5 1.4c-.4.4-.8.6-1.5.6-.5 0-.8-.1-1.1-.4-.5-.2-.6-.6-.6-1.1z"/><path d="m538.6 142.3v-2.3h2.3l.4-4.3 2.9-.5-.5 4.8h4.1l-.2 2.3h-4.1l-1.2 11.8c-.1 1.4 0 2.4.3 2.9s.8.8 1.5.8c.5 0 1 0 1.4-.1s.9-.2 1.5-.4v2.6c-.7.2-1.3.4-1.8.5s-1.2.1-2 .1c-1.4 0-2.4-.5-3.1-1.4s-.9-2.5-.7-4.7l1.2-12h-2z"/><path d="m562.3 139.9 2.5-.4-1.8 20.5h-2.8l.3-3.3h-.1c-.9 1.3-1.9 2.2-2.9 2.8s-2.1.9-3.2.9c-1.3 0-2.4-.5-3.3-1.6-.8-1.1-1.3-2.8-1.3-5.4 0-4.5 1-7.9 2.9-10.2 2-2.4 4.2-3.6 6.6-3.6.6 0 1.1 0 1.6.1.6 0 1 .1 1.5.2zm-1.7 13.8 1-11.4c-.4-.1-.8-.1-1.2-.2-.5 0-.9-.1-1.4-.1-1.5 0-3 .9-4.3 2.8s-2 4.7-2 8.3c0 1.7.2 2.8.7 3.5s1.1 1 1.7 1c.7 0 1.5-.3 2.5-1 1-.6 2-1.6 3-2.9z"/><path d="m573.8 131.2-2.6 28.7h-2.9l2.6-28.4z"/><path d="m595.5 150v-2.7h7.6l-.9 12.3c-1.3.2-2.5.4-3.7.5-1.1.1-2.4.2-3.6.2-3.3 0-5.9-1-8-3s-3.2-4.8-3.2-8.4c0-5.3 1.4-9.3 4.2-12s6-4.1 9.8-4.1c1.1 0 2.2 0 3.2.1s2 .2 3 .4l-.2 2.8c-1.1-.2-2.1-.4-3.1-.5-.9-.1-1.9-.1-3-.1-2.8 0-5.3 1.1-7.3 3.3-2.1 2.2-3.1 5.3-3.1 9.2 0 3.1.8 5.5 2.4 7.1s3.5 2.4 5.8 2.4h2.1c.6 0 1.3-.1 2-.2l.5-7.3z"/><path d="m613.6 160.3c-2.1 0-3.7-.6-4.9-1.9s-1.8-3.3-1.8-6.3c0-4.1.9-7.2 2.6-9.4 1.8-2.2 3.8-3.3 6.2-3.3 2.1 0 3.7.7 4.9 2.1s1.8 3.4 1.8 6.2c0 4-.9 7.1-2.7 9.3-1.7 2.2-3.8 3.3-6.1 3.3zm-3.7-8.5c0 2.3.4 3.9 1.1 4.7.8.8 1.7 1.3 2.8 1.3 1.3 0 2.6-.8 3.8-2.3 1.2-1.6 1.8-4 1.8-7.3 0-2.1-.4-3.7-1.1-4.6-.7-1-1.7-1.4-3-1.4s-2.5.8-3.7 2.4c-1.1 1.6-1.7 4-1.7 7.2z"/><path d="m628.6 160-3.5-20h3.1l2.7 17.4h.2l1.1-2.3c1-2.1 1.9-4.3 2.6-6.6.7-2.4 1.3-5.2 1.8-8.5h3c-.5 3.2-1.2 6-2.1 8.6-.9 2.5-1.9 5-3.2 7.3l-2.2 4.2h-3.5z"/><path d="m640.7 152.9c0-4.5.9-7.9 2.7-10.1s3.7-3.3 5.8-3.3c1.7 0 3 .4 3.9 1.2s1.4 2 1.4 3.4c0 2.3-1 4.2-2.9 5.6s-4.6 2.2-7.9 2.2c0 2.2.4 3.8 1.1 4.5.7.8 1.7 1.2 3 1.2.9 0 1.8-.1 2.7-.4.9-.2 1.7-.6 2.6-1.1v2.7c-1 .5-1.9.9-2.8 1.1s-2 .3-3.3.3c-2 0-3.5-.6-4.6-1.8-1.2-1-1.7-2.9-1.7-5.5zm10.7-8.4c0-.8-.2-1.4-.7-1.8-.4-.4-1.1-.6-1.8-.6-1 0-2 .6-3.1 1.9-1 1.2-1.7 3.2-2 5.7 2.4 0 4.3-.5 5.6-1.5 1.4-1 2-2.2 2-3.7z"/><path d="m667.4 139.8-.4 2.9c-.2 0-.4 0-.6-.1-.2 0-.4 0-.6 0-.8 0-1.6.4-2.4 1.1s-1.7 1.7-2.4 3l-1.1 13.3h-2.9l1.7-19.9 2.9-.4-.4 3.8h.2c.9-1.6 1.7-2.7 2.4-3.2s1.5-.7 2.3-.7c.2 0 .5 0 .7.1s.4 0 .6.1z"/><path d="m678.6 160 1.3-13.2c.2-1.6 0-2.8-.3-3.4-.4-.6-.9-.9-1.6-.9-.6 0-1.4.3-2.3.8s-2 1.3-3.3 2.4l-1.4 14.3h-2.9l1.8-19.9 2.9-.4-.3 3.1h.1c1.2-1.2 2.3-2 3.2-2.5 1-.5 1.9-.7 2.9-.7 1.4 0 2.5.5 3.3 1.5s1 2.8.8 5.2l-1.3 13.7z"/><path d="m686.7 160 1.8-19.9 2.9-.4-.3 3.1h.1c1.2-1.2 2.2-2 3.1-2.5s1.8-.7 2.8-.7c1.1 0 2 .3 2.6.8.6.6 1 1.4 1.3 2.5h.1c1.2-1.2 2.2-2 3.2-2.5s2-.8 3-.8c1.4 0 2.4.5 3.2 1.6.8 1 1 2.8.8 5.2l-1.3 13.6h-2.9l1.3-13.2c.2-1.6 0-2.8-.3-3.4-.4-.6-.9-.9-1.5-.9s-1.4.2-2.2.7-1.8 1.2-3 2.2l-1.4 14.7h-3l1.3-13.2c.2-1.6.1-2.8-.2-3.4s-.8-.9-1.6-.9c-.6 0-1.4.3-2.3.8s-1.9 1.3-3.2 2.4l-1.3 14.4h-3z"/><path d="m714.9 152.9c0-4.5.9-7.9 2.7-10.1s3.7-3.3 5.8-3.3c1.7 0 3 .4 3.9 1.2s1.4 2 1.4 3.4c0 2.3-1 4.2-2.9 5.6s-4.6 2.2-7.9 2.2c0 2.2.4 3.8 1.1 4.5.7.8 1.7 1.2 3 1.2.9 0 1.8-.1 2.7-.4.9-.2 1.7-.6 2.6-1.1v2.7c-1 .5-1.9.9-2.8 1.1s-2 .3-3.3.3c-2 0-3.5-.6-4.6-1.8-1.1-1-1.7-2.9-1.7-5.5zm10.7-8.4c0-.8-.2-1.4-.7-1.8-.4-.4-1.1-.6-1.8-.6-1 0-2 .6-3.1 1.9-1 1.2-1.7 3.2-2 5.7 2.4 0 4.3-.5 5.6-1.5 1.4-1 2-2.2 2-3.7z"/><path d="m741.6 160 1.3-13.2c.2-1.6 0-2.8-.3-3.4-.4-.6-.9-.9-1.6-.9-.6 0-1.4.3-2.3.8s-2 1.3-3.3 2.4l-1.3 14.4h-3.1l1.8-19.9 2.9-.4-.3 3.1h.1c1.2-1.2 2.3-2 3.2-2.5 1-.5 1.9-.7 2.9-.7 1.4 0 2.5.5 3.3 1.5s1 2.8.8 5.2l-1.3 13.7h-2.8z"/><path d="m749.6 142.3v-2.3h2.3l.4-4.3 2.9-.5-.5 4.8h4.1l-.2 2.3h-4.1l-1.2 11.8c-.1 1.4 0 2.4.3 2.9s.8.8 1.5.8c.5 0 1 0 1.4-.1s.9-.2 1.5-.4v2.6c-.7.2-1.3.4-1.8.5s-1.2.1-2 .1c-1.4 0-2.4-.5-3.1-1.4s-.9-2.5-.7-4.7l1.2-12h-2z"/><path d="m780.3 133.1 5.3 26.9h-3.4l-1.3-7h-9.8l-2.4 7h-3.3l10.3-26.9zm-2.5 2.4h-.3l-5.3 14.8h8.4z"/><path d="m801.4 139.9 2.5-.4-1.8 20.7c-.2 2.8-1.1 4.7-2.7 5.9-1.5 1.2-3.3 1.8-5.4 1.8-1 0-2 0-2.9-.1s-1.9-.2-2.9-.4v-2.8c1 .3 2 .5 2.9.6s1.8.2 2.7.2c1.6 0 2.8-.4 3.7-1.2s1.5-2.1 1.7-3.9l.4-3.6h-.1c-.9 1.3-1.9 2.2-2.9 2.8s-2.1.9-3.2.9c-1.3 0-2.4-.5-3.3-1.6-.8-1.1-1.3-2.8-1.3-5.4 0-4.5 1-7.9 2.9-10.2s4.2-3.6 6.6-3.6c.6 0 1.1 0 1.6.1.6 0 1.1.1 1.5.2zm-1.7 13.8 1-11.4c-.4-.1-.8-.1-1.2-.2s-.9-.1-1.4-.1c-1.5 0-3 .9-4.3 2.8s-2 4.7-2 8.3c0 1.7.2 2.8.7 3.5s1.1 1 1.7 1c.7 0 1.5-.3 2.5-1 1.1-.6 2-1.6 3-2.9z"/><path d="m807.1 152.9c0-4.5.9-7.9 2.7-10.1s3.7-3.3 5.8-3.3c1.7 0 3 .4 3.9 1.2s1.4 2 1.4 3.4c0 2.3-1 4.2-2.9 5.6s-4.6 2.2-7.9 2.2c0 2.2.4 3.8 1.1 4.5.7.8 1.7 1.2 3 1.2.9 0 1.8-.1 2.7-.4.9-.2 1.7-.6 2.6-1.1v2.7c-1 .5-1.9.9-2.8 1.1s-2 .3-3.3.3c-2 0-3.5-.6-4.6-1.8-1.2-1-1.7-2.9-1.7-5.5zm10.7-8.4c0-.8-.2-1.4-.7-1.8-.4-.4-1.1-.6-1.8-.6-1 0-2 .6-3.1 1.9-1 1.2-1.7 3.2-2 5.7 2.4 0 4.3-.5 5.6-1.5s2-2.2 2-3.7z"/><path d="m833.7 160 1.3-13.2c.2-1.6 0-2.8-.3-3.4-.4-.6-.9-.9-1.6-.9-.6 0-1.4.3-2.3.8s-2 1.3-3.3 2.4l-1.3 14.4h-2.9l1.8-19.9 2.9-.4-.3 3.1h.1c1.2-1.2 2.3-2 3.2-2.5 1-.5 1.9-.7 2.9-.7 1.4 0 2.5.5 3.3 1.5s1 2.8.8 5.2l-1.3 13.7h-3z"/><path d="m857.5 131.2-2.6 28.7h-2.9l.3-3.3h-.1c-.9 1.3-1.9 2.2-2.9 2.8s-2.1.9-3.2.9c-1.3 0-2.4-.5-3.3-1.6-.8-1.1-1.3-2.8-1.3-5.4 0-4.5 1-7.9 2.9-10.2s4.2-3.6 6.6-3.6c.5 0 1 0 1.4.1s.8.1 1.2.2l.7-8.2zm-5 22.5 1.1-11.4c-.4-.1-.8-.1-1.3-.2s-.9-.1-1.4-.1c-1.5 0-3 .9-4.3 2.8s-2 4.7-2 8.3c0 1.7.2 2.8.7 3.5s1.1 1 1.7 1c.7 0 1.5-.3 2.5-1 1.1-.6 2-1.6 3-2.9z"/><path d="m872.6 139.9 2.5-.4-1.8 20.5h-2.8l.3-3.3h-.1c-.9 1.3-1.9 2.2-2.9 2.8s-2.1.9-3.2.9c-1.3 0-2.4-.5-3.3-1.6-.8-1.1-1.3-2.8-1.3-5.4 0-4.5 1-7.9 2.9-10.2s4.2-3.6 6.6-3.6c.6 0 1.1 0 1.6.1.6 0 1.1.1 1.5.2zm-1.7 13.8 1-11.4c-.4-.1-.8-.1-1.2-.2s-.9-.1-1.4-.1c-1.5 0-3 .9-4.3 2.8s-2 4.7-2 8.3c0 1.7.2 2.8.7 3.5s1.1 1 1.7 1c.7 0 1.5-.3 2.5-1 1.1-.6 2-1.6 3-2.9z"/></g></svg>
