<svg height="93" viewBox="0 0 624 93" width="624" xmlns="http://www.w3.org/2000/svg"><g fill="none" fill-rule="evenodd"><g fill="#e46b2b"><path d="m10.695 43.058h-.372v49.291h-10.323v-61.01h17.484l17.95 49.292h.372v-49.292h10.323v61.01h-17.485z"/><path d="m60.821 31.339h11.16v51.803h21.112v9.207h-32.272z"/><path d="m127.965 83.142h6.417c12.277 0 20.275-6.603 20.275-22.507 0-13.206-7.998-20.088-21.112-20.088h-5.58zm-11.16 9.207v-61.01h17.484c20.647 0 32.086 10.324 32.086 28.738 0 22.042-12.462 32.272-32.458 32.272z"/><path d="m177.626 92.349h11.16v-61.01h-11.16z"/><path d="m228.405 61.844h20.181v29.389c-6.045 1.209-11.718 1.767-18.321 1.767-17.95 0-30.226-9.858-30.226-29.389 0-22.413 14.415-32.922 33.016-32.922 5.58 0 9.486.372 13.764 1.209l-.837 9.486c-5.022-.744-8.462-.93-13.299-.93-12.183 0-20.926 7.347-20.926 22.042 0 14.229 8.556 21.297 18.972 21.297 2.791 0 4.372-.093 7.069-.372v-12.462h-9.393z"/><path d="m261.14 92.349h11.16v-61.01h-11.16z"/><path d="m302.803 52.172c-3.534 0-6.789.744-10.231 2.418v32.179c2.977.465 5.395.558 8.185.558 8.928 0 15.996-5.766 15.996-18.322 0-11.904-5.394-16.833-13.95-16.833zm-3.07 40.735c-4.463 0-8.37-.186-13.298-1.023v-63.985l6.137-.559v22.042c4.186-2.139 7.72-2.976 12.091-2.976 10.974 0 18.601 7.161 18.601 21.949 0 15.624-9.766 24.552-23.531 24.552z"/><path d="m359.903 63.983c0-8.556-3.719-12.462-10.508-12.462-5.767 0-10.789 4.557-11.719 12.462zm-10.23-17.856c10.789 0 17.019 6.231 17.019 18.135 0 1.489 0 3.162-.092 5.023h-29.203c-.186 12.369 6.138 17.856 14.695 17.856 5.114 0 9.392-.93 14.043-3.069l-.093 5.766c-4.743 2.139-8.742 3.069-14.602 3.069-12.183 0-20.367-6.975-20.367-23.157 0-15.532 8.463-23.623 18.6-23.623z"/><path d="m372.644 46.964h5.487v-7.905l6.139-1.023v8.928h11.904v5.208h-11.904v26.506c0 5.952 2.975 8.556 7.161 8.556 2.325 0 3.906-.186 6.23-.651v5.301c-2.79.744-4.929 1.023-7.626 1.023-6.324 0-11.904-3.069-11.904-13.95v-26.785h-5.487z"/><path d="m431.327 63.983c0-8.556-3.721-12.462-10.51-12.462-5.765 0-10.788 4.557-11.717 12.462zm-10.23-17.856c10.788 0 17.019 6.231 17.019 18.135 0 1.489 0 3.162-.093 5.023h-29.203c-.185 12.369 6.139 17.856 14.695 17.856 5.115 0 9.393-.93 14.043-3.069l-.093 5.766c-4.743 2.139-8.742 3.069-14.602 3.069-12.182 0-20.367-6.975-20.367-23.157 0-15.532 8.463-23.623 18.601-23.623z"/></g><g transform="translate(448)"><path d="m20.434 53.288c-2.046-.558-3.348-.744-5.208-.744-2.976 0-5.394 1.488-8.835 5.022v34.783h-6.139v-45.106l6.046-.558v5.301c3.534-3.999 6.51-5.58 9.765-5.58 1.953 0 3.254.186 5.208.651z" fill="#e46b2b"/><g fill="#80c9e4"><path d="m112.314 63.748c-8.09-.613-15.14 5.417-15.76 13.473-.619 8.053 5.44 15.082 13.53 15.696 8.08.615 15.14-5.417 15.75-13.474.62-8.057-5.439-15.08-13.52-15.695"/><path d="m115.014 31.184c-16.44-1.255-32.42 5.828-42.69 18.943-2.37 3.031-1.83 7.41 1.22 9.774 3.04 2.37 7.44 1.826 9.81-1.205 7.38-9.423 18.8-14.504 30.6-13.62 11.02.836 20.84 6.688 26.941 16.056 1.339 2.055 3.589 3.174 5.879 3.174 1.3 0 2.62-.361 3.8-1.124 3.24-2.092 4.16-6.408 2.05-9.634-8.49-13.045-22.2-21.196-37.61-22.364"/><path d="m117.314 1.15c-22.99-1.748-49.05 8.703-66.4 26.61-2.68 2.769-2.6 7.18.18 9.851 2.77 2.671 7.21 2.592 9.88-.175 14.58-15.044 36.27-23.816 55.27-22.393 19.74 1.498 35.42 9.848 46.63 24.825 1.37 1.835 3.48 2.803 5.62 2.803 1.45 0 2.91-.449 4.16-1.38 3.1-2.301 3.75-6.665 1.43-9.751-13.73-18.346-32.83-28.573-56.77-30.39"/></g></g></g></svg>