<svg height="400" viewBox="0 0 1200 400" width="1200" xmlns="http://www.w3.org/2000/svg" xmlns:xlink="http://www.w3.org/1999/xlink"><linearGradient id="a" x1="-.033956%" x2="99.966044%" y1="50.021008%" y2="50.021008%"><stop offset="0" stop-color="#e8e8e8"/><stop offset="1" stop-color="#b0b0b0"/></linearGradient><linearGradient id="b"><stop offset="0" stop-color="#fff"/><stop offset=".64" stop-color="#c6c0b9"/></linearGradient><linearGradient id="c" x1="72.804037%" x2="43.008322%" xlink:href="#b" y1="83.404188%" y2=".120211%"/><linearGradient id="d" x1="550.513085%" x2="650.214472%" xlink:href="#b" y1="50%" y2="50%"/><linearGradient id="e" x1="43.378378%" x2="86.756757%" y1="57.350513%" y2="-12.319355%"><stop offset="0" stop-color="#fff"/><stop offset=".64" stop-color="#bbaea6"/></linearGradient><g fill="none" fill-rule="evenodd"><path d="m0 351h1201v-351h-1201z" fill="#eef7fb"/><g fill-rule="nonzero" transform="translate(416 25)"><path d="m236.457711 304.898879c-37.586634-.596671-70.00262 6.56338-72.587944 16.110116s26.052112 17.90013 63.638745 18.695692c37.586634.795561 70.002619-6.563381 72.587943-16.110117s-26.052111-17.90013-63.638744-18.695691" fill="#93d5f6"/><g transform="translate(93.071664)"><path d="m59.0647099 163.090072c0-61.258222 39.9730864-110.7819148 89.2931131-110.7819148 49.320028 0 89.491985 49.5236928 89.491985 110.7819148s-40.171957 110.781915-89.491985 110.781915c-49.3200267 0-89.2931131-49.523693-89.2931131-110.781915z" fill="#bce2f9"/><g fill="#026a9d" transform="translate(.397742 63.644906)"><path d="m1.19322646 15.7123362c1.34077957-.5186627 2.74566402-.8531914 4.17629262-.9944517h1.59096861v13.9223233h-2.78419507v-10.9389683l-2.98306616.596671z"/><path d="m9.94355385 21.6790462c0-4.5744777 2.58532405-7.5578326 5.56839015-7.756723 2.9830662-.1988903 5.3695191 2.1877937 5.3695191 6.7622713s-2.585324 7.5578326-5.5683902 7.7567229c-2.9830661.1988904-5.36951905-1.9889033-5.36951905-6.7622712zm5.56839015 3.9778066c1.5909686 0 2.7841951-1.790013 2.7841951-4.773368 0-2.9833549-1.1932265-4.3755873-2.9830662-4.1766969-1.7898397.1988903-2.784195 1.7900129-2.784195 4.7733679s1.1932264 4.3755873 2.9830661 4.176697z"/><path d="m22.0746895 14.5189942c1.3407796-.5186627 2.7456641-.8531914 4.1762927-.9944516h1.5909686v14.1212135h-2.7841951v-10.9389682c-1.0107869-.0634618-2.0242166.0716752-2.9830662.3977806z"/><path d="m30.8250169 14.1212136c1.3808486-.6098577 2.8663912-.9475138 4.3751637-.9944517h1.5909686v14.1212135h-2.784195v-11.1378585l-3.1819373.3977806z"/><path d="m39.7742154 20.0879235c0-4.5744776 2.7841951-7.7567229 5.9661323-7.9556133 3.1819372-.1988903 5.5683902 2.1877937 5.5683902 6.9611616 0 4.773368-2.7841951 7.756723-5.9661323 7.9556133-3.1819373.1988903-5.5683902-1.9889033-5.5683902-6.9611616zm5.7672612 4.176697c1.7898397-.1988904 2.9830662-1.9889033 2.9830662-4.9722583s-1.1932265-4.3755873-2.9830662-4.3755873-2.9830661 1.9889033-2.9830661 4.9722583c0 2.9833549 1.1932264 4.3755873 2.9830661 4.3755873z"/><path d="m52.5019643 12.9278716c1.4018967-.5816946 2.8720826-.9826932 4.3751637-1.193342h1.5909686v14.3201039h-2.784195v-11.336749l-3.1819373.3977807z"/><path d="m61.6500339 12.3312006c1.450094-.6114363 3.0009948-.9486213 4.5740347-.9944517h1.5909687v14.5189942h-2.9830662v-11.5356392l-3.1819372.596671z"/><path d="m70.9969745 18.4968008c0-4.7733679 2.7841951-7.9556132 6.1650034-8.1545036 3.3808083-.1988903 5.7672612 2.1877937 5.7672612 6.9611617 0 4.7733679-2.7841951 7.9556132-6.1650034 8.1545036-3.3808083.1988903-5.7672612-1.9889034-5.7672612-6.9611617zm5.9661323 4.176697c1.7898397-.1988903 3.1819372-1.9889033 3.1819372-5.1711486s-1.1932264-4.3755873-3.1819372-4.3755873-2.9830662 1.9889033-2.9830662 4.9722583 1.1932265 4.5744776 2.9830662 4.5744776z"/><path d="m84.1224656 11.1378586c1.5088831-.6740502 3.124369-1.0779608 4.7729058-1.19334201h1.5909686v14.51899421h-2.9830661v-11.5356392c-1.1526506.0053163-2.2959614.2070965-3.3808083.596671z"/><path d="m93.6682773 10.5411876 4.7729058-1.19334201h1.5909689v14.71788451h-2.9830664v-11.7345295l-3.3808083.596671z"/><path d="m103.611831 16.7067879c0-4.773368 2.784195-7.9556133 6.363875-8.15450364 3.579679-.19889033 5.966132 2.18779364 5.966132 6.96116164 0 4.7733679-2.983066 8.1545036-6.363875 8.3533939-3.380808.1988903-5.966132-1.9889033-5.966132-7.1600519zm6.165003 4.3755873c1.78984-.1988904 3.181938-1.9889034 3.181938-5.1711487s-1.193227-4.5744776-3.181938-4.5744776c-1.98871 0-3.181937 1.9889033-3.181937 5.1711486s1.193227 4.5744777 3.181937 4.5744777z"/><path d="m117.333935 9.14895526c1.518861-.61375081 3.135338-.95054947 4.772906-.99445166h1.78984v14.9167749h-3.181937v-11.7345296l-3.380809.3977807z"/><path d="m127.47636 15.5134459c0-4.9722583 2.983067-8.15450363 6.562746-8.35339396s6.165003 2.18779365 6.165003 7.16005196c0 4.9722583-2.983066 8.1545036-6.562745 8.3533939-3.57968.1988903-6.165004-1.9889033-6.165004-7.1600519zm6.363875 4.3755873c1.78984-.1988904 3.380808-1.9889033 3.380808-5.370039 0-3.3811356-1.392097-4.57447761-3.380808-4.57447761s-3.380808 2.18779361-3.380808 5.17114861 1.392097 4.773368 3.380808 4.773368z"/><path d="m141.795078 14.7178845c0-4.97225825 2.983066-8.15450355 6.562745-8.35339388 3.57968-.19889034 6.363875 2.18779364 6.363875 7.16005198 0 4.9722582-2.983066 8.3533939-6.562746 8.5522842-3.579679.1988904-6.363874-2.1877936-6.363874-7.3589423zm6.562745 4.3755873c1.78984-.1988903 3.181938-1.9889033 3.181938-5.3700389 0-3.3811357-1.193227-4.57447764-3.380809-4.57447764-2.187581 0-3.181937 2.18779364-3.181937 5.37003894s1.193227 4.5744776 3.380808 4.5744776z"/><path d="m156.113795 6.96116161c1.674739-.58565318 3.408656-.98582674 5.170648-1.19334199h1.78984v15.31455558h-3.380808v-12.13231027l-3.57968.59667099z"/><path d="m166.653963 6.36449062c1.674738-.58565319 3.408655-.98582674 5.170648-1.193342h1.789839v15.31455558h-3.380808v-12.13231027c-1.219066-.01369041-2.430949.18830967-3.579679.596671z"/><path d="m177.393001 12.9278716c0-5.17114866 3.181937-8.5522843 6.960487-8.75117463 3.778551-.19889034 6.761617 2.38668398 6.761617 7.35894223 0 4.9722583-3.380808 8.5522843-7.159359 8.7511746-3.77855.1988904-6.562745-2.1877936-6.562745-7.3589422zm6.761616 4.3755873c1.988711-.1988904 3.57968-1.9889034 3.57968-5.370039 0-3.38113564-1.392098-4.77336796-3.57968-4.77336796s-3.380808 2.18779365-3.380808 5.37003896c0 3.1822453 1.392098 4.773368 3.380808 4.773368z"/><path d="m192.706074 12.1323102c0-5.17114859 3.181937-8.55228423 7.159358-8.75117456 3.977422-.19889033 6.761617 2.18779365 6.761617 7.35894226 0 5.1711486-3.380808 8.5522843-7.159359 8.7511746-3.77855.1988903-6.761616-1.9889033-6.761616-7.3589423zm6.960487 4.3755873c1.988711 0 3.57968-1.9889033 3.57968-5.3700389 0-3.38113566-1.392098-4.97225832-3.57968-4.77336798-2.187582.19889033-3.579679 2.18779364-3.579679 5.37003898 0 3.1822453 1.392097 4.9722583 3.579679 4.7733679z"/><path d="m208.019147 3.97780663 5.369519-1.19334199h1.98871v15.91122656h-3.579679v-12.53009092l-3.77855.596671z"/><path d="m219.354798 10.7400779c0-5.37003894 3.380808-8.75117458 7.35823-8.95006491 3.977421-.19889034 6.960487 2.38668398 6.960487 7.5578326 0 5.17114861-3.380808 8.75117461-7.358229 8.95006491-3.977422.1988903-6.960488-2.1877936-6.960488-7.5578326zm7.159359 4.3755873c2.187582 0 3.77855-1.9889033 3.77855-5.56892928 0-3.58002597-1.590968-4.77336796-3.77855-4.77336796s-3.778551 2.18779365-3.778551 5.56892924c0 3.3811357 1.590969 4.9722583 3.778551 4.773368z"/><path d="m235.264484 2.38668398c1.810467-.58707917 3.676355-.98695101 5.56839-1.19334199h1.988711v15.91122651h-3.579679v-12.53009087l-3.977422.39778066z"/><path d="m246.997878 9.14895526c0-5.17114863 3.380808-8.7511746 7.557101-8.95006493 4.176292-.19889033 7.358229 2.38668398 7.358229 7.75672294.164011 2.21678293-.562189 4.40752293-2.017856 6.08730113s-3.520739 2.7100494-5.738116 2.8627638c-4.375163.1988903-7.159358-2.1877937-7.159358-7.75672294zm7.358229 4.57447764c2.187582 0 3.778551-2.1877937 3.778551-5.5689293 0-3.38113564-1.392098-4.97225829-3.778551-4.77336796-2.386452.19889033-3.77855 2.18779365-3.77855 5.56892929 0 3.38113567 1.590969 4.97225827 3.77855 4.77336797z"/><path d="m1.39209754 47.7336796c0-4.5744776 2.585324-7.5578326 5.56839015-7.7567229 2.98306616-.1988904 5.36951911 2.1877936 5.36951911 6.7622713 0 4.5744776-2.58532403 7.5578326-5.56839018 7.5578326-2.98306616 0-5.36951908-1.9889034-5.36951908-6.563381zm5.36951908 3.9778066c1.59096861 0 2.78419508-1.7900129 2.78419508-4.7733679s-.99435539-4.3755873-2.78419508-4.176697c-1.7898397.1988904-2.78419508 1.790013-2.78419508 4.5744776 0 2.7844647 1.19322646 4.3755873 2.78419508 4.3755873z"/><path d="m13.3243622 40.772518c1.3477139-.4960274 2.7496731-.8298596 4.1762926-.9944517h1.5909686v13.9223233h-2.7841951v-11.1378586l-2.9830661.3977807z"/><path d="m22.0746895 40.3747373c1.3219806-.5515918 2.744126-.8225028 4.1762927-.7955613h1.5909686v14.1212136h-2.7841951v-10.9389683c-1.0107869-.0634618-2.0242166.0716753-2.9830662.3977807z"/><path d="m31.023888 46.5403376c0-4.5744776 2.585324-7.5578326 5.7672612-7.7567229 3.1819373-.1988903 5.5683902 2.1877936 5.5683902 6.9611616s-2.7841951 7.5578326-5.9661323 7.7567229c-3.1819372.1988904-5.3695191-1.9889033-5.3695191-6.9611616zm5.5683902 4.176697c1.5909686 0 2.9830661-1.790013 2.9830661-4.773368 0-2.9833549-1.1932264-4.3755873-2.9830661-4.3755873s-2.9830662 1.790013-2.9830662 4.773368 1.1932265 4.3755873 2.9830662 4.3755873z"/><path d="m43.3538948 39.579176c1.4152451-.4988257 2.8833591-.8325203 4.3751637-.9944516h1.5909686v14.3201038h-2.7841951v-11.1378585c-1.076091-.0645622-2.1548473.0702954-3.1819372.3977806z"/><path d="m52.7008354 45.9436666c0-4.7733679 2.585324-7.9556132 5.9661323-7.9556132s5.5683902 2.1877936 5.5683902 6.9611616c0 4.7733679-2.7841951 7.7567229-5.9661323 7.9556132-3.1819373.1988904-5.5683902-2.1877936-5.5683902-6.9611616zm5.7672612 4.176697c1.5909687-.1988903 2.9830662-1.9889033 2.9830662-4.9722583s-1.1932265-4.5744776-2.9830662-4.3755873-2.9830661 1.790013-2.9830661 4.773368c0 2.9833549 1.1932264 4.5744776 2.9830661 4.5744776z"/><path d="m65.6274554 45.3469956c0-4.7733679 2.7841951-7.7567229 5.9661323-7.9556132 3.1819372-.1988904 5.7672613 2.3866839 5.7672613 7.1600519s-2.7841951 7.7567229-5.9661324 7.9556133c-3.1819372.1988903-5.7672612-2.1877937-5.7672612-7.160052zm5.9661323 4.176697c1.5909686 0 2.9830662-1.790013 2.9830662-4.9722583s-1.1932265-4.3755873-3.1819373-4.3755873c-1.9887107 0-2.9830661 1.9889033-2.9830661 4.9722583s1.1932264 4.5744776 3.1819372 4.3755873z"/><path d="m78.5540754 38.1869437c1.5188609-.6137508 3.135338-.9505495 4.7729059-.9944517h1.5909686v14.5189942h-2.9830662v-11.5356392l-3.3808083.3977807z"/><path d="m88.2987582 44.5514343c0-4.773368 2.7841951-7.9556133 6.1650034-8.1545036s5.9661324 2.386684 5.9661324 7.1600519c0 4.773368-2.7841952 8.1545036-6.1650035 8.1545036s-5.9661323-2.1877936-5.9661323-7.1600519zm6.1650034 4.3755873c1.5909686-.1988903 2.9830661-1.9889033 2.9830661-5.1711486s-1.1932264-4.5744777-3.1819372-4.3755873c-1.9887108.1988903-2.9830662 1.9889033-2.9830662 4.9722583 0 2.9833549 1.1932265 4.5744776 3.1819373 4.5744776z"/><path d="m101.821991 44.1536536c0-4.9722583 2.983067-8.1545036 6.363875-8.1545036s6.165003 2.1877937 6.165003 7.160052-2.983066 7.9556133-6.363874 8.1545036c-3.380809.1988903-6.165004-2.1877937-6.165004-7.160052zm6.165004 4.176697c1.988711 0 3.380808-1.790013 3.380808-4.9722583s-1.392097-4.5744776-3.380808-4.5744776-3.181937 1.9889033-3.181937 4.9722583 1.392097 4.7733679 3.181937 4.5744776z"/><path d="m115.742967 43.5569826c0-4.7733679 2.983066-7.9556132 6.562745-8.1545036 3.57968-.1988903 6.165004 2.386684 6.165004 7.160052 0 4.7733679-3.181937 8.1545036-6.562746 8.3533939-3.380808.1988904-6.165003-2.1877936-6.165003-7.3589423zm6.363874 4.3755873c1.78984 0 3.181938-1.7900129 3.181938-5.1711486 0-3.3811356-1.193227-4.5744776-3.181938-4.3755873-1.98871.1988904-3.380808 1.9889033-3.380808 4.9722583s1.392098 4.773368 3.380808 4.5744776z"/><path d="m129.862813 43.159202c0-4.9722583 2.983066-8.1545036 6.562746-8.3533939 3.579679-.1988904 6.363874 2.3866839 6.363874 7.3589422s-3.181937 8.1545036-6.761616 8.353394c-3.57968.1988903-6.165004-2.1877937-6.165004-7.3589423zm6.363875 4.3755873c1.988711 0 3.380808-1.9889033 3.380808-5.1711486 0-3.1822454-1.392097-4.773368-3.380808-4.5744777-1.988711.1988904-3.380809 1.9889033-3.380809 4.9722583s1.392098 4.773368 3.380809 4.773368z"/><path d="m143.98266 35.6013694c1.592492-.598505 3.271612-.9343615 4.971777-.9944517h1.789839v15.1156652h-3.181937v-11.9334199c-1.216122.0212239-2.422411.2222916-3.579679.596671z"/><path d="m154.323956 35.2035887c1.656357-.6163992 3.403833-.9524848 5.170648-.9944516h1.789839v15.3145555h-3.380808v-12.1323102c-1.217524.0053386-2.426236.2068102-3.579679.596671z"/><path d="m164.864123 41.96586c0-5.1711486 3.181937-8.3533939 6.960488-8.5522843 3.77855-.1988903 6.562745 2.386684 6.562745 7.5578326 0 5.1711487-3.181937 8.353394-6.960488 8.353394-3.77855 0-6.562745-2.1877937-6.562745-7.3589423zm6.761616 4.3755873c1.988711 0 3.57968-1.9889033 3.57968-5.370039 0-3.3811356-1.392098-4.5744776-3.57968-4.5744776-2.187581 0-3.380808 1.9889033-3.380808 5.1711486s1.392098 4.9722583 3.380808 4.773368z"/><path d="m179.779454 34.2091371c1.66103-.5995547 3.40574-.9351084 5.170648-.9944517h1.98871v15.5134459h-3.380808v-12.3312006l-3.77855.596671z"/><path d="m190.717363 40.9714083c0-5.1711486 3.181937-8.5522842 7.159359-8.5522842 3.977421 0 6.761616 2.386684 6.761616 7.5578326s-3.380808 8.5522842-7.159359 8.5522842c-3.77855 0-6.761616-2.1877936-6.761616-7.5578326zm6.960488 4.5744777c1.98871 0 3.579679-1.9889034 3.579679-5.370039s-1.392098-4.9722583-3.579679-4.773368c-2.187582.1988904-3.57968 1.9889034-3.57968 5.370039s1.392098 4.773368 3.57968 4.773368z"/><path d="m206.030436 33.2146854c1.721212-.6603927 3.530634-1.0625254 5.369519-1.193342h1.988711v15.7123362h-3.380809v-12.5300909l-3.977421.596671z"/><path d="m217.366087 39.9769567c0-5.1711486 3.380808-8.5522843 7.35823-8.7511746 3.977422-.1988904 6.960488 2.5855743 6.960488 7.7567229s-3.380809 8.7511746-7.35823 8.7511746c-3.977422 0-6.960488-2.1877936-6.960488-7.7567229zm7.159359 4.7733679c2.187582-.1988903 3.77855-2.1877936 3.77855-5.5689293 0-3.3811356-1.392097-4.9722582-3.77855-4.7733679s-3.579679 1.9889033-3.579679 5.3700389c0 3.3811357 1.392097 4.9722583 3.579679 4.9722583z"/><path d="m233.474644 39.579176c0-5.3700389 3.380809-8.7511746 7.35823-8.9500649 3.977422-.1988903 7.159359 2.5855743 7.159359 7.7567229s-3.380808 8.7511746-7.557101 8.9500649c-4.176293.1988904-6.960488-2.3866839-6.960488-7.7567229zm7.159359 4.5744776c2.187582 0 3.778551-1.9889033 3.778551-5.5689292 0-3.580026-1.392098-4.9722583-3.778551-4.773368s-3.77855 1.9889033-3.77855 5.3700389c0 3.3811357 1.590968 4.9722583 3.77855 4.9722583z"/><path d="m249.583202 31.4246724c1.810467-.5870792 3.676355-.986951 5.56839-1.193342h2.187582v16.3090072h-3.778551v-12.7289812l-3.977421.3977807z"/><path d="m1.39209754 73.1916421c0-4.5744777 2.585324-7.5578326 5.56839015-7.5578326 2.98306616 0 5.36951911 2.1877936 5.36951911 6.7622712 0 4.5744777-2.58532403 7.5578327-5.56839018 7.5578327-2.98306616 0-5.36951908-2.1877937-5.36951908-6.7622713zm5.36951908 3.9778066c1.59096861 0 2.78419508-1.5911226 2.78419508-4.5744776s-.99435539-4.3755873-2.78419508-4.3755873c-1.7898397 0-2.78419508 1.790013-2.78419508 4.7733679 0 2.983355 1.19322646 4.3755873 2.78419508 4.176697z"/><path d="m13.3243622 66.4293708c1.3281008-.5309291 2.7460293-.8010368 4.1762926-.7956429h1.5909686v13.9224048h-2.7841951v-10.9389683c-1.010421-.0536665-2.0220034.0812242-2.9830661.3977807z"/><path d="m22.0746895 66.2304805c1.3219806-.5515918 2.744126-.8225029 4.1762927-.7955614h1.5909686v13.9223233h-2.7841951v-10.9389683c-1.0107869-.0634618-2.0242166.0716753-2.9830662.3977807z"/><path d="m31.023888 72.5949711c0-4.5744777 2.585324-7.5578326 5.7672612-7.756723 3.1819373-.1988903 5.5683902 2.386684 5.5683902 6.9611617 0 4.5744776-2.7841951 7.7567229-5.9661323 7.7567229s-5.3695191-2.1877937-5.3695191-6.9611616zm5.5683902 4.1766969c1.5909686 0 2.9830661-1.7900129 2.9830661-4.7733679s-1.1932264-4.3755873-2.9830661-4.3755873-2.9830662 1.790013-2.9830662 4.7733679c0 2.983355 1.1932265 4.3755873 2.9830662 4.3755873z"/><path d="m43.3538948 65.8326998c1.4152451-.4988257 2.8833591-.8325203 4.3751637-.9944517h1.5909686v14.3201039h-2.7841951v-11.1378586h-3.1819372z"/><path d="m52.7008354 72.1971904c0-4.7733679 2.585324-7.7567229 5.9661323-7.7567229s5.5683902 2.386684 5.5683902 6.9611616-2.7841951 7.7567229-5.9661323 7.9556133c-3.1819373.1988903-5.5683902-2.1877937-5.5683902-7.160052zm5.7672612 4.3755873c1.5909687-.1988903 2.9830662-1.790013 2.9830662-4.9722583s-1.1932265-4.3755873-2.9830662-4.3755873-2.9830661 1.790013-2.9830661 4.773368 1.1932264 4.5744776 2.9830661 4.5744776z"/><path d="m65.6274554 71.9983001c0-4.773368 2.7841951-7.756723 5.9661323-7.9556133s5.7672613 2.386684 5.7672613 7.160052c0 4.7733679-2.7841951 7.9556132-5.9661324 7.9556132-3.1819372 0-5.7672612-2.1877936-5.7672612-7.1600519zm5.9661323 4.3755873c1.5909686 0 2.9830662-1.790013 2.9830662-4.9722583s-1.1932265-4.5744776-3.1819373-4.5744776c-1.9887107 0-2.9830661 1.9889033-2.9830661 4.9722583 0 2.9833549 1.1932264 4.5744776 3.1819372 4.5744776z"/><path d="m78.5540754 65.0371385c1.5457098-.5203307 3.148025-.8541787 4.7729059-.9944517h1.5909686v14.7178846h-2.9830662v-11.5356393l-3.3808083.3977807z"/><path d="m88.2987582 71.6005194c0-4.7733679 2.7841951-7.9556132 6.1650034-7.9556132s5.9661324 2.3866839 5.9661324 7.1600519-2.7841952 7.9556133-6.1650035 7.9556133-5.9661323-2.1877937-5.9661323-7.160052zm6.1650034 4.3755873c1.5909686 0 2.9830661-1.790013 2.9830661-4.9722583s-1.1932264-4.5744776-3.1819372-4.5744776-2.9830662 1.9889033-2.9830662 4.9722583 1.1932265 4.5744776 3.1819373 4.5744776z"/><path d="m101.62312 64.4404675c1.537066-.5232311 3.149245-.7919535 4.772906-.7955613h1.78984v14.7178845h-2.983066v-11.5356392c-1.207007-.0661431-2.41663.0682723-3.57968.3977806z"/><path d="m111.566674 71.2027388c0-4.9722583 2.983066-8.1545036 6.562746-8.1545036 3.579679 0 6.165003 2.3866839 6.165003 7.3589422s-2.983066 8.1545036-6.562745 8.1545036c-3.57968 0-6.165004-2.386684-6.165004-7.3589422zm6.363875 4.3755873c1.789839 0 3.181937-1.790013 3.181937-4.9722583s-1.193227-4.773368-3.181937-4.5744777c-1.988711.1988904-3.181938 1.790013-3.181938 4.9722583s1.193227 4.5744777 3.181938 4.5744777z"/><path d="m125.48765 64.0426868c1.587251-.6166517 3.269471-.9531283 4.971777-.9944516h1.789839v15.1156652h-3.181937v-11.9334199l-3.579679.3977806z"/><path d="m135.630075 63.8437965c1.587251-.6166517 3.269471-.9531283 4.971776-.9944517h1.78984v15.1156652h-3.181937v-11.9334199l-3.579679.3977807z"/><path d="m145.971371 70.6060678c0-4.9722583 2.983066-8.1545036 6.761616-8.353394 3.778551-.1988903 6.363875 2.5855743 6.363875 7.5578326s-3.181938 8.1545036-6.761617 8.353394c-3.579679.1988903-6.363874-2.386684-6.363874-7.5578326zm6.562745 4.5744776c1.988711 0 3.380808-1.9889033 3.380808-5.1711486s-1.392097-4.773368-3.380808-4.773368-3.380808 1.9889033-3.380808 5.1711486 1.392097 4.773368 3.380808 4.773368z"/><path d="m160.488959 63.2471255c1.650944-.6355205 3.401769-.9722502 5.170648-.9944517h1.78984v15.3145556h-3.380808v-12.1323103c-1.209324.0859493-2.407853.2857235-3.57968.596671z"/><path d="m171.227997 70.2082871c0-5.1711486 3.181938-8.3533939 6.960488-8.5522843 3.77855-.1988903 6.562746 2.5855743 6.562746 7.756723 0 5.1711486-3.181938 8.3533939-6.960488 8.3533939-3.778551 0-6.562746-2.386684-6.562746-7.5578326zm6.761617 4.5744776c1.988711 0 3.380808-1.9889033 3.380808-5.3700389 0-3.3811357-1.392097-4.773368-3.380808-4.773368s-3.579679 1.9889033-3.579679 5.1711486 1.392097 4.9722583 3.579679 4.9722583z"/><path d="m186.342199 69.8105064c0-5.1711486 3.181937-8.3533939 6.960488-8.3533939 3.77855 0 6.761616 2.386684 6.761616 7.5578326s-3.181937 8.5522843-7.159358 8.5522843c-3.977422 0-6.562746-2.386684-6.562746-7.756723zm6.761617 4.773368c2.187582 0 3.579679-1.9889033 3.579679-5.370039 0-3.3811356-1.392097-4.7733679-3.579679-4.7733679s-3.57968 1.9889033-3.57968 5.1711486 1.590969 4.9722583 3.57968 4.9722583z"/><path d="m201.456401 62.2526738c1.753226-.5054076 3.551591-.8384705 5.369519-.9944516h1.988711v15.9112265h-3.380808v-12.5300909l-3.977422.3977807z"/><path d="m212.593181 62.0537835c1.729242-.6011967 3.539687-.9364969 5.369519-.9944517h1.988711v15.9112266h-3.380808v-12.5300909l-3.977422.3977806z"/><path d="m223.729962 61.8548932c1.797187-.6033208 3.673484-.9384062 5.56839-.9944517h1.988711v15.9112265h-3.57968v-12.5300909l-3.977421.3977807z"/><path d="m235.264484 61.6560028c1.793361-.618165 3.671937-.9536574 5.56839-.9944516h1.988711v16.1101168h-3.579679v-12.7289812l-3.977422.3977807z"/><path d="m246.997878 68.8160548c0-5.370039 3.380808-8.7511746 7.557101-8.7511746 4.176292 0 7.358229 2.5855743 7.358229 7.9556132 0 5.370039-3.579679 8.7511746-7.755972 8.7511746-4.176292 0-7.159358-2.3866839-7.159358-7.9556132zm7.358229 4.7733679c2.187582 0 3.778551-1.9889033 3.778551-5.5689293 0-3.5800259-1.392098-4.9722582-3.778551-4.9722582-2.386452 0-3.77855 2.1877936-3.77855 5.5689292 0 3.3811357 1.590969 4.9722583 3.77855 4.9722583z"/><path d="m1.19322646 92.0862236c1.35736116-.3931685 2.7631494-.5940148 4.17629262-.596671h1.59096861v13.7234324h-2.78419507v-10.9389678l-2.98306616.3977807z"/><path d="m9.94355385 98.6496045c0-4.5744776 2.58532405-7.5578326 5.56839015-7.5578326 2.9830662 0 5.3695191 2.386684 5.3695191 6.9611616 0 4.5744775-2.585324 7.5578325-5.5683902 7.5578325-2.9830661 0-5.36951905-2.386684-5.36951905-6.9611615zm5.56839015 4.1766965c1.5909686 0 2.7841951-1.591122 2.7841951-4.7733675 0-3.1822453-1.1932265-4.1766969-2.9830662-4.1766969s-2.784195 1.5911226-2.784195 4.5744776c0 2.9833548 1.1932264 4.3755868 2.9830661 4.3755868z"/><path d="m22.2735606 98.6496045c0-4.7733679 2.585324-7.5578326 5.5683902-7.5578326 2.9830661 0 5.5683901 2.386684 5.5683901 6.9611616 0 4.5744775-2.784195 7.5578325-5.7672612 7.5578325s-5.3695191-2.187794-5.3695191-6.9611615zm5.5683902 4.1766965c1.5909686 0 2.7841951-1.591122 2.7841951-4.7733675 0-3.1822453-1.1932265-4.3755873-2.9830662-4.3755873s-2.7841951 1.790013-2.7841951 4.773368c0 2.9833548 1.1932265 4.3755868 2.9830662 4.3755868z"/><path d="m34.4046963 92.0862236c1.3956572-.5370262 2.8798137-.806899 4.3751637-.7955613h1.5909686v14.1212137h-2.784195v-11.1378588h-3.1819373z"/><path d="m43.5527659 98.6496045c0-4.7733679 2.784195-7.7567229 5.9661323-7.7567229 3.1819372 0 5.5683901 2.5855743 5.5683901 7.1600519 0 4.5744775-2.7841951 7.7567225-5.9661323 7.5578325s-5.5683901-2.187794-5.5683901-6.9611615zm5.7672612 4.3755875c1.5909686 0 2.9830661-1.790013 2.9830661-4.9722585 0-3.1822453-1.1932264-4.3755873-2.9830661-4.3755873s-2.9830662 1.790013-2.9830662 4.773368c0 2.9833548 1.1932265 4.5744778 2.9830662 4.5744778z"/><path d="m56.2805148 91.8873333c1.4169951-.4567125 2.8881091-.7242136 4.3751637-.7955614h1.5909686v14.3201041h-2.7841951v-11.3367491l-3.1819372.3977807z"/><path d="m65.6274554 98.6496045c0-4.7733679 2.7841951-7.7567229 5.9661323-7.7567229s5.7672613 2.386684 5.7672613 7.1600519c0 4.7733675-2.7841951 7.7567225-5.9661324 7.7567225-3.1819372 0-5.7672612-2.386684-5.7672612-7.1600515zm5.9661323 4.3755875c1.5909686 0 2.9830662-1.790013 2.9830662-4.9722585 0-3.1822453-1.1932265-4.3755873-3.1819373-4.3755873-1.9887107 0-2.9830661 1.790013-2.9830661 4.773368 0 2.9833548 1.1932264 4.5744778 3.1819372 4.5744778z"/><path d="m78.5540754 91.8873333c1.5290843-.5542941 3.1467211-.8239263 4.7729059-.7955614h1.5909686v14.5189941h-2.9830662v-11.5356391l-3.3808083.3977807z"/><path d="m88.0998871 91.8873333c1.5188609-.6137509 3.135338-.9505495 4.7729059-.9944517h1.5909686v14.7178844h-2.9830662v-11.5356391c-1.141421-.0627455-2.2851131.0718196-3.3808083.3977807z"/><path d="m97.6456988 91.6884429c1.5526595-.4584885 3.1554892-.7256527 4.7729062-.7955613h1.789839v14.7178844h-3.181937v-11.5356391c-1.1414209-.0627455-2.285113.0718196-3.3808082.3977807z"/><path d="m107.589253 98.6496045c0-4.9722583 2.983066-7.9556132 6.363874-7.9556132s6.165004 2.3866839 6.165004 7.3589422c0 4.9722585-2.983067 7.9556135-6.363875 7.9556135s-6.165003-2.386684-6.165003-7.3589425zm6.165003 4.5744775c1.988711 0 3.380808-1.790013 3.380808-5.1711485 0-3.3811356-1.392097-4.5744776-3.380808-4.5744776s-3.181937 1.790013-3.181937 4.9722583c0 3.1822458 1.392097 4.7733678 3.181937 4.7733678z"/><path d="m121.510228 98.6496045c0-4.9722583 2.983066-8.1545036 6.562746-8.1545036 3.579679 0 6.165003 2.5855743 6.165003 7.5578326 0 4.9722585-2.983066 7.9556135-6.562746 7.9556135-3.579679 0-6.165003-2.386684-6.165003-7.3589425zm6.363875 4.5744775c1.98871 0 3.380808-1.790013 3.380808-5.1711485 0-3.3811356-1.392098-4.5744776-3.380808-4.5744776-1.988711 0-3.181938 1.790013-3.181938 4.9722583 0 3.1822458 1.193227 4.7733678 3.181938 4.7733678z"/><path d="m135.630075 91.6884429c1.587251-.6166517 3.269471-.9531283 4.971776-.9944516h1.78984v15.1156647h-3.181937v-11.9334194l-3.579679.3977806z"/><path d="m145.772499 91.4895526c1.623935-.4427415 3.290786-.7094634 4.971777-.7955613h1.78984v15.3145557h-3.181937v-12.1323104l-3.57968.3977806z"/><path d="m156.312667 98.6496045c0-5.1711486 3.181937-8.3533939 6.761616-8.3533939 3.57968 0 6.562746 2.7844646 6.562746 7.7567229 0 4.9722585-3.181938 8.1545035-6.960488 8.1545035s-6.363874-2.386684-6.363874-7.5578325zm6.562745 4.5744775c1.988711 0 3.579679-1.790013 3.579679-5.1711485 0-3.3811356-1.392097-4.7733679-3.579679-4.7733679s-3.380808 1.9889033-3.380808 5.1711486c0 3.1822458 1.392097 4.7733678 3.380808 4.7733678z"/><path d="m171.227997 98.6496045c0-5.1711486 3.181938-8.3533939 6.960488-8.3533939s6.562746 2.5855743 6.562746 7.7567229c0 5.1711485-3.181938 8.3533935-6.960488 8.3533935-3.778551 0-6.562746-2.585574-6.562746-7.7567225zm6.761617 4.7733675c1.988711 0 3.380808-1.988903 3.380808-5.3700385 0-3.3811356-1.392097-4.7733679-3.380808-4.7733679s-3.579679 1.9889033-3.579679 5.1711486c0 3.1822458 1.392097 4.9722578 3.579679 4.9722578z"/><path d="m186.143328 91.2906623c1.691367-.4434728 3.42421-.7100898 5.170648-.7955614h1.988711v15.7123361h-3.380808v-12.3312004h-3.778551z"/><path d="m197.081237 98.6496045c0-5.1711486 3.380809-8.5522842 7.159359-8.5522842 3.778551 0 6.960488 2.7844646 6.960488 7.9556132 0 5.1711485-3.380809 8.3533935-7.35823 8.3533935-3.977422 0-6.761617-2.386684-6.761617-7.7567225zm7.159359 4.7733675c1.988711 0 3.579679-1.988903 3.579679-5.3700385 0-3.3811356-1.392097-4.7733679-3.77855-4.7733679s-3.579679 1.9889033-3.579679 5.1711486c0 3.1822458 1.590968 4.9722578 3.77855 4.9722578z"/><path d="m212.593181 91.2906623c1.729242-.6011967 3.539687-.9364969 5.369519-.9944517h1.988711v15.9112264h-3.380808v-12.5300908l-3.977422.3977807z"/><path d="m223.928833 98.6496045c0-5.3700389 3.380808-8.5522842 7.557101-8.5522842 4.176292 0 6.960487 2.5855743 6.960487 7.9556132 0 5.3700385-3.380808 8.5522845-7.35823 8.5522845-3.977421 0-7.159358-2.585575-7.159358-7.9556135zm7.35823 4.7733675c1.98871 0 3.579679-1.790012 3.579679-5.3700385 0-3.5800259-1.392098-4.9722583-3.579679-4.9722583-2.187582 0-3.778551 1.9889034-3.778551 5.370039 0 3.3811358 1.590969 4.9722578 3.778551 4.9722578z"/><path d="m239.838519 91.0917719c1.873587-.5438894 3.81641-.811891 5.767261-.7955613h1.988711v16.1101164h-3.57968v-12.7289808c-1.403883-.0648408-2.809885.069077-4.176292.3977807z"/><path d="m251.770783 98.6496045c0-5.3700389 3.380809-8.7511746 7.557101-8.7511746 4.176293 0 7.35823 2.7844647 7.35823 8.1545036 0 5.3700385-3.579679 8.7511745-7.755972 8.7511745-4.176292 0-7.159359-2.585574-7.159359-8.1545035zm7.35823 4.9722585c2.187582 0 3.977422-1.988903 3.977422-5.5689295 0-3.5800259-1.590969-4.9722583-3.977422-4.9722583s-3.77855 1.9889034-3.77855 5.370039c0 3.3811358 1.590968 5.1711488 3.77855 5.1711488z"/><path d="m1.39209754 124.107567c0-4.574478 2.585324-7.358942 5.56839015-7.358942 2.98306616 0 5.36951911 2.386684 5.36951911 6.961161 0 4.574478-2.58532403 7.358943-5.56839018 7.358943-2.98306616 0-5.36951908-2.386684-5.36951908-6.961162zm5.36951908 4.176697c1.59096861.19889 2.78419508-1.591123 2.78419508-4.574478s-.99435539-4.375587-2.78419508-4.375587c-1.7898397 0-2.78419508 1.790013-2.78419508 4.574478 0 2.784464 1.19322646 4.375587 2.78419508 4.375587z"/><path d="m13.3243622 117.743076 4.1762926-.596671h1.5909686v13.922324h-2.7841951v-11.137859l-2.9830661.397781z"/><path d="m22.0746895 117.941967c1.3219806-.551592 2.744126-.822503 4.1762927-.795562h1.5909686v14.121214h-2.7841951v-11.137859h-2.9830662z"/><path d="m31.023888 124.505348c0-4.574478 2.585324-7.557833 5.7672612-7.358943 3.1819373.198891 5.5683902 2.386684 5.5683902 7.160052s-2.7841951 7.557833-5.9661323 7.358943c-3.1819372-.198891-5.3695191-2.386684-5.3695191-7.160052zm5.5683902 4.375587c1.5909686.19889 2.9830661-1.591123 2.9830661-4.574478s-1.1932264-4.375587-2.9830661-4.574477c-1.7898397-.198891-2.9830662 1.790013-2.9830662 4.773368s1.1932265 4.375587 2.9830662 4.375587z"/><path d="m43.3538948 118.140857 4.3751637-.596671h1.5909686v14.121214h-2.7841951v-11.137859h-3.1819372z"/><path d="m52.7008354 124.903128c0-4.773368 2.585324-7.557832 5.9661323-7.557832s5.5683902 2.585574 5.5683902 7.358942-2.7841951 7.557833-5.9661323 7.557833c-3.1819373 0-5.5683902-2.386684-5.5683902-7.358943zm5.7672612 4.574478c1.5909687 0 2.9830662-1.790013 2.9830662-4.773368s-1.1932265-4.574478-2.9830662-4.574478-2.9830661 1.790013-2.9830661 4.773368 1.1932264 4.574478 2.9830661 4.574478z"/><path d="m65.6274554 125.102019c0-4.773368 2.7841951-7.557833 5.9661323-7.557833s5.7672613 2.585574 5.7672613 7.358942-2.7841951 7.756723-5.9661324 7.557833c-3.1819372-.19889-5.7672612-2.386684-5.7672612-7.358942zm5.9661323 4.574477c1.5909686 0 2.9830662-1.591122 2.9830662-4.773368 0-3.182245-1.1932265-4.574477-3.1819373-4.574477-1.9887107 0-2.9830661 1.790013-2.9830661 4.773368s1.1932264 4.574477 3.1819372 4.574477z"/><path d="m78.5540754 118.737528c1.5290843-.554294 3.1467211-.823926 4.7729059-.795561h1.5909686v14.518994h-2.9830662v-11.535639l-3.3808083.39778z"/><path d="m88.2987582 125.499799c0-4.773368 2.7841951-7.756723 6.1650034-7.756723s5.9661324 2.784465 5.9661324 7.557833-2.7841952 7.756723-6.1650035 7.756723-5.9661323-2.386684-5.9661323-7.557833zm6.1650034 4.773368c1.5909686 0 2.9830661-1.790013 2.9830661-4.972258s-1.1932264-4.574478-3.1819372-4.574478-2.9830662 1.790013-2.9830662 4.773368 1.1932265 4.574478 3.1819373 4.773368z"/><path d="m101.62312 118.936418c1.559909-.426225 3.159095-.692782 4.772906-.795561h1.78984v14.717885h-2.983066v-11.53564h-3.57968z"/><path d="m111.566674 126.09647c0-4.972258 2.983066-7.955613 6.562746-7.955613 3.579679 0 6.165003 2.585574 6.165003 7.557833 0 4.972258-2.983066 7.955613-6.562745 7.756723-3.57968-.198891-6.165004-2.386684-6.165004-7.358943zm6.363875 4.574478c1.789839 0 3.181937-1.790013 3.181937-4.972258 0-3.182246-1.193227-4.574478-3.181937-4.773368-1.988711-.198891-3.181938 1.790013-3.181938 4.972258s1.193227 4.773368 3.181938 4.773368z"/><path d="m125.48765 119.334199c1.598276-.552771 3.280835-.822007 4.971777-.795561h1.789839v15.115665h-3.181937v-11.73453h-3.579679z"/><path d="m135.630075 119.334199c1.628002-.39389 3.296812-.594166 4.971776-.596671h1.78984v15.115665h-3.181937v-11.93342c-1.195828-.138634-2.406566-.071364-3.579679.198891z"/><path d="m145.971371 126.693141c0-5.171148 2.983066-8.154503 6.761616-8.154503 3.778551 0 6.363875 2.784464 6.363875 7.756723 0 4.972258-3.181938 8.154503-6.761617 7.955613s-6.363874-2.386684-6.363874-7.557833zm6.562745 4.773368c1.988711 0 3.380808-1.790013 3.380808-5.171148 0-3.381136-1.392097-4.773368-3.380808-4.773368s-3.380808 1.790013-3.380808 4.972258 1.392097 4.773368 3.380808 4.972258z"/><path d="m160.488959 119.73198c1.663224-.56777 3.413694-.837099 5.170648-.795562h1.78984v15.513446h-3.380808v-12.13231l-3.57968.397781z"/><path d="m171.227997 127.090922c0-5.171149 3.181938-8.353394 6.960488-8.154504 3.77855.198891 6.562746 2.784465 6.562746 7.756723 0 4.972259-3.181938 8.353394-6.960488 8.154504-3.778551-.19889-6.562746-2.585574-6.562746-7.756723zm6.761617 4.773368c1.988711 0 3.380808-1.790013 3.380808-5.171149 0-3.381135-1.392097-4.773368-3.380808-4.773368s-3.579679 1.790013-3.579679 4.972259c0 3.182245 1.392097 4.972258 3.579679 4.972258z"/><path d="m186.342199 127.289812c0-5.171148 3.181937-8.353394 6.960488-8.154503 3.77855.19889 6.761616 2.784464 6.761616 7.955613s-3.181937 8.154504-7.159358 8.154504c-3.977422 0-6.562746-2.585575-6.562746-7.955614zm6.761617 4.972259c2.187582 0 3.579679-1.790013 3.579679-5.171149s-1.392097-4.972258-3.579679-4.972258-3.57968 1.790013-3.57968 5.171148c0 3.381136 1.590969 4.972259 3.57968 4.972259z"/><path d="m201.456401 120.328651c1.737574-.542864 3.5492-.811279 5.369519-.795562h1.988711v15.712337h-3.380808v-12.530091l-3.977422.39778z"/><path d="m212.593181 120.527541c1.737574-.542864 3.5492-.811279 5.369519-.795561h1.988711v15.911226h-3.380808v-12.530091l-3.977422.397781z"/><path d="m223.729962 120.527541c1.825771-.446036 3.690771-.71249 5.56839-.795561h1.988711v15.911226h-3.57968v-12.728981c-1.33819-.065183-2.678637.068874-3.977421.397781z"/><path d="m235.264484 120.726431c1.802602-.557043 3.681935-.825545 5.56839-.795561h1.988711v16.110117h-3.579679v-12.728981h-3.977422z"/><path d="m246.997878 128.483154c0-5.370039 3.380808-8.751174 7.557101-8.552284 4.176292.19889 7.358229 2.784465 7.358229 8.154504s-3.579679 8.552284-7.755972 8.552284c-4.176292 0-7.159358-2.784465-7.159358-8.154504zm7.358229 4.972259c2.187582 0 3.778551-1.790013 3.778551-5.370039s-1.392098-4.972259-3.778551-5.171149c-2.386452-.19889-3.77855 1.988903-3.77855 5.370039s1.590969 5.171149 3.77855 5.171149z"/><path d="m1.39209754 149.565529c0-4.574477 2.585324-7.358942 5.56839015-7.358942 2.98306616 0 5.36951911 2.585574 5.36951911 7.160052s-2.58532403 7.358942-5.56839018 7.160052c-2.98306616-.19889-5.36951908-2.386684-5.36951908-6.961162zm5.36951908 4.375588c1.59096861 0 2.78419508-1.591123 2.78419508-4.574478s-.99435539-4.375587-2.78419508-4.375587c-1.7898397 0-2.78419508 1.591122-2.78419508 4.375587s1.19322646 4.574478 2.78419508 4.574478z"/><path d="m13.3243622 143.399929c1.3603932-.378894 2.7642349-.579463 4.1762926-.596671h1.5909686v14.121214h-2.7841951v-10.938969c-.9978429-.127809-2.0110179-.060258-2.9830661.198891z"/><path d="m22.2735606 150.1622c0-4.574477 2.585324-7.358942 5.5683902-7.358942 2.9830661 0 5.5683901 2.784465 5.5683901 7.358942 0 4.574478-2.784195 7.358943-5.7672612 7.358943s-5.3695191-2.585575-5.3695191-7.358943zm5.5683902 4.574478c1.5909686 0 2.7841951-1.591123 2.7841951-4.574478s-1.1932265-4.574477-2.9830662-4.574477-2.7841951 1.591122-2.7841951 4.574477 1.1932265 4.574478 2.9830662 4.574478z"/><path d="m34.4046963 144.19549c1.3956572-.537026 2.8798137-.806898 4.3751637-.795561h1.5909686v14.121214h-2.784195v-11.137859h-3.1819373z"/><path d="m43.5527659 150.957762c0-4.574478 2.784195-7.557833 5.9661323-7.358942 3.1819372.19889 5.5683901 2.585574 5.5683901 7.358942s-2.7841951 7.557832-5.9661323 7.358942-5.5683901-2.386684-5.5683901-7.358942zm5.7672612 4.574477c1.5909686 0 2.9830661-1.591122 2.9830661-4.773368 0-3.182245-1.1932264-4.375587-2.9830661-4.375587s-2.9830662 1.591123-2.9830662 4.574478 1.1932265 4.574477 2.9830662 4.574477z"/><path d="m56.4793859 151.355542c0-4.574477 2.585324-7.557832 5.9661323-7.358942s5.5683901 2.585574 5.5683901 7.358942-2.784195 7.557833-5.9661323 7.557833c-3.1819372 0-5.5683901-2.585574-5.5683901-7.557833zm5.7672612 4.773368c1.7898397 0 2.9830662-1.790013 2.9830662-4.773368s-1.1932265-4.574477-2.9830662-4.574477-2.9830662 1.591122-2.9830662 4.574477 1.1932265 4.574478 2.9830662 4.773368z"/><path d="m69.2071348 145.189942 4.5740348-.596671h1.5909686v14.518994h-2.7841951v-11.336749h-3.3808083z"/><path d="m78.5540754 145.388832c1.5606044-.393237 3.1635325-.593623 4.7729059-.596671h1.5909686v14.717885h-2.9830662v-11.535639h-3.3808083z"/><path d="m88.2987582 152.548884c0-4.773368 2.7841951-7.756723 6.1650034-7.557832 3.3808083.19889 5.9661324 2.585574 5.9661324 7.557832 0 4.972259-2.7841952 7.756723-6.1650035 7.557833s-5.9661323-2.585574-5.9661323-7.557833zm6.1650034 4.773368c1.5909686 0 2.9830661-1.790013 2.9830661-4.972258s-1.1932264-4.574478-3.1819372-4.574478-2.9830662 1.790013-2.9830662 4.773368 1.1932265 4.574478 3.1819373 4.773368z"/><path d="m101.821991 153.145555c0-4.972258 2.983067-7.955613 6.363875-7.756723 3.380808.198891 6.165003 2.784465 6.165003 7.557833s-2.983066 7.955613-6.363874 7.756723c-3.380809-.19889-6.165004-2.585574-6.165004-7.557833zm6.165004 4.574478c1.988711.19889 3.380808-1.591123 3.380808-4.773368s-1.392097-4.773368-3.380808-4.773368-3.181937 1.790013-3.181937 4.773368 1.392097 4.773368 3.181937 4.773368z"/><path d="m115.742967 153.543336c0-4.972258 2.983066-7.955613 6.562745-7.756723 3.57968.19889 6.165004 2.784465 6.165004 7.756723s-3.181937 7.756723-6.562746 7.756723c-3.380808 0-6.165003-2.585574-6.165003-7.756723zm6.363874 4.773368c1.78984 0 3.181938-1.591123 3.181938-4.972258 0-3.381136-1.193227-4.574478-3.181938-4.773368-1.98871-.198891-3.380808 1.790013-3.380808 4.972258s1.392098 4.773368 3.380808 4.773368z"/><path d="m129.663942 146.979955c1.628003-.39389 3.296813-.594166 4.971777-.596671h1.78984v15.115665h-3.181937v-11.93342h-3.57968z"/><path d="m139.806367 147.377736c1.60935-.489407 3.292339-.691385 4.971777-.596671h1.78984v15.115665h-3.181937v-12.13231l-3.57968.39778z"/><path d="m149.948792 147.775516c1.669509-.541747 3.41552-.810391 5.170648-.795561h1.78984v15.115665h-3.181937v-12.13231h-3.778551z"/><path d="m160.488959 147.974407c1.693331-.405865 3.429392-.606199 5.170648-.596671h1.78984v15.314555h-3.380808v-12.13231h-3.57968z"/><path d="m171.029126 148.372187c1.666084-.556036 3.414493-.825048 5.170648-.795561h1.78984v15.513446h-3.380808v-12.13231c-1.195828-.138635-2.406566-.071365-3.57968.19889z"/><path d="m181.768164 155.93002c0-5.171149 3.181938-8.353394 7.159359-8.154504 3.977422.198891 6.761617 2.983355 6.761617 7.955614 0 4.972258-3.380809 8.353394-7.159359 8.154503-3.77855-.19889-6.761617-2.784464-6.761617-7.955613zm6.960488 4.972258c1.988711 0 3.579679-1.790013 3.579679-5.171148 0-3.381136-1.392097-4.773368-3.579679-4.972259-2.187582-.19889-3.579679 1.790013-3.579679 4.972259 0 3.182245 1.392097 5.171148 3.579679 5.171148z"/><path d="m196.882366 149.167749c1.740976-.52785 3.550297-.795924 5.369519-.795562h1.988711v15.712337h-3.380808v-12.331201h-3.977422z"/><path d="m208.218018 156.924472c0-5.370039 3.181937-8.552285 7.159358-8.353394 3.977422.19889 6.960488 2.983355 6.960488 8.154503 0 5.171149-3.380808 8.353394-7.35823 8.353394-3.977421 0-6.761616-2.784464-6.761616-8.154503zm6.960487 4.972258c2.187582.19889 3.778551-1.790013 3.778551-5.171149 0-3.381135-1.392098-4.972258-3.778551-5.171148-2.386453-.198891-3.579679 1.988903-3.579679 5.171148 0 3.182246 1.392097 5.171149 3.579679 5.171149z"/><path d="m223.729962 149.96331c1.814515-.483494 3.692641-.684741 5.56839-.596671h1.988711v15.911227h-3.57968v-12.728982h-3.977421z"/><path d="m235.463355 157.720033c0-5.171149 3.380808-8.353394 7.35823-8.353394s7.35823 2.983355 7.35823 8.353394-3.57968 8.552284-7.755972 8.353394c-4.176293-.19889-6.960488-2.784465-6.960488-8.353394zm7.159359 5.171149c2.187582.19889 3.77855-1.790013 3.77855-5.171149s-1.392097-5.171149-3.77855-5.171149-3.778551 1.790013-3.778551 5.171149 1.590969 5.171149 3.778551 5.171149z"/><path d="m251.571912 150.758871c1.897075-.394872 3.829536-.594801 5.767262-.596671h1.98871v16.309008h-3.579679v-12.728982h-4.176293z"/><path d="m1.39209754 175.023492c0-4.574478 2.585324-7.358942 5.56839015-7.160052 2.98306616.19889 5.36951911 2.585574 5.36951911 7.160052s-2.58532403 7.358942-5.56839018 7.160052c-2.98306616-.19889-5.36951908-2.585574-5.36951908-7.160052zm5.36951908 4.375587c1.59096861.198891 2.78419508-1.392232 2.78419508-4.375587s-.99435539-4.375587-2.78419508-4.574478c-1.7898397-.19889-2.78419508 1.591123-2.78419508 4.574478s1.19322646 4.375587 2.78419508 4.375587z"/><path d="m13.3243622 169.056782c1.3503018-.416563 2.7716414-.551942 4.1762926-.397781h1.5909686v13.922324h-2.7841951v-10.938969h-2.9830661z"/><path d="m22.0746895 169.653453c1.310233-.58098 2.7558103-.787511 4.1762927-.596671h1.5909686v14.121214h-2.7841951v-11.137859h-2.9830662z"/><path d="m31.023888 176.614615c0-4.773368 2.585324-7.557833 5.7672612-7.358943 3.1819373.198891 5.5683902 2.784465 5.5683902 7.358943 0 4.574477-2.7841951 7.358942-5.9661323 7.160052-3.1819372-.198891-5.3695191-2.386684-5.3695191-7.160052zm5.5683902 4.574477c1.5909686 0 2.9830661-1.591122 2.9830661-4.574477s-1.1932264-4.574478-2.9830661-4.574478-2.9830662 1.591123-2.9830662 4.375587c0 2.784465 1.1932265 4.574478 2.9830662 4.773368z"/><path d="m43.3538948 170.647905 4.3751637-.596671h1.5909686v14.320104h-2.7841951v-11.336749c-1.0583412-.098889-2.123596-.098889-3.1819372 0z"/><path d="m52.7008354 177.609066c0-4.574477 2.585324-7.557832 5.9661323-7.358942s5.5683902 2.784465 5.5683902 7.557833-2.7841951 7.557832-5.9661323 7.358942c-3.1819373-.198891-5.5683902-2.585574-5.5683902-7.557833zm5.7672612 4.773368c1.5909687 0 2.9830662-1.591122 2.9830662-4.773368 0-3.182245-1.1932265-4.375587-2.9830662-4.574477-1.7898397-.198891-2.9830661 1.591122-2.9830661 4.574477s1.1932264 4.574478 2.9830661 4.773368z"/><path d="m65.6274554 178.404628c0-4.773368 2.7841951-7.557833 5.9661323-7.557833s5.7672613 2.784465 5.7672613 7.557833-2.7841951 7.756722-5.9661324 7.557832c-3.1819372-.19889-5.7672612-2.585574-5.7672612-7.557832zm5.9661323 4.773368c1.5909686 0 2.9830662-1.591123 2.9830662-4.773368 0-3.182246-1.1932265-4.574478-3.1819373-4.773368-1.9887107-.198891-2.9830661 1.790013-2.9830661 4.773368s1.1932264 4.574477 3.1819372 4.773368z"/><path d="m78.5540754 172.239027c1.5606044-.393237 3.1635325-.593623 4.7729059-.596671h1.5909686v14.518994h-2.9830662v-11.336748h-3.3808083z"/><path d="m88.2987582 179.59797c0-4.773368 2.7841951-7.756723 6.1650034-7.557833s5.9661324 2.784465 5.9661324 7.557833-2.7841952 7.756722-6.1650035 7.557832-5.9661323-2.585574-5.9661323-7.557832zm6.1650034 4.773368c1.5909686.19889 2.9830661-1.591123 2.9830661-4.773368 0-3.182246-1.1932264-4.574478-3.1819372-4.773368-1.9887108-.198891-2.9830662 1.790013-2.9830662 4.773368s1.1932265 4.574477 3.1819373 4.773368z"/><path d="m101.62312 173.432369 4.772906-.596671h1.78984v14.717885h-2.983066v-11.73453h-3.57968z"/><path d="m111.566674 180.791312c0-4.972259 2.983066-7.756723 6.562746-7.557833 3.579679.19889 6.165003 2.784465 6.165003 7.756723s-2.983066 7.756723-6.562745 7.557832c-3.57968-.19889-6.165004-2.585574-6.165004-7.756722zm6.363875 4.972258c1.789839 0 3.181937-1.790013 3.181937-4.972258 0-3.182246-1.193227-4.574478-3.181937-4.773368-1.988711-.198891-3.181938 1.790013-3.181938 4.773368s1.193227 4.773367 3.181938 4.972258z"/><path d="m125.48765 174.625711c1.628002-.393889 3.296813-.594166 4.971777-.596671h1.789839v15.115665h-3.181937v-11.933419h-3.579679z"/><path d="m135.630075 175.023492c1.628002-.39389 3.296812-.594166 4.971776-.596671h1.78984v15.115665h-3.181937v-11.93342h-3.579679z"/><path d="m145.971371 182.581325c0-4.972259 2.983066-7.955614 6.761616-7.756723 3.778551.19889 6.363875 2.983355 6.363875 7.955613s-3.181938 7.955613-6.761617 7.756723c-3.579679-.198891-6.363874-2.784465-6.363874-7.955613zm6.562745 4.972258c1.988711.19889 3.380808-1.591123 3.380808-4.972258 0-3.381136-1.392097-4.773368-3.380808-4.773368s-3.380808 1.591122-3.380808 4.773368c0 3.182245 1.392097 4.972258 3.380808 4.972258z"/><path d="m160.488959 176.216834c1.693331-.405864 3.429392-.606199 5.170648-.596671h1.78984v15.314555h-3.380808v-12.13231h-3.57968z"/><path d="m171.227997 183.973557c0-5.171149 3.181938-8.154504 6.960488-7.955613 3.77855.19889 6.562746 2.983355 6.562746 8.154503 0 5.171149-3.181938 8.154504-6.960488 7.955613-3.778551-.19889-6.562746-2.983355-6.562746-8.154503zm6.761617 5.171148c1.988711 0 3.380808-1.790013 3.380808-5.171148 0-3.381136-1.392097-4.773368-3.380808-4.972258-1.988711-.198891-3.579679 1.790013-3.579679 4.972258s1.392097 4.972258 3.579679 5.171148z"/><path d="m186.342199 184.769118c0-5.171148 3.181937-8.154503 6.960488-7.955613 3.77855.19889 6.761616 2.983355 6.761616 8.154503 0 5.171149-3.181937 8.154504-7.159358 7.955614-3.977422-.198891-6.562746-2.784465-6.562746-8.154504zm6.761617 5.171149c2.187582 0 3.579679-1.790013 3.579679-5.171149 0-3.381135-1.392097-4.972258-3.579679-4.972258s-3.57968 1.790013-3.57968 4.972258 1.590969 4.972258 3.57968 5.171149z"/><path d="m201.456401 178.205737c1.764327-.384456 3.56384-.584422 5.369519-.596671h1.988711v15.712336h-3.380808v-12.3312c-1.323929-.099836-2.653494-.099836-3.977422 0z"/><path d="m212.593181 178.802408c1.764327-.384456 3.56384-.584422 5.369519-.596671h1.988711v15.712336h-3.380808v-12.3312c-1.31834-.199016-2.659082-.199016-3.977422 0z"/><path d="m223.729962 179.399079c1.795381-.579601 3.690982-.782721 5.56839-.596671h1.988711v16.110117h-3.57968v-12.728981h-3.977421z"/><path d="m235.264484 179.99575c1.792907-.591155 3.690954-.794537 5.56839-.596671h1.988711v16.110117h-3.579679v-12.728981h-3.977422z"/><path d="m246.997878 187.951363c0-5.370038 3.380808-8.552284 7.557101-8.154503 4.176292.397781 7.358229 2.983355 7.358229 8.353394s-3.579679 8.552284-7.755972 8.353394c-4.176292-.198891-7.159358-2.983355-7.159358-8.552285zm7.358229 5.370039c2.187582.198891 3.778551-1.790013 3.778551-5.171148 0-3.381136-1.392098-5.171149-3.778551-5.370039-2.386452-.19889-3.77855 1.790013-3.77855 5.171148 0 3.381136 1.590969 5.171149 3.77855 5.370039z"/></g><path d="m272.055633 284.015394-234.2701284-16.110117v-254.9774054l234.2701284-12.9278716zm-212.9909231-120.925322c0 61.258222 39.9730864 110.781915 89.2931131 110.781915 49.320028 0 89.491985-49.523693 89.491985-110.781915s-40.171957-110.7819148-89.491985-110.7819148c-49.3200267 0-89.2931131 49.5236928-89.2931131 110.7819148z" fill="url(#a)"/><path d="m272.055633 284.015394-234.2701284-16.110117v-254.9774054l234.2701284-12.9278716zm-212.9909231-120.925322c0 61.258222 39.9730864 110.781915 89.2931131 110.781915 49.320028 0 89.491985-49.523693 89.491985-110.781915s-40.171957-110.7819148-89.491985-110.7819148c-49.3200267 0-89.2931131 49.5236928-89.2931131 110.7819148z" fill="#d4d4d4"/><g fill="#b9b9bd"><g transform="translate(49.093392 13.922323)"><path d="m211.825461 207.641506c.054539.791656-.20853 1.572424-.731024 2.169618-.522495.597194-1.261357.961602-2.053171 1.012628-1.679227-.105165-2.986355-1.49957-2.983066-3.182246-.011956-1.72243 1.272717-3.178533 2.983066-3.381135 1.679375.207381 2.902707 1.692999 2.784195 3.381135z"/><path d="m211.825461 182.979105c.054539.791656-.20853 1.572423-.731024 2.169618-.522495.597194-1.261357.961602-2.053171 1.012627-1.757335 0-3.181936-1.424739-3.181936-3.182245 0-1.757505 1.424601-3.182245 3.181936-3.182245.791814.051025 1.530676.415434 2.053171 1.012628.522494.597194.785563 1.377961.731024 2.169617z"/><path d="m211.825461 154.338897c.054539.791656-.20853 1.572424-.731024 2.169618-.522495.597194-1.261357.961602-2.053171 1.012628-1.757335 0-3.181937-1.42474-3.181937-3.182246 0-1.757505 1.424602-3.182245 3.181937-3.182245.791814.051025 1.530676.415434 2.053171 1.012628.522494.597194.785563 1.377962.731024 2.169617z"/><path d="m211.825461 257.96076c.054539.791656-.20853 1.572423-.731024 2.169618-.522495.597194-1.261357.961602-2.053171 1.012628-1.757335 0-3.181937-1.42474-3.181937-3.182246 0-1.757505 1.424602-3.182245 3.181937-3.182245.791814.051025 1.530676.415434 2.053171 1.012628.522494.597194.785563 1.377962.731024 2.169617z"/><path d="m211.825461 231.707236c.054539.791656-.20853 1.572424-.731024 2.169618-.522495.597194-1.261357.961602-2.053171 1.012628-1.757335 0-3.181936-1.42474-3.181936-3.182246 0-1.757505 1.424601-3.182245 3.181936-3.182245.791814.051026 1.530676.415434 2.053171 1.012628.522494.597194.785563 1.377962.731024 2.169617z"/><path d="m211.825461 131.466509c.054539.791656-.20853 1.572424-.731024 2.169618-.522495.597194-1.261357.961602-2.053171 1.012628-1.757335 0-3.181937-1.42474-3.181937-3.182246 0-1.757505 1.424602-3.182245 3.181937-3.182245.791814.051025 1.530676.415434 2.053171 1.012628.522494.597194.785563 1.377962.731024 2.169617z"/><path d="m211.825461 103.025192c.054539.791656-.20853 1.572423-.731024 2.169617-.522495.597194-1.261357.961603-2.053171 1.012628-1.679227-.105164-2.986355-1.499569-2.983072-3.182245-.003283-1.682676 1.303845-3.0770813 2.983072-3.1822455.791814.0510254 1.530676.4154335 2.053171 1.0126275.522494.597195.785563 1.377962.731024 2.169618z"/><path d="m211.825461 79.5561327c.054539.7916557-.20853 1.5724232-.731024 2.1696173-.522495.5971941-1.261357.9616026-2.053171 1.012628-1.757335 0-3.181936-1.42474-3.181936-3.1822453 0-1.7575054 1.424601-3.1822453 3.181936-3.1822453.791814.0510253 1.530676.4154339 2.053171 1.0126279.522494.5971941.785563 1.3779617.731024 2.1696174z"/><path d="m211.825461 53.1037186c.054539.7916557-.20853 1.5724232-.731024 2.1696173-.522495.5971941-1.261357.9616026-2.053171 1.012628-1.757335 0-3.181937-1.4247398-3.181937-3.1822453 0-1.7575056 1.424602-3.1822453 3.181937-3.1822453.791814.0510253 1.530676.4154338 2.053171 1.0126279.522494.5971941.785563 1.3779616.731024 2.1696174z"/><path d="m211.825461 29.0379884c.054539.7916558-.20853 1.5724233-.731024 2.1696174-.522495.5971941-1.261357.9616026-2.053171 1.0126279-1.757335 0-3.181937-1.4247397-3.181937-3.1822453 0-1.7575055 1.424602-3.1822453 3.181937-3.1822453.791814.0510254 1.530676.4154339 2.053171 1.012628.522494.5971941.785563 1.3779616.731024 2.1696173z"/><path d="m5.99389666 15.3145555c.12850057 1.7312043-1.07479017 3.2784422-2.78419508 3.580026-1.7149978-.0982459-3.08370086-1.4670815-3.18193723-3.1822453-.11234796-.8451667.11912018-1.7000728.64251689-2.3730766.5233967-.6730038 1.29494105-1.10781 2.14167819-1.2069494.86078973-.0595887 1.70521146.2564973 2.31533813.866683.61012666.6101858.92618206 1.4546893.8665991 2.3155623z"/><path d="m24.6877779 14.1212136c.112348.8451666-.1191202 1.7000728-.6425169 2.3730766-.5233967.6730037-1.294941 1.1078099-2.1416782 1.2069493-.8607897.0595888-1.7052115-.2564972-2.3153381-.866683-.6101267-.6101857-.9261821-1.4546892-.8665991-2.3155623-.1285006-1.7312042 1.0747902-3.2784421 2.7841951-3.580026 1.7573354 0 3.1819372 1.4247398 3.1819372 3.1822454z"/><path d="m43.3816591 13.1267619c.0424967 1.7040587-1.1222681 3.2017584-2.784195 3.580026-.8439023 0-1.6532405-.3352713-2.2499694-.9320581-.596729-.5967868-.9319679-1.4062033-.9319679-2.2501872-.1123479-.8451667.1191202-1.7000729.6425169-2.3730766.5233967-.6730038 1.2949411-1.10781 2.1416782-1.20694941 1.7573354 0 3.1819372 1.42473971 3.1819372 3.18224531z"/><path d="m62.0755404 11.9334199c.1117934.8768367-.1461227 1.7606702-.7119499 2.4397286s-1.388578 1.0921506-2.2711163 1.1403048c-.8268517.0018324-1.6173753-.3396368-2.1828946-.9429158-.5655194-.6032791-.8552972-1.4142429-.8001715-2.2393369-.112348-.8451667.1191201-1.7000729.6425168-2.37307664.5233968-.67300377 1.2949411-1.10780997 2.1416782-1.20694936 1.7149978.09824587 3.0837009 1.4670815 3.1819373 3.1822453z"/><path d="m80.7694216 10.9389682c.1180097 1.7975416-1.1938832 3.3719655-2.9830661 3.580026-1.7149978-.0982459-3.0837009-1.4670814-3.1819373-3.1822453-.1117934-.8768367.1461227-1.76067015.7119499-2.43972855s1.388578-1.09215068 2.2711163-1.14029741c1.5909686-.19889033 2.9830661 1.19334199 3.1819372 3.18224526z"/><path d="m99.2644318 9.74562625c.1123479.84516665-.1191202 1.70007285-.6425169 2.37307665-.5233967.6730037-1.2949411 1.1078099-2.1416782 1.2069493-1.5909686.1988904-2.9830662-1.3922323-3.1819372-3.1822453-.0424967-1.70405872 1.1222681-3.2017584 2.784195-3.58002595 1.7573354 0 3.1819373 1.42473975 3.1819373 3.1822453z"/><path d="m117.958313 8.7511746c.11224.82394704-.124467 1.6573545-.653044 2.2992594-.528576.6419049-1.30105 1.0340502-2.131151 1.0818762-.825014.055131-1.6359-.2346749-2.23912-.8002489-.603221-.5655741-.944657-1.35617424-.942817-2.18310604-.112348-.84516669.11912-1.70007283.642517-2.37307661.523396-.67300377 1.294941-1.10780997 2.141678-1.20694936.86079-.05958874 1.705211.25649726 2.315338.866683s.926182 1.45468923.866599 2.31556231z"/><path d="m136.652194 7.55783261c.042497 1.70405873-1.122268 3.20175839-2.784195 3.58002599-1.757335 0-3.181937-1.42473978-3.181937-3.18224533-.128501-1.73120426 1.07479-3.27844215 2.784195-3.58002597 1.757335 0 3.181937 1.42473975 3.181937 3.18224531z"/><path d="m155.346075 6.56338095c.054425.8443854-.229641 1.67568199-.789409 2.31014821-.559769.63446622-1.349147 1.01985629-2.193657 1.07098743-.84669.06982341-1.678925-.25078788-2.259977-.87063646s-.847329-1.47109694-.723089-2.31160885c-.11224-.82394705.124467-1.65735448.653044-2.29925938.528576-.6419049 1.30105-1.03405018 2.131151-1.08187626 1.590969-.19889033 2.983066 1.19334199 3.181937 3.18224531z"/><path d="m174.039957 5.37003896c.118009 1.79754158-1.193883 3.37196545-2.983066 3.58002597-1.714998-.09824588-3.083701-1.46708147-3.181938-3.18224531-.118009-1.79754158 1.193884-3.37196545 2.983066-3.58002597 1.714998.09824588 3.083701 1.46708146 3.181938 3.18224531z"/><path d="m192.534967 4.3755873c.11224.82394705-.124467 1.65735447-.653044 2.29925937-.528576.6419049-1.30105 1.03405018-2.131151 1.08187627-1.590969.19889033-2.983066-1.19334199-3.181937-3.18224531-.118512-1.68813671 1.10482-3.1737547 2.784195-3.38113564.860789-.05958873 1.705211.25649726 2.315338.866683.610126.61018574.926182 1.45468923.866599 2.31556231z"/><path d="m211.228848 3.18224531c.128501 1.73120426-1.07479 3.27844215-2.784195 3.58002597-1.757335 0-3.181937-1.42473976-3.181937-3.18224531-.042497-1.70405873 1.122268-3.20175841 2.784195-3.58002597 1.757335 0 3.181937 1.42473975 3.181937 3.18224531z"/></g><path d="m56.6782569 42.3636407v225.7405263h3.1819373v-222.9560617l183.3591328-8.9500649v244.0384366h2.983066v-247.2206819z"/></g></g><path d="m186.143328 162.692291c0-52.507047 33.410341-95.2684685 74.576654-95.2684685 20.085979 0 38.183247 10.1434069 51.70648 26.6513044-16.904042-26.4524141-43.552766-43.755873-73.383427-43.755873-51.109867 0-92.475051 50.3192541-92.475051 112.3730371 0 62.053784 41.365184 112.373038 92.475051 112.373038 30.228403 0 57.27487-17.502349 73.98004-44.750325-13.324362 16.905678-31.819372 27.446866-52.303093 27.446866-41.166313 0-74.576654-42.562531-74.576654-95.069579z" fill="#9aa3aa"/><path d="m140.40298 163.885633c0-27.645756-7.159358-52.507047-18.892752-71.2027384l-5.369519-25.4579625s-35.5979228-8.1545036-42.7572816-8.1545036c-39.9730865 0-73.18455632 48.5292405-73.18455632 108.3952305s38.38211782 100.638508 72.58794312 101.235179c1.1932264 0 4.9717769.596671 6.3638744.397781l31.4216304-1.392233 4.971777-22.872388c15.313073-19.889033 24.858884-48.927021 24.858884-80.948365z" fill="#b9b9bd"/><path d="m84.1224656 268.501948c-35.7967939-.397781-74.17891175-40.971409-74.17891175-99.842947s31.81937235-107.0029982 73.98004065-107.0029982c4.1949078.0265388 8.3822994.3589036 12.5288778.9944517-4.4325584-1.0430585-8.9696487-1.5768855-13.5232332-1.5911227-42.1606683 0-75.37213817 47.1370082-75.37213817 106.6052182 0 59.468209 38.77985997 101.036288 74.57665387 101.434069l6.3638745-.596671h4.3751637c-1.3920976.19889-7.3582299 0-8.7503274 0z" fill="#9aa3aa"/><path d="m92.0773086 268.303057c-35.3990517-.39778-72.7868141-40.175847-72.7868141-98.450714s30.8250169-105.6107659 72.389072-105.6107659c3.1819372 0 4.5740348-.7955613 7.755972-.3977806-4.3751637-.9944517-3.7785505-.1988903-8.3525852-.1988903-41.3651841 0-73.7811696 48.1314598-73.7811696 106.8041078s37.7855046 98.251824 72.9856853 98.649605h5.170648l5.369519-.397781c-1.3920975 0-7.5571009-.397781-8.7503274-.397781z" fill="#9aa3aa"/><path d="m170.830255 167.86344c-1.392097 55.291512-33.21147 100.439617-71.9913297 100.837398-38.77986.397781-71.3947167-45.545886-70.0026191-102.826301 1.3920975-57.280416 35.2001806-102.2296308 74.7755248-100.6385082 39.575344 1.5911227 68.411651 47.5347892 67.218424 102.6274112z" fill="#9aa3aa"/><path d="m165.062994 167.86344c-1.193227 48.927022-28.438564 89.102869-61.252292 89.302487-32.8137275.198162-60.2579361-40.375465-59.0647097-91.0925 1.1932265-50.717035 29.8306616-90.6939913 63.2410027-89.301759 33.410341 1.3922324 58.269225 41.96586 57.075999 91.091772z" fill="#98c2e9"/><path d="m169.040415 167.66455c-1.193226 50.518144-30.427274 91.887333-65.826326 92.285114-35.3990517.39778-65.0308422-41.76697-63.6387447-94.075127 1.3920976-52.308158 32.0182434-93.4784563 68.0139087-92.0862239 35.995665 1.3922323 62.644389 43.5569829 61.451162 93.8762369z" fill="#c1daf2"/><path d="m163.869767 167.66455c-.994355 44.949215-26.052111 81.545036-56.081643 81.744716-30.0295329.1981-54.8884175-37.193282-53.8940621-83.335839.9943553-46.142557 27.2453375-82.738378 57.8714831-81.7439264 30.626146.9944517 53.098578 38.3858344 52.104222 83.3350494z" fill="#7aa7d5"/><path d="m112.163287 84.528391c-7.306599-.2586486-14.5397901 1.5326008-20.8814627 5.1711486 30.4272747 1.193342 53.8940617 38.5847244 52.8997067 83.7328294-.994356 34.209137-15.511944 63.644906-35.995665 75.976107h.198871c30.029533-.19889 54.888417-36.794711 56.081644-81.743926 1.193226-44.949215-22.07469-82.1417074-52.303094-83.136159z" fill="#b9b9bd"/><path d="m63.2410025 125.499799c-.2322234-.136365-.5176647-.145971-.7585291-.025527-.2408643.120444-.4044449.354583-.4346974.622198l-.5966132 1.790013c-.3444655.641693-.2658289 1.428135.1988711 1.988904l29.4329194 25.060181c.4428218-1.424013.9741799-2.818963 1.5909686-4.176697zm28.8363061-34.8058077c-.198871-.596671-.7954843-.9944517-1.1932264-.7955614l-1.3920976.7955614c-.3977421.1988903-.5966132.9944516-.3977421 1.7900129l11.5345225 48.7281318 2.983066-1.591123zm-16.3074283 13.5245427c-.1400997-.25324-.4066599-.410412-.6960487-.410412-.2893889 0-.555949.157172-.6960488.410412l-.9943554 1.193342c-.3540541.60194-.4267296 1.328766-.1988711 1.988903l21.8758185 39.181395 2.585324-2.983354zm34.4046967 34.805808v-52.5070477c0-.596671-.397743-1.3922323-.994356-1.3922323h-1.392097c-.397742 0-.795485.596671-.795485 1.193342v52.308157h3.181938zm49.717769 15.115665c.397742 0 .596613-.795561.596613-1.591123v-1.988903c-.198871-.596671-.596613-1.193342-.994355-.994452l-33.21147 9.944517c.247966 1.579393.380897 3.174713.397742 4.773368zm-38.382118-7.160052 21.676947-40.374737c.258106-.656276.184067-1.396739-.198871-1.988904l-.994355-1.193342c-.397742-.596671-.795484-.39778-1.193226 0l-21.676948 40.573628c.891254.913894 1.690577 1.913144 2.386453 2.983355zm32.614857-18.894581c.497595-.452599.656835-1.169246.397742-1.790013l-.596613-1.790013c-.198871-.596671-.795485-.795562-1.193227-.397781l-29.234048 26.651304c.596613 1.193342.994355 2.585575 1.590968 3.977807zm-97.6456991 24.06573c-.5966133-.198891-.9943554.39778-1.1932265.994451v2.187794c0 .795561.1988711 1.392232.7954843 1.591123l33.4103409 7.955613c.1009252-1.601842.3001717-3.195968.5966133-4.773368zm71.3947171-60.0648804c.214491-.6629535-.027287-1.3883575-.596614-1.790013l-1.193226-.596671c-.397742-.1988903-.994356 0-1.193227.7955613l-11.534522 49.3248021 2.784195 1.591123zm32.018243 84.9261714-33.609212-7.955613c.011068 1.544927-.189672 3.084079-.596613 4.574478l33.609212 8.154503c.397742.198891.795484-.39778.994355-1.193342v-1.988903c.198871-.596671 0-1.392232-.397742-1.591123zm-35.00131 65.8327c.198871.596671.795485.994452 1.193227.795561l1.193226-.795561c.569327-.401655.811105-1.127059.596614-1.790013l-12.131136-50.518144c-.902272.687445-1.909583 1.22473-2.983066 1.591122zm-69.0082634-62.451564c-.5966132.19889-.7954843.994452-.7954843 1.790013v1.988903c.1988711.795561.5966133 1.193342 1.1932265.994452l33.8080831-10.143407c-.3783077-1.50297-.644204-3.032021-.7954843-4.574478zm96.8502144 27.247975c.397742.397781.994356.198891 1.193227-.39778l.596613-1.790013c.198871-.795562.198871-1.591123-.397742-1.988904l-29.631791-25.457962-1.789839 3.977807zm-11.932264 21.281266c.397742.530374.795484.530374 1.193226 0l.994355-1.193342c.354054-.60194.42673-1.328766.198871-1.988903l-22.472431-40.374738-2.386453 2.983355zm-51.7064805 14.121213c-.2270055.560479-.0662858 1.20342.3977421 1.591123l1.3920976.795561c.3977421.198891.9943554-.19889 1.1932264-.994451l12.1311354-51.512596-3.181937-1.193342zm17.8983965-49.722583v54.495951c0 .795562.397743 1.392233.795485 1.193342h1.392097c.596613 0 .994356-.596671.994356-1.392232v-54.495951h-3.181938zm-45.3426051 13.922324c-.4952248.467669-.579368 1.225031-.1988711 1.790013l.5966132 1.790013c.1988711.795561.7954843.994451 1.1932265.596671l30.2284037-27.645756c-.7962226-1.226748-1.3998369-2.568243-1.7898397-3.977807zm11.5345224 21.679046c-.2278585.660137-.155183 1.386963.1988711 1.988903l.9943554 1.193342c.1732934.238404.4641794.361453.7559309.31977.2917515-.041682.5365516-.241266.6361666-.51866l22.6713028-42.164751c-.9582623-.759633-1.8257639-1.627219-2.585324-2.585574z" fill="#98c2e9"/><path d="m105.600542 132.858742c-11.7333937-.198891-21.6769475 13.325652-22.0746897 30.23133-.3977421 16.905678 8.9491985 30.629111 20.6825917 30.629111 11.733394 0 21.279206-13.325652 21.676948-30.03244s-8.551457-30.430221-20.28485-30.828001zm1.193226 46.739228c-6.363874-.198891-11.335651-7.557833-10.9379089-16.507898.3977422-8.950065 5.3695189-16.110117 11.7333939-16.110117 6.363874 0 10.937909 7.557833 10.739038 16.507898s-5.369519 16.110117-11.534523 16.110117z" fill="#b9b9bd"/><path d="m131.453782 163.487853c.397742-12.728982-4.971777-23.66795-12.528878-28.441318v-54.694841h-17.699526v55.689293c-6.7616164 4.972258-11.7333934 15.115665-11.9322644 26.850195-.1988711 11.734529 4.5740347 23.270168 11.9322644 28.043536v63.048236l17.699526-.994452v-62.451564c7.159359-4.773368 12.330007-15.115665 12.528878-27.049085zm-7.557101-.198891c-.198871 8.950065-5.369519 16.110117-11.534522 16.110117-6.165004 0-11.136781-7.557832-10.93791-16.507897s5.369519-16.110117 11.733394-15.911227c6.363874.19889 10.937909 7.358942 10.739038 16.309007z" fill="#c1daf2"/><path d="m164.068639 185.564679c-2.187582 1.193342-2.983067 2.386684-1.193227 3.778917 1.593303.822256 3.431973 1.034431 5.170648.596671v-4.972259z" fill="#010101"/><path d="m167.250576 180.592421c-2.386453 5.96671-3.778551 11.336749-2.983066 12.927872.795484 1.591122 8.153714-2.784465 8.153714-2.784465v-12.13231z" fill="#dead9f"/><path d="m188.927523 147.576626-.596613 2.386684s.397742 10.938968-1.78984 11.336749.198871 16.309007 3.181937 16.706788c12.727749 2.386684 14.119847-8.353394 14.119847-11.137859 0-2.784464-.596613-17.701239-.596613-17.701239z" fill="#eac3b7"/><path d="m210.803342 163.288962c-8.352586-2.386684-4.971777-14.320104-4.971777-14.320104l-16.5063 1.988904 10.341296 27.049085c3.778551 1.392232 13.722105-14.121214 11.136781-14.717885z" fill="#dead9f"/><path d="m187.734297 153.543336c-.596614-1.591123 13.125491-9.148955 18.097268-5.76782-1.193227 5.171149-.596614 11.137859.397742 11.93342v6.762272c-1.988711-.795562-6.562746 2.585574-7.159359 1.790013-4.176293-5.370039-9.744683-10.541188-11.335651-14.717885z" fill="url(#c)"/><path d="m208.61576 139.422123c.397742-6.165601-.795485-11.73453-9.545812-12.530091-8.750327-.795562-13.125491 3.580026-13.722104 12.728981s-.198871 16.110117 4.375163 17.303459c8.949199 2.187793 13.722105-1.392233 16.904042-8.950065 1.193226.596671 2.784195-2.187794 3.181937-4.176697s.397742-3.977807-1.193226-4.375587z" fill="#eac3b7"/><path d="m198.871077 124.107567c-1.392098-.994452-7.755972.795561-9.744683 2.386684s-2.386453 3.381136-2.983066 6.563381 1.193227 0 4.176293-2.187794c2.983066-2.187793 7.954843-.19889 7.954843-.19889z" fill="#2c100c"/><path d="m208.416889 139.621013c1.590968.397781 1.590968 1.988903 1.193226 4.375587s-1.988711 4.574478-3.181937 4.176697c-3.181937 7.557833-5.966132 10.938968-16.705171 8.751175 8.352586-7.358943 7.557101-19.292362 6.562746-25.457963l2.187582-4.375587h.397742c8.949198.795561 10.142425 6.364491 9.545812 12.530091z" fill="#dead9f"/><path d="m187.535426 167.067879c-1.78984-5.96671-.994356-6.364491-.994356-6.364491s-.994355.994452-8.750327 3.381136c-2.386453.596671-5.369519 11.535639-6.165004 18.29791-.198871 3.381136-2.585324 31.225782.397743 35.402479 2.983066 4.176697 12.727749.596671 22.671302-.994451.198871-12.530091-3.977421-36.198041-4.574034-42.960312 0-.397781-1.988711-4.972258-2.585324-6.762271z" fill="#5484c4"/><path d="m196.086882 165.675646c4.485737.250136 8.752469-1.959636 11.13678-5.767819 5.113082 2.278696 9.977937 5.077925 14.517589 8.353394 2.25429 1.487901 3.543176 4.065923 3.380808 6.762271.397742 2.983355-9.545812 13.325652-10.739038 18.496801-1.193226 5.171148 4.772906 17.104568-.795484 21.480156-5.56839 4.375587-24.461143 4.176697-30.825017 4.176697-1.392098-27.446866 3.579679-39.976957 4.574035-42.761422.994355-2.784464 7.5571-10.740078 8.750327-10.740078z" fill="#3b58a5"/><path d="m210.206728 333.539086-12.330006-1.591122c.459582 4.532085-1.700826 8.930485-5.568391 11.336749-2.386452 1.790013-5.56839 4.773368-2.187581 6.56338 4.353848 1.790572 9.325478 1.187892 13.125491-1.591122 3.380808-2.983355 3.380808-1.790013 5.966132-2.983355s1.590969-5.568929 1.590969-8.950065z" fill="#010101"/><path d="m176.796387 335.52799c.397743 3.977806 0 7.557832-1.789839 8.154503-1.78984.596671-4.772906-1.988903-9.744683 0-4.971777 1.988904-11.932265 1.193342-13.125491 0-1.193227-1.193342-2.585324-4.574477 2.585324-4.773368 5.170648-.19889 8.551456-4.574477 10.540167-7.160052 1.453749-1.646707 3.411769-2.765683 5.56839-3.182245l5.369519 1.392232z" fill="#010101"/><path d="m175.205419 220.967159c-4.176293 8.552284-4.971777 26.651304-5.767261 40.374737-.198871 4.375587-5.568391 67.821603-9.14807 73.987203 6.205169.445364 12.341584 1.579376 18.296139 3.381136 0 0 8.352585-27.446866 12.330007-69.611616 1.392097-15.115665 2.187582-51.512596 2.187582-51.512596z" fill="#214d6c"/><path d="m211.797697 217.387133c2.386453 5.171148 5.170648 8.751174 4.176293 21.480155-.994356 12.728982-2.187582 41.56808-.596614 53.89928 3.977422 32.419124-3.181937 47.93257-3.181937 47.93257s-4.176292-4.574477-18.693881-1.392232c0 0-2.386453-40.573628-2.784195-47.73368s-3.380808-35.800259-5.767261-42.16475-.198871-22.275717.596613-27.049085 26.250982-4.972258 26.250982-4.972258z" fill="#14263d"/><path d="m190.12075 291.573226c-.596614-7.358942-3.977422-36.993601-6.363875-43.159202-2.386453-6.1656 0-23.866839.795484-28.839098.198872-.994451 3.57968-1.790013 6.960488-1.790013l3.977422 25.457963c1.392097 12.927871 10.142425 73.191642 7.755972 94.870688-3.291547-.135926-6.583177.26717-9.744683 1.193342 0 0-2.983066-40.573628-3.380808-47.73368z" fill="#214d6c"/><path d="m213.189795 214.801558.596613 5.76782s-27.245338 6.762271-40.370829 3.778916c.259536-1.711591.392477-3.439996.397742-5.171148 0 0 25.256627-1.392233 39.376474-4.375588z" fill="#010101"/><path d="m205.234951 218.978255c.596614-2.187793 1.78984-2.585574 8.352586-2.585574 6.562745 0 1.98871 21.082375 0 21.679046-6.165004 1.988903-8.352586-19.093472-8.352586-19.093472z" fill="#010101"/><path d="m194.495913 227.132759c0 .596671.596614.795561 1.392098.795561h3.579679c.795485-.19889 1.392098-.596671 1.193227-.994452l-.596614-7.160051c0-.397781-.596613-.795562-1.392097-.795562h-3.778551c-.596613 0-1.193226.397781-1.193226.795562z" fill="#010101"/><path d="m194.495913 227.132759-.795484-7.160052c0-.397781.596613-.795561 1.392098-.795561h.795484l.795484 8.751174h-.795484c-.795484 0-1.392098-.397781-1.392098-.795561z" fill="#2b2c2c"/><path d="m200.439527 216.881399h4.963877c.3866-.000005.7.313396.7.699995 0 .000002 0 .000003-.000004.000005l-.000081 11.965467c-.000007.386597-.313407.699995-.700005.7h-4.963877c-.3866.000004-.7-.313396-.7-.699996 0-.000001 0-.000003.000004-.000004l.000081-11.965467c.000007-.386598.313407-.699995.700005-.7z" fill="#010101" transform="matrix(.99756405 -.06975647 .06975647 .99756405 -15.100739 14.699674)"/><path d="m199.666561 230.712785-.795484-10.740078c-.007148-.697492.502913-1.292622 1.193226-1.392232h.795485l.994355 13.325652h-.795484c-.349214.059069-.706621-.040063-.97553-.270579-.268909-.230515-.421527-.56859-.416568-.922763z" fill="#2b2c2c"/><path d="m206.030436 157.322252 3.977421 3.977807-8.551456 9.546736-5.56839-5.171149s4.375164-.19889 10.142425-8.353394z" fill="#5484c4"/><path d="m187.734297 158.714485-4.574035 3.182245-.397742 6.762271 4.971777-4.375587s-1.392098-1.591123 0-5.568929z" fill="#3b58a5"/><path d="m190.319621 129.079825c.994355 1.392233 4.574034 1.591123 7.557101 1.591123 2.983066 0 5.767261 4.375587 6.363874 5.76782.596613 1.392232.596613 4.574477 1.193227 5.370039.596613.795561 1.98871-2.386684 3.77855-1.591123s.596613 3.381136.596613 3.381136 3.977422-4.176697 1.590969-12.331201c-.714224-3.032302-2.986459-5.456254-5.966132-6.364491-1.590969-.596671-5.767262-2.784464-7.35823-.39778-2.465589 1.719324-5.058395 3.248563-7.755972 4.574477z" fill="#2c100c"/><path d="m212.39431 135.046535c-4.574035 2.386684-11.733393.198891-17.301783-1.193342l-9.14807-2.386684s.596613-9.148955 6.363874-10.740078c5.767262-1.591122 15.710816.397781 18.29614 3.977807s1.789839 10.342297 1.789839 10.342297z" fill="#010101"/><path d="m212.195439 135.245426c-7.35823 4.375587-15.710815 4.176697-19.290494 4.176697-3.57968 0-17.102913-1.790013-14.318718-4.574478 2.244036-1.906321 4.898535-3.267734 7.755972-3.977807z" fill="#010101"/><path d="m185.745586 131.267619s.397742-6.563381 4.574035-9.347846c2.838414-.579958 5.79008-.158251 8.352585 1.193342 3.579679 1.392233 3.579679 7.160052 3.77855 10.342298v1.193342c-2.478901-.095347-4.942936-.428357-7.358229-.994452-3.185387-.491899-6.315648-1.291192-9.346941-2.386684z" fill="#2b2c2c"/><path d="m195.291398 176.415724 11.932264 2.187794v5.171149l-13.920975-1.988904z" fill="#5484c4"/><path d="m183.160262 175.819053-9.545812 1.790013.198871 3.778917 7.954843-.397781z" fill="#3b58a5"/><path d="m171.029126 336.721332c8.949199-19.491253 13.523233-70.208287 15.511944-83.53394l2.585324 28.242427c-4.176292 38.982505-10.341296 57.280416-10.341296 57.280416-2.548669-.798503-5.137569-1.462388-7.755972-1.988903z" fill="#14263d"/><path d="m172.421224 196.105867 33.012599 25.060182 7.755972-6.364491s2.784195-1.193342 2.585324-6.1656c-.484404-4.506862-1.349263-8.964649-2.585324-13.325652l-10.93791 4.574477-21.676947-7.756723z" fill="url(#d)"/><path d="m167.250576 186.16135c2.784195-.39778 4.574035.596671 4.574035-.39778.397742-8.950065 2.187581-16.507898 5.767261-21.679046-4.063511 1.679472-7.431416 4.696846-9.545812 8.552284-2.784195 5.568929-6.165003 14.916775-6.165003 14.916775 1.718439-.705422 3.524837-1.173793 5.369519-1.392233z" fill="#3b58a5"/><path d="m220.746895 187.752473c2.585324 4.176697-10.937909 15.712336-15.114201 15.911227-10.398881 1.026519-20.704701-2.701479-28.040822-10.143407l5.170648-5.76782 19.091623 2.386684 6.363875-8.353394s7.358229-2.386684 12.528877 5.96671z" fill="#dead9f"/><path d="m181.768164 185.166899c-1.789839-1.591123-2.585324-3.580026-4.176292-4.773368-1.590969-1.193342-4.176293-4.972258-4.772906-3.977807-.596613.994452 1.988711 3.977807 2.784195 4.375588-2.784195-2.585575-3.181937-4.972259-4.772906-4.176697-1.590968.795561 2.784195 5.171148 2.784195 5.171148s-2.386453-3.580026-3.579679-3.381135c-1.193227.19889 1.78984 3.977806 1.78984 3.977806s-1.78984-1.988903-2.585324-1.392232c-.795485.596671 3.579679 5.767819 5.966132 7.557832s6.562745-3.381135 6.562745-3.381135z" fill="#dead9f"/><path d="m164.665252 188.548034c-2.187582 7.756723.596613 10.740078 2.983066 11.53564 5.767261 1.988903 23.864529-8.552285 28.040822-9.347846 2.101102-.368019 4.243895-.434988 6.363874-.19889l4.772906-6.1656c.596613-.795562-6.761617-1.988904-10.937909-1.591123-15.511944 1.591123-23.466787 2.983355-23.466787 2.983355z" fill="#eac3b7"/><path d="m220.746895 168.659001c3.977422 1.392233 5.36952 4.574478 5.36952 9.745627 0 5.171148-7.954844 17.303458-10.540168 22.275717-.795484-3.182246-10.142424-11.73453-13.324362-12.530091 5.56839-5.568929 12.727749-21.480156 18.49501-19.491253z" fill="#5484c4"/><path d="m284.186769 328.566828c.596613 3.182245 2.187582 11.137859.198871 13.723433-1.129541.694917-2.489871.909727-3.77855.596671-1.988711-.397781-2.386453.397781-3.57968 1.790013-1.193226 1.392232-8.551456 2.784465-11.932264 2.187794-3.380809-.596671-5.369519-2.784465 0-6.165601 4.49771-2.439639 7.907404-6.489042 9.545811-11.336749 1.392098-3.580026 9.545812-.795561 9.545812-.795561z" fill="#010101"/><path d="m307.852427 328.765718c-.397742 3.182246-1.988711 10.938969 0 13.524543 1.124321.707424 2.464469.989588 3.778551.795561 1.98871-.39778 2.386453.397781 3.579679 1.790013 1.193226 1.392233 8.551456 2.784465 11.932265 1.988904 3.380808-.795562 5.170648-2.585575 0-5.96671-4.460834-2.484624-7.856805-6.51773-9.545812-11.336749-1.392098-3.778917-9.744683-.795562-9.744683-.795562z" fill="#010101"/><path d="m280.010476 212.017094c-1.590968 5.568929-4.375163 3.778916-6.562745 20.286813-.994356 7.358943-.994356 37.988054-.994356 45.943667s-1.789839 31.225782-2.187581 56.285964c0 .994452 19.688236 2.983355 20.085978-.397781.397743-3.381135 4.375164-83.136158 6.761617-92.484004v-29.634659z" fill="#14263d"/><path d="m312.625333 211.818203c1.590969 5.56893 5.369519 10.541188 6.165003 21.281266.397743 7.358942 1.392098 38.584724 1.392098 46.341447s0 20.485704 1.392097 54.297061c.198872 1.790013-19.290494 2.784464-19.290494.994451s-4.772906-80.749474-7.159359-90.09732v-32.618014z" fill="#214d6c"/><path d="m278.419508 211.221532c2.386453 1.193342 30.228403 3.580026 35.20018-.596671.62488 2.065135.959538 4.20715.994356 6.364491 0 0-19.290495 5.76782-36.791149 0-1.193227-.397781.596613-5.76782.596613-5.76782z" fill="#010101"/><path d="m290.152901 142.007697-4.176292 16.110117s4.375163 21.281265 9.34694 23.071278 9.744683-11.137858 9.545812-14.518994-1.193226-22.076827-1.193226-22.076827z" fill="#dead9f"/><path d="m307.255814 167.465659c-.198871-3.381135-3.380808-21.480156-3.380808-21.480156l-1.590969-.994451-8.153714 39.579176c4.772906 1.591122 13.125491-13.723433 13.125491-17.104569z" fill="#eac3b7"/><path d="m290.749515 160.106717c-1.359599-1.531039-2.559066-3.197126-3.57968-4.972258l-12.727749 5.171148c-5.767261 2.187794-3.977421 2.983355-4.375163 5.96671-.397743 2.983355 3.77855 20.883485 4.375163 24.264621 1.819343 6.031361 1.819343 12.465439 0 18.496801-.335188 1.732255.572841 3.465932 2.187582 4.176697 3.977422 1.988903 12.131136 3.182245 19.688237 3.381135 0-12.530091 4.971777-28.839098 4.375163-35.601369-.198871-.795561-7.755972-19.690143-9.943553-20.883485z" fill="#3b58a5"/><path d="m302.284037 159.708936c.596613-.596671 2.187582-.19889 3.977422-3.182245l8.153714 2.983355c5.767261 2.187794 6.165003 1.988903 6.562745 4.972258s-3.579679 19.093472-4.176292 22.474608c-.596614 3.381135-1.78984 10.938968.596613 23.270169.596613 3.182245-9.346941 6.563381-22.07469 6.36449 0-12.530091.198871-25.060182.198871-33.413575-.052624-8.31094 2.295275-16.460321 6.761617-23.46906z" fill="#5484c4"/><path d="m286.374351 154.935568c.994355-3.381135 3.977421-10.143407 2.585324-13.524542-1.392098-3.381136 11.13678 3.580026 15.114202 6.1656l-18.296139 22.076827c-2.386453-.795561-10.341296-7.756723-11.136781-8.751175 4.097956-1.59785 8.028152-3.596448 11.733394-5.96671z" fill="url(#e)"/><path d="m286.374351 153.344446 5.369519 7.358942-5.56839 5.370039-3.778551-8.950065z" fill="#5484c4"/><path d="m305.664845 153.543336-3.77855 6.961162 5.966132 4.773368 1.392098-8.552285z" fill="#3b58a5"/><path d="m319.983563 161.89673c2.451888 1.145537 4.422964 3.116804 5.56839 5.568929 1.988711 3.580026 11.335651 16.507898 11.335651 16.507898s-9.943553 6.36449-15.511944 7.756723c-1.392097.19889-5.369519-7.955613-5.369519-7.955613z" fill="#3b58a5"/><path d="m276.828539 175.421273 12.131136-1.392233.795484 5.76782-12.92662 1.193342z" fill="#5484c4"/><path d="m315.011786 175.222382-12.131136-1.591122-.795484 5.96671 12.92662 1.193342z" fill="#3b58a5"/><path d="m303.105685 157.135615 14.308541-.000632c.552285-.000113 1.00002.447583 1.000044.999867 0 .00003 0 .000059-.000088.000089l-.000334 7.565972c-.000113.55225-.447794.999931-1.000044 1.000044l-14.308541.000632c-.552285.000112-1.00002-.447583-1.000045-.999868 0-.000029 0-.000059.000089-.000088l.000334-7.565972c.000113-.55225.447794-.999932 1.000044-1.000044z" fill="#010101" transform="matrix(.54317445 -.83961986 .83961986 .54317445 5.78477 334.468654)"/><path d="m302.893729 155.840474 11.327502-.0005c.441828-.00009.800016.358066.800035.799894 0 .000023 0 .000047-.00007.000071l-.000268 6.056755c-.00009.4418-.358235.799945-.800035.800035l-11.327502.0005c-.441828.00009-.800016-.358066-.800036-.799894 0-.000023 0-.000047.000071-.000071l.000267-6.056755c.000091-.4418.358236-.799945.800036-.800035z" fill="#2b2c2c" transform="matrix(.54317445 -.83961986 .83961986 .54317445 6.895934 332.011544)"/><g fill="#010101"><path d="m307.852427 161.498949c0 .397781-.397742.397781-.795484.198891h-.397742c-.198871-.198891-.397742-.596671-.198871-.795562v-.596671h.994355l.397742.397781c.198871.19889.397742.596671.198871.795561z"/><path d="m309.642267 162.692291c-.198871.198891-.596613.397781-.795484.198891l-.596614-.397781c-.198871-.19889-.198871-.397781 0-.795561v-.397781c-.054916-.219688.07864-.442304.298307-.497226s.442261.078647.497178.298336h.397742c.397742.19889.397742.596671.198871.994451z"/><path d="m311.233235 163.686743c-.198871.397781-.397742.397781-.795484.19889h-.397742c-.198871-.19889-.397742-.596671-.198871-.795561v-.596671h.994355l.397742.397781c.198872.19889.397743.596671.198872.795561z"/><path d="m305.475274 162.748886 1.189961-.000052c.165686-.000034.300006.134274.300014.29996 0 .000009 0 .000017-.000027.000026l-.000051 1.150117c-.000034.165675-.134338.299979-.300013.300013l-1.189961.000053c-.165686.000034-.300006-.134275-.300014-.29996 0-.000009 0-.000018.000027-.000027l.000051-1.150116c.000034-.165675.134338-.29998.300013-.300014z" transform="matrix(.54756322 -.83676431 .83676431 .54756322 1.562767 330.138112)"/><path d="m308.051298 165.078975c-.198871.198891-.596613.397781-.795484.198891h-.397742c-.397742-.198891-.397742-.596671-.198871-.994452v-.397781c.198871-.19889.596613-.39778.795484-.19889l.596613.397781c.198871 0 .198871.39778.198871.795561z"/><path d="m309.841138 166.073427c-.198871.397781-.596613.397781-.994355.19889h-.397743c-.198871-.19889-.397742-.596671-.198871-.795561l.397742-.397781c.198872-.39778.397743-.39778.795485-.19889h.397742c.219667-.054922.442261.078647.497178.298335.054916.219689-.07864.442304-.298307.497226z"/><path d="m315.80727 155.73113c.054917.219688-.078639.442304-.298306.497226s-.442261-.078648-.497178-.298336c-.198871-.19889-.198871-.397781-.198871-.795561l4.971777-7.557833c.198871-.19889.596613-.397781.795484-.19889.198871.19889.397742.596671.198871.795561z"/></g><path d="m331.518085 180.990202c-5.170648-5.171149-7.755972-5.96671-11.335651-9.148955-3.579679-3.182246-3.181937-2.585575-4.375164-4.773368-1.226825-2.209584-3.009129-4.060618-5.170648-5.370039-2.393533-1.394209-5.022273-2.337951-7.755972-2.784465-1.590968-.19889-1.988711.994452-.795484 1.591123 1.460346.590793 2.859156 1.323574 4.176293 2.187793 0 0-3.977422-1.988903-5.170648-1.193342-1.193227.795562 1.392097 1.988904 4.971776 4.176697l-3.77855-1.392232c-.198871-.19889-.795484-.795561-1.193226-.397781-.397743.397781-.397743 1.392233.397742 1.988904 1.06791.876058 2.197796 1.673701 3.380808 2.386684l-2.187582-1.193342c-.397742-.198891-.795484-.795562-1.193226-.795562s-.795485.198891-.596614.994452c.704586 1.0059 1.579522 1.88092 2.585324 2.585574.994356.795562 4.772906 2.386684 6.960488 3.778917 5.170648 3.381135 7.755972 15.115665 13.722104 18.4968 5.966133 3.381136 8.750328 1.193342 9.545812-1.193342.988176-3.471866.166311-7.207976-2.187582-9.944516z" fill="#eac3b7"/><path d="m311.829849 135.046535c.994355-6.762271 0-13.126762-9.943554-14.518994s-12.330007 5.96671-13.722104 14.320104c-1.392098 8.353394 2.585324 17.90013 8.750327 19.093472s10.142425-3.778917 12.727749-9.745627c.994355-.39778 1.590968-2.187793 2.187582-4.176696.596613-1.988904 1.392097-4.574478 0-4.972259z" fill="#eac3b7"/><path d="m295.52242 140.416574c1.590969-6.762271 3.57968-12.530091 7.954843-14.717884l-1.789839-5.171149c-10.341296-1.591123-11.932265 3.977807-12.92662 10.740078h-.596613c-1.988711-.19889-2.187582 1.988903-2.386453 4.773368-.397609 2.112056.552454 4.249904 2.386453 5.370039.795484 6.1656 4.176292 11.734529 8.750327 12.530091 0 0-.198871.39778 1.392097.39778-2.386452-.994451-3.977421-8.154503-2.784195-13.922323z" fill="#dead9f"/><path d="m298.306615 118.936418c-1.590968-1.193342-5.369519-.39778-7.755972 1.193342-2.60703 2.096573-4.371957 5.061938-4.971776 8.353394-.342838 2.441-.342838 4.917943 0 7.358943l.795484-2.386684c.693269-.323736 1.494312-.323736 2.187582 0 .596613.19889.994355 1.591122 1.392097 1.790013h.994356c.994355 0 2.386453-3.778917 4.375163-5.56893 1.988711-1.790013 7.755972-1.193342 7.755972-1.193342z" fill="#2c100c"/><path d="m297.31226 123.312006c.994355 1.591122.596613 6.36449 3.778551 6.563381 3.181937.19889 7.954843 1.193342 8.949198 2.585574.73028 1.477775 1.007058 3.138602.795484 4.773368l1.78984-.596671c1.256158-3.027051 1.466123-6.386818.596613-9.546736-1.193226-3.381136-2.187582-6.1656-5.966132-7.756723-3.778551-1.591123-7.954843-2.983355-9.943554-.397781-1.988711 2.585575 0 4.375588 0 4.375588z" fill="#5e1c17"/><path d="m279.214992 243.640656c-1.200822-2.046776-2.828779-3.810566-4.772906-5.171148-.844388-.745101-1.641424-1.542214-2.386453-2.386684-.596613-6.165601-2.585324-25.457963-.596613-29.037989s3.181937-10.342297 3.181937-10.342297l-10.142425-19.889033c-5.56839 15.314555-4.772905 23.071278-3.977421 32.419124.198871 2.983355-1.193227 19.690143 5.170648 29.83355.498347 3.229338.830237 6.482179.994355 9.745626.397742 1.591123 2.187582 2.585574 4.574035 4.574478 2.386453 1.988903 1.392098 1.193342 1.590969-.198891.198871-1.392232 1.98871.198891 1.98871-.795561s1.590969.795561 1.988711-.596671.397742-.19889.596613-.19889 1.590969-.596671.596614-2.585575c-.994356-1.988903-2.784195-3.977806-2.386453-4.972258s3.181937 2.983355 3.977421 3.580026c.795485.596671.397742-2.187794-.397742-3.977807z" fill="#dead9f"/><path d="m270.663536 162.294511c-2.494266 1.084174-4.484321 3.074422-5.56839 5.568929-1.988711 3.580026-6.960488 27.645756-6.960488 27.645756s12.330007 4.176697 17.898397 5.370039c1.392097.397781-.198871-12.331201-.198871-12.331201z" fill="#5484c4"/></g></g></svg>