<svg height="400" viewBox="0 0 1200 400" width="1200" xmlns="http://www.w3.org/2000/svg"><g fill="none" fill-rule="evenodd"><path d="m0 351h1201v-351h-1201z" fill="#eef7fb"/><g transform="translate(335 25)"><g fill-rule="nonzero"><path d="m207.460465 2.693721h116.589352v135.641093h-116.589352z" fill="#929497"/><path d="m211.869306 7.836279h107.526735v119.552233h-107.526735z" fill="#fff"/><path d="m259.876687 1.95907h18.860042v8.081163h-18.860042z" fill="#5a5a5c"/></g><path d="m226.382312 66.1792677h5.387442v5.2661157h-5.387442z" stroke="#009fe3" stroke-width=".35" transform="matrix(0 1 -1 0 297.888359 -160.263707)"/><path d="m286.084797 41.3853488-52.416221 11.9993024 12.246781 70.7713958h40.16944z" stroke="#009fe3" stroke-width=".35"/><path d="m268.694369 58.0374419 41.639054 9.7953488-9.797425 56.3232563h-31.841629z" fill="#fff" fill-rule="nonzero"/><path d="m268.694369 59.5067442v-1.4693023l1.469613.2448837" stroke="#009fe3" stroke-width=".35"/><path d="m273.10321 59.0169767 34.290986 8.0811628" stroke="#009fe3" stroke-dasharray="1.25" stroke-width=".35"/><path d="m308.863809 67.3430233 1.469614.4897674-.244936 1.4693023" stroke="#009fe3" stroke-width=".35"/><path d="m309.598616 72.4855814-8.327811 48.4869766" stroke="#009fe3" stroke-dasharray="1.3" stroke-width=".35"/><path d="m300.780934 122.686744-.244936 1.469303h-1.469613" stroke="#009fe3" stroke-width=".35"/><path d="m295.882222 124.156047h-24.248626" stroke="#009fe3" stroke-dasharray="1.31" stroke-width=".35"/><path d="m270.163982 124.156047h-1.469613v-1.469303" stroke="#009fe3" stroke-width=".35"/><path d="m268.694369 119.503256v-58.5272095" stroke="#009fe3" stroke-dasharray="1.23" stroke-width=".35"/><path d="m223.136344 62.445349h27.432789v61.784163h-27.432789z" fill="#fff" fill-rule="nonzero"/><path d="m250.569133 63.9146512v-1.4693024h-1.469613" stroke="#009fe3" stroke-width=".35"/><path d="m246.405228 62.4453488h-20.329656" stroke="#009fe3" stroke-dasharray="1.1" stroke-width=".35"/><path d="m224.850894 62.4453488h-1.71455v1.4693024" stroke="#009fe3" stroke-width=".35"/><path d="m223.136344 67.0981395v53.8744185" stroke="#009fe3" stroke-dasharray="1.26" stroke-width=".35"/><path d="m223.136344 122.686744v1.469303h1.71455" stroke="#009fe3" stroke-width=".35"/><path d="m227.545185 124.156047h20.084721" stroke="#009fe3" stroke-dasharray="1.1" stroke-width=".35"/><path d="m249.09952 124.156047h1.469613v-1.469303" stroke="#009fe3" stroke-width=".35"/><path d="m250.569133 119.503256v-54.1193025" stroke="#009fe3" stroke-dasharray="1.26" stroke-width=".35"/><path d="m226.382312 74.0155468h5.387442v5.2661157h-5.387442z" stroke="#009fe3" stroke-width=".35" transform="matrix(0 1 -1 0 305.724638 -152.427428)"/><path d="m226.382312 82.0967096h5.387442v5.2661157h-5.387442z" stroke="#009fe3" stroke-width=".35" transform="matrix(0 1 -1 0 313.8058 -144.346266)"/><path d="m226.382312 89.9329887h5.387442v5.2661157h-5.387442z" stroke="#009fe3" stroke-width=".35" transform="matrix(0 1 -1 0 321.64208 -136.509986)"/><path d="m226.382312 97.769268h5.387442v5.266116h-5.387442z" stroke="#009fe3" stroke-width=".35" transform="matrix(0 1 -1 0 329.478359 -128.673707)"/><path d="m226.382312 105.850431h5.387442v5.266115h-5.387442z" stroke="#009fe3" stroke-width=".35" transform="matrix(0 1 -1 0 337.559521 -120.592545)"/><path d="m226.137377 113.68671h5.387442v5.266116h-5.387442z" stroke="#009fe3" stroke-width=".35" transform="matrix(0 1 -1 0 345.150864 -112.51133)"/><path d="m233.975316 66.1792677h5.387442v5.2661157h-5.387442z" stroke="#009fe3" stroke-width=".35" transform="matrix(0 1 -1 0 305.481363 -167.856711)"/><path d="m226.382312 66.1792677h5.387442v5.2661157h-5.387442z" stroke="#009fe3" stroke-width=".35" transform="matrix(0 1 -1 0 297.888359 -160.263707)"/><path d="m233.975316 74.0155468h5.387442v5.2661157h-5.387442z" stroke="#009fe3" stroke-width=".35" transform="matrix(0 1 -1 0 313.317642 -160.020432)"/><path d="m233.975316 82.09671h5.387442v5.266116h-5.387442z" stroke="#009fe3" stroke-width=".35" transform="matrix(0 1 -1 0 321.398804 -151.93927)"/><path d="m233.975316 89.9329887h5.387442v5.2661157h-5.387442z" stroke="#009fe3" stroke-width=".35" transform="matrix(0 1 -1 0 329.235084 -144.10299)"/><path d="m233.730381 98.0141515h5.387441v5.2661155h-5.387441z" stroke="#009fe3" stroke-width=".35" transform="matrix(0 1 -1 0 337.07131 -135.776892)"/><path d="m233.975316 105.850431h5.387442v5.266116h-5.387442z" stroke="#009fe3" stroke-width=".35" transform="matrix(0 1 -1 0 345.152525 -128.185549)"/><path d="m233.730381 113.68671h5.387441v5.266115h-5.387441z" stroke="#009fe3" stroke-width=".35" transform="matrix(0 1 -1 0 352.743868 -120.104334)"/><path d="m241.56832 66.1792677h5.387442v5.2661157h-5.387442z" stroke="#009fe3" stroke-width=".35" transform="matrix(0 1 -1 0 313.074367 -175.449715)"/><path d="m253.974153 63.889743h3.91814v3.967957h-3.91814z" stroke="#009fe3" stroke-width=".35" transform="matrix(0 1 -1 0 321.806944 -190.059502)"/><path d="m260.587415 63.8897425h3.918139v3.9679569h-3.918139z" stroke="#009fe3" stroke-width=".35" transform="matrix(0 1 -1 0 328.420206 -196.672764)"/><path d="m253.974153 70.0118355h3.91814v3.9679569h-3.91814z" stroke="#009fe3" stroke-width=".35" transform="matrix(0 1 -1 0 327.929037 -183.937409)"/><path d="m260.587415 70.0118355h3.918139v3.9679569h-3.918139z" stroke="#009fe3" stroke-width=".35" transform="matrix(0 1 -1 0 334.542299 -190.550671)"/><path d="m253.974153 76.1339285h3.91814v3.967957h-3.91814z" stroke="#009fe3" stroke-width=".35" transform="matrix(0 1 -1 0 334.05113 -177.815316)"/><path d="m260.587415 76.133929h3.91814v3.967957h-3.91814z" stroke="#009fe3" stroke-width=".35" transform="matrix(0 1 -1 0 340.664392 -184.428578)"/><path d="m253.974153 82.2560215h3.91814v3.967957h-3.91814z" stroke="#009fe3" stroke-width=".35" transform="matrix(0 1 -1 0 340.173223 -171.693223)"/><path d="m260.587415 82.2560215h3.918139v3.967957h-3.918139z" stroke="#009fe3" stroke-width=".35" transform="matrix(0 1 -1 0 346.786485 -178.306485)"/><path d="m253.974153 88.3781145h3.91814v3.967957h-3.91814z" stroke="#009fe3" stroke-width=".35" transform="matrix(0 1 -1 0 346.295316 -165.57113)"/><path d="m260.587415 88.3781145h3.918139v3.967957h-3.918139z" stroke="#009fe3" stroke-width=".35" transform="matrix(0 1 -1 0 352.908578 -172.184392)"/><path d="m253.974153 94.5002076h3.91814v3.9679569h-3.91814z" stroke="#009fe3" stroke-width=".35" transform="matrix(0 1 -1 0 352.417409 -159.449037)"/><path d="m260.587415 94.5002076h3.918139v3.9679569h-3.918139z" stroke="#009fe3" stroke-width=".35" transform="matrix(0 1 -1 0 359.030671 -166.062299)"/><path d="m253.974153 100.622301h3.91814v3.967957h-3.91814z" stroke="#009fe3" stroke-width=".35" transform="matrix(0 1 -1 0 358.539502 -153.326944)"/><path d="m260.587415 100.622301h3.918139v3.967957h-3.918139z" stroke="#009fe3" stroke-width=".35" transform="matrix(0 1 -1 0 365.152764 -159.940206)"/><path d="m253.974153 106.744394h3.91814v3.967957h-3.91814z" stroke="#009fe3" stroke-width=".35" transform="matrix(0 1 -1 0 364.661595 -147.204851)"/><path d="m260.587415 106.744394h3.918139v3.967957h-3.918139z" stroke="#009fe3" stroke-width=".35" transform="matrix(0 1 -1 0 371.274857 -153.818113)"/><path d="m241.56832 74.260431h5.387442v5.266116h-5.387442z" stroke="#009fe3" stroke-width=".35" transform="matrix(0 1 -1 0 321.155529 -167.368553)"/><path d="m241.323385 82.09671h5.387442v5.266116h-5.387442z" stroke="#009fe3" stroke-width=".35" transform="matrix(0 1 -1 0 328.746873 -159.287339)"/><path d="m241.56832 89.9329887h5.387442v5.2661157h-5.387442z" stroke="#009fe3" stroke-width=".35" transform="matrix(0 1 -1 0 336.828088 -151.695994)"/><path d="m241.323385 98.0141515h5.387441v5.2661155h-5.387441z" stroke="#009fe3" stroke-width=".35" transform="matrix(0 1 -1 0 344.664315 -143.369897)"/><path d="m241.56832 105.850431h5.387442v5.266116h-5.387442z" stroke="#009fe3" stroke-width=".35" transform="matrix(0 1 -1 0 352.745529 -135.778553)"/><path d="m241.323385 113.931593h5.387441v5.266116h-5.387441z" stroke="#009fe3" stroke-width=".35" transform="matrix(0 1 -1 0 360.581757 -127.452455)"/><path d="m273.165014 74.2604305h5.387442v5.2661157h-5.387442z" stroke="#009fe3" stroke-width=".35" transform="matrix(0 1 -1 0 352.752223 -198.965247)"/><path d="m273.165014 82.09671h5.387442v5.266116h-5.387442z" stroke="#009fe3" stroke-width=".35" transform="matrix(0 1 -1 0 360.588502 -191.128968)"/><path d="m273.165014 90.1778724h5.387442v5.2661157h-5.387442z" stroke="#009fe3" stroke-width=".35" transform="matrix(0 1 -1 0 368.669665 -183.047805)"/><path d="m273.165014 98.0141515h5.387442v5.2661155h-5.387442z" stroke="#009fe3" stroke-width=".35" transform="matrix(0 1 -1 0 376.505944 -175.211526)"/><path d="m272.920079 106.095314h5.387442v5.266116h-5.387442z" stroke="#009fe3" stroke-width=".35" transform="matrix(0 1 -1 0 384.342172 -166.885428)"/><path d="m273.165014 113.931593h5.387442v5.266116h-5.387442z" stroke="#009fe3" stroke-width=".35" transform="matrix(0 1 -1 0 392.423386 -159.294084)"/><path d="m280.758018 74.2604305h5.387442v5.2661157h-5.387442z" stroke="#009fe3" stroke-width=".35" transform="matrix(0 1 -1 0 360.345227 -206.558251)"/><path d="m280.758018 82.0967096h5.387442v5.2661157h-5.387442z" stroke="#009fe3" stroke-width=".35" transform="matrix(0 1 -1 0 368.181506 -198.721972)"/><path d="m280.513083 90.177872h5.387442v5.266116h-5.387442z" stroke="#009fe3" stroke-width=".35" transform="matrix(0 1 -1 0 376.017734 -190.395874)"/><path d="m280.758018 98.0141515h5.387442v5.2661155h-5.387442z" stroke="#009fe3" stroke-width=".35" transform="matrix(0 1 -1 0 384.098948 -182.80453)"/><path d="m280.513083 106.095314h5.387442v5.266116h-5.387442z" stroke="#009fe3" stroke-width=".35" transform="matrix(0 1 -1 0 391.935176 -174.478432)"/><path d="m280.758018 113.931593h5.387442v5.266116h-5.387442z" stroke="#009fe3" stroke-width=".35" transform="matrix(0 1 -1 0 400.01639 -166.887088)"/><path d="m288.106087 74.260431h5.387442v5.266116h-5.387442z" stroke="#009fe3" stroke-width=".35" transform="matrix(0 1 -1 0 367.693296 -213.90632)"/><path d="m288.351022 82.341593h5.387442v5.266116h-5.387442z" stroke="#009fe3" stroke-width=".35" transform="matrix(0 1 -1 0 376.019394 -206.070092)"/><path d="m288.106087 90.177872h5.387442v5.266116h-5.387442z" stroke="#009fe3" stroke-width=".35" transform="matrix(0 1 -1 0 383.610738 -197.988878)"/><path d="m288.351022 98.0141515h5.387442v5.2661155h-5.387442z" stroke="#009fe3" stroke-width=".35" transform="matrix(0 1 -1 0 391.691952 -190.397534)"/><path d="m288.106087 106.095314h5.387442v5.266116h-5.387442z" stroke="#009fe3" stroke-width=".35" transform="matrix(0 1 -1 0 399.52818 -182.071436)"/><path d="m288.106087 113.931593h5.387442v5.266116h-5.387442z" stroke="#009fe3" stroke-width=".35" transform="matrix(0 1 -1 0 407.364459 -174.235157)"/><path d="m273.10321 63.4248837v8.0811628h5.388583v-6.8567442z" stroke="#009fe3" stroke-width=".35"/><path d="m280.696214 65.1390698v6.3669767h5.143648v-4.8976744z" stroke="#009fe3" stroke-width=".35"/><path d="m288.289218 67.0981395v4.407907h5.143648v-3.1834884z" stroke="#009fe3" stroke-width=".35"/><path d="m238.812224 56.8130233 23.513819-6.3669768 2.20442 8.815814h-25.228368z" stroke="#009fe3" stroke-width=".35"/><path d="m248.609648 54.364186v4.8976745" stroke="#009fe3" stroke-width=".35"/><path d="m257.42733 51.9153488v7.3465117" stroke="#009fe3" stroke-width=".35"/><path d="m253.998232 116.319767h10.777167v7.762814h-10.777167z" stroke="#009fe3" stroke-width=".35"/><path d="m283.390505 45.5483721-13.716394 2.9386046 2.694292 7.101628 11.022102 2.4488372z" stroke="#009fe3" stroke-width=".35"/><path d="m222.401538 32.0797674h1.224678" stroke="#009fe3" stroke-width=".35"/><path d="m226.075572 32.0797674h81.073688" stroke="#009fe3" stroke-dasharray=".99" stroke-width=".35"/><path d="m308.373938 32.0797674h1.224678" stroke="#009fe3" stroke-width=".35"/><g fill-rule="nonzero"><path d="m221.911666 29.141163h1v5.55886h-1z" fill="#009fe3"/><path d="m309.108745 29.141163h1v5.55886h-1z" fill="#009fe3"/><path d="m289.513896 248.80186c-102.383087-2.203953-190.5599079 18.36628-196.6832983 45.793256-6.1233903 27.426977 71.7661353 51.180698 174.1492213 53.384651 102.383087 2.203954 190.559908-18.366279 196.683298-45.793255 6.123391-27.426977-71.766134-51.425582-174.149221-53.384652" fill="#93d5f6"/><path d="m423.983548 157.705116h16.900557v37.393744h-16.900557z" fill="#b3b2b2"/><path d="m444.55814 14.6930233h-7.103133c-3.16003-.1323853-6.240133 1.0137421-8.544638 3.1795182-2.304505 2.165776-3.639024 5.1685141-3.702143 8.3300166l-1.224678 32.5695349 33.801115 1.7141861-1.71455-33.5490698c.132414-3.1593599-1.013957-6.2388102-3.180192-8.5428273s-5.169609-3.6382534-8.331781-3.7013587z" fill="#cd982b"/><path d="m442.353719 277.453256s-5.143648 7.101628-6.368326 7.101628c-8.082875.979535-6.12339 6.61186-6.12339 6.61186h23.268883c.979742 0 1.714549-.979535 1.959485-1.95907-.068998-3.833369-.729955-7.63307-1.959485-11.264651z" fill="#e6ebee"/><path d="m449.946723 291.166744h3.184163c.979742 0 1.714549-.979535 1.959485-1.95907.228236-2.041348.145653-4.105492-.244936-6.122093-2.413436 2.135861-4.12163 4.953783-4.898712 8.081163z" fill="#de5c3a"/><path d="m436.230329 284.554884h-.244936c-8.082875.979535-6.12339 6.61186-6.12339 6.61186h12.491716c-.244936-1.469302-1.714549-6.366977-6.12339-6.61186z" fill="#de5c3a"/><path d="m461.458697 131.747442c-15.600409.530277-31.218177.203273-46.782702-.979535l-4.898713 35.263256-8.817682 51.670465c-.979742 5.877209-4.653776 60.241395-4.653776 60.241395l12.001845.489768s4.408841-21.549768 6.368326-35.018372c1.224678-6.856745 1.469613-23.263954 2.449356-25.712791.979742-2.448837 17.145493-46.527907 19.349913-52.65 1.959485 18.611163 5.143648 50.446046 5.143648 53.139767s.489871 59.261861.489871 59.261861l11.267039.979535c4.653776-31.345117 6.613261-52.894884 6.12339-58.772093-.244936-1.469303-.734807-14.44814-.734807-14.44814s5.633519-49.466511 5.633519-53.139767c-.144507-6.869811-1.131626-13.695935-2.939227-20.325349z" fill="#055273"/><path d="m461.458697 131.747442c-15.600409.530277-31.218177.203273-46.782702-.979535l-1.224678 8.815814c8.621618-.832783 17.322334-.170012 25.718239 1.95907 4.898712 1.469302 10.04236 3.918139 12.736652 8.57093 2.369372 4.965714 3.543707 10.41683 3.429099 15.917442 0 5.142558-.489872 10.285116-.734807 15.427674-.244936 5.142558 0 15.427675-.244936 23.01907-.417319 17.154764-2.054352 34.258138-4.898712 51.180698-1.067325 7.659729-3.559616 15.051961-7.348069 21.794651l11.267039.979535c4.653776-31.345117 6.613261-52.894884 6.12339-58.772093-.244936-1.469303-.734807-14.44814-.734807-14.44814s5.633519-49.466511 5.633519-53.139767c-.144507-6.869811-1.131626-13.695935-2.939227-20.325349z" fill="#010101" opacity=".2"/><path d="m413.941188 202.763721c-1.753527 5.825415-2.902616 11.815823-3.429099 17.876512-5.633519 42.854651-14.206265 57.30279-14.206265 57.30279l12.001845.489768s4.408841-21.549768 6.368326-35.018372c1.224678-6.856745 1.469613-23.263954 2.449356-25.712791.979742-2.448837 17.145493-46.527907 19.349913-52.65.489871 5.877209.244936-7.346512.244936-7.346512s-20.819527 39.916047-22.779012 45.058605z" fill="#010101" opacity=".2"/><path d="m415.410801 101.871628 1.959485-8.815814 3.91897-35.997907s-7.593004 1.4693023-9.062618 5.6323256c-4.078285 13.0589005-7.189214 26.4003228-9.307553 39.9160464-.979742 6.122093-.244935 7.591395 2.449356 9.060698 2.694292 1.469302 14.451202 3.183488 28.412532 4.407907v-9.060698z" fill="#e2e1e1"/><path d="m465.377667 58.5272093s-26.942918-9.0606977-48.252316 0l1.224678 14.937907-1.714549 21.7946511-3.674035 45.0586046 50.211801-2.448837s-4.408841-20.570233-3.674034-35.997907c.244936-6.3669768 5.878455-43.3444187 5.878455-43.3444187z" fill="#aabfcf"/><path d="m428.88226 80.5667442c.489871-8.815814 3.429099-17.1418605 4.653777-25.9576744-6.019884.8310406-11.932541 2.3088916-17.635364 4.4079069l1.469613 16.6520931c-.10676 2.7968139-.43436 5.5808242-.979742 8.3260465-1.469614 7.836279.244936 11.5095349.244936 11.5095349s-5.878455 75.6690698-11.75691 94.0353488c.244936 1.224419 1.714549.734651 4.653777 5.142558 2.939227 4.407907 6.858197 2.938605 6.858197 2.938605-.244936-8.815814 10.04236-70.526512 11.267038-82.28093h6.123391c.244935-5.632326-5.143648-30.8553493-4.898713-34.7734888z" fill="#e8e9e8"/><path d="m465.377667 58.5272093s-7.83794-2.2039535-18.125236-4.1630233c0 .4897675.244936 1.2244187 0 1.7141861-.979742 7.1016279-9.062617 47.0176749-9.062617 55.8334879 0 8.815814 3.674034 79.342326 4.163905 88.403024 2.977165-.573623 5.920775-1.30937 8.817682-2.203954 2.204421-.734651 13.716395-.244883 13.716395-7.346511-.734807-14.44814.489871-33.793954 0-42.364884-.489872-8.57093-5.63352-37.467209-5.388584-46.527907.244936-9.0606978 5.878455-43.3444187 5.878455-43.3444187z" fill="#e8e9e8"/><path d="m459.499212 101.871628c.244936-3.4283722 1.959485-15.4276745 3.429099-25.9576745-1.469614 2.2039535-6.858198-.9795349-7.83794.7346512-4.163905 5.8772093-3.184163 18.6111627-10.777167 20.5702325-3.429099.9795349-8.327811 0-12.001845 0h-12.246781c-1.232589-.3713423-2.392408-.9511294-3.429098-1.714186v2.4488372h1.469613c8.082875 1.4693023 24.248626 5.8772096 32.331501 3.1834886 8.082876-2.6937212 8.327811 8.081163-1.469613 11.509535-9.797425 3.428372-23.513819 2.448837-34.046051.734651v2.448837c4.898713-1.224419 11.267038.244884 16.900558 1.714186 5.633519 1.469302 17.390428 4.897674 22.534076 11.264651 2.694292 1.95907 6.613262 18.856047 6.12339 22.039535l4.898713-2.693721s-6.613262-30.855349-5.878455-46.283023z" fill="#010101" opacity=".1"/><path d="m434.025908 42.3648837-.489871 14.937907c-.066178 1.7538984.567862 3.4621359 1.762406 4.7482954s2.851561 2.0446909 4.60592 2.1084488c3.674034 0 7.593004-5.6323256 7.593004-9.3055814l-1.714549-12.2441861z" fill="#f7c5ac"/><path d="m434.025908 42.3648837v9.3055814c.489871 1.7141861 2.449356 1.9590698 5.388584 1.4693023 2.906756-.3929469 5.588773-1.7769201 7.593004-3.9181395l-.979743-6.6118605z" fill="#010101" opacity=".1"/><path d="m428.147453 37.9569767c-.244935 6.1220931 2.939228 12.9788373 8.327811 13.4686047 5.388584.4897674 13.96133-4.407907 13.96133-10.7748837l.489872-13.4686047-22.289141-.7346511z" fill="#f7c5ac"/><path d="m448.232174 40.405814c.244935 8.3260465-1.469614 8.8158139-1.469614 8.8158139l1.959485.9795349 3.429099-5.8772093.734806-17.3867442-7.103132-.9795349c1.408727 4.6967599 2.231416 9.5495941 2.449356 14.4481396z" fill="#ce9b25"/><path d="m443.088526 26.9372093c2.027269.1056169 3.682894 1.6574373 3.91897 3.6732558l3.429098-1.2244186v-4.1630232h-7.103133z" fill="#ce9b25"/><path d="m396.550759 277.453256s-10.532231 7.101628-13.96133 7.591395c-8.082875.734651-6.613261 6.122093-6.613261 6.122093h32.576436c.937406-.209783 1.631013-1.002309 1.71455-1.95907-.058539-3.815194-.635332-7.604744-1.71455-11.264651z" fill="#e6ebee"/><path d="m406.593119 284.799767c-2.467138 1.271698-4.191331 3.630621-4.653776 6.366977h6.613261c.937406-.209783 1.631013-1.002309 1.71455-1.95907-.030749-1.886616-.194445-3.76872-.489872-5.632325z" fill="#de5c3a"/><path d="m384.79385 286.024186-.489872-.734651-.489871-.489768h-1.224678c-8.082875.734652-6.613261 6.122093-6.613261 6.122093h10.287295c-.23925-1.326336-.566554-2.635277-.979742-3.918139z" fill="#de5c3a"/><path d="m429.862003 291.166744h23.268883c.979742 0 1.714549-.979535 1.959485-1.95907h-25.473304c-.098706.663135-.014001 1.340632.244936 1.95907z" fill="#2f5a71"/><path d="m375.976168 291.166744h32.576436c.937406-.209783 1.631013-1.002309 1.71455-1.95907h-34.290986c-.114466.64801-.114466 1.311061 0 1.95907z" fill="#2f5a71"/><path d="m433.780973 115.340233 4.653776-.489768 5.878455-.979535-10.532231-3.673256z" fill="#f7c5ac"/><path d="m417.370286 73.2202326 1.71455 20.5702325 18.125235 6.6118609-1.224678-25.7127911z" fill="#878787"/><path d="m413.696252 76.1588372 1.469614 21.7946512c3.674034 8.0811626 19.839785 3.6732556 19.839785 3.6732556l-1.71455-23.9986045z" fill="#19a5d2"/><path d="m433.291101 77.6281395 1.71455 23.9986045 1.469613-1.224418-1.959485-23.7537213z" fill="#0fb8ed"/><path d="m414.675995 75.424186-.979743.7346512 19.594849 1.4693023c.489872 0 .979743-.2448837.979743-.4897674.135274 0 .244935-.1096382.244935-.2448837 0-.1352456-.109661-.2448837-.244935-.2448837z" fill="#0fb8ed"/><path d="m414.431059 75.424186-.489871.7346512 19.594849 1.2244186c.979742-.2448837.734807-.7346511.734807-.7346511z" fill="#f1ece6"/><path d="m435.985393 74.6895349 1.224678 25.7127911 3.674034 1.714186-2.20442-28.8962794c-.706086.7802674-1.655856 1.2982139-2.694292 1.4693023z" fill="#949494"/><path d="m417.370286 73.2202326 18.615107 1.4693023c1.045118-.1513556 2.001182-.6727344 2.694292-1.4693023l-19.104978-1.4693024z" fill="#949494"/><path d="m417.860158 72.9753488 18.615106 1.4693024s1.71455 0 1.71455-.9795349l-18.860043-1.4693023z" fill="#f1ece6"/><path d="m414.92093 92.5660465-2.449356 2.4488372c-.489871.2448837-.489871.7346512-.489871 1.2244186l.734807 5.3874417s.734807 1.469303 4.163905 2.203954l7.103133.979535.979742-2.693721c.163578-.796762.497821-1.548649.979743-2.2039539l-10.777167-4.4079069z" fill="#f7c5ac"/><path d="m464.887796 58.5272093c-7.348069-.9795349-8.082876 9.7953488-8.082876 9.7953488l-7.103133 32.5695349-24.983432-1.714186c-1.769218 1.813749-2.585273 4.352048-2.204421 6.856744 0 0 19.349914 8.081163 25.963175 8.326047 3.521109.252342 7.032867-.604003 10.042361-2.448838 6.726625-14.2594257 10.872973-29.5976607 12.24678-45.3034879.235228-3.755399-2.232518-7.1478306-5.878454-8.0811628z" fill="#e2e1e1"/><path d="m418.8399 93.055814c-.979742-.9795349-2.20442-2.4488373-2.939227-1.9590698-.734807.4897674 1.714549 3.6732558 2.449356 4.1630232.734807.4897675 0 2.9386047 0 2.9386047s6.12339 1.2244186 6.12339 1.2244186c.244936-3.9181395-4.408841-5.3874419-5.633519-6.3669767z" fill="#f7c5ac"/><path d="m157.4936 281.616279c-.244936-2.938605 1.469614-4.652791.244935-19.590698-.244935-1.959069 13.471459-2.448837 13.471459-2.448837-.734807 7.346512-2.694292 11.754419 4.408841 20.570233 1.71455 1.95907 6.123391 5.632325 7.593004 7.101628 1.469614 1.469302 2.449356 6.366976-4.163905 6.366976-6.613262 0-14.941073-2.693721-16.900557-6.61186h-.734807s-3.429099 2.203953-3.91897-5.387442z" fill="#010101"/><path d="m142.307592 270.106744-12.736652-1.714186c-.166874 1.901739-.494627 3.785921-.979743 5.632326-1.460126 5.589212-4.425209 10.671135-8.572746 14.693023-1.540423 1.636496-2.181002 3.923791-1.714549 6.122093v.979535s.734806 3.918139 3.429098 3.918139 13.226523-1.714186 14.451201-3.673255c.462156-.64349.718357-1.411927.734807-2.203954h.244936s.979742-4.407907 2.449356-4.163023c1.690668-1.762495 2.171967-4.360959 1.224678-6.611861-1.469614-4.407907 1.469614-12.978837 1.469614-12.978837z" fill="#010101"/><path d="m185.906131 129.543488c0 1.469303.734807 5.142559.734807 6.366977.489871 13.713488.734807 21.549768.734807 24.97814s-3.674034 47.262558-6.613262 57.057907c-2.939227 9.795348-6.368326 47.507441-4.408841 50.446046s.489871 11.754419.489871 11.754419-21.309398-1.469303-21.799269 2.448837c0 0-1.469614-1.469302-.734807-10.040233 1.224678-15.427674 3.674034-23.753721 4.653777-53.384651.244935-5.877209 3.429098-37.712093 5.878454-47.262558 1.224678-4.163023-10.287296 44.07907-14.206265 58.037442 0 0-7.348069 29.875814-5.878455 42.609767 1.469614 12.733954-2.204421 13.223721-2.204421 13.223721s-14.451201-4.897674-21.554334-.734651c-.521589-3.907523-.438978-7.872005.244936-11.754418 1.224678-8.815814 8.817682-36.732559 10.04236-49.221628 1.224678-12.48907 3.91897-42.364884 4.898712-60.241396.772313-12.184424 4.199795-24.0527 10.042361-34.773488 2.20442-3.673256 39.679569.489767 39.679569.489767z" fill="#cbbba0"/><path d="m174.149222 216.966977c-.489872 1.714186-.734807 3.183488-.979743 4.407907-2.20442 8.815814.734807 5.632325-.489871 10.774883-1.224678 5.142559-3.674034 31.834884-3.674034 33.54907s-10.777167 4.163023-8.572747 5.632326c2.204421 1.469302 10.287296-1.224419 10.287296 0 0 1.224418-6.12339 3.183488-6.12339 3.183488 4.39547.421679 8.811896.585215 13.226523.489768.734807-.489768-1.469614-3.673256-.979743-7.591396 2.204421-20.325349-.489871-30.855349 2.449356-40.405814 2.939228-9.550465 8.817683-69.057209 7.593005-75.179302-1.224679-6.122093-1.469614 6.366977-1.469614 6.366977-.734807 17.631628-7.83794 46.038139-11.267038 58.772093" fill="#010101" opacity=".1"/><path d="m164.841668 167.990233c-3.91897 8.081162-14.206265 51.180697-16.16575 57.30279-1.31138 4.407162-3.383742 8.551008-6.123391 12.244186-1.469613 1.714186-8.32781 31.100233-7.103132 36.242791 3.674034.244884 7.348068-.489767 7.593004 1.469302.244935 1.95907-9.552489 1.224419-9.552489 1.224419l11.511974 5.387442c.696558-2.968709 1.025604-6.011744.979742-9.060698 0-5.387442 1.714549-28.406512 5.388583-40.405814 3.674035-11.999302 4.163906-20.325349 7.103133-32.814418 2.939228-12.48907 6.368326-31.59 6.368326-31.59z" fill="#010101" opacity=".1"/><path d="m169.985316 63.9146512-2.20442.2448837-.489872-4.407907 4.163906-.4897674.244935 1.9590697z" fill="#6e150e"/><path d="m166.066346 64.4044186 1.71455-.2448837-.489872-4.407907-4.408841.4897674.244936 1.9590698z" fill="#991915"/><path d="m155.044244 50.6909302c1.469613 6.6118605 11.267038 8.5709303 11.267038 8.5709303l-5.388584 8.8158139-9.552489-12.4890697z" fill="#fff"/><path d="m168.515702 59.5067442 7.103133 6.122093s.979743-8.3260465.244936-9.7953488c-.734807-1.4693024-1.959485-1.9590698-1.959485-1.9590698s.489871.9795349-1.224678 3.1834884-4.163906 2.4488372-4.163906 2.4488372z" fill="#fff"/><path d="m168.270767 67.0981395c-.734807.2448838-2.204421 1.7141861-2.939228 1.4693024-.734806-.2448838-.979742-.7346512 0-1.9590698.979743-1.2244186 2.449357-2.2039535 2.939228-.9795349s0 1.4693023 0 1.4693023z" fill="#cc9584"/><path d="m169.495445 43.5893023c-.322717 3.603361.53709 7.2137814 2.449356 10.2851163 1.469614 3.1834884-2.694292 12.4890698-4.653777 12.4890698s-15.430943-8.3260465-15.430943-8.3260465 4.163905-.4897675 4.163905-18.3662791c0-2.6937209 13.471459 3.9181395 13.471459 3.9181395z" fill="#d2a292"/><path d="m150.145531 32.3246512c.327541 4.5850131 1.232797 9.1103342 2.694292 13.4686046.489871.2448837 0 3.1834884-.489871 2.9386047-.489871-.2448838 1.959485.9795348 2.939227 0 1.250471-4.6326901 1.908874-9.4051031 1.959485-14.2032558-.244935-.7346512-7.103133-2.2039535-7.103133-2.2039535z" fill="#5a402c"/><path d="m156.268922 35.2632558c-.489871-7.1016279-2.449356-14.4481395 8.327811-14.937907 1.961469-.1873903 3.939376-.104995 5.878454.2448838l1.959485-.7346512c2.638094.5825769 4.829585 2.4084331 5.878455 4.8976744.966897 3.1690904 1.299817 6.4975886.979742 9.7953489 0 1.2244186-.734806 2.6937209-.734806 3.9181395s0 2.4488372-.244936 3.6732558c-.462295 4.7156697-2.538745 9.1271904-5.878455 12.4890698-.892401.7303027-2.035487 1.0819469-3.184163.9795349-3.416751-.1924819-6.680534-1.4805441-9.307553-3.6732559-1.519361-2.3767103-2.520852-5.0467864-2.939227-7.836279-2.126896-1.1989242-3.641531-3.2477027-4.163906-5.6323256-.489871-2.6937209.734807-4.407907 3.429099-3.1834884z" fill="#e0ac9c"/><path d="m168.760638 19.8355814v-.7346512s-2.939227-1.4693023-2.449356-1.4693023 1.224678-.9795349 1.959485.4897674l-1.469614-2.4488372 6.613262 1.9590698c.927327-.1268106 1.87096.0447225 2.694292.4897674l1.714549 1.2244187s0 1.2244186-.244936-.2448838c-.244935-1.4693023 2.449356 3.6732558 2.449356 6.1220931.214326.797526.297058 1.6246721.244936 2.4488372.267747 2.5296922.185326 5.0842147-.244936 7.5913953l-.734807.4897675s1.224679-8.5709303-2.20442-11.0197675-11.267038-.2448837-11.267038-.2448837z" fill="#5a402c"/><path d="m150.635403 24.9781395c.979742-2.2039535 2.449356-5.6323255 4.163905-6.3669767s6.368326-1.7141861 12.001845-3.9181395c0 0-4.898712 1.9590697-5.143648 3.1834883h.244936c.489871-.9795349 8.817682-3.9181395 8.572746-3.1834883-.244935.7346511-1.959485 1.2244186-1.224678 2.6937209h-.244935c-.244936-1.7141861 1.714549-3.1834884 2.939227-3.6732558 1.224678-.4897675 1.959485 1.9590697 3.674034 4.4079069 1.71455 2.4488373 3.674034 5.6323256 1.469614 7.3465117-2.204421 1.714186-8.817682.7346511-12.001845.9795349-2.132875-.0736161-4.12424 1.0640658-5.143648 2.9386046-.66573 2.7313471-1.075724 5.518719-1.224678 8.3260465l-1.959485-.9795349-1.469614-2.9386046-4.653776 1.9590698s-2.204421-6.3669768 0-10.7748838z" fill="#5a402c"/><path d="m181.252354 35.997907c-1.810548-.2244812-3.648204-.0574569-5.388583.4897674h-3.674034c-1.71455 0-6.123391-.7346511-7.348069-.4897674l-10.287296-1.7141861.489872.7346512 9.307553 2.4488372c0 1.4693023.244936 3.4283721.979742 3.6732558.734807.2448837 6.613262.9795349 7.103133-.2448837l.734807-3.4283721c.617264-.3061837 1.342221-.3061837 1.959485 0 .163071 1.0784029.408729 2.1426943.734807 3.1834884.244936 1.2244186 2.939227.9795349 4.408841.7346511 1.469614-.2448837 1.469614-4.6527907.979742-5.3874418zm-9.552489 3.9181395c-.489871 1.2244186-4.653776.7346512-5.878454.2448837-1.224678-.4897674-.734807-3.1834883-.489872-3.4283721.244936-.2448837 6.368326.4897675 6.858198.4897675-.013498.9187812-.179026 1.8289915-.489872 2.6937209zm8.327811.2448837c-.734807.4897675-3.429098.4897675-3.674034 0-.292598-1.0343161-.375868-2.1165998-.244935-3.1834883.489871.2448837 4.163905-.4897675 4.408841 0 .244935.4897674.244935 2.9386046-.489872 3.1834883z" fill="#26282d"/><path d="m140.593042 120.482791-.979742-28.6513957 1.714549-6.8567441.489872 7.3465116 1.959484 27.9167442-1.959484 23.263953z" fill="#010101" opacity=".1"/><path d="m120.753258 115.095349c-.08639 1.736888.601025 3.422849 1.87733 4.604363 1.276306 1.181515 3.010443 1.737255 4.735931 1.51773l13.226523-1.714186v.979535l.489872 8.57093v4.407907l-2.939228 16.407209c16.410686 0 32.331501-1.714186 48.742188-1.469302l-.489872-10.53-1.224678-17.631628.489871-23.2639535c0 3.4283725.979743 22.2844185.979743 22.2844185s12.736652 15.917442 18.370171 4.652791c2.920366-5.524998 5.220421-11.356044 6.858197-17.386744l-13.96133 7.836279-2.694292-43.8341864c-1.501583-3.7863714-4.821815-6.5526455-8.817682-7.3465116l-24.00369-8.815814h-.734807l-24.00369 8.815814c-3.996327.9124638-7.343633 3.625921-9.062618 7.3465116l-7.103132 40.6506974zm16.900557-9.305582 1.959485-13.7134879.489871 13.7134879z" fill="#26282d"/><path d="m162.147377 70.2816279 3.918969-.4897674 5.633519-12.2441861-9.307553-3.4283721h-.979742l-7.83794 2.9386047z" fill="#d2a292"/><path d="m121.488065 111.177209 7.103132-40.6506974c1.029552-2.1873451 2.639134-4.0506767 4.653777-5.3874418-2.939227 5.3874418-4.163905 14.6930232-4.408841 15.4276744-1.224678 7.3465116-1.469614 14.6930232-2.939227 22.2844188-.734807 3.428372-1.959485 8.57093.734806 11.754418 2.694292 3.183489 29.63721.979535 36.985278 0 7.348069-.979534-.244935-7.346511-.244935-7.346511h-5.63352l-17.635364-1.469303s-.489871-11.7544182-.489871-13.7134879c.397151 4.052764 2.431985 7.7677601 5.633519 10.2851159 3.91897 2.448838 9.062618 2.448838 13.471459 2.203954 8.910597-.167246 17.823613.159768 26.697982.979535l.734807 14.203256-10.532232.734651c-1.138495.154031-2.204428-.591964-2.449356-1.714186-.244935-1.224419.244936-2.448838-1.469614-2.448838-8.817682-.489767-18.860042 3.428373-26.942917 6.856745l-3.674034 2.693721-.489872-5.387442v-.979535l-13.226523 1.714186c-1.725488.219525-3.459625-.336215-4.735931-1.51773-1.276305-1.181514-1.96372-2.867475-1.87733-4.604363z" fill="#010101" opacity=".14"/><path d="m182.721968 91.5865116h36.740342c1.959485 0 2.449356.7346512 2.449356 2.2039535l-4.653776 23.9986049c0 1.469302-1.224678 2.203953-2.694292 2.203953h-36.495407c-1.469613 0-2.694291-.734651-2.694291-2.203953l4.408841-23.2639537c-.076792-.8004472.208111-1.5933389.776831-2.1619381s1.361779-.853442 2.162396-.7766666z" fill="#9abccc"/><path d="m168.025831 105.055116 8.082876-3.183488h2.449356l-2.204421 11.264651-4.163905 1.469302c-1.827813.364915-3.725233.106231-5.388584-.734651l-3.184163.734651.734807-7.101628z" fill="#be8c70"/><path d="m188.355487 105.055116-1.714549 4.897675c-.364816 1.397564-1.514979 2.451657-2.939227 2.693721l-8.327811 2.448837-6.123391-.489768-1.714549-.489767-3.91897.489767-1.224678-7.346511 11.267038-3.183489z" fill="#be8c70"/><path d="m190.559908 104.810233c.714825.120729 1.234806.744573 1.224823 1.469302-.226326.504985-.682401.869767-1.224823.979535h-13.471459l.489871-3.673256z" fill="#be8c70"/><path d="m139.6133 154.276744-24.493561-3.673256-20.574592-4.407907c-1.8181982 5.210419-2.8902014 10.651743-3.184163 16.162326 0 8.081163 3.9189699 47.997209 3.9189699 50.201163 0 2.203953-1.2246781 18.366279-1.9594849 25.467907-.7348069 7.101628-2.2044206 55.098837-2.2044206 55.098837l9.3075536 2.203953 11.511974-75.669069 5.388583-43.589303 3.674034 40.160931s-.489871 12.244186-1.469613 20.325348c-1.71455 15.917442 1.714549 58.52721 1.714549 58.52721h8.817682l6.613262-72.485582s4.163905-42.609767 3.918969-49.956279c-.244935-7.346511-.734806-16.407209-.979742-18.366279z" fill="#182e38"/><path d="m94.545147 146.195581c-1.8181982 5.210419-2.8902014 10.651743-3.184163 16.162326 0 8.081163 3.9189699 47.997209 3.9189699 50.201163 0 2.203953-1.2246781 18.366279-1.9594849 25.467907-.7348069 7.101628-2.2044206 55.098837-2.2044206 55.098837l2.9392274.734651c1.7145493-23.753721 5.3885835-52.894884 5.6335191-76.893488.2449356-20.325349-9.3075533-34.528605-2.9392273-54.364186 1.9594849-5.632326 27.4327884-2.938605 43.1086684-6.122093l-21.309399-5.142558z" fill="#010101" opacity=".1"/><path d="m108.261541 299.003023-7.837939-5.387442-9.3075536-.489767c-1.2484929 3.647807-2.0704158 7.427851-2.4493561 11.264651h25.9631747s-.244935-4.652791-6.368326-5.387442z" fill="#829ba9"/><path d="m124.672228 231.170233c.019823-16.388376-2.20527-32.702267-6.613262-48.486977l2.939227 33.54907s-.489871 12.244186-1.469613 20.325348c-1.71455 15.917442 1.714549 58.52721 1.714549 58.52721h2.939227c-.857677-10.349012-.857677-20.751221 0-31.100233.489872-10.774884.734807-21.794651.489872-32.814418z" fill="#010101" opacity=".1"/><path d="m142.307592 299.003023-12.246781-5.632325h-8.817682s-3.429099 6.856744-2.939227 11.264651h30.372016s-.244936-4.652791-6.368326-5.632326z" fill="#829ba9"/><path d="m152.839823 168.969767c.056726-2.377261-.107267-4.754658-.489871-7.101627-.166992-1.103839-.497181-2.176728-.979743-3.183489l-6.613261-32.814418v-45.3034888l-13.96133-.7346512 3.674034 45.548372s1.469614 9.060698 2.204421 11.754419c2.116058 6.797384 4.735963 13.427613 7.837939 19.835581-.680743 1.968068-1.01231 4.039919-.979742 6.122093.489871 1.469302.734807 5.387442.979742 6.366977l-.489871 2.448837-1.469614 3.428372c-.279586.690089-.081639 1.48171.489872 1.95907l2.449356-2.938605v.489768l-.734807 3.673256s-.489871 1.469302.734807 1.959069l.734807-1.224418s-.489872 1.469302.734806 1.959069l2.694292-4.897674-.489871 1.95907c-.16325.738321.260635 1.479962.979742 1.714186l1.71455-3.183488z" fill="#866552"/><path d="m138.388622 121.217442c0-6.611861 3.184163-12.48907 3.184163-19.10093-.01965-2.5096631 1.164217-4.8768961 3.184163-6.3669771v-15.1827907l-13.96133-.7346512 3.674034 45.548372s1.469614 9.060698 2.204421 11.754419c2.116058 6.797384 4.735963 13.427613 7.837939 19.835581-.680743 1.968068-1.01231 4.039919-.979742 6.122093.489871 1.469302.734807 5.387442.979742 6.366977l-.489871 2.448837-1.469614 3.428372c-.279586.690089-.081639 1.48171.489872 1.95907l2.449356-2.938605v.489768l-.734807 3.673256c-.150767.394222-.150767.830196 0 1.224418.167575-1.329933.673572-2.594656 1.469614-3.673256 6.858197-10.040232.244935-23.263953-3.184163-33.549069-2.204421-6.611861-4.898713-14.203256-4.653777-21.304884z" fill="#010101" opacity=".1"/><path d="m145.001884 78.117907-.979743-2.2039535c-1.395036-2.9026232-3.990224-5.0499096-7.103133-5.8772093l-19.839784-7.1016279h-1.71455l-19.5948489 6.8567442c-3.6612016 1.1107566-6.6290134 3.8081957-8.0828753 7.3465116l-5.6335191 11.5095349c.9797425.4897674 8.5727465 6.8567442 15.6758793 7.5913953l-.4898712 33.0593027-4.8987123 21.304883c-.523519 2.004286-.8516318 4.054556-.9797425 6.122093 16.165751 0 32.821372-3.183488 48.497252-.244883-.244936-2.448838-.489872-4.897675-.734807-6.122093l-5.388584-20.080465 1.224678-23.263954c2.382611-1.590195 3.844051-4.238494 3.91897-7.1016279v-.7346511s-.244935-1.7141861-.489871-4.1630233c3.674034-1.2244186 7.103133-2.6937209 7.83794-2.6937209z" fill="#f0f2f4"/><path d="m139.858236 99.177907s0-2.2039535-.244936-4.8976744l-4.408841-24.7332559-9.797425-3.6732558c.716997 4.1262912.799595 8.3378495.244936 12.4890698-.848374 4.7178541-2.24584 9.3202932-4.163905 13.7134884 0 0-4.898713-6.3669768-8.572747-12.2441861-2.469015-4.4214918-4.440523-9.1028321-5.878455-13.9583721l-11.2670379 3.9181396c0 .2448837 5.1436479 13.9583721 1.7145493 26.4474418h.2449356l-.4898712 33.0593027-4.8987123 21.304883c-.523519 2.004286-.8516318 4.054556-.9797425 6.122093 10.240232 1.25471 20.545164 1.908853 30.861887 1.95907.734807 0 1.71455-2.938604 1.71455-2.938604s.979742 2.938604 1.959485 2.938604c4.735871-.056022 9.438587-.798399 13.96133-2.203953-.244936-2.448838-.489872-4.897675-.734807-6.122093l-5.388584-20.080465 1.224678-23.263954c2.727237-1.743911 4.525901-4.621164 4.898713-7.836279z" fill="#f07f2e"/><path d="m95.0350183 138.604186-1.2246781 5.387442c5.8784547 1.95907 41.3941188 1.469302 43.8434748.979535l-1.469614-5.87721c-6.858197.489768-35.025792 1.469303-41.1491827-.489767z" fill="#dadada"/><path d="m97.9742456 125.380465h-.7348068v5.142558h.2449356c2.9392276.979535 16.9005576.734651 20.5745916.979535l16.165751-.489767v-6.122093c-12.246781.489767-24.248626.979535-36.2504714.489767z" fill="#dadada"/><path d="m97.72931 96.2393023-.4898712 33.0593027-4.8987123 21.304883c-.523519 2.004286-.8516318 4.054556-.9797425 6.122093h1.7145493c1.5253014-7.02757 3.6560254-13.909989 6.368326-20.570232 3.4290987-7.836279-.4898712-39.4262792-1.7145493-39.9160467z" fill="#010101" opacity=".1"/><path d="m120.018451 17.8765116c-16.900557-1.4693023-24.4935615 7.3465117-24.7384971 18.6111628-.4898713 16.1623256 7.1031331 21.06 18.6151071 21.3048837 11.511973.2448838 21.554334-.4897674 22.044205-20.0804651.489871-12.9788372-4.653777-18.8560465-15.920815-19.8355814z" fill="#312b2b"/><path d="m128.346262 37.4672093h-11.511974c-4.015846-.148197-7.45178 2.8576079-7.83794 6.8567442-.556731 3.565097-.639092 7.1881802-.244935 10.7748837 2.694291 6.6118605 8.082875 11.7544186 15.430943 6.3669768 4.248786-3.1598382 6.711425-8.1752617 6.613262-13.4686047v-7.3465116c.040575-1.5071662-.981899-2.8361007-2.449356-3.1834884z" fill="#866552"/><path d="m109.241284 67.8327907c.078532 4.3350424 3.298263 7.9694532 7.593004 8.5709302 4.077678-.4977168 7.133409-3.9741904 7.103133-8.0811628v-14.6930232l-14.696137-.4897675z" fill="#866552"/><path d="m113.895061 60.2413953c2.504766 3.0095842 6.694743 4.0069865 10.287295 2.4488373v-1.4693024c-4.653776 2.693721-10.287295-.9795349-10.287295-.9795349z" fill="#010101" opacity=".1"/><path d="m148.675918 167.010698c.591795 2.067452.758438 4.233356.489871 6.366976 0 0 .489871 1.714186 1.714549.734652 1.224678-.979535 1.224678-5.87721 1.224678-5.87721l-3.429098-7.591395c-.573461 2.083604-.573461 4.283372 0 6.366977z" fill="#866552"/><path d="m107.281799 112.401628c-6.160207-2.78131-13.3854817-1.625511-18.3701711 2.938605-2.2044205 1.469302-3.184163 5.387441-4.1639054 10.53-.9797425 5.142558 8.8176821 21.304883 9.7974245 22.529302l5.633519 6.856744c.66133.711142 1.510531 1.220555 2.449356 1.469302 3.503819.073664 6.965932-.770575 10.04236-2.448837.751651-.408125 1.288194-1.123363 1.469614-1.95907l3.91897-9.795348c2.939227-8.081163 1.469614-11.509535.489871-16.162326-.979742-4.652791-7.103133-11.999302-11.267038-13.958372z" fill="#f9ae13"/><path d="m93.8103402 112.891395c-8.3278109 3.428372-11.7569095 14.203256-7.593004 24.488372 4.1639054 10.285117 13.9613298 15.917442 22.5340768 12.48907 8.572746-3.428372 12.001845-14.448139 7.837939-24.733256-4.163905-10.285116-14.206265-15.427674-22.7790118-12.244186z" fill="#fdc851"/><path d="m97.9742456 128.31907c-1.1687111-5.813907.8914624-11.805869 5.3885834-15.672558-5.5313984-1.317533-11.3427034.462973-15.1860079 4.65279 0 0-2.6942918 4.407907 0 13.958372 2.0379724 6.040259 4.4932404 11.931654 7.3480684 17.631628 8.5727465 6.611861 18.6151065-2.938604 18.6151065-2.938604s-14.6961367-9.550465-16.1657504-17.631628z" fill="#fed476"/><g fill="#010101" opacity=".2" transform="translate(120.018451 90.606977)"><path d="m3.91896983 55.3437209v-10.2851162c-.24493562-3.6732559-.24493562-7.5913954-.24493562-11.5095349 0-3.9181396-.24493561-4.1630233-.24493561-6.1220931v-5.6323255c.17307463-3.3481126.09119327-6.704537-.24493562-10.0402326-.24493561-3.18348837-.73480684-5.63232558-.97974245-7.34651162-.24493562-1.71418605-.24493562-1.46930233-.24493562-1.95906977s-.24493561-.24488372-.24493561-.48976744c0 .24488372 0 .24488372.24493561.48976744v2.20395349c0 1.71418604.24493562 4.16302325.48987123 7.1016279.24493561 2.9386047.24493561 6.3669767 0 10.0402326-.20362326 1.9520847-.28542686 3.9149552-.24493561 5.8772093 0 1.9590697.24493561 3.9181395.24493561 5.8772093 0 1.9590697 0 7.836279.24493561 11.5095349.24493562 3.6732558.24493562 7.3465116.48987123 10.2851162.24493562 2.9386047.24493562 5.3874419.24493562 7.1016279v-7.1016279z"/><path d="m1.95948491 2.20395349c0-.0649472-.02580564-.12723434-.07173998-.17315894-.04593434-.04592461-.10823467-.07172478-.17319563-.07172478.06496096 0 .12726129.02580017.17319563.07172478.04593434.0459246.07173998.10821174.07173998.17315894z"/></g><path d="m117.569095 143.991628c-.979743.244884-2.694292 2.448837-4.408841 2.203953-2.006628-.277013-3.977514-.76963-5.878455-1.469302 0 0-.489871-1.224419 1.224678-1.469302 1.714549-.244884 4.653777-.979535 4.653777-2.938605h-8.572747l-5.8784545 1.224419-14.4512013-20.570233 11.2670383-24.7332557-11.0221026-5.8772093c-5.7874713 8.8172143-9.9361923 18.606122-12.2467807 28.896279-.2449357 1.224419-.7348069 3.183488 1.9594849 7.346512l21.0644628 21.06.7348068.489767 12.2467803 4.407907 6.613262-1.714186 2.939227-4.652791s1.469614-3.183488-.244935-2.203953z" fill="#866552"/><path d="m67.6172266 232.148781h141.5427904v9.307554h-141.5427904z" fill="#7a858e" transform="matrix(0 -1 1 0 -98.413936 375.19118)"/><path d="m295.652283 231.903898h141.542791v9.307553h-141.542791z" fill="#7a858e" transform="matrix(0 -1 1 0 129.866005 602.981353)"/><path d="m135.204459 167.990233h234.403383v20.129442h-234.403383z" fill="#7a858e"/><path d="m371.077455 181.703721-237.097674 1.95907v-6.611861h237.097674z" fill="#b9b9bd"/><path d="m383.0793 177.05093h-260.366557l-1.469614-4.407907h260.366558z" fill="#9aa3aa"/><path d="m233.387341 121.425144h4.163023v4.237386h-4.163023z" fill="#fff" transform="matrix(0 1 -1 0 359.01269 -111.925016)"/><path d="m280.941149 101.626744-41.88399 9.795349 9.797425 56.56814h32.086565z" fill="#6e5c57"/><path d="m266.979819 115.095349 33.556179 7.836279-7.837939 45.058605h-25.71824z" fill="#9c8077"/><path d="m230.729348 118.523721h22.044205v49.564465h-22.044205z" fill="#e8e0dd"/><path d="m233.387341 127.792121h4.163023v4.237386h-4.163023z" fill="#fff" transform="matrix(0 1 -1 0 365.379667 -105.558039)"/><path d="m233.387341 134.159098h4.163023v4.237386h-4.163023z" fill="#fff" transform="matrix(0 1 -1 0 371.746644 -99.191062)"/><path d="m233.387341 140.526074h4.163023v4.237387h-4.163023z" fill="#fff" transform="matrix(0 1 -1 0 378.11362 -92.824086)"/><path d="m233.387341 146.893051h4.163023v4.237386h-4.163023z" fill="#fff" transform="matrix(0 1 -1 0 384.480597 -86.457109)"/><path d="m233.387341 153.260028h4.163023v4.237386h-4.163023z" fill="#fff" transform="matrix(0 1 -1 0 390.847574 -80.090132)"/><path d="m233.387341 159.627005h4.163023v4.237386h-4.163023z" fill="#fff" transform="matrix(0 1 -1 0 397.214551 -73.723155)"/><path d="m239.510731 121.425144h4.163023v4.237386h-4.163023z" fill="#fff" transform="matrix(0 1 -1 0 365.13608 -118.048406)"/><path d="m233.387341 121.425144h4.163023v4.237386h-4.163023z" fill="#fff" transform="matrix(0 1 -1 0 359.01269 -111.925016)"/><path d="m239.510731 127.792121h4.163024v4.237386h-4.163024z" fill="#fff" transform="matrix(0 1 -1 0 371.503057 -111.681429)"/><path d="m239.510731 134.159098h4.163023v4.237386h-4.163023z" fill="#fff" transform="matrix(0 1 -1 0 377.870034 -105.314452)"/><path d="m239.510731 140.526074h4.163024v4.237387h-4.163024z" fill="#fff" transform="matrix(0 1 -1 0 384.23701 -98.947476)"/><path d="m239.265796 146.893051h4.163023v4.237386h-4.163023z" fill="#fff" transform="matrix(0 1 -1 0 390.359051 -92.335563)"/><path d="m239.265796 153.260028h4.163023v4.237386h-4.163023z" fill="#fff" transform="matrix(0 1 -1 0 396.726028 -85.968586)"/><path d="m239.265796 159.627005h4.163023v4.237386h-4.163023z" fill="#fff" transform="matrix(0 1 -1 0 403.093005 -79.601609)"/><path d="m245.389186 121.670028h4.163023v4.237386h-4.163023z" fill="#fff" transform="matrix(0 1 -1 0 371.259419 -123.681977)"/><path d="m255.223247 119.747802h3.183489v3.184163h-3.183489z" fill="#fff" transform="matrix(0 1 -1 0 378.154875 -135.475107)"/><path d="m260.611831 119.747802h3.183488v3.184163h-3.183488z" fill="#fff" transform="matrix(0 1 -1 0 383.543459 -140.863691)"/><path d="m255.223247 124.645477h3.183489v3.184163h-3.183489z" fill="#fff" transform="matrix(0 1 -1 0 383.052549 -130.577433)"/><path d="m260.611831 124.645477h3.183488v3.184163h-3.183488z" fill="#fff" transform="matrix(0 1 -1 0 388.441133 -135.966017)"/><path d="m255.223247 129.543151h3.183489v3.184163h-3.183489z" fill="#fff" transform="matrix(0 1 -1 0 387.950224 -125.679758)"/><path d="m260.611831 129.543151h3.183488v3.184163h-3.183488z" fill="#fff" transform="matrix(0 1 -1 0 393.338808 -131.068342)"/><path d="m255.223247 134.440825h3.183489v3.184163h-3.183489z" fill="#fff" transform="matrix(0 1 -1 0 392.847898 -120.782084)"/><path d="m260.611831 134.440825h3.183488v3.184163h-3.183488z" fill="#fff" transform="matrix(0 1 -1 0 398.236482 -126.170668)"/><path d="m255.223247 139.3385h3.183489v3.184163h-3.183489z" fill="#fff" transform="matrix(0 1 -1 0 397.745572 -115.88441)"/><path d="m260.611831 139.3385h3.183488v3.184163h-3.183488z" fill="#fff" transform="matrix(0 1 -1 0 403.134156 -121.272994)"/><path d="m255.223247 144.236174h3.183489v3.184163h-3.183489z" fill="#fff" transform="matrix(0 1 -1 0 402.643247 -110.986735)"/><path d="m260.611831 144.236174h3.183488v3.184163h-3.183488z" fill="#fff" transform="matrix(0 1 -1 0 408.031831 -116.375319)"/><path d="m255.223247 149.133849h3.183489v3.184163h-3.183489z" fill="#fff" transform="matrix(0 1 -1 0 407.540921 -106.089061)"/><path d="m260.856766 149.133849h3.183488v3.184163h-3.183488z" fill="#fff" transform="matrix(0 1 -1 0 413.17444 -111.72258)"/><path d="m255.223247 154.031523h3.183489v3.184163h-3.183489z" fill="#fff" transform="matrix(0 1 -1 0 412.438596 -101.191386)"/><path d="m260.856766 154.031523h3.183489v3.184163h-3.183489z" fill="#fff" transform="matrix(0 1 -1 0 418.072115 -106.824905)"/><path d="m245.389186 128.037005h4.163023v4.237386h-4.163023z" fill="#fff" transform="matrix(0 1 -1 0 377.626396 -117.315)"/><path d="m245.389186 134.403981h4.163023v4.237386h-4.163023z" fill="#fff" transform="matrix(0 1 -1 0 383.993372 -110.948024)"/><path d="m245.389186 140.770958h4.163023v4.237386h-4.163023z" fill="#fff" transform="matrix(0 1 -1 0 390.360349 -104.581047)"/><path d="m245.389186 147.137935h4.163023v4.237386h-4.163023z" fill="#fff" transform="matrix(0 1 -1 0 396.727326 -98.21407)"/><path d="m245.389186 153.504912h4.163023v4.237386h-4.163023z" fill="#fff" transform="matrix(0 1 -1 0 403.094303 -91.847093)"/><path d="m245.389186 159.871888h4.163023v4.237386h-4.163023z" fill="#fff" transform="matrix(0 1 -1 0 409.461279 -85.480117)"/><path d="m270.617554 127.792121h4.163024v4.237386h-4.163024z" fill="#fff" transform="matrix(0 1 -1 0 402.60988 -142.788252)"/><path d="m270.617554 134.159098h4.163024v4.237386h-4.163024z" fill="#fff" transform="matrix(0 1 -1 0 408.976857 -136.421275)"/><path d="m270.617554 140.526074h4.163024v4.237387h-4.163024z" fill="#fff" transform="matrix(0 1 -1 0 415.343833 -130.054299)"/><path d="m270.617554 146.893051h4.163024v4.237386h-4.163024z" fill="#fff" transform="matrix(0 1 -1 0 421.71081 -123.687322)"/><path d="m270.617554 153.260028h4.163024v4.237386h-4.163024z" fill="#fff" transform="matrix(0 1 -1 0 428.077787 -117.320345)"/><path d="m270.617554 159.627005h4.163024v4.237386h-4.163024z" fill="#fff" transform="matrix(0 1 -1 0 434.444764 -110.953368)"/><path d="m276.740945 128.037005h4.163023v4.237386h-4.163023z" fill="#fff" transform="matrix(0 1 -1 0 408.978154 -148.666758)"/><path d="m276.740945 134.403981h4.163023v4.237386h-4.163023z" fill="#fff" transform="matrix(0 1 -1 0 415.34513 -142.299782)"/><path d="m276.740945 140.770958h4.163023v4.237386h-4.163023z" fill="#fff" transform="matrix(0 1 -1 0 421.712107 -135.932805)"/><path d="m276.740945 147.137935h4.163023v4.237386h-4.163023z" fill="#fff" transform="matrix(0 1 -1 0 428.079084 -129.565828)"/><path d="m276.740945 153.504912h4.163023v4.237386h-4.163023z" fill="#fff" transform="matrix(0 1 -1 0 434.446061 -123.198851)"/><path d="m276.740945 159.871888h4.163023v4.237386h-4.163023z" fill="#fff" transform="matrix(0 1 -1 0 440.813037 -116.831875)"/><path d="m282.864335 128.037005h4.163023v4.237386h-4.163023z" fill="#fff" transform="matrix(0 1 -1 0 415.101545 -154.790149)"/><path d="m282.864335 134.403981h4.163023v4.237386h-4.163023z" fill="#fff" transform="matrix(0 1 -1 0 421.468521 -148.423173)"/><path d="m282.864335 140.770958h4.163023v4.237386h-4.163023z" fill="#fff" transform="matrix(0 1 -1 0 427.835498 -142.056196)"/><path d="m282.864335 147.137935h4.163023v4.237386h-4.163023z" fill="#fff" transform="matrix(0 1 -1 0 434.202475 -135.689219)"/><path d="m282.864335 153.504912h4.163023v4.237386h-4.163023z" fill="#fff" transform="matrix(0 1 -1 0 440.569452 -129.322242)"/><path d="m282.864335 159.871888h4.163023v4.237386h-4.163023z" fill="#fff" transform="matrix(0 1 -1 0 446.936428 -122.955266)"/><path d="m270.653854 119.258372v6.611861h4.408841v-5.632326z" fill="#fff"/><path d="m276.777244 120.727674v5.142559h4.163905v-4.163024z" fill="#fff"/><path d="m282.900634 122.196977v3.673256h4.163906v-2.693721z" fill="#fff"/><path d="m243.221065 114.115814 18.860042-5.142558 1.714549 7.101628h-20.329656z" fill="#fff"/></g><path d="m251.059004 111.177209v6.122093" stroke="#6e5c57" stroke-width=".91"/><path d="m258.162137 108.973256v9.060697" stroke="#6e5c57" stroke-width=".91"/><path d="m255.22291 161.86814h8.572746v6.220047h-8.572746z" fill="#fff" fill-rule="nonzero"/><path d="m278.981664 105.055116-11.022102 2.448837 2.20442 5.387442 8.817682 2.203954z" fill="#fff" fill-rule="nonzero"/><path d="m395.571017 63.9146512c3.91897-1.9590698 10.287296.9795348 13.471458 10.53 3.184163 9.5504651 10.287296 35.0183718 11.267039 39.4262788.979742 4.407907 4.898712 12.733954-3.184163 16.652093-8.082876 3.91814-11.511974-4.897674-14.451201-11.509535-12.981588-29.1411624-17.635365-49.4665113-7.103133-55.0988368z" fill="#f8bc96" fill-rule="nonzero"/><path d="m332.622564 119.503256c-2.449356-3.428372-6.368326-5.142558-16.655622.734651s-30.616952 20.815116-30.616952 20.815116l2.449357 5.87721s23.513818-5.87721 29.392273-8.815814c5.878455-2.938605 22.044205-9.795349 15.430944-18.611163z" fill="#f8bc96" fill-rule="nonzero"/><path d="m420.799385 120.727674c-1.469614-3.918139-4.898712-6.61186-16.410686-3.673255-11.511974 2.938604-35.270729 11.509534-35.270729 11.509534l.979743 6.366977s24.248626.979535 30.372016-.489767c6.12339-1.469303 24.248626-3.183489 20.329656-13.713489z" fill="#f8bc96" fill-rule="nonzero"/><path d="m389.202691 304.390465c3.078596-1.134007 6.288182-1.874524 9.552489-2.203953 2.20442 0 5.143648 1.959069 5.143648 3.918139s-.734807 1.714186-1.469614 2.693721-10.532231 7.591395-12.736652 7.836279c-3.085739.567073-6.255917.483665-9.307553-.244884-2.204421-.734651-2.204421-7.836279-2.204421-7.836279z" fill="#1a1a1a" fill-rule="nonzero"/><path d="m348.053508 109.21814c-4.408841-13.4686051-15.67588-36.4876749-9.062618-40.6506981 6.613261-4.1630233 33.556179-8.5709303 33.556179-8.5709303v.4897675s21.309398 2.6937209 29.882145 8.0811628c8.572746 5.3874418-.979743 27.4269767-5.388584 40.8955811-.979742 3.428372-.979742 17.876512-.489871 30.610465.244936 3.183489 2.694292 17.876512 2.204421 23.998605 0 1.714186-20.329656 12.733954-26.208111 13.223721v-.489767c-5.633519-.244884-25.963175-11.509535-26.208111-13.223721-.244935-6.122093 2.204421-20.570233 2.204421-23.753721.489871-12.978838.734807-27.426977-.489871-30.610465z" fill="#f8bc96" fill-rule="nonzero"/><path d="m351.972477 67.3430233c-3.918969-2.4488373-12.491716-2.9386047-16.410686 6.3669767s-12.736652 34.283721-13.96133 38.446744-5.633519 12.733954 1.959485 16.896977 12.001845-3.91814 15.186008-10.285116c14.941073-28.1616283 23.513819-45.3034887 13.226523-51.4255817z" fill="#f8bc96" fill-rule="nonzero"/><path d="m362.259773 56.0783721c.489871-2.4488372 1.959485-15.1827907 1.959485-15.1827907h8.327811v.4897674h8.327811s1.469614 12.4890698 2.20442 15.1827907c.734807 2.693721 7.348069 6.3669768 7.348069 6.3669768h-17.8803v-.4897675h-17.8803s6.858197-3.6732558 7.593004-6.3669767z" fill="#f5a37e" fill-rule="nonzero"/><path d="m386.018528 149.868837c10.287296 0 14.206265 7.101628 13.96133 28.896279-.244936 21.794651-3.429099 45.793256-4.898713 49.221628-1.469613 3.428372-15.920814 3.673256-17.390428 1.714186s-5.143648-47.752325-5.143648-54.853953 2.204421-24.97814 13.471459-24.97814z" fill="#f8bc96" fill-rule="nonzero"/><path d="m379.390503 221.595816h13.635486c1.10457 0 2 .895431 2 2v19.949722c0 1.10457-.89543 2-2 2h-13.635486c-1.104569 0-2-.89543-2-2v-19.949722c0-1.104569.895431-2 2-2z" fill="#f8bc96" fill-rule="nonzero" transform="matrix(-.99970149 .02443218 -.02443218 -.99970149 778.007845 457.635722)"/><path d="m386.753335 232.149767c3.184163 0 10.777167.979535 10.532231 21.549768-.244936 20.570232-9.062618 48.486977-9.062618 48.486977h-7.593004s-3.674034-37.956977-3.674034-45.058605c0-16.652093 0-24.97814 9.797425-24.97814z" fill="#f8bc96" fill-rule="nonzero"/><path d="m358.830675 149.868837c-10.042361-.979535-14.941073 5.632326-16.900558 27.426977s-1.224678 46.038139-.244935 49.466512c.979742 3.428372 15.675879 5.142558 17.145493 3.428372 1.469613-1.714186 10.04236-46.772791 10.777167-53.874419.734806-7.101628.489871-25.223023-10.777167-26.447442z" fill="#f8bc96" fill-rule="nonzero"/><path d="m343.391754 219.864778 13.635302-.000369c1.10457-.000138 2.000025.895268 2.000054 1.999837 0 .000036 0 .000073-.000108.000109l-.00054 19.949712c-.000138 1.104527-.895527 1.999916-2.000054 2.000054l-13.635302.000369c-1.10457.000138-2.000024-.895268-2.000054-1.999838 0-.000036 0-.000072.000108-.000108l.00054-19.949712c.000138-1.104527.895527-1.999916 2.000054-2.000054z" fill="#f8bc96" fill-rule="nonzero" transform="matrix(.99167116 .1287956 -.1287956 .99167116 32.776735 -43.174434)"/><path d="m349.523121 231.904884c-3.184163-.489768-10.777167-.244884-12.491716 20.325349-1.714549 20.570232 3.91897 49.221627 3.91897 49.221627l7.348068.734652s7.593004-37.46721 8.327811-44.568838c1.714549-16.407209 2.694292-24.733255-7.103133-25.71279z" fill="#f8bc96" fill-rule="nonzero"/><path d="m397.285566 145.46093c1.896226 9.222684 3.286272 18.542197 4.163905 27.916744.489872 9.795349-4.163905 52.894884-4.163905 57.547675s.244936 19.345814 0 33.54907c-.244936 14.203255-3.91897 42.364883-3.91897 42.364883l-18.370171-.489767v-69.791861c0-9.550465-2.449356-59.26186-2.449356-59.26186v-31.100233z" fill="#026a9d" fill-rule="nonzero"/><path d="m348.298443 144.726279c-2.902068 8.995603-5.273853 18.153657-7.103133 27.426977-1.714549 9.795349-1.469613 52.894884-1.959485 57.792558-.489871 4.897674-2.20442 19.10093-3.429098 33.304186s-.489871 42.609767-.489871 42.609767l18.125235 1.469303s6.368326-59.996512 7.348069-69.546977c.979742-9.550465 12.001845-59.016977 12.001845-59.016977v-32.569535z" fill="#026a9d" fill-rule="nonzero"/><path d="m391.896983 306.839302c.252881 2.769591.252881 5.556456 0 8.326047 0 1.224418-2.939228 2.203953-7.593005 2.693721-2.685762.052551-5.353648-.447571-7.837939-1.469303-2.204421-.979534.489871-10.040232.489871-10.040232z" fill="#1a1a1a" fill-rule="nonzero"/><path d="m341.440246 302.921163c-3.051275-1.223258-6.273622-1.966719-9.552489-2.203954-2.449356 0-5.388583 1.95907-5.388583 3.91814.204486.956713.721504 1.818228 1.469613 2.448837.734807.979535 10.532232 7.836279 12.736652 8.081163 3.085739.567073 6.255917.483665 9.307554-.244884 2.20442-.734651 2.20442-7.836279 2.20442-7.836279z" fill="#1a1a1a" fill-rule="nonzero"/><path d="m350.502864 181.703721c-.979743 6.366977-2.204421 49.711395-2.449356 52.160232-.244936 2.448838-6.368326 65.873721-6.613262 69.05721l-6.368326-1.95907s-.489871-23.508837.734807-37.712093 2.939227-28.651395 3.429098-33.304186c.489872-4.652791.244936-47.997209 1.959485-57.792558 1.82928-9.27332 4.201065-18.431374 7.103133-27.426977l24.248626 1.469302c.244936 35.018372-27.187853 25.712791-27.92266 27.671861s6.12339 5.387442 5.878455 7.836279z" fill="#5182b0" fill-rule="nonzero"/><path d="m388.71282 183.173023c-1.71455 8.081163-3.91897 47.99721-3.674035 48.976744.244936.979535.244936 74.199768.244936 74.199768h-10.287296v-69.791861c0-9.550465-1.714549-46.283023-1.714549-46.283023s2.694292-7.101628 7.103133-6.61186c4.408841.489767 8.572746-1.95907 8.327811-.489768z" fill="#5182b0" fill-rule="nonzero"/><path d="m357.116125 32.0797674c0 .9795349-.489871 2.2039535-.489871 3.9181396 0 1.714186.979743 1.2244186.979743 1.9590697.489871 5.1425582 1.714549 11.0197675 4.653776 11.0197675 2.939228 0 8.572747.2448837 12.001845.2448837 3.429099 0 12.491717-6.122093 13.716395-17.1418605 1.224678-11.0197674-9.307554-19.1009302-19.349914-18.8560465-10.04236.2448838-12.001845 7.3465117-11.511974 17.1418605z" fill="#f5a37e" fill-rule="nonzero"/><path d="m373.771747 10.0402326c-7.83794-1.46930237-20.08472 5.6323255-15.430944 9.7953488 4.653777 4.1630233 1.71455 13.7134884 1.71455 13.7134884s1.714549-.9795349 2.20442-.2448838c.8165 2.2357357 1.471346 4.5272113 1.959485 6.8567442.734807 1.9590698 5.388584 9.0606977 6.613262 9.0606977s9.797424.4897674 11.022102-.7346512c2.454467-3.5629971 4.430814-7.4325228 5.878455-11.5095348 1.224678-3.9181396 6.368326-23.2639535-13.96133-26.9372093z" fill="#8e3c26" fill-rule="nonzero"/><path d="m361.035095 28.8962791c0-.4897675 2.204421-1.9590698 3.429099.9795349-.051629 2.6992737-.63422 5.3619859-1.71455 7.836279-.979742 0-1.959484-6.8567442-1.714549-8.8158139z" fill="#f5a37e" fill-rule="nonzero"/><path d="m336.786469 68.5674419c1.224678-1.7141861 7.348069-3.4283721 12.981588-5.1425582 3.052972-.9313219 6.006523-2.1617074 8.817682-3.6732558h27.92266c3.244649 1.24462 6.610319 2.1474135 10.04236 2.6937209 6.123391.7346512 7.83794 3.4283721 8.817682 5.6323256.979743 2.2039535 1.469614 20.0804651-6.858197 44.0790696-1.224678 3.183489 1.714549 25.957675-.979742 32.814419l-24.738497 2.448837-24.493562-2.203953c-2.20442-7.83628 0-30.365582-1.224678-33.54907-1.224678-3.183489-12.001845-39.9160468-10.287296-43.0995351z" fill="#313131" fill-rule="nonzero"/><path d="m355.646512 61.2209302 34.04605.2448838-4.898712-5.6323256h-24.493562z" fill="#1a1a1a" fill-rule="nonzero"/><path d="m338.011147 67.587907s-3.918969 1.714186-6.613261 12.7339535c-2.694292 11.0197674-10.532232 31.8348835-10.532232 31.8348835 3.224371 3.30943 7.288427 5.679627 11.75691 6.856744 6.12339 1.469303 7.593004.244884 7.593004.244884l13.471459-26.4474418z" fill="#313131" fill-rule="nonzero"/><path d="m403.164021 65.3839535s6.368326 3.6732558 9.307553 15.9174418c1.959485 7.8362791 8.572747 32.5695347 8.572747 32.5695347-3.474885 3.031291-7.707667 5.062595-12.246781 5.87721-6.12339.979534-7.593004-.244884-7.593004-.244884l-11.511974-27.1820932z" fill="#313131" fill-rule="nonzero"/><path d="m289.513896 139.583721-2.939228-1.95907c-1.843895-.513561-3.64543-1.168526-5.388583-1.95907-.554121-.602282-1.046454-1.258587-1.469614-1.959069-.244935 0-2.694291.979535-1.224678 2.693721 1.469614 1.714186 3.429099 2.938604 3.429099 3.673255 0 .734652-4.163906 2.203954-5.143648 2.203954l-8.082875-1.224419c-.244936 0-1.224678 0-1.469614.489768.226831.698301.557082 1.358662.979742 1.959069.489872.244884-.244935.734652 0 .979535.152119.606855.400177 1.185534.734807 1.714186 0 0 .734807 1.469303 1.224678 1.714186l3.184163 2.203954c2.495193.605475 5.03394 1.014863 7.593004 1.224419 1.469614-.489768 9.307554-2.693721 11.022103-5.87721 1.714549-3.183488-2.449356-5.877209-2.449356-5.877209z" fill="#f8bc96" fill-rule="nonzero"/><path d="m397.530502 150.358605h-50.456737c-.676371 0-1.224678-.548191-1.224678-1.224419l.979743-3.673256c0-.676227.548307-1.224418 1.224678-1.224418h49.476994c.489871 0 .979994.734651.979994 1.224418v3.673256c.011671.591101-.400571 1.106295-.979994 1.224419z" fill="#1a1a1a" fill-rule="nonzero"/><path d="m72.5009418 159.664186c1.4696136-.734651 3.6740342-.489767 4.408841-2.203953.7348069-1.714186 0-3.428373-.2449356-4.897675-.3836322-1.794687-1.5523201-3.322648-3.184163-4.163023l-3.9189698-1.714186-.9797425-.489768h-.7348068l-1.2246781-.734651c-.1750141-.218721-.453445-.327479-.7304104-.285305s-.5103878.228872-.6123391.489768c-.1019512.260895-.0569427.556351.1180715.775072h.2449356l-1.2246781.979535c-.7348068.979535 0 2.448837.4898712 3.673256.4898713 1.224418 1.4696137 3.428372 3.4290986 4.407907l2.6942918.734651c0 .489767.4898712.734651.9797424.489767l1.2246781-.489767h-.4898712l-.9797425.489767c-.7348068.244884-.7348068.979535-.2449356 1.469303.4898712.489767.2449356 1.469302.9797425 1.224418" fill="#f7b089" fill-rule="nonzero"/><path d="m52.661157 299.737674c-2.9392273-3.673255-11.0221026-2.203953-14.6961368-1.714186-1.3769133.247692-2.7869922.247692-4.1639055 0-.7348068 0-3.6740342-.489767-3.6740342-1.224418.0290016-.916387-.5815752-1.730317-1.4696137-1.95907.0038983-.84097-.3527731-1.64331-.9797424-2.203953-.7348069-.489768.2449356-1.95907-.2449356-1.714187-.4898713.244884-3.4290986 5.632326-3.6740342 7.101628-.2449356 1.469303 1.9594849 5.632326 4.6537766 5.87721 8.3278109 0 17.145493.734651 23.2688834-.979535.6562415-.171827 1.1769068-.670785 1.3764067-1.319022s.0494503-1.353525-.3966643-1.864467" fill="#19303b" fill-rule="nonzero"/><path d="m27.1878532 298.023488c4.1639054 2.203954 10.777167 1.224419 15.186008.979535.2449356-.244883 3.9189699-.734651 3.4290986-.979535-6.1233903-2.938604-10.2872958-2.448837-11.7569094-8.57093-.0875071-.699908-.5418427-1.299975-1.191863-1.574162-.6500202-.274187-1.3969717-.180838-1.9594849.244884-.5625132.425721-.855129 1.119137-.767622 1.819046 0-2.448838-3.6740342-2.448838-3.9189698 0-.2449356 2.448837-2.2044205 5.632325 0 7.346511z" fill="#f7ae83" fill-rule="nonzero"/><path d="m13.96133 289.207674c-.2449356-.979534-.9797425 2.448838-1.7145493 2.448838h-4.16390544c-.24493561-1.224419.24493562-4.652791-.73480684-3.673256-.97974245.979535-4.40884105 10.040232-4.65377667 14.203256-.24493561 4.163023-.48987122 9.060697 2.69429176 11.509535 3.18416298 2.448837 7.83793969-5.87721 8.32781089-10.774884.5715172-4.549282.6536314-9.146707.2449356-13.713489" fill="#19303b" fill-rule="nonzero"/><path d="m12.7366519 289.942326c-.7348068-.979535-1.4696137-1.714186-2.6942917-.979535-.5658911-.477756-1.23766511-.813571-1.95948494-.979535-.97974245.244884-1.46961368 2.203953-1.95948491 2.938604-1.18210215 2.397612-2.00727886 4.955117-2.44935614 7.591396-.73480684 3.918139 2.44935614 9.550465 6.85819719 6.366977 2.3037266-2.141938 3.5563329-5.183338 3.4290986-8.326047-.0139398-2.259018-.4285898-4.497654-1.2246781-6.61186" fill="#f7ae83" fill-rule="nonzero"/><path d="m59.5193542 179.254884c1.1036258-7.387165 1.1036258-14.897254 0-22.284419-.4898712-2.693721-.9797424-5.387442-1.2246781-8.326046-1.5785601-1.136498-3.3103516-2.043435-5.1436478-2.693721-2.9927374-1.263774-6.3854407-1.174512-9.3075534.244883l-.9797424.489768c-1.2906353-.414066-2.6899462-.326628-3.9189699.244884-2.9392273 1.224418-4.408841 4.407907-5.6335191 7.346511-1.1446551 3.231867-1.8049598 6.615211-1.9594849 10.040233-.8563157 6.821252-1.1022262 13.705285-.7348068 20.570232.2449356 5.387442.9797424 10.774884 1.224678 16.40721.3982876 5.325675.0686731 10.680776-.9797424 15.917441-1.7145493 11.264652-4.6537767 22.284419-5.8784548 33.54907-.6927842 6.097068-1.01995 12.230127-.9797424 18.366279 0 6.366977.9797424 12.733954.7348068 19.100931.1341618 1.956028 1.369112 3.665597 3.184163 4.407907h3.184163c2.3823901-.122386 4.2864295-2.026022 4.408841-4.407907.1752069-15.714025 2.3145699-31.344519 6.368326-46.527907 1.9594849-7.591396 4.4088411-14.937907 6.8581972-22.529303 2.4493561-7.591395 4.8987123-19.345814 7.8379396-28.651395 1.1797914-3.782651 2.1608741-7.624411 2.9392274-11.509535" fill="#4c9fc2" fill-rule="nonzero"/><path d="m40.4143763 166.52093c-.2449356 1.224419-.2449356 2.448837-.4898712 3.673256-.4133028 4.278092-1.0675023 8.529489-1.9594849 12.733954-.9797425 3.918139-2.2044205 7.836279-3.4290986 11.999302-2.2044205 8.081163-3.9189698 16.162325-6.6132616 24.243488s-4.8987123 14.937907-6.8581972 22.774186c-3.9502537 15.120756-6.0880381 30.657512-6.368326 46.283024-.1224115 2.381885-2.0264509 4.285521-4.408841 4.407907h-2.93922738c-1.95781926-.445142-3.36754198-2.156585-3.42909859-4.163024.24493561-6.61186-.73480685-12.733953-.73480685-19.345814-.04020755-6.136152.28695821-12.269211.97974246-18.366279 1.22467807-11.264651 4.16390544-22.284418 5.87845476-33.54907 1.0245334-5.240339 1.4355246-10.582093 1.224678-15.917441-.4898712-5.387442-1.224678-11.019768-1.46961364-16.40721-.36724171-6.78342-.12130828-13.586137.73480684-20.325349.4898712-3.428372 4.6537767-16.162325 7.593004-17.386744 1.1132495-.638054 2.4324645-.813912 3.6740343-.489767h.2449356l.9797424-.734651c2.9221127-1.419395 6.314816-1.508658 9.3075534-.244884 3.1464497.999844 5.8366822 3.082164 7.593004 5.877209v.489768l.4898712-.489768c.4048275-.678786 1.2213471-.992894 1.9768545-.760479.7555074.232414 1.2541739.951109 1.2073085 1.740014.9469194 0 1.7145493.767467 1.7145493 1.714186.2449356 4.407907-2.4493561 8.815814-5.1436479 12.244186" fill="#428aa8" fill-rule="nonzero"/><path d="m54.1307707 49.9562791c1.0478342 3.4521527 1.8660732 6.9698349 2.4493561 10.53.8810472 2.4484555-.0301981 5.1816124-2.2044205 6.6118604-3.0650541 1.3896683-6.266468 2.4565801-9.5524889 3.1834884-6.5222399 1.9903921-13.2714125 3.1424457-20.0847204 3.4283721-2.2044205 0-7.593004.4897674-9.5524889-1.2244186-1.9594849-1.7141861-1.4696137-6.3669767-1.7145493-8.3260465-.3976853-2.2627826-.5618371-4.5604222-.4898713-6.8567442.1512102-3.3730985.5606339-6.7296615 1.2246781-10.0402326.9797425-4.8976744 2.9392274-11.0197674 7.3480684-13.7134883h.2449357c2.1399701-2.696048 5.1863317-4.5234777 8.5727464-5.1425582 3.7109565-.6207912 7.5222766.0720293 10.7771671 1.9590698 3.3952787 1.9721548 6.2547877 4.7469726 8.3278108 8.0811628 2.1931662 3.5447446 3.7668956 7.4368294 4.6537767 11.5095349" fill="#55210e" fill-rule="nonzero"/><path d="m39.9245051 76.4037209c-2.4493561 2.2039535-7.593004 2.9386047-9.7974246-.2448837-.6333669-.0326467-1.2117628-.3697512-1.5522536-.9046948s-.4009649-1.201565-.1622957-1.7890261v-1.4693023c.2449356-.9795349.2449356-1.9590698.4898713-3.1834884-.0154038-.4216863.0684953-.841093.2449356-1.2244186v-.7346512c0-.7346511 0-1.2244186.2449356-1.4693023v-.7346512c.4898712-2.4488372 2.9392274-1.9590697 3.184163 0 .5731909.270977.9500149.8360933.9797424 1.4693024h.2449356v1.714186h.2449357c.4898712-.4897674 1.224678-.4897674 1.9594849.2448837h.9797424v-.7346511c.9797425-1.4693024 2.6942918-.7346512 3.184163.7346511v1.2244186c.0208355.5814046-.0621058 1.1618703-.2449356 1.7141861v1.2244186 2.2039535c.2345316.8894715-.0492841 1.8353235-.7348068 2.4488372" fill="#f7b089" fill-rule="nonzero"/><path d="m41.1491832 30.3655814c.4834447 3.0717686-.7351128 6.1643747-3.184163 8.0811628-2.6371625 1.8496413-5.9759613 2.3909535-9.0626177 1.4693023-3.2864398-.9020216-5.987907-3.2427972-7.3480685-6.3669767h.2449357c2.1399701-2.696048 5.1863317-4.5234777 8.5727464-5.1425582 3.7109565-.6207912 7.5222766.0720293 10.7771671 1.9590698" fill="#55210e" fill-rule="nonzero"/><path d="m40.6593119 68.8123256c.0208355.5814046-.0621057 1.1618703-.2449356 1.714186.1057988.4029362.1875877.8117944.2449356 1.2244186s-3.9189698 7.3465117-12.0018451.2448838c.1256777-1.4867051.3714143-2.9608128.7348069-4.407907v-.7346512c0-.7346511 0-1.2244186.2449356-1.4693023l4.6537767.9795349 3.184163.7346511 3.1841629.7346512v1.2244186" fill="#e6a37b" fill-rule="nonzero"/><path d="m43.3536037 37.4672093c-.7021207-.5302216-1.5712551-.7909066-2.4493562-.7346512-1.7145492-.2448837-4.1639054 1.2244186-5.8784547 1.4693024-1.7145493.2448837-7.593004.4897674-9.3075533 3.6732558s0 6.122093.7348068 9.3055814c.7348069 3.1834883.2449356 1.2244186.2449356 1.9590697h-2.6942917c-.7348069.2448838-1.4696137.9795349-1.2246781 1.7141861.4131734 2.393749 2.1059438 4.3682294 4.4088411 5.1425581.214527 1.0133854.5432039 1.9992075.9797424 2.9386047 1.8041062 3.2205729 4.6565017 5.7266924 8.0828753 7.1016279 2.7172182 1.6282779 6.1723198 1.3321891 8.5727465-.7346512 2.6060606-1.8435185 4.0852749-4.8937517 3.9189698-8.0811628.6552646-3.4064105.571739-6.9137445-.2449356-10.2851162-1.2246781-4.407907-.7348069-11.0197675-5.1436479-13.223721" fill="#f7ae83" fill-rule="nonzero"/><path d="m18.8600423 106.279535c0-3.183488.7348068-24.2434885-2.2044205-26.6923257-2.9392274-2.4488372-2.9392274 1.714186-3.6740343 2.4488372-1.5639596 2.7320992-2.6413614 5.7150413-3.18416294 8.815814-1.7170353 8.3053339-2.70056264 16.7454885-2.93922737 25.2230235-.24493561 10.040232-1.95948491 20.325349-2.93922736 30.610465-.69268256 5.851148-1.01989782 11.739775-.97974246 17.631628v9.550465c0 1.714186-.24493562 3.673256 1.22467807 4.407907 1.46961368.734651 2.69429175-1.714186 3.18416298-3.673256s1.46961369-7.591395 2.44935614-11.509535c1.88361054-8.813058 3.27374104-17.724359 4.16390544-26.692325.3109324-2.902962.8848037-5.77171 1.7145493-8.570931 1.5940805-6.091036 2.5786627-12.325402 2.9392274-18.611162.2025259-.799642.2850727-1.624935.2449356-2.448838z" fill="#f7ae83" fill-rule="nonzero"/><path d="m53.3959639 131.992326 1.4696137 2.448837 6.1233903 9.550465c1.2246781 1.714186 4.6537767 9.060698 7.1031328 6.122093 2.4493562-2.938605.4898712-.979535.2449356-2.448837-.6882744-5.286128-2.2615061-10.418744-4.6537766-15.182791-1.7086348-4.638802-3.9266148-9.073822-6.6132616-13.223721-2.2044205-3.918139-.4898713-7.591395-.2449356-11.999302.4490065-5.702801.5308204-11.4285639.2449356-17.1418607-.4898713-3.6732558-.4898713-12.9788372-4.1639055-15.1827907s-3.4290986 3.6732558-2.4493561 4.8976744c-1.7240872 2.9682701-2.9643006 6.1921417-3.6740342 9.5504651-.2999102.3392774-.4730136.7719443-.4898712 1.2244186-.7001461 5.7877948-.5350481 11.6475323.4898712 17.3867443.4898712 3.918139.4898712 7.836279 1.2246781 11.509535.8602365 4.507166 2.6997328 8.77055 5.3885835 12.48907" fill="#f7ae83" fill-rule="nonzero"/><path d="m57.5598693 141.787674-2.9392274-7.836279c-1.0045282-2.993899-1.4203912-6.153788-1.224678-9.305581.2449356-6.122093 2.2044205-11.754419 3.1841629-17.386744.1979979-.375999.2830574-.801206.2449357-1.224419v-3.918139-.734652c-.4898713-2.6937205-1.2246781-5.3874414-1.9594849-8.0811623-1.6686789-5.8022514-2.2499652-11.8629536-1.7145493-17.8765117-2.9392274-.7346511-6.368326-.7346511-9.0626178-1.2244186-1.672577-.6459678-3.5400336-.5570601-5.1436479.2448838-.928104.5868542-1.912782 1.0790889-2.9392273 1.4693023-1.9594849.4897674-3.184163-.7346512-4.6537767-1.4693023-.574788-.3895484-1.2689633-.5630554-1.9594849-.4897675-1.4696137-.2448837-3.184163 1.2244186-4.4088411 1.9590698l-8.8176821 3.9181395c-1.5145903.330295-2.6191743 1.635436-2.6942917 3.1834884.1480651 2.3244693.5589081 4.6247026 1.224678 6.8567442.4898713 3.1834884.7348069 6.3669767 1.4696137 9.5504651.7348069 3.1834883 3.9189699 11.7544183 5.1436479 17.8765113 1.0305638 4.73127.6907018 9.658224-.9797424 14.203256l-3.6740342 9.550465c-.7999117 1.569977-1.4557595 3.209249-1.959485 4.897675-.2449356 3.673255 7.3480685 4.65279 9.7974246 5.387442 5.6515337 1.832229 11.4805802 3.063457 17.3904286 3.673255 3.5798976.536182 7.2253302.453349 10.777167-.244883 2.1650528-.5848 4.2294301-1.492933 6.1233904-2.693721-.0333548-2.537175-.1968601-5.070969-.4898713-7.591396-.0446952-.756067-.210075-1.500119-.4898712-2.203953" fill="#f7ae83" fill-rule="nonzero"/><path d="m56.3351912 116.809535c-1.0167491 3.919156-1.1837715 8.010338-.4898712 11.999302l.7348068 4.652791c0 .734651.2449357 1.469302.2449357 1.95907v.734651c.2327116.362837.3201641.800007.2449356 1.224418.2449356 2.938605.7348068 5.87721 1.224678 8.570931.2038099 1.870138.2856282 3.751559.2449357 5.632325-1.8939603 1.200788-3.9583376 2.108922-6.1233904 2.693721-3.5518368.698233-7.1972694.781066-10.777167.244884-5.9098485-.609799-11.7388949-1.841027-17.3904286-3.673256l-5.1436479-1.224419c-2.4493561-.979534-4.6537767-2.203953-4.6537767-4.163023.5037255-1.688426 1.1595733-3.327698 1.9594849-4.897674l3.6740343-9.550465c1.6704442-4.545033 2.0103062-9.471987.9797424-14.203256-.5888945-2.650941-1.3248384-5.267076-2.2044205-7.836279.9950771-2.429714 1.6543049-4.983681 1.9594849-7.591396.2159919-.880596.2985568-1.7886186.2449356-2.6937205-.0979456-2.8784899-.425567-5.7445697-.9797424-8.5709302-.3610929-3.8303084-1.6197776-7.5216679-3.6740343-10.7748837l4.4088411-1.9590698.7348068.7346512c5.2125343 3.8169391 11.8011154 5.2411954 18.1252355 3.9181395 4.5778419-1.0292371 8.6507778-3.6284326 11.5119738-7.3465116l3.184163.9795349c-.3598741 4.7033801.1380858 9.4329965 1.4696137 13.9583721 2.2044205 5.3874418 6.8581972 11.7544181 4.6537767 17.6316281-.5801378 1.439637-1.4092433 2.765925-2.4493562 3.918139-.5145815 1.017148-.9248974 2.083743-1.224678 3.183489-.2449357.979535-.2449357 1.959069-.4898713 2.693721" fill="#ddb92f" fill-rule="nonzero"/><path d="m58.0497405 110.932326c-.5145815 1.017147-.9248974 2.083742-1.224678 3.183488-2.0316012.096444-4.0543934-.324882-5.8784548-1.224419 2.5264103.22335 5.0485864-.472275 7.1031328-1.959069" fill="#c5a62a" fill-rule="nonzero"/><path d="m25.2283682 114.605581c1.2246781 5.87721 1.4696137 15.427675-.2449356 19.100931-1.7145493 3.673255-4.408841 11.754418-5.8784547 15.917441-2.4493561-.979534-4.6537767-2.203953-4.6537767-4.163023.5037255-1.688426 1.1595733-3.327698 1.9594849-4.897674l3.6740343-9.550465c1.6704442-4.545033 2.0103062-9.471987.9797424-14.203256-.5888945-2.650941-1.3248384-5.267076-2.2044205-7.836279.9950771-2.429714 1.6543049-4.983681 1.9594849-7.591396 0 .734652.2449356 10.285117 4.408841 10.774884 2.2578191.451538 4.5739121.534238 6.8581972.244884-1.833552 1.736329-4.3561367 2.546988-6.8581972 2.203953" fill="#c5a62a" fill-rule="nonzero"/><path d="m4.89871228 179.989535c.48987123.244884 0 1.469302 0 1.95907v.489767c-.38547637 0-.74845663.181452-.97974245.489768v-.489768c0-.734651.24493561-2.693721 1.22467807-2.448837" fill="#f7b089" fill-rule="nonzero"/><path d="m8.32781088 184.152558c0-.734651-.48987123-1.469302-1.22467807-.979535l-.97974246.489768h-.48987123l1.22467807-.489768c.24493562-.244883.48987123-.734651.24493562-.979535.66244943-.699499 1.16401869-1.53527 1.46961368-2.448837.72219496-1.768684.53949504-3.777957-.48987123-5.387442-.24493561-1.224418-.48987122-2.938604-1.95948491-3.183488h-1.46961368c0-1.224419-1.46961369-1.224419-1.46961369-.244884s-.24493561.979535-.48987123 1.224419v.979535l-.48987122.979535-1.46961369 3.918139c-.79587771 1.644803-.70366742 3.580809.24493562 5.142558.73480684 1.224419 1.46961368 3.183489 2.93922737 3.673256 1.46961368.489768 3.42909859-.734651 4.89871228-1.224419 1.46961369-.489767.48987122-1.469302 0-1.469302" fill="#f7b089" fill-rule="nonzero"/><path d="m100.913473 163.337442c-.456728-.602292-1.2192634-.888182-1.9594849-.734651-1.8685557.459087-3.4708789 1.656445-4.4404028 3.318133-.9695239 1.661689-1.2232905 3.645532-.7032451 5.497681-3.7648555 4.685748-7.1244085 9.683048-10.0423602 14.937907-1.9594849-1.224419-3.6740342-3.183489-5.6335191-4.652791-1.2064982-1.035071-2.520298-1.938117-3.9189698-2.693721-.9056969-1.442731-2.1720374-2.624398-3.6740342-3.428372 0 .489767-.2449357.979535-.2449357 1.469302 0 .489768-2.6942917 1.469303-1.9594849 2.693721.8461524 1.467082 1.9210565 2.789761 3.184163 3.91814 1.1638712 5.624197 5.1444427 10.251788 10.5322314 12.244186 6.8581972 1.714186 12.7366519-11.264651 14.2062656-16.652093.7478951-1.715306 1.2429222-3.53002 1.4696137-5.387442l.9797425-.489768c2.4493565-2.448837 4.4088415-6.61186 2.2044205-10.040232" fill="#f6b086" fill-rule="nonzero"/><path d="m74.7053623 175.09186c-.5326654-.575052-1.2090591-.997708-1.9594849-1.224418-1.2246781-.244884-2.9392274.979535-1.7145493 2.448837l1.2246781 1.469302c-.3423113.409028-.4360579.971389-.2449357 1.469303.5137367.91865 1.1758223 1.746082 1.9594849 2.448837 1.1341299.873485 1.7734403 2.243146 1.7145493 3.673256 0 3.673256-.9797424 7.346511.4898713 11.019767.2386748.852974 1.0880161 1.3837 1.9594849 1.224419 1.0795029-1.045492 1.7706159-2.427425 1.9594849-3.91814.9114261-2.791754 1.5672833-5.660521 1.9594849-8.57093v-.734651c-.6389664-3.311062-2.6981501-6.175407-5.6335191-7.836279z" fill="#e6e7e7" fill-rule="nonzero"/><path d="m37.7200846 204.477907c1.4696137-11.754419 8.0828752-21.794651 11.5119738-32.814419.2941442-1.144876 1.300466-1.964274 2.4814212-2.020498s2.2606014.663863 2.6622267 1.775615h.7348069c3.1841629 1.224418 8.0828752 1.714186 9.3075533 5.632325 1.2246781 3.91814-.4898712 7.101628-.9797425 10.285117-.4898712 3.183488-.7348068 10.285116-1.224678 15.18279-.4898713 4.897675-.7348069 11.264651-.9797425 17.141861.1524068 1.929944-.1845688 3.867143-.9797424 5.632325-.9476827 1.597453-2.5694638 2.678411-4.4088411 2.938605-3.8358464.912679-7.8763664.297948-11.2670382-1.714186-7.1031328-4.163023-7.8379397-14.693023-6.8581972-22.039535" fill="#423842" fill-rule="nonzero"/><path d="m50.9466077 168.724884.9797425-.734651c1.9594849-.979535 13.7163944-2.938605 15.1860081-.734652 1.8040029 2.754309 2.6636446 6.020256 2.4493561 9.305582h-.2449356l-2.6942918.489767-3.9189698.734651c-2.1362645.684796-4.3701693 1.015675-6.6132616.979535-1.224678-.244883-1.9594849-1.469302-2.6942917-2.448837-.7348069-.979535-4.6537767-5.632326-2.4493562-7.591395" fill="#2a272c" fill-rule="nonzero"/><path d="m76.4199116 296.79907c1.2246781-.979535 2.6942917 1.469302 1.2246781 2.448837-1.4696137.979535 0 .244884 0 .734651v.979535c.4898712.734651 2.9392273.489767 3.6740342.489767l7.593004.489768h5.1436479c1.7145493 0 2.4493561-.734651 2.2044205-2.448837.2336182-.535727.7625928-.882092 1.3471459-.882092.5845532 0 1.1135277.346365 1.3471459.882092.4898712 6.856744-7.8379397 5.142558-12.0018451 5.142558h-6.368326c-1.5155709-.06645-3.0077627-.397978-4.408841-.979535-.8509678-.906113-1.30394-2.114965-1.2579273-3.357045s.5871848-2.41412 1.5028629-3.254816" fill="#1f1e22" fill-rule="nonzero"/><path d="m82.2983663 294.350233h3.6740342c3.6740342 0 7.8379397-.244884 11.0221027 1.959069 3.1841628 2.203954.9797424 6.611861-2.9392274 7.101628-1.942498.36481-3.9359568.36481-5.8784547 0l-10.0423602-1.224418c-2.6942918-.244884-3.6740342-3.183489-1.9594849-5.632326 1.6368428-1.540097 3.9246224-2.180539 6.1233903-1.714186" fill="#2a272c" fill-rule="nonzero"/><path d="m46.2928311 310.267674c1.4696136-.979534 2.9392273 1.469303 1.4696136 2.693721-1.4696136 1.224419 0 .244884 0 .734652 0 .489767-.2449356.734651 0 .979534.2449357.244884 3.184163.734652 3.9189699.734652h8.5727465c1.7766675.326513 3.5896143.408902 5.3885835.244883 1.9594849-.244883 2.6942917-.734651 2.6942917-2.693721 0-1.959069 2.9392274-1.959069 2.9392274 0 .4898712 7.591396-8.8176821 5.632326-13.4714588 5.632326l-6.8581972-.489768c-1.6932088.152455-3.3943992-.187711-4.8987123-.979534-.9424207-.957815-1.4498907-2.26065-1.4035783-3.603425.0463124-1.342776.64234-2.607567 1.648514-3.498203" fill="#2a272c" fill-rule="nonzero"/><path d="m66.3775514 275.983953c-.9797424-6.61186-1.7145493-12.978837-3.184163-19.590697-1.4696137-6.611861-3.6740342-11.999303-4.6537766-18.366279-.9797425-6.366977-1.7145493-12.733954 2.4493561-16.652093.4480873-.590654 1.1631632-.916515 1.9030074-.867203.7398442.049313 1.4053269.467191 1.7710268 1.112086 1.2541224 1.409906 2.32407 2.973344 3.184163 4.652791-.4898712-3.428372 3.184163-4.897674 4.6537767-2.448837 2.6942917-1.714186 5.1436479 2.448837 3.4290986 4.652791v2.448837c.2449356 1.95907.4898712 4.163023.9797424 6.366977.4898712 2.203953 1.7145493 8.815814 2.6942918 13.223721.9797424 4.407906 2.6942917 13.713488 4.1639054 20.325348 1.4696137 6.611861 1.9594849 6.611861 3.184163 9.795349 1.4110835 2.827299 2.2437881 5.907653 2.4493561 9.060698.2449356 6.366977-6.3683259 8.57093-11.0221026 9.060698-2.1219871.424628-4.3175238-.215601-5.8784547-1.714187-1.3162416-1.771982-2.3110863-3.761249-2.9392274-5.877209-1.6693744-4.914178-2.7385158-10.012079-3.184163-15.182791" fill="#1b2328" fill-rule="nonzero"/><path d="m52.9060926 307.573953.9797425-.489767h2.9392274c3.9189698.244884 8.8176821-.244884 12.0018451 2.203954 3.1841629 2.448837 1.224678 7.101627-2.9392274 7.836279-2.1892772.365338-4.4239844.365338-6.6132616 0l-11.0221026-1.224419c-1.3534282-.186915-2.4913312-1.109259-2.9541167-2.394501-.4627855-1.285243-.1740083-2.721083.7496961-3.727592 1.4696137-2.203954 4.6537767-2.203954 6.8581972-1.95907" fill="#423842" fill-rule="nonzero"/><path d="m45.5580242 283.085581c.9797425-6.856744 2.2044205-13.468604 2.6942918-20.570232.4898712-7.101628.2449356-13.223721.9797424-19.590698.7348069-6.366977 2.2044206-13.223721 7.3480684-15.917442.6474619-.337152 1.4040508-.397197 2.0966068-.166394s1.261792.732697 1.5774275 1.390813c.7197994 1.894328 1.2130936 3.867086 1.4696136 5.877209.4898713-3.428372 4.4088411-3.673256 5.1436479-.734651.5831449-.231124 1.2371595-.202916 1.7982293.077559.5610698.280476.9760499.786652 1.1409981 1.391743v-.489767c.1750141-.524931.6168407-.916638 1.1590478-1.027569s1.1024207.075767 1.4696137.489767.48558.992406.3105659 1.517337c-1.4696137 4.407907-1.2246781 10.285116-5.6335191 12.48907h-.2449357c-.4898712 4.65279-.7348068 9.305581-.9797424 13.958372-.2449356 4.65279-1.7145493 14.448139-2.2044205 21.794651-.2449673 3.587453-.2449673 7.187431 0 10.774884.4108286 3.1771.3282088 6.398589-.2449357 9.550465-1.7145493 6.61186-8.5727464 6.61186-13.2265231 5.632325-2.2377071-.087759-4.1878879-1.550084-4.8987123-3.673256-.9174764-2.164807-1.3360377-4.508254-1.2246781-6.856744-.1087819-5.344127.38419-10.683525 1.4696137-15.917442" fill="#122b33" fill-rule="nonzero"/><path d="m50.4567365 231.904884c.8460226 1.250921 1.832153 2.401162 2.9392274 3.428372 1.1689386.823772 2.3969336 1.560413 3.6740342 2.203953 2.9720842 1.743597 6.3515196 2.672744 9.7974245 2.693721 3.4290986 0 11.2670383.244884 12.9815876-4.407907.2036693-1.542098.2855676-3.097837.2449356-4.65279 0-11.754419-.2449356-23.508838-.9797425-35.263256-.4898712-8.081163-1.4696136-17.631628-7.8379396-22.529303-1.7145493-1.959069-5.3885835-2.203953-8.3278109-1.959069.9797425-.979535-.4898712-2.693721-1.4696137-1.714186l-1.224678 1.469302-.7348069.734651-1.9594849 1.224419c-1.7737316.975919-3.1575308 2.532363-3.9189698 4.407907-1.0045393 2.664258-.7338064 5.641689.7348068 8.081162h.2449356c-.2449356 4.163024 0 8.326047 0 12.244187v4.897674c-.2069798 6.231906-.7794798 12.446304-1.7145493 18.611163 0 .489767-.2449356.734651-.2449356 1.224418l-.7348068 3.428372c-.2594798 1.930104-.7529801 3.821455-1.4696137 5.632326" fill="#fff" fill-rule="nonzero"/><path d="m50.4567365 231.904884c.8460226 1.250921 1.832153 2.401162 2.9392274 3.428372 1.1689386.823772 2.3969336 1.560413 3.6740342 2.203953.3271383-8.969712 1.3921209-17.897289 3.184163-26.692325 1.4766209-5.085358 1.893449-10.419627 1.224678-15.672558l-2.4493561 7.101627-4.4088411-4.163023v4.897675c-.2069798 6.231905-.7794798 12.446303-1.7145493 18.611162-.583932 3.479592-1.4022461 6.915783-2.4493561 10.285117" fill="#e6e7e7" fill-rule="nonzero"/><path d="m58.0497405 154.03186c-.0526275.372914.1132474.742971.4266701.951875.3134226.208904.7188841.219658 1.0429436.02766.4898712.489768 1.7145493.489768 1.7145493-.489767.1791087-.200853.2676854-.466527.2449356-.734651h.7348069c0-.135246.1096614-.244884.2449356-.244884.3958859.051566.7834723-.142186.9797424-.489767.4898713.244883 1.2246781.244883 1.4696137-.244884 2.3258018-4.025377 3.590061-8.575746 3.6740342-13.223721 0-1.224419-1.4696136-1.224419-1.9594849-.489768.0676371-.270491-.096855-.544586-.3674034-.612209s-.5447019.096835-.612339.367326c0-.244884.2449356-.489768.4898712-.734651.2449356-.244884-.9797425-1.95907-1.7145493-.979535-2.2181228 2.168176-4.115119 4.641995-5.6335191 7.346511-1.2405295 2.676409-1.7476944 5.634244-1.4696137 8.570931 0 .489767.2449356.734651.7348068.979534" fill="#f6b086" fill-rule="nonzero"/><path d="m72.0110705 168.48c.458041 1.758859.5414874 3.594291.2449357 5.387442-1.973051.182539-3.962838.016758-5.8784548-.489768l-3.9189698-1.714186c-1.9594849-.979535-1.4696137-.979535-1.7145493-2.938604-.2449356-1.95907-2.2044205-3.91814-4.1639055-5.632326-2.0279376-1.790102-3.4059697-4.201147-3.9189698-6.856744-1.9594849-7.591395 4.4088411-18.121395 11.7569095-20.325349 3.3965156-1.278449 7.1932176-.916935 10.2872958.979535 2.6942917 2.203953 3.184163 5.877209 4.6537767 8.815814 1.0299455 1.975388 2.4458583 3.724086 4.1639054 5.142558.9797425.734651 1.7145493 1.714186.7348068 2.938605l-.9797424.734651c-.3878985.383894-.5698049.929497-.4898712 1.469302-.2445177 1.70547-.2445177 3.437088 0 5.142558.0760799 1.410762-.3586848 2.801714-1.2246781 3.91814-1.5315726 1.155146-3.2812995 1.988173-5.1436479 2.448837l-3.6740342.734651h-.7348069" fill="#f6b086" fill-rule="nonzero"/><path d="m80.0939458 129.298605c-.0326536-.633233-.3698296-1.211506-.9048865-1.551925-.535057-.340419-1.2018196-.40088-1.7894053-.162261-2.2044205 1.714186-5.3885835 1.224418-7.8379396 1.224418-2.681307-.326287-5.3867271-.408252-8.0828753-.244884-2.6714235.104624-5.2421871 1.047037-7.3480684 2.693721-1.0999684.968703-2.0131373 2.130672-2.6942917 3.428373-.4370373 1.023986-.7654154 2.090989-.9797425 3.183488-.5363267 1.403559-.7049532 2.920875-.4898712 4.407907-1.7778727 2.285856-2.9565719 4.979455-3.4290986 7.836279-.1989012 1.955662.4218782 3.90627 1.7145493 5.387442.6634829 3.363428 2.7069332 6.294714 5.6335191 8.081163.4980197.191081 1.0604996.097355 1.4696137-.244884l.7348068.734651c.8404895.72921 1.8514419 1.234579 2.9392274 1.469302l3.6740342 2.203954c.7348068-.489768.4898712-3.428372.9797425-4.407907.8609402-1.673448 1.36157-3.508702 1.4696136-5.387442 0-1.714186-1.4696136-2.938605-1.9594849-4.652791-.3355721-1.079978-.1548695-2.254295.4898713-3.183488.7348068-.734651 1.7145493-.489768 2.4493561-1.224419s.4898712-2.203953.7348068-3.183488l.7348069-2.203954c6.6132616-1.714186 12.9815875-6.856744 12.4917163-14.203255" fill="#b36228" fill-rule="nonzero"/><path d="m64.4180665 155.501163s-4.6537767-1.714186-4.1639054-5.142558c.4898712-3.428372 4.1639054 0 4.1639054 0-.8284108 1.614142-.8284108 3.528415 0 5.142558" fill="#f6b086" fill-rule="nonzero"/><path d="m59.029483 202.273953c1.2599238-4.153854 2.7314586-8.240584 4.408841-12.244186 1.7145493-5.632325 4.6537767-15.672558-3.9189698-15.672558s-9.5524889 8.326047-11.0221026 14.203256-2.2044205 7.836279-.7348069 9.795349c1.4696137 1.95907 8.3278109 3.673256 11.2670383 3.918139" fill="#fff" fill-rule="nonzero"/><path d="m51.9263502 226.272558c2.0886482-1.373087 3.9834189-3.020364 5.6335191-4.897674 2.9724321-3.383749 5.2971556-7.285136 6.8581972-11.509535 1.3875903-4.771478 2.0481667-9.724751 1.9594849-14.693023-.2087573-5.282247-1.2844829-10.494275-3.184163-15.427675-.8207473-2.783016-2.0595546-5.425245-3.6740342-7.836279l-1.9594849 1.224419c2.6942918 3.183488 3.6740342 7.836279 4.8987123 11.509535 1.7166339 6.475053 1.9676596 13.251311.7348068 19.835581-1.1064451 7.217741-4.8610572 13.765095-10.5322314 18.366279z" fill="#2a272c" fill-rule="nonzero"/><path d="m44.5782818 212.803953c-.0271547-.82352.0552106-1.646999.2449356-2.448837.7348068-3.918139 2.2044205-7.591395 3.184163-11.509535 1.7145493 2.203954 6.3683259 2.938605 9.3075533 3.183489-1.3018921 3.377811-2.857593 6.652277-4.6537767 9.795349-.6209002.855582-.9630043 1.881677-.9797424 2.938604 0 1.95907 1.9594849 4.897675 2.6942917 6.856744 2.6437337 5.689976 4.5374 11.699035 5.6335191 17.876512-.0335663 1.160343-.8068596 2.168681-1.9189665 2.502242-1.112107.333561-2.3128664-.082686-2.9797457-1.03294-1.7132301-2.895546-3.1877187-5.925798-4.4088411-9.060697l-3.4290986-8.081163c-1.8663767-3.366752-2.7967105-7.171856-2.6942917-11.019768" fill="#f6b086" fill-rule="nonzero"/><path d="m525.141957 305.125116c.734806 3.673256 3.674034 7.346512.734806 9.550465-2.780101 2.178319-6.500424 2.736249-9.797424 1.469303-2.606743-1.015948-4.950905-2.606292-6.858197-4.652791-1.959485-1.714186-7.348069-2.693721-9.062618-5.142558s-3.674034-6.856744-.734807-7.591395c2.939227-.734652 7.83794 2.69372 18.615107.244883z" fill="#010101" fill-rule="nonzero"/><path d="m486.44213 143.991628c-2.449357 10.774884 2.449356 23.01907 3.429098 29.141163.979743 6.122093 7.593004 50.446046 7.83794 53.384651.453809 6.353021 1.772287 12.614461 3.91897 18.611163 2.20442 6.856744 3.674034 54.609069 2.939227 59.996511s24.00369 8.815814 24.00369 8.815814.244936-48.486977-7.593004-76.158837c-2.20442-27.426977-1.224678-45.793256-2.939227-53.384651-.489871-2.693721 2.449356-23.753721-6.368326-36.487675-8.817682-12.733953-25.228368-3.918139-25.228368-3.918139z" fill="#010101" fill-rule="nonzero"/><path d="m490.606035 171.173721c1.224678 10.774884 4.653777 60.241395 6.368326 62.935116 1.842491 3.543402 3.398707 7.228396 4.653777 11.019768 2.449356 7.346511.979742 53.874418.489871 55.343721-.489871 1.469302 8.082875 6.856744 8.082875 6.856744s1.469614-38.936512-4.898712-62.445349c-1.224678-4.407907-5.878455-15.672558-6.613262-21.06s-8.082875-52.65-8.082875-52.65z" fill="#26282d" fill-rule="nonzero"/><path d="m489.136421 304.390465c1.71455 5.387442 3.184163 8.081163 1.469614 11.509535s-9.307553 1.95907-13.96133-.244884c-4.653777-2.203953-3.91897-3.183488-6.858197-3.183488-6.858197-.244884-12.736652-11.264651-7.103133-11.754419 5.633519-.489767 9.062618 1.714186 11.511974-.244883 2.449356-1.95907 14.941072 3.918139 14.941072 3.918139z" fill="#010101" fill-rule="nonzero"/><path d="m499.423717 42.6097674c-.770307 5.7763083-.687781 11.6344171.244936 17.3867442 1.567227 3.6682519 3.717793 7.0588093 6.368326 10.0402326l-24.248626 4.6527907s2.20442-16.4072093-2.449356-19.5906977c-4.653777-3.1834884 20.08472-12.4890698 20.08472-12.4890698z" fill="#cc9584" fill-rule="nonzero"/><path d="m476.154834 34.2837209c-1.469614 4.407907 0 4.8976744-.734807 6.6118605-.734807 1.714186-1.959485 15.1827907.979742 17.1418605 2.939228 1.9590697 4.163906 2.6937209 7.103133 1.9590697 2.939228-.7346511 11.267038-6.3669767 14.206266-11.0197674 2.939227-4.6527907 3.429098-16.652093-4.163906-20.0804651s-14.941072-2.9386047-17.390428 5.3874418z" fill="#cc9584" fill-rule="nonzero"/><path d="m474.930156 34.2837209c-1.469614-7.5913953 18.615106-17.6316279 28.167595-8.3260465l1.469614 1.2244186c.489871.9795349 1.959485 1.2244186 2.694292 1.7141861.734807.4897674 3.184163 16.4072093.244935 20.8151162-2.939227 4.407907-4.898712 7.3465117-4.408841 9.0606977.489872 1.7141861-17.390428 0-17.390428 0l-2.204421-9.0606977-2.694292-2.2039534-1.714549-4.6527907-1.469614-1.9590698c.517946-2.1713383.845766-4.38365.979743-6.6118605-.244936-3.1834883-3.674034 0-3.674034 0z" fill="#e7e7e7" fill-rule="nonzero"/><path d="m502.60788 64.6493023c3.674034 1.9590698 7.348068 5.1425582 15.186008 10.7748837 0 0 2.939228.2448838 3.429099 1.4693024 6.858197 16.1623256-1.224678 21.06-2.204421 27.1820926-2.20442 12.48907-3.429098 23.263954-1.714549 32.324652 2.694292 15.18279 5.878455 35.263255 5.388583 37.467209-.489871 2.203953-24.00369 6.61186-38.699827 4.407907-7.975213-.885484-15.848422-2.525388-23.513819-4.897675 1.224679-11.754418 5.143648-32.569534 5.388584-40.405814.734807-11.999302-1.714549-19.345813-2.204421-24.733255-.489871-5.387442 1.469614-12.4890701.734807-13.7134887s.244936-18.6111628.244936-18.6111628 6.858197-3.4283721 16.410686-8.815814c2.449356-1.2244186 8.327811.7346512 8.327811.7346512z" fill="#010101" fill-rule="nonzero"/><path d="m503.342687 62.4453488 3.429099 4.8976745c-4.241417-.2649123-8.495236-.2649123-12.736652 0l-15.430944 1.714186 1.714549-4.8976744s2.939228-1.2244186 13.96133-1.9590698c3.023062-.0960395 6.049158-.0142705 9.062618.2448837z" fill="#010101" fill-rule="nonzero"/><path d="m465.867538 74.6895349c1.777596.9068091 3.358992 2.1550153 4.653777 3.6732558 0 0 1.224678-4.8976744 15.430943-6.6118605 23.268884-2.4488372 31.84163 3.6732558 31.84163 3.6732558s-9.797424-8.3260465-12.246781-8.3260465c-2.449356 0-14.941072-1.9590697-26.20811 1.2244186-3.517373 1.4403745-6.951789 3.075464-10.287296 4.8976745z" fill="#26282d" fill-rule="nonzero"/><path d="m500.158524 25.467907c-1.714549-1.2244186-7.348068-.2448837-8.572747 2.2039535-1.224678 2.4488372.489872-2.2039535.489872-2.2039535-1.571883.7771826-2.533644 2.4118293-2.449356 4.1630232-2.694292-1.9590697-.734807-3.4283721-.734807-3.4283721l-1.959485 3.4283721-2.204421-1.4693023s-4.898712 2.4488372-2.694292 5.1425581c-6.12339-2.9386046-1.469613-5.8772093-1.469613-5.8772093-2.903238 1.3947405-5.05098 3.9893784-5.878455 7.101628-2.20442-3.9181396.734807-9.0606977 7.348068-11.7544187 6.613262-2.6937209 6.858198-1.2244186 6.858198-1.2244186s8.082875-.7346511 13.226523 3.9181396c1.080702.8921285 1.993157 1.9702551 2.694292 3.1834883z" fill="#d6d6d6" fill-rule="nonzero"/><path d="m480.563675 40.405814c2.449356-.4897675 4.163905 1.4693023 2.449356 5.3874418s-3.429099 4.8976744-5.143648 3.4283721 2.694292-8.8158139 2.694292-8.8158139z" fill="#cc9584" fill-rule="nonzero"/><path d="m468.071958 149.134186c-1.978483 9.332591-2.801113 18.873081-2.449356 28.406512.489872 11.509535 2.449356 50.69093 2.694292 53.384651.303824 5.429578 1.375874 10.788693 3.184163 15.917442 2.449356 6.856744.489871 56.323256-.244936 61.710697-.734806 5.387442 24.248626 5.87721 24.248626 5.87721s4.163906-37.956977-2.694291-74.444651c-.244936-35.997907 1.959484-55.098838 1.224678-67.343024-.734807-12.244186-25.963176-23.508837-25.963176-23.508837z" fill="#010101" fill-rule="nonzero"/><path d="m501.383202 152.562558c0 2.203954 4.898712 23.753721 4.898712 23.753721h-2.939227z" fill="#26282d" fill-rule="nonzero"/><path d="m467.092216 85.4644186c3.91897 3.4283721 3.91897 37.9569764 3.429099 47.5074414-.489872 9.550466-4.898713 35.753024-5.388584 38.201861s14.941073 5.387442 14.941073 5.387442-17.390429-1.714186-19.59485-3.183489c-2.20442-1.469302 2.939228-24.243488 3.674035-28.406511s2.449356-12.733954 1.714549-16.652093c-.734807-3.91814 0-14.203256-.979742-20.570233z" fill="#26282d" fill-rule="nonzero"/><path d="m467.827023 74.9344186c-5.633519-3.1834884-9.062618 7.5913954-11.75691 17.8765116-1.23567 4.7520874-2.790456 9.4154568-4.653776 13.9583718-7.103133 14.937907-5.143648 21.304884-2.204421 23.01907 11.022103 6.366977 18.125236-14.693023 20.084721-23.01907 3.918969-15.6725578-1.469614-31.8348834-1.469614-31.8348834z" fill="#010101" fill-rule="nonzero"/><path d="m459.989083 81.3013953c.489871 5.6323256 4.653777 11.7544187 4.408841 11.7544187-.244935 0-6.12339-4.8976745-6.12339-4.8976745-.179632.971303-.179632 1.9673018 0 2.9386047.040125 2.5725176.713089 5.0955978 1.959485 7.3465116 1.224678 1.2244186-3.429099-3.9181395-3.429099-5.8772093.799613-3.823971 1.863554-7.587887 3.184163-11.2646512z" fill="#26282d" fill-rule="nonzero"/><path d="m473.460542 147.175116c.979742 4.407907 1.224678 7.591396-.489871 7.591396-1.71455 0-10.287296-1.714186-10.287296-1.714186l-.489871 1.469302s9.797424 2.693721 11.267038 1.714186 1.469614-4.163023 1.469614-6.366977c.119487-1.116367-.466123-2.189758-1.469614-2.693721z" fill="#26282d" fill-rule="nonzero"/><path d="m473.460542 147.175116c-2.449356-.489767-9.062618-2.203953-10.04236-.734651-.971285 1.907083-1.554074 3.988032-1.714549 6.122093-.244936 1.469302 10.777167 2.203954 10.777167 2.203954z" fill="#010101" fill-rule="nonzero"/></g></g></svg>