<svg height="400" viewBox="0 0 1200 400" width="1200" xmlns="http://www.w3.org/2000/svg"><g fill="none" fill-rule="evenodd"><path d="m0 351h1201v-351h-1201z" fill="#eef7fb"/><g transform="translate(448 25)"><path d="m121.525301 261.721477c-62.6194651-1.152394-116.53111057 11.52394-120.37279552 28.297675-3.84168494 16.773734 44.05132072 31.370725 106.79884152 32.523119 62.747521 1.152394 116.53111-11.52394 120.372795-28.297675 3.841685-16.773734-44.051321-31.370725-106.798841-32.523119" fill="#93d5f6" fill-rule="nonzero"/><g transform="translate(2.561123)"><path d="m104.25387 1.09370665 5.506415.00000093.000002 14.08481542-5.506415-.000001z" fill="#706f6f" fill-rule="nonzero" transform="matrix(.99999848 -.00174533 .00174533 .99999848 -.014037 .186775)"/><path d="m238.45608.85950143 5.506415.00000093.000002 14.08481534-5.506415-.0000009z" fill="#706f6f" fill-rule="nonzero" transform="matrix(.99999848 -.00174533 .00174533 .99999848 -.013424 .421001)"/><path d="m291.455832 107.684815-220.2566043.384132c-4.9506427 0-8.9648475-4.012901-8.9648475-8.9630646v-74.9056088c-.033366-2.3992598.8958896-4.7120834 2.580683-6.4207799 1.6847933-1.7086964 3.9844277-2.670573 6.3841645-2.6703282l220.2566043-.3841313c4.950642 0 8.964847 4.0129006 8.964847 8.9630643v74.9056088c.033366 2.3992597-.89589 4.7120837-2.580683 6.4207797-1.684793 1.708697-3.984428 2.670573-6.384164 2.670328" fill="#026a9d" fill-rule="nonzero"/><path d="m289.663045 105.764159-220.2566036.384131c-4.9506427 0-8.9639315-4.012901-8.9639315-8.9630643v-74.9056087c0-4.9501638 4.0132888-8.9630643 8.9639315-8.9630643l220.2566036-.5121751c4.950643 0 8.963932 4.0129005 8.963932 8.9630643v75.0336525c0 4.9501636-4.013289 8.9630646-8.963932 8.9630646" fill="#92d2f4" fill-rule="nonzero"/><path d="m298.498921.64021888-235.1111193.5121751c-7.7088579 0-13.958122 6.24865947-13.958122 13.95677152v27.1452805c.1280561 50.3212038.6402808 264.53844.6402808 264.53844" stroke="#878787" stroke-linecap="round" stroke-width="3"/><g fill-rule="nonzero"><ellipse cx="49.967345" cy="306.833082" fill="#878787" rx="8.067538" ry="3.457182" transform="matrix(.99999848 -.00174533 .00174533 .99999848 -.535448 .087677)"/><path d="m123.103635 21.1516698h165.834151c.883656 0 1.6.7163444 1.6 1.6v74.2537087c0 .8836556-.716344 1.6-1.6 1.6h-165.834151c-.883656 0-1.6-.7163444-1.6-1.6v-74.2537087c0-.8836556.716344-1.6 1.6-1.6z" fill="#ecf7fe" transform="matrix(.99999848 -.00174533 .00174533 .99999848 -.104194 .359665)"/><path d="m121.525301 50.8333789v-3.7132695l169.034137.3841314v3.5852257" fill="#cee9fb"/><path d="m290.687495 82.5882353-169.034138-.3841313-.128056-15.7493844 169.034137.3841313z" fill="#cee9fb"/><path d="m270.710733 25.09658v3.2010944h-3.201404l.128056 15.2372093h18.440088l-.128057-18.4383037z" fill="#fff" stroke="#026a9d"/><g fill="#026a9d" transform="translate(128.056165 26.889193)"><path d="m151.106275.76826265v7.04240766h1.024449v.89630643h-1.024449v2.17674416h-1.280562v-2.17674416h-3.969741l-.256112-.64021887c-.106894-.77761456-.018887-1.56960183.256112-2.30478797.207561-.8210482.55404-1.6005498 1.024449-2.30478796.398999-.61088623.872141-1.16999971 1.408618-1.66456908.519707-.4625964 1.130352-.8115026 1.792786-1.02435021zm-4.481966 7.04240766h3.32946v-5.89001368l-1.152505.89630643c-.412431.41356158-.758042.88873141-1.02445 1.40848154-.359283.50116302-.620023 1.06604448-.768337 1.66456908-.191496.6258815-.320187 1.2692745-.384168 1.92065663z"/><path d="m1.15250548 45.5835841h1.79278631v4.3534884h-.64028082v-3.8413133h-1.15250549z"/><path d="m7.6833699 49.2968536h.76833699v.5121751h-.76833699v1.6645691h-.64028083v-1.6645691h-2.43306713v-.3841313c-.03059036-1.7885143 1.03605319-3.4137187 2.68917946-4.0974008h.51222466zm-.64028083 0v-3.2010944c-1.21091871.5999731-1.96124731 1.8503998-1.92084247 3.2010944z"/><path d="m9.8603247 45.5835841c.3841685 0 .6402808.1280438.6402808.5121751 0 .3841314-.2561123.5121751-.6402808.5121751-.38416849 0-.51222466-.1280437-.51222466-.5121751 0-.2828665.2293308-.5121751.51222466-.5121751zm.12805617 3.2010944c.28289383 0 .51222463.2293086.51222463.5121751.0062336.3090726-.2092929.5784547-.51222463.6402189-.35361734 0-.64028083-.2866358-.64028083-.6402189.06177022-.3029024.33117837-.5184081.64028083-.5121751z"/><path d="m11.3969987 45.5835841 1.4086178-.2560875h.5122247v4.4815321h-.768337v-3.7132695h-1.1525055z"/><path d="m14.726459 47.6322845c-.0738745-.5861574.1089149-1.1756685.5014547-1.6172331.3925398-.4415645.9566115-.6921909 1.5474439-.6875548 1.1525055 0 1.9208425.7682626 1.9208425 2.1767442 0 1.4084815-.8963932 2.4328317-1.9208425 2.4328317-.5908324.004636-1.1549041-.2459903-1.5474439-.6875549-.3925398-.4415645-.5753292-1.0310756-.5014547-1.6172331zm2.0488986 1.6645691c.768337 0 1.2805617-.6402189 1.2805617-1.7926128 0-1.152394-.5122247-1.6645691-1.2805617-1.6645691s-1.2805616.6402189-1.2805616 1.7926128c0 1.152394.5122246 1.6645691 1.2805616 1.6645691z"/><path d="m43.4110399 45.071409c-.0040555.7394284-.4617611 1.4004947-1.1525055 1.6645691l.3841685.2560876c.6402809.3841313.8963932.7682626.8963932 1.2804377-.1324745.9398915-.9747067 1.6136121-1.9208425 1.5365253-1.1525055 0-1.7927863-.5121751-1.7927863-1.4084815s.2561123-1.152394 1.1525055-1.6645691l-.3841685-.2560875c-.391135-.2543886-.6309069-.6859365-.6402808-1.152394.0672972-.9397073.8505847-1.6669753 1.7927863-1.6645691.4078658-.0354119.8130022.0933796 1.125533.3578031.3125307.2644236.5066151.6426159.5391971 1.0506784zm-2.0488986 1.9206567c-.6402808.3841313-.8963932.7682626-.8963932 1.2804377-.0023182.2953877.1230071.5773962.3438107.7736471.2208037.1962509.5155877.2876368.8086948.2507031.2720816.0361678.5472986-.0383479.7639564-.2068432.2166578-.1684954.3566335-.416876.3885491-.6894632 0-.3841313 0-.6402189-.768337-1.0243502zm-.6402808-1.7926129c-.0539303.4139107.1487059.8191438.5122246 1.0243502l.6402808.3841313c.4493493-.3349297.7299911-.8493898.768337-1.4084815.0026862-.2616594-.1091187-.5114263-.3060669-.6837393s-.45937-.2499628-.7183824-.2125671c-.4950642 0-.8963931.40129-.8963931.8963064z"/><path d="m68.7661606 46.8640219c.0443817-.282973-.0491663-.5701132-.2517237-.7726509-.2025573-.2025378-.4897253-.2960767-.7727256-.2516993l-1.0244493.2560875v3.5852258h-.6402809v-4.3534884h.6402809v.3841313c.3364976-.241599.7383339-.3755315 1.1525054-.3841313 1.0244494 0 1.6647302.5121751 1.6647302 1.5365253v2.9450068h-.768337z"/><path d="m72.6078455 49.8090287c-1.2805616 0-2.0488986-.7682626-2.0488986-2.3047879-.03498-.5775555.1614503-1.1452711.5458975-1.5777323.3844471-.4324612.9252722-.6940777 1.5030011-.7270557 1.2805617 0 2.0488987.7682627 2.0488987 2.304788.03498.5775554-.1614504 1.145271-.5458975 1.5777322s-.9252722.6940778-1.5030012.7270557zm0-3.969357c-.7683369 0-1.2805616.6402189-1.2805616 1.6645691s.5122247 1.664569 1.2805616 1.664569c.768337 0 1.2805617-.6402188 1.2805617-1.664569s-.5122247-1.6645691-1.2805617-1.6645691z"/><path d="m78.4984291 46.7359781c.046554-.2491144-.0327514-.5051593-.2119681-.6843587-.1792168-.1791994-.4352865-.2584972-.684425-.2119477l-1.1525055.2560875v3.5852258h-.6402808v-4.3534884h.6402808v.3841313c.3759922-.2591789.8239789-.3935619 1.2805616-.3841313.418575-.040144.833199.1087934 1.1305346.4061001.2973355.2973068.4462873.7118907.4061394 1.1304252v2.9450068h-.6402808z"/><path d="m80.5473278 46.7359781h2.3050109v.6402189h-2.3050109z"/><path d="m87.718473 49.680985h-.768337v-.2560876c-.3150934.2808952-.7318773.4198097-1.1525055.3841313-1.0244493 0-1.7927863-.7682626-1.7927863-2.1767442-.0735-.6202223.1229794-1.2421329.539474-1.7075819.4164946-.4654489 1.0128741-.7295889 1.6374808-.7252498h.768337v-1.7926129h.768337zm-3.0733479-2.1767442c0 1.1523939.6402808 1.664569 1.4086178 1.664569.3409253.0109023.6691677-.1297594.8963931-.3841313v-2.9450161h-.768337c-.4307404-.001489-.8423346.1778499-1.134499.4943307-.2921645.3164809-.4380728.7410446-.4021749 1.1702477z"/><path d="m89.5112593 43.2787962c.2561124 0 .3841685.2560875.3841685.5121751 0 .2121498-.1719981.3841313-.3841685.3841313-.3841685 0-.5122246-.1280438-.5122246-.3841313 0-.2828665.2293308-.5121751.5122246-.5121751zm.2561124 6.4021888h-.6402809v-4.3534884h.6402809z"/><path d="m90.9198771 48.9127223 1.2805617.2560875c.6402808 0 1.0244493-.3841313 1.0244493-.7682626s-.2561123-.5121751-.768337-.6402189h-.5122246c-.6402809-.2560875-1.0244494-.5121751-1.0244494-1.152394 0-.6402188.6402809-1.2804377 1.6647302-1.2804377h1.0244493v.5121751h-1.0244493c-.6402808 0-.8963932.2560875-.8963932.5121751 0 .2560875.1280562.5121751.5122247.6402189h.6402808c.6402808.2560875 1.0244493.6402188 1.0244493 1.1523939s-.6402808 1.4084816-1.6647301 1.4084816h-1.2805617z"/><path d="m97.5787977 45.8396717h-.8963931c-.374201.0324566-.7199407.2130035-.9603979.5015242s-.355715.6611174-.3201638 1.0350011c0 1.2804377.6402808 1.6645691 1.4086178 1.6645691h.8963932v.6402189h-1.0244493c-.5789456.0441166-1.1467804-.1759835-1.5447198-.5987532s-.5832742-1.002835-.5041789-1.577991c-.0738745-.5861575.1089149-1.1756686.5014547-1.6172331.3925398-.4415646.9566115-.6921909 1.547444-.6875549h1.0244493z"/><path d="m100.780202 45.9677155h-.512225c-.3692807-.0033055-.7117599.192378-.896393.5121751v3.3291381h-.6402808v-4.6095759h.768337v.5121751c.2013366-.3024808.5335518-.4922998.8963928-.5121751h.512225z"/><path d="m102.060763 43.2787962c.256113 0 .384169.2560875.384169.5121751 0 .2121498-.171998.3841313-.384169.3841313-.256112 0-.512224-.1280438-.512224-.3841313 0-.2828665.229331-.5121751.512224-.5121751zm.256113 6.4021888h-.640281v-4.4815322h.640281z"/><path d="m109.231909 46.7359781c0-.6402189-.256113-.8963064-.896393-.8963064h-1.152506v3.7132695h-.640281v-2.8169631c0-.6402189-.256112-.8963064-1.024449-.8963064h-1.024449v3.7132695h-.640281v-4.3534884h.640281v.2560876c.347756-.2042236.750976-.2938196 1.152505-.2560876.461782-.0564969.92614.0827968 1.280562.3841313.46986-.2600959.999681-.3925385 1.536674-.3841313.395232-.0360795.787347.0962275 1.079906.3643802.292558.2681527.458411.6472675.45678 1.0441013v3.0730507h-.768349z"/><path d="m111.664976 43.2787962c.282894 0 .512225.2293086.512225.5121751 0 .2560875-.256113.3841313-.512225.3841313-.101888 0-.199603-.0404709-.271648-.1125095-.072046-.0720386-.112521-.1697439-.112521-.2716218 0-.3841314.128057-.5121751.384169-.5121751zm.384168 6.4021888h-.768337v-4.4815322h.768337z"/><path d="m116.274998 46.7359781c.044382-.282973-.049167-.5701132-.251724-.7726509s-.489725-.2960767-.772726-.2516993l-1.024449.2560876v3.7132695h-.768337v-4.4815322h.640281v.2560876c.382606-.2450969.826209-.3781649 1.280562-.3841314.418575-.040144.833199.1087934 1.130534.4061002.297336.2973068.446288.7118907.40614 1.1304251v3.0730507h-.640281z"/><path d="m121.397244 49.680985h-.64028v-.3841314c-.422319.2619926-.91175.3954609-1.408618.3841314-.339975.0357117-.680117-.0659776-.94469-.2824261-.264574-.2164485-.431614-.5296862-.463928-.8699679 0-.7682627.768337-1.4084816 2.048899-1.4084816h.64028v-.5121751c0-.5121751-.256112-.8963064-1.024449-.8963064l-1.280562.3841313v-.6402188c.475596-.2452189 1.001623-.376713 1.536674-.3841314 1.02445 0 1.664731.5121751 1.664731 1.5365253zm-1.920842-.6402189c.512225 0 .896393 0 1.152505-.2560876v-1.0243502h-.64028c-.896394 0-1.280562.2560876-1.280562.6402189s.256112.6402189.768337.6402189z"/><path d="m122.293638 45.1994528h.64028v-.7682626h.640281v.8963064h1.152506v.5121751h-1.152506v2.5608755c0 .5121751.256113.7682626.640281.7682626h.640281v.5121752h-.768337c-.640281 0-1.152506-.3841314-1.152506-1.4084816v-2.5608755h-.64028z"/><path d="m126.135323 43.2787962c.21217 0 .384168.1719814.384168.3841313 0 .2560875-.128056.5121751-.384168.5121751-.282894 0-.512225-.2293086-.512225-.5121751 0-.2560876.256112-.3841313.512225-.3841313zm.384168 6.4021888h-.768337v-4.4815322h.640281z"/><path d="m129.464783 45.071409c1.152505 0 1.66473.6402189 1.66473 1.7926129v.5121751h-2.817236c0 1.152394.640281 1.6645691 1.408618 1.6645691l1.408618-.2560876v.6402189l-1.408618.2560876c-1.280562 0-2.048899-.6402189-2.048899-2.304788s.768337-2.304788 1.792787-2.304788zm1.024449 1.7926129c0-.7682627-.384168-1.152394-1.024449-1.152394-.610622.0585366-1.093963.541831-1.152506 1.152394z"/><path d="m1.15250548 61.3329685 1.40861782-.2560875h.51222466v4.4815321h-.76833699v-3.7132695h-1.15250549z"/><path d="m7.6833699 64.9181943h.76833699v.6402188h-.64028083v1.6645691h-.76833699v-1.6645691h-2.30501097l-.25611233-.3841313c-.03059035-1.7885143 1.03605319-3.4137186 2.68917947-4.0974008h.51222466zm-.64028083 0v-3.2010944c-1.16914602.6442645-1.9025051 1.8664114-1.92084247 3.2010944z"/><path d="m9.98838087 61.2049248c.30293173.0617642.51845823.3311463.51222463.6402188 0 .2828665-.2293308.5121751-.51222463.5121751-.3841685 0-.64028083-.1280437-.64028083-.5121751 0-.3535831.28666349-.6402188.64028083-.6402188zm0 3.3291381c.28289383 0 .51222463.2293086.51222463.5121751s-.2293308.5121751-.51222463.5121751c-.3841685 0-.64028083-.1280437-.64028083-.5121751 0-.3841313.25611233-.5121751.64028083-.5121751z"/><path d="m11.3969987 61.076881h3.0733479v.5121751c-.1624534.8169722-.6781791 1.5201666-1.4086178 1.9206566.4307405-.0014983.8423347.1778406 1.1344991.4943215.2921644.3164808.4380728.7410446.4021749 1.1702476 0 1.0243502-1.1525055 1.9206566-2.6891795 1.9206566h-.6402808v-.5121751h.6402808c1.1525055 0 1.9208425-.6402188 1.9208425-1.4084815 0-.7682626-.3841685-1.152394-1.4086178-1.152394h-.768337v-.5121751c1.0700077-.0897567 1.9546574-.8702545 2.1769548-1.9206566h-2.4330671z"/><path d="m18.8242563 61.7170999h-2.4330672v1.5365253h.6402808c.5071027-.0810577 1.023236.0764422 1.3986631.426807.3754272.3503647.5681213.8543731.5221794 1.3658058 0 1.2804378-1.1525055 2.1767442-2.6891794 2.1767442h-.5122247v-.6402189h.5122247c1.1525054 0 2.0488986-.6402188 2.0488986-1.5365253 0-.8963064-.6402808-1.2804377-1.536674-1.2804377h-1.0244493v-2.6889193h3.073348z"/><path d="m39.569355 61.2049248h1.9208425v4.4815321h-.6402809v-3.8413133h-1.2805616z"/><path d="m46.2282756 64.9181943h.6402808v.5121751h-.6402808v1.664569h-.6402809v-1.664569h-2.4330671l-.2561123-.5121751c.0061015-1.785373 1.1337935-3.3742397 2.8172356-3.9693571h.5122247zm-.6402809 0v-3.2010944c-1.1891721.6232724-1.9304533 1.8586217-1.9208424 3.2010944z"/><path d="m48.5332865 62.4853625h-.768337v-3.7132695h.3841685v1.2804378l.6402809-.2560876c.3292014-.0020389.643561.1367864.8637893.381461.2202284.2446745.3253011.5718398.2887161.8989768.0408453.3846281-.0943805.7671059-.3679091 1.040608s-.6560433.4087148-1.0407087.3678735zm.1280562-2.3047879h-.5122247v1.7926128h.3841685c.5122247 0 .8963932-.2560875.8963932-1.0243502 0-.7682626-.2561123-.7682626-.768337-.7682626z"/><path d="m66.0769811 61.076881h.6402809v.2560875l1.2805616-.2560875c1.0244493 0 1.7927863.6402189 1.7927863 2.1767442.037585.6560279-.2066619 1.2969051-.6713492 1.7615475-.4646873.4646423-1.1056265.7088655-1.7617179.6712842h-.6402808v1.7926129h-.6402809zm2.9452918 2.0487004c0-1.0243502-.5122246-1.5365253-1.2805616-1.5365253-.3610155-.0383205-.7239412.0524021-1.0244493.2560875v2.9450069h.7683369c.8963932.1280438 1.536674-.5121751 1.536674-1.6645691z"/><path d="m72.992014 61.7170999h-.5122246c-.2561123 0-.5122247.1280437-.8963932.5121751v3.3291381h-.6402808v-4.4815321h.6402808v.3841313c.2418397-.3224217.6213832-.5121751 1.0244493-.5121751h.5122247z"/><path d="m74.2725757 59.0281806c.2828939 0 .5122247.2293086.5122247.5121751 0 .2560875-.2561124.3841313-.5122247.3841313-.2121704 0-.3841685-.1719814-.3841685-.3841313 0-.2560876.1280562-.5121751.3841685-.5121751zm.3841685 6.4021888h-.6402808v-4.3534884h.6402808z"/><path d="m75.5531373 60.9488372h.768337l1.2805617 3.8413133 1.1525055-3.8413133h.6402808l-1.4086178 4.4815322h-.8963932z"/><path d="m83.3645634 65.4303694h-.6402808v-.2560876c-.3932392.2070127-.8379437.295945-1.2805617.2560876-.8963931 0-1.4086178-.3841314-1.4086178-1.152394 0-.7682627.6402808-1.2804378 1.9208425-1.2804378h.768337v-.5121751c0-.6402189-.3841685-.8963064-1.0244493-.8963064-.4837597-.0373499-.9689672.0508611-1.4086179.2560875v-.6402188l1.536674-.2560876c1.0244493 0 1.6647302.5121751 1.6647302 1.4084815zm-1.7927863-.5121751c.4141716-.0085999.8160078-.1425323 1.1525055-.3841314v-1.0243502h-.768337c-.8963932 0-1.2805617.3841313-1.2805617.7682627 0 .3841313.2561124.6402189.8963932.6402189z"/><path d="m87.3343045 61.5890561h-.768337c-.3968722-.0016435-.7760237.1641936-1.0442023.4567238-.2681787.2925302-.4004985.6846078-.3644155 1.0798015 0 1.2804378.6402808 1.6645691 1.4086178 1.6645691h.8963932v.5121751h-1.0244493c-1.1525055 0-1.9208425-.6402189-1.9208425-2.1767442-.0738745-.5861574.1089149-1.1756686.5014547-1.6172331.3925398-.4415646.9566115-.6921909 1.5474439-.6875549h.8963932z"/><path d="m87.8465292 60.9488372h.768337l1.2805616 3.7132695 1.0244493-3.7132695h.768337l-1.6647301 5.121751c-.1147892.6307886-.6411477 1.1044655-1.2805617 1.152394h-.5122246v-.6402189h.3841685c.3841685 0 .6402808-.1280437.8963931-.7682626v-.6402189h-.2561123z"/></g><ellipse cx="89.803366" cy="42.865531" fill="#fff" rx="21.255284" ry="21.257306" transform="matrix(.09237059 -.9957247 .9957247 .09237059 38.825908 128.325446)"/><path d="m93.6090566 56.0831737.6402808 2.6889193h3.2014042l-1.1525055-3.5852257z" fill="#026a9d"/><path d="m82.2120579 58.9001368h3.3294603l.5122247-2.8169631-2.8172357-.8963064z" fill="#026a9d"/><path d="m100.267977 32.6511628c-.7683368-1.5365253-2.5611231-4.9937073-3.2014039-5.3778386-2.4068589-.43835-4.8547047-.6101121-7.2992014-.5121751-2.8172357 0-6.4028083.1280438-7.2992014.6402189-.8963932.5121751-2.4330672 3.7132695-3.2014042 5.3778386-.2603207.5157999-.3921181 1.0868666-.3841685 1.664569l.5122247 12.5482901c.2561123 7.0424076 6.4028082 8.0667578 10.3725494 8.0667578 3.9697411 0 10.116437-1.0243502 10.5006053-8.1948016l.384169-12.4202463c.008995-.618881-.122349-1.231758-.384169-1.7926128zm-10.5006053-3.3291455c.9631311.0623297 1.7304579.8295823 1.7927936 1.7926202.0013695.4645787-.191488.9085935-.5319627 1.224718s-.7975821.4755901-1.2608309.4398511c-.9194051 0-1.6647302-.745253-1.6647302-1.6645691-.0357425-.463204.1237386-.9202672.4398936-1.260709.3161551-.3404417.7602129-.5332806 1.2248366-.5319112zm-4.8661343 19.8467925c-.4646237.0013767-.9086815-.1914621-1.2248365-.5319039-.3161551-.3404417-.4756361-.7975049-.4398937-1.2607089 0-.9193161.7453251-1.6645691 1.6647302-1.6645691s1.6647301.745253 1.6647301 1.6645691c.0823395.4729688-.06114.9572361-.3878435 1.3090365-.3267034.3518004-.7990771.5306955-1.2768866.4835763zm9.8603247.0000074c-.9901285 0-1.7927936-.8025875-1.7927936-1.7926202-.0013696-.4645787.191488-.9085936.5319627-1.224718.3404746-.3161245.797582-.4755901 1.2608309-.4398511.9194051 0 1.6647301.745253 1.6647301 1.6645691.0357425.463204-.1237385.9202672-.4398936 1.2607089-.316155.3404418-.7602129.5332806-1.2248365.5319113zm2.9452918-14.0848227-1.7927863 5.8900137c-.1280562.2560876-.2561124.3841313-.5122247.3841313h-11.1408863c-.2396015.0075805-.4524143-.1520136-.5122247-.3841313l-1.9208425-6.0180574c-.1004005-.1694071-.0947772-.3813681.0144643-.5452145s.302754-.2505601.4977604-.2230482h14.8545151c.2475322-.1414333.562862-.0554425.7043089.1920657.141447.2475081.0554479.5628075-.1920842.7042407z" fill="#026a9d"/><path d="m130.745344 40.4618331v2.9450068h-.896393v-7.5545827h3.073348c.256113.1280438.640281.2560875.768337.5121751.236304.1515021.416275.3764447.512225.6402189.113509.284296.157414.5916028.128056.8963064.031091.3466783-.012577.6959913-.128056 1.0243502-.105724.2939253-.281546.5576327-.512225.7682627l-.896393.5121751h-2.048899zm0-3.8413133v3.0730507h1.664731l.512224-.3841314c.256113-.1280438.384169-.2560875.384169-.5121751.170741-.4097401.170741-.8706977 0-1.2804377 0-.2015136-.094886-.391267-.256113-.5121751l-.512224-.2560876h-1.792787z" fill="#009fe3"/><path d="m136.507872 37.7729138v3.5852257c0 .2560876.128056.3841314.128056.6402189 0 .2560876.128056.2560876.256112.2560876l.384169.2560875h1.792786v-4.7376197h.896393v5.5058824h-.896393v-.2560876h-2.305011c-.256112 0-.384168-.1280438-.512224-.3841313-.210363-.0898491-.356807-.2850891-.384169-.5121751-.113509-.284296-.157414-.5916028-.128056-.8963064v-3.457182z" fill="#009fe3"/><path d="m146.368197 40.3337893c.02725.430936-.016004.8634307-.128057 1.2804378-.184232.3588499-.398418.7015156-.64028 1.0243502l-.896394.5121751-1.280561.2560875h-1.66473v-7.938714h.896393v2.6889192h1.408618l1.024449.2560876c.283587.0573947.52203.2481305.640281.5121751.270366.1735099.456033.4519833.512224.7682627.062071.2090677.104934.4233623.128057.6402188zm-.896394.1280438c.029359-.3047036-.014547-.6120104-.128056-.8963064-.008813-.2365879-.099314-.462819-.256112-.6402189l-.512225-.3841313h-1.920842v3.7132695h1.66473l.640281-.3841314c.153822-.2423746.282543-.4997918.384168-.7682626.078914-.2045348.122225-.421069.128056-.6402189z" fill="#009fe3"/><path d="m148.673208 35.3400821v7.9387141h-.896394v-7.8106703z" fill="#009fe3"/><path d="m150.465994 35.980301v-.5121751h.768337c0 .1280437.128056.1280437.128056.2560875v.2560876c0 .1280437-.128056.1280437-.128056.2560875h-.640281c0-.0707166-.057333-.1280438-.128056-.1280438-.128056-.1280437-.128056-.1280437-.128056-.2560875zm.896393 1.664569v5.6339262h-.768337v-5.5058824z" fill="#009fe3"/><path d="m152.899061 40.5898769c-.02725-.430936.016004-.8634307.128056-1.2804378.142292-.3141498.313787-.6142372.512225-.8963064l.768337-.6402189h1.792786l.640281.3841313.512225.7682627c0 .2560875.128056.5121751.128056.8963064v.2560876.2560875h-3.585573c-.020615.304441.023014.6098147.128056.8963065 0 .2560875.128056.3841313.384169.6402188l.512224.3841314h2.433068v.7682626h-1.792787l-1.024449-.2560875c-.357437-.0373877-.682711-.2232405-.896393-.5121751-.227034-.262885-.400981-.5672621-.512225-.8963065-.0738-.2499212-.116803-.5079179-.128056-.7682626zm.896393-.7682627h2.561123v-.6402189c-.128056-.1280437-.128056-.3841313-.256112-.5121751l-.384168-.2560875h-1.02445l-.384168.3841313-.384169.3841313c0 .2560876-.128056.3841314-.128056.6402189z" fill="#009fe3"/><path d="m159.557982 40.5898769v2.6889193h-.768337v-7.8106703h.768337v4.4815321h.512224l1.920843-2.0487004h1.024449l-2.176955 2.304788 2.433067 3.2010943h-1.152505l-1.920843-2.6889192z" fill="#009fe3"/><path d="m163.655779 40.4618331c-.02013-.3885343.023121-.7777545.128056-1.152394.128056-.3841313.256112-.7682626.512225-.8963064l.768337-.6402189h1.792786l.640281.3841313c.250426.1740639.39516.4635024.384168.7682627.162925.2709583.251283.5801823.256113.8963064v.2560876c0 .0707166-.057333.1280438-.128057.1280438h-3.457516c-.020615.304441.023014.6098147.128056.8963064 0 .2560875.128056.3841313.384169.6402189.12092.1612108.310691.2560875.512224.2560875h2.433067v.7682627h-1.792786l-1.024449-.2560876-.896393-.5121751c-.244458-.2501523-.420797-.558717-.512225-.8963064-.060195-.2095281-.103026-.4236585-.128056-.6402189zm.896393-.6402189h2.561123v-.6402189c-.128056-.1280437-.128056-.3841313-.256112-.5121751l-.384169-.2560875h-1.024449l-.512224.3841313-.256113.3841313c-.103516.1966006-.147987.4189313-.128056.6402189z" fill="#009fe3"/><path d="m173.131935 43.2787962-2.048899-7.426539h1.02445l1.66473 6.5302325h.128056l1.536674-4.6095759-.640281-1.9206566h.896393l2.176955 6.5302325h.128056l1.66473-6.6582763h.896394l-2.048899 7.5545828h-1.280562l-1.408617-4.3534884-1.408618 4.3534884z" fill="#009fe3"/><path d="m184.913102 39.4374829v3.8413133h-.768337v-.3841314h-2.305011l-.640281-.2560875c-.161226-.1209081-.256112-.3106615-.256112-.5121751-.101852-.1502396-.147218-.3316848-.128056-.5121751-.018677-.26261.02521-.5259045.128056-.7682627l.384169-.5121751.896393-.3841313h1.920842v-.6402189c0-.2560875 0-.3841313-.128056-.5121751s-.128056-.2560875-.256112-.3841313h-2.561124v-.7682627h2.68918l.640281.2560876c.256112.2560875.384168.3841313.384168.6402189.097609.2907981.097609.6055083 0 .8963064zm-3.201404 2.304788v.3841313l.256112.2560875h1.792787l.384168-.2560875v-1.2804378h-1.66473l-.512225.2560876-.256112.2560875z" fill="#009fe3"/><path d="m190.419517 39.4374829v3.8413133h-.768337v-.3841314h-2.305011l-.64028-.2560875c-.161227-.1209081-.256113-.3106615-.256113-.5121751-.101852-.1502396-.147218-.3316848-.128056-.5121751-.018676-.26261.02521-.5259045.128056-.7682627l.512225-.5121751.768337-.3841313h1.920842v-.5121751c0-.2560876 0-.3841313-.128056-.5121751s-.128056-.2560876-.256112-.3841313l-.384169-.2560876h-2.176954v-.7682626h.512224l.384169-.2560876h1.792786l.640281.2560876c.252131.1089275.406696.3665119.384168.6402188zm-3.201404 2.304788v.3841313c.128056 0 .128056.1280438.256113.2560875h1.152505c.128056 0 .256112 0 .256112-.1280437h.384169l.384168-.2560876v-1.2804377h-1.66473c-.128056.1280437-.384168.1280437-.384168.2560875l-.384169.2560876z" fill="#009fe3"/><path d="m194.901483 37.64487v.8963065h-1.152505l-.256113.2560875-.256112.2560876v4.2254446h-.896393v-5.6339262h.896393v.6402189l.256112-.3841313h1.536674z" fill="#009fe3"/><path d="m200.279842 35.2120383v8.0667579h-.896393v-.3841314h-2.305011l-.768337-.5121751c-.244457-.2501523-.420797-.5587169-.512225-.8963064-.104935-.3746395-.148186-.7638597-.128056-1.152394-.02725-.430936.016004-.8634306.128056-1.2804377.325934-.6696156.866994-1.2106234 1.536674-1.5365253h2.048899v-2.1767442zm-1.920842 3.0730506-.768337.2560876c-.256113 0-.384169.1280437-.512225.3841313-.252131.1089276-.406697.3665119-.384169.6402189-.105042.2864917-.148671.5918654-.128056.8963064-.029358.3047036.014547.6120104.128056.8963064.008814.2365879.099315.462819.256113.6402189l.512224.3841313h1.920843v-3.969357h-1.024449z" fill="#009fe3"/><path d="m201.68846 40.4618331c.011662-.4382999.098284-.8713682.256112-1.2804378l.384169-.8963064.768337-.5121751.896393-.2560875h.896393l.768337.5121751.384168.6402188c.115479.3283589.159148.677672.128057 1.0243503v.2560875h-3.585573c-.029358.3047036.014547.6120104.128056.8963064l.384169.6402189.512224.3841313h2.433067v.7682627h-2.817235l-.768337-.5121751c-.244458-.2501523-.420797-.558717-.512225-.8963064-.112204-.2463491-.198052-.5038673-.256112-.7682627zm.896393-.6402189h2.689179c.008054-.2204895-.03581-.4397872-.128056-.6402189 0-.1280437-.128056-.2560875-.256112-.3841313l-.384169-.2560875h-1.024449l-.384168.2560875c-.161227.1209082-.256113.3106616-.256113.5121751-.128056 0-.128056.2560876-.256112.5121751z" fill="#009fe3"/><path d="m211.03656 43.1507524v-3.5852257c0-.2560876 0-.3841314-.128056-.5121751-.128056-.1280438-.128056-.2560876-.256113-.3841314l-.384168-.2560875h-1.792786v4.4815321h-.896394v-5.2497948h.768337v.3841314l.384169-.2560876h2.048899l.64028.3841313.384169.6402189c0 .2560876.128056.5121751.128056.7682627v3.7132695z" fill="#009fe3"/><path d="m220.768828 42.254446v.7682626h-1.66473l-1.408618-.2560875-1.024449-.6402189c-.340475-.3206664-.60326-.7148068-.768337-1.152394-.343565-1.083126-.343565-2.2460122 0-3.3291382.223725-.474722.52688-.9077581.896393-1.2804377.306305-.3570737.705058-.6228833 1.152506-.7682627l1.280561-.2560875h1.408618v.7682626h-2.433067l-.896393.6402189c-.198438.2820692-.369933.5821567-.512225.8963064-.157828.4090696-.24445.8421379-.256112 1.2804378.011494.4799652.097906.9551887.256112 1.4084815.12112.3245111.294111.6272152.512225.8963065l.896393.5121751 1.024449.2560875h1.536674z" fill="#009fe3"/><path d="m221.665222 40.3337893c-.020131-.3885343.02312-.7777545.128056-1.152394.091427-.3375894.267767-.6461541.512224-.8963064.158733-.3087234.436022-.5397752.768337-.6402189h1.792787l.640281.3841314.384168.7682626c.113509.284296.157414.5916028.128056.8963065v.2560875.2560876h-3.585572c0 .2560875.128056.6402188.128056.8963064l.384168.6402189.640281.3841313h2.433067v.7682626h-1.792786l-1.152506-.2560875-.768337-.5121751c-.256112-.1280438-.384168-.5121751-.512224-.8963064-.080395-.2921574-.123423-.5933272-.128056-.8963065zm.896393-.6402188h2.561123c.019931-.2212876-.02454-.4436184-.128056-.6402189-.034941-.1915983-.123783-.3692663-.256112-.5121751 0-.1280438-.128057-.1280438-.384169-.2560876h-1.024449l-.384169.3841313c-.128056.1280438-.256112.2560876-.256112.3841314-.103516.1966005-.147987.4189313-.128056.6402189z" fill="#009fe3"/><path d="m230.885265 43.1507524v-3.5852257c0-.2560876 0-.3841314-.128056-.5121751-.128056-.1280438-.128056-.2560876-.128056-.3841314-.12092-.1612108-.310691-.2560875-.512225-.2560875h-1.152505c-.128056 0-.256112 0-.256112.1280438h-.384169v4.4815321h-.896393v-5.3778386h.896393v.3841314h2.305011l.640281.3841313.384168.5121751c0 .2560875.128057.5121751.128057.8963064v3.7132695z" fill="#009fe3"/><path d="m232.934164 38.2850889v-.6402189h.768337v-1.0243502h.768337v1.152394h1.536674v.6402189h-1.536674v3.5852257c0 .1280438.128056.2560876.128056.3841313h.896393c0-.0707166.057333-.1280437.128057-.1280437h.384168v.7682626h-1.536674c-.128056-.1280438-.384168-.1280438-.512225-.3841313-.161226-.1209081-.256112-.3106615-.256112-.5121751-.128056-.1280438-.128056-.5121751-.128056-.7682627v-3.0730506z" fill="#009fe3"/><path d="m239.977253 37.64487v.7682627h-.512224c0-.0707166-.057333-.1280438-.128057-.1280438h-.768337l-.256112.2560876v4.2254446h-.896393v-5.1217511h.896393v.6402189c0-.1280438.128056-.1280438.256112-.2560875l.256113-.2560876h1.280561z" fill="#009fe3"/><path d="m244.843387 39.3094391v3.8413133h-.768337v-.3841313h-.384168l-.384169.2560875h-1.66473l-.512224-.3841313-.384169-.3841313c-.101852-.1502396-.147218-.3316849-.128056-.5121751 0-.2560876.128056-.5121751.128056-.7682627l.512225-.5121751.768337-.2560875h1.920842v-1.152394l-.256112-.3841314h-2.561123l-.256113-.7682626h2.817236l.640281.2560875.384168.6402189c.069663.1628265.112892.3357256.128056.5121751zm-3.32946 2.304788c-.011894.1401958.034416.2791103.128056.3841313 0 .1280438.128056.1280438.128056.2560876h1.920843c.128056-.1280438.256112-.1280438.256112-.2560876v-1.2804377h-2.048898c-.128057.1280437-.256113.1280437-.256113.2560875-.190816.1550212-.244564.4237387-.128056.6402189z" fill="#009fe3"/><path d="m250.349803 39.3094391v3.8413133h-.768337v-.3841313h-.384169l-.384168.2560875h-1.664731l-.512224-.2560875-.384169-.5121751c0-.1280438-.128056-.3841314-.128056-.5121751.025646-.2722689.113252-.5350615.256112-.7682627 0-.1280438.256113-.3841313.384169-.5121751l.768337-.2560875h1.920842v-1.152394l-.256112-.3841314h-2.561123l-.256113-.7682626h2.817236l.640281.2560875.384168.6402189c.069663.1628265.112892.3357256.128057.5121751zm-3.329461 2.304788c-.011894.1401958.034416.2791103.128056.3841313.074095.0656722.119971.1574139.128057.2560876h1.920842l.384169-.2560876v-1.2804377h-1.536674l-.512225.2560875c-.128056.1280438-.256112.1280438-.256112.2560876 0 .1280437-.256113.2560875-.256113.3841313z" fill="#009fe3"/><path d="m252.910926 35.2120383v7.9387141h-.768337v-7.9387141z" fill="#009fe3"/><path d="m129.20867 26.8891929c.529134-.2074423 1.097707-.2949067 1.664731-.2560876h.64028v5.6339262h-.896393v-4.8656635h-1.408618z" fill="#026a9d"/><path d="m133.690636 26.7611491 1.66473-.2560875c1.280562 0 2.048899.6402188 2.048899 1.5365253 0 .8963064-.384168 1.4084815-1.408618 1.9206566l-.768337.3841313c-.419816.1952202-.77521.5061602-1.024449.8963065h3.585573v.7682626h-4.097798l-.256112-.7682626c.243832-.680716.751568-1.2345555 1.408618-1.5365253l.768337-.5121752c.640281-.3841313.896393-.6402188.896393-1.1523939s-.512225-.8963065-1.280562-.8963065l-1.536674.2560876z" fill="#026a9d"/><path d="m139.837332 26.7611491c.353617 0 .640281.2866358.640281.6402189 0 .5121751-.256112.7682626-.640281.7682626-.215281.0499024-.44108-.0147275-.597344-.1709761s-.2209-.3820262-.170993-.5972865c0-.3841313.256113-.6402189.768337-.6402189zm0 3.9693571c.384169 0 .640281.2560875.640281.7682626 0 .3535831-.286664.6402189-.640281.6402189-.512224 0-.768337-.2560876-.768337-.6402189 0-.4242997.343996-.7682626.768337-.7682626z" fill="#026a9d"/><path d="m141.758175 29.4500684c-.112762-.7428392.106418-1.4977168.599484-2.0646875.493065-.5669708 1.210267-.8888274 1.961639-.8803193 1.408618-.1280438 2.433067.8963064 2.433067 2.6889192.109545.755125-.106916 1.5212288-.595442 2.1074029-.488526.5861742-1.20311.9372159-1.965681.9656478-1.408618 0-2.433067-1.0243502-2.433067-2.8169631zm2.433067 2.0487004c.896393 0 1.66473-.8963064 1.66473-2.1767442 0-1.2804377-.640281-2.1767442-1.66473-2.1767442-1.02445 0-1.536674.7682627-1.536674 2.1767442 0 1.4084816.640281 2.1767442 1.536674 2.1767442z" fill="#026a9d"/><path d="m152.002668 26.5050616v.7682626c-1.81374 1.791126-2.829272 4.2373981-2.817236 6.7863201h-.640281c-.060185-2.4707013.860665-4.8646802 2.561124-6.6582763h-3.585573v-.7682627z" fill="#026a9d"/><path d="m129.592839 56.0831737v-.7682626l.896393-.2560876h1.536674v6.0180575h-1.280562v-5.121751h-1.280561z" fill="#026a9d"/><path d="m134.202861 55.95513v-1.0243502h3.32946v1.0243502l-.384168.7682626-.768337.6402189c.405274.0884709.767325.3147307 1.024449.6402189.179402.3108199.268126.6656808.256112 1.0243502-.019975.5642868-.304673 1.0861833-.768337 1.4084815-.588928.4428193-1.312598.6689445-2.048898.6402189h-.768337v-1.0243502h.768337c.512224 0 .896393 0 1.152505-.2560876.171522-.0307465.323101-.1300669.419761-.2750427s.13005-.323082.092464-.4932199c0-.2560876-.128056-.3841314-.256112-.6402189l-.640281-.3841313-.512225.2560875h-.640281v-.6402189l1.280562-.6402188c.363732-.2786814.668434-.6268787.896393-1.0243502z" fill="#026a9d"/><path d="m138.812883 57.3636115c0-.2560876 0-.3841313.128056-.5121751s.384169-.2560876.640281-.2560876h.512224c.103517.1966006.147987.4189313.128057.6402189 0 .2560876 0 .3841313-.128057.5121751-.128056.1280438-.256112.2560876-.512224.2560876h-.640281c-.121665-.1897187-.167387-.4183042-.128056-.6402189zm0 2.8169631c0-.2560876 0-.3841314.128056-.5121751l.640281-.2560876h.512224c.103517.1966006.147987.4189313.128057.6402189 0 .2560875 0 .3841313-.128057.5121751-.128056.1280438-.256112.2560875-.512224.2560875h-.640281c-.121665-.1897186-.167387-.4183041-.128056-.6402188z" fill="#026a9d"/><path d="m144.703466 54.9307798v1.0243502h-2.305011v1.1523939h.512225c.539177-.0291202 1.074635.1047312 1.536674.3841314.347849.3326921.53465.7996501.512225 1.2804377.042342.6491585-.246825 1.2756257-.768337 1.6645691-.612827.3802194-1.329225.5593014-2.048899.5121751h-.768337v-.8963064h.768337c.512225 0 .896393 0 1.152506-.2560876.256112-.2560875.512224-.5121751.512224-.7682626.010992-.3047603-.133742-.5941989-.384168-.7682627-.304641-.1942651-.664221-.2841516-1.02445-.2560875h-1.024449v-3.0730506z" fill="#026a9d"/><path d="m149.441545 54.9307798v1.0243502h-2.305011v1.1523939h.64028c.504276-.1174206 1.033785.026977 1.408618.3841314.382004.319381.613954.7832359.640281 1.2804377.0139.6736656-.326269 1.3053477-.896393 1.6645691-.605364.3975484-1.327654.5781033-2.048899.5121751h-.768337v-.8963064h.768337l1.152506-.2560876c.299673-.1416873.496682-.4371729.512224-.7682626.040448-.310433-.111529-.6143579-.384168-.7682627l-.896393-.2560875h-1.02445v-3.0730506z" fill="#026a9d"/><path d="m168.137745 56.0831737v-.8963064l.896393-.2560875h1.536674v5.8900136h-1.152506v-4.8656634h-1.280561z" fill="#026a9d"/><path d="m172.875823 56.0831737v-.8963064l.896393-.2560875h1.536674v5.8900136h-1.152506v-4.8656634h-1.280561z" fill="#026a9d"/><path d="m179.150575 56.0831737v1.7926129h-.640281v-.2560876c0 .1280438-.128056.1280438-.256112.1280438h-.384169l-.640281-.2560875c-.161226-.1209082-.256112-.3106616-.256112-.5121751 0-.2560876.128056-.3841314.256112-.6402189h1.280562c.011894-.1401958-.034415-.2791103-.128056-.3841313h-1.152506v-.6402189h1.02445c.384168 0 .64028 0 .768337.2560875.086707.1566049.130858.333195.128056.5121751zm-1.536674 1.0243502h.896393v-.5121751h-.768337c-.171842.1097016-.228052.3345206-.128056.5121751z" fill="#026a9d"/><path d="m197.33455 57.8757866v2.9450068h-1.024449v-.2560875l-.512225.2560875h-.768337c-.361774.0506938-.729095-.0411275-1.024449-.2560875-.254397-.2272035-.395072-.5554141-.384169-.8963064-.020384-.4433735.169431-.8704176.512225-1.152394.455036-.2958436.995938-.431056 1.536674-.3841314h.640281c0-.2015135-.094886-.3912669-.256112-.5121751-.210063-.1872634-.487919-.2798731-.768337-.2560875h-1.280562v-.8963064l.768337-.2560876h.896393c.52181-.0431426 1.036405.1439648 1.408618.5121751.23543.3347065.327612.7494874.256112 1.152394zm-2.561123 1.6645691c-.011894.1401958.034415.2791103.128056.3841313h1.408618v-.7682626h-.640281l-.640281.2560875c-.128056-.2560875-.256112 0-.256112.1280438z" fill="#026a9d"/><path d="m199.639561 56.3392613v2.6889193c-.03933.2219147.006391.4505002.128056.6402189.12092.1612108.310692.2560875.512225.2560875h.896393v-3.5852257h1.02445v4.4815321h-1.02445v-.2560875l-.512224.2560875h-.640281c-.447447.0433857-.884878-.1510092-1.152506-.5121751-.280922-.315063-.41985-.7318064-.384168-1.1523939v-2.8169631z" fill="#026a9d"/><path d="m203.097078 57.1075239v-.7682626h.512224v-.8963064h1.152506v.8963064h1.152505v.7682626h-1.152505v2.0487005c0 .2015135.094886.3912669.256112.5121751l.384169.2560875h.64028v.8963064h-.896393c-.41717.0099743-.824754-.1258737-1.152505-.3841313-.280923-.315063-.41985-.7318065-.384169-1.152394v-2.1767442z" fill="#026a9d"/><path d="m210.908504 58.5160055c.004995.6158935-.223821 1.2107581-.640281 1.6645691-.437998.4413456-1.043843.6743402-1.66473.6402188-.555694.0097783-1.097987-.1709686-1.536674-.5121751-.394963-.4594075-.580583-1.0626152-.512225-1.6645691-.073021-.6641257.163026-1.3249951.640281-1.7926128.431607-.3705553.969619-.5947055 1.536674-.6402189.560838-.0475711 1.116549.1376482 1.536674.5121751.494945.4561051.734284 1.1261892.640281 1.7926129zm-1.152506 0c0-.5121751 0-.7682627-.256112-1.0243502-.200748-.2027798-.486059-.2978741-.768337-.2560876l-.768337.2560876c-.256112.2560875-.256112.6402188-.256112 1.1523939 0 .5121752 0 .7682627.256112.8963065.15392.2726127.457874.4245751.768337.3841313.296049-.0242551.571301-.1618677.768337-.3841313.214981-.2953257.306811-.6626111.256112-1.0243502z" fill="#026a9d"/><path d="m214.622133 60.8207934v-2.816963c0-.2560876 0-.5121751-.128057-.5121751l-.64028-.2560876h-.768337v3.457182h-1.152506v-4.3534884h1.024449v.3841313l.640281-.2560875h.640281c.414172.0085998.816008.1425323 1.152506.3841313.277266.3670441.413585.8213972.384168 1.2804377v2.9450069z" fill="#026a9d"/><path d="m221.152997 58.3879617c.040907.685251-.243861 1.3496456-.768337 1.7926129-.361073.4725582-.94685.7166082-1.536674.6402188-.560838.0475712-1.116549-.1376481-1.536674-.5121751-.441388-.4379556-.674405-1.0437415-.640281-1.6645691-.024847-.6576014.204435-1.299529.640281-1.7926128.437998-.4413456 1.043843-.6743402 1.66473-.6402189.560838-.0475711 1.116549.1376482 1.536674.5121751.41646.453811.645276 1.0486755.640281 1.6645691zm-1.152506.1280438c.031614-.3817173-.109333-.7575401-.384168-1.0243502-.15392-.2726127-.457874-.4245751-.768337-.3841314-.29605.0242551-.571301.1618677-.768337.3841314-.159339.3185851-.246768.66827-.256112 1.0243502-.012014.3586693.07671.7135302.256112 1.0243502.197036.2222636.472287.3598762.768337.3841313.310463.0404438.614417-.1115186.768337-.3841313.260862-.2757428.399381-.6450895.384168-1.0243502z" fill="#026a9d"/><path d="m227.427749 60.8207934v-2.816963c0-.2560876 0-.5121751-.256112-.6402189h-1.280562v3.4571819h-1.152505v-2.816963c.03933-.2219148-.006391-.4505002-.128057-.6402189h-1.408617v3.4571819h-1.152506v-4.4815321h1.152506v.3841313l.512224-.2560875h1.408618l.512225.3841313.640281-.3841313h.768337c.414171.0085998.816007.1425323 1.152505.3841313.280922.315063.41985.7318065.384168 1.152394v3.0730506z" fill="#026a9d"/><path d="m229.604704 55.0588235c0-.2560875.128056-.3841313.128056-.5121751h1.024449c.128056.1280438.128056.2560876.128056.5121751.011894.1401959-.034415.2791104-.128056.3841314h-1.024449c0-.1280438-.128056-.2560876-.128056-.3841314zm1.280561 1.152394v4.4815322h-1.152505v-4.4815322z" fill="#026a9d"/><path d="m231.781659 58.5160055c-.024848-.6576014.204434-1.2995291.64028-1.7926129.380802-.3544149.889088-.5392284 1.408618-.5121751.498763-.0279635.993113.106846 1.408618.3841313.322898.3993258.503175.8950399.512225 1.4084816v.3841313c-.067822.1182487-.111358.2488434-.128056.3841313h-2.68918c-.010903.3408924.129772.669103.384169.8963065l.896393.2560875h1.408618v.8963064h-1.536674c-.615954.004995-1.210876-.2237991-1.664731-.6402188-.441388-.4379557-.674405-1.0437416-.64028-1.6645691zm1.152505-.5121751h1.66473c.041791-.2822509-.053313-.5675339-.256112-.7682627-.12092-.1612108-.310692-.2560875-.512225-.2560875l-.640281.2560875c-.14286.2332012-.230466.4959938-.256112.7682627z" fill="#026a9d"/><path d="m170.058587 309.353762c2.048899-.128044 4.097797.384131 4.481966 1.152394l.384168.640219-.768337 1.792613c-2.348033 1.430574-5.063453 2.142746-7.811426 2.0487-4.353909-.256087-6.018639-1.02435-8.067538-.896306-2.048899.128043-7.939482 1.152394-8.323651-.768263-.384168-1.920657-.640281-5.377839-.640281-5.377839l13.317842-2.0487s5.378358 3.457182 7.427257 3.457182z" fill="#f4f3f4"/><path d="m170.186643 314.603557c-1.252334.329566-2.548882.459208-3.841685.384131-4.353909-.256087-6.018639-1.02435-8.067538-.896306-2.048899.128043-7.939482 1.152394-8.323651-.768263-.384168-1.920657-.640281-5.377839-.640281-5.377839l8.835876-1.280437c1.792786 4.737619 6.786977 7.042407 12.037279 7.938714z" fill="#010101" opacity=".07"/><path d="m139.837332 287.330233s11.268943 10.88372 13.317841 12.54829c2.048899 1.664569 13.317841 7.682626 14.214235 8.706976.896393 1.024351-2.433067 2.560876-8.963932 1.280438-3.841685-.768263-6.530864-2.176744-9.091988-1.920657-.067769-1.176121-.419261-2.31836-1.024449-3.329138-.896393-1.152394-16.007021-10.371546-16.007021-10.371546s1.152506-8.322845 7.555314-6.914363z" fill="#edc7b2"/><path d="m135.611479 287.970451c-.11455.706798.021327 1.431406.384168 2.048701 1.66473 2.945007 4.225854 4.73762 7.043089 6.530232 4.275083 2.539833 8.157501 5.688601 11.525055 9.347196 1.563625 1.731143 3.429555 3.162997 5.506415 4.225445l-1.66473-.256088c-3.841685-.768263-6.530864-2.176744-9.091988-1.920657-.067769-1.176121-.419261-2.31836-1.024449-3.329138-.896393-1.152394-16.007021-10.371546-16.007021-10.371546s.640281-4.353488 3.329461-6.274145z" fill="#010101" opacity=".07"/><path d="m76.833699 238.41751s-4.2258535 4.353489-8.3236507 3.71327l-1.0244494-4.097401 6.146696-3.329138s.6402808 3.457182 3.2014041 3.713269z" fill="#ce9b25"/><path d="m76.833699 238.41751s-4.2258535 4.353489-8.3236507 3.71327l-1.0244494-4.097401 6.146696-3.329138s.6402808 3.457182 3.2014041 3.713269z" fill="#b58b55"/><path d="m91.1759895 277.598906-9.3481001-11.908072-2.5611233-22.023529 17.2875823 26.889193z" fill="#edc7b2"/><path d="m93.0968319 275.166074-1.9208424 2.432832-9.3481001-11.908072-2.5611233-22.023529 2.5611233 3.969357c1.0244493 9.731327 3.3294603 22.151573 11.2689425 27.529412z" fill="#010101" opacity=".07"/><path d="m98.3471347 253.65472 28.9406933-2.945007c.215281-.049903.441081.014727.597344.170976.156264.156249.2209.382026.170993.597286l-7.811426 23.432011-31.1176482 3.457182 7.5553138-23.432011c.1816582-.767135.8765931-1.301648 1.6647301-1.280437z" fill="#9d9d9c"/><path d="m115.250548 273.629549s4.866135-2.560876 7.04309-2.432832c2.176954.128044 14.982571 12.164159 14.982571 12.164159l-8.067539 8.578932-9.476156-5.377838s-20.36093 15.365253-24.9709519 17.029822c-4.610022 1.664569-11.7811672 1.408482-11.7811672 1.408482l14.8545151-17.798085z" fill="#3a8835"/><path d="m159.045757 312.938988c2.048899-.128044 4.097797.512175 4.481966 1.152394l.384168.640219-.768337 1.792612c-2.321168 1.504483-5.046626 2.263964-7.811426 2.176745-4.225853-.384132-6.01864-1.152394-8.067538-1.024351-2.048899.128044-7.939482 1.152394-8.323651-.768262-.384168-1.920657-.640281-5.249795-.640281-5.249795l13.317841-2.0487s5.378359 3.457181 7.427258 3.329138z" fill="#fff"/><path d="m160.326319 317.932695c-1.589568.614242-3.293484.876358-4.994191.768263-4.225853-.384132-6.01864-1.152394-8.067538-1.024351-2.048899.128044-7.939482 1.152394-8.323651-.768262-.384168-1.920657-.640281-5.249795-.640281-5.249795l7.811426-1.280438c4.610022 3.201095 8.835876 6.530233 14.214235 7.554583z" fill="#010101" opacity=".07"/><path d="m69.5344976 238.033379s-.768337 2.176744-.2561123 2.176744c.9140417.059537 1.8172517.231561 2.6891794.512175l5.378359 15.877428s-8.3236508 1.152394-8.7078193 0-13.958122-16.389603-13.958122-16.389603l5.7625275-6.402189z" fill="#edc3ad"/><path d="m48.149118 243.283174c2.8234431-2.140221 5.7741565-4.107173 8.8358754-5.890014l15.2386837 16.645691-.2561124-13.316553 5.7625274 1.280438c1.9813808 1.341964 3.2516862 3.505979 3.4575165 5.890014.6402808 3.713269 3.2014041 16.773734 3.2014041 16.773734l-.2561123 17.670041s-11.0128302 1.408482-14.9825713 4.097401-7.0430891 11.267852-6.9150329 14.084815c-1.6477772-2.533662-3.1031634-5.187345-4.3539096-7.938714-1.1525055-4.0974-13.5739535-24.328317-13.5739535-36.108344 0-11.780028 1.2805616-11.139809 3.8416849-13.188509z" fill="#fff"/><path d="m48.149118 243.283174.3841685-.256088c.1413756.720593.4009926 1.412838.768337 2.048701 7.4272576 13.57264 13.7020097 31.114637 27.916244 38.413132-2.9452918.768263-6.2747521 1.664569-8.0675384 2.945007-3.9697411 2.816963-7.0430891 11.267852-6.9150329 14.084815-1.6477772-2.533662-3.1031634-5.187345-4.3539096-7.938714-1.1525055-4.0974-13.5739535-24.328317-13.5739535-36.108344 0-11.780028 1.2805616-11.139809 3.8416849-13.188509z" fill="#f4f3f4"/><path d="m71.1992277 281.82435 24.9709522-4.865663c.3403087-.075164.6965556-.008392.9865353.184909.2899796.193301.4886397.496431.5501387.839441.1617327.740036-.2908684 1.475442-1.0244493 1.664569l-24.9709522 4.865663c-.7285747.10093-1.4265113-.328528-1.6647302-1.02435-.0873872-.765267.4053856-1.476981 1.1525055-1.664569z" fill="#9d9d9c"/><path d="m67.2294866 286.433926c3.2014041-2.0487 14.5984028-4.225444 14.5984028-4.225444s23.1781656-9.219152 25.4831766-9.731327c2.305011-.512176 7.427258-1.792613 8.323651-.384132l11.268942 15.493297c.640281.896307-8.963931 8.706977-8.963931 8.706977s-8.067538-5.890014-8.835875-7.298495c-.768337-1.408482-9.9883813 9.219151-11.6531114 10.499589-1.6647302 1.280438-8.9639316 6.78632-14.8545152 7.298495-5.8905836.512176-11.653111 1.024351-16.5192453-2.304788-4.8661342-3.329138-4.3539096-5.377838-4.4819657-7.682626-.1280562-2.304788 2.4330671-8.322845 5.6344712-10.371546z" fill="#3a8835"/><path d="m80.9314963 298.470041c8.0675384-1.408481 15.3667398-6.018057 22.9220537-9.091108l6.402808-2.945007c2.288102 2.516126 4.867336 4.751245 7.68337 6.658276.744233.511654 1.565674.90072 2.433067 1.152394l-2.433067 2.048701s-8.067538-5.890014-8.835875-7.298495c-.768337-1.408482-9.9883813 9.219151-11.6531114 10.499589-1.6647302 1.280438-8.9639316 6.78632-14.8545152 7.298495-5.8905836.512176-11.653111 1.024351-16.5192453-2.304788-4.8661342-3.329138-4.3539096-5.377838-4.4819657-7.682626v-.896306c5.3783589 3.457181 13.9581219 3.457181 19.3364809 2.560875z" fill="#010101" opacity=".07"/><path d="m125.495042 285.281532 3.969741 5.505883c-5.250303.128043-8.579763 7.938714-8.579763 7.938714l-5.122247-3.841314c.967896-4.893645 4.82576-8.700379 9.732269-9.603283z" fill="#549242"/><path d="m123.318087 294.628728c-1.006322 1.239988-1.826006 2.620374-2.433067 4.097401l-5.122247-3.841314c.50088-2.55687 1.801322-4.888472 3.713629-6.658276.692784 2.435789 2.018267 4.644714 3.841685 6.402189z" fill="#010101" opacity=".07"/><path d="m136.635928 281.952394 4.35391 5.249795-8.70782 8.066758-4.99419-3.841314c.756064-4.838814 4.519552-8.653487 9.3481-9.475239z" fill="#549242"/><path d="m128.824502 290.915458s11.268942 11.011765 13.445897 12.54829c2.176955 1.536526 13.317841 8.194802 14.214235 9.091108.896393.896307 1.024449 2.560876-9.604213.768263-6.402808-1.02435-8.451707-.640219-8.451707-.640219s-.384168-3.457182-1.280561-4.609576-15.878965-10.243502-15.878965-10.243502 1.152506-8.194801 7.555314-6.914364z" fill="#edc7b2"/><path d="m130.105064 301.927223c6.786976 4.481532 14.214234 7.81067 21.129267 11.908071-1.460533-.080145-2.914653-.251201-4.35391-.512175-6.402808-1.02435-8.451707-.640219-8.451707-.640219s-.384168-3.457182-1.280561-4.609576-15.878965-10.243502-15.878965-10.243502c.213203-1.161705.601812-2.284245 1.152506-3.329138 1.962022 3.028328 4.589998 5.568459 7.68337 7.426539z" fill="#010101" opacity=".07"/><path d="m70.3028346 216.778112c2.6331795.604755 5.1163129 1.737303 7.2992014 3.329138 0 0 1.7927863.768263.6402808 3.585226l-1.9208425 5.505882s.8963932 1.152394-.3841685 3.457182c-1.2749392 2.007862-2.7324188 3.893829-4.3539096 5.633926-.4281135.490406-1.0196102.808874-1.6647301.896307-.618941.008994-1.2318772-.122337-1.7927863-.384131l-7.6833699-4.993708s6.2747521-17.670041 9.8603247-17.029822z" fill="#edc7b2"/><path d="m52.8871961 245.20383c3.3294603 1.536526 4.2258535 8.706977 4.3539096 10.243502.1280562 1.536526-.6402808 22.151574-.6402808 22.151574l20.1048179-1.536526 8.7078192-2.816963 4.610022 2.560876-9.3481001 4.225444-5.1222466.896307s-13.9581219 5.121751-17.5436946 6.146101c-3.5855726 1.02435-9.0919877 1.792613-11.0128302.384131-1.9208424-1.408481-2.5611233-35.852257-1.1525054-39.309439 1.4086178-3.457182 3.7136287-4.609576 7.043089-2.945007z" fill="#edc7b2"/><path d="m46.1002194 247.636662c.1280562 12.292203 1.536674 19.974829 3.073348 25.352668 2.6891794 9.219152 10.2444932 12.804377 18.9523124 9.987414l2.6891794-.384131c-4.3539096 1.664569-10.6286617 3.841313-12.8056165 4.481532s-9.0919877 1.792613-11.0128302.384131c-1.9208424-1.408481-2.5611233-35.852257-1.1525054-39.309439 0-.201513.0948858-.391267.2561123-.512175z" fill="#010101" opacity=".07"/><path d="m90.023484 275.678249-.8963932 2.688919-9.4761562 1.792613.768337-4.097401z" fill="#edc7b2"/><path d="m76.065362 213.833105c2.7596668 1.684009 4.4174131 4.706666 4.3539096 7.938714.1280562 2.945007-4.0977973 7.426539-4.0977973 7.426539l.8963932-2.816963c.5122246-2.0487-1.7927863-7.298495-1.7927863-7.298495l-2.305011-5.890014s-.2561123-1.152394 2.9452918.640219z" fill="#b58b55"/><path d="m63.7719702 211.528317c3.9697411-1.02435 6.5308644-1.664569 9.3481 1.664569 2.8172356 3.329139 2.305011 5.890014 2.305011 5.890014-2.3763757 2.996917-5.5174282 5.297183-9.0919877 6.658276-4.9941905 2.048701-4.2258535 8.706977-3.5855727 11.780028.6402809 3.07305 1.7927864 3.329138 1.7927864 3.329138s-6.146696.512175-7.6833699 0c-1.536674-.512175-4.2258535-1.02435-5.7625275-3.201094-1.536674-2.176745-3.7136288-9.091108-.5122246-13.188509 3.2014041-4.097401 8.8358754-11.780028 13.189785-12.932422z" fill="#b58b55"/><path d="m50.9663537 155.3171c-2.5611233-2.688919-8.8358754-5.505882-15.1106275-5.121751s-7.4272576 2.176744-7.4272576 2.176744l20.7450988 7.682627z" fill="#db4b47"/><path d="m6.14669592 281.440219c-1.83993419.386632-3.55563132 1.222404-4.99419044 2.432832l-.89639315.640218c-.12837205.077258-.21647841.206843-.24111044.354621-.02463202.147778.01668017.298931.11305428.413642.51222466 1.152394 9.22004387 12.164159 10.75671783 14.853078 1.536674 2.688919 4.610022 5.377839 6.1466959 4.097401-4.6100219-11.52394-5.2503027-15.621341-5.2503027-15.621341z" fill="#d79832"/><path d="m11.9092233 300.13461c-1.4086178-2.432832-9.3481-13.060465-11.39699864-15.877428l-.25611233.256087c-.12837205.077258-.21647841.206843-.24111044.354621-.02463202.147778.01668017.298931.11305428.413642.51222466 1.152394 9.22004387 12.164159 10.75671783 14.853078 1.536674 2.688919 3.9697411 4.73762 5.6344713 4.353488-1.536674-.384131-3.4575165-2.304787-4.610022-4.353488z" fill="#e0b885"/><path d="m46.8685564 262.48974-34.7032207 27.913543s-2.94529182.256088-6.01863978-2.945007c-1.61766507-1.558649-2.73251014-3.565176-3.20140413-5.76197l27.53207551-26.248974 7.2992014-4.865663z" fill="#5182b0"/><path d="m41.4901975 251.862107s-37.39240022 25.09658-35.34350158 35.596169c-1.61766507-1.558649-2.73251014-3.565176-3.20140413-5.76197l27.53207551-26.248974 7.2992014-4.865663z" fill="#026a9d"/><path d="m23.8184467 118.056361c1.1525055-.256087 3.5855726-.256087 3.9697411-1.408481s6.2747521-3.073051 8.8358754-1.536526c2.5611233 1.536526 1.0244493.256088 1.6647301 1.408482 1.6319233 2.687876 2.0945299 5.925809 1.2805617 8.963064-1.7927863 8.066758 2.6891794 13.828728-.768337 16.389603-5.6344713 4.353489-15.494796 1.536526-19.9767617-5.633926-7.0430891-9.603283.1280561-16.901778 4.9941904-18.182216z" fill="#1d1d1b"/><path d="m27.5320755 137.775103 9.7322685 4.481532.3841685 4.097401c-.0422193 2.226403 1.0106088 4.331856 2.8172356 5.633926 0 0 11.3969987 11.267852 2.0488987 11.908071-9.3481001.640219-18.8242563-12.036115-18.8242563-12.036115 4.3539096-6.146101 3.841685-14.084815 3.841685-14.084815z" fill="#ae7a55"/><path d="m49.9419043 155.3171s6.5308645 4.225444 8.3236508 9.091108c.3841685 1.02435 4.7380781 20.102873 5.5064151 24.456361.1280561.768263-3.3294603 5.121751-4.2258535 1.408482-1.6647301-7.682627-7.5553137-20.102873-7.5553137-20.102873-2.5496753-1.581857-4.9884089-3.335865-7.2992014-5.249795-2.9452918-2.560875 5.2503027-9.603283 5.2503027-9.603283z" fill="#946648"/><path d="m48.7893989 166.969083-.2561124.896307 3.4575165 2.304788c.4294909.788692.8142673 1.600919 1.1525055 2.432832-.2561124-1.920657 1.0244493-4.993708 2.8172356-8.194802-3.841685 4.225445-7.1711452 2.560875-7.1711452 2.560875z" fill="#612904" opacity=".1"/><path d="m63.643914 188.352394 2.0488986 7.81067c.1268484.373662.1268484.778733 0 1.152394l-1.1525054 4.609576c-.1780066.499751-.4877119.942144-.8963932 1.280438l-3.4575165 2.432832c-.508937-.767477-.4014886-1.788137.2561124-2.432832l1.6647301-1.664569.5122247-3.841313c.0191621-.180491-.0262036-.361936-.1280562-.512175-.1998463-.191376-.4871717-.260517-.7522148-.181012s-.4668571.295374-.5283468.565143l-.6402809 3.713269c-.1349723.401292-.4791416.696265-.8963931.768263-.4950643 0-.8963932-.40129-.8963932-.896306v-5.377839l.8963932-7.426539z" fill="#946648"/><path d="m47.2527249 204.613953.6402808 5.505883 1.2805617 9.219152 3.2014041 21.255266c.5995848 4.283006.8138698 8.611144.6402808 12.932422-.1049282 3.185992-1.784108 6.11228-4.4819658 7.81067l-1.6647301 1.152394-9.4761562-1.152394.6402808-8.706977-12.1653357-45.839671z" fill="#5182b0"/><path d="m36.7521194 217.802462 4.0977972 31.114638c.1240017 1.690114-.5372834 3.343167-1.7927863 4.481532l-1.1525055.896306-12.0372795-47.50424z" fill="#026a9d"/><path d="m29.7090303 296.549384c-.1280562 2.68892.8963931 4.481533 1.7927863 7.810671.8963931 3.329138.768337 4.993707-4.610022 5.249795-5.3783589.256087-4.9941904-3.457182-4.9941904-3.969358 0-.512175.6402808-6.402188.6402808-6.402188z" fill="#d79832"/><path d="m26.6356823 308.329412c-1.4399358.14094-2.8923013-.079094-4.2258534-.640219.6402808 1.02435 1.7927863 2.0487 4.4819657 1.920657 2.6891795-.128044 4.3539097-1.152394 4.7380782-2.432832-1.5401835.801055-3.2586979 1.197597-4.9941905 1.152394z" fill="#e0b885"/><path d="m43.4110399 205.51026-1.0244493 9.603283c-.2249587 1.906097-1.3100813 3.604386-2.9452918 4.609576-.9422989.578733-1.6290488 1.494311-1.9208425 2.560876l-4.8661342 33.803556-.8963932 44.43119s-.8963931.768263-5.3783589 1.152394c-4.4819658.384132-4.8661343-1.152394-4.8661343-1.152394l-2.4330671-20.743091c-.5122247-5.377839-1.4086178-11.395896-.5122247-16.645691l.8963932-6.018057-1.7927863-18.182217c-.5959815-4.154458-.810303-8.354753-.6402809-12.54829l.2561124-4.481532c.1133766-.86195.0257189-1.738442-.2561124-2.560875-.7666459-2.483874-1.027898-5.096143-.7683369-7.682627l.6402808-7.170451z" fill="#5182b0"/><path d="m22.0256604 256.983858c-1.4286753-12.344756-1.2996072-24.820134.3841685-37.132695 0 0 11.3969987 0 11.7811672-10.243502l-17.1595262-5.121751h-.1280561l-.6402808 7.170451c-.2595611 2.586484.001691 5.198753.7683369 7.682627.2818313.822433.369489 1.698925.2561124 2.560875l-.2561124 4.481532c-.1700221 4.193537.0442994 8.393832.6402809 12.54829l1.7927863 18.182217-.8963932 6.018057c-.8963931 5.249795 0 11.267852.5122247 16.645691l2.4330671 20.743091s-4.0977973-27.273324.5122247-43.534883z" fill="#026a9d"/><path d="m23.8184467 209.479617c-.3841685 3.201094-1.0244493 8.066758-1.0244493 8.066758s6.6589205.640219 8.4517069-5.249795c1.7927863-5.890014-7.4272576-2.816963-7.4272576-2.816963z" fill="#5182b0"/><path d="m13.8300658 155.445144 9.8603247-3.585226s7.1711453 9.219152 16.1350768 8.066758c2.5611233-.384132 2.8172356-5.76197.6402808-7.938714.3841685.256087 4.3539096-1.792613 10.5006056 3.329138.8963931 1.664569 1.5366739 10.499589-.6402809 14.084815l-1.7927863-.896306c.2589239 2.991754.1297968 6.00443-.3841685 8.963064-.768337 4.097401-1.7927863 9.987415-1.6647301 11.908071.3841685 8.450889 3.2014041 18.31026 2.305011 19.846785-.8963932 1.536526-13.0617289 6.530233-32.6543221 2.176745-.5122247-18.822435-1.6647302-33.035295-1.6647302-33.035295l-4.48196573-6.914363c-1.90544076-2.861299-2.55349061-6.378944-1.79278631-9.731327.49079904-3.012549 2.69162024-5.463226 5.63447124-6.274145z" fill="#db4b47"/><path d="m33.6787714 188.096306-7.5553137-14.853078c-1.6647302 2.945007-9.0919878 5.249795-11.6531111 5.121751 0 0 10.2444932 13.444597 14.5984029 18.182217.8963931 1.02435 2.5611233.640219 3.8416849.256087l21.0012111-6.530232-.768337-5.377839z" fill="#ae7a55"/><path d="m67.7417113 171.834747-13.7020097 4.481532c-.1950064-.027512-.3885189.059202-.4977604.223048-.1092415.163847-.1148647.375808-.0144642.545215l1.4086178 4.225444 14.9825713-4.865663-1.4086178-4.097401c-.0307495-.171505-.1300796-.32307-.2750694-.41972-.1449898-.096651-.3231133-.130037-.4932676-.092455z" fill="#3d3d3b"/><path d="m55.193561 174.429111 12.6458833.000354c.2209095.000018.3999888.179102.4.400011v2.99013c.0000112.220914-.1790749.4-.3999888.4-.0000037 0-.0000074 0-.0000112-.000011l-12.6458833-.000354c-.2209095-.000018-.3999887-.179102-.4-.400012v-2.990129c-.0000112-.220914.1790749-.4.3999888-.4.0000038 0 .0000075 0 .0000112.000011z" fill="#ecf7fe" transform="matrix(.95266148 -.30403306 .30403306 .95266148 -50.696333 27.049984)"/><path d="m54.8791377 178.337484 15.1508094.000425c.1656821.000013.2999916.134326.3.300008v.898126c.0000084.165685-.1343062.3-.2999916.3-.0000028 0-.0000056 0-.0000084-.000009l-15.1508094-.000424c-.1656822-.000013-.2999916-.134327-.3-.300009v-.898125c-.0000084-.165686.1343061-.3.2999916-.3.0000028 0 .0000056 0 .0000084.000008z" fill="#bdbec0" transform="matrix(.95266148 -.30403306 .30403306 .95266148 -51.49179 27.465947)"/><path d="m68.5100483 176.956498-1.1525055.384131c-.2561123 0-.2561123.256088-.2561123.384132 0 .128043.2561123.256087.3841684.128043l1.2805617-.384131c.1280562 0 .1280562-.256088.1280562-.384131-.0262152-.074742-.0855429-.133148-.1606904-.158195-.0751475-.025046-.1576568-.013915-.2234781.030151z" fill="#fff"/><path d="m65.4367003 177.980848-2.9452918.896307c-.2561123 0-.2561123.256087-.2561123.384131s.2561123.256087.3841685.128044l2.9452918-.896307c.1280561 0 .2561123-.256087.2561123-.384131s-.2561123-.256088-.3841685-.128044z" fill="#fff"/><path d="m66.5892058 178.621067-8.1955946 2.688919c-.3223773.123358-.6809069.111359-.9943135-.033277-.3134066-.144635-.5551454-.409656-.6704166-.734985-.2589612-.38754-.2589612-.892898 0-1.280438l.8963931-1.792613c.3841685-1.408481.1280562-2.432832-.8963931-2.688919l-3.7136288 5.377838-.8963932 7.042408-.3841684 3.713269 4.6100219-.896306c2.1364528-.589104 4.1373834-1.589472 5.8905836-2.945007 1.2805616-.512175 1.1525055-2.176744 1.1525055-2.176744s.6402808-1.02435.6402808-1.280438l.2561123-.640219c.0099752-.41713-.1258859-.824674-.3841685-1.152394 0 0 2.5611233-1.02435 2.6891795-1.408481s0-1.792613 0-1.792613z" fill="#ae7a55"/><path d="m33.5507152 150.57948c1.0244493.640219 5.5064151 2.432832 6.9150329 1.408482l-.768337-.512175c-1.2453889-1.424722-1.9680701-3.231251-2.0488986-5.121751l-.3841685-4.097401-8.1955945-2.816963c0 .128043-1.0244494 7.426539 4.4819657 11.139808z" fill="#612904" opacity=".1"/><path d="m26.8917946 135.98249c-2.3050109-4.865664.6402809-4.73762.768337-7.042408 0-5.249795 5.7625275-3.073051 11.1408864-4.353488.2561123.256087 3.3294603 7.426539 3.7136288 8.450889 2.0488986 7.554583 2.9452918 8.194802-1.7927863 10.243502s-9.4761562 1.536525-12.2933919-.768263c-.768337-.512175-3.8416849-3.201094-3.8416849-3.201094s3.2014041-1.408482 2.3050109-3.329138z" fill="#ae7a55"/><path d="m23.5623344 135.086183c.7683369 0 4.2258534 5.377839 3.5855726 5.890014s-3.841685-.896306-5.2503028-2.432832c-.5908458-.617038-.736763-1.535896-.366134-2.30559s1.1799995-1.228643 2.0308642-1.151592z" fill="#ae7a55"/><path d="m47.380781 161.335157c.7426983 2.318577 1.1312409 4.735942 1.1525055 7.170452l1.7927863.896306c0-.128044 0-.128044.1280562-.256087-.7150724-2.714897-1.7465888-5.336414-3.073348-7.810671z" fill="#885f23" opacity=".1"/><path d="m143.807073 140.976197c3.329461-1.792613 12.165336-.896306 14.598403-.128044 2.433067.768263 2.305011 4.097401 2.305011 4.097401l-20.104818 1.536525c.063186-2.259704 1.268706-4.332998 3.201404-5.505882z" fill="#e6dcd2"/><path d="m144.959579 142.000547c2.689179-1.536525 10.244493-.896306 12.165335-.256087 1.920843.640219-.512224 2.560875-.512224 2.560875h-9.3481s-4.994191-.896306-2.305011-2.304788z" fill="#c4bcb2"/><path d="m146.112084 145.84186-5.122246 33.675513-2.945292-.768262 5.506415-33.803557z" fill="#2f5a71"/><path d="m169.546362 175.035841 3.585573 16.517647.896393 2.048701c.199555 1.18417.285316 2.384717.256113 3.585226.070723 0 .128056.057327.128056.128043 0 .070717-.057333.128044-.128056.128044h.128056l-.512225 4.097401-.896393 1.664569c-.640281-.256088-.384169-1.02435-.384169-1.02435v-.896307l-1.280561 2.560876c-.395091-.173637-.610356-.604127-.512225-1.02435h.128056l-.384168.640219c-.395091-.173637-.610356-.604127-.512225-1.024351l.512225-1.792613v-.256087l-1.280562 1.536525c-.366598-.258582-.522283-.72559-.384168-1.152394l.768337-1.664569.256112-1.280438c-.128056-.512175-.384169-2.560875-.640281-3.329138-.060982-1.081311.069062-2.164909.384169-3.201094-1.635783-3.289405-3.089283-6.666331-4.35391-10.115458-.384168-1.408482-1.280562-6.146102-1.280562-6.146102l-3.713628-23.688098 7.299201.256087z" fill="#f0c6a7"/><path d="m169.546362 175.035841s4.481966 12.292203 3.201405 13.572641c-1.280562 1.280437-2.561124.768262-3.841685.768262-1.280562 0-2.817236-6.274145-3.457517-8.322845-.640281-2.048701-1.280561-6.146101-1.280561-6.146101l-3.713629-23.688099 7.299201.256088z" fill="#e6dcd2"/><path d="m164.29606 160.822982c.768337 3.841313 1.024449 7.810671 1.536674 11.651984.231593 3.543518.788853 7.058204 1.66473 10.499589.640281 2.176745 1.152505 4.609576 3.32946 5.633927.65876.257128 1.390139.257128 2.048899 0h-.128056c-.768337.896306-2.561124.768262-3.841685.768262-1.280562 0-2.817236-6.274145-3.457517-8.322845-.640281-2.048701-1.280561-6.146101-1.280561-6.146101l-3.713629-23.688099h3.841685c-.65938 3.167145-.65938 6.436138 0 9.603283z" fill="#010101" opacity=".1"/><path d="m164.29606 188.480438c.128056 1.02435.384168 7.298495.640281 10.755677.256112 3.457182-.640281 26.505061-.640281 26.505061l-4.225854 37.004652h-4.610022s-1.920842-22.02353-.896393-30.346375c.512225-4.097401.768337-9.987415.768337-9.987415l-2.176955-33.675513z" fill="#f0c6a7"/><path d="m164.29606 188.480438c.128056 1.02435.384168 7.298495.640281 10.755677 0 1.280438 0 4.73762-.128057 8.83502h-.128056c-2.433067.896307-5.378359 1.024351-6.915033 3.457182-.551068 1.245742-.728996 2.62455-.512224 3.969357-.128057 5.76197-.512225 11.52394-.640281 17.28591-.242868 1.054236-.414002 2.123718-.512225 3.201095-.512225 5.633926-.384168 11.267852-.512225 17.029822l-.384168 6.146101c-.512225-6.530233-1.408618-20.615048-.640281-26.889193.512225-4.097401.768337-9.987414.768337-9.987414l-2.176955-33.675513z" fill="#010101" opacity=".06"/><path d="m142.526512 220.491382c0-1.152394-.512225-19.33461-.512225-23.560055.137138-2.841716.698245-5.646983 1.66473-8.322845h11.653111l-1.024449 9.731326-2.561123 25.736799-7.04309 38.669221-4.481965-1.024351s.896393-26.505061 1.152505-28.681805c.256112-2.176745 1.152506-9.859371 1.152506-12.54829z" fill="#f0c6a7"/><path d="m142.526512 220.491382c0-1.152394-.512225-19.33461-.512225-23.560055.137138-2.841716.698245-5.646983 1.66473-8.322845h11.653111l-1.024449 9.731326-1.152506 10.49959h-2.048898c-2.68918.256088-4.738078 2.688919-5.762528 4.993707-1.024449 2.304788-.768337 6.018058-.896393 9.091108-.128056 3.073051-.768337 8.963065-1.536674 13.572641s-2.176955 20.999179-2.689179 25.352667c.256112-7.298495 1.024449-27.529412 1.152505-28.681806.384169-3.713269 1.152506-9.987414 1.152506-12.676333z" fill="#010101" opacity=".06"/><path d="m145.471803 261.849521 4.225854 2.816963c3.457516.512175 3.713629 2.816963 3.713629 2.816963h-14.598403c-.182654-2.019264.170721-4.050972 1.024449-5.890013z" fill="#e6dcd2"/><path d="m149.569601 264.666484h.128056c3.457516.512175 3.713629 2.816963 3.713629 2.816963h-7.811426c0-.128043.128056-.128043.128056-.256087.384526-1.747003 2.081016-2.877887 3.841685-2.560876z" fill="#9abccc"/><path d="m153.411286 267.483447h-14.598403c-.064479-.381426-.064479-.770968 0-1.152394h13.958122c.267542.351474.483174.739573.640281 1.152394z" fill="#7a95a3"/><path d="m160.838543 261.721477 6.786977 3.073051c3.585573.384131 3.713629 2.688919 3.713629 2.688919h-17.543695c-.150253-2.038785.391111-4.068702 1.536674-5.76197z" fill="#e6dcd2"/><path d="m165.448565 265.818878c.179431-.696353.81787-1.175135 1.536674-1.152394h.256112l.384169.256088c3.585573.384131 3.713629 2.688919 3.713629 2.688919h-6.146696v-.896306s.384168-1.152394.256112-.896307z" fill="#9abccc"/><path d="m170.570812 266.074966c.387236.3851.654177.874444.768337 1.408481h-17.543695v-1.408481z" fill="#7a95a3"/><path d="m144.191242 173.883447h18.440088s3.457516 8.835021 3.841684 22.919836l.256113 10.49959s-7.68337.640219-14.982571.640219c-9.604213 0-12.549505-.640219-12.549505-.640219s.128057-9.47524.256113-15.621341 4.738078-17.798085 4.738078-17.798085z" fill="#009f79"/><path d="m144.191242 173.883447h18.440088c1.168912 3.41539 2.02612 6.929603 2.561123 10.49959-3.969741.512175-7.939482 1.280438-11.268943 3.585226-.512224.384131-3.713628 10.499589-3.841685 11.011764-3.32946 1.024351-9.604212 2.304788-10.756717 5.76197 0-4.609576 0-10.115458.128056-13.060465.256112-6.274145 4.738078-17.798085 4.738078-17.798085z" fill="#010101" opacity=".1"/><path d="m138.812883 147.378386c.384168-.896307 10.116437-4.481532 10.116437-4.481532 2.048899.256087 6.274752.256087 7.939482.640219 2.363146.581419 4.675631 1.352172 6.915033 2.304787 3.969741 1.152394 3.969741 5.633927 3.969741 5.633927l.256112 3.07305c-1.425477.395233-2.800523.953791-4.097797 1.664569.256113 1.408482.384169 2.560876.384169 2.560876v.256087c0 1.536526-.896393 12.036115 0 14.853078 2.561123 7.938714.896393 9.603284.896393 9.603284l-24.842896 2.945006s2.305011-12.676333 2.561123-14.853078c.256112-2.176744 0-14.084815 0-14.084815-1.280562-3.841313-4.097797-10.115458-4.097797-10.115458z" fill="#e6dcd2"/><path d="m142.91068 157.493844c-.512225-1.536525-1.408618-3.585226-2.048899-5.505882 2.176955 3.457182 3.585573 7.554582 5.378359 11.139808 1.189402 2.299514 2.174937 4.698846 2.945292 7.170452.512824 2.117962 1.24232 4.177516 2.176955 6.146101 1.840607 3.099924 4.330737 5.764543 7.299201 7.81067l-18.312031 2.176744s2.305011-12.676333 2.561123-14.853078c.256112-2.176744 0-14.084815 0-14.084815z" fill="#010101" opacity=".1"/><path d="m149.953769 135.854446h6.01864v7.554583l1.408618.384131c.128056 1.920657-1.920843 3.71327-4.225854 3.71327s-7.811426-1.408482-7.811426-3.329139l3.457517-1.280437z" fill="#f0c6a7"/><path d="m159.173813 131.500958c1.024449 3.201094-.128056 7.682626-3.713629 8.83502-3.585572 1.152394-7.299201-.384131-8.32365-3.585226l-4.225854-5.377838 13.830066-8.578933z" fill="#f0c6a7"/><path d="m155.972409 140.079891c0 .256087.128056.384131.128056.640218-1.729938.543866-3.618092.156589-4.99419-1.02435 0 0 2.945291 1.664569 4.866134.384132z" fill="#010101" opacity=".1"/><path d="m148.160983 121.257456s1.536674 5.377838 2.689179 6.146101l-2.305011.896306c-.595636.150702-1.106451.532946-1.419019 1.061856s-.401018 1.160709-.245711 1.755107l.384169.896307-.768337.256087s-.256113-.896306-.768337-.640219c-.512225.256088-1.02445.384132-.640281 1.536526 1.152505 3.329138 2.433067 2.688919 2.433067 2.688919l2.561123 3.841313c-2.689179-.512175-6.65892-5.505882-7.427257-7.81067-2.68918-8.450889 5.506415-10.627633 5.506415-10.627633z" fill="#312b2b"/><path d="m149.697657 120.873324c7.171145-2.0487 8.707819 3.969357 8.707819 3.969357.57272 1.386883.618267 2.935347.128056 4.353489-.512224-2.176745-4.225853-4.353489-4.225853-4.353489-1.02445 2.432832-5.890584 3.457182-5.890584 3.457182l-.384168-6.914364z" fill="#312b2b"/><path d="m143.679017 128.683995c-2.561123 2.0487 1.920843 7.170451 1.920843 7.170451-3.841685 1.792613-6.01864-5.121751-4.994191-7.042408 1.024449-1.920656 3.073348-.128043 3.073348-.128043z" fill="#312b2b"/><path d="m151.362387 129.836389c1.920842-.384132 2.305011-.128044 2.433067.512175.248736.557765.251703 1.194355.008175 1.754413-.243527.560058-.711146.992066-1.288737 1.190593-1.408617.768263-2.176954.128044-2.945291-1.152394-.768337-1.280437-.256113-1.792612 1.792786-2.304787z" fill="#e3f2f3" opacity=".5"/><path d="m156.61269 128.555951c1.792786-.640219 2.561123-.384132 2.561123 1.02435 0 1.408481-.256112 2.304788-1.792786 2.432832-1.260429.160065-2.43182-.676562-2.68918-1.920657-.128056-.640219 0-1.02435 1.920843-1.536525z" fill="#e3f2f3" opacity=".5"/><path d="m148.545151 130.860739v.384131h.128057s.256112 0 .256112.128044h.128056c0 .256087.128056.384131.256112.640219.128057.256087 1.408618 1.792613 2.561124 1.408481l.64028-.256087c1.096049-.467412 1.692282-1.659762 1.408618-2.816963-.128056-.384132.128056-.512175.128056-.512175h.128057s.128056 0 .256112.384131.128056 0 .128056.128044c.364291 1.14119 1.505184 1.847388 2.68918 1.664569h.512224c1.152506-.256088 1.408618-1.152394 1.408618-2.432832v-.640219c-.128056-.256087 0-.384131 0-.384131h.128056v-.512175h-.128056c-.685365-.070077-1.377594-.026817-2.048899.128043h-.768337l-1.536674.768263h-.128056l-.768337.512175h-1.024449l-1.792786.256088h-.256113l-.384168.256087-2.048899.896307zm6.274752-.768263c-.128056-.512175 0-.896306 1.792787-1.408481h.256112c1.024449-.256088 1.536674-.256088 1.792786 0 .256113.256087.384169.512175.384169 1.02435s-.128056 1.920656-1.152506 2.176744h-.512224c-1.190446.161079-2.305019-.619047-2.561124-1.792613zm-5.378358.896306c.128056-.384131.64028-.640218 1.66473-.896306h.256112c1.920842-.384131 2.176955-.128044 2.305011.384131.445282 1.096131-.066561 2.347183-1.152506 2.816963l-.512224.256088c-1.152506.256088-1.66473-.256088-2.305011-1.280438s-.384169-1.02435-.256112-1.280438z" fill="#2d5371"/><path d="m148.801264 131.372914-2.305011.896306-.128056-.256087 2.305011-1.152394z" fill="#2d5371"/><path d="m157.509083 143.409029c.606209-.290415 1.309-.301763 1.92427-.03107s1.081711.796453 1.277134 1.439551c-4.866134 4.481532-7.427258 2.68892-7.427258 2.68892 2.048899-.640219 4.225854-4.097401 4.225854-4.097401z" fill="#e6dcd2"/><path d="m157.509083 145.457729c.353617 0 .640281.286636.640281.640219s-.286664.640219-.640281.640219-.640281-.286636-.640281-.640219.286664-.640219.640281-.640219z" fill="#c4bcb2"/><path d="m157.381027 146.097948h.256112c0 .128044 2.305011 3.71327 1.280562 6.658276-1.02445 2.945007.256112 8.066758.256112 8.194802h-.256112c0-.256088-1.02445-6.274145-.384169-8.322845.640281-2.048701-1.152505-6.274145-1.152505-6.402189s-.128056-.128044 0-.128044z" fill="#fff"/><path d="m153.283229 147.50643c-5.250302 2.304788-9.732268-3.073051-9.732268-3.073051l1.280562-.896306c2.682348 1.593073 5.51282 2.922408 8.451706 3.969357z" fill="#e6dcd2"/><path d="m148.801264 146.097948c.353617 0 .640281.286636.640281.640219 0 .282866-.229331.512175-.512225.512175-.253407.154934-.580105.115266-.789062-.09581-.208956-.211075-.245299-.538128-.087777-.789919s.467544-.3622.748783-.266665z" fill="#c4bcb2"/><path d="m148.801264 146.610123h.256112c1.164379 1.982765 2.109041 4.086582 2.817236 6.274145.513437 1.547903 1.246575 3.014037 2.176954 4.353488.472886.535622.861503 1.140079 1.152506 1.792613v.256088c-.070724 0-.128056-.057327-.128056-.128044-.292668-.624137-.635265-1.223623-1.02445-1.792613-1.052016-1.330053-1.834925-2.852228-2.30501-4.481532-.754726-2.128271-1.697529-4.185097-2.817236-6.146101-.256112 0-.256112-.128044-.128056-.128044z" fill="#fff"/><path d="m148.801264 148.274692c1.109046 3.105379 2.049495 6.268401 2.817235 9.47524l-.896393 23.303967-3.073348-1.536526s2.048899-14.981121.512225-23.175923-6.146696-10.883721-6.146696-10.883721l2.561123-1.02435c1.923551.564106 3.481465 1.980254 4.225854 3.841313z" fill="#2f5a71"/><path d="m147.648758 159.670588.640281-2.560875c0 1.408481.384169 1.664569.384169 1.664569.845063.260771 1.764881.067144 2.433067-.512175.640281-.512175.128056-2.560876.128056-2.560876l2.305011 1.280438c.283033.160259.473138.445388.512224.768263l.640281 4.865663-4.481965 5.377839-2.68918-2.68892.768337-1.408481z" fill="#f0c6a7"/><path d="m138.044546 178.749111c1.280562-.128044 12.421448.768262 12.421448.768262 4.610022 1.66457.640281 15.493297-.640281 17.926129s-11.653111.384131-15.238684 0c-3.585572-.384131-1.280561-7.554583-.896393-8.963064.384169-1.408482 3.201404-9.47524 4.35391-9.731327z" fill="#2f5a71"/><path d="m138.044546 178.749111c1.280562 0 12.165336 0 13.061729 1.02435s1.024449 1.280438 1.024449 1.280438-.768337-.896307-1.536674-.512175c-.768337.384131-2.945292 4.225444-4.35391 6.402188-1.408617 2.176745-6.915032 2.68892-8.195594 2.432832-1.280562-.256087-4.225854-1.408481-3.201404-4.225444 1.024449-2.816963 1.920842-6.402189 3.201404-6.402189z" fill="#9abccc"/><path d="m173.003879 191.297401-3.32946.256087-.768337-2.176744 3.585572-.512175z" fill="#f3eee8"/><path d="m151.874612 166.072777-1.536674 1.664569-3.201404-2.176744 1.152505-1.664569c1.529826-.08345 2.953875.781068 3.585573 2.176744z" fill="#f3eee8"/><path d="m136.635928 153.140356c-.142661-2.145191.651406-4.246931 2.176955-5.76197 2.305011-.128044 3.457516 3.201094 3.969741 5.377838.512225 2.176745-1.024449 15.621341-1.024449 15.621341s4.225853-3.329138 6.018639-3.457182c1.304153.313972 2.390758 1.211515 2.945292 2.432832.512225 3.713269-7.171145 9.091108-12.421448 8.706977-5.250303-.384132-1.280561-19.334611-1.66473-22.919836z" fill="#e6dcd2"/><path d="m136.763984 156.597538c.005549 3.683782.262257 7.3629.768337 11.011764.384169 2.68892 1.152506 5.633926 4.481966 5.505883 2.077183-.118187 4.076976-.829156 5.762527-2.048701h.384169c1.021892-.568409 1.864602-1.411038 2.433067-2.432831-.896393 3.585225-7.555314 7.81067-12.293392 7.554582-4.738078-.256087-1.66473-16.901778-1.66473-22.023529.097418.807136.140201 1.61993.128056 2.432832z" fill="#010101" opacity=".1"/><path d="m140.093444 188.864569-.256112 1.536525-2.689179-.256087.512224-1.408482z" fill="#21404f"/><path d="m213.725739 258.136252c.640281 0 2.048899.128043 2.176955-.128044.128056-.256088 0-4.097401 2.048899-4.865664 2.048898-.768262-1.02445-.384131-1.02445-.384131s-1.408617.896307-1.792786 3.969357c-.105799.729594-.678953 1.302692-1.408618 1.408482z" fill="#010101"/><path d="m268.533778 230.350752c-.128056.384132-7.427258 4.097401-7.555314 4.353489-1.289566 2.327085-3.031057 4.373138-5.122246 6.018057-1.920843 1.408482-1.152506-.512175-2.433067 1.664569-1.280562 2.176744-1.664731 2.304788-2.048899 2.176744-.384169-.128043.384168-1.408481.896393-2.816963.512225-1.408481 2.433067-3.457182 1.920842-3.201094-1.369379 1.743102-2.610512 3.583224-3.713628 5.505882-.512225.640219-2.048899 1.792613-1.792787.896307.256113-.896307 2.433068-4.993707 2.68918-5.633926s-2.945292 4.865663-3.32946 5.249794c-.384169.384132-.896394-.128043-.384169-1.152393.512225-1.024351 2.561123-5.121752 2.817236-5.505883.256112-.384131-1.152506 1.152394-1.408618 1.664569l-1.280562 1.920657c-.640281 1.02435-1.536674 1.408481-.896393-.128044.266153-.923217.608823-1.822639 1.024449-2.688919.773127-.96973 1.630144-1.869511 2.561124-2.688919l7.043089-4.993708c3.713629-2.945007 6.146696-4.481532 6.65892-4.993707z" fill="#e0ac9c"/><path d="m262.259026 183.486731c2.176955-.512176 1.920842-1.024351 3.841685 1.408481 1.920842 2.432832 2.561123 5.76197 3.201404 7.682627.640281 1.920656 11.140886 24.840492 10.372549 27.401368-.768337 2.560875-7.68337 12.036114-10.372549 13.444596-5.378359 2.945007-6.402808 0-6.402808 0l-5.250303-6.658276s9.860325-9.731327 8.707819-10.243502c-1.152505-.512175-5.122246-10.371546-5.890583-14.340903s1.792786-18.694391 1.792786-18.694391z" fill="#a380b7"/><path d="m226.659412 350.455814c-1.66473-.256088-4.866134-10.243502-5.506415-8.322845-.401888 2.099481.270654 4.261014 1.792786 5.761969 1.190215.920744 2.429946 1.775648 3.713629 2.560876z" fill="#010101"/><path d="m228.452198 339.187962c.384169 3.969357-1.408617 5.890013-2.561123 9.987414-.384168 1.408482-1.024449-5.377838-1.792786-3.713269-.192908.605667-.496883 1.170138-.896393 1.664569-.768337 1.152394 4.99419 1.792613 7.555313-2.68892 1.280562-2.304787 6.146696 1.66457 5.634472 0-.512225-1.664569-2.048899-5.505882-1.664731-9.347195.896394-9.219152-6.530864.256087-6.274752 4.097401z" fill="#cc9584"/><path d="m237.41613 343.285363c-.128056-2.048701-3.841685-3.329139-7.171145 1.02435 0 0-2.176955-6.018058-4.994191-1.280438-.384168.640219-1.024449 1.280438-1.66473.768263s-1.66473-.384132-1.66473.640218c0 1.024351.128056 2.945007 1.024449 3.457182 1.61429 1.31522 3.793801 1.702651 5.762528 1.024351.896393-.256088.256112-.384132 2.176954-4.097401.896394-1.536525 4.610022 5.249795 5.890584 3.841313 1.280562-1.408481.768337-2.688919.640281-5.377838z" fill="#010101"/><path d="m236.519737 347.894938c-.640281 1.536526-2.305011-4.225444-2.048899 1.66457-.42313.079728-.857431.079728-1.280562 0 0 0-.256112 1.408481-.896393.128043-.640281-1.280437 4.225854-1.792613 4.225854-1.792613z" fill="#010101"/><path d="m245.867837 224.204651c4.610022 8.066758 6.786977 20.102873 1.920842 29.450069-2.305011 4.609575-5.762527 38.029001-6.01864 41.870314 2.048899 15.365253-1.024449 44.175103-1.408617 49.937073-.256113 2.560875-16.647302-.384132-16.647302-.384132s3.329461-42.638577 3.457517-46.47989-1.408618-4.609576-1.02445-9.987415c.256113-2.0487-.64028-21.767442.256113-39.437483.442639-8.238161 1.817339-16.399653 4.097797-24.328317 1.408618-4.353488 15.36674-.640219 15.36674-.640219z" fill="#242e5b"/><path d="m227.043581 298.854172c0-5.505882-1.280562-4.609576-.896394-9.987414.128057-2.048701-.768337-21.767442.128057-39.437483.442639-8.238162 1.817339-16.399653 4.097797-24.328317.292336-.787231.970032-1.368057 1.792786-1.536526.640281.128044 1.024449.384132 1.024449.896307-1.766819 5.803092-2.967611 11.76359-3.585572 17.798085-1.408618 12.676333-1.02445 42.382489-1.152506 45.583584-.280774 3.644087.198907 7.306753 1.408618 10.755677 1.66473 3.841313-.384168 43.40684-.512225 47.632284l-5.762527-.896306s3.457517-42.638577 3.457517-46.479891z" fill="#204091"/><path d="m252.270645 349.30342c-1.536674-.256088-4.99419-1.536525-5.506415.384131-.512225 1.920657.896393-4.609576 1.920842-3.713269 1.02445.896306 3.585573 3.329138 3.585573 3.329138z" fill="#010101"/><path d="m254.575656 337.523393c.384168 3.841313-1.408618 5.890013-2.561123 9.85937-.384169 1.408482-1.02445-5.249794-1.66473-3.713269-.640281 1.536525-.640281 1.280438-1.02445 1.792613-.384168.512175 4.994191 1.792613 7.555314-2.816963 1.280562-2.304788 6.146696 1.792612 5.634471.128043-.512224-1.664569-2.048898-5.505882-1.66473-9.347195.896393-9.219152-6.530864.256087-6.274752 4.097401z" fill="#cc9584"/><path d="m262.899307 341.108618c-.512225-1.792613-3.201404-2.816963-6.530865 1.536526 0 0-2.561123-5.505883-4.738078-.640219-.384168.768262-2.305011-.256088-2.689179.256087-.384169.512175-1.66473-.256087-1.66473.896307.035999 1.262562.711381 2.420248 1.792786 3.07305 1.280562 1.024351 2.817236 1.664569 6.01864 1.024351.896393-.256088.128056-.512176 2.048898-4.225445.768337-1.536525 4.481966 5.377839 5.762528 3.841313 1.280561-1.536525.640281-3.201094 0-5.76197z" fill="#010101"/><path d="m262.643194 346.102326c-.64028 1.664569-2.176954-4.225445-1.920842 1.664569h-1.280562s-.256112 1.408481-1.024449.128043c-.768337-1.280437 4.225853-1.792612 4.225853-1.792612z" fill="#010101"/><path d="m256.752611 225.86922c2.817235 9.603283 7.043089 16.26156 2.945292 25.864843-2.048899 4.73762 1.280561 37.64487 1.280561 41.486183 3.841685 11.52394 4.610022 42.510534 4.610022 48.272504 0 2.560875-15.494796 2.816963-15.494796 2.816963s-2.305011-37.004651-2.561123-40.845965c-.256112-3.841313-1.536674-4.353488-1.536674-9.85937 0-3.201095-7.555314-60.436663-8.835875-64.918195-1.280562-4.481532 19.592593-2.816963 19.592593-2.816963z" fill="#242e5b"/><path d="m241.257815 158.646238c.512224-5.633926.768337-8.706977 7.299201-10.115458 2.083778-.226645 4.183461-.269491 6.274752-.128044 9.988381 2.304788 9.604213 8.83502 7.811426 16.005472-1.792786 7.170451-5.634471 10.371546-8.963931 11.651984l-.768337 3.841313-12.03728-3.969357c.737683-1.43277 1.173523-3.001644 1.280562-4.609576-2.048899-.896307-3.073348-.640219-2.048899-10.115458.128057-.640219 1.02445-1.920657 1.152506-2.560876z" fill="#cc9584"/><path d="m240.489478 179.901505c-1.536674 1.02435-11.653111 4.225444-11.781167 4.353488-.128057.128044 3.585572 16.901779 1.280561 21.767442 1.280562 2.816963 2.048899 2.816963-.640281 14.59699-.569669 2.312915-.569669 4.729493 0 7.042408 0 0 2.68918-.896306 13.061729.640219 10.37255 1.536525 14.854515-.256088 15.750909-.512175 3.201404-1.152394 2.433067-1.536525 2.048898-4.865664-.635836-7.505361.146099-15.063339 2.305011-22.279617 2.176955-7.81067 3.201404-14.59699 2.817236-15.493296-.384169-.896307-2.305011-2.176745-5.634471-4.353489-3.329461-2.176744-19.208425-.896306-19.208425-.896306z" fill="#a380b7"/><path d="m259.313734 180.669767-2.817236-4.353488s-11.781167-1.280438-16.135076 1.280438c-.510295 1.381837-.937905 2.792813-1.280562 4.225444 0 0 7.811426-2.688919 10.372549-2.0487 2.561124.640219 9.860325.896306 9.860325.896306z" fill="#a380b7"/><path d="m245.355612 176.316279c-4.097797.640219-5.122246.640219-5.506415 1.408482-.383049.910071-.683067 1.852893-.896393 2.816963l5.378359-.896307c1.024449-.256087 1.024449-3.329138 1.024449-3.329138z" fill="#bc9fcc"/><path d="m262.643194 152.500137c-2.332929-3.69266-6.27343-6.066226-10.628661-6.402189-3.713629.128044-10.244494.384131-10.628662 11.395896s6.402808 14.725034 8.579763 15.749384c4.097797 2.048701 6.146696.768263 6.146696.768263s13.061729-9.987414 6.530864-21.511354z" fill="#010101"/><path d="m259.057622 166.584952c-1.536674-1.792613-5.762528 2.945007-6.530865 3.71327-3.32946-5.633927 2.176955-9.47524 6.530865-6.018058.671024.485923 1.117415 1.222162 1.237959 2.041784.120545.819622-.09497 1.65319-.597678 2.311705z" fill="#26282d"/><path d="m260.46624 167.86539c1.408617 1.664569 4.225853 10.243502 1.280561 16.261559-2.945292 6.018058-13.061729 24.200274-10.116437 28.937894-4.097797-3.457182-2.048898-9.347196-2.048898-9.347196l-.896394 6.78632s-1.536674-6.146101-1.280561-8.578933c-.758575 1.922104-.617652 4.082707.384168 5.890014 0 0-6.530864-4.225445-3.073348-12.804378 3.457517-8.578933 6.274752-14.981121 7.171146-19.462654 1.408617-6.78632-.128057-7.554582 1.920842-9.219151 2.048899-1.66457 5.762527.384131 6.658921 1.536525z" fill="#010101"/><path d="m255.343993 164.920383c2.945292 1.792613 6.786977 7.042408 2.817236 16.645691-3.969742 9.603283-8.835876 18.566347-8.70782 21.127223-.384168-2.048701 3.073348-12.54829 5.506415-17.670041-3.32946 5.121751-6.402808 16.005472-6.146695 18.950479-.640281-2.560876-.128057-10.627634 1.152505-13.572641-1.408618 3.585226-4.738078 10.627634-4.35391 12.676334-1.280561-3.585226 1.280562-9.859371 3.841685-16.389603 2.561124-6.530233 6.915033-14.084815 3.329461-19.206566-1.920843-2.945007 2.561123-2.560876 2.561123-2.560876z" fill="#26282d"/><path d="m251.11814 146.097948 2.945291.256088c-1.66473-.384132-9.860324 2.0487-7.299201 10.88372-1.792786-.384131-.768337-6.914363-.768337-6.914363s-1.792786 5.505882 1.024449 8.963064c-1.280561-.768263-2.305011-2.945007-2.561123-5.121751-.200153 2.838206.719191 5.641936 2.561123 7.81067-3.841685-1.152394-5.122246-8.706977-3.841685-11.267852 1.428878-3.039226 4.59139-4.875345 7.939483-4.609576z" fill="#26282d"/><path d="m210.140167 256.72777c-2.561124-.256087-4.225854 2.432832-4.225854 2.432832-.768337 3.457182-2.945291 12.420246-2.945291 15.237209s23.69039 6.658277 24.330671 6.658277 2.433067-18.950479 1.408618-19.974829c-2.945292-3.073051-13.189785-3.71327-18.568144-4.353489z" fill="#010101"/><path d="m207.579043 259.672777c.128359-1.548484 1.392485-2.757531 2.945292-2.816963 6.658921.640219 21.38538 1.02435 24.458728 2.945007 0 0 3.32946 24.07223 1.920842 25.608755s-5.506415 1.920657-6.786977 2.0487c-1.280561.128044-24.714839-3.329138-25.739289-6.018057-1.024449-2.688919 1.920843-14.596991 3.201404-21.767442z" fill="#010101"/><path d="m234.342782 260.056908c-1.536674-.384131-4.994191-.768262-5.634471 1.408482-.640281 2.176744-3.457517 17.28591-4.35391 17.798085s-15.110627-1.664569-19.976762-3.71327c2.945292 1.664569 18.05592 5.377839 19.080369 5.505883 1.114994.184937 2.199616-.465773 2.561123-1.536526.256113-.896306 3.201404-15.62134 3.841685-17.798085.640281-2.176744 1.792786-1.664569 3.073348-1.408481 1.280562.256087 1.408618-.256088 1.408618-.256088z" fill="#26282d"/><path d="m229.73276 264.410397c-.512225 3.457182-2.689179 19.974829-1.66473 21.127223s6.915033.384131 6.915033-.384132c0-.768262-2.945292.768263-4.481966-.896306s-.768337-19.846785-.768337-19.846785z" fill="#26282d"/><path d="m224.610513 258.008208c1.280562.128044 1.408618 1.408481.640281 1.408481s-1.792786.384132-2.305011-.512175c-.512224-.896306.384169-5.121751-3.585572-5.76197-3.969741-.640218-3.585573 4.097401-4.225854 4.73762s-2.176955.256088-2.176955.256088-.256112-1.02435 1.152506-.896307c1.408618.128044.768337-5.377838 4.481966-5.505882 3.713628-.128044 4.353909 2.432832 5.250302 4.865663.896394 2.432832.768337 1.408482.768337 1.408482z" fill="#26282d"/><path d="m220.128548 226.381395c-.449267 6.348982-.577487 12.716604-.384169 19.078523-.548973 1.428781-1.235147 2.800996-2.048899 4.097401-.368755.605187-.669384 1.249328-.896393 1.920656-.141146.804804-.141146 1.628029 0 2.432832.151505.558119.412702 1.080462.768337 1.536525.512225.512176 1.536674.640219 1.152506 0-.384169-.640218-.896393-.896306-.896393-1.664569.164089-.67565.292324-1.359505.384168-2.0487l-.384168 2.0487c.178434.714674.530295 1.374351 1.024449 1.920657.512225.768263 1.152505.384131.896393-.128044-.269073-.332436-.445751-.729922-.512225-1.152394l.640281-2.0487c-.412381.745108-.632446 1.581274-.640281 2.432832.128057.768262 1.408618 1.536525 1.792787 1.02435.384168-.512175-.640281-.896307-.640281-1.02435.089748-.756368.306199-1.492233.640281-2.176745-.311517.648296-.527196 1.338402-.640281 2.048701-.128056.640219 0 .256087.512225.640219.512224.384131 1.152505.768262 1.280561.256087s-.896393-.896306-.768337-1.280438c.134713-.582008.350231-1.142299.640281-1.664569.725051-2.019296 1.156308-4.132248 1.280562-6.274145 2.305011-8.83502 2.689179-18.694391 1.66473-21.127223z" fill="#e0ac9c"/><path d="m228.708311 184.254993c-1.920843 0-4.866135 3.841313-4.866135 7.938714s-3.457516 27.017237-4.097797 29.706156-3.969741 18.822435-1.920842 21.383311c2.048898 2.560875-.640281 3.201094-.640281 3.201094s5.890583 1.536525 7.043089 1.280438c1.152505-.256088 1.024449-1.920657 1.792786-2.945007s3.585573-15.493297 4.481966-19.974829.256112-27.273324.256112-28.937893-.768337-11.651984-2.048898-11.651984z" fill="#bc9fcc"/></g></g></g></g></svg>