<svg height="400" viewBox="0 0 1200 400" width="1200" xmlns="http://www.w3.org/2000/svg"><g fill="none" fill-rule="evenodd"><path d="m0 351h1201v-351h-1201z" fill="#eef7fb"/><g fill-rule="nonzero" transform="translate(411 25)"><path d="m201.718693 284.599408c-64.984398-1.246681-122.3130998 10.685835-128.366441 26.536491-6.0533412 15.850655 42.017309 29.742241 106.823668 30.988921 64.806358 1.246681 122.3131-10.685835 128.188401-26.53649 5.875302-15.850656-41.839269-29.742241-106.645628-30.988922" fill="#93d5f6"/><path d="m215.961849 286.202283s-4.629026 8.370571-3.916868 10.151544c1.941835 2.726953 5.225896 4.164196 8.545893 3.740042 3.738829-.534292 8.723933-4.986723 9.61413-5.342918.890198-.356194-.356078-11.932515-.356078-11.932515z" fill="#1a1a1a"/><path d="m183.736709 60.0187738c2.492552 6.2334038-1.958434 10.1515433-8.189815 12.1106131-6.23138 1.9590698-40.771033 5.699112-42.551427 4.4524313-1.780395-1.2466808-4.094908-10.5077379-1.780395-12.4668076 2.314513-1.9590698 31.156903-9.6172516 36.676126-10.3296406s12.99688-1.0685835 15.845511 6.2334038z" fill="#f5a37e"/><path d="m180.353959 55.3882452c-2.136473-1.6028752-7.655696-4.274334-17.803944-1.7809725-6.765499 1.6028753-19.4063 5.1648203-19.4063 5.1648203-.60257 3.6278289-.358843 7.3458815.712158 10.8639324.986419 3.8091382 3.022093 7.2647371 5.875302 9.9734461 0 0 26.705917-6.5895983 30.800824-10.5077379 1.246276-1.0685835 5.519223-9.7953488-.17804-13.7134884z" fill="#dddcdc"/><path d="m197.089667 24.5774207s.890198 19.2345032 1.958434 20.3030867c1.068237 1.0685835 16.20159 5.3429175 18.694142 10.3296406 2.492552 4.986723-12.996879 33.8384778-14.955313 43.0995349s2.314512 23.3307401 3.738828 32.2356021c1.424316 8.904863-26.883956 19.946893-27.952193 19.946893s-10.148249-8.548668-11.750604-11.398225c-1.602355-2.849556-.178039-26.002198-.178039-31.879408 0-5.877209-1.424316-26.3583928-1.602355-27.7831708-1.053009-5.9870077-.748795-12.1341253.890197-17.9878224.17804-1.7809725.17804-4.986723 1.068237-6.2334038s12.462761-5.5210148 12.640801-6.7676956c.178039-1.2466807 1.602355-17.9878224 1.602355-17.9878224z" fill="#f6af8a"/><path d="m199.048101 44.7024101-16.913747 10.1515434-2.492552-6.5895983s-11.216486 3.3838478-12.640801 5.8772093c-1.424316 2.4933615-2.136473 8.5486681-2.492552 10.5077378-.660091 6.2159173-.660091 12.4842942 0 18.7002114.356079 4.6305286.356079 10.5077379 1.068236 18.3440173.712158 7.836279-.178039 23.152642-.178039 23.152642s6.40942.178098 16.20159-.178097c7.831224-.405566 15.624572-1.357734 23.323167-2.849556 2.314513-1.780972-.890197-19.4126-.356079-21.37167.534118-1.9590699 14.243156-35.7975477 14.421195-40.0718817.336744-3.8569371-1.807565-7.5034457-5.341183-9.0829598z" fill="#e3e2e3"/><path d="m211.688902 51.8263002s11.572564 5.3429176.712158 13.8915856c-4.807065 3.5619451-27.418075 9.2610571-31.691022 10.6858351-15.311392 4.6305286 8.367854 38.4690061 10.148249 40.9623681 1.110371 1.828951 1.72408 3.916237 1.780394 6.055306l14.599235-1.602875c4.629025.890486-2.314513-21.015476-.712158-25.8241014 1.602355-4.8086258 12.819278-31.7013108 12.819278-35.2632558.043539-4.4696357-3.231709-8.2792998-7.656134-8.9048626z" fill="#e3e2e3"/><path d="m180.531999 37.5785201 17.269826-6.0553066.356079 10.1515434-5.341183 3.2057505z" fill="#e6a37b"/><path d="m176.79317 4.98672304c4.629026-3.74004228 17.447866-6.94579281 23.323168 1.60287527 5.875302 8.54866809 2.848631 16.74114169-.712158 21.72786469-2.583234 3.7395207-6.248897 6.5984226-10.504327 8.1924736-1.068237.3561945-10.504328 1.6028752-12.462761.8904862-1.958434-.712389-1.780395-9.7953488-2.136474-9.7953488s-1.424315-.5342918-1.424315-1.2466808 1.424315-7.836279 1.068236-8.548668-2.136473-8.54866812 2.848631-12.82300216z" fill="#f7ae83"/><path d="m174.122579 9.08295983s7.299617-3.74004228 15.84551 4.63052857c1.780395 1.7809725-2.136473 9.0829598-1.602355 9.7953488.534119.712389 7.299618-5.1648203 6.943539-4.274334-2.848631 8.3705708-.356079 13.1791966.534118 13.3572938.890197.1780973 10.148249-11.5763213 6.943539-21.5497674-2.421514-6.79370999-8.999341-11.20445426-16.20159-10.86393235-2.670592.35619451-10.148248.71238901-12.462761 8.90486258z" fill="#432918"/><path d="m191.036326 20.8373784c-.890197 2.6714588-1.424315 6.4115011 0 6.9457928 1.424316.5342918 3.38275-1.2466807 4.450986-4.0962367 1.068237-2.8495561.534119-5.1648203-1.068236-5.6991121-1.602355-.5342917-2.314513.1780973-3.38275 2.849556z" fill="#f6af8a"/><path d="m179.107683 286.825624h11.038446v2.048118h-11.038446z" fill="#1a1a1a" transform="matrix(-1 0 0 -1 369.253812 575.699366)"/><path d="m189.79005 272.310698c1.441453 2.311796 2.297062 4.940591 2.492552 7.658181.17804 2.137168-1.068236 6.767696-2.492552 6.767696-4.461099-.024633-8.919785.213241-13.352958.712389-4.272947.534292-5.875302 3.027653-16.913748 3.027653-3.20471 0-8.901972-.178097-8.901972-1.424778 0-5.699112 10.504327-3.740042 13.887077-6.767695 8.545893-7.836279 14.065116-9.617252 14.065116-9.617252s10.860406-.712389 11.216485-.356194z" fill="#1a1a1a"/><path d="m184.626906 122.352812s14.599235 14.782072 15.311392 21.015476c.712158 6.233403-5.519222 26.892685-7.655696 42.921437-2.136473 16.028753-3.560789 19.412601-3.02667 23.152643.534118 3.740042 4.807065 19.234503 4.629025 29.386046-.178039 10.151544.534119 36.509937.534119 36.509937s-3.20471 2.493361-11.394525 2.315264c-3.622332-.222119-7.095051-1.524812-9.970209-3.740042 0 0-3.20471-60.018774-3.916868-66.252178-.712158-6.233403-3.738828-32.235602-4.807065-55.210148-.356079-7.480084 1.424316-28.49556 1.424316-31.523213z" fill="#fcc55b"/><path d="m182.846512 50.935814-.712158 4.0962367 8.901972-5.3429175z" fill="#bacfed"/><path d="m182.134354 55.0320507-1.424316-4.986723-2.136473 1.6028753z" fill="#bacfed"/><path d="m207.415955 121.462326c3.209764 7.782062 5.944723 15.751705 8.189815 23.865031 2.314513 9.617252 4.985104 59.306385 5.875302 63.936914.890197 4.630528 3.738828 18.878308 6.053341 33.126088 2.314513 14.247781 3.560789 42.387146 3.560789 42.387146l-17.981984 2.849556s-10.860407-59.484482-12.462762-68.745539-19.762378-75.691332-19.762378-75.691332l-2.136474-21.193573z" fill="#fcc55b"/><path d="m206.881837 161.890402c1.424315 6.411501 5.875302 49.689133 6.231381 52.004397.356078 2.315264 11.572564 68.745539 12.106682 71.773193l5.875302-.890487s-1.246276-28.317463-3.560789-42.387146c-2.314513-14.069682-5.163144-28.49556-6.053341-33.126088-.890198-4.630529-3.560789-54.319662-5.875302-63.936914-2.245092-8.113326-4.980051-16.082969-8.189815-23.865031l-15.84551.356194s13.709037 33.838478 15.311392 40.071882z" fill="#f9af00"/><path d="m207.772034 121.462326-29.376509.356194c-1.780394.178097-12.6408-.890486-12.6408-.890486v4.274334s10.504327.890486 15.667471.890486 27.596114-1.068583 27.596114-1.068583z" fill="#3b1b1d"/><rect fill="#732d1d" height="5.075772" rx="1.3" transform="matrix(-1 0 0 -1 355.722814 248.17852)" width="7.121578" x="174.300618" y="121.551374"/><path d="m185.161024 52.360592-6.40942-1.6028753.534119 5.1648203 3.382749.8904863z" fill="#1a1a1a"/><path d="m179.285723 55.922537c-3.431777 7.3734286-5.655987 15.2508893-6.58746 23.33074-1.780394 14.0696828-2.314513 47.017674-2.314513 47.017674l3.560789 6.411501 4.450986-7.658181s-1.602355-34.3727699-.534118-44.7024105c1.041157-7.9407082 2.647594-15.7969496 4.807065-23.5088372z" fill="#1a1a1a"/><path d="m201.362614 45.9490909-3.20471-4.274334-15.311392 9.2610571 2.492552 5.5210148z" fill="#dddcdc"/><path d="m180.710038 50.0453277-3.738828 4.0962368-.534118-4.4524313 3.02667-2.849556z" fill="#e1f2fd"/><path d="m216.674006 54.1415645c4.807066 4.8086258 2.314513 9.9734461-2.492552 14.2477801s-25.459641 13.1791966-27.418075 12.8230021c-1.958433-.3561945-8.011775-8.1924735-6.587459-10.8639323s15.133353-13.1791966 19.762378-16.0287527c4.629026-2.849556 11.216486-5.8772093 16.735708-.1780972z" fill="#f8bc96"/><path d="m131.393112 76.4037209c-6.765499-2.849556.178039-16.3849471 3.916867-22.7964482 3.738829-6.411501 16.557669-23.8650317 16.557669-23.8650317l7.121578 3.561945c-3.449321 12.9236084-8.222306 25.4567627-14.243156 37.4004229-.890197 1.9590697-6.40942 8.5486681-13.352958 5.699112z" fill="#f6af8a"/><path d="m156.852752 16.3849471c.744419.2513877 1.196811 1.0056197 1.068237 1.7809726l-1.780394 5.8772093c-.253225.7312415-1.043656 1.1265854-1.780395.8904862-.384774-.0709112-.713925-.3184565-.888898-.6685146-.174972-.350058-.175453-.7619918-.001299-1.1124579l1.602355-5.8772093c.314842-.674287 1.052234-1.0431027 1.780394-.8904863z" fill="#f5a37e"/><path d="m159.523344 16.9192389c.384774.0709113.713926.3184566.888898.6685146.174972.3500581.175453.7619918.001299 1.1124579l-1.602355 5.6991121c-.083394.3843897-.321935.717192-.659109.9195626-.337175.2023706-.742984.2563033-1.121285.1490209-.744418-.2513877-1.196811-1.0056196-1.068237-1.7809725l1.780395-5.8772093c.253225-.7312416 1.043656-1.1265854 1.780394-.8904863z" fill="#f5a37e"/><path d="m162.015896 17.6316279c.338447.0819316.627192.3017674.796301.606262.169109.3044945.203157.665875.093897.9966133l-1.602355 5.8772093c-.070889.3848992-.318354.7141574-.668298.8891864s-.761745.1755103-1.112097.0012998c-.338446-.0819316-.627192-.3017674-.796301-.6062619-.169108-.3044946-.203156-.6658751-.093896-.9966133l1.602355-5.8772093c.070888-.3848992.318353-.7141574.668298-.8891865.349944-.175029.761744-.1755103 1.112096-.0012998z" fill="#f5a37e"/><path d="m164.330409 18.3440169c.384265.0834211.716959.3220394.919264.6593237s.25622.7432244.148973 1.1216488l-1.780395 5.8772093c-.070888.3848992-.318353.7141574-.668297.8891865-.349945.175029-.761745.1755103-1.112097.0012998-.731004-.2533072-1.12622-1.043995-.890197-1.7809725l1.602355-5.6991121c.302918-.7013146 1.019238-1.1312462 1.780394-1.0685835z" fill="#f5a37e"/><path d="m156.674713 38.4690063c2.575532-2.9889275 4.954392-6.1419411 7.121578-9.4391543.890197-1.7809725 1.602355-9.4391543 1.602355-9.4391543s-3.026671 1.424778-4.629026.712389l-5.697262-3.0276533c-1.668257 2.7566188-3.040838 5.6817609-4.094907 8.7267653-.446379 2.0485504-.684973 4.13693-.712158 6.2334038z" fill="#f6af8a"/><path d="m211.866941 50.7577167c-2.492552-.3561945-8.545893-.712389-12.106682 2.4933615-2.996091 2.5387667-6.21368 4.803731-9.61413 6.7676956 2.837555 1.7801529 4.878535 4.5874109 5.697262 7.8362791 1.780395 6.2334038-1.424315 15.3163636-1.424315 15.3163636s21.186694-14.0696829 23.857285-19.0564059c1.198683-2.6021876 1.17509-5.6034985-.064352-8.1865081s-3.56565-4.4787062-6.345068-5.1707858z" fill="#dddcdc"/><path d="m132.461348 12.6449049h21.720813v13.7135548h-21.720813c-.330533 0-.647528-.1313464-.88125-.3651443-.233722-.233798-.365026-.5508962-.365026-.8815365v-11.3982241c.089168-.6182039.621906-1.0749851 1.246276-1.0686499z" fill="#1a1a1a" transform="matrix(-1 0 0 -1 285.397232 39.003364)"/><path d="m151.511569 14.4258774h15.489432v9.9735125h-15.489432c-.330533 0-.647528-.1313463-.88125-.3651443s-.365026-.5508961-.365026-.8815364v-7.6581819c.089168-.6182038.621906-1.0749851 1.246276-1.0686499z" fill="#1a1a1a" transform="matrix(-1 0 0 -1 317.266294 38.825268)"/><rect fill="#1a1a1a" height="7.088271" rx=".5" transform="matrix(-1 0 0 -1 344.862408 38.86082)" width="3.738828" x="170.56179" y="15.886275"/><path d="m165.576685 16.86581h8.367854v5.040152h-8.367854z" fill="#1a1a1a" transform="matrix(-1 0 0 -1 339.521224 38.771772)"/><path d="m130.324875 19.4126004c0 3.7400423.534118 6.7676956 1.068237 6.7676956.534118 0 1.068236-3.0276533 1.068236-6.7676956s-.534118-6.9457928-1.068236-6.9457928c-.534119 0-1.068237 3.2057505-1.068237 6.9457928z" fill="#626161"/><path d="m136.378216 13.7134884h21.720813v13.7135548h-21.720813c-.688299 0-1.246276-.558158-1.246276-1.2466808v-11.3982241c.089168-.6182038.621906-1.0749851 1.246276-1.0686499z" fill="#313131" transform="matrix(-1 0 0 -1 293.230968 41.140532)"/><path d="m155.072358 15.6725581h15.489432v9.9734461h-15.489432c-.688299 0-1.246276-.558158-1.246276-1.2466807v-7.6581819c0-.6885227.557977-1.2466807 1.246276-1.2466807z" fill="#313131" transform="matrix(-1 0 0 -1 324.387872 41.140466)"/><rect fill="#313131" height="7.088271" rx=".5" transform="matrix(-1 0 0 -1 351.983986 40.997988)" width="3.738828" x="174.122579" y="16.954858"/><path d="m169.493553 18.112491h8.367854v5.040152h-8.367854z" fill="#313131" transform="matrix(-1 0 0 -1 347.35496 41.265134)"/><path d="m134.063703 20.6592812c0 3.7400423.534119 6.7676955 1.068237 6.7676955s1.068237-3.0276532 1.068237-6.7676955-.534119-6.9457928-1.068237-6.9457928-1.068237 3.0276532-1.068237 6.9457928z" fill="#626161"/><path d="m159.523344 18.3440169h9.436091c.519594-.087803.897559-.5415083.890303-1.0685835 0-.491802-.398661-.8904863-.890303-.8904863h-9.436091c-.526904-.007364-.980462.3707237-1.068237.8904863 0 .5901624.478266 1.0685835 1.068237 1.0685835z" fill="#575757"/><path d="m137.802532 16.5630444h18.160023c.491643 0 .890197-.3986843.890197-.8904863 0-.712389-.356078-1.0685835-.890197-1.0685835h-18.160023c-.534119 0-.890198.3561945-.890198 1.0685835 0 .491802.398555.8904863.890198.8904863z" fill="#575757"/><rect fill="#3d3d3d" height="2.439932" rx=".6" transform="matrix(-1 0 0 -1 328.30474 47.071104)" width="11.394525" x="158.455107" y="22.315586"/><rect fill="#3d3d3d" height="2.742698" rx=".7" transform="matrix(-1 0 0 -1 293.587048 50.330284)" width="20.118458" x="136.734295" y="23.793793"/><g fill="#f8bc96"><path d="m188.543774 81.0342495c-6.58746 2.849556-11.394525-11.5763214-13.174919-18.7002114-1.780395-7.1238901-5.519223-28.6736576-5.519223-28.6736576l7.655696-2.4933615c6.708788 11.5942734 12.254995 23.8237547 16.557669 36.5099366.712158 1.9590698 1.424315 10.5077378-5.519223 13.3572939z"/><path d="m162.728054 15.6725581c.72816-.1526164 1.465552.2161993 1.780395.8904863l1.780394 5.8772093c.107248.3784244.053332.7843645-.148972 1.1216488-.202305.3372843-.535.5759026-.919265.6593237-.378301.1072824-.784109.0533497-1.121284-.1490209-.337175-.2023705-.575716-.5351729-.65911-.9195626l-1.780395-5.699112c-.107247-.3784245-.053332-.7843645.148973-1.1216488s.534999-.5759026.919264-.6593238z"/><path d="m164.15237 14.6039746c.351977-.179654.762745-.2049649 1.134103-.0698817s.669928.4184187.824331.7822707l2.670591 5.5210148c.257474.688542-.051009 1.4599989-.712157 1.7809726-.69672.3110086-1.516029.0874883-1.958434-.5342918l-2.670592-5.5210148c-.179596-.3520915-.204898-.7629929-.069859-1.1344717s.418283-.6701451.782017-.8245981z"/><path d="m166.822961 14.4258774c.329841-.1919765.722898-.2435218 1.091061-.143081.368163.1004407.680636.3444657.867373.6773727l2.848631 5.3429176c.191915.3299476.243443.7231323.143035 1.0914149s-.344354.6808572-.677153.8676548c-.32984.1919765-.722897.2435218-1.091061.1430811-.368163-.1004407-.680636-.3444658-.867373-.6773728l-2.848631-5.3429176c-.191914-.3299476-.243443-.7231323-.143034-1.0914149.100408-.3682826.344353-.6808572.677152-.8676548z"/><path d="m169.671593 14.4258774c.32984-.1919765.722897-.2435218 1.09106-.143081.368163.1004407.680637.3444657.867373.6773727l3.026671 5.3429176c.179596.3520915.204898.7629929.069859 1.1344717s-.418283.6701451-.782017.824598c-.302519.1856125-.669797.2334069-1.009721.1313966s-.62025-.3441489-.770673-.6656883l-3.026671-5.3429176c-.191914-.3299476-.243442-.7231323-.143034-1.0914149s.344354-.6808572.677153-.8676548z"/><path d="m179.285723 36.5099366c-.226516-3.9442635-.702238-7.8702429-1.424316-11.7544186-1.656248-2.780406-3.563281-5.4034278-5.697262-7.8362791 0 0-1.068237 3.3838478-2.670592 3.9181395-1.602355.5342918-6.053341 1.7809726-6.053341 1.7809726.727044 3.1375063 1.801937 6.1840235 3.20471 9.0829598 1.100445 1.7597144 2.416247 3.3750863 3.916868 4.8086258z"/></g><path d="m329.551016 192.345032h44.331822v14.087493h-44.331822z" fill="#402a1b"/><path d="m299.462349 171.685751h6.765499v149.851027h-6.765499z" fill="#1e2020"/><path d="m148.12882 171.685751h6.765499v149.851027h-6.765499z" fill="#1e2020"/><path d="m146.882543 208.01759h-63.3820426c-6.9435384 0-7.8337356-3.027653-1.7803944-6.767696l35.963968-22.796448c7.258329-4.070188 15.366925-6.387681 23.679247-6.767695h168.959434c8.312322.380014 16.420918 2.697507 23.679247 6.767695l35.963968 22.796448c6.053341 3.740043 5.341183 6.767696-1.780394 6.767696h-63.382043s-157.92099-.712389-157.92099 0z" fill="#402a1b"/><path d="m368.541654 194.660296c6.943539 0 7.655697-3.027653 1.780395-6.945793l-36.142008-22.618351c-7.235009-4.150964-15.349014-6.531032-23.679246-6.945793h-168.781396c-8.333649.394465-16.452318 2.775901-23.679246 6.945793l-36.1420076 22.618351c-6.0533412 3.91814-5.1631439 6.945793 1.7803945 6.945793" fill="#88522e"/><path d="m103.262879 188.070698 16.557669-17.453531 40.058875 2.315264-12.106682 15.494461z" fill="#fff"/><path d="m7.833736 315.410233h83.322461v4.968913h-83.322461z" fill="#657a81"/><path d="m16.2015896 320.218858c-3.7347001.574746-6.49161223 3.789269-6.49161223 7.569134 0 3.779864 2.75691213 6.994387 6.49161223 7.569133 2.9803628.458658 5.9522652-.875489 7.5908452-3.407684 1.63858-2.532194 1.63858-5.790704 0-8.322899s-4.6104824-3.866342-7.5908452-3.407684z" fill="#010101"/><path d="m82.4322638 320.218858c-3.7347002.574746-6.4916123 3.789269-6.4916123 7.569134 0 3.779864 2.7569121 6.994387 6.4916123 7.569133 2.9803628.458658 5.9522651-.875489 7.5908451-3.407684 1.63858-2.532194 1.63858-5.790704 0-8.322899s-4.6104823-3.866342-7.5908451-3.407684z" fill="#010101"/><path d="m82.4322638 322.534123c-2.8262917.097548-5.0482202 2.451313-4.9837623 5.27947s2.3913137 5.078181 5.2191129 5.04678c2.8277993-.0314 5.1041509-2.332539 5.1058337-5.16143.0008321-1.401219-.5675117-2.742639-1.5746448-3.716517-1.0071332-.973879-2.3666085-1.496622-3.7665395-1.448303z" fill="#323d40"/><path d="m7.833736 315.410233h83.322461v1.246681h-83.322461z" fill="#939899"/><path d="m16.2015896 322.534123c-2.8262916.097548-5.0482201 2.451313-4.9837622 5.27947s2.3913137 5.078181 5.2191129 5.04678c2.8277992-.0314 5.1041509-2.332539 5.1058336-5.16143.0008322-1.401219-.5675117-2.742639-1.5746448-3.716517-1.0071331-.973879-2.3666084-1.496622-3.7665395-1.448303z" fill="#323d40"/><path d="m9.97020901 227.786385c-.4829003-1.986631-.78090434-4.013716-.89019723-6.055307 0-4.986723.53411833-8.014376-3.38274949-8.370571-3.91686782-.356194-1.95843391 5.342918-1.95843391 10.329641-.11903363 2.570652.36891366 5.133207 1.42431557 7.480085.54143904 1.415955 1.19638198 2.785826 1.95843391 4.096236 2.84863115 4.452432 7.12157784 8.192474 8.90197234 7.480085s.7121578-4.274334-3.0266706-8.904863c-1.2893446-1.865534-2.3083341-3.904175-3.02667059-6.055306z" fill="#657a81"/><path d="m43.797704 251.651416h11.038446v63.723197h-11.038446z" fill="#657a81"/><path d="m43.797704 250.939027h11.038446v64.489015h-11.038446z" fill="#657a81"/><path d="m79.4055932 239.362706-59.6432146-3.027653c-1.9371848-.147008-3.8530374.48452-5.3233562 1.754753-1.4703187 1.270234-2.3737933 3.074369-2.5103795 5.012942-.0477992 1.93677.6757873 3.813153 2.011464 5.216069 1.3356768 1.402916 3.1739445 2.217353 5.1101139 2.264016l59.6432146 3.027653c1.9477641.249943 3.9122598-.315736 5.4290911-1.563314 1.5168312-1.247577 2.4513655-3.066319 2.5826886-5.026284.0044248-4.094211-3.2111668-7.467756-7.2996219-7.658182z" fill="#e8e0dd"/><path d="m5.87530174 170.43907c-3.02667059.534292-5.3411834 1.95907-5.16314395 3.20575 2.13796323 13.450912 2.13796323 27.155262 0 40.606174-.17803945 1.24668 2.13647336 2.671458 5.16314395 3.20575s5.51922286-.178097 5.69726226-1.602875c2.3146369-14.571939 2.3146369-29.418083 0-43.990021-.1780394-1.246681-2.84863112-1.95907-5.69726226-1.424778z" fill="#e8e0dd"/><path d="m2.6705917 172.754334c-.53411834 0-.89019723.356195-.89019723.534292 2.31519098 13.496123 2.31519098 27.288147 0 40.78427l.89019723.534292c.71215778.178097 1.06823668 0 1.24627612-.356194 2.31426382-13.675574 2.31426382-27.642989 0-41.318563-.17803944-.178097-.53411834-.356194-1.24627612-.178097z" fill="#93a1b5"/><path d="m79.4055932 241.67797-61.2455696-2.671458c-1.2782702-.098361-2.3942238.858481-2.4925523 2.137167-.0983285 1.278685.8582032 2.395001 2.1364734 2.493361l61.423609 2.671459c.6252686.105788 1.2652052-.071749 1.7466868-.484582.4814816-.412832.7547456-1.018293.7458655-1.652585.0496936-.644275-.1720366-1.280008-.6115943-1.753532-.4395577-.473523-1.0569415-.741744-1.7029185-.73983z" fill="#93a1b5"/><path d="m78.3373565 144.793066c-7.1215779-7.301988-16.5576685-20.481184-22.4329703-15.672559-5.8753017 4.808626-3.20471 10.151544 9.7921696 21.549768s26.705917 25.28981 31.8690609 18.700211c5.1631443-6.589598-12.2847218-17.275433-19.2282602-24.57742z" fill="#f3b1d0"/><path d="m106.11151 166.699027c-9.61413-1.424778-12.81884-2.315264-19.0502206-1.959069 0 0-6.9435384 5.877209.1780394 9.973446 7.1215779 4.096237 11.7506035 2.671459 20.8306152 2.137167 9.080012-.534292 21.186694-1.780973 21.186694-1.780973l.534119-4.630528z" fill="#f5a37e"/><path d="m105.577392 165.808541c-9.6141303-1.424778-12.4627614-2.671459-18.5161026-1.068583-2.6705917.712389-5.3411834 6.767695.3560789 10.507738 5.6972623 3.740042 11.0384457 2.849556 20.1184577 2.493361l16.913747-.712389v-8.904863s-9.436091-.890486-18.872181-2.315264z" fill="#f3b1d0"/><path d="m120.532705 155.478901c-.178039-.356195-.712157-.356195-1.068236-.178098-.294024.27497-.36702.713088-.17804 1.068584l1.246276 1.602875c.17804.356195.534119.356195.890198.178097h.178039c.21904-.31044.284589-.70386.178039-1.068583z" fill="#cadbd9"/><path d="m122.491139 156.903679c-.500535-.572972-1.362815-.651387-1.958434-.178098-.264176.209545-.432212.517215-.46576.8528-.033547.335585.070256.670449.287721.928173l13.887077 18.700211c.356079.534292 2.848631 2.849556 3.560789 2.493362.712157-.356195-1.068237-3.561945-1.424316-4.096237z" fill="#91a5a3"/><path d="m120.945824 158.186513 2.848986-.00045-.000214 1.35337-2.848986.00045z" fill="#cadbd9" transform="matrix(.78477637 -.61977903 .61977903 .78477637 -72.122979 110.033556)"/><path d="m122.491139 158.328457h-.712158c-.181346.202817-.181346.509571 0 .712389l4.629026 6.055306h.712158c.181347-.202817.181347-.509571 0-.712389z" fill="#e5edeb"/><path d="m127.832323 169.548584c-1.757623.408358-3.483224.944063-5.163144 1.602875 0 0-.17804 5.699112.534118 5.521015.712158-.178098 3.738828 2.849556 5.163144 3.027653s9.61413-2.493362 9.258051-4.986723c-.356079-2.493362-6.587459-5.699112-9.792169-5.16482z" fill="#f8b999"/><path d="m107.179747 219.059619s-60.1773331-18.165919-70.6816605-20.124989c-10.5043273-1.95907-9.970209 13.891586-9.7921695 21.015476.1780394 7.12389 13.174919 10.863932 16.5576685 9.439154s57.3287015 1.068584 63.5600825 2.137167c6.231381 1.068584 8.545893-9.08296.356079-12.466808z" fill="#f5a37e"/><path d="m107.001707 258.953404c1.958434-13.713489 4.272947-26.536491 4.272947-35.797548 0-3.027653-8.723933-7.301987-13.8870767-.534292-5.163144 6.767696-7.6556962 17.809726-6.765499 30.098436s2.6705917 34.728964 1.9584339 40.784271c-1.602355 11.042029-4.9851045 9.617251-4.4509861 15.850655.1780394 2.849556 6.0533411 4.630529 12.6408009 8.192474 6.587459 3.561945 11.750603 8.192473 13.174919 5.699112 1.424315-2.493362-7.121578-4.630529-12.284722-23.508838-1.602355-5.521014 3.20471-27.070782 5.341183-40.78427z" fill="#f5a37e"/><path d="m112.342891 319.684567s-4.629026 1.424778-7.299618-.356195c-2.670591-1.780972-6.7654985-9.795349-9.4360902-13.001099-1.6154546-1.936383-3.3392637-3.779674-5.1631439-5.521015 0 0-3.3827495 1.95907-2.6705917 7.658182.9061241 5.235852 1.382485 10.537088 1.4243155 15.850655v1.068584h1.7803945s.3560789-9.617252 1.7803945-10.329641c1.4243155-.712389 3.0266706.712389 5.6972623 3.561945 2.670592 2.849556 5.163144 7.12389 6.231381 7.480085 1.068236.356194 14.777274 1.602875 16.02355-.890487 1.246276-2.493361-8.367854-5.521014-8.367854-5.521014z" fill="#010101"/><path d="m113.233088 228.142579c-17.8039446-8.726765-60.8894907-19.946892-71.9279364-22.262156s-11.9286429 13.535391-12.2847218 20.837378c-.3560789 7.301988 12.8188401 11.398224 16.5576685 10.151544 3.7388284-1.246681 60.7114517 5.521014 67.6549897 4.986723 3.38275-.356195 5.341183-11.04203 0-13.713489z" fill="#f8bc96"/><path d="m105.577392 230.635941c-6.7654992 4.986723-12.284722 14.960169-14.7772742 27.070782-2.4925523 12.110613-6.9435385 34.016575-9.4360907 39.893784-4.4509862 10.151544-7.4776568 7.836279-8.5458935 13.891586-.7121577 2.849556 4.4509862 6.233404 9.7921696 11.398224s9.0800118 11.04203 11.2164851 8.904863c2.1364734-2.137167-5.6972622-6.233404-5.5192228-25.824102.1780394-5.699112 10.6823668-25.111712 16.3796295-37.756617 5.697262-12.644905 13.887076-26.002199 11.928643-34.907061-1.068237-4.274334-4.272947-7.658182-11.038446-2.671459z" fill="#f8b999"/><path d="m93.29267 328.233235s-4.9851045-.178098-6.9435384-2.493362-3.9168678-11.220127-5.6972623-15.138266c-1.0140097-2.253041-2.1430815-4.452474-3.3827495-6.589599 0 0-3.7388284.890487-4.6290256 6.589599-.4908367 5.252717-1.5047562 10.443284-3.0266706 15.494461l-.3560789 1.068583 1.7803945.712389s3.0266706-9.261057 4.6290256-9.617251c1.602355-.356195 2.6705917 1.780972 4.4509862 5.16482 1.7803944 3.383848 2.8486311 8.192473 3.9168678 8.904862s13.7090374 5.699113 15.6674713 3.561945c1.9584339-2.137167-6.4094201-7.658181-6.4094201-7.658181z" fill="#010101"/><path d="m70.6816603 152.807442s1.7803945-12.823002 1.7803945-14.782072-4.2729468-6.233404-4.2729468-6.233404z" fill="#92d2f4"/><path d="m66.0526347 121.106131c-2.3843309 3.275498-5.4914633 5.957032-9.0800118 7.836279 0 0 0 11.754419 1.2462761 16.563045 3.3827495 11.932515 9.4360907 14.603974 9.4360907 14.603974.5781322-7.895355 1.6484506-15.746906 3.20471-23.508837 2.3145128-10.329641 9.0800118-12.28871 9.0800118-12.28871l-9.2580512-13.0011c-1.0665286 3.469857-2.6254336 6.768611-4.6290256 9.795349z" fill="#5bc5f2"/><path d="m59.4651752 125.380465-3.2047101 3.91814 7.1215779 13.179196c1.0682367 2.315265 6.9435384 10.863933 6.9435384 10.863933l2.3145128-.890487s-2.8486311-8.904862-4.8070651-13.535391c-2.4585781-4.708181-5.2551952-9.231838-8.3678539-13.535391z" fill="#92d2f4"/><path d="m99.7020901 216.388161-14.5992346 24.933615 8.5458934 1.424778s15.1333531-9.973446 15.8455111-12.466808c.712157-2.493361 2.314512-9.261057 1.246276-9.795349-3.489397-1.831614-7.199109-3.208244-11.0384459-4.096236z" fill="#5bc5f2"/><path d="m60.1773329 179.878224c3.3827495-8.726765 9.0800118-6.411501 12.2847219-11.754419 3.20471-5.342917 1.4243155-14.24778-1.4243156-19.056405-2.8486312-4.808626-15.6674713-21.549768-15.6674713-21.549768-7.4776568 3.383848-15.3113924 11.398224-16.2015897 26.714588-.7121577 9.439154-1.602355 16.028753-1.7803944 30.632727-.1780395 14.603975-9.7921696 17.631628-13.7090374 25.824102-3.9168678 8.192473 1.7803945 25.111712 7.6556962 25.111712 24.2133647 0 57.1506623 6.945793 57.1506623 6.945793s12.8188401-9.617252 14.2431561-11.754419c1.424315-2.137167 2.848631-13.357294 2.848631-13.357294s-25.8157199-8.726765-42.195349-12.28871c-5.8753018-1.246681-6.9435384-15.850655-3.2047101-25.467907z" fill="#f5bfd9"/><path d="m37.7443627 220.128203c-2.6705917-9.795349-1.0682367-17.275433 1.602355-24.933615s11.2164851-46.483383 15.4894318-40.428076c16.735708 23.865031 28.6643509 5.16482-3.5607889-29.029852-1.2462761 1.068583-8.9019723 5.877209-11.7506035 20.837378-1.0682366 5.699112-1.2462761 18.878309-4.2729467 36.331839-2.3145128 13.179197-7.1215778 18.344017-11.0384457 26.536491-6.2313806 13.179196.1780395 29.742241 11.928643 29.386046 17.5301607-.271492 35.0490563 1.039871 52.3435972 3.91814l8.7239329-6.767696c-3.3827495-.712389-16.3796291-3.383847-19.940418-3.383847-9.4360907 0-35.2518104 2.315264-39.5247571-12.466808z" fill="#f3b1d0"/><path d="m72.6400942 152.451247c-6.9435384-8.014376-16.2015896-22.440253-22.7890492-17.631628-6.5874595 4.808626-3.7388283 10.507738 9.2580513 23.152643s26.5278775 26.358393 32.2251398 19.768795-11.7506035-17.275433-18.6941419-25.28981z" fill="#f5bfd9"/><path d="m82.7883427 167.411416s-6.5874596 6.233404.7121577 9.973447c4.4509862 2.137167 11.7506035 2.137167 20.8306156 1.424778 9.080011-.712389 21.186694-2.671459 21.186694-2.671459l.356079-4.630529-24.035326-2.849556c-9.4360902-1.068583-12.8188397-1.780972-19.0502203-1.246681z" fill="#f8b999"/><path d="m100.948366 168.301903c-9.4360905-1.424778-12.2847216-2.493362-18.5161022-1.068584-2.4925523.712389-5.3411834 6.945793.5341183 10.685835 5.8753017 3.740043 11.0384457 2.849556 20.1184579 2.315265l16.913747-.890487v-8.726765z" fill="#f5bfd9"/><path d="m99.524051 200.181311h6.765499v142.495611h-6.765499z" fill="#1e2020"/><path d="m348.067118 207.305201h6.765499v135.514199h-6.765499z" fill="#1e2020"/><path d="m77.8032382 192.345032v13.357294h50.3851638v-11.220127z" fill="#402a1b"/><path d="m167.535119 157.43797-2.670591 1.602876-2.136474 5.342917c-.049734.407088-.238394.784531-.534118 1.068584 0 .356194 0 .890486.534118.890486l23.323168.534292c1.068236 0 1.602355-.534292 1.602355-1.424778l-.534119-5.87721z" fill="#cfd6e0"/><path d="m164.864528 152.095053h22.789049v7.426655h-22.789049z" fill="#adb4bb"/><path d="m219.522638 156.903679-92.402473-1.602876c-.723446.053834-1.434442-.210285-1.947408-.723418-.512967-.513133-.777-1.22436-.723184-1.94804v-63.7588165c-.053816-.7236804.210217-1.4349071.723184-1.9480403.512966-.5131333 1.223962-.7772523 1.947408-.7234184l95.073064 1.6028752c.723446-.0538338 1.434442.2102852 1.947408.7234184.512967.5131333.777 1.2243599.723184 1.9480404l-2.136473 63.2245242c-.593465 2.137167-1.661702 3.205751-3.20471 3.205751z" fill="#adb4bb"/><path d="m224.329703 91.0076956-2.136474 56.8130234-98.277774-3.205751v-55.7444395c-.053817-.7236804.210217-1.4349071.723183-1.9480403.512967-.5131333 1.223963-.7772523 1.947409-.7234184l95.073064 1.6028752c1.602355.5342918 3.20471 1.6028753 2.670592 3.2057506z" fill="#adb4bb"/><path d="m222.193229 88.3362368-95.073064-1.6028753c-.723446-.0538338-1.434442.2102851-1.947408.7234184-.512967.5131333-.777 1.2243599-.723184 1.9480404v55.7444397l98.277775 3.205751 1.602355-57.3473154c.168582-.651714.020349-1.3447919-.400046-1.8704561-.420394-.5256643-1.06381-.8224674-1.736428-.8010027z" fill="#425b6c"/><path d="m128.72252 91.0076956.534118 49.3329384 89.197763 3.205751 1.602355-50.9358142z" fill="#fff"/><path d="m222.727348 147.820719v6.411501c.053816.72368-.210217 1.434907-.723184 1.94804-.512967.513134-1.223962.777252-1.947408.723419l-92.402473-1.602876c-.723445.053834-1.434441-.210285-1.947408-.723418s-.777-1.22436-.723184-1.94804v-8.014377z" fill="#cfd6e0"/><path d="m162.728054 127.161438v10.151543h-2.670592v-10.151543z" fill="#7fc6b1"/><path d="m168.069238 116.475603v20.837378h-2.670592v-20.837378z" fill="#3a8835"/><path d="m173.944539 131.435772v5.877209h-2.670591v-5.877209z" fill="#009fe3"/><path d="m179.285723 125.558562v12.288711h-2.670592v-12.288711z" fill="#f9af00"/><path d="m185.339064 122.887104v14.960169h-2.670592v-15.494461z" fill="#ed6b08"/><path d="m190.324168 134.10723v3.740043h-2.670591v-3.740043z" fill="#f9af00"/><path d="m196.19947 119.147061v19.056406l-2.670592-.356194v-18.700212z" fill="#009fe3"/><path d="m201.540654 130.90148v7.301987h-2.670592v-7.301987z" fill="#3a8835"/><path d="m207.237916 126.092854v12.110613h-2.492552v-12.644905z" fill="#7fc6b1"/><path d="m213.469296 129.298605v9.439154l-2.670591-.534292v-8.904862z" fill="#ed6b08"/><path d="m147.238622 99.2001691c-3.103082-.0789628-6.11134 1.0735099-8.367854 3.2057509l8.367854 9.082959z" fill="#f9af00"/><path d="m155.784516 102.940211c-2.332846-2.168778-5.363778-3.4320763-8.545894-3.5619446v12.1106126z" fill="#7fc6b1"/><path d="m147.238622 111.488879 3.20471 11.754419c5.284582-1.489674 8.972093-6.263297 9.080012-11.754419.128986-3.272092-1.248957-6.422698-3.738828-8.548668z" fill="#ed6b08"/><path d="m136.734295 102.762114c-2.402091 2.411208-3.747173 5.678898-3.738867 9.08296.175576 5.757846 4.069077 10.734489 9.614169 12.28871l2.670591-12.28871z" fill="#009fe3"/><path d="m144.568031 123.77759h2.670591c1.095763.084932 2.195714-.098453 3.20471-.534292l-3.20471-11.754419z" fill="#3a8835"/><path d="m277.029379 210.510951c-1.504574-.506017-3.054934-.863909-4.629026-1.068583-2.670591-.356195-4.807065.534292-6.765499-.890486s-1.958434-1.780973-3.560789-1.424778c-.74379.364416-1.518304.662402-2.314512.890486-.534119-.178097-1.068237.356194-.890198-.178097.17804-.534292-1.602355-1.246681-1.424315-1.780973.178039-.534292-.890197-1.246681-.356079-1.602875-.178559-.519201-.298007-1.056891-.356079-1.602875-.550063-.204783-.963893-.667593-1.106243-1.237177-.142349-.569583.005072-1.172752.394085-1.612379 1.246276-1.95907 3.916868-2.671459 5.163144-3.561946 1.246276-.890486 2.848631-1.24668 3.738828-.712389.890198.534292 6.053342 3.91814 7.121578 4.096237 1.068237.178098 15.133353 2.315265 15.133353 2.315265l-1.780394 9.261057z" fill="#f7ae83"/><path d="m277.741537 197.153658-4.450987-1.424779s-7.477656 8.726766-8.011775 13.535392l11.038446 1.424778z" fill="#f3f3f3"/><path d="m302.132941 182.72778s-4.272947-17.987822 2.670592-19.768795c6.140465-.795394 12.291764 1.388034 16.557668 5.87721 3.738828 4.452431 6.765499 7.836279 5.697262 13.891585-1.068236 6.055307-5.163144 11.576321-5.519222 16.028753-.094226 3.15062-1.597372 6.092513-4.094908 8.014376-1.602355 1.780973-4.985104 7.12389-6.943538 7.836279-16.735708 1.068584-37.566323-3.20575-37.032205-3.740042s1.068237-11.220127 1.780394-14.782072c-.178039-.890486 11.572564.356194 13.530998.712389s1.780395 1.95907 3.20471 1.068584c1.326787-.31178 2.721976-.121465 3.916868.534291.890197.534292 4.450986-.356194 5.341184-.712389.890197-.356194-.356079-3.027653-.356079-3.027653s-.712158-6.055307.356079-7.480085c.710171-1.370599 1.018757-2.91403.890197-4.452431z" fill="#c1d0d7"/><path d="m262.786223 205.702326-13.352958 7.836279-26.527878-33.304186 10.860406-.356195z" fill="#f3f3f3"/><path d="m368.897733 349.426808-87.061289.712389c-2.522472.201555-4.962413-.951014-6.40942-3.027654-1.576141-1.955579-2.340988-4.442141-2.136474-6.945792l10.504328-72.841776 51.27536.534291 40.592994 68.389345c1.550247 2.557937 1.61812 5.74899.17804 8.370571-.962078 2.988459-3.808598 4.959766-6.943539 4.808626zm-82.966382-79.609472-9.970209 70.882706c0 1.602876 0 3.740043 1.602355 4.808626 1.092237 1.53674 2.934851 2.355946 4.807065 2.137167l87.06129-.890486c2.140252.046752 4.13653-1.074679 5.210589-2.927106 1.074059-1.852428 1.055882-4.142622-.047445-5.977757l-40.058876-67.320761z" fill="#cfd6e0"/><path d="m302.667059 137.134884 4.272947 3.20575v1.068584l-8.723933 23.33074c-1.288379-1.605108-2.934711-2.886004-4.807065-3.740043-2.136473-.534291-5.697262 3.205751-8.367854 2.671459s-3.738828-1.424778-4.272947-2.493361c-.534118-1.068584-4.807065-1.602876-2.670591-3.740043 2.136473-2.137167-1.602355.534292-1.602355-1.068583-.027969-.979881-.669806-1.835942-1.602355-2.137167 0 0-4.807066 1.246681-4.272947-1.424778.431881-1.985538.966722-3.947258 1.602355-5.877209-.478905-.432791-1.018791-.792832-1.602355-1.068584-1.068237-.534292-5.341184-5.699112-4.807065-10.507738.534118-4.808626 18.872181-10.151543 26.349838-9.795349 7.477657.356195 10.504327 11.576322 10.504327 11.576322z" fill="#f7ae83"/><path d="m283.972917 296.888118s5.519223 12.644905 10.148249 15.138267c2.533132 1.242207 4.731179 3.074508 6.40942 5.342917l-20.474537 9.08296c-.037461-4.351037-.945508-8.650523-2.670591-12.644905-2.398078-4.313203-5.462553-8.220174-9.080012-11.576321z" fill="#e8eae9"/><path d="m281.124286 331.79518c-3.307755 1.996285-6.831871 3.609539-10.504327 4.808625-4.272947 1.068584-8.901973 2.671459-8.901973 5.87721 0 3.20575 5.341184 4.630528 10.504328 4.630528s14.243156-1.780972 16.913747-4.808625c2.061462-2.332833 4.325479-4.478387 6.765499-6.411502l2.136474 1.95907s10.504327-5.342917 11.572564-8.548668c1.068236-3.20575.534118-3.027653.534118-3.027653l-2.670592-3.740042z" fill="#cac9c9"/><path d="m278.987813 322.71222c2.468176-2.13429 5.640207-3.276592 8.901972-3.205751 4.027152-.274334 7.876254-1.764793 11.038446-4.274334 3.541253 1.64191 6.560262 4.230473 8.723933 7.480085-3.956374 1.436883-7.722964 3.350693-11.216485 5.699112-4.272947 3.740042-6.231381 5.342917-9.970209 6.411501-3.738829 1.068583-22.254931 2.315264-24.747484 7.658182 0 0-.534118-2.137167 4.094908-4.274334 4.629025-2.137167 10.148248-4.274334 11.038445-6.945793 1.064891-2.749556 1.782595-5.621302 2.136474-8.548668z" fill="#4b3f51"/><path d="m263.498381 246.308499s-21.008655 2.849556-25.281601 6.055306c-4.272947 3.205751-4.629026 9.439155-3.560789 13.179197 1.068236 3.740042 35.785928 43.099535 38.990638 44.524313 1.825609-2.549358 4.12208-4.725668 6.765499-6.411501 2.357388-1.4557 4.171433-3.645776 5.163144-6.233404 0 0-14.421195-16.919239-18.694142-22.618351-4.272946-5.699112-5.875301-6.233404-5.875301-6.233404l21.186694-11.398224z" fill="#364b5e"/><path d="m356.256933 343.193404-81.364027.712389c-2.191962-.108251-4.274203-.991912-5.875302-2.493362-1.581429-1.729779-2.183984-4.140781-1.602355-6.411501l9.43609-68.211247 48.070651.712389 38.100442 63.580719c1.613634 2.362723 1.613634 5.473555 0 7.836279-1.331515 2.529983-3.909585 4.158767-6.765499 4.274334zm-77.26912-73.732262-9.436091 66.07408c-.231138 1.510418.153738 3.050419 1.068237 4.274334 1.16943 1.106431 2.67166 1.795177 4.272947 1.95907l81.364027-.712389c1.909444.001224 3.674303-1.017294 4.629025-2.671459 1.055932-1.752876 1.055932-3.946236 0-5.699112l-37.566323-62.512135z" fill="#adb4bb"/><path d="m223.973624 308.46444s1.068236 3.20575 7.299617 4.096237c4.655664 1.136322 9.144159 2.872437 13.352959 5.16482 0 0 14.955313-29.207949 16.557668-34.907061 1.139263-4.690078 1.971877-9.449416 2.492552-14.247781 11.575442-1.403491 23.244452-1.879932 34.895732-1.424778 17.447866.890487 42.195349-9.261057 44.687901-15.138266s4.094907-18.522114 4.094907-18.522114l-54.836149 4.630528c-1.509713 2.358106-3.988163 3.923952-6.765499 4.274334-5.341184.534292-26.527878 1.246681-31.156903 3.383848-4.629026 2.137167-9.614131 2.315264-11.572564 11.220127-1.958434 8.904863-11.394525 32.947992-19.050221 51.470106z" fill="#425b6c"/><path d="m306.940006 141.409218c-6.086416 6.4335-10.062121 14.573914-11.394525 23.33074l8.545894 6.767695 9.792169-22.796448z" fill="#cfd6e0"/><path d="m346.820842 221.374884-6.231381 30.098435s-48.604769-2.849556-51.809479-8.548668.890198-30.632727 2.492553-36.509936c1.602355-5.87721 6.587459-18.522115 9.61413-32.769895 3.02667-14.24778 12.996879-26.002198 12.996879-26.002198l3.20471.534291s9.080012 4.630529 12.284722 6.767696 10.504328 11.042029 12.106683 15.138266 5.341183 51.292009 5.341183 51.292009z" fill="#c1d0d7"/><path d="m311.212953 143.902579s-3.560789 2.137167-6.765499 13.357294-6.053342 24.399324-7.655697 29.029852c-1.602355 4.630529-5.519222 20.12499-5.519222 20.12499s7.121577-18.522115 9.258051-26.002199c2.136473-7.480085 4.985104-24.755518 16.557668-32.235603z" fill="#e1f2fd"/><path d="m270.619959 269.461142c4.222122-3.73666 8.095611-7.849852 11.572564-12.288711 4.629025-6.233404 18.694142-24.933615 31.869061-30.276532 13.174919-5.342918 48.960848-13.179197 48.960848-13.179197s-5.519223 23.33074-6.58746 32.947991c-1.068237 9.617252-7.121578 25.824102-26.171799 27.605074-19.05022 1.780973-59.643214-4.808625-59.643214-4.808625z" fill="#9e918f"/><path d="m306.940006 140.340634c-1.602355 1.602876-7.833736 2.671459-9.436091.534292s-6.943538-4.096237-9.080012-1.95907c-1.126972 1.895634-1.259847 4.22169-.356078 6.233404l-2.670592 1.068584c-.37449-.923555-.917901-1.769135-1.602355-2.493362-1.068237-1.602875-4.807065-2.137167-4.807065-4.274334-.284181-2.998314-2.422569-5.49391-5.341184-6.233404-2.532456-.125177-5.05241.428163-7.299617 1.602875 0 0-3.738828-1.068583-2.670592-4.274334 1.068237-3.20575 8.189815-15.316363 17.803945-18.522114 9.61413-3.20575 20.118457 4.630529 22.789049 10.329641s2.670592 17.987822 2.670592 17.987822z" fill="#4b1e2e"/><path d="m289.67018 162.068499c1.602355-.534292 2.670591-1.602875 3.738828-1.068584 1.068237.534292 1.068237.534292 1.602355.534292.938173-4.873421 1.058512-9.869105.356079-14.782072.178039 6.411501-5.697262 15.316364-5.697262 15.316364z" fill="#e6a37b"/><path d="m272.222314 215.675772c-1.577958-.35367-3.189985-.532843-4.807065-.534292-2.492553 0-4.629026 1.068583-6.765499 0-2.136474-1.068584-2.136474-1.602875-3.738829-1.068584-1.602355.534292-1.602355 1.068584-2.136473 1.068584s-1.068237.534292-1.068237 0-1.602355-.890486-1.602355-1.424778-1.068236-1.068584-.534118-1.602875c-.261899-.502573-.442192-1.043628-.534118-1.602876-.550924-.140674-1.001543-.536111-1.212712-1.064204-.211169-.528092-.157485-1.125316.144475-1.607254 1.068237-2.137167 3.738828-3.205751 4.807065-4.274334 1.068237-1.068584 2.492552-1.602876 3.560789-1.068584s6.40942 3.205751 7.477657 3.205751c1.068236 0 15.311392.356194 15.311392.356194l-.356079 9.439154z" fill="#f7ae83"/><path d="m278.453694 204.455645h-5.163144s-2.136473 8.548668-1.068236 13.713488l9.61413 1.602875z" fill="#f3f3f3"/><path d="m305.337651 186.289725s-2.848631-15.316363.712158-22.796448 14.777274-7.480085 19.584339-2.671459 8.545893 15.672558 8.189814 22.618351-4.629025 13.713489-4.629025 19.056406c.266533 3.51826-1.037147 6.974132-3.560789 9.439154-1.602355 2.137167-4.807065 6.411501-6.943539 7.480085-2.136473 1.068583-41.66123 3.561945-41.127112 3.027653.534119-.534292-1.602355-13.713488-1.246276-17.987822l15.311392-.712389c1.679887.480351 3.488663.07827 4.807066-1.068584 1.602355-.534291 1.602355-1.068583 2.670591-.534291 1.373834.536464 2.899113.536464 4.272947 0 .765137-.600588 1.426715-1.322543 1.958434-2.137167 0 0-1.602355-6.767696-.534118-8.370571 1.068236-1.602876.534118-5.342918.534118-5.342918z" fill="#e1f2fd"/><path d="m238.394819 333.754249-10.504327 3.740043-7.477657-9.439155c2.428792-2.575627 4.522502-5.447933 6.23138-8.548668l3.738829-6.945792h.356079c4.373418.964388 8.535698 2.71432 12.284722 5.16482-1.602355 2.671459-5.163144 10.685835-4.629026 16.028752z" fill="#e8eae9"/><path d="m195.665352 341.412431h-3.738829s-1.424315 2.137167-.890197 2.671459c6.146205 2.656049 12.522988 4.742591 19.050221 6.233404 6.765499 1.424778 16.379629-1.246681 17.803945-2.849556v2.671459h10.682366c.676275.054388 1.342351-.190782 1.822092-.670679s.724832-1.146189.670461-1.822683v-3.918139l-3.738829-2.671459z" fill="#cac9c9"/><path d="m220.946953 326.986554c1.737758.110335 3.321562 1.03452 4.272947 2.493361 1.415961 2.314296 3.634187 4.026055 6.231381 4.808626 2.136473.534292 6.943538-1.602875 7.477656-3.20575.534119-1.602876 2.136474 8.904862 1.602355 12.644905-4.868731.03637-9.691959.941019-14.243155 2.671458-6.231381 2.137167-8.367854 3.740043-15.133353 2.315265s-18.160024-5.699112-19.228261-7.301988l9.614131-1.068583c4.629025-.534292 9.43609-5.87721 12.462761-8.548668 2.024237-1.986286 4.372447-3.612498 6.943538-4.808626z" fill="#4b3f51"/><g transform="translate(247.474831 174.535307)"><path d="m10.3262879 1.06858351v2.13716702h-1.06823668v-2.13716702h1.24627608" fill="#443845"/><g fill="#443845" transform="translate(1.780394)"><path d="m8.54589344 1.06858351v2.13716702h-1.06823668v-2.13716702h1.24627612"/><path d="m7.29961731 1.06858351v2.13716702h-2.84863115v-1.95906977h.71215779l2.13647336-.3561945"/><path d="m4.45098616 1.60287526v1.95906977l-.89019723.3561945v-2.13716701h.89019723"/><path d="m3.56078893 1.78097252v2.13716701h-.71215778v-1.95906976c0-.0983604.07971097-.17809725.17803944-.17809725.17803945 0 .35607889 0 .35607889-.17809726"/><path d="m3.02667059 2.13716702v1.95906977h-.35607889v-1.95906977z"/><path d="m2.6705917 2.31526427v1.95906977l-.35607889.3561945v-2.13716702c0-.17809725.17803944-.17809725.35607889-.17809725"/><path d="m2.31451281 2.49336152v2.13716702c-.09832848 0-.17803945.07973686-.17803945.17809725v-2.13716702h.35607889"/><path d="m1.95843391 2.67145877v2.13716702h-.35607889v-2.13716702h.17803945"/></g><g transform="translate(7.121578)"><path d="m2.6705917 1.60287526v1.95906977h-.53411834v-1.95906977h.35607889" fill="#b7c9d4"/><path d="m2.31451281 1.60287526v1.95906977l-1.78039447.3561945h-.53411834v-1.95906976h2.49255225" fill="#bbccd8"/></g><g fill="#443845" transform="translate(8.901972)"><path d="m11.2164851 4.80862579v2.13716702c0-.89048626-.8901972-1.78097251-2.49255222-2.49336152v-2.13716702c1.60235502.71238901 2.31451282 1.60287526 2.31451282 2.49336152"/><path d="m8.90197233 2.31526427v2.13716702l-.71215779-.3561945v-1.95906977h.71215779"/><path d="m8.18981454 2.13716702v1.95906977h-.53411834v-1.95906977h.71215779"/><path d="m7.47765676 1.95906977v1.95906976h-.53411834v-2.13716701h.53411834"/><path d="m6.94353842 1.78097252v1.95906976h-.71215779v-2.13716702h.53411834"/><path d="m6.40942008 1.60287526v2.13716702h-.53411834v-2.13716702z"/><path d="m5.87530174 1.42477801v2.13716702h-.53411834v-1.95906977h.53411834"/><path d="m5.3411834 1.42477801v1.95906977h-.53411834v-2.13716702h.71215778"/><path d="m4.62902561 1.24668076v2.13716702h-.53411834v-1.95906977h.53411834"/><path d="m4.09490727 1.24668076v1.95906977h-.71215779v-2.13716702h.53411834"/><path d="m3.56078893 1.06858351v2.13716702h-.71215778v-2.13716702z"/><path d="m2.84863115 1.06858351v2.13716702h-.53411834v-2.13716702h.71215778"/><path d="m2.13647336 1.06858351v2.13716702h-.89019723v-2.13716702h.71215778"/><path d="m1.42431557 1.06858351v2.13716702h-1.06823668v-2.13716702h1.24627613"/></g><path d="m10.1482485 2.31526427-.17803949 1.95906977-.17803945-.71238901v-1.95906977z" fill="#87949b"/><path d="m20.1184575 4.80862579v2.13716702c0-.89048626-.8901973-1.78097251-2.4925523-2.49336152v-2.13716702c1.602355.71238901 2.3145128 1.60287526 2.3145128 2.49336152" fill="#443845"/><g transform="translate(16.02355 3.561945)"><path d="m2.84863115.71238901v1.95906976h-.71215779v-1.95906976h.53411834" fill="#b4c5d0"/><path d="m2.31451281.71238901v1.95906976h-1.24627613v-2.13716701h1.24627613" fill="#b7c9d4"/></g><path d="m17.0917869 4.63052854v2.13716702c0-.17809725 0-.3561945-.1780395-.3561945v-1.78097252" fill="#7b8f9d"/><path d="m19.0502208 4.63052854v-.3561945c.103016.09134404.1667976.21894847.1780394.3561945" fill="#8b989f"/><g transform="translate(1.780394)"><path d="m7.6556962 1.60287526v1.95906977l-1.78039446.3561945h-.53411834v-1.95906976h2.49255225" fill="#bbccd8"/><path d="m5.16314395 1.95906977v1.95906976l-.89019723.35619451v-2.13716702h.71215778" fill="#b7c9d4"/><path d="m4.45098616 2.13716702v2.13716702c-.17803944 0-.35607889 0-.35607889.17809725v-2.13716702h.53411834" fill="#b4c5d0"/><path d="m3.91686782 2.31526427v2.13716702h-.35607889v-2.13716702z" fill="#b1c1cc"/><path d="m3.56078893 2.49336152v2.13716702h-.35607889v-2.13716702c.09832847 0 .17803944-.07973685.17803944-.17809725" fill="#adbec8"/><path d="m3.38274948 2.67145877v2.13716702h-.17803944v-2.13716702h.35607889" fill="#aabac4"/><path d="m3.02667059 2.84955603v2.13716701c-.17803944 0-.17803944 0-.17803944.17809726v-2.13716702h.17803944" fill="#a7b6c0"/><path d="m2.84863115 3.02765328v2.13716702c-.17803945 0-.17803945 0-.17803945.17809725v-2.13716702h.17803945" fill="#a3b3bc"/><path d="m2.6705917 3.20575053v2.13716702c-.17803945 0-.17803945 0-.17803945.17809725v-2.13716702" fill="#a0afb8"/><path d="m2.6705917 3.38384778v2.13716702c0 .0983604-.07971098.17809725-.17803945.17809725v-2.13716702c0-.04723433.01875768-.09253406.05214655-.12593377.03338887-.03339972.0786739-.05216348.1258929-.05216348" fill="#9dabb4"/><path d="m2.49255225 3.56194503v2.13716702z" fill="#99a7b0"/><path d="m2.49255225 3.74004228v2.13716702z" fill="#95a4ac"/></g><g fill="#443845" transform="translate(1.780394 1.780973)"><path d="m1.95843391.89048626v2.13716702h-.35607889v-2.13716702h.17803945"/><path d="m1.78039447 1.06858351v2.13716702h-.17803945v-2.13716702z"/><path d="m1.60235502 1.24668076v2.13716702-2.13716702h.17803945"/><path d="m1.42431557 1.42477801v2.13716702c-.09832847 0-.17803944.07973686-.17803944.17809725v-2.31526427"/><path d="m1.42431557 1.78097252v.17809725c0-.0983604.07971098-.17809725.17803945-.17809725"/><path d="m1.24627613 1.95906977v2.13716702-1.95906977"/></g><g transform="translate(3.560789 1.780973)"><path d="m6.58745952.53429176v1.95906976-1.95906976h.17803945" fill="#a3bdd0"/><path d="m6.40942008.53429176v1.95906976h-1.95843392v-2.13716702h1.78039447" fill="#a6c1d3"/><path d="m4.62902561.71238901v2.13716702h-.53411834v-2.13716702h.71215779" fill="#a3bdd0"/><path d="m3.91686782.89048626v2.13716702h-.35607889v-2.13716702z" fill="#a0bacc"/><path d="m3.56078893 1.06858351v2.13716702h-.35607889v-1.95906977c0-.09836039.07971097-.17809725.17803944-.17809725" fill="#9db7c8"/><path d="m3.38274948 1.24668076v1.95906977c0 .09836039-.07971097.17809725-.17803944.17809725v-2.13716702z" fill="#9ab3c4"/><path d="m3.20471004 1.24668076v2.13716702h-.17803945v-2.13716702z" fill="#97b0c0"/><path d="m3.02667059 1.42477801v2.13716702h-.17803944v-2.13716702c0-.09836039.07971097-.17809725.17803944-.17809725" fill="#94acbd"/><path d="m2.84863115 1.60287526v2.13716702-1.95906976c0-.0983604.07971097-.17809726.17803944-.17809726" fill="#91a9b9"/><path d="m2.6705917 1.78097252v1.95906976h-.17803945v-1.95906976" fill="#8ea5b5"/><path d="m2.6705917 1.78097252v2.13716701-2.13716701c.09832847 0 .17803945-.07973686.17803945-.17809726" fill="#8ba2b1"/><path d="m2.49255225 1.95906977v2.13716702z" fill="#889ead"/><path d="m2.49255225 2.13716702v2.13716702h-.17803944v-1.95906977" fill="#859ba9"/></g><path d="m20.1184575 4.80862579v2.13716702c0-.89048626-.8901973-1.78097251-2.4925523-2.49336152v-2.13716702c1.602355.71238901 2.3145128 1.60287526 2.3145128 2.49336152" fill="#443845"/><path d="m6.23138063 4.63052854v2.13716702c-.18398006-.19877326-.30749993-.44589322-.35607889-.71238901v-1.95906976c-.01653642.19499966.04784848.38821709.17803944.53429175" fill="#8b989f"/><path d="m5.3411834 6.23340381v2.13716701c-1.60235502-.712389-2.49255225-1.60287526-2.31451281-2.49336152v-1.95906977c0 .71238901.71215779 1.60287527 2.31451281 2.31526428" fill="#8b989f"/><path d="m7.6556962 1.78097252h2.13647336l.35607894.712389h-1.60235506c-2.13647336.35619451-2.84863115 1.24668076-2.31451281 2.13716702h-1.78039447c-.89019723-1.06858351.3560789-2.31526427 3.20471004-2.84955602z" fill="#a3bdcf"/><path d="m6.23138063 4.63052854v2.13716702l-1.78039447.17809725v-2.13716702z" fill="#a9c4d7"/><path d="m4.45098616 4.80862579v2.13716702c-.16523621-.27601843-.28543694-.57661783-.35607889-.89048626v-2.13716702c-.02771005.30779093.03411824.61703274.17803945.89048626" fill="#7b8f9d"/><g transform="translate(17.803945 3.561945)"><path d="m2.31451281 1.24668076v2.13716702h-.17803945v-1.95906977" fill="#95a4ac"/><path d="m2.31451281 1.42477801v.17809725" fill="#99a7b0"/><path d="m2.31451281 1.60287526v2.13716702-1.95906976h.17803944" fill="#9dabb4"/><path d="m2.13647336 1.78097252v2.13716701h-.17803945v-2.13716701c.17803945 0 .17803945 0 .17803945-.17809726" fill="#a0afb8"/><path d="m1.95843391 1.95906977v2.13716702c-.09832847 0-.17803944.07973685-.17803944.17809725v-1.95906977c.17803944-.17809725.17803944-.17809725.17803944-.3561945" fill="#a3b3bc"/><path d="m1.78039447 2.31526427v1.95906977h-.17803945v-1.95906977z" fill="#a7b6c0"/></g><g transform="translate(14.243156 3.561945)"><path d="m2.84863115 1.06858351v2.13716702z" fill="#95a4ac"/><path d="m2.84863115 1.06858351v2.13716702h-.17803945v-2.13716702" fill="#99a7b0"/><path d="m2.84863115 1.24668076v2.13716702z" fill="#9dabb4"/><path d="m2.84863115 1.42477801v2.13716702h-.17803945v-1.95906977c0-.09836039.07971097-.17809725.17803945-.17809725" fill="#a0afb8"/><path d="m2.6705917 1.60287526v1.95906977-1.78097251h.17803945" fill="#a3b3bc"/><path d="m2.49255225 1.78097252v1.95906976h-.17803944v-1.95906976" fill="#a7b6c0"/><path d="m2.49255225 1.78097252v2.13716701h-.17803944v-2.13716701z" fill="#aabac4"/><path d="m2.31451281 1.95906977v2.13716702h-.17803945v-1.95906977h.35607889" fill="#adbec8"/><path d="m1.95843391 2.13716702v1.95906977h-.35607889v-1.95906977h.17803945" fill="#b1c1cc"/><path d="m1.78039447 2.31526427v1.95906977-1.95906977h.17803944" fill="#b4c5d0"/></g><g transform="translate(17.803945 5.342918)"><path d="m1.78039447.53429176v1.95906976h-.17803945v-1.95906976z" fill="#a7b6c0"/><path d="m1.60235502.71238901v1.95906976h-.35607889v-1.95906976c0-.0983604.07971097-.17809725.17803944-.17809725" fill="#aabac4"/></g><g transform="translate(16.02355 3.561945)"><path d="m3.02667059 1.06858351v2.13716702z" fill="#859ba9"/><path d="m3.02667059 1.24668076v2.13716702-2.13716702h.17803945" fill="#889ead"/><path d="m2.84863115 1.42477801v2.13716702h-.17803945v-2.13716702" fill="#8ba2b1"/><path d="m2.84863115 1.60287526v2.13716702-1.95906976c.09832847 0 .17803944-.07973686.17803944-.17809726" fill="#8ea5b5"/><path d="m2.6705917 1.78097252v2.13716701h-.17803945v-2.13716701c.17803945 0 .17803945 0 .17803945-.17809726" fill="#91a9b9"/><path d="m2.49255225 1.95906977v2.13716702c-.09832847 0-.17803944.07973685-.17803944.17809725v-2.13716702c.17803944 0 .17803944 0 .17803944-.17809725" fill="#94acbd"/><path d="m2.31451281 2.13716702v2.13716702h-.3560789v-2.13716702h.17803945" fill="#97b0c0"/><path d="m2.13647336 2.31526427v2.13716702h-.17803945v-2.13716702h.3560789" fill="#9ab3c4"/><path d="m1.78039447 2.49336152v2.13716702h-.53411834v-2.13716702c.17803944 0 .35607889 0 .35607889-.17809725" fill="#9db7c8"/><path d="m1.42431557 2.67145877v2.13716702h-.17803944v-1.95906976h.17803944" fill="#a0bacc"/></g><path d="m17.0917869 4.27433404h1.7803944c.3560789.712389-.1780394 1.60287526-1.602355 2.13716702l-1.4243156-.53429176c1.0682367-.53429175 1.4243156-1.06858351 1.2462762-1.60287526z" fill="#a3bdcf"/><path d="m17.2698263 6.41150106-.1780394 2.13716702-1.2462762-.71238901v-1.95906977z" fill="#869caa"/><g transform="translate(16.02355 5.342918)"><path d="m3.38274948.71238901v1.95906976h-.35607889v-1.95906976c0-.0983604.07971098-.17809725.17803945-.17809725" fill="#aabac4"/><path d="m3.20471004.89048626v1.95906977l-.35607889.3561945v-2.13716702h.35607889" fill="#adbec8"/><path d="m2.84863115 1.06858351v2.13716702h-.3560789v-2.13716702h.53411834" fill="#b1c1cc"/><path d="m2.31451281 1.24668076v2.13716702h-.53411834v-2.13716702z" fill="#b4c5d0"/></g><g transform="translate(16.02355 5.342918)"><path d="m2.31451281 1.24668076v2.13716702h-.53411834v-2.13716702z" fill="#b4c5d0"/><path d="m1.78039447 1.42477801v2.13716702h-.89019724v-1.78097251z" fill="#b7c9d4"/></g><g transform="translate(1.780394 3.561945)"><path d="m4.9851045 3.20575053v2.13716702l-.53411834-.35619451v-1.95906976h.71215779" fill="#92a0a8"/><path d="m4.27294672 3.02765328v1.95906976h-.71215779v-2.13716701l.71215779.3561945" fill="#8e9ca4"/><path d="m3.56078893 2.67145877v2.13716702c-1.60235502-.712389-2.49255225-1.60287526-2.3145128-2.49336152v-1.95906977c0 .71238901.71215778 1.60287527 2.3145128 2.31526427" fill="#8b989f"/></g><g fill="#443845" transform="translate(0 3.561945)"><path d="m22.4329703 1.42477801v1.95906977z"/><path d="m22.4329703 1.60287526v.17809726h.1780394"/><path d="m22.2549308 1.78097252v2.13716701h-.1780394v-2.13716701"/><path d="m22.2549308 2.13716702v1.95906977c0 .17809725-.1780394.17809725-.1780394.3561945v-2.13716702h.1780394"/><path d="m22.0768914 2.31526427v2.13716702h-.1780395v-1.95906977l.3560789-.3561945"/><path d="m21.7208125 2.67145877v1.95906977l-.3560789.3561945v-2.13716701h.1780394"/><path d="m21.542773 2.84955603v2.13716701h-.3560789v-2.13716701z"/><path d="m21.1866941 3.02765328v2.13716702l-.3560789.3561945v-2.13716702l.5341184-.3561945"/><path d="m20.6525758 3.38384778v2.13716702h-.5341183v-1.95906977h.5341183"/><path d="m20.1184575 3.56194503v2.13716702h-.7121578v-2.13716702h.5341183c.0983285 0 .1780395-.07973685.1780395-.17809725"/><path d="m19.4062997 3.91813953v2.13716702h-1.2462761v-2.13716702h1.0682366"/><path d="m18.338063 4.27433404v2.13716702h-3.5607889v-2.13716702h3.7388283"/><path d="m14.5992346 4.80862579v2.13716702h-1.4243156v-2.13716702h1.2462762"/><path d="m13.3529585 4.80862579v2.13716702h-1.0682367v-2.13716702z"/><path d="m12.2847218 4.80862579v2.13716702h-.8901972v-2.13716702z"/><path d="m11.3945246 4.80862579v2.13716702h-.7121578v-1.95906977h.8901972"/><path d="m10.5043273 4.80862579v1.95906977h-.89019719v-2.13716702h.71215779"/><path d="m9.79216956 4.63052854v2.13716702h-.89019723v-1.95906977h.71215778"/><path d="m9.08001178 4.63052854v1.95906977h-.71215779v-2.13716702h.71215779"/><path d="m8.36785399 4.45243129v2.13716702h-.71215779v-1.95906977h.71215779"/><path d="m7.6556962 4.45243129v1.95906977h-.71215778v-1.95906977z"/><path d="m6.94353842 4.27433404v1.95906977h-.71215779v-1.95906977z"/><path d="m6.23138063 4.09623679v1.95906976h-.89019723v-1.95906976h.71215778"/><path d="m5.51922284 3.91813953v1.95906977h-.71215778v-2.31526427h.17803944l.71215779.3561945"/><path d="m4.62902561 3.56194503v2.13716702l-1.06823668-.3561945v-2.13716702l.89019723.3561945"/><path d="m3.73882838 3.20575053v2.13716702c-1.95843391-.89048626-2.84863115-2.13716702-2.84863115-3.02765328v-2.13716702c-.17803944 1.06858351.89019724 2.13716702 2.84863115 3.02765328"/></g><path d="m18.5161024 1.60287526c1.6544675.34232579 3.0815466 1.38053845 3.9168679 2.84955603.1780394 1.06858351-.7121578 2.13716702-2.4925523 2.84955603l-1.2462761.3561945-1.2462761.3561945h-1.6023551c-3.7115005.5511303-7.50146464.1842405-11.03844564-1.06858351-4.62902561-1.60287526-5.3411834-4.27433404-1.60235502-5.69911205l2.49255225-.712389c4.29110698-.8064494 8.72035881-.43722524 12.81884011 1.0685835zm-.3560788 5.1648203c3.0266705-1.24668076 2.4925522-3.38384778-1.0682367-4.63052854-3.2799446-1.03105873-6.7564963-1.27510648-10.14824848-.71238901l-1.95843392.53429176c-3.02667059 1.24668076-2.49255225 3.20575053 1.24627613 4.63052854 3.2177084 1.03639243 6.63791097 1.28077193 9.97020897.71238901z" fill="#443845"/><path d="m17.0917869 2.13716702c3.5607889 1.24668076 4.0949072 3.38384778 1.0682367 4.63052854l-1.958434.53429176c-3.332298.56838292-6.75250057.32400342-9.97020897-.71238901-3.73882838-1.42477801-4.27294672-3.38384778-1.24627613-4.63052854l1.95843392-.53429176c3.39175218-.56271747 6.86830388-.31866972 10.14824848.71238901zm-8.54589346.3561945h1.60235506l-.35607894-.712389h-2.13647336c-2.84863114.53429175-4.09490727 1.78097251-3.20471004 3.02765327h1.78039447c-.53411834-.89048626.17803945-1.78097251 2.31451281-2.13716702zm8.72393286 4.09623679c1.4243156-.53429176 1.9584339-1.42477801 1.602355-2.13716702h-1.7803944c.1780394.53429175-.1780395 1.06858351-1.2462762 1.60287526z" fill="#b7c8d3"/><path d="m23.3231675 13.0010994-.1780394 2.137167-7.4776568-4.8086258.1780394-2.13716703z" fill="#564854"/><g transform="translate(21.364734 12.466808)"><path d="m4.9851045.3561945v2.13716702z" fill="#594a57"/><path d="m4.9851045.3561945v2.13716702z" fill="#5a4b58"/><path d="m4.9851045.3561945v2.13716702h-.17803944v-1.95906976" fill="#5b4c59"/><path d="m4.9851045.53429176v1.95906976z" fill="#5c4d5a"/><path d="m4.9851045.53429176v1.95906976-2.13716702" fill="#5d4e5b"/><path d="m4.9851045.53429176v2.13716701-2.13716701h.17803945" fill="#5e4f5c"/><path d="m4.80706506.53429176v2.13716701z" fill="#5f4f5d"/><path d="m4.80706506.53429176v2.13716701h-.17803945v-1.95906976" fill="#60505e"/><path d="m4.80706506.71238901v1.95906976-2.13716701h.17803944" fill="#61515f"/><path d="m4.62902561.71238901v2.13716702h-.17803945v-2.13716702" fill="#625260"/><path d="m4.62902561.71238901v2.13716702h-.17803945v-2.13716702z" fill="#635361"/><path d="m4.45098616.71238901v2.13716702h-.53411834v-2.13716702h.71215779" fill="#645462"/><path d="m3.73882838.89048626v2.13716702h-.17803945v-2.13716702z" fill="#635361"/><path d="m3.56078893.89048626v2.13716702h-.17803945v-2.13716702z" fill="#625260"/><path d="m3.38274948.89048626v2.13716702h-.17803944v-2.13716702" fill="#61515f"/><path d="m3.38274948.89048626v2.13716702h-.17803944v-2.13716702z" fill="#60505e"/><path d="m3.20471004.89048626v2.13716702-1.95906977h.17803944" fill="#5f4f5d"/><path d="m3.02667059.89048626v1.95906977h-.17803944v-1.95906977" fill="#5e4f5c"/><path d="m3.02667059.89048626v1.95906977h-.17803944v-1.95906977z" fill="#5d4e5b"/><path d="m2.84863115.89048626v1.95906977-1.95906977h.17803944" fill="#5c4d5a"/><path d="m2.6705917.89048626v1.95906977h-.17803945v-2.13716702" fill="#5b4c59"/><path d="m2.6705917.71238901v2.13716702h-.17803945v-2.13716702z" fill="#5a4b58"/><path d="m2.49255225.71238901v2.13716702-2.13716702h.17803945" fill="#594a57"/><path d="m2.31451281.71238901v2.13716702h-.17803945v-2.13716702" fill="#584956"/><path d="m2.31451281.71238901v2.13716702c0-.17809726 0-.17809726-.17803945-.17809726v-1.95906976z" fill="#574854"/><path d="m2.13647336.71238901v1.95906976h-.17803945v-2.13716701c.09832847 0 .17803945.07973685.17803945.17809725" fill="#564853"/></g><path d="m15.8455107 8.19247357h1.6023551l1.2462761-.3561945 7.4776567 4.80862583c.5341184.3561945.1780395.712389-.5341183.8904862-.7894574.0900531-1.5886213-.0329351-2.3145128-.3561945z" fill="#635360"/></g><path d="m102.372682 104.899281c-1.246276-6.2334036-10.3262881-17.4535305-21.0086549-13.7134882s-13.530998 13.1791962-13.8870768 19.9468922c-.2611148 4.966222 1.0469632 9.888685 3.7388283 14.069683.7121578.890486 8.0117751 8.192473 9.970209 8.726765s8.1898146-7.480084 8.5458935-7.12389c.6643871.291505 1.439144.150595 1.9584339-.356194.8901972-.890487 3.9168678-7.836279 4.6290256-8.370571s7.6556964-6.055307 6.0533414-13.179197" fill="#f8b999"/><path d="m102.372682 112.379366-14.5992348-6.233404c-3.0266706-1.068584-22.7890492 21.37167-24.2133648 22.262156-13.7090374 7.658182-10.5043273-9.261057-11.2164851-5.877209 0 0-1.2462761-6.589598 17.8039446-29.2079492 8.0117751-6.7676955 19.4062997-4.6305285 25.4596409-.3561945 6.0533412 4.2743341 10.8604062 12.4668077 6.7654992 19.4126007" fill="#29235c"/><path d="m72.8181336 112.73556s2.6705917-6.411501-5.3411833-7.480084c-8.0117751-1.068584-6.5874596 10.151543-7.2996174 14.603974-4.807065 4.630529-12.9968796 4.986723-12.8188401 5.87721 1.602355 5.877209 23.6792464 13.713488 25.6376803 15.138266 4.6290256 3.383848 5.1631439-8.904863 4.0949073-9.795349-4.1255926-3.835403-7.5587009-8.354117-10.1482485-13.357294z" fill="#29235c"/><path d="m194.419076 83.1714165c-2.443454.1442526-4.870949-.4783841-6.943539-1.7809725 0 0 8.367854-3.3838478 8.367854-3.2057506 0 .1780973-1.424315 4.9867231-1.424315 4.9867231z" fill="#d3d2d3"/></g></g></svg>