<svg height="400" viewBox="0 0 1200 400" width="1200" xmlns="http://www.w3.org/2000/svg"><g fill="none" fill-rule="evenodd"><path d="m0 351h1201v-351h-1201z" fill="#eef7fb"/><g fill-rule="nonzero" transform="translate(419 25)"><path d="m199.903256 275.789735c-82.223721-1.519968-154.8237211 13.679712-162.4213955 33.777065-7.5976745 20.097354 53.1837209 37.661428 135.4074415 39.181396 82.223721 1.519968 154.823721-13.510826 162.252558-33.60818 7.428838-20.097354-53.014883-37.661427-135.238604-39.350281" fill="#93d5f6"/><path d="m100.964651 159.427796c1.688372-.675591 4.22093-.33782 4.896279-2.364444.483571-1.78968.36491-3.688806-.337674-5.40433-.403546-1.899281-1.645044-3.513687-3.376744-4.391019l-4.2209306-2.026624-1.1818605-.33777-.3376744-.337771h-.5065116c-.5065116-.337771-1.0130233-.506656-1.1818605-.844427-.3263618-.373091-.8932941-.410897-1.2662789-.084442-.3729847.326455-.4107803.893548-.0844188 1.26664h.1688373c-.5044836.182-.9248963.542456-1.1818605 1.013312-1.0130233 1.182197-.1688372 2.702165.5065116 4.053247.6753489 1.351083 1.5195349 3.884363 3.5455814 4.728789.9550477.459252 1.9840529.745168 3.0390698.844427.1688372.506656.5065116.844427 1.0130237.675541.482847-.064121.944757-.237387 1.350697-.506656l-.506511.337771-1.181861.337771c-.6753487.168885-.6753487 1.182197-.1688371 1.519968-.3729847.279818-.4485757.809106-.1688371 1.182197.2797382.373091.8088752.448704 1.1818602.168885" fill="#866552"/><path d="m79.3534884 312.775621c-3.207907-3.715477-11.9874419-2.364394-16.0395349-1.688853h-4.7274419c-.6753488-.168885-3.8832558-.506656-3.8832558-1.519968.0036733-1.056505-.804672-1.938587-1.8572093-2.026624.2786224-.852135.011274-1.788121-.6753488-2.364394h-.1688372c-.6753489-.506656.3376744-2.195509-.3376745-2.026624-.6753488.168885-3.5455813 6.248757-4.052093 7.93761-1.1818604 4.728789 2.1948837 6.248757 5.0651163 6.248757 9.1172093.337771 18.9097674 1.013312 25.6632558-1.013312 1.6883721-.33777 1.8572093-2.195509 1.0130233-3.546592" fill="#19303b"/><path d="m51.4953488 311.086768c4.5586047 2.53328 11.8186047 1.351083 16.5460465 1.013312.1688373-.168885 4.3897675-.675541 3.8832559-1.013312-6.7534884-3.377706-11.4809303-2.702165-13.0004652-9.288693-.3361304-.930723-1.2531846-1.521481-2.2393444-1.442565-.9861598.078915-1.7976569.807997-1.9815858 1.780336-.3047193-.934113-1.192812-1.551962-2.1743322-1.51269s-1.8174407.726101-2.046598 1.681575c0 2.364395-2.5325582 6.079872-.1688372 7.937611z" fill="#866552"/><path d="m36.9753488 301.62919c-.1688372-1.182197-1.0130232 2.53328-1.8572093 2.364395-1.5184175-.196225-3.0588583-.139156-4.5586046.168885-.3376744-1.351083.3376744-5.06656-.8441861-4.053248-1.1818604 1.013312-4.7274418 10.977546-5.2339535 15.368565-.5065116 4.391018-.5065116 10.133119 3.207907 12.666399s8.4418605-6.248757 9.1172093-11.653087c.4776467-4.94021.5341296-9.912118.1688372-14.861909" fill="#19303b"/><path d="m35.6246512 302.304731c-.6753489-1.182197-1.5195349-1.857738-2.8702326-1.182197s-1.6883721-1.182197-2.1948837-1.013312-1.6883721 2.364395-2.1948837 3.208821c-1.1740456 2.646461-2.0243841 5.425025-2.5325582 8.275381-.844186 4.222133 2.363721 10.302005 7.4288372 6.924299 5.0651163-3.377707 3.5455814-5.742102 3.5455814-9.119808.0247635-2.415413-.3752814-4.816367-1.1818604-7.093184" fill="#866552"/><path d="m86.7823256 180.876183c1.2669375-8.000325 1.2669375-16.150277 0-24.150602-.5065116-3.039935-1.0130233-6.079871-1.3506977-9.119807-1.6844723-1.302178-3.5651394-2.328289-5.5716279-3.039936-3.3059381-1.384969-7.0402918-1.323733-10.2990698.168885l-.844186.675542c-1.449978-.475487-3.0295487-.353947-4.3897675.33777-3.2079069 1.351083-4.896279 4.728789-6.0781395 7.937611-1.2060534 3.55643-1.9991721 7.239816-2.3637209 10.977546-.871356 7.453402-1.1536267 14.963942-.8441861 22.461748.3376745 5.910986 1.3506977 11.990858 1.6883721 17.901844.111088 5.877779-.2843279 11.754203-1.1818604 17.564074-2.0260466 12.328629-5.2339535 24.319487-6.415814 36.648116-.8141633 6.724321-1.2088808 13.492834-1.1818605 20.266239.1688373 6.924298 1.0130233 13.848596.8441861 20.94178.0941824 2.156708 1.5021021 4.03447 3.5455814 4.728789 1.0542466.221055 2.1362868.278021 3.207907.168885 1.2827856.045857 2.5290663-.432036 3.4524933-1.323874.923427-.891839 1.4446046-2.120945 1.4437857-3.404915.2502864-17.173168 2.6322446-34.248733 7.0911628-50.834483 2.0260465-8.444266 4.8962791-16.550761 7.5976744-24.826142 2.7013954-8.275381 5.4027907-21.110666 8.6106977-31.412671 1.3305828-4.139521 2.3464992-8.373712 3.0390698-12.666399" fill="#acdbf7"/><path d="m65.8465116 167.027586c-.1891522 1.286981-.3019079 2.584041-.3376744 3.884363-.527052 4.712777-1.3161818 9.392522-2.3637209 14.017482-1.0130233 4.391018-2.363721 8.782037-3.5455814 13.173055-2.3637209 8.782037-4.3897675 17.901844-7.26 26.683881-2.8702326 8.782037-5.5716279 16.381877-7.5976744 24.826143-4.2948685 16.618713-6.6740721 33.674531-7.0911628 50.834483 0 2.611638-2.1165478 4.728789-4.7274419 4.728789-1.0806165.065557-2.1646216-.048581-3.207907-.337771h-.1688372c-2.0491513-.548908-3.4489485-2.439173-3.3767442-4.559904 0-7.093183-.844186-14.017481-1.0130232-20.94178-.0270203-6.773404.3676971-13.541918 1.1818605-20.266239 1.1818604-12.328628 4.5586046-24.319487 6.4158139-36.648115 1.0652968-5.790074 1.4618518-11.683427 1.1818605-17.564074-.3376744-6.079872-1.1818605-11.990858-1.6883721-17.901844-.3367962-7.502488.0022463-15.020072 1.0130232-22.461749.3376745-3.715477 5.2339535-17.564073 8.4418605-19.084041 1.1660404-.523009 2.4732075-.641876 3.7144186-.337771h.5065116l.8441861-.675541c3.0390697-1.857739 7.0911628-1.351083 10.2990697-.168886 3.207907 1.182198 6.7534884 3.039936 8.4418605 6.248757v.506656l.3376744-.506656c.3263618-.979364 1.3846357-1.508652 2.3637209-1.182197s1.5082222 1.38503 1.1818605 2.364395h.1688372c.5071667-.053869 1.011498.124472 1.3721351.485212.360637.36074.5389272.865215.4850742 1.372526.3376745 4.897675-2.7013953 9.626464-5.7404651 13.341941" fill="#92d2f4"/><path d="m81.0418605 39.3502807c.844186 3.8843624 2.0260465 7.7687249 2.5325581 11.6530874s.1688372 5.5732157-2.5325581 7.0931836c-3.2609606 1.6329622-6.7242481 2.8255813-10.2990698 3.5465918-7.1642657 2.2600008-14.6083861 3.5105147-22.1176744 3.7154772-2.363721 0-8.2730233.506656-10.1302326-1.1821973-1.8572093-1.6888532-1.8572093-6.9242983-2.1948837-9.2886928-.3653977-2.4590046-.4785439-4.9489311-.3376744-7.4309543.1167482-3.7483548.5687856-7.4787256 1.3506977-11.1464315 1.0130232-5.235445 3.2079069-11.990858 7.9353488-14.8619086h.1688372c2.4601716-2.8066573 5.7885191-4.7091122 9.4548837-5.4043303 4.0749298-.6672796 8.2549057.1092229 11.8186047 2.1955092 3.7376455 2.1022624 6.8760486 5.1252896 9.1172093 8.7820369 2.3571344 3.881857 4.1212575 8.0941896 5.2339535 12.497514" fill="#312b2b"/><path d="m65.5088372 68.3985565c-2.7013953 2.3643946-8.4418605 3.3777065-10.8055814-.1688853-.7036883-.07051-1.3388455-.4524882-1.7311351-1.0410903-.3922895-.588602-.5004932-1.3219827-.2949114-1.9988455v-1.519968c.2512024-1.1689554.4204516-2.3540379.5065116-3.5465918.1390005-.4361127.1962405-.8941635.1688372-1.3510826v-.8444266c-.0744963-.6090157.109175-1.2214278.5065117-1.6888532v-1.013312c.6753488-2.5332799 3.2079069-2.0266239 3.7144186 0 .4143751.451086.7561298.9638641 1.0130232 1.5199679v.3377707c.1397916.6087939.1965859 1.2337094.1688372 1.8577385h.1688372c.3090889-.2785461.7188341-.4181459 1.1336371-.3862289.414803.0319171.7983832.2325592 1.0612467.5551143h.844186v-1.013312c.4158231-.6326424 1.1738635-.9495673 1.9160778-.8010821.7422142.1484851 1.3200844.7326682 1.4606664 1.4766234.1695236.4343989.1695236.9166838 0 1.3510826 0 .506656-.1688372 1.1821973-.1688372 1.6888533v1.3510826 2.3643945c.2022544 1.0097065-.0442131 2.0574917-.6753488 2.8710505" fill="#866552"/><path d="m66.6906977 18.0707298c.6274328 3.3307474-.6797127 6.7302939-3.3767442 8.7820368-2.9360143 1.9458248-6.5789345 2.5016829-9.9613954 1.519968-3.6110051-.9600366-6.5916932-3.5067666-8.104186-6.9242984h.1688372c2.3984624-2.9119939 5.74617-4.8853123 9.4548837-5.5732157 4.0749298-.6672795 8.2549057.109223 11.8186047 2.1955093" fill="#312b2b"/><path d="m66.184186 60.1231756c0 .506656-.1688372 1.1821973-.1688372 1.6888533-.0274032.4569191.0298368.9149699.1688372 1.3510826s-4.3897674 8.1064956-13.1693023.5066559c.3076871-1.6200975.5330925-3.2547523.6753489-4.8976744v-.8444266c-.0744963-.6090157.109175-1.2214278.5065116-1.6888532v-.3377707l4.8962791 1.1821973 3.7144186 1.0133119 3.3767441.6755413c.1695237.4343989.1695237.9166838 0 1.3510826" fill="#694f3f"/><g fill="#866552"><path d="m69.2232558 25.6705694c-.8263983-.4791122-1.7493166-.7676064-2.7013953-.8444267-2.0260465-.1688853-4.5586047 1.519968-6.5846512 1.8577386-2.0260465.3377707-8.2730233.506656-10.1302326 3.8843625s.1688373 6.755413.8441861 10.1331195c0 .6755413.1688372 1.3510826.1688372 2.0266239-.9075037-.3905526-1.9232116-.4503172-2.8702326-.1688854-.8248837.2332405-1.3830206 1.0008974-1.3506976 1.8577386.4995462 2.64669 2.3622638 4.831188 4.896279 5.7421011.1807058 1.167161.5215968 2.3037882 1.0130233 3.3777065 1.8572093 3.7154771 5.4027907 5.742101 8.9483721 7.5998396 3.0039169 1.7874412 6.8150534 1.4470642 9.4548837-.8444267 3.0390698-2.0266239 3.8832558-5.235445 4.2209302-8.7820368.5931772-3.7674889.4209079-7.6159338-.5065116-11.3153168-1.3506977-4.7287891-.6753488-12.1597434-5.4027907-14.5241379"/><path d="m42.2093023 100.993424c0-3.3777063.8441861-26.3461104-2.1948837-29.217161-3.0390698-2.8710505-3.3767442 1.8577386-4.052093 2.8710506-.6753489 1.0133119-2.5325582 6.0798716-3.5455814 9.6264635-1.9195748 8.9998425-2.9935529 18.1595279-3.207907 27.3594229-.3376744 11.146431-2.0260465 22.461748-3.207907 33.608179-.7301039 6.449081-1.1245896 12.931765-1.1818604 19.421813v10.47089c0 1.857738-.1688372 3.884362 1.3506976 4.897674 1.5195349 1.013312 3.0390698-2.026624 3.5455814-4.053248l2.5325582-12.666399c2.0817089-9.650377 3.659659-19.402633 4.7274418-29.217161.3584102-3.198188.9795803-6.361409 1.8572093-9.457578 1.8207034-6.620978 2.9522988-13.412485 3.3767442-20.266239z"/><path d="m80.1976744 129.197273 1.5195349 2.53328c2.1948837 3.715477 4.3897674 7.093184 6.7534884 10.639776 2.3637209 3.546592 5.2339535 9.795349 7.5976744 6.586527 2.3637209-3.208821.6753488-1.013311.5065116-2.364394-.3376744-5.742101-3.0390697-11.653088-5.0651163-16.888533-2.080033-4.949661-4.5060367-9.746617-7.26-14.355252-2.3637209-4.222133-.6753488-8.444266-.3376744-13.00417.6474619-6.3423645.7039842-12.731209.1688372-19.0840419-.3376744-3.8843625-.5065116-14.0174819-4.3897674-16.3818765-3.8832558-2.3643945-4.052093 3.8843625-2.8702326 5.2354451-1.8342663 3.2491288-3.0910445 6.7919674-3.7144186 10.4708901-.3907661.3464774-.6327055.8304942-.6753488 1.3510826-.7372909 6.3480175-.6237289 12.7660982.3376744 19.0840416.5065116 4.222133.8441861 8.444266 1.3506977 12.666399.5065116 4.222134 3.3767442 9.288693 6.0781395 13.510826"/><path d="m84.7562791 140.005934c-1.0130233-2.87105-2.363721-5.742101-3.3767442-8.782037-.9850012-3.282237-1.3850519-6.71222-1.1818605-10.133119.3376744-6.417642 2.3637209-12.666399 3.5455814-18.915157v-.33777c0-.506656.1688372-.844427.1688372-1.182197v-2.1955097c.0278594-.7358871-.0287902-1.4725416-.1688372-2.1955092v-1.0133119c-.5523315-3.0247952-1.2852715-6.0137869-2.1948837-8.9509222-1.5195349-6.5865277-2.7013954-12.8352847-1.8572093-19.4218124-3.207907-1.0133119-6.9223256-.8444266-10.1302326-1.5199679-1.8252744-.6540558-3.83868-.5319965-5.5716279.3377706-.9746526.7269381-2.0570564 1.2967866-3.207907 1.6888533-2.1948837.3377706-3.3767441-1.013312-5.0651162-1.8577386-.6801285-.3433209-1.4331312-.5171402-2.1948838-.506656-1.5195348 0-3.3767441 1.519968-4.7274418 2.1955093l-9.6237209 4.2221331c-1.6815043.4544429-2.8547952 1.973252-2.8702326 3.7154771-.3376744 2.5332799 1.0130233 4.8976744 1.1818605 7.4309543s1.0130232 6.9242983 1.6883721 10.4708902c1.5195348 6.5865276 4.2209302 13.00417 5.5716279 19.759583 1.1899779 5.110272.837427 10.458818-1.0130233 15.368565l-4.052093 10.302004c-.5065116 1.857739-2.0260465 3.715477-2.0260465 5.573216s7.9353488 5.06656 10.6367442 5.910986c6.1390568 2.02788 12.4790504 3.386837 18.9097674 4.053248 3.9392652.514157 7.9377609.342744 11.8186047-.506656 2.4670251-.514301 4.8153051-1.488255 6.9223255-2.87105l-.5065116-8.275381c-.3022716-.764008-.5284826-1.555972-.6753488-2.364395"/></g><path d="m83.4055814 112.646512c-1.071181 4.306529-1.3004993 8.77951-.6753488 13.173055.1688372 1.688853.6753488 3.377706.844186 5.06656.1688372 1.688853.1688372 1.519968.3376744 2.195509v2.026624c.5065117 3.208821.8441861 6.417642 1.5195349 9.457578s.1688372 4.053248.3376744 6.079872c-2.1070204 1.382795-4.4553004 2.356749-6.9223256 2.87105-3.8808437.8494-7.8793394 1.020813-11.8186046.506656-6.430717-.666411-12.7707106-2.025368-18.9097674-4.053248l-5.571628-1.519968c-2.7013953-.844426-5.2339534-2.195509-5.0651162-4.391018s1.5195348-3.715477 2.0260465-5.573216l4.052093-10.302004c1.8504503-4.909747 2.2030012-10.258293 1.0130233-15.368565-.6753489-3.039936-1.5195349-5.910986-2.363721-8.950922 1.0866814-2.651786 1.8244791-5.4335086 2.1948837-8.2753812 0-1.0133119.1688373-2.0266239.1688373-3.0399358-.1707191-3.1121774-.5088832-6.212899-1.0130233-9.2886929-.5187834-4.2079433-1.8368506-8.2779191-3.8832558-11.990858l4.5586046-2.0266239.6753489.6755413c5.8335453 4.1086546 13.0765663 5.6916143 20.0916279 4.3910184 5.016368-.9750917 9.479083-3.8103265 12.4939535-7.9376103 1.2213223.1800776 2.4135014.5207972 3.5455814 1.013312 0 5.0665597-.3376745 10.3020048 1.6883721 15.0307939 2.0260465 4.7287891 7.4288372 13.00417 5.0651162 19.5906975-.6415379 1.467669-1.4948041 2.833284-2.5325581 4.053248h-.1688372c-.5509588 1.141315-1.0028537 2.327877-1.3506977 3.546592l-.5065116 2.87105" fill="#f6a000"/><path d="m85.4316279 106.059984h-.1688372c-.5509588 1.141315-1.0028536 2.327877-1.3506977 3.546592-2.222045-.04675-4.4088531-.564826-6.4158139-1.519968 2.8311216.344348 5.6835345-.444842 7.9353488-2.195509" fill="#df9300"/><path d="m49.3004651 110.113232c1.3506977 6.417642 1.5195349 16.888532-.1688372 21.110665s-4.7274419 12.6664-6.4158139 17.226303c-2.7013954-.844426-5.2339535-2.195509-5.0651163-4.391018s1.5195349-3.715477 2.0260465-5.573216l4.052093-10.302004c1.8504503-4.909747 2.2030012-10.258293 1.0130233-15.368565-.6753489-3.039936-1.5195349-5.910986-2.363721-8.950922 1.0866814-2.651786 1.8244792-5.4335086 2.1948838-8.2753812-.1688373 1.013312.3376744 11.3153172 4.7274418 11.9908582 2.5117384.416396 5.0699235.473261 7.5976744.168885-2.0096609 1.956738-4.8329482 2.835344-7.5976744 2.364395" fill="#df9300"/><path d="m37.9883721 196.413633c-3.0390698-8.950922-6.5846512-11.146432-9.1172093-11.146432s-7.9353488 4.897675-8.2730233 8.106496c.0160313.381942-.1535615.748064-.455228.982761-.3016665.234696-.6981684.308995-1.0643068.199436-.6753489-.168885-1.3506977-.844426-1.1818605-1.519968.844186-4.391018 5.0651163-10.302005 10.9744186-10.639775 5.9093023-.337771 8.6106977 3.884362 11.6497674 13.173055.1651526.332339.1646963.722965-.0012322 1.054917s-.4780672.566693-.8429538.633999h-.5065116c-.5920985.006008-1.0973017-.427147-1.1818605-1.013375" fill="#010101"/><path d="m45.9237209 232.217322c2.1948838-.844427 8.4418605-4.053248 8.4418605-6.248757 0-2.19551-.5065116-29.386047-1.5195349-31.243786-1.0130232-1.857738-42.2093023-4.559903-43.7288372-4.559903-1.81130138.330292-3.57113217.898141-5.23395349 1.688853l37.14418609 17.057418z" fill="#2d2e2f"/><path d="m47.2744186 230.359583c.0076942.645828-.2692908 1.262282-.7572315 1.685285-.4879407.423002-1.1373311.609635-1.7753266.510224l-42.37813957-7.599839c-.52326097.002167-1.02315796-.216566-1.37674132-.602403-.35358336-.385838-.52804206-.902974-.48046798-1.424221l2.36372093-29.554932c0-1.119274.90709192-2.026624 2.02604651-2.026624l41.02744183 3.884362c1.1818605.168886 2.7013954 1.519968 2.5325582 2.871051z" fill="#030204"/><path d="m22.624186 217.186528c0 1.182197-.844186 2.026624-1.688372 1.857738l-13.33813958-2.195509c-.84456453-.400371-1.37398471-1.260924-1.35069768-2.195509l.84418605-9.288693c0-1.182197.67534884-1.857739 1.51953488-1.688853l13.16930233 1.857738c.844186 0 1.5195349 1.013312 1.5195349 2.195509z" fill="#2d2e2f"/><path d="m42.3781395 220.395349c0 1.182197-.844186 2.026624-1.6883721 1.857738l-14.1823255-2.364394c-.9443587-.304204-1.5672955-1.204258-1.5195349-2.195509l.6753488-9.626464c0-1.182197.6753489-2.026624 1.6883721-1.857738l14.0134884 2.026623c.9707029.368736 1.5871733 1.327964 1.5195349 2.364395z" fill="#2d2e2f"/><path d="m34.4427907 198.609142c-3.0390698-8.950922-6.5846512-11.315317-9.1172093-11.315317s-7.7665116 5.06656-8.1041861 8.275381c-.0790837.364508-.3052952.680096-.6250426.871999s-.7045809.243046-1.0633294.141313c-.3518442-.035255-.6694228-.226244-.8655676-.520545s-.2502466-.660991-.1474557-.999423c.6753488-4.391018 4.8962791-10.302005 10.8055814-10.47089s8.7795349 3.884362 11.8186046 13.173055c.1017044.358851.0505759.743794-.1412726 1.063633-.1918485.319838-.507347.546114-.8717506.625221h-.3376744c-.5859012.042266-1.1319358-.299103-1.3506977-.844427" fill="#010101"/><path d="m30.7283721 186.280513c.0196197-.339068-.1318853-.66542-.4035167-.869202s-.6272614-.257889-.947181-.14411l-1.0130232.506656h-.6753489l1.5195349-.675541c.3389516-.214615.4801033-.638191.3376744-1.013312h-.1688372c.7684751-.687524 1.3494829-1.559284 1.6883721-2.53328 1.0130233-2.026624.1688372-4.053248-.5065116-6.079872-.6753489-2.026623-.6753489-3.039935-2.1948837-3.208821-.5500629-.169318-1.1383092-.169318-1.6883721 0 .1688372-1.182197-1.5195349-1.182197-1.6883721 0-.0353261.412154-.1499886.813588-.3376744 1.182198l-.3376745.506656v.506655l-.5065116 1.013312c-.6641345 1.422642-1.2282933 2.889872-1.6883721 4.391019-.8782253 1.769257-.8148755 3.860397.1688372 5.573216.7790849 1.652731 1.9358009 3.099039 3.3767442 4.222133 1.8572093.844426 3.5455814-.844427 5.2339535-1.519968s.6753488-1.688853 0-1.688853" fill="#866552"/><path d="m179.136279 164.663192.506512-2.026624c-2.922056.997231-6.109761.876906-8.948372-.337771v1.519968h-.168838l-4.22093 15.030794 1.688372 9.626463 3.376744 4.559904c.611383.216465 1.289415.127075 1.823849-.240453s.86067-.968769.877547-1.617285l1.857209-13.679712s1.688372-.506656 1.857209 1.519968c.168838 2.026624 1.013024 5.404331 3.545582 5.404331v-10.13312z" fill="#f9c5af"/><path d="m243.463256 151.827907c-.168837 0-55.885116.337771-56.222791.168885l-.675349 29.386047 2.363721 49.821171 6.415814 71.438492h12.156279l2.363721-70.256295 3.714419-52.185565h2.701395l5.571628 50.496712 10.805581 72.114033h11.818605l-1.18186-72.282919 1.18186-51.510024z" fill="#de5d3f"/><path d="m243.463256 151.827907h-13.844651c.506511.675541-43.56 11.484202-42.546977 11.653087 16.714884 2.53328 49.806977 1.857739 50.144651 8.275381.337674 6.417643-1.519535 57.08324-.844186 71.607378s1.857209 54.54996 2.363721 59.278749h5.740465l-1.18186-72.282919 1.18186-51.510024z" fill="#d52e1e"/><path d="m202.435814 278.829671c.168837 7.93761.168837 15.875221-.337674 23.812831h5.40279l2.363721-70.256295 3.714419-52.185565s-8.104186 34.28372-9.11721 47.28789c-1.013023 17.057418-2.026046 34.283721-2.026046 51.341139z" fill="#d52e1e"/><path d="m240.930698 124.806255 1.013023-33.4392943-1.688372-7.9376103-.675349 8.4442663-2.363721 32.5948673 2.363721 27.190538 3.883256.168885-.337675-6.417642z" fill="#010101" opacity=".1"/><path d="m232.657674 302.642502-7.766511 5.40433c-7.091163.675542-7.597675 8.275381-7.597675 8.275381h29.377675c.368822-4.669716-.38372-9.359969-2.194884-13.679711z" fill="#e6ebee"/><path d="m224.891163 316.322213h6.415814c.21065-.630045.556388-1.20644 1.013023-1.688853 3.679265-3.799389 8.271829-6.590603 13.33814-8.106496-.039531-.284568-.095909-.566539-.168838-.844426-7.935349 1.351082-15.533023 3.208821-20.598139 10.639775z" fill="#182e38"/><path d="m195.344651 302.642502-14.351163 5.40433c-7.091162.675542-7.428837 8.275381-7.428837 8.275381h35.286977c.527069-4.604101.066598-9.2677-1.350698-13.679711z" fill="#e6ebee"/><path d="m185.552093 316.322213h7.428837c.18174-.456522.471407-.862171.844186-1.182197 4.058662-3.765975 8.820949-6.693033 14.013489-8.613152-8.441861 1.519968-17.052558 4.053248-22.286512 9.795349z" fill="#182e38"/><path d="m217.293488 316.322213h29.377675c0-1.013312.168837-2.026624.168837-3.039936h-28.871163c-.300838.994983-.526588 2.011149-.675349 3.039936z" fill="#2f5a71"/><path d="m174.24 313.282277c-.397686.967088-.626132 1.995388-.675349 3.039936h35.286977c0-1.013312.168837-2.026624.168837-3.039936z" fill="#2f5a71"/><path d="m263.217209 113.997594-8.44186-47.2878907c-1.775938-4.4465433-5.628726-7.7318226-10.29907-8.7820369l-28.026977-10.1331195h-1.013023l-27.858139 10.1331195c-4.734169.9998725-8.659372 4.2929165-10.467907 8.7820369l-3.03907 50.8344827-4.22093 47.287891 9.961395 2.026624 7.597674-43.403529s1.013024-22.123977 1.013024-26.0083396l.506511 27.0216516-1.519535 20.60401-.337674 18.4085c18.909767-.33777 37.988372-.168885 56.898139-.168885l-.844186-18.239615-2.194883-20.266239v-1.351083l15.533023 2.19551c1.992601.254559 3.995072-.391381 5.463606-1.762403 1.468534-1.371023 2.250693-3.324811 2.134068-5.330781zm-21.611162-6.248757.506511-16.0441056 2.363721 15.8752206z" fill="#182e38"/><path d="m263.217209 113.997594-8.44186-47.2878907c-1.038651-2.674418-2.863585-4.9709563-5.233954-6.5865277 3.545582 6.4176424 4.727442 17.0574178 4.896279 18.2396151 1.519535 8.6131516 2.026047 17.0574178 3.545582 25.8394543.844186 4.053248 2.363721 10.13312-.675349 13.848597s-34.611628 1.013312-43.391163-.168885c-4.22093-.506656.506512-8.613152.506512-8.613152h6.584651l20.59814-1.519968s.337674-14.0174817.506511-16.0441056c-.506511 4.2221331-2.870232 9.4575786-6.584651 11.8219726-3.714419 2.364395-10.467907 2.871051-15.70186 2.702165-10.467907-.506656-20.766977.675542-31.234884 1.182198l-.844186 16.550761 12.493953.844427c.627927.09628 1.268166-.064317 1.776374-.445581.508209-.381265.841604-.951103.925022-1.581043.337674-1.351082-.168838-2.702165 1.688372-2.87105 10.467907-.506656 22.117674 3.884362 31.403721 8.106495l5.571628 3.039936-.675349-6.248757v-1.351083l15.533023 2.19551c1.992601.254559 3.995072-.391381 5.463606-1.762403 1.468534-1.371023 2.250693-3.324811 2.134068-5.330781z" fill="#010101" opacity=".14"/><path d="m193.487442 97.1090565h-34.949302c-1.85721 0-2.194884.6755465-2.194884 2.0266291l4.22093 22.6306334c0 1.519968 1.181861 2.195509 2.701395 2.195509h34.611628c1.519535 0 2.701396-.675541 2.701396-2.026624l-4.389768-22.2928624c-.089273-1.4260333-1.272978-2.5360731-2.701395-2.5332851z" fill="#9abccc"/><path d="m209.020465 106.56664-9.454884-3.546592h-2.870232l2.532558 13.173055 4.896279 1.688854c2.044184.467761 4.186464.229662 6.07814-.675542l3.714418.675542-.675349-8.275381z" fill="#f9c5af"/><path d="m185.383256 106.735525 1.857209 5.910987c.561578 1.539234 1.811191 2.726705 3.376744 3.208821l9.961396 2.53328 6.922325-.337771 2.026047-.675541 4.727442.675541 1.18186-8.782037-13.169302-3.546592z" fill="#f9c5af"/><path d="m195.006977 16.3818765 2.026046 17.2263031c.463419 3.7430965 2.397903 7.1475156 5.375952 9.4609151 2.97805 2.3133995 6.754483 3.3453186 10.494746 2.8677136 8.104186-.8444266 14.013488-16.0441058 14.013488-21.2795509l-1.350697-11.8219727z" fill="#f9c5af"/><path d="m206.150233 35.2970329-.506512 17.9018444c.844186 3.0399359 4.896279 9.7953488 6.584651 13.3419407.664453-.17161 1.361593-.17161 2.026047 0 2.701395-4.0532478 9.623721-12.3286287 9.623721-14.3552526l-1.688373-18.0707298z" fill="#f9c5af"/><path d="m205.812558 47.1190056v3.0399359c3.376744 2.5332798 9.792558.1688853 12.831628-2.0266239 1.8305-1.5363359 3.324836-3.433533 4.389767-5.5732158l-.675348-7.4309542c-2.701396 6.0798716-10.467907 9.9642341-16.546047 11.990858z" fill="#d8ac99"/><path d="m209.864651 1.51996792-18.74093 3.54659182c-3.207907 9.62646356 3.883256 11.31531676 3.883256 11.31531676l18.403256-2.0266239c1.182428-.2521823 2.415666.0369493 3.36292.7884334.947253.751484 1.509561 1.8868128 1.533359 3.0959291l.844186 4.7287891h2.363721s.506511-2.0266239 1.857209-2.1955093c1.350698-.1688853 1.857209-.1688853 2.194884 2.7021652.844186 7.768725-3.03907 7.4309543-3.03907 7.4309543l-.506512 5.9109864.675349 2.3643945c2.396735-4.7736471 3.993784-9.908483 4.727442-15.1996792l-1.350698-10.9775461c-1.519535-12.83528467-16.208372-11.48420208-16.208372-11.48420208z" fill="#764131"/><path d="m205.643721 45.0923817v1.6888533c4.602454 1.5661455 9.686507-.0832065 12.493953-4.0532478-3.510151 2.8223468-8.195675 3.7090498-12.493953 2.3643945z" fill="#010101" opacity=".1"/><path d="m221.345581 20.4351243h-2.363721c1.013024 16.5507618-5.40279 16.8885325-13.338139 17.9018444-7.935349 1.013312-8.779535-6.5865276-8.779535-6.5865276s0 18.0707297 10.636744 17.5640737c16.37721-1.0133119 15.195349-18.5773857 15.195349-18.5773857z" fill="#764131"/><path d="m212.397209 38.505854c-.125344-1.3795675-.809923-2.6476372-1.894421-3.5091015s-2.474327-1.2411884-3.846044-1.0508022l-3.714418.506656c-1.379175.1253798-2.646883.8101541-3.508102 1.894961s-1.240835 2.4750322-1.050503 3.84714v1.3510826c.125344 1.3795675.809923 2.6476373 1.894421 3.5091016 1.084498.8614642 2.474327 1.2411884 3.846044 1.0508022l3.714419-.506656c1.379174-.1253798 2.646883-.8101542 3.508101-1.8949611.861219-1.0848069 1.240835-2.4750322 1.050503-3.84714z" fill="#764131"/><path d="m201.422791 39.3502807c.168837 2.3643945 1.857209 2.0266239 3.883256 1.8577385 2.026046-.1688853 3.714418-.5066559 3.376744-2.7021652z" fill="#f9c5af"/><path d="m182.68186 106.56664c-.772674.086397-1.35551.742274-1.350727 1.519968.085601.679566.666008 1.187567 1.350727 1.182197l15.533024.337771-.337675-4.222133z" fill="#f9c5af"/><path d="m205.812558 49.3145148h-1.013023l-3.376744 2.8710506c0 4.2221331 2.701395 10.9775461 2.701395 10.9775461l5.402791-6.9242983c-4.727442-2.8710506-3.714419-6.9242984-3.714419-6.9242984z" fill="#f8f9fa"/><path d="m206.150233 60.2920609c.296242 3.2574923 2.830912 5.8633119 6.078139 6.2487571l-2.701395-10.4708902z" fill="#d5dde2"/><path d="m218.306512 55.7321572 5.065116 5.9109863c1.707807-2.8682698 3.068081-5.9297595 4.052093-9.1198075l-3.883256-4.5599038s-1.519535 5.7421011-5.233953 7.768725z" fill="#f8f9fa"/><path d="m214.254419 66.540818c1.803751-.5125488 3.513784-1.3107916 5.065116-2.3643946 2.870232-2.8710505 2.870232-4.0532478 2.870232-4.0532478l-3.883255-4.3910184z" fill="#d5dde2"/><path d="m157.187442 195.738091h8.948372v113.338941h-8.948372z" fill="#673328"/><path d="m240.930698 194.724779h-158.2004654c-2.144663 0-3.8832559-1.739088-3.8832559-3.884362 0-2.145274 1.7385929-3.884362 3.8832559-3.884362h158.2004654c1.044056-.048655 2.060292.344941 2.799352 1.084212s1.132545 1.755796 1.083903 2.80015c.048642 1.044354-.344843 2.060879-1.083903 2.80015s-1.755296 1.132867-2.799352 1.084212z" fill="#673328"/><path d="m240.930698 194.724779c-51.664186 3.884363-104.341396 3.208822-158.2004654 0z" fill="#673328"/><path d="m208.176279 316.322213h-93.19814c-.001066-3.945691 3.147663-7.170309 7.091163-7.262069h78.846977c4.009587 0 7.26 3.251339 7.26 7.262069z" fill="#673328"/><path d="m175.759535 150.814595h-62.30093c-.880256-.111439-1.762551.190611-2.389951.818189-.6274.627579-.929364 1.510126-.817956 2.390632l4.558604 32.763753h59.093024l4.558604-32.763753c.675349-1.351082-1.350697-3.208821-2.701395-3.208821z" fill="#cfd6e0"/><ellipse cx="145.031163" cy="169.05421" fill="#adb4bb" rx="3.207907" ry="2.026624"/><path d="m179.811628 161.961026v11.990859l66.184186.506655v-11.990858zm9.961395 8.950923c-1.585185 0-2.870232-1.285413-2.870232-2.871051 0-1.585637 1.285047-2.87105 2.870232-2.87105 1.585186 0 2.870233 1.285413 2.870233 2.87105 0 .76145-.302399 1.491713-.840672 2.030139-.538273.538427-1.268328.840912-2.029561.840912z" fill="#454444"/><ellipse cx="189.773023" cy="168.209783" fill="#fff" rx="3.376744" ry="3.377707"/><path d="m184.201395 174.965196v11.990859l66.015349.675541v-11.990858zm9.961396 8.950923c-1.549096-.08394-2.786317-1.321513-2.870233-2.871051.083916-1.549537 1.321137-2.787111 2.870233-2.87105 1.585185 0 2.870232 1.285413 2.870232 2.87105.050195.775756-.236046 1.535557-.78558 2.085247-.549533.54969-1.309118.836013-2.084652.785804z" fill="#454444"/><ellipse cx="194.162791" cy="181.213953" fill="#fff" rx="3.376744" ry="3.377707"/><path d="m266.593953 130.379471c3.172775-4.262751 6.672662-8.271829 10.467907-11.990858 4.220931-4.222133 4.89628-11.315317 5.909303-16.719647 1.013023-5.4043309 8.779535-32.2570975 17.390232-26.0083405.883189.7594337 1.378983 1.8752876 1.350698 3.0399358-.168837 4.7287891-2.701395 9.9642342-4.727442 14.1863673-.155909.3482657-.470287.5998396-.844186.6755413-1.013023 5.7421011-1.519535 10.6397751-3.545581 15.8752201-2.026047 5.235446-4.558605 8.275381-6.246977 12.159744-1.688372 3.884362-5.740465 8.106495-9.286047 11.484202l-2.194883 2.026624c-2.870233 2.87105-5.909303 5.573216-8.948372 8.275381-3.03907 2.702165-7.428838 8.106495-8.948372 4.222133-.337675-1.182197-.168838-1.182197.337674-2.53328 1.857209-5.40433 5.909302-10.302005 9.286046-14.693023" fill="#f7ae83"/><path d="m249.372558 151.321251c0-.168885 0-.168885-.168837-.337771-.381262-.568791-.666459-1.196404-.844186-1.857738-.027749-.624029.029046-1.248945.168837-1.857739-.015682-.184913.045375-.368137.168837-.506656l2.701396 1.351083.844186.506656c.188356.307584.303861.654198.337674 1.013312l-.506512.675541-1.519534 1.688853h-.844186c-.174471-.188492-.291607-.422829-.337675-.675541" fill="#f19d81"/><path d="m252.580465 144.228067c-1.321138.306029-2.541828.945621-3.545581 1.857739-.421681.243501-.679708.695176-.675349 1.182197-.168837 1.013312.675349 1.351083 1.350698 1.688853.571931.279734.908895.886444.844186 1.519968-.046068.252712-.163204.48705-.337675.675542-2.194884 2.195509-3.207907 3.039936-5.402791 5.40433.693621.333604 1.501263.333604 2.194884 0 .633372-.354226 1.203852-.81074 1.688372-1.351083l4.052093-3.884362c.675349-.675541 1.85721-1.519968 2.532558-.844427.675349.675542-1.519534 1.857739-2.701395 2.364395-1.18186.506656-.506512 1.013312 0 1.013312 1.552346.288767 3.156636.051027 4.558605-.675541 1.758605-1.047369 3.032803-2.746785 3.545581-4.72879.168837-.675541.168837-1.351082.337675-2.026623.168837-.675542.168837-.506656 0-.844427-.168838-.337771-.168838-.337771-.506512-.506656-2.347201-1.564542-5.311619-1.879996-7.935349-.844427" fill="#f7b089"/><path d="m291.919535 77.8561347c.337674-.506656-6.415814 11.6530874-8.273023 19.0840417-1.85721 7.4309546-3.714419 17.5640736-7.091163 21.1106656s-9.454884 10.13312-9.454884 10.13312l7.091163 8.782036c3.710508-3.560822 7.205984-7.339267 10.467907-11.315316 3.619865-4.869906 6.310043-10.366305 7.935349-16.212992z" fill="#26262b"/><path d="m314.543721 169.560866c-.456776-2.737732-.738742-5.501789-.844186-8.275381-1.612157-.089726-2.872726-1.424827-2.870233-3.039936v-5.573215c-.73721.520147-1.651846.723586-2.53995.564951-.888103-.158635-1.675819-.666152-2.187492-1.409378-.491426-1.073918-.832317-2.210545-1.013023-3.377707-.960548.448663-2.080664.393667-2.992668-.146934s-1.498114-1.49699-1.565936-2.555231c-.033187-.90409.023369-1.809244.168837-2.702165-4.896279 9.626464-.675349 20.772895-5.065117 30.568244-.506511 5.235445-3.545581 10.302005-4.052093 15.53745-.337674 2.364394-2.194883 5.910986-2.194883 8.444266-1.350698 10.133119-4.22093 19.421812-4.727442 29.723817-.506512 13.173055-.337675 26.346111-1.013023 39.519166-.168838 1.688853.506511 25.839455-2.532559 35.803689h.337675c3.169458.82646 6.537071-.145244 8.779535-2.53328 2.026046-9.457578 4.389767-18.915156 6.415814-28.54162 1.103605-4.963059 1.948928-9.980073 2.532558-15.030794.675349-5.235445.844186-10.302004 1.350698-15.53745.228977-4.986236.793041-9.951415 1.688372-14.861908.97956-4.73725 2.219582-9.416851 3.714418-14.017482 2.701396-8.782037 5.740465-17.732959 6.584651-26.852767.337675-4.053248.506512-8.275381.844186-12.497514l2.363721-.33777c.63472-.105726 1.222985-.399942 1.688372-.844427-1.37726.110058-2.615561-.837148-2.870232-2.195509" fill="#e6b289"/><path d="m290.062326 295.042662c-1.688373 4.391019-3.03907 8.950923-5.065117 13.341941h.337675c-.506512 1.519968-1.013024 3.039936-1.688372 4.559904l-.675349 1.013312c0 .168885-.168837.33777-.168837.506656h-.168838c-1.519535 0-2.870232 2.87105-1.18186 3.715477s5.571628-5.06656 6.415814-7.262069 4.22093-7.93761 4.558605-11.990858c.153537-1.716316-.794576-3.342117-2.363721-4.053248" fill="#bfc3c6"/><path d="m291.075349 295.042662c.109636-.679211.051676-1.374933-.168837-2.026624-2.194884-1.519967-4.896279-1.519967-7.597675-1.519967h-.844186c.111298 3.513294-.958806 6.962388-3.03907 9.795348-3.039069 3.377707-5.571628 5.742101-6.922325 10.302005.168837.337771.168837.675542.337674 1.013312.350314 1.466323 1.297027 2.719621 2.611505 3.457221s2.87722.892446 4.310821.427142l.844186-.506656c.882262-.244122 1.655895-.779867 2.194884-1.519968.733122-.973572 1.40959-1.988564 2.026046-3.039936 1.105815-1.239029 2.068625-2.598678 2.870233-4.053248.675348-1.182197.844186-2.53328 1.519535-3.546592.675348-1.013312 2.026046-3.039936 2.701395-4.559903.673471-1.495177.33565-3.25235-.844186-4.391019" fill="#2f262e"/><path d="m271.827907 313.113392c-.562377.900053-.582456 2.037033-.052207 2.956391.530248.919359 1.524306 1.471093 2.584765 1.434628l4.052093 1.351082c1.288845.169934 2.594411.169934 3.883256 0 1.416891-1.698976 2.140464-3.870314 2.026046-6.079872.010482-.761969-.163288-1.515186-.506511-2.195509-.743044-.821804-1.668229-1.458051-2.701396-1.857738-1.590342-.900663-3.411014-1.311899-5.233953-1.182198-1.678188.044105-3.155409 1.118753-3.714419 2.702166-.195213.94547-.308193 1.906076-.337674 2.87105" fill="#bfc3c6"/><path d="m344.090233 156.725581c.046024-1.10394-.360486-2.178829-1.125446-2.97589-.76496-.79706-1.822063-1.247202-2.926647-1.246243-1.568057-.086793-3.034011.7797-3.714419 2.195509h-15.870698c.506512 0 .844186.844427 1.013024 2.702166-2.070442-.352745-4.085177.870835-4.727442 2.87105-1.688372 4.053248-1.350698 8.613152-.844186 12.6664.506511 4.053247 1.519534 8.27538 1.857209 12.159743 1.350698 10.977546 3.376744 21.955092 4.896279 32.932638.506512 3.039936.844186 6.079872 1.18186 9.288693.337675 22.799519 2.026047 45.767923 2.026047 68.567442.337674.844427.506512 1.688853.844186 2.53328.316811 1.121024.77046 2.198745 1.350698 3.208821 1.922336 1.863706 4.627415 2.681754 7.26 2.195509h.337674c-.844186.337771 0-23.981716.337675-26.34611 2.026046-11.653088 5.065116-23.13729 4.389767-34.959263-.675349-11.821972 1.519535-27.190537 3.376744-40.532478 1.857209-13.34194.844186-29.554931.337675-44.923496" fill="#e6b289"/><path d="m328.219535 295.042662c1.350698 4.559904 2.363721 9.119808 3.883256 13.679712h-.337675c.506512 1.519968.844186 3.208821 1.350698 4.559903l.506512 1.182198c0 .168885.168837.33777.168837.506656.168837 0 .168837 0 .168837.168885 1.519535.168885 2.532558 3.039936.844186 3.884363-1.688372.844426-5.065116-5.573216-5.740465-7.768725-.675349-2.19551-3.545581-8.444267-3.545581-12.328629.022398-1.725294 1.092045-3.26335 2.701395-3.884363" fill="#bfc3c6"/><path d="m327.375349 294.873777c-.141215-.694078-.02095-1.415875.337674-2.026624 2.461351-1.004059 5.168845-1.239561 7.766512-.675541h.337674c-.271385 3.562601.61706 7.117395 2.532558 10.133119 2.701396 3.546592 5.065117 6.248757 5.909303 10.977546-.168837.337771-.168837.675542-.337675 1.013312-.522743 1.395869-1.59864 2.513788-2.973231 3.089362-1.374592.575575-2.925806.557689-4.286769-.049426-.337674-.168885-.506511-.168885-.675348-.506656-.945571-.300866-1.772528-.891718-2.363721-1.688853-.496218-1.103353-1.060082-2.175-1.688373-3.208821-.949655-1.31046-1.742943-2.72745-2.36372-4.222133-.506512-1.351083-.675349-2.53328-1.181861-3.884363-.506512-1.351082-1.688372-3.039936-2.363721-4.728789-.475642-1.55143.06299-3.235136 1.350698-4.222133" fill="#2f262e"/><path d="m344.934419 314.63336c0 1.351083 0 2.702165-.844186 3.208821-.662844.470365-1.40701.813924-2.194884 1.013312l-4.22093.844427c-1.240053.113116-2.48974.056296-3.714419-.168886-1.232887-1.899212-1.769852-4.167045-1.519535-6.417642.077766-1.95493 1.596936-3.546896 3.545582-3.715477 1.700876-.73154 3.574229-.965776 5.40279-.675541 1.603008.306633 2.903621 1.477518 3.376744 3.039936 0 1.013311.168838 1.857738.168838 2.87105" fill="#bfc3c6"/><path d="m316.232093 17.7329591c-1.929429.7422559-4.106351.422029-5.740465-.8444266-2.532558-2.0266239-9.117209.3377706-11.649768 6.4176423-.771692 2.0477206-1.116433 4.2317083-1.013023 6.4176424.243464 4.9614933 2.214529 9.6814504 5.571628 13.3419406 8.610698 9.2886929 7.935349 21.2795509 14.182326 21.6173216 10.130232.3377706 19.585116-13.1730553 19.078604-27.1905373.675349-19.759583-13.675814-22.6306335-20.429302-19.759583z" fill="#a4a3a3"/><path d="m309.985116 57.4210104.337675 11.1464315-3.883256.3377706c-1.963068 4.3414959-3.490102 8.8673284-4.558605 13.510826-.844186 5.5732157 16.208372 8.2753809 22.117675-9.4575782 5.909302-17.7329591-5.402791-22.4617482-5.402791-22.4617482z" fill="#e6b289"/><path d="m318.595814 50.4967121-8.610698 6.9242983.337675 9.7953489h.168837l13.506977-7.768725v-3.0399358c-1.410667-2.2946357-3.244065-4.3004861-5.402791-5.9109864z" fill="#d89c73"/><path d="m298.335349 37.9991981c1.013023 3.2088211-2.026047 8.4442662-1.181861 11.4842021 1.652094 4.2068913 3.746162 8.2263843 6.246977 11.990858.951382 1.7085152 2.629664 2.889865 4.558605 3.2088212 1.174953-.0223071 2.329526-.3110327 3.376744-.8444266l13.000465-7.4309543-1.350698-22.2928629-20.598139-8.1064956-2.532558 2.7021652c-1.648862 1.8368055-2.391822 4.3140443-2.026047 6.755413z" fill="#e6b289"/><path d="m321.128372 45.767923c.31529-1.1503175 1.213731-2.0490145 2.363721-2.3643945.560388-.1935021 1.177387-.1317846 1.688372.1688853 2.026047 1.0133119-.168837 7.0931836-3.207907 7.5998396s-1.350698-3.3777065-.844186-5.4043304z" fill="#e6b289"/><path d="m291.075349 115.686447.337674.506656 3.376744-4.391018-.675348-1.351083c-2.219536-4.98991-2.695314-10.5818917-1.350698-15.8752201l1.519535-6.5865277-2.532558 5.4043304c-3.257905 7.0271904-3.501898 15.0812424-.675349 22.2928624z" fill="#010101" opacity=".05"/><path d="m322.141395 115.517562s-9.792558-1.857738-14.182325-2.195509c-4.389768-.337771-8.610698.844427-8.273023 1.351083 7.353947 1.776392 14.988822 2.063499 22.455348.844426z" fill="#010101" opacity=".05"/><path d="m308.127907 68.2296712s-5.909302 2.1955092-9.454884 3.2088212c-3.545581 1.0133119-8.44186 7.5998396-9.117209 12.3286287s.506512 33.9459499 0 44.4168409c-.506512 10.47089-7.597674 57.252125-9.117209 71.269607s-5.909303 91.02919-5.740465 92.718043c.168837 1.688853 13.000465 7.599839 26.676279 8.106495s32.585581-.844426 38.663721-2.87105c6.078139-2.026624 9.454883-9.964234 9.117209-14.693023-.337675-4.728789-3.207907-110.451003-4.389768-119.064154-1.18186-8.613152-3.714418-61.980914-3.207907-70.0874101.506512-8.1064956 1.013024-15.5374499 3.714419-18.746271 0 0-6.922326-2.5332799-12.325116-3.8843625l-7.26-1.8577386s-5.740465 2.3643946-6.415814 1.8577386-11.143256-2.7021652-11.143256-2.7021652z" fill="#010101"/><path d="m307.95907 231.54178c1.857209-28.203849 7.766511-135.6149155 9.286046-161.2854849l-9.117209-2.0266239s-5.909302 2.1955092-9.454884 3.2088212c-3.545581 1.0133119-8.44186 7.5998396-9.117209 12.3286287s.506512 33.9459499 0 44.4168409c-.506512 10.47089-7.597674 57.252125-9.117209 71.269607s-5.909303 91.02919-5.740465 92.718043c.168837 1.688853 13.000465 7.599839 26.676279 8.106495h1.18186c1.350698-14.355252 3.883256-45.092381 5.402791-68.736327z" fill="#131418"/><path d="m307.95907 69.4118685s-13.506977 46.9501205-12.493954 47.4567765c1.013024.506656 11.312093 0 11.312093 0l5.402791-23.6439457 2.363721-21.9550922z" fill="#f6f6f6"/><path d="m320.115349 71.4384924s-1.350698 48.6389736-1.350698 48.8078586l-12.831628-3.208821 3.207907-46.6123496z" fill="#fff"/><path d="m325.686977 158.58332c.675349 1.351083.675349 3.208821 2.363721 3.715477 1.442337.29346 2.942133.053424 4.22093-.675541 1.570463-.37048 2.843561-1.516595 3.376744-3.039936.52364-1.152903.974752-2.337408 1.350698-3.546592.140773-.460395.309934-.91162.506511-1.351082v-.506656l.506512-1.013312c.506512-.675542-.506512-1.519968-1.013023-.844427h-.168837c-.168838-.506656-.506512-.675541-.844186-1.013312-.337675-.337771-2.363721.168885-3.207907.675541-1.60027.648289-2.917186 1.845826-3.714419 3.377707-.364868.793087-.538366 1.660825-.506512 2.53328-.337674 0-.506511.506656-.506511.844426l.506511 1.013312c-.097691-.086619-.158176-.207623-.168837-.33777l-.506512-.844427c-.084571-.235546-.292401-.40502-.540091-.440414-.247691-.035395-.494647.069091-.641769.271529-.506512-.337771-1.350698.33777-1.013023 1.013312" fill="#f7ae83"/><path d="m349.493023 131.055012c-2.479178 2.31116-4.792356 4.794302-6.922325 7.430954-3.376745 3.884363-7.26 8.275381-9.286047 13.173056-.506511 1.182197-.675349 1.182197-.337674 2.364394.337674 1.182197 6.415814-2.195509 8.104186-3.377706l8.610697-7.093184 2.026047-1.688853c2.457505-2.035484 4.718584-4.297208 6.753488-6.755413z" fill="#f7ae83"/><path d="m345.272093 74.8161989c1.600315.6214176 3.128739 1.4141596 4.558605 2.3643945.337674.506656 12.66279 51.0033686 11.987442 54.0433036-.675349 3.039936-11.649768 13.00417-11.649768 13.00417l-6.246977-7.768725 6.07814-8.27538s-11.312093-15.030794-9.454884-29.7238177c1.857209-14.6930232 2.026047-21.1106656 4.727442-23.6439454z" fill="#26262b"/><path d="m320.115349 71.4384924c.085614-2.0606686.425875-4.1028158 1.013023-6.0798717.76266-1.7735431 2.670048-2.7628409 4.558605-2.3643946 1.350697.1688854 1.857209 6.5865277 1.857209 6.5865277z" fill="#1e1e23"/><path d="m307.95907 69.4118685s0-3.3777065 2.194883-4.3910185v3.5465919z" fill="#010101"/><path d="m320.284186 68.9052125s-9.961395.3377707-11.987442-1.6888532c-2.026046-2.0266239-.168837.8444266-.168837 1.0133119-.116863.3830046-.173815.781782-.168837 1.1821973 0 0 .675349 2.3643945 12.156279 2.0266239z" fill="#ededed"/><path d="m264.905581 127.846191 9.623721 10.808661 9.792558-10.808661-10.974418-7.59984z" fill="#2b2b31"/><path d="m339.025116 138.823737s8.610698 11.315317 8.948372 11.315317l7.935349-10.977546s-8.273023-8.275381-8.44186-8.106496z" fill="#2b2b31"/><path d="m347.129302 103.526704-10.299069-2.53328-13.33814 56.407699 10.29907 2.53328zm-9.623721 6.755413c.333104-1.347528 1.688308-2.175944 3.03907-1.857738.660639.068815 1.254589.433177 1.615422.990987.360833.557811.449732 1.249062.241787 1.880063-.333103 1.347529-1.688307 2.175944-3.039069 1.857739-.660639-.068816-1.254589-.433178-1.615422-.990988s-.449733-1.249062-.241788-1.880063z" fill="#454444"/><ellipse cx="339.127173" cy="111.820677" fill="#fff" rx="2.870285" ry="2.870999" transform="matrix(.96770917 -.25206936 .25206936 .96770917 -17.235869 89.094351)"/><path d="m333.96 155.205613c-2.363721 1.013312-1.857209 2.364395-1.857209 2.364395s4.22093-.337771 4.727442-1.857739c.506511-1.519967-2.870233-.506656-2.870233-.506656z" fill="#f7ae83"/><path d="m328.388372 158.58332c-.334702-.743234-.507368-1.549235-.506512-2.364395 0-1.351082-.844186-.844426-1.013023 0-.193119.54638-.193119 1.142474 0 1.688854 0 0 .168837-1.857739-.337674-2.026624-.506512-.168886-1.350698 1.182197-.844186 2.702165.506511 1.519968 2.701395 0 2.701395 0z" fill="#f7ae83"/></g></g></svg>