<svg height="24" viewBox="0 0 24 24" width="24" xmlns="http://www.w3.org/2000/svg"><path d="m15.5555555.43378164c-.1303704-.15363096-.2903704-.26885422-.48-.34566976-.1896296-.07681555-.3851852-.1034055-.5866667-.07976987-3.8103704 0-8.57333329 0-11.43111106 0-.45037039 0-.80592595.14181321-1.06666666.42543963-.15407404.12999546-.27259256.28953533-.35555556.47861963-.082963.18908431-.11851852.38407751-.10666656.58497963.04740736.47861966.10666656 1.07689424.14222208 1.43585898 0 .38998636.1540741.74451945.46222229 1.06359926.3081482.27180867.66370375.4254397 1.06666667.46089309h5.26222229c-2 2.0164069-6 6.04922067-8 8.06562767-.14222231.1299954-.25481494.2895353-.33777788.4786196s-.12444441.3840775-.12444441.5849796.04148147.3958953.12444441.5849796.19555557.3486242.33777788.4786197c.30222222.2895353.67999999.6514545.90666665.8686061.13037036.1536309.29037035.2688542.47999997.3456697.18962961.0768156.38518518.1211322.5866667.13295.2014814.0118177.39703694-.0236356.58666661-.10636.18962968-.0827244.3496297-.206811.48000006-.3722597 2.69629626-2.6885426 6.0666666-6.04922077 8.08888882-8.06562767.0177778 1.36052068.0533334 4.08156207.0711112 5.44208277 0 .2009021.0414815.3958953.1244444.5849796s.1955555.3486242.3377777.4786196c.32.2718088.6755556.4254398 1.0666667.4608931h1.2799999c.2014816 0 .3940742-.0413622.5777779-.1240866s.3466666-.1890844.4888888-.3190798c.1422223-.1418132.254815-.307262.3377779-.4963463s.1244444-.3840775.1244444-.5849796c0-3.79941291 0-8.54867903 0-11.3982387 0-.44907526-.1481482-.80360835-.4444445-1.06359926z" fill="#00586f" fill-rule="evenodd" transform="translate(2 4)"/></svg>