<svg height="48" viewBox="0 0 48 48" width="48" xmlns="http://www.w3.org/2000/svg"><path d="m29.1666666.81334057c-.2444445-.28805805-.5444445-.50410166-.9-.6481308-.3555555-.14402915-.7222223-.19388531-1.1000001-.1495685-7.1444445 0-16.0749999 0-21.43333324 0-.84444448 0-1.51111115.26589977-1.99999999.7976993-.28888882.24374149-.51111105.54287875-.66666667.89741181-.15555563.35453308-.22222223.72014533-.1999998 1.0968368.0888888.89741187.1999998 2.0191767.2666664 2.69223559 0 .73122442.28888894 1.39597397.8666668 1.99424861.57777787.50964126 1.24444452.79769944 2 .86417455h9.8666668c-3.75 3.78076297-11.25000001 11.34228877-15.00000001 15.12305187-.26666683.2437414-.47777801.5428787-.63333352.8974117-.15555551.3545331-.23333327.7201454-.23333327 1.0968368s.07777776.7423037.23333327 1.0968367c.15555551.3545331.36666669.6536704.63333352.897412.56666667.5428787 1.27499998 1.2214772 1.69999997 1.6286364.24444443.288058.54444441.5041016.89999995.6481307.35555551.1440293.72222221.2271229 1.10000006.2492813.37777762.0221581.74444426-.0443168 1.09999989-.199425.35555565-.1551083.65555569-.3877707.90000011-.697987 5.05555553-5.0410174 11.37499983-11.3422889 15.16666653-15.1230519.0333334 2.5509763.1000001 7.6529289.1333335 10.2039052 0 .3766915.0777778.7423037.2333333 1.0968368.1555554.354533.3666665.6536704.6333331.8974117.6.5096415 1.2666668.7976997 2.0000001.8641746h2.3999998c.377778 0 .7388891-.0775541 1.0833336-.2326624.3444444-.1551082.6499999-.3545332.9166665-.5982746.2666668-.2658998.4777781-.5761163.6333335-.9306493.1555555-.3545331.2333333-.7201453.2333333-1.0968368 0-7.1238992 0-16.02877314 0-21.37169752 0-.84201611-.2777779-1.50676565-.8333334-1.99424861z" fill="#fff" fill-rule="evenodd" transform="translate(5 9)"/></svg>