<?xml version="1.0" encoding="UTF-8"?>
<svg width="64px" height="64px" viewBox="0 0 64 64" version="1.1" xmlns="http://www.w3.org/2000/svg" xmlns:xlink="http://www.w3.org/1999/xlink">
    <title>1016 actueel</title>
    <defs>
        <filter id="filter-1">
            <feColorMatrix in="SourceGraphic" type="matrix" values="0 0 0 0 1.000000 0 0 0 0 1.000000 0 0 0 0 1.000000 0 0 0 1.000000 0"></feColorMatrix>
        </filter>
    </defs>
    <g id="1016-actueel" stroke="none" stroke-width="1" fill="none" fill-rule="evenodd">
        <g filter="url(#filter-1)">
            <g>
                <g id="Box">
                    <rect id="Rectangle" x="0" y="0" width="64" height="64"></rect>
                </g>
                <g id="Icon" transform="translate(12.000000, 7.000000)" fill="#000000" fill-rule="nonzero">
                    <g id="Group">
                        <rect id="Rectangle" x="8" y="8" width="24" height="5"></rect>
                        <rect id="Rectangle" x="8" y="34" width="24" height="3"></rect>
                        <rect id="Rectangle" x="8" y="39" width="18" height="3"></rect>
                        <rect id="Rectangle" x="8" y="17" width="10" height="3"></rect>
                        <rect id="Rectangle" x="8" y="22" width="10" height="3"></rect>
                        <rect id="Rectangle" x="8" y="27" width="10" height="3"></rect>
                        <rect id="Rectangle" x="21" y="17" width="11" height="13"></rect>
                        <path d="M38,0 L2,0 C0.8955,0 0,0.8955 0,2 L0,48 C0,49.1045 0.8955,50 2,50 L38,50 C39.1045,50 40,49.1045 40,48 L40,2 C40,0.8955 39.1045,0 38,0 Z M35,45 L5,45 L5,5 L35,5 L35,45 Z" id="Shape"></path>
                    </g>
                </g>
            </g>
        </g>
    </g>
</svg>