<?xml version="1.0" encoding="UTF-8"?>
<svg width="64px" height="64px" viewBox="0 0 64 64" version="1.1" xmlns="http://www.w3.org/2000/svg" xmlns:xlink="http://www.w3.org/1999/xlink">
    <title>2013 externe link</title>
    <defs>
        <filter id="filter-1">
            <feColorMatrix in="SourceGraphic" type="matrix" values="0 0 0 0 1.000000 0 0 0 0 1.000000 0 0 0 0 1.000000 0 0 0 1.000000 0"></feColorMatrix>
        </filter>
    </defs>
    <g id="2013-externe-link" stroke="none" stroke-width="1" fill="none" fill-rule="evenodd">
        <g filter="url(#filter-1)">
            <g>
                <g id="_x36_4px_Boxes">
                    <rect id="Rectangle" x="0" y="0" width="64" height="64"></rect>
                </g>
                <g id="Production" transform="translate(9.000000, 9.000000)" fill="#000000" fill-rule="nonzero">
                    <path d="M44.8564,5.1172 C44.5137,3.0557 42.9453,1.4873 40.8828,1.1436 C34.9219,0.1499 24.9863,0.1499 23,0.1499 C21.0137,0.1499 11.0781,0.1499 5.1172,1.1436 C3.0547,1.4873 1.4863,3.0557 1.1436,5.1172 C0.1504,11.0781 0.1504,21.0132 0.1504,23 C0.1504,24.9868 0.1504,34.9219 1.1436,40.8828 C1.4863,42.9443 3.0547,44.5127 5.1172,44.8564 C11.0781,45.8501 21.0137,45.8501 23,45.8501 C24.9863,45.8501 34.9219,45.8501 40.8828,44.8564 C42.9453,44.5127 44.5137,42.9443 44.8564,40.8828 C45.8495,34.9219 45.8495,24.9868 45.8495,23 C45.8495,17.0361 45.8495,11.0781 44.8564,5.1172 Z M38.3926,10.4331 L36.2676,28.4951 C36.125,29.7056 35.1455,30.6455 33.9297,30.7363 C33.8652,30.7412 33.8018,30.7437 33.7373,30.7437 C32.5996,30.7437 31.5879,29.9829 31.2832,28.8696 L30.1237,24.6312 C30.1237,24.6312 32.7031,19.3672 32.9141,18.9375 C33.1076,18.5434 32.84,18.473 32.8391,18.4728 L20.2061,31.1055 C18.7627,32.5493 17.085,31.7324 15.6777,30.3237 C14.2676,28.915 13.4512,27.2363 14.8945,25.793 L24.0718,16.6156 L17.1299,14.7163 C15.9541,14.395 15.1719,13.2852 15.2627,12.0703 C15.3545,10.855 16.2939,9.8745 17.5039,9.7324 L35.5664,7.6074 C36.3428,7.5156 37.1143,7.7847 37.6641,8.3354 C38.2158,8.8862 38.4834,9.6592 38.3926,10.4331 Z" id="Shape"></path>
                </g>
            </g>
        </g>
    </g>
</svg>