<?xml version="1.0" encoding="UTF-8"?>
<svg width="64px" height="64px" viewBox="0 0 64 64" version="1.1" xmlns="http://www.w3.org/2000/svg" xmlns:xlink="http://www.w3.org/1999/xlink">
    <title>2051 electronische paraaf</title>
    <g id="2051-electronische-paraaf" stroke="none" stroke-width="1" fill="none" fill-rule="evenodd">
        <g>
            <g id="_x36_4px_Box">
                <rect id="Rectangle" x="0" y="0" width="64" height="64"></rect>
            </g>
            <g id="Icon" transform="translate(12.000000, 7.000000)" fill="#FFFFFF" fill-rule="nonzero">
                <g id="Group">
                    <path d="M38,0 L16.8286,0 C16.2979,0 15.7891,0.2109 15.4141,0.5859 L0.5859,15.4141 C0.2109,15.7891 0,16.2979 0,16.8286 L0,48 C0,49.0996 0.8999,50 2,50 L38,50 C39.1045,50 40,49.1045 40,48 L40,2 C40,0.8955 39.1045,0 38,0 Z M35,45 L5,45 L5,18.2918 L1.8516,17.3594 C1.5104,17.2504 1.6331,17 1.6331,17 L16,17 C16.5522,17 17,16.5522 17,16 L17,1.6341 C17,1.6341 17.2509,1.5245 17.3599,1.8651 L18.2915,5 L35,5 L35,45 Z" id="Shape"></path>
                    <path d="M10.5983,25.4075 C9.9795,25.9262 9.8306,26.8168 10.2445,27.5088 L17.2483,39.1974 C17.544,39.6907 18.0763,39.9935 18.6511,39.9953 C18.6535,39.9953 18.6546,39.9953 18.6571,39.9953 C19.2295,39.9953 19.7619,39.6966 20.06,39.2062 L30.7604,21.495 C31.2015,20.77 31.0171,19.8283 30.3357,19.3233 C29.6519,18.8182 28.6986,18.9157 28.1331,19.548 L18.5104,30.4323 L12.7285,25.4239 C12.1171,24.8953 11.2145,24.8881 10.5983,25.4075 Z" id="Path"></path>
                </g>
            </g>
        </g>
    </g>
</svg>