<?xml version="1.0" encoding="UTF-8"?>
<svg width="64px" height="64px" viewBox="0 0 64 64" version="1.1" xmlns="http://www.w3.org/2000/svg" xmlns:xlink="http://www.w3.org/1999/xlink">
    <title>3901 downloaden</title>
    <defs>
        <filter id="filter-1">
            <feColorMatrix in="SourceGraphic" type="matrix" values="0 0 0 0 1.000000 0 0 0 0 1.000000 0 0 0 0 1.000000 0 0 0 1.000000 0"></feColorMatrix>
        </filter>
    </defs>
    <g id="3901-downloaden" stroke="none" stroke-width="1" fill="none" fill-rule="evenodd">
        <g filter="url(#filter-1)" id="3901-downloaden_24px">
            <g transform="translate(1.000000, 1.000000)">
                <g id="_x32_4px_Boxes">
                    <rect id="Rectangle" x="0" y="0" width="61" height="61"></rect>
                </g>
                <g id="Production" transform="translate(8.000000, 4.000000)" fill="#000000" fill-rule="nonzero">
                    <g id="Group">
                        <path d="M38.3333333,38.1746032 L38.3333333,43.2645503 L7.66666667,43.2645503 L7.66666667,38.1746032 L0,38.1746032 L0,48.3544974 C0,49.7611042 1.1431,50.8994709 2.55555556,50.8994709 L43.4444444,50.8994709 C44.8569,50.8994709 46,49.7611042 46,48.3544974 L46,38.1746032 L38.3333333,38.1746032 Z" id="Path"></path>
                        <path d="M20.2946889,36.8412915 C20.9509556,37.660264 21.9468556,38.1374466 23,38.1374466 C24.0531444,38.1374466 25.0490444,37.660264 25.7053111,36.8412915 L40.4820444,18.4337524 C41.5377444,17.1213095 41.4879111,15.2426101 40.3647444,13.9861566 C39.2418333,12.7335206 37.375,12.461463 35.9426111,13.3550032 L28.1111111,18.225828 L28.1111111,3.61284444 C28.1111111,0.845440212 25.7101667,0.0216322751 23.0025556,0.0216322751 C20.2898333,0.0216322751 17.8888889,0.845440212 17.8888889,3.61284444 L17.8888889,18.225828 L10.0573889,13.3550032 C8.62244444,12.4640079 6.75816667,12.7360656 5.63525556,13.9861566 C4.51208889,15.2426101 4.46225556,17.1213095 5.51795556,18.4337524 L20.2946889,36.8412915 Z" id="Path"></path>
                    </g>
                </g>
            </g>
        </g>
    </g>
</svg>