<?xml version="1.0" encoding="UTF-8"?>
<svg width="64px" height="64px" viewBox="0 0 64 64" version="1.1" xmlns="http://www.w3.org/2000/svg" xmlns:xlink="http://www.w3.org/1999/xlink">
    <title>7034 intelligence</title>
    <defs>
        <filter id="filter-1">
            <feColorMatrix in="SourceGraphic" type="matrix" values="0 0 0 0 1.000000 0 0 0 0 1.000000 0 0 0 0 1.000000 0 0 0 1.000000 0"></feColorMatrix>
        </filter>
    </defs>
    <g id="7034-intelligence" stroke="none" stroke-width="1" fill="none" fill-rule="evenodd">
        <g filter="url(#filter-1)">
            <g>
                <g id="_x36_4px_Box">
                    <rect id="Rectangle" x="0" y="0" width="64" height="64"></rect>
                </g>
                <g id="Icon" transform="translate(1.000000, 7.000000)" fill="#000000" fill-rule="nonzero">
                    <g id="Group">
                        <path d="M38,46 L35.8691,46 C35.3791,45.992 33.5779,45.8373 33,44 C32.6119,42.767 32.2973,41.7294 32.0553,40.9152 C32.0553,40.9152 27.6529,40.2755 23.0781,39.3829 C22.7578,39.3204 22.7969,39.086 22.8338,39.0001 L34.7011,39.0001 C34.3949,38.7454 34.0948,38.4797 33.8076,38.1925 C32.0384,36.4233 30.9004,34.2684 30.3642,32.0001 L5,32.0001 L5,5 L45,5 L45,16.1683 C46.7514,16.4398 48.4567,17.0628 50,18.0514 L50,2 C50,0.8955 49.1045,0 48,0 L2,0 C0.8955,0 0,0.8955 0,2 L0,36.99 C0,38.0945 0.8955,38.99 2,38.99 L18.5,38.99 C18.5,38.99 17.9658,40.9312 17,44 C16.4221,45.8373 14.6209,45.992 14.1309,46 L12,46 C11.4473,46 11,46.4478 11,47 L11,49 L39,49 L39,47 C39,46.4478 38.5527,46 38,46 Z" id="Path"></path>
                        <path d="M11.6279,13.9839 L11.6279,8.0474 L10.8725,8.0474 C10.1889,8.0474 9.4692,8.1553 8.7377,8.3711 L8.7377,9.4263 C9.2895,9.3306 9.7089,9.2945 10.2729,9.2945 L10.2729,13.984 L11.6279,13.984 L11.6279,13.9839 Z" id="Path"></path>
                        <path d="M16.2598,7.939 C14.7124,7.939 13.4175,9.1626 13.4175,11.1294 C13.4175,13.1563 14.4966,14.0918 16.104,14.0918 C17.6269,14.0918 18.9463,12.8804 18.9463,10.9136 C18.9463,8.9707 17.8311,7.939 16.2598,7.939 Z M16.188,12.9404 C15.3364,12.9404 14.7608,12.4248 14.7608,11.0576 C14.7608,9.834 15.3604,9.0903 16.1758,9.0903 C17.0513,9.0903 17.603,9.6782 17.603,10.9375 C17.603,12.2207 16.9912,12.9404 16.188,12.9404 Z" id="Shape"></path>
                        <path d="M22.6196,13.9839 L22.6196,8.0474 L21.8642,8.0474 C21.1806,8.0474 20.4609,8.1553 19.7294,8.3711 L19.7294,9.4263 C20.2812,9.3306 20.7006,9.2945 21.2646,9.2945 L21.2646,13.984 L22.6196,13.984 L22.6196,13.9839 Z" id="Path"></path>
                        <path d="M27.2515,7.939 C25.7041,7.939 24.4092,9.1626 24.4092,11.1294 C24.4092,13.1563 25.4883,14.0918 27.0957,14.0918 C28.6186,14.0918 29.938,12.8804 29.938,10.9136 C29.938,8.9707 28.8228,7.939 27.2515,7.939 Z M27.1797,12.9404 C26.3281,12.9404 25.7525,12.4248 25.7525,11.0576 C25.7525,9.834 26.3521,9.0903 27.1675,9.0903 C28.043,9.0903 28.5947,9.6782 28.5947,10.9375 C28.5947,12.2207 27.9829,12.9404 27.1797,12.9404 Z" id="Shape"></path>
                        <path d="M33.6113,13.9839 L33.6113,8.0474 L32.856,8.0474 C32.1724,8.0474 31.4527,8.1553 30.7212,8.3711 L30.7212,9.4263 C31.273,9.3306 31.6924,9.2945 32.2564,9.2945 L32.2564,13.984 L33.6113,13.984 L33.6113,13.9839 Z" id="Path"></path>
                        <path d="M40.9297,10.9136 C40.9297,8.9707 39.8145,7.939 38.2432,7.939 C36.6958,7.939 35.4009,9.1626 35.4009,11.1294 C35.4009,13.1563 36.48,14.0918 38.0874,14.0918 C39.6104,14.0918 40.9297,12.8804 40.9297,10.9136 Z M36.7441,11.0576 C36.7441,9.834 37.3437,9.0903 38.1591,9.0903 C39.0346,9.0903 39.5863,9.6782 39.5863,10.9375 C39.5863,12.2207 38.9745,12.9404 38.1713,12.9404 C37.3198,12.9404 36.7441,12.4248 36.7441,11.0576 Z" id="Shape"></path>
                        <path d="M14.3506,18.9136 C14.3506,16.9707 13.2354,15.939 11.6641,15.939 C10.1167,15.939 8.8218,17.1626 8.8218,19.1294 C8.8218,21.1563 9.9009,22.0918 11.5083,22.0918 C13.0312,22.0918 14.3506,20.8804 14.3506,18.9136 Z M11.5923,20.9404 C10.7407,20.9404 10.1651,20.4248 10.1651,19.0576 C10.1651,17.834 10.7647,17.0903 11.5801,17.0903 C12.4556,17.0903 13.0073,17.6782 13.0073,18.9375 C13.0073,20.2207 12.3955,20.9404 11.5923,20.9404 Z" id="Shape"></path>
                        <path d="M18.0239,21.9839 L18.0239,16.0474 L17.2685,16.0474 C16.5849,16.0474 15.8652,16.1553 15.1337,16.3711 L15.1337,17.4263 C15.6855,17.3306 16.1049,17.2945 16.6689,17.2945 L16.6689,21.984 L18.0239,21.984 L18.0239,21.9839 Z" id="Path"></path>
                        <path d="M25.3423,18.9136 C25.3423,16.9707 24.2271,15.939 22.6558,15.939 C21.1084,15.939 19.8135,17.1626 19.8135,19.1294 C19.8135,21.1563 20.8926,22.0918 22.5,22.0918 C24.0229,22.0918 25.3423,20.8804 25.3423,18.9136 Z M22.584,20.9404 C21.7324,20.9404 21.1568,20.4248 21.1568,19.0576 C21.1568,17.834 21.7564,17.0903 22.5718,17.0903 C23.4473,17.0903 23.999,17.6782 23.999,18.9375 C23.999,20.2207 23.3872,20.9404 22.584,20.9404 Z" id="Shape"></path>
                        <path d="M29.0156,21.9839 L29.0156,16.0474 L28.2602,16.0474 C27.5766,16.0474 26.8569,16.1553 26.1254,16.3711 L26.1254,17.4263 C26.6772,17.3306 27.0966,17.2945 27.6606,17.2945 L27.6606,21.984 L29.0156,21.984 L29.0156,21.9839 Z" id="Path"></path>
                        <path d="M33.5635,17.0903 C34.3994,17.0903 34.9343,17.6335 34.9816,18.778 C35.3772,18.4669 35.7879,18.1864 36.209,17.9278 C35.8878,16.6307 34.924,15.9389 33.6475,15.9389 C32.1001,15.9389 30.8052,17.1625 30.8052,19.1293 C30.8052,20.5271 31.3267,21.3944 32.1724,21.8052 C32.4023,21.4599 32.6483,21.1222 32.9148,20.7954 C32.4421,20.5628 32.1484,20.0278 32.1484,19.0575 C32.1484,17.834 32.748,17.0903 33.5635,17.0903 Z" id="Path"></path>
                        <path d="M11.6279,29.9844 L11.6279,24.0474 L10.8725,24.0474 C10.1889,24.0474 9.4692,24.1553 8.7377,24.3711 L8.7377,25.4263 C9.2895,25.3306 9.7089,25.2945 10.2729,25.2945 L10.2729,29.9844 L11.6279,29.9844 Z" id="Path"></path>
                        <path d="M16.104,30.0918 C17.6269,30.0918 18.9463,28.8809 18.9463,26.9141 C18.9463,24.9707 17.8311,23.939 16.2598,23.939 C14.7124,23.939 13.4175,25.1626 13.4175,27.1299 C13.4175,29.1562 14.4966,30.0918 16.104,30.0918 Z M16.1758,25.0903 C17.0513,25.0903 17.603,25.6782 17.603,26.9375 C17.603,28.2207 16.9912,28.9404 16.188,28.9404 C15.3364,28.9404 14.7608,28.4248 14.7608,27.0576 C14.7607,25.834 15.3604,25.0903 16.1758,25.0903 Z" id="Shape"></path>
                        <path d="M22.6196,29.9844 L22.6196,24.0474 L21.8642,24.0474 C21.1806,24.0474 20.4609,24.1553 19.7294,24.3711 L19.7294,25.4263 C20.2812,25.3306 20.7006,25.2945 21.2646,25.2945 L21.2646,29.9844 L22.6196,29.9844 Z" id="Path"></path>
                        <path d="M27.0957,30.0918 C28.6186,30.0918 29.938,28.8809 29.938,26.9141 C29.938,24.9707 28.8228,23.939 27.2515,23.939 C25.7041,23.939 24.4092,25.1626 24.4092,27.1299 C24.4092,29.1562 25.4883,30.0918 27.0957,30.0918 Z M27.1675,25.0903 C28.043,25.0903 28.5947,25.6782 28.5947,26.9375 C28.5947,28.2207 27.9829,28.9404 27.1797,28.9404 C26.3281,28.9404 25.7525,28.4248 25.7525,27.0576 C25.7524,25.834 26.3521,25.0903 27.1675,25.0903 Z" id="Shape"></path>
                        <path d="M60.4099,42.339 L52.2461,34.9539 C54.9948,30.6937 54.5087,24.9524 50.7782,21.2218 C46.4824,16.926 39.5176,16.926 35.2218,21.2218 C30.9261,25.5176 30.9261,32.4824 35.2218,36.7781 C38.9523,40.5086 44.6936,40.9947 48.9539,38.246 L56.339,46.4099 C57.3717,47.5549 59.0237,47.3518 60.1878,46.1877 C61.3518,45.0236 61.555,43.3716 60.4099,42.339 Z M48.0205,34.0204 C45.2477,36.7932 40.7523,36.7932 37.9795,34.0204 C35.2069,31.2477 35.2069,26.7523 37.9795,23.9795 C40.7523,21.2068 45.2477,21.2068 48.0205,23.9795 C50.7932,26.7523 50.7932,31.2477 48.0205,34.0204 Z" id="Shape"></path>
                    </g>
                </g>
            </g>
        </g>
    </g>
</svg>