<svg height="75" viewBox="0 0 75 75" width="75" xmlns="http://www.w3.org/2000/svg"><g fill="#fff" transform="translate(13 8)"><path d="m13.8583333 21.7912813c.2314815.0331875.5287037.0497812.8601852.0497812 1.4870371 0 2.7601852-.361375 3.6185185-1.1680156.6620371-.6250313 1.025926-1.5469063 1.025926-2.632875 0-1.0859688-.4787037-2.0069219-1.1907408-2.5674219-.7425926-.5918437-1.8509259-.8886875-3.4037037-.8886875-1.5379629 0-2.6287037.0986406-3.4046296.2304688v10.9426562h2.4953704v-3.9659062zm0-5.2159688c.1814815-.0497812.5287037-.0986406 1.0416667-.0986406 1.2555556 0 1.9666667.6093594 1.9666667 1.6289531 0 1.13575-.825926 1.8105625-2.1657408 1.8105625-.3629629 0-.6268518-.0156719-.8425926-.0654531z"/><path d="m28.8055556 24.44075c1.074074-.9052812 1.8509259-2.3692187 1.8509259-4.4932187 0-1.9580625-.7268519-3.3233594-1.8842593-4.1788594-1.0740741-.8066406-2.4453703-1.1855313-4.5611111-1.1855313-1.2731481 0-2.4805555.0820469-3.4046296.2304688v10.8937969c.6268518.0820468 1.5527778.1650156 2.8583333.1650156 2.1805556 0 3.9666667-.4609375 5.1407408-1.4316719zm-5.4712963-7.8331719c.2138888-.0488593.5777777-.0986406 1.1398148-.0986406 2.1657407 0 3.5203703 1.2177969 3.5046296 3.5215625 0 2.6494688-1.4888889 3.9004531-3.7685185 3.8838594-.3148148 0-.6620371 0-.8759259-.0497813z"/><path d="m34.6796296 21.2980781h4v-2.0410312h-4v-2.5342344h4.2796297v-2.0567031h-6.8083334v11.0910781h2.5287037z"/><path d="m8.60463 35.425813h32.672222v3.6875h-32.672222z"/><path d="m8.60463 40.867641h32.672222v3.6875h-32.672222z"/><path d="m8.60463 46.310391h32.672222v3.6875h-32.672222z"/><path d="m49.537037 52.1974844v-52.1974844h-42.24166663c-3.77314815 0-6.83240741 3.045875-6.83240741 6.80251563v52.19748437h42.24166664c3.7731482 0 6.8324074-3.045875 6.8324074-6.8025156zm-45.37037033-45.39496877c0-1.71745313 1.4037037-3.11501563 3.1287037-3.11501563h38.53796293v48.5099844c0 1.7174531-1.4037037 3.1150156-3.1287037 3.1150156h-38.53796293z"/></g></svg>