<?xml version="1.0" encoding="UTF-8"?>
<svg width="64px" height="64px" viewBox="0 0 64 64" version="1.1" xmlns="http://www.w3.org/2000/svg" xmlns:xlink="http://www.w3.org/1999/xlink">
    <!-- Generator: Sketch 51.3 (57544) - http://www.bohemiancoding.com/sketch -->
    <title>icon-twitter</title>
    <desc>Created with Sketch.</desc>
    <defs></defs>
    <g id="Page-1" stroke="none" stroke-width="1" fill="none" fill-rule="evenodd">
        <g id="rhs-icons" transform="translate(-623.000000, -26.000000)">
            <g id="icon-twitter" transform="translate(623.000000, 26.000000)">
                <g id="Box" fill="#FFFFFF">
                    <rect id="Rectangle-path" x="0" y="0" width="64" height="64"></rect>
                </g>
                <path d="M58.219728,15.9855823 C56.2983766,16.8312035 54.2337691,17.4029124 52.0663993,17.6597644 C54.2784651,16.3440377 55.9772919,14.2602194 56.7770431,11.7775696 C54.7070874,12.9960527 52.4144162,13.8807229 49.9739046,14.3576525 C48.0196998,12.2912736 45.2353735,11 42.1540294,11 C36.2369779,11 31.4401893,15.7605762 31.4401893,21.631966 C31.4401893,22.4654555 31.5349293,23.2767665 31.7175332,24.0549048 C22.8136866,23.6115271 14.9195093,19.3786823 9.6354588,12.9461987 C8.71327128,14.5165027 8.18494264,16.3429003 8.18494264,18.2913738 C8.18494264,21.9799957 10.0763057,25.2343388 12.9509789,27.1411093 C11.1948496,27.0859478 9.54281983,26.6075017 8.09841593,25.8111658 C8.0976519,25.8555225 8.09746089,25.9000688 8.09746089,25.9448046 C8.09746089,31.0962507 11.7904132,35.3935455 16.6914922,36.3703413 C15.7924167,36.6131659 14.8459711,36.7430136 13.8689642,36.7430136 C13.1784696,36.7430136 12.5074579,36.6764785 11.8532549,36.5523176 C13.2166713,40.7764428 17.1732148,43.850326 21.8611288,43.9363856 C18.1945356,46.7879165 13.5751936,48.4874994 8.55568953,48.4874994 C7.69099547,48.4874994 6.83814392,48.4372664 6,48.339075 C10.7413962,51.3557115 16.3726995,53.1157636 22.4228838,53.1157636 C42.1290074,53.1157636 52.9049252,36.9149433 52.9049252,22.8648556 C52.9049252,22.4038489 52.8944197,21.9453065 52.8739819,21.4894179 C54.9670496,19.9903881 56.7833464,18.1177381 58.219728,15.9855823" fill="#000000"></path>
            </g>
        </g>
    </g>
</svg>