<svg height="24" viewBox="0 0 24 24" width="24" xmlns="http://www.w3.org/2000/svg"><path d="m16.5714286 14.5c-.8074286 0-1.5495357.3054297-2.1353572.8162109l-3.6602143-2.5021093c.1083932-.5362733.1083932-1.091969 0-1.6282422l3.6602143-2.5021094c.5858215.51082031 1.3279286.81625 2.1353572.81625 1.8935357 0 3.4285714-1.67894531 3.4285714-3.75s-1.5350357-3.75-3.4285714-3.75-3.4285715 1.67894531-3.4285715 3.75c0 .27960938.0282143.55195313.0812858.81410156l-3.66021433 2.50210938c-.58582143-.51078125-1.32792857-.81621094-2.13535714-.81621094-1.89353572 0-3.42857143 1.67894531-3.42857143 3.75 0 2.0710547 1.53503571 3.75 3.42857143 3.75.80742857 0 1.54953571-.3054297 2.13535714-.8162109l3.66021433 2.5021093c-.0541017.2673231-.0813584.5403076-.0812858.8141016 0 2.0710547 1.5350358 3.75 3.4285715 3.75s3.4285714-1.6789453 3.4285714-3.75-1.5350357-3.75-3.4285714-3.75z" fill="#fff"/></svg>