<?xml version="1.0" encoding="UTF-8"?>
<svg width="24px" height="24px" viewBox="0 0 24 24" version="1.1" xmlns="http://www.w3.org/2000/svg" xmlns:xlink="http://www.w3.org/1999/xlink">
    <!-- Generator: Sketch 52.5 (67469) - http://www.bohemiancoding.com/sketch -->
    <title>icon-list-external-link</title>
    <desc>Created with Sketch.</desc>
    <g id="icon-list-external-link" stroke="none" stroke-width="1" fill="none" fill-rule="evenodd">
        <g id="icon-list-external-link-v2" transform="translate(0.000000, 4.000000)" fill="#00586F">
            <path d="M15.5555555,0.433781643 C15.4251851,0.280150675 15.2651851,0.164927419 15.0755555,0.0881118751 C14.8859259,0.0112963316 14.6903703,-0.0152936233 14.4888888,0.00834201048 C10.6785184,0.00834201048 5.91555551,0.00834201048 3.05777774,0.00834201048 C2.60740735,0.00834201048 2.25185179,0.150155221 1.99111108,0.433781643 C1.83703704,0.563777096 1.71851852,0.723316973 1.63555552,0.912401274 C1.55259252,1.10148558 1.517037,1.29647878 1.52888896,1.4973809 C1.57629632,1.97600056 1.63555552,2.57427514 1.67111104,2.93323988 C1.67111104,3.32322624 1.82518514,3.67775933 2.13333333,3.99683914 C2.44148153,4.26864781 2.79703708,4.42227884 3.2,4.45773223 C4.9540741,4.45773223 7.14666672,4.45773223 8.46222229,4.45773223 C6.46222229,6.47413913 2.46222229,10.5069529 0.462222293,12.5233599 C0.319999976,12.6533553 0.207407348,12.8128952 0.124444409,13.0019795 C0.0414814696,13.1910638 0,13.386057 0,13.5869591 C0,13.7878612 0.0414814696,13.9828544 0.124444409,14.1719387 C0.207407348,14.361023 0.319999976,14.5205629 0.462222293,14.6505584 C0.76444451,14.9400937 1.14222228,15.3020129 1.36888894,15.5191645 C1.4992593,15.6727954 1.65925929,15.7880187 1.84888891,15.8648342 C2.03851852,15.9416498 2.23407409,15.9859664 2.43555561,15.9977842 C2.63703701,16.0096019 2.83259255,15.9741486 3.02222222,15.8914242 C3.2118519,15.8086998 3.37185192,15.6846132 3.50222228,15.5191645 C6.19851854,12.8306219 9.56888888,9.46994373 11.5911111,7.45353683 C11.6088889,8.81405751 11.6444445,11.5350989 11.6622223,12.8956196 C11.6622223,13.0965217 11.7037038,13.2915149 11.7866667,13.4805992 C11.8696296,13.6696835 11.9822222,13.8292234 12.1244444,13.9592188 C12.4444444,14.2310276 12.8,14.3846586 13.1911111,14.4201119 C13.6177777,14.4201119 14.151111,14.4201119 14.471111,14.4201119 C14.6725926,14.4201119 14.8651852,14.3787497 15.0488889,14.2960253 C15.2325926,14.2133009 15.3955555,14.1069409 15.5377777,13.9769455 C15.68,13.8351323 15.7925927,13.6696835 15.8755556,13.4805992 C15.9585185,13.2915149 16,13.0965217 16,12.8956196 C16,9.09620669 16,4.34694057 16,1.4973809 C16,1.04830564 15.8518518,0.69377255 15.5555555,0.433781643 Z" id="path__0"></path>
        </g>
    </g>
</svg>