<svg height="24" viewBox="0 0 24 24" width="24" xmlns="http://www.w3.org/2000/svg"><g fill="#fff" transform="translate(2 5)"><path d="m5.85465574 7.39429508h-.00163935c-.25754098.09649181-.74101639.28583607-1.17367213.49986885-.33039344.15944263-.6307541.33245902-.78147541.49127869-.16321311.17177049-.2687541.47760656-.33740983.79491804h6.97744258c-.0686557-.31731148-.1741639-.62314755-.3374098-.79491804-.1507213-.15878688-.45111475-.33180328-.78147541-.49127869-.43265573-.21403278-.91613114-.40337704-1.17367213-.49986885-.09859016-.03691803-.16108196-.12744262-.1784918-.23127869-.02160656-.12888524-.04583607-.31990164-.06485246-.48081967.65245902-.0264918 1.19209836-.09085246 1.41645902-.17632787.04436065-.01685246.06675409-.05754098.0469836-.10065574-.12278688-.26786885-.44186885-1.14878688-.48196721-1.60885245-.0984918-1.12921312-.09445902-3.15-1.64154098-2.6430164 0 0-.98245902-.62763934-1.78042623.42245902-.56137705.73881967-.42455738 1.71295082-.44704918 2.25616393-.016.38639345-.33209836 1.27849181-.46518033 1.50960656-.02829508.04918033-.01865574.09895082.03468852.11829508.24085246.08740984.78308197.15518033 1.42042623.19540984-.01777049.1615082-.04281967.36193442-.0712459.5077377-.02016393.10327869-.07993443.19432787-.1784918.23127869z"/><path d="m9.22419672 11.0540328c.48304918-.5091148 1.51734428-.9224262 2.47340988-1.21796723h-10.38613119v-8.52459016h11.47540979v1.21567213c.1762296-.06744262.3648525-.1297377.5699345-.18563934.2822295-.07695082.524459-.10557377.741541-.10714754v-1.57862296c0-.36216393-.2936066-.6557377-.6557377-.6557377h-12.7868853c-.36213114 0-.6557377.29357377-.6557377.6557377v9.8360656c0 .3621639.29360656.6557377.6557377.6557377h8.49121312c.02560656-.0316066.05042623-.0652787.0772459-.0935082z"/><path d="m18.8061967 11.5508197c-.4909508-.5170492-2.0089508-.9758689-2.6867869-1.1609181-.3165573-.0863934-.3656393-.4076393-.3994754-.73531144.4306558-.48111475.7501967-1.06219672.8584918-1.83003278.4118361-.12691804.4942951-.64118033.4942951-.96183607 0-.3204918-.0565246-.49396721-.1715738-.54770492-.0554754-.02580328-.1097049-.02560655-.1579016-.01534426.0414098-.66783606.0826557-1.99101639-.1956721-2.48822951-.3042951-.54354098-.7090164-.68452459-1.4139672-.50685246-.4624263-.24534426-.7772459-.48803278-1.5874099-.26708196-.5628852.15344262-1.1789836.40406557-1.5036721.82219672-.3501967.45121311-.2827213 1.76721311-.223541 2.44318033-.0521639-.0142623-.113377-.01681968-.1755738.01213114-.1150819.05373771-.1715409.22721312-.1715409.54770492 0 .32065574.0823934.83488525.494295.96183607.0973443.81029508.4225574 1.37209836.8573771 1.84016393-.0302951.28042623-.0599672.55101639-.3060984.68399999-.5397377.1459344-2.2353115.638459-2.77055735 1.2020984-.6367541.6703934-.88442623 3.1724918-.88442623 3.1724918h10.81967208s-.2391803-2.5020984-.8759344-3.1724918z"/></g></svg>