<svg height="24" viewBox="0 0 24 24" width="24" xmlns="http://www.w3.org/2000/svg"><path d="m17.8235294 15.5714286c-.7218706 0-1.3852941.2465-1.9187647.657l-6.57949411-3.8251072c.01641176-.1324285.02767059-.2663928.02767059-.4033214 0-.7594643-.26177647-1.4562143-.69702353-2.00628571.03105882-.02860715.10909411-.03389286.18275294.01328571.13330588.0853571.62802353.4548571 1.17285881 1.2146071l5.8985294-3.44603567c.5325883.40807143 1.1939647.653 1.9134706.653 1.7543294 0 3.1764706-1.43910714 3.1764706-3.21428572 0-1.77521428-1.4221412-3.21428571-3.1764706-3.21428571-1.7542941 0-3.1764706 1.43907143-3.1764706 3.21428571 0 .13464286.0108.2665.0266824.39678572l-6.56975296 3.83825c-.53491765-.41453572-1.20169412-.66360714-1.92751765-.66360714-1.75429412 0-3.17647059 1.43907141-3.17647059 3.21428571 0 1.7751786 1.42217647 3.2142857 3.17647059 3.2142857.71714117 0 1.37650588-.2433571 1.90821176-.6489643l6.58803525 3.8303215c-.0153529.1281071-.0256588.25775-.0256588.3900714 0 1.7751786 1.4221765 3.2142857 3.1764706 3.2142857 1.7543294 0 3.1764706-1.4391071 3.1764706-3.2142857 0-1.7752143-1.4221412-3.2142857-3.1764706-3.2142857z" fill="#fff"/></svg>