<?xml version="1.0" encoding="UTF-8"?>
<svg width="64px" height="64px" viewBox="0 0 64 64" version="1.1" xmlns="http://www.w3.org/2000/svg" xmlns:xlink="http://www.w3.org/1999/xlink">
    <!-- Generator: Sketch 53.2 (72643) - https://sketchapp.com -->
    <title>icon-download</title>
    <desc>Created with Sketch.</desc>
    <g id="icon-download" stroke="none" stroke-width="1" fill="none" fill-rule="evenodd">
        <g transform="translate(10.000000, 7.000000)" fill="#000000" id="path">
            <path d="M39.848953,13.8477856 C39.5192497,13.3532309 39.0411799,12.9905573 38.4147436,12.7597649 C37.9531591,12.5619431 37.4091487,12.446547 36.7827124,12.4135767 C36.3211279,12.4135767 35.8595432,12.446547 35.3979584,12.5124876 C35.2166216,12.5454579 34.9899506,12.5866708 34.853948,12.6113985 C32.9746392,13.8725136 29.2160217,16.3947438 27.3367129,17.6558589 L27.3367129,1.48391188 C27.324349,1.40972871 27.2996213,1.26136238 27.2872574,1.18717921 C27.2542871,0.923416502 27.1553761,0.709109406 26.9905243,0.544257921 C26.7927025,0.346435809 26.4959695,0.247524752 26.1003252,0.247524752 L18.5830901,0.247524752 C18.1874462,0.247524752 17.8907132,0.346435809 17.6928911,0.544257921 C17.5280396,0.709109406 17.4291287,0.923416502 17.3961584,1.18717921 C17.3796733,1.2860901 17.3590668,1.40972871 17.346703,1.48391188 L17.346703,17.6558589 C15.479758,16.3947438 11.7458682,13.8725136 9.87892327,12.6113985 C9.73055668,12.5866708 9.43382351,12.5372153 9.28545693,12.5124876 C8.82387244,12.446547 8.36228795,12.4135767 7.90070347,12.4135767 C7.30723746,12.446547 6.7632269,12.5619431 6.26867178,12.7597649 C5.67520578,12.9905573 5.19713597,13.3532309 4.83446238,13.8477856 C4.30693729,14.6061035 4.0266896,15.3973914 3.99371931,16.2216495 C3.96074901,16.8480858 4.0596599,17.458037 4.29045198,18.051503 C4.48827409,18.4801172 4.66961089,18.760365 4.83446238,18.8922465 C4.86743267,18.9252168 5.72466139,19.947297 7.40614851,21.9584871 C9.5821901,24.5961135 11.3955583,26.7721553 12.846253,28.4866124 C15.2201167,31.2890906 17.1323957,33.4816175 18.5830901,35.0641931 C19.1765561,35.6906294 19.8029924,36.2181548 20.462399,36.6467693 C20.9239835,36.9764726 21.369083,37.22375 21.7976975,37.3886015 C21.9625492,37.4380569 22.1686137,37.4998762 22.2922525,37.5369678 C22.4282551,37.4998762 22.7002603,37.4256931 22.8362629,37.3886015 C23.2648771,37.22375 23.7099764,36.9764726 24.1715609,36.6467693 C24.7979972,36.2181548 25.4079483,35.6906294 26.0014144,35.0641931 C27.4850794,33.4816175 29.3973586,31.2890906 31.738252,28.4866124 C32.9251837,27.1018586 34.7385518,24.9258168 37.1783564,21.9584871 C38.8598432,19.947297 39.7335569,18.9252168 39.7994975,18.8922465 C39.9643493,18.7933353 40.1456861,18.5130875 40.3435079,18.051503 C40.6072706,17.458037 40.7226668,16.8480858 40.6896965,16.2216495 C40.6567262,15.3973914 40.3764784,14.6061035 39.848953,13.8477856 L39.848953,13.8477856 Z M44.349403,47.2797005 C44.349403,44.8563812 44.349403,40.0097426 44.349403,37.5864233 L38.2663772,37.5864233 L38.2663772,41.2461302 C38.2663772,41.6088038 38.150981,41.9055368 37.9201886,42.1363292 C37.7553371,42.2682104 37.5575152,42.3671213 37.3267228,42.4330619 C37.2278117,42.449547 37.1041729,42.4701535 37.0299896,42.4825173 L7.85124752,42.4825173 C7.7647005,42.4701535 7.59160644,42.4454257 7.50505941,42.4330619 C7.274267,42.3671213 7.07644505,42.2682104 6.91159356,42.1363292 C6.71377145,41.9055368 6.6148604,41.6088038 6.6148604,41.2461302 L6.6148604,37.5864233 L0.581290099,37.5864233 L0.581290099,47.2797005 L0.581290099,47.6753446 C0.614260396,47.9720776 0.696686139,48.2523254 0.828567327,48.5160881 C0.993419142,48.8787617 1.2406967,49.1590094 1.5704,49.3568312 C1.96604389,49.6205939 2.46059884,49.7524752 3.05406485,49.7524752 L42.024995,49.7524752 C42.6184607,49.7524752 43.0965304,49.6205939 43.459204,49.3568312 C43.755937,49.1590094 43.9867294,48.8787617 44.1515812,48.5160881 C44.2504921,48.2523254 44.3164327,47.9720776 44.349403,47.6753446 L44.349403,47.2797005 L44.349403,47.2797005 Z"></path>
        </g>
    </g>
</svg>