<svg height="75" viewBox="0 0 75 75" width="75" xmlns="http://www.w3.org/2000/svg"><g fill="#fff" transform="translate(8 11)"><path d="m55.9188676 21.0677188c2.1616152-2.1349788 3.2768905-5.1185997 3.0528506-8.240824-.0738592-.5762984-.4406937-1.0480363-.9774045-1.2571572-.5391729-.2115526-1.1595909-.1045605-1.6815299.3258396l-3.6412629 3.5939622-5.3326407-.6589742-.6721195-5.3374472 3.641263-3.59396219c.4283838-.42310516.5736404-1.02858323.3816063-1.5781336-.1969581-.56900349-.7065872-.97265554-1.3836307-1.05289962-3.0774704-.21155258-6.1204731.88997981-8.3510236 3.02252707-2.5678413 2.53863094-3.636339 6.10827674-2.9002081 9.68521744l-4.8082397 4.7878969-9.0428389-8.5447789c1.9868148-1.8820884 4.2887627-3.27541747 6.8467561-4.13864926l5.5911481-1.90640484c.8616917-.28207011 1.4180984-1.06748945 1.3910166-1.95503763-.0270817-.89484309-.6351898-1.65108276-1.5190393-1.88452009l-6.6768798-1.71430538c-1.6495241-.41094696-3.3458257-.6200679-5.0445894-.6200679-5.4138859 0-10.5151008 2.06446137-14.3656317 5.81648009l-5.40157598 5.33501561c-.16741439.1653514-.27081739.3866306-.28558925.6200679l-.06893533.9702239-.84938183-.0316113c-.27081739.0194531-.53671083.0948339-.73120696.2869334l-2.80172902 2.7647733c-.18464823.1823729-.28805123.4328317-.28805123.6905854.00246198.2601854.10832696.5057809.29543716.6905855l8.80402723 8.5618003c.37668238.3696091.98971451.3720407 1.37870671.0024316l2.7327937-2.6334648c.1895722-.1823729.2978991-.4328317.2978991-.6954487v-.8705267l1.0143343-.0705175c.2388117-.0145899.4628515-.1167187.6302659-.2820702l2.6884781-2.6553496s.002462-.0024316.002462-.0024316l.3299048-.3258396 8.6587707 8.9557258-5.7831824 5.709488c-3.427071-.7100385-6.9058435.3039549-9.4047494 2.7696366-4.49803071 4.4450358-3.50339229 10.9423748 0 14.4123234 2.0114346 1.9866489 4.6555972 2.9811892 7.2972977 2.9811892 2.6417006 0 5.2858631-.9921086 7.2997597-2.9811892 2.496444-2.4656818 3.5230881-5.9015875 2.8017291-9.2864287l5.6009961-5.5295467 13.9298618 14.4074601c.9921765.9799504 2.3167197 1.5197742 3.7323561 1.5197742 1.4107124 0 2.7377176-.5398238 3.7175842-1.5051844.9847905-.936181 1.5362732-2.2103597 1.5510451-3.5866673.0147718-1.3908974-.5465588-2.7501835-1.5535071-3.7471554l-14.6019814-13.801982 4.7737721-4.6614517c3.4960063.761103 7.1372692-.2674802 9.7248063-2.7599101zm-46.12758787 2.5824005-7.41054865-7.2049459 1.79478072-1.7726647.98479052.0364746 6.37405668 6.2955129v.9653607zm4.22967527-4.1264911-1.1177372.0753808-6.30265935-6.2249954.07632127-1.103964 5.13814448-5.07483029c3.4763106-3.38484126 8.0826682-5.2474766 12.9770771-5.2474766 1.5338112 0 3.0700845.18966782 4.5571181.55927693l6.6596459 1.82616076-5.5985341 1.90883648c-2.8558925.96292898-5.4261957 2.52404111-7.6468984 4.64686182l-.6671955.6589741-4.6014337 4.5423014zm13.2405085 20.2166452c-.2486596.2455956-.3446766.6030465-.2560455.9386126.7779845 2.8839237-.0295437 5.8602496-2.1591532 7.9660489-3.2522707 3.2146265-8.5504437 3.2170581-11.8076383 0-2.8337347-2.8085429-3.64126297-8.0681777 0-11.6645715 2.1320714-2.1033676 5.1430685-2.9009452 8.0654343-2.1325473.3299048.0851074.6992013-.0072949.9503229-.2528904l6.1401689-6.0620756 5.088905 5.2620664zm28.3424779 6.2760599c-.0100546.8510736-.3448834 1.6340613-.9628395 2.2176546-1.240836 1.225546-3.4467668 1.2109561-4.6605211.0145898l-30.4103312-31.4532483 3.2399608-3.2000367 9.759274 9.2232061v.0024316l.002462.0024317 22.0691555 20.8585979c.630266.6224995.9724807 1.4492567.9628395 2.3343733zm-15.6165224-18.8768123-5.3178688-5.0261975 4.7023747-4.6881996c.5514827-.4352634.7976804-1.164755.6548857-2.0061021-.6351898-2.7866581.2363498-5.68273991 2.3117958-7.73747473 1.6002846-1.53193246 3.7274321-2.41461736 5.9013572-2.48756652l-3.0922423 3.05170673c-.2978991.29665994-.4702374.72219674-.4628515 1.29363186l.728745 5.72650946c0 .6614058.5096291 1.2498624 1.3565489 1.4516884l5.9752165.7367865h.0123099c.4530036 0 .8838495-.1702147 1.1842106-.4668746l3.0848563-3.0517067c-.0738593 2.1738851-.9626328 4.2310515-2.496444 5.7459625-2.1025278 2.0255552-5.0667472 2.8644706-7.9669553 2.2346761-.6696575-.1069921-1.4328702.1094237-1.9104936.57873z"/><path d="m22.1655786 38.9891305-3.9510462-.9547976c-.366808-.0919434-.7493363.0047151-1.0139621.2428251l-2.8925431 2.6027074c-.2646258.2381101-.3694281.5870237-.2724859.9123622l1.058503 3.5551475c.0969422.3253384.3825284.5799511.7414762.6671795l3.9510462.9524401c.089082.0212177.180784.0330053.272486.0330053.2724859 0 .5423518-.0966585.7414761-.2758304l2.8925431-2.6027075c.2646258-.23811.366808-.5846661.272486-.9100046l-1.0558831-3.5551475c-.0995621-.3253384-.3799083-.5799511-.7440962-.6671795zm-2.4183127 6.0140459-2.7825007-.6718945-.7440963-2.5036915 2.0357844-1.8317968 2.7825007.6718946.7440963 2.5036914z"/></g></svg>