<svg height="24" viewBox="0 0 24 24" width="24" xmlns="http://www.w3.org/2000/svg"><path d="m9.53026545 18.9999394h3.42983665v-5.6521212c0-.302543.0224314-.6047825.1130851-.8205377.2478282-.6046307.8123257-1.2305032 1.7595491-1.2305032 1.2414613 0 1.7377365.9285671 1.7377365 2.2883414v5.4148207h3.4295272v-5.8029375c0-3.1091825-1.6919455-4.55559266-3.9486979-4.55559266-1.8503575 0-2.6626831 1.01489956-3.1137861 1.70571096h.0225861v-1.46810702h-3.42983665c.04501748.94950537 0 10.12092622 0 10.12092622m-3.61261378-11.50218495c1.19582505 0 1.94023775-.77790253 1.94023775-1.74864964-.02227669-.99305091-.7444127-1.74910481-1.91765167-1.74910481-1.17339366 0-1.94023775.7560539-1.94023775 1.74910481 0 .97074711.744258 1.74864964 1.89522028 1.74864964zm1.71468627 1.38131942h-3.42968195v10.12092613h3.42968195z" fill="#fff"/></svg>