<svg height="75" viewBox="0 0 75 75" width="75" xmlns="http://www.w3.org/2000/svg"><path d="m1.15341921 0c-.62565193.05887703-1.15611838.64306162-1.15341921 1.27027027v44.45939593c0 .665177.60634469 1.2703338 1.27273737 1.2703338h13.99999743c.6663929 0 1.272727-.6051568 1.272727-1.2703338v-44.45939593c0-.66509446-.6063469-1.27027027-1.272727-1.27027027-4.7030274 0-9.425063 0-14.11931559 0zm19.72726909 0c-.6256516.05887703-1.1561185.64306162-1.1534192 1.27027027v44.45939593c0 .665177.6063445 1.2703338 1.2727374 1.2703338h13.9999974c.6663929 0 1.272727-.6051568 1.272727-1.2703338v-44.45939593c0-.66509446-.6063469-1.27027027-1.272727-1.27027027-4.7030274 0-9.425063 0-14.1193156 0zm19.7272691 0c-.6256516.05887703-1.1561185.64306162-1.1534192 1.27027027v44.45939593c0 .665177.6063445 1.2703338 1.2727373 1.2703338h13.9999975c.6663928 0 1.272727-.6051568 1.272727-1.2703338v-44.45939593c0-.66509446-.6063469-1.27027027-1.272727-1.27027027-4.7030274 0-9.425063 0-14.1193156 0zm-38.06249299 2.54054054h11.45454339v41.91891896h-11.45454339zm19.72726909 0h11.4545433v41.91891896h-11.4545433zm19.7272691 0h11.4545433v41.91891896h-11.4545433zm-36.073857 2.54054054c-.66675242.03067703-1.24530931.66442122-1.21405686 1.32985865.03125181.66543743.6666716 1.24238149 1.33337502 1.21067554h4.45454464c.6724065.00952703 1.2908806-.59909122 1.2908806-1.27027027 0-.6711727-.6184741-1.27977189-1.2908806-1.27026392-1.51930709-.00000635-3.06409162 0-4.5738628 0zm19.7272691 0c-.6667524.03067703-1.2453093.66442122-1.2140569 1.32985865.0312518.66543743.6666716 1.24238149 1.3333751 1.21067554h4.4545446c.6724065.00952703 1.2908806-.59909122 1.2908806-1.27027027 0-.6711727-.6184741-1.27977189-1.2908806-1.27026392-1.5193071-.00000635-3.0640916 0-4.5738628 0zm19.7272691 0c-.6667524.03067703-1.2453093.66442122-1.2140569 1.32985865.0312518.66543743.6666716 1.24238149 1.333375 1.21067554h4.4545447c.6724065.00952703 1.2908806-.59909122 1.2908806-1.27027027 0-.6711727-.6184741-1.27977189-1.2908806-1.27026392-1.5193071-.00000635-3.0640916 0-4.5738628 0zm-39.4545382 5.08107472c-.66675242.030677-1.24530931.6644212-1.21405686 1.3298587.03125181.6654374.6666716 1.2423878 1.33337502 1.2106819h4.45454464c.6724065.009527 1.2908806-.5990976 1.2908806-1.2702703s-.6184741-1.2797783-1.2908806-1.2702703c-1.51930709-.0000063-3.06409162 0-4.5738628 0zm19.7272691 0c-.6667524.030677-1.2453093.6644212-1.2140569 1.3298587.0312518.6654374.6666716 1.2423878 1.3333751 1.2106819h4.4545446c.6724065.009527 1.2908806-.5990976 1.2908806-1.2702703s-.6184741-1.2797783-1.2908806-1.2702703c-1.5193071-.0000063-3.0640916 0-4.5738628 0zm19.7272691 0c-.6667524.030677-1.2453093.6644212-1.2140569 1.3298587.0312518.6654374.6666716 1.2423878 1.333375 1.2106819h4.4545447c.6724065.009527 1.2908806-.5990976 1.2908806-1.2702703s-.6184741-1.2797783-1.2908806-1.2702703c-1.5193071-.0000063-3.0640916 0-4.5738628 0zm-39.4545382 5.0810874c-.66675242.0306771-1.24530931.6644213-1.21405686 1.3298587.03125181.6654374.6666716 1.2423878 1.33337502 1.2106755h4.45454464c.6724065.0095271 1.2908806-.5990912 1.2908806-1.2702639 0-.671179-.6184741-1.2797782-1.2908806-1.2702703-1.51930709-.0000063-3.06409162 0-4.5738628 0zm19.7272691 0c-.6667524.0306771-1.2453093.6644213-1.2140569 1.3298587.0312518.6654374.6666716 1.2423878 1.3333751 1.2106755h4.4545446c.6724065.0095271 1.2908806-.5990912 1.2908806-1.2702639 0-.671179-.6184741-1.2797782-1.2908806-1.2702703-1.5193071-.0000063-3.0640916 0-4.5738628 0zm19.7272691 0c-.6667524.0306771-1.2453093.6644213-1.2140569 1.3298587.0312518.6654374.6666716 1.2423878 1.333375 1.2106755h4.4545447c.6724065.0095271 1.2908806-.5990912 1.2908806-1.2702639 0-.671179-.6184741-1.2797782-1.2908806-1.2702703-1.5193071-.0000063-3.0640916 0-4.5738628 0zm-39.4545382 5.0810748c-.66747405.0296608-1.24736222.6638369-1.21607732 1.3299475.03128363.6661615.6680697 1.2433723 1.33539548 1.2105994h4.45454464c.6724797.009527 1.2911039-.598996 1.2911039-1.270283 0-.6712489-.6186242-1.2798862-1.2911039-1.2702639-1.51930709-.0000064-3.06409162 0-4.5738628 0zm19.7272691 0c-.6674741.0296608-1.2473622.6638369-1.2160773 1.3299475.0312836.6661615.6680697 1.2433723 1.3353955 1.2105994h4.4545446c.6724797.009527 1.2911039-.598996 1.2911039-1.270283 0-.6712489-.6186242-1.2798862-1.2911039-1.2702639 0 0-4.5341194-.0019054-4.5738628 0zm19.7272691 0c-.6674741.0296608-1.2473622.6638369-1.2160773 1.3299475.0312836.6661615.6680697 1.2433723 1.3353954 1.2105994h4.4545447c.6724797.009527 1.2911039-.598996 1.2911039-1.270283 0-.6712489-.6186242-1.2798862-1.2911039-1.2702639-1.5193071-.0000064-3.0640916 0-4.5738628 0zm-37.10794772 13.9729793c-2.09362452 0-3.81818111 1.7211527-3.81818111 3.8108108 0 2.0895946 1.72451777 3.8108108 3.81818111 3.8108108 2.09366332 0 3.81818112-1.7212162 3.81818112-3.8108108s-1.7245566-3.8108108-3.81818112-3.8108108zm19.72726912 0c-2.0936246 0-3.8181811 1.7211527-3.8181811 3.8108108 0 2.0895946 1.7245177 3.8108108 3.8181811 3.8108108 2.0936633 0 3.8181811-1.7212162 3.8181811-3.8108108s-1.7245566-3.8108108-3.8181811-3.8108108zm19.7272691 0c-2.0936246 0-3.8181812 1.7211527-3.8181812 3.8108108 0 2.0895946 1.7245178 3.8108108 3.8181812 3.8108108 2.0936633 0 3.8181811-1.7212162 3.8181811-3.8108108s-1.7245566-3.8108108-3.8181811-3.8108108zm-39.45453822 2.5405405c.71800641 0 1.27272704.5535838 1.27272704 1.2702703 0 .7165595-.55475944 1.2702068-1.27272704 1.2702068-.71796759 0-1.27272704-.5536473-1.27272704-1.2702068 0-.716623.55472063-1.2702703 1.27272704-1.2702703zm19.72726912 0c.7180064 0 1.272727.5535838 1.272727 1.2702703 0 .7165595-.5547594 1.2702068-1.272727 1.2702068s-1.2727271-.5536473-1.2727271-1.2702068c0-.716623.5547207-1.2702703 1.2727271-1.2702703zm19.7272691 0c.7180064 0 1.272727.5535838 1.272727 1.2702703 0 .7165595-.5547595 1.2702068-1.272727 1.2702068-.7179676 0-1.2727271-.5536473-1.2727271-1.2702068 0-.716623.5547206-1.2702703 1.2727271-1.2702703z" fill="#fff" transform="translate(10 14)"/></svg>