<svg height="24" viewBox="0 0 24 24" width="24" xmlns="http://www.w3.org/2000/svg"><path d="m21.2 5h-18.4c-.4418 0-.8.3582-.8.8v12c0 .4418.3582.8.8.8h18.4c.4418 0 .8-.3582.8-.8v-12c0-.4418-.3582-.8-.8-.8zm-1.58324 2-7.61676 5.04064-7.61676-5.04064zm-15.61676 1.665 7.5586 5.0022c.1336.08848.28748.1328.4414.1328s.3078-.04432.4414-.1328l7.5586-5.0022v7.90904l-4.734-3.44436s-.09648.06132-.00976.1672 2.7242 3.30312 2.7242 3.30312h-11.91288s2.63364-3.191 2.71996-3.29688-.00508-.17344-.00508-.17344l-4.76972 3.47032h-.01272z" fill="#fff"/></svg>