<svg height="32" viewBox="0 0 50 32" width="50" xmlns="http://www.w3.org/2000/svg"><g fill="none" fill-rule="evenodd" transform="translate(-8 -16)"><path d="m.882439.3151h64v64h-64z"/><path d="m48.4361919 32.2903719c0 .593466-.0906684 1.0962635-.2720052 1.5083925-.1813368.4121291-.4863123.848986-.9149265 1.3105708-6.9567396 6.9402545-15.6526641 15.6155726-20.8702188 20.8207634-.3956439.3956439-.807773.6841342-1.2363873.865471-.4286144.1813368-.9396546.2720052-1.5331206.2720052-.5604954 0-1.0550502-.0906684-1.4836646-.2720052s-.8572286-.4698271-1.2858428-.865471c-.7748028-.7748028-1.7433063-1.7433063-2.3244084-2.3244084-.3956439-.3956439-.6923768-.8489859-.8901988-1.360026-.1978219-.5110401-.2967329-.9973526-.2967329-1.4589374 0-.5604954.0906684-1.0550502.2720052-1.4836646.1813368-.4286143.4863123-.8572286.9149265-1.2858428 5.1268863-5.2422825 11.5354942-11.7951357 15.3806589-15.7268475-3.8328009-3.8080732-11.4984026-11.4242195-15.3312035-15.2322926-.3626736-.3626736-.6429214-.7995305-.8407433-1.3105706-.197822-.5110401-.2967329-.9973523-.2967329-1.4589368 0-.5604957.0906684-1.0550508.2720052-1.4836651.1813368-.4286144.4698271-.8572287.865471-1.2858429.7748028-.9396544 1.7433063-2.11422248 2.3244084-2.81896332.3956439-.3956439.807773-.68413424 1.2363874-.86547104s.9396544-.2720052 1.5331201-.2720052c.593466 0 1.0962636.0906684 1.5083928.2720052s.848986.46982714 1.3105705.86547104c6.9072842 6.97322492 15.5413894 15.68975602 20.7218525 20.91967472.4286142.3956439.7418323.7995304.9396542 1.2116594.197822.4121291.2967329.8984415.2967329 1.4589372z" fill="#000" transform="matrix(0 1 -1 0 65.197539 -.567339)"/></g></svg>