<svg height="24" viewBox="0 0 24 24" width="24" xmlns="http://www.w3.org/2000/svg"><path d="m21.5653316 4.17369232c-.1499808-.90220398-.8363823-1.58860549-1.7390239-1.73902388-2.6087547-.43466844-6.9570146-.43466844-7.8263077-.43466844s-5.21755304 0-7.82630768.43466844c-.90264162.15041839-1.58904314.8368199-1.73902388 1.73902388-.43466844 2.60875464-.43466844 6.95701458-.43466844 7.82630768s0 5.217553.43466844 7.8263077c.14998074.902204.83638226 1.5886055 1.73902388 1.7390239 2.60875464.4346684 6.95701458.4346684 7.82630768.4346684s5.217553 0 7.8263077-.4346684c.9026416-.1504184 1.5890431-.8368199 1.7390239-1.7390239.4346684-2.6087547.4346684-6.9570146.4346684-7.8263077 0-2.61006757 0-5.21755304-.4346684-7.82630768zm-14.56453842 14.82630768c-1.28974817 0-2.00079318-.7103312-2.00079318-2.0003966 0-1.2896688.71104501-1.9996034 2.00079318-1.9996034 1.28891533 0 1.99920682.7099346 1.99920682 1.9996034 0 1.2900654-.71029149 2.0003966-1.99920682 2.0003966zm6.63278002-.0108002c-.4477265.0063859-.9035529.0108002-1.3751935.0108002-.4073552 0-.8041247-.0030429-1.1939086-.0078001.3632983-.6466378.5662688-1.4215917.5662688-2.2969614 0-2.5874512-1.73823463-4.3259332-4.32542231-4.3259332-.87561011 0-1.65072071.20306-2.29751763.5665795-.00475712-.3899627-.00779996-.7868684-.00779996-1.1944028 0-.471521.00441426-.9272275.01079995-1.3748339.70778234-.2344319 1.47547869-.3666481 2.29451764-.3666481 3.87915301 0 6.69468241 2.8157545 6.69468241 6.6952385 0 .8188403-.1320851 1.586337-.3664268 2.2939613zm5.2032201-.1984346c-.7460876.08898-1.6605294.1598351-2.7107965.2092348.1672728-.7143051.2652487-1.461529.2652487-2.2422338 0-5.2157728-3.9329648-9.14901466-9.14839749-9.14901466-.78090907 0-1.52833763.09802067-2.24284801.2654258.04939889-1.05015356.12025299-1.96456622.20923155-2.71088164.65788766-.10559068 1.33619238-.1632957 2.0335732-.1632957 6.70267665 0 11.75719525 5.0547265 11.75719525 11.7577662 0 .6972186-.0577041 1.3752742-.1632067 2.032999z" fill="#fff"/></svg>