<svg height="24" viewBox="0 0 24 24" width="24" xmlns="http://www.w3.org/2000/svg"><path d="m19.9525 7.98308098c.00875.17355338.0125.34710677.0125.52189103.0008681 4.20083949-2.3259469 8.06745239-6.0683269 10.08411559-3.7423801 2.0166632-8.30399275 1.8620299-11.8966731-.4032832.32479326.0381487.65165685.0566465.97875.0553894 1.84661348.004984 3.64122478-.6019874 5.095-1.7232251-1.75488321-.032057-3.29478499-1.1595422-3.83125-2.8051643.61457821.1141473 1.24739964.0901642 1.85125-.0701599-1.9137253-.3827102-3.28925067-2.0392721-3.29-3.9621868v-.05046588c.56968378.31216811 1.2070975.48522878 1.85875.50465878-1.80414024-1.18674973-2.36027321-3.55026546-1.27-5.39738717 2.08364698 2.52439332 5.15800951 4.05863767 8.4575 4.2206706-.4190614-1.78059559.4266746-3.61666677 2.0632038-4.4791627s3.6571164-.53705593 4.9292962.79392275c.9187283-.17859461 1.7999987-.50947745 2.60625-.97854568-.3079436.93488585-.9490954 1.72843589-1.805 2.23403825.813501-.09395905 1.6078972-.30850501 2.35625-.63636241-.5507353.81146748-1.2441028 1.51965276-2.0475 2.09125674z" fill="#fff"/></svg>