<svg height="32" viewBox="0 0 32 32" width="32" xmlns="http://www.w3.org/2000/svg"><path d="m24.4647522 21.6335677-4.5474359-4.5396261c.5200851-.9652411.8166178-2.0676159.8166178-3.2382573 0-3.7802858-3.0807119-6.8556843-6.8674683-6.8556843-3.7861549 0-6.8664658 3.0753985-6.8664658 6.8556843 0 3.7812867 3.0803109 6.8576862 6.8664658 6.8576862 1.1572594 0 2.2468516-.2900828 3.2044175-.796977l4.556759 4.5498361c.7127611.7116939 1.8738298.7116939 2.5864907 0l.2506192-.250244c.7146658-.7134957.7126609-1.8689222 0-2.5824179zm-14.75806447-7.7778834c0-2.2930357 1.86330387-4.15304923 4.15977807-4.15304923 2.2974766 0 4.1607805 1.86001353 4.1607805 4.15304923 0 2.2950377-1.8633039 4.1550512-4.1607805 4.1550512-2.2964742 0-4.15977807-1.8600135-4.15977807-4.1550512z" fill="#fff"/></svg>