<?xml version="1.0" encoding="UTF-8"?>
<svg width="32px" height="32px" viewBox="0 0 32 32" version="1.1" xmlns="http://www.w3.org/2000/svg" xmlns:xlink="http://www.w3.org/1999/xlink">
    <title>menu-search</title>
    <g id="menu-search" stroke="none" stroke-width="1" fill="none" fill-rule="evenodd">
        <g transform="translate(7.000000, 7.000000)" fill="#000000" fill-rule="nonzero">
            <path d="M17.4647522,14.6335677 L12.9173163,10.0939416 C13.4374014,9.12870048 13.7339341,8.02632567 13.7339341,6.85568429 C13.7339341,3.07539851 10.6532222,0 6.86646579,0 C3.08031089,0 0,3.07539851 0,6.85568429 C0,10.636971 3.08031089,13.7133705 6.86646579,13.7133705 C8.02372517,13.7133705 9.11331735,13.4232877 10.0708833,12.9163935 L14.6276423,17.4662296 C15.3404034,18.1779235 16.5014721,18.1779235 17.214133,17.4662296 L17.4647522,17.2159856 C18.179418,16.5024899 18.1774131,15.3470634 17.4647522,14.6335677 Z M2.70668773,6.85568429 C2.70668773,4.56264858 4.56999162,2.70263507 6.86646579,2.70263507 C9.16394244,2.70263507 11.0272463,4.56264858 11.0272463,6.85568429 C11.0272463,9.15072195 9.16394244,11.0107355 6.86646579,11.0107355 C4.56999162,11.0107355 2.70668773,9.15072195 2.70668773,6.85568429 Z"></path>
        </g>
    </g>
</svg>