<svg height="64" viewBox="0 0 64 64" width="64" xmlns="http://www.w3.org/2000/svg"><path d="m0 0h64v64h-64z" fill="none"/><path d="m32 4c-10.2401 0-17.9623 7.7265-17.9623 17.9731 0 5.9628 2.8771 10.4182 6.2089 15.5772 3.2369 5.0109 6.9053 11.6818 9.1895 20.4683.3038 1.1666 1.3579 1.9814 2.5639 1.9814s2.2601-.8148 2.5638-1.9813c2.2842-8.7866 5.9526-15.4574 9.1895-20.4683 3.3318-5.159 6.2089-9.6144 6.2089-15.5772.0001-10.2467-7.7221-17.9732-17.9622-17.9732zm0 28.2c-5.6333 0-10.2-4.5668-10.2-10.2 0-5.6334 4.5667-10.2 10.2-10.2s10.2 4.5666 10.2 10.2c0 5.6332-4.5667 10.2-10.2 10.2z"/><circle cx="32" cy="22" r="5"/></svg>