<svg height="64" viewBox="0 0 64 64" width="64" xmlns="http://www.w3.org/2000/svg"><path d="m0 0h64v64h-64z" fill="none"/><path d="m32 8c-13.2549 0-24 10.7441-24 24s10.7451 24 24 24c13.2559 0 24-10.7441 24-24s-10.7441-24-24-24zm0 42.0576c-9.957 0-18.0576-8.1006-18.0576-18.0576s8.1006-18.0576 18.0576-18.0576 18.0576 8.1006 18.0576 18.0576-8.1006 18.0576-18.0576 18.0576z"/><path d="m45.0083 31.7598c-.001 0 .0361 0 .0361 0l-10.7075-1.0596-.8369-11.708c-.0937-.8306-.6729-1.4365-1.5-1.4365s-1.4375.5381-1.4985 1.4365l-1.0015 13.7817c0 1.2906.9868 2.3516 2.2461 2.48.0747.0425 13.2622-.9414 13.2622-.9414.8667-.084 1.5-.4497 1.5-1.2769 0-.8261-.5776-1.2133-1.5-1.2758z"/></svg>