<svg enable-background="new 0 0 24 24" height="24" viewBox="0 0 24 24" width="24" xmlns="http://www.w3.org/2000/svg"><path d="m0 0h24v24h-24z" fill="none"/><path d="m23.38 19.64-9.71-17.17c-.73-1.3-2.6-1.3-3.34 0l-9.71 17.17c-.72 1.28.2 2.86 1.67 2.86h19.43c1.46 0 2.38-1.58 1.66-2.86z" fill="#ffb612"/><path d="m10.54 17.45c0-.44.12-.82.36-1.12.24-.31.6-.46 1.09-.46.48 0 .85.14 1.1.4.25.27.38.66.38 1.18 0 .43-.12.8-.36 1.09s-.6.44-1.09.44c-.48 0-.85-.13-1.1-.39-.25-.25-.38-.63-.38-1.14zm.31-10.27 2.48-.2-.22 5.51v2.63l-2.27.05v-7.99z"/></svg>