<svg height="269" viewBox="0 0 430 269" width="430" xmlns="http://www.w3.org/2000/svg"><g fill="none" fill-rule="evenodd"><rect fill="#d8d8d8" fill-opacity=".01" height="269" rx="2" width="430"/><g fill-rule="nonzero" transform="translate(89.359375 32.9525)"><g opacity=".9" transform="translate(213.65625 18.1575)"><path d="m44.8780614 172.733621h-5.3973199l-1.1952542-17.703947 8.4041313-.075376c-.9337923 8.574024-1.8115572 17.779323-1.8115572 17.779323z" fill="#bf7f5d"/><path d="m44.8780614 172.733621h-2.2784533c1.1298887-4.409498 1.2792955-9.666977-.6629926-13.379247-.2885116-.620158-.8168936-1.093458-1.4613738-1.309031s-1.3484363-.15448-1.9469684.168968l-.2054343-3.203481 8.4041313-.075376c-.971144 8.592868-1.8489089 17.798167-1.8489089 17.798167z" fill="#020203" opacity=".06"/><path d="m21.6453072 172.356741h-5.3973199l-1.1205509-17.166893 8.2827384-.075376c-.9151165 8.451538-1.7648676 17.242269-1.7648676 17.242269z" fill="#bf7f5d"/><path d="m20.692839 155.189848h2.7173358c-.9337924 8.404428-1.7648676 17.195159-1.7648676 17.195159h-1.70884c2.073019-5.342277 1.8955985-11.494846.7563718-17.195159z" fill="#020203" opacity=".06"/><path d="m20.440715 65.8221284 23.1113613-.1978621 2.8947563 9.6010233c1.6247988 4.3341224 3.7911971 10.6374439 3.3243009 15.2448044l-3.5017214 34.192457s2.0076536 12.314561 1.466054 19.588349c-.364179 4.98424-.3921928 11.070856-1.1205508 18.127938l-8.329428-.414568-2.2597776-39.176698-3.2309216-26.833871-2.1197087.2355502-9.4032891 28.0964198s3.41768 7.641246 2.1290466 38.291029l-8.0679661.075376-4.2767691-40.241384s5.6027542-43.8311686 6.5365466-47.3644205z" fill="#0d0c0d"/><path d="m39.2939831 65.6619543h4.2580932l2.8947563 9.6010233c1.6247988 4.3341224 3.7911971 10.6374439 3.3243009 15.2448044l-3.5017214 34.192457s2.2130879 12.333405 1.466054 19.588349c-.5135858 4.984241-.3921928 11.070856-1.1205508 18.127938l-5.4813613-.273238c1.4473782-6.830954.373517-15.122319 0-20.869742-.6349788-10.609178-1.0084957-21.256044-.6910063-31.893488.3174894-10.3642053 1.0271716-20.6436129-.6816685-30.9418646-.0783425-.6272722-.3967215-1.1987516-.8871027-1.5923189-.1120858-1.7219084-.1307896-3.4487121-.0560276-5.1726809.1494068-2.0822631.4015308-4.0420402.4762342-6.0112393z" fill="#020203" opacity=".1"/><path d="m18.7505508 133.274264c-1.0458474-16.507353 11.2055085-38.1308554 11.756446-36.3783624l-9.1978549 27.3897694s2.8574047 31.149149 2.1290467 38.291029l-6.4058157.056532c4.8463824-7.94275 2.2224258-21.303154 1.7181779-29.358968z" fill="#020203" opacity=".1"/><path d="m34.4662765 176.266873 4.5475688-3.420187c.1855958-.134335.4066723-.209784.6349789-.216707l5.0424788-.056532c.4907454-.007392.9261472.316319 1.0645233.791449.6196818 1.960708.9192916 4.010036.8871027 6.067771-.0149744.458826-.3854605.824341-.8404131.829137l-15.0714089.131908c-.2584873.00667-.5028517-.118741-.6497395-.333456-.1468877-.214715-.1764558-.489728-.0786186-.731231.4295445-1.13064 1.5781092-2.741803 4.4635276-3.062152z" fill="#e7e6e0"/><path d="m37.8185911 173.741776c2.7079979.18844 5.4159958.301504 8.1239936.320348.4429782 1.617388.6691017 3.287389.6723306 4.965397l-11.6070392.103642c.1288383-1.010814-.0096935-2.038029-.4015308-2.977354z" fill="#ffa308"/><path d="m5.22923729 176.191497 10.12230931-3.928976.242786-.047189h6.0322988c.2703069-.004069.5167859.155544.6256408.405225.7253476 2.168741.9863323 4.468102.7657098 6.746156-.0432158.419312-.3945945.737178-.8123994.734917l-21.74802434.18844s.28013772-3.608628 4.77167903-4.098573z" fill="#e7e6e0"/><path d="m22.4763824 173.280098c.5153192 1.881468.704861 3.838577.5602754 5.785111-4.9397616 0-9.8795233 0-14.81928492 0-.19433363-1.251257-.67732103-2.438938-1.41002648-3.467298l6.368464-2.477987c2.8480667 1.074108 6.368464.244972 9.300572.160174z" fill="#ffa308"/><path d="m15.7810911 28.6523178 13.9041684-4.3718104 12.3353973 1.5452089s3.9592796.9422005 5.014465 2.9961976c.4855721.9422006-4.6689618 18.118516-4.6689618 18.118516s-.9337924 11.4571584 1.2699576 16.7900133c2.4091843 5.8227992 4.3141207 15.0186763 4.3141207 15.0186763l-31.9263612 1.5734749s1.3913507-17.3270676 2.6239566-25.0907999c.3361652-2.1293731-2.4185223-11.2121862-2.4185223-11.2121862s-4.3327966-10.4207377-.4482203-15.3672905z" fill="#ffa308"/><path d="m44.4018273 39.3086057c-1.0831991 4.0043522-2.082357 7.6318242-2.082357 7.6318242s-.9337923 11.4571584 1.2699577 16.7900133c2.4091843 5.8227992 4.3141207 15.0186763 4.3141207 15.0186763l-7.7504767.3957242c1.1485647-2.9113996.8217373-12.691441.9337924-9.4879592s-.2521239-11.8434605-.364179-21.4067958c.0327581-.8147897-.3124459-1.5984924-.9337924-2.1199512.5564235-2.8112831 2.2215079-5.2735826 4.6129343-6.8215318z" fill="#020203" opacity=".06"/><path d="m15.7810911 28.6523178 3.1095286 26.7113848s-3.4456939 8.998015-4.4541896 8.9886004c-1.0084958-.0094294-3.9779555-12.5312744-2.9040943-24.0261207 1.0738612-11.4948464 4.2487553-11.6738645 4.2487553-11.6738645z" fill="#ffa308"/><path d="m15.0340572 46.4033757c.127913 2.6351773 1.445936 5.0657872 3.5764248 6.5954036l.2801377 2.3460793s-3.4456939 8.998015-4.4541896 8.9886004c-1.0084958-.0094294-3.2309216-9.6858288-3.1282045-19.7673744 1.3557599-.0672669 2.658874-.5504734 3.7351695-1.3850347-.1010758 1.0715451-.1042016 2.1502025-.0093379 3.2223258z" fill="#020203" opacity=".06"/><path d="m19.1334057 44.2268924-6.9474152 1.3944568-6.125678-12.672597 6.5832362-1.0175765z" fill="#2a303a"/><path d="m33.6165254 21.736566c.252124.8856685 1.2419439 3.4955639 1.2419439 3.4955639.1027171 2.4779874-2.4932257 3.8818662-3.8845763 4.2022144-2.3905085.5558983-5.6027542-.3486142-5.7241472-2.8266016l-.9337924-11.3064062 10.0662818-1.3944568s-2.9134322.5370543-.7657098 7.8296863z" fill="#bf7f5d"/><path d="m31.2260169 20.9262736c-.7878909 2.6897568-3.3719198 4.4239859-6.1350158 4.1174162l-.1774206-.7914484c3.1001907.9516225 6.3124364-3.3259678 6.3124364-3.3259678z" fill="#020203" opacity=".1"/><path d="m47.4926801 82.5556096-.5322617-16.300069c.6629926 0 6.3311123-.6689623 6.3311123-.6689623l-1.7648676 16.8371233h.0560276l1.8675847 8.7436208-2.1757362 5.0973048-1.7835434 2.6664275h-.121393l-.3455032 1.4133003c-.4167342-.099224-.752578-.4095554-.8871028-.819714-.242786-.7066504.5135858-4.7110026.5135858-4.7110026.0684781-.3077855.1431815-.6469777.2241102-1.0175766.1826151-1.3363569.0018662-2.6976666-.5229237-3.9383981 0 0-.8777649-.4522563-1.1485647.7443384-.2707997 1.1965946-.9337923 2.9867756-2.3531567 2.8266015l.9337923-5.7191571z" fill="#bf7f5d"/><path d="m51.5546769 82.4237016h.0560275l1.8675848 8.7436208-2.1757362 5.0973048-.6536547.9422005c1.2699576-3.3824998 1.1485646-6.9251738.3361653-11.0425901-.6723305-3.3542338-.0747034-5.493029.2614618-8.7530428.3416043-2.1080411-.229644-4.2626491-1.5687712-5.9170193-.5597016-.8289474-1.5985175-1.1796218-2.5399152-.8574025l-.1400689-4.4000764c.6629926 0 6.3311123-.6689624 6.3311123-.6689624z" fill="#020203" opacity=".06"/><path d="m47.0071081 28.8219139c5.0331408 10.4678478 7.4703389 28.4450338 7.4703389 28.4450338s-.6910063 7.7448882-1.1298887 13.5394214c-2.4091844-.122486-4.5849206 0-7.0034428.0847981l-.4388824-15.3955565c-1.3166473-3.1186837-2.6426325-7.3868521-5.8362024-15.8855008-4.6876377-12.3805148 6.9380774-10.788196 6.9380774-10.788196z" fill="#ffa308"/><path d="m47.0631356 28.934978c4.9957892 10.4866918 7.3676218 28.3319697 7.3676218 28.3319697s-.6910063 7.7448882-1.1298888 13.5394214c-1.8675847-.09422-3.539073 0-5.3132786 0 3.3896664-6.7178897 3.7351695-14.1989618 2.8574047-21.5763919-.8030614-6.5482936-1.8675847-11.2121862-3.7818591-20.2949992z" fill="#020203" opacity=".06"/><path d="m11.5790254 37.3299846c.2441755.2428735.3761218.5779975.3636942.9237294-.0124276.3457318-.1680881.6703305-.4290596.8947176l-1.4940678 1.4604108.4015307 1.1965947.7190201-.2638161 3.9499417-1.5075209s.5509375.4805223 0 .9422006c-.308572.2646317-.6398114.5011094-.9898199.7066503l2.0450053-.7254944c.2263448.1186522.363612.3593133.3515749.6163922-.012037.2570789-.1711793.4836103-.4076024.5802025-.5090623.3124479-1.0469539.5743491-1.6061229.7820264l2.0916949-.5747423c.1544514.1546392.228896.3729283.2014576.5907208-.0274384.2177924-.1536427.4103456-.3415264.5210758-.6167017.3565067-1.2562022.6712671-1.9142744.9422006l-1.101875.6595403 3.2682733-.9422005c.7190201.1130641 0 .9422005-.2334481 1.2248607-.7523435.5060969-1.5649255.9144635-2.4185222 1.2154386-.3768515 1.2850331-.648563 2.599101-.8123994 3.9289762 0 .3768802 1.4380403 2.8266016 1.8675847 5.7097352.5789513 3.71227.1494068 8.0275484-.7376959 8.0652364-.8871028.0376881-3.8752384-.113064-5.09850638-5.511873-.43729216-2.5218935-.55027995-5.0901767-.33616526-7.6412462l.01867585-4.9559748c-.11861961-1.7355037-.35574313-3.4606845-.7096822-5.1632588-.23101614-.4147721-.20931156-.9257726.05602754-1.3190808z" fill="#bf7f5d"/><path d="m15.4449258 45.140827c.4636103.0880563.9416156.0589235 1.3913507-.0847981-.089868.1384727-.1965231.2650791-.3174894.3768802-.7523435.506097-1.5649256.9144635-2.4185223 1.2154387-.3768514 1.285033-.6485629 2.5991009-.8123993 3.9289762 0 .3768802 1.4380402 2.8266015 1.8675847 5.7097351.5789513 3.7122701.1494068 8.0275485-.737696 8.0652365-.4198034.0138955-.8391012-.0401815-1.2419438-.1601741.0686812-.1240837.1279896-.2532174.1774205-.3863022 1.0551854-2.9679317.7003443-5.8887533 0-8.903795-.2801377-1.5828968-2.0543432-10.4961138 2.0916949-9.7611973z" fill="#8fcae7" opacity=".06"/><path d="m40.6759958 5.29516693c3.8845762 2.70411549-3.6604661 14.83023617-4.4635276 16.14931697l-2.8854184-15.92318885c2.1308748-1.70596646 5.1190063-1.7979117 7.348946-.22612812z" fill="#380d09"/><path d="m34.7837659 5.47418503-.1774206 10.15692157c-.0747034 4.6450486-6.9941048 8.960327-9.9262129 8.913217-1.8675847 0-6.247071-4.5414065-6.1630296-9.1864551l.1587447-10.15692162z" fill="#bf7f5d"/><path d="m26.2489036.06595404 3.0068114.05653203c3.7351695.05653203 7.5637183 3.76880208 7.7318009 7.53760416.364179 8.40442867-4.1460381 12.12612067-4.1460381 12.12612067s1.4193644-4.1456823-.3828549-6.7084677c-.0840413-.122486-1.1112129 1.2060167-1.1952543.3486142-.0354307-1.7733533-1.3335103-3.2622688-3.0721769-3.52382993-2.233131-.26595539-4.3400595-1.18641436-6.0603125-2.64758346-.514623.59406647-1.0906106 1.13102066-1.7181779 1.60174089-.9075089.52237266-1.842703.99418011-2.8013771 1.4133008.0186758-3.83475614-.3548411-10.60917789 8.6375794-10.20403166z" fill="#380d09"/><path d="m34.7931038 12.3428268c.5789513.4899443-.2241102 4.6450486-2.3718326 4.4000765l-.1120551-3.552096s1.4940678-1.6771169 2.4838877-.8479805z" fill="#bf7f5d"/></g><path d="m147.657348 207.463586-6.610818 2.356414-4.655905-5.881609c1.531902-1.579995 2.843803-3.358553 3.900383-5.287792.651638-1.319592 1.624372-2.978507 2.27601-4.298099h.330541c2.965424.631519 6.610818 2.243306 7.602441 3.223574-.944403 1.64949-3.239301 6.597959-2.880428 9.887512" fill="#e8eae9"/><g transform="translate(90.03125)"><path d="m9.48974035 178.209996s2.81594665 5.2616 2.39355465 6.393126c-1.1966069 1.710824-3.2557399 2.5916-5.31275272 2.272483-2.24337086-.339458-5.40661765-3.139986-5.9604205-3.309715-1.26717601-.414894.23466223-7.439789.23466223-7.439789z" fill="#1a1a1a"/><path d="m29.4548024 37.3443429c-1.5299977 3.894338 1.22963 6.3271205 5.1437959 7.5435118s25.2121094 3.5171624 26.2821692 2.78167c1.0700597-.7354924 2.5625115-6.6005729 1.0982192-7.8169641-1.4642923-1.2163913-19.2798484-5.9216568-22.6777574-6.3931263s-8.10054-.7166336-9.8839729 3.847191" fill="#f5a37e"/><path d="m31.6043084 34.4212321c1.3047219-.942939 4.7683364-2.6307998 11.000965-1.0843798 4.1582147 1.0372328 12.0428654 3.2154219 12.0428654 3.2154219.4051075 2.2713916.2732831 4.6066269-.3848461 6.8174487-.6424991 2.3634633-1.9108667 4.5077096-3.6701171 6.2045385 0 0-16.5859261-4.1395021-19.1390511-6.5345671-.7603056-.7072042-3.4636144-6.0913858.1501839-8.6184622" fill="#152831"/><path d="m21.2228516 15.2135652s-.5538029 12.0696188-1.2484031 12.6448116c-2.1401195 1.8481604-10.07170264 3.3851509-11.52660843 6.5251377-1.80220588 3.8377616 7.97851563 21.0935449 9.24569163 26.7888963s-1.4079733 14.5212602-2.2809168 20.1034589 16.604699 12.3902181 17.2523667 12.3902181c.6476678 0 6.2795611-5.2710289 7.3590074-7.1003305 1.0794462-1.8293016 0-16.1431152.0563189-19.8017184s.88233-16.4542851 1.0419003-17.2935008c.659325-3.7203457.4797029-7.5418714-.5256434-11.1832562-.2065028-1.1786738-.1407973-3.1588456-.7321461-3.9131968-1.1733112-1.5087023-7.7063075-3.507733-7.8095589-4.2620841-.1032513-.7543512-.9386489-11.2304032-.9386489-11.2304032z" fill="#f6af8a"/><path d="m19.9744485 27.7735123 10.5316407 6.3459793 1.5206112-4.1300727s6.9084559 2.1876184 7.8001723 3.6963208c.8917165 1.5087023 1.3234949 5.3370346 1.6144761 6.5439964.4123072 3.8738688.4123072 7.780857 0 11.6547258-.2815947 2.8288169-.2158892 6.6005728-.6570542 11.4189909-.3754596 4.1300727.0469324 14.4269663.0469324 14.4269663s-3.9235524.1508703-10.0153837-.1602996c-7.0586397-.3583168-14.1735984-1.4615554-14.4833525-1.7161489-1.3610409-1.1220974.5444164-12.0979071.3003677-13.3142983-.2440488-1.2163913-8.87023212-22.2533598-9.00164297-25.0067416-.2087758-2.4025612 1.12148098-4.673955 3.31343057-5.6576339 2.0744141-1.0278034 9.0579619-4.1300727 9.0579619-4.1300727" fill="#182e38"/><path d="m12.0804113 32.2807606s-7.16189108 3.2625688-.3566866 8.5713153c2.9379711 2.2913417 17.008318 5.8650804 19.6553079 6.6760079 9.4615809 2.9231108-5.1719554 23.9789381-6.2983341 25.572505-.7093459 1.130148-1.0927591 2.4357941-1.1076057 3.7717559l-9.1142808-1.0560917c-2.8159467.556334 1.5112248-13.0597048.441165-16.0299625-1.0700597-2.9702578-7.8940372-19.8017185-7.8940372-21.9704781-.05652397-2.7763842 1.95698863-5.1591428 4.6932445-5.5539106" fill="#182e38"/><path d="m31.4353516 23.4265636-10.6630515-3.8754791-.2722082 6.3365499 3.2852712 2.00846z" fill="#e6a37b"/><path d="m33.7256549 3.0590818c-2.8159467-2.36677682-10.7475299-4.3186605-14.4082606 1.04666226s-1.7740464 10.43833444.441165 13.54060364c1.594156 2.3445849 3.8983186 4.1103655 6.5705423 5.0352941.6570542.264023 6.4954503 1.0372329 7.640602.5940516.7790786-.3017405 1.1639246-6.1291033 1.3985868-6.1196739.4390707-.0576836.7913704-.3925661.8729435-.8297863 0-.6789161-.8729435-4.8278476-.7227596-5.2710289.1501838-.4431813 1.3985868-5.28988764-1.7834329-7.9961225" fill="#f7ae83"/><path d="m35.4339959 5.57672886s-4.5149012-2.32905926-9.8182675 2.93254021c-1.1451517 1.12209738 1.267176 5.65763383.9855813 6.07252703-.2815946.4148931-4.4961282-3.2059925-4.3177849-2.6873761 1.8022059 5.2710289.1783433 8.2790042-.3003676 8.3355805-1.4736788.1602996-6.2983341-7.1946244-4.2896255-13.37087463 2.0087086-6.17625028 8.4478401-7.04375414 10.0529297-6.77973122 1.6050896.26402291 6.2795611.42432253 7.6875345 5.49733421" fill="#432918"/><path d="m24.9211282 12.9787998c.5819623 1.6784314.9386489 3.9603437 0 4.2715136-.9386489.3111698-2.11196-.8014982-2.7033088-2.4799295-.5913488-1.6784314-.3191406-3.2908571.5819623-3.6020269.901103-.3111699 1.5299977.1320114 2.11196 1.8104428" fill="#f6af8a"/><path d="m25.446772 178.577742h6.814591v1.282397h-6.814591z" fill="#1a1a1a"/><path d="m25.7095933 169.572675c-.8635841 1.47125-1.404419 3.110815-1.5863166 4.808989-.1032514 1.348403.6946001 4.196078 1.5769301 4.196078 2.7825087-.024203 5.5636418.133285 8.3258157.47147 2.6563764.358317 3.6513442 1.885878 10.4565487 1.885878 1.9899357 0 5.4910961-.122582 5.4910961-.942939 0-3.536021-6.5705423-2.281912-8.5980239-4.196079-5.2376609-4.856135-8.7294348-6.02538-8.7294348-6.02538s-6.7488855-.443181-6.9366153-.188587" fill="#1a1a1a"/><path d="m28.947932 76.2122874s-9.0861213 9.1182199-9.4991269 13.0974223c-.4130055 3.9792025 3.4072955 16.7088783 4.75895 26.7228903 1.3516544 10.014012 2.1964384 12.031902 1.8772977 14.398678-.3191406 2.366777-3.0130629 11.928178-2.919198 18.311875.1032514 7.439789-.2815947 22.630536-.2815947 22.630536s1.9805492 1.555849 7.0774127 1.527942c2.2261218-.145325 4.3564174-.963862 6.1106043-2.348299 0 0 2.0368681-37.340384 2.4123277-41.244151.2628217-2.536506 2.3372357-20.075171 2.9661305-34.379555.2065028-4.6015422-.844784-17.7555409-.844784-19.6508482z" fill="#007bc7"/><path d="m30.0367647 31.7244266.4693245 2.5082177-5.547415-3.3002864z" fill="#bacfed"/><path d="m30.5060892 34.2326443.8823299-3.1022692 1.3328815 1.0466622z" fill="#bacfed"/><path d="m14.8024931 75.5616595c-1.9835573 4.8708776-3.6792025 9.8551188-5.07809053 14.926724-1.4455193 5.978233-3.16324678 36.9160605-3.67950367 39.8203125-.5162569 2.904252-2.32784927 11.805596-3.75459559 20.593788-1.42674632 8.788191-2.20582491 26.496585-2.20582491 26.496585l11.1793084 1.716149 7.7344669-42.837718c1.0512867-5.817933 12.2024356-47.0809429 12.2024356-47.0809429l1.3704274-13.2860102z" fill="#007bc7"/><path d="m15.1497932 100.860712c-.9386489 3.960344-3.6795037 30.862393-3.9047794 32.389954s-7.15250461 42.781141-7.50919119 44.685878l-3.68889017-.575193s.83539752-17.651817 2.23398438-26.449438 3.21017923-17.680106 3.75459559-20.593787c.54441636-2.913682 2.23398437-33.8420801 3.67950367-39.8297425 1.40264362-5.0715948 3.10141052-10.0557991 5.08747702-14.926724l9.808881.3017405s-8.522932 21.0275391-9.4615809 24.987883" fill="#01689b"/><path d="m14.5490579 75.5616595s17.2523667.2923111 18.2848805.3205992c1.0325138.0282882 7.8095588-.6411985 7.8095588-.6411985l.1314109 2.7345231s-6.5705423.5469046-9.7244026.5469046-17.1209559-.7354924-17.1209559-.7354924z" fill="#3b1b1d"/><path d="m33.7913603 78.8808048h-1.4079734c-.7942677.0002622-1.4439264-.6356317-1.4642922-1.4332674v-.2168759c0-.3901294.1542732-.7642802.4288812-1.0401433.2746081-.2758632.6470566-.4308415 1.035411-.4308415h1.4079734c.8087063 0 1.4642923.6585823 1.4642923 1.4709848v.2168759c-.0203658.7976357-.6700246 1.4335296-1.4642923 1.4332674" fill="#732d1d"/><path d="m28.5630859 32.6202186 3.9517119-1.0278035-.3191406 3.2531395-2.0087087.4620401z" fill="#1a1a1a"/><path d="m32.1956572 34.8455546c2.1776621 4.5495588 3.5709977 9.4373627 4.1206686 14.4552545 1.0606733 8.7693324 1.4924518 29.3159727 1.4924518 29.3159727l-2.2715304 4.01692-2.7502412-4.7146949s.9949678-21.4707204.3379136-27.8921348c-.642034-4.9590115-1.6236857-9.8676493-2.9379711-14.6909892z" fill="#182e38"/><path d="m18.5195427 28.5372929 1.9805492-2.6496585 9.5460593 5.8367922-1.5206112 3.4228685z" fill="#152831"/><path d="m31.3884191 31.1303751 2.2621439 2.6119409.3566865-2.7910994-1.8960707-1.8293016z" fill="#e0f2fd"/><path d="m9.01102941 33.6668809c-2.90042509 2.9985459-1.38920037 6.2516854 1.62386259 8.8730557 3.013063 2.6213704 15.7129825 8.2884336 16.989545 8.0244107s4.8997473-5.0824411 4.0643498-6.751443c-.8353976-1.669002-9.386489-8.2695749-12.2869141-9.9762944s-6.9835478-3.6868914-10.39084329-.169729" fill="#f8bc96"/><path d="m61.9508272 47.5186544c4.1957606-1.7350077-.1220244-10.1271646-2.4311006-14.1440846-2.3090763-4.01692-10.2218865-14.9172946-10.2218865-14.9172946l-4.4491958 2.2536242c2.1557837 8.0385901 5.1052592 15.8408304 8.8045267 23.2905926.6007352 1.159815 4.0361902 5.2521701 8.2976562 3.4888742" fill="#f6af8a"/><path d="m46.1158203 10.1688417c-.4664293.1407706-.7311094.6345661-.5913488 1.1032386l1.0606733 3.6208856c.1401302.4685612.631679.734451 1.0982192.5940516.4426937-.1635548.6958076-.6317358.5913488-1.0938092l-1.0700598-3.6303151c-.1401302-.4685611-.631679-.734451-1.0982192-.5940515" fill="#f5a37e"/><path d="m44.4919577 10.4988703c-.4426937.1635548-.6958076.6317358-.5913488 1.0938092l1.0700598 3.6208857c.0652256.2243189.2168814.413206.4213077.524738.2044262.1115321.4447115.1364825.667525.0693135.4426937-.1635548.6958076-.6317358.5913488-1.0938092l-1.0700598-3.630315c-.1441916-.4599854-.6280062-.7197579-1.0888327-.5846222" fill="#f5a37e"/><path d="m42.9338006 10.8949047c-.4616662.1408519-.7250936.6281096-.5913489 1.0938092l1.0606733 3.630315c.1401302.4685612.631679.734451 1.0982192.5940516.4500995-.1525109.6961935-.6385683.5538029-1.0938092l-1.0606733-3.6303151c-.1401302-.4685611-.631679-.734451-1.0982192-.5940515" fill="#f5a37e"/><path d="m41.4695083 11.4418093c-.4426938.1635548-.6958076.6317358-.5913488 1.0938092l1.0606732 3.6208856c.1401302.4685612.631679.734451 1.0982192.5940516.4616662-.1408519.7250936-.6281096.5913488-1.0938092l-1.0606732-3.6303151c-.1401302-.4685611-.631679-.7344509-1.0982192-.5940515" fill="#f5a37e"/><path d="m46.3129366 23.8886037s-4.0268038-4.7618418-4.5149012-5.8839392c-.4880974-1.1220973-.9386489-5.8650804-.9386489-5.8650804s1.9336167.942939 2.9191981.4808989c.9855813-.4620401 3.4448414-1.885878 3.4448414-1.885878 1.0552415 1.7056515 1.9178704 3.5241867 2.571898 5.4218991.2692704 1.2584842.4107919 2.5411581.422392 3.8283323z" fill="#f6af8a"/><path d="m11.9865464 31.6395621c1.5487707-.3300286 5.2939798-.5186164 7.5748966 1.4615554 1.8286846 1.6187855 3.8163039 3.0468077 5.932261 4.2620842-1.7838485 1.1068023-3.0670392 2.8695264-3.5762523 4.912712-1.1076057 3.7717559.9386489 9.5425424.9386489 9.5425424s-13.14108452-8.7976206-14.82126604-11.8621723c-.77237492-1.6193389-.77031004-3.503541.00561226-5.1211677.77592229-1.6176267 2.24160228-2.7933486 3.98364558-3.195554" fill="#182e38"/><path d="m61.9508272 16.3262332h-13.4602252c-.4095371 0-.7415326-.3335129-.7415326-.7449218v-7.07204233c0-.41140894.3319955-.74492179.7415326-.74492179h13.4602252z" fill="#1a1a1a"/><path d="m50.2646484 15.1475594h-9.5836052c-.4095372 0-.7415326-.3335128-.7415326-.7449217v-4.71469491c0-.41140895.3319954-.74492179.7415326-.74492179h9.5836052z" fill="#1a1a1a"/><path d="m37.1798828 14.2706262h-1.267176c-.2954888 0-.5350299-.2406358-.5350299-.5374752v-3.3662922c0-.2968393.2395411-.53747517.5350299-.53747517h1.267176c.2933859.00503917.5300136.24274837.5350299.53747517v3.3474334c-.0050163.2947268-.241644.5324361-.5350299.5374752" fill="#1a1a1a"/><path d="m35.462155 10.470582h5.209501v3.139987h-5.209501z" fill="#1a1a1a"/><path d="m62.5891085 12.0452902c0 2.3573475-.2815947 4.280943-.6382813 4.280943s-.6382812-1.885878-.6382812-4.280943c0-2.39506497.2909811-4.28094292.6382812-4.28094292s.6382813 1.88587795.6382813 4.28094292" fill="#626161"/><path d="m59.6135915 17.0994431h-13.4602252c-.4095372 0-.7415327-.3335128-.7415327-.7449218v-7.07204227c0-.41140894.3319955-.74492179.7415327-.74492179h13.4602252z" fill="#313131"/><path d="m47.9180262 15.8924812h-9.5742188c-.4074221-.0050848-.7364709-.3356375-.7415326-.7449218v-4.7146948c.0050617-.4092842.3341105-.73983695.7415326-.74492181h9.5742188z" fill="#313131"/><path d="m34.8332606 14.9966892h-1.267176c-.2970009-.0051449-.5350741-.2485019-.5350299-.5469046v-3.338004c0-.2968393.239541-.5374752.5350299-.5374752h1.267176c.1426714-.002583.2802575.0532138.3811578.1545753s.1564433.2395764.153872.3828999v3.338004c.0025183.144174-.0527371.2833179-.1533489.3861627-.1006118.1028449-.2381408.1607419-.3816809.1607419" fill="#313131"/><path d="m33.115533 11.215504h5.209501v3.139987h-5.209501z" fill="#313131"/><path d="m60.2518727 12.7807826c0 2.3667768-.2815947 4.280943-.6382812 4.280943-.3566866 0-.6382813-1.885878-.6382813-4.280943s.2909812-4.28094292.6382813-4.28094292c.3473 0 .6382812 1.88587792.6382812 4.28094292" fill="#626161"/><path d="m44.5013442 11.4418093h-5.8102367c-.3473289 0-.6288947-.2828527-.6288947-.6317691 0-.3489165.2815658-.6317691.6288947-.6317691h5.8102367c.347329 0 .6288948.2828526.6288948.6317691 0 .3489164-.2815658.6317691-.6288948.6317691" fill="#575757"/><path d="m57.9146369 10.3008531h-11.1793083c-.2412823.029779-.4780416-.0828034-.6080653-.2891436-.1300236-.20634018-.1300236-.46948141 0-.67582162.1300237-.20634022.366783-.31892258.6080653-.28914359h11.1793083c.2412824-.02977899.4780416.08280337.6080653.28914359.1300237.20634021.1300237.46948144 0 .67582162-.1300237.2063402-.3667829.3189226-.6080653.2891436" fill="#575757"/><path d="m44.4544118 15.3644354h-5.6882124c-.378433 0-.6852136-.3081827-.6852136-.6883454v-.1320115c0-.3817178.3052672-.6926165.6852136-.6977748h5.6882124c.3836171 0 .6946001.3124044.6946001.6977748v.1320115c-.0051348.3816829-.314619.6883803-.6946001.6883454" fill="#3d3d3d"/><path d="m57.8207721 16.5242503h-10.9634192c-.4043531 0-.7321461-.3292911-.7321461-.7354924v-.2451641c.0051374-.402514.3314305-.7260961.7321461-.726063h10.9634192c.4007156-.0000331.7270087.323549.7321461.726063v.2451641c0 .4062013-.327793.7354924-.7321461.7354924" fill="#3d3d3d"/><g fill="#f8bc96"><path d="m26.4417394 50.4511946c4.1769876 1.7632959 7.0774127-7.2134831 8.2694968-11.6735845 1.1920841-4.4601013 3.3509766-17.7932584 3.3509766-17.7932584l-4.6932445-1.5841375c-4.1703085 7.1959896-7.6135223 14.7930462-10.2782054 22.6776823-.4036191 1.2352501-.88233 6.6005729 3.3697495 8.3732981"/><path d="m42.539568 9.72566035c-.4637724-.14114835-.9540696.11985474-1.0982192.58462215l-1.0794462 3.6020269c-.1405062.465892.1193094.9584301.5819623 1.1032386.4635143.1167664.9403684-.1349292 1.1076057-.5846222l1.1076057-3.6114562c.0701184-.2238198.0480233-.4665327-.0613444-.6738634-.1093677-.20733066-.2968845-.36198357-.5206179-.42937524"/><path d="m41.6103056 9.08446184c-.4406567-.20797914-.9657298-.01808887-1.1733111.42432254l-1.6332491 3.40400972c-.1784236.4412889-.0012382.9469572.4130055 1.1786737.4357178.2029895.9530245.0185901 1.1639247-.4148932l1.633249-3.4040096c.1026593-.2110379.1167499-.45462671.0391147-.67618938-.0776353-.22156268-.2405059-.40257643-.4521202-.50248439"/><path d="m39.9582835 8.96187978c-.4253672-.23177024-.9571913-.07612121-1.1920841.34888742l-1.8115923 3.3097158c-.1130896.2073514-.1390267.4514978-.0720441.6781544.0669826.2266567.2213324.4170358.4287307.5288075.4281088.2020422.9389847.0525241 1.1920841-.3488874l1.8115923-3.3097158c.2067532-.43249161.0572693-.95198841-.3473001-1.20696192"/><path d="m38.1654642 8.96187978c-.4253673-.23177024-.9571914-.07612121-1.1920841.34888742l-1.8115924 3.3097158c-.1138205.2062022-.1411668.4494636-.0759895.6759722.0651772.2265086.217506.4175953.4232896.5309897.4253672.2317702.9571913.0761212 1.1920841-.3488874l1.7834329-3.3097158c.205044-.43481633.0513236-.95497795-.3566866-1.20696192"/><path d="m32.1862707 22.6910712s.5256434-6.2233972.9386489-7.3643533c.4130055-1.1409562 3.4823874-4.8278476 3.4823874-4.8278476s.6946002 2.0367482 1.7177275 2.4233532c1.0231273.3866049 3.7545956 1.1503855 3.7545956 1.1503855-.4637338 1.9546358-1.1405185 3.8519696-2.0180952 5.6576339-.6929678 1.0883347-1.4949982 2.1025638-2.3935547 3.0268341z"/></g><path d="m22.8185547 51.8184561c1.5446573.039829 3.0695846-.3553939 4.4022633-1.1409561 0 0-5.2188879-2.1593303-5.2188879-2.0650364 0 .4431813.8353976 3.2059925.8353976 3.2059925" fill="#152831"/></g><path d="m204.25 120.3775h27.546875v8.7425h-27.546875z" fill="#402a1b"/><path d="m186.78125 106.9275h4.03125v92.805h-4.03125z" fill="#1e2020"/><path d="m92.046875 106.9275h4.03125v92.805h-4.03125z" fill="#1e2020"/><path d="m90.6925746 129.7925h-39.3897675c-4.342179 0-4.8215105-1.895937-1.0808454-4.322736l22.3594027-14.219528c4.4935243-2.597484 9.5353543-4.079207 14.7088967-4.322736h104.9265959c5.170571.243576 10.20934 1.725346 14.699498 4.322736l22.350004 14.219528c3.759463 2.379401 3.270733 4.322736-1.071446 4.322736h-39.389768s-98.1125704-.483464-98.1125704 0" fill="#402a1b"/><path d="m228.199549 121.694085c4.341202 0 4.820426-1.894367 1.071206-4.319155l-22.344976-14.207747c-4.493202-2.592356-9.533931-4.0696138-14.705588-4.309683h-104.893593c-5.1870219.2417073-10.2417077 1.729021-14.7431737 4.338099l-22.3543724 14.207746c-3.7586166 2.37743-3.2605999 4.319155 1.0806023 4.319155" fill="#88522e"/><path d="m64.5 117.542048 10.230163-11.287048 24.707337 1.590271-7.5232768 9.842229z" fill="#fff"/><path d="m4.703125 195.6975h52.40625v3.3625h-52.40625z" fill="#657a81"/><path d="m10.4140625 199.06c-2.78299737 0-5.0390625 2.258164-5.0390625 5.04375s2.25606513 5.04375 5.0390625 5.04375c2.7829974 0 5.0390625-2.258164 5.0390625-5.04375s-2.2560651-5.04375-5.0390625-5.04375" fill="#020203"/><path d="m51.3984375 199.06c-2.7829974 0-5.0390625 2.258164-5.0390625 5.04375s2.2560651 5.04375 5.0390625 5.04375 5.0390625-2.258164 5.0390625-5.04375-2.2560651-5.04375-5.0390625-5.04375" fill="#020203"/><path d="m51.1017227 200.40523c-1.3621739-.015901-2.599079.793174-3.1314052 2.048292s-.2546669 2.707751.7029348 3.677552c.9576018.9698 2.4055301 1.264737 3.6656412.746676 1.2601112-.518062 2.0828889-1.74654 2.0829815-3.110072 0-.891777-.3539282-1.747028-.9839244-2.37761-.6299963-.630581-1.4844545-.984838-2.3754037-.984838" fill="#323d40"/><path d="m4.703125 195.6975h52.40625v1h-52.40625z" fill="#93989a"/><path d="m10.7598425 200.405c-1.35960494-.003953-2.5875399.812761-3.1105871 2.068903-.52304721 1.256143-.23806001 2.703998.72192544 3.667685.95998546.963688 2.40565686 1.253166 3.66215396.733302 1.2564971-.519863 2.0760402-1.74655 2.0760402-3.107425-.0053446-1.85099-1.5002863-3.351697-3.3495325-3.362465" fill="#323d40"/><g fill="#657a81"><path d="m6.56225553 142.055651c-.32067802-1.221628-.5094123-2.473832-.56299535-3.735332 0-3.044295.30964744-4.986668-2.12061583-5.164096-1.01339164-.074707-1.18229024 3.287092-1.18229024 6.331387-.06547005 1.601882.23280653 3.197842.8726428 4.669165.34963387.872074.77998827 1.709904 1.28550605 2.502672 1.76405211 2.801499 4.41013026 5.080051 5.45167164 4.58512 2.4396466-1.167291.4503963-2.577379-1.87665115-5.472261-.7967946-1.152348-1.42841426-2.409539-1.87665118-3.735332"/><path d="m27.546875 156.6925h6.71875v39.6775h-6.71875z"/><path d="m27.546875 156.02h6.71875v39.6775h-6.71875z"/></g><path d="m49.2298034 148.516301-36.8606785-1.874973c-1.6438103-.212162-3.26768721.516387-4.2048927 1.886517-.93720548 1.370131-1.02982159 3.150977-.23982163 4.611351.78999995 1.460375 2.32950193 2.354207 3.98641103 2.314503l36.8606785 1.874973c1.6438103.212162 3.2676872-.516387 4.2048927-1.886517.9372055-1.370131 1.0298216-3.150977.2398216-4.611351-.7899999-1.460375-2.3295019-2.354207-3.986411-2.314503" fill="#e8e0dd"/><path d="m3.24788198 106.329846c-1.92872983.330807-3.36563355 1.247615-3.24026611 2.0321 1.3404853 8.392349 1.3404853 16.938018 0 25.330367-.12536744.793937 1.31153628 1.710745 3.24026611 2.041552 1.92872982.330807 3.58743747-.103968 3.72244855-.945163 1.45622596-9.096687 1.45622596-18.360297 0-27.456984-.13501108-.879001-1.82264968-1.313776-3.72244855-.945163" fill="#e8e0dd"/><path d="m1.64622759 133.732875h-.05353586c-.08534676.009117-.17162534.009117-.25697211 0-.37475099-.056776-.65313745-.208176-.66384462-.350114 1.62741398-8.414267 1.62741398-17.011584 0-25.42585 0-.141938.28909363-.293339.66384462-.350114.09251219-.009063.18587426-.009063.27838646 0 .26767928 0 .4818227.066238.50323705.179788.81417393 4.226697 1.22961327 8.505866 1.24203187 12.793357v.274413c-.01291145 4.287472-.42834729 8.566604-1.24203187 12.793357 0 .11355-.21414343.179788-.47111554.179788" fill="#e9e3e3"/><path d="m48.9655836 153.33h-.0937528l-38.0448561-1.71694c-.5191667-.012062-.99264225-.308169-1.24207306-.776782-.24943081-.468612-.23692239-1.038537.03281345-1.495088.26973585-.456552.75571981-.730369 1.27488651-.718307h.0281258l38.0354809 1.71694c.7859205.015406 1.4194427.667204 1.4344167 1.475797v.086812c-.0390057.786077-.6602371 1.40841-1.4250414 1.427568" fill="#e9e3e3"/><path d="m48.7697123 90.5504783c-4.2546014-4.5522041-10.0563306-12.880561-13.6478772-9.8899237-4.4664106 3.7193684-1.961537 6.3882282 5.9674929 13.5619719 7.9290298 7.1737435 16.2816781 15.7103095 19.4680246 11.6596995s-7.5238298-10.7795436-11.7876403-15.3317477" fill="#76d2b6"/><path d="m65.9505806 104.08542c-5.8511336-.831155-7.8729425-1.337075-11.7115842-1.156389 0 0-4.2392767 3.613717.1770247 5.926496 2.6553711 1.418384 7.1462093 1.590036 12.7364643 1.337076 5.1616688-.243926 13.0998309-1.102184 13.0998309-1.102184l.3726837-2.782562s-8.8326029-1.391282-14.6744194-2.222437" fill="#f5a37e"/><path d="m65.3103947 103.359115c-6.0063078-.874265-7.8235028-1.663003-11.677869-.69371-1.6259113.408624-3.3952854 4.314305.210412 6.652012 2.591894 1.691511 6.9818545 1.805546 12.7108009 1.529963l10.7118864-.484647v-5.511667s-5.9297942-.608184-11.936102-1.482448" fill="#76d2b6"/><path d="m75.2655235 96.3067361c-.058455-.072253-.1482744-.1209719-.2489821-.1350502-.1007076-.0140783-.2037202.0076838-.2855541.0603254-.1677251.1096186-.2027142.3152294-.0786083.4619355l.5738404.6793171c.0584551.072253.1482744.1209719.2489821.1350502.1007076.0140783.2037202-.0076838.2855541-.0603254.0836088-.0505157.1399847-.1281358.1562756-.2151653.016291-.0870296-.0088915-.176051-.0698065-.2467702z" fill="#cadbd9"/><path d="m75.4479737 97.1755752c-.2877104-.3729143-.8234292-.4459967-1.2013866-.1638924-.1816398.134236-.3014196.3354988-.3323962.5585166-.0309767.2230179.0294508.4490643.16769.6272927l8.9038248 11.8195299c.2809694.375988 1.8795887 1.8703 2.2574442 1.581079.3778554-.289222-.6103819-2.227008-.8913514-2.602996z" fill="#91a5a3"/><path d="m75.921875 99.7043519.3652913.4981481.9784587-.8397354-.3587682-.5052646z" fill="#cadbd9"/><path d="m76.3390925 98.9524127c-.0396217-.0510574-.0983757-.0844822-.1632184-.0928541-.0648428-.0083718-.1304086.009002-.1821417.0482645-.0958099.0968739-.0958099.2509252 0 .347799l2.8446772 3.5671699c.0956356.092944.2497245.092944.3453602 0 .1095083-.084244.1297509-.239174.0454421-.3478z" fill="#e5eeeb"/><path d="m79.6081861 104.91c-1.0186332.287029-2.0187113.650814-2.9933737 1.088859 0 0-.1416982 3.731815.3099647 3.622929s2.1431848 1.821363 3.0022299 1.979743c2.0546234.30686 5.5882214-1.554098 5.3933864-3.217082s-3.8169943-3.741714-5.7122073-3.444753" fill="#f8b999"/><path d="m66.4089245 136.86828s-37.5816023-11.193404-44.1319168-12.359384c-6.5503145-1.165979-6.2762032 8.544299-6.0777088 12.984349.1984943 4.440051 8.18553 6.650748 10.2744471 5.811243 2.088917-.839505 35.7857008.615637 39.7839447 1.268586 2.1456297.34513 5.3120876-5.596702.1512338-7.704794" fill="#f5a37e"/><path d="m66.0727981 161.356595c1.2270574-8.5834 2.6601854-16.489906 2.688286-22.215307 0-1.927269-5.3391045-4.569039-8.5519341-.43246-3.2128295 4.136578-4.7864603 11.065347-4.2057156 18.755623.5713779 8.066328 1.6953998 21.519609 1.1708562 25.383549-.9366849 6.825355-3.053593 5.951032-2.7163864 9.79617.1498696 1.814454 3.7467399 2.905006 7.8119528 5.104914 4.8520283 2.651171 7.3342436 5.104914 8.1678932 3.478486.936685-1.823855-4.3743189-2.820394-7.6058822-14.506228-.936685-3.459684 2.0419733-16.837755 3.2690307-25.38355" fill="#f5a37e"/><path d="m69.470148 198.614629s-2.8626364.794762-4.4918539-.308555-4.1144646-6.021492-5.7712959-8.003723c-.9810059-1.177094-2.0290599-2.294793-3.138775-3.347351 0 0-2.05263 1.178118-1.5739898 4.675072.5413094 3.23757.8183903 6.515033.8284157 9.79895v.682561l1.0585311.065451s.2485248-5.937342 1.159782-6.423549c.6535279-.345955 1.8409237.542308 3.4149135 2.244034s3.1295704 4.403918 3.8107122 4.609621c1.3714881.392706 9.0297309 1.065916 9.7937142-.486207.3681848-.738662-5.0901541-3.506304-5.0901541-3.506304" fill="#020203"/><path d="m70.5081523 142.734423c-11.0273282-5.573328-37.8482722-12.657096-44.6827714-14.138856-6.8344992-1.481759-7.4643636 8.536849-7.6805858 13.135084-.2162221 4.598235 8.0378224 7.227163 10.341058 6.452824s37.7260597 3.470186 42.0222992 3.106916c2.1152164-.181635 3.2997376-6.892573 0-8.555968" fill="#f8bc96"/><path d="m65.5295453 143.424842c-4.2463507 3.115492-7.7000492 9.393825-9.2853535 16.988429-1.6702313 7.973388-4.2935323 21.306559-5.8788366 24.89553-2.7742825 6.33515-4.5860587 4.914713-5.3220929 8.730955-.3585807 1.79922 2.8309005 3.854119 6.1524904 7.102186 3.9726969 3.929876 5.6618009 6.988551 6.9451424 5.681749 1.4248866-1.505664-3.4536985-3.977224-3.3593352-16.155106 0-3.617381 6.6054344-15.738445 10.1629327-23.673955 3.5574982-7.935509 8.7003007-16.28768 7.4169592-21.912612-.6039255-2.632543-2.5761195-4.73479-6.8319065-1.657176" fill="#f8b999"/><path d="m57.7670867 204.653816s-3.0262721 0-4.2965591-1.549722c-1.270287-1.549721-2.3631075-6.969049-3.4372472-9.335896-.6318594-1.415434-1.3460758-2.792217-2.1389392-4.123198 0 0-2.3350865.544751-2.8021037 4.066844-.3578038 3.283076-.9825848 6.531144-1.8680692 9.711587l-.2241683.657457 1.027438.356906s1.8680692-5.63535 2.8768265-5.879549c.7378874-.159668 1.6812623 1.04254 2.727381 3.12762 1.0461187 2.085079 1.8680692 5.128168 2.4378303 5.51325 1.2329256.770165 8.5183953 3.569055 9.6952789 2.291709.5604207-.619888-3.997668-4.837008-3.997668-4.837008" fill="#020203"/><path d="m43.9443149 95.495s1.0423946-7.8588097 1.0710844-8.98678c.0286898-1.1279704-2.6872743-3.79072-2.6872743-3.79072z" fill="#76d2b6"/><path d="m40.7683679 75.411932c-1.5329989 2.0144359-3.5288529 3.6584516-5.8308679 4.8029758 0 0 0 7.3076526.8649121 10.3188933 2.1574211 7.3639376 6.0446663 8.9961989 6.0446663 8.9961989.3713601-4.8887092 1.0529068-9.7508389 2.0408037-14.5590205 1.4382808-6.3601906 5.8308679-7.6266002 5.8308679-7.6266002l-5.9474852-8.0768793c-.6754865 2.1846946-1.7054265 4.2522348-3.0514875 6.1256703" fill="#76d2b6"/><path d="m36.9307706 78.7189104-1.9932706 2.2938549s3.5953385 6.5902815 4.303229 7.9556714c.7078905 1.3653898 4.2846003 6.5265633 4.2846003 6.5265633l1.4902957-.5097455s-1.7697262-5.3523281-2.9712771-8.1104156c-1.201551-2.7580874-5.1135773-8.1923389-5.1135773-8.1923389" fill="#8bd9c1"/><path d="m62.1323312 134.5-9.0542062 15.215072 5.3365228.924928s9.4118568-6.141524 9.8353904-7.658407c.4235335-1.516882 1.3929548-5.642063.7247129-6.012034-2.170915-1.091804-4.4684712-1.921035-6.8424199-2.469559" fill="#76d2b6"/><path d="m37.2366557 112.11537c2.1419621-5.50102 5.711899-3.960357 7.7777025-7.353597 1.7421292-2.835578.8758245-8.8753573-.8948642-11.909425-.8663047-1.4745002-9.8054267-13.497348-9.8054267-13.497348-4.7599158 2.1361349-9.6531093 7.1456548-10.2814182 16.6826465-.3903131 5.9358085-.9519832 10.0379435-1.1138203 19.1401465-.171357 8.138107-6.1593312 11.020944-8.5678486 16.153339-2.6941124 5.74677 1.075741 15.699646 4.7599159 15.699646 15.2317307 0 36.0040035 4.281722 36.0040035 4.281722s8.0156984-5.964164 8.9676815-7.240174c1.7611689-2.4575 1.7611689-8.364953 1.7611689-8.364953s-16.1837139-5.482116-26.5127314-7.703318c-3.8079326-.812866-4.4267217-9.896165-2.0943629-15.888685" fill="#8bd9c1"/><path d="m23.9373472 136.660768c-1.7134281-6.153492-.6704719-10.747473.9312108-15.47298 1.6016827-4.725506 6.9188969-28.8979277 9.5542237-25.1024911 10.2433197 14.7777761 17.6278219 3.147206-2.1324729-18.0752969-.8287777.6482305-5.5313927 3.6920955-7.2355086 12.9458207-.6518476 3.5605705-.8194656 11.7433063-2.7005115 22.5471483-1.4340648 8.182735-4.3673791 11.442677-6.760591 16.543969-3.8086525 8.126368.0931211 18.394715 7.365878 18.197428 10.7891374-.167143 21.5716189.634563 32.2198965 2.395634l5.2892778-4.143038c-1.9927913-.450943-10.0570775-2.095006-12.236111-2.095006-5.8386922 0-21.7251498 1.390407-24.2766676-7.731793" fill="#76d2b6"/><path d="m45.1619232 94.8939733c-4.4158913-4.9341035-10.3260972-13.8566855-14.3684098-10.9261837-5.0481014 3.6326986-2.4522087 6.5538377 5.8527323 14.3716298 8.3049409 7.8177926 16.734408 16.3190556 20.403142 12.2369516 3.668734-4.082105-7.4236785-10.7482942-11.8395698-15.6823977" fill="#8bd9c1"/><path d="m51.4226703 104.349513s-4.0942702 3.843136.4103597 6.109839c2.7139695 1.35256 7.2185994 1.371216 12.7957602.88616 5.1574748-.438416 13.0568982-1.623071 13.0568982-1.623071l.2518116-2.89168s-8.8786908-1.091376-14.7636213-1.735008-7.9180761-1.07272-11.7605347-.74624" fill="#f8b999"/><path d="m63.2686028 104.661091c-6.0098077-.849095-7.8251709-1.621866-11.6756519-.629666-1.6147178.419777-3.3631992 4.340877.2484182 6.678272 2.6083903 1.679108 6.9939256 1.764972 12.717097 1.459679l10.6915339-.553342v-5.533425s-5.9333714-.572424-11.9336245-1.411978" fill="#8bd9c1"/><path d="m61.8125 125.085h4.03125v88.77h-4.03125z" fill="#1e2020"/><path d="m216.34375 129.12h4.03125v84.0625h-4.03125z" fill="#1e2020"/><path d="m49.046875 119.705v8.07h30.90625v-6.863613z" fill="#402a1b"/><path d="m105.256039 98.185-2.042954 1.1899887c-.231103.5817723-.656333 2.1860533-.831972 2.6444193-.092441.264442-.526915 1.410357 0 1.410357l14.263699.132221c.26146.021423.518864-.072199.698945-.254217.18008-.182019.263115-.432499.225468-.680144l-.42523-3.2526363z" fill="#cfd6e0"/><path d="m102.796875 95.0049612 14.664556-.1824612.116694 4.7075-14.722903-.0456153z" fill="#adb4bb"/><path d="m136.335399 96.84-56.8745381-.2346697c-.4403264.0295881-.872442-.1303261-1.1889056-.4399817-.3164637-.3096555-.487547-.7399638-.470712-1.1839329l-.5314506-39.5089964c-.0324178-.4440817.1254229-.8809104.4336802-1.2002232.3082574-.3193129.7374778-.4905999 1.1793189-.4706253l58.5341552.2158961c.441097-.0326371.874989.1262717 1.192156.436615.317166.3103434.487302.7424685.467462 1.1872996l-.792514 39.1804588c-.307682 1.3235373-.93237 1.9899993-1.948652 2.0087729" fill="#adb4bb"/><path d="m139.017207 55.9934408-.847448 35.4665592-61.1198278-1.180959-.4519722-34.7957745c-.032739-.446962.1266657-.8866239.4379778-1.2080078.311312-.3213839.7447858-.4937818 1.1910054-.4736778l59.1142008.2172965c.998105.3212208 1.996211.9447671 1.676064 1.9651157" fill="#adb4bb"/><path d="m137.687078 54.6914323-58.7972754-.217351c-.4437566-.0201091-.8748378.1523321-1.1844315.4737967-.3095937.3214645-.4681186.7612368-.4355604 1.2083109l.4588416 34.7950558 60.7731037 1.1812553.515027-35.8062104c.31838-.9922544-.674217-1.6443073-1.329705-1.6348573" fill="#425b6b"/><path d="m79.953125 57.1625.7383609 30.3689032 55.7935781 1.2385968.577436-31.3653683z" fill="#fff"/><path d="m138.353839 91.9574268.04734 3.8997559c.036361.4417461-.124121.8772898-.440022 1.1942081-.315902.3169184-.756267.484156-1.207428.4585456l-57.7554408-.2321283c-.4447605.0267484-.8801951-.1328999-1.1979758-.4392274-.3177807-.3063276-.4880364-.7305398-.4684107-1.1671007l-.0662767-4.88398z" fill="#cfd6e0"/><path d="m99.5298772 79.2105686 1.6444498-.0000566-.000215 6.2747501-1.6444501.0000566z" fill="#7fc6b1" transform="matrix(.99991433 -.0130896 .0130896 .99991433 -1.069304 1.320622)"/><path d="m102.81253 72.5633093 1.64445-.0000566-.000442 12.8886758-1.64445.0000566z" fill="#3a8835" transform="matrix(.99991433 -.0130896 .0130896 .99991433 -1.025299 1.363303)"/><path d="m106.470832 81.7669047 1.64445-.0000565-.000125 3.636717-1.64445.0000565z" fill="#009fe3" transform="matrix(.99991433 -.0130896 .0130896 .99991433 -1.084905 1.411583)"/><path d="m109.765566 78.086984 1.653847-.0000569-.000261 7.5937666-1.653847.0000568z" fill="#f9af00" transform="matrix(.99991433 -.0130896 .0130896 .99991433 -1.062352 1.454624)"/><path d="m114.797706 76.319823.092919 9.7403392-1.250831.0198378-.092919-10.0875z" fill="#ed6b08"/><path d="m116.723694 83.2810556 1.64445-.0000566-.00008 2.3177005-1.64445.0000566z" fill="#f9af00" transform="matrix(.99991433 -.0130896 .0130896 .99991433 -1.095213 1.545862)"/><path d="m122.168685 73.3025.112565 12.105-1.231185-.3162827-.112565-11.7695487z" fill="#009fe3"/><path d="m123.627233 81.2119043 1.653847-.0000569-.000159 4.6259794-1.653847.0000569z" fill="#3a8835" transform="matrix(.99991433 -.0130896 .0130896 .99991433 -1.082644 1.636209)"/><path d="m128.256267 77.644563.071858 7.7437456-1.264706.0191914-.079044-8.07z" fill="#7fc6b1"/><path d="m132.293648 80.0275.065727 5.38-1.292629-.2809177-.051121-5.0735443z" fill="#ed6b08"/><path d="m91.2803697 61.8710165c-1.9610081-.0317892-3.856733.6831366-5.2803697 1.9913609l5.375 5.4051226z" fill="#f9af00"/><path d="m96.75 64.0543734c-1.4328172-1.3674276-3.358131-2.1498657-5.375-2.1843734l.0953014 7.3975z" fill="#7fc6b1"/><path d="m91.375 69.7025879 2.0322023 6.9624121c3.1530526-.9388435 5.3226609-3.7963178 5.3551277-7.0529506.0634503-1.9484219-.792382-3.815325-2.3159783-5.0520494z" fill="#ed6b08"/><path d="m85.492695 64.56c-1.4249054 1.4659946-2.2086201 3.4351902-2.1794066 5.4760714.1412879 3.4553292 2.5249206 6.4157323 5.8789035 7.3014286l1.5109331-7.3835696z" fill="#009fe3"/><path d="m90.03125 76.6573547h1.5230327c.6297587.0402838 1.2595086-.0790492 1.8363423-.3479734l-1.9320758-7.0418813z" fill="#3a8835"/><path d="m171.858583 131.200614c-.932326-.332721-1.897905-.559444-2.879144-.676037-1.617182-.199955-2.99132.304693-4.206543-.504648-.934787-.780775-1.18718-1.15212-2.19675-.952165-.682395.247563-1.046962.542734-1.374137.504647-.327176-.038086-.682395.247563-.645003-.085694-.280437-.361823-.934788-.771254-.860005-1.104512 0 0-.57022-.733168-.205653-1.028339-.12084-.32974-.190232-.676724-.205653-1.028338-.336144-.111347-.594435-.387944-.686801-.735477-.092367-.347534-.006337-.719077.228755-.987943.803917-1.247336 2.495882-1.704376 3.225016-2.294718 1.046962-.542734 1.729357-.790297 2.336968-.380866.934788.447517 3.664366 2.447065 4.30937 2.523238.607611.409431 9.347872 1.456813 9.347872 1.456813l-1.018918 5.903425z" fill="#f7ae83"/><path d="m172.671875 122.52773-2.625973-.80523s-4.511981 5.123388-4.764652 7.857632l6.587492.884868z" fill="#f3f3f3"/><path d="m187.817766 113.533236s-2.672241-11.367026 1.7091-12.470155c3.059385-.757802 7.988395.834541 10.330146 3.693084s4.230261 4.988062 3.59761 8.748293c-.632651 3.760232-3.267121 7.319022-3.531512 10.23512s-1.227531 3.990449-2.48339 5.045616c-.944254 1.083945-3.163253 4.450886-4.371899 4.930508-10.471783.690655-23.398629-2.033595-23.077583-2.302183.321047-.268588.642094-7.15595 1.142548-9.458132-.179408-.470029 7.15745.258995 8.347211.479621 1.123663.393289 1.180319 1.218238 2.086803.719432.82719-.199475 1.697229-.094093 2.455062.297365.547668.345327 2.681683-.211033 3.286006-.450844s-.169966-1.918485-.169966-1.918485-.51934-3.836971.132196-4.681105c.651536-.844133.547668-2.877728.547668-2.877728" fill="#206c00"/><path d="m162.59375 128.164294-8.129713 4.990706-16.057787-21.336234 6.654083-.183766z" fill="#f3f3f3"/><path d="m177.175699 168.402765-6.207488 43.656119c0 .932623 0 2.275602 1.017312 2.919112.681772.927228 1.817251 1.416179 2.967161 1.277695l54.228394-.456986c1.381488.01306 2.64983-.754158 3.268587-1.977162.658024-1.104868.658024-2.476408 0-3.581276l-25.008926-41.4458zm51.685114 49.028032-54.228394.456985c-1.558654.047545-3.04003-.671836-3.956214-1.921205-.979785-1.185022-1.462037-2.69758-1.346997-4.224785l6.518334-44.961792 31.885203.391702 25.338611 42.08931c.988192 1.59672.988192 3.607322 0 5.204041-.565855 1.833122-2.314256 3.053706-4.248221 2.965744" fill="#cfd6e0"/><path d="m188.184096 85.854829 2.628404 1.9410005v.656377l-5.425175 14.4402935s-1.655614-1.941-2.965138-2.259812c-1.309525-.318812-3.573133 1.987884-5.200685 1.67845-1.087509-.071235-2.070416-.674356-2.628404-1.612812-.336735-.9376819-2.946431-.9376819-1.655614-2.2785663 0 0-.935375.3375653-.982143-.6470001-.033843-.5967185-.426415-1.112776-.991498-1.3033772 0 0-2.927724.6845075-2.61905-.9376814.250819-1.2184107.563011-2.4233106.935375-3.6100733-.294947-.2589725-.625764-.4737442-.982144-.6376234-.654762-.3281885-3.292519-3.5725661-2.993199-6.5637698.29932-2.9912036 11.692187-6.3105958 16.26617-6.0199145 4.246603.6188697 6.547625 7.1357554 6.547625 7.1357554" fill="#f7ae83"/><path d="m175.800165 184.265s3.357803 8.034262 6.338325 9.679601c1.566373.768518 2.928371 1.910409 3.970885 3.329168l-12.780402 5.821231c-.055018-2.772641-.638049-5.50791-1.716629-8.053505-1.678902-3.675555-5.659219-7.331865-5.659219-7.331865z" fill="#e8eae9"/><path d="m174.652003 206.864498c-2.058413 1.252474-4.245225 2.273762-6.52173 3.045788-2.608693.685303-5.555201 1.703738-5.536523 3.693019.018857 1.98928 3.303182 2.969643 6.568739 2.941089s8.830142-1.075544 10.444153-3.083861c1.278476-1.475373 2.695893-2.820631 4.232087-4.016633l1.31373 1.313496s6.521731-3.378921 7.159829-5.37772c.938378-1.998799.309664-1.98928.309664-1.98928l-1.651546-2.312896z" fill="#cac9c9"/><path d="m173.885187 200.372834c1.520495-1.330807 3.479367-2.044207 5.494517-2.001043 3.570041 0 6.786797-2.674291 6.786797-2.674291 2.142368 1.047636 3.975499 2.639937 5.317874 4.61923-2.425991.897425-4.733377 2.090753-6.87047 3.553253-2.575264 2.300264-3.867545 3.291435-6.126711 3.964683-2.584561 1.000522-13.610783 1.421302-15.209864 4.675334 0 0-.334691-1.299743 2.575265-2.627538 2.900658-1.655068 6.136008-2.66494 6.7775-4.301307.634138-1.682668 1.055797-3.438732 1.255092-5.227023" fill="#4b3f51"/><path d="m163.487594 153.33s-13.188025 1.766216-15.8086 3.798314c-2.620576 2.032098-2.923314 5.982345-2.242154 8.299316.6717 1.984619 24.162278 31.9913 26.148996 32.95987 1.551744-1.737699 3.3013-3.286609 5.21277-4.614952 1.513416-.920747 2.665703-2.335459 3.263894-4.007221 0 0-11.76894-14.917878-14.446279-18.545268-2.67734-3.62739-3.661238-3.940751-3.661238-3.940751l13.150182-7.07436z" fill="#364b5e"/><path d="m173.315346 167.088273-5.910801 41.483854c-.134325.93955.110478 1.894127.679837 2.650938.687897.752141 1.631515 1.216744 2.643809 1.301715l50.732802-.42757c1.209259-.003282 2.329355-.640675 2.9554-1.681778.657585-1.126193.657585-2.522411 0-3.648603l-23.426034-39.250985zm48.155089 46.339156-50.742244.427571c-1.374358-.050731-2.67638-.632669-3.635237-1.624768-.974523-1.071183-1.356662-2.559504-1.019755-3.971657l5.901359-42.823575 29.988345.408568 23.718742 39.906593c.986973 1.511016.986973 3.467806 0 4.978823-.859567 1.579233-2.471411 2.597018-4.258421 2.688944" fill="#adb4bb"/><path d="m136.390625 197.260436s.669796 1.976376 4.631972 2.609951c3.622561.624118 8.254533 3.224613 8.254533 3.224613s11.735587-23.413908 12.688396-27.045144c.691185-2.94374 1.217156-5.924014 1.575437-8.926789 7.199153-.852784 14.454261-1.134197 21.697629-.841614 10.867682.56738 26.282432-5.834565 27.895604-9.456344 1.613171-3.62178 2.537679-11.565109 2.537679-11.565109l-34.206784 2.92201c-.946386 1.486168-2.507956 2.468391-4.254622 2.676146-3.292379.359341-16.461897.803789-19.405227 2.14659-2.952765 1.011829-5.914963 1.37117-7.188519 6.988238-1.273557 5.617068-7.06588 20.520266-11.905395 32.15157" fill="#425b6b"/><path d="m191.208862 88.0975c-3.796471 4.0204271-6.278897 9.1085543-7.115112 14.583556l5.296282 4.246444 6.125593-14.2430839z" fill="#206c00"/><path d="m215.643487 137.934694-3.785061 18.757806s-30.403498-1.685566-32.390655-5.292112.50152-19.059137 1.457248-22.675099c.946265-3.2958 4.201417-11.535298 6.10341-20.424539 1.901993-8.8892418 8.118955-16.16825 8.118955-16.16825l1.977694.3107468s5.677591 2.9097199 7.63636 4.2092065 6.623856 6.8458457 7.67421 9.4165697c.350118 2.956803 3.236227 31.846838 3.236227 31.846838" fill="#39870c"/><path d="m193.209142 90.115s-2.2861 1.3414168-4.195887 8.2752192c-2.239061 6.9432488-3.810166 15.1995748-4.769764 18.1658068-.959597 2.966231-3.509116 12.563974-3.509116 12.563974s4.496937-11.581528 5.7764-16.200914c.940782-4.628833 3.151619-15.5207595 10.3486-20.1968252z" fill="#e1f2fd"/><path d="m167.978207 167.7445c2.639277-2.298816 5.049319-4.84529 7.19665-7.60405 2.931618-3.957114 11.745386-15.508879 19.963374-18.855038 8.217988-3.346158 30.611769-8.130412 30.611769-8.130412s-3.508485 14.456155-4.123179 20.368328-4.482539 16.110436-16.350865 17.191358c-11.868325.751945-37.307206-2.970186-37.307206-2.970186" fill="#9e918f"/><path d="m190.8125 87.0722601c-.933819.9944834-4.874536 1.6793635-5.864384.3846587-.989849-1.6324539-4.248877-2.5894096-5.546886-1.266559-1.28867 1.6512177-.289484 3.931024-.289484 3.931024l-1.624845.6661162c-.219335-.6017255-.555839-1.1534972-.989849-1.623072-.663011-.9381918-2.94153-1.2853228-2.960206-2.5987915-.172749-1.8647206-1.485207-3.4230706-3.287044-3.9028782-1.96102-.3096033-4.557037 1.0226292-4.557037 1.0226292s-2.278519-.6379705-1.643522-2.6081735c.634997-1.9702029 5.089315-9.4945018 10.944361-11.549142 5.845707-1.3509964 12.401118 2.8145756 14.063316 6.4359963 1.326023 3.583893 1.718227 11.1081918 1.718227 11.1081918" fill="#4b1e2e"/><path d="m180.0625 101.5475c1.006593-.357783 1.741406-1.053473 2.446021-.715567.352307 0 .714681.337907 1.056922.337907.596991-3.203431.688667-6.4787449.27178-9.70984 0 4.1542611-3.774723 10.0875-3.774723 10.0875" fill="#e6a37b"/><path d="m168.500293 133.8275c-.968315-.201009-1.955637-.299994-2.945263-.295281-1.632088 0-2.945262.664383-4.258436 0-.937982-.636701-1.313175-.922755-2.288676-.627473-.656587.332191-.937981.655155-1.303794.655155s-.656587.332192-.656587 0c-.328294-.322964-.994261-.6367-.994261-.922754 0 0-.656587-.636701-.337673-.968892-.157351-.289002-.268103-.600299-.328294-.922754-.34855-.067207-.639714-.301694-.775518-.624561-.135805-.322866-.098196-.691188.100171-.981032.647208-1.291856 2.279296-1.947012 2.926503-2.602167.937982-.645928 1.632088-.97812 2.288675-.655156.937982.313737 3.939523 1.845509 4.59611 1.845509.656588.313736 9.492375.239916 9.492375.239916l-.281395 5.804125z" fill="#f7ae83"/><path d="m173.108265 127.1025h-3.60384s-1.394036 5.594159-.640224 9.086756l6.495174 1.000744z" fill="#f3f3f3"/><path d="m189.91723 115.634574s-1.717045-9.639206.534817-14.315653c2.251861-4.676446 9.129422-4.7718837 12.103756-1.7655967 2.974334 3.0062867 5.320023 9.9446067 5.029158 14.3156527-.290866 4.371045-2.880507 8.675285-2.814827 12.00606.065679 3.330775-.938276 4.666903-2.242479 6.012574-.938276 1.345671-2.908655 4.02747-4.212858 4.705078-1.304203.343575-25.849495 2.214154-25.521098 1.908753.328396-.3054-1.050869-8.646654-.750621-11.318909 0 0 8.181764-.400838 9.49535-.410382 1.031575.297333 2.140981.03415 2.936803-.696695.985189-.334032.938275-.668064 1.632599-.343576.842579.329243 1.775211.329243 2.61779 0 .510712-.372331.941665-.846397 1.266672-1.39339 0 0-1.022721-4.323327-.375311-5.325422.647411-1.002096.300249-3.330775.300249-3.330775" fill="#39870c"/><path d="m121.88724 212.712905h-2.268455s-.929695 1.18361-.64149 1.479512c3.780334 1.473549 7.701528 2.628193 11.714157 3.449378 4.220815.845436 10.050003-.667894 11.016885-1.564056v1.479513l6.507865-.050726c.437954.020256.864502-.130901 1.171905-.415292.307404-.28439.466268-.674821.436468-1.072675v-2.062864l-2.28705-1.445695z" fill="#cac9c9"/><path d="m137.55999 203.095c1.094602.067896 2.08298.689368 2.632416 1.65521.904269 1.465626 2.322762 2.526068 3.967428 2.965982 1.316208.325301 4.249471-1.03331 4.578523-2.037917 0 0 1.353814 5.654502 1.043565 7.998585 0 0-5.246029 0-8.837397 1.741319-3.929821 1.377746-5.236628 2.382353-9.504902 1.416017-4.268275-.966336-11.187769-3.568746-11.845873-4.563786l5.894732-.717576c2.952067-.363572 5.875929-3.731397 7.831438-5.41531 1.232571-1.252769 2.666601-2.281778 4.24007-3.042524" fill="#4b3f51"/><path d="m160.514297 109.6175-.05375 1.345c-.16125 0-.329219 0-.490469 0l.05375-1.345z" fill="#443845"/><g fill="#443845" transform="translate(155.203125 109.6175)"><path d="m4.84645833.04203125-.07166666 1.43957031c-.215 0-.43895834 0-.65395834 0l.07166667-1.43957031z"/><path d="m4.1925.07355469-.07166667 1.43957031c-.43019553.02865442-.85821175.09184929-1.28104166.18914063l-.403125.10507812.06270833-1.43957031.41208333-.10507813c.42282992-.09729133.85084614-.1604862 1.28104167-.18914062"/><path d="m2.499375.36777344-.06270833 1.43957031c-.19708334.06304688-.37625.12609375-.54645834.19964844l.06270834-1.43957031c.17020833-.07355469.35833333-.13660157.54645833-.19964844"/><path d="m1.95291667.56742188-.06270834 1.43957031-.215.09457031-.134375.06304688.07166667-1.43957032.12541667-.06304687z"/><path d="m1.6125.72503906-.07166667 1.43957032-.241875.13660156.06270834-1.43957031z"/><path d="m1.36166667.86164063-.06270834 1.43957031-.19708333.14710937.06270833-1.43957031z"/><path d="m1.16458333 1.00875-.06270833 1.43957031-.16125.13660156.06270833-1.43957031z"/><path d="m1.00333333 1.14535156-.06270833 1.43957031-.134375.13660157.07166667-1.43957031z"/></g><g transform="translate(157.890625 109.6175)"><path d="m1.935.100875-.07166667.921325h-.26875l.07166667-.921325z" fill="#b7c9d4"/><path d="m1.66625.1076-.07166667.921325c-.36043081.01953396-.71925417.05320495-1.075.100875l-.36729166.060525.07166666-.921325.36729167-.060525c.35488956-.0518015.7140444-.08550359 1.075-.100875" fill="#bbccd8"/></g><g fill="#443845" transform="translate(158.5625 109.6175)"><path d="m7.29938272 2.379036-.07299383 1.326708c0-.522936-.45621142-1.074924-1.4142554-1.530072l.07299382-1.326708c.91242284.455148 1.43250386.9684 1.41425541 1.530072"/><path d="m5.83950617.848964-.07299382 1.326708c-.13929811-.07050592-.28250893-.13195144-.42883874-.183996l.0638696-1.326708z"/><path d="m5.40154321.664968-.0638696 1.326708-.35584491-.125892.0638696-1.326708.36496914.125892"/><path d="m5.01832562.529392-.0638696 1.326708-.35584491-.106524.07299383-1.326708z"/><path d="m4.67160494.422868-.07299383 1.326708-.33759645-.087156.0638696-1.326708z"/><path d="m4.32488426.335712-.0638696 1.326708-.33759645-.077472.0638696-1.326708z"/><path d="m3.98728781.25824-.0638696 1.326708-.33759645-.067788.0638696-1.35576.33759645.058104"/><path d="m3.64969136.1614-.0638696 1.317024-.34672068-.04842.07299383-1.326708c.10949074 0 .22810571 0 .33759645.058104"/><path d="m3.31209491.1614-.07299383 1.326708h-.34672068l.0638696-1.326708z"/><path d="m2.95625.093612-.0638696 1.326708h-.37409336l.07299382-1.326708z"/><path d="m2.59128086.054876-.07299382 1.326708h-.39234182l.07299382-1.326708z"/><path d="m2.19893904.025824-.07299382 1.326708h-.41971451l.0638696-1.326708z"/><path d="m1.77010031.006456-.0638696 1.326708h-.49270833l.07299382-1.326708z"/><path d="m1.2865162.006456-.07299382 1.326708c-.21898148 0-.44708719 0-.66606868 0l.07299383-1.326708z"/></g><path d="m160.326172 109.955587-.047031 1.006913-.120938-.338087.05375-1.006913z" fill="#87949b"/><path d="m165.952705 111.730746-.06593 1.249254c0-.492407-.412065-1.012169-1.2774-1.440746l.06593-1.249254c.824129.428576 1.293883.911864 1.2774 1.440746" fill="#443845"/><g transform="translate(163.9375 110.9625)"><path d="m1.22729167.15243333-.06270834 1.22843334h-.349375l.06270834-1.22843334z" fill="#b4c5d0"/><path d="m.87791667.15243333-.06270834 1.22843334h-.73458333l.07166667-1.2374h.725625" fill="#b7c9d4"/></g><path d="m164.31375 111.162997-.05375 1.144503-.026875-.192143.05375-1.152857z" fill="#7b8f9d"/><path d="m165.659981 111.217175-.047032 1.090325c.002468-.087364-.011294-.174304-.040312-.254675l.047031-1.090325c.033337.078733.047306.166985.040313.254675" fill="#8a98a0"/><g transform="translate(155.875 109.6175)"><path d="m3.8958.168125-.0774 1.43957031c-.38926528.03052182-.77679451.08313273-1.161.15761719l-.396675.09457031.0774-1.43957031.396675-.09457031c.38328072-.08093985.77116795-.13359936 1.161-.15761719" fill="#bbccd8"/><path d="m2.338125.4203125-.0774 1.43957031-.493425.15761719.0774-1.4290625c.16120155-.06680124.32597776-.12294554.493425-.168125" fill="#b7c9d4"/><path d="m1.8447.57792969-.0774 1.43957031-.3096.13660156.0774-1.43957031z" fill="#b4c5d0"/><path d="m1.5351.71453125-.0774 1.43957031-.222525.12609375.067725-1.43957031z" fill="#b1c1cc"/><path d="m1.3029.840625-.067725 1.43957031-.183825.11558594.067725-1.43957031z" fill="#adbec8"/><path d="m1.119075.95621094-.067725 1.43957031-.1548.12609375.067725-1.45007812z" fill="#aabac4"/><path d="m.964275 1.07179688-.067725 1.45007812-.125775.11558594.0774-1.43957032z" fill="#a7b6c0"/><path d="m.848175 1.19789062-.0774 1.43957032-.09675.12609375.067725-1.43957032z" fill="#a3b3bc"/><path d="m.74175 1.32398437-.067725 1.43957032-.0774.12609375.067725-1.43957031z" fill="#a0afb8"/><path d="m.66435 1.45007813-.067725 1.43957031-.05805.13660156.067725-1.43957031z" fill="#9cabb4"/><path d="m.6063 1.58667969-.067725 1.43957031-.0387.13660156.0774-1.43957031z" fill="#99a7b0"/><path d="m.577275 1.72328125-.0774 1.43957031v.0840625l.067725-1.45007812z" fill="#95a4ac"/></g><g fill="#443845" transform="translate(155.875 110.29)"><path d="m.7525.100875-.04703125 1.53554167-.10078125.14570833.05375-1.53554167z"/><path d="m.6584375.24658333-.05375 1.53554167-.080625.14570833.05375-1.53554166z"/><path d="m.5778125.39229167-.05375 1.53554166-.06046875.15691667.04703125-1.53554167z"/><path d="m.510625.54920833-.04703125 1.53554167-.04703125.168125.05375-1.53554167z"/><path d="m.4703125.71733333-.05375 1.53554167-.026875.17933333.04703125-1.54675z"/><path d="m.43671875.88545833-.04703125 1.54675-.00671875.08966667.05375-1.53554167z"/></g><g transform="translate(157.21875 109.6175)"><path d="m3.35601563.64097656-.07054688 1.43957031-.06046875.01050782.07054688-1.43957031z" fill="#a3bed0"/><path d="m3.29554688.65148438-.07054688 1.45007812c-.32127949.01592148-.64115381.0545387-.95742188.11558594l-.31242187.07355469.07054687-1.43957032.31242188-.07355468c.33287387-.06346698.66966621-.10209367 1.0078125-.11558594" fill="#a6c1d3"/><path d="m2.015625.840625-.07054687 1.43957031-.39304688.11558594.080625-1.4290625c.12303786-.05598465.25140745-.09825077.38296875-.12609375" fill="#a3bed0"/><path d="m1.64273437.95621094-.08062499 1.43957031-.241875.10507813.08062499-1.43957032z" fill="#a0bacc"/><path d="m1.40085937 1.06128906-.08062499 1.43957032-.17132813.09457031.07054688-1.45007813z" fill="#9db7c8"/><path d="m1.21945313 1.14535156-.07054688 1.45007813-.15117187.0840625.08062499-1.43957031z" fill="#9ab3c4"/><path d="m1.07835937 1.23992188-.08062499 1.43957031-.11085938.09457031.07054688-1.45007813z" fill="#97b0c0"/><path d="m.95742188 1.32398437-.07054688 1.45007813-.10078125.0840625.080625-1.43957031z" fill="#94acbd"/><path d="m.86671875 1.41855469-.080625 1.43957031-.080625.09457031.080625-1.43957031z" fill="#91a9b9"/><path d="m.78609375 1.513125-.080625 1.43957031-.06046875.09457032.080625-1.43957032z" fill="#8ea5b5"/><path d="m.725625 1.60769531-.080625 1.43957032-.0403125.10507812.07054688-1.43957031z" fill="#8ba2b1"/><path d="m.67523438 1.71277344-.07054688 1.43957031-.03023437.10507813.08062499-1.43957032z" fill="#889ead"/><path d="m.645 1.81785156-.07054687 1.43957032v.06304687l.07054687-1.43957031z" fill="#859ba9"/></g><path d="m165.952705 111.730746-.06593 1.249254c0-.492407-.412065-1.012169-1.2774-1.440746l.06593-1.249254c.824129.428576 1.293883.911864 1.2774 1.440746" fill="#443845"/><path d="m157.628594 111.270573-.047032 1.036927c-.064361-.089534-.099865-.200712-.100781-.315587l.05375-1.029413c-.001624.111798.031637.220734.094063.308073" fill="#8a98a0"/><path d="m157.21875 112.403246-.05802 1.249254c-.870301-.428576-1.309596-.911864-1.28473-1.440746l.066308-1.249254c0 .492407.406141 1.012169 1.276442 1.440746" fill="#8a98a0"/><path d="m158.85265 109.718061c.51171-.057209 1.029793-.090825 1.549828-.100561l.175647.289112c-.346669.011915-.691759.037105-1.033219.075421-1.456838.169696-2.066437.553084-1.591157.923902l-1.198534.056565c-.619931-.502804.165315-1.011893 2.066438-1.257009" fill="#a3bdcf"/><path d="m157.21875 110.9625-.038237 1.271301-.633638.073699.038237-1.262089z" fill="#a9c4d7"/><path d="m156.973611 111.362551-.047031.944949c-.090172-.10974-.137985-.249633-.134375-.393154l.047031-.951846c-.005283.145874.042632.288524.134375.400051" fill="#7b8f9d"/><g transform="translate(165.28125 111.635)"><path d="m.63828125.26003333-.05375 1.22843334-.00671875.0807.05375-1.2374z" fill="#95a4ac"/><path d="m.6315625.33176667-.05375 1.2374-.026875.1345.04703125-1.22843334z" fill="#99a7b0"/><path d="m.59796875.47523333-.04703125 1.22843334-.04703125.1345.05375-1.22843334z" fill="#9cabb4"/><path d="m.55765625.60973333-.05375 1.22843334-.06046875.12553333.04703125-1.22843333z" fill="#a0afb8"/><path d="m.49046875.73526667-.04703125 1.22843333-.080625.11656667.05375-1.22843334z" fill="#a3b3bc"/><path d="m.4165625.85183333-.05375 1.22843334-.0940625.12553333.04703125-1.2374z" fill="#a7b6c0"/></g><g transform="translate(162.59375 111.635)"><path d="m1.75583333.15243333-.07166666 1.22843334v.0538l.06270833-1.22843334z" fill="#95a4ac"/><path d="m1.746875.20623333-.06270833 1.22843334-.026875.08966666.07166666-1.22843333z" fill="#99a7b0"/><path d="m1.72895833.2959-.07166666 1.22843333-.03583334.08966667.06270834-1.2374z" fill="#9cabb4"/><path d="m1.68416667.3766-.06270834 1.2374-.05375.0807.06270834-1.22843333z" fill="#a0afb8"/><path d="m1.63041667.46626667-.06270834 1.22843333-.07166666.07173333.06270833-1.22843333z" fill="#a3b3bc"/><path d="m1.55875.538-.06270833 1.2374-.08958334.07173333.07166667-1.22843333z" fill="#a7b6c0"/><path d="m1.478125.6187-.07166667 1.22843333-.1075.0807.07166667-1.22843333z" fill="#aabac4"/><path d="m1.370625.6994-.07166667 1.22843333-.12541666.07173334.06270833-1.22843334z" fill="#adbec8"/><path d="m1.23625.77113333-.06270833 1.22843334-.16125.08966666.06270833-1.2374z" fill="#b1c1cc"/><path d="m1.075.85183333-.06270833 1.2374-.07166667.0269.07166667-1.2374z" fill="#b4c5d0"/></g><g transform="translate(164.609375 112.3075)"><path d="m1.0884375.17933333-.05375 1.22843334-.0940625.12553333.04703125-1.2374z" fill="#a7b6c0"/><path d="m.98765625.2959-.04703125 1.2374-.1209375.11656667.04703125-1.2374z" fill="#aabac4"/></g><g transform="translate(163.265625 111.635)"><path d="m1.95291667.2152-.06270834 1.22843333-.00895833.06276667.07166667-1.22843333z" fill="#859ba9"/><path d="m1.95291667.27796667-.07166667 1.22843333-.026875.12553333.06270833-1.2374z" fill="#889ead"/><path d="m1.91708333.39453333-.06270833 1.2374-.05375.1076.06270833-1.22843333z" fill="#8ba2b1"/><path d="m1.86333333.5111-.06270833 1.22843333-.07166667.1076.06270834-1.22843333z" fill="#8ea5b5"/><path d="m1.79166667.6187-.06270834 1.22843333-.08958333.1076.06270833-1.22843333z" fill="#91a9b9"/><path d="m1.70208333.7263-.06270833 1.22843333-.11645833.09863334.06270833-1.22843334z" fill="#94acbd"/><path d="m1.585625.82493333-.06270833 1.22843334-.14333334.1076.06270834-1.22843334z" fill="#97b0c0"/><path d="m1.44229167.93253333-.06270834 1.22843334-.17916666.1076.07166666-1.22843334z" fill="#9ab3c4"/><path d="m1.27208333 1.03116667-.07166666 1.2374-.215.1076.06270833-1.22843334z" fill="#9db7c8"/><path d="m1.048125 1.14773333-.06270833 1.22843334-.14333334.0538.06270834-1.22843334z" fill="#a0bacc"/></g><path d="m164.454637 110.9625h.785525c.150559.502007-.117829.994542-.720064 1.345l-.582598-.331514c.432039-.265211.615328-.625141.517137-1.004014" fill="#a3bdcf"/><path d="m164.599297 113.259884-.05375 1.065116-.597969-.27211.05375-1.07289z" fill="#869caa"/><g transform="translate(164.609375 112.3075)"><path d="m.98765625.07173333-.04703125 1.2374-.1209375.11656667.04703125-1.2374z" fill="#aabac4"/><path d="m.86671875.1883-.04703125 1.2374-.15453125.11656667.05375-1.22843334z" fill="#adbec8"/><path d="m.71890625.31383333-.05375 1.22843334-.188125.12553333.05375-1.22843333z" fill="#b1c1cc"/><path d="m.53078125.43936667-.05375 1.22843333-.0940625.0538-.15453125.0807.04703125-1.22843333.16125-.0807z" fill="#b4c5d0"/></g><g transform="translate(163.265625 112.3075)"><path d="m1.60354167.43936667-.07166667 1.22843333-.12541667.0538-.20604166.0807.06270833-1.22843333.215-.0807z" fill="#b4c5d0"/><path d="m1.263125.57386667-.06270833 1.22843333c-.17020834.0538-.34041667.1076-.52854167.15243333l.06270833-1.22843333c.188125-.04483333.36729167-.09863333.52854167-.15243333" fill="#b7c9d4"/></g><g transform="translate(154.53125 110.9625)"><path d="m3.11414062 1.9401625-.09070312 1.4223375-.403125-.1311375.080625-1.3819875.403125.1311375" fill="#92a0a8"/><path d="m2.7009375 1.7989375-.080625 1.3819875-.49382812-.1916625.080625-1.3819875z" fill="#8e9ca4"/><path d="m2.20710938 1.607275-.07054688 1.3819875c-1.05820312-.4741125-1.59234375-1.00875-1.56210937-1.593825l.08062499-1.3819875c0 .544725.49382813 1.1197125 1.55203126 1.593825" fill="#8a98a0"/></g><g fill="#443845" transform="translate(153.859375 110.29)"><path d="m13.5732188 1.26317917-.0752501 1.25402569-.0094062.09153472.07525-1.25402569z"/><path d="m13.5638125 1.35471389-.07525 1.25402569-.0470313.18306945.0752501-1.2540257z"/><path d="m13.5167813 1.53778333-.0752501 1.2540257-.0752499.1647625.0658437-1.2540257z"/><path d="m13.432125 1.70254583-.0658437 1.2540257-.112875.15560903.0752499-1.2540257z"/><path d="m13.3286562 1.85815486-.0752499 1.2540257-.1410938.15560902.07525-1.25402569z"/><path d="m13.1875625 2.01376389-.07525 1.25402569-.1693125.15560903.0658438-1.25402569z"/><path d="m13.0088438 2.16937292-.0658438 1.25402569-.2163437.14645556.07525-1.2540257z"/><path d="m12.8019063 2.31582847-.07525 1.2540257c-.0829985.05918927-.1711211.11125444-.263375.15560902l.07525-1.25402569z"/><path d="m12.5385313 2.4714375-.07525 1.25402569c-.1059687.05910751-.2159645.11109832-.3292188.15560903l.0658438-1.25402569c.1162911-.04451605.2294151-.09650016.338625-.15560903"/><path d="m12.228125 2.62704653-.0658437 1.25402569-.1693126.07322778-.2821875.10984167.0752501-1.26317917.2727812-.10068819z"/><path d="m11.7578125 2.8009625-.07525 1.26317917-.4703125.14645555-.2163438.05492084.0658438-1.26317917.2163437-.05492083z"/><path d="m11.06175 3.01149236-.0658438 1.2540257-.5925937.12814861c-.3104063.05492083-.63021875.10068819-.940625.13730208l-.74309375.07322778.07525-1.26317917c.2445625 0 .49853125 0 .74309375-.0640743.2445625-.06407431.6584375-.08238125.940625-.14645556z"/><path d="m8.766625 3.34101736-.07525 1.2540257c-.2821875 0-.564375 0-.85596875 0l.06584375-1.2540257z"/><path d="m7.90125 3.37763125-.06584375 1.25402569h-.639625l.07525-1.26317916h.63021875"/><path d="m7.27103125 3.36847778-.07525 1.26317916h-.5455625l.06584375-1.25402569h.55496875"/><path d="m6.7160625 3.35017083-.06584375 1.2540257h-.5079375l.06584375-1.2540257z"/><path d="m6.208125 3.32271042-.06584375 1.25402569h-.49853125l.06584375-1.25402569h.47971875"/><path d="m5.7378125 3.27694306-.0940625 1.29979305-.46090625-.05492083.07525-1.2540257.46090625.05492084"/><path d="m5.27690625 3.22202222-.06584375 1.2540257-.4515-.06407431.07525-1.26317917z"/><path d="m4.8348125 3.15794792-.06584375 1.25402569-.44209375-.08238125.07525-1.25402569z"/><path d="m4.402125 3.07556667-.07525 1.25402569-.4326875-.08238125.07525-1.26317917z"/><path d="m3.9694375 2.98403194-.07525 1.26317917-.4326875-.10984167.06584375-1.25402569z"/><path d="m3.52734375 2.88334375-.06584375 1.25402569-.46090625-.11899513.07525-1.26317917z"/><path d="m3.07584375 2.74604167-.07525 1.25402569-.47971875-.15560903.07525-1.25402569.489125.15560903"/><path d="m2.58671875 2.59958611-.07525 1.2540257c-.2069375-.07322778-.413875-.14645556-.59259375-.22883681l.06584375-1.25402569z"/><path d="m1.98471875 2.37074931-.10346875 1.29063958c-1.241625-.54005486-1.88125-1.19910486-1.83421875-1.83069445l.07525-1.26317916c0 .63158958.5831875 1.29063958 1.8248125 1.83069444"/></g><path d="m165.472092 112.650056c1.794495-.712863 1.480458-1.895172-.672936-2.608034-1.925913-.600579-3.97378-.737831-5.966696-.399899-.399726.070024-.790702.180755-1.166422.330351-1.794495.704169-1.489431 1.877785.663963 2.608034 1.928923.600967 3.979788.738213 5.975669.399899.398405-.071343.788952-.179042 1.166422-.321658m.170477-2.973159c1.318953.45206 2.135449 1.051907 2.296953 1.677836.161505.625928-.349926 1.217082-1.444568 1.643061-.234521.091256-.474167.169621-.717798.234723-.250238.073278-.504954.131347-.762661.173869-.296091.060854-.610128.104321-.897247.139095-2.223391.246901-4.475583.027499-6.603742-.643315-2.691743-.938892-3.104477-2.434165-.852385-3.32959.477113-.177935.969524-.314665 1.471486-.408592 2.517857-.427361 5.105399-.251269 7.536879.512913" fill="#443845"/><path d="m164.092019 112.981055c.875117-.35077 1.265115-.843745 1.046336-1.346199h-1.141457c.142682.379211-.123658.739461-.751459.948028l.84658.34129m-5.42192-2.474354c.314359-.057795.63206-.095791.951214-.113763l-.161706-.436093c-.478761.014686-.955725.065392-1.426822.151685-1.788282.35077-2.511205 1.118673-1.902428 1.896056l1.103408-.085323c-.409022-.559336.123658-1.137633 1.46487-1.393601m5.307775-.208566c2.282914.815304 2.606327 2.104622.713411 2.844084-.400173.155524-.81421.272971-1.236579.35077-2.115926.368935-4.290145.219267-6.335086-.436092-2.282914-.824785-2.606327-2.104623-.703898-2.844085.398318-.163135.81281-.283889 1.236578-.36025 2.112784-.368518 4.283823-.218844 6.325574.436093" fill="#b7c8d3"/><path d="m168.640625 116.459067-.065976 1.228433-4.637149-2.7976.065976-1.2374z" fill="#564854"/><g transform="translate(167.296875 115.67)"><path d="m3.09398437.52006667-.07054687 1.22843333v.01793333l.07054687-1.22843333z" fill="#594a57"/><path d="m3.09398437.538-.07054687 1.22843333-.01007812.0269.07054687-1.22843333z" fill="#5a4b58"/><path d="m3.08390625.5649-.07054687 1.22843333-.01007813.0269.07054688-1.22843333z" fill="#5b4c59"/><path d="m3.07382813.5918-.07054688 1.22843333-.02015625.0269.07054688-1.22843333z" fill="#5c4d5a"/><path d="m3.05367188.6187-.07054688 1.22843333-.03023437.0269.08062499-1.2374z" fill="#5d4e5b"/><path d="m3.03351562.63663333-.07054687 1.2374-.0403125.01793334.080625-1.22843334z" fill="#5e4f5c"/><path d="m3.00328125.66353333-.07054688 1.22843334-.04031249.0269.07054687-1.22843334z" fill="#5f4f5d"/><path d="m2.96296875.69043333-.07054687 1.22843334-.05039063.01793333.080625-1.22843333z" fill="#60505e"/><path d="m2.92265625.70836667-.080625 1.22843333-.05039062.0269.07054687-1.22843333z" fill="#61515f"/><path d="m2.8621875.73526667-.07054687 1.22843333-.08062501.0269.08062501-1.22843333z" fill="#625260"/><path d="m2.79164063.76216667-.08062501 1.22843333-.11085937.03586667.07054688-1.2374z" fill="#635361"/><path d="m2.67070313.78906667-.07054688 1.2374h-.10078125c-.09377499.00925374-.18841251.00925374-.2821875 0l.080625-1.22843334h.2821875.09070313" fill="#645462"/><path d="m2.28773438.84286667-.07054688 1.22843333-.14109375.00896667.07054687-1.22843334z" fill="#635361"/><path d="m2.14664062.85183333-.07054687 1.22843334h-.11085938l.08062501-1.22843334z" fill="#625260"/><path d="m2.04585938.85183333-.08062501 1.22843334h-.09070312l.080625-1.2374z" fill="#61515f"/><path d="m1.95515625.84286667-.080625 1.2374-.080625-.00896667.07054687-1.22843333z" fill="#60505e"/><path d="m1.86445312.84286667-.07054687 1.22843333-.080625-.00896667.07054688-1.22843333z" fill="#5f4f5d"/><path d="m1.78382813.8339-.07054688 1.22843333-.080625-.00896666.080625-1.22843334z" fill="#5e4f5c"/><path d="m1.71328125.82493333-.080625 1.22843334-.07054687-.00896667.07054687-1.22843333z" fill="#5d4e5b"/><path d="m1.63265625.81596667-.07054687 1.22843333-.07054688-.00896667.07054688-1.22843333z" fill="#5c4d5a"/><path d="m1.56210938.807-.07054688 1.22843333-.080625-.01793333.080625-1.22843333z" fill="#5b4c59"/><path d="m1.4915625.78906667-.080625 1.22843333-.07054687-.01793333.07054687-1.22843334z" fill="#5a4b58"/><path d="m1.4109375.77113333-.07054687 1.2374-.08062501-.0269.08062501-1.22843333z" fill="#594a57"/><path d="m1.34039063.7532-.08062501 1.22843333-.080625-.01793333.080625-1.22843333z" fill="#584956"/><path d="m1.25976562.7263-.080625 1.2374-.09070312-.03586667.07054688-1.22843333z" fill="#574854"/><path d="m1.15898438.6994-.07054688 1.22843333-.13101562-.06276666.07054687-1.22843334z" fill="#564853"/></g><path d="m163.265625 113.976618c.339211 0 .678421-.081029.969173-.144052.278365-.044037.5535-.104176.823797-.180066l4.75864 2.809025c.319827.189069.164759.423154-.329519.513187-.50541.090604-1.028796.027461-1.492527-.180066z" fill="#635361"/><path d="m63.7112972 65.3908723c-.8417477-3.8751415-6.5139795-10.7736422-13.3244837-8.4242207-6.8105043 2.3494216-8.5609569 8.0685314-8.7044367 12.2432008-.18818 3.0701021.6440141 6.1173576 2.3721981 8.6863075.392178.6552172 4.9930945 5.1294144 6.284412 5.4851037.8895743.2433664 5.1365741-4.6801226 5.3374457-4.4929177.429205.230181.9607279.1661073 1.3200135-.1591241.4878311-.5896955 2.4774166-4.8298866 2.8695945-5.1294144.3921779-.2995279 4.7826575-3.7440981 3.826126-8.2089351" fill="#f8b999"/><path d="m32.7747449 73.7461196c.8121207-1.0381752 1.5512013-2.129647 2.2120869-3.2668026 2.5879783-4.2416586 5.5622923-8.2435811 8.8863232-11.9564974 4.974822-4.2095084 12.1997066-2.88412 16.0257624-.233343 2.3652595 1.5483209 4.1076469 3.858704 4.9273523 6.5336051.2088666.8120338.7120452 3.3321386-.1044332 3.9761654-1.8038477 1.4187257-7.2343786-1.7827408-9.0287323-2.1094211-4.5570889-.8400349-8.924299 4.4708527-10.1964863 8.3350135-.7406685 2.3006356-2.3423421 4.2389167-4.4811374 5.4228922-2.7342533 1.4000583-4.7469675 0-7.4907148-.1586732-1.006437-.1373526-2.0316443.025213-2.9431198.466686-1.3956085.8493687-1.6709326 2.6787782-1.898787 4.2748446-.1533019 2.0121036-.5256955 4.0022364-1.1107905 5.9362469-.801707 1.8613916-1.4000173 3.8012448-1.7848597 5.7869074-.4652029 3.4068086.2468423 7.0189586-1.1107905 10.1737566-.7975992-.196787-1.6271605-.234868-2.4399413-.112005-.8164784 0-1.7753658-.289345-2.0127142-1.064044-.0900169-.349161-.0900169-.714883 0-1.064044l2.335508-11.9284964c.402484-2.5294472 1.0640953-5.0124013 1.9747385-7.410975 1.1118161-2.4840928 2.5722628-4.8027387 4.3387284-6.8882866 1.3861145-1.6707362 2.6962775-3.1361304 3.9020073-4.7135294z" fill="#ac2000"/><path d="m53.078125 68.0740629c-.1827951-1.0918422-1.027578-1.9472081-2.1059193-2.132301-1.0783413-.185093-2.1543481.3405769-2.6823263 1.3104178-.2938366.634346-.4582453 1.3221996-.4833848 2.0223869-.1591197.9469264-.134336 1.9161837.0729637 2.8535047.2447661.9381018.9943604 1.654119 1.9335392 1.8469287" fill="#f8b999"/></g></g></svg>