<svg height="278" viewBox="0 0 419 278" width="419" xmlns="http://www.w3.org/2000/svg"><g fill="none" fill-rule="evenodd"><rect fill="#d8d8d8" fill-opacity=".01" height="278" rx="2" width="445" x="-26"/><g transform="translate(89.421875 41.7)"><g fill-rule="nonzero"><path d="m154.850001 94.4701795c-1.076212-.3816843-2.603407-.2740298-3.126138-1.4778035-.255654-1.0752639-.173656-2.1986317.235742-3.2296367.249918-1.1611925 1.064634-2.1390515 2.193421-2.6326433.871218-.4599786 1.783435-.8905968 2.685403-1.2722812.226951-.0948874.4597-.1765928.696975-.2446694l.225492-.1370149.379236-.0782942c.277963-.1016657.532216-.2546448.748223-.4501918.481733-.4697654 1.281204.2153091.799471.6850744l-.112746.0978678c.297948.1569277.562225.3661063.778972.616567.614978.7731555 0 1.6833259-.307489 2.4466946-.55348 1.1744133-1.024963 2.3390399-2.306167 2.9360334-.590737.276736-1.230285.4459973-1.885932.4991257-.070881.2698693-.348755.4410472-.635477.3914711-.318794-.0755519-.628085-.1838374-.922467-.3229637l.327989.1565885.748223.2544562c.234373.0351433.417752.2114493.452945.4354753s-.085941.4439462-.299201.5432025c.338238.3425372-.112746.9786778-.666226.8025158" fill="#866552"/><path d="m167.223175 185.325416c1.838437-2.35756 7.160228-1.501182 9.588901-1.108255.927541.136038 1.868817.136038 2.796359 0 .38704-.050375 2.331912-.302251 2.341588-.886604.002779-.636077.45056-1.175043 1.054683-1.269455-.140901-.54634.055133-1.126678.493475-1.460882l.106436-.090675c.377363-.302252-.222548-1.360131.174168-1.178781 1.248202.544053 2.138392 3.858743 2.40932 4.926697.735375 2.911688-1.27723 3.868818-3.057611 3.909118-5.486284.130976-11.282199.544052-15.32676-.624653-.431288-.135583-.765038-.493006-.883077-.945714-.118039-.452709-.003706-.936801.302518-1.280871" fill="#19303b"/><path d="m184.314762 184.003568c-2.816184 1.393592-7.25441.741463-10.180056.51813-.099512 0-2.666916-.375198-2.368381-.509197 4.109837-1.858123 7.025532-1.491859 7.960943-5.163439.171889-.556485.767421-.919345 1.406978-.857276.639556.062069 1.134943.530802 1.170377 1.107408 0-.651251.588099-1.179194 1.313556-1.179194s1.313556.527943 1.313556 1.179194c0 1.331059 1.52253 3.367849.129365 4.40411-.248426.184863-.514863.349302-.796094.491331" fill="#866552"/><path d="m193.451687 178.22768c.096203-.67913.524746 1.597954.962034 1.548018.844478-.126286 1.701419-.092542 2.536273.099872.174915-.848913-.201153-3.165946.437288-2.546739 1.749154 1.7178 2.571256 6.831253 2.763663 9.547775s.306102 6.222033-1.670442 7.819987c-3.218442 2.596675-4.582782-3.895013-4.932613-7.27069-.298675-3.054875-.330901-6.136074-.096203-9.198223" fill="#19303b"/><path d="m194.026566 179.189352c.351123-.694039.855299-1.064193 1.575552-.64777-.099035-.064777.900315-.712546 1.242435-.610754.585205.185077.900315 1.341809 1.17041 1.850771.688172 1.514018 1.1844 3.112577 1.476517 4.756481.432151 2.396749-1.395489 5.90396-4.141451 3.914381-1.575551-1.138224-2.034712-3.303626-2.052718-5.163651-.012281-1.39867.235232-2.786901.729255-4.090204" fill="#866552"/><path d="m163.992105 106.969842c-.791557-4.764281-.791557-9.6258296 0-14.3901097.308089-1.8035604.577668-3.6071208.760596-5.4202745 1.019232-.7752514 2.161451-1.3751253 3.379356-1.7747802 1.92556-.6715384 4.28437-.9593406 6.094395.1439011l.558413.3741428c.833276-.2809853 1.742959-.2329168 2.541738.1343077 1.925559.825033 2.984617 2.8780219 3.66819 4.7391427.716259 2.1280779 1.172063 4.3345357 1.357519 6.5714832.565887 4.4082379.743075 8.8574039.529529 13.2964609-.221439 3.54956-.760596 7.070341-.962779 10.629494-.144742 3.48322.077917 6.971957.664318 10.408846 1.164963 7.310175 3.090522 14.438076 3.851118 21.805812.56804 5.573769 1.116824 11.147538 1.858165 16.70212.240695 1.765187.491017 3.520781.74134 5.285967.154045 1.036088.298462 2.072176.452506 3.108264.096278.652352.259951 1.29511.30809 1.918681.067394.84422.057767.959341-.74134.863407-1.261242-.172682-2.541739-.239835-3.851119-.316583-2.830572-.163088-5.776678-.134307-8.559111-.518044-.221439 0-1.925559-.134307-2.127743-.211055-.288834-2.398351.799107-4.998164 1.415286-7.281395.728748-2.714512 1.186686-5.494098 1.367147-8.298296.041713-2.577817-.206956-5.15216-.74134-7.674725-.673946-4.153945-1.521192-5.26678-2.560994-9.343978-1.280497-4.998165-1.540447-9.737307-3.138661-14.639538-1.992954-6.158967-3.196429-12.538582-5.121988-18.697548-.770541-2.445276-1.36259-4.942879-1.771514-7.473264" fill="#1e0147"/><path d="m175.88861 98.7967182c.086468.7737933.172936 1.5475868.249796 2.3213798.285788 2.771875.734911 5.524686 1.345054 8.244241.595667 2.60797 1.421915 5.158622 2.123265 7.747486 1.44113 5.263704 2.603641 10.603833 4.294566 15.800667 1.585243 4.881584 3.295384 9.686744 4.573185 14.663859 1.214386 4.722582 2.176485 9.505777 2.88226 14.329504.684055 4.353829.755193 8.781151.211365 13.154485-.2044 1.154244-.304078 2.324415-.297833 3.496399-.006047.758122.074533 1.514473.240188 2.254509.156151.102059.342193.149146.528414.133742 1.316232.076424 2.161695 1.117701 3.458712 1.14701.645174.007055 1.289331-.053793 1.921506-.182157l2.104049-.439438c.269011 0 6.878993-1.213231 6.984675-.66871-1.681317-8.693233-4.736512-13.985596-5.60119-27.560413-.470769-7.365366-4.198491-14.491906-5.351395-21.761741-.585519-3.422374-.807712-6.896454-.66292-10.365008.182543-3.534611.720565-7.050116.960753-10.584727.217686-4.420342.040856-8.851171-.528414-13.2404622-.269011-2.1971907-3.103233-10.4414322-5.015131-11.2629904-.723852-.3225363-1.535046-.3964737-2.305808-.2101661l-.230581.076424-.557236-.3725671c-1.806216-1.0794893-4.169669-.8120052-6.081568-.143295-1.911898.6687102-4.00634 1.7768585-5.005524 3.6683531l-.163328.3534611-.201758-.3343551c-.289569-.4213498-.824391-.6016311-1.311961-.4422441-.487569.1593869-.810464.6200571-.792088 1.1300603h-.07686c-.60394.0089909-1.098523.4799292-1.133689 1.0794893-.172936 2.8659009 1.614065 5.6553777 3.449104 7.9194394" fill="#391f5d"/><path d="m167.165605 22.5844521c-.649442 2.2870937-1.17599 4.6078519-1.577345 6.9521523-.269303 1.8131834-.096179 3.3742665 1.500402 4.2954024 1.962258.9471373 4.023796 1.6691762 6.145875 2.1525493 4.263563 1.3161486 8.681476 2.0562813 13.138131 2.2010301 1.442693 0 4.953248.290885 6.117021-.7078203s1.029122-4.2081368 1.240717-5.5946888c.224042-1.4720465.304576-2.9626715.240449-4.4505411-.084217-2.2414413-.347966-4.4723564-.788673-6.6709635-.634785-3.1609507-1.923592-7.165468-4.808979-8.9107782l-.115416-.0678732c-1.43611-1.7226866-3.421854-2.88817142-5.616887-3.29669708-2.41989-.40814265-4.90526.04430148-7.030727 1.27989416-2.194555 1.27551102-4.036538 3.08579862-5.357203 5.26501912-1.411203 2.3446459-2.461867 4.891321-3.116219 7.5533148" fill="#312b2b"/><path d="m176.319666 39.6732949c1.640911 1.4969923 5.192884 2.071996 6.693718-.0991385.7204 0 1.450806-.7137977 1.190662-1.863805l-.080045-.346985-.120067-.5948314c-.130072-.6939699-.220122-1.4077676-.300166-2.1116514 0-.2875018-.080045-.5650898-.110061-.8525916v-.555176c.022179-.3481482-.06522-.6945375-.250139-.9913856v-.1685355l-.100056-.4461236c-.400222-1.5763031-2.001112-1.2491459-2.241245 0-.326807.2035797-.557497.5285855-.640356.9021609l-.060033.2280187c-.075069.3488318-.115285.7041406-.120067 1.0607827-.420989-.298927-1.002624-.2301145-1.340744.1586217l-.530295-.0594832-.120067-.208191-.140078-.4362096c-.510283-.9913857-1.821011-.6344868-2.091161.4956928-.060538.2643137-.060538.5387086 0 .8030223.058262.3280417.098344.6589994.120067.9913857v.8228501c0 .4857789-.070039.9913856-.080045 1.4771645-.138421.606125.042345 1.2404714.480267 1.6853556" fill="#866552"/><path d="m175.307168 9.10900386c-.367927 2.12075734.429534 4.27774524 2.073021 5.60714814 1.804648 1.1975419 4.010369 1.5681255 6.090118 1.0232022 2.223098-.5915289 4.054789-2.2127545 4.959381-4.3895375l-.119026-.0716241c-1.481024-1.81789015-3.528873-3.04778494-5.792556-3.47888757-2.495571-.43069847-5.058672.04674977-7.250613 1.35062692" fill="#312b2b"/><path d="m175.21875 35.1025759c.061426.3139302.102377.6370937.13309.9233242l-.061426.7663591s2.743712 4.616621 8.272086.2492975l-.419747-2.7699726v-.5262948c.023378-.3243028-.0661-.6470964-.255943-.9233242v-.1569651l-3.122508.6647934-2.354678.5078283-2.139685.4616621c-.061943.2461679-.061943.5017248 0 .7478926" fill="#684f40"/><path d="m173.901483 13.6796622c.48853-.2596626 1.019789-.4176097 1.56481-.4652296 1.180634-.118782 2.661113.9205606 3.813637 1.0789366 1.958354.2672596 4.81624.3464476 5.846952 2.4449299 1.030713 2.0984823 0 4.0979796-.412285 6.1568679-.074961.4355341-.121811.8710682-.168662 1.3066022h.074961c.515187-.2641436 1.108947-.2997825 1.649141-.098985.470473.1520149.785623.6189161.768349 1.1383277-.284502 1.604287-1.355217 2.9276655-2.811035 3.474374-.117008.7114557-.321771 1.4036451-.609057 2.0588883-1.040083 2.3360464-3.064028 3.5634606-5.144194 4.7215853-1.750389 1.0188865-3.910716.8153329-5.462778-.5147221-1.799062-1.2967037-2.276938-3.1873175-2.46434-5.3748863-.332356-2.3330319-.240128-4.7116368.271733-7.0081391.76835-2.8309714.421655-7.3941806 3.138989-8.9086513" fill="#866552"/><path d="m189.87611 59.203322c0-2.0536646-.471899-15.6519956 1.32902-17.3793771.635618-.6045835 2.022422 1.1707808 2.417275 1.7081884 1.194192 1.6410124 1.540893 3.6466943 2.070575 5.7579383 1.204564 5.357373 1.850035 10.8244917 1.926116 16.3141585.260026 6.5736462 1.271237 13.2912409 2.003161 19.8936768.423745 3.8386255.577835 7.6772511.625988 11.573456v6.1705901c0 1.074816.077044 2.370352-.789708 2.87897-1.425326.882883-1.82018-1.170781-2.089836-2.418335-.539312-2.48551-1.068994-4.9902127-1.560154-7.5045124-1.245258-5.7177476-2.190339-11.4963332-2.831391-17.3122012-.205133-1.8880719-.565893-3.7561132-1.078625-5.5852001-1.04257-3.9335071-1.710043-7.9563305-1.99353-12.0148979 0-.5757939 0-1.1515877 0-1.7369781z" fill="#866552"/><path d="m166.900889 76.0654055-.952257 1.5359022c-1.269675 2.1118654-2.599661 4.1885332-3.989956 6.2300031-.761805 1.1423272-3.009131 5.8844252-4.466084 3.9933456-.485651-.643159-.342813-.6527584-.2952-1.4783058.219019-3.3501866 1.771198-6.8827616 3.018654-9.9545659 1.214758-2.9741637 2.6306-5.8607646 4.237543-8.6394496 1.456953-2.5150398.466606-4.9628839.209497-7.6795109-.339631-3.7413072-.365115-7.5048509-.076181-11.2504833.180929-2.3134526.266632-8.3994649 2.561571-9.8009757 1.133186-.6911559 2.361597 2.3518502 1.66645 3.0910031 1.065712 1.9637676 1.835934 4.07632 2.285416 6.2684007.218744.2268035.356144.5207118.390425.8351468.410758 3.7423907.317866 7.5235775-.276154 11.240884-.2952 2.5150398-.428516 5.0876759-.780851 7.5739175-.40947 2.8798166-2.009262 5.5484466-3.542395 8.0442876" fill="#866552"/><path d="m164.794061 82.5015027c.583592-1.7722816 1.381168-3.476771 1.945307-5.2490526.638083-1.9711381.898732-4.0440542.768397-6.110982-.204257-3.8738395-1.458981-7.5830409-2.139839-11.3890883v-.1065306-.048423c0-.2324304-.048632-.4648608-.068085-.7069757 0-.4067532-.05836-.8231909-.05836-1.2299441 0-.4067531.048633-.9684599.077813-1.4139514v-.1258998l.058359-.4164378c.301523-1.8303892.78785-3.62204 1.254723-5.4136908.972654-3.8738396 1.692418-7.6605178 1.138005-11.6215187 1.945308-.5907606 4.221318-.532653 6.127719-.9103523 1.095644-.3739277 2.297092-.2864812 3.326476.2421149.587993.4312897 1.245986.7588675 1.945308.9684599 1.283903.2517996 2.02312-.5907605 3.073586-1.0846751.40156-.1889343.839774-.2880991 1.283903-.2905379.972654 0 2.032846.9684599 2.917961 1.32679 1.945308.9103523 3.890615 1.6948049 5.835923 2.5179958.952193.2877885 1.626101 1.1323263 1.692417 2.1209271.145899 1.5689051-.612771 3.0312795-.797576 4.5517615-.217393 2.0812704-.542039 4.1500451-.972653 6.1981434-.904568 3.9997393-2.499721 7.8057867-3.345929 11.8345799-.730297 3.0651545-.499461 6.279541.661404 9.2100536.778123 2.0821888 1.565973 4.1546929 2.344096 6.2368817.398788 1.0362521 1.23527 2.149981 1.303356 3.2733945.136171 2.3630421-4.785457 3.0990716-6.419515 3.6026708-3.719208 1.1959206-7.552235 2.0072512-11.438409 2.4211497-2.373992.2832449-4.778385.1818586-7.119826-.3002226-1.464674-.3140069-2.854934-.9058542-4.094872-1.7432278.068086-1.665751.184804-3.3218174.320976-4.9778838.103749-.4648608.230194-.9200369.379335-1.3655285" fill="#866552"/><path d="m165.851331 66.3548473c.585175 2.5649426.70334 5.2122115.348971 7.8180223-.135711.9569183-.358664 1.9712517-.513763 2.9568776-.067855.4593207-.13571.9569182-.193872 1.3779623l-.048468.3540598c0 .2679371-.058162.526305-.096937.7846729-.232647 1.9138366-.455601 3.8276732-.814265 5.6745255-.087243 1.1865787-.164792 2.3635881-.21326 3.5501668 1.235744.8273942 2.621301 1.4121882 4.081021 1.7224529 2.33352.476336 4.72978.5765141 7.095742.2966447 3.873028-.4089658 7.693089-1.2106274 11.399716-2.3922957.717329-.2200912 2.055051-.4880283 3.324917-.8995032 1.638225-.5454434 3.150432-1.3492548 3.072883-2.6602328-.067855-1.1100252-.911202-2.2104813-1.298947-3.2343838-.775491-2.0573744-1.560676-4.1051795-2.336166-6.1625538-1.15865-2.8954776-1.385428-6.0730501-.649474-9.1002929.368358-1.7702988.891814-3.5023209 1.434658-5.2247738-.667949-1.5747042-1.111614-3.2331886-1.318334-4.9281292-.063138-.5943856-.092265-1.1918134-.087243-1.7894372.070859-1.8465547.278208-3.6855374.620393-5.5022802.368358-2.2966038.969363-5.1099436 2.336166-7.1386104l-2.752993-1.1674403-.465294.3923365c-3.455951 2.4853011-7.805154 3.435529-12.000722 2.6219561-3.029542-.5998493-5.716921-2.3091767-7.522262-4.7845914-.719112.1207658-1.421702.323057-2.093826.6028585-.058162 3.033431.135711 6.066862-1.027525 8.9567552-1.405578 3.4831825-4.439686 7.6553463-3.09227 11.5500037.431182.8691236.964794 1.6849601 1.589756 2.4305724l.058162.105261c.341295.6404632.595522 1.3225682.756104 2.0286668.155098.5837202.271421 1.1770095.387745 1.7033146" fill="#391f5d"/><path d="m164.133645 62.6134565.059842.0906522c.349574.610554.611048 1.259538.777953 1.9308913 1.390294-.0090183 2.758098-.3198202 3.989498-.9065217-1.731329.2269336-3.489516-.198771-4.867188-1.1784783" fill="#1e0147"/><path d="m186.529719 64.1738616c-.761925 3.8233496-.873427 10.0458511.10221 12.4832365.734051 1.8352078 2.741075 7.5319988 3.716712 10.2179019 1.57031-.5448273 3.019828-1.3477307 2.945494-2.657228-.065043-1.1087714-.873428-2.2079844-1.245099-3.2307304-.743342-2.0550505-1.495976-4.1005425-2.239318-6.1555929-1.115403-2.8910872-1.332886-6.0666089-.62255-9.0900138.353088-1.7682992.854844-3.4983649 1.375184-5.2188722-.640259-1.5729255-1.065532-3.2295365-1.263682-4.9225627 0 .5543857-.176544 6.6908619-2.741075 7.1114303-1.453765.2244562-2.931955.2244562-4.38572 0 0 0 1.988441 2.0072586 4.395012 1.4241978" fill="#1e0147"/><path d="m192.167611 115.563602c1.828069-5.426899 3.952582-6.822949 5.592904-6.803286 2.243091-.117977 4.752981 3.037883 4.940728 4.915669.031436.227423.154467.432352.340827.567705.186361.135353.420029.189494.647319.149982.227353-.033842.431612-.156869.567153-.341601.135542-.184731.191074-.415778.154193-.641532-.464428-2.664293-3.05337-6.262563-6.65022-6.380539-2.737163 0-5.335986 2.330027-7.203582 7.963384-.143462.444939.098525.922079.54348 1.071616h.2668c.364158-.002749.686076-.236044.800398-.580049" fill="#020203"/><path d="m187.886912 136.915c-1.367277-.574952-5.019724-2.405216-5.019724-3.765936s.286841-17.449797.956138-18.513459c1.023067-1.705691 24.955203-2.740605 25.863534-2.740605 1.06954.198809 2.105917.547183 3.078765 1.034914l-21.991176 10.16707z" fill="#2d2e2f"/><path d="m187.09081 135.635331c-.011739.374231.146698.733738.431152.978318.284453.24458.664508.348081 1.034236.281655l25.189338-4.467179c.670439-.114543 1.158901-.419992 1.101435-1.183612l-1.331299-17.467819c-.004424-.331106-.14563-.645746-.390332-.869748s-.571247-.337545-.902657-.313863l-24.336924 2.329042c-.833977.11018-1.476937.786782-1.542009 1.622694z" fill="#040305"/><path d="m201.346885 128.221813c0 .652426.516401 1.115743.993078 1.040099l8.192893-1.285941c.575685-.175552.927382-.728278.824255-1.295397l-.417093-5.42743c-.049654-.624059-.496539-1.077921-.993078-1.011733l-8.113447 1.096833c-.592749.160136-.967438.715538-.873908 1.295396z" fill="#2d2e2f"/><path d="m190.092893 130.235266c0 .697194.490243 1.197996 1.027626 1.109619l8.268151-1.414028c.574711-.182658.935213-.775093.848499-1.394389l-.320544-5.823047c0-.667736-.480816-1.158718-.942777-1.080161l-8.202156 1.207816c-.609977.145902-1.016426.747049-.942777 1.394389z" fill="#2d2e2f"/><path d="m194.960373 117.658433c1.828783-5.426899 3.954126-6.822949 5.585202-6.803286 2.253852-.117976 4.754836 3.037883 4.942657 4.915669.036379.224399.16107.425169.346542.55798.185472.13281.41647.186738.641989.149876.228131-.03104.433459-.153828.567999-.339669.13454-.18584.186502-.418448.143744-.643464-.454725-2.664293-3.044677-6.262563-6.652816-6.380539-2.738232 0-5.328184 2.320196-7.196508 7.963384-.144445.442123.092623.918037.533807 1.071616h.266903c.366957-.001558.692497-.234509.810596-.580049" fill="#020203"/><path d="m196.602125 109.8454c-.063345-.197543.002432-.413067.16595-.543755.163518-.130687.391649-.15006.575559-.048875.224361.120443.463627.211877.711849.272027l.336151.087437c-.305653-.075266-.601056-.186159-.879924-.330318-.242368-.146677-.325008-.454406-.187849-.699498-.426309-.455963-.761681-.986544-.988679-1.564154-.553661-1.243551-.098868-2.399665.296603-3.61407.257057-.786934.464679-1.81675 1.423698-2.00134.326355-.063865.662324-.063865.988679 0v-.136013c0-.650921.988679-.660637 1.038113 0 .023554.281652.104233.555825.237283.806365l.217509.281742.069208.252596.336151.612061c.395471.854941.751396 1.748743 1.07766 2.63283.479597 1.080372.409912 2.320144-.187849 3.342043-.392353 1.017183-1.079885 1.898845-1.977358 2.535679-1.186415.563484-2.204754-.466332-3.242867-.864657-.524-.20402-.415246-.971524.05932-1.0201" fill="#866552"/><path d="m108.394493 96.7086903-.253522-1.3168059c1.737286.6368205 3.651404.5734577 5.34348-.1768844l.058505.982691 2.574232 9.099718-.975088 5.896146-2.018432 2.722054c-.363551.121961-.762543.068874-1.08223-.143995-.319688-.21287-.524641-.561928-.555917-.946792-.22427-1.503517-1.101849-8.274258-1.101849-8.274258s-1.023842-.373422-1.140852.982691c-.117011 1.356114-.624057 3.292015-2.164695 3.282188l.156014-6.190953z" fill="#f9c5af"/><path d="m70.1506821 89.655c.1355007 0 33.5170819.2112919 33.7009759.0960418l.445217 17.5180202-1.48083 29.552055-3.8036999 42.488883h-7.297684l-1.3937222-41.758965-2.226084-31.01189-1.6647237-.06723-3.3488046 30.032264-6.4266078 42.805821h-7.0363612l.6291107-42.959487-.7162183-30.637328z" fill="#1f7aa7"/><path d="m70.1430882 89.655s3.5085095 0 8.1737756.0576251c-.2581193.432188 25.8119232 6.7901537 25.2765642 6.8861955-9.93281 1.5558768-29.5594314 1.1813138-29.721951 4.9845684-.2103193 5.176652.9559972 33.921956.4684386 42.556112-.4684386 8.912677-1.0898367 32.366079-1.3957558 35.170499h-3.3268701l.6213982-42.959487-.7074379-30.637328z" fill="#01689b"/><path d="m94.4024991 165.132991c0 4.738511-.0444447 9.467391.1600009 14.177009h-2.9333496l-1.2711182-41.876112-2.0533447-31.098888s4.4444691 20.408344 4.9689165 28.19029c.6400035 10.189725 1.1822287 20.398713 1.1288951 30.607701" fill="#01689b"/><path d="m70.2265625 89.6454396v-1.0707656 1.080326m.1871995-3.9388876 1.2034255-12.0461124v.3154934l-.338742 3.4035048-.8379407 8.3175538" fill="#e5e5e5"/><path d="m76.1011787 179.31 4.7855941 3.269044c4.3388062.433246 4.6366647 5.070956 4.6366647 5.070956h-18.0204422c-.2299218-2.846215.2296403-5.705699 1.3403635-8.34z" fill="#e6ebee"/><path d="m80.65625 186.955h-3.6680566c-.1201043-.352422-.3072127-.676185-.5502085-.952055-2.0954284-2.262878-4.7117861-3.933963-7.6020474-4.855479.0288878-.152045.0687372-.301621.1192118-.447466 4.5117097.780685 8.8125061 1.90411 11.6827604 6.255" fill="#182e38"/><path d="m98.4386917 179.31 8.3861003 3.269044c4.140933.433246 4.425208 5.070956 4.425208 5.070956h-20.7141419c-.3426458-2.805428-.0771609-5.654972.7770172-8.34z" fill="#e6ebee"/><path d="m104.992188 186.955h-4.625405c-.148568-.262352-.34115-.501553-.5706673-.708808-2.5080171-2.152601-5.4736773-3.804345-8.7101782-4.851192 5.2661537.856093 10.5923775 2.282914 13.8762145 5.523179" fill="#182e38"/><path d="m85.5234375 186.955h-18.0063969c-.0563184-.462013-.0795019-.926043-.0694462-1.39h17.6393244c.2255431.446422.3723425.913873.4365187 1.39" fill="#2e5a71"/><path d="m110.813453 185.565c.226616.445551.373508.913266.436547 1.39h-20.7454931c-.0664311-.480585-.0949016-.924202-.1138819-1.353032h19.929339c.1485.008039.297538.008039.446038 0" fill="#2e5a71"/><path d="m71.7029234 63.5185768h-1.6877932l1.3731199-9.4647989.3146733 9.4839973m-12.7967142 3.7628815-.4958489 2.6973717c-.0533496 1.1868271.4147686 2.3371636 1.2799136 3.1452131s2.0396643 1.191944 3.2113326 1.0496319l9.0969191-1.2478944v.7199391l-1.2968355 12.0853771-.448171 10.7798876c11.2138121 0 22.4276243 0 33.6509719.1151903l-.25746-10.8950779-.953555-12.2293649.324208-16.0978375c0 2.303805.638883 15.4834895.638883 15.4834895l4.453104 25.7834177 5.921579-1.1807001-2.584135-28.1352187-1.754542-30.2278415c-1.071349-2.6368452-3.365161-4.5724827-6.131362-5.1739621l-16.458367-6.0186906v-.153587h-.1048911l-.2097822.0767935-.2097822-.0767935h-.1048911v.153587l-16.4583672 6.0186906c-2.7662009.6014794-5.0600124 2.5371169-6.1313616 5.1739621z" fill="#cbbba0"/><path d="m61.8288704 73.6128611c-1.912461-.2842298-3.3472049-1.8873221-3.4092339-3.8092629.034544 1.9437435 1.4758762 3.5783539 3.4092339 3.8664018m41.0927606-.8951768.19153-9.7993285.488401 9.7326664-.679931.0476158m-44.511571-3.0378871c-.00508-.0538463-.00508-.1080473 0-.1618936-.0047524.0570412-.0047524.1143756 0 .1714168m.2585655-1.5427514.2394125-1.333242zm.2394125-1.333242 4.9893564-27.9314196-4.9893564 27.8838038m12.5452147-13.0181557c-.004125-.0443467-.004125-.0889774 0-.1333242z" fill="#dbdbdb"/><path d="m70.921875 76.45.38-3.475z" fill="#c5c5c5"/><path d="m71.1606501 76.45.3681211-3.3893151v-.3141781-.714041l-9.2417767 1.2376712h-.4456203c-.2273065.0005426-.4542208-.0185722-.6781178-.0571233-1.9451297-.2861031-3.3997989-1.9044593-3.4487133-3.8367808-.0048075-.0570256-.0048075-.1143443 0-.1713699v-.0666438l.2615597-1.3233562.2421849-1.3328767 5.0471339-27.9237671c.6387117-1.5528457 1.7393928-2.8801141 3.1580914-3.8082192-2.12154 3.7225342-2.9062191 10.0727397-2.9837183 10.7106164-.8912405 5.055411-1.1818624 10.1013014-2.1312273 15.2328768-.4553077 2.4182191-1.3852978 5.9789041.4456202 8.1781506.755617.9044521 3.8749588 1.2186302 7.7499176 1.2186302 6.0998061-.1276038 12.1886145-.5693284 18.2413685-1.3233562 2.5962224-.3236986-.2228101-5.0649315-.2228101-5.0649315h-3.952458l-12.3417437-.9520548s-.2518723-7.6164383-.3099967-9.2634931v-.1332877c.3390589 2.4563014 1.7437314 5.6171233 3.8749588 6.9976027 2.1148674 1.1751337 4.5304562 1.7239936 6.955551 1.580411.8428035 0 1.6856071 0 2.4993484-.0666439.9687397-.0476027 2.024666-.0666438 3.0321553-.0666438 5.2118195 0 10.4139517.5236301 15.6257713.799726l-.193748 9.7966439c-1.278736.104726-4.0977689.3236986-6.713366.4474657h-.0871866c-.7477636-.0041392-1.3976446-.5056855-1.5790457-1.2186301-.193748-.8092466.1453109-1.6280137-.9687397-1.685137h-1.0171767c-6.0158735 0-12.5451791 2.4467808-17.8829348 4.760274l-3.342152 1.7517808" fill="#b7a890"/><path d="m99.4118916 57.6857598h20.8670014c1.110975 0 1.400795.3938424 1.400795 1.2487688l-2.618036 13.448279c0 .8549263-.705228 1.2871924-1.574686 1.2871924h-20.6544677c-.8694584 0-1.5746858-.3842365-1.5746858-1.2295569l2.5407507-13.2465549c.0049844-.4101935.1757071-.8011499.4737225-1.0848286.2980153-.2836788.698268-.4362299 1.1106239-.4232998" fill="#9abccc"/><path d="m90.6032628 62.6425407 5.7431769-2.1775407h1.6926228l-1.4480242 7.9068922-3.0036717.9677959c-1.2475875.309034-2.5656659.1683609-3.7178998-.3967963l-2.2600918.47422.4891973-4.9744708z" fill="#f9c5af"/><path d="m104.992188 63.1151842-1.099477 3.1614994c-.329773.8714322-1.11903 1.5347123-2.101655 1.7662008l-5.9352298 1.4571156-4.2130399-.2560991c-.4154854-.0901668-.8248333-.2022158-1.2259655-.3355782l-2.773017.3444092-.7297413-4.7599111 7.8714764-1.9428208z" fill="#f9c5af"/><path d="m99.3903179 8.45544451-1.2401415 10.41543729c-.2744548 2.2756413-1.4561484 4.3467782-3.280352 5.7494244s-4.1384346 2.0195565-6.4242474 1.7125275c-4.9211965-.5770055-8.5333547-9.7797534-8.4841427-12.9581732l.7677067-7.1196605 18.7005465 2.20044451" fill="#f9c5af"/><path d="m92.8485454 20.1387245.3233296 10.8498953c-.4711373 1.8034679-2.7713961 5.8176383-3.7968127 7.9313802-.3631296-.0192441-.726953-.0192441-1.0900825 0-1.5704578-2.3367514-5.5427923-7.3593124-5.5427923-8.6198007l.9237987-10.8401993 9.1548453.7369008" fill="#f9c5af"/><path d="m93.1134454 27.3962645.0584296 1.8127526c-2.0450368 1.5593571-5.9306066.1169518-7.7906162-1.2669776-1.1513292-.8776993-2.0597018-2.0350303-2.6390713-3.3623638l.3992691-4.4246757c1.5775998 3.6742351 6.3201374 5.9742869 9.942774 7.2412645" fill="#d8ac99"/><path d="m90.1323356.00636085 10.8945724 2.1446184c1.878374 5.92982047-2.2634414 6.97742209-2.2634414 6.97742209l-10.6785593-1.33420961c-.689909-.14089687-1.4036411.04813334-1.9479682.51591467s-.8629446 1.16592698-.8695936 1.9054287l-.4883773 2.9649102-1.3806053-.1778946s-.366283-1.2551453-1.0800654-1.3539757c-.5353367-.0592982-1.0612816-.0790642-1.2585109 1.6603498-.5353367 4.7636224 1.7656721 4.6153769 1.7656721 4.6153769l.2629724 3.5480093-.441418 1.462689c-1.3962971-2.9216255-2.3048883-6.0741052-2.6860756-9.3197012l.7607417-6.72046317c.8640523-7.69888358 9.3918726-6.86870871 9.3918726-6.86870871" fill="#673327"/><path d="m92.7651172 26.41h.0347656l.0834375-.695-.1182031.0417z" fill="#e5e5e5"/><path d="m92.1420254 26.41c.1137643-.0193105.2255178-.0436328.3345371-.0728095v-.6221905c-.6778212.1356742-1.379042.2113275-2.0859375.2250476.6100383.1720953 1.2102373.3309524 1.7809183.4699524" fill="#e0b19d"/><path d="m90.0571781 27.105c.5820442-.0013944 1.1614563-.0604015 1.7240719-.1755789-.5494295-.1536316-1.1272778-.3292106-1.7145989-.5194211h-.2273502c-1.8277875-.0039767-3.5978048-.4949441-5.0111759-1.39 1.2081625 1.303326 3.1535596 2.0790215 5.2290531 2.085" fill="#c29b8a"/><path d="m83.5407139 11.12 1.3693949.1576339c-.5937237 9.4209425 3.208023 9.6713022 7.9003551 10.1998393 5.2285986.5934452 5.2285986-3.7090325 5.2285986-3.7090325s0 10.3574733-6.3202841 10.0236604c-9.7102546-.5007194-8.9633119-10.5800152-8.9633119-10.5800152z" fill="#673327"/><path d="m88.4988513 22.0511702c.2168941-1.6044556 1.8132276-2.7515939 3.5802766-2.5728159l2.3834703.2489822c1.7828598.1878888 3.0622038 1.6521859 2.8601643 3.2736546l-.1115667.8114975c-.1037195.7817595-.5467842 1.4934044-1.2306149 1.9765978-.6838308.4831934-1.5517016.6978529-2.4105163.5962181l-2.3834702-.2582038c-.8565614-.0856119-1.640171-.4783621-2.1770897-1.0911714-.5369188-.6128093-.7827808-1.395041-.6830746-2.1732616z" fill="#673327"/><path d="m95.2578125 22.6727136c-.1539012 1.1329228-1.0863616.999175-2.2270413.8811622s-2.0821932-.180953-1.9282919-1.3138758z" fill="#f9c5af"/><path d="m105.599587 63.1660227c.432563 0 .783225.2970184.783225.6634091s-.350662.6634091-.783225.6634091l-8.9511495.1421591.1678341-2.085z" fill="#f9c5af"/><path d="m92.6524357 27.9362427.5821538-.1362427 2.023223 1.7808868c0 2.5399533-1.5937653 6.5591132-1.5937653 6.5591132l-3.2734222-4.1359393c2.7962469-1.6251809 2.2618107-4.067818 2.2618107-4.067818" fill="#f8f9fa"/><path d="m93.171875 35.2371495c-.2040468 1.9614264-1.9606501 3.5121218-4.171875 3.6828505l1.8224507-6.255z" fill="#d5dde2"/><path d="m85.5234375 31.8860785-3.1448763 3.5589215c-.9962622-1.7461472-1.8065301-3.5910154-2.4176237-5.5045955l2.3783127-2.8354045s.8844965 3.5491442 3.1841873 4.7810785" fill="#f8f9fa"/><path d="m88.3046875 38.92c-1.1054255-.2842545-2.1556036-.738027-3.1098468-1.3437368-1.7869278-1.6749394-1.7573407-2.4035854-1.7573407-2.4035854l2.3793101-2.5076778z" fill="#d5dde2"/><path d="m116.117188 115.37h5.5625v68.11h-5.5625z" fill="#683328"/><path d="m71.7030459 115.37h94.3907831c1.221427-.08275 2.171796-1.147203 2.171796-2.4325s-.950369-2.34975-2.171796-2.4325h-94.3907831c-1.2214267.08275-2.1717959 1.147203-2.1717959 2.4325s.9503692 2.34975 2.1717959 2.4325" fill="#683328"/><path d="m71.6171875 114.675c30.8775515 1.991129 62.3726535 1.710223 94.5625005 0z" fill="#683328"/><path d="m91.1148136 186.955h55.5961244c-.041125-2.286314-1.943557-4.130142-4.30254-4.17h-47.0295465c-2.3552231.044815-4.2519494 1.887235-4.292914 4.17" fill="#683328"/><path d="m110.786916 88.9616831h36.796558c.512161-.0221013 1.010011.1742646 1.372491.5413487.362481.3670842.556385.8712566.53456 1.3899213l-2.717548 19.6120469h-34.822759l-2.708013-19.5830778c-.390946-.7918207.772355-1.93127 1.554246-1.93127" fill="#cfd6e0"/><path d="m128.632812 98.69c-1.168125 0-2.085937.4699795-2.085937 1.0425 0 .57252.949102 1.0425 2.085937 1.0425 1.136836 0 2.085938-.46998 2.085938-1.0425 0-.5725205-.949102-1.0425-2.085938-1.0425" fill="#adb4bb"/><path d="m102.464364 100.165194c-.693018.007252-1.322334-.3738743-1.593877-.9652854-.271544-.591411-.131698-1.2763321.354188-1.7347092.485887-.4583772 1.221876-.5997036 1.86405-.3579394.642175.2417641 1.063737.8188823 1.067725 1.4616755.00535.8731713-.750689 1.5864055-1.692086 1.5962585m-33.6284265-4.6452908.0676823 6.6450968 39.5651302-.313871-.067682-6.636129z" fill="#454444"/><path d="m100.125 98.7101572c.011106 1.1475191.947854 2.0703528 2.09595 2.0648428 1.148096-.00556 2.075925-.9373831 2.075925-2.084956 0-1.1475728-.927716-2.0794465-2.075811-2.085044-1.144202.0055117-2.070395.9312729-2.07591 2.0749396" fill="#fff"/><path d="m99.6816492 108.53212c-.941559.004686-1.7104563-.696591-1.72094-1.569617-.0104836-.873026.7413825-1.590005 1.6828212-1.604738.9414386-.014732 1.7189676.678314 1.7402596 1.55117.005169.421697-.171879.827772-.491655 1.127656-.319775.299883-.755678.46863-1.2104858.468603m-33.6269617-4.645291.0580275 6.645097 39.574785-.313871-.058028-6.636129z" fill="#454444"/><path d="m97.34375 107.03c0 1.151514.933906 2.085 2.0859375 2.085s2.0859375-.933486 2.0859375-2.085-.933906-2.085-2.0859375-2.085c-1.1497285.005538-2.0803965.935788-2.0859375 2.085" fill="#fff"/><path d="m56.101285 77.1563497c-1.8928187-2.533843-3.9533952-4.9327578-6.1673082-7.1799553-2.4364674-2.4741738-2.8552353-6.7336337-3.4643521-9.9646136-.5139424-2.7361451-5.1965283-19.4052845-10.2312598-15.6891726-.5381273.4609605-.8251647 1.1581972-.7709136 1.87261.0951745 2.8234689 1.5323096 5.967125 2.721991 8.4704067.0865602.2144489.2658934.375763.48539.4366189.6186343 3.4735459.9041579 6.3843386 2.1509439 9.5085894.9517451 2.38685 2.6744038 5.0162661 3.6642187 7.3546029 1.1325766 2.6779293 3.3406252 4.8513211 5.424947 6.8500654l1.2848559 1.2322356c1.7321761 1.6882598 3.5214568 3.3377089 5.33929 4.9386449 1.0088498.8926431 4.3589925 4.8513212 5.1870108 2.5906055.2855235-.7665087.1427617-.7374008-.1237269-1.5330175-1.1040243-3.2309799-3.4738696-6.238799-5.4534994-8.8876203" fill="#866552"/><path d="m66.2384769 89.1294599.0652134-.171605c.2279697-.3606659.372285-.7999922.4157356-1.2655864.0407655-.4057971.0407655-.8168881 0-1.2226852-.0495038-.0838851-.0805239-.1840643-.0896685-.2895833l-1.4346953.8258488c-.1437749.1077801-.2754624.2413374-.3912806.3968364-.1135159.1701845-.1615702.3993784-.1304268.6220679.0409577.1623394.1108322.3094354.2037919.4290123l.7418027 1.0725309c.0502697.080195.1247925.1272595.203792.1287037.0889074-.0045822.1744647-.0458576.2445503-.1179784.0947747-.1226586.1599853-.2793346.1874886-.450463" fill="#7b5642"/><path d="m64.9110151 85.1973882c.769343.2406394 1.4881101.6346229 2.1176077 1.1607411.2406658.185845.3863963.4791156.394645.7941912 0 .6007344-.452398.8145551-.847043 1.0691035-.3946451.2545485-.6064059.5294609-.5197765.8960107.0550265.1693698.1513114.3203905.2791392.4378233 1.2994411 1.4356534 1.9250979 1.9549323 3.1956625 3.3905856-.4020485.2455419-.8973926.2455419-1.2994411 0-.3994976-.2270122-.7579405-.5268969-1.0588038-.8858286-1.0395529-1.1098314-1.376445-1.3134701-2.4256233-2.4233015-.4138961-.4378233-1.0973058-.8960106-1.5208274-.4683691.1347569.7738273.962549 1.1301952 1.6748352 1.4560172.1404399.0510257.2287193.1981679.2125741.3543142-.0161451.1561463-.1324059.2796236-.2799525.2973299-.8955475.1547069-1.8143698-.0025186-2.6181331-.4480053-1.0888259-.6180341-1.869016-1.707272-2.1368587-2.9833081-.0866294-.4072775-.1058804-.834919-.2117608-1.2421965-.0662536-.1671428-.0862811-.3507495-.0577529-.5294608.0607373-.1663313.172622-.3062027.3176412-.3970956 1.4381851-.9642728 3.2225286-1.1530224 4.8127447-.509097" fill="#866552"/><path d="m41.3532353 45.1799976c-.145499-.2224066 3.9381739 7.0299813 4.9663671 11.4684428 1.0281931 4.4384614 2.2697849 10.482118 4.3067714 12.5708057 2.0369865 2.0886878 5.7132621 6.1306853 5.6939387 6.1113456l-4.287448 5.2894083c-2.2033291-2.1421976-4.2886371-4.4018065-6.2467586-6.7688954-2.1736172-2.9269248-3.7880855-6.2277947-4.7626684-9.7375396l.3297978-18.9142277" fill="#26262b"/><path d="m27.3994062 99.8870935c.2367648-1.6313555.3875929-3.2740259.4518601-4.9212124.9663335-.1013617 1.7181877-.8855408 1.7785982-1.8550663 0-1.0957387 0-2.1914774-.0576842-3.2776043.4369482.3462192 1.0026965.4857784 1.5505807.3824984s1.0239529-.4392291 1.3047904-.920756c.2845571-.6117605.4881662-1.2579836.6056848-1.9223486.5831788.2549565 1.2547664.204866 1.79365-.1337797.5388836-.3386458.8752231-.9219578.8982825-1.557887 0-.5286459 0-1.0572917-.0480703-1.5859376 2.8842133 5.7670457.3845618 12.3607013 3.0380381 18.175806.2884213 3.094981 2.0958616 6.170739 2.393897 9.26572.1442107 1.432149 1.2498258 3.527509 1.2498258 4.998106.8171937 6.074621 2.5861779 11.534091 2.826529 17.695219.3076494 7.83357.2403511 15.676752.6152989 23.500711.0480702 1.057291-.2691933 15.378788 1.4805628 21.318845l-.211509.067283c-1.8599358.524041-3.8568047-.036284-5.1723559-1.451374-1.2017555-5.68054-2.6534762-11.293797-3.8456177-16.974337-.6249129-2.979641-1.1536853-5.988116-1.519019-9.006203-.3653337-3.018088-.4807022-6.122681-.7498955-9.169603-.2004507-2.963334-.5502048-5.914681-1.0479308-8.842804-.5779696-2.843249-1.3064567-5.65383-2.1823881-8.419886-1.5959314-5.228788-3.4418279-10.457576-3.9513722-15.926658-.2211231-2.422159-.2884214-4.930824-.5287725-7.401042-.442246-.086506-.8844921-.1634-1.3363521-.230682-.3682627-.066167-.7147921-.221243-1.0094747-.451752.8198418.033272 1.5400927-.539518 1.6920718-1.3456438" fill="#e6b289"/><path d="m41.8048757 175.244258c.9502661 2.615928 1.8055056 5.269768 2.9648303 7.809873h-.1805505c.2932585.905256.6423555 1.79156 1.0452927 2.65384.1045293.217994.2090585.42651.3230905.635026l.1710479.274862c.9027528 0 1.653463 1.677606.7317049 2.22733-1.9005323 1.13736-3.2879208-3.023482-3.8010645-4.2651-.8932502-2.170462-2.4896973-4.739001-2.7272638-7.023199-.0558286-1.015732.5012941-1.966723 1.4158965-2.41689" fill="#646464"/><path d="m41.7686056 175.251089c-.09551-.415135-.0685903-.84936.0774485-1.249275 1.3984545-.776441 3.0045904-1.087305 4.5888274-.888157h.4259671c-.0610372 2.110149.598563 4.177431 1.8684465 5.855978 1.8490844 2.078873 3.3690125 3.533107 4.1144549 6.314697 0 .195199-.0871296.390399-.1452161.595358-.2118312.885041-.7853159 1.638355-1.5785511 2.07354s-1.7321099.511584-2.5843091.210291c-.165887-.068171-.3275332-.146394-.4840535-.234239-.5577704-.174653-1.0503509-.514786-1.4134363-.975996-.4356481-.556318-.7744856-1.200476-1.1810905-1.776314-.6406263-.771825-1.2139394-1.597985-1.7135495-2.469271-.3388374-.702717-.5130967-1.493274-.8712963-2.195991-.4743725-.975997-1.2004527-1.747034-1.6845062-2.72303-.3544472-.90346-.123969-1.933574.5808642-2.596151" fill="#2f262e"/><path d="m52.7843983 185.802633c.0890883.807538.1247236 1.465856-.2405384 1.843292-.3417248.276206-.7397423.476773-1.1670567.588097-.7351826.287791-1.4916812.519614-2.2628428.693429-.7026055.125455-1.4203569.146168-2.1292103.061443-.7665547-.959158-1.1528607-2.160278-1.0868773-3.379367.031602-.394093.1216469-.781496.2672649-1.149863.4000485-.444968.8962653-.795901 1.4521393-1.026977.9103216-.469512 1.931478-.690735 2.9577315-.640763.918479.070436 1.7098233.664646 2.0223044 1.518521.0712706.500322.1514501 1.000644.2138119 1.500966" fill="#646464"/><path d="m10.2281612 92.2503265c-.0224394-1.3937579 1.1063878-2.5481566 2.5378365-2.5953265.9552493.005296 1.8368754.5003111 2.3197411 1.3024873 3.2119492 0 6.4238984 0 9.6358476-.0964806-.2180953 0-.4163638.5885313-.5948054 1.6498172 1.3011374-.2111082 2.5653626.5353245 2.9740271 1.7559458.9913423 2.344477.7534201 5.0845243.4361906 7.5544263-.3172296 2.469902-.8922081 4.901211-1.1499571 7.207096-.8129008 6.579973-1.9826847 13.111705-2.9740271 19.662733-.2775758 1.852427-.5320204 3.704853-.7633336 5.557279-.1288745 13.671292-1.1598705 27.31364-1.2193511 40.94634-.1387879.520995-.2974027 1.032342-.4659309 1.534041-.2306113.670524-.5294991 1.31694-.8922081 1.929611-1.1750386 1.068944-2.7968219 1.540312-4.3817332 1.273543l-.2280087-.057889c.5353248.164017 0-14.404544-.2478356-15.784215-1.239178-6.956247-3.0731613-13.777421-2.6865378-20.849445.4461041-8.065772-.9318618-16.20873-2.0719055-24.178022-1.2986585-9.156003-.50558462-17.665587-.2180953-26.8601818" fill="#e6b289"/><path d="m19.7880715 174.551859c-.7542855 2.758915-1.3894733 5.546973-2.3521798 8.237886h.1984962c-.2263901.947594-.5080545 1.881715-.8436087 2.797773-.0838987.231376-.1799668.458351-.2878195.680014-.0402943.099788-.0866942.197109-.1389473.291434-.9329321.116574-1.558195 1.865182-.5557893 2.341192 2.1139843.971449 3.1461644-3.390356 3.5630064-4.701812.7245111-2.292619 2.1536836-5.02239 2.183458-7.412154-.0343594-1.046026-.7076023-1.969359-1.7070672-2.341192" fill="#646464"/><path d="m19.9428439 174.878248c.0603618-.409928-.0039747-.82807-.1850772-1.202872-1.4715116-.622454-3.1064968-.781429-4.6756346-.454629h-.2240408c.1969916 2.093158-.3571323 4.188099-1.5682858 5.929117-1.6656948 2.168958-3.0586443 3.712802-3.5554305 6.468989.05325959.18993.11831842.376544.19481811.558814.28012059.845635.91710899 1.535404 1.75174529 1.896895.8346362.361491 1.7880474.360542 2.6219213-.002608.1633674-.078882.3197538-.170751.4675634-.274672.5493123-.215995 1.0181186-.589253 1.344245-1.070271.3896362-.577758.6721225-1.221815 1.032536-1.818516.5662778-.805709 1.0646853-1.654585 1.4903585-2.538344.2824863-.719829.3896362-1.496486.6721225-2.197372.3993771-.947143 1.0617587-1.799572 1.4513949-2.784601.2783972-.906415-.0470469-1.885875-.8182361-2.462573" fill="#2f262e"/><path d="m9.734375 186.826934c0 .835043 0 1.515785.4047441 1.878847.3747734.245469.7932869.415022 1.2322211.499211.7659845.225405 1.547702.392281 2.3385217.49921.7158103.067167 1.4375764.024322 2.1406467-.127071.68636-1.05837.9647346-2.333811.7825054-3.58524-.0611064-.401655-.1856075-.790831-.3687669-1.152723-.4450761-.415908-.9767387-.726038-1.5560164-.907655-.9611187-.39986-2.0095481-.53759-3.0400782-.399369-.9035038.172608-1.6280303.854309-1.86182299 1.751776 0 .517363-.0629602 1.043804-.07195451 1.570244" fill="#646464"/><path d="m27.0208672 10.0298395c1.186036.3549169 2.4709547.1543619 3.4889784-.544573 1.533185-1.26418741 5.5823656.16531681 7.1450349 3.8898074.4719503 1.2404719.6631774 2.5682721.5602021 3.8898074-.148556 2.975353-1.3486388 5.804543-3.3906974 7.9935543-5.2285536 5.5624246-4.805945 12.8363644-8.5504543 12.9627832-6.1720521.2042149-11.9411517-7.8963091-11.6561366-16.3274666-.4422649-11.8639127 8.2654392-13.67267311 12.4030729-11.8639127" fill="#3c3c3c"/><path d="m30.4608258 33.3085903-.188496 6.622616 2.3512399.2320332c1.2215552 2.5860092 2.1657388 5.2880666 2.8175197 8.0631557.5357256 3.3258101-9.9208438 4.9307068-13.532031-5.5978023-3.6111871-10.5285091 3.2540368-13.4385929 3.2540368-13.4385929z" fill="#866552"/><path d="m25.4665204 29.19 5.1272296 4.0565306-.1632264 5.6734694-.1440233-.0661905-8.0365003-4.5482313.1344217-1.6736734c.8073947-1.3301613 1.8629034-2.4979766 3.1109034-3.4419048" fill="#7b5642"/><path d="m36.7659919 21.6874517c-.5577794 1.9220736 1.2100975 5.0070018.6806798 6.7945302-.9659581 2.4961447-2.1858293 4.8828625-3.6397465 7.1212828-.5523401 1.0134674-1.5248755 1.7196337-2.6470884 1.9220737-.7125323.0356998-1.4204654-.1342177-2.0420396-.4901288l-7.5631097-4.4303797.7752187-13.2046458 12.06316-4.8051841 1.4748064 1.6145418c.9854808 1.0798038 1.4159274 2.566835 1.1628281 4.0171339z" fill="#866552"/><path d="m23.9551361 26.5450017c-.1866144-.7302975-.7734867-1.299031-1.5232057-1.4761271-.3706004-.0903724-.7617076-.0547074-1.1087279.1011046-1.2330712.5762962.1761531 4.4182708 2.0723887 4.7013636 1.4299481.2123197.901489-2.1029755.5284591-3.3263411" fill="#866552"/><path d="m35.8294531 23.9219-.0417187.1112c.0088708-.038764.0229021-.076164.0417187-.1112" fill="#d89c73"/><path d="m41.4016875 68.805.1418438-.3361612.1752187-.5135797c-.3600125-1.0079255-.6719516-2.0365327-.9345-3.0814779-.1084687-.29881-.2085937-.6069578-.3087187-.9337812-.1467609.5282243-.3223087 1.0458868-.5256563 1.5500768l-.3170625.7843762 1.80225 2.530547" fill="#f2f2f2"/><g transform="translate(39.632812 50.735)"><path d="m1.43929687 12.8632235c-.13558593-.3008941-.26074218-.6111911-.38589843-.9402941.17650388-.5034136.32273232-1.0150513.43804687-1.5326794l-.05214844 2.4447647m.14601563-7.45653235c-.07300781-.38552059-.15644531-.76163823-.26074219-1.14715882l-1.04296875-3.84580294 1.35585938 2.59521176v2.39775" fill="#eba57c"/><path d="m2.60742187 15.985c1.58714343-4.0726504 1.33237167-8.54486662-.70921875-12.44949412l-.27117187-.50775882v2.39775c.29774473 1.66244564.26596313 3.35933244-.09386719 5.01176764l-.05214844 2.4447647c.31451237 1.0515078.69050654 2.0872787 1.12640625 3.1029706" fill="#242429"/></g><path d="m29.4796584 68.7757368c2.7223554.0347593 5.4378836-.2114995 8.0672166-.7315789 0-.175579-1.860135-.6218421-3.9788984-.6291579h-.1392615c-.3556121.0002399-.710936.0148937-1.0643553.0438947-2.6758092.2267895-8.7237348 1.0242106-8.7237348 1.0242106 1.9028406.2130223 3.8247501.3206233 5.7495082.3218947" fill="#f2f2f2"/><path d="m31.5039439 39.615s3.4850671 1.2809374 5.5799689 1.9262217c2.0949018.6452842 5.0876187 4.449572 5.4544679 7.2714867.3668491 2.8219148-.2413482 20.2253275 0 26.5240724.2413481 6.2987448 4.5759606 34.1133852 5.43516 42.4924502.8591993 8.379064 3.6009142 54.232771 3.4754131 55.224775-.125501.992004-7.7810639 4.555514-15.9386308 4.815554-8.157567.26004-19.5202372-.510449-23.1018435-1.7336-3.58160635-1.22315-5.68616209-5.952025-5.43516003-8.667997.25100207-2.715973 1.83424583-65.828625 2.57759809-70.9620062.74335224-5.1333807 2.22040284-37.0027181 1.93078504-41.7797478-.2896177-4.7770298-.6178512-9.2266018-2.2204028-11.1239302 0 0 4.0836104-1.5313462 7.2887137-2.3981459 3.2051032-.8667998 4.3249586-1.1172086 4.3249586-1.1172086s3.4657592 1.4928218 3.8615701 1.1172086c.395811-.3756133 6.7577478-1.5409774 6.7577478-1.5409774" fill="#020203"/><path d="m31.8418867 136.924683c-1.0935112-16.841319-4.5927468-80.8537485-5.4200117-96.1824322 1.9017585-.4913657 5.3819765-1.1272508 5.3819765-1.1272508s3.432674 1.2814047 5.496082 1.9269244c2.0634079.6455197 5.0111336 4.4511954 5.3724677 7.2741397s-.2472286 20.2327064 0 26.5337492 4.5071676 34.1258317 5.3534501 42.5079527 3.5467795 54.252557 3.4231652 55.244923-7.6640866 4.557176-15.6990162 4.817311h-.7416858c-.732177-8.613352-2.244075-26.861326-3.1664278-40.995317" fill="#131418"/><path d="m31.6551846 40.31s7.7975645 28.1320611 7.2552878 28.3833265-6.5447183 0-6.5447183 0l-3.1227657-14.1288469-1.4304884-13.1141212z" fill="#f6f6f6"/><path d="m25.03125 41.6735582s.7541834 29.1161955.7541834 29.213088 7.5895666-1.9378499 7.5895666-1.9378499l-1.8615918-27.9437963s-4.7160326.542598-6.4821582.6685582" fill="#fff"/><path d="m20.774086 93.6868193c-.3582833.7643542-.3672404 1.8418174-1.298777 2.1825536-.8168349.1162566-1.6488694-.0183076-2.3915411-.3867817-.8369787-.2730828-1.5004439-.9347504-1.7914166-1.7865629-.2776695-.6722633-.546382-1.3629448-.7792662-2.0536264-.0537425-.1565545-.2060129-.6262179-.223927-.6998906-.0055344-.092003-.0055344-.1842696 0-.2762726-.0570979-.2110508-.1545383-.4082838-.2866267-.5801725-.322455-.3867816.2418412-.9209087.5642962-.534127l.0626996.0828817c.1374454-.2056736.3105083-.3836056.5105537-.5249179.6090817-.3959908 1.2539916.0828818 1.7914166.3959907.8419658.4788726 1.6839316.9209087 2.0332578 1.8418174.1646261.4537331.2495449.9339265.2507983 1.4181995.2018908.0622178.317645.2797206.2597554.4880816-.0738018.230482-.1761567.4502365-.3045408.6538451l.1433133-.2302271c.0983292-.16575.1793908-.3416947.2418413-.524918.0492478-.1509139.1816011-.2568394.3359821-.2688945.1543809-.012055.300776.0721041.3716274.21364.2776696-.2210181.7344808.1565545.5553392.5433361" fill="#866552"/><path d="m6.75420413 77.145c1.42515209 1.4066996 2.80215714 2.9306241 4.10212697 4.4447799 1.9258812 2.3444993 4.2947151 5.0113673 5.5080202 7.9810664.2985116.732656.4236939.693581.2311057 1.4457745-.5777643 2.2175056-3.8517623-1.2992433-4.8147029-2.0709744-1.7461323-1.3676245-3.45695679-2.7873491-5.13247343-4.2591737l-1.23256397-1.0647934c-1.47189342-1.1933838-2.82051019-2.5353312-4.0250917-4.0051863 1.9258812-.888956 3.99620348-1.8658307 5.37320854-2.471493" fill="#866552"/><path d="m10.1936292 43.785c-.9744078.3348752-1.90474206.7775466-2.77214614 1.319042-.23932196.3727727-7.88765308 30.1754743-7.3990374 32.039338.48861567 1.8638636 7.17965894 7.64662 7.17965894 7.64662l3.7792927-4.6166469-3.73940571-4.9511864s6.94033701-8.8222879 5.85341641-17.4247355c-1.0869206-8.6024475-1.2265251-12.5595734-2.9017788-13.9741981" fill="#26262b"/><path d="m25.03125 41.7c-.1060086-1.1777131-.3459155-2.3429221-.7160681-3.4778871-.464363-1.0190832-1.7006823-1.5827904-2.9057836-1.3249094-.8613573.0920076-1.2453358 3.7907129-1.2453358 3.7907129z" fill="#1e1f23"/><path d="m31.2890625 40.31s0-1.5676692-1.3239512-2.085l-.0666738 1.7165977z" fill="#020203"/><path d="m24.3359375 40.4128893s5.6220113.1595778 6.7792163-.7978893c.0670812.1615462.1218721.3268048.1640133.4946914.0131939.1700203.0131939.3406288 0 .5106491 0 0-.3826977 1.2447073-6.79744 1.0611928z" fill="#ededed"/><path d="m57.015625 74.7680756-5.4840249 6.5469244-5.6409751-6.5469244 6.3334025-4.5730756z" fill="#2b2b31"/><path d="m13.2109375 82.3358463s-4.96462405 6.6241537-5.09453944 6.6241537c-.1299154 0-4.63983556-6.3875768-4.63983556-6.3875768s4.73263227-4.807243 4.84398832-4.7315383c.11135606.0757046 4.84398828 4.5233506 4.84398828 4.5233506" fill="#2b2b31"/><path d="m14.6893714 65.1874457c.1673755.7961409-.3381439 1.5783699-1.1321637 1.7518838s-1.5791847-.3266671-1.758459-1.1202079c-.1792743-.7935407.314479-1.5832652 1.1058123-1.7686707.3822715-.0918406.7853388-.0275904 1.1202096.1785649.3348709.2061553.5740036.5372605.6646008.9202116m2.2333991 29.3707726 6.022542-1.4331867-7.8359858-33.3168133-6.0702642 1.4140775z" fill="#454444"/><path d="m13.2416446 67.3714677c.6864096-.1529368 1.2129391-.704028 1.3339307-1.396156.1209916-.6921281-.1873987-1.388895-.781288-1.7652168-.5938894-.3763217-1.3562398-.3580364-1.9313684.0463249-.5751286.4043612-.8496946 1.1151106-.6955963 1.8006405.0985821.4502589.3732308.8424665.7628191 1.0893316s.8617874.3279024 1.3115029.2250758" fill="#fff"/><path d="m15.8952696 91.24382c1.0253256.4934889.7618739 1.19118.7618739 1.19118s-1.7871996-.1361349-2.0292904-.952944 1.2674165-.238236 1.2674165-.238236" fill="#866552"/><path d="m19.46875 92.8352951c.1498865-.4216004.22981-.8712837.2357044-1.3261722 0-.7258105.4164111-.5017949.5264065 0 .0605933.2946902.0605933.601372 0 .8960623 0 0-.1178522-1.0304717.1335658-1.1469598s.6599723.6810074.4242679 1.5053847-1.3199446 0-1.3199446 0" fill="#866552"/></g><path d="m93.161854 13.6850254c-.08334.9494008-1.0000791 1.6669711-2.1483179 1.6007339-1.1482389-.0662373-2.083498-.8942031-2.0094181-1.8436039.1203799-1.744248 1.0000791-1.6669712 2.1483179-1.6007339 1.1482389.0662373 2.1297979.3974236 2.0094181 1.8436039z" stroke="#26282d" stroke-width=".57"/><path d="m98.7240241 13.6765422c-.0746016.9544189-1.0071212 1.675782-2.1634457 1.6091947-1.1563244-.0665874-2.0515433-.8545379-1.9955921-1.8533484 0-1.3539431 1.0071213-1.6757821 2.1634457-1.6091947s2.1168197.310741 1.9955921 1.8533484z" stroke="#26282d" stroke-width=".57"/><path d="m89 11.6779577-5.5625-.5579577.2809343.5775352 5.0661827.8124648z" fill="#26282d" fill-rule="nonzero"/><path d="m93.171875 13.8722094c.2086209-.1305328.446634-.2137999.6953125-.24325.2322359.0143661.4530726.0998044.62874.24325l.0665725-.27105c-.1118921-.2018645-.3218899-.3394616-.5621676-.36835-.2827307-.0013846-.5599627.0733831-.7988696.21545z" fill="#26282d" fill-rule="nonzero"/></g></g></svg>