<?xml version="1.0" encoding="UTF-8"?>
<svg width="178px" height="203px" viewBox="0 0 178 203" version="1.1" xmlns="http://www.w3.org/2000/svg" xmlns:xlink="http://www.w3.org/1999/xlink">
    <title>toolbox / datagedreven-werken / 03-randvoorwaarden-scheppen</title>
    <g id="toolbox-datagedreven-werken" stroke="none" stroke-width="1" fill="none" fill-rule="evenodd">
        <g id="toolbox-/-datagedreven-werken-/-bg" transform="translate(-645.000000, -6.000000)">
            <g id="vignettes" transform="translate(-26.000000, 0.000000)">
                <g id="toolbox-/-datagedreven-werken-/-03-randvoorwaarden-scheppen" transform="translate(671.000000, 6.000000)">
                    <rect id="Rectangle" fill-opacity="0.01" fill="#D8D8D8" x="0" y="0" width="178" height="203" rx="2"></rect>
                    <g id="7176-ICTU-Toolbox_Randvoorwaarden--scheppen" stroke-width="1" transform="translate(24.920000, 0.000000)">
                        <path d="M8.14498929,42.9772791 C8.06492574,43.3433315 8.61536268,43.5456236 8.98565662,43.4300281 C9.35595056,43.3144326 9.68621272,43.0447098 10.0765226,43.0639757 C10.3311083,43.0903724 10.554809,43.2382961 10.6717346,43.4575639 C10.7886603,43.6768318 10.7831162,43.9380122 10.6569833,44.1525 C11.3142514,43.9415416 11.9250892,43.6149025 12.4584133,43.1892042 C12.6131164,43.4152661 12.8140201,43.6086421 13.048882,43.7575487 C13.2822696,43.9183632 13.5961141,43.9183632 13.8295017,43.7575487 C13.9896288,43.6226873 14.1097241,43.3722304 14.309883,43.4107622 C14.5100419,43.4492941 14.5600816,43.699751 14.7001928,43.8442453 C14.952624,44.0032469 15.286107,43.9711481 15.5008284,43.7671817 C15.696728,43.5563038 15.9350579,43.3858924 16.2013845,43.2662678 C16.4316795,43.2134499 16.6716456,43.2134499 16.9019406,43.2662678 C17.6006719,43.4009855 18.3180959,43.4205292 19.0236248,43.3240656 C19.1366358,43.3242089 19.2462299,43.2867777 19.3338711,43.2181031 C19.4161028,43.1339743 19.4656005,43.0250759 19.4739823,42.9098484 C19.5940776,42.3415039 19.6941571,41.7635264 19.7742206,41.1855489 C19.8543074,40.8105733 19.8543074,40.4238354 19.7742206,40.0488598 C19.6302334,39.6687384 19.4278225,39.311556 19.173744,38.9892344 C18.0528542,37.4094293 17.912743,35.3768751 17.2922504,33.556246 C17.2468732,33.3716983 17.1459114,33.2041485 17.00202,33.0745981 C16.7487777,32.9584673 16.4546269,32.9584673 16.2013845,33.0745981 C15.2526861,33.4435486 14.3683808,33.9503529 13.5793031,34.5773396 C12.8052871,34.9919795 12.2332096,35.6846115 11.9880399,36.5039312 C11.9179843,37.1204405 12.2182226,37.7754817 11.9880399,38.3438262 C11.7687251,38.6914154 11.4580357,38.9771726 11.0873249,39.1722606 C10.572994,39.5098865 10.0877117,39.8867873 9.636173,40.2993167 C9.13355918,40.7036151 8.78209809,41.2550315 8.63537857,41.8694889 C8.56532296,42.2355413 8.56532296,42.7268222 8.19502902,42.8327847" id="Path" fill="#380D09" fill-rule="nonzero"></path>
                        <g id="man_met_laptop" transform="translate(19.325714, 0.000000)" fill-rule="nonzero">
                            <path d="M74.8235714,181.563759 C74.9984837,179.003382 75.2219827,175.515472 75.3968949,171.728047 L75.3968949,171.728047 C75.2219827,175.515472 74.9984837,179.003382 74.8235714,181.554097 L74.8235714,181.554097" id="Path" fill="#83BDDB"></path>
                            <path d="M73.4825776,185.795628 L74.4543122,185.795628 C74.4543122,185.795628 74.5903551,184.172445 74.7652673,181.602406 L74.7652673,181.602406 C74.5903551,184.182107 74.4543122,185.805289 74.4543122,185.805289 L73.4825776,185.805289" id="Path" fill="#020203"></path>
                            <path d="M84.8324388,177.679716 C84.9490469,175.921268 83.9190082,174.781176 84.6963959,165.776378 C84.7935694,164.674933 76.5629765,164.317446 76.5629765,164.317446 C76.9419531,168.742551 78.1080347,171.525149 73.7838153,176.877786 C72.8120806,178.046864 70.1203755,180.201445 69.1680755,181.148302 C68.4878612,181.814966 67.6910388,184.926066 71.7528898,184.926066 C76.8739316,184.926066 80.7803051,183.389839 82.0727122,180.984051 C82.1893204,180.771492 82.5002755,180.858448 82.5002755,180.858448 C82.5002755,180.858448 84.5117663,182.269071 84.8324388,177.699039" id="Path" fill="#673327"></path>
                            <path d="M94.0347663,170.694234 L101.808644,169.65076 C101.808644,169.65076 101.905817,170.394718 102.527728,173.051713 C103.368426,176.469377 105.163949,179.58102 107.707073,182.027526 C108.630375,183.023249 108.994684,184.410576 108.678808,185.727995 L108.678808,186.336688 C108.678808,186.336688 108.212376,188.645859 106.647883,188.645859 C105.08339,188.645859 98.5533327,187.602384 97.7662276,186.481615 C97.4825296,186.0693 97.3332584,185.580196 97.3386643,185.080654 L97.2512082,184.906742 C97.2512082,184.906742 96.5709939,182.220762 95.6575633,182.442983 C94.7051914,181.334783 94.4609535,179.788068 95.0259357,178.442998 C95.9199316,175.969577 94.054201,170.713558 94.054201,170.713558" id="Path" fill="#673327"></path>
                            <path d="M67.6133,85.747689 C67.6133,86.5496184 67.1177153,88.8104796 67.0885633,89.612409 C66.8456296,97.9312188 66.6221306,102.597868 66.6221306,104.791097 C66.6221306,107.187223 68.9834459,133.264421 70.7908724,139.245075 C72.598299,145.22573 74.532051,167.950283 73.3368173,169.737716 C72.1415837,171.525149 73.103601,176.868124 73.103601,176.868124 C73.103601,176.868124 86.1151286,175.959915 86.4260837,178.34638 C86.4260837,178.34638 87.2229061,177.48648 86.7953429,172.259446 C86.0471071,162.926147 84.6186571,157.873026 83.9384429,139.921401 C83.8121173,136.336874 81.8297786,117.138877 80.3430245,111.419092 C79.6628102,108.829729 86.5912786,138.047012 88.9914633,146.423793 C88.9914633,146.423793 93.5683337,164.510682 92.5674469,172.23046 C91.673451,179.186956 93.9764622,180.191784 93.9764622,180.191784 C93.9764622,180.191784 102.799813,177.293244 107.007424,179.728017 C107.316914,177.406934 107.280898,175.053184 106.900534,172.742536 C106.220319,167.351251 101.517123,150.472087 100.836909,142.897236 C100.049804,133.950409 98.4464418,117.245157 97.8536837,106.481912 C97.3945777,99.1079465 95.2865271,91.9287323 91.6831684,85.4674968 C90.439348,83.3129155 67.6133,85.7863362 67.6133,85.7863362" id="Path" fill="#CBBBA0"></path>
                            <path d="M96.9499704,71.3516071 L95.453499,71.3516071 L95.735302,63.0714446 L96.9499704,71.3226217 M107.182337,77.0037601 L106.764491,74.6462809 L106.764491,74.6462809 L102.37225,50.0763236 L102.37225,50.0763236 C101.411309,47.7918051 99.3854689,46.120475 96.9499704,45.6029103 L82.37395,40.3565529 L82.37395,40.1923023 L82.2767765,40.1923023 L82.0921469,40.2599349 L81.9172347,40.1923023 L81.8103439,40.1923023 L81.8103439,40.2406113 L81.8103439,40.3372293 L67.2343235,45.5835867 C64.7934295,46.116902 62.7708255,47.8066107 61.8217612,50.105309 L61.8217612,50.105309 L60.3058551,76.5206701 L51.8226112,71.8540207 C51.8226112,71.8540207 52.4833908,75.3902395 55.9524837,82.2791029 C59.4215765,89.1679662 67.1857367,79.6027843 67.1857367,79.6027843 C67.1857367,79.6027843 67.7784949,68.0955805 67.7590602,66.0762643 L68.0505806,80.1245215 L67.2343235,90.8008104 L67.2343235,90.8008104 L67.0108245,97.1389512 C72.2096051,97.0809804 77.3695163,97.3515108 82.5585796,97.6123794 C87.2423408,97.8539244 91.926102,98.0954694 96.6487327,98.0954694 L94.8704582,88.0761828 L94.8704582,85.4191878 L95.200848,80.2501249 L95.200848,79.6221079 L103.237094,80.7138913 C104.272699,80.8405268 105.311703,80.5060756 106.076172,79.800003 C106.840641,79.0939305 107.252572,78.0882824 107.201771,77.0520691" id="Shape" fill="#326141"></path>
                            <path d="M77.6318847,33.7961907 C78.0691653,35.9507721 76.912801,38.1826479 76.0382398,40.0087281 C75.1636786,41.8348083 77.7387755,47.5352702 78.9242918,47.5352702 C80.1098082,47.5352702 88.3015316,42.4241781 88.3015316,42.4241781 C88.3015316,42.4241781 85.8236082,42.0956769 85.8236082,31.4097261 C85.8236082,29.7092493 77.6318847,33.7575435 77.6318847,33.7575435" id="Path" fill="#F7AE83"></path>
                            <path d="M77.6610367,40.9362609 C79.7612078,40.9024023 81.7803428,40.1247169 83.355402,38.7430323 C84.1813765,38.1053535 84.783852,35.9314485 85.1531112,34.1053683 C85.411053,33.9779931 85.6498192,33.8153894 85.8624776,33.6222783 C85.6098265,33.8444997 85.9888031,35.8638159 86.0276724,36.2406261 C86.0816554,38.0981059 86.5426133,39.9215055 87.3783837,41.5836015 C87.5806679,41.9869234 87.9272538,42.3005137 88.3501184,42.4628253 C87.6990561,42.9845625 86.630148,42.1826331 85.930499,41.9410881 C84.9948482,41.5862944 84.0133601,41.3650954 83.0152949,41.2840857 C81.9501587,41.2829045 80.8858799,41.3442024 79.8280051,41.4676599 C78.999816,41.5256209 78.1685534,41.5256209 77.3403643,41.4676599 C76.924142,41.4978031 76.5058854,41.4519597 76.1062612,41.3323947 C75.931349,41.1971295 76.0285224,40.5884361 75.9702184,40.5691125 C76.4964921,40.8232961 77.0761006,40.9491537 77.6610367,40.9362609 Z" id="Path" fill="#E6A37B"></path>
                            <path d="M73.4922949,173.747363 L72.7537765,173.747363 C72.7537765,173.206302 72.7537765,172.65558 72.7537765,172.114519 C72.9442408,171.485387 73.0648074,170.837401 73.1133184,170.182159 C73.1697702,170.031773 73.2448482,169.888966 73.3368173,169.75704 C73.7352286,169.16767 73.7838153,166.298115 73.6089031,162.501028 C73.2687959,154.771588 71.9958235,143.274046 70.7908724,139.264399 C70.4059294,137.872739 70.104164,136.459645 69.8871592,135.032531 C69.3527051,130.935927 68.7988163,126.06638 68.3323837,121.254804 L70.5479388,121.254804 C71.9763888,128.095358 73.6477724,134.607411 74.6778112,138.597735 C74.9596143,139.708842 75.202548,140.617051 75.3774602,141.283715 C76.7281714,146.665338 74.9304622,144.655683 75.6009592,147.795768 C76.2714561,150.935853 77.8942531,167.013088 77.8942531,168.085548 C77.8942531,169.158008 83.2290765,170.307762 83.2679459,171.186986 L83.2679459,171.186986 C83.2544592,171.296921 83.1845623,171.392023 83.0833163,171.438193 C82.6437357,171.665556 82.1488976,171.765966 81.6548663,171.728047 C80.8407689,171.705085 80.0291521,171.627615 79.2255296,171.496164 C78.5824795,171.383451 77.9336738,171.306039 77.2820602,171.26428 C77.0002571,171.26428 76.8253449,171.312589 76.8253449,171.438193 C76.8253449,172.114519 80.6636969,173.457509 80.6636969,173.457509 C80.6636969,173.457509 75.7272847,173.747363 73.5408816,173.747363 M67.3217796,109.013303 C67.0982806,105.699306 66.9428031,102.907046 66.9330857,101.090627 L66.9330857,100.588214 C66.926039,100.103636 66.9552718,99.6192078 67.0205418,99.1389438 C67.1468673,98.3853234 67.2731929,98.0761458 67.3800837,98.0761458 C67.7979296,98.0761458 67.9631245,102.994002 67.9631245,102.994002 C68.0311459,104.839406 68.2157755,106.858722 68.4781439,109.013303 L67.3217796,109.013303" id="Shape" fill="#B7A890"></path>
                            <path d="M92.625751,177.824643 C92.2758832,175.964801 92.2561507,174.058421 92.5674469,172.191813 C92.7537431,170.318772 92.7537431,168.432025 92.5674469,166.558984 C91.9163847,157.979305 88.9817459,146.385146 88.9817459,146.385146 C87.7476429,142.124292 85.3668929,132.481815 83.4039888,124.365903 C83.1707724,123.332091 82.9472735,122.269293 82.7237745,121.196833 L84.2396806,121.196833 C86.7661908,130.346558 89.4384612,141.322362 90.1575449,143.554238 C90.9285405,146.037201 92.0683361,148.391688 93.5391816,150.53972 L93.5391816,177.3802 L92.5674469,177.824643 M99.1558082,174.626587 L99.1558082,174.520307 L99.4084592,174.520307 L99.1558082,174.636249" id="Shape" fill="#B7A890"></path>
                            <path d="M89.3995918,26.8686801 C89.3995918,28.4145681 88.3695531,34.1730009 87.6504694,35.0715483 C87.4658398,35.3034315 87.6504694,37.0039083 87.9517071,36.9362757 C88.2529449,36.8686431 86.7467561,37.3807185 86.2414541,36.8783049 C85.736152,36.3758913 84.7061133,28.6561131 84.9684816,28.2696411 C85.23085,27.8831691 89.3995918,26.8686801 89.3995918,26.8686801" id="Path" fill="#E1B612"></path>
                            <path d="M85.677848,28.7237457 C85.8721949,24.4918774 87.13545,20.0281258 80.6151102,19.6223302 C79.3927647,19.5239316 78.1625577,19.5987535 76.9613878,19.8445516 C76.5979671,19.6884412 76.2246732,19.5561146 75.8438929,19.4484178 C74.3377041,19.6126684 73.1716224,20.5112158 72.2679092,22.3469578 C71.5293908,23.9894638 71.5682602,26.2116778 71.6362816,28.2793029 C71.6362816,28.9459671 71.9958235,29.9218089 72.0735622,30.5498259 C72.1707357,31.5160059 72.0735622,32.0667285 72.1998878,32.8300107 C72.5164819,35.6708786 73.7467842,38.3342855 75.70785,40.4241855 C76.3002938,40.7539389 76.9728865,40.9144384 77.6513194,40.8879519 C79.7514904,40.8540933 81.7706254,40.0764079 83.3456847,38.6947233 C84.1716592,38.0570445 84.7741347,35.8831395 85.1433939,34.0570593 C86.417177,33.2715487 87.33369,32.0241774 87.6990561,30.5788113 C87.9128378,28.9073199 87.2034714,27.8928309 85.6681306,28.6464513" id="Path" fill="#F7AE83"></path>
                            <path d="M78.0691653,19.3324762 L78.2343602,18.955666 C78.2343602,18.955666 79.9834827,17.989486 79.6628102,17.989486 C79.3421378,17.989486 78.8562704,17.4194398 78.4384245,18.2696782 L79.2741163,16.8493936 L75.2900041,17.9701624 C74.7594077,17.8891652 74.2172803,18.0024641 73.7643806,18.2890018 L72.6177337,19.1199166 C72.6177337,19.1199166 72.7246245,19.7479336 72.8412327,18.8783716 C71.9666714,19.1102548 71.3350439,21.1199092 71.3156092,22.6174882 C71.2184648,23.1061951 71.1471067,23.5996215 71.1018276,24.0957436 C70.9756321,25.6476164 71.0474632,27.2091299 71.3156092,28.7430693 L71.7431724,29.0232615 C71.7431724,29.0232615 70.9949367,23.7479188 73.074449,22.2600016 C75.1539612,20.7720844 79.8765918,22.2600016 79.8765918,22.2600016 L78.0691653,19.3324762 Z" id="Path" fill="#E1B612"></path>
                            <path d="M89.0594847,22.4145904 C88.4181398,21.0909238 87.5435786,19.1392402 86.5426918,18.6561502 C86.0762592,17.603014 82.6557531,17.5160578 79.1866602,16.2407002 C79.1866602,16.2407002 82.2476245,17.4194398 82.2767765,18.231031 L82.2767765,18.231031 C81.8492133,17.5740286 76.7767582,15.815581 77.0196918,16.2117148 C78.4092724,18.472576 78.117752,16.9653352 77.7679276,17.9315152 L77.835949,18.0088096 C77.9817092,17.0426296 76.912801,16.0764496 76.1645653,15.8832136 C76.436651,17.1778948 74.9110276,17.071615 73.8809888,18.472576 C72.598299,19.6416538 71.6071296,21.8735296 72.9092541,22.8590332 C75.9021969,25.139218 78.3315337,23.303476 80.2847204,23.448403 C81.5608907,23.5094278 82.7180544,24.2121365 83.355402,25.3131304 C83.831552,26.202016 84.0842031,30.3855753 84.0842031,30.3855753 L85.3571755,29.6029695 L86.2220194,27.8155365 L88.9720286,28.9942761 C88.9720286,28.9942761 90.3324571,25.1295562 89.0594847,22.4532376" id="Path" fill="#E1B612"></path>
                            <path d="M71.199001,31.7382273 C70.7811551,31.5256677 70.6159602,29.8058673 70.7908724,29.6802639 C70.9657847,29.5546605 73.2493612,29.8541763 73.550599,29.7865437 C73.5862408,30.4373521 73.5173557,31.0896501 73.3465347,31.7189037 C73.2590786,32.0087577 71.6557163,32.0087577 71.199001,31.7189037 M76.2811735,31.5256677 C76.0795883,30.972477 75.9394728,30.3990197 75.8633276,29.8155291 C76.1451306,29.8928235 79.9348959,29.4097335 80.1098082,29.5739841 C80.2847204,29.7382347 80.245851,31.5063441 79.7599837,31.6995801 C79.0603347,31.9507869 76.5629765,32.2309791 76.2811735,31.5256677 M70.4507653,29.1971739 C70.0912235,29.5160133 70.3730265,32.0957139 70.9852194,32.2503027 C71.8889327,32.4628623 73.4922949,32.5884657 73.6963592,31.8541689 C73.9004235,31.1198721 74.0753357,29.9218089 74.0753357,29.9218089 C74.4596629,29.6864707 74.9445463,29.6864707 75.3288735,29.9218089 C75.3288735,29.9218089 75.5718071,31.1681811 75.8050235,31.9411251 C76.0382398,32.7140691 78.8562704,32.3275971 80.0320694,32.0860521 C80.5665235,31.9797723 80.6248276,30.8396799 80.6539796,29.9024853 L86.3289102,28.4628771 L86.6398653,27.9797871 C86.6398653,27.9797871 81.168999,28.9459671 80.3721765,29.0425851 C79.6725276,28.8686727 76.9905398,29.3710863 75.9702184,29.3034537 C75.536671,29.3325759 75.1016412,29.3325759 74.6680939,29.3034537 C74.1336398,29.3034537 73.8421194,29.4483807 73.6963592,29.4193953 C73.550599,29.3904099 70.7811551,28.8976581 70.4313306,29.2164975" id="Shape" fill="#26282D"></path>
                            <polyline id="Path" fill="#DBDBDB" points="68.0214286 79.8829765 67.8465163 71.2453273 67.4189531 79.8346675 68.0214286 79.8346675"></polyline>
                            <path d="M95.0550878,81.9216163 C89.963198,79.8636529 83.7149439,77.7283951 77.9719918,77.7283951 C77.641602,77.7283951 77.3306469,77.7283951 77.0002571,77.7283951 C75.960501,77.7283951 76.3006082,78.4916773 76.1062612,79.2066505 C75.8950412,79.8641071 75.2640679,80.2969105 74.5709204,80.2597867 L74.4834643,80.2597867 C71.9861061,80.1438451 69.2749663,79.9506091 68.0505806,79.8636529 L67.8562337,71.2260037 L67.8562337,71.2260037 C72.8703847,70.9747969 77.865101,70.5206923 82.8598173,70.5206923 C83.8250738,70.5206923 84.7968085,70.5400159 85.7750214,70.5786631 C86.5621265,70.5786631 87.358949,70.6366339 88.1849235,70.6366339 C90.4884352,70.766505 92.7853641,70.2864071 94.8413061,69.2453347 C94.9190449,69.2453347 95.4923684,69.0810841 95.5603898,69.0327751 L95.482651,71.3612689 L86.4552357,72.1825219 L81.8394959,72.1825219 C81.8394959,72.1825219 78.6230541,76.3757431 81.1204122,76.6559353 C83.4720102,76.9264657 90.1575449,79.3322539 95.2105653,79.5544753 L94.977349,83.5061515" id="Path" fill="#275937"></path>
                            <path d="M69.5567694,62.7236198 L47.2068714,62.7236198 C46.0116378,62.7236198 45.7006827,63.148739 45.7006827,64.06661 L48.4604092,78.4530301 C48.4604092,79.4192101 49.2183622,79.8346675 50.1512276,79.8346675 L72.3748,79.8346675 C73.3465347,79.8346675 74.0656184,79.4288719 74.0656184,78.5110009 L71.2475878,64.3371404 C71.2425656,63.8989433 71.060603,63.4811449 70.7426187,63.1776976 C70.4246343,62.8742504 69.9973205,62.7106261 69.5567694,62.7236198" id="Path" fill="#9ABCCC"></path>
                            <path d="M78.5064459,70.8491935 L73.550599,68.9651425 L72.0929969,68.9651425 L73.3368173,75.8056969 L75.931349,76.6269499 C77.0076649,76.8964915 78.1455259,76.7730708 79.1380735,76.2791251 L81.0815429,76.6849207 L80.6539796,72.3950815 L78.5064459,70.8491935 Z" id="Path" fill="#F7AE83"></path>
                            <path d="M66.1459806,70.9071643 L67.1177153,73.9119841 C67.413413,74.7206774 68.0885525,75.334213 68.9251418,75.5544901 L74.0656184,76.9361275 L77.7193408,76.6945825 C78.07742,76.6093402 78.430935,76.5061492 78.7785316,76.3854049 L81.1787163,76.7139061 L81.8103439,72.1921837 L75.008201,70.3467799 L66.1459806,70.9071643 Z" id="Path" fill="#F7AE83"></path>
                            <path d="M64.7369653,70.8202081 C64.379719,70.8619966 64.1104817,71.1630348 64.1104817,71.5206886 C64.1104817,71.8783424 64.379719,72.1793806 64.7369653,72.2211691 L72.8412327,72.3660961 L72.6857551,70.1632057 L64.7369653,70.8202081 Z" id="Path" fill="#F7AE83"></path>
                            <path d="M92.8686847,109.013303 L92.8686847,109.013303 C92.8686847,108.636493 92.9658582,108.19205 93.0338796,107.757269 C92.9658582,108.19205 92.9075541,108.636493 92.8686847,109.013303" id="Path" fill="#B7A890"></path>
                            <path d="M96.0073878,94.7041776 C96.4835378,93.525438 96.911101,92.414331 97.2123388,91.49646 C96.911101,92.46264 96.4835378,93.525438 96.0073878,94.7041776 L96.0073878,94.7041776" id="Path" fill="#E5E5E5"></path>
                            <path d="M92.7909459,102.269367 C93.3254,101.080966 93.9764622,99.6027102 94.6275245,98.066484 L94.6275245,98.066484 C93.9764622,99.6027102 93.3254,101.080966 92.7909459,102.269367 L92.7909459,102.269367" id="Path" fill="#B7A890"></path>
                            <path d="M94.6275245,98.066484 C95.1036745,96.9457152 95.5992592,95.795961 96.0073878,94.7041776 L96.0073878,94.7041776 C95.5798245,95.795961 95.0939571,96.9457152 94.6275245,98.066484 L94.6275245,98.066484" id="Path" fill="#222429"></path>
                            <path d="M98.4561592,85.6220856 C98.6699408,84.3177427 98.8254184,83.2742683 98.8254184,83.2742683 L99.010048,81.0037453 L99.010048,81.0037453 L98.8254184,83.2839301 C98.8254184,83.2839301 98.6699408,84.3274045 98.4561592,85.6317474" id="Path" fill="#E5E5E5"></path>
                            <polyline id="Path" fill="#E5E5E5" points="72.7051898 44.6560539 72.7051898 44.4628179 72.7051898 44.4628179 72.7051898 44.4918033 72.7051898 44.6560539"></polyline>
                            <polyline id="Path" fill="#795B4A" points="72.7051898 44.4628179 72.7051898 44.4531561 72.7051898 44.4434943 72.7051898 44.4628179 72.7051898 44.4628179"></polyline>
                            <polyline id="Path" fill="#C06625" points="74.0753357 63.4579166 74.1142051 63.3999458 74.0753357 63.4579166"></polyline>
                            <rect id="Rectangle" fill="#D3D3D3" transform="translate(31.518215, 14.221384) rotate(-180.000000) translate(-31.518215, -14.221384) " x="0.505302041" y="0.173126887" width="62.0258255" height="28.0965143" rx="4.83"></rect>
                            <polyline id="Path" fill="#D3D3D3" points="55.4957684 25.1295562 62.1910204 38.4531783 44.6803612 25.3904248"></polyline>
                        </g>
                        <path d="M31.4776843,24.2277266 C31.7494193,24.9737076 31.7494193,24.8477627 31.9920399,25.5162392 C32.2885128,26.5310119 32.4548226,27.579233 32.486986,28.6357961 C32.486986,30.0502536 33.700089,31.3290782 34.0009385,32.6757192 C34.0987348,32.9214984 34.0987348,33.1952971 34.0009385,33.4410763 C33.7097938,33.9061034 32.9237031,33.7220302 32.5549197,34.1289289 C32.4645873,34.4178431 32.3932666,34.712342 32.3414136,35.0105428 C32.1288909,35.4011922 31.9689955,35.8181567 31.8658772,36.2506152 C31.7085088,37.4615128 31.0592808,38.5545364 30.0704848,39.2732914 C29.1776409,39.8255111 26.9358265,40.8330699 26.9358265,42.0731422 C26.9358265,43.3132145 27.3822485,46.3262027 27.3822485,46.3262027 L28.95443,57.855 L22.9568486,49.5329522 C22.9568486,49.5329522 18.356762,44.3789017 17.0174962,43.8169939 C17.0174962,43.8169939 18.5896778,41.8018764 18.356762,40.4649234 C18.1238462,39.1279704 16.8719239,37.9072743 16.6778274,37.3647426 C16.4837309,36.822211 16.9010384,36.0277897 16.4546164,35.9115329 C15.6546742,35.7466614 14.9649005,35.245232 14.5621757,34.5358277 C14.4406489,32.8134858 14.4406489,31.0847429 14.5621757,29.362401 C14.4554227,30.5152807 13.22291,26.4559815 16.4157971,22.3191778 C18.3116389,20.0533431 21.1253724,18.755572 24.0826082,18.7830341 C26.5476336,18.6764653 29.9055027,20.1296751 30.4683825,21.3600593 C31.0312623,22.5904436 30.7012983,23.1523513 30.7012983,23.1523513 C31.0587306,23.4284049 31.3283955,23.8019188 31.4776843,24.2277266 Z" id="Path" fill="#BF7F5D" fill-rule="nonzero"></path>
                        <path d="M8.13508175,42.5394833 C8.0652985,42.5028746 8.00072662,42.4567296 7.94314786,42.4023215 C7.80350436,42.2794861 7.72320428,42.1006398 7.72320428,41.9124577 C7.72320428,41.7242756 7.80350436,41.5454293 7.94314786,41.422594 C8.01992142,41.422594 8.10629167,41.3442158 8.18306523,41.3050267 C8.44606504,41.0932621 8.53664688,40.7273824 8.4037892,40.4134747 C8.26635343,40.1136256 8.1059085,39.8253405 7.92395447,39.5513146 C7.63822753,39.019207 7.55615259,38.3977617 7.69363381,37.8073997 C7.73772623,37.601971 7.84539715,37.4164787 8.00072803,37.2783468 C8.26943548,37.0921986 8.65330326,37.1999687 8.96039749,37.0824014 C9.30055639,36.9216877 9.51793325,36.5735025 9.51700577,36.1908494 C9.52569811,35.8364248 9.49998138,35.4819926 9.44023221,35.1327437 C9.27708841,33.5553825 10.1983711,32.0955886 10.7837694,30.6945783 L11.1004604,29.9499854 C11.1531791,29.8309904 11.1918378,29.7060126 11.2156207,29.577689 C11.2622116,29.1797717 11.3967529,28.7978624 11.6090852,28.4607997 C11.8777926,28.1178951 12.3000472,28.0885033 12.5687546,27.7651932 C12.8374621,27.4418831 12.683915,27.0206003 12.5687546,26.6483039 C12.3172149,25.970147 12.5605217,25.2046105 13.154153,24.8064163 C13.7395514,24.5516871 14.1138225,24.8064163 14.4976902,24.2675662 C14.8049017,23.9595446 15.0125143,23.5629894 15.0926853,23.1310823 C15.1502655,22.1023685 16.0523548,21.906423 16.7241234,21.4361538 C17.3929976,20.8603693 18.0982807,20.3301697 18.8353962,19.8489953 C20.3270723,19.1031563 21.9733385,18.7367692 23.6337434,18.7810924 C25.272308,18.7639566 26.8878779,19.1754476 28.3265271,19.9763599 C29.0366825,20.3682509 31.3015024,22.4354758 30.9944082,23.2486496 C30.6796234,24.0485115 29.9831759,24.6262022 29.1518428,24.7770245 C28.4896709,24.8847945 27.7411287,24.7280381 27.1845204,25.1101318 C26.8956439,25.3533174 26.6574341,25.6531389 26.4839617,25.9918865 C25.7066295,27.1969513 24.151965,28.0003278 23.7680972,29.4503244 C23.6145501,30.0185664 23.1251186,30.3418764 22.894798,30.9003211 C22.6662532,31.5609095 22.4897527,32.2390775 22.3669798,32.9283569 C22.2274195,33.776806 21.8508634,34.5660711 21.2825533,35.2013246 C21.0330392,35.4364592 20.6107847,35.5540265 20.4092541,35.8283502 C20.2077235,36.1026739 20.1885301,36.5729431 19.910226,36.8962531 C19.6319218,37.2195632 19.2768441,37.4742923 18.99854,37.8073997 C18.926894,37.8836867 18.877106,37.9785668 18.8545896,38.0817234 C18.8430558,38.2780053 18.9253042,38.4678449 19.0753135,38.5911816 C19.3824078,38.8948972 19.7950656,39.0712481 20.0925632,39.3847609 C20.3900607,39.6982737 20.5628012,40.2469211 20.255707,40.5604338 C20.0336947,40.728236 19.7721159,40.8330263 19.4975681,40.8641494 C19.2288607,40.9327303 18.9409598,41.1286758 18.9601532,41.4127967 C18.9793466,41.6969177 19.3056342,41.8634714 19.3536177,42.1475923 C19.4016012,42.4317133 19.1041036,42.706037 18.8066061,42.7648206 C18.5091086,42.8236043 18.2020143,42.7648206 17.9045168,42.7648206 C17.1367812,42.8431988 16.8872672,43.2154953 16.1195316,42.6766452 C15.0159117,41.9026605 14.1330158,42.5786724 12.8950423,42.6766452 C12.1848869,42.7354288 11.4843282,42.9117797 10.7741728,43.0097525 C10.2271612,43.0783334 8.96999418,43.4114408 9.00838096,42.6178615 C8.71642309,42.6857278 8.41096283,42.6583129 8.13508175,42.5394833 Z" id="Path" fill="#380D09" fill-rule="nonzero"></path>
                        <path d="M22.7814542,182.560198 C22.9896005,184.128609 23.7589035,185.561873 24.9400961,186.581896 C25.1200483,186.682107 25.3111226,186.759749 25.5091926,186.813144 C25.8514769,187.012408 26.2460808,187.096793 26.6375736,187.054446 C28.5018553,187.054446 30.415197,187.275639 32.0734265,186.270215 C32.1050671,186.360742 32.144469,186.44822 32.1911706,186.531625 C32.701395,187.416399 35.7627418,187.949274 37.2934151,188.482149 C37.2934151,188.482149 39.6679213,189.196 38.1372479,190.080774 C36.6065745,190.965547 33.3784236,190.975601 33.3784236,190.975601 L23.5173548,191.146524 C23.5173548,191.146524 24.0275793,188.834047 23.3407387,188.13025 C22.653898,187.426453 19.4159352,185.646851 19.0921389,186.883524 C18.7683426,188.120196 20.7896164,190.080774 19.7691675,190.613649 C18.6160072,191.017471 17.41433,191.25765 16.1975963,191.3275 C16.1245761,189.602927 15.9542164,187.884129 15.6873718,186.179726 C15.3537635,184.581101 14.7061709,183.163453 16.1975963,180.67 C17.5025934,180.790651 18.7977786,180.961573 20.1223998,181.192821 C20.4658201,181.313472 20.9269845,182.198245 21.5451411,182.037377 C21.6040131,182.509927 21.3685249,183.042802 21.486269,183.555568 C21.9376214,183.213724 22.2221697,182.741175 22.7814542,182.560198 Z" id="Path" fill="#380D09" fill-rule="nonzero"></path>
                        <path d="M43.2285714,101.981732 C43.2285714,105.49094 38.6517196,129.717977 35.4547254,144.921335 C35.4547254,144.921335 33.5987196,159.796909 31.2374139,164.810064 C31.2374139,164.810064 30.2656831,170.82585 30.5669197,174.171167 C30.8825908,176.763435 31.3334304,179.337735 31.9176254,181.883714 C32.0964724,183.440207 32.3953458,184.980804 32.8116177,186.491961 C31.1693927,187.456029 29.2745178,187.272856 27.4282293,187.215012 C27.041768,187.253547 26.6525333,187.176314 26.310739,186.993276 C26.1131669,186.94643 25.9233732,186.871761 25.7471351,186.77154 C24.5906687,185.835761 23.8282373,184.505151 23.6093275,183.040596 C23.0554409,183.204488 22.773639,183.6576 22.3266429,183.927539 C22.2781285,183.485793 22.2586527,183.041381 22.268339,182.597125 C21.6464313,182.761016 21.2966083,181.816229 20.9856544,181.700541 C19.6641006,181.488446 18.3522641,181.324554 17.0987314,181.218507 C17.0987314,181.218507 20.2957256,170.517349 20.2957256,163.498931 C20.2957256,156.480514 18.6437833,137.469086 18.6437833,135.299933 C18.6437833,133.130779 18.7701083,131.916053 18.7701083,131.916053 C18.7701083,131.916053 14.7277083,117.879218 13.3770026,106.512853 C12.0262968,95.1464872 12.8717026,92.6495502 14.7277083,86.6337639 L14.2224083,84.1271863 C14.2224083,84.1271863 15.7383083,75.9326055 38.6420023,81.7845003 C38.5639064,83.0900336 38.7353516,84.3984439 39.1473023,85.6407735 C39.8275138,87.4339406 43.2285714,98.4725229 43.2285714,101.981732 Z" id="Path" fill="#425B6B" fill-rule="nonzero"></path>
                        <path d="M27.2967608,46.8449004 C28.0725054,47.4611701 32.2906162,50.757724 33.056664,51.4913784 C33.8227117,52.2250328 38.5159661,59.0333459 38.5159661,59.0333459 C38.5159661,59.0333459 42.7146834,67.4263525 43.7328481,68.5317252 C43.7328481,68.5317252 43.8104225,69.2066873 43.3061886,69.3729823 C42.8019546,69.5392773 37.3426525,70.6446499 36.9256898,71.0750605 C36.5087271,71.5054711 37.3426525,72.6010617 37.3426525,72.6010617 C37.3426525,72.6010617 40.7074444,79.1256951 40.6201731,80.2310678 C40.5329019,81.3364404 39.3111042,82.5689799 38.9523224,83.0483008 L38.2638491,83.3613266 C37.9066661,82.8877005 37.4062881,82.5443147 36.8384186,82.3831207 C35.9947964,82.2168257 33.0372704,81.4831713 32.6203077,81.4831713 C32.203345,81.4831713 28.1791702,80.7201707 26.4919259,80.9745042 C24.8046815,81.2288378 19.8108261,80.6908245 18.4726668,81.3755687 C17.1345075,82.0603128 14.5939441,83.8797758 14.3321303,84.4764814 C14.0703166,85.073187 14.147891,84.7210328 14.2351623,84.9753664 C14.2602621,85.25884 14.2306245,85.5445339 14.147891,85.8166235 C13.9627689,86.1696363 13.5612753,86.3478466 13.1782103,86.2470341 C12.5867051,86.0807391 11.0740033,86.1589955 10.7443119,84.3786608 C10.4146205,82.598326 11.1612746,79.0376566 10.986732,78.108361 C10.8121895,77.1790654 10.0655354,76.1519492 9.81341844,74.63573 C9.56130147,73.1195109 8.84373778,72.6793182 8.55283358,71.5837276 C8.26192938,70.488137 8.80495055,69.1186487 8.30071661,68.5317252 C7.72638007,67.6285053 7.30068511,66.6375 7.04013174,65.5971075 C6.62316906,64.3254398 4.57714286,57.3312676 4.57714286,57.3312676 C4.57714286,57.3312676 5.76015327,53.4967005 6.59407864,51.3739937 C7.32257783,49.6607178 8.72939746,48.3337769 10.4728013,47.7155036 C11.5588436,47.3731316 10.9673384,46.7372977 11.5588436,46.6101309 C12.1503488,46.4829642 12.5285243,46.4438359 12.8194285,46.3557974 C13.1103327,46.2677589 13.3236624,44.9178347 13.4109337,44.4972062 C13.498205,44.0765777 14.3806144,43.1375 14.3806144,43.1375 C14.3806144,43.1375 18.3853955,43.6070388 22.0023044,48.6937095 L28.6155265,57.8105885 L27.1707023,46.7470798 L27.2967608,46.8449004 Z" id="Path" fill="#2650A2" fill-rule="nonzero"></path>
                        <path d="M45.0544589,48.290941 C46.1421325,46.9780699 47.4223148,45.3949018 48.1057204,45.7906938 C48.5581157,46.0609908 48.1827239,46.5919313 47.8458338,46.8718818 C47.5567943,47.1244986 47.3012414,47.4132385 47.0854247,47.7310401 C47.0282047,48.5083888 46.9091117,49.2799057 46.7292838,50.038218 C46.4308955,50.7332674 45.1218369,52.2778216 44.8041977,52.9342572 C44.4865584,53.5906928 41.2909154,58.1085139 40.8962728,58.8614841 C40.5016301,59.6144543 41.0021525,59.8268305 41.0599051,60.2129691 C41.1572519,60.7915134 41.2247199,61.3747169 41.2620391,61.9602461 C41.3294171,62.8194043 41.7818124,65.6478693 41.9165684,66.1788098 C42.0513244,66.7097503 43.5240154,72.569403 43.8416546,73.901581 C44.1330133,75.5773267 44.2234931,77.2820059 44.1111666,78.9793031 C44.1049512,79.7523216 43.8993599,80.510569 43.5143899,81.1802929 C43.4181356,81.3830156 42.1668296,83.555045 41.6470564,83.7191539 C41.1272831,83.8832628 39.9048534,82.8986095 39.606465,82.6669264 L38.5187913,81.827075 C38.5187913,81.827075 40.16474,80.9775702 40.16474,79.8577683 C40.16474,78.7379665 38.7690525,75.1758383 38.4032862,74.4228681 C38.0375198,73.6698979 37.3829905,72.3087595 37.3829905,72.3087595 C37.6480462,70.7306988 37.7480514,69.1291909 37.6813789,67.5302948 C37.4888703,65.8216317 37.2193582,61.5065332 36.9979733,60.5218799 C36.7765884,59.5372266 36.410822,57.9540585 36.3338186,57.4906922 C36.1361874,56.6763334 36.0679699,55.8357916 36.1316845,55.0000985 C36.1316845,55.0000985 36.2953168,54.0347521 36.5648289,52.5674256 C36.7413859,51.75505 36.9993756,50.9626555 37.3348634,50.2023269 C37.662128,49.101832 37.4984957,49.101832 37.7198806,48.4936638 C37.9280309,47.7305703 38.252724,47.0043959 38.6824237,46.3409413 C39.1251935,45.8486146 39.3947055,45.8486146 39.6449668,46.3988621 C39.895228,46.9491095 39.539087,47.4414362 39.3754547,49.1500993 C39.2118224,50.8587624 40.2417435,50.8877228 40.2417435,50.8877228 C40.4438775,50.5981189 44.3229261,44.6033178 44.8426994,44.2751 C45.3624726,43.9468822 45.728239,44.3426742 45.6319847,44.6998524 C45.5357304,45.0570306 43.3988848,48.3585153 43.4951391,48.561238 C43.5913934,48.7639607 44.0149123,49.6327725 45.0544589,48.290941 Z" id="Path" fill="#BF7F5D" fill-rule="nonzero"></path>
                        <path d="M13.3731614,46.1523165 C13.1870304,45.9250459 13.0792704,45.5652008 13.3731614,45.7072449 C13.6670524,45.849289 16.6549446,47.8284371 17.0272065,47.9704812 C18.2545416,47.9652196 19.4795662,47.867067 20.691048,47.6769234 C20.95555,47.5348792 21.2886265,49.570845 21.2886265,49.570845 L23.3654564,49.8928116 L28.9885714,58.2450059 L28.4203821,58.87 C28.4203821,58.87 24.0903876,55.4893499 23.7867002,55.2999578 C23.4830128,55.1105656 19.8681532,51.1143911 19.4175202,51.1806783 C18.9668873,51.2469656 20.7008444,54.9685215 20.8477899,55.9154823 C20.8477899,55.9154823 21.4551647,57.156001 20.5441025,57.3738019 C19.6330403,57.5916029 18.8885164,57.7715255 18.2419561,56.9760784 C17.5953959,56.1806313 16.6255555,52.6295283 15.8320497,51.6446891 C14.3987861,50.053452 12.8468029,48.5658956 11.1885714,47.1939734 C12.1012003,47.4744607 12.9759839,47.8591156 13.7944052,48.3397959 C14.695671,49.0310773 14.9993584,48.5954753 14.774042,48.2261606 C14.3445039,47.5119226 13.8769151,46.8197106 13.3731614,46.1523165 L13.3731614,46.1523165 Z" id="Path" fill="#D2C0DE" fill-rule="nonzero" style="mix-blend-mode: multiply;"></path>
                        <path d="M31.1346707,50.7529636 C31.2789463,50.6777148 32.5485714,52.0604118 32.5485714,52.0604118 C32.4605658,53.0065781 32.1297317,53.9157055 31.5867342,54.7035264 C30.6242015,55.9807724 29.5868892,57.2024728 28.48,58.3625 L28.48,57.2431739 C28.5381222,56.2359015 28.9374331,55.2762021 29.6149679,54.5154044 C29.9516109,54.3272823 30.0958865,56.0674112 30.2786356,55.8510708 C30.575719,55.1792071 30.6916263,54.4440562 30.6152786,53.7158857 C30.5094765,53.0668647 30.6152786,52.2297216 30.7691726,52.1920972 C30.9230665,52.1544728 31.3943668,53.5747942 31.6155893,53.8569772 C31.8368119,54.1391603 31.7694833,53.2455806 31.7694833,52.8128999 C31.7694833,52.3802192 30.9903951,50.7529636 31.1346707,50.7529636 Z" id="Path" fill="#D2C0DE" fill-rule="nonzero" style="mix-blend-mode: multiply;"></path>
                        <path d="M15.7759053,79.1485711 C17.4676395,78.9079085 19.1364784,78.5384334 20.7664412,78.0436841 C21.9741509,77.7198379 23.940422,78.1008334 23.2517281,78.3770552 C22.5861423,78.6113561 21.8848408,78.7400577 21.1756651,78.7580507 C20.177558,78.8723494 14.5981389,79.9772364 14.7678171,80.520155 C14.9374953,81.0630736 19.5587315,79.3104942 19.2692804,79.6438653 C18.9798294,79.9772364 16.2749589,80.9106754 15.2768517,81.7393407 C14.2787446,82.5680059 13.2007888,83.0537752 13.6000317,83.329997 C13.9992746,83.6062187 14.6979496,83.8252912 14.1789339,84.2062867 C13.6599181,84.5872822 13.4303535,84.8730289 12.9612431,84.7015809 C12.4921327,84.5301329 11.1945934,84.0443636 11.0448773,82.9966259 C10.9520824,81.2689785 11.0356516,79.5368134 11.2944041,77.8246117 C11.4640823,77.0530957 10.8352748,76.5578015 10.6057102,75.6243625 C10.3834711,74.5691357 10.0490385,73.5382894 9.60760301,72.5478237 C9.17277483,71.880435 8.89994743,71.1286517 8.80911727,70.3475745 C9.08104695,69.6448395 9.03772611,68.8662533 8.68934441,68.1949498 C8.05072397,66.9339741 7.51352395,65.6284746 7.08239186,64.2897457 C6.91271364,63.6801528 4.61706714,58.898659 4.57714286,58.3176408 C4.99371235,56.1697949 5.54702338,54.0481643 6.23400076,51.9645405 C6.41366006,51.5644952 6.58333827,51.831192 6.68314899,52.1931378 C6.15191958,53.35501 5.85722697,54.6027382 5.81479575,55.8697446 C5.98447397,57.4127765 6.81290292,60.8226864 6.81290292,60.8226864 C6.81290292,60.8226864 7.73116152,63.8516008 7.73116152,64.346895 C7.80310335,64.9885922 7.91980812,65.6249967 8.08049903,66.2518726 C8.41826215,66.6656706 8.69684805,67.1205037 8.90892799,67.6044067 C9.22010026,68.3610824 9.41508173,69.1566915 9.48783015,69.966579 C9.48783015,70.9190678 9.77728123,70.4618732 10.296297,71.6143846 C10.8153127,72.7668961 12.3723599,72.8716699 12.0729277,73.3193396 C11.7734956,73.7670093 11.9032495,73.8717831 11.6137984,74.3670773 C11.332866,74.7744001 11.2458308,75.2762047 11.3742527,75.7481861 C11.4940256,76.348254 12.0729277,74.2623035 12.4222652,74.7956972 C12.7716027,75.329091 13.1708456,75.2338421 12.7017352,75.9482087 C12.2326249,76.6625753 12.1328142,76.4435029 12.1827195,77.538865 C12.1621697,78.2630248 12.3229935,78.9814107 12.6518299,79.6343404 C12.8813945,79.9677115 14.2587824,78.0341592 14.7278928,77.538865 C15.1970032,77.0435708 15.9954889,77.6531637 15.4764732,78.2627565 C14.9574575,78.8723494 15.1371167,79.0914218 15.7759053,79.1485711 Z" id="Path" fill="#D2C0DE" fill-rule="nonzero" style="mix-blend-mode: multiply;"></path>
                        <path d="M36.914209,65.7382354 C37.2334141,67.8366499 37.1909682,69.9846607 36.7891886,72.065 C35.3293127,69.8955027 33.7484877,67.832715 32.056274,65.8891122 C31.7883732,65.6477094 34.9138828,68.4640752 35.1192734,68.7758871 C35.3246641,69.087699 36.3248271,70.475765 36.3248271,70.475765 C36.4605747,69.9418986 36.3994029,69.3689268 36.1551566,68.88653 C35.7809551,68.1307843 35.590001,67.2773885 35.6014949,66.4121515 C35.7354453,66.4121515 36.5659379,66.7641973 36.601658,67.4179965 C36.6373781,68.0717957 36.601658,65.9092291 36.601658,65.5974171 C36.601658,65.2856052 36.8963489,65.617534 36.914209,65.7382354 Z" id="Path" fill="#D2C0DE" fill-rule="nonzero" style="mix-blend-mode: multiply;"></path>
                        <path d="M32.9666751,105.668062 C33.6038777,102.190132 34.4784313,98.7649887 35.5835481,95.4192163 C35.8031458,95.0150364 33.753567,108.016154 33.652918,112.500626 C33.5522691,116.985097 33.652918,129.447308 33.5156695,133.364003 C33.3784209,137.280698 31.1732936,159.279629 31.0360451,161.271658 C30.8987965,163.263687 31.8686865,138.387381 32.2804322,134.62466 C32.692178,130.861938 32.1889332,117.851197 32.2804322,115.108548 C32.3719313,112.365899 32.8294265,109.748354 32.692178,108.016154 C32.7057613,107.225545 32.7977587,106.438585 32.9666751,105.668062 Z" id="Path" fill="#364B5E" fill-rule="nonzero"></path>
                        <path d="M18.4764033,136.01 C18.4764033,136.01 18.5476033,137.656713 18.6493176,140.07 C18.5335055,138.727432 18.4756824,137.369755 18.4764033,136.01 L18.4764033,136.01 Z" id="Path" fill="#141414" fill-rule="nonzero"></path>
                        <path d="M18.2823124,140.07 C19.0684738,146.560282 20.9249513,158.797465 20.8491767,163.734272 C20.7355148,170.281737 20.0630153,180.67 20.0630153,180.67 C19.6273114,180.183944 16.2742857,180.193474 16.2742857,180.193474 C16.2742857,180.193474 16.530025,178.792488 17.7045311,174.818263 C18.9220093,169.671356 19.5574969,164.402491 19.598896,159.111972 C19.598896,156.939014 18.7559036,146.093286 18.2823124,140.07 Z" id="Path" fill="#364B5E" fill-rule="nonzero"></path>
                        <path d="M27.5779295,82.9619076 L27.4628571,80.7030037 C29.485248,80.6437673 31.5071438,80.8352708 33.4780018,81.2727273 C33.7607494,81.8823295 33.9611215,82.5238444 34.0742857,83.1818009 C33.9592134,83.4116894 28.6449638,82.7320192 27.5779295,82.9619076 Z" id="Path" fill="#364B5E" fill-rule="nonzero"></path>
                        <path d="M22.9036031,88.7404482 C23.1690213,89.2618048 23.3973745,89.8008391 23.5870014,90.3536292 C23.9189376,91.107091 24.4656562,91.8895321 24.4070792,92.179325 C24.2940507,92.7698562 24.1473743,93.3535933 23.9677518,93.9277428 C23.8603606,94.1402576 22.913366,94.9903171 22.8255005,95.2704503 C22.737635,95.5505835 22.3861731,95.3477284 22.2787819,95.1931722 C22.1713908,95.0386159 21.9077943,94.4010713 22.7083465,93.4350947 C21.9937531,93.3801636 21.2830759,93.2833964 20.5800492,93.1453017 C20.1309589,93.0004052 19.603766,92.9617661 19.603766,92.8265294 C19.603766,92.6912927 19.1449129,92.1986446 19.7502085,92.0440883 C20.3555041,91.8895321 21.3220244,92.2759227 21.4977554,92.1986446 C21.6734863,92.1213665 22.2104421,91.9861297 22.1811536,91.8219137 C22.0797991,91.4850553 21.8792579,91.1857377 21.6051465,90.9621945 C21.173171,90.6767025 20.7194657,90.4247931 20.2481129,90.2087327 C19.8575997,90.0541764 19.3206439,89.6871053 19.1351501,89.6194869 C18.9496563,89.5518686 18.7836882,89.6774455 18.3053094,89.8609811 C17.8269307,90.0445167 17.748828,90.1507741 17.4168917,90.2666913 C17.0849555,90.3826085 16.2844033,91.97647 15.0347608,92.3821801 C13.7851183,92.7878903 12.6623927,92.6043548 12.4476104,92.179325 C12.2328281,91.7542953 12.3206936,91.5611 12.935752,91.4162035 C13.345165,91.3274391 13.7148453,91.110682 13.9901378,90.7979784 C14.1951573,90.6241027 14.556382,90.5371648 14.7711643,90.3149901 C15.0754446,89.7598757 15.3176906,89.1736103 15.4936139,88.5665724 C15.6705261,88.1608652 15.7015381,87.7074143 15.5814794,87.2818235 C15.5019115,87.0432374 15.5194212,86.7833651 15.6302935,86.557341 L15.5131396,86.1516308 C15.3374086,85.7748999 15.3178829,85.813539 15.3178829,85.813539 C14.6247219,84.1713787 11.1784423,81.717798 7.31236093,78.3079005 C4.6770888,75.9016608 2.23244902,73.2987522 0,70.5221287 C0,67.4696425 4.31517161,60.6884865 4.81307602,57.5200831 C5.3597946,53.9652891 8.7182087,55.7813251 8.7182087,55.7813251 C12.4378476,57.5587222 12.7112069,60.0123028 12.7112069,60.0123028 C12.7112069,60.0123028 10.5340954,63.2869637 9.98737682,64.2529403 C9.44065824,65.2189169 7.22449545,68.6191547 7.05852731,69.1697614 C6.89255917,69.7203681 9.01109365,71.6233421 11.7544494,74.7627662 C14.2675128,77.5182023 16.5283494,80.488975 18.5103289,83.6400915 L18.5103289,83.6400915 C18.7446368,83.9588638 19.027759,84.3742338 19.2718297,84.779944 C19.838074,85.687962 22.4740385,88.0352853 22.9036031,88.7404482 Z" id="Path" fill="#BF7F5D" fill-rule="nonzero"></path>
                        <path d="M28.4822877,20.8750747 C27.7615173,20.8338999 27.0449292,21.0118748 26.4222613,21.386712 C25.7995035,21.7666257 25.3545267,22.3906144 25.1900082,23.1146943 C25.0865365,23.616678 25.1335691,24.1379688 24.9924714,24.6302989 C24.7943267,25.1236443 24.538474,25.5904383 24.2305439,26.0204076 C23.9149945,26.4587287 23.8207559,27.0246803 23.976568,27.5456658 C24.0372057,27.7570461 24.2229051,27.9048397 24.4374871,27.9125 C24.5347781,27.903879 24.6284855,27.8707175 24.710276,27.8159647 C25.0970313,27.5614905 25.4991903,27.33256 25.9143097,27.1305639 C26.1990965,27.0557407 26.4739181,26.9455188 26.7326763,26.8023437 C26.8044484,26.7299312 26.8832456,26.6652381 26.9678391,26.6092731 C27.2688475,26.4644701 27.626295,26.715462 27.9084904,26.6092731 C28.0944765,26.509967 28.26298,26.3794549 28.4070356,26.2231318 C28.8102839,25.9093657 29.3677316,25.9093657 29.7709799,26.2231318 L30.1190209,25.6439198 C30.1429108,25.5884797 30.1821668,25.5414783 30.2318991,25.5087704 C30.2814986,25.4978085 30.3328037,25.4978085 30.3824033,25.5087704 C30.6834117,25.5087704 30.9562005,25.6632269 31.257209,25.701841 C32.2448928,25.8080299 32.047356,24.504803 31.9721039,23.8869769 C31.9560748,23.6519158 31.8953583,23.4223491 31.7933802,23.2112296 C31.6600882,22.9905808 31.4878183,22.7974172 31.2854285,22.6416712 L30.2883381,21.7728533 C29.8281062,21.2626223 29.216185,20.923168 28.5481333,20.8075" id="Path" fill="#380D09" fill-rule="nonzero"></path>
                    </g>
                </g>
            </g>
        </g>
    </g>
</svg>