<svg height="203" viewBox="0 0 178 203" width="178" xmlns="http://www.w3.org/2000/svg"><g fill="none" fill-rule="evenodd"><rect fill="#d8d8d8" fill-opacity=".01" height="203" rx="2" width="178"/><g fill-rule="nonzero" transform="translate(24.92)"><path d="m8.14498929 42.9772791c-.08006355.3660524.47037339.5683445.84066733.452749s.7005561-.3853183 1.09086598-.3660524c.2545857.0263967.4782864.1743204.595212.3935882.1169257.2192679.1113816.4804483-.0147513.6949361.6572681-.2109584 1.2681059-.5375975 1.80143-.9632958.1547031.2260619.3556068.4194379.5904687.5683445.2333876.1608145.5472321.1608145.7806197 0 .1601271-.1348614.2802224-.3853183.4803813-.3467865.2001589.0385319.2501986.2889888.3903098.4334831.2524312.1590016.5859142.1269028.8006356-.0770636.1958996-.2108779.4342295-.3812893.7005561-.5009139.230295-.0528179.4702611-.0528179.7005561 0 .6987313.1347177 1.4161553.1542614 2.1216842.0577978.113011.0001433.2226051-.0372879.3102463-.1059625.0822317-.0841288.1317294-.1930272.1401112-.3082547.1200953-.5683445.2201748-1.146322.3002383-1.7242995.0800868-.3749756.0800868-.7617135 0-1.1366891-.1439872-.3801214-.3463981-.7373038-.6004766-1.0596254-1.1208898-1.5798051-1.261001-3.6123593-1.8814936-5.4329884-.0453772-.1845477-.146339-.3520975-.2902304-.4816479-.2532423-.1161308-.5473931-.1161308-.8006355 0-.9486984.3689505-1.8330037.8757548-2.6220814 1.5027415-.774016.4146399-1.3460935 1.1072719-1.5912632 1.9265916-.0700556.6165093.2301827 1.2715505 0 1.839895-.2193148.3475892-.5300042.6333464-.900715.8284344-.5143309.3376259-.9996132.7145267-1.4511519 1.1270561-.50261382.4042984-.85407491.9557148-1.00079443 1.5701722-.07005561.3660524-.07005561.8573333-.44034955.9632958" fill="#380d09"/><g transform="translate(19.325714)"><path d="m74.8235714 181.563759c.1749123-2.560377.3984113-6.048287.5733235-9.835712-.1749122 3.787425-.3984112 7.275335-.5733235 9.82605" fill="#83bddb"/><path d="m73.4825776 185.795628h.9717346s.1360429-1.623183.3109551-4.193222c-.1749122 2.579701-.3109551 4.202883-.3109551 4.202883h-.9717346" fill="#020203"/><path d="m84.8324388 177.679716c.1166081-1.758448-.9134306-2.89854-.1360429-11.903338.0971735-1.101445-8.1334194-1.458932-8.1334194-1.458932.3789766 4.425105 1.5450582 7.207703-2.7791612 12.56034-.9717347 1.169078-3.6634398 3.323659-4.6157398 4.270516-.6802143.666664-1.4770367 3.777764 2.5848143 3.777764 5.1210418 0 9.0274153-1.536227 10.3198224-3.942015.1166082-.212559.4275633-.125603.4275633-.125603s2.0114908 1.410623 2.3321633-3.159409" fill="#673327"/><path d="m94.0347663 170.694234 7.7738777-1.043474s.097173.743958.719084 3.400953c.840698 3.417664 2.636221 6.529307 5.179345 8.975813.923302.995723 1.287611 2.38305.971735 3.700469v.608693s-.466432 2.309171-2.030925 2.309171-8.0945503-1.043475-8.8816554-2.164244c-.283698-.412315-.4329692-.901419-.4275633-1.400961l-.0874561-.173912s-.6802143-2.68598-1.5936449-2.463759c-.9523719-1.1082-1.1966098-2.654915-.6316276-3.999985.8939959-2.473421-.9717347-7.72944-.9717347-7.72944" fill="#673327"/><path d="m67.6133 85.747689c0 .8019294-.4955847 3.0627906-.5247367 3.86472-.2429337 8.3188098-.4664327 12.985459-.4664327 15.178688 0 2.396126 2.3613153 28.473324 4.1687418 34.453978 1.8074266 5.980655 3.7411786 28.705208 2.5459449 30.492641-1.1952336 1.787433-.2332163 7.130408-.2332163 7.130408s13.0115276-.908209 13.3224827 1.478256c0 0 .7968224-.8599.3692592-6.086934-.7482358-9.333299-2.1766858-14.38642-2.8569-32.338045-.1263256-3.584527-2.1086643-22.782524-3.5954184-28.502309-.6802143-2.589363 6.2482541 26.62792 8.6484388 35.004701 0 0 4.5768704 18.086889 3.5759836 25.806667-.8939959 6.956496 1.4090153 7.961324 1.4090153 7.961324s8.8233508-2.89854 13.0309618-.463767c.30949-2.321083.273474-4.674833-.10689-6.985481-.680215-5.391285-5.383411-22.270449-6.063625-29.8453-.787105-8.946827-2.3904672-25.652079-2.9832253-36.415324-.459106-7.3739655-2.5671566-14.5531797-6.1705153-21.0144152-1.2438204-2.1545813-24.0698684.3188394-24.0698684.3188394" fill="#cbbba0"/><path d="m96.9499704 71.3516071h-1.4964714l.281803-8.2801625 1.2146684 8.2511771m10.2323666 5.6811384-.417846-2.3574792-4.392241-24.5699573c-.960941-2.2845185-2.9867811-3.9558486-5.4222796-4.4734133l-14.5760204-5.2463574v-.1642506h-.0971735l-.1846296.0676326-.1749122-.0676326h-.1068908v.048309.096618l-14.5760204 5.2463574c-2.440894.5333153-4.463498 2.223024-5.4125623 4.5217223l-1.5159061 26.4153611-8.4832439-4.6666494s.6607796 3.5362188 4.1298725 10.4250822c3.4690928 6.8888633 11.233253-2.6763186 11.233253-2.6763186s.5927582-11.5072038.5733235-13.52652l.2915204 14.0482572-.8162571 10.6762889-.223499 6.3381408c5.1987806-.0579708 10.3586918.2125596 15.5477551.4734282 4.6837612.241545 9.3675224.48309 14.0901531.48309l-1.7782745-10.0192866v-2.656995l.3303898-5.1690629v-.628017l8.036246 1.0917834c1.035605.1266355 2.074609-.2078157 2.839078-.9138883.764469-.7060725 1.1764-1.7117206 1.125599-2.7479339" fill="#326141"/><path d="m77.6318847 33.7961907c.4372806 2.1545814-.7190837 4.3864572-1.5936449 6.2125374s1.7005357 7.5265421 2.886052 7.5265421c1.1855164 0 9.3772398-5.1110921 9.3772398-5.1110921s-2.4779234-.3285012-2.4779234-11.014452c0-1.7004768-8.1917235 2.3478174-8.1917235 2.3478174" fill="#f7ae83"/><path d="m77.6610367 40.9362609c2.1001711-.0338586 4.1193061-.811544 5.6943653-2.1932286.8259745-.6376788 1.42845-2.8115838 1.7977092-4.637664.2579418-.1273752.496708-.2899789.7093664-.48309-.2526511.2222214.1263255 2.2415376.1651948 2.6183478.053983 1.8574798.5149409 3.6808794 1.3507113 5.3429754.2022842.4033219.5488701.7169122.9717347.8792238-.6510623.5217372-1.7199704-.2801922-2.4196194-.5217372-.9356508-.3547937-1.9171389-.5759927-2.9152041-.6570024-1.0651362-.0011812-2.129415.0601167-3.1872898.1835742-.8281891.057961-1.6594517.057961-2.4876408 0-.4162223.0301432-.8344789-.0157002-1.2341031-.1352652-.1749122-.1352652-.0777388-.7439586-.1360428-.7632822.5262737.2541836 1.1058822.3800412 1.6908183.3671484z" fill="#e6a37b"/><path d="m73.4922949 173.747363h-.7385184c0-.541061 0-1.091783 0-1.632844.1904643-.629132.3110309-1.277118.3595419-1.93236.0564518-.150386.1315298-.293193.2234989-.425119.3984113-.58937.446998-3.458925.2720858-7.256012-.3401072-7.72944-1.6130796-19.226982-2.8180307-23.236629-.384943-1.39166-.6867084-2.804754-.9037132-4.231868-.5344541-4.096604-1.0883429-8.966151-1.5547755-13.777727h2.2155551c1.42845 6.840554 3.0998336 13.352607 4.1298724 17.342931.2818031 1.111107.5247368 2.019316.699649 2.68598 1.3507112 5.381623-.446998 3.371968.223499 6.512053.6704969 3.140085 2.2932939 19.21732 2.2932939 20.28978s5.3348234 2.222214 5.3736928 3.101438c-.0134867.109935-.0833836.205037-.1846296.251207-.4395806.227363-.9344187.327773-1.42845.289854-.8140974-.022962-1.6257142-.100432-2.4293367-.231883-.6430501-.112713-1.2918558-.190125-1.9434694-.231884-.2818031 0-.4567153.048309-.4567153.173913 0 .676326 3.838352 2.019316 3.838352 2.019316s-4.9364122.289854-7.1228153.289854m-6.219102-64.73406c-.223499-3.313997-.3789765-6.106257-.3886939-7.922676v-.502413c-.0070467-.484578.0221861-.9690062.0874561-1.4492702.1263255-.7536204.2526511-1.062798.3595419-1.062798.4178459 0 .5830408 4.9178562.5830408 4.9178562.0680214 1.845404.252651 3.86472.5150194 6.019301z" fill="#b7a890"/><path d="m92.625751 177.824643c-.3498678-1.859842-.3696003-3.766222-.0583041-5.63283.1862962-1.873041.1862962-3.759788 0-5.632829-.6510622-8.579679-3.585701-20.173838-3.585701-20.173838-1.234103-4.260854-3.614853-13.903331-5.5777571-22.019243-.2332164-1.033812-.4567153-2.09661-.6802143-3.16907h1.5159061c2.5265102 9.149725 5.1987806 20.125529 5.9178643 22.357405.7709956 2.482963 1.9107912 4.83745 3.3816367 6.985482v26.84048l-.9717347.444443m6.5883613-3.198056v-.10628h.252651l-.252651.115942" fill="#b7a890"/><path d="m89.3995918 26.8686801c0 1.545888-1.0300387 7.3043208-1.7491224 8.2028682-.1846296.2318832 0 1.93236.3012377 1.8647274.3012378-.0676326-1.204951.4444428-1.710253-.0579708-.5053021-.5024136-1.5353408-8.2221918-1.2729725-8.6086638.2623684-.386472 4.4311102-1.400961 4.4311102-1.400961" fill="#e1b612"/><path d="m85.677848 28.7237457c.1943469-4.2318683 1.457602-8.6956199-5.0627378-9.1014155-1.2223455-.0983986-2.4525525-.0235767-3.6537224.2222214-.3634207-.1561104-.7367146-.288437-1.1174949-.3961338-1.5061888.1642506-2.6722705 1.062798-3.5759837 2.89854-.7385184 1.642506-.699649 3.86472-.6316276 5.9323451 0 .6666642.3595419 1.642506.4372806 2.270523.0971735.96618 0 1.5169026.1263256 2.2801848.3165941 2.8408679 1.5468964 5.5042748 3.5079622 7.5941748.5924438.3297534 1.2650365.4902529 1.9434694.4637664 2.100171-.0338586 4.119306-.811544 5.6943653-2.1932286.8259745-.6376788 1.42845-2.8115838 1.7977092-4.637664 1.2737831-.7855106 2.1902961-2.0328819 2.5556622-3.478248.2137817-1.6714914-.4955847-2.6859804-2.0309255-1.93236" fill="#f7ae83"/><path d="m78.0691653 19.3324762.1651949-.3768102s1.7491225-.96618 1.42845-.96618c-.3206724 0-.8065398-.5700462-1.2243857.2801922l.8356918-1.4202846-3.9841122 1.1207688c-.5305964-.0809972-1.0727238.0323017-1.5256235.3188394l-1.1466469.8309148s.1068908.628017.223499-.241545c-.8745613.2318832-1.5061888 2.2415376-1.5256235 3.7391166-.0971444.4887069-.1685025.9821333-.2137816 1.4782554-.1261955 1.5518728-.0543644 3.1133863.2137816 4.6473257l.4275632.2801922s-.7482357-5.2753427 1.3312766-6.7632599c2.0795122-1.4879172 6.8021428 0 6.8021428 0z" fill="#e1b612"/><path d="m89.0594847 22.4145904c-.6413449-1.3236666-1.5159061-3.2753502-2.5167929-3.7584402-.4664326-1.0531362-3.8869387-1.1400924-7.3560316-2.41545 0 0 3.0609643 1.1787396 3.0901163 1.9903308-.4275632-.6570024-5.5000183-2.41545-5.2570847-2.0193162 1.3895806 2.2608612 1.0980602.7536204.7482358 1.7198004l.0680214.0772944c.1457602-.96618-.923148-1.93236-1.6713837-2.125596.2720857 1.2946812-1.2535377 1.1884014-2.2835765 2.5893624-1.2826898 1.1690778-2.2738592 3.4009536-.9717347 4.3864572 2.9929428 2.2801848 5.4222796.4444428 7.3754663.5893698 1.2761703.0610248 2.433334.7637335 3.0706816 1.8647274.47615.8888856.7288011 5.0724449.7288011 5.0724449l1.2729724-.7826058.8648439-1.787433 2.7500092 1.1787396s1.3604285-3.8647199.0874561-6.5410385" fill="#e1b612"/><path d="m71.199001 31.7382273c-.4178459-.2125596-.5830408-1.93236-.4081286-2.0579634.1749123-.1256034 2.4584888.1739124 2.7597266.1062798.0356418.6508084-.0332433 1.3031064-.2040643 1.93236-.0874561.289854-1.6908184.289854-2.1475337 0m5.0821725-.193236c-.2015852-.5531907-.3417007-1.126648-.4178459-1.7101386.281803.0772944 4.0715683-.4057956 4.2464806-.241545.1749122.1642506.1360428 1.93236-.3498245 2.125596-.699649.2512068-3.1970072.531399-3.4788102-.1739124m-5.8304082-2.3284938c-.3595418.3188394-.0777388 2.89854.5344541 3.0531288.9037133.2125596 2.5070755.338163 2.7111398-.3961338s.3789765-1.93236.3789765-1.93236c.3843272-.2353382.8692106-.2353382 1.2535378 0 0 0 .2429336 1.2463722.47615 2.0193162.2332163.772944 3.0512469.386472 4.2270459.144927.5344541-.1062798.5927582-1.2463722.6219102-2.1835668l5.6749306-1.4396082.3109551-.48309s-5.4708663.96618-6.2676888 1.062798c-.6996489-.1739124-3.3816367.3285012-4.4019581.2608686-.4335474.0291222-.8685772.0291222-1.3021245 0-.5344541 0-.8259745.144927-.9717347.1159416s-2.9152041-.5217372-3.2650286-.2028978" fill="#26282d"/><path d="m68.0214286 79.8829765-.1749123-8.6376492-.4275632 8.5893402h.6024755" fill="#dbdbdb"/><path d="m95.0550878 81.9216163c-5.0918898-2.0579634-11.3401439-4.1932212-17.083096-4.1932212-.3303898 0-.6413449 0-.9717347 0-1.0397561 0-.6996489.7632822-.8939959 1.4782554-.21122.6574566-.8421933 1.09026-1.5353408 1.0531362h-.0874561c-2.4973582-.1159416-5.208498-.3091776-6.4328837-.3961338l-.1943469-8.6376492c5.014151-.2512068 10.0088673-.7053114 15.0035836-.7053114.9652565 0 1.9369912.0193236 2.9152041.0579708.7871051 0 1.5839276.0579708 2.4099021.0579708 2.3035117.1298711 4.6004406-.3502268 6.6563826-1.3912992.0777388 0 .6510623-.1642506.7190837-.2125596l-.0777388 2.3284938-9.0274153.821253h-4.6157398s-3.2164418 4.1932212-.7190837 4.4734134c2.351598.2705304 9.0371327 2.6763186 14.0901531 2.89854l-.2332163 3.9516762" fill="#275937"/><path d="m69.5567694 62.7236198h-22.349898c-1.1952336 0-1.5061887.4251192-1.5061887 1.3429902l2.7597265 14.3864201c0 .96618.757953 1.3816374 1.6908184 1.3816374h22.2235724c.9717347 0 1.6908184-.4057956 1.6908184-1.3236666l-2.8180306-14.1738605c-.0050222-.4381971-.1869848-.8559955-.5049691-1.1594428-.3179844-.3034472-.7452982-.4670715-1.1858493-.4540778" fill="#9abccc"/><g fill="#f7ae83"><path d="m78.5064459 70.8491935-4.9558469-1.884051h-1.4576021l1.2438204 6.8405544 2.5945317.821253c1.0763159.2695416 2.2141769.1461209 3.2067245-.3478248l1.9434694.4057956-.4275633-4.2898392z"/><path d="m66.1459806 70.9071643.9717347 3.0048198c.2956977.8086933.9708372 1.4222289 1.8074265 1.642506l5.1404766 1.3816374 3.6537224-.241545c.3580792-.0852423.7115942-.1884333 1.0591908-.3091776l2.4001847.3285012.6316276-4.5217224-6.8021429-1.8454038z"/><path d="m64.7369653 70.8202081c-.3572463.0417885-.6264836.3428267-.6264836.7004805s.2692373.658692.6264836.7004805l8.1042674.144927-.1554776-2.2028904z"/></g><path d="m92.8686847 109.013303c0-.37681.0971735-.821253.1651949-1.256034-.0680214.434781-.1263255.879224-.1651949 1.256034" fill="#b7a890"/><path d="m96.0073878 94.7041776c.47615-1.1787396.9037132-2.2898466 1.204951-3.2077176-.3012378.96618-.728801 2.028978-1.204951 3.2077176z" fill="#e5e5e5"/><path d="m92.7909459 102.269367c.5344541-1.188401 1.1855163-2.6666568 1.8365786-4.202883-.6510623 1.5362262-1.3021245 3.014482-1.8365786 4.202883z" fill="#b7a890"/><path d="m94.6275245 98.066484c.47615-1.1207688.9717347-2.270523 1.3798633-3.3623064-.4275633 1.0917834-.9134307 2.2415376-1.3798633 3.3623064z" fill="#222429"/><path d="m98.4561592 85.6220856c.2137816-1.3043429.3692592-2.3478173.3692592-2.3478173l.1846296-2.270523-.1846296 2.2801848s-.1554776 1.0434744-.3692592 2.3478173" fill="#e5e5e5"/><path d="m72.7051898 44.6560539v-.193236.0289854z" fill="#e5e5e5"/><path d="m72.7051898 44.4628179v-.0096618-.0096618z" fill="#795b4a"/><path d="m74.0753357 63.4579166.0388694-.0579708z" fill="#c06625"/><rect fill="#d3d3d3" height="28.096514" rx="4.83" transform="matrix(-1 0 0 -1 63.03643 28.442768)" width="62.025826" x=".505302" y=".173127"/><path d="m55.4957684 25.1295562 6.695252 13.3236221-17.5106592-13.0627535" fill="#d3d3d3"/></g><path d="m31.4776843 24.2277266c.271735.745981.271735.6200361.5143556 1.2885126.2964729 1.0147727.4627827 2.0629938.4949461 3.1195569 0 1.4144575 1.213103 2.6932821 1.5139525 4.0399231.0977963.2457792.0977963.5195779 0 .7653571-.2911447.4650271-1.0772354.2809539-1.4460188.6878526-.0903324.2889142-.1616531.5834131-.2135061.8816139-.2125227.3906494-.3724181.8076139-.4755364 1.2400724-.1573684 1.2108976-.8065964 2.3039212-1.7953924 3.0226762-.8928439.5522197-3.1346583 1.5597785-3.1346583 2.7998508s.446422 4.2530605.446422 4.2530605l1.5721815 11.5287973-5.9975814-8.3220478s-4.6000866-5.1540505-5.9393524-5.7159583c0 0 1.5721816-2.0151175 1.3392658-3.3520705s-1.4848381-2.5576491-1.6789346-3.1001808c-.1940965-.5425316.223211-1.3369529-.223211-1.4532097-.7999422-.1648715-1.4897159-.6663009-1.8924407-1.3757052-.1215268-1.7223419-.1215268-3.4510848 0-5.1734267-.106753 1.1528797-1.3392657-2.9064195 1.8536214-7.0432232 1.8958418-2.2658347 4.7095753-3.5636058 7.6668111-3.5361437 2.4650254-.1065688 5.8228945 1.346641 6.3857743 2.5770252.5628798 1.2303843.2329158 1.792292.2329158 1.792292.3574323.2760536.6270972.6495675.776386 1.0753753z" fill="#bf7f5d"/><path d="m8.13508175 42.5394833c-.06978325-.0366087-.13435513-.0827537-.19193389-.1371618-.1396435-.1228354-.21994358-.3016817-.21994358-.4898638s.08030008-.3670284.21994358-.4898637c.07677356 0 .16314381-.0783782.23991737-.1175673.26299981-.2117646.35358165-.5776443.22072397-.891552-.13743577-.2998491-.2978807-.5881342-.47983473-.8621601-.28572694-.5321076-.36780188-1.1535529-.23032066-1.7439149.04409242-.2054287.15176334-.390921.30709422-.5290529.26870745-.1861482.65257523-.0783781.95966946-.1959454.3401589-.1607137.55753576-.5088989.55660828-.891552.00869234-.3544246-.01702439-.7088568-.07677356-1.0581057-.1631438-1.5773612.75813889-3.0371551 1.34353719-4.4381654l.316691-.7445929c.0527187-.118995.0913774-.2439728.1151603-.3722964.0465909-.3979173.1811322-.7798266.3934645-1.1168893.2687074-.3429046.690962-.3722964.9596694-.6956065.2687075-.3233101.1151604-.7445929 0-1.1168893-.2515397-.6781569-.0082329-1.4436934.5853984-1.8418876.5853984-.2547292.9596695 0 1.3435372-.5388501.3072115-.3080216.5148241-.7045768.5949951-1.1364839.0575802-1.0287138.9596695-1.2246593 1.6314381-1.6949285.6688742-.5757845 1.3741573-1.1059841 2.1112728-1.5871585 1.4916761-.745839 3.1379423-1.1122261 4.7983472-1.0679029 1.6385646-.0171358 3.2541345.3943552 4.6927837 1.1952675.7101554.391891 2.9749753 2.4591159 2.6678811 3.2722897-.3147848.7998619-1.0112323 1.3775526-1.8425654 1.5283749-.6621719.10777-1.4107141-.0489864-1.9673224.3331073-.2888765.2431856-.5270863.5430071-.7005587.8817547-.7773322 1.2050648-2.3319967 2.0084413-2.7158645 3.4584379-.1535471.568242-.6429786.891552-.8732992 1.4499967-.2285448.6605884-.4050453 1.3387564-.5278182 2.0280358-.1395603.8484491-.5161164 1.6377142-1.0844265 2.2729677-.2495141.2351346-.6717686.3527019-.8732992.6270256s-.220724.7445929-.4990281 1.0679029c-.2783042.3233101-.6333819.5780392-.911686.9111466-.071646.076287-.121434.1711671-.1439504.2743237-.0115338.1962819.0707146.3861215.2207239.5094582.3070943.3037156.7197521.4800665 1.0172497.7935793.2974975.3135128.470238.8621602.1631438 1.1756729-.2220123.1678022-.4835911.2725925-.7581389.3037156-.2687074.0685809-.5566083.2645264-.5374149.5486473.0191934.284121.345481.4506747.3934645.7347956.0479835.284121-.2495141.5584447-.5470116.6172283-.2974975.0587837-.6045918 0-.9020893 0-.7677356.0783782-1.0172496.4506747-1.7849852-.0881754-1.1036199-.7739847-1.9865158-.0979728-3.2244893 0-.7101554.0587836-1.4107141.2351345-2.1208695.3331073-.5470116.0685809-1.80417862.4016883-1.76579184-.391891-.29195787.0678663-.59741813.0404514-.87329921-.0783782z" fill="#380d09"/><path d="m22.7814542 182.560198c.2081463 1.568411.9774493 3.001675 2.1586419 4.021698.1799522.100211.3710265.177853.5690965.231248.3422843.199264.7368882.283649 1.128381.241302 1.8642817 0 3.7776234.221193 5.4358529-.784231.0316406.090527.0710425.178005.1177441.26141.5102244.884774 3.5715712 1.417649 5.1022445 1.950524 0 0 2.3745062.713851.8438328 1.598625-1.5306734.884773-4.7588243.894827-4.7588243.894827l-9.8610688.170923s.5102245-2.312477-.1766161-3.016274c-.6868407-.703797-3.9248035-2.483399-4.2485998-1.246726-.3237963 1.236672 1.6974775 3.19725.6770286 3.730125-1.1531603.403822-2.3548375.644001-3.5715712.713851-.0730202-1.724573-.2433799-3.443371-.5102245-5.147774-.3336083-1.598625-.9812009-3.016273.5102245-5.509726 1.3049971.120651 2.6001823.291573 3.9248035.522821.3434203.120651.8045847 1.005424 1.4227413.844556.058872.47255-.1766162 1.005425-.0588721 1.518191.4513524-.341844.7359007-.814393 1.2951852-.99537z" fill="#380d09"/><path d="m43.2285714 101.981732c0 3.509208-4.5768518 27.736245-7.773846 42.939603 0 0-1.8560058 14.875574-4.2173115 19.888729 0 0-.9717308 6.015786-.6704942 9.361103.3156711 2.592268.7665107 5.166568 1.3507057 7.712547.178847 1.556493.4777204 3.09709.8939923 4.608247-1.642225.964068-3.5370999.780895-5.3833884.723051-.3864613.038535-.775696-.038698-1.1174903-.221736-.1975721-.046846-.3873658-.121515-.5636039-.221736-1.1564664-.935779-1.9188978-2.266389-2.1378076-3.730944-.5538866.163892-.8356885.617004-1.2826846.886943-.0485144-.441746-.0679902-.886158-.0583039-1.330414-.6219077.163891-.9717307-.780896-1.2826846-.896584-1.3215538-.212095-2.6333903-.375987-3.886923-.482034 0 0 3.1969942-10.701158 3.1969942-17.719576 0-7.018417-1.6519423-26.029845-1.6519423-28.198998 0-2.169154.126325-3.38388.126325-3.38388s-4.0424-14.036835-5.3931057-25.4032c-1.3507058-11.3663658-.5053-13.8633028 1.3507057-19.8790891l-.5053-2.5065776s1.5159-8.1945808 24.419594-2.342686c-.0780959 1.3055333.0933493 2.6139436.5053 3.8562732.6802115 1.7931671 4.0812691 12.8317494 4.0812691 16.3409585z" fill="#425b6b"/><path d="m27.2967608 46.8449004c.7757446.6162697 4.9938554 3.9128236 5.7599032 4.646478.7660477.7336544 5.4593021 7.5419675 5.4593021 7.5419675s4.1987173 8.3930066 5.216882 9.4983793c0 0 .0775744.6749621-.4266595.8412571-.504234.166295-5.9635361 1.2716676-6.3804988 1.7020782s.4169627 1.5260012.4169627 1.5260012 3.3647919 6.5246334 3.2775206 7.6300061c-.0872712 1.1053726-1.3090689 2.3379121-1.6678507 2.817233l-.6884733.3130258c-.357183-.4736261-.857561-.8170119-1.4254305-.9782059-.8436222-.166295-3.8011482-.8999494-4.2181109-.8999494s-4.4411375-.7630006-6.1283818-.5086671c-1.6872444.2543336-6.6810998-.2836797-8.0192591.4010645-1.3381593.6847441-3.8787227 2.5042071-4.1405365 3.1009127-.2618137.5967056-.1842393.2445514-.096968.498885.0250998.2834736-.0045378.5691675-.0872713.8412571-.1851221.3530128-.5866157.5312231-.9696807.4304106-.5915052-.166295-2.104207-.0880386-2.4338984-1.8683733-.3296914-1.7803348.4169627-5.3410042.2424201-6.2702998-.1745425-.9292956-.9211966-1.9564118-1.17331356-3.472631-.25211697-1.5162191-.96968066-1.9564118-1.26058486-3.0520024s.25211697-2.4650789-.25211697-3.0520024c-.57433654-.9032199-1.0000315-1.8942252-1.26058487-2.9346177-.41696268-1.2716677-2.46298888-8.2658399-2.46298888-8.2658399s1.18301041-3.8345671 2.01693578-5.9572739c.72849919-1.7132759 2.13531882-3.0402168 3.87872266-3.6584901 1.0860423-.342372.4945371-.9782059 1.0860423-1.1053727.5915052-.1271667.9696807-.166295 1.2605849-.2543335s.5042339-1.4379627.5915052-1.8585912.9696807-1.3597062.9696807-1.3597062 4.0047811.4695388 7.62169 5.5562095l6.6132221 9.116879-1.4448242-11.0635087z" fill="#2650a2"/><path d="m45.0544589 48.290941c1.0876736-1.3128711 2.3678559-2.8960392 3.0512615-2.5002472.4523953.270297.0770035.8012375-.2598866 1.081188-.2890395.2526168-.5445924.5413567-.7604091.8591583-.05722.7773487-.176313 1.5488656-.3561409 2.3071779-.2983883.6950494-1.6074469 2.2396036-1.9250861 2.8960392-.3176393.6564356-3.5132823 5.1742567-3.9079249 5.9272269-.3946427.7529702.1058797.9653464.1636323 1.351485.0973468.5785443.1648148 1.1617478.202134 1.747277.067378.8591582.5197733 3.6876232.6545293 4.2185637s1.607447 6.3905932 1.9250862 7.7227712c.2913587 1.6757457.3818385 3.3804249.269512 5.0777221-.0062154.7730185-.2118067 1.5312659-.5967767 2.2009898-.0962543.2027227-1.3475603 2.3747521-1.8673335 2.538861-.5197733.1641089-1.742203-.8205444-2.0405914-1.0522275l-1.0876737-.8398514s1.6459487-.8495048 1.6459487-1.9693067c0-1.1198018-1.3956875-4.68193-1.7614538-5.4349002-.3657664-.7529702-1.0202957-2.1141086-1.0202957-2.1141086.2650557-1.5780607.3650609-3.1795686.2983884-4.7784647-.1925086-1.7086631-.4620207-6.0237616-.6834056-7.0084149s-.5871513-2.5678214-.6641547-3.0311877c-.1976312-.8143588-.2658487-1.6549006-.2021341-2.4905937 0 0 .1636323-.9653464.4331444-2.4326729.176557-.8123756.4345467-1.6047701.7700345-2.3650987.3272646-1.1004949.1636323-1.1004949.3850172-1.7086631.2081503-.7630935.5328434-1.4892679.9625431-2.1527225.4427698-.4923267.7122818-.4923267.9625431.0579208.2502612.5502474-.1058798 1.0425741-.2695121 2.7512372s.8662888 1.7376235.8662888 1.7376235c.202134-.2896039 4.0811826-6.284405 4.6009559-6.6126228.5197732-.3282178.8855396.0675742.7892853.4247524s-2.2330999 3.6586629-2.1368456 3.8613856.5197732 1.0715345 1.5593198-.270297z" fill="#bf7f5d"/><g fill="#d2c0de"><path d="m13.3731614 46.1523165c-.186131-.2272706-.293891-.5871157 0-.4450716s3.2817832 2.1211922 3.6540451 2.2632363c1.2273351-.0052616 2.4523597-.1034142 3.6638415-.2935578.264502-.1420442.5975785 1.8939216.5975785 1.8939216l2.0768299.3219666 5.623115 8.3521943-.5681893.6249941s-4.3299945-3.3806501-4.6336819-3.5700422c-.3036874-.1893922-3.918547-4.1855667-4.36918-4.1192795-.4506329.0662873 1.2833242 3.7878432 1.4302697 4.734804 0 0 .6073748 1.2405187-.3036874 1.4583196-.9110622.217801-1.6555861.3977236-2.3021464-.3977235-.6465602-.7954471-1.6164006-4.3465501-2.4099064-5.3313893-1.4332636-1.5912371-2.9852468-3.0787935-4.6434783-4.4507157.9126289.2804873 1.7874125.6651422 2.6058338 1.1458225.9012658.6912814 1.2049532.2556794.9796368-.1136353-.4295381-.714238-.8971269-1.40645-1.4008806-2.0738441z"/><path d="m31.1346707 50.7529636c.1442756-.0752488 1.4139007 1.3074482 1.4139007 1.3074482-.0880056.9461663-.4188397 1.8552937-.9618372 2.6431146-.9625327 1.277246-1.999845 2.4989464-3.1067342 3.6589736v-1.1193261c.0581222-1.0072724.4574331-1.9669718 1.1349679-2.7277695.336643-.1881221.4809186 1.5520068.6636677 1.3356664.2970834-.6718637.4129907-1.4070146.336643-2.1351851-.1058021-.649021 0-1.4861641.153894-1.5237885.1538939-.0376244.6251942 1.382697.8464167 1.66488.2212226.2821831.153894-.6113966.153894-1.0440773s-.7790882-2.0599363-.6348126-2.0599363z"/><path d="m15.7759053 79.1485711c1.6917342-.2406626 3.3605731-.6101377 4.9905359-1.104887 1.2077097-.3238462 3.1739808.0571493 2.4852869.3333711-.6655858.2343009-1.3668873.3630025-2.076063.3809955-.9981071.1142987-6.5775262 1.2191857-6.407848 1.7621043s4.7909144-1.2096608 4.5014633-.8762897c-.289451.3333711-2.9943215 1.2668101-3.9924287 2.0954754-.9981071.8286652-2.0760629 1.3144345-1.67682 1.5906563.3992429.2762217 1.0979179.4952942.5789022.8762897-.5190158.3809955-.7485804.6667422-1.2176908.4952942s-1.7666497-.6572173-1.9163658-1.704955c-.0927949-1.7276474-.0092257-3.4598125.2495268-5.1720142.1696782-.771516-.4591293-1.2668102-.6886939-2.2002492-.2222391-1.0552268-.5566717-2.0860731-.99810719-3.0765388-.43482818-.6673887-.70765558-1.419172-.79848574-2.2002492.27192968-.702735.22860884-1.4813212-.11977286-2.1526247-.63862044-1.2609757-1.17582046-2.5664752-1.60695255-3.9052041-.16967822-.6095929-2.46532472-5.3910867-2.505249-5.9721049.41656949-2.1478459.96988052-4.2694765 1.6568579-6.3531003.1796593-.4000453.34933751-.1333485.44914823.2285973-.53122941 1.1618722-.82592202 2.4096004-.86835324 3.6766068.16967822 1.5430319.99810717 4.9529418.99810717 4.9529418s.9182586 3.0289144.9182586 3.5242086c.07194183.6416972.1886466 1.2781017.34933751 1.9049776.33776312.413798.61634902.8686311.82842896 1.3525341.31117227.7566757.50615374 1.5522848.57890216 2.3621723 0 .9524888.28945108.4952942.80846685 1.6478056.5190157 1.1525115 2.0760629 1.2572853 1.7766307 1.704955-.2994321.4476697-.1696782.5524435-.4591293 1.0477377-.2809324.4073228-.3679676.9091274-.2395457 1.3811088.1197729.6000679.698675-1.4858826 1.0480125-.9524889.3493375.5333938.7485804.4381449.27947 1.1525115-.4691103.7143666-.568921.4952942-.5190157 1.5906563-.0205498.7241598.140274 1.4425457.4691104 2.0954754.2295646.3333711 1.6069525-1.6001812 2.0760629-2.0954754s1.2675961.1142987.7485804.7238915c-.5190157.6095929-.3393565.8286653.2994321.8858146z"/><path d="m36.914209 65.7382354c.3192051 2.0984145.2767592 4.2464253-.1250204 6.3267646-1.4598759-2.1694973-3.0407009-4.232285-4.7329146-6.1758878-.2679008-.2414028 2.8576088 2.574963 3.0629994 2.8867749.2053907.3118119 1.2055537 1.6998779 1.2055537 1.6998779.1357476-.5338664.0745758-1.1068382-.1696705-1.589235-.3742015-.7557457-.5651556-1.6091415-.5536617-2.4743785.1339504 0 .964443.3520458 1.0001631 1.005845s0-1.5087674 0-1.8205794c0-.3118119.2946909.0201169.312551.1408183z"/></g><path d="m32.9666751 105.668062c.6372026-3.47793 1.5117562-6.9030733 2.616873-10.2488457.2195977-.4041799-1.8299811 12.5969377-1.9306301 17.0814097-.1006489 4.484471 0 16.946682-.1372485 20.863377-.1372486 3.916695-2.3423759 25.915626-2.4796244 27.907655-.1372486 1.992029.8326414-22.884277 1.2443871-26.646998.4117458-3.762722-.091499-16.773463 0-19.516112.0914991-2.742649.5489943-5.360194.4117458-7.092394.0135833-.790609.1055807-1.577569.2744971-2.348092z" fill="#364b5e"/><path d="m18.4764033 136.01s.0712 1.646713.1729143 4.06c-.1158121-1.342568-.1736352-2.700245-.1729143-4.06z" fill="#141414"/><path d="m18.2823124 140.07c.7861614 6.490282 2.6426389 18.727465 2.5668643 23.664272-.1136619 6.547465-.7861614 16.935728-.7861614 16.935728-.4357039-.486056-3.7887296-.476526-3.7887296-.476526s.2557393-1.400986 1.4302454-5.375211c1.2174782-5.146907 1.8529658-10.415772 1.8943649-15.706291 0-2.172958-.8429924-13.018686-1.3165836-19.041972z" fill="#364b5e"/><path d="m27.5779295 82.9619076-.1150724-2.2589039c2.0223909-.0592364 4.0442867.1322671 6.0151447.5697236.2827476.6096022.4831197 1.2511171.5962839 1.9090736-.1150723.2298885-5.4293219-.4497817-6.4963562-.2198933z" fill="#364b5e"/><path d="m22.9036031 88.7404482c.2654182.5213566.4937714 1.0603909.6833983 1.613181.3319362.7534618.8786548 1.5359029.8200778 1.8256958-.1130285.5905312-.2597049 1.1742683-.4393274 1.7484178-.1073912.2125148-1.0543858 1.0625743-1.1422513 1.3427075s-.4393274.0772781-.5467186-.0772781c-.1073911-.1545563-.3709876-.7921009.4295646-1.7580775-.7145934-.0549311-1.4252706-.1516983-2.1282973-.289793-.4490903-.1448965-.9762832-.1835356-.9762832-.3187723s-.4588531-.6278848.1464425-.7824411c.6052956-.1545562 1.5718159.2318344 1.7475469.1545563.1757309-.0772781.7126867-.2125149.6833982-.3767309-.1013545-.3368584-.3018957-.636176-.5760071-.8597192-.4319755-.285492-.8856808-.5374014-1.3570336-.7534618-.3905132-.1545563-.927469-.5216274-1.1129628-.5892458-.1854938-.0676183-.3514619.0579586-.8298407.2414942-.4783787.1835356-.5564814.289793-.8884177.4057102-.3319362.1159172-1.1324884 1.7097787-2.3821309 2.1154888-1.2496425.4057102-2.3723681.2221747-2.5871504-.2028551-.2147823-.4250297-.1269168-.618225.4881416-.7631215.409413-.0887644.7790933-.3055215 1.0543858-.6182251.2050195-.1738757.5662442-.2608136.7810265-.4829883.3042803-.5551144.5465263-1.1413798.7224496-1.7484177.1769122-.4057072.2079242-.8591581.0878655-1.2847489-.0795679-.2385861-.0620582-.4984584.0488141-.7244825l-.1171539-.4057102c-.175731-.3767309-.1952567-.3380918-.1952567-.3380918-.693161-1.6421603-4.1394406-4.095741-8.00552197-7.5056385-2.63527213-2.4062397-5.07991191-5.0091483-7.31236093-7.7857718 0-3.0524862 4.31517161-9.8336422 4.81307602-13.0020456.54671858-3.554794 3.90513268-1.738758 3.90513268-1.738758 3.7196389 1.7773971 3.9929982 4.2309777 3.9929982 4.2309777s-2.1771115 3.2746609-2.72383008 4.2406375-2.76288137 4.3662144-2.92884951 4.9168211 1.95256634 2.4535807 4.69592209 5.5930048c2.5130634 2.7554361 4.7739 5.7262088 6.7558795 8.8773253.2343079.3187723.5174301.7341423.7615008 1.1398525.5662443.908018 3.2022088 3.2553413 3.6317734 3.9605042z" fill="#bf7f5d"/><path d="m28.4822877 20.8750747c-.7207704-.0411748-1.4373585.1368001-2.0600264.5116373-.6227578.3799137-1.0677346 1.0039024-1.2322531 1.7279823-.1034717.5019837-.0564391 1.0232745-.1975368 1.5156046-.1981447.4933454-.4539974.9601394-.7619275 1.3901087-.3155494.4383211-.409788 1.0042727-.2539759 1.5252582.0606377.2113803.2463371.3591739.4609191.3668342.097291-.008621.1909984-.0417825.2727889-.0965353.3867553-.2544742.7889143-.4834047 1.2040337-.6854008.2847868-.0748232.5596084-.1850451.8183666-.3282202.0717721-.0724125.1505693-.1371056.2351628-.1930706.3010084-.144803.6584559.1061889.9406513 0 .1859861-.0993061.3544896-.2298182.4985452-.3861413.4032483-.3137661.960696-.3137661 1.3639443 0l.348041-.579212c.0238899-.0554401.0631459-.1024415.1128782-.1351494.0495995-.0109619.1009046-.0109619.1505042 0 .3010084 0 .5737972.1544565.8748057.1930706.9876838.1061889.790147-1.197038.7148949-1.8148641-.0160291-.2350611-.0767456-.4646278-.1787237-.6757473-.133292-.2206488-.3055619-.4138124-.5079517-.5695584l-.9970904-.8688179c-.4602319-.510231-1.0721531-.8496853-1.7402048-.9653533" fill="#380d09"/></g></g></svg>