<svg height="238" viewBox="0 0 419 238" width="419" xmlns="http://www.w3.org/2000/svg"><g fill="none" fill-rule="evenodd"><rect fill="#d8d8d8" fill-opacity=".01" height="262" rx="2" width="419" y="-24"/><g fill-rule="nonzero" transform="translate(145.340625 10.715)"><path d="m8.51884245 43.3679369c-.08066063.3650688.47388122.5668174.84693665.4515325s.7057805-.384283 1.0990011-.3650688c.2564843.0263257.4818534.1738519.599651.3925306s.1122122.4791573-.0148614.6930688c.6621697-.2103915 1.2775629-.536153 1.8148643-.9607075.1558568.2254545.3582587.4183109.5948722.5668174.235128.1603824.5513131.1603824.7864411 0 .1613213-.134499.2823122-.384283.4839638-.3458547s.2520645.2882123.3932206.4323184c.2543137.1585743.5902837.1265618.8066063-.0768566.1973606-.2103112.4374678-.3802648.7057806-.4995679.2320124-.052676.4737681-.052676.7057805 0 .7039422.1343557 1.4267164.1538469 2.1375068.0576425.1138538.0001428.2242652-.0371877.31256-.1056778.082845-.0839028.1327117-.1925085.1411561-.3074264.1209909-.5668174.2218167-1.1432419.3024774-1.7196664.080684-.3739681.080684-.7596668 0-1.1336348-.1450611-.3791001-.3489814-.7353227-.6049548-1.0567783-1.1292489-1.5755602-1.270405-3.602653-1.8955249-5.4183901-.0457156-.1840518-.1474303-.3511514-.2923948-.4803537-.2551309-.1158188-.5514754-.1158188-.8066063 0-.9557734.3679591-1.8466734.8734017-2.6416358 1.4987036-.7797882.4135259-1.356132 1.1042968-1.60313 1.921415-.0705781.6148528.2318993 1.2681338 0 1.8349512-.2209504.3466553-.5339568.6316446-.9074322.8262085-.5181666.3367186-1.0070678.7126067-1.461974 1.1240277-.50636204.403212-.86044418.9531468-1.00825787 1.5659532-.07057805.3650688-.07057805.8550296-.44363348.9607075" fill="#380d09"/><g transform="translate(19.640625)"><path d="m75.1663086 183.309287c.1757134-2.584992.4002362-6.106434.5759496-9.930271-.1757134 3.823837-.4002362 7.345279-.5759496 9.920516" fill="#83bddb"/><path d="m73.8191722 187.58184h.9761858s.136666-1.638787.3123794-4.233534c-.1757134 2.604501-.3123794 4.243289-.3123794 4.243289h-.9761858" fill="#020203"/><path d="m85.2210226 179.387903c.1171423-1.775353-.9176147-2.926406-.136666-12.017775.0976186-1.112034-8.1706754-1.472957-8.1706754-1.472957.3807125 4.467646 1.5521355 7.276996-2.7918914 12.681093-.9761859 1.180317-3.6802206 3.355612-4.6368827 4.311572-.6833301.673073-1.4838025 3.814082 2.5966543 3.814082 5.1444993 0 9.0687663-1.550995 10.3670935-3.979912.1171423-.214603.4295217-.126811.4295217-.126811s2.0207047 1.424184 2.342846-3.189783" fill="#673327"/><path d="m94.4655024 172.335264 7.8094866-1.053506s.097619.751111.722377 3.43365c.84455 3.450521 2.648297 6.592079 5.203071 9.062104.927531 1.005296 1.293509 2.405961.976186 3.736045v.614546s-.468569 2.33137-2.040229 2.33137c-1.571659 0-8.1316275-1.053506-8.9223381-2.18505-.2849975-.416279-.4349524-.910086-.4295217-1.41443l-.0878567-.175584s-.6833301-2.711803-1.6009448-2.487445c-.9567343-1.118854-1.202091-2.680439-.6345208-4.038441.898091-2.4972-.9761858-7.80375-.9761858-7.80375" fill="#673327"/><path d="m67.9230098 86.572055c0 .8096391-.4978548 3.0922359-.5271404 3.9018749-.2440464 8.3987856-.4685692 13.1102991-.4685692 15.3246131 0 2.419163 2.3721316 28.747063 4.1878372 34.785215 1.8157057 6.038151 3.7583154 28.981175 2.5576069 30.785792-1.2007086 1.804617-.2342846 7.198959-.2342846 7.198959s13.0711282-.91694 13.3835077 1.492467c0 0 .8004723-.868167.3709506-6.145453-.7516631-9.423027-2.1866563-14.524729-2.8699864-32.648937-.1269041-3.618989-2.1183232-23.001553-3.6118875-28.776327-.6833301-2.614256 6.2768748 26.883917 8.6880538 35.341231 0 0 4.5978353 18.260774 3.5923639 26.054769-.898091 7.023375 1.4154694 8.037863 1.4154694 8.037863s8.8637678-2.926407 13.0906518-.468225c.310908-2.343398.274726-4.719777-.10738-7.052639-.68333-5.443116-5.40807-22.484554-6.0914-30.132229-.79071-9.03284-2.401417-25.898694-2.9968903-36.765415-.461209-7.444858-2.5789158-14.6930921-6.19878-21.2164449-1.2495179-2.1752952-24.1801229.3219047-24.1801229.3219047" fill="#cbbba0"/><path d="m97.3940598 72.0375712h-1.5033261l.2830939-8.3597668 1.2202322 8.3305028m10.2792372 5.735756-.41976-2.3801437-4.41236-24.8061693c-.965343-2.3064816-3.0004626-3.9938796-5.4471172-4.5164201l-14.6427873-5.2967951v-.1658297h-.0976186l-.1854753.0682828-.1757135-.0682828h-.1073804v.0487734.0975469l-14.6427874 5.2967951c-2.4520748.5384426-4.4839435 2.2443959-5.4373551 4.5651936l-1.5228498 26.6693145-8.5221023-4.7115138s.6638064 3.5702155 4.1487898 10.5253074 11.2847081-2.7020484 11.2847081-2.7020484.5954734-11.6178323.5759496-13.6565619l.2928558 14.183315-.8199961 10.7789293-.2245227 6.3990747c5.2225941-.0585281 10.4061409.2146032 15.6189732.4779797 4.7052156.2438672 9.4104313.4877344 14.1546944.4877344l-1.78642-10.1156106v-2.6825389l.3319032-5.2187576v-.6340547l8.0730566 1.1022797c1.040349.127853 2.084112-.2098136 2.852083-.9226743.767971-.7128606 1.181788-1.7281768 1.130755-2.7743522" fill="#326141"/><path d="m77.9874856 34.1211024c.4392837 2.1752953-.7223775 4.428628-1.6009447 6.2722639-.8785673 1.8436358 1.7083252 7.5989012 2.8992719 7.5989012s9.4201932-5.1602295 9.4201932-5.1602295-2.4892739-.3316593-2.4892739-11.1203433c0-1.7168249-8.2292465 2.370389-8.2292465 2.370389" fill="#f7ae83"/><path d="m78.0167712 41.3298162c2.1097911-.0341841 4.138175-.819346 5.7204489-2.214314.829758-.6438093 1.4349932-2.8386139 1.8059438-4.6822498.2591234-.1285998.4989832-.2927667.7126157-.4877343-.2538083.2243578.1269041 2.2630874.1659516 2.6435202.0542302 1.8753373.5172995 3.7162669 1.3568983 5.394342.2032107.4071994.5513842.7238045.9761858.8876765-.6540445.5267531-1.7278489-.2828859-2.4307027-.5267531-.9399366-.3582047-1.9259205-.5815302-2.9285575-.6633187-1.0700152-.0011926-2.139169.0606946-3.2018895.185339-.8319827.0585183-1.667053.0585183-2.4990357 0-.4181289.0304331-.8383013-.0158511-1.239756-.1365656-.1757135-.1365656-.0780949-.7511109-.136666-.7706203.5286844.2566273 1.1109478.3836949 1.6985633.3706781z" fill="#e6a37b"/><path d="m73.828934 175.417745h-.7419012c0-.546262 0-1.102279 0-1.648542.1913367-.63518.3124556-1.289395.3611887-1.950937.0567105-.151832.1321324-.296012.2245228-.429207.4002362-.595035.4490455-3.492178.273332-7.32577-.341665-7.803749-1.6204685-19.411827-2.8309389-23.460022-.3867063-1.40504-.689854-2.831718-.9078528-4.272553-.5369022-4.135987-1.0933281-9.05235-1.5618973-13.910184h2.2257037c1.4349931 6.906319 3.1140327 13.480978 4.1487897 17.509664.2830939 1.121789.5271404 2.038729.7028538 2.711803 1.3568983 5.43336-.4490455 3.404385.2245228 6.574659.6735682 3.170273 2.3037985 19.402072 2.3037985 20.484843 0 1.08277 5.3592602 2.243578 5.3983076 3.131254-.0135485.110992-.0837655.207008-.1854753.253622-.4415941.229549-.9386989.330925-1.4349932.292641-.8178265-.023183-1.6331609-.101397-2.4404645-.234113-.6459956-.113796-1.2977733-.191952-1.9523717-.234112-.2830939 0-.4588073.048773-.4588073.175584 0 .682828 3.855934 2.03873 3.855934 2.03873s-4.959024.29264-7.1554421.29264m-6.2475893-65.356403c-.2245227-3.345858-.3807125-6.164963-.3904743-7.998844v-.507244c-.007079-.489236.0222877-.978321.0878567-1.463203.1269042-.7608652.2538083-1.0730152.3611888-1.0730152.4197599 0 .5857115 4.9651362.5857115 4.9651362.068333 1.863145.2538083 3.901874.5173785 6.07717z" fill="#b7a890"/><path d="m93.0500329 179.534223c-.3514704-1.877722-.3712933-3.80243-.0585711-5.686982.1871495-1.891049.1871495-3.795934 0-5.686983-.6540445-8.662162-3.6021257-20.367787-3.6021257-20.367787-1.239756-4.301817-3.6314113-14.036994-5.6033067-22.230932-.2342846-1.043751-.4588073-2.116767-.68333-3.199537h1.5228498c2.5380832 9.237689 5.2225942 20.319013 5.9449717 22.572346.7745273 2.506834 1.9195438 4.883957 3.3971267 7.052639v27.098521l-.9761858.448715m6.6185399-3.228801v-.107302h.2538083l-.2538083.117056" fill="#b7a890"/><path d="m89.809096 27.1269918c0 1.5607499-1.034757 7.3745434-1.7571345 8.2817293-.1854753.2341125 0 1.9509375.3026176 1.8826547.3026176-.0682829-1.2104704.4487156-1.7180871-.0585282-.5076166-.5072437-1.5423736-8.3012387-1.2788034-8.6914262s4.4514074-1.4144296 4.4514074-1.4144296" fill="#e1b612"/><path d="m86.0703043 28.9998917c.1952371-4.2725529 1.4642787-8.7792184-5.0859282-9.1889152-1.2279446-.0993446-2.4637867-.0238034-3.6704587.2243578-.3650853-.1576112-.7400891-.29121-1.1226137-.3999422-1.513088.1658297-2.684511 1.0730156-3.5923638 2.9264061-.7419013 1.6582968-.7028538 3.9018749-.6345208 5.9893779 0 .6730734.3611887 1.6582968.4392836 2.2923515.0976186.9754687 0 1.5314859.1269042 2.3021061.3180443 2.8681797 1.5539821 5.5571921 3.5240308 7.6671841.5951575.3329236 1.2708311.4949661 1.9523716.468225 2.1097911-.0341841 4.138175-.819346 5.720449-2.214314.8297579-.6438093 1.4349932-2.8386139 1.8059438-4.6822498 1.2796178-.7930624 2.200329-2.0524257 2.5673687-3.5116874.2147609-1.6875608-.4978548-2.711803-2.0402284-1.9509374" fill="#f7ae83"/><path d="m78.4267693 19.5183358.1659515-.3804328s1.7571345-.9754687 1.4349932-.9754687-.8102342-.5755265-1.2299941.282886l.8395198-1.433939-4.0023619 1.1315437c-.5330269-.081776-1.0776375.0326122-1.5326118.3219046l-1.1518992.8389031s.1073804.6340547.2245227-.2438672c-.8785672.2341125-1.513088 2.2630875-1.5326117 3.775064-.0975894.4934053-.1692743.9915754-.2147609 1.4924671-.1267736 1.5667923-.0546134 3.1433179.2147609 4.6920045l.4295217.2828859s-.7516631-5.3260591 1.3373746-6.828281c2.0890377-1.5022218 6.8333008 0 6.8333008 0z" fill="#e1b612"/><path d="m89.4674309 22.630081c-.6442826-1.3363921-1.5228498-3.3068389-2.5283212-3.7945733-.4685692-1.0632608-3.9047433-1.151053-7.3897267-2.4386717 0 0 3.0749853 1.1900718 3.1042709 2.0094655-.4295218-.6633187-5.5252118-2.4386718-5.2811653-2.0387296 1.3959457 2.2825968 1.1030899.7608656.751663 1.7363343l.0683331.0780375c.1464278-.9754687-.9273766-1.9509374-1.6790397-2.1460312.2733321 1.3071281-1.2592797 1.1998266-2.2940367 2.6142562-1.2885652 1.1803171-2.2842748 3.4336499-.9761858 4.4286279 3.0066524 2.3021062 5.4471169.4487156 7.4092504.595036 1.282016.0616114 2.4444802.7710759 3.0847472 1.8826546.4783311.8974312.7321394 5.1212107.7321394 5.1212107l1.2788034-.7901297.8688054-1.8046171 2.7626059 1.1900719s1.3666602-3.9018749.0878567-6.6039232" fill="#e1b612"/><path d="m71.5251355 32.0433541c-.4197599-.2146031-.5857115-1.9509374-.4099981-2.0777484.1757135-.1268109 2.4697502.1755844 2.7723678.1073016.035805.6570651-.0333956 1.3156342-.2049991 1.9509374-.0878567.2926406-1.6985633.2926406-2.1573706 0m5.1054518-.1950937c-.2025086-.558509-.3432658-1.1374794-.4197599-1.7265796.2830939.0780375 4.0902186-.4096969 4.2659321-.2438672.1757134.1658297.136666 1.9509374-.3514269 2.1460311-.7028538.2536219-3.2116514.5365078-3.4947453-.1755843m-5.8571149-2.3508796c-.3611888.3219047-.0780949 2.9264061.5369022 3.0824811.9078528.2146031 2.5185594.3414141 2.7235584-.3999422.2049991-.7413562.3807125-1.9509374.3807125-1.9509374.3860876-.2376007.8731921-.2376007 1.2592797 0 0 0 .2440465 1.2583547.4783311 2.0387296.2342846.780375 3.0652235.3901875 4.2464083.1463203.5369022-.1073015.5954734-1.2583546.6247589-2.2045593l5.7009253-1.4534483.3123794-.4877344s-5.4959262.9754687-6.2963985 1.0730156c-.7028538-.1755844-3.3971267.3316594-4.4221218.2633765-.4355333.0294022-.8725558.0294022-1.308089 0-.5369022 0-.829758.1463203-.9761859.1170563-.1464278-.0292641-2.9285574-.5267531-3.2799843-.2048484" fill="#26282d"/><path d="m68.3330078 80.65096-.1757134-8.7206903-.4295218 8.6719168h.6052352" fill="#dbdbdb"/><path d="m95.4904975 82.7091989c-5.1152137-2.0777483-11.3920886-4.2335342-17.1613468-4.2335342-.3319032 0-.6442827 0-.9761859 0-1.0445188 0-.7028538.7706203-.8980909 1.4924672-.2121876.6637772-.8460511 1.1007416-1.5423736 1.0632609h-.0878567c-2.5087976-.1170563-5.2323561-.31215-6.4623502-.3999422l-.1952372-8.7206903c5.0371189-.2536219 10.054714-.7120921 15.0723092-.7120921.9696779 0 1.9458637.0195093 2.9285575.0585281.7907105 0 1.5911828.0585281 2.4209408.0585281 2.3140632.1311196 4.6215134-.3535939 6.6868729-1.4046749.0780949 0 .6540445-.1658297.7223775-.2146032l-.0780948 2.3508796-9.0687664.8291484h-4.6368826s-3.2311751 4.2335342-.7223776 4.5164202c2.3623697.2731312 9.0785282 2.7020483 14.1546945 2.9264061l-.2342846 3.989667" fill="#275937"/><path d="m69.8753814 63.3266357h-22.452274c-1.2007085 0-1.513088.4292062-1.513088 1.3559015l2.7723677 14.5247291c0 .9754687.761425 1.3949202 1.6985634 1.3949202h22.3253698c.9761858 0 1.6985633-.4096968 1.6985633-1.3363921l-2.8309388-14.310126c-.0050452-.4424098-.1878413-.8642248-.5072822-1.1705894s-.748712-.471562-1.1912812-.4584433" fill="#9abccc"/><g fill="#f7ae83"><path d="m78.8660529 71.5303275-4.9785477-1.902164h-1.4642788l1.2495179 6.9063185 2.6064161.8291484c1.0812461.2721329 2.2243193.1475257 3.2214133-.3511687l1.9523716.4096968-.4295218-4.331081z"/><path d="m66.4489692 71.5888556.9761858 3.0337077c.2970522.8164679.9752842 1.4359021 1.8157056 1.6582968l5.164023 1.3949203 3.6704588-.2438672c.3597194-.0860618.7148537-.1902448 1.0640425-.31215l2.411179.3316594.6345208-4.5651936-6.8333008-1.8631452z"/><path d="m65.0334997 71.5010635c-.3588826.0421902-.6293532.3461225-.6293532.7072148 0 .3610922.2704706.6650246.6293532.7072148l8.1413898.1463203-.1561897-2.2240687z"/></g><path d="m93.2940794 110.061342c0-.380433.0976186-.829149.1659516-1.26811-.068333.438961-.1269042.887677-.1659516 1.26811" fill="#b7a890"/><path d="m96.4471596 95.61465c.4783311-1.1900718.9078528-2.3118609 1.2104704-3.2385561-.3026176.9754687-.7321393 2.0484843-1.2104704 3.2385561z" fill="#e5e5e5"/><path d="m93.2159845 103.25257c.5369022-1.199827 1.1909467-2.692294 1.8449912-4.2432889-.6540445 1.5509949-1.308089 3.0434619-1.8449912 4.2432889z" fill="#b7a890"/><path d="m95.0609757 99.0092811c.4783311-1.1315437.9761859-2.2923515 1.3861839-3.3946311-.4295218 1.1022796-.9176147 2.2630874-1.3861839 3.3946311z" fill="#222429"/><path d="m98.9071479 86.4452441c.2147609-1.3168828.3709506-2.370389.3709506-2.370389l.1854753-2.2923514-.1854753 2.3021061s-.1561897 1.0535062-.3709506 2.370389" fill="#e5e5e5"/><path d="m73.0382235 45.0853708v-.1950938.0292641z" fill="#e5e5e5"/><path d="m73.0382235 44.890277v-.0097547-.0097547z" fill="#795b4a"/><path d="m74.4146455 64.0679919.0390474-.0585281z" fill="#c06625"/><rect fill="#d3d3d3" height="28.36663" rx="4.83" transform="matrix(-1 0 0 -1 63.325174 28.716212)" width="62.309941" x=".507617" y=".174791"/><path d="m55.7499725 25.3711481 6.7259204 13.4517135-17.5908686-13.1883369" fill="#d3d3d3"/></g><path d="m32.0414808 24.4762591c.2780513.7502285.2780513.6235666.5263113 1.2958492.3033641 1.0205507.4735396 2.0747401.5064506 3.1373191 0 1.4225111 1.2413003 2.7086171 1.5491427 4.0629257.1000695.2471786.1000695.5225363 0 .7697149-.297912.4676749-1.1022746.2825536-1.4796299.6917691-.0924321.2905592-.1654106.586735-.2184689.8866337-.2174626.3928736-.3810745.8122122-.4865897 1.247133-.1610263 1.2177923-.8253449 2.3170393-1.8371244 3.0398868-.9135971.555364-3.20752 1.5686596-3.20752 2.8157926 0 1.2471331.4567985 4.2772767.4567985 4.2772767l1.6087252 11.5944401-6.1369887-8.369432s-4.7070108-5.1833967-6.0774063-5.7485039c0 0 1.6087252-2.0265912 1.3703955-3.3711565-.2383296-1.3445654-1.5193516-2.572212-1.7179596-3.1178327-.1986081-.5456207.2283993-1.3445653-.2283993-1.461484-.8185361-.1658103-1.5243428-.6700947-1.9364284-1.3835383-.1243517-1.7321485-.1243517-3.4707346 0-5.2028832-.1092345 1.159444-1.3703956-2.9229681 1.8967068-7.083326 1.9399086-2.2787359 4.8190444-3.5838963 7.845018-3.5562778 2.5223222-.1071755 5.9582414 1.3543085 6.5342048 2.5916983.5759633 1.2373899.2383296 1.802497.2383296 1.802497.3657404.2776254.6416734.653266.7944322 1.0814982z" fill="#bf7f5d"/><path d="m8.36653766 42.635052c-.07030367-.0364209-.1353571-.0823291-.19336525-.1364581-.14068491-.122205-.22158383-.3001336-.22158383-.48735 0-.1872165.08089892-.3651451.22158383-.4873501.0773461 0 .16436046-.077976.24170656-.116964.26496115-.210678.35621851-.5746802.22237004-.8869771-.13846071-.2983105-.30010217-.5851163-.48341313-.8577361-.28785777-.5293772-.37054479-1.1476336-.2320383-1.7349662.04442125-.2043746.15289514-.3889151.3093844-.5263381.27071135-.185193.65744185-.077976.96682625-.19494.34269566-.159889.56169362-.5062875.56075922-.8869771.00875716-.352606-.01715135-.7052194-.0773461-1.0526762-.16436046-1.5692672.76379275-3.0215704 1.35355675-4.4153915l.3190527-.7407721c.0531118-.1183844.0920588-.2427209.1160191-.3703861.0469383-.3958755.182483-.775825.3963988-1.1111581.2707113-.3411451.6961149-.3703861.9668262-.6920371.2707114-.321651.1160192-.7407721 0-1.1111581-.2534156-.6746771-.0082943-1.4362854.589764-1.8324363.589764-.253422.9668263 0 1.3535568-.536085.3095024-.3064411.5186633-.7009614.5994322-1.1306522.0580096-1.0234351.9668263-1.2183751 1.6436047-1.6862312.6738624-.57283 1.3844051-1.1003089 2.1270177-1.5790142 1.5028004-.7420119 3.1613438-1.1065189 4.8341312-1.0624231 1.6507843-.0170479 3.2784024.3923316 4.7277804 1.1891341.7154514.3898801 2.9971614 2.4464973 2.687777 3.2554984-.3171323.7957575-1.0187736 1.3704839-1.8563064 1.5205322-.6671101.107217-1.4212346-.048735-1.9819938.3313981-.2910309.2419377-.5310171.5402207-.7057832.8772301-.7831293 1.1988811-2.3493878 1.9981352-2.7361183 3.4406914-.1546922.5653261-.6477736.8869771-.8798119 1.4425562-.2302491.6571987-.4080659 1.3318868-.5317544 2.0176292-.140601.8440954-.5199654 1.6293105-1.0925137 2.2613043-.2513748.2339281-.6767783.3508921-.8798118.6238081-.2030336.272916-.2223701.7407721-.5027497 1.0624231-.2803796.3216511-.6381053.5750731-.9184849.9064712-.0721803.0758955-.1223396.1702888-.145024.272916-.0116198.1952747.071242.3841402.2223701.5068441.3093844.302157.7251197.477603 1.0248358.7895071.2997161.311904.4737449.8577361.1643605 1.1696401-.223668.1669411-.4871975.2711936-.7637928.302157-.2707113.068229-.5607592.2631691-.5414227.5458321s.3480575.4483621.3963988.7310251-.2513748.5555791-.551091.6140611c-.2997161.058482-.6091005 0-.9088166 0-.773461.077976-1.0248359.448362-1.7982969-.087723-1.1118502-.7700131-2.0013303-.09747-3.2485362 0-.7154514.058482-1.4212345.233928-2.136686.331398-.5510909.068229-1.81763331.3996271-1.77896026-.38988-.29413516.067518-.60187341.0402438-.87981188-.077976z" fill="#380d09"/><path d="m23.2929243 184.603717c.2096986 1.542289.9847387 2.951682 2.1747401 3.954717.1812942.098542.3737935.174891.5733406.227396.3448369.195946.7423836.278926 1.136796.237283 1.8781846 0 3.8057952.21751 5.476391-.77117.0318766.08902.0715724.175042.1186222.257057.5140295.870038 3.5982064 1.394038 5.1402949 1.918038 0 0 2.3922141.701962.8501257 1.572-1.5420885.870037-4.7943135.879924-4.7943135.879924l-9.9346083.168076s.5140295-2.273963-.1779333-2.966038-3.954073-2.442038-4.280284-1.225962c-.326211 1.216075 1.7101366 3.144.6820776 3.668-1.16176.397096-2.3723988.633276-3.5982064.701962-.0735648-1.695851-.2451949-3.386022-.5140295-5.062038-.3360962-1.572-.9885182-2.966037.5140295-5.417962 1.3147293.118642 2.6195733.286717 3.954073.514113.3459814.118642.8105849.988679 1.4333514.830491.0593111.464679-.1779333.988679-.0593111 1.492905.4547184-.336151.7413887-.80083 1.3048441-.978792z" fill="#380d09"/><path d="m43.209375 103.105562c0 3.546392-4.6152534 28.030133-7.8390717 43.394582 0 0-1.8715783 15.033192-4.2526963 20.099466 0 0-.979884 6.079528-.67612 9.460292.3183197 2.619734.772942 5.221311 1.3620387 7.794267.1803476 1.572985.4817286 3.129906.9014933 4.657074-1.6560039.974284-3.5667776.78917-5.4285571.730713-.3897039.038944-.7822044-.039108-1.1268666-.224085-.1992297-.047343-.3906159-.122803-.5683327-.224086-1.1661696-.945694-1.9349981-2.290404-2.1557447-3.770476-.5585339.165628-.8427002.623541-1.2934468.89634-.0489215-.446427-.0685607-.895547-.0587931-1.344511-.6271257.165628-.9798839-.789169-1.2934468-.906083-1.3326422-.214343-2.6554855-.379971-3.9195358-.487142 0 0 3.2238182-10.814545 3.2238182-17.907328s-1.6658027-26.305652-1.6658027-28.497789c0-2.192138.1273849-3.419735.1273849-3.419735s-4.0763173-14.185566-5.438356-25.672367c-1.3620387-11.4868008-.5095396-14.0101948 1.3620387-20.0897231l-.5095396-2.5331367s1.5286189-8.2814087 24.6244838-2.3675086c-.0787511 1.3193664.0941326 2.6416404.5095397 3.8971335.6859187 1.8121671 4.1155126 12.9677117 4.1155126 16.5141029z" fill="#425b6b"/><path d="m27.3727766 46.9453502c.7781464.6175912 5.0093177 3.9212139 5.7777373 4.6564415.7684197.7352276 5.4762057 7.5581397 5.4762057 7.5581397s4.2117176 8.4110039 5.2330348 9.5187468c0 0 .0778147.6764094-.4279805.843061s-5.9820008 1.2743945-6.4002546 1.705728c-.4182537.4313335.4182538 1.5292734.4182538 1.5292734s3.3752102 6.5386242 3.2876687 7.6463671-1.3131221 2.3429253-1.6730149 2.823274l-.6906049.3136971c-.358289-.4746417-.8602163-.8187638-1.4298441-.9803034-.8462343-.1666516-3.8129176-.9018792-4.2311713-.9018792s-4.4548884-.7646367-6.147357-.5097578c-1.6924685.2548789-6.7017862-.284288-8.0440889.4019244-1.3423026.6862124-3.8907322 2.5095769-4.1533566 3.107562-.2626245.5979851-.1848098.2450759-.0972683.4999548.0251775.2840815-.0045519.570388-.0875415.843061-.1856953.3537698-.588432.5323622-.9726831.4313335-.5933366-.1666516-2.1107222-.0882273-2.4414344-1.8723796-.3307123-1.7841524.4182537-5.352457.2431707-6.2837453-.1750829-.9312883-.9240489-1.960607-1.17694648-3.4800773-.2528976-1.5194704-.97268306-1.960607-1.26448798-3.0585469s.2528976-2.4703647-.25289759-3.0585468c-.57611485-.9051567-1.00312787-1.8982915-1.26448798-2.9409104-.41825372-1.2743946-2.47061497-8.2835644-2.47061497-8.2835644s1.18667333-3.8427896 2.02318076-5.9700482c.73075482-1.7169497 2.14193036-3.0467359 3.89073224-3.6663349 1.089405-.3431063.4960684-.9803035 1.089405-1.107743.5933367-.1274394.9726831-.1666516 1.264488-.2548789s.5057952-1.4410461.5933367-1.8625766c.0875414-.4215305.972683-1.3626218.972683-1.3626218s4.0171811.4705457 7.6452889 5.5681237l6.6336984 9.1364284-1.4492977-11.0872323z" fill="#2650a2"/><path d="m45.1247269 48.7171229c1.1084678-1.3251425 2.4131246-2.9231084 3.1095955-2.5236169.4610441.2728234.0784756.8087266-.2648552 1.0912938-.2945652.254978-.5550039.5464167-.7749465.8671888-.0583139.7846146-.1796837 1.5633428-.3629496 2.3287431-.3040929.701546-1.638178 2.2605371-1.9618898 2.9231084-.3237119.6625712-3.580449 5.2226203-3.9826364 5.9826285-.4021875.7600082.1079039.9743695.1667606 1.3641173.0992079.5839519.1679657 1.1726066.2059984 1.7636087.0686662.8671888.5297103 3.7220914.6670426 4.2579946s1.638178 6.4503259 1.9618898 7.7949557c.2969289 1.6914088.3891386 3.4120217.2746646 5.1251835-.0063342.7802439-.215856 1.5455786-.6081858 2.2215624-.0980945.2046175-1.3733229 2.3969488-1.9030332 2.5625917-.5297103.1656428-1.7755103-.8282141-2.0796033-1.0620628l-1.1084677-.8477014s1.6774158-.8574451 1.6774158-1.9877137-1.4223701-4.725692-1.7951292-5.4857001c-.3727591-.7600082-1.0398016-2.1338692-1.0398016-2.1338692.270123-1.5928108.3720401-3.2092879.3040929-4.8231289-.196189-1.7246339-.4708536-6.0800654-.6964709-7.0739223s-.5983764-2.5918228-.676852-3.0595201c-.2014095-.8219706-.2709311-1.670369-.2059984-2.5138733 0 0 .1667606-.9743694.4414252-2.455411.1799324-.8199688.4428543-1.6197699.7847559-2.3872052.3335213-1.1107812.1667607-1.1107812.392378-1.724634.2121297-.7702261.5430302-1.503188.9809449-2.1728439.4512347-.4969284.7258993-.4969284.9809449.0584622.2550457.5553905-.1079039 1.052319-.2746645 2.7769529-.1667607 1.724634.8828504 1.7538651.8828504 1.7538651.2059984-.2923109 4.1592065-6.3431453 4.6889168-6.6744309.5297102-.3312856.9024693.0682059.8043748.4287226s-2.2757922 3.6928603-2.1776977 3.8974779c.0980944.2046176.5297102 1.0815501 1.5891307-.2728235z" fill="#bf7f5d"/><g fill="#d2c0de"><path d="m13.299128 46.9788799c-.1848402-.2256343-.291853-.5828886 0-.4418672.291853.1410215 3.259025 2.1059203 3.6287055 2.2469417 1.2188238-.0052237 2.4353533-.1026696 3.6384339-.2914443.2626677-.1410214.5934344 1.880286.5934344 1.880286l2.0624277.3196486 5.5841205 8.2920609-.5642491.6204944s-4.2999673-3.3563104-4.6015487-3.544339c-.3015815-.1880286-3.8913732-4.1554319-4.3388811-4.0896219s1.2744247 3.7605719 1.4203512 4.7007148c0 0 .6031628 1.2315873-.3015814 1.4478202-.9047443.2162329-1.6441052.3948601-2.2861817-.39486-.6420766-.7897201-1.6051915-4.3152563-2.3931945-5.2930049-1.4233244-1.5797807-2.964545-3.0566272-4.6112772-4.418672.9063001.2784679 1.7750173.6603534 2.5877631 1.137573.8950159.6863044 1.1965973.2538386.9728433-.1128172-.4265594-.7090957-.8909056-1.396324-1.3911659-2.0589131z"/><path d="m31.3692819 51.09306c.1392952-.0776954 1.3650931 1.3499563 1.3650931 1.3499563-.0849676.9769284-.4043814 1.9156136-.9286348 2.7290484-.9293062 1.3187722-1.9308107 2.5801929-2.9994902 3.7779353v-1.155718c.0561159-1.0400211.4416426-2.0309226 1.095789-2.8164556.3250222-.1942384.4643174 1.6024661.640758 1.379092.2868282-.6937075.3987343-1.4527599.3250221-2.2046049-.1021498-.6701222 0-1.5344827.1485816-1.5733304.1485816-.0388476.6036126 1.4276517.8171986 1.7190091.213586.2913575.1485816-.6312745.1485816-1.0780226 0-.4467482-.7521942-2.1269096-.612899-2.1269096z"/><path d="m15.8820308 80.1301461c1.7069094-.2437086 3.3907183-.6178598 5.0353022-1.1188709 1.2185432-.3279449 3.2024523.0578727 2.5075806.3375904-.6715563.2372662-1.3791486.3675968-2.0946858.3858175-1.0070604.1157452-6.6365284 1.2346161-6.4653281 1.784406.1712003.54979 4.8338902-1.2249706 4.5418427-.8873803-.2920476.3375904-3.0211814 1.2828433-4.0282418 2.1219964-1.0070605.8391531-2.0946858 1.3310704-1.6918616 1.6107881s1.1077665.5015628.5840951.8873803c-.5236715.3858176-.7552954.6751807-1.2286138.5015628s-1.782497-.6655352-1.9335561-1.7265334c-.0936273-1.7495131-.0093084-3.5036009.2517651-5.2374728.1712003-.7812805-.4632478-1.2828433-.6948717-2.2280962-.2242325-1.0685821-.5616652-2.1124751-1.00706042-3.1154765-.4387287-.6758353-.71400344-1.4371334-.80564836-2.2280962.27436896-.711629.23065952-1.5000693-.12084726-2.179869-.64434902-1.276935-1.18636787-2.5989573-1.62136732-3.9546296-.17120028-.617308-2.48743932-5.4593179-2.52772174-6.0476896.42030623-2.1750297.9785806-4.3235124 1.67172035-6.4335072.18127088-.4051084.35247116-.1350361.4531772.2314905-.53599468 1.1765772-.83333075 2.4400971-.87614259 3.7231391.17120028 1.562561 1.00706045 5.0156278 1.00706045 5.0156278s.92649562 3.0672493.92649562 3.5688121c.07258717.6498186.19033881 1.2942777.35247116 1.9290876.34079293.4190351.62187783.8796247.83586017 1.3696522.31396357.7662523.51069408 1.5719309.58409507 2.3920686 0 .9645438.29204753.5015628.81571897 1.6686608.5236714 1.167098 2.0946857 1.2731978 1.7925676 1.7265334s-.1712003.5594354-.4632478 1.0609982c-.2834524.412478-.3712684.9206336-.2416945 1.3985885.1208472.6076626.7049423-1.5046884 1.0574135-.9645438.3524711.5401445.7552953.4436901.2819769 1.167098-.4733184.7234078-.5740245.5015628-.5236715 1.6107881-.0207341.733325.1415324 1.460803.4733185 2.1219964.2316239.3375903 1.6213673-1.6204336 2.0946857-2.1219964s1.2789668.1157453.7552953.7330533c-.5236714.617308-.3424005.8391531.3021182.8970258z"/><path d="m37.0993697 66.4237862c.3287319 2.0833065.2850192 4.2158523-.1287517 6.2812138-1.5034466-2.1538776-3.1314521-4.2018139-4.8741708-6.1314233-.2758965-.2396648 2.9428956 2.556424 3.1544162 2.865991s1.2415341 1.6876393 1.2415341 1.6876393c.139799-.5300227.0768015-1.0988693-.1747344-1.5777929-.3853698-.7503047-.582023-1.5975562-.5701861-2.4565638.1379483 0 .9932273.3495111 1.0300135.9986032.0367862.649092 0-1.4979047 0-1.8074717s.3034861.019972.3218792.1398044z"/></g><path d="m32.7165383 106.672891c.6379918-3.521947 1.5136288-6.9904405 2.6201144-10.3785581.2198698-.4092952-1.8322478 12.7563691-1.9330215 17.2975971-.1007736 4.541228 0 17.161165-.1374186 21.127431s-2.3452773 26.243622-2.4826958 28.260863c-.1374186 2.017241.8336727-23.173908 1.2459285-26.984252.4122558-3.810343-.0916124-16.985753 0-19.763113.0916124-2.777361.5496744-5.428035.4122558-7.182157.0136002-.800616.1057115-1.597536.2748372-2.377811z" fill="#364b5e"/><path d="m18.5473012 137.55s.0916562 1.593986.2225937 3.93c-.1490857-1.29958-.2235218-2.613784-.2225937-3.93z" fill="#141414"/><path d="m18.3777015 141.48c.7871352 6.596588 2.6459123 19.034208 2.5700439 24.051877-.1138027 6.654708-.7871352 17.213123-.7871352 17.213123-.4362436-.494018-3.7934227-.484331-3.7934227-.484331s.256056-1.423933 1.4320171-5.463254c1.2189862-5.231209 1.8552609-10.586374 1.8967113-15.963549 0-2.208549-.8440365-13.231922-1.3182144-19.353866z" fill="#364b5e"/><path d="m28.2655113 83.5631913-.1139488-2.3323461c2.0026443-.0611623 4.0047985.1365675 5.9564132.5882466.2799869.6294218.4784025 1.2917938.5904618 1.9711421-.1139488.2373626-5.3763103-.4644052-6.4329262-.2270426z" fill="#364b5e"/><path d="m22.7272237 89.52936c.2633742.5280861.4899689 1.074078.6781355 1.6340033.32938.7631872.8718883 1.5557278.8137624 1.8492613-.112158.5981536-.2577049 1.1894253-.4359441 1.7709857-.1065642.2152579-1.0462661 1.0762897-1.1334549 1.3600387-.0871889.2837491-.4359442.0782757-.5425084-.0782756-.1065641-.1565512-.3681306-.802325.4262566-1.7807701-.7090904-.0556401-1.4142947-.1536563-2.1119074-.2935335-.4456319-.1467668-.9687649-.1859046-.9687649-.3228869 0-.1369824-.4553195-.6359894.1453147-.7925406s1.5597115.2348268 1.7340891.1565512c.1743777-.0782756.7071984-.2152579.6781354-.3815936-.100574-.3412064-.2995708-.6443876-.5715712-.8708161-.4286489-.289177-.8788602-.544338-1.3465832-.7631872-.3875059-.1565513-.9203266-.5283604-1.1043919-.5968516-.1840654-.0684911-.3487554.0587067-.8234502.2446113s-.5521959.2935335-.881576.410947c-.3293801.1174134-1.1237672 1.7318478-2.3637863 2.1427948-1.240019.410947-2.3540986.2250424-2.5672269-.2054735-.2131282-.4305158-.1259394-.6262049.4843825-.7729716.4062601-.0899102.7730936-.3094651 1.046266-.6262049.2034406-.1761201.5618836-.2641802.7750119-.4892226.3019371-.5622797.5423175-1.1561123.716886-1.7709857.1755498-.4109439.2063231-.8702478.0871889-1.301332-.0789552-.2416656-.0615803-.5048923.0484382-.7338338l-.1162518-.410947c-.1743777-.3815936-.193753-.3424558-.193753-.3424558-.687823-1.6633567-4.107563-4.1486074-7.94387186-7.6025187-2.61497804-2.4372985-5.04079179-5.0738046-7.25604884-7.8862677 0-3.0918867 4.28194071-9.9605715 4.77601079-13.1698715.54250832-3.6006781 3.87505946-1.7612013 3.87505946-1.7612013 3.69099415 1.8003391 3.96224835 4.2855897 3.96224835 4.2855897s-2.1603457 3.316929-2.70285402 4.2953742c-.54250833.9784451-2.74160457 4.4225719-2.9062946 4.9802857-.16469003.5577137 1.93752973 2.4852506 4.65975902 5.6651973 2.4937105 2.7910023 4.7371365 5.8001207 6.7038529 8.9919108.2325035.3228868.5134453.7436183.7556365 1.1545652.5618837.9197384 3.1775488 3.2973601 3.6038053 4.0116251z" fill="#bf7f5d"/><path d="m28.3585451 21.0285258c-.7538803-.0417544-1.5033862.1387255-2.1546574.5188383-.6513654.3852609-1.116783 1.0180319-1.288859 1.752303-.1082248.5090489-.0590317 1.0376767-.206611 1.5369362-.2072468.500289-.4748527.9736529-.7969281 1.4096739-.3300447.4444902-.4286123 1.0184074-.2656427 1.5467255.0634232.2143555.257653.3642292.4820923.3719973.1017602-.0087424.1997722-.0423705.2853199-.097894.4045217-.2580558.8251545-.4902085 1.2593432-.6950476.2978691-.0758762.5853151-.1876495.8559598-.3328397.0750691-.0734316.157486-.1390353.2459654-.195788.3148358-.146841.6887033.1076834.9838619 0 .1945297-.1007038.3707737-.2330528.5214467-.3915761.4217723-.3181822 1.0048274-.3181822 1.4265997 0l.3640289-.5873641c.0249873-.0562204.0660467-.1038834.1180634-.1370516.051878-.0111162.1055399-.0111162.1574179 0 .3148358 0 .6001557.1566304.9149915.195788 1.0330549.1076834.8264439-1.2138859.747735-1.8404076-.0167655-.2383695-.0802711-.4711673-.1869338-.6852582-.1394149-.2237543-.3195984-.4196366-.5312853-.5775747l-1.0428936-.8810462c-.4813735-.5174122-1.1214044-.8616442-1.8201444-.9789402" fill="#380d09"/></g></g></svg>