<svg height="278" viewBox="0 0 426 278" width="426" xmlns="http://www.w3.org/2000/svg"><g fill="none" fill-rule="evenodd"><rect fill="#d8d8d8" fill-opacity=".01" height="278" rx="2" width="445" x="-19"/><g fill-rule="nonzero" transform="translate(117.28125 34.055)"><path d="m14.7422665 198.075h-2.2266415l23.1422982-81.315h8.1467643z" fill="#402a1b"/><path d="m72.8671085 198.075h2.2266415l-23.1422982-81.315h-8.1467643z" fill="#402a1b"/><path d="m2.78125 41.7h82.046875v82.705h-82.046875z" fill="#e6e6e6"/><path d="m0 38.92h88.304688v3.475h-88.304688z" fill="#5b361e"/><path d="m0 124.405h88.304688v3.475h-88.304688z" fill="#5b361e"/><path d="m35.8822161 53.3392809c.1336716.016022.2689737.016022.4026453 0 .1275645-.0288831.2487144-.0785972.3579069-.1468676.0984219-.064158.182098-.1462091.246061-.2412825.0597423-.1104928.0904224-.2327922.0894767-.3566785.0114328-.1441804-.0278563-.2878997-.1118459-.4091311-.0720625-.1008841-.1727968-.1808316-.2907994-.230792-.121783-.0607793-.2545031-.099903-.3914606-.1153959h-.4361991-.626337v1.5211287h.1453997.6151524zm-.3914606-2.3813532h.2796147.2572456c.205855-.0558309.396552-.1524172.5592295-.2832447.1550701-.1261596.2413358-.3111026.2348764-.5035461.0009475-.1171986-.0298395-.2327049-.0894767-.3356973l-.2236918-.2098109c-.0970077-.0519541-.2030187-.0874658-.3131685-.1049054-.1261858-.0159867-.2540904-.0159867-.3802761 0h-.3914607-.2907993v1.468676zm2.5053482-1.0490543c.0163471.1394537.0163471.280168 0 .4196217-.0337436.1321026-.09452.256801-.1789535.367169-.0877945.12241-.2021289.2260748-.3355377.3042257-.1477767.0973158-.3152716.165155-.4921219.1993203.164943.0244639.3263237.0667057.4809373.1258866.1484499.0664278.2844305.1549989.4026453.2622635.1149697.120134.2059013.2587285.2684302.4091312.0661551.1824436.1001548.3737832.1006728.5664893.0010288.2569103-.068293.5097663-.2013341.734338-.1229466.2090189-.2998451.3857611-.5144912.5140366-.2298145.1377941-.4833576.2371772-.7493676.2937352-.2777755.0670903-.5632048.1023163-.8500288.1049054h-.3690915-.4809374-.5256757l-.4809374-.0734338v-5.486558h.3579069.4473836.4809374.5033065c.2698418-.0003408.5392316.0207153.8052905.0629474.244723.036565.4822314.1072857.7046292.2098109.4216365.1995118.6860773.6061203.68226 1.0490542" fill="#026a9d"/><path d="m10.3853709 84.087191h1.381456l-.4767857-1.2286142-.1956044-.8641948-.1833791.8746068zm1.6626373.8641948h-1.9804945l-.50123623 1.2286142h-1.22252747l2.3228022-5.56h.9413462l2.2983516 5.56h-1.3325549z" fill="#402a1b"/><path d="m75.09375 67.0517301c-.2101021.1349457-.4435306.2274237-.6876509.2724286-.2810698.0588883-.5671229.089305-.854018.0908413-.3433812.00155-.6845751-.0560094-1.0092941-.1702996-.3137618-.1153359-.5980866-.3015703-.8318357-.5448573-.2608932-.2729793-.4580614-.6028301-.5767395-.9648514-.1528672-.4679436-.2241959-.9597404-.2107317-1.4529527-.0132249-.5024647.0657798-1.0030085.232914-1.4756551.1445841-.3621857.3596813-.6904654.6321952-.9648514.2407418-.2344337.5283396-.4125875.8429269-.5221549.3043579-.1024259.6223698-.1560324.9427472-.1589167.2861083-.0040622.5719779.0187356.854018.0681072.1959986.037512.3888323.090646.5767395.1589167l-.2329141 1.0102561c-.1412653-.0777707-.295495-.1278194-.4547368-.1475655-.2142077-.0140947-.4290787-.0140947-.6432863 0-.4265108-.0119434-.8349859.1761802-1.1091144.5108037-.3144843.4602597-.4634207 1.017827-.4214634 1.5778158-.003062.2832759.0305026.5657218.0998203.8399883.0602567.2382034.165784.4619209.310552.6583692.1332389.1812941.3086096.3256605.5101926.4199942.2228068.103038.4654041.153471.7098331.1475655.2134883.0073543.4267894-.0194548.6321952-.0794584.1605825-.0393501.3140626-.1044803.4547369-.1929702z" fill="#e16f0d"/><path d="m73.2457095 101.814186h-.3317359-.2613678v4.095422h.5428407c.2499.010249.4982441-.049126.7237876-.173046.1866139-.110083.3457474-.272855.4624198-.472992.1244643-.20715.2069043-.443671.2412625-.692184.0492437-.261497.0728465-.528494.0703683-.796012.0003396-.24011-.0198625-.479678-.0603157-.715257-.0382942-.232791-.1132378-.455623-.2211573-.657575-.1113827-.196929-.2632886-.359371-.4423146-.472992-.2228843-.133615-.4725695-.19729-.7237876-.184583m-1.628522-.969058h.3618938.4121568.4121568.3618938c.4111404-.010362.8203245.067902 1.2063126.230729.3130358.130814.5928399.348848.814261.634502.2139516.284774.3716982.619287.4624199.980594.0950982.406254.1424298.825278.1407364 1.245931.0001499.390193-.0472204.778496-.1407364 1.15364-.0869426.371125-.2410831.717048-.4523673 1.015204-.224272.311568-.5103996.55685-.8343662.715257-.406812.196487-.8455287.290889-1.2867335.276873h-.3317359-.4222094-.4121569-.2915255z" fill="#7fc6b1"/><path d="m34.765625 113.285h3.4437647v.973785h-2.3067757v1.28791h2.088124v.973785h-2.088124v1.350735h2.3395735v.973785h-3.4765625z" fill="#ca005d"/><path d="m56.8533526 82.705 15.4591474-.2117058c-.3727412-11.010294-7.7097359-20.6302374-18.3908681-24.1132942l-4.5544444 14.4171671c4.2841306 1.5558002 7.221977 5.443998 7.4861651 9.9078329" fill="#e16f0d"/><path d="m49.8055984 67.1228766 3.0381516-9.788814c-10.5865813-3.0623339-21.9610361.7884565-28.5078125 9.6512415l8.4687152 5.9896959c3.9308654-5.2113002 10.6265441-7.5247525 16.9374304-5.8521234" fill="#026a9d"/><path d="m72.3125 83.4-7.4021344.0943642c-.0537754 1.7324988-.3481936 3.4500395-.8752889 5.106153-1.795195 5.6353801-6.1875357 10.1412798-11.8866392 12.1939548l2.431358 6.930528c10.5712526-3.713318 17.644972-13.4167579 17.7327045-24.325" fill="#7fc6b1"/><path d="m50.2533651 96.9749516c-5.3721198 1.5215926-11.1396896-.2589895-14.7055776-4.5399516l-5.0629203 3.7763192-4.7583047 3.5461834c3.3088099 4.1902634 7.8181774 7.2801914 12.9304043 8.8602284 5.0697884 1.589692 10.5076198 1.589692 15.5774082 0z" fill="#ca005d"/><path d="m36.2850528 79.8533228c.2452431-.7797242.5797752-1.5275412.9967335-2.2281098l-13.2862451-9.515213c-6.176354 9.2752868-6.0198853 21.4711395.3923313 30.58l13.1590025-9.9888208c-1.7090082-2.60696-2.1723555-5.8559366-1.2618222-8.8478564" fill="#402a1b"/><path d="m47.7498302 77.145-1.8592052 5.56 6.2578125-.0837665c-.2518787-2.4380514-1.9454479-4.5465325-4.3986073-5.4762335" fill="#e16f0d"/><path d="m41.0234375 79.0180669 4.6354167 3.3528048.4725424.3341283 1.8451659-6.0834396c-2.5722647-.5817671-5.2478294.3404093-6.953125 2.3965065" fill="#026a9d"/><path d="m39.9506219 79.925c-1.379446 2.1503787-1.3481601 4.8274098.0812231 6.95l3.6666421-2.5195084 1.4968254-1.0675884-.4409253-.2882488z" fill="#402a1b"/><path d="m41.0234375 87.1865549c1.7214159 2.0146499 4.399981 2.8907469 6.953125 2.2742072l-1.598548-4.7758351-.4024317-1.284927-.3241811.2501628z" fill="#ca005d"/><path d="m47.8976351 88.96c2.4185275-.9768155 4.0551985-3.1175622 4.2508024-5.56l-6.2578125.0732957z" fill="#7fc6b1"/><path d="m37.189503 111.895-3.1191905-6.255 4.5250228 1.473813 4.5140397 1.485417z" fill="#ca005d"/><path d="m70.2265625 100.351484-6.2578125 1.118516 2.5926711-3.8225 2.5822587-3.8225z" fill="#7fc6b1"/><path d="m70.2265625 65.5024891-.9028685 6.0825109-2.677472-3.4800435-2.677472-3.4699565z" fill="#e16f0d"/><path d="m35.6594765 54.905 6.0592735 3.076042-4.5195312 1.5780439-4.5195313 1.6009141z" fill="#026a9d"/><path d="m16.6875 83.8103886 4.0666213-4.5803886.0574111 4.5175.0478426 4.5175z" fill="#402a1b"/><path d="m142.912645 193.21c1.408201 4.05177 6.119854 15.202327.169407 16.5784-6.871601 1.583576-6.077502-15.868521-6.077502-15.868521z" fill="#1e2020"/><path d="m136.790836 136.169559c0 4.521013-.524406 7.953633 1.937095 13.249078s2.75046 10.517633 2.333075 19.214302c-.239954 7.020017.006761 14.047866.738451 21.035266.267554 2.019804 3.424697 11.511837-.577918 11.867657-4.002615.355821-4.591235-6.080343-4.901598-10.779265-.310364-4.698923-3.927701-15.593307-6.110945-23.400425-1.937095-6.938498-3.039419-14.996784-2.782567-17.382874.353172-3.233779-5.051429-15.143298-5.051429-15.143298z" fill="#565656"/><path d="m115.574931 193.482881s3.143861 18.167558-5.708307 16.267888c-6.126774-1.322422-.246788-16.540769-.246788-16.540769z" fill="#1e2020"/><path d="m119.109295 135.756359c-.724036 1.948963-1.131061 3.999292-1.205893 6.074516.107669 1.545271 2.153381 7.268105 1.593502 12.362172s-2.659426 19.822103-3.456177 25.758077-1.001322 8.824033-.581413 12.255602c.419909 3.431568-1.076691 10.859528-3.951454 10.731644-2.874764-.127885-3.154704-6.117144-1.830374-10.998071 1.324329-4.880926.516811-9.87908.107669-13.140136-.409143-3.261055-1.938043-24.063607-2.024179-26.802467-.139969-4.625158 1.076691-8.195268.839819-10.657045s-2.217983-9.985651-2.217983-9.985651z" fill="#565656"/><path d="m137.414621 88.5090887c1.965112 5.8067691 4.491684 18.0796843 4.740022 31.7351633.194352 11.071147 1.079732 51.420748 1.079732 51.420748s-28.073026 0-38.870344-5.232473c0 0-1.079732-40.168804-.669434-48.995944.237541-5.126122.205149-24.6096404 5.301483-31.256583z" fill="#579930"/><path d="m142.193338 120.647021c-.244325-13.506289-2.730068-25.7252605-4.663423-31.486537l-2.294531-.200484c1.720899 5.7085176 3.420551 17.030587 3.622385 28.247138.191211 10.984412 1.062283 51.007346 1.062283 51.007346s-22.849707 0-34.927864-3.914714v2.173669c10.537847 5.275894 38.242187 5.191561 38.242187 5.191561s-.881695-40.033567-1.062283-51.017979" fill="#39870c"/><path d="m125.020385 28.483827c-.964131-.2695493-1.835787-.821943-2.513561-1.592916-.961569-.8693206-1.801122-1.8780327-2.493532-2.995948-1.017866-1.4496417-1.581436-3.1974766-1.612284-5.0002794 0 0 .270383-4.0403102.250355-3.7027386 0 0 4.356171-2.8482604 4.125844-9.75792927l3.074355-5.43279306c-2.028932-.03357492-4.013741.62512952-5.658015 1.87774207-2.453475 2.02542964-5.007093 5.86530667-5.427688 15.91861106-.420596 10.0533045 2.673787 13.1125472 2.673787 13.1125472l2.443462 3.839877z" fill="#1e2020"/><path d="m125.539999 28.663756c.824468 0 1.927327-.848982 2.965943-1.5281677 2.48411-1.6342904 4.946806-4.4677679 5.086002-7.4285928 0 0 .117781-4.0645015.096366-3.7249087 0 0-14.080196-3.9902155-13.373509-13.19105836l6.006836-2.79102844s4.604171.21224551 7.01333 2.49388473 4.721952 6.36736527 4.282949 16.49147607c-.439002 10.1241108-4.122338 12.8514655-4.122338 12.8514655l-2.955235 3.6081737z" fill="#1e2020"/><path d="m124.816937 27.6091103-.355999 7.1408897 5.5625-3.7855319c-.840053-2.371673-.87901-4.9400056-.11125-7.3344681z" fill="#e38f50"/><path d="m125.851562 27.9005751-.360323 6.8494249-5.202177-4.1261596c1.091041-2.1884668 1.387044-4.6398295.84451-6.9938404z" fill="#e38f50"/><path d="m130.023438 25.4286067s-2.560516 2.4623933-4.569197 2.365618c-2.00868-.0967753-4.326389-2.7742247-4.326389-2.7742247l-.143477 1.7849663c.874061 1.5591721 2.59464 2.4853396 4.414683 2.3763708 1.291294.053764 3.311011-.9892585 4.580233-3.096809z" fill="#f19c56"/><path d="m136.082084 32.8244391-3.779005-1.3380242-.611631-1.6014149-6.40028 3.2976503-2.916168 59.2523497s16.219139-1.2010611 15.989778-1.7067711c-.229362-.50571-2.282694-57.9459323-2.282694-57.9459323" fill="#39870c"/><path d="m114.079734 32.4080437 3.767287-.9817701.751341-1.5412736 5.862576 3.8742973-2.825466 59.3707027s-15.524184-2.6813938-15.249045-3.1670005 7.693307-57.5549558 7.693307-57.5549558" fill="#39870c"/><path d="m132.576386 23.432203.706859 7.7458278s4.019599 6.4807795-.654108 7.7043507c-5.066333 1.1790143-10.368158.9310462-15.297689-.7154781-4.051249-1.5657563 0-7.7250892 0-7.7250892l-1.909573-8.8968142" fill="#1e2020"/><g fill="#683328"><path d="m105.370727 62.4397648c1.103246 6.4072017 1.198284 12.9517338.281565 19.3892151-2.346378 18.4250521-3.441354 78.2031671-3.441354 78.2031671l14.224265 1.207853s3.910631-89.2751508 1.877103-97.2851216-1.51211-33.3748784-1.51211-33.3748784l-13.025006 10.1607963z"/><path d="m133.554849 31.275s9.604184 4.1367912 11.041114 5.3672214 3.782506 13.6195896 4.33192 19.4641331 1.891253 12.5588738 1.954647 14.8500197-10.565659.9122155-10.565659.9122155l-.327535-14.054483-7.184648-10.6071569z"/><path d="m141.947229 64.1682039c-1.650557 6.2986904-2.370158 12.8025128-2.136192 19.3071113.181577 7.8650739 5.34048 78.4596848 5.34048 78.4596848h-16.811831s-2.606154-89.7106677.21362-97.5120569c2.819773-7.8013891 4.731665-33.1479431 4.731665-33.1479431l13.425967 11.4526515z"/></g><path d="m133.209393 19.4585051s.115568-4.1091211.104011-3.776529c0 0 2.068657-8.64739305-7.569668-11.5119761l-1.282798 24.322134c3.062537.1394741 8.48265-4.8386777 8.702228-9.0336289" fill="#e38f50"/><path d="m118.943352 18.7464354s.264215-4.107481.244643-3.7642972c0 0-1.12536-11.23926926 7.35888-10.79956503l-1.086218 24.31242683c-.967364-.1559748-1.868466-.631044-2.583436-1.3620107-2.103935-1.8982353-4.100227-5.4480427-3.973012-8.3865539" fill="#e38f50"/><path d="m118.288635 9.90813457s8.903749-1.7928997 15.541479 1.31479313c6.637729 3.1076928-2.308776-7.03034006-2.308776-7.03034006l-7.642474-1.41258764-5.675739 3.70532605z" fill="#1e2020"/><path d="m107.078125 71.7994735s-3.604853 5.0644245-7.1989763 3.7322607c-3.1714608-1.3797951-4.7223555-5.0771188-3.5190227-8.3893293 1.0728727-2.4661545 3.647767-3.3028855 4.8923-3.8974049z" fill="#683328"/><path d="m116.8125 30.58s-9.886408 3.2200435-11.418697 4.2933914c-1.532288 1.0733478-5.01667 13.4061144-6.108163 19.2451267-1.091493 5.8390122-3.0435864 12.4723019-3.3269548 14.8122001-.2833684 2.3398983 10.3586888 1.9320261 10.3586888 1.9320261l1.63724-14.135991 8.112732-10.0358023z" fill="#683328"/><path d="m150.555935 59.4258387s2.761358 20.0250512-7.767637 19.0764962c-10.528994-.9485551 1.053954-22.9023349 1.053954-22.9023349s1.612548 5.8178043 6.671525 3.8258387" fill="#402a1b"/><path d="m132.848569 59.6545486 25.854389.0138017.008813 16.5414344-25.854389-.0138017z" fill="#01689b" transform="matrix(.24987305 -.96827861 .96827861 .24987305 43.57637 192.113569)"/><path d="m156.073458 66.3225744c1.081689.449755-.290777 8.6690273-2.896136 8.7364906-2.605359.0674632-2.791456-3.5305767-1.558563-5.9817413 1.232893-2.4511647 2.326214-3.6542593 4.454699-2.7547493" fill="#e38f50"/><path d="m105.177715 62.2766732c1.136452 6.4306172 1.234351 12.9990667.29004 19.4600743-1.074222 8.3157257-1.922857 25.0322485-2.502936 40.9086915-.708987 19.417539 5.252944-21.437983 5.252944-21.437983s-.526369-16.7590588 1.579106-25.3406326c1.976568-8.0605116 2.148443-43.8968234 2.148443-43.8968234l-7.584005 4.4556126z" fill="#4e1003"/><path d="m101.812503 74.365c2.156908-2.6746259 3.645462-5.8624466 4.333341-9.2800891.746394-3.6631518-.294636-7.4735165-2.781255-10.1799109l-3.239589 17.2375487z" fill="#683328"/><path d="m101.440613 47.26c-1.246436 1.7581871-3.1939934 12.3283656-3.7949539 13.6864862-2.1144906 4.8744947-3.7949543 10.9491889-.6454761 12.9916338 7.489748 4.8534385 9.69327-.9264699 10.616969-6.674794.923698-5.7483242-2.581905-16.2237502-1.802882-19.7822366z" fill="#683328"/><path d="m100.932136 45.8619241c-.129512.2451774-.147288.5281715-.049346.7855764.097942.2574048.303413.4677011.570378.5837712.563125.1214113 1.138689-.151157 1.361496-.6447604.222807-.4936035.027698-1.0638886-.46153-1.3490097-.277794-.0944192-.584976-.0814301-.852301.0360392s-.472292.3295315-.568697.5883833" fill="#e38f50"/><path d="m108.46875 38.3285106-3.919729 11.7114894-.779361-.2022894c.022192-.1948087-.113083-.3751663-.317497-.4233072s-.415849.050564-.496248.2316647l-.744977-.1916426 2.911143-11.9244255z" fill="#1d2121"/><path d="m103.630859 33.5786196c-.239429 1.8560575 1.013716 3.5733259 2.844389 3.8978557 1.830673.3245299 3.590952-.8585381 3.995481-2.6853277.404529-1.8267895-.689864-3.6507537-2.484054-4.1400339-2.004655-.3974439-3.951429.9109658-4.355816 2.9275059" fill="#402a1b"/><path d="m102.929105 33.0687868c-.082025.2608247.063395.5377811.329502.6275453l6.672409 1.7431816c.272766.0385307.531199-.1295749.597221-.3884804.08886-.2584256-.053335-.5379751-.319204-.6275454l-6.672409-1.7531426c-.278376-.0384297-.541366.1340527-.607519.3984415" fill="#1d2121"/><path d="m103.089714 49.1635424c.094024-.2708216.393788-.4190566.674769-.3336767s.440153.373069.358295.6475876c-.081858.2745185-.37473.4352105-.659256.3617172-.292296-.0900742-.457884-.3893606-.373808-.6756281m-.812068-.2126977c-.236874.7320366.176831 1.5128528.928077 1.7516283.781537.1641097 1.554812-.3084769 1.740144-1.0634886.126641-.4626424-.010617-.9557211-.360072-1.2934979-.349454-.3377768-.858014-.4689355-1.33411-.3440698-.476096.1248656-.847397.4867855-.974039.949428" fill="#1d2121"/><path d="m103.640983 43.6146503c-.146324.3594617.127251.7388086.6128.8497251.2372.0383805.48533.0053906.689514-.0916733.204184-.097064.347596-.250204.398518-.4255507l1.00049-2.7708426c.147375-.3567626-.119767-.7349058-.600294-.8497251-.496083-.0812941-.989604.1439463-1.113045.5079878z" fill="#5b361e"/><path d="m104.992188 47.955c1.62165-1.3198247 1.579801-2.9158918 2.008753-4.2459477.428953-1.3300559 2.040141-3.284215 1.255472-3.386527-.78467-.102312-.847444.4297104-1.517028 1.3198247-.416337.7091527-.585271 1.5315773-.481264 2.3429447z" fill="#e38f50"/><path d="m103.700524 38.9964639c1.823677.4929338 1.287854 2.1431905.94004 3.15049-.347815 1.0072995-.131606 4.1792214-1.466462 4.0077661-1.334856-.1714552-.629827 1.135891-.629827 1.135891l-.103404.664389c-1.100967-.5467262-1.752392-1.8571785-1.598067-3.2147857.357215-2.2182021.71443-6.3438437 2.820118-5.7651823" fill="#e38f50"/></g></g></svg>