<svg height="311" viewBox="0 0 498 311" width="498" xmlns="http://www.w3.org/2000/svg"><g fill="none" fill-rule="evenodd"><rect fill="#d8d8d8" fill-opacity=".01" height="311" rx="2" width="498"/><g transform="translate(108.9375 32.655)"><g fill-rule="nonzero"><path d="m24.9 104.9625h7.003125v122.0675h-7.003125z" fill="#545454"/><path d="m125.345463 146.736947c-5.419423 3.999119-9.701067 11.997356-11.507541 21.445274-1.8963 9.997797-4.860514 30.633249-6.806716 35.152253-3.393378 7.998238-5.798683 6.268619-6.627067 10.997577-.399221 2.249504 3.862462 4.688966 8.243911 8.608103 5.299657 4.748953 7.64508 8.488129 9.222002 6.778506 1.806475-1.929575-4.620981-4.828936-4.910416-19.995594-.089825-4.499008 8.094203-23.794756 12.415769-33.742564 4.321566-9.947807 10.768983-20.55547 8.912606-27.503938-.878286-3.249284-3.513144-5.828716-8.98247-1.809602" fill="#275937"/><path d="m116.916829 227.05947s-3.867434.077625-5.520762-1.736859c-1.653328-1.814485-3.238976-8.393204-4.689264-11.23622-.870121-1.701621-1.838632-3.350732-2.900576-4.938891 0 0-2.958587.747141-3.461354 5.045625-.6284577 5.045626-1.0732126 8.829845-2.0304026 11.876626l-.2707204.80536 1.3245962.397828s2.1754318-6.947438 3.4710218-7.248235c.966859-.223172 2.175432 1.212891 3.567709 3.706594 1.392276 2.493703 2.504163 6.180891 3.287319 6.627235 1.595316.892687 10.964176 4.046203 12.414464 2.445188.696138-.766547-5.240374-5.744251-5.240374-5.744251" fill="#275937"/><path d="m125.68897 150.98204c-2.823107 6.514698-2.604415 16.160883.636193 26.078933 3.399656 10.421504 9.274501 31.747829 9.84111 37.003892.994052 9.25349-1.988103 8.830588-.308156 13.774509.785301 2.336028 5.884786 2.53741 11.839155 4.088049 7.206874 1.88292 11.242723 4.269293 11.779511 1.862781.636193-2.728722-6.640265-2.285682-14.662261-16.533439-2.385724-4.229016-2.862868-26.844184-4.065671-38.433702-1.202802-11.589518-.835003-24.870643-6.073655-30.549608-2.455307-2.648169-6.153179-3.796045-8.946464 2.708585" fill="#275937"/><path d="m158.50663 229.276882s-3.591055 2.005457-6.125918 1.123056c-2.534862-.882401-7.534174-6.52776-10.411042-8.563299-1.707974-1.225168-3.48827-2.346903-5.331259-3.359139 0 0-2.383977 2.226057-.553243 6.67817 2.112385 5.234241 3.711763 9.154908 4.436009 12.61432l.181062.92251 1.458551-.280764s-1.66979-7.891471-.613597-8.844062c.754423-.691883 2.685747.070191 5.341317 1.794883 2.655571 1.724693 5.653146 4.742904 6.628867 4.783013 2.011796.050137 12.483192-1.644474 12.9962-3.940721.241415-1.113029-8.047183-2.927967-8.047183-2.927967" fill="#275937"/><path d="m46.6875 230.14h62.25v3.11h-62.25z" fill="#545454"/><path d="m53.690625 233.25c-3.4379726 0-6.225 2.784789-6.225 6.22s2.7870274 6.22 6.225 6.22 6.225-2.784789 6.225-6.22-2.7870274-6.22-6.225-6.22" fill="#020203"/><path d="m101.15625 233.25c-3.4379726 0-6.225 2.784789-6.225 6.22s2.7870274 6.22 6.225 6.22c3.437973 0 6.225-2.784789 6.225-6.22s-2.787027-6.22-6.225-6.22" fill="#020203"/><path d="m101.524379 235.5825c-2.3594881.011549-4.2645053 1.929057-4.258754 4.286678.0057774 2.357621 1.9201483 4.265822 4.279664 4.265822 2.359516 0 4.273914-1.908142 4.279711-4.265763 0-1.138723-.45343-2.230656-1.260255-3.034874s-1.900734-1.254628-3.040366-1.251863" fill="#323d40"/><path d="m46.6875 230.9175h62.25v1h-62.25z" fill="#545454"/><path d="m53.2910988 235.5825c-2.3622354.005771-4.2730661 1.922864-4.2692238 4.28321.0038539 2.360345 1.9209253 4.271208 4.283167 4.26929 2.3622416-.00192 4.276208-1.915895 4.276208-4.276244-.0114916-2.361016-1.9272192-4.270539-4.2901512-4.276256" fill="#323d40"/><path d="m76.25625 175.715h9.3375v54.425h-9.3375z" fill="#545454"/><path d="m76.25625 174.9375h9.3375v54.425h-9.3375z" fill="#545454"/><path d="m110.204085 145.614124c.351388 3.177214-2.48983 26.067141-3.011891 28.874679-1.094321 5.32533.190753 11.360038-1.234876 16.515517-1.425628 5.155478-4.387321 13.648031-5.54188 18.983352-.049751.189992-.049751.389501 0 .579492.10744.246188.304799.442596.55218.549518 5.080057 3.077302 13.342679 6.424366 17.689843 10.470818l5.973585-29.653995 7.650204-35.968458-5.371206-11.350047z" fill="#39870c"/><path d="m14.5928073 72.3075s.4621674-5.5086032 5.6384427-7.0929825l-6.7271038-.6820175s-1.0989315 3.0848178 1.0886611 7.775z" fill="#275937"/><path d="m18.7435083 61.4225s-5.468631.8115885-6.2935083 2.118048c0 0 12.4240779 5.7800937 17.11875 11.876952 0 .0296452-3.8086927-13.995-10.8252417-13.995z" fill="#59a121"/><path d="m49.021875 62.6819043c5.6765092 1.1136881 6.8559005 6.5155957 6.8559005 6.5155957 1.9068662-4.8294511.2755587-7.775.2755587-7.775z" fill="#1e3c11"/><path d="m49.7525111 61.4225c-6.7869517.55047-9.2900111 13.995-9.2900111 13.995 4.0266608-6.12048 15.5625-12.51153 15.5625-12.51153-.9102034-1.14759-6.2724889-1.48347-6.2724889-1.48347z" fill="#55b025"/><path d="m50.578125 74.64c0 3.0115823-6.4367612 5.4425-14.3953125 5.4425s-14.3953125-2.4309177-14.3953125-5.4425 6.4367612-5.4425 14.3953125-5.4425 14.3953125 2.4407595 14.3953125 5.4425z" fill="#713f1d"/><path d="m53.4192123 38.6195025c-5.1596628 12.0753579-8.2879623 37.5754975-8.2879623 37.5754975s8.8465872-19.2094437 11.2842232-27.0281635c2.4376359-7.8187198 2.7220268-22.7318365 2.7220268-22.7318365s-.5586249.0992223-5.7182877 12.1845025z" fill="#419023"/><path d="m26.5017703 41.5647106c.5128255 23.2980674 12.8834314 32.2977894 12.8834314 32.2977894 5.2329129-9.0791021-10.2983725-65.31-10.2983725-65.31s-3.0350894 9.7439107-2.5850589 33.0122106z" fill="#55b025"/><path d="m38.3601231 18.4085914c-1.5354147-15.83094821-5.4763125-18.67852758-4.4015222-15.93051393 1.0747903 2.74801366-2.2417055 19.24605213-2.0472197 37.89471003.1944859 18.6486578 8.8644611 34.1112129 8.8644611 34.1112129s5.5684374 2.6285348 5.8857565-.9359177c.41968-4.759241-4.3912862-17.0755196-4.9747438-27.7589205-.5936937-10.8825323-1.7810811-11.5595792-3.3267319-27.3805708z" fill="#39870c"/><path d="m53.2182156 18.8093553c1.6710567-15.6941957-1.6710566-19.20045088-1.1209572-16.35593963.5500994 2.84451124-6.1237478 18.31154113-9.6630664 36.54406803-3.5393187 18.2325269 1.9201582 34.8650163 1.9201582 34.8650163s3.8818333-9.3236757 6.6634679-27.7734917c1.5776435-10.7163011.5397202-11.595334 2.2003975-27.279653z" fill="#419023"/><path d="m43.6857654 10.1075s-5.8204906 9.5521429-6.3974784 24.3448377-1.8726796 33.2204545 1.63986 42.5201623c0 0 .2631874-9.3501948 3.3202103-17.1655844 3.0570228-7.8153896 3.2898425-28.2828247 2.4901577-34.9572078s-1.0527496-14.7422078-1.0527496-14.7422078z" fill="#55b025"/><path d="m14.784375 34.21s6.2417667 30.1061671 20.23125 41.2075c0 0-1.2978912-17.4767565-6.6380693-23.9230182-5.3401781-6.4462616-13.5931807-17.2844818-13.5931807-17.2844818z" fill="#39870c"/><path d="m23.0165158 39.1730782c1.6568729 14.7200997 12.7772342 41.6869218 12.7772342 41.6869218s-2.0329728-23.7624466-3.964297-32.8148073c-1.9313242-9.0523606-9.9717317-23.9426927-9.9717317-23.9426927s-.4980784.3504786 1.1587945 15.0705782z" fill="#55b025"/><path d="m30.6334085 74.64c3.4888854-9.2652083-12.7365335-20.215-12.7365335-20.215.5989954 15.5723686 12.7365335 20.215 12.7365335 20.215z" fill="#55b025"/><path d="m24.761945 65.5958473s-5.6474123-.7879242-6.86507.2525399c0 0 10.4970489 9.2328561 13.2157845 16.5666128 0 0 .5878347-14.798834-6.3507145-16.8191527z" fill="#34681b"/><path d="m15.7948383 72.3075s2.8515764-5.8801313 8.3270367-8.1490951c0 0-6.234435-1.0652411-7.0909922.2663103-.6722347 1.0119792-2.0058617 2.663103-1.2360445 7.8827848z" fill="#55b025"/><path d="m37.1843874 61.0459765s7.4416999-1.3220562 9.5031126.8349828c0 0-12.7086093 1.8389503-11.6366747 32.1965407-.0103071-.0497014-6.5449854-29.3039215 2.1335621-33.0315235z" fill="#34681b"/><path d="m47.269124 94.855h-22.1432553c-1.6184872-7.5158333-3.2500268-15.0316667-4.8946187-22.5475h31.903125c-1.6184873 7.5158333-3.2402376 15.0316667-4.865251 22.5475z" fill="#e17538"/><path d="m37.35 72.3075h-17.11875c1.7125683 7.5158333 3.4459371 15.0316667 5.2001063 22.5475h11.9186437z" fill="#c76221"/><path d="m20.23125 73.1246508c1.2411126 5.9476164 2.4887573 11.8952328 3.7429342 17.8428492 5.7221821-8.8619484 16.657037-13.8182955 27.2587512-13.5803908.3037459-1.4373406.6074919-2.8746813.9014396-4.3021092z" fill="#c4c2b8"/><path d="m19.453125 72.3075h33.459375v4.665h-33.459375z" fill="#e17538"/><path d="m19.453125 72.3075h17.896875v4.665h-17.896875z" fill="#c76221"/><path d="m51.3205085 76.195s-5.9243976-10.9558203-13.9705085-15.3577123c0 0 9.081343-2.2889839 10.6905652.1662937 2.603455 1.5455532 3.5156893 5.3116164 3.2799433 15.1914186z" fill="#6bba20"/><path d="m280.903125 104.9625v-9.33h-280.903125l.22043406 9.33z" fill="#3e3e3e"/><path d="m174.938426 95.3849324-.946977-2.151627c-1.132255-1.0961119-7.627281-4.5468345-7.627281-4.5468345l-1.636624-13.9043823-17.035291-.1420886-1.842488 14.05662s-6.556786 3.5014686-7.709627 4.5772821l-1.029323 2.1211795c-.401436.3755198 0 1.0149184.63818 1.0149184h36.530665c.63818 0 1.029322-.6292494.648473-1.0149184" fill="#545d5f"/><path d="m166.699414 81.3978365-9.446057-2.0928365-9.497562 1.9015557-.69017 5.8734443h20.23125z" fill="#303739"/><rect fill="#545d5f" height="77.75" rx="2.83" width="122.94375" x="94.93125" y="6.22"/><path d="m97.265625 10.1075h115.940625v69.1975h-115.940625z" fill="#fff"/><path d="m160.975058 19.4375h-6.906308l.08606-10.1075h6.917065z" fill="#2650a2"/><path d="m106.988297 62.2.007781-.7775" fill="#bbb9ae"/><path d="m106.988297 65.31.007781-.7775" fill="#bbb9ae"/><path d="m231.65268 91.3190457c0-.0808533-.109028-.1515999-.168498-.2324533-.137602-.1303036-.290793-.2423638-.455937-.3335199l-.842492-.4547999c-.601205-.3337018-1.183602-.7014869-1.744455-1.1016264-.991167-.7074665-2.884297-2.0920795-2.973502-3.2240259-.01936-.4878383.236524-.944016.658717-1.1743332.422194-.2303173.936362-.1942218 1.323618.0929201.545142.3436266.862315 1.0713064 1.407457 1.4654663 1.982335 1.414933 1.566045-1.7585596.882139-2.5771994-.745204-.7771153-1.742192-1.2512901-2.805003-1.3340797-2.656329-.2930933-3.756525 1.5867463-3.597938 3.3453059s1.53631 3.2038126 2.973502 4.3862923c.722175.5699908 1.487804 1.0803125 2.289597 1.5261064.753681.549161 1.660776.8362114 2.586947.8186398.284.0087664.542891-.1650153.647265-.4344798.104374-.2694646.031812-.5767318-.181417-.7682133z" fill="#ca005d"/><path d="m231.843974 95.5920901-1.360269-5.2330767c-.876617-3.1014567-1.853996-5.5159458-2.519016-8.3749434-.181369-.7475824-.382891-1.4850623-.56426-2.2326447-.161823-.5605238-.219879-1.146025-.171293-1.7275215.141065-1.0102465.644868-1.848751 1.410649-1.8285461h18.93293c.89677 0 1.269584.848607 1.410649 1.8285461.048586.5814965-.00947 1.1669977-.171293 1.7275215-.181369.7475824-.392967 1.4850623-.56426 2.2326447-.66502 2.8589976-1.642399 5.2734867-2.519016 8.3749434l-1.360269 5.2734866z" fill="#da4c8e"/><path d="m241.339079 71.2424563c.113914-.9237456.460099-1.7756816.986694-2.4281781.683659-.8675276 1.116257-2.0038628 1.227352-3.2239674-.11547-1.222718-.553849-2.3593797-1.243396-3.2239675-.175252-.2217911-.458478-.2217911-.63373 0-.169134.2216545-.169134.5741349 0 .7957894.528015.6511563.874461 1.5037342.986694 2.4281781-.112233.9244439-.458679 1.7770217-.986694 2.428178-.684015.8684131-1.119039 2.0037004-1.235374 3.2239675.117013 1.2229818.5518 2.3612406 1.235374 3.2341699.085055.1076425.200914.1665831.320876.1632389.117367.0017408.230265-.0571665.312854-.1632389.170125-.2251012.170125-.5808906 0-.8059919-.524047-.6522237-.865085-1.5053643-.97065-2.428178z" fill="#d9d9d9"/><path d="m238.996682 71.2420603c.111712-.922593.455022-1.7744828.978672-2.4284826.692722-.8617806 1.131683-2.0000915 1.243396-3.2243718-.111713-1.2242804-.550674-2.3625912-1.243396-3.2243719-.172784-.2197787-.452924-.2197787-.625708.0000001-.172785.2197787-.172785.5761104 0 .7958892.525546.652223.869201 1.5049686.978672 2.4284826-.109471.9235139-.453126 1.7762596-.978672 2.4284826-.687471.8665956-1.125475 2.0024257-1.243396 3.2243718.11861 1.2246511.556372 2.3634474 1.243396 3.2345756.082589.1060857.195487.1650003.312854.1633641.117545.0028372.230801-.0562641.312854-.1633641.174389-.222918.174389-.5831751 0-.806093-.526993-.6508632-.870914-1.5042683-.978672-2.4284826z" fill="#d9d9d9"/><path d="m233.549807 71.2435241c.111712-.9227424.455022-1.7747701.978672-2.4288757.692722-.8619202 1.131683-2.0004153 1.243396-3.2248939-.111713-1.2244785-.550674-2.3629737-1.243396-3.2248938-.172784-.2198143-.452924-.2198143-.625708 0-.172785.2198144-.172785.5762038 0 .7960181.525546.6523286.869201 1.5052123.978672 2.4288757-.109471.9236635-.453126 1.7765472-.978672 2.4288758-.687471.8667359-1.125475 2.0027499-1.243396 3.2248938.11861 1.2248494.556372 2.36383 1.243396 3.2350992.174281.2151689.451427.2151689.625708 0 .174389-.2229541.174389-.5832694 0-.8062235-.526993-.6509686-.870914-1.5045118-.978672-2.4288757z" fill="#d9d9d9"/><path d="m106.719087 93.3h79.035989l2.551174 2.3325h-84.0375z" fill="#303739"/><path d="m170.596573 94.0775h-63.469531l-1.302042.7775h65.3625z" fill="#545d5f"/><path d="m186.571303 94.0775h-13.049428l.661632.7775h13.344618z" fill="#545d5f"/><path d="m105.226701 95.4264625h81.345154l1.734395-.365425h-84.0375z" fill="#1c1a1c"/><path d="m171.965625 97.0131876c0 3.3424164-17.896875 3.3424164-17.896875 0 0-3.3424165 4.012752-6.0456876 8.948437-6.0456876 4.935686 0 8.948438 2.7137489 8.948438 6.0456876z" fill="#303739"/><path d="m138.50625 93.4133631 16.399085-6.3333631 10.452275 1.5400275c1.269997.1828783 3.487452 2.4255433 4.27364 3.4073109l-11.812986 2.8105502-14.111075 6.2371114z" fill="#e97552"/><g opacity=".8" transform="translate(111.271875 60.645)"><ellipse cx="7.204919" cy="7.187432" fill="#949494" rx="6.712106" ry="6.807568"/><path d="m5.4603625 3.53873571h4.03120625l.18726875.99964286c-.30685041.82297788-.8666825 1.52395837-1.5967125 1.99928572.97190127.14948543 1.68667479 1.00235514 1.6755625 1.99928571 0 1.4794714-1.3995875 2.5690821-3.5285375 2.5490893h-.93634375v-.9896464h.91663125c1.40944375 0 2.21765625-.53980719 2.2275125-1.4194929 0-.58978929-.4533875-1.09960714-1.2813125-1.28953929-.40137202.19340388-.8252777.33447617-1.2616.41985l-.22669375-.99964285c1.19223768-.24211976 2.21533683-1.01210737 2.78931875-2.09925h-3.0160125z" fill="#fff"/></g><path d="m63.2419152 56.7867984c-3.3128576-1.0034439-2.8899396-1.6857858-6.132311 1.8463369-3.2423713 3.5321227-4.61182 8.6697558-5.9309214 11.5797432-2.4368133 5.3884941-5.3871698 10.4759549-7.9649557 15.7239668-3.786123 7.5358641-4.3902916 13.7271133-5.0850855 22.3466967-.1006947 1.374718 14.5503931-.150516 15.4062986-.421446 1.9232699-.622136 8.9719033-15.5232783 10.5226026-21.7747341 1.5506993-6.2514559-.8156276-29.3005635-.8156276-29.3005635z" fill="#a90061"/><path d="m110.673289 26.7510975c3.477871-8.0891436 5.237145-12.619064-2.745687-19.30271892-2.723956-1.89181934-5.633645-3.50439826-8.684508-4.81304045-15.63008-4.32769183-19.9621646 4.99504618-22.7586981 16.43107297-2.5626416 10.5259981.142369 18.4735817 3.9253161 22.6597135l-2.9083948 9.8990895 20.7858708 2.0222859s0-7.0780007 1.718597-9.9900924c3.396517.2831201 4.769361 1.3043745 10.311582-12.4876154.416937-1.0010315-.061016-3.4479975.355922-4.4186947z" fill="#fb9e57"/><path d="m97.8690079 52.4011766c2.3345371 1.7330484 17.6499081 7.7787976 17.8612241 7.8983182 1.680464.9960048-7.355806 25.7467245-4.135754 33.5852824-2.15341 3.9840193-8.050129 28.4458978-5.856469 43.5453308.15094 1.045805-51.269259 2.519892-51.269259 2.519892 1.4288979-10.956053 8.8450792-48.4556343 6.8929229-57.7682794-2.5861039-12.3504597-3.5823074-22.9081108-2.7269811-24.1331967 2.0729082-2.9880144 3.7936232-3.1374151 9.1972723-6.2648703 5.4036491-3.1274551 30.0370438.617523 30.0370438.617523z" fill="#a90061"/><path d="m84.1037385 2.75632754c5.3642424-3.4879501 14.4258721-3.54878644 19.4971525-.84156936 5.07128 2.70721709 13.779334 8.02025736 6.344151 23.49296622-7.970598 16.6083206-19.6385826 15.8681451-23.5582173 15.7667512-7.0715059-.2737635-9.4657158-3.3966956-9.4657158-3.3966956s-10.2637858-23.7363116 7.1826296-35.02145246z" fill="#673327"/><path d="m78.469894 25.7734592c3.2508893-1.4275275 5.494003 7.5702213 5.8516008 9.2140408 8.1922411-5.0612337 3.8035405-13.745359-4.1394657-12.2745732-1.2171599.1862705-2.3097189.8490485-3.0357986 1.8416035-.7260798.992555-1.0257832 2.2330073-.8327597 3.4467369z" fill="#51211b"/><path d="m77.1261398 24.6634114c-2.7724963 1.8224515-8.6703519 10.063537-7.1479994 20.447505 1.5223525 10.3839681 1.3005528 21.5790271-5.3937654 27.1965836 7.8234803-3.0741352 7.6117624-12.8272546 7.6117624-12.8272546l-1.8953793 10.5942509s5.1316385-8.4613819 5.9684283-12.2865273c.2923723 1.6822629-.5040902 6.3685667-3.3471591 8.7017051 0 0 10.8177762-6.3184993 10.6060583-17.653747-.0604908-3.6148625-1.0686713-8.1709912-.6754809-10.6242912 1.3307982-8.5014358 5.0409022-8.3512337 2.8329871-11.8158942-2.9640506-4.5961826-6.5733366-3.0140544-8.559452-1.7323303z" fill="#673327"/><path d="m105.842413 2.51235884c-1.946225-.87238616-4.461824-1.73485884-4.461824-1.73485884 2.639826.67411658 12.422713 9.9134791 2.15327 20.0549681 2.898633.6939436 6.304527-8.8329098 6.304527-8.8329098s-1.552839 8.753602-8.281809 11.2418852c2.505247-.0495674 5.40388-2.2007923 7.453628-4.9567395-1.836989 3.9938129-5.205688 7.1593984-9.410205 8.8428233 6.335584 1.0706558 13.758155-8.2480145 13.996257-12.6595127.208512-5.12786506-2.861473-9.86147788-7.753844-11.95565576z" fill="#51211b"/><path d="m119.802369 66.865s.098614 1.9270307.13806 2.8853936c.004613.020328.004613.0415018 0 .0618298.759328 13.0976258 2.494937 23.320163.571961 35.1502766l-22.000812-1.030498c-.0054686-.044472-.0054686-.089492 0-.133964-.1084756-1.030498-.1972283-2.060996-.2465353-3.163628-.0986142-1.4530021-.1577826-2.9472238-.1873669-4.4620554-.0887527-3.9777211 0-8.1306268.2268125-12.3659724 0-.6595185.0788913-1.3087321.1281984-1.9579456l.1281984-2.7617339.4339021-10.6759561z" fill="#b21971"/><ellipse cx="109.217468" cy="102.595879" fill="#b21971" rx="11.243223" ry="11.267841" transform="matrix(.49059961 -.87138512 .87138512 .49059961 -33.765101 147.432856)"/><ellipse cx="109.079953" cy="68.917705" fill="#b21971" rx="10.611803" ry="10.578598" transform="matrix(.93358043 -.35836795 .35836795 .93358043 -17.452853 43.668244)"/><ellipse cx="107.70573" cy="104.27533" fill="#b21971" rx="9.123047" ry="9.085875" transform="matrix(.99200495 -.12619897 .12619897 .99200495 -12.298326 14.426039)"/><path d="m142.403178 91.745 2.185744 10.333362.142328.659995-35.449724 10.776643-3.456526-17.6228643z" fill="#b21971"/><path d="m103.490625 112.811021s6.457207 4.477675 21.800571.824835c9.795764-2.324535 18.661929-11.783356 18.661929-11.783356z" fill="#b21971"/></g><path d="m129.946875 60.03855 57.58125.4354" stroke="#b3b3b3" stroke-width="1.78"/><path d="m129.946875 66.262438 57.58125.427624" stroke="#b3b3b3" stroke-width="1.78"/><path d="m129.946875 70.92355 57.58125.4354" stroke="#b3b3b3" stroke-width="1.78"/><g fill-rule="nonzero" opacity=".8" transform="translate(112.05 20.215)"><ellipse cx="6.75205" cy="7.175392" fill="#949494" rx="6.712106" ry="6.777312"/><path d="m4.9385 4.667488c.63960783-.19398567 1.30342365-.29452535 1.97125-.29856h.70965l-.04928125 5.642784h-1.27145625v-4.458496c-.48526371-.00861077-.97027844.02803543-1.44886875.109472z" fill="#fff"/></g><g fill-rule="nonzero" opacity=".8" transform="translate(112.05 37.32)"><ellipse cx="7.402044" cy="7.057479" fill="#949494" rx="6.712106" ry="6.807568"/><path d="m5.35194375 4.408425c.57527566-.15756982 1.16838611-.23822401 1.76426875-.23991429 1.4784375 0 2.2275125.70974643 2.21765625 1.80935358-.05184175.84652362-.62467926 1.56774585-1.42915625 1.79935714l-.7293625.29989286c-.34756871.1373094-.65346758.36482567-.8870625.65976428h3.351125v1.14958929h-4.4353125l-.18726875-.99964286c.2242284-.7163212.74647829-1.29713997 1.42915625-1.58943214l.7885-.40985357c.591375-.29989286.79835625-.52981072.79835625-.88968215s-.3745375-.63977143-1.0841875-.64976785c-.53932145-.0065061-1.07685248.06416486-1.5967125.209925z" fill="#fff"/></g><path d="m129.946875 35.185763 57.58125.380975" stroke="#b3b3b3" stroke-width="1.64"/><path d="m129.946875 28.965763 57.58125.380975" stroke="#b3b3b3" stroke-width="1.64"/><path d="m129.946875 50.735763 57.58125.380975" stroke="#b3b3b3" stroke-width="1.64"/><path d="m129.946875 44.51965 57.58125.3732" stroke="#b3b3b3" stroke-width="1.64"/><path d="m199.767602 29.0112774c-.069594-.4163331-.393034-.7441224-.808303-.8191727-2.428095-.2694729-4.878539-.2694729-7.306634 0-.415269.0750503-.738709.4028396-.808303.8191727-.147953 1.2105392-.21546 2.4295631-.202076 3.6490419-.013384 1.2194788.054123 2.4385027.202076 3.6490419.067677.4152894.393132.7408379.808303.8085341 2.428095.2694729 4.878539.2694729 7.306634 0 .415171-.0676962.740626-.3932447.808303-.8085341.147953-1.2105392.21546-2.4295631.202076-3.6490419.033783-1.2198462-.033808-2.4403913-.202076-3.6490419z" fill="#69b921" fill-rule="nonzero"/><path d="m196.780619 30.3858792c-.092539-.0845056-.234972-.0845056-.327512 0l-1.434814 1.6470176-.857769-.7732477c-.091356-.0798607-.228358-.0798607-.319714 0-.091519.0795761-.114294.2118527-.054586.3170315l1.052717 1.7398073c.044379.0730473.124553.1172147.210544.1160121.085991.0012026.166165-.0429648.210543-.1160121l1.559581-2.6135772c.074115-.0991379.05698-.2384616-.03899-.3170315z" fill="#fff" fill-rule="nonzero"/><path d="m199.767683 44.5506388c-.06769-.4152894-.393208-.7408379-.80846-.8085341-2.428567-.2694729-4.879487-.2694729-7.308054 0-.415251.0676962-.74077.3932447-.80846.8085341-.269445 2.4252323-.269445 4.8728515 0 7.2980838.069608.4163331.393111.7441224.80846.8191727 2.428567.2694729 4.879487.2694729 7.308054 0 .41535-.0750503.738852-.4028396.80846-.8191727.147982-1.2105392.215502-2.4295631.202115-3.6490419.033497-1.2198421-.034106-2.4403629-.202115-3.6490419z" fill="#69b921" fill-rule="nonzero"/><path d="m196.779892 46.7132225c-.092542-.0842967-.23498-.0842967-.327523 0l-1.434863 1.5889523-.857799-.7713361c-.09258-.0764-.227144-.0764-.319725 0-.090287.0767903-.113144.2059798-.054587.3085345l1.052753 1.8049264c.046479.0706791.125326.1140065.210551.1157004.085225-.0016939.164072-.0450213.21055-.1157004l1.559634-2.607116c.075067-.1013495.058033-.2428757-.038991-.3239611z" fill="#fff" fill-rule="nonzero"/><path d="m199.767801 63.2106388c-.067691-.4152894-.393213-.7408379-.80847-.8085341-2.428599-.2694729-4.87955-.2694729-7.308149 0-.415257.0676962-.74078.3932447-.80847.8085341-.269449 2.4252323-.269449 4.8728515 0 7.2980838.069608.4163331.393115.7441224.80847.8191727 2.428599.2694729 4.87955.2694729 7.308149 0 .415355-.0750503.738862-.4028396.80847-.8191727.147984-1.2105392.215505-2.4295631.202118-3.6490419.033205-1.219838-.034398-2.4403347-.202118-3.6490419z" fill="#69b921" fill-rule="nonzero"/><path d="m196.779892 65.3732225c-.092542-.0842967-.23498-.0842967-.327523 0l-1.434863 1.5889523-.857799-.7713361c-.09258-.0764-.227144-.0764-.319725 0-.090287.0767903-.113144.2059798-.054587.3085345l1.052753 1.8049264c.046479.0706791.125326.1140065.210551.1157004.085225-.0016939.164072-.0450213.21055-.1157004l1.559634-2.607116c.075067-.1013495.058033-.2428757-.038991-.3239611z" fill="#fff" fill-rule="nonzero"/><path d="m186.902907 38.8858438.122325-.0108438 4.362937 4.673675.030581.4012204-1.814492.0108438.122325.3578452.784921 1.6916318-.030582.1843445-.346588.4229079-.499495.0325314-.346588-.3470014-.509689-1.3012552-.366976-.6614714-1.335385 1.4313807-.326201-.0325314v-6.7882147z" fill="#fff"/><path d="m187.465875 39.8279248h-.326812v6.3564415h.326812v.4656337h-.653625v-7.775h.326812v.454805h.326813v.454805z" fill="#000" fill-rule="nonzero"/><path d="m190.640625 44.06248h-1.250957v.25502h-.305293v-.51626h1.243511v-.26124h.312739z" fill="#000" fill-rule="nonzero"/><path d="m189.149063 46.88325h.653625c.003874.0621398.003874.1244602 0 .1866v.1244h-.661406v-.311z" fill="#000" fill-rule="nonzero"/><path d="m189.310031 45.8064125v-.645325h.326813v.645325z" fill="#000" fill-rule="nonzero"/><path d="m188.854828 45.8103h-.319031v-.6531h.319031v.629775z" fill="#000" fill-rule="nonzero"/><path d="m189.632953 45.025025h-.319031v-.645325h.319031v.6531z" fill="#000" fill-rule="nonzero"/><path d="m188.535797 44.3835875h.319031v.645325h-.319031z" fill="#000" fill-rule="nonzero"/><path d="m189.632953 40.982025h-.326812v-.1555c.003879-.0569508.003879-.1140992 0-.17105h.334593v.0622.26435z" fill="#000" fill-rule="nonzero"/><path d="m189.636844 43.314525h-.326813v-.32655h.319031v.32655z" fill="#000" fill-rule="nonzero"/><path d="m190.084266 42.9840875h.334593v.334325h-.326812v-.32655z" fill="#000" fill-rule="nonzero"/><path d="m187.302469 40.9781375h-.326813v-.32655h.326813v.334325z" fill="#000" fill-rule="nonzero"/><path d="m186.971766 44.8656375v-.318775h.334593v.318775z" fill="#000" fill-rule="nonzero"/><path d="m187.753781 40.6593625h.326813v.318775h-.326813v-.311z" fill="#000" fill-rule="nonzero"/><path d="m188.535797 40.66325h.319031v.318775h-.319031v-.32655z" fill="#000" fill-rule="nonzero"/><path d="m189.629063 40.966475h-.31125v-.311h.31125v.32655z" fill="#000" fill-rule="nonzero"/><path d="m187.757672 44.8734125v-.334325h.319031v.32655h-.319031z" fill="#000" fill-rule="nonzero"/><path d="m188.854828 40.9781375h-.319031v-.318775h.319031z" fill="#000" fill-rule="nonzero"/><path d="m188.080594 40.966475h-.326813v-.318775h.319031v.2177.1244z" fill="#000" fill-rule="nonzero"/><path d="m188.080594 44.5546375v.23325.07775h-.326813v-.318775h.326813z" fill="#000" fill-rule="nonzero"/><ellipse cx="206.98125" cy="32.655" fill="#d52b1e" fill-rule="nonzero" rx="4.66875" ry="4.665"/><path d="m208.049499 30.3984754-1.072362.9412643-1.080424-.9412643c-.108688-.1013005-.278329-.1013005-.387018 0-.10661.1058383-.10661.2770488 0 .3828871l.951419 1.0688934-.951419 1.0609166c-.072014.0698211-.100907.1723478-.075796.2689593.025112.0966114.100414.17263.197541.1994204.097126.0267903.201321.0002822.273336-.0695389l1.080424-.9412643 1.064299.9811484c.111325.1101368.291818.1101368.403143 0 .111325-.1101369.111325-.288704 0-.3988408l-.951418-1.0609166.959481-1.1008006c.102393-.1075283.102393-.275359 0-.3828872-.112825-.0986324-.282255-.0986324-.39508 0" fill="#fff" fill-rule="nonzero"/><ellipse cx="206.98125" cy="48.9825" fill="#d52b1e" fill-rule="nonzero" rx="4.66875" ry="4.665"/><path d="m208.045118 47.5075199-1.073479.9521551-1.081549-.9521551c-.107092-.1066932-.280329-.1066932-.387421 0-.103559.1114633-.103559.283923 0 .3953864l.952409 1.0731918-.952409 1.0812609c-.103559.1114634-.103559.2839231 0 .3953865.107092.1066931.280329.1066931.387421 0l1.081549-.9521552 1.073479.9521552c.109212.1114111.288086.1132174.399527.0040345.111441-.109183.113248-.2880098.004036-.399421l-.952409-1.0812609.96048-1.0489845c.070648-.0720704.09747-.1763463.070363-.273548-.027108-.0972017-.104027-.1725619-.201782-.1976932s-.201496.0037844-.272144.0758548" fill="#fff" fill-rule="nonzero"/><ellipse cx="206.98125" cy="66.865" fill="#d52b1e" fill-rule="nonzero" rx="4.66875" ry="4.665"/><path d="m208.045134 65.3933554-1.067302.9498422-1.075326-.9498422c-.1108-.1089177-.288645-.1071157-.397229.0040248s-.106787.289533.004012.3984507l.94693 1.0705849-.94693 1.0705848c-.110799.1089177-.112596.2873102-.004012.3984507s.286429.1129425.397229.0040248l1.075326-.9498422 1.067302.9337432c.1108.1111405.290442.1111405.401241 0 .1108-.1111406.1108-.291335 0-.4024755l-.946929-1.0705849.954954-1.0544858c.1108-.1111405.1108-.291335 0-.4024755-.110799-.1111405-.290441-.1111405-.401241 0" fill="#fff" fill-rule="nonzero"/><path d="m250.55625 104.9625h7.003125v122.0675h-7.003125z" fill="#545454" fill-rule="nonzero"/><path d="m122.94375 158.888504c-13.34131 1.002291-31.0155223 1.835774-44.336679.801833.0705356-.865135-.0604592-2.310544 0-3.165128 9.1293252-.23211 22.732624-.72798 31.86195-.949539 3.027909-.175814 6.064958-.045085 9.068866.390366 1.430865.25321 3.12372.99174 3.274868 2.574304z" fill="#39870c" fill-rule="nonzero"/><path d="m79.7199731 134.562833c.4801097-.440797 8.0018283 1.893423 8.7419974 2.003623 11.4026054 2.163912 15.3935175 1.602897 24.7756615 1.592879 4.384165-.133352 8.770016.202488 13.082989 1.001811 1.689516.325178 3.330093.86729 4.881115 1.612916 2.060471 1.06192 4.561042 1.582862 5.901349 3.656611.929042 1.612738 1.486103 3.413213 1.630372 5.269526.680156 5.009056 2.050469 8.22487 2.820645 13.193853.5868 3.826918 1.150263 7.653837 1.690386 11.480755.780178 5.650215 2.240512 11.35052 3.300754 16.92059 0 3.005434 1.18027 10.378763 1.680384 13.324088.458339 3.096414.612445 6.230379.460105 9.356916-.033707.287128.011243.578031.13003.841521.110025.200363.300068.340616.410094.53096.09699.22018.134915.461905.110025.701268-.04569.992773-.394857 1.947508-1.000229 2.734944-.080018.1102-.180041.240435-.120027.370671.060014.130235.22005.160289.360082.180326.78582.202961 1.428309.768354 1.730395 1.522752.274653 1.126895.491652 2.267106.650149 3.416176-5.893307-.088767-11.757596.843276-17.333961 2.754981-1.670381-11.019922-4.000914-30.435022-6.141403-41.454944-1.53035-7.794091-7.231652-18.172854-5.401234-25.966945.041016-.267435.11146-.529502.210048-.781412-6.071387.260471-12.722907.631141-18.664265 2.083767-5.3912316 1.342427-10.8424771 2.454437-16.3137273 3.356067-4.1936903.61322-8.4175437.997815-12.6528911 1.152083-3.2007313.250453 5.0611565-30.845765 5.0611565-30.855783z" fill="#579930" fill-rule="nonzero"/><rect fill="#3e3e3e" fill-rule="nonzero" height="40.43" rx="4.5" width="18.675" x="59.915625" y="130.62"/><path d="m114.540809 159.3875h-67.3759879c-4.2883865 0-8.7680391 4.354-7.1372442 8.477258 2.1139933 5.337161 2.8488577 7.072742 7.1372442 7.072742h67.3759879c4.288387 0 5.375584-4.253677 6.482913-7.203161 1.570395-4.273742-2.194526-8.346839-6.482913-8.346839z" fill="#545454" fill-rule="nonzero"/><path d="m115.175085 167.813794-66.9394308-.413729c-4.3001559 0-9.0635606-2.946554-7.4522609 1.200822 2.1148308 5.36838 2.8499863 7.114113 7.1400716 7.114113h67.4026791c4.290085 0 5.377712-4.278559 6.485481-7.245295 1.571017-4.258377-2.346455-.655911-6.63654-.655911z" fill="#3e3e3e" fill-rule="nonzero"/><path d="m84.1553378 88.635-29.2150219.2704348c-16.425915 0-20.6755554 15.0241542-18.6964084 23.8583572 1.9791469 8.834203 6.5703659 23.487762 6.5703659 23.487762 3.9382011 9.7657 6.4096231 14.192818 14.235793 14.192818h3.2249044c.1406501.130209.2612073.270435.4018573.390628l22.8757238-.881417c7.1631054-.220354 10.1468955-7.492045 12.6384104-16.11591 0 0 4.8122407-15.16438 6.2790197-23.15723s-3.606669-21.3543319-18.3146442-22.045443z" fill="#787878" fill-rule="nonzero"/></g></g></svg>