<svg height="787" viewBox="0 0 1200 787" width="1200" xmlns="http://www.w3.org/2000/svg"><g fill="none" fill-rule="evenodd"><path d="m0 0h1200v787h-1200z" fill="#d8d8d8" fill-opacity=".01"/><g fill="#8fcae7" fill-rule="nonzero" transform="translate(76 175)"><path d="m135.697136 74 505.302864-48.5079823-.706431-6.4920177-505.293569 48.4986413"/><path d="m163 71.8670591 193.652955 131.1329409 4.347045-5.867059-193.652955-131.132941"/><path d="m142.8231 386 224.1769-162.73605-3.8231-5.26395-224.1769 162.73605z"/><path d="m502 205.594541 275.962313 96.405459 2.037687-6.5852-275.943704-96.4148z"/><path d="m426 225.288304 69.510638 294.711696 7.489362-.279004-69.52-294.720996z"/><path d="m123.401708 46.0563385c-61.2190146-.8008843-116.1701248 7.0310188-122.7542145 17.4983897-6.5840897 10.467371 37.7934188 19.5564761 99.0124336 20.3852981 61.2190149.8288221 116.1515259-7.0310187 122.6984169-17.4983897 6.546892-10.467371-37.746921-19.556476-98.956636-20.3852981"/><path d="m431.035093 174.069048c-69.173468-1.1117-128.571412 11.331864-132.798163 27.848546-4.22675 16.516683 48.607629 30.828649 117.781097 32.005743s128.590032-11.341206 132.751612-27.876572-48.561078-30.828649-117.734546-31.996401"/><path d="m495.357444 494.073023c-56.636534-1.044982-106.731631 9.247626-111.921916 23.035837-5.190284 13.788211 36.61154 25.773134 93.238755 26.818116 56.627216 1.044982 106.731632-9.247626 111.893961-23.026589 5.16233-13.778963-36.564948-25.782382-93.182845-26.818116"/><path d="m839.452502 270.086715c-66.271017-1.238236-124.872853 10.929992-130.943125 27.17602-6.070273 16.246027 42.817267 30.443845 109.088284 31.654151s124.854261-10.939302 130.896645-27.19464c6.042385-16.255337-42.761492-30.425225-109.041804-31.654151"/><path d="m671.792566.0673454c-43.554228-.92410776-81.000809 7.77174627-83.644974 19.3415754-2.644164 11.5698292 30.556857 21.6518449 74.111086 22.5297473 43.554228.8779023 81.000809-7.7717463 83.598421-19.3415755 2.597612-11.5698291-30.528926-21.65184483-74.064533-22.5297472"/><path d="m135.550985 369.065775c-66.8190006-.931589-125.91164739 8.142085-132.03687763 20.262053-6.12523024 12.119969 43.19311293 22.674868 110.00280463 23.606457 66.809693.931588 125.939575-8.151401 131.981025-20.262054 6.041451-12.110652-43.13726-22.721447-109.946952-23.606456"/><path d="m499.605764 536-2.178196-.809237-377.36768-140.835152-27.059888-321.3787305 7.893631-.6697134 26.631695 316.3837839 370.497988 138.277219 345.942094-238.585407-165.291512-267.6063234 6.953469-3.7764396 168.372635 273.252379z"/></g></g></svg>