<svg height="750" viewBox="0 0 1200 750" width="1200" xmlns="http://www.w3.org/2000/svg"><g fill="none" fill-rule="evenodd" transform="translate(.3)"><path d="m0 0h1200v750h-1200z" fill="#d8d8d8" fill-opacity=".01"/><g fill="#93d5f6" fill-rule="nonzero"><path d="m1126.3 660.1c0-22.65-65.25-41.1-145.8-41.1s-145.8 18.45-145.8 41.1z"/><path d="m614.5 692.2c80.55 0 145.8-18.45 145.8-41.1s-65.25-41.1-145.8-41.1-145.8 18.45-145.8 41.1 65.25 41.1 145.8 41.1z"/><path d="m230.8 624c66.572531 0 120.5-15.262774 120.5-34s-53.927469-34-120.5-34-120.5 15.262774-120.5 34c.123971 18.737226 54.05144 34 120.5 34z"/><path d="m957.7 293c55.79938 0 101-12.793796 101-28.5s-45.20062-28.5-101-28.5c-55.799383 0-101 12.793796-101 28.5.103909 15.810219 45.304527 28.5 101 28.5z"/><path d="m290.8 304c66.572531 0 120.5-15.262774 120.5-34s-53.927469-34-120.5-34-120.5 15.262774-120.5 34c.123971 18.737226 54.05144 34 120.5 34z"/><path d="m647.8 388c66.572531 0 120.5-15.262774 120.5-34s-53.927469-34-120.5-34-120.5 15.262774-120.5 34c0 18.861314 53.927469 34 120.5 34z"/></g></g></svg>