<svg height="400" viewBox="0 0 1200 400" width="1200" xmlns="http://www.w3.org/2000/svg"><g fill="none" fill-rule="evenodd"><g fill="#fff"><path d="m0 400h1200v-400h-1200z"/><path d="m280 0h640v400h-640z"/><path d="m0 400h1200v-400h-1200z"/></g><path d="m0 400h1200v-135h-1200z" fill="#dedfde"/><path d="m0 400h1200v-135h-1200z" fill="#93d5f6"/><rect fill="#d8d8d8" fill-opacity=".01" height="400" rx="2" width="640" x="280"/><g fill-rule="nonzero" transform="translate(476 49)"><path d="m21.2023609 285h-3.2023609l33.2833052-117h11.7166948z" fill="#402a1b"/><path d="m104.797639 285h3.202361l-33.2833052-117h-11.7166948z" fill="#402a1b"/><path d="m4 60h118v119h-118z" fill="#e6e6e6"/><path d="m0 56h127v5h-127z" fill="#5b361e"/><path d="m0 179h127v5h-127z" fill="#5b361e"/><path d="m51.6058839 76.7471667c.1922467.0230534.3868385.0230534.5790853 0 .1834635-.0415584.3577016-.1130894.5147425-.2113203.1415507-.0923136.2618937-.2103727.3538854-.347169.0859216-.1589825.1300459-.3349528.1286856-.5132064.0164428-.2074539-.040063-.4142442-.160857-.588678-.1036404-.1451569-.2485167-.2601893-.4182283-.3320747-.1751486-.0874523-.3660269-.1437453-.5629996-.1660374h-.6273424-.9007993v2.1886744h.2091141.8847137zm-.5629996-3.4264075h.4021425.3699712c.2960611-.0803322.570322-.2193053.8042851-.4075462.2230222-.1815247.3470897-.4476297.3377998-.7245267.0013628-.1686313-.0429152-.3348274-.1286856-.4830178l-.3217141-.3018862c-.1395167-.0747541-.2919819-.12585-.4503997-.150943-.1814806-.0230025-.3654333-.0230025-.5469139 0h-.5629996-.4182282v2.1132028zm3.6031974-1.5094306c.0235104.2006528.0235104.4031194 0 .6037723-.0485301.1900757-.1359388.3694977-.2573712.5283007-.1262663.1761294-.2907023.3252875-.4825711.4377348-.2125328.1400228-.4534244.2376331-.7077709.2867919.2372214.0351998.4693195.0959793.6916852.1811316.2135009.0955797.4090684.2230202.5790853.3773577.1653496.1728546.2961277.3722712.3860568.5886779.0951445.2625088.144043.5378176.144788.8150926.0014796.3696551-.0982192.7334766-.2895593 1.0566014-.176822.3007466-.4312378.5550519-.7399423.739621-.3305198.1982649-.6951659.3412622-1.0777421.4226406-.3994974.0965328-.8100024.1472177-1.2225134.150943h-.5308282-.6916852-.7560281l-.6916852-.1056601v-7.8943281h.5147425.6434281.6916852.7238567c.388087-.0004904.775524.0298061 1.1581706.0905718.3519611.0526115.6935461.1543679 1.0133992.3018861.6063985.2870674.9867179.8721156.9812279 1.5094306" fill="#026a9d"/><path d="m14.9362637 120.988764h1.9868132l-.6857143-1.76779-.2813186-1.243446-.2637363 1.258427zm2.3912088 1.243446h-2.8483516l-.7208791 1.76779h-1.7582418l3.3406593-8h1.3538462l3.3054945 8h-1.9164835z" fill="#402a1b"/><path d="m108 96.4773095c-.302169.1941664-.637887.3272284-.988981.3919836-.404235.0847314-.815637.1284963-1.228251.1307069-.493851.0022302-.984557-.0805891-1.451569-.2450354-.451253-.165951-.860169-.4339141-1.196348-.7839673-.375217-.3927759-.658785-.8673814-.829468-1.3882754-.219854-.6733002-.322439-1.3809215-.303075-2.0905795-.01902-.7229708.094605-1.4431776.334978-2.1232447.207941-.5211305.517294-.9934755.909224-1.3882754.346236-.3373147.75986-.593651 1.2123-.751302.437728-.1473754.895093-.2245071 1.355861-.2286571.411482-.005845.82262.0269577 1.228251.0979959.281885.0539741.559219.130426.829468.2286571l-.334978 1.453606c-.203168-.1119004-.424981-.1839129-.654004-.2123245-.308073-.0202801-.617101-.0202801-.925175 0-.613409-.0171848-1.200879.2534967-1.595131.7349694-.452292.6622441-.666493 1.4644992-.60615 2.2702386-.004403.4075912.043869.8139881.143562 1.2086162.086661.3427387.238431.6646344.446637.9472938.191624.2608548.443843.4685763.73376.6043081.320441.1482563.669345.2208217 1.020883.2123245.30704.0105817.61381-.0279925.909225-.1143285.23095-.056619.451685-.1503315.654004-.2776551z" fill="#e16f0d"/><path d="m105.342144 146.495231h-.477103-.3759v5.892695h.780715c.359406.014745.716575-.070686 1.040953-.248987.268388-.158394.497254-.392598.665053-.680565.179005-.298058.29757-.638376.346984-.995948.070822-.376254.104768-.760423.101204-1.145341.000488-.345482-.028566-.690184-.086746-1.029147-.055075-.334951-.162859-.655573-.318069-.946151-.160191-.283351-.378662-.51708-.636138-.680564-.320553-.192251-.679651-.28387-1.040953-.265587m-2.342144-1.394327h.520476.592765.592765.520477c.591303-.01491 1.179792.097699 1.734921.331982.450209.188223.852624.501941 1.171072.912953.307706.409747.534577.891061.665053 1.410927.136771.584538.204843 1.187451.202408 1.792707.000215.561429-.067913 1.120138-.202408 1.659914-.125041.533993-.346726 1.031723-.650595 1.460724-.322549.4483-.734058.801223-1.199988 1.029147-.585077.282716-1.216041.418545-1.850583.398379h-.477103-.607222-.592765-.419273z" fill="#7fc6b1"/><path d="m50 163h4.9528302v1.40113h-3.3176101v1.853107h3.0031447v1.40113h-3.0031447v1.943503h3.3647799v1.40113h-5z" fill="#ca005d"/><path d="m81.7666195 119 22.2333805-.304613c-.536077-15.842149-11.0881595-29.6837945-26.4497878-34.695387l-6.5502122 20.744125c6.1614463 2.238562 10.3866635 7.833091 10.7666195 14.255875" fill="#e16f0d"/><path d="m71.6305236 96.5796786 4.3694764-14.0846245c-15.225645-4.4062358-31.5844115 1.1344698-41 13.8866784l12.1797252 8.6182675c5.6533795-7.4982737 15.2831197-10.8269821 24.3594504-8.4203214" fill="#026a9d"/><path d="m104 120-10.6457663.135776c-.0773399 2.492804-.5007728 4.964085-1.2588425 7.346983-2.5818535 8.10846-8.8989278 14.591769-17.0953912 17.545258l3.4967846 9.971983c15.2035991-5.342904 25.3770384-19.304688 25.5032154-35" fill="#7fc6b1"/><path d="m72.2745026 139.532304c-7.7261947 2.189342-16.0211266-.372646-21.1495947-6.532304l-7.2815033 5.433553-6.8434046 5.102422c4.7587378 6.029156 11.2441203 10.475096 18.5965365 12.74853 7.2913811 2.287327 15.1120824 2.287327 22.4034635 0z" fill="#ca005d"/><path d="m52.1852445 114.896867c.3527091-1.121905.833834-2.197901 1.4335044-3.205913l-19.1083076-13.690954c-8.8828463 13.345736-8.6578126 30.893726.5642517 44l18.925307-14.372404c-2.4578994-3.751022-3.1242866-8.425808-1.8147555-12.730729" fill="#402a1b"/><path d="m68.673913 111-2.673913 8 9-.120527c-.3622525-3.507988-2.7979476-6.541774-6.326087-7.879473" fill="#e16f0d"/><path d="m59 113.69506 6.6666667 4.82418.6796116.48076 2.6537217-8.753151c-3.6994369-.837075-7.54744.489798-10 3.448211" fill="#026a9d"/><path d="m57.4570742 115c-1.9839223 3.09407-1.9389269 6.945913.1168152 10l5.2733729-3.625192 2.1527377-1.536098-.6341398-.414747z" fill="#402a1b"/><path d="m59 125.44828c2.4757442 2.898777 6.3280625 4.159348 10 3.272241l-2.2990354-6.871705-.5787781-1.848816-.4662379.359946z" fill="#ca005d"/><path d="m68.8864865 128c3.4783316-1.40549 5.8321956-4.485701 6.1135135-8l-9 .105461z" fill="#7fc6b1"/><path d="m53.4860267 161-4.4860267-9 6.5078979 2.120594 6.4921021 2.137291z" fill="#ca005d"/><path d="m101 144.390625-9 1.609375 3.7287854-5.5 3.7138103-5.5z" fill="#7fc6b1"/><path d="m101 94.2481858-1.2985075 8.7518142-3.8507462-5.0072569-3.8507463-4.9927431z" fill="#e16f0d"/><path d="m51.2855392 79 8.7144608 4.4259598-6.5 2.2705667-6.5 2.3034735z" fill="#026a9d"/><path d="m24 120.590487 5.8486239-6.590487.0825688 6.5.0688073 6.5z" fill="#402a1b"/><path d="m205.537287 278c2.025279 5.829885 8.801588 21.873852.243642 23.853813-9.882752 2.278527-8.740677-22.832405-8.740677-22.832405z" fill="#1e2020"/><path d="m196.732888 195.927423c0 6.505054-.754203 11.444076 2.785934 19.063422 3.540137 7.619345 3.955718 15.133284 3.355434 27.646478-.345103 10.100743.009723 20.212756 1.062041 30.266569.384798 2.906193 4.925408 16.563794-.831162 17.075766-5.756571.511972-6.603125-8.748695-7.04949-15.509735-.446365-6.761039-5.648827-22.436412-8.788775-33.669676-2.785933-9.98345-4.371299-21.578106-4.001894-25.011329.507933-4.65292-7.264976-21.788918-7.264976-21.788918z" fill="#565656"/><path d="m166.220126 278.392634s4.521508 26.140371-8.209701 23.407034c-8.811539-1.902766-.35493-23.799668-.35493-23.799668z" fill="#1e2020"/><path d="m171.303256 195.332891c-1.04131 2.804263-1.626694 5.754377-1.734319 8.74031.15485 2.223413 3.096998 10.457705 2.291778 17.787298-.805219 7.329593-3.824792 28.521012-4.970681 37.061982-1.145889 8.540969-1.440104 12.69645-.836189 17.633959.603914 4.937508-1.548499 15.625221-5.682991 15.441214-4.134492-.184006-4.537101-8.801646-2.632448-15.824561 1.904654-7.022916.74328-14.214505.15485-18.906671-.588429-4.692167-2.787298-34.623895-2.911178-38.564702-.201304-6.654902 1.548499-11.791751 1.20783-15.333877-.34067-3.542126-3.189908-14.367843-3.189908-14.367843z" fill="#565656"/><path d="m197.630016 127.351207c2.826229 8.355063 6.459951 26.013934 6.817111 45.662105.279517 15.929709 1.552873 73.986688 1.552873 73.986688s-40.374689 0-55.903416-7.528738c0 0-1.552873-57.796841-.962781-70.497761.341632-7.375715.295046-35.409555 7.624605-44.973501z" fill="#579930"/><path d="m204.502778 173.592836c-.351389-19.43351-3.926389-37.014763-6.706945-45.30437l-3.3-.288466c2.475 8.213694 4.919445 24.504441 5.209723 40.643364.275 15.804909 1.527777 73.391865 1.527777 73.391865s-32.8625 0-50.233333-5.632682v3.127581c15.155556 7.591215 55 7.469872 55 7.469872s-1.268056-57.602255-1.527778-73.407164" fill="#39870c"/><path d="m179.804599 40.9839238c-1.386615-.3878407-2.640233-1.1826519-3.615009-2.2919655-1.382932-1.2508211-2.590378-2.7022054-3.586204-4.3107166-1.463897-2.0858154-2.274424-4.6006858-2.31879-7.1946466 0 0 .388865-5.813396.360061-5.3276814 0 0 6.265054-4.0982165 5.933799-14.04018604l4.421544-7.81696842c-2.918015-.04830924-5.772572.89946694-8.13737 2.70178714-3.528594 2.91428726-7.201212 8.43929022-7.806114 22.90447642s3.845447 18.8669743 3.845447 18.8669743l3.514192 5.5250029z" fill="#1e2020"/><path d="m180.551909 41.2428144c1.185751 0 2.771886-1.2215569 4.265625-2.1988024 3.572654-2.351497 7.114508-6.4284431 7.3147-10.6886228 0 0 .169393-5.8482036.138594-5.3595808 0 0-20.250169-5.7413174-19.233811-18.97994014l8.639046-4.01586826s6.621728.30538922 10.086586 3.58832335c3.464858 3.28293414 6.791122 9.16167665 6.159748 23.72874255-.631375 14.5670658-5.928757 18.4913173-5.928757 18.4913173l-4.250226 5.1916168z" fill="#1e2020"/><path d="m179.512 39.7253385-.512 10.2746615 8-5.4468085c-1.208166-3.4124791-1.264193-7.1079217-.16-10.5531915z" fill="#e38f50"/><path d="m181 40.1447124-.518219 9.8552876-7.481781-5.9369202c1.569137-3.1488731 1.99485-6.6760137 1.214575-10.0630798z" fill="#e38f50"/><path d="m187 36.5879234s-3.68254 3.5430118-6.571429 3.4037668c-2.888888-.139245-6.222222-3.9916902-6.222222-3.9916902l-.206349 2.5682968c1.257076 2.2434131 3.731618 3.5760283 6.349206 3.4192386 1.857143.0773583 4.761905-1.4233935 6.587302-4.4558403z" fill="#f19c56"/><path d="m195.713559 47.2294088-5.434973-1.9252148-.879649-2.304194-9.204897 4.7448206-4.19404 85.2551794s23.326402-1.728146 22.996534-2.455786-3.282975-83.3754419-3.282975-83.3754419" fill="#39870c"/><path d="m164.06973 46.6302788 5.418121-1.412619 1.08058-2.2176598 8.431569 5.5745285-4.06359 85.4254715s-22.326917-3.858121-21.931212-4.556835c.395706-.698715 11.064532-82.8128862 11.064532-82.8128862" fill="#39870c"/><path d="m190.671656 33.7154 1.016606 11.1450759s5.780997 9.3248627-.94074 11.0853968c-7.286411 1.6964234-14.911507 1.3396347-22.001169-1.0294649-5.826517-2.2528868 0-11.1152363 0-11.1152363l-2.746353-12.8011715" fill="#1e2020"/><g fill="#683328"><path d="m151.544416 89.8413883c1.586692 9.2189952 1.723376 18.6355877.404948 27.8981507-3.374566 26.510866-4.949364 112.522543-4.949364 112.522543l20.457371 1.737918s5.624278-128.453454 2.699653-139.9785923c-2.924624-11.5251378-2.17472-48.0214077-2.17472-48.0214077l-18.732593 14.6198508z"/><path d="m192.078884 45s13.812759 5.9522176 15.879355 7.7226208c2.066595 1.7704031 5.440008 19.5965317 6.230177 28.0059468s2.720004 18.0703221 2.811178 21.3669344c.091173 3.296613-15.195555 1.312541-15.195555 1.312541l-.471062-20.2222779-10.332977-15.2620964z"/><path d="m204.148824 92.3283509c-2.373835 9.0628641-3.408767 18.4208821-3.072276 27.7800161.261144 11.316653 7.68069 112.891633 7.68069 112.891633h-24.178813s-3.748177-129.080097.307228-140.3051178c4.055404-11.2250203 6.805092-47.6948822 6.805092-47.6948822l19.309255 16.4786353z"/></g><path d="m191.582049 27.997849s.166209-5.9124043.149588-5.4338546c0 0 2.975148-12.4422922-10.886713-16.5639944l-1.844924 34.9958763c4.404548.2006821 12.199767-6.9621263 12.515565-12.9980273" fill="#e38f50"/><path d="m171.064596 26.9732883s.379994-5.9100446.351847-5.416255c0 0-1.618496-16.17161037 10.583557-15.5389424l-1.562201 34.9819091c-1.391265-.2244242-2.687232-.9079769-3.715504-1.9597276-3.025884-2.7312739-5.896955-7.8389104-5.713995-12.0669841" fill="#e38f50"/><path d="m170.122981 14.2563087s12.805392-2.5797118 22.351789 1.8917887-3.320486-10.11559719-3.320486-10.11559719l-10.991423-2.03250021-8.162861 5.33140439z" fill="#1e2020"/><path d="m154 103.308595s-5.184507 7.286942-10.353584 5.370159c-4.561202-1.985316-6.791702-7.305207-5.061066-12.0709771 1.543008-3.5484238 5.246227-4.7523533 7.036116-5.6077769z" fill="#683328"/><path d="m168 44s-14.218655 4.6331561-16.422395 6.1775415c-2.203741 1.5443854-7.214987 19.2893734-8.784774 27.6908298-1.569788 8.4014565-4.377293 17.9457581-4.784834 21.3125183-.407541 3.3667604 14.89789 2.7798934 14.89789 2.7798934l2.354681-20.3395552 11.66775-14.4400033z" fill="#683328"/><path d="m216.529884 85.5048039s3.971391 28.8130231-11.171433 27.4481961c-15.142823-1.364828 1.515798-32.953 1.515798-32.953s2.319172 8.3709415 9.595003 5.5048039" fill="#402a1b"/><path d="m191.056565 85.8409248 37.199514.0158051.010092 23.7905951-37.199514-.015806z" fill="#01689b" transform="matrix(.24987305 -.96827861 .96827861 .24987305 62.629098 276.33112)"/><path d="m224.465198 95.4281646c1.555688.6471295-.418196 12.4734204-4.165229 12.5704904-3.747033.097069-4.014679-5.079967-2.241529-8.6068224 1.77315-3.5268556 3.345565-5.257927 6.406758-3.963668" fill="#e38f50"/><path d="m151.266827 89.606724c1.634447 9.2526867 1.775245 18.703693.417136 28.000107-1.544949 11.965073-2.765458 36.017624-3.59973 58.861427-1.019665 27.938905 7.554797-30.84602 7.554797-30.84602s-.757025-24.113753 2.271074-36.461341c2.842704-11.5978585 3.089896-63.160897 3.089896-63.160897l-10.907334 6.4109535z" fill="#4e1003"/><path d="m146.426971 107c3.102069-3.848383 5.242911-8.4351749 6.232221-13.3526462 1.073465-5.2707221-.423747-10.7532611-4.000007-14.6473538l-4.659185 24.802228z" fill="#683328"/><path d="m145.892118 68c-1.792628 2.5297656-4.593609 17.7386556-5.457912 19.6927859-3.041065 7.0136614-5.457911 15.7542291-.928325 18.6929981 10.771773 6.983365 13.940883-1.33305 15.269348-9.60402 1.328466-8.2709701-3.7133-23.3435254-2.592908-28.4636498z" fill="#683328"/><path d="m145.160824 65.98838c-.186263.3527732-.211829.759959-.070969 1.1303257s.43637.6729513.82032.8399586c.809887.1746926 1.637664-.217492 1.958105-.9277128.320442-.7102209.039836-1.530775-.663773-1.9410212-.399524-.1358549-.841314-.1171656-1.225781.051855s-.679252.4741461-.817902.8465947" fill="#e38f50"/><path d="m156 55.1489362-5.637363 16.8510638-1.120879-.2910638c.031917-.2803003-.162636-.5398078-.456625-.6090753-.293988-.0692674-.598075.072754-.713704.3333306l-1.071429-.2757447 4.186813-17.1574468z" fill="#1d2121"/><path d="m149.042134 48.3145605c-.344347 2.6705864 1.457929 5.1414761 4.090807 5.6084256 2.632877.4669494 5.164514-1.2353067 5.74631-3.8637809.581795-2.6284742-.992164-5.2528831-3.572572-5.9568833-2.8831-.5718617-5.682955 1.3107421-6.264545 4.2122386" fill="#402a1b"/><path d="m148.03287 47.5809882c-.117968.3752874.091175.7737857.473891.9029429l9.596273 2.508175c.392293.0554398.763972-.1864387.858925-.5589647.127798-.3718354-.076706-.7740649-.459081-.902943l-9.596273-2.5225074c-.40036-.0552945-.778594.1928817-.873735.5732972" fill="#1d2121"/><path d="m148.263858 70.73891c.135226-.3896715.566348-.6029592.970455-.4801105.404108.1228488.633028.5367899.5153.9317807s-.538938.6262022-.948143.5204565c-.420381-.1296032-.65853-.5602311-.537612-.9721267m-1.167917-.3060399c-.340673 1.0532901.254318 2.1767666 1.334762 2.5203285 1.124008.236129 2.236133-.4438517 2.502679-1.5301995.182136-.6656725-.01527-1.3751382-.517856-1.861148-.502587-.4860098-1.233999-.6747274-1.918721-.4950645-.684722.1796628-1.218728.7004109-1.400864 1.3660835" fill="#1d2121"/><path d="m149.056694 62.7548925c-.210443.517211.183014 1.063034.881331 1.222626.341141.0552238.698003.0077564.991661-.131904.293657-.1396605.499913-.3600057.573149-.6123031l1.438907-3.986824c.211955-.5133274-.172249-1.0574183-.863344-1.222626-.713468-.11697-1.423251.207117-1.600784.7309177z" fill="#5b361e"/><path d="m151 69c2.332261-1.8990284 2.272074-4.1955278 2.888994-6.1092773.616921-1.9137495 2.934135-4.7254892 1.805622-4.8727007-1.128514-.1472115-1.218795.6182883-2.181793 1.8990284-.598776 1.0203636-.841737 2.2037082-.692155 3.3711433z" fill="#e38f50"/><path d="m149.142327 56.11002c2.622815.7092573 1.852194 3.0837273 1.351967 4.5330791-.500228 1.4493518-.189276 6.0132682-2.109069 5.76657s-.905818 1.6343754-.905818 1.6343754l-.148716.9559555c-1.583413-.7866564-2.520294-2.6721993-2.298344-4.6255909.513748-3.1916577 1.027495-9.1278327 4.055901-8.2952264" fill="#e38f50"/></g></g></svg>