<?xml version="1.0" encoding="UTF-8"?>
<svg width="1200px" height="400px" viewBox="0 0 1200 400" version="1.1" xmlns="http://www.w3.org/2000/svg" xmlns:xlink="http://www.w3.org/1999/xlink">
    <title>toolbox / datagedreven-werken / header-04-de-juiste-methode-voor-het-juiste-doel-clean-data</title>
    <g id="toolbox-/-datagedreven-werken-/-header-04-de-juiste-methode-voor-het-juiste-doel-clean-data" stroke="none" stroke-width="1" fill="none" fill-rule="evenodd">
        <g id="bg-hero-image-datagedreven-werken">
            <polygon id="wit" fill="#FFFFFF" points="0 400 1200 400 1200 0 0 0"></polygon>
            <rect id="Rectangle" fill="#FFFFFF" x="280" y="0" width="640" height="400"></rect>
            <polygon id="wit" fill="#FFFFFF" points="0 400 1200 400 1200 0 0 0"></polygon>
            <polygon id="grijs" fill="#DEDFDE" points="0 400 1200 400 1200 265 0 265"></polygon>
            <polygon id="blauw" fill="#93D5F6" points="0 400 1200 400 1200 265 0 265"></polygon>
        </g>
        <g id="toolbox-/-datagedreven-werken-/-04-de-juiste-methode-voor-het-juiste-doel-clean-data" transform="translate(280.000000, 0.000000)">
            <rect id="Rectangle" fill-opacity="0.01" fill="#D8D8D8" x="0" y="0" width="640" height="400" rx="2"></rect>
            <g id="7176-ICTU-Toolbox_De-juiste-methode--voor-het-juiste-doel" stroke-width="1" transform="translate(196.000000, 49.000000)">
                <polygon id="Path" fill="#402A1B" fill-rule="nonzero" points="21.2023609 285 18 285 51.2833052 168 63 168"></polygon>
                <polygon id="Path" fill="#402A1B" fill-rule="nonzero" points="104.797639 285 108 285 74.7166948 168 63 168"></polygon>
                <rect id="Rectangle" fill="#E6E6E6" fill-rule="nonzero" x="4" y="60" width="118" height="119"></rect>
                <rect id="Rectangle" fill="#5B361E" fill-rule="nonzero" x="0" y="56" width="127" height="5"></rect>
                <rect id="Rectangle" fill="#5B361E" fill-rule="nonzero" x="0" y="179" width="127" height="5"></rect>
                <path d="M51.6058839,76.7471667 C51.7981306,76.7702201 51.9927224,76.7702201 52.1849692,76.7471667 C52.3684327,76.7056083 52.5426708,76.6340773 52.6997117,76.5358464 C52.8412624,76.4435328 52.9616054,76.3254737 53.0535971,76.1886774 C53.1395187,76.0296949 53.183643,75.8537246 53.1822827,75.675471 C53.1987255,75.4680171 53.1422197,75.2612268 53.0214257,75.086793 C52.9177853,74.9416361 52.772909,74.8266037 52.6031974,74.7547183 C52.4280488,74.667266 52.2371705,74.610973 52.0401978,74.5886809 L51.4128554,74.5886809 L50.5120561,74.5886809 L50.5120561,76.7773553 L50.7211702,76.7773553 L51.6058839,76.7773553 L51.6058839,76.7471667 Z M51.0428843,73.3207592 L51.4450268,73.3207592 L51.814998,73.3207592 C52.1110591,73.240427 52.38532,73.1014539 52.6192831,72.913213 C52.8423053,72.7316883 52.9663728,72.4655833 52.9570829,72.1886863 C52.9584457,72.020055 52.9141677,71.8538589 52.8283973,71.7056685 L52.5066832,71.4037823 C52.3671665,71.3290282 52.2147013,71.2779323 52.0562835,71.2528393 C51.8748029,71.2298368 51.6908502,71.2298368 51.5093696,71.2528393 L50.94637,71.2528393 L50.5281418,71.2528393 L50.5281418,73.3660421 L51.0428843,73.3207592 Z M54.6460817,71.8113286 C54.6695921,72.0119814 54.6695921,72.214448 54.6460817,72.4151009 C54.5975516,72.6051766 54.5101429,72.7845986 54.3887105,72.9434016 C54.2624442,73.119531 54.0980082,73.2686891 53.9061394,73.3811364 C53.6936066,73.5211592 53.452715,73.6187695 53.1983685,73.6679283 L53.1983685,73.6679283 C53.4355899,73.7031281 53.667688,73.7639076 53.8900537,73.8490599 C54.1035546,73.9446396 54.2991221,74.0720801 54.469139,74.2264176 C54.6344886,74.3992722 54.7652667,74.5986888 54.8551958,74.8150955 C54.9503403,75.0776043 54.9992388,75.3529131 54.9999838,75.6301881 C55.0014634,75.9998432 54.9017646,76.3636647 54.7104245,76.6867895 C54.5336025,76.9875361 54.2791867,77.2418414 53.9704822,77.4264105 C53.6399624,77.6246754 53.2753163,77.7676727 52.8927401,77.8490511 C52.4932427,77.9455839 52.0827377,77.9962688 51.6702267,77.9999941 L51.1393985,77.9999941 L50.4477133,77.9999941 L49.6916852,77.9999941 L49,77.894334 L49,70.0000059 L49.5147425,70.0000059 L50.1581706,70.0000059 C50.3833704,70.0000059 50.624656,70.0000059 50.8498558,70.0000059 L51.5737125,70.0000059 C51.9617995,69.9995155 52.3492365,70.029812 52.7318831,70.0905777 C53.0838442,70.1431892 53.4254292,70.2449456 53.7452823,70.3924638 C54.3516808,70.6795312 54.7320002,71.2645794 54.7265102,71.9018944" id="Shape" fill="#026A9D" fill-rule="nonzero"></path>
                <path d="M14.9362637,120.988764 L16.9230769,120.988764 L16.2373626,119.220974 L15.956044,117.977528 L15.956044,117.977528 L15.6923077,119.235955 L14.9362637,120.988764 Z M17.3274725,122.23221 L14.4791209,122.23221 L13.7582418,124 L12,124 L15.3406593,116 L16.6945055,116 L20,124 L18.0835165,124 L17.3274725,122.23221 Z" id="Shape" fill="#402A1B" fill-rule="nonzero"></path>
                <path d="M108,96.4773095 C107.697831,96.6714759 107.362113,96.8045379 107.011019,96.8692931 C106.606784,96.9540245 106.195382,96.9977894 105.782768,97 C105.288917,97.0022302 104.798211,96.9194109 104.331199,96.7549646 C103.879946,96.5890136 103.47103,96.3210505 103.134851,95.9709973 C102.759634,95.5782214 102.476066,95.1036159 102.305383,94.5827219 C102.085529,93.9094217 101.982944,93.2018004 102.002308,92.4921424 C101.983288,91.7691716 102.096913,91.0489648 102.337286,90.3688977 C102.545227,89.8477672 102.85458,89.3754222 103.24651,88.9806223 C103.592746,88.6433076 104.00637,88.3869713 104.45881,88.2293203 C104.896538,88.0819449 105.353903,88.0048132 105.814671,88.0006632 C106.226153,87.9948182 106.637291,88.0276209 107.042922,88.0986591 C107.324807,88.1526332 107.602141,88.2290851 107.87239,88.3273162 L107.537412,89.7809222 C107.334244,89.6690218 107.112431,89.5970093 106.883408,89.5685977 C106.575335,89.5483176 106.266307,89.5483176 105.958233,89.5685977 C105.344824,89.5514129 104.757354,89.8220944 104.363102,90.3035671 C103.91081,90.9658112 103.696609,91.7680663 103.756952,92.5738057 C103.752549,92.9813969 103.800821,93.3877938 103.900514,93.7824219 C103.987175,94.1251606 104.138945,94.4470563 104.347151,94.7297157 C104.538775,94.9905705 104.790994,95.198292 105.080911,95.3340238 C105.401352,95.4822801 105.750256,95.5548455 106.101794,95.5463483 C106.408834,95.55693 106.715604,95.5183558 107.011019,95.4320198 C107.241969,95.3754008 107.462704,95.2816883 107.665023,95.1543647 L108,96.4773095 Z" id="Path" fill="#E16F0D" fill-rule="nonzero"></path>
                <path d="M105.342144,146.495231 L104.865041,146.495231 L104.489141,146.495231 L104.489141,152.387926 L105.269856,152.387926 C105.629262,152.402671 105.986431,152.31724 106.310809,152.138939 C106.579197,151.980545 106.808063,151.746341 106.975862,151.458374 C107.154867,151.160316 107.273432,150.819998 107.322846,150.462426 C107.393668,150.086172 107.427614,149.702003 107.42405,149.317085 C107.424538,148.971603 107.395484,148.626901 107.337304,148.287938 C107.282229,147.952987 107.174445,147.632365 107.019235,147.341787 C106.859044,147.058436 106.640573,146.824707 106.383097,146.661223 C106.062544,146.468972 105.703446,146.377353 105.342144,146.395636 M103,145.001309 L103.520476,145.001309 L104.113241,145.001309 L104.706006,145.001309 L105.226483,145.001309 C105.817786,144.986399 106.406275,145.099008 106.961404,145.333291 C107.411613,145.521514 107.814028,145.835232 108.132476,146.246244 C108.440182,146.655991 108.667053,147.137305 108.797529,147.657171 C108.9343,148.241709 109.002372,148.844622 108.999937,149.449878 C109.000152,150.011307 108.932024,150.570016 108.797529,151.109792 C108.672488,151.643785 108.450803,152.141515 108.146934,152.570516 C107.824385,153.018816 107.412876,153.371739 106.946946,153.599663 C106.361869,153.882379 105.730905,154.018208 105.096363,153.998042 L104.61926,153.998042 L104.012038,153.998042 L103.419273,153.998042 L103,153.998042 L103,145.001309 Z" id="Shape" fill="#7FC6B1" fill-rule="nonzero"></path>
                <polygon id="Path" fill="#CA005D" fill-rule="nonzero" points="50 163 54.9528302 163 54.9528302 164.40113 51.6352201 164.40113 51.6352201 166.254237 54.6383648 166.254237 54.6383648 167.655367 51.6352201 167.655367 51.6352201 169.59887 55 169.59887 55 171 50 171"></polygon>
                <path d="M81.7666195,119 L104,118.695387 C103.463923,102.853238 92.9118405,89.0115925 77.5502122,84 L71,104.744125 C77.1614463,106.982687 81.3866635,112.577216 81.7666195,119" id="Path" fill="#E16F0D" fill-rule="nonzero"></path>
                <path d="M71.6305236,96.5796786 L76,82.4950541 C60.774355,78.0888183 44.4155885,83.6295239 35,96.3817325 L47.1797252,105 C52.8331047,97.5017263 62.4628449,94.1730179 71.5391756,96.5796786" id="Path" fill="#026A9D" fill-rule="nonzero"></path>
                <path d="M104,120 L93.3542337,120.135776 C93.2768938,122.62858 92.8534609,125.099861 92.0953912,127.482759 C89.5135377,135.591219 83.1964634,142.074528 75,145.028017 L78.4967846,155 C93.7003837,149.657096 103.873823,135.695312 104,120" id="Path" fill="#7FC6B1" fill-rule="nonzero"></path>
                <path d="M72.2745026,139.532304 C64.5483079,141.721646 56.253376,139.159658 51.1249079,133 L43.8434046,138.433553 L37,143.535975 C41.7587378,149.565131 48.2441203,154.011071 55.5965365,156.284505 C62.8879176,158.571832 70.7086189,158.571832 78,156.284505 L72.2745026,139.532304 Z" id="Path" fill="#CA005D" fill-rule="nonzero"></path>
                <path d="M52.1852445,114.896867 C52.5379536,113.774962 53.0190785,112.698966 53.6187489,111.690954 L34.5104413,98 C25.627595,111.345736 25.8526287,128.893726 35.074693,142 L54,127.627596 C51.5421006,123.876574 50.8757134,119.201788 52.1852445,114.896867" id="Path" fill="#402A1B" fill-rule="nonzero"></path>
                <path d="M68.673913,111 L66,119 L75,118.879473 C74.6377475,115.371485 72.2020524,112.337699 68.673913,111" id="Path" fill="#E16F0D" fill-rule="nonzero"></path>
                <path d="M59,113.69506 L65.6666667,118.51924 L66.3462783,119 L69,110.246849 C65.3005631,109.409774 61.45256,110.736647 59,113.69506" id="Path" fill="#026A9D" fill-rule="nonzero"></path>
                <path d="M57.4570742,115 C55.4731519,118.09407 55.5181473,121.945913 57.5738894,125 L62.8472623,121.374808 L65,119.83871 L64.3658602,119.423963 L57.4570742,115 Z" id="Path" fill="#402A1B" fill-rule="nonzero"></path>
                <path d="M59,125.44828 C61.4757442,128.347057 65.3280625,129.607628 69,128.720521 L66.7009646,121.848816 L66.1221865,120 L65.6559486,120.359946 L59,125.44828 Z" id="Path" fill="#CA005D" fill-rule="nonzero"></path>
                <path d="M68.8864865,128 C72.3648181,126.59451 74.7186821,123.514299 75,120 L66,120.105461 L68.8864865,128 Z" id="Path" fill="#7FC6B1" fill-rule="nonzero"></path>
                <polygon id="Path" fill="#CA005D" fill-rule="nonzero" points="53.4860267 161 49 152 55.5078979 154.120594 62 156.257885"></polygon>
                <polygon id="Path" fill="#7FC6B1" fill-rule="nonzero" points="101 144.390625 92 146 95.7287854 140.5 99.4425957 135"></polygon>
                <polygon id="Path" fill="#E16F0D" fill-rule="nonzero" points="101 94.2481858 99.7014925 103 95.8507463 97.9927431 92 93"></polygon>
                <polygon id="Path" fill="#026A9D" fill-rule="nonzero" points="51.2855392 79 60 83.4259598 53.5 85.6965265 47 88"></polygon>
                <polygon id="Path" fill="#402A1B" fill-rule="nonzero" points="24 120.590487 29.8486239 114 29.9311927 120.5 30 127"></polygon>
                <path d="M205.537287,278 C207.562566,283.829885 214.338875,299.873852 205.780929,301.853813 C195.898177,304.13234 197.040252,279.021408 197.040252,279.021408 L205.537287,278 Z" id="Path" fill="#1E2020" fill-rule="nonzero"></path>
                <path d="M196.732888,195.927423 C196.732888,202.432477 195.978685,207.371499 199.518822,214.990845 C203.058959,222.61019 203.47454,230.124129 202.874256,242.637323 C202.529153,252.738066 202.883979,262.850079 203.936297,272.903892 C204.321095,275.810085 208.861705,289.467686 203.105135,289.979658 C197.348564,290.49163 196.50201,281.230963 196.055645,274.469923 C195.60928,267.708884 190.406818,252.033511 187.26687,240.800247 C184.480937,230.816797 182.895571,219.222141 183.264976,215.788918 C183.772909,211.135998 176,194 176,194 L196.732888,195.927423 Z" id="Path" fill="#565656" fill-rule="nonzero"></path>
                <path d="M166.220126,278.392634 C166.220126,278.392634 170.741634,304.533005 158.010425,301.799668 C149.198886,299.896902 157.655495,278 157.655495,278 L166.220126,278.392634 Z" id="Path" fill="#1E2020" fill-rule="nonzero"></path>
                <path d="M171.303256,195.332891 C170.261946,198.137154 169.676562,201.087268 169.568937,204.073201 C169.723787,206.296614 172.665935,214.530906 171.860715,221.860499 C171.055496,229.190092 168.035923,250.381511 166.890034,258.922481 C165.744145,267.46345 165.44993,271.618931 166.053845,276.55644 C166.657759,281.493948 164.505346,292.181661 160.370854,291.997654 C156.236362,291.813648 155.833753,283.196008 157.738406,276.173093 C159.64306,269.150177 158.481686,261.958588 157.893256,257.266422 C157.304827,252.574255 155.105958,222.642527 154.982078,218.70172 C154.780774,212.046818 156.530577,206.909969 156.189908,203.367843 C155.849238,199.825717 153,189 153,189 L171.303256,195.332891 Z" id="Path" fill="#565656" fill-rule="nonzero"></path>
                <path d="M197.630016,127.351207 C200.456245,135.70627 204.089967,153.365141 204.447127,173.013312 C204.726644,188.943021 206,247 206,247 C206,247 165.625311,247 150.096584,239.471262 C150.096584,239.471262 148.543711,181.674421 149.133803,168.973501 C149.475435,161.597786 149.428849,133.563946 156.758408,124 L197.630016,127.351207 Z" id="Path" fill="#579930" fill-rule="nonzero"></path>
                <path d="M204.502778,173.592836 C204.151389,154.159326 200.576389,136.578073 197.795833,128.288466 L194.495833,128 C196.970833,136.213694 199.415278,152.504441 199.705556,168.643364 C199.980556,184.448273 201.233333,242.035229 201.233333,242.035229 C201.233333,242.035229 168.370833,242.035229 151,236.402547 C151,238.345898 151,239.530128 151,239.530128 C166.155556,247.121343 206,247 206,247 C206,247 204.731944,189.397745 204.472222,173.592836" id="Path" fill="#39870C" fill-rule="nonzero"></path>
                <path d="M179.804599,40.9839238 C178.417984,40.5960831 177.164366,39.8012719 176.18959,38.6919583 C174.806658,37.4411372 173.599212,35.9897529 172.603386,34.3812417 C171.139489,32.2954263 170.328962,29.7805559 170.284596,27.1865951 C170.284596,27.1865951 170.673461,21.3731991 170.644657,21.8589137 C170.644657,21.8589137 176.909711,17.7606972 176.578456,7.81872766 L181,0.00175923898 C178.081985,-0.0465499959 175.227428,0.90122618 172.86263,2.70354638 C169.334036,5.61783364 165.661418,11.1428366 165.056516,25.6080228 C164.451614,40.073209 168.901963,44.4749971 168.901963,44.4749971 L172.416155,50 L179.804599,40.9839238 Z" id="Path" fill="#1E2020" fill-rule="nonzero"></path>
                <path d="M180.551909,41.2428144 C181.73766,41.2428144 183.323795,40.0212575 184.817534,39.044012 C188.390188,36.692515 191.932042,32.6155689 192.132234,28.3553892 C192.132234,28.3553892 192.301627,22.5071856 192.270828,22.9958084 C192.270828,22.9958084 172.020659,17.254491 173.037017,4.01586826 L181.676063,0 C181.676063,0 188.297791,0.305389222 191.762649,3.58832335 C195.227507,6.87125749 198.553771,12.75 197.922397,27.3170659 C197.291022,41.8841317 191.99364,45.8083832 191.99364,45.8083832 L187.743414,51 L180.551909,41.2428144 Z" id="Path" fill="#1E2020" fill-rule="nonzero"></path>
                <path d="M179.512,39.7253385 L179,50 L187,44.5531915 C185.791834,41.1407124 185.735807,37.4452698 186.84,34 L179.512,39.7253385 Z" id="Path" fill="#E38F50" fill-rule="nonzero"></path>
                <path d="M181,40.1447124 L180.481781,50 L173,44.0630798 C174.569137,40.9142067 174.99485,37.3870661 174.214575,34 L181,40.1447124 Z" id="Path" fill="#E38F50" fill-rule="nonzero"></path>
                <path d="M187,36.5879234 C187,36.5879234 183.31746,40.1309352 180.428571,39.9916902 C177.539683,39.8524452 174.206349,36 174.206349,36 L174,38.5682968 C175.257076,40.8117099 177.731618,42.1443251 180.349206,41.9875354 C182.206349,42.0648937 185.111111,40.5641419 186.936508,37.5316951 L187,36.5879234 Z" id="Path" fill="#F19C56" fill-rule="nonzero"></path>
                <path d="M195.713559,47.2294088 L190.278586,45.304194 L189.398937,43 L180.19404,47.7448206 L176,133 C176,133 199.326402,131.271854 198.996534,130.544214 C198.666666,129.816574 195.713559,47.1687721 195.713559,47.1687721" id="Path" fill="#39870C" fill-rule="nonzero"></path>
                <path d="M164.06973,46.6302788 L169.487851,45.2176598 L170.568431,43 L179,48.5745285 L174.93641,134 C174.93641,134 152.609493,130.141879 153.005198,129.443165 C153.400904,128.74445 164.06973,46.6302788 164.06973,46.6302788" id="Path" fill="#39870C" fill-rule="nonzero"></path>
                <path d="M190.671656,33.7154 L191.688262,44.8604759 C191.688262,44.8604759 197.469259,54.1853386 190.747522,55.9458727 C183.461111,57.6422961 175.836015,57.2855074 168.746353,54.9164078 C162.919836,52.663521 168.746353,43.8011715 168.746353,43.8011715 L166,31" id="Path" fill="#1E2020" fill-rule="nonzero"></path>
                <path d="M151.544416,89.8413883 C153.131108,99.0603835 153.267792,108.476976 151.949364,117.739539 C148.574798,144.250405 147,230.262082 147,230.262082 L167.457371,232 C167.457371,232 173.081649,103.546546 170.157024,92.0214077 C167.2324,80.4962699 167.982304,44 167.982304,44 L149.249711,58.6198508 L151.544416,89.8413883 Z" id="Path" fill="#683328" fill-rule="nonzero"></path>
                <path d="M192.078884,45 C192.078884,45 205.891643,50.9522176 207.958239,52.7226208 C210.024834,54.4930239 213.398247,72.3191525 214.188416,80.7285676 C214.978585,89.1379827 216.90842,98.7988897 216.999594,102.095502 C217.090767,105.392115 201.804039,103.408043 201.804039,103.408043 L201.332977,83.1857651 L191,67.9236687 L192.078884,45 Z" id="Path" fill="#683328" fill-rule="nonzero"></path>
                <path d="M204.148824,92.3283509 C201.774989,101.391215 200.740057,110.749233 201.076548,120.108367 C201.337692,131.42502 208.757238,233 208.757238,233 L184.578425,233 C184.578425,233 180.830248,103.919903 184.885653,92.6948822 C188.941057,81.4698619 191.690745,45 191.690745,45 L211,61.4786353 L204.148824,92.3283509 Z" id="Path" fill="#683328" fill-rule="nonzero"></path>
                <path d="M191.582049,27.997849 C191.582049,27.997849 191.748258,22.0854447 191.731637,22.5639944 C191.731637,22.5639944 194.706785,10.1217022 180.844924,6 L179,40.9958763 C183.404548,41.1965584 191.199767,34.03375 191.515565,27.997849" id="Path" fill="#E38F50" fill-rule="nonzero"></path>
                <path d="M171.064596,26.9732883 C171.064596,26.9732883 171.44459,21.0632437 171.416443,21.5570333 C171.416443,21.5570333 169.797947,5.38542293 182,6.0180909 L180.437799,41 C179.046534,40.7755758 177.750567,40.0920231 176.722295,39.0402724 C173.696411,36.3089985 170.82534,31.201362 171.0083,26.9732883" id="Path" fill="#E38F50" fill-rule="nonzero"></path>
                <path d="M170.122981,14.2563087 C170.122981,14.2563087 182.928373,11.6765969 192.47477,16.1480974 C202.021167,20.6195979 189.154284,6.03250021 189.154284,6.03250021 L178.162861,4 L170,9.33140439 L170.122981,14.2563087 Z" id="Path" fill="#1E2020" fill-rule="nonzero"></path>
                <path d="M154,103.308595 C154,103.308595 148.815493,110.595537 143.646416,108.678754 C139.085214,106.693438 136.854714,101.373547 138.58535,96.6077769 C140.128358,93.0593531 143.831577,91.8554236 145.621466,91 L154,103.308595 Z" id="Path" fill="#683328" fill-rule="nonzero"></path>
                <path d="M168,44 C168,44 153.781345,48.6331561 151.577605,50.1775415 C149.373864,51.7219269 144.362618,69.4669149 142.792831,77.8683713 C141.223043,86.2698278 138.415538,95.8141294 138.007997,99.1808896 C137.600456,102.54765 152.905887,101.960783 152.905887,101.960783 L155.260568,81.6212278 L166.928318,67.1812245 L168,44 Z" id="Path" fill="#683328" fill-rule="nonzero"></path>
                <path d="M216.529884,85.5048039 C216.529884,85.5048039 220.501275,114.317827 205.358451,112.953 C190.215628,111.588172 206.874249,80 206.874249,80 C206.874249,80 209.193421,88.3709415 216.469252,85.5048039" id="Path" fill="#402A1B" fill-rule="nonzero"></path>
                <polygon id="Rectangle" fill="#01689B" fill-rule="nonzero" transform="translate(209.661368, 97.744125) rotate(-75.530000) translate(-209.661368, -97.744125) " points="191.056565 85.8409248 228.256079 85.8567299 228.266171 109.647325 191.066657 109.631519"></polygon>
                <path d="M224.465198,95.4281646 C226.020886,96.0752941 224.047002,107.901585 220.299969,107.998655 C216.552936,108.095724 216.28529,102.918688 218.05844,99.3918326 C219.83159,95.864977 221.404005,94.1339056 224.465198,95.4281646" id="Path" fill="#E38F50" fill-rule="nonzero"></path>
                <path d="M151.266827,89.606724 C152.901274,98.8594107 153.042072,108.310417 151.683963,117.606831 C150.139014,129.571904 148.918505,153.624455 148.084233,176.468258 C147.064568,204.407163 155.63903,145.622238 155.63903,145.622238 C155.63903,145.622238 154.882005,121.508485 157.910104,109.160897 C160.752808,97.5630385 161,46 161,46 L150.092666,52.4109535 L151.266827,89.606724 Z" id="Path" fill="#4E1003" fill-rule="nonzero"></path>
                <path d="M146.426971,107 C149.52904,103.151617 151.669882,98.5648251 152.659192,93.6473538 C153.732657,88.3766317 152.235445,82.8940927 148.659185,79 L144,103.802228 L146.426971,107 Z" id="Path" fill="#683328" fill-rule="nonzero"></path>
                <path d="M145.892118,68 C144.09949,70.5297656 141.298509,85.7386556 140.434206,87.6927859 C137.393141,94.7064473 134.976295,103.447015 139.505881,106.385784 C150.277654,113.369149 153.446764,105.052734 154.775229,96.781764 C156.103695,88.5107939 151.061929,73.4382386 152.182321,68.3181142 L145.892118,68 Z" id="Path" fill="#683328" fill-rule="nonzero"></path>
                <path d="M145.160824,65.98838 C144.974561,66.3411532 144.948995,66.748339 145.089855,67.1187057 C145.230715,67.4890724 145.526225,67.791657 145.910175,67.9586643 C146.720062,68.1333569 147.547839,67.7411723 147.86828,67.0309515 C148.188722,66.3207306 147.908116,65.5001765 147.204507,65.0899303 C146.804983,64.9540754 146.363193,64.9727647 145.978726,65.1417853 C145.594259,65.3108059 145.299474,65.6159314 145.160824,65.98838" id="Path" fill="#E38F50" fill-rule="nonzero"></path>
                <path d="M156,55.1489362 L150.362637,72 L149.241758,71.7089362 C149.273675,71.4286359 149.079122,71.1691284 148.785133,71.0998609 C148.491145,71.0305935 148.187058,71.1726149 148.071429,71.4331915 L147,71.1574468 L151.186813,54 L156,55.1489362 Z" id="Path" fill="#1D2121" fill-rule="nonzero"></path>
                <path d="M149.042134,48.3145605 C148.697787,50.9851469 150.500063,53.4560366 153.132941,53.9229861 C155.765818,54.3899355 158.297455,52.6876794 158.879251,50.0592052 C159.461046,47.430731 157.887087,44.8063221 155.306679,44.1023219 C152.423579,43.5304602 149.623724,45.413064 149.042134,48.3145605" id="Path" fill="#402A1B" fill-rule="nonzero"></path>
                <path d="M148.03287,47.5809882 C147.914902,47.9562756 148.124045,48.3547739 148.506761,48.4839311 L158.103034,50.9921061 C158.495327,51.0475459 158.867006,50.8056674 158.961959,50.4331414 C159.089757,50.061306 158.885253,49.6590765 158.502878,49.5301984 L148.906605,47.007691 C148.506245,46.9523965 148.128011,47.2005727 148.03287,47.5809882" id="Path" fill="#1D2121" fill-rule="nonzero"></path>
                <path d="M148.263858,70.73891 C148.399084,70.3492385 148.830206,70.1359508 149.234313,70.2587995 C149.638421,70.3816483 149.867341,70.7955894 149.749613,71.1905802 C149.631885,71.585571 149.210675,71.8167824 148.80147,71.7110367 C148.381089,71.5814335 148.14294,71.1508056 148.263858,70.73891 M147.095941,70.4328701 C146.755268,71.4861602 147.350259,72.6096367 148.430703,72.9531986 C149.554711,73.1893276 150.666836,72.5093469 150.933382,71.4229991 C151.115518,70.7573266 150.918112,70.0478609 150.415526,69.5618511 C149.912939,69.0758413 149.181527,68.8871237 148.496805,69.0667866 C147.812083,69.2464494 147.278077,69.7671975 147.095941,70.4328701" id="Shape" fill="#1D2121" fill-rule="nonzero"></path>
                <path d="M149.056694,62.7548925 C148.846251,63.2721035 149.239708,63.8179265 149.938025,63.9775185 C150.279166,64.0327423 150.636028,63.9852749 150.929686,63.8456145 C151.223343,63.705954 151.429599,63.4856088 151.502835,63.2333114 L152.941742,59.2464874 C153.153697,58.73316 152.769493,58.1890691 152.078398,58.0238614 C151.36493,57.9068914 150.655147,58.2309784 150.477614,58.7547791 L149.056694,62.7548925 Z" id="Path" fill="#5B361E" fill-rule="nonzero"></path>
                <path d="M151,69 C153.332261,67.1009716 153.272074,64.8044722 153.888994,62.8907227 C154.505915,60.9769732 156.823129,58.1652335 155.694616,58.018022 C154.566102,57.8708105 154.475821,58.6363103 153.512823,59.9170504 C152.914047,60.937414 152.671086,62.1207586 152.820668,63.2881937 L151,69 Z" id="Path" fill="#E38F50" fill-rule="nonzero"></path>
                <path d="M149.142327,56.11002 C151.765142,56.8192773 150.994521,59.1937473 150.494294,60.6430991 C149.994066,62.0924509 150.305018,66.6563673 148.385225,66.4096691 C146.465432,66.1629709 147.479407,68.0440445 147.479407,68.0440445 L147.330691,69 C145.747278,68.2133436 144.810397,66.3278007 145.032347,64.3744091 C145.546095,61.1827514 146.059842,55.2465764 149.088248,56.0791827" id="Path" fill="#E38F50" fill-rule="nonzero"></path>
            </g>
        </g>
    </g>
</svg>