<svg height="400" viewBox="0 0 1200 400" width="1200" xmlns="http://www.w3.org/2000/svg"><g fill="none" fill-rule="evenodd"><g fill="#fff"><path d="m0 400h1200v-400h-1200z"/><path d="m280 0h640v400h-640z"/><path d="m0 400h1200v-400h-1200z"/></g><path d="m0 400h1200v-135h-1200z" fill="#dedfde"/><path d="m0 400h1200v-135h-1200z" fill="#93d5f6"/><rect fill="#d8d8d8" fill-opacity=".01" height="400" rx="2" width="640" x="280"/><g transform="translate(446 60)"><g fill-rule="nonzero"><path d="m222.705619 135.928316c-1.54781-.549186-3.744225-.394288-4.496018-2.126336-.367683-1.547142-.249753-3.163499.339044-4.646959.359433-1.670781 1.531159-3.077772 3.154583-3.787976 1.252988-.66184 2.564941-1.281435 3.862153-1.830621.326402-.136528.661142-.25409 1.002391-.352042l.324303-.197144.545418-.112653c.399767-.146282.765434-.366396 1.076096-.647758.692829-.675922 1.842631.309797 1.149802.985718l-.162152.140817c.42851.225795.808593.526772 1.120319.887147.884463 1.112454 0 2.422052-.442231 3.520424-.796016 1.689803-1.474104 3.365525-3.316734 4.224508-.8496.398182-1.7694.641723-2.712352.718167-.101942.388301-.501581.6346-.913945.563268-.458491-.108708-.903314-.264515-1.326694-.464696l.471714.225307 1.076096.366124c.337076.050566.600812.304243.651427.626583.050615.322339-.1236.638772-.430311.781586.486454.49286-.162152 1.40817-.958168 1.154699" fill="#866552"/><path d="m240.500745 266.655275c2.644045-3.392173 10.297858-2.159974 13.790779-1.594611 1.333993.195737 2.687738.195737 4.021731 0 .556641-.072483 3.353762-.434894 3.367678-1.27569.003996-.915218.647996-1.69071 1.516846-1.826554-.202643-.786101.079293-1.621119.709717-2.101988l.153077-.130469c.542724-.434894-.320069-1.957023.250488-1.696086 1.795167.782809 3.075441 5.552147 3.46509 7.088773 1.057618 4.189479-1.836915 5.566643-4.397464 5.624629-7.890385.188454-16.226083.782809-22.04298-.898781-.62028-.195083-1.100279-.709361-1.270043-1.36074-.169764-.65138-.00533-1.347914.435081-1.842979" fill="#19303b"/><path d="m265.081904 264.753335c-4.050241 2.005169-10.433308 1.066853-14.640979.745512-.143118 0-3.835565-.539854-3.40621-.732658 5.910776-2.673559 10.104136-2.14656 11.449446-7.429409.247211-.800698 1.103706-1.322798 2.023518-1.23349.919812.089307 1.632278.763743 1.68324 1.593392 0-.937052.845805-1.696682 1.889159-1.696682 1.043353 0 1.889158.75963 1.889158 1.696682 0 1.915193 2.189707 4.845825.186054 6.336849-.357287.26599-.740478.502593-1.144945.70695" fill="#866552"/><path d="m278.222651 256.442705c.13836-.977166.754691 2.299214 1.3836 2.227364 1.21453-.181706 2.446984-.133153 3.647673.143701.251564-1.221458-.289298-4.555318.628909-3.664373 2.515636 2.471656 3.697986 9.829141 3.974706 13.737806.27672 3.908664.440236 8.952565-2.402433 11.25178-4.628771 3.736223-6.590968-5.604335-7.094095-10.461425-.429555-4.395503-.475903-8.828883-.13836-13.234853" fill="#19303b"/><path d="m279.049443 257.826406c.504986-.998617 1.230094-1.531213 2.265962-.932043-.142432-.093204 1.294836-1.025247 1.786873-.878783.841643.266298 1.294836 1.93066 1.683287 2.66298.98973 2.178443 1.703406 4.478528 2.12353 6.843858.621521 3.448559-2.006995 8.494906-5.956244 5.632202-2.265962-1.637732-2.926328-4.753419-2.952225-7.429713-.017661-2.012476.338312-4.00993 1.048817-5.885186" fill="#866552"/><path d="m235.853814 153.913441c-1.138419-6.855079-1.138419-13.850114 0-20.705193.443095-2.595051.830803-5.190102 1.093891-7.798956 1.465861-1.11547 3.108603-1.978598 4.860198-2.553641 2.769343-.966242 6.161789-1.380346 8.764972.207052l.80311.538335c1.19842-.404295 2.506728-.335132 3.655534.193249 2.769343 1.187097 4.292482 4.141038 5.275599 6.81891 1.030125 3.061983 1.685663 6.236742 1.952387 9.455372.813861 6.342788 1.068691 12.744465.76157 19.131598-.318475 5.107281-1.093891 10.173152-1.384672 15.294236-.208168 5.011827.112061 10.031592.955424 14.976757 1.675453 10.518238 4.444796 20.77421 5.538687 31.375269.816956 8.019812 1.606219 16.039623 2.672417 24.031828.346168 2.539837.706182 5.06587 1.066197 7.605707.221547 1.490774.429248 2.981548.650796 4.472322.138467.938636.373861 1.863468.443095 2.760693.096927 1.214704.08308 1.380346-1.066198 1.242311-1.81392-.248462-3.655533-.345086-5.538687-.455514-4.070935-.234659-8.308031-.193249-12.309732-.745387-.318475 0-2.769344-.193248-3.060125-.303676-.415402-3.450866 1.149277-7.191604 2.035467-10.476828 1.048087-3.905772 1.706694-7.905178 1.966234-11.939995.059991-3.709089-.297644-7.413179-1.066197-11.042769-.96927-5.9769-2.187781-7.578101-3.683227-13.444573-1.841613-7.191603-2.215475-14.010514-4.51403-21.064083-2.866271-8.861823-4.59711-18.041125-7.366454-26.902948-1.108194-3.518382-1.959681-7.112055-2.547796-10.752897" fill="#1e0147"/><path d="m252.963394 142.153551c.124359 1.113372.248717 2.226744.359257 3.340115.411021 3.988309 1.056951 7.949189 1.934461 11.862218.856689 3.752475 2.045 7.422477 3.053683 11.147461 2.072636 7.573676 3.744563 15.257314 6.176455 22.734772 2.2799 7.023863 4.739428 13.937763 6.577165 21.099079 1.746532 6.795082 3.130226 13.677377 4.145272 20.617992.98381 6.264501 1.086121 12.634748.303987 18.927316-.293969 1.660782-.437327 3.344482-.428345 5.03079-.008696 1.090822.107193 2.179097.345439 3.243897.224577.146847.492143.214599.759967.192435 1.893007.109963 3.108954 1.608203 4.974326 1.650374.927892.01015 1.85432-.0774 2.763515-.262096l3.026048-.632285c.386892 0 9.893383-1.745657 10.045376-.962173-2.418075-12.508248-6.812064-20.12316-8.055645-39.655271-.677061-10.597648-6.03828-20.851662-7.696388-31.311857-.842094-4.924278-1.161653-9.922956-.953413-14.913681.262534-5.085771 1.036318-10.144052 1.381757-15.229823.313077-6.360205.058759-12.735498-.759966-19.051024-.386892-3.161426-4.463076-15.023644-7.212773-16.205742-1.041045-.464081-2.207706-.570466-3.316218-.302397l-.331622.109962-.801419-.536067c-2.597704-1.553222-5.996827-1.168353-8.746524-.20618s-5.761928 2.556631-7.198955 5.278206l-.234899.508577-.290169-.481087c-.41646-.606258-1.185642-.865656-1.886865-.636322s-1.165613.892168-1.139184 1.625986h-.11054c-.868587.012936-1.579898.690545-1.630474 1.553222-.248716 4.123598 2.321353 8.137234 4.960509 11.394877" fill="#391f5d"/><path d="m240.417949 32.4956145c-.93403 3.2907823-1.691311 6.6300028-2.268541 10.0030969-.387312 2.608897-.138326 4.8550596 2.157881 6.1804351 2.822125 1.3627874 5.787032 2.4016923 8.839011 3.0971932 6.131866 1.8937389 12.485719 2.9586781 18.895289 3.1669497 2.074886 0 7.123774.4185397 8.797514-1.0184464 1.673741-1.436986 1.480085-6.0548731 1.784402-8.049912.322218-2.1180524.438042-4.2628366.345814-6.4036562-.12112-3.2250953-.500445-6.4350451-1.134271-9.5985086-.912949-4.5481305-2.766513-10.3100259-6.916284-12.8212637l-.165991-.0976592c-2.065417-2.4786858-4.921319-4.1556423-8.07822-4.743449-3.480291-.5872556-7.054757.0637431-10.111608 1.8415743-3.156213 1.8352676-5.805358 4.4399981-7.704741 7.5755671-2.029596 3.3735912-3.540663 7.0378719-4.481752 10.8680788" fill="#312b2b"/><path d="m253.58334 57.0838776c2.359962 2.1539458 7.468418 2.9812892 9.62692-.1426454 1.036082 0 2.086553-1.027047 1.712412-2.6817338l-.11512-.499259-.17268-.8558724c-.18707-.9985179-.31658-2.0255649-.431701-3.0383474 0-.4136717-.11512-.8130788-.15829-1.2267505v-.7988144c.031898-.5009327-.093798-.9993346-.35975-1.4264541v-.2424972l-.1439-.6419044c-.575601-2.2680621-2.878003-1.7973322-3.223364 0-.470015.2929205-.801793.7605547-.920961 1.2980733l-.08634.3280844c-.107964.5019162-.165803 1.0131519-.17268 1.526306-.605467-.4301108-1.441977-.3310999-1.928262.2282326l-.762671-.0855872-.17268-.2995554-.20146-.6276398c-.733891-1.4264541-2.618983-.9129307-3.007514.7132271-.087065.3803075-.087065.7751203 0 1.1554278.083793.4720025.141439.9482006.17268 1.4264542v1.1839569c0 .6989626-.10073 1.4264542-.11512 2.1254167-.199077.8721222.060901 1.7848508.690721 2.4249721" fill="#866552"/><path d="m252.127163 13.1064804c-.529153 3.0514493.617757 6.1550291 2.981423 8.067839 2.59545 1.7230819 5.767722 2.2562958 8.758822 1.4722334 3.197265-.8511207 5.831606-3.1838195 7.132592-6.3158813l-.171182-.1030563c-2.130013-2.6156692-5.075234-4.385302-8.330867-5.0055936-3.589137-.61971-7.275394.0672659-10.427849 1.9433481" fill="#312b2b"/><path d="m252 50.5073034c.088344.4516982.147239.9166816.191411 1.3285241l-.088344 1.1026749s3.946013 6.6426201 11.896933.3587015l-.603681-3.9855721v-.7572587c.033622-.4666228-.095065-.931074-.368098-1.328524v-.2258491l-4.490798.9565373-3.386503.7306882-3.0773.664262c-.089086.3541984-.089086.7219062 0 1.0761045" fill="#684f40"/><path d="m250.105504 19.6829671c.702605-.3736151 1.466662-.6008772 2.250513-.669395 1.697991-.1709094 3.827218 1.3245476 5.484781 1.5524268 2.81651.3845461 6.926727.4984857 8.4091 3.5178847 1.482374 3.019399 0 5.8963736-.592949 8.8588028-.107809.6266677-.17519 1.2533354-.24257 1.8800032h.107809c.740942-.3800629 1.59489-.4313418 2.371797-.1424245.676637.2187264 1.129885.8905266 1.105042 1.6378815-.409171 2.3083266-1.949076 4.2124684-4.042836 4.9990993-.168282 1.0236772-.462772 2.0196333-.875948 2.9624293-1.49585 3.3612177-4.406692 5.1272813-7.398391 6.7936478-2.517414 1.4660237-5.624401 1.1731408-7.856579-.7406074-2.587416-1.8657607-3.274698-4.5860683-3.54422-7.7336493-.477996-3.3568804-.345354-6.7793334.390807-10.0836533 1.105042-4.0733402.606426-10.6391089 4.514501-12.8182034" fill="#866552"/><path d="m273.080247 85.184636c0-2.9549132-.678685-22.520857 1.9114-25.0062979.914148-.8699044 2.908652 1.6845766 3.476531 2.4578249 1.71749 2.361169 2.216116 5.2470421 2.977906 8.2848033 1.732407 7.7084504 2.660724 15.5748083 2.770144 23.4736094.37397 9.4584833 1.828296 19.1240873 2.88095 28.6239953.609432 5.523202.831044 11.046404.900297 16.652455v8.878547c0 1.546497.110806 3.410578-1.135759 4.142402-2.049907 1.270336-2.617786-1.684577-3.005607-3.479617-.77564-3.576274-1.53743-7.180163-2.243817-10.797861-1.790932-8.226975-3.15015-16.541486-4.072112-24.909642-.295024-2.71665-.81387-5.404479-1.551281-8.036259-1.499428-5.6597224-2.459389-11.4479574-2.867099-17.2876228 0-.8284803 0-1.6569607 0-2.499249z" fill="#866552"/><path d="m240.037234 109.446627-1.369538 2.209931c-1.82605 3.038655-3.738838 6.026666-5.738364 8.964033-1.09563 1.643636-4.32774 8.466799-6.423133 5.745821-.698464-.925409-.493033-.939221-.424557-2.127059.314994-4.820412 2.547341-9.903254 4.341436-14.323116 1.747066-4.279372 3.783334-8.432755 6.094444-12.4308628 2.095393-3.6187623.671073-7.1408401.301298-11.0496559-.488458-5.3831759-.525109-10.7983466-.109563-16.1877458.260212-3.3287088.383471-12.085561 3.684057-14.1021232 1.62975-.994469 3.396454 3.3839571 2.396691 4.4474865 1.53271 2.8255648 2.640446 5.8652086 3.286891 9.0192815.314598.326336.512207.7492256.561511 1.2016501.590753 5.3847348.457155 10.8252914-.397166 16.1739337-.424557 3.6187623-.616292 7.320397-1.123021 10.8977231-.588901 4.1436208-2.889725 7.9833768-5.094681 11.5745148" fill="#866552"/><path d="m237.007188 118.707198c.839324-2.550045 1.9864-5.002548 2.797746-7.552594.917693-2.836169 1.292559-5.818783 1.10511-8.792779-.293764-5.5738702-2.09831-10.9108507-3.077521-16.3871778v-.1532815-.0696733c0-.3344322-.069943-.6688644-.097921-1.0172313 0-.5852563-.083932-1.1844473-.083932-1.7697037 0-.5852563.069944-1.3934675.11191-2.0344625v-.1811508l.083932-.599191c.433651-2.6336535 1.133087-5.2115683 1.804546-7.7894832 1.398873-5.5738699 2.434039-11.0223277 1.636681-16.7216097 2.797746-.8500151 6.071109-.7664071 8.8129-1.3098594 1.575757-.5380253 3.303682-.4122031 4.784145.3483669.845653.6205606 1.791979 1.0918956 2.797745 1.3934675 1.846513.3623015 2.909656-.8500152 4.420439-1.5606836.577524-.271848 1.207765-.4145311 1.846512-.4180403 1.398873 0 2.923644 1.3934675 4.196619 1.9090505 2.797745 1.3098594 5.595491 2.4385681 8.393237 3.6230154 1.369446.4140843 2.338662 1.6292466 2.434039 3.0516938.20983 2.2574173-.88129 4.3615532-1.147076 6.5492971-.312656 2.9946336-.779563 5.9712879-1.398873 8.9181919-1.300952 5.7550206-3.595103 11.2313478-4.812123 17.0281725-1.050313 4.4102943-.718325 9.0353105.951234 13.2518755 1.119098 2.995955 2.252185 5.977976 3.371283 8.973931.573538 1.49101 1.776569 3.093498 1.87449 4.70992.195842 3.40006-6.882454 4.459096-9.232561 5.183699-5.348973 1.720749-10.86164 2.888131-16.450745 3.483668-3.414281.407547-6.872284.261668-10.239749-.431974-2.106498-.451809-4.105973-1.303388-5.889255-2.508242.097921-2.396764.265786-4.779593.461628-7.162423.149213-.668864.331067-1.323794.54556-1.964789" fill="#866552"/><path d="m238.527757 95.4746004c.8416 3.6905649 1.011545 7.4995846.501891 11.2489526-.19518 1.376861-.515832 2.836334-.738895 4.2545-.097589.660894-.195179 1.376861-.278828 1.98268l-.069707.509439c0 .385521-.083648.757273-.139414 1.129025-.334594 2.753722-.655246 5.507444-1.171078 8.164785-.125473 1.707308-.237004 3.400847-.306711 5.108154 1.77725 1.190495 3.76996 2.031925 5.869333 2.47835 3.356074.685375 6.80238.829516 10.205112.426826 5.570199-.58844 11.064218-1.74191 16.395098-3.442152 1.031664-.316678 2.955579-.702199 4.781904-1.294249 2.356098-.784811 4.530958-1.941374 4.419427-3.827673-.09759-1.597159-1.310493-3.180549-1.868149-4.65379-1.115313-2.960251-2.244567-5.906733-3.35988-8.866984-1.666373-4.166154-1.992526-8.7382011-.934075-13.0939462.529774-2.5471925 1.28261-5.0393106 2.063329-7.5176602-.960646-2.2657614-1.598726-4.6520698-1.896032-7.0908333-.090804-.855231-.132695-1.7148394-.125472-2.5747298.101909-2.6569133.400119-5.3029315.89225-7.9169498.529773-3.304466 1.394141-7.3524369 3.35988-10.2713819l-3.959361-1.6797702-.669187.5645129c-4.970356 3.5759728-11.22539 4.9432071-17.259466 3.7725987-4.357093-.8630926-8.222087-3.3225565-10.818534-6.8843042-1.034228.1737637-2.044695.4648302-3.011344.8674223-.083649 4.3646489.195179 8.7292978-1.47779 12.8874175-2.021504 5.0117735-6.385165 11.0148868-4.447309 16.6187104.620127 1.2505375 1.387569 2.424403 2.286391 3.4972265l.083648.1514547c.490852.9215297.856482 1.9029757 1.08743 2.918945.223063.8398851.39036 1.6935389.557657 2.4508123" fill="#391f5d"/><path d="m236.057377 90.0913043.086066.1304348c.502757.878495.878809 1.8122849 1.118852 2.7782609 1.999525-.0129759 3.966703-.460173 5.737705-1.3043478-2.490001.3265232-5.018629-.2860015-7-1.6956522" fill="#1e0147"/><path d="m268.267462 92.3364914c-1.095804 5.5012225-1.256165 14.4544626.146998 17.9614916 1.055713 2.640587 3.94222 10.837408 5.345383 14.702017 2.258424-.783924 4.343124-1.939181 4.236216-3.82335-.093544-1.595354-1.256165-3.176956-1.790703-4.648533-1.069077-2.956907-2.151517-5.900061-3.220594-8.856968-1.604174-4.159837-1.916958-8.7289335-.895351-13.0791563.507811-2.5443154 1.229438-5.0336186 1.977791-7.5091687-.920821-2.2632022-1.532449-4.6468151-1.81743-7.082824 0 .7976773-.253906 9.6271394-3.94222 10.2322738-2.090808.3229586-4.216744.3229586-6.307552 0 0 0 2.85978 2.8881418 6.320916 2.0492054" fill="#1e0147"/><path d="m276.37589 166.278564c2.629133-7.808488 5.684613-9.817193 8.043727-9.788901 3.226018-.16975 6.835748 4.371055 7.105767 7.072905.04521.327227.222153.622089.490177.816842.268025.194753.604087.272653.930976.215802.326979-.048694.620745-.225711.815681-.491512s.274803-.598242.221761-.923069c-.667942-3.833515-4.391364-9.010881-9.564362-9.180631-3.936594 0-7.674228 3.352557-10.360207 11.458107-.206328.640199.141698 1.326732.781634 1.541893h.383711c.523733-.003956.986717-.339631 1.151135-.834603" fill="#020203"/><path d="m270.21938 197c-1.966422-.827269-7.21938-3.460743-7.21938-5.418614 0-1.95787.412536-25.107621 1.37512-26.638069 1.471378-2.454232 35.89063-3.943317 37.196994-3.943317 1.538214.286056 3.028734.787314 4.427886 1.489085l-31.627758 14.628877z" fill="#2d2e2f"/><path d="m269.074424 195.158749c-.016884.538463.210981 1.055739.620083 1.407652.409102.351914.955698.500836 1.48744.40526l36.227364-6.427597c.964226-.16481 1.666734-.604304 1.584086-1.703038l-1.914678-25.133552c-.006362-.476412-.209445-.929132-.561376-1.251437-.35193-.322305-.821569-.485676-1.298204-.451602l-35.001418 3.351141c-1.199428.158531-2.124135 1.13206-2.217721 2.334811z" fill="#040305"/><path d="m289.577543 184.491817c0 .938742.742688 1.605386 1.428246 1.496546l11.783038-1.850275c.827951-.252593 1.333763-1.047883 1.185445-1.863881l-.599864-7.809251c-.071412-.897928-.714123-1.550966-1.428247-1.455731l-11.668777 1.578176c-.852494.230412-1.391372 1.029551-1.256858 1.86388z" fill="#2d2e2f"/><path d="m273.392025 187.388872c0 1.003157.70507 1.723735 1.477935 1.596575l11.891273-2.034574c.82655-.262817 1.345025-1.115241 1.220313-2.006315l-.461007-8.378485c0-.960771-.69151-1.66722-1.355903-1.554188l-11.79636 1.737865c-.87727.209931-1.461826 1.074891-1.355904 2.006315z" fill="#2d2e2f"/><path d="m280.392447 169.292709c2.63016-7.808487 5.686832-9.817192 8.03265-9.788901 3.241494-.169749 6.838415 4.371056 7.10854 7.072906.05232.322876.231651.611753.498398.802848.266746.191095.598967.268689.92331.21565.328099-.044662.623402-.221336.816897-.488732.193496-.267397.268228-.602085.206733-.925849-.653986-3.833515-4.378861-9.010881-9.568095-9.180631-3.938131 0-7.663006 3.338411-10.350034 11.458107-.207741.636148.133211 1.320916.767722 1.541893h.383862c.527757-.002242.99595-.337423 1.1658-.834603" fill="#020203"/><path d="m282.753618 158.050935c-.091103-.284234.003497-.594341.23867-.782381.235172-.188039.56327-.215913.82777-.070324.322676.1733.666789.304859 1.023783.391405l.483453.125809c-.43959-.108296-.86444-.267853-1.265509-.475278-.348574-.211045-.467427-.653821-.270165-1.006471-.613118-.656062-1.095451-1.419487-1.421921-2.250581-.796275-1.789282-.142192-3.452755.426576-5.200101.3697-1.13228.668303-2.614029 2.047566-2.879626.469365-.091892.952555-.091892 1.42192 0v-.195702c0-.936578 1.421921-.950556 1.493017 0 .033875.405255.149907.799748.341261 1.160237l.312822.405384.099534.363448.483453.880663c.568769 1.230131 1.08066 2.516177 1.549894 3.788245.689757 1.554492.589536 3.338337-.270165 4.808695-.564283 1.463573-1.553093 2.732151-2.843841 3.648458-1.706305.810769-3.170883-.670981-4.663899-1.24411-.753618-.293554-.597207-1.397877.085315-1.46777" fill="#866552"/><path d="m155.893204 139.149195-.364617-1.894685c2.498569.916288 5.251459.825119 7.685005-.25451l.084143 1.413944 3.702265 13.09312-1.402373 8.483663-2.902913 3.916624c-.52286.175484-1.096692.099099-1.556467-.207188-.459775-.306286-.754538-.808529-.79952-1.362289-.322546-2.163334-1.584682-11.905407-1.584682-11.905407s-1.472492-.537299-1.640776 1.413943c-.168285 1.951243-.897519 4.736712-3.113269 4.722573l.22438-8.907846z" fill="#f9c5af"/><path d="m100.890869 129c.194877 0 48.204343.304017 48.468819.13819l.640312 25.205784-2.129733 42.520943-5.47049 61.135083h-10.495545l-2.004455-60.084842-3.201559-44.621425-2.394209-.096732-4.816258 43.21189-9.242762 61.591109h-10.119711l.904789-61.812212-1.030067-44.082485z" fill="#1f7aa7"/><path d="m100.879947 129s5.045946 0 11.755542.082914c-.371227.621853 37.122766 9.770005 36.352812 9.908195-14.28539 2.238671-42.512441 1.699732-42.746177 7.17204-.302482 7.44842 1.374918 48.80857.67371 61.231816-.67371 12.823996-1.567406 46.569898-2.007379 50.605035h-4.784712l.893696-61.812212-1.017439-44.082485z" fill="#01689b"/><path d="m135.769886 237.601425c0 6.818002-.06392 13.622146.230114 20.398575h-4.21875l-1.828125-60.253398-2.953125-44.746602s6.392045 29.364524 7.146307 40.561568c.920454 14.661475 1.700284 29.350666 1.623579 44.039857" fill="#01689b"/><path d="m101 128.986244v-1.54067 1.554426m.269231-5.667464 1.730769-17.332536v.453947l-.487179 4.89713-1.205129 11.967703" fill="#e5e5e5"/><path d="m109.448886 258 6.882652 4.70366c6.240081.623377 6.668462 7.29634 6.668462 7.29634h-25.9170405c-.330674-4.095273.3302693-8.209638 1.9277138-12z" fill="#e6ebee"/><path d="m116 269h-5.275407c-.172735-.507082-.441834-.972929-.791311-1.369863-3.01365-3.25594-6.776502-5.660379-10.933282-6.986301.0415465-.218769.0988581-.433987.1714507-.643836 6.4887513 1.123288 12.6741663 2.739726 16.8021723 9" fill="#182e38"/><path d="m141.574748 258 12.060908 4.70366c5.9555.623377 6.364344 7.29634 6.364344 7.29634h-29.791125c-.492794-4.036587-.110973-8.13665 1.117507-12z" fill="#e6ebee"/><path d="m151 269h-6.652268c-.21367-.377486-.490642-.721658-.820734-1.019868-3.607036-3.097267-7.872255-5.473878-12.526998-6.980132 7.573794 1.231788 15.233981 3.284768 19.956803 7.94702" fill="#182e38"/><path d="m123 269h-25.8968405c-.0809972-.664767-.1143398-1.332436-.0998776-2h25.3689161c.324376.642334.535504 1.314925.627802 2" fill="#2e5a71"/><path d="m159.372157 267c.32592.641081.53718 1.314052.627843 2h-29.836215c-.095541-.691489-.136487-1.329787-.163785-1.946809h28.66242c.213574.011568.427919.011568.641493 0" fill="#2e5a71"/><path d="m103.123306 91.3936357h-2.427388l1.974824-13.6184157.452564 13.6460393m-18.4042636 5.414218-.7131309 3.8811107c-.0767275 1.707664.5965211 3.362825 1.8407746 4.525486s2.9334497 1.715027 4.6185457 1.510262l13.0832092-1.795532v1.035884l-1.865111 17.389032-.644561 15.510629c16.12773 0 32.25546 0 48.396904.165742l-.37028-15.676371-1.371406-17.596209.466278-23.162356c0 3.3148274.918842 22.278402.918842 22.278402l6.404464 37.098443 8.516429-1.698849-3.716509-40.4823291-2.523386-43.4932972c-1.540817-3.7940218-4.839782-6.5791118-8.818138-7.4445498l-23.670461-8.6599864v-.2209885h-.150855l-.301709.1104942-.301709-.1104942h-.150855v.2209885l-23.67046 8.6599864c-3.9783568.865438-7.2773217 3.650528-8.8181384 7.4445498z" fill="#cbbba0"/><path d="m88.9224204 105.917786c-2.7505057-.408964-4.8139577-2.715572-4.9031679-5.480954.0496813 2.796753 2.1226084 5.148711 4.9031679 5.563168m59.0997006-1.288024.275459-14.0997535.70242 14.0038365-.977879.068512m-64.0166415-4.37106c-.007306-.077477-.007306-.155464 0-.232941-.0068349.082074-.0068349.164569 0 .246643m.3718695-2.2197863.3443236-1.9183338zm.3443236-1.9183338 7.1757036-40.1890929-7.1757036 40.120581m18.0425564-18.7311592c-.005933-.0638083-.005933-.1280252 0-.1918334z" fill="#dbdbdb"/><path d="m102 110 .38-5z" fill="#c5c5c5"/><path d="m102.343407 110 .529432-4.876712v-.452055-1.027397l-13.2915436 1.780822h-.640892c-.3269128.00078-.6532615-.026723-.9752706-.082192-2.79749-.411659-4.8895984-2.740229-4.9599472-5.5205482-.0069141-.0820512-.0069141-.1645241 0-.2465753v-.0958904l.3761758-1.9041096.3483109-1.9178083 7.2587992-40.1780821c.9185966-2.2343104 2.5015986-4.1440491 4.5419741-5.4794521-3.0512035 5.3561644-4.1797308 14.4931507-4.2911903 15.4109589-1.2817841 7.2739726-1.6997572 14.5342466-3.0651359 21.9178082-.6548245 3.4794521-1.9923384 8.6027397.640892 11.7671233 1.0867301 1.3013696 5.5729745 1.7534246 11.1459489 1.7534246 8.7727547-.183602 17.5296927-.819178 26.2347777-1.9041095 3.733892-.4657534-.320447-7.2876713-.320447-7.2876713h-5.684433l-17.749924-1.369863s-.362243-10.9589041-.445838-13.3287671v-.1917808c.487635 3.5342466 2.507838 8.0821918 5.572974 10.0684931 3.041608 1.6908398 6.515713 2.4805663 10.00349 2.2739726 1.212121 0 2.424243 0 3.594568-.0958904 1.393244-.0684931 2.911879-.0958904 4.360853-.0958904 7.49565 0 14.977368.7534247 22.473019 1.150685l-.278649 14.0958908c-1.839081.150684-5.89342.465753-9.655178.643835h-.125392c-1.075435-.005956-2.010095-.727605-2.270987-1.753424-.278649-1.164384.208987-2.342466-1.393244-2.424658h-1.462905c-8.652043 0-18.042505 3.520548-25.719277 6.849315l-4.806691 2.520548" fill="#b7a890"/><path d="m142.974406 83.0010932h30.010969c1.597806 0 2.014625.5666798 2.014625 1.7967896l-3.765265 19.3500422c0 1.230109-1.01426 1.852075-2.264717 1.852075h-29.705301c-1.250457 0-2.264717-.552858-2.264717-1.769147l3.654113-19.0597908c.007169-.5902064.252703-1.1527337.681309-1.5609045.428606-.4081709 1.004251-.6276689 1.597302-.6090645" fill="#9abccc"/><path d="m130.305816 90.1331521 8.25985-3.1331521h2.434334l-2.082552 11.3768234-4.319887 1.392512c-1.794283.4446536-3.689946.2422456-5.347092-.5709299l-3.250469.6823309.703565-7.1575119z" fill="#f9c5af"/><path d="m151 90.8132147-1.58127 4.54892c-.47428 1.2538592-1.609391 2.2082191-3.022605 2.541296l-8.53606 2.0965693-6.059204-.3684879c-.597552-.1297364-1.186277-.2909581-1.763186-.4828463l-3.988159.4955528-1.049516-6.8487929 11.320775-2.7954257z" fill="#f9c5af"/><path d="m142.943379 12.1661072-1.783575 14.9862408c-.394721 3.274304-2.094236 6.2543571-4.717809 8.272553-2.623574 2.018196-5.951906 2.9058366-9.239367 2.4640683-7.077676-.8302237-12.27269-14.0715876-12.201913-18.6448535l1.104117-10.2441158 26.895168 3.1661072" fill="#f9c5af"/><path d="m133.534987 28.976582.465013 15.6113602c-.677591 2.5949178-3.985828 8.3707025-5.460585 11.4120578-.522253-.0276894-1.045505-.0276894-1.567759 0-2.258636-3.3622322-7.971656-10.5889387-7.971656-12.4025909l1.328609-15.5974091 13.166519 1.060289" fill="#f9c5af"/><path d="m133.915966 39.4190856.084034 2.6082771c-2.941176 2.2436793-8.529412.168276-11.204482-1.8229894-1.655844-1.2628766-2.962267-2.928101-3.795518-4.8379334l.57423-6.3664399c2.268907 5.2866693 9.089636 8.5960962 14.29972 10.4190856" fill="#d8ac99"/><path d="m129.628528.0091523 15.668598 3.08578188c2.701482 8.53211582-3.255286 10.03945622-3.255286 10.03945622l-15.357928-1.919726c-.992229-.2027293-2.01872.0692566-2.801573.7423232-.782852.6730667-1.241088 1.6775928-1.250651 2.741624l-.702385 4.2660579-1.98559-.2559634s-.526789-1.8059645-1.553352-1.9481665c-.769923-.0853211-1.526338-.1137615-1.809994 2.3889924-.769922 6.8541331 2.539394 6.6408302 2.539394 6.6408302l.378207 5.1050492-.634848 2.1045886c-2.008158-4.2037778-3.314896-8.7397196-3.86312-13.409642l1.0941-9.6697312c1.242682-11.07753032 13.507413-9.88303411 13.507413-9.88303411" fill="#673327"/><path d="m133.415 38h.05l.12-1-.17.06z" fill="#e5e5e5"/><path d="m132.518868 38c.163616-.0277849.32434-.0627811.481132-.1047619v-.8952381c-.974844.1952147-1.983341.3040683-3 .3238095.877358.2476191 1.740566.4761905 2.561321.6761905" fill="#e0b19d"/><path d="m129.520436 39c.837097-.0020063 1.670409-.0869086 2.479564-.2526316-.790191-.2210526-1.621253-.4736842-2.46594-.7473684h-.326976c-2.628728-.0057219-5.174371-.7121498-7.207084-2 1.737582 1.8752892 4.535457 2.9913979 7.520436 3" fill="#c29b8a"/><path d="m120.148442 16 1.969467.2268113c-.853894 13.555313 4.613786 13.9155428 11.362309 14.6760279 7.519782.853878 7.519782-5.3367374 7.519782-5.3367374s0 14.9028392-9.089847 14.4225328c-13.96531-.7204595-12.891055-15.2230434-12.891055-15.2230434z" fill="#673327"/><path d="m127.279247 31.7283025c.311937-2.3085693 2.607788-3.959128 5.149162-3.7018934l3.427912.3582478c2.564113.2703436 4.404068 2.3772459 4.113495 4.7102944l-.160456 1.1676222c-.149169 1.1248338-.786386 2.1487833-1.769873 2.8440256-.983487.6952424-2.231661 1.004105-3.46681.8578678l-3.427912-.3715162c-1.231909-.1231826-2.358898-.6882908-3.131095-1.5700308-.772198-.8817401-1.125797-2.0072533-.9824-3.1269952z" fill="#673327"/><path d="m137 32.6226095c-.221341 1.6301048-1.562408 1.4376619-3.202936 1.2678593s-2.994615-.260364-2.773274-1.8904688z" fill="#f9c5af"/><path d="m151.873563 90.8863636c.622114 0 1.126437.4273646 1.126437.9545455s-.504323.9545454-1.126437.9545454l-12.873563.2045455.241379-3z" fill="#f9c5af"/><path d="m133.252941 40.1960327.837255-.1960327 2.909804 2.5624271c0 3.6546091-2.292157 9.4375729-2.292157 9.4375729l-4.707843-5.9509918c4.021569-2.3383898 3.252941-5.8529755 3.252941-5.8529755" fill="#f8f9fa"/><path d="m134 50.7009346c-.293461 2.8221963-2.819811 5.0534127-6 5.2990654l2.621053-9z" fill="#d5dde2"/><path d="m123 45.8792497-4.522968 5.1207503c-1.432827-2.512442-2.598156-5.1669287-3.477032-7.9202814l3.420495-4.0797186s1.272085 5.1066823 4.579505 6.8792497" fill="#f8f9fa"/><path d="m127 56c-1.589825-.4089993-3.100194-1.0619093-4.472589-1.9334342-2.569963-2.4099849-2.527411-3.4583964-2.527411-3.4583964l3.421929-3.6081694z" fill="#d5dde2"/><path d="m167 166h8v98h-8z" fill="#683328"/><path d="m103.123482 166h135.753036c1.756659-.119065 3.123482-1.650651 3.123482-3.5s-1.366823-3.380935-3.123482-3.5h-135.753036c-1.756659.119065-3.123482 1.650651-3.123482 3.5s1.366823 3.380935 3.123482 3.5" fill="#683328"/><path d="m103 165c44.408163 2.864934 89.70449 2.460753 136 0z" fill="#683328"/><path d="m131.04153 269h79.95847c-.059145-3.289661-2.795228-5.942651-6.187922-6h-67.637999c-3.387288.064482-6.115164 2.715446-6.174079 6" fill="#683328"/><path d="m159.333992 128.002422h52.920892c.73659-.031801 1.452599.25074 1.97392.778919.521321.528178.800193 1.253606.768806 1.999887l-3.908384 28.218772h-50.082171l-3.894671-28.17709c-.562259-1.139311 1.110804-2.778806 2.235322-2.778806" fill="#cfd6e0"/><path d="m185 142c-1.68 0-3 .67623-3 1.5s1.365 1.5 3 1.5 3-.67623 3-1.5-1.365-1.5-3-1.5" fill="#adb4bb"/><path d="m147.364479 144.122581c-.9967.010435-1.901784-.537948-2.292318-1.3889-.390535-.850951-.189409-1.836449.509394-2.495984.698803-.659536 1.757305-.862883 2.680881-.515021.923577.347862 1.529869 1.178248 1.535605 2.10313.007694 1.256362-1.079643 2.282599-2.433562 2.296775m-48.364479-6.683871.0973408 9.56129 56.9026592-.451613-.097341-9.548387z" fill="#454444"/><path d="m144 142.029003c.015973 1.651107 1.363206 2.978926 3.0144 2.970997 1.651194-.008 2.9856-1.348753 2.9856-2.999937s-1.334243-2.992009-2.985437-3.000063c-1.645592.007931-2.977646 1.339961-2.985577 2.985525" fill="#fff"/><path d="m143.362372 156.161324c-1.354152.006742-2.459982-1.00229-2.47506-2.258442-.015077-1.256153 1.066258-2.287777 2.420237-2.308975 1.35398-.021198 2.472224.97599 2.502846 2.231899.007433.606757-.247198 1.191039-.707099 1.622526-.459902.431487-1.086819.674288-1.740924.674249m-48.362372-6.683871.0834553 9.56129 56.9165447-.451613-.083455-9.548387z" fill="#454444"/><path d="m140 154c0 1.656854 1.343146 3 3 3s3-1.343146 3-3-1.343146-3-3-3c-1.653542.007969-2.992031 1.346458-3 3" fill="#fff"/><path d="m80.6849942 111.016331c-2.7222561-3.645818-5.685782-7.097494-8.8698365-10.330871-3.504133-3.5599627-4.1064059-9.688682-4.9824391-14.337574-.739153-3.9368994-7.4736586-27.9212727-14.7146208-22.574349-.7739358.6632525-1.1867537 1.6664707-1.1087296 2.6944029.1368802 4.0625451 2.2037711 8.5857913 3.9147735 12.1876355.124491.3085595.3824085.5406662.698089.6282286.8897213 4.9979079 1.3003619 9.1860988 3.0934924 13.6814237 1.368802 3.4343165 3.8463335 7.2176493 5.2698875 10.5821623 1.6288743 3.853136 4.8044948 6.980318 7.802171 9.856209l1.8478826 1.773001c2.4912196 2.429151 5.0645672 4.802459 7.6789789 7.105964 1.4509301 1.284379 6.2691129 6.980318 7.4599706 3.72749.4106406-1.10289.2053203-1.061008-.1779443-2.205781-1.5878102-4.648891-4.9961271-8.976689-7.8432351-12.787942" fill="#866552"/><path d="m95.2643263 128.243827.0937901-.246913c.3278665-.518944.5354212-1.151068.5979118-1.820988.0586291-.583881.0586291-1.175379 0-1.759259-.0711964-.120698-.1158096-.264841-.1289613-.416667l-2.0633821 1.188272c-.2067774.155079-.3961707.347248-.5627406.570987-.1632588.24487-.2323706.574645-.1875802.895062.0589056.233582.1593991.445231.2930941.617284l1.0668623 1.54321c.0722979.115388.1794768.183107.2930941.185185.1278668-.006593.2509155-.065982.3517128-.169753.1363051-.176487.2300911-.40192.2696465-.648148" fill="#7b5642"/><path d="m93.3551678 122.58617c1.1064708.346244 2.1402033.913126 3.0455481 1.670131.3461262.267403.555716.689375.5675794 1.142721 0 .864366-.6506398 1.172022-1.2182192 1.538279-.5675795.366257-.8721343.761814-.7475437 1.289224.0791392.243697.2176164.460993.4014586.629961 1.8688591 2.065689 2.7686801 2.812853 4.596009 4.878541-.578227.353297-1.2906321.353297-1.8688591 0-.5745583-.326637-1.0900717-.758125-1.522774-1.274574-1.4950873-1.596879-1.9796063-1.889885-3.4885369-3.486764-.5952663-.629962-1.5781477-1.289224-2.1872573-.673913.1938076 1.113421 1.38434 1.62618 2.4087517 2.094989.201981.073418.3289446.285134.3057246.509805-.02322.22467-.1904265.402336-.4026284.427812-1.2879784.2226-2.6094307-.003624-3.765405-.644612-1.5659517-.889257-2.6880229-2.456506-3.0732349-4.292529-.1245906-.586011-.1522774-1.201323-.3045548-1.787333-.0952861-.240494-.1240898-.504676-.0830604-.761815.0873525-.239325.2482653-.440579.4568322-.57136 2.0684011-1.387443 4.634648-1.659025 6.9217003-.732514" fill="#866552"/><path d="m59.474316 65.0071907c-.2092571-.3200094 5.6638905 10.1150812 7.1426402 16.5013566 1.4787498 6.3862754 3.2644098 15.0821842 6.1940084 18.0874903 2.9295985 3.0053064 8.2168264 8.8211304 8.1890354 8.7933034l-6.1662174 7.610659c-3.1688329-3.082299-6.1679274-6.333535-8.9841022-9.739418-3.1261012-4.211402-5.4480331-8.9608555-6.8496804-14.0108481l.474316-27.2147163" fill="#26262b"/><path d="m39.4058876 143.722437c.3405156-2.347274.5574369-4.710829.6498662-7.080881 1.3897829-.145845 2.4711013-1.27416 2.5579839-2.669161 0-1.576602 0-3.153204-.0829616-4.715977.62842.498157 1.4420804.698962 2.2300487.550357.7879683-.148604 1.4726514-.631984 1.8765525-1.324828.4092507-.880231.7020817-1.810049.8710973-2.76597.838729.366844 1.8046078.294772 2.5796314-.192488s1.2587479-1.326558 1.2919118-2.241564c0-.760642 0-1.521283-.0691347-2.281925 4.1480821 8.297907.5530776 17.785182 4.3693132 26.152238.4148082 4.453211 3.0142729 8.878761 3.4429081 13.331972.2074041 2.060647 1.7975022 5.075553 1.7975022 7.19152 1.1752899 8.740462 3.7194469 16.595814 4.0651204 25.460746.4424621 11.271324.3456735 22.556478.8849242 33.813973.0691347 1.521283-.3871543 22.127753 2.1293488 30.674597l-.3041927.096809c-2.6749638.754017-5.5468652-.052206-7.4388938-2.088306-1.7283676-8.173439-3.8162355-16.250069-5.5307761-24.423508-.8987511-4.287252-1.6592329-8.615994-2.1846566-12.958565-.5254237-4.342572-.691347-8.809612-1.0785013-13.193673-.2882886-4.263791-.7913059-8.510333-1.5071365-12.723458-.8312372-4.091007-1.8789489-8.135008-3.1387154-12.114945-2.2952721-7.523436-4.9500446-15.046873-5.6828725-22.916055-.3180196-3.485121-.4148082-7.094711-.7604817-10.648981-.6360392-.124469-1.2720785-.235107-1.9219447-.331916-.5296362-.095205-1.0280155-.318336-1.4518287-.650003 1.1790983.047873 2.2149647-.776285 2.4335415-1.936179" fill="#e6b289"/><path d="m60.1238662 252.150012c1.3666749 3.763925 2.5966823 7.5824 4.2640256 11.237226h-.2596682c.4217651 1.302527.9238371 2.577785 1.5033424 3.818476.1503342.31366.3006684.613683.4646694.913706l.2460015.395485c1.2983411 0 2.3780143 2.413822 1.0523396 3.204792-2.7333497 1.636489-4.728695-4.350335-5.4666995-6.136835-1.2846744-3.122968-3.5806882-6.818706-3.9223569-10.105322-.0802929-1.461485.7209623-2.829817 2.0363456-3.47754" fill="#646464"/><path d="m60.0717024 252.15984c-.1373627-.597316-.0986467-1.222101.1113867-1.797518 2.0112603-1.117181 4.3212085-1.564467 6.5996618-1.277923h.6126268c-.0877838 3.036186.8608547 6.010691 2.687204 8.425868 2.6593574 2.991183 4.8453213 5.083607 5.9174183 9.085894 0 .280862-.12531.561725-.2088501.85663-.3046561 1.273441-1.1294431 2.357345-2.2702757 2.983511-1.1408327.626166-2.4911245.736092-3.7167592.302578-.2385791-.098089-.471059-.21064-.6961668-.337035-.8021867-.2513-1.5106171-.7407-2.0328073-1.404312-.6265501-.800457-1.1138669-1.727302-1.6986471-2.555846-.9213501-1.110541-1.7458904-2.29926-2.4644306-3.552908-.4873168-1.011104-.7379369-2.148596-1.2531004-3.1597-.6822435-1.404312-1.7264938-2.513718-2.4226606-3.918029-.5097667-1.299942-.1782925-2.78212.8354002-3.735468" fill="#2f262e"/><path d="m75.9146403 267.341919c.128127 1.161924.1793778 2.109144-.3459429 2.652217-.4914694.397419-1.063899.686005-1.6784636.846184-1.0573413.414087-2.1453392.747645-3.2544256.997739-1.0104887.180511-2.0427605.210313-3.062235.088407-1.1024607-1.380084-1.6580469-3.108314-1.5631493-4.862399.04545-.56704.1749527-1.124454.3843809-1.654479.5753506-.640241 1.2890107-1.14518 2.08847-1.477664 1.3092265-.675556 2.777856-.993864 4.2538161-.921961 1.3209585.101347 2.4590718.956325 2.9084827 2.184922.1025016.719888.2178159 1.439775.3075048 2.159663" fill="#646464"/><path d="m14.7101645 132.734283c-.0322725-2.005407 1.5912094-3.666413 3.649922-3.734283 1.3738417.00762 2.6417985.719872 3.3362569 1.874082 4.6194326 0 9.2388652 0 13.8582977-.138821-.3136651 0-.5988153.846808-.8554504 2.373838 1.8712987-.303753 3.6895102.770251 4.2772524 2.526541 1.4257508 3.373348 1.0835706 7.315862.6273303 10.869678-.4562403 3.553815-1.2831757 7.052102-1.6538709 10.369922-1.1691157 9.467587-2.8515016 18.865763-4.2772524 28.291703-.3992102 2.665362-.7651529 5.330723-1.0978281 7.996085-.1853476 19.670924-1.6681285 39.300201-1.7536735 58.915597-.1996051.749633-.4277252 1.485384-.6701029 2.207253-.3316656.964782-.7615268 1.894877-1.2831757 2.776418-1.6899432 1.538049-4.0223955 2.216277-6.3018185 1.832436l-.3279227-.083292c.7699054.235995 0-20.725963-.3564377-22.711103-1.7821885-10.008988-4.4198275-19.823626-3.8637847-29.9992.6415879-11.605428-1.3402057-23.321914-2.9798191-34.788521-1.8677336-13.174106-.7271329-25.41811-.3136652-38.647744" fill="#e6b289"/><path d="m28.4592489 251.153754c-1.0848151 3.969662-1.9983436 7.981256-3.3829102 11.853073h.2854776c-.3255948 1.363444-.7306851 2.707504-1.21328 4.025572-.1206632.332916-.2588286.659498-.4139426.978438-.0579514.14358-.1246837.28361-.1998343.41933-1.341745.167732-2.2409996 2.683715-.7993375 3.368621 3.040337 1.397768 4.5248208-4.87821 5.1243239-6.765197 1.0419934-3.298733 3.0974326-7.226461 3.1402542-10.66497-.0494158-1.505073-1.0176752-2.833609-2.4551078-3.368621" fill="#646464"/><path d="m28.681843 251.623378c.0868124-.589824-.0057166-1.191467-.2661785-1.730751-2.1163314-.895617-4.4677708-1.124358-6.7245082-.654142h-.322216c.2833138 3.011738-.5136285 6.026041-2.2555122 8.531104-2.395606 3.120803-4.3989491 5.34216-5.1134281 9.307897.0765981.273281.1701658.541791.2801878.80405.4028701 1.21674 1.3189883 2.209214 2.519364 2.729344 1.2003757.520131 2.5715738.518767 3.7708531-.003752.2349555-.113499.4598706-.245685.6724508-.395211.7900222-.310785 1.4642605-.847847 1.9332962-1.539959.5603756-.831306.966648-1.758007 1.4849955-2.616569.8144221-1.159294 1.5312328-2.380698 2.143437-3.652294.4062724-1.035725.5603757-2.153217.9666481-3.161687.5743851-1.362796 1.5270237-2.589312 2.0873994-4.00662.4003916-1.304193-.067663-2.713489-1.1767889-3.54327" fill="#2f262e"/><path d="m14 268.815733c0 1.2015 0 2.180985.5821039 2.703377.539.353192 1.140907.597153 1.7721831.718288 1.1016406.324325 2.2259085.564433 3.3632671.718289 1.0294801.096642 2.0675257.034995 3.078683-.182837.9871244-1.522834 1.3874834-3.358002 1.125401-5.158618-.0878833-.577921-.2669411-1.137887-.5303614-1.658594-.6401095-.59843-1.4047478-1.044659-2.2378662-1.305979-1.3822831-.575338-2.8901366-.77351-4.3722473-.574631-1.2994213.248356-2.3414368 1.229221-2.6776781 2.52054 0 .744408-.0905495 1.501876-.1034851 2.259344" fill="#646464"/><path d="m38.8614719 14.4314238c1.7057597.5106717 3.5537326.2221034 5.0178567-.7835583 2.2050299-1.8189747 8.0285707.2378659 10.2760051 5.5968452.6787601 1.7848517.9537833 3.6953555.805684 5.5968452-.2136536 4.2810834-1.9396154 8.3518604-4.8765086 11.5015169-7.5197176 8.0034886-6.9119209 18.4695891-12.2972826 18.6514866-8.8766592.2938344-17.1737913-11.3615958-16.7638819-23.4927577-.6360663-17.0703779 11.8873733-19.6729109 17.8381273-17.0703779" fill="#3c3c3c"/><path d="m43.8088281 47.9260293-.2710954 9.5289437 3.3815586.3338608c1.7568433 3.7208766 3.1147704 7.6087289 4.0521631 11.601663.7704817 4.7853381-14.2681798 7.094542-19.4617973-8.0543919-5.1936175-15.148934 4.679963-19.3361049 4.679963-19.3361049z" fill="#866552"/><path d="m36.6260069 42 7.3739931 5.8367347-.2347526 8.1632653-.2071346-.0952381-11.5581128-6.5442177.1933257-2.4081632c1.1611967-1.9139011 2.6792317-3.5942109 4.4741081-4.952381" fill="#7b5642"/><path d="m52.8769321 31.2049664c-.8021995 2.7655736 1.7403651 7.2043192.9789554 9.7763026-1.3892432 3.5915751-3.1436647 7.0257014-5.2346917 10.24645-.7943768 1.4582265-2.1930794 2.4742931-3.8070485 2.7655736-1.0247656.0513667-2.0429165-.193119-2.9368659-.7052213l-10.8772814-6.374647 1.1149213-18.9994904 17.3492638-6.9139339 2.1210699 2.3230818c1.4173206 1.5536745 2.0363899 3.6932877 1.672382 5.7800487z" fill="#866552"/><path d="m34.4523306 38.194247c-.2683893-1.0507877-1.1124303-1.8691093-2.1906778-2.1239238-.5329984-.1300323-1.0954897-.0787158-1.594575.1454742-1.7734058.8292032.2533437 6.3572241 2.980514 6.764552 2.0565546.3054959 1.2965236-3.0258641.760031-4.7861024" fill="#866552"/><path d="m51.53 34.42-.06.16c.0127581-.0557756.0329379-.1095884.06-.16" fill="#d89c73"/><path d="m59.544 99 .204-.4836852.252-.7389636c-.5177708-1.4502525-.9664023-2.9302628-1.344-4.4337811-.156-.4299425-.3-.8733206-.444-1.3435701-.2110718.760035-.463545 1.5048731-.756 2.2303263l-.456 1.1285988 2.592 3.6410749" fill="#f2f2f2"/><g transform="translate(57 73)"><path d="m2.07 18.5082353c-.195-.4329412-.375-.8794118-.555-1.3529412.25384829-.7243361.46415434-1.4605055.63-2.2052941l-.075 3.5176471m.21-10.72882357c-.105-.55470588-.225-1.09588235-.375-1.65058824l-1.5-5.53352941 1.95 3.73411765v3.45" fill="#eba57c"/><path d="m3.75 23c2.28263324-5.8599286 1.91621992-12.2947721-1.02-17.91294118l-.39-.73058823v3.45c.42821715 2.39200811.38250878 4.83357181-.135 7.21117651l-.075 3.517647c.4523324 1.5129608.99308805 3.0032787 1.62 4.4647059" fill="#242429"/></g><path d="m42.397711 98.9578947c3.9152976.0500134 7.8207764-.3043159 11.602289-1.0526315 0-.2526316-2.6752504-.8947369-5.7224607-.9052632h-.2002861c-.5114422.0003452-1.0224698.0214298-1.5307582.0631579-3.8483548.3263158-12.546495 1.4736842-12.546495 1.4736842 2.7366696.306507 5.5007642.4613285 8.2689557.4631579" fill="#f2f2f2"/><path d="m45.309043 57s5.0122313 1.8430754 8.0251237 2.771542c3.0128925.9284665 7.3170247 6.4022619 7.844628 10.4625709.5276033 4.0603089-.3471075 29.1011906 0 38.1641331.3471074 9.062942 6.5811569 49.084008 7.8168593 61.140215 1.2357025 12.056208 5.1788429 78.032764 4.998347 79.460108-.1804959 1.427345-11.1907436 6.554697-22.9229747 6.928855-11.7322311.374159-28.074049-.734458-33.2251232-2.494387-5.1510743-1.75993-8.17785109-8.564065-7.8168594-12.471939.3609918-3.907874 2.6380165-94.717447 3.7071074-102.103606s3.1933884-53.2413212 2.7768594-60.1147453c-.4165289-6.8734241-.888595-13.275686-3.1933883-16.0056548 0 0 5.8730577-2.2033759 10.4826444-3.4505698 4.6095866-1.2471939 6.2201651-1.6074943 6.2201651-1.6074943s4.9844627 2.147945 5.5537189 1.6074943 9.7190081-2.2172336 9.7190081-2.2172336" fill="#020203"/><path d="m45.7950729 197.013932c-1.5726901-24.232114-6.6052986-116.3363284-7.7950729-138.3919884 2.7351133-.7070011 7.7403707-1.6219436 7.7403707-1.6219436s4.9368795 1.8437478 7.9044774 2.7725531c2.967598.9288053 7.2070236 6.4045977 7.7266952 10.466388.5196715 4.0617904-.3555648 29.1118078 0 38.1780569.3555647 9.066248 6.4822185 49.101915 7.6993439 61.162521 1.2171255 12.060606 5.1009864 78.061233 4.923204 79.489098s-11.0225067 6.557088-22.5783604 6.931383h-1.0666942c-1.0530186-12.393312-3.2274337-38.64939-4.5539637-58.986068" fill="#131418"/><path d="m45.5265577 58s11.2144747 40.4777857 10.4345712 40.8393187c-.7799036.3615329-9.4126287 0-9.4126287 0l-4.4911685-20.3292761-2.0573317-18.8692392z" fill="#f6f6f6"/><path d="m36 59.9619543s1.0846682 41.8938067 1.0846682 42.0332197c0 .139414 10.9153318-2.7882729 10.9153318-2.7882729l-2.6773455-40.2069011s-6.7826087.7807165-9.3226545.9619543" fill="#fff"/><path d="m29.8773372 134.801179c-.5152838 1.09979-.5281659 2.650097-1.867904 3.140365-1.1747738.167275-2.3714077-.026342-3.4395198-.556521-1.2037446-.392925-2.1579418-1.344964-2.5764194-2.570594-.3993449-.967285-.7858078-1.961072-1.1207424-2.954858-.0772925-.225258-.2962882-.901033-.3220524-1.007037-.0079595-.132378-.0079595-.265136 0-.397514-.0821182-.30367-.2222573-.587459-.4122271-.834781-.4637555-.55652.3478166-1.325048.8115721-.768528l.0901747.119254c.1976742-.295933.4465737-.55195.7342795-.755277.8759826-.569771 1.8034935.119254 2.5764193.569771 1.2109171.689025 2.4218342 1.325048 2.924236 2.650097.2367657.652853.358896 1.343779.3606987 2.040574.2903597.089522.4568378.402476.3735808.702276-.1061419.331629-.2533489.647822-.4379913.940784l.2061136-.331262c.1414171-.238489.2580001-.491647.3478166-.755277.0708283-.217143.2611792-.369554.4832102-.386899s.4325768.103747.5344754.307396c.399345-.318012 1.0563319.225258.79869.781778" fill="#866552"/><path d="m9.71391156 111c2.04965694 2.024028 4.03006874 4.216725 5.89968824 6.395367 2.7698066 3.37338 6.1766688 7.2106 7.921647 11.483548.4293201 1.054182.6093575.997959.3323768 2.080252-.830942 3.190655-5.5396133-1.869415-6.9245166-2.97982-2.5112914-1.967805-4.971803-4.010574-7.3815348-6.128307l-1.77267627-1.532077c-2.11688043-1.717099-4.0564641-3.647959-5.78889593-5.762858 2.76980666-1.279073 5.74734883-2.684648 7.72776059-3.556105" fill="#866552"/><path d="m14.6605004 63c-1.4013955.4818348-2.7394043 1.1187721-3.9869068 1.8979021-.3441934.5363636-11.34404037 43.4179489-10.64131221 46.0997669.70272817 2.681818 10.32580161 11.002331 10.32580161 11.002331l5.4353873-6.642657-5.3780217-7.12401s9.9816082-12.6939391 8.4183966-25.0715614c-1.5632117-12.3776224-1.7639911-18.0713287-4.1733448-20.1067599" fill="#26262b"/><path d="m36 60c-.1524619-1.6945512-.4974965-3.371111-1.0298507-5.0041541-.667848-1.4663068-2.4459252-2.2773963-4.1791045-1.9063445-1.238806.1323851-1.7910448 5.4542633-1.7910448 5.4542633z" fill="#1e1f23"/><path d="m45 58s0-2.2556391-1.9041096-3l-.0958904 2.4699248z" fill="#020203"/><path d="m35 58.1480421s8.0855894.2296085 9.7498841-1.1480421c.0964763.2324405.1752768.4702228.2358843.7117861.0189755.2446336.0189755.4901134 0 .734747 0 0-.5503967 1.7909457-9.7760935 1.5268961z" fill="#ededed"/><path d="m82 107.579965-7.8871369 9.420035-8.1128631-9.420035 9.1087137-6.579965z" fill="#2b2b31"/><path d="m19 118.468844s-7.1401335 9.531156-7.3269781 9.531156-6.6730219-9.190758-6.6730219-9.190758 6.8064824-6.916896 6.9666349-6.807969c.1601525.108928 6.9666349 6.508418 6.9666349 6.508418" fill="#2b2b31"/><path d="m21.1262869 93.7948859c.2407199 1.1455265-.4863193 2.2710359-1.6282803 2.5206961-1.1419611.2496603-2.2711869-.4700247-2.5290197-1.6118099-.2578327-1.1417852.4522844-2.2780794 1.5903817-2.5448499.5497838-.1321448 1.1294761-.0396985 1.6110881.2569279.4816119.2966264.8255332.7730366.9558302 1.3240454m3.2120796 42.2601045 8.6616335-2.062139-11.2697323-47.937861-8.7302677 2.0346439z" fill="#454444"/><path d="m19.0441631 96.9373635c.9871957-.2200529 1.7444517-1.0129898 1.9184621-2.0088575.1740103-.9958677-.2695173-1.9984101-1.1236503-2.5398802-.8541329-.5414701-1.950547-.5151603-2.7776982.0666544-.8271513.5818147-1.2220328 1.6044758-1.0004083 2.5908497.141781.6478545.5367814 1.2121821 1.0970882 1.5673837s1.2394246.4718019 1.8862065.3238499" fill="#fff"/><path d="m22.8606124 131.286072c1.4746257.710056 1.0957288 1.713928 1.0957288 1.713928s-2.5703544-.195877-2.91853-1.371142c-.3481755-1.175265 1.8228012-.342786 1.8228012-.342786" fill="#866552"/><path d="m28 133.575964c.215567-.606619.3305132-1.253645.3389906-1.908161 0-1.044332.5988834-.722007.757079 0 .0871454.424014.0871454.865283 0 1.289298 0 0-.1694953-1.482693.1920946-1.650302.36159-.167609.9491737.979867.6101831 2.166021-.3389906 1.186155-1.8983473 0-1.8983473 0" fill="#866552"/></g><path d="m133.985588 19.690684c-.11986 1.3660443-1.438316 2.3985196-3.089716 2.3032142s-2.996491-1.2866231-2.889949-2.6526674c.17313-2.5097093 1.438315-2.3985197 3.089715-2.3032143 1.6514.0953055 3.06308.5718325 2.88995 2.6526675z" stroke="#26282d" stroke-width=".57"/><path d="m141.985113 19.6784779c-.107292 1.3732647-1.448444 2.4111972-3.111472 2.3153881-1.663028-.0958092-2.950534-1.2295509-2.870065-2.6666883 0-1.9481196 1.448444-2.4111972 3.111472-2.3153881 1.663029.0958092 3.044415.4471094 2.870065 2.6666883z" stroke="#26282d" stroke-width=".57"/><path d="m128 16.8028169-8-.8028169.40404.8309859 7.286196 1.1690141z" fill="#26282d" fill-rule="nonzero"/><path d="m134 19.9600136c.300039-.187817.64235-.3076259 1-.35.334002.0206705.65161.1436034.904255.35l.095745-.39c-.160924-.2904525-.462943-.4884341-.808511-.53-.406624-.0019923-.805339.1055871-1.148936.31z" fill="#26282d" fill-rule="nonzero"/></g></g></svg>