<svg height="400" viewBox="0 0 1200 400" width="1200" xmlns="http://www.w3.org/2000/svg"><g fill="none" fill-rule="evenodd"><g fill="#fff"><path d="m0 400h1200v-400h-1200z"/><path d="m280 0h640v400h-640z"/><path d="m0 400h1200v-400h-1200z"/></g><path d="m0 400h1200v-135h-1200z" fill="#dedfde"/><path d="m0 400h1200v-135h-1200z" fill="#93d5f6"/><rect fill="#d8d8d8" fill-opacity=".01" height="400" rx="2" width="640" x="280"/><g transform="translate(420 42)"><g fill-rule="nonzero"><path d="m32 135h9v157h-9z" fill="#545454"/><path d="m161.086539 188.729192c-6.964721 5.143561-12.467235 15.430683-14.788808 27.582346-2.437011 12.858903-6.246444 39.399678-8.747587 45.211901-4.360967 10.287122-7.452123 8.062532-8.516712 14.144793-.513055 2.893253 4.963806 6.030826 10.594584 11.071515 6.810805 6.107979 9.825002 10.917209 11.851569 8.718336 2.321574-2.481768-5.93861-6.21085-6.310575-25.717805-.115438-5.786506 10.402189-30.604188 15.956008-43.398796 5.55382-12.794608 13.839657-26.437903 11.453952-35.374841-1.128721-4.179143-4.514884-7.49674-11.543736-2.327461" fill="#275937"/><path d="m150.25456 292.037904s-4.970197.099839-7.094956-2.233903-4.16254-10.795118-6.026364-14.45173c-1.118227-2.18858-2.3629-4.309623-3.727647-6.352271 0 0-3.8022.960953-4.448326 6.48955-.807657 6.489551-1.37923 11.356713-2.609353 15.275403l-.347914 1.035832 1.702292.511677s2.795736-8.935612 4.460752-9.322489c1.242549-.287038 2.795735 1.559988 4.585006 4.767323 1.789271 3.207336 3.218203 7.9497 4.224667 8.523775 2.050206 1.148151 14.090508 5.20412 15.954332 3.144936.894635-.985912-6.734617-7.388103-6.734617-7.388103" fill="#275937"/><path d="m161.527993 194.189118c-3.628088 8.379034-3.347039 20.785703.817598 33.542037 4.369036 13.403864 11.919037 40.83322 12.64721 47.59343 1.277496 11.901595-2.554992 11.35767-.396024 17.716411 1.009222 3.004538 7.562777 3.26355 15.214978 5.257941 9.261846 2.421761 14.448479 5.491051 15.138327 2.39586.817598-3.509611-8.533673-2.939785-18.843066-21.264874-3.06599-5.439249-3.679188-34.526282-5.224958-49.432414-1.54577-14.906133-1.073097-31.987966-7.805501-39.2921-3.155415-3.406006-7.9077-4.882374-11.497464 3.483709" fill="#275937"/><path d="m203.7033 294.889881s-4.615011 2.579365-7.872666 1.444444c-3.257654-1.13492-9.682473-8.395833-13.379653-11.013888-2.194986-1.575779-4.482916-3.018526-6.851416-4.320437 0 0-3.063747 2.863095-.710996 8.589286 2.714712 6.732143 4.770137 11.774801 5.700895 16.224206l.23269 1.186508 1.874444-.361111s-2.145915-10.149802-.788559-11.375c.96954-.889881 3.451563.090278 6.864344 2.308532s7.265087 6.100198 8.519025 6.151785c2.58544.064484 16.042657-2.115079 16.701944-5.068452.310253-1.431548-10.341761-3.765873-10.341761-3.765873" fill="#275937"/><path d="m60 296h80v4h-80z" fill="#545454"/><path d="m69 300c-4.418278 0-8 3.581722-8 8s3.581722 8 8 8 8-3.581722 8-8-3.581722-8-8-8" fill="#020203"/><path d="m130 300c-4.418278 0-8 3.581722-8 8s3.581722 8 8 8 8-3.581722 8-8-3.581722-8-8-8" fill="#020203"/><path d="m130.473097 303c-3.032273.014854-5.480488 2.481102-5.473097 5.513412.007425 3.03231 2.467661 5.486588 5.49997 5.486588 3.03231 0 5.49258-2.454202 5.50003-5.486511 0-1.464597-.582721-2.869012-1.619605-3.903376s-2.44271-1.613669-3.907298-1.610113" fill="#323d40"/><path d="m60 297h80v1h-80z" fill="#545454"/><path d="m68.4865526 303c-3.0358044.007423-5.4914905 2.473137-5.4865526 5.508951.0049528 3.035814 2.468659 5.493515 5.5044716 5.491049 3.0358126-.00247 5.4955284-2.464174 5.4955284-5.5-.0147683-3.036669-2.4767476-5.492647-5.5134474-5.5" fill="#323d40"/><path d="m98 226h12v70h-12z" fill="#545454"/><path d="m98 225h12v70h-12z" fill="#545454"/><path d="m141.62774 187.285047c.451582 4.086448-3.199782 33.526869-3.870704 37.13785-1.406355 6.849299.245145 14.610982-1.586988 21.241823s-5.638326 17.553738-7.122095 24.415887c-.063937.244362-.063937.500966 0 .745328.138075.31664.39171.569255.709629.706775 6.528587 3.957944 17.147218 8.262851 22.733934 13.46729l7.676896-38.140187 9.831588-46.261682-6.902755-14.598131z" fill="#39870c"/><path d="m18.7538085 93s.5939501-7.0850202 7.2461915-9.122807l-8.645274-.877193s-1.4122814 3.9676113 1.3990825 10z" fill="#275937"/><path d="m24.0880428 79s-7.0279595 1.0438437-8.0880428 2.7241775c0 0 15.9666865 7.4342042 22 15.2758225 0 .0381289-4.8947055-18-13.9119572-18z" fill="#59a121"/><path d="m63 80.6198126c7.2951123 1.4323962 8.8107958 8.3801874 8.8107958 8.3801874 2.4505911-6.2115127.3541317-10 .3541317-10z" fill="#1e3c11"/><path d="m63.9389701 79c-8.7221869.708-11.9389701 18-11.9389701 18 5.1748252-7.872 20-16.092 20-16.092-1.1697394-1.476-8.0610299-1.908-8.0610299-1.908z" fill="#55b025"/><path d="m65 96c0 3.8734177-8.2721429 7-18.5 7s-18.5-3.1265823-18.5-7 8.2721429-7 18.5-7 18.5 3.1392405 18.5 7z" fill="#713f1d"/><path d="m68.6511965 49.6713858c-6.6308919 15.531007-10.6511965 48.3286142-10.6511965 48.3286142s11.369108-24.70668 14.5018129-34.7629113 3.4981871-29.2370887 3.4981871-29.2370887-.7179115.1276171-7.3488035 15.6713858z" fill="#419023"/><path d="m34.0585 53.4594348c.6590528 29.9653601 16.5570203 41.5405652 16.5570203 41.5405652 6.7250285-11.6773017-13.2348562-84-13.2348562-84s-3.9005166 12.532361-3.3221641 42.4594348z" fill="#55b025"/><path d="m49.2981502 23.6766449c-1.9732238-20.3613482-7.0378314-24.02382969-5.6565748-20.48940699s-2.8809067 24.75376479-2.630965 48.73917689c.2499417 23.985412 11.3920785 43.8729426 11.3920785 43.8729426s7.1562248 3.3807522 7.5640244-1.2037526c.5393478-6.1212104-5.64342-21.9620831-6.393245-35.7027917-.7629798-13.9968261-2.2889396-14.8676259-4.2753181-35.2161682z" fill="#39870c"/><path d="m68.3928876 24.1920969c2.1475426-20.18546076-2.1475426-24.69511372-1.4405876-21.03657836s-7.8698767 23.55182136-12.4183987 47.00201676 2.4676732 44.8424647 2.4676732 44.8424647 4.9887015-11.9918659 8.563493-35.7215328c2.0274936-13.7830238.6936162-14.9136129 2.8278201-35.0863703z" fill="#419023"/><path d="m56.1423491 13s-7.4801486 12.2857143-8.221659 31.3116883-2.4066565 42.7272727 2.1074506 54.6883117c0 0 .3382328-12.025974 4.2669369-22.0779221 3.9287041-10.051948 4.22791-36.3766234 3.2002027-44.9610389-1.0277074-8.5844156-1.3529312-18.961039-1.3529312-18.961039z" fill="#55b025"/><path d="m19 44s8.0215475 38.7217583 26 53c0 0-1.6679726-22.4781434-8.5308521-30.7691552s-17.4691479-22.2308448-17.4691479-22.2308448z" fill="#39870c"/><path d="m29.5794581 50.3833804c2.1293145 18.9326041 16.4205419 53.6166196 16.4205419 53.6166196s-2.6126558-30.5626323-5.0946789-42.2055399c-2.482023-11.6429075-12.8150769-30.7944601-12.8150769-30.7944601s-.6401007.4507763 1.4892139 19.3833804z" fill="#55b025"/><path d="m39.3682358 96c4.4837082-11.9166667-16.3682358-26-16.3682358-26 .7697933 20.0287698 16.3682358 26 16.3682358 26z" fill="#55b025"/><path d="m31.8225799 84.3676493s-7.2577186-1.0134074-8.8225799.3248101c0 0 13.4901833 11.8750562 16.9841407 21.3075406 0 0 .7554503-19.0338701-8.1615608-21.6323507z" fill="#34681b"/><path d="m20.2985874 93s3.6646764-7.5628699 10.7014126-10.4811512c0 0-8.0121253-1.3700851-9.1129217.3425213-.8639161 1.3015809-2.5778142 3.4252128-1.5884909 10.1386299z" fill="#55b025"/><path d="m47.7871645 78.5157254s9.5636304-1.7003938 12.2128355 1.0739329c0 0-16.3323494 2.3652094-14.9547627 41.4103417-.013246-.063925-8.4112262-37.6899312 2.7419272-42.4842746z" fill="#34681b"/><path d="m60.7474685 122h-28.4571954c-2.0799836-9.666667-4.1767413-19.333333-6.2902731-29h41c-2.0799836 9.666667-4.1641608 19.333333-6.2525315 29z" fill="#e17538"/><path d="m48 93h-22c2.200891 9.666667 4.4285136 19.333333 6.6828676 29h15.3171324z" fill="#c76221"/><path d="m26 94.0509978c1.5950041 7.6496672 3.1984029 15.2993352 4.8101966 22.9490022 7.3538083-11.398004 21.4066339-17.7727273 35.0313267-17.4667406.3903563-1.8486696.7807126-3.6973392 1.1584767-5.5332594z" fill="#c4c2b8"/><path d="m25 93h43v6h-43z" fill="#e17538"/><path d="m25 93h23v6h-23z" fill="#c76221"/><path d="m65.9540672 98s-7.6136837-14.0910872-17.9540672-19.7526847c0 0 11.6708023-2.9440307 13.738879.2138826 3.3458056 1.9878498 4.5181549 6.831661 4.2151882 19.5388021z" fill="#6bba20"/><path d="m361 135v-12h-361l.28328875 12z" fill="#3e3e3e"/><path d="m224.820467 122.681585-1.216998-2.767366c-1.455107-1.40979-9.802129-5.848019-9.802129-5.848019l-2.103291-17.8834494-21.892744-.1827506-2.367856 18.079254s-8.426391 4.503497-9.907955 5.88718l-1.322824 2.728205c-.515902.482983 0 1.305361.820151 1.305361h46.947039c.820151 0 1.322824-.809324.833379-1.305361" fill="#545d5f"/><path d="m214.232179 104.691751-12.139511-2.691751-12.205703 2.445731-.886965 7.554269h26z" fill="#303739"/><rect fill="#545d5f" height="100" rx="2.83" width="158" x="122" y="8"/><path d="m125 13h149v89h-149z" fill="#fff"/><path d="m206.875576 25h-8.875576l.110599-13h8.889401z" fill="#2650a2"/><path d="m137.495 80 .01-1" fill="#bbb9ae"/><path d="m137.495 84 .01-1" fill="#bbb9ae"/><path d="m297.706256 117.452149c0-.103992-.140117-.194984-.216544-.298975-.176838-.167594-.37371-.311722-.585943-.428965l-1.082721-.584952c-.772633-.429198-1.521095-.902234-2.24187-1.416882-1.273789-.909925-3.706727-2.690778-3.821368-4.146658-.02488-.627444.303966-1.214168.846544-1.510396.542579-.296228 1.203357-.249803 1.701035.119511.700584.441964 1.108197 1.377886 1.808781 1.884845 2.547579 1.819849 2.012587-2.261813 1.133672-3.314726-.957692-.999506-2.238962-1.609377-3.604824-1.715859-3.413755-.376968-4.827661 2.040832-4.623855 4.302645s1.974373 4.120659 3.821368 5.641533c.928096.733107 1.912037 1.38947 2.942454 1.962838.968586.706316 2.134331 1.075513 3.32459 1.052913.364981.011275.697692-.212238.831827-.558817.134135-.346578.040882-.741777-.233146-.988055z" fill="#ca005d"/><path d="m297.952096 122.948026-1.748137-6.730645c-1.126577-3.989012-2.382646-7.094465-3.237291-10.771632-.233085-.961521-.492068-1.910048-.725153-2.871569-.207965-.72093-.282575-1.473987-.220136-2.221892.181289-1.2993525.828747-2.377815 1.812883-2.351828h24.331476c1.152475 0 1.631594 1.0914561 1.812883 2.351828.062439.747905-.012171 1.500962-.220136 2.221892-.233085.961521-.505017 1.910048-.725153 2.871569-.854645 3.677167-2.110714 6.78262-3.237291 10.771632l-1.748137 6.782619z" fill="#da4c8e"/><path d="m310.154639 91.6301689c.146396-1.1880973.591293-2.2838349 1.268041-3.1230586.878598-1.1157912 1.434547-2.5773155 1.57732-4.146582-.148395-1.5726276-.711774-3.0345719-1.597938-4.146582-.225224-.2852617-.589209-.2852617-.814433 0-.21736.2850862-.21736.7384373 0 1.0235234.678573.8375001 1.123806 1.9340632 1.268041 3.1230586-.144235 1.1889954-.589468 2.2855585-1.268041 3.1230586-.879055 1.11693-1.438122 2.5771066-1.587629 4.146582.150379 1.572967.709141 3.0369654 1.587629 4.159704.109308.138447.258203.2142549.412371.2099535.150833.002239.295923-.0735259.402062-.2099535.218633-.2895192.218633-.7471262 0-1.0366455-.673475-.8388729-1.111757-1.9361598-1.247423-3.1230585z" fill="#d9d9d9"/><path d="m307.14433 91.6296596c.143566-1.1866149.584767-2.282293 1.257732-3.1234503.890245-1.1083995 1.454371-2.572465 1.597938-4.1471021-.143567-1.5746371-.707693-3.0387025-1.597938-4.147102-.222053-.2826736-.582071-.2826736-.804124 0-.222052.2826736-.222052.7409781 0 1.0236518.675402.8388719 1.117046 1.935651 1.257732 3.1234502-.140686 1.1877993-.58233 2.2845783-1.257732 3.1234503-.883497 1.1145925-1.446393 2.5754672-1.597938 4.1471021.15243 1.5751139.715016 3.0398037 1.597938 4.1602257.106139.1364447.251229.2122191.402062.2101147.151062.0036491.296612-.0723654.402062-.2101147.224114-.2867111.224114-.7500643 0-1.0367755-.677261-.8371231-1.119247-1.9347502-1.257732-3.1234502z" fill="#d9d9d9"/><path d="m300.14433 91.6315422c.143566-1.1868069.584767-2.2826624 1.257732-3.1239559.890245-1.1085789 1.454371-2.5728814 1.597938-4.1477734-.143567-1.574892-.707693-3.0391944-1.597938-4.1477734-.222053-.2827193-.582071-.2827193-.804124 0-.222052.2827194-.222052.7410981 0 1.0238175.675402.8390078 1.117046 1.9359644 1.257732 3.1239559-.140686 1.1879916-.58233 2.2849482-1.257732 3.1239559-.883497 1.1147729-1.446393 2.5758841-1.597938 4.1477734.15243 1.575369.715016 3.0402959 1.597938 4.1608993.223976.2767447.580148.2767447.804124 0 .224114-.2867576.224114-.7501857 0-1.0369433-.677261-.8372587-1.119247-1.9350635-1.257732-3.123956z" fill="#d9d9d9"/><path d="m137.149028 120h101.572354l3.278618 3h-108z" fill="#303739"/><path d="m219.240576 121h-81.567269l-1.673307 1h84z" fill="#545d5f"/><path d="m239.770349 121h-16.770349l.850291 1h17.149709z" fill="#545d5f"/><path d="m135.231102 122.735h104.539956l2.228942-.47h-108z" fill="#1c1a1c"/><path d="m221 124.775804c0 4.298928-23 4.298928-23 0s5.156951-7.775804 11.5-7.775804 11.5 3.490352 11.5 7.775804z" fill="#303739"/><path d="m178 120.145805 21.07513-8.145805 13.432642 1.980743c1.632124.235213 4.481865 3.11967 5.492228 4.382393l-15.181347 3.614856-18.134715 8.022008z" fill="#e97552"/><g opacity=".8" transform="translate(143 78)"><ellipse cx="9.259333" cy="9.244286" fill="#949494" rx="8.626" ry="8.755714"/><path d="m7.01733333 4.55142857h5.18066667l.2406667 1.28571429c-.3943459 1.05849244-1.1138089 1.96007507-2.052 2.57142857 1.2490297.19226423 2.1676142 1.28920275 2.1533333 2.57142857 0 1.9028571-1.7986667 3.3042857-4.53466667 3.2785714h-1.20333333v-1.2728571h1.178c1.81133333 0 2.85-.6942857 2.8626667-1.8257143 0-.7585714-.5826667-1.41428571-1.6466667-1.65857143-.51581946.24875097-1.06059784.43019443-1.62133333.54000003l-.29133334-1.28571431c1.532193-.31140805 2.84701927-1.30174582 3.58466667-2.7h-3.876z" fill="#fff"/></g><path d="m81.2747505 73.0376829c-4.2574878-1.2906032-3.7139787-2.1682133-7.8808816 2.3747098s-5.9268371 11.1508112-7.6220677 14.8935604c-3.1316476 6.9305389-6.9232704 13.4738969-10.2360876 20.2237519-4.8657003 9.692429-5.6421419 17.655451-6.5350496 28.741732-.129407 1.768126 18.6993003-.193591 19.7992591-.542054 2.4716723-.800173 11.5301569-19.96563 13.5230235-28.006088s-1.0481961-37.6856121-1.0481961-37.6856121z" fill="#a90061"/><path d="m142.230733 34.4065563c4.469553-10.4040432 6.730467-16.2303074-3.528594-24.82664816-3.500666-2.43320816-7.240026-4.50726465-11.160813-6.19040572-20.08685-5.56616312-25.654188 6.42449669-29.2481264 21.13321278-3.2933547 13.5382613.1829641 23.7602337 5.0445834 29.1443261l-3.7376967 12.7319479 26.7127657 2.6010108s0-9.1035378 2.208639-12.8489934c4.365001.3641415 6.129299 1.677652 13.251832-16.0612417.535823-1.2875004-.078414-4.4347234.45741-5.6832086z" fill="#fb9e57"/><path d="m125.775432 67.3970117c3.000209 2.2290012 22.682612 10.0048844 22.954183 10.1586086 2.159633 1.2810352-9.453244 33.1147587-5.315025 43.1965047-2.767434 5.124141-10.345547 36.586363-7.526386 56.006856.193979 1.345087-65.888204 3.241019-65.888204 3.241019 1.8363346-14.091386 11.3671701-62.322359 8.8583749-74.300038-3.3235071-15.8848354-4.6037686-29.4638079-3.5045542-31.0394811 2.6639785-3.8431054 4.8753392-4.0352606 11.8197878-8.057711 6.9444486-4.0224503 38.6018235.7942418 38.6018235.7942418z" fill="#a90061"/><path d="m108.085126 3.54511581c6.893805-4.48610946 18.539273-4.56435555 25.056581-1.08240432 6.517307 3.48195124 17.708381 10.31544351 8.153126 30.21603371-10.243338 21.361184-25.238339 20.4091899-30.275621 20.2787797-9.087879-.3521074-12.1647749-4.3687403-12.1647749-4.3687403s-13.1904074-30.5290181 9.2306889-45.04366879z" fill="#673327"/><path d="m100.844844 33.1491436c4.177849-1.8360481 7.060566 9.7366191 7.520129 11.8508564 10.528182-6.5096253 4.888084-17.6789184-5.319795-15.7872324-1.564222.2395762-2.968313 1.0920237-3.901428 2.3686218-.9331146 1.2765981-1.3182755 2.8720352-1.0702132 4.4331021z" fill="#51211b"/><path d="m99.1179306 31.7214295c-3.5630473 2.343989-11.1426208 12.9434559-9.1861839 26.2990418s1.6713931 27.7543757-6.9317467 34.9795287c10.0542718-3.9538716 9.7821846-16.4980767 9.7821846-16.4980767l-2.4358288 13.6260462s6.5948768-10.8828063 7.6702693-15.8026074c.3757395 2.1636822-.6478268 8.1910825-4.3015699 11.1919037 0 0 13.9023628-8.1266873 13.6302758-22.7057839-.077739-4.6493409-1.373393-10.5093135-.868088-13.6646834 1.710263-10.9343225 6.478268-10.7411365 3.640787-15.1972915-3.809222-5.9114889-8.447662-3.8765973-11.0000994-2.2280775z" fill="#673327"/><path d="m136.022378 3.23132969c-2.501172-1.12204007-5.734071-2.23132969-5.734071-2.23132969 3.392548.86703097 15.964932 12.7504554 2.767255 25.7941712 3.725151.8925319 8.102203-11.3606557 8.102203-11.3606557s-1.995616 11.2586521-10.643288 14.4590164c3.219595-.0637523 6.944745-2.8306011 9.578959-6.3752277-2.360789 5.1367369-6.690041 9.2082295-12.093436 11.3734062 8.142115 1.3770492 17.681163-10.6083789 17.987157-16.2823315.267968-6.5953248-3.677395-12.68357282-9.964779-15.37704921z" fill="#51211b"/><path d="m153.962884 86s.126733 2.4784961.177426 3.7111171c.005929.0261454.005929.0533786 0 .079524.975844 16.8458209 3.206345 29.9937789.735051 45.2093589l-28.274136-1.325399c-.007028-.057199-.007028-.115103 0-.172302-.139407-1.325399-.253466-2.650798-.316833-4.068975-.126733-1.868812-.202773-3.790641-.240793-5.738977-.114059-5.11604 0-10.457398.291486-15.904788 0-.848255.101387-1.683257.164753-2.518258l.164753-3.552069.557626-13.7311335z" fill="#b21971"/><ellipse cx="140.359799" cy="131.956115" fill="#b21971" rx="14.457924" ry="14.483543" transform="matrix(.49059961 -.87138512 .87138512 .49059961 -43.485259 189.525936)"/><ellipse cx="140.183072" cy="88.640135" fill="#b21971" rx="13.639057" ry="13.6045" transform="matrix(.93358043 -.35836795 .35836795 .93358043 -22.454884 56.12456)"/><ellipse cx="138.417002" cy="134.11618" fill="#b21971" rx="11.724547" ry="11.685862" transform="matrix(.99200495 -.12619897 .12619897 .99200495 -15.818673 18.540349)"/><path d="m183.0081 118 2.808989 13.290498.182911.848869-45.557878 13.860633-4.442122-22.666063z" fill="#b21971"/><path d="m133 145.094561s8.298419 5.759067 28.016798 1.060881c12.588933-2.989756 23.983202-15.155442 23.983202-15.155442z" fill="#b21971"/></g><path d="m167 77.22 74 .56" stroke="#b3b3b3" stroke-width="1.78"/><path d="m167 85.225 74 .55" stroke="#b3b3b3" stroke-width="1.78"/><path d="m167 91.22 74 .56" stroke="#b3b3b3" stroke-width="1.78"/><g fill-rule="nonzero" opacity=".8" transform="translate(144 26)"><ellipse cx="8.677333" cy="9.2288" fill="#949494" rx="8.626" ry="8.7168"/><path d="m6.34666667 6.0032c.82198596-.24949925 1.6750826-.37881074 2.53333333-.384h.912l-.06333333 7.2576h-1.634v-5.7344c-.62363208-.01107494-1.24694419.03605843-1.862.1408z" fill="#fff"/></g><g fill-rule="nonzero" opacity=".8" transform="translate(144 48)"><ellipse cx="9.512667" cy="9.077143" fill="#949494" rx="8.626" ry="8.755714"/><path d="m6.878 5.67c.73931009-.20266215 1.50154039-.30639745 2.26733333-.30857143 1.89999997 0 2.86266667.91285714 2.84999997 2.32714286-.0666239 1.08877636-.8028006 2.01639338-1.8366666 2.31428567l-.93733337.3857143c-.44667464.1766038-.83979769.4692292-1.14.8485715h4.30666667v1.4785714h-5.7l-.24066667-1.2857143c.28816502-.9213134.95932954-1.66834722 1.83666667-2.04428571l1.01333333-.52714286c.75999997-.38571429 1.02599997-.68142857 1.02599997-1.14428572 0-.46285714-.4813333-.82285714-1.3933333-.83571428-.69310387-.00836797-1.3839068.08252715-2.052.27z" fill="#fff"/></g><path d="m167 45.255 74 .49" stroke="#b3b3b3" stroke-width="1.64"/><path d="m167 37.255 74 .49" stroke="#b3b3b3" stroke-width="1.64"/><path d="m167 65.255 74 .49" stroke="#b3b3b3" stroke-width="1.64"/><path d="m167 57.26 74 .48" stroke="#b3b3b3" stroke-width="1.64"/><path d="m256.729449 37.3135401c-.089439-.5354767-.505104-.9570707-1.038783-1.0535983-3.120444-.3465891-6.269609-.3465891-9.390052 0-.533679.0965276-.949345.5181216-1.038783 1.0535983-.190141 1.5569636-.276897 3.1248399-.259696 4.6933014-.017201 1.5684616.069555 3.1363379.259696 4.6933015.086974.5341344.50523.9528462 1.038783 1.0399152 3.120443.3465891 6.269608.3465891 9.390052 0 .533552-.087069.951808-.5057808 1.038783-1.0399152.19014-1.5569636.276896-3.1248399.259695-4.6933015.043417-1.5689339-.043447-3.1387669-.259695-4.6933014z" fill="#69b921" fill-rule="nonzero"/><path d="m252.890756 39.0815166c-.118927-.1086888-.301973-.1086888-.420899 0l-1.843938 2.1183506-1.102354-.9945308c-.117405-.1027147-.293473-.1027147-.410878 0-.117615.1023487-.146883.2724794-.07015.4077576l1.35289 2.2376943c.057032.0939515.160067.1507585.270577.1492117.110511.0015468.213546-.0552602.270578-.1492117l2.004281-3.361514c.095248-.1275086.073227-.3067031-.050107-.4077577z" fill="#fff" fill-rule="nonzero"/><path d="m256.729553 57.299857c-.086991-.5341344-.505329-.9528462-1.038985-1.0399152-3.12105-.3465891-6.270827-.3465891-9.391877 0-.533656.087069-.951994.5057808-1.038985 1.0399152-.346275 3.1192698-.346275 6.2673331 0 9.3866029.089456.5354767.505203.9570707 1.038985 1.0535983 3.12105.3465891 6.270827.3465891 9.391877 0 .533783-.0965276.949529-.5181216 1.038985-1.0535983.190178-1.5569636.27695-3.1248399.259746-4.6933014.043047-1.5689288-.043832-3.1387305-.259746-4.6933015z" fill="#69b921" fill-rule="nonzero"/><path d="m252.889821 60.0813151c-.11893-.1084201-.301983-.1084201-.420913 0l-1.844001 2.0436686-1.102391-.9920721c-.118979-.0982638-.291914-.0982638-.410892 0-.116032.0987656-.145406.2649257-.070152.3968288l1.352935 2.3214488c.059732.0909056.161061.1466322.270587.1488108.109527-.0021786.210856-.0579052.270587-.1488108l2.004349-3.3532038c.096471-.1303531.074581-.3123804-.050109-.4166703z" fill="#fff" fill-rule="nonzero"/><path d="m256.729704 81.299857c-.086992-.5341344-.505334-.9528462-1.038998-1.0399152-3.12109-.3465891-6.270908-.3465891-9.391998 0-.533663.087069-.952006.5057808-1.038998 1.0399152-.34628 3.1192698-.34628 6.2673331 0 9.3866029.089457.5354767.505208.9570707 1.038998 1.0535983 3.12109.3465891 6.270908.3465891 9.391998 0 .53379-.0965276.949541-.5181216 1.038998-1.0535983.190181-1.5569636.276954-3.1248399.25975-4.6933014.042673-1.5689235-.044206-3.1386942-.25975-4.6933015z" fill="#69b921" fill-rule="nonzero"/><path d="m252.889821 84.0813151c-.11893-.1084201-.301983-.1084201-.420913 0l-1.844001 2.0436686-1.102391-.9920721c-.118979-.0982638-.291914-.0982638-.410892 0-.116032.0987656-.145406.2649257-.070152.3968288l1.352935 2.3214488c.059732.0909056.161061.1466322.270587.1488108.109527-.0021786.210856-.0579052.270587-.1488108l2.004349-3.3532038c.096471-.1303531.074581-.3123804-.050109-.4166703z" fill="#fff" fill-rule="nonzero"/><path d="m240.196507 50.013947.157205-.013947 5.606987 6.0111576.039301.5160391-2.331878.013947.157206.460251 1.008733 2.1757322-.039301.237099-.445415.5439331-.641921.041841-.445415-.446304-.655022-1.6736402-.471616-.8507671-1.716157 1.8410042-.419214-.041841v-8.7308229z" fill="#fff"/><path d="m240.92 51.2256267h-.42v8.1754875h.42v.5988858h-.84v-10h.42v.5849582h.42v.5849582z" fill="#000" fill-rule="nonzero"/><path d="m245 56.672h-1.607656v.328h-.392344v-.664h1.598086v-.336h.401914z" fill="#000" fill-rule="nonzero"/><path d="m243.083133 60.3h.84c.004979.0799225.004979.1600775 0 .24v.16h-.85v-.4z" fill="#000" fill-rule="nonzero"/><path d="m243.29 58.915v-.83h.42v.83z" fill="#000" fill-rule="nonzero"/><path d="m242.705 58.92h-.41v-.84h.41v.81z" fill="#000" fill-rule="nonzero"/><path d="m243.705 57.91h-.41v-.83h.41v.84z" fill="#000" fill-rule="nonzero"/><path d="m242.295 57.085h.41v.83h-.41z" fill="#000" fill-rule="nonzero"/><path d="m243.705 52.71h-.42v-.2c.004985-.0732486.004985-.1467514 0-.22h.43v.08.34z" fill="#000" fill-rule="nonzero"/><path d="m243.71 55.71h-.42v-.42h.41v.42z" fill="#000" fill-rule="nonzero"/><path d="m244.285 55.285h.43v.43h-.42v-.42z" fill="#000" fill-rule="nonzero"/><path d="m240.71 52.705h-.42v-.42h.42v.43z" fill="#000" fill-rule="nonzero"/><path d="m240.285 57.705v-.41h.43v.41z" fill="#000" fill-rule="nonzero"/><path d="m241.29 52.295h.42v.41h-.42v-.4z" fill="#000" fill-rule="nonzero"/><path d="m242.295 52.3h.41v.41h-.41v-.42z" fill="#000" fill-rule="nonzero"/><path d="m243.7 52.69h-.4v-.4h.4v.42z" fill="#000" fill-rule="nonzero"/><path d="m241.295 57.715v-.43h.41v.42h-.41z" fill="#000" fill-rule="nonzero"/><path d="m242.705 52.705h-.41v-.41h.41z" fill="#000" fill-rule="nonzero"/><path d="m241.71 52.69h-.42v-.41h.41v.28.16z" fill="#000" fill-rule="nonzero"/><path d="m241.71 57.305v.3.1h-.42v-.41h.42z" fill="#000" fill-rule="nonzero"/><circle cx="266" cy="42" fill="#d52b1e" fill-rule="nonzero" r="6"/><path d="m267.37285 39.0977175-1.378135 1.2106294-1.388497-1.2106294c-.13968-.13029-.357693-.13029-.497372 0-.13701.1361265-.13701.3563329 0 .4924594l1.222706 1.3747825-1.222706 1.3645229c-.092549.0898021-.129681.2216692-.097409.3459283s.129046.2220323.253867.2564893.258727.000363.351276-.0894391l1.388497-1.2106293 1.367773 1.2619272c.143068.1416551.375028.1416551.518096 0s.143068-.3713234 0-.5129786l-1.222707-1.3645229 1.233069-1.4158207c.131589-.1383.131589-.3541594 0-.4924594-.144996-.1268584-.362738-.1268584-.507734 0" fill="#fff" fill-rule="nonzero"/><circle cx="266" cy="63" fill="#d52b1e" fill-rule="nonzero" r="6"/><path d="m267.36722 61.1029194-1.379571 1.2246368-1.389943-1.2246368c-.137628-.1372259-.360262-.1372259-.49789 0-.133088.1433613-.133088.3651744 0 .5085357l1.22398 1.380311-1.22398 1.3906892c-.133088.1433613-.133088.3651744 0 .5085357.137628.1372259.360262.1372259.49789 0l1.389943-1.2246369 1.379571 1.2246369c.140352.143294.370231.1456173.513449.005189.143217-.1404282.145539-.3704305.005186-.5137247l-1.22398-1.3906892 1.234353-1.3491762c.090792-.0926951.125262-.226812.090425-.3518302-.034837-.1250183-.133688-.2219446-.259318-.2542678-.125629-.0323233-.25895.0048673-.349743.0975624" fill="#fff" fill-rule="nonzero"/><circle cx="266" cy="86" fill="#d52b1e" fill-rule="nonzero" r="6"/><path d="m267.367241 84.1072095-1.371633 1.221662-1.381946-1.221662c-.142393-.140087-.370949-.1377694-.510495.0051766-.139545.142946-.137236.3723897.005157.5124768l1.216937 1.376958-1.216937 1.376958c-.142393.1400871-.144702.3695308-.005157.5124768.139546.142946.368102.1452637.510495.0051766l1.381946-1.221662 1.371633 1.2009558c.142393.1429461.373258.1429461.515651 0 .142393-.142946.142393-.3747073 0-.5176533l-1.216937-1.376958 1.22725-1.3562519c.142393-.142946.142393-.3747073 0-.5176534-.142393-.142946-.373258-.142946-.515651 0" fill="#fff" fill-rule="nonzero"/><path d="m322 135h9v157h-9z" fill="#545454" fill-rule="nonzero"/><path d="m158 204.358205c-17.145458 1.289119-39.859306 2.361124-56.978865 1.031296.090649-1.112714-.077698-2.971761 0-4.070905 11.732467-.298533 29.214618-.936308 40.947084-1.221271 3.891289-.226128 7.794324-.057988 11.654768.502078 1.838864.325673 4.01442 1.27555 4.208666 3.311002z" fill="#39870c" fill-rule="nonzero"/><path d="m102.451371 173.071168c.617008-.566941 10.283474 2.435271 11.234696 2.577006 14.65395 2.783167 19.782833 2.061605 31.840207 2.04872 5.634268-.171514 11.270704.260435 16.81348 1.288503 2.171266.418235 4.279638 1.115485 6.272919 2.07449 2.647995 1.365813 5.86158 2.035835 7.584062 4.703036 1.193951 2.074262 1.909852 4.389985 2.095258 6.777526.874095 6.442516 2.63514 10.57861 3.624925 16.969586.754121 4.922081 1.478249 9.844163 2.172384 14.766245 1.002638 7.267157 2.879373 14.598739 4.241933 21.762816 0 3.865509 1.516812 13.348892 2.159529 17.137091.58903 3.982525.787078 8.013348.5913 12.034618-.043318.369297.014449.743448.167107 1.082343.141397.2577.38563.438091.527028.682906.124645.28319.173385.59409.141397.901953-.058717 1.276878-.507446 2.504832-1.285434 3.517613-.102835.141735-.231378.309241-.154252.476746s.282796.20616.462756.231931c1.00989.261044 1.835579.988237 2.223802 1.958524.352967 1.449382.631841 2.915891.835532 4.393796-7.573727-.114171-15.110164 1.084599-22.276576 3.543383-2.146675-14.173534-5.141737-39.144723-7.892566-53.318256-1.966715-10.024554-9.29369-23.373446-6.941345-33.397999.05271-.343969.143242-.681032.269941-1.005033-7.802586.335011-16.350724.811757-23.986204 2.680086-6.928491 1.726595-13.934107 3.156833-20.965433 4.316486-5.389481.788707-10.817727 1.283362-16.2607434 1.481778-4.1133897.322126 6.5042974-39.673009 6.5042974-39.685894z" fill="#579930" fill-rule="nonzero"/><rect fill="#3e3e3e" fill-rule="nonzero" height="52" rx="4.5" width="24" x="77" y="168"/><path d="m147.20104 205h-86.5876153c-5.5111794 0-11.2681627 5.6-9.172362 10.903226 2.7167786 6.864516 3.6611826 9.096774 9.172362 9.096774h86.5876153c5.51118 0 6.90838-5.470968 8.331455-9.264516 2.018178-5.496774-2.820275-10.735484-8.331455-10.735484z" fill="#545454" fill-rule="nonzero"/><path d="m148.016173 215.837677-86.0265772-.532127c-5.5263049 0-11.6479494-3.78978-9.5772028 1.544466 2.7178548 6.904669 3.6626329 9.149984 9.1759956 9.149984h86.6219164c5.513363 0 6.911117-5.502969 8.334755-9.318707 2.018978-5.477012-3.015524-.843616-8.528887-.843616z" fill="#3e3e3e" fill-rule="nonzero"/><path d="m108.151438 114-37.5454095.347826c-21.1096097 0-26.5709949 19.323672-24.0275129 30.68599 2.543482 11.362319 8.4438439 30.20934 8.4438439 30.20934 5.0611418 12.560387 8.2372666 18.254429 18.294995 18.254429h4.1444554c.1807551.167471.335688.347826.5164431.502415l29.398521-1.133655c9.205597-.283414 13.040187-9.636071 16.242133-20.727859 0 0 6.184406-19.504025 8.069423-29.784219 1.885017-10.280193-4.635076-27.465378-23.536892-28.354267z" fill="#787878" fill-rule="nonzero"/></g></g></svg>