<svg height="400" viewBox="0 0 1200 400" width="1200" xmlns="http://www.w3.org/2000/svg"><g fill="none" fill-rule="evenodd"><g fill="#fff"><path d="m0 400h1200v-400h-1200z"/><path d="m280 0h640v400h-640z"/><path d="m0 400h1200v-400h-1200z"/></g><path d="m0 400h1200v-135h-1200z" fill="#dedfde"/><path d="m0 400h1200v-135h-1200z" fill="#93d5f6"/><rect fill="#d8d8d8" fill-opacity=".01" height="400" rx="2" width="640" x="280"/><g fill-rule="nonzero" transform="translate(413 49)"><g opacity=".9" transform="translate(318 27)"><path d="m66.7952542 256.852969h-8.0332203l-1.7789831-26.325573 12.5084746-.112084c-1.3898305 12.74948-2.6962712 26.437657-2.6962712 26.437657z" fill="#bf7f5d"/><path d="m66.7952542 256.852969h-3.3911864c1.6816949-6.556875 1.9040678-14.374688-.9867797-19.894792-.4294126-.922167-1.2158416-1.62596-2.1750679-1.946515s-2.006975-.22971-2.8978134.251255l-.3057627-4.763542 12.5084745-.112083c-1.4454237 12.7775-2.7518644 26.465677-2.7518644 26.465677z" fill="#020203" opacity=".06"/><path d="m32.2162712 256.292552h-8.0332204l-1.6677966-25.526979 12.3277966-.112083c-1.3620339 12.567343-2.6267796 25.639062-2.6267796 25.639062z" fill="#bf7f5d"/><path d="m30.7986441 230.765573h4.0444067c-1.3898305 12.497292-2.6267796 25.56901-2.6267796 25.56901h-2.5433898c3.0854237-7.943906 2.8213559-17.092708 1.1257627-25.56901z" fill="#020203" opacity=".06"/><path d="m30.4233898 97.8767708 34.3983051-.2942187 4.3084746 14.2766149c2.4183051 6.444791 5.6427119 15.81776 4.9477966 22.668854l-5.2118644 50.843802s2.9881356 18.311614 2.1820339 29.127656c-.5420339 7.411511-.5837288 16.46224-1.6677966 26.956042l-12.3972882-.616459-3.3633898-58.255312-4.8088135-39.901667-3.1549153.350261-13.9955932 41.779062s5.0867796 11.362448 3.1688135 56.938334l-12.0081356.112083-6.3654237-59.83849s8.3389831-65.176458 9.7288136-70.430364z" fill="#0d0c0d"/><path d="m58.4840678 97.6385937h6.3376271l4.3084746 14.2766143c2.4183051 6.444792 5.6427119 15.817761 4.9477966 22.668855l-5.2118644 50.843802s3.2938983 18.339635 2.1820339 29.127656c-.7644068 7.41151-.5837288 16.462239-1.6677966 26.956042l-8.1583051-.406303c2.1542373-10.157552.5559322-22.486718 0-31.033072-.9450847-15.77573-1.501017-31.607501-1.0284746-47.425261.4725424-15.411458 1.5288136-30.696823-1.0145762-46.010208-.1166029-.932747-.5904694-1.782531-1.320339-2.367761-.1668254-2.560458-.1946636-5.128196-.0833899-7.691718.2223729-3.096303.5976272-6.010469.7088136-8.9386463z" fill="#020203" opacity=".1"/><path d="m27.9077966 198.177344c-1.5566102-24.54625 16.6779661-56.700156 17.4979661-54.094219l-13.6898305 40.728281s4.2528814 46.318438 3.1688136 56.938334l-9.5342373.084062c7.2132203-11.810781 3.3077966-31.677552 2.5572881-43.656458z" fill="#020203" opacity=".1"/><path d="m51.2986441 262.106875 6.7684745-5.085781c.2762356-.199754.6052797-.311946.9450848-.32224l7.5050847-.084062c.7304118-.010992 1.3784517.470363 1.5844068 1.176875.9223171 2.915551 1.368248 5.962878 1.320339 9.022708-.0222875.682268-.5737087 1.225785-1.2508475 1.232917l-22.4318644.196145c-.3847252.00992-.7484304-.176566-.967054-.495845s-.262632-.72822-.1170138-1.087332c.6393221-1.68125 2.3488136-4.077031 6.6433899-4.553385z" fill="#e7e6e0"/><path d="m56.2881356 258.352083c4.0305085.280209 8.0610169.448334 12.0915254.476355.6593164 2.405037.9958722 4.88831 1.000678 7.383489l-17.2755932.154115c.1917593-1.50307-.0144276-3.030526-.5976272-4.427292z" fill="#ffa308"/><path d="m7.78305085 261.994792 15.06576275-5.842344.3613559-.07017h8.9783051c.4023173-.00605.7691697.231292.9311864.602566 1.0795871 3.224893 1.4680294 6.644018 1.139661 10.031458-.0643212.623512-.5873034 1.096175-1.2091525 1.092813l-32.36915255.280208s.41694915-5.36599 7.1020339-6.094531z" fill="#e7e6e0"/><path d="m33.4532203 257.665573c.7669867 2.797722 1.0490954 5.707921.8338983 8.602396-7.3522033 0-14.7044067 0-22.0566101 0-.2892408-1.860606-1.0081057-3.626674-2.0986441-5.155834l9.4786441-3.684739c4.238983 1.597187 9.478644.364271 13.8427118.238177z" fill="#ffa308"/><path d="m23.4881356 42.6056771 20.6945763-6.5008333 18.359661 2.2977083s5.8928813 1.4010416 7.4633898 4.4553125c.7227119 1.4010417-6.9491525 26.9420312-6.9491525 26.9420312s-1.3898305 17.0366667 1.8901695 24.9665625c3.5857627 8.6584377 6.4210169 22.3326047 6.4210169 22.3326047l-47.5183051 2.339739s2.0708475-25.7651562 3.9054238-37.3097395c.5003389-3.1663542-3.5996611-16.6723958-3.5996611-16.6723958s-6.4488135-15.4955209-.6671186-22.8509896z" fill="#ffa308"/><path d="m66.0864407 58.4514583c-1.6122034 5.9544271-3.0993221 11.3484375-3.0993221 11.3484375s-1.3898305 17.0366667 1.8901695 24.9665625c3.5857627 8.6584377 6.421017 22.3326037 6.421017 22.3326037l-11.5355932.588438c1.7094915-4.329219 1.2230508-18.8720312 1.3898305-14.10849.1667796 4.763542-.3752543-17.6110933-.5420339-31.8316662.0487563-1.2115832-.4650357-2.3769404-1.3898305-3.1523438.8281652-4.1803466 3.3064303-7.8417585 6.8657627-10.1435417z" fill="#020203" opacity=".06"/><path d="m23.4881356 42.6056771 4.6281356 39.7195312s-5.1284746 13.3799479-6.6294915 13.3659485c-1.501017-.0140214-5.920678-18.6338651-4.3223729-35.7265735 1.5983051-17.0927083 6.3237288-17.3589062 6.3237288-17.3589062z" fill="#ffa308"/><path d="m22.3762712 69.0013021c.1903822 3.9184793 2.1520908 7.5327692 5.3230508 9.8072917l.4169492 3.4885937s-5.1284746 13.3799479-6.6294915 13.3659485c-1.501017-.0140214-4.8088136-14.4027193-4.6559322-29.3938652 2.0178751-.1000252 3.9573937-.8185479 5.559322-2.0595312-.1504384 1.5933757-.1550908 3.1973272-.0138983 4.7915625z" fill="#020203" opacity=".06"/><path d="m28.4776271 65.7648958-10.340339 2.0735417-9.1172881-18.8440104 9.7983051-1.513125z" fill="#2a303a"/><path d="m50.0338983 32.3220313c.3752542 1.3169791 1.8484746 5.1978645 1.8484746 5.1978645.1528813 3.6847396-3.7108475 5.7722917-5.7816949 6.2486459-3.5579661.8266146-8.3389831-.5183855-8.5196611-4.203125l-1.3898305-16.8125 14.9823729-2.0735417s-4.3362712.7985938-1.139661 11.6426563z" fill="#bf7f5d"/><path d="m46.4759322 31.1171354c-1.1726749 3.9996385-5.0186715 6.5784177-9.1311864 6.1225521l-.2640678-1.176875c4.6142373 1.4150521 9.3952542-4.9456771 9.3952542-4.9456771z" fill="#020203" opacity=".1"/><path d="m70.6867797 122.759271-.7922034-24.238021c.9867796 0 9.4230508-.9947396 9.4230508-.9947396l-2.6267796 25.0366146h.0833898l2.779661 13.001667-3.2383051 7.579635-2.6545763 3.964948h-.1806779l-.5142373 2.101563c-.6202555-.147546-1.120116-.609005-1.320339-1.218907-.3613559-1.050781.7644068-7.005208.7644068-7.005208.1019209-.457674.2131073-.962049.3335593-1.513125.2717993-1.987148.0027776-4.0114-.7783051-5.856354 0 0-1.3064406-.6725-1.7094915 1.106823-.4030508 1.779323-1.3898305 4.441302-3.5023729 4.203125l1.3898305-8.504323z" fill="#bf7f5d"/><path d="m76.7325424 122.563125h.0833898l2.779661 13.001667-3.2383051 7.579635-.9728813 1.401042c1.8901695-5.02974 1.7094915-10.297656.500339-16.420209-1.000678-4.987708-.1111865-8.168072.3891525-13.015677.5084343-3.134633-.3417957-6.338511-2.3349152-8.798541-.8330443-1.232636-2.3791889-1.754085-3.780339-1.274948l-.2084746-6.5428648c.9867797 0 9.4230508-.9947396 9.4230508-.9947396z" fill="#020203" opacity=".06"/><path d="m69.9640678 42.8578646c7.4911864 15.5655729 11.1186441 42.2974479 11.1186441 42.2974479s-1.0284746 11.5165625-1.681695 20.1329685c-3.5857627-.182135-6.8240677 0-10.4237288.126094l-.6532203-22.8930208c-1.959661-4.637448-3.9332203-10.9841667-8.6864407-23.6215625-6.9769491-18.4096875 10.3264407-16.0419271 10.3264407-16.0419271z" fill="#ffa308"/><path d="m70.0474576 43.0259896c7.4355932 15.5935937 10.9657627 42.1293229 10.9657627 42.1293229s-1.0284745 11.5165625-1.6816949 20.1329685c-2.779661-.140104-5.2674576 0-7.9081356 0 5.0450848-9.9894268 5.5593221-21.1136977 4.2528814-32.0838539-1.1952543-9.7372396-2.779661-16.6723959-5.6288136-30.1784375z" fill="#020203" opacity=".06"/><path d="m17.2338983 55.5092708c.363424.3611502.5598092.8594759.5413123 1.3735752-.0184969.5140994-.2501777.9967741-.6386004 1.3304353l-2.2237288 2.1716145.5976271 1.7793229 1.0701695-.3922916 5.878983-2.2416667s.82.7145313 0 1.4010417c-.4592701.3935044-.9522774.7451442-1.4732203 1.0507812l3.0437288-1.078802c.3368853.1764343.5411899.5342947.5232743.9165682-.0179157.3822734-.2547786.7191231-.6066641.8627547-.7576741.4646065-1.558257.8540506-2.3905085 1.1628646l3.1132203-.8546355c.2298811.2299468.3406825.5545402.2998439.8783952s-.2286775.6101794-.5083185.774834c-.9178815.5301215-1.8696962.9981666-2.8491525 1.4010417l-1.64.9807291 4.8644068-1.4010416c1.0701695.168125 0 1.4010416-.3474576 1.8213541-1.1197671.7525605-2.3291915 1.3597971-3.5996611 1.8073438-.5608952 1.9108298-.9653029 3.8648341-1.2091525 5.8423437 0 .5604167 2.140339 4.203125 2.779661 8.4903125.8616949 5.5201042.2223729 11.936875-1.0979661 11.9929167s-5.7677966-.168125-7.5884746-8.1960937c-.6508534-3.7500276-.8190213-7.5690359-.5003389-11.362448l.0277966-7.3694791c-.1765501-2.5806747-.5294782-5.1459994-1.0562712-7.6777084-.343838-.6167615-.3115335-1.3766134.0833898-1.9614583z" fill="#bf7f5d"/><path d="m22.9877966 67.1239063c.6900245.1309388 1.4014743.0876187 2.0708475-.1260938-.1337571.2059073-.2924996.3941697-.4725424.5604167-1.1197671.7525605-2.3291915 1.359797-3.599661 1.8073437-.5608952 1.9108298-.965303 3.8648342-1.2091526 5.8423438 0 .5604166 2.140339 4.203125 2.7796611 8.4903125.8616949 5.5201041.2223728 11.936875-1.0979661 11.9929166-.6248238.0206626-1.2488949-.0597494-1.8484746-.238177.1022232-.1845111.1904961-.3765314.2640678-.5744271 1.5705084-4.4132813 1.0423729-8.7565105 0-13.2398438-.4169492-2.35375-3.0576271-15.6076042 3.1132203-14.5147916z" fill="#8fcae7" opacity=".06"/><path d="m60.5410169 7.87385417c5.781695 4.02098953-5.4481355 22.05239583-6.6433898 24.01385413l-4.2945763-23.67760413c3.1715347-2.53675311 7.6189862-2.67347465 10.9379661-.33625z" fill="#380d09"/><path d="m51.7711864 8.14005208-.2640678 15.10322922c-.1111864 6.9071354-10.4098305 13.3239062-14.7738983 13.2538541-2.779661 0-9.2979661-6.7530208-9.1728813-13.6601562l.2362712-15.1032292z" fill="#bf7f5d"/><path d="m39.0681356.09807292 4.4752542.0840625c5.5593221.0840625 11.2576271 5.60416666 11.5077966 11.20833338.5420339 12.4972916-6.1708474 18.0314062-6.1708474 18.0314062s2.1125424-6.1645833-.5698305-9.9754167c-.1250848-.1821354-1.6538983 1.7933334-1.7789831.5183855-.0527341-2.6369567-1.9847595-4.8509574-4.5725423-5.2398959-3.32373-.3954727-6.4596236-1.7641849-9.02-3.9369271-.7659507.8833703-1.6232345 1.6818151-2.5572882 2.3817709-1.3507108.7767623-2.7426277 1.4783347-4.1694915 2.1015625.0277966-5.70223962-.5281356-15.7757292 12.8559322-15.17328128z" fill="#380d09"/><path d="m51.7850847 18.3536458c.861695.7285417-.3335593 6.9071354-3.5301694 6.5428646l-.1667797-5.2819271s2.2237288-2.4938541 3.6969491-1.2609375z" fill="#bf7f5d"/></g><path d="m219.769076 308.496039-9.839357 3.503961-6.929719-8.745887c2.280041-2.349435 4.232636-4.99413 5.805221-7.862888.969879-1.962218 2.417671-4.429007 3.38755-6.391225h.491968c4.413655.939062 9.839357 3.335771 11.315261 4.793419-1.405622 2.452772-4.821285 9.81109-4.287149 14.70262" fill="#e8eae9"/><g transform="translate(134)"><path d="m14.1242647 264.996277s4.1911765 7.82394 3.5625 9.506507c-1.7809964 2.543976-4.8457525 3.85368-7.90735294 3.379157-3.33897058-.50477-8.04705882-4.669125-8.87132352-4.92151-1.88602942-.616942.3492647-11.062883.3492647-11.062883z" fill="#1a1a1a"/><path d="m43.8397059 55.5306214c-2.2772059 5.7908371 1.830147 9.4083576 7.6558823 11.2171179s37.525 5.2299812 39.1176471 4.1363122 3.8139706-9.8149781 1.6345588-11.6237384c-2.1794117-1.8087603-28.6955882-8.8054376-33.7529412-9.5065074-5.0573529-.7010699-12.0566176-1.0656262-14.7110294 5.7207301" fill="#f5a37e"/><path d="m47.0389706 51.1839882c1.9419118-1.4021397 7.0970588-3.9119699 16.3735294-1.6124607 6.1889706 1.5423537 17.9242647 4.7812965 17.9242647 4.7812965.6029507 3.377534.406747 6.8500029-.5727941 10.1374703-.9562778 3.5144435-2.8440807 6.7029139-5.4625 9.2260795 0 0-24.6860294-6.1553935-28.4860294-9.7168284-1.1316177-1.0516048-5.1551471-9.0578227.2235294-12.8155572" fill="#152831"/><path d="m31.5875 22.6224017s-.8242647 17.9473887-1.8580882 18.8026939c-3.1852942 2.7481939-14.9904412 5.0336817-17.1558824 9.702807-2.68235293 5.7067088 11.875 31.365866 13.7610294 39.83479s-2.0955882 21.5929524-3.3948529 29.8936194 24.7139706 18.424116 25.6779412 18.424116c.9639705 0 9.3463235-7.837961 10.9529411-10.558112 1.6066177-2.720151 0-24.004633.0838236-29.4449348.0838235-5.4403022 1.3132353-24.4673384 1.5507353-25.7152428.9813209-5.5321126.7139764-11.2146787-.782353-16.6293773-.3073529-1.7526746-.2095588-4.6971681-1.0897059-5.8188799-1.7463235-2.2434236-11.4698529-5.2159598-11.6235294-6.3376716-.1536764-1.1217118-1.3970588-16.6994843-1.3970588-16.6994843z" fill="#f6af8a"/><path d="m29.7294118 41.2989031 15.675 9.4364004 2.2632353-6.1413721s10.2823529 3.2529642 11.6095588 5.4963878 1.9698529 7.9361109 2.4029412 9.7308498c.6136665 5.7603996.6136665 11.5700475 0 17.3304472-.4191177 4.2064192-.3213236 9.8149781-.9779412 16.9799122-.5588235 6.1413716.0698529 21.4527376.0698529 21.4527376s-5.8397059.224343-14.9066176-.238363c-10.5058824-.532813-21.0955883-2.173317-21.5566177-2.551895-2.0257353-1.668546.8102941-17.9894525.4470589-19.7982128-.3632353-1.8087603-13.2022059-33.0904978-13.3977942-37.1847459-.310736-3.5725816 1.669181-6.9501188 4.9316177-8.4128384 3.0875-1.5283323 13.4816176-6.141372 13.4816176-6.141372" fill="#182e38"/><path d="m17.9801471 48.001131s-10.65955886 4.8514035-.5308824 12.7454502c4.3727941 3.4071996 25.3147059 8.7213092 29.2544118 9.9271494 14.0823529 4.3466332-7.6977941 35.6564134-9.3742647 38.0260294-1.0557708 1.680518-1.6264323 3.621999-1.6485294 5.608559l-13.5654412-1.570396c-4.1911765.827262 2.2492647-19.4196357.6566176-23.8363758-1.592647-4.4167402-11.7492647-29.4449345-11.7492647-32.6698559-.0841287-4.1284523 2.9127273-7.6715879 6.9852941-8.2586031" fill="#182e38"/><path d="m46.7875 34.8350389-15.8705882-5.7627944-.4051471 9.4223791 4.8897059 2.9865576z" fill="#e6a37b"/><path d="m50.1963235 4.54882052c-4.1911764-3.51937074-15.9963235-6.4218-21.4448529 1.55637511-5.4485294 7.97817507-2.6404412 15.52168687.6566176 20.13472667 2.3726974 3.4863715 5.8021487 6.1120676 9.7794118 7.4874262.9779412.3925991 9.6676471 1.5423537 11.3720588.883348 1.1595588-.4486847 1.732353-9.1139083 2.0816177-9.0998869.6535005-.0857748 1.1778535-.5837413 1.2992647-1.233883 0-1.0095406-1.2992647-7.1789554-1.0757353-7.8379611s2.0816176-7.86600393-2.6544118-11.89014498" fill="#f7ae83"/><path d="m52.7389706 8.29253362s-6.719853-3.46328515-14.6132353 4.36065458c-1.7044118 1.6685463 1.8860294 8.4128384 1.4669118 9.0297799-.4191177.6169415-6.6919118-4.7672751-6.4264706-3.9960982 2.6823529 7.8379611.2654411 12.3107869-.4470589 12.3949153-2.1933823.2383637-9.3742647-10.6983262-6.3845588-19.8823415 2.9897059-9.18401532 12.5735294-10.47398388 14.9625-10.08138475s9.3463236.63096288 11.4419118 8.17447467" fill="#432918"/><path d="m37.0919118 19.2993306c.8661764 2.4958087 1.3970588 5.8889869 0 6.351693-1.3970589.4627061-3.1433824-1.1918188-4.0235294-3.6876275-.8801471-2.4958088-.475-4.8934677.8661764-5.3561738 1.3411765-.4627061 2.2772059.1962995 3.1433824 2.6921083" fill="#f6af8a"/><path d="m37.874265 265.543111h10.142647v1.90691h-10.142647z" fill="#1a1a1a"/><path d="m38.2654412 252.152677c-1.2853345 2.187732-2.0902981 4.625746-2.3610294 7.150913-.1536765 2.005059 1.0338235 6.239521 2.3470588 6.239521 4.1414082-.03599 8.2807692.198194 12.3919118.70107 3.9536764.532813 5.4345588 2.80428 15.5632352 2.80428 2.9617648 0 8.1727942-.182278 8.1727942-1.40214 0-5.258024-9.7794118-3.393178-12.7970589-6.239522-7.7955882-7.22102-12.992647-8.959673-12.992647-8.959673s-10.044853-.659005-10.3242647-.280428" fill="#1a1a1a"/><path d="m43.0852941 113.326821s-13.5235294 13.558692-14.1382353 19.475721c-.6147059 5.91703 5.0713236 24.845917 7.0830883 39.736641s3.2691176 17.891303 2.7941176 21.410673c-.475 3.519371-4.4845588 17.737068-4.3448529 27.229554.1536764 11.062883-.4191177 33.651354-.4191177 33.651354s2.9477941 2.31353 10.5338235 2.272033c3.3132977-.216096 6.4839701-1.433253 9.094853-3.491895 0 0 3.0316176-55.524733 3.5904412-61.329592.3911764-3.771756 3.4786764-29.851555 4.4147058-51.122015.307353-6.842442-1.2573529-26.402291-1.2573529-29.220592z" fill="#007bc7"/><path d="m44.7058824 47.1738686.6985294 3.7296917-8.2566177-4.9074891z" fill="#bacfed"/><path d="m45.4044118 50.9035603 1.3132353-4.6130398 1.9838235 1.5563751z" fill="#bacfed"/><path d="m22.0316176 112.359345c-2.9522713 7.242941-5.4760223 14.654452-7.5580882 22.195872-2.1514706 8.889566-4.70808822 54.893771-5.47647058 59.212361-.76838235 4.318591-3.46470588 17.55479-5.58823529 30.622732s-3.28308824 39.400127-3.28308824 39.400127l16.63897061 2.551894 11.5117647-63.699208c1.5647059-8.651202 18.1617647-70.008837 18.1617647-70.008837l2.0397059-19.756149z" fill="#007bc7"/><path d="m22.5485294 149.978754c-1.3970588 5.888987-5.4764706 45.892034-5.8117647 48.1635-.3352941 2.271467-10.64558823 63.61508-11.17647058 66.447402l-5.49044118-.855305s1.24338235-26.248056 3.325-39.33002c2.08161765-13.081963 4.77794118-26.29012 5.5882353-30.622731.81029411-4.332612 3.32499996-50.322796 5.47647056-59.226383 2.0876556-7.541405 4.6160529-14.952861 7.5720588-22.195872l14.5992648.448685s-12.6852942 31.267716-14.082353 37.156703" fill="#01689b"/><path d="m21.6544118 112.359345s25.6779411.434663 27.2147058.476727c1.5367648.042065 11.6235295-.953455 11.6235295-.953455l.1955882 4.066206s-9.7794118.813241-14.4735294.813241c-4.6941177 0-25.482353-1.093669-25.482353-1.093669z" fill="#3b1b1d"/><path d="m50.2941176 117.294877h-2.0955882c-1.1821659.00039-2.1490999-.945177-2.1794118-2.131253v-.322492c0-.580118.229616-1.136476.638335-1.546681.408719-.410206.9630609-.640657 1.5410768-.640657h2.0955882c1.2036559 0 2.1794118.979305 2.1794118 2.187338v.322492c-.0303119 1.186076-.9972458 2.131643-2.1794118 2.131253" fill="#732d1d"/><path d="m42.5125 48.5059013 5.8816176-1.5283323-.475 4.8373821-2.9897058.6870485z" fill="#1a1a1a"/><path d="m47.9191176 51.8149511c3.2411715 6.7651431 5.3149734 14.033253 6.1330883 21.4948022 1.5786765 13.0398995 2.2213235 43.5925247 2.2213235 43.5925247l-3.3808823 5.973115-4.0933824-7.010699s1.4808824-31.9267215.5029412-41.4752931c-.9555854-7.3739949-2.4166485-14.6730845-4.3727941-21.8453371z" fill="#182e38"/><path d="m27.5639706 42.4346362 2.9477941-3.9400126 14.2080882 8.679245-2.2632353 5.0897672z" fill="#152831"/><path d="m46.7176471 46.2905205 3.3669117 3.8839271.5308824-4.1503336-2.8220588-2.7201511z" fill="#e0f2fd"/><path d="m13.4117647 50.0622764c-4.31691176 4.4588044-2.0676471 9.2961865 2.4169118 13.194135 4.4845588 3.8979484 23.3867647 12.3248083 25.2867647 11.9322091 1.9-.3925991 7.292647-7.5575332 6.0492647-10.0393205-1.2433824-2.4817873-13.9705883-12.2967655-18.2875-14.8346384-4.3169118-2.537873-10.3941177-5.4823664-15.4654412-.2523852" fill="#f8bc96"/><path d="m92.2058824 70.6597092c6.2448529-2.5799371-.1816177-15.0589808-3.6183824-21.0320961s-15.2139706-22.1818507-15.2139706-22.1818507l-6.6220588 3.351114c3.2086083 11.9532939 7.5985253 23.5551381 13.1044118 34.6328515.8941176 1.7246319 6.0073529 7.8099184 12.35 5.1879171" fill="#f6af8a"/><path d="m68.6375 15.1209541c-.6942204.2093245-1.0881629.9435927-.8801471 1.6405035l1.5786765 5.3842166c.2085659.6967452.9401734 1.0921205 1.6345588.8833481.658893-.2432042 1.0356207-.9393842.8801471-1.6264821l-1.5926471-5.398238c-.2085659-.6967452-.9401734-1.0921204-1.6345588-.8833481" fill="#f5a37e"/><path d="m66.2205882 15.6117031c-.658893.2432041-1.0356206.9393841-.880147 1.6264821l1.592647 5.3842165c.0970801.3335599.3228003.6144328.6270627.7802797.3042623.1658469.6618962.2029478.9935256.1030684.658893-.2432042 1.0356206-.9393841.880147-1.6264821l-1.592647-5.398238c-.2146108-.6839932-.9347071-1.070272-1.6205883-.8693266" fill="#f5a37e"/><path d="m63.9014706 16.2006017c-.687131.2094453-1.079209.9339921-.8801471 1.6264821l1.5786765 5.398238c.2085659.6967452.9401734 1.0921204 1.6345588.8833481.6699155-.2267821 1.036195-.9495439.8242647-1.6264821l-1.5786764-5.398238c-.2085659-.6967452-.9401735-1.0921204-1.6345589-.8833481" fill="#f5a37e"/><path d="m61.7220588 17.0138428c-.658893.2432042-1.0356206.9393841-.880147 1.6264821l1.5786764 5.3842166c.2085659.6967452.9401734 1.0921204 1.6345589.883348.687131-.2094452 1.0792089-.933992.880147-1.6264821l-1.5786765-5.398238c-.2085658-.6967452-.9401734-1.0921204-1.6345588-.883348" fill="#f5a37e"/><path d="m68.9308824 35.5220873s-5.9933824-7.0808056-6.719853-8.7493519-1.3970588-8.7213092-1.3970588-8.7213092 2.8779412 1.4021397 4.3448529.7150913c1.4669118-.6870485 5.1272059-2.8042795 5.1272059-2.8042795 1.570592 2.5362847 2.8545048 5.2404263 3.8279412 8.0623035.4007746 1.8713519.6114112 3.7786736.6286765 5.6926873z" fill="#f6af8a"/><path d="m17.8404412 47.047676c2.305147-.4907489 7.8794117-.7711769 11.2742647 2.1733166 2.721763 2.4071159 5.6800802 4.5305691 8.8294117 6.3376716-2.6550304 1.6458026-4.5648956 4.2669538-5.3227941 7.305148-1.6485294 5.608559 1.3970589 14.1896542 1.3970589 14.1896542s-19.5588236-13.0819638-22.0595589-17.6389179c-1.1495813-2.407939-1.1465079-5.2097265.0083532-7.6151193 1.1548611-2.4053929 3.3363383-4.1536783 5.9291468-4.7517532" fill="#182e38"/><path d="m92.2058824 24.2769266h-20.0338236c-.6095437 0-1.1036764-.4959298-1.1036764-1.1076904v-10.516048c0-.6117605.4941327-1.1076904 1.1036764-1.1076904h20.0338236z" fill="#1a1a1a"/><path d="m74.8125 22.524252h-14.2639706c-.6095437 0-1.1036765-.4959299-1.1036765-1.1076904v-7.0106987c0-.6117605.4941328-1.1076904 1.1036765-1.1076904h14.2639706z" fill="#1a1a1a"/><path d="m55.3375 21.220262h-1.8860294c-.4397974 0-.7963235-.3578228-.7963235-.7992196v-5.0056389c0-.4413968.3565261-.7992197.7963235-.7992197h1.8860294c.4366674.0074932.7888575.3609642.7963235.7992197v4.9775961c-.007466.4382555-.3596561.7917264-.7963235.7992196" fill="#1a1a1a"/><path d="m52.780882 15.569639h7.753676v4.669125h-7.753676z" fill="#1a1a1a"/><path d="m93.1558824 17.9112122c0 3.5053494-.4191177 6.3657144-.95 6.3657144-.5308824 0-.95-2.8042794-.95-6.3657144 0-3.5614349.4330882-6.3657144.95-6.3657144.5169117 0 .95 2.8042795.95 6.3657144" fill="#626161"/><path d="m88.7272059 25.4266812h-20.0338235c-.6095437 0-1.1036765-.4959299-1.1036765-1.1076904v-10.516048c0-.6117605.4941328-1.1076904 1.1036765-1.1076904h20.0338235z" fill="#313131"/><path d="m71.3198529 23.6319424h-14.25c-.6063957-.0075612-1.0961427-.4990894-1.1036764-1.1076904v-7.0106987c.0075337-.6086011.4972807-1.1001293 1.1036764-1.1076904h14.25z" fill="#313131"/><path d="m51.8448529 22.2999096h-1.8860294c-.4420478-.0076504-.7963892-.3695196-.7963235-.813241v-4.9635747c0-.4413968.3565262-.7992197.7963235-.7992197h1.8860294c.2123483-.0038409.4171275.0791284.5673047.2298518.1501773.1507234.2328459.3562474.2290189.5693679v4.9635747c.0037481.2143851-.0784925.4212905-.2282403.5742196s-.3544421.2390214-.5680833.2390214" fill="#313131"/><path d="m49.288235 16.677329h7.753676v4.669125h-7.753676z" fill="#313131"/><path d="m89.6772059 19.0048812c0 3.5193708-.4191177 6.3657144-.95 6.3657144-.5308824 0-.95-2.8042794-.95-6.3657144 0-3.5614349.4330882-6.3657144.95-6.3657144.5169117 0 .95 2.8042795.95 6.3657144" fill="#626161"/><path d="m66.2345588 17.0138428h-8.6477941c-.5169548 0-.9360294-.4205988-.9360294-.9394336 0-.5188349.4190746-.9394337.9360294-.9394337h8.6477941c.5169548 0 .9360294.4205988.9360294.9394337 0 .5188348-.4190746.9394336-.9360294.9394336" fill="#575757"/><path d="m86.1985294 15.3172537h-16.6389706c-.3591179.044281-.7115037-.1231277-.9050273-.4299533s-.1935236-.6981136 0-1.0049392.5459094-.4742344.9050273-.4299533h16.6389706c.3591179-.0442811.7115038.1231277.9050274.4299533s.1935236.6981136 0 1.0049392-.5459095.4742343-.9050274.4299533" fill="#575757"/><path d="m66.1647059 22.8467441h-8.4661765c-.5632492 0-1.0198529-.4582643-1.0198529-1.023562v-.1962996c0-.5676101.4543512-1.029913 1.0198529-1.0375834h8.4661765c.570965 0 1.0338235.4645419 1.0338235 1.0375834v.1962996c-.0076426.5675583-.4682702 1.0236138-1.0338235 1.023562" fill="#3d3d3d"/><path d="m86.0588235 24.571376h-16.317647c-.601828 0-1.0897059-.4896523-1.0897059-1.093669v-.3645563c.0076463-.598534.4932918-1.0796968 1.0897059-1.0796476h16.317647c.5964141-.0000492 1.0820596.4811136 1.0897059 1.0796476v.3645563c0 .6040167-.4878779 1.093669-1.0897059 1.093669" fill="#3d3d3d"/><g fill="#f8bc96"><path d="m39.3551471 75.0203638c6.2169117 2.6220013 10.5338235-10.726369 12.3080882-17.35849s4.9875-26.4583769 4.9875-26.4583769l-6.9852941-2.3555947c-6.2069708 10.7003562-11.3317541 21.9970947-15.2977941 33.7214607-.6007353 1.836803-1.3132353 9.8149781 5.0154411 12.4510009"/><path d="m63.3147059 14.4619485c-.6902659-.209886-1.4200105.1782226-1.6345588.8693266l-1.6066177 5.3561738c-.2091254.6927763.1775769 1.4251749.8661765 1.6405035.6898818.1736304 1.3996181-.2006382 1.6485294-.8693266l1.6485294-5.3701952c.1043622-.3328175.0714765-.6937288-.0913033-1.0020273-.1627798-.3082984-.4418746-.5382656-.7748732-.6384762"/><path d="m61.9316176 13.5084934c-.655861-.3092626-1.4373652-.0268979-1.7463235.6309629l-2.4308823 5.0617245c-.2655608.6561917-.001843 1.4081148.6147058 1.7526747.6485103.3018431 1.4184551.0276433 1.732353-.6169415l2.4308823-5.0617245c.1527953-.3138109.1737673-.6760248.0582172-1.005486s-.3579623-.5986266-.672923-.7471887"/><path d="m59.4727941 13.3262153c-.6331047-.3446398-1.4246568-.1131914-1.7742647.5187917l-2.6963235 4.9215105c-.1683194.3083291-.2069234.6713721-.1072284 1.008408.099695.337036.329425.6201276.6381107.7863308.6371853.3004345 1.3975587.0781027 1.7742647-.5187917l2.6963236-4.9215105c.3077255-.6431101.085238-1.415596-.5169118-1.7947388"/><path d="m56.8044118 13.3262153c-.6331048-.3446398-1.4246569-.1131914-1.7742647.5187917l-2.6963236 4.9215105c-.1694072.3066203-.2101087.6683473-.1131007 1.0051631.097008.3368157.32373.6209596.6300125.7895757.6331047.3446398 1.4246568.1131914 1.7742647-.5187917l2.6544118-4.9215105c.3051818-.6465669.0763886-1.4200415-.5308824-1.7947388"/><path d="m47.9051471 33.7413699s.7823529-9.2541223 1.3970588-10.9507114 5.1830882-7.1789554 5.1830882-7.1789554 1.0338235 3.0286218 2.5566177 3.6034991c1.5227941.5748773 5.5882353 1.7106105 5.5882353 1.7106105-.6902084 2.9065215-1.6975159 5.7278358-3.0036765 8.4128384-1.031394 1.6183416-2.2251137 3.126489-3.5625 4.5008686z"/></g><path d="m33.9625 77.0534664c2.2990249.0592252 4.568684-.5284668 6.5522059-1.6965891 0 0-7.7676471-3.2109-7.7676471-3.070686 0 .6590056 1.2433824 4.7672751 1.2433824 4.7672751" fill="#152831"/></g><path d="m304 179h41v13h-41z" fill="#402a1b"/><path d="m278 159h6v138h-6z" fill="#1e2020"/><path d="m137 159h6v138h-6z" fill="#1e2020"/><path d="m134.984297 193h-58.6266306c-6.4627781 0-7.1762017-2.819237-1.6087001-6.427861l33.2791107-21.144278c6.688036-3.862431 14.192156-6.065735 21.892312-6.427861h156.169817c7.695733.362195 15.195297 2.56557 21.878323 6.427861l33.265122 21.144278c5.595479 3.538143 4.868067 6.427861-1.594711 6.427861h-58.626631s-146.028012-.718905-146.028012 0" fill="#402a1b"/><path d="m339.64584 180.957746c6.461324 0 7.174587-2.816901 1.594353-6.422535l-33.257638-21.12676c-6.687556-3.854805-14.190037-6.051471-21.887387-6.408451h-156.120697c-7.720218.359416-15.243471 2.571035-21.943328 6.450704l-33.2716238 21.126761c-5.5942201 3.535211-4.8529859 6.422535 1.6083383 6.422535" fill="#88522e"/><path d="m96 174.783715 15.226289-16.783715 36.773711 2.364716-11.197435 14.635284z" fill="#fff"/><path d="m7 291h78v5h-78z" fill="#657a81"/><path d="m15.5 296c-4.1421356 0-7.5 3.357864-7.5 7.5s3.3578644 7.5 7.5 7.5 7.5-3.357864 7.5-7.5-3.3578644-7.5-7.5-7.5" fill="#020203"/><path d="m76.5 296c-4.1421356 0-7.5 3.357864-7.5 7.5s3.3578644 7.5 7.5 7.5 7.5-3.357864 7.5-7.5-3.3578644-7.5-7.5-7.5" fill="#020203"/><path d="m76.058378 298.000342c-2.0274216-.023645-3.8683966 1.179441-4.6606961 3.045788-.7922995 1.866346-.3790392 4.026395 1.0462285 5.468478 1.4252678 1.442082 3.5803239 1.880651 5.4558381 1.110299s3.1001136-2.597086 3.1002515-4.624642c0-1.326062-.5267768-2.597812-1.4644457-3.535479-.9376688-.937668-2.2094206-1.464444-3.5354845-1.464444" fill="#323d40"/><path d="m7 291h78v1h-78z" fill="#93989a"/><path d="m16.0146493 298c-2.023598-.005878-3.8512222 1.208567-4.629711 3.076436-.7784889 1.86787-.3543219 4.020814 1.0744937 5.453807 1.4288155 1.432993 3.5805125 1.863444 5.4506477 1.090412s3.0899203-2.597102 3.0899203-4.620708c-.0079547-2.7524-2.2329842-4.983935-4.9853507-4.999947" fill="#323d40"/><g fill="#657a81"><path d="m9.767078 211.235168c-.47728822-1.816546-.75819505-3.67856-.83794657-5.554396 0-4.526833.46087061-7.41512-3.15626542-7.678954-1.50830383-.111087-1.7596878 4.887869-1.7596878 9.414703-.0974438 2.381981.34650274 4.755154 1.29881718 6.942996.52038531 1.296763 1.16091279 2.542608 1.91331134 3.721445 2.62556593 4.165798 6.56391477 7.55398 8.11411597 6.818022 3.6311018-1.735749.6703573-3.832534-2.7931552-8.137191-1.1859269-1.713529-2.126012-3.582958-2.79315528-5.554397"/><path d="m41 233h10v59h-10z"/><path d="m41 232h10v59h-10z"/></g><path d="m73.2722655 220.842083-54.8624052-2.788063c-2.4466014-.315483-4.8635344.767861-6.2584449 2.80523-1.3949105 2.037368-1.5327578 4.685466-.3569439 6.857027s3.4671657 3.500679 5.933263 3.44164l54.8624052 2.788063c2.4466014.315483 4.8635344-.767861 6.2584449-2.80523 1.3949105-2.037368 1.5327578-4.685466.3569439-6.857027s-3.4671657-3.500679-5.933263-3.44164" fill="#e8e0dd"/><path d="m4.83405689 158.111295c-2.87066764.491906-5.00931503 1.855189-4.82272164 3.02171 1.99514091 12.47933 1.99514091 25.186644 0 37.665973-.18659339 1.180576 1.952054 2.543859 4.82272164 3.035765 2.87066765.491907 5.33944181-.154599 5.54038851-1.405446 2.1674061-13.526672 2.1674061-27.301557 0-40.828229-.2009467-1.307065-2.71278088-1.953571-5.54038851-1.405447" fill="#e8e0dd"/><path d="m2.4501992 198.859293h-.07968127c-.12702774.013557-.25544238.013557-.38247012 0-.55776893-.084424-.97211156-.309555-.98804781-.520616 2.42219755-12.51192 2.42219755-25.296034 0-37.807955 0-.21106.43027888-.436191.98804781-.520615.13769256-.013476.27665007-.013476.41434263 0 .39840637 0 .71713147.098495.74900398.267343 1.21179377 6.285052 1.83012208 12.648127 1.84860558 19.023578v.40805c-.01921704 6.375423-.63754015 12.738445-1.84860558 19.023579 0 .168848-.3187251.267343-.70119522.267343" fill="#e9e3e3"/><path d="m72.8790081 228h-.1395389l-56.6249023-2.553071c-.7727131-.017935-1.4774209-.458244-1.8486668-1.155065-.3712458-.696822-.3526287-1.544294.0488386-2.22318.4014673-.678887 1.1247923-1.08605 1.8975055-1.068115h.0418617l56.6109483 2.553071c1.1697421.022909 2.112659.992125 2.1349458 2.194494v.129088c-.058055 1.168887-.9826785 2.09429-2.1209919 2.122778" fill="#e9e3e3"/><path d="m72.5874788 134.647551c-6.33243-6.769076-14.9675618-19.15325-20.3131196-14.706206-6.6476809 5.530659-2.919497 9.499224 8.8818498 20.166501 11.8013469 10.667277 24.2331954 23.361055 28.9756646 17.337843 4.7424692-6.023211-11.1982583-16.029061-17.5443948-22.798138" fill="#76d2b6"/><path d="m98.1590037 154.773859c-8.7086639-1.235918-11.7178679-1.988216-17.4311951-1.719538 0 0-6.3096212 5.373557.2634786 8.812634 3.9521803 2.109121 10.6362186 2.364365 18.9565981 1.988216 7.6824837-.362715 19.4974227-1.638935 19.4974227-1.638935l.554692-4.137639s-13.1462-2.068819-21.8409963-3.304738" fill="#f5a37e"/><path d="m97.2061688 153.693851c-8.9396208-1.300021-11.6442831-2.472867-17.3810143-1.031539-2.419961.607619-5.0534481 6.415323.3131714 9.891468 3.8577026 2.515259 10.3915974 2.684827 18.9184014 2.275037l15.9432727-.720664v-8.195787s-8.82574-.904363-17.7653611-2.204384" fill="#76d2b6"/><path d="m112.023105 143.207043c-.087003-.10744-.220688-.179884-.370578-.200819-.149891-.020934-.303212.011426-.425011.089704-.249637.163001-.301714.468742-.116998.686893l.854088 1.010136c.087003.10744.220687.179884.370578.200819.14989.020934.303211-.011426.42501-.089704.124441-.075116.20835-.190536.232597-.319948s-.013234-.261786-.103898-.366945z" fill="#cadbd9"/><path d="m112.294659 144.498997c-.428221-.55452-1.22557-.663193-1.788111-.243707-.270347.199608-.448624.498883-.494729.830508s.043834.667754.249585.932778l13.252204 17.575508c.418188.559091 2.797528 2.781117 3.359917 2.351047.56239-.43007-.908475-3.311535-1.326662-3.870626z" fill="#91a5a3"/><path d="m113 148.259259.543689.740741 1.456311-1.248677-.533981-.751323z" fill="#cadbd9"/><path d="m113.620975 147.141134c-.058972-.075922-.14642-.125624-.24293-.138073s-.194096.013386-.271095.071769c-.1426.14405-.1426.373123 0 .517173l4.233939 5.304341c.142341.138208.371683.138208.514024 0 .162989-.125268.193118-.355648.067635-.517173z" fill="#e5eeeb"/><path d="m118.486603 156c-1.516106.426809-3.004594.967752-4.455254 1.619121 0 0-.2109 5.549167.461343 5.387255.672242-.161912 3.189856 2.708347 4.468435 2.943856 3.058044.456297 8.317352-2.310927 8.027366-4.783765-.289987-2.472839-5.681108-5.563888-8.50189-5.122309" fill="#f8b999"/><path d="m98.84119 203.521607s-55.9354082-16.644468-65.6847134-18.378266c-9.7493053-1.733799-9.3413257 12.705276-9.0458923 19.307582.2954335 6.602305 12.1831146 9.889587 15.2922004 8.641252s53.2624384.915446 59.2133131 1.886373c3.1934952.513205 7.9063632-8.322233.2250922-11.456941" fill="#f5a37e"/><path d="m98.3409088 239.935457c1.8263182-12.76342 3.9593462-24.520306 4.0011702-33.033913 0-2.865828-7.9465745-6.79411-12.7284603-.643064-4.7818859 6.151046-7.124034 16.454048-6.2596698 27.889402.8504228 11.99454 2.5233858 31.999419 1.7426697 37.745055-1.3941358 10.149226-4.5448827 8.849119-4.0429938 14.566796.2230617 2.698072 5.5765432 4.319712 11.6270927 7.59095 7.2216235 3.942261 10.9160835 7.59095 12.1568645 5.17247 1.394136-2.712052-6.5106145-4.193895-11.3203831-21.5706-1.3941358-5.144511 3.0392161-25.037553 4.865534-37.745055" fill="#f5a37e"/><path d="m103.39743 295.337738s-4.2606686 1.181803-6.6855504-.458817c-2.4248819-1.64062-6.1238542-8.953892-8.5898358-11.901447-1.4601018-1.750326-3.0199961-3.412331-4.6716651-4.977474 0 0-3.0550771 1.751848-2.3426824 6.95178.8056697 4.81423 1.2180691 9.687781 1.2329907 14.570929v1.01496l1.5754883.097325s.3698972-8.82876 1.726187-9.551745c.9726928-.514432 2.7399796.806406 5.082662 3.336854 2.3426825 2.530448 4.6579652 6.548576 5.6717576 6.854455 2.0412848.583949 13.4395991 1.585005 14.5766911-.722985.547996-1.098381-7.576043-5.213835-7.576043-5.213835" fill="#020203"/><path d="m104.942366 212.244496c-16.4127673-8.287478-56.3323118-18.820961-66.5045897-21.024321s-11.1097506 12.694198-11.4315696 19.531722c-.3218189 6.837524 11.9632705 10.746712 15.3913421 9.595278 3.4280717-1.151433 56.1504144 5.160128 62.5448172 4.619949 3.148229-.270089 4.911238-10.249179 0-12.722628" fill="#f8bc96"/><path d="m97.5323465 213.27114c-6.3201498 4.632702-11.4605384 13.968513-13.820061 25.261605-2.4859256 11.856339-6.3903738 31.682615-8.7498964 37.019376-4.1291645 9.420298-6.8257618 7.308123-7.9212545 12.982832-.5337015 2.67542 4.2134333 5.731033 9.1571949 10.560871 5.9128514 5.843683 8.4268665 10.391898 10.3369563 8.448698 2.1207614-2.238905-5.1403886-5.914088-4.9999408-24.022463 0-5.379004 9.8313442-23.402892 15.1262253-35.202906 5.2948807-11.800014 12.9492847-24.219599 11.0391947-32.58381-.898865-3.914563-3.834224-7.040581-10.1684185-2.464203" fill="#f8b999"/><path d="m85.9789197 304.317941s-4.5042188 0-6.3948786-2.304418-3.5171832-10.362899-5.1159029-13.882374c-.9404418-2.104734-2.0034616-4.151995-3.1835374-6.131149 0 0-3.4754775.810038-4.170573 6.047352-.5325451 4.881898-1.4624516 9.711737-2.780382 14.441021l-.3336458.977632 1.5292101.530714s2.780382-8.379702 4.2817883-8.742823c1.0982509-.237425 2.5023438 1.550245 4.0593577 4.650735s2.780382 7.62553 3.6283985 8.198143c1.8350521 1.145226 12.6785419 5.307145 14.4301826 3.407745.8341146-.921767-5.9500175-7.192578-5.9500175-7.192578" fill="#020203"/><path d="m65.4054919 142s1.5514711-11.685962 1.5941722-13.363242c.042701-1.677279-3.9996641-5.636758-3.9996641-5.636758z" fill="#76d2b6"/><path d="m60.678501 112.136702c-2.2816727 2.995444-5.2522461 5.440077-8.678501 7.141971 0 0 0 10.866398 1.287311 15.34408 3.2110453 10.950093 8.9967127 13.377247 8.9967127 13.377247.5527219-7.269456 1.5671171-14.499389 3.0374753-21.649101 2.1406969-9.457533 8.678501-11.34067 8.678501-11.34067l-8.852071-12.010229c-1.0053753 3.248616-2.5383093 6.323026-4.5417489 9.108803" fill="#76d2b6"/><path d="m54.9667283 117.054142-2.9667283 3.410937s5.3512015 9.799675 6.4048059 11.829994c1.0536045 2.03032 6.3770795 9.704927 6.3770795 9.704927l2.2181146-.757986s-2.6340111-7.958852-4.422366-12.060097c-1.7883549-4.101246-7.6109057-12.181917-7.6109057-12.181917" fill="#8bd9c1"/><path d="m92.4760279 200-13.4760279 22.624642 7.9427316 1.375358s14.0083454-9.132378 14.6387204-11.387966c.630376-2.255587 2.073235-8.389684 1.078643-8.939828-3.2311297-1.6235-6.6507482-2.856558-10.1840671-3.672206" fill="#76d2b6"/><path d="m55.4219991 166.714304c3.1880367-8.179955 8.5014312-5.889005 11.5761154-10.934716 2.5929365-4.216472 1.3035528-13.197557-1.3318909-17.709182-1.2893837-2.192565-14.5941234-20.070406-14.5941234-20.070406-7.0845259 3.176409-14.3674186 10.625509-15.302576 24.806909-.5809311 8.826481-1.4169052 14.92631-1.6577791 28.461185-.2550429 12.101274-9.1673765 16.388021-12.7521467 24.019835-4.0098416 8.545382 1.6011029 23.345199 7.084526 23.345199 22.670483 0 53.5873541 6.366872 53.5873541 6.366872s11.9303417-8.868646 13.3472469-10.766058c2.6212746-3.654276 2.6212746-12.438592 2.6212746-12.438592s-24.0873882-8.151845-39.4608095-11.454748c-5.6676207-1.208722-6.5886091-14.715487-3.1171914-23.626298" fill="#8bd9c1"/><path d="m35.6276795 203.213038c-2.5502185-9.150174-.9979116-15.981373 1.3859883-23.008149 2.3838998-7.026775 10.2978929-42.970896 14.2202398-37.327124 15.2458712 21.974389 26.2367583 4.67986-3.1739132-26.877765-1.2335296.963912-8.2327704 5.490105-10.769129 19.250291-.9701918 5.294529-1.2196697 17.462165-4.019366 33.527357-2.134422 12.167637-6.5002851 17.015134-10.062275 24.600699-5.6686921 12.083818.1385989 27.352736 10.9631674 27.059371 16.0582509-.248539 32.1065955.943589 47.9551947 3.562282l7.8724135-6.160652c-2.9660149-.670547-14.9686735-3.11525-18.2118861-3.11525-8.6901466 0-32.3351067 2.06752-36.1327146-11.49709" fill="#76d2b6"/><path d="m67.2177462 141.10628c-6.5724894-7.336957-15.3690749-20.604737-21.3855403-16.247113-7.5134531 5.401782-3.6497988 9.745483 8.7110434 21.370453 12.3608423 11.62497 24.907026 24.266254 30.3674672 18.19621 5.4604413-6.070044-11.0491958-15.982593-17.6216852-23.31955" fill="#8bd9c1"/><path d="m76.5360675 155.166562s-6.0937976 5.7147.6107678 9.085263c4.0393966 2.011242 10.743962 2.038983 19.0448524 1.31771 7.6762413-.651919 19.4335233-2.41349 19.4335233-2.41349l.374789-4.299895s-13.214796-1.622864-21.9737619-2.579938c-8.7589664-.957073-11.7850436-1.595122-17.5040517-1.10965" fill="#f8b999"/><path d="m94.1672227 155.629875c-8.94483-1.262594-11.646766-2.411697-17.3777143-.936306-2.403301.624204-5.0056919 6.454835.3697386 9.930516 3.8822553 2.496815 10.4095637 2.624493 18.9277723 2.170527l15.9129807-.822814v-8.228142s-8.831064-.851187-17.7616737-2.099595" fill="#8bd9c1"/><path d="m92 186h6v132h-6z" fill="#1e2020"/><path d="m322 192h6v125h-6z" fill="#1e2020"/><path d="m73 178v12h46v-10.206116z" fill="#402a1b"/><path d="m156.660151 146-3.040675 1.7695c-.343968.865089-.976869 3.250637-1.238284 3.932222-.137587.393222-.784247 2.097185 0 2.097185l21.229691.196611c.38915.031856.772263-.107358 1.04029-.378018s.391613-.64312.335581-1.011367l-.632901-4.836633z" fill="#cfd6e0"/><path d="m153 141.271318 21.826316-.271318.173684 7-21.913158-.067829z" fill="#adb4bb"/><path d="m202.917803 144-84.650475-.348951c-.65537.043997-1.298519-.193794-1.769534-.654248-.471016-.460454-.725651-1.100318-.700595-1.760495l-.790996-58.7494372c-.04825-.6603445.186676-1.3099039.645478-1.7847185.458801-.4748146 1.097641-.7295165 1.755265-.6998146l87.120603.3210352c.656516-.048531 1.30231.1877645 1.774372.6492416.472061.4614772.725287 1.1040423.695757 1.7655012l-1.179556 58.2609053c-.457945 1.968085-1.387713 2.959107-2.900319 2.987023" fill="#adb4bb"/><path d="m206.909331 83.2616219-1.261318 52.7383781-90.969046-1.756073-.672702-51.7409285c-.048728-.6646274.188525-1.3183998.651873-1.7962941.463349-.4778943 1.108519-.7342481 1.77266-.7043536l87.983927.3231174c1.485552.4776518 2.971104 1.4048583 2.494606 2.9221052" fill="#adb4bb"/><path d="m204.929605 81.3255499-87.512224-.3231985c-.660475-.029902-1.302085.2265162-1.762875.7045303-.460791.4780142-.696735 1.1319507-.648276 1.7967449l.682927 51.7398604 90.452992 1.756513.766551-53.2434355c.473868-1.4754713-1.003485-2.4450667-1.979095-2.4310146" fill="#425b6b"/><path d="m119 85 1.098956 45.15822 83.041604 1.84178.85944-46.6399529z" fill="#fff"/><path d="m205.921993 136.739668.07046 5.798894c.054118.656871-.184739 1.30452-.654918 1.775774-.470178.471254-1.125605.719934-1.797101.681852l-85.961586-.345172c-.66197.039774-1.310058-.197621-1.783034-.653127-.472976-.455505-.72638-1.086304-.69717-1.735465l-.098644-7.262424z" fill="#cfd6e0"/><path d="m148.137435 117.785217 2.447553-.000055-.000207 9.330485-2.447553.000054z" fill="#7fc6b1" transform="matrix(.99991433 -.0130896 .0130896 .99991433 -1.590031 1.965567)"/><path d="m153.023185 107.900815 2.447553-.000054-.000425 19.16532-2.447553.000054z" fill="#3a8835" transform="matrix(.99991433 -.0130896 .0130896 .99991433 -1.524596 2.029093)"/><path d="m158.468182 121.58646 2.447553-.000054-.00012 5.407758-2.447553.000055z" fill="#009fe3" transform="matrix(.99991433 -.0130896 .0130896 .99991433 -1.613229 2.100951)"/><path d="m163.371936 116.114458 2.461539-.000054-.00025 11.291848-2.461539.000054z" fill="#f9af00" transform="matrix(.99991433 -.0130896 .0130896 .99991433 -1.579692 2.165013)"/><path d="m170.861702 113.486726.138298 14.483775-1.861702.029499-.138298-15z" fill="#ed6b08"/><path d="m173.728268 123.837986 2.447553-.000055-.000077 3.446396-2.447553.000054z" fill="#f9af00" transform="matrix(.99991433 -.0130896 .0130896 .99991433 -1.628556 2.300808)"/><path d="m181.832461 109 .167539 18-1.832461-.470309-.167539-17.501187z" fill="#009fe3"/><path d="m184.003281 120.76118 2.461539-.000054-.000152 6.878781-2.461539.000054z" fill="#3a8835" transform="matrix(.99991433 -.0130896 .0130896 .99991433 -1.609865 2.435278)"/><path d="m190.893048 115.456599.106952 11.514864-1.882353.028537-.117647-12z" fill="#7fc6b1"/><path d="m196.902174 119 .097826 8-1.923913-.417722-.076087-7.544303z" fill="#ed6b08"/><path d="m135.859155 92.0015115c-2.91871-.0472702-5.740254 1.0158165-7.859155 2.9611315l8 8.037357z" fill="#f9af00"/><path d="m144 95.248139c-2.132565-2.0333497-4.998149-3.1968264-8-3.248139l.141844 11z" fill="#7fc6b1"/><path d="m136 103.646971 3.024673 10.353029c4.692916-1.39605 7.9221-5.645082 7.970423-10.487659.094438-2.897282-1.179359-5.6733456-3.447038-7.512341z" fill="#ed6b08"/><path d="m127.244941 96c-2.120789 2.1799176-3.287248 5.10809-3.243768 8.142857.210289 5.138036 3.758022 9.540122 8.749996 10.857143l2.248831-10.979286z" fill="#009fe3"/><path d="m134 113.988631h2.266839c.937316.059902 1.874618-.117545 2.733161-.517432l-2.875648-10.471199z" fill="#3a8835"/><path d="m255.789519 195.09385c-1.387649-.494753-2.824789-.831887-4.285238-1.00526-2.406969-.29733-4.452196.453075-6.260901-.750405-1.391311-1.161005-1.766965-1.71319-3.269581-1.41586-1.015657.368124-1.558269.80704-2.045228.750406-.486959-.056635-1.015657.368123-.960005-.127428-.417393-.538026-1.391311-1.146846-1.280006-1.642396 0 0-.8487-1.090212-.306088-1.529128-.179856-.490321-.283137-1.006282-.306089-1.529128-.500307-.165572-.88474-.576868-1.022216-1.093646-.137475-.516778-.009431-1.069259.340474-1.469059 1.196527-1.854776 3.714801-2.534389 4.800023-3.412221 1.558269-.80704 2.573926-1.175163 3.478279-.566344 1.391311.665454 5.45394 3.638758 6.413944 3.752027.904353.60882 13.913113 2.166265 13.913113 2.166265l-1.516529 8.778327z" fill="#f7ae83"/><path d="m257 182.197368-3.908425-1.197368s-6.715507 7.618421-7.091575 11.684211l9.80464 1.315789z" fill="#f3f3f3"/><path d="m279.542721 168.822655s-3.977288-16.90264 2.543778-18.542981c4.553503-1.126843 11.889703 1.240953 15.3751 5.491575 3.485398 4.250622 6.296202 7.417193 5.354583 13.008615-.94162 5.591422-4.862692 10.883304-5.256205 15.219508-.393512 4.336205-1.827022 5.933754-3.696207 7.502776-1.405403 1.611813-4.708098 6.618418-6.507013 7.331609-15.58591 1.026996-34.825867-3.023932-34.34803-3.423319.477837-.399388.955673-10.640819 1.700537-14.064138-.267027-.698928 10.652948.385123 12.423755.713191 1.672429.584817 1.756753 1.811507 3.105939 1.069788 1.231166-.296617 2.526108-.139915 3.654046.442178.815133.513498 3.991342-.313804 4.8908-.6704.899457-.356595-.252973-2.852766-.252973-2.852766s-.772971-5.705533.196757-6.96075c.969727-1.255217.815133-4.279149.815133-4.279149" fill="#206c00"/><path d="m242 190.578876-12.100038 7.421124-23.899962-31.726742 9.903751-.273258z" fill="#f3f3f3"/><path d="m263.703367 250.413034-9.239053 64.916161c0 1.386801 0 3.383795 1.514139 4.340688 1.01473 1.378777 2.704746 2.105841 4.416239 1.899917l80.712029-.679532c2.056167.01942 3.943933-1.121425 4.864873-2.940019.979384-1.642925.979384-3.682391 0-5.325316l-37.222587-61.629443zm76.926681 72.904136-80.712029.679532c-2.319858.070699-4.524696-.999013-5.888319-2.85681-1.458284-1.762116-2.176054-4.011272-2.004833-6.282209l9.701707-66.857683 47.457047.582456 37.713281 62.586336c1.470797 2.374304 1.470797 5.364046 0 7.73835-.842204 2.725833-3.444474 4.540826-6.322933 4.410028" fill="#cfd6e0"/><path d="m280.087957 127.665173 3.912043 2.886246v.976026l-8.074679 21.472555s-2.464169-2.886246-4.413229-3.360315c-1.949061-.47407-5.318151 2.955962-7.740555 2.495835-1.618617-.105924-3.081549-1.002758-3.912042-2.398233-.501187-1.394322-4.385386-1.394322-2.46417-3.388202 0 0-1.392186.501956-1.461795-.962082-.05037-.887314-.634664-1.654685-1.475717-1.938107 0 0-4.357542 1.017855-3.898121-1.394322.373313-1.811763.837969-3.603436 1.392186-5.368139-.438991-.385089-.931369-.704452-1.461795-.948139-.97453-.488012-4.900495-5.312366-4.454995-9.760252.445499-4.447887 17.402325-9.383786 24.210114-8.951546 6.320525.920252 9.745302 10.610789 9.745302 10.610789" fill="#f7ae83"/><path d="m261.65606 274s4.99766 11.946857 9.433786 14.393459c2.331346 1.142777 4.358505 2.840756 5.910154 4.950435l-19.021993 8.656106c-.081888-4.122887-.949655-8.190201-2.554984-11.975473-2.49883-5.465508-8.423023-10.902401-8.423023-10.902401z" fill="#e8eae9"/><path d="m259.947168 307.605201c-3.063686 1.862415-6.318474 3.381059-9.706762 4.529054-3.882705 1.019037-8.268206 2.533439-8.240406 5.491477.028066 2.958038 4.916363 4.415827 9.776728 4.373367 4.860364-.04246 13.142537-1.599322 15.544786-4.585667 1.902847-2.193863 4.012492-4.194246 6.29892-5.972689l1.955319 1.953154s9.706763-5.024418 10.656489-7.996609c1.396656-2.972191.460897-2.958038.460897-2.958038l-2.458116-3.43925z" fill="#cac9c9"/><path d="m258.80586 297.952169c2.263062-1.978895 5.178592-3.039712 8.177885-2.975528 5.31355 0 10.10128-3.976641 10.10128-3.976641 3.18864 1.557823 5.917022 3.925557 7.914975 6.868743-3.610778 1.334462-7.045026 3.108927-10.225816 5.283649-3.832951 3.420467-5.756345 4.894327-9.118826 5.895439-3.846789 1.487764-20.257908 2.113459-22.637936 6.952169 0 0-.498145-1.932703 3.832951-3.907119 4.317259-2.461068 9.132664-3.962736 10.087442-6.395996.943834-2.502109 1.57142-5.113356 1.868045-7.772525" fill="#4b3f51"/><path d="m243.330372 228s-19.628687 2.626344-23.529079 5.648051-4.350979 8.895679-3.337159 12.34099c.99974 2.951107 35.96246 47.570706 38.919435 49.010959 2.309573-2.583938 4.913563-4.887151 7.758542-6.862381 2.252526-1.369141 3.967559-3.472802 4.857889-5.958694 0 0-17.516562-22.182718-21.501439-27.576607-3.984877-5.393888-5.449284-5.859852-5.449284-5.859852l19.572364-10.519494z" fill="#364b5e"/><path d="m257.957725 248.458399-8.797472 61.686028c-.199925 1.3971.164432 2.816545 1.01185 3.941915 1.023847 1.118425 2.428302 1.809285 3.934971 1.935636l75.509287-.635793c1.799828-.004879 3.466948-.952676 4.398736-2.500785.97873-1.674635.97873-3.750796 0-5.425431l-34.866656-58.365777zm71.67269 68.905808-75.523341.635793c-2.045556-.075436-3.983448-.940772-5.410585-2.416013-1.450453-1.592836-2.019217-3.805953-1.517775-5.905808l8.783418-63.678179 44.633817.607535 35.302313 59.34066c1.468984 2.246864 1.468984 5.156589 0 7.403453-1.279355 2.348303-3.678379 3.861739-6.338115 3.99843" fill="#adb4bb"/><path d="m203 293.324068s.996906 2.938849 6.894098 3.880968c5.391718.928058 12.285816 4.794964 12.285816 4.794964s17.466921-34.81622 18.885055-40.215827c1.028741-4.377309 1.811581-8.808944 2.344836-13.274036 10.715019-1.26808 21.513319-1.686539 32.294145-1.251471 16.175155.843688 39.11804-8.675932 41.519039-14.061478 2.401-5.385546 3.777011-17.197188 3.777011-17.197188l-50.912423 4.344997c-1.408574 2.209914-3.732771 3.670469-6.33246 3.979398-4.900286.534336-24.501428 1.195226-28.882199 3.191956-4.394812 1.504578-8.803665 2.038914-10.699191 10.391432s-10.516659 30.513407-17.719658 47.809025" fill="#425b6b"/><path d="m284.589934 131c-5.650561 5.97833-9.345334 13.544319-10.589934 21.685585l7.882838 6.314415 9.117162-21.179307z" fill="#206c00"/><path d="m320.957748 205.107351-5.633578 27.892649s-45.25172-2.506418-48.209348-7.869312c-2.957629-5.362893.746449-28.340723 2.168927-33.717619 1.408395-4.900817 6.253273-17.152859 9.084146-30.371062s12.084026-24.042007 12.084026-24.042007l2.943544.462077s8.450368 4.326721 11.365745 6.259043 9.858762 10.179697 11.42208 14.002334c.521106 4.396733 4.81671 47.355893 4.81671 47.355893" fill="#39870c"/><path d="m287.567095 134s-3.402568 1.994672-6.245041 12.305159c-3.332556 10.324533-5.670945 22.601598-7.099184 27.012351-1.428238 4.410754-5.22287 18.68249-5.22287 18.68249s6.693116-17.221603 8.597433-24.090579c1.400233-6.883022 4.690782-23.079196 15.402567-30.032453z" fill="#e1f2fd"/><path d="m250.014075 249.434201c3.928227-3.418314 7.515266-7.204892 10.711293-11.307138 4.363339-5.884184 17.481506-23.06153 29.71293-28.03723s45.561702-12.089833 45.561702-12.089833-5.221931 21.496142-6.136825 30.287477c-.914893 8.791335-6.671686 23.956038-24.33617 25.563357-17.664485 1.118135-55.527005-4.416633-55.527005-4.416633" fill="#9e918f"/><path d="m284 129.47548c-1.38987 1.478785-7.255123 2.497195-8.728386.571983-1.473262-2.427441-6.32391-3.850423-8.25583-1.883359-1.918021 2.455342-.43086 5.845389-.43086 5.845389l-2.418374.990507c-.326452-.894759-.827295-1.715237-1.473263-2.41349-.986808-1.395081-4.378091-1.911261-4.405889-3.864374-.257115-2.772819-2.210541-5.090068-4.892343-5.803536-2.918728-.460377-6.782568 1.520638-6.782568 1.520638s-3.391283-.948655-2.446172-3.878325c.945112-2.92967 7.574794-14.118218 16.289281-17.173445 8.700589-2.008917 18.457478 4.185242 20.931448 9.570254 1.973616 5.329209 2.557361 16.517758 2.557361 16.517758" fill="#4b1e2e"/><path d="m268 151c1.498185-.53202 2.59186-1.566502 3.640589-1.064039.524365 0 1.063711.502463 1.573094.502463.888544-4.763466 1.024993-9.633822.40451-14.438424 0 6.17734-5.618193 15-5.618193 15" fill="#e6a37b"/><path d="m250.791133 199c-1.441212-.298897-2.910715-.446088-4.383646-.43908-2.429154 0-4.383646.98793-6.338138 0-1.396066-.946767-1.954493-1.372126-3.406401-.933045-.977246.493965-1.396066.974209-1.940531.974209-.544466 0-.977246.493965-.977246 0-.488623-.480244-1.47983-.946767-1.47983-1.372126 0 0-.977246-.946766-.502584-1.440731-.234196-.429742-.399036-.892638-.488623-1.372126-.518772-.099935-.952132-.448615-1.15426-.928714-.202127-.480099-.146151-1.02779.149093-1.458784.963285-1.920976 3.39244-2.895185 4.355725-3.869394 1.396066-.960487 2.429155-1.454452 3.406401-.974209 1.396065.466523 5.863476 2.744251 6.840722 2.744251.977246.466523 14.128185.356753 14.128185.356753l-.41882 8.630668z" fill="#f7ae83"/><path d="m257.649511 189h-5.363855s-2.074844 8.318452-.952891 13.511905l9.667235 1.488095z" fill="#f3f3f3"/><path d="m282.667505 171.947322s-2.555601-14.333392.796007-21.287216c3.351608-6.953823 13.587977-7.095738 18.014892-2.625423 4.426916 4.470315 7.918174 14.787519 7.485258 21.287215-.432916 6.499697-4.287265 12.900053-4.18951 17.852878.097756 4.952826-1.396503 6.939632-3.337643 8.940631-1.396503 2.000998-4.32916 5.988803-6.2703 6.996398-1.941139.510893-38.473666 3.292422-37.98489 2.838295s-1.564084-12.857478-1.117203-16.831091c0 0 12.177509-.596043 14.132614-.610234 1.535368.442131 3.186576.050781 4.371055-1.035978 1.466329-.496701 1.396504-.993403 2.429916-.510893 1.25407.48958 2.642174.48958 3.896244 0 .76013-.553653 1.401549-1.258584 1.88528-2.071956 0 0-1.522189-6.428739-.558601-7.918844.963587-1.490105.446881-4.952825.446881-4.952825" fill="#39870c"/><path d="m181.413567 316.301717h-3.376306s-1.383732 1.760015-.954775 2.200019c5.626544 2.191151 11.462739 3.908094 17.435024 5.129186 6.282143 1.257154 14.958143-.993151 16.397225-2.325734v2.200019l9.686124-.075429c.651838.030121 1.2867-.194648 1.744231-.617534.457531-.422885.69398-1.003452.649626-1.595056v-3.067455l-3.403981-2.149733z" fill="#cac9c9"/><path d="m204.740451 302c1.629174.10096 3.100249 1.025082 3.918014 2.461278 1.345888 2.17937 3.457135 3.756236 5.905008 4.410383 1.959008.483719 6.324795-1.53652 6.814547-3.03036 0 0 2.014979 8.408182 1.553213 11.893807 0 0-7.808043 0-13.153335 2.589321-5.849036 2.048694-7.794051 3.542534-14.146832 2.105602-6.352781-1.436931-16.651562-5.306686-17.631066-6.786298l8.773554-1.067028c4.393774-.540628 8.745569-5.548547 11.656094-8.052506 1.834524-1.862853 3.968895-3.392978 6.310803-4.524199" fill="#4b3f51"/><path d="m238.905 163-.08 2c-.24 0-.49 0-.73 0l.08-2z" fill="#443845"/><g fill="#443845" transform="translate(231 163)"><path d="m7.21333333.0625-.10666666 2.140625c-.32 0-.65333334 0-.97333334 0l.10666667-2.140625z"/><path d="m6.24.109375-.10666667 2.140625c-.64029102.04260881-1.27733842.13657887-1.90666666.28125l-.6.15625.09333333-2.140625.61333333-.15625c.62932825-.14467113 1.26637565-.23864119 1.90666667-.28125"/><path d="m3.72.546875-.09333333 2.140625c-.29333334.09375-.56.1875-.81333334.296875l.09333334-2.140625c.25333333-.109375.53333333-.203125.81333333-.296875"/><path d="m2.90666667.84375-.09333334 2.140625-.32.140625-.2.09375.10666667-2.140625.18666667-.09375z"/><path d="m2.4 1.078125-.10666667 2.140625-.36.203125.09333334-2.140625z"/><path d="m2.02666667 1.28125-.09333334 2.140625-.29333333.21875.09333333-2.140625z"/><path d="m1.73333333 1.5-.09333333 2.140625-.24.203125.09333333-2.140625z"/><path d="m1.49333333 1.703125-.09333333 2.140625-.2.203125.10666667-2.140625z"/></g><g transform="translate(235 163)"><path d="m2.88.15-.10666667 1.37h-.4l.10666667-1.37z" fill="#b7c9d4"/><path d="m2.48.16-.10666667 1.37c-.53645516.02904679-1.07051784.07911516-1.6.15l-.54666666.09.10666666-1.37.54666667-.09c.52820772-.07702825 1.06276376-.12714288 1.6-.15" fill="#bbccd8"/></g><g fill="#443845" transform="translate(236 163)"><path d="m10.8641975 3.5376-.1086419 1.9728c0-.7776-.6790124-1.5984-2.10493832-2.2752l.10864198-1.9728c1.35802474.6768 2.13209874 1.44 2.10493824 2.2752"/><path d="m8.69135802 1.2624-.10864197 1.9728c-.20732741-.10484152-.4204784-.19621032-.63827161-.2736l.09506173-1.9728z"/><path d="m8.03950617.9888-.09506173 1.9728-.52962963-.1872.09506173-1.9728.54320988.1872"/><path d="m7.4691358.7872-.09506173 1.9728-.52962963-.1584.10864198-1.9728z"/><path d="m6.95308642.6288-.10864198 1.9728-.50246913-.1296.09506173-1.9728z"/><path d="m6.43703704.4992-.09506173 1.9728-.50246914-.1152.09506173-1.9728z"/><path d="m5.9345679.384-.09506173 1.9728-.50246913-.1008.09506173-2.016.50246913.0864"/><path d="m5.43209877.24-.09506173 1.9584-.51604939-.072.10864198-1.9728c.16296296 0 .33950617 0 .50246914.0864"/><path d="m4.92962963.24-.10864198 1.9728h-.51604938l.09506173-1.9728z"/><path d="m4.4.1392-.09506173 1.9728h-.55679012l.10864197-1.9728z"/><path d="m3.85679012.0816-.10864197 1.9728h-.58395062l.10864198-1.9728z"/><path d="m3.27283951.0384-.10864198 1.9728h-.62469136l.09506173-1.9728z"/><path d="m2.6345679.0096-.09506173 1.9728h-.73333333l.10864197-1.9728z"/><path d="m1.91481481.0096-.10864197 1.9728c-.32592593 0-.6654321 0-.99135802 0l.10864197-1.9728z"/></g><path d="m238.625 163.502732-.07 1.497268-.18-.502732.08-1.497268z" fill="#87949b"/><path d="m246.999375 166.142373-.098129 1.857627c0-.732203-.613305-1.505085-1.901246-2.142373l.098129-1.857627c1.22661.637288 1.925779 1.355932 1.901246 2.142373" fill="#443845"/><g transform="translate(244 165)"><path d="m1.82666667.22666667-.09333334 1.82666666h-.52l.09333334-1.82666666z" fill="#b4c5d0"/><path d="m1.30666667.22666667-.09333334 1.82666666h-1.09333333l.10666667-1.84h1.08" fill="#b7c9d4"/></g><path d="m244.56 165.298137-.08 1.701863-.04-.285714.08-1.714286z" fill="#7b8f9d"/><path d="m246.563692 165.378698-.07 1.621302c.003673-.129909-.01681-.259188-.06-.378698l.07-1.621302c.049618.117075.070409.248304.06.378698" fill="#8a98a0"/><g transform="translate(232 163)"><path d="m5.7984.25-.1152 2.140625c-.57937158.04538561-1.15615927.12361744-1.728.234375l-.5904.140625.1152-2.140625.5904-.140625c.57046433-.12035665 1.14778486-.19866076 1.728-.234375" fill="#bbccd8"/><path d="m3.48.625-.1152 2.140625-.7344.234375.1152-2.125c.23992789-.0993327.48517621-.18281865.7344-.25" fill="#b7c9d4"/><path d="m2.7456.859375-.1152 2.140625-.4608.203125.1152-2.140625z" fill="#b4c5d0"/><path d="m2.2848 1.0625-.1152 2.140625-.3312.1875.1008-2.140625z" fill="#b1c1cc"/><path d="m1.9392 1.25-.1008 2.140625-.2736.171875.1008-2.140625z" fill="#adbec8"/><path d="m1.6656 1.421875-.1008 2.140625-.2304.1875.1008-2.15625z" fill="#aabac4"/><path d="m1.4352 1.59375-.1008 2.15625-.1872.171875.1152-2.140625z" fill="#a7b6c0"/><path d="m1.2624 1.78125-.1152 2.140625-.144.1875.1008-2.140625z" fill="#a3b3bc"/><path d="m1.104 1.96875-.1008 2.140625-.1152.1875.1008-2.140625z" fill="#a0afb8"/><path d="m.9888 2.15625-.1008 2.140625-.0864.203125.1008-2.140625z" fill="#9cabb4"/><path d="m.9024 2.359375-.1008 2.140625-.0576.203125.1152-2.140625z" fill="#99a7b0"/><path d="m.8592 2.5625-.1152 2.140625v.125l.1008-2.15625z" fill="#95a4ac"/></g><g fill="#443845" transform="translate(232 164)"><path d="m1.12.15-.07 2.28333333-.15.21666667.08-2.28333333z"/><path d="m.98.36666667-.08 2.28333333-.12.21666667.08-2.28333334z"/><path d="m.86.58333333-.08 2.28333334-.09.23333333.07-2.28333333z"/><path d="m.76.81666667-.07 2.28333333-.07.25.08-2.28333333z"/><path d="m.7 1.06666667-.08 2.28333333-.04.26666667.07-2.3z"/><path d="m.65 1.31666667-.07 2.3-.01.13333333.08-2.28333333z"/></g><g transform="translate(234 163)"><path d="m4.995.953125-.105 2.140625-.09.015625.105-2.140625z" fill="#a3bed0"/><path d="m4.905.96875-.105 2.15625c-.47818343.02367506-.95427543.08109844-1.425.171875l-.465.109375.105-2.140625.465-.109375c.49544017-.09437469.9967125-.15181215 1.5-.171875" fill="#a6c1d3"/><path d="m3 1.25-.105 2.140625-.585.171875.12-2.125c.18312611-.08324855.37418784-.1460978.57-.1875" fill="#a3bed0"/><path d="m2.445 1.421875-.12 2.140625-.36.15625.12-2.140625z" fill="#a0bacc"/><path d="m2.085 1.578125-.12 2.140625-.255.140625.105-2.15625z" fill="#9db7c8"/><path d="m1.815 1.703125-.105 2.15625-.225.125.12-2.140625z" fill="#9ab3c4"/><path d="m1.605 1.84375-.12 2.140625-.165.140625.105-2.15625z" fill="#97b0c0"/><path d="m1.425 1.96875-.105 2.15625-.15.125.12-2.140625z" fill="#94acbd"/><path d="m1.29 2.109375-.12 2.140625-.12.140625.12-2.140625z" fill="#91a9b9"/><path d="m1.17 2.25-.12 2.140625-.09.140625.12-2.140625z" fill="#8ea5b5"/><path d="m1.08 2.390625-.12 2.140625-.06.15625.105-2.140625z" fill="#8ba2b1"/><path d="m1.005 2.546875-.105 2.140625-.045.15625.12-2.140625z" fill="#889ead"/><path d="m.96 2.703125-.105 2.140625v.09375l.105-2.140625z" fill="#859ba9"/></g><path d="m246.999375 166.142373-.098129 1.857627c0-.732203-.613305-1.505085-1.901246-2.142373l.098129-1.857627c1.22661.637288 1.925779 1.355932 1.901246 2.142373" fill="#443845"/><path d="m234.61 165.458101-.07 1.541899c-.095794-.133136-.148637-.298456-.15-.469274l.08-1.530726c-.002417.166242.047088.328229.14.458101" fill="#8a98a0"/><path d="m234 167.142373-.086355 1.857627c-1.295332-.637288-1.949167-1.355932-1.912157-2.142373l.098692-1.857627c0 .732203.604488 1.505085 1.89982 2.142373" fill="#8a98a0"/><path d="m236.431851 163.149533c.761615-.085069 1.532715-.135056 2.306721-.149533l.261428.429907c-.515972.017716-1.029594.055173-1.537814.112149-2.168318.252337-3.075628.82243-2.368234 1.373832l-1.783864.084112c-.922688-.747664.24605-1.504673 3.075628-1.869159" fill="#a3bdcf"/><path d="m234 165-.056911 1.890411-.943089.109589.056911-1.876712z" fill="#a9c4d7"/><path d="m233.635142 165.594872-.07 1.405128c-.134209-.163183-.205373-.371201-.2-.584615l.07-1.415385c-.007864.216913.063453.429033.2.594872" fill="#7b8f9d"/><g transform="translate(246 166)"><path d="m.95.38666667-.08 1.82666666-.01.12.08-1.84z" fill="#95a4ac"/><path d="m.94.49333333-.08 1.84-.04.2.07-1.82666666z" fill="#99a7b0"/><path d="m.89.70666667-.07 1.82666666-.07.2.08-1.82666666z" fill="#9cabb4"/><path d="m.83.90666667-.08 1.82666666-.09.18666667.07-1.82666667z" fill="#a0afb8"/><path d="m.73 1.09333333-.07 1.82666667-.12.17333333.08-1.82666666z" fill="#a3b3bc"/><path d="m.62 1.26666667-.08 1.82666666-.14.18666667.07-1.84z" fill="#a7b6c0"/></g><g transform="translate(242 166)"><path d="m2.61333333.22666667-.10666666 1.82666666v.08l.09333333-1.82666666z" fill="#95a4ac"/><path d="m2.6.30666667-.09333333 1.82666666-.04.13333334.10666666-1.82666667z" fill="#99a7b0"/><path d="m2.57333333.44-.10666666 1.82666667-.05333334.13333333.09333334-1.84z" fill="#9cabb4"/><path d="m2.50666667.56-.09333334 1.84-.08.12.09333334-1.82666667z" fill="#a0afb8"/><path d="m2.42666667.69333333-.09333334 1.82666667-.10666666.10666667.09333333-1.82666667z" fill="#a3b3bc"/><path d="m2.32.8-.09333333 1.84-.13333334.10666667.10666667-1.82666667z" fill="#a7b6c0"/><path d="m2.2.92-.10666667 1.82666667-.16.12.10666667-1.82666667z" fill="#aabac4"/><path d="m2.04 1.04-.10666667 1.82666667-.18666666.10666666.09333333-1.82666666z" fill="#adbec8"/><path d="m1.84 1.14666667-.09333333 1.82666666-.24.13333334.09333333-1.84z" fill="#b1c1cc"/><path d="m1.6 1.26666667-.09333333 1.84-.10666667.04.10666667-1.84z" fill="#b4c5d0"/></g><g transform="translate(245 167)"><path d="m1.62.26666667-.08 1.82666666-.14.18666667.07-1.84z" fill="#a7b6c0"/><path d="m1.47.44-.07 1.84-.18.17333333.07-1.84z" fill="#aabac4"/></g><g transform="translate(243 166)"><path d="m2.90666667.32-.09333334 1.82666667-.01333333.09333333.10666667-1.82666667z" fill="#859ba9"/><path d="m2.90666667.41333333-.10666667 1.82666667-.04.18666667.09333333-1.84z" fill="#889ead"/><path d="m2.85333333.58666667-.09333333 1.84-.08.16.09333333-1.82666667z" fill="#8ba2b1"/><path d="m2.77333333.76-.09333333 1.82666667-.10666667.16.09333334-1.82666667z" fill="#8ea5b5"/><path d="m2.66666667.92-.09333334 1.82666667-.13333333.16.09333333-1.82666667z" fill="#91a9b9"/><path d="m2.53333333 1.08-.09333333 1.82666667-.17333333.14666666.09333333-1.82666666z" fill="#94acbd"/><path d="m2.36 1.22666667-.09333333 1.82666666-.21333334.16.09333334-1.82666666z" fill="#97b0c0"/><path d="m2.14666667 1.38666667-.09333334 1.82666666-.26666666.16.10666666-1.82666666z" fill="#9ab3c4"/><path d="m1.89333333 1.53333333-.10666666 1.84-.32.16.09333333-1.82666666z" fill="#9db7c8"/><path d="m1.56 1.70666667-.09333333 1.82666666-.21333334.08.09333334-1.82666666z" fill="#a0bacc"/></g><path d="m244.769692 165h1.169154c.224087.746479-.175373 1.478873-1.071724 2l-.867122-.492958c.643034-.394366.915837-.929577.769692-1.492957" fill="#a3bdcf"/><path d="m244.985 168.416185-.08 1.583815-.89-.404624.08-1.595376z" fill="#869caa"/><g transform="translate(245 167)"><path d="m1.47.10666667-.07 1.84-.18.17333333.07-1.84z" fill="#aabac4"/><path d="m1.29.28-.07 1.84-.23.17333333.08-1.82666666z" fill="#adbec8"/><path d="m1.07.46666667-.08 1.82666666-.28.18666667.08-1.82666667z" fill="#b1c1cc"/><path d="m.79.65333333-.08 1.82666667-.14.08-.23.12.07-1.82666667.24-.12z" fill="#b4c5d0"/></g><g transform="translate(243 167)"><path d="m2.38666667.65333333-.10666667 1.82666667-.18666667.08-.30666666.12.09333333-1.82666667.32-.12z" fill="#b4c5d0"/><path d="m1.88.85333333-.09333333 1.82666667c-.25333334.08-.50666667.16-.78666667.22666667l.09333333-1.82666667c.28-.06666667.54666667-.14666667.78666667-.22666667" fill="#b7c9d4"/></g><g transform="translate(230 165)"><path d="m4.635 2.885-.135 2.115-.6-.195.12-2.055.6.195" fill="#92a0a8"/><path d="m4.02 2.675-.12 2.055-.735-.285.12-2.055z" fill="#8e9ca4"/><path d="m3.285 2.39-.105 2.055c-1.575-.705-2.37-1.5-2.325-2.37l.12-2.055c0 .81.735 1.665 2.31 2.37" fill="#8a98a0"/></g><g fill="#443845" transform="translate(229 164)"><path d="m20.202 1.87833333-.112 1.86472223-.014.13611111.112-1.86472223z"/><path d="m20.188 2.01444444-.112 1.86472223-.07.27222222.112-1.86472222z"/><path d="m20.118 2.28666667-.112 1.86472222-.112.245.098-1.86472222z"/><path d="m19.992 2.53166667-.098 1.86472222-.168.23138889.112-1.86472222z"/><path d="m19.838 2.76305556-.112 1.86472222-.21.23138889.112-1.86472223z"/><path d="m19.628 2.99444444-.112 1.86472223-.252.23138889.098-1.86472223z"/><path d="m19.362 3.22583333-.098 1.86472223-.322.21777777.112-1.86472222z"/><path d="m19.054 3.44361111-.112 1.86472222c-.1235326.08801379-.2546918.16543412-.392.23138889l.112-1.86472222z"/><path d="m18.662 3.675-.112 1.86472222c-.1577207.0878922-.3214355.16520196-.49.23138889l.098-1.86472222c.1730845-.06619486.3414552-.14349466.504-.23138889"/><path d="m18.2 3.90638889-.098 1.86472222-.252.10888889-.42.16333333.112-1.87833333.406-.14972222z"/><path d="m17.5 4.165-.112 1.87833333-.7.21777778-.322.08166667.098-1.87833334.322-.08166666z"/><path d="m16.464 4.47805556-.098 1.86472222-.882.19055555c-.462.08166667-.938.14972223-1.4.20416667l-1.106.10888889.112-1.87833333c.364 0 .742 0 1.106-.09527778s.98-.1225 1.4-.21777778z"/><path d="m13.048 4.96805556-.112 1.86472222c-.42 0-.84 0-1.274 0l.098-1.86472222z"/><path d="m11.76 5.0225-.098 1.86472222h-.952l.112-1.87833333h.938"/><path d="m10.822 5.00888889-.112 1.87833333h-.812l.098-1.86472222h.826"/><path d="m9.996 4.98166667-.098 1.86472222h-.756l.098-1.86472222z"/><path d="m9.24 4.94083333-.098 1.86472223h-.742l.098-1.86472223h.714"/><path d="m8.54 4.87277778-.14 1.93277778-.686-.08166667.112-1.86472222.686.08166666"/><path d="m7.854 4.79111111-.098 1.86472222-.672-.09527777.112-1.87833334z"/><path d="m7.196 4.69583333-.098 1.86472223-.658-.1225.112-1.86472223z"/><path d="m6.552 4.57333333-.112 1.86472223-.644-.1225.112-1.87833334z"/><path d="m5.908 4.43722222-.112 1.87833334-.644-.16333334.098-1.86472222z"/><path d="m5.25 4.2875-.098 1.86472222-.686-.17694444.112-1.87833334z"/><path d="m4.578 4.08333333-.112 1.86472223-.714-.23138889.112-1.86472223.728.23138889"/><path d="m3.85 3.86555556-.112 1.86472222c-.308-.10888889-.616-.21777778-.882-.34027778l.098-1.86472222z"/><path d="m2.954 3.52527778-.154 1.91916666c-1.848-.80305555-2.8-1.78305555-2.73-2.72222222l.112-1.87833333c0 .93916667.868 1.91916667 2.716 2.72222222"/></g><path d="m246.284043 167.509377c2.670877-1.060019 2.203473-2.818099-1.001578-3.878118-2.866476-.893054-5.914463-1.097146-8.880664-.594645-.594942.104125-1.176859.268781-1.73607.491228-2.670877 1.047092-2.216828 2.792245.988224 3.878118 2.870955.893631 5.923406 1.097715 8.894019.594645.592976-.106086 1.174255-.266233 1.736069-.478301m.253733-4.421055c1.963095.672208 3.178343 1.564175 3.418722 2.494923s-.520821 1.809788-2.150055 2.443214c-.349054.135696-.705738.252225-1.068351.349031-.372447.108963-.751558.195311-1.135122.258541-.440695.090489-.908098.155124-1.335438.206833-3.309234.367138-6.661333.040891-9.828826-.956603-4.006314-1.396122-4.620616-3.619576-1.268666-4.951063.710122-.264588 1.443013-.467903 2.190119-.607572 3.747509-.63548 7.598734-.373634 11.217681.762696" fill="#443845"/><path d="m244.229982 168.001569c1.3025-.521591 1.882962-1.254639 1.557337-2.001784h-1.698913c.212364.563883-.184049 1.099572-1.118451 1.409707l1.260027.507495m-8.069835-3.679336c.467883-.085941.94074-.142441 1.415761-.169165l-.24068-.648465c-.712574.021838-1.422473.097236-2.123641.225553-2.661629.521592-3.737607 1.663455-2.831521 2.819415l1.642283-.126874c-.608777-.831727.184048-1.691649 2.180271-2.07227m7.899944-.310135c3.397825 1.212348 3.879184 3.12955 1.06182 4.229121-.595606.231263-1.211847.405905-1.840489.521592-3.149285.548602-6.385331.326047-9.428965-.648465-3.397825-1.226446-3.879184-3.12955-1.047663-4.229122.592846-.242581 1.209764-.422139 1.840489-.535689 3.144609-.547981 6.375923-.325417 9.414808.648466" fill="#b7c8d3"/><path d="m251 173.173333-.098196 1.826667-6.901804-4.16.098196-1.84z" fill="#564854"/><g transform="translate(249 172)"><path d="m4.605.77333333-.105 1.82666667v.02666667l.105-1.82666667z" fill="#594a57"/><path d="m4.605.8-.105 1.82666667-.015.04.105-1.82666667z" fill="#5a4b58"/><path d="m4.59.84-.105 1.82666667-.015.04.105-1.82666667z" fill="#5b4c59"/><path d="m4.575.88-.105 1.82666667-.03.04.105-1.82666667z" fill="#5c4d5a"/><path d="m4.545.92-.105 1.82666667-.045.04.12-1.84z" fill="#5d4e5b"/><path d="m4.515.94666667-.105 1.84-.06.02666666.12-1.82666666z" fill="#5e4f5c"/><path d="m4.47.98666667-.105 1.82666666-.06.04.105-1.82666666z" fill="#5f4f5d"/><path d="m4.41 1.02666667-.105 1.82666666-.075.02666667.12-1.82666667z" fill="#60505e"/><path d="m4.35 1.05333333-.12 1.82666667-.075.04.105-1.82666667z" fill="#61515f"/><path d="m4.26 1.09333333-.105 1.82666667-.12.04.12-1.82666667z" fill="#625260"/><path d="m4.155 1.13333333-.12 1.82666667-.165.05333333.105-1.84z" fill="#635361"/><path d="m3.975 1.17333333-.105 1.84h-.15c-.13957208.01376022-.28042792.01376022-.42 0l.12-1.82666666h.42.135" fill="#645462"/><path d="m3.405 1.25333333-.105 1.82666667-.21.01333333.105-1.82666666z" fill="#635361"/><path d="m3.195 1.26666667-.105 1.82666666h-.165l.12-1.82666666z" fill="#625260"/><path d="m3.045 1.26666667-.12 1.82666666h-.135l.12-1.84z" fill="#61515f"/><path d="m2.91 1.25333333-.12 1.84-.12-.01333333.105-1.82666667z" fill="#60505e"/><path d="m2.775 1.25333333-.105 1.82666667-.12-.01333333.105-1.82666667z" fill="#5f4f5d"/><path d="m2.655 1.24-.105 1.82666667-.12-.01333334.12-1.82666666z" fill="#5e4f5c"/><path d="m2.55 1.22666667-.12 1.82666666-.105-.01333333.105-1.82666667z" fill="#5d4e5b"/><path d="m2.43 1.21333333-.105 1.82666667-.105-.01333333.105-1.82666667z" fill="#5c4d5a"/><path d="m2.325 1.2-.105 1.82666667-.12-.02666667.12-1.82666667z" fill="#5b4c59"/><path d="m2.22 1.17333333-.12 1.82666667-.105-.02666667.105-1.82666666z" fill="#5a4b58"/><path d="m2.1 1.14666667-.105 1.84-.12-.04.12-1.82666667z" fill="#594a57"/><path d="m1.995 1.12-.12 1.82666667-.12-.02666667.12-1.82666667z" fill="#584956"/><path d="m1.875 1.08-.12 1.84-.135-.05333333.105-1.82666667z" fill="#574854"/><path d="m1.725 1.04-.105 1.82666667-.195-.09333334.105-1.82666666z" fill="#564853"/></g><path d="m243 169.48196c.504872 0 1.009743-.12049 1.44249-.214204.414311-.065483.823813-.154909 1.226117-.267756l7.082626 4.176989c.476021.281143.245223.629225-.490447.763103-.752237.134728-1.531231.040834-2.221435-.267755z" fill="#635361"/><path d="m94.8261168 97.2354979c-1.2528338-5.7622922-9.6952253-16.0202859-19.8317898-12.5267222-10.1365645 3.4935636-12.7418893 11.9978161-12.9554405 18.2055033-.2800819 4.565207.9585325 9.096442 3.5307134 12.916442.5837067.974301 7.4315824 7.627382 9.3535434 8.156288 1.3240175.361883 7.6451336-6.95929 7.9441053-6.680918.6388167.342276 1.4299205.246999 1.9646712-.236616.7260741-.876871 3.6873177-7.181988 4.2710243-7.627382.5837067-.445395 7.118374-5.567432 5.6946992-12.2065951" fill="#f8b999"/><path d="m48.7810156 109.659657c1.2087378-1.543754 2.3087648-3.166761 3.2924084-4.857699 3.8518748-6.3072987 8.2787607-12.2581128 13.2261555-17.7791779 7.4043862-6.2594921 18.1577029-4.2886543 23.8522976-.3469785 3.5203862 2.302336 6.113707 5.7378498 7.3337337 9.715398.3108712 1.2074852 1.0597881 4.9548534-.1554356 5.9125134-2.6847965 2.109629-10.7674471-2.6509155-13.4381132-3.1366854-6.7826438-1.2491226-13.2826775 6.6481084-15.1761656 12.3940724-1.1023902 3.421019-3.4862767 6.303221-6.6695998 8.06378-4.0695863 2.081871-7.065254 0-11.1489708-.235945-1.4979528-.204242-3.0238428.037491-4.3804575.693957-2.0771847 1.263001-2.4869694 3.983313-2.8261016 6.356646-.2281703 2.991975-.7824305 5.951281-1.6532695 8.827133-1.1932384 2.767868-2.0837467 5.652408-2.6565355 8.605066-.6923949 5.065887.3673932 10.437114-1.6532694 15.128263-1.1871245-.292621-2.4218204-.349246-3.6315406-.16655-1.2152237 0-2.642405-.430253-2.9956677-1.582222-.1339787-.519198-.1339787-1.063023 0-1.582222l3.476105-17.73754c.5990459-3.76126 1.5837697-7.453385 2.9391457-11.020038 1.654796-3.693818 3.828484-7.141619 6.4576421-10.242805 2.0630542-2.484366 4.0130643-4.663391 5.8076388-7.008966z" fill="#ac2000"/><path d="m79 101.225372c-.2720671-1.6235569-1.5294184-2.8954763-3.1343915-3.1707075s-3.2064715.5064341-3.9922997 1.9485765c-.4373382.943266-.6820395 1.966096-.7194564 3.007267-.2368294 1.408069-.1999419 2.849344.1085972 4.24313.364303 1.394947 1.4799783 2.459656 2.8778258 2.746362" fill="#f8b999"/></g></g></svg>