<?xml version="1.0" encoding="UTF-8"?>
<svg width="1200px" height="400px" viewBox="0 0 1200 400" version="1.1" xmlns="http://www.w3.org/2000/svg" xmlns:xlink="http://www.w3.org/1999/xlink">
    <title>toolbox / datagedreven-werken / header-03-randvoorwaarden-scheppen</title>
    <g id="toolbox-/-datagedreven-werken-/-header-03-randvoorwaarden-scheppen" stroke="none" stroke-width="1" fill="none" fill-rule="evenodd">
        <g id="bg-hero-image-datagedreven-werken">
            <polygon id="wit" fill="#FFFFFF" points="0 400 1200 400 1200 0 0 0"></polygon>
            <rect id="Rectangle" fill="#FFFFFF" x="280" y="0" width="640" height="400"></rect>
            <polygon id="wit" fill="#FFFFFF" points="0 400 1200 400 1200 0 0 0"></polygon>
            <polygon id="grijs" fill="#DEDFDE" points="0 400 1200 400 1200 265 0 265"></polygon>
            <polygon id="blauw" fill="#93D5F6" points="0 400 1200 400 1200 265 0 265"></polygon>
        </g>
        <g id="toolbox-/-datagedreven-werken-/-03-randvoorwaarden-scheppen" transform="translate(425.000000, 0.000000)">
            <rect id="Rectangle" fill-opacity="0.01" fill="#D8D8D8" x="0" y="0" width="350" height="400" rx="2"></rect>
            <g id="7176-ICTU-Toolbox_Randvoorwaarden--scheppen" stroke-width="1" transform="translate(49.000000, 0.000000)">
                <path d="M16.0154284,84.6842938 C15.858,85.4055793 16.9403199,85.8041845 17.6684259,85.5764101 C18.396532,85.3486357 19.0459239,84.8171622 19.813387,84.8551246 C20.3139769,84.9071377 20.753838,85.198613 20.9837479,85.6306678 C21.2136578,86.0627227 21.2027566,86.5773639 20.9547425,87 C22.2471235,86.5843185 23.4482092,85.9406946 24.4968801,85.1018802 C24.8010717,85.5473224 25.1961069,85.9283589 25.6579141,86.2217709 C26.1168222,86.5386467 26.7339323,86.5386467 27.1928404,86.2217709 C27.5076971,85.9560341 27.7438396,85.4625229 28.1374104,85.5384477 C28.5309812,85.6143725 28.629374,86.1078837 28.9048736,86.3926017 C29.4012269,86.7059052 30.0569519,86.6426564 30.4791569,86.2407521 C30.8643527,85.8252292 31.332979,85.4894431 31.8566549,85.2537297 C32.3094822,85.1496549 32.7813256,85.1496549 33.2341528,85.2537297 C34.6080628,85.5191833 36.0187279,85.557693 37.4060038,85.3676169 C37.6282164,85.3678992 37.8437105,85.2941433 38.0160386,85.1588238 C38.1777302,84.9930528 38.2750571,84.7784747 38.2915382,84.5514254 C38.5276807,83.4315347 38.7244661,82.2926628 38.8818945,81.1537909 C39.0393685,80.4149227 39.0393685,79.6528776 38.8818945,78.9140095 C38.5987735,78.1650017 38.2007746,77.4611942 37.7011819,76.8260777 C35.4971852,73.7131611 35.2216856,69.7081283 34.001616,66.1206818 C33.9123911,65.757041 33.7138707,65.4268936 33.4309383,65.1716219 C32.9329898,64.9427927 32.3546034,64.9427927 31.8566549,65.1716219 C29.9912367,65.8986179 28.2524341,66.8972472 26.7008768,68.1326888 C25.1789353,68.9497134 24.0540637,70.3145055 23.5719886,71.9289285 C23.4342388,73.1437252 24.0245951,74.4344467 23.5719886,75.5543374 C23.1407516,76.2392422 22.5298455,76.8023106 21.8009198,77.1867204 C20.7895949,77.8519931 19.8353883,78.5946547 18.9475312,79.4075206 C17.9592456,80.2041676 17.2681704,81.2907024 16.979677,82.501456 C16.8419272,83.2227415 16.8419272,84.1907826 16.1138211,84.3995758" id="Path" fill="#380D09" fill-rule="nonzero"></path>
                <g id="man_met_laptop" transform="translate(38.000000, 0.000000)" fill-rule="nonzero">
                    <path d="M147.125,357.761102 C147.468929,352.716024 147.908393,345.843295 148.252321,338.380388 L148.252321,338.380388 C147.908393,345.843295 147.468929,352.716024 147.125,357.742064 L147.125,357.742064" id="Path" fill="#83BDDB"></path>
                    <path d="M144.488214,366.099759 L146.398929,366.099759 C146.398929,366.099759 146.666429,362.90137 147.010357,357.837254 L147.010357,357.837254 C146.666429,362.920408 146.398929,366.118797 146.398929,366.118797 L144.488214,366.118797" id="Path" fill="#020203"></path>
                    <path d="M166.805357,350.107814 C167.034643,346.642893 165.009286,344.396405 166.537857,326.652962 C166.728929,324.482626 150.545179,323.778219 150.545179,323.778219 C151.290357,332.497637 153.583214,337.980589 145.080536,348.527657 C143.169821,350.831259 137.877143,355.07674 136.004643,356.942467 C134.667143,358.256091 133.100357,364.386336 141.087143,364.386336 C151.156607,364.386336 158.837679,361.359289 161.378929,356.61882 C161.608214,356.199983 162.219643,356.371326 162.219643,356.371326 C162.219643,356.371326 166.174821,359.150878 166.805357,350.14589" id="Path" fill="#673327"></path>
                    <path d="M184.899821,336.343319 L200.185536,334.287211 C200.185536,334.287211 200.376607,335.75314 201.599464,340.988598 C203.252523,347.722911 206.783045,353.854227 211.783571,358.674927 C213.599052,360.636943 214.31539,363.370593 213.694286,365.966492 L213.694286,367.165888 C213.694286,367.165888 212.777143,371.715977 209.700893,371.715977 C206.624643,371.715977 193.784643,369.65987 192.236964,367.451459 C191.679131,366.639015 191.38562,365.675263 191.39625,364.690944 L191.224286,364.34826 C191.224286,364.34826 189.886786,359.055688 188.090714,359.493562 C186.218073,357.309917 185.73783,354.262203 186.84875,351.611818 C188.606607,346.738083 184.938036,336.381395 184.938036,336.381395" id="Path" fill="#673327"></path>
                    <path d="M132.9475,168.960964 C132.9475,170.54112 131.973036,174.996019 131.915714,176.576175 C131.438036,192.967919 130.998571,202.163287 130.998571,206.48492 C130.998571,211.206351 135.641607,262.589993 139.195536,274.374533 C142.749464,286.159073 146.551786,330.936518 144.201607,334.458554 C141.851429,337.980589 143.743036,348.508619 143.743036,348.508619 C143.743036,348.508619 169.3275,346.719045 169.938929,351.421438 C169.938929,351.421438 171.505714,349.727053 170.665,339.427479 C169.19375,321.036743 166.385,311.079854 165.0475,275.707195 C164.799107,268.644086 160.90125,230.815521 157.977857,219.545008 C156.640357,214.442816 170.26375,272.013817 174.983214,288.519789 C174.983214,288.519789 183.982679,324.15898 182.014643,339.370365 C180.256786,353.077747 184.785179,355.057702 184.785179,355.057702 C184.785179,355.057702 202.134464,349.346293 210.407857,354.143876 C211.016405,349.570313 210.945585,344.932381 210.197679,340.379381 C208.860179,329.75616 199.612321,296.496723 198.274821,281.570908 C196.727143,263.941693 193.574464,231.02494 192.408929,209.816575 C191.506192,195.286594 187.361149,181.140359 180.275893,168.408861 C177.830179,164.16338 132.9475,169.037116 132.9475,169.037116" id="Path" fill="#CBBBA0"></path>
                    <path d="M190.631964,140.5943 L187.689464,140.5943 L188.243571,124.278708 L190.631964,140.537186 M210.751786,151.731547 L209.930179,147.086268 L209.930179,147.086268 L201.29375,98.6725589 L201.29375,98.6725589 C199.404259,94.1710445 195.420866,90.8777832 190.631964,89.8579512 L161.97125,79.5203012 L161.97125,79.1966547 L161.780179,79.1966547 L161.417143,79.3299209 L161.073214,79.1966547 L160.863036,79.1966547 L160.863036,79.2918449 L160.863036,79.4822252 L132.202321,89.8198752 C127.402811,90.8707428 123.42578,94.2002182 121.559643,98.729673 L121.559643,98.729673 L118.578929,150.779646 L101.898393,141.584277 C101.898393,141.584277 103.197679,148.552196 110.018929,162.126311 C116.840179,175.700426 132.106786,156.852777 132.106786,156.852777 C132.106786,156.852777 133.272321,134.178484 133.234107,130.199536 L133.807321,157.88083 L132.202321,178.917853 L132.202321,178.917853 L131.762857,191.4068 C141.985179,191.292572 152.131071,191.825637 162.334286,192.339664 C171.543929,192.815615 180.753571,193.291565 190.039643,193.291565 L186.543036,173.549129 L186.543036,168.313671 L187.192679,158.128325 L187.192679,156.890853 L202.994286,159.04215 C205.030589,159.291679 207.073574,158.632661 208.576743,157.241385 C210.079913,155.850109 210.889888,153.868537 210.79,151.826737" id="Shape" fill="#326141"></path>
                    <path d="M152.646964,66.5934792 C153.506786,70.8389598 151.233036,75.2367446 149.513393,78.8349322 C147.79375,82.4331197 152.857143,93.6655571 155.188214,93.6655571 C157.519286,93.6655571 173.626607,83.5944395 173.626607,83.5944395 C173.626607,83.5944395 168.754286,82.9471465 168.754286,61.891086 C168.754286,58.5403928 152.646964,66.5173271 152.646964,66.5173271" id="Path" fill="#F7AE83"></path>
                    <path d="M152.704286,80.662583 C156.833835,80.5958666 160.804045,79.0634816 163.901071,76.3409503 C165.525179,75.0844404 166.709821,70.8008837 167.435893,67.2026962 C167.943082,66.9517105 168.412566,66.6313092 168.830714,66.2507947 C168.333929,66.6886694 169.079107,70.6676175 169.155536,71.4101007 C169.261682,75.0701594 170.16806,78.6630651 171.811429,81.938131 C172.209178,82.7328541 172.890668,83.350766 173.722143,83.6705917 C172.441964,84.6986453 170.340179,83.1184888 168.964464,82.6425381 C167.124702,81.9434372 165.194809,81.5075772 163.232321,81.3479521 C161.137952,81.3456247 159.045269,81.4664087 156.965179,81.7096746 C155.336717,81.8238836 153.702212,81.8238836 152.07375,81.7096746 C151.255335,81.7690702 150.432921,81.6787383 149.647143,81.4431422 C149.303214,81.1766098 149.494286,79.9772139 149.379643,79.9391379 C150.414451,80.4399923 151.55413,80.6879875 152.704286,80.662583 Z" id="Path" fill="#E6A37B"></path>
                    <path d="M144.507321,342.359336 L143.055179,342.359336 C143.055179,341.293206 143.055179,340.208039 143.055179,339.141909 C143.429687,337.902241 143.666756,336.625422 143.762143,335.334303 C143.873144,335.037976 144.020769,334.756583 144.201607,334.49663 C144.985,333.33531 145.080536,327.681015 144.736607,320.19907 C144.067857,304.968646 141.564821,282.313391 139.195536,274.412609 C138.438625,271.670421 137.845266,268.886 137.418571,266.073952 C136.367679,258.001827 135.278571,248.406661 134.361429,238.925722 L138.717857,238.925722 C141.526607,252.404647 144.813036,265.236279 146.838393,273.098985 C147.3925,275.288358 147.870179,277.077933 148.214107,278.391557 C150.87,288.995739 147.335179,285.035829 148.653571,291.223189 C149.971964,297.410548 153.162857,329.089829 153.162857,331.203051 C153.162857,333.316272 163.652679,335.581797 163.729107,337.314258 L163.729107,337.314258 C163.702588,337.530879 163.565151,337.718271 163.366071,337.809247 C162.501728,338.257254 161.528731,338.455106 160.557321,338.380388 C158.956568,338.335143 157.360692,338.182493 155.780536,337.923475 C154.516111,337.701381 153.24037,337.548845 151.959107,337.466562 C151.405,337.466562 151.061071,337.561753 151.061071,337.809247 C151.061071,339.141909 158.608393,341.788195 158.608393,341.788195 C158.608393,341.788195 148.901964,342.359336 144.602857,342.359336 M132.374286,214.804539 C131.934821,208.274494 131.629107,202.772504 131.61,199.193354 L131.61,198.203377 C131.596144,197.248543 131.653624,196.294005 131.781964,195.347672 C132.030357,193.862706 132.27875,193.253489 132.488929,193.253489 C133.310536,193.253489 133.635357,202.943846 133.635357,202.943846 C133.769107,206.58011 134.132143,210.559058 134.648036,214.804539 L132.374286,214.804539" id="Shape" fill="#B7A890"></path>
                    <path d="M182.129286,350.393384 C181.441343,346.728671 181.402544,342.972257 182.014643,339.294213 C182.380956,335.603491 182.380956,331.885764 182.014643,328.195042 C180.734464,311.289272 174.964107,288.443637 174.964107,288.443637 C172.5375,280.047866 167.85625,261.047912 163.996607,245.055967 C163.538036,243.018898 163.098571,240.924715 162.659107,238.811494 L165.639821,238.811494 C170.607679,256.840508 175.862143,278.467709 177.276071,282.865494 C178.792074,287.758032 181.033245,292.397415 183.925357,296.629989 L183.925357,349.517635 L182.014643,350.393384 M194.969286,344.091797 L194.969286,343.882378 L195.466071,343.882378 L194.969286,344.110835" id="Shape" fill="#B7A890"></path>
                    <path d="M175.785714,52.9432121 C175.785714,55.9892968 173.760357,67.3359624 172.346429,69.1064991 C171.983393,69.5634118 172.346429,72.914105 172.93875,72.7808388 C173.531071,72.6475726 170.569464,73.6565882 169.575893,72.6666106 C168.582321,71.6766331 166.556964,56.4652476 167.072857,55.7037264 C167.58875,54.9422052 175.785714,52.9432121 175.785714,52.9432121" id="Path" fill="#E1B612"></path>
                    <path d="M168.467679,56.5985138 C168.849821,48.2598569 171.33375,39.4642873 158.512857,38.66469 C156.109369,38.4708012 153.690422,38.6182334 151.328571,39.1025647 C150.61398,38.7949581 149.879975,38.5342159 149.13125,38.3220055 C146.169643,38.645652 143.876786,40.4161887 142.099821,44.0334143 C140.647679,47.2698793 140.724107,51.6486261 140.857857,55.7227644 C140.857857,57.0363884 141.564821,58.9592294 141.717679,60.1967013 C141.90875,62.1005043 141.717679,63.185672 141.966071,64.6896763 C142.588588,70.2874456 145.007722,75.5355379 148.86375,79.6535674 C150.028668,80.3033278 151.351181,80.619583 152.685179,80.5673929 C156.814728,80.5006764 160.784938,78.9682915 163.881964,76.2457602 C165.506071,74.9892502 166.690714,70.7056936 167.416786,67.107506 C169.921415,65.5597019 171.723548,63.1018275 172.441964,60.2538154 C172.862321,56.9602363 171.4675,54.9612432 168.448571,56.4462095" id="Path" fill="#F7AE83"></path>
                    <path d="M153.506786,38.0935491 L153.831607,37.351066 C153.831607,37.351066 157.270893,35.447263 156.640357,35.447263 C156.009821,35.447263 155.054464,34.3240193 154.232857,35.9993659 L155.876071,33.2007756 L148.042143,35.409187 C146.998835,35.2495865 145.932855,35.4728357 145.042321,36.037442 L142.787679,37.6747125 C142.787679,37.6747125 142.997857,38.9121844 143.227143,37.1987618 C141.5075,37.6556745 140.265536,41.6155846 140.227321,44.5664792 C140.036307,45.5294485 139.895996,46.5017173 139.806964,47.4792977 C139.558827,50.5371751 139.700068,53.614049 140.227321,56.6365898 L141.068036,57.1886927 C141.068036,57.1886927 139.596786,46.7939286 143.685714,43.8620721 C147.774643,40.9302155 157.060714,43.8620721 157.060714,43.8620721 L153.506786,38.0935491 Z" id="Path" fill="#E1B612"></path>
                    <path d="M175.116964,44.1666805 C173.855893,41.5584705 172.13625,37.7127885 170.168214,36.7608871 C169.251071,34.6857419 162.525357,34.5143996 155.704107,32.0013797 C155.704107,32.0013797 161.722857,34.3240193 161.780179,35.9232138 L161.780179,35.9232138 C160.939464,34.6286278 150.965536,31.1637064 151.443214,31.9442656 C154.175536,36.3991645 153.602321,33.4292319 152.914464,35.3330349 L153.048214,35.4853391 C153.334821,33.5815362 151.233036,31.6777332 149.761786,31.2969726 C150.296786,33.8480686 147.296964,33.6386502 145.271607,36.3991645 C142.749464,38.7027661 140.800536,43.1005509 143.360893,45.0424299 C149.245893,49.5354048 154.022679,45.9181792 157.863214,46.2037497 C160.372538,46.3239956 162.64786,47.7086433 163.901071,49.8780894 C164.837321,51.6295881 165.334107,59.8730548 165.334107,59.8730548 L167.837143,58.3309745 L169.537679,54.808939 L174.945,57.1315786 C174.945,57.1315786 177.62,49.5163668 175.116964,44.2428327" id="Path" fill="#E1B612"></path>
                    <path d="M139.998036,62.538379 C139.176429,62.1195423 138.851607,58.7307731 139.195536,58.4832787 C139.539464,58.2357843 144.029643,58.8259632 144.621964,58.692697 C144.692047,59.975078 144.556598,61.2603942 144.220714,62.5003029 C144.04875,63.0714438 140.896071,63.0714438 139.998036,62.5003029 M149.991071,62.1195423 C149.594696,61.0295114 149.319188,59.8995463 149.169464,58.7498111 C149.723571,58.9021153 157.175357,57.9502139 157.519286,58.2738604 C157.863214,58.5975069 157.786786,62.0814663 156.831429,62.4622268 C155.455714,62.9572156 150.545179,63.5093185 149.991071,62.1195423 M138.526786,57.5313772 C137.819821,58.1596322 138.373929,63.2427861 139.577679,63.5473945 C141.354643,63.9662312 144.507321,64.2137256 144.908571,62.7668353 C145.309821,61.3199451 145.65375,58.9592294 145.65375,58.9592294 C146.409449,58.4955087 147.362872,58.4955087 148.118571,58.9592294 C148.118571,58.9592294 148.59625,61.4151352 149.054821,62.9381776 C149.513393,64.4612199 155.054464,63.6996988 157.366429,63.223748 C158.417321,63.0143297 158.531964,60.7678422 158.589286,58.9211534 L169.747857,56.084487 L170.359286,55.1325855 C170.359286,55.1325855 159.601964,57.0363884 158.035179,57.2267687 C156.659464,56.8840842 151.385893,57.8740617 149.379643,57.7407955 C148.527162,57.7981792 147.671767,57.7981792 146.819286,57.7407955 C145.768393,57.7407955 145.195179,58.026366 144.908571,57.9692519 C144.621964,57.9121378 139.176429,56.9411983 138.488571,57.5694533" id="Shape" fill="#26282D"></path>
                    <polyline id="Path" fill="#DBDBDB" points="133.75 157.40488 133.406071 140.384881 132.565357 157.30969 133.75 157.30969"></polyline>
                    <path d="M186.906071,161.421904 C176.893929,157.366804 164.608036,153.159399 153.315714,153.159399 C152.666071,153.159399 152.054643,153.159399 151.405,153.159399 C149.360536,153.159399 150.029286,154.663404 149.647143,156.072218 C149.231823,157.367699 147.991145,158.220513 146.628214,158.147363 L146.45625,158.147363 C141.545714,157.918907 136.214821,157.538146 133.807321,157.366804 L133.425179,140.346805 L133.425179,140.346805 C143.284464,139.851817 153.105536,138.957029 162.926607,138.957029 C164.824583,138.957029 166.735298,138.995105 168.65875,139.071257 C170.206429,139.071257 171.773214,139.185486 173.397321,139.185486 C177.926698,139.441389 182.443132,138.495383 186.485714,136.444009 C186.638571,136.444009 187.765893,136.120363 187.899643,136.025173 L187.746786,140.613338 L169.99625,142.23157 L160.920357,142.23157 C160.920357,142.23157 154.595893,150.494075 159.506429,151.046178 C164.130357,151.579243 177.276071,156.319712 187.211786,156.757587 L186.753214,164.544141" id="Path" fill="#275937"></path>
                    <path d="M136.768929,123.593339 L92.8225,123.593339 C90.4723214,123.593339 89.8608929,124.431013 89.8608929,126.239626 L95.2873214,154.587251 C95.2873214,156.491054 96.7776786,157.30969 98.6119643,157.30969 L142.31,157.30969 C144.220714,157.30969 145.634643,156.510092 145.634643,154.70148 L140.093571,126.77269 C140.083696,125.909248 139.725905,125.086 139.100655,124.488074 C138.475405,123.890148 137.635181,123.567736 136.768929,123.593339" id="Path" fill="#9ABCCC"></path>
                    <path d="M154.366607,139.604322 L144.621964,135.891906 L141.755893,135.891906 L144.201607,149.370831 L149.303214,150.989064 C151.419566,151.52018 153.656933,151.276987 155.608571,150.303695 L159.43,151.103292 L158.589286,142.650407 L154.366607,139.604322 Z" id="Path" fill="#F7AE83"></path>
                    <path d="M130.062321,139.71855 L131.973036,145.639378 C132.554464,147.232862 133.881985,148.441799 135.526964,148.875843 L145.634643,151.598281 L152.818929,151.12233 C153.523017,150.954365 154.218131,150.751033 154.901607,150.513113 L159.621071,151.160406 L160.863036,142.250608 L147.488036,138.614345 L130.062321,139.71855 Z" id="Path" fill="#F7AE83"></path>
                    <path d="M127.291786,139.547208 C126.589335,139.62955 126.059936,140.222729 126.059936,140.927465 C126.059936,141.632202 126.589335,142.225381 127.291786,142.307722 L143.227143,142.593293 L142.921429,138.252622 L127.291786,139.547208 Z" id="Path" fill="#F7AE83"></path>
                    <path d="M182.606964,214.804539 L182.606964,214.804539 C182.606964,214.062055 182.798036,213.186306 182.931786,212.329595 C182.798036,213.186306 182.683393,214.062055 182.606964,214.804539" id="Path" fill="#B7A890"></path>
                    <path d="M188.778571,186.609217 C189.714821,184.286577 190.555536,182.097204 191.147857,180.288591 C190.555536,182.192394 189.714821,184.286577 188.778571,186.609217 L188.778571,186.609217" id="Path" fill="#E5E5E5"></path>
                    <path d="M182.454107,201.515994 C183.505,199.174316 184.785179,196.261498 186.065357,193.234451 L186.065357,193.234451 C184.785179,196.261498 183.505,199.174316 182.454107,201.515994 L182.454107,201.515994" id="Path" fill="#B7A890"></path>
                    <path d="M186.065357,193.234451 C187.001607,191.02604 187.976071,188.760514 188.778571,186.609217 L188.778571,186.609217 C187.937857,188.760514 186.9825,191.02604 186.065357,193.234451 L186.065357,193.234451" id="Path" fill="#222429"></path>
                    <path d="M193.593571,168.713469 C194.013929,166.143335 194.319643,164.087228 194.319643,164.087228 L194.682679,159.613291 L194.682679,159.613291 L194.319643,164.106266 C194.319643,164.106266 194.013929,166.162373 193.593571,168.732507" id="Path" fill="#E5E5E5"></path>
                    <polyline id="Path" fill="#E5E5E5" points="142.959643 87.9922243 142.959643 87.6114638 142.959643 87.6114638 142.959643 87.6685778 142.959643 87.9922243"></polyline>
                    <polyline id="Path" fill="#795B4A" points="142.959643 87.6114638 142.959643 87.5924257 142.959643 87.5733877 142.959643 87.6114638 142.959643 87.6114638"></polyline>
                    <polyline id="Path" fill="#C06625" points="145.65375 125.04023 145.730179 124.926001 145.65375 125.04023"></polyline>
                    <rect id="Rectangle" fill="#D3D3D3" transform="translate(61.974018, 28.022432) rotate(-180.000000) translate(-61.974018, -28.022432) " x="0.993571429" y="0.341136723" width="121.960893" height="55.3625897" rx="4.83"></rect>
                    <polyline id="Path" fill="#D3D3D3" points="109.120893 49.5163668 122.285714 75.7698094 87.8546429 50.0303936"></polyline>
                </g>
                <path d="M61.894323,47.7393627 C62.4286335,49.209276 62.4286335,48.9611088 62.9056965,50.2783038 C63.4886487,52.277856 63.8156624,54.3433163 63.878905,56.425214 C63.878905,59.2123223 66.2642199,61.7321737 66.855778,64.3856536 C67.048074,64.8699475 67.048074,65.4094525 66.855778,65.8937464 C66.2833024,66.810056 64.7376184,66.4473502 64.0124826,67.2491211 C63.8348627,67.81841 63.6946254,68.3987035 63.5926672,68.9862913 C63.1747854,69.7560438 62.8603844,70.5776487 62.6576238,71.4297836 C62.3481915,73.8157888 61.0716195,75.9695298 59.1273577,77.3857959 C57.3717659,78.4739135 52.9637039,80.459251 52.9637039,82.9027432 C52.9637039,85.3462355 53.8414998,91.283158 53.8414998,91.283158 L56.9328679,114 L45.1398709,97.6018763 C45.1398709,97.6018763 36.0947567,87.4461116 33.461369,86.3389042 C33.461369,86.3389042 36.5527372,82.3682293 36.0947567,79.7338392 C35.6367762,77.0994492 33.1751312,74.6941365 32.7934808,73.6251086 C32.4118305,72.5560808 33.2323788,70.9907186 32.3545829,70.7616412 C30.7816627,70.4367711 29.4253661,69.4487331 28.6334916,68.0508919 C28.3945343,64.6571148 28.3945343,61.2507249 28.6334916,57.8569477 C28.4235839,60.1286319 26.0001039,52.1300128 32.2782528,43.9786754 C36.0060315,39.5139766 41.5386537,36.956792 47.3534432,37.0109045 C52.2004031,36.8009169 58.8029548,39.6643844 59.909741,42.0887869 C61.0165271,44.5131893 60.3677214,45.6203967 60.3677214,45.6203967 C61.0705376,46.1643446 61.6007776,46.9003326 61.894323,47.7393627 Z" id="Path" fill="#BF7F5D" fill-rule="nonzero"></path>
                <path d="M15.9959473,83.821642 C15.858733,83.7495066 15.7317658,83.6585804 15.6185492,83.5513723 C15.3439692,83.3093323 15.1860758,82.9569258 15.1860758,82.5861236 C15.1860758,82.2153215 15.3439692,81.862915 15.6185492,81.6208749 C15.7695084,81.6208749 15.9393376,81.4664351 16.0902968,81.3892152 C16.6074313,80.971945 16.7855416,80.2509998 16.5243046,79.6324625 C16.2540657,79.0416269 15.9385841,78.4735773 15.5808094,77.9336247 C15.0189867,76.8851369 14.8576034,75.6606141 15.1279316,74.4973393 C15.2146302,74.0925536 15.4263427,73.7270516 15.7317686,73.4548706 C16.2601259,73.0880761 17.0149221,73.3004308 17.6187591,73.0687711 C18.2876109,72.752094 18.7150373,72.0660148 18.7132136,71.3120185 C18.7303053,70.6136448 18.6797387,69.9152564 18.5622544,69.2270812 C18.241466,66.1189803 20.0529768,63.2425391 21.2040411,60.4819277 L21.8267479,59.0147496 C21.9304083,58.7802767 22.0064226,58.534015 22.0531868,58.2811606 C22.1447981,57.497087 22.4093455,56.7445565 22.8268529,56.0803935 C23.3552102,55.4047194 24.185486,55.3468045 24.7138434,54.7097403 C25.2422007,54.0726762 24.9402822,53.2425622 24.7138434,52.5089732 C24.2192427,51.1727034 24.697655,49.6642571 25.8649076,48.879638 C27.0159718,48.3777087 27.7518981,48.879638 28.5066943,47.8178644 C29.1107617,47.2109253 29.5189887,46.4295357 29.6766284,45.5784873 C29.7898478,43.551465 31.5636189,43.1653655 32.8845123,42.2387267 C34.1997145,41.1041759 35.586507,40.0594476 37.0358914,39.1113208 C39.9689624,37.6416872 43.2060027,36.9197422 46.4708439,37.0070786 C49.6927404,36.9733136 52.8694229,37.7841333 55.6982274,39.3622855 C57.0946004,40.1344845 61.547898,44.2078341 60.944061,45.810147 C60.3251022,47.3862296 58.955683,48.5245363 57.3210392,48.8217231 C56.0190158,49.0340778 54.5471632,48.7251982 53.4527087,49.4780922 C52.884693,49.9572756 52.416303,50.5480569 52.0752056,51.2155399 C50.5467433,53.5900518 47.4898187,55.1730597 46.7350225,58.0301959 C46.433104,59.1498845 45.4707389,59.7869486 45.0178612,60.8873322 C44.5684754,62.1889842 44.2214238,63.5252759 43.9800164,64.8834619 C43.7056002,66.5552827 42.9651808,68.1104849 41.8477171,69.362216 C41.3570996,69.8255354 40.5268238,70.0571951 40.1305558,70.5977344 C39.7342878,71.1382737 39.696548,72.0649125 39.1493207,72.7019766 C38.6020935,73.3390408 37.903907,73.8409701 37.3566797,74.4973393 C37.2158028,74.6476585 37.117905,74.8346145 37.0736312,75.0378786 C37.0509524,75.424641 37.2126768,75.7987091 37.507639,76.0417372 C38.1114759,76.6401914 38.9228819,76.987681 39.5078489,77.6054402 C40.092816,78.2231994 40.4324743,79.3042779 39.8286373,79.9220371 C39.3920963,80.2526819 38.877756,80.459165 38.3379148,80.5204913 C37.8095575,80.6556262 37.2434603,81.0417257 37.2812001,81.6015699 C37.3189399,82.1614142 37.9605167,82.4895987 38.0548662,83.049443 C38.1492157,83.6092873 37.5642487,84.1498266 36.9792816,84.2656564 C36.3943146,84.3814863 35.7904776,84.2656564 35.2055106,84.2656564 C33.6959182,84.4200962 33.2053006,85.1536852 31.6957082,84.0919116 C29.5256692,82.5668186 27.7896379,83.8988619 25.3554202,84.0919116 C23.9590472,84.2077415 22.5815441,84.555231 21.1851711,84.7482808 C20.1095866,84.8834156 17.637629,85.5397847 17.7131086,83.9760818 C17.1390342,84.1098084 16.5384101,84.0557889 15.9959473,83.821642 Z" id="Path" fill="#380D09" fill-rule="nonzero"></path>
                <path d="M44.7949941,359.724528 C45.2042706,362.814993 46.7169451,365.639159 49.0395148,367.649057 C49.3933534,367.846517 49.7690613,367.999505 50.1585248,368.104717 C50.8315557,368.497356 51.6074622,368.663632 52.3772515,368.580189 C56.0429738,368.580189 59.8051626,369.016038 63.0657262,367.034906 C63.1279409,367.213285 63.2054166,367.385656 63.2972455,367.55 C64.3004958,369.293396 70.3199978,370.343396 73.3297488,371.393396 C73.3297488,371.393396 77.9987216,372.8 74.9889706,374.543396 C71.9792196,376.286792 65.6317319,376.306604 65.6317319,376.306604 L46.2419898,376.643396 C46.2419898,376.643396 47.2452401,372.086792 45.8947108,370.7 C44.5441815,369.313208 38.1774006,365.806604 37.5407225,368.243396 C36.9040444,370.680189 40.8784592,374.543396 38.8719585,375.593396 C36.6045086,376.389105 34.2416602,376.862365 31.8492062,377 C31.7056271,373.601826 31.3706503,370.215032 30.8459558,366.856604 C30.1899845,363.706604 28.9166283,360.913208 31.8492062,356 C34.4152118,356.237736 36.9619242,356.574528 39.5665164,357.030189 C40.2417811,357.267925 41.148565,359.011321 42.3640414,358.69434 C42.4798011,359.625472 42.0167624,360.675472 42.2482817,361.685849 C43.1357724,361.012264 43.6952774,360.081132 44.7949941,359.724528 Z" id="Path" fill="#380D09" fill-rule="nonzero"></path>
                <path d="M85,200.949225 C85,207.863922 76.0005722,255.601925 69.7143477,285.55928 C69.7143477,285.55928 66.0648982,314.870756 61.4218813,324.748895 C61.4218813,324.748895 59.5111747,336.602661 60.1034937,343.194419 C60.7241953,348.302335 61.6106777,353.374847 62.7593758,358.391555 C63.1110412,361.458536 63.6987136,364.494196 64.5172259,367.471844 C61.2881318,369.371486 57.562254,369.010554 53.9319116,368.896575 C53.1720157,368.972507 52.4066667,368.820324 51.7345991,368.459657 C51.3461147,368.36735 50.9729249,368.220218 50.6263893,368.02274 C48.3524385,366.178839 46.8532756,363.556947 46.4228349,360.671125 C45.3337322,360.994064 44.7796273,361.886896 43.9007022,362.418796 C43.8053088,361.54836 43.7670137,360.672673 43.7860599,359.79729 C42.5632077,360.120229 41.8753533,358.25858 41.2639272,358.030623 C38.6653663,357.612701 36.0859125,357.289762 33.621101,357.080802 C33.621101,357.080802 39.9073256,335.994775 39.9073256,322.165382 C39.9073256,308.335988 36.6591244,270.875047 36.6591244,266.600853 C36.6591244,262.326658 36.9075163,259.933109 36.9075163,259.933109 C36.9075163,259.933109 28.9589771,232.274322 26.303095,209.877542 C23.6472129,187.480763 25.3095276,182.56069 28.9589771,170.706924 L27.9654097,165.767855 C27.9654097,165.767855 30.9461119,149.620898 75.9814651,161.151725 C75.8279058,163.724204 76.1650172,166.302353 76.9750325,168.750293 C78.3125271,172.283627 85,194.034528 85,200.949225 Z" id="Path" fill="#425B6B" fill-rule="nonzero"></path>
                <path d="M53.6734061,92.3052224 C55.1987465,93.519547 63.4927847,100.01522 64.9990584,101.460844 C66.505332,102.906469 75.7336412,116.321864 75.7336412,116.321864 C75.7336412,116.321864 83.989546,132.859808 85.9915552,135.037882 C85.9915552,135.037882 86.1440892,136.367857 85.152618,136.695532 C84.1611468,137.023206 73.4265639,139.201281 72.6066935,140.04938 C71.786823,140.89748 73.4265639,143.056279 73.4265639,143.056279 C73.4265639,143.056279 80.0427278,155.9127 79.871127,158.090774 C79.6995262,160.268848 77.2971151,162.697497 76.5916452,163.641972 L75.2379056,164.258772 C74.5355794,163.325518 73.5516902,162.648896 72.4350927,162.331272 C70.776285,162.003598 64.9609248,160.557973 64.1410544,160.557973 C63.321184,160.557973 55.4084808,159.054524 52.0908655,159.555673 C48.7732502,160.056823 38.9538715,158.996699 36.3226594,160.345948 C33.6914473,161.695198 28.6959575,165.280346 28.1811552,166.456121 C27.6663528,167.631896 27.8188868,166.937996 27.9904876,167.439146 C28.0398412,167.997714 27.9815649,168.560658 27.8188868,169.096795 C27.4548827,169.792387 26.665429,170.14354 25.9122114,169.944895 C24.7491393,169.61722 21.7747256,169.77142 21.1264559,166.263371 C20.4781863,162.755322 21.9463264,155.739225 21.6031248,153.9081 C21.2599232,152.076976 19.7917831,150.053102 19.2960475,147.065478 C18.8003119,144.077854 17.389372,143.210479 16.8173694,141.05168 C16.2453668,138.892881 17.313105,136.194382 16.3216338,135.037882 C15.1923204,133.258139 14.3552797,131.30541 13.8429557,129.255384 C13.0230852,126.749635 9,112.968015 9,112.968015 C9,112.968015 11.3261441,105.412218 12.965885,101.229544 C14.3983272,97.8536311 17.1645456,95.2389692 20.5925868,94.0206968 C22.7280633,93.346072 21.5649913,92.0931975 22.7280633,91.8426226 C23.8911354,91.5920476 24.6347388,91.5149477 25.2067414,91.3414727 C25.7787441,91.1679978 26.1982127,88.5080487 26.3698135,87.679224 C26.5414143,86.8503993 28.2764889,85 28.2764889,85 C28.2764889,85 36.1510586,85.9251997 43.2629581,95.9481961 L56.2664847,113.91249 L53.4255383,92.1124725 L53.6734061,92.3052224 Z" id="Path" fill="#2650A2" fill-rule="nonzero"></path>
                <path d="M88.5902281,95.1545636 C90.7289123,92.5676254 93.2461247,89.4480824 94.5898997,90.2279681 C95.4794409,90.760573 94.741311,91.8067613 94.0788866,92.3583878 C93.5105507,92.8561548 93.0080589,93.4251005 92.5837004,94.0513105 C92.4711891,95.5830321 92.2370174,97.1032625 91.8834232,98.5974739 C91.2967045,99.9670294 88.7227129,103.010486 88.0981415,104.303955 C87.47357,105.597424 81.1900022,114.499535 80.4140195,115.98322 C79.6380367,117.466905 80.62221,117.88538 80.7357684,118.646244 C80.9271807,119.786233 81.0598425,120.935403 81.133223,122.089155 C81.2657079,123.782078 82.1552491,129.355407 82.4202188,130.401596 C82.6851885,131.447784 85.5809291,142.993898 86.2055006,145.618879 C86.7783969,148.920841 86.9563068,152.279815 86.73544,155.624243 C86.7232187,157.147432 86.3189661,158.641515 85.5620027,159.961168 C85.3727386,160.360622 82.9123054,164.640483 81.8902793,164.96385 C80.8682533,165.287217 78.4645993,163.347014 77.8778807,162.890495 L75.7391965,161.235616 C75.7391965,161.235616 78.9756124,159.561715 78.9756124,157.355209 C78.9756124,155.148702 76.2312831,148.129731 75.5120796,146.646046 C74.792876,145.16236 73.5058802,142.480314 73.5058802,142.480314 C74.0270572,139.370835 74.2236966,136.215155 74.0925989,133.06462 C73.7140707,129.697796 73.1841313,121.195139 72.7488239,119.254936 C72.3135165,117.314732 71.5943129,114.195189 71.4429017,113.282152 C71.0543011,111.677504 70.9201655,110.021264 71.0454471,108.374578 C71.0454471,108.374578 71.367196,106.472418 71.8971355,103.581134 C72.2442981,101.980394 72.7515812,100.419026 73.4112482,98.9208411 C74.0547461,96.7523783 73.7329971,96.7523783 74.1683045,95.5540172 C74.5775888,94.0503848 75.2160303,92.6194993 76.0609454,91.3121996 C76.9315602,90.3420978 77.4614997,90.3420978 77.9535863,91.4263292 C78.4456729,92.5105606 77.7453958,93.4806624 77.4236469,96.8474863 C77.1018979,100.21431 79.1270237,100.271375 79.1270237,100.271375 C79.5244782,99.7007269 87.151821,87.8883108 88.1738471,87.2415763 C89.1958732,86.5948418 89.9150767,87.3747275 89.7258126,88.0785269 C89.5365485,88.7823262 85.3348858,95.2877148 85.5241498,95.6871685 C85.7134139,96.0866222 86.5461759,97.7985665 88.5902281,95.1545636 Z" id="Path" fill="#BF7F5D" fill-rule="nonzero"></path>
                <path d="M26.2955421,90.9405251 C25.9295542,90.4927012 25.7176665,89.7836469 26.2955421,90.0635367 C26.8734177,90.3434266 32.7484865,94.2432258 33.4804623,94.5231157 C35.8937616,94.512748 38.3025178,94.3193438 40.684645,93.9446766 C41.2047331,93.6647867 41.8596588,97.6765418 41.8596588,97.6765418 L45.9433132,98.3109589 L57,114.768484 L55.8827738,116 C55.8827738,116 47.3687397,109.338621 46.7716015,108.965434 C46.1744634,108.592248 39.0665933,100.718012 38.1805173,100.848627 C37.2944414,100.979243 40.7039075,108.312358 40.9928453,110.17829 C40.9928453,110.17829 42.1871216,112.622662 40.3957072,113.051826 C38.6042928,113.480991 37.1403412,113.835518 35.8690149,112.268135 C34.5976885,110.700751 32.690699,103.703504 31.1304348,101.762934 C28.3122199,98.6274917 25.2605675,95.696346 22,92.9930509 C23.794495,93.5457353 25.5145751,94.303676 27.1238305,95.2508294 C28.8959824,96.6129602 29.4931205,95.7546312 29.0500826,95.0269175 C28.2054852,93.6195519 27.2860689,92.2555873 26.2955421,90.9405251 L26.2955421,90.9405251 Z" id="Path" fill="#D2C0DE" fill-rule="nonzero" style="mix-blend-mode: multiply;"></path>
                <path d="M61.2198582,100.00584 C61.5035461,99.8575661 64,102.582092 64,102.582092 C63.8269553,104.446459 63.1764388,106.237843 62.108747,107.7902 C60.2161265,110.306941 58.1764675,112.714232 56,115 L56,112.794431 C56.1142853,110.809658 56.8994471,108.918625 58.2316785,107.419516 C58.893617,107.048832 59.177305,110.477657 59.536643,110.051371 C60.1207959,108.727502 60.3487034,107.278929 60.1985816,105.84411 C59.9905437,104.565251 60.1985816,102.915708 60.501182,102.841571 C60.8037825,102.767434 61.7304965,105.566097 62.1654846,106.122123 C62.6004728,106.678148 62.4680851,104.9174 62.4680851,104.064827 C62.4680851,103.212255 60.9361702,100.00584 61.2198582,100.00584 Z" id="Path" fill="#D2C0DE" fill-rule="nonzero" style="mix-blend-mode: multiply;"></path>
                <path d="M31.0200386,155.957776 C34.3464821,155.483564 37.627907,154.755534 40.83289,153.780658 C43.2076,153.142538 47.0738635,153.893268 45.71969,154.437547 C44.4109539,154.899224 43.0319904,155.152823 41.6375438,155.188277 C39.6749735,155.413496 28.7042056,157.590614 29.0378426,158.660404 C29.3714795,159.730194 38.45818,156.276836 37.8890346,156.933725 C37.3198892,157.590614 32.0013237,159.429902 30.0387534,161.06274 C28.0761832,162.695578 25.9566073,163.652759 26.7416354,164.197038 C27.5266635,164.741318 28.9004627,165.172988 27.8799261,165.923718 C26.8593896,166.674448 26.4079984,167.237495 25.4855904,166.899667 C24.5631823,166.561838 22.011841,165.604657 21.7174554,163.54015 C21.5349934,160.135918 21.699315,156.722785 22.208098,153.348988 C22.541735,151.82876 21.3053157,150.852811 20.8539245,149.013522 C20.4169376,146.934258 19.7593453,144.903033 18.8913542,142.951377 C18.036355,141.636325 17.4998966,140.154979 17.321298,138.61591 C17.8559912,137.231211 17.7708098,135.697051 17.0857896,134.374285 C15.8300752,131.889604 14.773783,129.317191 13.9260514,126.679302 C13.5924145,125.478134 9.07850281,116.056471 9,114.911608 C9.81909732,110.679399 10.9070684,106.498846 12.2578667,102.393183 C12.6111293,101.604917 12.9447663,102.130428 13.1410233,102.843621 C12.0964711,105.133025 11.5170193,107.591602 11.4335872,110.088167 C11.7672241,113.128624 13.3961574,119.847658 13.3961574,119.847658 C13.3961574,119.847658 15.2017221,125.815962 15.2017221,126.791911 C15.3431807,128.056339 15.5726564,129.310338 15.8886217,130.545562 C16.5527626,131.360927 17.1005439,132.25715 17.517555,133.210654 C18.1294106,134.70164 18.5128012,136.269343 18.6558458,137.86518 C18.6558458,139.742006 19.2249912,138.841129 20.2455277,141.112088 C21.2660643,143.383046 24.3276739,143.589497 23.7389028,144.471605 C23.1501317,145.353713 23.4052659,145.560164 22.8361205,146.536113 C22.2837254,147.338719 22.1125886,148.327497 22.3651036,149.257509 C22.6006121,150.439909 23.7389028,146.329662 24.4258024,147.380684 C25.112702,148.431706 25.8977301,148.244024 24.9753221,149.651643 C24.0529141,151.059262 23.856657,150.627592 23.9547856,152.785941 C23.9143787,154.212857 24.2306053,155.628396 24.8771936,156.914956 C25.3285848,157.571845 28.0369318,153.76189 28.9593398,152.785941 C29.8817478,151.809992 31.451804,153.01116 30.4312675,154.212328 C29.4107309,155.413496 29.7639936,155.845166 31.0200386,155.957776 Z" id="Path" fill="#D2C0DE" fill-rule="nonzero" style="mix-blend-mode: multiply;"></path>
                <path d="M72.5841187,129.533469 C73.2117692,133.668276 73.1283082,137.900809 72.3382921,142 C69.4677498,137.725128 66.359386,133.660522 63.0319994,129.830763 C62.5052281,129.355092 68.6508931,134.904582 69.0547511,135.518989 C69.4586091,136.133397 71.4252219,138.868503 71.4252219,138.868503 C71.6921414,137.816549 71.5718597,136.687541 71.0916001,135.737005 C70.3558105,134.247851 69.9803391,132.566283 70.0029394,130.861382 C70.2663251,130.861382 71.8993161,131.555068 71.9695522,132.843343 C72.0397884,134.131617 71.9695522,129.870402 71.9695522,129.255994 C71.9695522,128.641587 72.5490007,129.295634 72.5841187,129.533469 Z" id="Path" fill="#D2C0DE" fill-rule="nonzero" style="mix-blend-mode: multiply;"></path>
                <path d="M64.822114,208.21293 C66.0750404,201.359866 67.7946683,194.610815 69.9676508,188.01816 C70.3994441,187.221747 66.3693733,212.839713 66.1714681,221.67611 C65.9735628,230.512507 66.1714681,255.068588 65.9015972,262.786214 C65.6317264,270.503839 61.2958021,313.851486 61.0259313,317.776667 C60.7560605,321.701847 62.6631475,272.684495 63.47276,265.270265 C64.2823724,257.856035 63.2928461,232.219107 63.47276,226.814873 C63.6526738,221.410639 64.5522432,216.252913 64.2823724,212.839713 C64.3090812,211.281862 64.4899749,209.731202 64.822114,208.21293 Z" id="Path" fill="#364B5E" fill-rule="nonzero"></path>
                <path d="M36.3300065,268 C36.3300065,268 36.4700065,271.244755 36.6700065,276 C36.4422861,273.354545 36.328589,270.67932 36.3300065,268 L36.3300065,268 Z" id="Path" fill="#141414" fill-rule="nonzero"></path>
                <path d="M35.9483671,276 C37.4941901,288.788732 41.1445672,312.901408 40.9955722,322.629108 C40.7720798,335.530516 39.4497493,356 39.4497493,356 C38.5930281,355.042254 32,355.061033 32,355.061033 C32,355.061033 32.5028581,352.300469 34.8122803,344.469484 C37.2061981,334.327795 38.4557523,323.945795 38.537155,313.521127 C38.537155,309.239437 36.8795858,287.868545 35.9483671,276 Z" id="Path" fill="#364B5E" fill-rule="nonzero"></path>
                <path d="M54.2262658,163.471739 L54,159.020697 C57.9766111,158.903975 61.9522491,159.281322 65.8275316,160.143305 C66.3834961,161.344492 66.777486,162.60856 67,163.905026 C66.7737342,164.358009 56.3243671,163.018757 54.2262658,163.471739 Z" id="Path" fill="#364B5E" fill-rule="nonzero"></path>
                <path d="M45.0351747,174.858026 C45.5570643,175.88533 46.0060735,176.947466 46.3789352,178.036708 C47.0316189,179.521362 48.1066274,181.063117 47.9914479,181.634138 C47.7692009,182.797746 47.4807921,183.947967 47.1276018,185.079296 C46.9164395,185.498045 45.0543713,187.173039 44.8816021,187.725025 C44.7088329,188.277012 44.017756,187.877297 43.8065936,187.572753 C43.5954313,187.268209 43.0771236,186.011963 44.6512431,184.108561 C43.2461438,184.000322 41.8487448,183.809648 40.4663889,183.53754 C39.5833462,183.25203 38.546731,183.175894 38.546731,182.909418 C38.546731,182.642941 37.6444917,181.672206 38.8346796,181.367662 C40.0248675,181.063117 41.9253289,181.824478 42.2708673,181.672206 C42.6164057,181.519934 43.6722176,181.253458 43.6146279,180.929879 C43.4153352,180.266119 43.0210127,179.67633 42.4820297,179.235851 C41.6326396,178.673305 40.7405225,178.176932 39.8137052,177.751197 C39.045842,177.446653 37.9900302,176.72336 37.6252952,176.590122 C37.2605601,176.456884 36.9342183,176.704326 35.9935859,177.065973 C35.0529535,177.427619 34.8993809,177.636993 34.2466972,177.865402 C33.5940135,178.09381 32.019894,181.234424 29.5627319,182.033853 C27.1055698,182.833281 24.8979632,182.471635 24.4756384,181.634138 C24.0533137,180.796641 24.2260829,180.415961 25.4354674,180.13045 C26.240493,179.955545 26.9673925,179.528437 27.5086979,178.912273 C27.9118261,178.56966 28.6220995,178.398354 29.0444243,177.960572 C29.6427282,176.86675 30.1190545,175.711547 30.4649711,174.515414 C30.8128322,173.715991 30.873811,172.822491 30.6377403,171.983889 C30.4812867,171.513768 30.5157158,171.001705 30.7337232,170.556337 L30.5033643,169.756908 C30.1578259,169.014581 30.1194327,169.090717 30.1194327,169.090717 C28.7564756,165.854933 21.9800831,161.020292 14.3782378,154.301282 C9.19652293,149.559923 4.38964694,144.431039 0,138.95986 C0,132.945108 8.48488799,119.583225 9.46391353,113.340065 C10.538922,106.335545 17.1425452,109.913941 17.1425452,109.913941 C24.4564418,113.416201 24.9939461,118.250843 24.9939461,118.250843 C24.9939461,118.250843 20.7131089,124.703377 19.6381005,126.606779 C18.563092,128.510181 14.2054686,135.210157 13.8791267,136.295096 C13.5527849,137.380036 17.7184426,141.129738 23.1126813,147.315795 C28.0540982,152.745226 32.4995635,158.598965 36.3967141,164.808062 L36.3967141,164.808062 C36.857432,165.436185 37.4141328,166.254648 37.8940473,167.054077 C39.0074489,168.843275 44.1905252,173.468542 45.0351747,174.858026 Z" id="Path" fill="#BF7F5D" fill-rule="nonzero"></path>
                <path d="M56.0044982,41.1331522 C54.5872531,41.0520194 53.1782316,41.4027091 51.9538847,42.1413043 C50.7293608,42.8899028 49.8544065,44.1194371 49.5309149,45.5461957 C49.3274595,46.5353261 49.4199392,47.5625 49.1424999,48.5326087 C48.7528897,49.5047178 48.2498083,50.4245089 47.6443278,51.2717391 C47.0238655,52.135426 46.8385651,53.2506016 47.1449371,54.2771739 C47.2641686,54.6936869 47.6293078,54.9849058 48.0512388,55 C48.2425413,54.9830127 48.4267973,54.91767 48.5876214,54.8097826 C49.3480953,54.3083556 50.1388573,53.857261 50.9551033,53.4592391 C51.5150775,53.3118044 52.0554569,53.0946183 52.5642511,52.8125 C52.7053761,52.6698153 52.8603144,52.5423411 53.0266499,52.4320652 C53.6185204,52.1467391 54.3213666,52.6413043 54.8762451,52.4320652 C55.2419482,52.2363881 55.5732753,51.9792215 55.8565306,51.6711957 C56.6494346,51.0529373 57.7455397,51.0529373 58.5384437,51.6711957 L59.2227939,50.5298913 C59.2697684,50.4206497 59.3469573,50.328036 59.4447453,50.263587 C59.5422725,50.2419872 59.6431534,50.2419872 59.7406806,50.263587 C60.332551,50.263587 60.8689336,50.5679348 61.4608041,50.6440217 C63.4028791,50.8532609 63.0144641,48.2853261 62.8664965,47.0679348 C62.8349785,46.6047602 62.7155921,46.152412 62.5150734,45.736413 C62.2529824,45.3016371 61.9142494,44.9210191 61.516292,44.6141304 L59.555721,42.9021739 C58.6507706,41.8967927 57.4475548,41.2279172 56.1339699,41" id="Path" fill="#380D09" fill-rule="nonzero"></path>
            </g>
        </g>
    </g>
</svg>