<svg height="400" viewBox="0 0 1200 400" width="1200" xmlns="http://www.w3.org/2000/svg"><g fill="none" fill-rule="evenodd"><g fill="#fff"><path d="m0 400h1200v-400h-1200z"/><path d="m280 0h640v400h-640z"/><path d="m0 400h1200v-400h-1200z"/></g><path d="m0 400h1200v-135h-1200z" fill="#dedfde"/><path d="m0 400h1200v-135h-1200z" fill="#93d5f6"/><rect fill="#d8d8d8" fill-opacity=".01" height="400" rx="2" width="350" x="425"/><g fill-rule="nonzero" transform="translate(474)"><path d="m16.0154284 84.6842938c-.1574284.7212855.9248915 1.1198907 1.6529975.8921163.7281061-.2277744 1.377498-.7592479 2.1449611-.7212855.5005899.0520131.940451.3434884 1.1703609.7755432.2299099.4320549.2190087.9466961-.0290054 1.3693322 1.292381-.4156815 2.4934667-1.0593054 3.5421376-1.8981198.3041916.4454422.6992268.8264787 1.161034 1.1198907.4589081.3168758 1.0760182.3168758 1.5349263 0 .3148567-.2657368.5509992-.759248.94457-.6833232s.4919636.569436.7674632.854154c.4963533.3133035 1.1520783.2500547 1.5742833-.1518496.3851958-.4155229.8538221-.751309 1.377498-.9870224.4528273-.1040748.9246707-.1040748 1.3774979 0 1.37391.2654536 2.7845751.3039633 4.171851.1138872.2222126.0002823.4377067-.0734736.6100348-.2087931.1616916-.165771.2590185-.3803491.2754996-.6073984.2361425-1.1198907.4329279-2.2587626.5903563-3.3976345.157474-.7388682.157474-1.5009133 0-2.2397814-.283121-.7490078-.6811199-1.4528153-1.1807126-2.0879318-2.2039967-3.1129166-2.4794963-7.1179494-3.6995659-10.7053959-.0892249-.3636408-.2877453-.6937882-.5706777-.9490599-.4979485-.2288292-1.0763349-.2288292-1.5742834 0-1.8654182.726996-3.6042208 1.7256253-5.1557781 2.9610669-1.5219415.8170246-2.6468131 2.1818167-3.1288882 3.7962397-.1377498 1.2147967.4526065 2.5055182 0 3.6254089-.431237.6849048-1.0421431 1.2479732-1.7710688 1.632383-1.0113249.6652727-1.9655315 1.4079343-2.8533886 2.2208002-.9882856.796647-1.6793608 1.8831818-1.9678542 3.0939354-.1377498.7212855-.1377498 1.6893266-.8658559 1.8981198" fill="#380d09"/><g transform="translate(38)"><path d="m147.125 357.761102c.343929-5.045078.783393-11.917807 1.127321-19.380714-.343928 7.462907-.783392 14.335636-1.127321 19.361676" fill="#83bddb"/><path d="m144.488214 366.099759h1.910715s.2675-3.198389.611428-8.262505c-.343928 5.083154-.611428 8.281543-.611428 8.281543h-1.910715" fill="#020203"/><path d="m166.805357 350.107814c.229286-3.464921-1.796071-5.711409-.2675-23.454852.191072-2.170336-15.992678-2.874743-15.992678-2.874743.745178 8.719418 3.038035 14.20237-5.464643 24.749438-1.910715 2.303602-7.203393 6.549083-9.075893 8.41481-1.3375 1.313624-2.904286 7.443869 5.0825 7.443869 10.069464 0 17.750536-3.027047 20.291786-7.767516.229285-.418837.840714-.247494.840714-.247494s3.955178 2.779552 4.585714-6.225436" fill="#673327"/><path d="m184.899821 336.343319 15.285715-2.056108s.191071 1.465929 1.413928 6.701387c1.653059 6.734313 5.183581 12.865629 10.184107 17.686329 1.815481 1.962016 2.531819 4.695666 1.910715 7.291565v1.199396s-.917143 4.550089-3.993393 4.550089-15.91625-2.056107-17.463929-4.264518c-.557833-.812444-.851344-1.776196-.840714-2.760515l-.171964-.342684s-1.3375-5.292572-3.133572-4.854698c-1.872641-2.183645-2.352884-5.231359-1.241964-7.881744 1.757857-4.873735-1.910714-15.230423-1.910714-15.230423" fill="#673327"/><path d="m132.9475 168.960964c0 1.580156-.974464 6.035055-1.031786 7.615211-.477678 16.391744-.917143 25.587112-.917143 29.908745 0 4.721431 4.643036 56.105073 8.196965 67.889613 3.553928 11.78454 7.35625 56.561985 5.006071 60.084021-2.350178 3.522035-.458571 14.050065-.458571 14.050065s25.584464-1.789574 26.195893 2.912819c0 0 1.566785-1.694385.726071-11.993959-1.47125-18.390736-4.28-28.347625-5.6175-63.720284-.248393-7.063109-4.14625-44.891674-7.069643-56.162187-1.3375-5.102192 12.285893 52.468809 17.005357 68.974781 0 0 8.999465 35.639191 7.031429 50.850576-1.757857 13.707382 2.770536 15.687337 2.770536 15.687337s17.349285-5.711409 25.622678-.913826c.608548-4.573563.537728-9.211495-.210178-13.764495-1.3375-10.623221-10.585358-43.882658-11.922858-58.808473-1.547678-17.629215-4.700357-50.545968-5.865892-71.754333-.902737-14.529981-5.04778-28.676216-12.133036-41.407714-2.445714-4.245481-47.328393.628255-47.328393.628255" fill="#cbbba0"/><path d="m190.631964 140.5943h-2.9425l.554107-16.315592 2.388393 16.258478m20.119822 11.194361-.821607-4.645279-8.636429-48.4137091c-1.889491-4.5015144-5.872884-7.7947757-10.661786-8.8146077l-28.660714-10.33765v-.3236465h-.191071l-.363036.1332662-.343929-.1332662h-.210178v.0951902.1903803l-28.660715 10.33765c-4.79951 1.0508676-8.776541 4.380343-10.642678 8.9097978l-2.980714 52.049973-16.680536-9.195369s1.299286 6.967919 8.120536 20.542034 22.087857-5.273534 22.087857-5.273534 1.165535-22.674293 1.127321-26.653241l.573214 27.681294-1.605 21.037023-.439464 12.488947c10.222322-.114228 20.368214.418837 30.571429.932864 9.209643.475951 18.419285.951901 27.705357.951901l-3.496607-19.742436v-5.235458l.649643-10.185346v-1.237472l15.801607 2.151297c2.036303.249529 4.079288-.409489 5.582457-1.800765 1.50317-1.391276 2.313145-3.372848 2.213257-5.414648" fill="#326141"/><path d="m152.646964 66.5934792c.859822 4.2454806-1.413928 8.6432654-3.133571 12.241453-1.719643 3.5981875 3.34375 14.8306249 5.674821 14.8306249 2.331072 0 18.438393-10.0711176 18.438393-10.0711176s-4.872321-.647293-4.872321-21.7033535c0-3.3506932-16.107322 4.6262411-16.107322 4.6262411" fill="#f7ae83"/><path d="m152.704286 80.662583c4.129549-.0667164 8.099759-1.5991014 11.196785-4.3216327 1.624108-1.2565099 2.80875-5.5400666 3.534822-9.1382541.507189-.2509857.976673-.571387 1.394821-.9519015-.496785.4378747.248393 4.4168228.324822 5.159306.106146 3.6600587 1.012524 7.2529644 2.655893 10.5280303.397749.7947231 1.079239 1.412635 1.910714 1.7324607-1.280179 1.0280536-3.381964-.5521029-4.757679-1.0280536-1.839762-.6991009-3.769655-1.1349609-5.732143-1.294586-2.094369-.0023274-4.187052.1184566-6.267142.3617225-1.628462.114209-3.262967.114209-4.891429 0-.818415.0593956-1.640829-.0309363-2.426607-.2665324-.343929-.2665324-.152857-1.4659283-.2675-1.5040043 1.034808.5008544 2.174487.7488496 3.324643.7234451z" fill="#e6a37b"/><path d="m144.507321 342.359336h-1.452142c0-1.06613 0-2.151297 0-3.217427.374508-1.239668.611577-2.516487.706964-3.807606.111001-.296327.258626-.57772.439464-.837673.783393-1.16132.878929-6.815615.535-14.29756-.66875-15.230424-3.171786-37.885679-5.541071-45.786461-.756911-2.742188-1.35027-5.526609-1.776965-8.338657-1.050892-8.072125-2.14-17.667291-3.057142-27.14823h4.356428c2.80875 13.478925 6.095179 26.310557 8.120536 34.173263.554107 2.189373 1.031786 3.978948 1.375714 5.292572 2.655893 10.604182-.878928 6.644272.439464 12.831632 1.318393 6.187359 4.509286 37.86664 4.509286 39.979862 0 2.113221 10.489822 4.378746 10.56625 6.111207-.026519.216621-.163956.404013-.363036.494989-.864343.448007-1.83734.645859-2.80875.571141-1.600753-.045245-3.196629-.197895-4.776785-.456913-1.264425-.222094-2.540166-.37463-3.821429-.456913-.554107 0-.898036.095191-.898036.342685 0 1.332662 7.547322 3.978948 7.547322 3.978948s-9.706429.571141-14.005536.571141m-12.228571-127.554797c-.439465-6.530045-.745179-12.032035-.764286-15.611185v-.989977c-.013856-.954834.043624-1.909372.171964-2.855705.248393-1.484966.496786-2.094183.706965-2.094183.821607 0 1.146428 9.690357 1.146428 9.690357.13375 3.636264.496786 7.615212 1.012679 11.860693z" fill="#b7a890"/><path d="m182.129286 350.393384c-.687943-3.664713-.726742-7.421127-.114643-11.099171.366313-3.690722.366313-7.408449 0-11.099171-1.280179-16.90577-7.050536-39.751405-7.050536-39.751405-2.426607-8.395771-7.107857-27.395725-10.9675-43.38767-.458571-2.037069-.898036-4.131252-1.3375-6.244473h2.980714c4.967858 18.029014 10.222322 39.656215 11.63625 44.054 1.516003 4.892538 3.757174 9.531921 6.649286 13.764495v52.887646l-1.910714.875749m12.954643-6.301587v-.209419h.496785l-.496785.228457" fill="#b7a890"/><path d="m175.785714 52.9432121c0 3.0460847-2.025357 14.3927503-3.439285 16.163287-.363036.4569127 0 3.8076059.592321 3.6743397s-2.369286.8757494-3.362857-.1142282c-.993572-.9899775-3.018929-16.201363-2.503036-16.9628842s8.712857-2.7605143 8.712857-2.7605143" fill="#e1b612"/><path d="m168.467679 56.5985138c.382142-8.3386569 2.866071-17.1342265-9.954822-17.9338238-2.403488-.1938888-4.822435-.0464566-7.184286.4378747-.714591-.3076066-1.448596-.5683488-2.197321-.7805592-2.961607.3236465-5.254464 2.0941832-7.031429 5.7114088-1.452142 3.236465-1.375714 7.6152118-1.241964 11.6893501 0 1.313624.706964 3.236465.859822 4.4739369.191071 1.903803 0 2.9889707.248392 4.492975.622517 5.5977693 3.041651 10.8458616 6.897679 14.9638911 1.164918.6497604 2.487431.9660156 3.821429.9138255 4.129549-.0667165 8.099759-1.5991014 11.196785-4.3216327 1.624107-1.25651 2.80875-5.5400666 3.534822-9.1382542 2.504629-1.5478041 4.306762-4.0056785 5.025178-6.8536906.420357-3.2935791-.974464-5.2925722-3.993393-3.8076059" fill="#f7ae83"/><path d="m153.506786 38.0935491.324821-.7424831s3.439286-1.903803 2.80875-1.903803-1.585893-1.1232437-2.4075.5521029l1.643214-2.7985903-7.833928 2.2084114c-1.043308-.1596005-2.109288.0636487-2.999822.628255l-2.254642 1.6372705s.210178 1.2374719.439464-.4759507c-1.719643.4569127-2.961607 4.4168228-2.999822 7.3677174-.191014.9629693-.331325 1.9352381-.420357 2.9128185-.248137 3.0578774-.106896 6.1347513.420357 9.1572921l.840715.5521029s-1.47125-10.3947641 2.617678-13.3266206c4.088929-2.9318566 13.375 0 13.375 0z" fill="#e1b612"/><path d="m175.116964 44.1666805c-1.261071-2.60821-2.980714-6.453892-4.94875-7.4057934-.917143-2.0751452-7.642857-2.2464875-14.464107-4.7595074 0 0 6.01875 2.3226396 6.076072 3.9218341-.840715-1.294586-10.814643-4.7595074-10.336965-3.9789482 2.732322 4.4548989 2.159107 1.4849663 1.47125 3.3887693l.13375.1523042c.286607-1.9038029-1.815178-3.8076059-3.286428-4.1883665.535 2.551096-2.464822 2.3416776-4.490179 5.1021919-2.522143 2.3036016-4.471071 6.7013864-1.910714 8.6432654 5.885 4.4929749 10.661786.8757493 14.502321 1.1613198 2.509324.1202459 4.784646 1.5048936 6.037857 3.6743397.93625 1.7514987 1.433036 9.9949654 1.433036 9.9949654l2.503036-1.5420803 1.700536-3.5220355 5.407321 2.3226396s2.675-7.6152118.171964-12.8887459" fill="#e1b612"/><path d="m139.998036 62.538379c-.821607-.4188367-1.146429-3.8076059-.8025-4.0551003.343928-.2474944 4.834107.3426845 5.426428.2094183.070083 1.282381-.065366 2.5676972-.40125 3.8076059-.171964.5711409-3.324643.5711409-4.222678 0m9.993035-.3807606c-.396375-1.0900309-.671883-2.219996-.821607-3.3697312.554107.1523042 8.005893-.7995972 8.349822-.4759507.343928.3236465.2675 3.8076059-.687857 4.1883664-1.375715.4949888-6.28625 1.0470917-6.840358-.3426845m-11.464285-4.5881651c-.706965.628255-.152857 5.7114089 1.050893 6.0160173 1.776964.4188367 4.929642.6663311 5.330892-.7805592.40125-1.4468902.745179-3.8076059.745179-3.8076059.755699-.4637207 1.709122-.4637207 2.464821 0 0 0 .477679 2.4559058.93625 3.9789482.458572 1.5230423 5.999643.7615212 8.311608.2855704 1.050892-.2094183 1.165535-2.4559058 1.222857-4.3025946l11.158571-2.8366664.611429-.9519015s-10.757322 1.9038029-12.324107 2.0941832c-1.375715-.3426845-6.649286.647293-8.655536.5140268-.852481.0573837-1.707876.0573837-2.560357 0-1.050893 0-1.624107.2855705-1.910715.2284564-.286607-.0571141-5.732142-1.0280536-6.42-.3997986" fill="#26282d"/><path d="m133.75 157.40488-.343929-17.019999-.840714 16.924809h1.184643" fill="#dbdbdb"/><path d="m186.906071 161.421904c-10.012142-4.0551-22.298035-8.262505-33.590357-8.262505-.649643 0-1.261071 0-1.910714 0-2.044464 0-1.375714 1.504005-1.757857 2.912819-.41532 1.295481-1.655998 2.148295-3.018929 2.075145h-.171964c-4.910536-.228456-10.241429-.609217-12.648929-.780559l-.382142-17.019999c9.859285-.494988 19.680357-1.389776 29.501428-1.389776 1.897976 0 3.808691.038076 5.732143.114228 1.547679 0 3.114464.114229 4.738571.114229 4.529377.255903 9.045811-.690103 13.088393-2.741477.152857 0 1.280179-.323646 1.413929-.418836l-.152857 4.588165-17.750536 1.618232h-9.075893s-6.324464 8.262505-1.413928 8.814608c4.623928.533065 17.769642 5.273534 27.705357 5.711409l-.458572 7.786554" fill="#275937"/><path d="m136.768929 123.593339h-43.946429c-2.3501786 0-2.9616071.837674-2.9616071 2.646287l5.4264285 28.347625c0 1.903803 1.4903572 2.722439 3.3246429 2.722439h43.6980357c1.910714 0 3.324643-.799598 3.324643-2.60821l-5.541072-27.92879c-.009875-.863442-.367666-1.68669-.992916-2.284616s-1.465474-.920338-2.331726-.894735" fill="#9abccc"/><g fill="#f7ae83"><path d="m154.366607 139.604322-9.744643-3.712416h-2.866071l2.445714 13.478925 5.101607 1.618233c2.116352.531116 4.353719.287923 6.305357-.685369l3.821429.799597-.840714-8.452885z"/><path d="m130.062321 139.71855 1.910715 5.920828c.581428 1.593484 1.908949 2.802421 3.553928 3.236465l10.107679 2.722438 7.184286-.475951c.704088-.167965 1.399202-.371297 2.082678-.609217l4.719464.647293 1.241965-8.909798-13.375-3.636263z"/><path d="m127.291786 139.547208c-.702451.082342-1.23185.675521-1.23185 1.380257 0 .704737.529399 1.297916 1.23185 1.380257l15.935357.285571-.305714-4.340671z"/></g><path d="m182.606964 214.804539c0-.742484.191072-1.618233.324822-2.474944-.13375.856711-.248393 1.73246-.324822 2.474944" fill="#b7a890"/><path d="m188.778571 186.609217c.93625-2.32264 1.776965-4.512013 2.369286-6.320626-.592321 1.903803-1.433036 3.997986-2.369286 6.320626z" fill="#e5e5e5"/><path d="m182.454107 201.515994c1.050893-2.341678 2.331072-5.254496 3.61125-8.281543-1.280178 3.027047-2.560357 5.939865-3.61125 8.281543z" fill="#b7a890"/><path d="m186.065357 193.234451c.93625-2.208411 1.910714-4.473937 2.713214-6.625234-.840714 2.151297-1.796071 4.416823-2.713214 6.625234z" fill="#222429"/><path d="m193.593571 168.713469c.420358-2.570134.726072-4.626241.726072-4.626241l.363036-4.473937-.363036 4.492975s-.305714 2.056107-.726072 4.626241" fill="#e5e5e5"/><path d="m142.959643 87.9922243v-.3807605.057114z" fill="#e5e5e5"/><path d="m142.959643 87.6114638v-.0190381-.019038z" fill="#795b4a"/><path d="m145.65375 125.04023.076429-.114229z" fill="#c06625"/><rect fill="#d3d3d3" height="55.36259" rx="4.83" transform="matrix(-1 0 0 -1 123.948036 56.044864)" width="121.960893" x=".993571" y=".341137"/><path d="m109.120893 49.5163668 13.164821 26.2534426-34.4310711-25.7394158" fill="#d3d3d3"/></g><path d="m61.894323 47.7393627c.5343105 1.4699133.5343105 1.2217461 1.0113735 2.5389411.5829522 1.9995522.9099659 4.0650125.9732085 6.1469102 0 2.7871083 2.3853149 5.3069597 2.976873 7.9604396.192296.4842939.192296 1.0237989 0 1.5080928-.5724756.9163096-2.1181596.5536038-2.8432954 1.3553747-.1776199.5692889-.3178572 1.1495824-.4198154 1.7371702-.4178818.7697525-.7322828 1.5913574-.9350434 2.4434923-.3094323 2.3860052-1.5860043 4.5397462-3.5302661 5.9560123-1.7555918 1.0881176-6.1636538 3.0734551-6.1636538 5.5169473 0 2.4434923.8777959 8.3804148.8777959 8.3804148l3.0913681 22.716842-11.792997-16.3981237s-9.0451142-10.1557647-11.6785019-11.2629721c0 0 3.0913682-3.9706749 2.6333877-6.605065-.4579805-2.63439-2.9196255-5.0397027-3.3012759-6.1087306-.3816503-1.0690278.438898-2.63439-.4388979-2.8634674-1.5729202-.3248701-2.9292168-1.3129081-3.7210913-2.7107493-.2389573-3.3937771-.2389573-6.800167 0-10.1939442-.2099077 2.2716842-2.6333877-5.7269349 3.6447612-13.8782723 3.7277787-4.4646988 9.2604009-7.0218834 15.0751904-6.9677709 4.8469599-.2099876 11.4495116 2.6534799 12.5562978 5.0778824 1.1067861 2.4244024.4579804 3.5316098.4579804 3.5316098.7028162.5439479 1.2330562 1.2799359 1.5266016 2.118966z" fill="#bf7f5d"/><path d="m15.9959473 83.821642c-.1372143-.0721354-.2641815-.1630616-.3773981-.2702697-.27458-.24204-.4324734-.5944465-.4324734-.9652487 0-.3708021.1578934-.7232086.4324734-.9652487.1509592 0 .3207884-.1544398.4717476-.2316597.5171345-.4172702.6952448-1.1382154.4340078-1.7567527-.2702389-.5908356-.5857205-1.1588852-.9434952-1.6988378-.5618227-1.0484878-.723206-2.2730106-.4528778-3.4362854.0866986-.4047857.2984111-.7702877.603837-1.0424687.5283573-.3667945 1.2831535-.1544398 1.8869905-.3860995.6688518-.3166771 1.0962782-1.0027563 1.0944545-1.7567526.0170917-.6983737-.0334749-1.3967621-.1509592-2.0849373-.3207884-3.1081009 1.4907224-5.9845421 2.6417867-8.7451535l.6227068-1.4671781c.1036604-.2344729.1796747-.4807346.2264389-.733589.0916113-.7840736.3561587-1.5366041.7736661-2.2007671.5283573-.6756741 1.3586331-.733589 1.8869905-1.3706532.5283573-.6370641.2264388-1.4671781 0-2.2007671-.4946007-1.3362698-.0161884-2.8447161 1.1510642-3.6293352 1.1510642-.5019293 1.8869905 0 2.6417867-1.0617736.6040674-.6069391 1.0122944-1.3883287 1.1699341-2.2393771.1132194-2.0270223 1.8869905-2.4131218 3.2078839-3.3397606 1.3152022-1.1345508 2.7019947-2.1792791 4.1513791-3.1274059 2.933071-1.4696336 6.1701113-2.1915786 9.4349525-2.1042422 3.2218965-.033765 6.398579.7770547 9.2273835 2.3552069 1.396373.772199 5.8496706 4.8455486 5.2458336 6.4478615-.6189588 1.5760826-1.988378 2.7143893-3.6230218 3.0115761-1.3020234.2123547-2.773876-.0965249-3.8683305.6563691-.5680157.4791834-1.0364057 1.0699647-1.3775031 1.7374477-1.5284623 2.3745119-4.5853869 3.9575198-5.3401831 6.814656-.3019185 1.1196886-1.2642836 1.7567527-1.7171613 2.8571363-.4493858 1.301652-.7964374 2.6379437-1.0378448 3.9961297-.2744162 1.6718208-1.0148356 3.227023-2.1322993 4.4787541-.4906175.4633194-1.3208933.6949791-1.7171613 1.2355184s-.4340078 1.4671781-.9812351 2.1042422c-.5472272.6370642-1.2454137 1.1389935-1.792641 1.7953627-.1408769.1503192-.2387747.3372752-.2830485.5405393-.0226788.3867624.1390456.7608305.4340078 1.0038586.6038369.5984542 1.4152429.9459438 2.0002099 1.563703.5849671.6177592.9246254 1.6988377.3207884 2.3165969-.436541.3306448-.9508813.5371279-1.4907225.5984542-.5283573.1351349-1.0944545.5212344-1.0567147 1.0810786.0377398.5598443.6793166.8880288.7736661 1.4478731s-.4906175 1.1003836-1.0755846 1.2162134c-.584967.1158299-1.188804 0-1.773771 0-1.5095924.1544398-2.00021.8880288-3.5098024-.1737448-2.170039-1.525093-3.9060703-.1930497-6.340288 0-1.396373.1158299-2.7738761.4633194-4.1702491.6563692-1.0755845.1351348-3.5475421.7915039-3.4720625-.772199-.5740744.1337266-1.1746985.0797071-1.7171613-.1544398z" fill="#380d09"/><path d="m44.7949941 359.724528c.4092765 3.090465 1.921951 5.914631 4.2445207 7.924529.3538386.19746.7295465.350448 1.11901.45566.6730309.392639 1.4489374.558915 2.2187267.475472 3.6657223 0 7.4279111.435849 10.6884747-1.545283.0622147.178379.1396904.35075.2315193.515094 1.0032503 1.743396 7.0227523 2.793396 10.0325033 3.843396 0 0 4.6689728 1.406604 1.6592218 3.15s-9.3572387 1.763208-9.3572387 1.763208l-19.3897421.336792s1.0032503-4.556604-.347279-5.943396-7.7173102-4.893396-8.3539883-2.456604c-.6366781 2.436793 3.3377367 6.3 1.331236 7.35-2.2674499.795709-4.6302983 1.268969-7.0227523 1.406604-.1435791-3.398174-.4785559-6.784968-1.0032504-10.143396-.6559713-3.15-1.9293275-5.943396 1.0032504-10.856604 2.5660056.237736 5.112718.574528 7.7173102 1.030189.6752647.237736 1.5820486 1.981132 2.797525 1.664151.1157597.931132-.347279 1.981132-.1157597 2.991509.8874907-.673585 1.4469957-1.604717 2.5467124-1.961321z" fill="#380d09"/><path d="m85 200.949225c0 6.914697-8.9994278 54.6527-15.2856523 84.610055 0 0-3.6494495 29.311476-8.2924664 39.189615 0 0-1.9107066 11.853766-1.3183876 18.445524.6207016 5.107916 1.507184 10.180428 2.6558821 15.197136.3516654 3.066981.9393378 6.102641 1.7578501 9.080289-3.2290941 1.899642-6.9549719 1.53871-10.5853143 1.424731-.7598959.075932-1.5252449-.076251-2.1973125-.436918-.3884844-.092307-.7616742-.239439-1.1082098-.436917-2.2739508-1.843901-3.7731137-4.465793-4.2035544-7.351615-1.0891027.322939-1.6432076 1.215771-2.5221327 1.747671-.0953934-.870436-.1336885-1.746123-.1146423-2.621506-1.2228522.322939-1.9107066-1.53871-2.5221327-1.766667-2.5985609-.417922-5.1780147-.740861-7.6428262-.949821 0 0 6.2862246-21.086027 6.2862246-34.91542 0-13.829394-3.2482012-51.290335-3.2482012-55.564529 0-4.274195.2483919-6.667744.2483919-6.667744s-7.9485392-27.658787-10.6044213-50.055567c-2.6558821-22.396779-.9935674-27.316852 2.6558821-39.170618l-.9935674-4.939069s2.9807022-16.146957 48.0160554-4.61613c-.1535593 2.572479.1835521 5.150628.9935674 7.598568 1.3374946 3.533334 8.0249675 25.284235 8.0249675 32.198932z" fill="#425b6b"/><path d="m53.6734061 92.3052224c1.5253404 1.2143246 9.8193786 7.7099976 11.3256523 9.1556216 1.5062736 1.445625 10.7345828 14.86102 10.7345828 14.86102s8.2559048 16.537944 10.257914 18.716018c0 0 .152534 1.329975-.8389372 1.65765-.9914712.327674-11.7260541 2.505749-12.5459245 3.353848-.8198705.8481.8198704 3.006899.8198704 3.006899s6.6161639 12.856421 6.4445631 15.034495-2.5740119 4.606723-3.2794818 5.551198l-1.3537396.6168c-.7023262-.933254-1.6862154-1.609876-2.8028129-1.9275-1.6588077-.327674-7.4741679-1.773299-8.2940383-1.773299s-8.7325736-1.503449-12.0501889-1.0023c-3.3176153.50115-13.136994-.558974-15.7682061.790275-2.6312121 1.34925-7.6267019 4.934398-8.1415042 6.110173-.5148024 1.175775-.3622684.481875-.1906676.983025.0493536.558568-.0089227 1.121512-.1716008 1.657649-.3640041.695592-1.1534578 1.046745-1.9066754.8481-1.1630721-.327675-4.1374858-.173475-4.7857555-3.681524-.6482696-3.508049.8198705-10.524146.4766689-12.355271-.3432016-1.831124-1.8113417-3.854998-2.3070773-6.842622s-1.9066755-3.854999-2.4786781-6.013798.4957356-4.857298-.4957356-6.013798c-1.1293134-1.779743-1.9663541-3.732472-2.4786781-5.782498-.8198705-2.505749-4.8429557-16.287369-4.8429557-16.287369s2.3261441-7.555797 3.965885-11.738471c1.4324422-3.3759129 4.1986606-5.9905748 7.6267018-7.2088472 2.1354765-.6746248.9724045-1.9274993 2.1354765-2.1780742 1.1630721-.250575 1.9066755-.3276749 2.4786781-.5011499.5720027-.1734749.9914713-2.833424 1.1630721-3.6622487s1.9066754-2.679224 1.9066754-2.679224 7.8745697.9251997 14.9864692 10.9481961l13.0035266 17.9642939-2.8409464-21.8000175z" fill="#2650a2"/><path d="m88.5902281 95.1545636c2.1386842-2.5869382 4.6558966-5.7064812 5.9996716-4.9265955.8895412.5326049.1514113 1.5787932-.5110131 2.1304197-.5683359.497767-1.0708277 1.0667127-1.4951862 1.6929227-.1125113 1.5317216-.346683 3.051952-.7002772 4.5461634-.5867187 1.3695555-3.1607103 4.4130121-3.7852817 5.7064811-.6245715 1.293469-6.9081393 10.19558-7.684122 11.679265-.7759828 1.483685.2081905 1.90216.3217489 2.663024.1914123 1.139989.3240741 2.289159.3974546 3.442911.1324849 1.692923 1.0220261 7.266252 1.2869958 8.312441.2649697 1.046188 3.1607103 12.592302 3.7852818 15.217283.5728963 3.301962.7508062 6.660936.5299394 10.005364-.0122213 1.523189-.4164739 3.017272-1.1734373 4.336925-.1892641.399454-2.6496973 4.679315-3.6717234 5.002682-1.022026.323367-3.42568-1.616836-4.0123986-2.073355l-2.1386842-1.654879s3.2364159-1.673901 3.2364159-3.880407c0-2.206507-2.7443293-9.225478-3.4635328-10.709163-.7192036-1.483686-2.0061994-4.165732-2.0061994-4.165732.521177-3.109479.7178164-6.265159.5867187-9.415694-.3785282-3.366824-.9084676-11.869481-1.343775-13.809684-.4353074-1.940204-1.154511-5.059747-1.3059222-5.972784-.3886006-1.604648-.5227362-3.260888-.3974546-4.907574 0 0 .3217489-1.90216.8516884-4.793444.3471626-1.60074.8544457-3.162108 1.5141127-4.6602929.6434979-2.1684628.3217489-2.1684628.7570563-3.3668239.4092843-1.5036324 1.0477258-2.9345179 1.8926409-4.2418176.8706148-.9701018 1.4005543-.9701018 1.8926409.1141296s-.2081905 2.0543332-.5299394 5.4211571c-.321749 3.3668237 1.7033768 3.4238887 1.7033768 3.4238887.3974545-.5706481 8.0247973-12.3830642 9.0468234-13.0297987s1.7412296.1331512 1.5519655.8369506c-.1892641.7037993-4.3909268 7.2091879-4.2016628 7.6086416.1892641.3994537 1.0220261 2.111398 3.0660783-.5326049z" fill="#bf7f5d"/><g fill="#d2c0de"><path d="m26.2955421 90.9405251c-.3659879-.4478239-.5778756-1.1568782 0-.8769884.5778756.2798899 6.4529444 4.1796891 7.1849202 4.459579 2.4132993-.0103677 4.8220555-.2037719 7.2041827-.5784391.5200881-.2798899 1.1750138 3.7318652 1.1750138 3.7318652l4.0836544.6344171 11.0566868 16.4575251-1.1172262 1.231516s-8.5140341-6.661379-9.1111723-7.034566c-.5971381-.373186-7.7050082-8.247422-8.5910842-8.116807-.8860759.130616 2.5233902 7.463731 2.812328 9.329663 0 0 1.1942763 2.444372-.5971381 2.873536-1.7914144.429165-3.255366.783692-4.5266923-.783691-1.2713264-1.567384-3.1783159-8.564631-4.7385801-10.505201-2.8182149-3.1354423-5.8698673-6.066588-9.1304348-8.7698831 1.794495.5526844 3.5145751 1.3106251 5.1238305 2.2577785 1.7721519 1.3621308 2.36929.5038018 1.9262521-.2239119-.8445974-1.4073656-1.7640137-2.7713302-2.7545405-4.0863924z"/><path d="m61.2198582 100.00584c.2836879-.1482739 2.7801418 2.576252 2.7801418 2.576252-.1730447 1.864367-.8235612 3.655751-1.891253 5.208108-1.8926205 2.516741-3.9322795 4.924032-6.108747 7.2098v-2.205569c.1142853-1.984773.8994471-3.875806 2.2316785-5.374915.6619385-.370684.9456265 3.058141 1.3049645 2.631855.5841529-1.323869.8120604-2.772442.6619386-4.207261-.2080379-1.278859 0-2.928402.3026004-3.002539.3026005-.074137 1.2293145 2.724526 1.6643026 3.280552.4349882.556025.3026005-1.204723.3026005-2.057296 0-.852572-1.5319149-4.058987-1.2482269-4.058987z"/><path d="m31.0200386 155.957776c3.3264435-.474212 6.6078684-1.202242 9.8128514-2.177118 2.37471-.63812 6.2409735.11261 4.8868.656889-1.3087361.461677-2.6876996.715276-4.0821462.75073-1.9625703.225219-12.9333382 2.402337-12.5997012 3.472127.3336369 1.06979 9.4203374-2.383568 8.851192-1.726679s-5.8877109 2.496177-7.8502812 4.129015c-1.9625702 1.632838-4.0821461 2.590019-3.297118 3.134298.7850281.54428 2.1588273.97595 1.1382907 1.72668-1.0205365.75073-1.4719277 1.313777-2.3943357.975949-.9224081-.337829-3.4737494-1.29501-3.768135-3.359517-.182462-3.404232-.0181404-6.817365.4906426-10.191162.333637-1.520228-.9027823-2.496177-1.3541735-4.335466-.4369869-2.079264-1.0945792-4.110489-1.9625703-6.062145-.8549992-1.315052-1.3914576-2.796398-1.5700562-4.335467.5346932-1.384699.4495118-2.918859-.2355084-4.241625-1.2557144-2.484681-2.3120066-5.057094-3.1597382-7.694983-.3336369-1.201168-4.84754859-10.622831-4.9260514-11.767694.81909732-4.232209 1.9070684-8.412762 3.2578667-12.518425.3532626-.788266.6868996-.262755.8831566.450438-1.0445522 2.289404-1.624004 4.747981-1.7074361 7.244546.3336369 3.040457 1.9625702 9.759491 1.9625702 9.759491s1.8055647 5.968304 1.8055647 6.944253c.1414586 1.264428.3709343 2.518427.6868996 3.753651.6641409.815365 1.2119222 1.711588 1.6289333 2.665092.6118556 1.490986.9952462 3.058689 1.1382908 4.654526 0 1.876826.5691454.975949 1.5896819 3.246908 1.0205366 2.270958 4.0821462 2.477409 3.4933751 3.359517s-.3336369 1.088559-.9027823 2.064508c-.5523951.802606-.7235319 1.791384-.4710169 2.721396.2355085 1.1824 1.3737992-2.927847 2.0606988-1.876825s1.4719277.86334.5495197 2.270959-1.1186651.975949-1.0205365 3.134298c-.0404069 1.426916.2758197 2.842455.922408 4.129015.4513912.656889 3.1597382-3.153066 4.0821462-4.129015s2.4924642.225219 1.4719277 1.426387c-1.0205366 1.201168-.6672739 1.632838.5887711 1.745448z"/><path d="m72.5841187 129.533469c.6276505 4.134807.5441895 8.36734-.2458266 12.466531-2.8705423-4.274872-5.9789061-8.339478-9.3062927-12.169237-.5267713-.475671 5.6188937 5.073819 6.0227517 5.688226.403858.614408 2.3704708 3.349514 2.3704708 3.349514.2669195-1.051954.1466378-2.180962-.3336218-3.131498-.7357896-1.489154-1.111261-3.170722-1.0886607-4.875623.2633857 0 1.8963767.693686 1.9666128 1.981961.0702362 1.288274 0-2.972941 0-3.587349 0-.614407.5794485.03964.6145665.277475z"/></g><path d="m64.822114 208.21293c1.2529264-6.853064 2.9725543-13.602115 5.1455368-20.19477.4317933-.796413-3.5982775 24.821553-3.7961827 33.65795-.1979053 8.836397 0 33.392478-.2698709 41.110104-.2698708 7.717625-4.6057951 51.065272-4.8756659 54.990453-.2698708 3.92518 1.6372162-45.092172 2.4468287-52.506402.8096124-7.41423-.1799139-33.051158 0-38.455392.1799138-5.404234 1.0794832-10.56196.8096124-13.97516.0267088-1.557851.2076025-3.108511.5397416-4.626783z" fill="#364b5e"/><path d="m36.3300065 268s.14 3.244755.34 8c-.2277204-2.645455-.3414175-5.32068-.34-8z" fill="#141414"/><path d="m35.9483671 276c1.545823 12.788732 5.1962001 36.901408 5.0472051 46.629108-.2234924 12.901408-1.5458229 33.370892-1.5458229 33.370892-.8567212-.957746-7.4497493-.938967-7.4497493-.938967s.5028581-2.760564 2.8122803-10.591549c2.3939178-10.141689 3.643472-20.523689 3.7248747-30.948357 0-4.28169-1.6575692-25.652582-2.5887879-37.521127z" fill="#364b5e"/><path d="m54.2262658 163.471739-.2262658-4.451042c3.9766111-.116722 7.9522491.260625 11.8275316 1.122608.5559645 1.201187.9499544 2.465255 1.1724684 3.761721-.2262658.452983-10.6756329-.886269-12.7737342-.433287z" fill="#364b5e"/><path d="m45.0351747 174.858026c.5218896 1.027304.9708988 2.08944 1.3437605 3.178682.6526837 1.484654 1.7276922 3.026409 1.6125127 3.59743-.222247 1.163608-.5106558 2.313829-.8638461 3.445158-.2111623.418749-2.0732305 2.093743-2.2459997 2.645729-.1727692.551987-.8638461.152272-1.0750085-.152272-.2111623-.304544-.72947-1.56079.8446495-3.464192-1.4050993-.108239-2.8024983-.298913-4.1848542-.571021-.8830427-.28551-1.9196579-.361646-1.9196579-.628122 0-.266477-.9022393-1.237212.2879486-1.541756 1.1901879-.304545 3.0906493.456816 3.4361877.304544s1.4013503-.418748 1.3437606-.742327c-.1992927-.66376-.5936152-1.253549-1.1325982-1.694028-.8493901-.562546-1.7415072-1.058919-2.6683245-1.484654-.7678632-.304544-1.823675-1.027837-2.18841-1.161075-.3647351-.133238-.6910769.114204-1.6317093.475851-.9406324.361646-1.094205.57102-1.7468887.799429-.6526837.228408-2.2268032 3.369022-4.6839653 4.168451-2.4571621.799428-4.6647687.437782-5.0870935-.399715-.4223247-.837497-.2495555-1.218177.959829-1.503688.8050256-.174905 1.5319251-.602013 2.0732305-1.218177.4031282-.342613 1.1134016-.513919 1.5357264-.951701.5983039-1.093822 1.0746302-2.249025 1.4205468-3.445158.3478611-.799423.4088399-1.692923.1727692-2.531525-.1564536-.470121-.1220245-.982184.0959829-1.427552l-.2303589-.799429c-.3455384-.742327-.3839316-.666191-.3839316-.666191-1.3629571-3.235784-8.1393496-8.070425-15.7411949-14.789435-5.18171487-4.741359-9.98859086-9.870243-14.3782378-15.341422 0-6.014752 8.48488799-19.376635 9.46391353-25.619795 1.07500847-7.00452 7.67863167-3.426124 7.67863167-3.426124 7.3138966 3.50226 7.8514009 8.336902 7.8514009 8.336902s-4.2808372 6.452534-5.3558456 8.355936c-1.0750085 1.903402-5.4326319 8.603378-5.7589738 9.688317-.3263418 1.08494 3.8393159 4.834642 9.2335546 11.020699 4.9414169 5.429431 9.3868822 11.28317 13.2840328 17.492267.4607179.628123 1.0174187 1.446586 1.4973332 2.246015 1.1134016 1.789198 6.2964779 6.414465 7.1411274 7.803949z" fill="#bf7f5d"/><path d="m56.0044982 41.1331522c-1.4172451-.0811328-2.8262666.2695569-4.0506135 1.0081521-1.2245239.7485985-2.0994782 1.9781328-2.4229698 3.4048914-.2034554.9891304-.1109757 2.0163043-.388415 2.986413-.3896102.9721091-.8926916 1.8919002-1.4981721 2.7391304-.6204623.8636869-.8057627 1.9788625-.4993907 3.0054348.1192315.416513.4843707.7077319.9063017.7228261.1913025-.0169873.3755585-.08233.5363826-.1902174.7604739-.501427 1.5512359-.9525216 2.3674819-1.3505435.5599742-.1474347 1.1003536-.3646208 1.6091478-.6467391.141125-.1426847.2960633-.2701589.4623988-.3804348.5918705-.2853261 1.2947167.2092391 1.8495952 0 .3657031-.1956771.6970302-.4528437.9802855-.7608695.792904-.6182584 1.8890091-.6182584 2.6819131 0l.6843502-1.1413044c.0469745-.1092416.1241634-.2018553.2219514-.2663043.0975272-.0215998.1984081-.0215998.2959353 0 .5918704 0 1.128253.3043478 1.7201235.3804347 1.942075.2092392 1.55366-2.3586956 1.4056924-3.5760869-.031518-.4631746-.1509044-.9155228-.3514231-1.3315218-.262091-.4347759-.600824-.8153939-.9987814-1.1222826l-1.960571-1.7119565c-.9049504-1.0053812-2.1081662-1.6742567-3.4217511-1.9021739" fill="#380d09"/></g></g></svg>