<?xml version="1.0" encoding="UTF-8"?>
<svg width="1200px" height="400px" viewBox="0 0 1200 400" version="1.1" xmlns="http://www.w3.org/2000/svg" xmlns:xlink="http://www.w3.org/1999/xlink">
    <title>toolbox / datagedreven-werken / header-06-aan-de slag-datagedreven werken in de praktijk</title>
    <g id="toolbox-/-datagedreven-werken-/-header-06-aan-de-slag-datagedreven-werken-in-de-praktijk" stroke="none" stroke-width="1" fill="none" fill-rule="evenodd">
        <g id="bg-hero-image-datagedreven-werken">
            <polygon id="wit" fill="#FFFFFF" points="0 400 1200 400 1200 0 0 0"></polygon>
            <rect id="Rectangle" fill="#FFFFFF" x="280" y="0" width="640" height="400"></rect>
            <polygon id="wit" fill="#FFFFFF" points="0 400 1200 400 1200 0 0 0"></polygon>
            <polygon id="grijs" fill="#DEDFDE" points="0 400 1200 400 1200 265 0 265"></polygon>
            <polygon id="blauw" fill="#93D5F6" points="0 400 1200 400 1200 265 0 265"></polygon>
        </g>
        <g id="toolbox-/-datagedreven-werken-/-06-aan-de-slag-datagedreven-werken-in-de-praktijk" transform="translate(280.000000, 0.000000)">
            <rect id="Rectangle" fill-opacity="0.01" fill="#D8D8D8" x="0" y="0" width="640" height="400" rx="2"></rect>
            <g id="7176-ICTU-Toolbox_Aan-de-slag--datagedreven-werken-in-de-praktijk" stroke-width="1" transform="translate(140.000000, 42.000000)">
                <rect id="Rectangle" fill="#545454" fill-rule="nonzero" x="32" y="135" width="9" height="157"></rect>
                <path d="M161.086539,188.729192 C154.121818,193.872753 148.619304,204.159875 146.297731,216.311538 C143.86072,229.170441 140.051287,255.711216 137.550144,261.523439 C133.189177,271.810561 130.098021,269.585971 129.033432,275.668232 C128.520377,278.561485 133.997238,281.699058 139.628016,286.739747 C146.438821,292.847726 149.453018,297.656956 151.479585,295.458083 C153.801159,292.976315 145.540975,289.247233 145.16901,269.740278 C145.053572,263.953772 155.571199,239.13609 161.125018,226.341482 C166.678838,213.546874 174.964675,199.903579 172.57897,190.966641 C171.450249,186.787498 168.064086,183.469901 161.035234,188.63918" id="Path" fill="#275937" fill-rule="nonzero"></path>
                <path d="M150.25456,292.037904 C150.25456,292.037904 145.284363,292.137743 143.159604,289.804001 C141.034845,287.470259 138.997064,279.008883 137.13324,275.352271 C136.015013,273.163691 134.77034,271.042648 133.405593,269 C133.405593,269 129.603393,269.960953 128.957267,275.48955 C128.14961,281.979101 127.578037,286.846263 126.347914,290.764953 L126,291.800785 L127.702292,292.312462 C127.702292,292.312462 130.498028,283.37685 132.163044,282.989973 C133.405593,282.702935 134.958779,284.549961 136.74805,287.757296 C138.537321,290.964632 139.966253,295.706996 140.972717,296.281071 C143.022923,297.429222 155.063225,301.485191 156.927049,299.426007 C157.821684,298.440095 150.192432,292.037904 150.192432,292.037904" id="Path" fill="#275937" fill-rule="nonzero"></path>
                <path d="M161.527993,194.189118 C157.899905,202.568152 158.180954,214.974821 162.345591,227.731155 C166.714627,241.135019 174.264628,268.564375 174.992801,275.324585 C176.270297,287.22618 172.437809,286.682255 174.596777,293.040996 C175.605999,296.045534 182.159554,296.304546 189.811755,298.298937 C199.073601,300.720698 204.260234,303.789988 204.950082,300.694797 C205.76768,297.185186 196.416409,297.755012 186.107016,279.429923 C183.041026,273.990674 182.427828,244.903641 180.882058,229.997509 C179.336288,215.091376 179.808961,198.009543 173.076557,190.705409 C169.921142,187.299403 165.168857,185.823035 161.579093,194.189118" id="Path" fill="#275937" fill-rule="nonzero"></path>
                <path d="M203.7033,294.889881 C203.7033,294.889881 199.088289,297.469246 195.830634,296.334325 C192.57298,295.199405 186.148161,287.938492 182.450981,285.320437 C180.255995,283.744658 177.968065,282.301911 175.599565,281 C175.599565,281 172.535818,283.863095 174.888569,289.589286 C177.603281,296.321429 179.658706,301.364087 180.589464,305.813492 L180.822154,307 L182.696598,306.638889 C182.696598,306.638889 180.550683,296.489087 181.908039,295.263889 C182.877579,294.374008 185.359602,295.354167 188.772383,297.572421 C192.185164,299.790675 196.03747,303.672619 197.291408,303.724206 C199.876848,303.78869 213.334065,301.609127 213.993352,298.655754 C214.303605,297.224206 203.651591,294.889881 203.651591,294.889881" id="Path" fill="#275937" fill-rule="nonzero"></path>
                <rect id="Rectangle" fill="#545454" fill-rule="nonzero" x="60" y="296" width="80" height="4"></rect>
                <path d="M69,300 C64.581722,300 61,303.581722 61,308 C61,312.418278 64.581722,316 69,316 C73.418278,316 77,312.418278 77,308 C77,303.581722 73.418278,300 69,300" id="Path" fill="#020203" fill-rule="nonzero"></path>
                <path d="M130,300 C125.581722,300 122,303.581722 122,308 C122,312.418278 125.581722,316 130,316 C134.418278,316 138,312.418278 138,308 C138,303.581722 134.418278,300 130,300" id="Path" fill="#020203" fill-rule="nonzero"></path>
                <path d="M130.473097,303 C127.440824,303.014854 124.992609,305.481102 125,308.513412 C125.007425,311.545722 127.467661,314 130.49997,314 C133.53228,314 135.99255,311.545798 136,308.513489 C136,307.048892 135.417279,305.644477 134.380395,304.610113 C133.343511,303.575749 131.937685,302.996444 130.473097,303" id="Path" fill="#323D40" fill-rule="nonzero"></path>
                <rect id="Rectangle" fill="#545454" fill-rule="nonzero" x="60" y="297" width="80" height="1"></rect>
                <path d="M68.4865526,303 C65.4507482,303.007423 62.9950621,305.473137 63,308.508951 C63.0049528,311.544765 65.468659,314.002466 68.5044716,314 C71.5402842,313.99753 74,311.535826 74,308.5 C73.9852317,305.463331 71.5232524,303.007353 68.4865526,303" id="Path" fill="#323D40" fill-rule="nonzero"></path>
                <rect id="Rectangle" fill="#545454" fill-rule="nonzero" x="98" y="226" width="12" height="70"></rect>
                <rect id="Rectangle" fill="#545454" fill-rule="nonzero" x="98" y="225" width="12" height="70"></rect>
                <path d="M141.62774,187.285047 C142.079322,191.371495 138.427958,220.811916 137.757036,224.422897 C136.350681,231.272196 138.002181,239.033879 136.170048,245.66472 C134.337915,252.295561 130.531722,263.218458 129.047953,270.080607 C128.984016,270.324969 128.984016,270.581573 129.047953,270.825935 C129.186028,271.142575 129.439663,271.39519 129.757582,271.53271 C136.286169,275.490654 146.9048,279.795561 152.491516,285 L160.168412,246.859813 L170,200.598131 L163.097245,186 L141.62774,187.285047 Z" id="Path" fill="#39870C" fill-rule="nonzero"></path>
                <path d="M18.7538085,93 C18.7538085,93 19.3477586,85.9149798 26,83.877193 L17.354726,83 C17.354726,83 15.9424446,86.9676113 18.7538085,93 Z" id="Path" fill="#275937" fill-rule="nonzero"></path>
                <path d="M24.0880428,79 C24.0880428,79 17.0600833,80.0438437 16,81.7241775 C16,81.7241775 31.9666865,89.1583817 38,97 C38,97.0381289 33.1052945,79 24.0880428,79 Z" id="Path" fill="#59A121" fill-rule="nonzero"></path>
                <path d="M63,80.6198126 C70.2951123,82.0522088 71.8107958,89 71.8107958,89 C74.2613869,82.7884873 72.1649275,79 72.1649275,79 L63,80.6198126 Z" id="Path" fill="#1E3C11" fill-rule="nonzero"></path>
                <path d="M63.9389701,79 C55.2167832,79.708 52,97 52,97 C57.1748252,89.128 72,80.908 72,80.908 C70.8302606,79.432 63.9389701,79 63.9389701,79 Z" id="Path" fill="#55B025" fill-rule="nonzero"></path>
                <path d="M65,96 C65,99.8734177 56.7278571,103 46.5,103 C36.2721429,103 28,99.8734177 28,96 C28,92.1265823 36.2721429,89 46.5,89 C56.7278571,89 65,92.1392405 65,96 Z" id="Path" fill="#713F1D" fill-rule="nonzero"></path>
                <path d="M68.6511965,49.6713858 C62.0203046,65.2023928 58,98 58,98 C58,98 69.369108,73.29332 72.5018129,63.2370887 C75.6345178,53.1808574 76,34 76,34 C76,34 75.2820885,34.1276171 68.6511965,49.6713858 Z" id="Path" fill="#419023" fill-rule="nonzero"></path>
                <path d="M34.0585,53.4594348 C34.7175528,83.4247949 50.6155203,95 50.6155203,95 C57.3405488,83.3226983 37.3806641,11 37.3806641,11 C37.3806641,11 33.4801475,23.532361 34.0585,53.4594348 Z" id="Path" fill="#55B025" fill-rule="nonzero"></path>
                <path d="M49.2981502,23.6766449 C47.3249264,3.3152967 42.2603188,-0.347184794 43.6415754,3.18723791 C45.022832,6.72166061 40.7606687,27.9410027 41.0106104,51.9264148 C41.2605521,75.9118268 52.4026889,95.7993574 52.4026889,95.7993574 C52.4026889,95.7993574 59.5589137,99.1801096 59.9667133,94.5956048 C60.5060611,88.4743944 54.3232933,72.6335217 53.5734683,58.8928131 C52.8104885,44.895987 51.2845287,44.0251872 49.2981502,23.6766449 Z" id="Path" fill="#39870C" fill-rule="nonzero"></path>
                <path d="M68.3928876,24.1920969 C70.5404302,4.00663614 66.245345,-0.50301682 66.9523,3.15551854 C67.659255,6.8140539 59.0824233,26.7073399 54.5339013,50.1575353 C49.9853793,73.6077307 57.0015745,95 57.0015745,95 C57.0015745,95 61.990276,83.0081341 65.5650675,59.2784672 C67.5925611,45.4954434 66.2586837,44.3648543 68.3928876,24.1920969 Z" id="Path" fill="#419023" fill-rule="nonzero"></path>
                <path d="M56.1423491,13 C56.1423491,13 48.6622005,25.2857143 47.9206901,44.3116883 C47.1791797,63.3376623 45.5140336,87.038961 50.0281407,99 C50.0281407,99 50.3663735,86.974026 54.2950776,76.9220779 C58.2237817,66.8701299 58.5229876,40.5454545 57.4952803,31.961039 C56.4675729,23.3766234 56.1423491,13 56.1423491,13 Z" id="Path" fill="#55B025" fill-rule="nonzero"></path>
                <path d="M19,44 C19,44 27.0215475,82.7217583 45,97 C45,97 43.3320274,74.5218566 36.4691479,66.2308448 C29.6062684,57.939833 19,44 19,44 Z" id="Path" fill="#39870C" fill-rule="nonzero"></path>
                <path d="M29.5794581,50.3833804 C31.7087726,69.3159845 46,104 46,104 C46,104 43.3873442,73.4373677 40.9053211,61.7944601 C38.4232981,50.1515526 28.0902442,31 28.0902442,31 C28.0902442,31 27.4501435,31.4507763 29.5794581,50.3833804 Z" id="Path" fill="#55B025" fill-rule="nonzero"></path>
                <path d="M39.3682358,96 C43.851944,84.0833333 23,70 23,70 C23.7697933,90.0287698 39.3682358,96 39.3682358,96 Z" id="Path" fill="#55B025" fill-rule="nonzero"></path>
                <path d="M31.8225799,84.3676493 C31.8225799,84.3676493 24.5648613,83.3542419 23,84.6924594 C23,84.6924594 36.4901833,96.5675156 39.9841407,106 C39.9841407,106 40.739591,86.9661299 31.8225799,84.3676493 Z" id="Path" fill="#34681B" fill-rule="nonzero"></path>
                <path d="M20.2985874,93 C20.2985874,93 23.9632638,85.4371301 31,82.5188488 C31,82.5188488 22.9878747,81.1487637 21.8870783,82.8613701 C21.0231622,84.162951 19.3092641,86.2865829 20.2985874,93 Z" id="Path" fill="#55B025" fill-rule="nonzero"></path>
                <path d="M47.7871645,78.5157254 C47.7871645,78.5157254 57.3507949,76.8153316 60,79.5896583 C60,79.5896583 43.6676506,81.9548677 45.0452373,121 C45.0319913,120.936075 36.6340111,83.3100688 47.7871645,78.5157254 Z" id="Path" fill="#34681B" fill-rule="nonzero"></path>
                <path d="M60.7474685,122 L32.2902731,122 C30.2102895,112.333333 28.1135318,102.666667 26,93 L67,93 C64.9200164,102.666667 62.8358392,112.333333 60.7474685,122 Z" id="Path" fill="#E17538" fill-rule="nonzero"></path>
                <path d="M48,93 L26,93 C28.200891,102.666667 30.4285136,112.333333 32.6828676,122 L48,122 L48,93 Z" id="Path" fill="#C76221" fill-rule="nonzero"></path>
                <path d="M26,94.0509978 C27.5950041,101.700665 29.1984029,109.350333 30.8101966,117 C38.1640049,105.601996 52.2168305,99.2272727 65.8415233,99.5332594 C66.2318796,97.6845898 66.6222359,95.8359202 67,94 L26,94.0509978 Z" id="Path" fill="#C4C2B8" fill-rule="nonzero"></path>
                <rect id="Rectangle" fill="#E17538" fill-rule="nonzero" x="25" y="93" width="43" height="6"></rect>
                <rect id="Rectangle" fill="#C76221" fill-rule="nonzero" x="25" y="93" width="23" height="6"></rect>
                <path d="M65.9540672,98 C65.9540672,98 58.3403835,83.9089128 48,78.2473153 C48,78.2473153 59.6708023,75.3032846 61.738879,78.4611979 C65.0846846,80.4490477 66.2570339,85.2928589 65.9540672,98 Z" id="Path" fill="#6BBA20" fill-rule="nonzero"></path>
                <polygon id="Path" fill="#3E3E3E" fill-rule="nonzero" points="361 135 361 123 0 123 0.283288746 135"></polygon>
                <path d="M224.820467,122.681585 L223.603469,119.914219 C222.148362,118.504429 213.80134,114.0662 213.80134,114.0662 L213.80134,114.0662 L211.698049,96.1827506 L189.805305,96 L187.437449,114.079254 L187.437449,114.079254 C187.437449,114.079254 179.011058,118.582751 177.529494,119.966434 L176.20667,122.694639 C175.690768,123.177622 176.20667,124 177.026821,124 L223.97386,124 C224.794011,124 225.296684,123.190676 224.807239,122.694639" id="Path" fill="#545D5F" fill-rule="nonzero"></path>
                <polygon id="Path" fill="#303739" fill-rule="nonzero" points="214.232179 104.691751 202.092668 102 189.886965 104.445731 189 112 215 112"></polygon>
                <rect id="Rectangle" fill="#545D5F" fill-rule="nonzero" x="122" y="8" width="158" height="100" rx="2.83"></rect>
                <rect id="Rectangle" fill="#FFFFFF" fill-rule="nonzero" x="125" y="13" width="149" height="89"></rect>
                <polygon id="Path" fill="#2650A2" fill-rule="nonzero" points="206.875576 25 198 25 198.110599 12 207 12"></polygon>
                <line x1="137.495" y1="80" x2="137.505" y2="79" id="Path" fill="#BBB9AE" fill-rule="nonzero"></line>
                <line x1="137.495" y1="84" x2="137.505" y2="83" id="Path" fill="#BBB9AE" fill-rule="nonzero"></line>
                <path d="M297.706256,117.452149 L297.706256,117.452149 C297.706256,117.348157 297.566139,117.257165 297.489712,117.153174 C297.312874,116.98558 297.116002,116.841452 296.903769,116.724209 L295.821048,116.139257 C295.048415,115.710059 294.299953,115.237023 293.579178,114.722375 C292.305389,113.81245 289.872451,112.031597 289.75781,110.575717 C289.73293,109.948273 290.061776,109.361549 290.604354,109.065321 C291.146933,108.769093 291.807711,108.815518 292.305389,109.184832 C293.005973,109.626796 293.413586,110.562718 294.11417,111.069677 C296.661749,112.889526 296.126757,108.807864 295.247842,107.754951 C294.29015,106.755445 293.00888,106.145574 291.643018,106.039092 C288.229263,105.662124 286.815357,108.079924 287.019163,110.341737 C287.222969,112.60355 288.993536,114.462396 290.840531,115.98327 C291.768627,116.716377 292.752568,117.37274 293.782985,117.946108 C294.751571,118.652424 295.917316,119.021621 297.107575,118.999021 C297.472556,119.010296 297.805267,118.786783 297.939402,118.440204 C298.073537,118.093626 297.980284,117.698427 297.706256,117.452149 L297.706256,117.452149 Z" id="Path" fill="#CA005D" fill-rule="nonzero"></path>
                <path d="M297.952096,122.948026 L296.203959,116.217381 C295.077382,112.228369 293.821313,109.122916 292.966668,105.445749 C292.733583,104.484228 292.4746,103.535701 292.241515,102.57418 C292.03355,101.85325 291.95894,101.100193 292.021379,100.352288 C292.202668,99.0529355 292.850126,97.974473 293.834262,98.00046 L318.165738,98.00046 C319.318213,98.00046 319.797332,99.0919161 319.978621,100.352288 C320.04106,101.100193 319.96645,101.85325 319.758485,102.57418 C319.5254,103.535701 319.253468,104.484228 319.033332,105.445749 C318.178687,109.122916 316.922618,112.228369 315.796041,116.217381 L314.047904,123 L297.952096,122.948026 Z" id="Path" fill="#DA4C8E" fill-rule="nonzero"></path>
                <path d="M310.154639,91.6301689 C310.301035,90.4420716 310.745932,89.346334 311.42268,88.5071103 C312.301278,87.3913191 312.857227,85.9297948 313,84.3605283 C312.851605,82.7879007 312.288226,81.3259564 311.402062,80.2139463 C311.176838,79.9286846 310.812853,79.9286846 310.587629,80.2139463 C310.370269,80.4990325 310.370269,80.9523836 310.587629,81.2374697 C311.266202,82.0749698 311.711435,83.1715329 311.85567,84.3605283 C311.711435,85.5495237 311.266202,86.6460868 310.587629,87.4835869 C309.708574,88.6005169 309.149507,90.0606935 309,91.6301689 C309.150379,93.2031359 309.709141,94.6671343 310.587629,95.7898729 C310.696937,95.9283199 310.845832,96.0041278 311,95.9998264 C311.150833,96.0020654 311.295923,95.9263005 311.402062,95.7898729 C311.620695,95.5003537 311.620695,95.0427467 311.402062,94.7532274 C310.728587,93.9143545 310.290305,92.8170676 310.154639,91.6301689 L310.154639,91.6301689 Z" id="Path" fill="#D9D9D9" fill-rule="nonzero"></path>
                <path d="M307.14433,91.6296596 C307.287896,90.4430447 307.729097,89.3473666 308.402062,88.5062093 C309.292307,87.3978098 309.856433,85.9337443 310,84.3591072 C309.856433,82.7844701 309.292307,81.3204047 308.402062,80.2120052 C308.180009,79.9293316 307.819991,79.9293316 307.597938,80.2120052 C307.375886,80.4946788 307.375886,80.9529833 307.597938,81.235657 C308.27334,82.0745289 308.714984,83.171308 308.85567,84.3591072 C308.714984,85.5469065 308.27334,86.6436855 307.597938,87.4825575 C306.714441,88.59715 306.151545,90.0580247 306,91.6296596 C306.15243,93.2047735 306.715016,94.6694633 307.597938,95.7898853 C307.704077,95.92633 307.849167,96.0021044 308,96 C308.151062,96.0036491 308.296612,95.9276346 308.402062,95.7898853 C308.626176,95.5031742 308.626176,95.039821 308.402062,94.7531098 C307.724801,93.9159867 307.282815,92.8183596 307.14433,91.6296596 L307.14433,91.6296596 Z" id="Path" fill="#D9D9D9" fill-rule="nonzero"></path>
                <path d="M300.14433,91.6315422 C300.287896,90.4447353 300.729097,89.3488798 301.402062,88.5075863 C302.292307,87.3990074 302.856433,85.9347049 303,84.3598129 C302.856433,82.7849209 302.292307,81.3206185 301.402062,80.2120395 C301.180009,79.9293202 300.819991,79.9293202 300.597938,80.2120395 C300.375886,80.4947589 300.375886,80.9531376 300.597938,81.235857 C301.27334,82.0748648 301.714984,83.1718214 301.85567,84.3598129 C301.714984,85.5478045 301.27334,86.6447611 300.597938,87.4837688 C299.714441,88.5985417 299.151545,90.0596529 299,91.6315422 C299.15243,93.2069112 299.715016,94.6718381 300.597938,95.7924415 C300.821914,96.0691862 301.178086,96.0691862 301.402062,95.7924415 C301.626176,95.5056839 301.626176,95.0422558 301.402062,94.7554982 C300.724801,93.9182395 300.282815,92.8204347 300.14433,91.6315422 L300.14433,91.6315422 Z" id="Path" fill="#D9D9D9" fill-rule="nonzero"></path>
                <polygon id="Path" fill="#303739" fill-rule="nonzero" points="137.149028 120 238.721382 120 242 123 134 123"></polygon>
                <polygon id="Path" fill="#545D5F" fill-rule="nonzero" points="219.240576 121 137.673307 121 136 122 220 122"></polygon>
                <polygon id="Path" fill="#545D5F" fill-rule="nonzero" points="239.770349 121 223 121 223.850291 122 241 122"></polygon>
                <polygon id="Path" fill="#1C1A1C" fill-rule="nonzero" points="135.231102 122.735 239.771058 122.735 242 122.265 134 122.265"></polygon>
                <path d="M221,124.775804 C221,129.074732 198,129.074732 198,124.775804 C198,120.476876 203.156951,117 209.5,117 C215.843049,117 221,120.490352 221,124.775804 Z" id="Path" fill="#303739" fill-rule="nonzero"></path>
                <path d="M178,120.145805 L199.07513,112 L212.507772,113.980743 C214.139896,114.215956 216.989637,117.100413 218,118.363136 L202.818653,121.977992 L184.683938,130 L178,120.145805 Z" id="Path" fill="#E97552" fill-rule="nonzero"></path>
                <g id="Group" opacity="0.8" transform="translate(143.000000, 78.000000)" fill-rule="nonzero">
                    <ellipse id="Oval" fill="#949494" cx="9.25933333" cy="9.24428571" rx="8.626" ry="8.75571429"></ellipse>
                    <path d="M7.01733333,4.55142857 L12.198,4.55142857 L12.4386667,5.83714286 C12.0443208,6.8956353 11.3248578,7.79721793 10.3866667,8.40857143 L10.3866667,8.40857143 C11.6356964,8.60083566 12.5542809,9.69777418 12.54,10.98 C12.54,12.8828571 10.7413333,14.2842857 8.00533333,14.2585714 L6.802,14.2585714 L6.802,12.9857143 L7.98,12.9857143 C9.79133333,12.9857143 10.83,12.2914286 10.8426667,11.16 C10.8426667,10.4014286 10.26,9.74571429 9.196,9.50142857 C8.68018054,9.75017954 8.13540216,9.931623 7.57466667,10.0414286 L7.28333333,8.75571429 C8.81552633,8.44430624 10.1303526,7.45396847 10.868,6.05571429 L6.992,6.05571429 L7.01733333,4.55142857 Z" id="Path" fill="#FFFFFF"></path>
                </g>
                <path d="M81.2747505,73.0376829 C77.0172627,71.7470797 77.5607718,70.8694696 73.3938689,75.4123927 C69.226966,79.9553158 67.4670318,86.5632039 65.7718012,90.3059531 C62.6401536,97.236492 58.8485308,103.77985 55.5357136,110.529705 C50.6700133,120.222134 49.8935717,128.185156 49.000664,139.271437 C48.871257,141.039563 67.6999643,139.077846 68.7999231,138.729383 C71.2715954,137.92921 80.33008,118.763753 82.3229466,110.723295 C84.3158132,102.682837 81.2747505,73.0376829 81.2747505,73.0376829 Z" id="Path" fill="#A90061" fill-rule="nonzero"></path>
                <path d="M142.230733,34.4065563 C146.700286,24.0025131 148.9612,18.1762489 138.702139,9.57990814 C135.201473,7.14669998 131.462113,5.07264349 127.541326,3.38950242 C107.454476,-2.1766607 101.887138,9.81399911 98.2931996,24.5227152 C94.9998449,38.0609765 98.4761637,48.2829489 103.337783,53.6670413 L99.6000863,66.3989892 L126.312852,69 C126.312852,69 126.312852,59.8964622 128.521491,56.1510066 C132.886492,56.5151481 134.65079,57.8286586 141.773323,40.0897649 C142.309146,38.8022645 141.694909,35.6550415 142.230733,34.4065563 Z" id="Path" fill="#FB9E57" fill-rule="nonzero"></path>
                <path d="M125.775432,67.3970117 C128.775641,69.6260129 148.458044,77.4018961 148.729615,77.5556203 C150.889248,78.8366555 139.276371,110.670379 143.41459,120.752125 C140.647156,125.876266 133.069043,157.338488 135.888204,176.758981 C136.082183,178.104068 70,180 70,180 C71.8363346,165.908614 81.3671701,117.677641 78.8583749,105.699962 C75.5348678,89.8151266 74.2546063,76.2361541 75.3538207,74.6604809 C78.0177992,70.8173755 80.2291599,70.6252203 87.1736085,66.6027699 C94.1180571,62.5803196 125.775432,67.3970117 125.775432,67.3970117 Z" id="Path" fill="#A90061" fill-rule="nonzero"></path>
                <path d="M108.085126,3.54511581 C114.978931,-0.940993648 126.624399,-1.01923974 133.141707,2.46271149 C139.659014,5.94466273 150.850088,12.778155 141.294833,32.6787452 C131.051495,54.0399292 116.056494,53.0879351 111.019212,52.9575249 C101.931333,52.6054175 98.8544371,48.5887846 98.8544371,48.5887846 C98.8544371,48.5887846 85.6640297,18.0597665 108.085126,3.54511581 Z" id="Path" fill="#673327" fill-rule="nonzero"></path>
                <path d="M100.844844,33.1491436 C105.022693,31.3130955 107.90541,42.8857627 108.364973,45 C118.893155,38.4903747 113.253057,27.3210816 103.045178,29.2127676 C101.480956,29.4523438 100.076865,30.3047913 99.14375,31.5813894 C98.2106354,32.8579875 97.8254745,34.4534246 98.0735368,36.0144915 L100.844844,33.1491436 Z" id="Path" fill="#51211B" fill-rule="nonzero"></path>
                <path d="M99.1179306,31.7214295 C95.5548833,34.0654185 87.9753098,44.6648854 89.9317467,58.0204713 C91.8881836,71.3760572 91.6031398,85.774847 83,93 C93.0542718,89.0461284 92.7821846,76.5019233 92.7821846,76.5019233 L90.3463558,90.1279695 C90.3463558,90.1279695 96.9412326,79.2451632 98.0166251,74.3253621 C98.3923646,76.4890443 97.3687983,82.5164446 93.7150552,85.5172658 C93.7150552,85.5172658 107.617418,77.3905785 107.345331,62.8114819 C107.267592,58.162141 105.971938,52.3021684 106.477243,49.1467985 C108.187506,38.212476 112.955511,38.405662 110.11803,33.949507 C106.308808,28.0380181 101.670368,30.0729097 99.1179306,31.7214295 Z" id="Path" fill="#673327" fill-rule="nonzero"></path>
                <path d="M136.022378,3.23132969 C133.521206,2.10928962 130.288307,1 130.288307,1 C133.680855,1.86703097 146.253239,13.7504554 133.055562,26.7941712 C136.780713,27.6867031 141.157765,15.4335155 141.157765,15.4335155 C141.157765,15.4335155 139.162149,26.6921676 130.514477,29.8925319 C133.734072,29.8287796 137.459222,27.0619308 140.093436,23.5173042 C137.732647,28.6540411 133.403395,32.7255337 128,34.8907104 C136.142115,36.2677596 145.681163,24.2823315 145.987157,18.6083789 C146.255125,12.0130541 142.309762,5.92480608 136.022378,3.23132969 L136.022378,3.23132969 Z" id="Path" fill="#51211B" fill-rule="nonzero"></path>
                <path d="M153.962884,86 C153.962884,86 154.089617,88.4784961 154.14031,89.7111171 C154.146239,89.7372625 154.146239,89.7644957 154.14031,89.7906411 C155.116154,106.636462 157.346655,119.78442 154.875361,135 L126.601225,133.674601 C126.594197,133.617402 126.594197,133.559498 126.601225,133.502299 C126.461818,132.1769 126.347759,130.851501 126.284392,129.433324 C126.157659,127.564512 126.081619,125.642683 126.043599,123.694347 C125.92954,118.578307 126.043599,113.236949 126.335085,107.789559 C126.335085,106.941304 126.436472,106.106302 126.499838,105.271301 L126.664591,101.719232 L127.222217,87.9880985 L153.962884,86 Z" id="Path" fill="#B21971" fill-rule="nonzero"></path>
                <ellipse id="Oval" fill="#B21971" fill-rule="nonzero" transform="translate(140.359799, 131.956115) rotate(-60.620000) translate(-140.359799, -131.956115) " cx="140.359799" cy="131.956115" rx="14.4579242" ry="14.4835434"></ellipse>
                <ellipse id="Oval" fill="#B21971" fill-rule="nonzero" transform="translate(140.183072, 88.640135) rotate(-21.000000) translate(-140.183072, -88.640135) " cx="140.183072" cy="88.6401348" rx="13.6390566" ry="13.6045001"></ellipse>
                <ellipse id="Oval" fill="#B21971" fill-rule="nonzero" transform="translate(138.417002, 134.116180) rotate(-7.250000) translate(-138.417002, -134.116180) " cx="138.417002" cy="134.11618" rx="11.7245466" ry="11.6858616"></ellipse>
                <polygon id="Path" fill="#B21971" fill-rule="nonzero" points="183.0081 118 185.817089 131.290498 186 132.139367 140.442122 146 136 123.333937"></polygon>
                <path d="M133,145.094561 C133,145.094561 141.298419,150.853628 161.016798,146.155442 C173.605731,143.165686 185,131 185,131 L133,145.094561 Z" id="Path" fill="#B21971" fill-rule="nonzero"></path>
                <line x1="167" y1="77.22" x2="241" y2="77.78" id="Path" stroke="#B3B3B3" stroke-width="1.78"></line>
                <line x1="167" y1="85.225" x2="241" y2="85.775" id="Path" stroke="#B3B3B3" stroke-width="1.78"></line>
                <line x1="167" y1="91.22" x2="241" y2="91.78" id="Path" stroke="#B3B3B3" stroke-width="1.78"></line>
                <g id="Group" opacity="0.8" transform="translate(144.000000, 26.000000)" fill-rule="nonzero">
                    <ellipse id="Oval" fill="#949494" cx="8.67733333" cy="9.2288" rx="8.626" ry="8.7168"></ellipse>
                    <path d="M6.34666667,6.0032 C7.16865263,5.75370075 8.02174927,5.62438926 8.88,5.6192 L9.792,5.6192 L9.72866667,12.8768 L8.09466667,12.8768 L8.09466667,7.1424 C7.47103459,7.13132506 6.84772248,7.17845843 6.23266667,7.2832 L6.34666667,6.0032 Z" id="Path" fill="#FFFFFF"></path>
                </g>
                <g id="Group" opacity="0.8" transform="translate(144.000000, 48.000000)" fill-rule="nonzero">
                    <ellipse id="Oval" fill="#949494" cx="9.51266667" cy="9.07714286" rx="8.626" ry="8.75571429"></ellipse>
                    <path d="M6.878,5.67 C7.61731009,5.46733785 8.37954039,5.36360255 9.14533333,5.36142857 C11.0453333,5.36142857 12.008,6.27428571 11.9953333,7.68857143 C11.9287094,8.77734779 11.1925327,9.70496481 10.1586667,10.0028571 L9.22133333,10.3885714 C8.77465869,10.5651752 8.38153564,10.8578006 8.08133333,11.2371429 L8.08133333,11.2371429 L12.388,11.2371429 L12.388,12.7157143 L6.688,12.7157143 L6.44733333,11.43 C6.73549835,10.5086866 7.40666287,9.76165278 8.284,9.38571429 L9.29733333,8.85857143 C10.0573333,8.47285714 10.3233333,8.17714286 10.3233333,7.71428571 C10.3233333,7.25142857 9.842,6.89142857 8.93,6.87857143 C8.23689613,6.87020346 7.5460932,6.96109858 6.878,7.14857143 L6.878,5.67 Z" id="Path" fill="#FFFFFF"></path>
                </g>
                <line x1="167" y1="45.255" x2="241" y2="45.745" id="Path" stroke="#B3B3B3" stroke-width="1.64"></line>
                <line x1="167" y1="37.255" x2="241" y2="37.745" id="Path" stroke="#B3B3B3" stroke-width="1.64"></line>
                <line x1="167" y1="65.255" x2="241" y2="65.745" id="Path" stroke="#B3B3B3" stroke-width="1.64"></line>
                <line x1="167" y1="57.26" x2="241" y2="57.74" id="Path" stroke="#B3B3B3" stroke-width="1.64"></line>
                <path d="M256.729449,37.3135401 C256.64001,36.7780634 256.224345,36.3564694 255.690666,36.2599418 C252.570222,35.9133527 249.421057,35.9133527 246.300614,36.2599418 C245.766935,36.3564694 245.351269,36.7780634 245.261831,37.3135401 C245.07169,38.8705037 244.984934,40.43838 245.002135,42.0068415 C244.984934,43.5753031 245.07169,45.1431794 245.261831,46.700143 C245.348805,47.2342774 245.767061,47.6529892 246.300614,47.7400582 C249.421057,48.0866473 252.570222,48.0866473 255.690666,47.7400582 C256.224218,47.6529892 256.642474,47.2342774 256.729449,46.700143 C256.919589,45.1431794 257.006345,43.5753031 256.989144,42.0068415 C257.032561,40.4379076 256.945697,38.8680746 256.729449,37.3135401 L256.729449,37.3135401 Z" id="Path" fill="#69B921" fill-rule="nonzero"></path>
                <path d="M252.890756,39.0815166 C252.771829,38.9728278 252.588783,38.9728278 252.469857,39.0815166 L250.625919,41.1998672 L249.523565,40.2053364 C249.40616,40.1026217 249.230092,40.1026217 249.112687,40.2053364 C248.995072,40.3076851 248.965804,40.4778158 249.042537,40.613094 L250.395427,42.8507883 C250.452459,42.9447398 250.555494,43.0015468 250.666004,43 L250.666004,43 C250.776515,43.0015468 250.87955,42.9447398 250.936582,42.8507883 L252.940863,39.4892743 C253.036111,39.3617657 253.01409,39.1825712 252.890756,39.0815166 L252.890756,39.0815166 Z" id="Path" fill="#FFFFFF" fill-rule="nonzero"></path>
                <path d="M256.729553,57.299857 C256.642562,56.7657226 256.224224,56.3470108 255.690568,56.2599418 C252.569518,55.9133527 249.419741,55.9133527 246.298691,56.2599418 C245.765035,56.3470108 245.346697,56.7657226 245.259706,57.299857 C244.913431,60.4191268 244.913431,63.5671901 245.259706,66.6864599 C245.349162,67.2219366 245.764909,67.6435306 246.298691,67.7400582 C249.419741,68.0866473 252.569518,68.0866473 255.690568,67.7400582 C256.224351,67.6435306 256.640097,67.2219366 256.729553,66.6864599 C256.919731,65.1294963 257.006503,63.56162 256.989299,61.9931585 C257.032346,60.4242297 256.945467,58.854428 256.729553,57.299857 Z" id="Path" fill="#69B921" fill-rule="nonzero"></path>
                <path d="M252.889821,60.0813151 C252.770891,59.972895 252.587838,59.972895 252.468908,60.0813151 L250.624907,62.1249837 L249.522516,61.1329116 C249.403537,61.0346478 249.230602,61.0346478 249.111624,61.1329116 C248.995592,61.2316772 248.966218,61.3978373 249.041472,61.5297404 L250.394407,63.8511892 C250.454139,63.9420948 250.555468,63.9978214 250.664994,64 L250.664994,64 C250.774521,63.9978214 250.87585,63.9420948 250.935581,63.8511892 L252.93993,60.4979854 C253.036401,60.3676323 253.014511,60.185605 252.889821,60.0813151 L252.889821,60.0813151 Z" id="Path" fill="#FFFFFF" fill-rule="nonzero"></path>
                <path d="M256.729704,81.299857 C256.642712,80.7657226 256.22437,80.3470108 255.690706,80.2599418 C252.569616,79.9133527 249.419798,79.9133527 246.298708,80.2599418 C245.765045,80.3470108 245.346702,80.7657226 245.25971,81.299857 C244.91343,84.4191268 244.91343,87.5671901 245.25971,90.6864599 C245.349167,91.2219366 245.764918,91.6435306 246.298708,91.7400582 C249.419798,92.0866473 252.569616,92.0866473 255.690706,91.7400582 C256.224496,91.6435306 256.640247,91.2219366 256.729704,90.6864599 C256.919885,89.1294963 257.006658,87.56162 256.989454,85.9931585 C257.032127,84.424235 256.945248,82.8544643 256.729704,81.299857 L256.729704,81.299857 Z" id="Path" fill="#69B921" fill-rule="nonzero"></path>
                <path d="M252.889821,84.0813151 C252.770891,83.972895 252.587838,83.972895 252.468908,84.0813151 L250.624907,86.1249837 L249.522516,85.1329116 C249.403537,85.0346478 249.230602,85.0346478 249.111624,85.1329116 C248.995592,85.2316772 248.966218,85.3978373 249.041472,85.5297404 L250.394407,87.8511892 C250.454139,87.9420948 250.555468,87.9978214 250.664994,88 L250.664994,88 C250.774521,87.9978214 250.87585,87.9420948 250.935581,87.8511892 L252.93993,84.4979854 C253.036401,84.3676323 253.014511,84.185605 252.889821,84.0813151 L252.889821,84.0813151 Z" id="Path" fill="#FFFFFF" fill-rule="nonzero"></path>
                <polygon id="Path" fill="#FFFFFF" points="240.196507 50.013947 240.353712 50 245.960699 56.0111576 246 56.5271967 243.668122 56.5411437 243.825328 57.0013947 244.834061 59.1771269 244.79476 59.4142259 244.349345 59.958159 243.707424 60 243.262009 59.553696 242.606987 57.8800558 242.135371 57.0292887 240.419214 58.8702929 240 58.8284519 240 50.097629"></polygon>
                <polygon id="Path" fill="#000000" fill-rule="nonzero" points="240.92 51.2256267 240.5 51.2256267 240.5 59.4011142 240.92 59.4011142 240.92 60 240.08 60 240.08 50 240.5 50 240.5 50.5849582 240.92 50.5849582 240.92 51.1699164"></polygon>
                <polygon id="Path" fill="#000000" fill-rule="nonzero" points="245 56.672 243.392344 56.672 243.392344 57 243 57 243 56.336 244.598086 56.336 244.598086 56 245 56"></polygon>
                <path d="M243.083133,60.3 L243.923133,60.3 C243.928112,60.3799225 243.928112,60.4600775 243.923133,60.54 L243.923133,60.7 L243.073133,60.7 L243.073133,60.3 L243.083133,60.3 Z" id="Path" fill="#000000" fill-rule="nonzero"></path>
                <polygon id="Path" fill="#000000" fill-rule="nonzero" points="243.29 58.915 243.29 58.085 243.71 58.085 243.71 58.915"></polygon>
                <polygon id="Path" fill="#000000" fill-rule="nonzero" points="242.705 58.92 242.295 58.92 242.295 58.08 242.705 58.08 242.705 58.89"></polygon>
                <polygon id="Path" fill="#000000" fill-rule="nonzero" points="243.705 57.91 243.295 57.91 243.295 57.08 243.705 57.08 243.705 57.92"></polygon>
                <polygon id="Path" fill="#000000" fill-rule="nonzero" points="242.295 57.085 242.705 57.085 242.705 57.915 242.295 57.915"></polygon>
                <path d="M243.705,52.71 L243.285,52.71 L243.285,52.51 C243.289985,52.4367514 243.289985,52.3632486 243.285,52.29 L243.715,52.29 L243.715,52.37 C243.715,52.48 243.715,52.6 243.715,52.71 L243.705,52.71 Z" id="Path" fill="#000000" fill-rule="nonzero"></path>
                <polygon id="Path" fill="#000000" fill-rule="nonzero" points="243.71 55.71 243.29 55.71 243.29 55.29 243.7 55.29 243.7 55.71"></polygon>
                <polygon id="Path" fill="#000000" fill-rule="nonzero" points="244.285 55.285 244.715 55.285 244.715 55.715 244.295 55.715 244.295 55.295"></polygon>
                <polygon id="Path" fill="#000000" fill-rule="nonzero" points="240.71 52.705 240.29 52.705 240.29 52.285 240.71 52.285 240.71 52.715"></polygon>
                <polygon id="Path" fill="#000000" fill-rule="nonzero" points="240.285 57.705 240.285 57.295 240.715 57.295 240.715 57.705"></polygon>
                <polygon id="Path" fill="#000000" fill-rule="nonzero" points="241.29 52.295 241.71 52.295 241.71 52.705 241.29 52.705 241.29 52.305"></polygon>
                <polygon id="Path" fill="#000000" fill-rule="nonzero" points="242.295 52.3 242.705 52.3 242.705 52.71 242.295 52.71 242.295 52.29"></polygon>
                <polygon id="Path" fill="#000000" fill-rule="nonzero" points="243.7 52.69 243.3 52.69 243.3 52.29 243.7 52.29 243.7 52.71"></polygon>
                <polygon id="Path" fill="#000000" fill-rule="nonzero" points="241.295 57.715 241.295 57.285 241.705 57.285 241.705 57.705 241.295 57.705"></polygon>
                <polygon id="Path" fill="#000000" fill-rule="nonzero" points="242.705 52.705 242.295 52.705 242.295 52.295 242.705 52.295"></polygon>
                <path d="M241.71,52.69 L241.29,52.69 L241.29,52.28 L241.7,52.28 L241.7,52.56 C241.7,52.62 241.7,52.67 241.7,52.72 L241.71,52.69 Z" id="Path" fill="#000000" fill-rule="nonzero"></path>
                <path d="M241.71,57.305 C241.71,57.405 241.71,57.505 241.71,57.605 L241.71,57.705 L241.29,57.705 L241.29,57.295 L241.71,57.295 L241.71,57.305 Z" id="Path" fill="#000000" fill-rule="nonzero"></path>
                <circle id="Oval" fill="#D52B1E" fill-rule="nonzero" cx="266" cy="42" r="6"></circle>
                <path d="M267.37285,39.0977175 L265.994715,40.3083469 L264.606218,39.0977175 C264.466538,38.9674275 264.248525,38.9674275 264.108846,39.0977175 C263.971836,39.233844 263.971836,39.4540504 264.108846,39.5901769 L265.331552,40.9649594 L264.108846,42.3294823 C264.016297,42.4192844 263.979165,42.5511515 264.011437,42.6754106 C264.043709,42.7996697 264.140483,42.8974429 264.265304,42.9318999 C264.390125,42.9663569 264.524031,42.9322629 264.61658,42.8424608 L266.005077,41.6318315 L267.37285,42.8937587 C267.515918,43.0354138 267.747878,43.0354138 267.890946,42.8937587 C268.034014,42.7521036 268.034014,42.5224353 267.890946,42.3807801 L266.668239,41.0162572 L267.901308,39.6004365 C268.032897,39.4621365 268.032897,39.2462771 267.901308,39.1079771 C267.756312,38.9811187 267.53857,38.9811187 267.393574,39.1079771" id="Shape" fill="#FFFFFF" fill-rule="nonzero"></path>
                <circle id="Oval" fill="#D52B1E" fill-rule="nonzero" cx="266" cy="63" r="6"></circle>
                <path d="M267.36722,61.1029194 L265.987649,62.3275562 L264.597706,61.1029194 C264.460078,60.9656935 264.237444,60.9656935 264.099816,61.1029194 C263.966728,61.2462807 263.966728,61.4680938 264.099816,61.6114551 L265.323796,62.9917661 L264.099816,64.3824553 C263.966728,64.5258166 263.966728,64.7476297 264.099816,64.890991 C264.237444,65.0282169 264.460078,65.0282169 264.597706,64.890991 L265.987649,63.6663541 L267.36722,64.890991 C267.507572,65.034285 267.737451,65.0366083 267.880669,64.89618 C268.023886,64.7557518 268.026208,64.5257495 267.885855,64.3824553 L266.661875,62.9917661 L267.896228,61.6425899 C267.98702,61.5498948 268.02149,61.4157779 267.986653,61.2907597 C267.951816,61.1657414 267.852965,61.0688151 267.727335,61.0364919 C267.601706,61.0041686 267.468385,61.0413592 267.377592,61.1340543" id="Shape" fill="#FFFFFF" fill-rule="nonzero"></path>
                <circle id="Oval" fill="#D52B1E" fill-rule="nonzero" cx="266" cy="86" r="6"></circle>
                <path d="M267.367241,84.1072095 L265.995608,85.3288715 L264.613662,84.1072095 C264.471269,83.9671225 264.242713,83.9694401 264.103167,84.1123861 C263.963622,84.2553321 263.965931,84.4847758 264.108324,84.6248629 L265.325261,86.0018209 L264.108324,87.3787789 C263.965931,87.518866 263.963622,87.7483097 264.103167,87.8912557 C264.242713,88.0342017 264.471269,88.0365194 264.613662,87.8964323 L265.995608,86.6747703 L267.367241,87.8757261 C267.509634,88.0186722 267.740499,88.0186722 267.882892,87.8757261 C268.025285,87.7327801 268.025285,87.5010188 267.882892,87.3580728 L266.665955,85.9811148 L267.893205,84.6248629 C268.035598,84.4819169 268.035598,84.2501556 267.893205,84.1072095 C267.750812,83.9642635 267.519947,83.9642635 267.377554,84.1072095" id="Shape" fill="#FFFFFF" fill-rule="nonzero"></path>
                <rect id="Rectangle" fill="#545454" fill-rule="nonzero" x="322" y="135" width="9" height="157"></rect>
                <path d="M158,204.358205 C140.854542,205.647324 118.140694,206.719329 101.021135,205.389501 C101.111784,204.276787 100.943437,202.41774 101.021135,201.318596 C112.753602,201.020063 130.235753,200.382288 141.968219,200.097325 C145.859508,199.871197 149.762543,200.039337 153.622987,200.599403 C155.461851,200.925076 157.637407,201.874953 157.831653,203.910405 L158,204.358205 Z" id="Path" fill="#39870C" fill-rule="nonzero"></path>
                <path d="M102.451371,173.071168 C103.068379,172.504227 112.734845,175.506439 113.686067,175.648174 C128.340017,178.431341 133.4689,177.709779 145.526274,177.696894 C151.160542,177.52538 156.796978,177.957329 162.339754,178.985397 C164.51102,179.403632 166.619392,180.100882 168.612673,181.059887 C171.260668,182.4257 174.474253,183.095722 176.196735,185.762923 C177.390686,187.837185 178.106587,190.152908 178.291993,192.540449 C179.166088,198.982965 180.927133,203.119059 181.916918,209.510035 C182.671039,214.432116 183.395167,219.354198 184.089302,224.27628 C185.09194,231.543437 186.968675,238.875019 188.331235,246.039096 C188.331235,249.904605 189.848047,259.387988 190.490764,263.176187 C191.079794,267.158712 191.277842,271.189535 191.082064,275.210805 C191.038746,275.580102 191.096513,275.954253 191.249171,276.293148 C191.390568,276.550848 191.634801,276.731239 191.776199,276.976054 C191.900844,277.259244 191.949584,277.570144 191.917596,277.878007 C191.858879,279.154885 191.41015,280.382839 190.632162,281.39562 C190.529327,281.537355 190.400784,281.704861 190.47791,281.872366 C190.555036,282.039871 190.760706,282.078526 190.940666,282.104297 C191.950556,282.365341 192.776245,283.092534 193.164468,284.062821 C193.517435,285.512203 193.796309,286.978712 194,288.456617 C186.426273,288.342446 178.889836,289.541216 171.723424,292 C169.576749,277.826466 166.581687,252.855277 163.830858,238.681744 C161.864143,228.65719 154.537168,215.308298 156.889513,205.283745 C156.942223,204.939776 157.032755,204.602713 157.159454,204.278712 C149.356868,204.613723 140.80873,205.090469 133.17325,206.958798 C126.244759,208.685393 119.239143,210.115631 112.207817,211.275284 C106.818336,212.063991 101.39009,212.558646 95.9470736,212.757062 C91.8336839,213.079188 102.451371,173.084053 102.451371,173.071168 Z" id="Path" fill="#579930" fill-rule="nonzero"></path>
                <rect id="Rectangle" fill="#3E3E3E" fill-rule="nonzero" x="77" y="168" width="24" height="52" rx="4.5"></rect>
                <path d="M147.20104,205 L60.6134247,205 C55.1022453,205 49.345262,210.6 51.4410627,215.903226 C54.1578413,222.767742 55.1022453,225 60.6134247,225 L147.20104,225 C152.71222,225 154.10942,219.529032 155.532495,215.735484 C157.550673,210.23871 152.71222,205 147.20104,205 Z" id="Path" fill="#545454" fill-rule="nonzero"></path>
                <path d="M148.016173,215.837677 L61.9895958,215.30555 C56.4632909,215.30555 50.3416464,211.51577 52.412393,216.850016 C55.1302478,223.754685 56.0750259,226 61.5883886,226 L148.210305,226 C153.723668,226 155.121422,220.497031 156.54506,216.681293 C158.564038,211.204281 153.529536,215.837677 148.016173,215.837677 Z" id="Path" fill="#3E3E3E" fill-rule="nonzero"></path>
                <path d="M108.151438,114 L70.6060285,114.347826 C49.4964188,114.347826 44.0350336,133.671498 46.5785156,145.033816 C49.1219976,156.396135 55.0223595,175.243156 55.0223595,175.243156 C60.0835013,187.803543 63.2596261,193.497585 73.3173545,193.497585 L77.4618099,193.497585 C77.642565,193.665056 77.7974979,193.845411 77.978253,194 L107.376774,192.866345 C116.582371,192.582931 120.416961,183.230274 123.618907,172.138486 C123.618907,172.138486 129.803313,152.634461 131.68833,142.354267 C133.573347,132.074074 127.053254,114.888889 108.151438,114 Z" id="Path" fill="#787878" fill-rule="nonzero"></path>
            </g>
        </g>
    </g>
</svg>