<?xml version="1.0" encoding="UTF-8"?>
<svg width="1200px" height="400px" viewBox="0 0 1200 400" version="1.1" xmlns="http://www.w3.org/2000/svg" xmlns:xlink="http://www.w3.org/1999/xlink">
    <title>toolbox / datagedreven-werken / header-02-aandacht-voor-ethische-en-juridische-aspecten</title>
    <g id="toolbox-/-datagedreven-werken-/-header-02-aandacht-voor-ethische-en-juridische-aspecten" stroke="none" stroke-width="1" fill="none" fill-rule="evenodd">
        <g id="bg-hero-image-datagedreven-werken">
            <polygon id="wit" fill="#FFFFFF" points="0 400 1200 400 1200 0 0 0"></polygon>
            <rect id="Rectangle" fill="#FFFFFF" x="280" y="0" width="640" height="400"></rect>
            <polygon id="wit" fill="#FFFFFF" points="0 400 1200 400 1200 0 0 0"></polygon>
            <polygon id="grijs" fill="#DEDFDE" points="0 400 1200 400 1200 265 0 265"></polygon>
            <polygon id="blauw" fill="#93D5F6" points="0 400 1200 400 1200 265 0 265"></polygon>
        </g>
        <g id="toolbox-/-datagedreven-werken-/-02-aandacht-voor-ethische-en-juridische-aspecten" transform="translate(280.000000, 0.000000)">
            <rect id="Rectangle" fill-opacity="0.01" fill="#D8D8D8" x="0" y="0" width="640" height="400" rx="2"></rect>
            <g id="7176-ICTU-Toolbox_Aandacht-voor-ethische--en-juridische-aspecten" stroke-width="1" transform="translate(166.000000, 60.000000)">
                <path d="M222.705619,135.928316 C221.157809,135.37913 218.961394,135.534028 218.209601,133.80198 C217.841918,132.254838 217.959848,130.638481 218.548645,129.155021 C218.908078,127.48424 220.079804,126.077249 221.703228,125.367045 C222.956216,124.705205 224.268169,124.08561 225.565381,123.536424 C225.891783,123.399896 226.226523,123.282334 226.567772,123.184382 L226.892075,122.987238 L227.437493,122.874585 C227.83726,122.728303 228.202927,122.508189 228.513589,122.226827 C229.206418,121.550905 230.35622,122.536624 229.663391,123.212545 L229.501239,123.353362 C229.929749,123.579157 230.309832,123.880134 230.621558,124.240509 C231.506021,125.352963 230.621558,126.662561 230.179327,127.760933 C229.383311,129.450736 228.705223,131.126458 226.862593,131.985441 C226.012993,132.383623 225.093193,132.627164 224.150241,132.703608 L224.150241,132.703608 C224.048299,133.091909 223.64866,133.338208 223.236296,133.266876 C222.777805,133.158168 222.332982,133.002361 221.909602,132.80218 L222.381316,133.027487 L223.457412,133.393611 C223.794488,133.444177 224.058224,133.697854 224.108839,134.020194 C224.159454,134.342533 223.985239,134.658966 223.678528,134.80178 C224.164982,135.29464 223.516376,136.20995 222.72036,135.956479" id="Path" fill="#866552" fill-rule="nonzero"></path>
                <path d="M240.500745,266.655275 C243.14479,263.263102 250.798603,264.495301 254.291524,265.060664 C255.625517,265.256401 256.979262,265.256401 258.313255,265.060664 C258.869896,264.988181 261.667017,264.62577 261.680933,263.784974 C261.684929,262.869756 262.328929,262.094264 263.197779,261.95842 C262.995136,261.172319 263.277072,260.337301 263.907496,259.856432 L264.060573,259.725963 C264.603297,259.291069 263.740504,257.76894 264.311061,258.029877 C266.106228,258.812686 267.386502,263.582024 267.776151,265.11865 C268.833769,269.308129 265.939236,270.685293 263.378687,270.743279 C255.488302,270.931733 247.152604,271.526088 241.335707,269.844498 C240.715427,269.649415 240.235428,269.135137 240.065664,268.483758 C239.8959,267.832378 240.060334,267.135844 240.500745,266.640779" id="Path" fill="#19303B" fill-rule="nonzero"></path>
                <path d="M265.081904,264.753335 C261.031663,266.758504 254.648596,265.820188 250.440925,265.498847 C250.297807,265.498847 246.60536,264.958993 247.034715,264.766189 C252.945491,262.09263 257.138851,262.619629 258.484161,257.33678 C258.731372,256.536082 259.587867,256.013982 260.507679,256.10329 C261.427491,256.192597 262.139957,256.867033 262.190919,257.696682 C262.190919,256.75963 263.036724,256 264.080078,256 C265.123431,256 265.969236,256.75963 265.969236,257.696682 C265.969236,259.611875 268.158943,262.542507 266.15529,264.033531 C265.798003,264.299521 265.414812,264.536124 265.010345,264.740481" id="Path" fill="#866552" fill-rule="nonzero"></path>
                <path d="M278.222651,256.442705 C278.361011,255.465539 278.977342,258.741919 279.606251,258.670069 C280.820781,258.488363 282.053235,258.536916 283.253924,258.81377 C283.505488,257.592312 282.964626,254.258452 283.882833,255.149397 C286.398469,257.621053 287.580819,264.978538 287.857539,268.887203 C288.134259,272.795867 288.297775,277.839768 285.455106,280.138983 C280.826335,283.875206 278.864138,274.534648 278.361011,269.677558 C277.931456,265.282055 277.885108,260.848675 278.222651,256.442705" id="Path" fill="#19303B" fill-rule="nonzero"></path>
                <path d="M279.049443,257.826406 C279.554429,256.827789 280.279537,256.295193 281.315405,256.894363 C281.172973,256.801159 282.610241,255.869116 283.102278,256.01558 C283.943921,256.281878 284.397114,257.94624 284.785565,258.67856 C285.775295,260.857003 286.488971,263.157088 286.909095,265.522418 C287.530616,268.970977 284.9021,274.017324 280.952851,271.15462 C278.686889,269.516888 278.026523,266.401201 278.000626,263.724907 C277.982965,261.712431 278.338938,259.714977 279.049443,257.839721" id="Path" fill="#866552" fill-rule="nonzero"></path>
                <path d="M235.853814,153.913441 C234.715395,147.058362 234.715395,140.063327 235.853814,133.208248 C236.296909,130.613197 236.684617,128.018146 236.947705,125.409292 C238.413566,124.293822 240.056308,123.430694 241.807903,122.855651 C244.577246,121.889409 247.969692,121.475305 250.572875,123.062703 L251.375985,123.601038 C252.574405,123.196743 253.882713,123.265906 255.031519,123.794287 C257.800862,124.981384 259.324001,127.935325 260.307118,130.613197 C261.337243,133.67518 261.992781,136.849939 262.259505,140.068569 C263.073366,146.411357 263.328196,152.813034 263.021075,159.200167 C262.7026,164.307448 261.927184,169.373319 261.636403,174.494403 C261.428235,179.50623 261.748464,184.525995 262.591827,189.47116 C264.26728,199.989398 267.036623,210.24537 268.130514,220.846429 C268.94747,228.866241 269.736733,236.886052 270.802931,244.878257 C271.149099,247.418094 271.509113,249.944127 271.869128,252.483964 C272.090675,253.974738 272.298376,255.465512 272.519924,256.956286 C272.658391,257.894922 272.893785,258.819754 272.963019,259.716979 C273.059946,260.931683 273.046099,261.097325 271.896821,260.95929 C270.082901,260.710828 268.241288,260.614204 266.358134,260.503776 C262.287199,260.269117 258.050103,260.310527 254.048402,259.758389 C253.729927,259.758389 251.279058,259.565141 250.988277,259.454713 C250.572875,256.003847 252.137554,252.263109 253.023744,248.977885 C254.071831,245.072113 254.730438,241.072707 254.989978,237.03789 C255.049969,233.328801 254.692334,229.624711 253.923781,225.995121 C252.954511,220.018221 251.736,218.41702 250.240554,212.550548 C248.398941,205.358945 248.025079,198.540034 245.726524,191.486465 C242.860253,182.624642 241.129414,173.44534 238.36007,164.583517 C237.251876,161.065135 236.400389,157.471462 235.812274,153.83062" id="Path" fill="#1E0147" fill-rule="nonzero"></path>
                <path d="M252.963394,142.153551 C253.087753,143.266923 253.212111,144.380295 253.322651,145.493666 C253.733672,149.481975 254.379602,153.442855 255.257112,157.355884 C256.113801,161.108359 257.302112,164.778361 258.310795,168.503345 C260.383431,176.077021 262.055358,183.760659 264.48725,191.238117 C266.76715,198.26198 269.226678,205.17588 271.064415,212.337196 C272.810947,219.132278 274.194641,226.014573 275.209687,232.955188 C276.193497,239.219689 276.295808,245.589936 275.513674,251.882504 C275.219705,253.543286 275.076347,255.226986 275.085329,256.913294 C275.076633,258.004116 275.192522,259.092391 275.430768,260.157191 C275.655345,260.304038 275.922911,260.37179 276.190735,260.349626 C278.083742,260.459589 279.299689,261.957829 281.165061,262 C282.092953,262.01015 283.019381,261.9226 283.928576,261.737904 L286.954624,261.105619 C287.341516,261.105619 296.848007,259.359962 297,260.143446 C294.581925,247.635198 290.187936,240.020286 288.944355,220.488175 C288.267294,209.890527 282.906075,199.636513 281.247967,189.176318 C280.405873,184.25204 280.086314,179.253362 280.294554,174.262637 C280.557088,169.176866 281.330872,164.118585 281.676311,159.032814 C281.989388,152.672609 281.73507,146.297316 280.916345,139.98179 C280.529453,136.820364 276.453269,124.958146 273.703572,123.776048 C272.662527,123.311967 271.495866,123.205582 270.387354,123.473651 L270.055732,123.583613 L269.254313,123.047546 C266.656609,121.494324 263.257486,121.879193 260.507789,122.841366 C257.758092,123.803539 254.745861,125.397997 253.308834,128.119572 L253.073935,128.628149 L252.783766,128.147062 C252.367306,127.540804 251.598124,127.281406 250.896901,127.51074 C250.195678,127.740074 249.731288,128.402908 249.757717,129.136726 L249.647177,129.136726 C248.77859,129.149662 248.067279,129.827271 248.016703,130.689948 C247.767987,134.813546 250.338056,138.827182 252.977212,142.084825" id="Path" fill="#391F5D" fill-rule="nonzero"></path>
                <path d="M240.417949,32.4956145 C239.483919,35.7863968 238.726638,39.1256173 238.149408,42.4987114 C237.762096,45.1076084 238.011082,47.353771 240.307289,48.6791465 C243.129414,50.0419339 246.094321,51.0808388 249.1463,51.7763397 C255.278166,53.6700786 261.632019,54.7350178 268.041589,54.9432894 C270.116475,54.9432894 275.165363,55.3618291 276.839103,53.924843 C278.512844,52.487857 278.319188,47.8699699 278.623505,45.874931 C278.945723,43.7568786 279.061547,41.6120944 278.969319,39.4712748 C278.848199,36.2461795 278.468874,33.0362297 277.835048,29.8727662 C276.922099,25.3246357 275.068535,19.5627403 270.918764,17.0515025 L270.752773,16.9538433 C268.687356,14.4751575 265.831454,12.798201 262.674553,12.2103943 C259.194262,11.6231387 255.619796,12.2741374 252.562945,14.0519686 C249.406732,15.8872362 246.757587,18.4919667 244.858204,21.6275357 C242.828608,25.0011269 241.317541,28.6654076 240.376452,32.4956145" id="Path" fill="#312B2B" fill-rule="nonzero"></path>
                <path d="M253.58334,57.0838776 C255.943302,59.2378234 261.051758,60.0651668 263.21026,56.9412322 C264.246342,56.9412322 265.296813,55.9141852 264.922672,54.2594984 L264.807552,53.7602394 L264.634872,52.904367 C264.447802,51.9058491 264.318292,50.8788021 264.203171,49.8660196 C264.203171,49.4523479 264.088051,49.0529408 264.044881,48.6392691 L264.044881,47.8404547 C264.076779,47.339522 263.951083,46.8411201 263.685131,46.4140006 L263.685131,46.1715034 L263.541231,45.529599 C262.96563,43.2615369 260.663228,43.7322668 260.317867,45.529599 C259.847852,45.8225195 259.516074,46.2901537 259.396906,46.8276723 L259.310566,47.1557567 C259.202602,47.6576729 259.144763,48.1689086 259.137886,48.6820627 L259.137886,48.6820627 L259.137886,48.6820627 C258.532419,48.2519519 257.695909,48.3509628 257.209624,48.9102953 L256.446953,48.8247081 L256.274273,48.5251527 L256.072813,47.8975129 C255.338922,46.4710588 253.45383,46.9845822 253.065299,48.61074 C252.978234,48.9910475 252.978234,49.3858603 253.065299,49.7661678 C253.149092,50.2381703 253.206738,50.7143684 253.237979,51.192622 C253.237979,51.5920291 253.237979,51.9914363 253.237979,52.3765789 L253.237979,52.3765789 C253.237979,53.0755415 253.137249,53.8030331 253.122859,54.5019956 C252.923782,55.3741178 253.18376,56.2868464 253.81358,56.9269677" id="Path" fill="#866552" fill-rule="nonzero"></path>
                <path d="M252.127163,13.1064804 C251.59801,16.1579297 252.74492,19.2615095 255.108586,21.1743194 C257.704036,22.8974013 260.876308,23.4306152 263.867408,22.6465528 C267.064673,21.7954321 269.699014,19.4627333 271,16.3306715 L270.828818,16.2276152 C268.698805,13.611946 265.753584,11.8423132 262.497951,11.2220216 C258.908814,10.6023116 255.222557,11.2892875 252.070102,13.1653697" id="Path" fill="#312B2B" fill-rule="nonzero"></path>
                <path d="M252,50.5073034 C252.088344,50.9590016 252.147239,51.423985 252.191411,51.8358275 L252.103067,52.9385024 L252.103067,52.9385024 C252.103067,52.9385024 256.04908,59.5811225 264,53.2972039 L263.396319,49.3116318 L263.396319,48.5543731 C263.429941,48.0877503 263.301254,47.6232991 263.028221,47.2258491 L263.028221,47 L258.537423,47.9565373 L255.15092,48.6872255 L252.07362,49.3514875 C251.984534,49.7056859 251.984534,50.0733937 252.07362,50.427592" id="Path" fill="#684F40" fill-rule="nonzero"></path>
                <path d="M250.105504,19.6829671 C250.808109,19.309352 251.572166,19.0820899 252.356017,19.0135721 C254.054008,18.8426627 256.183235,20.3381197 257.840798,20.5659989 C260.657308,20.950545 264.767525,21.0644846 266.249898,24.0838836 C267.732272,27.1032826 266.249898,29.9802572 265.656949,32.9426864 C265.54914,33.5693541 265.481759,34.1960218 265.414379,34.8226896 L265.522188,34.8226896 C266.26313,34.4426267 267.117078,34.3913478 267.893985,34.6802651 C268.570622,34.8989915 269.02387,35.5707917 268.999027,36.3181466 C268.589856,38.6264732 267.049951,40.530615 264.956191,41.3172459 L264.956191,41.3172459 C264.787909,42.3409231 264.493419,43.3368792 264.080243,44.2796752 C262.584393,47.6408929 259.673551,49.4069565 256.681852,51.073323 C254.164438,52.5393467 251.057451,52.2464638 248.825273,50.3327156 C246.237857,48.4669549 245.550575,45.7466473 245.281053,42.5990663 C244.803057,39.2421859 244.935699,35.8197329 245.67186,32.515413 C246.776902,28.4420728 246.278286,21.8763041 250.186361,19.6972096" id="Path" fill="#866552" fill-rule="nonzero"></path>
                <path d="M273.080247,85.184636 C273.080247,82.2297228 272.401562,62.663779 274.991647,60.1783381 C275.905795,59.3084337 277.900299,61.8629147 278.468178,62.636163 C280.185668,64.997332 280.684294,67.8832051 281.446084,70.9209663 C283.178491,78.6294167 284.106808,86.4957746 284.216228,94.3945757 C284.590198,103.853059 286.044524,113.518663 287.097178,123.018571 C287.70661,128.541773 287.928222,134.064975 287.997475,139.671026 C287.997475,142.625939 287.997475,145.580852 287.997475,148.549573 C287.997475,150.09607 288.108281,151.960151 286.861716,152.691975 C284.811809,153.962311 284.24393,151.007398 283.856109,149.212358 C283.080469,145.636084 282.318679,142.032195 281.612292,138.414497 C279.82136,130.187522 278.462142,121.873011 277.54018,113.504855 C277.245156,110.788205 276.72631,108.100376 275.988899,105.468596 C274.489471,99.8088736 273.52951,94.0206386 273.1218,88.1809732 C273.1218,87.3524929 273.1218,86.5240125 273.1218,85.6817242 L273.080247,85.184636 Z" id="Path" fill="#866552" fill-rule="nonzero"></path>
                <path d="M240.037234,109.446627 L238.667696,111.656558 C236.841646,114.695213 234.928858,117.683224 232.929332,120.620591 C231.833702,122.264227 228.601592,129.08739 226.506199,126.366412 C225.807735,125.441003 226.013166,125.427191 226.081642,124.239353 C226.396636,119.418941 228.628983,114.336099 230.423078,109.916237 C232.170144,105.636865 234.206412,101.483482 236.517522,97.4853742 C238.612915,93.8666119 237.188595,90.3445341 236.81882,86.4357183 C236.330362,81.0525424 236.293711,75.6373717 236.709257,70.2479725 C236.969469,66.9192637 237.092728,58.1624115 240.393314,56.1458493 C242.023064,55.1513803 243.789768,59.5298064 242.790005,60.5933358 C244.322715,63.4189006 245.430451,66.4585444 246.076896,69.6126173 C246.391494,69.9389533 246.589103,70.3618429 246.638407,70.8142674 C247.22916,76.1990022 247.095562,81.6395588 246.241241,86.9882011 C245.816684,90.6069634 245.624949,94.3085981 245.11822,97.8859242 C244.529319,102.029545 242.228495,105.869301 240.023539,109.460439" id="Path" fill="#866552" fill-rule="nonzero"></path>
                <path d="M237.007188,118.707198 C237.846512,116.157153 238.993588,113.70465 239.804934,111.154604 C240.722627,108.318435 241.097493,105.335821 240.910044,102.361825 C240.61628,96.7879548 238.811734,91.4509743 237.832523,85.9746472 L237.832523,85.8213657 L237.832523,85.7516924 C237.832523,85.4172602 237.76258,85.082828 237.734602,84.7344611 C237.734602,84.1492048 237.65067,83.5500138 237.65067,82.9647574 C237.65067,82.3795011 237.720614,81.5712899 237.76258,80.9302949 L237.76258,80.7491441 L237.846512,80.1499531 C238.280163,77.5162996 238.979599,74.9383848 239.651058,72.3604699 C241.049931,66.7866 242.085097,61.3381422 241.287739,55.6388602 C244.085485,54.7888451 247.358848,54.8724531 250.100639,54.3290008 C251.676396,53.7909755 253.404321,53.9167977 254.884784,54.6773677 C255.730437,55.2979283 256.676763,55.7692633 257.682529,56.0708352 C259.529042,56.4331367 260.592185,55.22082 262.102968,54.5101516 C262.680492,54.2383036 263.310733,54.0956205 263.94948,54.0921113 C265.348353,54.0921113 266.873124,55.4855788 268.146099,56.0011618 C270.943844,57.3110212 273.74159,58.4397299 276.539336,59.6241772 C277.908782,60.0382615 278.877998,61.2534238 278.973375,62.675871 C279.183205,64.9332883 278.092085,67.0374242 277.826299,69.2251681 C277.513643,72.2198017 277.046736,75.196456 276.427426,78.14336 C275.126474,83.8983806 272.832323,89.3747078 271.615303,95.1715325 C270.56499,99.5818268 270.896978,104.206843 272.566537,108.423408 C273.685635,111.419363 274.818722,114.401384 275.93782,117.397339 C276.511358,118.888349 277.714389,120.490837 277.81231,122.107259 C278.008152,125.507319 270.929856,126.566355 268.579749,127.290958 C263.230776,129.011707 257.718109,130.179089 252.129004,130.774626 C248.714723,131.182173 245.25672,131.036294 241.889255,130.342652 C239.782757,129.890843 237.783282,129.039264 236,127.83441 C236.097921,125.437646 236.265786,123.054817 236.461628,120.671987 C236.610841,120.003123 236.792695,119.348193 237.007188,118.707198" id="Path" fill="#866552" fill-rule="nonzero"></path>
                <path d="M238.527757,95.4746004 C239.369357,99.1651653 239.539302,102.974185 239.029648,106.723553 C238.834468,108.100414 238.513816,109.559887 238.290753,110.978053 C238.193164,111.638947 238.095574,112.354914 238.011925,112.960733 L237.942218,113.470172 C237.942218,113.855693 237.85857,114.227445 237.802804,114.599197 C237.46821,117.352919 237.147558,120.106641 236.631726,122.763982 C236.506253,124.47129 236.394722,126.164829 236.325015,127.872136 C238.102265,129.062631 240.094975,129.904061 242.194348,130.350486 C245.550422,131.035861 248.996728,131.180002 252.39946,130.777312 C257.969659,130.188872 263.463678,129.035402 268.794558,127.33516 C269.826222,127.018482 271.750137,126.632961 273.576462,126.040911 C275.93256,125.2561 278.10742,124.099537 277.995889,122.213238 C277.898299,120.616079 276.685396,119.032689 276.12774,117.559448 C275.012427,114.599197 273.883173,111.652715 272.76786,108.692464 C271.101487,104.52631 270.775334,99.9542629 271.833785,95.5985178 C272.363559,93.0513253 273.116395,90.5592072 273.897114,88.0808576 C272.936468,85.8150962 272.298388,83.4287878 272.001082,80.9900243 L272.001082,80.9900243 C271.910278,80.1347933 271.868387,79.2751849 271.87561,78.4152945 C271.977519,75.7583812 272.275729,73.112363 272.76786,70.4983447 C273.297633,67.1938787 274.162001,63.1459078 276.12774,60.2269628 L272.168379,58.5471926 L271.499192,59.1117055 C266.528836,62.6876783 260.273802,64.0549126 254.239726,62.8843042 C249.882633,62.0212116 246.017639,59.5617477 243.421192,56 C242.386964,56.1737637 241.376497,56.4648302 240.409848,56.8674223 C240.326199,61.2320712 240.605027,65.5967201 238.932058,69.7548398 C236.910554,74.7666133 232.546893,80.7697266 234.484749,86.3735502 C235.104876,87.6240877 235.872318,88.7979532 236.77114,89.8707767 L236.854788,90.0222314 L236.854788,90.0222314 C237.34564,90.9437611 237.71127,91.9252071 237.942218,92.9411764 C238.165281,93.7810615 238.332578,94.6347153 238.499875,95.3919887" id="Path" fill="#391F5D" fill-rule="nonzero"></path>
                <path d="M236.057377,90.0913043 L236.143443,90.2217391 L236.143443,90.2217391 C236.6462,91.1002341 237.022252,92.034024 237.262295,93 C239.26182,92.9870241 241.228998,92.539827 243,91.6956522 C240.509999,92.0221754 237.981371,91.4096507 236,90" id="Path" fill="#1E0147" fill-rule="nonzero"></path>
                <path d="M268.267462,92.3364914 C267.171658,97.8377139 267.011297,106.790954 268.41446,110.297983 C269.470173,112.93857 272.35668,121.135391 273.759843,125 C276.018267,124.216076 278.102967,123.060819 277.996059,121.17665 C277.902515,119.581296 276.739894,117.999694 276.205356,116.528117 C275.136279,113.57121 274.053839,110.628056 272.984762,107.671149 C271.380588,103.511312 271.067804,98.9422155 272.089411,94.5919927 C272.597222,92.0476773 273.318849,89.5583741 274.067202,87.082824 C273.146381,84.8196218 272.534753,82.4360089 272.249772,80 C272.249772,80.7976773 271.995866,89.6271394 268.307552,90.2322738 C266.216744,90.5552324 264.090808,90.5552324 262,90.2322738 C262,90.2322738 264.85978,93.1204156 268.320916,92.2814792" id="Path" fill="#1E0147" fill-rule="nonzero"></path>
                <path d="M276.37589,166.278564 C279.005023,158.470076 282.060503,156.461371 284.419617,156.489663 C287.645635,156.319913 291.255365,160.860718 291.525384,163.562568 L291.525384,163.562568 C291.570594,163.889795 291.747537,164.184657 292.015561,164.37941 C292.283586,164.574163 292.619648,164.652063 292.946537,164.595212 C293.273516,164.546518 293.567282,164.369501 293.762218,164.1037 C293.957154,163.837899 294.037021,163.505458 293.983979,163.180631 C293.316037,159.347116 289.592615,154.16975 284.419617,154 C280.483023,154 276.745389,157.352557 274.05941,165.458107 C273.853082,166.098306 274.201108,166.784839 274.841044,167 L275.224755,167 C275.748488,166.996044 276.211472,166.660369 276.37589,166.165397" id="Path" fill="#020203" fill-rule="nonzero"></path>
                <path d="M270.21938,197 C268.252958,196.172731 263,193.539257 263,191.581386 C263,189.623516 263.412536,166.473765 264.37512,164.943317 C265.846498,162.489085 300.26575,161 301.572114,161 C303.110328,161.286056 304.600848,161.787314 306,162.489085 L274.372242,177.117962 L270.21938,197 Z" id="Path" fill="#2D2E2F" fill-rule="nonzero"></path>
                <path d="M269.074424,195.158749 C269.05754,195.697212 269.285405,196.214488 269.694507,196.566401 C270.103609,196.918315 270.650205,197.067237 271.181947,196.971661 L307.409311,190.544064 C308.373537,190.379254 309.076045,189.93976 308.993397,188.841026 L307.078719,163.707474 C307.072357,163.231062 306.869274,162.778342 306.517343,162.456037 C306.165413,162.133732 305.695774,161.970361 305.219139,162.004435 L270.217721,165.355576 C269.018293,165.514107 268.093586,166.487636 268,167.690387 L269.074424,195.158749 Z" id="Path" fill="#040305" fill-rule="nonzero"></path>
                <path d="M289.577543,184.491817 C289.577543,185.430559 290.320231,186.097203 291.005789,185.988363 L302.788827,184.138088 C303.616778,183.885495 304.12259,183.090205 303.974272,182.274207 L303.374408,174.464956 C303.302996,173.567028 302.660285,172.91399 301.946161,173.009225 L290.277384,174.587401 C289.42489,174.817813 288.886012,175.616952 289.020526,176.451281 L289.577543,184.491817 Z" id="Path" fill="#2D2E2F" fill-rule="nonzero"></path>
                <path d="M273.392025,187.388872 C273.392025,188.392029 274.097095,189.112607 274.86996,188.985447 L286.761233,186.950873 C287.587783,186.688056 288.106258,185.835632 287.981546,184.944558 L287.520539,176.566073 C287.520539,175.605302 286.829029,174.898853 286.164636,175.011885 L274.368276,176.74975 C273.491006,176.959681 272.90645,177.824641 273.012372,178.756065 L273.392025,187.388872 Z" id="Path" fill="#2D2E2F" fill-rule="nonzero"></path>
                <path d="M280.392447,169.292709 C283.022607,161.484222 286.079279,159.475517 288.425097,159.503808 C291.666591,159.334059 295.263512,163.874864 295.533637,166.576714 L295.533637,166.576714 C295.585957,166.89959 295.765288,167.188467 296.032035,167.379562 C296.298781,167.570657 296.631002,167.648251 296.955345,167.595212 C297.283444,167.55055 297.578747,167.373876 297.772242,167.10648 C297.965738,166.839083 298.04047,166.504395 297.978975,166.180631 C297.324989,162.347116 293.600114,157.16975 288.41088,157 C284.472749,157 280.747874,160.338411 278.060846,168.458107 C277.853105,169.094255 278.194057,169.779023 278.828568,170 L279.21243,170 C279.740187,169.997758 280.20838,169.662577 280.37823,169.165397" id="Path" fill="#020203" fill-rule="nonzero"></path>
                <path d="M282.753618,158.050935 C282.662515,157.766701 282.757115,157.456594 282.992288,157.268554 C283.22746,157.080515 283.555558,157.052641 283.820058,157.19823 C284.142734,157.37153 284.486847,157.503089 284.843841,157.589635 L285.327294,157.715444 C284.887704,157.607148 284.462854,157.447591 284.061785,157.240166 C283.713211,157.029121 283.594358,156.586345 283.79162,156.233695 L283.79162,156.233695 C283.178502,155.577633 282.696169,154.814208 282.369699,153.983114 C281.573424,152.193832 282.227507,150.530359 282.796275,148.783013 C283.165975,147.650733 283.464578,146.168984 284.843841,145.903387 C285.313206,145.811495 285.796396,145.811495 286.265761,145.903387 L286.265761,145.707685 C286.265761,144.771107 287.687682,144.757129 287.758778,145.707685 C287.792653,146.11294 287.908685,146.507433 288.100039,146.867922 L288.412861,147.273306 L288.512395,147.636754 L288.995848,148.517417 C289.564617,149.747548 290.076508,151.033594 290.545742,152.305662 C291.235499,153.860154 291.135278,155.643999 290.275577,157.114357 C289.711294,158.57793 288.722484,159.846508 287.431736,160.762815 C285.725431,161.573584 284.260853,160.091834 282.767837,159.518705 C282.014219,159.225151 282.17063,158.120828 282.853152,158.050935" id="Path" fill="#866552" fill-rule="nonzero"></path>
                <path d="M155.893204,139.149195 L155.528587,137.25451 C158.027156,138.170798 160.780046,138.079629 163.213592,137 L163.297735,138.413944 L163.297735,138.413944 L167,151.507064 L165.597627,159.990727 L162.694714,163.907351 C162.171854,164.082835 161.598022,164.00645 161.138247,163.700163 C160.678472,163.393877 160.383709,162.891634 160.338727,162.337874 C160.016181,160.17454 158.754045,150.432467 158.754045,150.432467 C158.754045,150.432467 157.281553,149.895168 157.113269,151.84641 C156.944984,153.797653 156.21575,156.583122 154,156.568983 L154.22438,147.661137 L155.893204,139.149195 Z" id="Path" fill="#F9C5AF" fill-rule="nonzero"></path>
                <path d="M100.890869,129 C101.085746,129 149.095212,129.304017 149.359688,129.13819 L150,154.343974 L147.870267,196.864917 L142.399777,258 L131.904232,258 L129.899777,197.915158 L126.698218,153.293733 L124.304009,153.197001 L119.487751,196.408891 L110.244989,258 L100.125278,258 L101.030067,196.187788 L100,152.105303 L100.890869,129" id="Path" fill="#1F7AA7" fill-rule="nonzero"></path>
                <path d="M100.879947,129 C100.879947,129 105.925893,129 112.635489,129.082914 C112.264262,129.704767 149.758255,138.852919 148.988301,138.991109 C134.702911,141.22978 106.47586,140.690841 106.242124,146.163149 C105.939642,153.611569 107.617042,194.971719 106.915834,207.394965 C106.242124,220.218961 105.348428,253.964863 104.908455,258 L100.123743,258 L101.017439,196.187788 L100,152.105303 L100.879947,129" id="Path" fill="#01689B" fill-rule="nonzero"></path>
                <path d="M135.769886,237.601425 C135.769886,244.419427 135.705966,251.223571 136,258 L131.78125,258 L129.953125,197.746602 L127,153 C127,153 133.392045,182.364524 134.146307,193.561568 C135.066761,208.223043 135.846591,222.912234 135.769886,237.601425" id="Path" fill="#01689B" fill-rule="nonzero"></path>
                <path d="M101,128.986244 L101,128.986244 L101,127.445574 L101,129 L101,129 M101.269231,123.332536 L103,106 L103,106 L103,106.453947 L102.512821,111.351077 L102.512821,111.351077 L101.307692,123.31878 L101.307692,123.31878" id="Shape" fill="#E5E5E5" fill-rule="nonzero"></path>
                <path d="M109.448886,258 L116.331538,262.70366 C122.571619,263.327037 123,270 123,270 L97.0829595,270 C96.7522855,265.904727 97.4132288,261.790362 99.0106733,258 L109.448886,258 Z" id="Path" fill="#E6EBEE" fill-rule="nonzero"></path>
                <path d="M116,269 L110.724593,269 C110.551858,268.492918 110.282759,268.027071 109.933282,267.630137 C106.919632,264.374197 103.15678,261.969758 99,260.643836 C99.0415465,260.425067 99.0988581,260.209849 99.1714507,260 C105.660202,261.123288 111.845617,262.739726 115.973623,269" id="Path" fill="#182E38" fill-rule="nonzero"></path>
                <path d="M141.574748,258 L153.635656,262.70366 C159.591156,263.327037 160,270 160,270 L130.208875,270 C129.716081,265.963413 130.097902,261.86335 131.326382,258 L141.574748,258 Z" id="Path" fill="#E6EBEE" fill-rule="nonzero"></path>
                <path d="M151,269 L144.347732,269 C144.134062,268.622514 143.85709,268.278342 143.526998,267.980132 C139.919962,264.882865 135.654743,262.506254 131,261 C138.573794,262.231788 146.233981,264.284768 150.956803,268.94702" id="Path" fill="#182E38" fill-rule="nonzero"></path>
                <path d="M123,269 L97.1031595,269 C97.0221623,268.335233 96.9888197,267.667564 97.0032819,267 L122.372198,267 C122.696574,267.642334 122.907702,268.314925 123,269" id="Path" fill="#2E5A71" fill-rule="nonzero"></path>
                <path d="M159.372157,267 C159.698077,267.641081 159.909337,268.314052 160,269 L130.163785,269 C130.068244,268.308511 130.027298,267.670213 130,267.053191 L158.66242,267.053191 C158.875994,267.064759 159.090339,267.064759 159.303913,267.053191" id="Path" fill="#2E5A71" fill-rule="nonzero"></path>
                <path d="M103.123306,91.3936357 L100.695918,91.3936357 L102.670742,77.77522 L103.123306,91.4212593 M84.7190424,96.8354773 L84.0059115,100.716588 C83.929184,102.424252 84.6024326,104.079413 85.8466861,105.242074 C87.0909396,106.404735 88.7801358,106.957101 90.4652318,106.752336 L103.548441,104.956804 L103.548441,105.992688 L101.68333,123.38172 L101.68333,123.38172 L101.038769,138.892349 C117.166499,138.892349 133.294229,138.892349 149.435673,139.058091 L149.065393,123.38172 L149.065393,123.38172 L147.693987,105.785511 L148.160265,82.623155 C148.160265,85.9379824 149.079107,104.901557 149.079107,104.901557 L155.483571,142 L164,140.301151 L160.283491,99.8188219 L157.760105,56.3255247 L157.760105,56.3255247 C156.219288,52.5315029 152.920323,49.7464129 148.941967,48.8809749 L125.271506,40.2209885 L125.271506,40 L125.120651,40 L124.818942,40.1104942 L124.517233,40 L124.366378,40 L124.366378,40.2209885 L100.695918,48.8809749 C96.7175612,49.7464129 93.4185963,52.5315029 91.8777796,56.3255247 L91.8777796,56.3255247 L84.7190424,96.8354773 L84.7190424,96.8354773" id="Shape" fill="#CBBBA0" fill-rule="nonzero"></path>
                <path d="M88.9224204,105.917786 C86.1719147,105.508822 84.1084627,103.202214 84.0192525,100.436832 L84.0192525,100.436832 C84.0689338,103.233585 86.1418609,105.585543 88.9224204,106 M148.022121,104.711976 L148.29758,90.6122225 L149,104.616059 L149,104.616059 L148.022121,104.684571 M84.0054795,100.313511 L84.0054795,100.313511 C83.9981735,100.236034 83.9981735,100.158047 84.0054795,100.08057 C83.9986446,100.162644 83.9986446,100.245139 84.0054795,100.327213 M84.377349,98.1074267 L84.7216726,96.1890929 L84.7216726,96.1890929 L84.377349,98.1074267 M84.7216726,96.1890929 L91.8973762,56 L91.8973762,56 L84.7216726,96.120581 L84.7216726,96.120581 M102.764229,77.3894218 C102.758296,77.3256135 102.758296,77.2613966 102.764229,77.1975884 L102.764229,77.1975884 L102.764229,77.3894218" id="Shape" fill="#DBDBDB" fill-rule="nonzero"></path>
                <polyline id="Shape" fill="#C5C5C5" fill-rule="nonzero" points="102 110 102.38 105 102 110 102 110"></polyline>
                <path d="M102.343407,110 L102.872839,105.123288 L102.872839,104.671233 L102.872839,104.671233 L102.872839,103.643836 L89.5812954,105.424658 L88.9404034,105.424658 C88.6134906,105.425438 88.2871419,105.397935 87.9651328,105.342466 C85.1676428,104.930807 83.0755344,102.602237 83.0051856,99.8219178 L83.0051856,99.8219178 C82.9982715,99.7398666 82.9982715,99.6573937 83.0051856,99.5753425 L83.0051856,99.4794521 L83.3813614,97.5753425 L83.7296723,95.6575342 L83.7296723,95.6575342 L90.9884715,55.4794521 L90.9884715,55.4794521 C91.9070681,53.2451417 93.4900701,51.335403 95.5304456,50 L95.5304456,50 C92.4792421,55.3561644 91.3507148,64.4931507 91.2392553,65.4109589 C89.9574712,72.6849315 89.5394981,79.9452055 88.1741194,87.3287671 C87.5192949,90.8082192 86.181781,95.9315068 88.8150114,99.0958904 C89.9017415,100.39726 94.3879859,100.849315 99.9609603,100.849315 C108.733715,100.665713 117.490653,100.030137 126.195738,98.9452055 C129.92963,98.4794521 125.875291,91.6575342 125.875291,91.6575342 L120.190858,91.6575342 L102.440934,90.2876712 C102.440934,90.2876712 102.078691,79.3287671 101.995096,76.9589041 L101.995096,76.7671233 C102.482731,80.3013699 104.502934,84.8493151 107.56807,86.8356164 C110.609678,88.5264562 114.083783,89.3161827 117.57156,89.109589 C118.783681,89.109589 119.995803,89.109589 121.166128,89.0136986 C122.559372,88.9452055 124.078007,88.9178082 125.526981,88.9178082 C133.022631,88.9178082 140.504349,89.6712329 148,90.0684932 L148,90.0684932 L147.721351,104.164384 C145.88227,104.315068 141.827931,104.630137 138.066173,104.808219 L137.940781,104.808219 C136.865346,104.802263 135.930686,104.080614 135.669794,103.054795 C135.391145,101.890411 135.878781,100.712329 134.27655,100.630137 L132.813645,100.630137 C124.161602,100.630137 114.77114,104.150685 107.094368,107.479452 L102.287677,110" id="Shape" fill="#B7A890" fill-rule="nonzero"></path>
                <path d="M142.974406,83.0010932 L172.985375,83.0010932 C174.583181,83.0010932 175,83.567773 175,84.7978828 L171.234735,104.147925 C171.234735,105.378034 170.220475,106 168.970018,106 L139.264717,106 C138.01426,106 137,105.447142 137,104.230853 L140.654113,85.1710622 C140.661282,84.5808558 140.906816,84.0183285 141.335422,83.6101577 C141.764028,83.2019868 142.339673,82.9824888 142.932724,83.0010932" id="Path" fill="#9ABCCC" fill-rule="nonzero"></path>
                <path d="M130.305816,90.1331521 L138.565666,87 L141,87 L138.917448,98.3768234 L134.597561,99.7693354 C132.803278,100.213989 130.907615,100.011581 129.250469,99.1984055 L126,99.8807364 L126.703565,92.7232245 L130.305816,90.1331521 Z" id="Path" fill="#F9C5AF" fill-rule="nonzero"></path>
                <path d="M151,90.8132147 L149.41873,95.3621347 C148.94445,96.6159939 147.809339,97.5703538 146.396125,97.9034307 L137.860065,100 L131.800861,99.6315121 C131.203309,99.5017757 130.614584,99.340554 130.037675,99.1486658 L126.049516,99.6442186 L125,92.7954257 L136.320775,90 L151,90.8132147 Z" id="Path" fill="#F9C5AF" fill-rule="nonzero"></path>
                <path d="M142.943379,12.1661072 L141.159804,27.152348 C140.765083,30.426652 139.065568,33.4067051 136.441995,35.424901 C133.818421,37.443097 130.490089,38.3307376 127.202628,37.8889693 C120.124952,37.0587456 114.929938,23.8173817 115.000715,19.2441158 L116.104832,9 L143,12.1661072" id="Path" fill="#F9C5AF" fill-rule="nonzero"></path>
                <path d="M133.534987,28.976582 L134,44.5879422 C133.322409,47.18286 130.014172,52.9586447 128.539415,56 C128.017162,55.9723106 127.49391,55.9723106 126.971656,56 C124.71302,52.6377678 119,45.4110613 119,43.5974091 L120.328609,28 L133.495128,29.060289" id="Path" fill="#F9C5AF" fill-rule="nonzero"></path>
                <path d="M133.915966,39.4190856 L134,42.0273627 C131.058824,44.271042 125.470588,42.1956387 122.795518,40.2043733 C121.139674,38.9414967 119.833251,37.2762723 119,35.3664399 L119.57423,29 C121.843137,34.2866693 128.663866,37.5960962 133.87395,39.4190856" id="Path" fill="#D8AC99" fill-rule="nonzero"></path>
                <path d="M129.628528,0.00915230216 L145.297126,3.09493418 C147.998608,11.62705 142.04184,13.1343904 142.04184,13.1343904 L126.683912,11.2146644 C125.691683,11.0119351 124.665192,11.283921 123.882339,11.9569876 C123.099487,12.6300543 122.641251,13.6345804 122.631688,14.6986116 L121.929303,18.9646695 L119.943713,18.7087061 C119.943713,18.7087061 119.416924,16.9027416 118.390361,16.7605396 C117.620438,16.6752185 116.864023,16.6467781 116.580367,19.149532 C115.810445,26.0036651 119.119761,25.7903622 119.119761,25.7903622 L119.497968,30.8954114 L118.86312,33 C116.854962,28.7962222 115.548224,24.2602804 115,19.590358 L116.0941,9.9206268 C117.336782,-1.15690352 129.601513,0.0375926881 129.601513,0.0375926881" id="Path" fill="#673327" fill-rule="nonzero"></path>
                <polyline id="Path" fill="#E5E5E5" fill-rule="nonzero" points="133.415 38 133.465 38 133.585 37 133.415 37.06 133.415 38"></polyline>
                <path d="M132.518868,38 C132.682484,37.9722151 132.843208,37.9372189 133,37.8952381 L133,37 C132.025156,37.1952147 131.016659,37.3040683 130,37.3238095 C130.877358,37.5714286 131.740566,37.8 132.561321,38" id="Path" fill="#E0B19D" fill-rule="nonzero"></path>
                <path d="M129.520436,39 C130.357533,38.9979937 131.190845,38.9130914 132,38.7473684 C131.209809,38.5263158 130.378747,38.2736842 129.53406,38 L129.207084,38 C126.578356,37.9942781 124.032713,37.2878502 122,36 L122,36 C123.737582,37.8752892 126.535457,38.9913979 129.520436,39" id="Path" fill="#C29B8A" fill-rule="nonzero"></path>
                <path d="M120.148442,16 L122.117909,16.2268113 C121.264015,29.7821243 126.731695,30.1423541 133.480218,30.9028392 C141,31.7567172 141,25.5661018 141,25.5661018 C141,25.5661018 141,40.468941 131.910153,39.9886346 C117.944843,39.2681751 119.019098,24.7655912 119.019098,24.7655912 L120.148442,16 Z" id="Path" fill="#673327" fill-rule="nonzero"></path>
                <path d="M127.279247,31.7283025 C127.591184,29.4197332 129.887035,27.7691745 132.428409,28.0264091 L135.856321,28.3846569 C138.420434,28.6550005 140.260389,30.7619028 139.969816,33.0949513 L139.80936,34.2625735 C139.660191,35.3874073 139.022974,36.4113568 138.039487,37.1065991 C137.056,37.8018415 135.807826,38.1107041 134.572677,37.9644669 L131.144765,37.5929507 C129.912856,37.4697681 128.785867,36.9046599 128.01367,36.0229199 C127.241472,35.1411798 126.887873,34.0156666 127.03127,32.8959247 L127.279247,31.7283025 Z" id="Path" fill="#673327" fill-rule="nonzero"></path>
                <path d="M137,32.6226095 C136.778659,34.2527143 135.437592,34.0602714 133.797064,33.8904688 C132.156536,33.7206662 130.802449,33.6301048 131.02379,32 L137,32.6226095 Z" id="Path" fill="#F9C5AF" fill-rule="nonzero"></path>
                <path d="M151.873563,90.8863636 C152.495677,90.8863636 153,91.3137282 153,91.8409091 C153,92.36809 152.495677,92.7954545 151.873563,92.7954545 L139,93 L139.241379,90 L151.873563,90.8863636 Z" id="Path" fill="#F9C5AF" fill-rule="nonzero"></path>
                <path d="M133.252941,40.1960327 L134.090196,40 L137,42.5624271 C137,46.2170362 134.707843,52 134.707843,52 L130,46.0490082 C134.021569,43.7106184 133.252941,40.1960327 133.252941,40.1960327" id="Path" fill="#F8F9FA" fill-rule="nonzero"></path>
                <path d="M134,50.7009346 C133.706539,53.5231309 131.180189,55.7543473 128,56 L130.621053,47 L134,50.7009346 Z" id="Path" fill="#D5DDE2" fill-rule="nonzero"></path>
                <path d="M123,45.8792497 L118.477032,51 C117.044205,48.487558 115.878876,45.8330713 115,43.0797186 L118.420495,39 C118.420495,39 119.69258,44.1066823 123,45.8792497" id="Path" fill="#F8F9FA" fill-rule="nonzero"></path>
                <path d="M127,56 C125.410175,55.5910007 123.899806,54.9380907 122.527411,54.0665658 C119.957448,51.6565809 120,50.6081694 120,50.6081694 L123.421929,47 L127,56 Z" id="Path" fill="#D5DDE2" fill-rule="nonzero"></path>
                <rect id="Rectangle" fill="#683328" fill-rule="nonzero" x="167" y="166" width="8" height="98"></rect>
                <path d="M103.123482,166 L238.876518,166 C240.633177,165.880935 242,164.349349 242,162.5 C242,160.650651 240.633177,159.119065 238.876518,159 L103.123482,159 C101.366823,159.119065 100,160.650651 100,162.5 C100,164.349349 101.366823,165.880935 103.123482,166" id="Path" fill="#683328" fill-rule="nonzero"></path>
                <path d="M103,165 C147.408163,167.864934 192.70449,167.460753 239,165 L103,165 Z" id="Path" fill="#683328" fill-rule="nonzero"></path>
                <path d="M131.04153,269 L211,269 C210.940855,265.710339 208.204772,263.057349 204.812078,263 L137.174079,263 C133.786791,263.064482 131.058915,265.715446 131,269" id="Path" fill="#683328" fill-rule="nonzero"></path>
                <path d="M159.333992,128.002422 L212.254884,128.002422 C212.991474,127.970621 213.707483,128.253162 214.228804,128.781341 C214.750125,129.309519 215.028997,130.034947 214.99761,130.781228 L211.089226,159 L161.007055,159 L157.112384,130.82291 C156.550125,129.683599 158.223188,128.044104 159.347706,128.044104" id="Path" fill="#CFD6E0" fill-rule="nonzero"></path>
                <path d="M185,142 C183.32,142 182,142.67623 182,143.5 C182,144.32377 183.365,145 185,145 C186.635,145 188,144.32377 188,143.5 C188,142.67623 186.635,142 185,142" id="Path" fill="#ADB4BB" fill-rule="nonzero"></path>
                <path d="M147.364479,144.122581 C146.367779,144.133016 145.462695,143.584633 145.072161,142.733681 C144.681626,141.88273 144.882752,140.897232 145.581555,140.237697 C146.280358,139.578161 147.33886,139.374814 148.262436,139.722676 C149.186013,140.070538 149.792305,140.900924 149.798041,141.825806 C149.805735,143.082168 148.718398,144.108405 147.364479,144.122581 M99,137.43871 L99.0973408,147 L156,146.548387 L155.902659,137 L99,137.43871 Z" id="Shape" fill="#454444" fill-rule="nonzero"></path>
                <path d="M144,142.029003 C144.015973,143.68011 145.363206,145.007929 147.0144,145 C148.665594,144.992 150,143.651247 150,142.000063 C150,140.348879 148.665757,139.008054 147.014563,139 C145.368971,139.007931 144.036917,140.339961 144.028986,141.985525" id="Path" fill="#FFFFFF" fill-rule="nonzero"></path>
                <path d="M143.362372,156.161324 C142.00822,156.168066 140.90239,155.159034 140.887312,153.902882 C140.872235,152.646729 141.95357,151.615105 143.307549,151.593907 C144.661529,151.572709 145.779773,152.569897 145.810395,153.825806 C145.817828,154.432563 145.563197,155.016845 145.103296,155.448332 C144.643394,155.879819 144.016477,156.12262 143.362372,156.122581 M95,149.43871 L95.0834553,159 L152,158.548387 L151.916545,149 L95,149.43871 Z" id="Shape" fill="#454444" fill-rule="nonzero"></path>
                <path d="M140,154 C140,155.656854 141.343146,157 143,157 C144.656854,157 146,155.656854 146,154 C146,152.343146 144.656854,151 143,151 C141.346458,151.007969 140.007969,152.346458 140,154" id="Path" fill="#FFFFFF" fill-rule="nonzero"></path>
                <path d="M80.6849942,111.016331 C77.9627381,107.370513 74.9992122,103.918837 71.8151577,100.68546 C68.3110247,97.1254973 67.7087518,90.996778 66.8327186,86.347886 C66.0935656,82.4109866 59.35906,58.4266133 52.1180978,63.773537 C51.344162,64.4367895 50.9313441,65.4400077 51.0093682,66.4679399 C51.1462484,70.530485 53.2131393,75.0537312 54.9241417,78.6555754 C55.0486327,78.9641349 55.3065502,79.1962416 55.6222307,79.283804 C56.511952,84.2817119 56.9225926,88.4699028 58.7157231,92.9652277 C60.0845251,96.3995442 62.5620566,100.182877 63.9856106,103.54739 C65.6144849,107.400526 68.7901054,110.527708 71.7877816,113.403599 L73.6356642,115.1766 C76.1268838,117.605751 78.7002314,119.979059 81.3146431,122.282564 C82.7655732,123.566943 87.583756,129.262882 88.7746137,126.010054 C89.1852543,124.907164 88.979934,124.949046 88.5966694,123.804273 C87.0088592,119.155382 83.6005423,114.827584 80.7534343,111.016331" id="Path" fill="#866552" fill-rule="nonzero"></path>
                <path d="M95.2643263,128.243827 L95.3581164,127.996914 C95.6859829,127.47797 95.8935376,126.845846 95.9560282,126.175926 C96.0146573,125.592045 96.0146573,125.000547 95.9560282,124.416667 C95.8848318,124.295969 95.8402186,124.151826 95.8270669,124 L93.7636848,125.188272 C93.5569074,125.343351 93.3675141,125.53552 93.2009442,125.759259 C93.0376854,126.004129 92.9685736,126.333904 93.013364,126.654321 C93.0722696,126.887903 93.1727631,127.099552 93.3064581,127.271605 L94.3733204,128.814815 C94.4456183,128.930203 94.5527972,128.997922 94.6664145,129 C94.7942813,128.993407 94.91733,128.934018 95.0181273,128.830247 C95.1544324,128.65376 95.2482184,128.428327 95.2877738,128.182099" id="Path" fill="#7B5642" fill-rule="nonzero"></path>
                <path d="M93.3551678,122.58617 C94.4616386,122.932414 95.4953711,123.499296 96.4007159,124.256301 C96.7468421,124.523704 96.9564319,124.945676 96.9682953,125.399022 C96.9682953,126.263388 96.3176555,126.571044 95.7500761,126.937301 C95.1824966,127.303558 94.8779418,127.699115 95.0025324,128.226525 C95.0816716,128.470222 95.2201488,128.687518 95.403991,128.856486 C97.2728501,130.922175 98.1726711,131.669339 100,133.735027 C99.421773,134.088324 98.7093679,134.088324 98.1311409,133.735027 C97.5565826,133.40839 97.0410692,132.976902 96.6083669,132.460453 C95.1132796,130.863574 94.6287606,130.570568 93.11983,128.973689 C92.5245637,128.343727 91.5416823,127.684465 90.9325727,128.299776 C91.1263803,129.413197 92.3169127,129.925956 93.3413244,130.394765 C93.5433054,130.468183 93.670269,130.679899 93.647049,130.90457 C93.623829,131.12924 93.4566225,131.306906 93.2444206,131.332382 C91.9564422,131.554982 90.6349899,131.328758 89.4790156,130.68777 C87.9130639,129.798513 86.7909927,128.231264 86.4057807,126.395241 C86.2811901,125.80923 86.2535033,125.193918 86.1012259,124.607908 C86.0059398,124.367414 85.9771361,124.103232 86.0181655,123.846093 C86.105518,123.606768 86.2664308,123.405514 86.4749977,123.274733 C88.5433988,121.88729 91.1096457,121.615708 93.396698,122.542219" id="Path" fill="#866552" fill-rule="nonzero"></path>
                <path d="M59.474316,65.0071907 C59.2650589,64.6871813 65.1382065,75.1222719 66.6169562,81.5085473 C68.095706,87.8948227 69.881366,96.5907315 72.8109646,99.5960376 C75.7405631,102.601344 81.027791,108.417168 81,108.389341 L74.8337826,116 C71.6649497,112.917701 68.6658552,109.666465 65.8496804,106.260582 C62.7235792,102.04918 60.4016473,97.2997265 59,92.2497339 L59.474316,65.0350176" id="Path" fill="#26262B" fill-rule="nonzero"></path>
                <path d="M39.4058876,143.722437 C39.7464032,141.375163 39.9633245,139.011608 40.0557538,136.641556 C41.4455367,136.495711 42.5268551,135.367396 42.6137377,133.972395 C42.6137377,132.395793 42.6137377,130.819191 42.5307761,129.256418 C43.1591961,129.754575 43.9728565,129.95538 44.7608248,129.806775 C45.5487931,129.658171 46.2334762,129.174791 46.6373773,128.481947 C47.046628,127.601716 47.339459,126.671898 47.5084746,125.715977 C48.3472036,126.082821 49.3130824,126.010749 50.088106,125.523489 C50.8631296,125.036229 51.3468539,124.196931 51.3800178,123.281925 C51.3800178,122.521283 51.3800178,121.760642 51.3108831,121 C55.4589652,129.297907 51.8639607,138.785182 55.6801963,147.152238 C56.0950045,151.605449 58.6944692,156.030999 59.1231044,160.48421 C59.3305085,162.544857 60.9206066,165.559763 60.9206066,167.67573 C62.0958965,176.416192 64.6400535,184.271544 64.985727,193.136476 C65.4281891,204.4078 65.3314005,215.692954 65.8706512,226.950449 C65.9397859,228.471732 65.4834969,249.078202 68,257.625046 L67.6958073,257.721855 C65.0208435,258.475872 62.1489421,257.669649 60.2569135,255.633549 C58.5285459,247.46011 56.440678,239.38348 54.7261374,231.210041 C53.8273863,226.922789 53.0669045,222.594047 52.5414808,218.251476 C52.0160571,213.908904 51.8501338,209.441864 51.4629795,205.057803 C51.1746909,200.794012 50.6716736,196.54747 49.955843,192.334345 C49.1246058,188.243338 48.0768941,184.199337 46.8171276,180.2194 C44.5218555,172.695964 41.867083,165.172527 41.1342551,157.303345 C40.8162355,153.818224 40.7194469,150.208634 40.3737734,146.654364 C39.7377342,146.529895 39.1016949,146.419257 38.4518287,146.322448 C37.9221925,146.227243 37.4238132,146.004112 37,145.672445 C38.1790983,145.720318 39.2149647,144.89616 39.4335415,143.736266" id="Path" fill="#E6B289" fill-rule="nonzero"></path>
                <path d="M60.1238662,252.150012 C61.4905411,255.913937 62.7205485,259.732412 64.3878918,263.387238 L64.1282236,263.387238 C64.5499887,264.689765 65.0520607,265.965023 65.631566,267.205714 C65.7819002,267.519374 65.9322344,267.819397 66.0962354,268.11942 L66.3422369,268.514905 L66.3422369,268.514905 L66.3422369,268.514905 L66.3422369,268.514905 C67.640578,268.514905 68.7202512,270.928727 67.3945765,271.719697 C64.6612268,273.356186 62.6658815,267.369362 61.927877,265.582862 C60.6432026,262.459894 58.3471888,258.764156 58.0055201,255.47754 C57.9252272,254.016055 58.7264824,252.647723 60.0418657,252" id="Path" fill="#646464" fill-rule="nonzero"></path>
                <path d="M60.0717024,252.15984 C59.9343397,251.562524 59.9730557,250.937739 60.1830891,250.362322 C62.1943494,249.245141 64.5042976,248.797855 66.7827509,249.084399 L67.3953777,249.084399 C67.3075939,252.120585 68.2562324,255.09509 70.0825817,257.510267 C72.7419391,260.50145 74.927903,262.593874 76,266.596161 C76,266.877023 75.87469,267.157886 75.7911499,267.452791 C75.4864938,268.726232 74.6617068,269.810136 73.5208742,270.436302 C72.3800415,271.062468 71.0297497,271.172394 69.804115,270.73888 C69.5655359,270.640791 69.333056,270.52824 69.1079482,270.401845 C68.3057615,270.150545 67.5973311,269.661145 67.0751409,268.997533 C66.4485908,268.197076 65.961274,267.270231 65.3764938,266.441687 C64.4551437,265.331146 63.6306034,264.142427 62.9120632,262.888779 C62.4247464,261.877675 62.1741263,260.740183 61.6589628,259.729079 C60.9767193,258.324767 59.932469,257.215361 59.2363022,255.81105 C58.7265355,254.511108 59.0580097,253.02893 60.0717024,252.075582" id="Path" fill="#2F262E" fill-rule="nonzero"></path>
                <path d="M75.9146403,267.341919 C76.0427673,268.503843 76.0940181,269.451063 75.5686974,269.994136 C75.077228,270.391555 74.5047984,270.680141 73.8902338,270.84032 C72.8328925,271.254407 71.7448946,271.587965 70.6358082,271.838059 C69.6253195,272.01857 68.5930477,272.048372 67.5735732,271.926466 C66.4711125,270.546382 65.9155263,268.818152 66.0104239,267.064067 C66.0558739,266.497027 66.1853766,265.939613 66.3948048,265.409588 C66.9701554,264.769347 67.6838155,264.264408 68.4832748,263.931924 C69.7925013,263.256368 71.2611308,262.93806 72.7370909,263.009963 C74.0580494,263.11131 75.1961627,263.966288 75.6455736,265.194885 C75.7480752,265.914773 75.8633895,266.63466 75.9530784,267.354548" id="Path" fill="#646464" fill-rule="nonzero"></path>
                <path d="M14.7101645,132.734283 C14.677892,130.728876 16.3013739,129.06787 18.3600865,129 C19.7339282,129.00762 21.001885,129.719872 21.6963434,130.874082 C26.315776,130.874082 30.9352086,130.874082 35.5546411,130.735261 C35.240976,130.735261 34.9558258,131.582069 34.6991907,133.109099 C36.5704894,132.805346 38.3887009,133.87935 38.9764431,135.63564 C40.4021939,139.008988 40.0600137,142.951502 39.6037734,146.505318 C39.1475331,150.059133 38.3205977,153.55742 37.9499025,156.87524 C36.7807868,166.342827 35.0984009,175.741003 33.6726501,185.166943 C33.2734399,187.832305 32.9074972,190.497666 32.574822,193.163028 C32.3894744,212.833952 30.9066935,232.463229 30.8211485,252.078625 C30.6215434,252.828258 30.3934233,253.564009 30.1510456,254.285878 C29.81938,255.25066 29.3895188,256.180755 28.8678699,257.062296 C27.1779267,258.600345 24.8454744,259.278573 22.5660514,258.894732 L22.2381287,258.81144 C23.0080341,259.047435 22.2381287,238.085477 21.881691,236.100337 C20.0995025,226.091349 17.4618635,216.276711 18.0179063,206.101137 C18.6594942,194.495709 16.6777006,182.779223 15.0380872,171.312616 C13.1703536,158.13851 14.3109543,145.894506 14.724422,132.664872" id="Path" fill="#E6B289" fill-rule="nonzero"></path>
                <path d="M28.4592489,251.153754 C27.3744338,255.123416 26.4609053,259.13501 25.0763387,263.006827 L25.3618163,263.006827 C25.0362215,264.370271 24.6311312,265.714331 24.1485363,267.032399 C24.0278731,267.365315 23.8897077,267.691897 23.7345937,268.010837 C23.6766423,268.154417 23.60991,268.294447 23.5347594,268.430167 L23.5347594,268.430167 L23.5347594,268.430167 L23.5347594,268.430167 C22.1930144,268.597899 21.2937598,271.113882 22.7354219,271.798788 C25.7757589,273.196556 27.2602427,266.920578 27.8597458,265.033591 C28.9017392,261.734858 30.9571784,257.80713 31,254.368621 C30.9505842,252.863548 29.9823248,251.535012 28.5448922,251" id="Path" fill="#646464" fill-rule="nonzero"></path>
                <path d="M28.681843,251.623378 C28.7686554,251.033554 28.6761264,250.431911 28.4156645,249.892627 C26.2993331,248.99701 23.9478937,248.768269 21.6911563,249.238485 L21.3689403,249.238485 C21.6522541,252.250223 20.8553118,255.264526 19.1134281,257.769589 C16.7178221,260.890392 14.714479,263.111749 14,267.077486 C14.0765981,267.350767 14.1701658,267.619277 14.2801878,267.881536 C14.6830579,269.098276 15.5991761,270.09075 16.7995518,270.61088 C17.9999275,271.131011 19.3711256,271.129647 20.5704049,270.607128 C20.8053604,270.493629 21.0302755,270.361443 21.2428557,270.211917 C22.0328779,269.901132 22.7071162,269.36407 23.1761519,268.671958 C23.7365275,267.840652 24.1427999,266.913951 24.6611474,266.055389 C25.4755695,264.896095 26.1923802,263.674691 26.8045844,262.403095 C27.2108568,261.36737 27.3649601,260.249878 27.7712325,259.241408 C28.3456176,257.878612 29.2982562,256.652096 29.8586319,255.234788 C30.2590235,253.930595 29.7909689,252.521299 28.681843,251.691518" id="Path" fill="#2F262E" fill-rule="nonzero"></path>
                <path d="M14,268.815733 C14,270.017233 14,270.996718 14.5821039,271.51911 C15.1211039,271.872302 15.7230109,272.116263 16.354287,272.237398 C17.4559276,272.561723 18.5801955,272.801831 19.7175541,272.955687 C20.7470342,273.052329 21.7850798,272.990682 22.7962371,272.77285 C23.7833615,271.250016 24.1837205,269.414848 23.9216381,267.614232 C23.8337548,267.036311 23.654697,266.476345 23.3912767,265.955638 C22.7511672,265.357208 21.9865289,264.910979 21.1534105,264.649659 C19.7711274,264.074321 18.2632739,263.876149 16.7811632,264.075028 C15.4817419,264.323384 14.4397264,265.304249 14.1034851,266.595568 C14.1034851,267.339976 14.0129356,268.097444 14,268.854912" id="Path" fill="#646464" fill-rule="nonzero"></path>
                <path d="M38.8614719,14.4314238 C40.5672316,14.9420955 42.4152045,14.6535272 43.8793286,13.6478655 C46.0843585,11.8288908 51.9078993,13.8857314 54.1553337,19.2447107 C54.8340938,21.0295624 55.109117,22.9400662 54.9610177,24.8415559 C54.7473641,29.1226393 53.0214023,33.1934163 50.0845091,36.3430728 C42.5647915,44.3465614 43.1725882,54.8126619 37.7872265,54.9945594 C28.9105673,55.2883938 20.6134352,43.6329636 21.0233446,31.5018017 C20.3872783,14.4314238 32.9107179,11.8288908 38.8614719,14.4314238" id="Path" fill="#3C3C3C" fill-rule="nonzero"></path>
                <path d="M43.8088281,47.9260293 L43.5377327,57.454973 L46.9192913,57.7888338 C48.6761346,61.5097104 50.0340617,65.3975627 50.9714544,69.3904968 C51.7419361,74.1758349 36.7032746,76.4850388 31.5096571,61.3361049 C26.3160396,46.1871709 36.1896201,42 36.1896201,42 L43.8088281,47.9260293 Z" id="Path" fill="#866552" fill-rule="nonzero"></path>
                <path d="M36.6260069,42 L44,47.8367347 L43.7652474,56 L43.5581128,55.9047619 L32,49.3605442 L32.1933257,46.952381 C33.3545224,45.0384799 34.8725574,43.3581701 36.6674338,42" id="Path" fill="#7B5642" fill-rule="nonzero"></path>
                <path d="M52.8769321,31.2049664 C52.0747326,33.97054 54.6172972,38.4092856 53.8558875,40.981269 C52.4666443,44.5728441 50.7122228,48.0069704 48.6211958,51.227719 C47.826819,52.6859455 46.4281164,53.7020121 44.8141473,53.9932926 C43.7893817,54.0446593 42.7712308,53.8001736 41.8772814,53.2880713 L31,46.9134243 L32.1149213,27.9139339 L49.4641851,21 L51.585255,23.3230818 C53.0025756,24.8767563 53.6216449,27.0163695 53.257637,29.1031305 L52.8769321,31.2049664 Z" id="Path" fill="#866552" fill-rule="nonzero"></path>
                <path d="M34.4523306,38.194247 C34.1839413,37.1434593 33.3399003,36.3251377 32.2616528,36.0703232 C31.7286544,35.9402909 31.1661631,35.9916074 30.6670778,36.2157974 C28.893672,37.0450006 30.9204215,42.5730215 33.6475918,42.9803494 C35.7041464,43.2858453 34.9441154,39.9544853 34.4076228,38.194247" id="Path" fill="#866552" fill-rule="nonzero"></path>
                <path d="M51.53,34.42 L51.47,34.58 C51.4827581,34.5242244 51.5029379,34.4704116 51.53,34.42" id="Path" fill="#D89C73" fill-rule="nonzero"></path>
                <path d="M59.544,99 L59.748,98.5163148 L60,97.7773512 C59.4822292,96.3270987 59.0335977,94.8470884 58.656,93.3435701 L58.656,93.3435701 C58.5,92.9136276 58.356,92.4702495 58.212,92 C58.0009282,92.760035 57.748455,93.5048731 57.456,94.2303263 L57,95.3589251 L59.592,99" id="Path" fill="#F2F2F2" fill-rule="nonzero"></path>
                <g id="Group" transform="translate(57.000000, 73.000000)" fill-rule="nonzero">
                    <path d="M2.07,18.5082353 L2.07,18.5082353 C1.875,18.0752941 1.695,17.6288235 1.515,17.1552941 C1.76884829,16.430958 1.97915434,15.6947886 2.145,14.95 L2.07,18.4676471 M2.28,7.73882353 C2.175,7.18411765 2.055,6.64294118 1.905,6.08823529 L0.405,0.554705882 L2.355,4.28882353 L2.355,7.73882353" id="Shape" fill="#EBA57C"></path>
                    <path d="M3.75,23 C6.03263324,17.1400714 5.66621992,10.7052279 2.73,5.08705882 L2.34,4.35647059 L2.34,7.80647059 C2.76821715,10.1984787 2.72250878,12.6400424 2.205,15.0176471 L2.13,18.5352941 C2.5823324,20.0482549 3.12308805,21.5385728 3.75,23" id="Path" fill="#242429"></path>
                </g>
                <path d="M42.397711,98.9578947 L42.397711,98.9578947 C46.3130086,99.0079081 50.2184874,98.6535788 54,97.9052632 C54,97.9052632 54,97.9052632 54,97.9052632 L54,97.9052632 C54,97.6526316 51.3247496,97.0105263 48.2775393,97 L48.0772532,97 C47.565811,97.0003452 47.0547834,97.0214298 46.546495,97.0631579 C42.6981402,97.3894737 34,98.5368421 34,98.5368421 C36.7366696,98.8433491 39.5007642,98.9981706 42.2689557,99" id="Path" fill="#F2F2F2" fill-rule="nonzero"></path>
                <path d="M45.309043,57 C45.309043,57 50.3212743,58.8430754 53.3341667,59.771542 C56.3470592,60.7000085 60.6511914,66.1738039 61.1787947,70.2341129 C61.706398,74.2944218 60.8316872,99.3353035 61.1787947,108.398246 C61.5259021,117.461188 67.7599516,157.482254 68.995654,169.538461 C70.2313565,181.594669 74.1744969,247.571225 73.994001,248.998569 C73.8135051,250.425914 62.8032574,255.553266 51.0710263,255.927424 C39.3387952,256.301583 22.9969773,255.192966 17.8459031,253.433037 C12.6948288,251.673107 9.66805201,244.868972 10.0290437,240.961098 C10.3900355,237.053224 12.6670602,146.243651 13.7361511,138.857492 C14.805242,131.471333 16.9295395,85.6161708 16.5130105,78.7427467 C16.0964816,71.8693226 15.6244155,65.4670607 13.3196222,62.7370919 C13.3196222,62.7370919 19.1926799,60.533716 23.8022666,59.2865221 C28.4118532,58.0393282 30.0224317,57.6790278 30.0224317,57.6790278 C30.0224317,57.6790278 35.0068944,59.8269728 35.5761506,59.2865221 C36.1454068,58.7460714 45.2951587,57.0692885 45.2951587,57.0692885" id="Path" fill="#020203" fill-rule="nonzero"></path>
                <path d="M45.7950729,197.013932 C44.2223828,172.781818 39.1897743,80.6776036 38,58.6219436 C40.7351133,57.9149425 45.7403707,57 45.7403707,57 C45.7403707,57 50.6772502,58.8437478 53.6448481,59.7725531 C56.6124461,60.7013584 60.8518717,66.1771508 61.3715433,70.2389411 C61.8912148,74.3007315 61.0159785,99.3507489 61.3715433,108.416998 C61.727108,117.483246 67.8537618,157.518913 69.0708872,169.579519 C70.2880127,181.640125 74.1718736,247.640752 73.9940912,249.068617 C73.8163088,250.496482 62.9715845,255.625705 51.4157308,256 L50.3490366,256 C49.296018,243.606688 47.1216029,217.35061 45.7950729,197.013932" id="Path" fill="#131418" fill-rule="nonzero"></path>
                <path d="M45.5265577,58 C45.5265577,58 56.7410324,98.4777857 55.9611289,98.8393187 C55.1812253,99.2008516 46.5485002,98.8393187 46.5485002,98.8393187 L42.0573317,78.5100426 L40,59.6408034 L45.5265577,58 Z" id="Path" fill="#F6F6F6" fill-rule="nonzero"></path>
                <path d="M36,59.9619543 C36,59.9619543 37.0846682,101.855761 37.0846682,101.995174 C37.0846682,102.134588 48,99.2069011 48,99.2069011 L45.3226545,59 C45.3226545,59 38.5400458,59.7807165 36,59.9619543" id="Path" fill="#FFFFFF" fill-rule="nonzero"></path>
                <path d="M29.8773372,134.801179 C29.3620534,135.900969 29.3491713,137.451276 28.0094332,137.941544 C26.8346594,138.108819 25.6380255,137.915202 24.5699134,137.385023 C23.3661688,136.992098 22.4119716,136.040059 21.993494,134.814429 C21.5941491,133.847144 21.2076862,132.853357 20.8727516,131.859571 C20.7954591,131.634313 20.5764634,130.958538 20.5506992,130.852534 C20.5427397,130.720156 20.5427397,130.587398 20.5506992,130.45502 C20.468581,130.15135 20.3284419,129.867561 20.1384721,129.620239 C19.6747166,129.063719 20.4862887,128.295191 20.9500442,128.851711 L21.0402189,128.970965 C21.2378931,128.675032 21.4867926,128.419015 21.7744984,128.215688 C22.650481,127.645917 23.5779919,128.334942 24.3509177,128.785459 C25.5618348,129.474484 26.7727519,130.110507 27.2751537,131.435556 C27.5119194,132.088409 27.6340497,132.779335 27.6358524,133.47613 L27.6358524,133.47613 C27.9262121,133.565652 28.0926902,133.878606 28.0094332,134.178406 C27.9032913,134.510035 27.7560843,134.826228 27.5714419,135.11919 L27.7775555,134.787928 C27.9189726,134.549439 28.0355556,134.296281 28.1253721,134.032651 C28.1962004,133.815508 28.3865513,133.663097 28.6085823,133.645752 C28.8306133,133.628407 29.0411591,133.749499 29.1430577,133.953148 C29.5424027,133.635136 30.1993896,134.178406 29.9417477,134.734926" id="Path" fill="#866552" fill-rule="nonzero"></path>
                <path d="M9.71391156,111 C11.7635685,113.024028 13.7439803,115.216725 15.6135998,117.395367 C18.3834064,120.768747 21.7902686,124.605967 23.5352468,128.878915 C23.9645669,129.933097 24.1446043,129.876874 23.8676236,130.959167 C23.0366816,134.149822 18.3280103,129.089752 16.943107,127.979347 C14.4318156,126.011542 11.971304,123.968773 9.5615722,121.85104 L7.78889593,120.318963 C5.6720155,118.601864 3.73243183,116.671004 2,114.556105 C4.76980666,113.277032 7.74734883,111.871457 9.72776059,111" id="Path" fill="#866552" fill-rule="nonzero"></path>
                <path d="M14.6605004,63 C13.2591049,63.4818348 11.9210961,64.1187721 10.6735936,64.8979021 C10.3294002,65.4342657 -0.670446773,108.315851 0.0322813925,110.997669 C0.735009558,113.679487 10.358083,122 10.358083,122 L15.7934703,115.357343 L10.4154486,108.233333 C10.4154486,108.233333 20.3970568,95.5393939 18.8338452,83.1617716 C17.2706335,70.7841492 17.0698541,65.0904429 14.6605004,63.0550117" id="Path" fill="#26262B" fill-rule="nonzero"></path>
                <path d="M36,60 C35.8475381,58.3054488 35.5025035,56.628889 34.9701493,54.9958459 C34.3023013,53.5295391 32.5242241,52.7184496 30.7910448,53.0895014 C29.5522388,53.2218865 29,58.5437647 29,58.5437647 L36,60 Z" id="Path" fill="#1E1F23" fill-rule="nonzero"></path>
                <path d="M45,58 C45,58 45,55.7443609 43.0958904,55 L43,57.4699248 L45,58 Z" id="Path" fill="#020203" fill-rule="nonzero"></path>
                <path d="M35,58.1480421 C35,58.1480421 43.0855894,58.3776506 44.7498841,57 C44.8463604,57.2324405 44.9251609,57.4702228 44.9857684,57.7117861 C45.0047439,57.9564197 45.0047439,58.2018995 44.9857684,58.4465331 C44.9857684,58.4465331 44.4353717,60.2374788 35.2096749,59.9734292 L35,58.1480421 Z" id="Path" fill="#EDEDED" fill-rule="nonzero"></path>
                <polygon id="Path" fill="#2B2B31" fill-rule="nonzero" points="82 107.579965 74.1128631 117 66 107.579965 75.1087137 101"></polygon>
                <path d="M19,118.468844 C19,118.468844 11.8598665,128 11.6730219,128 C11.4861773,128 5,118.809242 5,118.809242 C5,118.809242 11.8064824,111.892346 11.9666349,112.001273 C12.1267874,112.110201 18.9332698,118.509691 18.9332698,118.509691" id="Path" fill="#2B2B31" fill-rule="nonzero"></path>
                <path d="M21.1262869,93.7948859 C21.3670068,94.9404124 20.6399676,96.0659218 19.4980066,96.315582 C18.3560455,96.5652423 17.2268197,95.8455573 16.9689869,94.7037721 C16.7111542,93.5619869 17.4212713,92.4256927 18.5593686,92.1589222 C19.1091524,92.0267774 19.6888447,92.1192237 20.1704567,92.4158501 C20.6520686,92.7124765 20.9959899,93.1888867 21.1262869,93.7398955 M24.3383665,136 L33,133.937861 L21.7302677,86 L13,88.0346439 L24.3383665,136 Z" id="Shape" fill="#454444" fill-rule="nonzero"></path>
                <path d="M19.0441631,96.9373635 C20.0313588,96.7173106 20.7886148,95.9243737 20.9626252,94.928506 C21.1366355,93.9326383 20.6931079,92.9300959 19.8389749,92.3886258 C18.984842,91.8471557 17.8884279,91.8734655 17.0612767,92.4552802 C16.2341254,93.0370949 15.8392439,94.059756 16.0608684,95.0461299 C16.2026494,95.6939844 16.5976498,96.258312 17.1579566,96.6135136 C17.7182634,96.9687152 18.3973812,97.0853155 19.0441631,96.9373635" id="Path" fill="#FFFFFF" fill-rule="nonzero"></path>
                <path d="M22.8606124,131.286072 C24.3352381,131.996128 23.9563412,133 23.9563412,133 C23.9563412,133 21.3859868,132.804123 21.0378112,131.628858 C20.6896357,130.453593 22.8606124,131.286072 22.8606124,131.286072" id="Path" fill="#866552" fill-rule="nonzero"></path>
                <path d="M28,133.575964 C28.215567,132.969345 28.3305132,132.322319 28.3389906,131.667803 C28.3389906,130.623471 28.937874,130.945796 29.0960696,131.667803 C29.183215,132.091817 29.183215,132.533086 29.0960696,132.957101 C29.0960696,132.957101 28.9265743,131.474408 29.2881642,131.306799 C29.6497542,131.13919 30.2373379,132.286666 29.8983473,133.47282 C29.5593567,134.658975 28,133.47282 28,133.47282" id="Path" fill="#866552" fill-rule="nonzero"></path>
                <path d="M133.985588,19.690684 C133.865728,21.0567283 132.547272,22.0892036 130.895872,21.9938982 C129.244472,21.8985928 127.899381,20.7072751 128.005923,19.3412308 C128.179053,16.8315215 129.444238,16.9427111 131.095638,17.0380165 C132.747038,17.133322 134.158718,17.609849 133.985588,19.690684 Z" id="Path" stroke="#26282D" stroke-width="0.57"></path>
                <path d="M141.985113,19.6784779 C141.877821,21.0517426 140.536669,22.0896751 138.873641,21.993866 C137.210613,21.8980568 135.923107,20.7643151 136.003576,19.3271777 C136.003576,17.3790581 137.45202,16.9159805 139.115048,17.0117896 C140.778077,17.1075988 142.159463,17.458899 141.985113,19.6784779 Z" id="Path" stroke="#26282D" stroke-width="0.57"></path>
                <polygon id="Path" fill="#26282D" fill-rule="nonzero" points="128 16.8028169 120 16 120.40404 16.8309859 127.690236 18"></polygon>
                <path d="M134,19.9600136 C134.300039,19.7721966 134.64235,19.6523877 135,19.6100136 C135.334002,19.6306841 135.65161,19.753617 135.904255,19.9600136 L136,19.5700136 C135.839076,19.2795611 135.537057,19.0815795 135.191489,19.0400136 C134.784865,19.0380213 134.38615,19.1456007 134.042553,19.3500136 L134,19.9600136 Z" id="Path" fill="#26282D" fill-rule="nonzero"></path>
            </g>
        </g>
    </g>
</svg>