<svg height="230" viewBox="0 0 240 230" width="240" xmlns="http://www.w3.org/2000/svg"><g fill="none" transform="translate(.395349 -.813953)"><path d="m132.167442 182.288372c-54.3627908-1.004651-102.3627908 9.041861-107.3860467 22.325581-5.0232558 13.283721 35.1627907 24.893024 89.5255817 25.897675 54.36279 1.004651 102.36279-8.930233 107.274418-22.213954s-35.051162-24.893023-89.413953-26.009302" fill="#93d5f6" fill-opacity=".1"/><path d="m66.7534884 105.376777c1.116279-.446544 2.7906976-.223289 3.2372093-1.562824.3197164-1.182922.2412624-2.438185-.2232558-3.572093-.2668074-1.2553642-1.0876321-2.3224364-2.2325582-2.9023251l-2.7906977-1.3395349-.7813953-.2232558-.2232558-.2232558h-.3348837c-.3348838-.2232558-.6697675-.3348837-.7813954-.5581396-.2157764-.2466014-.5906077-.2715901-.8372092-.0558138s-.2715903.5906076-.055814.8372092h.1116279c-.3335429.1202965-.6115017.3585469-.7813954.6697674-.6697674.7813954-.1116279 1.7860465.3348837 2.6790698.4465117.8930236 1.0046512 2.5674416 2.3441861 3.1255816.6314365.30355 1.3117705.492532 2.0093023.558139.1116279.334884.3348837.55814.6697675.446512.3192382-.042383.6246333-.156906.8930232-.334884l-.3348837.223256-.7813954.223256c-.4465116.111628-.4465116.781395-.1116279 1.004651-.2466015.184951-.2965789.534794-.1116278.781395.1849512.246602.5347937.296579.7813953.111628" fill="#866552"/><path d="m52.4651163 206.734884c-2.1209303-2.455814-7.9255814-1.562791-10.6046512-1.116279h-3.1255814c-.4465116-.111628-2.5674418-.334884-2.5674418-1.004652.0024286-.698316-.5320146-1.281345-1.227907-1.339534.1842131-.563235.0074539-1.181893-.4465116-1.562791h-.111628c-.4465116-.334884.2232559-1.451163-.2232558-1.339535-.4465116.111628-2.344186 4.130233-2.6790697 5.246512-.7813954 3.125581 1.4511628 4.130232 3.3488372 4.130232 6.027907.223256 12.5023256.669768 16.9674418-.669767 1.1162791-.223256 1.227907-1.451163.6697675-2.344186" fill="#19303b"/><path d="m34.0465116 205.618605c3.0139535 1.674418 7.8139535.893023 10.9395349.669767.1116279-.111628 2.9023256-.446512 2.5674419-.669767-4.4651163-2.232558-7.5906977-1.786047-8.5953489-6.139535-.222235-.615179-.8285518-1.005652-1.4805583-.953491s-1.1885335.534061-1.3101393 1.176747c-.2014673-.61742-.7886361-1.025798-1.4375751-.999841-.6489389.025958-1.2016136.47993-1.3531226 1.111468 0 1.562791-1.6744186 4.018605-.1116279 5.246512z" fill="#866552"/><path d="m24.4465116 199.367442c-.1116279-.781395-.6697674 1.674418-1.2279069 1.562791-1.0039124-.129699-2.0223857-.091978-3.0139535.111627-.2232559-.893023.2232558-3.348837-.5581396-2.679069-.7813953.669767-3.1255814 7.255814-3.4604651 10.158139-.3348837 2.902326-.3348837 6.697675 2.1209302 8.372093 2.455814 1.674419 5.5813954-4.130232 6.027907-7.702325.3157995-3.265324.3531435-6.5516.1116279-9.823256" fill="#19303b"/><path d="m23.5534884 199.813953c-.4465117-.781395-1.0046512-1.227906-1.8976744-.781395-.8930233.446512-1.1162791-.781395-1.4511628-.669767-.3348838.111628-1.1162791 1.56279-1.4511628 2.12093-.7762285 1.749227-1.3384358 3.585771-1.6744186 5.469767-.5581396 2.790698 1.5627907 6.809303 4.9116279 4.576745 3.3488372-2.232559 2.344186-3.795349 2.344186-6.027907.0163726-1.596513-.24812-3.183468-.7813953-4.688373" fill="#866552"/><path d="m57.3767442 119.553488c.8376447-5.287963.8376447-10.674827 0-15.96279-.3348837-2.009303-.6697675-4.018605-.8930233-6.0279073-1.1137007-.8606989-2.357117-1.538926-3.6837209-2.0093023-2.1857442-.9154214-4.6547384-.8749461-6.8093023.1116279l-.5581396.4465116c-.9586631-.3142816-2.0030074-.2339474-2.9023255.2232558-2.1209303.8930233-3.2372093 3.1255814-4.0186047 5.2465113-.7973907 2.35069-1.3217667 4.785292-1.5627907 7.255814-.5761031 4.926466-.7627284 9.890697-.5581395 14.846512.2232558 3.906977.8930232 7.925581 1.116279 11.832558.0734466 3.885028-.1879853 7.769159-.7813953 11.609302-1.3395349 8.148838-3.4604651 16.074419-4.2418605 24.223256-.5382898 4.444566-.79926 8.918341-.7813953 13.395349.1116279 4.576744.6697674 9.153488.5581395 13.841861.0622693 1.425516.9931254 2.666658 2.3441861 3.125581.6970225.146111 1.412421.183763 2.1209302.111628.8481227.030309 1.67211-.285562 2.2826402-.87504.6105303-.589477.9551105-1.401878.9545691-2.250542.1654786-11.350925 1.740327-22.637339 4.6883721-33.6 1.3395349-5.581395 3.2372093-10.939534 5.0232558-16.409302 1.7860465-5.469767 3.572093-13.953488 5.6930233-20.762791.8797241-2.736093 1.5514044-5.534761 2.0093023-8.372093" fill="#acdbf7"/><path d="m43.5348837 110.4c-.1250593.850654-.1996085 1.70797-.2232558 2.567442-.3484641 3.114998-.8702028 6.208163-1.5627907 9.265116-.6697674 2.902326-1.5627907 5.804651-2.344186 8.706977-1.5627907 5.804651-2.9023256 11.832558-4.8 17.637209-1.8976745 5.804651-3.683721 10.827907-5.0232559 16.409303-2.8395824 10.984448-4.4126096 22.257809-4.688372 33.6 0 1.72621-1.3993705 3.125581-3.1255814 3.125581-.7144572.043331-1.4311548-.032111-2.1209303-.223256h-.1116279c-1.3548107-.362811-2.2802965-1.612217-2.2325581-3.013953 0-4.688372-.5581396-9.265117-.6697675-13.841861-.0178646-4.477008.2431056-8.950783.7813954-13.395349.7813953-8.148837 3.0139535-16.074418 4.2418605-24.223256.7043284-3.827056.9665135-7.722378.7813953-11.609302-.2232558-4.018604-.7813953-7.925581-1.1162791-11.832558-.2226751-4.958909.0014852-9.927796.6697675-14.846512.2232558-2.455814 3.4604651-11.6093019 5.5813953-12.6139531.7709358-.345692 1.6351786-.4242596 2.455814-.2232558h.3348837l.5581395-.4465116c2.0093024-1.227907 4.6883721-.8930233 6.8093024-.1116279 2.1209302.7813953 4.4651162 2.0093023 5.5813953 4.1302325v.3348837l.2232558-.3348837c.2157764-.647329.9154616-.9971716 1.5627907-.7813952.6473291.2157763.9971717.9154615.7813954 1.5627901h.1116279c.3353168-.035605.668759.082273.9071967.320711.2384377.238437.3563155.57188.3207103.907196.2232558 3.23721-1.7860466 6.362791-3.7953489 8.818605" fill="#92d2f4"/><path d="m53.5813953 26.0093023c.5581396 2.5674419 1.3395349 5.1348837 1.6744187 7.7023256.3348837 2.5674419.1116279 3.6837209-1.6744187 4.6883721-2.156007 1.0793368-4.4457838 1.8676206-6.8093023 2.344186-4.7367046 1.4937897-9.6584371 2.3203402-14.6232558 2.455814-1.5627907 0-5.4697674.3348837-6.6976744-.7813953-1.227907-1.1162791-1.227907-4.5767442-1.4511628-6.1395349-.2415852-1.625325-.3163927-3.2710884-.2232558-4.9116279.0771889-2.4775451.3760566-4.9432032.8930232-7.3674419.6697675-3.4604651 2.1209303-7.9255814 5.2465117-9.8232558h.1116279c1.6265597-1.8551126 3.8271201-3.1125756 6.2511628-3.572093 2.6941684-.4410509 5.4577888.0721929 7.8139535 1.4511628 2.4711706 1.3895296 4.5461478 3.3876558 6.0279069 5.8046511 1.558436 2.5657859 2.7247984 5.3500057 3.4604651 8.2604651" fill="#312b2b"/><path d="m43.3116279 45.2093023c-1.7860465 1.5627907-5.5813953 2.2325582-7.144186-.1116279-.4652485-.0466049-.8851871-.2990805-1.1445522-.688128-.259365-.3890475-.3309046-.8737892-.1949827-1.3211743v-1.0046512c.1660842-.7726429.2779845-1.5559453.3348837-2.344186.0919011-.2882568.1297458-.5910141.1116279-.8930233v-.5581395c-.0492537-.4025403.0721818-.8073255.3348837-1.1162791v-.6697674c.4465117-1.6744186 2.1209303-1.3395349 2.455814 0 .273967.2981537.4999206.637084.6697674 1.0046511v.2232559c.0924242.4023936.1299742.8154432.1116279 1.2279069h.1116279c.2043563-.1841103.4752622-.2763813.7495121-.2552852.27425.0210962.5278567.1537144.7016507.3669131h.5581396v-.6697674c.2749243-.4181568.7761081-.6276342 1.2668282-.5294902.4907202.098144.8727831.4842708.9657299.9760018.1120817.2871241.1120817.6058992 0 .8930233 0 .3348837-.1116279.7813953-.1116279 1.1162791v.8930232 1.5627907c.1337219.6673844-.0292318 1.3599376-.4465116 1.8976744" fill="#866552"/><path d="m44.0930233 11.944186c.4148315 2.2015197-.4493968 4.4485135-2.2325582 5.8046512-1.9411665 1.2861292-4.3497087 1.6535339-6.5860465 1.0046512-2.3874414-.6345541-4.3581395-2.3178629-5.3581395-4.5767442h.1116279c1.5857602-1.9247367 3.7991206-3.2290384 6.2511628-3.6837209 2.6941684-.4410509 5.4577888.0721929 7.8139535 1.4511627" fill="#312b2b"/><path d="m43.7581395 39.7395349c0 .3348837-.1116279.7813953-.1116279 1.1162791-.0181178.3020092.0197268.6047664.1116279.8930232s-2.9023255 5.3581395-8.7069767.3348837c.2034295-1.0708337.3524578-2.1512893.4465116-3.2372093v-.5581395c-.0492537-.4025403.0721818-.8073255.3348837-1.1162791v-.2232558l3.2372093.7813954 2.455814.6697674 2.2325581.4465116c.1120818.2871241.1120818.6058992 0 .8930233" fill="#694f3f"/><g fill="#866552"><path d="m45.7674419 16.9674419c-.5463791-.3166782-1.156573-.5073638-1.7860466-.5581396-1.3395348-.1116279-3.0139534 1.0046512-4.3534883 1.227907s-5.4697675.3348837-6.6976744 2.5674419c-1.227907 2.2325581.1116279 4.4651162.5581395 6.6976744 0 .4465116.1116279.8930232.1116279 1.3395349-.6000024-.2581431-1.2715449-.2976456-1.8976744-.1116279-.5453777.1541646-.9143938.6615618-.8930233 1.2279069.3302786 1.7493791 1.5618273 3.1932639 3.2372093 3.7953489.1194749.7714568.3448574 1.5227318.6697675 2.2325581 1.2279069 2.455814 3.572093 3.7953488 5.916279 5.0232558 1.9860608 1.1814427 4.5058205.9564641 6.2511628-.5581395 2.0093024-1.3395349 2.5674419-3.4604651 2.7906977-5.8046512.3921833-2.490192.2782862-5.0338935-.3348837-7.4790697-.8930233-3.1255814-.4465116-8.0372093-3.572093-9.6"/><path d="m27.9069767 66.7534884c0-2.2325582.5581396-17.4139535-1.4511627-19.3116279-2.0093024-1.8976745-2.2325582 1.2279069-2.6790698 1.8976744-.4465116.6697674-1.6744186 4.0186046-2.3441861 6.3627907-1.2691403 5.9486139-1.9792085 12.0028789-2.1209302 18.0837209-.2232558 7.3674419-1.3395349 14.8465116-2.1209302 22.2139535-.4827134 4.262641-.7435304 8.547491-.7813954 12.837209v6.920931c0 1.227907-.1116279 2.567441.8930233 3.237209 1.0046511.669767 2.0093023-1.339535 2.344186-2.67907l1.6744186-8.372093c1.3763365-6.378597 2.4196093-12.8245326 3.1255814-19.3116279.2369655-2.1139017.6476564-4.204692 1.227907-6.2511628 1.2037708-4.3762589 1.9519331-8.8652322 2.2325581-13.3953488z"/><path d="m53.0232558 85.3953488 1.0046512 1.6744186c1.4511628 2.455814 2.9023256 4.6883721 4.4651163 7.0325582 1.5627907 2.344186 3.4604651 6.4744184 5.0232558 4.3534884 1.5627907-2.1209303.4465116-.6697675.3348837-1.5627907-.2232558-3.7953489-2.0093023-7.7023256-3.3488372-11.1627907-1.3752284-3.2715714-2.9791979-6.4422086-4.8-9.4883721-1.5627907-2.7906977-.4465116-5.5813954-.2232558-8.5953489.4280739-4.192104.4654441-8.41493.1116279-12.6139535-.2232558-2.5674418-.3348837-9.2651162-2.9023256-10.8279069s-2.6790698 2.5674418-1.8976744 3.4604651c-1.2127381 2.1475723-2.0436658 4.4892776-2.455814 6.9209302-.2583577.2290107-.4183177.5489307-.4465116.8930233-.487465 4.1958406-.4123827 8.4379908.2232558 12.6139535.3348837 2.7906976.5581395 5.5813953.8930233 8.372093.3348837 2.7906977 2.2325581 6.1395349 4.0186046 8.9302325"/><path d="m56.0372093 92.5395349c-.6697674-1.8976744-1.5627907-3.7953489-2.2325581-5.8046512-.6512405-2.1694558-.9157368-4.4365673-.7813954-6.6976744.2232558-4.2418605 1.5627907-8.372093 2.3441861-12.5023256v-.2232558c0-.3348837.1116279-.5581395.1116279-.7813953v-1.4511628c.0184194-.4863984-.0190349-.9733039-.1116279-1.4511628v-.6697675c-.3651779-1.9992948-.8497663-3.9749246-1.4511628-5.916279-1.0046512-4.3534884-1.7860465-8.483721-1.227907-12.8372093-2.1209302-.6697675-4.5767442-.5581396-6.6976744-1.0046512-1.2067931-.4323104-2.5379703-.351633-3.683721.2232558-.6443984.4804833-1.3600373.8571353-2.1209302 1.1162791-1.4511628.2232558-2.2325581-.6697675-3.3488372-1.227907-.4496717-.2269243-.9475247-.3418135-1.4511628-.3348837-1.0046512 0-2.2325581 1.0046511-3.1255814 1.4511628l-6.3627907 2.7906977c-1.1117383.3003725-1.8874678 1.3042577-1.8976744 2.4558139-.2232558 1.6744186.6697674 3.2372093.7813953 4.9116279.111628 1.6744186.6697675 4.5767442 1.1162791 6.9209302 1.0046512 4.3534884 2.7906977 8.5953489 3.6837209 13.0604652.7867623 3.3777294.5536708 6.9129508-.6697674 10.1581395l-2.6790698 6.8093023c-.3348837 1.227907-1.3395348 2.455814-1.3395348 3.683721 0 1.2279069 5.2465116 3.3488372 7.0325581 3.9069767 4.0588805 1.3403646 8.2506118 2.2385936 12.5023256 2.6790696 2.6044728.339841 5.2481063.226543 7.8139535-.334884 1.631091-.339936 3.1836728-.98369 4.5767442-1.897674l-.3348838-5.4697674c-.1998489-.5049855-.3494099-1.0284489-.4465116-1.5627907"/></g><path d="m55.144186 74.455814c-.7082188 2.8464808-.8598342 5.8029809-.4465116 8.7069767.1116279 1.1162791.4465116 2.2325581.5581396 3.3488372.1116279 1.1162791.1116279 1.0046512.2232558 1.4511628v1.3395349c.3348837 2.1209302.5581395 4.2418604 1.0046511 6.2511628.4465117 2.0093023.1116279 2.6790697.2232558 4.0186046-1.3930713.913984-2.9456531 1.557738-4.5767441 1.897674-2.5658472.561427-5.2094807.674725-7.8139535.334884-4.2517138-.440476-8.4434451-1.338705-12.5023256-2.6790696l-3.6837209-1.0046512c-1.7860466-.5581395-3.4604652-1.4511628-3.3488373-2.9023255.111628-1.4511628 1.0046512-2.455814 1.3395349-3.683721l2.6790698-6.8093023c1.2234382-3.2451887 1.4565297-6.7804101.6697674-10.1581395-.4465116-2.0093024-1.0046511-3.9069768-1.5627907-5.9162791.718467-1.7527473 1.2062672-3.5913788 1.4511628-5.4697675 0-.6697674.1116279-1.3395348.1116279-2.0093023-.112872-2.0570517-.3364517-4.1065315-.6697674-6.1395349-.3429973-2.7813186-1.2144467-5.4714451-2.5674419-7.9255814l3.0139535-1.3395348.4465117.4465116c3.8568894 2.7156919 8.6456636 3.7619787 13.2837209 2.9023256 3.316607-.6445051 6.2671623-2.5185064 8.2604651-5.2465117.8074858.1190256 1.5957034.3442307 2.344186.6697675 0 3.3488372-.2232558 6.8093023 1.1162791 9.9348837s4.9116279 8.5953488 3.3488372 12.9488372c-.4241573.9700833-.9883002 1.8727121-1.6744186 2.6790698h-.1116279c-.3642703.7543737-.6630437 1.5386539-.8930232 2.344186l-.3348838 1.8976744" fill="#f6a000"/><path d="m56.4837209 70.1023256h-.1116279c-.3642703.7543737-.6630437 1.5386539-.8930232 2.344186-1.4691207-.0309003-2.9149443-.3733322-4.2418605-1.0046511 1.8718159.2276033 3.7577088-.2940266 5.2465116-1.4511628" fill="#df9300"/><path d="m32.5953488 72.7813953c.8930233 4.2418605 1.0046512 11.1627907-.1116279 13.9534884-1.116279 2.7906977-3.1255814 8.372093-4.2418604 11.3860465-1.7860465-.5581395-3.4604652-1.4511628-3.3488372-2.9023255.1116279-1.4511628 1.0046511-2.455814 1.3395348-3.683721l2.6790698-6.8093023c1.2234382-3.2451887 1.4565297-6.7804101.6697674-10.1581395-.4465116-2.0093024-1.0046511-3.9069768-1.5627906-5.9162791.718467-1.7527473 1.2062671-3.5913788 1.4511627-5.4697675-.1116279.6697675.2232559 7.4790698 3.1255814 7.9255814 1.6606535.2752247 3.3520156.3128106 5.0232559.111628-1.3287015 1.2933422-3.1953377 1.8740735-5.0232559 1.5627906" fill="#df9300"/><path d="m25.1162791 129.823256c-2.0093024-5.916279-4.3534884-7.367442-6.027907-7.367442s-5.2465116 3.237209-5.4697674 5.358139c.0105991.252452-.1015283.494448-.3009773.649575-.1994489.155127-.4615989.204236-.7036739.131821-.4465116-.111628-.8930233-.55814-.7813954-1.004651.5581396-2.902326 3.3488372-6.809303 7.255814-7.032558 3.9069767-.223256 5.6930232 2.567441 7.7023256 8.706976.1091917.219666.1088901.477858-.0008147.697267-.1097048.21941-.3160775.374567-.5573249.419054h-.3348837c-.3914701.003971-.7254887-.282331-.7813953-.669809" fill="#010101"/><path d="m30.3627907 153.488372c1.4511628-.558139 5.5813953-2.67907 5.5813953-4.130232 0-1.451163-.3348837-19.423256-1.0046511-20.651163-.6697675-1.227907-27.90697676-3.013954-28.91162792-3.013954-1.19755464.218313-2.36107912.593644-3.46046512 1.116279l24.55813954 11.274419z" fill="#2d2e2f"/><path d="m31.255814 152.260465c.005087.426872-.1780436.834329-.500649 1.11392-.3226054.279592-.7519544.40295-1.1737697.337243l-28.0186046-5.023256c-.34595767.001433-.67646808-.143143-.9102422-.398169-.23377412-.255027-.34911871-.596838-.31766478-.941366l1.5627907-19.534884c0-.739804.59973019-1.339534 1.33953488-1.339534l27.1255814 2.567441c.7813953.111628 1.7860465 1.004652 1.6744186 1.897675z" fill="#030204"/><path d="m14.9581395 143.553488c0 .781396-.5581395 1.339535-1.116279 1.227907l-8.81860469-1.451162c-.55838977-.264633-.90841964-.833432-.89302325-1.451163l.55813953-6.139535c0-.781395.44651163-1.227907 1.00465117-1.116279l8.70697674 1.227907c.5581395 0 1.0046512.669767 1.0046512 1.451163z" fill="#2d2e2f"/><path d="m28.0186047 145.674419c0 .781395-.5581396 1.339534-1.1162791 1.227907l-9.3767442-1.562791c-.6243694-.201069-1.0362284-.795977-1.0046512-1.451163l.4465117-6.362791c0-.781395.4465116-1.339534 1.116279-1.227907l9.2651163 1.339535c.6417871.243723 1.0493708.877742 1.0046512 1.562791z" fill="#2d2e2f"/><path d="m22.772093 131.274419c-2.0093023-5.916279-4.3534883-7.47907-6.027907-7.47907-1.6744186 0-5.1348837 3.348837-5.3581395 5.469767-.0522867.240928-.2018481.449522-.4132513.576364-.2114033.126842-.4658387.160646-.7030278.093404-.2326242-.023303-.44259351-.149541-.57227601-.344064-.12968251-.194524-.16545231-.436895-.09749139-.660587.4465116-2.902326 3.2372093-6.809303 7.144186-6.920931 3.9069768-.111628 5.8046512 2.567442 7.8139535 8.706977.0672426.237189.0334386.491625-.0934034.703028-.1268419.211403-.335436.360964-.576364.413251h-.2232558c-.3873727.027937-.7483873-.197697-.8930233-.558139" fill="#010101"/><path d="m20.3162791 123.125581c.0129717-.224113-.0871969-.439822-.2667879-.574515-.1795911-.134693-.4147183-.170457-.6262354-.095252l-.6697674.334884h-.4465117l1.0046512-.446512c.2241003-.141854.3174237-.421824.2232558-.669767h-.1116279c.5080827-.454432.8922201-1.030638 1.1162791-1.674419.6697674-1.339535.1116279-2.67907-.3348837-4.018605-.4465117-1.339535-.4465117-2.009302-1.4511628-2.12093-.363678-.111914-.7526012-.111914-1.1162791 0 .1116279-.781395-1.0046512-.781395-1.1162791 0-.023356.272421-.099166.537756-.2232558.781395l-.2232558.334884v.334884l-.3348837.669767c-.4390972.940322-.8120947 1.910115-1.1162791 2.902326-.5806448 1.169423-.5387607 2.551601.1116279 3.683721.5150975 1.092404 1.2798684 2.048367 2.2325582 2.790698 1.2279069.558139 2.344186-.55814 3.4604651-1.004652 1.116279-.446511.4465116-1.116279 0-1.116279" fill="#866552"/><path d="m118.437209 108.837209.334884-1.339535c-1.931937.659139-4.039511.579608-5.916279-.223255v1.004651h-.111628l-2.790698 9.934883 1.116279 6.362791 2.232559 3.013954c.40422.143076.852505.083992 1.20585-.158933.353345-.242924.569038-.640325.580196-1.068974l1.227907-9.041861s1.116279-.334883 1.227907 1.004651c.111628 1.339535.669767 3.572093 2.344186 3.572093v-6.697674z" fill="#f9c5af"/><path d="m160.967442 100.353488c-.111628 0-36.948837.223256-37.172093.111628l-.446512 19.423256 1.562791 32.930233 4.24186 47.218604h8.03721l1.56279-46.437209 2.455814-34.493023h1.786047l3.683721 33.376744 7.144186 47.665116h7.813953l-.781395-47.776744.781395-34.046512z" fill="#de5d3f"/><path d="m160.967442 100.353488h-9.153489c.334884.446512-28.8 7.590698-28.130232 7.702326 11.051163 1.674419 32.930232 1.227907 33.153488 5.469767.223256 4.241861-1.004651 37.730233-.558139 47.330233.446511 9.6 1.227907 36.055814 1.56279 39.181395h3.795349l-.781395-47.776744.781395-34.046512z" fill="#d52e1e"/><path d="m133.84186 184.297674c.111628 5.246512.111628 10.493024-.223255 15.739535h3.572093l1.56279-46.437209 2.455814-34.493023s-5.358139 22.660465-6.027907 31.255814c-.669767 11.274418-1.339535 22.660465-1.339535 33.934883z" fill="#d52e1e"/><path d="m159.293023 82.4930233.669768-22.1023256-1.116279-5.2465117-.446512 5.5813954-1.562791 21.544186 1.562791 17.9720926 2.567442.111628-.223256-4.2418601z" fill="#010101" opacity=".1"/><path d="m153.823256 200.037209-5.134884 3.572093c-4.688372.446512-5.023256 5.469768-5.023256 5.469768h19.423256c.243849-3.086536-.253699-6.186647-1.451163-9.041861z" fill="#e6ebee"/><path d="m148.688372 209.07907h4.241861c.139273-.416441.36786-.797419.669767-1.116279 2.432572-2.511277 5.468978-4.356182 8.818605-5.35814-.026136-.188091-.063411-.374465-.111628-.558139-5.246512.893023-10.269768 2.12093-13.618605 7.032558z" fill="#182e38"/><path d="m129.153488 200.037209-9.488372 3.572093c-4.688372.446512-4.911628 5.469768-4.911628 5.469768h23.330233c.348475-3.043167.044032-6.12566-.893023-9.041861z" fill="#e6ebee"/><path d="m122.67907 209.07907h4.911628c.120158-.301747.311673-.569868.558139-.781396 2.683413-2.489191 5.832032-4.423885 9.265116-5.693023-5.581395 1.004651-11.274418 2.67907-14.734883 6.474419z" fill="#182e38"/><path d="m143.665116 209.07907h19.423256c0-.669768.111628-1.339535.111628-2.009303h-19.088372c-.198901.657653-.348158 1.329307-.446512 2.009303z" fill="#2f5a71"/><path d="m115.2 207.069767c-.262933.639215-.413972 1.318889-.446512 2.009303h23.330233c0-.669768.111628-1.339535.111628-2.009303z" fill="#2f5a71"/><path d="m174.027907 75.3488372-5.581395-31.2558139c-1.174174-2.9390258-3.721472-5.1104924-6.809303-5.8046512l-18.530232-6.6976744h-.669768l-18.418604 6.6976744c-3.130029.6608844-5.725204 2.8374833-6.920931 5.8046512l-2.009302 33.6-2.790698 31.2558137 6.586047 1.339535 5.023256-28.688372s.669767-14.6232558.669767-17.1906977l.334884 17.8604651-1.004651 13.6186047-.223256 12.1674419c12.502326-.223256 25.116279-.111628 37.618605-.111628l-.55814-12.0558139-1.451163-13.3953488v-.8930233l10.269768 1.4511628c1.317422.1682556 2.641369-.2586902 3.612301-1.1648931.970932-.9062028 1.488062-2.1975958 1.410955-3.523479zm-14.288372-4.1302325.334884-10.6046512 1.56279 10.4930232z" fill="#182e38"/><path d="m174.027907 75.3488372-5.581395-31.2558139c-.686712-1.7677065-1.893279-3.2856464-3.460465-4.3534884 2.344186 4.2418604 3.125581 11.2744186 3.237209 12.0558139 1.004651 5.6930233 1.339535 11.2744186 2.344186 17.0790698.558139 2.6790698 1.562791 6.6976744-.446512 9.1534884-2.009302 2.4558139-22.883721.6697674-28.688372-.1116279-2.790698-.3348838.334884-5.6930233.334884-5.6930233h4.353488l13.618605-1.0046511s.223256-9.2651163.334884-10.6046512c-.334884 2.7906977-1.897675 6.2511628-4.353489 7.8139535s-6.92093 1.8976744-10.381395 1.7860465c-6.92093-.3348837-13.730233.4465116-20.651163.7813953l-.558139 10.9395349 8.260465.5581396c.415158.0636378.838456-.0425113 1.174462-.2945154.336006-.2520042.556432-.6286493.611584-1.0450195.223256-.8930233-.111628-1.7860465 1.116279-1.8976744 6.92093-.3348838 14.623256 2.5674418 20.762791 5.3581395l3.683721 2.0093023-.446512-4.1302325v-.8930233l10.269768 1.4511628c1.317422.1682556 2.641369-.2586902 3.612301-1.1648931.970932-.9062028 1.488062-2.1975958 1.410955-3.523479z" fill="#010101" opacity=".14"/><path d="m127.925581 64.186043h-23.106976c-1.227907 0-1.451163.4465151-1.451163 1.3395384l2.790698 14.9581395c0 1.0046512.781395 1.4511628 1.786046 1.4511628h22.883721c1.004651 0 1.786046-.4465116 1.786046-1.3395349l-2.902325-14.7348837c-.059024-.9425633-.841639-1.6762648-1.786047-1.6744221z" fill="#9abccc"/><path d="m138.195349 70.4372093-6.251163-2.344186h-1.897674l1.674418 8.7069767 3.23721 1.1162791c1.351526.3091759 2.76791.1517999 4.018604-.4465117l2.455814.4465117-.446511-5.4697675z" fill="#f9c5af"/><path d="m122.567442 70.5488372 1.227907 3.9069768c.371291 1.0173856 1.197481 1.8022666 2.232558 2.1209302l6.586046 1.6744186 4.576745-.2232558 1.339535-.4465117 3.125581.4465117.781395-5.8046512-8.706976-2.344186z" fill="#f9c5af"/><path d="m128.930233 10.827907 1.339534 11.3860465c.306393 2.4740695 1.585391 4.7242838 3.554349 6.2533683 1.968958 1.5290846 4.465773 2.2111508 6.938675 1.8954689 5.358139-.5581395 9.265116-10.6046512 9.265116-14.0651163l-.893023-7.81395347z" fill="#f9c5af"/><path d="m136.297674 23.3302326-.334883 11.8325581c.558139 2.0093023 3.237209 6.4744186 4.353488 8.8186046.439308-.1134288.900227-.1134288 1.339535 0 1.786046-2.6790697 6.362791-8.1488372 6.362791-9.488372l-1.116279-11.9441861z" fill="#f9c5af"/><path d="m136.074419 31.144186v2.0093024c2.232558 1.6744186 6.474418.1116279 8.483721-1.3395349 1.210248-1.0154699 2.198238-2.2694577 2.902325-3.6837209l-.446512-4.9116279c-1.786046 4.0186046-6.92093 6.5860465-10.939534 7.9255813z" fill="#d8ac99"/><path d="m138.753488 1.00465116-12.390697 2.34418605c-2.120931 6.3627907 2.567442 7.47906979 2.567442 7.47906979l12.167441-1.33953491c.781771-.16668462 1.597136.02442234 2.223419.52112971.626283.4967075.998057 1.2471242 1.013791 2.0463122l.558139 3.1255813h1.562791s.334884-1.3395348 1.227907-1.4511627 1.227907-.1116279 1.451163 1.7860465c.558139 5.1348837-2.009303 4.9116279-2.009303 4.9116279l-.334883 3.9069767.446511 1.5627907c1.584618-3.1552311 2.640519-6.5491967 3.125582-10.0465116l-.893024-7.25581396c-1.004651-8.48372093-10.716279-7.59069768-10.716279-7.59069768z" fill="#764131"/><path d="m135.962791 29.8046512v1.116279c3.042945 1.0351732 6.404302-.0549968 8.260465-2.6790697-2.320761 1.8654828-5.418628 2.4515657-8.260465 1.5627907z" fill="#010101" opacity=".1"/><path d="m146.344186 13.5069767h-1.562791c.669768 10.9395349-3.572093 11.1627907-8.818604 11.8325582-5.246512.6697674-5.804651-4.3534884-5.804651-4.3534884s0 11.9441861 7.032558 11.6093023c10.827907-.6697674 10.046511-12.2790697 10.046511-12.2790697z" fill="#764131"/><path d="m140.427907 25.4511628c-.082872-.9118509-.535487-1.7500053-1.25251-2.3194062s-1.635919-.8203866-2.542839-.6945473l-2.455814.3348837c-.911851.0828722-1.750005.5354866-2.319406 1.2525099-.569401.7170234-.820387 1.6359187-.694547 2.542839v.8930232c.082872.9118509.535486 1.7500053 1.25251 2.3194062.717023.5694009 1.635918.8203866 2.542839.6945473l2.455813-.3348837c.911851-.0828722 1.750006-.5354865 2.319407-1.2525099.569401-.7170233.820386-1.6359187.694547-2.542839z" fill="#764131"/><path d="m133.172093 26.0093023c.111628 1.5627907 1.227907 1.3395349 2.567442 1.227907s2.455814-.3348837 2.232558-1.7860465z" fill="#f9c5af"/><path d="m120.781395 70.4372093c-.510859.0571058-.896205.4906201-.893042 1.0046512.056595.4491718.440335.7849444.893042.7813953l10.269768.2232558-.223256-2.7906976z" fill="#f9c5af"/><path d="m136.074419 32.5953488h-.669768l-2.232558 1.8976745c0 2.7906976 1.786047 7.2558139 1.786047 7.2558139l3.572093-4.5767442c-3.125582-1.8976744-2.455814-4.5767442-2.455814-4.5767442z" fill="#f8f9fa"/><path d="m136.297674 39.8511628c.195863 2.1531003 1.871678 3.8754654 4.018605 4.1302325l-1.786046-6.9209302z" fill="#d5dde2"/><path d="m144.334884 36.8372093 3.348837 3.9069767c1.129128-1.8958364 2.028483-3.9193852 2.67907-6.0279069l-2.567442-3.0139535s-1.004651 3.7953488-3.460465 5.1348837z" fill="#f8f9fa"/><path d="m141.655814 43.9813953c1.192563-.3387786 2.323163-.8663921 3.348837-1.5627906 1.897675-1.8976745 1.897675-2.6790698 1.897675-2.6790698l-2.567442-2.9023256z" fill="#d5dde2"/><path d="m103.925581 129.376744h5.916279v74.913488h-5.916279z" fill="#673328"/><path d="m159.293023 128.706977h-104.5953486c-1.417959 0-2.5674418-1.149483-2.5674418-2.567442 0-1.417959 1.1494828-2.567442 2.5674418-2.567442h104.5953486c.690285-.032159 1.362177.227996 1.850812.71663.488634.488635.748789 1.160527.71663 1.850812.032159.690285-.227996 1.362177-.71663 1.850811-.488635.488635-1.160527.74879-1.850812.716631z" fill="#673328"/><path d="m159.293023 128.706977c-34.158139 2.567442-68.9860463 2.12093-104.5953486 0z" fill="#673328"/><path d="m137.637209 209.07907h-61.6186045c-.0007052-2.607978 2.0810992-4.73935 4.6883722-4.8h52.1302323c2.650967 0 4.8 2.149033 4.8 4.8z" fill="#673328"/><path d="m116.204651 99.6837209h-41.1906975c-.5819869-.0736579-1.165323.1259878-1.5801327.5407971-.4148097.41481-.6144554.998146-.5407975 1.580133l3.0139534 21.655814h39.0697673l3.013954-21.655814c.446511-.893023-.893024-2.1209301-1.786047-2.1209301z" fill="#cfd6e0"/><ellipse cx="95.888372" cy="111.739535" fill="#adb4bb" rx="2.12093" ry="1.339535"/><path d="m118.883721 107.051163v7.925581l43.758139.334884v-7.925581zm6.586046 5.916279c-1.048056 0-1.897674-.849618-1.897674-1.897675 0-1.048056.849618-1.897674 1.897674-1.897674 1.048057 0 1.897675.849618 1.897675 1.897674 0 .503295-.199933.985976-.555816 1.341859s-.838564.555816-1.341859.555816z" fill="#454444"/><circle cx="125.469767" cy="111.181395" fill="#fff" r="2.232558"/><path d="m121.786047 115.646512v7.925581l43.646511.446512v-7.925582zm6.586046 5.916279c-1.024196-.055482-1.842193-.873479-1.897674-1.897675.055481-1.024196.873478-1.842193 1.897674-1.897674 1.048057 0 1.897674.849618 1.897674 1.897674.033187.512751-.156063 1.014955-.519391 1.378283s-.865533.552578-1.378283.519392z" fill="#454444"/><circle cx="128.372093" cy="119.776744" fill="#fff" r="2.232558"/><path d="m176.260465 86.1767442c2.097702-2.817545 4.411677-5.4674194 6.92093-7.9255814 2.790698-2.7906977 3.23721-7.4790698 3.906977-11.0511628.669768-3.572093 5.804651-21.3209302 11.497675-17.1906977.583926.5019619.911723 1.2395064.893023 2.0093024-.111628 3.1255813-1.786047 6.5860465-3.125582 9.3767441-.10308.2301928-.310933.3964752-.558139.4465117-.669768 3.7953488-1.004651 7.0325581-2.344186 10.4930232s-3.013954 5.4697675-4.130233 8.0372093c-1.116279 2.5674419-3.795349 5.3581396-6.139535 7.5906977l-1.451162 1.3395349c-1.897675 1.8976744-3.906977 3.6837209-5.91628 5.4697674-2.009302 1.7860465-4.911627 5.35814-5.916279 2.7906977-.223255-.7813954-.111627-.7813954.223256-1.6744186 1.227907-3.572093 3.906977-6.8093023 6.139535-9.7116279" fill="#f7ae83"/><path d="m164.874419 100.018605c0-.1116283 0-.1116283-.111628-.2232562-.252074-.3759534-.440634-.7907861-.55814-1.2279069-.018346-.4124638.019204-.8255133.111628-1.227907-.010368-.122222.03-.243327.111628-.3348837l1.786046.8930232.55814.3348837c.124533.2033037.2009.4324049.223256.6697675l-.334884.4465116-1.004651 1.1162788h-.55814c-.115352-.124587-.192797-.279477-.223255-.446511" fill="#f19d81"/><path d="m166.995349 95.3302326c-.87348.2022754-1.680548.6250254-2.344186 1.2279069-.278798.1609466-.449393.4594893-.446512.7813954-.111628.6697674.446512.8930232.893023 1.1162791.378137.1848954.600923.5859115.55814 1.0046511-.030458.1670344-.107903.3219244-.223256.4465116-1.451163 1.4511633-2.12093 2.0093023-3.572093 3.5720933.458592.220501.992571.220501 1.451163 0 .418758-.234133.795935-.535874 1.116279-.893023l2.67907-2.567442c.446511-.446512 1.227907-1.0046515 1.674418-.5581399.446512.4465116-1.004651 1.2279069-1.786046 1.5627909-.781396.334884-.334884.669767 0 .669767 1.026344.190866 2.087032.033727 3.013953-.446511 1.162714-.692278 2.00516-1.8155386 2.344186-3.1255818.111628-.4465116.111628-.8930232.223256-1.3395349.111628-.4465116.111628-.3348837 0-.5581395s-.111628-.2232558-.334884-.3348837c-1.551868-1.0341135-3.511814-1.2426184-5.246511-.5581395" fill="#f7b089"/><path d="m193.004651 51.4604651c.223256-.3348837-4.24186 7.7023256-5.469767 12.6139535s-2.455814 11.6093023-4.688372 13.9534884c-2.232559 2.344186-6.251163 6.6976744-6.251163 6.6976744l4.688372 5.8046512c2.453229-2.353592 4.764287-4.8510257 6.92093-7.4790698 2.393299-3.218855 4.17193-6.8518022 5.246512-10.7162791z" fill="#26262b"/><path d="m207.962791 112.074419c-.302001-1.809555-.488425-3.63651-.55814-5.469768-1.065889-.059306-1.899323-.941766-1.897674-2.009302v-3.683721c-.487412.343801-1.09213.478268-1.679306.373415s-1.10798-.440306-1.446276-.931555c-.32491-.709826-.550292-1.4611009-.669767-2.2325578-.635073.2965516-1.375646.2602011-1.978624-.0971192s-.990488-.9894635-1.03533-1.6889273c-.021941-.5975753.015451-1.1958536.111628-1.7860465-3.237209 6.3627908-.446511 13.7302328-3.348837 20.2046508-.334884 3.460465-2.344186 6.809303-2.67907 10.269768-.223255 1.562791-1.451162 3.906977-1.451162 5.581395-.893024 6.697675-2.790698 12.837209-3.125582 19.646512-.334884 8.706977-.223256 17.413953-.669767 26.12093-.111628 1.116279.334883 17.07907-1.674419 23.665116h.223256c2.09551.546264 4.32203-.096001 5.804651-1.674418 1.339535-6.251163 2.902326-12.502326 4.241861-18.865117.729656-3.280426 1.288547-6.596515 1.674418-9.934883.446512-3.460465.55814-6.809303.893023-10.269768.151391-3.295746.524326-6.577574 1.116279-9.823256.647643-3.131173 1.467493-6.224243 2.455814-9.265116 1.786047-5.804651 3.795349-11.72093 4.353489-17.748837.223256-2.67907.334884-5.469767.558139-8.260465l1.562791-.223256c.419649-.069881.808585-.264349 1.116279-.55814-.910585.072745-1.729297-.553328-1.897674-1.451162" fill="#e6b289"/><path d="m191.776744 195.013953c-1.116279 2.902326-2.009302 5.91628-3.348837 8.818605h.223256c-.334884 1.004651-.669768 2.009302-1.116279 3.013954l-.446512.669767c0 .111628-.111628.223256-.111628.334884h-.111628c-1.004651 0-1.897674 1.897674-.781395 2.455814 1.116279.558139 3.683721-3.348837 4.24186-4.8.55814-1.451163 2.790698-5.246512 3.013954-7.925582.101512-1.134431-.525339-2.209034-1.562791-2.679069" fill="#bfc3c6"/><path d="m192.446512 195.013953c.072487-.448937.034166-.908787-.111628-1.339534-1.451163-1.004652-3.23721-1.004652-5.023256-1.004652h-.55814c.073586 2.322178-.633921 4.601921-2.009302 6.474419-2.009302 2.232558-3.683721 3.795349-4.576744 6.809302.111628.223256.111628.446512.223256.669768.231612.969193.857538 1.797584 1.726614 2.285114.869077.487531 1.902294.589879 2.85013.282328l.558139-.334884c.583314-.161357 1.094807-.515467 1.451163-1.004651.484709-.643501.931961-1.314379 1.339535-2.009303.731117-.818959 1.367686-1.717644 1.897674-2.679069.446512-.781396.55814-1.674419 1.004652-2.344186.446511-.669768 1.339535-2.009303 1.786046-3.013954.44527-.988264.221917-2.149701-.558139-2.902325" fill="#2f262e"/><path d="m179.72093 206.95814c-.37182.594906-.385094 1.346414-.034517 1.954082.350577.607667 1.007806.972346 1.708936.948243l2.67907.893023c.852128.112321 1.715313.112321 2.567441 0 .936788-1.12297 1.415183-2.558156 1.339535-4.018604.00693-.503638-.107959-1.001491-.334883-1.451163-.491269-.543187-1.102962-.963726-1.786047-1.227907-1.051466-.59531-2.255216-.867124-3.460465-.781395-1.109546.029151-2.086221.73946-2.455814 1.786046-.129067.624926-.203764 1.259857-.223256 1.897675" fill="#bfc3c6"/><path d="m227.497674 103.590698c.03043-.72967-.238337-1.440138-.744096-1.96697-.505759-.526833-1.204669-.824362-1.934973-.823728-1.036732-.057367-2.005958.515357-2.455814 1.451163h-10.493024c.334884 0 .55814.558139.669768 1.786046-1.368887-.233153-2.700943.575595-3.125582 1.897675-1.116279 2.679069-.893023 5.693023-.558139 8.372093s1.004651 5.469767 1.227907 8.037209c.893023 7.255814 2.232558 14.511628 3.237209 21.767442.334884 2.009302.55814 4.018605.781396 6.139535.223255 15.069767 1.339534 30.251163 1.339534 45.32093.223256.55814.334884 1.116279.55814 1.674419.209462.740961.509395 1.453301.893023 2.12093 1.270967 1.231851 3.059448 1.772555 4.8 1.451163h.223256c-.558139.223255 0-15.851163.223256-17.413954 1.339535-7.702325 3.348837-15.293023 2.902325-23.106977-.446511-7.813953 1.004652-17.972093 2.232559-26.790697 1.227907-8.818605.558139-19.534884.223255-29.693024" fill="#e6b289"/><path d="m217.004651 195.013953c.893023 3.013954 1.562791 6.027907 2.567442 9.041861h-.223256c.334884 1.004651.55814 2.12093.893023 3.013953l.334884.781396c0 .111628.111628.223256.111628.334884.111628 0 .111628 0 .111628.111627 1.004651.111628 1.674419 2.009303.55814 2.567442-1.11628.55814-3.348838-3.683721-3.795349-5.134883-.446512-1.451163-2.344186-5.581396-2.344186-8.148838.014808-1.140365.722013-2.156972 1.786046-2.567442" fill="#bfc3c6"/><path d="m216.446512 194.902326c-.093365-.458765-.013851-.93585.223255-1.339535 1.62734-.663652 3.417419-.819311 5.134884-.446512h.223256c-.179429 2.354768.407973 4.704375 1.674419 6.697674 1.786046 2.344187 3.348837 4.130233 3.906976 7.255814-.111628.223256-.111628.446512-.223255.669768-.345616.922625-1.056953 1.661535-1.965773 2.041971-.908821.380437-1.934417.368615-2.834227-.032669-.223256-.111628-.334884-.111628-.446512-.334884-.625171-.198862-1.171919-.589397-1.562791-1.116279-.328077-.729282-.70088-1.437606-1.116279-2.12093-.627871-.866173-1.152359-1.802758-1.562791-2.790697-.334883-.893024-.446511-1.674419-.781395-2.567442-.334884-.893024-1.116279-2.009303-1.562791-3.125582-.314474-1.025447.041646-2.138323.893024-2.790697" fill="#2f262e"/><path d="m228.055814 207.962791c0 .893023 0 1.786046-.55814 2.12093-.438243.310896-.930254.537978-1.451162.669767l-2.790698.55814c-.819869.074766-1.646109.03721-2.455814-.111628-.815132-1.25532-1.17015-2.754286-1.004651-4.24186.051415-1.292148 1.055825-2.344387 2.344186-2.455814 1.124546-.483525 2.363127-.638348 3.572093-.446512 1.05984.202675 1.919749.976593 2.232558 2.009302 0 .669768.111628 1.227907.111628 1.897675" fill="#bfc3c6"/><path d="m209.07907 11.7209302c-1.275656.4906079-2.714943.278948-3.795349-.5581395-1.674419-1.33953489-6.027907.2232558-7.702326 4.2418605-.510209 1.3534791-.738138 2.7970265-.669767 4.2418604.160967 3.2793916 1.464151 6.3991354 3.683721 8.8186047 5.693023 6.1395349 5.246511 14.0651163 9.376744 14.2883721 6.697674.2232558 12.948837-8.7069768 12.613954-17.9720931.446511-13.0604651-9.041861-14.95813949-13.506977-13.0604651z" fill="#a4a3a3"/><path d="m204.948837 37.9534884.223256 7.3674418-2.567442.2232558c-1.297896 2.8695928-2.307505 5.8610262-3.013953 8.9302326-.55814 3.6837209 10.716279 5.4697674 14.623255-6.2511628 3.906977-11.7209302-3.572093-14.8465116-3.572093-14.8465116z" fill="#e6b289"/><path d="m210.64186 33.3767442-5.693023 4.5767442.223256 6.4744186h.111628l8.930232-5.1348837v-2.0093024c-.932672-1.5166823-2.144835-2.8424865-3.572093-3.9069767z" fill="#d89c73"/><path d="m197.246512 25.1162791c.669767 2.1209302-1.339535 5.5813953-.781396 7.5906976 1.092293 2.7806234 2.476801 5.4373823 4.130233 7.9255814.629013 1.129275 1.73862 1.9101102 3.013953 2.1209303.776829-.0147443 1.540183-.2055829 2.232558-.5581396l8.595349-4.9116279-.893023-14.7348837-13.618605-5.3581395-1.674418 1.7860465c-1.090157 1.2140709-1.58137 2.8514481-1.339535 4.4651163z" fill="#e6b289"/><path d="m212.316279 30.2511628c.208456-.7603239.802467-1.3543344 1.562791-1.5627907.370504-.1278988.778438-.0871054 1.116279.1116279 1.339535.6697674-.111628 4.6883721-2.12093 5.0232558-2.009303.3348837-.893024-2.2325581-.55814-3.572093z" fill="#e6b289"/><path d="m192.446512 76.4651163.223255.3348837 2.232559-2.9023256-.446512-.8930232c-1.467462-3.2981741-1.782026-6.9942991-.893023-10.4930233l1.004651-4.3534884-1.674419 3.5720931c-2.153987 4.6447527-2.315304 9.9682286-.446511 14.7348837z" fill="#010101" opacity=".05"/><path d="m212.986047 76.3534884s-6.474419-1.227907-9.376745-1.4511628c-2.902325-.2232558-5.693023.5581395-5.469767.8930232 4.862114 1.1741398 9.909965 1.3639087 14.846512.5581396z" fill="#010101" opacity=".05"/><path d="m203.72093 45.0976744s-3.906977 1.4511628-6.251163 2.1209303c-2.344186.6697674-5.581395 5.0232558-6.027907 8.1488372-.446511 3.1255814.334884 22.4372093 0 29.3581395-.334883 6.9209302-5.023255 37.8418606-6.027907 47.1069766-1.004651 9.265116-3.906976 60.167442-3.795348 61.283721s8.595348 5.023256 17.637209 5.35814c9.04186.334883 21.544186-.55814 25.562791-1.897675 4.018604-1.339535 6.251162-6.586046 6.027907-9.711628-.223256-3.125581-2.120931-73.004651-2.902326-78.697674s-2.455814-40.967442-2.12093-46.3255815c.334884-5.3581396.669767-10.2697675 2.455814-12.3906977 0 0-4.576744-1.6744186-8.148837-2.5674419l-4.8-1.2279069s-3.795349 1.5627907-4.241861 1.2279069c-.446512-.3348837-7.367442-1.7860465-7.367442-1.7860465z" fill="#010101"/><path d="m203.609302 153.04186c1.227907-18.64186 5.134884-89.6372088 6.139535-106.6046507l-6.027907-1.3395349s-3.906977 1.4511628-6.251163 2.1209303c-2.344186.6697674-5.581395 5.0232558-6.027907 8.1488372-.446511 3.1255814.334884 22.4372093 0 29.3581395-.334883 6.9209302-5.023255 37.8418606-6.027907 47.1069766-1.004651 9.265116-3.906976 60.167442-3.795348 61.283721s8.595348 5.023256 17.637209 5.35814h.781395c.893024-9.488372 2.567442-29.804652 3.572093-45.432559z" fill="#131418"/><path d="m203.609302 45.8790698s-8.930232 31.0325581-8.260465 31.3674418c.669768.3348837 7.47907 0 7.47907 0l3.572093-15.6279069 1.562791-14.511628z" fill="#f6f6f6"/><path d="m211.646512 47.2186047s-.893024 32.1488372-.893024 32.2604651l-8.483721-2.1209303 2.120931-30.8093023z" fill="#fff"/><path d="m215.330233 104.818605c.446511.893023.446511 2.12093 1.56279 2.455814.953612.193967 1.945213.035311 2.790698-.446512 1.038323-.244876 1.88004-1.002421 2.232558-2.009302.346208-.762033.644464-1.544954.893023-2.344186.093073-.304307.204916-.602553.334884-.893024v-.334883l.334884-.669768c.334883-.446511-.334884-1.004651-.669768-.558139h-.111628c-.111627-.3348841-.334883-.446512-.558139-.6697678s-1.562791.1116279-2.12093.4465116c-1.05803.4284982-1.928718 1.2200332-2.455814 2.2325582-.241235.524206-.355945 1.097754-.334884 1.674419-.223256 0-.334884.334883-.334884.558139l.334884.669768c-.064589-.057253-.104579-.137233-.111628-.223256l-.334884-.55814c-.055914-.155689-.193323-.267705-.357085-.2911s-.327039.045667-.42431.179472c-.334884-.223256-.893023.223256-.669767.669768" fill="#f7ae83"/><path d="m231.069767 86.6232558c-1.639126 1.5276043-3.1685 3.1688836-4.576744 4.9116279-2.232558 2.5674419-4.8 5.4697675-6.139535 8.7069763-.334883.781396-.446511.781396-.223255 1.562791.223255.781396 4.24186-1.451163 5.358139-2.232558l5.693023-4.6883721 1.339535-1.116279c1.624797-1.3453911 3.119725-2.8403197 4.465117-4.4651163z" fill="#f7ae83"/><path d="m228.27907 49.4511628c1.058059.4107376 2.068588.9347152 3.013953 1.5627907.223256.3348837 8.372093 33.7116279 7.925582 35.7209302-.446512 2.0093023-7.702326 8.5953489-7.702326 8.5953489l-4.130232-5.1348838 4.018604-5.4697674s-7.47907-9.9348837-6.251163-19.6465116 1.339535-13.9534884 3.125582-15.627907z" fill="#26262b"/><path d="m211.646512 47.2186047c.056604-1.3620374.28157-2.7118327.669767-4.0186047.504238-1.1722564 1.765321-1.8261513 3.013954-1.5627907.893023.1116279 1.227907 4.3534884 1.227907 4.3534884z" fill="#1e1e23"/><path d="m203.609302 45.8790698s0-2.2325582 1.451163-2.9023256v2.344186z" fill="#010101"/><path d="m211.75814 45.544186s-6.586047.2232559-7.925582-1.116279-.111628.5581395-.111628.6697674c-.077264.2531541-.114919.5167334-.111628.7813954 0 0 .446512 1.5627907 8.03721 1.3395349z" fill="#ededed"/><path d="m175.144186 84.5023256 6.362791 7.144186 6.474418-7.144186-7.255814-5.0232558z" fill="#2b2b31"/><path d="m224.148837 91.7581395s5.693023 7.4790698 5.916279 7.4790698l5.246512-7.255814s-5.469768-5.4697674-5.581395-5.3581395z" fill="#2b2b31"/><path d="m229.506977 68.427907-6.809303-1.6744186-8.818604 37.2837206 6.809302 1.674419zm-6.362791 4.4651163c.220234-.8906742 1.116236-1.438231 2.009302-1.227907.436786.0454851.82948.2863165 1.068048.6550117.238567.3686952.297344.8255911.159859 1.2426627-.220234.8906741-1.116236 1.438231-2.009302 1.227907-.436786-.0454852-.82948-.2863165-1.068047-.6550118-.238568-.3686952-.297344-.8255911-.15986-1.2426626z" fill="#454444"/><circle cx="224.216313" cy="73.909963" fill="#fff" r="1.897674" transform="matrix(.96770917 -.25206936 .25206936 .96770917 -11.390306 58.904676)"/><path d="m220.8 102.586047c-1.562791.669767-1.227907 1.56279-1.227907 1.56279s2.790698-.223256 3.125581-1.227907c.334884-1.004651-1.897674-.334883-1.897674-.334883z" fill="#f7ae83"/><path d="m217.116279 104.818605c-.221291-.491255-.33545-1.023996-.334884-1.562791 0-.893023-.558139-.55814-.669767 0-.127682.36114-.127682.755139 0 1.116279 0 0 .111628-1.227907-.223256-1.339535s-.893023.781395-.558139 1.786047c.334883 1.004651 1.786046 0 1.786046 0z" fill="#f7ae83"/></g></svg>