<svg height="198" viewBox="0 0 206 198" width="206" xmlns="http://www.w3.org/2000/svg" xmlns:xlink="http://www.w3.org/1999/xlink"><linearGradient id="a" x1="-.033956%" x2="99.966044%" y1="50.021008%" y2="50.021008%"><stop offset="0" stop-color="#e8e8e8"/><stop offset="1" stop-color="#b0b0b0"/></linearGradient><linearGradient id="b"><stop offset="0" stop-color="#fff"/><stop offset=".64" stop-color="#c6c0b9"/></linearGradient><linearGradient id="c" x1="72.808453%" x2="43.006968%" xlink:href="#b" y1="83.404188%" y2=".120211%"/><linearGradient id="d" x1="550.513085%" x2="650.214472%" xlink:href="#b" y1="50%" y2="50%"/><linearGradient id="e" x1="43.378378%" x2="86.756757%" y1="57.34909%" y2="-12.307289%"><stop offset="0" stop-color="#fff"/><stop offset=".64" stop-color="#bbaea6"/></linearGradient><g fill="none" transform="translate(.255814 .744186)"><path d="m132.725581 171.125581c-21.097674-.334883-39.2930229 3.683721-40.7441857 9.041861-1.4511627 5.358139 14.6232557 10.046511 35.7209307 10.493023 21.097674.446512 39.293023-3.683721 40.744186-9.04186 1.451162-5.35814-14.623256-10.046512-35.720931-10.493024" fill="#93d5f6"/><g transform="translate(52.24186)"><path d="m33.1534884 91.5348837c0-34.3813953 22.4372093-62.1767442 50.1209302-62.1767442 27.6837214 0 50.2325584 27.7953489 50.2325584 62.1767442s-22.548837 62.1767443-50.2325584 62.1767443c-27.6837209 0-50.1209302-27.795349-50.1209302-62.1767443z" fill="#bce2f9"/><g fill="#026a9d" transform="translate(.223256 35.72093)"><path d="m.66976744 8.81860465c.75259017-.29110129 1.54116291-.4788567 2.34418605-.55813953h.89302325v7.81395348h-1.56279069v-6.13953488l-1.67441861.33488368z"/><path d="m5.58139535 12.1674419c0-2.5674419 1.45116279-4.2418605 3.12558139-4.35348841 1.67441856-.11162791 3.01395346 1.22790698 3.01395346 3.79534881 0 2.5674419-1.4511628 4.2418605-3.12558136 4.3534884-1.67441861.1116279-3.01395349-1.1162791-3.01395349-3.7953488zm3.12558139 2.2325581c.89302326 0 1.56279066-1.0046512 1.56279066-2.6790698s-.6697674-2.45581392-1.67441856-2.34418601c-1.00465117.1116279-1.5627907 1.00465111-1.5627907 2.67906981 0 1.6744186.66976744 2.4558139 1.6744186 2.344186z"/><path d="m12.3906977 8.14883721c.7525901-.29110129 1.5411629-.4788567 2.344186-.55813954h.8930233v7.92558143h-1.5627907v-6.13953491c-.5673627-.03561817-1.1362088.04022798-1.6744186.22325581z"/><path d="m17.3023256 7.9255814c.7750812-.34228481 1.608928-.53179545 2.4558139-.55813954h.8930233v7.92558144h-1.5627907v-6.25116283l-1.7860465.22325581z"/><path d="m22.3255814 11.2744186c0-2.56744186 1.5627907-4.35348837 3.3488372-4.46511627 1.7860465-.11162791 3.1255814 1.22790697 3.1255814 3.90697677 0 2.6790697-1.5627907 4.3534883-3.3488372 4.4651162-1.7860465.111628-3.1255814-1.116279-3.1255814-3.9069767zm3.2372093 2.3441861c1.0046512-.111628 1.6744186-1.1162791 1.6744186-2.7906977 0-1.67441863-.6697674-2.45581398-1.6744186-2.45581398s-1.6744186 1.11627907-1.6744186 2.79069768c0 1.6744186.6697674 2.455814 1.6744186 2.455814z"/><path d="m29.4697674 7.25581395c.7868957-.32647812 1.6121227-.55154002 2.455814-.66976744h.8930233v8.03720929h-1.5627907v-6.36279068l-1.7860466.22325581z"/><path d="m34.6046512 6.92093023c.8139492-.34317076 1.6844821-.53241704 2.5674418-.55813953h.8930233v8.1488372h-1.6744186v-6.4744186l-1.7860465.33488372z"/><path d="m39.8511628 10.3813953c0-2.67906972 1.5627907-4.46511623 3.4604651-4.57674414 1.8976744-.1116279 3.2372093 1.22790698 3.2372093 3.90697675 0 2.67906979-1.5627907 4.46511629-3.4604651 4.57674419s-3.2372093-1.1162791-3.2372093-3.9069768zm3.3488372 2.3441861c1.0046512-.1116279 1.7860465-1.1162791 1.7860465-2.90232559 0-1.78604651-.6697674-2.45581395-1.7860465-2.45581395s-1.6744186 1.11627907-1.6744186 2.79069764c0 1.6744186.6697674 2.5674419 1.6744186 2.5674419z"/><path d="m47.2186047 6.25116279c.846948-.37831305 1.753733-.60500931 2.6790697-.66976744h.8930233v8.14883725h-1.6744186v-6.47441865c-.6469919.00298379-1.2887413.11623368-1.8976744.33488372z"/><path d="m52.5767442 5.91627907 2.6790698-.66976744h.8930232v8.26046507h-1.6744186v-6.58604647l-1.8976744.33488372z"/><path d="m58.1581395 9.37674419c0-2.67906977 1.5627907-4.46511628 3.5720931-4.57674419 2.0093023-.11162791 3.3488372 1.22790698 3.3488372 3.90697674s-1.6744186 4.57674416-3.5720931 4.68837206c-1.8976744.1116279-3.3488372-1.116279-3.3488372-4.01860461zm3.4604652 2.45581391c1.0046511-.1116279 1.7860465-1.116279 1.7860465-2.90232554 0-1.78604651-.6697675-2.56744186-1.7860465-2.56744186-1.1162791 0-1.7860466 1.11627907-1.7860466 2.90232558 0 1.78604652.6697675 2.56744182 1.7860466 2.56744182z"/><path d="m65.8604651 5.13488372c.8525487-.34446983 1.75989-.53349927 2.6790698-.55813953h1.0046511v8.37209301h-1.7860465v-6.5860465l-1.8976744.22325581z"/><path d="m71.5534884 8.70697674c0-2.79069767 1.6744186-4.57674418 3.6837209-4.68837209s3.4604651 1.22790698 3.4604651 4.01860465c0 2.7906977-1.6744186 4.5767442-3.6837209 4.6883721s-3.4604651-1.1162791-3.4604651-4.01860466zm3.572093 2.45581396c1.0046512-.1116279 1.8976744-1.1162791 1.8976744-3.01395349 0-1.89767442-.7813953-2.56744186-1.8976744-2.56744186s-1.8976744 1.22790698-1.8976744 2.90232558c0 1.67441857.7813953 2.67906977 1.8976744 2.67906977z"/><path d="m79.5906977 8.26046512c0-2.79069768 1.6744186-4.57674419 3.6837209-4.6883721 2.0093023-.1116279 3.572093 1.22790698 3.572093 4.01860465 0 2.79069763-1.6744186 4.68837213-3.6837209 4.80000003s-3.572093-1.227907-3.572093-4.13023258zm3.6837209 2.45581398c1.0046512-.1116279 1.7860465-1.1162791 1.7860465-3.01395352s-.6697674-2.56744186-1.8976744-2.56744186-1.7860465 1.22790698-1.7860465 3.01395349.6697674 2.56744189 1.8976744 2.56744189z"/><path d="m87.627907 3.90697674c.9400437-.32869993 1.9133053-.55329876 2.9023256-.66976744h1.0046511v8.5953488h-1.8976744v-6.80930229l-2.0093023.33488372z"/><path d="m93.544186 3.57209302c.9400438-.32869993 1.9133054-.55329876 2.9023256-.66976744h1.0046512v8.59534882h-1.8976744v-6.80930231c-.6842712-.00768379-1.3645108.10568947-2.0093024.33488372z"/><path d="m99.572093 7.25581395c0-2.90232558 1.786047-4.8 3.906977-4.9116279 2.12093-.11162791 3.795349 1.33953488 3.795349 4.13023255 0 2.79069768-1.897675 4.8-4.018605 4.9116279s-3.683721-1.227907-3.683721-4.13023255zm3.795349 2.45581396c1.116279-.11162791 2.009302-1.11627907 2.009302-3.01395349s-.781395-2.67906977-2.009302-2.67906977-1.897675 1.22790698-1.897675 3.01395349.781396 2.67906977 1.897675 2.67906977z"/><path d="m108.167442 6.80930233c0-2.90232559 1.786046-4.8 4.018605-4.91162791 2.232558-.11162791 3.795348 1.22790698 3.795348 4.13023256s-1.897674 4.80000002-4.018604 4.91162792c-2.120931.1116279-3.795349-1.11627909-3.795349-4.13023257zm3.906977 2.45581395c1.116279 0 2.009302-1.11627907 2.009302-3.01395349s-.781395-2.79069767-2.009302-2.67906977c-1.227907.11162791-2.009303 1.22790698-2.009303 3.01395349s.781396 2.79069768 2.009303 2.67906977z"/><path d="m116.762791 2.23255814 3.013953-.66976744h1.116279v8.9302326h-2.009302v-7.03255818l-2.12093.33488372z"/><path d="m123.125581 6.02790698c0-3.01395349 1.897675-4.91162791 4.130233-5.02325582 2.232558-.1116279 3.906977 1.33953489 3.906977 4.24186047s-1.897675 4.91162787-4.130233 5.02325577-3.906977-1.22790693-3.906977-4.24186042zm4.018605 2.45581395c1.227907 0 2.12093-1.11627907 2.12093-3.1255814 0-2.00930232-.893023-2.67906976-2.12093-2.67906976s-2.12093 1.22790697-2.12093 3.12558139.893023 2.79069768 2.12093 2.67906977z"/><path d="m132.055814 1.33953488c1.016229-.32950027 2.063567-.55392977 3.125581-.66976744h1.116279v8.93023256h-2.009302v-7.03255814l-2.232558.22325581z"/><path d="m138.64186 5.13488372c0-2.90232558 1.897675-4.91162791 4.241861-5.02325581 2.344186-.11162791 4.130232 1.33953488 4.130232 4.35348837.092061 1.24417731-.315561 2.47373791-1.132638 3.41651943s-1.976219 1.5210249-3.22085 1.60673638c-2.455814.11162791-4.018605-1.22790697-4.018605-4.35348837zm4.130233 2.56744186c1.227907 0 2.12093-1.22790698 2.12093-3.12558139 0-1.89767442-.781395-2.79069768-2.12093-2.67906977s-2.12093 1.22790698-2.12093 3.12558139c0 1.89767442.893023 2.79069768 2.12093 2.67906977z"/><path d="m.78139535 26.7906977c0-2.5674419 1.45116279-4.2418605 3.12558139-4.3534884 1.67441861-.1116279 3.01395349 1.227907 3.01395349 3.7953488 0 2.5674419-1.45116279 4.2418605-3.12558139 4.2418605-1.67441861 0-3.01395349-1.1162791-3.01395349-3.6837209zm3.01395349 2.2325581c.89302325 0 1.56279069-1.0046511 1.56279069-2.6790698 0-1.6744186-.55813953-2.4558139-1.56279069-2.344186-1.00465117.1116279-1.5627907 1.0046512-1.5627907 2.5674419s.66976744 2.4558139 1.5627907 2.4558139z"/><path d="m7.47906977 22.8837209c.75648245-.2783971 1.54341328-.4657616 2.34418604-.5581395h.89302329v7.8139535h-1.56279073v-6.2511628l-1.6744186.2232558z"/><path d="m12.3906977 22.6604651c.7420381-.3095828 1.5402995-.4616326 2.344186-.4465116h.8930233v7.9255814h-1.5627907v-6.1395349c-.5673627-.0356182-1.1362088.040228-1.6744186.2232558z"/><path d="m17.4139535 26.1209302c0-2.5674418 1.4511628-4.2418604 3.2372093-4.3534883s3.1255814 1.2279069 3.1255814 3.9069767-1.5627907 4.2418605-3.3488372 4.3534884-3.0139535-1.1162791-3.0139535-3.9069768zm3.1255814 2.3441861c.8930232 0 1.6744186-1.0046512 1.6744186-2.6790698s-.6697675-2.4558139-1.6744186-2.4558139c-1.0046512 0-1.6744186 1.0046511-1.6744186 2.6790697s.6697674 2.455814 1.6744186 2.455814z"/><path d="m24.3348837 22.2139535c.7943883-.2799677 1.6184523-.467255 2.455814-.5581395h.8930232v8.0372093h-1.5627907v-6.2511628c-.6040184-.0362358-1.2095328.0394536-1.7860465.2232558z"/><path d="m29.5813953 25.7860465c0-2.6790698 1.4511628-4.4651163 3.3488373-4.4651163 1.8976744 0 3.1255814 1.227907 3.1255814 3.9069768 0 2.6790697-1.5627907 4.3534883-3.3488373 4.4651163-1.7860465.1116279-3.1255814-1.227907-3.1255814-3.9069768zm3.2372094 2.3441861c.8930232-.1116279 1.6744186-1.1162791 1.6744186-2.7906977s-.6697675-2.5674419-1.6744186-2.455814c-1.0046512.1116279-1.6744187 1.0046512-1.6744187 2.6790698s.6697675 2.5674419 1.6744187 2.5674419z"/><path d="m36.8372093 25.4511628c0-2.6790698 1.5627907-4.3534884 3.3488372-4.4651163s3.2372093 1.3395349 3.2372093 4.0186047c0 2.6790697-1.5627907 4.3534883-3.3488372 4.4651162s-3.2372093-1.2279069-3.2372093-4.0186046zm3.3488372 2.344186c.8930233 0 1.6744186-1.0046511 1.6744186-2.7906976s-.6697674-2.455814-1.7860465-2.455814-1.6744186 1.1162791-1.6744186 2.7906977.6697674 2.5674418 1.7860465 2.4558139z"/><path d="m44.0930233 21.4325581c.8525486-.3444698 1.7598899-.5334992 2.6790697-.5581395h.8930233v8.1488372h-1.6744186v-6.4744186l-1.8976744.2232558z"/><path d="m49.5627907 25.0046512c0-2.6790698 1.5627907-4.4651163 3.4604651-4.5767442s3.3488372 1.3395349 3.3488372 4.0186046c0 2.6790698-1.5627907 4.5767442-3.4604651 4.5767442s-3.3488372-1.227907-3.3488372-4.0186046zm3.4604651 2.4558139c.8930233-.1116279 1.6744186-1.1162791 1.6744186-2.9023256s-.6697674-2.5674418-1.7860465-2.4558139-1.6744186 1.1162791-1.6744186 2.7906977.6697674 2.5674418 1.7860465 2.5674418z"/><path d="m57.1534884 24.7813953c0-2.7906976 1.6744186-4.5767441 3.572093-4.5767441s3.4604651 1.2279069 3.4604651 4.0186046-1.6744186 4.4651163-3.572093 4.5767442-3.4604651-1.227907-3.4604651-4.0186047zm3.4604651 2.3441861c1.1162791 0 1.8976744-1.0046512 1.8976744-2.7906977s-.7813953-2.5674418-1.8976744-2.5674418-1.7860465 1.116279-1.7860465 2.7906976.7813953 2.6790698 1.7860465 2.5674419z"/><path d="m64.9674419 24.4465116c0-2.6790697 1.6744186-4.4651163 3.6837209-4.5767442s3.4604651 1.3395349 3.4604651 4.0186047-1.7860465 4.5767442-3.6837209 4.6883721-3.4604651-1.227907-3.4604651-4.1302326zm3.572093 2.455814c1.0046511 0 1.7860465-1.0046512 1.7860465-2.9023256s-.6697674-2.5674419-1.7860465-2.455814c-1.1162791.111628-1.8976744 1.1162791-1.8976744 2.7906977s.7813953 2.6790698 1.8976744 2.5674419z"/><path d="m72.8930233 24.2232558c0-2.7906977 1.6744186-4.5767442 3.6837209-4.6883721s3.572093 1.3395349 3.572093 4.1302326-1.7860465 4.5767442-3.7953488 4.6883721c-2.0093024.1116279-3.4604651-1.227907-3.4604651-4.1302326zm3.572093 2.455814c1.116279 0 1.8976744-1.1162791 1.8976744-2.9023256s-.7813954-2.6790698-1.8976744-2.5674419c-1.1162791.1116279-1.8976744 1.1162791-1.8976744 2.7906977s.7813953 2.6790698 1.8976744 2.6790698z"/><path d="m80.8186047 19.9813953c.8938784-.335913 1.8363817-.5244137 2.7906976-.5581395h1.0046512v8.4837209h-1.7860465v-6.6976744c-.6826188.011912-1.3597185.1247619-2.0093023.3348837z"/><path d="m86.6232558 19.7581395c.9297266-.3459562 1.9105986-.5345854 2.9023256-.5581395h1.0046512v8.5953488h-1.8976745v-6.8093023c-.6834057.0029963-1.3618656.116073-2.0093023.3348837z"/><path d="m92.5395349 23.5534884c0-2.9023256 1.7860465-4.6883721 3.9069767-4.8 2.1209303-.1116279 3.6837214 1.3395349 3.6837214 4.2418604 0 2.9023256-1.786047 4.6883721-3.9069772 4.6883721s-3.6837209-1.2279069-3.6837209-4.1302325zm3.7953488 2.4558139c1.1162791 0 2.0093023-1.116279 2.0093023-3.0139535 0-1.8976744-.7813953-2.5674418-2.0093023-2.5674418s-1.8976744 1.116279-1.8976744 2.9023256c0 1.7860465.7813954 2.7906976 1.8976744 2.6790697z"/><path d="m100.911628 19.2c.93235-.3365022 1.911669-.5248329 2.902325-.5581395h1.11628v8.7069767h-1.897675v-6.9209302l-2.12093.3348837z"/><path d="m107.051163 22.9953488c0-2.9023255 1.786046-4.8 4.018604-4.8 2.232559 0 3.795349 1.3395349 3.795349 4.2418605s-1.897674 4.8-4.018604 4.8c-2.120931 0-3.795349-1.227907-3.795349-4.2418605zm3.906977 2.5674419c1.116279 0 2.009302-1.1162791 2.009302-3.0139535s-.781395-2.7906977-2.009302-2.6790698-2.009303 1.1162791-2.009303 3.0139535.781396 2.6790698 2.009303 2.6790698z"/><path d="m115.646512 18.6418605c.96613-.3706478 1.981773-.5963462 3.013953-.6697675h1.116279v8.8186047h-1.897674v-7.0325582l-2.232558.3348838z"/><path d="m122.009302 22.4372093c0-2.9023256 1.897675-4.8 4.130233-4.9116279s3.906977 1.4511628 3.906977 4.3534884c0 2.9023255-1.897675 4.9116279-4.130233 4.9116279s-3.906977-1.227907-3.906977-4.3534884zm4.018605 2.6790698c1.227907-.1116279 2.12093-1.227907 2.12093-3.1255814s-.781395-2.7906977-2.12093-2.6790698-2.009302 1.1162791-2.009302 3.0139535.781395 2.7906977 2.009302 2.7906977z"/><path d="m131.051163 22.2139535c0-3.0139535 1.897674-4.9116279 4.130232-5.0232558s4.018605 1.4511628 4.018605 4.3534883c0 2.9023256-1.897674 4.911628-4.24186 5.0232559-2.344187.1116279-3.906977-1.3395349-3.906977-4.3534884zm4.018604 2.5674418c1.227907 0 2.120931-1.116279 2.120931-3.1255813 0-2.0093024-.781396-2.7906977-2.120931-2.6790698-1.339534.1116279-2.12093 1.1162791-2.12093 3.0139535s.893023 2.7906976 2.12093 2.7906976z"/><path d="m140.093023 17.6372093c1.01623-.3295003 2.063567-.5539298 3.125582-.6697674h1.227907v9.1534883h-2.120931v-7.144186l-2.232558.2232558z"/><path d="m.78139535 41.0790698c0-2.5674419 1.45116279-4.2418605 3.12558139-4.2418605 1.67441861 0 3.01395349 1.227907 3.01395349 3.7953488 0 2.5674419-1.45116279 4.2418605-3.12558139 4.2418605-1.67441861 0-3.01395349-1.227907-3.01395349-3.7953488zm3.01395349 2.2325581c.89302325 0 1.56279069-.8930232 1.56279069-2.5674419 0-1.6744186-.55813953-2.4558139-1.56279069-2.4558139-1.00465117 0-1.5627907 1.0046512-1.5627907 2.6790698s.66976744 2.4558139 1.5627907 2.344186z"/><path d="m7.47906977 37.2837209c.74547349-.2979858 1.54136798-.4495847 2.34418604-.4465574h.89302329v7.8139993h-1.56279073v-6.1395349c-.56715729-.0301205-1.13496651.0455874-1.6744186.2232558z"/><path d="m12.3906977 37.172093c.7420381-.3095828 1.5402995-.4616326 2.344186-.4465116h.8930233v7.8139535h-1.5627907v-6.1395349c-.5673627-.0356182-1.1362088.040228-1.6744186.2232558z"/><path d="m17.4139535 40.744186c0-2.5674418 1.4511628-4.2418604 3.2372093-4.3534883s3.1255814 1.3395349 3.1255814 3.9069767c0 2.5674419-1.5627907 4.3534884-3.3488372 4.3534884s-3.0139535-1.227907-3.0139535-3.9069768zm3.1255814 2.3441861c.8930232 0 1.6744186-1.0046512 1.6744186-2.6790698s-.6697675-2.4558139-1.6744186-2.4558139c-1.0046512 0-1.6744186 1.0046511-1.6744186 2.6790697s.6697674 2.455814 1.6744186 2.455814z"/><path d="m24.3348837 36.9488372c.7943883-.2799677 1.6184523-.467255 2.455814-.5581395h.8930232v8.0372093h-1.5627907v-6.2511628h-1.7860465z"/><path d="m29.5813953 40.5209302c0-2.6790697 1.4511628-4.3534883 3.3488373-4.3534883 1.8976744 0 3.1255814 1.3395348 3.1255814 3.9069767s-1.5627907 4.3534884-3.3488373 4.4651163c-1.7860465.1116279-3.1255814-1.227907-3.1255814-4.0186047zm3.2372094 2.455814c.8930232-.1116279 1.6744186-1.0046512 1.6744186-2.7906977s-.6697675-2.4558139-1.6744186-2.4558139c-1.0046512 0-1.6744187 1.0046511-1.6744187 2.6790697s.6697675 2.5674419 1.6744187 2.5674419z"/><path d="m36.8372093 40.4093023c0-2.6790697 1.5627907-4.3534883 3.3488372-4.4651163 1.7860465-.1116279 3.2372093 1.3395349 3.2372093 4.0186047s-1.5627907 4.4651163-3.3488372 4.4651163-3.2372093-1.227907-3.2372093-4.0186047zm3.3488372 2.455814c.8930233 0 1.6744186-1.0046512 1.6744186-2.7906977s-.6697674-2.5674419-1.7860465-2.5674419-1.6744186 1.1162791-1.6744186 2.7906977.6697674 2.5674419 1.7860465 2.5674419z"/><path d="m44.0930233 36.5023256c.8676191-.2920375 1.7670113-.4794108 2.6790697-.5581396h.8930233v8.2604652h-1.6744186v-6.4744186l-1.8976744.2232558z"/><path d="m49.5627907 40.1860465c0-2.6790698 1.5627907-4.4651163 3.4604651-4.4651163s3.3488372 1.3395349 3.3488372 4.0186047-1.5627907 4.4651163-3.4604651 4.4651163-3.3488372-1.227907-3.3488372-4.0186047zm3.4604651 2.455814c.8930233 0 1.6744186-1.0046512 1.6744186-2.7906977s-.6697674-2.5674419-1.7860465-2.5674419-1.6744186 1.1162791-1.6744186 2.7906977.6697674 2.5674419 1.7860465 2.5674419z"/><path d="m57.0418605 36.1674419c.8627672-.2936653 1.7676958-.4444868 2.6790697-.4465117h1.0046512v8.2604651h-1.6744186v-6.4744186c-.6775027-.037123-1.3564731.0383182-2.0093023.2232559z"/><path d="m62.6232558 39.9627907c0-2.7906977 1.6744186-4.5767442 3.6837209-4.5767442 2.0093024 0 3.4604652 1.3395349 3.4604652 4.1302326 0 2.7906976-1.6744186 4.5767442-3.683721 4.5767442-2.0093023 0-3.4604651-1.3395349-3.4604651-4.1302326zm3.572093 2.455814c1.0046512 0 1.7860465-1.0046512 1.7860465-2.7906977s-.6697674-2.6790698-1.7860465-2.5674419c-1.116279.1116279-1.7860465 1.0046512-1.7860465 2.7906977s.6697675 2.5674419 1.7860465 2.5674419z"/><path d="m70.4372093 35.944186c.8909366-.3460979 1.8351801-.5349466 2.7906977-.5581395h1.0046511v8.4837209h-1.7860465v-6.6976744l-2.0093023.2232558z"/><path d="m76.1302326 35.8325581c.8909365-.3460979 1.8351801-.5349466 2.7906976-.5581395h1.0046512v8.4837209h-1.7860465v-6.6976744l-2.0093023.2232558z"/><path d="m81.9348837 39.627907c0-2.7906977 1.6744186-4.5767442 3.7953489-4.6883721 2.1209302-.1116279 3.572093 1.4511628 3.572093 4.2418604 0 2.7906977-1.7860465 4.5767442-3.7953489 4.6883721-2.0093023.1116279-3.572093-1.3395348-3.572093-4.2418604zm3.683721 2.5674418c1.116279 0 1.8976744-1.116279 1.8976744-2.9023255 0-1.7860466-.7813954-2.6790698-1.8976744-2.6790698-1.1162791 0-1.8976745 1.1162791-1.8976745 2.9023256s.7813954 2.6790697 1.8976745 2.6790697z"/><path d="m90.0837209 35.4976744c.9266881-.3566881 1.90944-.5456789 2.9023256-.5581395h1.0046512v8.5953488h-1.8976744v-6.8093023c-.6788028.0482393-1.3515465.1603633-2.0093024.3348837z"/><path d="m96.1116279 39.4046512c0-2.9023256 1.7860465-4.6883721 3.9069771-4.8 2.12093-.1116279 3.683721 1.4511628 3.683721 4.3534883 0 2.9023256-1.786047 4.6883721-3.9069772 4.6883721s-3.6837209-1.3395349-3.6837209-4.2418604zm3.7953488 2.5674418c1.1162793 0 1.8976743-1.116279 1.8976743-3.0139535 0-1.8976744-.781395-2.6790697-1.8976743-2.6790697-1.116279 0-2.0093023 1.116279-2.0093023 2.9023255 0 1.7860466.7813954 2.7906977 2.0093023 2.7906977z"/><path d="m104.595349 39.1813953c0-2.9023255 1.786046-4.688372 3.906977-4.688372 2.12093 0 3.795348 1.3395348 3.795348 4.2418604s-1.786046 4.8-4.018604 4.8-3.683721-1.3395349-3.683721-4.3534884zm3.795349 2.6790698c1.227907 0 2.009302-1.1162791 2.009302-3.0139535s-.781395-2.6790697-2.009302-2.6790697-2.009303 1.116279-2.009303 2.9023255c0 1.7860466.893024 2.7906977 2.009303 2.7906977z"/><path d="m113.07907 34.9395349c.984099-.2836619 1.993536-.4705946 3.013953-.5581396h1.116279v8.9302326h-1.897674v-7.0325581l-2.232558.2232558z"/><path d="m119.330233 34.827907c.970636-.3374238 1.986854-.5256122 3.013953-.5581396h1.116279v8.9302326h-1.897674v-7.0325581l-2.232558.2232558z"/><path d="m125.581395 34.7162791c1.008776-.338616 2.061956-.5266838 3.125582-.5581396h1.116279v8.9302326h-2.009303v-7.0325581l-2.232558.2232558z"/><path d="m132.055814 34.6046512c1.006628-.3469474 2.061087-.5352437 3.125581-.5581396h1.116279v9.0418605h-2.009302v-7.1441861l-2.232558.2232559z"/><path d="m138.64186 38.6232558c0-3.0139535 1.897675-4.9116279 4.241861-4.9116279s4.130232 1.4511628 4.130232 4.4651163-2.009302 4.9116279-4.353488 4.9116279-4.018605-1.3395349-4.018605-4.4651163zm4.130233 2.6790698c1.227907 0 2.12093-1.1162791 2.12093-3.1255814s-.781395-2.7906977-2.12093-2.7906977-2.12093 1.227907-2.12093 3.1255814.893023 2.7906977 2.12093 2.7906977z"/><path d="m.66976744 51.6837209c.76189754-.2206672 1.55097759-.3333929 2.34418605-.3348837h.89302325v7.7023256h-1.56279069v-6.1395349l-1.67441861.2232558z"/><path d="m5.58139535 55.3674419c0-2.5674419 1.45116279-4.2418605 3.12558139-4.2418605 1.67441856 0 3.01395346 1.3395349 3.01395346 3.9069767 0 2.5674419-1.4511628 4.2418605-3.12558136 4.2418605-1.67441861 0-3.01395349-1.3395349-3.01395349-3.9069767zm3.12558139 2.344186c.89302326 0 1.56279066-.8930232 1.56279066-2.6790698 0-1.7860465-.6697674-2.344186-1.67441856-2.344186-1.00465117 0-1.5627907.8930232-1.5627907 2.5674419 0 1.6744186.66976744 2.4558139 1.6744186 2.4558139z"/><path d="m12.5023256 55.3674419c0-2.6790698 1.4511628-4.2418605 3.1255814-4.2418605s3.1255814 1.3395349 3.1255814 3.9069767c0 2.5674419-1.5627907 4.2418605-3.2372093 4.2418605s-3.0139535-1.227907-3.0139535-3.9069767zm3.1255814 2.344186c.8930232 0 1.5627907-.8930232 1.5627907-2.6790698 0-1.7860465-.6697675-2.4558139-1.6744186-2.4558139-1.0046512 0-1.5627907 1.0046511-1.5627907 2.6790698 0 1.6744186.6697674 2.4558139 1.6744186 2.4558139z"/><path d="m19.3116279 51.6837209c.7833934-.3014078 1.6164622-.4528749 2.455814-.4465116h.8930232v7.9255814h-1.5627907v-6.2511628h-1.7860465z"/><path d="m24.4465116 55.3674419c0-2.6790698 1.5627907-4.3534884 3.3488372-4.3534884s3.1255814 1.4511628 3.1255814 4.0186046c0 2.5674419-1.5627907 4.3534884-3.3488372 4.2418605s-3.1255814-1.227907-3.1255814-3.9069767zm3.2372093 2.4558139c.8930233 0 1.6744186-1.0046511 1.6744186-2.7906977 0-1.7860465-.6697674-2.4558139-1.6744186-2.4558139-1.0046511 0-1.6744186 1.0046511-1.6744186 2.6790698 0 1.6744186.6697675 2.5674418 1.6744186 2.5674418z"/><path d="m31.5906977 51.572093c.7953705-.2563314 1.6211184-.4064674 2.4558139-.4465116h.8930233v8.0372093h-1.5627907v-6.3627907l-1.7860465.2232558z"/><path d="m36.8372093 55.3674419c0-2.6790698 1.5627907-4.3534884 3.3488372-4.3534884s3.2372093 1.3395349 3.2372093 4.0186046c0 2.6790698-1.5627907 4.3534884-3.3488372 4.3534884s-3.2372093-1.3395349-3.2372093-4.0186046zm3.3488372 2.4558139c.8930233 0 1.6744186-1.0046511 1.6744186-2.7906977 0-1.7860465-.6697674-2.4558139-1.7860465-2.4558139s-1.6744186 1.0046511-1.6744186 2.6790698c0 1.6744186.6697674 2.5674418 1.7860465 2.5674418z"/><path d="m44.0930233 51.572093c.8582871-.3110995 1.7662794-.4624315 2.6790697-.4465116h.8930233v8.1488372h-1.6744186v-6.4744186l-1.8976744.2232558z"/><path d="m49.4511628 51.572093c.8525486-.3444698 1.75989-.5334992 2.6790698-.5581395h.8930232v8.2604651h-1.6744186v-6.4744186c-.6406886-.0352161-1.282652.040309-1.8976744.2232558z"/><path d="m54.8093023 51.4604651c.8715201-.2573283 1.7712011-.4072752 2.6790698-.4465116h1.0046512v8.2604651h-1.7860466v-6.4744186c-.6406886-.0352161-1.282652.040309-1.8976744.2232558z"/><path d="m60.3906977 55.3674419c0-2.7906977 1.6744186-4.4651163 3.572093-4.4651163s3.4604651 1.3395349 3.4604651 4.1302325c0 2.7906977-1.6744186 4.4651163-3.572093 4.4651163s-3.4604651-1.3395349-3.4604651-4.1302325zm3.4604651 2.5674418c1.1162791 0 1.8976744-1.0046511 1.8976744-2.9023256 0-1.8976744-.7813953-2.5674418-1.8976744-2.5674418s-1.7860465 1.0046511-1.7860465 2.7906977c0 1.7860465.7813953 2.6790697 1.7860465 2.6790697z"/><path d="m68.2046512 55.3674419c0-2.7906977 1.6744186-4.5767442 3.6837209-4.5767442s3.4604651 1.4511628 3.4604651 4.2418604c0 2.7906977-1.6744186 4.4651163-3.6837209 4.4651163s-3.4604651-1.3395349-3.4604651-4.1302325zm3.572093 2.5674418c1.1162791 0 1.8976744-1.0046511 1.8976744-2.9023256 0-1.8976744-.7813953-2.5674418-1.8976744-2.5674418s-1.7860465 1.0046511-1.7860465 2.7906977c0 1.7860465.6697674 2.6790697 1.7860465 2.6790697z"/><path d="m76.1302326 51.4604651c.8909365-.3460979 1.8351801-.5349466 2.7906976-.5581395h1.0046512v8.4837209h-1.7860465v-6.6976744l-2.0093023.2232558z"/><path d="m81.8232558 51.3488372c.9115272-.2484902 1.8471437-.3981889 2.7906977-.4465116h1.0046512v8.5953488h-1.7860466v-6.8093023l-2.0093023.2232558z"/><path d="m87.7395349 55.3674419c0-2.9023256 1.7860465-4.6883721 3.7953488-4.6883721s3.683721 1.5627907 3.683721 4.3534883c0 2.7906977-1.7860466 4.5767442-3.9069768 4.5767442s-3.572093-1.3395349-3.572093-4.2418604zm3.6837209 2.5674418c1.1162791 0 2.0093023-1.0046511 2.0093023-2.9023256 0-1.8976744-.7813953-2.6790697-2.0093023-2.6790697s-1.8976744 1.116279-1.8976744 2.9023256c0 1.7860465.7813953 2.6790697 1.8976744 2.6790697z"/><path d="m96.1116279 55.3674419c0-2.9023256 1.7860465-4.6883721 3.9069771-4.6883721 2.12093 0 3.683721 1.4511628 3.683721 4.3534883 0 2.9023256-1.786047 4.6883721-3.9069772 4.6883721s-3.6837209-1.4511628-3.6837209-4.3534883zm3.7953488 2.6790697c1.1162793 0 1.8976743-1.116279 1.8976743-3.0139535 0-1.8976744-.781395-2.6790697-1.8976743-2.6790697-1.116279 0-2.0093023 1.116279-2.0093023 2.9023256 0 1.7860465.7813954 2.7906976 2.0093023 2.7906976z"/><path d="m104.483721 51.2372093c.949377-.2489006 1.922036-.3985404 2.902326-.4465116h1.116279v8.8186046h-1.897675v-6.9209302h-2.12093z"/><path d="m110.623256 55.3674419c0-2.9023256 1.897674-4.8 4.018604-4.8 2.120931 0 3.906977 1.5627907 3.906977 4.4651162 0 2.9023256-1.897674 4.6883721-4.130232 4.6883721s-3.795349-1.3395349-3.795349-4.3534883zm4.018604 2.6790697c1.11628 0 2.009303-1.116279 2.009303-3.0139535 0-1.8976744-.781396-2.6790697-2.12093-2.6790697-1.339535 0-2.009303 1.116279-2.009303 2.9023256 0 1.7860465.893023 2.7906976 2.12093 2.7906976z"/><path d="m119.330233 51.2372093c.970636-.3374238 1.986854-.5256122 3.013953-.5581395h1.116279v8.9302325h-1.897674v-7.0325581l-2.232558.2232558z"/><path d="m125.693023 55.3674419c0-3.0139535 1.897675-4.8 4.241861-4.8s3.906976 1.4511628 3.906976 4.4651162c0 3.0139535-1.897674 4.8-4.130232 4.8s-4.018605-1.4511628-4.018605-4.4651162zm4.130233 2.6790697c1.116279 0 2.009302-1.0046511 2.009302-3.0139535 0-2.0093023-.781395-2.7906976-2.009302-2.7906976s-2.12093 1.116279-2.12093 3.0139535c0 1.8976744.893023 2.7906976 2.12093 2.7906976z"/><path d="m134.623256 51.1255814c1.051659-.3052599 2.142181-.4556767 3.237209-.4465116h1.116279v9.0418604h-2.009302v-7.144186c-.788011-.0363922-1.577211.0387697-2.344186.2232558z"/><path d="m141.32093 55.3674419c0-3.0139535 1.897675-4.9116279 4.241861-4.9116279s4.130232 1.5627907 4.130232 4.5767441c0 3.0139535-2.009302 4.9116279-4.353488 4.9116279s-4.018605-1.4511627-4.018605-4.5767441zm4.130233 2.7906976c1.227907 0 2.232558-1.116279 2.232558-3.1255814 0-2.0093023-.893023-2.7906976-2.232558-2.7906976s-2.12093 1.116279-2.12093 3.0139535c0 1.8976744.893023 2.9023255 2.12093 2.9023255z"/><path d="m.78139535 69.655814c0-2.5674419 1.45116279-4.1302326 3.12558139-4.1302326 1.67441861 0 3.01395349 1.3395349 3.01395349 3.9069767 0 2.5674419-1.45116279 4.1302326-3.12558139 4.1302326-1.67441861 0-3.01395349-1.3395349-3.01395349-3.9069767zm3.01395349 2.344186c.89302325.1116279 1.56279069-.8930233 1.56279069-2.5674419s-.55813953-2.4558139-1.56279069-2.4558139c-1.00465117 0-1.5627907 1.0046511-1.5627907 2.5674418s.66976744 2.455814 1.5627907 2.455814z"/><path d="m7.47906977 66.0837209 2.34418604-.3348837h.89302329v7.8139535h-1.56279073v-6.2511628l-1.6744186.2232558z"/><path d="m12.3906977 66.1953488c.7420381-.3095828 1.5402995-.4616326 2.344186-.4465116h.8930233v7.9255814h-1.5627907v-6.2511628h-1.6744186z"/><path d="m17.4139535 69.8790698c0-2.5674419 1.4511628-4.2418605 3.2372093-4.1302326s3.1255814 1.3395349 3.1255814 4.0186047c0 2.6790697-1.5627907 4.2418604-3.3488372 4.1302325s-3.0139535-1.3395349-3.0139535-4.0186046zm3.1255814 2.4558139c.8930232.1116279 1.6744186-.8930232 1.6744186-2.5674418s-.6697675-2.455814-1.6744186-2.5674419c-1.0046512-.1116279-1.6744186 1.0046512-1.6744186 2.6790698s.6697674 2.4558139 1.6744186 2.4558139z"/><path d="m24.3348837 66.3069767 2.455814-.3348837h.8930232v7.9255814h-1.5627907v-6.2511628h-1.7860465z"/><path d="m29.5813953 70.1023256c0-2.6790698 1.4511628-4.2418605 3.3488373-4.2418605 1.8976744 0 3.1255814 1.4511628 3.1255814 4.1302326 0 2.6790697-1.5627907 4.2418604-3.3488373 4.2418604-1.7860465 0-3.1255814-1.3395348-3.1255814-4.1302325zm3.2372094 2.5674418c.8930232 0 1.6744186-1.0046511 1.6744186-2.6790697s-.6697675-2.5674419-1.6744186-2.5674419c-1.0046512 0-1.6744187 1.0046512-1.6744187 2.6790698s.6697675 2.5674418 1.6744187 2.5674418z"/><path d="m36.8372093 70.2139535c0-2.6790698 1.5627907-4.2418605 3.3488372-4.2418605s3.2372093 1.4511628 3.2372093 4.1302326c0 2.6790697-1.5627907 4.3534884-3.3488372 4.2418604-1.7860465-.1116279-3.2372093-1.3395348-3.2372093-4.1302325zm3.3488372 2.5674418c.8930233 0 1.6744186-.8930232 1.6744186-2.6790697s-.6697674-2.5674419-1.7860465-2.5674419-1.6744186 1.0046512-1.6744186 2.6790698.6697674 2.5674418 1.7860465 2.5674418z"/><path d="m44.0930233 66.6418605c.8582871-.3110995 1.7662794-.4624316 2.6790697-.4465117h.8930233v8.1488372h-1.6744186v-6.4744186l-1.8976744.2232559z"/><path d="m49.5627907 70.4372093c0-2.6790698 1.5627907-4.3534884 3.4604651-4.3534884s3.3488372 1.5627907 3.3488372 4.2418605-1.5627907 4.3534884-3.4604651 4.3534884-3.3488372-1.3395349-3.3488372-4.2418605zm3.4604651 2.6790698c.8930233 0 1.6744186-1.0046512 1.6744186-2.7906977s-.6697674-2.5674419-1.7860465-2.5674419-1.6744186 1.0046512-1.6744186 2.6790698.6697674 2.5674419 1.7860465 2.6790698z"/><path d="m57.0418605 66.7534884c.8755888-.2392208 1.7732249-.3888268 2.6790697-.4465117h1.0046512v8.2604652h-1.6744186v-6.4744186h-2.0093023z"/><path d="m62.6232558 70.772093c0-2.7906977 1.6744186-4.4651163 3.6837209-4.4651163 2.0093024 0 3.4604652 1.4511628 3.4604652 4.2418605s-1.6744186 4.4651163-3.683721 4.3534884c-2.0093023-.1116279-3.4604651-1.3395349-3.4604651-4.1302326zm3.572093 2.5674419c1.0046512 0 1.7860465-1.0046512 1.7860465-2.7906977s-.6697674-2.5674419-1.7860465-2.6790698c-1.116279-.1116279-1.7860465 1.0046512-1.7860465 2.7906977s.6697675 2.6790698 1.7860465 2.6790698z"/><path d="m70.4372093 66.9767442c.8971251-.3102448 1.8415586-.4613542 2.7906977-.4465116h1.0046511v8.4837209h-1.7860465v-6.5860465h-2.0093023z"/><path d="m76.1302326 66.9767442c.9138105-.221072 1.8505271-.333478 2.7906976-.3348837h1.0046512v8.4837209h-1.7860465v-6.6976744c-.6712276-.0778091-1.3508242-.0400537-2.0093023.1116279z"/><path d="m81.9348837 71.1069767c0-2.9023255 1.6744186-4.5767441 3.7953489-4.5767441 2.1209302 0 3.572093 1.5627907 3.572093 4.3534883 0 2.7906977-1.7860465 4.5767442-3.7953489 4.4651163-2.0093023-.1116279-3.572093-1.3395349-3.572093-4.2418605zm3.683721 2.6790698c1.116279 0 1.8976744-1.0046512 1.8976744-2.9023256s-.7813954-2.6790697-1.8976744-2.6790697c-1.1162791 0-1.8976745 1.0046511-1.8976745 2.7906976s.7813954 2.6790698 1.8976745 2.7906977z"/><path d="m90.0837209 67.2c.9335809-.3186627 1.9161331-.4698245 2.9023256-.4465116h1.0046512v8.7069767h-1.8976744v-6.8093023l-2.0093024.2232558z"/><path d="m96.1116279 71.3302326c0-2.9023256 1.7860465-4.6883721 3.9069771-4.5767442 2.12093.1116279 3.683721 1.5627907 3.683721 4.3534883 0 2.7906977-1.786047 4.6883721-3.9069772 4.5767442s-3.6837209-1.4511628-3.6837209-4.3534883zm3.7953488 2.6790697c1.1162793 0 1.8976743-1.0046511 1.8976743-2.9023256 0-1.8976744-.781395-2.6790697-1.8976743-2.6790697-1.116279 0-2.0093023 1.0046511-2.0093023 2.7906977 0 1.7860465.7813954 2.7906976 2.0093023 2.7906976z"/><path d="m104.595349 71.4418605c0-2.9023256 1.786046-4.6883721 3.906977-4.5767442 2.12093.1116279 3.795348 1.5627907 3.795348 4.4651163 0 2.9023255-1.786046 4.5767441-4.018604 4.5767441s-3.683721-1.4511627-3.683721-4.4651162zm3.795349 2.7906976c1.227907 0 2.009302-1.0046511 2.009302-2.9023255 0-1.8976745-.781395-2.7906977-2.009302-2.7906977s-2.009303 1.0046511-2.009303 2.9023256c0 1.8976744.893024 2.7906976 2.009303 2.7906976z"/><path d="m113.07907 67.5348837c.975314-.3046844 1.992194-.4553333 3.013953-.4465116h1.116279v8.8186046h-1.897674v-7.0325581l-2.232558.2232558z"/><path d="m119.330233 67.6465116c.975314-.3046844 1.992194-.4553333 3.013953-.4465116h1.116279v8.9302326h-1.897674v-7.0325582l-2.232558.2232558z"/><path d="m125.581395 67.6465116c1.02482-.250339 2.07166-.3998875 3.125582-.4465116h1.116279v8.9302326h-2.009303v-7.1441861c-.751136-.0365845-1.50354.0386559-2.232558.2232558z"/><path d="m132.055814 67.7581395c1.011815-.3126427 2.066699-.4633405 3.125581-.4465116h1.116279v9.0418605h-2.009302v-7.1441861h-2.232558z"/><path d="m138.64186 72.1116279c0-3.0139535 1.897675-4.9116279 4.241861-4.8s4.130232 1.5627907 4.130232 4.5767442-2.009302 4.8-4.353488 4.8-4.018605-1.5627907-4.018605-4.5767442zm4.130233 2.7906977c1.227907 0 2.12093-1.0046512 2.12093-3.0139535s-.781395-2.7906977-2.12093-2.9023256-2.12093 1.1162791-2.12093 3.0139535.893023 2.9023256 2.12093 2.9023256z"/><path d="m.78139535 83.944186c0-2.5674418 1.45116279-4.1302325 3.12558139-4.1302325 1.67441861 0 3.01395349 1.4511628 3.01395349 4.0186046 0 2.5674419-1.45116279 4.1302326-3.12558139 4.0186047-1.67441861-.1116279-3.01395349-1.3395349-3.01395349-3.9069768zm3.01395349 2.455814c.89302325 0 1.56279069-.8930233 1.56279069-2.5674419s-.55813953-2.4558139-1.56279069-2.4558139c-1.00465117 0-1.5627907.8930232-1.5627907 2.4558139s.66976744 2.5674419 1.5627907 2.5674419z"/><path d="m7.47906977 80.4837209c.76359947-.2126559 1.55158689-.3252255 2.34418604-.3348837h.89302329v7.9255814h-1.56279073v-6.1395349c-.5600971-.0717336-1.12880027-.03382-1.6744186.1116279z"/><path d="m12.5023256 84.2790698c0-2.5674419 1.4511628-4.1302326 3.1255814-4.1302326s3.1255814 1.5627907 3.1255814 4.1302326c0 2.5674418-1.5627907 4.1302325-3.2372093 4.1302325s-3.0139535-1.4511628-3.0139535-4.1302325zm3.1255814 2.5674418c.8930232 0 1.5627907-.8930232 1.5627907-2.5674418s-.6697675-2.5674419-1.6744186-2.5674419c-1.0046512 0-1.5627907.8930233-1.5627907 2.5674419s.6697674 2.5674418 1.6744186 2.5674418z"/><path d="m19.3116279 80.9302326c.7833934-.3014079 1.6164622-.452875 2.455814-.4465117h.8930232v7.9255814h-1.5627907v-6.2511628h-1.7860465z"/><path d="m24.4465116 84.7255814c0-2.5674419 1.5627907-4.2418605 3.3488372-4.1302326s3.1255814 1.4511628 3.1255814 4.1302326-1.5627907 4.2418605-3.3488372 4.1302326c-1.7860465-.111628-3.1255814-1.3395349-3.1255814-4.1302326zm3.2372093 2.5674419c.8930233 0 1.6744186-.8930233 1.6744186-2.6790698s-.6697674-2.455814-1.6744186-2.455814c-1.0046511 0-1.6744186.8930233-1.6744186 2.5674419s.6697675 2.5674419 1.6744186 2.5674419z"/><path d="m31.7023256 84.9488372c0-2.5674419 1.4511628-4.2418605 3.3488372-4.1302325 1.8976744.1116279 3.1255814 1.4511627 3.1255814 4.1302325s-1.5627907 4.2418605-3.3488372 4.2418605-3.1255814-1.4511628-3.1255814-4.2418605zm3.2372093 2.6790698c1.0046511 0 1.6744186-1.0046512 1.6744186-2.6790698s-.6697675-2.5674419-1.6744186-2.5674419c-1.0046512 0-1.6744186.8930233-1.6744186 2.5674419s.6697674 2.5674419 1.6744186 2.6790698z"/><path d="m38.8465116 81.4883721 2.5674419-.3348837h.8930232v8.1488372h-1.5627907v-6.3627907h-1.8976744z"/><path d="m44.0930233 81.6c.8759795-.220706 1.7757158-.333173 2.6790697-.3348837h.8930233v8.2604651h-1.6744186v-6.4744186h-1.8976744z"/><path d="m49.5627907 85.6186047c0-2.6790698 1.5627907-4.3534884 3.4604651-4.2418605s3.3488372 1.4511628 3.3488372 4.2418605c0 2.7906976-1.5627907 4.3534883-3.4604651 4.2418604s-3.3488372-1.4511628-3.3488372-4.2418604zm3.4604651 2.6790697c.8930233 0 1.6744186-1.0046511 1.6744186-2.7906977 0-1.7860465-.6697674-2.5674418-1.7860465-2.5674418s-1.6744186 1.0046511-1.6744186 2.6790698c0 1.6744186.6697674 2.5674418 1.7860465 2.6790697z"/><path d="m57.1534884 85.9534884c0-2.7906977 1.6744186-4.4651163 3.572093-4.3534884s3.4604651 1.5627907 3.4604651 4.2418605c0 2.6790697-1.6744186 4.4651162-3.572093 4.3534883s-3.4604651-1.4511628-3.4604651-4.2418604zm3.4604651 2.5674418c1.1162791.1116279 1.8976744-.8930232 1.8976744-2.6790697s-.7813953-2.6790698-1.8976744-2.6790698-1.7860465 1.0046512-1.7860465 2.6790698.7813953 2.6790697 1.7860465 2.6790697z"/><path d="m64.9674419 86.1767442c0-2.7906977 1.6744186-4.4651163 3.6837209-4.3534884s3.4604651 1.5627907 3.4604651 4.3534884-1.7860465 4.3534884-3.6837209 4.3534884-3.4604651-1.4511628-3.4604651-4.3534884zm3.572093 2.6790698c1.0046511 0 1.7860465-.8930233 1.7860465-2.7906977s-.6697674-2.5674419-1.7860465-2.6790698-1.8976744 1.0046512-1.8976744 2.7906977.7813953 2.6790698 1.8976744 2.6790698z"/><path d="m72.7813953 82.4930233c.9138106-.221072 1.8505272-.333478 2.7906977-.3348838h1.0046512v8.483721h-1.7860465v-6.6976745h-2.0093024z"/><path d="m78.4744186 82.7162791c.9033409-.2746814 1.848016-.3880424 2.7906977-.3348838h1.0046511v8.483721h-1.7860465v-6.8093023l-2.0093023.2232558z"/><path d="m84.1674419 82.9395349c.9371084-.304058 1.9171585-.4548349 2.9023255-.4465116h1.0046512v8.4837209h-1.7860465v-6.8093023h-2.1209302z"/><path d="m90.0837209 83.0511628c.95048-.2277928 1.9249448-.3402311 2.9023256-.3348837h1.0046512v8.5953488h-1.8976744v-6.8093023h-2.0093024z"/><path d="m96 83.2744186c.9351859-.3120777 1.9165816-.4630616 2.9023256-.4465116h1.0046511v8.7069767h-1.8976744v-6.8093023c-.6712276-.077809-1.3508242-.0400537-2.0093023.1116279z"/><path d="m102.027907 87.5162791c0-2.9023256 1.786046-4.6883721 4.018605-4.5767442 2.232558.1116279 3.795348 1.6744186 3.795348 4.4651163 0 2.7906976-1.897674 4.6883721-4.018604 4.5767441-2.12093-.1116279-3.795349-1.5627906-3.795349-4.4651162zm3.906977 2.7906976c1.116279 0 2.009302-1.0046511 2.009302-2.9023255 0-1.8976745-.781395-2.6790698-2.009302-2.7906977s-2.009303 1.0046512-2.009303 2.7906977.781396 2.9023255 2.009303 2.9023255z"/><path d="m110.511628 83.7209302c.977223-.2962577 1.99281-.4467149 3.013953-.4465118h1.116279v8.8186049h-1.897674v-6.9209303h-2.232558z"/><path d="m116.874419 88.0744186c0-3.0139535 1.786046-4.8 4.018604-4.6883721s3.906977 1.6744186 3.906977 4.5767442-1.897674 4.6883721-4.130233 4.6883721c-2.232558 0-3.795348-1.5627907-3.795348-4.5767442zm3.906976 2.7906977c1.227907.1116279 2.120931-1.0046512 2.120931-2.9023256s-.781396-2.7906977-2.120931-2.9023256-2.009302 1.1162791-2.009302 2.9023256.781395 2.9023256 2.009302 2.9023256z"/><path d="m125.581395 84.1674419c1.018502-.2713627 2.072709-.3843135 3.125582-.3348838h1.116279v8.9302326h-2.009303v-7.144186h-2.232558z"/><path d="m132.167442 88.5209302c0-2.9023255 1.897674-4.6883721 4.130232-4.6883721 2.232559 0 4.130233 1.6744186 4.130233 4.6883721s-2.009302 4.8-4.353488 4.6883721-3.906977-1.5627907-3.906977-4.6883721zm4.018605 2.9023256c1.227906.1116279 2.12093-1.0046511 2.12093-2.9023256 0-1.8976744-.781396-2.9023255-2.12093-2.9023255-1.339535 0-2.120931 1.0046511-2.120931 2.9023255 0 1.8976745.893024 2.9023256 2.120931 2.9023256z"/><path d="m141.209302 84.6139535c1.064843-.2216237 2.149549-.3338347 3.23721-.3348837h1.116279v9.1534883h-2.009303v-7.144186h-2.344186z"/><path d="m.78139535 98.2325581c0-2.5674418 1.45116279-4.1302325 3.12558139-4.0186046 1.67441861.1116279 3.01395349 1.4511628 3.01395349 4.0186046 0 2.5674419-1.45116279 4.1302329-3.12558139 4.0186049-1.67441861-.111628-3.01395349-1.451163-3.01395349-4.0186049zm3.01395349 2.4558139c.89302325.111628 1.56279069-.7813953 1.56279069-2.4558139s-.55813953-2.4558139-1.56279069-2.5674418c-1.00465117-.1116279-1.5627907.8930232-1.5627907 2.5674418s.66976744 2.4558139 1.5627907 2.4558139z"/><path d="m7.47906977 94.8837209c.75793508-.2337973 1.55574423-.3097792 2.34418604-.2232558h.89302329v7.8139539h-1.56279073v-6.1395353h-1.6744186z"/><path d="m12.3906977 95.2186047c.7354441-.3260773 1.546858-.4419936 2.344186-.3348838h.8930233v7.9255811h-1.5627907v-6.2511625h-1.6744186z"/><path d="m17.4139535 99.1255814c0-2.6790698 1.4511628-4.2418605 3.2372093-4.1302326s3.1255814 1.5627907 3.1255814 4.1302326c0 2.5674416-1.5627907 4.1302326-3.3488372 4.0186046s-3.0139535-1.339535-3.0139535-4.0186046zm3.1255814 2.5674416c.8930232 0 1.6744186-.893023 1.6744186-2.5674416s-.6697675-2.5674419-1.6744186-2.5674419c-1.0046512 0-1.6744186.8930233-1.6744186 2.455814 0 1.5627905.6697674 2.5674415 1.6744186 2.6790695z"/><path d="m24.3348837 95.7767442 2.455814-.3348837h.8930232v8.0372095h-1.5627907v-6.3627909c-.5940553-.0555016-1.1919912-.0555016-1.7860465 0z"/><path d="m29.5813953 99.6837209c0-2.5674418 1.4511628-4.2418604 3.3488373-4.1302325 1.8976744.1116279 3.1255814 1.5627907 3.1255814 4.2418604 0 2.6790702-1.5627907 4.2418602-3.3488373 4.1302322-1.7860465-.111628-3.1255814-1.451162-3.1255814-4.2418601zm3.2372094 2.6790701c.8930232 0 1.6744186-.893024 1.6744186-2.6790701 0-1.7860465-.6697675-2.4558139-1.6744186-2.5674418-1.0046512-.1116279-1.6744187.8930232-1.6744187 2.5674418 0 1.6744191.6697675 2.5674421 1.6744187 2.6790701z"/><path d="m36.8372093 100.130233c0-2.6790702 1.5627907-4.2418609 3.3488372-4.2418609s3.2372093 1.5627907 3.2372093 4.2418609c0 2.679069-1.5627907 4.353488-3.3488372 4.24186s-3.2372093-1.451163-3.2372093-4.24186zm3.3488372 2.679069c.8930233 0 1.6744186-.893023 1.6744186-2.679069 0-1.786047-.6697674-2.5674423-1.7860465-2.6790702s-1.6744186 1.0046512-1.6744186 2.6790702c0 1.674418.6697674 2.567441 1.7860465 2.679069z"/><path d="m44.0930233 96.6697674c.8759795-.2207059 1.7757158-.333173 2.6790697-.3348837h.8930233v8.1488373h-1.6744186v-6.3627908h-1.8976744z"/><path d="m49.5627907 100.8c0-2.6790698 1.5627907-4.3534884 3.4604651-4.2418605s3.3488372 1.5627907 3.3488372 4.2418605c0 2.67907-1.5627907 4.353488-3.4604651 4.24186-1.8976744-.111627-3.3488372-1.451162-3.3488372-4.24186zm3.4604651 2.67907c.8930233.111628 1.6744186-.893023 1.6744186-2.67907 0-1.7860465-.6697674-2.5674419-1.7860465-2.6790698s-1.6744186 1.0046512-1.6744186 2.6790698c0 1.674419.6697674 2.567442 1.7860465 2.67907z"/><path d="m57.0418605 97.3395349 2.6790697-.3348837h1.0046512v8.2604648h-1.6744186v-6.5860462h-2.0093023z"/><path d="m62.6232558 101.469767c0-2.7906972 1.6744186-4.3534879 3.6837209-4.24186 2.0093024.1116279 3.4604652 1.5627907 3.4604652 4.353488 0 2.790698-1.6744186 4.353489-3.683721 4.241861-2.0093023-.111628-3.4604651-1.451163-3.4604651-4.353489zm3.572093 2.790698c1.0046512 0 1.7860465-1.004651 1.7860465-2.790698 0-1.7860461-.6697674-2.5674414-1.7860465-2.6790693-1.116279-.1116279-1.7860465 1.0046511-1.7860465 2.6790693 0 1.674419.6697675 2.67907 1.7860465 2.790698z"/><path d="m70.4372093 98.0093023c.9138106-.221072 1.8505272-.333478 2.7906977-.3348837h1.0046511v8.4837214h-1.7860465v-6.6976749h-2.0093023z"/><path d="m76.1302326 98.2325581c.9138105-.221072 1.8505271-.3334779 2.7906976-.3348837h1.0046512v8.4837206h-1.7860465v-6.6976741h-2.0093023z"/><path d="m81.9348837 102.474419c0-2.7906981 1.6744186-4.4651167 3.7953489-4.3534888 2.1209302.1116279 3.572093 1.6744186 3.572093 4.4651168 0 2.790697-1.7860465 4.465116-3.7953489 4.353488-2.0093023-.111628-3.572093-1.562791-3.572093-4.465116zm3.683721 2.790697c1.116279.111628 1.8976744-.893023 1.8976744-2.790697 0-1.897675-.7813954-2.6790702-1.8976744-2.6790702-1.1162791 0-1.8976745.8930232-1.8976745 2.6790702 0 1.786046.7813954 2.790697 1.8976745 2.790697z"/><path d="m90.0837209 98.9023256c.95048-.2277929 1.9249448-.3402311 2.9023256-.3348837h1.0046512v8.5953491h-1.8976744v-6.809303h-2.0093024z"/><path d="m96.1116279 103.255814c0-2.902326 1.7860465-4.5767442 3.9069771-4.4651163 2.12093.1116279 3.683721 1.6744183 3.683721 4.5767443 0 2.902325-1.786047 4.576744-3.9069772 4.465116s-3.6837209-1.674418-3.6837209-4.576744zm3.7953488 2.902326c1.1162793 0 1.8976743-1.004652 1.8976743-2.902326s-.781395-2.67907-1.8976743-2.790698c-1.116279-.111628-2.0093023 1.004651-2.0093023 2.790698 0 1.786046.7813954 2.790698 2.0093023 2.902326z"/><path d="m104.595349 103.702326c0-2.902326 1.786046-4.5767446 3.906977-4.4651167 2.12093.1116279 3.795348 1.6744187 3.795348 4.5767437 0 2.902326-1.786046 4.576745-4.018604 4.465117s-3.683721-1.562791-3.683721-4.576744zm3.795349 2.902325c1.227907 0 2.009302-1.004651 2.009302-2.902325 0-1.897675-.781395-2.790698-2.009302-2.790698s-2.009303 1.004651-2.009303 2.790698c0 1.786046.893024 2.790697 2.009303 2.902325z"/><path d="m113.07907 100.018605c.99033-.215778 2.000411-.3280092 3.013953-.3348841h1.116279v8.8186051h-1.897674v-6.920931c-.743131-.056033-1.489427-.056033-2.232558 0z"/><path d="m119.330233 100.353488c.99033-.215777 2.000411-.328008 3.013953-.334883h1.116279v8.818604h-1.897674v-6.92093c-.739995-.111698-1.492564-.111698-2.232558 0z"/><path d="m125.581395 100.688372c1.007762-.325303 2.071778-.439305 3.125582-.334884h1.116279v9.041861h-2.009303v-7.144186h-2.232558z"/><path d="m132.055814 101.023256c1.006373-.331788 2.071762-.445937 3.125581-.334884h1.116279v9.041861h-2.009302v-7.144186h-2.232558z"/><path d="m138.64186 105.488372c0-3.013953 1.897675-4.8 4.241861-4.576744s4.130232 1.674419 4.130232 4.688372-2.009302 4.8-4.353488 4.688372-4.018605-1.674419-4.018605-4.8zm4.130233 3.013954c1.227907.111627 2.12093-1.004652 2.12093-2.902326s-.781395-2.902326-2.12093-3.013953c-1.339535-.111628-2.12093 1.004651-2.12093 2.902325 0 1.897675.893023 2.902326 2.12093 3.013954z"/></g><path d="m152.706977 159.404651-131.4976747-9.04186v-143.10697705l131.4976747-7.25581395zm-119.5534886-67.8697673c0 34.3813953 22.4372093 62.1767443 50.1209302 62.1767443 27.6837214 0 50.2325584-27.795349 50.2325584-62.1767443s-22.548837-62.1767442-50.2325584-62.1767442c-27.6837209 0-50.1209302 27.7953489-50.1209302 62.1767442z" fill="url(#a)"/><path d="m152.706977 159.404651-131.4976747-9.04186v-143.10697705l131.4976747-7.25581395zm-119.5534886-67.8697673c0 34.3813953 22.4372093 62.1767443 50.1209302 62.1767443 27.6837214 0 50.2325584-27.795349 50.2325584-62.1767443s-22.548837-62.1767442-50.2325584-62.1767442c-27.6837209 0-50.1209302 27.7953489-50.1209302 62.1767442z" fill="#d4d4d4"/><g fill="#b9b9bd"><g transform="translate(27.556509 7.813953)"><path d="m118.899305 116.539535c.030614.444319-.11705.882528-.41033 1.217705-.29328.335178-.708009.539703-1.15246.568341-.942564-.059023-1.676265-.841638-1.674419-1.786046-.006711-.96672.714386-1.783963 1.674419-1.897675.942646.116394 1.629312.950202 1.56279 1.897675z"/><path d="m118.899305 102.697674c.030614.44432-.11705.882529-.41033 1.217706s-.708009.539703-1.15246.568341c-.986407 0-1.786047-.79964-1.786047-1.786047 0-.986406.79964-1.786046 1.786047-1.786046.444451.028638.85918.233164 1.15246.568341s.440944.773386.41033 1.217705z"/><path d="m118.899305 86.6232558c.030614.4443196-.11705.8825282-.41033 1.2177055s-.708009.5397029-1.15246.568341c-.986407 0-1.786047-.7996402-1.786047-1.7860465 0-.9864062.79964-1.7860465 1.786047-1.7860465.444451.0286382.85918.2331637 1.15246.5683411.29328.3351773.440944.7733858.41033 1.2177054z"/><path d="m118.899305 144.781395c.030614.44432-.11705.882529-.41033 1.217706s-.708009.539703-1.15246.568341c-.986407 0-1.786047-.79964-1.786047-1.786047 0-.986406.79964-1.786046 1.786047-1.786046.444451.028638.85918.233164 1.15246.568341s.440944.773386.41033 1.217705z"/><path d="m118.899305 130.046512c.030614.444319-.11705.882528-.41033 1.217705s-.708009.539703-1.15246.568341c-.986407 0-1.786047-.79964-1.786047-1.786046 0-.986407.79964-1.786047 1.786047-1.786047.444451.028638.85918.233164 1.15246.568341s.440944.773386.41033 1.217706z"/><path d="m118.899305 73.7860465c.030614.4443196-.11705.8825282-.41033 1.2177055s-.708009.5397029-1.15246.568341c-.986407 0-1.786047-.7996402-1.786047-1.7860465 0-.9864062.79964-1.7860465 1.786047-1.7860465.444451.0286382.85918.2331637 1.15246.5683411.29328.3351773.440944.7733858.41033 1.2177054z"/><path d="m118.899305 57.8232558c.030614.4443196-.11705.8825282-.41033 1.2177055s-.708009.5397029-1.15246.568341c-.942564-.0590238-1.676265-.8416387-1.674423-1.7860465-.001842-.9444077.731859-1.7270227 1.674423-1.7860465.444451.0286382.85918.2331637 1.15246.5683411.29328.3351773.440944.7733858.41033 1.2177054z"/><path d="m118.899305 44.6511628c.030614.4443196-.11705.8825281-.41033 1.2177054-.29328.3351774-.708009.5397029-1.15246.5683411-.986407 0-1.786047-.7996404-1.786047-1.7860465s.79964-1.7860465 1.786047-1.7860465c.444451.0286381.85918.2331637 1.15246.568341s.440944.7733859.41033 1.2177055z"/><path d="m118.899305 29.8046512c.030614.4443196-.11705.8825281-.41033 1.2177054s-.708009.5397029-1.15246.5683411c-.986407 0-1.786047-.7996403-1.786047-1.7860465 0-.9864063.79964-1.7860465 1.786047-1.7860465.444451.0286381.85918.2331637 1.15246.568341s.440944.7733859.41033 1.2177055z"/><path d="m118.899305 16.2976744c.030614.4443196-.11705.8825282-.41033 1.2177055s-.708009.5397029-1.15246.568341c-.986407 0-1.786047-.7996402-1.786047-1.7860465 0-.9864062.79964-1.7860465 1.786047-1.7860465.444451.0286382.85918.2331638 1.15246.5683411s.440944.7733858.41033 1.2177054z"/><path d="m3.36442156 8.59534884c.07212838.97164456-.60328822 1.84003736-1.5627907 2.00930236-.96264182-.0551409-1.73090566-.82340473-1.78604651-1.78604655-.0630618-.47435281.0668631-.95417193.36064981-1.33189769.2937867-.37772577.72686064-.6217623 1.20214089-.67740463.48316807-.03344439.95714867.14396 1.29961759.48642892.34246891.34246892.51987331.81644951.48642892 1.29961759z"/><path d="m13.8574448 7.9255814c.0630618.47435281-.0668631.95417193-.3606498 1.33189769-.2937867.37772577-.7268606.6217623-1.2021409.67740463-.4831681.03344439-.9571487-.14396-1.2996176-.48642892s-.5198733-.81644951-.4864289-1.29961759c-.0721284-.97164456.6032882-1.84003733 1.5627907-2.00930233.9864063 0 1.7860465.79964026 1.7860465 1.78604652z"/><path d="m24.3504681 7.36744186c.0238537.95640903-.629938 1.79699831-1.5627907 2.00930233-.473689 0-.9279769-.18817222-1.2629256-.52312092-.3349487-.33494869-.5231209-.78923661-.5231209-1.2629256-.0630618-.47435281.0668631-.95417193.3606498-1.33189769.2937867-.37772577.7268606-.6217623 1.2021409-.67740463.9864062 0 1.7860465.79964026 1.7860465 1.78604651z"/><path d="m34.8434913 6.69767442c.0627505.49212771-.0820198.9881824-.3996231 1.36930634s-.7794198.61297346-1.2747955.64000014c-.4641184.00102845-.9078455-.19062238-1.225276-.52921487s-.480085-.79374883-.4491426-1.2568358c-.0630618-.47435281.0668631-.95417193.3606498-1.33189769.2937867-.37772577.7268607-.6217623 1.2021409-.67740463.9626418.05514085 1.7309057.82340469 1.7860465 1.78604651z"/><path d="m45.3365146 6.13953488c.0662397 1.00887662-.6701361 1.89252762-1.6744186 2.00930233-.9626418-.05514085-1.7309057-.8234047-1.7860465-1.78604651-.0627505-.49212771.0820198-.9881824.3996231-1.36930634.3176032-.38112395.7794198-.61297346 1.2747955-.63999599.8930232-.1116279 1.6744186.66976744 1.7860465 1.78604651z"/><path d="m55.7179099 5.46976744c.0630618.47435282-.0668631.95417193-.3606498 1.3318977-.2937867.37772576-.7268606.62176229-1.2021409.67740463-.8930232.1116279-1.6744186-.78139535-1.7860465-1.78604651-.0238537-.95640904.629938-1.79699832 1.5627907-2.00930233.9864063 0 1.7860465.79964026 1.7860465 1.78604651z"/><path d="m66.2109332 4.91162791c.0630012.46244321-.0698645.9301961-.3665586 1.29046751s-.7302897.58036435-1.1962321.60720691c-.463087.03094245-.9182433-.13171213-1.2568358-.44914259s-.5302433-.7611576-.5292107-1.22527602c-.0630618-.47435281.0668631-.95417193.3606498-1.33189769.2937867-.37772577.7268606-.6217623 1.2021409-.67740463.4831681-.03344439.9571486.14396 1.2996176.48642892.3424689.34246892.5198733.81644951.4864289 1.29961759z"/><path d="m76.7039564 4.24186047c.0238537.95640903-.6299379 1.79699831-1.5627907 2.00930232-.9864062 0-1.7860465-.79964026-1.7860465-1.78604651-.0721284-.97164456.6032882-1.84003733 1.5627907-2.00930233.9864063 0 1.7860465.79964026 1.7860465 1.78604652z"/><path d="m87.1969797 3.68372093c.030549.47391432-.1288993.94048248-.443102 1.29657891-.3142028.35609643-.7572866.57239798-1.2313166.60109551-.475254.03918863-.9423942-.14075559-1.2685431-.48864781-.326149-.34789222-.4756123-.8256584-.4058755-1.2973987-.0630012-.46244322.0698644-.9301961.3665585-1.29046752.2966941-.36027141.7302897-.58036434 1.1962322-.6072069.8930232-.11162791 1.6744186.66976744 1.7860465 1.78604651z"/><path d="m97.690003 3.01395349c.0662397 1.00887661-.6701361 1.89252761-1.6744187 2.00930232-.9626418-.05514085-1.7309056-.82340469-1.7860465-1.78604651-.0662397-1.00887661.6701361-1.89252761 1.6744186-2.00930232.9626419.05514085 1.7309057.82340469 1.7860466 1.78604651z"/><path d="m108.071398 2.45581395c.063002.46244322-.069864.93019611-.366558 1.29046752s-.73029.58036434-1.196232.6072069c-.893024.11162791-1.674419-.66976744-1.786047-1.78604651-.066521-.94747274.620144-1.78128113 1.562791-1.89767442.483168-.03344439.957148.14396001 1.299617.48642892.342469.34246892.519874.81644951.486429 1.29961759z"/><path d="m118.564422 1.78604651c.072128.97164456-.603289 1.84003734-1.562791 2.00930233-.986406 0-1.786047-.79964026-1.786047-1.78604651-.023853-.95640904.629938-1.79699832 1.562791-2.00930233.986406 0 1.786047.79964026 1.786047 1.78604651z"/></g><path d="m31.8139535 23.7767442v126.6976748h1.7860465v-125.1348841l102.92093-5.0232558v136.9674419h1.674419v-138.7534884z"/></g></g><path d="m104.483721 91.3116279c0-29.4697674 18.753488-53.4697674 41.860465-53.4697674 11.274419 0 21.432558 5.6930232 29.023256 14.9581395-9.488372-14.8465116-24.446512-24.5581395-41.190698-24.5581395-28.688372 0-51.9069766 28.2418604-51.9069766 63.0697674 0 34.8279071 23.2186046 63.0697671 51.9069766 63.0697671 16.967442 0 32.148837-9.823255 41.525582-25.116279-7.47907 9.488372-17.860466 15.404651-29.35814 15.404651-23.106977 0-41.860465-23.888372-41.860465-53.3581391z" fill="#9aa3aa"/><path d="m78.8093023 91.9813953c0-15.516279-4.0186046-29.4697674-10.6046511-39.9627906l-3.0139535-14.2883721s-19.9813954-4.5767442-24-4.5767442c-22.4372093 0-41.07906979 27.2372093-41.07906979 60.8372093 0 33.6000003 21.54418609 56.4837213 40.74418609 56.8186043.6697674 0 2.7906976.334884 3.572093.223256l17.6372093-.781395 2.7906977-12.83721c8.5953488-11.16279 13.9534883-27.460465 13.9534883-45.4325577z" fill="#b9b9bd"/><path d="m47.2186047 150.697674c-20.0930233-.223255-41.63720935-22.995348-41.63720935-56.0372089 0-33.0418604 17.86046515-60.0558139 41.52558135-60.0558139 2.354635.0148949 4.7050509.2014359 7.0325582.5581395-2.4880301-.5854203-5.0347347-.8850326-7.5906977-.8930233-23.6651163 0-42.30697673 26.455814-42.30697673 59.8325582 0 33.3767444 21.76744183 56.7069764 41.86046513 56.9302324l3.572093-.334884h2.455814c-.7813954.111628-4.1302326 0-4.9116279 0z" fill="#9aa3aa"/><path d="m51.6837209 150.586047c-19.8697674-.223256-40.8558139-22.548838-40.8558139-55.2558144 0-32.7069768 17.3023256-59.2744186 40.6325581-59.2744186 1.7860465 0 2.5674419-.4465117 4.3534884-.2232559-2.455814-.5581395-2.1209302-.1116279-4.6883721-.1116279-23.2186047 0-41.41395349 27.0139535-41.41395349 59.9441861 0 32.9302327 21.20930229 55.1441857 40.96744189 55.3674417h2.9023255l3.0139535-.223256c-.7813953 0-4.2418604-.223255-4.9116279-.223255z" fill="#9aa3aa"/><path d="m95.8883721 94.2139535c-.7813954 31.0325585-18.6418605 56.3720935-40.4093023 56.5953485-21.7674419.223256-40.0744186-25.56279-39.2930233-57.7116276.7813954-32.1488372 19.7581395-57.3767442 41.972093-56.4837209 22.2139535.8930232 38.4 26.6790698 37.7302326 57.6z" fill="#9aa3aa"/><path d="m92.6511628 94.2139535c-.6697675 27.4604655-15.9627907 50.0093025-34.3813954 50.1213385-18.4186046.11122-33.8232558-22.660873-33.1534883-51.1259897.6697674-28.4651163 16.744186-50.9023256 35.4976744-50.1209302 18.7534884.7813953 32.7069767 23.5534884 32.0372093 51.1255814z" fill="#98c2e9"/><path d="m94.8837209 94.1023256c-.6697674 28.3534884-17.0790697 51.5720934-36.9488372 51.7953484-19.8697674.223256-36.5023256-23.44186-35.7209302-52.7999996.7813953-29.3581395 17.972093-52.4651163 38.1767442-51.6837209 20.2046511.7813953 35.1627907 24.4465116 34.4930232 52.6883721z" fill="#c1daf2"/><path d="m91.9813953 94.1023256c-.5581395 25.2279074-14.6232558 45.7674414-31.4790697 45.8795134-16.855814.111184-30.8093023-20.874862-30.2511628-46.7725367.5581395-25.8976744 15.2930232-46.4372093 32.4837209-45.8790697 17.1906977.5581395 29.8046512 21.544186 29.2465116 46.772093z" fill="#7aa7d5"/><path d="m62.9581395 47.4418605c-4.1012518-.1451675-8.1612993.8601776-11.7209302 2.9023255 17.0790698.6697675 30.2511628 21.655814 29.6930233 46.9953489-.5581396 19.2000001-8.7069768 35.7209301-20.2046512 42.6418601h.1116279c16.855814-.111628 30.8093023-20.651162 31.4790698-45.8790694.6697674-25.227907-12.3906977-46.1023256-29.3581396-46.6604651z" fill="#b9b9bd"/><path d="m35.4976744 70.4372093c-.1303488-.0765354-.2905693-.081927-.4257683-.0143274-.1351991.0675995-.2270182.1990108-.2439991.3492111l-.3348837 1.0046512c-.1933512.3601524-.1492119.8015458.1116279 1.1162791l16.5209302 14.0651162c.2485594-.7992324.5468149-1.5821532.8930233-2.344186zm16.1860465-19.5348837c-.1116279-.3348837-.4465116-.5581396-.6697674-.4465116l-.7813954.4465116c-.2232558.1116279-.3348837.5581395-.2232558 1.0046511l6.4744186 27.3488373 1.6744186-.8930233zm-9.1534883 7.5906977c-.0786392-.1421318-.2282615-.2303452-.3906977-.2303452-.1624363 0-.3120586.0882134-.3906977.2303452l-.5581395.6697674c-.1987334.3378411-.2395267.7457748-.1116279 1.1162791l12.2790697 21.9906976 1.4511628-1.6744186zm19.3116279 19.5348837v-29.4697675c0-.3348837-.2232558-.7813953-.5581396-.7813953h-.7813953c-.2232558 0-.4465116.3348837-.4465116.6697674v29.3581396h1.7860465zm27.9069767 8.4837209c.2232558 0 .3348837-.4465116.3348837-.8930232v-1.1162791c-.1116279-.3348837-.3348837-.6697675-.5581395-.5581396l-18.6418605 5.5813954c.1391856.8864399.2138005 1.781819.2232558 2.6790698zm-21.544186-4.0186046 12.1674418-22.6604652c.1448766-.3683368.1033179-.7839244-.1116279-1.116279l-.5581395-.6697675c-.2232558-.3348837-.4465116-.2232558-.6697675 0l-12.1674418 22.7720931c.5002678.5129259.9489342 1.0737589 1.3395349 1.6744186zm18.3069767-10.6046512c.2793044-.2540225.3686868-.6562431.2232558-1.0046512l-.3348837-1.0046511c-.1116279-.3348838-.4465116-.4465117-.6697674-.2232558l-16.4093024 14.9581395c.3348838.6697674.5581396 1.4511628.8930233 2.2325581zm-54.8093023 13.5069767c-.3348837-.1116279-.5581396.2232559-.6697675.5581396v1.2279069c0 .4465117.1116279.7813954.4465117.8930233l18.7534883 4.4651163c.0566501-.8990394.1684888-1.7937485.3348838-2.6790698zm40.0744186-33.7116279c.1203957-.372085-.0153161-.7792205-.3348837-1.0046511l-.6697675-.3348838c-.2232558-.1116279-.5581395 0-.6697674.4465117l-6.4744186 27.6837209 1.5627907.8930233zm17.972093 47.6651163-18.8651163-4.4651163c.0062125.8670956-.1064642 1.7309505-.3348837 2.5674419l18.8651163 4.5767442c.2232558.111628.4465116-.223256.5581395-.669767v-1.11628c.1116279-.3348833 0-.7813949-.2232558-.8930228zm-19.6465116 36.9488368c.1116279.334884.4465116.55814.6697674.446512l.6697675-.446512c.3195676-.22543.4552794-.632566.3348837-1.004651l-6.8093023-28.353488c-.5064525.385831-1.0718638.687384-1.6744186.893023zm-38.7348837-35.051162c-.3348838.111628-.4465117.558139-.4465117 1.004651v1.116279c.1116279.446511.3348838.669767.6697675.558139l18.9767442-5.6930229c-.2123471-.8435469-.3615968-1.7017327-.4465117-2.5674418zm54.3627907 15.293023c.2232558.223256.5581395.111628.6697674-.223256l.3348837-1.004651c.1116279-.446512.1116279-.893023-.2232558-1.116279l-16.6325581-14.2883723-1.0046512 2.2325583zm-6.6976745 11.944186c.2232559.297674.4465117.297674.6697675 0l.5581395-.669768c.1987334-.337841.2395267-.745774.1116279-1.116279l-12.6139535-22.660465-1.3395348 1.674419zm-29.0232558 7.925581c-.1274199.314571-.0372067.675424.2232558.893024l.7813954.446511c.2232558.111628.5581395-.111628.6697674-.558139l6.8093024-28.911628-1.7860466-.669768zm10.0465117-27.906976v30.586046c0 .446512.2232558.781395.4465116.669768h.7813953c.3348838 0 .5581396-.334884.5581396-.781396v-30.586046h-1.7860465zm-25.4511628 7.813953c-.2779736.262481-.3252038.687553-.1116279 1.004651l.3348837 1.004651c.1116279.446512.4465116.55814.6697674.334884l16.9674419-15.516279c-.4469261-.688516-.7857395-1.441435-1.0046512-2.232558zm6.4744186 12.167442c-.1278988.370504-.0871055.778438.1116279 1.116279l.5581395.669767c.097271.133805.2605476.202867.42431.179473.1637624-.023395.3011706-.135412.3570854-.2911l12.7255814-23.665117c-.5378803-.426347-1.0248158-.913282-1.4511628-1.451163z" fill="#98c2e9"/><path d="m59.2744186 74.5674419c-6.5860465-.1116279-12.1674419 7.4790697-12.3906977 16.9674418-.2232558 9.4883723 5.0232558 17.1906973 11.6093024 17.1906973 6.5860465 0 11.944186-7.479069 12.1674418-16.8558136.2232558-9.3767441-4.8-17.0790697-11.3860465-17.3023255zm.6697674 26.2325581c-3.572093-.111628-6.3627907-4.2418605-6.1395348-9.2651163.2232558-5.0232558 3.0139535-9.0418604 6.5860465-9.0418604s6.1395349 4.2418604 6.027907 9.2651162c-.111628 5.0232558-3.0139535 9.0418605-6.4744187 9.0418605z" fill="#b9b9bd"/><path d="m73.7860465 91.7581395c.2232558-7.144186-2.7906977-13.2837209-7.0325581-15.9627907v-30.6976744h-9.9348837v31.255814c-3.7953489 2.7906976-6.5860466 8.4837209-6.6976745 15.0697674s2.5674419 13.0604652 6.6976745 15.7395352v35.386046l9.9348837-.558139v-35.051163c4.0186046-2.67907 6.9209302-8.483721 7.0325581-15.1813955zm-4.2418605-.1116279c-.1116279 5.0232558-3.0139534 9.0418604-6.4744186 9.0418604-3.4604651 0-6.2511627-4.2418604-6.1395348-9.2651162s3.0139534-9.0418605 6.5860465-8.9302325c3.572093.1116279 6.1395349 4.1302325 6.0279069 9.1534883z" fill="#c1daf2"/><path d="m92.0930233 104.148837c-1.227907.669768-1.6744186 1.339535-.6697675 2.12093.8943333.461495 1.9263936.580579 2.9023256.334884v-2.790698z" fill="#010101"/><path d="m93.8790698 101.35814c-1.3395349 3.348837-2.1209303 6.36279-1.6744186 7.255813.4465116.893024 4.5767441-1.56279 4.5767441-1.56279v-6.809303z" fill="#dead9f"/><path d="m106.046512 82.827907-.334884 1.3395349s.223256 6.1395348-1.004651 6.3627907c-1.227907.2232558.111628 9.1534883 1.786046 9.3767441 7.144186 1.3395353 7.925582-4.688372 7.925582-6.2511627s-.334884-9.9348838-.334884-9.9348838z" fill="#eac3b7"/><path d="m118.325581 91.6465116c-4.688372-1.3395349-2.790697-8.0372093-2.790697-8.0372093l-9.265117 1.1162791 5.804652 15.1813953c2.12093.7813953 7.702325-7.9255814 6.251162-8.2604651z" fill="#dead9f"/><path d="m105.376744 86.1767442c-.334884-.8930233 7.367442-5.1348837 10.15814-3.2372093-.669768 2.9023256-.334884 6.2511628.223256 6.6976744v3.7953488c-1.11628-.4465116-3.683721 1.4511628-4.018605 1.0046512-2.344186-3.0139535-5.469768-5.9162791-6.362791-8.2604651z" fill="url(#c)"/><path d="m117.097674 78.2511628c.223256-3.4604651-.446511-6.5860465-5.358139-7.0325581-4.911628-.4465117-7.367442 2.0093023-7.702326 7.144186-.334883 5.1348837-.111628 9.0418605 2.455814 9.7116279 5.023256 1.227907 7.702326-.7813953 9.488372-5.0232558.669768.3348837 1.562791-1.227907 1.786047-2.3441861.223256-1.116279.223256-2.2325581-.669768-2.4558139z" fill="#eac3b7"/><path d="m111.627907 69.655814c-.781395-.5581396-4.353488.4465116-5.469767 1.3395348-1.11628.8930233-1.339535 1.8976745-1.674419 3.683721s.669767 0 2.344186-1.227907 4.465116-.1116279 4.465116-.1116279z" fill="#2c100c"/><path d="m116.986047 78.3627907c.893023.2232558.893023 1.1162791.669767 2.455814-.223256 1.3395348-1.116279 2.5674418-1.786047 2.344186-1.786046 4.2418605-3.348837 6.1395349-9.376744 4.9116279 4.688372-4.1302326 4.241861-10.827907 3.683721-14.2883721l1.227907-2.4558139h.223256c5.023256.4465116 5.693023 3.572093 5.35814 7.0325581z" fill="#dead9f"/><path d="m105.265116 93.7674419c-1.004651-3.3488372-.558139-3.5720931-.558139-3.5720931s-.55814.5581396-4.9116282 1.8976745c-1.3395348.3348837-3.0139535 6.4744186-3.4604651 10.2697677-.1116279 1.897674-1.4511628 17.525581.2232558 19.869767s7.1441865.334884 12.7255815-.558139c.111628-7.032559-2.232558-20.316279-2.567442-24.1116283 0-.2232558-1.116279-2.7906977-1.451163-3.7953488z" fill="#5484c4"/><path d="m110.065116 92.9860465c2.51788.1403896 4.912831-1.0998527 6.251163-3.2372093 2.870013 1.2789262 5.600695 2.8500035 8.148837 4.6883721 1.265351.83509 1.988813 2.2820141 1.897675 3.7953488.223256 1.6744186-5.35814 7.4790699-6.027907 10.3813949-.669768 2.902326 2.679069 9.6-.446512 12.055814s-13.730232 2.344186-17.302325 2.344186c-.781396-15.404651 2.009302-22.437209 2.567441-23.9999995.55814-1.5627907 4.241861-6.027907 4.911628-6.027907z" fill="#3b58a5"/><path d="m117.990698 187.2-6.920931-.893023c.257968 2.543649-.954687 5.012267-3.125581 6.36279-1.339535 1.004652-3.125581 2.67907-1.227907 3.683721 2.44385 1.004965 5.234465.666709 7.367442-.893023 1.897674-1.674418 1.897674-1.004651 3.348837-1.674418 1.451163-.669768.893023-3.125582.893023-5.023256z" fill="#010101"/><path d="m99.2372093 188.316279c.2232558 2.232558 0 4.241861-1.0046512 4.576744-1.0046511.334884-2.6790697-1.116279-5.4697674 0s-6.6976744.669768-7.3674419 0c-.6697674-.669767-1.4511628-2.567442 1.4511628-2.67907 2.9023256-.111627 4.8-2.567441 5.9162791-4.018604.8160008-.92422 1.9150528-1.55225 3.1255814-1.786047l3.0139535.781396z" fill="#010101"/><path d="m98.344186 124.018605c-2.344186 4.8-2.7906976 14.958139-3.2372093 22.660465-.1116279 2.455814-3.1255814 38.065116-5.1348837 41.525581 3.4830106.249962 6.9274286.886431 10.269767 1.897675 0 0 4.688373-15.404652 6.920931-39.069768.781395-8.483721 1.227907-28.911628 1.227907-28.911628z" fill="#214d6c"/><path d="m118.883721 122.009302c1.339535 2.902326 2.902326 4.911628 2.344186 12.055814s-1.227907 23.330233-.334884 30.251163c2.232558 18.195349-1.786046 26.902326-1.786046 26.902326s-2.344186-2.567442-10.493024-.781396c0 0-1.339534-22.772093-1.56279-26.790697-.223256-4.018605-1.897675-20.093024-3.23721-23.665117-1.339534-3.572093-.111627-12.502325.334884-15.181395.446512-2.67907 14.734884-2.790698 14.734884-2.790698z" fill="#14263d"/><path d="m106.716279 163.646512c-.334884-4.130233-2.232558-20.762791-3.572093-24.223256s0-13.395349.446512-16.186047c.111628-.558139 2.009302-1.004651 3.906976-1.004651l2.232559 14.288372c.781395 7.255814 5.693023 41.07907 4.353488 53.246512-1.847571-.076289-3.695189.14995-5.469768.669767 0 0-1.674418-22.772093-1.897674-26.790697z" fill="#214d6c"/><path d="m119.665116 120.55814.334884 3.237209s-15.293023 3.795349-22.6604651 2.12093c.1456793-.960636.2203003-1.93071.2232558-2.902326 0 0 14.1767443-.781395 22.1023253-2.455813z" fill="#010101"/><path d="m115.2 122.902326c.334884-1.227907 1.004651-1.451163 4.688372-1.451163s1.116279 11.832558 0 12.167442c-3.460465 1.116279-4.688372-10.716279-4.688372-10.716279z" fill="#010101"/><path d="m109.172093 127.47907c0 .334883.334884.446511.781395.446511h2.009303c.446511-.111628.781395-.334883.669767-.558139l-.334884-4.018605c0-.223256-.334883-.446511-.781395-.446511h-2.12093c-.334884 0-.669768.223255-.669768.446511z" fill="#010101"/><path d="m109.172093 127.47907-.446512-4.018605c0-.223256.334884-.446512.781396-.446512h.446511l.446512 4.911628h-.446512c-.446511 0-.781395-.223255-.781395-.446511z" fill="#2b2c2c"/><path d="m112.81535 121.725468h2.172093c.3866 0 .7.3134.7.7v6.101395c0 .386599-.3134.7-.7.7h-2.172093c-.386599 0-.7-.313401-.7-.7v-6.101395c0-.3866.313401-.7.7-.7z" fill="#010101" transform="matrix(.99756405 -.06975647 .06975647 .99756405 -8.475317 8.251013)"/><path d="m112.074419 129.488372-.446512-6.027907c-.004012-.39147.282289-.725489.669767-.781395h.446512l.55814 7.47907h-.446512c-.196017.033152-.396632-.022486-.547572-.151864-.150941-.129377-.236607-.319123-.233823-.517904z" fill="#2b2c2c"/><path d="m115.646512 88.2976744 2.232558 2.2325582-4.8 5.3581395-3.125582-2.9023256s2.455814-.1116279 5.693024-4.6883721z" fill="#5484c4"/><path d="m105.376744 89.0790698-2.567442 1.7860465-.223255 3.7953488 2.790697-2.4558139s-.781395-.8930233 0-3.1255814z" fill="#3b58a5"/><path d="m106.827907 72.4465116c.55814.7813954 2.567442.8930233 4.24186.8930233 1.674419 0 3.23721 2.4558139 3.572093 3.2372093.334884.7813953.334884 2.5674418.669768 3.0139535.334884.4465116 1.116279-1.3395349 2.12093-.8930233s.334884 1.8976744.334884 1.8976744 2.232558-2.344186.893023-6.9209302c-.400899-1.7018903-1.676323-3.062342-3.348837-3.572093-.893023-.3348837-3.237209-1.5627907-4.130233-.2232558-1.383954.964977-2.839316 1.8232677-4.353488 2.5674418z" fill="#2c100c"/><path d="m119.218605 75.7953488c-2.567442 1.3395349-6.586047.1116279-9.711628-.6697674l-5.134884-1.3395349s.334884-5.1348837 3.572093-6.027907c3.237209-.8930232 8.818605.2232558 10.269767 2.2325582 1.451163 2.0093023 1.004652 5.8046511 1.004652 5.8046511z" fill="#010101"/><path d="m119.106977 75.9069767c-4.130233 2.455814-8.818605 2.3441861-10.827907 2.3441861-2.009303 0-9.6000002-1.0046512-8.03721-2.5674419 1.259595-1.0699291 2.749587-1.8340274 4.353489-2.2325581z" fill="#010101"/><path d="m104.260465 73.6744186s.223256-3.6837209 2.567442-5.2465116c1.593224-.3255039 3.250018-.0888191 4.688372.6697674 2.009302.7813954 2.009302 4.0186047 2.12093 5.8046512v.6697674c-1.391427-.0535135-2.774509-.2404165-4.130232-.5581395-1.787983-.2760798-3.545023-.7246858-5.246512-1.3395349z" fill="#2b2c2c"/><path d="m109.618605 99.0139535 6.697674 1.2279065v2.902326l-7.813953-1.116279z" fill="#5484c4"/><path d="m102.809302 98.6790698-5.3581392 1.0046511.1116279 2.1209301 4.4651163-.223256z" fill="#3b58a5"/><path d="m96 188.986047c5.023256-10.939535 7.590698-39.404652 8.706977-46.883721l1.451163 15.851162c-2.344187 21.87907-5.804652 32.148838-5.804652 32.148838-1.4305877-.448163-2.8837578-.820771-4.353488-1.116279z" fill="#14263d"/><path d="m96.7813953 110.065116 18.5302327 14.065117 4.353488-3.572093s1.562791-.669768 1.451163-3.460466c-.271899-2.529492-.757352-5.031441-1.451163-7.479069l-6.139535 2.567442-12.167441-4.353489z" fill="url(#d)"/><path d="m93.8790698 104.483721c1.5627907-.223256 2.5674418.334884 2.5674418-.223256.2232558-5.0232557 1.227907-9.2651162 3.2372093-12.1674417-2.2808804.9426096-4.1713123 2.6361215-5.3581395 4.8-1.5627907 3.1255817-3.4604651 8.3720927-3.4604651 8.3720927.9645733-.39592 1.9785193-.658795 3.0139535-.781395z" fill="#3b58a5"/><path d="m123.906977 105.376744c1.451163 2.344186-6.139535 8.818605-8.483721 8.930233-5.836974.576138-11.621712-1.516215-15.7395351-5.693024l2.9023261-3.237209 10.716279 1.339535 3.572093-4.688372s4.130232-1.339535 7.032558 3.348837z" fill="#dead9f"/><path d="m102.027907 103.925581c-1.004651-.893023-1.451163-2.009302-2.3441861-2.679069-.8930232-.669768-2.344186-2.790698-2.6790697-2.2325585-.3348838.5581395 1.116279 2.2325585 1.5627907 2.4558135-1.5627907-1.451162-1.7860466-2.7906972-2.6790698-2.3441856-.8930233.4465116 1.5627907 2.9023256 1.5627907 2.9023256s-1.3395349-2.009302-2.0093023-1.897674c-.6697675.111627 1.0046511 2.232558 1.0046511 2.232558s-1.0046511-1.116279-1.4511628-.781396c-.4465116.334884 2.0093024 3.23721 3.3488372 4.241861 1.3395349 1.004651 3.683721-1.897675 3.683721-1.897675z" fill="#dead9f"/><path d="m92.427907 105.823256c-1.227907 4.353488.3348837 6.027907 1.6744186 6.474418 3.2372093 1.116279 13.3953484-4.8 15.7395344-5.246511 1.179366-.206552 2.382132-.244139 3.572093-.111628l2.67907-3.460465c.334884-.446512-3.795349-1.116279-6.139535-.893023-8.706976.893023-13.1720927 1.674418-13.1720927 1.674418z" fill="#eac3b7"/><path d="m123.906977 94.6604651c2.232558.7813954 3.013953 2.5674419 3.013953 5.4697679 0 2.902325-4.465116 9.711627-5.916279 12.502325-.446511-1.786046-5.693023-6.586046-7.47907-7.032558 3.125582-3.125581 7.144186-12.055814 10.381396-10.9395349z" fill="#5484c4"/><path d="m159.516279 184.409302c.334884 1.786047 1.227907 6.251163.111628 7.702326-.63402.390025-1.397585.510587-2.12093.334884-1.116279-.223256-1.339535.223255-2.009303 1.004651-.669767.781395-4.8 1.56279-6.697674 1.227907-1.897674-.334884-3.013953-1.562791 0-3.460465 2.5246-1.369256 4.438489-3.641999 5.35814-6.362791.781395-2.009302 5.358139-.446512 5.358139-.446512z" fill="#010101"/><path d="m172.8 184.52093c-.223256 1.786047-1.116279 6.139535 0 7.590698.63109.397044 1.383326.55541 2.12093.446512 1.116279-.223256 1.339535.223255 2.009303 1.004651.669767.781395 4.8 1.56279 6.697674 1.116279 1.897674-.446512 2.902326-1.451163 0-3.348837-2.503901-1.394504-4.410087-3.6581-5.35814-6.362791-.781395-2.12093-5.469767-.446512-5.469767-.446512z" fill="#010101"/><path d="m157.172093 118.995349c-.893023 3.125581-2.455814 2.12093-3.683721 11.386046-.558139 4.130233-.558139 21.320931-.558139 25.786047s-1.004652 17.525581-1.227907 31.590698c0 .558139 11.051162 1.674418 11.274418-.223256.223256-1.897675 2.455814-46.660465 3.795349-51.906977v-16.632558z" fill="#14263d"/><path d="m175.47907 118.883721c.893023 3.125581 3.013953 5.916279 3.460465 11.944186.223256 4.130233.781395 21.655814.781395 26.009302 0 4.353489 0 11.497675.781396 30.474419.111627 1.004651-10.827907 1.562791-10.827907.558139 0-1.004651-2.67907-45.32093-4.018605-50.567441v-18.306977z" fill="#214d6c"/><path d="m156.27907 118.548837c1.339535.669768 16.967442 2.009303 19.758139-.334884.35075 1.159065.538596 2.361278.55814 3.572094 0 0-10.827907 3.237209-20.651163 0-.669767-.223256.334884-3.23721.334884-3.23721z" fill="#010101"/><path d="m162.865116 79.7023256-2.344186 9.0418604s2.455814 11.944186 5.246512 12.948837 5.469767-6.2511625 5.358139-8.148837c-.111628-1.8976744-.669767-12.3906976-.669767-12.3906976z" fill="#dead9f"/><path d="m172.465116 93.9906977c-.111628-1.8976744-1.897674-12.055814-1.897674-12.055814l-.893023-.5581395-4.576745 22.2139538c2.67907.893023 7.367442-7.7023259 7.367442-9.6000003z" fill="#eac3b7"/><path d="m163.2 89.8604651c-.763154-.859301-1.436424-1.7943986-2.009302-2.7906977l-7.144186 2.9023256c-3.23721 1.227907-2.232559 1.6744186-2.455814 3.3488372-.223256 1.6744186 2.12093 11.7209298 2.455814 13.6186048 1.021211 3.385123 1.021211 6.996272 0 10.381395-.188144.972235.32154 1.945267 1.227907 2.344186 2.232558 1.116279 6.809302 1.786047 11.051162 1.897675 0-7.032558 2.790698-16.186047 2.455814-19.981396-.111628-.446511-4.353488-11.0511624-5.581395-11.7209299z" fill="#3b58a5"/><path d="m169.674419 89.6372093c.334883-.3348837 1.227907-.1116279 2.232558-1.7860465l4.576744 1.6744186c3.237209 1.227907 3.460465 1.1162791 3.683721 2.7906977s-2.009302 10.7162789-2.344186 12.6139539c-.334884 1.897674-1.004651 6.139534.334884 13.060465.334883 1.786046-5.246512 3.683721-12.390698 3.572093 0-7.032558.111628-14.065117.111628-18.753489-.029539-4.6645443 1.288356-9.2384131 3.795349-13.1720927z" fill="#5484c4"/><path d="m160.744186 86.9581395c.55814-1.8976744 2.232558-5.6930232 1.451163-7.5906976-.781396-1.8976745 6.251163 2.0093023 8.483721 3.4604651l-10.269768 12.3906977c-1.339535-.4465117-5.804651-4.3534884-6.251162-4.911628 2.300215-.896799 4.506264-2.0185192 6.586046-3.3488372z" fill="url(#e)"/><path d="m160.744186 86.0651163 3.013954 4.1302325-3.125582 3.0139535-2.12093-5.0232558z" fill="#5484c4"/><path d="m171.572093 86.1767442-2.12093 3.9069767 3.348837 2.6790698.781395-4.8z" fill="#3b58a5"/><path d="m179.609302 90.8651163c1.376264.6429364 2.482645 1.7493172 3.125582 3.1255814 1.116279 2.0093023 6.36279 9.2651163 6.36279 9.2651163s-5.581395 3.572093-8.706976 4.353488c-.781396.111628-3.013954-4.465116-3.013954-4.465116z" fill="#3b58a5"/><path d="m155.386047 98.455814 6.809302-.7813954.446511 3.2372094-7.255813.669767z" fill="#5484c4"/><path d="m176.818605 98.344186-6.809303-.8930232-.446511 3.3488372 7.255814.669767z" fill="#3b58a5"/><path d="m170.574502 88.1925628h7.153488c.552285 0 1 .4477153 1 1v3.3693024c0 .5522847-.447715 1-1 1h-7.153488c-.552285 0-1-.4477153-1-1v-3.3693024c0-.5522847.447715-1 1-1z" fill="#010101" transform="matrix(.54317445 -.83961986 .83961986 .54317445 3.254425 187.735879)"/><path d="m170.36775 87.465734h5.655814c.441828 0 .8.3581722.8.8v2.6976744c0 .4418278-.358172.8-.8.8h-5.655814c-.441828 0-.8-.3581722-.8-.8v-2.6976744c0-.4418278.358172-.8.8-.8z" fill="#2b2c2c" transform="matrix(.54317445 -.83961986 .83961986 .54317445 3.878027 186.35674)"/><g fill="#010101"><path d="m172.8 90.6418605c0 .2232558-.223256.2232558-.446512.1116279h-.223255c-.111628-.1116279-.223256-.3348837-.111628-.4465117v-.3348837h.558139l.223256.2232558c.111628.1116279.223256.3348838.111628.4465117z"/><path d="m173.804651 91.3116279c-.111628.1116279-.334884.2232558-.446511.1116279l-.334884-.2232558c-.111628-.1116279-.111628-.2232558 0-.4465116v-.2232558c-.030825-.1233008.044141-.2482446.167442-.2790698.1233-.0308252.248244.0441411.279069.1674419h.223256c.223256.1116279.223256.3348837.111628.5581395z"/><path d="m174.697674 91.8697674c-.111627.2232559-.223255.2232559-.446511.1116279h-.223256c-.111628-.1116279-.223256-.3348837-.111628-.4465116v-.3348837h.55814l.223255.2232558c.111628.1116279.223256.3348837.111628.4465116z"/><path d="m171.597305 91.343344h.404651c.165686 0 .3.1343146.3.3v.3823256c0 .1656854-.134314.3-.3.3h-.404651c-.165685 0-.3-.1343146-.3-.3v-.3823256c0-.1656854.134315-.3.3-.3z" transform="matrix(.54756322 -.83676431 .83676431 .54756322 .884633 185.305109)"/><path d="m172.911628 92.6511628c-.111628.1116279-.334884.2232558-.446512.1116279h-.223256c-.223255-.1116279-.223255-.3348837-.111627-.5581395v-.2232559c.111627-.1116279.334883-.2232558.446511-.1116279l.334884.2232559c.111628 0 .111628.2232558.111628.4465116z"/><path d="m173.916279 93.2093023c-.111628.2232558-.334884.2232558-.558139.1116279h-.223256c-.111628-.1116279-.223256-.3348837-.111628-.4465116l.223256-.2232558c.111628-.2232558.223255-.2232558.446511-.1116279h.223256c.123301-.0308252.248245.0441411.27907.1674418.030825.1233008-.044141.2482446-.167442.2790698z"/><path d="m177.265116 87.4046512c.030825.1233007-.044141.2482445-.167442.2790697-.1233.0308252-.248244-.044141-.279069-.1674418-.111628-.1116279-.111628-.2232558-.111628-.4465117l2.790697-4.2418604c.111628-.1116279.334884-.2232558.446512-.1116279.111628.1116279.223256.3348837.111628.4465116z"/></g><path d="m186.083721 101.581395c-2.902326-2.9023252-4.353488-3.3488369-6.362791-5.1348834-2.009302-1.7860465-1.786046-1.4511628-2.455814-2.6790697-.688626-1.240137-1.689048-2.2790362-2.902325-3.0139535-1.34351-.7825049-2.819042-1.3121832-4.353489-1.5627907-.893023-.1116279-1.116279.5581395-.446511.8930232.819704.3315849 1.604866.7428606 2.344186 1.227907 0 0-2.232558-1.1162791-2.902326-.6697674-.669767.4465116.781396 1.116279 2.790698 2.344186l-2.12093-.7813953c-.111628-.1116279-.446512-.4465117-.669768-.2232559-.223256.2232559-.223256.7813954.223256 1.1162791.599427.4916909 1.23364.9393711 1.897674 1.3395349l-1.227907-.6697674c-.223255-.1116279-.446511-.4465117-.669767-.4465117s-.446512.1116279-.334884.5581396c.39549.5645651.886598 1.0556732 1.451163 1.4511628.55814.4465116 2.67907 1.3395348 3.906977 2.1209302 2.902325 1.8976744 4.353488 8.4837212 7.702325 10.3813952 3.348838 1.897675 4.911628.669768 5.35814-.669767.554671-1.948598.093351-4.045503-1.227907-5.581396z" fill="#eac3b7"/><path d="m175.032558 75.7953488c.55814-3.7953488 0-7.3674418-5.581395-8.1488372-5.581396-.7813953-6.92093 3.3488372-7.702326 8.0372093-.781395 4.6883721 1.451163 10.0465117 4.911628 10.7162791s5.693023-2.1209302 7.144186-5.4697674c.55814-.2232559.893023-1.227907 1.227907-2.3441861s.781395-2.5674418 0-2.7906977z" fill="#eac3b7"/><path d="m165.87907 78.8093023c.893023-3.7953488 2.009302-7.0325581 4.465116-8.2604651l-1.004651-2.9023256c-5.804651-.8930232-6.697675 2.2325582-7.255814 6.027907h-.334884c-1.116279-.1116279-1.227907 1.1162791-1.339535 2.6790698-.223181 1.185399.310097 2.385274 1.339535 3.0139535.446512 3.4604651 2.344186 6.5860465 4.911628 7.0325581 0 0-.111628.2232558.781395.2232558-1.339534-.5581395-2.232558-4.5767442-1.56279-7.8139535z" fill="#dead9f"/><path d="m167.44186 66.7534884c-.893023-.6697675-3.013953-.2232558-4.353488.6697674-1.463347 1.1767089-2.454014 2.8410303-2.790698 4.6883721-.192437 1.3700196-.192437 2.760213 0 4.1302326l.446512-1.3395349c.389138-.1816977.83877-.1816977 1.227907 0 .334884.1116279.55814.8930232.781395 1.0046511h.55814c.558139 0 1.339535-2.1209302 2.455814-3.1255814 1.116279-1.0046511 4.353488-.6697674 4.353488-.6697674z" fill="#2c100c"/><path d="m166.883721 69.2093023c.558139.8930233.334884 3.572093 2.12093 3.683721 1.786047.1116279 4.465116.6697674 5.023256 1.4511627.409912.8294067.565269 1.7615515.446512 2.6790698l1.004651-.3348837c.705091-1.6989431.822946-3.5846243.334883-5.3581395-.669767-1.8976745-1.227906-3.4604652-3.348837-4.3534884-2.12093-.8930233-4.465116-1.6744186-5.581395-.2232558s0 2.4558139 0 2.4558139z" fill="#5e1c17"/><path d="m156.725581 136.744186c-.674031-1.14876-1.587815-2.138694-2.679069-2.902326-.473962-.41819-.921345-.865572-1.339535-1.339534-.334884-3.460466-1.451163-14.288373-.334884-16.297675s1.786047-5.804651 1.786047-5.804651l-5.693024-11.1627907c-3.125581 8.5953487-2.679069 12.9488377-2.232558 18.1953487.111628 1.674419-.669767 11.051163 2.902326 16.744186.279726 1.812478.466018 3.638147.558139 5.469768.223256.893023 1.227907 1.451162 2.567442 2.567441 1.339535 1.11628.781395.669768.893023-.111627.111628-.781396 1.116279.111627 1.116279-.446512 0-.55814.893024.446512 1.11628-.334884.223255-.781395.223255-.111628.334883-.111628s.893023-.334883.334884-1.451162c-.55814-1.11628-1.562791-2.232559-1.339535-2.790698.223256-.55814 1.786047 1.674418 2.232558 2.009302.446512.334884.223256-1.227907-.223256-2.232558z" fill="#dead9f"/><path d="m151.925581 91.0883721c-1.400051.608497-2.517084 1.7255304-3.125581 3.1255814-1.116279 2.0093023-3.906977 15.5162795-3.906977 15.5162795s6.92093 2.344186 10.046512 3.013953c.781395.223256-.111628-6.92093-.111628-6.92093z" fill="#5484c4"/></g></svg>