<svg height="307" viewBox="0 0 264 307" width="264" xmlns="http://www.w3.org/2000/svg"><g fill="none" fill-rule="evenodd" transform="translate(-.604651 1)"><path d="m105.934884 228.167442c-54.5860468-1.004651-101.58139563 10.046511-104.93023284 24.669767s38.40000004 27.348838 93.09767444 28.353489 101.5813954-10.046512 104.9302324-24.669768-38.4-27.348837-93.097674-28.353488" fill="#93d5f6" fill-rule="nonzero"/><g transform="translate(2.232558)"><path d="m90.8791969.95348826h4.8v12.27906984h-4.8z" fill="#706f6f" fill-rule="nonzero" transform="matrix(.99999848 -.00174533 .00174533 .99999848 -.012238 .162814)"/><path d="m207.864676.74930934h4.8v12.27906976h-4.8z" fill="#706f6f" fill-rule="nonzero" transform="matrix(.99999848 -.00174533 .00174533 .99999848 -.011703 .366991)"/><path d="m254.065116 93.8790698-191.9999997.3348837c-4.3155274 0-7.814752-3.4984262-7.814752-7.8139535v-65.3023256c-.0290855-2.0916624.7809565-4.1079701 2.2496085-5.5976029 1.4686521-1.4896328 3.4732676-2.3281919 5.5651435-2.3279785l191.9999997-.3348837c4.315528 0 7.814752 3.4984261 7.814752 7.8139535v65.3023256c.029086 2.0916624-.780956 4.1079701-2.249608 5.5976029s-3.473268 2.3281919-5.565144 2.3279785" fill="#026a9d" fill-rule="nonzero"/><path d="m252.502326 92.2046512-192.0000004.3348837c-4.3155274 0-7.8139535-3.4984262-7.8139535-7.8139535v-65.3023256c0-4.3155273 3.4984261-7.8139535 7.8139535-7.8139535l192.0000004-.4465116c4.315527 0 7.813953 3.4984261 7.813953 7.8139535v65.4139535c0 4.3155273-3.498426 7.8139535-7.813953 7.8139535" fill="#92d2f4" fill-rule="nonzero"/><path d="m260.204651.55813954-204.948837.44651162c-6.7198926 0-12.1674419 5.44754928-12.1674419 12.16744184v23.6651163c.1116279 43.8697674.5581395 230.6232557.5581395 230.6232557" stroke="#878787" stroke-linecap="round" stroke-width="3"/><g fill-rule="nonzero"><ellipse cx="43.557061" cy="267.495507" fill="#878787" rx="7.032558" ry="3.013954" transform="matrix(.99999848 -.00174533 .00174533 .99999848 -.466801 .076429)"/><path d="m107.516003 18.4399298h144.148838c.883655 0 1.6.7163444 1.6 1.6v64.3237211c0 .8836556-.716345 1.6-1.6 1.6h-144.148838c-.883656 0-1.6-.7163444-1.6-1.6v-64.3237211c0-.8836556.716344-1.6 1.6-1.6z" fill="#ecf7fe" transform="matrix(.99999848 -.00174533 .00174533 .99999848 -.090836 .313524)"/><path d="m105.934884 44.3162791v-3.2372093l147.348837.3348837v3.1255814" fill="#cee9fb"/><path d="m253.395349 72-147.348837-.3348837-.111628-13.7302326 147.348837.3348837z" fill="#cee9fb"/><path d="m235.981395 21.8790698v2.7906976h-2.790697l.111628 13.283721h16.074418l-.111628-16.0744186z" fill="#fff" stroke="#026a9d"/><g fill="#026a9d" transform="translate(111.627907 23.44186)"><path d="m131.72093.66976744v6.13953489h.893023v.78139534h-.893023v1.89767442h-1.116279v-1.89767442h-3.460465l-.223256-.55813953c-.09318-.67792039-.016463-1.36837082.223256-2.00930233.180933-.71578561.482963-1.3953511.893023-2.00930232.347812-.53256749.760254-1.01999975 1.227907-1.45116279.453034-.40328917.98534-.7074638 1.562791-.89302326zm-3.906977 6.13953489h2.902326v-5.13488373l-1.004651.78139535c-.35952.36054087-.660793.77479148-.893023 1.22790698-.313192.43691135-.540481.92937212-.669768 1.45116279-.166929.54564029-.279111 1.106547-.334884 1.67441861z"/><path d="m1.00465116 39.7395349h1.5627907v3.7953488h-.55813953v-3.3488372h-1.00465117z"/><path d="m6.69767442 42.9767442h.66976744v.4465116h-.66976744v1.4511628h-.55813954v-1.4511628h-2.12093023v-.3348837c-.02666594-1.5592176.90313847-2.9760624 2.34418605-3.572093h.44651163zm-.55813954 0v-2.7906977c-1.05557059.5230535-1.70963993 1.6131691-1.6744186 2.7906977z"/><path d="m8.59534884 39.7395349c.33488372 0 .55813953.1116279.55813953.4465116s-.22325581.4465116-.55813953.4465116-.44651163-.1116279-.44651163-.4465116c0-.2466016.19991006-.4465116.44651163-.4465116zm.1116279 2.7906977c.24660157 0 .44651163.19991.44651163.4465116.00543388.2694479-.18244285.5042938-.44651163.5581395-.30825195 0-.55813953-.2498876-.55813953-.5581395.05384574-.2640688.28869167-.4519455.55813953-.4465116z"/><path d="m9.93488372 39.7395349 1.22790698-.2232558h.4465116v3.9069767h-.6697674v-3.2372093h-1.00465118z"/><path d="m12.8372093 41.5255814c-.0643972-.5110091.0949423-1.0249418.4371234-1.4098955.342181-.3849537.8338883-.6034485 1.3489231-.5994068 1.0046512 0 1.6744186.6697674 1.6744186 1.8976744s-.7813953 2.1209302-1.6744186 2.1209302c-.5150348.0040417-1.0067421-.2144531-1.3489231-.5994068-.3421811-.3849537-.5015206-.8988865-.4371234-1.4098955zm1.7860465 1.4511628c.6697675 0 1.1162791-.5581395 1.1162791-1.5627907s-.4465116-1.4511628-1.1162791-1.4511628c-.6697674 0-1.1162791.5581395-1.1162791 1.5627907s.4465117 1.4511628 1.1162791 1.4511628z"/><path d="m37.8418605 39.2930233c-.0035353.6446298-.4025221 1.220944-1.0046512 1.4511627l.3348837.2232559c.5581396.3348837.7813954.6697674.7813954 1.116279-.1154794.8193926-.8496621 1.4067388-1.6744186 1.3395349-1.0046512 0-1.5627907-.4465116-1.5627907-1.227907 0-.7813953.2232558-1.0046511 1.0046511-1.4511628l-.3348837-.2232558c-.3409564-.2217746-.5499682-.5979958-.5581395-1.0046511.0586637-.819232.7414636-1.4532605 1.5627907-1.4511628.3555409-.0308719.7087026.0814079.9811389.3119309.2724364.2305231.4416218.5602293.4700239.9159761zm-1.7860465 1.6744186c-.5581396.3348837-.7813954.6697674-.7813954 1.116279-.0020208.2575175.1072266.5033711.2997034.6744616.1924769.1710905.4494432.2507603.7049478.2185617.2371764.0315309.4770859-.0334316.6659488-.1803249.1888629-.1468934.3108812-.3634303.3387023-.6010705 0-.3348837 0-.5581395-.6697674-.8930232zm-.5581396-1.5627907c-.0470116.3608452.1296285.7141254.4465116.8930232l.5581396.3348837c.3917025-.29199.6363409-.7404937.6697674-1.2279069.0023416-.2281133-.0951199-.4458589-.2668017-.5960804-.1716818-.1502216-.4004377-.2179163-.6262215-.185315-.4315528 0-.7813954.3498426-.7813954.7813954z"/><path d="m59.944186 40.855814c.0386881-.2466944-.0428588-.4970218-.2194301-.6735931-.1765714-.1765714-.4268987-.2581182-.6735931-.2194302l-.8930233.2232558v3.1255814h-.5581395v-3.7953488h.5581395v.3348837c.2933286-.2106248.6436135-.3273864 1.0046512-.3348837.8930233 0 1.4511628.4465116 1.4511628 1.3395349v2.5674418h-.6697675z"/><path d="m63.2930233 43.4232558c-1.1162791 0-1.7860466-.6697674-1.7860466-2.0093023-.0304924-.5035099.140738-.9984415.4758646-1.3754589s.8065696-.6050934 1.310182-.6338434c1.116279 0 1.7860465.6697674 1.7860465 2.0093023.0304924.5035099-.140738.9984414-.4758646 1.3754589-.3351266.3770174-.8065696.6050934-1.3101819.6338434zm0-3.4604651c-.6697675 0-1.1162791.5581395-1.1162791 1.4511628 0 .8930232.4465116 1.4511628 1.1162791 1.4511628.6697674 0 1.116279-.5581396 1.116279-1.4511628 0-.8930233-.4465116-1.4511628-1.116279-1.4511628z"/><path d="m68.427907 40.744186c.0405816-.2171766-.0285498-.4403953-.1847749-.5966204s-.3794438-.2253565-.5966205-.1847749l-1.0046511.2232558v3.1255814h-.5581396v-3.7953488h.5581396v.3348837c.3277563-.2259508.718271-.3431052 1.116279-.3348837.3648762-.0349974.7263084.0948455.9854989.354036s.3890334.6206227.354036.9854989v2.5674418h-.5581395z"/><path d="m70.2139535 40.744186h2.0093023v.5581396h-2.0093023z"/><path d="m76.4651163 43.3116279h-.6697675v-.2232558c-.2746703.244883-.6379851.3659879-1.0046511.3348837-.8930233 0-1.5627907-.6697674-1.5627907-1.8976744-.0640707-.5407066.1072024-1.0828852.4702651-1.4886612.3630628-.405776.882933-.6360518 1.4274093-.632269h.6697674v-1.5627907h.6697675zm-2.6790698-1.8976744c0 1.0046512.5581395 1.4511628 1.227907 1.4511628.2971882.0095045.5833205-.1131237.7813953-.3348837v-2.56745h-.6697674c-.375481-.0012981-.734272.1550486-.9889548.430955s-.3818726.6460389-.3505801 1.0202159z"/><path d="m78.027907 37.7302326c.2232558 0 .3348837.2232558.3348837.4465116 0 .1849512-.1499326.3348837-.3348837.3348837-.3348837 0-.4465117-.1116279-.4465117-.3348837 0-.2466016.1999101-.4465116.4465117-.4465116zm.2232558 5.5813953h-.5581395v-3.7953488h.5581395z"/><path d="m79.255814 42.6418605 1.116279.2232558c.5581396 0 .8930233-.3348837.8930233-.6697675 0-.3348837-.2232558-.4465116-.6697675-.5581395h-.4465116c-.5581395-.2232558-.8930232-.4465116-.8930232-1.0046512 0-.5581395.5581395-1.116279 1.4511627-1.116279h.8930233v.4465116h-.8930233c-.5581395 0-.7813953.2232558-.7813953.4465116s.1116279.4465117.4465116.5581396h.5581396c.5581395.2232558.8930232.5581395.8930232 1.0046511 0 .4465117-.5581395 1.227907-1.4511628 1.227907h-1.116279z"/><path d="m85.0604651 39.9627907h-.7813953c-.3261949.0282955-.6275799.1856954-.837189.4372263-.209609.2515308-.3100805.5763587-.2790901.9023086 0 1.1162791.5581395 1.4511628 1.227907 1.4511628h.7813953v.5581395h-.8930232c-.5046729.0384606-.9996606-.1534215-1.3465485-.5219899-.346888-.3685685-.5084463-.8742664-.439498-1.3756845-.0643972-.5110091.0949422-1.0249418.4371233-1.4098955s.8338883-.6034485 1.3489232-.5994068h.8930232z"/><path d="m87.8511628 40.0744186h-.4465116c-.3219061-.0028816-.6204488.1677142-.7813954.4465116v2.9023256h-.5581395v-4.0186046h.6697674v.4465116c.1755072-.2637012.465103-.4291845.7813954-.4465116h.4465116z"/><path d="m88.9674419 37.7302326c.2232558 0 .3348837.2232558.3348837.4465116 0 .1849512-.1499326.3348837-.3348837.3348837-.2232559 0-.4465117-.1116279-.4465117-.3348837 0-.2466016.1999101-.4465116.4465117-.4465116zm.2232558 5.5813953h-.5581396v-3.9069767h.5581396z"/><path d="m95.2186047 40.744186c0-.5581395-.2232559-.7813953-.7813954-.7813953h-1.0046512v3.2372093h-.5581395v-2.455814c0-.5581395-.2232558-.7813953-.8930233-.7813953h-.8930232v3.2372093h-.5581395v-3.7953488h.5581395v.2232558c.3031425-.1780411.6546341-.2561504 1.0046512-.2232558.4025402-.0492538.8073255.0721818 1.116279.3348837.4095821-.2267503.871433-.3422131 1.3395349-.3348837.3445278-.031454.6863391.0838906.9413654.3176647.2550263.2337742.3996023.5642846.39818.9102422v2.6790698h-.6697779z"/><path d="m97.3395349 37.7302326c.2466015 0 .4465116.19991.4465116.4465116 0 .2232558-.2232558.3348837-.4465116.3348837-.0888167 0-.1739957-.0352823-.2367986-.0980852-.0628028-.0628028-.0980851-.1479818-.0980851-.2367985 0-.3348837.1116279-.4465116.3348837-.4465116zm.3348837 5.5813953h-.6697674v-3.9069767h.6697674z"/><path d="m101.35814 40.744186c.038688-.2466943-.042859-.4970217-.219431-.6735931-.176571-.1765713-.426898-.2581181-.673593-.2194301l-.893023.2232558v3.2372093h-.6697674v-3.9069767h.5581395v.2232558c.3335221-.2136742.7202149-.3296822 1.1162789-.3348837.364876-.0349974.726309.0948455.985499.354036.259191.2591905.389033.6206226.354036.9854988v2.6790698h-.558139z"/><path d="m105.823256 43.3116279h-.55814v-.3348837c-.368139.2284038-.794781.3447607-1.227907.3348837-.296359.0311333-.592864-.0575189-.823496-.2462176-.230632-.1886986-.376242-.4617777-.404411-.7584336 0-.6697674.669768-1.2279069 1.786047-1.2279069h.558139v-.4465117c0-.4465116-.223255-.7813953-.893023-.7813953l-1.116279.3348837v-.5581395c.414582-.2137806.873125-.3284164 1.339535-.3348837.893023 0 1.451163.4465116 1.451163 1.3395348zm-1.674419-.5581395c.446512 0 .781396 0 1.004651-.2232558v-.8930233h-.558139c-.781396 0-1.116279.2232558-1.116279.5581395 0 .3348838.223256.5581396.669767.5581396z"/><path d="m106.604651 39.4046512h.55814v-.6697675h.558139v.7813954h1.004651v.4465116h-1.004651v2.2325581c0 .4465117.223256.6697675.55814.6697675h.558139v.4465116h-.669767c-.55814 0-1.004651-.3348837-1.004651-1.227907v-2.2325581h-.55814z"/><path d="m109.953488 37.7302326c.184952 0 .334884.1499325.334884.3348837 0 .2232558-.111628.4465116-.334884.4465116-.246601 0-.446511-.1999101-.446511-.4465116 0-.2232558.223256-.3348837.446511-.3348837zm.334884 5.5813953h-.669767v-3.9069767h.558139z"/><path d="m112.855814 39.2930233c1.004651 0 1.451163.5581395 1.451163 1.5627907v.4465116h-2.455814c0 1.0046511.558139 1.4511628 1.227907 1.4511628l1.227907-.2232558v.5581395l-1.227907.2232558c-1.116279 0-1.786047-.5581395-1.786047-2.0093023s.669768-2.0093023 1.562791-2.0093023zm.893023 1.5627907c0-.6697675-.334884-1.0046512-.893023-1.0046512-.532286.0510319-.953619.4723655-1.004651 1.0046512z"/><path d="m1.00465116 53.4697674 1.22790698-.2232558h.44651163v3.9069768h-.66976744v-3.2372093h-1.00465117z"/><path d="m6.69767442 56.5953488h.66976744v.5581396h-.55813953v1.4511628h-.66976745v-1.4511628h-2.00930232l-.22325582-.3348837c-.02666593-1.5592177.90313847-2.9760625 2.34418605-3.5720931h.44651163zm-.55813954 0v-2.7906976c-1.01915689.5616665-1.65843372 1.6271279-1.6744186 2.7906976z"/><path d="m8.70697674 53.3581395c.26406878.0538458.45194551.2886917.44651163.5581396 0 .2466015-.19991006.4465116-.44651163.4465116-.33488372 0-.55813953-.1116279-.55813953-.4465116 0-.308252.24988758-.5581396.55813953-.5581396zm0 2.9023256c.24660157 0 .44651163.1999101.44651163.4465116 0 .2466016-.19991006.4465117-.44651163.4465117-.33488372 0-.55813953-.1116279-.55813953-.4465117 0-.3348837.22325581-.4465116.55813953-.4465116z"/><path d="m9.93488372 53.2465116h2.67906978v.4465117c-.1416124.7122322-.591176 1.3252734-1.227907 1.6744186.375481-.0013063.734272.1550405.9889548.4309469s.3818726.6460388.3505801 1.0202159c0 .8930232-1.0046512 1.6744186-2.3441861 1.6744186h-.55813949v-.4465117h.55813949c1.0046512 0 1.6744187-.5581395 1.6744187-1.2279069 0-.6697675-.3348838-1.0046512-1.227907-1.0046512h-.6697675v-.4465116c.932737-.0782495 1.7038955-.7586835 1.8976745-1.6744186h-2.12093028z"/><path d="m16.4093023 53.8046512h-2.1209302v1.3395348h.5581395c.4420468-.0706656.8919656.066642 1.2192294.3720882.3272637.3054462.4952372.7448381.4551892 1.1907025 0 1.1162791-1.0046511 1.8976745-2.344186 1.8976745h-.4465116v-.5581396h.4465116c1.0046511 0 1.7860465-.5581395 1.7860465-1.3395349 0-.7813953-.5581395-1.116279-1.3395349-1.116279h-.8930232v-2.3441861h2.6790697z"/><path d="m34.4930233 53.3581395h1.6744186v3.9069768h-.5581396v-3.3488372h-1.116279z"/><path d="m40.2976744 56.5953488h.5581396v.4465117h-.5581396v1.4511628h-.5581395v-1.4511628h-2.1209302l-.2232559-.4465117c.0053188-1.5564789.9883398-2.9416448 2.455814-3.4604651h.4465116zm-.5581395 0v-2.7906976c-1.0366139.5433657-1.6827965 1.6203368-1.6744186 2.7906976z"/><path d="m42.3069767 54.4744186h-.6697674v-3.2372093h.3348837v1.1162791l.5581396-.2232558c.2869683-.0017776.5609989.1192497.7529743.3325557.1919753.2133059.2835683.498527.2516768.7837233.0356053.3353169-.0822725.668759-.3207102.9071967-.2384378.2384378-.5718799.3563155-.9071968.3207103zm.111628-2.0093023h-.4465117v1.5627907h.3348837c.4465117 0 .7813954-.2232558.7813954-.8930233 0-.6697674-.2232558-.6697674-.6697674-.6697674z"/><path d="m57.6 53.2465116h.5581395v.2232558l1.1162791-.2232558c.8930233 0 1.5627907.5581396 1.5627907 1.8976744.0327632.5719219-.1801493 1.1306353-.5852221 1.5357081-.4050729.4050729-.9637863.6179854-1.5357081.5852222h-.5581396v1.5627907h-.5581395zm2.5674419 1.7860465c0-.8930232-.4465117-1.3395348-1.1162791-1.3395348-.314701-.0334077-.6310671.0456839-.8930233.2232558v2.5674418h.6697675c.7813953.1116279 1.3395349-.4465116 1.3395349-1.4511628z"/><path d="m63.627907 53.8046512h-.4465117c-.2232558 0-.4465116.1116279-.7813953.4465116v2.9023256h-.5581395v-3.9069768h.5581395v.3348837c.2108142-.2810855.5416663-.4465116.8930233-.4465116h.4465116z"/><path d="m64.744186 51.4604651c.2466016 0 .4465117.1999101.4465117.4465116 0 .2232559-.2232558.3348838-.4465117.3348838-.1849511 0-.3348837-.1499326-.3348837-.3348838 0-.2232558.1116279-.4465116.3348837-.4465116zm.3348838 5.5813954h-.5581396v-3.7953489h.5581396z"/><path d="m65.8604651 53.1348837h.6697675l1.116279 3.3488372 1.0046512-3.3488372h.5581395l-1.227907 3.9069768h-.7813953z"/><path d="m72.6697674 57.0418605h-.5581395v-.2232558c-.3427907.1804726-.7304443.2580033-1.1162791.2232558-.7813953 0-1.2279069-.3348838-1.2279069-1.0046512s.5581395-1.1162791 1.6744186-1.1162791h.6697674v-.4465116c0-.5581395-.3348837-.7813953-.8930232-.7813953-.4216985-.0325615-.8446589.0443404-1.227907.2232558v-.5581396l1.3395349-.2232558c.8930232 0 1.4511627.4465116 1.4511627 1.227907zm-1.5627907-.4465117c.3610378-.0074973.7113226-.1242589 1.0046512-.3348837v-.8930232h-.6697674c-.7813954 0-1.1162791.3348837-1.1162791.6697674s.2232558.5581395.7813953.5581395z"/><path d="m76.1302326 53.6930233h-.6697675c-.3459577-.0014329-.6764681.1431431-.9102422.3981694s-.3491187.5968376-.3176648.9413654c0 1.1162791.5581396 1.4511628 1.227907 1.4511628h.7813954v.4465117h-.8930233c-1.0046512 0-1.6744186-.5581396-1.6744186-1.8976745-.0643972-.511009.0949423-1.0249418.4371234-1.4098955.342181-.3849537.8338883-.6034485 1.3489231-.5994068h.7813954z"/><path d="m76.5767442 53.1348837h.6697674l1.1162791 3.2372093.8930233-3.2372093h.6697674l-1.4511628 4.4651163c-.1000629.5499183-.5588952.9628673-1.1162791 1.0046512h-.4465116v-.5581396h.3348837c.3348837 0 .5581396-.1116279.7813954-.6697674v-.5581395h-.2232558z"/></g><circle cx="78.282539" cy="37.36995" fill="#fff" r="18.530233" transform="matrix(.09237059 -.9957247 .9957247 .09237059 33.841353 111.865923)"/><path d="m81.6 48.8930233.5581395 2.344186h2.7906977l-1.0046512-3.1255814z" fill="#026a9d"/><path d="m71.6651163 51.3488372h2.9023256l.4465116-2.4558139-2.455814-.7813954z" fill="#026a9d"/><path d="m87.4046512 28.4651163c-.6697675-1.3395349-2.2325582-4.3534884-2.7906977-4.6883721-2.0980843-.3821513-4.2318972-.5318926-6.3627907-.4465116-2.455814 0-5.5813954.1116279-6.3627907.5581395-.7813954.4465116-2.1209302 3.2372093-2.7906977 4.6883721-.2269243.4496717-.3418135.9475247-.3348837 1.4511628l.4465116 10.9395349c.2232558 6.1395348 5.5813954 7.0325581 9.0418605 7.0325581s8.8186046-.8930233 9.1534884-7.144186l.3348837-10.827907c.0078411-.5395374-.1066524-1.0738404-.3348837-1.5627907zm-9.1534884-2.902332c.8395715.0543387 1.5084584.7232256 1.5627971 1.5627971.0011938.4050173-.1669222.7921072-.4637175 1.0677029-.2967954.2755957-.6952607.414617-1.0990796.3834599-.8014551 0-1.4511628-.6497077-1.4511628-1.4511628-.0311571-.4038189.1078642-.8022842.3834599-1.0990796s.6626856-.4649113 1.0677029-.4637175zm-4.2418605 17.302332c-.4050173.0012002-.7921072-.1669158-1.0677029-.4637111-.2755957-.2967954-.414617-.6952607-.3834599-1.0990796 0-.8014551.6497077-1.4511628 1.4511628-1.4511628s1.4511628.6497077 1.4511628 1.4511628c.0717762.4123318-.0532964.8345135-.3380872 1.1412113s-.696564.4626576-1.1130756.4215794zm8.5953489.0000064c-.8631055 0-1.5627971-.6996916-1.5627971-1.5627971-.0011938-.4050173.1669221-.7921072.4637175-1.0677029.2967953-.2755957.6952607-.414617 1.0990796-.3834599.801455 0 1.4511628.6497077 1.4511628 1.4511628.031157.4038189-.1078643.8022842-.3834599 1.0990796-.2755957.2967953-.6626856.4649113-1.0677029.4637175zm2.5674418-12.2790762-1.5627907 5.1348837c-.1116279.2232558-.2232558.3348838-.4465116.3348838h-9.7116279c-.2088632.0066086-.3943742-.1325247-.4465116-.3348838l-1.6744186-5.2465116c-.0875202-.1476882-.0826184-.3324747.0126086-.4753152.0952269-.1428404.2639139-.2184369.433903-.1944522h12.9488372c.2157764-.1233008.4906527-.0483345.6139535.1674418.1233008.2157764.0483345.4906527-.1674419.6139535z" fill="#026a9d"/><path d="m113.972093 35.2744186v2.5674419h-.781395v-6.5860465h2.679069c.223256.1116279.55814.2232558.669768.4465116.205988.1320787.362871.3281825.446512.5581395.098947.2478478.137219.5157563.111627.7813954.027103.3022323-.010963.6067617-.111627.8930232-.092161.2562426-.245427.4861414-.446512.6697675l-.781395.4465116h-1.786047zm0-3.3488372v2.6790698h1.451163l.446511-.3348838c.223256-.1116279.334884-.2232558.334884-.4465116.148837-.3572093.148837-.7590698 0-1.1162791 0-.1756785-.082713-.3411045-.223256-.4465116l-.446511-.2232558h-1.562791z" fill="#009fe3"/><path d="m118.995349 32.9302326v3.1255814c0 .2232558.111628.3348837.111628.5581395s.111628.2232558.223256.2232558l.334883.2232558h1.562791v-4.1302325h.781395v4.8h-.781395v-.2232559h-2.009302c-.223256 0-.334884-.1116279-.446512-.3348837-.183375-.0783299-.311032-.2485392-.334884-.4465116-.098947-.2478478-.137219-.5157563-.111628-.7813954v-3.0139534z" fill="#009fe3"/><path d="m127.590698 35.1627907c.023754.3756878-.013951.7527344-.111628 1.1162791-.160597.3128435-.347306.6115776-.55814.8930232l-.781395.4465117-1.116279.2232558h-1.451163v-6.9209303h.781395v2.3441861h1.227907l.893024.2232558c.247205.0500364.455058.2163189.558139.4465116.235681.1512651.397529.3940368.446512.6697675.054107.1822641.091471.3690851.111628.5581395zm-.781396.1116279c.025592-.2656391-.012681-.5335476-.111628-.7813953-.007682-.2062562-.086573-.4034833-.223255-.5581396l-.446512-.3348837h-1.674419v3.2372093h1.451163l.55814-.3348837c.134088-.211301.246296-.435716.334883-.6697675.068791-.1783123.106545-.3670857.111628-.5581395z" fill="#009fe3"/><path d="m129.6 30.8093023v6.9209303h-.781395v-6.8093024z" fill="#009fe3"/><path d="m131.162791 31.3674419v-.4465117h.669767c0 .1116279.111628.1116279.111628.2232558v.2232559c0 .1116279-.111628.1116279-.111628.2232558h-.558139c0-.0616504-.049978-.1116279-.111628-.1116279-.111628-.1116279-.111628-.1116279-.111628-.2232558zm.781395 1.4511628v4.9116279h-.669767v-4.8z" fill="#009fe3"/><path d="m133.283721 35.3860465c-.023754-.3756878.01395-.7527344.111628-1.1162791.124037-.2738741.273531-.5354889.446511-.7813953l.669768-.5581395h1.562791l.558139.3348837.446512.6697674c0 .2232558.111628.4465116.111628.7813954v.2232558.2232558h-3.125582c-.01797.2654101.020062.5316333.111628.7813953 0 .2232559.111628.3348838.334884.5581396l.446512.3348837h2.12093v.6697674h-1.562791l-.893023-.2232558c-.311582-.0325943-.595127-.1946199-.781396-.4465116-.197908-.2291817-.349539-.4945362-.446511-.7813953-.064332-.2178801-.101819-.4428003-.111628-.6697675zm.781395-.6697674h2.232558v-.5581396c-.111627-.1116279-.111627-.3348837-.223255-.4465116l-.334884-.2232558h-.893023l-.334884.3348837-.334884.3348837c0 .2232558-.111628.3348838-.111628.5581396z" fill="#009fe3"/><path d="m139.088372 35.3860465v2.3441861h-.669767v-6.8093024h.669767v3.9069768h.446512l1.674418-1.7860465h.893024l-1.897675 2.0093023 2.12093 2.7906977h-1.004651l-1.674418-2.3441861z" fill="#009fe3"/><path d="m142.660465 35.2744186c-.017548-.3387222.020155-.6780424.111628-1.0046512.111628-.3348837.223256-.6697674.446512-.7813953l.669767-.5581395h1.562791l.558139.3348837c.2183.1517479.344465.404079.334884.6697674.142023.2362201.219046.5058.223256.7813954v.2232558c0 .0616504-.049978.1116279-.111628.1116279h-3.013954c-.01797.2654101.020062.5316333.111628.7813953 0 .2232559.111628.3348838.334884.5581396.105407.1405428.270833.2232558.446512.2232558h2.12093v.6697674h-1.562791l-.893023-.2232558-.781395-.4465116c-.213096-.2180815-.366814-.4870866-.446512-.7813954-.052473-.1826654-.089809-.3693433-.111628-.5581395zm.781395-.5581395h2.232559v-.5581396c-.111628-.1116279-.111628-.3348837-.223256-.4465116l-.334884-.2232558h-.893023l-.446512.3348837-.223256.3348837c-.090236.1713954-.129001.3652222-.111628.5581396z" fill="#009fe3"/><path d="m150.92093 37.7302326-1.786046-6.4744186h.893023l1.451163 5.6930232h.111628l1.339535-4.0186046-.55814-1.6744186h.781395l1.897675 5.6930232h.111628l1.451162-5.8046512h.781396l-1.786047 6.5860466h-1.116279l-1.227907-3.7953489-1.227907 3.7953489z" fill="#009fe3"/><path d="m161.190698 34.3813953v3.3488373h-.669768v-.3348838h-2.009302l-.55814-.2232558c-.140542-.1054071-.223255-.2708331-.223255-.4465116-.088786-.1309781-.128332-.2891611-.111628-.4465116-.016281-.2289421.021976-.4584808.111628-.6697675l.334883-.4465116.781396-.3348837h1.674418v-.5581396c0-.2232558 0-.3348837-.111628-.4465116s-.111628-.2232558-.223255-.3348837h-2.232559v-.6697674h2.344186l.55814.2232558c.223256.2232558.334884.3348837.334884.5581395.085086.2535163.085086.527879 0 .7813953zm-2.790698 2.0093024v.3348837l.223256.2232558h1.562791l.334883-.2232558v-1.1162791h-1.451163l-.446511.2232558-.223256.2232559z" fill="#009fe3"/><path d="m165.990698 34.3813953v3.3488373h-.669768v-.3348838h-2.009302l-.55814-.2232558c-.140542-.1054071-.223255-.2708331-.223255-.4465116-.088786-.1309781-.128332-.2891611-.111628-.4465116-.016281-.2289421.021976-.4584808.111628-.6697675l.446511-.4465116.669768-.3348837h1.674418v-.4465117c0-.2232558 0-.3348837-.111628-.4465116s-.111628-.2232558-.223255-.3348837l-.334884-.2232558h-1.897675v-.6697675h.446512l.334884-.2232558h1.56279l.55814.2232558c.219785.0949625.354522.3195232.334884.5581396zm-2.790698 2.0093024v.3348837c.111628 0 .111628.1116279.223256.2232558h1.004651c.111628 0 .223256 0 .223256-.1116279h.334884l.334883-.2232558v-1.1162791h-1.451163c-.111627.1116279-.334883.1116279-.334883.2232558l-.334884.2232558z" fill="#009fe3"/><path d="m169.897674 32.8186047v.7813953h-1.004651l-.223256.2232558-.223255.2232558v3.683721h-.781396v-4.9116279h.781396v.5581395l.223255-.3348837h1.339535z" fill="#009fe3"/><path d="m174.586047 30.6976744v7.0325582h-.781396v-.3348838h-2.009302l-.669768-.4465116c-.213096-.2180815-.366813-.4870866-.446511-.7813953-.091474-.3266088-.129176-.665929-.111628-1.0046512-.023754-.3756878.01395-.7527344.111628-1.1162791.284119-.5837674.755767-1.0554152 1.339535-1.3395349h1.786046v-1.8976744zm-1.674419 2.6790698-.669768.2232558c-.223255 0-.334883.1116279-.446511.3348837-.219785.0949625-.354522.3195232-.334884.5581396-.091566.249762-.129598.5159852-.111628.7813953-.025592.2656391.012681.5335476.111628.7813954.007683.2062561.086574.4034832.223256.5581395l.446512.3348837h1.674418v-3.4604651h-.893023z" fill="#009fe3"/><path d="m175.813953 35.2744186c.010167-.3821076.085676-.7596543.223256-1.1162791l.334884-.7813953.669767-.4465116.781396-.2232559h.781395l.669768.4465117.334883.5581395c.100664.2862616.138731.5907909.111628.8930233v.2232558h-3.125581c-.025592.265639.012681.5335475.111628.7813953l.334883.5581396.446512.3348837h2.12093v.6697674h-2.455814l-.669767-.4465116c-.213096-.2180815-.366813-.4870866-.446512-.7813954-.097809-.2147658-.172644-.4392689-.223256-.6697674zm.781396-.5581395h2.344186c.00702-.1922217-.031216-.3834042-.111628-.5581396 0-.1116279-.111628-.2232558-.223256-.3348837l-.334884-.2232558h-.893023l-.334884.2232558c-.140542.1054071-.223255.2708331-.223255.4465116-.111628 0-.111628.2232559-.223256.4465117z" fill="#009fe3"/><path d="m183.962791 37.6186047v-3.1255814c0-.2232559 0-.3348838-.111628-.4465117s-.111628-.2232558-.223256-.3348837l-.334884-.2232558h-1.56279v3.9069767h-.781396v-4.5767441h.669768v.3348837l.334883-.2232558h1.786047l.558139.3348837.334884.5581395c0 .2232558.111628.4465116.111628.6697675v3.2372093z" fill="#009fe3"/><path d="m192.446512 36.8372093v.6697674h-1.451163l-1.227907-.2232558-.893023-.5581395c-.296796-.2795553-.525869-.6231649-.669768-1.0046512-.29949-.9442637-.29949-1.9580619 0-2.9023255.195023-.4138603.459286-.791379.781396-1.1162791.267009-.311295.614606-.5430264 1.004651-.6697675l1.116279-.2232558h1.227907v.6697675h-2.120931l-.781395.5581395c-.17298.2459065-.322474.5075212-.446511.7813954-.137581.3566247-.21309.7341714-.223256 1.116279.010019.4184312.085346.8327286.223256 1.227907.105581.2829071.256379.546803.446511.7813953l.781395.4465117.893024.2232558h1.339535z" fill="#009fe3"/><path d="m193.227907 35.1627907c-.017548-.3387222.020155-.6780424.111628-1.0046512.079698-.2943087.233415-.5633138.446512-.7813953.138368-.2691435.380084-.4705733.669767-.5581395h1.562791l.558139.3348837.334884.6697674c.098947.2478478.13722.5157563.111628.7813954v.2232558.2232558h-3.125582c0 .2232558.111628.5581395.111628.7813953l.334884.5581396.55814.3348837h2.12093v.6697674h-1.562791l-1.004651-.2232558-.669767-.4465116c-.223256-.1116279-.334884-.4465116-.446512-.7813954-.070081-.2547012-.107589-.5172595-.111628-.7813953zm.781395-.5581395h2.232558c.017374-.1929174-.021391-.3867442-.111627-.5581396-.030459-.1670344-.107904-.3219244-.223256-.4465116 0-.1116279-.111628-.1116279-.334884-.2232558h-.893023l-.334884.3348837c-.111628.1116279-.223256.2232558-.223256.3348837-.090236.1713954-.129001.3652222-.111628.5581396z" fill="#009fe3"/><path d="m201.265116 37.6186047v-3.1255814c0-.2232559 0-.3348838-.111628-.4465117s-.111628-.2232558-.111628-.3348837c-.105407-.1405428-.270833-.2232558-.446511-.2232558h-1.004651c-.111628 0-.223256 0-.223256.1116279h-.334884v3.9069767h-.781395v-4.688372h.781395v.3348837h2.009302l.55814.3348837.334884.4465116c0 .2232558.111628.4465116.111628.7813954v3.2372093z" fill="#009fe3"/><path d="m203.051163 33.3767442v-.5581395h.669767v-.8930233h.669768v1.0046512h1.339535v.5581395h-1.339535v3.1255814c0 .1116279.111628.2232558.111628.3348837h.781395c0-.0616504.049977-.1116279.111628-.1116279h.334884v.6697674h-1.339535c-.111628-.1116279-.334884-.1116279-.446512-.3348837-.140543-.1054071-.223256-.2708331-.223256-.4465116-.111628-.1116279-.111628-.4465116-.111628-.6697674v-2.6790698z" fill="#009fe3"/><path d="m209.190698 32.8186047v.6697674h-.446512c0-.0616504-.049977-.1116279-.111628-.1116279h-.669767l-.223256.2232558v3.6837209h-.781395v-4.4651162h.781395v.5581395c0-.1116279.111628-.1116279.223256-.2232558l.223256-.2232558h1.116279z" fill="#009fe3"/><path d="m213.432558 34.2697674v3.3488373h-.669767v-.3348838h-.334884l-.334884.2232558h-1.451163l-.446511-.3348837-.334884-.3348837c-.088786-.1309781-.128332-.2891611-.111628-.4465116 0-.2232558.111628-.4465117.111628-.6697675l.446512-.4465116.669767-.2232558h1.674419v-1.0046512l-.223256-.3348837h-2.232558l-.223256-.6697674h2.455814l.55814.2232558.334883.5581395c.060726.1419513.098409.2926839.111628.4465116zm-2.902325 2.0093024c-.010369.122222.03.2433269.111627.3348837 0 .1116279.111628.1116279.111628.2232558h1.674419c.111628-.1116279.223256-.1116279.223256-.2232558v-1.1162791h-1.786047c-.111628.1116279-.223256.1116279-.223256.2232558-.166336.1351467-.213189.3694133-.111627.5581396z" fill="#009fe3"/><path d="m218.232558 34.2697674v3.3488373h-.669767v-.3348838h-.334884l-.334884.2232558h-1.451163l-.446511-.2232558-.334884-.4465116c0-.1116279-.111628-.3348837-.111628-.4465116.022356-.2373626.098723-.4664639.223256-.6697675 0-.1116279.223256-.3348837.334884-.4465116l.669767-.2232558h1.674419v-1.0046512l-.223256-.3348837h-2.232558l-.223256-.6697674h2.455814l.55814.2232558.334883.5581395c.060726.1419513.098409.2926839.111628.4465116zm-2.902325 2.0093024c-.010369.122222.03.2433269.111627.3348837.06459.0572527.10458.1372326.111628.2232558h1.674419l.334884-.2232558v-1.1162791h-1.339535l-.446512.2232558c-.111628.1116279-.223256.1116279-.223256.2232558 0 .111628-.223255.2232559-.223255.3348838z" fill="#009fe3"/><path d="m220.465116 30.6976744v6.9209303h-.669767v-6.9209303z" fill="#009fe3"/><path d="m112.632558 23.4418605c.461251-.1808472.956883-.2570982 1.451163-.2232558h.558139v4.9116279h-.781395v-4.2418605h-1.227907z" fill="#026a9d"/><path d="m116.539535 23.3302326 1.451163-.2232559c1.116279 0 1.786046.5581396 1.786046 1.3395349 0 .7813954-.334884 1.227907-1.227907 1.6744186l-.669767.3348838c-.365958.1701919-.675759.4412678-.893023.7813953h3.125581v.6697674h-3.572093l-.223256-.6697674c.212551-.5934447.65515-1.0762791 1.227907-1.3395349l.669767-.4465116c.55814-.3348837.781396-.5581395.781396-1.0046512 0-.4465116-.446512-.7813953-1.116279-.7813953l-1.339535.2232558z" fill="#026a9d"/><path d="m121.897674 23.3302326c.308252 0 .55814.2498875.55814.5581395 0 .4465116-.223256.6697674-.55814.6697674-.187662.0435046-.384494-.0128394-.520711-.1490561-.136217-.1362168-.192561-.3330485-.149056-.5207113 0-.3348837.223256-.5581395.669767-.5581395zm0 3.4604651c.334884 0 .55814.2232558.55814.6697674 0 .308252-.249888.5581396-.55814.5581396-.446511 0-.669767-.2232559-.669767-.5581396 0-.3699023.299865-.6697674.669767-.6697674z" fill="#026a9d"/><path d="m123.572093 25.6744186c-.098295-.6476034.092766-1.3057018.522577-1.799984.42981-.4942822 1.055003-.7748751 1.709981-.7674579 1.227907-.1116279 2.12093.7813954 2.12093 2.3441861.095491.658314-.0932 1.3261994-.519053 1.837223s-1.048763.81706-1.713505.8418468c-1.227907 0-2.12093-.8930233-2.12093-2.455814zm2.12093 1.7860465c.781396 0 1.451163-.7813953 1.451163-1.8976744s-.558139-1.8976744-1.451163-1.8976744c-.893023 0-1.339535.6697674-1.339535 1.8976744s.55814 1.8976744 1.339535 1.8976744z" fill="#026a9d"/><path d="m132.502326 23.1069767v.6697675c-1.581057 1.5614944-2.466307 3.6941419-2.455814 5.9162791h-.55814c-.052464-2.1539448.750251-4.2410033 2.232558-5.8046512h-3.125581v-.6697674z" fill="#026a9d"/><path d="m112.967442 48.8930233v-.6697675l.781395-.2232558h1.339535v5.2465116h-1.116279v-4.4651163h-1.116279z" fill="#026a9d"/><path d="m116.986047 48.7813953v-.8930232h2.902325v.8930232l-.334884.6697675-.669767.5581395c.353282.0771285.668885.2743807.893023.5581396.156387.2709712.233729.5803371.223256.8930232-.017412.4919424-.265587.9469291-.669767 1.227907-.513375.3860476-1.144206.5831824-1.786047.5581395h-.669767v-.8930232h.669767c.446512 0 .781395 0 1.004651-.2232558.149517-.0268047.281651-.1133917.36591-.2397809.08426-.1263892.113366-.2816612.080602-.4299866 0-.2232558-.111628-.3348837-.223256-.5581395l-.55814-.3348837-.446511.2232558h-.55814v-.5581396l1.116279-.5581395c.31707-.242953.582682-.5465096.781396-.8930233z" fill="#026a9d"/><path d="m121.004651 50.0093023c0-.2232558 0-.3348837.111628-.4465116s.334884-.2232558.55814-.2232558h.446511c.090237.1713954.129002.3652221.111628.5581395 0 .2232558 0 .3348837-.111628.4465116-.111628.111628-.223256.2232559-.446511.2232559h-.55814c-.106057-.1653958-.145913-.3646754-.111628-.5581396zm0 2.455814c0-.2232558 0-.3348837.111628-.4465116l.55814-.2232559h.446511c.090237.1713954.129002.3652222.111628.5581396 0 .2232558 0 .3348837-.111628.4465116s-.223256.2232558-.446511.2232558h-.55814c-.106057-.1653957-.145913-.3646754-.111628-.5581395z" fill="#026a9d"/><path d="m126.139535 47.8883721v.8930232h-2.009302v1.0046512h.446511c.470006-.0253869.93677.0913041 1.339535.3348837.303224.2900393.46606.6971309.446512 1.1162791.036909.565933-.21516 1.1120839-.669768 1.4511628-.534208.3314733-1.158699.4875961-1.786046.4465116h-.669768v-.7813953h.669768c.446511 0 .781395 0 1.004651-.2232558.223256-.2232559.446512-.4465117.446512-.6697675.009581-.2656884-.116585-.5180195-.334884-.6697674-.265559-.1693594-.579009-.2477219-.893023-.2232558h-.893024v-2.6790698z" fill="#026a9d"/><path d="m130.269767 47.8883721v.8930232h-2.009302v1.0046512h.55814c.439582-.1023667.90116.0235184 1.227907.3348837.332996.2784348.535189.6828211.558139 1.1162791.012117.5872982-.284412 1.1379954-.781395 1.4511628-.527703.3465806-1.15733.5039875-1.786047.4465116h-.669767v-.7813953h.669767l1.004651-.2232558c.261229-.1235223.432964-.3811252.446512-.6697675.035259-.2706339-.097221-.535594-.334884-.6697674l-.781395-.2232558h-.893023v-2.6790698z" fill="#026a9d"/><path d="m146.567442 48.8930233v-.7813954l.781395-.2232558h1.339535v5.1348837h-1.004651v-4.2418605h-1.116279z" fill="#026a9d"/><path d="m150.697674 48.8930233v-.7813954l.781396-.2232558h1.339535v5.1348837h-1.004652v-4.2418605h-1.116279z" fill="#026a9d"/><path d="m156.167442 48.8930233v1.5627907h-.55814v-.2232559c0 .1116279-.111628.1116279-.223255.1116279h-.334884l-.55814-.2232558c-.140543-.1054071-.223256-.2708331-.223256-.4465116 0-.2232558.111628-.3348837.223256-.5581395h1.116279c.010368-.122222-.03-.243327-.111628-.3348838h-1.004651v-.5581395h.893024c.334883 0 .558139 0 .669767.2232558.075583.1365274.114071.2904777.111628.4465117zm-1.339535.8930232h.781395v-.4465116h-.669767c-.149797.0956373-.198796.2916333-.111628.4465116z" fill="#026a9d"/><path d="m172.018605 50.455814v2.5674418h-.893024v-.2232558l-.446511.2232558h-.669768c-.315362.0441946-.63556-.0358548-.893023-.2232558-.22176-.1980748-.344388-.4842071-.334884-.7813953-.017769-.3865308.147695-.7588256.446512-1.0046512.39666-.257915.868169-.3757924 1.339535-.3348837h.558139c0-.1756785-.082713-.3411046-.223255-.4465117-.183114-.1632553-.425324-.2439919-.669768-.2232558h-1.116279v-.7813953l.669768-.2232558h.781395c.454867-.0376116.903445.1255077 1.227907.4465116.205227.2917954.285583.6533993.223256 1.0046512zm-2.232558 1.4511627c-.010369.1222221.03.243327.111627.3348838h1.227907v-.6697675h-.558139l-.55814.2232558c-.111628-.2232558-.223255 0-.223255.1116279z" fill="#026a9d"/><path d="m174.027907 49.1162791v2.344186c-.034285.1934641.005571.3927438.111628.5581396.105407.1405427.270833.2232558.446512.2232558h.781395v-3.1255814h.893023v3.9069767h-.893023v-.2232558l-.446512.2232558h-.558139c-.390044.0378234-.771357-.131649-1.004651-.4465116-.244883-.2746703-.365988-.6379851-.334884-1.0046512v-2.4558139z" fill="#026a9d"/><path d="m177.04186 49.7860465v-.6697674h.446512v-.7813954h1.004651v.7813954h1.004651v.6697674h-1.004651v1.7860465c0 .1756785.082713.3411046.223256.4465117l.334884.2232558h.558139v.7813953h-.781395c-.363652.0086955-.718947-.1097361-1.004651-.3348837-.244883-.2746703-.365988-.6379851-.334884-1.0046512v-1.8976744z" fill="#026a9d"/><path d="m183.851163 51.0139535c.004354.5369328-.195107 1.0555327-.55814 1.4511628-.381807.3847628-.909928.5878863-1.451163.5581395-.484403.0085246-.957126-.1490495-1.339534-.4465116-.344293-.4005091-.506101-.9263825-.446512-1.4511628-.063653-.5789814.142112-1.155124.558139-1.5627907.376237-.3230482.845228-.5184612 1.339535-.5581395.488888-.0414723.973308.1200009 1.339535.4465116.43145.39763.640084.9818059.55814 1.5627907zm-1.004651 0c0-.4465116 0-.6697675-.223256-.8930233-.174995-.1767823-.423703-.2596851-.669768-.2232558l-.669767.2232558c-.223256.2232558-.223256.5581396-.223256 1.0046512s0 .6697674.223256.7813953c.134173.2376624.399133.3701425.669767.3348838.25807-.0211455.49801-.1411154.669768-.3348838.187401-.2574634.26745-.5776609.223256-.8930232z" fill="#026a9d"/><path d="m187.088372 53.0232558v-2.4558139c0-.2232559 0-.4465117-.111628-.4465117l-.558139-.2232558h-.669768v3.0139535h-1.004651v-3.7953488h.893023v.3348837l.55814-.2232558h.558139c.361038.0074973.711323.1242589 1.004652.3348837.241696.3199872.360527.7160899.334883 1.1162791v2.5674418z" fill="#026a9d"/><path d="m192.781395 50.9023256c.03566.5973983-.212576 1.1766141-.669767 1.5627907-.314752.4119738-.825379.6247354-1.339535.5581395-.488888.0414723-.973308-.120001-1.339535-.4465116-.384763-.3818075-.587886-.9099286-.558139-1.4511628-.02166-.5732935.178207-1.1329228.558139-1.5627907.381808-.3847629.909929-.5878863 1.451163-.5581395.488888-.0414723.973308.1200009 1.339535.4465116.363032.3956301.562494.9142299.558139 1.4511628zm-1.004651.1116279c.027558-.3327792-.095307-.6604196-.334884-.8930233-.134173-.2376623-.399133-.3701424-.669767-.3348837-.258069.0211454-.498009.1411154-.669767.3348837-.138898.277741-.215111.5825944-.223256.8930233-.010473.3126861.066869.622052.223256.8930232.171758.1937684.411698.3137383.669767.3348838.270634.0352587.535594-.0972214.669767-.3348838.227397-.2403911.348145-.5623857.334884-.8930232z" fill="#026a9d"/><path d="m198.251163 53.0232558v-2.4558139c0-.2232559 0-.4465117-.223256-.5581396h-1.116279v3.0139535h-1.004651v-2.4558139c.034285-.1934642-.005571-.3927438-.111628-.5581396h-1.227907v3.0139535h-1.004651v-3.9069767h1.004651v.3348837l.446511-.2232558h1.227907l.446512.3348837.55814-.3348837h.669767c.361038.0074973.711323.1242589 1.004651.3348837.244883.2746703.365988.6379851.334884 1.0046512v2.6790697z" fill="#026a9d"/><path d="m200.148837 48c0-.2232558.111628-.3348837.111628-.4465116h.893023c.111628.1116279.111628.2232558.111628.4465116.010368.122222-.03.243327-.111628.3348837h-.893023c0-.1116279-.111628-.2232558-.111628-.3348837zm1.116279 1.0046512v3.9069767h-1.004651v-3.9069767z" fill="#026a9d"/><path d="m202.046512 51.0139535c-.02166-.5732935.178207-1.1329228.558139-1.5627907.331949-.3089771.775027-.4700966 1.227907-.4465116.434777-.0243785.865707.0931478 1.227907.3348837.281474.3481301.438623.7802912.446512 1.227907v.3348837c-.059121.1030886-.097072.2169403-.111628.3348837h-2.344186c-.009505.2971882.113123.5833205.334884.7813954l.781395.2232558h1.227907v.7813953h-1.339535c-.536933.0043546-1.055533-.1951069-1.451163-.5581395-.384763-.3818075-.587886-.9099286-.558139-1.4511628zm1.004651-.4465116h1.451163c.036429-.2460649-.046474-.4947731-.223256-.6697675-.105407-.1405428-.270833-.2232558-.446512-.2232558l-.558139.2232558c-.124533.2033036-.2009.4324048-.223256.6697675z" fill="#026a9d"/><path d="m148.24186 269.693023c1.786047-.111628 3.572093.334884 3.906977 1.004651l.334884.55814-.669768 1.562791c-2.046805 1.247167-4.413865 1.868035-6.809302 1.786046-3.795349-.223256-5.246511-.893023-7.032558-.781395-1.786046.111628-6.92093 1.004651-7.255814-.669768-.334884-1.674418-.558139-4.688372-.558139-4.688372l11.609302-1.786046s4.688372 3.013953 6.474418 3.013953z" fill="#f4f3f4"/><path d="m148.353488 274.269767c-1.091673.287314-2.221887.400336-3.348837.334884-3.795349-.223256-5.246511-.893023-7.032558-.781395-1.786046.111628-6.92093 1.004651-7.255814-.669768-.334884-1.674418-.558139-4.688372-.558139-4.688372l7.702325-1.116279c1.562791 4.130233 5.916279 6.139535 10.493023 6.92093z" fill="#010101" opacity=".07"/><path d="m121.897674 250.493023s9.823256 9.488372 11.609303 10.939535c1.786046 1.451163 11.609302 6.697675 12.390697 7.590698.781396.893023-2.12093 2.232558-7.813953 1.116279-3.348837-.669768-5.693023-1.897675-7.925581-1.674419-.059076-1.025336-.365475-2.021134-.893024-2.902325-.781395-1.004651-13.953488-9.041861-13.953488-9.041861s1.004651-7.255814 6.586046-6.027907z" fill="#edc7b2"/><path d="m118.213953 251.051163c-.099854.616182.018592 1.247892.334884 1.786046 1.451163 2.567442 3.683721 4.130233 6.139535 5.693024 3.726635 2.214213 7.110979 4.959292 10.046512 8.148837 1.363028 1.509202 2.989579 2.757485 4.8 3.683721l-1.451163-.223256c-3.348837-.669768-5.693023-1.897675-7.925581-1.674419-.059076-1.025336-.365475-2.021134-.893024-2.902325-.781395-1.004651-13.953488-9.041861-13.953488-9.041861s.558139-3.795349 2.902325-5.469767z" fill="#010101" opacity=".07"/><path d="m66.9767442 207.851163s-3.6837209 3.795349-7.255814 3.237209l-.8930232-3.572093 5.3581395-2.902326s.5581395 3.013954 2.7906977 3.23721z" fill="#ce9b25"/><path d="m66.9767442 207.851163s-3.6837209 3.795349-7.255814 3.237209l-.8930232-3.572093 5.3581395-2.902326s.5581395 3.013954 2.7906977 3.23721z" fill="#b58b55"/><path d="m79.4790698 242.009302-8.1488372-10.381395-2.2325582-19.2 15.0697675 23.44186z" fill="#edc7b2"/><path d="m81.1534884 239.888372-1.6744186 2.12093-8.1488372-10.381395-2.2325582-19.2 2.2325582 3.460465c.8930232 8.483721 2.9023255 19.311628 9.8232558 24z" fill="#010101" opacity=".07"/><path d="m85.7302326 221.134884 25.2279074-2.567442c.187662-.043505.384494.012839.520711.149056s.192561.333048.149056.520711l-6.809302 20.427907-27.1255817 3.013954 6.5860465-20.427907c.1583533-.668785.7641355-1.134771 1.4511628-1.116279z" fill="#9d9d9c"/><path d="m100.465116 238.548837s4.241861-2.232558 6.139535-2.12093c1.897675.111628 13.060465 10.604651 13.060465 10.604651l-7.032558 7.47907-8.260465-4.688372s-17.7488372 13.395349-21.7674418 14.846511c-4.0186047 1.451163-10.2697675 1.227907-10.2697675 1.227907l12.9488372-15.516279z" fill="#3a8835"/><path d="m138.64186 272.818605c1.786047-.111628 3.572093.446511 3.906977 1.004651l.334884.558139-.669768 1.562791c-2.023386 1.311601-4.399196 1.973712-6.809302 1.897674-3.683721-.334883-5.246511-1.004651-7.032558-.893023-1.786046.111628-6.92093 1.004651-7.255814-.669767-.334884-1.674419-.558139-4.576744-.558139-4.576744l11.609302-1.786047s4.688372 3.013954 6.474418 2.902326z" fill="#fff"/><path d="m139.75814 277.172093c-1.385643.535493-2.870965.764004-4.353489.669767-3.683721-.334883-5.246511-1.004651-7.032558-.893023-1.786046.111628-6.92093 1.004651-7.255814-.669767-.334884-1.674419-.558139-4.576744-.558139-4.576744l6.809302-1.116279c4.018605 2.790697 7.702325 5.693023 12.390698 6.586046z" fill="#010101" opacity=".07"/><path d="m60.6139535 207.516279s-.6697675 1.897674-.2232558 1.897674c.7967798.051905 1.5841174.201874 2.344186.446512l4.6883721 13.841861s-7.2558139 1.004651-7.5906977 0c-.3348837-1.004652-12.1674418-14.288373-12.1674418-14.288373l5.0232558-5.581395z" fill="#edc3ad"/><path d="m41.972093 212.093023c2.4612251-1.865833 5.033393-3.580612 7.7023256-5.134883l13.2837209 14.511627-.2232558-11.609302 5.0232558 1.116279c1.7271905 1.169918 2.8345291 3.056495 3.0139535 5.134884.5581396 3.237209 2.7906977 14.623256 2.7906977 14.623256l-.2232558 15.404651s-9.6 1.227907-13.0604651 3.572093-6.1395349 9.823256-6.027907 12.27907c-1.4363848-2.208835-2.7050602-4.522302-3.7953488-6.920931-1.0046512-3.572093-11.8325582-21.209302-11.8325582-31.479069 0-10.269768 1.1162791-9.711628 3.3488372-11.497675z" fill="#fff"/><path d="m41.972093 212.093023.3348837-.223256c.1232386.62821.3495495 1.231705.6697675 1.786047 6.4744186 11.832558 11.944186 27.125581 24.3348837 33.488372-2.5674419.669767-5.4697674 1.451163-7.0325581 2.567442-3.4604651 2.455814-6.1395349 9.823256-6.027907 12.27907-1.4363848-2.208835-2.7050602-4.522302-3.7953488-6.920931-1.0046512-3.572093-11.8325582-21.209302-11.8325582-31.479069 0-10.269768 1.1162791-9.711628 3.3488372-11.497675z" fill="#f4f3f4"/><path d="m62.0651163 245.693023 21.7674418-4.24186c.2966507-.065528.6071949-.007316.8599732.161203s.4259525.432786.4795617.73182c.1409842.64516-.253553 1.286283-.8930232 1.451163l-21.7674419 4.24186c-.6351062.08799-1.2435049-.286409-1.4511628-.893023-.0761764-.667156.3533788-1.287625 1.0046512-1.451163z" fill="#9d9d9c"/><path d="m58.6046512 249.711628c2.7906976-1.786047 12.7255814-3.683721 12.7255814-3.683721s20.2046511-8.037209 22.2139534-8.483721c2.0093024-.446512 6.474419-1.562791 7.255814-.334884l9.823256 13.506977c.558139.781395-7.813954 7.590698-7.813954 7.590698s-7.0325578-5.134884-7.7023253-6.362791c-.6697674-1.227907-8.7069767 8.037209-10.1581395 9.153488s-7.8139535 5.916279-12.9488372 6.362791-10.1581395.893023-14.4-2.009302c-4.2418605-2.902326-3.7953488-4.688372-3.9069767-6.697675-.111628-2.009302 2.1209302-7.255814 4.9116279-9.04186z" fill="#3a8835"/><path d="m70.5488372 260.204651c7.0325581-1.227907 13.3953488-5.246511 19.9813954-7.925581l5.5813953-2.567442c1.9945622 2.193545 4.2429071 4.142111 6.6976741 5.804651.648756.446057 1.364815.785243 2.120931 1.004651l-2.120931 1.786047s-7.0325578-5.134884-7.7023253-6.362791c-.6697674-1.227907-8.7069767 8.037209-10.1581395 9.153488s-7.8139535 5.916279-12.9488372 6.362791-10.1581395.893023-14.4-2.009302c-4.2418605-2.902326-3.7953488-4.688372-3.9069767-6.697675v-.781395c4.688372 3.013954 12.1674418 3.013954 16.8558139 2.232558z" fill="#010101" opacity=".07"/><path d="m109.395349 248.706977 3.460465 4.8c-4.576744.111628-7.47907 6.92093-7.47907 6.92093l-4.465116-3.348837c.843725-4.266255 4.206665-7.584946 8.483721-8.372093z" fill="#549242"/><path d="m107.497674 256.855814c-.877221 1.081015-1.591748 2.284429-2.12093 3.572093l-4.465116-3.348837c.436622-2.229066 1.570231-4.261745 3.237209-5.804651.603907 2.123508 1.759345 4.049238 3.348837 5.581395z" fill="#010101" opacity=".07"/><path d="m119.106977 245.804651 3.795349 4.576744-7.590698 7.032558-4.353488-3.348837c.659068-4.218453 3.93974-7.544066 8.148837-8.260465z" fill="#549242"/><path d="m112.297674 253.618605s9.823256 9.6 11.720931 10.939535c1.897674 1.339534 11.609302 7.144186 12.390697 7.925581.781396.781395.893024 2.232558-8.372093.669767-5.581395-.893023-7.367442-.558139-7.367442-.558139s-.334883-3.013954-1.116279-4.018605c-.781395-1.004651-13.84186-8.930232-13.84186-8.930232s1.004651-7.144186 6.586046-6.027907z" fill="#edc7b2"/><path d="m113.413953 263.218605c5.91628 3.906976 12.390698 6.809302 18.418605 10.381395-1.273162-.06987-2.540733-.218996-3.795349-.446512-5.581395-.893023-7.367442-.558139-7.367442-.558139s-.334883-3.013954-1.116279-4.018605c-.781395-1.004651-13.84186-8.930232-13.84186-8.930232.185851-1.012769.524606-1.991394 1.004651-2.902326 1.710316 2.640081 4.00115 4.854554 6.697674 6.474419z" fill="#010101" opacity=".07"/><path d="m61.2837209 188.986047c2.2953703.527222 4.4599439 1.514571 6.3627907 2.902325 0 0 1.5627907.669768.5581396 3.125581l-1.6744186 4.8s.7813953 1.004652-.3348838 3.013954c-1.1113779 1.750443-2.3818782 3.39462-3.7953488 4.911628-.3731911.427533-.888805.705171-1.4511628.781395-.5395373.007841-1.0738403-.106652-1.5627907-.334883l-6.6976744-4.353489s5.4697674-15.404651 8.5953488-14.846511z" fill="#edc7b2"/><path d="m46.1023256 213.767442c2.9023256 1.339535 3.6837209 7.590698 3.7953488 8.930232.1116279 1.339535-.5581395 19.311628-.5581395 19.311628l17.5255814-1.339535 7.5906977-2.455814 4.0186046 2.232559-8.1488372 3.683721-4.4651163.781395s-12.1674418 4.465116-15.2930232 5.358139c-3.1255814.893024-7.9255814 1.562791-9.6.334884s-2.2325582-31.255814-1.0046512-34.269767c1.227907-3.013954 3.2372093-4.018605 6.1395349-2.567442z" fill="#edc7b2"/><path d="m40.1860465 215.888372c.1116279 10.716279 1.3395349 17.413954 2.6790698 22.102326 2.344186 8.037209 8.9302325 11.16279 16.5209302 8.706976l2.3441861-.334883c-3.7953489 1.451162-9.2651163 3.348837-11.1627907 3.906976-1.8976745.55814-7.9255814 1.562791-9.6.334884s-2.2325582-31.255814-1.0046512-34.269767c0-.175679.082713-.341105.2232558-.446512z" fill="#010101" opacity=".07"/><path d="m78.4744186 240.334884-.7813953 2.344186-8.2604652 1.56279.6697675-3.572093z" fill="#edc7b2"/><path d="m66.3069767 186.418605c2.4056306 1.46811 3.8507056 4.103246 3.7953489 6.92093.1116279 2.567442-3.572093 6.474418-3.572093 6.474418l.7813953-2.455813c.4465116-1.786047-1.5627907-6.362791-1.5627907-6.362791l-2.0093023-5.134884s-.2232558-1.004651 2.5674418.55814z" fill="#b58b55"/><path d="m55.5906977 184.409302c3.4604651-.893023 5.6930232-1.451162 8.1488372 1.451163 2.4558139 2.902326 2.0093023 5.134884 2.0093023 5.134884-2.0715117 2.612696-4.8096002 4.618057-7.9255814 5.804651-4.3534884 1.786047-3.6837209 7.590698-3.1255814 10.269767.5581396 2.67907 1.5627907 2.902326 1.5627907 2.902326s-5.3581395.446512-6.6976744 0-3.6837209-.893023-5.0232558-2.790698c-1.3395349-1.897674-3.2372093-7.925581-.4465116-11.497674 2.7906976-3.572093 7.7023255-10.269768 11.4976744-11.274419z" fill="#b58b55"/><path d="m44.427907 135.404651c-2.2325582-2.344186-7.7023256-4.8-13.172093-4.465116-5.4697675.334884-6.4744187 1.897674-6.4744187 1.897674l18.083721 6.697675z" fill="#db4b47"/><path d="m5.35813953 245.35814c-1.60388999.337064-3.09948125 1.065685-4.35348837 2.12093l-.78139535.558139c-.11190326.067353-.1887065.180325-.2101785.309157s.01454027.260606.0985506.360611c.44651163 1.004651 8.0372093 10.604651 9.37674418 12.948837 1.33953491 2.344186 4.01860461 4.688372 5.35813951 3.572093-4.0186046-10.046512-4.5767442-13.618605-4.5767442-13.618605z" fill="#d79832"/><path d="m10.3813953 261.655814c-1.22790693-2.12093-8.14883716-11.386047-9.93488367-13.841861l-.22325582.223256c-.11190326.067353-.1887065.180325-.2101785.309157s.01454027.260606.0985506.360611c.44651163 1.004651 8.0372093 10.604651 9.37674418 12.948837 1.33953491 2.344186 3.46046511 4.130233 4.91162791 3.795349-1.3395349-.334884-3.0139535-2.009303-4.0186047-3.795349z" fill="#e0b885"/><path d="m40.855814 228.837209-30.2511628 24.334884s-2.5674419.223256-5.24651167-2.567442c-1.41013566-1.358822-2.38195785-3.108102-2.79069767-5.023256l24.00000004-22.883721 6.3627907-4.24186z" fill="#5182b0"/><path d="m36.1674419 219.572093s-32.59534888 21.87907-30.80930237 31.032558c-1.41013566-1.358822-2.38195785-3.108102-2.79069767-5.023256l24.00000004-22.883721 6.3627907-4.24186z" fill="#026a9d"/><path d="m20.7627907 102.92093c1.0046512-.223256 3.1255814-.223256 3.4604651-1.227907s5.4697675-2.6790695 7.7023256-1.339535c2.2325581 1.339535.8930233.223256 1.4511628 1.227907 1.4225647 2.343277 1.8258237 5.16609 1.1162791 7.813954-1.5627907 7.032558 2.344186 12.055814-.6697675 14.288372-4.9116279 3.795349-13.5069767 1.339535-17.4139535-4.911628-6.1395349-8.372093.1116279-14.734884 4.3534884-15.851163z" fill="#1d1d1b"/><path d="m24 120.111628 8.4837209 3.906977.3348838 3.572093c-.0368031 1.940967.8809582 3.77649 2.4558139 4.911628 0 0 9.9348837 9.823255 1.7860465 10.381395-8.1488372.558139-16.4093023-10.493023-16.4093023-10.493023 3.7953488-5.35814 3.3488372-12.27907 3.3488372-12.27907z" fill="#ae7a55"/><path d="m43.5348837 135.404651s5.6930233 3.683721 7.255814 7.925582c.3348837.893023 4.1302325 17.525581 4.8 21.32093.1116279.669767-2.9023256 4.465116-3.683721 1.227907-1.4511627-6.697675-6.5860465-17.525582-6.5860465-17.525582-2.2225788-1.379055-4.3484485-2.908189-6.3627907-4.576744-2.5674418-2.232558 4.5767442-8.372093 4.5767442-8.372093z" fill="#946648"/><path d="m42.5302326 145.562791-.2232559.781395 3.0139535 2.009302c.3743918.687578.7098054 1.395673 1.0046512 2.120931-.2232558-1.674419.8930233-4.353489 2.4558139-7.144186-3.3488372 3.68372-6.2511627 2.232558-6.2511627 2.232558z" fill="#612904" opacity=".1"/><path d="m55.4790698 164.204651 1.7860465 6.809302c.1105751.325757.1105751.678896 0 1.004652l-1.0046512 4.018604c-.1551702.43568-.4251436.821357-.7813953 1.116279l-3.0139535 2.120931c-.4436458-.669082-.3499819-1.558889.2232558-2.120931l1.4511628-1.451162.4465116-3.348838c.0167038-.15735-.0228419-.315533-.1116279-.446511-.1742081-.16684-.4246727-.227117-.6557136-.157805-.2310408.069312-.4069642.257506-.4605655.492688l-.5581395 3.23721c-.1176568.349844-.4176728.607-.7813953.669767-.4315528 0-.7813954-.349842-.7813954-.781395v-4.688372l.7813954-6.474419z" fill="#946648"/><path d="m41.1906977 178.381395.5581395 4.8 1.1162791 8.03721 2.7906977 18.530232c.5226644 3.733902.7094589 7.507151.5581395 11.274419-.091467 2.777532-1.5552258 5.328654-3.9069768 6.809302l-1.4511627 1.004651-8.2604652-1.004651.5581396-7.590698-10.6046512-39.96279z" fill="#5182b0"/><path d="m32.0372093 189.87907 3.572093 27.125581c.1080936 1.473433-.4683556 2.914556-1.5627907 3.906977l-1.0046511.781395-10.4930233-41.413953z" fill="#026a9d"/><path d="m25.8976744 258.530233c-.1116279 2.344186.7813954 3.906976 1.5627907 6.809302.7813954 2.902325.6697675 4.353488-4.0186046 4.576744s-4.3534884-3.013953-4.3534884-3.460465.5581395-5.581395.5581395-5.581395z" fill="#d79832"/><path d="m23.2186047 268.8c-1.2552073.122871-2.5212495-.068954-3.683721-.55814.5581396.893024 1.5627907 1.786047 3.9069768 1.674419 2.344186-.111628 3.7953488-1.004651 4.1302325-2.12093-1.3425941.698355-2.8406412 1.044059-4.3534883 1.004651z" fill="#e0b885"/><path d="m37.8418605 179.162791-.8930233 8.372093c-.1960989 1.661726-1.1420117 3.142285-2.5674419 4.018604-.8214118.504537-1.4200589 1.302733-1.6744186 2.232559l-4.2418604 29.469767-.7813954 38.734884s-.7813953.669767-4.6883721 1.004651c-3.9069767.334884-4.2418604-1.004651-4.2418604-1.004651l-2.1209303-18.083721c-.4465116-4.688372-1.2279069-9.934884-.4465116-14.511628l.7813954-5.246512-1.5627907-15.851163c-.5195234-3.621835-.7063497-7.283631-.5581396-10.939534l.2232558-3.906977c.0988316-.751444.0224195-1.515565-.2232558-2.232558-.6682933-2.165428-.8960296-4.442791-.6697674-6.697675l.5581395-6.251163z" fill="#5182b0"/><path d="m19.2 224.037209c-1.2453913-10.762095-1.1328813-21.638065.3348837-32.372093 0 0 9.9348837 0 10.2697675-8.930232l-14.9581396-4.465117h-.1116279l-.5581395 6.251163c-.2262622 2.254884.0014741 4.532247.6697674 6.697675.2456753.716993.3220874 1.481114.2232558 2.232558l-.2232558 3.906977c-.1482101 3.655903.0386162 7.317699.5581396 10.939534l1.5627907 15.851163-.7813954 5.246512c-.7813953 4.576744 0 9.823256.4465116 14.511628l2.1209303 18.083721s-3.5720931-23.776745.4465116-37.953489z" fill="#026a9d"/><path d="m20.7627907 182.623256c-.3348837 2.790697-.8930233 7.032558-.8930233 7.032558s5.8046512.558139 7.3674419-4.576744c1.5627907-5.134884-6.4744186-2.455814-6.4744186-2.455814z" fill="#5182b0"/><path d="m12.055814 135.516279 8.5953488-3.125581s6.2511628 8.037209 14.0651163 7.032558c2.2325581-.334884 2.4558139-5.023256.5581395-6.92093.3348837.223255 3.7953488-1.562791 9.1534884 2.902325.7813953 1.451163 1.3395349 9.153489-.5581396 12.27907l-1.5627907-.781395c.2257068 2.608196.1131452 5.234631-.3348837 7.813953-.6697674 3.572093-1.5627907 8.706977-1.4511628 10.381395.3348838 7.367442 2.7906977 15.962791 2.0093024 17.302326-.7813954 1.339535-11.3860466 5.693023-28.4651163 1.897674-.4465116-16.409302-1.4511628-28.8-1.4511628-28.8l-3.90697676-6.027907c-1.66099276-2.494465-2.22590464-5.56113-1.56279069-8.48372.42783468-2.626325 2.34631368-4.762813 4.91162795-5.469768z" fill="#db4b47"/><path d="m29.3581395 163.981395-6.5860465-12.948837c-1.4511628 2.567442-7.9255814 4.576744-10.1581395 4.465116 0 0 8.9302325 11.720931 12.7255814 15.851163.7813953.893023 2.2325581.55814 3.3488372.223256l18.3069767-5.693023-.6697674-4.688372z" fill="#ae7a55"/><path d="m59.0511628 149.804651-11.9441861 3.906977c-.1699891-.023985-.338676.051612-.433903.194452-.0952269.142841-.1001287.327627-.0126086.475315l1.227907 3.683721 13.0604651-4.24186-1.227907-3.572093c-.0268046-.149517-.1133917-.281651-.2397808-.36591-.1263892-.08426-.2816613-.113366-.4299866-.080602z" fill="#3d3d3b"/><path d="m48.1641178 152.066574h10.9209302c.2209139 0 .4.179086.4.4v2.504186c0 .220914-.1790861.4-.4.4h-10.9209302c-.2209139 0-.4-.179086-.4-.4v-2.504186c0-.220914.1790861-.4.4-.4z" fill="#ecf7fe" transform="matrix(.95266148 -.30403306 .30403306 .95266148 -44.197049 23.58046)"/><path d="m47.8771657 155.473895h13.1302326c.1656854 0 .3.134315.3.3v.706047c0 .165685-.1343146.3-.3.3h-13.1302326c-.1656854 0-.3-.134315-.3-.3v-.706047c0-.165685.1343146-.3.3-.3z" fill="#bdbec0" transform="matrix(.95266148 -.30403306 .30403306 .95266148 -44.890528 23.943071)"/><path d="m59.7209302 154.269767-1.0046511.334884c-.2232558 0-.2232558.223256-.2232558.334884s.2232558.223256.3348837.111628l1.116279-.334884c.111628 0 .111628-.223256.111628-.334884-.0228521-.065159-.0745687-.116077-.1400755-.137913-.0655069-.021835-.1374311-.012131-.1948083.026285z" fill="#fff"/><path d="m57.0418605 155.162791-2.5674419.781395c-.2232558 0-.2232558.223256-.2232558.334884s.2232558.223256.3348837.111628l2.5674419-.781396c.1116279 0 .2232558-.223255.2232558-.334883s-.2232558-.223256-.3348837-.111628z" fill="#fff"/><path d="m58.0465116 155.72093-7.144186 2.344186c-.2810197.107542-.5935537.097082-.8667536-.02901-.2731998-.126093-.4839261-.357137-.5844092-.640757-.2257392-.337856-.2257392-.778424 0-1.116279l.7813953-1.562791c.3348838-1.227907.1116279-2.12093-.7813953-2.344186l-3.2372093 4.688372-.7813954 6.139535-.3348837 3.237209 4.0186047-.781395c1.8623684-.513578 3.6066006-1.385694 5.1348837-2.567442 1.1162791-.446512 1.0046512-1.897674 1.0046512-1.897674s.5581395-.893024.5581395-1.116279l.2232558-.55814c.0086955-.363652-.1097361-.718947-.3348837-1.004651 0 0 2.2325581-.893023 2.344186-1.227907s0-1.562791 0-1.562791z" fill="#ae7a55"/><path d="m29.2465116 131.274419c.8930233.558139 4.8 2.12093 6.027907 1.227907l-.6697674-.446512c-1.0856187-1.242065-1.7155875-2.816987-1.7860465-4.465116l-.3348838-3.572093-7.144186-2.455814c0 .111628-.8930233 6.474418 3.9069767 9.711628z" fill="#612904" opacity=".1"/><path d="m23.4418605 118.548837c-2.0093024-4.24186.5581395-4.130232.6697674-6.139535 0-4.576744 5.0232558-2.679069 9.7116279-3.795349.2232558.223256 2.9023256 6.474419 3.2372093 7.367442 1.7860465 6.586047 2.5674419 7.144186-1.5627907 8.930233-4.1302325 1.786046-8.2604651 1.339535-10.7162791-.669768-.6697674-.446511-3.3488372-2.790697-3.3488372-2.790697s2.7906977-1.227907 2.0093024-2.902326z" fill="#ae7a55"/><path d="m20.5395349 117.767442c.6697674 0 3.6837209 4.688372 3.1255814 5.134884-.5581396.446511-3.3488372-.781396-4.5767442-2.120931-.5150465-.53793-.6422441-1.338987-.3191629-2.010001.3230813-.671015 1.028618-1.071125 1.7703257-1.003952z" fill="#ae7a55"/><path d="m41.3023256 140.651163c.6474179 2.021323.9861146 4.128769 1.0046511 6.251163l1.5627907.781395c0-.111628 0-.111628.1116279-.223256-.6233361-2.366833-1.5225198-4.652258-2.6790697-6.809302z" fill="#885f23" opacity=".1"/><path d="m125.35814 122.902326c2.902325-1.562791 10.604651-.781396 12.725581-.111628 2.12093.669767 2.009302 3.572093 2.009302 3.572093l-17.525581 1.339535c.055079-1.969999 1.105944-3.777487 2.790698-4.8z" fill="#e6dcd2"/><path d="m126.362791 123.795349c2.344186-1.339535 8.930232-.781396 10.604651-.223256 1.674418.55814-.446512 2.232558-.446512 2.232558h-8.148837s-4.353488-.781395-2.009302-2.009302z" fill="#c4bcb2"/><path d="m127.367442 127.144186-4.465116 29.35814-2.567442-.669768 4.8-29.469767z" fill="#2f5a71"/><path d="m147.795349 152.595349 3.125581 14.4.781396 1.786046c.173953 1.032354.248713 2.078985.223255 3.125582.061651 0 .111628.049977.111628.111628 0 .06165-.049977.111628-.111628.111628h.111628l-.446511 3.572093-.781396 1.451162c-.558139-.223255-.334883-.893023-.334883-.893023v-.781395l-1.116279 2.232558c-.344405-.151376-.532054-.526674-.446512-.893023h.111628l-.334884.558139c-.344404-.151375-.532054-.526674-.446512-.893023l.446512-1.562791v-.223256l-1.116279 1.339535c-.319568-.22543-.455279-.632566-.334884-1.004651l.669768-1.451163.223256-1.116279c-.111628-.446511-.334884-2.232558-.55814-2.902325-.053159-.942682.060202-1.887357.334884-2.790698-1.425929-2.867687-2.692961-5.811673-3.795349-8.818605-.334884-1.227907-1.116279-5.358139-1.116279-5.358139l-3.237209-20.651163 6.36279.223256z" fill="#f0c6a7"/><path d="m147.795349 152.595349s3.906977 10.716279 2.790698 11.832558c-1.11628 1.116279-2.232559.669767-3.348838.669767s-2.455814-5.469767-3.013953-7.255814c-.55814-1.786046-1.116279-5.358139-1.116279-5.358139l-3.23721-20.651163 6.362791.223256z" fill="#e6dcd2"/><path d="m143.218605 140.204651c.669767 3.348837.893023 6.809302 1.339535 10.15814.201881 3.089221.687651 6.153306 1.451162 9.153488.55814 1.897674 1.004651 4.018605 2.902326 4.911628.574248.224163 1.211798.224163 1.786046 0h-.111627c-.669768.781395-2.232559.669767-3.348838.669767s-2.455814-5.469767-3.013953-7.255814c-.55814-1.786046-1.116279-5.358139-1.116279-5.358139l-3.23721-20.651163h3.348838c-.574789 2.761101-.574789 5.610992 0 8.372093z" fill="#010101" opacity=".1"/><path d="m143.218605 164.316279c.111628.893023.334883 6.362791.558139 9.376744.223256 3.013954-.558139 23.106977-.558139 23.106977l-3.683721 32.260465h-4.018605s-1.674419-19.2-.781395-26.455814c.446511-3.572093.669767-8.706977.669767-8.706977l-1.897674-29.358139z" fill="#f0c6a7"/><path d="m143.218605 164.316279c.111628.893023.334883 6.362791.558139 9.376744 0 1.116279 0 4.130233-.111628 7.702326h-.111628c-2.12093.781395-4.688372.893023-6.027907 3.013953-.480371 1.086031-.635473 2.288069-.446511 3.460465-.111628 5.023256-.446512 10.046512-.55814 15.069768-.211711.919077-.36089 1.851446-.446511 2.790698-.446512 4.911627-.334884 9.823255-.446512 14.846511l-.334884 5.35814c-.446511-5.693024-1.227907-17.972093-.558139-23.441861.446511-3.572093.669767-8.706976.669767-8.706976l-1.897674-29.35814z" fill="#010101" opacity=".06"/><path d="m124.24186 192.223256c0-1.004651-.446511-16.855814-.446511-20.539535.119544-2.477394.608668-4.923011 1.451163-7.255814h10.158139l-.893023 8.483721-2.232558 22.437209-6.139535 33.711628-3.906977-.893023s.781395-23.106977 1.004651-25.004651c.223256-1.897675 1.004651-8.595349 1.004651-10.939535z" fill="#f0c6a7"/><path d="m124.24186 192.223256c0-1.004651-.446511-16.855814-.446511-20.539535.119544-2.477394.608668-4.923011 1.451163-7.255814h10.158139l-.893023 8.483721-1.004651 9.153488h-1.786047c-2.344186.223256-4.130232 2.344186-5.023256 4.353489-.893023 2.009302-.669767 5.246511-.781395 7.925581s-.669767 7.813954-1.339535 11.832558c-.669767 4.018605-1.897674 18.306977-2.344186 22.102326.223256-6.362791.893023-24 1.004651-25.004651.334884-3.23721 1.004651-8.706977 1.004651-11.051163z" fill="#010101" opacity=".06"/><path d="m126.809302 228.27907 3.683721 2.455814c3.013954.446511 3.23721 2.455814 3.23721 2.455814h-12.725582c-.159221-1.760384.14882-3.531617.893023-5.134884z" fill="#e6dcd2"/><path d="m130.381395 230.734884h.111628c3.013954.446511 3.23721 2.455814 3.23721 2.455814h-6.809303c0-.111628.111628-.111628.111628-.223256.335195-1.523028 1.814044-2.508927 3.348837-2.232558z" fill="#9abccc"/><path d="m133.730233 233.190698h-12.725582c-.056207-.332526-.056207-.672126 0-1.004651h12.167442c.23322.306413.421188.644755.55814 1.004651z" fill="#7a95a3"/><path d="m140.204651 228.167442 5.916279 2.67907c3.125582.334883 3.23721 2.344186 3.23721 2.344186h-15.293024c-.130977-1.777403.340935-3.547074 1.339535-5.023256z" fill="#e6dcd2"/><path d="m144.223256 231.739535c.156412-.607077.712945-1.024477 1.339535-1.004651h.223256l.334883.223256c3.125582.334883 3.23721 2.344186 3.23721 2.344186h-5.35814v-.781396s.334884-1.004651.223256-.781395z" fill="#9abccc"/><path d="m148.688372 231.962791c.337558.335728.570253.762336.669768 1.227907h-15.293024v-1.227907z" fill="#7a95a3"/><path d="m125.693023 151.590698h16.074419s3.013953 7.702325 3.348837 19.981395l.223256 9.153488s-6.697675.55814-13.060465.55814c-8.372093 0-10.939535-.55814-10.939535-.55814s.111628-8.260465.223256-13.618604c.111628-5.35814 4.130232-15.516279 4.130232-15.516279z" fill="#009f79"/><path d="m125.693023 151.590698h16.074419c1.018953 2.977519 1.76619 6.041192 2.232558 9.153488-3.460465.446512-6.92093 1.116279-9.823256 3.125581-.446511.334884-3.237209 9.153489-3.348837 9.6-2.902326.893024-8.372093 2.009303-9.376744 5.023256 0-4.018604 0-8.818604.111628-11.386046.223256-5.469768 4.130232-15.516279 4.130232-15.516279z" fill="#010101" opacity=".1"/><path d="m121.004651 128.483721c.334884-.781395 8.818605-3.906977 8.818605-3.906977 1.786046.223256 5.469767.223256 6.92093.55814 2.059979.506878 4.075797 1.178817 6.027907 2.009302 3.460465 1.004651 3.460465 4.911628 3.460465 4.911628l.223256 2.67907c-1.242603.344561-2.441246.83151-3.572093 1.451163.223256 1.227906.334884 2.232558.334884 2.232558v.223255c0 1.339535-.781396 10.493024 0 12.948838 2.232558 6.92093.781395 8.372093.781395 8.372093l-21.655814 2.567442s2.009302-11.051163 2.232558-12.948838c.223256-1.897674 0-12.279069 0-12.279069-1.116279-3.348838-3.572093-8.818605-3.572093-8.818605z" fill="#e6dcd2"/><path d="m124.576744 137.302326c-.446511-1.339535-1.227907-3.125582-1.786046-4.8 1.897674 3.013953 3.125581 6.586046 4.688372 9.711627 1.036813 2.004705 1.895915 4.09643 2.567442 6.251163.447033 1.846429 1.082943 3.641938 1.897674 5.35814 1.604477 2.702498 3.775149 5.025499 6.362791 6.809302l-15.962791 1.897675s2.009302-11.051163 2.232558-12.948838c.223256-1.897674 0-12.279069 0-12.279069z" fill="#010101" opacity=".1"/><path d="m130.716279 118.437209h5.246512v6.586047l1.227907.334884c.111628 1.674418-1.674419 3.237209-3.683721 3.237209-2.009303 0-6.809303-1.227907-6.809303-2.902326l3.013954-1.116279z" fill="#f0c6a7"/><path d="m138.753488 114.64186c.893024 2.790698-.111628 6.697675-3.237209 7.702326s-6.362791-.334884-7.255814-3.125581l-3.683721-4.688372 12.055814-7.47907z" fill="#f0c6a7"/><path d="m135.962791 122.12093c0 .223256.111628.334884.111628.55814-1.508006.474139-3.15393.136513-4.353489-.893023 0 0 2.567442 1.451162 4.241861.334883z" fill="#010101" opacity=".1"/><path d="m129.153488 105.711628s1.339535 4.688372 2.344186 5.358139l-2.009302.781396c-.519223.131381-.964506.464619-1.236974.92572-.272469.461101-.349572 1.0119-.214189 1.530094l.334884.781395-.669767.223256s-.223256-.781395-.669768-.55814c-.446511.223256-.893023.334884-.558139 1.339535 1.004651 2.902326 2.12093 2.344186 2.12093 2.344186l2.232558 3.348838c-2.344186-.446512-5.804651-4.8-6.474419-6.809303-2.344186-7.367442 4.8-9.265116 4.8-9.265116z" fill="#312b2b"/><path d="m130.493023 105.376744c6.251163-1.786046 7.590698 3.460465 7.590698 3.460465.499245 1.209077.53895 2.55902.111628 3.795349-.446512-1.897674-3.683721-3.795349-3.683721-3.795349-.893023 2.120931-5.134884 3.013954-5.134884 3.013954l-.334884-6.027907z" fill="#312b2b"/><path d="m125.246512 112.186047c-2.232559 1.786046 1.674418 6.251162 1.674418 6.251162-3.348837 1.562791-5.246511-4.465116-4.353488-6.139535.893023-1.674418 2.67907-.111627 2.67907-.111627z" fill="#312b2b"/><path d="m131.944186 113.190698c1.674419-.334884 2.009302-.111628 2.12093.446511.216826.486257.219412 1.041233.007127 1.529489-.212286.488256-.619914.864878-1.123406 1.037953-1.227907.669768-1.897674.111628-2.567442-1.004651-.669767-1.116279-.223255-1.562791 1.562791-2.009302z" fill="#e3f2f3" opacity=".5"/><path d="m136.52093 112.074419c1.562791-.55814 2.232558-.334884 2.232558.893023s-.223255 2.009302-1.56279 2.12093c-1.098729.139544-2.119843-.589823-2.344186-1.674419-.111628-.558139 0-.893023 1.674418-1.339534z" fill="#e3f2f3" opacity=".5"/><path d="m129.488372 114.083721v.334884h.111628s.223256 0 .223256.111628h.111628c0 .223255.111628.334883.223256.558139.111627.223256 1.227907 1.562791 2.232558 1.227907l.558139-.223256c.955437-.407487 1.47518-1.446972 1.227907-2.455814-.111628-.334883.111628-.446511.111628-.446511h.111628s.111628 0 .223256.334883c.111628.334884.111628 0 .111628.111628.317556.994884 1.312084 1.610544 2.344186 1.451163h.446511c1.004652-.223256 1.227907-1.004651 1.227907-2.12093v-.55814c-.111628-.223255 0-.334883 0-.334883h.111628v-.446512h-.111628c-.59744-.061093-1.200862-.023379-1.786046.111628h-.669768l-1.339534.669767h-.111628l-.669768.446512h-.893023l-1.562791.223256h-.223256l-.334883.223256-1.786047.781395zm5.469768-.669768c-.111628-.446511 0-.781395 1.56279-1.227906h.223256c.893023-.223256 1.339535-.223256 1.562791 0 .223256.223255.334883.446511.334883.893023 0 .446511-.111627 1.674418-1.004651 1.897674h-.446511c-1.037725.140428-2.00931-.539682-2.232558-1.562791zm-4.688373.781396c.111628-.334884.55814-.55814 1.451163-.781396h.223256c1.674419-.334883 1.897674-.111627 2.009302.334884.388158.955601-.058022 2.046262-1.004651 2.455814l-.446511.223256c-1.004652.223256-1.451163-.223256-2.009303-1.116279-.558139-.893023-.334883-.893023-.223256-1.116279z" fill="#2d5371"/><path d="m129.711628 114.530233-2.009302.781395-.111628-.223256 2.009302-1.004651z" fill="#2d5371"/><path d="m137.302326 125.023256c.528438-.253183 1.141069-.263075 1.677406-.027087.536338.235989.942939.694344 1.113291 1.254994-4.24186 3.906977-6.474418 2.344186-6.474418 2.344186 1.786046-.55814 3.683721-3.572093 3.683721-3.572093z" fill="#e6dcd2"/><path d="m137.302326 126.809302c.308252 0 .558139.249888.558139.55814s-.249887.558139-.558139.558139-.55814-.249887-.55814-.558139.249888-.55814.55814-.55814z" fill="#c4bcb2"/><path d="m137.190698 127.367442h.223255c0 .111628 2.009303 3.237209 1.11628 5.804651-.893024 2.567442.223255 7.032558.223255 7.144186h-.223255c0-.223256-.893024-5.469767-.334884-7.255814.558139-1.786046-1.004651-5.469767-1.004651-5.581395s-.111628-.111628 0-.111628z" fill="#fff"/><path d="m133.618605 128.595349c-4.576745 2.009302-8.483721-2.67907-8.483721-2.67907l1.116279-.781395c2.338231 1.388833 4.805583 2.547741 7.367442 3.460465z" fill="#e6dcd2"/><path d="m129.711628 127.367442c.308252 0 .558139.249887.558139.558139 0 .246602-.19991.446512-.446511.446512-.220897.135071-.505684.100488-.687833-.083526-.18215-.184014-.21383-.469138-.076517-.688648.137314-.21951.407563-.315764.652722-.232477z" fill="#c4bcb2"/><path d="m129.711628 127.813953h.223256c1.015001 1.728565 1.838473 3.562662 2.455814 5.469768.447569 1.349453 1.086653 2.627621 1.897674 3.795349.41222.466952.750981.993914 1.004651 1.56279v.223256c-.06165 0-.111628-.049977-.111628-.111628-.255122-.544119-.553767-1.066748-.893023-1.56279-.917054-1.159534-1.599524-2.486559-2.009302-3.906977-.657902-1.855416-1.479754-3.648547-2.455814-5.35814-.223256 0-.223256-.111628-.111628-.111628z" fill="#fff"/><path d="m129.711628 129.265116c.966768 2.707253 1.786567 5.46476 2.455814 8.260465l-.781395 20.316279-2.67907-1.339534s1.786046-13.060466.446511-20.204652-5.358139-9.488372-5.358139-9.488372l2.232558-.893023c1.676779.491785 3.03483 1.726376 3.683721 3.348837z" fill="#2f5a71"/><path d="m128.706977 139.2.558139-2.232558c0 1.227907.334884 1.451163.334884 1.451163.736651.227338 1.538466.058535 2.12093-.446512.55814-.446512.111628-2.232558.111628-2.232558l2.009302 1.116279c.246724.139713.41244.388287.446512.669767l.55814 4.241861-3.906977 4.688372-2.344186-2.344186.669767-1.227907z" fill="#f0c6a7"/><path d="m120.334884 155.832558c1.116279-.111628 10.827907.669768 10.827907.669768 4.018604 1.451162.558139 13.506976-.55814 15.627907-1.116279 2.12093-10.158139.334883-13.283721 0-3.125581-.334884-1.116279-6.586047-.781395-7.813954s2.790698-8.260465 3.795349-8.483721z" fill="#2f5a71"/><path d="m120.334884 155.832558c1.116279 0 10.604651 0 11.386046.893023.781396.893024.893023 1.116279.893023 1.116279s-.669767-.781395-1.339534-.446511c-.669768.334884-2.567442 3.683721-3.795349 5.581395-1.227907 1.897675-6.027907 2.344186-7.144186 2.12093-1.116279-.223255-3.683721-1.227907-2.790698-3.683721.893023-2.455813 1.674419-5.581395 2.790698-5.581395z" fill="#9abccc"/><path d="m150.809302 166.772093-2.902325.223256-.669768-1.897675 3.125582-.446511z" fill="#f3eee8"/><path d="m132.390698 144.781395-1.339535 1.451163-2.790698-1.897674 1.004651-1.451163c1.333565-.072751 2.574924.680931 3.125582 1.897674z" fill="#f3eee8"/><path d="m119.106977 133.506977c-.124359-1.870167.567838-3.702452 1.897674-5.023256 2.009302-.111628 3.013954 2.790698 3.460465 4.688372.446512 1.897674-.893023 13.618605-.893023 13.618605s3.683721-2.902326 5.246512-3.013954c1.136843.273719 2.084048 1.056193 2.567442 2.12093.446511 3.23721-6.251163 7.925582-10.827907 7.590698-4.576745-.334884-1.11628-16.855814-1.451163-19.981395z" fill="#e6dcd2"/><path d="m119.218605 136.52093c.004837 3.211502.228612 6.418939.669767 9.6.334884 2.344186 1.004651 4.911628 3.906977 4.8 1.810702-.103035 3.553943-.722854 5.023256-1.786046h.334883c.890795-.495537 1.625394-1.230136 2.120931-2.120931-.781396 3.125582-6.586047 6.809303-10.716279 6.586047-4.130233-.223256-1.451163-14.734884-1.451163-19.2.08492.703657.122214 1.412247.111628 2.12093z" fill="#010101" opacity=".1"/><path d="m122.12093 164.651163-.223256 1.339535-2.344186-.223256.446512-1.227907z" fill="#21404f"/><path d="m186.306977 225.04186c.558139 0 1.786046.111628 1.897674-.111627.111628-.223256 0-3.572093 1.786047-4.241861 1.786046-.669767-.893024-.334884-.893024-.334884s-1.227907.781396-1.56279 3.460465c-.092227.636057-.591851 1.135681-1.227907 1.227907z" fill="#010101"/><path d="m234.083721 200.818605c-.111628.334883-6.474419 3.572093-6.586047 3.795348-1.124128 2.028741-2.642204 3.81248-4.465116 5.246512-1.674418 1.227907-1.004651-.446512-2.12093 1.451163-1.116279 1.897674-1.451163 2.009302-1.786047 1.897674-.334883-.111628.334884-1.227907.781396-2.455814.446511-1.227907 2.12093-3.013953 1.674418-2.790697-1.193703 1.519627-2.275611 3.123836-3.237209 4.8-.446512.558139-1.786046 1.56279-1.562791.781395.223256-.781395 2.120931-4.353488 2.344186-4.911628.223256-.558139-2.567441 4.241861-2.902325 4.576744-.334884.334884-.781396-.111628-.334884-1.004651s2.232558-4.465116 2.455814-4.8-1.004651 1.004651-1.227907 1.451163l-1.116279 1.674419c-.55814.893023-1.339535 1.227907-.781395-.111628.232008-.804856.530717-1.588968.893023-2.344186.673942-.845406 1.421013-1.62983 2.232558-2.344186l6.139535-4.353489c3.237209-2.567442 5.358139-3.906977 5.804651-4.353488z" fill="#e0ac9c"/><path d="m228.613953 159.962791c1.897675-.446512 1.674419-.893024 3.348838 1.227907 1.674418 2.12093 2.232558 5.023255 2.790697 6.697674.55814 1.674419 9.711628 21.655814 9.041861 23.888372-.669768 2.232558-6.697675 10.493023-9.041861 11.72093-4.688372 2.567442-5.581395 0-5.581395 0l-4.576744-5.804651s8.595349-8.483721 7.590698-8.930232c-1.004652-.446512-4.465117-9.041861-5.134884-12.502326-.669768-3.460465 1.56279-16.297674 1.56279-16.297674z" fill="#a380b7"/><path d="m197.581395 305.525581c-1.451162-.223255-4.24186-8.930232-4.8-7.255814-.35033 1.830317.235933 3.714731 1.562791 5.023256 1.037523.8027 2.118209 1.548001 3.237209 2.232558z" fill="#010101"/><path d="m199.144186 295.702326c.334884 3.460465-1.227907 5.134883-2.232558 8.706976-.334884 1.227907-.893023-4.688372-1.562791-3.237209-.168159.528018-.433138 1.020121-.781395 1.451163-.669768 1.004651 4.353488 1.562791 6.586046-2.344186 1.116279-2.009303 5.35814 1.451163 4.911628 0-.446511-1.451163-1.786046-4.8-1.451163-8.148837.781396-8.03721-5.693023.223255-5.469767 3.572093z" fill="#cc9584"/><path d="m206.95814 299.274419c-.111628-1.786047-3.348838-2.902326-6.251163.893023 0 0-1.897675-5.246512-4.353489-1.116279-.334883.558139-.893023 1.116279-1.451162.669767-.55814-.446511-1.451163-.334883-1.451163.55814s.111628 2.567442.893023 3.013953c1.407193 1.146602 3.307096 1.484362 5.023256.893024.781395-.223256.223256-.334884 1.897674-3.572094.781396-1.339534 4.018605 4.576745 5.134884 3.348838s.669767-2.344186.55814-4.688372z" fill="#010101"/><path d="m206.176744 303.293023c-.558139 1.339535-2.009302-3.683721-1.786046 1.451163-.368847.069507-.747432.069507-1.116279 0 0 0-.223256 1.227907-.781396.111628-.558139-1.116279 3.683721-1.562791 3.683721-1.562791z" fill="#010101"/><path d="m214.325581 195.460465c4.018605 7.032558 5.916279 17.525582 1.674419 25.674419-2.009302 4.018604-5.023256 33.153488-5.246512 36.502325 1.786047 13.395349-.893023 38.511628-1.227907 43.534884-.223255 2.232558-14.511628-.334884-14.511628-.334884s2.902326-37.172093 3.013954-40.52093-1.227907-4.018605-.893023-8.706977c.223256-1.786046-.55814-18.976744.223256-34.381395.385853-7.181987 1.584193-14.297134 3.572093-21.209302 1.227907-3.795349 13.395348-.55814 13.395348-.55814z" fill="#242e5b"/><path d="m197.916279 260.539535c0-4.8-1.116279-4.018605-.781395-8.706977.111628-1.786046-.669768-18.976744.111628-34.381395.385853-7.181987 1.584193-14.297134 3.572093-21.209303.254832-.686303.845587-1.192664 1.56279-1.339534.55814.111627.893024.334883.893024.781395-1.540155 5.059106-2.586899 10.255438-3.125582 15.516279-1.227907 11.051163-.893023 36.948837-1.004651 39.739535-.244754 3.176897.173389 6.36999 1.227907 9.376744 1.451163 3.348837-.334884 37.841861-.446512 41.525581l-5.023255-.781395s3.013953-37.172093 3.013953-40.52093z" fill="#204091"/><path d="m219.906977 304.52093c-1.339535-.223256-4.353489-1.339535-4.8.334884-.446512 1.674419.781395-4.018605 1.674418-3.237209.893024.781395 3.125582 2.902325 3.125582 2.902325z" fill="#010101"/><path d="m221.916279 294.251163c.334884 3.348837-1.227907 5.134884-2.232558 8.595349-.334884 1.227907-.893023-4.576745-1.451163-3.23721-.558139 1.339535-.558139 1.116279-.893023 1.562791s4.353488 1.562791 6.586046-2.455814c1.116279-2.009302 5.35814 1.562791 4.911628.111628-.446511-1.451163-1.786046-4.8-1.451162-8.148837.781395-8.03721-5.693024.223256-5.469768 3.572093z" fill="#cc9584"/><path d="m229.172093 297.376744c-.446512-1.562791-2.790698-2.455814-5.693023 1.339535 0 0-2.232558-4.8-4.130233-.558139-.334884.669767-2.009302-.223256-2.344186.223255-.334884.446512-1.451163-.223255-1.451163.781396.031382 1.100695.620119 2.10996 1.562791 2.679069 1.116279.893024 2.455814 1.451163 5.246512.893024.781395-.223256.111628-.446512 1.786046-3.683721.669768-1.339535 3.906977 4.688372 5.023256 3.348837s.55814-2.790698 0-5.023256z" fill="#010101"/><path d="m228.948837 301.730233c-.558139 1.451162-1.897674-3.683721-1.674418 1.451162h-1.116279s-.223256 1.227907-.893024.111628c-.669767-1.116279 3.683721-1.56279 3.683721-1.56279z" fill="#010101"/><path d="m223.813953 196.911628c2.455814 8.372093 6.139535 14.176744 2.567442 22.548837-1.786046 4.130233 1.116279 32.818605 1.116279 36.167442 3.348838 10.046512 4.018605 37.060465 4.018605 42.083721 0 2.232558-13.506977 2.455814-13.506977 2.455814s-2.009302-32.260465-2.232558-35.609302c-.223256-3.348838-1.339535-3.795349-1.339535-8.595349 0-2.790698-6.586046-52.688372-7.702325-56.595349s17.079069-2.455814 17.079069-2.455814z" fill="#242e5b"/><path d="m210.306977 138.306977c.446511-4.911628.669767-7.590698 6.36279-8.818605 1.816452-.197587 3.646768-.234941 5.469768-.111628 8.706977 2.009303 8.372093 7.702326 6.809302 13.953489-1.56279 6.251162-4.911628 9.04186-7.813953 10.158139l-.669768 3.348837-10.493023-3.460465c.643046-1.249081 1.022972-2.616818 1.116279-4.018604-1.786046-.781396-2.67907-.55814-1.786046-8.818605.111627-.55814.893023-1.674419 1.004651-2.232558z" fill="#cc9584"/><path d="m209.637209 156.837209c-1.339535.893024-10.158139 3.683721-10.269767 3.795349s3.125581 14.734884 1.116279 18.976744c1.116279 2.455814 1.786046 2.455814-.55814 12.725582-.496586 2.016387-.496586 4.123147 0 6.139535 0 0 2.344186-.781396 11.386047.558139 9.04186 1.339535 12.948837-.223256 13.730232-.446511 2.790698-1.004652 2.120931-1.339535 1.786047-4.241861-.554265-6.543135.127356-13.132142 2.009302-19.423256 1.897675-6.809302 2.790698-12.725581 2.455814-13.506977-.334883-.781395-2.009302-1.897674-4.911628-3.795348-2.902325-1.897675-16.744186-.781396-16.744186-.781396z" fill="#a380b7"/><path d="m226.046512 157.506977-2.455814-3.795349s-10.269768-1.116279-14.065117 1.116279c-.444829 1.204679-.817581 2.43476-1.116279 3.683721 0 0 6.809303-2.344186 9.041861-1.786047 2.232558.55814 8.595349.781396 8.595349.781396z" fill="#a380b7"/><path d="m213.87907 153.711628c-3.572093.558139-4.465117.558139-4.8 1.227907-.333908.793396-.595437 1.615343-.781396 2.455814l4.688373-.781396c.893023-.223255.893023-2.902325.893023-2.902325z" fill="#bc9fcc"/><path d="m228.948837 132.948837c-2.033639-3.219242-5.468615-5.288504-9.265116-5.581395-3.237209.111628-8.930233.334884-9.265116 9.934884-.334884 9.6 5.581395 12.837209 7.479069 13.730232 3.572093 1.786047 5.35814.669768 5.35814.669768s11.386046-8.706977 5.693023-18.753489z" fill="#010101"/><path d="m225.823256 145.227907c-1.339535-1.562791-5.023256 2.567442-5.693023 3.237209-2.902326-4.911628 1.897674-8.260465 5.693023-5.246511.584939.423625.974062 1.065474 1.079142 1.780016s-.082786 1.441243-.521003 2.015332z" fill="#26282d"/><path d="m227.051163 146.344186c1.227907 1.451163 3.683721 8.930233 1.116279 14.176744-2.567442 5.246512-11.386047 21.097675-8.818605 25.227907-3.572093-3.013953-1.786046-8.148837-1.786046-8.148837l-.781396 5.916279s-1.339535-5.358139-1.116279-7.47907c-.661257 1.67568-.538414 3.559284.334884 5.134884 0 0-5.693023-3.683721-2.67907-11.162791 3.013954-7.479069 5.469768-13.060465 6.251163-16.967442 1.227907-5.916279-.111628-6.586046 1.674419-8.037209 1.786046-1.451163 5.023255.334884 5.804651 1.339535z" fill="#010101"/><path d="m222.586047 143.776744c2.567441 1.562791 5.916279 6.139535 2.455813 14.511628-3.460465 8.372093-7.702325 16.186047-7.590697 18.418605-.334884-1.786047 2.67907-10.939535 4.8-15.404651-2.902326 4.465116-5.581396 13.953488-5.35814 16.52093-.558139-2.232558-.111628-9.265116 1.004651-11.832558-1.227907 3.125581-4.130232 9.265116-3.795348 11.051162-1.116279-3.125581 1.116279-8.595348 3.348837-14.288372 2.232558-5.693023 6.027907-12.279069 2.902325-16.744186-1.674418-2.567442 2.232559-2.232558 2.232559-2.232558z" fill="#26282d"/><path d="m218.902326 127.367442 2.567441.223256c-1.451162-.334884-8.595348 1.786046-6.36279 9.488372-1.562791-.334884-.669768-6.027907-.669768-6.027907s-1.56279 4.8.893024 7.813953c-1.11628-.669767-2.009303-2.567442-2.232559-4.465116-.174475 2.474333.626927 4.918611 2.232559 6.809302-3.348838-1.004651-4.465117-7.590697-3.348838-9.823255 1.245568-2.649582 4.002363-4.250302 6.920931-4.018605z" fill="#26282d"/><path d="m183.181395 223.813953c-2.232558-.223255-3.683721 2.120931-3.683721 2.120931-.669767 3.013953-2.567441 10.827907-2.567441 13.283721s20.651162 5.804651 21.209302 5.804651c.558139 0 2.12093-16.52093 1.227907-17.413954-2.567442-2.679069-11.497675-3.237209-16.186047-3.795349z" fill="#010101"/><path d="m180.948837 226.381395c.111891-1.34996 1.213844-2.404001 2.567442-2.455814 5.804651.55814 18.641861.893024 21.32093 2.567442 0 0 2.902326 20.986047 1.674419 22.325582s-4.8 1.674418-5.916279 1.786046-21.544186-2.902325-22.437209-5.246511c-.893024-2.344187 1.674418-12.725582 2.790697-18.976745z" fill="#010101"/><path d="m204.27907 226.716279c-1.339535-.334884-4.353489-.669767-4.911628 1.227907-.55814 1.897674-3.013954 15.069767-3.795349 15.516279s-13.172093-1.451163-17.413953-3.237209c2.567441 1.451163 15.739534 4.688372 16.632558 4.8.971952.161227 1.917428-.406058 2.232558-1.339535.223256-.781395 2.790697-13.618605 3.348837-15.516279.55814-1.897675 1.562791-1.451163 2.67907-1.227907s1.227907-.223256 1.227907-.223256z" fill="#26282d"/><path d="m200.260465 230.511628c-.446512 3.013953-2.344186 17.413953-1.451163 18.418605.893024 1.004651 6.027907.334883 6.027907-.334884 0-.669768-2.567442.669767-3.906976-.781396-1.339535-1.451162-.669768-17.302325-.669768-17.302325z" fill="#26282d"/><path d="m195.795349 224.930233c1.116279.111627 1.227907 1.227907.558139 1.227907-.669767 0-1.56279.334883-2.009302-.446512s.334884-4.465116-3.125581-5.023256c-3.460465-.558139-3.125582 3.572093-3.683721 4.130233-.55814.558139-1.897675.223255-1.897675.223255s-.223256-.893023 1.004651-.781395.669768-4.688372 3.906977-4.8c3.23721-.111628 3.795349 2.12093 4.576744 4.241861.781396 2.12093.669768 1.227907.669768 1.227907z" fill="#26282d"/><path d="m191.888372 197.35814c-.391631 5.535009-.503401 11.08627-.334884 16.632558-.478546 1.245603-1.076691 2.441894-1.786046 3.572093-.321448.527598-.583509 1.089157-.781395 1.674418-.123039.701624-.123039 1.419307 0 2.120931.132068.486565.359756.94194.669767 1.339534.446512.446512 1.339535.55814 1.004651 0-.334884-.558139-.781395-.781395-.781395-1.451162.143038-.589029.254822-1.18521.334883-1.786047l-.334883 1.786047c.155543.623048.462264 1.198151.893023 1.674418.446512.669768 1.004651.334884.781395-.111628-.234554-.289816-.388565-.636342-.446511-1.004651l.558139-1.786046c-.359477.649581-.551309 1.378546-.558139 2.12093.111628.669767 1.227907 1.339535 1.56279.893023.334884-.446511-.558139-.781395-.558139-.893023.078234-.659398.266917-1.30092.558139-1.897675-.271552.565181-.459561 1.166812-.558139 1.786047-.111628.55814 0 .223256.446512.55814.446511.334883 1.004651.669767 1.116279.223255.111628-.446511-.781396-.781395-.669768-1.116279.117431-.507392.3053-.995851.55814-1.451163.632035-1.760412 1.007965-3.602472 1.116279-5.469767 2.009302-7.702326 2.344186-16.297674 1.451163-18.418605z" fill="#e0ac9c"/><path d="m199.367442 160.632558c-1.674419 0-4.241861 3.348837-4.241861 6.92093s-3.013953 23.553489-3.572093 25.897675c-.558139 2.344186-3.460465 16.409302-1.674418 18.64186 1.786046 2.232558-.55814 2.790698-.55814 2.790698s5.134884 1.339535 6.139535 1.116279.893023-1.674419 1.562791-2.567442c.669767-.893023 3.125581-13.506977 3.906977-17.413953.781395-3.906977.223255-23.776745.223255-25.227907 0-1.451163-.669767-10.15814-1.786046-10.15814z" fill="#bc9fcc"/></g></g></g></svg>