<svg height="800" viewBox="0 0 1199 800" width="1199" xmlns="http://www.w3.org/2000/svg"><g fill="none" fill-rule="evenodd"><path d="m.116279 0h1198.88372v799.255814h-1198.88372z" fill="#fff"/><g fill="#93d5f6" fill-rule="nonzero" transform="translate(7.930232 113.199835)"><path d="m499.851544-246.697674h12.279069v669.767441h-12.279069z" transform="matrix(-.17364818 -.98480775 .98480775 -.17364818 507.009204 601.80333)"/><path d="m324.092397 271.818839h12.27907v354.976745h-12.27907z" transform="matrix(.62932039 .77714596 -.77714596 .62932039 471.587529 -90.089391)"/><path d="m551.44186 313.21877h12.27907v354.976744h-12.27907z" transform="matrix(.9961947 -.08715574 .08715574 .9961947 -40.64618 50.463709)"/><path d="m315.906977 55.358305h12.27907v354.976744h-12.27907z" transform="matrix(.5 -.8660254 .8660254 .5 -40.627881 395.323799)"/><path d="m755.587632 256.119843h12.279069v379.534884h-12.279069z" transform="matrix(.5591929 -.82903757 .82903757 .5591929 -33.882572 828.050721)"/><path d="m1033.05041 261.983669h12.27907v320.372093h-12.27907z" transform="matrix(.88294759 .46947156 -.46947156 .88294759 319.836361 -438.454148)"/><path d="m546.898451 306.582829c-55.686009-.974188-103.537214 9.696877-106.904444 23.842766-3.29886 14.142139 39.127094 26.404347 94.816265 27.382286 55.679192.977001 103.51854-9.698753 106.867887-23.846517 3.319707-14.146826-39.095477-26.400502-94.779609-27.378535"/><path d="m1117.24487 267.480627c-21.83438-.419813-40.70969 3.721176-42.18026 9.254798-1.44367 5.529165 15.07335 10.356798 36.90773 10.779286s40.70969-3.721176 42.17129-9.253907c1.45264-5.534513-15.06438-10.358491-36.89876-10.780177"/><path d="m986.786281 546.570294c-40.518155-.702393-76.349509 6.198623-80.063043 15.417538-3.666288 9.218914 26.183724 17.2701 66.701879 17.972494 40.508703.702393 76.340063-6.207403 80.034693-15.426318 3.68519-9.227695-26.16482-17.26132-66.673529-17.963714"/><path d="m566.252764 639.241224c-55.863485-.984231-105.269779 8.681953-110.391605 21.590919-5.050555 12.908966 36.108544 24.17064 91.964452 25.154871 55.863484.984231 105.269778-8.681953 110.354267-21.590919s-36.06363-24.17064-91.927114-25.154871"/><path d="m138.821677 536.538484c-69.9882997-.912573-131.88118889 8.056454-138.2965799 20.048956-6.32588617 11.983284 45.2349465 22.436395 115.2144709 23.358186 69.971822.912573 131.864614-8.065672 138.240128-20.048956 6.368688-11.992502-45.186294-22.445613-115.158019-23.358186"/><path d="m889.897087.72447312c-47.696533-.91234765-88.690996 8.06095375-91.600552 20.04810708-2.850692 11.9847833 33.459891 22.4441157 81.156424 23.3589913 47.679714.9132166 88.665768-8.0626127 91.550097-20.051346 2.875919-11.9886542-33.426255-22.44174576-81.105969-23.35575238"/><path d="m127.732345 129.089753c-48.4199604-.816716-91.8794949 7.234589-97.0900074 17.994558-5.1535829 10.754223 29.893693 20.140232 78.3146174 20.960778 48.412153.819684 91.86467-7.235547 97.046323-17.993505 5.183232-10.761883-29.857903-20.139371-78.270933-20.961831"/></g></g></svg>