<?xml version="1.0" encoding="UTF-8"?>
<svg width="34px" height="35px" viewBox="0 0 34 35" version="1.1" xmlns="http://www.w3.org/2000/svg" xmlns:xlink="http://www.w3.org/1999/xlink">
    <!-- Generator: Sketch 56.2 (81672) - https://sketch.com -->
    <title>icon-toolbox</title>
    <desc>Created with Sketch.</desc>
    <g id="icon-toolbox" stroke="none" stroke-width="1" fill="none" fill-rule="evenodd">
        <g fill="#8FCAE7">
            <polygon id="Fill-38" points="2.686 34.161 30.483 34.161 30.483 19.694 2.686 19.694"></polygon>
            <path d="M32.8623,5 C32.7143,4.69 32.3063,4.683 32.1343,4.978 C31.6263,5.851 31.1233,6.677 30.8203,7.072 C30.3553,7.685 29.5783,8.849 28.6863,8.277 L26.0583,6.597 C25.1663,6.025 25.6523,4.655 25.9203,3.916 C26.1013,3.417 26.5093,2.46 26.9383,1.484 C27.0693,1.186 26.8733,0.832 26.5683,0.824 C24.7023,0.785 23.1483,1.864 22.0523,3.886 C19.9753,7.714 21.5173,10.71 25.3653,12.896 C25.3493,12.979 25.2643,13.044 25.0933,13.022 C24.7723,12.983 23.4423,12.765 21.6833,11.631 L17.9913,18.436 L24.3553,18.436 L27.0303,13.505 C29.3083,13.974 31.1963,12.895 32.4663,10.552 C33.5173,8.617 33.6733,6.699 32.8623,5" id="Fill-40"></path>
            <path d="M5.3809,11.9805 L10.1659,10.0585 C10.1659,10.0585 10.2599,10.2135 10.1079,10.3425 L8.0709,12.1305 L10.2279,18.4365 L15.7869,18.4365 L12.5849,9.0735 L15.2989,7.9785 C15.5999,7.8575 15.7519,7.4955 15.6409,7.1685 C14.4489,3.6865 14.7489,4.5625 13.8259,1.8635 C13.7149,1.5375 13.3809,1.3715 13.0809,1.4925 L3.1619,5.4945 C3.0309,5.5465 2.9239,5.6495 2.8569,5.7815 L0.9409,9.5735 C0.7719,9.9095 0.9149,10.3315 1.2449,10.4645 L4.9769,11.9805 C5.1069,12.0335 5.2499,12.0335 5.3809,11.9805" id="Fill-41"></path>
        </g>
    </g>
</svg>