<svg height="800" viewBox="0 0 1199 800" width="1199" xmlns="http://www.w3.org/2000/svg"><g fill="none" fill-rule="evenodd"><path d="m.116279 0h1198.88372v799.255814h-1198.88372z" fill="#fff"/><g fill="#93d5f6" fill-rule="nonzero" transform="translate(7.930232 113.199835)"><path d="m504.851544-251.697674h12.279069v683.767442h-12.279069z" transform="matrix(-.17364818 -.98480775 .98480775 -.17364818 510.907829 609.074665)"/><path d="m324.092397 271.818839h12.27907v354.976745h-12.27907z" transform="matrix(.62932039 .77714596 -.77714596 .62932039 471.587529 -90.089391)"/><path d="m551.44186 313.21877h12.27907v354.976744h-12.27907z" transform="matrix(.9961947 -.08715574 .08715574 .9961947 -40.64618 50.463709)"/><path d="m315.906977 55.358305h12.27907v354.976744h-12.27907z" transform="matrix(.5 -.8660254 .8660254 .5 -40.627881 395.323799)"/><path d="m755.587632 256.119843h12.279069v379.534884h-12.279069z" transform="matrix(.5591929 -.82903757 .82903757 .5591929 -33.882572 828.050721)"/><path d="m1031.55466 267.982828h12.27907v314h-12.27907z" transform="matrix(.88294759 .46947156 -.46947156 .88294759 320.981955 -437.422651)"/></g></g></svg>